<svg width="14" height="9" viewBox="0 0 14 9" fill="none" xmlns="http://www.w3.org/2000/svg">
<path d="M5.80687 1.23C5.8802 1.31667 5.91687 1.40667 5.91687 1.5C5.91687 1.54 5.91353 1.58334 5.90687 1.63C5.90687 1.67 5.90353 1.70667 5.89687 1.74C5.87687 1.81334 5.83353 1.88334 5.76687 1.95C5.71353 1.99 5.6402 2.02 5.54687 2.04C5.5002 2.05334 5.45353 2.06334 5.40687 2.07C5.3602 2.07667 5.3102 2.08667 5.25687 2.1C5.2102 2.10667 5.16353 2.11 5.11687 2.11C5.0702 2.11 5.0202 2.11 4.96687 2.11H4.45687C4.33687 2.11667 4.21687 2.12001 4.09687 2.12001C3.98353 2.12001 3.8702 2.12001 3.75687 2.12001C3.76353 2.32667 3.76687 2.55 3.76687 2.79C3.76687 3.02334 3.76353 3.29667 3.75687 3.61C3.75687 3.92334 3.75353 4.28667 3.74687 4.7C3.74687 5.11334 3.74687 5.59334 3.74687 6.14001V6.9C3.74687 6.96667 3.7502 7.01667 3.75687 7.05C3.75687 7.07667 3.75687 7.10334 3.75687 7.13C3.75687 7.15 3.75353 7.17667 3.74687 7.21C3.73353 7.27 3.72353 7.34 3.71687 7.42C3.71687 7.45334 3.71353 7.48667 3.70687 7.52001C3.7002 7.54667 3.6902 7.57667 3.67687 7.61C3.6502 7.63667 3.63687 7.65667 3.63687 7.67L3.60687 7.73C3.57353 7.79667 3.5102 7.86 3.41687 7.92C3.2702 7.99334 3.10687 8.01001 2.92687 7.97001C2.81353 7.95667 2.72687 7.92667 2.66687 7.88C2.60687 7.82 2.56353 7.76001 2.53687 7.70001C2.49687 7.62667 2.47353 7.55667 2.46687 7.49001C2.44687 7.43001 2.43687 7.36667 2.43687 7.3V2.16C2.39687 2.16 2.31353 2.16 2.18687 2.16C2.0602 2.16 1.92353 2.16 1.77687 2.16C1.63687 2.15334 1.50353 2.14667 1.37687 2.14C1.2502 2.13334 1.16353 2.12667 1.11687 2.12001C1.07687 2.11334 1.01353 2.10334 0.926865 2.09C0.846865 2.07667 0.780199 2.06334 0.726865 2.05C0.586865 2.01 0.476865 1.94667 0.396865 1.86C0.323532 1.77334 0.286865 1.67667 0.286865 1.57C0.286865 1.53 0.286865 1.49 0.286865 1.45C0.286865 1.41 0.293532 1.37334 0.306865 1.34C0.326865 1.26 0.380199 1.19334 0.466865 1.14C0.493532 1.12 0.533532 1.09667 0.586865 1.07C0.646865 1.03667 0.703532 1.01334 0.756865 1C0.836865 0.973338 0.936865 0.953338 1.05687 0.940005C1.1102 0.933338 1.16353 0.930005 1.21687 0.930005C1.2702 0.930005 1.32687 0.930005 1.38687 0.930005C1.6202 0.930005 1.8402 0.930005 2.04687 0.930005C2.2602 0.930005 2.48353 0.926672 2.71687 0.920005C3.10353 0.913338 3.48687 0.913338 3.86687 0.920005C4.25353 0.920005 4.63687 0.926672 5.01687 0.940005C5.10353 0.946671 5.18687 0.956671 5.26687 0.970005C5.34687 0.983338 5.42687 1.00667 5.50687 1.04C5.56687 1.06 5.62353 1.08667 5.67687 1.12C5.7302 1.14667 5.77353 1.18334 5.80687 1.23Z" fill="white"/>
<path d="M6.39651 6.94L6.40651 6.15L6.41651 4.68C6.42318 4.46667 6.42651 4.24667 6.42651 4.02C6.42651 3.79334 6.42651 3.56 6.42651 3.32C6.42651 3.08 6.42651 2.86667 6.42651 2.68C6.42651 2.49334 6.43318 2.28334 6.44651 2.05V2.01C6.45318 1.94334 6.45651 1.87667 6.45651 1.81C6.46318 1.73667 6.46651 1.66334 6.46651 1.59C6.47318 1.47 6.50984 1.34 6.57651 1.2C6.62318 1.10667 6.69318 1.02667 6.78651 0.960004C6.89318 0.906671 6.99651 0.880005 7.09651 0.880005C7.14985 0.880005 7.19651 0.883338 7.23651 0.890005C7.28318 0.890005 7.32651 0.893338 7.36651 0.900005C7.45318 0.913338 7.52985 0.953338 7.59651 1.02C7.63651 1.05334 7.67318 1.10667 7.70651 1.18C7.71984 1.22 7.72985 1.26 7.73651 1.3C7.74985 1.33334 7.75984 1.37 7.76651 1.41C7.77318 1.45667 7.77651 1.5 7.77651 1.54C7.78318 1.58 7.78651 1.62 7.78651 1.66C7.78651 1.70667 7.78318 1.75 7.77651 1.79C7.77651 1.82334 7.77651 1.86 7.77651 1.9V2.07L7.71651 7.26V7.36C7.71651 7.38 7.71318 7.40667 7.70651 7.44C7.70651 7.46667 7.70318 7.5 7.69651 7.54C7.68318 7.57334 7.66985 7.61 7.65651 7.65C7.64985 7.68334 7.63984 7.72 7.62651 7.76C7.60651 7.79334 7.58318 7.82667 7.55651 7.86C7.53651 7.88667 7.50984 7.91334 7.47651 7.94C7.42318 7.99334 7.33651 8.03 7.21651 8.05C7.03651 8.09 6.86651 8.07334 6.70651 8C6.62651 7.94667 6.56984 7.88 6.53651 7.8C6.51651 7.78 6.50651 7.76001 6.50651 7.74001C6.49985 7.72667 6.49318 7.71667 6.48651 7.71C6.47985 7.70334 6.47318 7.69334 6.46651 7.68001C6.45318 7.64667 6.44318 7.61334 6.43651 7.58001C6.42984 7.54001 6.42651 7.5 6.42651 7.46C6.41985 7.42667 6.41318 7.39334 6.40651 7.36C6.40651 7.32667 6.40318 7.29334 6.39651 7.26C6.38984 7.20667 6.38984 7.15 6.39651 7.09V6.94Z" fill="white"/>
<path d="M12.9935 1.55C13.2468 1.78334 13.4335 2.06334 13.5535 2.39C13.6735 2.71 13.7202 3.03 13.6935 3.35C13.6668 3.65667 13.5702 3.94 13.4035 4.2C13.2368 4.45334 12.9835 4.64667 12.6435 4.78C12.3768 4.89334 12.1135 4.97334 11.8535 5.02C11.5935 5.06667 11.3068 5.10334 10.9935 5.13C10.8535 5.14334 10.7335 5.15334 10.6335 5.16001C10.5402 5.16001 10.4302 5.16334 10.3035 5.17C10.2768 5.17 10.2302 5.17 10.1635 5.17C10.1035 5.17 10.0602 5.17334 10.0335 5.18001V7.25C10.0135 7.37667 9.98683 7.50667 9.9535 7.64001C9.92683 7.77334 9.85017 7.87667 9.7235 7.95001C9.65017 7.99001 9.56017 8.01334 9.4535 8.02001C9.34683 8.02667 9.25017 8.02334 9.1635 8.01C9.07017 7.99667 8.99017 7.97334 8.9235 7.94C8.8635 7.9 8.8135 7.83334 8.7735 7.74001C8.74683 7.68001 8.72017 7.61334 8.6935 7.54C8.6735 7.46 8.6635 7.36334 8.6635 7.25V1.72C8.6635 1.67334 8.66683 1.63 8.6735 1.59C8.68017 1.55 8.68683 1.51 8.6935 1.47C8.70683 1.43667 8.71683 1.4 8.7235 1.36C8.73017 1.32 8.74017 1.28334 8.7535 1.25C8.76683 1.21667 8.78017 1.18667 8.7935 1.16C8.8135 1.13334 8.83683 1.11 8.8635 1.09C8.89683 1.05667 8.94683 1.02667 9.0135 1C9.08683 0.973338 9.1935 0.960004 9.3335 0.960004H9.3535C9.56017 0.946671 9.79017 0.936671 10.0435 0.930005C10.2968 0.916671 10.5068 0.920005 10.6735 0.940005C10.7668 0.953338 10.8535 0.963338 10.9335 0.970005C11.0135 0.970005 11.0902 0.973338 11.1635 0.980005C11.2435 0.986671 11.3235 0.993338 11.4035 1C11.4835 1.00667 11.5635 1.01667 11.6435 1.03C11.7102 1.04334 11.7702 1.05334 11.8235 1.06C11.8835 1.06667 11.9435 1.07667 12.0035 1.09C12.0568 1.10334 12.1135 1.11667 12.1735 1.13C12.2402 1.14334 12.3002 1.16667 12.3535 1.2C12.4935 1.24 12.6102 1.29 12.7035 1.35C12.7968 1.41 12.8935 1.47667 12.9935 1.55ZM12.3935 3.2C12.4002 3.04 12.3668 2.9 12.2935 2.78C12.2268 2.66 12.1302 2.56 12.0035 2.48C11.8768 2.4 11.7335 2.33667 11.5735 2.29C11.4135 2.24334 11.2535 2.21 11.0935 2.19C11.0535 2.19 10.9968 2.19 10.9235 2.19C10.8568 2.18334 10.7835 2.18 10.7035 2.18C10.6235 2.17334 10.5468 2.17 10.4735 2.17C10.4068 2.16334 10.3535 2.16 10.3135 2.16C10.2802 2.15334 10.2402 2.15 10.1935 2.15C10.1468 2.15 10.0935 2.15 10.0335 2.15C10.0402 2.35667 10.0435 2.55667 10.0435 2.75C10.0435 2.93667 10.0435 3.14 10.0435 3.36C10.0368 3.48 10.0335 3.6 10.0335 3.72C10.0335 3.84 10.0335 3.95667 10.0335 4.07L10.6535 4.06C10.8135 4.06 10.9902 4.05 11.1835 4.03C11.3768 4.01001 11.5602 3.97 11.7335 3.91C11.9068 3.85 12.0535 3.76334 12.1735 3.65C12.3002 3.53667 12.3735 3.38667 12.3935 3.2Z" fill="white"/>
</svg>
