<svg width="24" height="9" viewBox="0 0 24 9" fill="none" xmlns="http://www.w3.org/2000/svg">
<path d="M5.51377 1.41C5.52044 1.45666 5.52377 1.5 5.52377 1.54C5.52377 1.58 5.52377 1.62 5.52377 1.66V2.07L5.46377 7.26V7.36C5.46377 7.4 5.45377 7.46 5.43377 7.54C5.4271 7.57333 5.4171 7.61 5.40377 7.65C5.39044 7.68333 5.3771 7.72 5.36377 7.76C5.33044 7.84 5.28377 7.9 5.22377 7.94C5.17044 7.99333 5.08377 8.03 4.96377 8.05C4.7771 8.09 4.6071 8.07333 4.45377 8C4.3671 7.94666 4.3071 7.88 4.27377 7.8C4.26044 7.78666 4.2471 7.76666 4.23377 7.74C4.23377 7.72666 4.2271 7.70666 4.21377 7.68C4.20044 7.64666 4.19044 7.61333 4.18377 7.58C4.1771 7.54 4.17044 7.5 4.16377 7.46C4.16377 7.42666 4.16044 7.39333 4.15377 7.36C4.15377 7.32666 4.15044 7.29333 4.14377 7.26C4.13044 7.22666 4.12377 7.2 4.12377 7.18C4.12377 7.15333 4.12377 7.12333 4.12377 7.09C4.1371 7.06333 4.14377 7.01333 4.14377 6.94L4.15377 6.15L4.16377 4.89H3.62377L1.59377 4.9L1.57377 7.26V7.36C1.57377 7.4 1.56377 7.46 1.54377 7.54C1.5371 7.57333 1.5271 7.61 1.51377 7.65C1.50044 7.68333 1.4871 7.72 1.47377 7.76C1.44044 7.84 1.39377 7.9 1.33377 7.94C1.28044 7.99333 1.19377 8.03 1.07377 8.05C0.887103 8.09 0.717103 8.07333 0.56377 8C0.497103 7.96 0.43377 7.89333 0.37377 7.8C0.360436 7.77333 0.35377 7.75333 0.35377 7.74L0.32377 7.68C0.310436 7.64666 0.300436 7.61333 0.29377 7.58C0.287103 7.54 0.280436 7.5 0.27377 7.46C0.27377 7.42666 0.270436 7.39333 0.26377 7.36C0.257103 7.32666 0.250436 7.29333 0.24377 7.26C0.237103 7.20666 0.237103 7.15 0.24377 7.09V6.94L0.27377 4.68C0.280436 4.46666 0.28377 4.24666 0.28377 4.02C0.28377 3.79333 0.28377 3.56 0.28377 3.32C0.277103 3.08 0.27377 2.86666 0.27377 2.68C0.280436 2.49333 0.290436 2.28333 0.30377 2.05V2.01C0.310436 1.94333 0.31377 1.87666 0.31377 1.81C0.31377 1.73666 0.317103 1.66333 0.32377 1.59C0.330436 1.52333 0.340436 1.46 0.35377 1.4C0.37377 1.33333 0.400436 1.26666 0.43377 1.2C0.45377 1.14666 0.480436 1.10333 0.51377 1.07C0.547103 1.03 0.587103 0.993328 0.63377 0.959995C0.740436 0.906662 0.847103 0.879996 0.95377 0.879996C1.0071 0.879996 1.05377 0.883329 1.09377 0.889995C1.13377 0.889995 1.17377 0.893329 1.21377 0.899995C1.29377 0.906662 1.37044 0.946662 1.44377 1.02C1.4971 1.06666 1.53377 1.12 1.55377 1.18C1.5871 1.26666 1.6071 1.34333 1.61377 1.41C1.62044 1.45666 1.62377 1.5 1.62377 1.54C1.62377 1.58 1.62377 1.62 1.62377 1.66V2.07L1.60377 3.72C1.6571 3.72 1.7171 3.72 1.78377 3.72C1.8571 3.72 1.94044 3.71666 2.03377 3.71C2.38044 3.71 2.72377 3.71333 3.06377 3.72C3.41044 3.72666 3.77377 3.73 4.15377 3.73H4.16377C4.16377 3.43 4.16377 3.14333 4.16377 2.87C4.17044 2.59666 4.18044 2.31 4.19377 2.01C4.19377 1.94333 4.19377 1.87666 4.19377 1.81C4.20044 1.73666 4.2071 1.66333 4.21377 1.59C4.22044 1.52333 4.23044 1.46 4.24377 1.4C4.26377 1.33333 4.29044 1.26666 4.32377 1.2C4.3371 1.14666 4.36044 1.10333 4.39377 1.07C4.43377 1.03 4.48044 0.993328 4.53377 0.959995C4.6271 0.906662 4.73044 0.879996 4.84377 0.879996C4.8971 0.879996 4.94377 0.883329 4.98377 0.889995C5.03044 0.889995 5.07044 0.893329 5.10377 0.899995C5.1971 0.913329 5.27377 0.953329 5.33377 1.02C5.3871 1.05333 5.42377 1.10666 5.44377 1.18C5.4571 1.22 5.4671 1.26 5.47377 1.3C5.4871 1.33333 5.50044 1.37 5.51377 1.41Z" fill="white"/>
<path d="M7.87178 1.16C8.31844 0.993329 8.72178 0.919995 9.08178 0.939995C9.44844 0.959996 9.77511 1.05333 10.0618 1.22C10.3484 1.38 10.5918 1.59666 10.7918 1.87C10.9984 2.14333 11.1651 2.45 11.2918 2.79C11.3918 3.04333 11.4684 3.31 11.5218 3.59C11.5751 3.87 11.6051 4.15 11.6118 4.43C11.6251 4.70333 11.6151 4.97333 11.5818 5.24C11.5551 5.50666 11.5084 5.75333 11.4418 5.98C11.4018 6.13333 11.3551 6.27333 11.3018 6.4C11.2484 6.52666 11.1851 6.65333 11.1118 6.78C10.9451 7.06666 10.7284 7.3 10.4618 7.48C10.2018 7.66 9.91511 7.78666 9.60178 7.86C9.38844 7.91333 9.16844 7.94 8.94178 7.94C8.71511 7.93333 8.49178 7.90333 8.27178 7.85C8.05178 7.79 7.83844 7.70666 7.63178 7.6C7.43178 7.48666 7.24844 7.34666 7.08178 7.18C6.87511 6.98 6.70511 6.75 6.57178 6.49C6.43844 6.22333 6.33511 5.94666 6.26178 5.66C6.18844 5.36666 6.14178 5.07333 6.12178 4.78C6.10178 4.48666 6.10178 4.20666 6.12178 3.94C6.14178 3.69333 6.18844 3.43 6.26178 3.15C6.34178 2.87 6.45511 2.6 6.60178 2.34C6.74844 2.08 6.92511 1.84666 7.13178 1.64C7.34511 1.42666 7.59178 1.26666 7.87178 1.16ZM10.2118 5.44C10.2918 5.12666 10.3251 4.77333 10.3118 4.38C10.2984 3.98666 10.2351 3.61666 10.1218 3.27C10.0484 3.05666 9.95511 2.87 9.84178 2.71C9.73511 2.54333 9.60511 2.41666 9.45178 2.33C9.30511 2.24333 9.13178 2.2 8.93178 2.2C8.73178 2.2 8.50844 2.26 8.26178 2.38C8.11511 2.45333 7.98844 2.55333 7.88178 2.68C7.78178 2.80666 7.69844 2.95 7.63178 3.11C7.57178 3.27 7.52178 3.43666 7.48178 3.61C7.44844 3.78333 7.42844 3.95 7.42178 4.11C7.40844 4.28333 7.40511 4.46666 7.41178 4.66C7.41844 4.84666 7.43844 5.03666 7.47178 5.23C7.51178 5.41666 7.56511 5.59666 7.63178 5.77C7.69844 5.93666 7.78844 6.08666 7.90178 6.22C8.07511 6.42 8.27511 6.56 8.50178 6.64C8.73511 6.71333 8.96511 6.72333 9.19178 6.67C9.55844 6.59 9.83844 6.34666 10.0318 5.94C10.1118 5.79333 10.1718 5.62666 10.2118 5.44Z" fill="white"/>
<path d="M18.4895 7.28C18.4828 7.36 18.4728 7.44333 18.4595 7.53C18.4461 7.61666 18.4228 7.69666 18.3895 7.77C18.3561 7.85 18.3128 7.91 18.2595 7.95C18.1861 8.01666 18.0995 8.05333 17.9995 8.06C17.9061 8.09333 17.8161 8.10333 17.7295 8.09C17.6428 8.07666 17.5628 8.05333 17.4895 8.02C17.3961 7.96 17.3261 7.89 17.2795 7.81C17.2395 7.72333 17.2095 7.63333 17.1895 7.54C17.1695 7.44666 17.1595 7.35 17.1595 7.25C17.1595 7.15 17.1595 7.05666 17.1595 6.97V6.19L17.1495 4.66C17.1495 4.55333 17.1495 4.47 17.1495 4.41C17.1495 4.35 17.1495 4.29666 17.1495 4.25C17.1495 4.19666 17.1461 4.14 17.1395 4.08C17.1395 4.01333 17.1395 3.92 17.1395 3.8C17.1395 3.78 17.1395 3.74666 17.1395 3.7C17.1461 3.64666 17.1428 3.51 17.1295 3.29C16.8695 3.72333 16.6528 4.07333 16.4795 4.34C16.3128 4.6 16.1695 4.80333 16.0495 4.95C15.9361 5.09 15.8361 5.18666 15.7495 5.24C15.6628 5.28666 15.5728 5.31333 15.4795 5.32C15.4261 5.32666 15.3728 5.31666 15.3195 5.29C15.2661 5.26333 15.2128 5.23 15.1595 5.19C15.1128 5.15 15.0661 5.11 15.0195 5.07C14.9795 5.02333 14.9461 4.98 14.9195 4.94C14.7595 4.74 14.5795 4.5 14.3795 4.22C14.1795 3.94 13.9728 3.6 13.7595 3.2C13.7595 3.20666 13.7561 3.31666 13.7495 3.53C13.7495 3.74333 13.7495 4.01 13.7495 4.33C13.7495 4.64333 13.7461 4.98333 13.7395 5.35C13.7395 5.71 13.7361 6.04666 13.7295 6.36C13.7295 6.67333 13.7261 6.93666 13.7195 7.15C13.7128 7.35666 13.7061 7.46 13.6995 7.46C13.6995 7.57333 13.6728 7.68 13.6195 7.78C13.5661 7.87333 13.4928 7.95 13.3995 8.01C13.3128 8.07 13.2095 8.10333 13.0895 8.11C12.9695 8.11666 12.8395 8.08333 12.6995 8.01C12.6128 7.95666 12.5461 7.88 12.4995 7.78C12.4595 7.68 12.4328 7.58666 12.4195 7.5C12.4128 7.40666 12.4061 7.31666 12.3995 7.23C12.3995 7.14333 12.3995 7.05333 12.3995 6.96L12.4095 6.18L12.4195 4.64V3.3C12.4195 2.72 12.4395 2.15 12.4795 1.59C12.4795 1.51666 12.4861 1.45 12.4995 1.39C12.5195 1.32333 12.5428 1.26 12.5695 1.2C12.6228 1.09333 12.6928 1.01333 12.7795 0.959995C12.8795 0.899995 12.9861 0.869995 13.0995 0.869995C13.1461 0.869995 13.1895 0.873329 13.2295 0.879996C13.2761 0.879996 13.3195 0.883329 13.3595 0.889995C13.4928 0.916662 13.6061 0.996662 13.6995 1.13C13.7995 1.25666 13.8928 1.36666 13.9795 1.46C14.0328 1.52 14.0895 1.59333 14.1495 1.68C14.2095 1.76666 14.2695 1.85666 14.3295 1.95C14.3895 2.04333 14.4461 2.13333 14.4995 2.22C14.5528 2.30666 14.5995 2.38333 14.6395 2.45C14.8128 2.73 14.9661 2.98666 15.0995 3.22C15.2395 3.45333 15.3695 3.65333 15.4895 3.82C15.5095 3.8 15.5328 3.77333 15.5595 3.74C15.5861 3.7 15.6128 3.66 15.6395 3.62C15.6728 3.57333 15.6995 3.53 15.7195 3.49C15.7461 3.45 15.7661 3.41666 15.7795 3.39C15.8461 3.28333 15.9128 3.18 15.9795 3.08C16.0461 2.97333 16.1161 2.86333 16.1895 2.75C16.2695 2.63 16.3495 2.5 16.4295 2.36C16.5161 2.22 16.6161 2.06 16.7295 1.88C16.7761 1.8 16.8361 1.70333 16.9095 1.59C16.9828 1.47666 17.0661 1.36666 17.1595 1.26C17.2528 1.15333 17.3495 1.06333 17.4495 0.989995C17.5561 0.909995 17.6628 0.869995 17.7695 0.869995C17.8228 0.869995 17.8695 0.873329 17.9095 0.879996C17.9495 0.879996 17.9895 0.883329 18.0295 0.889995C18.1095 0.896662 18.1861 0.933329 18.2595 0.999995C18.3128 1.05333 18.3528 1.11 18.3795 1.17C18.4061 1.25666 18.4228 1.33 18.4295 1.39C18.4361 1.43666 18.4395 1.48 18.4395 1.52C18.4461 1.56 18.4495 1.6 18.4495 1.64C18.4495 2.01333 18.4528 2.38333 18.4595 2.75C18.4661 3.11666 18.4695 3.48666 18.4695 3.86C18.4695 4.31333 18.4695 4.78 18.4695 5.26C18.4761 5.74 18.4795 6.20666 18.4795 6.66C18.4795 6.75333 18.4828 6.85333 18.4895 6.96C18.4961 7.06666 18.4961 7.17333 18.4895 7.28Z" fill="white"/>
<path d="M20.448 2.12L20.428 3.69H20.828C21.1014 3.68333 21.3447 3.68 21.558 3.68C21.7714 3.68 22.008 3.68333 22.268 3.69H22.318C22.398 3.69 22.4747 3.69333 22.548 3.7C22.628 3.7 22.7047 3.7 22.778 3.7C22.858 3.70666 22.9347 3.72 23.008 3.74C23.0814 3.75333 23.1547 3.77 23.228 3.79C23.3414 3.83 23.4347 3.89 23.508 3.97C23.5747 4.05666 23.608 4.15333 23.608 4.26C23.608 4.29333 23.608 4.33333 23.608 4.38C23.608 4.42 23.6014 4.45666 23.588 4.49C23.5747 4.56333 23.5314 4.63 23.458 4.69C23.4247 4.73666 23.3614 4.77 23.268 4.79C23.1814 4.81666 23.0947 4.83333 23.008 4.84C22.9147 4.86 22.8214 4.87 22.728 4.87H22.258L20.408 4.88L20.388 6.84L22.378 6.86H22.848C22.9014 6.86 22.9514 6.86 22.998 6.86C23.0447 6.86 23.088 6.86333 23.128 6.87C23.1814 6.88333 23.228 6.89333 23.268 6.9C23.3147 6.9 23.358 6.90666 23.398 6.92C23.478 6.94666 23.5447 6.98333 23.598 7.03C23.6647 7.09666 23.708 7.16666 23.728 7.24C23.7347 7.27333 23.738 7.31 23.738 7.35C23.7447 7.38333 23.7447 7.42 23.738 7.46C23.738 7.56666 23.7047 7.66333 23.638 7.75C23.558 7.84333 23.4647 7.90333 23.358 7.93C23.218 7.99 23.0647 8.02 22.898 8.02C22.8247 8.02666 22.748 8.03 22.668 8.03C22.588 8.03 22.5114 8.03333 22.438 8.04H22.378C21.858 8.05333 21.318 8.05333 20.758 8.04C20.6247 8.04 20.518 8.03666 20.438 8.03C20.358 8.03 20.2847 8.03 20.218 8.03C20.158 8.03 20.0947 8.03 20.028 8.03C19.9614 8.03 19.8747 8.03 19.768 8.03C19.6147 8.04333 19.488 8.01666 19.388 7.95C19.3147 7.90333 19.258 7.84 19.218 7.76C19.198 7.74 19.188 7.72 19.188 7.7C19.1814 7.68666 19.1747 7.67666 19.168 7.67C19.1614 7.66333 19.1547 7.65333 19.148 7.64C19.1347 7.60666 19.1247 7.57333 19.118 7.54C19.1114 7.5 19.108 7.46333 19.108 7.43C19.1014 7.39666 19.0947 7.36333 19.088 7.33C19.088 7.29666 19.0847 7.26333 19.078 7.23V7.07C19.078 7.04333 19.078 7.01666 19.078 6.99C19.0847 6.96333 19.088 6.93666 19.088 6.91V6.13L19.108 4.69V3.36C19.108 3.12 19.108 2.90666 19.108 2.72C19.1147 2.53333 19.1214 2.33 19.128 2.11V2.06C19.1347 1.98666 19.138 1.92 19.138 1.86C19.1447 1.79333 19.148 1.72666 19.148 1.66C19.1547 1.52666 19.1914 1.39666 19.258 1.27C19.2847 1.21666 19.3114 1.17 19.338 1.13C19.3714 1.09 19.4147 1.05666 19.468 1.03C19.568 0.969995 19.6714 0.939995 19.778 0.939995C19.8314 0.939995 19.8714 0.943329 19.898 0.949995V0.939995C20.018 0.939995 20.1147 0.939995 20.188 0.939995C20.2614 0.939995 20.3314 0.939995 20.398 0.939995C20.4714 0.939995 20.548 0.939995 20.628 0.939995C20.708 0.933329 20.818 0.929996 20.958 0.929996C21.2247 0.923329 21.478 0.919996 21.718 0.919996C21.958 0.919996 22.2047 0.923329 22.458 0.929996H22.498C22.5714 0.936662 22.648 0.939995 22.728 0.939995C22.808 0.939995 22.8847 0.943329 22.958 0.949995C23.0314 0.949995 23.1047 0.959995 23.178 0.979995C23.2514 0.993329 23.3247 1.01333 23.398 1.04C23.5114 1.07333 23.6047 1.13 23.678 1.21C23.738 1.30333 23.768 1.39666 23.768 1.49C23.768 1.53 23.768 1.57 23.768 1.61C23.768 1.64333 23.7614 1.67666 23.748 1.71C23.7414 1.77666 23.7014 1.84666 23.628 1.92C23.6014 1.93333 23.5714 1.95 23.538 1.97C23.5114 1.99 23.478 2.00666 23.438 2.02C23.398 2.03333 23.3547 2.04333 23.308 2.05C23.268 2.05 23.228 2.05333 23.188 2.06C23.1347 2.07333 23.0847 2.08 23.038 2.08C22.998 2.08 22.9514 2.08 22.898 2.08H22.448L20.448 2.09V2.12Z" fill="white"/>
</svg>
