<svg width="49" height="8" viewBox="0 0 49 8" fill="none" xmlns="http://www.w3.org/2000/svg">
<path d="M5.3 5.505C5.38667 5.69833 5.39 5.88833 5.31 6.075C5.23 6.255 5.10333 6.42167 4.93 6.575C4.75667 6.72833 4.55667 6.86167 4.33 6.975C4.11 7.08833 3.9 7.16833 3.7 7.215C3.48 7.26167 3.24667 7.28167 3 7.275C2.76 7.275 2.51667 7.245 2.27 7.185C2.03 7.13167 1.79333 7.05167 1.56 6.945C1.33333 6.83167 1.12333 6.695 0.93 6.535C0.696667 6.34167 0.513333 6.11167 0.38 5.845C0.253333 5.57167 0.16 5.28167 0.1 4.975C0.04 4.66833 0.00666668 4.36167 0 4.055C0 3.74167 0.01 3.44833 0.03 3.175C0.05 2.92833 0.1 2.67167 0.18 2.405C0.26 2.13833 0.37 1.87833 0.51 1.625C0.656667 1.365 0.83 1.125 1.03 0.905C1.23667 0.685 1.47667 0.498333 1.75 0.345C1.95667 0.225 2.18667 0.145 2.44 0.105C2.7 0.0583333 2.96 0.0483332 3.22 0.0749999C3.48667 0.0950001 3.73667 0.151667 3.97 0.245C4.21 0.331666 4.41333 0.451666 4.58 0.605C4.68667 0.698333 4.79667 0.828333 4.91 0.995C5.03 1.16167 5.11667 1.33167 5.17 1.505C5.22333 1.67833 5.22333 1.84167 5.17 1.995C5.12333 2.14167 4.99 2.24167 4.77 2.295C4.67667 2.32167 4.59333 2.32833 4.52 2.315C4.44667 2.295 4.38 2.265 4.32 2.225C4.26 2.17833 4.20333 2.125 4.15 2.065C4.09667 2.005 4.04667 1.945 4 1.885C3.84 1.69167 3.65333 1.56167 3.44 1.495C3.22667 1.42167 3.01333 1.405 2.8 1.445C2.59333 1.47833 2.39667 1.565 2.21 1.705C2.03 1.83833 1.89 2.01167 1.79 2.225C1.68333 2.45167 1.59667 2.70167 1.53 2.975C1.47 3.24167 1.43667 3.515 1.43 3.795C1.42333 4.06833 1.44667 4.335 1.5 4.595C1.56 4.855 1.66 5.085 1.8 5.285C1.90667 5.445 2.03667 5.575 2.19 5.675C2.35 5.775 2.52 5.845 2.7 5.885C2.88 5.925 3.06 5.93167 3.24 5.905C3.42667 5.87833 3.60667 5.81833 3.78 5.725C3.83333 5.69833 3.89 5.66167 3.95 5.615C4.01667 5.56167 4.08333 5.50833 4.15 5.455C4.21667 5.40167 4.28333 5.35167 4.35 5.305C4.42333 5.25833 4.5 5.225 4.58 5.205C4.7 5.165 4.83 5.16833 4.97 5.215C5.11667 5.26167 5.22667 5.35833 5.3 5.505Z" fill="white"/>
<path d="M12.3416 6.505C12.3483 6.545 12.3516 6.585 12.3516 6.625C12.3583 6.65833 12.3616 6.69833 12.3616 6.745C12.3616 6.825 12.3383 6.89833 12.2916 6.965C12.2716 6.99833 12.245 7.03167 12.2116 7.065C12.1783 7.09167 12.1383 7.115 12.0916 7.135C11.925 7.22833 11.7483 7.26167 11.5616 7.235C11.4683 7.20833 11.385 7.165 11.3116 7.105C11.2983 7.09167 11.2883 7.085 11.2816 7.085C11.275 7.07833 11.2683 7.06833 11.2616 7.055C11.255 7.04833 11.2483 7.04167 11.2416 7.035C11.235 7.02167 11.225 7.01167 11.2116 7.005C11.1783 6.97167 11.1516 6.94167 11.1316 6.915C11.1116 6.88167 11.0916 6.84833 11.0716 6.815C11.0583 6.78167 11.0416 6.75167 11.0216 6.725C11.0083 6.69167 10.9916 6.65833 10.9716 6.625C10.9583 6.59833 10.945 6.575 10.9316 6.555C10.9183 6.52833 10.9083 6.50167 10.9016 6.475C10.875 6.415 10.8583 6.36167 10.8516 6.315L10.6416 5.825C10.1816 5.825 9.72164 5.82833 9.26164 5.835C8.80831 5.835 8.35164 5.83167 7.89164 5.825L7.68164 6.315C7.66831 6.34167 7.65831 6.36833 7.65164 6.395C7.65164 6.42167 7.64497 6.44833 7.63164 6.475C7.61831 6.50167 7.60497 6.52833 7.59164 6.555C7.58497 6.575 7.57497 6.59833 7.56164 6.625C7.54164 6.65833 7.52164 6.69167 7.50164 6.725C7.48831 6.75167 7.47164 6.78167 7.45164 6.815C7.43831 6.84833 7.42164 6.88167 7.40164 6.915C7.38164 6.94167 7.35497 6.97167 7.32164 7.005C7.30831 7.01167 7.29831 7.02167 7.29164 7.035C7.28497 7.04167 7.27831 7.04833 7.27164 7.055C7.26497 7.06833 7.25831 7.07833 7.25164 7.085C7.24497 7.085 7.23497 7.09167 7.22164 7.105C7.14831 7.165 7.06497 7.20833 6.97164 7.235C6.78497 7.26167 6.60831 7.22833 6.44164 7.135C6.39497 7.115 6.35497 7.09167 6.32164 7.065C6.28831 7.03167 6.26164 6.99833 6.24164 6.965C6.19497 6.89833 6.17164 6.825 6.17164 6.745C6.17164 6.69833 6.17164 6.65833 6.17164 6.625C6.17831 6.585 6.18497 6.545 6.19164 6.505C6.20497 6.445 6.22164 6.385 6.24164 6.325C6.26164 6.265 6.27164 6.235 6.27164 6.235L8.35164 1.115L8.41164 0.955C8.42497 0.915 8.44164 0.878333 8.46164 0.845C8.48164 0.811666 8.49831 0.771666 8.51164 0.725C8.54497 0.638333 8.58164 0.561666 8.62164 0.495C8.64164 0.455 8.66497 0.418333 8.69164 0.385C8.71831 0.351666 8.74497 0.318333 8.77164 0.285C8.81164 0.231667 8.86831 0.188333 8.94164 0.155C9.03497 0.121667 9.14164 0.105 9.26164 0.105C9.38831 0.105 9.49831 0.121667 9.59164 0.155C9.66497 0.188333 9.72164 0.231667 9.76164 0.285C9.80831 0.345 9.85831 0.415 9.91164 0.495C9.95164 0.561666 9.98831 0.638333 10.0216 0.725C10.035 0.771666 10.0516 0.811666 10.0716 0.845C10.0916 0.878333 10.1083 0.915 10.1216 0.955L10.1816 1.115L12.2616 6.235C12.2616 6.235 12.2716 6.265 12.2916 6.325C12.3116 6.385 12.3283 6.445 12.3416 6.505ZM9.97164 4.055C9.88497 3.86167 9.79497 3.66167 9.70164 3.455C9.61497 3.24833 9.52164 3.03833 9.42164 2.825C9.39497 2.765 9.36831 2.705 9.34164 2.645C9.31497 2.57833 9.28831 2.515 9.26164 2.455C9.24164 2.515 9.21831 2.57833 9.19164 2.645C9.16497 2.705 9.13831 2.765 9.11164 2.825C9.01164 3.03833 8.91497 3.24833 8.82164 3.455C8.73497 3.66167 8.64831 3.86167 8.56164 4.055L8.38164 4.495H10.1516L9.97164 4.055Z" fill="white"/>
<path d="M17.7838 6.425C17.7972 6.45833 17.8038 6.50833 17.8038 6.575C17.8038 6.635 17.8038 6.685 17.8038 6.725C17.8038 6.77833 17.7938 6.82833 17.7738 6.875C17.7538 6.92167 17.7272 6.965 17.6938 7.005C17.6338 7.085 17.5472 7.145 17.4338 7.185C17.2738 7.23833 17.1238 7.265 16.9838 7.265C16.9105 7.27167 16.8338 7.275 16.7538 7.275C16.6738 7.275 16.5938 7.28167 16.5138 7.295H16.4738C15.9605 7.30167 15.4305 7.30167 14.8838 7.295C14.7505 7.28833 14.6005 7.28833 14.4338 7.295C14.2672 7.30833 14.1038 7.305 13.9438 7.285C13.7838 7.27167 13.6372 7.235 13.5038 7.175C13.3772 7.10833 13.2872 7.005 13.2338 6.865C13.2205 6.83167 13.2105 6.80167 13.2038 6.775C13.1972 6.74167 13.1938 6.70833 13.1938 6.675C13.1672 6.44833 13.1572 6.225 13.1638 6.005C13.1705 5.785 13.1738 5.56833 13.1738 5.355L13.1938 3.905V2.565C13.1938 2.325 13.1938 2.11167 13.1938 1.925C13.2005 1.73833 13.2072 1.53167 13.2138 1.305V1.255C13.2205 1.18833 13.2238 1.12167 13.2238 1.055C13.2305 0.988333 13.2338 0.921667 13.2338 0.855C13.2472 0.701667 13.2838 0.571667 13.3438 0.465C13.3838 0.365 13.4538 0.285 13.5538 0.225C13.6405 0.165 13.7438 0.135 13.8638 0.135C13.9105 0.135 13.9538 0.138333 13.9938 0.145C14.0405 0.145 14.0838 0.148333 14.1238 0.155C14.1638 0.161667 14.2005 0.175 14.2338 0.195C14.2738 0.215 14.3138 0.241666 14.3538 0.275C14.3938 0.321667 14.4305 0.378333 14.4638 0.445C14.4905 0.518333 14.5072 0.591666 14.5138 0.665C14.5205 0.711667 14.5272 0.755 14.5338 0.795C14.5405 0.835 14.5438 0.875 14.5438 0.915C14.5305 0.955 14.5238 0.995 14.5238 1.035C14.5238 1.075 14.5238 1.11167 14.5238 1.145V1.325L14.4838 6.035L16.4638 6.055H16.9338C16.9738 6.055 17.0172 6.05833 17.0638 6.065C17.1105 6.065 17.1572 6.06833 17.2038 6.075C17.2572 6.08167 17.3038 6.08833 17.3438 6.095C17.3838 6.10167 17.4238 6.11167 17.4638 6.125C17.5372 6.145 17.5972 6.17833 17.6438 6.225C17.7172 6.29167 17.7638 6.35833 17.7838 6.425Z" fill="white"/>
<path d="M19.9733 1.305L19.9533 2.875H20.3533C20.6266 2.86833 20.8699 2.865 21.0833 2.865C21.2966 2.865 21.5333 2.86833 21.7933 2.875H21.8433C21.9233 2.875 21.9999 2.87833 22.0733 2.885C22.1533 2.885 22.2299 2.885 22.3033 2.885C22.3833 2.89167 22.4599 2.905 22.5333 2.925C22.6066 2.93833 22.6799 2.955 22.7533 2.975C22.8666 3.015 22.9599 3.075 23.0333 3.155C23.0999 3.24167 23.1333 3.33833 23.1333 3.445C23.1333 3.47833 23.1333 3.51833 23.1333 3.565C23.1333 3.605 23.1266 3.64167 23.1133 3.675C23.0999 3.74833 23.0566 3.815 22.9833 3.875C22.9499 3.92167 22.8866 3.955 22.7933 3.975C22.7066 4.00167 22.6199 4.01833 22.5333 4.025C22.4399 4.045 22.3466 4.055 22.2533 4.055H21.7833L19.9333 4.065L19.9133 6.025L21.9033 6.045H22.3733C22.4266 6.045 22.4766 6.045 22.5233 6.045C22.5699 6.045 22.6133 6.04833 22.6533 6.055C22.7066 6.06833 22.7533 6.07833 22.7933 6.085C22.8399 6.085 22.8833 6.09167 22.9233 6.105C23.0033 6.13167 23.0699 6.16833 23.1233 6.215C23.1899 6.28167 23.2333 6.35167 23.2533 6.425C23.2599 6.45833 23.2633 6.495 23.2633 6.535C23.2699 6.56833 23.2699 6.605 23.2633 6.645C23.2633 6.75167 23.2299 6.84833 23.1633 6.935C23.0833 7.02833 22.9899 7.08833 22.8833 7.115C22.7433 7.175 22.5899 7.205 22.4233 7.205C22.3499 7.21167 22.2733 7.215 22.1933 7.215C22.1133 7.215 22.0366 7.21833 21.9633 7.225H21.9033C21.3833 7.23833 20.8433 7.23833 20.2833 7.225C20.1499 7.225 20.0433 7.22167 19.9633 7.215C19.8833 7.215 19.8099 7.215 19.7433 7.215C19.6833 7.215 19.6199 7.215 19.5533 7.215C19.4866 7.215 19.3999 7.215 19.2933 7.215C19.1399 7.22833 19.0133 7.20167 18.9133 7.135C18.8399 7.08833 18.7833 7.025 18.7433 6.945C18.7233 6.925 18.7133 6.905 18.7133 6.885C18.7066 6.87167 18.6999 6.86167 18.6933 6.855C18.6866 6.84833 18.6799 6.83833 18.6733 6.825C18.6599 6.79167 18.6499 6.75833 18.6433 6.725C18.6366 6.685 18.6333 6.64833 18.6333 6.615C18.6266 6.58167 18.6199 6.54833 18.6133 6.515C18.6133 6.48167 18.6099 6.44833 18.6033 6.415V6.255C18.6033 6.22833 18.6033 6.20167 18.6033 6.175C18.6099 6.14833 18.6133 6.12167 18.6133 6.095V5.315L18.6333 3.875V2.545C18.6333 2.305 18.6333 2.09167 18.6333 1.905C18.6399 1.71833 18.6466 1.515 18.6533 1.295V1.245C18.6599 1.17167 18.6633 1.105 18.6633 1.045C18.6699 0.978333 18.6733 0.911667 18.6733 0.845C18.6799 0.711667 18.7166 0.581666 18.7833 0.455C18.8099 0.401666 18.8366 0.355 18.8633 0.315C18.8966 0.275 18.9399 0.241667 18.9933 0.215C19.0933 0.155 19.1966 0.125 19.3033 0.125C19.3566 0.125 19.3966 0.128333 19.4233 0.135V0.125C19.5433 0.125 19.6399 0.125 19.7133 0.125C19.7866 0.125 19.8566 0.125 19.9233 0.125C19.9966 0.125 20.0733 0.125 20.1533 0.125C20.2333 0.118333 20.3433 0.115 20.4833 0.115C20.7499 0.108333 21.0033 0.105 21.2433 0.105C21.4833 0.105 21.7299 0.108333 21.9833 0.115H22.0233C22.0966 0.121667 22.1733 0.125 22.2533 0.125C22.3333 0.125 22.4099 0.128333 22.4833 0.135C22.5566 0.135 22.6299 0.145 22.7033 0.165C22.7766 0.178333 22.8499 0.198333 22.9233 0.225C23.0366 0.258333 23.1299 0.315 23.2033 0.395C23.2633 0.488333 23.2933 0.581667 23.2933 0.675C23.2933 0.715 23.2933 0.755 23.2933 0.795C23.2933 0.828333 23.2866 0.861667 23.2733 0.895C23.2666 0.961667 23.2266 1.03167 23.1533 1.105C23.1266 1.11833 23.0966 1.135 23.0633 1.155C23.0366 1.175 23.0033 1.19167 22.9633 1.205C22.9233 1.21833 22.8799 1.22833 22.8333 1.235C22.7933 1.235 22.7533 1.23833 22.7133 1.245C22.6599 1.25833 22.6099 1.265 22.5633 1.265C22.5233 1.265 22.4766 1.265 22.4233 1.265H21.9733L19.9733 1.275V1.305Z" fill="white"/>
<path d="M29.5316 6.425C29.5249 6.53833 29.5082 6.65833 29.4816 6.785C29.4616 6.91167 29.3982 7.015 29.2916 7.095C29.2116 7.16167 29.1216 7.20167 29.0216 7.215C28.9216 7.22833 28.8216 7.22167 28.7216 7.195C28.6282 7.175 28.5382 7.14167 28.4516 7.095C28.3649 7.04167 28.2949 6.97833 28.2416 6.905C28.0149 6.625 27.8049 6.33833 27.6116 6.045C27.4249 5.745 27.2349 5.445 27.0416 5.145L26.2016 3.875C26.0882 3.695 25.9682 3.495 25.8416 3.275C25.7149 3.04833 25.5849 2.83833 25.4516 2.645L25.4216 6.465V6.555C25.4216 6.66167 25.4016 6.76833 25.3616 6.875C25.3282 6.975 25.2682 7.06167 25.1816 7.135C25.1149 7.18833 25.0282 7.225 24.9216 7.245C24.7549 7.27833 24.6149 7.26833 24.5016 7.215C24.3949 7.16167 24.3082 7.08833 24.2416 6.995C24.1816 6.90167 24.1382 6.795 24.1116 6.675C24.0916 6.54833 24.0882 6.425 24.1016 6.305V6.135L24.1216 5.355L24.1316 3.905C24.1382 3.69167 24.1416 3.475 24.1416 3.255C24.1416 3.02833 24.1416 2.79833 24.1416 2.565C24.1349 2.27833 24.1349 1.975 24.1416 1.655C24.1549 1.335 24.1682 1.035 24.1816 0.755C24.1949 0.601667 24.2316 0.471667 24.2916 0.365C24.3182 0.271666 24.3882 0.191666 24.5016 0.125C24.5749 0.078333 24.6682 0.048333 24.7816 0.0349998C24.9016 0.0216667 25.0049 0.025 25.0916 0.0449997C25.1249 0.0583333 25.1582 0.0749999 25.1916 0.0949997C25.2249 0.108333 25.2582 0.125 25.2916 0.145C25.3249 0.171666 25.3549 0.198333 25.3816 0.225C25.4149 0.251667 25.4449 0.281667 25.4716 0.315C25.5049 0.348333 25.5349 0.385 25.5616 0.425C25.5882 0.458333 25.6149 0.491667 25.6416 0.525C25.6616 0.565 25.6816 0.601667 25.7016 0.635C25.7216 0.668333 25.7449 0.701666 25.7716 0.735L25.8816 0.895L28.1916 4.535V3.875C28.1916 3.66167 28.1882 3.445 28.1816 3.225C28.1816 2.99833 28.1782 2.765 28.1716 2.525C28.1716 2.245 28.1716 1.945 28.1716 1.625C28.1782 1.305 28.1882 1.005 28.2016 0.725C28.2016 0.611666 28.2349 0.481666 28.3016 0.335C28.3349 0.248333 28.3916 0.178333 28.4716 0.125C28.5516 0.0716664 28.6416 0.0349998 28.7416 0.0150001C28.8416 -0.00500003 28.9416 -0.00500003 29.0416 0.0150001C29.1416 0.0349998 29.2282 0.0749997 29.3016 0.135C29.3216 0.155 29.3416 0.178333 29.3616 0.205C29.3816 0.231667 29.3982 0.261667 29.4116 0.295C29.4449 0.381666 29.4649 0.458333 29.4716 0.525C29.4916 0.618333 29.5016 0.701667 29.5016 0.775C29.5016 1.60833 29.5016 2.45833 29.5016 3.325C29.5082 4.19167 29.5149 5.04167 29.5216 5.875C29.5216 5.96833 29.5249 6.06167 29.5316 6.155C29.5382 6.24167 29.5382 6.33167 29.5316 6.425Z" fill="white"/>
<path d="M35.6016 3.165C35.6149 3.385 35.6116 3.61167 35.5916 3.845C35.5782 4.07833 35.5549 4.305 35.5216 4.525C35.4549 4.905 35.3316 5.275 35.1516 5.635C34.9716 5.995 34.7082 6.30167 34.3616 6.555C34.0016 6.82167 33.5916 7.005 33.1316 7.105C32.6716 7.19833 32.2149 7.255 31.7616 7.275C31.6082 7.28833 31.4516 7.29167 31.2916 7.285C31.1382 7.285 30.9882 7.26833 30.8416 7.235C30.7216 7.215 30.6316 7.17833 30.5716 7.125C30.5382 7.105 30.5116 7.07833 30.4916 7.045C30.4716 7.01167 30.4549 6.97833 30.4416 6.945C30.4216 6.91167 30.4049 6.87833 30.3916 6.845C30.3849 6.805 30.3749 6.765 30.3616 6.725C30.3549 6.69167 30.3482 6.66167 30.3416 6.635C30.3416 6.60167 30.3416 6.57167 30.3416 6.545V0.835C30.3416 0.788333 30.3416 0.745 30.3416 0.705C30.3416 0.665 30.3482 0.625 30.3616 0.585C30.3749 0.491667 30.3949 0.415 30.4216 0.355C30.4482 0.275 30.4849 0.218333 30.5316 0.185C30.5716 0.151666 30.6116 0.128333 30.6516 0.115C30.6916 0.0949999 30.7282 0.0783332 30.7616 0.0650001C30.8016 0.0516665 30.8416 0.0516665 30.8816 0.0650001C30.9282 0.0716666 30.9782 0.0616666 31.0316 0.0349998L32.7016 0.0749999C33.1416 0.0883331 33.5349 0.191666 33.8816 0.385C34.2282 0.571667 34.5249 0.811667 34.7716 1.105C35.0182 1.39833 35.2116 1.72833 35.3516 2.095C35.4916 2.455 35.5749 2.81167 35.6016 3.165ZM33.7416 5.065C33.8682 4.865 33.9616 4.635 34.0216 4.375C34.0816 4.115 34.1082 3.85167 34.1016 3.585C34.0949 3.31167 34.0582 3.04833 33.9916 2.795C33.9249 2.535 33.8316 2.305 33.7116 2.105C33.6182 1.95833 33.4982 1.83833 33.3516 1.745C33.2049 1.65167 33.0416 1.58167 32.8616 1.535C32.6816 1.48167 32.4882 1.445 32.2816 1.425C32.0816 1.405 31.8849 1.395 31.6916 1.395C31.6982 1.58833 31.7016 1.775 31.7016 1.955C31.7016 2.135 31.7016 2.325 31.7016 2.525C31.6949 2.765 31.6916 2.99833 31.6916 3.225C31.6916 3.45167 31.6916 3.67167 31.6916 3.885V5.925C31.8982 5.91833 32.0949 5.90833 32.2816 5.895C32.4749 5.875 32.6582 5.835 32.8316 5.775C33.0116 5.715 33.1749 5.63167 33.3216 5.525C33.4749 5.41167 33.6149 5.25833 33.7416 5.065Z" fill="white"/>
<path d="M42.0975 6.505C42.1042 6.545 42.1075 6.585 42.1075 6.625C42.1142 6.65833 42.1175 6.69833 42.1175 6.745C42.1175 6.825 42.0942 6.89833 42.0475 6.965C42.0275 6.99833 42.0008 7.03167 41.9675 7.065C41.9342 7.09167 41.8942 7.115 41.8475 7.135C41.6808 7.22833 41.5042 7.26167 41.3175 7.235C41.2242 7.20833 41.1408 7.165 41.0675 7.105C41.0542 7.09167 41.0442 7.085 41.0375 7.085C41.0308 7.07833 41.0242 7.06833 41.0175 7.055C41.0108 7.04833 41.0042 7.04167 40.9975 7.035C40.9908 7.02167 40.9808 7.01167 40.9675 7.005C40.9342 6.97167 40.9075 6.94167 40.8875 6.915C40.8675 6.88167 40.8475 6.84833 40.8275 6.815C40.8142 6.78167 40.7975 6.75167 40.7775 6.725C40.7642 6.69167 40.7475 6.65833 40.7275 6.625C40.7142 6.59833 40.7008 6.575 40.6875 6.555C40.6742 6.52833 40.6642 6.50167 40.6575 6.475C40.6308 6.415 40.6142 6.36167 40.6075 6.315L40.3975 5.825C39.9375 5.825 39.4775 5.82833 39.0175 5.835C38.5642 5.835 38.1075 5.83167 37.6475 5.825L37.4375 6.315C37.4242 6.34167 37.4142 6.36833 37.4075 6.395C37.4075 6.42167 37.4008 6.44833 37.3875 6.475C37.3742 6.50167 37.3608 6.52833 37.3475 6.555C37.3408 6.575 37.3308 6.59833 37.3175 6.625C37.2975 6.65833 37.2775 6.69167 37.2575 6.725C37.2442 6.75167 37.2275 6.78167 37.2075 6.815C37.1942 6.84833 37.1775 6.88167 37.1575 6.915C37.1375 6.94167 37.1108 6.97167 37.0775 7.005C37.0642 7.01167 37.0542 7.02167 37.0475 7.035C37.0408 7.04167 37.0342 7.04833 37.0275 7.055C37.0208 7.06833 37.0142 7.07833 37.0075 7.085C37.0008 7.085 36.9908 7.09167 36.9775 7.105C36.9042 7.165 36.8208 7.20833 36.7275 7.235C36.5408 7.26167 36.3642 7.22833 36.1975 7.135C36.1508 7.115 36.1108 7.09167 36.0775 7.065C36.0442 7.03167 36.0175 6.99833 35.9975 6.965C35.9508 6.89833 35.9275 6.825 35.9275 6.745C35.9275 6.69833 35.9275 6.65833 35.9275 6.625C35.9342 6.585 35.9408 6.545 35.9475 6.505C35.9608 6.445 35.9775 6.385 35.9975 6.325C36.0175 6.265 36.0275 6.235 36.0275 6.235L38.1075 1.115L38.1675 0.955C38.1808 0.915 38.1975 0.878333 38.2175 0.845C38.2375 0.811666 38.2542 0.771666 38.2675 0.725C38.3008 0.638333 38.3375 0.561666 38.3775 0.495C38.3975 0.455 38.4208 0.418333 38.4475 0.385C38.4742 0.351666 38.5008 0.318333 38.5275 0.285C38.5675 0.231667 38.6242 0.188333 38.6975 0.155C38.7908 0.121667 38.8975 0.105 39.0175 0.105C39.1442 0.105 39.2542 0.121667 39.3475 0.155C39.4208 0.188333 39.4775 0.231667 39.5175 0.285C39.5642 0.345 39.6142 0.415 39.6675 0.495C39.7075 0.561666 39.7442 0.638333 39.7775 0.725C39.7908 0.771666 39.8075 0.811666 39.8275 0.845C39.8475 0.878333 39.8642 0.915 39.8775 0.955L39.9375 1.115L42.0175 6.235C42.0175 6.235 42.0275 6.265 42.0475 6.325C42.0675 6.385 42.0842 6.445 42.0975 6.505ZM39.7275 4.055C39.6408 3.86167 39.5508 3.66167 39.4575 3.455C39.3708 3.24833 39.2775 3.03833 39.1775 2.825C39.1508 2.765 39.1242 2.705 39.0975 2.645C39.0708 2.57833 39.0442 2.515 39.0175 2.455C38.9975 2.515 38.9742 2.57833 38.9475 2.645C38.9208 2.705 38.8942 2.765 38.8675 2.825C38.7675 3.03833 38.6708 3.24833 38.5775 3.455C38.4908 3.66167 38.4042 3.86167 38.3175 4.055L38.1375 4.495H39.9075L39.7275 4.055Z" fill="white"/>
<path d="M48.0797 6.745C48.0864 6.81167 48.0797 6.875 48.0597 6.935C48.0464 6.975 48.0264 7.00833 47.9997 7.035C47.9797 7.06167 47.953 7.08833 47.9197 7.115C47.8597 7.155 47.7864 7.19167 47.6997 7.225C47.6464 7.23833 47.593 7.24833 47.5397 7.255C47.493 7.26833 47.443 7.26833 47.3897 7.255C47.283 7.24833 47.1897 7.20833 47.1097 7.135C46.9964 7.04167 46.903 6.93833 46.8297 6.825C46.7964 6.77167 46.7597 6.71167 46.7197 6.645C46.6797 6.57833 46.643 6.50833 46.6097 6.435L45.4997 4.325C45.4464 4.325 45.393 4.32833 45.3397 4.335C45.2864 4.335 45.233 4.33833 45.1797 4.345C45.0397 4.35833 44.9064 4.36167 44.7797 4.355C44.6597 4.34833 44.533 4.34833 44.3997 4.355H44.2097V6.165C44.2097 6.21833 44.2064 6.26833 44.1997 6.315C44.1997 6.36167 44.1997 6.41167 44.1997 6.465C44.1997 6.49833 44.1964 6.54167 44.1897 6.595C44.1897 6.64833 44.1864 6.69833 44.1797 6.745C44.1664 6.81833 44.1364 6.895 44.0897 6.975C44.043 7.04833 43.9797 7.11167 43.8997 7.165C43.7597 7.25167 43.5897 7.275 43.3897 7.235C43.303 7.215 43.2197 7.18167 43.1397 7.135C43.113 7.115 43.0897 7.09167 43.0697 7.065C43.0497 7.03167 43.033 6.99833 43.0197 6.965C43.0064 6.93167 42.993 6.89833 42.9797 6.865C42.973 6.825 42.963 6.78833 42.9497 6.755C42.9297 6.68833 42.9197 6.625 42.9197 6.565V0.885C42.9197 0.845 42.9197 0.805 42.9197 0.765C42.9264 0.718333 42.933 0.678333 42.9397 0.645C42.9464 0.571667 42.9697 0.498333 43.0097 0.425C43.0297 0.345 43.063 0.288333 43.1097 0.255C43.1497 0.215 43.2097 0.181666 43.2897 0.155C43.3764 0.121667 43.4997 0.108333 43.6597 0.115C43.9597 0.121667 44.2564 0.125 44.5497 0.125C44.843 0.125 45.1364 0.131666 45.4297 0.145C45.623 0.158333 45.8264 0.181667 46.0397 0.215C46.2597 0.241667 46.463 0.291667 46.6497 0.365C46.7697 0.411667 46.8797 0.458333 46.9797 0.505C47.1064 0.578333 47.2064 0.648333 47.2797 0.715C47.513 0.928333 47.6897 1.185 47.8097 1.485C47.9297 1.785 47.9897 2.08833 47.9897 2.395C47.9897 2.755 47.903 3.085 47.7297 3.385C47.563 3.685 47.293 3.90833 46.9197 4.055C46.9064 4.06833 46.8864 4.07833 46.8597 4.085C46.8397 4.085 46.823 4.08833 46.8097 4.095L47.7297 5.945L47.8197 6.105C47.833 6.13167 47.8497 6.16167 47.8697 6.195C47.8897 6.22833 47.9064 6.26167 47.9197 6.295C47.9397 6.32833 47.9564 6.365 47.9697 6.405C47.9897 6.445 48.0097 6.48167 48.0297 6.515C48.0497 6.60833 48.0664 6.685 48.0797 6.745ZM45.5797 3.185C45.6997 3.185 45.813 3.165 45.9197 3.125C46.033 3.07833 46.133 3.01833 46.2197 2.945C46.313 2.87167 46.3897 2.78833 46.4497 2.695C46.5097 2.595 46.543 2.48833 46.5497 2.375C46.5764 2.04167 46.4897 1.795 46.2897 1.635C46.0897 1.46833 45.8264 1.37833 45.4997 1.365C45.3064 1.35167 45.093 1.345 44.8597 1.345C44.633 1.345 44.4164 1.345 44.2097 1.345C44.2164 1.61833 44.2164 1.89833 44.2097 2.185C44.2097 2.465 44.2097 2.79833 44.2097 3.185H45.5797Z" fill="white"/>
</svg>
