<svg width="28" height="9" viewBox="0 0 28 9" fill="none" xmlns="http://www.w3.org/2000/svg">
<path d="M5.34211 6.31999C5.42878 6.51332 5.43211 6.70332 5.35211 6.88999C5.27211 7.06999 5.14545 7.23665 4.97211 7.38999C4.79878 7.54332 4.59878 7.67665 4.37211 7.78999C4.15211 7.90332 3.94211 7.98332 3.74211 8.02999C3.52211 8.07665 3.28878 8.09665 3.04211 8.08999C2.80211 8.08999 2.55878 8.05999 2.31211 7.99999C2.07211 7.94665 1.83545 7.86665 1.60211 7.75999C1.37545 7.64665 1.16545 7.50999 0.972114 7.34999C0.738781 7.15665 0.555448 6.92665 0.422114 6.65999C0.295448 6.38665 0.202114 6.09665 0.142114 5.78999C0.0821143 5.48332 0.0487809 5.17665 0.0421143 4.86999C0.0421143 4.55665 0.0521143 4.26332 0.0721143 3.98999C0.0921143 3.74332 0.142114 3.48665 0.222114 3.21999C0.302114 2.95332 0.412114 2.69332 0.552114 2.43999C0.698781 2.17999 0.872114 1.93999 1.07211 1.71999C1.27878 1.49999 1.51878 1.31332 1.79211 1.15999C1.99878 1.03999 2.22878 0.959986 2.48211 0.919986C2.74211 0.873319 3.00211 0.863319 3.26211 0.889986C3.52878 0.909986 3.77878 0.966652 4.01211 1.05999C4.25211 1.14665 4.45545 1.26665 4.62211 1.41999C4.72878 1.51332 4.83878 1.64332 4.95211 1.80999C5.07211 1.97665 5.15878 2.14665 5.21211 2.31999C5.26545 2.49332 5.26545 2.65665 5.21211 2.80999C5.16545 2.95665 5.03211 3.05665 4.81211 3.10999C4.71878 3.13665 4.63545 3.14332 4.56211 3.12999C4.48878 3.10999 4.42211 3.07999 4.36211 3.03999C4.30211 2.99332 4.24545 2.93999 4.19211 2.87999C4.13878 2.81999 4.08878 2.75999 4.04211 2.69999C3.88211 2.50665 3.69545 2.37665 3.48211 2.30999C3.26878 2.23665 3.05545 2.21999 2.84211 2.25999C2.63545 2.29332 2.43878 2.37999 2.25211 2.51999C2.07211 2.65332 1.93211 2.82665 1.83211 3.03999C1.72545 3.26665 1.63878 3.51665 1.57211 3.78999C1.51211 4.05665 1.47878 4.32999 1.47211 4.60999C1.46545 4.88332 1.48878 5.14999 1.54211 5.40999C1.60211 5.66999 1.70211 5.89999 1.84211 6.09999C1.94878 6.25999 2.07878 6.38999 2.23211 6.48999C2.39211 6.58999 2.56211 6.65999 2.74211 6.69999C2.92211 6.73999 3.10211 6.74665 3.28211 6.71999C3.46878 6.69332 3.64878 6.63332 3.82211 6.53999C3.87545 6.51332 3.93211 6.47665 3.99211 6.42999C4.05878 6.37665 4.12545 6.32332 4.19211 6.26999C4.25878 6.21665 4.32545 6.16665 4.39211 6.11999C4.46545 6.07332 4.54211 6.03999 4.62211 6.01999C4.74211 5.97999 4.87211 5.98332 5.01211 6.02999C5.15878 6.07665 5.26878 6.17332 5.34211 6.31999Z" fill="white"/>
<path d="M11.268 1.40999C11.2747 1.45665 11.278 1.49999 11.278 1.53999C11.278 1.57999 11.278 1.61999 11.278 1.65999V2.06999L11.218 7.25999V7.35999C11.218 7.39999 11.208 7.45999 11.188 7.53999C11.1813 7.57332 11.1713 7.60999 11.158 7.64999C11.1447 7.68332 11.1313 7.71999 11.118 7.75999C11.0847 7.83999 11.038 7.89999 10.978 7.93999C10.9247 7.99332 10.838 8.02999 10.718 8.04999C10.5313 8.08999 10.3613 8.07332 10.208 7.99999C10.1213 7.94665 10.0613 7.87999 10.028 7.79999C10.0147 7.78665 10.0013 7.76665 9.98801 7.73999C9.98801 7.72665 9.98134 7.70665 9.96801 7.67999C9.95468 7.64665 9.94468 7.61332 9.93801 7.57999C9.93134 7.53999 9.92468 7.49999 9.91801 7.45999C9.91801 7.42665 9.91468 7.39332 9.90801 7.35999C9.90801 7.32665 9.90468 7.29332 9.89801 7.25999C9.88468 7.22665 9.87801 7.19999 9.87801 7.17999C9.87801 7.15332 9.87801 7.12332 9.87801 7.08999C9.89134 7.06332 9.89801 7.01332 9.89801 6.93999L9.90801 6.14999L9.91801 4.88999H9.37801L7.34801 4.89999L7.32801 7.25999V7.35999C7.32801 7.39999 7.31801 7.45999 7.29801 7.53999C7.29134 7.57332 7.28134 7.60999 7.26801 7.64999C7.25468 7.68332 7.24134 7.71999 7.22801 7.75999C7.19468 7.83999 7.14801 7.89999 7.08801 7.93999C7.03468 7.99332 6.94801 8.02999 6.82801 8.04999C6.64134 8.08999 6.47134 8.07332 6.31801 7.99999C6.25134 7.95999 6.18801 7.89332 6.12801 7.79999C6.11468 7.77332 6.10801 7.75332 6.10801 7.73999L6.07801 7.67999C6.06468 7.64665 6.05468 7.61332 6.04801 7.57999C6.04134 7.53999 6.03468 7.49999 6.02801 7.45999C6.02801 7.42665 6.02468 7.39332 6.01801 7.35999C6.01134 7.32665 6.00468 7.29332 5.99801 7.25999C5.99134 7.20665 5.99134 7.14999 5.99801 7.08999V6.93999L6.02801 4.67999C6.03468 4.46665 6.03801 4.24665 6.03801 4.01999C6.03801 3.79332 6.03801 3.55999 6.03801 3.31999C6.03134 3.07999 6.02801 2.86665 6.02801 2.67999C6.03468 2.49332 6.04468 2.28332 6.05801 2.04999V2.00999C6.06468 1.94332 6.06801 1.87665 6.06801 1.80999C6.06801 1.73665 6.07134 1.66332 6.07801 1.58999C6.08468 1.52332 6.09468 1.45999 6.10801 1.39999C6.12801 1.33332 6.15468 1.26665 6.18801 1.19999C6.20801 1.14665 6.23468 1.10332 6.26801 1.06999C6.30134 1.02999 6.34134 0.993319 6.38801 0.959985C6.49468 0.906652 6.60134 0.879986 6.70801 0.879986C6.76134 0.879986 6.80801 0.883319 6.84801 0.889986C6.88801 0.889986 6.92801 0.893319 6.96801 0.899985C7.04801 0.906652 7.12468 0.946652 7.19801 1.01999C7.25134 1.06665 7.28801 1.11999 7.30801 1.17999C7.34134 1.26665 7.36134 1.34332 7.36801 1.40999C7.37468 1.45665 7.37801 1.49999 7.37801 1.53999C7.37801 1.57999 7.37801 1.61999 7.37801 1.65999V2.06999L7.35801 3.71999C7.41134 3.71999 7.47134 3.71999 7.53801 3.71999C7.61134 3.71999 7.69468 3.71665 7.78801 3.70999C8.13468 3.70999 8.47801 3.71332 8.81801 3.71999C9.16468 3.72665 9.52801 3.72999 9.90801 3.72999H9.91801C9.91801 3.42999 9.91801 3.14332 9.91801 2.86999C9.92468 2.59665 9.93468 2.30999 9.94801 2.00999C9.94801 1.94332 9.94801 1.87665 9.94801 1.80999C9.95468 1.73665 9.96134 1.66332 9.96801 1.58999C9.97468 1.52332 9.98468 1.45999 9.99801 1.39999C10.018 1.33332 10.0447 1.26665 10.078 1.19999C10.0913 1.14665 10.1147 1.10332 10.148 1.06999C10.188 1.02999 10.2347 0.993319 10.288 0.959985C10.3813 0.906652 10.4847 0.879986 10.598 0.879986C10.6513 0.879986 10.698 0.883319 10.738 0.889986C10.7847 0.889986 10.8247 0.893319 10.858 0.899985C10.9513 0.913319 11.028 0.953319 11.088 1.01999C11.1413 1.05332 11.178 1.10665 11.198 1.17999C11.2113 1.21999 11.2213 1.25999 11.228 1.29999C11.2413 1.33332 11.2547 1.36999 11.268 1.40999Z" fill="white"/>
<path d="M13.226 2.11999L13.206 3.68999H13.606C13.8793 3.68332 14.1227 3.67999 14.336 3.67999C14.5493 3.67999 14.786 3.68332 15.046 3.68999H15.096C15.176 3.68999 15.2527 3.69332 15.326 3.69999C15.406 3.69999 15.4827 3.69999 15.556 3.69999C15.636 3.70665 15.7127 3.71999 15.786 3.73999C15.8593 3.75332 15.9327 3.76999 16.006 3.78999C16.1193 3.82999 16.2127 3.88999 16.286 3.96999C16.3527 4.05665 16.386 4.15332 16.386 4.25999C16.386 4.29332 16.386 4.33332 16.386 4.37999C16.386 4.41999 16.3793 4.45665 16.366 4.48999C16.3527 4.56332 16.3093 4.62999 16.236 4.68999C16.2027 4.73665 16.1393 4.76999 16.046 4.78999C15.9593 4.81665 15.8727 4.83332 15.786 4.83999C15.6927 4.85999 15.5993 4.86999 15.506 4.86999H15.036L13.186 4.87999L13.166 6.83999L15.156 6.85999H15.626C15.6793 6.85999 15.7293 6.85999 15.776 6.85999C15.8227 6.85999 15.866 6.86332 15.906 6.86999C15.9593 6.88332 16.006 6.89332 16.046 6.89999C16.0927 6.89999 16.136 6.90665 16.176 6.91999C16.256 6.94665 16.3227 6.98332 16.376 7.02999C16.4427 7.09665 16.486 7.16665 16.506 7.23999C16.5127 7.27332 16.516 7.30999 16.516 7.34999C16.5227 7.38332 16.5227 7.41999 16.516 7.45999C16.516 7.56665 16.4827 7.66332 16.416 7.74999C16.336 7.84332 16.2427 7.90332 16.136 7.92999C15.996 7.98999 15.8427 8.01999 15.676 8.01999C15.6027 8.02665 15.526 8.02999 15.446 8.02999C15.366 8.02999 15.2893 8.03332 15.216 8.03999H15.156C14.636 8.05332 14.096 8.05332 13.536 8.03999C13.4027 8.03999 13.296 8.03665 13.216 8.02999C13.136 8.02999 13.0627 8.02999 12.996 8.02999C12.936 8.02999 12.8727 8.02999 12.806 8.02999C12.7393 8.02999 12.6527 8.02999 12.546 8.02999C12.3927 8.04332 12.266 8.01665 12.166 7.94999C12.0927 7.90332 12.036 7.83999 11.996 7.75999C11.976 7.73999 11.966 7.71999 11.966 7.69999C11.9593 7.68665 11.9527 7.67665 11.946 7.66999C11.9393 7.66332 11.9327 7.65332 11.926 7.63999C11.9127 7.60665 11.9027 7.57332 11.896 7.53999C11.8893 7.49999 11.886 7.46332 11.886 7.42999C11.8793 7.39665 11.8727 7.36332 11.866 7.32999C11.866 7.29665 11.8627 7.26332 11.856 7.22999V7.06999C11.856 7.04332 11.856 7.01665 11.856 6.98999C11.8627 6.96332 11.866 6.93665 11.866 6.90999V6.12999L11.886 4.68999V3.35999C11.886 3.11999 11.886 2.90665 11.886 2.71999C11.8927 2.53332 11.8993 2.32999 11.906 2.10999V2.05999C11.9127 1.98665 11.916 1.91999 11.916 1.85999C11.9227 1.79332 11.926 1.72665 11.926 1.65999C11.9327 1.52665 11.9693 1.39665 12.036 1.26999C12.0627 1.21665 12.0893 1.16999 12.116 1.12999C12.1493 1.08999 12.1927 1.05665 12.246 1.02999C12.346 0.969986 12.4493 0.939986 12.556 0.939986C12.6093 0.939986 12.6493 0.943319 12.676 0.949985V0.939986C12.796 0.939986 12.8927 0.939986 12.966 0.939986C13.0393 0.939986 13.1093 0.939986 13.176 0.939986C13.2493 0.939986 13.326 0.939986 13.406 0.939986C13.486 0.933319 13.596 0.929986 13.736 0.929986C14.0027 0.923319 14.256 0.919986 14.496 0.919986C14.736 0.919986 14.9827 0.923319 15.236 0.929986H15.276C15.3493 0.936652 15.426 0.939986 15.506 0.939986C15.586 0.939986 15.6627 0.943319 15.736 0.949985C15.8093 0.949985 15.8827 0.959985 15.956 0.979986C16.0293 0.993319 16.1027 1.01332 16.176 1.03999C16.2893 1.07332 16.3827 1.12999 16.456 1.20999C16.516 1.30332 16.546 1.39665 16.546 1.48999C16.546 1.52999 16.546 1.56999 16.546 1.60999C16.546 1.64332 16.5393 1.67665 16.526 1.70999C16.5193 1.77665 16.4793 1.84665 16.406 1.91999C16.3793 1.93332 16.3493 1.94999 16.316 1.96999C16.2893 1.98999 16.256 2.00665 16.216 2.01999C16.176 2.03332 16.1327 2.04332 16.086 2.04999C16.046 2.04999 16.006 2.05332 15.966 2.05999C15.9127 2.07332 15.8627 2.07999 15.816 2.07999C15.776 2.07999 15.7293 2.07999 15.676 2.07999H15.226L13.226 2.08999V2.11999Z" fill="white"/>
<path d="M22.4286 6.31999C22.5152 6.51332 22.5186 6.70332 22.4386 6.88999C22.3586 7.06999 22.2319 7.23665 22.0586 7.38999C21.8852 7.54332 21.6852 7.67665 21.4586 7.78999C21.2386 7.90332 21.0286 7.98332 20.8286 8.02999C20.6086 8.07665 20.3752 8.09665 20.1286 8.08999C19.8886 8.08999 19.6452 8.05999 19.3986 7.99999C19.1586 7.94665 18.9219 7.86665 18.6886 7.75999C18.4619 7.64665 18.2519 7.50999 18.0585 7.34999C17.8252 7.15665 17.6419 6.92665 17.5086 6.65999C17.3819 6.38665 17.2885 6.09665 17.2285 5.78999C17.1685 5.48332 17.1352 5.17665 17.1286 4.86999C17.1286 4.55665 17.1386 4.26332 17.1586 3.98999C17.1786 3.74332 17.2285 3.48665 17.3085 3.21999C17.3885 2.95332 17.4985 2.69332 17.6385 2.43999C17.7852 2.17999 17.9586 1.93999 18.1586 1.71999C18.3652 1.49999 18.6052 1.31332 18.8786 1.15999C19.0852 1.03999 19.3152 0.959986 19.5686 0.919986C19.8285 0.873319 20.0886 0.863319 20.3486 0.889986C20.6152 0.909986 20.8652 0.966652 21.0986 1.05999C21.3386 1.14665 21.5419 1.26665 21.7086 1.41999C21.8152 1.51332 21.9252 1.64332 22.0386 1.80999C22.1586 1.97665 22.2452 2.14665 22.2986 2.31999C22.3519 2.49332 22.3519 2.65665 22.2986 2.80999C22.2519 2.95665 22.1185 3.05665 21.8986 3.10999C21.8052 3.13665 21.7219 3.14332 21.6486 3.12999C21.5752 3.10999 21.5086 3.07999 21.4486 3.03999C21.3886 2.99332 21.3319 2.93999 21.2786 2.87999C21.2252 2.81999 21.1752 2.75999 21.1286 2.69999C20.9686 2.50665 20.7819 2.37665 20.5686 2.30999C20.3552 2.23665 20.1419 2.21999 19.9286 2.25999C19.7219 2.29332 19.5252 2.37999 19.3386 2.51999C19.1586 2.65332 19.0186 2.82665 18.9186 3.03999C18.8119 3.26665 18.7252 3.51665 18.6586 3.78999C18.5986 4.05665 18.5652 4.32999 18.5585 4.60999C18.5519 4.88332 18.5752 5.14999 18.6286 5.40999C18.6886 5.66999 18.7886 5.89999 18.9286 6.09999C19.0352 6.25999 19.1652 6.38999 19.3186 6.48999C19.4786 6.58999 19.6486 6.65999 19.8286 6.69999C20.0086 6.73999 20.1886 6.74665 20.3686 6.71999C20.5552 6.69332 20.7352 6.63332 20.9086 6.53999C20.9619 6.51332 21.0186 6.47665 21.0786 6.42999C21.1452 6.37665 21.2119 6.32332 21.2786 6.26999C21.3452 6.21665 21.4119 6.16665 21.4785 6.11999C21.5519 6.07332 21.6286 6.03999 21.7086 6.01999C21.8286 5.97999 21.9586 5.98332 22.0986 6.02999C22.2452 6.07665 22.3552 6.17332 22.4286 6.31999Z" fill="white"/>
<path d="M27.9144 7.27999C27.9678 7.37999 27.9711 7.47999 27.9244 7.57999C27.8911 7.68665 27.8345 7.76665 27.7544 7.81999C27.7144 7.85332 27.6778 7.88332 27.6444 7.90999C27.6111 7.92999 27.5744 7.94665 27.5344 7.95999C27.4611 7.99999 27.3744 8.01332 27.2744 7.99999C27.2344 7.99999 27.1978 7.99332 27.1644 7.97999C27.1311 7.96665 27.0978 7.94999 27.0644 7.92999C27.0311 7.90999 26.9944 7.88999 26.9544 7.86999C26.9211 7.84332 26.8878 7.81665 26.8544 7.78999C26.8144 7.75665 26.7778 7.72665 26.7444 7.69999C26.7111 7.67332 26.6811 7.64332 26.6544 7.60999C26.6211 7.57665 26.5911 7.54332 26.5644 7.50999C26.5378 7.47665 26.5111 7.44665 26.4844 7.41999L26.3644 7.28999L24.4444 5.27999L24.4744 7.28999V7.37999C24.4744 7.40665 24.4711 7.43665 24.4644 7.46999C24.4578 7.49665 24.4511 7.52665 24.4444 7.55999C24.4244 7.64665 24.4011 7.72332 24.3744 7.78999C24.3611 7.82999 24.3411 7.86332 24.3144 7.88999C24.2944 7.91665 24.2711 7.94332 24.2444 7.96999C24.1711 8.03665 24.0844 8.07332 23.9844 8.07999C23.8844 8.11332 23.7911 8.12332 23.7044 8.10999C23.6244 8.10332 23.5411 8.07999 23.4544 8.03999C23.3878 7.99999 23.3278 7.93332 23.2744 7.83999C23.2611 7.81332 23.2511 7.79665 23.2444 7.78999C23.2444 7.78332 23.2378 7.75999 23.2244 7.71999C23.1844 7.65332 23.1644 7.58665 23.1644 7.51999C23.1578 7.47999 23.1511 7.44332 23.1444 7.40999C23.1444 7.37665 23.1411 7.33999 23.1344 7.29999C23.1278 7.27332 23.1244 7.24665 23.1244 7.21999C23.1244 7.19332 23.1244 7.16665 23.1244 7.13999C23.1311 7.10665 23.1344 7.07999 23.1344 7.05999C23.1344 7.03332 23.1344 7.00332 23.1344 6.96999L23.1244 6.17999L23.1144 4.70999C23.1144 4.28332 23.1044 3.82332 23.0844 3.32999C23.0778 3.08999 23.0744 2.87665 23.0744 2.68999C23.0744 2.50332 23.0778 2.29332 23.0844 2.05999V2.01999C23.0978 1.94665 23.1044 1.87665 23.1044 1.80999C23.1044 1.73665 23.1078 1.66665 23.1144 1.59999C23.1144 1.46665 23.1444 1.33332 23.2044 1.19999C23.2444 1.09999 23.3144 1.01999 23.4144 0.959985C23.4678 0.926652 23.5178 0.906652 23.5644 0.899985C23.6178 0.886652 23.6744 0.873319 23.7344 0.859985C23.7811 0.859985 23.8244 0.863319 23.8644 0.869985C23.9111 0.876652 23.9544 0.883319 23.9944 0.889986C24.0811 0.903319 24.1611 0.939985 24.2344 0.999985C24.2544 1.01999 24.2711 1.04332 24.2844 1.06999C24.3044 1.09665 24.3211 1.12999 24.3344 1.16999C24.3678 1.22332 24.3911 1.29999 24.4044 1.39999C24.4111 1.43999 24.4144 1.47999 24.4144 1.51999C24.4211 1.55999 24.4244 1.60332 24.4244 1.64999V2.05999L24.4344 3.27999C24.5411 3.18665 24.6444 3.08999 24.7444 2.98999C24.8511 2.88999 24.9544 2.78332 25.0544 2.66999C25.2344 2.48332 25.4111 2.30332 25.5844 2.12999C25.7644 1.94999 25.9444 1.77332 26.1244 1.59999L26.1544 1.56999C26.2078 1.51665 26.2611 1.46665 26.3144 1.41999C26.3744 1.36665 26.4311 1.31665 26.4844 1.26999C26.5844 1.15665 26.7078 1.07665 26.8544 1.02999C26.9478 0.969986 27.0578 0.946652 27.1844 0.959985C27.2444 0.966652 27.2978 0.979986 27.3444 0.999985C27.3978 1.01999 27.4478 1.04665 27.4944 1.07999C27.5278 1.11332 27.5611 1.14332 27.5944 1.16999C27.6278 1.18999 27.6544 1.21665 27.6744 1.24999C27.7278 1.29665 27.7611 1.36665 27.7744 1.45999C27.7744 1.53332 27.7611 1.59999 27.7344 1.65999C27.7144 1.69332 27.6944 1.72665 27.6744 1.75999C27.6544 1.79332 27.6311 1.82665 27.6044 1.85999C27.5711 1.89999 27.5411 1.93665 27.5144 1.96999C27.4878 2.00332 27.4578 2.03665 27.4244 2.06999C27.3978 2.10332 27.3678 2.13332 27.3344 2.15999C27.3078 2.18665 27.2811 2.21665 27.2544 2.24999L27.1244 2.37999L25.2544 4.28999C25.3544 4.38999 25.4578 4.49665 25.5644 4.60999C25.6778 4.71665 25.7844 4.82332 25.8844 4.92999C25.9844 5.02999 26.0778 5.12665 26.1644 5.21999C26.2511 5.30665 26.3244 5.37999 26.3844 5.43999C26.5644 5.62665 26.7378 5.81332 26.9044 5.99999C27.0711 6.17999 27.2344 6.36332 27.3944 6.54999L27.4244 6.57999C27.4778 6.63332 27.5278 6.68999 27.5744 6.74999C27.6211 6.80332 27.6644 6.85665 27.7044 6.90999C27.8044 7.02332 27.8744 7.14665 27.9144 7.27999Z" fill="white"/>
</svg>
