<svg width="31" height="8" viewBox="0 0 31 8" fill="none" xmlns="http://www.w3.org/2000/svg">
<path d="M4.33 0.674545C4.58333 0.907879 4.77 1.18788 4.89 1.51455C5.01 1.83455 5.05667 2.15455 5.03 2.47455C5.00333 2.78121 4.90667 3.06455 4.74 3.32455C4.57333 3.57788 4.32 3.77121 3.98 3.90455C3.71333 4.01788 3.45 4.09788 3.19 4.14455C2.93 4.19121 2.64333 4.22788 2.33 4.25455C2.19 4.26788 2.07 4.27788 1.97 4.28455C1.87667 4.28455 1.76667 4.28788 1.64 4.29455C1.61333 4.29455 1.56667 4.29455 1.5 4.29455C1.44 4.29455 1.39667 4.29788 1.37 4.30455V6.37455C1.35 6.50121 1.32333 6.63121 1.29 6.76455C1.26333 6.89788 1.18667 7.00121 1.06 7.07455C0.986667 7.11455 0.896667 7.13788 0.79 7.14455C0.683333 7.15121 0.586667 7.14788 0.5 7.13455C0.406667 7.12121 0.326667 7.09788 0.26 7.06455C0.2 7.02455 0.15 6.95788 0.11 6.86455C0.0833333 6.80455 0.0566667 6.73788 0.03 6.66455C0.01 6.58455 0 6.48788 0 6.37455V0.844545C0 0.797879 0.00333333 0.754545 0.00999998 0.714545C0.0166667 0.674545 0.0233333 0.634545 0.03 0.594545C0.0433333 0.561212 0.0533333 0.524545 0.06 0.484545C0.0666667 0.444545 0.0766667 0.407879 0.09 0.374546C0.103333 0.341212 0.116667 0.311212 0.13 0.284546C0.15 0.257879 0.173333 0.234545 0.2 0.214545C0.233333 0.181212 0.283333 0.151212 0.35 0.124545C0.423333 0.0978785 0.53 0.0845452 0.67 0.0845452H0.69C0.896667 0.071212 1.12667 0.0612121 1.38 0.0545455C1.63333 0.041212 1.84333 0.0445453 2.01 0.0645454C2.10333 0.0778786 2.19 0.0878786 2.27 0.0945456C2.35 0.0945456 2.42667 0.0978789 2.5 0.104545C2.58 0.111212 2.66 0.117879 2.74 0.124545C2.82 0.131212 2.9 0.141212 2.98 0.154545C3.04667 0.167879 3.10667 0.177879 3.16 0.184546C3.22 0.191212 3.28 0.201212 3.34 0.214545C3.39333 0.227879 3.45 0.241212 3.51 0.254545C3.57667 0.267879 3.63667 0.291212 3.69 0.324546C3.83 0.364546 3.94667 0.414545 4.04 0.474546C4.13333 0.534546 4.23 0.601212 4.33 0.674545ZM3.73 2.32455C3.73667 2.16455 3.70333 2.02455 3.63 1.90455C3.56333 1.78455 3.46667 1.68455 3.34 1.60455C3.21333 1.52455 3.07 1.46121 2.91 1.41455C2.75 1.36788 2.59 1.33455 2.43 1.31455C2.39 1.31455 2.33333 1.31455 2.26 1.31455C2.19333 1.30788 2.12 1.30455 2.04 1.30455C1.96 1.29788 1.88333 1.29455 1.81 1.29455C1.74333 1.28788 1.69 1.28455 1.65 1.28455C1.61667 1.27788 1.57667 1.27455 1.53 1.27455C1.48333 1.27455 1.43 1.27455 1.37 1.27455C1.37667 1.48121 1.38 1.68121 1.38 1.87455C1.38 2.06121 1.38 2.26455 1.38 2.48455C1.37333 2.60455 1.37 2.72455 1.37 2.84455C1.37 2.96455 1.37 3.08121 1.37 3.19455L1.99 3.18455C2.15 3.18455 2.32667 3.17455 2.52 3.15455C2.71333 3.13455 2.89667 3.09455 3.07 3.03455C3.24333 2.97455 3.39 2.88788 3.51 2.77455C3.63667 2.66121 3.71 2.51121 3.73 2.32455Z" fill="white"/>
<path d="M7.39387 0.284546C7.84053 0.117879 8.24387 0.0445453 8.60387 0.0645454C8.97053 0.0845456 9.2972 0.177879 9.58387 0.344545C9.87053 0.504545 10.1139 0.721212 10.3139 0.994545C10.5205 1.26788 10.6872 1.57455 10.8139 1.91455C10.9139 2.16788 10.9905 2.43455 11.0439 2.71455C11.0972 2.99455 11.1272 3.27455 11.1339 3.55455C11.1472 3.82788 11.1372 4.09788 11.1039 4.36455C11.0772 4.63121 11.0305 4.87788 10.9639 5.10455C10.9239 5.25788 10.8772 5.39788 10.8239 5.52455C10.7705 5.65121 10.7072 5.77788 10.6339 5.90455C10.4672 6.19121 10.2505 6.42455 9.98386 6.60455C9.72386 6.78455 9.4372 6.91121 9.12387 6.98455C8.91053 7.03788 8.69053 7.06455 8.46387 7.06455C8.2372 7.05788 8.01387 7.02788 7.79387 6.97455C7.57387 6.91455 7.36053 6.83121 7.15387 6.72455C6.95387 6.61121 6.77053 6.47121 6.60387 6.30455C6.3972 6.10455 6.2272 5.87455 6.09386 5.61455C5.96053 5.34788 5.8572 5.07121 5.78386 4.78455C5.71053 4.49121 5.66387 4.19788 5.64387 3.90455C5.62387 3.61121 5.62387 3.33121 5.64387 3.06455C5.66387 2.81788 5.71053 2.55455 5.78386 2.27455C5.86386 1.99455 5.9772 1.72455 6.12387 1.46455C6.27053 1.20455 6.4472 0.971212 6.65387 0.764545C6.8672 0.551212 7.11387 0.391212 7.39387 0.284546ZM9.73387 4.56455C9.81387 4.25121 9.8472 3.89788 9.83387 3.50455C9.82053 3.11121 9.7572 2.74121 9.64387 2.39455C9.57053 2.18121 9.4772 1.99455 9.36387 1.83455C9.2572 1.66788 9.1272 1.54121 8.97387 1.45455C8.8272 1.36788 8.65387 1.32455 8.45387 1.32455C8.25387 1.32455 8.03053 1.38455 7.78387 1.50455C7.6372 1.57788 7.51053 1.67788 7.40387 1.80455C7.30387 1.93121 7.22053 2.07455 7.15387 2.23455C7.09387 2.39455 7.04387 2.56121 7.00387 2.73455C6.97053 2.90788 6.95053 3.07455 6.94387 3.23455C6.93053 3.40788 6.9272 3.59121 6.93387 3.78455C6.94053 3.97121 6.96053 4.16121 6.99387 4.35455C7.03387 4.54121 7.0872 4.72121 7.15387 4.89455C7.22053 5.06121 7.31053 5.21121 7.42387 5.34455C7.5972 5.54455 7.7972 5.68455 8.02386 5.76455C8.2572 5.83788 8.4872 5.84788 8.71387 5.79455C9.08053 5.71455 9.36053 5.47121 9.55387 5.06455C9.63387 4.91788 9.69387 4.75121 9.73387 4.56455Z" fill="white"/>
<path d="M16.5416 6.36455C16.5549 6.39788 16.5616 6.44788 16.5616 6.51455C16.5616 6.57455 16.5616 6.62455 16.5616 6.66455C16.5616 6.71788 16.5516 6.76788 16.5316 6.81455C16.5116 6.86121 16.4849 6.90455 16.4516 6.94455C16.3916 7.02455 16.3049 7.08455 16.1916 7.12455C16.0316 7.17788 15.8816 7.20455 15.7416 7.20455C15.6682 7.21121 15.5916 7.21455 15.5116 7.21455C15.4316 7.21455 15.3516 7.22121 15.2716 7.23455H15.2316C14.7182 7.24121 14.1882 7.24121 13.6416 7.23455C13.5082 7.22788 13.3582 7.22788 13.1916 7.23455C13.0249 7.24788 12.8616 7.24455 12.7016 7.22455C12.5416 7.21121 12.3949 7.17455 12.2616 7.11455C12.1349 7.04788 12.0449 6.94455 11.9916 6.80455C11.9782 6.77121 11.9682 6.74121 11.9616 6.71455C11.9549 6.68121 11.9516 6.64788 11.9516 6.61455C11.9249 6.38788 11.9149 6.16455 11.9216 5.94455C11.9282 5.72455 11.9316 5.50788 11.9316 5.29455L11.9516 3.84455V2.50455C11.9516 2.26455 11.9516 2.05121 11.9516 1.86455C11.9582 1.67788 11.9649 1.47121 11.9716 1.24455V1.19455C11.9782 1.12788 11.9816 1.06121 11.9816 0.994545C11.9882 0.927879 11.9916 0.861212 11.9916 0.794546C12.0049 0.641212 12.0416 0.511212 12.1016 0.404545C12.1416 0.304545 12.2116 0.224545 12.3116 0.164545C12.3982 0.104545 12.5016 0.0745453 12.6216 0.0745453C12.6682 0.0745453 12.7116 0.0778786 12.7516 0.0845452C12.7982 0.0845452 12.8416 0.0878786 12.8816 0.0945456C12.9216 0.101212 12.9582 0.114545 12.9916 0.134545C13.0316 0.154545 13.0716 0.181212 13.1116 0.214545C13.1516 0.261212 13.1882 0.317879 13.2216 0.384545C13.2482 0.457879 13.2649 0.531212 13.2716 0.604546C13.2782 0.651212 13.2849 0.694545 13.2916 0.734545C13.2982 0.774545 13.3016 0.814545 13.3016 0.854545C13.2882 0.894545 13.2816 0.934545 13.2816 0.974546C13.2816 1.01455 13.2816 1.05121 13.2816 1.08455V1.26455L13.2416 5.97455L15.2216 5.99455H15.6916C15.7316 5.99455 15.7749 5.99788 15.8216 6.00455C15.8682 6.00455 15.9149 6.00788 15.9616 6.01455C16.0149 6.02121 16.0616 6.02788 16.1016 6.03455C16.1416 6.04121 16.1816 6.05121 16.2216 6.06455C16.2949 6.08455 16.3549 6.11788 16.4016 6.16455C16.4749 6.23121 16.5216 6.29788 16.5416 6.36455Z" fill="white"/>
<path d="M17.4453 6.06455L17.4553 5.27455L17.4653 3.80455C17.4719 3.59121 17.4753 3.37121 17.4753 3.14455C17.4753 2.91788 17.4753 2.68455 17.4753 2.44455C17.4753 2.20455 17.4753 1.99121 17.4753 1.80455C17.4753 1.61788 17.4819 1.40788 17.4953 1.17455V1.13455C17.5019 1.06788 17.5053 1.00121 17.5053 0.934546C17.5119 0.861212 17.5153 0.787879 17.5153 0.714545C17.5219 0.594545 17.5586 0.464545 17.6253 0.324546C17.6719 0.231212 17.7419 0.151212 17.8353 0.0845452C17.9419 0.0312121 18.0453 0.00454559 18.1453 0.00454559C18.1986 0.00454559 18.2453 0.00787888 18.2853 0.0145455C18.3319 0.0145455 18.3753 0.0178788 18.4153 0.0245453C18.5019 0.0378789 18.5786 0.077879 18.6453 0.144546C18.6853 0.177879 18.7219 0.231212 18.7553 0.304545C18.7686 0.344545 18.7786 0.384545 18.7853 0.424546C18.7986 0.457879 18.8086 0.494545 18.8153 0.534545C18.8219 0.581212 18.8253 0.624546 18.8253 0.664545C18.8319 0.704545 18.8353 0.744545 18.8353 0.784546C18.8353 0.831212 18.8319 0.874545 18.8253 0.914545C18.8253 0.947878 18.8253 0.984545 18.8253 1.02455V1.19455L18.7653 6.38455V6.48455C18.7653 6.50455 18.7619 6.53121 18.7553 6.56455C18.7553 6.59121 18.7519 6.62455 18.7453 6.66455C18.7319 6.69788 18.7186 6.73455 18.7053 6.77455C18.6986 6.80788 18.6886 6.84455 18.6753 6.88455C18.6553 6.91788 18.6319 6.95121 18.6053 6.98455C18.5853 7.01121 18.5586 7.03788 18.5253 7.06455C18.4719 7.11788 18.3853 7.15455 18.2653 7.17455C18.0853 7.21455 17.9153 7.19788 17.7553 7.12455C17.6753 7.07121 17.6186 7.00455 17.5853 6.92455C17.5653 6.90455 17.5553 6.88455 17.5553 6.86455C17.5486 6.85121 17.5419 6.84121 17.5353 6.83455C17.5286 6.82788 17.5219 6.81788 17.5153 6.80455C17.5019 6.77121 17.4919 6.73788 17.4853 6.70455C17.4786 6.66455 17.4753 6.62455 17.4753 6.58455C17.4686 6.55121 17.4619 6.51788 17.4553 6.48455C17.4553 6.45121 17.4519 6.41788 17.4453 6.38455C17.4386 6.33121 17.4386 6.27455 17.4453 6.21455V6.06455Z" fill="white"/>
<path d="M25.0223 5.44455C25.1089 5.63788 25.1123 5.82788 25.0323 6.01455C24.9523 6.19455 24.8256 6.36121 24.6523 6.51455C24.4789 6.66788 24.2789 6.80121 24.0523 6.91455C23.8323 7.02788 23.6223 7.10788 23.4223 7.15455C23.2023 7.20121 22.9689 7.22121 22.7223 7.21455C22.4823 7.21455 22.2389 7.18455 21.9923 7.12455C21.7523 7.07121 21.5156 6.99121 21.2823 6.88455C21.0556 6.77121 20.8456 6.63455 20.6523 6.47455C20.4189 6.28121 20.2356 6.05121 20.1023 5.78455C19.9756 5.51121 19.8823 5.22121 19.8223 4.91455C19.7623 4.60788 19.7289 4.30121 19.7223 3.99455C19.7223 3.68121 19.7323 3.38788 19.7523 3.11455C19.7723 2.86788 19.8223 2.61121 19.9023 2.34455C19.9823 2.07788 20.0923 1.81788 20.2323 1.56455C20.3789 1.30455 20.5523 1.06455 20.7523 0.844545C20.9589 0.624546 21.1989 0.437879 21.4723 0.284546C21.6789 0.164546 21.9089 0.0845456 22.1623 0.0445457C22.4223 -0.00212119 22.6823 -0.0121213 22.9423 0.0145455C23.2089 0.0345456 23.4589 0.0912123 23.6923 0.184546C23.9323 0.271212 24.1356 0.391212 24.3023 0.544545C24.4089 0.637878 24.5189 0.767879 24.6323 0.934546C24.7523 1.10121 24.8389 1.27121 24.8923 1.44455C24.9456 1.61788 24.9456 1.78121 24.8923 1.93455C24.8456 2.08121 24.7123 2.18121 24.4923 2.23455C24.3989 2.26121 24.3156 2.26788 24.2423 2.25455C24.1689 2.23455 24.1023 2.20455 24.0423 2.16455C23.9823 2.11788 23.9256 2.06455 23.8723 2.00455C23.8189 1.94455 23.7689 1.88455 23.7223 1.82455C23.5623 1.63121 23.3756 1.50121 23.1623 1.43455C22.9489 1.36121 22.7356 1.34455 22.5223 1.38455C22.3156 1.41788 22.1189 1.50455 21.9323 1.64455C21.7523 1.77788 21.6123 1.95121 21.5123 2.16455C21.4056 2.39121 21.3189 2.64121 21.2523 2.91455C21.1923 3.18121 21.1589 3.45455 21.1523 3.73455C21.1456 4.00788 21.1689 4.27455 21.2223 4.53455C21.2823 4.79455 21.3823 5.02455 21.5223 5.22455C21.6289 5.38455 21.7589 5.51455 21.9123 5.61455C22.0723 5.71455 22.2423 5.78455 22.4223 5.82455C22.6023 5.86455 22.7823 5.87121 22.9623 5.84455C23.1489 5.81788 23.3289 5.75788 23.5023 5.66455C23.5556 5.63788 23.6123 5.60121 23.6723 5.55455C23.7389 5.50121 23.8056 5.44788 23.8723 5.39455C23.9389 5.34121 24.0056 5.29121 24.0723 5.24455C24.1456 5.19788 24.2223 5.16455 24.3023 5.14455C24.4223 5.10455 24.5523 5.10788 24.6923 5.15455C24.8389 5.20121 24.9489 5.29788 25.0223 5.44455Z" fill="white"/>
<path d="M30.7454 0.474546C30.7521 0.507879 30.7521 0.541212 30.7454 0.574545C30.7454 0.607879 30.7354 0.644545 30.7154 0.684545C30.6888 0.777878 30.6588 0.861212 30.6254 0.934546C30.5854 1.02788 30.5354 1.10788 30.4754 1.17455C30.4488 1.21455 30.4221 1.25455 30.3954 1.29455C30.3754 1.32788 30.3554 1.36121 30.3354 1.39455L30.2054 1.56455L28.9254 3.41455L28.6954 3.70455V6.36455C28.6821 6.39788 28.6754 6.43121 28.6754 6.46455C28.6754 6.49788 28.6721 6.53455 28.6654 6.57455C28.6521 6.60788 28.6421 6.64121 28.6354 6.67455C28.6288 6.70121 28.6188 6.73121 28.6054 6.76455C28.5921 6.79121 28.5854 6.81121 28.5854 6.82455C28.5788 6.83788 28.5721 6.84788 28.5654 6.85455C28.5654 6.86121 28.5621 6.87121 28.5554 6.88455C28.5154 6.95121 28.4588 7.01121 28.3854 7.06455C28.2388 7.13788 28.0721 7.15455 27.8854 7.11455C27.7788 7.10121 27.6988 7.06788 27.6454 7.01455C27.6121 6.99455 27.5854 6.97121 27.5654 6.94455C27.5454 6.91788 27.5254 6.88788 27.5054 6.85455C27.4921 6.81455 27.4788 6.77788 27.4654 6.74455C27.4521 6.71121 27.4421 6.67788 27.4354 6.64455C27.4221 6.61121 27.4154 6.58121 27.4154 6.55455C27.4154 6.52121 27.4154 6.49121 27.4154 6.46455V3.73455L27.1954 3.39455L25.8954 1.55455L25.7854 1.37455C25.7454 1.31455 25.6954 1.24455 25.6354 1.16455C25.5821 1.09121 25.5354 1.01121 25.4954 0.924546C25.4687 0.884545 25.4454 0.844545 25.4254 0.804545C25.4121 0.757879 25.3988 0.711212 25.3854 0.664545C25.3654 0.597879 25.3621 0.531212 25.3754 0.464546C25.3954 0.377879 25.4354 0.304546 25.4954 0.244545C25.5621 0.184545 25.6321 0.137879 25.7054 0.104545C25.7988 0.0378789 25.9054 0.0112122 26.0254 0.0245453C26.0988 0.0245453 26.1621 0.0378787 26.2154 0.0645454C26.2688 0.0912121 26.3221 0.121212 26.3754 0.154545C26.4354 0.201212 26.4921 0.251212 26.5454 0.304545C26.6054 0.357879 26.6588 0.414545 26.7054 0.474546C26.7588 0.541212 26.8088 0.604545 26.8554 0.664545C26.9021 0.717879 26.9487 0.781212 26.9954 0.854545L27.0254 0.894545C27.1854 1.10788 27.3354 1.31455 27.4754 1.51455C27.6154 1.70788 27.7621 1.91788 27.9154 2.14455C27.9288 2.15788 27.9488 2.18455 27.9754 2.22455C28.0021 2.26455 28.0321 2.31121 28.0654 2.36455C28.0921 2.31788 28.1154 2.27788 28.1354 2.24455C28.1621 2.20455 28.1821 2.17788 28.1954 2.16455C28.3488 1.93788 28.4954 1.72455 28.6354 1.52455C28.7754 1.32455 28.9254 1.11788 29.0854 0.904545L29.1054 0.864545C29.1588 0.804545 29.2054 0.744545 29.2454 0.684545C29.2921 0.617879 29.3421 0.551212 29.3954 0.484545C29.4821 0.364545 29.5988 0.261212 29.7454 0.174545C29.8521 0.101212 29.9621 0.0545453 30.0754 0.0345452C30.2021 0.021212 30.3121 0.0478788 30.4054 0.114545C30.4454 0.141212 30.4821 0.164546 30.5154 0.184546C30.5554 0.204545 30.5888 0.227879 30.6154 0.254545C30.6688 0.314545 30.7121 0.387879 30.7454 0.474546Z" fill="white"/>
</svg>
