<svg width="107" height="18" viewBox="0 0 107 18" fill="none" xmlns="http://www.w3.org/2000/svg">
<path d="M7.78 13.92C8.16667 13.92 8.51333 13.9867 8.82 14.12C9.14 14.2533 9.32667 14.5333 9.38 14.96C9.40667 15.1733 9.37333 15.3667 9.28 15.54C9.2 15.7133 9.08667 15.86 8.94 15.98C8.79333 16.1 8.62 16.1933 8.42 16.26C8.23333 16.3267 8.05333 16.3667 7.88 16.38C7.73333 16.38 7.47333 16.38 7.1 16.38C6.74 16.38 6.33333 16.38 5.88 16.38C5.44 16.38 4.98667 16.38 4.52 16.38C4.05333 16.38 3.66 16.38 3.34 16.38H3.18C2.87333 16.3667 2.55333 16.3533 2.22 16.34C1.9 16.3267 1.58667 16.2733 1.28 16.18C1.06667 16.1133 0.866667 15.9933 0.68 15.82C0.493333 15.6467 0.346667 15.4467 0.24 15.22C0.173333 15.0733 0.126667 14.9 0.1 14.7C0.0733333 14.4867 0.0533333 14.2867 0.04 14.1C0.0266666 13.9 0.02 13.7267 0.02 13.58C0.0333333 13.4333 0.04 13.3533 0.04 13.34V4.84C0.04 4.8 0.0333333 4.69333 0.02 4.52C0.00666666 4.34667 0 4.14667 0 3.92C0.0133333 3.69333 0.0333333 3.46 0.06 3.22C0.1 2.98 0.173333 2.78 0.28 2.62C0.36 2.48667 0.5 2.38 0.7 2.3C0.913333 2.22 1.12667 2.16 1.34 2.12C1.56667 2.08 1.76667 2.06 1.94 2.06C2.12667 2.04667 2.24 2.04 2.28 2.04H6.96C6.97333 2.04 7.07333 2.04 7.26 2.04C7.46 2.04 7.67333 2.06667 7.9 2.12C8.12667 2.16 8.34667 2.23333 8.56 2.34C8.77333 2.44667 8.91333 2.60667 8.98 2.82C9.00667 2.9 9.02 3 9.02 3.12C9.03333 3.22667 9.04 3.34667 9.04 3.48C9.04 3.6 9.02667 3.71333 9 3.82C8.98667 3.92667 8.96667 4.00667 8.94 4.06C8.84667 4.23333 8.68 4.35333 8.44 4.42C8.17333 4.48667 7.79333 4.52 7.3 4.52C7.22 4.52 7.12667 4.52 7.02 4.52C6.92667 4.52 6.77333 4.52 6.56 4.52C6.36 4.50667 6.07333 4.5 5.7 4.5C5.34 4.5 4.85333 4.5 4.24 4.5C4.05333 4.5 3.86 4.50667 3.66 4.52C3.47333 4.53333 3.33333 4.56 3.24 4.6C3.14667 4.64 3.07333 4.72 3.02 4.84C2.98 4.94667 2.94667 5.07333 2.92 5.22C2.90667 5.35333 2.9 5.48667 2.9 5.62C2.9 5.75333 2.90667 5.86 2.92 5.94V5.96L3 12.88C3 13.1467 3.06 13.3667 3.18 13.54C3.3 13.7 3.51333 13.78 3.82 13.78C3.86 13.78 4 13.7933 4.24 13.82C4.49333 13.8333 4.80667 13.8467 5.18 13.86C5.56667 13.8733 5.98667 13.8867 6.44 13.9C6.89333 13.9133 7.34 13.92 7.78 13.92ZM14.68 7.6C14.92 7.65333 15.1267 7.76 15.3 7.92C15.4867 8.08 15.58 8.30667 15.58 8.6C15.58 8.70667 15.5733 8.80667 15.56 8.9C15.56 8.98 15.5467 9.07333 15.52 9.18C15.48 9.40667 15.3933 9.6 15.26 9.76C15.14 9.92 14.9533 10 14.7 10L13.06 10.02C13.0467 10.3667 13.04 10.7533 13.04 11.18C13.04 11.6067 13.04 12.0467 13.04 12.5C13.04 12.9533 13.04 13.4133 13.04 13.88C13.0533 14.3333 13.06 14.7667 13.06 15.18C13.06 15.3533 13.0533 15.5667 13.04 15.82C13.0267 16.0733 12.98 16.32 12.9 16.56C12.82 16.7867 12.7 16.9867 12.54 17.16C12.38 17.3333 12.1533 17.4267 11.86 17.44C11.54 17.4667 11.2867 17.4133 11.1 17.28C10.9133 17.1467 10.7733 16.9733 10.68 16.76C10.5867 16.56 10.5267 16.34 10.5 16.1C10.4733 15.8467 10.46 15.6133 10.46 15.4V3.12C10.46 3.10667 10.46 3.04667 10.46 2.94C10.46 2.82 10.4733 2.68667 10.5 2.54C10.5267 2.38 10.5667 2.22 10.62 2.06C10.6867 1.88667 10.7733 1.74667 10.88 1.64C10.9733 1.54667 11.1067 1.48 11.28 1.44C11.4667 1.38667 11.6333 1.36 11.78 1.36C12.0733 1.36 12.32 1.46 12.52 1.66C12.7067 1.84667 12.8133 2.04667 12.84 2.26C12.88 2.46 12.9133 2.67333 12.94 2.9C13.0067 3.63333 13.0467 4.38667 13.06 5.16C13.0867 5.93333 13.1 6.7 13.1 7.46L14.68 7.6Z" fill="#EBA184"/>
<path d="M29.2216 6.28C29.4349 6.29333 29.6216 6.34667 29.7816 6.44C29.9416 6.52 30.0549 6.67333 30.1216 6.9C30.2682 7.42 30.0949 7.78 29.6016 7.98C29.4416 8.04667 29.2749 8.08667 29.1016 8.1C28.9416 8.11333 28.7882 8.12 28.6416 8.12H19.5016C19.2349 8.12 18.9549 8.12 18.6616 8.12C18.3816 8.12 18.0949 8.11333 17.8016 8.1C17.5216 8.07333 17.2816 7.96667 17.0816 7.78C16.8949 7.58 16.7882 7.32 16.7616 7C16.7349 6.76 16.7216 6.51333 16.7216 6.26C16.7216 5.99333 16.7216 5.76667 16.7216 5.58C16.7216 5.55333 16.7149 5.52 16.7016 5.48C16.7016 5.44 16.7016 5.40667 16.7016 5.38C16.7016 5.23333 16.7082 5.05333 16.7216 4.84C16.7349 4.61333 16.8016 4.42667 16.9216 4.28C17.1082 4.06667 17.3549 3.94 17.6616 3.9C17.9682 3.84667 18.2682 3.82 18.5616 3.82H25.9816C26.2216 3.82 26.4082 3.82 26.5416 3.82C26.6749 3.82 26.7949 3.82 26.9016 3.82C27.0082 3.82 27.1149 3.82 27.2216 3.82C27.3282 3.82 27.4616 3.82 27.6216 3.82C27.6216 3.79333 27.6216 3.74 27.6216 3.66C27.6349 3.56667 27.6416 3.48 27.6416 3.4C27.6549 3.30667 27.6616 3.22667 27.6616 3.16C27.6616 3.08 27.6482 3.04 27.6216 3.04H19.0616C18.9949 3.04 18.9216 3.04 18.8416 3.04C18.7749 3.02667 18.7016 3.02667 18.6216 3.04H18.1416C18.0082 3.04 17.8882 3.04 17.7816 3.04C17.6749 3.04 17.5682 3.02667 17.4616 3C17.3416 2.97333 17.2282 2.93333 17.1216 2.88C17.0149 2.81333 16.9282 2.72667 16.8616 2.62C16.8082 2.5 16.7749 2.37333 16.7616 2.24C16.7616 2.10667 16.7616 1.98 16.7616 1.86C16.7616 1.74 16.7949 1.62667 16.8616 1.52C16.9416 1.41333 17.0282 1.32667 17.1216 1.26C17.2282 1.19333 17.3349 1.15333 17.4416 1.14C17.5482 1.12667 17.6682 1.10667 17.8016 1.08C17.9082 1.05333 18.0149 1.04667 18.1216 1.06C18.2282 1.07333 18.3349 1.07333 18.4416 1.06C18.5616 1.04667 18.6749 1.04 18.7816 1.04C18.9016 1.04 19.0216 1.04 19.1416 1.04C19.5549 1.05333 20.0816 1.06 20.7216 1.06C21.3616 1.04667 21.9816 1.04 22.5816 1.04H28.0416C28.7216 1.04 29.2416 1.15333 29.6016 1.38C29.9616 1.59333 30.1416 1.95333 30.1416 2.46V3.86C30.1416 3.98 30.1416 4.11333 30.1416 4.26C30.1549 4.39333 30.1482 4.53333 30.1216 4.68C30.1082 4.81333 30.0749 4.94 30.0216 5.06C29.9682 5.18 29.8816 5.27333 29.7616 5.34C29.5616 5.44667 29.3282 5.50667 29.0616 5.52C28.8082 5.52 28.5682 5.52 28.3416 5.52H19.1616V6.26H28.5616C28.6682 6.26 28.7749 6.26 28.8816 6.26C29.0016 6.26 29.1149 6.26667 29.2216 6.28ZM29.3816 14.76C29.3949 14.76 29.4416 14.7733 29.5216 14.8C29.6016 14.8267 29.6882 14.8733 29.7816 14.94C29.8882 14.9933 29.9816 15.0733 30.0616 15.18C30.1549 15.2733 30.2149 15.3867 30.2416 15.52C30.3216 16.0267 30.2416 16.42 30.0016 16.7C29.8549 16.8867 29.6949 17 29.5216 17.04C29.3482 17.08 29.2549 17.1 29.2416 17.1H18.3216C17.8149 17.1 17.4149 17.0133 17.1216 16.84C16.8282 16.68 16.6816 16.4467 16.6816 16.14V14.36C16.6549 14.0667 16.6549 13.7667 16.6816 13.46C16.7082 13.18 16.8149 12.9533 17.0016 12.78C17.1882 12.6067 17.4216 12.52 17.7016 12.52C17.7682 12.52 17.8549 12.5267 17.9616 12.54C18.0816 12.54 18.1749 12.5533 18.2416 12.58C18.4149 12.6333 18.5482 12.7133 18.6416 12.82C18.7349 12.9267 18.8082 13.0533 18.8616 13.2C18.9149 13.3333 18.9482 13.48 18.9616 13.64C18.9749 13.7867 18.9882 13.9333 19.0016 14.08C19.0016 14.1867 19.0082 14.3 19.0216 14.42C19.0349 14.5267 19.0549 14.6267 19.0816 14.72C19.1082 14.7333 19.2282 14.7533 19.4416 14.78C19.6682 14.7933 20.0149 14.8 20.4816 14.8C20.8816 14.8 21.2349 14.7933 21.5416 14.78C21.8616 14.7667 22.0282 14.76 22.0416 14.76H29.3816ZM28.7616 8.84C28.9882 8.84 29.2282 8.84 29.4816 8.84C29.7482 8.82667 29.9882 8.85333 30.2016 8.92C30.4282 8.97333 30.6082 9.08667 30.7416 9.26C30.8882 9.43333 30.9616 9.7 30.9616 10.06C30.9616 10.38 30.8282 10.66 30.5616 10.9C30.3482 11.0867 30.0882 11.1933 29.7816 11.22C29.4882 11.2333 29.2082 11.2333 28.9416 11.22C28.8749 11.2067 28.8149 11.2 28.7616 11.2C28.7082 11.2 28.6482 11.2 28.5816 11.2H17.5616C17.5482 11.2 17.4882 11.2 17.3816 11.2C17.2749 11.2 17.1482 11.1867 17.0016 11.16C16.8682 11.1333 16.7282 11.1 16.5816 11.06C16.4349 11.0067 16.3149 10.9267 16.2216 10.82C16.0616 10.6467 15.9816 10.4133 15.9816 10.12C15.9816 9.84 16.0682 9.61333 16.2416 9.44C16.4149 9.28 16.5949 9.14667 16.7816 9.04C16.9682 8.93333 17.1616 8.86667 17.3616 8.84C17.4016 8.84 17.4416 8.84667 17.4816 8.86C17.5216 8.86 17.5616 8.85333 17.6016 8.84C17.7882 8.81333 17.9882 8.81333 18.2016 8.84C18.4149 8.85333 18.6349 8.85333 18.8616 8.84C19.5549 8.81333 20.2549 8.80667 20.9616 8.82C21.6816 8.83333 22.4282 8.84 23.2016 8.84C24.0416 8.84 24.9349 8.83333 25.8816 8.82C26.8282 8.80667 27.7549 8.81333 28.6616 8.84H28.7616Z" fill="#EBA184"/>
<path d="M38.2181 14.34C38.2181 13.74 38.3915 13.24 38.7381 12.84C39.0981 12.44 39.5781 12.1267 40.1781 11.9C40.7781 11.66 41.4848 11.4933 42.2981 11.4C43.1115 11.3067 43.9781 11.26 44.8981 11.26C45.8181 11.26 46.6848 11.2933 47.4981 11.36C48.3115 11.4267 49.0181 11.5733 49.6181 11.8C50.2181 12.0133 50.6915 12.32 51.0381 12.72C51.3981 13.12 51.5781 13.66 51.5781 14.34C51.5781 15.0067 51.3981 15.54 51.0381 15.94C50.6915 16.34 50.2181 16.6467 49.6181 16.86C49.0181 17.0867 48.3115 17.2333 47.4981 17.3C46.6848 17.38 45.8181 17.42 44.8981 17.42C43.9781 17.42 43.1115 17.38 42.2981 17.3C41.4848 17.2333 40.7781 17.0867 40.1781 16.86C39.5781 16.6467 39.0981 16.34 38.7381 15.94C38.3915 15.54 38.2181 15.0067 38.2181 14.34ZM43.3181 3.8C43.3181 3.8 43.3115 3.88 43.2981 4.04C43.2981 4.2 43.2981 4.38 43.2981 4.58C43.2981 4.78 43.2981 4.96667 43.2981 5.14C43.3115 5.31333 43.3181 5.41333 43.3181 5.44C43.3848 5.50667 43.5048 5.62 43.6781 5.78C43.8515 5.92667 43.9981 6.05333 44.1181 6.16C44.2515 6.26667 44.3848 6.38667 44.5181 6.52C44.6648 6.64 44.8115 6.77333 44.9581 6.92C45.0515 7.01333 45.1381 7.10667 45.2181 7.2C45.2981 7.28 45.3715 7.35333 45.4381 7.42C45.6915 7.67333 45.9448 7.94667 46.1981 8.24C46.4515 8.53333 46.6248 8.83333 46.7181 9.14C46.7581 9.26 46.7648 9.39333 46.7381 9.54C46.7115 9.68667 46.6248 9.81333 46.4781 9.92C46.2515 10.0533 46.0115 10.12 45.7581 10.12C45.4648 10.12 45.1848 10.06 44.9181 9.94C44.6515 9.82 44.4381 9.7 44.2781 9.58C44.0248 9.39333 43.7915 9.2 43.5781 9C43.3648 8.78667 43.1515 8.57333 42.9381 8.36C42.7915 8.21333 42.6248 8.04667 42.4381 7.86C42.2515 7.66 42.0648 7.48667 41.8781 7.34L41.3381 7.88C41.2448 7.97333 41.1515 8.06667 41.0581 8.16C40.9648 8.24 40.8781 8.32667 40.7981 8.42C40.6248 8.60667 40.4448 8.8 40.2581 9C40.0715 9.18667 39.8581 9.36667 39.6181 9.54C39.0715 9.94 38.5581 10.14 38.0781 10.14C38.0115 10.14 37.9515 10.14 37.8981 10.14C37.8581 10.14 37.8048 10.1267 37.7381 10.1C37.4448 10.0333 37.2515 9.91333 37.1581 9.74C37.0648 9.59333 37.0315 9.42667 37.0581 9.24C37.0981 9.05333 37.1581 8.88667 37.2381 8.74C37.3448 8.59333 37.4648 8.45333 37.5981 8.32C37.7315 8.17333 37.8648 8.02667 37.9981 7.88C38.1181 7.74667 38.3048 7.56 38.5581 7.32C38.8248 7.06667 39.0915 6.81333 39.3581 6.56C39.6248 6.29333 39.8715 6.05333 40.0981 5.84C40.3248 5.62667 40.4648 5.49333 40.5181 5.44V3.8H39.2381C39.0781 3.8 38.8915 3.80667 38.6781 3.82C38.4648 3.82 38.2515 3.80667 38.0381 3.78C37.8381 3.75333 37.6515 3.7 37.4781 3.62C37.3048 3.52667 37.1781 3.38 37.0981 3.18C37.0315 3.03333 36.9848 2.86667 36.9581 2.68C36.9448 2.49333 36.9581 2.32 36.9981 2.16C37.0515 1.97333 37.1715 1.84667 37.3581 1.78C37.5448 1.7 37.7248 1.64667 37.8981 1.62C37.9248 1.62 38.0315 1.62 38.2181 1.62C38.4181 1.62 38.6315 1.62 38.8581 1.62C39.0848 1.62 39.2981 1.62 39.4981 1.62C39.6981 1.62 39.8181 1.61333 39.8581 1.6H44.5381C45.0715 1.6 45.5181 1.63333 45.8781 1.7C46.2515 1.76667 46.5515 1.93333 46.7781 2.2C46.8448 2.28 46.8848 2.38667 46.8981 2.52C46.9248 2.65333 46.9248 2.79333 46.8981 2.94C46.8848 3.07333 46.8448 3.2 46.7781 3.32C46.7248 3.44 46.6448 3.52667 46.5381 3.58C46.4315 3.62 46.3048 3.66667 46.1581 3.72C46.0115 3.76 45.8848 3.78667 45.7781 3.8C45.5915 3.81333 45.3981 3.82 45.1981 3.82C45.0115 3.80667 44.8248 3.8 44.6381 3.8H43.3181ZM47.8381 7.18C47.4515 7.15333 47.1048 7.13333 46.7981 7.12C46.4915 7.09333 46.2515 6.94667 46.0781 6.68C45.9981 6.54667 45.9581 6.37333 45.9581 6.16C45.9581 5.94667 45.9715 5.76667 45.9981 5.62C46.0381 5.47333 46.1115 5.35333 46.2181 5.26C46.3248 5.15333 46.5115 5.06667 46.7781 5C46.8315 4.98667 46.9581 4.98 47.1581 4.98C47.3715 4.96667 47.5981 4.96 47.8381 4.96C48.0781 4.94667 48.3048 4.94 48.5181 4.94C48.7315 4.92667 48.8648 4.92 48.9181 4.92V3.02C48.9048 2.87333 48.8981 2.72667 48.8981 2.58C48.9115 2.43333 48.9381 2.28667 48.9781 2.14C49.0048 2.03333 49.0315 1.93333 49.0581 1.84C49.0848 1.74667 49.1448 1.64667 49.2381 1.54C49.3448 1.40667 49.4915 1.31333 49.6781 1.26C49.8781 1.20667 50.0915 1.19333 50.3181 1.22C50.5181 1.24667 50.6981 1.30667 50.8581 1.4C51.0181 1.48 51.1315 1.58667 51.1981 1.72C51.2781 1.88 51.3248 2.08 51.3381 2.32C51.3648 2.54667 51.3781 2.68667 51.3781 2.74V9.6H51.3581C51.3581 9.61333 51.3515 9.66 51.3381 9.74C51.3248 9.82 51.2981 9.92 51.2581 10.04C51.2181 10.1467 51.1581 10.26 51.0781 10.38C50.9981 10.5 50.8915 10.6 50.7581 10.68C50.5715 10.7867 50.3648 10.84 50.1381 10.84C49.9115 10.84 49.6915 10.7667 49.4781 10.62C49.3181 10.5133 49.2048 10.38 49.1381 10.22C49.0581 10.0733 49.0048 9.92667 48.9781 9.78C48.9515 9.63333 48.9315 9.48667 48.9181 9.34V7.18H47.8381ZM48.8781 14.34C48.8781 14.1133 48.7581 13.9333 48.5181 13.8C48.2781 13.6667 47.9648 13.5667 47.5781 13.5C47.2048 13.4333 46.7781 13.3933 46.2981 13.38C45.8315 13.3533 45.3648 13.34 44.8981 13.34C44.4315 13.34 43.9648 13.3533 43.4981 13.38C43.0448 13.3933 42.6315 13.4333 42.2581 13.5C41.8981 13.5667 41.6048 13.6667 41.3781 13.8C41.1515 13.9333 41.0381 14.1133 41.0381 14.34C41.0381 14.54 41.1515 14.7067 41.3781 14.84C41.6048 14.9733 41.8981 15.0733 42.2581 15.14C42.6315 15.2067 43.0448 15.2533 43.4981 15.28C43.9648 15.3067 44.4315 15.32 44.8981 15.32C45.3648 15.32 45.8315 15.32 46.2981 15.32C46.7781 15.32 47.2048 15.2933 47.5781 15.24C47.9648 15.1867 48.2781 15.0933 48.5181 14.96C48.7581 14.8133 48.8781 14.6067 48.8781 14.34Z" fill="#EBA184"/>
<path d="M60.3384 7.56C60.5651 7.82667 60.7918 8.10667 61.0184 8.4C61.2451 8.69333 61.3984 8.98667 61.4784 9.28C61.5051 9.41333 61.5051 9.55333 61.4784 9.7C61.4518 9.84667 61.3784 9.97333 61.2584 10.08C61.0584 10.2133 60.8451 10.28 60.6184 10.28C60.3651 10.28 60.1184 10.22 59.8784 10.1C59.6518 9.98 59.4651 9.86 59.3184 9.74C59.0918 9.54 58.8851 9.34 58.6984 9.14C58.5118 8.92667 58.3251 8.72 58.1384 8.52C57.9918 8.36 57.8318 8.2 57.6584 8.04C57.4851 7.88 57.3318 7.70667 57.1984 7.52L55.2184 9.7C55.0051 9.92667 54.7784 10.0867 54.5384 10.18C54.2984 10.26 54.0718 10.3 53.8584 10.3C53.7918 10.3 53.6918 10.2867 53.5584 10.26C53.3051 10.1933 53.1318 10.0733 53.0384 9.9C52.9584 9.75333 52.9318 9.58667 52.9584 9.4C52.9851 9.21333 53.0384 9.04667 53.1184 8.9C53.2118 8.74 53.3118 8.59333 53.4184 8.46C53.5384 8.32667 53.6584 8.18667 53.7784 8.04C54.1251 7.65333 54.4584 7.25333 54.7784 6.84C55.1118 6.41333 55.4718 6 55.8584 5.6V4.5C55.7518 4.51333 55.6184 4.52 55.4584 4.52C55.2984 4.50667 55.1051 4.5 54.8784 4.5C54.7318 4.5 54.5651 4.50667 54.3784 4.52C54.1918 4.53333 54.0051 4.52667 53.8184 4.5C53.6451 4.47333 53.4851 4.42 53.3384 4.34C53.1918 4.24667 53.0784 4.1 52.9984 3.9C52.9318 3.75333 52.8918 3.58667 52.8784 3.4C52.8651 3.21333 52.8784 3.04 52.9184 2.88C52.9584 2.69333 53.0584 2.56667 53.2184 2.5C53.3918 2.42 53.5518 2.36667 53.6984 2.34C53.8318 2.31333 53.9518 2.3 54.0584 2.3C54.0984 2.3 54.1384 2.30667 54.1784 2.32C54.2184 2.32 54.2584 2.32 54.2984 2.32H55.9184C55.9451 2.01333 56.0051 1.72667 56.0984 1.46C56.2051 1.18 56.4051 0.986666 56.6984 0.879999C56.9251 0.8 57.1318 0.779999 57.3184 0.819999C57.5184 0.859999 57.6918 0.939999 57.8384 1.06C57.9851 1.18 58.1051 1.33333 58.1984 1.52C58.2918 1.70667 58.3518 1.9 58.3784 2.1C58.3918 2.14 58.3984 2.18 58.3984 2.22C58.4118 2.24667 58.4184 2.28 58.4184 2.32H59.5584C60.0251 2.32 60.3984 2.35333 60.6784 2.42C60.9584 2.47333 61.1918 2.63333 61.3784 2.9C61.4318 2.98 61.4718 3.09333 61.4984 3.24C61.5251 3.37333 61.5251 3.51333 61.4984 3.66C61.4851 3.79333 61.4518 3.92 61.3984 4.04C61.3451 4.16 61.2784 4.24667 61.1984 4.3C61.0918 4.34 60.9718 4.38667 60.8384 4.44C60.7184 4.48 60.6051 4.5 60.4984 4.5C60.3384 4.51333 60.1918 4.52 60.0584 4.52C59.9384 4.50667 59.7984 4.5 59.6384 4.5C59.3984 4.5 59.2118 4.50667 59.0784 4.52C58.9451 4.52 58.7851 4.51333 58.5984 4.5C58.5984 4.67333 58.5984 4.78667 58.5984 4.84C58.5984 4.88 58.5984 4.92 58.5984 4.96C58.5984 5 58.5984 5.06 58.5984 5.14C58.5984 5.22 58.5984 5.37333 58.5984 5.6C58.6651 5.65333 58.7518 5.76 58.8584 5.92C58.9651 6.08 59.0718 6.21333 59.1784 6.32C59.2851 6.42667 59.3984 6.54667 59.5184 6.68C59.6384 6.8 59.7651 6.93333 59.8984 7.08C59.9918 7.17333 60.0718 7.26 60.1384 7.34C60.2051 7.42 60.2718 7.49333 60.3384 7.56ZM67.7184 9.6C67.7184 9.61333 67.7118 9.66 67.6984 9.74C67.6984 9.82 67.6784 9.92 67.6384 10.04C67.5984 10.1467 67.5384 10.26 67.4584 10.38C67.3918 10.5 67.2918 10.6 67.1584 10.68C67.0118 10.7733 66.8584 10.82 66.6984 10.82C66.4318 10.82 66.2118 10.7533 66.0384 10.62C65.8918 10.5133 65.7784 10.38 65.6984 10.22C65.4984 9.84667 65.4051 9.44 65.4184 9C65.4318 8.54667 65.4451 8.11333 65.4584 7.7V7.42C65.3118 7.43333 65.1651 7.44667 65.0184 7.46C64.8851 7.46 64.7518 7.46 64.6184 7.46H64.5584V9.28C64.5451 9.42667 64.5251 9.58 64.4984 9.74C64.4718 9.88667 64.4184 10.0333 64.3384 10.18C64.2451 10.3533 64.1318 10.48 63.9984 10.56C63.9051 10.6267 63.8251 10.68 63.7584 10.72C63.6918 10.76 63.5984 10.78 63.4784 10.78C63.2918 10.78 63.1051 10.7267 62.9184 10.62C62.7851 10.54 62.6784 10.44 62.5984 10.32C62.5184 10.2 62.4584 10.0867 62.4184 9.98C62.3784 9.87333 62.3518 9.78 62.3384 9.7C62.3251 9.60667 62.3184 9.56 62.3184 9.56V2.96C62.3051 2.89333 62.3051 2.74667 62.3184 2.52C62.3451 2.28 62.3984 2.08 62.4784 1.92C62.6118 1.64 62.8851 1.48 63.2984 1.44C63.5251 1.41333 63.7118 1.42667 63.8584 1.48C64.0051 1.53333 64.1318 1.62 64.2384 1.74C64.3318 1.84667 64.3918 1.95333 64.4184 2.06C64.4451 2.15333 64.4718 2.25333 64.4984 2.36C64.5384 2.49333 64.5584 2.63333 64.5584 2.78C64.5718 2.92667 64.5784 3.07333 64.5784 3.22C64.5651 3.27333 64.5584 3.35333 64.5584 3.46V5.22C64.6251 5.23333 64.7451 5.24667 64.9184 5.26C65.1051 5.26 65.2918 5.26667 65.4784 5.28V3.16C65.4651 3.01333 65.4584 2.87333 65.4584 2.74C65.4718 2.59333 65.4984 2.44667 65.5384 2.3C65.5918 2.1 65.7118 1.9 65.8984 1.7C66.1118 1.43333 66.4251 1.32667 66.8384 1.38C67.1851 1.43333 67.4251 1.60667 67.5584 1.9C67.6384 2.06 67.6851 2.25333 67.6984 2.48C67.7251 2.70667 67.7318 2.84667 67.7184 2.9V9.6ZM65.5584 12.14C66.1051 12.14 66.5451 12.2267 66.8784 12.4C67.2118 12.56 67.3784 12.7933 67.3784 13.1V15.78C67.4051 16.0867 67.4051 16.38 67.3784 16.66C67.3518 16.94 67.2384 17.1667 67.0384 17.34C66.8518 17.5133 66.6051 17.6 66.2984 17.6C66.2318 17.6 66.1118 17.5933 65.9384 17.58C65.7651 17.58 65.6451 17.5667 65.5784 17.54C65.4051 17.4867 65.2651 17.4067 65.1584 17.3C65.0651 17.1933 64.9918 17.0733 64.9384 16.94C64.8851 16.8067 64.8451 16.6667 64.8184 16.52C64.8051 16.36 64.7918 16.2067 64.7784 16.06C64.7784 16.0067 64.7718 15.9067 64.7584 15.76C64.7584 15.6 64.7584 15.44 64.7584 15.28C64.7584 15.1067 64.7518 14.9467 64.7384 14.8C64.7384 14.6533 64.7318 14.5533 64.7184 14.5C64.6784 14.4867 64.5651 14.4733 64.3784 14.46C64.2051 14.4467 63.8718 14.44 63.3784 14.44C62.9518 14.44 62.6851 14.4467 62.5784 14.46C62.4851 14.4733 62.4318 14.48 62.4184 14.48H55.1984L55.1784 14.46C55.1784 14.46 55.1318 14.4467 55.0384 14.42C54.9584 14.3933 54.8651 14.3533 54.7584 14.3C54.6518 14.2467 54.5451 14.1733 54.4384 14.08C54.3451 13.9867 54.2918 13.8667 54.2784 13.72C54.2118 13.2133 54.2984 12.8133 54.5384 12.52C54.6984 12.3333 54.8718 12.2267 55.0584 12.2C55.2451 12.16 55.3451 12.14 55.3584 12.14H65.5584Z" fill="#EBA184"/>
<path d="M76.2353 8.7C76.542 8.7 76.8953 8.70667 77.2953 8.72C77.6953 8.73333 78.122 8.74667 78.5753 8.76C78.5886 8.64 78.5953 8.52 78.5953 8.4C78.5953 8.28 78.5953 8.15333 78.5953 8.02C78.462 7.98 78.3153 7.92667 78.1553 7.86C77.822 7.72667 77.5086 7.57333 77.2153 7.4C76.922 7.22667 76.6686 7.02667 76.4553 6.8C76.242 6.57333 76.0686 6.30667 75.9353 6C75.8153 5.69333 75.7553 5.34 75.7553 4.94C75.7553 4.47333 75.822 4.06667 75.9553 3.72H75.9153C75.5953 3.72 75.3153 3.62 75.0753 3.42C74.8486 3.20667 74.7353 2.94667 74.7353 2.64C74.7353 2.34667 74.8486 2.1 75.0753 1.9C75.3153 1.68667 75.5953 1.58 75.9153 1.58H78.5553V0.92C78.5553 0.666666 78.6686 0.453333 78.8953 0.28C79.122 0.0933333 79.3953 0 79.7153 0C80.0353 0 80.3086 0.0933333 80.5353 0.28C80.7753 0.453333 80.8953 0.666666 80.8953 0.92V1.58H83.6553C83.9886 1.58 84.2686 1.68667 84.4953 1.9C84.7353 2.1 84.8553 2.34667 84.8553 2.64C84.8553 2.94667 84.7353 3.20667 84.4953 3.42C84.2686 3.62 83.9886 3.72 83.6553 3.72H83.6353C83.702 3.90667 83.7486 4.1 83.7753 4.3C83.8153 4.5 83.8353 4.71333 83.8353 4.94C83.8353 5.5 83.7086 5.97333 83.4553 6.36C83.2153 6.73333 82.862 7.08667 82.3953 7.42C82.0353 7.68667 81.6553 7.88667 81.2553 8.02V8.04C81.242 8.18667 81.2353 8.32 81.2353 8.44C81.2353 8.56 81.2286 8.68 81.2153 8.8C81.3753 8.8 81.5086 8.8 81.6153 8.8C81.722 8.78667 81.8353 8.78 81.9553 8.78C82.0753 8.76667 82.222 8.76 82.3953 8.76C82.5686 8.76 82.8086 8.76667 83.1153 8.78C83.3686 8.78 83.6153 8.78 83.8553 8.78C84.0953 8.78 84.3286 8.83333 84.5553 8.94C84.9286 9.11333 85.1153 9.40667 85.1153 9.82C85.1153 10.1533 84.9953 10.4533 84.7553 10.72C84.5686 10.92 84.3353 11.0333 84.0553 11.06C83.7886 11.0867 83.5353 11.0867 83.2953 11.06H76.2353C76.222 11.06 76.1686 11.06 76.0753 11.06C75.982 11.06 75.8686 11.0467 75.7353 11.02C75.6153 10.9933 75.4886 10.9533 75.3553 10.9C75.222 10.8333 75.1153 10.74 75.0353 10.62C74.8753 10.46 74.7953 10.2267 74.7953 9.92C74.7953 9.77333 74.8153 9.65333 74.8553 9.56C74.9086 9.45333 74.9686 9.35333 75.0353 9.26C75.182 9.08667 75.3753 8.96 75.6153 8.88C75.8553 8.78667 76.062 8.72667 76.2353 8.7ZM76.9153 14.6V14.58C76.902 14.58 76.8486 14.5667 76.7553 14.54C76.6753 14.5133 76.582 14.4733 76.4753 14.42C76.3686 14.3667 76.262 14.2933 76.1553 14.2C76.062 14.1067 76.0086 13.9867 75.9953 13.84C75.9286 13.32 76.0086 12.92 76.2353 12.64C76.3953 12.4533 76.5686 12.3467 76.7553 12.32C76.942 12.28 77.042 12.26 77.0553 12.26L87.2553 12.24C87.8153 12.24 88.2153 12.3533 88.4553 12.58C88.7086 12.7933 88.8486 13.14 88.8753 13.62V15.7C88.902 15.9933 88.902 16.2867 88.8753 16.58C88.8486 16.86 88.7353 17.0867 88.5353 17.26C88.3486 17.4333 88.102 17.52 87.7953 17.52C87.7286 17.52 87.6086 17.5133 87.4353 17.5C87.2753 17.5 87.162 17.4867 87.0953 17.46C86.9086 17.4067 86.762 17.3267 86.6553 17.22C86.562 17.1133 86.4886 16.9933 86.4353 16.86C86.382 16.7267 86.3486 16.5867 86.3353 16.44C86.322 16.28 86.3086 16.1267 86.2953 15.98C86.2953 15.9267 86.2886 15.8333 86.2753 15.7C86.2753 15.5667 86.2686 15.4333 86.2553 15.3C86.2553 15.1533 86.2486 15.02 86.2353 14.9C86.2353 14.7667 86.2286 14.6733 86.2153 14.62C86.1886 14.62 86.102 14.62 85.9553 14.62C85.8086 14.62 85.622 14.62 85.3953 14.62C85.182 14.62 84.942 14.62 84.6753 14.62C84.4086 14.6067 84.1553 14.6 83.9153 14.6H76.9153ZM86.4153 3.6C86.4153 3.45333 86.4153 3.28667 86.4153 3.1C86.4153 2.91333 86.422 2.73333 86.4353 2.56C86.462 2.37333 86.502 2.2 86.5553 2.04C86.6086 1.88 86.6753 1.76 86.7553 1.68C86.902 1.54667 87.0486 1.46667 87.1953 1.44C87.3553 1.4 87.5287 1.38 87.7153 1.38C87.942 1.38 88.142 1.44667 88.3153 1.58C88.502 1.7 88.6353 1.86 88.7153 2.06C88.822 2.34 88.882 2.62667 88.8953 2.92C88.9087 3.21333 88.922 3.50667 88.9353 3.8C88.9353 4.25333 88.9353 4.68 88.9353 5.08C88.9486 5.48 88.9553 5.87333 88.9553 6.26C89.222 6.26 89.4686 6.26667 89.6953 6.28C89.9353 6.28 90.1286 6.28667 90.2753 6.3C90.4486 6.31333 90.602 6.38 90.7353 6.5C90.882 6.62 90.9953 6.76667 91.0753 6.94C91.1553 7.1 91.1953 7.27333 91.1953 7.46C91.1953 7.64667 91.142 7.80667 91.0353 7.94C90.8486 8.19333 90.562 8.36 90.1753 8.44C89.802 8.50667 89.402 8.54 88.9753 8.54V9.18C88.9753 9.46 88.9553 9.68 88.9153 9.84C88.8753 9.98667 88.8286 10.1333 88.7753 10.28C88.762 10.32 88.7486 10.36 88.7353 10.4C88.722 10.44 88.702 10.4867 88.6753 10.54C88.582 10.7267 88.462 10.8667 88.3153 10.96C88.1686 11.0533 88.0086 11.1133 87.8353 11.14C87.6753 11.1533 87.5086 11.1467 87.3353 11.12C87.1486 11.0667 86.9887 10.9867 86.8553 10.88C86.7353 10.7733 86.642 10.64 86.5753 10.48C86.522 10.3067 86.482 10.1467 86.4553 10C86.4286 9.84 86.4153 9.70667 86.4153 9.6C86.4153 9.48 86.4153 9.41333 86.4153 9.4V3.6ZM80.1553 6.02C80.342 5.98 80.5153 5.94667 80.6753 5.92C80.8353 5.89333 80.9686 5.84667 81.0753 5.78C81.1953 5.7 81.282 5.6 81.3353 5.48C81.402 5.34667 81.4353 5.16667 81.4353 4.94C81.4353 4.51333 81.3153 4.21333 81.0753 4.04C80.8353 3.86667 80.5486 3.76 80.2153 3.72H79.1753C78.882 3.76 78.6353 3.86667 78.4353 4.04C78.2353 4.21333 78.1353 4.51333 78.1353 4.94C78.1353 5.26 78.1886 5.50667 78.2953 5.68C78.4153 5.85333 78.5686 5.97333 78.7553 6.04C78.9553 6.10667 79.1753 6.13333 79.4153 6.12C79.6553 6.09333 79.902 6.06 80.1553 6.02Z" fill="#EBA184"/>
<path d="M99.4019 1.8C100.215 2.26667 100.795 2.86667 101.142 3.6C101.315 3.96 101.429 4.36 101.482 4.8C101.535 5.24 101.549 5.73333 101.522 6.28C101.482 6.88 101.349 7.42 101.122 7.9C100.895 8.38 100.595 8.79333 100.222 9.14C99.8619 9.47333 99.4352 9.73333 98.9419 9.92C98.4485 10.0933 97.9219 10.18 97.3619 10.18H96.3419C96.2085 10.18 96.0752 10.18 95.9419 10.18C95.8085 10.1667 95.6685 10.1467 95.5219 10.12C95.3752 10.12 95.2352 10.1 95.1019 10.06C94.9685 10.02 94.8285 9.98667 94.6819 9.96C94.5352 9.89333 94.3885 9.82 94.2419 9.74C94.1085 9.66 93.9485 9.56667 93.7619 9.46C93.1485 9.06 92.7219 8.52 92.4819 7.84C92.3752 7.53333 92.2952 7.20667 92.2419 6.86C92.1885 6.51333 92.1619 6.17333 92.1619 5.84C92.1619 5.48 92.1885 5.13333 92.2419 4.8C92.3085 4.46667 92.4152 4.14667 92.5619 3.84C92.6685 3.52 92.8285 3.24 93.0419 3C93.2552 2.74667 93.4952 2.50667 93.7619 2.28C94.0019 2.08 94.2485 1.91333 94.5019 1.78C94.7552 1.63333 95.0352 1.52 95.3419 1.44C95.6085 1.33333 95.8952 1.26667 96.2019 1.24C96.5085 1.21333 96.8019 1.21333 97.0819 1.24C97.2285 1.28 97.3485 1.30667 97.4419 1.32C97.5485 1.32 97.6485 1.32 97.7419 1.32C97.8485 1.34667 97.9419 1.36667 98.0219 1.38C98.1152 1.38 98.2019 1.4 98.2819 1.44C98.3752 1.46667 98.4619 1.49333 98.5419 1.52C98.6352 1.53333 98.7219 1.56 98.8019 1.6C98.8819 1.62667 98.9752 1.66 99.0819 1.7C99.1885 1.74 99.2952 1.77333 99.4019 1.8ZM106.082 14.92C106.269 14.92 106.422 15 106.542 15.16C106.662 15.32 106.742 15.5133 106.782 15.74C106.809 16.0067 106.795 16.2267 106.742 16.4C106.689 16.56 106.609 16.7133 106.502 16.86C106.302 17.0333 106.129 17.14 105.982 17.18C105.915 17.18 105.855 17.1933 105.802 17.22C105.749 17.2467 105.675 17.26 105.582 17.26H95.8019C95.5219 17.26 95.2752 17.2533 95.0619 17.24C94.8619 17.2267 94.6819 17.18 94.5219 17.1C94.3752 17.02 94.2552 16.9 94.1619 16.74C94.0819 16.5933 94.0419 16.4467 94.0419 16.3V12.18C94.1219 11.8867 94.2552 11.6667 94.4419 11.52C94.5885 11.4267 94.7219 11.36 94.8419 11.32C94.9752 11.2667 95.1219 11.24 95.2819 11.24C95.3085 11.24 95.3885 11.2533 95.5219 11.28C95.6685 11.2933 95.7619 11.3 95.8019 11.3C95.8819 11.3267 95.9552 11.36 96.0219 11.4C96.1019 11.4267 96.1752 11.4867 96.2419 11.58C96.2685 11.6333 96.3019 11.6933 96.3419 11.76C96.3819 11.8133 96.4152 11.88 96.4419 11.96C96.4819 12.0533 96.5019 12.14 96.5019 12.22C96.5152 12.3 96.5352 12.38 96.5619 12.46V14.86H96.9619C97.0419 14.8733 97.1352 14.88 97.2419 14.88C97.3352 14.8933 97.4352 14.9 97.5419 14.9C97.6485 14.9 97.7685 14.9 97.9019 14.9C97.9819 14.9 98.1819 14.9 98.5019 14.9C98.8352 14.9 99.2285 14.9 99.6819 14.9C100.149 14.8867 100.655 14.88 101.202 14.88C101.749 14.88 102.269 14.88 102.762 14.88C103.269 14.88 103.722 14.8867 104.122 14.9C104.535 14.9 104.842 14.9 105.042 14.9H105.542C105.569 14.9 105.629 14.9067 105.722 14.92C105.815 14.92 105.935 14.92 106.082 14.92ZM99.1219 5.66C99.0952 5.51333 99.0685 5.38667 99.0419 5.28C99.0152 5.16 98.9885 5.04 98.9619 4.92C98.8952 4.81333 98.8352 4.70667 98.7819 4.6C98.7285 4.49333 98.6552 4.4 98.5619 4.32C98.4819 4.24 98.3885 4.17333 98.2819 4.12C98.1752 4.05333 98.0485 3.98667 97.9019 3.92C97.7285 3.88 97.5619 3.84667 97.4019 3.82C97.2419 3.78 97.0752 3.76 96.9019 3.76C96.7152 3.76 96.5352 3.78 96.3619 3.82C96.1885 3.84667 96.0285 3.88 95.8819 3.92C95.7219 4.01333 95.5685 4.10667 95.4219 4.2C95.2885 4.29333 95.1685 4.41333 95.0619 4.56C94.9285 4.66667 94.8285 4.80667 94.7619 4.98C94.6952 5.14 94.6285 5.33333 94.5619 5.56C94.5619 5.70667 94.5619 5.84667 94.5619 5.98C94.5619 6.11333 94.5752 6.25333 94.6019 6.4C94.6019 6.53333 94.6285 6.66667 94.6819 6.8C94.7352 6.93333 94.8019 7.05333 94.8819 7.16C94.9752 7.28 95.0752 7.38667 95.1819 7.48C95.2885 7.56 95.4019 7.64 95.5219 7.72C95.6685 7.8 95.8219 7.87333 95.9819 7.94C96.1419 7.99333 96.3352 8.03333 96.5619 8.06C96.7085 8.06 96.8485 8.06 96.9819 8.06C97.1152 8.04667 97.2552 8.02667 97.4019 8C97.6685 8 97.9285 7.92667 98.1819 7.78C98.2885 7.72667 98.3952 7.66 98.5019 7.58C98.6219 7.48667 98.7219 7.38667 98.8019 7.28C98.9752 7.04 99.0819 6.78 99.1219 6.5V5.66ZM106.662 9.74C106.662 9.87333 106.649 10.0067 106.622 10.14C106.595 10.2733 106.569 10.4133 106.542 10.56C106.422 10.9867 106.142 11.2467 105.702 11.34C105.275 11.4333 104.929 11.34 104.662 11.06C104.409 10.78 104.255 10.4467 104.202 10.06C104.175 9.95333 104.155 9.84667 104.142 9.74C104.142 9.62 104.142 9.50667 104.142 9.4V8.72L104.202 3.56C104.202 3.37333 104.195 3.17333 104.182 2.96C104.182 2.73333 104.195 2.52 104.222 2.32C104.262 2.10667 104.335 1.91333 104.442 1.74C104.549 1.56667 104.715 1.42667 104.942 1.32C105.049 1.25333 105.162 1.22 105.282 1.22C105.415 1.20667 105.555 1.21333 105.702 1.24C106.009 1.28 106.235 1.40667 106.382 1.62C106.542 1.83333 106.635 2.08 106.662 2.36V9.74Z" fill="#EBA184"/>
</svg>
