<svg width="111" height="17" viewBox="0 0 111 17" fill="none" xmlns="http://www.w3.org/2000/svg">
<path d="M7.14 0.9C7.52667 1.12667 7.86 1.37333 8.14 1.64C8.43333 1.90667 8.66 2.22 8.82 2.58C9.16667 3.36667 9.29333 4.24667 9.2 5.22C9.16 6.52667 8.78667 7.5 8.08 8.14C7.45333 8.76667 6.45333 9.08 5.08 9.08C4.89333 9.08 4.72 9.08667 4.56 9.1C4.4 9.1 4.25333 9.11333 4.12 9.14C3.97333 9.14 3.82667 9.13333 3.68 9.12C3.54667 9.09333 3.41333 9.08 3.28 9.08C3.14667 9.05333 3.01333 9.02667 2.88 9C2.74667 8.97333 2.61333 8.93333 2.48 8.88C2.18667 8.77333 1.89333 8.62 1.6 8.42C0.946667 8.00667 0.52 7.47333 0.32 6.82C0.106667 6.22 0 5.54667 0 4.8C0 4.46667 0.0266667 4.13333 0.08 3.8C0.133333 3.46667 0.226667 3.15333 0.36 2.86C0.466667 2.54 0.62 2.26 0.82 2.02C1.03333 1.76667 1.29333 1.51333 1.6 1.26C2.02667 0.9 2.53333 0.646667 3.12 0.5C3.38667 0.406667 3.66 0.346667 3.94 0.319999C4.23333 0.293333 4.52 0.293333 4.8 0.319999C4.94667 0.319999 5.07333 0.333333 5.18 0.36C5.28667 0.373333 5.39333 0.38 5.5 0.38C5.68667 0.38 5.86 0.42 6.02 0.5C6.1 0.526667 6.18667 0.553333 6.28 0.58C6.38667 0.593333 6.47333 0.613333 6.54 0.64C6.62 0.666666 6.71333 0.706666 6.82 0.76C6.92667 0.8 7.03333 0.846667 7.14 0.9ZM1.22 13.44C1.22 13.1333 1.26 12.8667 1.34 12.64C1.42 12.4 1.54 12.1733 1.7 11.96C1.88667 11.7733 2.08667 11.6067 2.3 11.46C2.51333 11.3 2.77333 11.16 3.08 11.04C3.36 10.9067 3.67333 10.8067 4.02 10.74C4.36667 10.66 4.74 10.5867 5.14 10.52C5.52667 10.4933 5.92667 10.4733 6.34 10.46C6.76667 10.4333 7.21333 10.42 7.68 10.42C8.12 10.42 8.55333 10.4333 8.98 10.46C9.40667 10.4733 9.81333 10.4933 10.2 10.52C10.6 10.5467 10.9667 10.6 11.3 10.68C11.6467 10.7467 11.9667 10.8333 12.26 10.94C12.54 11.0467 12.7933 11.18 13.02 11.34C13.2467 11.4867 13.4533 11.6533 13.64 11.84C13.9467 12.1867 14.1 12.72 14.1 13.44C14.1 14.0933 13.9467 14.62 13.64 15.02C13.2533 15.4067 12.7933 15.7067 12.26 15.92C11.9667 16.0267 11.6467 16.1133 11.3 16.18C10.9667 16.26 10.6 16.3133 10.2 16.34C9.81333 16.3667 9.40667 16.3867 8.98 16.4C8.55333 16.4267 8.12 16.44 7.68 16.44C7.21333 16.44 6.76667 16.4267 6.34 16.4C5.92667 16.3867 5.52667 16.3667 5.14 16.34C4.74 16.3133 4.36667 16.26 4.02 16.18C3.67333 16.1133 3.36 16.0267 3.08 15.92C2.77333 15.8133 2.51333 15.6867 2.3 15.54C2.08667 15.38 1.88667 15.2067 1.7 15.02C1.38 14.6067 1.22 14.08 1.22 13.44ZM6.86 5.46C6.86 5.31333 6.86 5.17333 6.86 5.04C6.86 4.89333 6.84667 4.76667 6.82 4.66C6.82 4.51333 6.8 4.38 6.76 4.26C6.73333 4.14 6.69333 4.02667 6.64 3.92C6.61333 3.81333 6.56667 3.72 6.5 3.64C6.43333 3.54667 6.36 3.44667 6.28 3.34C6.12 3.18 5.89333 3.05333 5.6 2.96C5.32 2.85333 5 2.8 4.64 2.8C4.45333 2.8 4.28 2.81333 4.12 2.84C3.96 2.86667 3.8 2.90667 3.64 2.96C3.49333 3.01333 3.34667 3.09333 3.2 3.2C3.06667 3.30667 2.92667 3.42667 2.78 3.56C2.58 3.82667 2.44 4.16 2.36 4.56C2.32 4.8 2.32 5.06667 2.36 5.36C2.4 5.50667 2.44667 5.64667 2.5 5.78C2.55333 5.91333 2.61333 6.03333 2.68 6.14C2.73333 6.24667 2.81333 6.35333 2.92 6.46C3.02667 6.55333 3.14667 6.64 3.28 6.72C3.44 6.78667 3.6 6.84667 3.76 6.9C3.93333 6.95333 4.12667 6.98 4.34 6.98C4.59333 7.02 4.86 7.02 5.14 6.98C5.27333 6.98 5.4 6.96 5.52 6.92C5.65333 6.86667 5.78667 6.81333 5.92 6.76C6.02667 6.70667 6.12667 6.64 6.22 6.56C6.32667 6.48 6.42 6.37333 6.5 6.24C6.56667 6.13333 6.63333 6.02 6.7 5.9C6.78 5.76667 6.83333 5.62 6.86 5.46ZM11.52 13.44C11.52 13.3333 11.4933 13.2333 11.44 13.14C11.3867 13.0333 11.2933 12.9533 11.16 12.9C11.04 12.8467 10.9 12.7933 10.74 12.74C10.5933 12.6867 10.4267 12.6333 10.24 12.58C10.0533 12.5533 9.86667 12.5333 9.68 12.52C9.49333 12.4933 9.28667 12.48 9.06 12.48C8.80667 12.48 8.56667 12.4733 8.34 12.46C8.12667 12.4333 7.90667 12.42 7.68 12.42C7.42667 12.42 7.18667 12.4333 6.96 12.46C6.74667 12.4733 6.54 12.48 6.34 12.48C6.1 12.48 5.88667 12.4933 5.7 12.52C5.51333 12.5333 5.32667 12.5533 5.14 12.58C4.95333 12.6333 4.78667 12.6867 4.64 12.74C4.49333 12.7933 4.36 12.8467 4.24 12.9C4.13333 12.9533 4.05333 13.0333 4 13.14C3.94667 13.2333 3.92 13.3333 3.92 13.44C3.92 13.6533 4.02667 13.8067 4.24 13.9C4.46667 14.0733 4.76667 14.18 5.14 14.22C5.32667 14.2467 5.51333 14.2733 5.7 14.3C5.88667 14.3133 6.1 14.32 6.34 14.32C6.54 14.3467 6.74667 14.3667 6.96 14.38C7.18667 14.38 7.42667 14.38 7.68 14.38H9.06C9.28667 14.38 9.49333 14.38 9.68 14.38C9.86667 14.3667 10.0533 14.3467 10.24 14.32C10.6267 14.28 10.9333 14.1733 11.16 14C11.4 13.9067 11.52 13.72 11.52 13.44ZM13.96 2.44H14.68C14.76 2.44 14.84 2.44 14.92 2.44C15 2.44 15.0667 2.45333 15.12 2.48H15.44C15.6933 2.54667 15.8867 2.64 16.02 2.76C16.0733 2.78667 16.1067 2.83333 16.12 2.9C16.1467 2.96667 16.16 3.04 16.16 3.12C16.1867 3.17333 16.2 3.24667 16.2 3.34C16.2133 3.42 16.22 3.51333 16.22 3.62C16.22 3.72667 16.2133 3.81333 16.2 3.88C16.2 3.94667 16.1733 4.01333 16.12 4.08C16.0267 4.21333 15.9267 4.32 15.82 4.4C15.7133 4.46667 15.5867 4.5 15.44 4.5C15.28 4.52667 15.1067 4.54667 14.92 4.56C14.7467 4.56 14.5667 4.57333 14.38 4.6H13.96V5.78H15.44C15.6667 5.84667 15.8333 5.93333 15.94 6.04C16.0067 6.06667 16.0533 6.11333 16.08 6.18C16.1067 6.23333 16.1333 6.28667 16.16 6.34C16.16 6.42 16.1667 6.5 16.18 6.58C16.2067 6.66 16.22 6.75333 16.22 6.86C16.22 6.96667 16.2133 7.06 16.2 7.14C16.2 7.22 16.1733 7.29333 16.12 7.36C15.9333 7.62667 15.7067 7.78 15.44 7.82C15.28 7.82 15.1067 7.83333 14.92 7.86C14.7467 7.87333 14.5667 7.88 14.38 7.88H13.96V8.14C13.9333 8.22 13.9133 8.29333 13.9 8.36C13.9 8.42667 13.9 8.49333 13.9 8.56C13.8733 8.64 13.8467 8.72 13.82 8.8C13.7933 8.88 13.7667 8.96 13.74 9.04C13.6867 9.10667 13.6333 9.17333 13.58 9.24C13.5267 9.30667 13.46 9.36667 13.38 9.42C13.3 9.47333 13.2067 9.52 13.1 9.56C12.9933 9.6 12.8667 9.62 12.72 9.62C12.6133 9.62 12.5133 9.61333 12.42 9.6C12.3267 9.57333 12.2533 9.53333 12.2 9.48C12.04 9.41333 11.9333 9.31333 11.88 9.18C11.8267 9.11333 11.7867 9.05333 11.76 9C11.7333 8.94667 11.7067 8.89333 11.68 8.84C11.6533 8.77333 11.6333 8.70667 11.62 8.64C11.62 8.56 11.6 8.48667 11.56 8.42V1.96C11.56 1.93333 11.56 1.88667 11.56 1.82C11.5733 1.74 11.6 1.63333 11.64 1.5C11.64 1.24667 11.6867 1.04667 11.78 0.9C11.8333 0.766667 11.92 0.666667 12.04 0.599999C12.1733 0.52 12.3333 0.46 12.52 0.420001C12.7867 0.393333 13.0067 0.413333 13.18 0.48C13.3533 0.533333 13.5067 0.62 13.64 0.74C13.6933 0.873333 13.7467 0.96 13.8 1C13.8267 1.02667 13.84 1.06667 13.84 1.12C13.8533 1.16 13.8733 1.20667 13.9 1.26C13.9 1.32667 13.9067 1.38667 13.92 1.44C13.9467 1.48 13.96 1.51333 13.96 1.54V2.44Z" fill="white"/>
<path d="M23.9959 13.94C23.9826 13.94 23.9293 13.9267 23.8359 13.9C23.7559 13.8733 23.6626 13.8333 23.5559 13.78C23.4493 13.7267 23.3493 13.6533 23.2559 13.56C23.1626 13.4667 23.1093 13.3467 23.0959 13.2C23.0159 12.7067 23.0959 12.3067 23.3359 12C23.4959 11.8133 23.6693 11.7067 23.8559 11.68C24.0426 11.64 24.1426 11.62 24.1559 11.62H25.7159C25.7026 11.5933 25.6959 11.54 25.6959 11.46C25.6693 11.1933 25.6626 10.9267 25.6759 10.66C25.7026 10.3933 25.7159 10.1267 25.7159 9.86L22.9759 9.74C22.7626 9.71333 22.5893 9.68667 22.4559 9.66C22.3359 9.62 22.1893 9.52 22.0159 9.36C21.9226 9.28 21.8559 9.17333 21.8159 9.04C21.7759 8.90667 21.7559 8.76667 21.7559 8.62C21.7559 8.34 21.8426 8.11333 22.0159 7.94C22.1093 7.83333 22.2359 7.75333 22.3959 7.7C22.5559 7.64667 22.7093 7.60667 22.8559 7.58C23.0026 7.55333 23.1293 7.54 23.2359 7.54C23.3559 7.54 23.4226 7.54 23.4359 7.54H34.8759C35.0759 7.54 35.2759 7.54 35.4759 7.54C35.6759 7.54 35.8693 7.54667 36.0559 7.56C36.2426 7.57333 36.4226 7.6 36.5959 7.64C36.7826 7.68 36.9493 7.76667 37.0959 7.9C37.2426 8.00667 37.3226 8.12667 37.3359 8.26C37.3626 8.39333 37.3759 8.54 37.3759 8.7C37.3759 8.9 37.3159 9.08 37.1959 9.24C37.0893 9.4 36.9359 9.51333 36.7359 9.58C36.4693 9.68667 36.1759 9.75333 35.8559 9.78C35.5493 9.79333 35.2559 9.80667 34.9759 9.82C34.8293 9.83333 34.6493 9.84 34.4359 9.84C34.2226 9.84 33.9893 9.84667 33.7359 9.86C33.7093 10.1533 33.6959 10.4467 33.6959 10.74C33.7093 11.02 33.7159 11.3133 33.7159 11.62H34.0759C34.0893 11.62 34.1026 11.62 34.1159 11.62C34.1293 11.6067 34.1493 11.6 34.1759 11.6C34.7226 11.6 35.1426 11.6867 35.4359 11.86C35.7426 12.0333 35.8959 12.2733 35.8959 12.58V13.94C35.8959 14.0067 35.8959 14.08 35.8959 14.16C35.9093 14.2267 35.9159 14.2933 35.9159 14.36C35.9159 14.4267 35.9159 14.5267 35.9159 14.66C35.9159 14.7933 35.9159 14.9333 35.9159 15.08C35.9159 15.2133 35.9159 15.3467 35.9159 15.48C35.9159 15.6133 35.9093 15.72 35.8959 15.8C35.8693 16.08 35.7559 16.3067 35.5559 16.48C35.3693 16.6533 35.1226 16.74 34.8159 16.74C34.6693 16.74 34.5293 16.72 34.3959 16.68C34.2093 16.6267 34.0626 16.5467 33.9559 16.44C33.8626 16.3333 33.7893 16.2133 33.7359 16.08C33.6959 15.9467 33.6626 15.8067 33.6359 15.66C33.6226 15.5 33.6159 15.3467 33.6159 15.2C33.6159 15.1467 33.6093 15.06 33.5959 14.94C33.5959 14.82 33.5893 14.7 33.5759 14.58C33.5759 14.4467 33.5693 14.3267 33.5559 14.22C33.5559 14.1133 33.5493 14.0333 33.5359 13.98C33.4959 13.9667 33.3826 13.9533 33.1959 13.94C33.0226 13.9267 32.6893 13.92 32.1959 13.92C31.9693 13.92 31.7693 13.9267 31.5959 13.94C31.4226 13.94 31.2626 13.94 31.1159 13.94H23.9959ZM29.6159 6.6C28.6559 6.6 27.7559 6.56667 26.9159 6.5C26.0893 6.43333 25.3693 6.28667 24.7559 6.06C24.1559 5.82 23.6826 5.48667 23.3359 5.06C22.9893 4.62 22.8159 4.03333 22.8159 3.3C22.8159 2.63333 22.9893 2.08667 23.3359 1.66C23.6826 1.23333 24.1559 0.9 24.7559 0.66C25.3693 0.406667 26.0893 0.233333 26.9159 0.139999C27.7559 0.0466665 28.6559 0 29.6159 0C30.5759 0 31.4693 0.0333333 32.2959 0.0999999C33.1359 0.166667 33.8559 0.313333 34.4559 0.54C35.0693 0.766666 35.5493 1.1 35.8959 1.54C36.2426 1.96667 36.4159 2.55333 36.4159 3.3C36.4159 4.03333 36.2426 4.62 35.8959 5.06C35.5493 5.48667 35.0693 5.82 34.4559 6.06C33.8559 6.28667 33.1359 6.43333 32.2959 6.5C31.4693 6.56667 30.5759 6.6 29.6159 6.6ZM29.6159 2.24C29.1226 2.24 28.6293 2.24667 28.1359 2.26C27.6559 2.27333 27.2226 2.32 26.8359 2.4C26.4493 2.46667 26.1359 2.57333 25.8959 2.72C25.6559 2.85333 25.5359 3.04667 25.5359 3.3C25.5359 3.75333 25.8959 4.06 26.6159 4.22C27.3493 4.36667 28.3493 4.42667 29.6159 4.4C30.1093 4.4 30.5959 4.4 31.0759 4.4C31.5693 4.38667 32.0093 4.35333 32.3959 4.3C32.7826 4.23333 33.0959 4.12667 33.3359 3.98C33.5759 3.82 33.6959 3.59333 33.6959 3.3C33.6959 3.04667 33.5759 2.85333 33.3359 2.72C33.0959 2.57333 32.7826 2.46667 32.3959 2.4C32.0093 2.32 31.5693 2.27333 31.0759 2.26C30.5959 2.24667 30.1093 2.24 29.6159 2.24ZM28.4759 9.9C28.5026 10.1933 28.4959 10.4667 28.4559 10.72C28.4293 10.9733 28.4159 11.2733 28.4159 11.62H30.9959V11.5C30.9693 11.3 30.9559 11.0533 30.9559 10.76C30.9693 10.4533 30.9826 10.1667 30.9959 9.9H28.4759Z" fill="white"/>
<path d="M57.797 15.8C57.7037 15.9067 57.597 15.9867 57.477 16.04C57.357 16.0933 57.2304 16.1267 57.097 16.14C56.9637 16.1533 56.8237 16.1533 56.677 16.14C56.5437 16.14 56.417 16.1333 56.297 16.12C56.1904 16.1067 56.0837 16.08 55.977 16.04C55.8704 16.0133 55.777 15.96 55.697 15.88C55.6837 15.88 55.677 15.8733 55.677 15.86C55.517 15.7 55.4304 15.5267 55.417 15.34C55.4037 15.14 55.397 14.9333 55.397 14.72V1.88C55.397 1.72 55.4037 1.56 55.417 1.4C55.4304 1.24 55.4637 1.1 55.517 0.98C55.5704 0.86 55.657 0.766667 55.777 0.700001C55.897 0.62 56.057 0.58 56.257 0.58C56.457 0.58 56.6837 0.573333 56.937 0.56C57.1904 0.533334 57.4104 0.58 57.597 0.700001C57.7437 0.793333 57.837 0.893333 57.877 1C57.917 1.10667 57.9504 1.23333 57.977 1.38C58.0304 1.56667 58.0504 1.80667 58.037 2.1C58.037 2.38 58.037 2.61333 58.037 2.8V12.66C58.037 13.0733 58.0304 13.4733 58.017 13.86C58.0037 14.2333 58.0037 14.6267 58.017 15.04C58.0304 15.3333 57.957 15.5867 57.797 15.8Z" fill="white"/>
<path d="M88.9175 7.12C89.1442 7.13333 89.3708 7.16667 89.5975 7.22C89.8375 7.27333 90.0508 7.37333 90.2375 7.52C90.4242 7.66667 90.5175 7.86 90.5175 8.1C90.5175 8.23333 90.4908 8.38 90.4375 8.54C90.3975 8.7 90.3375 8.81333 90.2575 8.88C90.1508 8.98667 90.0108 9.06667 89.8375 9.12C89.6775 9.16 89.5175 9.19333 89.3575 9.22C89.1975 9.23333 89.0575 9.24 88.9375 9.24C88.8308 9.24 88.7708 9.24 88.7575 9.24L78.0975 9.26C77.7908 9.27333 77.4708 9.27333 77.1375 9.26C76.8175 9.24667 76.5442 9.14667 76.3175 8.96C76.0108 8.73333 75.8575 8.47333 75.8575 8.18C75.8575 7.99333 75.9175 7.81333 76.0375 7.64C76.1708 7.45333 76.3442 7.32667 76.5575 7.26C76.8375 7.16667 77.1242 7.12667 77.4175 7.14C77.7108 7.14 78.0108 7.13333 78.3175 7.12C78.6375 7.10667 78.9242 7.1 79.1775 7.1C79.4308 7.1 79.6708 7.1 79.8975 7.1C80.1375 7.1 80.3842 7.10667 80.6375 7.12C80.8908 7.12 81.1842 7.12 81.5175 7.12V6.02C80.9042 6.00667 80.2708 5.99333 79.6175 5.98C78.9775 5.96667 78.3575 5.96 77.7575 5.96C77.4375 5.96 77.1842 5.91333 76.9975 5.82C76.8242 5.71333 76.6908 5.57333 76.5975 5.4C76.5175 5.21333 76.4708 5 76.4575 4.76C76.4442 4.50667 76.4375 4.24 76.4375 3.96V1.98C76.4375 1.35333 76.5842 0.9 76.8775 0.62C77.1708 0.34 77.6242 0.2 78.2375 0.2H87.5375C87.8042 0.2 88.0575 0.213333 88.2975 0.24C88.5375 0.253334 88.7908 0.313334 89.0575 0.420001C89.2708 0.513333 89.4375 0.66 89.5575 0.86C89.6775 1.04667 89.7308 1.25333 89.7175 1.48C89.6908 1.70667 89.6108 1.90667 89.4775 2.08C89.3575 2.24 89.1842 2.34667 88.9575 2.4C88.6908 2.46667 88.3308 2.5 87.8775 2.5C87.7042 2.5 87.5642 2.5 87.4575 2.5C87.3508 2.48667 87.2908 2.48 87.2775 2.48H85.4375C84.5708 2.48 83.7108 2.48 82.8575 2.48C82.0042 2.48 81.1508 2.46 80.2975 2.42C80.1375 2.40667 79.9708 2.4 79.7975 2.4C79.6375 2.4 79.4842 2.42667 79.3375 2.48C79.2575 2.50667 79.1975 2.56667 79.1575 2.66C79.1308 2.74 79.1108 2.84 79.0975 2.96C79.0975 3.08 79.0975 3.20667 79.0975 3.34C79.1108 3.46 79.1308 3.56 79.1575 3.64C79.3442 3.66667 79.5308 3.68667 79.7175 3.7C79.9042 3.7 80.0908 3.70667 80.2775 3.72L87.5175 3.7C87.6908 3.7 87.8908 3.71333 88.1175 3.74C88.3442 3.75333 88.5575 3.79333 88.7575 3.86C88.9708 3.91333 89.1508 4 89.2975 4.12C89.4575 4.22667 89.5575 4.37333 89.5975 4.56C89.6642 4.82667 89.6508 5.05333 89.5575 5.24C89.4775 5.42667 89.3508 5.57333 89.1775 5.68C89.0175 5.78667 88.8308 5.86667 88.6175 5.92C88.4042 5.97333 88.1975 6 87.9975 6C87.8775 6 87.6708 6.00667 87.3775 6.02C87.0842 6.02 86.7575 6.02667 86.3975 6.04C86.0375 6.04 85.6708 6.04 85.2975 6.04C84.9242 6.04 84.5975 6.04 84.3175 6.04C84.3308 6.22667 84.3375 6.41333 84.3375 6.6C84.3508 6.78667 84.3575 6.96 84.3575 7.12C84.7308 7.12 85.1242 7.12 85.5375 7.12C85.9508 7.10667 86.3575 7.1 86.7575 7.1C87.1708 7.1 87.5642 7.1 87.9375 7.1C88.3108 7.1 88.6375 7.10667 88.9175 7.12ZM89.0175 15.02C89.2308 15.0467 89.4175 15.1 89.5775 15.18C89.7375 15.26 89.8508 15.4067 89.9175 15.62C90.0775 16.1 89.9042 16.44 89.3975 16.64C89.2375 16.7067 89.0775 16.7467 88.9175 16.76C88.7575 16.7733 88.6042 16.78 88.4575 16.78H79.1575C78.8908 16.78 78.6108 16.7733 78.3175 16.76C78.0375 16.76 77.7508 16.7533 77.4575 16.74C77.1775 16.7267 76.9442 16.6267 76.7575 16.44C76.5708 16.2533 76.4642 16.0067 76.4375 15.7L76.3775 14.26C76.3642 14.1133 76.3642 13.9267 76.3775 13.7C76.3908 13.46 76.4575 13.2733 76.5775 13.14C76.7642 12.94 77.0108 12.8133 77.3175 12.76C77.6375 12.7067 77.9442 12.68 78.2375 12.68C78.4242 12.68 78.7242 12.68 79.1375 12.68C79.5508 12.68 80.1175 12.6867 80.8375 12.7C81.5575 12.7 82.4575 12.7 83.5375 12.7C84.6175 12.7 85.9175 12.7 87.4375 12.7V11.92H77.7975C77.6642 11.92 77.5442 11.92 77.4375 11.92C77.3308 11.92 77.2242 11.9067 77.1175 11.88C76.9975 11.8533 76.8908 11.8267 76.7975 11.8C76.7042 11.7733 76.6242 11.7067 76.5575 11.6C76.3708 11.3067 76.3242 11.0067 76.4175 10.7C76.4575 10.5667 76.5375 10.4667 76.6575 10.4C76.7908 10.32 76.9308 10.26 77.0775 10.22C77.2375 10.18 77.3975 10.1533 77.5575 10.14C77.7308 10.1267 77.8908 10.12 78.0375 10.12H87.8375C88.5175 10.12 89.0042 10.2333 89.2975 10.46C89.5908 10.6867 89.7375 11.0333 89.7375 11.5V13.08C89.7375 13.2667 89.6908 13.4533 89.5975 13.64C89.5175 13.8133 89.3708 13.96 89.1575 14.08C88.9842 14.1867 88.8108 14.2467 88.6375 14.26C88.4642 14.26 88.2908 14.26 88.1175 14.26H78.8375V15.02H89.0175Z" fill="white"/>
<path d="M109.386 7.56C109.613 7.57333 109.84 7.60667 110.066 7.66C110.306 7.71333 110.52 7.81333 110.706 7.96C110.893 8.10667 110.986 8.31333 110.986 8.58C110.986 8.71333 110.96 8.86 110.906 9.02C110.866 9.18 110.806 9.29333 110.726 9.36C110.62 9.46667 110.48 9.54667 110.306 9.6C110.146 9.64 109.986 9.67333 109.826 9.7C109.666 9.71333 109.526 9.72 109.406 9.72C109.3 9.72 109.24 9.72 109.226 9.72L98.5663 9.74C98.2596 9.75333 97.9396 9.75333 97.6062 9.74C97.2862 9.72667 97.0129 9.62667 96.7862 9.44C96.4796 9.21333 96.3262 8.95333 96.3262 8.66C96.3262 8.47333 96.3862 8.28667 96.5062 8.1C96.6396 7.9 96.8129 7.76667 97.0263 7.7C97.3063 7.60667 97.5929 7.56667 97.8863 7.58C98.1796 7.58 98.4796 7.57333 98.7862 7.56C99.1062 7.54667 99.3796 7.54 99.6062 7.54C99.8462 7.54 100.073 7.54 100.286 7.54C100.513 7.54 100.746 7.54667 100.986 7.56C101.226 7.56 101.513 7.56 101.846 7.56V6.6C101.74 6.61333 101.626 6.62 101.506 6.62C101.4 6.62 101.293 6.62 101.186 6.62C100.546 6.60667 99.9129 6.60667 99.2862 6.62C99.0062 6.62 98.7196 6.6 98.4262 6.56C98.1462 6.52 97.8929 6.41333 97.6663 6.24C97.5196 6.12 97.3996 5.97333 97.3063 5.8C97.2263 5.61333 97.1663 5.43333 97.1263 5.26C97.0863 5.07333 97.0596 4.91333 97.0462 4.78C97.0329 4.64667 97.0263 4.57333 97.0263 4.56V1.36C97.0263 1.10667 97.0863 0.86 97.2063 0.62C97.3396 0.366667 97.5529 0.22 97.8463 0.18C97.9796 0.166667 98.1262 0.173333 98.2862 0.2C98.4462 0.213333 98.5929 0.253333 98.7262 0.319999C98.8729 0.373333 98.9929 0.46 99.0863 0.58C99.1929 0.686667 99.2596 0.82 99.2862 0.98C99.3129 1.1 99.3129 1.24 99.2862 1.4C99.2729 1.54667 99.2929 1.68 99.3463 1.8C99.3729 1.86667 99.4396 1.9 99.5462 1.9C99.6529 1.88667 99.7396 1.88667 99.8063 1.9C100.113 1.92667 100.42 1.93333 100.726 1.92C101.046 1.89333 101.366 1.88 101.686 1.88H107.206C107.326 1.88 107.42 1.88667 107.486 1.9C107.633 1.91333 107.74 1.91333 107.806 1.9C107.873 1.88667 107.973 1.86667 108.106 1.84C108.133 1.73333 108.146 1.62667 108.146 1.52C108.146 1.41333 108.146 1.30667 108.146 1.2C108.16 0.96 108.213 0.746667 108.306 0.56C108.4 0.36 108.566 0.233334 108.806 0.18C109.273 0.0866663 109.646 0.12 109.926 0.28C110.206 0.44 110.34 0.76 110.326 1.24C110.313 1.84 110.313 2.49333 110.326 3.2C110.353 3.90667 110.34 4.56667 110.286 5.18C110.26 5.36667 110.22 5.52 110.166 5.64C110.113 5.76 110.033 5.9 109.926 6.06C109.82 6.20667 109.68 6.32 109.506 6.4C109.333 6.46667 109.146 6.51333 108.946 6.54C108.746 6.56667 108.546 6.58 108.346 6.58C108.146 6.58 107.966 6.58 107.806 6.58C107.593 6.59333 107.406 6.6 107.246 6.6C107.1 6.6 106.96 6.6 106.826 6.6C106.693 6.6 106.546 6.6 106.386 6.6C106.24 6.58667 106.06 6.58 105.846 6.58C105.62 6.58 105.413 6.58667 105.226 6.6C105.04 6.6 104.853 6.6 104.666 6.6C104.68 6.74667 104.686 6.90667 104.686 7.08C104.686 7.25333 104.686 7.41333 104.686 7.56C105.06 7.56 105.46 7.56 105.886 7.56C106.313 7.54667 106.74 7.54 107.166 7.54C107.593 7.54 108 7.54 108.386 7.54C108.773 7.54 109.106 7.54667 109.386 7.56ZM97.3262 16.14C97.3129 16.14 97.2929 16.1267 97.2663 16.1C97.1329 15.9933 97.0396 15.8467 96.9863 15.66C96.9463 15.4733 96.9262 15.3067 96.9262 15.16C96.9129 14.92 96.8929 14.68 96.8662 14.44C96.8529 14.2 96.8463 13.9667 96.8463 13.74C96.8463 13.3933 96.8463 13.08 96.8463 12.8C96.8463 12.52 96.8796 12.2133 96.9463 11.88C96.9863 11.6667 97.0529 11.5 97.1462 11.38C97.2396 11.2467 97.3863 11.14 97.5863 11.06C97.9596 10.9133 98.3329 10.84 98.7063 10.84H108.126C108.38 10.8533 108.64 10.8733 108.906 10.9C109.173 10.9267 109.426 10.9933 109.666 11.1C109.933 11.2067 110.106 11.36 110.186 11.56C110.28 11.7467 110.34 11.9733 110.366 12.24C110.38 12.4667 110.386 12.7267 110.386 13.02C110.4 13.3133 110.4 13.6133 110.386 13.92C110.373 14.2133 110.353 14.5067 110.326 14.8C110.3 15.0933 110.253 15.36 110.186 15.6C110.146 15.7467 110.1 15.8733 110.046 15.98C109.993 16.1 109.886 16.1867 109.726 16.24C109.58 16.2933 109.426 16.3267 109.266 16.34C109.12 16.3533 108.973 16.36 108.826 16.36L98.4062 16.32C98.2329 16.3067 98.0463 16.3 97.8463 16.3C97.6463 16.3 97.4729 16.2467 97.3262 16.14ZM99.2262 13.86C99.2262 13.9267 99.2262 13.9933 99.2262 14.06C99.2396 14.1267 99.2663 14.1733 99.3063 14.2C99.3329 14.2267 99.3729 14.2467 99.4262 14.26C99.4929 14.26 99.5596 14.26 99.6263 14.26C99.6929 14.26 99.7729 14.2533 99.8662 14.24H106.126C106.313 14.2533 106.493 14.2667 106.666 14.28C106.813 14.2933 106.966 14.3 107.126 14.3C107.286 14.3 107.433 14.2867 107.566 14.26C107.7 14.2467 107.78 14.2067 107.806 14.14C107.833 14.0733 107.853 13.98 107.866 13.86C107.88 13.7533 107.886 13.6333 107.886 13.5C107.886 13.3533 107.846 13.2267 107.766 13.12C107.673 13.0133 107.54 12.96 107.366 12.96C107.206 12.9467 107.06 12.9467 106.926 12.96H101.366C101.073 12.9333 100.786 12.9267 100.506 12.94C100.226 12.94 99.9396 12.9467 99.6462 12.96C99.5396 12.96 99.4529 12.9667 99.3863 12.98C99.3329 12.98 99.2929 13.04 99.2663 13.16C99.2396 13.2533 99.2262 13.3467 99.2262 13.44C99.2262 13.52 99.2262 13.6 99.2262 13.68C99.2396 13.7067 99.2396 13.7333 99.2262 13.76C99.2262 13.7867 99.2262 13.82 99.2262 13.86ZM99.3463 4.44C99.3729 4.56 99.4329 4.64667 99.5263 4.7C99.6329 4.74 99.7462 4.76667 99.8662 4.78C99.9996 4.79333 100.133 4.8 100.266 4.8C100.4 4.78667 100.506 4.78 100.586 4.78C100.96 4.78 101.326 4.78667 101.686 4.8C102.06 4.8 102.426 4.8 102.786 4.8C103.04 4.8 103.26 4.8 103.446 4.8C103.633 4.8 103.813 4.8 103.986 4.8C104.173 4.8 104.36 4.8 104.546 4.8C104.746 4.78667 104.973 4.78 105.226 4.78C105.36 4.76667 105.493 4.76667 105.626 4.78C105.76 4.78 105.9 4.78 106.046 4.78C106.153 4.78 106.253 4.77333 106.346 4.76C106.453 4.74667 106.56 4.74667 106.666 4.76C106.773 4.78667 106.88 4.8 106.986 4.8C107.106 4.78667 107.22 4.78 107.326 4.78C107.393 4.79333 107.473 4.80667 107.566 4.82C107.66 4.82 107.746 4.82 107.826 4.82C107.906 4.80667 107.973 4.77333 108.026 4.72C108.08 4.66667 108.106 4.58667 108.106 4.48C108.106 4.37333 108.113 4.28 108.126 4.2C108.14 4.12 108.106 4.03333 108.026 3.94C107.92 3.83333 107.806 3.77333 107.686 3.76C107.566 3.74667 107.44 3.74667 107.306 3.76H104.306C104.266 3.76 104.093 3.76 103.786 3.76C103.48 3.76 103.146 3.76 102.786 3.76C102.426 3.74667 102.093 3.74 101.786 3.74C101.48 3.74 101.306 3.74 101.266 3.74C101.146 3.74 100.973 3.73333 100.746 3.72C100.52 3.69333 100.3 3.68667 100.086 3.7C99.8729 3.71333 99.6863 3.76 99.5263 3.84C99.3796 3.92 99.3063 4.06 99.3063 4.26C99.3063 4.32667 99.3063 4.36667 99.3063 4.38C99.3196 4.38 99.3329 4.4 99.3463 4.44Z" fill="white"/>
</svg>
