<svg width="113" height="17" viewBox="0 0 113 17" fill="none" xmlns="http://www.w3.org/2000/svg">
<path d="M13.32 12.58C13.36 12.5933 13.4 12.6 13.44 12.6C13.48 12.5867 13.52 12.58 13.56 12.58C13.7867 12.6067 13.9933 12.6533 14.18 12.72C14.38 12.7733 14.5733 12.8867 14.76 13.06C14.9467 13.22 15.04 13.4467 15.04 13.74C15.04 13.8867 15.0133 14.0467 14.96 14.22C14.92 14.38 14.86 14.5067 14.78 14.6C14.6733 14.7067 14.54 14.7867 14.38 14.84C14.2333 14.8933 14.08 14.9333 13.92 14.96C13.7733 14.9733 13.64 14.98 13.52 14.98C13.4133 14.98 13.3533 14.98 13.34 14.98H2.54C2.47333 14.98 2.40667 14.9867 2.34 15C2.28667 15 2.22667 15 2.16 15C1.86667 15.0133 1.56 15.0133 1.24 15C0.92 14.9733 0.646667 14.8667 0.42 14.68C0.14 14.4267 0 14.14 0 13.82C0 13.62 0.06 13.4133 0.18 13.2C0.3 12.9867 0.46 12.84 0.66 12.76C0.793333 12.7067 0.906667 12.6733 1 12.66C1.10667 12.6333 1.20667 12.6133 1.3 12.6C1.40667 12.5867 1.51333 12.58 1.62 12.58C1.74 12.58 1.88667 12.58 2.06 12.58H2.64C2.62667 12.5267 2.62 12.4533 2.62 12.36V9.16C2.62 9.04 2.64 8.91333 2.68 8.78C2.70667 8.67333 2.75333 8.56 2.82 8.44C2.9 8.32 3.01333 8.20667 3.16 8.1C3.33333 7.98 3.52667 7.90667 3.74 7.88C3.95333 7.85333 4.15333 7.87333 4.34 7.94C4.54 8.00667 4.70667 8.12 4.84 8.28C4.98667 8.42667 5.06667 8.61333 5.08 8.84C5.08 8.96 5.08 9.15333 5.08 9.42C5.09333 9.68667 5.1 9.99333 5.1 10.34C5.11333 10.6867 5.12 11.0533 5.12 11.44C5.13333 11.8267 5.14 12.2 5.14 12.56C5.43333 12.56 5.72 12.5667 6 12.58C6.28 12.58 6.56 12.58 6.84 12.58C6.82667 12.5267 6.82 12.4533 6.82 12.36V9.16C6.82 9.04 6.84 8.91333 6.88 8.78C6.90667 8.67333 6.95333 8.56 7.02 8.44C7.1 8.32 7.21333 8.20667 7.36 8.1C7.53333 7.98 7.72667 7.90667 7.94 7.88C8.15333 7.85333 8.35333 7.87333 8.54 7.94C8.74 8.00667 8.90667 8.12 9.04 8.28C9.18667 8.42667 9.26667 8.61333 9.28 8.84C9.28 8.96 9.28 9.15333 9.28 9.42C9.29333 9.68667 9.3 9.99333 9.3 10.34C9.31333 10.6867 9.32 11.06 9.32 11.46C9.33333 11.8467 9.34 12.22 9.34 12.58C9.68667 12.5667 10.0933 12.56 10.56 12.56C11.04 12.56 11.5067 12.5667 11.96 12.58C12.2 12.5933 12.4333 12.5933 12.66 12.58C12.8867 12.5533 13.1067 12.5533 13.32 12.58ZM2.34 3.8C2.11333 3.8 1.85333 3.77333 1.56 3.72C1.28 3.65333 1.06 3.5 0.9 3.26C0.806667 3.1 0.746667 2.92 0.72 2.72C0.693333 2.52 0.706667 2.32667 0.76 2.14C0.866667 1.76667 1.11333 1.49333 1.5 1.32C1.58 1.29333 1.66 1.26667 1.74 1.24C1.82 1.21333 1.90667 1.18667 2 1.16C2.25333 1.09333 2.46 1.06 2.62 1.06C2.79333 1.04667 3.01333 1.03333 3.28 1.02C3.4 1.02 3.49333 1.02 3.56 1.02C3.62667 1.02 3.71333 1.01333 3.82 1C3.92667 1 4 1 4.04 1C4.08 0.986667 4.16 0.98 4.28 0.98C4.34667 0.98 4.51333 0.98 4.78 0.98C5.04667 0.98 5.35333 0.98 5.7 0.98C6.06 0.98 6.44 0.986667 6.84 1C7.24 1 7.61333 1 7.96 1C8.32 1 8.62667 1.00667 8.88 1.02C9.14667 1.02 9.31333 1.02 9.38 1.02C9.58 1.03333 9.78667 1.04 10 1.04C10.2133 1.04 10.4267 1.04 10.64 1.04C10.88 1.04 11.1133 1.04667 11.34 1.06C11.58 1.07333 11.82 1.09333 12.06 1.12C12.1667 1.14667 12.2733 1.16667 12.38 1.18C12.5 1.19333 12.6133 1.23333 12.72 1.3C12.8667 1.38 12.98 1.5 13.06 1.66C13.14 1.80667 13.2 1.97333 13.24 2.16C13.2933 2.33333 13.3267 2.51333 13.34 2.7C13.3533 2.88667 13.36 3.05333 13.36 3.2C13.36 3.38667 13.36 3.56667 13.36 3.74C13.3733 3.91333 13.38 4.09333 13.38 4.28C13.3933 4.53333 13.4 4.82667 13.4 5.16C13.4 5.49333 13.3933 5.78667 13.38 6.04C13.3667 6.58667 13.3533 7.12667 13.34 7.66C13.34 8.18 13.34 8.71333 13.34 9.26C13.34 9.47333 13.32 9.68667 13.28 9.9C13.24 10.1 13.1533 10.2933 13.02 10.48C12.8733 10.6667 12.6933 10.8 12.48 10.88C12.2667 10.9467 12.0467 10.9467 11.82 10.88C11.5533 10.8133 11.3533 10.7 11.22 10.54C11.1 10.3667 11.0067 10.1733 10.94 9.96C10.8867 9.73333 10.8533 9.5 10.84 9.26C10.8267 9.00667 10.8067 8.77333 10.78 8.56C10.7 8 10.66 7.45333 10.66 6.92C10.6733 6.61333 10.6667 6.28 10.64 5.92C10.6133 5.54667 10.6 5.21333 10.6 4.92C10.6 4.69333 10.5867 4.48 10.56 4.28C10.5333 4.06667 10.4267 3.90667 10.24 3.8C10.16 3.76 10.0667 3.74 9.96 3.74C9.85333 3.74 9.72667 3.74 9.58 3.74H9.16C9.09333 3.75333 9.02667 3.76 8.96 3.76C8.89333 3.74667 8.82667 3.74 8.76 3.74H6.64C6.37333 3.74 6.14 3.75333 5.94 3.78C5.75333 3.79333 5.52667 3.8 5.26 3.8C4.99333 3.8 4.75333 3.8 4.54 3.8C4.34 3.78667 4.10667 3.79333 3.84 3.82C3.73333 3.83333 3.64667 3.83333 3.58 3.82C3.52667 3.80667 3.44667 3.8 3.34 3.8H2.34Z" fill="white"/>
<path d="M23.0798 13.94C23.0665 13.94 23.0132 13.9267 22.9198 13.9C22.8398 13.8733 22.7465 13.8333 22.6398 13.78C22.5332 13.7267 22.4332 13.6533 22.3398 13.56C22.2465 13.4667 22.1932 13.3467 22.1798 13.2C22.0998 12.7067 22.1798 12.3067 22.4198 12C22.5798 11.8133 22.7532 11.7067 22.9398 11.68C23.1265 11.64 23.2265 11.62 23.2398 11.62H24.7998C24.7865 11.5933 24.7798 11.54 24.7798 11.46C24.7532 11.1933 24.7465 10.9267 24.7598 10.66C24.7865 10.3933 24.7998 10.1267 24.7998 9.86L22.0598 9.74C21.8465 9.71333 21.6732 9.68667 21.5398 9.66C21.4198 9.62 21.2732 9.52 21.0998 9.36C21.0065 9.28 20.9398 9.17333 20.8998 9.04C20.8598 8.90667 20.8398 8.76667 20.8398 8.62C20.8398 8.34 20.9265 8.11333 21.0998 7.94C21.1932 7.83333 21.3198 7.75333 21.4798 7.7C21.6398 7.64667 21.7932 7.60667 21.9398 7.58C22.0865 7.55333 22.2132 7.54 22.3198 7.54C22.4398 7.54 22.5065 7.54 22.5198 7.54H33.9598C34.1598 7.54 34.3598 7.54 34.5598 7.54C34.7598 7.54 34.9532 7.54667 35.1398 7.56C35.3265 7.57333 35.5065 7.6 35.6798 7.64C35.8665 7.68 36.0332 7.76667 36.1798 7.9C36.3265 8.00667 36.4065 8.12667 36.4198 8.26C36.4465 8.39333 36.4598 8.54 36.4598 8.7C36.4598 8.9 36.3998 9.08 36.2798 9.24C36.1732 9.4 36.0198 9.51333 35.8198 9.58C35.5532 9.68667 35.2598 9.75333 34.9398 9.78C34.6332 9.79333 34.3398 9.80667 34.0598 9.82C33.9132 9.83333 33.7332 9.84 33.5198 9.84C33.3065 9.84 33.0732 9.84667 32.8198 9.86C32.7932 10.1533 32.7798 10.4467 32.7798 10.74C32.7932 11.02 32.7998 11.3133 32.7998 11.62H33.1598C33.1732 11.62 33.1865 11.62 33.1998 11.62C33.2132 11.6067 33.2332 11.6 33.2598 11.6C33.8065 11.6 34.2265 11.6867 34.5198 11.86C34.8265 12.0333 34.9798 12.2733 34.9798 12.58V13.94C34.9798 14.0067 34.9798 14.08 34.9798 14.16C34.9932 14.2267 34.9998 14.2933 34.9998 14.36C34.9998 14.4267 34.9998 14.5267 34.9998 14.66C34.9998 14.7933 34.9998 14.9333 34.9998 15.08C34.9998 15.2133 34.9998 15.3467 34.9998 15.48C34.9998 15.6133 34.9932 15.72 34.9798 15.8C34.9532 16.08 34.8398 16.3067 34.6398 16.48C34.4532 16.6533 34.2065 16.74 33.8998 16.74C33.7532 16.74 33.6132 16.72 33.4798 16.68C33.2932 16.6267 33.1465 16.5467 33.0398 16.44C32.9465 16.3333 32.8732 16.2133 32.8198 16.08C32.7798 15.9467 32.7465 15.8067 32.7198 15.66C32.7065 15.5 32.6998 15.3467 32.6998 15.2C32.6998 15.1467 32.6932 15.06 32.6798 14.94C32.6798 14.82 32.6732 14.7 32.6598 14.58C32.6598 14.4467 32.6532 14.3267 32.6398 14.22C32.6398 14.1133 32.6332 14.0333 32.6198 13.98C32.5798 13.9667 32.4665 13.9533 32.2798 13.94C32.1065 13.9267 31.7732 13.92 31.2798 13.92C31.0532 13.92 30.8532 13.9267 30.6798 13.94C30.5065 13.94 30.3465 13.94 30.1998 13.94H23.0798ZM28.6998 6.6C27.7398 6.6 26.8398 6.56667 25.9998 6.5C25.1732 6.43333 24.4532 6.28667 23.8398 6.06C23.2398 5.82 22.7665 5.48667 22.4198 5.06C22.0732 4.62 21.8998 4.03333 21.8998 3.3C21.8998 2.63333 22.0732 2.08667 22.4198 1.66C22.7665 1.23333 23.2398 0.9 23.8398 0.66C24.4532 0.406667 25.1732 0.233333 25.9998 0.139999C26.8398 0.0466665 27.7398 0 28.6998 0C29.6598 0 30.5532 0.0333333 31.3798 0.0999999C32.2198 0.166667 32.9398 0.313333 33.5398 0.54C34.1532 0.766666 34.6332 1.1 34.9798 1.54C35.3265 1.96667 35.4998 2.55333 35.4998 3.3C35.4998 4.03333 35.3265 4.62 34.9798 5.06C34.6332 5.48667 34.1532 5.82 33.5398 6.06C32.9398 6.28667 32.2198 6.43333 31.3798 6.5C30.5532 6.56667 29.6598 6.6 28.6998 6.6ZM28.6998 2.24C28.2065 2.24 27.7132 2.24667 27.2198 2.26C26.7398 2.27333 26.3065 2.32 25.9198 2.4C25.5332 2.46667 25.2198 2.57333 24.9798 2.72C24.7398 2.85333 24.6198 3.04667 24.6198 3.3C24.6198 3.75333 24.9798 4.06 25.6998 4.22C26.4332 4.36667 27.4332 4.42667 28.6998 4.4C29.1932 4.4 29.6798 4.4 30.1598 4.4C30.6532 4.38667 31.0932 4.35333 31.4798 4.3C31.8665 4.23333 32.1798 4.12667 32.4198 3.98C32.6598 3.82 32.7798 3.59333 32.7798 3.3C32.7798 3.04667 32.6598 2.85333 32.4198 2.72C32.1798 2.57333 31.8665 2.46667 31.4798 2.4C31.0932 2.32 30.6532 2.27333 30.1598 2.26C29.6798 2.24667 29.1932 2.24 28.6998 2.24ZM27.5598 9.9C27.5865 10.1933 27.5798 10.4667 27.5398 10.72C27.5132 10.9733 27.4998 11.2733 27.4998 11.62H30.0798V11.5C30.0532 11.3 30.0398 11.0533 30.0398 10.76C30.0532 10.4533 30.0665 10.1667 30.0798 9.9H27.5598Z" fill="white"/>
<path d="M56.8809 15.8C56.7876 15.9067 56.6809 15.9867 56.5609 16.04C56.4409 16.0933 56.3143 16.1267 56.1809 16.14C56.0476 16.1533 55.9076 16.1533 55.7609 16.14C55.6276 16.14 55.5009 16.1333 55.3809 16.12C55.2743 16.1067 55.1676 16.08 55.0609 16.04C54.9543 16.0133 54.8609 15.96 54.7809 15.88C54.7676 15.88 54.7609 15.8733 54.7609 15.86C54.6009 15.7 54.5143 15.5267 54.5009 15.34C54.4876 15.14 54.4809 14.9333 54.4809 14.72V1.88C54.4809 1.72 54.4876 1.56 54.5009 1.4C54.5143 1.24 54.5476 1.1 54.6009 0.98C54.6543 0.86 54.7409 0.766667 54.8609 0.700001C54.9809 0.62 55.1409 0.58 55.3409 0.58C55.5409 0.58 55.7676 0.573333 56.0209 0.56C56.2743 0.533334 56.4943 0.58 56.6809 0.700001C56.8276 0.793333 56.9209 0.893333 56.9609 1C57.0009 1.10667 57.0343 1.23333 57.0609 1.38C57.1143 1.56667 57.1343 1.80667 57.1209 2.1C57.1209 2.38 57.1209 2.61333 57.1209 2.8V12.66C57.1209 13.0733 57.1143 13.4733 57.1009 13.86C57.0876 14.2333 57.0876 14.6267 57.1009 15.04C57.1143 15.3333 57.0409 15.5867 56.8809 15.8Z" fill="white"/>
<path d="M87.1614 16.26C87.0414 16.2867 86.7681 16.3 86.3414 16.3C85.9281 16.3133 85.4347 16.32 84.8614 16.32C84.2881 16.32 83.6747 16.3133 83.0214 16.3C82.3681 16.3 81.7547 16.2933 81.1814 16.28C80.6081 16.28 80.1147 16.28 79.7014 16.28C79.2881 16.28 79.0281 16.28 78.9214 16.28C78.6547 16.28 78.3747 16.26 78.0814 16.22C77.7881 16.18 77.5281 16.0733 77.3014 15.9C77.1547 15.78 77.0347 15.6333 76.9414 15.46C76.8614 15.2733 76.8014 15.0933 76.7614 14.92C76.7214 14.7467 76.6947 14.5933 76.6814 14.46C76.6681 14.3267 76.6614 14.2533 76.6614 14.24V12.64C76.6614 12.44 76.6614 12.2467 76.6614 12.06C76.6614 11.86 76.6614 11.68 76.6614 11.52C76.6747 11.36 76.6814 11.2333 76.6814 11.14C76.6814 11.0333 76.6814 10.9733 76.6814 10.96C76.6814 10.7733 76.7147 10.6 76.7814 10.44C76.8481 10.2667 76.9747 10.14 77.1614 10.06C77.2547 10.02 77.3547 9.99333 77.4614 9.98C77.5814 9.96667 77.6947 9.95333 77.8014 9.94C78.0281 9.92667 78.2547 9.96667 78.4814 10.06C78.7214 10.14 78.8681 10.3133 78.9214 10.58V11.3C78.9481 11.5 78.9947 11.6 79.0614 11.6C79.1281 11.5867 79.2414 11.5867 79.4014 11.6H87.5014V10.88C87.5147 10.64 87.5681 10.44 87.6614 10.28C87.7547 10.1067 87.9214 10 88.1614 9.96C88.3481 9.92 88.5814 9.90667 88.8614 9.92C89.1414 9.93333 89.3547 10.0067 89.5014 10.14C89.6347 10.26 89.7014 10.4067 89.7014 10.58C89.7014 10.74 89.7014 10.9 89.7014 11.06C89.6747 11.6733 89.6747 12.3067 89.7014 12.96C89.7281 13.6 89.7081 14.2267 89.6414 14.84C89.6281 15.0267 89.5947 15.1867 89.5414 15.32C89.4881 15.44 89.4081 15.5733 89.3014 15.72C89.1947 15.88 89.0481 15.9933 88.8614 16.06C88.6881 16.1267 88.5014 16.1733 88.3014 16.2C88.1014 16.2267 87.9014 16.24 87.7014 16.24C87.5014 16.24 87.3214 16.2467 87.1614 16.26ZM84.2214 8.06C84.2214 8.19333 84.1814 8.32667 84.1014 8.46C84.0347 8.59333 83.9481 8.71333 83.8414 8.82C83.7347 8.91333 83.6147 9 83.4814 9.08C83.3481 9.14667 83.2214 9.18667 83.1014 9.2C82.7547 9.25333 82.4614 9.26667 82.2214 9.24C81.9814 9.21333 81.6947 9.2 81.3614 9.2C80.6281 9.2 79.8947 9.19333 79.1614 9.18C78.4414 9.16667 77.7214 9.14667 77.0014 9.12C76.7881 9.10667 76.6081 9.04 76.4614 8.92C76.3281 8.8 76.2214 8.66 76.1414 8.5C76.0614 8.32667 76.0081 8.14 75.9814 7.94C75.9547 7.74 75.9414 7.55333 75.9414 7.38C75.9414 7.1 75.9347 6.78667 75.9214 6.44C75.9214 6.09333 75.9147 5.74 75.9014 5.38C75.9014 5.02 75.9014 4.66667 75.9014 4.32C75.9014 3.96 75.9081 3.64 75.9214 3.36C75.9347 3.18667 75.9347 3 75.9214 2.8C75.9214 2.6 75.9281 2.4 75.9414 2.2C75.9547 2 75.9747 1.80667 76.0014 1.62C76.0414 1.42 76.1014 1.24667 76.1814 1.1C76.2747 0.926667 76.4081 0.786666 76.5814 0.68C76.7547 0.573334 76.9347 0.513333 77.1214 0.5C77.3081 0.473333 77.4881 0.493333 77.6614 0.56C77.8481 0.626667 77.9947 0.746667 78.1014 0.92C78.3147 1.28 78.4214 1.7 78.4214 2.18C78.4347 2.64667 78.4347 3.09333 78.4214 3.52H81.9614C81.9881 3.22667 81.9947 2.96667 81.9814 2.74C81.9681 2.51333 81.9614 2.27333 81.9614 2.02C81.9614 1.79333 81.9947 1.54 82.0614 1.26C82.1414 0.966667 82.2814 0.753334 82.4814 0.62C82.6281 0.513333 82.8281 0.46 83.0814 0.46C83.3347 0.446667 83.5347 0.493333 83.6814 0.599999C83.8281 0.706666 83.9347 0.866667 84.0014 1.08C84.0814 1.28 84.1347 1.48667 84.1614 1.7C84.2014 1.94 84.2214 2.2 84.2214 2.48V8.06ZM86.9414 6.02C86.5547 5.99333 86.2081 5.97333 85.9014 5.96C85.5947 5.93333 85.3547 5.78667 85.1814 5.52C85.1014 5.38667 85.0614 5.22 85.0614 5.02C85.0614 4.82 85.0747 4.64667 85.1014 4.5C85.1414 4.35333 85.2147 4.23333 85.3214 4.14C85.4281 4.03333 85.6147 3.94667 85.8814 3.88C85.9347 3.86667 86.0347 3.86 86.1814 3.86C86.3281 3.84667 86.4814 3.83333 86.6414 3.82C86.8147 3.80667 86.9747 3.8 87.1214 3.8C87.2681 3.78667 87.3681 3.78 87.4214 3.78V2.06C87.4081 1.91333 87.4014 1.76667 87.4014 1.62C87.4147 1.47333 87.4414 1.32667 87.4814 1.18C87.5081 1.07333 87.5347 0.973333 87.5614 0.879999C87.5881 0.786666 87.6481 0.686667 87.7414 0.58C87.8481 0.446666 87.9947 0.353333 88.1814 0.3C88.3814 0.246666 88.5947 0.233333 88.8214 0.26C89.2481 0.326667 89.5214 0.493333 89.6414 0.76C89.7214 0.92 89.7681 1.12 89.7814 1.36C89.8081 1.58667 89.8214 1.72667 89.8214 1.78V8.3H89.8014C89.8014 8.31333 89.7947 8.36 89.7814 8.44C89.7681 8.52 89.7414 8.62 89.7014 8.74C89.6614 8.84667 89.6014 8.96 89.5214 9.08C89.4414 9.2 89.3347 9.3 89.2014 9.38C89.0147 9.48667 88.8281 9.54 88.6414 9.54C88.4147 9.54 88.1947 9.46667 87.9814 9.32C87.8214 9.21333 87.7081 9.08 87.6414 8.92C87.5614 8.77333 87.5081 8.62667 87.4814 8.48C87.4547 8.33333 87.4347 8.18667 87.4214 8.04V6.02H86.9414ZM80.1014 13.4C79.9814 13.4 79.8481 13.4 79.7014 13.4C79.5681 13.3867 79.4481 13.3933 79.3414 13.42C79.2347 13.4333 79.1414 13.4733 79.0614 13.54C78.9947 13.5933 78.9614 13.68 78.9614 13.8C78.9614 13.9467 78.9681 14.0533 78.9814 14.12C79.0481 14.3467 79.1481 14.4667 79.2814 14.48C79.4281 14.48 79.5881 14.4733 79.7614 14.46C80.1347 14.46 80.5414 14.4667 80.9814 14.48C81.4214 14.48 81.8414 14.4867 82.2414 14.5C82.2814 14.5 82.4081 14.5 82.6214 14.5C82.8481 14.5 83.1147 14.5 83.4214 14.5C83.7414 14.4867 84.0814 14.48 84.4414 14.48C84.8147 14.48 85.1547 14.48 85.4614 14.48C85.7814 14.4667 86.0481 14.46 86.2614 14.46C86.4881 14.46 86.6214 14.46 86.6614 14.46C86.7281 14.46 86.8081 14.4667 86.9014 14.48C86.9947 14.4933 87.0814 14.4933 87.1614 14.48C87.2414 14.4667 87.3081 14.4333 87.3614 14.38C87.4147 14.3267 87.4414 14.2467 87.4414 14.14C87.4414 14.0333 87.4481 13.94 87.4614 13.86C87.4747 13.78 87.4414 13.6933 87.3614 13.6C87.2681 13.4933 87.1547 13.4333 87.0214 13.42C86.9014 13.4067 86.7747 13.4067 86.6414 13.42C86.6281 13.42 86.4547 13.42 86.1214 13.42C85.7881 13.42 85.3814 13.42 84.9014 13.42C84.4214 13.42 83.9014 13.42 83.3414 13.42C82.7814 13.4067 82.2614 13.4 81.7814 13.4C81.3147 13.4 80.9147 13.4 80.5814 13.4C80.2614 13.4 80.1014 13.4 80.1014 13.4ZM81.9614 6.98C81.9614 6.94 81.9547 6.9 81.9414 6.86C81.9414 6.80667 81.9481 6.74667 81.9614 6.68C81.9881 6.49333 82.0014 6.33333 82.0014 6.2C82.0014 6.05333 81.9881 5.88667 81.9614 5.7V5.36H79.9414C79.7281 5.34667 79.5281 5.33333 79.3414 5.32C79.1814 5.30667 79.0081 5.30667 78.8214 5.32C78.6481 5.32 78.5014 5.33333 78.3814 5.36C78.3547 5.58667 78.3481 5.81333 78.3614 6.04C78.3881 6.25333 78.4081 6.47333 78.4214 6.7C78.4214 6.84667 78.4281 6.94667 78.4414 7C78.4547 7.05333 78.5347 7.08667 78.6814 7.1C78.8281 7.11333 78.9747 7.12 79.1214 7.12C79.2814 7.10667 79.4347 7.1 79.5814 7.1H81.9614V6.98Z" fill="white"/>
<path d="M97.763 9.16C97.5496 9.13333 97.3763 9.12 97.243 9.12C97.123 9.12 96.9763 9.04 96.803 8.88C96.6296 8.72 96.543 8.50667 96.543 8.24C96.543 7.96 96.6296 7.73333 96.803 7.56C96.8963 7.45333 97.023 7.38 97.183 7.34C97.343 7.28667 97.4963 7.25333 97.643 7.24C97.7896 7.21333 97.9163 7.20667 98.023 7.22C98.143 7.22 98.2096 7.22 98.223 7.22H109.663C109.863 7.22 110.063 7.22 110.263 7.22C110.463 7.22 110.656 7.22667 110.843 7.24C111.03 7.25333 111.21 7.27333 111.383 7.3C111.57 7.31333 111.736 7.38667 111.883 7.52C112.03 7.62667 112.11 7.74667 112.123 7.88C112.15 8.01333 112.163 8.16 112.163 8.32C112.163 8.69333 111.95 8.95333 111.523 9.1C111.256 9.20667 110.956 9.25333 110.623 9.24C110.303 9.22667 110.01 9.22667 109.743 9.24C109.596 9.25333 109.416 9.26 109.203 9.26C108.99 9.26 108.756 9.26 108.503 9.26C108.49 9.40667 108.483 9.55333 108.483 9.7C108.496 9.84667 108.503 9.99333 108.503 10.14H108.923C109.603 10.14 110.123 10.2467 110.483 10.46C110.843 10.66 111.023 10.9933 111.023 11.46V12.88C111.023 13.0667 110.976 13.2533 110.883 13.44C110.803 13.6133 110.656 13.76 110.443 13.88C110.27 13.9867 110.096 14.0467 109.923 14.06C109.75 14.06 109.576 14.06 109.403 14.06H99.923V14.78H110.103C110.316 14.8067 110.503 14.86 110.663 14.94C110.823 15.02 110.936 15.1667 111.003 15.38C111.163 15.86 110.99 16.2 110.483 16.4C110.323 16.4667 110.163 16.5067 110.003 16.52C109.843 16.5333 109.69 16.54 109.543 16.54H100.243C99.9763 16.54 99.6963 16.5333 99.403 16.52C99.123 16.52 98.8363 16.5133 98.543 16.5C98.263 16.4867 98.0296 16.3867 97.843 16.2C97.6563 16.0133 97.5496 15.7667 97.523 15.46L97.463 14.06C97.4496 13.9133 97.4496 13.74 97.463 13.54C97.4763 13.34 97.543 13.1733 97.663 13.04C97.8496 12.84 98.0963 12.7133 98.403 12.66C98.723 12.6067 99.0296 12.58 99.323 12.58C99.5096 12.58 99.8163 12.58 100.243 12.58C100.683 12.58 101.276 12.5867 102.023 12.6C102.77 12.6 103.69 12.6 104.783 12.6C105.89 12.6 107.203 12.6 108.723 12.6V11.88H98.883C98.7496 11.88 98.6296 11.88 98.523 11.88C98.4163 11.88 98.3096 11.8667 98.203 11.84C98.083 11.8133 97.9763 11.7867 97.883 11.76C97.7896 11.7333 97.7096 11.6667 97.643 11.56C97.4563 11.28 97.4096 10.9933 97.503 10.7C97.543 10.5933 97.603 10.5133 97.683 10.46C97.763 10.3933 97.8563 10.34 97.963 10.3C98.0696 10.26 98.1696 10.2333 98.263 10.22C98.3696 10.2067 98.463 10.1933 98.543 10.18C98.743 10.14 98.9496 10.12 99.163 10.12H100.263C100.276 9.98667 100.283 9.86 100.283 9.74C100.296 9.60667 100.303 9.45333 100.303 9.28C100.17 9.28 99.983 9.28 99.743 9.28C99.503 9.26667 99.2563 9.25333 99.003 9.24C98.7496 9.22667 98.503 9.22 98.263 9.22C98.0363 9.20667 97.8696 9.18667 97.763 9.16ZM100.303 4.72C100.49 4.72 100.783 4.72667 101.183 4.74C101.583 4.74 102.016 4.74 102.483 4.74C102.95 4.74 103.41 4.74 103.863 4.74C104.316 4.72667 104.696 4.72 105.003 4.72H109.663C109.876 4.74667 110.063 4.80667 110.223 4.9C110.383 4.98 110.496 5.12 110.563 5.32C110.71 5.8 110.536 6.14 110.043 6.34C109.883 6.40667 109.716 6.44667 109.543 6.46C109.383 6.47333 109.23 6.48 109.083 6.48H100.643C100.376 6.48 100.096 6.48 99.803 6.48C99.523 6.46667 99.2363 6.45333 98.943 6.44C98.663 6.42667 98.423 6.32667 98.223 6.14C98.0363 5.95333 97.9296 5.70667 97.903 5.4C97.8763 5.17333 97.8563 4.92667 97.843 4.66C97.843 4.39333 97.843 4.16667 97.843 3.98C97.843 3.83333 97.8496 3.66 97.863 3.46C97.8763 3.26 97.943 3.09333 98.063 2.96C98.2496 2.76 98.483 2.63333 98.763 2.58C99.0563 2.52667 99.3496 2.5 99.643 2.5C99.723 2.5 99.803 2.5 99.883 2.5C99.9763 2.5 100.056 2.50667 100.123 2.52H108.103V1.86H99.283C99.1363 1.86 99.0096 1.86 98.903 1.86C98.8096 1.86 98.7096 1.84667 98.603 1.82C98.483 1.79333 98.3696 1.76667 98.263 1.74C98.1696 1.71333 98.0896 1.64667 98.023 1.54C97.8496 1.27333 97.8096 0.986666 97.903 0.68C97.9696 0.466667 98.1163 0.333333 98.343 0.28C98.583 0.226667 98.7763 0.186667 98.923 0.16C99.1363 0.12 99.3496 0.0999999 99.563 0.0999999C99.7896 0.0999999 100.076 0.106666 100.423 0.12C100.77 0.12 101.136 0.12 101.523 0.12C101.923 0.12 102.31 0.12 102.683 0.12C103.07 0.12 103.416 0.12 103.723 0.12H108.303C108.983 0.12 109.503 0.226667 109.863 0.44C110.223 0.64 110.403 0.973334 110.403 1.44V2.8C110.403 2.98667 110.356 3.17333 110.263 3.36C110.183 3.53333 110.036 3.68 109.823 3.8C109.65 3.90667 109.436 3.96667 109.183 3.98C108.943 3.98 108.75 3.98 108.603 3.98H100.303V4.72ZM105.783 10.14C105.77 9.99333 105.763 9.84667 105.763 9.7C105.776 9.55333 105.79 9.40667 105.803 9.26H103.063C103.063 9.43333 103.063 9.58667 103.063 9.72C103.063 9.85333 103.056 9.99333 103.043 10.14H105.783Z" fill="white"/>
</svg>
