<svg width="109" height="17" viewBox="0 0 109 17" fill="none" xmlns="http://www.w3.org/2000/svg">
<path d="M8.96 13.0133C9 13.08 9.03333 13.1533 9.06 13.2333C9.1 13.3 9.13333 13.38 9.16 13.4733C9.2 13.62 9.22667 13.78 9.24 13.9533C9.25333 14.1267 9.21333 14.3067 9.12 14.4933C8.90667 14.9067 8.61333 15.1267 8.24 15.1533H8.22C7.98 15.1533 7.76667 15.0733 7.58 14.9133C7.40667 14.7533 7.22 14.56 7.02 14.3333C6.82 14.12 6.64 13.9067 6.48 13.6933C6.32 13.48 6.17333 13.2867 6.04 13.1133C6.02667 13.0867 6.00667 13.06 5.98 13.0333C5.96667 12.9933 5.94667 12.9467 5.92 12.8933C5.58667 12.3867 5.34 12.0333 5.18 11.8333C5.02 11.6333 4.92667 11.5267 4.9 11.5133C4.87333 11.54 4.80667 11.6133 4.7 11.7333C4.60667 11.84 4.54667 11.9067 4.52 11.9333C4.49333 11.9733 4.46667 12.0133 4.44 12.0533C4.41333 12.08 4.38667 12.1067 4.36 12.1333C4.24 12.2667 4.14 12.4067 4.06 12.5533C3.99333 12.6867 3.90667 12.8267 3.8 12.9733C3.69333 13.12 3.58 13.26 3.46 13.3933C3.35333 13.5267 3.24 13.66 3.12 13.7933C3.06667 13.8467 3.01333 13.9133 2.96 13.9933C2.76 14.22 2.54667 14.44 2.32 14.6533C2.10667 14.8667 1.85333 15.0267 1.56 15.1333C1.44 15.1867 1.30667 15.2133 1.16 15.2133C0.853333 15.2133 0.58 15.0933 0.34 14.8533C0.113333 14.6267 0 14.3467 0 14.0133C0.0133333 13.7733 0.0733333 13.5467 0.18 13.3333C0.3 13.12 0.413333 12.92 0.52 12.7333L0.56 12.6533C0.6 12.5867 0.64 12.5267 0.68 12.4733C0.72 12.42 0.76 12.3667 0.8 12.3133C0.826667 12.2733 0.846667 12.24 0.86 12.2133C0.886667 12.1733 0.913333 12.14 0.94 12.1133C1.1 11.8733 1.24 11.68 1.36 11.5333C1.38667 11.5067 1.4 11.4867 1.4 11.4733C1.41333 11.4467 1.43333 11.42 1.46 11.3933C1.48667 11.34 1.51333 11.3067 1.54 11.2933L1.58 11.2333C1.63333 11.1667 1.68 11.1067 1.72 11.0533C1.76 10.9867 1.8 10.92 1.84 10.8533C1.93333 10.7067 2.01333 10.5733 2.08 10.4533C2.16 10.32 2.23333 10.1933 2.3 10.0733C2.38 9.92667 2.46 9.78667 2.54 9.65333C2.62 9.50667 2.71333 9.36667 2.82 9.23333C2.88667 9.12667 2.95333 9.02 3.02 8.91333C3.1 8.80667 3.17333 8.7 3.24 8.59333L3.32 8.47333C3.41333 8.32667 3.48 8.2 3.52 8.09333C3.57333 7.97333 3.60667 7.84 3.62 7.69333C3.64667 7.48 3.66 7.27333 3.66 7.07333C3.66 6.86 3.66 6.63333 3.66 6.39333V3.09333C3.66 2.96 3.66 2.83333 3.66 2.71333C3.66 2.59333 3.66667 2.46667 3.68 2.33333C3.68 2.18667 3.69333 2.04 3.72 1.89333C3.74667 1.74667 3.78 1.61333 3.82 1.49333C3.88667 1.32 3.97333 1.14667 4.08 0.973333C4.14667 0.866666 4.24 0.786666 4.36 0.733333C4.49333 0.679999 4.63333 0.639999 4.78 0.613333L4.82 0.593333C4.92667 0.566666 5.02 0.56 5.1 0.573334C5.19333 0.573334 5.29333 0.593333 5.4 0.633333C5.53333 0.686666 5.63333 0.746666 5.7 0.813333C5.76667 0.866666 5.82 0.94 5.86 1.03333C5.9 1.12667 5.94 1.22667 5.98 1.33333C6.1 1.58667 6.18 1.91333 6.22 2.31333C6.27333 2.87333 6.30667 3.46667 6.32 4.09333C6.33333 4.70667 6.34 5.29333 6.34 5.85333C6.35333 6.2 6.36 6.54667 6.36 6.89333C6.36 7.22667 6.37333 7.56 6.4 7.89333C6.41333 8.18667 6.48667 8.46 6.62 8.71333C6.76667 8.96667 6.91333 9.22 7.06 9.47333C7.20667 9.76667 7.36 10.06 7.52 10.3533C7.68 10.6333 7.84667 10.9133 8.02 11.1933C8.08667 11.3267 8.15333 11.46 8.22 11.5933C8.3 11.7133 8.38 11.84 8.46 11.9733C8.48667 12.04 8.51333 12.1 8.54 12.1533C8.58 12.2067 8.61333 12.26 8.64 12.3133C8.66667 12.38 8.7 12.4533 8.74 12.5333C8.78 12.6 8.81333 12.6667 8.84 12.7333L8.9 12.8933L8.96 13.0133ZM14 14.6933C13.9733 14.8533 13.9533 15.0133 13.94 15.1733C13.9267 15.32 13.8933 15.4733 13.84 15.6333C13.8133 15.6867 13.7933 15.7333 13.78 15.7733C13.7667 15.8133 13.7467 15.86 13.72 15.9133C13.6267 16.1 13.5067 16.2467 13.36 16.3533C13.0533 16.54 12.7133 16.5867 12.34 16.4933C12.1267 16.4533 11.9533 16.3733 11.82 16.2533C11.7 16.1467 11.6067 16.0067 11.54 15.8333C11.4867 15.6733 11.44 15.5133 11.4 15.3533C11.3733 15.1933 11.36 15.0533 11.36 14.9333C11.36 14.8133 11.36 14.7467 11.36 14.7333V2.37333C11.36 2.21333 11.36 2.04 11.36 1.85333C11.36 1.66667 11.3733 1.48 11.4 1.29333C11.4267 1.10667 11.4667 0.933333 11.52 0.773333C11.5733 0.613333 11.6467 0.486666 11.74 0.393334C11.8867 0.246666 12.04 0.16 12.2 0.133333C12.36 0.0933331 12.5333 0.0733329 12.72 0.0733329C12.9467 0.0733329 13.1533 0.14 13.34 0.273333C13.54 0.393333 13.68 0.566666 13.76 0.793333C13.88 1.07333 13.9467 1.36667 13.96 1.67333C13.9733 1.98 13.9867 2.28667 14 2.59333V2.69333C14.0267 3.72 14.0333 4.77333 14.02 5.85333C14.0067 6.93333 14 7.95333 14 8.91333V13.9733C14 14.0933 14 14.2133 14 14.3333C14.0133 14.4533 14.0133 14.5733 14 14.6933Z" fill="white"/>
<path d="M33.5191 14.5533C33.7324 14.5667 33.9191 14.62 34.0791 14.7133C34.2391 14.7933 34.3524 14.94 34.4191 15.1533C34.5657 15.6467 34.3924 15.98 33.8991 16.1533C33.7391 16.22 33.5724 16.26 33.3991 16.2733C33.2391 16.2867 33.0924 16.2933 32.9591 16.2933H23.8591C23.5924 16.2933 23.3124 16.2933 23.0191 16.2933C22.7257 16.2933 22.4324 16.2867 22.1391 16.2733C21.7791 16.26 21.5257 16.1467 21.3791 15.9333C21.2457 15.72 21.1657 15.46 21.1391 15.1533L21.0591 13.8333C21.0457 13.6867 21.0457 13.5133 21.0591 13.3133C21.0857 13.1 21.1591 12.92 21.2791 12.7733C21.4657 12.5867 21.6791 12.4667 21.9191 12.4133C22.1591 12.36 22.4257 12.3333 22.7191 12.3333H23.3391C23.4057 12.3333 23.4591 12.34 23.4991 12.3533C23.5391 12.3533 23.5791 12.3533 23.6191 12.3533H32.1391V11.6533H23.4191C23.3524 11.6533 23.2791 11.6533 23.1991 11.6533C23.1324 11.64 23.0591 11.64 22.9791 11.6533H22.4991C22.3657 11.6533 22.2457 11.6533 22.1391 11.6533C22.0324 11.6533 21.9257 11.64 21.8191 11.6133C21.6991 11.5867 21.5857 11.56 21.4791 11.5333C21.3857 11.5067 21.3057 11.44 21.2391 11.3333C21.1591 11.1867 21.1057 11.0467 21.0791 10.9133C21.0524 10.78 21.0657 10.6333 21.1191 10.4733C21.1591 10.3667 21.2191 10.2867 21.2991 10.2333C21.3791 10.1667 21.4724 10.1133 21.5791 10.0733C21.6857 10.0333 21.7857 10.0067 21.8791 9.99333C21.9857 9.96667 22.0791 9.94667 22.1591 9.93333C22.2657 9.92 22.3657 9.91333 22.4591 9.91333C22.5657 9.9 22.6724 9.89333 22.7791 9.89333H23.1191C23.1857 9.90667 23.2457 9.91333 23.2991 9.91333C23.3657 9.91333 23.4324 9.91333 23.4991 9.91333H32.3391C33.0191 9.91333 33.5391 10.02 33.8991 10.2333C34.2591 10.4333 34.4391 10.7667 34.4391 11.2333V12.6333C34.4391 12.82 34.3924 13 34.2991 13.1733C34.2191 13.3467 34.0724 13.5 33.8591 13.6333C33.6857 13.74 33.5124 13.8 33.3391 13.8133C33.1657 13.8133 32.9924 13.8133 32.8191 13.8133H23.5191V14.5533H33.5191ZM20.5391 8.53333C20.3524 8.45333 20.2191 8.3 20.1391 8.07333C20.0324 7.80667 20.0124 7.54 20.0791 7.27333C20.1591 7.00667 20.2791 6.75333 20.4391 6.51333C20.5991 6.27333 20.7791 6.04667 20.9791 5.83333C21.1924 5.62 21.3724 5.42 21.5191 5.23333C21.7457 4.95333 21.9724 4.67333 22.1991 4.39333C22.4257 4.11333 22.6524 3.82667 22.8791 3.53333C22.9591 3.42667 23.0524 3.31333 23.1591 3.19333C23.2657 3.07333 23.3657 2.94667 23.4591 2.81333C23.5657 2.68 23.6524 2.54667 23.7191 2.41333C23.7857 2.28 23.8257 2.14 23.8391 1.99333C23.8524 1.76667 23.8657 1.54667 23.8791 1.33333C23.8924 1.10667 23.9324 0.906666 23.9991 0.733333C24.0657 0.546666 24.1724 0.4 24.3191 0.293334C24.4791 0.186667 24.7057 0.133333 24.9991 0.133333C25.2124 0.133333 25.4191 0.16 25.6191 0.213334C25.8191 0.253333 25.9657 0.38 26.0591 0.593333C26.1524 0.833333 26.1791 1.1 26.1391 1.39333C26.1124 1.67333 26.1391 1.94 26.2191 2.19333C26.2857 2.42 26.3991 2.62 26.5591 2.79333C26.7191 2.95333 26.8524 3.12667 26.9591 3.31333C27.1857 3.72667 27.4524 4.09333 27.7591 4.41333C28.0657 4.73333 28.3524 5.08 28.6191 5.45333C28.8324 5.73333 29.0324 6.02667 29.2191 6.33333C29.4191 6.62667 29.5524 6.94667 29.6191 7.29333C29.6857 7.58667 29.6524 7.84 29.5191 8.05333C29.3991 8.25333 29.2324 8.4 29.0191 8.49333C28.8057 8.58667 28.5724 8.62 28.3191 8.59333C28.0657 8.55333 27.8457 8.44 27.6591 8.25333C27.1657 7.74667 26.7124 7.22667 26.2991 6.69333C25.8991 6.14667 25.4857 5.59333 25.0591 5.03333C25.0591 5.03333 24.9991 5.1 24.8791 5.23333C24.7591 5.35333 24.6057 5.51333 24.4191 5.71333C24.2324 5.9 24.0324 6.11333 23.8191 6.35333C23.6057 6.58 23.4057 6.8 23.2191 7.01333C23.0324 7.22667 22.8657 7.41333 22.7191 7.57333C22.5724 7.72 22.4857 7.81333 22.4591 7.85333C22.3124 8.02667 22.1591 8.18 21.9991 8.31333C21.8391 8.44667 21.6457 8.54 21.4191 8.59333C21.2724 8.62 21.1191 8.63333 20.9591 8.63333C20.8124 8.63333 20.6724 8.6 20.5391 8.53333ZM34.3791 7.51333C34.3657 7.66 34.3457 7.81333 34.3191 7.97333C34.3057 8.12 34.2591 8.26667 34.1791 8.41333C34.0857 8.58667 33.9724 8.71333 33.8391 8.79333C33.6524 8.94 33.4324 9.01333 33.1791 9.01333C32.9791 9.01333 32.7924 8.96 32.6191 8.85333C32.4324 8.74667 32.2857 8.58 32.1791 8.35333C32.0724 8.12667 32.0191 7.92 32.0191 7.73333V5.57333C31.7924 5.57333 31.5591 5.56667 31.3191 5.55333C31.0924 5.52667 30.9057 5.5 30.7591 5.47333C30.3724 5.42 30.0524 5.30667 29.7991 5.13333C29.5591 4.94667 29.4724 4.63333 29.5391 4.19333C29.5924 3.9 29.6791 3.68 29.7991 3.53333C29.9324 3.37333 30.1457 3.28667 30.4391 3.27333C30.5324 3.27333 30.6191 3.27333 30.6991 3.27333C30.7924 3.26 30.8924 3.25333 30.9991 3.25333C31.1591 3.25333 31.3257 3.25333 31.4991 3.25333C31.6724 3.24 31.8457 3.23333 32.0191 3.23333V1.73333C32.0191 1.70667 32.0124 1.64 31.9991 1.53333C31.9991 1.42667 31.9991 1.31333 31.9991 1.19333C31.9991 1.06 32.0057 0.933333 32.0191 0.813333C32.0457 0.68 32.0791 0.573333 32.1191 0.493333C32.1857 0.373333 32.2857 0.273334 32.4191 0.193334C32.5524 0.1 32.7124 0.04 32.8991 0.0133337C33.1257 -0.0133334 33.3324 -2.64496e-07 33.5191 0.0533332C33.7191 0.106667 33.8724 0.193333 33.9791 0.313333C34.1657 0.513333 34.2857 0.72 34.3391 0.933334C34.3791 1.06667 34.3991 1.26 34.3991 1.51333C34.4124 1.76667 34.4124 1.96667 34.3991 2.11333V3.19333C34.3991 3.99333 34.3991 4.74 34.3991 5.43333C34.3991 6.11333 34.3924 6.80667 34.3791 7.51333Z" fill="white"/>
<path d="M55.0887 15.5733C54.9954 15.68 54.8887 15.76 54.7687 15.8133C54.6487 15.8667 54.5221 15.9 54.3888 15.9133C54.2554 15.9267 54.1154 15.9267 53.9688 15.9133C53.8354 15.9133 53.7087 15.9067 53.5887 15.8933C53.4821 15.88 53.3754 15.8533 53.2687 15.8133C53.1621 15.7867 53.0688 15.7333 52.9888 15.6533C52.9754 15.6533 52.9688 15.6467 52.9688 15.6333C52.8087 15.4733 52.7221 15.3 52.7088 15.1133C52.6954 14.9133 52.6888 14.7067 52.6888 14.4933V1.65333C52.6888 1.49333 52.6954 1.33333 52.7088 1.17333C52.7221 1.01333 52.7554 0.873334 52.8088 0.753334C52.8621 0.633334 52.9487 0.54 53.0687 0.473334C53.1887 0.393333 53.3488 0.353333 53.5488 0.353333C53.7488 0.353333 53.9754 0.346666 54.2288 0.333333C54.4821 0.306667 54.7021 0.353334 54.8888 0.473334C55.0354 0.566667 55.1288 0.666667 55.1688 0.773333C55.2088 0.88 55.2421 1.00667 55.2687 1.15333C55.3221 1.34 55.3421 1.58 55.3288 1.87333C55.3288 2.15333 55.3288 2.38667 55.3288 2.57333V12.4333C55.3288 12.8467 55.3221 13.2467 55.3088 13.6333C55.2954 14.0067 55.2954 14.4 55.3088 14.8133C55.3221 15.1067 55.2487 15.36 55.0887 15.5733Z" fill="white"/>
<path d="M85.2092 6.31333C85.4626 6.44667 85.7092 6.60667 85.9492 6.79333C86.1892 6.96667 86.4159 7.15333 86.6292 7.35333C86.7359 7.46 86.8092 7.59333 86.8492 7.75333C86.8892 7.91333 86.8892 8.07333 86.8492 8.23333C86.8226 8.39333 86.7559 8.54 86.6492 8.67333C86.5559 8.79333 86.4292 8.87333 86.2692 8.91333C85.8426 9.02 85.3959 9.01333 84.9292 8.89333C84.4759 8.77333 84.0559 8.62 83.6692 8.43333C83.3092 8.24667 82.9759 8.07333 82.6692 7.91333C82.3626 7.74 82.0559 7.56 81.7492 7.37333C81.6559 7.30667 81.5292 7.23333 81.3692 7.15333C81.2226 7.06 81.0759 6.96667 80.9292 6.87333C80.7559 6.76667 80.5692 6.66 80.3692 6.55333C80.1426 6.67333 79.9226 6.78667 79.7092 6.89333C79.5226 6.98667 79.3359 7.08 79.1492 7.17333C78.9759 7.25333 78.8359 7.32667 78.7292 7.39333C78.3826 7.59333 78.0626 7.76667 77.7692 7.91333C77.4759 8.06 77.1559 8.22667 76.8092 8.41333C76.5426 8.54667 76.2692 8.69333 75.9892 8.85333C75.7226 9 75.4359 9.06 75.1292 9.03333C74.8892 9.00667 74.6559 8.93333 74.4292 8.81333C74.2026 8.69333 74.0625 8.48667 74.0092 8.19333C73.9825 8.03333 73.9959 7.86 74.0492 7.67333C74.1026 7.44667 74.1892 7.26 74.3092 7.11333C74.4426 6.96667 74.6025 6.83333 74.7892 6.71333L76.1692 5.93333C76.3959 5.8 76.5959 5.69333 76.7692 5.61333C76.9426 5.52 77.1492 5.40667 77.3892 5.27333C77.6159 5.14 77.8759 4.99333 78.1692 4.83333C78.4759 4.66 78.7626 4.52 79.0292 4.41333V2.79333H76.9092C76.6959 2.79333 76.5092 2.8 76.3492 2.81333C76.2026 2.81333 76.0292 2.8 75.8292 2.77333C75.6825 2.74667 75.5226 2.73333 75.3492 2.73333C75.1759 2.73333 75.0159 2.69333 74.8692 2.61333C74.7226 2.53333 74.6025 2.39333 74.5092 2.19333C74.4292 2.04667 74.3826 1.87333 74.3692 1.67333C74.3559 1.47333 74.3826 1.29333 74.4492 1.13333C74.5559 0.893333 74.7292 0.713333 74.9692 0.593333C75.2092 0.473333 75.4559 0.413333 75.7092 0.413333H76.1692C76.3826 0.426666 76.5359 0.433333 76.6292 0.433333C76.7359 0.42 76.8959 0.413333 77.1092 0.413333H84.0292C84.2426 0.413333 84.4892 0.406667 84.7692 0.393334C85.0492 0.38 85.3159 0.399999 85.5692 0.453333C85.8359 0.506666 86.0692 0.606667 86.2692 0.753334C86.4826 0.9 86.6226 1.13333 86.6892 1.45333C86.7692 1.82667 86.7092 2.11333 86.5092 2.31333C86.3225 2.5 86.0759 2.64 85.7692 2.73333C85.4759 2.81333 85.1625 2.86 84.8292 2.87333C84.4959 2.87333 84.2226 2.86667 84.0092 2.85333C83.7959 2.84 83.5692 2.83333 83.3292 2.83333C83.1025 2.82 82.8826 2.81333 82.6692 2.81333C82.4292 2.81333 82.1892 2.82 81.9492 2.83333V4.45333C82.1359 4.56 82.3092 4.65333 82.4692 4.73333C82.5492 4.77333 82.6226 4.82 82.6892 4.87333C82.7692 4.91333 82.8492 4.96 82.9292 5.01333C83.0626 5.08 83.1892 5.14667 83.3092 5.21333C83.4426 5.28 83.5759 5.35333 83.7092 5.43333C83.9626 5.58 84.2092 5.72667 84.4492 5.87333C84.7026 6.02 84.9559 6.16667 85.2092 6.31333ZM74.9092 12.6133C74.6026 12.6 74.3092 12.56 74.0292 12.4933C73.7626 12.4133 73.5426 12.24 73.3692 11.9733C73.2226 11.7467 73.1492 11.5067 73.1492 11.2533C73.1625 10.9867 73.2626 10.76 73.4492 10.5733C73.5559 10.4667 73.6892 10.3867 73.8492 10.3333C74.0092 10.28 74.1626 10.24 74.3092 10.2133C74.4559 10.1867 74.5825 10.1733 74.6892 10.1733C74.8092 10.1733 74.8759 10.1733 74.8892 10.1733H85.7892C86.0026 10.16 86.2292 10.16 86.4692 10.1733C86.7226 10.1867 86.9559 10.2333 87.1692 10.3133C87.3826 10.38 87.5626 10.5 87.7092 10.6733C87.8559 10.8333 87.9292 11.06 87.9292 11.3533C87.9292 11.6867 87.8159 11.94 87.5892 12.1133C87.3626 12.2733 87.0892 12.3933 86.7692 12.4733C86.4626 12.54 86.1426 12.58 85.8092 12.5933C85.4759 12.5933 85.2026 12.5933 84.9892 12.5933H84.2092C83.9426 12.6067 83.6826 12.6133 83.4292 12.6133C83.1759 12.6 82.9159 12.5933 82.6492 12.5933H81.8892C81.9026 12.9667 81.9159 13.36 81.9292 13.7733C81.9426 14.1867 81.9225 14.5533 81.8692 14.8733C81.8426 15.1267 81.7759 15.3667 81.6692 15.5933C81.5759 15.8333 81.4159 16.0267 81.1892 16.1733C80.9892 16.3067 80.7559 16.3733 80.4892 16.3733C80.2226 16.3867 79.9826 16.3333 79.7692 16.2133C79.5959 16.1067 79.4626 15.9533 79.3692 15.7533C79.2892 15.5533 79.2359 15.36 79.2092 15.1733C79.1826 15.0267 79.1692 14.8667 79.1692 14.6933C79.1826 14.52 79.1892 14.36 79.1892 14.2133C79.1759 13.9733 79.1692 13.7133 79.1692 13.4333C79.1692 13.14 79.1692 12.8533 79.1692 12.5733H78.6692C78.2959 12.5733 77.9559 12.58 77.6492 12.5933C77.3559 12.5933 77.0692 12.6 76.7892 12.6133C76.5092 12.6133 76.2159 12.6133 75.9092 12.6133C75.6159 12.6133 75.2826 12.6133 74.9092 12.6133Z" fill="white"/>
<path d="M106.055 8.99333C105.988 8.99333 105.842 8.98667 105.615 8.97333C105.388 8.96 105.222 8.95333 105.115 8.95333C104.982 8.95333 104.855 8.95333 104.735 8.95333C104.628 8.94 104.522 8.92 104.415 8.89333C104.308 8.89333 104.202 8.88 104.095 8.85333C104.002 8.82667 103.902 8.79333 103.795 8.75333C103.622 8.66 103.482 8.54667 103.375 8.41333C103.308 8.32 103.248 8.23333 103.195 8.15333C103.155 8.07333 103.135 7.98 103.135 7.87333C103.108 7.71333 103.115 7.52667 103.155 7.31333C103.208 7.1 103.282 6.94 103.375 6.83333C103.415 6.76667 103.448 6.71333 103.475 6.67333C103.515 6.63333 103.562 6.58667 103.615 6.53333C103.695 6.46667 103.782 6.42 103.875 6.39333C103.968 6.35333 104.055 6.32 104.135 6.29333C104.282 6.26667 104.415 6.25333 104.535 6.25333C104.668 6.25333 104.795 6.25333 104.915 6.25333H106.095V4.81333C106.095 4.65333 106.088 4.50667 106.075 4.37333C106.062 4.24 106.055 4.1 106.055 3.95333C106.055 3.63333 106.055 3.32 106.055 3.01333C106.055 2.69333 106.068 2.37333 106.095 2.05333C106.095 1.85333 106.108 1.64667 106.135 1.43333C106.175 1.22 106.228 1.02 106.295 0.833333C106.348 0.673333 106.442 0.52 106.575 0.373333C106.748 0.213333 106.948 0.133333 107.175 0.133333H107.215C107.495 0.133333 107.722 0.186667 107.895 0.293334C108.068 0.386667 108.208 0.52 108.315 0.693333C108.435 0.853334 108.515 1.04 108.555 1.25333C108.608 1.46667 108.642 1.68 108.655 1.89333C108.695 2.24 108.715 2.6 108.715 2.97333C108.715 3.34667 108.715 3.71333 108.715 4.07333V12.8533C108.715 13.3067 108.722 13.7733 108.735 14.2533C108.748 14.72 108.682 15.1667 108.535 15.5933C108.468 15.7667 108.382 15.9067 108.275 16.0133C108.235 16.04 108.175 16.0733 108.095 16.1133C108.015 16.1533 107.935 16.1867 107.855 16.2133C107.775 16.24 107.695 16.26 107.615 16.2733C107.548 16.2867 107.482 16.2933 107.415 16.2933C107.108 16.2933 106.862 16.2 106.675 16.0133C106.502 15.84 106.368 15.6267 106.275 15.3733C106.182 15.1067 106.122 14.8333 106.095 14.5533C106.068 14.2733 106.055 14.0267 106.055 13.8133V13.0933C106.055 12.8533 106.055 12.5867 106.055 12.2933C106.055 11.9867 106.055 11.68 106.055 11.3733C106.068 11.0533 106.075 10.7467 106.075 10.4533C106.075 10.1467 106.068 9.86667 106.055 9.61333V8.99333ZM99.1552 12.7333C99.1418 12.5733 99.1352 12.4133 99.1352 12.2533C99.1352 12.0933 99.1352 11.9333 99.1352 11.7733V5.41333C99.1352 5.2 99.1352 4.98667 99.1352 4.77333C99.1352 4.56 99.1218 4.34 99.0952 4.11333C99.0818 4.04667 99.0618 3.95333 99.0352 3.83333C99.0218 3.71333 98.9818 3.64 98.9152 3.61333C98.8485 3.57333 98.7685 3.56 98.6752 3.57333C98.5952 3.57333 98.5152 3.56667 98.4352 3.55333C98.3418 3.54 98.2485 3.54 98.1552 3.55333C98.0752 3.56667 97.9885 3.56667 97.8952 3.55333H96.9552C96.7285 3.56667 96.5018 3.56667 96.2752 3.55333C96.0485 3.54 95.8218 3.54 95.5952 3.55333C95.4885 3.56667 95.3885 3.57333 95.2952 3.57333C95.2152 3.56 95.1218 3.55333 95.0152 3.55333C94.8685 3.55333 94.7152 3.54667 94.5552 3.53333C94.3952 3.52 94.2485 3.46667 94.1152 3.37333C93.9285 3.24 93.8018 3.07333 93.7352 2.87333C93.6685 2.67333 93.6352 2.46667 93.6352 2.25333C93.6218 2 93.6752 1.74667 93.7952 1.49333C93.8618 1.33333 93.9485 1.22 94.0552 1.15333C94.1218 1.08667 94.2152 1.03333 94.3352 0.993333C94.4685 0.94 94.5818 0.9 94.6752 0.873333C94.9552 0.806667 95.2485 0.773333 95.5552 0.773333C95.8618 0.76 96.1618 0.753334 96.4552 0.753334H99.9352C100.108 0.78 100.288 0.806666 100.475 0.833333C100.675 0.846667 100.855 0.886667 101.015 0.953333C101.122 0.993333 101.222 1.04667 101.315 1.11333C101.422 1.18 101.508 1.26 101.575 1.35333C101.695 1.54 101.762 1.72667 101.775 1.91333C101.802 2.1 101.828 2.30667 101.855 2.53333C101.882 2.90667 101.895 3.28 101.895 3.65333C101.895 4.01333 101.895 4.38 101.895 4.75333V11.3133C101.895 11.3267 101.895 11.4333 101.895 11.6333C101.908 11.82 101.915 12.0467 101.915 12.3133C101.915 12.5667 101.915 12.84 101.915 13.1333C101.915 13.4133 101.908 13.66 101.895 13.8733C101.882 14.0067 101.862 14.1467 101.835 14.2933C101.808 14.44 101.762 14.58 101.695 14.7133C101.642 14.8467 101.562 14.9667 101.455 15.0733C101.348 15.18 101.208 15.2667 101.035 15.3333C100.808 15.4267 100.582 15.4733 100.355 15.4733C100.182 15.4733 100.008 15.44 99.8352 15.3733C99.6618 15.2933 99.5418 15.18 99.4752 15.0333C99.2618 14.6067 99.1552 14.1333 99.1552 13.6133V12.7333Z" fill="white"/>
</svg>
