<svg width="112" height="18" viewBox="0 0 112 18" fill="none" xmlns="http://www.w3.org/2000/svg">
<path d="M13.32 13.2229C13.36 13.2362 13.4 13.2429 13.44 13.2429C13.48 13.2295 13.52 13.2229 13.56 13.2229C13.7867 13.2495 13.9933 13.2962 14.18 13.3629C14.38 13.4162 14.5733 13.5295 14.76 13.7029C14.9467 13.8629 15.04 14.0895 15.04 14.3829C15.04 14.5295 15.0133 14.6895 14.96 14.8629C14.92 15.0229 14.86 15.1495 14.78 15.2429C14.6733 15.3495 14.54 15.4295 14.38 15.4829C14.2333 15.5362 14.08 15.5762 13.92 15.6029C13.7733 15.6162 13.64 15.6229 13.52 15.6229C13.4133 15.6229 13.3533 15.6229 13.34 15.6229H2.54C2.47333 15.6229 2.40667 15.6295 2.34 15.6429C2.28667 15.6429 2.22667 15.6429 2.16 15.6429C1.86667 15.6562 1.56 15.6562 1.24 15.6429C0.92 15.6162 0.646667 15.5095 0.42 15.3229C0.14 15.0695 0 14.7829 0 14.4629C0 14.2629 0.06 14.0562 0.18 13.8429C0.3 13.6295 0.46 13.4829 0.66 13.4029C0.793333 13.3495 0.906667 13.3162 1 13.3029C1.10667 13.2762 1.20667 13.2562 1.3 13.2429C1.40667 13.2295 1.51333 13.2229 1.62 13.2229C1.74 13.2229 1.88667 13.2229 2.06 13.2229H2.64C2.62667 13.1695 2.62 13.0962 2.62 13.0029V9.80286C2.62 9.68286 2.64 9.55619 2.68 9.42286C2.70667 9.31619 2.75333 9.20286 2.82 9.08286C2.9 8.96286 3.01333 8.84952 3.16 8.74286C3.33333 8.62286 3.52667 8.54952 3.74 8.52286C3.95333 8.49619 4.15333 8.51619 4.34 8.58286C4.54 8.64952 4.70667 8.76286 4.84 8.92286C4.98667 9.06952 5.06667 9.25619 5.08 9.48286C5.08 9.60286 5.08 9.79619 5.08 10.0629C5.09333 10.3295 5.1 10.6362 5.1 10.9829C5.11333 11.3295 5.12 11.6962 5.12 12.0829C5.13333 12.4695 5.14 12.8429 5.14 13.2029C5.43333 13.2029 5.72 13.2095 6 13.2229C6.28 13.2229 6.56 13.2229 6.84 13.2229C6.82667 13.1695 6.82 13.0962 6.82 13.0029V9.80286C6.82 9.68286 6.84 9.55619 6.88 9.42286C6.90667 9.31619 6.95333 9.20286 7.02 9.08286C7.1 8.96286 7.21333 8.84952 7.36 8.74286C7.53333 8.62286 7.72667 8.54952 7.94 8.52286C8.15333 8.49619 8.35333 8.51619 8.54 8.58286C8.74 8.64952 8.90667 8.76286 9.04 8.92286C9.18667 9.06952 9.26667 9.25619 9.28 9.48286C9.28 9.60286 9.28 9.79619 9.28 10.0629C9.29333 10.3295 9.3 10.6362 9.3 10.9829C9.31333 11.3295 9.32 11.7029 9.32 12.1029C9.33333 12.4895 9.34 12.8629 9.34 13.2229C9.68667 13.2095 10.0933 13.2029 10.56 13.2029C11.04 13.2029 11.5067 13.2095 11.96 13.2229C12.2 13.2362 12.4333 13.2362 12.66 13.2229C12.8867 13.1962 13.1067 13.1962 13.32 13.2229ZM2.34 4.44286C2.11333 4.44286 1.85333 4.41619 1.56 4.36286C1.28 4.29619 1.06 4.14286 0.9 3.90286C0.806667 3.74286 0.746667 3.56286 0.72 3.36286C0.693333 3.16286 0.706667 2.96952 0.76 2.78286C0.866667 2.40952 1.11333 2.13619 1.5 1.96286C1.58 1.93619 1.66 1.90952 1.74 1.88286C1.82 1.85619 1.90667 1.82952 2 1.80286C2.25333 1.73619 2.46 1.70286 2.62 1.70286C2.79333 1.68952 3.01333 1.67619 3.28 1.66286C3.4 1.66286 3.49333 1.66286 3.56 1.66286C3.62667 1.66286 3.71333 1.65619 3.82 1.64286C3.92667 1.64286 4 1.64286 4.04 1.64286C4.08 1.62952 4.16 1.62286 4.28 1.62286C4.34667 1.62286 4.51333 1.62286 4.78 1.62286C5.04667 1.62286 5.35333 1.62286 5.7 1.62286C6.06 1.62286 6.44 1.62952 6.84 1.64286C7.24 1.64286 7.61333 1.64286 7.96 1.64286C8.32 1.64286 8.62667 1.64952 8.88 1.66286C9.14667 1.66286 9.31333 1.66286 9.38 1.66286C9.58 1.67619 9.78667 1.68286 10 1.68286C10.2133 1.68286 10.4267 1.68286 10.64 1.68286C10.88 1.68286 11.1133 1.68952 11.34 1.70286C11.58 1.71619 11.82 1.73619 12.06 1.76286C12.1667 1.78952 12.2733 1.80952 12.38 1.82286C12.5 1.83619 12.6133 1.87619 12.72 1.94286C12.8667 2.02286 12.98 2.14286 13.06 2.30286C13.14 2.44952 13.2 2.61619 13.24 2.80286C13.2933 2.97619 13.3267 3.15619 13.34 3.34286C13.3533 3.52952 13.36 3.69619 13.36 3.84286C13.36 4.02952 13.36 4.20952 13.36 4.38286C13.3733 4.55619 13.38 4.73619 13.38 4.92286C13.3933 5.17619 13.4 5.46952 13.4 5.80286C13.4 6.13619 13.3933 6.42952 13.38 6.68286C13.3667 7.22952 13.3533 7.76952 13.34 8.30286C13.34 8.82286 13.34 9.35619 13.34 9.90286C13.34 10.1162 13.32 10.3295 13.28 10.5429C13.24 10.7429 13.1533 10.9362 13.02 11.1229C12.8733 11.3095 12.6933 11.4429 12.48 11.5229C12.2667 11.5895 12.0467 11.5895 11.82 11.5229C11.5533 11.4562 11.3533 11.3429 11.22 11.1829C11.1 11.0095 11.0067 10.8162 10.94 10.6029C10.8867 10.3762 10.8533 10.1429 10.84 9.90286C10.8267 9.64952 10.8067 9.41619 10.78 9.20286C10.7 8.64286 10.66 8.09619 10.66 7.56286C10.6733 7.25619 10.6667 6.92286 10.64 6.56286C10.6133 6.18952 10.6 5.85619 10.6 5.56286C10.6 5.33619 10.5867 5.12286 10.56 4.92286C10.5333 4.70952 10.4267 4.54952 10.24 4.44286C10.16 4.40286 10.0667 4.38286 9.96 4.38286C9.85333 4.38286 9.72667 4.38286 9.58 4.38286H9.16C9.09333 4.39619 9.02667 4.40286 8.96 4.40286C8.89333 4.38952 8.82667 4.38286 8.76 4.38286H6.64C6.37333 4.38286 6.14 4.39619 5.94 4.42286C5.75333 4.43619 5.52667 4.44286 5.26 4.44286C4.99333 4.44286 4.75333 4.44286 4.54 4.44286C4.34 4.42952 4.10667 4.43619 3.84 4.46286C3.73333 4.47619 3.64667 4.47619 3.58 4.46286C3.52667 4.44952 3.44667 4.44286 3.34 4.44286H2.34Z" fill="white"/>
<path d="M23.0798 14.5829C23.0665 14.5829 23.0132 14.5695 22.9198 14.5429C22.8398 14.5162 22.7465 14.4762 22.6398 14.4229C22.5332 14.3695 22.4332 14.2962 22.3398 14.2029C22.2465 14.1095 22.1932 13.9895 22.1798 13.8429C22.0998 13.3495 22.1798 12.9495 22.4198 12.6429C22.5798 12.4562 22.7532 12.3495 22.9398 12.3229C23.1265 12.2829 23.2265 12.2629 23.2398 12.2629H24.7998C24.7865 12.2362 24.7798 12.1829 24.7798 12.1029C24.7532 11.8362 24.7465 11.5695 24.7598 11.3029C24.7865 11.0362 24.7998 10.7695 24.7998 10.5029L22.0598 10.3829C21.8465 10.3562 21.6732 10.3295 21.5398 10.3029C21.4198 10.2629 21.2732 10.1629 21.0998 10.0029C21.0065 9.92286 20.9398 9.81619 20.8998 9.68286C20.8598 9.54952 20.8398 9.40952 20.8398 9.26286C20.8398 8.98286 20.9265 8.75619 21.0998 8.58286C21.1932 8.47619 21.3198 8.39619 21.4798 8.34286C21.6398 8.28952 21.7932 8.24952 21.9398 8.22286C22.0865 8.19619 22.2132 8.18286 22.3198 8.18286C22.4398 8.18286 22.5065 8.18286 22.5198 8.18286H33.9598C34.1598 8.18286 34.3598 8.18286 34.5598 8.18286C34.7598 8.18286 34.9532 8.18952 35.1398 8.20286C35.3265 8.21619 35.5065 8.24286 35.6798 8.28286C35.8665 8.32286 36.0332 8.40952 36.1798 8.54286C36.3265 8.64952 36.4065 8.76952 36.4198 8.90286C36.4465 9.03619 36.4598 9.18286 36.4598 9.34286C36.4598 9.54286 36.3998 9.72286 36.2798 9.88286C36.1732 10.0429 36.0198 10.1562 35.8198 10.2229C35.5532 10.3295 35.2598 10.3962 34.9398 10.4229C34.6332 10.4362 34.3398 10.4495 34.0598 10.4629C33.9132 10.4762 33.7332 10.4829 33.5198 10.4829C33.3065 10.4829 33.0732 10.4895 32.8198 10.5029C32.7932 10.7962 32.7798 11.0895 32.7798 11.3829C32.7932 11.6629 32.7998 11.9562 32.7998 12.2629H33.1598C33.1732 12.2629 33.1865 12.2629 33.1998 12.2629C33.2132 12.2495 33.2332 12.2429 33.2598 12.2429C33.8065 12.2429 34.2265 12.3295 34.5198 12.5029C34.8265 12.6762 34.9798 12.9162 34.9798 13.2229V14.5829C34.9798 14.6495 34.9798 14.7229 34.9798 14.8029C34.9932 14.8695 34.9998 14.9362 34.9998 15.0029C34.9998 15.0695 34.9998 15.1695 34.9998 15.3029C34.9998 15.4362 34.9998 15.5762 34.9998 15.7229C34.9998 15.8562 34.9998 15.9895 34.9998 16.1229C34.9998 16.2562 34.9932 16.3629 34.9798 16.4429C34.9532 16.7229 34.8398 16.9495 34.6398 17.1229C34.4532 17.2962 34.2065 17.3829 33.8998 17.3829C33.7532 17.3829 33.6132 17.3629 33.4798 17.3229C33.2932 17.2695 33.1465 17.1895 33.0398 17.0829C32.9465 16.9762 32.8732 16.8562 32.8198 16.7229C32.7798 16.5895 32.7465 16.4495 32.7198 16.3029C32.7065 16.1429 32.6998 15.9895 32.6998 15.8429C32.6998 15.7895 32.6932 15.7029 32.6798 15.5829C32.6798 15.4629 32.6732 15.3429 32.6598 15.2229C32.6598 15.0895 32.6532 14.9695 32.6398 14.8629C32.6398 14.7562 32.6332 14.6762 32.6198 14.6229C32.5798 14.6095 32.4665 14.5962 32.2798 14.5829C32.1065 14.5695 31.7732 14.5629 31.2798 14.5629C31.0532 14.5629 30.8532 14.5695 30.6798 14.5829C30.5065 14.5829 30.3465 14.5829 30.1998 14.5829H23.0798ZM28.6998 7.24286C27.7398 7.24286 26.8398 7.20952 25.9998 7.14286C25.1732 7.07619 24.4532 6.92952 23.8398 6.70286C23.2398 6.46286 22.7665 6.12952 22.4198 5.70286C22.0732 5.26286 21.8998 4.67619 21.8998 3.94286C21.8998 3.27619 22.0732 2.72952 22.4198 2.30286C22.7665 1.87619 23.2398 1.54286 23.8398 1.30286C24.4532 1.04952 25.1732 0.87619 25.9998 0.782857C26.8398 0.689524 27.7398 0.642857 28.6998 0.642857C29.6598 0.642857 30.5532 0.67619 31.3798 0.742857C32.2198 0.809524 32.9398 0.95619 33.5398 1.18286C34.1532 1.40952 34.6332 1.74286 34.9798 2.18286C35.3265 2.60952 35.4998 3.19619 35.4998 3.94286C35.4998 4.67619 35.3265 5.26286 34.9798 5.70286C34.6332 6.12952 34.1532 6.46286 33.5398 6.70286C32.9398 6.92952 32.2198 7.07619 31.3798 7.14286C30.5532 7.20952 29.6598 7.24286 28.6998 7.24286ZM28.6998 2.88286C28.2065 2.88286 27.7132 2.88952 27.2198 2.90286C26.7398 2.91619 26.3065 2.96286 25.9198 3.04286C25.5332 3.10952 25.2198 3.21619 24.9798 3.36286C24.7398 3.49619 24.6198 3.68952 24.6198 3.94286C24.6198 4.39619 24.9798 4.70286 25.6998 4.86286C26.4332 5.00952 27.4332 5.06952 28.6998 5.04286C29.1932 5.04286 29.6798 5.04286 30.1598 5.04286C30.6532 5.02952 31.0932 4.99619 31.4798 4.94286C31.8665 4.87619 32.1798 4.76952 32.4198 4.62286C32.6598 4.46286 32.7798 4.23619 32.7798 3.94286C32.7798 3.68952 32.6598 3.49619 32.4198 3.36286C32.1798 3.21619 31.8665 3.10952 31.4798 3.04286C31.0932 2.96286 30.6532 2.91619 30.1598 2.90286C29.6798 2.88952 29.1932 2.88286 28.6998 2.88286ZM27.5598 10.5429C27.5865 10.8362 27.5798 11.1095 27.5398 11.3629C27.5132 11.6162 27.4998 11.9162 27.4998 12.2629H30.0798V12.1429C30.0532 11.9429 30.0398 11.6962 30.0398 11.4029C30.0532 11.0962 30.0665 10.8095 30.0798 10.5429H27.5598Z" fill="white"/>
<path d="M56.8809 16.4429C56.7876 16.5495 56.6809 16.6295 56.5609 16.6829C56.4409 16.7362 56.3143 16.7695 56.1809 16.7829C56.0476 16.7962 55.9076 16.7962 55.7609 16.7829C55.6276 16.7829 55.5009 16.7762 55.3809 16.7629C55.2743 16.7495 55.1676 16.7229 55.0609 16.6829C54.9543 16.6562 54.8609 16.6029 54.7809 16.5229C54.7676 16.5229 54.7609 16.5162 54.7609 16.5029C54.6009 16.3429 54.5143 16.1695 54.5009 15.9829C54.4876 15.7829 54.4809 15.5762 54.4809 15.3629V2.52286C54.4809 2.36286 54.4876 2.20286 54.5009 2.04286C54.5143 1.88286 54.5476 1.74286 54.6009 1.62286C54.6543 1.50286 54.7409 1.40952 54.8609 1.34286C54.9809 1.26286 55.1409 1.22286 55.3409 1.22286C55.5409 1.22286 55.7676 1.21619 56.0209 1.20286C56.2743 1.17619 56.4943 1.22286 56.6809 1.34286C56.8276 1.43619 56.9209 1.53619 56.9609 1.64286C57.0009 1.74952 57.0343 1.87619 57.0609 2.02286C57.1143 2.20952 57.1343 2.44952 57.1209 2.74286C57.1209 3.02286 57.1209 3.25619 57.1209 3.44286V13.3029C57.1209 13.7162 57.1143 14.1162 57.1009 14.5029C57.0876 14.8762 57.0876 15.2695 57.1009 15.6829C57.1143 15.9762 57.0409 16.2295 56.8809 16.4429Z" fill="white"/>
<path d="M84.3014 6.44286C84.5281 6.70952 84.7481 6.98286 84.9614 7.26286C85.1747 7.52952 85.3214 7.80952 85.4014 8.10286C85.4281 8.23619 85.4281 8.37619 85.4014 8.52286C85.3747 8.66952 85.3014 8.79619 85.1814 8.90286C84.9814 9.03619 84.7681 9.10286 84.5414 9.10286C84.2881 9.10286 84.0414 9.04286 83.8014 8.92286C83.5747 8.80286 83.3881 8.68286 83.2414 8.56286C83.0147 8.36286 82.8147 8.17619 82.6414 8.00286C82.4681 7.81619 82.2881 7.62286 82.1014 7.42286C81.9547 7.26286 81.8014 7.10286 81.6414 6.94286C81.4814 6.76952 81.3347 6.58952 81.2014 6.40286L79.1814 8.38286C78.9681 8.60952 78.7414 8.76952 78.5014 8.86286C78.2614 8.94286 78.0347 8.98286 77.8214 8.98286C77.7547 8.98286 77.6547 8.96952 77.5214 8.94286C77.2681 8.87619 77.0947 8.75619 77.0014 8.58286C76.9214 8.43619 76.8947 8.26952 76.9214 8.08286C76.9481 7.89619 77.0014 7.72952 77.0814 7.58286C77.1747 7.42286 77.2747 7.27619 77.3814 7.14286C77.5014 7.00952 77.6214 6.86952 77.7414 6.72286C78.0881 6.33619 78.4281 5.96952 78.7614 5.62286C79.0947 5.26286 79.4547 4.88286 79.8414 4.48286L79.8214 3.86286C79.7147 3.87619 79.5814 3.88286 79.4214 3.88286C79.2614 3.86952 79.0681 3.86286 78.8414 3.86286C78.6947 3.86286 78.5281 3.86952 78.3414 3.88286C78.1547 3.89619 77.9681 3.88952 77.7814 3.86286C77.6081 3.83619 77.4481 3.78286 77.3014 3.70286C77.1547 3.60952 77.0414 3.46286 76.9614 3.26286C76.8947 3.11619 76.8547 2.94952 76.8414 2.76286C76.8281 2.57619 76.8414 2.40286 76.8814 2.24286C76.9214 2.05619 77.0214 1.92952 77.1814 1.86286C77.3547 1.78286 77.5147 1.72952 77.6614 1.70286C77.7947 1.67619 77.9147 1.66286 78.0214 1.66286C78.0614 1.66286 78.1014 1.66952 78.1414 1.68286C78.1814 1.68286 78.2214 1.68286 78.2614 1.68286H79.8814C79.8947 1.52286 79.9014 1.34952 79.9014 1.16286C79.9147 0.962857 79.9547 0.79619 80.0214 0.662857C80.1414 0.396191 80.3547 0.209524 80.6614 0.102857C80.8881 0.0228572 81.1014 -0.0104761 81.3014 0.00285708C81.5014 0.0161902 81.6747 0.0695237 81.8214 0.162857C81.9814 0.242857 82.1081 0.35619 82.2014 0.502857C82.2947 0.636191 82.3414 0.776191 82.3414 0.922857C82.3414 0.949523 82.3414 1.00286 82.3414 1.08286C82.3547 1.14952 82.3614 1.22286 82.3614 1.30286C82.3614 1.38286 82.3614 1.46286 82.3614 1.54286C82.3614 1.62286 82.3614 1.66952 82.3614 1.68286H83.5214C83.9881 1.68286 84.3614 1.71619 84.6414 1.78286C84.9214 1.83619 85.1547 1.99619 85.3414 2.26286C85.3947 2.34286 85.4347 2.45619 85.4614 2.60286C85.4881 2.73619 85.4881 2.87619 85.4614 3.02286C85.4481 3.15619 85.4147 3.28286 85.3614 3.40286C85.3081 3.52286 85.2414 3.60952 85.1614 3.66286C85.0547 3.70286 84.9347 3.74952 84.8014 3.80286C84.6814 3.84286 84.5681 3.86286 84.4614 3.86286C84.3014 3.87619 84.1547 3.88286 84.0214 3.88286C83.9014 3.86952 83.7614 3.86286 83.6014 3.86286C83.3614 3.86286 83.1747 3.86952 83.0414 3.88286C82.9081 3.88286 82.7481 3.87619 82.5614 3.86286V4.48286C82.6281 4.53619 82.7147 4.64286 82.8214 4.80286C82.9281 4.96286 83.0347 5.09619 83.1414 5.20286C83.2481 5.30952 83.3614 5.42952 83.4814 5.56286C83.6014 5.68286 83.7281 5.81619 83.8614 5.96286C83.9547 6.05619 84.0347 6.14286 84.1014 6.22286C84.1681 6.30286 84.2347 6.37619 84.3014 6.44286ZM89.8614 16.5429C89.7947 16.7162 89.6681 16.8562 89.4814 16.9629C89.3347 17.0562 89.1747 17.1095 89.0014 17.1229C88.8281 17.1495 88.6547 17.1495 88.4814 17.1229C88.2814 17.0829 88.1147 17.0029 87.9814 16.8829C87.8614 16.7762 87.7681 16.6362 87.7014 16.4629C87.6481 16.3029 87.6014 16.1429 87.5614 15.9829C87.5347 15.8229 87.5214 15.6829 87.5214 15.5629C87.5214 15.4429 87.5214 15.3829 87.5214 15.3829V3.20286C87.5214 3.05619 87.5214 2.88952 87.5214 2.70286C87.5214 2.51619 87.5347 2.32952 87.5614 2.14286C87.5881 1.95619 87.6214 1.78952 87.6614 1.64286C87.7147 1.48286 87.7881 1.35619 87.8814 1.26286C88.0281 1.11619 88.1814 1.02952 88.3414 1.00286C88.5014 0.97619 88.6747 0.962857 88.8614 0.962857C89.0881 0.962857 89.2947 1.02286 89.4814 1.14286C89.6681 1.26286 89.8014 1.42952 89.8814 1.64286C90.0014 1.92286 90.0681 2.21619 90.0814 2.52286C90.0947 2.81619 90.1081 3.11619 90.1214 3.42286C90.1481 4.48952 90.1547 5.55619 90.1414 6.62286C90.1281 7.68952 90.1214 8.69619 90.1214 9.64286V14.6429C90.1214 14.9495 90.1014 15.2629 90.0614 15.5829C90.0347 15.8895 89.9681 16.2095 89.8614 16.5429ZM76.5014 12.3229C76.3147 12.3095 76.1281 12.2762 75.9414 12.2229C75.7547 12.1562 75.5814 12.0362 75.4214 11.8629C75.2614 11.7029 75.1814 11.4695 75.1814 11.1629C75.1814 10.8829 75.2614 10.6495 75.4214 10.4629C75.5147 10.3562 75.6281 10.2762 75.7614 10.2229C75.9081 10.1695 76.0481 10.1295 76.1814 10.1029C76.3147 10.0762 76.4281 10.0629 76.5214 10.0629C76.6281 10.0629 76.6881 10.0629 76.7014 10.0629H84.5614C84.8281 10.0629 85.1081 10.0762 85.4014 10.1029C85.6947 10.1295 85.9414 10.2362 86.1414 10.4229C86.2614 10.5429 86.3414 10.6695 86.3814 10.8029C86.4347 10.9362 86.4614 11.0829 86.4614 11.2429C86.4614 11.4429 86.4147 11.6295 86.3214 11.8029C86.2281 11.9629 86.0881 12.0762 85.9014 12.1429C85.6614 12.2495 85.4147 12.3162 85.1614 12.3429C84.9081 12.3562 84.6547 12.3695 84.4014 12.3829C84.0147 12.3962 83.7147 12.4095 83.5014 12.4229C83.2881 12.4362 83.1081 12.4495 82.9614 12.4629C82.8281 12.4629 82.6947 12.4629 82.5614 12.4629C82.4414 12.4629 82.2681 12.4629 82.0414 12.4629L82.0214 15.4629C82.0214 15.8495 81.9014 16.1829 81.6614 16.4629C81.4214 16.7429 81.1147 16.8695 80.7414 16.8429C80.5947 16.8295 80.4547 16.8029 80.3214 16.7629C80.1881 16.7229 80.0681 16.6562 79.9614 16.5629C79.8547 16.4829 79.7681 16.3695 79.7014 16.2229C79.6347 16.0629 79.6014 15.8562 79.6014 15.6029L79.5414 12.4429C79.0214 12.4295 78.5347 12.4162 78.0814 12.4029C77.6281 12.3762 77.1014 12.3495 76.5014 12.3229Z" fill="white"/>
<path d="M98.343 9.00286C97.7296 8.64286 97.323 8.10952 97.123 7.40286C97.003 7.09619 96.9096 6.77619 96.843 6.44286C96.7896 6.09619 96.763 5.75619 96.763 5.42286C96.763 4.72952 96.883 4.06952 97.123 3.44286C97.2563 3.14952 97.4163 2.87619 97.603 2.62286C97.803 2.36952 98.0363 2.13619 98.303 1.92286C98.543 1.72286 98.7963 1.55619 99.063 1.42286C99.3296 1.28952 99.5963 1.18286 99.863 1.10286C100.17 1.02286 100.463 0.969524 100.743 0.942857C101.023 0.902857 101.296 0.896191 101.563 0.922857C101.723 0.93619 101.856 0.942857 101.963 0.942857C102.07 0.942857 102.176 0.95619 102.283 0.982858C102.376 0.982858 102.463 0.996191 102.543 1.02286C102.636 1.03619 102.73 1.04952 102.823 1.06286C102.93 1.08952 103.023 1.11619 103.103 1.14286C103.183 1.16952 103.263 1.19619 103.343 1.22286C103.503 1.26286 103.696 1.35619 103.923 1.50286C104.323 1.71619 104.656 1.96286 104.923 2.24286C105.19 2.52286 105.416 2.83619 105.603 3.18286C105.763 3.56952 105.876 3.98286 105.943 4.42286C106.01 4.86286 106.036 5.32952 106.023 5.82286C105.916 7.14286 105.536 8.12286 104.883 8.76286C104.216 9.38952 103.19 9.70286 101.803 9.70286H100.863C100.716 9.70286 100.576 9.70286 100.443 9.70286C100.323 9.70286 100.183 9.68952 100.023 9.66286C99.8096 9.64952 99.5496 9.58286 99.243 9.46286C99.0963 9.42286 98.9496 9.36286 98.803 9.28286C98.6563 9.20286 98.503 9.10952 98.343 9.00286ZM100.463 10.9629C100.476 10.9895 100.496 11.0762 100.523 11.2229C100.563 11.3562 100.596 11.5029 100.623 11.6629C100.65 11.8095 100.67 11.9495 100.683 12.0829C100.71 12.2029 100.716 12.2629 100.703 12.2629C100.716 12.2762 100.743 12.2895 100.783 12.3029C100.823 12.3162 100.89 12.3229 100.983 12.3229H109.003V11.5829C109.003 11.3562 109.056 11.1629 109.163 11.0029C109.296 10.8295 109.49 10.7229 109.743 10.6829C110.223 10.6029 110.57 10.6562 110.783 10.8429C111.01 11.0162 111.156 11.2629 111.223 11.5829C111.303 11.9029 111.33 12.2562 111.303 12.6429C111.29 13.0295 111.29 13.3762 111.303 13.6829C111.33 13.9895 111.33 14.3029 111.303 14.6229C111.29 14.9295 111.27 15.2429 111.243 15.5629C111.203 15.9495 111.11 16.2429 110.963 16.4429C110.816 16.6429 110.63 16.7829 110.403 16.8629C110.19 16.9429 109.943 16.9829 109.663 16.9829C109.383 16.9962 109.09 17.0029 108.783 17.0029H107.963C107.736 17.0295 107.503 17.0429 107.263 17.0429C107.023 17.0562 106.756 17.0629 106.463 17.0629C106.183 17.0629 105.883 17.0562 105.563 17.0429C105.243 17.0429 104.93 17.0295 104.623 17.0029H102.763C102.416 17.0029 102.07 17.0095 101.723 17.0229C101.376 17.0362 101.016 17.0295 100.643 17.0029C100.536 17.0029 100.403 17.0029 100.243 17.0029C100.096 17.0162 99.9363 17.0162 99.763 17.0029C99.603 17.0029 99.443 16.9829 99.283 16.9429C99.123 16.9029 98.9963 16.8429 98.903 16.7629C98.783 16.6962 98.6763 16.5629 98.583 16.3629C98.5296 16.2429 98.483 16.1429 98.443 16.0629C98.4163 15.9829 98.383 15.9029 98.343 15.8229C98.263 15.4362 98.223 15.0229 98.223 14.5829C98.223 14.1429 98.223 13.7362 98.223 13.3629V12.7429C98.223 12.5029 98.2163 12.2362 98.203 11.9429C98.203 11.6495 98.2496 11.3762 98.343 11.1229C98.383 11.0429 98.4296 10.9695 98.483 10.9029C98.5496 10.8229 98.6296 10.7629 98.723 10.7229C99.0163 10.6162 99.3296 10.5629 99.663 10.5629C100.01 10.5629 100.276 10.6962 100.463 10.9629ZM108.723 4.44286C108.803 4.42952 108.863 4.42286 108.903 4.42286C108.956 4.42286 108.99 4.42286 109.003 4.42286V2.34286C109.003 2.24952 109.01 2.16952 109.023 2.10286C109.036 2.03619 109.056 1.96286 109.083 1.88286C109.083 1.81619 109.09 1.75619 109.103 1.70286C109.13 1.64952 109.15 1.60952 109.163 1.58286C109.163 1.54286 109.183 1.49619 109.223 1.44286C109.276 1.38952 109.316 1.32952 109.343 1.26286C109.423 1.15619 109.576 1.06286 109.803 0.982858C109.896 0.95619 109.99 0.942857 110.083 0.942857C110.19 0.942857 110.31 0.942857 110.443 0.942857C110.643 0.99619 110.81 1.06286 110.943 1.14286C111.09 1.22286 111.19 1.32952 111.243 1.46286C111.27 1.54286 111.296 1.63619 111.323 1.74286C111.363 1.83619 111.383 1.93619 111.383 2.04286C111.41 2.16286 111.423 2.26952 111.423 2.36286C111.423 2.44286 111.423 2.48952 111.423 2.50286V8.12286C111.423 8.44286 111.416 8.73619 111.403 9.00286C111.403 9.25619 111.316 9.51619 111.143 9.78286C111.116 9.86286 111.07 9.92952 111.003 9.98286C110.95 10.0229 110.89 10.0562 110.823 10.0829C110.716 10.1495 110.616 10.1962 110.523 10.2229C110.43 10.2495 110.33 10.2629 110.223 10.2629C110.036 10.2629 109.823 10.1962 109.583 10.0629C109.503 9.99619 109.43 9.92952 109.363 9.86286C109.31 9.78286 109.256 9.70952 109.203 9.64286C109.176 9.57619 109.15 9.50286 109.123 9.42286C109.096 9.34286 109.083 9.26952 109.083 9.20286C109.056 9.12286 109.043 9.04952 109.043 8.98286C109.043 8.91619 109.03 8.84286 109.003 8.76286V6.74286H108.563C108.403 6.72952 108.236 6.72286 108.063 6.72286C107.89 6.72286 107.723 6.70952 107.563 6.68286C107.403 6.65619 107.25 6.61619 107.103 6.56286C106.956 6.49619 106.836 6.38952 106.743 6.24286C106.676 6.09619 106.643 5.91619 106.643 5.70286C106.643 5.48952 106.67 5.30952 106.723 5.16286C106.723 4.98952 106.783 4.86952 106.903 4.80286C107.01 4.69619 107.136 4.62286 107.283 4.58286C107.443 4.52952 107.603 4.49619 107.763 4.48286C107.936 4.45619 108.103 4.44286 108.263 4.44286C108.436 4.44286 108.59 4.44286 108.723 4.44286ZM99.203 5.16286C99.1363 5.42952 99.1363 5.69619 99.203 5.96286C99.2296 6.10952 99.263 6.24286 99.303 6.36286C99.3563 6.48286 99.4163 6.59619 99.483 6.70286C99.5896 6.80952 99.6896 6.91619 99.783 7.02286C99.8763 7.11619 99.9963 7.19619 100.143 7.26286C100.396 7.40952 100.71 7.50286 101.083 7.54286C101.363 7.58286 101.643 7.58286 101.923 7.54286C102.043 7.51619 102.163 7.49619 102.283 7.48286C102.416 7.45619 102.536 7.40952 102.643 7.34286C102.896 7.20952 103.096 7.04286 103.243 6.84286C103.323 6.70952 103.39 6.58286 103.443 6.46286C103.51 6.32952 103.556 6.18952 103.583 6.04286C103.583 5.90952 103.583 5.78286 103.583 5.66286C103.583 5.52952 103.57 5.38952 103.543 5.24286C103.543 5.00286 103.496 4.78286 103.403 4.58286C103.35 4.38286 103.236 4.18952 103.063 4.00286C102.97 3.90952 102.863 3.82952 102.743 3.76286C102.636 3.69619 102.516 3.62952 102.383 3.56286C102.076 3.48286 101.75 3.44286 101.403 3.44286C101.243 3.44286 101.083 3.45619 100.923 3.48286C100.763 3.50952 100.61 3.55619 100.463 3.62286C100.303 3.68952 100.156 3.76952 100.023 3.86286C99.8896 3.95619 99.7763 4.06286 99.683 4.18286C99.5496 4.30286 99.4496 4.44286 99.383 4.60286C99.3163 4.74952 99.2563 4.93619 99.203 5.16286ZM100.903 14.1429C100.823 14.1429 100.736 14.1695 100.643 14.2229C100.563 14.2895 100.523 14.3629 100.523 14.4429C100.523 14.6162 100.536 14.7229 100.563 14.7629C100.59 14.8695 100.63 14.9562 100.683 15.0229C100.736 15.0762 100.796 15.1029 100.863 15.1029H102.583C102.81 15.1029 103.016 15.1095 103.203 15.1229C103.403 15.1229 103.61 15.1362 103.823 15.1629H104.223C104.343 15.1629 104.463 15.1629 104.583 15.1629C104.716 15.1495 104.856 15.1295 105.003 15.1029H107.883C108.03 15.1029 108.216 15.1162 108.443 15.1429C108.67 15.1562 108.85 15.0962 108.983 14.9629C109.076 14.8562 109.11 14.7229 109.083 14.5629C109.07 14.4029 109.043 14.2629 109.003 14.1429C109.003 14.1295 108.963 14.1229 108.883 14.1229C108.816 14.1229 108.736 14.1229 108.643 14.1229C108.563 14.1229 108.476 14.1295 108.383 14.1429C108.303 14.1429 108.25 14.1429 108.223 14.1429H101.683C101.616 14.1429 101.55 14.1429 101.483 14.1429C101.43 14.1429 101.363 14.1295 101.283 14.1029C101.216 14.1029 101.15 14.1029 101.083 14.1029C101.03 14.1029 100.97 14.1162 100.903 14.1429Z" fill="white"/>
</svg>
