<svg width="112" height="18" viewBox="0 0 112 18" fill="none" xmlns="http://www.w3.org/2000/svg">
<path d="M1.64 16.8529C1.62667 16.8529 1.60667 16.8395 1.58 16.8129C1.44667 16.7062 1.35333 16.5529 1.3 16.3529C1.26 16.1395 1.24 15.9595 1.24 15.8129C1.22667 15.5729 1.20667 15.3329 1.18 15.0929C1.16667 14.8529 1.16 14.6195 1.16 14.3929C1.16 14.0462 1.16 13.7062 1.16 13.3729C1.16 13.0395 1.19333 12.7062 1.26 12.3729C1.3 12.1595 1.36667 11.9929 1.46 11.8729C1.55333 11.7395 1.7 11.6329 1.9 11.5529C2.27333 11.4062 2.64667 11.3329 3.02 11.3329H12.24C12.4933 11.3462 12.7533 11.3662 13.02 11.3929C13.2867 11.4195 13.54 11.4862 13.78 11.5929C14.0467 11.6995 14.22 11.8795 14.3 12.1329C14.3933 12.3729 14.4533 12.6262 14.48 12.8929C14.4933 13.1195 14.5 13.3862 14.5 13.6929C14.5133 13.9862 14.5133 14.2862 14.5 14.5929C14.4867 14.8995 14.4667 15.2062 14.44 15.5129C14.4133 15.8062 14.3667 16.0729 14.3 16.3129C14.26 16.4595 14.2133 16.5862 14.16 16.6929C14.1067 16.8129 14 16.8995 13.84 16.9529C13.6933 17.0062 13.54 17.0395 13.38 17.0529C13.2333 17.0662 13.0867 17.0729 12.94 17.0729L2.72 17.0329C2.54667 17.0195 2.36 17.0129 2.16 17.0129C1.96 17.0129 1.78667 16.9595 1.64 16.8529ZM7.32 1.51286C8.12 1.93952 8.68667 2.52619 9.02 3.27286C9.36667 4.01952 9.5 4.91286 9.42 5.95286C9.34 7.28619 8.96 8.27952 8.28 8.93286C7.61333 9.58619 6.58667 9.91286 5.2 9.91286C4.84 9.91286 4.50667 9.91952 4.2 9.93286C3.90667 9.93286 3.62667 9.91286 3.36 9.87286C3.09333 9.83286 2.82 9.76619 2.54 9.67286C2.26 9.56619 1.96 9.40619 1.64 9.19286C1.01333 8.77952 0.58 8.23952 0.34 7.57286C0.113333 6.90619 0 6.21952 0 5.51286C0 4.80619 0.126667 4.14619 0.38 3.53286C0.633333 2.90619 1.04667 2.37286 1.62 1.93286C2.08667 1.55952 2.60667 1.28619 3.18 1.11286C3.76667 0.939524 4.35333 0.879523 4.94 0.932857C5.20667 0.959524 5.43333 0.986191 5.62 1.01286C5.82 1.02619 6.00667 1.05286 6.18 1.09286C6.35333 1.13286 6.52667 1.18619 6.7 1.25286C6.87333 1.31952 7.08 1.40619 7.32 1.51286ZM14.6 8.89286C14.6 8.89286 14.5933 8.93952 14.58 9.03286C14.5667 9.12619 14.54 9.23286 14.5 9.35286C14.46 9.47286 14.4 9.59952 14.32 9.73286C14.24 9.85286 14.1333 9.95286 14 10.0329C13.8133 10.1395 13.6267 10.1929 13.44 10.1929C13.2133 10.1929 12.9933 10.1195 12.78 9.97286C12.6333 9.86619 12.52 9.72619 12.44 9.55286C12.3333 9.35286 12.26 9.13286 12.22 8.89286C12.1933 8.65286 12.1733 8.40619 12.16 8.15286C12.16 7.89952 12.1667 7.65286 12.18 7.41286C12.1933 7.15952 12.2 6.91952 12.2 6.69286C12.2133 6.11952 12.22 5.55286 12.22 4.99286C12.22 4.41952 12.22 3.85286 12.22 3.29286V3.03286C12.2067 2.88619 12.2 2.73286 12.2 2.57286C12.2133 2.39952 12.24 2.23952 12.28 2.09286C12.3333 1.89286 12.4533 1.67952 12.64 1.45286C12.7467 1.31952 12.8933 1.22619 13.08 1.17286C13.28 1.10619 13.4933 1.08619 13.72 1.11286C14.12 1.17952 14.3867 1.35286 14.52 1.63286C14.6 1.80619 14.6333 2.01952 14.62 2.27286C14.62 2.52619 14.6133 2.67952 14.6 2.73286V8.89286ZM7.04 6.17286C7.04 5.87952 7.02667 5.60619 7 5.35286C6.97333 5.08619 6.91333 4.84619 6.82 4.63286C6.74 4.40619 6.61333 4.20619 6.44 4.03286C6.26667 3.85952 6.04 3.71952 5.76 3.61286C5.45333 3.50619 5.12 3.45286 4.76 3.45286C4.4 3.45286 4.06 3.51952 3.74 3.65286C3.42 3.77286 3.14 3.96619 2.9 4.23286C2.66 4.48619 2.50667 4.81952 2.44 5.23286C2.4 5.51286 2.4 5.79952 2.44 6.09286C2.49333 6.37286 2.59333 6.63286 2.74 6.87286C2.9 7.09952 3.11333 7.29286 3.38 7.45286C3.66 7.61286 4.00667 7.71286 4.42 7.75286C4.7 7.77952 4.98 7.77952 5.26 7.75286C5.54 7.71286 5.8 7.63286 6.04 7.51286C6.28 7.39286 6.48667 7.22619 6.66 7.01286C6.83333 6.78619 6.96 6.50619 7.04 6.17286ZM3.54 14.5129C3.54 14.5795 3.54 14.6462 3.54 14.7129C3.55333 14.7662 3.58 14.8062 3.62 14.8329C3.64667 14.8595 3.68667 14.8795 3.74 14.8929C3.80667 14.8929 3.87333 14.8929 3.94 14.8929C4.00667 14.8929 4.08667 14.8862 4.18 14.8729H10.24C10.4267 14.8862 10.6067 14.8995 10.78 14.9129C10.9267 14.9262 11.08 14.9329 11.24 14.9329C11.4 14.9329 11.5467 14.9195 11.68 14.8929C11.8133 14.8795 11.8933 14.8462 11.92 14.7929C11.9467 14.7262 11.9667 14.6329 11.98 14.5129C11.9933 14.4062 12 14.2862 12 14.1529C12 14.0062 11.96 13.8795 11.88 13.7729C11.7867 13.6662 11.6533 13.6129 11.48 13.6129C11.32 13.5995 11.1733 13.5995 11.04 13.6129H5.68C5.38667 13.5862 5.1 13.5795 4.82 13.5929C4.54 13.5929 4.25333 13.5995 3.96 13.6129C3.85333 13.6129 3.76667 13.6195 3.7 13.6329C3.64667 13.6329 3.60667 13.6929 3.58 13.8129C3.55333 13.9062 3.54 13.9995 3.54 14.0929C3.54 14.1729 3.54 14.2529 3.54 14.3329C3.55333 14.3595 3.55333 14.3862 3.54 14.4129C3.54 14.4395 3.54 14.4729 3.54 14.5129Z" fill="white"/>
<path d="M34.4686 14.6929C34.4686 14.6929 34.5086 14.7062 34.5886 14.7329C34.6819 14.7595 34.7819 14.8062 34.8886 14.8729C34.9953 14.9262 35.0953 15.0062 35.1886 15.1129C35.2819 15.2062 35.3419 15.3195 35.3686 15.4529C35.4353 15.9595 35.3486 16.3529 35.1086 16.6329C34.9486 16.8195 34.7753 16.9329 34.5886 16.9729C34.4019 17.0129 34.3019 17.0329 34.2886 17.0329H24.0886C23.5419 17.0329 23.1153 16.9462 22.8086 16.7729C22.5019 16.6129 22.3486 16.3795 22.3486 16.0729V13.2929C22.3353 13.1462 22.3286 12.9529 22.3286 12.7129C22.3286 12.4595 22.3353 12.2595 22.3486 12.1129C22.3753 11.8329 22.5086 11.6062 22.7486 11.4329C22.9886 11.2595 23.2619 11.1729 23.5686 11.1729C23.6353 11.1729 23.7153 11.1795 23.8086 11.1929C23.9153 11.1929 24.0019 11.2062 24.0686 11.2329C24.2419 11.2862 24.3819 11.3795 24.4886 11.5129C24.5953 11.6329 24.6753 11.7729 24.7286 11.9329C24.7819 12.0929 24.8153 12.2662 24.8286 12.4529C24.8419 12.6262 24.8553 12.7862 24.8686 12.9329C24.8686 12.9862 24.8686 13.0995 24.8686 13.2729C24.8686 13.4462 24.8686 13.6329 24.8686 13.8329C24.8686 14.0195 24.8686 14.1929 24.8686 14.3529C24.8686 14.5129 24.8686 14.6129 24.8686 14.6529C24.9086 14.6662 25.0153 14.6862 25.1886 14.7129C25.3753 14.7262 25.7153 14.7329 26.2086 14.7329C26.6353 14.7329 27.0153 14.7262 27.3486 14.7129C27.6819 14.6995 27.8553 14.6929 27.8686 14.6929H34.4686ZM21.3686 10.0729C21.1819 9.99286 21.0486 9.83952 20.9686 9.61286C20.8619 9.34619 20.8419 9.07952 20.9086 8.81286C20.9886 8.54619 21.1086 8.29286 21.2686 8.05286C21.4286 7.81286 21.6086 7.58619 21.8086 7.37286C22.0219 7.15952 22.2019 6.95952 22.3486 6.77286C22.5753 6.49286 22.7953 6.21286 23.0086 5.93286C23.2219 5.65286 23.4419 5.36619 23.6686 5.07286C23.8286 4.84619 23.9953 4.57952 24.1686 4.27286C24.3419 3.96619 24.4419 3.66619 24.4686 3.37286C24.4686 3.29286 24.4753 3.19286 24.4886 3.07286C24.5019 2.93952 24.5086 2.80619 24.5086 2.67286C24.5219 2.52619 24.5353 2.39286 24.5486 2.27286C24.5619 2.15286 24.5819 2.05286 24.6086 1.97286C24.6886 1.70619 24.8153 1.52619 24.9886 1.43286C25.1753 1.32619 25.4553 1.27286 25.8286 1.27286C26.0419 1.27286 26.2819 1.31286 26.5486 1.39286C26.8153 1.45952 26.9953 1.59952 27.0886 1.81286C27.1819 2.05286 27.2086 2.33286 27.1686 2.65286C27.1419 2.95952 27.1686 3.23952 27.2486 3.49286C27.3153 3.69286 27.4153 3.89952 27.5486 4.11286C27.6819 4.32619 27.8219 4.53952 27.9686 4.75286C28.2219 5.11286 28.4753 5.50619 28.7286 5.93286C28.9819 6.34619 29.2153 6.69952 29.4286 6.99286C29.6419 7.27286 29.8486 7.56619 30.0486 7.87286C30.2486 8.16619 30.3819 8.48619 30.4486 8.83286C30.5153 9.12619 30.4819 9.37286 30.3486 9.57286C30.2286 9.75952 30.0619 9.89952 29.8486 9.99286C29.6353 10.0729 29.4019 10.0929 29.1486 10.0529C28.8953 9.99952 28.6753 9.87952 28.4886 9.69286C27.9953 9.18619 27.5486 8.64619 27.1486 8.07286C26.7486 7.48619 26.3353 6.91286 25.9086 6.35286C25.9086 6.35286 25.8486 6.41952 25.7286 6.55286C25.6086 6.68619 25.4619 6.85952 25.2886 7.07286C25.1153 7.28619 24.9219 7.51952 24.7086 7.77286C24.4953 8.02619 24.2953 8.26619 24.1086 8.49286C23.9219 8.71952 23.7553 8.91952 23.6086 9.09286C23.4753 9.25286 23.3953 9.35286 23.3686 9.39286C23.2219 9.56619 23.0553 9.71952 22.8686 9.85286C22.6819 9.98619 22.4753 10.0795 22.2486 10.1329C22.1019 10.1595 21.9486 10.1729 21.7886 10.1729C21.6419 10.1729 21.5019 10.1395 21.3686 10.0729ZM35.0286 9.71286C35.0286 9.71286 35.0219 9.75952 35.0086 9.85286C34.9953 9.94619 34.9686 10.0529 34.9286 10.1729C34.8886 10.2929 34.8286 10.4195 34.7486 10.5529C34.6686 10.6729 34.5619 10.7729 34.4286 10.8529C34.2419 10.9595 34.0553 11.0129 33.8686 11.0129C33.6419 11.0129 33.4219 10.9395 33.2086 10.7929C33.0619 10.6862 32.9486 10.5462 32.8686 10.3729C32.7619 10.1729 32.6886 9.95286 32.6486 9.71286C32.6219 9.47286 32.6019 9.22619 32.5886 8.97286C32.5886 8.71952 32.5953 8.47286 32.6086 8.23286C32.6219 7.97952 32.6286 7.73952 32.6286 7.51286C32.6286 7.23286 32.6286 6.90619 32.6286 6.53286C32.6419 6.15952 32.6486 5.77952 32.6486 5.39286C32.6486 5.00619 32.6486 4.63286 32.6486 4.27286C32.6486 3.89952 32.6486 3.57286 32.6486 3.29286V3.03286C32.6353 2.88619 32.6286 2.73286 32.6286 2.57286C32.6419 2.39952 32.6686 2.23952 32.7086 2.09286C32.7619 1.89286 32.8819 1.67952 33.0686 1.45286C33.1753 1.31952 33.3219 1.22619 33.5086 1.17286C33.7086 1.10619 33.9219 1.08619 34.1486 1.11286C34.5486 1.17952 34.8153 1.35286 34.9486 1.63286C35.0286 1.80619 35.0619 2.01952 35.0486 2.27286C35.0486 2.52619 35.0419 2.67952 35.0286 2.73286V9.71286Z" fill="white"/>
<path d="M56.2894 16.5129C56.196 16.6195 56.0894 16.6995 55.9694 16.7529C55.8494 16.8062 55.7227 16.8395 55.5894 16.8529C55.456 16.8662 55.316 16.8662 55.1694 16.8529C55.036 16.8529 54.9094 16.8462 54.7894 16.8329C54.6827 16.8195 54.576 16.7929 54.4694 16.7529C54.3627 16.7262 54.2694 16.6729 54.1894 16.5929C54.176 16.5929 54.1694 16.5862 54.1694 16.5729C54.0094 16.4129 53.9227 16.2395 53.9094 16.0529C53.896 15.8529 53.8894 15.6462 53.8894 15.4329V2.59286C53.8894 2.43286 53.896 2.27286 53.9094 2.11286C53.9227 1.95286 53.956 1.81286 54.0094 1.69286C54.0627 1.57286 54.1494 1.47952 54.2694 1.41286C54.3894 1.33286 54.5494 1.29286 54.7494 1.29286C54.9494 1.29286 55.176 1.28619 55.4294 1.27286C55.6827 1.24619 55.9027 1.29286 56.0894 1.41286C56.236 1.50619 56.3294 1.60619 56.3694 1.71286C56.4094 1.81952 56.4427 1.94619 56.4694 2.09286C56.5227 2.27952 56.5427 2.51952 56.5294 2.81286C56.5294 3.09286 56.5294 3.32619 56.5294 3.51286V13.3729C56.5294 13.7862 56.5227 14.1862 56.5094 14.5729C56.496 14.9462 56.496 15.3395 56.5094 15.7529C56.5227 16.0462 56.4494 16.2995 56.2894 16.5129Z" fill="white"/>
<path d="M87.9098 15.4929C88.1232 15.5195 88.3098 15.5729 88.4698 15.6529C88.6298 15.7329 88.7432 15.8795 88.8098 16.0929C88.9698 16.5729 88.7965 16.9129 88.2898 17.1129C88.1298 17.1795 87.9698 17.2195 87.8098 17.2329C87.6498 17.2462 87.4965 17.2529 87.3498 17.2529H78.0498C77.7832 17.2529 77.5032 17.2462 77.2098 17.2329C76.9298 17.2329 76.6432 17.2262 76.3498 17.2129C76.0698 17.1995 75.8365 17.0995 75.6498 16.9129C75.4632 16.7262 75.3565 16.4795 75.3298 16.1729L75.2698 14.7729C75.2565 14.6262 75.2565 14.4529 75.2698 14.2529C75.2832 14.0529 75.3498 13.8862 75.4698 13.7529C75.6565 13.5529 75.9032 13.4262 76.2098 13.3729C76.5298 13.3195 76.8365 13.2929 77.1298 13.2929C77.3165 13.2929 77.6232 13.2929 78.0498 13.2929C78.4898 13.2929 79.0832 13.2995 79.8298 13.3129C80.5765 13.3129 81.4965 13.3129 82.5898 13.3129C83.6965 13.3129 85.0098 13.3129 86.5298 13.3129V12.5929H76.6898C76.5565 12.5929 76.4365 12.5929 76.3298 12.5929C76.2232 12.5929 76.1165 12.5795 76.0098 12.5529C75.8898 12.5262 75.7832 12.4995 75.6898 12.4729C75.5965 12.4462 75.5165 12.3795 75.4498 12.2729C75.2632 11.9929 75.2165 11.7062 75.3098 11.4129C75.3498 11.3062 75.4098 11.2262 75.4898 11.1729C75.5698 11.1062 75.6632 11.0529 75.7698 11.0129C75.8765 10.9729 75.9765 10.9462 76.0698 10.9329C76.1765 10.9195 76.2698 10.9062 76.3498 10.8929C76.5498 10.8529 76.7565 10.8329 76.9698 10.8329C77.1565 10.8329 77.3565 10.8329 77.5698 10.8329C77.7965 10.8329 78.0632 10.8395 78.3698 10.8529C78.6765 10.8529 79.0298 10.8529 79.4298 10.8529C79.8432 10.8529 80.3232 10.8529 80.8698 10.8529C80.8832 10.7062 80.8898 10.5662 80.8898 10.4329C80.9032 10.2862 80.9098 10.1395 80.9098 9.99286C80.8298 9.99286 80.6498 9.99286 80.3698 9.99286C80.0898 9.97952 79.7632 9.97286 79.3898 9.97286C79.0298 9.97286 78.6365 9.97286 78.2098 9.97286C77.7965 9.95952 77.4032 9.95286 77.0298 9.95286C76.6698 9.93952 76.3565 9.92619 76.0898 9.91286C75.8232 9.89952 75.6498 9.88619 75.5698 9.87286C75.3565 9.84619 75.1832 9.83286 75.0498 9.83286C74.9298 9.83286 74.7832 9.75286 74.6098 9.59286C74.4365 9.43286 74.3498 9.22619 74.3498 8.97286C74.3498 8.69286 74.4365 8.46619 74.6098 8.29286C74.7032 8.18619 74.8298 8.11286 74.9898 8.07286C75.1498 8.01952 75.3032 7.98619 75.4498 7.97286C75.5965 7.94619 75.7232 7.93952 75.8298 7.95286C75.9498 7.95286 76.0165 7.95286 76.0298 7.95286H87.4698C87.6698 7.95286 87.8698 7.95286 88.0698 7.95286C88.2698 7.95286 88.4632 7.95952 88.6498 7.97286C88.8365 7.98619 89.0165 8.00619 89.1898 8.03286C89.3765 8.04619 89.5432 8.11952 89.6898 8.25286C89.8365 8.35952 89.9165 8.47952 89.9298 8.61286C89.9565 8.74619 89.9698 8.89286 89.9698 9.05286C89.9698 9.25286 89.9098 9.41286 89.7898 9.53286C89.6832 9.65286 89.5298 9.74619 89.3298 9.81286C89.0632 9.91952 88.7632 9.96619 88.4298 9.95286C88.1098 9.93952 87.8165 9.93952 87.5498 9.95286C86.8832 9.97952 86.2365 9.99286 85.6098 9.99286C84.9965 9.99286 84.3498 9.99286 83.6698 9.99286C83.6698 10.1395 83.6698 10.2862 83.6698 10.4329C83.6698 10.5662 83.6632 10.7062 83.6498 10.8529H86.7298C87.4098 10.8529 87.9298 10.9595 88.2898 11.1729C88.6498 11.3729 88.8298 11.7062 88.8298 12.1729V13.5929C88.8298 13.7795 88.7832 13.9662 88.6898 14.1529C88.6098 14.3262 88.4632 14.4729 88.2498 14.5929C88.0765 14.6995 87.9032 14.7595 87.7298 14.7729C87.5565 14.7729 87.3832 14.7729 87.2098 14.7729H77.7298V15.4929H87.9098ZM86.8698 5.13286C87.1232 5.25286 87.3632 5.38619 87.5898 5.53286C87.8298 5.67952 88.0565 5.82619 88.2698 5.97286C88.3765 6.06619 88.4365 6.18619 88.4498 6.33286C88.4765 6.47952 88.4565 6.62619 88.3898 6.77286C88.3365 6.90619 88.2498 7.02619 88.1298 7.13286C88.0098 7.23952 87.8698 7.31286 87.7098 7.35286C87.2832 7.41952 86.8832 7.41952 86.5098 7.35286C86.1498 7.27286 85.7765 7.14619 85.3898 6.97286C85.0298 6.81286 84.6832 6.65952 84.3498 6.51286C84.0298 6.36619 83.7165 6.20619 83.4098 6.03286C83.3165 5.97952 83.1898 5.91286 83.0298 5.83286C82.8832 5.75286 82.7365 5.67952 82.5898 5.61286C82.4165 5.53286 82.2298 5.44619 82.0298 5.35286C81.8032 5.45952 81.5832 5.55952 81.3698 5.65286C81.1832 5.73286 80.9965 5.81952 80.8098 5.91286C80.6365 5.99286 80.4965 6.05952 80.3898 6.11286C80.0432 6.29952 79.7232 6.45952 79.4298 6.59286C79.1365 6.71286 78.8165 6.85286 78.4698 7.01286C78.2032 7.11952 77.9298 7.23952 77.6498 7.37286C77.3832 7.49286 77.0965 7.55286 76.7898 7.55286C76.5498 7.53952 76.3165 7.47952 76.0898 7.37286C75.8632 7.25286 75.7232 7.06619 75.6698 6.81286C75.6565 6.67952 75.6698 6.52619 75.7098 6.35286C75.7632 6.16619 75.8498 6.01286 75.9698 5.89286C76.1032 5.77286 76.2632 5.65286 76.4498 5.53286L77.8298 4.85286C78.0565 4.74619 78.2565 4.65286 78.4298 4.57286C78.6032 4.49286 78.8098 4.39952 79.0498 4.29286C79.1565 4.22619 79.2765 4.15952 79.4098 4.09286C79.5432 4.01286 79.6832 3.93952 79.8298 3.87286H78.5698C78.3565 3.87286 78.1698 3.87286 78.0098 3.87286C77.8632 3.87286 77.6898 3.85952 77.4898 3.83286C77.3432 3.80619 77.1832 3.79286 77.0098 3.79286C76.8365 3.79286 76.6765 3.75952 76.5298 3.69286C76.4498 3.66619 76.3765 3.61952 76.3098 3.55286C76.2565 3.47286 76.2098 3.39286 76.1698 3.31286C76.0898 3.17952 76.0432 3.03286 76.0298 2.87286C76.0165 2.71286 76.0432 2.55952 76.1098 2.41286C76.2165 2.21286 76.3898 2.05952 76.6298 1.95286C76.8698 1.84619 77.1165 1.79286 77.3698 1.79286H77.8298C78.0432 1.81952 78.1965 1.82619 78.2898 1.81286C78.3965 1.79952 78.5565 1.79286 78.7698 1.79286H80.5498V0.992857C80.5498 0.592857 80.7232 0.319524 81.0698 0.172857C81.4165 0.0261908 81.7898 -0.0271426 82.1898 0.0128569C82.5498 0.0528571 82.8232 0.132857 83.0098 0.252857C83.2098 0.359524 83.3165 0.546191 83.3298 0.812857C83.3432 0.919524 83.3498 1.06619 83.3498 1.25286C83.3632 1.42619 83.3698 1.60619 83.3698 1.79286H85.6898C85.9032 1.79286 86.1498 1.78619 86.4298 1.77286C86.7098 1.75952 86.9765 1.77952 87.2298 1.83286C87.4965 1.87286 87.7298 1.95952 87.9298 2.09286C88.1432 2.21286 88.2832 2.41286 88.3498 2.69286C88.4298 3.01286 88.3698 3.25952 88.1698 3.43286C87.9832 3.59286 87.7365 3.71286 87.4298 3.79286C87.1365 3.85952 86.8232 3.89952 86.4898 3.91286C86.1565 3.91286 85.8832 3.91286 85.6698 3.91286C85.4565 3.89952 85.2298 3.89286 84.9898 3.89286C84.7632 3.89286 84.5432 3.89286 84.3298 3.89286C84.4232 3.94619 84.5098 3.97952 84.5898 3.99286C84.7232 4.05952 84.8498 4.12619 84.9698 4.19286C85.1032 4.24619 85.2365 4.30619 85.3698 4.37286C85.6232 4.49286 85.8698 4.61952 86.1098 4.75286C86.3632 4.87286 86.6165 4.99952 86.8698 5.13286Z" fill="white"/>
<path d="M96.1556 10.0729C95.969 9.99286 95.8356 9.83952 95.7556 9.61286C95.649 9.34619 95.629 9.07952 95.6956 8.81286C95.7756 8.54619 95.8956 8.29286 96.0556 8.05286C96.2156 7.81286 96.3956 7.58619 96.5956 7.37286C96.809 7.15952 96.989 6.95952 97.1356 6.77286C97.3623 6.49286 97.5823 6.21286 97.7956 5.93286C98.009 5.65286 98.229 5.36619 98.4556 5.07286C98.6156 4.84619 98.7823 4.57952 98.9556 4.27286C99.129 3.96619 99.229 3.66619 99.2556 3.37286C99.2556 3.29286 99.2623 3.19286 99.2756 3.07286C99.289 2.93952 99.2956 2.80619 99.2956 2.67286C99.309 2.52619 99.3223 2.39286 99.3356 2.27286C99.349 2.15286 99.369 2.05286 99.3956 1.97286C99.4756 1.70619 99.6023 1.52619 99.7756 1.43286C99.9623 1.32619 100.242 1.27286 100.616 1.27286C100.829 1.27286 101.069 1.31286 101.336 1.39286C101.602 1.45952 101.782 1.59952 101.876 1.81286C101.969 2.05286 101.996 2.33286 101.956 2.65286C101.929 2.95952 101.956 3.23952 102.036 3.49286C102.102 3.69286 102.202 3.89952 102.336 4.11286C102.469 4.32619 102.609 4.53952 102.756 4.75286C103.009 5.11286 103.262 5.50619 103.516 5.93286C103.769 6.34619 104.002 6.69952 104.216 6.99286C104.429 7.27286 104.636 7.56619 104.836 7.87286C105.036 8.16619 105.169 8.48619 105.236 8.83286C105.302 9.12619 105.269 9.37286 105.136 9.57286C105.016 9.75952 104.849 9.89952 104.636 9.99286C104.422 10.0729 104.189 10.0929 103.936 10.0529C103.682 9.99952 103.462 9.87952 103.276 9.69286C102.782 9.18619 102.336 8.64619 101.936 8.07286C101.536 7.48619 101.122 6.91286 100.696 6.35286C100.696 6.35286 100.636 6.41952 100.516 6.55286C100.396 6.68619 100.249 6.85952 100.076 7.07286C99.9023 7.28619 99.709 7.51952 99.4956 7.77286C99.2823 8.02619 99.0823 8.26619 98.8956 8.49286C98.709 8.71952 98.5423 8.91952 98.3956 9.09286C98.2623 9.25286 98.1823 9.35286 98.1556 9.39286C98.009 9.56619 97.8423 9.71952 97.6556 9.85286C97.469 9.98619 97.2623 10.0795 97.0356 10.1329C96.889 10.1595 96.7356 10.1729 96.5756 10.1729C96.429 10.1729 96.289 10.1395 96.1556 10.0729ZM99.2356 17.0329C98.689 17.0329 98.249 16.9129 97.9156 16.6729C97.5823 16.4462 97.4156 16.1795 97.4156 15.8729V12.9929C97.389 12.6995 97.389 12.3995 97.4156 12.0929C97.4423 11.8129 97.549 11.5862 97.7356 11.4129C97.9356 11.2395 98.189 11.1529 98.4956 11.1529C98.5623 11.1529 98.6823 11.1595 98.8556 11.1729C99.029 11.1729 99.149 11.1862 99.2156 11.2129C99.389 11.2662 99.5223 11.3462 99.6156 11.4529C99.7223 11.5595 99.8023 11.6862 99.8556 11.8329C99.909 11.9662 99.9423 12.1129 99.9556 12.2729C99.969 12.4195 99.9823 12.5662 99.9956 12.7129C99.9956 12.7662 99.9956 12.8929 99.9956 13.0929C100.009 13.2795 100.016 13.4862 100.016 13.7129C100.029 13.9262 100.036 14.1262 100.036 14.3129C100.049 14.4995 100.062 14.6129 100.076 14.6529C100.116 14.6662 100.222 14.6862 100.396 14.7129C100.582 14.7262 100.922 14.7329 101.416 14.7329C101.842 14.7329 102.102 14.7262 102.196 14.7129C102.302 14.6995 102.362 14.6929 102.376 14.6929H108.916C108.916 14.6929 108.956 14.7062 109.036 14.7329C109.129 14.7595 109.229 14.8062 109.336 14.8729C109.442 14.9262 109.542 15.0062 109.636 15.1129C109.729 15.2062 109.789 15.3195 109.816 15.4529C109.882 15.9595 109.796 16.3529 109.556 16.6329C109.396 16.8195 109.222 16.9329 109.036 16.9729C108.849 17.0129 108.749 17.0329 108.736 17.0329H99.2356ZM109.396 7.39286V9.47286C109.382 9.61952 109.362 9.77286 109.336 9.93286C109.309 10.0795 109.256 10.2262 109.176 10.3729C109.082 10.5462 108.969 10.6729 108.836 10.7529C108.622 10.8995 108.396 10.9729 108.156 10.9729C107.956 10.9729 107.769 10.9195 107.596 10.8129C107.462 10.7329 107.356 10.6329 107.276 10.5129C107.196 10.3929 107.129 10.2795 107.076 10.1729C107.036 10.0662 107.009 9.97286 106.996 9.89286C106.982 9.79952 106.976 9.75286 106.976 9.75286V2.73286C106.976 2.66619 106.982 2.51952 106.996 2.29286C107.022 2.05286 107.076 1.85286 107.156 1.69286C107.289 1.41286 107.562 1.25286 107.976 1.21286C108.202 1.18619 108.416 1.19952 108.616 1.25286C108.816 1.30619 108.969 1.39286 109.076 1.51286C109.156 1.61952 109.209 1.72619 109.236 1.83286C109.276 1.92619 109.309 2.02619 109.336 2.13286C109.376 2.26619 109.396 2.40619 109.396 2.55286C109.409 2.69952 109.409 2.84619 109.396 2.99286V5.15286C109.449 5.15286 109.549 5.15952 109.696 5.17286C109.842 5.18619 109.996 5.19952 110.156 5.21286C110.329 5.21286 110.489 5.21952 110.636 5.23286C110.782 5.24619 110.882 5.25952 110.936 5.27286C111.202 5.32619 111.389 5.40619 111.496 5.51286C111.602 5.60619 111.676 5.72619 111.716 5.87286C111.742 6.01952 111.756 6.19286 111.756 6.39286C111.756 6.57952 111.716 6.73952 111.636 6.87286C111.476 7.13952 111.236 7.29286 110.916 7.33286C110.596 7.37286 110.242 7.39286 109.856 7.39286H109.396Z" fill="white"/>
</svg>
