<svg width="115" height="26" viewBox="0 0 115 26" fill="none" xmlns="http://www.w3.org/2000/svg">
<path d="M10.2533 4.58999C10.2533 4.58999 10.2433 4.70999 10.2233 4.94999C10.2233 5.18999 10.2233 5.45999 10.2233 5.75999C10.2233 6.05999 10.2233 6.33999 10.2233 6.59999C10.2433 6.85999 10.2533 7.00999 10.2533 7.04999C10.3533 7.14999 10.5333 7.31999 10.7933 7.55999C11.0533 7.77999 11.2733 7.96999 11.4533 8.12999C11.6533 8.28999 11.8533 8.46999 12.0533 8.66999C12.2733 8.84999 12.4933 9.04999 12.7133 9.26999C12.8533 9.40999 12.9833 9.54999 13.1033 9.68999C13.2233 9.80999 13.3333 9.91999 13.4333 10.02C13.8133 10.4 14.1933 10.81 14.5733 11.25C14.9533 11.69 15.2133 12.14 15.3533 12.6C15.4133 12.78 15.4233 12.98 15.3833 13.2C15.3433 13.42 15.2133 13.61 14.9933 13.77C14.6533 13.97 14.2933 14.07 13.9133 14.07C13.4733 14.07 13.0533 13.98 12.6533 13.8C12.2533 13.62 11.9333 13.44 11.6933 13.26C11.3133 12.98 10.9633 12.69 10.6433 12.39C10.3233 12.07 10.0033 11.75 9.68331 11.43C9.46331 11.21 9.21331 10.96 8.93331 10.68C8.65331 10.38 8.37331 10.12 8.09331 9.89999L7.28331 10.71C7.14331 10.85 7.00331 10.99 6.86331 11.13C6.72331 11.25 6.59331 11.38 6.47331 11.52C6.21331 11.8 5.94331 12.09 5.66331 12.39C5.38331 12.67 5.06331 12.94 4.70331 13.2C3.88331 13.8 3.11331 14.1 2.39331 14.1C2.29331 14.1 2.20331 14.1 2.12331 14.1C2.06331 14.1 1.98331 14.08 1.88331 14.04C1.44331 13.94 1.15331 13.76 1.01331 13.5C0.873311 13.28 0.823311 13.03 0.863311 12.75C0.923311 12.47 1.01331 12.22 1.13331 12C1.29331 11.78 1.47331 11.57 1.67331 11.37C1.87331 11.15 2.07331 10.93 2.27331 10.71C2.45331 10.51 2.73331 10.23 3.11331 9.86999C3.51331 9.48999 3.91331 9.10999 4.31331 8.72999C4.71331 8.32999 5.08331 7.96999 5.42331 7.64999C5.76331 7.32999 5.97331 7.12999 6.05331 7.04999V4.58999H4.13331C3.89331 4.58999 3.61331 4.59999 3.29331 4.61999C2.97331 4.61999 2.65331 4.59999 2.33331 4.55999C2.03331 4.51999 1.75331 4.43999 1.49331 4.31999C1.23331 4.17999 1.04331 3.95999 0.923311 3.65999C0.823311 3.43999 0.753311 3.18999 0.713311 2.90999C0.693311 2.62999 0.713311 2.36999 0.773311 2.12999C0.853311 1.84999 1.03331 1.65999 1.31331 1.55999C1.59331 1.43999 1.86331 1.35999 2.12331 1.31999C2.16331 1.31999 2.32331 1.31999 2.60331 1.31999C2.90331 1.31999 3.22331 1.31999 3.56331 1.31999C3.90331 1.31999 4.22331 1.31999 4.52331 1.31999C4.82331 1.31999 5.00331 1.30999 5.06331 1.28999H12.0833C12.8833 1.28999 13.5533 1.33999 14.0933 1.43999C14.6533 1.53999 15.1033 1.78999 15.4433 2.18999C15.5433 2.30999 15.6033 2.46999 15.6233 2.66999C15.6633 2.86999 15.6633 3.07999 15.6233 3.29998C15.6033 3.49999 15.5433 3.68999 15.4433 3.86999C15.3633 4.04999 15.2433 4.17999 15.0833 4.25999C14.9233 4.31999 14.7333 4.38999 14.5133 4.46999C14.2933 4.52999 14.1033 4.56999 13.9433 4.58999C13.6633 4.60999 13.3733 4.61999 13.0733 4.61999C12.7933 4.59999 12.5133 4.58999 12.2333 4.58999H10.2533ZM21.7433 21.39C21.7433 21.39 21.8033 21.41 21.9233 21.45C22.0633 21.49 22.2133 21.56 22.3733 21.66C22.5333 21.74 22.6833 21.86 22.8233 22.02C22.9633 22.16 23.0533 22.33 23.0933 22.53C23.1933 23.29 23.0633 23.88 22.7033 24.3C22.4633 24.58 22.2033 24.75 21.9233 24.81C21.6433 24.87 21.4933 24.9 21.4733 24.9H5.84331C5.02331 24.9 4.38331 24.77 3.92331 24.51C3.46331 24.27 3.23331 23.92 3.23331 23.46V19.2C3.23331 19.08 3.22331 18.93 3.20331 18.75C3.20331 18.57 3.20331 18.38 3.20331 18.18C3.20331 17.96 3.20331 17.76 3.20331 17.58C3.22331 17.4 3.23331 17.25 3.23331 17.13C3.27331 16.71 3.47331 16.37 3.83331 16.11C4.19331 15.85 4.60331 15.72 5.06331 15.72C5.16331 15.72 5.28331 15.73 5.42331 15.75C5.58331 15.75 5.71331 15.77 5.81331 15.81C6.07331 15.89 6.28331 16.03 6.44331 16.23C6.60331 16.41 6.72331 16.62 6.80331 16.86C6.88331 17.1 6.93331 17.36 6.95331 17.64C6.97331 17.9 6.99331 18.14 7.01331 18.36C7.01331 18.44 7.01331 18.63 7.01331 18.93C7.01331 19.23 7.01331 19.55 7.01331 19.89C7.01331 20.23 7.01331 20.54 7.01331 20.82C7.01331 21.1 7.01331 21.27 7.01331 21.33C7.07331 21.35 7.23331 21.38 7.49331 21.42C7.77331 21.44 8.28331 21.45 9.02331 21.45C9.66331 21.45 10.2333 21.44 10.7333 21.42C11.2333 21.4 11.4933 21.39 11.5133 21.39H21.7433ZM22.2533 13.5C22.2533 13.5 22.2433 13.57 22.2233 13.71C22.2033 13.85 22.1633 14.01 22.1033 14.19C22.0433 14.37 21.9533 14.56 21.8333 14.76C21.7133 14.94 21.5533 15.09 21.3533 15.21C21.0733 15.37 20.7933 15.45 20.5133 15.45C20.1733 15.45 19.8433 15.34 19.5233 15.12C19.3033 14.96 19.1333 14.75 19.0133 14.49C18.8533 14.19 18.7433 13.86 18.6833 13.5C18.6433 13.14 18.6133 12.77 18.5933 12.39C18.5933 12.01 18.6033 11.64 18.6233 11.28C18.6433 10.9 18.6533 10.54 18.6533 10.2C18.6533 9.77999 18.6533 9.30999 18.6533 8.78999C18.6733 8.26999 18.6833 7.73999 18.6833 7.19999C18.6833 6.65999 18.6833 6.12999 18.6833 5.60999C18.6833 5.08999 18.6833 4.61999 18.6833 4.19999V3.80999C18.6633 3.58999 18.6533 3.35999 18.6533 3.11999C18.6733 2.85999 18.7133 2.61999 18.7733 2.39999C18.8533 2.09999 19.0333 1.77999 19.3133 1.43999C19.4733 1.23999 19.6933 1.09999 19.9733 1.01999C20.2733 0.919986 20.5933 0.889986 20.9333 0.929985C21.5333 1.02999 21.9333 1.28999 22.1333 1.70999C22.2533 1.96999 22.3033 2.28999 22.2833 2.66999C22.2833 3.04999 22.2733 3.27999 22.2533 3.35999V13.5Z" fill="#433232"/>
<path d="M46.9752 12.87C47.3152 12.89 47.6552 12.94 47.9952 13.02C48.3552 13.1 48.6752 13.25 48.9552 13.47C49.2352 13.69 49.3752 14 49.3752 14.4C49.3752 14.6 49.3352 14.82 49.2552 15.06C49.1952 15.3 49.1052 15.47 48.9852 15.57C48.8252 15.73 48.6152 15.85 48.3552 15.93C48.1152 15.99 47.8752 16.04 47.6352 16.08C47.3952 16.1 47.1852 16.11 47.0052 16.11C46.8452 16.11 46.7552 16.11 46.7352 16.11L30.7452 16.14C30.2852 16.16 29.8052 16.16 29.3052 16.14C28.8252 16.12 28.4152 15.97 28.0752 15.69C27.6152 15.35 27.3852 14.96 27.3852 14.52C27.3852 14.24 27.4752 13.96 27.6552 13.68C27.8552 13.38 28.1152 13.18 28.4352 13.08C28.8552 12.94 29.2852 12.88 29.7252 12.9C30.1652 12.9 30.6152 12.89 31.0752 12.87C31.5552 12.85 31.9652 12.84 32.3052 12.84C32.6652 12.84 33.0052 12.84 33.3252 12.84C33.6652 12.84 34.0152 12.85 34.3752 12.87C34.7352 12.87 35.1652 12.87 35.6652 12.87V11.37H33.2352C32.9352 11.37 32.6052 11.37 32.2452 11.37C31.8852 11.35 31.5252 11.31 31.1652 11.25C30.8252 11.19 30.5052 11.11 30.2052 11.01C29.9052 10.89 29.6552 10.73 29.4552 10.53C29.2552 10.37 29.1052 10.15 29.0052 9.86999C28.9252 9.56999 28.8652 9.27999 28.8252 8.99999C28.7852 8.71999 28.7652 8.47999 28.7652 8.27999C28.7852 8.05999 28.7952 7.93999 28.7952 7.91999V2.42999C28.7952 2.40999 28.7952 2.34999 28.7952 2.24999C28.7952 2.12999 28.7952 1.99999 28.7952 1.85999C28.8152 1.69999 28.8452 1.54999 28.8852 1.40999C28.9252 1.26999 28.9752 1.15999 29.0352 1.07999C29.1952 0.859985 29.3552 0.709986 29.5152 0.629985C29.6952 0.529986 29.9252 0.459986 30.2052 0.419986C30.4052 0.379986 30.6152 0.359985 30.8352 0.359985H44.5452C44.7252 0.359985 44.8952 0.369985 45.0552 0.389985C45.2352 0.389985 45.4152 0.409985 45.5952 0.449986C45.7752 0.489985 45.9452 0.529986 46.1052 0.569986C46.2652 0.609986 46.4152 0.699986 46.5552 0.839986C46.6752 0.939986 46.7652 1.04999 46.8252 1.16999C46.8852 1.28999 46.9352 1.40999 46.9752 1.52999C47.0152 1.64999 47.0352 1.76999 47.0352 1.88999C47.0552 1.98999 47.0452 2.09999 47.0052 2.21999C46.9652 2.53999 46.8052 2.80999 46.5252 3.02998C46.2652 3.22999 45.9252 3.32999 45.5052 3.32999H32.6952V4.49999C32.8952 4.49999 33.2252 4.49999 33.6852 4.49999C34.1452 4.49999 34.6652 4.49999 35.2452 4.49999C35.8252 4.49999 36.4152 4.49999 37.0152 4.49999C37.6352 4.49999 38.2052 4.49999 38.7252 4.49999C39.2452 4.49999 39.6652 4.49999 39.9852 4.49999C40.3252 4.49999 40.4952 4.49999 40.4952 4.49999H43.2552C43.3352 4.49999 43.4252 4.50999 43.5252 4.52999C43.6252 4.52999 43.7252 4.51999 43.8252 4.49999H44.6052C44.8052 4.49999 45.0152 4.51999 45.2352 4.55999C45.4552 4.57999 45.6552 4.63999 45.8352 4.73999C46.1152 4.85999 46.2952 5.04999 46.3752 5.30999C46.4752 5.56999 46.5052 5.80999 46.4652 6.02999C46.4452 6.14999 46.4252 6.26999 46.4052 6.38999C46.4052 6.50999 46.3552 6.61999 46.2552 6.71999C46.0352 6.95999 45.8052 7.10999 45.5652 7.16999C45.3452 7.22999 45.1052 7.25999 44.8452 7.25999H32.6652L32.6952 8.00998C32.6752 8.22999 32.6852 8.30999 32.7252 8.24999C32.7652 8.18999 32.8152 8.16999 32.8752 8.18999C32.9952 8.24999 33.2052 8.29999 33.5052 8.33999C33.8252 8.35999 34.1552 8.36999 34.4952 8.36999H34.6452C34.7452 8.36999 34.9852 8.36999 35.3652 8.36999C35.7452 8.34999 36.1952 8.33999 36.7152 8.33999C37.2352 8.33999 37.7852 8.33999 38.3652 8.33999C38.9652 8.33999 39.5252 8.33999 40.0452 8.33999C40.5652 8.33999 41.0152 8.34999 41.3952 8.36999C41.7752 8.36999 42.0152 8.36999 42.1152 8.36999H43.5252C43.6852 8.36999 43.8152 8.35999 43.9152 8.33999H44.4252C44.7252 8.33999 45.0252 8.34999 45.3252 8.36999C45.6452 8.36999 45.9552 8.40999 46.2552 8.48999C46.2952 8.48999 46.3452 8.49999 46.4052 8.51999C46.4652 8.53999 46.5152 8.55999 46.5552 8.57999C46.7952 8.71999 46.9652 8.89999 47.0652 9.11999C47.1852 9.33999 47.2352 9.56999 47.2152 9.80999C47.1952 10.05 47.1052 10.27 46.9452 10.47C46.8052 10.67 46.6052 10.83 46.3452 10.95C45.9452 11.13 45.5052 11.25 45.0252 11.31C44.5652 11.35 44.1352 11.37 43.7352 11.37H42.5052C42.3452 11.39 42.0052 11.4 41.4852 11.4C40.9652 11.4 40.4352 11.4 39.8952 11.4C39.9152 11.64 39.9252 11.89 39.9252 12.15C39.9252 12.41 39.9252 12.65 39.9252 12.87C40.4852 12.87 41.0852 12.87 41.7252 12.87C42.3652 12.85 43.0052 12.84 43.6452 12.84C44.2852 12.84 44.8952 12.84 45.4752 12.84C46.0552 12.84 46.5552 12.85 46.9752 12.87ZM28.3452 20.94C28.3452 20.1 28.6052 19.42 29.1252 18.9C29.6452 18.38 30.3452 17.99 31.2252 17.73C32.1052 17.45 33.1352 17.27 34.3152 17.19C35.5152 17.09 36.7952 17.04 38.1552 17.04C39.5152 17.04 40.7852 17.07 41.9652 17.13C43.1652 17.17 44.2052 17.32 45.0852 17.58C45.9852 17.82 46.6952 18.21 47.2152 18.75C47.7352 19.27 47.9952 20 47.9952 20.94C47.9952 21.88 47.7352 22.61 47.2152 23.13C46.6952 23.65 45.9852 24.03 45.0852 24.27C44.2052 24.53 43.1652 24.69 41.9652 24.75C40.7852 24.81 39.5152 24.84 38.1552 24.84C36.7952 24.84 35.5152 24.81 34.3152 24.75C33.1352 24.69 32.1052 24.53 31.2252 24.27C30.3452 24.03 29.6452 23.65 29.1252 23.13C28.6052 22.61 28.3452 21.88 28.3452 20.94ZM44.0352 20.94C44.0352 20.62 43.8552 20.38 43.4952 20.22C43.1552 20.04 42.6952 19.92 42.1152 19.86C41.5552 19.78 40.9252 19.74 40.2252 19.74C39.5252 19.72 38.8352 19.71 38.1552 19.71C37.4752 19.71 36.7952 19.72 36.1152 19.74C35.4352 19.74 34.8252 19.78 34.2852 19.86C33.7452 19.92 33.3052 20.04 32.9652 20.22C32.6452 20.38 32.4852 20.62 32.4852 20.94C32.4852 21.22 32.6452 21.45 32.9652 21.63C33.3052 21.79 33.7452 21.91 34.2852 21.99C34.8252 22.07 35.4352 22.12 36.1152 22.14C36.7952 22.16 37.4752 22.17 38.1552 22.17C38.8352 22.17 39.5252 22.18 40.2252 22.2C40.9252 22.2 41.5552 22.17 42.1152 22.11C42.6952 22.05 43.1552 21.94 43.4952 21.78C43.8552 21.6 44.0352 21.32 44.0352 20.94Z" fill="#433232"/>
<path d="M86.6713 22.71C86.6313 22.95 86.6013 23.19 86.5813 23.43C86.5613 23.65 86.5113 23.88 86.4313 24.12C86.3913 24.2 86.3613 24.27 86.3413 24.33C86.3213 24.39 86.2913 24.46 86.2513 24.54C86.1113 24.82 85.9313 25.04 85.7113 25.2C85.2513 25.48 84.7413 25.55 84.1813 25.41C83.8613 25.35 83.6013 25.23 83.4013 25.05C83.2213 24.89 83.0813 24.68 82.9813 24.42C82.9013 24.18 82.8313 23.94 82.7713 23.7C82.7313 23.46 82.7113 23.25 82.7113 23.07C82.7113 22.89 82.7113 22.79 82.7113 22.77V4.22999C82.7113 3.98999 82.7113 3.72999 82.7113 3.44999C82.7113 3.16999 82.7313 2.88998 82.7713 2.60998C82.8113 2.32998 82.8713 2.06999 82.9513 1.82999C83.0313 1.58999 83.1413 1.39999 83.2813 1.25999C83.5013 1.03999 83.7313 0.909985 83.9713 0.869986C84.2113 0.809986 84.4713 0.779985 84.7513 0.779985C85.0913 0.779985 85.4013 0.879985 85.6813 1.07999C85.9813 1.25999 86.1913 1.51999 86.3113 1.85999C86.4913 2.27999 86.5913 2.71999 86.6113 3.17999C86.6313 3.63999 86.6513 4.09999 86.6713 4.55999V4.70999C86.7113 6.24999 86.7213 7.82999 86.7013 9.44999C86.6813 11.07 86.6713 12.6 86.6713 14.04V21.63C86.6713 21.81 86.6713 21.99 86.6713 22.17C86.6913 22.35 86.6913 22.53 86.6713 22.71ZM72.5113 19.77C72.4913 19.53 72.4813 19.29 72.4813 19.05C72.4813 18.81 72.4813 18.57 72.4813 18.33V8.78999C72.4813 8.46999 72.4813 8.14999 72.4813 7.82999C72.4813 7.50999 72.4613 7.17999 72.4213 6.83999C72.4013 6.73999 72.3713 6.59999 72.3313 6.41999C72.3113 6.23999 72.2513 6.12999 72.1513 6.08999C72.0513 6.02999 71.9313 6.00999 71.7913 6.02999C71.6713 6.02999 71.5513 6.01999 71.4313 5.99999C71.2913 5.97999 71.1513 5.97999 71.0113 5.99999C70.8913 6.01999 70.7613 6.01999 70.6213 5.99999H69.2113C68.8713 6.01999 68.5313 6.01999 68.1913 5.99999C67.8513 5.97999 67.5113 5.97999 67.1713 5.99999C67.0113 6.01999 66.8613 6.02999 66.7213 6.02999C66.6013 6.00999 66.4613 5.99999 66.3013 5.99999C66.0813 5.99999 65.8513 5.98999 65.6113 5.96999C65.3713 5.94999 65.1513 5.86999 64.9513 5.72999C64.6713 5.52999 64.4813 5.27999 64.3813 4.97999C64.2813 4.67999 64.2313 4.36999 64.2313 4.04999C64.2113 3.66999 64.2913 3.28999 64.4713 2.90999C64.5713 2.66999 64.7013 2.49999 64.8613 2.39999C64.9613 2.29999 65.1013 2.21999 65.2813 2.15999C65.4813 2.07999 65.6513 2.01999 65.7913 1.97999C66.2113 1.87999 66.6513 1.82999 67.1113 1.82999C67.5713 1.80999 68.0213 1.79999 68.4613 1.79999H73.6813C73.9413 1.83999 74.2113 1.87999 74.4913 1.91998C74.7913 1.93999 75.0613 1.99999 75.3013 2.09999C75.4613 2.15999 75.6113 2.23998 75.7513 2.33998C75.9113 2.43999 76.0413 2.55999 76.1413 2.69999C76.3213 2.97999 76.4213 3.25999 76.4413 3.53999C76.4813 3.81999 76.5213 4.12999 76.5613 4.46999C76.6013 5.02999 76.6213 5.58999 76.6213 6.14999C76.6213 6.68999 76.6213 7.23999 76.6213 7.79999V17.64C76.6213 17.66 76.6213 17.82 76.6213 18.12C76.6413 18.4 76.6513 18.74 76.6513 19.14C76.6513 19.52 76.6513 19.93 76.6513 20.37C76.6513 20.79 76.6413 21.16 76.6213 21.48C76.6013 21.68 76.5713 21.89 76.5313 22.11C76.4913 22.33 76.4213 22.54 76.3213 22.74C76.2413 22.94 76.1213 23.12 75.9613 23.28C75.8013 23.44 75.5913 23.57 75.3313 23.67C74.9913 23.81 74.6513 23.88 74.3113 23.88C74.0513 23.88 73.7913 23.83 73.5313 23.73C73.2713 23.61 73.0913 23.44 72.9913 23.22C72.6713 22.58 72.5113 21.87 72.5113 21.09V19.77Z" fill="#433232"/>
<path d="M111.874 13.08C112.214 13.1 112.554 13.15 112.894 13.23C113.254 13.31 113.574 13.46 113.854 13.68C113.994 13.78 114.094 13.89 114.154 14.01C114.234 14.13 114.274 14.28 114.274 14.46C114.274 14.66 114.234 14.88 114.154 15.12C114.094 15.36 114.004 15.53 113.884 15.63C113.724 15.79 113.514 15.91 113.254 15.99C113.014 16.05 112.774 16.1 112.534 16.14C112.294 16.16 112.084 16.17 111.904 16.17C111.744 16.17 111.654 16.17 111.634 16.17L95.6436 16.2C95.1836 16.22 94.7036 16.22 94.2036 16.2C93.7236 16.18 93.3136 16.03 92.9736 15.75C92.5136 15.41 92.2836 15.02 92.2836 14.58C92.2836 14.3 92.3736 14.04 92.5536 13.8C92.7536 13.56 93.0136 13.39 93.3336 13.29C93.7536 13.15 94.1836 13.09 94.6236 13.11C95.0636 13.11 95.5136 13.1 95.9736 13.08C96.4536 13.06 96.8636 13.05 97.2036 13.05C97.5636 13.05 97.9036 13.05 98.2236 13.05C98.5636 13.05 98.9136 13.06 99.2736 13.08C99.6336 13.08 100.064 13.08 100.564 13.08V11.46H97.3236C96.9236 11.46 96.5036 11.46 96.0636 11.46C95.6436 11.46 95.2136 11.45 94.7736 11.43C94.3536 11.39 93.9936 11.23 93.6936 10.95C93.4136 10.65 93.2536 10.26 93.2136 9.77999C93.1736 9.41999 93.1436 8.97999 93.1236 8.45999C93.1236 7.93999 93.1236 7.53999 93.1236 7.25999C93.1236 7.03999 93.1336 6.72999 93.1536 6.32999C93.1736 5.92999 93.2736 5.61999 93.4536 5.39999C93.7336 5.07999 94.1036 4.88999 94.5636 4.82999C95.0236 4.74999 95.4736 4.70999 95.9136 4.70999H96.9636C97.1636 4.70999 97.5036 4.70999 97.9836 4.70999C98.4636 4.70999 99.0236 4.71999 99.6636 4.73999C100.304 4.73999 100.984 4.74999 101.704 4.76999C102.444 4.76999 103.154 4.76999 103.834 4.76999C104.514 4.76999 105.134 4.76999 105.694 4.76999C106.274 4.76999 106.724 4.75999 107.044 4.73999C107.404 4.73999 107.684 4.73999 107.884 4.73999C108.084 4.73999 108.264 4.73999 108.424 4.73999C108.584 4.71999 108.744 4.70999 108.904 4.70999C109.064 4.70999 109.264 4.70999 109.504 4.70999C109.504 4.66999 109.504 4.58999 109.504 4.46999C109.524 4.32999 109.534 4.18999 109.534 4.04999C109.554 3.88999 109.564 3.74999 109.564 3.62999C109.564 3.50999 109.544 3.44999 109.504 3.44999H107.194C106.934 3.44999 106.514 3.44999 105.934 3.44999C105.354 3.44999 104.694 3.45999 103.954 3.47999C103.234 3.47999 102.464 3.47999 101.644 3.47999C100.824 3.47999 100.034 3.47999 99.2736 3.47999C98.5336 3.47999 97.8736 3.47999 97.2936 3.47999C96.7136 3.47999 96.2836 3.46999 96.0036 3.44999H95.2836C95.0836 3.44999 94.9036 3.44999 94.7436 3.44999C94.5836 3.44999 94.4236 3.42999 94.2636 3.38999C94.0836 3.34999 93.9136 3.28999 93.7536 3.20999C93.5936 3.10999 93.4636 2.97999 93.3636 2.81999C93.2836 2.63999 93.2336 2.44999 93.2136 2.24999C93.2136 2.04999 93.2136 1.85999 93.2136 1.67999C93.2136 1.49999 93.2636 1.32999 93.3636 1.16999C93.4836 1.00999 93.6136 0.879985 93.7536 0.779985C93.9136 0.679985 94.0736 0.619986 94.2336 0.599986C94.3936 0.579986 94.5736 0.549986 94.7736 0.509985C94.9336 0.469986 95.0936 0.459986 95.2536 0.479986C95.4136 0.499985 95.5736 0.499985 95.7336 0.479986C95.9136 0.459986 96.0836 0.449986 96.2436 0.449986C96.4236 0.449986 96.6036 0.449986 96.7836 0.449986C97.4036 0.469986 98.1936 0.479986 99.1536 0.479986C100.114 0.459986 101.044 0.449986 101.944 0.449986H110.134C111.154 0.449986 111.934 0.619986 112.474 0.959987C113.014 1.27999 113.284 1.81999 113.284 2.57999V4.76999C113.284 4.94999 113.284 5.15999 113.284 5.39999C113.304 5.63999 113.294 5.87999 113.254 6.11999C113.234 6.33999 113.184 6.54999 113.104 6.74999C113.024 6.94999 112.894 7.09999 112.714 7.19999C112.414 7.35999 112.064 7.44999 111.664 7.46999C111.284 7.46999 110.924 7.46999 110.584 7.46999H96.8136L96.7836 8.66999H110.914C111.074 8.66999 111.234 8.66999 111.394 8.66999C111.574 8.66999 111.744 8.67999 111.904 8.69999C112.224 8.71999 112.504 8.79999 112.744 8.93999C112.984 9.05999 113.154 9.28999 113.254 9.62999C113.474 10.41 113.214 10.95 112.474 11.25C112.234 11.35 111.984 11.41 111.724 11.43C111.484 11.45 111.254 11.46 111.034 11.46H104.764C104.784 11.74 104.794 12.02 104.794 12.3C104.814 12.58 104.824 12.84 104.824 13.08C105.384 13.08 105.984 13.08 106.624 13.08C107.264 13.06 107.904 13.05 108.544 13.05C109.184 13.05 109.794 13.05 110.374 13.05C110.954 13.05 111.454 13.06 111.874 13.08ZM110.104 17.67C110.924 17.67 111.554 17.8 111.994 18.06C112.454 18.32 112.684 18.68 112.684 19.14V20.94C112.684 21.04 112.684 21.24 112.684 21.54C112.704 21.82 112.714 22.13 112.714 22.47C112.714 22.79 112.714 23.1 112.714 23.4C112.714 23.7 112.704 23.91 112.684 24.03C112.644 24.45 112.474 24.79 112.174 25.05C111.894 25.31 111.524 25.44 111.064 25.44C110.844 25.44 110.634 25.41 110.434 25.35C110.154 25.27 109.934 25.15 109.774 24.99C109.634 24.83 109.524 24.65 109.444 24.45C109.384 24.25 109.334 24.04 109.294 23.82C109.274 23.58 109.264 23.35 109.264 23.13C109.264 23.05 109.254 22.91 109.234 22.71C109.234 22.49 109.224 22.27 109.204 22.05C109.204 21.83 109.194 21.62 109.174 21.42C109.174 21.22 109.164 21.08 109.144 21C109.084 20.98 108.914 20.96 108.634 20.94C108.374 20.92 107.874 20.91 107.134 20.91C106.794 20.91 106.494 20.92 106.234 20.94C105.974 20.94 105.734 20.94 105.514 20.94H94.8336C94.8136 20.94 94.7336 20.92 94.5936 20.88C94.4736 20.84 94.3336 20.78 94.1736 20.7C94.0136 20.62 93.8636 20.51 93.7236 20.37C93.5836 20.23 93.5036 20.05 93.4836 19.83C93.4236 19.45 93.4236 19.15 93.4836 18.93C93.5436 18.71 93.6636 18.49 93.8436 18.27C94.0836 17.99 94.3436 17.83 94.6236 17.79C94.9036 17.73 95.0536 17.7 95.0736 17.7L110.104 17.67Z" fill="#433232"/>
</svg>
