<svg width="32" height="15" viewBox="0 0 32 15" fill="none" xmlns="http://www.w3.org/2000/svg">
<path d="M7.86076 12C7.30076 12 6.90076 11.89 6.66076 11.67C6.42076 11.45 6.30076 11.135 6.30076 10.725C6.30076 10.505 6.32076 10.115 6.36076 9.55502C6.40076 8.99502 6.44576 8.36502 6.49576 7.66502H3.82576L3.52576 11.775C3.51576 11.855 3.49576 11.915 3.46576 11.955C3.43576 11.985 3.37576 12 3.28576 12H2.46076C1.90076 12 1.50076 11.89 1.26076 11.67C1.02076 11.45 0.900757 11.135 0.900757 10.725C0.900757 10.525 0.915757 10.185 0.945757 9.70502C0.975757 9.21502 1.01576 8.66002 1.06576 8.04002C1.11576 7.42002 1.16576 6.76502 1.21576 6.07502C1.26576 5.38502 1.31576 4.73502 1.36576 4.12502C1.41576 3.51502 1.45576 2.98002 1.48576 2.52002C1.51576 2.06002 1.53076 1.74502 1.53076 1.57502C1.53076 1.42502 1.61076 1.35002 1.77076 1.35002H2.59576C3.20576 1.35002 3.61576 1.48002 3.82576 1.74002C4.03576 2.00002 4.14076 2.38502 4.14076 2.89502C4.14076 2.97502 4.12576 3.26002 4.09576 3.75002C4.06576 4.23002 4.02576 4.81002 3.97576 5.49002H6.66076C6.69076 5.05002 6.72076 4.62002 6.75076 4.20002C6.79076 3.78002 6.82076 3.39502 6.84076 3.04502C6.87076 2.69502 6.89076 2.39502 6.90076 2.14502C6.92076 1.88502 6.93076 1.69502 6.93076 1.57502C6.93076 1.42502 7.01076 1.35002 7.17076 1.35002H7.99576C8.60576 1.35002 9.01576 1.48002 9.22576 1.74002C9.43576 2.00002 9.54076 2.38502 9.54076 2.89502C9.54076 2.94502 9.53076 3.10502 9.51076 3.37502C9.50076 3.64502 9.48076 3.98502 9.45076 4.39502C9.42076 4.80502 9.38576 5.26502 9.34576 5.77502C9.31576 6.27502 9.28076 6.79002 9.24076 7.32002C9.21076 7.85002 9.17576 8.37002 9.13576 8.88002C9.10576 9.38002 9.07576 9.83502 9.04576 10.245C9.01576 10.655 8.99076 11 8.97076 11.28C8.95076 11.55 8.93576 11.715 8.92576 11.775C8.91576 11.855 8.89576 11.915 8.86576 11.955C8.83576 11.985 8.77576 12 8.68576 12H7.86076Z" fill="black"/>
<path d="M14.2499 12.15C13.8099 12.15 13.3699 12.095 12.9299 11.985C12.4999 11.875 12.1099 11.685 11.7599 11.415C11.4199 11.145 11.1399 10.785 10.9199 10.335C10.6999 9.88502 10.5899 9.32002 10.5899 8.64002C10.5899 8.39002 10.6099 8.09002 10.6499 7.74002C10.6899 7.39002 10.7649 7.03002 10.8749 6.66002C10.9949 6.29002 11.1549 5.92502 11.3549 5.56502C11.5649 5.19502 11.8349 4.86502 12.1649 4.57502C12.4949 4.28502 12.8949 4.05002 13.3649 3.87002C13.8349 3.69002 14.3949 3.60002 15.0449 3.60002C15.5649 3.60002 16.0049 3.66002 16.3649 3.78002C16.7249 3.90002 17.0149 4.06502 17.2349 4.27502C17.4549 4.47502 17.6149 4.71002 17.7149 4.98002C17.8149 5.25002 17.8649 5.54002 17.8649 5.85002C17.8649 6.31002 17.7699 6.70002 17.5799 7.02002C17.3999 7.34002 17.1599 7.61002 16.8599 7.83002C16.5699 8.04002 16.2449 8.20502 15.8849 8.32502C15.5249 8.44502 15.1699 8.54002 14.8199 8.61002C14.4699 8.67002 14.1449 8.71002 13.8449 8.73002C13.5549 8.74002 13.3299 8.74502 13.1699 8.74502C13.1699 8.93502 13.1949 9.12502 13.2449 9.31502C13.3049 9.49502 13.3899 9.65502 13.4999 9.79502C13.6099 9.93502 13.7549 10.05 13.9349 10.14C14.1149 10.23 14.3349 10.275 14.5949 10.275C14.8549 10.275 15.0549 10.235 15.1949 10.155C15.3449 10.065 15.4649 9.97002 15.5549 9.87002C15.6449 9.76002 15.7199 9.66502 15.7799 9.58502C15.8499 9.49502 15.9399 9.45002 16.0499 9.45002C16.0999 9.45002 16.1849 9.46502 16.3049 9.49502C16.4349 9.51502 16.5649 9.56502 16.6949 9.64502C16.8249 9.72502 16.9399 9.83502 17.0399 9.97502C17.1399 10.115 17.1899 10.295 17.1899 10.515C17.1899 10.805 17.0999 11.055 16.9199 11.265C16.7399 11.475 16.5049 11.645 16.2149 11.775C15.9349 11.905 15.6199 12 15.2699 12.06C14.9199 12.12 14.5799 12.15 14.2499 12.15ZM14.5349 5.59502C14.3149 5.59502 14.1249 5.66002 13.9649 5.79002C13.8149 5.91002 13.6849 6.06502 13.5749 6.25502C13.4749 6.44502 13.3949 6.65502 13.3349 6.88502C13.2849 7.11502 13.2449 7.33502 13.2149 7.54502C13.8349 7.53502 14.3349 7.43002 14.7149 7.23002C15.1049 7.03002 15.2999 6.74502 15.2999 6.37502C15.2999 6.17502 15.2349 5.99502 15.1049 5.83502C14.9849 5.67502 14.7949 5.59502 14.5349 5.59502Z" fill="black"/>
<path d="M20.5083 12.135C19.8883 12.135 19.4433 11.97 19.1733 11.64C18.9033 11.31 18.7683 10.765 18.7683 10.005C18.7683 9.88502 18.7733 9.73502 18.7833 9.55502C18.8033 9.37502 18.8233 9.14502 18.8433 8.86502C18.8733 8.57502 18.9083 8.22002 18.9483 7.80002C18.9883 7.38002 19.0283 6.87002 19.0683 6.27002C19.1183 5.67002 19.1683 4.96502 19.2183 4.15502C19.2783 3.34502 19.3383 2.40502 19.3983 1.33502C19.4083 1.11502 19.4333 0.985024 19.4733 0.945024C19.5033 0.915024 19.5833 0.900024 19.7133 0.900024H20.2983C20.5983 0.900024 20.8483 0.935024 21.0483 1.00502C21.2483 1.07502 21.4083 1.17002 21.5283 1.29002C21.6483 1.41002 21.7333 1.55002 21.7833 1.71002C21.8333 1.86002 21.8583 2.02002 21.8583 2.19002C21.8583 2.39002 21.8433 2.68002 21.8133 3.06002C21.7933 3.43002 21.7633 3.85002 21.7233 4.32002C21.6833 4.79002 21.6433 5.28002 21.6033 5.79002C21.5633 6.30002 21.5233 6.79002 21.4833 7.26002C21.4433 7.72002 21.4083 8.13502 21.3783 8.50502C21.3583 8.87502 21.3483 9.15502 21.3483 9.34502C21.3483 9.60502 21.3933 9.79002 21.4833 9.90002C21.5833 10.01 21.6883 10.09 21.7983 10.14C21.9083 10.18 22.0083 10.21 22.0983 10.23C22.1983 10.24 22.2483 10.27 22.2483 10.32C22.2483 10.54 22.2233 10.76 22.1733 10.98C22.1233 11.19 22.0333 11.385 21.9033 11.565C21.7733 11.735 21.5933 11.875 21.3633 11.985C21.1433 12.085 20.8583 12.135 20.5083 12.135Z" fill="black"/>
<path d="M28.4847 3.60002C29.4247 3.60002 30.1297 3.89002 30.5997 4.47002C31.0797 5.05002 31.3197 5.96502 31.3197 7.21502C31.3197 7.99502 31.2297 8.69002 31.0497 9.30002C30.8697 9.91002 30.6197 10.43 30.2997 10.86C29.9797 11.28 29.6047 11.6 29.1747 11.82C28.7447 12.04 28.2797 12.15 27.7797 12.15C27.2497 12.15 26.8347 12.035 26.5347 11.805C26.2347 11.575 25.9997 11.25 25.8297 10.83C25.7997 11.19 25.7747 11.465 25.7547 11.655C25.7347 11.845 25.7197 11.995 25.7097 12.105C25.6997 12.225 25.6897 12.33 25.6797 12.42C25.6797 12.51 25.6697 12.63 25.6497 12.78C25.6397 12.93 25.6247 13.135 25.6047 13.395C25.5847 13.655 25.5547 14.015 25.5147 14.475C25.5047 14.595 25.4797 14.675 25.4397 14.715C25.3997 14.755 25.3147 14.775 25.1847 14.775H24.6447C24.3347 14.775 24.0797 14.74 23.8797 14.67C23.6897 14.61 23.5347 14.52 23.4147 14.4C23.3047 14.28 23.2247 14.13 23.1747 13.95C23.1347 13.78 23.1147 13.58 23.1147 13.35C23.1147 13.25 23.1297 12.98 23.1597 12.54C23.1897 12.1 23.2247 11.575 23.2647 10.965C23.3147 10.345 23.3647 9.68002 23.4147 8.97002C23.4747 8.26002 23.5297 7.58502 23.5797 6.94502C23.6297 6.29502 23.6697 5.72002 23.6997 5.22002C23.7397 4.72002 23.7697 4.37502 23.7897 4.18502C23.7997 3.96502 23.8247 3.83502 23.8647 3.79502C23.8947 3.76502 23.9747 3.75002 24.1047 3.75002H24.6897C25.2297 3.75002 25.6197 3.86502 25.8597 4.09502C26.1097 4.31502 26.2347 4.58002 26.2347 4.89002C26.4647 4.43002 26.7597 4.10002 27.1197 3.90002C27.4897 3.70002 27.9447 3.60002 28.4847 3.60002ZM27.3897 5.59502C26.8797 5.59502 26.5047 5.81502 26.2647 6.25502C26.0247 6.69502 25.9047 7.29502 25.9047 8.05502C25.9047 8.31502 25.9197 8.57002 25.9497 8.82002C25.9897 9.07002 26.0547 9.29502 26.1447 9.49502C26.2347 9.69502 26.3547 9.85502 26.5047 9.97502C26.6647 10.095 26.8647 10.155 27.1047 10.155C27.5347 10.155 27.8947 9.94502 28.1847 9.52502C28.4747 9.10502 28.6197 8.44502 28.6197 7.54502C28.6197 7.29502 28.5997 7.05502 28.5597 6.82502C28.5297 6.58502 28.4697 6.37502 28.3797 6.19502C28.2897 6.01502 28.1647 5.87002 28.0047 5.76002C27.8447 5.65002 27.6397 5.59502 27.3897 5.59502Z" fill="black"/>
</svg>
