<svg width="40" height="12" viewBox="0 0 40 12" fill="none" xmlns="http://www.w3.org/2000/svg">
<path d="M7.46623 11C6.90623 11 6.50623 10.89 6.26623 10.67C6.02623 10.45 5.90623 10.135 5.90623 9.72498C5.90623 9.50498 5.92623 9.11498 5.96623 8.55498C6.00623 7.99498 6.05123 7.36498 6.10123 6.66498H3.43123L3.13123 10.775C3.12123 10.855 3.10123 10.915 3.07123 10.955C3.04123 10.985 2.98123 11 2.89123 11H2.06623C1.50623 11 1.10623 10.89 0.866226 10.67C0.626226 10.45 0.506226 10.135 0.506226 9.72498C0.506226 9.52498 0.521226 9.18498 0.551226 8.70498C0.581226 8.21498 0.621226 7.65998 0.671226 7.03998C0.721226 6.41998 0.771226 5.76498 0.821226 5.07498C0.871226 4.38498 0.921226 3.73498 0.971226 3.12498C1.02123 2.51498 1.06123 1.97998 1.09123 1.51998C1.12123 1.05998 1.13623 0.744976 1.13623 0.574975C1.13623 0.424976 1.21623 0.349976 1.37623 0.349976H2.20123C2.81123 0.349976 3.22123 0.479976 3.43123 0.739976C3.64123 0.999976 3.74623 1.38498 3.74623 1.89498C3.74623 1.97498 3.73123 2.25998 3.70123 2.74998C3.67123 3.22998 3.63123 3.80998 3.58123 4.48998H6.26623C6.29623 4.04998 6.32623 3.61998 6.35623 3.19998C6.39623 2.77998 6.42623 2.39498 6.44623 2.04498C6.47623 1.69498 6.49623 1.39498 6.50623 1.14498C6.52623 0.884976 6.53623 0.694976 6.53623 0.574975C6.53623 0.424976 6.61623 0.349976 6.77623 0.349976H7.60123C8.21123 0.349976 8.62123 0.479976 8.83123 0.739976C9.04123 0.999976 9.14623 1.38498 9.14623 1.89498C9.14623 1.94498 9.13623 2.10498 9.11623 2.37498C9.10623 2.64498 9.08623 2.98498 9.05623 3.39498C9.02623 3.80498 8.99123 4.26498 8.95123 4.77498C8.92123 5.27498 8.88623 5.78998 8.84623 6.31998C8.81623 6.84998 8.78123 7.36998 8.74123 7.87998C8.71123 8.37998 8.68123 8.83498 8.65123 9.24498C8.62123 9.65498 8.59623 9.99998 8.57623 10.28C8.55623 10.55 8.54123 10.715 8.53123 10.775C8.52123 10.855 8.50123 10.915 8.47123 10.955C8.44123 10.985 8.38123 11 8.29123 11H7.46623Z" fill="black"/>
<path d="M13.7504 11.15C13.0604 11.15 12.4854 11.055 12.0254 10.865C11.5754 10.665 11.2154 10.395 10.9454 10.055C10.6754 9.71498 10.4854 9.31998 10.3754 8.86998C10.2654 8.40998 10.2104 7.91998 10.2104 7.39998C10.2104 6.79998 10.2804 6.21498 10.4204 5.64498C10.5704 5.06498 10.8204 4.54998 11.1704 4.09998C11.5204 3.64998 11.9804 3.28998 12.5504 3.01998C13.1304 2.73998 13.8504 2.59998 14.7104 2.59998C15.9704 2.59998 16.8704 2.90998 17.4104 3.52998C17.9604 4.13998 18.2354 4.99998 18.2354 6.10998C18.2354 6.41998 18.2104 6.76498 18.1604 7.14498C18.1204 7.51498 18.0354 7.88498 17.9054 8.25498C17.7854 8.62498 17.6154 8.98498 17.3954 9.33498C17.1854 9.68498 16.9154 9.99498 16.5854 10.265C16.2554 10.535 15.8554 10.75 15.3854 10.91C14.9254 11.07 14.3804 11.15 13.7504 11.15ZM14.4554 4.59498C14.0754 4.59498 13.7704 4.69498 13.5404 4.89498C13.3204 5.08498 13.1504 5.31998 13.0304 5.59998C12.9204 5.86998 12.8454 6.15998 12.8054 6.46998C12.7754 6.76998 12.7604 7.02498 12.7604 7.23498C12.7604 7.89498 12.8654 8.37998 13.0754 8.68998C13.2854 8.99998 13.5854 9.15498 13.9754 9.15498C14.3254 9.15498 14.6104 9.04498 14.8304 8.82498C15.0604 8.60498 15.2354 8.33998 15.3554 8.02998C15.4854 7.71998 15.5704 7.39498 15.6104 7.05498C15.6604 6.71498 15.6854 6.42998 15.6854 6.19998C15.6854 5.69998 15.5904 5.30998 15.4004 5.02998C15.2204 4.73998 14.9054 4.59498 14.4554 4.59498Z" fill="black"/>
<path d="M21.9502 8.29998C21.9202 8.75998 21.8852 9.19998 21.8452 9.61998C21.8052 10.03 21.7752 10.39 21.7552 10.7C21.7452 10.82 21.7202 10.9 21.6802 10.94C21.6402 10.98 21.5552 11 21.4252 11H20.8852C20.5752 11 20.3202 10.97 20.1202 10.91C19.9302 10.84 19.7752 10.745 19.6552 10.625C19.5452 10.505 19.4652 10.36 19.4152 10.19C19.3752 10.01 19.3552 9.80498 19.3552 9.57498C19.3552 9.42498 19.3602 9.21498 19.3702 8.94498C19.3902 8.66498 19.4202 8.28498 19.4602 7.80498C19.5002 7.31498 19.5452 6.69998 19.5952 5.95998C19.6552 5.20998 19.7252 4.28498 19.8052 3.18498C19.8152 2.96498 19.8402 2.83498 19.8802 2.79498C19.9102 2.76498 19.9902 2.74998 20.1202 2.74998H20.7052C21.0052 2.74998 21.2502 2.78498 21.4402 2.85498C21.6302 2.92498 21.7852 3.01498 21.9052 3.12498C22.0252 3.23498 22.1102 3.36498 22.1602 3.51498C22.2102 3.66498 22.2402 3.81998 22.2502 3.97998C22.5402 3.43998 22.8702 3.07498 23.2402 2.88498C23.6102 2.69498 24.0452 2.59998 24.5452 2.59998C24.8153 2.59998 25.0752 2.62498 25.3252 2.67498C25.5752 2.72498 25.8002 2.80998 26.0002 2.92998C26.2002 3.04998 26.3702 3.20998 26.5102 3.40998C26.6502 3.59998 26.7502 3.84498 26.8102 4.14498C27.1202 3.56498 27.4602 3.16498 27.8302 2.94498C28.2002 2.71498 28.6652 2.59998 29.2253 2.59998C29.5352 2.59998 29.8302 2.63498 30.1102 2.70498C30.4002 2.76498 30.6502 2.87498 30.8602 3.03498C31.0702 3.19498 31.2352 3.41498 31.3552 3.69498C31.4852 3.96498 31.5502 4.30498 31.5502 4.71498C31.5502 5.02498 31.5352 5.40498 31.5052 5.85498C31.4752 6.30498 31.4402 6.79498 31.4002 7.32498C31.3602 7.84498 31.3152 8.38498 31.2652 8.94498C31.2152 9.49498 31.1752 10.025 31.1452 10.535C31.1352 10.645 31.1252 10.73 31.1152 10.79C31.1052 10.85 31.0853 10.895 31.0553 10.925C31.0353 10.955 31.0002 10.975 30.9502 10.985C30.9002 10.995 30.8302 11 30.7402 11H30.2602C29.9402 11 29.6802 10.97 29.4802 10.91C29.2802 10.85 29.1252 10.765 29.0152 10.655C28.9052 10.545 28.8252 10.41 28.7752 10.25C28.7352 10.08 28.7153 9.88998 28.7153 9.67998C28.7153 9.54998 28.7202 9.36498 28.7302 9.12498C28.7502 8.88498 28.7702 8.62498 28.7902 8.34498C28.8202 8.06498 28.8452 7.77498 28.8652 7.47498C28.8952 7.17498 28.9202 6.89998 28.9402 6.64998C28.9702 6.38998 28.9902 6.16498 29.0002 5.97498C29.0203 5.78498 29.0303 5.65998 29.0303 5.59998C29.0303 5.33998 28.9753 5.10998 28.8652 4.90998C28.7652 4.70998 28.5652 4.60998 28.2652 4.60998C28.0052 4.60998 27.7802 4.69498 27.5903 4.86498C27.4003 5.03498 27.2402 5.26998 27.1102 5.56998C26.9802 5.86998 26.8753 6.22498 26.7952 6.63498C26.7153 7.04498 26.6602 7.48998 26.6302 7.96998C26.6102 8.27998 26.5853 8.63498 26.5553 9.03498C26.5252 9.43498 26.4902 9.93498 26.4502 10.535C26.4402 10.645 26.4302 10.73 26.4202 10.79C26.4103 10.85 26.3902 10.895 26.3602 10.925C26.3402 10.955 26.3052 10.975 26.2552 10.985C26.2052 10.995 26.1352 11 26.0452 11H25.5652C25.2452 11 24.9852 10.97 24.7852 10.91C24.5852 10.85 24.4302 10.765 24.3202 10.655C24.2102 10.545 24.1303 10.41 24.0802 10.25C24.0403 10.08 24.0203 9.88998 24.0203 9.67998C24.0203 9.47998 24.0352 9.18998 24.0652 8.80998C24.1052 8.41998 24.1403 8.01998 24.1702 7.60998C24.2103 7.18998 24.2452 6.79498 24.2752 6.42498C24.3152 6.04498 24.3352 5.76998 24.3352 5.59998C24.3352 5.33998 24.2803 5.10998 24.1702 4.90998C24.0703 4.70998 23.8702 4.60998 23.5702 4.60998C23.3002 4.60998 23.0702 4.70998 22.8802 4.90998C22.6902 5.10998 22.5302 5.37998 22.4002 5.71998C22.2802 6.04998 22.1802 6.43998 22.1002 6.88998C22.0302 7.33998 21.9802 7.80998 21.9502 8.29998Z" fill="black"/>
<path d="M36.3554 11.15C35.9154 11.15 35.4754 11.095 35.0354 10.985C34.6054 10.875 34.2154 10.685 33.8654 10.415C33.5254 10.145 33.2454 9.78498 33.0254 9.33498C32.8054 8.88498 32.6954 8.31998 32.6954 7.63998C32.6954 7.38998 32.7154 7.08998 32.7554 6.73998C32.7954 6.38998 32.8704 6.02998 32.9804 5.65998C33.1004 5.28998 33.2604 4.92498 33.4604 4.56498C33.6704 4.19498 33.9404 3.86498 34.2704 3.57498C34.6004 3.28498 35.0004 3.04998 35.4704 2.86998C35.9404 2.68998 36.5004 2.59998 37.1504 2.59998C37.6704 2.59998 38.1104 2.65998 38.4704 2.77998C38.8304 2.89998 39.1204 3.06498 39.3404 3.27498C39.5604 3.47498 39.7204 3.70998 39.8204 3.97998C39.9204 4.24998 39.9704 4.53998 39.9704 4.84998C39.9704 5.30998 39.8754 5.69998 39.6854 6.01998C39.5054 6.33998 39.2654 6.60998 38.9654 6.82998C38.6754 7.03998 38.3504 7.20498 37.9904 7.32498C37.6304 7.44498 37.2754 7.53998 36.9254 7.60998C36.5754 7.66998 36.2504 7.70998 35.9504 7.72998C35.6604 7.73998 35.4354 7.74498 35.2754 7.74498C35.2754 7.93498 35.3004 8.12498 35.3504 8.31498C35.4104 8.49498 35.4954 8.65498 35.6054 8.79498C35.7154 8.93498 35.8604 9.04998 36.0404 9.13998C36.2204 9.22998 36.4404 9.27498 36.7004 9.27498C36.9604 9.27498 37.1604 9.23498 37.3004 9.15498C37.4504 9.06498 37.5704 8.96998 37.6604 8.86998C37.7504 8.75998 37.8254 8.66498 37.8854 8.58498C37.9554 8.49498 38.0454 8.44998 38.1554 8.44998C38.2054 8.44998 38.2904 8.46498 38.4104 8.49498C38.5404 8.51498 38.6704 8.56498 38.8004 8.64498C38.9304 8.72498 39.0454 8.83498 39.1454 8.97498C39.2454 9.11498 39.2954 9.29498 39.2954 9.51498C39.2954 9.80498 39.2054 10.055 39.0254 10.265C38.8454 10.475 38.6104 10.645 38.3204 10.775C38.0404 10.905 37.7254 11 37.3754 11.06C37.0254 11.12 36.6854 11.15 36.3554 11.15ZM36.6404 4.59498C36.4204 4.59498 36.2304 4.65998 36.0704 4.78998C35.9204 4.90998 35.7904 5.06498 35.6804 5.25498C35.5804 5.44498 35.5004 5.65498 35.4404 5.88498C35.3904 6.11498 35.3504 6.33498 35.3204 6.54498C35.9404 6.53498 36.4404 6.42998 36.8204 6.22998C37.2104 6.02998 37.4054 5.74498 37.4054 5.37498C37.4054 5.17498 37.3404 4.99498 37.2104 4.83498C37.0904 4.67498 36.9004 4.59498 36.6404 4.59498Z" fill="black"/>
</svg>
