<svg width="83" height="24" viewBox="0 0 83 24" fill="none" xmlns="http://www.w3.org/2000/svg">
<path d="M11.1758 5.9L10.0358 22.55C10.0158 22.85 9.90581 23 9.70581 23H8.05581C6.93581 23 6.13581 22.78 5.65581 22.34C5.17581 21.9 4.93581 21.27 4.93581 20.45C4.93581 20.15 4.94581 19.7 4.96581 19.1C5.00581 18.5 5.05581 17.8 5.11581 17C5.17581 16.18 5.23581 15.3 5.29581 14.36C5.37581 13.4 5.45581 12.44 5.53581 11.48C5.61581 10.5 5.68581 9.53 5.74581 8.57C5.82581 7.61 5.89581 6.72 5.95581 5.9H1.15581C0.935806 5.9 0.825806 5.76 0.825806 5.48L0.915806 3.8C0.935806 3.54 0.975806 3.29 1.03581 3.05C1.11581 2.79 1.23581 2.56 1.39581 2.36C1.55581 2.16 1.75581 2 1.99581 1.88C2.25581 1.76 2.56581 1.7 2.92581 1.7H16.3358C16.4558 1.7 16.5658 1.73 16.6658 1.79C16.7658 1.85 16.8158 1.96 16.8158 2.12L16.6958 3.89C16.6558 4.49 16.4858 4.98 16.1858 5.36001C15.9058 5.72 15.3158 5.9 14.4158 5.9H11.1758Z" fill="#433232"/>
<path d="M20.5642 23C19.9442 23 19.4342 22.94 19.0342 22.82C18.6542 22.68 18.3442 22.49 18.1042 22.25C17.8842 22.01 17.7242 21.72 17.6242 21.38C17.5442 21.02 17.5042 20.61 17.5042 20.15C17.5042 19.85 17.5142 19.43 17.5342 18.89C17.5742 18.33 17.6342 17.57 17.7142 16.61C17.7942 15.63 17.8842 14.4 17.9842 12.92C18.1042 11.42 18.2442 9.57 18.4042 7.37C18.4242 6.93 18.4742 6.67 18.5542 6.59C18.6142 6.53 18.7742 6.5 19.0342 6.5H20.2042C20.8242 6.5 21.3242 6.56 21.7042 6.68C22.1042 6.8 22.4142 6.98 22.6342 7.22C22.8742 7.46001 23.0342 7.75001 23.1142 8.09C23.2142 8.43 23.2642 8.81 23.2642 9.23C23.2642 9.53 23.2442 9.98 23.2042 10.58C23.1642 11.18 23.1042 12 23.0242 13.04C22.9642 14.06 22.8742 15.34 22.7542 16.88C22.6342 18.4 22.4842 20.24 22.3042 22.4C22.2842 22.64 22.2342 22.8 22.1542 22.88C22.0742 22.96 21.9042 23 21.6442 23H20.5642ZM18.4342 2.96C18.4342 2.16 18.7242 1.53 19.3042 1.07C19.8842 0.610005 20.6642 0.380005 21.6442 0.380005C22.5042 0.380005 23.1242 0.560004 23.5042 0.920003C23.9042 1.26 24.1042 1.72 24.1042 2.3C24.1042 3.04 23.8242 3.66 23.2642 4.16C22.7242 4.64 21.9242 4.88 20.8642 4.88C19.2442 4.88 18.4342 4.24 18.4342 2.96Z" fill="#433232"/>
<path d="M31.1017 17.6C31.0417 18.52 30.9717 19.4 30.8917 20.24C30.8117 21.06 30.7517 21.78 30.7117 22.4C30.6917 22.64 30.6417 22.8 30.5617 22.88C30.4817 22.96 30.3117 23 30.0517 23H28.9717C28.3517 23 27.8417 22.94 27.4417 22.82C27.0617 22.68 26.7517 22.49 26.5117 22.25C26.2917 22.01 26.1317 21.72 26.0317 21.38C25.9517 21.02 25.9117 20.61 25.9117 20.15C25.9117 19.85 25.9217 19.43 25.9417 18.89C25.9817 18.33 26.0417 17.57 26.1217 16.61C26.2017 15.63 26.2917 14.4 26.3917 12.92C26.5117 11.42 26.6517 9.57 26.8117 7.37C26.8317 6.93 26.8817 6.67 26.9617 6.59C27.0217 6.53 27.1817 6.5 27.4417 6.5H28.6117C29.2117 6.5 29.7017 6.57 30.0817 6.71C30.4617 6.85 30.7717 7.03 31.0117 7.25C31.2517 7.47 31.4217 7.73 31.5217 8.03C31.6217 8.33 31.6817 8.64 31.7017 8.96C32.2817 7.88001 32.9417 7.15 33.6817 6.77C34.4217 6.39 35.2917 6.20001 36.2917 6.20001C36.8317 6.20001 37.3517 6.25001 37.8517 6.35001C38.3517 6.45001 38.8017 6.62 39.2017 6.86C39.6017 7.1 39.9417 7.42 40.2217 7.82C40.5017 8.2 40.7017 8.69 40.8217 9.29C41.4417 8.13 42.1217 7.33 42.8617 6.89001C43.6017 6.43001 44.5317 6.20001 45.6517 6.20001C46.2717 6.20001 46.8617 6.27 47.4217 6.41C48.0017 6.53 48.5017 6.75 48.9217 7.07C49.3417 7.39 49.6717 7.83 49.9117 8.39C50.1717 8.93 50.3017 9.61 50.3017 10.43C50.3017 11.05 50.2717 11.81 50.2117 12.71C50.1517 13.61 50.0817 14.59 50.0017 15.65C49.9217 16.69 49.8317 17.77 49.7317 18.89C49.6317 19.99 49.5517 21.05 49.4917 22.07C49.4717 22.29 49.4517 22.46 49.4317 22.58C49.4117 22.7 49.3717 22.79 49.3117 22.85C49.2717 22.91 49.2017 22.95 49.1017 22.97C49.0017 22.99 48.8617 23 48.6817 23H47.7217C47.0817 23 46.5617 22.94 46.1617 22.82C45.7617 22.7 45.4517 22.53 45.2317 22.31C45.0117 22.09 44.8517 21.82 44.7517 21.5C44.6717 21.16 44.6317 20.78 44.6317 20.36C44.6317 20.1 44.6417 19.73 44.6617 19.25C44.7017 18.77 44.7417 18.25 44.7817 17.69C44.8417 17.13 44.8917 16.55 44.9317 15.95C44.9917 15.35 45.0417 14.8 45.0817 14.3C45.1417 13.78 45.1817 13.33 45.2017 12.95C45.2417 12.57 45.2617 12.32 45.2617 12.2C45.2617 11.68 45.1517 11.22 44.9317 10.82C44.7317 10.42 44.3317 10.22 43.7317 10.22C43.2117 10.22 42.7617 10.39 42.3817 10.73C42.0017 11.07 41.6817 11.54 41.4217 12.14C41.1617 12.74 40.9517 13.45 40.7917 14.27C40.6317 15.09 40.5217 15.98 40.4617 16.94C40.4217 17.56 40.3717 18.27 40.3117 19.07C40.2517 19.87 40.1817 20.87 40.1017 22.07C40.0817 22.29 40.0617 22.46 40.0417 22.58C40.0217 22.7 39.9817 22.79 39.9217 22.85C39.8817 22.91 39.8117 22.95 39.7117 22.97C39.6117 22.99 39.4717 23 39.2917 23H38.3317C37.6917 23 37.1717 22.94 36.7717 22.82C36.3717 22.7 36.0617 22.53 35.8417 22.31C35.6217 22.09 35.4617 21.82 35.3617 21.5C35.2817 21.16 35.2417 20.78 35.2417 20.36C35.2417 19.96 35.2717 19.38 35.3317 18.62C35.4117 17.84 35.4817 17.04 35.5417 16.22C35.6217 15.38 35.6917 14.59 35.7517 13.85C35.8317 13.09 35.8717 12.54 35.8717 12.2C35.8717 11.68 35.7617 11.22 35.5417 10.82C35.3417 10.42 34.9417 10.22 34.3417 10.22C33.8017 10.22 33.3417 10.42 32.9617 10.82C32.5817 11.22 32.2617 11.76 32.0017 12.44C31.7617 13.1 31.5617 13.88 31.4017 14.78C31.2617 15.68 31.1617 16.62 31.1017 17.6Z" fill="#433232"/>
<path d="M59.912 23.3C59.032 23.3 58.152 23.19 57.272 22.97C56.412 22.75 55.632 22.37 54.932 21.83C54.252 21.29 53.692 20.57 53.252 19.67C52.812 18.77 52.592 17.64 52.592 16.28C52.592 15.78 52.632 15.18 52.712 14.48C52.792 13.78 52.942 13.06 53.162 12.32C53.402 11.58 53.722 10.85 54.122 10.13C54.542 9.39 55.082 8.73 55.742 8.15C56.402 7.57 57.202 7.1 58.142 6.74C59.082 6.38 60.202 6.20001 61.502 6.20001C62.542 6.20001 63.422 6.32 64.142 6.56C64.862 6.8 65.442 7.13 65.882 7.55C66.322 7.95 66.642 8.42 66.842 8.96C67.042 9.50001 67.142 10.08 67.142 10.7C67.142 11.62 66.952 12.4 66.572 13.04C66.212 13.68 65.732 14.22 65.132 14.66C64.552 15.08 63.902 15.41 63.182 15.65C62.462 15.89 61.752 16.08 61.052 16.22C60.352 16.34 59.702 16.42 59.102 16.46C58.522 16.48 58.072 16.49 57.752 16.49C57.752 16.87 57.802 17.25 57.902 17.63C58.022 17.99 58.192 18.31 58.412 18.59C58.632 18.87 58.922 19.1 59.282 19.28C59.642 19.46 60.082 19.55 60.602 19.55C61.122 19.55 61.522 19.47 61.802 19.31C62.102 19.13 62.342 18.94 62.522 18.74C62.702 18.52 62.852 18.33 62.972 18.17C63.112 17.99 63.292 17.9 63.512 17.9C63.612 17.9 63.782 17.93 64.022 17.99C64.282 18.03 64.542 18.13 64.802 18.29C65.062 18.45 65.292 18.67 65.492 18.95C65.692 19.23 65.792 19.59 65.792 20.03C65.792 20.61 65.612 21.11 65.252 21.53C64.892 21.95 64.422 22.29 63.842 22.55C63.282 22.81 62.652 23 61.952 23.12C61.252 23.24 60.572 23.3 59.912 23.3ZM60.482 10.19C60.042 10.19 59.662 10.32 59.342 10.58C59.042 10.82 58.782 11.13 58.562 11.51C58.362 11.89 58.202 12.31 58.082 12.77C57.982 13.23 57.902 13.67 57.842 14.09C59.082 14.07 60.082 13.86 60.842 13.46C61.622 13.06 62.012 12.49 62.012 11.75C62.012 11.35 61.882 10.99 61.622 10.67C61.382 10.35 61.002 10.19 60.482 10.19Z" fill="#433232"/>
<path d="M78.6388 13.67C78.5188 13.67 78.3788 13.67 78.2188 13.67C78.0788 13.65 77.9388 13.63 77.7988 13.61C77.6588 13.57 77.5388 13.53 77.4388 13.49C77.3388 13.43 77.2888 13.36 77.2888 13.28C77.2888 13.02 77.2988 12.78 77.3188 12.56C77.3388 12.34 77.3488 12.11 77.3488 11.87C77.3488 11.43 77.2888 11.07 77.1688 10.79C77.0488 10.51 76.8088 10.37 76.4488 10.37C75.8888 10.37 75.4188 10.74 75.0388 11.48C74.6788 12.2 74.4488 13.29 74.3488 14.75C74.3088 15.39 74.2488 16.12 74.1688 16.94C74.1088 17.74 74.0488 18.52 73.9888 19.28C73.9288 20.02 73.8788 20.68 73.8388 21.26C73.7988 21.84 73.7788 22.22 73.7788 22.4C73.7788 22.6 73.7088 22.75 73.5688 22.85C73.4288 22.95 73.2788 23 73.1188 23H72.0388C71.4188 23 70.9088 22.94 70.5088 22.82C70.1288 22.68 69.8188 22.49 69.5788 22.25C69.3588 22.01 69.1988 21.72 69.0988 21.38C69.0188 21.02 68.9788 20.61 68.9788 20.15C68.9788 19.85 68.9888 19.43 69.0088 18.89C69.0488 18.33 69.1088 17.57 69.1888 16.61C69.2688 15.63 69.3588 14.4 69.4588 12.92C69.5788 11.42 69.7188 9.57 69.8788 7.37C69.9188 6.79 70.1288 6.5 70.5088 6.5H71.6788C72.2388 6.5 72.7088 6.56 73.0888 6.68C73.4688 6.8 73.7788 6.97 74.0188 7.19C74.2588 7.39 74.4288 7.63 74.5288 7.91C74.6488 8.19 74.7288 8.48 74.7688 8.78C75.0088 8.32001 75.2888 7.93 75.6088 7.61C75.9488 7.27 76.2988 7 76.6588 6.8C77.0188 6.58 77.3888 6.43001 77.7688 6.35001C78.1488 6.25001 78.4988 6.20001 78.8188 6.20001C79.1988 6.20001 79.5788 6.27 79.9588 6.41C80.3588 6.55 80.7188 6.76 81.0388 7.04C81.3588 7.32 81.6088 7.68 81.7888 8.12C81.9888 8.56 82.0888 9.08 82.0888 9.68C82.0888 10.22 82.0088 10.73 81.8488 11.21C81.6888 11.69 81.4588 12.12 81.1588 12.5C80.8588 12.86 80.4888 13.15 80.0488 13.37C79.6288 13.57 79.1588 13.67 78.6388 13.67Z" fill="#433232"/>
</svg>
