<svg width="184" height="26" viewBox="0 0 184 26" fill="none" xmlns="http://www.w3.org/2000/svg">
<path d="M3.03422 24.54C3.01422 24.54 2.98422 24.52 2.94422 24.48C2.74422 24.32 2.60422 24.09 2.52422 23.79C2.46422 23.47 2.43422 23.2 2.43422 22.98C2.41422 22.62 2.38422 22.26 2.34422 21.9C2.32422 21.54 2.31422 21.19 2.31422 20.85C2.31422 20.33 2.31422 19.82 2.31422 19.32C2.31422 18.82 2.36422 18.32 2.46422 17.82C2.52422 17.5 2.62422 17.25 2.76422 17.07C2.90422 16.87 3.12422 16.71 3.42422 16.59C3.98422 16.37 4.54422 16.26 5.10422 16.26H18.9342C19.3142 16.28 19.7042 16.31 20.1042 16.35C20.5042 16.39 20.8842 16.49 21.2442 16.65C21.6442 16.81 21.9042 17.08 22.0242 17.46C22.1642 17.82 22.2542 18.2 22.2942 18.6C22.3142 18.94 22.3242 19.34 22.3242 19.8C22.3442 20.24 22.3442 20.69 22.3242 21.15C22.3042 21.61 22.2742 22.07 22.2342 22.53C22.1942 22.97 22.1242 23.37 22.0242 23.73C21.9642 23.95 21.8942 24.14 21.8142 24.3C21.7342 24.48 21.5742 24.61 21.3342 24.69C21.1142 24.77 20.8842 24.82 20.6442 24.84C20.4242 24.86 20.2042 24.87 19.9842 24.87L4.65422 24.81C4.39422 24.79 4.11422 24.78 3.81422 24.78C3.51422 24.78 3.25422 24.7 3.03422 24.54ZM11.5542 1.53C12.7542 2.17 13.6042 3.05 14.1042 4.17C14.6242 5.29 14.8242 6.63 14.7042 8.19C14.5842 10.19 14.0142 11.68 12.9942 12.66C11.9942 13.64 10.4542 14.13 8.37422 14.13C7.83422 14.13 7.33422 14.14 6.87422 14.16C6.43422 14.16 6.01422 14.13 5.61422 14.07C5.21422 14.01 4.80422 13.91 4.38422 13.77C3.96422 13.61 3.51422 13.37 3.03422 13.05C2.09422 12.43 1.44422 11.62 1.08422 10.62C0.744219 9.62 0.574219 8.59 0.574219 7.53C0.574219 6.47 0.764219 5.48 1.14422 4.56C1.52422 3.62 2.14422 2.82 3.00422 2.16C3.70422 1.6 4.48422 1.19 5.34422 0.929996C6.22422 0.669996 7.10422 0.579996 7.98422 0.659996C8.38422 0.699997 8.72422 0.739997 9.00422 0.779996C9.30422 0.799996 9.58422 0.839996 9.84422 0.899996C10.1042 0.959997 10.3642 1.04 10.6242 1.14C10.8842 1.24 11.1942 1.37 11.5542 1.53ZM22.4742 12.6C22.4742 12.6 22.4642 12.67 22.4442 12.81C22.4242 12.95 22.3842 13.11 22.3242 13.29C22.2642 13.47 22.1742 13.66 22.0542 13.86C21.9342 14.04 21.7742 14.19 21.5742 14.31C21.2942 14.47 21.0142 14.55 20.7342 14.55C20.3942 14.55 20.0642 14.44 19.7442 14.22C19.5242 14.06 19.3542 13.85 19.2342 13.59C19.0742 13.29 18.9642 12.96 18.9042 12.6C18.8642 12.24 18.8342 11.87 18.8142 11.49C18.8142 11.11 18.8242 10.74 18.8442 10.38C18.8642 10 18.8742 9.64 18.8742 9.3C18.8942 8.44 18.9042 7.59 18.9042 6.75C18.9042 5.89 18.9042 5.04 18.9042 4.2V3.81C18.8842 3.59 18.8742 3.36 18.8742 3.12C18.8942 2.86 18.9342 2.62 18.9942 2.4C19.0742 2.1 19.2542 1.78 19.5342 1.44C19.6942 1.24 19.9142 1.1 20.1942 1.02C20.4942 0.919997 20.8142 0.889997 21.1542 0.929996C21.7542 1.03 22.1542 1.29 22.3542 1.71C22.4742 1.97 22.5242 2.29 22.5042 2.67C22.5042 3.05 22.4942 3.28 22.4742 3.36V12.6ZM11.1342 8.52C11.1342 8.08 11.1142 7.67 11.0742 7.29C11.0342 6.89 10.9442 6.53 10.8042 6.21C10.6842 5.87 10.4942 5.57 10.2342 5.31C9.97422 5.05 9.63422 4.84 9.21422 4.68C8.75422 4.52 8.25422 4.44 7.71422 4.44C7.17422 4.44 6.66422 4.54 6.18422 4.74C5.70422 4.92 5.28422 5.21 4.92422 5.61C4.56422 5.99 4.33422 6.49 4.23422 7.11C4.17422 7.53 4.17422 7.96 4.23422 8.4C4.31422 8.82 4.46422 9.21 4.68422 9.57C4.92422 9.91 5.24422 10.2 5.64422 10.44C6.06422 10.68 6.58422 10.83 7.20422 10.89C7.62422 10.93 8.04422 10.93 8.46422 10.89C8.88422 10.83 9.27422 10.71 9.63422 10.53C9.99422 10.35 10.3042 10.1 10.5642 9.78C10.8242 9.44 11.0142 9.02 11.1342 8.52ZM5.88422 21.03C5.88422 21.13 5.88422 21.23 5.88422 21.33C5.90422 21.41 5.94422 21.47 6.00422 21.51C6.04422 21.55 6.10422 21.58 6.18422 21.6C6.28422 21.6 6.38422 21.6 6.48422 21.6C6.58422 21.6 6.70422 21.59 6.84422 21.57H15.9342C16.2142 21.59 16.4842 21.61 16.7442 21.63C16.9642 21.65 17.1942 21.66 17.4342 21.66C17.6742 21.66 17.8942 21.64 18.0942 21.6C18.2942 21.58 18.4142 21.53 18.4542 21.45C18.4942 21.35 18.5242 21.21 18.5442 21.03C18.5642 20.87 18.5742 20.69 18.5742 20.49C18.5742 20.27 18.5142 20.08 18.3942 19.92C18.2542 19.76 18.0542 19.68 17.7942 19.68C17.5542 19.66 17.3342 19.66 17.1342 19.68H9.09422C8.65422 19.64 8.22422 19.63 7.80422 19.65C7.38422 19.65 6.95422 19.66 6.51422 19.68C6.35422 19.68 6.22422 19.69 6.12422 19.71C6.04422 19.71 5.98422 19.8 5.94422 19.98C5.90422 20.12 5.88422 20.26 5.88422 20.4C5.88422 20.52 5.88422 20.64 5.88422 20.76C5.90422 20.8 5.90422 20.84 5.88422 20.88C5.88422 20.92 5.88422 20.97 5.88422 21.03Z" fill="#EDA1A1"/>
<path d="M25.2471 14.37C24.9671 14.25 24.7671 14.02 24.6471 13.68C24.4871 13.28 24.4571 12.88 24.5571 12.48C24.6771 12.08 24.8571 11.7 25.0971 11.34C25.3371 10.98 25.6071 10.64 25.9071 10.32C26.2271 10 26.4971 9.7 26.7171 9.42C27.0571 9 27.3871 8.58 27.7071 8.16C28.0271 7.74 28.3571 7.31 28.6971 6.87C28.9371 6.53 29.1871 6.13 29.4471 5.67C29.7071 5.21 29.8571 4.76 29.8971 4.32C29.8971 4.2 29.9071 4.05 29.9271 3.87C29.9471 3.67 29.9571 3.47 29.9571 3.27C29.9771 3.05 29.9971 2.85 30.0171 2.67C30.0371 2.49 30.0671 2.34 30.1071 2.22C30.2271 1.82 30.4171 1.55 30.6771 1.41C30.9571 1.25 31.3771 1.17 31.9371 1.17C32.2571 1.17 32.6171 1.23 33.0171 1.35C33.4171 1.45 33.6871 1.66 33.8271 1.98C33.9671 2.34 34.0071 2.76 33.9471 3.24C33.9071 3.7 33.9471 4.12 34.0671 4.5C34.1671 4.8 34.3171 5.11 34.5171 5.43C34.7171 5.75 34.9271 6.07 35.1471 6.39C35.5271 6.93 35.9071 7.52 36.2871 8.16C36.6671 8.78 37.0171 9.31 37.3371 9.75C37.6571 10.17 37.9671 10.61 38.2671 11.07C38.5671 11.51 38.7671 11.99 38.8671 12.51C38.9671 12.95 38.9171 13.32 38.7171 13.62C38.5371 13.9 38.2871 14.11 37.9671 14.25C37.6471 14.37 37.2971 14.4 36.9171 14.34C36.5371 14.26 36.2071 14.08 35.9271 13.8C35.1871 13.04 34.5171 12.23 33.9171 11.37C33.3171 10.49 32.6971 9.63 32.0571 8.79C32.0571 8.79 31.9671 8.89 31.7871 9.09C31.6071 9.29 31.3871 9.55 31.1271 9.87C30.8671 10.19 30.5771 10.54 30.2571 10.92C29.9371 11.3 29.6371 11.66 29.3571 12C29.0771 12.34 28.8271 12.64 28.6071 12.9C28.4071 13.14 28.2871 13.29 28.2471 13.35C28.0271 13.61 27.7771 13.84 27.4971 14.04C27.2171 14.24 26.9071 14.38 26.5671 14.46C26.3471 14.5 26.1171 14.52 25.8771 14.52C25.6571 14.52 25.4471 14.47 25.2471 14.37ZM29.8671 24.81C29.0471 24.81 28.3871 24.63 27.8871 24.27C27.3871 23.93 27.1371 23.53 27.1371 23.07V18.75C27.0971 18.31 27.0971 17.86 27.1371 17.4C27.1771 16.98 27.3371 16.64 27.6171 16.38C27.9171 16.12 28.2971 15.99 28.7571 15.99C28.8571 15.99 29.0371 16 29.2971 16.02C29.5571 16.02 29.7371 16.04 29.8371 16.08C30.0971 16.16 30.2971 16.28 30.4371 16.44C30.5971 16.6 30.7171 16.79 30.7971 17.01C30.8771 17.21 30.9271 17.43 30.9471 17.67C30.9671 17.89 30.9871 18.11 31.0071 18.33C31.0071 18.41 31.0071 18.6 31.0071 18.9C31.0271 19.18 31.0371 19.49 31.0371 19.83C31.0571 20.15 31.0671 20.45 31.0671 20.73C31.0871 21.01 31.1071 21.18 31.1271 21.24C31.1871 21.26 31.3471 21.29 31.6071 21.33C31.8871 21.35 32.3971 21.36 33.1371 21.36C33.7771 21.36 34.1671 21.35 34.3071 21.33C34.4671 21.31 34.5571 21.3 34.5771 21.3H44.3871C44.3871 21.3 44.4471 21.32 44.5671 21.36C44.7071 21.4 44.8571 21.47 45.0171 21.57C45.1771 21.65 45.3271 21.77 45.4671 21.93C45.6071 22.07 45.6971 22.24 45.7371 22.44C45.8371 23.2 45.7071 23.79 45.3471 24.21C45.1071 24.49 44.8471 24.66 44.5671 24.72C44.2871 24.78 44.1371 24.81 44.1171 24.81H29.8671ZM45.1071 10.35V13.47C45.0871 13.69 45.0571 13.92 45.0171 14.16C44.9771 14.38 44.8971 14.6 44.7771 14.82C44.6371 15.08 44.4671 15.27 44.2671 15.39C43.9471 15.61 43.6071 15.72 43.2471 15.72C42.9471 15.72 42.6671 15.64 42.4071 15.48C42.2071 15.36 42.0471 15.21 41.9271 15.03C41.8071 14.85 41.7071 14.68 41.6271 14.52C41.5671 14.36 41.5271 14.22 41.5071 14.1C41.4871 13.96 41.4771 13.89 41.4771 13.89V3.36C41.4771 3.26 41.4871 3.04 41.5071 2.7C41.5471 2.34 41.6271 2.04 41.7471 1.8C41.9471 1.38 42.3571 1.14 42.9771 1.08C43.3171 1.04 43.6371 1.06 43.9371 1.14C44.2371 1.22 44.4671 1.35 44.6271 1.53C44.7471 1.69 44.8271 1.85 44.8671 2.01C44.9271 2.15 44.9771 2.3 45.0171 2.46C45.0771 2.66 45.1071 2.87 45.1071 3.09C45.1271 3.31 45.1271 3.53 45.1071 3.75V6.99C45.1871 6.99 45.3371 7 45.5571 7.02C45.7771 7.04 46.0071 7.06 46.2471 7.08C46.5071 7.08 46.7471 7.09 46.9671 7.11C47.1871 7.13 47.3371 7.15 47.4171 7.17C47.8171 7.25 48.0971 7.37 48.2571 7.53C48.4171 7.67 48.5271 7.85 48.5871 8.07C48.6271 8.29 48.6471 8.55 48.6471 8.85C48.6471 9.13 48.5871 9.37 48.4671 9.57C48.2271 9.97 47.8671 10.2 47.3871 10.26C46.9071 10.32 46.3771 10.35 45.7971 10.35H45.1071Z" fill="#EDA1A1"/>
<path d="M70.1895 3.57C70.1695 3.73 70.1595 3.86 70.1595 3.96C70.1595 4.06 70.1595 4.15 70.1595 4.23V5.85C70.1595 6.15 70.1595 6.46 70.1595 6.78C70.1595 7.1 70.1695 7.43 70.1895 7.77V9.72C70.1695 10.06 70.1595 10.36 70.1595 10.62C70.1595 10.88 70.1395 11.14 70.0995 11.4C70.0395 11.96 69.8495 12.41 69.5295 12.75C69.2295 13.09 68.7895 13.3 68.2095 13.38C68.0295 13.42 67.8595 13.45 67.6995 13.47C67.5595 13.47 67.4095 13.47 67.2495 13.47H66.3495C66.1695 13.47 65.9695 13.48 65.7495 13.5C65.5295 13.5 65.2595 13.5 64.9395 13.5C64.6195 13.5 64.2995 13.5 63.9795 13.5C63.6595 13.5 63.3395 13.49 63.0195 13.47H55.0095C54.7895 13.47 54.5695 13.47 54.3495 13.47C54.1495 13.45 53.9595 13.42 53.7795 13.38C53.5595 13.38 53.3495 13.35 53.1495 13.29C52.9495 13.21 52.7795 13.1 52.6395 12.96C52.4395 12.8 52.2595 12.55 52.0995 12.21C52.0395 12.05 51.9795 11.89 51.9195 11.73C51.8795 11.57 51.8495 11.41 51.8295 11.25C51.7895 11.13 51.7495 10.99 51.7095 10.83C51.6895 10.67 51.6795 10.53 51.6795 10.41V4.5C51.6795 4.32 51.6595 4.13 51.6195 3.93C51.5795 3.71 51.5595 3.51 51.5595 3.33C51.5395 3.11 51.5395 2.91 51.5595 2.73C51.5795 2.53 51.6395 2.33 51.7395 2.13C51.7795 1.89 51.8395 1.69 51.9195 1.53C51.9995 1.35 52.1095 1.24 52.2495 1.2C52.3495 1.1 52.4995 1.03 52.6995 0.989997C52.8995 0.949996 53.1195 0.909996 53.3595 0.869997C53.5195 0.869997 53.6995 0.889997 53.8995 0.929996C54.0995 0.969997 54.2895 1.01 54.4695 1.05C54.9495 1.21 55.1995 1.47 55.2195 1.83V3.15C55.2195 3.33 55.2195 3.5 55.2195 3.66C55.2395 3.8 55.2495 3.94 55.2495 4.08C55.2495 4.24 55.2595 4.39 55.2795 4.53C55.3195 4.67 55.4495 4.74 55.6695 4.74H66.1695C66.2095 4.74 66.2695 4.73 66.3495 4.71C66.4495 4.69 66.5395 4.67 66.6195 4.65V4.23C66.6595 4.07 66.6795 3.93 66.6795 3.81C66.6795 3.69 66.6795 3.57 66.6795 3.45V2.19C66.6795 2.01 66.6895 1.84 66.7095 1.68C66.7495 1.5 66.8195 1.36 66.9195 1.26C66.9795 1.16 67.0695 1.08 67.1895 1.02C67.3295 0.959996 67.4895 0.909996 67.6695 0.869997C67.7695 0.849997 67.9495 0.839997 68.2095 0.839997H68.8095C69.0295 0.839997 69.2195 0.879997 69.3795 0.959997C69.7995 1.1 70.0395 1.35 70.0995 1.71C70.1395 1.87 70.1595 2.03 70.1595 2.19C70.1595 2.33 70.1695 2.47 70.1895 2.61V3.57ZM69.7695 15.93C69.9695 15.93 70.1495 15.95 70.3095 15.99C70.4695 16.03 70.6295 16.09 70.7895 16.17C71.0495 16.27 71.2895 16.45 71.5095 16.71C71.6695 16.93 71.7495 17.27 71.7495 17.73C71.7495 17.99 71.7195 18.21 71.6595 18.39C71.5995 18.55 71.4595 18.71 71.2395 18.87C70.9195 19.13 70.5395 19.29 70.0995 19.35C69.5595 19.47 69.0495 19.53 68.5695 19.53C68.3095 19.53 68.0695 19.55 67.8495 19.59C67.6495 19.61 67.4695 19.62 67.3095 19.62H62.6595C62.6995 19.9 62.7195 20.25 62.7195 20.67C62.7395 21.07 62.7495 21.38 62.7495 21.6C62.7695 22.02 62.7395 22.51 62.6595 23.07C62.5995 23.43 62.4895 23.77 62.3295 24.09C62.2695 24.43 62.0595 24.72 61.6995 24.96C61.5395 25.08 61.3595 25.16 61.1595 25.2C60.9795 25.26 60.7995 25.29 60.6195 25.29C60.1795 25.29 59.8095 25.18 59.5095 24.96C59.2295 24.84 59.0395 24.62 58.9395 24.3C58.8595 24.12 58.7895 23.97 58.7295 23.85C58.6895 23.71 58.6695 23.57 58.6695 23.43C58.6295 23.33 58.6095 23.22 58.6095 23.1C58.6095 22.98 58.6095 22.86 58.6095 22.74V19.62H52.2495C51.9895 19.62 51.7495 19.6 51.5295 19.56C51.3095 19.52 51.1095 19.48 50.9295 19.44C50.4695 19.28 50.1295 19.02 49.9095 18.66C49.7695 18.48 49.6795 18.3 49.6395 18.12C49.5995 17.94 49.5795 17.74 49.5795 17.52C49.5795 17.14 49.7295 16.81 50.0295 16.53C50.1895 16.37 50.3695 16.25 50.5695 16.17C50.7295 16.11 50.8495 16.07 50.9295 16.05C51.0295 16.03 51.1495 16.02 51.2895 16.02C51.4095 15.98 51.5195 15.96 51.6195 15.96C51.7195 15.96 51.8195 15.96 51.9195 15.96H52.1595L68.7495 15.87C68.9095 15.87 69.0795 15.87 69.2595 15.87C69.4395 15.87 69.6095 15.89 69.7695 15.93ZM66.5595 9.51C66.5995 9.45 66.6195 9.3 66.6195 9.06C66.6195 8.96 66.6195 8.87 66.6195 8.79C66.6195 8.71 66.5995 8.64 66.5595 8.58C66.5595 8.4 66.5495 8.29 66.5295 8.25C66.4295 8.15 66.3295 8.09 66.2295 8.07C66.1495 8.03 66.0595 7.99 65.9595 7.95H59.3895L58.1595 7.92H57.5295C57.4295 7.92 57.3295 7.92 57.2295 7.92C57.1495 7.92 57.0395 7.9 56.8995 7.86C56.7595 7.86 56.6195 7.87 56.4795 7.89C56.3595 7.89 56.2395 7.89 56.1195 7.89C55.8795 7.89 55.6695 7.95 55.4895 8.07C55.4295 8.13 55.3695 8.21 55.3095 8.31C55.2695 8.41 55.2695 8.54 55.3095 8.7V9.66C55.3495 9.74 55.3695 9.79 55.3695 9.81V9.84C55.3695 9.98 55.4495 10.11 55.6095 10.23C55.7095 10.27 55.7895 10.31 55.8495 10.35C55.9295 10.37 56.0195 10.38 56.1195 10.38C56.3195 10.42 56.5195 10.42 56.7195 10.38H64.4295C64.4895 10.38 64.5594 10.39 64.6395 10.41C64.7394 10.41 64.8395 10.4 64.9395 10.38H65.4795C65.5195 10.38 65.5595 10.38 65.5995 10.38C65.6395 10.38 65.7095 10.39 65.8095 10.41H66.1695C66.2095 10.39 66.2595 10.38 66.3195 10.38C66.3795 10.36 66.4295 10.33 66.4695 10.29C66.5095 10.21 66.5295 10.15 66.5295 10.11C66.5495 10.07 66.5595 10 66.5595 9.9V9.51Z" fill="#EDA1A1"/>
<path d="M92.6913 2.16C93.5113 2.16 94.2113 2.23 94.7913 2.37C95.3713 2.51 95.8313 2.87 96.1713 3.45C96.4913 3.99 96.5413 4.53 96.3213 5.07C96.0413 5.63 95.5413 5.96 94.8213 6.06C94.3413 6.14 93.7913 6.19 93.1713 6.21C92.5513 6.21 91.7313 6.19 90.7113 6.15C90.6913 6.49 90.6813 6.85 90.6813 7.23C90.6813 7.59 90.6813 7.93 90.6813 8.25C90.6813 8.55 90.6813 8.81 90.6813 9.03C90.7013 9.25 90.7113 9.39 90.7113 9.45V12.81C90.7113 12.97 90.7213 13.19 90.7413 13.47C90.7613 13.73 90.7813 13.93 90.8013 14.07C90.9613 14.23 91.1813 14.47 91.4613 14.79C91.7413 15.09 91.9613 15.34 92.1213 15.54C92.3213 15.78 92.5213 16.03 92.7213 16.29C92.9413 16.55 93.1613 16.84 93.3813 17.16C93.5413 17.34 93.6813 17.52 93.8013 17.7C93.9213 17.88 94.0313 18.04 94.1313 18.18C94.5113 18.72 94.9013 19.31 95.3013 19.95C95.7013 20.59 95.9713 21.23 96.1113 21.87C96.1713 22.15 96.1713 22.46 96.1113 22.8C96.0713 23.12 95.9313 23.39 95.6913 23.61C95.3513 23.91 94.9713 24.06 94.5513 24.06C94.0913 24.06 93.6513 23.94 93.2313 23.7C92.8113 23.44 92.4713 23.17 92.2113 22.89C91.8313 22.49 91.4713 22.07 91.1313 21.63C90.8113 21.19 90.4913 20.76 90.1713 20.34C89.9513 20.02 89.7213 19.71 89.4813 19.41C89.2413 19.09 88.9913 18.78 88.7313 18.48C88.6913 18.4 88.6513 18.35 88.6113 18.33C88.6113 18.35 88.6013 18.36 88.5813 18.36C88.5813 18.36 88.5813 18.37 88.5813 18.39C88.4813 18.55 88.3613 18.71 88.2213 18.87C88.1013 19.01 87.9913 19.16 87.8913 19.32C87.7313 19.5 87.5813 19.69 87.4413 19.89C87.3213 20.07 87.2013 20.25 87.0813 20.43C86.8013 20.85 86.5213 21.27 86.2413 21.69C85.9613 22.09 85.6413 22.47 85.2813 22.83C84.4213 23.69 83.6113 24.12 82.8513 24.12C82.6513 24.12 82.4613 24.09 82.2813 24.03C81.8213 23.91 81.5113 23.63 81.3513 23.19C81.1913 22.85 81.1313 22.48 81.1713 22.08C81.2313 21.68 81.3313 21.33 81.4713 21.03C81.6313 20.69 81.8113 20.37 82.0113 20.07C82.2113 19.77 82.4213 19.47 82.6413 19.17C82.7813 18.99 82.9113 18.81 83.0313 18.63C83.1713 18.45 83.2913 18.27 83.3913 18.09C83.5713 17.79 83.8113 17.44 84.1113 17.04C84.4313 16.62 84.7413 16.22 85.0413 15.84C85.3613 15.44 85.6513 15.08 85.9113 14.76C86.1713 14.44 86.3513 14.21 86.4513 14.07V6.15H84.6213C83.8613 6.15 83.3313 6.15 83.0313 6.15C82.7513 6.13 82.5413 6.1 82.4013 6.06C81.6413 5.94 81.1313 5.51 80.8713 4.77C80.6513 4.13 80.7313 3.57 81.1113 3.09C81.4513 2.61 81.9313 2.31 82.5513 2.19C82.6513 2.17 82.7513 2.16 82.8513 2.16C82.9513 2.14 83.0613 2.13 83.1813 2.13C83.3813 2.13 83.5213 2.14 83.6013 2.16H92.6913ZM102.801 22.38C102.761 22.62 102.731 22.86 102.711 23.1C102.691 23.32 102.641 23.55 102.561 23.79C102.521 23.87 102.491 23.94 102.471 24C102.451 24.06 102.421 24.13 102.381 24.21C102.241 24.49 102.061 24.71 101.841 24.87C101.381 25.15 100.871 25.22 100.311 25.08C99.9913 25.02 99.7313 24.9 99.5313 24.72C99.3513 24.56 99.2113 24.35 99.1113 24.09C99.0313 23.85 98.9613 23.61 98.9013 23.37C98.8613 23.13 98.8413 22.92 98.8413 22.74C98.8413 22.56 98.8413 22.46 98.8413 22.44V4.23C98.8413 3.99 98.8413 3.73 98.8413 3.45C98.8413 3.17 98.8613 2.89 98.9013 2.61C98.9413 2.33 99.0013 2.07 99.0813 1.83C99.1613 1.59 99.2713 1.4 99.4113 1.26C99.6313 1.04 99.8613 0.909996 100.101 0.869997C100.341 0.809996 100.601 0.779996 100.881 0.779996C101.221 0.779996 101.531 0.879996 101.811 1.08C102.111 1.26 102.321 1.52 102.441 1.86C102.621 2.28 102.721 2.72 102.741 3.18C102.761 3.64 102.781 4.1 102.801 4.56V4.71C102.841 6.25 102.851 7.83 102.831 9.45C102.811 11.07 102.801 12.6 102.801 14.04V21.3C102.801 21.48 102.801 21.66 102.801 21.84C102.821 22.02 102.821 22.2 102.801 22.38Z" fill="#EDA1A1"/>
<path d="M113.628 0.539996C114.648 0.599996 115.568 0.759996 116.388 1.02C117.228 1.26 117.928 1.61 118.488 2.07C119.068 2.53 119.498 3.09 119.778 3.75C120.078 4.41 120.188 5.16 120.108 6C119.968 7.44 119.338 8.55 118.218 9.33C117.098 10.11 115.578 10.5 113.658 10.5C113.138 10.5 112.638 10.5 112.158 10.5C111.698 10.48 111.238 10.45 110.778 10.41C110.318 10.35 109.868 10.26 109.428 10.14C108.988 10.02 108.538 9.85 108.078 9.63C107.198 9.17 106.598 8.57 106.278 7.83C105.978 7.07 105.828 6.3 105.828 5.52C105.828 3.8 106.498 2.54 107.838 1.74C109.198 0.939996 111.128 0.539996 113.628 0.539996ZM126.288 21.63C126.308 21.63 126.378 21.65 126.498 21.69C126.618 21.73 126.748 21.8 126.888 21.9C127.048 21.98 127.188 22.1 127.308 22.26C127.448 22.4 127.538 22.57 127.578 22.77C127.698 23.53 127.578 24.12 127.218 24.54C126.998 24.82 126.758 24.99 126.498 25.05C126.238 25.11 126.098 25.14 126.078 25.14H110.418C109.658 25.14 109.058 25.01 108.618 24.75C108.178 24.51 107.958 24.16 107.958 23.7V21.03C107.918 20.59 107.918 20.14 107.958 19.68C107.998 19.26 108.158 18.92 108.438 18.66C108.718 18.4 109.068 18.27 109.488 18.27C109.588 18.27 109.718 18.28 109.878 18.3C110.058 18.3 110.198 18.32 110.298 18.36C110.558 18.44 110.758 18.56 110.898 18.72C111.038 18.88 111.148 19.07 111.228 19.29C111.308 19.49 111.358 19.71 111.378 19.95C111.398 20.17 111.418 20.39 111.438 20.61C111.438 20.77 111.448 20.94 111.468 21.12C111.488 21.28 111.518 21.43 111.558 21.57C111.598 21.59 111.778 21.62 112.098 21.66C112.438 21.68 112.958 21.69 113.658 21.69C114.258 21.69 114.788 21.68 115.248 21.66C115.728 21.64 115.978 21.63 115.998 21.63H126.288ZM127.008 15.9C126.988 16.02 126.958 16.18 126.918 16.38C126.898 16.56 126.868 16.75 126.828 16.95C126.808 17.15 126.778 17.34 126.738 17.52C126.698 17.68 126.658 17.82 126.618 17.94C126.518 18.18 126.358 18.4 126.138 18.6C125.918 18.74 125.678 18.82 125.418 18.84C125.178 18.86 124.948 18.85 124.728 18.81C124.588 18.77 124.458 18.74 124.338 18.72C124.238 18.7 124.138 18.64 124.038 18.54C123.498 18 123.258 17.24 123.318 16.26L123.378 10.44C122.658 10.44 121.978 10.39 121.338 10.29C120.698 10.17 120.258 9.94 120.018 9.6C119.878 9.4 119.808 9.17 119.808 8.91C119.808 8.65 119.868 8.4 119.988 8.16C120.108 7.9 120.268 7.69 120.468 7.53C120.668 7.35 120.888 7.25 121.128 7.23C121.368 7.23 121.688 7.22 122.088 7.2C122.488 7.18 122.918 7.17 123.378 7.17V3.87C123.378 3.65 123.378 3.4 123.378 3.12C123.378 2.84 123.388 2.57 123.408 2.31C123.448 2.03 123.508 1.77 123.588 1.53C123.668 1.29 123.768 1.1 123.888 0.959997C124.108 0.739997 124.328 0.609997 124.548 0.569997C124.768 0.529996 124.998 0.509996 125.238 0.509996C125.938 0.509996 126.418 0.849996 126.678 1.53C126.838 1.97 126.928 2.41 126.948 2.85C126.968 3.29 126.988 3.74 127.008 4.2V4.35C127.048 5.87 127.058 7.38 127.038 8.88C127.018 10.36 127.008 11.81 127.008 13.23V15.9ZM115.428 15.3C115.448 16.2 115.398 16.97 115.278 17.61C115.178 18.25 114.898 18.71 114.438 18.99C114.198 19.13 113.918 19.22 113.598 19.26C113.298 19.28 112.998 19.25 112.698 19.17C112.418 19.09 112.168 18.97 111.948 18.81C111.748 18.63 111.638 18.42 111.618 18.18C111.578 17.92 111.548 17.53 111.528 17.01C111.528 16.49 111.528 15.91 111.528 15.27C111.028 15.25 110.428 15.23 109.728 15.21C109.028 15.17 108.418 15.15 107.898 15.15C107.618 15.11 107.338 15.07 107.058 15.03C106.778 14.97 106.518 14.81 106.278 14.55C106.038 14.31 105.918 13.96 105.918 13.5C105.918 13.08 106.038 12.73 106.278 12.45C106.418 12.29 106.588 12.17 106.788 12.09C107.008 12.01 107.218 11.95 107.418 11.91C107.618 11.87 107.788 11.85 107.928 11.85C108.088 11.85 108.178 11.85 108.198 11.85H118.458C118.858 11.81 119.268 11.81 119.688 11.85C120.128 11.89 120.498 12.05 120.798 12.33C121.178 12.71 121.368 13.14 121.368 13.62C121.368 13.92 121.288 14.2 121.128 14.46C120.968 14.7 120.748 14.87 120.468 14.97C120.108 15.13 119.708 15.23 119.268 15.27C118.848 15.31 118.448 15.32 118.068 15.3H115.428ZM116.208 6.12C116.308 5.54 116.188 5.06 115.848 4.68C115.528 4.28 115.048 3.99 114.408 3.81C113.988 3.69 113.508 3.62 112.968 3.6C112.448 3.56 111.938 3.59 111.438 3.69C110.958 3.79 110.538 3.97 110.178 4.23C109.818 4.47 109.598 4.81 109.518 5.25C109.398 5.85 109.528 6.37 109.908 6.81C110.308 7.25 111.088 7.52 112.248 7.62C112.648 7.66 113.058 7.68 113.478 7.68C113.898 7.68 114.288 7.64 114.648 7.56C115.028 7.46 115.348 7.32 115.608 7.14C115.888 6.94 116.078 6.66 116.178 6.3L116.208 6.12Z" fill="#EDA1A1"/>
<path d="M139.243 20.4C139.243 19.5 139.503 18.75 140.023 18.15C140.563 17.55 141.283 17.08 142.183 16.74C143.083 16.38 144.143 16.13 145.363 15.99C146.583 15.85 147.883 15.78 149.263 15.78C150.643 15.78 151.943 15.83 153.163 15.93C154.383 16.03 155.443 16.25 156.343 16.59C157.243 16.91 157.953 17.37 158.473 17.97C159.013 18.57 159.283 19.38 159.283 20.4C159.283 21.4 159.013 22.2 158.473 22.8C157.953 23.4 157.243 23.86 156.343 24.18C155.443 24.52 154.383 24.74 153.163 24.84C151.943 24.96 150.643 25.02 149.263 25.02C147.883 25.02 146.583 24.96 145.363 24.84C144.143 24.74 143.083 24.52 142.183 24.18C141.283 23.86 140.563 23.4 140.023 22.8C139.503 22.2 139.243 21.4 139.243 20.4ZM146.893 4.59C146.893 4.59 146.883 4.71 146.863 4.95C146.863 5.19 146.863 5.46 146.863 5.76C146.863 6.06 146.863 6.34 146.863 6.6C146.883 6.86 146.893 7.01 146.893 7.05C146.993 7.15 147.173 7.32 147.433 7.56C147.693 7.78 147.913 7.97 148.093 8.13C148.293 8.29 148.493 8.47 148.693 8.67C148.913 8.85 149.133 9.05 149.353 9.27C149.493 9.41 149.623 9.55 149.743 9.69C149.863 9.81 149.973 9.92 150.073 10.02C150.453 10.4 150.833 10.81 151.213 11.25C151.593 11.69 151.853 12.14 151.993 12.6C152.053 12.78 152.063 12.98 152.023 13.2C151.983 13.42 151.853 13.61 151.633 13.77C151.293 13.97 150.933 14.07 150.553 14.07C150.113 14.07 149.693 13.98 149.293 13.8C148.893 13.62 148.573 13.44 148.333 13.26C147.953 12.98 147.603 12.69 147.283 12.39C146.963 12.07 146.643 11.75 146.323 11.43C146.103 11.21 145.853 10.96 145.573 10.68C145.293 10.38 145.013 10.12 144.733 9.9L143.923 10.71C143.783 10.85 143.643 10.99 143.503 11.13C143.363 11.25 143.233 11.38 143.113 11.52C142.853 11.8 142.583 12.09 142.303 12.39C142.023 12.67 141.703 12.94 141.343 13.2C140.523 13.8 139.753 14.1 139.033 14.1C138.933 14.1 138.843 14.1 138.763 14.1C138.703 14.1 138.623 14.08 138.523 14.04C138.083 13.94 137.793 13.76 137.653 13.5C137.513 13.28 137.463 13.03 137.503 12.75C137.563 12.47 137.653 12.22 137.773 12C137.933 11.78 138.113 11.57 138.313 11.37C138.513 11.15 138.713 10.93 138.913 10.71C139.093 10.51 139.373 10.23 139.753 9.87C140.153 9.49 140.553 9.11 140.953 8.73C141.353 8.33 141.723 7.97 142.063 7.65C142.403 7.33 142.613 7.13 142.693 7.05V4.59H140.773C140.533 4.59 140.253 4.6 139.933 4.62C139.613 4.62 139.293 4.6 138.973 4.56C138.673 4.52 138.393 4.44 138.133 4.32C137.873 4.18 137.683 3.96 137.563 3.66C137.463 3.44 137.393 3.19 137.353 2.91C137.333 2.63 137.353 2.37 137.413 2.13C137.493 1.85 137.673 1.66 137.953 1.56C138.233 1.44 138.503 1.36 138.763 1.32C138.803 1.32 138.963 1.32 139.243 1.32C139.543 1.32 139.863 1.32 140.203 1.32C140.543 1.32 140.863 1.32 141.163 1.32C141.463 1.32 141.643 1.31 141.703 1.29H148.723C149.523 1.29 150.193 1.34 150.733 1.44C151.293 1.54 151.743 1.79 152.083 2.19C152.183 2.31 152.243 2.47 152.263 2.67C152.303 2.87 152.303 3.08 152.263 3.3C152.243 3.5 152.183 3.69 152.083 3.87C152.003 4.05 151.883 4.18 151.723 4.26C151.563 4.32 151.373 4.39 151.153 4.47C150.933 4.53 150.743 4.57 150.583 4.59C150.303 4.61 150.013 4.62 149.713 4.62C149.433 4.6 149.153 4.59 148.873 4.59H146.893ZM153.673 9.66C153.093 9.62 152.573 9.59 152.113 9.57C151.653 9.53 151.293 9.31 151.033 8.91C150.913 8.71 150.853 8.45 150.853 8.13C150.853 7.81 150.873 7.54 150.913 7.32C150.973 7.1 151.083 6.92 151.243 6.78C151.403 6.62 151.683 6.49 152.083 6.39C152.163 6.37 152.353 6.36 152.653 6.36C152.973 6.34 153.313 6.33 153.673 6.33C154.033 6.31 154.373 6.3 154.693 6.3C155.013 6.28 155.213 6.27 155.293 6.27V3.42C155.273 3.2 155.263 2.98 155.263 2.76C155.283 2.54 155.323 2.32 155.383 2.1C155.423 1.94 155.463 1.79 155.503 1.65C155.543 1.51 155.633 1.36 155.773 1.2C155.933 0.999996 156.153 0.859996 156.433 0.779996C156.733 0.699996 157.053 0.679996 157.393 0.719997C157.693 0.759996 157.963 0.849997 158.203 0.989997C158.443 1.11 158.613 1.27 158.713 1.47C158.833 1.71 158.903 2.01 158.923 2.37C158.963 2.71 158.983 2.92 158.983 3V13.29H158.953C158.953 13.31 158.943 13.38 158.923 13.5C158.903 13.62 158.863 13.77 158.803 13.95C158.743 14.11 158.653 14.28 158.533 14.46C158.413 14.64 158.253 14.79 158.053 14.91C157.773 15.07 157.463 15.15 157.123 15.15C156.783 15.15 156.453 15.04 156.133 14.82C155.893 14.66 155.723 14.46 155.623 14.22C155.503 14 155.423 13.78 155.383 13.56C155.343 13.34 155.313 13.12 155.293 12.9V9.66H153.673ZM155.233 20.4C155.233 20.06 155.053 19.79 154.693 19.59C154.333 19.39 153.863 19.24 153.283 19.14C152.723 19.04 152.083 18.98 151.363 18.96C150.663 18.92 149.963 18.9 149.263 18.9C148.563 18.9 147.863 18.92 147.163 18.96C146.483 18.98 145.863 19.04 145.303 19.14C144.763 19.24 144.323 19.39 143.983 19.59C143.643 19.79 143.473 20.06 143.473 20.4C143.473 20.7 143.643 20.95 143.983 21.15C144.323 21.35 144.763 21.5 145.303 21.6C145.863 21.7 146.483 21.77 147.163 21.81C147.863 21.85 148.563 21.87 149.263 21.87C149.963 21.87 150.663 21.87 151.363 21.87C152.083 21.87 152.723 21.83 153.283 21.75C153.863 21.67 154.333 21.53 154.693 21.33C155.053 21.11 155.233 20.8 155.233 20.4Z" fill="#EDA1A1"/>
<path d="M172.423 10.23C172.763 10.63 173.103 11.05 173.443 11.49C173.783 11.93 174.013 12.37 174.133 12.81C174.173 13.01 174.173 13.22 174.133 13.44C174.093 13.66 173.983 13.85 173.803 14.01C173.503 14.21 173.183 14.31 172.843 14.31C172.463 14.31 172.093 14.22 171.733 14.04C171.393 13.86 171.113 13.68 170.893 13.5C170.553 13.2 170.243 12.9 169.963 12.6C169.683 12.28 169.403 11.97 169.123 11.67C168.903 11.43 168.663 11.19 168.403 10.95C168.143 10.71 167.913 10.45 167.713 10.17L164.743 13.44C164.423 13.78 164.083 14.02 163.723 14.16C163.363 14.28 163.023 14.34 162.703 14.34C162.603 14.34 162.453 14.32 162.253 14.28C161.873 14.18 161.613 14 161.473 13.74C161.353 13.52 161.313 13.27 161.353 12.99C161.393 12.71 161.473 12.46 161.593 12.24C161.733 12 161.883 11.78 162.043 11.58C162.223 11.38 162.403 11.17 162.583 10.95C163.103 10.37 163.603 9.77 164.083 9.15C164.583 8.51 165.123 7.89 165.703 7.29V5.64C165.543 5.66 165.343 5.67 165.103 5.67C164.863 5.65 164.573 5.64 164.233 5.64C164.013 5.64 163.763 5.65 163.483 5.67C163.203 5.69 162.923 5.68 162.643 5.64C162.383 5.6 162.143 5.52 161.923 5.4C161.703 5.26 161.533 5.04 161.413 4.74C161.313 4.52 161.253 4.27 161.233 3.99C161.213 3.71 161.233 3.45 161.293 3.21C161.353 2.93 161.503 2.74 161.743 2.64C162.003 2.52 162.243 2.44 162.463 2.4C162.663 2.36 162.843 2.34 163.003 2.34C163.063 2.34 163.123 2.35 163.183 2.37C163.243 2.37 163.303 2.37 163.363 2.37H165.793C165.833 1.91 165.923 1.48 166.063 1.08C166.223 0.659997 166.523 0.369997 166.963 0.209996C167.303 0.0899967 167.613 0.0599965 167.893 0.119996C168.193 0.179996 168.453 0.299996 168.673 0.479996C168.893 0.659997 169.073 0.889997 169.213 1.17C169.353 1.45 169.443 1.74 169.483 2.04C169.503 2.1 169.513 2.16 169.513 2.22C169.533 2.26 169.543 2.31 169.543 2.37H171.253C171.953 2.37 172.513 2.42 172.933 2.52C173.353 2.6 173.703 2.84 173.983 3.24C174.063 3.36 174.123 3.53 174.163 3.75C174.203 3.95 174.203 4.16 174.163 4.38C174.143 4.58 174.093 4.77 174.013 4.95C173.933 5.13 173.833 5.26 173.713 5.34C173.553 5.4 173.373 5.47 173.173 5.55C172.993 5.61 172.823 5.64 172.663 5.64C172.423 5.66 172.203 5.67 172.003 5.67C171.823 5.65 171.613 5.64 171.373 5.64C171.013 5.64 170.733 5.65 170.533 5.67C170.333 5.67 170.093 5.66 169.813 5.64C169.813 5.9 169.813 6.07 169.813 6.15C169.813 6.21 169.813 6.27 169.813 6.33C169.813 6.39 169.813 6.48 169.813 6.6C169.813 6.72 169.813 6.95 169.813 7.29C169.913 7.37 170.043 7.53 170.203 7.77C170.363 8.01 170.523 8.21 170.683 8.37C170.843 8.53 171.013 8.71 171.193 8.91C171.373 9.09 171.563 9.29 171.763 9.51C171.903 9.65 172.023 9.78 172.123 9.9C172.223 10.02 172.323 10.13 172.423 10.23ZM183.493 13.29C183.493 13.31 183.483 13.38 183.463 13.5C183.463 13.62 183.433 13.77 183.373 13.95C183.313 14.11 183.223 14.28 183.103 14.46C183.003 14.64 182.853 14.79 182.653 14.91C182.433 15.05 182.203 15.12 181.963 15.12C181.563 15.12 181.233 15.02 180.973 14.82C180.753 14.66 180.583 14.46 180.463 14.22C180.163 13.66 180.023 13.05 180.043 12.39C180.063 11.71 180.083 11.06 180.103 10.44V10.02C179.883 10.04 179.663 10.06 179.443 10.08C179.243 10.08 179.043 10.08 178.843 10.08H178.753V12.81C178.733 13.03 178.703 13.26 178.663 13.5C178.623 13.72 178.543 13.94 178.423 14.16C178.283 14.42 178.113 14.61 177.913 14.73C177.773 14.83 177.653 14.91 177.553 14.97C177.453 15.03 177.313 15.06 177.133 15.06C176.853 15.06 176.573 14.98 176.293 14.82C176.093 14.7 175.933 14.55 175.813 14.37C175.693 14.19 175.603 14.02 175.543 13.86C175.483 13.7 175.443 13.56 175.423 13.44C175.403 13.3 175.393 13.23 175.393 13.23V3.33C175.373 3.23 175.373 3.01 175.393 2.67C175.433 2.31 175.513 2.01 175.633 1.77C175.833 1.35 176.243 1.11 176.863 1.05C177.203 1.01 177.483 1.03 177.703 1.11C177.923 1.19 178.113 1.32 178.273 1.5C178.413 1.66 178.503 1.82 178.543 1.98C178.583 2.12 178.623 2.27 178.663 2.43C178.723 2.63 178.753 2.84 178.753 3.06C178.773 3.28 178.783 3.5 178.783 3.72C178.763 3.8 178.753 3.92 178.753 4.08V6.72C178.853 6.74 179.033 6.76 179.293 6.78C179.573 6.78 179.853 6.79 180.133 6.81V3.63C180.113 3.41 180.103 3.2 180.103 3C180.123 2.78 180.163 2.56 180.223 2.34C180.303 2.04 180.483 1.74 180.763 1.44C181.083 1.04 181.553 0.879997 182.173 0.959997C182.693 1.04 183.053 1.3 183.253 1.74C183.373 1.98 183.443 2.27 183.463 2.61C183.503 2.95 183.513 3.16 183.493 3.24V13.29ZM180.253 17.1C181.073 17.1 181.733 17.23 182.233 17.49C182.733 17.73 182.983 18.08 182.983 18.54V22.56C183.023 23.02 183.023 23.46 182.983 23.88C182.943 24.3 182.773 24.64 182.473 24.9C182.193 25.16 181.823 25.29 181.363 25.29C181.263 25.29 181.083 25.28 180.823 25.26C180.563 25.26 180.383 25.24 180.283 25.2C180.023 25.12 179.813 25 179.653 24.84C179.513 24.68 179.403 24.5 179.323 24.3C179.243 24.1 179.183 23.89 179.143 23.67C179.123 23.43 179.103 23.2 179.083 22.98C179.083 22.9 179.073 22.75 179.053 22.53C179.053 22.29 179.053 22.05 179.053 21.81C179.053 21.55 179.043 21.31 179.023 21.09C179.023 20.87 179.013 20.72 178.993 20.64C178.933 20.62 178.763 20.6 178.483 20.58C178.223 20.56 177.723 20.55 176.983 20.55C176.343 20.55 175.943 20.56 175.783 20.58C175.643 20.6 175.563 20.61 175.543 20.61H164.713L164.683 20.58C164.683 20.58 164.613 20.56 164.473 20.52C164.353 20.48 164.213 20.42 164.053 20.34C163.893 20.26 163.733 20.15 163.573 20.01C163.433 19.87 163.353 19.69 163.333 19.47C163.233 18.71 163.363 18.11 163.723 17.67C163.963 17.39 164.223 17.23 164.503 17.19C164.783 17.13 164.933 17.1 164.953 17.1H180.253Z" fill="#EDA1A1"/>
</svg>
