<svg width="255" height="19" viewBox="0 0 255 19" fill="none" xmlns="http://www.w3.org/2000/svg">
<path d="M4.49335 8.78C3.73335 8.79333 3.03335 8.65333 2.39335 8.36C1.76669 8.05333 1.26002 7.62 0.873355 7.06C0.500021 6.5 0.313354 5.85333 0.313354 5.12C0.313354 4.4 0.506688 3.76 0.893355 3.2C1.28002 2.62666 1.78669 2.17333 2.41335 1.84C3.05335 1.49333 3.75335 1.31333 4.51335 1.3C5.28669 1.27333 5.98669 1.40666 6.61335 1.7C7.25335 1.98 7.76002 2.4 8.13336 2.96C8.52002 3.50666 8.71336 4.17333 8.71336 4.96C8.71336 5.66666 8.52002 6.30666 8.13336 6.88C7.74669 7.45333 7.23335 7.90666 6.59335 8.24C5.95336 8.57333 5.25335 8.75333 4.49335 8.78ZM5.79335 18.2C5.38002 18.1867 5.05336 18.0467 4.81335 17.78C4.57335 17.5133 4.45335 17.0933 4.45335 16.52V15.5C4.45335 15.2867 4.44002 15.0733 4.41335 14.86C4.38669 14.6467 4.32669 14.4533 4.23335 14.28C4.20669 14.2267 4.20669 14.1733 4.23335 14.12C4.26002 14.0667 4.32002 14.04 4.41335 14.04C4.76002 14.0533 5.20669 14.0667 5.75335 14.08C6.30002 14.08 6.90002 14.08 7.55335 14.08C8.20669 14.08 8.85336 14.0733 9.49336 14.06C10.1467 14.0333 10.74 14.0067 11.2734 13.98C11.82 13.9533 12.2534 13.9133 12.5734 13.86L12.6334 12.14C12.6334 12.1267 12.6334 12.1067 12.6334 12.08C12.6334 12.0133 12.6267 11.9733 12.6134 11.96C12.6 11.9333 12.54 11.92 12.4334 11.92C12.14 11.92 11.72 11.9267 11.1734 11.94C10.6267 11.9533 10.04 11.9733 9.41335 12C8.80002 12.0133 8.21336 12.0333 7.65335 12.06C7.09335 12.0733 6.64002 12.0933 6.29335 12.12L4.75336 12.22C4.60669 12.2333 4.51335 12.22 4.47335 12.18C4.43335 12.1267 4.40002 12.0533 4.37335 11.96L4.25335 11.22C4.22669 11.1133 4.28002 11.0667 4.41335 11.08C4.64002 11.0933 4.98669 11.1067 5.45335 11.12C5.93335 11.1333 6.48002 11.14 7.09335 11.14C7.72002 11.1267 8.36669 11.1067 9.03336 11.08C9.70002 11.0533 10.34 11.02 10.9534 10.98C11.5667 10.94 12.1 10.8867 12.5534 10.82C12.58 10.82 12.6067 10.8133 12.6334 10.8C12.7267 10.7867 12.8 10.7867 12.8534 10.8L13.8734 10.96C13.94 10.9733 13.9734 11 13.9734 11.04C13.9867 11.0667 13.9934 11.0933 13.9934 11.12C13.9934 11.1333 13.9934 11.14 13.9934 11.14C13.9267 11.74 13.8734 12.3067 13.8334 12.84C13.7934 13.3733 13.7534 13.94 13.7134 14.54C13.7 14.6867 13.66 14.78 13.5934 14.82C13.5267 14.8467 13.46 14.86 13.3934 14.86C12.9534 14.86 12.4067 14.8667 11.7534 14.88C11.1 14.8933 10.4067 14.9067 9.67336 14.92C8.95335 14.9333 8.24669 14.9533 7.55335 14.98C6.86002 14.9933 6.24669 15.0067 5.71335 15.02V16.44C5.71335 16.7467 5.74002 16.94 5.79335 17.02C5.86002 17.1133 6.00669 17.1667 6.23336 17.18C7.10002 17.2067 8.02002 17.2133 8.99335 17.2C9.96669 17.1867 10.8867 17.1533 11.7534 17.1C12.3 17.0733 12.8 17.0333 13.2534 16.98C13.7067 16.9267 14.1067 16.8533 14.4534 16.76C14.5867 16.7333 14.6734 16.74 14.7134 16.78C14.7534 16.82 14.78 16.8733 14.7934 16.94L14.9134 17.78C14.9267 17.8467 14.9067 17.9067 14.8534 17.96C14.8 18.0133 14.68 18.04 14.4934 18.04C13.56 18.04 12.5867 18.0467 11.5734 18.06C10.56 18.0867 9.56002 18.1067 8.57335 18.12C7.60002 18.1467 6.67335 18.1733 5.79335 18.2ZM4.51335 7.78C5.32669 7.75333 6.00669 7.48666 6.55336 6.98C7.10002 6.47333 7.37335 5.8 7.37335 4.96C7.37335 4.04 7.09335 3.36 6.53335 2.92C5.98669 2.48 5.30669 2.27333 4.49335 2.3C3.69335 2.32666 3.01335 2.59333 2.45335 3.1C1.89335 3.60666 1.61335 4.27333 1.61335 5.1C1.61335 5.98 1.89335 6.65333 2.45335 7.12C3.02669 7.58666 3.71335 7.80666 4.51335 7.78ZM12.7534 9.78C12.7 9.78 12.6734 9.74666 12.6734 9.68V7.32L11.3534 7.38C11.0334 7.39333 10.68 7.41333 10.2934 7.44C9.90669 7.46666 9.55336 7.49333 9.23336 7.52C9.08669 7.53333 8.99335 7.52666 8.95335 7.5C8.92669 7.46 8.90002 7.4 8.87335 7.32L8.75336 6.52C8.72669 6.4 8.77335 6.35333 8.89335 6.38C9.12002 6.40666 9.45336 6.42666 9.89336 6.44C10.3467 6.45333 10.82 6.45333 11.3134 6.44C11.82 6.42666 12.2734 6.40666 12.6734 6.38V3.46L11.5534 3.5C11.2334 3.51333 10.88 3.53333 10.4934 3.56C10.1067 3.58666 9.75336 3.61333 9.43336 3.64C9.28669 3.65333 9.19335 3.64666 9.15335 3.62C9.11335 3.59333 9.08669 3.53333 9.07335 3.44L8.95335 2.64C8.92669 2.52 8.97335 2.47333 9.09335 2.5C9.30669 2.52666 9.62002 2.55333 10.0334 2.58C10.4467 2.59333 10.8934 2.59333 11.3734 2.58C11.8534 2.56666 12.2867 2.54666 12.6734 2.52C12.6734 2.04 12.6534 1.6 12.6134 1.2C12.5867 0.799995 12.54 0.533329 12.4734 0.399995C12.4467 0.333329 12.4467 0.286662 12.4734 0.259996C12.5134 0.219996 12.56 0.199996 12.6134 0.199996C12.72 0.199996 12.9 0.199996 13.1534 0.199996C13.42 0.199996 13.6734 0.206662 13.9134 0.219995C13.98 0.219995 14.0134 0.273329 14.0134 0.379996C13.9734 0.873329 13.9467 1.30666 13.9334 1.68C13.9334 2.04 13.9334 2.46 13.9334 2.94V9.28C13.9334 9.48 13.92 9.6 13.8934 9.64C13.88 9.68 13.84 9.70666 13.7734 9.72L12.7534 9.78Z" fill="black"/>
<path d="M21.5253 18.1C21.4986 18.1 21.4653 18.0933 21.4253 18.08C21.3853 18.0667 21.3653 18.0267 21.3653 17.96C21.3653 17.92 21.3653 17.86 21.3653 17.78C21.3653 17.6733 21.3653 17.5 21.3653 17.26C21.3786 17.02 21.3786 16.6533 21.3653 16.16C21.3653 15.6667 21.3586 14.9867 21.3453 14.12C21.3453 13.7733 21.3053 13.4133 21.2253 13.04C21.1586 12.6667 21.0919 12.4333 21.0253 12.34C20.9719 12.26 20.9586 12.1933 20.9853 12.14C21.0253 12.0867 21.0919 12.06 21.1853 12.06L22.4653 12.1C22.8919 12.1133 23.4253 12.12 24.0653 12.12C24.7053 12.12 25.3719 12.1133 26.0653 12.1C26.7586 12.0733 27.3853 12.0467 27.9453 12.02C28.5186 11.9933 28.9319 11.96 29.1853 11.92C29.2119 11.92 29.2386 11.9133 29.2653 11.9C29.3586 11.8867 29.4386 11.8867 29.5053 11.9L30.5653 12.04C30.6719 12.0533 30.7119 12.1333 30.6853 12.28C30.6719 12.4533 30.6519 12.68 30.6253 12.96C30.6119 13.2267 30.5986 13.4933 30.5853 13.76C30.5719 14.0133 30.5653 14.2067 30.5653 14.34L30.5053 17.74C30.5053 17.9267 30.4053 18.02 30.2053 18.02C29.8319 18.0067 29.3586 18 28.7853 18C28.2119 18 27.6053 18 26.9653 18C26.3253 18 25.6986 18 25.0853 18C24.4719 18 23.9319 18 23.4653 18C22.9986 18.0133 22.6586 18.0267 22.4453 18.04L21.5253 18.1ZM19.2053 10.2C18.9119 10.1867 18.6853 10.04 18.5253 9.76C18.3653 9.48 18.2853 9.12666 18.2853 8.7V7.02C18.2853 6.75333 18.2786 6.48666 18.2653 6.22C18.2519 5.94 18.1986 5.66666 18.1053 5.4C18.0386 5.24 18.0986 5.17333 18.2853 5.2C18.4453 5.21333 18.7319 5.22 19.1453 5.22C19.5586 5.22 20.0253 5.21333 20.5453 5.2C21.0786 5.18666 21.5986 5.17333 22.1053 5.16C22.6119 5.13333 23.0453 5.10666 23.4053 5.08C23.7653 5.04 23.9719 5.00666 24.0253 4.98C24.0653 4.59333 24.1053 4.21333 24.1453 3.84C24.1853 3.45333 24.2119 3.04666 24.2253 2.62C24.2253 2.54 24.1919 2.5 24.1253 2.5C23.5519 2.5 22.9919 2.52 22.4453 2.55999C21.9119 2.58666 21.3653 2.61333 20.8053 2.64C20.4853 2.66666 20.1386 2.69333 19.7653 2.72C19.3919 2.74666 19.0453 2.77333 18.7253 2.8C18.5786 2.81333 18.4853 2.80666 18.4453 2.78C18.4186 2.74 18.3919 2.68 18.3653 2.6L18.1453 1.82C18.1319 1.79333 18.1386 1.76666 18.1653 1.74C18.1919 1.7 18.2253 1.68666 18.2653 1.7C18.3586 1.71333 18.5853 1.72 18.9453 1.72C19.3053 1.72 19.7386 1.71333 20.2453 1.7C20.7519 1.68666 21.2719 1.66666 21.8053 1.64C22.3386 1.61333 22.8253 1.58666 23.2653 1.56C23.7186 1.52 24.0653 1.47333 24.3053 1.42C24.3853 1.40666 24.4386 1.4 24.4653 1.4C24.5053 1.4 24.5453 1.40666 24.5853 1.42C24.5986 1.42 24.6119 1.42 24.6253 1.42L25.5453 1.66C25.6253 1.67333 25.6519 1.72666 25.6253 1.82C25.5986 1.98 25.5519 2.22666 25.4853 2.55999C25.4186 2.88 25.3719 3.15333 25.3453 3.38L25.0253 5.84C25.0119 5.96 24.9453 6.02 24.8253 6.02C24.6786 6.02 24.4319 6.02666 24.0853 6.04C23.7386 6.04 23.3386 6.05333 22.8853 6.08C22.4453 6.09333 21.9986 6.11333 21.5453 6.14C21.0919 6.15333 20.6853 6.17333 20.3253 6.2C19.9653 6.21333 19.7053 6.22666 19.5453 6.24V8.64C19.5453 8.77333 19.5653 8.86666 19.6053 8.92C19.6586 8.96 19.7186 8.98666 19.7853 9C20.1986 9.02666 20.7519 9.02666 21.4453 9C22.1386 8.96 22.8919 8.88666 23.7053 8.78C24.5186 8.67333 25.3186 8.52666 26.1053 8.34C26.8919 8.15333 27.5786 7.92666 28.1653 7.66C28.2986 7.60666 28.3719 7.62 28.3853 7.7L28.4853 8.42C28.4986 8.55333 28.4319 8.65333 28.2853 8.72C27.8319 8.92 27.2453 9.10666 26.5253 9.28C25.8053 9.45333 25.0119 9.61333 24.1453 9.76C23.2919 9.89333 22.4319 10 21.5653 10.08C20.7119 10.16 19.9253 10.2 19.2053 10.2ZM22.5653 16.94C22.7519 16.9533 23.0653 16.9667 23.5053 16.98C23.9586 16.98 24.4719 16.98 25.0453 16.98C25.6186 16.9667 26.1919 16.9533 26.7653 16.94C27.3386 16.9267 27.8519 16.9133 28.3053 16.9C28.7586 16.8867 29.0853 16.8667 29.2853 16.84L29.3253 13.2C29.3253 13.1067 29.3119 13.0533 29.2853 13.04C29.2586 13.0133 29.2119 13 29.1453 13L22.5653 13.08V16.94ZM29.3253 10.82C29.2719 10.82 29.2453 10.7867 29.2453 10.72V2.64C29.2453 2.13333 29.2253 1.66666 29.1853 1.24C29.1586 0.813329 29.1119 0.533329 29.0453 0.399995C29.0186 0.333329 29.0186 0.286662 29.0453 0.259996C29.0853 0.219996 29.1319 0.199996 29.1853 0.199996C29.3186 0.199996 29.5119 0.199996 29.7653 0.199996C30.0319 0.199996 30.2719 0.206662 30.4853 0.219995C30.5519 0.219995 30.5853 0.273329 30.5853 0.379996C30.5453 0.873329 30.5186 1.30666 30.5053 1.68C30.5053 2.04 30.5053 2.46 30.5053 2.94V5.64C30.8653 5.64 31.2519 5.62666 31.6653 5.6C32.0919 5.56 32.4853 5.52 32.8453 5.48C33.2186 5.42666 33.4986 5.37333 33.6853 5.32C33.8053 5.30666 33.8719 5.34666 33.8853 5.44C33.9119 5.61333 33.9319 5.78666 33.9453 5.96C33.9586 6.13333 33.9719 6.30666 33.9853 6.48C33.9853 6.62666 33.9253 6.7 33.8053 6.7C33.6186 6.67333 33.3319 6.66 32.9453 6.66C32.5586 6.64666 32.1453 6.64 31.7053 6.64C31.2786 6.64 30.8786 6.65333 30.5053 6.68V10.32C30.5053 10.52 30.4919 10.64 30.4653 10.68C30.4519 10.72 30.4119 10.7467 30.3453 10.76L29.3253 10.82Z" fill="black"/>
<path d="M46.9483 13C46.095 13.0267 45.3683 12.88 44.7683 12.56C44.1816 12.24 43.735 11.8133 43.4283 11.28C43.1216 10.7467 42.9683 10.2 42.9683 9.64C42.9683 9.12 43.115 8.61333 43.4083 8.12C43.715 7.62666 44.1616 7.21333 44.7483 6.88C45.3483 6.53333 46.0883 6.34666 46.9683 6.32C47.7283 6.29333 48.4016 6.41333 48.9883 6.68C49.5883 6.94666 50.0616 7.32666 50.4083 7.82C50.755 8.31333 50.915 8.9 50.8883 9.58C50.875 10.14 50.715 10.68 50.4083 11.2C50.115 11.7067 49.675 12.1267 49.0883 12.46C48.515 12.7933 47.8016 12.9733 46.9483 13ZM53.7683 17.2C53.715 17.2 53.6883 17.1667 53.6883 17.1V2.66C53.6883 2.15333 53.6683 1.68666 53.6283 1.26C53.6016 0.819995 53.555 0.533329 53.4883 0.399995C53.4616 0.333329 53.4616 0.286662 53.4883 0.259996C53.5283 0.219996 53.575 0.199996 53.6283 0.199996C53.7083 0.199996 53.8416 0.206662 54.0283 0.219995C54.2283 0.219995 54.4216 0.226662 54.6083 0.239995C54.795 0.239995 54.9016 0.239995 54.9283 0.239995C54.995 0.239995 55.0283 0.293329 55.0283 0.399995C54.9883 0.893329 54.9616 1.32666 54.9483 1.7C54.9483 2.06 54.9483 2.48 54.9483 2.96V7.94C55.3083 7.94 55.695 7.92666 56.1083 7.9C56.535 7.86 56.9283 7.82 57.2883 7.78C57.6616 7.72666 57.9416 7.67333 58.1283 7.62C58.2483 7.60666 58.315 7.64666 58.3283 7.74C58.355 7.91333 58.375 8.08666 58.3883 8.26C58.4016 8.43333 58.415 8.60666 58.4283 8.78C58.4283 8.92666 58.3683 9 58.2483 9C58.0483 8.97333 57.755 8.96 57.3683 8.96C56.995 8.96 56.595 8.96 56.1683 8.96C55.7416 8.96 55.335 8.96666 54.9483 8.98V16.7C54.9483 16.9 54.935 17.02 54.9083 17.06C54.895 17.1 54.855 17.1267 54.7883 17.14L53.7683 17.2ZM46.9483 11.92C47.535 11.8933 48.0216 11.7667 48.4083 11.54C48.795 11.3133 49.0883 11.0267 49.2883 10.68C49.4883 10.32 49.595 9.95333 49.6083 9.58C49.635 9.23333 49.5683 8.88666 49.4083 8.54C49.2483 8.19333 48.975 7.9 48.5883 7.66C48.2016 7.40666 47.6816 7.27333 47.0283 7.26C46.4016 7.26 45.875 7.38 45.4483 7.62C45.035 7.84666 44.7283 8.14 44.5283 8.5C44.3283 8.84666 44.2283 9.21333 44.2283 9.6C44.2283 10.2533 44.4683 10.8133 44.9483 11.28C45.4283 11.7333 46.095 11.9467 46.9483 11.92ZM41.8483 5.44C41.715 5.45333 41.6283 5.44 41.5883 5.4C41.5483 5.34666 41.515 5.28666 41.4883 5.22C41.475 5.20666 41.4683 5.19333 41.4683 5.18C41.415 5.03333 41.375 4.9 41.3483 4.78C41.3216 4.66 41.2816 4.48666 41.2283 4.26C41.215 4.23333 41.2216 4.2 41.2483 4.16C41.275 4.12 41.3216 4.10666 41.3883 4.12C41.7616 4.16 42.1883 4.19333 42.6683 4.22C43.1616 4.24666 43.7283 4.25333 44.3683 4.24C45.0483 4.22666 45.7816 4.21333 46.5683 4.2C47.3683 4.17333 48.135 4.13333 48.8683 4.08C49.455 4.04 50.0083 3.98666 50.5283 3.92C51.0483 3.85333 51.5216 3.78666 51.9483 3.72C51.9883 3.70666 52.035 3.71333 52.0883 3.74C52.1416 3.75333 52.175 3.79333 52.1883 3.86C52.2283 4.12666 52.255 4.33333 52.2683 4.48C52.2816 4.62666 52.2883 4.74666 52.2883 4.84C52.315 4.98666 52.235 5.06 52.0483 5.06C51.795 5.04666 51.4883 5.04 51.1283 5.04C50.7683 5.04 50.455 5.04 50.1883 5.04C49.895 5.04 49.4683 5.04666 48.9083 5.06C48.3483 5.07333 47.7416 5.09333 47.0883 5.12C46.4483 5.13333 45.8483 5.15333 45.2883 5.18C44.7283 5.20666 44.3083 5.23333 44.0283 5.26L41.8483 5.44ZM46.3083 2.4C46.1083 2.37333 45.8283 2.34 45.4683 2.3C45.1216 2.26 44.775 2.2 44.4283 2.12C44.095 2.04 43.835 1.92666 43.6483 1.78C43.595 1.74 43.5816 1.66 43.6083 1.54C43.635 1.40666 43.6816 1.28 43.7483 1.16C43.815 1.04 43.8816 0.993329 43.9483 1.02C44.5883 1.14 45.2683 1.21333 45.9883 1.24C46.7083 1.26666 47.395 1.26666 48.0483 1.24C48.715 1.21333 49.2616 1.18666 49.6883 1.16C49.795 1.14666 49.8616 1.15333 49.8883 1.18C49.915 1.19333 49.935 1.23333 49.9483 1.3C49.9483 1.31333 49.9483 1.34666 49.9483 1.4C49.9483 1.53333 49.9416 1.69333 49.9283 1.88C49.9283 2.06666 49.8883 2.17333 49.8083 2.2C49.7283 2.22666 49.4883 2.26666 49.0883 2.32C48.7016 2.36 48.2483 2.39333 47.7283 2.42C47.2216 2.43333 46.7483 2.42666 46.3083 2.4Z" fill="black"/>
<path d="M65.4912 18.2C65.0778 18.1867 64.7512 18.0467 64.5112 17.78C64.2712 17.5133 64.1512 17.0933 64.1512 16.52V15.5C64.1512 15.2867 64.1378 15.0733 64.1112 14.86C64.0845 14.6467 64.0245 14.4533 63.9312 14.28C63.9045 14.2267 63.9045 14.1733 63.9312 14.12C63.9578 14.0667 64.0178 14.04 64.1112 14.04C64.4578 14.0533 64.9045 14.0667 65.4512 14.08C65.9978 14.08 66.5978 14.08 67.2512 14.08C67.9045 14.08 68.5512 14.0733 69.1912 14.06C69.8445 14.0333 70.4378 14.0067 70.9712 13.98C71.5178 13.9533 71.9512 13.9133 72.2712 13.86L72.3312 12.14C72.3312 12.1267 72.3312 12.1067 72.3312 12.08C72.3312 12.0133 72.3245 11.9733 72.3112 11.96C72.2978 11.9333 72.2378 11.92 72.1312 11.92C71.8378 11.92 71.4178 11.9267 70.8712 11.94C70.3245 11.9533 69.7378 11.9733 69.1112 12C68.4978 12.0133 67.9112 12.0333 67.3512 12.06C66.7912 12.0733 66.3378 12.0933 65.9912 12.12L64.4512 12.22C64.3045 12.2333 64.2112 12.22 64.1712 12.18C64.1312 12.1267 64.0978 12.0533 64.0712 11.96L63.9512 11.22C63.9245 11.1133 63.9778 11.0667 64.1112 11.08C64.3378 11.0933 64.6845 11.1067 65.1512 11.12C65.6312 11.1333 66.1778 11.14 66.7912 11.14C67.4178 11.1267 68.0645 11.1067 68.7312 11.08C69.3978 11.0533 70.0378 11.02 70.6512 10.98C71.2645 10.94 71.7978 10.8867 72.2512 10.82C72.2778 10.82 72.3045 10.8133 72.3312 10.8C72.4245 10.7867 72.4978 10.7867 72.5512 10.8L73.5712 10.96C73.6378 10.9733 73.6712 11 73.6712 11.04C73.6845 11.0667 73.6912 11.0933 73.6912 11.12C73.6912 11.1333 73.6912 11.14 73.6912 11.14C73.6245 11.74 73.5712 12.3067 73.5312 12.84C73.4912 13.3733 73.4512 13.94 73.4112 14.54C73.3978 14.6867 73.3578 14.78 73.2912 14.82C73.2245 14.8467 73.1578 14.86 73.0912 14.86C72.6512 14.86 72.1045 14.8667 71.4512 14.88C70.7978 14.8933 70.1045 14.9067 69.3712 14.92C68.6512 14.9333 67.9445 14.9533 67.2512 14.98C66.5578 14.9933 65.9445 15.0067 65.4112 15.02V16.44C65.4112 16.7467 65.4378 16.94 65.4912 17.02C65.5578 17.1133 65.7045 17.1667 65.9312 17.18C66.7978 17.2067 67.7178 17.2133 68.6912 17.2C69.6645 17.1867 70.5845 17.1533 71.4512 17.1C71.9978 17.0733 72.4978 17.0333 72.9512 16.98C73.4045 16.9267 73.8045 16.8533 74.1512 16.76C74.2845 16.7333 74.3712 16.74 74.4112 16.78C74.4512 16.82 74.4778 16.8733 74.4912 16.94L74.6112 17.78C74.6245 17.8467 74.6045 17.9067 74.5512 17.96C74.4978 18.0133 74.3778 18.04 74.1912 18.04C73.2578 18.04 72.2845 18.0467 71.2712 18.06C70.2578 18.0867 69.2578 18.1067 68.2712 18.12C67.2978 18.1467 66.3712 18.1733 65.4912 18.2ZM59.9512 9.78L59.4512 9.3C59.3978 9.24666 59.4178 9.18666 59.5112 9.12C59.5245 9.10666 59.5312 9.1 59.5312 9.1C60.2512 8.64666 60.9312 8.11333 61.5712 7.5C62.2112 6.88666 62.7845 6.22666 63.2912 5.52C63.7978 4.8 64.1978 4.07333 64.4912 3.34C64.6378 2.98 64.7578 2.58 64.8512 2.14C64.9445 1.68666 64.9978 1.32666 65.0112 1.06C65.0112 0.939995 65.0778 0.886662 65.2112 0.899995C65.3578 0.926662 65.5645 0.973329 65.8312 1.04C66.1112 1.10666 66.3512 1.17333 66.5512 1.24C66.6312 1.28 66.6512 1.35333 66.6112 1.46C66.5178 1.72666 66.3978 2.07333 66.2512 2.5C66.1045 2.92666 65.9512 3.29333 65.7912 3.6L65.2912 4.54C65.7045 4.83333 66.1445 5.15333 66.6112 5.5C67.0912 5.83333 67.5512 6.16666 67.9912 6.5C68.4445 6.82 68.8445 7.12 69.1912 7.4C69.5378 7.66666 69.7912 7.88 69.9512 8.04C70.0045 8.08 70.0512 8.14666 70.0912 8.24C70.1445 8.33333 70.1312 8.42 70.0512 8.5C69.9312 8.63333 69.8045 8.76 69.6712 8.88C69.5512 9 69.4178 9.12666 69.2712 9.26C69.1645 9.34 69.0845 9.33333 69.0312 9.24C68.8178 8.94666 68.5378 8.62 68.1912 8.26C67.8578 7.88666 67.4912 7.51333 67.0912 7.14C66.6912 6.76666 66.2912 6.41333 65.8912 6.08C65.5045 5.74666 65.1512 5.47333 64.8312 5.26C64.3378 5.98 63.7312 6.74 63.0112 7.54C62.3045 8.34 61.4912 9.07333 60.5712 9.74C60.4912 9.79333 60.3978 9.84666 60.2912 9.9C60.1845 9.94 60.0712 9.9 59.9512 9.78ZM72.4512 9.78C72.3978 9.78 72.3712 9.74666 72.3712 9.68V2.64C72.3712 2.13333 72.3512 1.66666 72.3112 1.24C72.2845 0.813329 72.2378 0.533329 72.1712 0.399995C72.1445 0.333329 72.1445 0.286662 72.1712 0.259996C72.2112 0.219996 72.2578 0.199996 72.3112 0.199996C72.4178 0.199996 72.5978 0.199996 72.8512 0.199996C73.1178 0.199996 73.3712 0.206662 73.6112 0.219995C73.6778 0.219995 73.7112 0.273329 73.7112 0.379996C73.6712 0.873329 73.6445 1.30666 73.6312 1.68C73.6312 2.04 73.6312 2.46 73.6312 2.94V9.28C73.6312 9.48 73.6178 9.6 73.5912 9.64C73.5778 9.68 73.5378 9.70666 73.4712 9.72L72.4512 9.78Z" fill="black"/>
<path d="M92.7534 18.7C91.9134 18.7 91.1668 18.5467 90.5134 18.24C89.8734 17.9467 89.3667 17.54 88.9934 17.02C88.6334 16.5 88.4534 15.9 88.4534 15.22C88.4534 14.5667 88.6534 13.9733 89.0534 13.44C89.4534 12.9067 89.9868 12.4867 90.6534 12.18C91.3201 11.86 92.0468 11.7 92.8334 11.7C93.6334 11.7 94.3601 11.8333 95.0134 12.1C95.6801 12.3533 96.2067 12.74 96.5934 13.26C96.9934 13.7667 97.1801 14.3933 97.1534 15.14C97.1401 15.8333 96.9334 16.4467 96.5334 16.98C96.1468 17.5133 95.6201 17.9333 94.9534 18.24C94.3001 18.5467 93.5668 18.7 92.7534 18.7ZM83.2934 10.84L82.7934 10.4C82.7401 10.3467 82.7601 10.2867 82.8534 10.22C82.8667 10.2067 82.8734 10.2 82.8734 10.2C83.8334 9.57333 84.6667 8.84666 85.3734 8.02C86.0801 7.19333 86.6334 6.34 87.0334 5.46C87.4334 4.58 87.6534 3.74666 87.6934 2.96C87.5067 2.97333 87.3067 2.98666 87.0934 3C86.8801 3.01333 86.6401 3.03333 86.3734 3.06C85.9734 3.08666 85.6268 3.11333 85.3334 3.14C85.0534 3.16666 84.7334 3.20666 84.3734 3.26C84.2401 3.27333 84.1534 3.26 84.1134 3.22C84.0734 3.16666 84.0401 3.10666 84.0134 3.04C84.0001 3.02666 83.9934 3.01333 83.9934 3C83.9534 2.89333 83.9134 2.77333 83.8734 2.64C83.8467 2.50666 83.8134 2.35333 83.7734 2.18C83.7601 2.15333 83.7668 2.12 83.7934 2.08C83.8201 2.04 83.8668 2.02 83.9334 2.02C84.2534 2.03333 84.6067 2.05333 84.9934 2.08C85.3801 2.09333 85.7668 2.09333 86.1534 2.08C86.7401 2.05333 87.3334 2.03333 87.9334 2.02C88.5468 1.99333 89.1601 1.95333 89.7734 1.9C90.2667 1.87333 90.7334 1.83333 91.1734 1.78C91.6134 1.72666 92.0067 1.66666 92.3534 1.6C92.3934 1.58666 92.4401 1.59333 92.4934 1.62C92.5467 1.63333 92.5801 1.67333 92.5934 1.74C92.6201 1.83333 92.6467 1.97333 92.6734 2.16C92.7001 2.33333 92.7201 2.5 92.7334 2.66C92.7334 2.80666 92.6534 2.88 92.4934 2.88C92.3601 2.88 92.2267 2.88 92.0934 2.88C91.9601 2.88 91.8201 2.88 91.6734 2.88C91.3934 2.88 91.1067 2.88 90.8134 2.88C90.5201 2.86666 90.2134 2.86666 89.8934 2.88C89.7601 2.88 89.6267 2.88666 89.4934 2.9C89.3734 2.9 89.2534 2.9 89.1334 2.9C89.0801 3.27333 88.9867 3.68666 88.8534 4.14C88.7201 4.59333 88.5267 5.07333 88.2734 5.58C88.8067 5.95333 89.3534 6.36666 89.9134 6.82C90.4867 7.26 91.0001 7.67333 91.4534 8.06C91.9201 8.43333 92.2468 8.72 92.4334 8.92C92.5001 8.97333 92.5468 9.04 92.5734 9.12C92.6134 9.2 92.6001 9.28666 92.5334 9.38C92.5067 9.42 92.4401 9.49333 92.3334 9.6C92.2268 9.70666 92.1201 9.81333 92.0134 9.92C91.9068 10.0267 91.8267 10.1 91.7734 10.14C91.6667 10.2067 91.5801 10.2 91.5134 10.12C91.2601 9.77333 90.9201 9.37333 90.4934 8.92C90.0801 8.45333 89.6401 8 89.1734 7.56C88.7201 7.10666 88.2867 6.72666 87.8734 6.42C87.4734 7.15333 86.9601 7.9 86.3334 8.66C85.7068 9.40666 84.9001 10.1267 83.9134 10.82C83.8467 10.8733 83.7601 10.92 83.6534 10.96C83.5468 10.9867 83.4268 10.9467 83.2934 10.84ZM92.7934 17.66C93.6334 17.6333 94.3401 17.4067 94.9134 16.98C95.5001 16.5533 95.8068 15.9333 95.8334 15.12C95.8601 14.5867 95.7334 14.14 95.4534 13.78C95.1867 13.42 94.8201 13.1467 94.3534 12.96C93.9001 12.76 93.3867 12.66 92.8134 12.66C92.2401 12.6733 91.7201 12.7933 91.2534 13.02C90.8001 13.2333 90.4334 13.5267 90.1534 13.9C89.8734 14.2733 89.7334 14.7067 89.7334 15.2C89.7334 15.7067 89.8667 16.1467 90.1334 16.52C90.4134 16.88 90.7801 17.16 91.2334 17.36C91.7001 17.56 92.2201 17.66 92.7934 17.66ZM95.7934 11.42C95.7401 11.42 95.7134 11.3867 95.7134 11.32V6.1C95.4734 6.11333 95.2401 6.12666 95.0134 6.14C94.7868 6.15333 94.5734 6.16666 94.3734 6.18C94.0534 6.19333 93.6867 6.22666 93.2734 6.28C92.8601 6.32 92.4934 6.36 92.1734 6.4C92.0267 6.42666 91.9267 6.42 91.8734 6.38C91.8201 6.34 91.7801 6.28 91.7534 6.2C91.7001 6.02666 91.6534 5.86666 91.6134 5.72C91.5868 5.56 91.5601 5.41333 91.5334 5.28C91.5334 5.17333 91.5868 5.13333 91.6934 5.16C91.9068 5.18666 92.2401 5.20666 92.6934 5.22C93.1601 5.22 93.6668 5.21333 94.2134 5.2C94.7601 5.17333 95.2601 5.14666 95.7134 5.12V2.64C95.7134 2.13333 95.6934 1.66666 95.6534 1.24C95.6268 0.813329 95.5801 0.533329 95.5134 0.399995C95.4868 0.333329 95.4868 0.286662 95.5134 0.259996C95.5534 0.219996 95.6001 0.199996 95.6534 0.199996C95.8001 0.199996 96.0001 0.199996 96.2534 0.199996C96.5068 0.199996 96.7401 0.206662 96.9534 0.219995C97.0201 0.219995 97.0534 0.273329 97.0534 0.379996C97.0134 0.873329 96.9868 1.30666 96.9734 1.68C96.9734 2.04 96.9734 2.46 96.9734 2.94V10.92C96.9734 11.12 96.9601 11.24 96.9334 11.28C96.9201 11.32 96.8801 11.3467 96.8134 11.36L95.7934 11.42Z" fill="black"/>
<path d="M113.545 10.8C113.492 10.8 113.465 10.7667 113.465 10.7V6.16C113.079 6.16 112.692 6.16666 112.305 6.18C111.932 6.18 111.572 6.18666 111.225 6.2V10.12C111.225 10.32 111.212 10.44 111.185 10.48C111.172 10.52 111.132 10.5467 111.065 10.56L110.105 10.6C110.052 10.6 110.025 10.5667 110.025 10.5V2.74C110.025 1.68666 109.965 1.00666 109.845 0.699995C109.819 0.633329 109.819 0.586662 109.845 0.559996C109.885 0.519995 109.932 0.499995 109.985 0.499995L111.165 0.519995C111.232 0.519995 111.265 0.579995 111.265 0.699995C111.239 1.12666 111.225 1.48 111.225 1.76C111.225 2.04 111.225 2.33333 111.225 2.64C111.225 2.73333 111.225 2.82666 111.225 2.92C111.225 3 111.225 3.09333 111.225 3.2V5.16C111.292 5.16 111.359 5.16 111.425 5.16C111.505 5.16 111.579 5.16 111.645 5.16C111.939 5.16 112.239 5.16 112.545 5.16C112.852 5.16 113.159 5.14666 113.465 5.12V2.24C113.465 1.25333 113.412 0.639996 113.305 0.399995C113.279 0.333329 113.279 0.286662 113.305 0.259996C113.345 0.219996 113.392 0.199996 113.445 0.199996L114.645 0.219995C114.699 0.219995 114.725 0.273329 114.725 0.379996C114.725 0.393329 114.725 0.406662 114.725 0.419995C114.712 0.779995 114.699 1.08666 114.685 1.34C114.672 1.59333 114.665 1.84 114.665 2.08C114.665 2.30666 114.665 2.58 114.665 2.9V10.32C114.665 10.52 114.652 10.64 114.625 10.68C114.612 10.72 114.572 10.7467 114.505 10.76L113.545 10.8ZM100.885 11.26C100.819 11.2067 100.732 11.14 100.625 11.06C100.519 10.98 100.432 10.9067 100.365 10.84C100.312 10.7867 100.325 10.7267 100.405 10.66C101.285 10.1 102.012 9.47333 102.585 8.78C103.172 8.07333 103.619 7.35333 103.925 6.62C104.232 5.88666 104.405 5.21333 104.445 4.6L103.445 4.66C103.125 4.67333 102.805 4.70666 102.485 4.76C102.165 4.8 101.845 4.83333 101.525 4.86C101.432 4.87333 101.359 4.86666 101.305 4.84C101.265 4.81333 101.219 4.74666 101.165 4.64C101.059 4.38666 100.972 4.10666 100.905 3.8C100.892 3.77333 100.899 3.74 100.925 3.7C100.952 3.64666 100.999 3.62666 101.065 3.64C101.372 3.66666 101.739 3.68666 102.165 3.7C102.605 3.71333 103.052 3.72 103.505 3.72C103.972 3.70666 104.385 3.69333 104.745 3.68C105.265 3.65333 105.779 3.62 106.285 3.58C106.805 3.54 107.272 3.49333 107.685 3.44C108.099 3.38666 108.412 3.33333 108.625 3.28C108.772 3.24 108.852 3.28666 108.865 3.42C108.892 3.52666 108.919 3.66 108.945 3.82C108.972 3.98 108.992 4.13333 109.005 4.28C109.019 4.42666 108.952 4.5 108.805 4.5C108.552 4.48666 108.225 4.48 107.825 4.48C107.425 4.48 107.092 4.48666 106.825 4.5C106.652 4.51333 106.479 4.52 106.305 4.52C106.132 4.52 105.952 4.52666 105.765 4.54C105.739 4.88666 105.672 5.24666 105.565 5.62C105.459 5.98 105.325 6.34 105.165 6.7C105.952 7.19333 106.672 7.68666 107.325 8.18C107.992 8.67333 108.505 9.06 108.865 9.34C108.932 9.39333 108.979 9.45333 109.005 9.52C109.032 9.58666 109.012 9.67333 108.945 9.78C108.732 10.0733 108.512 10.3133 108.285 10.5C108.205 10.5533 108.132 10.54 108.065 10.46C107.825 10.1533 107.519 9.81333 107.145 9.44C106.785 9.06666 106.399 8.7 105.985 8.34C105.585 7.98 105.192 7.67333 104.805 7.42C104.405 8.14 103.919 8.82666 103.345 9.48C102.772 10.1333 102.159 10.7 101.505 11.18C101.412 11.2467 101.312 11.2933 101.205 11.32C101.112 11.3467 101.005 11.3267 100.885 11.26ZM113.385 18.5C113.332 18.5 113.305 18.4667 113.305 18.4V13.26C113.305 13.1667 113.292 13.1067 113.265 13.08C113.252 13.0533 113.185 13.04 113.065 13.04C112.759 13.04 112.325 13.0467 111.765 13.06C111.205 13.0733 110.599 13.0933 109.945 13.12C109.305 13.1333 108.705 13.1533 108.145 13.18C107.599 13.1933 107.185 13.2067 106.905 13.22C106.572 13.2467 106.192 13.2733 105.765 13.3C105.352 13.3267 104.979 13.3533 104.645 13.38C104.512 13.3933 104.425 13.38 104.385 13.34C104.345 13.2867 104.312 13.2267 104.285 13.16C104.272 13.1467 104.265 13.1333 104.265 13.12L104.065 12.26C104.052 12.2333 104.059 12.2 104.085 12.16C104.112 12.12 104.159 12.1067 104.225 12.12C104.412 12.1467 104.725 12.1667 105.165 12.18C105.605 12.1933 106.119 12.2 106.705 12.2C107.305 12.2 107.932 12.1933 108.585 12.18C109.239 12.1533 109.865 12.1267 110.465 12.1C111.079 12.0733 111.619 12.04 112.085 12C112.565 11.96 112.919 11.9133 113.145 11.86C113.159 11.86 113.179 11.8533 113.205 11.84C113.232 11.84 113.259 11.84 113.285 11.84C113.312 11.8267 113.359 11.8267 113.425 11.84L114.605 12.02C114.672 12.0333 114.705 12.06 114.705 12.1C114.719 12.1267 114.725 12.1533 114.725 12.18C114.725 12.1933 114.725 12.2 114.725 12.2C114.685 12.5733 114.652 12.9533 114.625 13.34C114.612 13.7267 114.605 14.08 114.605 14.4L114.585 18.12C114.585 18.28 114.552 18.3733 114.485 18.4C114.432 18.4267 114.372 18.4467 114.305 18.46L113.385 18.5ZM104.685 2.18C104.499 2.18 104.245 2.16 103.925 2.12C103.605 2.08 103.285 2.02 102.965 1.94C102.659 1.84666 102.419 1.74666 102.245 1.64C102.205 1.6 102.192 1.52 102.205 1.4C102.232 1.28 102.279 1.16666 102.345 1.06C102.412 0.939995 102.479 0.893329 102.545 0.919996C103.439 1.06666 104.279 1.12666 105.065 1.1C105.852 1.07333 106.559 1.03333 107.185 0.979995C107.225 0.979995 107.265 0.979995 107.305 0.979995C107.345 0.966662 107.385 0.959995 107.425 0.959995C107.532 0.946662 107.585 0.986662 107.585 1.08C107.585 1.18666 107.572 1.34666 107.545 1.56C107.532 1.76 107.485 1.89333 107.405 1.96C107.365 1.98666 107.199 2.02 106.905 2.06C106.625 2.1 106.285 2.13333 105.885 2.16C105.485 2.18666 105.085 2.19333 104.685 2.18Z" fill="black"/>
<path d="M126.473 7.08C125.633 7.09333 124.866 6.96666 124.173 6.7C123.493 6.43333 122.946 6.04 122.533 5.52C122.133 4.98666 121.933 4.36 121.933 3.64C121.933 2.96 122.133 2.36 122.533 1.84C122.946 1.30666 123.499 0.886662 124.193 0.579996C124.886 0.273329 125.653 0.113329 126.493 0.0999957C127.346 0.0733286 128.119 0.193329 128.813 0.459996C129.506 0.713329 130.053 1.09333 130.453 1.6C130.866 2.10666 131.059 2.73333 131.033 3.48C131.019 4.18666 130.813 4.80666 130.413 5.34C130.013 5.87333 129.473 6.29333 128.793 6.6C128.126 6.89333 127.353 7.05333 126.473 7.08ZM123.353 18.26C122.939 18.2467 122.619 18.1133 122.393 17.86C122.179 17.6067 122.073 17.1933 122.073 16.62V15.8C122.073 15.3867 121.999 14.98 121.853 14.58C121.826 14.54 121.833 14.4867 121.873 14.42C121.913 14.3533 121.979 14.3267 122.073 14.34C122.219 14.3533 122.533 14.3667 123.013 14.38C123.506 14.3933 124.086 14.4 124.753 14.4C125.419 14.4 126.099 14.3933 126.793 14.38C127.499 14.3667 128.146 14.3467 128.733 14.32C129.333 14.2933 129.793 14.26 130.113 14.22L130.153 12.7C130.153 12.5533 130.086 12.48 129.953 12.48C129.659 12.48 129.253 12.4867 128.733 12.5C128.213 12.5133 127.659 12.5267 127.073 12.54C126.486 12.5533 125.926 12.5733 125.393 12.6C124.859 12.6133 124.426 12.6267 124.093 12.64L122.313 12.72C122.193 12.7333 122.106 12.7267 122.053 12.7C121.999 12.66 121.959 12.58 121.933 12.46L121.793 11.76C121.779 11.7333 121.786 11.7 121.813 11.66C121.839 11.62 121.886 11.6067 121.953 11.62C122.166 11.6333 122.513 11.6467 122.993 11.66C123.473 11.6733 124.019 11.6867 124.633 11.7C125.259 11.7 125.906 11.6933 126.573 11.68C127.239 11.6533 127.879 11.6267 128.493 11.6C129.119 11.56 129.659 11.5067 130.113 11.44C130.139 11.44 130.166 11.4333 130.193 11.42C130.286 11.4067 130.359 11.4067 130.413 11.42L131.433 11.56C131.513 11.5733 131.553 11.6333 131.553 11.74C131.486 12.3267 131.433 12.8533 131.393 13.32C131.366 13.7733 131.333 14.2933 131.293 14.88C131.279 15.0133 131.253 15.1 131.213 15.14C131.173 15.18 131.093 15.2 130.973 15.2C130.519 15.2 129.959 15.2067 129.293 15.22C128.639 15.22 127.946 15.2267 127.213 15.24C126.479 15.24 125.773 15.2467 125.093 15.26C124.413 15.2733 123.826 15.2933 123.333 15.32V16.54C123.333 16.8467 123.353 17.0333 123.393 17.1C123.433 17.18 123.566 17.2267 123.793 17.24C124.659 17.2667 125.566 17.2733 126.513 17.26C127.459 17.2467 128.366 17.2133 129.233 17.16C129.793 17.1333 130.299 17.0933 130.753 17.04C131.206 16.9867 131.599 16.92 131.933 16.84C132.066 16.8133 132.153 16.82 132.193 16.86C132.233 16.9 132.259 16.9533 132.273 17.02L132.393 17.9C132.393 17.9667 132.366 18.0267 132.313 18.08C132.273 18.1333 132.159 18.16 131.973 18.16C130.559 18.16 129.099 18.1667 127.593 18.18C126.086 18.2067 124.673 18.2333 123.353 18.26ZM126.493 6.1C127.453 6.07333 128.219 5.83333 128.793 5.38C129.379 4.91333 129.686 4.27333 129.713 3.46C129.739 2.63333 129.439 2.01333 128.813 1.6C128.199 1.18666 127.419 0.993329 126.473 1.02C125.539 1.04666 124.759 1.3 124.133 1.78C123.519 2.24666 123.213 2.85333 123.213 3.6C123.213 4.42666 123.513 5.06 124.113 5.5C124.726 5.92666 125.519 6.12666 126.493 6.1ZM118.593 9.98C118.446 9.99333 118.346 9.98 118.293 9.94C118.239 9.9 118.199 9.84 118.173 9.76C118.119 9.61333 118.073 9.46666 118.033 9.32C117.993 9.17333 117.946 8.98666 117.893 8.76C117.879 8.73333 117.886 8.7 117.913 8.66C117.939 8.60666 117.986 8.58666 118.053 8.6C118.559 8.66666 119.253 8.72 120.133 8.76C121.013 8.78666 121.979 8.79333 123.033 8.78C123.846 8.78 124.713 8.77333 125.633 8.76C126.553 8.73333 127.466 8.70666 128.373 8.68C129.293 8.64 130.159 8.6 130.973 8.56C131.799 8.52 132.526 8.47333 133.153 8.42C133.793 8.36666 134.286 8.30666 134.633 8.24C134.766 8.21333 134.853 8.22 134.893 8.26C134.933 8.3 134.959 8.35333 134.973 8.42L135.093 9.3C135.106 9.48666 134.979 9.57333 134.713 9.56C134.299 9.53333 133.739 9.52 133.033 9.52C132.339 9.52 131.586 9.52666 130.773 9.54C130.053 9.54 129.313 9.55333 128.553 9.58C127.806 9.59333 127.099 9.60666 126.433 9.62C125.779 9.63333 125.213 9.64666 124.733 9.66C123.386 9.7 122.173 9.74666 121.093 9.8C120.013 9.85333 119.179 9.91333 118.593 9.98Z" fill="black"/>
<path d="M142.972 10.88L142.472 10.44C142.418 10.3867 142.445 10.32 142.552 10.24C143.285 9.73333 143.978 9.11333 144.632 8.38C145.285 7.63333 145.865 6.85333 146.372 6.04C146.878 5.21333 147.265 4.43333 147.532 3.7C147.665 3.35333 147.785 2.94 147.892 2.46C147.998 1.98 148.052 1.61333 148.052 1.36C148.052 1.24 148.118 1.18666 148.252 1.2C148.398 1.22666 148.605 1.28 148.872 1.36C149.138 1.44 149.372 1.51333 149.572 1.58C149.652 1.62 149.672 1.69333 149.632 1.8C149.538 2.06666 149.412 2.41333 149.252 2.84C149.105 3.26666 148.965 3.64 148.832 3.96C148.725 4.21333 148.605 4.48 148.472 4.76C148.338 5.04 148.185 5.34 148.012 5.66C148.398 5.95333 148.805 6.28 149.232 6.64C149.658 7 150.072 7.36 150.472 7.72C150.885 8.06666 151.245 8.39333 151.552 8.7C151.858 8.99333 152.085 9.22 152.232 9.38C152.272 9.43333 152.305 9.5 152.332 9.58C152.372 9.66 152.358 9.74666 152.292 9.84C152.265 9.88 152.192 9.95333 152.072 10.06C151.965 10.1667 151.852 10.2667 151.732 10.36C151.625 10.4533 151.545 10.52 151.492 10.56C151.385 10.6267 151.305 10.6133 151.252 10.52C150.998 10.1333 150.652 9.68666 150.212 9.18C149.785 8.67333 149.332 8.17333 148.852 7.68C148.385 7.18666 147.952 6.78 147.552 6.46C147.125 7.12666 146.585 7.84666 145.932 8.62C145.292 9.39333 144.512 10.1333 143.592 10.84C143.592 10.84 143.585 10.8467 143.572 10.86C143.505 10.9133 143.418 10.96 143.312 11C143.205 11.04 143.092 11 142.972 10.88ZM155.672 13.3C155.618 13.3 155.592 13.2667 155.592 13.2V5.8C155.352 5.81333 155.118 5.82666 154.892 5.84C154.665 5.85333 154.452 5.86666 154.252 5.88C153.932 5.89333 153.565 5.92666 153.152 5.98C152.738 6.02 152.372 6.06 152.052 6.1C151.905 6.12666 151.805 6.12 151.752 6.08C151.698 6.04 151.658 5.98 151.632 5.9C151.578 5.72666 151.532 5.56666 151.492 5.42C151.465 5.26 151.438 5.11333 151.412 4.98C151.412 4.87333 151.465 4.83333 151.572 4.86C151.785 4.88666 152.118 4.90666 152.572 4.92C153.038 4.92 153.545 4.91333 154.092 4.9C154.638 4.87333 155.138 4.84666 155.592 4.82V2.64C155.592 2.13333 155.572 1.66666 155.532 1.24C155.505 0.813329 155.458 0.533329 155.392 0.399995C155.365 0.333329 155.365 0.286662 155.392 0.259996C155.432 0.219996 155.478 0.199996 155.532 0.199996C155.718 0.199996 155.938 0.199996 156.192 0.199996C156.445 0.199996 156.658 0.206662 156.832 0.219995C156.898 0.219995 156.932 0.273329 156.932 0.379996C156.892 0.873329 156.865 1.30666 156.852 1.68C156.852 2.04 156.852 2.46 156.852 2.94V12.8C156.852 13 156.838 13.12 156.812 13.16C156.798 13.2 156.758 13.2267 156.692 13.24L155.672 13.3ZM149.132 18C148.705 18 148.378 17.84 148.152 17.52C147.938 17.2133 147.832 16.7733 147.832 16.2V14.42C147.832 13.9533 147.812 13.5667 147.772 13.26C147.732 12.9533 147.692 12.7333 147.652 12.6C147.612 12.4667 147.658 12.4 147.792 12.4C147.872 12.4 148.005 12.4067 148.192 12.42C148.392 12.42 148.578 12.4267 148.752 12.44C148.938 12.4533 149.038 12.46 149.052 12.46C149.118 12.46 149.152 12.5267 149.152 12.66C149.125 12.9667 149.105 13.24 149.092 13.48C149.092 13.7067 149.092 13.9933 149.092 14.34V16.08C149.092 16.4133 149.132 16.6467 149.212 16.78C149.305 16.9 149.452 16.9667 149.652 16.98C150.025 16.9933 150.478 17 151.012 17C151.558 17.0133 152.125 17.0133 152.712 17C153.312 16.9733 153.878 16.9467 154.412 16.92C154.972 16.8933 155.552 16.8467 156.152 16.78C156.752 16.7 157.212 16.62 157.532 16.54C157.665 16.5133 157.752 16.52 157.792 16.56C157.832 16.6 157.858 16.6533 157.872 16.72L158.032 17.66C158.032 17.7267 158.012 17.78 157.972 17.82C157.945 17.86 157.838 17.88 157.652 17.88C156.332 17.88 154.972 17.9 153.572 17.94C152.172 17.98 150.692 18 149.132 18Z" fill="black"/>
<path d="M173.424 10.8C173.37 10.8 173.344 10.7667 173.344 10.7V6.16C172.957 6.16 172.557 6.16666 172.144 6.18C171.73 6.18 171.35 6.18666 171.004 6.2V10.12C171.004 10.32 170.99 10.44 170.964 10.48C170.95 10.52 170.91 10.5467 170.844 10.56L169.884 10.6C169.83 10.6 169.804 10.5667 169.804 10.5V2.74C169.804 1.68666 169.744 1.00666 169.624 0.699995C169.597 0.633329 169.597 0.586662 169.624 0.559996C169.664 0.519995 169.71 0.499995 169.764 0.499995L170.944 0.519995C171.01 0.519995 171.044 0.579995 171.044 0.699995C171.017 1.12666 171.004 1.48 171.004 1.76C171.004 2.04 171.004 2.33333 171.004 2.64C171.004 2.73333 171.004 2.82666 171.004 2.92C171.004 3 171.004 3.09333 171.004 3.2V5.16C171.07 5.16 171.137 5.16 171.204 5.16C171.284 5.16 171.357 5.16 171.424 5.16C171.73 5.16 172.044 5.16 172.364 5.16C172.697 5.16 173.024 5.14666 173.344 5.12V2.24C173.344 1.25333 173.29 0.639996 173.184 0.399995C173.157 0.333329 173.157 0.286662 173.184 0.259996C173.224 0.219996 173.27 0.199996 173.324 0.199996L174.524 0.219995C174.577 0.219995 174.604 0.273329 174.604 0.379996C174.604 0.393329 174.604 0.406662 174.604 0.419995C174.59 0.779995 174.577 1.08666 174.564 1.34C174.55 1.59333 174.544 1.84 174.544 2.08C174.544 2.30666 174.544 2.58 174.544 2.9V10.32C174.544 10.52 174.53 10.64 174.504 10.68C174.49 10.72 174.45 10.7467 174.384 10.76L173.424 10.8ZM162.124 10.2C161.75 10.2133 161.484 10.0533 161.324 9.72C161.177 9.38666 161.104 9.00666 161.104 8.58V4.04C161.104 3.57333 161.07 3.16 161.004 2.8C160.95 2.44 160.89 2.19333 160.824 2.06C160.784 1.98 160.784 1.91333 160.824 1.86C160.864 1.80666 160.91 1.78 160.964 1.78C161.044 1.78 161.204 1.78666 161.444 1.8C161.684 1.81333 161.917 1.83333 162.144 1.86C162.664 1.86 163.257 1.85333 163.924 1.84C164.59 1.82666 165.23 1.8 165.844 1.76C166.47 1.72 166.97 1.66666 167.344 1.6C167.384 1.58666 167.43 1.59333 167.484 1.62C167.537 1.63333 167.57 1.67333 167.584 1.74C167.61 1.87333 167.63 2.02 167.644 2.18C167.67 2.32666 167.684 2.42666 167.684 2.48C167.71 2.62666 167.63 2.7 167.444 2.7L165.124 2.74C164.644 2.75333 164.19 2.76666 163.764 2.78C163.35 2.79333 162.87 2.81333 162.324 2.84V5.22C163.724 5.22 164.797 5.18666 165.544 5.12C166.29 5.05333 166.804 4.99333 167.084 4.94C167.297 4.9 167.41 4.96 167.424 5.12L167.484 5.76C167.497 5.92 167.39 6 167.164 6C167.03 6 166.784 6.00666 166.424 6.02C166.077 6.02 165.664 6.02666 165.184 6.04C164.704 6.05333 164.21 6.07333 163.704 6.1C163.21 6.11333 162.75 6.12666 162.324 6.14V8.36C162.324 8.64 162.357 8.83333 162.424 8.94C162.49 9.03333 162.61 9.08 162.784 9.08C163.277 9.08 163.824 9.04666 164.424 8.98C165.024 8.91333 165.617 8.83333 166.204 8.74C166.79 8.63333 167.317 8.52666 167.784 8.42C168.25 8.3 168.59 8.18666 168.804 8.08C168.91 8.02666 168.977 8.06 169.004 8.18L169.104 8.76C169.13 8.93333 169.064 9.04666 168.904 9.1C168.717 9.16666 168.39 9.26 167.924 9.38C167.47 9.48666 166.924 9.60666 166.284 9.74C165.657 9.86 164.984 9.96666 164.264 10.06C163.544 10.14 162.83 10.1867 162.124 10.2ZM173.264 18.5C173.21 18.5 173.184 18.4667 173.184 18.4V13.26C173.184 13.1667 173.17 13.1067 173.144 13.08C173.13 13.0533 173.064 13.04 172.944 13.04C172.637 13.04 172.204 13.0467 171.644 13.06C171.084 13.0733 170.477 13.0933 169.824 13.12C169.184 13.1333 168.584 13.1533 168.024 13.18C167.477 13.1933 167.064 13.2067 166.784 13.22C166.45 13.2467 166.07 13.2733 165.644 13.3C165.23 13.3267 164.857 13.3533 164.524 13.38C164.39 13.3933 164.304 13.38 164.264 13.34C164.224 13.2867 164.19 13.2267 164.164 13.16C164.15 13.1467 164.144 13.1333 164.144 13.12L163.944 12.26C163.93 12.2333 163.937 12.2 163.964 12.16C163.99 12.12 164.037 12.1067 164.104 12.12C164.29 12.1467 164.604 12.1667 165.044 12.18C165.484 12.1933 165.997 12.2 166.584 12.2C167.184 12.2 167.81 12.1933 168.464 12.18C169.117 12.1533 169.744 12.1267 170.344 12.1C170.957 12.0733 171.497 12.04 171.964 12C172.444 11.96 172.797 11.9133 173.024 11.86C173.037 11.86 173.057 11.8533 173.084 11.84C173.11 11.84 173.137 11.84 173.164 11.84C173.19 11.8267 173.237 11.8267 173.304 11.84L174.484 12.02C174.55 12.0333 174.584 12.06 174.584 12.1C174.597 12.1267 174.604 12.1533 174.604 12.18C174.604 12.1933 174.604 12.2 174.604 12.2C174.564 12.5733 174.53 12.9533 174.504 13.34C174.49 13.7267 174.484 14.08 174.484 14.4L174.464 18.12C174.464 18.28 174.43 18.3733 174.364 18.4C174.31 18.4267 174.25 18.4467 174.184 18.46L173.264 18.5Z" fill="black"/>
<path d="M197.356 17.2C197.303 17.2 197.276 17.1667 197.276 17.1V8.28C196.903 8.28 196.516 8.28666 196.116 8.3C195.716 8.3 195.363 8.30666 195.056 8.32V16.18C195.056 16.38 195.043 16.5 195.016 16.54C195.003 16.58 194.963 16.6067 194.896 16.62C194.856 16.62 194.763 16.6267 194.616 16.64C194.483 16.64 194.35 16.6467 194.216 16.66C194.083 16.6733 193.99 16.68 193.936 16.68C193.883 16.68 193.856 16.6467 193.856 16.58V3.16C193.856 2.65333 193.843 2.18666 193.816 1.76C193.79 1.33333 193.743 1.05333 193.676 0.919996C193.65 0.853329 193.65 0.806662 193.676 0.779995C193.716 0.739996 193.763 0.719996 193.816 0.719996L194.996 0.739996C195.063 0.766662 195.096 0.819995 195.096 0.899995C195.07 1.28666 195.056 1.63333 195.056 1.94C195.056 2.24666 195.056 2.56666 195.056 2.9C195.056 2.98 195.056 3.06666 195.056 3.16C195.056 3.25333 195.056 3.35333 195.056 3.46V7.26C195.803 7.28666 196.543 7.26666 197.276 7.2V2.64C197.276 2.13333 197.263 1.66666 197.236 1.24C197.223 0.813329 197.183 0.533329 197.116 0.399995C197.09 0.333329 197.09 0.286662 197.116 0.259996C197.156 0.219996 197.203 0.199996 197.256 0.199996L198.436 0.219995C198.503 0.246662 198.536 0.299996 198.536 0.379996C198.51 0.779995 198.49 1.14 198.476 1.46C198.476 1.78 198.476 2.11333 198.476 2.46C198.476 2.54 198.476 2.62 198.476 2.7C198.476 2.78 198.476 2.86 198.476 2.94V16.7C198.476 16.9 198.463 17.02 198.436 17.06C198.423 17.1 198.383 17.1267 198.316 17.14C198.276 17.14 198.183 17.14 198.036 17.14C197.903 17.1533 197.77 17.1667 197.636 17.18C197.503 17.1933 197.41 17.2 197.356 17.2ZM188.356 13.1C187.57 13.1133 186.903 12.96 186.356 12.64C185.81 12.32 185.396 11.9133 185.116 11.42C184.836 10.9267 184.696 10.4333 184.696 9.94C184.696 9.44666 184.823 8.96 185.076 8.48C185.343 7.98666 185.75 7.57333 186.296 7.24C186.843 6.90666 187.55 6.73333 188.416 6.72C189.59 6.69333 190.496 6.96666 191.136 7.54C191.79 8.11333 192.103 8.87333 192.076 9.82C192.063 10.3267 191.91 10.8333 191.616 11.34C191.336 11.8333 190.923 12.2467 190.376 12.58C189.83 12.9 189.156 13.0733 188.356 13.1ZM188.356 12.12C189.156 12.0933 189.763 11.86 190.176 11.42C190.59 10.98 190.81 10.4533 190.836 9.84C190.863 9.49333 190.796 9.14666 190.636 8.8C190.49 8.44 190.236 8.14 189.876 7.9C189.53 7.64666 189.043 7.53333 188.416 7.56C187.803 7.57333 187.31 7.7 186.936 7.94C186.563 8.16666 186.29 8.46 186.116 8.82C185.956 9.16666 185.876 9.53333 185.876 9.92C185.876 10.4933 186.09 11.0067 186.516 11.46C186.956 11.9 187.57 12.12 188.356 12.12ZM183.956 5.8C183.823 5.81333 183.736 5.8 183.696 5.76C183.656 5.70666 183.623 5.64666 183.596 5.58C183.583 5.56666 183.576 5.55333 183.576 5.54C183.523 5.39333 183.483 5.27333 183.456 5.18C183.43 5.08666 183.39 4.92666 183.336 4.7C183.323 4.67333 183.33 4.64 183.356 4.6C183.383 4.56 183.43 4.54 183.496 4.54C183.763 4.55333 184.043 4.57333 184.336 4.6C184.643 4.61333 185.11 4.62 185.736 4.62C186.283 4.62 186.956 4.61333 187.756 4.6C188.556 4.57333 189.363 4.52666 190.176 4.46C190.51 4.43333 190.85 4.4 191.196 4.36C191.556 4.32 191.876 4.28 192.156 4.24C192.436 4.18666 192.623 4.14666 192.716 4.12C192.756 4.10666 192.803 4.11333 192.856 4.14C192.91 4.15333 192.943 4.20666 192.956 4.3L193.056 5.12C193.07 5.18666 193.063 5.25333 193.036 5.32C193.023 5.38666 192.963 5.42 192.856 5.42H190.416C190.123 5.42 189.77 5.42666 189.356 5.44C188.956 5.45333 188.55 5.46666 188.136 5.48C187.723 5.49333 187.356 5.51333 187.036 5.54C186.716 5.55333 186.49 5.56666 186.356 5.58C185.956 5.60666 185.536 5.64666 185.096 5.7C184.67 5.74 184.29 5.77333 183.956 5.8ZM187.756 2.82C187.57 2.79333 187.316 2.76 186.996 2.72C186.676 2.66666 186.363 2.6 186.056 2.52C185.75 2.42666 185.503 2.31333 185.316 2.18C185.263 2.14 185.25 2.06 185.276 1.94C185.303 1.80666 185.35 1.68666 185.416 1.58C185.483 1.46 185.55 1.41333 185.616 1.44C186.19 1.54666 186.81 1.61333 187.476 1.64C188.156 1.66666 188.796 1.67333 189.396 1.66C189.996 1.63333 190.483 1.60666 190.856 1.58C190.963 1.56666 191.03 1.57333 191.056 1.6C191.083 1.61333 191.103 1.65333 191.116 1.72C191.116 1.73333 191.116 1.75333 191.116 1.78C191.116 1.9 191.11 2.06666 191.096 2.27999C191.083 2.48 191.036 2.59333 190.956 2.62C190.876 2.64666 190.663 2.68666 190.316 2.74C189.983 2.78 189.583 2.81333 189.116 2.84C188.663 2.85333 188.21 2.84666 187.756 2.82Z" fill="black"/>
<path d="M204.934 7.88C204.854 7.93333 204.754 7.96 204.634 7.96C204.527 7.94666 204.421 7.86666 204.314 7.72L203.934 7.26C203.894 7.19333 203.887 7.15333 203.914 7.14C203.954 7.11333 203.994 7.09333 204.034 7.08C204.047 7.08 204.054 7.08 204.054 7.08C205.721 6.52 207.074 5.81333 208.114 4.96C209.154 4.10666 209.781 3.16 209.994 2.12C209.647 2.13333 209.347 2.14666 209.094 2.16C208.841 2.16 208.661 2.16666 208.554 2.18C208.341 2.19333 208.021 2.22 207.594 2.26C207.181 2.28666 206.761 2.31333 206.334 2.34C205.921 2.36666 205.601 2.39333 205.374 2.42C205.227 2.44666 205.134 2.43333 205.094 2.38C205.054 2.32666 205.014 2.26 204.974 2.18C204.974 2.16666 204.974 2.16 204.974 2.16C204.921 2.01333 204.881 1.88666 204.854 1.78C204.827 1.67333 204.787 1.50666 204.734 1.28C204.721 1.25333 204.727 1.22 204.754 1.18C204.781 1.14 204.827 1.12666 204.894 1.14C205.227 1.16666 205.707 1.18666 206.334 1.2C206.974 1.21333 207.694 1.22 208.494 1.22C209.307 1.20666 210.134 1.18666 210.974 1.16C211.827 1.12 212.634 1.06666 213.394 0.999996C214.167 0.933329 214.827 0.853329 215.374 0.759996C215.414 0.746662 215.461 0.753329 215.514 0.779995C215.567 0.793328 215.601 0.833328 215.614 0.899995C215.627 0.979996 215.641 1.07333 215.654 1.18C215.681 1.28666 215.701 1.39333 215.714 1.5L215.754 1.88C215.781 2.02666 215.701 2.09999 215.514 2.09999L213.054 2.08C212.854 2.08 212.607 2.08 212.314 2.08C212.034 2.08 211.741 2.08666 211.434 2.09999C211.274 2.7 211.034 3.26 210.714 3.78C211.807 4.19333 212.781 4.56666 213.634 4.9C214.501 5.23333 215.261 5.59333 215.914 5.98C215.981 6.02 216.047 6.08 216.114 6.16C216.181 6.22666 216.194 6.31333 216.154 6.42C216.087 6.56666 216.014 6.72666 215.934 6.9C215.854 7.06 215.761 7.22 215.654 7.38C215.601 7.47333 215.534 7.48666 215.454 7.42C215.027 7.03333 214.501 6.66 213.874 6.3C213.261 5.92666 212.627 5.58666 211.974 5.28C211.321 4.97333 210.714 4.72666 210.154 4.54C209.514 5.3 208.734 5.94666 207.814 6.48C206.907 7.01333 205.947 7.48 204.934 7.88ZM209.854 17.24C209.801 17.24 209.774 17.2067 209.774 17.14V10.56C208.174 10.5867 206.721 10.6333 205.414 10.7C204.107 10.7533 203.081 10.8133 202.334 10.88C202.187 10.8933 202.087 10.88 202.034 10.84C201.981 10.8 201.941 10.74 201.914 10.66C201.861 10.5133 201.814 10.3667 201.774 10.22C201.734 10.06 201.687 9.86666 201.634 9.64C201.621 9.61333 201.627 9.58 201.654 9.54C201.681 9.48666 201.727 9.46666 201.794 9.48C202.301 9.54666 202.987 9.59333 203.854 9.62C204.734 9.63333 205.701 9.64 206.754 9.64C207.781 9.64 208.861 9.62666 209.994 9.6C211.141 9.57333 212.254 9.54 213.334 9.5C214.414 9.46 215.374 9.40666 216.214 9.34C217.067 9.27333 217.714 9.2 218.154 9.12C218.287 9.09333 218.374 9.1 218.414 9.14C218.454 9.18 218.481 9.23333 218.494 9.3L218.614 10.26C218.614 10.3267 218.594 10.3867 218.554 10.44C218.514 10.4933 218.407 10.52 218.234 10.52C217.781 10.5067 217.254 10.5 216.654 10.5C216.054 10.5 215.414 10.5 214.734 10.5C214.107 10.5 213.487 10.5067 212.874 10.52C212.261 10.52 211.654 10.5267 211.054 10.54V16.74C211.054 16.94 211.041 17.06 211.014 17.1C211.001 17.14 210.961 17.1667 210.894 17.18C210.841 17.18 210.741 17.18 210.594 17.18C210.447 17.1933 210.301 17.2067 210.154 17.22C210.007 17.2333 209.907 17.24 209.854 17.24Z" fill="black"/>
<path d="M230.497 16.68C230.443 16.68 230.417 16.6467 230.417 16.58V6.84L229.817 6.86C229.497 6.87333 229.117 6.9 228.677 6.94C228.237 6.96666 227.857 6.99333 227.537 7.02C227.39 7.03333 227.297 7.02666 227.257 7C227.23 6.97333 227.21 6.92666 227.197 6.86C227.183 6.84666 227.177 6.83333 227.177 6.82L227.017 5.98C227.017 5.95333 227.023 5.92 227.037 5.88C227.05 5.84 227.09 5.82666 227.157 5.84C227.357 5.86666 227.637 5.88666 227.997 5.9C228.357 5.91333 228.75 5.91333 229.177 5.9C229.617 5.88666 230.03 5.87333 230.417 5.86V3.16C230.417 2.65333 230.403 2.18666 230.377 1.76C230.35 1.33333 230.303 1.05333 230.237 0.919996C230.21 0.853329 230.21 0.806662 230.237 0.779995C230.277 0.739996 230.323 0.719996 230.377 0.719996L231.557 0.739996C231.623 0.766662 231.657 0.819995 231.657 0.899995C231.63 1.28666 231.617 1.63333 231.617 1.94C231.617 2.24666 231.617 2.56666 231.617 2.9C231.617 2.98 231.617 3.06666 231.617 3.16C231.617 3.25333 231.617 3.35333 231.617 3.46V16.18C231.617 16.38 231.603 16.5 231.577 16.54C231.563 16.58 231.523 16.6067 231.457 16.62C231.417 16.62 231.323 16.6267 231.177 16.64C231.043 16.64 230.91 16.6467 230.777 16.66C230.643 16.6733 230.55 16.68 230.497 16.68ZM220.097 12.08L219.637 11.66C219.583 11.6067 219.603 11.5467 219.697 11.48C219.71 11.4667 219.717 11.46 219.717 11.46C220.25 11.0733 220.77 10.6 221.277 10.04C221.797 9.46666 222.277 8.85333 222.717 8.2C223.157 7.54666 223.537 6.88666 223.857 6.22C224.177 5.55333 224.41 4.92666 224.557 4.34C224.663 3.94 224.75 3.52666 224.817 3.1C224.883 2.66 224.917 2.30666 224.917 2.04C224.917 1.89333 224.977 1.83333 225.097 1.86L226.397 2.18C226.477 2.19333 226.51 2.26666 226.497 2.4L225.857 4.54C225.777 4.82 225.657 5.16 225.497 5.56C225.337 5.96 225.13 6.40666 224.877 6.9C225.383 7.34 225.91 7.81333 226.457 8.32C227.003 8.82666 227.497 9.29333 227.937 9.72C228.377 10.1467 228.683 10.4667 228.857 10.68C228.897 10.72 228.93 10.7867 228.957 10.88C228.997 10.9733 228.97 11.06 228.877 11.14C228.757 11.2733 228.63 11.4 228.497 11.52C228.363 11.64 228.223 11.7467 228.077 11.84C228.01 11.9067 227.943 11.8933 227.877 11.8C227.69 11.44 227.397 11.0133 226.997 10.52C226.61 10.0267 226.183 9.52666 225.717 9.02C225.263 8.51333 224.83 8.07333 224.417 7.7C224.017 8.38 223.517 9.09333 222.917 9.84C222.317 10.5867 221.583 11.3267 220.717 12.06C220.65 12.1267 220.563 12.1733 220.457 12.2C220.35 12.2267 220.23 12.1867 220.097 12.08ZM233.717 17.2C233.663 17.2 233.637 17.1667 233.637 17.1V2.64C233.637 2.13333 233.623 1.66666 233.597 1.24C233.583 0.813329 233.543 0.533329 233.477 0.399995C233.45 0.333329 233.45 0.286662 233.477 0.259996C233.517 0.219996 233.563 0.199996 233.617 0.199996L234.797 0.219995C234.863 0.246662 234.897 0.299996 234.897 0.379996C234.87 0.779995 234.85 1.14 234.837 1.46C234.837 1.78 234.837 2.11333 234.837 2.46C234.837 2.54 234.837 2.62 234.837 2.7C234.837 2.78 234.837 2.86 234.837 2.94V16.7C234.837 16.9 234.823 17.02 234.797 17.06C234.783 17.1 234.743 17.1267 234.677 17.14C234.637 17.14 234.543 17.14 234.397 17.14C234.263 17.1533 234.13 17.1667 233.997 17.18C233.863 17.1933 233.77 17.2 233.717 17.2Z" fill="black"/>
<path d="M245.839 9.24C244.919 9.24 244.092 9.08 243.359 8.76C242.639 8.42666 242.072 7.96 241.659 7.36C241.245 6.74666 241.045 6.02 241.059 5.18C241.085 4.40666 241.319 3.72 241.759 3.12C242.212 2.50666 242.819 2.02 243.579 1.66C244.339 1.3 245.179 1.11333 246.099 1.1C247.045 1.1 247.885 1.26666 248.619 1.6C249.352 1.93333 249.925 2.40666 250.339 3.01999C250.765 3.62 250.959 4.32 250.919 5.12C250.865 5.97333 250.612 6.70666 250.159 7.32C249.719 7.93333 249.125 8.40666 248.379 8.74C247.632 9.07333 246.785 9.24 245.839 9.24ZM245.879 8.22C246.932 8.19333 247.799 7.91333 248.479 7.38C249.159 6.84666 249.525 6.09333 249.579 5.12C249.632 4.21333 249.332 3.48666 248.679 2.94C248.025 2.39333 247.145 2.12 246.039 2.12C245.265 2.12 244.605 2.26666 244.059 2.55999C243.512 2.85333 243.099 3.23333 242.819 3.7C242.539 4.15333 242.385 4.64666 242.359 5.18C242.332 5.79333 242.472 6.33333 242.779 6.8C243.085 7.26666 243.512 7.62666 244.059 7.88C244.605 8.12 245.212 8.23333 245.879 8.22ZM238.479 15.18C238.332 15.1933 238.232 15.18 238.179 15.14C238.125 15.1 238.085 15.04 238.059 14.96C238.005 14.8133 237.959 14.6667 237.919 14.52C237.879 14.36 237.832 14.1667 237.779 13.94C237.765 13.9133 237.772 13.88 237.799 13.84C237.825 13.7867 237.872 13.7667 237.939 13.78C238.432 13.8467 239.105 13.8933 239.959 13.92C240.825 13.9333 241.779 13.94 242.819 13.94L242.719 12.34C242.705 12.0867 242.679 11.8067 242.639 11.5C242.599 11.1933 242.552 10.9133 242.499 10.66C242.445 10.3933 242.392 10.22 242.339 10.14C242.312 10.06 242.312 10.0067 242.339 9.98C242.379 9.95333 242.425 9.93333 242.479 9.92H243.819C243.872 9.93333 243.899 9.99333 243.899 10.1C243.899 10.1133 243.899 10.1267 243.899 10.14C243.899 10.4867 243.899 10.8267 243.899 11.16C243.899 11.4933 243.905 11.8333 243.919 12.18L243.959 13.94C244.679 13.94 245.399 13.9333 246.119 13.92C246.839 13.8933 247.552 13.8667 248.259 13.84L248.359 12.1C248.372 11.8467 248.379 11.5733 248.379 11.28C248.392 10.9867 248.385 10.72 248.359 10.48C248.345 10.2267 248.312 10.0533 248.259 9.96C248.232 9.86666 248.239 9.81333 248.279 9.8C248.319 9.77333 248.365 9.76 248.419 9.76C248.485 9.76 248.619 9.76666 248.819 9.78C249.019 9.78 249.212 9.78666 249.399 9.8C249.599 9.81333 249.712 9.82 249.739 9.82C249.805 9.86 249.825 9.92666 249.799 10.02C249.799 10.0333 249.799 10.04 249.799 10.04C249.759 10.3867 249.719 10.72 249.679 11.04C249.639 11.36 249.605 11.6933 249.579 12.04L249.419 13.8C250.405 13.7467 251.292 13.6933 252.079 13.64C252.879 13.5733 253.492 13.5 253.919 13.42C254.052 13.3933 254.139 13.4 254.179 13.44C254.219 13.48 254.245 13.5333 254.259 13.6L254.379 14.56C254.379 14.6267 254.359 14.6867 254.319 14.74C254.279 14.7933 254.172 14.82 253.999 14.82C253.545 14.8067 253.019 14.8 252.419 14.8C251.819 14.8 251.179 14.8 250.499 14.8C248.832 14.8 247.219 14.82 245.659 14.86C244.099 14.8867 242.699 14.9267 241.459 14.98C240.219 15.0333 239.225 15.1 238.479 15.18Z" fill="black"/>
</svg>
