<svg width="125" height="21" viewBox="0 0 125 21" fill="none" xmlns="http://www.w3.org/2000/svg">
<path d="M9.33125 8.45C9.61458 8.78333 9.89792 9.13333 10.1813 9.5C10.4646 9.86667 10.6563 10.2333 10.7563 10.6C10.7896 10.7667 10.7896 10.9417 10.7563 11.125C10.7229 11.3083 10.6313 11.4667 10.4813 11.6C10.2313 11.7667 9.96458 11.85 9.68125 11.85C9.36458 11.85 9.05625 11.775 8.75625 11.625C8.47292 11.475 8.23958 11.325 8.05625 11.175C7.77292 10.925 7.51458 10.675 7.28125 10.425C7.04792 10.1583 6.81458 9.9 6.58125 9.65C6.39792 9.45 6.19792 9.25 5.98125 9.05C5.76458 8.85 5.57292 8.63333 5.40625 8.4L2.93125 11.125C2.66458 11.4083 2.38125 11.6083 2.08125 11.725C1.78125 11.825 1.49792 11.875 1.23125 11.875C1.14792 11.875 1.02292 11.8583 0.85625 11.825C0.539583 11.7417 0.322917 11.5917 0.20625 11.375C0.10625 11.1917 0.0729167 10.9833 0.10625 10.75C0.139583 10.5167 0.20625 10.3083 0.30625 10.125C0.422917 9.925 0.547917 9.74167 0.68125 9.575C0.83125 9.40833 0.98125 9.23333 1.13125 9.05C1.56458 8.56667 1.98125 8.06667 2.38125 7.55C2.79792 7.01667 3.24792 6.5 3.73125 6V4.625C3.59792 4.64167 3.43125 4.65 3.23125 4.65C3.03125 4.63333 2.78958 4.625 2.50625 4.625C2.32292 4.625 2.11458 4.63333 1.88125 4.65C1.64792 4.66667 1.41458 4.65833 1.18125 4.625C0.964583 4.59167 0.764583 4.525 0.58125 4.425C0.397917 4.30833 0.25625 4.125 0.15625 3.875C0.0729167 3.69167 0.0229167 3.48333 0.00624998 3.25C-0.0104167 3.01667 0.00625001 2.8 0.05625 2.6C0.10625 2.36667 0.23125 2.20833 0.43125 2.125C0.647917 2.025 0.847917 1.95833 1.03125 1.925C1.19792 1.89167 1.34792 1.875 1.48125 1.875C1.53125 1.875 1.58125 1.88333 1.63125 1.9C1.68125 1.9 1.73125 1.9 1.78125 1.9H3.80625C3.83958 1.51667 3.91458 1.15833 4.03125 0.825C4.16458 0.475 4.41458 0.233333 4.78125 0.0999994C5.06458 -3.27826e-07 5.32292 -0.025 5.55625 0.0250003C5.80625 0.0749997 6.02292 0.174999 6.20625 0.324999C6.38958 0.475 6.53958 0.666666 6.65625 0.899999C6.77292 1.13333 6.84792 1.375 6.88125 1.625C6.89792 1.675 6.90625 1.725 6.90625 1.775C6.92292 1.80833 6.93125 1.85 6.93125 1.9H8.35625C8.93958 1.9 9.40625 1.94167 9.75625 2.025C10.1063 2.09167 10.3979 2.29167 10.6313 2.625C10.6979 2.725 10.7479 2.86667 10.7812 3.05C10.8146 3.21667 10.8146 3.39167 10.7812 3.575C10.7646 3.74167 10.7229 3.9 10.6562 4.05C10.5896 4.2 10.5063 4.30833 10.4063 4.375C10.2729 4.425 10.1229 4.48333 9.95625 4.55C9.80625 4.6 9.66458 4.625 9.53125 4.625C9.33125 4.64167 9.14792 4.65 8.98125 4.65C8.83125 4.63333 8.65625 4.625 8.45625 4.625C8.15625 4.625 7.92292 4.63333 7.75625 4.65C7.58958 4.65 7.38958 4.64167 7.15625 4.625C7.15625 4.84167 7.15625 4.98333 7.15625 5.05C7.15625 5.1 7.15625 5.15 7.15625 5.2C7.15625 5.25 7.15625 5.325 7.15625 5.425C7.15625 5.525 7.15625 5.71667 7.15625 6C7.23958 6.06667 7.34792 6.2 7.48125 6.4C7.61458 6.6 7.74792 6.76667 7.88125 6.9C8.01458 7.03333 8.15625 7.18333 8.30625 7.35C8.45625 7.5 8.61458 7.66667 8.78125 7.85C8.89792 7.96667 8.99792 8.075 9.08125 8.175C9.16458 8.275 9.24792 8.36667 9.33125 8.45ZM13.7063 15.025C14.3229 15.4583 14.9313 15.8917 15.5312 16.325C16.1313 16.7583 16.7229 17.2083 17.3063 17.675C17.5063 17.8417 17.7396 18.0167 18.0063 18.2C18.2729 18.3667 18.4313 18.5917 18.4813 18.875C18.5313 19.1083 18.4979 19.35 18.3813 19.6C18.2813 19.85 18.1396 20.05 17.9563 20.2C17.6729 20.4333 17.3979 20.5333 17.1313 20.5C16.8646 20.4667 16.5813 20.3833 16.2812 20.25C15.6646 19.9667 15.0729 19.65 14.5063 19.3C13.9396 18.95 13.3729 18.5833 12.8063 18.2C12.5229 18.0167 12.2563 17.825 12.0063 17.625C11.7563 17.425 11.4979 17.2333 11.2313 17.05C11.1313 16.9833 11.0146 16.9083 10.8813 16.825C10.7646 16.725 10.6313 16.6417 10.4813 16.575C10.3479 16.4917 10.2146 16.4417 10.0813 16.425C9.94792 16.3917 9.82292 16.4083 9.70625 16.475C9.28958 16.7083 8.93958 16.95 8.65625 17.2C8.38958 17.4333 8.11458 17.6417 7.83125 17.825C7.29792 18.1917 6.77292 18.55 6.25625 18.9C5.75625 19.25 5.27292 19.55 4.80625 19.8C4.62292 19.9 4.41458 20 4.18125 20.1C3.96458 20.2 3.73958 20.275 3.50625 20.325C3.28958 20.3917 3.06458 20.4167 2.83125 20.4C2.59792 20.4 2.38125 20.35 2.18125 20.25C1.91458 20.1167 1.72292 19.9167 1.60625 19.65C1.48958 19.3833 1.47292 19.1083 1.55625 18.825C1.63958 18.5417 1.82292 18.2917 2.10625 18.075C2.40625 17.8583 2.65625 17.6667 2.85625 17.5C3.48958 17.0167 4.12292 16.5667 4.75625 16.15C5.38958 15.7167 6.03125 15.2667 6.68125 14.8C6.96458 14.5833 7.23125 14.3917 7.48125 14.225C7.74792 14.0417 8.02292 13.8333 8.30625 13.6C8.78958 13.2333 9.32292 13.025 9.90625 12.975C10.5063 12.925 11.1146 13.125 11.7312 13.575L13.7063 15.025ZM13.5063 8.45C13.0229 8.41667 12.5896 8.39167 12.2063 8.375C11.8229 8.34167 11.5229 8.15833 11.3063 7.825C11.2063 7.65833 11.1563 7.45 11.1563 7.2C11.1563 6.95 11.1729 6.73333 11.2063 6.55C11.2563 6.36667 11.3479 6.21667 11.4812 6.1C11.6146 5.96667 11.8479 5.85833 12.1812 5.775C12.2479 5.75833 12.3979 5.75 12.6313 5.75C12.8646 5.73333 13.1146 5.71667 13.3813 5.7C13.6646 5.68333 13.9229 5.675 14.1562 5.675C14.3896 5.65833 14.5396 5.65 14.6062 5.65V2.75C14.5896 2.56667 14.5813 2.38333 14.5813 2.2C14.5979 2.01667 14.6313 1.83333 14.6813 1.65C14.7146 1.51667 14.7479 1.39167 14.7813 1.275C14.8146 1.15833 14.8896 1.03333 15.0063 0.899999C15.1396 0.733333 15.3396 0.616666 15.6063 0.55C15.8896 0.483333 16.1729 0.466666 16.4562 0.5C16.7062 0.533333 16.9229 0.608333 17.1063 0.725C17.2896 0.825 17.4229 0.958333 17.5063 1.125C17.6063 1.325 17.6646 1.575 17.6813 1.875C17.7146 2.15833 17.7313 2.33333 17.7313 2.4V11.55C17.7313 11.5667 17.7229 11.625 17.7063 11.725C17.6896 11.825 17.6479 11.95 17.5813 12.1C17.5313 12.2333 17.4563 12.375 17.3563 12.525C17.2563 12.675 17.1229 12.8 16.9563 12.9C16.7229 13.0333 16.4813 13.1 16.2313 13.1C16.0813 13.1 15.9229 13.075 15.7563 13.025C15.5896 12.975 15.4396 12.9083 15.3062 12.825C15.1063 12.6917 14.9646 12.525 14.8813 12.325C14.7813 12.1417 14.7146 11.9583 14.6813 11.775C14.6479 11.5917 14.6229 11.4083 14.6062 11.225V8.45H13.5063Z" fill="black"/>
<path d="M28.0075 11.45C27.8908 11.4667 27.6241 11.475 27.2075 11.475C26.8075 11.475 26.3741 11.475 25.9075 11.475C25.4408 11.4583 24.9991 11.45 24.5825 11.45C24.1658 11.45 23.8908 11.45 23.7575 11.45H23.7325C23.4325 11.45 23.1325 11.45 22.8325 11.45C22.5491 11.4333 22.2741 11.4083 22.0075 11.375C21.7408 11.325 21.4991 11.25 21.2825 11.15C21.0658 11.05 20.8908 10.9 20.7575 10.7C20.6075 10.4833 20.4991 10.2083 20.4325 9.875C20.3825 9.54167 20.3408 9.225 20.3075 8.925C20.2908 8.60833 20.2825 8.33333 20.2825 8.1C20.2991 7.86667 20.3075 7.74167 20.3075 7.725V7.175C20.3075 6.99167 20.3075 6.78333 20.3075 6.55C20.3075 6.31667 20.3158 6.05833 20.3325 5.775C20.3325 5.475 20.3325 5.18333 20.3325 4.9C20.3491 4.6 20.3575 4.33333 20.3575 4.1V3.3C20.3575 3.25 20.3575 3.15833 20.3575 3.025C20.3575 2.89167 20.3658 2.75 20.3825 2.6C20.3991 2.43333 20.4241 2.275 20.4575 2.125C20.4908 1.95833 20.5408 1.825 20.6075 1.725C20.7575 1.49167 20.9075 1.325 21.0575 1.225C21.2241 1.10833 21.4325 1.025 21.6825 0.975C21.7658 0.958334 21.8908 0.95 22.0575 0.95C22.2241 0.933333 22.3825 0.916666 22.5325 0.899999C22.7158 0.883333 22.9075 0.875 23.1075 0.875H28.7575C29.1241 0.875 29.5075 0.908333 29.9075 0.975C30.3241 1.025 30.6908 1.15 31.0075 1.35C31.2575 1.5 31.4325 1.69167 31.5325 1.925C31.6325 2.15833 31.6991 2.40833 31.7325 2.675C31.7658 2.94167 31.7741 3.21667 31.7575 3.5C31.7408 3.76667 31.7325 4.01667 31.7325 4.25C31.7325 4.51667 31.7241 4.78333 31.7075 5.05C31.7075 5.3 31.7158 5.55833 31.7325 5.825V7.2C31.7158 7.28333 31.7075 7.375 31.7075 7.475C31.7241 7.575 31.7325 7.675 31.7325 7.775C31.6991 7.99167 31.6908 8.20833 31.7075 8.425C31.7241 8.625 31.7325 8.84167 31.7325 9.075C31.7325 9.25833 31.7158 9.45833 31.6825 9.675C31.6658 9.875 31.6158 10.0833 31.5325 10.3C31.4658 10.5 31.3658 10.6833 31.2325 10.85C31.1158 11.0167 30.9575 11.1333 30.7575 11.2C30.3241 11.3833 29.8658 11.475 29.3825 11.475C28.9158 11.4583 28.4575 11.45 28.0075 11.45ZM25.2325 20.6C24.5491 20.6 23.9991 20.45 23.5825 20.15C23.1658 19.8667 22.9575 19.5333 22.9575 19.15V15.55C22.9241 15.1833 22.9241 14.8083 22.9575 14.425C22.9908 14.075 23.1241 13.7917 23.3575 13.575C23.6075 13.3583 23.9241 13.25 24.3075 13.25C24.3908 13.25 24.5408 13.2583 24.7575 13.275C24.9741 13.275 25.1241 13.2917 25.2075 13.325C25.4241 13.3917 25.5908 13.4917 25.7075 13.625C25.8408 13.7583 25.9408 13.9167 26.0075 14.1C26.0741 14.2667 26.1158 14.45 26.1325 14.65C26.1491 14.8333 26.1658 15.0167 26.1825 15.2C26.1825 15.2667 26.1825 15.425 26.1825 15.675C26.1991 15.9083 26.2075 16.1667 26.2075 16.45C26.2241 16.7167 26.2325 16.9667 26.2325 17.2C26.2491 17.4333 26.2658 17.575 26.2825 17.625C26.3325 17.6417 26.4658 17.6667 26.6825 17.7C26.9158 17.7167 27.3408 17.725 27.9575 17.725C28.4908 17.725 28.8158 17.7167 28.9325 17.7C29.0658 17.6833 29.1408 17.675 29.1575 17.675H37.3325C37.3325 17.675 37.3825 17.6917 37.4825 17.725C37.5991 17.7583 37.7241 17.8167 37.8575 17.9C37.9908 17.9667 38.1158 18.0667 38.2325 18.2C38.3491 18.3167 38.4241 18.4583 38.4575 18.625C38.5408 19.2583 38.4325 19.75 38.1325 20.1C37.9325 20.3333 37.7158 20.475 37.4825 20.525C37.2491 20.575 37.1241 20.6 37.1075 20.6H25.2325ZM37.9325 8.525V11.125C37.9158 11.3083 37.8908 11.5 37.8575 11.7C37.8241 11.8833 37.7575 12.0667 37.6575 12.25C37.5408 12.4667 37.3991 12.625 37.2325 12.725C36.9658 12.9083 36.6825 13 36.3825 13C36.1325 13 35.8991 12.9333 35.6825 12.8C35.5158 12.7 35.3825 12.575 35.2825 12.425C35.1825 12.275 35.0991 12.1333 35.0325 12C34.9825 11.8667 34.9491 11.75 34.9325 11.65C34.9158 11.5333 34.9075 11.475 34.9075 11.475V2.7C34.9075 2.61667 34.9158 2.43333 34.9325 2.15C34.9658 1.85 35.0325 1.6 35.1325 1.4C35.2991 1.05 35.6408 0.85 36.1575 0.799999C36.4408 0.766666 36.7075 0.783333 36.9575 0.85C37.2075 0.916667 37.3991 1.025 37.5325 1.175C37.6325 1.30833 37.6991 1.44167 37.7325 1.575C37.7825 1.69167 37.8241 1.81667 37.8575 1.95C37.9075 2.11667 37.9325 2.29167 37.9325 2.475C37.9491 2.65833 37.9491 2.84167 37.9325 3.025V5.725C37.9991 5.725 38.1075 5.73333 38.2575 5.75C38.4241 5.76667 38.5908 5.78333 38.7575 5.8C38.9408 5.8 39.1075 5.80833 39.2575 5.825C39.4241 5.84167 39.5408 5.85833 39.6075 5.875C39.9408 5.94167 40.1741 6.04167 40.3075 6.175C40.4408 6.29167 40.5325 6.44167 40.5825 6.625C40.6158 6.80833 40.6325 7.025 40.6325 7.275C40.6325 7.50833 40.5825 7.70833 40.4825 7.875C40.2825 8.20833 39.9825 8.4 39.5825 8.45C39.1825 8.5 38.7408 8.525 38.2575 8.525H37.9325ZM24.8075 4C24.6575 4 24.5158 4 24.3825 4C24.2658 4 24.1575 4.01667 24.0575 4.05C23.8241 4.06667 23.6325 4.16667 23.4825 4.35C23.4158 4.43333 23.3741 4.55833 23.3575 4.725C23.3575 4.89167 23.3575 4.99167 23.3575 5.025V6.075C23.3408 6.20833 23.3325 6.33333 23.3325 6.45C23.3325 6.55 23.3325 6.64167 23.3325 6.725V7.025C23.3325 7.025 23.3325 7.075 23.3325 7.175C23.3325 7.275 23.3325 7.39167 23.3325 7.525C23.3491 7.65833 23.3741 7.79167 23.4075 7.925C23.4408 8.05833 23.4991 8.175 23.5825 8.275C23.7158 8.44167 23.9325 8.54167 24.2325 8.575C24.5325 8.59167 24.8325 8.6 25.1325 8.6H25.1575C25.5908 8.58333 25.9491 8.58333 26.2325 8.6C26.5158 8.6 26.8825 8.6 27.3325 8.6C27.4658 8.6 27.5991 8.60833 27.7325 8.625C27.8825 8.625 28.0241 8.60833 28.1575 8.575C28.2908 8.55833 28.3825 8.51667 28.4325 8.45C28.4825 8.38333 28.5241 8.3 28.5575 8.2C28.5908 8.06667 28.6075 7.95833 28.6075 7.875C28.6741 7.55833 28.7075 7.2 28.7075 6.8C28.7075 6.53333 28.7075 6.26667 28.7075 6C28.7241 5.73333 28.7241 5.46667 28.7075 5.2C28.6908 5.06667 28.6825 4.93333 28.6825 4.8C28.6991 4.66667 28.6908 4.53333 28.6575 4.4C28.5908 4.21667 28.4825 4.11667 28.3325 4.1C28.1825 4.06667 28.0325 4.05 27.8825 4.05L24.8075 4Z" fill="black"/>
<path d="M42.4475 20.375C42.4309 20.375 42.4059 20.3583 42.3725 20.325C42.2059 20.1917 42.0892 20 42.0225 19.75C41.9725 19.4833 41.9475 19.2583 41.9475 19.075C41.9309 18.775 41.9059 18.475 41.8725 18.175C41.8559 17.875 41.8475 17.5833 41.8475 17.3C41.8475 16.8667 41.8475 16.4417 41.8475 16.025C41.8475 15.6083 41.8892 15.1917 41.9725 14.775C42.0225 14.5083 42.1059 14.3 42.2225 14.15C42.3392 13.9833 42.5225 13.85 42.7725 13.75C43.2392 13.5667 43.7059 13.475 44.1725 13.475H55.9475C56.2642 13.4917 56.5892 13.5167 56.9225 13.55C57.2559 13.5833 57.5725 13.6667 57.8725 13.8C58.2059 13.9333 58.4225 14.1583 58.5225 14.475C58.6392 14.775 58.7142 15.0917 58.7475 15.425C58.7642 15.7083 58.7725 16.0417 58.7725 16.425C58.7892 16.7917 58.7892 17.1667 58.7725 17.55C58.7559 17.9333 58.7309 18.3167 58.6975 18.7C58.6642 19.0667 58.6059 19.4 58.5225 19.7C58.4725 19.8833 58.4142 20.0417 58.3475 20.175C58.2809 20.325 58.1475 20.4333 57.9475 20.5C57.7642 20.5667 57.5725 20.6083 57.3725 20.625C57.1892 20.6417 57.0059 20.65 56.8225 20.65L43.7975 20.6C43.5809 20.5833 43.3475 20.575 43.0975 20.575C42.8475 20.575 42.6309 20.5083 42.4475 20.375ZM44.2225 11.425C43.7225 11.425 43.3142 11.375 42.9975 11.275C42.6809 11.1583 42.3975 10.9333 42.1475 10.6C41.8309 10.1833 41.6725 9.71667 41.6725 9.2C41.6725 8.48333 41.6642 7.69167 41.6475 6.825C41.6309 5.94167 41.6392 5.14167 41.6725 4.425C41.6892 3.99167 41.6892 3.54167 41.6725 3.075C41.6725 2.59167 41.7809 2.15833 41.9975 1.775C42.1142 1.55833 42.2892 1.38333 42.5225 1.25C42.7725 1.1 43.0309 1.00833 43.2975 0.975C43.5642 0.941666 43.8225 0.975 44.0725 1.075C44.3225 1.15833 44.5142 1.30833 44.6475 1.525C44.9475 2.025 45.0892 2.55833 45.0725 3.125C45.0725 3.675 45.0725 4.24167 45.0725 4.825C45.0725 5.025 45.0725 5.25833 45.0725 5.525C45.0725 5.79167 45.0725 6.06667 45.0725 6.35C45.0892 6.63333 45.0975 6.91667 45.0975 7.2C45.1142 7.46667 45.1392 7.7 45.1725 7.9C45.1892 8.1 45.2392 8.25 45.3225 8.35C45.4059 8.43333 45.5059 8.49167 45.6225 8.525C45.7392 8.55833 45.8725 8.575 46.0225 8.575C46.1725 8.575 46.3225 8.575 46.4725 8.575L51.5475 8.725C51.7642 8.725 51.9392 8.79167 52.0725 8.925C52.2225 9.04167 52.3309 9.19167 52.3975 9.375C52.4642 9.54167 52.5059 9.725 52.5225 9.925C52.5392 10.1083 52.5309 10.275 52.4975 10.425C52.4475 10.8083 52.2559 11.075 51.9225 11.225C51.5892 11.3583 51.1975 11.425 50.7475 11.425H44.2225ZM58.2475 8.15V10.425C58.2309 10.6083 58.2059 10.8 58.1725 11C58.1392 11.1833 58.0725 11.3667 57.9725 11.55C57.8725 11.75 57.7309 11.9167 57.5475 12.05C57.4142 12.1333 57.2559 12.2 57.0725 12.25C56.9059 12.2833 56.7559 12.3 56.6225 12.3C56.4892 12.3 56.3475 12.2917 56.1975 12.275C56.0475 12.2417 55.9225 12.1917 55.8225 12.125C55.6559 12.025 55.5225 11.9 55.4225 11.75C55.3225 11.6 55.2392 11.4583 55.1725 11.325C55.1225 11.175 55.0892 11.05 55.0725 10.95C55.0559 10.8333 55.0475 10.775 55.0475 10.775V2.525C55.0309 2.45833 55.0392 2.275 55.0725 1.975C55.1059 1.675 55.1725 1.425 55.2725 1.225C55.3559 1.05833 55.4975 0.925 55.6975 0.825C55.9142 0.725 56.1392 0.658333 56.3725 0.625C56.6559 0.591666 56.9392 0.608333 57.2225 0.674999C57.5059 0.741666 57.7142 0.85 57.8475 1C57.9475 1.13333 58.0142 1.26667 58.0475 1.4C58.0975 1.51667 58.1392 1.64167 58.1725 1.775C58.2225 1.94167 58.2475 2.11667 58.2475 2.3C58.2642 2.48333 58.2642 2.66667 58.2475 2.85V4.8C58.2475 4.88333 58.2392 4.975 58.2225 5.075C58.2225 5.15833 58.2309 5.25833 58.2475 5.375C58.3142 5.375 58.4392 5.38333 58.6225 5.4C58.8059 5.4 58.9975 5.40833 59.1975 5.425C59.3975 5.425 59.5892 5.43333 59.7725 5.45C59.9559 5.46667 60.0892 5.48333 60.1725 5.5C60.5059 5.56667 60.7392 5.66667 60.8725 5.8C61.0059 5.91667 61.0892 6.06667 61.1225 6.25C61.1725 6.43333 61.1975 6.65 61.1975 6.9C61.1975 7.13333 61.1475 7.33333 61.0475 7.5C60.8475 7.83333 60.5475 8.025 60.1475 8.075C59.7475 8.10833 59.3059 8.13333 58.8225 8.15H58.2475ZM44.8225 17.45C44.8225 17.5333 44.8225 17.6167 44.8225 17.7C44.8392 17.7667 44.8725 17.8167 44.9225 17.85C44.9559 17.8833 45.0059 17.9083 45.0725 17.925C45.1559 17.925 45.2392 17.925 45.3225 17.925C45.4059 17.925 45.5059 17.9167 45.6225 17.9H53.4475C53.6809 17.9167 53.9059 17.9333 54.1225 17.95C54.3059 17.9667 54.4975 17.975 54.6975 17.975C54.8975 17.975 55.0809 17.9583 55.2475 17.925C55.4142 17.9083 55.5142 17.8667 55.5475 17.8C55.5809 17.7167 55.6059 17.6 55.6225 17.45C55.6392 17.3167 55.6475 17.1667 55.6475 17C55.6475 16.8167 55.5975 16.6583 55.4975 16.525C55.3809 16.3917 55.2142 16.325 54.9975 16.325C54.7975 16.3083 54.6142 16.3083 54.4475 16.325H47.4975C47.1309 16.2917 46.7725 16.2833 46.4225 16.3C46.0725 16.3 45.7142 16.3083 45.3475 16.325C45.2142 16.325 45.1059 16.3333 45.0225 16.35C44.9559 16.35 44.9059 16.425 44.8725 16.575C44.8392 16.6917 44.8225 16.8083 44.8225 16.925C44.8225 17.025 44.8225 17.125 44.8225 17.225C44.8392 17.2583 44.8392 17.2917 44.8225 17.325C44.8225 17.3583 44.8225 17.4 44.8225 17.45Z" fill="black"/>
<path d="M73.3671 0.6C73.5838 0.6 73.7921 0.608334 73.9921 0.625C74.1921 0.641667 74.3921 0.666667 74.5921 0.700001C75.2255 0.8 75.7838 1.09167 76.2672 1.575C76.6672 2.00833 76.9921 2.50833 77.2421 3.075C77.5088 3.625 77.7171 4.20833 77.8671 4.825C78.0171 5.44167 78.1255 6.075 78.1921 6.725C78.2588 7.35833 78.3088 7.975 78.3421 8.575C78.3755 9.34167 78.3838 10.1083 78.3671 10.875C78.3505 11.6417 78.3005 12.4 78.2171 13.15C78.1338 13.9333 78.0088 14.725 77.8421 15.525C77.6921 16.3083 77.4088 17.0167 76.9921 17.65C76.6421 18.1833 76.2088 18.625 75.6921 18.975C75.1755 19.3083 74.6338 19.5333 74.0671 19.65C73.5505 19.75 73.0255 19.7667 72.4921 19.7C71.9588 19.6333 71.4505 19.4583 70.9671 19.175C70.5171 18.9083 70.1338 18.575 69.8171 18.175C69.5171 17.775 69.2505 17.3083 69.0172 16.775C68.6838 15.975 68.4921 15.15 68.4421 14.3C68.3755 13.6 68.3255 12.9 68.2921 12.2C68.2755 11.5 68.2672 10.8 68.2672 10.1C68.2672 9.16667 68.3171 8.23333 68.4171 7.3C68.4505 6.91667 68.4838 6.54167 68.5172 6.175C68.5505 5.79167 68.6005 5.41667 68.6671 5.05C68.7338 4.75 68.7921 4.46667 68.8421 4.2C68.8921 3.93333 68.9838 3.65833 69.1171 3.375C69.2505 3.09167 69.3921 2.825 69.5421 2.575C69.7088 2.325 69.9005 2.1 70.1171 1.9C70.4838 1.53333 70.8921 1.25 71.3421 1.05C71.7921 0.85 72.2588 0.716667 72.7421 0.65C72.8421 0.633333 72.9421 0.625 73.0421 0.625C73.1588 0.625 73.2671 0.616667 73.3671 0.6ZM85.4921 18.5C85.4588 18.7 85.4338 18.9 85.4171 19.1C85.4005 19.2833 85.3588 19.475 85.2922 19.675C85.2588 19.7417 85.2338 19.8 85.2171 19.85C85.2005 19.9 85.1755 19.9583 85.1422 20.025C85.0255 20.2583 84.8755 20.4417 84.6921 20.575C84.3088 20.8083 83.8838 20.8667 83.4172 20.75C83.1505 20.7 82.9338 20.6 82.7672 20.45C82.6172 20.3167 82.5005 20.1417 82.4171 19.925C82.3505 19.725 82.2921 19.525 82.2421 19.325C82.2088 19.125 82.1921 18.95 82.1921 18.8C82.1921 18.65 82.1921 18.5667 82.1921 18.55V3.425C82.1921 3.225 82.1921 3.00833 82.1921 2.775C82.1921 2.54167 82.2088 2.30833 82.2421 2.075C82.2755 1.84167 82.3255 1.625 82.3922 1.425C82.4588 1.225 82.5505 1.06667 82.6671 0.95C82.8505 0.766666 83.0421 0.658333 83.2421 0.625C83.4421 0.575 83.6588 0.55 83.8922 0.55C84.1755 0.55 84.4338 0.633333 84.6672 0.799999C84.9172 0.949999 85.0921 1.16667 85.1921 1.45C85.3421 1.8 85.4255 2.16667 85.4421 2.55C85.4588 2.93333 85.4755 3.31667 85.4921 3.7V3.825C85.5255 5.10833 85.5338 6.425 85.5172 7.775C85.5005 9.125 85.4921 10.4 85.4921 11.6V17.6C85.4921 17.75 85.4921 17.9 85.4921 18.05C85.5088 18.2 85.5088 18.35 85.4921 18.5ZM73.2921 16.325C73.6088 16.325 73.9171 16.225 74.2171 16.025C74.5005 15.825 74.7005 15.5583 74.8171 15.225C74.9338 14.8917 75.0338 14.525 75.1171 14.125C75.2505 13.3583 75.3255 12.5417 75.3421 11.675C75.3588 10.8083 75.3505 9.975 75.3171 9.175C75.3171 8.85833 75.3088 8.525 75.2921 8.175C75.2755 7.80833 75.2421 7.45 75.1921 7.1C75.1588 6.75 75.1005 6.41667 75.0172 6.1C74.9338 5.76667 74.8171 5.475 74.6671 5.225C74.5005 4.94167 74.3005 4.725 74.0671 4.575C73.8338 4.425 73.5838 4.36667 73.3171 4.4C73.0338 4.43333 72.7755 4.53333 72.5421 4.7C72.3088 4.86667 72.1171 5.11667 71.9671 5.45L71.7421 5.975C71.6421 6.29167 71.5672 6.625 71.5172 6.975C71.4672 7.30833 71.4255 7.64167 71.3922 7.975C71.3588 8.30833 71.3338 8.65 71.3171 9C71.3005 9.35 71.2921 9.69167 71.2921 10.025C71.3088 10.3583 71.3005 10.6833 71.2672 11C71.2505 11.3167 71.2588 11.6417 71.2921 11.975C71.3255 12.4083 71.3671 12.875 71.4171 13.375C71.4838 13.875 71.5838 14.35 71.7171 14.8C71.8505 15.2333 72.0421 15.6 72.2921 15.9C72.5421 16.1833 72.8755 16.325 73.2921 16.325Z" fill="black"/>
<path d="M103.763 10.45C104.047 10.4833 104.322 10.5333 104.588 10.6C104.855 10.65 105.105 10.7667 105.338 10.95C105.588 11.15 105.713 11.4167 105.713 11.75C105.713 11.9 105.68 12.0667 105.613 12.25C105.563 12.4333 105.48 12.575 105.363 12.675C105.23 12.7917 105.063 12.8833 104.863 12.95C104.663 13.0167 104.463 13.0667 104.263 13.1C104.063 13.1167 103.888 13.125 103.738 13.125C103.605 13.125 103.53 13.125 103.513 13.125H90.1883C89.8049 13.1583 89.4049 13.1667 88.9883 13.15C88.5716 13.1167 88.2216 12.9917 87.9383 12.775C87.5716 12.4917 87.3883 12.1667 87.3883 11.8C87.3883 11.5667 87.4633 11.3417 87.6133 11.125C87.7799 10.8917 87.9966 10.7333 88.2633 10.65C88.6133 10.5167 88.9049 10.4583 89.1383 10.475C89.3883 10.475 89.7049 10.4667 90.0883 10.45H91.3633C91.3466 10.1 91.3466 9.825 91.3633 9.625C91.3966 9.40833 91.4549 9.18333 91.5383 8.95C91.5883 8.73333 91.6799 8.54167 91.8133 8.375C90.4799 8.14167 89.5049 7.73333 88.8883 7.15C88.2883 6.56667 87.9883 5.75 87.9883 4.7C87.9883 3.33333 88.6633 2.33333 90.0133 1.7C91.3799 1.06667 93.4633 0.741667 96.2633 0.725C97.5299 0.725 98.6799 0.791667 99.7133 0.924999C100.763 1.05833 101.655 1.28333 102.388 1.6C103.122 1.9 103.688 2.30833 104.088 2.825C104.488 3.325 104.688 3.95 104.688 4.7C104.688 5.7 104.388 6.49167 103.788 7.075C103.188 7.64167 102.247 8.05833 100.963 8.325C101.247 8.54167 101.405 8.84167 101.438 9.225C101.455 9.40833 101.463 9.6 101.463 9.8C101.463 9.98333 101.472 10.2 101.488 10.45H103.763ZM101.263 4.7C101.263 4.43333 101.138 4.2 100.888 4C100.655 3.8 100.313 3.63333 99.8633 3.5C99.4299 3.36667 98.9049 3.26667 98.2883 3.2C97.6883 3.13333 97.0133 3.1 96.2633 3.1C94.6133 3.1 93.4133 3.23333 92.6633 3.5C91.9299 3.76667 91.5633 4.16667 91.5633 4.7C91.5633 5.16667 91.9466 5.53333 92.7133 5.8C93.4799 6.06667 94.6466 6.19167 96.2133 6.175C96.8133 6.175 97.4133 6.15833 98.0133 6.125C98.6133 6.075 99.1549 6 99.6383 5.9C100.122 5.78333 100.513 5.63333 100.813 5.45C101.113 5.25 101.263 5 101.263 4.7ZM96.2633 8.675C95.9799 8.675 95.7049 8.675 95.4383 8.675C95.1716 8.675 94.9049 8.66667 94.6383 8.65C94.6716 8.7 94.6883 8.75 94.6883 8.8C94.6883 8.85 94.6966 8.90833 94.7133 8.975C94.7466 9.225 94.7633 9.46667 94.7633 9.7C94.7633 9.91667 94.7716 10.1667 94.7883 10.45H98.0883C98.0883 9.81667 98.1466 9.325 98.2633 8.975C98.2799 8.85833 98.3216 8.74167 98.3883 8.625C98.0549 8.64167 97.7133 8.65833 97.3633 8.675C97.0133 8.675 96.6466 8.675 96.2633 8.675ZM88.1883 17.35C88.1883 16.65 88.4049 16.0833 88.8383 15.65C89.2716 15.2167 89.8549 14.8917 90.5883 14.675C91.3216 14.4417 92.1799 14.2917 93.1633 14.225C94.1633 14.1417 95.2299 14.1 96.3633 14.1C97.4966 14.1 98.5549 14.125 99.5383 14.175C100.538 14.2083 101.405 14.3333 102.138 14.55C102.888 14.75 103.48 15.075 103.913 15.525C104.347 15.9583 104.563 16.5667 104.563 17.35C104.563 18.1333 104.347 18.7417 103.913 19.175C103.48 19.6083 102.888 19.925 102.138 20.125C101.405 20.3417 100.538 20.475 99.5383 20.525C98.5549 20.575 97.4966 20.6 96.3633 20.6C95.2299 20.6 94.1633 20.575 93.1633 20.525C92.1799 20.475 91.3216 20.3417 90.5883 20.125C89.8549 19.925 89.2716 19.6083 88.8383 19.175C88.4049 18.7417 88.1883 18.1333 88.1883 17.35ZM101.263 17.35C101.263 17.0833 101.113 16.8833 100.813 16.75C100.53 16.6 100.147 16.5 99.6633 16.45C99.1966 16.3833 98.6716 16.35 98.0883 16.35C97.5049 16.3333 96.9299 16.325 96.3633 16.325C95.7966 16.325 95.2299 16.3333 94.6633 16.35C94.0966 16.35 93.5883 16.3833 93.1383 16.45C92.6883 16.5 92.3216 16.6 92.0383 16.75C91.7716 16.8833 91.6383 17.0833 91.6383 17.35C91.6383 17.5833 91.7716 17.775 92.0383 17.925C92.3216 18.0583 92.6883 18.1583 93.1383 18.225C93.5883 18.2917 94.0966 18.3333 94.6633 18.35C95.2299 18.3667 95.7966 18.375 96.3633 18.375C96.9299 18.375 97.5049 18.3833 98.0883 18.4C98.6716 18.4 99.1966 18.375 99.6633 18.325C100.147 18.275 100.53 18.1833 100.813 18.05C101.113 17.9 101.263 17.6667 101.263 17.35Z" fill="black"/>
<path d="M108.773 4.525C108.49 4.525 108.182 4.45833 107.848 4.325C107.532 4.19167 107.282 3.98333 107.098 3.7C106.898 3.4 106.848 3.04167 106.948 2.625C107.015 2.39167 107.123 2.18333 107.273 2C107.44 1.8 107.632 1.63333 107.848 1.5C108.215 1.31667 108.515 1.225 108.748 1.225C108.998 1.225 109.315 1.225 109.698 1.225H113.398C113.665 1.225 113.948 1.24167 114.248 1.275C114.548 1.29167 114.832 1.35 115.098 1.45C115.382 1.53333 115.632 1.66667 115.848 1.85C116.082 2.01667 116.248 2.25833 116.348 2.575C116.565 3.25833 116.665 3.91667 116.648 4.55C116.632 5.18333 116.623 5.86667 116.623 6.6V9.275H117.998C118.332 9.24167 118.673 9.24167 119.023 9.275C119.39 9.30833 119.698 9.44167 119.948 9.675C120.265 9.99167 120.423 10.35 120.423 10.75C120.423 11 120.357 11.2333 120.223 11.45C120.09 11.65 119.907 11.7917 119.673 11.875C119.373 12.0083 119.065 12.0917 118.748 12.125C118.432 12.1417 118.107 12.1583 117.773 12.175H117.673C117.257 12.1917 116.932 12.2083 116.698 12.225C116.465 12.2417 116.273 12.2583 116.123 12.275C115.973 12.275 115.832 12.275 115.698 12.275C115.582 12.275 115.423 12.275 115.223 12.275C115.223 12.6417 115.215 13.0083 115.198 13.375C115.198 13.7417 115.165 14.0833 115.098 14.4C115.048 14.7 114.965 14.9667 114.848 15.2C114.732 15.4333 114.582 15.6083 114.398 15.725C114.198 15.8417 113.965 15.9 113.698 15.9C113.448 15.9 113.198 15.85 112.948 15.75C112.715 15.65 112.507 15.5167 112.323 15.35C112.157 15.1833 112.065 15 112.048 14.8C112.015 14.5833 111.99 14.2417 111.973 13.775C111.973 13.2917 111.973 12.7833 111.973 12.25C111.557 12.2333 111.165 12.225 110.798 12.225C110.448 12.2083 110.082 12.1917 109.698 12.175C109.565 12.175 109.457 12.175 109.373 12.175C109.307 12.1583 109.24 12.15 109.173 12.15C109.123 12.1333 109.065 12.1167 108.998 12.1C108.932 12.0833 108.84 12.0667 108.723 12.05C108.673 12.05 108.623 12.05 108.573 12.05C108.523 12.0333 108.482 12.025 108.448 12.025C108.215 11.9917 107.982 11.9583 107.748 11.925C107.515 11.875 107.298 11.7417 107.098 11.525C106.898 11.325 106.798 11.0333 106.798 10.65C106.798 10.3 106.898 10.0083 107.098 9.775C107.215 9.64167 107.357 9.54167 107.523 9.475C107.707 9.40833 107.882 9.35833 108.048 9.325C108.215 9.29167 108.357 9.275 108.473 9.275C108.607 9.275 108.682 9.275 108.698 9.275H113.323V8.225C113.323 8.075 113.315 7.91667 113.298 7.75C113.298 7.56667 113.298 7.34167 113.298 7.075C113.298 6.79167 113.29 6.45 113.273 6.05C113.273 5.65 113.273 5.14167 113.273 4.525H108.773ZM123.623 17.9C123.623 17.9 123.673 17.9167 123.773 17.95C123.89 17.9833 124.015 18.0417 124.148 18.125C124.282 18.1917 124.407 18.2917 124.523 18.425C124.64 18.5417 124.715 18.6833 124.748 18.85C124.832 19.4833 124.723 19.975 124.423 20.325C124.223 20.5583 124.007 20.7 123.773 20.75C123.54 20.8 123.415 20.825 123.398 20.825H109.823C109.49 20.825 109.207 20.7833 108.973 20.7C108.757 20.6167 108.582 20.5083 108.448 20.375C108.315 20.2417 108.215 20.0833 108.148 19.9C108.098 19.7333 108.073 19.5583 108.073 19.375C108.073 18.575 108.073 17.9333 108.073 17.45C108.073 16.9667 108.073 16.5917 108.073 16.325C108.073 16.0417 108.073 15.8417 108.073 15.725C108.073 15.6083 108.073 15.5 108.073 15.4C108.107 15.05 108.24 14.7667 108.473 14.55C108.723 14.3333 109.04 14.225 109.423 14.225C109.507 14.225 109.648 14.2333 109.848 14.25C110.065 14.25 110.223 14.2667 110.323 14.3C110.54 14.3667 110.707 14.4667 110.823 14.6C110.957 14.7333 111.057 14.8833 111.123 15.05C111.19 15.2167 111.232 15.4 111.248 15.6C111.265 15.7833 111.282 15.9667 111.298 16.15C111.298 16.2333 111.298 16.3583 111.298 16.525C111.315 16.675 111.323 16.8417 111.323 17.025C111.34 17.2083 111.348 17.3833 111.348 17.55C111.365 17.7 111.382 17.8 111.398 17.85C111.248 17.8833 111.373 17.9083 111.773 17.925C112.19 17.925 112.898 17.9333 113.898 17.95C114.898 17.95 116.198 17.95 117.798 17.95C119.415 17.9333 121.357 17.9167 123.623 17.9ZM124.373 13.575C124.34 13.775 124.315 13.975 124.298 14.175C124.282 14.3583 124.24 14.55 124.173 14.75C124.14 14.85 124.098 14.9583 124.048 15.075C123.965 15.275 123.832 15.4583 123.648 15.625C123.465 15.7417 123.265 15.8083 123.048 15.825C122.848 15.8417 122.657 15.8333 122.473 15.8C122.24 15.75 122.048 15.65 121.898 15.5C121.748 15.3667 121.632 15.2 121.548 15C121.482 14.7833 121.432 14.575 121.398 14.375C121.365 14.175 121.348 14.0083 121.348 13.875C121.348 13.725 121.348 13.6417 121.348 13.625V8.1C120.748 8.1 120.182 8.05833 119.648 7.975C119.115 7.875 118.748 7.68333 118.548 7.4C118.432 7.23333 118.348 7.04167 118.298 6.825C118.248 6.60833 118.232 6.4 118.248 6.2C118.282 5.98333 118.357 5.80833 118.473 5.675C118.59 5.525 118.748 5.44167 118.948 5.425C119.048 5.425 119.19 5.425 119.373 5.425C119.573 5.40833 119.782 5.4 119.998 5.4C120.232 5.4 120.465 5.4 120.698 5.4C120.948 5.38333 121.165 5.375 121.348 5.375C121.348 4.975 121.348 4.65833 121.348 4.425C121.348 4.175 121.348 3.98333 121.348 3.85C121.348 3.7 121.348 3.6 121.348 3.55C121.348 3.48333 121.348 3.425 121.348 3.375C121.348 3.19167 121.348 2.98333 121.348 2.75C121.348 2.51667 121.357 2.29167 121.373 2.075C121.407 1.84167 121.457 1.625 121.523 1.425C121.59 1.225 121.673 1.06667 121.773 0.95C121.957 0.766666 122.14 0.658333 122.323 0.625C122.507 0.591666 122.698 0.574999 122.898 0.574999C123.482 0.574999 123.882 0.858333 124.098 1.425C124.232 1.79167 124.307 2.15833 124.323 2.525C124.34 2.89167 124.357 3.26667 124.373 3.65V3.775C124.407 5.04167 124.415 6.34167 124.398 7.675C124.382 8.99167 124.373 10.2417 124.373 11.425V12.875C124.373 13.025 124.373 13.15 124.373 13.25C124.39 13.3333 124.39 13.4417 124.373 13.575Z" fill="black"/>
</svg>
