<svg width="148" height="21" viewBox="0 0 148 21" fill="none" xmlns="http://www.w3.org/2000/svg">
<path d="M5 0.264474C5.21667 0.264474 5.425 0.272808 5.625 0.289474C5.825 0.306141 6.025 0.331141 6.225 0.364475C6.85833 0.464474 7.41667 0.756141 7.9 1.23947C8.3 1.67281 8.625 2.17281 8.875 2.73947C9.125 3.28947 9.31667 3.87281 9.45 4.48947C9.6 5.10614 9.7 5.73947 9.75 6.38947C9.8 7.02281 9.84167 7.63947 9.875 8.23947C9.90833 9.00614 9.91667 9.77281 9.9 10.5395C9.9 11.3061 9.85833 12.0645 9.775 12.8145C9.69167 13.5978 9.56667 14.3895 9.4 15.1895C9.25 15.9728 8.96667 16.6811 8.55 17.3145C8.2 17.8478 7.775 18.2895 7.275 18.6395C6.79167 18.9728 6.26667 19.1978 5.7 19.3145C5.18333 19.4145 4.65833 19.4311 4.125 19.3645C3.59167 19.2978 3.08333 19.1228 2.6 18.8395C2.15 18.5728 1.78333 18.2395 1.5 17.8395C1.23333 17.4395 0.983333 16.9728 0.75 16.4395C0.416667 15.6395 0.225 14.8145 0.175 13.9645C0.108333 13.2645 0.0583333 12.5645 0.025 11.8645C0.00833332 11.1645 0 10.4645 0 9.76447C0 8.83114 0.05 7.89781 0.15 6.96447C0.183333 6.58114 0.216667 6.20614 0.25 5.83947C0.283333 5.45614 0.333333 5.08114 0.4 4.71447C0.466667 4.41447 0.525 4.13114 0.575 3.86447C0.625 3.59781 0.716667 3.32281 0.85 3.03947C0.983333 2.75614 1.125 2.48947 1.275 2.23947C1.44167 1.98947 1.63333 1.76447 1.85 1.56447C2.55 0.864474 3.39167 0.447807 4.375 0.314474C4.475 0.297807 4.575 0.289474 4.675 0.289474C4.79167 0.289474 4.9 0.281141 5 0.264474ZM17.5 7.93947C17.5833 7.93947 17.6583 7.94781 17.725 7.96447C17.8083 7.98114 17.8917 7.98947 17.975 7.98947C18.0583 8.00614 18.15 8.02281 18.25 8.03947C18.35 8.03947 18.45 8.04781 18.55 8.06448C18.7333 8.09781 18.9167 8.16447 19.1 8.26447C19.2833 8.34781 19.4167 8.48114 19.5 8.66447C19.6167 8.84781 19.675 9.06447 19.675 9.31447C19.675 9.44781 19.6667 9.57281 19.65 9.68947C19.65 9.78947 19.6333 9.90614 19.6 10.0395C19.5667 10.1728 19.525 10.3145 19.475 10.4645C19.4417 10.6145 19.3667 10.7311 19.25 10.8145C19.0167 10.9811 18.7917 11.0895 18.575 11.1395C18.3083 11.1728 17.9833 11.1811 17.6 11.1645C17.2167 11.1478 16.8917 11.1478 16.625 11.1645C16.6083 11.1645 16.5917 11.1728 16.575 11.1895H16.55L16.525 11.2145V11.2895C16.525 11.4895 16.525 11.7311 16.525 12.0145C16.525 12.2978 16.525 12.5895 16.525 12.8895C16.525 13.1728 16.525 13.4561 16.525 13.7395C16.525 14.0061 16.525 14.2478 16.525 14.4645C16.5583 15.3311 16.5583 16.1811 16.525 17.0145V17.3645C16.525 17.5811 16.5167 17.8228 16.5 18.0895C16.5 18.3395 16.4833 18.5895 16.45 18.8395C16.4167 19.0895 16.3583 19.3311 16.275 19.5645C16.1917 19.7811 16.075 19.9645 15.925 20.1145C15.725 20.3478 15.4583 20.4645 15.125 20.4645C15.125 20.4645 15.1083 20.4561 15.075 20.4395C14.675 20.4228 14.35 20.3061 14.1 20.0895C13.8667 19.8728 13.6833 19.6061 13.55 19.2895C13.4333 18.9728 13.3583 18.6478 13.325 18.3145C13.2917 17.9645 13.275 17.6561 13.275 17.3895V2.53947C13.275 2.52281 13.275 2.44781 13.275 2.31447C13.275 2.16447 13.2917 1.99781 13.325 1.81447C13.3583 1.61447 13.4083 1.41447 13.475 1.21447C13.5583 0.997807 13.6667 0.822807 13.8 0.689473C13.9167 0.572807 14.0833 0.489474 14.3 0.439474C14.5333 0.372807 14.7417 0.339473 14.925 0.339473C15.2917 0.339473 15.6 0.464474 15.85 0.714475C16.0833 0.947808 16.2167 1.19781 16.25 1.46447C16.3 1.71447 16.3417 1.98114 16.375 2.26447C16.3917 2.33114 16.4 2.43114 16.4 2.56447C16.4333 2.84781 16.45 3.13947 16.45 3.43947C16.4667 3.73947 16.4833 4.03947 16.5 4.33947C16.5 4.52281 16.5 4.70614 16.5 4.88947C16.5167 5.05614 16.525 5.23114 16.525 5.41447C16.5083 5.51447 16.5 5.61447 16.5 5.71447C16.5167 5.79781 16.525 5.88114 16.525 5.96447V7.33947C16.525 7.42281 16.525 7.51447 16.525 7.61447C16.525 7.71447 16.5417 7.80614 16.575 7.88947C16.575 7.90614 16.6583 7.91447 16.825 7.91447C16.9917 7.91447 17.0833 7.91447 17.1 7.91447C17.25 7.94781 17.3667 7.95614 17.45 7.93947H17.5ZM4.925 15.9895C5.24167 15.9895 5.55 15.8895 5.85 15.6895C6.13333 15.4895 6.33333 15.2228 6.45 14.8895C6.56667 14.5561 6.66667 14.1895 6.75 13.7895C6.88333 13.0228 6.95833 12.2061 6.975 11.3395C6.99167 10.4728 6.98333 9.63947 6.95 8.83947C6.95 8.52281 6.94167 8.18947 6.925 7.83947C6.90833 7.47281 6.875 7.11447 6.825 6.76447C6.79167 6.41447 6.73333 6.08114 6.65 5.76447C6.56667 5.43114 6.45 5.13947 6.3 4.88947C6.13333 4.60614 5.93333 4.38947 5.7 4.23947C5.46667 4.08947 5.21667 4.03114 4.95 4.06447C4.66667 4.09781 4.4 4.19781 4.15 4.36447C3.91667 4.53114 3.725 4.78114 3.575 5.11447L3.35 5.63947C3.25 5.95614 3.175 6.28947 3.125 6.63947C3.075 6.97281 3.03333 7.30614 3 7.63947C2.96667 7.97281 2.94167 8.31447 2.925 8.66447C2.90833 9.01447 2.9 9.35614 2.9 9.68947C2.91667 10.0228 2.90833 10.3478 2.875 10.6645C2.85833 10.9811 2.86667 11.3061 2.9 11.6395C2.93333 12.0728 2.975 12.5395 3.025 13.0395C3.09167 13.5395 3.19167 14.0145 3.325 14.4645C3.475 14.8978 3.675 15.2645 3.925 15.5645C4.175 15.8478 4.50833 15.9895 4.925 15.9895Z" fill="black"/>
<path d="M25.4762 0.264474C25.6929 0.264474 25.9012 0.272808 26.1012 0.289474C26.3012 0.306141 26.5012 0.331141 26.7012 0.364475C27.3345 0.464474 27.8929 0.756141 28.3762 1.23947C28.7762 1.67281 29.1012 2.17281 29.3512 2.73947C29.6179 3.28947 29.8262 3.87281 29.9762 4.48947C30.1262 5.10614 30.2345 5.73947 30.3012 6.38947C30.3679 7.02281 30.4179 7.63947 30.4512 8.23947C30.4845 9.00614 30.4929 9.77281 30.4762 10.5395C30.4595 11.3061 30.4095 12.0645 30.3262 12.8145C30.2429 13.5978 30.1179 14.3895 29.9512 15.1895C29.8012 15.9728 29.5179 16.6811 29.1012 17.3145C28.7512 17.8478 28.3179 18.2895 27.8012 18.6395C27.2845 18.9728 26.7429 19.1978 26.1762 19.3145C25.6595 19.4145 25.1345 19.4311 24.6012 19.3645C24.0679 19.2978 23.5595 19.1228 23.0762 18.8395C22.6262 18.5728 22.2429 18.2395 21.9262 17.8395C21.6262 17.4395 21.3595 16.9728 21.1262 16.4395C20.7929 15.6395 20.6012 14.8145 20.5512 13.9645C20.4845 13.2645 20.4345 12.5645 20.4012 11.8645C20.3845 11.1645 20.3762 10.4645 20.3762 9.76447C20.3762 8.83114 20.4262 7.89781 20.5262 6.96447C20.5595 6.58114 20.5929 6.20614 20.6262 5.83947C20.6595 5.45614 20.7095 5.08114 20.7762 4.71447C20.8429 4.41447 20.9012 4.13114 20.9512 3.86447C21.0012 3.59781 21.0929 3.32281 21.2262 3.03947C21.3595 2.75614 21.5012 2.48947 21.6512 2.23947C21.8179 1.98947 22.0095 1.76447 22.2262 1.56447C22.5929 1.19781 23.0012 0.914474 23.4512 0.714475C23.9012 0.514474 24.3679 0.381141 24.8512 0.314474C24.9512 0.297807 25.0512 0.289474 25.1512 0.289474C25.2679 0.289474 25.3762 0.281141 25.4762 0.264474ZM37.6012 18.1645C37.5679 18.3645 37.5429 18.5645 37.5262 18.7645C37.5095 18.9478 37.4679 19.1395 37.4012 19.3395C37.3679 19.4061 37.3429 19.4645 37.3262 19.5145C37.3095 19.5645 37.2845 19.6228 37.2512 19.6895C37.1345 19.9228 36.9845 20.1061 36.8012 20.2395C36.4179 20.4728 35.9929 20.5311 35.5262 20.4145C35.2595 20.3645 35.0429 20.2645 34.8762 20.1145C34.7262 19.9811 34.6095 19.8061 34.5262 19.5895C34.4595 19.3895 34.4012 19.1895 34.3512 18.9895C34.3179 18.7895 34.3012 18.6145 34.3012 18.4645C34.3012 18.3145 34.3012 18.2311 34.3012 18.2145V3.08947C34.3012 2.88947 34.3012 2.67281 34.3012 2.43947C34.3012 2.20614 34.3179 1.97281 34.3512 1.73947C34.3845 1.50614 34.4345 1.28947 34.5012 1.08947C34.5679 0.889474 34.6595 0.731141 34.7762 0.614474C34.9595 0.43114 35.1512 0.322807 35.3512 0.289474C35.5512 0.239474 35.7679 0.214474 36.0012 0.214474C36.2845 0.214474 36.5429 0.297807 36.7762 0.464473C37.0262 0.614473 37.2012 0.83114 37.3012 1.11447C37.4512 1.46447 37.5345 1.83114 37.5512 2.21447C37.5679 2.59781 37.5845 2.98114 37.6012 3.36447V3.48947C37.6345 4.77281 37.6429 6.08947 37.6262 7.43947C37.6095 8.78947 37.6012 10.0645 37.6012 11.2645V17.2645C37.6012 17.4145 37.6012 17.5645 37.6012 17.7145C37.6179 17.8645 37.6179 18.0145 37.6012 18.1645ZM25.4012 15.9895C25.7179 15.9895 26.0262 15.8895 26.3262 15.6895C26.6095 15.4895 26.8095 15.2228 26.9262 14.8895C27.0429 14.5561 27.1429 14.1895 27.2262 13.7895C27.3595 13.0228 27.4345 12.2061 27.4512 11.3395C27.4679 10.4728 27.4595 9.63947 27.4262 8.83947C27.4262 8.52281 27.4179 8.18947 27.4012 7.83947C27.3845 7.47281 27.3512 7.11447 27.3012 6.76447C27.2679 6.41447 27.2095 6.08114 27.1262 5.76447C27.0429 5.43114 26.9262 5.13947 26.7762 4.88947C26.6095 4.60614 26.4095 4.38947 26.1762 4.23947C25.9429 4.08947 25.6929 4.03114 25.4262 4.06447C25.1429 4.09781 24.8845 4.19781 24.6512 4.36447C24.4179 4.53114 24.2262 4.78114 24.0762 5.11447L23.8512 5.63947C23.7512 5.95614 23.6762 6.28947 23.6262 6.63947C23.5762 6.97281 23.5345 7.30614 23.5012 7.63947C23.4679 7.97281 23.4429 8.31447 23.4262 8.66447C23.4095 9.01447 23.4012 9.35614 23.4012 9.68947C23.4179 10.0228 23.4095 10.3478 23.3762 10.6645C23.3595 10.9811 23.3679 11.3061 23.4012 11.6395C23.4345 12.0728 23.4762 12.5395 23.5262 13.0395C23.5929 13.5395 23.6929 14.0145 23.8262 14.4645C23.9595 14.8978 24.1512 15.2645 24.4012 15.5645C24.6512 15.8478 24.9845 15.9895 25.4012 15.9895Z" fill="black"/>
<path d="M62.0907 8.73947C62.3741 8.75614 62.6574 8.79781 62.9407 8.86447C63.2407 8.93114 63.5074 9.05614 63.7407 9.23947C63.9741 9.42281 64.0907 9.66447 64.0907 9.96447C64.0907 10.1311 64.0574 10.3145 63.9907 10.5145C63.9407 10.7145 63.8657 10.8561 63.7657 10.9395C63.6324 11.0728 63.4574 11.1728 63.2407 11.2395C63.0407 11.2895 62.8407 11.3311 62.6407 11.3645C62.4407 11.3811 62.2657 11.3895 62.1157 11.3895C61.9824 11.3895 61.9074 11.3895 61.8907 11.3895L48.5657 11.4145C48.1824 11.4311 47.7824 11.4311 47.3657 11.4145C46.9657 11.3978 46.6241 11.2728 46.3407 11.0395C45.9574 10.7561 45.7657 10.4311 45.7657 10.0645C45.7657 9.83114 45.8407 9.60614 45.9907 9.38947C46.1574 9.15614 46.3741 8.99781 46.6407 8.91447C46.9907 8.79781 47.3491 8.74781 47.7157 8.76447C48.0824 8.76447 48.4574 8.75614 48.8407 8.73947C49.2407 8.72281 49.5991 8.71447 49.9157 8.71447C50.2324 8.71447 50.5324 8.71447 50.8157 8.71447C51.1157 8.71447 51.4241 8.72281 51.7407 8.73947C52.0574 8.73947 52.4241 8.73947 52.8407 8.73947V7.36447C52.0741 7.34781 51.2824 7.33114 50.4657 7.31447C49.6657 7.29781 48.8907 7.28947 48.1407 7.28947C47.7407 7.28947 47.4241 7.23114 47.1907 7.11447C46.9741 6.98114 46.8074 6.80614 46.6907 6.58947C46.5907 6.35614 46.5324 6.08947 46.5157 5.78947C46.4991 5.47281 46.4907 5.13947 46.4907 4.78947V2.31447C46.4907 1.53114 46.6741 0.964474 47.0407 0.614474C47.4074 0.264474 47.9741 0.0894737 48.7407 0.0894737H60.3657C60.6991 0.0894737 61.0157 0.106141 61.3157 0.139475C61.6157 0.156141 61.9324 0.231141 62.2657 0.364475C62.5324 0.481141 62.7407 0.664474 62.8907 0.914474C63.0407 1.14781 63.1074 1.40614 63.0907 1.68947C63.0574 1.97281 62.9574 2.22281 62.7907 2.43947C62.6407 2.63947 62.4241 2.77281 62.1407 2.83947C61.8074 2.92281 61.3574 2.96447 60.7907 2.96447C60.5741 2.96447 60.3991 2.96447 60.2657 2.96447C60.1324 2.94781 60.0574 2.93947 60.0407 2.93947H57.7407C56.6574 2.93947 55.5824 2.93947 54.5157 2.93947C53.4491 2.93947 52.3824 2.91447 51.3157 2.86447C51.1157 2.84781 50.9074 2.83947 50.6907 2.83947C50.4907 2.83947 50.2991 2.87281 50.1157 2.93947C50.0157 2.97281 49.9407 3.04781 49.8907 3.16447C49.8574 3.26447 49.8324 3.38947 49.8157 3.53947C49.8157 3.68947 49.8157 3.84781 49.8157 4.01447C49.8324 4.16447 49.8574 4.28947 49.8907 4.38947C50.1241 4.42281 50.3574 4.44781 50.5907 4.46447C50.8241 4.46447 51.0574 4.47281 51.2907 4.48947L60.3407 4.46447C60.5574 4.46447 60.8074 4.48114 61.0907 4.51447C61.3741 4.53114 61.6407 4.58114 61.8907 4.66447C62.1574 4.73114 62.3824 4.83947 62.5657 4.98947C62.7657 5.12281 62.8907 5.30614 62.9407 5.53947C63.0241 5.87281 63.0074 6.15614 62.8907 6.38947C62.7907 6.62281 62.6324 6.80614 62.4157 6.93948C62.2157 7.07281 61.9824 7.17281 61.7157 7.23947C61.4491 7.30614 61.1907 7.33947 60.9407 7.33947C60.7907 7.33947 60.5324 7.34781 60.1657 7.36447C59.7991 7.36447 59.3907 7.37281 58.9407 7.38947C58.4907 7.38947 58.0324 7.38947 57.5657 7.38947C57.0991 7.38947 56.6907 7.38947 56.3407 7.38947C56.3574 7.62281 56.3657 7.85614 56.3657 8.08947C56.3824 8.32281 56.3907 8.53947 56.3907 8.73947C56.8574 8.73947 57.3491 8.73947 57.8657 8.73947C58.3824 8.72281 58.8907 8.71447 59.3907 8.71447C59.9074 8.71447 60.3991 8.71447 60.8657 8.71447C61.3324 8.71447 61.7407 8.72281 62.0907 8.73947ZM62.2157 18.6145C62.4824 18.6478 62.7157 18.7145 62.9157 18.8145C63.1157 18.9145 63.2574 19.0978 63.3407 19.3645C63.5407 19.9645 63.3241 20.3895 62.6907 20.6395C62.4907 20.7228 62.2907 20.7728 62.0907 20.7895C61.8907 20.8061 61.6991 20.8145 61.5157 20.8145H49.8907C49.5574 20.8145 49.2074 20.8061 48.8407 20.7895C48.4907 20.7895 48.1324 20.7811 47.7657 20.7645C47.4157 20.7478 47.1241 20.6228 46.8907 20.3895C46.6574 20.1561 46.5241 19.8478 46.4907 19.4645L46.4157 17.6645C46.3991 17.4811 46.3991 17.2478 46.4157 16.9645C46.4324 16.6645 46.5157 16.4311 46.6657 16.2645C46.8991 16.0145 47.2074 15.8561 47.5907 15.7895C47.9907 15.7228 48.3741 15.6895 48.7407 15.6895C48.9741 15.6895 49.3491 15.6895 49.8657 15.6895C50.3824 15.6895 51.0907 15.6978 51.9907 15.7145C52.8907 15.7145 54.0157 15.7145 55.3657 15.7145C56.7157 15.7145 58.3407 15.7145 60.2407 15.7145V14.7395H48.1907C48.0241 14.7395 47.8741 14.7395 47.7407 14.7395C47.6074 14.7395 47.4741 14.7228 47.3407 14.6895C47.1907 14.6561 47.0574 14.6228 46.9407 14.5895C46.8241 14.5561 46.7241 14.4728 46.6407 14.3395C46.4074 13.9728 46.3491 13.5978 46.4657 13.2145C46.5157 13.0478 46.6157 12.9228 46.7657 12.8395C46.9324 12.7395 47.1074 12.6645 47.2907 12.6145C47.4907 12.5645 47.6907 12.5311 47.8907 12.5145C48.1074 12.4978 48.3074 12.4895 48.4907 12.4895H60.7407C61.5907 12.4895 62.1991 12.6311 62.5657 12.9145C62.9324 13.1978 63.1157 13.6311 63.1157 14.2145V16.1895C63.1157 16.4228 63.0574 16.6561 62.9407 16.8895C62.8407 17.1061 62.6574 17.2895 62.3907 17.4395C62.1741 17.5728 61.9574 17.6478 61.7407 17.6645C61.5241 17.6645 61.3074 17.6645 61.0907 17.6645H49.4907V18.6145H62.2157Z" fill="black"/>
<path d="M81.2009 9.28947C81.4843 9.30614 81.7676 9.34781 82.0509 9.41447C82.3509 9.48114 82.6176 9.60614 82.8509 9.78947C83.0843 9.97281 83.2009 10.2311 83.2009 10.5645C83.2009 10.7311 83.1676 10.9145 83.1009 11.1145C83.0509 11.3145 82.9759 11.4561 82.8759 11.5395C82.7426 11.6728 82.5676 11.7728 82.3509 11.8395C82.1509 11.8895 81.9509 11.9311 81.7509 11.9645C81.5509 11.9811 81.3759 11.9895 81.2259 11.9895C81.0926 11.9895 81.0176 11.9895 81.0009 11.9895L67.6759 12.0145C67.2926 12.0311 66.8926 12.0311 66.4759 12.0145C66.0759 11.9978 65.7343 11.8728 65.4509 11.6395C65.0676 11.3561 64.8759 11.0311 64.8759 10.6645C64.8759 10.4311 64.9509 10.1978 65.1009 9.96447C65.2676 9.71447 65.4843 9.54781 65.7509 9.46447C66.1009 9.34781 66.4593 9.29781 66.8259 9.31447C67.1926 9.31447 67.5676 9.30614 67.9509 9.28947C68.3509 9.27281 68.6926 9.26447 68.9759 9.26447C69.2759 9.26447 69.5593 9.26447 69.8259 9.26447C70.1093 9.26447 70.4009 9.27281 70.7009 9.28947C71.0009 9.28947 71.3593 9.28947 71.7759 9.28947V8.08947C71.6426 8.10614 71.5009 8.11447 71.3509 8.11447C71.2176 8.11447 71.0843 8.11447 70.9509 8.11447C70.1509 8.09781 69.3593 8.09781 68.5759 8.11447C68.2259 8.11447 67.8676 8.08947 67.5009 8.03947C67.1509 7.98947 66.8343 7.85614 66.5509 7.63947C66.3676 7.48947 66.2176 7.30614 66.1009 7.08947C66.0009 6.85614 65.9259 6.63114 65.8759 6.41447C65.8259 6.18114 65.7926 5.98114 65.7759 5.81447C65.7593 5.64781 65.7509 5.55614 65.7509 5.53947V1.53947C65.7509 1.22281 65.8259 0.914475 65.9759 0.614474C66.1426 0.297808 66.4093 0.114474 66.7759 0.064474C66.9426 0.0478076 67.1259 0.0561408 67.3259 0.0894737C67.5259 0.10614 67.7093 0.15614 67.8759 0.239473C68.0593 0.30614 68.2093 0.414474 68.3259 0.564474C68.4593 0.697807 68.5426 0.864474 68.5759 1.06447C68.6093 1.21447 68.6093 1.38947 68.5759 1.58947C68.5593 1.77281 68.5843 1.93947 68.6509 2.08947C68.6843 2.17281 68.7676 2.21447 68.9009 2.21447C69.0343 2.19781 69.1426 2.19781 69.2259 2.21447C69.6093 2.24781 69.9926 2.25614 70.3759 2.23947C70.7759 2.20614 71.1759 2.18947 71.5759 2.18947H78.4759C78.6259 2.18947 78.7426 2.19781 78.8259 2.21447C79.0093 2.23114 79.1426 2.23114 79.2259 2.21447C79.3093 2.19781 79.4343 2.17281 79.6009 2.13947C79.6343 2.00614 79.6509 1.87281 79.6509 1.73947C79.6509 1.60614 79.6509 1.47281 79.6509 1.33947C79.6676 1.03947 79.7343 0.772807 79.8509 0.539474C79.9676 0.289474 80.1759 0.131141 80.4759 0.064474C81.0593 -0.0521931 81.5259 -0.0105265 81.8759 0.189474C82.2259 0.389474 82.3926 0.789474 82.3759 1.38947C82.3593 2.13947 82.3593 2.95614 82.3759 3.83947C82.4093 4.72281 82.3926 5.54781 82.3259 6.31447C82.2926 6.54781 82.2426 6.73947 82.1759 6.88947C82.1093 7.03947 82.0093 7.21447 81.8759 7.41447C81.7426 7.59781 81.5676 7.73947 81.3509 7.83947C81.1343 7.92281 80.9009 7.98114 80.6509 8.01447C80.4009 8.04781 80.1509 8.06448 79.9009 8.06448C79.6509 8.06448 79.4259 8.06448 79.2259 8.06448C78.9593 8.08114 78.7259 8.08947 78.5259 8.08947C78.3426 8.08947 78.1676 8.08947 78.0009 8.08947C77.8343 8.08947 77.6509 8.08947 77.4509 8.08947C77.2676 8.07281 77.0426 8.06448 76.7759 8.06448C76.4926 8.06448 76.2343 8.07281 76.0009 8.08947C75.7676 8.08947 75.5343 8.08947 75.3009 8.08947C75.3176 8.27281 75.3259 8.47281 75.3259 8.68947C75.3259 8.90614 75.3259 9.10614 75.3259 9.28947C75.7926 9.28947 76.2926 9.28947 76.8259 9.28947C77.3593 9.27281 77.8926 9.26447 78.4259 9.26447C78.9593 9.26447 79.4676 9.26447 79.9509 9.26447C80.4343 9.26447 80.8509 9.27281 81.2009 9.28947ZM66.1259 20.0145C66.1093 20.0145 66.0843 19.9978 66.0509 19.9645C65.8843 19.8311 65.7676 19.6478 65.7009 19.4145C65.6509 19.1811 65.6259 18.9728 65.6259 18.7895C65.6093 18.4895 65.5843 18.1895 65.5509 17.8895C65.5343 17.5895 65.5259 17.2978 65.5259 17.0145C65.5259 16.5811 65.5259 16.1895 65.5259 15.8395C65.5259 15.4895 65.5676 15.1061 65.6509 14.6895C65.7009 14.4228 65.7843 14.2145 65.9009 14.0645C66.0176 13.8978 66.2009 13.7645 66.4509 13.6645C66.9176 13.4811 67.3843 13.3895 67.8509 13.3895H79.6259C79.9426 13.4061 80.2676 13.4311 80.6009 13.4645C80.9343 13.4978 81.2509 13.5811 81.5509 13.7145C81.8843 13.8478 82.1009 14.0395 82.2009 14.2895C82.3176 14.5228 82.3926 14.8061 82.4259 15.1395C82.4426 15.4228 82.4509 15.7478 82.4509 16.1145C82.4676 16.4811 82.4676 16.8561 82.4509 17.2395C82.4343 17.6061 82.4093 17.9728 82.3759 18.3395C82.3426 18.7061 82.2843 19.0395 82.2009 19.3395C82.1509 19.5228 82.0926 19.6811 82.0259 19.8145C81.9593 19.9645 81.8259 20.0728 81.6259 20.1395C81.4426 20.2061 81.2509 20.2478 81.0509 20.2645C80.8676 20.2811 80.6843 20.2895 80.5009 20.2895L67.4759 20.2395C67.2593 20.2228 67.0259 20.2145 66.7759 20.2145C66.5259 20.2145 66.3093 20.1478 66.1259 20.0145ZM68.5009 17.1645C68.5009 17.2478 68.5009 17.3311 68.5009 17.4145C68.5176 17.4978 68.5509 17.5561 68.6009 17.5895C68.6343 17.6228 68.6843 17.6478 68.7509 17.6645C68.8343 17.6645 68.9176 17.6645 69.0009 17.6645C69.0843 17.6645 69.1843 17.6561 69.3009 17.6395H77.1259C77.3593 17.6561 77.5843 17.6728 77.8009 17.6895C77.9843 17.7061 78.1759 17.7145 78.3759 17.7145C78.5759 17.7145 78.7593 17.6978 78.9259 17.6645C79.0926 17.6478 79.1926 17.5978 79.2259 17.5145C79.2593 17.4311 79.2843 17.3145 79.3009 17.1645C79.3176 17.0311 79.3259 16.8811 79.3259 16.7145C79.3259 16.5311 79.2759 16.3728 79.1759 16.2395C79.0593 16.1061 78.8926 16.0395 78.6759 16.0395C78.4759 16.0228 78.2926 16.0228 78.1259 16.0395H71.1759C70.8093 16.0061 70.4509 15.9978 70.1009 16.0145C69.7509 16.0145 69.3926 16.0228 69.0259 16.0395C68.8926 16.0395 68.7843 16.0478 68.7009 16.0645C68.6343 16.0645 68.5843 16.1395 68.5509 16.2895C68.5176 16.4061 68.5009 16.5228 68.5009 16.6395C68.5009 16.7395 68.5009 16.8395 68.5009 16.9395C68.5176 16.9728 68.5176 17.0061 68.5009 17.0395C68.5009 17.0728 68.5009 17.1145 68.5009 17.1645ZM68.6509 5.38947C68.6843 5.53947 68.7593 5.64781 68.8759 5.71447C69.0093 5.76447 69.1509 5.79781 69.3009 5.81447C69.4676 5.83114 69.6343 5.83947 69.8009 5.83947C69.9676 5.82281 70.1009 5.81447 70.2009 5.81447C70.6676 5.81447 71.1259 5.82281 71.5759 5.83947C72.0426 5.83947 72.5009 5.83947 72.9509 5.83947C73.2676 5.83947 73.5426 5.83947 73.7759 5.83947C74.0093 5.83947 74.2343 5.83947 74.4509 5.83947C74.6843 5.83947 74.9176 5.83947 75.1509 5.83947C75.4009 5.82281 75.6843 5.81447 76.0009 5.81447C76.1676 5.79781 76.3343 5.79781 76.5009 5.81447C76.6676 5.81447 76.8426 5.81447 77.0259 5.81447C77.1593 5.81447 77.2843 5.80614 77.4009 5.78947C77.5343 5.77281 77.6676 5.77281 77.8009 5.78947C77.9343 5.82281 78.0676 5.83947 78.2009 5.83947C78.3509 5.82281 78.4926 5.81447 78.6259 5.81447C78.7093 5.83114 78.8093 5.84781 78.9259 5.86447C79.0426 5.86447 79.1509 5.86447 79.2509 5.86447C79.3509 5.84781 79.4343 5.80614 79.5009 5.73947C79.5676 5.67281 79.6009 5.57281 79.6009 5.43948C79.6009 5.30614 79.6093 5.18947 79.6259 5.08947C79.6426 4.98947 79.6009 4.88114 79.5009 4.76447C79.3676 4.63114 79.2259 4.55614 79.0759 4.53947C78.9259 4.52281 78.7676 4.52281 78.6009 4.53947H74.8509C74.8009 4.53947 74.5843 4.53947 74.2009 4.53947C73.8176 4.53947 73.4009 4.53947 72.9509 4.53947C72.5009 4.52281 72.0843 4.51447 71.7009 4.51447C71.3176 4.51447 71.1009 4.51447 71.0509 4.51447C70.9009 4.51447 70.6843 4.50614 70.4009 4.48947C70.1176 4.45614 69.8426 4.44781 69.5759 4.46447C69.3093 4.48114 69.0759 4.53947 68.8759 4.63947C68.6926 4.73947 68.6009 4.91447 68.6009 5.16447C68.6009 5.24781 68.6009 5.29781 68.6009 5.31447C68.6176 5.31447 68.6343 5.33947 68.6509 5.38947Z" fill="black"/>
<path d="M94.7295 4.13947C94.7295 3.88947 94.7295 3.64781 94.7295 3.41447C94.7462 3.18114 94.7795 2.93947 94.8295 2.68947C94.9128 2.22281 95.0545 1.84781 95.2545 1.56447C95.4545 1.26447 95.8462 1.09781 96.4295 1.06447C96.4795 1.06447 96.5879 1.07281 96.7545 1.08947C96.9379 1.10614 97.0712 1.13114 97.1545 1.16447C97.3545 1.24781 97.5128 1.37281 97.6295 1.53947C97.7462 1.70614 97.8295 1.88947 97.8795 2.08947C97.9462 2.28947 97.9879 2.48947 98.0045 2.68947C98.0379 2.88947 98.0628 3.07281 98.0795 3.23947C98.1128 3.62281 98.1212 3.97281 98.1045 4.28947C98.0878 4.60614 98.0795 4.95614 98.0795 5.33947C98.1128 5.78947 98.1212 6.23947 98.1045 6.68947C98.0878 7.13947 98.0795 7.59781 98.0795 8.06448C98.0795 8.36447 98.0878 8.67281 98.1045 8.98947C98.1378 9.30614 98.1712 9.61447 98.2045 9.91447C98.2378 10.3478 98.3462 10.7561 98.5295 11.1395C98.7295 11.5061 98.9462 11.8645 99.1795 12.2145C99.4128 12.6478 99.6879 13.1228 100.005 13.6395C100.321 14.1395 100.596 14.5895 100.83 14.9895C100.963 15.2228 101.096 15.4478 101.23 15.6645C101.363 15.8811 101.48 16.1061 101.58 16.3395C101.713 16.6228 101.821 16.9311 101.905 17.2645C101.988 17.5811 101.963 17.8811 101.83 18.1645C101.746 18.3478 101.605 18.5061 101.405 18.6395C101.221 18.7561 101.03 18.8311 100.83 18.8645C100.58 18.8978 100.371 18.8811 100.205 18.8145C100.038 18.7311 99.8628 18.5978 99.6795 18.4145C99.3462 18.0811 98.9878 17.6895 98.6045 17.2395C98.2212 16.7895 97.8878 16.3728 97.6045 15.9895C97.5712 15.9561 97.4878 15.8478 97.3545 15.6645C97.2212 15.4811 97.0795 15.2895 96.9295 15.0895C96.7795 14.8895 96.6379 14.7061 96.5045 14.5395C96.3878 14.3728 96.3212 14.2895 96.3045 14.2895C96.2712 14.3228 96.2378 14.3645 96.2045 14.4145C96.1878 14.4478 96.1545 14.4895 96.1045 14.5395C95.5712 15.1228 95.0879 15.7228 94.6545 16.3395C94.2379 16.9561 93.7545 17.5478 93.2045 18.1145C92.9378 18.3811 92.6295 18.5645 92.2795 18.6645C92.1962 18.6978 92.1129 18.7228 92.0295 18.7395C91.9629 18.7561 91.8795 18.7645 91.7795 18.7645C91.3962 18.7645 91.0795 18.6145 90.8295 18.3145C90.5295 18.0645 90.3795 17.7228 90.3795 17.2895C90.4128 17.1395 90.4378 17.0061 90.4545 16.8895C90.4878 16.7561 90.5462 16.6228 90.6295 16.4895C91.0128 15.7561 91.4295 15.0561 91.8795 14.3895C92.3462 13.7061 92.8212 13.0145 93.3045 12.3145C93.4378 12.1145 93.5462 11.9228 93.6295 11.7395C93.7295 11.5395 93.8462 11.3478 93.9795 11.1645C94.0295 11.0811 94.0879 10.9978 94.1545 10.9145C94.2212 10.8145 94.2795 10.7145 94.3295 10.6145C94.3795 10.5311 94.4212 10.4561 94.4545 10.3895C94.5045 10.3228 94.5462 10.2478 94.5795 10.1645C94.6128 10.0811 94.6379 10.0061 94.6545 9.93947C94.6712 9.87281 94.6795 9.79781 94.6795 9.71447C94.7128 9.56447 94.7295 9.43114 94.7295 9.31447C94.7295 9.18114 94.7295 9.04781 94.7295 8.91447V4.13947ZM100.83 8.13947C100.88 8.08947 100.93 8.03947 100.98 7.98947C101.03 7.92281 101.08 7.87281 101.13 7.83947C101.23 7.75614 101.33 7.68947 101.43 7.63947C101.53 7.57281 101.646 7.52281 101.78 7.48947C101.863 7.47281 102.021 7.46447 102.255 7.46447C102.488 7.46447 102.746 7.46447 103.03 7.46447C103.313 7.46447 103.605 7.46447 103.905 7.46447C104.221 7.46447 104.505 7.47281 104.755 7.48947L104.705 4.98947C104.655 4.62281 104.655 4.25614 104.705 3.88947V2.73947C104.705 2.60614 104.713 2.48114 104.73 2.36447C104.746 2.23114 104.755 2.09781 104.755 1.96447C104.788 1.83114 104.813 1.71447 104.83 1.61447C104.863 1.51447 104.905 1.39781 104.955 1.26447C105.005 1.04781 105.105 0.864474 105.255 0.714475C105.505 0.481141 105.838 0.356141 106.255 0.339473C106.671 0.306141 107.021 0.431141 107.305 0.714475C107.455 0.864474 107.563 1.04781 107.63 1.26447C107.696 1.48114 107.738 1.71447 107.755 1.96447C107.788 2.19781 107.805 2.43947 107.805 2.68947C107.805 2.93947 107.805 3.17281 107.805 3.38947V18.5895C107.805 18.6728 107.805 18.7561 107.805 18.8395C107.805 18.9061 107.788 18.9895 107.755 19.0895C107.755 19.2895 107.705 19.4895 107.605 19.6895C107.571 19.7895 107.53 19.8645 107.48 19.9145C107.446 19.9811 107.388 20.0561 107.305 20.1395C107.188 20.2395 107.038 20.3145 106.855 20.3645C106.688 20.4311 106.505 20.4645 106.305 20.4645C106.105 20.4811 105.913 20.4645 105.73 20.4145C105.563 20.3645 105.421 20.2728 105.305 20.1395C105.005 19.8061 104.83 19.4645 104.78 19.1145C104.73 18.7645 104.705 18.3811 104.705 17.9645V14.9645C104.705 14.8145 104.705 14.6561 104.705 14.4895C104.705 14.3228 104.688 14.1478 104.655 13.9645L104.705 10.7895C104.655 10.7728 104.546 10.7645 104.38 10.7645C104.23 10.7645 104.055 10.7645 103.855 10.7645C103.671 10.7645 103.496 10.7645 103.33 10.7645C103.18 10.7645 103.08 10.7561 103.03 10.7395C102.896 10.7395 102.78 10.7395 102.68 10.7395C102.58 10.7395 102.463 10.7228 102.33 10.6895C102.046 10.6895 101.796 10.6228 101.58 10.4895C101.446 10.4395 101.33 10.3811 101.23 10.3145C101.13 10.2478 101.03 10.1728 100.93 10.0895C100.846 9.98947 100.771 9.88947 100.705 9.78947C100.655 9.68947 100.613 9.57281 100.58 9.43947C100.53 9.18947 100.53 8.90614 100.58 8.58947C100.613 8.50614 100.638 8.43114 100.655 8.36447C100.688 8.29781 100.746 8.22281 100.83 8.13947Z" fill="black"/>
<path d="M118.177 3.51447C118.177 3.34781 118.185 3.11447 118.202 2.81447C118.218 2.51447 118.277 2.21447 118.377 1.91447C118.477 1.61447 118.627 1.35614 118.827 1.13947C119.043 0.922807 119.352 0.814473 119.752 0.814473C120.102 0.814473 120.41 0.90614 120.677 1.08947C120.877 1.22281 121.027 1.46447 121.127 1.81447C121.243 2.14781 121.318 2.52281 121.352 2.93947C121.402 3.35614 121.427 3.77281 121.427 4.18947C121.427 4.60614 121.418 4.94781 121.402 5.21447V14.3895C121.402 14.4395 121.402 14.6228 121.402 14.9395C121.402 15.2395 121.385 15.5895 121.352 15.9895C121.318 16.3728 121.26 16.7728 121.177 17.1895C121.11 17.5895 121.01 17.9145 120.877 18.1645C120.827 18.2811 120.743 18.4061 120.627 18.5395C120.527 18.6561 120.452 18.7395 120.402 18.7895C120.268 18.9228 120.118 19.0228 119.952 19.0895C119.802 19.1561 119.643 19.2145 119.477 19.2645C119.31 19.2978 119.16 19.3228 119.027 19.3395C118.893 19.3561 118.802 19.3645 118.752 19.3645H113.502C113.102 19.3645 112.718 19.3311 112.352 19.2645C112.002 19.1978 111.677 19.0478 111.377 18.8145C111.16 18.6478 110.993 18.4395 110.877 18.1895C110.777 17.9228 110.702 17.6645 110.652 17.4145C110.618 17.1645 110.602 16.9395 110.602 16.7395C110.602 16.5228 110.602 16.3895 110.602 16.3395V3.26447C110.602 3.03114 110.627 2.77281 110.677 2.48947C110.743 2.20614 110.835 1.94781 110.952 1.71447C111.085 1.46447 111.252 1.26447 111.452 1.11447C111.652 0.947807 111.902 0.864474 112.202 0.864474C113.035 0.864474 113.577 1.22281 113.827 1.93947C113.91 2.17281 113.96 2.40614 113.977 2.63947C113.993 2.87281 114.01 3.10614 114.027 3.33947V3.38947C114.027 3.50614 114.027 3.79781 114.027 4.26447C114.027 4.73114 114.027 5.23947 114.027 5.78947C114.027 6.33947 114.027 6.86447 114.027 7.36447C114.043 7.86447 114.052 8.21447 114.052 8.41447C114.135 8.41447 114.352 8.41447 114.702 8.41447C115.052 8.41447 115.443 8.41447 115.877 8.41447C116.327 8.41447 116.76 8.40614 117.177 8.38947C117.593 8.37281 117.91 8.33947 118.127 8.28947L118.177 6.83947V3.51447ZM127.852 18.1895C127.818 18.3895 127.793 18.5895 127.777 18.7895C127.76 18.9728 127.718 19.1645 127.652 19.3645C127.618 19.4311 127.593 19.4895 127.577 19.5395C127.56 19.5895 127.535 19.6478 127.502 19.7145C127.385 19.9478 127.235 20.1311 127.052 20.2645C126.668 20.4978 126.243 20.5561 125.777 20.4395C125.51 20.3895 125.293 20.2895 125.127 20.1395C124.977 20.0061 124.86 19.8311 124.777 19.6145C124.71 19.4145 124.652 19.2145 124.602 19.0145C124.568 18.8145 124.552 18.6395 124.552 18.4895C124.552 18.3395 124.552 18.2561 124.552 18.2395V3.08947C124.552 2.88947 124.552 2.67281 124.552 2.43947C124.552 2.20614 124.568 1.97281 124.602 1.73947C124.635 1.50614 124.685 1.28947 124.752 1.08947C124.818 0.889474 124.91 0.731141 125.027 0.614474C125.21 0.43114 125.402 0.322807 125.602 0.289474C125.802 0.239474 126.018 0.214474 126.252 0.214474C126.535 0.214474 126.793 0.297807 127.027 0.464473C127.277 0.614473 127.452 0.83114 127.552 1.11447C127.702 1.46447 127.785 1.83114 127.802 2.21447C127.818 2.59781 127.835 2.98114 127.852 3.36447V3.48947C127.885 4.77281 127.893 6.08947 127.877 7.43947C127.86 8.78947 127.852 10.0645 127.852 11.2645V17.2895C127.852 17.4395 127.852 17.5895 127.852 17.7395C127.868 17.8895 127.868 18.0395 127.852 18.1895ZM118.177 16.3145L118.152 11.4395L113.827 11.4645C113.81 11.8145 113.802 12.1978 113.802 12.6145C113.818 13.0311 113.827 13.4145 113.827 13.7645C113.827 13.8978 113.827 14.0811 113.827 14.3145C113.827 14.5478 113.827 14.7978 113.827 15.0645C113.827 15.3311 113.827 15.5811 113.827 15.8145C113.827 16.0478 113.827 16.2228 113.827 16.3395L118.177 16.3145Z" fill="black"/>
<path d="M135.4 11.5145C135.216 11.6478 135.025 11.7978 134.825 11.9645C134.641 12.1311 134.45 12.3061 134.25 12.4895C134.05 12.6561 133.841 12.8145 133.625 12.9645C133.408 13.1145 133.166 13.2228 132.9 13.2895C132.6 13.3728 132.275 13.3645 131.925 13.2645C131.575 13.1645 131.308 12.9895 131.125 12.7395C130.991 12.5395 130.925 12.3395 130.925 12.1395C130.925 11.9395 130.958 11.7478 131.025 11.5645C131.108 11.3645 131.208 11.1728 131.325 10.9895C131.441 10.8061 131.566 10.6395 131.7 10.4895C132.2 9.90614 132.708 9.35614 133.225 8.83947C133.758 8.30614 134.308 7.78947 134.875 7.28947C135.058 7.13947 135.266 6.93947 135.5 6.68947C135.733 6.42281 135.95 6.16447 136.15 5.91447C136.383 5.61447 136.625 5.31447 136.875 5.01447C136.875 4.71447 136.883 4.41447 136.9 4.11447C136.916 3.86447 136.925 3.58947 136.925 3.28947C136.941 2.98947 136.966 2.72281 137 2.48947C137.033 2.18947 137.108 1.90614 137.225 1.63947C137.341 1.37281 137.466 1.17281 137.6 1.03947C137.816 0.839474 138.108 0.714474 138.475 0.664474C138.841 0.597807 139.158 0.60614 139.425 0.689473C139.808 0.806141 140.083 1.00614 140.25 1.28947C140.433 1.57281 140.541 1.90614 140.575 2.28947C140.591 2.43947 140.6 2.64781 140.6 2.91447C140.616 3.18114 140.633 3.45614 140.65 3.73947C140.683 4.00614 140.716 4.26447 140.75 4.51447C140.8 4.76447 140.875 4.95614 140.975 5.08947C141.108 5.28947 141.233 5.48114 141.35 5.66447C141.483 5.84781 141.633 6.03114 141.8 6.21447C142.383 6.86447 142.958 7.52281 143.525 8.18947C144.091 8.83947 144.675 9.48114 145.275 10.1145C145.475 10.3145 145.666 10.5645 145.85 10.8645C146.033 11.1645 146.158 11.4728 146.225 11.7895C146.308 12.0895 146.3 12.3811 146.2 12.6645C146.116 12.9311 145.9 13.1478 145.55 13.3145C145.3 13.4311 145.058 13.4811 144.825 13.4645C144.591 13.4311 144.366 13.3645 144.15 13.2645C143.933 13.1478 143.725 13.0061 143.525 12.8395C143.341 12.6728 143.175 12.5061 143.025 12.3395L138.825 8.36447L135.4 11.5145ZM131.675 18.7395C131.408 18.7228 131.141 18.6895 130.875 18.6395C130.625 18.5728 130.4 18.4895 130.2 18.3895C130 18.2728 129.833 18.1145 129.7 17.9145C129.583 17.7145 129.525 17.4478 129.525 17.1145C129.525 16.7811 129.633 16.4895 129.85 16.2395C129.983 16.1061 130.15 16.0061 130.35 15.9395C130.55 15.8728 130.741 15.8228 130.925 15.7895C131.108 15.7561 131.266 15.7395 131.4 15.7395C131.55 15.7395 131.633 15.7395 131.65 15.7395L145.325 15.7645C145.758 15.7645 146.15 15.7728 146.5 15.7895C146.866 15.7895 147.191 15.9061 147.475 16.1395C147.825 16.4561 148 16.8145 148 17.2145C148 17.4645 147.925 17.6978 147.775 17.9145C147.625 18.1145 147.425 18.2561 147.175 18.3395C146.841 18.4728 146.491 18.5645 146.125 18.6145C145.775 18.6645 145.425 18.6978 145.075 18.7145C143.858 18.7645 142.658 18.7811 141.475 18.7645C140.291 18.7478 139.141 18.7395 138.025 18.7395C136.825 18.7395 135.65 18.7478 134.5 18.7645C133.366 18.7811 132.425 18.7728 131.675 18.7395Z" fill="black"/>
</svg>
