<svg width="131" height="21" viewBox="0 0 131 21" fill="none" xmlns="http://www.w3.org/2000/svg">
<path d="M17.175 2.55C17.1583 2.68333 17.15 2.79167 17.15 2.875C17.15 2.95833 17.15 3.03333 17.15 3.1V4.45C17.15 4.7 17.15 4.95833 17.15 5.225C17.15 5.49167 17.1583 5.76667 17.175 6.05V7.675C17.1583 7.95833 17.15 8.20833 17.15 8.425C17.15 8.64167 17.1333 8.85833 17.1 9.075C17.05 9.54167 16.8917 9.91667 16.625 10.2C16.375 10.4833 16.0083 10.6583 15.525 10.725C15.375 10.7583 15.2333 10.7833 15.1 10.8C14.9833 10.8 14.8583 10.8 14.725 10.8H13.975C13.825 10.8 13.6583 10.8083 13.475 10.825C13.2917 10.825 13.0667 10.825 12.8 10.825C12.5333 10.825 12.2667 10.825 12 10.825C11.7333 10.825 11.4667 10.8167 11.2 10.8H4.525C4.34167 10.8 4.15833 10.8 3.975 10.8C3.80833 10.7833 3.65 10.7583 3.5 10.725C3.31667 10.725 3.14167 10.7 2.975 10.65C2.80833 10.5833 2.66667 10.4917 2.55 10.375C2.38333 10.2417 2.23333 10.0333 2.1 9.75C2.05 9.61667 2 9.48333 1.95 9.35C1.91667 9.21667 1.89167 9.08333 1.875 8.95C1.84167 8.85 1.80833 8.73333 1.775 8.6C1.75833 8.46667 1.75 8.35 1.75 8.25V3.325C1.75 3.175 1.73333 3.01667 1.7 2.85C1.66667 2.66667 1.65 2.5 1.65 2.35C1.63333 2.16667 1.63333 2 1.65 1.85C1.66667 1.68333 1.71667 1.51667 1.8 1.35C1.83333 1.15 1.88333 0.983334 1.95 0.850001C2.01667 0.700001 2.10833 0.608334 2.225 0.575C2.30833 0.491667 2.43333 0.433334 2.6 0.400001C2.76667 0.366667 2.95 0.333334 3.15 0.300001C3.28333 0.300001 3.43333 0.316667 3.6 0.35C3.76667 0.383334 3.925 0.416667 4.075 0.45C4.475 0.583334 4.68333 0.800001 4.7 1.1V2.2C4.7 2.35 4.7 2.49167 4.7 2.625C4.71667 2.74167 4.725 2.85833 4.725 2.975C4.725 3.10833 4.73333 3.23333 4.75 3.35C4.78333 3.46667 4.89167 3.525 5.075 3.525H13.825C13.8583 3.525 13.9083 3.51667 13.975 3.5C14.0583 3.48333 14.1333 3.46667 14.2 3.45V3.1C14.2333 2.96667 14.25 2.85 14.25 2.75C14.25 2.65 14.25 2.55 14.25 2.45V1.4C14.25 1.25 14.2583 1.10833 14.275 0.975001C14.3083 0.825001 14.3667 0.708334 14.45 0.625001C14.5 0.541668 14.575 0.475001 14.675 0.425C14.7917 0.375 14.925 0.333334 15.075 0.300001C15.1583 0.283334 15.3083 0.275001 15.525 0.275001H16.025C16.2083 0.275001 16.3667 0.308334 16.5 0.375001C16.85 0.491667 17.05 0.7 17.1 1C17.1333 1.13333 17.15 1.26667 17.15 1.4C17.15 1.51667 17.1583 1.63333 17.175 1.75V2.55ZM16.825 12.85C16.9917 12.85 17.1417 12.8667 17.275 12.9C17.4083 12.9333 17.5417 12.9833 17.675 13.05C17.8917 13.1333 18.0917 13.2833 18.275 13.5C18.4083 13.6833 18.475 13.9667 18.475 14.35C18.475 14.5667 18.45 14.75 18.4 14.9C18.35 15.0333 18.2333 15.1667 18.05 15.3C17.7833 15.5167 17.4667 15.65 17.1 15.7C16.65 15.8 16.225 15.85 15.825 15.85C15.6083 15.85 15.4083 15.8667 15.225 15.9C15.0583 15.9167 14.9083 15.925 14.775 15.925H10.9C10.9333 16.1583 10.95 16.45 10.95 16.8C10.9667 17.1333 10.975 17.3917 10.975 17.575C10.9917 17.925 10.9667 18.3333 10.9 18.8C10.85 19.1 10.7583 19.3833 10.625 19.65C10.575 19.9333 10.4 20.175 10.1 20.375C9.96667 20.475 9.81667 20.5417 9.65 20.575C9.5 20.625 9.35 20.65 9.2 20.65C8.83333 20.65 8.525 20.5583 8.275 20.375C8.04167 20.275 7.88333 20.0917 7.8 19.825C7.73333 19.675 7.675 19.55 7.625 19.45C7.59167 19.3333 7.575 19.2167 7.575 19.1C7.54167 19.0167 7.525 18.925 7.525 18.825C7.525 18.725 7.525 18.625 7.525 18.525V15.925H2.225C2.00833 15.925 1.80833 15.9083 1.625 15.875C1.44167 15.8417 1.275 15.8083 1.125 15.775C0.741667 15.6417 0.458333 15.425 0.275 15.125C0.158333 14.975 0.0833333 14.825 0.05 14.675C0.0166667 14.525 0 14.3583 0 14.175C0 13.8583 0.125 13.5833 0.375 13.35C0.508333 13.2167 0.658333 13.1167 0.825 13.05C0.958333 13 1.05833 12.9667 1.125 12.95C1.20833 12.9333 1.30833 12.925 1.425 12.925C1.525 12.8917 1.61667 12.875 1.7 12.875C1.78333 12.875 1.86667 12.875 1.95 12.875H2.15L15.975 12.8C16.1083 12.8 16.25 12.8 16.4 12.8C16.55 12.8 16.6917 12.8167 16.825 12.85ZM14.15 7.5C14.1833 7.45 14.2 7.325 14.2 7.125C14.2 7.04167 14.2 6.96667 14.2 6.9C14.2 6.83333 14.1833 6.775 14.15 6.725C14.15 6.575 14.1417 6.48333 14.125 6.45C14.0417 6.36667 13.9583 6.31667 13.875 6.3C13.8083 6.26667 13.7333 6.23333 13.65 6.2H8.175L7.15 6.175H6.625C6.54167 6.175 6.45833 6.175 6.375 6.175C6.30833 6.175 6.21667 6.15833 6.1 6.125C5.98333 6.125 5.86667 6.13333 5.75 6.15C5.65 6.15 5.55 6.15 5.45 6.15C5.25 6.15 5.075 6.2 4.925 6.3C4.875 6.35 4.825 6.41667 4.775 6.5C4.74167 6.58333 4.74167 6.69167 4.775 6.825V7.625C4.80833 7.69167 4.825 7.73333 4.825 7.75V7.775C4.825 7.89167 4.89167 8 5.025 8.1C5.10833 8.13333 5.175 8.16667 5.225 8.2C5.29167 8.21667 5.36667 8.225 5.45 8.225C5.61667 8.25833 5.78333 8.25833 5.95 8.225H12.375C12.425 8.225 12.4833 8.23333 12.55 8.25C12.6333 8.25 12.7167 8.24167 12.8 8.225H13.25C13.2833 8.225 13.3167 8.225 13.35 8.225C13.3833 8.225 13.4417 8.23333 13.525 8.25H13.825C13.8583 8.23333 13.9 8.225 13.95 8.225C14 8.20833 14.0417 8.18333 14.075 8.15C14.1083 8.08333 14.125 8.03333 14.125 8C14.1417 7.96667 14.15 7.90833 14.15 7.825V7.5Z" fill="black"/>
<path d="M36.4067 15.85C36.4567 15.8667 36.5067 15.875 36.5567 15.875C36.6067 15.8583 36.6567 15.85 36.7067 15.85C36.99 15.8833 37.2483 15.9417 37.4817 16.025C37.7317 16.0917 37.9733 16.225 38.2067 16.425C38.44 16.6583 38.5567 16.95 38.5567 17.3C38.5567 17.4833 38.5233 17.6833 38.4567 17.9C38.4067 18.1 38.3317 18.2583 38.2317 18.375C38.0983 18.5083 37.9317 18.6083 37.7317 18.675C37.5317 18.7417 37.34 18.7917 37.1567 18.825C36.9733 18.8417 36.8067 18.85 36.6567 18.85C36.5233 18.85 36.4483 18.85 36.4317 18.85H22.4317C22.3483 18.85 22.265 18.8583 22.1817 18.875C22.0983 18.875 22.015 18.875 21.9317 18.875C21.5817 18.8917 21.2067 18.8917 20.8067 18.875C20.4067 18.8417 20.065 18.7083 19.7817 18.475C19.4317 18.1583 19.2567 17.8 19.2567 17.4C19.2567 17.15 19.3317 16.8917 19.4817 16.625C19.6317 16.3583 19.8317 16.175 20.0817 16.075C20.415 15.9417 20.7567 15.875 21.1067 15.875C21.4733 15.875 21.84 15.8667 22.2067 15.85H22.3317C23.7817 15.8167 25.2733 15.8167 26.8067 15.85L26.7817 12.475C26.5817 12.475 26.3817 12.475 26.1817 12.475C25.9817 12.4583 25.7817 12.4417 25.5817 12.425C25.1483 12.3917 24.6817 12.3917 24.1817 12.425C23.6817 12.4417 23.2233 12.4333 22.8067 12.4C22.3733 12.3667 21.9733 12.2667 21.6067 12.1C21.2567 11.9167 21.04 11.5917 20.9567 11.125C20.8733 10.6583 20.815 10.2167 20.7817 9.8C20.765 9.36667 20.7483 8.95 20.7317 8.55C20.7317 8.13333 20.7317 7.71667 20.7317 7.3C20.7483 6.88333 20.7567 6.43333 20.7567 5.95V4.2C20.7567 3.98333 20.7483 3.74167 20.7317 3.475C20.7317 3.20833 20.7483 2.94167 20.7817 2.675C20.8317 2.40833 20.9067 2.16667 21.0067 1.95C21.1233 1.73333 21.2983 1.56667 21.5317 1.45C21.7817 1.33333 22.065 1.24167 22.3817 1.175C22.6983 1.09167 23.015 1.03333 23.3317 1C23.665 0.966667 23.99 0.95 24.3067 0.95C24.64 0.933333 24.9483 0.925 25.2317 0.925H33.2817C33.2983 0.925 33.3983 0.933333 33.5817 0.95C33.7817 0.95 34.015 0.975 34.2817 1.025C34.5483 1.05833 34.815 1.10833 35.0817 1.175C35.365 1.225 35.59 1.3 35.7567 1.4C35.9567 1.51667 36.115 1.70833 36.2317 1.975C36.3483 2.225 36.4317 2.48333 36.4817 2.75C36.5483 3.01667 36.5817 3.25833 36.5817 3.475C36.5983 3.675 36.6067 3.78333 36.6067 3.8V8.625C36.6067 9.00833 36.5983 9.39167 36.5817 9.775C36.5817 10.1583 36.5483 10.5417 36.4817 10.925C36.4483 11.1583 36.39 11.3917 36.3067 11.625C36.2233 11.8583 36.065 12.0333 35.8317 12.15C35.5483 12.2833 35.1817 12.3583 34.7317 12.375C34.2817 12.375 33.9067 12.3667 33.6067 12.35C33.2567 12.35 32.9067 12.3667 32.5567 12.4C32.2067 12.4167 31.8567 12.425 31.5067 12.425H30.2817L30.3317 15.85C30.7983 15.85 31.2067 15.85 31.5567 15.85C31.9067 15.8333 32.24 15.825 32.5567 15.825C32.89 15.825 33.2233 15.825 33.5567 15.825C33.89 15.825 34.2733 15.8333 34.7067 15.85C35.0067 15.8667 35.2983 15.8667 35.5817 15.85C35.865 15.8167 36.14 15.8167 36.4067 15.85ZM31.7317 9.275C31.8817 9.24167 32.0317 9.23333 32.1817 9.25C32.3317 9.26667 32.49 9.24167 32.6567 9.175C32.7567 9.125 32.8317 9.05833 32.8817 8.975C32.9317 8.875 32.9567 8.775 32.9567 8.675C32.9733 8.55833 32.9733 8.44167 32.9567 8.325C32.9567 8.20833 32.9567 8.1 32.9567 8V5.9C32.9567 5.63333 32.9567 5.40833 32.9567 5.225C32.9567 5.025 32.915 4.86667 32.8317 4.75C32.765 4.63333 32.6233 4.55 32.4067 4.5C32.19 4.45 31.8733 4.41667 31.4567 4.4H26.5567C26.5567 4.4 26.49 4.4 26.3567 4.4C26.24 4.4 26.09 4.40833 25.9067 4.425C25.74 4.425 25.565 4.43333 25.3817 4.45C25.1983 4.46667 25.04 4.48333 24.9067 4.5C24.69 4.53333 24.515 4.625 24.3817 4.775C24.2483 4.925 24.1817 5.10833 24.1817 5.325L24.2317 8.675C24.265 8.875 24.3483 9.025 24.4817 9.125C24.6317 9.20833 24.7983 9.26667 24.9817 9.3C25.165 9.33333 25.3483 9.35 25.5317 9.35C25.7317 9.33333 25.9067 9.325 26.0567 9.325L31.7317 9.275Z" fill="black"/>
<path d="M59.7624 20.075C59.6791 20.1083 59.5541 20.125 59.3874 20.125C59.2374 20.1417 59.0207 20.1667 58.7374 20.2H54.6624C54.2624 20.1667 53.8707 20.15 53.4874 20.15C53.1207 20.15 52.7624 20.15 52.4124 20.15H49.6624C49.5124 20.15 49.3457 20.1333 49.1624 20.1C48.9791 20.0833 48.7957 20.0667 48.6124 20.05C48.4291 20.05 48.2541 20.0167 48.0874 19.95C47.9374 19.8833 47.7874 19.8 47.6374 19.7C47.5541 19.6167 47.4707 19.525 47.3874 19.425C47.3041 19.3083 47.2374 19.2 47.1874 19.1C47.1541 19 47.1124 18.8917 47.0624 18.775C47.0124 18.6417 46.9791 18.525 46.9624 18.425C46.9291 18.3083 46.9041 18.2 46.8874 18.1C46.8874 18 46.8707 17.9083 46.8374 17.825V13.775C46.8374 13.5583 46.8874 13.3333 46.9874 13.1C47.0374 12.8667 47.1957 12.7167 47.4624 12.65C47.5291 12.6167 47.5874 12.5917 47.6374 12.575C47.6874 12.5417 47.7541 12.525 47.8374 12.525C47.9207 12.525 47.9957 12.525 48.0624 12.525C48.1291 12.5083 48.1957 12.5 48.2624 12.5C48.4124 12.5 48.5541 12.5083 48.6874 12.525C48.8207 12.5417 48.9707 12.5833 49.1374 12.65C49.4041 12.7167 49.5791 12.9167 49.6624 13.25V13.9C49.7457 14.15 49.8041 14.2667 49.8374 14.25C49.8707 14.25 49.9207 14.25 49.9874 14.25C50.0541 14.25 50.1291 14.2583 50.2124 14.275H60.1374V13.625C60.1374 13.475 60.1624 13.3333 60.2124 13.2C60.2624 13.05 60.3041 12.9333 60.3374 12.85C60.4874 12.6333 60.6957 12.5167 60.9624 12.5C61.0957 12.4667 61.2374 12.45 61.3874 12.45C61.5374 12.4333 61.7041 12.425 61.8874 12.425C62.2207 12.425 62.4791 12.5167 62.6624 12.7C62.8291 12.8667 62.9124 13.05 62.9124 13.25V13.85C62.8624 14.6 62.8624 15.3417 62.9124 16.075C62.9457 16.4583 62.9457 16.8417 62.9124 17.225C62.8957 17.6083 62.8624 17.975 62.8124 18.325C62.8124 18.5917 62.7791 18.8 62.7124 18.95C62.6624 19.0833 62.5541 19.2333 62.3874 19.4C62.3207 19.5167 62.2457 19.6083 62.1624 19.675C62.0791 19.7583 61.9874 19.8333 61.8874 19.9C61.7707 19.9167 61.6457 19.9333 61.5124 19.95C61.3791 19.9833 61.2457 20.0167 61.1124 20.05C60.9791 20.0667 60.8624 20.075 60.7624 20.075C60.6624 20.075 60.5457 20.075 60.4124 20.075H59.7624ZM48.4124 3.95C48.1624 3.95 47.8874 3.9 47.5874 3.8C47.2541 3.71667 47.0041 3.55 46.8374 3.3C46.6874 3.05 46.6041 2.78333 46.5874 2.5C46.5874 2.2 46.6541 1.91667 46.7874 1.65C46.9374 1.36667 47.1541 1.15 47.4374 1C47.6707 0.883333 47.8791 0.791667 48.0624 0.725001C48.2624 0.658334 48.4791 0.625001 48.7124 0.625001C49.3124 0.575001 49.9041 0.55 50.4874 0.55C51.0874 0.533334 51.6957 0.525001 52.3124 0.525001H55.9124C56.6624 0.525001 57.4207 0.533334 58.1874 0.55C58.9541 0.55 59.7291 0.591667 60.5124 0.675C61.0457 0.725001 61.4457 0.875001 61.7124 1.125C61.9791 1.375 62.1624 1.68333 62.2624 2.05C62.3791 2.4 62.4374 2.79167 62.4374 3.225C62.4374 3.65833 62.4457 4.08333 62.4624 4.5C62.4624 4.9 62.4791 5.30833 62.5124 5.725C62.5624 6.14167 62.5291 6.53333 62.4124 6.9C62.2791 7.31667 62.0541 7.56667 61.7374 7.65C61.4374 7.73333 61.0957 7.79167 60.7124 7.825C60.3124 7.825 60.0124 7.725 59.8124 7.525C59.5957 7.30833 59.4624 7.01667 59.4124 6.65C59.3791 6.26667 59.3541 5.89167 59.3374 5.525C59.3374 5.15833 59.3041 4.83333 59.2374 4.55C59.1874 4.25 59.0457 4.075 58.8124 4.025C58.5957 3.94167 58.3874 3.9 58.1874 3.9C57.9541 3.86667 57.7291 3.86667 57.5124 3.9H50.0374C49.9374 3.9 49.8624 3.90833 49.8124 3.925C49.7624 3.94167 49.6957 3.95 49.6124 3.95H48.4124ZM61.5374 8.5C61.7207 8.5 61.8874 8.5 62.0374 8.5C62.1874 8.5 62.3374 8.48333 62.4874 8.45C62.8041 8.45 63.1041 8.49167 63.3874 8.575C63.6541 8.64167 63.8874 8.79167 64.0874 9.025C64.2374 9.225 64.3124 9.55833 64.3124 10.025C64.3124 10.2417 64.2707 10.425 64.1874 10.575C64.1207 10.725 64.0041 10.8833 63.8374 11.05C63.7207 11.1833 63.5707 11.275 63.3874 11.325C63.2207 11.3583 63.0457 11.3917 62.8624 11.425C62.8124 11.425 62.7041 11.425 62.5374 11.425C62.3707 11.425 62.1957 11.425 62.0124 11.425C61.8291 11.4083 61.6457 11.4 61.4624 11.4C61.2957 11.4 61.1791 11.4 61.1124 11.4H47.5874C47.4374 11.4 47.3124 11.4 47.2124 11.4C47.1124 11.4 47.0041 11.3917 46.8874 11.375C46.7541 11.375 46.6374 11.3583 46.5374 11.325C46.4374 11.275 46.3374 11.2417 46.2374 11.225C46.0541 11.1083 45.8874 10.9667 45.7374 10.8C45.7041 10.7 45.6707 10.6 45.6374 10.5C45.6041 10.3833 45.5874 10.2417 45.5874 10.075C45.5874 9.925 45.6041 9.78333 45.6374 9.65C45.6707 9.51667 45.7041 9.40833 45.7374 9.325C45.8541 9.125 46.0041 8.975 46.1874 8.875C46.2707 8.84167 46.3541 8.8 46.4374 8.75C46.5207 8.68333 46.6124 8.63333 46.7124 8.6C46.8457 8.6 46.9541 8.6 47.0374 8.6C47.1374 8.58333 47.2374 8.575 47.3374 8.575C47.4707 8.54167 47.6041 8.525 47.7374 8.525C47.8874 8.50833 48.0624 8.5 48.2624 8.5H49.2124C50.2124 8.46667 51.2207 8.45833 52.2374 8.475C53.2707 8.475 54.3041 8.48333 55.3374 8.5C56.3874 8.56667 57.4207 8.59167 58.4374 8.575C59.4541 8.55833 60.4874 8.53333 61.5374 8.5ZM59.1124 17.925C59.1624 17.925 59.2041 17.9167 59.2374 17.9C59.2874 17.8833 59.3541 17.8917 59.4374 17.925C59.4707 17.925 59.5124 17.925 59.5624 17.925C59.6124 17.9083 59.6791 17.9 59.7624 17.9C59.7957 17.8667 59.8291 17.8417 59.8624 17.825C59.9124 17.8083 59.9541 17.7833 59.9874 17.75C60.0707 17.6667 60.1124 17.5833 60.1124 17.5V17.125C60.1124 17.075 60.1041 17.025 60.0874 16.975C60.0874 16.925 60.0541 16.875 59.9874 16.825C59.9041 16.7417 59.8374 16.6833 59.7874 16.65C59.7374 16.6 59.6707 16.5667 59.5874 16.55H50.6374C50.5541 16.5167 50.4707 16.5083 50.3874 16.525C50.3207 16.5417 50.2457 16.55 50.1624 16.55C50.0791 16.5667 50.0124 16.5833 49.9624 16.6C49.9291 16.6 49.9041 16.6417 49.8874 16.725C49.8374 16.7417 49.7957 16.7833 49.7624 16.85C49.7457 16.9167 49.7374 16.975 49.7374 17.025V17.475C49.7874 17.6083 49.8291 17.7083 49.8624 17.775C49.9124 17.825 49.9791 17.8667 50.0624 17.9H50.6374L59.1124 17.925Z" fill="black"/>
<path d="M80.0882 3.375C80.0882 3.15833 80.0882 2.925 80.0882 2.675C80.1049 2.40833 80.1299 2.15 80.1632 1.9C80.2132 1.63333 80.2716 1.39167 80.3382 1.175C80.4216 0.941666 80.5382 0.75 80.6882 0.6C80.9049 0.383334 81.1716 0.275001 81.4882 0.275001H81.5382C81.9549 0.291667 82.2799 0.416667 82.5132 0.650001C82.7466 0.866667 82.9216 1.13333 83.0382 1.45C83.1716 1.76667 83.2549 2.1 83.2882 2.45C83.3216 2.78333 83.3382 3.08333 83.3382 3.35V18.175C83.3382 18.1917 83.3382 18.275 83.3382 18.425C83.3382 18.5583 83.3216 18.725 83.2882 18.925C83.2549 19.125 83.2049 19.325 83.1382 19.525C83.0716 19.725 82.9632 19.8917 82.8132 20.025C82.6966 20.1417 82.5299 20.2333 82.3132 20.3C82.0966 20.3667 81.8966 20.4 81.7132 20.4C81.3132 20.4 80.9966 20.2667 80.7632 20C80.5466 19.7667 80.4049 19.5417 80.3382 19.325C80.2882 19.0917 80.2466 18.8333 80.2132 18.55C80.2132 18.4 80.2049 18.1833 80.1882 17.9C80.1882 17.6 80.1882 17.2833 80.1882 16.95C80.1882 16.6 80.1882 16.2583 80.1882 15.925C80.1882 15.575 80.1882 15.2833 80.1882 15.05H78.6382C78.2549 15.05 77.9549 14.9917 77.7382 14.875C77.5382 14.7583 77.3966 14.6083 77.3132 14.425C77.2632 14.325 77.2132 14.225 77.1632 14.125C77.1299 14.0083 77.1132 13.8917 77.1132 13.775C77.1132 13.6583 77.1132 13.5583 77.1132 13.475C77.1132 13.3917 77.1299 13.2917 77.1632 13.175C77.1966 13.0417 77.2382 12.9 77.2882 12.75C77.3382 12.6 77.4132 12.4833 77.5132 12.4C77.7299 12.2333 77.9632 12.125 78.2132 12.075C78.4799 12.025 78.7882 12 79.1382 12C79.5049 11.9833 79.8299 11.9583 80.1132 11.925C80.1132 11.8083 80.1132 11.6333 80.1132 11.4C80.1132 11.15 80.1132 10.875 80.1132 10.575C80.1132 10.275 80.1049 9.975 80.0882 9.675C80.0882 9.35833 80.0882 9.05833 80.0882 8.775L78.5882 8.725C78.2716 8.70833 77.9882 8.66667 77.7382 8.6C77.4882 8.53333 77.3216 8.40833 77.2382 8.225C77.1216 7.99167 77.0632 7.76667 77.0632 7.55C77.0632 7.43333 77.0632 7.33333 77.0632 7.25C77.0632 7.16667 77.0799 7.06667 77.1132 6.95C77.1466 6.81667 77.1882 6.68333 77.2382 6.55C77.2882 6.41667 77.3632 6.30833 77.4632 6.225C77.6799 6.05833 77.9132 5.95 78.1632 5.9C78.3466 5.86667 78.5966 5.85 78.9132 5.85C79.2466 5.83333 79.6299 5.80833 80.0632 5.775C80.0632 5.225 80.0632 4.73333 80.0632 4.3C80.0632 3.85 80.0716 3.54167 80.0882 3.375ZM70.9882 0.275001C71.2049 0.275001 71.4132 0.283334 71.6132 0.300001C71.8132 0.316667 72.0132 0.341667 72.2132 0.375001C72.8466 0.475001 73.4049 0.766667 73.8882 1.25C74.2882 1.68333 74.6132 2.18333 74.8632 2.75C75.1299 3.3 75.3382 3.88333 75.4882 4.5C75.6382 5.11667 75.7466 5.75 75.8132 6.4C75.8799 7.03333 75.9299 7.65 75.9632 8.25C75.9966 9.01667 76.0049 9.78333 75.9882 10.55C75.9716 11.3167 75.9216 12.075 75.8382 12.825C75.7549 13.6083 75.6299 14.4 75.4632 15.2C75.3132 15.9833 75.0299 16.6917 74.6132 17.325C74.2632 17.8583 73.8299 18.3 73.3132 18.65C72.7966 18.9833 72.2549 19.2083 71.6882 19.325C71.1716 19.425 70.6466 19.4417 70.1132 19.375C69.5799 19.3083 69.0716 19.1333 68.5882 18.85C68.1382 18.5833 67.7549 18.25 67.4382 17.85C67.1382 17.45 66.8716 16.9833 66.6382 16.45C66.3049 15.65 66.1132 14.825 66.0632 13.975C65.9966 13.275 65.9466 12.575 65.9132 11.875C65.8966 11.175 65.8882 10.475 65.8882 9.775C65.8882 9.29167 65.8882 8.825 65.8882 8.375C65.9049 7.90833 65.9382 7.44167 65.9882 6.975C66.0216 6.59167 66.0632 6.21667 66.1132 5.85C66.1632 5.46667 66.2216 5.09167 66.2882 4.725C66.3549 4.425 66.4132 4.14167 66.4632 3.875C66.5132 3.60833 66.6049 3.33333 66.7382 3.05C66.8716 2.76667 67.0132 2.5 67.1632 2.25C67.3299 2 67.5216 1.775 67.7382 1.575C68.1049 1.20833 68.5132 0.925001 68.9632 0.725001C69.4132 0.525001 69.8799 0.391667 70.3632 0.325C70.4632 0.308334 70.5632 0.300001 70.6632 0.300001C70.7799 0.300001 70.8882 0.291667 70.9882 0.275001ZM70.9132 16C71.2299 16 71.5382 15.9 71.8382 15.7C72.1216 15.5 72.3216 15.2333 72.4382 14.9C72.5549 14.5667 72.6549 14.2 72.7382 13.8C72.8716 13.0333 72.9466 12.2167 72.9632 11.35C72.9799 10.4833 72.9716 9.65 72.9382 8.85C72.9382 8.53333 72.9299 8.2 72.9132 7.85C72.8966 7.48333 72.8632 7.125 72.8132 6.775C72.7799 6.425 72.7216 6.09167 72.6382 5.775C72.5549 5.44167 72.4382 5.15 72.2882 4.9C72.1216 4.61667 71.9216 4.4 71.6882 4.25C71.4549 4.1 71.2049 4.04167 70.9382 4.075C70.6549 4.10833 70.3966 4.20833 70.1632 4.375C69.9299 4.54167 69.7382 4.79167 69.5882 5.125L69.3632 5.65C69.2632 5.96667 69.1882 6.3 69.1382 6.65C69.0882 6.98333 69.0466 7.31667 69.0132 7.65C68.9799 7.98333 68.9549 8.325 68.9382 8.675C68.9216 9.025 68.9132 9.36667 68.9132 9.7C68.9299 10.0333 68.9216 10.3583 68.8882 10.675C68.8716 10.9917 68.8799 11.3167 68.9132 11.65C68.9466 12.0833 68.9882 12.55 69.0382 13.05C69.1049 13.55 69.2049 14.025 69.3382 14.475C69.4716 14.9083 69.6632 15.275 69.9132 15.575C70.1632 15.8583 70.4966 16 70.9132 16Z" fill="black"/>
<path d="M101.32 1.375C102.003 1.375 102.587 1.43333 103.07 1.55C103.553 1.66667 103.937 1.96667 104.22 2.45C104.487 2.9 104.528 3.35 104.345 3.8C104.112 4.26667 103.695 4.54167 103.095 4.625C102.695 4.69167 102.237 4.73333 101.72 4.75C101.203 4.75 100.52 4.73333 99.6701 4.7C99.6535 4.98333 99.6451 5.28333 99.6451 5.6C99.6451 5.9 99.6451 6.18333 99.6451 6.45C99.6451 6.7 99.6451 6.91667 99.6451 7.1C99.6618 7.28333 99.6701 7.4 99.6701 7.45V10.25C99.6701 10.3833 99.6785 10.5667 99.6951 10.8C99.7118 11.0167 99.7285 11.1833 99.7451 11.3C99.8785 11.4333 100.062 11.6333 100.295 11.9C100.528 12.15 100.712 12.3583 100.845 12.525C101.012 12.725 101.178 12.9333 101.345 13.15C101.528 13.3667 101.712 13.6083 101.895 13.875C102.028 14.025 102.145 14.175 102.245 14.325C102.345 14.475 102.437 14.6083 102.52 14.725C102.837 15.175 103.162 15.6667 103.495 16.2C103.828 16.7333 104.053 17.2667 104.17 17.8C104.22 18.0333 104.22 18.2917 104.17 18.575C104.137 18.8417 104.02 19.0667 103.82 19.25C103.537 19.5 103.22 19.625 102.87 19.625C102.487 19.625 102.12 19.525 101.77 19.325C101.42 19.1083 101.137 18.8833 100.92 18.65C100.603 18.3167 100.303 17.9667 100.02 17.6C99.7535 17.2333 99.4868 16.875 99.2201 16.525C99.0368 16.2583 98.8451 16 98.6451 15.75C98.4451 15.4833 98.2368 15.225 98.0201 14.975C97.9868 14.9083 97.9535 14.8667 97.9201 14.85C97.9201 14.8667 97.9118 14.875 97.8951 14.875C97.8951 14.875 97.8951 14.8833 97.8951 14.9C97.8118 15.0333 97.7118 15.1667 97.5951 15.3C97.4951 15.4167 97.4035 15.5417 97.3201 15.675C97.1868 15.825 97.0618 15.9833 96.9451 16.15C96.8451 16.3 96.7451 16.45 96.6451 16.6C96.4118 16.95 96.1785 17.3 95.9451 17.65C95.7118 17.9833 95.4451 18.3 95.1451 18.6C94.4285 19.3167 93.7535 19.675 93.1201 19.675C92.9535 19.675 92.7951 19.65 92.6451 19.6C92.2618 19.5 92.0035 19.2667 91.8701 18.9C91.7368 18.6167 91.6868 18.3083 91.7201 17.975C91.7701 17.6417 91.8535 17.35 91.9701 17.1C92.1035 16.8167 92.2535 16.55 92.4201 16.3C92.5868 16.05 92.7618 15.8 92.9451 15.55C93.0618 15.4 93.1701 15.25 93.2701 15.1C93.3868 14.95 93.4868 14.8 93.5701 14.65C93.7201 14.4 93.9201 14.1083 94.1701 13.775C94.4368 13.425 94.6951 13.0917 94.9451 12.775C95.2118 12.4417 95.4535 12.1417 95.6701 11.875C95.8868 11.6083 96.0368 11.4167 96.1201 11.3V4.7H94.5951C93.9618 4.7 93.5201 4.7 93.2701 4.7C93.0368 4.68333 92.8618 4.65833 92.7451 4.625C92.1118 4.525 91.6868 4.16667 91.4701 3.55C91.2868 3.01667 91.3535 2.55 91.6701 2.15C91.9535 1.75 92.3535 1.5 92.8701 1.4C92.9535 1.38333 93.0368 1.375 93.1201 1.375C93.2035 1.35833 93.2951 1.35 93.3951 1.35C93.5618 1.35 93.6785 1.35833 93.7451 1.375H101.32ZM109.745 18.225C109.712 18.425 109.687 18.625 109.67 18.825C109.653 19.0083 109.612 19.2 109.545 19.4C109.512 19.4667 109.487 19.525 109.47 19.575C109.453 19.625 109.428 19.6833 109.395 19.75C109.278 19.9833 109.128 20.1667 108.945 20.3C108.562 20.5333 108.137 20.5917 107.67 20.475C107.403 20.425 107.187 20.325 107.02 20.175C106.87 20.0417 106.753 19.8667 106.67 19.65C106.603 19.45 106.545 19.25 106.495 19.05C106.462 18.85 106.445 18.675 106.445 18.525C106.445 18.375 106.445 18.2917 106.445 18.275V3.1C106.445 2.9 106.445 2.68333 106.445 2.45C106.445 2.21667 106.462 1.98333 106.495 1.75C106.528 1.51667 106.578 1.3 106.645 1.1C106.712 0.9 106.803 0.741667 106.92 0.625001C107.103 0.441667 107.295 0.333334 107.495 0.300001C107.695 0.25 107.912 0.225 108.145 0.225C108.428 0.225 108.687 0.308333 108.92 0.475C109.17 0.625 109.345 0.841667 109.445 1.125C109.595 1.475 109.678 1.84167 109.695 2.225C109.712 2.60833 109.728 2.99167 109.745 3.375V3.5C109.778 4.78333 109.787 6.1 109.77 7.45C109.753 8.8 109.745 10.075 109.745 11.275V17.325C109.745 17.475 109.745 17.625 109.745 17.775C109.762 17.925 109.762 18.075 109.745 18.225Z" fill="black"/>
<path d="M118.541 0.0249997C119.391 0.075 120.158 0.208334 120.841 0.425C121.541 0.625001 122.125 0.916668 122.591 1.3C123.075 1.68333 123.433 2.15 123.666 2.7C123.916 3.25 124.008 3.875 123.941 4.575C123.825 5.775 123.3 6.7 122.366 7.35C121.433 8 120.166 8.325 118.566 8.325C118.133 8.325 117.716 8.325 117.316 8.325C116.933 8.30833 116.55 8.28333 116.166 8.25C115.783 8.2 115.408 8.125 115.041 8.025C114.675 7.925 114.3 7.78333 113.916 7.6C113.183 7.21667 112.683 6.71667 112.416 6.1C112.166 5.46667 112.041 4.825 112.041 4.175C112.041 2.74167 112.6 1.69167 113.716 1.025C114.85 0.358333 116.458 0.0249997 118.541 0.0249997ZM129.091 17.6C129.108 17.6 129.166 17.6167 129.266 17.65C129.366 17.6833 129.475 17.7417 129.591 17.825C129.725 17.8917 129.841 17.9917 129.941 18.125C130.058 18.2417 130.133 18.3833 130.166 18.55C130.266 19.1833 130.166 19.675 129.866 20.025C129.683 20.2583 129.483 20.4 129.266 20.45C129.05 20.5 128.933 20.525 128.916 20.525H115.866C115.233 20.525 114.733 20.4167 114.366 20.2C114 20 113.816 19.7083 113.816 19.325V17.1C113.783 16.7333 113.783 16.3583 113.816 15.975C113.85 15.625 113.983 15.3417 114.216 15.125C114.45 14.9083 114.741 14.8 115.091 14.8C115.175 14.8 115.283 14.8083 115.416 14.825C115.566 14.825 115.683 14.8417 115.766 14.875C115.983 14.9417 116.15 15.0417 116.266 15.175C116.383 15.3083 116.475 15.4667 116.541 15.65C116.608 15.8167 116.65 16 116.666 16.2C116.683 16.3833 116.7 16.5667 116.716 16.75C116.716 16.8833 116.725 17.025 116.741 17.175C116.758 17.3083 116.783 17.4333 116.816 17.55C116.85 17.5667 117 17.5917 117.266 17.625C117.55 17.6417 117.983 17.65 118.566 17.65C119.066 17.65 119.508 17.6417 119.891 17.625C120.291 17.6083 120.5 17.6 120.516 17.6H129.091ZM129.691 12.825C129.675 12.925 129.65 13.0583 129.616 13.225C129.6 13.375 129.575 13.5333 129.541 13.7C129.525 13.8667 129.5 14.025 129.466 14.175C129.433 14.3083 129.4 14.425 129.366 14.525C129.283 14.725 129.15 14.9083 128.966 15.075C128.783 15.1917 128.583 15.2583 128.366 15.275C128.166 15.2917 127.975 15.2833 127.791 15.25C127.675 15.2167 127.566 15.1917 127.466 15.175C127.383 15.1583 127.3 15.1083 127.216 15.025C126.766 14.575 126.566 13.9417 126.616 13.125L126.666 8.275C126.066 8.275 125.5 8.23333 124.966 8.15C124.433 8.05 124.066 7.85833 123.866 7.575C123.75 7.40833 123.691 7.21667 123.691 7C123.691 6.78333 123.741 6.575 123.841 6.375C123.941 6.15833 124.075 5.98333 124.241 5.85C124.408 5.7 124.591 5.61667 124.791 5.6C124.991 5.6 125.258 5.59167 125.591 5.575C125.925 5.55833 126.283 5.55 126.666 5.55V2.8C126.666 2.61667 126.666 2.40833 126.666 2.175C126.666 1.94167 126.675 1.71667 126.691 1.5C126.725 1.26667 126.775 1.05 126.841 0.850001C126.908 0.650001 126.991 0.491667 127.091 0.375001C127.275 0.191667 127.458 0.0833337 127.641 0.0500008C127.825 0.0166669 128.016 0 128.216 0C128.8 0 129.2 0.283334 129.416 0.850001C129.55 1.21667 129.625 1.58333 129.641 1.95C129.658 2.31667 129.675 2.69167 129.691 3.075V3.2C129.725 4.46667 129.733 5.725 129.716 6.975C129.7 8.20833 129.691 9.41667 129.691 10.6V12.825ZM120.041 12.325C120.058 13.075 120.016 13.7167 119.916 14.25C119.833 14.7833 119.6 15.1667 119.216 15.4C119.016 15.5167 118.783 15.5917 118.516 15.625C118.266 15.6417 118.016 15.6167 117.766 15.55C117.533 15.4833 117.325 15.3833 117.141 15.25C116.975 15.1 116.883 14.925 116.866 14.725C116.833 14.5083 116.808 14.1833 116.791 13.75C116.791 13.3167 116.791 12.8333 116.791 12.3C116.375 12.2833 115.875 12.2667 115.291 12.25C114.708 12.2167 114.2 12.2 113.766 12.2C113.533 12.1667 113.3 12.1333 113.066 12.1C112.833 12.05 112.616 11.9167 112.416 11.7C112.216 11.5 112.116 11.2083 112.116 10.825C112.116 10.475 112.216 10.1833 112.416 9.95C112.533 9.81667 112.675 9.71667 112.841 9.65C113.025 9.58333 113.2 9.53333 113.366 9.5C113.533 9.46667 113.675 9.45 113.791 9.45C113.925 9.45 114 9.45 114.016 9.45H122.566C122.9 9.41667 123.241 9.41667 123.591 9.45C123.958 9.48333 124.266 9.61667 124.516 9.85C124.833 10.1667 124.991 10.525 124.991 10.925C124.991 11.175 124.925 11.4083 124.791 11.625C124.658 11.825 124.475 11.9667 124.241 12.05C123.941 12.1833 123.608 12.2667 123.241 12.3C122.891 12.3333 122.558 12.3417 122.241 12.325H120.041ZM120.691 4.675C120.775 4.19167 120.675 3.79167 120.391 3.475C120.125 3.14167 119.725 2.9 119.191 2.75C118.841 2.65 118.441 2.59167 117.991 2.575C117.558 2.54167 117.133 2.56667 116.716 2.65C116.316 2.73333 115.966 2.88333 115.666 3.1C115.366 3.3 115.183 3.58333 115.116 3.95C115.016 4.45 115.125 4.88333 115.441 5.25C115.775 5.61667 116.425 5.84167 117.391 5.925C117.725 5.95833 118.066 5.975 118.416 5.975C118.766 5.975 119.091 5.94167 119.391 5.875C119.708 5.79167 119.975 5.675 120.191 5.525C120.425 5.35833 120.583 5.125 120.666 4.825L120.691 4.675Z" fill="black"/>
</svg>
