<svg width="107" height="21" viewBox="0 0 107 21" fill="none" xmlns="http://www.w3.org/2000/svg">
<path d="M11.2 16.55C11.25 16.6333 11.2917 16.725 11.325 16.825C11.375 16.9083 11.4167 17.0083 11.45 17.125C11.5 17.3083 11.5333 17.5083 11.55 17.725C11.5667 17.9417 11.5167 18.1667 11.4 18.4C11.1333 18.9167 10.7667 19.1917 10.3 19.225H10.275C9.975 19.225 9.70833 19.125 9.475 18.925C9.25833 18.725 9.025 18.4833 8.775 18.2C8.525 17.9333 8.3 17.6667 8.1 17.4C7.9 17.1333 7.71667 16.8917 7.55 16.675C7.53333 16.6417 7.50833 16.6083 7.475 16.575C7.45833 16.525 7.43333 16.4667 7.4 16.4C6.98333 15.7667 6.675 15.325 6.475 15.075C6.275 14.825 6.15833 14.6917 6.125 14.675C6.09167 14.7083 6.00833 14.8 5.875 14.95C5.75833 15.0833 5.68333 15.1667 5.65 15.2C5.61667 15.25 5.58333 15.3 5.55 15.35C5.51667 15.3833 5.48333 15.4167 5.45 15.45C5.3 15.6167 5.175 15.7917 5.075 15.975C4.99167 16.1417 4.88333 16.3167 4.75 16.5C4.61667 16.6833 4.475 16.8583 4.325 17.025C4.19167 17.1917 4.05 17.3583 3.9 17.525C3.83333 17.5917 3.76667 17.675 3.7 17.775C3.45 18.0583 3.18333 18.3333 2.9 18.6C2.63333 18.8667 2.31667 19.0667 1.95 19.2C1.8 19.2667 1.63333 19.3 1.45 19.3C1.06667 19.3 0.725 19.15 0.425 18.85C0.141667 18.5667 0 18.2167 0 17.8C0.0166667 17.5 0.0916667 17.2167 0.225 16.95C0.375 16.6833 0.516667 16.4333 0.65 16.2L0.7 16.1C0.75 16.0167 0.8 15.9417 0.85 15.875C0.9 15.8083 0.95 15.7417 1 15.675C1.03333 15.625 1.05833 15.5833 1.075 15.55C1.10833 15.5 1.14167 15.4583 1.175 15.425C1.375 15.125 1.55 14.8833 1.7 14.7C1.73333 14.6667 1.75 14.6417 1.75 14.625C1.76667 14.5917 1.79167 14.5583 1.825 14.525C1.85833 14.4583 1.89167 14.4167 1.925 14.4L1.975 14.325C2.04167 14.2417 2.1 14.1667 2.15 14.1C2.2 14.0167 2.25 13.9333 2.3 13.85C2.41667 13.6667 2.51667 13.5 2.6 13.35C2.7 13.1833 2.79167 13.025 2.875 12.875C2.975 12.6917 3.075 12.5167 3.175 12.35C3.275 12.1667 3.39167 11.9917 3.525 11.825C3.60833 11.6917 3.69167 11.5583 3.775 11.425C3.875 11.2917 3.96667 11.1583 4.05 11.025L4.15 10.875C4.26667 10.6917 4.35 10.5333 4.4 10.4C4.46667 10.25 4.50833 10.0833 4.525 9.9C4.55833 9.63333 4.575 9.375 4.575 9.125C4.575 8.85833 4.575 8.575 4.575 8.275V4.15C4.575 3.98333 4.575 3.825 4.575 3.675C4.575 3.525 4.58333 3.36667 4.6 3.2C4.6 3.01667 4.61667 2.83333 4.65 2.65C4.68333 2.46667 4.725 2.3 4.775 2.15C4.85833 1.93333 4.96667 1.71667 5.1 1.5C5.18333 1.36667 5.3 1.26667 5.45 1.2C5.61667 1.13333 5.79167 1.08333 5.975 1.05L6.025 1.025C6.15833 0.991666 6.275 0.983333 6.375 1C6.49167 1 6.61667 1.025 6.75 1.075C6.91667 1.14167 7.04167 1.21667 7.125 1.3C7.20833 1.36667 7.275 1.45833 7.325 1.575C7.375 1.69167 7.425 1.81667 7.475 1.95C7.625 2.26667 7.725 2.675 7.775 3.175C7.84167 3.875 7.88333 4.61667 7.9 5.4C7.91667 6.16667 7.925 6.9 7.925 7.6C7.94167 8.03333 7.95 8.46667 7.95 8.9C7.95 9.31667 7.96667 9.73333 8 10.15C8.01667 10.5167 8.10833 10.8583 8.275 11.175C8.45833 11.4917 8.64167 11.8083 8.825 12.125C9.00833 12.4917 9.2 12.8583 9.4 13.225C9.6 13.575 9.80833 13.925 10.025 14.275C10.1083 14.4417 10.1917 14.6083 10.275 14.775C10.375 14.925 10.475 15.0833 10.575 15.25C10.6083 15.3333 10.6417 15.4083 10.675 15.475C10.725 15.5417 10.7667 15.6083 10.8 15.675C10.8333 15.7583 10.875 15.85 10.925 15.95C10.975 16.0333 11.0167 16.1167 11.05 16.2L11.125 16.4L11.2 16.55ZM17.5 18.65C17.4667 18.85 17.4417 19.05 17.425 19.25C17.4083 19.4333 17.3667 19.625 17.3 19.825C17.2667 19.8917 17.2417 19.95 17.225 20C17.2083 20.05 17.1833 20.1083 17.15 20.175C17.0333 20.4083 16.8833 20.5917 16.7 20.725C16.3167 20.9583 15.8917 21.0167 15.425 20.9C15.1583 20.85 14.9417 20.75 14.775 20.6C14.625 20.4667 14.5083 20.2917 14.425 20.075C14.3583 19.875 14.3 19.675 14.25 19.475C14.2167 19.275 14.2 19.1 14.2 18.95C14.2 18.8 14.2 18.7167 14.2 18.7V3.25C14.2 3.05 14.2 2.83333 14.2 2.6C14.2 2.36667 14.2167 2.13333 14.25 1.9C14.2833 1.66667 14.3333 1.45 14.4 1.25C14.4667 1.05 14.5583 0.891667 14.675 0.775C14.8583 0.591667 15.05 0.483333 15.25 0.45C15.45 0.4 15.6667 0.375 15.9 0.375C16.1833 0.375 16.4417 0.458333 16.675 0.624999C16.925 0.774999 17.1 0.991666 17.2 1.275C17.35 1.625 17.4333 1.99167 17.45 2.375C17.4667 2.75833 17.4833 3.14167 17.5 3.525V3.65C17.5333 4.93333 17.5417 6.25 17.525 7.6C17.5083 8.95 17.5 10.225 17.5 11.425V17.75C17.5 17.9 17.5 18.05 17.5 18.2C17.5167 18.35 17.5167 18.5 17.5 18.65Z" fill="black"/>
<path d="M23.8731 20.4C23.1897 20.4 22.6397 20.25 22.2231 19.95C21.8064 19.6667 21.5981 19.3333 21.5981 18.95V15.35C21.5647 14.9833 21.5647 14.6083 21.5981 14.225C21.6314 13.875 21.7647 13.5917 21.9981 13.375C22.2481 13.1583 22.5647 13.05 22.9481 13.05C23.0314 13.05 23.1814 13.0583 23.3981 13.075C23.6147 13.075 23.7647 13.0917 23.8481 13.125C24.0647 13.1917 24.2314 13.2917 24.3481 13.425C24.4814 13.5583 24.5814 13.7167 24.6481 13.9C24.7147 14.0667 24.7564 14.25 24.7731 14.45C24.7897 14.6333 24.8064 14.8167 24.8231 15C24.8231 15.0667 24.8231 15.225 24.8231 15.475C24.8397 15.7083 24.8481 15.9667 24.8481 16.25C24.8647 16.5167 24.8731 16.7667 24.8731 17C24.8897 17.2333 24.9064 17.375 24.9231 17.425C24.9731 17.4417 25.1064 17.4667 25.3231 17.5C25.5564 17.5167 25.9814 17.525 26.5981 17.525C27.1314 17.525 27.4564 17.5167 27.5731 17.5C27.7064 17.4833 27.7814 17.475 27.7981 17.475H35.9731C35.9731 17.475 36.0231 17.4917 36.1231 17.525C36.2397 17.5583 36.3648 17.6167 36.4981 17.7C36.6314 17.7667 36.7564 17.8667 36.8731 18C36.9897 18.1167 37.0647 18.2583 37.0981 18.425C37.1814 19.0583 37.0731 19.55 36.7731 19.9C36.5731 20.1333 36.3564 20.275 36.1231 20.325C35.8897 20.375 35.7647 20.4 35.7481 20.4H23.8731ZM26.9231 0.825C27.0731 0.825 27.2147 0.825 27.3481 0.825C27.4981 0.825 27.6397 0.841667 27.7731 0.875001C28.0064 0.958334 28.2314 1.05833 28.4481 1.175C28.6814 1.29167 28.8731 1.45 29.0231 1.65C29.1731 1.86667 29.2897 2.14167 29.3731 2.475C29.4564 2.79167 29.4981 3.08333 29.4981 3.35C29.4981 4.06667 29.5064 4.78333 29.5231 5.5C29.5397 6.21667 29.5314 6.93333 29.4981 7.65C29.4981 7.88333 29.4981 8.13333 29.4981 8.4C29.4981 8.65 29.4897 8.90833 29.4731 9.175C29.4731 9.425 29.4481 9.675 29.3981 9.925C29.3481 10.1583 29.2731 10.375 29.1731 10.575C29.0397 10.8083 28.8647 10.9917 28.6481 11.125C28.4314 11.2583 28.1981 11.3417 27.9481 11.375C27.7147 11.4083 27.4814 11.3833 27.2481 11.3C27.0147 11.2167 26.8314 11.0583 26.6981 10.825C26.5481 10.575 26.4397 10.3083 26.3731 10.025C26.3064 9.725 26.2647 9.41667 26.2481 9.1C26.2314 8.78333 26.2314 8.46667 26.2481 8.15C26.2647 7.83333 26.2731 7.53333 26.2731 7.25C26.2731 6.83333 26.2647 6.4 26.2481 5.95C26.2481 5.5 26.2314 5.06667 26.1981 4.65C26.1814 4.45 26.1314 4.30833 26.0481 4.225C25.9647 4.125 25.8647 4.05833 25.7481 4.025C25.6314 3.99167 25.4981 3.975 25.3481 3.975C25.1981 3.975 25.0397 3.96667 24.8731 3.95C24.7064 3.95 24.5897 3.95 24.5231 3.95C24.4564 3.95 24.3981 3.95 24.3481 3.95C24.2981 3.95 24.2397 3.95833 24.1731 3.975C24.1064 3.975 23.9897 3.975 23.8231 3.975H22.7481C22.2147 3.975 21.6564 3.96667 21.0731 3.95C20.4897 3.93333 19.8897 3.88333 19.2731 3.8C19.0397 3.76667 18.8647 3.675 18.7481 3.525C18.6481 3.375 18.5731 3.2 18.5231 3C18.4897 2.8 18.4731 2.59167 18.4731 2.375C18.4897 2.15833 18.5147 1.975 18.5481 1.825C18.6147 1.50833 18.7897 1.25833 19.0731 1.075C19.2564 0.941667 19.4481 0.875001 19.6481 0.875001C19.8647 0.858333 20.0814 0.841666 20.2981 0.825C20.5314 0.791667 20.7647 0.783334 20.9981 0.8C21.2314 0.816667 21.4647 0.825 21.6981 0.825H26.9231ZM36.5731 8.125V10.4C36.5564 10.5833 36.5314 10.775 36.4981 10.975C36.4648 11.1583 36.3981 11.3417 36.2981 11.525C36.1814 11.7417 36.0397 11.9 35.8731 12C35.6064 12.1833 35.3314 12.275 35.0481 12.275C34.7981 12.275 34.5648 12.2083 34.3481 12.075C34.1814 11.975 34.0481 11.85 33.9481 11.7C33.8481 11.55 33.7647 11.4083 33.6981 11.275C33.6481 11.1417 33.6148 11.025 33.5981 10.925C33.5814 10.8083 33.5731 10.75 33.5731 10.75V2.5C33.5731 2.41667 33.5814 2.23333 33.5981 1.95C33.6314 1.65 33.6981 1.4 33.7981 1.2C33.9648 0.85 34.3064 0.65 34.8231 0.6C35.1064 0.566667 35.3648 0.583334 35.5981 0.650001C35.8481 0.716666 36.0398 0.824999 36.1731 0.974999C36.2731 1.10833 36.3398 1.24167 36.3731 1.375C36.4231 1.49167 36.4648 1.61667 36.4981 1.75C36.5481 1.91667 36.5731 2.09167 36.5731 2.275C36.5897 2.45833 36.5897 2.64167 36.5731 2.825V5.325C36.6397 5.325 36.7647 5.33333 36.9481 5.35C37.1314 5.36667 37.3231 5.38333 37.5231 5.4C37.7397 5.4 37.9398 5.40833 38.1231 5.425C38.3064 5.44167 38.4314 5.45833 38.4981 5.475C38.8314 5.54167 39.0647 5.64167 39.1981 5.775C39.3314 5.89167 39.4231 6.04167 39.4731 6.225C39.5064 6.40833 39.5231 6.625 39.5231 6.875C39.5231 7.10833 39.4731 7.30833 39.3731 7.475C39.1731 7.80833 38.8731 8 38.4731 8.05C38.0731 8.1 37.6314 8.125 37.1481 8.125H36.5731Z" fill="black"/>
<path d="M54.7091 17.3C54.7091 17.7167 54.6924 18.05 54.6591 18.3C54.6424 18.55 54.5674 18.8667 54.4341 19.25C54.3507 19.5 54.2091 19.7083 54.0091 19.875C53.8091 20.0417 53.5257 20.125 53.1591 20.125C53.0591 20.125 52.9341 20.1083 52.7841 20.075C52.6341 20.0583 52.5174 20.0167 52.4341 19.95C52.2674 19.85 52.1341 19.6917 52.0341 19.475C51.9507 19.2417 51.8841 19 51.8341 18.75C51.7841 18.5 51.7507 18.2583 51.7341 18.025C51.7341 17.7917 51.7341 17.6083 51.7341 17.475V11.175L49.8341 11.15C49.6841 11.15 49.5257 11.1333 49.3591 11.1C49.2091 11.05 49.0591 10.9833 48.9091 10.9C48.7757 10.8 48.6591 10.675 48.5591 10.525C48.4591 10.3583 48.4007 10.15 48.3841 9.9C48.3507 9.6 48.3674 9.30833 48.4341 9.025C48.5174 8.74167 48.7507 8.50833 49.1341 8.325C49.2841 8.24167 49.4674 8.175 49.6841 8.125C49.9174 8.075 50.1174 8.05 50.2841 8.05H51.7341V3C51.7341 2.78333 51.7341 2.56667 51.7341 2.35C51.7341 2.11667 51.7591 1.89167 51.8091 1.675C51.8424 1.59167 51.8674 1.51667 51.8841 1.45C51.9174 1.38333 51.9507 1.30833 51.9841 1.225C52.0841 1.05833 52.1841 0.933333 52.2841 0.849999C52.3841 0.75 52.5257 0.666667 52.7091 0.6C52.7924 0.566667 52.8757 0.55 52.9591 0.55C53.0591 0.533334 53.1507 0.525001 53.2341 0.525001C53.7841 0.525001 54.2007 0.775 54.4841 1.275C54.5507 1.375 54.5924 1.51667 54.6091 1.7C54.6424 1.88333 54.6674 2.075 54.6841 2.275C54.7007 2.45833 54.7091 2.625 54.7091 2.775C54.7091 2.90833 54.7091 2.99167 54.7091 3.025V17.3ZM58.7341 19.425C58.6341 19.6417 58.4757 19.825 58.2591 19.975C58.0757 20.0917 57.9091 20.1583 57.7591 20.175C57.6257 20.2083 57.4507 20.2 57.2341 20.15C56.9841 20.1 56.7757 19.9917 56.6091 19.825C56.4591 19.675 56.3424 19.5 56.2591 19.3C56.1757 19.1 56.1174 18.8833 56.0841 18.65C56.0507 18.4167 56.0341 18.1917 56.0341 17.975V3.275C56.0341 3.09167 56.0341 2.88333 56.0341 2.65C56.0341 2.4 56.0507 2.16667 56.0841 1.95C56.1174 1.71667 56.1591 1.5 56.2091 1.3C56.2757 1.1 56.3674 0.941667 56.4841 0.825C56.6674 0.658333 56.8174 0.558334 56.9341 0.525001C57.0674 0.475 57.2507 0.45 57.4841 0.45C57.7674 0.45 58.0257 0.533333 58.2591 0.7C58.4924 0.85 58.6591 1.05833 58.7591 1.325C58.9091 1.675 58.9924 2.03333 59.0091 2.4C59.0257 2.76667 59.0424 3.14167 59.0591 3.525V3.65C59.0924 4.91667 59.1007 6.13333 59.0841 7.3C59.0674 8.45 59.0591 9.61667 59.0591 10.8V17.05C59.0591 17.4833 59.0424 17.9 59.0091 18.3C58.9924 18.7 58.9007 19.075 58.7341 19.425ZM43.6591 4.6C43.3924 4.6 43.1257 4.6 42.8591 4.6C42.5924 4.6 42.3424 4.6 42.1091 4.6C41.8924 4.58333 41.7007 4.575 41.5341 4.575C41.3674 4.55833 41.2591 4.55 41.2091 4.55C40.7091 4.41667 40.3507 4.05833 40.1341 3.475C40.0174 2.99167 40.0757 2.575 40.3091 2.225C40.5757 1.825 40.9091 1.575 41.3091 1.475C41.3591 1.475 41.4924 1.475 41.7091 1.475C41.9257 1.45833 42.1591 1.45 42.4091 1.45C42.6591 1.45 42.8841 1.45 43.0841 1.45C43.3007 1.45 43.4257 1.45 43.4591 1.45H48.0091C48.5757 1.45 49.0341 1.50833 49.3841 1.625C49.7507 1.74167 50.0507 2.04167 50.2841 2.525C50.4007 2.75833 50.4674 2.96667 50.4841 3.15C50.5174 3.31667 50.4924 3.50833 50.4091 3.725C50.1924 4.19167 49.8341 4.46667 49.3341 4.55C49.1674 4.58333 49.0091 4.60833 48.8591 4.625C48.7091 4.625 48.5341 4.63333 48.3341 4.65C48.1507 4.65 47.9341 4.65 47.6841 4.65C47.4341 4.63333 47.1341 4.61667 46.7841 4.6C46.7841 4.65 46.7841 4.83333 46.7841 5.15C46.7841 5.46667 46.7841 5.85 46.7841 6.3C46.8007 6.73333 46.8007 7.20833 46.7841 7.725C46.7841 8.24167 46.7841 8.725 46.7841 9.175C46.8007 9.60833 46.8091 9.98333 46.8091 10.3C46.8091 10.6 46.8091 10.7667 46.8091 10.8C46.8591 10.8667 46.9091 10.9667 46.9591 11.1C47.0257 11.2167 47.0924 11.35 47.1591 11.5C47.2257 11.6333 47.2924 11.7667 47.3591 11.9C47.4257 12.0333 47.4841 12.1417 47.5341 12.225C47.6674 12.4083 47.8007 12.6333 47.9341 12.9C48.0841 13.1667 48.2424 13.4333 48.4091 13.7C48.5091 13.85 48.6007 14 48.6841 14.15C48.7674 14.2833 48.8507 14.4167 48.9341 14.55C49.2007 14.9833 49.4757 15.4167 49.7591 15.85C50.0424 16.2833 50.2424 16.7583 50.3591 17.275C50.3924 17.5083 50.4007 17.7667 50.3841 18.05C50.3674 18.3167 50.2757 18.5417 50.1091 18.725C49.8757 18.9583 49.6007 19.075 49.2841 19.075C48.9674 19.075 48.6674 18.975 48.3841 18.775C48.1007 18.575 47.8674 18.3583 47.6841 18.125C47.4174 17.7917 47.1674 17.45 46.9341 17.1C46.7007 16.7333 46.4757 16.375 46.2591 16.025C46.0924 15.775 45.9007 15.4917 45.6841 15.175C45.4841 14.8583 45.3007 14.5833 45.1341 14.35C45.0507 14.4833 44.9674 14.625 44.8841 14.775C44.8174 14.925 44.7424 15.0667 44.6591 15.2C44.5591 15.35 44.4424 15.5 44.3091 15.65C44.1757 15.8 44.0591 15.95 43.9591 16.1C43.7757 16.4333 43.5841 16.775 43.3841 17.125C43.2007 17.4583 42.9757 17.775 42.7091 18.075C42.4257 18.425 42.1591 18.6917 41.9091 18.875C41.6591 19.0417 41.4007 19.125 41.1341 19.125C41.0674 19.125 41.0007 19.125 40.9341 19.125C40.8841 19.125 40.8174 19.1083 40.7341 19.075C40.4174 18.9417 40.2007 18.7083 40.0841 18.375C39.9841 18.0917 39.9757 17.7833 40.0591 17.45C40.1424 17.1167 40.2424 16.8333 40.3591 16.6C40.4591 16.3167 40.5757 16.05 40.7091 15.8C40.8591 15.55 41.0091 15.3083 41.1591 15.075C41.2424 14.925 41.3257 14.775 41.4091 14.625C41.5091 14.475 41.6007 14.325 41.6841 14.175C41.8007 13.925 41.9507 13.6417 42.1341 13.325C42.3341 12.9917 42.5341 12.6667 42.7341 12.35C42.9341 12.0167 43.1174 11.7167 43.2841 11.45C43.4507 11.1833 43.5757 11 43.6591 10.9V4.6Z" fill="black"/>
<path d="M83.9287 16.025C83.9787 16.0417 84.0287 16.05 84.0787 16.05C84.1287 16.0333 84.1787 16.025 84.2287 16.025C84.512 16.0583 84.7703 16.1167 85.0037 16.2C85.2537 16.2667 85.4953 16.4 85.7287 16.6C85.962 16.8333 86.0787 17.125 86.0787 17.475C86.0787 17.6583 86.0453 17.8583 85.9787 18.075C85.9287 18.275 85.8537 18.4333 85.7537 18.55C85.6203 18.6833 85.4537 18.7833 85.2537 18.85C85.0537 18.9167 84.862 18.9667 84.6787 19C84.4953 19.0167 84.3287 19.025 84.1787 19.025C84.0453 19.025 83.9703 19.025 83.9537 19.025H69.9537C69.8703 19.025 69.787 19.0333 69.7037 19.05C69.6203 19.05 69.537 19.05 69.4537 19.05C69.1037 19.0667 68.7287 19.0667 68.3287 19.05C67.9287 19.0167 67.587 18.8833 67.3037 18.65C66.9537 18.3333 66.7787 17.975 66.7787 17.575C66.7787 17.325 66.8537 17.0667 67.0037 16.8C67.1537 16.5333 67.3537 16.35 67.6037 16.25C67.937 16.1167 68.2787 16.05 68.6287 16.05C68.9953 16.05 69.362 16.0417 69.7287 16.025H69.8537C71.3037 15.9917 72.7953 15.9917 74.3287 16.025L74.3037 12.575C73.6703 12.5917 73.0953 12.6 72.5787 12.6C72.0787 12.6 71.6787 12.5833 71.3787 12.55C71.0287 12.5333 70.6453 12.5083 70.2287 12.475C69.812 12.425 69.462 12.2917 69.1787 12.075C68.9953 11.925 68.8453 11.7167 68.7287 11.45C68.6287 11.1833 68.5537 10.9167 68.5037 10.65C68.4537 10.3833 68.4203 10.15 68.4037 9.95C68.4037 9.73333 68.4037 9.61667 68.4037 9.6V4.225C68.4037 3.89167 68.387 3.55833 68.3537 3.225C68.337 2.89167 68.362 2.55833 68.4287 2.225C68.4787 2.025 68.562 1.86667 68.6787 1.75C68.812 1.61667 68.962 1.51667 69.1287 1.45C69.312 1.36667 69.5037 1.30833 69.7037 1.275C69.9203 1.24167 70.1203 1.21667 70.3037 1.2C70.4537 1.2 70.612 1.20833 70.7787 1.225C70.9453 1.24167 71.1037 1.28333 71.2537 1.35C71.4037 1.4 71.5287 1.48333 71.6287 1.6C71.7453 1.7 71.8203 1.83333 71.8537 2C71.8703 2.08333 71.8703 2.24167 71.8537 2.475C71.8537 2.70833 71.8537 2.96667 71.8537 3.25C71.8537 3.51667 71.8537 3.775 71.8537 4.025C71.8703 4.25833 71.8953 4.40833 71.9287 4.475C71.962 4.55833 72.0453 4.61667 72.1787 4.65C72.3287 4.66667 72.4453 4.68333 72.5287 4.7C72.912 4.73333 73.212 4.74167 73.4287 4.725C73.6453 4.69167 73.9453 4.675 74.3287 4.675L80.0537 4.7C80.237 4.71667 80.387 4.71667 80.5037 4.7C80.637 4.66667 80.7287 4.55833 80.7787 4.375C80.7787 4.29167 80.7787 4.15 80.7787 3.95C80.7953 3.73333 80.8037 3.51667 80.8037 3.3C80.8037 3.06667 80.8037 2.85833 80.8037 2.675C80.8203 2.475 80.8287 2.34167 80.8287 2.275C80.8453 1.975 80.9037 1.74167 81.0037 1.575C81.1203 1.39167 81.337 1.26667 81.6537 1.2C81.987 1.11667 82.3453 1.1 82.7287 1.15C83.1287 1.18333 83.4203 1.29167 83.6037 1.475C83.8703 1.75833 84.0203 2.08333 84.0537 2.45C84.087 2.81667 84.1037 3.325 84.1037 3.975C84.087 4.35833 84.0787 4.85833 84.0787 5.475C84.0953 6.075 84.1037 6.7 84.1037 7.35C84.1037 8 84.0953 8.625 84.0787 9.225C84.0787 9.825 84.062 10.3167 84.0287 10.7C83.9453 11.7167 83.4203 12.3 82.4537 12.45C82.2037 12.4833 81.9203 12.5 81.6037 12.5C81.3037 12.5 81.0287 12.5 80.7787 12.5C80.2453 12.5167 79.7203 12.525 79.2037 12.525C78.687 12.525 78.1787 12.525 77.6787 12.525L77.7287 16.025C78.1453 16.025 78.537 16.025 78.9037 16.025C79.287 16.0083 79.6537 16 80.0037 16C80.3537 16 80.712 16 81.0787 16C81.4453 16 81.8287 16.0083 82.2287 16.025C82.5287 16.0417 82.8203 16.0417 83.1037 16.025C83.387 15.9917 83.662 15.9917 83.9287 16.025ZM71.9287 9.35C71.9953 9.6 72.1703 9.75 72.4537 9.8C72.7537 9.83333 73.0453 9.85833 73.3287 9.875C73.362 9.875 73.5203 9.875 73.8037 9.875C74.087 9.85833 74.4287 9.85 74.8287 9.85C75.2287 9.85 75.6537 9.85 76.1037 9.85C76.5703 9.83333 77.0037 9.825 77.4037 9.825C77.8203 9.825 78.1703 9.83333 78.4537 9.85C78.737 9.85 78.9037 9.85 78.9537 9.85C79.087 9.86667 79.2203 9.875 79.3537 9.875C79.5037 9.85833 79.6453 9.85833 79.7787 9.875C79.862 9.875 79.9537 9.88333 80.0537 9.9C80.1703 9.91667 80.2787 9.91667 80.3787 9.9C80.4787 9.88333 80.562 9.84167 80.6287 9.775C80.6953 9.70833 80.7287 9.60833 80.7287 9.475C80.7287 9.40833 80.7287 9.30833 80.7287 9.175C80.7287 9.025 80.7287 8.86667 80.7287 8.7C80.7287 8.51667 80.7203 8.34167 80.7037 8.175C80.7037 7.99167 80.687 7.84167 80.6537 7.725C80.6037 7.525 80.5203 7.41667 80.4037 7.4C80.3037 7.36667 80.1703 7.35833 80.0037 7.375C79.9203 7.375 79.787 7.38333 79.6037 7.4C79.437 7.4 79.312 7.39167 79.2287 7.375H73.5287C73.3787 7.375 73.212 7.375 73.0287 7.375C72.8453 7.35833 72.6703 7.36667 72.5037 7.4C72.3537 7.41667 72.2203 7.475 72.1037 7.575C71.987 7.65833 71.9203 7.8 71.9037 8C71.9037 8.05 71.9037 8.14167 71.9037 8.275C71.9037 8.40833 71.9037 8.55 71.9037 8.7C71.9037 8.85 71.9037 8.99167 71.9037 9.125C71.9203 9.24167 71.9287 9.31667 71.9287 9.35Z" fill="black"/>
<path d="M89.641 17.425C89.6243 17.425 89.5577 17.4083 89.441 17.375C89.341 17.3417 89.2243 17.2917 89.091 17.225C88.9577 17.1583 88.8327 17.0667 88.716 16.95C88.5993 16.8333 88.5327 16.6833 88.516 16.5C88.416 15.8833 88.516 15.3833 88.816 15C89.016 14.7667 89.2327 14.6333 89.466 14.6C89.6993 14.55 89.8243 14.525 89.841 14.525H91.791C91.7743 14.4917 91.766 14.425 91.766 14.325C91.7327 13.9917 91.7243 13.6583 91.741 13.325C91.7743 12.9917 91.791 12.6583 91.791 12.325L88.366 12.175C88.0993 12.1417 87.8827 12.1083 87.716 12.075C87.566 12.025 87.3827 11.9 87.166 11.7C87.0493 11.6 86.966 11.4667 86.916 11.3C86.866 11.1333 86.841 10.9583 86.841 10.775C86.841 10.425 86.9493 10.1417 87.166 9.925C87.2827 9.79167 87.441 9.69167 87.641 9.625C87.841 9.55833 88.0327 9.50833 88.216 9.475C88.3993 9.44167 88.5577 9.425 88.691 9.425C88.841 9.425 88.9243 9.425 88.941 9.425H103.241C103.491 9.425 103.741 9.425 103.991 9.425C104.241 9.425 104.483 9.43333 104.716 9.45C104.949 9.46667 105.174 9.5 105.391 9.55C105.624 9.6 105.833 9.70833 106.016 9.875C106.199 10.0083 106.299 10.1583 106.316 10.325C106.349 10.4917 106.366 10.675 106.366 10.875C106.366 11.125 106.291 11.35 106.141 11.55C106.008 11.75 105.816 11.8917 105.566 11.975C105.233 12.1083 104.866 12.1917 104.466 12.225C104.083 12.2417 103.716 12.2583 103.366 12.275C103.183 12.2917 102.958 12.3 102.691 12.3C102.424 12.3 102.133 12.3083 101.816 12.325C101.783 12.6917 101.766 13.0583 101.766 13.425C101.783 13.775 101.791 14.1417 101.791 14.525H102.241C102.258 14.525 102.274 14.525 102.291 14.525C102.308 14.5083 102.333 14.5 102.366 14.5C103.049 14.5 103.574 14.6083 103.941 14.825C104.324 15.0417 104.516 15.3417 104.516 15.725V17.425C104.516 17.5083 104.516 17.6 104.516 17.7C104.533 17.7833 104.541 17.8667 104.541 17.95C104.541 18.0333 104.541 18.1583 104.541 18.325C104.541 18.4917 104.541 18.6667 104.541 18.85C104.541 19.0167 104.541 19.1833 104.541 19.35C104.541 19.5167 104.533 19.65 104.516 19.75C104.483 20.1 104.341 20.3833 104.091 20.6C103.858 20.8167 103.549 20.925 103.166 20.925C102.983 20.925 102.808 20.9 102.641 20.85C102.408 20.7833 102.224 20.6833 102.091 20.55C101.974 20.4167 101.883 20.2667 101.816 20.1C101.766 19.9333 101.724 19.7583 101.691 19.575C101.674 19.375 101.666 19.1833 101.666 19C101.666 18.9333 101.658 18.825 101.641 18.675C101.641 18.525 101.633 18.375 101.616 18.225C101.616 18.0583 101.608 17.9083 101.591 17.775C101.591 17.6417 101.583 17.5417 101.566 17.475C101.516 17.4583 101.374 17.4417 101.141 17.425C100.924 17.4083 100.508 17.4 99.891 17.4C99.6077 17.4 99.3577 17.4083 99.141 17.425C98.9243 17.425 98.7243 17.425 98.541 17.425H89.641ZM96.666 8.25C95.466 8.25 94.341 8.20833 93.291 8.125C92.2577 8.04167 91.3577 7.85833 90.591 7.575C89.841 7.275 89.2493 6.85833 88.816 6.325C88.3827 5.775 88.166 5.04167 88.166 4.125C88.166 3.29167 88.3827 2.60833 88.816 2.075C89.2493 1.54167 89.841 1.125 90.591 0.825C91.3577 0.508333 92.2577 0.291666 93.291 0.174999C94.341 0.0583331 95.466 0 96.666 0C97.866 0 98.9827 0.0416666 100.016 0.125C101.066 0.208333 101.966 0.391667 102.716 0.675C103.483 0.958333 104.083 1.375 104.516 1.925C104.949 2.45833 105.166 3.19167 105.166 4.125C105.166 5.04167 104.949 5.775 104.516 6.325C104.083 6.85833 103.483 7.275 102.716 7.575C101.966 7.85833 101.066 8.04167 100.016 8.125C98.9827 8.20833 97.866 8.25 96.666 8.25ZM96.666 2.8C96.0493 2.8 95.4327 2.80833 94.816 2.825C94.216 2.84167 93.6743 2.9 93.191 3C92.7077 3.08333 92.316 3.21667 92.016 3.4C91.716 3.56667 91.566 3.80833 91.566 4.125C91.566 4.69167 92.016 5.075 92.916 5.275C93.8327 5.45833 95.0827 5.53333 96.666 5.5C97.2827 5.5 97.891 5.5 98.491 5.5C99.1077 5.48333 99.6577 5.44167 100.141 5.375C100.624 5.29167 101.016 5.15833 101.316 4.975C101.616 4.775 101.766 4.49167 101.766 4.125C101.766 3.80833 101.616 3.56667 101.316 3.4C101.016 3.21667 100.624 3.08333 100.141 3C99.6577 2.9 99.1077 2.84167 98.491 2.825C97.891 2.80833 97.2827 2.8 96.666 2.8ZM95.241 12.375C95.2743 12.7417 95.266 13.0833 95.216 13.4C95.1827 13.7167 95.166 14.0917 95.166 14.525H98.391V14.375C98.3577 14.125 98.341 13.8167 98.341 13.45C98.3577 13.0667 98.3743 12.7083 98.391 12.375H95.241Z" fill="black"/>
</svg>
