<svg width="210" height="22" viewBox="0 0 210 22" fill="none" xmlns="http://www.w3.org/2000/svg">
<path d="M0.427778 5.05C0.211111 4.85 0.102778 4.55 0.102778 4.15C0.119444 3.96667 0.152778 3.79167 0.202778 3.625C0.252778 3.44167 0.344444 3.28333 0.477778 3.15C0.844444 2.81667 1.23611 2.625 1.65278 2.575C2.06944 2.525 2.51944 2.48333 3.00278 2.45C3.38611 2.43333 3.72778 2.43333 4.02778 2.45C4.32778 2.45 4.66944 2.45 5.05278 2.45C5.63611 2.45 6.26944 2.45833 6.95278 2.475C7.65278 2.49167 8.31111 2.51667 8.92778 2.55C9.17778 2.56667 9.42778 2.6 9.67778 2.65C9.92778 2.7 10.1528 2.79167 10.3528 2.925C10.5528 3.04167 10.7111 3.2 10.8278 3.4C10.9611 3.58333 11.0361 3.81667 11.0528 4.1C11.0694 4.43333 11.0194 4.75 10.9028 5.05C10.8028 5.35 10.6611 5.64167 10.4778 5.925C10.2944 6.19167 10.0861 6.45 9.85278 6.7C9.63611 6.93333 9.42778 7.15 9.22778 7.35C8.86111 7.73333 8.44445 8.14167 7.97778 8.575C7.51111 9.00833 7.09444 9.41667 6.72778 9.8C7.37778 9.88333 8.00278 10.0333 8.60278 10.25C9.21944 10.4667 9.76111 10.7667 10.2278 11.15C10.6944 11.5333 11.0611 12.0167 11.3278 12.6C11.6111 13.1667 11.7528 13.85 11.7528 14.65C11.7528 15.45 11.5944 16.1917 11.2778 16.875C10.9778 17.5583 10.5528 18.1583 10.0028 18.675C9.45278 19.175 8.80278 19.5667 8.05278 19.85C7.30278 20.1333 6.47778 20.275 5.57778 20.275C5.19444 20.275 4.77778 20.2417 4.32778 20.175C3.89444 20.1083 3.46111 20.0083 3.02778 19.875C2.59444 19.7417 2.17778 19.575 1.77778 19.375C1.39444 19.1583 1.06111 18.9 0.777778 18.6C0.577778 18.4 0.402778 18.1667 0.252778 17.9C0.119444 17.6167 0.0361111 17.3333 0.00277779 17.05C-0.0138889 16.75 0.0444444 16.4833 0.177778 16.25C0.311111 16 0.544445 15.8167 0.877778 15.7C1.12778 15.6167 1.36944 15.5833 1.60278 15.6C1.83611 15.6167 2.06111 15.675 2.27778 15.775C2.49444 15.8583 2.70278 15.9583 2.90278 16.075C3.11944 16.1917 3.32778 16.3083 3.52778 16.425C4.14444 16.8083 4.78611 17.0333 5.45278 17.1C6.13611 17.1667 6.80278 17.0083 7.45278 16.625C7.81944 16.4083 8.08611 16.1417 8.25278 15.825C8.41945 15.4917 8.48611 15.1583 8.45278 14.825C8.43611 14.4917 8.32778 14.175 8.12778 13.875C7.94444 13.575 7.68611 13.325 7.35278 13.125C7.03611 12.9417 6.68611 12.8167 6.30278 12.75C5.91944 12.6833 5.53611 12.6167 5.15278 12.55C4.76944 12.4833 4.40278 12.3917 4.05278 12.275C3.70278 12.1583 3.40278 11.9583 3.15278 11.675C2.86944 11.3583 2.77778 11.0167 2.87778 10.65C2.97778 10.2833 3.16111 9.925 3.42778 9.575C3.71111 9.225 4.01944 8.89167 4.35278 8.575C4.70278 8.25833 4.97778 7.99167 5.17778 7.775C5.29444 7.65833 5.42778 7.51667 5.57778 7.35C5.74444 7.18333 5.89444 7.01667 6.02778 6.85C6.17778 6.68333 6.30278 6.525 6.40278 6.375C6.51944 6.20833 6.59444 6.05833 6.62778 5.925C6.67778 5.79167 6.65278 5.7 6.55278 5.65C6.45278 5.58333 6.32778 5.55 6.17778 5.55C6.02778 5.53333 5.86111 5.53333 5.67778 5.55C5.51111 5.55 5.37778 5.55 5.27778 5.55H3.60278C3.36944 5.55 3.11111 5.55833 2.82778 5.575C2.54444 5.575 2.25278 5.56667 1.95278 5.55C1.66944 5.51667 1.38611 5.46667 1.10278 5.4C0.836111 5.33333 0.611111 5.21667 0.427778 5.05Z" fill="black"/>
<path d="M26.7905 9.025L29.5905 9.05C29.8739 9 30.0822 9.01667 30.2155 9.1C30.3655 9.18333 30.5572 9.31667 30.7905 9.5C31.0239 9.68333 31.1405 9.94167 31.1405 10.275C31.1405 10.4417 31.1072 10.6167 31.0405 10.8C30.9905 10.9833 30.9155 11.1167 30.8155 11.2C30.6822 11.3333 30.5405 11.4333 30.3905 11.5C30.2405 11.55 30.0905 11.5917 29.9405 11.625C29.8072 11.6417 29.6905 11.65 29.5905 11.65C29.5072 11.65 29.4572 11.65 29.4405 11.65H26.7905V14.55C26.8405 14.8333 26.8239 15.125 26.7405 15.425C26.6572 15.7083 26.5239 15.9667 26.3405 16.2C26.1572 16.4333 25.8989 16.55 25.5655 16.55C25.3989 16.55 25.1822 16.525 24.9155 16.475C24.6489 16.4083 24.4739 16.325 24.3905 16.225C24.2572 16.0917 24.1572 15.925 24.0905 15.725C24.0405 15.5083 23.9989 15.3 23.9655 15.1C23.9489 14.9 23.9405 14.7333 23.9405 14.6C23.9405 14.45 23.9405 14.3667 23.9405 14.35L23.9155 11.675H21.8155C21.6322 11.675 21.4739 11.6833 21.3405 11.7C21.2239 11.7 21.1072 11.6917 20.9905 11.675C20.8905 11.6417 20.7905 11.6 20.6905 11.55C20.5905 11.5 20.4739 11.4167 20.3405 11.3C19.9905 11.05 19.8155 10.7417 19.8155 10.375C19.8155 10.1417 19.8822 9.91667 20.0155 9.7C20.1655 9.46667 20.3739 9.30833 20.6405 9.225C20.8072 9.175 20.9405 9.13333 21.0405 9.1C21.1572 9.06667 21.2572 9.04167 21.3405 9.025C21.4405 9.00833 21.5405 9 21.6405 9C21.7572 8.98333 21.9072 8.975 22.0905 8.975L23.9155 9V7.075C23.8989 6.69167 23.8989 6.3 23.9155 5.9C23.9322 5.48333 24.0572 5.13333 24.2905 4.85C24.4239 4.66667 24.6072 4.525 24.8405 4.425C25.0739 4.325 25.2822 4.275 25.4655 4.275C25.6989 4.275 25.9239 4.35833 26.1405 4.525C26.3739 4.675 26.5322 4.88333 26.6155 5.15C26.7322 5.5 26.7822 5.85833 26.7655 6.225C26.7655 6.59167 26.7739 6.96667 26.7905 7.35V9.025Z" fill="black"/>
<path d="M39.8812 5.05C39.6646 4.85 39.5562 4.55 39.5562 4.15C39.5729 3.96667 39.6062 3.79167 39.6562 3.625C39.7062 3.44167 39.7979 3.28333 39.9312 3.15C40.2979 2.81667 40.6896 2.625 41.1062 2.575C41.5229 2.525 41.9729 2.48333 42.4562 2.45C42.8396 2.43333 43.1812 2.43333 43.4812 2.45C43.7812 2.45 44.1229 2.45 44.5062 2.45C45.0896 2.45 45.7229 2.45833 46.4062 2.475C47.1062 2.49167 47.7646 2.51667 48.3812 2.55C48.6312 2.56667 48.8812 2.6 49.1312 2.65C49.3812 2.7 49.6062 2.79167 49.8062 2.925C50.0062 3.04167 50.1646 3.2 50.2812 3.4C50.4146 3.58333 50.4896 3.81667 50.5062 4.1C50.5229 4.43333 50.4729 4.75 50.3562 5.05C50.2562 5.35 50.1146 5.64167 49.9312 5.925C49.7479 6.19167 49.5396 6.45 49.3062 6.7C49.0896 6.93333 48.8812 7.15 48.6812 7.35C48.3146 7.73333 47.8979 8.14167 47.4312 8.575C46.9646 9.00833 46.5479 9.41667 46.1812 9.8C46.8312 9.88333 47.4562 10.0333 48.0562 10.25C48.6729 10.4667 49.2146 10.7667 49.6812 11.15C50.1479 11.5333 50.5146 12.0167 50.7812 12.6C51.0646 13.1667 51.2062 13.85 51.2062 14.65C51.2062 15.45 51.0479 16.1917 50.7312 16.875C50.4312 17.5583 50.0062 18.1583 49.4562 18.675C48.9062 19.175 48.2562 19.5667 47.5062 19.85C46.7562 20.1333 45.9312 20.275 45.0312 20.275C44.6479 20.275 44.2312 20.2417 43.7812 20.175C43.3479 20.1083 42.9146 20.0083 42.4812 19.875C42.0479 19.7417 41.6312 19.575 41.2312 19.375C40.8479 19.1583 40.5146 18.9 40.2312 18.6C40.0312 18.4 39.8562 18.1667 39.7062 17.9C39.5729 17.6167 39.4896 17.3333 39.4562 17.05C39.4396 16.75 39.4979 16.4833 39.6312 16.25C39.7646 16 39.9979 15.8167 40.3312 15.7C40.5812 15.6167 40.8229 15.5833 41.0562 15.6C41.2896 15.6167 41.5146 15.675 41.7312 15.775C41.9479 15.8583 42.1562 15.9583 42.3562 16.075C42.5729 16.1917 42.7812 16.3083 42.9812 16.425C43.5979 16.8083 44.2396 17.0333 44.9062 17.1C45.5896 17.1667 46.2562 17.0083 46.9062 16.625C47.2729 16.4083 47.5396 16.1417 47.7062 15.825C47.8729 15.4917 47.9396 15.1583 47.9062 14.825C47.8896 14.4917 47.7812 14.175 47.5812 13.875C47.3979 13.575 47.1396 13.325 46.8062 13.125C46.4896 12.9417 46.1396 12.8167 45.7562 12.75C45.3729 12.6833 44.9896 12.6167 44.6062 12.55C44.2229 12.4833 43.8562 12.3917 43.5062 12.275C43.1562 12.1583 42.8562 11.9583 42.6062 11.675C42.3229 11.3583 42.2312 11.0167 42.3312 10.65C42.4312 10.2833 42.6146 9.925 42.8812 9.575C43.1646 9.225 43.4729 8.89167 43.8062 8.575C44.1562 8.25833 44.4312 7.99167 44.6312 7.775C44.7479 7.65833 44.8812 7.51667 45.0312 7.35C45.1979 7.18333 45.3479 7.01667 45.4812 6.85C45.6312 6.68333 45.7562 6.525 45.8562 6.375C45.9729 6.20833 46.0479 6.05833 46.0812 5.925C46.1312 5.79167 46.1062 5.7 46.0062 5.65C45.9062 5.58333 45.7812 5.55 45.6312 5.55C45.4812 5.53333 45.3146 5.53333 45.1312 5.55C44.9646 5.55 44.8312 5.55 44.7312 5.55H43.0562C42.8229 5.55 42.5646 5.55833 42.2812 5.575C41.9979 5.575 41.7062 5.56667 41.4062 5.55C41.1229 5.51667 40.8396 5.46667 40.5562 5.4C40.2896 5.33333 40.0646 5.21667 39.8812 5.05Z" fill="black"/>
<path d="M75.919 3.3C75.9023 3.43333 75.894 3.54167 75.894 3.625C75.894 3.70833 75.894 3.78333 75.894 3.85V5.2C75.894 5.45 75.894 5.70833 75.894 5.975C75.894 6.24167 75.9023 6.51667 75.919 6.8V8.425C75.9023 8.70833 75.894 8.95833 75.894 9.175C75.894 9.39167 75.8773 9.60833 75.844 9.825C75.794 10.2917 75.6357 10.6667 75.369 10.95C75.119 11.2333 74.7523 11.4083 74.269 11.475C74.119 11.5083 73.9773 11.5333 73.844 11.55C73.7273 11.55 73.6023 11.55 73.469 11.55H72.719C72.569 11.55 72.4023 11.5583 72.219 11.575C72.0357 11.575 71.8107 11.575 71.544 11.575C71.2773 11.575 71.0107 11.575 70.744 11.575C70.4773 11.575 70.2107 11.5667 69.944 11.55H63.269C63.0857 11.55 62.9023 11.55 62.719 11.55C62.5523 11.5333 62.394 11.5083 62.244 11.475C62.0607 11.475 61.8857 11.45 61.719 11.4C61.5523 11.3333 61.4107 11.2417 61.294 11.125C61.1273 10.9917 60.9773 10.7833 60.844 10.5C60.794 10.3667 60.744 10.2333 60.694 10.1C60.6607 9.96667 60.6357 9.83333 60.619 9.7C60.5857 9.6 60.5523 9.48333 60.519 9.35C60.5023 9.21667 60.494 9.1 60.494 9V4.075C60.494 3.925 60.4773 3.76667 60.444 3.6C60.4107 3.41667 60.394 3.25 60.394 3.1C60.3773 2.91667 60.3773 2.75 60.394 2.6C60.4107 2.43333 60.4607 2.26667 60.544 2.1C60.5773 1.9 60.6273 1.73333 60.694 1.6C60.7607 1.45 60.8523 1.35833 60.969 1.325C61.0523 1.24167 61.1773 1.18333 61.344 1.15C61.5107 1.11667 61.694 1.08333 61.894 1.05C62.0273 1.05 62.1773 1.06667 62.344 1.1C62.5107 1.13333 62.669 1.16667 62.819 1.2C63.219 1.33333 63.4273 1.55 63.444 1.85V2.95C63.444 3.1 63.444 3.24167 63.444 3.375C63.4607 3.49167 63.469 3.60833 63.469 3.725C63.469 3.85833 63.4773 3.98333 63.494 4.1C63.5273 4.21667 63.6357 4.275 63.819 4.275H72.569C72.6023 4.275 72.6523 4.26667 72.719 4.25C72.8023 4.23333 72.8773 4.21667 72.944 4.2V3.85C72.9773 3.71667 72.994 3.6 72.994 3.5C72.994 3.4 72.994 3.3 72.994 3.2V2.15C72.994 2 73.0023 1.85833 73.019 1.725C73.0523 1.575 73.1107 1.45833 73.194 1.375C73.244 1.29167 73.319 1.225 73.419 1.175C73.5357 1.125 73.669 1.08333 73.819 1.05C73.9023 1.03333 74.0523 1.025 74.269 1.025H74.769C74.9523 1.025 75.1107 1.05833 75.244 1.125C75.594 1.24167 75.794 1.45 75.844 1.75C75.8773 1.88333 75.894 2.01667 75.894 2.15C75.894 2.26667 75.9023 2.38333 75.919 2.5V3.3ZM75.569 13.6C75.7357 13.6 75.8857 13.6167 76.019 13.65C76.1523 13.6833 76.2857 13.7333 76.419 13.8C76.6357 13.8833 76.8357 14.0333 77.019 14.25C77.1523 14.4333 77.219 14.7167 77.219 15.1C77.219 15.3167 77.194 15.5 77.144 15.65C77.094 15.7833 76.9773 15.9167 76.794 16.05C76.5273 16.2667 76.2107 16.4 75.844 16.45C75.394 16.55 74.969 16.6 74.569 16.6C74.3523 16.6 74.1523 16.6167 73.969 16.65C73.8023 16.6667 73.6523 16.675 73.519 16.675H69.644C69.6773 16.9083 69.694 17.2 69.694 17.55C69.7107 17.8833 69.719 18.1417 69.719 18.325C69.7357 18.675 69.7107 19.0833 69.644 19.55C69.594 19.85 69.5023 20.1333 69.369 20.4C69.319 20.6833 69.144 20.925 68.844 21.125C68.7107 21.225 68.5607 21.2917 68.394 21.325C68.244 21.375 68.094 21.4 67.944 21.4C67.5773 21.4 67.269 21.3083 67.019 21.125C66.7857 21.025 66.6273 20.8417 66.544 20.575C66.4773 20.425 66.419 20.3 66.369 20.2C66.3357 20.0833 66.319 19.9667 66.319 19.85C66.2857 19.7667 66.269 19.675 66.269 19.575C66.269 19.475 66.269 19.375 66.269 19.275V16.675H60.969C60.7523 16.675 60.5523 16.6583 60.369 16.625C60.1857 16.5917 60.019 16.5583 59.869 16.525C59.4857 16.3917 59.2023 16.175 59.019 15.875C58.9023 15.725 58.8273 15.575 58.794 15.425C58.7607 15.275 58.744 15.1083 58.744 14.925C58.744 14.6083 58.869 14.3333 59.119 14.1C59.2523 13.9667 59.4023 13.8667 59.569 13.8C59.7023 13.75 59.8023 13.7167 59.869 13.7C59.9523 13.6833 60.0523 13.675 60.169 13.675C60.269 13.6417 60.3607 13.625 60.444 13.625C60.5273 13.625 60.6107 13.625 60.694 13.625H60.894L74.719 13.55C74.8523 13.55 74.994 13.55 75.144 13.55C75.294 13.55 75.4357 13.5667 75.569 13.6ZM72.894 8.25C72.9273 8.2 72.944 8.075 72.944 7.875C72.944 7.79167 72.944 7.71667 72.944 7.65C72.944 7.58333 72.9273 7.525 72.894 7.475C72.894 7.325 72.8857 7.23333 72.869 7.2C72.7857 7.11667 72.7023 7.06667 72.619 7.05C72.5523 7.01667 72.4773 6.98333 72.394 6.95H66.919L65.894 6.925H65.369C65.2857 6.925 65.2023 6.925 65.119 6.925C65.0523 6.925 64.9607 6.90833 64.844 6.875C64.7273 6.875 64.6107 6.88333 64.494 6.9C64.394 6.9 64.294 6.9 64.194 6.9C63.994 6.9 63.819 6.95 63.669 7.05C63.619 7.1 63.569 7.16667 63.519 7.25C63.4857 7.33333 63.4857 7.44167 63.519 7.575V8.375C63.5523 8.44167 63.569 8.48333 63.569 8.5V8.525C63.569 8.64167 63.6357 8.75 63.769 8.85C63.8523 8.88333 63.919 8.91667 63.969 8.95C64.0357 8.96667 64.1107 8.975 64.194 8.975C64.3607 9.00833 64.5273 9.00833 64.694 8.975H71.119C71.169 8.975 71.2273 8.98333 71.294 9C71.3773 9 71.4607 8.99167 71.544 8.975H71.994C72.0273 8.975 72.0607 8.975 72.094 8.975C72.1273 8.975 72.1857 8.98333 72.269 9H72.569C72.6023 8.98333 72.644 8.975 72.694 8.975C72.744 8.95833 72.7857 8.93333 72.819 8.9C72.8523 8.83333 72.869 8.78333 72.869 8.75C72.8857 8.71667 72.894 8.65833 72.894 8.575V8.25Z" fill="black"/>
<path d="M95.1507 16.6C95.2007 16.6167 95.2507 16.625 95.3007 16.625C95.3507 16.6083 95.4007 16.6 95.4507 16.6C95.734 16.6333 95.9924 16.6917 96.2257 16.775C96.4757 16.8417 96.7174 16.975 96.9507 17.175C97.184 17.4083 97.3007 17.7 97.3007 18.05C97.3007 18.2333 97.2674 18.4333 97.2007 18.65C97.1507 18.85 97.0757 19.0083 96.9757 19.125C96.8424 19.2583 96.6757 19.3583 96.4757 19.425C96.2757 19.4917 96.084 19.5417 95.9007 19.575C95.7174 19.5917 95.5507 19.6 95.4007 19.6C95.2674 19.6 95.1924 19.6 95.1757 19.6H81.1757C81.0924 19.6 81.009 19.6083 80.9257 19.625C80.8424 19.625 80.759 19.625 80.6757 19.625C80.3257 19.6417 79.9507 19.6417 79.5507 19.625C79.1507 19.5917 78.809 19.4583 78.5257 19.225C78.1757 18.9083 78.0007 18.55 78.0007 18.15C78.0007 17.9 78.0757 17.6417 78.2257 17.375C78.3757 17.1083 78.5757 16.925 78.8257 16.825C79.159 16.6917 79.5007 16.625 79.8507 16.625C80.2174 16.625 80.584 16.6167 80.9507 16.6H81.0757C82.5257 16.5667 84.0174 16.5667 85.5507 16.6L85.5257 13.225C85.3257 13.225 85.1257 13.225 84.9257 13.225C84.7257 13.2083 84.5257 13.1917 84.3257 13.175C83.8924 13.1417 83.4257 13.1417 82.9257 13.175C82.4257 13.1917 81.9674 13.1833 81.5507 13.15C81.1174 13.1167 80.7174 13.0167 80.3507 12.85C80.0007 12.6667 79.784 12.3417 79.7007 11.875C79.6174 11.4083 79.559 10.9667 79.5257 10.55C79.509 10.1167 79.4924 9.7 79.4757 9.3C79.4757 8.88333 79.4757 8.46667 79.4757 8.05C79.4924 7.63333 79.5007 7.18333 79.5007 6.7V4.95C79.5007 4.73333 79.4924 4.49167 79.4757 4.225C79.4757 3.95833 79.4924 3.69167 79.5257 3.425C79.5757 3.15833 79.6507 2.91667 79.7507 2.7C79.8674 2.48333 80.0424 2.31667 80.2757 2.2C80.5257 2.08333 80.809 1.99167 81.1257 1.925C81.4424 1.84167 81.759 1.78333 82.0757 1.75C82.409 1.71667 82.734 1.7 83.0507 1.7C83.384 1.68333 83.6924 1.675 83.9757 1.675H92.0257C92.0424 1.675 92.1424 1.68333 92.3257 1.7C92.5257 1.7 92.759 1.725 93.0257 1.775C93.2924 1.80833 93.559 1.85833 93.8257 1.925C94.109 1.975 94.334 2.05 94.5007 2.15C94.7007 2.26667 94.859 2.45833 94.9757 2.725C95.0924 2.975 95.1757 3.23333 95.2257 3.5C95.2924 3.76667 95.3257 4.00833 95.3257 4.225C95.3424 4.425 95.3507 4.53333 95.3507 4.55V9.375C95.3507 9.75833 95.3424 10.1417 95.3257 10.525C95.3257 10.9083 95.2924 11.2917 95.2257 11.675C95.1924 11.9083 95.134 12.1417 95.0507 12.375C94.9674 12.6083 94.809 12.7833 94.5757 12.9C94.2924 13.0333 93.9257 13.1083 93.4757 13.125C93.0257 13.125 92.6507 13.1167 92.3507 13.1C92.0007 13.1 91.6507 13.1167 91.3007 13.15C90.9507 13.1667 90.6007 13.175 90.2507 13.175H89.0257L89.0757 16.6C89.5424 16.6 89.9507 16.6 90.3007 16.6C90.6507 16.5833 90.984 16.575 91.3007 16.575C91.634 16.575 91.9674 16.575 92.3007 16.575C92.634 16.575 93.0174 16.5833 93.4507 16.6C93.7507 16.6167 94.0424 16.6167 94.3257 16.6C94.609 16.5667 94.884 16.5667 95.1507 16.6ZM90.4757 10.025C90.6257 9.99167 90.7757 9.98333 90.9257 10C91.0757 10.0167 91.234 9.99167 91.4007 9.925C91.5007 9.875 91.5757 9.80833 91.6257 9.725C91.6757 9.625 91.7007 9.525 91.7007 9.425C91.7174 9.30833 91.7174 9.19167 91.7007 9.075C91.7007 8.95833 91.7007 8.85 91.7007 8.75V6.65C91.7007 6.38333 91.7007 6.15833 91.7007 5.975C91.7007 5.775 91.659 5.61667 91.5757 5.5C91.509 5.38333 91.3674 5.3 91.1507 5.25C90.934 5.2 90.6174 5.16667 90.2007 5.15H85.3007C85.3007 5.15 85.234 5.15 85.1007 5.15C84.984 5.15 84.834 5.15833 84.6507 5.175C84.484 5.175 84.309 5.18333 84.1257 5.2C83.9424 5.21667 83.784 5.23333 83.6507 5.25C83.434 5.28333 83.259 5.375 83.1257 5.525C82.9924 5.675 82.9257 5.85833 82.9257 6.075L82.9757 9.425C83.009 9.625 83.0924 9.775 83.2257 9.875C83.3757 9.95833 83.5424 10.0167 83.7257 10.05C83.909 10.0833 84.0924 10.1 84.2757 10.1C84.4757 10.0833 84.6507 10.075 84.8007 10.075L90.4757 10.025Z" fill="black"/>
<path d="M107.131 18.025C107.115 18.025 107.048 18.0083 106.931 17.975C106.831 17.9417 106.715 17.8917 106.581 17.825C106.448 17.7583 106.323 17.6667 106.206 17.55C106.09 17.4333 106.023 17.2833 106.006 17.1C105.906 16.4833 106.006 15.9833 106.306 15.6C106.506 15.3667 106.723 15.2333 106.956 15.2C107.19 15.15 107.315 15.125 107.331 15.125H109.281C109.265 15.0917 109.256 15.025 109.256 14.925C109.223 14.5917 109.215 14.2583 109.231 13.925C109.265 13.5917 109.281 13.2583 109.281 12.925L105.856 12.775C105.59 12.7417 105.373 12.7083 105.206 12.675C105.056 12.625 104.873 12.5 104.656 12.3C104.54 12.2 104.456 12.0667 104.406 11.9C104.356 11.7333 104.331 11.5583 104.331 11.375C104.331 11.025 104.44 10.7417 104.656 10.525C104.773 10.3917 104.931 10.2917 105.131 10.225C105.331 10.1583 105.523 10.1083 105.706 10.075C105.89 10.0417 106.048 10.025 106.181 10.025C106.331 10.025 106.415 10.025 106.431 10.025H120.731C120.981 10.025 121.231 10.025 121.481 10.025C121.731 10.025 121.973 10.0333 122.206 10.05C122.44 10.0667 122.665 10.1 122.881 10.15C123.115 10.2 123.323 10.3083 123.506 10.475C123.69 10.6083 123.79 10.7583 123.806 10.925C123.84 11.0917 123.856 11.275 123.856 11.475C123.856 11.725 123.781 11.95 123.631 12.15C123.498 12.35 123.306 12.4917 123.056 12.575C122.723 12.7083 122.356 12.7917 121.956 12.825C121.573 12.8417 121.206 12.8583 120.856 12.875C120.673 12.8917 120.448 12.9 120.181 12.9C119.915 12.9 119.623 12.9083 119.306 12.925C119.273 13.2917 119.256 13.6583 119.256 14.025C119.273 14.375 119.281 14.7417 119.281 15.125H119.731C119.748 15.125 119.765 15.125 119.781 15.125C119.798 15.1083 119.823 15.1 119.856 15.1C120.54 15.1 121.065 15.2083 121.431 15.425C121.815 15.6417 122.006 15.9417 122.006 16.325V18.025C122.006 18.1083 122.006 18.2 122.006 18.3C122.023 18.3833 122.031 18.4667 122.031 18.55C122.031 18.6333 122.031 18.7583 122.031 18.925C122.031 19.0917 122.031 19.2667 122.031 19.45C122.031 19.6167 122.031 19.7833 122.031 19.95C122.031 20.1167 122.023 20.25 122.006 20.35C121.973 20.7 121.831 20.9833 121.581 21.2C121.348 21.4167 121.04 21.525 120.656 21.525C120.473 21.525 120.298 21.5 120.131 21.45C119.898 21.3833 119.715 21.2833 119.581 21.15C119.465 21.0167 119.373 20.8667 119.306 20.7C119.256 20.5333 119.215 20.3583 119.181 20.175C119.165 19.975 119.156 19.7833 119.156 19.6C119.156 19.5333 119.148 19.425 119.131 19.275C119.131 19.125 119.123 18.975 119.106 18.825C119.106 18.6583 119.098 18.5083 119.081 18.375C119.081 18.2417 119.073 18.1417 119.056 18.075C119.006 18.0583 118.865 18.0417 118.631 18.025C118.415 18.0083 117.998 18 117.381 18C117.098 18 116.848 18.0083 116.631 18.025C116.415 18.025 116.215 18.025 116.031 18.025H107.131ZM114.156 8.85C112.956 8.85 111.831 8.80833 110.781 8.725C109.748 8.64167 108.848 8.45833 108.081 8.175C107.331 7.875 106.74 7.45833 106.306 6.925C105.873 6.375 105.656 5.64167 105.656 4.725C105.656 3.89167 105.873 3.20833 106.306 2.675C106.74 2.14167 107.331 1.725 108.081 1.425C108.848 1.10833 109.748 0.891666 110.781 0.774999C111.831 0.658333 112.956 0.6 114.156 0.6C115.356 0.6 116.473 0.641666 117.506 0.725C118.556 0.808333 119.456 0.991666 120.206 1.275C120.973 1.55833 121.573 1.975 122.006 2.525C122.44 3.05833 122.656 3.79167 122.656 4.725C122.656 5.64167 122.44 6.375 122.006 6.925C121.573 7.45833 120.973 7.875 120.206 8.175C119.456 8.45833 118.556 8.64167 117.506 8.725C116.473 8.80833 115.356 8.85 114.156 8.85ZM114.156 3.4C113.54 3.4 112.923 3.40833 112.306 3.425C111.706 3.44167 111.165 3.5 110.681 3.6C110.198 3.68333 109.806 3.81667 109.506 4C109.206 4.16667 109.056 4.40833 109.056 4.725C109.056 5.29167 109.506 5.675 110.406 5.875C111.323 6.05833 112.573 6.13333 114.156 6.1C114.773 6.1 115.381 6.1 115.981 6.1C116.598 6.08333 117.148 6.04167 117.631 5.975C118.115 5.89167 118.506 5.75833 118.806 5.575C119.106 5.375 119.256 5.09167 119.256 4.725C119.256 4.40833 119.106 4.16667 118.806 4C118.506 3.81667 118.115 3.68333 117.631 3.6C117.148 3.5 116.598 3.44167 115.981 3.425C115.381 3.40833 114.773 3.4 114.156 3.4ZM112.731 12.975C112.765 13.3417 112.756 13.6833 112.706 14C112.673 14.3167 112.656 14.6917 112.656 15.125H115.881V14.975C115.848 14.725 115.831 14.4167 115.831 14.05C115.848 13.6667 115.865 13.3083 115.881 12.975H112.731Z" fill="black"/>
<path d="M130.363 1.025C130.58 1.025 130.788 1.03333 130.988 1.05C131.188 1.06667 131.388 1.09167 131.588 1.125C132.221 1.225 132.78 1.51667 133.263 2C133.663 2.43333 133.988 2.93333 134.238 3.5C134.488 4.05 134.68 4.63333 134.813 5.25C134.963 5.86667 135.063 6.5 135.113 7.15C135.163 7.78333 135.205 8.4 135.238 9C135.271 9.76667 135.28 10.5333 135.263 11.3C135.263 12.0667 135.221 12.825 135.138 13.575C135.055 14.3583 134.93 15.15 134.763 15.95C134.613 16.7333 134.33 17.4417 133.913 18.075C133.563 18.6083 133.138 19.05 132.638 19.4C132.155 19.7333 131.63 19.9583 131.063 20.075C130.546 20.175 130.021 20.1917 129.488 20.125C128.955 20.0583 128.446 19.8833 127.963 19.6C127.513 19.3333 127.146 19 126.863 18.6C126.596 18.2 126.346 17.7333 126.113 17.2C125.78 16.4 125.588 15.575 125.538 14.725C125.471 14.025 125.421 13.325 125.388 12.625C125.371 11.925 125.363 11.225 125.363 10.525C125.363 9.59167 125.413 8.65833 125.513 7.725C125.546 7.34167 125.58 6.96667 125.613 6.6C125.646 6.21667 125.696 5.84167 125.763 5.475C125.83 5.175 125.888 4.89167 125.938 4.625C125.988 4.35833 126.08 4.08333 126.213 3.8C126.346 3.51667 126.488 3.25 126.638 3C126.805 2.75 126.996 2.525 127.213 2.325C127.913 1.625 128.755 1.20833 129.738 1.075C129.838 1.05833 129.938 1.05 130.038 1.05C130.155 1.05 130.263 1.04167 130.363 1.025ZM142.863 8.7C142.946 8.7 143.021 8.70833 143.088 8.725C143.171 8.74167 143.255 8.75 143.338 8.75C143.421 8.76667 143.513 8.78333 143.613 8.8C143.713 8.8 143.813 8.80833 143.913 8.825C144.096 8.85833 144.28 8.925 144.463 9.025C144.646 9.10833 144.78 9.24167 144.863 9.425C144.98 9.60833 145.038 9.825 145.038 10.075C145.038 10.2083 145.03 10.3333 145.013 10.45C145.013 10.55 144.996 10.6667 144.963 10.8C144.93 10.9333 144.888 11.075 144.838 11.225C144.805 11.375 144.73 11.4917 144.613 11.575C144.38 11.7417 144.155 11.85 143.938 11.9C143.671 11.9333 143.346 11.9417 142.963 11.925C142.58 11.9083 142.255 11.9083 141.988 11.925C141.971 11.925 141.955 11.9333 141.938 11.95H141.913L141.888 11.975V12.05C141.888 12.25 141.888 12.4917 141.888 12.775C141.888 13.0583 141.888 13.35 141.888 13.65C141.888 13.9333 141.888 14.2167 141.888 14.5C141.888 14.7667 141.888 15.0083 141.888 15.225C141.921 16.0917 141.921 16.9417 141.888 17.775V18.125C141.888 18.3417 141.88 18.5833 141.863 18.85C141.863 19.1 141.846 19.35 141.813 19.6C141.78 19.85 141.721 20.0917 141.638 20.325C141.555 20.5417 141.438 20.725 141.288 20.875C141.088 21.1083 140.821 21.225 140.488 21.225C140.488 21.225 140.471 21.2167 140.438 21.2C140.038 21.1833 139.713 21.0667 139.463 20.85C139.23 20.6333 139.046 20.3667 138.913 20.05C138.796 19.7333 138.721 19.4083 138.688 19.075C138.655 18.725 138.638 18.4167 138.638 18.15V3.3C138.638 3.28333 138.638 3.20833 138.638 3.075C138.638 2.925 138.655 2.75833 138.688 2.575C138.721 2.375 138.771 2.175 138.838 1.975C138.921 1.75833 139.03 1.58333 139.163 1.45C139.28 1.33333 139.446 1.25 139.663 1.2C139.896 1.13333 140.105 1.1 140.288 1.1C140.655 1.1 140.963 1.225 141.213 1.475C141.446 1.70833 141.58 1.95833 141.613 2.225C141.663 2.475 141.705 2.74167 141.738 3.025C141.755 3.09167 141.763 3.19167 141.763 3.325C141.796 3.60833 141.813 3.9 141.813 4.2C141.83 4.5 141.846 4.8 141.863 5.1C141.863 5.28333 141.863 5.46667 141.863 5.65C141.88 5.81667 141.888 5.99167 141.888 6.175C141.871 6.275 141.863 6.375 141.863 6.475C141.88 6.55833 141.888 6.64167 141.888 6.725V8.1C141.888 8.18333 141.888 8.275 141.888 8.375C141.888 8.475 141.905 8.56667 141.938 8.65C141.938 8.66667 142.021 8.675 142.188 8.675C142.355 8.675 142.446 8.675 142.463 8.675C142.613 8.70833 142.73 8.71667 142.813 8.7H142.863ZM130.288 16.75C130.605 16.75 130.913 16.65 131.213 16.45C131.496 16.25 131.696 15.9833 131.813 15.65C131.93 15.3167 132.03 14.95 132.113 14.55C132.246 13.7833 132.321 12.9667 132.338 12.1C132.355 11.2333 132.346 10.4 132.313 9.6C132.313 9.28333 132.305 8.95 132.288 8.6C132.271 8.23333 132.238 7.875 132.188 7.525C132.155 7.175 132.096 6.84167 132.013 6.525C131.93 6.19167 131.813 5.9 131.663 5.65C131.496 5.36667 131.296 5.15 131.063 5C130.83 4.85 130.58 4.79167 130.313 4.825C130.03 4.85833 129.763 4.95833 129.513 5.125C129.28 5.29167 129.088 5.54167 128.938 5.875L128.713 6.4C128.613 6.71667 128.538 7.05 128.488 7.4C128.438 7.73333 128.396 8.06667 128.363 8.4C128.33 8.73333 128.305 9.075 128.288 9.425C128.271 9.775 128.263 10.1167 128.263 10.45C128.28 10.7833 128.271 11.1083 128.238 11.425C128.221 11.7417 128.23 12.0667 128.263 12.4C128.296 12.8333 128.338 13.3 128.388 13.8C128.455 14.3 128.555 14.775 128.688 15.225C128.838 15.6583 129.038 16.025 129.288 16.325C129.538 16.6083 129.871 16.75 130.288 16.75Z" fill="black"/>
<path d="M166.558 4.875C166.824 5.25833 167.016 5.73333 167.133 6.3C167.266 6.85 167.308 7.44167 167.258 8.075C167.191 8.80833 166.999 9.44167 166.683 9.975C166.383 10.4917 165.983 10.925 165.483 11.275C164.983 11.625 164.399 11.9 163.733 12.1C163.083 12.2833 162.374 12.3917 161.608 12.425H160.358C159.724 12.425 159.016 12.3667 158.233 12.25C157.466 12.1167 156.733 11.875 156.033 11.525C155.349 11.1583 154.774 10.6583 154.308 10.025C153.858 9.39167 153.633 8.55833 153.633 7.525C153.633 7.04167 153.683 6.56667 153.783 6.1C153.899 5.61667 154.058 5.20833 154.258 4.875H153.708C153.324 4.875 152.991 4.75 152.708 4.5C152.441 4.23333 152.308 3.91667 152.308 3.55C152.308 3.18333 152.441 2.875 152.708 2.625C152.991 2.35833 153.324 2.225 153.708 2.225H158.583V1.275C158.583 1.125 158.608 0.975 158.658 0.825C158.708 0.658333 158.799 0.516666 158.933 0.399999C159.066 0.283333 159.258 0.191667 159.508 0.125C159.758 0.0416666 160.083 0 160.483 0C160.883 0 161.208 0.0416666 161.458 0.125C161.708 0.191667 161.899 0.283333 162.033 0.399999C162.183 0.516666 162.274 0.658333 162.308 0.825C162.358 0.975 162.383 1.125 162.383 1.275V2.225H167.483C167.866 2.225 168.199 2.35833 168.483 2.625C168.766 2.875 168.908 3.18333 168.908 3.55C168.908 3.91667 168.766 4.23333 168.483 4.5C168.199 4.75 167.866 4.875 167.483 4.875H166.558ZM167.408 13.8C167.674 13.7833 167.949 13.7917 168.233 13.825C168.533 13.8417 168.808 13.9 169.058 14C169.308 14.1 169.508 14.25 169.658 14.45C169.824 14.65 169.908 14.925 169.908 15.275C169.908 15.6917 169.766 16.0083 169.483 16.225C169.199 16.425 168.858 16.575 168.458 16.675C168.074 16.7583 167.666 16.8083 167.233 16.825C166.816 16.825 166.474 16.825 166.208 16.825C166.124 16.825 166.049 16.8333 165.983 16.85C165.916 16.85 165.841 16.85 165.758 16.85C165.774 17.3333 165.783 17.8167 165.783 18.3C165.799 18.7667 165.783 19.2083 165.733 19.625C165.683 19.9417 165.599 20.2417 165.483 20.525C165.366 20.825 165.166 21.0667 164.883 21.25C164.633 21.4167 164.341 21.5 164.008 21.5C163.674 21.5 163.374 21.425 163.108 21.275C162.891 21.1417 162.724 20.95 162.608 20.7C162.508 20.45 162.433 20.2083 162.383 19.975C162.349 19.7917 162.341 19.5917 162.358 19.375C162.374 19.1583 162.374 18.9583 162.358 18.775V16.85L159.058 16.825C159.074 17.3417 159.091 17.7833 159.108 18.15C159.124 18.5167 159.099 18.9167 159.033 19.35C158.983 19.6667 158.899 19.975 158.783 20.275C158.666 20.5583 158.466 20.7917 158.183 20.975C157.933 21.1417 157.641 21.225 157.308 21.225C156.974 21.225 156.674 21.15 156.408 21C156.191 20.8667 156.024 20.675 155.908 20.425C155.808 20.175 155.733 19.9333 155.683 19.7C155.649 19.5167 155.641 19.3167 155.658 19.1C155.674 18.8833 155.674 18.6833 155.658 18.5V16.825L153.633 16.85C153.249 16.85 152.883 16.8 152.533 16.7C152.183 16.6 151.908 16.3833 151.708 16.05C151.524 15.7667 151.433 15.4667 151.433 15.15C151.449 14.8333 151.574 14.55 151.808 14.3C151.924 14.1667 152.083 14.0667 152.283 14C152.483 13.9333 152.674 13.8917 152.858 13.875C153.058 13.8417 153.224 13.825 153.358 13.825C153.508 13.825 153.591 13.825 153.608 13.825L167.408 13.8ZM163.858 8.275C164.008 7.19167 163.808 6.39167 163.258 5.875C162.708 5.35833 161.891 5.06667 160.808 5C159.874 4.96667 159.066 5.11667 158.383 5.45C157.699 5.78333 157.291 6.375 157.158 7.225C157.058 8.20833 157.291 8.90833 157.858 9.325C158.441 9.74167 159.291 9.95 160.408 9.95C160.858 9.95 161.274 9.925 161.658 9.875C162.058 9.825 162.408 9.74167 162.708 9.625C163.008 9.49167 163.258 9.31667 163.458 9.1C163.658 8.88333 163.791 8.60833 163.858 8.275Z" fill="black"/>
<path d="M178.639 4.15C178.639 4.15 178.631 4.25 178.614 4.45C178.614 4.65 178.614 4.875 178.614 5.125C178.614 5.375 178.614 5.60833 178.614 5.825C178.631 6.04167 178.639 6.16667 178.639 6.2C178.723 6.28333 178.873 6.425 179.089 6.625C179.306 6.80833 179.489 6.96667 179.639 7.1C179.806 7.23333 179.973 7.38333 180.139 7.55C180.323 7.7 180.506 7.86667 180.689 8.05C180.806 8.16667 180.914 8.28333 181.014 8.4C181.114 8.5 181.206 8.59167 181.289 8.675C181.606 8.99167 181.923 9.33333 182.239 9.7C182.556 10.0667 182.773 10.4417 182.889 10.825C182.939 10.975 182.948 11.1417 182.914 11.325C182.881 11.5083 182.773 11.6667 182.589 11.8C182.306 11.9667 182.006 12.05 181.689 12.05C181.323 12.05 180.973 11.975 180.639 11.825C180.306 11.675 180.039 11.525 179.839 11.375C179.523 11.1417 179.231 10.9 178.964 10.65C178.698 10.3833 178.431 10.1167 178.164 9.85C177.981 9.66667 177.773 9.45833 177.539 9.225C177.306 8.975 177.073 8.75833 176.839 8.575L176.164 9.25C176.048 9.36667 175.931 9.48333 175.814 9.6C175.698 9.7 175.589 9.80833 175.489 9.925C175.273 10.1583 175.048 10.4 174.814 10.65C174.581 10.8833 174.314 11.1083 174.014 11.325C173.331 11.825 172.689 12.075 172.089 12.075C172.006 12.075 171.931 12.075 171.864 12.075C171.814 12.075 171.748 12.0583 171.664 12.025C171.298 11.9417 171.056 11.7917 170.939 11.575C170.823 11.3917 170.781 11.1833 170.814 10.95C170.864 10.7167 170.939 10.5083 171.039 10.325C171.173 10.1417 171.323 9.96667 171.489 9.8C171.656 9.61667 171.823 9.43333 171.989 9.25C172.139 9.08333 172.373 8.85 172.689 8.55C173.023 8.23333 173.356 7.91667 173.689 7.6C174.023 7.26667 174.331 6.96667 174.614 6.7C174.898 6.43333 175.073 6.26667 175.139 6.2V4.15H173.539C173.339 4.15 173.106 4.15833 172.839 4.175C172.573 4.175 172.306 4.15833 172.039 4.125C171.789 4.09167 171.556 4.025 171.339 3.925C171.123 3.80833 170.964 3.625 170.864 3.375C170.781 3.19167 170.723 2.98333 170.689 2.75C170.673 2.51667 170.689 2.3 170.739 2.1C170.806 1.86667 170.956 1.70833 171.189 1.625C171.423 1.525 171.648 1.45833 171.864 1.425C171.898 1.425 172.031 1.425 172.264 1.425C172.514 1.425 172.781 1.425 173.064 1.425C173.348 1.425 173.614 1.425 173.864 1.425C174.114 1.425 174.264 1.41667 174.314 1.4H180.164C180.831 1.4 181.389 1.44167 181.839 1.525C182.306 1.60833 182.681 1.81667 182.964 2.15C183.048 2.25 183.098 2.38333 183.114 2.55C183.148 2.71667 183.148 2.89167 183.114 3.075C183.098 3.24167 183.048 3.4 182.964 3.55C182.898 3.7 182.798 3.80833 182.664 3.875C182.531 3.925 182.373 3.98333 182.189 4.05C182.006 4.1 181.848 4.13333 181.714 4.15C181.481 4.16667 181.239 4.175 180.989 4.175C180.756 4.15833 180.523 4.15 180.289 4.15H178.639ZM186.164 14.4C186.664 14.3833 187.056 14.425 187.339 14.525C187.639 14.625 187.873 14.7583 188.039 14.925C188.206 15.0917 188.314 15.275 188.364 15.475C188.414 15.675 188.439 15.875 188.439 16.075V19.175C188.473 19.5417 188.473 19.9083 188.439 20.275C188.406 20.625 188.264 20.9083 188.014 21.125C187.781 21.3417 187.473 21.45 187.089 21.45C187.006 21.45 186.856 21.4417 186.639 21.425C186.423 21.425 186.273 21.4083 186.189 21.375C185.973 21.3083 185.798 21.2083 185.664 21.075C185.548 20.9417 185.456 20.7917 185.389 20.625C185.323 20.4583 185.281 20.2833 185.264 20.1C185.248 19.9 185.231 19.7083 185.214 19.525C185.214 19.4583 185.206 19.3167 185.189 19.1C185.189 18.8833 185.181 18.6583 185.164 18.425C185.164 18.1917 185.156 17.975 185.139 17.775C185.139 17.575 185.131 17.4417 185.114 17.375C185.064 17.3583 184.923 17.3417 184.689 17.325C184.473 17.3083 184.056 17.3 183.439 17.3C182.906 17.3 182.573 17.3083 182.439 17.325C182.323 17.325 182.256 17.3333 182.239 17.35H173.214L173.189 17.325C173.189 17.325 173.131 17.3083 173.014 17.275C172.914 17.2417 172.798 17.1917 172.664 17.125C172.531 17.0583 172.398 16.9667 172.264 16.85C172.148 16.7333 172.081 16.5833 172.064 16.4C171.981 15.7667 172.089 15.2667 172.389 14.9C172.589 14.6667 172.806 14.5333 173.039 14.5C173.273 14.45 173.398 14.425 173.414 14.425L186.164 14.4ZM188.639 10.825C188.639 10.825 188.631 10.8833 188.614 11C188.598 11.1167 188.564 11.25 188.514 11.4C188.464 11.55 188.389 11.7083 188.289 11.875C188.189 12.025 188.056 12.15 187.889 12.25C187.656 12.3833 187.423 12.45 187.189 12.45C186.906 12.45 186.631 12.3583 186.364 12.175C186.181 12.0417 186.039 11.8667 185.939 11.65C185.806 11.4 185.714 11.125 185.664 10.825C185.631 10.525 185.606 10.2167 185.589 9.9C185.589 9.58333 185.598 9.275 185.614 8.975C185.631 8.65833 185.639 8.35833 185.639 8.075C185.656 7.35833 185.664 6.65 185.664 5.95C185.664 5.23333 185.664 4.525 185.664 3.825V3.5C185.648 3.31667 185.639 3.125 185.639 2.925C185.656 2.70833 185.689 2.50833 185.739 2.325C185.806 2.075 185.956 1.80833 186.189 1.525C186.323 1.35833 186.506 1.24167 186.739 1.175C186.989 1.09167 187.256 1.06667 187.539 1.1C188.039 1.18333 188.373 1.4 188.539 1.75C188.639 1.96667 188.681 2.23333 188.664 2.55C188.664 2.86667 188.656 3.05833 188.639 3.125V10.825Z" fill="black"/>
<path d="M204.695 17.9C204.695 18.3167 204.679 18.65 204.645 18.9C204.629 19.15 204.554 19.4667 204.42 19.85C204.337 20.1 204.195 20.3083 203.995 20.475C203.795 20.6417 203.512 20.725 203.145 20.725C203.045 20.725 202.92 20.7083 202.77 20.675C202.62 20.6583 202.504 20.6167 202.42 20.55C202.254 20.45 202.12 20.2917 202.02 20.075C201.937 19.8417 201.87 19.6 201.82 19.35C201.77 19.1 201.737 18.8583 201.72 18.625C201.72 18.3917 201.72 18.2083 201.72 18.075V11.775L199.82 11.75C199.67 11.75 199.512 11.7333 199.345 11.7C199.195 11.65 199.045 11.5833 198.895 11.5C198.762 11.4 198.645 11.275 198.545 11.125C198.445 10.9583 198.387 10.75 198.37 10.5C198.337 10.2 198.354 9.90833 198.42 9.625C198.504 9.34167 198.737 9.10833 199.12 8.925C199.27 8.84167 199.454 8.775 199.67 8.725C199.904 8.675 200.104 8.65 200.27 8.65H201.72V3.6C201.72 3.38333 201.72 3.16667 201.72 2.95C201.72 2.71667 201.745 2.49167 201.795 2.275C201.829 2.19167 201.854 2.11667 201.87 2.05C201.904 1.98333 201.937 1.90833 201.97 1.825C202.07 1.65833 202.17 1.53333 202.27 1.45C202.37 1.35 202.512 1.26667 202.695 1.2C202.779 1.16667 202.862 1.15 202.945 1.15C203.045 1.13333 203.137 1.125 203.22 1.125C203.77 1.125 204.187 1.375 204.47 1.875C204.537 1.975 204.579 2.11667 204.595 2.3C204.629 2.48333 204.654 2.675 204.67 2.875C204.687 3.05833 204.695 3.225 204.695 3.375C204.695 3.50833 204.695 3.59167 204.695 3.625V17.9ZM208.72 20.025C208.62 20.2417 208.462 20.425 208.245 20.575C208.062 20.6917 207.895 20.7583 207.745 20.775C207.612 20.8083 207.437 20.8 207.22 20.75C206.97 20.7 206.762 20.5917 206.595 20.425C206.445 20.275 206.329 20.1 206.245 19.9C206.162 19.7 206.104 19.4833 206.07 19.25C206.037 19.0167 206.02 18.7917 206.02 18.575V3.875C206.02 3.69167 206.02 3.48333 206.02 3.25C206.02 3 206.037 2.76667 206.07 2.55C206.104 2.31667 206.145 2.1 206.195 1.9C206.262 1.7 206.354 1.54167 206.47 1.425C206.654 1.25833 206.804 1.15833 206.92 1.125C207.054 1.075 207.237 1.05 207.47 1.05C207.754 1.05 208.012 1.13333 208.245 1.3C208.479 1.45 208.645 1.65833 208.745 1.925C208.895 2.275 208.979 2.63333 208.995 3C209.012 3.36667 209.029 3.74167 209.045 4.125V4.25C209.079 5.51667 209.087 6.73333 209.07 7.9C209.054 9.05 209.045 10.2167 209.045 11.4V17.65C209.045 18.0833 209.029 18.5 208.995 18.9C208.979 19.3 208.887 19.675 208.72 20.025ZM193.645 5.2C193.379 5.2 193.112 5.2 192.845 5.2C192.579 5.2 192.329 5.2 192.095 5.2C191.879 5.18333 191.687 5.175 191.52 5.175C191.354 5.15833 191.245 5.15 191.195 5.15C190.695 5.01667 190.337 4.65833 190.12 4.075C190.004 3.59167 190.062 3.175 190.295 2.825C190.562 2.425 190.895 2.175 191.295 2.075C191.345 2.075 191.479 2.075 191.695 2.075C191.912 2.05833 192.145 2.05 192.395 2.05C192.645 2.05 192.87 2.05 193.07 2.05C193.287 2.05 193.412 2.05 193.445 2.05H197.995C198.562 2.05 199.02 2.10833 199.37 2.225C199.737 2.34167 200.037 2.64167 200.27 3.125C200.387 3.35833 200.454 3.56667 200.47 3.75C200.504 3.91667 200.479 4.10833 200.395 4.325C200.179 4.79167 199.82 5.06667 199.32 5.15C199.154 5.18333 198.995 5.20833 198.845 5.225C198.695 5.225 198.52 5.23333 198.32 5.25C198.137 5.25 197.92 5.25 197.67 5.25C197.42 5.23333 197.12 5.21667 196.77 5.2C196.77 5.25 196.77 5.43333 196.77 5.75C196.77 6.06667 196.77 6.45 196.77 6.9C196.787 7.33333 196.787 7.80833 196.77 8.325C196.77 8.84167 196.77 9.325 196.77 9.775C196.787 10.2083 196.795 10.5833 196.795 10.9C196.795 11.2 196.795 11.3667 196.795 11.4C196.845 11.4667 196.895 11.5667 196.945 11.7C197.012 11.8167 197.079 11.95 197.145 12.1C197.212 12.2333 197.279 12.3667 197.345 12.5C197.412 12.6333 197.47 12.7417 197.52 12.825C197.654 13.0083 197.787 13.2333 197.92 13.5C198.07 13.7667 198.229 14.0333 198.395 14.3C198.495 14.45 198.587 14.6 198.67 14.75C198.754 14.8833 198.837 15.0167 198.92 15.15C199.187 15.5833 199.462 16.0167 199.745 16.45C200.029 16.8833 200.229 17.3583 200.345 17.875C200.379 18.1083 200.387 18.3667 200.37 18.65C200.354 18.9167 200.262 19.1417 200.095 19.325C199.862 19.5583 199.587 19.675 199.27 19.675C198.954 19.675 198.654 19.575 198.37 19.375C198.087 19.175 197.854 18.9583 197.67 18.725C197.404 18.3917 197.154 18.05 196.92 17.7C196.687 17.3333 196.462 16.975 196.245 16.625C196.079 16.375 195.887 16.0917 195.67 15.775C195.47 15.4583 195.287 15.1833 195.12 14.95C195.037 15.0833 194.954 15.225 194.87 15.375C194.804 15.525 194.729 15.6667 194.645 15.8C194.545 15.95 194.429 16.1 194.295 16.25C194.162 16.4 194.045 16.55 193.945 16.7C193.762 17.0333 193.57 17.375 193.37 17.725C193.187 18.0583 192.962 18.375 192.695 18.675C192.412 19.025 192.145 19.2917 191.895 19.475C191.645 19.6417 191.387 19.725 191.12 19.725C191.054 19.725 190.987 19.725 190.92 19.725C190.87 19.725 190.804 19.7083 190.72 19.675C190.404 19.5417 190.187 19.3083 190.07 18.975C189.97 18.6917 189.962 18.3833 190.045 18.05C190.129 17.7167 190.229 17.4333 190.345 17.2C190.445 16.9167 190.562 16.65 190.695 16.4C190.845 16.15 190.995 15.9083 191.145 15.675C191.229 15.525 191.312 15.375 191.395 15.225C191.495 15.075 191.587 14.925 191.67 14.775C191.787 14.525 191.937 14.2417 192.12 13.925C192.32 13.5917 192.52 13.2667 192.72 12.95C192.92 12.6167 193.104 12.3167 193.27 12.05C193.437 11.7833 193.562 11.6 193.645 11.5V5.2Z" fill="black"/>
</svg>
