<svg width="85" height="21" viewBox="0 0 85 21" fill="none" xmlns="http://www.w3.org/2000/svg">
<path d="M5 0.369445C5.21667 0.369445 5.425 0.377778 5.625 0.394445C5.825 0.411111 6.025 0.436111 6.225 0.469445C6.85833 0.569445 7.41667 0.861111 7.9 1.34444C8.3 1.77778 8.625 2.27778 8.875 2.84444C9.125 3.39444 9.31667 3.97778 9.45 4.59444C9.6 5.21111 9.7 5.84444 9.75 6.49444C9.8 7.12778 9.84167 7.74445 9.875 8.34445C9.90833 9.11111 9.91667 9.87778 9.9 10.6444C9.9 11.4111 9.85833 12.1694 9.775 12.9194C9.69167 13.7028 9.56667 14.4944 9.4 15.2944C9.25 16.0778 8.96667 16.7861 8.55 17.4194C8.2 17.9528 7.775 18.3944 7.275 18.7444C6.79167 19.0778 6.26667 19.3028 5.7 19.4194C5.18333 19.5194 4.65833 19.5361 4.125 19.4694C3.59167 19.4028 3.08333 19.2278 2.6 18.9444C2.15 18.6778 1.78333 18.3444 1.5 17.9444C1.23333 17.5444 0.983333 17.0778 0.75 16.5444C0.416667 15.7444 0.225 14.9194 0.175 14.0694C0.108333 13.3694 0.0583333 12.6694 0.025 11.9694C0.00833332 11.2694 0 10.5694 0 9.86944C0 8.93611 0.05 8.00278 0.15 7.06945C0.183333 6.68611 0.216667 6.31111 0.25 5.94444C0.283333 5.56111 0.333333 5.18611 0.4 4.81944C0.466667 4.51944 0.525 4.23611 0.575 3.96944C0.625 3.70278 0.716667 3.42778 0.85 3.14444C0.983333 2.86111 1.125 2.59444 1.275 2.34444C1.44167 2.09444 1.63333 1.86944 1.85 1.66944C2.55 0.969445 3.39167 0.552778 4.375 0.419444C4.475 0.402778 4.575 0.394445 4.675 0.394445C4.79167 0.394445 4.9 0.386111 5 0.369445ZM17.5 8.04444C17.5833 8.04444 17.6583 8.05278 17.725 8.06944C17.8083 8.08611 17.8917 8.09444 17.975 8.09444C18.0583 8.11111 18.15 8.12778 18.25 8.14444C18.35 8.14444 18.45 8.15278 18.55 8.16945C18.7333 8.20278 18.9167 8.26944 19.1 8.36944C19.2833 8.45278 19.4167 8.58611 19.5 8.76944C19.6167 8.95278 19.675 9.16945 19.675 9.41945C19.675 9.55278 19.6667 9.67778 19.65 9.79445C19.65 9.89444 19.6333 10.0111 19.6 10.1444C19.5667 10.2778 19.525 10.4194 19.475 10.5694C19.4417 10.7194 19.3667 10.8361 19.25 10.9194C19.0167 11.0861 18.7917 11.1944 18.575 11.2444C18.3083 11.2778 17.9833 11.2861 17.6 11.2694C17.2167 11.2528 16.8917 11.2528 16.625 11.2694C16.6083 11.2694 16.5917 11.2778 16.575 11.2944H16.55L16.525 11.3194V11.3944C16.525 11.5944 16.525 11.8361 16.525 12.1194C16.525 12.4028 16.525 12.6944 16.525 12.9944C16.525 13.2778 16.525 13.5611 16.525 13.8444C16.525 14.1111 16.525 14.3528 16.525 14.5694C16.5583 15.4361 16.5583 16.2861 16.525 17.1194V17.4694C16.525 17.6861 16.5167 17.9278 16.5 18.1944C16.5 18.4444 16.4833 18.6944 16.45 18.9444C16.4167 19.1944 16.3583 19.4361 16.275 19.6694C16.1917 19.8861 16.075 20.0694 15.925 20.2194C15.725 20.4528 15.4583 20.5694 15.125 20.5694C15.125 20.5694 15.1083 20.5611 15.075 20.5444C14.675 20.5278 14.35 20.4111 14.1 20.1944C13.8667 19.9778 13.6833 19.7111 13.55 19.3944C13.4333 19.0778 13.3583 18.7528 13.325 18.4194C13.2917 18.0694 13.275 17.7611 13.275 17.4944V2.64444C13.275 2.62778 13.275 2.55278 13.275 2.41944C13.275 2.26944 13.2917 2.10278 13.325 1.91944C13.3583 1.71944 13.4083 1.51944 13.475 1.31944C13.5583 1.10278 13.6667 0.927778 13.8 0.794444C13.9167 0.677778 14.0833 0.594444 14.3 0.544444C14.5333 0.477777 14.7417 0.444444 14.925 0.444444C15.2917 0.444444 15.6 0.569444 15.85 0.819445C16.0833 1.05278 16.2167 1.30278 16.25 1.56944C16.3 1.81944 16.3417 2.08611 16.375 2.36944C16.3917 2.43611 16.4 2.53611 16.4 2.66945C16.4333 2.95278 16.45 3.24444 16.45 3.54444C16.4667 3.84444 16.4833 4.14444 16.5 4.44444C16.5 4.62778 16.5 4.81111 16.5 4.99444C16.5167 5.16111 16.525 5.33611 16.525 5.51944C16.5083 5.61944 16.5 5.71944 16.5 5.81944C16.5167 5.90278 16.525 5.98611 16.525 6.06944V7.44444C16.525 7.52778 16.525 7.61944 16.525 7.71944C16.525 7.81944 16.5417 7.91111 16.575 7.99444C16.575 8.01111 16.6583 8.01944 16.825 8.01944C16.9917 8.01944 17.0833 8.01944 17.1 8.01944C17.25 8.05278 17.3667 8.06111 17.45 8.04444H17.5ZM4.925 16.0944C5.24167 16.0944 5.55 15.9944 5.85 15.7944C6.13333 15.5944 6.33333 15.3278 6.45 14.9944C6.56667 14.6611 6.66667 14.2944 6.75 13.8944C6.88333 13.1278 6.95833 12.3111 6.975 11.4444C6.99167 10.5778 6.98333 9.74444 6.95 8.94444C6.95 8.62778 6.94167 8.29445 6.925 7.94445C6.90833 7.57778 6.875 7.21944 6.825 6.86944C6.79167 6.51944 6.73333 6.18611 6.65 5.86944C6.56667 5.53611 6.45 5.24444 6.3 4.99444C6.13333 4.71111 5.93333 4.49444 5.7 4.34444C5.46667 4.19444 5.21667 4.13611 4.95 4.16945C4.66667 4.20278 4.4 4.30278 4.15 4.46944C3.91667 4.63611 3.725 4.88611 3.575 5.21945L3.35 5.74444C3.25 6.06111 3.175 6.39444 3.125 6.74444C3.075 7.07778 3.03333 7.41111 3 7.74444C2.96667 8.07778 2.94167 8.41944 2.925 8.76944C2.90833 9.11944 2.9 9.46111 2.9 9.79445C2.91667 10.1278 2.90833 10.4528 2.875 10.7694C2.85833 11.0861 2.86667 11.4111 2.9 11.7444C2.93333 12.1778 2.975 12.6444 3.025 13.1444C3.09167 13.6444 3.19167 14.1194 3.325 14.5694C3.475 15.0028 3.675 15.3694 3.925 15.6694C4.175 15.9528 4.50833 16.0944 4.925 16.0944Z" fill="black"/>
<path d="M36.1262 10.0194C36.4095 10.0361 36.6929 10.0778 36.9762 10.1444C37.2762 10.2111 37.5429 10.3361 37.7762 10.5194C38.0095 10.7028 38.1262 10.9611 38.1262 11.2944C38.1262 11.4611 38.0929 11.6361 38.0262 11.8194C37.9762 12.0028 37.9012 12.1361 37.8012 12.2194C37.6679 12.3528 37.4929 12.4528 37.2762 12.5194C37.0762 12.5694 36.8762 12.6111 36.6762 12.6444C36.4762 12.6611 36.3012 12.6694 36.1512 12.6694C36.0179 12.6694 35.9429 12.6694 35.9262 12.6694L22.6012 12.6944C22.2179 12.7111 21.8179 12.7111 21.4012 12.6944C21.0012 12.6778 20.6595 12.5528 20.3762 12.3194C19.9929 12.0361 19.8012 11.7278 19.8012 11.3944C19.8012 11.1611 19.8762 10.9278 20.0262 10.6944C20.1929 10.4444 20.4095 10.2778 20.6762 10.1944C21.0262 10.0778 21.3845 10.0278 21.7512 10.0444C22.1179 10.0444 22.4929 10.0361 22.8762 10.0194C23.2762 10.0028 23.6179 9.99444 23.9012 9.99444C24.2012 9.99444 24.4845 9.99444 24.7512 9.99444C25.0345 9.99444 25.3262 10.0028 25.6262 10.0194C25.9262 10.0194 26.2845 10.0194 26.7012 10.0194V8.59445C26.0012 8.57778 25.3262 8.56944 24.6762 8.56944C24.0429 8.55278 23.5679 8.53611 23.2512 8.51945C23.0512 8.51945 22.8179 8.51111 22.5512 8.49444C22.2845 8.47778 22.0262 8.43611 21.7762 8.36944C21.5429 8.30278 21.3262 8.20278 21.1262 8.06944C20.9429 7.93611 20.8179 7.75278 20.7512 7.51944C20.7012 7.33611 20.6595 7.19444 20.6262 7.09444C20.6095 6.99445 20.5845 6.90278 20.5512 6.81945C20.5345 6.73611 20.5179 6.64444 20.5012 6.54444C20.5012 6.44444 20.5012 6.29444 20.5012 6.09444V3.41944C20.5012 3.43611 20.4929 3.37778 20.4762 3.24445C20.4762 3.11111 20.4845 2.95278 20.5012 2.76944C20.5179 2.56944 20.5512 2.36111 20.6012 2.14444C20.6679 1.91111 20.7512 1.71111 20.8512 1.54444C20.9512 1.37778 21.1095 1.24444 21.3262 1.14444C21.5595 1.04444 21.7845 0.969444 22.0012 0.919444C22.2345 0.869444 22.4429 0.844445 22.6262 0.844445C22.8095 0.827778 22.9262 0.819445 22.9762 0.819445H33.9762C34.3262 0.819445 34.6845 0.819445 35.0512 0.819445C35.4345 0.819445 35.7929 0.886111 36.1262 1.01944C36.4095 1.13611 36.6012 1.32778 36.7012 1.59444C36.8012 1.86111 36.8429 2.14444 36.8262 2.44444C36.7929 2.72778 36.6845 2.96944 36.5012 3.16944C36.3345 3.36944 36.1095 3.51111 35.8262 3.59444C35.5595 3.66111 35.0929 3.69444 34.4262 3.69444H33.8762C33.7929 3.69444 33.7179 3.68611 33.6512 3.66944H24.8012C24.7179 3.65278 24.5929 3.65278 24.4262 3.66944C24.2762 3.66944 24.1595 3.69444 24.0762 3.74444C24.0262 3.76111 23.9929 3.86111 23.9762 4.04445C23.9595 4.22778 23.9512 4.42778 23.9512 4.64444C23.9512 4.84444 23.9512 5.04444 23.9512 5.24444C23.9679 5.42778 23.9845 5.54444 24.0012 5.59444C24.0679 5.71111 24.2095 5.77778 24.4262 5.79445C24.6429 5.79445 24.8429 5.78611 25.0262 5.76944C25.2262 5.76944 25.4845 5.76944 25.8012 5.76944C26.1179 5.76944 26.5512 5.76944 27.1012 5.76944C27.6512 5.76944 28.3512 5.76944 29.2012 5.76944C30.0512 5.76944 31.1012 5.76944 32.3512 5.76944H34.2012C34.6179 5.76944 34.9929 5.77778 35.3262 5.79445C35.6762 5.79445 35.9929 5.86111 36.2762 5.99444C36.6095 6.14444 36.8345 6.42778 36.9512 6.84444C37.0345 7.26111 36.9512 7.63611 36.7012 7.96944C36.4345 8.30278 36.1429 8.47778 35.8262 8.49444C35.5262 8.51111 35.1929 8.52778 34.8262 8.54445C34.6929 8.54445 34.4429 8.55278 34.0762 8.56944C33.7262 8.56944 33.3262 8.57778 32.8762 8.59445C32.4429 8.59445 31.9845 8.59445 31.5012 8.59445C31.0179 8.59445 30.5845 8.59445 30.2012 8.59445C30.2179 8.82778 30.2262 9.07778 30.2262 9.34445C30.2429 9.59444 30.2512 9.81945 30.2512 10.0194C30.7179 10.0194 31.2179 10.0194 31.7512 10.0194C32.2845 10.0028 32.8179 9.99444 33.3512 9.99444C33.8845 9.99444 34.3929 9.99444 34.8762 9.99444C35.3595 9.99444 35.7762 10.0028 36.1262 10.0194ZM20.6012 17.3194C20.6012 16.6194 20.8179 16.0444 21.2512 15.5944C21.6845 15.1278 22.2679 14.7694 23.0012 14.5194C23.7345 14.2528 24.5929 14.0694 25.5762 13.9694C26.5762 13.8694 27.6429 13.8194 28.7762 13.8194C29.9095 13.8194 30.9679 13.8528 31.9512 13.9194C32.9512 13.9861 33.8179 14.1444 34.5512 14.3944C35.3012 14.6278 35.8929 14.9778 36.3262 15.4444C36.7595 15.9111 36.9762 16.5361 36.9762 17.3194C36.9762 18.1028 36.7595 18.7278 36.3262 19.1944C35.8929 19.6444 35.3012 19.9861 34.5512 20.2194C33.8179 20.4694 32.9512 20.6278 31.9512 20.6944C30.9679 20.7778 29.9095 20.8194 28.7762 20.8194C27.6429 20.8194 26.5762 20.7778 25.5762 20.6944C24.5929 20.6278 23.7345 20.4694 23.0012 20.2194C22.2679 19.9861 21.6845 19.6444 21.2512 19.1944C20.8179 18.7278 20.6012 18.1028 20.6012 17.3194ZM33.6762 17.3194C33.6762 17.0528 33.5262 16.8528 33.2262 16.7194C32.9429 16.5694 32.5595 16.4611 32.0762 16.3944C31.6095 16.3278 31.0845 16.2944 30.5012 16.2944C29.9179 16.2778 29.3429 16.2694 28.7762 16.2694C28.2095 16.2694 27.6429 16.2778 27.0762 16.2944C26.5095 16.2944 26.0012 16.3278 25.5512 16.3944C25.1012 16.4611 24.7345 16.5694 24.4512 16.7194C24.1845 16.8528 24.0512 17.0528 24.0512 17.3194C24.0512 17.5528 24.1845 17.7444 24.4512 17.8944C24.7345 18.0278 25.1012 18.1361 25.5512 18.2194C26.0012 18.2861 26.5095 18.3278 27.0762 18.3444C27.6429 18.3611 28.2095 18.3694 28.7762 18.3694C29.3429 18.3694 29.9179 18.3778 30.5012 18.3944C31.0845 18.3944 31.6095 18.3694 32.0762 18.3194C32.5595 18.2694 32.9429 18.1694 33.2262 18.0194C33.5262 17.8694 33.6762 17.6361 33.6762 17.3194Z" fill="black"/>
<path d="M54.6048 6.29444L53.2548 7.64444C52.8881 7.99444 52.5215 8.33611 52.1548 8.66945C51.7881 9.00278 51.4131 9.33611 51.0298 9.66945C50.9965 9.70278 50.9631 9.73611 50.9298 9.76944C50.8965 9.78611 50.8631 9.81111 50.8298 9.84445C50.5131 10.1278 50.1965 10.4278 49.8798 10.7444C49.5798 11.0611 49.2131 11.2861 48.7798 11.4194C48.4798 11.5028 48.1548 11.4944 47.8048 11.3944C47.4548 11.2944 47.1881 11.1194 47.0048 10.8694C46.8715 10.6694 46.8048 10.4694 46.8048 10.2694C46.8048 10.0694 46.8381 9.87778 46.9048 9.69444C46.9881 9.49444 47.0881 9.30278 47.2048 9.11944C47.3215 8.93611 47.4465 8.76944 47.5798 8.61944C48.0798 8.03611 48.5965 7.48611 49.1298 6.96944C49.6798 6.43611 50.2381 5.91944 50.8048 5.41944C50.9881 5.26944 51.1965 5.06944 51.4298 4.81944C51.6631 4.55278 51.8881 4.29444 52.1048 4.04445C52.3548 3.74444 52.6131 3.44445 52.8798 3.14444C52.8465 2.76111 52.8381 2.39444 52.8548 2.04444C52.8715 1.74444 52.9131 1.44444 52.9798 1.14444C53.0465 0.844444 53.1715 0.602777 53.3548 0.419444C53.5715 0.219444 53.8798 0.094444 54.2798 0.0444446C54.6798 -0.0222222 55.0131 -0.013889 55.2798 0.0694443C55.6631 0.186111 55.9298 0.386111 56.0798 0.669444C56.2465 0.952778 56.3548 1.28611 56.4048 1.66944C56.4215 1.98611 56.4215 2.26111 56.4048 2.49444C56.4048 2.71111 56.4965 2.95278 56.6798 3.21944C56.8131 3.41944 56.9631 3.61111 57.1298 3.79444C57.3131 3.97778 57.4881 4.16111 57.6548 4.34444C58.2381 4.99444 58.8048 5.61945 59.3548 6.21944C59.9215 6.81944 60.5048 7.43611 61.1048 8.06944C61.3048 8.26944 61.4965 8.51944 61.6798 8.81944C61.8631 9.11944 61.9881 9.42778 62.0548 9.74444C62.1381 10.0444 62.1298 10.3361 62.0298 10.6194C61.9465 10.8861 61.7298 11.1028 61.3798 11.2694C61.1298 11.3861 60.8881 11.4361 60.6548 11.4194C60.4215 11.3861 60.1965 11.3194 59.9798 11.2194C59.7631 11.1028 59.5548 10.9611 59.3548 10.7944C59.1715 10.6278 59.0048 10.4611 58.8548 10.2944L54.6048 6.29444ZM47.3798 15.9944C46.9965 15.9778 46.6298 15.9278 46.2798 15.8444C45.9465 15.7444 45.6715 15.5278 45.4548 15.1944C45.2715 14.9111 45.1798 14.6111 45.1798 14.2944C45.1965 13.9611 45.3215 13.6778 45.5548 13.4444C45.6881 13.3111 45.8548 13.2111 46.0548 13.1444C46.2548 13.0778 46.4465 13.0278 46.6298 12.9944C46.8131 12.9611 46.9715 12.9444 47.1048 12.9444C47.2548 12.9444 47.3381 12.9444 47.3548 12.9444H61.2298C61.4965 12.9278 61.7798 12.9278 62.0798 12.9444C62.3965 12.9611 62.6881 13.0194 62.9548 13.1194C63.2215 13.2028 63.4465 13.3528 63.6298 13.5694C63.8131 13.7694 63.9048 14.0528 63.9048 14.4194C63.9048 14.8361 63.7631 15.1528 63.4798 15.3694C63.1965 15.5694 62.8548 15.7194 62.4548 15.8194C62.0715 15.9028 61.6715 15.9528 61.2548 15.9694C60.8381 15.9694 60.4965 15.9694 60.2298 15.9694H59.2548C58.9215 15.9861 58.5965 15.9944 58.2798 15.9944C57.9631 15.9778 57.6381 15.9694 57.3048 15.9694H56.3548C56.3715 16.4361 56.3881 16.9278 56.4048 17.4444C56.4215 17.9611 56.3965 18.4194 56.3298 18.8194C56.2965 19.1361 56.2131 19.4361 56.0798 19.7194C55.9631 20.0194 55.7631 20.2611 55.4798 20.4444C55.2298 20.6111 54.9381 20.6944 54.6048 20.6944C54.2715 20.7111 53.9715 20.6444 53.7048 20.4944C53.4881 20.3611 53.3215 20.1694 53.2048 19.9194C53.1048 19.6694 53.0381 19.4278 53.0048 19.1944C52.9715 19.0111 52.9548 18.8111 52.9548 18.5944C52.9715 18.3778 52.9798 18.1778 52.9798 17.9944C52.9631 17.6944 52.9548 17.3694 52.9548 17.0194C52.9548 16.6528 52.9548 16.2944 52.9548 15.9444H52.3298C51.8631 15.9444 51.4298 15.9528 51.0298 15.9694C50.6298 15.9694 50.2381 15.9778 49.8548 15.9944C49.4715 15.9944 49.0798 15.9944 48.6798 15.9944C48.2798 15.9944 47.8465 15.9944 47.3798 15.9944Z" fill="black"/>
<path d="M65.8306 16.4944C65.8306 15.7444 66.0473 15.1194 66.4806 14.6194C66.9306 14.1194 67.5306 13.7194 68.2806 13.4194C69.0306 13.1194 69.914 12.9111 70.9306 12.7944C71.9473 12.6611 73.0306 12.5944 74.1806 12.5944C75.3306 12.5944 76.414 12.6444 77.4306 12.7444C78.4473 12.8278 79.3306 13.0111 80.0806 13.2944C80.8306 13.5611 81.4223 13.9528 81.8556 14.4694C82.3056 14.9694 82.5306 15.6444 82.5306 16.4944C82.5306 17.3278 82.3056 18.0028 81.8556 18.5194C81.4223 19.0194 80.8306 19.4111 80.0806 19.6944C79.3306 19.9778 78.4473 20.1611 77.4306 20.2444C76.414 20.3444 75.3306 20.3944 74.1806 20.3944C73.0306 20.3944 71.9473 20.3444 70.9306 20.2444C69.914 20.1611 69.0306 19.9778 68.2806 19.6944C67.5306 19.4111 66.9306 19.0194 66.4806 18.5194C66.0473 18.0028 65.8306 17.3278 65.8306 16.4944ZM73.6306 8.01944C73.914 8.01944 74.2056 8.03611 74.5056 8.06944C74.8056 8.10278 75.1223 8.18611 75.4556 8.31944C75.6223 8.38611 75.7556 8.47778 75.8556 8.59445C75.9556 8.71111 76.0306 8.83611 76.0806 8.96944C76.1306 9.10278 76.1556 9.23611 76.1556 9.36944C76.1723 9.48611 76.1806 9.58611 76.1806 9.66945C76.1473 10.0028 76.0306 10.2694 75.8306 10.4694C75.6473 10.6694 75.4056 10.8278 75.1056 10.9444C74.8056 11.0611 74.4723 11.1444 74.1056 11.1944C73.739 11.2278 73.3723 11.2444 73.0056 11.2444H68.7306C68.4306 11.2444 68.1223 11.2444 67.8056 11.2444C67.5056 11.2444 67.214 11.2194 66.9306 11.1694C66.664 11.1194 66.4223 11.0444 66.2056 10.9444C65.989 10.8278 65.814 10.6694 65.6806 10.4694C65.5306 10.2528 65.4223 9.98611 65.3556 9.66945C65.3056 9.33611 65.264 9.01944 65.2306 8.71944C65.214 8.40278 65.2056 8.13611 65.2056 7.91944C65.2223 7.68611 65.2306 7.55278 65.2306 7.51944L65.2806 3.01944C65.2806 2.96944 65.2806 2.87778 65.2806 2.74444C65.2806 2.61111 65.289 2.46944 65.3056 2.31945C65.3223 2.15278 65.3473 1.98611 65.3806 1.81944C65.414 1.65278 65.464 1.51944 65.5306 1.41944C65.6806 1.18611 65.8306 1.01111 65.9806 0.894444C66.1473 0.777778 66.364 0.702778 66.6306 0.669444C66.964 0.602777 67.4473 0.569444 68.0806 0.569444C68.1306 0.569444 68.2723 0.569444 68.5056 0.569444C68.7556 0.569444 69.039 0.577778 69.3556 0.594445C69.689 0.594445 70.039 0.602778 70.4056 0.619445C70.7723 0.619445 71.114 0.627778 71.4306 0.644444C71.764 0.644444 72.0473 0.652778 72.2806 0.669444C72.5306 0.669444 72.6806 0.669444 72.7306 0.669444C72.9473 0.669444 73.1723 0.677777 73.4056 0.694444C73.639 0.694444 73.864 0.719444 74.0806 0.769444C74.2973 0.819445 74.4973 0.902778 74.6806 1.01944C74.8806 1.11944 75.0473 1.27778 75.1806 1.49444C75.364 1.77778 75.4473 2.08611 75.4306 2.41944C75.4306 2.75278 75.3306 3.06111 75.1306 3.34444C74.9473 3.62778 74.714 3.80278 74.4306 3.86944C74.164 3.91944 73.889 3.94445 73.6056 3.94445L68.7056 3.91944C68.739 3.91944 68.739 4.11111 68.7056 4.49444C68.689 4.86111 68.6723 5.31111 68.6556 5.84444C68.6556 6.46111 68.664 6.96111 68.6806 7.34444C68.6973 7.71111 68.7223 7.91111 68.7556 7.94445C68.9723 7.96111 69.3056 7.97778 69.7556 7.99444C70.2056 8.01111 70.6806 8.01944 71.1806 8.01944C71.6806 8.01944 72.1556 8.01944 72.6056 8.01944C73.0723 8.01944 73.414 8.01944 73.6306 8.01944ZM81.8306 7.96944V10.2444C81.814 10.4278 81.789 10.6194 81.7556 10.8194C81.7223 11.0028 81.6556 11.1861 81.5556 11.3694C81.4556 11.5694 81.314 11.7361 81.1306 11.8694C80.9973 11.9528 80.839 12.0194 80.6556 12.0694C80.489 12.1028 80.339 12.1194 80.2056 12.1194C80.0723 12.1194 79.9306 12.1111 79.7806 12.0944C79.6306 12.0611 79.5056 12.0111 79.4056 11.9444C79.239 11.8444 79.1056 11.7194 79.0056 11.5694C78.9056 11.4194 78.8223 11.2778 78.7556 11.1444C78.7056 10.9944 78.6723 10.8694 78.6556 10.7694C78.639 10.6528 78.6306 10.5944 78.6306 10.5944V2.09444C78.614 2.02778 78.6223 1.84444 78.6556 1.54444C78.689 1.24444 78.7556 0.994444 78.8556 0.794444C78.939 0.627777 79.0806 0.494444 79.2806 0.394445C79.4973 0.294445 79.7223 0.227778 79.9556 0.194444C80.239 0.161111 80.5223 0.177778 80.8056 0.244445C81.089 0.311111 81.2973 0.419444 81.4306 0.569444C81.6306 0.836111 81.7473 1.11111 81.7806 1.39445C81.814 1.66111 81.8306 2.01944 81.8306 2.46944V5.19444C81.8973 5.19444 82.0223 5.20278 82.2056 5.21945C82.389 5.21945 82.5806 5.22778 82.7806 5.24444C82.9806 5.24444 83.1723 5.25278 83.3556 5.26944C83.539 5.28611 83.6723 5.30278 83.7556 5.31945C84.089 5.38611 84.3223 5.48611 84.4556 5.61944C84.589 5.73611 84.6723 5.88611 84.7056 6.06944C84.7556 6.25278 84.7806 6.46944 84.7806 6.71945C84.7806 6.95278 84.7306 7.15278 84.6306 7.31944C84.4306 7.65278 84.1306 7.84444 83.7306 7.89444C83.3306 7.92778 82.889 7.95278 82.4056 7.96944H81.8306ZM79.1556 16.4944C79.1556 16.2111 79.0056 15.9861 78.7056 15.8194C78.4056 15.6361 78.014 15.5028 77.5306 15.4194C77.064 15.3194 76.5306 15.2611 75.9306 15.2444C75.3473 15.2111 74.764 15.1944 74.1806 15.1944C73.5973 15.1944 73.014 15.2111 72.4306 15.2444C71.864 15.2611 71.3473 15.3194 70.8806 15.4194C70.4306 15.5028 70.064 15.6361 69.7806 15.8194C69.4973 15.9861 69.3556 16.2111 69.3556 16.4944C69.3556 16.7444 69.4973 16.9528 69.7806 17.1194C70.064 17.2861 70.4306 17.4194 70.8806 17.5194C71.3473 17.6194 71.864 17.6861 72.4306 17.7194C73.014 17.7528 73.5973 17.7694 74.1806 17.7694C74.764 17.7694 75.3473 17.7694 75.9306 17.7694C76.5306 17.7528 77.064 17.7111 77.5306 17.6444C78.014 17.5611 78.4056 17.4361 78.7056 17.2694C79.0056 17.0861 79.1556 16.8278 79.1556 16.4944Z" fill="black"/>
</svg>
