<svg width="81" height="10" viewBox="0 0 81 10" fill="none" xmlns="http://www.w3.org/2000/svg">
<path d="M2.448 0.108C2.552 0.108 2.652 0.112 2.748 0.12C2.844 0.128 2.94 0.14 3.036 0.156C3.34 0.204 3.608 0.344 3.84 0.576C4.032 0.784 4.188 1.024 4.308 1.296C4.436 1.56 4.536 1.84 4.608 2.136C4.68 2.432 4.732 2.736 4.764 3.048C4.796 3.352 4.82 3.648 4.836 3.936C4.852 4.304 4.856 4.672 4.848 5.04C4.84 5.408 4.816 5.772 4.776 6.132C4.736 6.508 4.676 6.888 4.596 7.272C4.524 7.648 4.388 7.988 4.188 8.292C4.02 8.548 3.812 8.76 3.564 8.928C3.316 9.088 3.056 9.196 2.784 9.252C2.536 9.3 2.284 9.308 2.028 9.276C1.772 9.244 1.528 9.16 1.296 9.024C1.08 8.896 0.896 8.736 0.744 8.544C0.6 8.352 0.472 8.128 0.36 7.872C0.2 7.488 0.108 7.092 0.084 6.684C0.052 6.348 0.028 6.012 0.012 5.676C0.00400001 5.34 0 5.004 0 4.668C0 4.22 0.024 3.772 0.072 3.324C0.088 3.14 0.104 2.96 0.12 2.784C0.136 2.6 0.16 2.42 0.192 2.244C0.224 2.1 0.252 1.964 0.276 1.836C0.3 1.708 0.344 1.576 0.408 1.44C0.472 1.304 0.54 1.176 0.612 1.056C0.692 0.936 0.784 0.828 0.888 0.732C1.064 0.556 1.26 0.42 1.476 0.324C1.692 0.228 1.916 0.164 2.148 0.132C2.196 0.124 2.244 0.12 2.292 0.12C2.348 0.12 2.4 0.116 2.448 0.108ZM8.268 8.7C8.252 8.796 8.24 8.892 8.232 8.988C8.224 9.076 8.204 9.168 8.172 9.264C8.156 9.296 8.144 9.324 8.136 9.348C8.128 9.372 8.116 9.4 8.1 9.432C8.044 9.544 7.972 9.632 7.884 9.696C7.7 9.808 7.496 9.836 7.272 9.78C7.144 9.756 7.04 9.708 6.96 9.636C6.888 9.572 6.832 9.488 6.792 9.384C6.76 9.288 6.732 9.192 6.708 9.096C6.692 9 6.684 8.916 6.684 8.844C6.684 8.772 6.684 8.732 6.684 8.724V1.464C6.684 1.368 6.684 1.264 6.684 1.152C6.684 1.04 6.692 0.927999 6.708 0.816C6.724 0.704 6.748 0.6 6.78 0.504C6.812 0.408 6.856 0.332 6.912 0.276C7 0.188 7.092 0.136 7.188 0.12C7.284 0.0959997 7.388 0.0839996 7.5 0.0839996C7.636 0.0839996 7.76 0.124 7.872 0.204C7.992 0.276 8.076 0.38 8.124 0.516C8.196 0.684 8.236 0.86 8.244 1.044C8.252 1.228 8.26 1.412 8.268 1.596V1.656C8.284 2.272 8.288 2.904 8.28 3.552C8.272 4.2 8.268 4.812 8.268 5.388V8.268C8.268 8.34 8.268 8.412 8.268 8.484C8.276 8.556 8.276 8.628 8.268 8.7ZM2.412 7.656C2.564 7.656 2.712 7.608 2.856 7.512C2.992 7.416 3.088 7.288 3.144 7.128C3.2 6.968 3.248 6.792 3.288 6.6C3.352 6.232 3.388 5.84 3.396 5.424C3.404 5.008 3.4 4.608 3.384 4.224C3.384 4.072 3.38 3.912 3.372 3.744C3.364 3.568 3.348 3.396 3.324 3.228C3.308 3.06 3.28 2.9 3.24 2.748C3.2 2.588 3.144 2.448 3.072 2.328C2.992 2.192 2.896 2.088 2.784 2.016C2.672 1.944 2.552 1.916 2.424 1.932C2.288 1.948 2.164 1.996 2.052 2.076C1.94 2.156 1.848 2.276 1.776 2.436L1.668 2.688C1.62 2.84 1.584 3 1.56 3.168C1.536 3.328 1.516 3.488 1.5 3.648C1.484 3.808 1.472 3.972 1.464 4.14C1.456 4.308 1.452 4.472 1.452 4.632C1.46 4.792 1.456 4.948 1.44 5.1C1.432 5.252 1.436 5.408 1.452 5.568C1.468 5.776 1.488 6 1.512 6.24C1.544 6.48 1.592 6.708 1.656 6.924C1.72 7.132 1.812 7.308 1.932 7.452C2.052 7.588 2.212 7.656 2.412 7.656Z" fill="#EDA1A1"/>
<path d="M12.8768 1.608C12.8768 1.608 12.8728 1.668 12.8648 1.788C12.8648 1.908 12.8648 2.044 12.8648 2.196C12.8648 2.348 12.8648 2.488 12.8648 2.616C12.8728 2.744 12.8768 2.816 12.8768 2.832C12.9168 2.872 12.9888 2.94 13.0928 3.036C13.1968 3.124 13.2848 3.2 13.3568 3.264C13.4368 3.328 13.5168 3.4 13.5968 3.48C13.6848 3.552 13.7728 3.632 13.8608 3.72C13.9168 3.776 13.9688 3.832 14.0168 3.888C14.0648 3.936 14.1088 3.98 14.1488 4.02C14.3008 4.172 14.4528 4.336 14.6048 4.512C14.7568 4.688 14.8608 4.868 14.9168 5.052C14.9408 5.124 14.9448 5.204 14.9288 5.292C14.9128 5.38 14.8608 5.456 14.7728 5.52C14.6368 5.6 14.4928 5.64 14.3408 5.64C14.1648 5.64 13.9968 5.604 13.8368 5.532C13.6768 5.46 13.5488 5.388 13.4528 5.316C13.3008 5.204 13.1608 5.088 13.0328 4.968C12.9048 4.84 12.7768 4.712 12.6488 4.584C12.5608 4.496 12.4608 4.396 12.3488 4.284C12.2368 4.164 12.1248 4.06 12.0128 3.972L11.6888 4.296C11.6328 4.352 11.5768 4.408 11.5208 4.464C11.4648 4.512 11.4128 4.564 11.3648 4.62C11.2608 4.732 11.1528 4.848 11.0408 4.968C10.9288 5.08 10.8008 5.188 10.6568 5.292C10.3288 5.532 10.0208 5.652 9.73276 5.652C9.69276 5.652 9.65676 5.652 9.62476 5.652C9.60076 5.652 9.56876 5.644 9.52876 5.628C9.35276 5.588 9.23676 5.516 9.18076 5.412C9.12476 5.324 9.10476 5.224 9.12076 5.112C9.14476 5 9.18076 4.9 9.22876 4.812C9.29276 4.724 9.36476 4.64 9.44476 4.56C9.52476 4.472 9.60476 4.384 9.68476 4.296C9.75676 4.216 9.86876 4.104 10.0208 3.96C10.1808 3.808 10.3408 3.656 10.5008 3.504C10.6608 3.344 10.8088 3.2 10.9448 3.072C11.0808 2.944 11.1648 2.864 11.1968 2.832V1.608H10.4288C10.3328 1.608 10.2208 1.612 10.0928 1.62C9.96476 1.62 9.83676 1.612 9.70876 1.596C9.58876 1.58 9.47676 1.548 9.37276 1.5C9.26876 1.444 9.19276 1.356 9.14476 1.236C9.10476 1.148 9.07676 1.048 9.06076 0.936C9.05276 0.824 9.06076 0.72 9.08476 0.624C9.11676 0.512 9.18876 0.436 9.30076 0.396C9.41276 0.348 9.52076 0.316 9.62476 0.3C9.64076 0.3 9.70476 0.3 9.81676 0.3C9.93676 0.3 10.0648 0.3 10.2008 0.3C10.3368 0.3 10.4648 0.3 10.5848 0.3C10.7048 0.3 10.7768 0.296 10.8008 0.288H13.6088C13.9288 0.288 14.1968 0.308 14.4128 0.348C14.6368 0.388 14.8168 0.488 14.9528 0.648C14.9928 0.696 15.0168 0.76 15.0248 0.84C15.0408 0.92 15.0408 1.004 15.0248 1.092C15.0168 1.172 14.9928 1.248 14.9528 1.32C14.9208 1.392 14.8728 1.444 14.8088 1.476C14.7448 1.5 14.6688 1.528 14.5808 1.56C14.4928 1.584 14.4168 1.6 14.3528 1.608C14.2408 1.616 14.1248 1.62 14.0048 1.62C13.8928 1.612 13.7808 1.608 13.6688 1.608H12.8768ZM17.3528 8.4C17.3528 8.4 17.3768 8.408 17.4248 8.424C17.4808 8.44 17.5408 8.468 17.6048 8.508C17.6688 8.54 17.7288 8.588 17.7848 8.652C17.8408 8.708 17.8768 8.776 17.8928 8.856C17.9328 9.16 17.8808 9.396 17.7368 9.564C17.6408 9.676 17.5368 9.744 17.4248 9.768C17.3128 9.792 17.2528 9.804 17.2448 9.804H11.2328C10.9048 9.804 10.6488 9.752 10.4648 9.648C10.2808 9.552 10.1888 9.412 10.1888 9.228V7.56C10.1888 7.512 10.1848 7.452 10.1768 7.38C10.1768 7.308 10.1768 7.232 10.1768 7.152C10.1768 7.064 10.1768 6.984 10.1768 6.912C10.1848 6.84 10.1888 6.78 10.1888 6.732C10.2048 6.564 10.2848 6.428 10.4288 6.324C10.5728 6.22 10.7368 6.168 10.9208 6.168C10.9608 6.168 11.0088 6.172 11.0648 6.18C11.1288 6.18 11.1808 6.188 11.2208 6.204C11.3248 6.236 11.4088 6.292 11.4728 6.372C11.5368 6.444 11.5848 6.528 11.6168 6.624C11.6488 6.72 11.6688 6.824 11.6768 6.936C11.6848 7.04 11.6928 7.136 11.7008 7.224C11.7008 7.256 11.7008 7.332 11.7008 7.452C11.7008 7.564 11.7008 7.688 11.7008 7.824C11.7008 7.952 11.7008 8.072 11.7008 8.184C11.7008 8.288 11.7008 8.352 11.7008 8.376C11.7248 8.384 11.7888 8.396 11.8928 8.412C12.0048 8.42 12.2088 8.424 12.5048 8.424C12.7608 8.424 12.9888 8.42 13.1888 8.412C13.3888 8.404 13.4928 8.4 13.5008 8.4H17.3528ZM15.7328 3.756C15.5008 3.74 15.2928 3.728 15.1088 3.72C14.9248 3.704 14.7808 3.616 14.6768 3.456C14.6288 3.376 14.6048 3.276 14.6048 3.156C14.6048 3.036 14.6128 2.932 14.6288 2.844C14.6528 2.756 14.6968 2.684 14.7608 2.628C14.8248 2.564 14.9368 2.512 15.0968 2.472C15.1288 2.464 15.2008 2.46 15.3128 2.46C15.4248 2.452 15.5448 2.444 15.6728 2.436C15.8088 2.428 15.9328 2.424 16.0448 2.424C16.1568 2.416 16.2288 2.412 16.2608 2.412V1.14C16.2528 1.052 16.2488 0.964 16.2488 0.876C16.2568 0.788 16.2728 0.7 16.2968 0.612C16.3128 0.548 16.3288 0.488 16.3448 0.431999C16.3608 0.376 16.3968 0.316 16.4528 0.252C16.5168 0.172 16.6048 0.116 16.7168 0.0839996C16.8368 0.0519996 16.9648 0.0439997 17.1008 0.0599999C17.3568 0.0999999 17.5208 0.2 17.5928 0.36C17.6408 0.456 17.6688 0.576 17.6768 0.72C17.6928 0.856 17.7008 0.94 17.7008 0.972V5.844H17.6888C17.6888 5.852 17.6848 5.88 17.6768 5.928C17.6688 5.976 17.6528 6.036 17.6288 6.108C17.6048 6.172 17.5688 6.24 17.5208 6.312C17.4728 6.384 17.4088 6.444 17.3288 6.492C17.2168 6.556 17.1048 6.588 16.9928 6.588C16.8568 6.588 16.7248 6.544 16.5968 6.456C16.5008 6.392 16.4328 6.312 16.3928 6.216C16.3448 6.128 16.3128 6.04 16.2968 5.952C16.2808 5.864 16.2688 5.776 16.2608 5.688V3.756H15.7328Z" fill="#EDA1A1"/>
<path d="M28.525 8.328C28.525 8.528 28.517 8.688 28.501 8.808C28.493 8.928 28.457 9.08 28.393 9.264C28.353 9.384 28.293 9.484 28.213 9.564C28.133 9.644 28.005 9.684 27.829 9.684C27.781 9.684 27.721 9.676 27.649 9.66C27.577 9.652 27.521 9.632 27.481 9.6C27.401 9.552 27.337 9.476 27.289 9.372C27.249 9.26 27.217 9.144 27.193 9.024C27.169 8.904 27.153 8.788 27.145 8.676C27.145 8.564 27.145 8.476 27.145 8.412V5.532L26.617 5.52C26.545 5.52 26.465 5.512 26.377 5.496C26.297 5.472 26.217 5.44 26.137 5.4C26.065 5.352 26.001 5.292 25.945 5.22C25.889 5.14 25.857 5.04 25.849 4.92C25.833 4.776 25.841 4.624 25.873 4.464C25.913 4.304 26.025 4.18 26.209 4.092C26.281 4.052 26.361 4.028 26.449 4.02C26.545 4.004 26.633 4 26.713 4.008L27.145 3.996V1.224C27.145 1.12 27.145 1.016 27.145 0.912C27.145 0.8 27.157 0.692 27.181 0.588C27.197 0.548 27.209 0.512 27.217 0.48C27.233 0.447999 27.249 0.411999 27.265 0.372C27.313 0.292 27.361 0.232 27.409 0.192C27.457 0.144 27.525 0.104 27.613 0.0719998C27.653 0.056 27.693 0.0480001 27.733 0.0480001C27.781 0.0399997 27.825 0.0359995 27.865 0.0359995C28.001 0.0359995 28.109 0.0679996 28.189 0.132C28.277 0.196 28.353 0.284 28.417 0.396C28.449 0.444 28.469 0.512 28.477 0.6C28.493 0.688 28.505 0.78 28.513 0.876C28.521 0.964 28.525 1.044 28.525 1.116C28.525 1.18 28.525 1.22 28.525 1.236V8.328ZM30.433 9.348C30.385 9.452 30.309 9.54 30.205 9.612C30.117 9.668 30.037 9.7 29.965 9.708C29.901 9.724 29.817 9.72 29.713 9.696C29.593 9.672 29.493 9.62 29.413 9.54C29.341 9.468 29.285 9.384 29.245 9.288C29.205 9.192 29.177 9.088 29.161 8.976C29.145 8.864 29.137 8.756 29.137 8.652V1.356C29.137 1.268 29.137 1.168 29.137 1.056C29.137 0.936 29.145 0.824 29.161 0.72C29.177 0.608 29.197 0.504 29.221 0.408C29.253 0.312 29.297 0.236 29.353 0.18C29.441 0.0999999 29.521 0.0519998 29.593 0.0359995C29.673 0.0119998 29.769 0 29.881 0C30.017 0 30.133 0.04 30.229 0.12C30.325 0.192 30.397 0.292 30.445 0.42C30.517 0.588 30.557 0.76 30.565 0.936C30.573 1.112 30.581 1.292 30.589 1.476V1.536C30.605 2.144 30.609 2.768 30.601 3.408C30.593 4.04 30.589 4.64 30.589 5.208V8.208C30.589 8.416 30.581 8.616 30.565 8.808C30.557 9 30.513 9.18 30.433 9.348ZM26.593 1.812C26.577 1.844 26.533 1.872 26.461 1.896C26.325 1.96 26.197 1.984 26.077 1.968C25.957 1.952 25.825 1.96 25.681 1.992C25.697 2.104 25.705 2.208 25.705 2.304C25.713 2.392 25.717 2.468 25.717 2.532V7.68C25.717 7.672 25.745 7.672 25.801 7.68C25.857 7.688 25.917 7.7 25.981 7.716C26.053 7.724 26.117 7.736 26.173 7.752C26.237 7.768 26.277 7.776 26.293 7.776C26.469 7.808 26.601 7.86 26.689 7.932C26.777 7.996 26.809 8.144 26.785 8.376C26.769 8.568 26.733 8.712 26.677 8.808C26.621 8.896 26.545 8.956 26.449 8.988C26.361 9.012 26.257 9.024 26.137 9.024C26.025 9.016 25.897 9.012 25.753 9.012C25.569 9.02 25.385 9.024 25.201 9.024C25.017 9.016 24.837 9.012 24.661 9.012C24.517 9.012 24.393 9.012 24.289 9.012C24.193 9.012 24.097 9.012 24.001 9.012C23.905 9.012 23.805 9.016 23.701 9.024C23.605 9.024 23.489 9.024 23.353 9.024C23.161 9.024 22.969 9.024 22.777 9.024C22.593 9.024 22.405 9.02 22.213 9.012C22.125 9.012 22.025 9.004 21.913 8.988C21.801 8.972 21.697 8.944 21.601 8.904C21.505 8.856 21.421 8.792 21.349 8.712C21.277 8.632 21.233 8.528 21.217 8.4C21.201 8.216 21.225 8.08 21.289 7.992C21.361 7.896 21.453 7.832 21.565 7.8C21.685 7.76 21.809 7.74 21.937 7.74C22.073 7.732 22.193 7.72 22.297 7.704C22.297 7.632 22.293 7.524 22.285 7.38C22.285 7.236 22.285 7.088 22.285 6.936C22.285 6.776 22.285 6.628 22.285 6.492C22.285 6.348 22.285 6.24 22.285 6.168V2.7C22.285 2.676 22.277 2.596 22.261 2.46C22.253 2.324 22.253 2.168 22.261 1.992C22.149 1.984 22.045 1.98 21.949 1.98C21.861 1.98 21.773 1.968 21.685 1.944C21.605 1.92 21.529 1.88 21.457 1.824C21.393 1.76 21.333 1.668 21.277 1.548C21.189 1.364 21.185 1.196 21.265 1.044C21.345 0.884 21.465 0.772 21.625 0.707999C21.793 0.644 21.957 0.604 22.117 0.588C22.285 0.572 22.457 0.564 22.633 0.564C22.921 0.564 23.193 0.564 23.449 0.564C23.705 0.564 23.953 0.568 24.193 0.576C24.441 0.576 24.693 0.576 24.949 0.576C25.205 0.576 25.481 0.576 25.777 0.576C25.913 0.576 26.065 0.596 26.233 0.636C26.401 0.668 26.537 0.748 26.641 0.876C26.689 0.94 26.725 1.016 26.749 1.104C26.781 1.184 26.793 1.268 26.785 1.356C26.785 1.444 26.769 1.532 26.737 1.62C26.705 1.7 26.657 1.764 26.593 1.812ZM23.761 1.992C23.713 1.984 23.681 2 23.665 2.04C23.657 2.072 23.653 2.116 23.653 2.172C23.645 2.252 23.637 2.352 23.629 2.472C23.629 2.592 23.633 2.708 23.641 2.82L23.653 7.452C23.653 7.476 23.657 7.52 23.665 7.584C23.681 7.64 23.721 7.672 23.785 7.68H24.325V3.048C24.325 3.048 24.325 3.012 24.325 2.94C24.325 2.86 24.325 2.768 24.325 2.664C24.325 2.56 24.321 2.46 24.313 2.364C24.313 2.26 24.309 2.184 24.301 2.136C24.301 2.112 24.297 2.088 24.289 2.064C24.289 2.032 24.265 2.008 24.217 1.992H23.761Z" fill="#EDA1A1"/>
<path d="M33.7481 0.108C33.8521 0.108 33.9521 0.112 34.0481 0.12C34.1441 0.128 34.2401 0.14 34.3361 0.156C34.6401 0.204 34.9081 0.344 35.1401 0.576C35.3321 0.784 35.4881 1.024 35.6081 1.296C35.7361 1.56 35.8361 1.84 35.9081 2.136C35.9801 2.432 36.0321 2.736 36.0641 3.048C36.0961 3.352 36.1201 3.648 36.1361 3.936C36.1521 4.304 36.1561 4.672 36.1481 5.04C36.1401 5.408 36.1161 5.772 36.0761 6.132C36.0361 6.508 35.9761 6.888 35.8961 7.272C35.8241 7.648 35.6881 7.988 35.4881 8.292C35.3201 8.548 35.1121 8.76 34.8641 8.928C34.6161 9.088 34.3561 9.196 34.0841 9.252C33.8361 9.3 33.5841 9.308 33.3281 9.276C33.0721 9.244 32.8281 9.16 32.5961 9.024C32.3801 8.896 32.1961 8.736 32.0441 8.544C31.9001 8.352 31.7721 8.128 31.6601 7.872C31.5001 7.488 31.4081 7.092 31.3841 6.684C31.3521 6.348 31.3281 6.012 31.3121 5.676C31.3041 5.34 31.3001 5.004 31.3001 4.668C31.3001 4.22 31.3241 3.772 31.3721 3.324C31.3881 3.14 31.4041 2.96 31.4201 2.784C31.4361 2.6 31.4601 2.42 31.4921 2.244C31.5241 2.1 31.5521 1.964 31.5761 1.836C31.6001 1.708 31.6441 1.576 31.7081 1.44C31.7721 1.304 31.8401 1.176 31.9121 1.056C31.9921 0.936 32.0841 0.828 32.1881 0.732C32.3641 0.556 32.5601 0.42 32.7761 0.324C32.9921 0.228 33.2161 0.164 33.4481 0.132C33.4961 0.124 33.5441 0.12 33.5921 0.12C33.6481 0.12 33.7001 0.116 33.7481 0.108ZM39.5681 8.7C39.5521 8.796 39.5401 8.892 39.5321 8.988C39.5241 9.076 39.5041 9.168 39.4721 9.264C39.4561 9.296 39.4441 9.324 39.4361 9.348C39.4281 9.372 39.4161 9.4 39.4001 9.432C39.3441 9.544 39.2721 9.632 39.1841 9.696C39.0001 9.808 38.7961 9.836 38.5721 9.78C38.4441 9.756 38.3401 9.708 38.2601 9.636C38.1881 9.572 38.1321 9.488 38.0921 9.384C38.0601 9.288 38.0321 9.192 38.0081 9.096C37.9921 9 37.9841 8.916 37.9841 8.844C37.9841 8.772 37.9841 8.732 37.9841 8.724V1.464C37.9841 1.368 37.9841 1.264 37.9841 1.152C37.9841 1.04 37.9921 0.927999 38.0081 0.816C38.0241 0.704 38.0481 0.6 38.0801 0.504C38.1121 0.408 38.1561 0.332 38.2121 0.276C38.3001 0.188 38.3921 0.136 38.4881 0.12C38.5841 0.0959997 38.6881 0.0839996 38.8001 0.0839996C38.9361 0.0839996 39.0601 0.124 39.1721 0.204C39.2921 0.276 39.3761 0.38 39.4241 0.516C39.4961 0.684 39.5361 0.86 39.5441 1.044C39.5521 1.228 39.5601 1.412 39.5681 1.596V1.656C39.5841 2.272 39.5881 2.904 39.5801 3.552C39.5721 4.2 39.5681 4.812 39.5681 5.388V8.268C39.5681 8.34 39.5681 8.412 39.5681 8.484C39.5761 8.556 39.5761 8.628 39.5681 8.7ZM33.7121 7.656C33.8641 7.656 34.0121 7.608 34.1561 7.512C34.2921 7.416 34.3881 7.288 34.4441 7.128C34.5001 6.968 34.5481 6.792 34.5881 6.6C34.6521 6.232 34.6881 5.84 34.6961 5.424C34.7041 5.008 34.7001 4.608 34.6841 4.224C34.6841 4.072 34.6801 3.912 34.6721 3.744C34.6641 3.568 34.6481 3.396 34.6241 3.228C34.6081 3.06 34.5801 2.9 34.5401 2.748C34.5001 2.588 34.4441 2.448 34.3721 2.328C34.2921 2.192 34.1961 2.088 34.0841 2.016C33.9721 1.944 33.8521 1.916 33.7241 1.932C33.5881 1.948 33.4641 1.996 33.3521 2.076C33.2401 2.156 33.1481 2.276 33.0761 2.436L32.9681 2.688C32.9201 2.84 32.8841 3 32.8601 3.168C32.8361 3.328 32.8161 3.488 32.8001 3.648C32.7841 3.808 32.7721 3.972 32.7641 4.14C32.7561 4.308 32.7521 4.472 32.7521 4.632C32.7601 4.792 32.7561 4.948 32.7401 5.1C32.7321 5.252 32.7361 5.408 32.7521 5.568C32.7681 5.776 32.7881 6 32.8121 6.24C32.8441 6.48 32.8921 6.708 32.9561 6.924C33.0201 7.132 33.1121 7.308 33.2321 7.452C33.3521 7.588 33.5121 7.656 33.7121 7.656Z" fill="#EDA1A1"/>
<path d="M45.1369 0.636C45.4649 0.636 45.7449 0.664 45.9769 0.72C46.2089 0.776 46.3929 0.92 46.5289 1.152C46.6569 1.368 46.6769 1.584 46.5889 1.8C46.4769 2.024 46.2769 2.156 45.9889 2.196C45.7969 2.228 45.5769 2.248 45.3289 2.256C45.0809 2.256 44.7529 2.248 44.3449 2.232C44.3369 2.368 44.3329 2.512 44.3329 2.664C44.3329 2.808 44.3329 2.944 44.3329 3.072C44.3329 3.192 44.3329 3.296 44.3329 3.384C44.3409 3.472 44.3449 3.528 44.3449 3.552V4.896C44.3449 4.96 44.3489 5.048 44.3569 5.16C44.3649 5.264 44.3729 5.344 44.3809 5.4C44.4449 5.464 44.5329 5.56 44.6449 5.688C44.7569 5.808 44.8449 5.908 44.9089 5.988C44.9889 6.084 45.0689 6.184 45.1489 6.288C45.2369 6.392 45.3249 6.508 45.4129 6.636C45.4769 6.708 45.5329 6.78 45.5809 6.852C45.6289 6.924 45.6729 6.988 45.7129 7.044C45.8649 7.26 46.0209 7.496 46.1809 7.752C46.3409 8.008 46.4489 8.264 46.5049 8.52C46.5289 8.632 46.5289 8.756 46.5049 8.892C46.4889 9.02 46.4329 9.128 46.3369 9.216C46.2009 9.336 46.0489 9.396 45.8809 9.396C45.6969 9.396 45.5209 9.348 45.3529 9.252C45.1849 9.148 45.0489 9.04 44.9449 8.928C44.7929 8.768 44.6489 8.6 44.5129 8.424C44.3849 8.248 44.2569 8.076 44.1289 7.908C44.0409 7.78 43.9489 7.656 43.8529 7.536C43.7569 7.408 43.6569 7.284 43.5529 7.164C43.5369 7.132 43.5209 7.112 43.5049 7.104C43.5049 7.112 43.5009 7.116 43.4929 7.116C43.4929 7.116 43.4929 7.12 43.4929 7.128C43.4529 7.192 43.4049 7.256 43.3489 7.32C43.3009 7.376 43.2569 7.436 43.2169 7.5C43.1529 7.572 43.0929 7.648 43.0369 7.728C42.9889 7.8 42.9409 7.872 42.8929 7.944C42.7809 8.112 42.6689 8.28 42.5569 8.448C42.4449 8.608 42.3169 8.76 42.1729 8.904C41.8289 9.248 41.5049 9.42 41.2009 9.42C41.1209 9.42 41.0449 9.408 40.9729 9.384C40.7889 9.336 40.6649 9.224 40.6009 9.048C40.5369 8.912 40.5129 8.764 40.5289 8.604C40.5529 8.444 40.5929 8.304 40.6489 8.184C40.7129 8.048 40.7849 7.92 40.8649 7.8C40.9449 7.68 41.0289 7.56 41.1169 7.44C41.1729 7.368 41.2249 7.296 41.2729 7.224C41.3289 7.152 41.3769 7.08 41.4169 7.008C41.4889 6.888 41.5849 6.748 41.7049 6.588C41.8329 6.42 41.9569 6.26 42.0769 6.108C42.2049 5.948 42.3209 5.804 42.4249 5.676C42.5289 5.548 42.6009 5.456 42.6409 5.4V2.232H41.9089C41.6049 2.232 41.3929 2.232 41.2729 2.232C41.1609 2.224 41.0769 2.212 41.0209 2.196C40.7169 2.148 40.5129 1.976 40.4089 1.68C40.3209 1.424 40.3529 1.2 40.5049 1.008C40.6409 0.816 40.8329 0.696 41.0809 0.648C41.1209 0.64 41.1609 0.636 41.2009 0.636C41.2409 0.628 41.2849 0.624 41.3329 0.624C41.4129 0.624 41.4689 0.628 41.5009 0.636H45.1369ZM49.1809 8.724C49.1649 8.82 49.1529 8.916 49.1449 9.012C49.1369 9.1 49.1169 9.192 49.0849 9.288C49.0689 9.32 49.0569 9.348 49.0489 9.372C49.0409 9.396 49.0289 9.424 49.0129 9.456C48.9569 9.568 48.8849 9.656 48.7969 9.72C48.6129 9.832 48.4089 9.86 48.1849 9.804C48.0569 9.78 47.9529 9.732 47.8729 9.66C47.8009 9.596 47.7449 9.512 47.7049 9.408C47.6729 9.312 47.6449 9.216 47.6209 9.12C47.6049 9.024 47.5969 8.94 47.5969 8.868C47.5969 8.796 47.5969 8.756 47.5969 8.748V1.464C47.5969 1.368 47.5969 1.264 47.5969 1.152C47.5969 1.04 47.6049 0.927999 47.6209 0.816C47.6369 0.704 47.6609 0.6 47.6929 0.504C47.7249 0.408 47.7689 0.332 47.8249 0.276C47.9129 0.188 48.0049 0.136 48.1009 0.12C48.1969 0.0959997 48.3009 0.0839996 48.4129 0.0839996C48.5489 0.0839996 48.6729 0.124 48.7849 0.204C48.9049 0.276 48.9889 0.38 49.0369 0.516C49.1089 0.684 49.1489 0.86 49.1569 1.044C49.1649 1.228 49.1729 1.412 49.1809 1.596V1.656C49.1969 2.272 49.2009 2.904 49.1929 3.552C49.1849 4.2 49.1809 4.812 49.1809 5.388V8.292C49.1809 8.364 49.1809 8.436 49.1809 8.508C49.1889 8.58 49.1889 8.652 49.1809 8.724Z" fill="#EDA1A1"/>
<path d="M57.9297 7.596C57.9537 7.604 57.9777 7.608 58.0017 7.608C58.0257 7.6 58.0497 7.596 58.0737 7.596C58.2097 7.612 58.3337 7.64 58.4457 7.68C58.5657 7.712 58.6817 7.776 58.7937 7.872C58.9057 7.984 58.9617 8.124 58.9617 8.292C58.9617 8.38 58.9457 8.476 58.9137 8.58C58.8897 8.676 58.8537 8.752 58.8057 8.808C58.7417 8.872 58.6617 8.92 58.5657 8.952C58.4697 8.984 58.3777 9.008 58.2897 9.024C58.2017 9.032 58.1217 9.036 58.0497 9.036C57.9857 9.036 57.9497 9.036 57.9417 9.036H51.2217C51.1817 9.036 51.1417 9.04 51.1017 9.048C51.0617 9.048 51.0217 9.048 50.9817 9.048C50.8137 9.056 50.6337 9.056 50.4417 9.048C50.2497 9.032 50.0857 8.968 49.9497 8.856C49.7817 8.704 49.6977 8.532 49.6977 8.34C49.6977 8.22 49.7337 8.096 49.8057 7.968C49.8777 7.84 49.9737 7.752 50.0937 7.704C50.2537 7.64 50.4177 7.608 50.5857 7.608C50.7617 7.608 50.9377 7.604 51.1137 7.596H51.1737C51.9417 7.58 52.7257 7.58 53.5257 7.596L53.5137 6.468H52.2657C52.1057 6.468 51.9377 6.468 51.7617 6.468C51.5937 6.468 51.4217 6.464 51.2457 6.456C51.0777 6.44 50.9377 6.356 50.8257 6.204C50.7137 6.052 50.6497 5.872 50.6337 5.664C50.6257 5.592 50.6177 5.476 50.6097 5.316C50.6097 5.156 50.6057 4.988 50.5977 4.812C50.5977 4.636 50.5977 4.472 50.5977 4.32C50.5977 4.168 50.5977 4.06 50.5977 3.996V3.708C50.5897 3.612 50.5897 3.512 50.5977 3.408C50.6137 3.296 50.6577 3.196 50.7297 3.108C50.8337 2.972 50.9777 2.888 51.1617 2.856C51.3537 2.816 51.5377 2.796 51.7137 2.796C51.7537 2.796 51.8177 2.8 51.9057 2.808C52.0017 2.816 52.0777 2.816 52.1337 2.808H56.3937V1.8H52.0137C51.9737 1.8 51.9297 1.804 51.8817 1.812C51.8337 1.812 51.7897 1.812 51.7497 1.812C51.7017 1.812 51.6497 1.816 51.5937 1.824C51.5457 1.824 51.4977 1.824 51.4497 1.824C51.2817 1.824 51.1457 1.808 51.0417 1.776C50.9057 1.744 50.7937 1.652 50.7057 1.5C50.6017 1.316 50.5737 1.12 50.6217 0.912C50.6617 0.768 50.7537 0.66 50.8977 0.588C51.0417 0.516 51.1577 0.472 51.2457 0.456C51.3097 0.44 51.3697 0.431999 51.4257 0.431999C51.4897 0.431999 51.5577 0.431999 51.6297 0.431999H52.0497C52.1777 0.431999 52.3337 0.436 52.5177 0.444C52.7097 0.444 52.9097 0.444 53.1177 0.444C53.3257 0.444 53.5337 0.444 53.7417 0.444C53.9577 0.436 54.1537 0.431999 54.3297 0.431999H56.7537C56.8897 0.431999 57.0257 0.436 57.1617 0.444C57.2977 0.452 57.4297 0.476 57.5577 0.516C57.7497 0.572 57.8737 0.696 57.9297 0.888C57.9857 1.072 58.0137 1.252 58.0137 1.428V3.012C58.0137 3.076 58.0057 3.16 57.9897 3.264C57.9817 3.368 57.9657 3.476 57.9417 3.588C57.9177 3.7 57.8817 3.808 57.8337 3.912C57.7937 4.008 57.7417 4.076 57.6777 4.116C57.5657 4.18 57.4577 4.22 57.3537 4.236C57.2497 4.244 57.1497 4.244 57.0537 4.236H52.3137V5.196H57.0657C57.1377 5.196 57.2057 5.196 57.2697 5.196C57.3417 5.196 57.4097 5.2 57.4737 5.208C57.5937 5.216 57.7017 5.252 57.7977 5.316C57.9017 5.372 57.9737 5.468 58.0137 5.604C58.0537 5.764 58.0457 5.916 57.9897 6.06C57.9417 6.204 57.8457 6.308 57.7017 6.372C57.6057 6.412 57.5057 6.44 57.4017 6.456C57.3057 6.464 57.2137 6.468 57.1257 6.468H55.0617L55.0737 7.596C55.2657 7.596 55.4417 7.596 55.6017 7.596C55.7697 7.588 55.9337 7.584 56.0937 7.584C56.2617 7.584 56.4257 7.588 56.5857 7.596C56.7537 7.596 56.9297 7.596 57.1137 7.596C57.2577 7.604 57.3977 7.604 57.5337 7.596C57.6697 7.58 57.8017 7.58 57.9297 7.596Z" fill="#EDA1A1"/>
<path d="M64.8256 0.108C64.9296 0.108 65.0296 0.112 65.1256 0.12C65.2216 0.128 65.3176 0.14 65.4136 0.156C65.7176 0.204 65.9856 0.344 66.2176 0.576C66.4096 0.784 66.5656 1.024 66.6856 1.296C66.8136 1.56 66.9136 1.84 66.9856 2.136C67.0576 2.432 67.1096 2.736 67.1416 3.048C67.1736 3.352 67.1976 3.648 67.2136 3.936C67.2296 4.304 67.2336 4.672 67.2256 5.04C67.2176 5.408 67.1936 5.772 67.1536 6.132C67.1136 6.508 67.0536 6.888 66.9736 7.272C66.9016 7.648 66.7656 7.988 66.5656 8.292C66.3976 8.548 66.1896 8.76 65.9416 8.928C65.6936 9.088 65.4336 9.196 65.1616 9.252C64.9136 9.3 64.6616 9.308 64.4056 9.276C64.1496 9.244 63.9056 9.16 63.6736 9.024C63.4576 8.896 63.2736 8.736 63.1216 8.544C62.9776 8.352 62.8496 8.128 62.7376 7.872C62.5776 7.488 62.4856 7.092 62.4616 6.684C62.4296 6.348 62.4056 6.012 62.3896 5.676C62.3816 5.34 62.3776 5.004 62.3776 4.668C62.3776 4.22 62.4016 3.772 62.4496 3.324C62.4656 3.14 62.4816 2.96 62.4976 2.784C62.5136 2.6 62.5376 2.42 62.5696 2.244C62.6016 2.1 62.6296 1.964 62.6536 1.836C62.6776 1.708 62.7216 1.576 62.7856 1.44C62.8496 1.304 62.9176 1.176 62.9896 1.056C63.0696 0.936 63.1616 0.828 63.2656 0.732C63.4416 0.556 63.6376 0.42 63.8536 0.324C64.0696 0.228 64.2936 0.164 64.5256 0.132C64.5736 0.124 64.6216 0.12 64.6696 0.12C64.7256 0.12 64.7776 0.116 64.8256 0.108ZM70.6456 8.7C70.6296 8.796 70.6176 8.892 70.6096 8.988C70.6016 9.076 70.5816 9.168 70.5496 9.264C70.5336 9.296 70.5216 9.324 70.5136 9.348C70.5056 9.372 70.4936 9.4 70.4776 9.432C70.4216 9.544 70.3496 9.632 70.2616 9.696C70.0776 9.808 69.8736 9.836 69.6496 9.78C69.5216 9.756 69.4176 9.708 69.3376 9.636C69.2656 9.572 69.2096 9.488 69.1696 9.384C69.1376 9.288 69.1096 9.192 69.0856 9.096C69.0696 9 69.0616 8.916 69.0616 8.844C69.0616 8.772 69.0616 8.732 69.0616 8.724V1.464C69.0616 1.368 69.0616 1.264 69.0616 1.152C69.0616 1.04 69.0696 0.927999 69.0856 0.816C69.1016 0.704 69.1256 0.6 69.1576 0.504C69.1896 0.408 69.2336 0.332 69.2896 0.276C69.3776 0.188 69.4696 0.136 69.5656 0.12C69.6616 0.0959997 69.7656 0.0839996 69.8776 0.0839996C70.0136 0.0839996 70.1376 0.124 70.2496 0.204C70.3696 0.276 70.4536 0.38 70.5016 0.516C70.5736 0.684 70.6136 0.86 70.6216 1.044C70.6296 1.228 70.6376 1.412 70.6456 1.596V1.656C70.6616 2.272 70.6656 2.904 70.6576 3.552C70.6496 4.2 70.6456 4.812 70.6456 5.388V8.268C70.6456 8.34 70.6456 8.412 70.6456 8.484C70.6536 8.556 70.6536 8.628 70.6456 8.7ZM64.7896 7.656C64.9416 7.656 65.0896 7.608 65.2336 7.512C65.3696 7.416 65.4656 7.288 65.5216 7.128C65.5776 6.968 65.6256 6.792 65.6656 6.6C65.7296 6.232 65.7656 5.84 65.7736 5.424C65.7816 5.008 65.7776 4.608 65.7616 4.224C65.7616 4.072 65.7576 3.912 65.7496 3.744C65.7416 3.568 65.7256 3.396 65.7016 3.228C65.6856 3.06 65.6576 2.9 65.6176 2.748C65.5776 2.588 65.5216 2.448 65.4496 2.328C65.3696 2.192 65.2736 2.088 65.1616 2.016C65.0496 1.944 64.9296 1.916 64.8016 1.932C64.6656 1.948 64.5416 1.996 64.4296 2.076C64.3176 2.156 64.2256 2.276 64.1536 2.436L64.0456 2.688C63.9976 2.84 63.9616 3 63.9376 3.168C63.9136 3.328 63.8936 3.488 63.8776 3.648C63.8616 3.808 63.8496 3.972 63.8416 4.14C63.8336 4.308 63.8296 4.472 63.8296 4.632C63.8376 4.792 63.8336 4.948 63.8176 5.1C63.8096 5.252 63.8136 5.408 63.8296 5.568C63.8456 5.776 63.8656 6 63.8896 6.24C63.9216 6.48 63.9696 6.708 64.0336 6.924C64.0976 7.132 64.1896 7.308 64.3096 7.452C64.4296 7.588 64.5896 7.656 64.7896 7.656Z" fill="#EDA1A1"/>
<path d="M79.2744 4.74C79.4104 4.748 79.5464 4.768 79.6824 4.8C79.8264 4.832 79.9544 4.892 80.0664 4.98C80.1784 5.068 80.2344 5.192 80.2344 5.352C80.2344 5.432 80.2184 5.516 80.1864 5.604C80.1624 5.692 80.1264 5.756 80.0784 5.796C80.0144 5.86 79.9304 5.908 79.8264 5.94C79.7304 5.964 79.6344 5.984 79.5384 6C79.4424 6.008 79.3584 6.012 79.2864 6.012C79.2224 6.012 79.1864 6.012 79.1784 6.012L72.7824 6.024C72.5984 6.032 72.4064 6.032 72.2064 6.024C72.0144 6.016 71.8504 5.956 71.7144 5.844C71.5304 5.708 71.4384 5.56 71.4384 5.4C71.4384 5.288 71.4744 5.176 71.5464 5.064C71.6264 4.944 71.7304 4.864 71.8584 4.824C72.0264 4.768 72.1984 4.744 72.3744 4.752C72.5504 4.752 72.7304 4.748 72.9144 4.74C73.1064 4.732 73.2704 4.728 73.4064 4.728C73.5504 4.728 73.6864 4.728 73.8144 4.728C73.9504 4.728 74.0904 4.732 74.2344 4.74C74.3784 4.74 74.5504 4.74 74.7504 4.74V4.056C74.4144 4.048 74.0904 4.044 73.7784 4.044C73.4744 4.036 73.2464 4.028 73.0944 4.02C72.9984 4.02 72.8864 4.016 72.7584 4.008C72.6304 4 72.5064 3.98 72.3864 3.948C72.2744 3.916 72.1704 3.868 72.0744 3.804C71.9864 3.74 71.9264 3.652 71.8944 3.54C71.8704 3.452 71.8504 3.384 71.8344 3.336C71.8264 3.288 71.8144 3.244 71.7984 3.204C71.7904 3.164 71.7824 3.12 71.7744 3.072C71.7744 3.024 71.7744 2.952 71.7744 2.856V1.572C71.7744 1.58 71.7704 1.552 71.7624 1.488C71.7624 1.424 71.7664 1.348 71.7744 1.26C71.7824 1.164 71.7984 1.064 71.8224 0.96C71.8544 0.848 71.8944 0.752 71.9424 0.672C71.9904 0.592 72.0664 0.528 72.1704 0.48C72.2824 0.432 72.3904 0.396 72.4944 0.372C72.6064 0.348 72.7064 0.336 72.7944 0.336C72.8824 0.328 72.9384 0.324 72.9624 0.324H78.2424C78.4104 0.324 78.5824 0.324 78.7584 0.324C78.9424 0.324 79.1144 0.356 79.2744 0.42C79.4104 0.476 79.5024 0.568 79.5504 0.696C79.5984 0.824 79.6184 0.96 79.6104 1.104C79.5944 1.24 79.5424 1.356 79.4544 1.452C79.3744 1.548 79.2664 1.616 79.1304 1.656C79.0024 1.688 78.7784 1.704 78.4584 1.704H78.1944C78.1544 1.704 78.1184 1.7 78.0864 1.692H73.8384C73.7984 1.684 73.7384 1.684 73.6584 1.692C73.5864 1.692 73.5304 1.704 73.4904 1.728C73.4664 1.736 73.4504 1.784 73.4424 1.872C73.4344 1.96 73.4304 2.056 73.4304 2.16C73.4304 2.256 73.4304 2.352 73.4304 2.448C73.4384 2.536 73.4464 2.592 73.4544 2.616C73.4864 2.672 73.5544 2.704 73.6584 2.712C73.7624 2.712 73.8584 2.708 73.9464 2.7C74.0424 2.7 74.1664 2.7 74.3184 2.7C74.4704 2.7 74.6784 2.7 74.9424 2.7C75.2064 2.7 75.5424 2.7 75.9504 2.7C76.3584 2.7 76.8624 2.7 77.4624 2.7H78.3504C78.5504 2.7 78.7304 2.704 78.8904 2.712C79.0584 2.712 79.2104 2.744 79.3464 2.808C79.5064 2.88 79.6144 3.016 79.6704 3.216C79.7104 3.416 79.6704 3.596 79.5504 3.756C79.4224 3.916 79.2824 4 79.1304 4.008C78.9864 4.016 78.8264 4.024 78.6504 4.032C78.5864 4.032 78.4664 4.036 78.2904 4.044C78.1224 4.044 77.9304 4.048 77.7144 4.056C77.5064 4.056 77.2864 4.056 77.0544 4.056C76.8224 4.056 76.6144 4.056 76.4304 4.056C76.4384 4.168 76.4424 4.288 76.4424 4.416C76.4504 4.536 76.4544 4.644 76.4544 4.74C76.6784 4.74 76.9184 4.74 77.1744 4.74C77.4304 4.732 77.6864 4.728 77.9424 4.728C78.1984 4.728 78.4424 4.728 78.6744 4.728C78.9064 4.728 79.1064 4.732 79.2744 4.74ZM71.8224 8.244C71.8224 7.908 71.9264 7.632 72.1344 7.416C72.3424 7.192 72.6224 7.02 72.9744 6.9C73.3264 6.772 73.7384 6.684 74.2104 6.636C74.6904 6.588 75.2024 6.564 75.7464 6.564C76.2904 6.564 76.7984 6.58 77.2704 6.612C77.7504 6.644 78.1664 6.72 78.5184 6.84C78.8784 6.952 79.1624 7.12 79.3704 7.344C79.5784 7.568 79.6824 7.868 79.6824 8.244C79.6824 8.62 79.5784 8.92 79.3704 9.144C79.1624 9.36 78.8784 9.524 78.5184 9.636C78.1664 9.756 77.7504 9.832 77.2704 9.864C76.7984 9.904 76.2904 9.924 75.7464 9.924C75.2024 9.924 74.6904 9.904 74.2104 9.864C73.7384 9.832 73.3264 9.756 72.9744 9.636C72.6224 9.524 72.3424 9.36 72.1344 9.144C71.9264 8.92 71.8224 8.62 71.8224 8.244ZM78.0984 8.244C78.0984 8.116 78.0264 8.02 77.8824 7.956C77.7464 7.884 77.5624 7.832 77.3304 7.8C77.1064 7.768 76.8544 7.752 76.5744 7.752C76.2944 7.744 76.0184 7.74 75.7464 7.74C75.4744 7.74 75.2024 7.744 74.9304 7.752C74.6584 7.752 74.4144 7.768 74.1984 7.8C73.9824 7.832 73.8064 7.884 73.6704 7.956C73.5424 8.02 73.4784 8.116 73.4784 8.244C73.4784 8.356 73.5424 8.448 73.6704 8.52C73.8064 8.584 73.9824 8.636 74.1984 8.676C74.4144 8.708 74.6584 8.728 74.9304 8.736C75.2024 8.744 75.4744 8.748 75.7464 8.748C76.0184 8.748 76.2944 8.752 76.5744 8.76C76.8544 8.76 77.1064 8.748 77.3304 8.724C77.5624 8.7 77.7464 8.652 77.8824 8.58C78.0264 8.508 78.0984 8.396 78.0984 8.244Z" fill="#EDA1A1"/>
</svg>
