<svg width="217" height="25" viewBox="0 0 217 25" fill="none" xmlns="http://www.w3.org/2000/svg">
<path d="M1.6434 16.4751C1.56007 16.4084 1.4434 16.3251 1.2934 16.2251C1.16007 16.1084 1.05173 16.0084 0.968401 15.9251C0.868401 15.8084 0.876734 15.7167 0.993401 15.6501C2.66007 14.4667 3.9684 13.2334 4.9184 11.9501C5.88507 10.6667 6.57673 9.41672 6.9934 8.20006C7.42673 6.96672 7.67673 5.86672 7.7434 4.90006C7.31007 4.93339 6.93507 4.95839 6.6184 4.97506C6.30173 4.99173 6.08507 5.00006 5.9684 5.00006L3.2184 5.25006C3.05173 5.26673 2.9434 5.25006 2.8934 5.20006C2.8434 5.13339 2.80173 5.05839 2.7684 4.97506C2.75173 4.95839 2.7434 4.94172 2.7434 4.92506C2.67673 4.74173 2.62673 4.58339 2.5934 4.45006C2.57673 4.30006 2.53507 4.08339 2.4684 3.80006C2.45173 3.68339 2.5184 3.62506 2.6684 3.62506C3.13507 3.65839 3.5684 3.68339 3.9684 3.70006C4.38507 3.70006 4.9934 3.70006 5.7934 3.70006C6.6934 3.70006 7.50173 3.68339 8.2184 3.65006C8.95173 3.61672 9.62673 3.57506 10.2434 3.52506C10.8934 3.47506 11.4184 3.43339 11.8184 3.40006C12.2351 3.36672 12.5934 3.33339 12.8934 3.30006C13.2101 3.25006 13.5434 3.20839 13.8934 3.17506C13.9434 3.17506 14.0017 3.18339 14.0684 3.20006C14.1351 3.21672 14.1767 3.26672 14.1934 3.35006C14.2101 3.45006 14.2267 3.56673 14.2434 3.70006C14.2767 3.83339 14.3017 3.96673 14.3184 4.10006L14.3684 4.55006C14.4017 4.73339 14.3017 4.82506 14.0684 4.82506C13.7517 4.80839 13.3934 4.80006 12.9934 4.80006C12.6101 4.80006 12.2517 4.80006 11.9184 4.80006C11.6351 4.80006 11.2934 4.80839 10.8934 4.82506C10.5101 4.82506 10.0934 4.83339 9.6434 4.85006C9.5434 6.18339 9.1434 7.61673 8.4434 9.15006C9.2434 9.71673 10.0434 10.3167 10.8434 10.9501C11.6434 11.5667 12.3684 12.1584 13.0184 12.7251C13.6684 13.2751 14.1684 13.7501 14.5184 14.1501C14.5851 14.2334 14.6351 14.3334 14.6684 14.4501C14.7184 14.5501 14.7017 14.6584 14.6184 14.7751C14.4684 14.9584 14.2934 15.1251 14.0934 15.2751C13.9101 15.4084 13.7267 15.5501 13.5434 15.7001C13.4434 15.7834 13.3601 15.7667 13.2934 15.6501C13.0601 15.2834 12.7351 14.8584 12.3184 14.3751C11.9184 13.8917 11.4601 13.4001 10.9434 12.9001C10.4434 12.3834 9.92673 11.8917 9.3934 11.4251C8.87673 10.9584 8.38507 10.5501 7.9184 10.2001C7.33507 11.2501 6.5934 12.3001 5.6934 13.3501C4.7934 14.4001 3.71007 15.4084 2.4434 16.3751C2.42673 16.3917 2.40173 16.4084 2.3684 16.4251C2.25173 16.5084 2.1434 16.5667 2.0434 16.6001C1.9434 16.6167 1.81007 16.5751 1.6434 16.4751ZM17.0684 22.2501C17.0017 22.2501 16.9684 22.2084 16.9684 22.1251V4.07506C16.9684 3.44172 16.9434 2.85839 16.8934 2.32506C16.8601 1.77506 16.8017 1.41672 16.7184 1.25006C16.6851 1.16672 16.6851 1.10839 16.7184 1.07506C16.7684 1.02506 16.8267 1.00006 16.8934 1.00006C16.9934 1.00006 17.1601 1.00839 17.3934 1.02506C17.6434 1.02506 17.8851 1.03339 18.1184 1.05006C18.3517 1.05006 18.4851 1.05006 18.5184 1.05006C18.6017 1.05006 18.6434 1.11672 18.6434 1.25006C18.5934 1.86672 18.5601 2.40839 18.5434 2.87506C18.5434 3.32506 18.5434 3.85006 18.5434 4.45006V21.6251C18.5434 21.8751 18.5267 22.0251 18.4934 22.0751C18.4767 22.1251 18.4267 22.1584 18.3434 22.1751L17.0684 22.2501Z" fill="black"/>
<path d="M22.9264 16.4751C22.8431 16.4084 22.7264 16.3251 22.5764 16.2251C22.4431 16.1084 22.3348 16.0084 22.2514 15.9251C22.1514 15.8084 22.1598 15.7167 22.2764 15.6501C23.9598 14.4667 25.2681 13.2334 26.2014 11.9501C27.1348 10.6667 27.8014 9.41672 28.2014 8.20006C28.6014 6.96672 28.8348 5.86672 28.9014 4.90006L27.1264 5.00006L24.3764 5.25006C24.2098 5.26673 24.1014 5.25006 24.0514 5.20006C24.0014 5.13339 23.9598 5.05839 23.9264 4.97506C23.9098 4.95839 23.9014 4.94172 23.9014 4.92506C23.8348 4.74173 23.7848 4.58339 23.7514 4.45006C23.7348 4.30006 23.6931 4.08339 23.6264 3.80006C23.6098 3.68339 23.6764 3.62506 23.8264 3.62506C24.2931 3.65839 24.7264 3.68339 25.1264 3.70006C25.5431 3.70006 26.1514 3.70006 26.9514 3.70006C27.8514 3.70006 28.6598 3.68339 29.3764 3.65006C30.1098 3.61672 30.7848 3.57506 31.4014 3.52506C32.0514 3.47506 32.5681 3.43339 32.9514 3.40006C33.3348 3.36672 33.6681 3.33339 33.9514 3.30006C34.2514 3.25006 34.5764 3.20839 34.9264 3.17506C34.9764 3.17506 35.0348 3.18339 35.1014 3.20006C35.1681 3.21672 35.2098 3.26672 35.2264 3.35006C35.2431 3.45006 35.2598 3.56673 35.2764 3.70006C35.3098 3.83339 35.3348 3.96673 35.3514 4.10006L35.4014 4.55006C35.4348 4.73339 35.3348 4.82506 35.1014 4.82506C34.7848 4.80839 34.4264 4.80006 34.0264 4.80006C33.6431 4.80006 33.2848 4.80006 32.9514 4.80006C32.6848 4.80006 32.3681 4.80006 32.0014 4.80006C31.6348 4.80006 31.2348 4.80839 30.8014 4.82506C30.7514 5.49173 30.6264 6.19173 30.4264 6.92506C30.2431 7.65839 29.9764 8.40839 29.6264 9.17506C30.4264 9.74173 31.2098 10.3417 31.9764 10.9751C32.7598 11.6084 33.4598 12.2084 34.0764 12.7751C34.7098 13.3417 35.2014 13.8251 35.5514 14.2251C35.6181 14.3084 35.6681 14.4084 35.7014 14.5251C35.7514 14.6251 35.7348 14.7334 35.6514 14.8501C35.5014 15.0334 35.3264 15.2001 35.1264 15.3501C34.9431 15.4834 34.7598 15.6251 34.5764 15.7751C34.4764 15.8584 34.3931 15.8417 34.3264 15.7251C34.0264 15.2417 33.5764 14.6667 32.9764 14.0001C32.3931 13.3167 31.7598 12.6417 31.0764 11.9751C30.3931 11.2917 29.7348 10.7167 29.1014 10.2501C28.5181 11.3167 27.7848 12.3751 26.9014 13.4251C26.0348 14.4584 24.9764 15.4417 23.7264 16.3751C23.7098 16.3917 23.6848 16.4084 23.6514 16.4251C23.5348 16.5084 23.4264 16.5667 23.3264 16.6001C23.2264 16.6167 23.0931 16.5751 22.9264 16.4751ZM38.1014 22.2501C38.0348 22.2501 38.0014 22.2084 38.0014 22.1251V4.07506C38.0014 3.44172 37.9764 2.85839 37.9264 2.32506C37.8931 1.77506 37.8348 1.41672 37.7514 1.25006C37.7181 1.16672 37.7181 1.10839 37.7514 1.07506C37.8014 1.02506 37.8598 1.00006 37.9264 1.00006C38.0264 1.00006 38.1931 1.00839 38.4264 1.02506C38.6764 1.02506 38.9181 1.03339 39.1514 1.05006C39.3848 1.05006 39.5181 1.05006 39.5514 1.05006C39.6348 1.05006 39.6764 1.11672 39.6764 1.25006C39.6264 1.86672 39.5931 2.40839 39.5764 2.87506C39.5764 3.32506 39.5764 3.85006 39.5764 4.45006V10.3001C40.0264 10.3001 40.5098 10.2834 41.0264 10.2501C41.5598 10.2001 42.0514 10.1501 42.5014 10.1001C42.9681 10.0334 43.3181 9.96673 43.5514 9.90006C43.7014 9.88339 43.7848 9.93339 43.8014 10.0501C43.8348 10.2667 43.8598 10.4834 43.8764 10.7001C43.8931 10.9167 43.9098 11.1334 43.9264 11.3501C43.9264 11.5334 43.8514 11.6251 43.7014 11.6251C43.4514 11.5917 43.0848 11.5751 42.6014 11.5751C42.1348 11.5751 41.6348 11.5751 41.1014 11.5751C40.5681 11.5751 40.0598 11.5834 39.5764 11.6001V21.6251C39.5764 21.8751 39.5598 22.0251 39.5264 22.0751C39.5098 22.1251 39.4598 22.1584 39.3764 22.1751L38.1014 22.2501Z" fill="black"/>
<path d="M46.0429 17.6501C45.9596 17.5834 45.8512 17.5084 45.7179 17.4251C45.6012 17.3251 45.5012 17.2334 45.4179 17.1501C45.3012 17.0334 45.3012 16.9417 45.4179 16.8751C46.2512 16.2251 46.9846 15.5001 47.6179 14.7001C48.2512 13.8834 48.7762 13.0501 49.1929 12.2001C49.6262 11.3501 49.9596 10.5334 50.1929 9.75006C50.4262 8.96673 50.5596 8.26673 50.5929 7.65006L49.2179 7.72506L46.8429 7.95006C46.6762 7.96672 46.5679 7.95006 46.5179 7.90006C46.4679 7.83339 46.4262 7.75839 46.3929 7.67506C46.3762 7.65839 46.3679 7.64173 46.3679 7.62506C46.3012 7.42506 46.2512 7.28339 46.2179 7.20006C46.2012 7.11673 46.1512 6.94173 46.0679 6.67506C46.0512 6.64173 46.0596 6.60006 46.0929 6.55006C46.1262 6.50006 46.1845 6.47506 46.2679 6.47506C46.4845 6.47506 46.6846 6.48339 46.8679 6.50006C47.0512 6.51673 47.2846 6.53339 47.5679 6.55006C47.8512 6.55006 48.2429 6.55006 48.7429 6.55006C49.2929 6.55006 49.9179 6.53339 50.6179 6.50006C51.3346 6.46673 52.0429 6.42506 52.7429 6.37506C53.4596 6.30839 54.1012 6.24173 54.6679 6.17506C55.2346 6.10839 55.6512 6.04173 55.9179 5.97506C55.9679 5.95839 56.0262 5.96673 56.0929 6.00006C56.1596 6.01672 56.2012 6.06672 56.2179 6.15006C56.2346 6.25006 56.2512 6.35839 56.2679 6.47506C56.3012 6.59173 56.3262 6.70839 56.3429 6.82506L56.3929 7.22506C56.4262 7.40839 56.3262 7.50006 56.0929 7.50006C55.7762 7.48339 55.3929 7.48339 54.9429 7.50006C54.5096 7.50006 54.1262 7.50839 53.7929 7.52506L52.2929 7.57506C52.2429 8.05839 52.1346 8.61673 51.9679 9.25006C51.8012 9.86673 51.5679 10.5251 51.2679 11.2251C51.8679 11.7584 52.4762 12.3251 53.0929 12.9251C53.7262 13.5084 54.2929 14.0584 54.7929 14.5751C55.2929 15.0751 55.6512 15.4584 55.8679 15.7251C55.9346 15.7917 55.9762 15.8751 55.9929 15.9751C56.0262 16.0751 56.0012 16.1834 55.9179 16.3001C55.7679 16.4667 55.6262 16.6084 55.4929 16.7251C55.3596 16.8417 55.1762 16.9834 54.9429 17.1501C54.8596 17.2167 54.7762 17.2001 54.6929 17.1001C54.4262 16.6501 54.0679 16.1334 53.6179 15.5501C53.1846 14.9667 52.7179 14.3834 52.2179 13.8001C51.7179 13.2167 51.2346 12.7084 50.7679 12.2751C50.3346 13.1751 49.7929 14.0751 49.1429 14.9751C48.4929 15.8751 47.7179 16.7251 46.8179 17.5251C46.7179 17.6084 46.6012 17.6751 46.4679 17.7251C46.3512 17.7584 46.2096 17.7334 46.0429 17.6501ZM58.5679 21.6001C58.5012 21.6001 58.4679 21.5584 58.4679 21.4751V11.7001L57.6429 11.7251C57.2429 11.7417 56.8096 11.7751 56.3429 11.8251C55.8929 11.8584 55.4679 11.8917 55.0679 11.9251C54.8846 11.9417 54.7679 11.9334 54.7179 11.9001C54.6846 11.8667 54.6596 11.8084 54.6429 11.7251C54.6262 11.7084 54.6179 11.6917 54.6179 11.6751L54.4179 10.6001C54.4179 10.5667 54.4262 10.5251 54.4429 10.4751C54.4596 10.4251 54.5096 10.4084 54.5929 10.4251C54.8429 10.4584 55.1846 10.4834 55.6179 10.5001C56.0512 10.5167 56.5179 10.5167 57.0179 10.5001C57.5346 10.4834 58.0179 10.4667 58.4679 10.4501V4.70006C58.4679 4.06673 58.4512 3.48339 58.4179 2.95006C58.3846 2.41673 58.3262 2.06673 58.2429 1.90006C58.2096 1.81673 58.2096 1.75839 58.2429 1.72506C58.2929 1.67506 58.3512 1.65006 58.4179 1.65006L59.8929 1.67506C59.9762 1.70839 60.0179 1.77506 60.0179 1.87506C59.9846 2.35839 59.9679 2.79173 59.9679 3.17506C59.9679 3.55839 59.9679 3.95839 59.9679 4.37506C59.9679 4.47506 59.9679 4.58339 59.9679 4.70006C59.9679 4.81672 59.9679 4.94172 59.9679 5.07506V20.9751C59.9679 21.2251 59.9512 21.3751 59.9179 21.4251C59.9012 21.4751 59.8512 21.5084 59.7679 21.5251C59.7179 21.5251 59.6012 21.5334 59.4179 21.5501C59.2512 21.5501 59.0846 21.5584 58.9179 21.5751C58.7512 21.5917 58.6346 21.6001 58.5679 21.6001ZM62.2179 22.2501C62.1512 22.2501 62.1179 22.2084 62.1179 22.1251V4.05006C62.1179 3.41672 62.1012 2.83339 62.0679 2.30006C62.0512 1.76672 62.0012 1.41672 61.9179 1.25006C61.8846 1.16672 61.8846 1.10839 61.9179 1.07506C61.9679 1.02506 62.0262 1.00006 62.0929 1.00006L63.5679 1.02506C63.6512 1.05839 63.6929 1.12506 63.6929 1.22506C63.6596 1.72506 63.6346 2.17506 63.6179 2.57506C63.6179 2.97506 63.6179 3.39173 63.6179 3.82506C63.6179 3.92506 63.6179 4.02506 63.6179 4.12506C63.6179 4.22506 63.6179 4.32506 63.6179 4.42506V21.6251C63.6179 21.8751 63.6012 22.0251 63.5679 22.0751C63.5512 22.1251 63.5012 22.1584 63.4179 22.1751C63.3679 22.1751 63.2512 22.1751 63.0679 22.1751C62.9012 22.1917 62.7346 22.2084 62.5679 22.2251C62.4012 22.2417 62.2846 22.2501 62.2179 22.2501ZM50.7929 4.25006C50.5596 4.21673 50.2512 4.17506 49.8679 4.12506C49.4846 4.07506 49.1096 4.00006 48.7429 3.90006C48.3762 3.78339 48.0762 3.63339 47.8429 3.45006C47.7762 3.40006 47.7596 3.30006 47.7929 3.15006C47.8262 3.00006 47.8846 2.85839 47.9679 2.72506C48.0512 2.57506 48.1346 2.51672 48.2179 2.55006C49.4012 2.78339 50.5012 2.90006 51.5179 2.90006C52.5512 2.90006 53.4762 2.86672 54.2929 2.80006C54.4262 2.78339 54.5096 2.78339 54.5429 2.80006C54.5762 2.81673 54.6012 2.86673 54.6179 2.95006C54.6179 2.96673 54.6179 2.99172 54.6179 3.02506C54.6179 3.19173 54.6096 3.40006 54.5929 3.65006C54.5762 3.88339 54.5179 4.01672 54.4179 4.05006C54.3679 4.08339 54.1429 4.12506 53.7429 4.17506C53.3429 4.22506 52.8762 4.25839 52.3429 4.27506C51.8096 4.29173 51.2929 4.28339 50.7929 4.25006Z" fill="black"/>
<path d="M69.2334 12.3751C69.2 12.3751 69.1584 12.3667 69.1084 12.3501C69.0584 12.3334 69.0334 12.2834 69.0334 12.2001L69.0084 5.05006C69.0084 4.60006 68.975 4.14172 68.9084 3.67506C68.8417 3.20839 68.7834 2.89173 68.7334 2.72506C68.6834 2.55839 68.7417 2.47506 68.9084 2.47506C68.9917 2.47506 69.15 2.48339 69.3834 2.50006C69.6167 2.50006 69.8417 2.50839 70.0584 2.52506C70.2917 2.52506 70.425 2.52506 70.4584 2.52506C70.5417 2.54172 70.5834 2.62506 70.5834 2.77506C70.5667 3.20839 70.5584 3.62506 70.5584 4.02506C70.5584 4.42506 70.5584 4.84172 70.5584 5.27506V5.82506C70.875 5.82506 71.3084 5.82506 71.8584 5.82506C72.4084 5.82506 73 5.81673 73.6334 5.80006C74.2834 5.78339 74.9084 5.76672 75.5084 5.75006C76.125 5.73339 76.6417 5.70839 77.0584 5.67506L77.0834 4.75006C77.1 4.11672 77.075 3.60839 77.0084 3.22506C76.9584 2.82506 76.8917 2.54173 76.8084 2.37506C76.775 2.29173 76.775 2.23339 76.8084 2.20006C76.8584 2.15006 76.9167 2.12506 76.9834 2.12506L78.5834 2.15006C78.6667 2.16672 78.7084 2.25006 78.7084 2.40006C78.6917 2.95006 78.675 3.41672 78.6584 3.80006C78.6417 4.18339 78.6334 4.66672 78.6334 5.25006L78.5834 11.7751C78.5834 11.9917 78.4667 12.1001 78.2334 12.1001L70.6334 12.2501C70.5334 12.2501 70.375 12.2584 70.1584 12.2751C69.9584 12.2917 69.7584 12.3167 69.5584 12.3501C69.375 12.3667 69.2667 12.3751 69.2334 12.3751ZM75.0584 23.5001C74.5417 23.4834 74.1334 23.3084 73.8334 22.9751C73.5334 22.6417 73.3834 22.1167 73.3834 21.4001V20.2001C73.3834 19.6834 73.2917 19.1751 73.1084 18.6751C73.075 18.6251 73.0834 18.5667 73.1334 18.5001C73.1834 18.4167 73.2667 18.3751 73.3834 18.3751C73.8 18.3917 74.35 18.4084 75.0334 18.4251C75.7334 18.4251 76.4834 18.4251 77.2834 18.4251C78.1 18.4251 78.9084 18.4167 79.7084 18.4001C80.5084 18.3667 81.2417 18.3334 81.9084 18.3001C82.5917 18.2667 83.1334 18.2167 83.5334 18.1501L83.6084 16.0501C83.6084 16.0334 83.6084 16.0084 83.6084 15.9751C83.6084 15.8917 83.6 15.8417 83.5834 15.8251C83.5667 15.7917 83.4917 15.7751 83.3584 15.7751C82.9917 15.7751 82.4667 15.7834 81.7834 15.8001C81.1 15.8167 80.3667 15.8417 79.5834 15.8751C78.8167 15.8917 78.0834 15.9167 77.3834 15.9501C76.6834 15.9667 76.1167 15.9917 75.6834 16.0251L73.7584 16.1501C73.5917 16.1667 73.4834 16.1501 73.4334 16.1001C73.3834 16.0334 73.3417 15.9584 73.3084 15.8751C73.2917 15.8584 73.2834 15.8417 73.2834 15.8251L73.1334 14.9001C73.1167 14.8667 73.125 14.8251 73.1584 14.7751C73.1917 14.7251 73.25 14.7084 73.3334 14.7251C73.6167 14.7417 74.05 14.7584 74.6334 14.7751C75.2334 14.7917 75.9167 14.8001 76.6834 14.8001C77.4667 14.7834 78.275 14.7584 79.1084 14.7251C79.9417 14.6917 80.7417 14.6501 81.5084 14.6001C82.275 14.5501 82.9417 14.4834 83.5084 14.4001C83.5417 14.4001 83.575 14.3917 83.6084 14.3751C83.725 14.3584 83.8167 14.3584 83.8834 14.3751L85.1584 14.5751C85.2417 14.5917 85.2834 14.6251 85.2834 14.6751C85.3 14.7084 85.3084 14.7417 85.3084 14.7751C85.3084 14.7917 85.3084 14.8001 85.3084 14.8001C85.225 15.5501 85.1584 16.2501 85.1084 16.9001C85.0584 17.5501 85.0084 18.2501 84.9584 19.0001C84.9417 19.1834 84.8917 19.3001 84.8084 19.3501C84.725 19.3834 84.6417 19.4001 84.5584 19.4001C84.0084 19.4001 83.325 19.4084 82.5084 19.4251C81.6917 19.4417 80.825 19.4584 79.9084 19.4751C79.0084 19.4917 78.125 19.5167 77.2584 19.5501C76.3917 19.5667 75.625 19.5834 74.9584 19.6001V21.3001C74.9584 21.6834 74.9917 21.9251 75.0584 22.0251C75.1417 22.1417 75.325 22.2084 75.6084 22.2251C76.6917 22.2584 77.8417 22.2667 79.0584 22.2501C80.275 22.2334 81.425 22.1917 82.5084 22.1251C83.1917 22.0917 83.8167 22.0417 84.3834 21.9751C84.95 21.9084 85.45 21.8167 85.8834 21.7001C86.05 21.6667 86.1584 21.6751 86.2084 21.7251C86.2584 21.7751 86.2917 21.8417 86.3084 21.9251L86.4584 22.9751C86.475 23.0584 86.45 23.1334 86.3834 23.2001C86.3167 23.2667 86.1667 23.3001 85.9334 23.3001C84.7667 23.3001 83.55 23.3084 82.2834 23.3251C81.0167 23.3584 79.7667 23.3834 78.5334 23.4001C77.3167 23.4334 76.1584 23.4667 75.0584 23.5001ZM83.7584 12.9751C83.6917 12.9751 83.6584 12.9334 83.6584 12.8501V10.1751L82.3584 10.2251C81.9584 10.2417 81.5167 10.2667 81.0334 10.3001C80.55 10.3334 80.1084 10.3667 79.7084 10.4001C79.525 10.4167 79.4084 10.4084 79.3584 10.3751C79.325 10.3251 79.2917 10.2501 79.2584 10.1501L79.1084 9.15006C79.075 9.00006 79.1334 8.94173 79.2834 8.97506C79.55 9.00839 79.9334 9.03339 80.4334 9.05006C80.9334 9.06673 81.4667 9.07506 82.0334 9.07506C82.6167 9.05839 83.1584 9.03339 83.6584 9.00006V5.85006L82.6084 5.87506C82.2084 5.89172 81.7667 5.91673 81.2834 5.95006C80.8 5.98339 80.3584 6.01672 79.9584 6.05006C79.775 6.06673 79.6584 6.05839 79.6084 6.02506C79.5584 5.99172 79.525 5.91673 79.5084 5.80006L79.3584 4.80006C79.325 4.65006 79.3834 4.59172 79.5334 4.62506C79.7834 4.65839 80.1334 4.68339 80.5834 4.70006C81.05 4.71672 81.5584 4.72506 82.1084 4.72506C82.6584 4.72506 83.175 4.70839 83.6584 4.67506V4.05006C83.6584 3.41672 83.6334 2.83339 83.5834 2.30006C83.55 1.76672 83.4917 1.41672 83.4084 1.25006C83.375 1.16672 83.375 1.10839 83.4084 1.07506C83.4584 1.02506 83.5167 1.00006 83.5834 1.00006C83.7167 1.00006 83.9417 1.00006 84.2584 1.00006C84.5917 1.00006 84.9084 1.00839 85.2084 1.02506C85.2917 1.02506 85.3334 1.09172 85.3334 1.22506C85.2834 1.84173 85.25 2.38339 85.2334 2.85006C85.2334 3.30006 85.2334 3.82506 85.2334 4.42506V12.3501C85.2334 12.6001 85.2167 12.7501 85.1834 12.8001C85.1667 12.8501 85.1167 12.8834 85.0334 12.9001L83.7584 12.9751ZM70.5834 10.9501C70.8667 10.9667 71.3084 10.9751 71.9084 10.9751C72.5084 10.9584 73.15 10.9417 73.8334 10.9251C74.5167 10.9084 75.15 10.8834 75.7334 10.8501C76.3334 10.8167 76.7667 10.7917 77.0334 10.7751L77.0584 6.97506C76.6417 6.97506 76.125 6.97506 75.5084 6.97506C74.9084 6.97506 74.2834 6.98339 73.6334 7.00006C72.9834 7.00006 72.3834 7.00839 71.8334 7.02506C71.2834 7.04172 70.8584 7.05839 70.5584 7.07506L70.5834 10.9501Z" fill="black"/>
<path d="M103.818 23.5001C103.302 23.4834 102.902 23.3251 102.618 23.0251C102.352 22.7417 102.218 22.2417 102.218 21.5251V20.6001C102.218 20.0834 102.127 19.5751 101.943 19.0751C101.91 19.0251 101.918 18.9584 101.968 18.8751C102.018 18.7917 102.102 18.7584 102.218 18.7751C102.402 18.7917 102.793 18.8084 103.393 18.8251C104.01 18.8417 104.735 18.8501 105.568 18.8501C106.402 18.8501 107.252 18.8417 108.118 18.8251C109.002 18.8084 109.81 18.7834 110.543 18.7501C111.293 18.7167 111.868 18.6751 112.268 18.6251L112.318 16.8501C112.318 16.6667 112.235 16.5751 112.068 16.5751C111.702 16.5751 111.193 16.5834 110.543 16.6001C109.893 16.6167 109.202 16.6334 108.468 16.6501C107.735 16.6667 107.035 16.6917 106.368 16.7251C105.702 16.7417 105.16 16.7584 104.743 16.7751L102.518 16.8751C102.368 16.8917 102.26 16.8834 102.193 16.8501C102.127 16.8001 102.077 16.7001 102.043 16.5501L101.868 15.6751C101.852 15.6417 101.86 15.6001 101.893 15.5501C101.927 15.5001 101.985 15.4834 102.068 15.5001C102.452 15.5334 103.118 15.5584 104.068 15.5751C105.018 15.5917 106.052 15.5917 107.168 15.5751C107.152 15.4417 107.143 15.3084 107.143 15.1751C107.143 15.0251 107.143 14.8917 107.143 14.7751L107.118 12.9001C106.835 12.9167 106.56 12.9251 106.293 12.9251C106.027 12.9251 105.777 12.9334 105.543 12.9501C103.86 13.0001 102.343 13.0584 100.993 13.1251C99.6432 13.1917 98.6015 13.2667 97.8682 13.3501C97.6849 13.3667 97.5599 13.3501 97.4932 13.3001C97.4265 13.2501 97.3765 13.1751 97.3432 13.0751C97.2765 12.8917 97.2182 12.7084 97.1682 12.5251C97.1182 12.3417 97.0599 12.1084 96.9932 11.8251C96.9765 11.7917 96.9849 11.7501 97.0182 11.7001C97.0515 11.6334 97.1099 11.6084 97.1932 11.6251C97.8265 11.7084 98.6932 11.7751 99.7932 11.8251C100.893 11.8584 102.102 11.8667 103.418 11.8501C104.435 11.8501 105.518 11.8417 106.668 11.8251C107.818 11.7917 108.96 11.7584 110.093 11.7251C111.243 11.6751 112.327 11.6251 113.343 11.5751C114.377 11.5251 115.285 11.4667 116.068 11.4001C116.868 11.3334 117.485 11.2584 117.918 11.1751C118.085 11.1417 118.193 11.1501 118.243 11.2001C118.293 11.2501 118.327 11.3167 118.343 11.4001L118.493 12.5001C118.51 12.7334 118.352 12.8417 118.018 12.8251C117.502 12.7917 116.802 12.7751 115.918 12.7751C115.052 12.7751 114.11 12.7834 113.093 12.8001L108.718 12.8751V14.5251C108.718 14.7251 108.71 14.9084 108.693 15.0751C108.693 15.2417 108.685 15.4001 108.668 15.5501C110.068 15.5001 111.268 15.4084 112.268 15.2751C112.302 15.2751 112.335 15.2667 112.368 15.2501C112.485 15.2334 112.577 15.2334 112.643 15.2501L113.918 15.4251C114.018 15.4417 114.068 15.5167 114.068 15.6501C113.985 16.3834 113.918 17.0417 113.868 17.6251C113.835 18.2084 113.793 18.8167 113.743 19.4501C113.727 19.6167 113.693 19.7251 113.643 19.7751C113.593 19.8251 113.493 19.8501 113.343 19.8501C112.777 19.8501 112.077 19.8584 111.243 19.8751C110.427 19.8751 109.56 19.8834 108.643 19.9001C107.727 19.9001 106.843 19.9084 105.993 19.9251C105.143 19.9417 104.41 19.9667 103.793 20.0001V21.4501C103.793 21.8334 103.818 22.0501 103.868 22.1001C103.918 22.1667 104.085 22.2084 104.368 22.2251C105.452 22.2584 106.585 22.2667 107.768 22.2501C108.952 22.2334 110.085 22.1917 111.168 22.1251C111.868 22.0917 112.502 22.0417 113.068 21.9751C113.635 21.9084 114.127 21.8251 114.543 21.7251C114.71 21.6917 114.818 21.7001 114.868 21.7501C114.918 21.8001 114.952 21.8667 114.968 21.9501L115.118 23.0501C115.118 23.1334 115.085 23.2084 115.018 23.2751C114.968 23.3417 114.827 23.3751 114.593 23.3751C112.827 23.3751 111.002 23.3834 109.118 23.4001C107.235 23.4334 105.468 23.4667 103.818 23.5001ZM101.318 10.4501C101.318 10.4501 101.31 10.4501 101.293 10.4501C101.177 10.4834 101.043 10.5001 100.893 10.5001C100.743 10.5001 100.618 10.4084 100.518 10.2251L100.143 9.50006C100.093 9.41673 100.085 9.36673 100.118 9.35006C100.168 9.31673 100.218 9.29173 100.268 9.27506C100.285 9.27506 100.293 9.27506 100.293 9.27506C101.277 9.09172 102.235 8.80006 103.168 8.40006C104.102 7.98339 104.927 7.48339 105.643 6.90006C106.377 6.30006 106.902 5.63339 107.218 4.90006L105.318 5.00006C105.052 5.01673 104.668 5.04173 104.168 5.07506C103.685 5.10839 103.193 5.14173 102.693 5.17506C102.193 5.20839 101.802 5.24173 101.518 5.27506C101.352 5.30839 101.243 5.30006 101.193 5.25006C101.143 5.18339 101.102 5.10006 101.068 5.00006C101.052 4.98339 101.043 4.96672 101.043 4.95006C100.977 4.76673 100.927 4.60839 100.893 4.47506C100.86 4.34172 100.81 4.14172 100.743 3.87506C100.727 3.84172 100.735 3.80006 100.768 3.75006C100.802 3.70006 100.86 3.68339 100.943 3.70006C101.41 3.73339 102.043 3.75839 102.843 3.77506C103.643 3.79172 104.535 3.79172 105.518 3.77506C106.518 3.74173 107.543 3.70006 108.593 3.65006C109.643 3.60006 110.652 3.53339 111.618 3.45006C112.585 3.36672 113.435 3.26673 114.168 3.15006C114.218 3.13339 114.277 3.13339 114.343 3.15006C114.41 3.16673 114.452 3.21673 114.468 3.30006C114.502 3.41672 114.527 3.55006 114.543 3.70006C114.56 3.83339 114.593 4.10839 114.643 4.52506C114.677 4.70839 114.577 4.80006 114.343 4.80006L111.243 4.77506C110.977 4.77506 110.652 4.78339 110.268 4.80006C109.885 4.80006 109.477 4.80839 109.043 4.82506C108.877 5.32506 108.61 5.82506 108.243 6.32506C109.51 6.57506 110.718 6.86672 111.868 7.20006C113.018 7.53339 113.977 7.86672 114.743 8.20006C114.843 8.23339 114.935 8.29173 115.018 8.37506C115.118 8.44173 115.143 8.54173 115.093 8.67506C115.043 8.82506 114.968 9.00839 114.868 9.22506C114.785 9.44173 114.677 9.65006 114.543 9.85006C114.477 9.96673 114.393 9.98339 114.293 9.90006C113.943 9.65006 113.485 9.39173 112.918 9.12506C112.368 8.85839 111.768 8.60006 111.118 8.35006C110.468 8.10006 109.818 7.87506 109.168 7.67506C108.535 7.47506 107.968 7.32506 107.468 7.22506C106.702 7.99173 105.777 8.65006 104.693 9.20006C103.61 9.75006 102.485 10.1667 101.318 10.4501ZM107.018 2.02506C106.785 1.99172 106.452 1.95006 106.018 1.90006C105.602 1.85006 105.185 1.77506 104.768 1.67506C104.368 1.57506 104.052 1.45006 103.818 1.30006C103.768 1.25006 103.752 1.15006 103.768 1.00006C103.785 0.833392 103.827 0.683392 103.893 0.550058C103.96 0.400058 104.035 0.341725 104.118 0.375057C105.568 0.575058 106.927 0.666725 108.193 0.650058C109.46 0.616725 110.502 0.566725 111.318 0.500059C111.452 0.483391 111.535 0.491725 111.568 0.525059C111.602 0.541725 111.627 0.591725 111.643 0.675058C111.643 0.691725 111.643 0.733391 111.643 0.800058C111.643 0.966724 111.635 1.16672 111.618 1.40006C111.618 1.63339 111.568 1.76672 111.468 1.80006C111.368 1.83339 111.06 1.88339 110.543 1.95006C110.027 2.00006 109.443 2.03339 108.793 2.05006C108.143 2.06672 107.552 2.05839 107.018 2.02506Z" fill="black"/>
<path d="M120.941 14.4751L120.316 13.9251C120.25 13.8584 120.275 13.7834 120.391 13.7001C120.408 13.6834 120.416 13.6751 120.416 13.6751C121.35 13.0584 122.225 12.2834 123.041 11.3501C123.875 10.4001 124.616 9.40839 125.266 8.37506C125.916 7.34173 126.425 6.37506 126.791 5.47506C126.908 5.19173 127.008 4.86673 127.091 4.50006C127.191 4.11672 127.266 3.75006 127.316 3.40006C127.383 3.05006 127.416 2.76672 127.416 2.55006C127.416 2.40006 127.5 2.33339 127.666 2.35006C127.85 2.38339 128.108 2.45006 128.441 2.55006C128.775 2.65006 129.066 2.74173 129.316 2.82506C129.416 2.87506 129.441 2.96672 129.391 3.10006C129.275 3.43339 129.116 3.86672 128.916 4.40006C128.716 4.93339 128.533 5.40006 128.366 5.80006C128.25 6.06673 128.116 6.35006 127.966 6.65006C127.833 6.95006 127.675 7.26673 127.491 7.60006C127.991 7.98339 128.541 8.40839 129.141 8.87506C129.758 9.32506 130.358 9.77506 130.941 10.2251C131.525 10.6751 132.041 11.0834 132.491 11.4501C132.941 11.8167 133.266 12.1001 133.466 12.3001C133.533 12.3501 133.583 12.4334 133.616 12.5501C133.666 12.6501 133.65 12.7584 133.566 12.8751C133.5 12.9751 133.341 13.1334 133.091 13.3501C132.858 13.5667 132.691 13.7251 132.591 13.8251C132.458 13.9084 132.358 13.8917 132.291 13.7751C132.041 13.4251 131.691 13.0167 131.241 12.5501C130.808 12.0834 130.333 11.6001 129.816 11.1001C129.316 10.6001 128.808 10.1334 128.291 9.70006C127.775 9.26673 127.316 8.90839 126.916 8.62506C126.366 9.54172 125.666 10.5084 124.816 11.5251C123.983 12.5251 122.95 13.4917 121.716 14.4251C121.633 14.4917 121.525 14.5501 121.391 14.6001C121.258 14.6501 121.108 14.6084 120.941 14.4751ZM136.066 17.3751C136 17.3751 135.966 17.3334 135.966 17.2501V4.05006C135.966 3.41672 135.941 2.83339 135.891 2.30006C135.858 1.76672 135.8 1.41672 135.716 1.25006C135.683 1.16672 135.683 1.10839 135.716 1.07506C135.766 1.02506 135.825 1.00006 135.891 1.00006C136.125 1.00006 136.4 1.00006 136.716 1.00006C137.033 1.00006 137.3 1.00839 137.516 1.02506C137.6 1.02506 137.641 1.09172 137.641 1.22506C137.591 1.84173 137.558 2.38339 137.541 2.85006C137.541 3.30006 137.541 3.82506 137.541 4.42506V8.20006C138.008 8.20006 138.508 8.18339 139.041 8.15006C139.575 8.11672 140.066 8.07506 140.516 8.02506C140.983 7.97506 141.325 7.91672 141.541 7.85006C141.691 7.83339 141.775 7.88339 141.791 8.00006C141.825 8.21672 141.841 8.43339 141.841 8.65006C141.858 8.86672 141.875 9.08339 141.891 9.30006C141.891 9.48339 141.816 9.57506 141.666 9.57506C141.433 9.54173 141.075 9.52506 140.591 9.52506C140.125 9.50839 139.616 9.50006 139.066 9.50006C138.516 9.50006 138.008 9.51673 137.541 9.55006V16.7501C137.541 17.0001 137.525 17.1501 137.491 17.2001C137.475 17.2501 137.425 17.2834 137.341 17.3001L136.066 17.3751ZM128.016 23.2501C127.483 23.2501 127.075 23.0501 126.791 22.6501C126.525 22.2667 126.391 21.7167 126.391 21.0001V18.7751C126.391 18.1917 126.366 17.7084 126.316 17.3251C126.266 16.9417 126.216 16.6667 126.166 16.5001C126.116 16.3334 126.175 16.2501 126.341 16.2501C126.441 16.2501 126.608 16.2584 126.841 16.2751C127.091 16.2751 127.325 16.2834 127.541 16.3001C127.775 16.3167 127.9 16.3251 127.916 16.3251C128 16.3251 128.041 16.4084 128.041 16.5751C128.008 16.9584 127.983 17.3001 127.966 17.6001C127.966 17.8834 127.966 18.2417 127.966 18.6751V20.8501C127.966 21.2667 128.016 21.5584 128.116 21.7251C128.233 21.8751 128.416 21.9584 128.666 21.9751C129.133 21.9917 129.7 22.0001 130.366 22.0001C131.05 22.0167 131.758 22.0167 132.491 22.0001C133.241 21.9667 133.95 21.9334 134.616 21.9001C135.316 21.8667 136.041 21.8084 136.791 21.7251C137.541 21.6251 138.116 21.5251 138.516 21.4251C138.683 21.3917 138.791 21.4001 138.841 21.4501C138.891 21.5001 138.925 21.5667 138.941 21.6501L139.141 22.8251C139.141 22.9084 139.116 22.9751 139.066 23.0251C139.033 23.0751 138.9 23.1001 138.666 23.1001C137.016 23.1001 135.316 23.1251 133.566 23.1751C131.816 23.2251 129.966 23.2501 128.016 23.2501Z" fill="black"/>
<path d="M162.552 24.1251C161.502 24.1251 160.569 23.9334 159.752 23.5501C158.952 23.1834 158.319 22.6751 157.852 22.0251C157.402 21.3751 157.177 20.6251 157.177 19.7751C157.177 18.9584 157.427 18.2167 157.927 17.5501C158.427 16.8834 159.094 16.3584 159.927 15.9751C160.761 15.5751 161.669 15.3751 162.652 15.3751C163.652 15.3751 164.561 15.5417 165.377 15.8751C166.211 16.1917 166.869 16.6751 167.352 17.3251C167.852 17.9584 168.086 18.7417 168.052 19.6751C168.036 20.5417 167.777 21.3084 167.277 21.9751C166.794 22.6417 166.136 23.1667 165.302 23.5501C164.486 23.9334 163.569 24.1251 162.552 24.1251ZM151.477 14.4251L150.852 13.8751C150.786 13.8084 150.811 13.7334 150.927 13.6501C150.944 13.6334 150.952 13.6251 150.952 13.6251C152.219 12.8251 153.294 11.9001 154.177 10.8501C155.061 9.80006 155.736 8.71673 156.202 7.60006C156.686 6.46672 156.944 5.40839 156.977 4.42506L155.052 4.57506C154.636 4.60839 154.261 4.65006 153.927 4.70006C153.594 4.75006 153.219 4.79173 152.802 4.82506C152.636 4.84172 152.527 4.82506 152.477 4.77506C152.427 4.70839 152.386 4.63339 152.352 4.55006C152.336 4.53339 152.327 4.51672 152.327 4.50006C152.261 4.31673 152.211 4.17506 152.177 4.07506C152.161 3.95839 152.119 3.75839 152.052 3.47506C152.036 3.44172 152.044 3.40006 152.077 3.35006C152.111 3.30006 152.169 3.27506 152.252 3.27506C152.719 3.30839 153.177 3.33339 153.627 3.35006C154.094 3.35006 154.619 3.34172 155.202 3.32506C155.802 3.30839 156.311 3.29173 156.727 3.27506C157.161 3.25839 157.577 3.24172 157.977 3.22506C158.377 3.19173 158.836 3.15839 159.352 3.12506C160.102 3.07506 160.769 3.01673 161.352 2.95006C161.952 2.86673 162.427 2.80006 162.777 2.75006C162.827 2.73339 162.886 2.74172 162.952 2.77506C163.019 2.79173 163.061 2.84173 163.077 2.92506C163.094 3.02506 163.111 3.14173 163.127 3.27506C163.161 3.39173 163.186 3.51672 163.202 3.65006L163.252 4.07506C163.286 4.25839 163.186 4.35006 162.952 4.35006H162.927C162.411 4.33339 161.902 4.32506 161.402 4.32506C160.902 4.30839 160.402 4.30839 159.902 4.32506C159.736 4.32506 159.561 4.33339 159.377 4.35006C159.194 4.35006 158.994 4.35006 158.777 4.35006C158.744 4.83339 158.636 5.39172 158.452 6.02506C158.286 6.65839 158.027 7.34173 157.677 8.07506C158.177 8.37506 158.711 8.71673 159.277 9.10006C159.861 9.48339 160.427 9.86672 160.977 10.2501C161.527 10.6167 162.011 10.9584 162.427 11.2751C162.861 11.5917 163.169 11.8334 163.352 12.0001C163.419 12.0501 163.477 12.1334 163.527 12.2501C163.577 12.3501 163.561 12.4584 163.477 12.5751C163.394 12.6584 163.244 12.8251 163.027 13.0751C162.827 13.3084 162.669 13.4751 162.552 13.5751C162.419 13.6584 162.319 13.6417 162.252 13.5251C161.919 13.0917 161.452 12.6001 160.852 12.0501C160.269 11.5001 159.644 10.9584 158.977 10.4251C158.311 9.89172 157.702 9.44173 157.152 9.07506C156.652 9.97506 156.002 10.8751 155.202 11.7751C154.419 12.6751 153.436 13.5501 152.252 14.4001C152.169 14.4667 152.061 14.5251 151.927 14.5751C151.794 14.6084 151.644 14.5584 151.477 14.4251ZM162.602 22.8251C163.652 22.7917 164.536 22.5084 165.252 21.9751C165.986 21.4417 166.369 20.6667 166.402 19.6501C166.436 18.9834 166.277 18.4251 165.927 17.9751C165.594 17.5251 165.136 17.1834 164.552 16.9501C163.986 16.7001 163.344 16.5751 162.627 16.5751C161.927 16.5917 161.286 16.7417 160.702 17.0251C160.119 17.2917 159.652 17.6584 159.302 18.1251C158.952 18.5917 158.777 19.1334 158.777 19.7501C158.777 20.3834 158.944 20.9334 159.277 21.4001C159.627 21.8501 160.094 22.2001 160.677 22.4501C161.261 22.7001 161.902 22.8251 162.602 22.8251ZM166.352 15.0251C166.286 15.0251 166.252 14.9834 166.252 14.9001V4.05006C166.252 3.41672 166.227 2.83339 166.177 2.30006C166.144 1.76672 166.086 1.41672 166.002 1.25006C165.969 1.16672 165.969 1.10839 166.002 1.07506C166.052 1.02506 166.111 1.00006 166.177 1.00006C166.361 1.00006 166.611 1.00006 166.927 1.00006C167.244 1.00006 167.536 1.00839 167.802 1.02506C167.886 1.02506 167.927 1.09172 167.927 1.22506C167.877 1.84173 167.844 2.38339 167.827 2.85006C167.827 3.30006 167.827 3.82506 167.827 4.42506V7.70006C168.277 7.70006 168.769 7.68339 169.302 7.65006C169.836 7.61673 170.327 7.57506 170.777 7.52506C171.244 7.47506 171.594 7.41673 171.827 7.35006C171.977 7.33339 172.061 7.38339 172.077 7.50006C172.111 7.71673 172.127 7.93339 172.127 8.15006C172.144 8.36673 172.161 8.58339 172.177 8.80006C172.177 8.98339 172.102 9.07506 171.952 9.07506C171.719 9.04173 171.361 9.02506 170.877 9.02506C170.394 9.00839 169.877 9.00006 169.327 9.00006C168.794 9.00006 168.294 9.01673 167.827 9.05006V14.4001C167.827 14.6501 167.811 14.8001 167.777 14.8501C167.761 14.9001 167.711 14.9334 167.627 14.9501L166.352 15.0251Z" fill="black"/>
<path d="M176.475 16.8751C176.108 16.8584 175.825 16.6751 175.625 16.3251C175.425 15.9751 175.325 15.5334 175.325 15.0001V11.3751C175.325 11.0417 175.316 10.6834 175.3 10.3001C175.283 9.91673 175.216 9.55839 175.1 9.22506C175.016 9.02506 175.091 8.94173 175.325 8.97506C175.525 8.99173 175.866 9.00006 176.35 9.00006C176.833 9.00006 177.375 8.99173 177.975 8.97506C178.591 8.95839 179.191 8.93339 179.775 8.90006C180.358 8.86672 180.858 8.83339 181.275 8.80006C181.691 8.76673 181.933 8.73339 182 8.70006C182.05 8.33339 182.1 7.90006 182.15 7.40006C182.2 6.88339 182.25 6.37506 182.3 5.87506C182.366 5.35839 182.408 4.92506 182.425 4.57506C182.425 4.47506 182.383 4.42506 182.3 4.42506C181.583 4.42506 180.95 4.45006 180.4 4.50006C179.85 4.53339 179.225 4.56673 178.525 4.60006C178.125 4.63339 177.691 4.66673 177.225 4.70006C176.758 4.73339 176.325 4.76672 175.925 4.80006C175.741 4.81673 175.625 4.80839 175.575 4.77506C175.541 4.72506 175.508 4.65006 175.475 4.55006L175.2 3.55006C175.183 3.51673 175.191 3.48339 175.225 3.45006C175.258 3.40006 175.3 3.38339 175.35 3.40006C175.466 3.41673 175.741 3.42506 176.175 3.42506C176.608 3.42506 177.116 3.41673 177.7 3.40006C178.3 3.38339 178.916 3.35839 179.55 3.32506C180.2 3.27506 180.791 3.23339 181.325 3.20006C181.858 3.15006 182.275 3.09172 182.575 3.02506C182.658 2.99172 182.725 2.98339 182.775 3.00006C182.825 3.00006 182.866 3.00006 182.9 3.00006C182.933 3.01672 182.958 3.02506 182.975 3.02506L184.15 3.32506C184.283 3.35839 184.333 3.41672 184.3 3.50006C184.283 3.63339 184.25 3.84172 184.2 4.12506C184.15 4.39172 184.1 4.66672 184.05 4.95006C184 5.23339 183.958 5.46673 183.925 5.65006L183.35 9.80006C183.333 9.95006 183.25 10.0251 183.1 10.0251C182.866 10.0251 182.466 10.0417 181.9 10.0751C181.333 10.0917 180.708 10.1167 180.025 10.1501C179.358 10.1834 178.733 10.2167 178.15 10.2501C177.583 10.2834 177.166 10.3084 176.9 10.3251V14.8251C176.9 14.9917 176.925 15.1084 176.975 15.1751C177.041 15.2251 177.116 15.2584 177.2 15.2751C177.716 15.3251 178.333 15.3417 179.05 15.3251C179.783 15.2917 180.55 15.2251 181.35 15.1251C182.166 15.0251 182.975 14.8917 183.775 14.7251C184.575 14.5584 185.316 14.3584 186 14.1251C186.183 14.0751 186.275 14.0917 186.275 14.1751L186.325 14.5001L186.4 15.0501C186.4 15.1334 186.383 15.2084 186.35 15.2751C186.333 15.3417 186.266 15.3917 186.15 15.4251C185.433 15.6584 184.541 15.8834 183.475 16.1001C182.408 16.3167 181.266 16.4917 180.05 16.6251C178.833 16.7584 177.641 16.8417 176.475 16.8751ZM189.75 22.2501C189.683 22.2501 189.65 22.2084 189.65 22.1251V12.1751L187.825 12.2751C187.425 12.2917 187 12.3251 186.55 12.3751C186.1 12.4084 185.675 12.4501 185.275 12.5001C185.091 12.5334 184.966 12.5251 184.9 12.4751C184.833 12.4251 184.783 12.3501 184.75 12.2501C184.683 12.0334 184.633 11.8334 184.6 11.6501C184.566 11.4501 184.533 11.2751 184.5 11.1251C184.5 10.9917 184.566 10.9417 184.7 10.9751C184.966 11.0084 185.391 11.0334 185.975 11.0501C186.558 11.0667 187.183 11.0667 187.85 11.0501C188.516 11.0167 189.116 10.9834 189.65 10.9501V7.02506L188.2 7.12506C187.8 7.14173 187.375 7.17506 186.925 7.22506C186.475 7.25839 186.05 7.30006 185.65 7.35006C185.466 7.38339 185.341 7.37506 185.275 7.32506C185.208 7.27506 185.158 7.20006 185.125 7.10006C185.058 6.88339 185.008 6.68339 184.975 6.50006C184.941 6.31673 184.908 6.15006 184.875 6.00006C184.875 5.86673 184.941 5.81673 185.075 5.85006C185.358 5.88339 185.766 5.90839 186.3 5.92506C186.833 5.92506 187.4 5.91673 188 5.90006C188.616 5.86672 189.166 5.83339 189.65 5.80006V4.07506C189.65 3.44172 189.625 2.85839 189.575 2.32506C189.541 1.77506 189.483 1.41672 189.4 1.25006C189.366 1.16672 189.366 1.10839 189.4 1.07506C189.45 1.02506 189.508 1.00006 189.575 1.00006C189.675 1.00006 189.841 1.00839 190.075 1.02506C190.325 1.02506 190.566 1.03339 190.8 1.05006C191.033 1.05006 191.166 1.05006 191.2 1.05006C191.283 1.05006 191.325 1.11672 191.325 1.25006C191.275 1.86672 191.241 2.40839 191.225 2.87506C191.225 3.32506 191.225 3.85006 191.225 4.45006V21.6251C191.225 21.8751 191.208 22.0251 191.175 22.0751C191.158 22.1251 191.108 22.1584 191.025 22.1751L189.75 22.2501Z" fill="black"/>
<path d="M200.558 23.5001C200.524 23.5001 200.483 23.4917 200.433 23.4751C200.383 23.4584 200.358 23.4084 200.358 23.3251C200.358 23.2917 200.358 23.2084 200.358 23.0751C200.358 22.7584 200.358 22.2001 200.358 21.4001C200.374 20.6001 200.358 19.5167 200.308 18.1501C200.291 17.7167 200.241 17.2667 200.158 16.8001C200.074 16.3334 199.991 16.0417 199.908 15.9251C199.841 15.8251 199.824 15.7417 199.858 15.6751C199.908 15.6084 199.991 15.5751 200.108 15.5751L201.708 15.6501C202.124 15.6667 202.649 15.6751 203.283 15.6751C203.916 15.6751 204.583 15.6667 205.283 15.6501C205.999 15.6334 206.691 15.6167 207.358 15.6001C208.041 15.5667 208.649 15.5334 209.183 15.5001C209.716 15.4667 210.116 15.4334 210.383 15.4001C210.416 15.4001 210.449 15.3917 210.483 15.3751C210.599 15.3584 210.699 15.3584 210.783 15.3751L212.083 15.5501C212.216 15.5667 212.266 15.6667 212.233 15.8501C212.216 16.0667 212.191 16.3501 212.158 16.7001C212.141 17.0334 212.124 17.3667 212.108 17.7001C212.091 18.0167 212.083 18.2584 212.083 18.4251L212.008 23.0501C212.008 23.2834 211.883 23.4001 211.633 23.4001C211.149 23.3834 210.541 23.3751 209.808 23.3751C209.091 23.3751 208.316 23.3751 207.483 23.3751C206.666 23.3751 205.858 23.3751 205.058 23.3751C204.274 23.3751 203.583 23.3751 202.983 23.3751C202.383 23.3917 201.949 23.4084 201.683 23.4251L200.558 23.5001ZM201.833 22.0501C202.066 22.0667 202.474 22.0751 203.058 22.0751C203.641 22.0917 204.299 22.0917 205.033 22.0751C205.783 22.0751 206.524 22.0667 207.258 22.0501C208.008 22.0334 208.674 22.0167 209.258 22.0001C209.841 21.9834 210.258 21.9584 210.508 21.9251L210.558 16.9501C210.558 16.8334 210.541 16.7667 210.508 16.7501C210.474 16.7167 210.416 16.7001 210.333 16.7001L201.833 16.8501V22.0501ZM195.983 12.3501C195.799 12.3667 195.674 12.3501 195.608 12.3001C195.541 12.2501 195.491 12.1751 195.458 12.0751C195.391 11.8917 195.333 11.7084 195.283 11.5251C195.233 11.3417 195.174 11.1084 195.108 10.8251C195.091 10.7917 195.099 10.7501 195.133 10.7001C195.166 10.6334 195.224 10.6084 195.308 10.6251C195.941 10.7084 196.808 10.7751 197.908 10.8251C199.008 10.8584 200.216 10.8667 201.533 10.8501C202.549 10.8501 203.633 10.8417 204.783 10.8251C205.933 10.7917 207.074 10.7584 208.208 10.7251C209.358 10.6751 210.441 10.6251 211.458 10.5751C212.491 10.5251 213.399 10.4667 214.183 10.4001C214.983 10.3334 215.599 10.2584 216.033 10.1751C216.199 10.1417 216.308 10.1501 216.358 10.2001C216.408 10.2501 216.441 10.3167 216.458 10.4001L216.608 11.5001C216.624 11.7334 216.466 11.8417 216.133 11.8251C215.616 11.7917 214.916 11.7751 214.033 11.7751C213.166 11.7751 212.224 11.7834 211.208 11.8001C210.308 11.8001 209.383 11.8167 208.433 11.8501C207.499 11.8667 206.616 11.8834 205.783 11.9001C204.966 11.9167 204.258 11.9334 203.658 11.9501C201.974 12.0001 200.458 12.0584 199.108 12.1251C197.758 12.1917 196.716 12.2667 195.983 12.3501ZM209.708 9.37506C209.558 9.37506 209.508 9.29173 209.558 9.12506C209.658 8.82506 209.766 8.41672 209.883 7.90006C210.016 7.36673 210.133 6.80006 210.233 6.20006C210.349 5.60006 210.449 5.03339 210.533 4.50006C210.616 3.96672 210.666 3.55006 210.683 3.25006C210.699 3.06672 210.616 2.97506 210.433 2.97506C210.066 2.97506 209.566 2.98339 208.933 3.00006C208.316 3.01672 207.649 3.03339 206.933 3.05006C206.233 3.06673 205.566 3.08339 204.933 3.10006C204.316 3.11672 203.833 3.13339 203.483 3.15006C203.216 3.15006 202.874 3.16673 202.458 3.20006C202.041 3.23339 201.624 3.26672 201.208 3.30006C200.791 3.33339 200.449 3.36672 200.183 3.40006C199.999 3.41673 199.883 3.40839 199.833 3.37506C199.783 3.32506 199.733 3.23339 199.683 3.10006C199.683 3.08339 199.683 3.07506 199.683 3.07506C199.633 2.94172 199.583 2.79172 199.533 2.62506C199.483 2.45839 199.424 2.25839 199.358 2.02506C199.341 1.99172 199.349 1.95006 199.383 1.90006C199.416 1.85006 199.474 1.83339 199.558 1.85006C200.024 1.88339 200.641 1.90839 201.408 1.92506C202.174 1.94172 203.008 1.94172 203.908 1.92506C204.808 1.90839 205.699 1.88339 206.583 1.85006C207.466 1.81672 208.266 1.77506 208.983 1.72506C209.699 1.65839 210.249 1.58339 210.633 1.50006C210.766 1.46673 210.899 1.46673 211.033 1.50006L212.433 1.80006C212.583 1.81672 212.641 1.90839 212.608 2.07506C212.558 2.32506 212.491 2.65839 212.408 3.07506C212.324 3.47506 212.258 3.81673 212.208 4.10006C212.108 4.66673 211.991 5.25006 211.858 5.85006C211.724 6.45006 211.599 7.00006 211.483 7.50006C211.366 7.98339 211.266 8.35006 211.183 8.60006C211.116 8.83339 211.049 9.00839 210.983 9.12506C210.933 9.22506 210.816 9.28339 210.633 9.30006L209.708 9.37506Z" fill="black"/>
</svg>
