<svg width="41" height="11" viewBox="0 0 41 11" fill="none" xmlns="http://www.w3.org/2000/svg">
<path d="M9.4504 1.324C9.4904 1.396 9.5064 1.476 9.4984 1.564C9.4984 1.644 9.5064 1.728 9.5224 1.816V8.932C9.5224 9.044 9.5184 9.16 9.5104 9.28C9.5104 9.392 9.5024 9.504 9.4864 9.616C9.4704 9.792 9.3984 9.93201 9.2704 10.036C9.1424 10.148 8.9864 10.196 8.8024 10.18C8.6504 10.164 8.5344 10.112 8.4544 10.024C8.3744 9.944 8.3144 9.844 8.2744 9.724C8.2424 9.604 8.2224 9.476 8.2144 9.34C8.2064 9.196 8.2024 9.06 8.2024 8.932V5.98H7.3504V8.896C7.3664 9.008 7.3704 9.112 7.3624 9.208C7.3544 9.296 7.3504 9.384 7.3504 9.472C7.3344 9.584 7.3104 9.676 7.2784 9.748C7.2464 9.82 7.2144 9.88001 7.1824 9.92801C7.1104 10.016 7.0104 10.084 6.8824 10.132C6.7624 10.18 6.6464 10.184 6.5344 10.144C6.4064 10.096 6.3064 10.028 6.2344 9.94C6.1624 9.852 6.1064 9.75601 6.0664 9.65201C6.0344 9.54001 6.0144 9.428 6.0064 9.316C5.9984 9.196 5.9944 9.08001 5.9944 8.96801C5.9944 8.89601 5.9864 8.836 5.9704 8.788C5.9624 8.732 5.9584 8.684 5.9584 8.644V2.044C5.9584 1.98 5.9624 1.916 5.9704 1.852C5.9864 1.788 5.9944 1.732 5.9944 1.684C5.9944 1.612 6.0024 1.544 6.0184 1.48C6.0344 1.408 6.0504 1.344 6.0664 1.288C6.0824 1.232 6.1064 1.18 6.1384 1.132C6.1704 1.084 6.2064 1.032 6.2464 0.976004C6.2864 0.920004 6.3304 0.880004 6.3784 0.856005C6.4344 0.832004 6.4944 0.812004 6.5584 0.796005C6.6464 0.756005 6.7344 0.756005 6.8224 0.796005C6.8624 0.812004 6.9024 0.832004 6.9424 0.856005C6.9904 0.872004 7.0224 0.900004 7.0384 0.940004C7.0944 0.980004 7.1424 1.028 7.1824 1.084C7.2304 1.132 7.2624 1.2 7.2784 1.288C7.2944 1.36 7.3104 1.44 7.3264 1.528C7.3424 1.616 7.3504 1.712 7.3504 1.816V4.528H8.2024V1.756C8.2024 1.684 8.2024 1.612 8.2024 1.54C8.2104 1.468 8.2224 1.396 8.2384 1.324C8.2704 1.18 8.3184 1.064 8.3824 0.976004C8.4384 0.920004 8.4944 0.876004 8.5504 0.844005C8.6064 0.812005 8.6784 0.796005 8.7664 0.796005C8.8544 0.780004 8.9424 0.788004 9.0304 0.820004C9.1184 0.844004 9.1904 0.884004 9.2464 0.940004C9.2944 0.996004 9.3344 1.052 9.3664 1.108C9.4064 1.164 9.4344 1.236 9.4504 1.324ZM5.0824 8.452C5.1304 8.468 5.1704 8.492 5.2024 8.524C5.2424 8.556 5.2824 8.592 5.3224 8.632C5.4184 8.696 5.4664 8.80001 5.4664 8.94401C5.4824 9.00001 5.4824 9.06 5.4664 9.124C5.4584 9.18 5.4464 9.228 5.4304 9.268C5.3904 9.332 5.3544 9.384 5.3224 9.424C5.2904 9.456 5.2544 9.48801 5.2144 9.52001C5.1664 9.53601 5.1144 9.56 5.0584 9.592C5.0024 9.616 4.9384 9.62801 4.8664 9.62801C4.8104 9.64401 4.7504 9.66 4.6864 9.676C4.6224 9.692 4.5624 9.7 4.5064 9.7H2.7424C2.6704 9.7 2.5904 9.696 2.5024 9.688C2.4224 9.672 2.3384 9.664 2.2504 9.664C2.1784 9.664 2.0984 9.65601 2.0104 9.64001C1.9224 9.62401 1.8464 9.608 1.7824 9.592C1.6224 9.552 1.4784 9.484 1.3504 9.388C1.2944 9.348 1.2424 9.30001 1.1944 9.24401C1.1544 9.18001 1.1144 9.104 1.0744 9.016C1.0024 8.944 0.966398 8.852 0.966398 8.74C0.950398 8.668 0.938398 8.604 0.930398 8.548C0.922398 8.492 0.910398 8.436 0.894398 8.38V2.584C0.878398 2.536 0.866398 2.48 0.858398 2.416C0.858398 2.344 0.858398 2.272 0.858398 2.2C0.874398 2.144 0.886398 2.08 0.894398 2.008C0.902398 1.936 0.914398 1.868 0.930398 1.804C0.930398 1.676 0.966398 1.556 1.0384 1.444C1.0784 1.404 1.1144 1.368 1.1464 1.336C1.1864 1.304 1.2304 1.28 1.2784 1.264C1.3824 1.192 1.4904 1.156 1.6024 1.156C1.6584 1.14 1.7064 1.132 1.7464 1.132C1.7864 1.124 1.8304 1.112 1.8784 1.096H4.1104C4.1664 1.112 4.2264 1.124 4.2904 1.132C4.3624 1.132 4.4264 1.14 4.4824 1.156C4.6264 1.156 4.7544 1.192 4.8664 1.264C4.9944 1.328 5.0784 1.424 5.1184 1.552C5.1344 1.608 5.1464 1.664 5.1544 1.72C5.1704 1.776 5.1704 1.836 5.1544 1.9C5.1544 1.98 5.1504 2.04 5.1424 2.08C5.1424 2.12 5.1344 2.16 5.1184 2.2C5.0544 2.288 4.9464 2.372 4.7944 2.452C4.7384 2.452 4.6504 2.46 4.5304 2.476C4.4184 2.484 4.2784 2.488 4.1104 2.488H2.8864C2.7744 2.488 2.6784 2.508 2.5984 2.548C2.5664 2.548 2.5344 2.584 2.5024 2.656C2.4864 2.696 2.4704 2.732 2.4544 2.764C2.4384 2.796 2.4304 2.832 2.4304 2.872V3.328L2.4664 7.744C2.4664 7.856 2.4664 7.948 2.4664 8.02C2.4744 8.084 2.4984 8.132 2.5384 8.164C2.5944 8.236 2.6984 8.272 2.8504 8.272H3.2944C3.3824 8.272 3.4704 8.28 3.5584 8.296C3.6544 8.304 3.7544 8.308 3.8584 8.308H4.4464C4.4944 8.308 4.5424 8.312 4.5904 8.32C4.6464 8.32 4.7024 8.328 4.7584 8.344C4.8624 8.344 4.9704 8.38 5.0824 8.452Z" fill="black"/>
<path d="M10.2954 8.56C10.2954 8.2 10.3994 7.9 10.6074 7.66C10.8234 7.42 11.1114 7.232 11.4714 7.096C11.8314 6.952 12.2554 6.852 12.7434 6.796C13.2314 6.74 13.7514 6.712 14.3034 6.712C14.8554 6.712 15.3754 6.732 15.8634 6.772C16.3514 6.812 16.7754 6.9 17.1354 7.036C17.4954 7.164 17.7794 7.348 17.9874 7.588C18.2034 7.828 18.3114 8.152 18.3114 8.56C18.3114 8.96 18.2034 9.28001 17.9874 9.52001C17.7794 9.76001 17.4954 9.944 17.1354 10.072C16.7754 10.208 16.3514 10.296 15.8634 10.336C15.3754 10.384 14.8554 10.408 14.3034 10.408C13.7514 10.408 13.2314 10.384 12.7434 10.336C12.2554 10.296 11.8314 10.208 11.4714 10.072C11.1114 9.944 10.8234 9.76001 10.6074 9.52001C10.3994 9.28001 10.2954 8.96 10.2954 8.56ZM10.1154 5.908C10.0034 5.86 9.92337 5.768 9.87537 5.632C9.81137 5.472 9.79937 5.312 9.83937 5.152C9.88737 4.992 9.95937 4.84 10.0554 4.696C10.1514 4.552 10.2594 4.416 10.3794 4.288C10.5074 4.16 10.6154 4.04 10.7034 3.928C10.8394 3.76 10.9754 3.592 11.1114 3.424C11.2474 3.256 11.3834 3.084 11.5194 2.908C11.5674 2.844 11.6234 2.776 11.6874 2.704C11.7514 2.632 11.8114 2.556 11.8674 2.476C11.9314 2.396 11.9834 2.316 12.0234 2.236C12.0634 2.156 12.0874 2.072 12.0954 1.984C12.1034 1.848 12.1114 1.716 12.1194 1.588C12.1274 1.452 12.1514 1.332 12.1914 1.228C12.2314 1.116 12.2954 1.028 12.3834 0.964005C12.4794 0.900004 12.6154 0.868004 12.7914 0.868004C12.9194 0.868004 13.0434 0.884004 13.1634 0.916004C13.2834 0.940005 13.3714 1.016 13.4274 1.144C13.4834 1.288 13.4994 1.448 13.4754 1.624C13.4594 1.792 13.4754 1.952 13.5234 2.104C13.5634 2.24 13.6314 2.36 13.7274 2.464C13.8234 2.56 13.9034 2.664 13.9674 2.776C14.1034 3.024 14.2634 3.244 14.4474 3.436C14.6314 3.628 14.8034 3.836 14.9634 4.06C15.0914 4.228 15.2114 4.404 15.3234 4.588C15.4434 4.764 15.5234 4.956 15.5634 5.164C15.6034 5.34 15.5834 5.492 15.5034 5.62C15.4314 5.74 15.3314 5.828 15.2034 5.884C15.0754 5.94 14.9354 5.96 14.7834 5.944C14.6314 5.92 14.4994 5.852 14.3874 5.74C14.0914 5.436 13.8194 5.124 13.5714 4.804C13.3314 4.476 13.0834 4.144 12.8274 3.808C12.8274 3.808 12.7914 3.848 12.7194 3.928C12.6474 4 12.5554 4.096 12.4434 4.216C12.3314 4.328 12.2114 4.456 12.0834 4.6C11.9554 4.736 11.8354 4.868 11.7234 4.996C11.6114 5.124 11.5114 5.236 11.4234 5.332C11.3354 5.42 11.2834 5.476 11.2674 5.5C11.1794 5.604 11.0874 5.696 10.9914 5.776C10.8954 5.856 10.7794 5.912 10.6434 5.944C10.5554 5.96 10.4634 5.968 10.3674 5.968C10.2794 5.968 10.1954 5.948 10.1154 5.908ZM18.0954 4.36V5.452C18.0874 5.54 18.0754 5.632 18.0594 5.728C18.0434 5.816 18.0114 5.904 17.9634 5.992C17.9154 6.088 17.8474 6.168 17.7594 6.232C17.6954 6.272 17.6194 6.304 17.5314 6.328C17.4514 6.344 17.3794 6.352 17.3154 6.352C17.2514 6.352 17.1834 6.348 17.1114 6.34C17.0394 6.324 16.9794 6.3 16.9314 6.268C16.8514 6.22 16.7874 6.16 16.7394 6.088C16.6914 6.016 16.6514 5.948 16.6194 5.884C16.5954 5.812 16.5794 5.752 16.5714 5.704C16.5634 5.648 16.5594 5.62 16.5594 5.62V1.66C16.5514 1.628 16.5554 1.54 16.5714 1.396C16.5874 1.252 16.6194 1.132 16.6674 1.036C16.7074 0.956004 16.7754 0.892005 16.8714 0.844005C16.9754 0.796004 17.0834 0.764004 17.1954 0.748004C17.3314 0.732004 17.4674 0.740004 17.6034 0.772004C17.7394 0.804004 17.8394 0.856004 17.9034 0.928004C17.9514 0.992004 17.9834 1.056 17.9994 1.12C18.0234 1.176 18.0434 1.236 18.0594 1.3C18.0834 1.38 18.0954 1.464 18.0954 1.552C18.1034 1.64 18.1034 1.728 18.0954 1.816V2.752C18.0954 2.792 18.0914 2.836 18.0834 2.884C18.0834 2.924 18.0874 2.972 18.0954 3.028C18.1274 3.028 18.1874 3.032 18.2754 3.04C18.3634 3.04 18.4554 3.044 18.5514 3.052C18.6474 3.052 18.7394 3.056 18.8274 3.064C18.9154 3.072 18.9794 3.08 19.0194 3.088C19.1794 3.12 19.2914 3.168 19.3554 3.232C19.4194 3.288 19.4594 3.36 19.4754 3.448C19.4994 3.536 19.5114 3.64 19.5114 3.76C19.5114 3.872 19.4874 3.968 19.4394 4.048C19.3434 4.208 19.1994 4.3 19.0074 4.324C18.8154 4.34 18.6034 4.352 18.3714 4.36H18.0954ZM16.6914 8.56C16.6914 8.424 16.6194 8.316 16.4754 8.236C16.3314 8.156 16.1434 8.096 15.9114 8.05601C15.6874 8.016 15.4314 7.992 15.1434 7.984C14.8634 7.968 14.5834 7.96 14.3034 7.96C14.0234 7.96 13.7434 7.968 13.4634 7.984C13.1914 7.992 12.9434 8.016 12.7194 8.05601C12.5034 8.096 12.3274 8.156 12.1914 8.236C12.0554 8.316 11.9874 8.424 11.9874 8.56C11.9874 8.68 12.0554 8.78 12.1914 8.86C12.3274 8.94 12.5034 9 12.7194 9.04C12.9434 9.08 13.1914 9.108 13.4634 9.124C13.7434 9.14 14.0234 9.148 14.3034 9.148C14.5834 9.148 14.8634 9.148 15.1434 9.148C15.4314 9.148 15.6874 9.13201 15.9114 9.10001C16.1434 9.06801 16.3314 9.012 16.4754 8.932C16.6194 8.844 16.6914 8.72 16.6914 8.56Z" fill="black"/>
<path d="M27.302 1.264C27.63 1.264 27.91 1.292 28.142 1.348C28.374 1.404 28.558 1.548 28.694 1.78C28.822 1.996 28.842 2.212 28.754 2.428C28.642 2.652 28.442 2.784 28.154 2.824C27.962 2.856 27.742 2.876 27.494 2.884C27.246 2.884 26.918 2.876 26.51 2.86C26.502 2.996 26.498 3.14 26.498 3.292C26.498 3.436 26.498 3.572 26.498 3.7C26.498 3.82 26.498 3.924 26.498 4.012C26.506 4.1 26.51 4.156 26.51 4.18V5.524C26.51 5.588 26.514 5.676 26.522 5.788C26.53 5.892 26.538 5.972 26.546 6.028C26.61 6.092 26.698 6.188 26.81 6.316C26.922 6.436 27.01 6.536 27.074 6.616C27.154 6.712 27.234 6.812 27.314 6.916C27.402 7.02 27.49 7.136 27.578 7.264C27.642 7.336 27.698 7.408 27.746 7.48C27.794 7.552 27.838 7.616 27.878 7.672C28.03 7.888 28.186 8.124 28.346 8.38C28.506 8.636 28.614 8.892 28.67 9.148C28.694 9.26 28.694 9.38401 28.67 9.52001C28.654 9.64801 28.598 9.756 28.502 9.844C28.366 9.964 28.214 10.024 28.046 10.024C27.862 10.024 27.686 9.976 27.518 9.88C27.35 9.776 27.214 9.668 27.11 9.556C26.958 9.396 26.814 9.228 26.678 9.052C26.55 8.876 26.422 8.704 26.294 8.536C26.206 8.408 26.114 8.284 26.018 8.164C25.922 8.036 25.822 7.912 25.718 7.792C25.702 7.76 25.686 7.74 25.67 7.732C25.67 7.74 25.666 7.744 25.658 7.744C25.658 7.744 25.658 7.748 25.658 7.756C25.618 7.82 25.57 7.884 25.514 7.948C25.466 8.004 25.422 8.064 25.382 8.128C25.318 8.2 25.258 8.276 25.202 8.356C25.154 8.428 25.106 8.5 25.058 8.572C24.946 8.74 24.834 8.908 24.722 9.076C24.61 9.23601 24.482 9.388 24.338 9.532C23.994 9.876 23.67 10.048 23.366 10.048C23.286 10.048 23.21 10.036 23.138 10.012C22.954 9.964 22.83 9.852 22.766 9.676C22.702 9.54 22.678 9.39201 22.694 9.23201C22.718 9.07201 22.758 8.93201 22.814 8.81201C22.878 8.67601 22.95 8.548 23.03 8.428C23.11 8.308 23.194 8.188 23.282 8.068C23.338 7.996 23.39 7.924 23.438 7.852C23.494 7.78 23.542 7.708 23.582 7.636C23.654 7.516 23.75 7.376 23.87 7.216C23.998 7.048 24.122 6.888 24.242 6.736C24.37 6.576 24.486 6.432 24.59 6.304C24.694 6.176 24.766 6.084 24.806 6.028V2.86H24.074C23.77 2.86 23.558 2.86 23.438 2.86C23.326 2.852 23.242 2.84 23.186 2.824C22.882 2.776 22.678 2.604 22.574 2.308C22.486 2.052 22.518 1.828 22.67 1.636C22.806 1.444 22.998 1.324 23.246 1.276C23.286 1.268 23.326 1.264 23.366 1.264C23.406 1.256 23.45 1.252 23.498 1.252C23.578 1.252 23.634 1.256 23.666 1.264H27.302ZM31.346 9.35201C31.33 9.448 31.318 9.54401 31.31 9.64001C31.302 9.72801 31.282 9.82001 31.25 9.91601C31.234 9.94801 31.222 9.976 31.214 10C31.206 10.024 31.194 10.052 31.178 10.084C31.122 10.196 31.05 10.284 30.962 10.348C30.778 10.46 30.574 10.488 30.35 10.432C30.222 10.408 30.118 10.36 30.038 10.288C29.966 10.224 29.91 10.14 29.87 10.036C29.838 9.94001 29.81 9.844 29.786 9.748C29.77 9.652 29.762 9.56801 29.762 9.49601C29.762 9.42401 29.762 9.38401 29.762 9.37601V2.092C29.762 1.996 29.762 1.892 29.762 1.78C29.762 1.668 29.77 1.556 29.786 1.444C29.802 1.332 29.826 1.228 29.858 1.132C29.89 1.036 29.934 0.960004 29.99 0.904005C30.078 0.816004 30.17 0.764004 30.266 0.748004C30.362 0.724004 30.466 0.712004 30.578 0.712004C30.714 0.712004 30.838 0.752004 30.95 0.832004C31.07 0.904004 31.154 1.008 31.202 1.144C31.274 1.312 31.314 1.488 31.322 1.672C31.33 1.856 31.338 2.04 31.346 2.224V2.284C31.362 2.9 31.366 3.532 31.358 4.18C31.35 4.828 31.346 5.44 31.346 6.016V8.92C31.346 8.992 31.346 9.064 31.346 9.136C31.354 9.208 31.354 9.28001 31.346 9.35201Z" fill="black"/>
<path d="M36.3988 1.012C36.8788 1.268 37.2188 1.62 37.4188 2.068C37.6268 2.516 37.7068 3.052 37.6588 3.676C37.6108 4.476 37.3828 5.072 36.9748 5.464C36.5748 5.856 35.9588 6.052 35.1268 6.052C34.9108 6.052 34.7108 6.056 34.5268 6.064C34.3508 6.064 34.1828 6.052 34.0228 6.028C33.8628 6.004 33.6988 5.964 33.5308 5.908C33.3628 5.844 33.1828 5.748 32.9908 5.62C32.6148 5.372 32.3548 5.048 32.2108 4.648C32.0748 4.248 32.0068 3.836 32.0068 3.412C32.0068 2.988 32.0828 2.592 32.2348 2.224C32.3868 1.848 32.6348 1.528 32.9788 1.264C33.2588 1.04 33.5708 0.876004 33.9148 0.772004C34.2668 0.668004 34.6188 0.632004 34.9708 0.664004C35.1308 0.680004 35.2668 0.696004 35.3788 0.712004C35.4988 0.720004 35.6108 0.736004 35.7148 0.760004C35.8188 0.784004 35.9228 0.816005 36.0268 0.856005C36.1308 0.896004 36.2548 0.948005 36.3988 1.012ZM39.4588 7.156C39.6988 7.148 39.8868 7.168 40.0228 7.216C40.1668 7.264 40.2788 7.328 40.3588 7.408C40.4388 7.488 40.4908 7.576 40.5148 7.672C40.5388 7.768 40.5508 7.864 40.5508 7.96V9.35201C40.5668 9.52801 40.5668 9.704 40.5508 9.88C40.5348 10.048 40.4668 10.184 40.3468 10.288C40.2348 10.392 40.0868 10.444 39.9028 10.444C39.8628 10.444 39.7908 10.44 39.6868 10.432C39.5828 10.432 39.5108 10.424 39.4708 10.408C39.3668 10.376 39.2828 10.328 39.2188 10.264C39.1628 10.2 39.1188 10.128 39.0868 10.048C39.0548 9.96801 39.0348 9.88401 39.0268 9.79601C39.0188 9.70001 39.0108 9.60801 39.0028 9.52001C39.0028 9.48801 38.9988 9.428 38.9908 9.34C38.9908 9.244 38.9868 9.148 38.9788 9.052C38.9788 8.948 38.9748 8.852 38.9668 8.764C38.9668 8.676 38.9628 8.616 38.9548 8.584C38.9308 8.576 38.8628 8.568 38.7508 8.56C38.6468 8.552 38.4468 8.548 38.1508 8.548C37.8948 8.548 37.7348 8.552 37.6708 8.56C37.6148 8.56 37.5828 8.564 37.5748 8.572H33.2428L33.2308 8.56C33.2308 8.56 33.2028 8.552 33.1468 8.536C33.0988 8.52 33.0428 8.496 32.9788 8.464C32.9148 8.432 32.8508 8.388 32.7868 8.332C32.7308 8.276 32.6988 8.204 32.6908 8.116C32.6508 7.812 32.7028 7.572 32.8468 7.396C32.9428 7.284 33.0468 7.22 33.1588 7.204C33.2708 7.18 33.3308 7.168 33.3388 7.168L39.4588 7.156ZM36.2308 3.808C36.2308 3.632 36.2228 3.468 36.2068 3.316C36.1908 3.156 36.1548 3.012 36.0988 2.884C36.0508 2.748 35.9748 2.628 35.8708 2.524C35.7668 2.42 35.6308 2.336 35.4628 2.272C35.2788 2.208 35.0788 2.176 34.8628 2.176C34.6468 2.176 34.4428 2.216 34.2508 2.296C34.0588 2.368 33.8908 2.484 33.7468 2.644C33.6028 2.796 33.5108 2.996 33.4708 3.244C33.4468 3.412 33.4468 3.584 33.4708 3.76C33.5028 3.928 33.5628 4.084 33.6508 4.228C33.7468 4.364 33.8748 4.48 34.0348 4.576C34.2028 4.672 34.4108 4.732 34.6588 4.756C34.8268 4.772 34.9948 4.772 35.1628 4.756C35.3308 4.732 35.4868 4.684 35.6308 4.612C35.7748 4.54 35.8988 4.44 36.0028 4.312C36.1068 4.176 36.1828 4.008 36.2308 3.808ZM38.7028 5.32C38.5908 5.32 38.4788 5.3 38.3668 5.26C38.2628 5.22 38.1708 5.132 38.0908 4.996C38.0668 4.964 38.0468 4.92 38.0308 4.864C38.0228 4.808 38.0148 4.752 38.0068 4.696C38.0068 4.632 38.0068 4.572 38.0068 4.516C38.0148 4.46 38.0228 4.416 38.0308 4.384C38.0468 4.296 38.0908 4.22 38.1628 4.156C38.2348 4.084 38.3188 4.028 38.4148 3.988C38.4468 3.98 38.5108 3.972 38.6068 3.964C38.7108 3.956 38.8188 3.952 38.9308 3.952H39.3508V3.136L38.7028 3.124C38.5908 3.124 38.4788 3.104 38.3668 3.064C38.2548 3.024 38.1588 2.936 38.0788 2.8C38.0148 2.696 37.9828 2.588 37.9828 2.476C37.9828 2.364 38.0068 2.26 38.0548 2.164C38.1108 2.068 38.1828 1.988 38.2708 1.924C38.3668 1.86 38.4788 1.824 38.6068 1.816L39.3868 1.78L39.3988 1.348C39.3988 1.252 39.4108 1.16 39.4348 1.072C39.4588 0.984004 39.5188 0.904004 39.6148 0.832004C39.6788 0.784004 39.7548 0.752004 39.8428 0.736005C39.9388 0.720004 40.0268 0.708004 40.1068 0.700004C40.3068 0.676004 40.4788 0.744004 40.6228 0.904005C40.6788 0.976005 40.7188 1.044 40.7428 1.108C40.7748 1.204 40.7868 1.324 40.7788 1.468C40.7788 1.612 40.7788 1.736 40.7788 1.84V5.236C40.7788 5.236 40.7788 5.288 40.7788 5.392C40.7788 5.496 40.7708 5.612 40.7548 5.74C40.7388 5.868 40.7108 5.996 40.6708 6.124C40.6388 6.244 40.5828 6.328 40.5028 6.376C40.4468 6.408 40.3788 6.432 40.2988 6.448C40.2188 6.464 40.1468 6.472 40.0828 6.472C39.9468 6.472 39.8148 6.428 39.6868 6.34C39.5908 6.276 39.5228 6.2 39.4828 6.112C39.4588 6.064 39.4388 6.004 39.4228 5.932C39.4068 5.86 39.3948 5.788 39.3868 5.716C39.3788 5.636 39.3708 5.56 39.3628 5.488C39.3548 5.416 39.3508 5.36 39.3508 5.32H38.7028Z" fill="black"/>
</svg>
