<svg width="42" height="11" viewBox="0 0 42 11" fill="none" xmlns="http://www.w3.org/2000/svg">
<path d="M0.8531 8.55996C0.8531 8.19996 0.9571 7.89996 1.1651 7.65996C1.3811 7.41996 1.6691 7.23196 2.0291 7.09596C2.3891 6.95196 2.8131 6.85196 3.3011 6.79596C3.7891 6.73996 4.3091 6.71196 4.8611 6.71196C5.4131 6.71196 5.9331 6.73196 6.4211 6.77196C6.9091 6.81196 7.3331 6.89996 7.6931 7.03596C8.0531 7.16396 8.3371 7.34796 8.5451 7.58796C8.7611 7.82796 8.8691 8.15196 8.8691 8.55996C8.8691 8.95996 8.7611 9.27996 8.5451 9.51996C8.3371 9.75996 8.0531 9.94396 7.6931 10.072C7.3331 10.208 6.9091 10.296 6.4211 10.336C5.9331 10.384 5.4131 10.408 4.8611 10.408C4.3091 10.408 3.7891 10.384 3.3011 10.336C2.8131 10.296 2.3891 10.208 2.0291 10.072C1.6691 9.94396 1.3811 9.75996 1.1651 9.51996C0.9571 9.27996 0.8531 8.95996 0.8531 8.55996ZM0.6731 5.90796C0.5611 5.85996 0.4811 5.76796 0.4331 5.63196C0.3691 5.47196 0.3571 5.31196 0.3971 5.15196C0.4451 4.99196 0.5171 4.83996 0.6131 4.69596C0.7091 4.55196 0.8171 4.41596 0.9371 4.28796C1.0651 4.15996 1.1731 4.03996 1.2611 3.92796C1.3971 3.75996 1.5331 3.59196 1.6691 3.42396C1.8051 3.25596 1.9411 3.08396 2.0771 2.90796C2.1251 2.84396 2.1811 2.77596 2.2451 2.70396C2.3091 2.63196 2.3691 2.55596 2.4251 2.47596C2.4891 2.39596 2.5411 2.31596 2.5811 2.23596C2.6211 2.15596 2.6451 2.07196 2.6531 1.98396C2.6611 1.84796 2.6691 1.71596 2.6771 1.58796C2.6851 1.45196 2.7091 1.33196 2.7491 1.22796C2.7891 1.11596 2.8531 1.02796 2.9411 0.963962C3.0371 0.899962 3.1731 0.867962 3.3491 0.867962C3.4771 0.867962 3.6011 0.883962 3.7211 0.915962C3.8411 0.939962 3.9291 1.01596 3.9851 1.14396C4.0411 1.28796 4.0571 1.44796 4.0331 1.62396C4.0171 1.79196 4.0331 1.95196 4.0811 2.10396C4.1211 2.23996 4.1891 2.35996 4.2851 2.46396C4.3811 2.55996 4.4611 2.66396 4.5251 2.77596C4.6611 3.02396 4.8211 3.24396 5.0051 3.43596C5.1891 3.62796 5.3611 3.83596 5.5211 4.05996C5.6491 4.22796 5.7691 4.40396 5.8811 4.58796C6.0011 4.76396 6.0811 4.95596 6.1211 5.16396C6.1611 5.33996 6.1411 5.49196 6.0611 5.61996C5.9891 5.73996 5.8891 5.82796 5.7611 5.88396C5.6331 5.93996 5.4931 5.95996 5.3411 5.94396C5.1891 5.91996 5.0571 5.85196 4.9451 5.73996C4.6491 5.43596 4.3771 5.12396 4.1291 4.80396C3.8891 4.47596 3.6411 4.14396 3.3851 3.80796C3.3851 3.80796 3.3491 3.84796 3.2771 3.92796C3.2051 3.99996 3.1131 4.09596 3.0011 4.21596C2.8891 4.32796 2.7691 4.45596 2.6411 4.59996C2.5131 4.73596 2.3931 4.86796 2.2811 4.99596C2.1691 5.12396 2.0691 5.23596 1.9811 5.33196C1.8931 5.41996 1.8411 5.47596 1.8251 5.49996C1.7371 5.60396 1.6451 5.69596 1.5491 5.77596C1.4531 5.85596 1.3371 5.91196 1.2011 5.94396C1.1131 5.95996 1.0211 5.96796 0.9251 5.96796C0.8371 5.96796 0.7531 5.94796 0.6731 5.90796ZM8.6531 4.35996V5.45196C8.6451 5.53996 8.6331 5.63196 8.6171 5.72796C8.6011 5.81596 8.5691 5.90396 8.5211 5.99196C8.4731 6.08796 8.4051 6.16796 8.3171 6.23196C8.2531 6.27196 8.1771 6.30396 8.0891 6.32796C8.0091 6.34396 7.9371 6.35196 7.8731 6.35196C7.8091 6.35196 7.7411 6.34796 7.6691 6.33996C7.5971 6.32396 7.5371 6.29996 7.4891 6.26796C7.4091 6.21996 7.3451 6.15996 7.2971 6.08796C7.2491 6.01596 7.2091 5.94796 7.1771 5.88396C7.1531 5.81196 7.1371 5.75196 7.1291 5.70396C7.1211 5.64796 7.1171 5.61996 7.1171 5.61996V1.65996C7.1091 1.62796 7.1131 1.53996 7.1291 1.39596C7.1451 1.25196 7.1771 1.13196 7.2251 1.03596C7.2651 0.955962 7.3331 0.891962 7.4291 0.843962C7.5331 0.795962 7.6411 0.763962 7.7531 0.747962C7.8891 0.731961 8.0251 0.739961 8.1611 0.771961C8.2971 0.803962 8.3971 0.855962 8.4611 0.927962C8.5091 0.991962 8.5411 1.05596 8.5571 1.11996C8.5811 1.17596 8.6011 1.23596 8.6171 1.29996C8.6411 1.37996 8.6531 1.46396 8.6531 1.55196C8.6611 1.63996 8.6611 1.72796 8.6531 1.81596V2.75196C8.6531 2.79196 8.6491 2.83596 8.6411 2.88396C8.6411 2.92396 8.6451 2.97196 8.6531 3.02796C8.6851 3.02796 8.7451 3.03196 8.8331 3.03996C8.9211 3.03996 9.0131 3.04396 9.1091 3.05196C9.2051 3.05196 9.2971 3.05596 9.3851 3.06396C9.4731 3.07196 9.5371 3.07996 9.5771 3.08796C9.7371 3.11996 9.8491 3.16796 9.9131 3.23196C9.9771 3.28796 10.0171 3.35996 10.0331 3.44796C10.0571 3.53596 10.0691 3.63996 10.0691 3.75996C10.0691 3.87196 10.0451 3.96796 9.9971 4.04796C9.9011 4.20796 9.7571 4.29996 9.5651 4.32396C9.3731 4.33996 9.1611 4.35196 8.9291 4.35996H8.6531ZM7.2491 8.55996C7.2491 8.42396 7.1771 8.31596 7.0331 8.23596C6.8891 8.15596 6.7011 8.09596 6.4691 8.05596C6.2451 8.01596 5.9891 7.99196 5.7011 7.98396C5.4211 7.96796 5.1411 7.95996 4.8611 7.95996C4.5811 7.95996 4.3011 7.96796 4.0211 7.98396C3.7491 7.99196 3.5011 8.01596 3.2771 8.05596C3.0611 8.09596 2.8851 8.15596 2.7491 8.23596C2.6131 8.31596 2.5451 8.42396 2.5451 8.55996C2.5451 8.67996 2.6131 8.77996 2.7491 8.85996C2.8851 8.93996 3.0611 8.99996 3.2771 9.03996C3.5011 9.07996 3.7491 9.10796 4.0211 9.12396C4.3011 9.13996 4.5811 9.14796 4.8611 9.14796C5.1411 9.14796 5.4211 9.14796 5.7011 9.14796C5.9891 9.14796 6.2451 9.13196 6.4691 9.09996C6.7011 9.06796 6.8891 9.01196 7.0331 8.93196C7.1771 8.84396 7.2491 8.71996 7.2491 8.55996Z" fill="black"/>
<path d="M17.2603 8.83596C17.2603 9.03596 17.2523 9.19596 17.2363 9.31596C17.2283 9.43596 17.1923 9.58796 17.1283 9.77196C17.0883 9.89196 17.0203 9.99196 16.9243 10.072C16.8283 10.152 16.6923 10.192 16.5163 10.192C16.4683 10.192 16.4043 10.184 16.3243 10.168C16.2443 10.16 16.1843 10.14 16.1443 10.108C16.0643 10.06 16.0003 9.98396 15.9523 9.87996C15.9123 9.76796 15.8803 9.65196 15.8563 9.53196C15.8323 9.41196 15.8163 9.29596 15.8083 9.18396C15.8083 9.07196 15.8083 8.98396 15.8083 8.91996V5.71596L15.0283 5.67996C14.9563 5.67996 14.8803 5.67196 14.8003 5.65596C14.7283 5.63196 14.6563 5.59596 14.5843 5.54796C14.5203 5.49996 14.4643 5.43596 14.4163 5.35596C14.3683 5.27596 14.3403 5.17596 14.3323 5.05596C14.3163 4.91196 14.3243 4.75996 14.3563 4.59996C14.3963 4.43196 14.5083 4.30396 14.6923 4.21596C14.7643 4.17596 14.8523 4.15196 14.9563 4.14396C15.0683 4.13596 15.1643 4.13596 15.2443 4.14396H15.8083V1.95996C15.8083 1.85596 15.8083 1.75196 15.8083 1.64796C15.8083 1.53596 15.8203 1.42796 15.8443 1.32396C15.8603 1.28396 15.8723 1.24796 15.8803 1.21596C15.8963 1.18396 15.9123 1.14796 15.9283 1.10796C16.0163 0.963961 16.1403 0.863961 16.3003 0.807962C16.3403 0.791962 16.3803 0.783962 16.4203 0.783962C16.4683 0.775962 16.5123 0.771961 16.5523 0.771961C16.8163 0.771961 17.0163 0.891962 17.1523 1.13196C17.1843 1.17996 17.2043 1.24796 17.2123 1.33596C17.2283 1.42396 17.2403 1.51596 17.2483 1.61196C17.2563 1.69996 17.2603 1.77996 17.2603 1.85196C17.2603 1.91596 17.2603 1.95596 17.2603 1.97196V8.83596ZM19.1683 9.85596C19.1203 9.95996 19.0443 10.048 18.9403 10.12C18.7803 10.224 18.6043 10.252 18.4123 10.204C18.2923 10.18 18.1963 10.128 18.1243 10.048C18.0523 9.97596 17.9963 9.89196 17.9563 9.79596C17.9243 9.69996 17.9043 9.59596 17.8963 9.48396C17.8883 9.37196 17.8843 9.26396 17.8843 9.15996V2.09196C17.8843 2.00396 17.8843 1.90396 17.8843 1.79196C17.8843 1.67196 17.8923 1.55996 17.9083 1.45596C17.9243 1.34396 17.9443 1.23996 17.9683 1.14396C18.0003 1.04796 18.0443 0.971961 18.1003 0.915962C18.1883 0.835962 18.2723 0.787962 18.3523 0.771961C18.4323 0.747962 18.5283 0.735962 18.6403 0.735962C18.7763 0.735962 18.8883 0.775962 18.9763 0.855962C19.0643 0.927962 19.1323 1.02796 19.1803 1.15596C19.2523 1.32396 19.2923 1.49596 19.3003 1.67196C19.3083 1.84796 19.3163 2.02796 19.3243 2.21196V2.27196C19.3403 2.87996 19.3443 3.46396 19.3363 4.02396C19.3283 4.58396 19.3243 5.14796 19.3243 5.71596V8.71596C19.3243 8.92396 19.3163 9.12396 19.3003 9.31596C19.2923 9.50796 19.2483 9.68796 19.1683 9.85596ZM12.9283 7.55196C12.9203 7.55996 12.8803 7.61196 12.8083 7.70796C12.7443 7.79596 12.6723 7.89596 12.5923 8.00796C12.5203 8.11196 12.4483 8.20796 12.3763 8.29596C12.3123 8.38396 12.2763 8.43196 12.2683 8.43996C12.2043 8.52796 12.1403 8.61596 12.0763 8.70396C12.0203 8.78396 11.9603 8.86396 11.8963 8.94396C11.8803 8.95996 11.8643 8.97996 11.8483 9.00396C11.8403 9.02796 11.8283 9.04796 11.8123 9.06396C11.7003 9.19996 11.5843 9.33196 11.4643 9.45996C11.3443 9.58796 11.2043 9.68396 11.0443 9.74796C10.9803 9.77996 10.9083 9.79596 10.8283 9.79596C10.7483 9.79596 10.6803 9.77596 10.6243 9.73596C10.5763 9.69596 10.5203 9.64396 10.4563 9.57996C10.3283 9.43596 10.2643 9.26796 10.2643 9.07596C10.2723 8.93196 10.3043 8.79596 10.3603 8.66796C10.4243 8.53996 10.4883 8.41996 10.5523 8.30796C10.5683 8.29196 10.6123 8.22396 10.6843 8.10396C10.7643 7.98396 10.8563 7.83596 10.9603 7.65996C11.0643 7.48396 11.1723 7.29596 11.2843 7.09596C11.4043 6.88796 11.5163 6.69596 11.6203 6.51996C11.7323 6.33596 11.8283 6.17596 11.9083 6.03996C11.9883 5.90396 12.0443 5.81996 12.0763 5.78796C12.1243 5.69996 12.1603 5.61596 12.1843 5.53596C12.2163 5.45596 12.2363 5.37196 12.2443 5.28396C12.2603 5.15596 12.2683 5.03196 12.2683 4.91196C12.2683 4.78396 12.2683 4.64796 12.2683 4.50396V2.37996C12.2683 2.29996 12.2683 2.22396 12.2683 2.15196C12.2683 2.07996 12.2723 2.00396 12.2803 1.92396C12.2803 1.83596 12.2883 1.74796 12.3043 1.65996C12.3203 1.57196 12.3363 1.49196 12.3523 1.41996C12.3683 1.37196 12.3883 1.31996 12.4123 1.26396C12.4443 1.20796 12.4723 1.15596 12.4963 1.10796C12.5363 1.04396 12.5883 0.995962 12.6523 0.963962C12.7243 0.931962 12.8003 0.907962 12.8803 0.891961L12.9043 0.879961C12.9683 0.863962 13.0203 0.859962 13.0603 0.867962C13.1003 0.867962 13.1523 0.879962 13.2163 0.903962C13.2803 0.927962 13.3363 0.963962 13.3843 1.01196C13.4163 1.04396 13.4443 1.08796 13.4683 1.14396C13.4923 1.19996 13.5163 1.25996 13.5403 1.32396C13.5723 1.40396 13.5963 1.49596 13.6123 1.59996C13.6363 1.69596 13.6523 1.79996 13.6603 1.91196C13.6923 2.24796 13.7123 2.62796 13.7203 3.05196C13.7283 3.46796 13.7323 3.84396 13.7323 4.17996C13.7403 4.38796 13.7443 4.59596 13.7443 4.80396C13.7443 5.00396 13.7523 5.20396 13.7683 5.40396C13.7763 5.57996 13.8163 5.74396 13.8883 5.89596C13.9683 6.04796 14.0483 6.19996 14.1283 6.35196C14.2083 6.52796 14.2923 6.70796 14.3803 6.89196C14.4683 7.07596 14.5563 7.25196 14.6443 7.41996C14.6523 7.44396 14.6803 7.49996 14.7283 7.58796C14.7763 7.67596 14.8243 7.77196 14.8723 7.87596C14.9283 7.97196 14.9763 8.06396 15.0163 8.15196C15.0643 8.23196 15.0923 8.28396 15.1003 8.30796L15.1243 8.40396L15.1603 8.47596C15.2083 8.56396 15.2443 8.65596 15.2683 8.75196C15.2923 8.83996 15.3083 8.93596 15.3163 9.03996C15.3243 9.14396 15.3003 9.25196 15.2443 9.36396C15.1323 9.61196 14.9723 9.74396 14.7643 9.75996H14.7523C14.6243 9.75996 14.5123 9.71196 14.4163 9.61596C14.3203 9.51996 14.2163 9.40396 14.1043 9.26796C13.9923 9.13996 13.8843 8.99196 13.7803 8.82396C13.6763 8.65596 13.5843 8.51596 13.5043 8.40396C13.3203 8.09996 13.1803 7.88796 13.0843 7.76796C12.9883 7.63996 12.9363 7.56796 12.9283 7.55196Z" fill="black"/>
<path d="M23.7549 10.216C23.7469 10.216 23.7349 10.208 23.7189 10.192C23.6389 10.128 23.5829 10.04 23.5509 9.92796C23.5269 9.81596 23.5149 9.71596 23.5149 9.62796C23.5069 9.48396 23.4949 9.33996 23.4789 9.19596C23.4709 9.05196 23.4669 8.91196 23.4669 8.77596C23.4669 8.56796 23.4669 8.37996 23.4669 8.21196C23.4669 8.04396 23.4869 7.85996 23.5269 7.65996C23.5509 7.53196 23.5909 7.43196 23.6469 7.35996C23.7029 7.27996 23.7909 7.21596 23.9109 7.16796C24.1349 7.07996 24.3589 7.03596 24.5829 7.03596H29.9949C30.1469 7.04396 30.3029 7.05596 30.4629 7.07196C30.6229 7.08796 30.7749 7.12796 30.9189 7.19196C31.0789 7.25596 31.1829 7.34796 31.2309 7.46796C31.2869 7.57996 31.3229 7.71596 31.3389 7.87596C31.3469 8.01196 31.3509 8.16796 31.3509 8.34396C31.3589 8.51996 31.3589 8.69996 31.3509 8.88396C31.3429 9.05996 31.3309 9.23596 31.3149 9.41196C31.2989 9.58796 31.2709 9.74796 31.2309 9.89196C31.2069 9.97996 31.1789 10.056 31.1469 10.12C31.1149 10.192 31.0509 10.244 30.9549 10.276C30.8669 10.308 30.7749 10.328 30.6789 10.336C30.5909 10.344 30.5029 10.348 30.4149 10.348L24.4029 10.324C24.2989 10.316 24.1869 10.312 24.0669 10.312C23.9469 10.312 23.8429 10.28 23.7549 10.216ZM24.3189 2.75196C24.1829 2.74396 24.0509 2.72396 23.9229 2.69196C23.7949 2.65196 23.6829 2.59996 23.5869 2.53596C23.4909 2.47196 23.4229 2.38796 23.3829 2.28396C23.3429 2.17996 23.3429 2.05196 23.3829 1.89996C23.4469 1.64396 23.6029 1.45196 23.8509 1.32396C24.0349 1.21996 24.2269 1.15996 24.4269 1.14396C24.6349 1.12796 24.8429 1.11996 25.0509 1.11996C25.1149 1.11196 25.1789 1.10796 25.2429 1.10796C25.3149 1.10796 25.3829 1.10796 25.4469 1.10796C25.5109 1.09996 25.5749 1.09596 25.6389 1.09596C25.7109 1.09596 25.7829 1.09596 25.8549 1.09596C25.9189 1.09596 26.0869 1.09596 26.3589 1.09596C26.6389 1.09596 26.9389 1.09996 27.2589 1.10796C27.5789 1.10796 27.8749 1.11196 28.1469 1.11996C28.4189 1.11996 28.5869 1.11996 28.6509 1.11996C28.7789 1.12796 28.9029 1.13596 29.0229 1.14396C29.1509 1.14396 29.2789 1.14396 29.4069 1.14396C29.5989 1.14396 29.7909 1.15596 29.9829 1.17996C30.1749 1.19596 30.3629 1.23196 30.5469 1.28796C30.7229 1.34396 30.8229 1.43596 30.8469 1.56396C30.8789 1.68396 30.9069 1.82396 30.9309 1.98396C30.9549 2.15996 30.9709 2.31596 30.9789 2.45196C30.9949 2.58796 30.9989 2.71996 30.9909 2.84796C30.9909 2.97596 30.9829 3.10796 30.9669 3.24396C30.9509 3.37996 30.9349 3.53596 30.9189 3.71196C30.9029 3.87196 30.8749 4.01596 30.8349 4.14396C30.7949 4.27196 30.6949 4.36796 30.5349 4.43196C30.4069 4.47996 30.2509 4.50796 30.0669 4.51596C29.8829 4.52396 29.7389 4.47196 29.6349 4.35996C29.5469 4.27196 29.4949 4.15596 29.4789 4.01196C29.4709 3.85996 29.4589 3.72396 29.4429 3.60396C29.4269 3.49196 29.4229 3.37196 29.4309 3.24396C29.4389 3.11596 29.4109 3.00796 29.3469 2.91996C29.2909 2.84796 29.2149 2.79996 29.1189 2.77596C29.0309 2.74396 28.9349 2.72796 28.8309 2.72796C28.7349 2.71996 28.6349 2.71996 28.5309 2.72796C28.4349 2.72796 28.3509 2.72796 28.2789 2.72796H25.2309C25.1829 2.72796 25.1269 2.73196 25.0629 2.73996C24.9989 2.73996 24.9349 2.74396 24.8709 2.75196C24.7189 2.76796 24.5349 2.76796 24.3189 2.75196ZM30.4269 4.91196C30.5549 4.91196 30.6989 4.91196 30.8589 4.91196C31.0269 4.91196 31.1789 4.93196 31.3149 4.97196C31.4509 5.01196 31.5669 5.08396 31.6629 5.18796C31.7589 5.28396 31.8069 5.43596 31.8069 5.64396C31.8069 5.83596 31.7269 6.00396 31.5669 6.14796C31.4389 6.25996 31.2829 6.32396 31.0989 6.33996C30.9229 6.34796 30.7549 6.34796 30.5949 6.33996C30.5869 6.33996 30.5629 6.33996 30.5229 6.33996C30.4909 6.33196 30.4069 6.32796 30.2709 6.32796C30.1429 6.32796 29.9389 6.32796 29.6589 6.32796C29.3789 6.32796 28.9869 6.32796 28.4829 6.32796C27.9869 6.32796 27.3549 6.32796 26.5869 6.32796C25.8189 6.32796 24.8789 6.32796 23.7669 6.32796C23.7589 6.32796 23.7229 6.32796 23.6589 6.32796C23.5949 6.32796 23.5189 6.31996 23.4309 6.30396C23.3509 6.28796 23.2669 6.26796 23.1789 6.24396C23.0909 6.21196 23.0189 6.16396 22.9629 6.09996C22.8669 5.99596 22.8189 5.85596 22.8189 5.67996C22.8189 5.51196 22.8709 5.37596 22.9749 5.27196C23.0789 5.17596 23.1869 5.09596 23.2989 5.03196C23.4109 4.96796 23.5269 4.92796 23.6469 4.91196C23.6709 4.91196 23.6949 4.91596 23.7189 4.92396C23.7429 4.92396 23.7669 4.91996 23.7909 4.91196C23.9029 4.89596 24.0229 4.89596 24.1509 4.91196C24.2789 4.91996 24.4109 4.91996 24.5469 4.91196C24.9629 4.89596 25.3829 4.89196 25.8069 4.89996C26.2389 4.90796 26.6869 4.91196 27.1509 4.91196C27.6549 4.91196 28.1909 4.90796 28.7589 4.89996C29.3269 4.89196 29.8829 4.89596 30.4269 4.91196ZM24.8949 8.84796C24.8949 8.88796 24.8949 8.92796 24.8949 8.96796C24.9029 9.00796 24.9189 9.03596 24.9429 9.05196C24.9589 9.06796 24.9829 9.07996 25.0149 9.08796C25.0549 9.08796 25.0949 9.08796 25.1349 9.08796C25.1749 9.08796 25.2229 9.08396 25.2789 9.07596H28.7949C28.9069 9.08396 29.0149 9.09196 29.1189 9.09996C29.2069 9.10796 29.2989 9.11196 29.3949 9.11196C29.4909 9.11196 29.5789 9.10396 29.6589 9.08796C29.7389 9.07996 29.7869 9.05596 29.8029 9.01596C29.8189 8.97596 29.8309 8.91996 29.8389 8.84796C29.8469 8.78396 29.8509 8.71196 29.8509 8.63196C29.8509 8.54396 29.8269 8.46796 29.7789 8.40396C29.7229 8.33996 29.6429 8.30796 29.5389 8.30796C29.4429 8.29996 29.3549 8.29996 29.2749 8.30796H26.1789C26.0029 8.29196 25.8309 8.28796 25.6629 8.29596C25.4949 8.29596 25.3229 8.29996 25.1469 8.30796C25.0829 8.30796 25.0309 8.31196 24.9909 8.31996C24.9589 8.31996 24.9349 8.35596 24.9189 8.42796C24.9029 8.48396 24.8949 8.53996 24.8949 8.59596C24.8949 8.64396 24.8949 8.69196 24.8949 8.73996C24.9029 8.75596 24.9029 8.77196 24.8949 8.78796C24.8949 8.80396 24.8949 8.82396 24.8949 8.84796Z" fill="black"/>
<path d="M35.8899 1.27596C36.1299 1.40396 36.3219 1.56396 36.4659 1.75596C36.6099 1.93996 36.7219 2.14796 36.8019 2.37996C36.8819 2.60396 36.9299 2.85196 36.9459 3.12396C36.9619 3.38796 36.9579 3.66396 36.9339 3.95196C36.8939 4.71196 36.6939 5.29196 36.3339 5.69196C35.9819 6.09196 35.4859 6.28396 34.8459 6.26796C34.6699 6.26796 34.5099 6.26796 34.3659 6.26796C34.2219 6.25996 34.0819 6.24396 33.9459 6.21996C33.8179 6.18796 33.6859 6.13996 33.5499 6.07596C33.4139 6.01196 33.2659 5.91996 33.1059 5.79996C32.9539 5.67996 32.8259 5.53996 32.7219 5.37996C32.6179 5.21996 32.5339 5.04796 32.4699 4.86396C32.4139 4.67196 32.3739 4.47596 32.3499 4.27596C32.3259 4.06796 32.3139 3.86396 32.3139 3.66396C32.3139 3.26396 32.3739 2.86796 32.4939 2.47596C32.6219 2.08396 32.8219 1.76396 33.0939 1.51596C33.3259 1.30796 33.5859 1.15596 33.8739 1.05996C34.1619 0.955962 34.4459 0.919962 34.7259 0.951962C34.8539 0.967962 34.9659 0.983962 35.0619 0.999961C35.1579 1.00796 35.2459 1.02396 35.3259 1.04796C35.4139 1.06396 35.5019 1.09196 35.5899 1.13196C35.6779 1.17196 35.7779 1.21996 35.8899 1.27596ZM41.0259 5.71596C41.0259 5.72396 41.0219 5.75196 41.0139 5.79996C41.0139 5.84796 41.0019 5.90796 40.9779 5.97996C40.9539 6.04396 40.9179 6.11196 40.8699 6.18396C40.8299 6.25596 40.7699 6.31596 40.6899 6.36396C40.6019 6.41996 40.5099 6.44796 40.4139 6.44796C40.2539 6.44796 40.1219 6.40796 40.0179 6.32796C39.9299 6.26396 39.8619 6.18396 39.8139 6.08796C39.6939 5.86396 39.6379 5.61996 39.6459 5.35596C39.6539 5.08396 39.6619 4.82396 39.6699 4.57596V4.40796C39.5579 4.41596 39.4459 4.41996 39.3339 4.41996C39.2299 4.41996 39.1339 4.42396 39.0459 4.43196H39.0099V5.52396C39.0019 5.61196 38.9899 5.70396 38.9739 5.79996C38.9579 5.88796 38.9259 5.97596 38.8779 6.06396C38.8219 6.16796 38.7539 6.24396 38.6739 6.29196C38.6179 6.33196 38.5699 6.36396 38.5299 6.38796C38.4899 6.41196 38.4339 6.42396 38.3619 6.42396C38.2499 6.42396 38.1379 6.39196 38.0259 6.32796C37.9459 6.27996 37.8819 6.21996 37.8339 6.14796C37.7859 6.07596 37.7499 6.00796 37.7259 5.94396C37.7019 5.87996 37.6859 5.82396 37.6779 5.77596C37.6699 5.71996 37.6659 5.69196 37.6659 5.69196V1.73196C37.6579 1.69196 37.6579 1.60396 37.6659 1.46796C37.6819 1.32396 37.7139 1.20396 37.7619 1.10796C37.8419 0.939962 38.0059 0.843962 38.2539 0.819962C38.3899 0.803962 38.5019 0.811962 38.5899 0.843962C38.6779 0.875962 38.7539 0.927961 38.8179 0.999961C38.8739 1.06396 38.9099 1.12796 38.9259 1.19196C38.9419 1.24796 38.9579 1.30796 38.9739 1.37196C38.9979 1.45196 39.0099 1.53596 39.0099 1.62396C39.0179 1.71196 39.0219 1.79996 39.0219 1.88796C39.0139 1.91996 39.0099 1.96796 39.0099 2.03196V3.08796C39.0499 3.09596 39.1379 3.10396 39.2739 3.11196C39.4099 3.11196 39.5459 3.11596 39.6819 3.12396V1.85196C39.6739 1.76396 39.6699 1.67996 39.6699 1.59996C39.6779 1.51196 39.6939 1.42396 39.7179 1.33596C39.7499 1.21596 39.8219 1.09596 39.9339 0.975962C40.0619 0.815962 40.2499 0.751962 40.4979 0.783962C40.7059 0.815962 40.8499 0.919961 40.9299 1.09596C40.9779 1.19196 41.0059 1.30796 41.0139 1.44396C41.0299 1.57996 41.0339 1.66396 41.0259 1.69596V5.71596ZM39.7299 7.23996C40.0579 7.23996 40.3219 7.29196 40.5219 7.39596C40.7219 7.49196 40.8219 7.63196 40.8219 7.81596V9.42396C40.8379 9.60796 40.8379 9.78396 40.8219 9.95196C40.8059 10.12 40.7379 10.256 40.6179 10.36C40.5059 10.464 40.3579 10.516 40.1739 10.516C40.1339 10.516 40.0619 10.512 39.9579 10.504C39.8539 10.504 39.7819 10.496 39.7419 10.48C39.6379 10.448 39.5539 10.4 39.4899 10.336C39.4339 10.272 39.3899 10.2 39.3579 10.12C39.3259 10.04 39.3019 9.95596 39.2859 9.86796C39.2779 9.77196 39.2699 9.67996 39.2619 9.59196C39.2619 9.55996 39.2579 9.49996 39.2499 9.41196C39.2499 9.31596 39.2499 9.21996 39.2499 9.12396C39.2499 9.01996 39.2459 8.92396 39.2379 8.83596C39.2379 8.74796 39.2339 8.68796 39.2259 8.65596C39.2019 8.64796 39.1339 8.63996 39.0219 8.63196C38.9179 8.62396 38.7179 8.61996 38.4219 8.61996C38.1659 8.61996 38.0059 8.62396 37.9419 8.63196C37.8859 8.63996 37.8539 8.64396 37.8459 8.64396H33.5139L33.5019 8.63196C33.5019 8.63196 33.4739 8.62396 33.4179 8.60796C33.3699 8.59196 33.3139 8.56796 33.2499 8.53596C33.1859 8.50396 33.1219 8.45996 33.0579 8.40396C33.0019 8.34796 32.9699 8.27596 32.9619 8.18796C32.9219 7.88396 32.9739 7.64396 33.1179 7.46796C33.2139 7.35596 33.3179 7.29196 33.4299 7.27596C33.5419 7.25196 33.6019 7.23996 33.6099 7.23996H39.7299ZM35.5659 4.03596C35.6139 3.67596 35.6059 3.34796 35.5419 3.05196C35.4859 2.75596 35.3419 2.55996 35.1099 2.46396C34.9659 2.40796 34.8179 2.38796 34.6659 2.40396C34.5139 2.41196 34.3739 2.45996 34.2459 2.54796C34.1259 2.62796 34.0179 2.74796 33.9219 2.90796C33.8339 3.06796 33.7739 3.26396 33.7419 3.49596C33.7259 3.65596 33.7139 3.82396 33.7059 3.99996C33.7059 4.17596 33.7259 4.33996 33.7659 4.49196C33.8139 4.63596 33.8899 4.75996 33.9939 4.86396C34.1059 4.96796 34.2659 5.02796 34.4739 5.04396C34.7539 5.08396 34.9859 5.02396 35.1699 4.86396C35.3539 4.69596 35.4859 4.41996 35.5659 4.03596Z" fill="black"/>
</svg>
