<svg width="25" height="13" viewBox="0 0 25 13" fill="none" xmlns="http://www.w3.org/2000/svg">
<path d="M5.14215 5.84017V8.31101H7.08506V5.84017H5.14215ZM1.51927 2.97624V4.43628H10.8102V2.97624H1.51927ZM1.51927 0.435205V3.76242H3.44758V1.90929H10.6933V0.435205H1.51927ZM0 5.11015V6.58423H12.2272V5.11015H0ZM1.4024 7.41253V8.78834H8.83807V9.4622H1.41701V11.8909H3.33071V10.7538H10.7518V7.41253H1.4024ZM1.41701 11.5119V12.9158H11.1024V11.5119H1.41701Z" fill="#F14668"/>
<path d="M23.1886 0V13H25V0H23.1886ZM21.6985 5.02592V6.52808H23.8459V5.02592H21.6985ZM20.5591 0.196544V12.4104H22.3413V0.196544H20.5591ZM14.3943 2.40065V3.60799C14.3943 5.44708 14.2775 7.60907 12.7728 8.85853L13.8246 10.108C15.5192 8.74622 15.6799 5.9946 15.6799 3.60799V2.40065H14.3943ZM14.7887 2.40065V3.60799C14.7887 5.81209 14.9056 8.81641 16.7463 10.2624L17.652 8.97084C16.1035 7.59503 16.0451 5.3067 16.0451 3.60799V2.40065H14.7887ZM17.4329 2.40065V3.60799C17.4329 5.34881 17.389 7.58099 15.8259 8.97084L16.7463 10.2624C18.5577 8.81641 18.6892 5.86825 18.6892 3.60799V2.40065H17.4329ZM17.7981 2.40065V3.60799C17.7981 6.02268 17.9734 8.74622 19.6533 10.108L20.7051 8.85853C19.2005 7.60907 19.0836 5.47516 19.0836 3.60799V2.40065H17.7981ZM13.2257 1.446V2.92009H16.5856V1.446H13.2257ZM16.907 1.446V2.92009H20.0624V1.446H16.907Z" fill="#F14668"/>
</svg>
