<svg width="35" height="13" viewBox="0 0 35 13" fill="none" xmlns="http://www.w3.org/2000/svg">
<path d="M7.56405 0V13H9.38704V0H7.56405ZM8.97891 4.79978V6.32508H11.21V4.79978H8.97891ZM0 8.34015V9.87944H1.06114C3.25145 9.87944 4.97921 9.82347 6.88383 9.47363L6.70697 7.93434C4.85677 8.27018 3.18343 8.34015 1.06114 8.34015H0ZM0 1.20344V9.08181H1.79578V2.70075H5.87711V1.20344H0Z" fill="#F14668"/>
<path d="M20.4522 0.0139942V8.87191H22.2615V0.0139942H20.4522ZM17.1191 8.11625V8.38213C17.1191 9.62756 15.7858 11.1109 13.133 11.4887L13.7996 12.93C16.9286 12.4822 18.6564 10.5231 18.6564 8.38213V8.11625H17.1191ZM17.432 8.11625V8.38213C17.432 10.6211 19.1461 12.4682 22.2888 12.93L22.9554 11.4887C20.2481 11.1249 18.9693 9.71152 18.9693 8.38213V8.11625H17.432ZM18.153 2.30893V3.82024H20.7106V2.30893H18.153ZM14.6023 0.67169V1.90312C14.6023 3.65231 13.7452 5.37352 11.6365 6.08719L12.5888 7.54252C14.9832 6.68891 16.0851 4.46394 16.0851 1.90312V0.67169H14.6023ZM14.956 0.67169V2.02906C14.956 4.40797 16.0035 6.493 18.3027 7.30463L19.2414 5.86329C17.2551 5.1916 16.4253 3.62433 16.4253 2.02906V0.67169H14.956Z" fill="#F14668"/>
<path d="M33.3131 0.0139942V12.972H35V0.0139942H33.3131ZM31.9254 5.02368V6.52099H33.9252V5.02368H31.9254ZM30.8643 0.209904V12.3843H32.524V0.209904H30.8643ZM25.1232 2.40689V3.61033C25.1232 5.44349 25.0144 7.59849 23.6131 8.84392L24.5926 10.0893C26.1707 8.73197 26.3204 5.98924 26.3204 3.61033V2.40689H25.1232ZM25.4905 2.40689V3.61033C25.4905 5.80732 25.5993 8.80194 27.3135 10.2433L28.157 8.95587C26.7149 7.5845 26.6605 5.30355 26.6605 3.61033V2.40689H25.4905ZM27.9529 2.40689V3.61033C27.9529 5.34553 27.9121 7.57051 26.4564 8.95587L27.3135 10.2433C29.0005 8.80194 29.1229 5.86329 29.1229 3.61033V2.40689H27.9529ZM28.293 2.40689V3.61033C28.293 6.01722 28.4563 8.73197 30.0208 10.0893L31.0003 8.84392C29.599 7.59849 29.4902 5.47147 29.4902 3.61033V2.40689H28.293ZM24.0348 1.45533V2.92465H27.1639V1.45533H24.0348ZM27.4632 1.45533V2.92465H30.4017V1.45533H27.4632Z" fill="#F14668"/>
</svg>
