<svg width="25" height="13" viewBox="0 0 25 13" fill="none" xmlns="http://www.w3.org/2000/svg">
<path d="M5.52383 2.63931V4.14147H7.65507V2.63931H5.52383ZM9.80081 0V8.83045H11.6276V0H9.80081ZM7.11864 0.252699V7.60907H8.93092V0.252699H7.11864ZM6.14725 8.17063V8.4514C6.14725 9.77106 4.78442 11.1609 1.87027 11.5119L2.58069 12.9579C5.92978 12.5086 7.80005 10.6976 7.80005 8.4514V8.17063H6.14725ZM6.43722 8.17063V8.4514C6.43722 10.6976 8.30749 12.5086 11.6421 12.9579L12.3525 11.5119C9.45285 11.1609 8.07552 9.77106 8.07552 8.4514V8.17063H6.43722ZM2.55169 0.800216V2.28834C2.55169 3.76242 1.82678 5.34881 0 6.14903L1.01488 7.56695C3.16062 6.6825 4.05951 4.49244 4.05951 2.28834V0.800216H2.55169ZM2.94314 0.800216V2.28834C2.94314 4.4784 3.71155 6.5 5.71231 7.38445L6.74168 5.96652C5.07438 5.19438 4.42196 3.76242 4.42196 2.28834V0.800216H2.94314Z" fill="#F14668"/>
<path d="M23.2022 0V13H25V0H23.2022ZM21.7234 5.02592V6.52808H23.8546V5.02592H21.7234ZM20.5925 0.196544V12.4104H22.3613V0.196544H20.5925ZM14.4743 2.40065V3.60799C14.4743 5.44708 14.3583 7.60907 12.865 8.85853L13.9088 10.108C15.5906 8.74622 15.7501 5.9946 15.7501 3.60799V2.40065H14.4743ZM14.8657 2.40065V3.60799C14.8657 5.81209 14.9817 8.81641 16.8085 10.2624L17.7074 8.97084C16.1706 7.59503 16.1126 5.3067 16.1126 3.60799V2.40065H14.8657ZM17.4899 2.40065V3.60799C17.4899 5.34881 17.4464 7.58099 15.8951 8.97084L16.8085 10.2624C18.6063 8.81641 18.7368 5.86825 18.7368 3.60799V2.40065H17.4899ZM17.8524 2.40065V3.60799C17.8524 6.02268 18.0263 8.74622 19.6936 10.108L20.7375 8.85853C19.2442 7.60907 19.1282 5.47516 19.1282 3.60799V2.40065H17.8524ZM13.3144 1.446V2.92009H16.649V1.446H13.3144ZM16.968 1.446V2.92009H20.0996V1.446H16.968Z" fill="#F14668"/>
</svg>
