<svg width="25" height="13" viewBox="0 0 25 13" fill="none" xmlns="http://www.w3.org/2000/svg">
<path d="M3.11527 2.3929V2.85468C3.11527 4.324 2.1836 5.80732 0 6.42304L0.917112 7.87836C3.4792 7.1507 4.6729 5.12164 4.6729 2.85468V2.3929H3.11527ZM3.4792 2.3929V2.85468C3.4792 4.9817 4.68746 6.88482 7.26411 7.54252L8.13755 6.11518C5.98306 5.55544 5.0514 4.18407 5.0514 2.85468V2.3929H3.4792ZM0.465835 1.35737V2.8127H7.70083V1.35737H0.465835ZM3.11527 0V1.97309H5.0514V0H3.11527ZM7.35145 3.4704V4.9817H9.91355V3.4704H7.35145ZM9.43315 0.0419809V8.85791H11.3693V0.0419809H9.43315ZM5.86661 8.13025V8.32616C5.86661 9.58558 4.43999 11.1109 1.61586 11.5027L2.31462 12.958C5.67736 12.4962 7.51158 10.4672 7.51158 8.32616V8.13025H5.86661ZM6.20142 8.13025V8.32616C6.20142 10.5651 8.03565 12.4822 11.3838 12.958L12.1117 11.5027C9.21479 11.1249 7.8464 9.66954 7.8464 8.32616V8.13025H6.20142Z" fill="#F14668"/>
<path d="M23.1949 0.0419809V13H25V0.0419809H23.1949ZM21.71 5.05167V6.54898H23.85V5.05167H21.71ZM20.5746 0.23789V12.4123H22.3506V0.23789H20.5746ZM14.4314 2.43488V3.63832C14.4314 5.47147 14.3149 7.62648 12.8155 8.87191L13.8636 10.1173C15.5523 8.75996 15.7124 6.01722 15.7124 3.63832V2.43488H14.4314ZM14.8244 2.43488V3.63832C14.8244 5.83531 14.9409 8.82992 16.7751 10.2713L17.6777 8.98385C16.1346 7.61249 16.0764 5.33154 16.0764 3.63832V2.43488H14.8244ZM17.4593 2.43488V3.63832C17.4593 5.37352 17.4156 7.59849 15.858 8.98385L16.7751 10.2713C18.5802 8.82992 18.7112 5.89128 18.7112 3.63832V2.43488H17.4593ZM17.8232 2.43488V3.63832C17.8232 6.04521 17.9979 8.75996 19.672 10.1173L20.7201 8.87191C19.2207 7.62648 19.1043 5.49946 19.1043 3.63832V2.43488H17.8232ZM13.2668 1.48332V2.95264H16.615V1.48332H13.2668ZM16.9352 1.48332V2.95264H20.0796V1.48332H16.9352Z" fill="#F14668"/>
</svg>
