<svg width="25" height="13" viewBox="0 0 25 13" fill="none" xmlns="http://www.w3.org/2000/svg">
<path d="M4.13583 2.75162V4.2257H7.38755V2.75162H4.13583ZM0 1.13715V6.48596H1.97801V1.13715H0ZM0 5.88229V7.39849H0.944048C2.62236 7.39849 4.09087 7.31425 5.72423 6.94924L5.52942 5.46112C3.971 5.79806 2.53245 5.88229 0.944048 5.88229H0ZM9.39553 0V8.76026H11.2836V0H9.39553ZM6.56338 0.224622V7.60907H8.42151V0.224622H6.56338ZM5.4545 8.12851V8.47948C5.4545 9.7851 4.04592 11.1749 1.03396 11.5119L1.75323 12.9579C5.22973 12.5086 7.14779 10.7117 7.14779 8.47948V8.12851H5.4545ZM5.73921 8.12851V8.47948C5.73921 10.7117 7.67226 12.5086 11.1338 12.9579L11.853 11.5119C8.84108 11.1749 7.43251 9.7851 7.43251 8.47948V8.12851H5.73921Z" fill="#F14668"/>
<path d="M23.1419 0V13H25V0H23.1419ZM21.6134 5.02592V6.52808H23.8162V5.02592H21.6134ZM20.4446 0.196544V12.4104H22.2728V0.196544H20.4446ZM14.121 2.40065V3.60799C14.121 5.44708 14.0011 7.60907 12.4576 8.85853L13.5366 10.108C15.2748 8.74622 15.4396 5.9946 15.4396 3.60799V2.40065H14.121ZM14.5256 2.40065V3.60799C14.5256 5.81209 14.6454 8.81641 16.5335 10.2624L17.4626 8.97084C15.8742 7.59503 15.8143 5.3067 15.8143 3.60799V2.40065H14.5256ZM17.2378 2.40065V3.60799C17.2378 5.34881 17.1929 7.58099 15.5895 8.97084L16.5335 10.2624C18.3917 8.81641 18.5265 5.86825 18.5265 3.60799V2.40065H17.2378ZM17.6125 2.40065V3.60799C17.6125 6.02268 17.7923 8.74622 19.5155 10.108L20.5944 8.85853C19.051 7.60907 18.9311 5.47516 18.9311 3.60799V2.40065H17.6125ZM12.9222 1.446V2.92009H16.3687V1.446H12.9222ZM16.6984 1.446V2.92009H19.9351V1.446H16.6984Z" fill="#F14668"/>
</svg>
