<svg width="41" height="11" viewBox="0 0 41 11" fill="none" xmlns="http://www.w3.org/2000/svg">
<path d="M8.9894 8.92C8.9894 8.92 9.0134 8.928 9.0614 8.944C9.1174 8.96 9.1774 8.988 9.2414 9.028C9.3054 9.06 9.3654 9.108 9.4214 9.172C9.4774 9.228 9.5134 9.296 9.5294 9.376C9.5694 9.68 9.5174 9.916 9.3734 10.084C9.2774 10.196 9.1734 10.264 9.0614 10.288C8.9494 10.312 8.8894 10.324 8.8814 10.324H2.7614C2.4334 10.324 2.1774 10.272 1.9934 10.168C1.8094 10.072 1.7174 9.932 1.7174 9.748V8.08C1.7094 7.992 1.7054 7.876 1.7054 7.732C1.7054 7.58 1.7094 7.46 1.7174 7.372C1.7334 7.204 1.8134 7.068 1.9574 6.964C2.1014 6.86 2.2654 6.808 2.4494 6.808C2.4894 6.808 2.5374 6.812 2.5934 6.82C2.6574 6.82 2.7094 6.828 2.7494 6.844C2.8534 6.876 2.9374 6.932 3.0014 7.012C3.0654 7.084 3.1134 7.168 3.1454 7.264C3.1774 7.36 3.1974 7.464 3.2054 7.576C3.2134 7.68 3.2214 7.776 3.2294 7.864C3.2294 7.896 3.2294 7.964 3.2294 8.068C3.2294 8.172 3.2294 8.284 3.2294 8.404C3.2294 8.516 3.2294 8.62 3.2294 8.716C3.2294 8.812 3.2294 8.872 3.2294 8.896C3.2534 8.904 3.3174 8.916 3.4214 8.932C3.5334 8.94 3.7374 8.944 4.0334 8.944C4.2894 8.944 4.5174 8.94 4.7174 8.932C4.9174 8.924 5.0214 8.92 5.0294 8.92H8.9894ZM1.1294 6.148C1.0174 6.1 0.937399 6.008 0.889399 5.872C0.825399 5.712 0.813399 5.552 0.853399 5.392C0.901399 5.232 0.973399 5.08 1.0694 4.936C1.1654 4.792 1.2734 4.656 1.3934 4.528C1.5214 4.4 1.6294 4.28 1.7174 4.168C1.8534 4 1.9854 3.832 2.1134 3.664C2.2414 3.496 2.3734 3.324 2.5094 3.148C2.6054 3.012 2.7054 2.852 2.8094 2.668C2.9134 2.484 2.9734 2.304 2.9894 2.128C2.9894 2.08 2.9934 2.02 3.0014 1.948C3.0094 1.868 3.0134 1.788 3.0134 1.708C3.0214 1.62 3.0294 1.54 3.0374 1.468C3.0454 1.396 3.0574 1.336 3.0734 1.288C3.1214 1.128 3.1974 1.02 3.3014 0.963998C3.4134 0.899998 3.5814 0.867998 3.8054 0.867998C3.9334 0.867998 4.0774 0.891998 4.2374 0.939998C4.3974 0.979998 4.5054 1.064 4.5614 1.192C4.6174 1.336 4.6334 1.504 4.6094 1.696C4.5934 1.88 4.6094 2.048 4.6574 2.2C4.6974 2.32 4.7574 2.444 4.8374 2.572C4.9174 2.7 5.0014 2.828 5.0894 2.956C5.2414 3.172 5.3934 3.408 5.5454 3.664C5.6974 3.912 5.8374 4.124 5.9654 4.3C6.0934 4.468 6.2174 4.644 6.3374 4.828C6.4574 5.004 6.5374 5.196 6.5774 5.404C6.6174 5.58 6.5974 5.728 6.5174 5.848C6.4454 5.96 6.3454 6.044 6.2174 6.1C6.0894 6.148 5.9494 6.16 5.7974 6.136C5.6454 6.104 5.5134 6.032 5.4014 5.92C5.1054 5.616 4.8374 5.292 4.5974 4.948C4.3574 4.596 4.1094 4.252 3.8534 3.916C3.8534 3.916 3.8174 3.956 3.7454 4.036C3.6734 4.116 3.5854 4.22 3.4814 4.348C3.3774 4.476 3.2614 4.616 3.1334 4.768C3.0054 4.92 2.8854 5.064 2.7734 5.2C2.6614 5.336 2.5614 5.456 2.4734 5.56C2.3934 5.656 2.3454 5.716 2.3294 5.74C2.2414 5.844 2.1414 5.936 2.0294 6.016C1.9174 6.096 1.7934 6.152 1.6574 6.184C1.5694 6.2 1.4774 6.208 1.3814 6.208C1.2934 6.208 1.2094 6.188 1.1294 6.148ZM9.3254 5.932C9.3254 5.932 9.3214 5.96 9.3134 6.016C9.3054 6.072 9.2894 6.136 9.2654 6.208C9.2414 6.28 9.2054 6.356 9.1574 6.436C9.1094 6.508 9.0454 6.568 8.9654 6.616C8.8534 6.68 8.7414 6.712 8.6294 6.712C8.4934 6.712 8.3614 6.668 8.2334 6.58C8.1454 6.516 8.0774 6.432 8.0294 6.328C7.9654 6.208 7.9214 6.076 7.8974 5.932C7.8814 5.788 7.8694 5.64 7.8614 5.488C7.8614 5.336 7.8654 5.188 7.8734 5.044C7.8814 4.892 7.8854 4.748 7.8854 4.612C7.8854 4.444 7.8854 4.248 7.8854 4.024C7.8934 3.8 7.8974 3.572 7.8974 3.34C7.8974 3.108 7.8974 2.884 7.8974 2.668C7.8974 2.444 7.8974 2.248 7.8974 2.08V1.924C7.8894 1.836 7.8854 1.744 7.8854 1.648C7.8934 1.544 7.9094 1.448 7.9334 1.36C7.9654 1.24 8.0374 1.112 8.1494 0.975998C8.2134 0.895998 8.3014 0.839998 8.4134 0.807998C8.5334 0.767998 8.6614 0.755998 8.7974 0.771998C9.0374 0.811998 9.1974 0.915998 9.2774 1.084C9.3254 1.188 9.3454 1.316 9.3374 1.468C9.3374 1.62 9.3334 1.712 9.3254 1.744V5.932Z" fill="black"/>
<path d="M10.8909 8.56C10.8909 8.2 10.9949 7.9 11.2029 7.66C11.4189 7.42 11.7069 7.232 12.0669 7.096C12.4269 6.952 12.8509 6.852 13.3389 6.796C13.8269 6.74 14.3469 6.712 14.8989 6.712C15.4509 6.712 15.9709 6.732 16.4589 6.772C16.9469 6.812 17.3709 6.9 17.7309 7.036C18.0909 7.164 18.3749 7.348 18.5829 7.588C18.7989 7.828 18.9069 8.152 18.9069 8.56C18.9069 8.96 18.7989 9.28 18.5829 9.52C18.3749 9.76 18.0909 9.944 17.7309 10.072C17.3709 10.208 16.9469 10.296 16.4589 10.336C15.9709 10.384 15.4509 10.408 14.8989 10.408C14.3469 10.408 13.8269 10.384 13.3389 10.336C12.8509 10.296 12.4269 10.208 12.0669 10.072C11.7069 9.944 11.4189 9.76 11.2029 9.52C10.9949 9.28 10.8909 8.96 10.8909 8.56ZM14.6229 4.504C14.7589 4.664 14.8949 4.832 15.0309 5.008C15.1669 5.184 15.2589 5.36 15.3069 5.536C15.3229 5.616 15.3229 5.7 15.3069 5.788C15.2909 5.876 15.2469 5.952 15.1749 6.016C15.0549 6.096 14.9269 6.136 14.7909 6.136C14.6389 6.136 14.4909 6.1 14.3469 6.028C14.2109 5.956 14.0989 5.884 14.0109 5.812C13.8749 5.692 13.7509 5.572 13.6389 5.452C13.5269 5.324 13.4149 5.2 13.3029 5.08C13.2149 4.984 13.1189 4.888 13.0149 4.792C12.9109 4.696 12.8189 4.592 12.7389 4.48L11.5509 5.788C11.4229 5.924 11.2869 6.02 11.1429 6.076C10.9989 6.124 10.8629 6.148 10.7349 6.148C10.6949 6.148 10.6349 6.14 10.5549 6.124C10.4029 6.084 10.2989 6.012 10.2429 5.908C10.1949 5.82 10.1789 5.72 10.1949 5.608C10.2109 5.496 10.2429 5.396 10.2909 5.308C10.3469 5.212 10.4069 5.124 10.4709 5.044C10.5429 4.964 10.6149 4.88 10.6869 4.792C10.8949 4.56 11.0949 4.32 11.2869 4.072C11.4869 3.816 11.7029 3.568 11.9349 3.328V2.668C11.8709 2.676 11.7909 2.68 11.6949 2.68C11.5989 2.672 11.4829 2.668 11.3469 2.668C11.2589 2.668 11.1589 2.672 11.0469 2.68C10.9349 2.688 10.8229 2.684 10.7109 2.668C10.6069 2.652 10.5109 2.62 10.4229 2.572C10.3349 2.516 10.2669 2.428 10.2189 2.308C10.1789 2.22 10.1549 2.12 10.1469 2.008C10.1389 1.896 10.1469 1.792 10.1709 1.696C10.1949 1.584 10.2549 1.508 10.3509 1.468C10.4549 1.42 10.5509 1.388 10.6389 1.372C10.7189 1.356 10.7909 1.348 10.8549 1.348C10.8789 1.348 10.9029 1.352 10.9269 1.36C10.9509 1.36 10.9749 1.36 10.9989 1.36H11.9709C11.9869 1.176 12.0229 1.004 12.0789 0.843998C12.1429 0.675998 12.2629 0.559998 12.4389 0.495998C12.5749 0.447998 12.6989 0.435998 12.8109 0.459998C12.9309 0.483998 13.0349 0.531998 13.1229 0.603998C13.2109 0.675998 13.2829 0.767998 13.3389 0.879998C13.3949 0.991998 13.4309 1.108 13.4469 1.228C13.4549 1.252 13.4589 1.276 13.4589 1.3C13.4669 1.316 13.4709 1.336 13.4709 1.36H14.1549C14.4349 1.36 14.6589 1.38 14.8269 1.42C14.9949 1.452 15.1349 1.548 15.2469 1.708C15.2789 1.756 15.3029 1.824 15.3189 1.912C15.3349 1.992 15.3349 2.076 15.3189 2.164C15.3109 2.244 15.2909 2.32 15.2589 2.392C15.2269 2.464 15.1869 2.516 15.1389 2.548C15.0749 2.572 15.0029 2.6 14.9229 2.632C14.8509 2.656 14.7829 2.668 14.7189 2.668C14.6229 2.676 14.5349 2.68 14.4549 2.68C14.3829 2.672 14.2989 2.668 14.2029 2.668C14.0589 2.668 13.9469 2.672 13.8669 2.68C13.7869 2.68 13.6909 2.676 13.5789 2.668C13.5789 2.772 13.5789 2.84 13.5789 2.872C13.5789 2.896 13.5789 2.92 13.5789 2.944C13.5789 2.968 13.5789 3.004 13.5789 3.052C13.5789 3.1 13.5789 3.192 13.5789 3.328C13.6189 3.36 13.6709 3.424 13.7349 3.52C13.7989 3.616 13.8629 3.696 13.9269 3.76C13.9909 3.824 14.0589 3.896 14.1309 3.976C14.2029 4.048 14.2789 4.128 14.3589 4.216C14.4149 4.272 14.4629 4.324 14.5029 4.372C14.5429 4.42 14.5829 4.464 14.6229 4.504ZM17.2869 8.56C17.2869 8.424 17.2149 8.316 17.0709 8.236C16.9269 8.156 16.7389 8.096 16.5069 8.056C16.2829 8.016 16.0269 7.992 15.7389 7.984C15.4589 7.968 15.1789 7.96 14.8989 7.96C14.6189 7.96 14.3389 7.968 14.0589 7.984C13.7869 7.992 13.5389 8.016 13.3149 8.056C13.0989 8.096 12.9229 8.156 12.7869 8.236C12.6509 8.316 12.5829 8.424 12.5829 8.56C12.5829 8.68 12.6509 8.78 12.7869 8.86C12.9229 8.94 13.0989 9 13.3149 9.04C13.5389 9.08 13.7869 9.108 14.0589 9.124C14.3389 9.14 14.6189 9.148 14.8989 9.148C15.1789 9.148 15.4589 9.148 15.7389 9.148C16.0269 9.148 16.2829 9.132 16.5069 9.1C16.7389 9.068 16.9269 9.012 17.0709 8.932C17.2149 8.844 17.2869 8.72 17.2869 8.56ZM16.7229 4.264C16.4909 4.248 16.2829 4.236 16.0989 4.228C15.9149 4.212 15.7709 4.124 15.6669 3.964C15.6189 3.884 15.5949 3.784 15.5949 3.664C15.5949 3.544 15.6029 3.44 15.6189 3.352C15.6429 3.264 15.6869 3.192 15.7509 3.136C15.8149 3.072 15.9269 3.02 16.0869 2.98C16.1189 2.972 16.1909 2.968 16.3029 2.968C16.4149 2.96 16.5349 2.952 16.6629 2.944C16.7989 2.936 16.9229 2.932 17.0349 2.932C17.1469 2.924 17.2189 2.92 17.2509 2.92V1.768C17.2429 1.68 17.2389 1.592 17.2389 1.504C17.2469 1.416 17.2629 1.328 17.2869 1.24C17.3029 1.176 17.3189 1.116 17.3349 1.06C17.3509 1.004 17.3869 0.943998 17.4429 0.879998C17.5069 0.799998 17.6029 0.743998 17.7309 0.711998C17.8669 0.679998 18.0029 0.671998 18.1389 0.687998C18.2589 0.703998 18.3629 0.739998 18.4509 0.795998C18.5389 0.843998 18.6029 0.907998 18.6429 0.987998C18.6909 1.084 18.7189 1.204 18.7269 1.348C18.7429 1.484 18.7509 1.568 18.7509 1.6V5.632C18.7509 5.64 18.7469 5.668 18.7389 5.716C18.7309 5.764 18.7109 5.824 18.6789 5.896C18.6549 5.96 18.6189 6.028 18.5709 6.1C18.5229 6.172 18.4589 6.232 18.3789 6.28C18.2669 6.344 18.1509 6.376 18.0309 6.376C17.9589 6.376 17.8829 6.364 17.8029 6.34C17.7229 6.316 17.6509 6.284 17.5869 6.244C17.4909 6.18 17.4229 6.1 17.3829 6.004C17.3349 5.916 17.3029 5.828 17.2869 5.74C17.2709 5.652 17.2589 5.564 17.2509 5.476V4.264H16.7229Z" fill="black"/>
<path d="M29.4546 1.084C29.5986 1.084 29.7466 1.096 29.8986 1.12C30.0506 1.136 30.1906 1.168 30.3186 1.216C30.4466 1.264 30.5506 1.332 30.6306 1.42C30.7106 1.508 30.7506 1.62 30.7506 1.756C30.7506 1.956 30.7106 2.108 30.6306 2.212C30.5586 2.316 30.4626 2.392 30.3426 2.44C30.2306 2.488 30.1026 2.516 29.9586 2.524C29.8146 2.524 29.6746 2.52 29.5386 2.512C29.2746 2.496 29.0266 2.492 28.7946 2.5C28.5626 2.5 28.2906 2.508 27.9786 2.524L27.9906 2.848C27.9906 2.912 27.9866 2.988 27.9786 3.076C27.9786 3.164 27.9866 3.24 28.0026 3.304C28.0266 3.392 28.0706 3.472 28.1346 3.544C28.1986 3.608 28.2626 3.672 28.3266 3.736C28.5586 3.992 28.8306 4.252 29.1426 4.516C29.4546 4.772 29.7386 5.028 29.9946 5.284C30.0666 5.364 30.1466 5.448 30.2346 5.536C30.3226 5.624 30.3986 5.72 30.4626 5.824C30.5266 5.92 30.5706 6.024 30.5946 6.136C30.6266 6.24 30.6226 6.348 30.5826 6.46C30.5266 6.604 30.4386 6.704 30.3186 6.76C30.2066 6.816 30.0826 6.844 29.9466 6.844C29.8186 6.836 29.6866 6.808 29.5506 6.76C29.4146 6.704 29.2986 6.644 29.2026 6.58C28.9706 6.412 28.7626 6.256 28.5786 6.112C28.3946 5.968 28.2226 5.828 28.0626 5.692C27.9106 5.556 27.7586 5.42 27.6066 5.284C27.4626 5.14 27.3106 4.992 27.1506 4.84C27.1426 4.832 27.0986 4.86 27.0186 4.924C26.9386 4.98 26.8426 5.052 26.7306 5.14C26.6266 5.22 26.5186 5.304 26.4066 5.392C26.2946 5.48 26.2026 5.552 26.1306 5.608C26.0666 5.656 25.9826 5.72 25.8786 5.8C25.7826 5.872 25.6706 5.952 25.5426 6.04C25.4226 6.128 25.2946 6.22 25.1586 6.316C25.0306 6.404 24.9066 6.484 24.7866 6.556C24.6666 6.636 24.5426 6.704 24.4146 6.76C24.2866 6.816 24.1626 6.852 24.0426 6.868C23.9306 6.876 23.8186 6.86 23.7066 6.82C23.6026 6.78 23.5106 6.7 23.4306 6.58C23.3266 6.42 23.2786 6.276 23.2866 6.148C23.3026 6.012 23.3506 5.892 23.4306 5.788C23.5106 5.676 23.6066 5.572 23.7186 5.476C23.8386 5.38 23.9546 5.288 24.0666 5.2C24.3946 4.944 24.7226 4.684 25.0506 4.42C25.3786 4.148 25.6786 3.88 25.9506 3.616C26.0626 3.504 26.1266 3.412 26.1426 3.34C26.1666 3.268 26.1786 3.164 26.1786 3.028V2.5H24.3786C24.1786 2.516 23.9986 2.508 23.8386 2.476C23.7026 2.444 23.5746 2.388 23.4546 2.308C23.3426 2.22 23.2786 2.084 23.2626 1.9C23.2546 1.812 23.2706 1.724 23.3106 1.636C23.3506 1.54 23.4106 1.456 23.4906 1.384C23.5706 1.312 23.6626 1.252 23.7666 1.204C23.8786 1.148 24.0026 1.116 24.1386 1.108C24.1626 1.108 24.1746 1.108 24.1746 1.108C24.1826 1.1 24.2146 1.096 24.2706 1.096C24.3266 1.096 24.4226 1.096 24.5586 1.096C24.6946 1.096 24.9106 1.096 25.2066 1.096L29.4546 1.084ZM30.5706 8.224C30.5946 8.232 30.6186 8.236 30.6426 8.236C30.6666 8.228 30.6906 8.224 30.7146 8.224C30.8506 8.24 30.9746 8.268 31.0866 8.308C31.2066 8.34 31.3226 8.404 31.4346 8.5C31.5466 8.612 31.6026 8.752 31.6026 8.92C31.6026 9.008 31.5866 9.104 31.5546 9.208C31.5306 9.304 31.4946 9.38 31.4466 9.436C31.3826 9.5 31.3026 9.548 31.2066 9.58C31.1106 9.612 31.0186 9.636 30.9306 9.652C30.8426 9.66 30.7626 9.664 30.6906 9.664C30.6266 9.664 30.5906 9.664 30.5826 9.664H23.8626C23.8226 9.664 23.7826 9.668 23.7426 9.676C23.7026 9.676 23.6626 9.676 23.6226 9.676C23.4546 9.684 23.2746 9.684 23.0826 9.676C22.8906 9.66 22.7266 9.596 22.5906 9.484C22.4226 9.332 22.3386 9.16 22.3386 8.968C22.3386 8.848 22.3746 8.724 22.4466 8.596C22.5186 8.468 22.6146 8.38 22.7346 8.332C22.8946 8.268 23.0586 8.236 23.2266 8.236C23.4026 8.236 23.5786 8.232 23.7546 8.224H23.8146C24.5826 8.208 25.3666 8.208 26.1666 8.224L26.1546 6.964C26.1546 6.892 26.1666 6.816 26.1906 6.736C26.2066 6.672 26.2346 6.604 26.2746 6.532C26.3226 6.46 26.3906 6.392 26.4786 6.328C26.5826 6.256 26.7026 6.212 26.8386 6.196C26.9826 6.18 27.1186 6.196 27.2466 6.244C27.3746 6.284 27.4826 6.356 27.5706 6.46C27.6586 6.556 27.7026 6.676 27.7026 6.82L27.7146 8.224C27.9066 8.224 28.0826 8.224 28.2426 8.224C28.4106 8.216 28.5746 8.212 28.7346 8.212C28.9026 8.212 29.0666 8.216 29.2266 8.224C29.3946 8.224 29.5706 8.224 29.7546 8.224C29.8986 8.232 30.0386 8.232 30.1746 8.224C30.3106 8.208 30.4426 8.208 30.5706 8.224Z" fill="black"/>
<path d="M40.4191 8.92C40.4191 8.92 40.4431 8.928 40.4911 8.944C40.5471 8.96 40.6071 8.988 40.6711 9.028C40.7351 9.06 40.7951 9.108 40.8511 9.172C40.9071 9.228 40.9431 9.296 40.9591 9.376C40.9991 9.68 40.9471 9.916 40.8031 10.084C40.7071 10.196 40.6031 10.264 40.4911 10.288C40.3791 10.312 40.3191 10.324 40.3111 10.324H34.0591C33.7311 10.324 33.4751 10.272 33.2911 10.168C33.1071 10.072 33.0151 9.932 33.0151 9.748V8.08C33.0151 8.032 33.0111 7.972 33.0031 7.9C33.0031 7.828 33.0031 7.752 33.0031 7.672C33.0031 7.584 33.0031 7.504 33.0031 7.432C33.0111 7.36 33.0151 7.3 33.0151 7.252C33.0311 7.084 33.1111 6.948 33.2551 6.844C33.3991 6.74 33.5631 6.688 33.7471 6.688C33.7871 6.688 33.8351 6.692 33.8911 6.7C33.9551 6.7 34.0071 6.708 34.0471 6.724C34.1511 6.756 34.2351 6.812 34.2991 6.892C34.3631 6.964 34.4111 7.048 34.4431 7.144C34.4751 7.24 34.4951 7.344 34.5031 7.456C34.5111 7.56 34.5191 7.656 34.5271 7.744C34.5271 7.776 34.5271 7.852 34.5271 7.972C34.5271 8.084 34.5271 8.208 34.5271 8.344C34.5271 8.472 34.5271 8.592 34.5271 8.704C34.5271 8.808 34.5271 8.872 34.5271 8.896C34.5511 8.904 34.6151 8.916 34.7191 8.932C34.8311 8.94 35.0351 8.944 35.3311 8.944C35.5871 8.944 35.8151 8.94 36.0151 8.932C36.2151 8.924 36.3191 8.92 36.3271 8.92H40.4191ZM35.7991 0.783998C35.8711 0.783998 35.9631 0.787998 36.0751 0.795998C36.1871 0.795998 36.2751 0.803998 36.3391 0.819998C36.4511 0.859998 36.5591 0.907998 36.6631 0.963998C36.7751 1.02 36.8671 1.096 36.9391 1.192C37.0191 1.288 37.0751 1.416 37.1071 1.576C37.1471 1.728 37.1671 1.868 37.1671 1.996C37.1671 2.348 37.1711 2.716 37.1791 3.1C37.1951 3.476 37.1951 3.84 37.1791 4.192C37.1711 4.296 37.1671 4.412 37.1671 4.54C37.1751 4.66 37.1751 4.784 37.1671 4.912C37.1591 5.04 37.1431 5.164 37.1191 5.284C37.1031 5.396 37.0671 5.5 37.0111 5.596C36.9471 5.708 36.8631 5.796 36.7591 5.86C36.6551 5.924 36.5431 5.964 36.4231 5.98C36.3111 5.996 36.1991 5.984 36.0871 5.944C35.9831 5.904 35.8991 5.828 35.8351 5.716C35.7311 5.556 35.6671 5.376 35.6431 5.176C35.6271 4.968 35.6191 4.76 35.6191 4.552V3.4C35.6191 3.12 35.6071 2.86 35.5831 2.62C35.5751 2.524 35.5511 2.456 35.5111 2.416C35.4711 2.368 35.4231 2.336 35.3671 2.32C35.3111 2.304 35.2471 2.296 35.1751 2.296C35.1031 2.296 35.0311 2.296 34.9591 2.296C34.8791 2.296 34.7871 2.296 34.6831 2.296C34.5791 2.296 34.4711 2.296 34.3591 2.296C34.2551 2.296 34.1551 2.296 34.0591 2.296C33.9631 2.296 33.8791 2.296 33.8071 2.296C33.5431 2.296 33.2911 2.292 33.0511 2.284C32.8191 2.276 32.5591 2.252 32.2711 2.212C32.1591 2.204 32.0751 2.164 32.0191 2.092C31.9711 2.02 31.9351 1.936 31.9111 1.84C31.8951 1.744 31.8871 1.644 31.8871 1.54C31.8951 1.436 31.9071 1.348 31.9231 1.276C31.9391 1.188 31.9671 1.116 32.0071 1.06C32.0471 1.004 32.0991 0.951998 32.1631 0.903998C32.2511 0.839998 32.3471 0.807998 32.4511 0.807998C32.5551 0.807998 32.6551 0.799998 32.7511 0.783998C32.7911 0.783998 32.8871 0.783998 33.0391 0.783998C33.1911 0.775998 33.3711 0.771998 33.5791 0.771998C33.7871 0.771998 34.0111 0.771998 34.2511 0.771998C34.4991 0.771998 34.7271 0.771998 34.9351 0.771998C35.1511 0.771998 35.3351 0.775998 35.4871 0.783998C35.6471 0.783998 35.7511 0.783998 35.7991 0.783998ZM38.9191 4.144C38.6871 4.128 38.4791 4.116 38.2951 4.108C38.1111 4.092 37.9671 4.004 37.8631 3.844C37.8151 3.764 37.7911 3.664 37.7911 3.544C37.7911 3.424 37.7991 3.32 37.8151 3.232C37.8391 3.144 37.8831 3.072 37.9471 3.016C38.0111 2.952 38.1231 2.9 38.2831 2.86C38.3151 2.852 38.3751 2.848 38.4631 2.848C38.5511 2.84 38.6431 2.832 38.7391 2.824C38.8431 2.816 38.9391 2.812 39.0271 2.812C39.1151 2.804 39.1751 2.8 39.2071 2.8V1.768C39.1991 1.68 39.1951 1.592 39.1951 1.504C39.2031 1.416 39.2191 1.328 39.2431 1.24C39.2591 1.176 39.2751 1.116 39.2911 1.06C39.3071 1.004 39.3431 0.943998 39.3991 0.879998C39.4631 0.799998 39.5511 0.743998 39.6631 0.711998C39.7831 0.679998 39.9111 0.671998 40.0471 0.687998C40.3031 0.727998 40.4671 0.827998 40.5391 0.987998C40.5871 1.084 40.6151 1.204 40.6231 1.348C40.6391 1.484 40.6471 1.568 40.6471 1.6V6.112H40.6351C40.6351 6.12 40.6311 6.148 40.6231 6.196C40.6151 6.244 40.5991 6.304 40.5751 6.376C40.5511 6.44 40.5151 6.508 40.4671 6.58C40.4191 6.652 40.3551 6.712 40.2751 6.76C40.1631 6.824 40.0511 6.856 39.9391 6.856C39.8031 6.856 39.6711 6.812 39.5431 6.724C39.4471 6.66 39.3791 6.58 39.3391 6.484C39.2911 6.396 39.2591 6.308 39.2431 6.22C39.2271 6.132 39.2151 6.044 39.2071 5.956V4.144H38.9191Z" fill="black"/>
</svg>
