<svg width="41" height="11" viewBox="0 0 41 11" fill="none" xmlns="http://www.w3.org/2000/svg">
<path d="M8.73745 8.92C8.73745 8.92 8.76145 8.928 8.80945 8.944C8.86545 8.96 8.92545 8.988 8.98945 9.028C9.05345 9.06 9.11345 9.108 9.16945 9.172C9.22545 9.228 9.26145 9.296 9.27745 9.376C9.31745 9.68 9.26545 9.916 9.12145 10.084C9.02545 10.196 8.92145 10.264 8.80945 10.288C8.69745 10.312 8.63745 10.324 8.62945 10.324H2.50945C2.18145 10.324 1.92545 10.272 1.74145 10.168C1.55745 10.072 1.46545 9.932 1.46545 9.748V8.08C1.45745 7.992 1.45345 7.876 1.45345 7.732C1.45345 7.58 1.45745 7.46 1.46545 7.372C1.48145 7.204 1.56145 7.068 1.70545 6.964C1.84945 6.86 2.01345 6.808 2.19745 6.808C2.23745 6.808 2.28545 6.812 2.34145 6.82C2.40545 6.82 2.45745 6.828 2.49745 6.844C2.60145 6.876 2.68545 6.932 2.74945 7.012C2.81345 7.084 2.86145 7.168 2.89345 7.264C2.92545 7.36 2.94545 7.464 2.95345 7.576C2.96145 7.68 2.96945 7.776 2.97745 7.864C2.97745 7.896 2.97745 7.964 2.97745 8.068C2.97745 8.172 2.97745 8.284 2.97745 8.404C2.97745 8.516 2.97745 8.62 2.97745 8.716C2.97745 8.812 2.97745 8.872 2.97745 8.896C3.00145 8.904 3.06545 8.916 3.16945 8.932C3.28145 8.94 3.48545 8.944 3.78145 8.944C4.03745 8.944 4.26545 8.94 4.46545 8.932C4.66545 8.924 4.76945 8.92 4.77745 8.92H8.73745ZM0.877446 6.148C0.765446 6.1 0.685446 6.008 0.637446 5.872C0.573446 5.712 0.561446 5.552 0.601446 5.392C0.649446 5.232 0.721446 5.08 0.817446 4.936C0.913446 4.792 1.02145 4.656 1.14145 4.528C1.26945 4.4 1.37745 4.28 1.46545 4.168C1.60145 4 1.73345 3.832 1.86145 3.664C1.98945 3.496 2.12145 3.324 2.25745 3.148C2.35345 3.012 2.45345 2.852 2.55745 2.668C2.66145 2.484 2.72145 2.304 2.73745 2.128C2.73745 2.08 2.74145 2.02 2.74945 1.948C2.75745 1.868 2.76145 1.788 2.76145 1.708C2.76945 1.62 2.77745 1.54 2.78545 1.468C2.79345 1.396 2.80545 1.336 2.82145 1.288C2.86945 1.128 2.94545 1.02 3.04945 0.963998C3.16145 0.899998 3.32945 0.867998 3.55345 0.867998C3.68145 0.867998 3.82545 0.891998 3.98545 0.939998C4.14545 0.979998 4.25345 1.064 4.30945 1.192C4.36545 1.336 4.38145 1.504 4.35745 1.696C4.34145 1.88 4.35745 2.048 4.40545 2.2C4.44545 2.32 4.50545 2.444 4.58545 2.572C4.66545 2.7 4.74945 2.828 4.83745 2.956C4.98945 3.172 5.14145 3.408 5.29345 3.664C5.44545 3.912 5.58545 4.124 5.71345 4.3C5.84145 4.468 5.96545 4.644 6.08545 4.828C6.20545 5.004 6.28545 5.196 6.32545 5.404C6.36545 5.58 6.34545 5.728 6.26545 5.848C6.19345 5.96 6.09345 6.044 5.96545 6.1C5.83745 6.148 5.69745 6.16 5.54545 6.136C5.39345 6.104 5.26145 6.032 5.14945 5.92C4.85345 5.616 4.58545 5.292 4.34545 4.948C4.10545 4.596 3.85745 4.252 3.60145 3.916C3.60145 3.916 3.56545 3.956 3.49345 4.036C3.42145 4.116 3.33345 4.22 3.22945 4.348C3.12545 4.476 3.00945 4.616 2.88145 4.768C2.75345 4.92 2.63345 5.064 2.52145 5.2C2.40945 5.336 2.30945 5.456 2.22145 5.56C2.14145 5.656 2.09345 5.716 2.07745 5.74C1.98945 5.844 1.88945 5.936 1.77745 6.016C1.66545 6.096 1.54145 6.152 1.40545 6.184C1.31745 6.2 1.22545 6.208 1.12945 6.208C1.04145 6.208 0.957446 6.188 0.877446 6.148ZM9.07345 5.932C9.07345 5.932 9.06945 5.96 9.06145 6.016C9.05345 6.072 9.03745 6.136 9.01345 6.208C8.98945 6.28 8.95345 6.356 8.90545 6.436C8.85745 6.508 8.79345 6.568 8.71345 6.616C8.60145 6.68 8.48945 6.712 8.37745 6.712C8.24145 6.712 8.10945 6.668 7.98145 6.58C7.89345 6.516 7.82545 6.432 7.77745 6.328C7.71345 6.208 7.66945 6.076 7.64545 5.932C7.62945 5.788 7.61745 5.64 7.60945 5.488C7.60945 5.336 7.61345 5.188 7.62145 5.044C7.62945 4.892 7.63345 4.748 7.63345 4.612C7.63345 4.444 7.63345 4.248 7.63345 4.024C7.64145 3.8 7.64545 3.572 7.64545 3.34C7.64545 3.108 7.64545 2.884 7.64545 2.668C7.64545 2.444 7.64545 2.248 7.64545 2.08V1.924C7.63745 1.836 7.63345 1.744 7.63345 1.648C7.64145 1.544 7.65745 1.448 7.68145 1.36C7.71345 1.24 7.78545 1.112 7.89745 0.975998C7.96145 0.895998 8.04945 0.839998 8.16145 0.807998C8.28145 0.767998 8.40945 0.755998 8.54545 0.771998C8.78545 0.811998 8.94545 0.915998 9.02545 1.084C9.07345 1.188 9.09345 1.316 9.08545 1.468C9.08545 1.62 9.08145 1.712 9.07345 1.744V5.932Z" fill="black"/>
<path d="M10.639 8.56C10.639 8.2 10.743 7.9 10.951 7.66C11.167 7.42 11.455 7.232 11.815 7.096C12.175 6.952 12.599 6.852 13.087 6.796C13.575 6.74 14.095 6.712 14.647 6.712C15.199 6.712 15.719 6.732 16.207 6.772C16.695 6.812 17.119 6.9 17.479 7.036C17.839 7.164 18.123 7.348 18.331 7.588C18.547 7.828 18.655 8.152 18.655 8.56C18.655 8.96 18.547 9.28 18.331 9.52C18.123 9.76 17.839 9.944 17.479 10.072C17.119 10.208 16.695 10.296 16.207 10.336C15.719 10.384 15.199 10.408 14.647 10.408C14.095 10.408 13.575 10.384 13.087 10.336C12.599 10.296 12.175 10.208 11.815 10.072C11.455 9.944 11.167 9.76 10.951 9.52C10.743 9.28 10.639 8.96 10.639 8.56ZM14.371 4.504C14.507 4.664 14.643 4.832 14.779 5.008C14.915 5.184 15.007 5.36 15.055 5.536C15.071 5.616 15.071 5.7 15.055 5.788C15.039 5.876 14.995 5.952 14.923 6.016C14.803 6.096 14.675 6.136 14.539 6.136C14.387 6.136 14.239 6.1 14.095 6.028C13.959 5.956 13.847 5.884 13.759 5.812C13.623 5.692 13.499 5.572 13.387 5.452C13.275 5.324 13.163 5.2 13.051 5.08C12.963 4.984 12.867 4.888 12.763 4.792C12.659 4.696 12.567 4.592 12.487 4.48L11.299 5.788C11.171 5.924 11.035 6.02 10.891 6.076C10.747 6.124 10.611 6.148 10.483 6.148C10.443 6.148 10.383 6.14 10.303 6.124C10.151 6.084 10.047 6.012 9.99098 5.908C9.94298 5.82 9.92698 5.72 9.94298 5.608C9.95898 5.496 9.99098 5.396 10.039 5.308C10.095 5.212 10.155 5.124 10.219 5.044C10.291 4.964 10.363 4.88 10.435 4.792C10.643 4.56 10.843 4.32 11.035 4.072C11.235 3.816 11.451 3.568 11.683 3.328V2.668C11.619 2.676 11.539 2.68 11.443 2.68C11.347 2.672 11.231 2.668 11.095 2.668C11.007 2.668 10.907 2.672 10.795 2.68C10.683 2.688 10.571 2.684 10.459 2.668C10.355 2.652 10.259 2.62 10.171 2.572C10.083 2.516 10.015 2.428 9.96698 2.308C9.92698 2.22 9.90298 2.12 9.89498 2.008C9.88698 1.896 9.89498 1.792 9.91898 1.696C9.94298 1.584 10.003 1.508 10.099 1.468C10.203 1.42 10.299 1.388 10.387 1.372C10.467 1.356 10.539 1.348 10.603 1.348C10.627 1.348 10.651 1.352 10.675 1.36C10.699 1.36 10.723 1.36 10.747 1.36H11.719C11.735 1.176 11.771 1.004 11.827 0.843998C11.891 0.675998 12.011 0.559998 12.187 0.495998C12.323 0.447998 12.447 0.435998 12.559 0.459998C12.679 0.483998 12.783 0.531998 12.871 0.603998C12.959 0.675998 13.031 0.767998 13.087 0.879998C13.143 0.991998 13.179 1.108 13.195 1.228C13.203 1.252 13.207 1.276 13.207 1.3C13.215 1.316 13.219 1.336 13.219 1.36H13.903C14.183 1.36 14.407 1.38 14.575 1.42C14.743 1.452 14.883 1.548 14.995 1.708C15.027 1.756 15.051 1.824 15.067 1.912C15.083 1.992 15.083 2.076 15.067 2.164C15.059 2.244 15.039 2.32 15.007 2.392C14.975 2.464 14.935 2.516 14.887 2.548C14.823 2.572 14.751 2.6 14.671 2.632C14.599 2.656 14.531 2.668 14.467 2.668C14.371 2.676 14.283 2.68 14.203 2.68C14.131 2.672 14.047 2.668 13.951 2.668C13.807 2.668 13.695 2.672 13.615 2.68C13.535 2.68 13.439 2.676 13.327 2.668C13.327 2.772 13.327 2.84 13.327 2.872C13.327 2.896 13.327 2.92 13.327 2.944C13.327 2.968 13.327 3.004 13.327 3.052C13.327 3.1 13.327 3.192 13.327 3.328C13.367 3.36 13.419 3.424 13.483 3.52C13.547 3.616 13.611 3.696 13.675 3.76C13.739 3.824 13.807 3.896 13.879 3.976C13.951 4.048 14.027 4.128 14.107 4.216C14.163 4.272 14.211 4.324 14.251 4.372C14.291 4.42 14.331 4.464 14.371 4.504ZM17.035 8.56C17.035 8.424 16.963 8.316 16.819 8.236C16.675 8.156 16.487 8.096 16.255 8.056C16.031 8.016 15.775 7.992 15.487 7.984C15.207 7.968 14.927 7.96 14.647 7.96C14.367 7.96 14.087 7.968 13.807 7.984C13.535 7.992 13.287 8.016 13.063 8.056C12.847 8.096 12.671 8.156 12.535 8.236C12.399 8.316 12.331 8.424 12.331 8.56C12.331 8.68 12.399 8.78 12.535 8.86C12.671 8.94 12.847 9 13.063 9.04C13.287 9.08 13.535 9.108 13.807 9.124C14.087 9.14 14.367 9.148 14.647 9.148C14.927 9.148 15.207 9.148 15.487 9.148C15.775 9.148 16.031 9.132 16.255 9.1C16.487 9.068 16.675 9.012 16.819 8.932C16.963 8.844 17.035 8.72 17.035 8.56ZM16.471 4.264C16.239 4.248 16.031 4.236 15.847 4.228C15.663 4.212 15.519 4.124 15.415 3.964C15.367 3.884 15.343 3.784 15.343 3.664C15.343 3.544 15.351 3.44 15.367 3.352C15.391 3.264 15.435 3.192 15.499 3.136C15.563 3.072 15.675 3.02 15.835 2.98C15.867 2.972 15.939 2.968 16.051 2.968C16.163 2.96 16.283 2.952 16.411 2.944C16.547 2.936 16.671 2.932 16.783 2.932C16.895 2.924 16.967 2.92 16.999 2.92V1.768C16.991 1.68 16.987 1.592 16.987 1.504C16.995 1.416 17.011 1.328 17.035 1.24C17.051 1.176 17.067 1.116 17.083 1.06C17.099 1.004 17.135 0.943998 17.191 0.879998C17.255 0.799998 17.351 0.743998 17.479 0.711998C17.615 0.679998 17.751 0.671998 17.887 0.687998C18.007 0.703998 18.111 0.739998 18.199 0.795998C18.287 0.843998 18.351 0.907998 18.391 0.987998C18.439 1.084 18.467 1.204 18.475 1.348C18.491 1.484 18.499 1.568 18.499 1.6V5.632C18.499 5.64 18.495 5.668 18.487 5.716C18.479 5.764 18.459 5.824 18.427 5.896C18.403 5.96 18.367 6.028 18.319 6.1C18.271 6.172 18.207 6.232 18.127 6.28C18.015 6.344 17.899 6.376 17.779 6.376C17.707 6.376 17.631 6.364 17.551 6.34C17.471 6.316 17.399 6.284 17.335 6.244C17.239 6.18 17.171 6.1 17.131 6.004C17.083 5.916 17.051 5.828 17.035 5.74C17.019 5.652 17.007 5.564 16.999 5.476V4.264H16.471Z" fill="black"/>
<path d="M22.6146 8.56C22.6146 8.2 22.7186 7.9 22.9266 7.66C23.1426 7.42 23.4306 7.232 23.7906 7.096C24.1506 6.952 24.5746 6.852 25.0626 6.796C25.5506 6.74 26.0706 6.712 26.6226 6.712C27.1746 6.712 27.6946 6.732 28.1826 6.772C28.6706 6.812 29.0946 6.9 29.4546 7.036C29.8146 7.164 30.0986 7.348 30.3066 7.588C30.5226 7.828 30.6306 8.152 30.6306 8.56C30.6306 8.96 30.5226 9.28 30.3066 9.52C30.0986 9.76 29.8146 9.944 29.4546 10.072C29.0946 10.208 28.6706 10.296 28.1826 10.336C27.6946 10.384 27.1746 10.408 26.6226 10.408C26.0706 10.408 25.5506 10.384 25.0626 10.336C24.5746 10.296 24.1506 10.208 23.7906 10.072C23.4306 9.944 23.1426 9.76 22.9266 9.52C22.7186 9.28 22.6146 8.96 22.6146 8.56ZM27.4146 5.5C27.4146 5.58 27.3906 5.66 27.3426 5.74C27.3026 5.82 27.2506 5.892 27.1866 5.956C27.1226 6.012 27.0506 6.064 26.9706 6.112C26.8906 6.152 26.8146 6.176 26.7426 6.184C26.5346 6.216 26.3586 6.224 26.2146 6.208C26.0706 6.192 25.8986 6.184 25.6986 6.184C25.2586 6.184 24.8186 6.18 24.3786 6.172C23.9466 6.164 23.5146 6.152 23.0826 6.136C22.9546 6.128 22.8466 6.084 22.7586 6.004C22.6786 5.916 22.6146 5.812 22.5666 5.692C22.5186 5.572 22.4866 5.448 22.4706 5.32C22.4546 5.184 22.4466 5.064 22.4466 4.96C22.4466 4.792 22.4426 4.604 22.4346 4.396C22.4346 4.188 22.4306 3.976 22.4226 3.76C22.4226 3.544 22.4226 3.332 22.4226 3.124C22.4226 2.908 22.4266 2.716 22.4346 2.548C22.4426 2.444 22.4426 2.332 22.4346 2.212C22.4346 2.092 22.4386 1.972 22.4466 1.852C22.4546 1.732 22.4666 1.616 22.4826 1.504C22.5066 1.384 22.5426 1.28 22.5906 1.192C22.6466 1.088 22.7266 1.004 22.8306 0.939998C22.9346 0.875998 23.0426 0.839998 23.1546 0.831998C23.2666 0.815998 23.3746 0.827998 23.4786 0.867998C23.5906 0.907998 23.6786 0.979998 23.7426 1.084C23.8706 1.3 23.9346 1.552 23.9346 1.84C23.9426 2.12 23.9426 2.388 23.9346 2.644H26.0586C26.0746 2.468 26.0786 2.312 26.0706 2.176C26.0626 2.04 26.0586 1.896 26.0586 1.744C26.0586 1.608 26.0786 1.456 26.1186 1.288C26.1666 1.112 26.2506 0.983998 26.3706 0.903998C26.4586 0.839998 26.5786 0.807998 26.7306 0.807998C26.8826 0.799998 27.0026 0.827998 27.0906 0.891998C27.1786 0.955998 27.2426 1.052 27.2826 1.18C27.3306 1.3 27.3626 1.424 27.3786 1.552C27.4026 1.696 27.4146 1.852 27.4146 2.02V5.5ZM30.4146 1.816C30.4146 1.808 30.4146 1.856 30.4146 1.96C30.4146 2.064 30.4146 2.188 30.4146 2.332C30.4146 2.468 30.4146 2.604 30.4146 2.74C30.4146 2.876 30.4146 2.972 30.4146 3.028C30.4466 3.028 30.5066 3.032 30.5946 3.04C30.6826 3.04 30.7746 3.044 30.8706 3.052C30.9666 3.052 31.0586 3.056 31.1466 3.064C31.2346 3.072 31.2986 3.08 31.3386 3.088C31.4986 3.12 31.6106 3.168 31.6746 3.232C31.7386 3.288 31.7786 3.36 31.7946 3.448C31.8186 3.536 31.8306 3.64 31.8306 3.76C31.8306 3.872 31.8066 3.968 31.7586 4.048C31.6626 4.208 31.5186 4.3 31.3266 4.324C31.1346 4.34 30.9226 4.352 30.6906 4.36H30.4146V5.308C30.4066 5.396 30.3946 5.488 30.3786 5.584C30.3626 5.672 30.3306 5.76 30.2826 5.848C30.2346 5.944 30.1666 6.024 30.0786 6.088C29.9666 6.168 29.8346 6.208 29.6826 6.208C29.5466 6.208 29.4346 6.18 29.3466 6.124C29.2666 6.076 29.2026 6.016 29.1546 5.944C29.1066 5.872 29.0666 5.804 29.0346 5.74C29.0106 5.668 28.9946 5.608 28.9866 5.56C28.9786 5.504 28.9746 5.476 28.9746 5.476V1.66C28.9666 1.628 28.9706 1.54 28.9866 1.396C29.0026 1.252 29.0346 1.132 29.0826 1.036C29.1626 0.867998 29.3226 0.771998 29.5626 0.747998C29.8586 0.707998 30.0786 0.767998 30.2226 0.927998C30.2706 0.991998 30.3026 1.056 30.3186 1.12C30.3426 1.176 30.3626 1.236 30.3786 1.3C30.4026 1.38 30.4146 1.464 30.4146 1.552C30.4226 1.64 30.4226 1.728 30.4146 1.816ZM29.0106 8.56C29.0106 8.424 28.9386 8.316 28.7946 8.236C28.6506 8.156 28.4626 8.096 28.2306 8.056C28.0066 8.016 27.7506 7.992 27.4626 7.984C27.1826 7.968 26.9026 7.96 26.6226 7.96C26.3426 7.96 26.0626 7.968 25.7826 7.984C25.5106 7.992 25.2626 8.016 25.0386 8.056C24.8226 8.096 24.6466 8.156 24.5106 8.236C24.3746 8.316 24.3066 8.424 24.3066 8.56C24.3066 8.68 24.3746 8.78 24.5106 8.86C24.6466 8.94 24.8226 9 25.0386 9.04C25.2626 9.08 25.5106 9.108 25.7826 9.124C26.0626 9.14 26.3426 9.148 26.6226 9.148C26.9026 9.148 27.1826 9.148 27.4626 9.148C27.7506 9.148 28.0066 9.132 28.2306 9.1C28.4626 9.068 28.6506 9.012 28.7946 8.932C28.9386 8.844 29.0106 8.72 29.0106 8.56ZM26.0586 4.72C26.0586 4.696 26.0546 4.672 26.0466 4.648C26.0466 4.616 26.0506 4.58 26.0586 4.54C26.0746 4.428 26.0826 4.332 26.0826 4.252C26.0826 4.164 26.0746 4.064 26.0586 3.952V3.748H24.8466C24.7186 3.74 24.5986 3.732 24.4866 3.724C24.3906 3.716 24.2866 3.716 24.1746 3.724C24.0706 3.724 23.9826 3.732 23.9106 3.748C23.8946 3.884 23.8906 4.02 23.8986 4.156C23.9146 4.284 23.9266 4.416 23.9346 4.552C23.9346 4.64 23.9386 4.7 23.9466 4.732C23.9546 4.764 24.0026 4.784 24.0906 4.792C24.1786 4.8 24.2666 4.804 24.3546 4.804C24.4506 4.796 24.5426 4.792 24.6306 4.792H26.0586V4.72Z" fill="black"/>
<path d="M39.1538 10.288C39.0818 10.304 38.9178 10.312 38.6618 10.312C38.4138 10.32 38.1178 10.324 37.7738 10.324C37.4298 10.324 37.0618 10.32 36.6698 10.312C36.2778 10.312 35.9098 10.308 35.5658 10.3C35.2218 10.3 34.9258 10.3 34.6778 10.3C34.4298 10.3 34.2738 10.3 34.2098 10.3C34.0498 10.3 33.8818 10.288 33.7058 10.264C33.5298 10.24 33.3738 10.176 33.2378 10.072C33.1498 10 33.0778 9.912 33.0218 9.808C32.9738 9.696 32.9378 9.588 32.9138 9.484C32.8898 9.38 32.8738 9.288 32.8658 9.208C32.8578 9.128 32.8538 9.084 32.8538 9.076V8.116C32.8538 7.996 32.8538 7.88 32.8538 7.768C32.8538 7.648 32.8538 7.54 32.8538 7.444C32.8618 7.348 32.8658 7.272 32.8658 7.216C32.8658 7.152 32.8658 7.116 32.8658 7.108C32.8658 6.996 32.8858 6.892 32.9258 6.796C32.9658 6.692 33.0418 6.616 33.1538 6.568C33.2098 6.544 33.2698 6.528 33.3338 6.52C33.4058 6.512 33.4738 6.504 33.5378 6.496C33.6738 6.488 33.8098 6.512 33.9458 6.568C34.0898 6.616 34.1778 6.72 34.2098 6.88V7.312C34.2258 7.432 34.2538 7.492 34.2938 7.492C34.3338 7.484 34.4018 7.484 34.4978 7.492H39.3578V7.06C39.3658 6.916 39.3978 6.796 39.4538 6.7C39.5098 6.596 39.6098 6.532 39.7538 6.508C39.8658 6.484 40.0058 6.476 40.1738 6.484C40.3418 6.492 40.4698 6.536 40.5578 6.616C40.6378 6.688 40.6778 6.776 40.6778 6.88C40.6778 6.976 40.6778 7.072 40.6778 7.168C40.6618 7.536 40.6618 7.916 40.6778 8.308C40.6938 8.692 40.6818 9.068 40.6418 9.436C40.6338 9.548 40.6138 9.644 40.5818 9.724C40.5498 9.796 40.5018 9.876 40.4378 9.964C40.3738 10.06 40.2858 10.128 40.1738 10.168C40.0698 10.208 39.9578 10.236 39.8378 10.252C39.7178 10.268 39.5978 10.276 39.4778 10.276C39.3578 10.276 39.2498 10.28 39.1538 10.288ZM37.3898 5.368C37.3898 5.448 37.3658 5.528 37.3178 5.608C37.2778 5.688 37.2258 5.76 37.1618 5.824C37.0978 5.88 37.0258 5.932 36.9458 5.98C36.8658 6.02 36.7898 6.044 36.7178 6.052C36.5098 6.084 36.3338 6.092 36.1898 6.076C36.0458 6.06 35.8738 6.052 35.6738 6.052C35.2338 6.052 34.7938 6.048 34.3538 6.04C33.9218 6.032 33.4898 6.02 33.0578 6.004C32.9298 5.996 32.8218 5.956 32.7338 5.884C32.6538 5.812 32.5898 5.728 32.5418 5.632C32.4938 5.528 32.4618 5.416 32.4458 5.296C32.4298 5.176 32.4218 5.064 32.4218 4.96C32.4218 4.792 32.4178 4.604 32.4098 4.396C32.4098 4.188 32.4058 3.976 32.3978 3.76C32.3978 3.544 32.3978 3.332 32.3978 3.124C32.3978 2.908 32.4018 2.716 32.4098 2.548C32.4178 2.444 32.4178 2.332 32.4098 2.212C32.4098 2.092 32.4138 1.972 32.4218 1.852C32.4298 1.732 32.4418 1.616 32.4578 1.504C32.4818 1.384 32.5178 1.28 32.5658 1.192C32.6218 1.088 32.7018 1.004 32.8058 0.939998C32.9098 0.875998 33.0178 0.839998 33.1298 0.831998C33.2418 0.815998 33.3498 0.827998 33.4538 0.867998C33.5658 0.907998 33.6538 0.979998 33.7178 1.084C33.8458 1.3 33.9098 1.552 33.9098 1.84C33.9178 2.12 33.9178 2.388 33.9098 2.644H36.0338C36.0498 2.468 36.0538 2.312 36.0458 2.176C36.0378 2.04 36.0338 1.896 36.0338 1.744C36.0338 1.608 36.0538 1.456 36.0938 1.288C36.1418 1.112 36.2258 0.983998 36.3458 0.903998C36.4338 0.839998 36.5538 0.807998 36.7058 0.807998C36.8578 0.799998 36.9778 0.827998 37.0658 0.891998C37.1538 0.955998 37.2178 1.052 37.2578 1.18C37.3058 1.3 37.3378 1.424 37.3538 1.552C37.3778 1.696 37.3898 1.852 37.3898 2.02V5.368ZM39.0218 4.144C38.7898 4.128 38.5818 4.116 38.3978 4.108C38.2138 4.092 38.0698 4.004 37.9658 3.844C37.9178 3.764 37.8938 3.664 37.8938 3.544C37.8938 3.424 37.9018 3.32 37.9178 3.232C37.9418 3.144 37.9858 3.072 38.0498 3.016C38.1138 2.952 38.2258 2.9 38.3858 2.86C38.4178 2.852 38.4778 2.848 38.5658 2.848C38.6538 2.84 38.7458 2.832 38.8418 2.824C38.9458 2.816 39.0418 2.812 39.1298 2.812C39.2178 2.804 39.2778 2.8 39.3098 2.8V1.768C39.3018 1.68 39.2978 1.592 39.2978 1.504C39.3058 1.416 39.3218 1.328 39.3458 1.24C39.3618 1.176 39.3778 1.116 39.3938 1.06C39.4098 1.004 39.4458 0.943998 39.5018 0.879998C39.5658 0.799998 39.6538 0.743998 39.7658 0.711998C39.8858 0.679998 40.0138 0.671998 40.1498 0.687998C40.4058 0.727998 40.5698 0.827998 40.6418 0.987998C40.6898 1.084 40.7178 1.204 40.7258 1.348C40.7418 1.484 40.7498 1.568 40.7498 1.6V5.512H40.7378C40.7378 5.52 40.7338 5.548 40.7258 5.596C40.7178 5.644 40.7018 5.704 40.6778 5.776C40.6538 5.84 40.6178 5.908 40.5698 5.98C40.5218 6.052 40.4578 6.112 40.3778 6.16C40.2658 6.224 40.1538 6.256 40.0418 6.256C39.9058 6.256 39.7738 6.212 39.6458 6.124C39.5498 6.06 39.4818 5.98 39.4418 5.884C39.3938 5.796 39.3618 5.708 39.3458 5.62C39.3298 5.532 39.3178 5.444 39.3098 5.356V4.144H39.0218ZM34.9178 8.572C34.8458 8.572 34.7658 8.572 34.6778 8.572C34.5978 8.564 34.5258 8.568 34.4618 8.584C34.3978 8.592 34.3418 8.616 34.2938 8.656C34.2538 8.688 34.2338 8.74 34.2338 8.812C34.2338 8.9 34.2378 8.964 34.2458 9.004C34.2858 9.14 34.3458 9.212 34.4258 9.22C34.5138 9.22 34.6098 9.216 34.7138 9.208C34.9378 9.208 35.1818 9.212 35.4458 9.22C35.7098 9.22 35.9618 9.224 36.2018 9.232C36.2258 9.232 36.3018 9.232 36.4298 9.232C36.5658 9.232 36.7258 9.232 36.9098 9.232C37.1018 9.224 37.3058 9.22 37.5218 9.22C37.7458 9.22 37.9498 9.22 38.1338 9.22C38.3258 9.212 38.4858 9.208 38.6138 9.208C38.7498 9.208 38.8298 9.208 38.8538 9.208C38.8938 9.208 38.9418 9.212 38.9978 9.22C39.0538 9.228 39.1058 9.228 39.1538 9.22C39.2018 9.212 39.2418 9.192 39.2738 9.16C39.3058 9.128 39.3218 9.08 39.3218 9.016C39.3218 8.952 39.3258 8.896 39.3338 8.848C39.3418 8.8 39.3218 8.748 39.2738 8.692C39.2178 8.628 39.1498 8.592 39.0698 8.584C38.9978 8.576 38.9218 8.576 38.8418 8.584C38.8338 8.584 38.7298 8.584 38.5298 8.584C38.3298 8.584 38.0858 8.584 37.7978 8.584C37.5098 8.584 37.1978 8.584 36.8618 8.584C36.5258 8.576 36.2138 8.572 35.9258 8.572C35.6458 8.572 35.4058 8.572 35.2058 8.572C35.0138 8.572 34.9178 8.572 34.9178 8.572ZM36.0338 4.72C36.0338 4.696 36.0298 4.672 36.0218 4.648C36.0218 4.616 36.0258 4.58 36.0338 4.54C36.0498 4.428 36.0578 4.332 36.0578 4.252C36.0578 4.164 36.0498 4.064 36.0338 3.952V3.748H34.8218C34.6938 3.74 34.5738 3.732 34.4618 3.724C34.3658 3.716 34.2618 3.716 34.1498 3.724C34.0458 3.724 33.9578 3.732 33.8858 3.748C33.8698 3.884 33.8658 4.02 33.8738 4.156C33.8898 4.284 33.9018 4.416 33.9098 4.552C33.9098 4.64 33.9138 4.7 33.9218 4.732C33.9298 4.764 33.9778 4.784 34.0658 4.792C34.1538 4.8 34.2418 4.804 34.3298 4.804C34.4258 4.796 34.5178 4.792 34.6058 4.792H36.0338V4.72Z" fill="black"/>
</svg>
