<svg width="42" height="11" viewBox="0 0 42 11" fill="none" xmlns="http://www.w3.org/2000/svg">
<path d="M2.78531 3.60406C2.77731 3.69206 2.78131 3.72406 2.79731 3.70006C2.81331 3.67606 2.83331 3.66806 2.85731 3.67606C2.90531 3.70006 2.98931 3.72006 3.10931 3.73606C3.23731 3.74406 3.36931 3.74806 3.50531 3.74806H3.56531C3.60531 3.74806 3.70131 3.74806 3.85331 3.74806C4.00531 3.74006 4.18531 3.73606 4.39331 3.73606C4.60131 3.73606 4.82131 3.73606 5.05331 3.73606C5.29331 3.73606 5.51731 3.73606 5.72531 3.73606C5.93331 3.73606 6.11331 3.74006 6.26531 3.74806C6.41731 3.74806 6.51331 3.74806 6.55331 3.74806H7.11731C7.18131 3.74806 7.23331 3.74406 7.27331 3.73606H7.47731C7.59731 3.73606 7.71731 3.74006 7.83731 3.74806C7.96531 3.74806 8.08931 3.76406 8.20931 3.79606C8.22531 3.79606 8.24531 3.80006 8.26931 3.80806C8.29331 3.81606 8.31331 3.82406 8.32931 3.83206C8.42531 3.88806 8.49331 3.96006 8.53331 4.04806C8.58131 4.13606 8.60131 4.22806 8.59331 4.32406C8.58531 4.42006 8.54931 4.50806 8.48531 4.58806C8.42931 4.66806 8.34931 4.73206 8.24531 4.78006C8.08531 4.85206 7.90931 4.90006 7.71731 4.92406C7.53331 4.94006 7.36131 4.94806 7.20131 4.94806H6.70931C6.63731 4.94806 6.50931 4.94806 6.32531 4.94806C6.14931 4.94806 5.94131 4.94806 5.70131 4.94806C5.46931 4.94806 5.22131 4.94806 4.95731 4.94806C4.69331 4.94806 4.44131 4.94806 4.20131 4.94806C3.96931 4.94806 3.76131 4.94806 3.57731 4.94806C3.40131 4.94806 3.27731 4.94806 3.20531 4.94806H3.00131C2.88131 4.94806 2.74931 4.94806 2.60531 4.94806C2.46131 4.94006 2.31731 4.92406 2.17331 4.90006C2.03731 4.87606 1.90931 4.84406 1.78931 4.80406C1.66931 4.75606 1.56931 4.69206 1.48931 4.61206C1.40931 4.54806 1.34931 4.46006 1.30931 4.34806C1.27731 4.22806 1.25331 4.11206 1.23731 4.00006C1.22131 3.88806 1.21331 3.79206 1.21331 3.71206C1.22131 3.62406 1.22531 3.57606 1.22531 3.56806V1.37206C1.22531 1.36406 1.22531 1.34006 1.22531 1.30006C1.22531 1.25206 1.22531 1.20006 1.22531 1.14406C1.23331 1.08006 1.24531 1.02006 1.26131 0.964056C1.27731 0.908055 1.29731 0.864055 1.32131 0.832055C1.38531 0.744055 1.44931 0.684055 1.51331 0.652055C1.58531 0.612055 1.67731 0.584055 1.78931 0.568056C1.86931 0.552055 1.95331 0.544055 2.04131 0.544055H7.40531C7.47731 0.544055 7.54531 0.548055 7.60931 0.556055C7.68131 0.556055 7.75331 0.564055 7.82531 0.580055C7.89731 0.596055 7.96531 0.612055 8.02931 0.628056C8.09331 0.644055 8.15331 0.680055 8.20931 0.736056C8.25731 0.776056 8.29331 0.820055 8.31731 0.868055C8.34131 0.916055 8.36131 0.964055 8.37731 1.01206C8.39331 1.06006 8.40131 1.10806 8.40131 1.15606C8.40931 1.19606 8.40531 1.24006 8.38931 1.28806C8.37331 1.41606 8.30931 1.52406 8.19731 1.61206C8.09331 1.69206 7.95731 1.73206 7.78931 1.73206H2.78531V2.20006C2.86531 2.20006 2.99731 2.20006 3.18131 2.20006C3.36531 2.20006 3.57331 2.20006 3.80531 2.20006C4.03731 2.20006 4.27331 2.20006 4.51331 2.20006C4.76131 2.20006 4.98931 2.20006 5.19731 2.20006C5.40531 2.20006 5.57331 2.20006 5.70131 2.20006C5.83731 2.20006 5.90531 2.20006 5.90531 2.20006H7.00931C7.04131 2.20006 7.07731 2.20406 7.11731 2.21206C7.15731 2.21206 7.19731 2.20806 7.23731 2.20006H7.54931C7.62931 2.20006 7.71331 2.20806 7.80131 2.22406C7.88931 2.23206 7.96931 2.25606 8.04131 2.29606C8.15331 2.34406 8.22531 2.42006 8.25731 2.52406C8.29731 2.62806 8.30931 2.72406 8.29331 2.81206C8.28531 2.86006 8.27731 2.90806 8.26931 2.95606C8.26931 3.00406 8.24931 3.04806 8.20931 3.08806C8.12131 3.18406 8.02931 3.24406 7.93331 3.26806C7.84531 3.29206 7.74931 3.30406 7.64531 3.30406H2.77331L2.78531 3.60406ZM7.54931 7.44406C7.87731 7.44406 8.12931 7.49606 8.30531 7.60006C8.48931 7.70406 8.58131 7.84806 8.58131 8.03206V8.78806C8.58131 8.82806 8.58131 8.90806 8.58131 9.02806C8.58931 9.14006 8.59331 9.26406 8.59331 9.40006C8.59331 9.52806 8.59331 9.65206 8.59331 9.77206C8.59331 9.89206 8.58931 9.97606 8.58131 10.0241C8.56531 10.1921 8.49731 10.3281 8.37731 10.4321C8.26531 10.5361 8.11731 10.5881 7.93331 10.5881C7.89331 10.5881 7.82931 10.5841 7.74131 10.5761C7.66131 10.5761 7.60131 10.5681 7.56131 10.5521C7.44931 10.5201 7.36131 10.4721 7.29731 10.4081C7.24131 10.3441 7.19731 10.2721 7.16531 10.1921C7.14131 10.1121 7.12131 10.0281 7.10531 9.94006C7.09731 9.84406 7.09331 9.75206 7.09331 9.66406C7.09331 9.63206 7.08931 9.57606 7.08131 9.49606C7.08131 9.40806 7.07731 9.32006 7.06931 9.23206C7.06131 9.14406 7.05331 9.06006 7.04531 8.98006C7.04531 8.90006 7.04131 8.84406 7.03331 8.81206C7.00931 8.80406 6.94131 8.79606 6.82931 8.78806C6.72531 8.78006 6.52531 8.77606 6.22931 8.77606C6.09331 8.77606 5.97331 8.78006 5.86931 8.78806C5.76531 8.78806 5.66931 8.78806 5.58131 8.78806H1.44131C1.43331 8.78806 1.40131 8.78406 1.34531 8.77606C1.29731 8.76806 1.24131 8.75206 1.17731 8.72806C1.11331 8.69606 1.05331 8.65606 0.997312 8.60806C0.941313 8.56006 0.909313 8.49206 0.901313 8.40406C0.853312 8.10806 0.901312 7.86806 1.04531 7.68406C1.14131 7.57206 1.24531 7.50806 1.35731 7.49206C1.46931 7.46806 1.52931 7.45606 1.53731 7.45606L7.54931 7.44406ZM8.04131 5.52406C8.17731 5.52406 8.32131 5.52406 8.47331 5.52406C8.63331 5.51606 8.77731 5.53206 8.90531 5.57206C9.03331 5.60406 9.13731 5.67206 9.21731 5.77606C9.30531 5.87206 9.34931 6.02406 9.34931 6.23206C9.34931 6.41606 9.26931 6.58006 9.10931 6.72406C8.98131 6.82806 8.82931 6.88806 8.65331 6.90406C8.47731 6.91206 8.30931 6.91206 8.14931 6.90406C8.10931 6.89606 8.07331 6.89206 8.04131 6.89206C8.00931 6.89206 7.97331 6.89206 7.93331 6.89206H1.38131C1.37331 6.89206 1.33731 6.89206 1.27331 6.89206C1.21731 6.89206 1.14531 6.88806 1.05731 6.88006C0.977313 6.86406 0.893313 6.84006 0.805312 6.80806C0.717312 6.77606 0.645312 6.73206 0.589312 6.67606C0.541312 6.62006 0.505312 6.55606 0.481313 6.48406C0.457313 6.41206 0.445312 6.34006 0.445312 6.26806C0.445312 6.10806 0.497313 5.97606 0.601312 5.87206C0.705313 5.77606 0.813313 5.70006 0.925313 5.64406C1.03731 5.58006 1.14931 5.54006 1.26131 5.52406C1.28531 5.52406 1.30931 5.52806 1.33331 5.53606C1.35731 5.53606 1.38131 5.53206 1.40531 5.52406C1.51731 5.50806 1.63731 5.50806 1.76531 5.52406C1.89331 5.53206 2.02531 5.53206 2.16131 5.52406C2.56931 5.50806 2.98531 5.50406 3.40931 5.51206C3.83331 5.52006 4.27731 5.52406 4.74131 5.52406C5.24531 5.52406 5.77731 5.52006 6.33731 5.51206C6.89731 5.50406 7.44531 5.50806 7.98131 5.52406H8.04131Z" fill="black"/>
<path d="M12.3303 0.736056C12.4343 0.736056 12.5343 0.740056 12.6303 0.748055C12.7263 0.756055 12.8223 0.768055 12.9183 0.784056C13.2223 0.832056 13.4903 0.972055 13.7223 1.20406C13.9143 1.41206 14.0703 1.65206 14.1903 1.92406C14.3183 2.18806 14.4183 2.46806 14.4903 2.76406C14.5623 3.06006 14.6143 3.36406 14.6463 3.67606C14.6783 3.98006 14.7023 4.27606 14.7183 4.56406C14.7343 4.93206 14.7383 5.30006 14.7303 5.66806C14.7223 6.03606 14.6983 6.40006 14.6583 6.76006C14.6183 7.13606 14.5583 7.51606 14.4783 7.90006C14.4063 8.27606 14.2703 8.61606 14.0703 8.92006C13.9023 9.17606 13.6943 9.38806 13.4463 9.55606C13.1983 9.71606 12.9383 9.82406 12.6663 9.88006C12.4183 9.92806 12.1663 9.93606 11.9103 9.90406C11.6543 9.87206 11.4103 9.78806 11.1783 9.65206C10.9623 9.52406 10.7783 9.36406 10.6263 9.17206C10.4823 8.98006 10.3543 8.75606 10.2423 8.50006C10.0823 8.11606 9.99029 7.72006 9.96629 7.31206C9.93429 6.97606 9.91029 6.64006 9.89429 6.30406C9.88629 5.96806 9.88229 5.63206 9.88229 5.29606C9.88229 4.84806 9.90629 4.40006 9.95429 3.95206C9.97029 3.76806 9.98629 3.58806 10.0023 3.41206C10.0183 3.22806 10.0423 3.04806 10.0743 2.87206C10.1063 2.72806 10.1343 2.59206 10.1583 2.46406C10.1823 2.33606 10.2263 2.20406 10.2903 2.06806C10.3543 1.93206 10.4223 1.80406 10.4943 1.68406C10.5743 1.56406 10.6663 1.45606 10.7703 1.36006C10.9463 1.18406 11.1423 1.04806 11.3583 0.952056C11.5743 0.856055 11.7983 0.792055 12.0303 0.760055C12.0783 0.752055 12.1263 0.748055 12.1743 0.748055C12.2303 0.748055 12.2823 0.744056 12.3303 0.736056ZM18.1503 9.32806C18.1343 9.42406 18.1223 9.52006 18.1143 9.61606C18.1063 9.70406 18.0863 9.79606 18.0543 9.89206C18.0383 9.92406 18.0263 9.95206 18.0183 9.97606C18.0103 10.0001 17.9983 10.0281 17.9823 10.0601C17.9263 10.1721 17.8543 10.2601 17.7663 10.3241C17.5823 10.4361 17.3783 10.4641 17.1543 10.4081C17.0263 10.3841 16.9223 10.3361 16.8423 10.2641C16.7703 10.2001 16.7143 10.1161 16.6743 10.0121C16.6423 9.91606 16.6143 9.82006 16.5903 9.72406C16.5743 9.62806 16.5663 9.54406 16.5663 9.47206C16.5663 9.40006 16.5663 9.36006 16.5663 9.35206V2.09206C16.5663 1.99606 16.5663 1.89206 16.5663 1.78006C16.5663 1.66806 16.5743 1.55606 16.5903 1.44406C16.6063 1.33206 16.6303 1.22806 16.6623 1.13206C16.6943 1.03606 16.7383 0.960055 16.7943 0.904056C16.8823 0.816055 16.9743 0.764055 17.0703 0.748055C17.1663 0.724055 17.2703 0.712055 17.3823 0.712055C17.5183 0.712055 17.6423 0.752055 17.7543 0.832055C17.8743 0.904055 17.9583 1.00806 18.0063 1.14406C18.0783 1.31206 18.1183 1.48806 18.1263 1.67206C18.1343 1.85606 18.1423 2.04006 18.1503 2.22406V2.28406C18.1663 2.90006 18.1703 3.53206 18.1623 4.18006C18.1543 4.82806 18.1503 5.44006 18.1503 6.01606V8.89606C18.1503 8.96806 18.1503 9.04006 18.1503 9.11206C18.1583 9.18406 18.1583 9.25606 18.1503 9.32806ZM12.2943 8.28406C12.4463 8.28406 12.5943 8.23606 12.7383 8.14006C12.8743 8.04406 12.9703 7.91606 13.0263 7.75606C13.0823 7.59606 13.1303 7.42006 13.1703 7.22806C13.2343 6.86006 13.2703 6.46806 13.2783 6.05206C13.2863 5.63606 13.2823 5.23606 13.2663 4.85206C13.2663 4.70006 13.2623 4.54006 13.2543 4.37206C13.2463 4.19606 13.2303 4.02406 13.2063 3.85606C13.1903 3.68806 13.1623 3.52806 13.1223 3.37606C13.0823 3.21606 13.0263 3.07606 12.9543 2.95606C12.8743 2.82006 12.7783 2.71606 12.6663 2.64406C12.5543 2.57206 12.4343 2.54406 12.3063 2.56006C12.1703 2.57606 12.0463 2.62406 11.9343 2.70406C11.8223 2.78406 11.7303 2.90406 11.6583 3.06406L11.5503 3.31606C11.5023 3.46806 11.4663 3.62806 11.4423 3.79606C11.4183 3.95606 11.3983 4.11606 11.3823 4.27606C11.3663 4.43606 11.3543 4.60006 11.3463 4.76806C11.3383 4.93606 11.3343 5.10006 11.3343 5.26006C11.3423 5.42006 11.3383 5.57606 11.3223 5.72806C11.3143 5.88006 11.3183 6.03606 11.3343 6.19606C11.3503 6.40406 11.3703 6.62806 11.3943 6.86806C11.4263 7.10806 11.4743 7.33606 11.5383 7.55206C11.6023 7.76006 11.6943 7.93606 11.8143 8.08006C11.9343 8.21606 12.0943 8.28406 12.2943 8.28406Z" fill="black"/>
<path d="M27.1865 8.47606C27.2105 8.51606 27.2305 8.56006 27.2465 8.60806C27.2705 8.64806 27.2905 8.69606 27.3065 8.75206C27.3305 8.84006 27.3465 8.93606 27.3545 9.04006C27.3625 9.14406 27.3385 9.25206 27.2825 9.36406C27.1545 9.61206 26.9785 9.74406 26.7545 9.76006H26.7425C26.5985 9.76006 26.4705 9.71206 26.3585 9.61606C26.2545 9.52006 26.1425 9.40406 26.0225 9.26806C25.9025 9.14006 25.7905 9.00806 25.6865 8.87206C25.5825 8.73606 25.4905 8.61606 25.4105 8.51206C25.4025 8.49606 25.3905 8.48006 25.3745 8.46406C25.3665 8.44006 25.3545 8.41206 25.3385 8.38006C25.1385 8.07606 24.9905 7.86806 24.8945 7.75606C24.7985 7.64406 24.7425 7.58406 24.7265 7.57606C24.7105 7.59206 24.6705 7.63606 24.6065 7.70806C24.5505 7.77206 24.5145 7.81206 24.4985 7.82806C24.4825 7.85206 24.4665 7.87606 24.4505 7.90006C24.4345 7.91606 24.4185 7.93206 24.4025 7.94806C24.3305 8.02806 24.2705 8.11206 24.2225 8.20006C24.1825 8.28006 24.1305 8.36406 24.0665 8.45206C24.0025 8.54006 23.9345 8.62406 23.8625 8.70406C23.7985 8.78406 23.7305 8.86406 23.6585 8.94406C23.6265 8.97606 23.5945 9.01606 23.5625 9.06406C23.4425 9.20006 23.3145 9.33206 23.1785 9.46006C23.0505 9.58806 22.8985 9.68406 22.7225 9.74806C22.6505 9.78006 22.5705 9.79606 22.4825 9.79606C22.2985 9.79606 22.1345 9.72406 21.9905 9.58006C21.8545 9.44406 21.7865 9.27606 21.7865 9.07606C21.7945 8.93206 21.8305 8.79606 21.8945 8.66806C21.9665 8.54006 22.0345 8.42006 22.0985 8.30806L22.1225 8.26006C22.1465 8.22006 22.1705 8.18406 22.1945 8.15206C22.2185 8.12006 22.2425 8.08806 22.2665 8.05606C22.2825 8.03206 22.2945 8.01206 22.3025 7.99606C22.3185 7.97206 22.3345 7.95206 22.3505 7.93606C22.4465 7.79206 22.5305 7.67606 22.6025 7.58806C22.6185 7.57206 22.6265 7.56006 22.6265 7.55206C22.6345 7.53606 22.6465 7.52006 22.6625 7.50406C22.6785 7.47206 22.6945 7.45206 22.7105 7.44406L22.7345 7.40806C22.7665 7.36806 22.7945 7.33206 22.8185 7.30006C22.8425 7.26006 22.8665 7.22006 22.8905 7.18006C22.9465 7.09206 22.9945 7.01206 23.0345 6.94006C23.0825 6.86006 23.1265 6.78406 23.1665 6.71206C23.2145 6.62406 23.2625 6.54006 23.3105 6.46006C23.3585 6.37206 23.4145 6.28806 23.4785 6.20806C23.5185 6.14406 23.5585 6.08006 23.5985 6.01606C23.6465 5.95206 23.6905 5.88806 23.7305 5.82406L23.7785 5.75206C23.8345 5.66406 23.8745 5.58806 23.8985 5.52406C23.9305 5.45206 23.9505 5.37206 23.9585 5.28406C23.9745 5.15606 23.9825 5.03206 23.9825 4.91206C23.9825 4.78406 23.9825 4.64806 23.9825 4.50406V2.29606C23.9825 2.21606 23.9825 2.14006 23.9825 2.06806C23.9825 1.99606 23.9865 1.92006 23.9945 1.84006C23.9945 1.75206 24.0025 1.66406 24.0185 1.57606C24.0345 1.48806 24.0545 1.40806 24.0785 1.33606C24.1185 1.23206 24.1705 1.12806 24.2345 1.02406C24.2745 0.960055 24.3305 0.912055 24.4025 0.880055C24.4825 0.848055 24.5665 0.824055 24.6545 0.808055L24.6785 0.796056C24.8145 0.756056 24.9585 0.764055 25.1105 0.820055C25.1905 0.852055 25.2505 0.888055 25.2905 0.928055C25.3305 0.960055 25.3625 1.00406 25.3865 1.06006C25.4105 1.11606 25.4345 1.17606 25.4585 1.24006C25.5305 1.39206 25.5785 1.58806 25.6025 1.82806C25.6185 1.99606 25.6305 2.18406 25.6385 2.39206C25.6465 2.59206 25.6545 2.79606 25.6625 3.00406C25.6705 3.21206 25.6745 3.42006 25.6745 3.62806C25.6745 3.82806 25.6745 4.01206 25.6745 4.18006C25.6825 4.38806 25.6865 4.59606 25.6865 4.80406C25.6865 5.00406 25.6945 5.20406 25.7105 5.40406C25.7185 5.58006 25.7585 5.74406 25.8305 5.89606C25.9105 6.04806 25.9945 6.20006 26.0825 6.35206C26.1705 6.52806 26.2545 6.70406 26.3345 6.88006C26.4225 7.04806 26.5185 7.21606 26.6225 7.38406C26.6625 7.46406 26.7025 7.54406 26.7425 7.62406C26.7905 7.69606 26.8385 7.77206 26.8865 7.85206C26.9025 7.89206 26.9185 7.92806 26.9345 7.96006C26.9585 7.99206 26.9785 8.02406 26.9945 8.05606C27.0105 8.09606 27.0305 8.14006 27.0545 8.18806C27.0785 8.22806 27.0985 8.26806 27.1145 8.30806L27.1505 8.40406L27.1865 8.47606ZM30.3905 4.43206C30.4305 4.43206 30.4665 4.43606 30.4985 4.44406C30.5385 4.45206 30.5785 4.45606 30.6185 4.45606C30.6585 4.46406 30.7025 4.47206 30.7505 4.48006C30.7985 4.48006 30.8465 4.48406 30.8945 4.49206C30.9825 4.50806 31.0705 4.54006 31.1585 4.58806C31.2465 4.62806 31.3105 4.69206 31.3505 4.78006C31.4065 4.86806 31.4345 4.97206 31.4345 5.09206C31.4345 5.15606 31.4305 5.21606 31.4225 5.27206C31.4225 5.32006 31.4145 5.37606 31.3985 5.44006C31.3825 5.50406 31.3625 5.57206 31.3385 5.64406C31.3225 5.71606 31.2865 5.77206 31.2305 5.81206C31.1185 5.89206 31.0105 5.94406 30.9065 5.96806C30.7785 5.98406 30.6225 5.98806 30.4385 5.98006C30.2545 5.97206 30.0985 5.97206 29.9705 5.98006C29.9625 5.98006 29.9545 5.98406 29.9465 5.99206H29.9345L29.9225 6.00406V6.04006C29.9225 6.13606 29.9225 6.25206 29.9225 6.38806C29.9225 6.51606 29.9225 6.65206 29.9225 6.79606C29.9225 6.93206 29.9225 7.06806 29.9225 7.20406C29.9225 7.33206 29.9225 7.44806 29.9225 7.55206C29.9385 7.96806 29.9385 8.37606 29.9225 8.77606V8.94406C29.9225 9.04806 29.9185 9.16406 29.9105 9.29206C29.9105 9.41206 29.9025 9.53206 29.8865 9.65206C29.8705 9.77206 29.8425 9.88806 29.8025 10.0001C29.7625 10.1041 29.7065 10.1921 29.6345 10.2641C29.5385 10.3761 29.4105 10.4321 29.2505 10.4321C29.2505 10.4321 29.2425 10.4281 29.2265 10.4201C29.0345 10.4121 28.8785 10.3561 28.7585 10.2521C28.6465 10.1481 28.5585 10.0201 28.4945 9.86806C28.4385 9.71606 28.4025 9.56006 28.3865 9.40006C28.3705 9.23206 28.3625 9.08406 28.3625 8.95606V1.82806C28.3625 1.82006 28.3625 1.78406 28.3625 1.72006C28.3625 1.64806 28.3705 1.56806 28.3865 1.48006C28.4025 1.38406 28.4265 1.28806 28.4585 1.19206C28.4985 1.08806 28.5505 1.00406 28.6145 0.940055C28.6705 0.884055 28.7505 0.844055 28.8545 0.820055C28.9665 0.788055 29.0665 0.772055 29.1545 0.772055C29.3305 0.772055 29.4785 0.832055 29.5985 0.952056C29.7105 1.06406 29.7745 1.18406 29.7905 1.31206C29.8145 1.43206 29.8345 1.56006 29.8505 1.69606C29.8585 1.72806 29.8625 1.77606 29.8625 1.84006C29.8785 1.97606 29.8865 2.11606 29.8865 2.26006C29.8945 2.40406 29.9025 2.54806 29.9105 2.69206C29.9105 2.78006 29.9105 2.86806 29.9105 2.95606C29.9185 3.03606 29.9225 3.12006 29.9225 3.20806C29.9145 3.25606 29.9105 3.30406 29.9105 3.35206C29.9185 3.39206 29.9225 3.43206 29.9225 3.47206V4.14406C29.9225 4.18406 29.9225 4.22806 29.9225 4.27606C29.9225 4.32406 29.9305 4.36806 29.9465 4.40806C29.9465 4.41606 29.9865 4.42006 30.0665 4.42006C30.1465 4.42006 30.1905 4.42006 30.1985 4.42006C30.2705 4.43606 30.3265 4.44006 30.3665 4.43206H30.3905Z" fill="black"/>
<path d="M37.3897 3.97606C37.3897 4.35206 37.3057 4.70406 37.1377 5.03206C36.9697 5.35206 36.7337 5.62806 36.4297 5.86006C36.1577 6.06006 35.8577 6.20406 35.5297 6.29206C35.2097 6.37206 34.8857 6.40006 34.5577 6.37606C34.2297 6.35206 33.9137 6.28006 33.6097 6.16006C33.3057 6.04006 33.0337 5.87606 32.7937 5.66806C32.5617 5.46006 32.3737 5.21606 32.2297 4.93606C32.0857 4.64806 32.0137 4.32806 32.0137 3.97606C32.0137 3.65606 32.0617 3.37606 32.1577 3.13606C32.2537 2.88806 32.3857 2.66406 32.5537 2.46406H32.3377C32.1377 2.46406 31.9697 2.40406 31.8337 2.28406C31.6977 2.15606 31.6297 2.00406 31.6297 1.82806C31.6297 1.64406 31.6977 1.49206 31.8337 1.37206C31.9697 1.24406 32.1377 1.18006 32.3377 1.18006H33.9217V0.796056C33.9217 0.636055 33.9897 0.504055 34.1257 0.400056C34.2617 0.288056 34.4257 0.232056 34.6177 0.232056C34.8097 0.232056 34.9737 0.288056 35.1097 0.400056C35.2457 0.504055 35.3137 0.636055 35.3137 0.796056V1.18006H36.9817C37.1817 1.18006 37.3497 1.24406 37.4857 1.37206C37.6217 1.49206 37.6897 1.64406 37.6897 1.82806C37.6897 2.00406 37.6217 2.15606 37.4857 2.28406C37.3497 2.40406 37.1817 2.46406 36.9817 2.46406H36.8377C37.0057 2.66406 37.1377 2.88806 37.2337 3.13606C37.3377 3.37606 37.3897 3.65606 37.3897 3.97606ZM32.4577 8.62006C32.4577 8.26006 32.5617 7.96406 32.7697 7.73206C32.9857 7.49206 33.2737 7.30806 33.6337 7.18006C33.9937 7.04406 34.4177 6.95206 34.9057 6.90406C35.3937 6.84806 35.9137 6.82006 36.4657 6.82006C37.0177 6.82006 37.5377 6.84006 38.0257 6.88006C38.5137 6.91206 38.9377 6.99206 39.2977 7.12006C39.6577 7.24006 39.9417 7.42006 40.1497 7.66006C40.3657 7.89206 40.4737 8.21206 40.4737 8.62006C40.4737 9.02006 40.3657 9.34006 40.1497 9.58006C39.9417 9.81206 39.6577 9.99206 39.2977 10.1201C38.9377 10.2481 38.5137 10.3281 38.0257 10.3601C37.5377 10.4001 37.0177 10.4201 36.4657 10.4201C35.9137 10.4201 35.3937 10.4001 34.9057 10.3601C34.4177 10.3281 33.9937 10.2481 33.6337 10.1201C33.2737 9.99206 32.9857 9.81206 32.7697 9.58006C32.5617 9.34006 32.4577 9.02006 32.4577 8.62006ZM40.2577 4.48006V5.47606C40.2497 5.56406 40.2377 5.65606 40.2217 5.75206C40.2057 5.84006 40.1737 5.92806 40.1257 6.01606C40.0777 6.11206 40.0097 6.19206 39.9217 6.25606C39.8097 6.33606 39.6777 6.37606 39.5257 6.37606C39.3897 6.37606 39.2777 6.34806 39.1897 6.29206C39.1097 6.24406 39.0457 6.18406 38.9977 6.11206C38.9497 6.04006 38.9097 5.97206 38.8777 5.90806C38.8537 5.83606 38.8377 5.77606 38.8297 5.72806C38.8217 5.67206 38.8177 5.64406 38.8177 5.64406V1.66006C38.8097 1.62806 38.8137 1.54006 38.8297 1.39606C38.8457 1.25206 38.8777 1.13206 38.9257 1.03606C39.0057 0.868056 39.1657 0.772056 39.4057 0.748055C39.7017 0.708055 39.9217 0.768055 40.0657 0.928055C40.1137 0.992055 40.1457 1.05606 40.1617 1.12006C40.1857 1.17606 40.2057 1.23606 40.2217 1.30006C40.2457 1.38006 40.2577 1.46406 40.2577 1.55206C40.2657 1.64006 40.2657 1.72806 40.2577 1.81606V2.87206C40.2577 2.91206 40.2537 2.95606 40.2457 3.00406C40.2457 3.04406 40.2497 3.09206 40.2577 3.14806C40.2897 3.14806 40.3497 3.15206 40.4377 3.16006C40.5257 3.16006 40.6177 3.16406 40.7137 3.17206C40.8097 3.17206 40.9017 3.17606 40.9897 3.18406C41.0777 3.19206 41.1417 3.20006 41.1817 3.20806C41.3417 3.24006 41.4537 3.28806 41.5177 3.35206C41.5817 3.40806 41.6217 3.48006 41.6377 3.56806C41.6617 3.65606 41.6737 3.76006 41.6737 3.88006C41.6737 3.99206 41.6497 4.08806 41.6017 4.16806C41.5057 4.32806 41.3617 4.42006 41.1697 4.44406C40.9777 4.46006 40.7657 4.47206 40.5337 4.48006H40.2577ZM38.8537 8.62006C38.8537 8.48406 38.7817 8.38006 38.6377 8.30806C38.4937 8.22806 38.3057 8.17206 38.0737 8.14006C37.8497 8.10006 37.5937 8.08006 37.3057 8.08006C37.0257 8.07206 36.7457 8.06806 36.4657 8.06806C36.1857 8.06806 35.9057 8.07206 35.6257 8.08006C35.3537 8.08006 35.1057 8.10006 34.8817 8.14006C34.6657 8.17206 34.4897 8.22806 34.3537 8.30806C34.2177 8.38006 34.1497 8.48406 34.1497 8.62006C34.1497 8.74006 34.2177 8.83606 34.3537 8.90806C34.4897 8.98006 34.6657 9.03606 34.8817 9.07606C35.1057 9.10806 35.3537 9.13206 35.6257 9.14806C35.9057 9.15606 36.1857 9.16006 36.4657 9.16006C36.7457 9.16006 37.0257 9.16406 37.3057 9.17206C37.5937 9.17206 37.8497 9.16006 38.0737 9.13606C38.3057 9.10406 38.4937 9.05206 38.6377 8.98006C38.7817 8.90006 38.8537 8.78006 38.8537 8.62006ZM34.9417 5.00806C35.1977 4.96006 35.4177 4.85206 35.6017 4.68406C35.7937 4.51606 35.8897 4.28006 35.8897 3.97606C35.8897 3.73606 35.8297 3.53606 35.7097 3.37606C35.5977 3.21606 35.4537 3.09606 35.2777 3.01606C35.1017 2.92806 34.9097 2.88406 34.7017 2.88406C34.4937 2.87606 34.3017 2.91206 34.1257 2.99206C33.9497 3.07206 33.8017 3.19606 33.6817 3.36406C33.5697 3.52406 33.5137 3.72806 33.5137 3.97606C33.5137 4.19206 33.5577 4.37606 33.6457 4.52806C33.7337 4.67206 33.8457 4.78806 33.9817 4.87606C34.1177 4.95606 34.2697 5.00806 34.4377 5.03206C34.6057 5.04806 34.7737 5.04006 34.9417 5.00806Z" fill="black"/>
</svg>
