<svg width="10" height="11" viewBox="0 0 10 11" fill="none" xmlns="http://www.w3.org/2000/svg">
<path d="M0.416 5.88C0.4 5.88 0.38 5.876 0.356 5.868C0.332 5.86 0.32 5.836 0.32 5.796C0.32 5.788 0.32 5.772 0.32 5.748C0.32 5.7 0.32 5.62 0.32 5.508C0.32 5.396 0.316 5.224 0.308 4.992C0.3 4.76 0.288 4.436 0.272 4.02C0.264 3.604 0.248 3.072 0.224 2.424C0.216 2.208 0.192 1.992 0.152 1.776C0.12 1.552 0.08 1.408 0.032 1.344C1.86265e-08 1.296 -0.008 1.252 0.00799998 1.212C0.032 1.172 0.072 1.156 0.128 1.164C0.256 1.172 0.384 1.18 0.512 1.188C0.648 1.188 0.78 1.188 0.908 1.188C1.284 1.188 1.68 1.18 2.096 1.164C2.512 1.148 2.888 1.128 3.224 1.104C3.56 1.072 3.792 1.048 3.92 1.032C3.936 1.032 3.952 1.028 3.968 1.02C4.024 1.012 4.072 1.012 4.112 1.02L4.736 1.14C4.792 1.156 4.816 1.204 4.808 1.284C4.792 1.396 4.776 1.536 4.76 1.704C4.744 1.864 4.732 2.02 4.724 2.172C4.716 2.316 4.708 2.424 4.7 2.496C4.676 2.984 4.656 3.504 4.64 4.056C4.624 4.6 4.608 5.112 4.592 5.592C4.592 5.704 4.532 5.756 4.412 5.748C4.332 5.74 4.188 5.736 3.98 5.736C3.772 5.736 3.528 5.74 3.248 5.748C2.968 5.756 2.68 5.768 2.384 5.784C2.088 5.792 1.808 5.8 1.544 5.808C1.288 5.816 1.076 5.824 0.908 5.832C0.828 5.84 0.732 5.852 0.62 5.868C0.508 5.876 0.44 5.88 0.416 5.88ZM1.016 5.184C1.152 5.184 1.352 5.184 1.616 5.184C1.88 5.176 2.16 5.168 2.456 5.16C2.76 5.144 3.044 5.132 3.308 5.124C3.572 5.108 3.772 5.092 3.908 5.076L3.944 1.8C3.944 1.72 3.908 1.68 3.836 1.68L0.944 1.788L1.016 5.184ZM6.932 7.86C6.9 7.86 6.884 7.84 6.884 7.8V1.464C6.884 1.16 6.872 0.88 6.848 0.624C6.832 0.368 6.804 0.2 6.764 0.12C6.748 0.0799999 6.748 0.052 6.764 0.0360003C6.788 0.0120001 6.816 0 6.848 0C6.96 0 7.092 0 7.244 0C7.396 0 7.524 0.00399995 7.628 0.0119998C7.668 0.0119998 7.688 0.0439999 7.688 0.108C7.664 0.404 7.648 0.664 7.64 0.888C7.64 1.104 7.64 1.356 7.64 1.644V3.456C7.864 3.456 8.104 3.448 8.36 3.432C8.616 3.416 8.852 3.396 9.068 3.372C9.292 3.348 9.456 3.32 9.56 3.288C9.632 3.28 9.672 3.304 9.68 3.36C9.696 3.464 9.704 3.568 9.704 3.672C9.712 3.776 9.72 3.88 9.728 3.984C9.728 4.072 9.692 4.116 9.62 4.116C9.508 4.1 9.336 4.092 9.104 4.092C8.88 4.084 8.636 4.08 8.372 4.08C8.108 4.08 7.864 4.088 7.64 4.104V7.56C7.64 7.68 7.632 7.752 7.616 7.776C7.608 7.8 7.584 7.816 7.544 7.824L6.932 7.86ZM3.068 10.68C2.812 10.68 2.616 10.584 2.48 10.392C2.352 10.208 2.288 9.944 2.288 9.6V8.532C2.288 8.252 2.276 8.02 2.252 7.836C2.228 7.652 2.204 7.52 2.18 7.44C2.156 7.36 2.184 7.32 2.264 7.32C2.312 7.32 2.392 7.324 2.504 7.332C2.624 7.332 2.736 7.336 2.84 7.344C2.952 7.352 3.012 7.356 3.02 7.356C3.06 7.356 3.08 7.396 3.08 7.476C3.064 7.66 3.052 7.824 3.044 7.968C3.044 8.104 3.044 8.276 3.044 8.484V9.528C3.044 9.728 3.068 9.868 3.116 9.948C3.172 10.02 3.26 10.06 3.38 10.068C3.604 10.076 3.876 10.08 4.196 10.08C4.524 10.088 4.864 10.088 5.216 10.08C5.576 10.064 5.916 10.048 6.236 10.032C6.572 10.016 6.92 9.988 7.28 9.948C7.64 9.9 7.916 9.852 8.108 9.804C8.188 9.788 8.24 9.792 8.264 9.816C8.288 9.84 8.304 9.872 8.312 9.912L8.408 10.476C8.408 10.516 8.396 10.548 8.372 10.572C8.356 10.596 8.292 10.608 8.18 10.608C7.388 10.608 6.572 10.62 5.732 10.644C4.892 10.668 4.004 10.68 3.068 10.68Z" fill="#141212"/>
</svg>
