<svg width="11" height="12" viewBox="0 0 11 12" fill="none" xmlns="http://www.w3.org/2000/svg">
<path d="M0.908432 6.80004C0.892432 6.80004 0.872432 6.79604 0.848432 6.78804C0.824432 6.78004 0.812432 6.75604 0.812432 6.71604C0.812432 6.70804 0.812432 6.69204 0.812432 6.66804C0.812432 6.62004 0.812432 6.54004 0.812432 6.42804C0.812432 6.31604 0.808432 6.14404 0.800432 5.91204C0.792432 5.68004 0.780432 5.35604 0.764432 4.94004C0.756432 4.52404 0.740432 3.99204 0.716432 3.34404C0.708432 3.12804 0.684432 2.91204 0.644432 2.69604C0.612432 2.47204 0.572432 2.32804 0.524432 2.26404C0.492432 2.21604 0.484432 2.17204 0.500432 2.13204C0.524432 2.09204 0.564432 2.07604 0.620432 2.08404C0.748432 2.09204 0.876432 2.10004 1.00443 2.10804C1.14043 2.10804 1.27243 2.10804 1.40043 2.10804C1.77643 2.10804 2.17243 2.10004 2.58843 2.08404C3.00443 2.06804 3.38043 2.04804 3.71643 2.02404C4.05243 1.99204 4.28443 1.96804 4.41243 1.95204C4.42843 1.95204 4.44443 1.94804 4.46043 1.94004C4.51643 1.93204 4.56443 1.93204 4.60443 1.94004L5.22843 2.06004C5.28443 2.07604 5.30843 2.12404 5.30043 2.20404C5.28443 2.31604 5.26843 2.45604 5.25243 2.62404C5.23643 2.78404 5.22443 2.94004 5.21643 3.09204C5.20843 3.23604 5.20043 3.34404 5.19243 3.41604C5.16843 3.90404 5.14843 4.42404 5.13243 4.97604C5.11643 5.52004 5.10043 6.03204 5.08443 6.51204C5.08443 6.62404 5.02443 6.67604 4.90443 6.66804C4.82443 6.66004 4.68043 6.65604 4.47243 6.65604C4.26443 6.65604 4.02043 6.66004 3.74043 6.66804C3.46043 6.67604 3.17243 6.68804 2.87643 6.70404C2.58043 6.71204 2.30043 6.72004 2.03643 6.72804C1.78043 6.73604 1.56843 6.74404 1.40043 6.75204C1.32043 6.76004 1.22443 6.77204 1.11243 6.78804C1.00043 6.79604 0.932432 6.80004 0.908432 6.80004ZM1.50843 6.10404C1.64443 6.10404 1.84443 6.10404 2.10843 6.10404C2.37243 6.09604 2.65243 6.08804 2.94843 6.08004C3.25243 6.06404 3.53643 6.05204 3.80043 6.04404C4.06443 6.02804 4.26443 6.01204 4.40043 5.99604L4.43643 2.72004C4.43643 2.64004 4.40043 2.60004 4.32843 2.60004L1.43643 2.70804L1.50843 6.10404ZM7.42443 8.78004C7.39243 8.78004 7.37643 8.76004 7.37643 8.72004V2.38404C7.37643 2.08004 7.36443 1.80004 7.34043 1.54404C7.32443 1.28804 7.29643 1.12004 7.25643 1.04004C7.24043 1.00004 7.24043 0.972044 7.25643 0.956044C7.28043 0.932044 7.30843 0.920044 7.34043 0.920044C7.45243 0.920044 7.58443 0.920044 7.73643 0.920044C7.88843 0.920044 8.01643 0.924044 8.12043 0.932044C8.16043 0.932044 8.18043 0.964044 8.18043 1.02804C8.15643 1.32404 8.14043 1.58404 8.13243 1.80804C8.13243 2.02404 8.13243 2.27604 8.13243 2.56404V4.37604C8.35643 4.37604 8.59643 4.36804 8.85243 4.35204C9.10843 4.33604 9.34443 4.31604 9.56043 4.29204C9.78443 4.26804 9.94843 4.24004 10.0524 4.20804C10.1244 4.20004 10.1644 4.22404 10.1724 4.28004C10.1884 4.38404 10.1964 4.48804 10.1964 4.59204C10.2044 4.69604 10.2124 4.80004 10.2204 4.90404C10.2204 4.99204 10.1844 5.03604 10.1124 5.03604C10.0004 5.02004 9.82843 5.01204 9.59643 5.01204C9.37243 5.00404 9.12843 5.00004 8.86443 5.00004C8.60043 5.00004 8.35643 5.00804 8.13243 5.02404V8.48004C8.13243 8.60004 8.12443 8.67204 8.10843 8.69604C8.10043 8.72004 8.07643 8.73604 8.03643 8.74404L7.42443 8.78004ZM3.56043 11.6C3.30443 11.6 3.10843 11.504 2.97243 11.312C2.84443 11.128 2.78043 10.864 2.78043 10.52V9.45204C2.78043 9.17204 2.76843 8.94004 2.74443 8.75604C2.72043 8.57204 2.69643 8.44004 2.67243 8.36004C2.64843 8.28004 2.67643 8.24004 2.75643 8.24004C2.80443 8.24004 2.88443 8.24404 2.99643 8.25204C3.11643 8.25204 3.22843 8.25604 3.33243 8.26404C3.44443 8.27204 3.50443 8.27604 3.51243 8.27604C3.55243 8.27604 3.57243 8.31604 3.57243 8.39604C3.55643 8.58004 3.54443 8.74404 3.53643 8.88804C3.53643 9.02404 3.53643 9.19604 3.53643 9.40404V10.448C3.53643 10.648 3.56043 10.788 3.60843 10.868C3.66443 10.94 3.75243 10.98 3.87243 10.988C4.09643 10.996 4.36843 11 4.68843 11C5.01643 11.008 5.35643 11.008 5.70843 11C6.06843 10.984 6.40843 10.968 6.72843 10.952C7.06443 10.936 7.41243 10.908 7.77243 10.868C8.13243 10.82 8.40843 10.772 8.60043 10.724C8.68043 10.708 8.73243 10.712 8.75643 10.736C8.78043 10.76 8.79643 10.792 8.80443 10.832L8.90043 11.396C8.90043 11.436 8.88843 11.468 8.86443 11.492C8.84843 11.516 8.78443 11.528 8.67243 11.528C7.88043 11.528 7.06443 11.54 6.22443 11.564C5.38443 11.588 4.49643 11.6 3.56043 11.6Z" fill="#141212"/>
</svg>
