<svg width="32" height="16" viewBox="0 0 32 16" fill="none" xmlns="http://www.w3.org/2000/svg">
<path d="M10.5655 14.45C10.5202 14.45 10.4975 14.4217 10.4975 14.365V6.902C10.1462 6.902 9.7835 6.90767 9.4095 6.919C9.0355 6.919 8.7125 6.93033 8.4405 6.953V13.583C8.4405 13.7417 8.42917 13.8437 8.4065 13.889C8.39517 13.923 8.36117 13.9457 8.3045 13.957C8.2365 13.9683 8.09483 13.9797 7.8795 13.991C7.6755 14.0023 7.54517 14.008 7.4885 14.008C7.44317 14.008 7.4205 13.9797 7.4205 13.923V2.516C7.4205 2.08533 7.40917 1.68867 7.3865 1.326C7.36383 0.963333 7.32417 0.725333 7.2675 0.612C7.24483 0.555334 7.24483 0.515667 7.2675 0.493C7.3015 0.459 7.34117 0.442 7.3865 0.442L8.3895 0.459C8.44617 0.481667 8.4745 0.527 8.4745 0.594999C8.45183 0.923667 8.4405 1.21833 8.4405 1.479C8.4405 1.73967 8.4405 2.01167 8.4405 2.295C8.4405 2.363 8.4405 2.43667 8.4405 2.516C8.4405 2.59533 8.4405 2.68033 8.4405 2.771V5.984C8.49717 5.984 8.55383 5.984 8.6105 5.984C8.66717 5.984 8.72383 5.984 8.7805 5.984C9.04117 5.984 9.31883 5.984 9.6135 5.984C9.9195 5.984 10.2142 5.97267 10.4975 5.95V2.074C10.4975 1.64333 10.4862 1.24667 10.4635 0.884C10.4522 0.521333 10.4182 0.283333 10.3615 0.17C10.3388 0.113333 10.3388 0.0736667 10.3615 0.0510004C10.3955 0.0170001 10.4352 0 10.4805 0L11.4835 0.0169998C11.5402 0.0396668 11.5685 0.0850003 11.5685 0.153C11.5458 0.493 11.5288 0.799 11.5175 1.071C11.5175 1.343 11.5175 1.62633 11.5175 1.921C11.5175 1.989 11.5175 2.057 11.5175 2.125C11.5175 2.193 11.5175 2.261 11.5175 2.329V14.025C11.5175 14.195 11.5062 14.297 11.4835 14.331C11.4722 14.365 11.4382 14.3877 11.3815 14.399C11.3475 14.399 11.2682 14.399 11.1435 14.399C11.0302 14.4103 10.9168 14.4217 10.8035 14.433C10.6902 14.4443 10.6108 14.45 10.5655 14.45ZM1.1305 10.659C0.915167 10.6703 0.745167 10.608 0.6205 10.472C0.495833 10.3247 0.405167 10.1377 0.3485 9.911C0.291833 9.68433 0.2635 9.452 0.2635 9.214V3.791C0.2635 3.39433 0.235167 3.043 0.1785 2.737C0.133167 2.431 0.0821666 2.22133 0.0255 2.108C-0.00849999 2.04 -0.00849999 1.98333 0.0255 1.938C0.0595 1.89267 0.0991666 1.87 0.1445 1.87C0.2125 1.87 0.3485 1.87567 0.5525 1.887C0.767833 1.89833 0.971833 1.91533 1.1645 1.938C1.59517 1.938 2.07683 1.93233 2.6095 1.921C3.1535 1.90967 3.6805 1.887 4.1905 1.853C4.7005 1.819 5.11417 1.77367 5.4315 1.717C5.4655 1.70567 5.50517 1.71133 5.5505 1.734C5.59583 1.74533 5.62417 1.77933 5.6355 1.836C5.6695 2.01733 5.69217 2.15333 5.7035 2.244C5.71483 2.33467 5.7205 2.414 5.7205 2.482C5.7205 2.60667 5.6525 2.669 5.5165 2.669L3.6295 2.703C3.2215 2.71433 2.8475 2.72567 2.5075 2.737C2.1675 2.74833 1.77083 2.76533 1.3175 2.788V5.44C2.49617 5.42867 3.41983 5.38333 4.0885 5.304C4.7685 5.22467 5.13117 5.17933 5.1765 5.168C5.30117 5.14533 5.37483 5.151 5.3975 5.185C5.4315 5.219 5.45417 5.26433 5.4655 5.321C5.48817 5.40033 5.50517 5.48533 5.5165 5.576C5.52783 5.66667 5.53917 5.76867 5.5505 5.882C5.56183 5.93867 5.5505 5.98967 5.5165 6.035C5.49383 6.069 5.4145 6.086 5.2785 6.086C5.16517 6.086 4.96117 6.09167 4.6665 6.103C4.38317 6.103 4.04317 6.10867 3.6465 6.12C3.26117 6.13133 2.8645 6.14833 2.4565 6.171C2.0485 6.18233 1.66883 6.19367 1.3175 6.205V8.704C1.3175 8.91933 1.3345 9.129 1.3685 9.333C1.4025 9.52567 1.51583 9.622 1.7085 9.622C2.30917 9.622 2.9325 9.571 3.5785 9.469C4.23583 9.35567 4.84217 9.21967 5.3975 9.061C5.95283 8.891 6.37217 8.73233 6.6555 8.585C6.74617 8.52833 6.80283 8.55667 6.8255 8.67L6.9105 9.231C6.93317 9.37833 6.8765 9.47467 6.7405 9.52C6.44583 9.63333 6.0265 9.775 5.4825 9.945C4.94983 10.1037 4.31517 10.251 3.5785 10.387C2.84183 10.523 2.02583 10.6137 1.1305 10.659Z" fill="black"/>
<path d="M20.8712 7.905C20.8486 7.905 20.8202 7.89933 20.7862 7.888C20.7522 7.87667 20.7352 7.84267 20.7352 7.786C20.7352 7.77467 20.7352 7.752 20.7352 7.718C20.7352 7.65 20.7352 7.53667 20.7352 7.378C20.7352 7.21933 20.7296 6.98133 20.7182 6.664C20.7182 6.34667 20.7069 5.916 20.6842 5.372C20.6729 4.828 20.6502 4.12533 20.6162 3.264C20.6049 2.958 20.5709 2.652 20.5142 2.346C20.4689 2.02867 20.4122 1.82467 20.3442 1.734C20.2989 1.666 20.2876 1.60367 20.3102 1.547C20.3442 1.49033 20.4009 1.46767 20.4802 1.479C20.6616 1.49033 20.8429 1.50167 21.0242 1.513C21.2169 1.513 21.4039 1.513 21.5852 1.513C21.9819 1.513 22.4012 1.50733 22.8432 1.496C23.2852 1.47333 23.7102 1.45067 24.1182 1.428C24.5376 1.40533 24.9002 1.38267 25.2062 1.36C25.5236 1.33733 25.7502 1.31467 25.8862 1.292C25.9089 1.292 25.9316 1.28633 25.9542 1.275C26.0336 1.26367 26.1016 1.26367 26.1582 1.275L27.0422 1.445C27.1216 1.46767 27.1556 1.53567 27.1442 1.649C27.1216 1.80767 27.0989 2.006 27.0762 2.244C27.0536 2.47067 27.0366 2.69167 27.0252 2.907C27.0139 3.111 27.0026 3.264 26.9912 3.366C26.9572 4.05733 26.9289 4.74867 26.9062 5.44C26.8836 6.13133 26.8609 6.817 26.8382 7.497C26.8382 7.65567 26.7532 7.72933 26.5832 7.718C26.4699 7.70667 26.2659 7.701 25.9712 7.701C25.6766 7.701 25.3252 7.70667 24.9172 7.718C24.5206 7.72933 24.1069 7.74633 23.6762 7.769C23.2569 7.78033 22.8602 7.79167 22.4862 7.803C22.1122 7.81433 21.8062 7.82567 21.5682 7.837C21.4549 7.84833 21.3189 7.86533 21.1602 7.888C21.0016 7.89933 20.9052 7.905 20.8712 7.905ZM28.0452 15.725C27.3312 15.725 26.6966 15.5947 26.1412 15.334C25.5972 15.0847 25.1666 14.739 24.8492 14.297C24.5432 13.855 24.3902 13.345 24.3902 12.767C24.3902 12.2117 24.5602 11.7073 24.9002 11.254C25.2402 10.8007 25.6936 10.4437 26.2602 10.183C26.8269 9.911 27.4446 9.775 28.1132 9.775C28.7932 9.775 29.4109 9.88833 29.9662 10.115C30.5329 10.3303 30.9806 10.659 31.3092 11.101C31.6492 11.5317 31.8079 12.0643 31.7852 12.699C31.7739 13.2883 31.5982 13.8097 31.2582 14.263C30.9296 14.7163 30.4819 15.0733 29.9152 15.334C29.3599 15.5947 28.7366 15.725 28.0452 15.725ZM21.7212 6.919C21.9139 6.919 22.1972 6.919 22.5712 6.919C22.9566 6.90767 23.3646 6.89633 23.7952 6.885C24.2259 6.86233 24.6282 6.84533 25.0022 6.834C25.3876 6.81133 25.6766 6.78867 25.8692 6.766L25.9202 2.38C25.9202 2.26667 25.8692 2.21 25.7672 2.21L21.6362 2.363L21.7212 6.919ZM28.0792 14.841C28.7932 14.8183 29.3939 14.6257 29.8812 14.263C30.3799 13.9003 30.6406 13.3733 30.6632 12.682C30.6859 12.2287 30.5782 11.849 30.3402 11.543C30.1136 11.237 29.8019 11.0047 29.4052 10.846C29.0199 10.676 28.5836 10.591 28.0962 10.591C27.6089 10.6023 27.1669 10.7043 26.7702 10.897C26.3849 11.0783 26.0732 11.3277 25.8352 11.645C25.5972 11.9623 25.4782 12.3307 25.4782 12.75C25.4782 13.1807 25.5916 13.5547 25.8182 13.872C26.0562 14.178 26.3679 14.416 26.7532 14.586C27.1499 14.756 27.5919 14.841 28.0792 14.841ZM30.6292 9.537C30.5839 9.537 30.5612 9.50867 30.5612 9.452V6.647L29.4392 6.698C29.1672 6.70933 28.8669 6.72633 28.5382 6.749C28.2096 6.77167 27.9092 6.79433 27.6372 6.817C27.5126 6.82833 27.4332 6.82267 27.3992 6.8C27.3766 6.766 27.3539 6.715 27.3312 6.647L27.2292 5.967C27.2066 5.865 27.2462 5.82533 27.3482 5.848C27.5409 5.87067 27.8242 5.88767 28.1982 5.899C28.5836 5.91033 28.9859 5.91033 29.4052 5.899C29.8359 5.88767 30.2212 5.87067 30.5612 5.848V3.451L29.6092 3.485C29.3372 3.49633 29.0369 3.51333 28.7082 3.536C28.3796 3.55867 28.0792 3.58133 27.8072 3.604C27.6826 3.61533 27.6032 3.60967 27.5692 3.587C27.5352 3.56433 27.5126 3.51333 27.5012 3.434L27.3992 2.754C27.3766 2.652 27.4162 2.61233 27.5182 2.635C27.6996 2.65767 27.9659 2.68033 28.3172 2.703C28.6686 2.71433 29.0482 2.71433 29.4562 2.703C29.8642 2.69167 30.2326 2.67467 30.5612 2.652V2.074C30.5612 1.64333 30.5442 1.24667 30.5102 0.884C30.4876 0.521333 30.4479 0.283333 30.3912 0.17C30.3686 0.113333 30.3686 0.0736667 30.3912 0.0510004C30.4252 0.0170001 30.4649 0 30.5102 0C30.6349 0 30.8049 0 31.0202 0C31.2356 0 31.4339 0.00566659 31.6152 0.0169998C31.6719 0.0169998 31.7002 0.0623332 31.7002 0.153C31.6662 0.572333 31.6436 0.940667 31.6322 1.258C31.6322 1.564 31.6322 1.921 31.6322 2.329V9.112C31.6322 9.282 31.6209 9.384 31.5982 9.418C31.5869 9.452 31.5529 9.47467 31.4962 9.486L30.6292 9.537Z" fill="black"/>
</svg>
