<svg width="82" height="16" viewBox="0 0 82 16" fill="none" xmlns="http://www.w3.org/2000/svg">
<path d="M4.64667 15.7312C4.29533 15.7198 4.02333 15.6122 3.83067 15.4082C3.64933 15.2155 3.55867 14.8755 3.55867 14.3882V13.7592C3.55867 13.4078 3.49633 13.0622 3.37167 12.7222C3.349 12.6882 3.35467 12.6428 3.38867 12.5862C3.42267 12.5295 3.47933 12.5068 3.55867 12.5182C3.68333 12.5295 3.94967 12.5408 4.35767 12.5522C4.777 12.5635 5.27 12.5692 5.83667 12.5692C6.40333 12.5692 6.98133 12.5635 7.57067 12.5522C8.17133 12.5408 8.721 12.5238 9.21967 12.5012C9.72967 12.4785 10.1207 12.4502 10.3927 12.4162L10.4267 11.2092C10.4267 11.0845 10.37 11.0222 10.2567 11.0222C10.0073 11.0222 9.66167 11.0278 9.21967 11.0392C8.77767 11.0505 8.30733 11.0618 7.80867 11.0732C7.31 11.0845 6.834 11.1015 6.38067 11.1242C5.92733 11.1355 5.559 11.1468 5.27567 11.1582L3.76267 11.2262C3.66067 11.2375 3.587 11.2318 3.54167 11.2092C3.49633 11.1752 3.46233 11.1072 3.43967 11.0052L3.32067 10.4102C3.30933 10.3875 3.315 10.3592 3.33767 10.3252C3.36033 10.2912 3.4 10.2798 3.45667 10.2912C3.71733 10.3138 4.17067 10.3308 4.81667 10.3422C5.46267 10.3535 6.16533 10.3535 6.92467 10.3422C6.91333 10.2515 6.90767 10.1608 6.90767 10.0702C6.90767 9.96818 6.90767 9.87752 6.90767 9.79818L6.89067 8.52318C6.698 8.53452 6.511 8.54018 6.32967 8.54018C6.14833 8.54018 5.97833 8.54585 5.81967 8.55718C4.675 8.59118 3.64367 8.63085 2.72567 8.67618C1.80767 8.72152 1.09933 8.77252 0.600667 8.82918C0.476 8.84052 0.391 8.82918 0.345667 8.79518C0.300333 8.76118 0.266333 8.71018 0.243667 8.64218C0.198333 8.51752 0.158667 8.39285 0.124667 8.26818C0.0906667 8.14352 0.051 7.98485 0.00566665 7.79218C-0.00566666 7.76952 1.49012e-08 7.74118 0.0226667 7.70718C0.0453334 7.66185 0.085 7.64485 0.141667 7.65618C0.572333 7.71285 1.16167 7.75818 1.90967 7.79218C2.65767 7.81485 3.47933 7.82052 4.37467 7.80918C5.066 7.80918 5.80267 7.80352 6.58467 7.79218C7.36667 7.76952 8.143 7.74685 8.91367 7.72418C9.69567 7.69018 10.4323 7.65618 11.1237 7.62218C11.8263 7.58818 12.444 7.54852 12.9767 7.50318C13.5207 7.45785 13.94 7.40685 14.2347 7.35018C14.348 7.32752 14.4217 7.33318 14.4557 7.36718C14.4897 7.40118 14.5123 7.44652 14.5237 7.50318L14.6257 8.25118C14.637 8.40985 14.5293 8.48352 14.3027 8.47218C13.9513 8.44952 13.4753 8.43818 12.8747 8.43818C12.2853 8.43818 11.645 8.44385 10.9537 8.45518L7.97867 8.50618V9.62818C7.97867 9.76418 7.973 9.88885 7.96167 10.0022C7.96167 10.1155 7.956 10.2232 7.94467 10.3252C8.89667 10.2912 9.71267 10.2288 10.3927 10.1382C10.4153 10.1382 10.438 10.1325 10.4607 10.1212C10.54 10.1098 10.6023 10.1098 10.6477 10.1212L11.5147 10.2402C11.5827 10.2515 11.6167 10.3025 11.6167 10.3932C11.56 10.8918 11.5147 11.3395 11.4807 11.7362C11.458 12.1328 11.4297 12.5465 11.3957 12.9772C11.3843 13.0905 11.3617 13.1642 11.3277 13.1982C11.2937 13.2322 11.2257 13.2492 11.1237 13.2492C10.7383 13.2492 10.2623 13.2548 9.69567 13.2662C9.14033 13.2662 8.551 13.2718 7.92767 13.2832C7.30433 13.2832 6.70367 13.2888 6.12567 13.3002C5.54767 13.3115 5.049 13.3285 4.62967 13.3512V14.3372C4.62967 14.5978 4.64667 14.7452 4.68067 14.7792C4.71467 14.8245 4.828 14.8528 5.02067 14.8642C5.75733 14.8868 6.528 14.8925 7.33267 14.8812C8.13733 14.8698 8.908 14.8415 9.64467 14.7962C10.1207 14.7735 10.5513 14.7395 10.9367 14.6942C11.322 14.6488 11.6563 14.5922 11.9397 14.5242C12.053 14.5015 12.1267 14.5072 12.1607 14.5412C12.1947 14.5752 12.2173 14.6205 12.2287 14.6772L12.3307 15.4252C12.3307 15.4818 12.308 15.5328 12.2627 15.5782C12.2287 15.6235 12.1323 15.6462 11.9737 15.6462C10.7723 15.6462 9.53133 15.6518 8.25067 15.6632C6.97 15.6858 5.76867 15.7085 4.64667 15.7312ZM2.94667 6.85718C2.94667 6.85718 2.941 6.85718 2.92967 6.85718C2.85033 6.87985 2.75967 6.89118 2.65767 6.89118C2.55567 6.89118 2.47067 6.82885 2.40267 6.70418L2.14767 6.21118C2.11367 6.15452 2.108 6.12052 2.13067 6.10918C2.16467 6.08652 2.19867 6.06952 2.23267 6.05818C2.244 6.05818 2.24967 6.05818 2.24967 6.05818C2.91833 5.93352 3.57 5.73518 4.20467 5.46318C4.83933 5.17985 5.40033 4.83985 5.88767 4.44318C6.38633 4.03518 6.74333 3.58185 6.95867 3.08318L5.66667 3.15118C5.48533 3.16252 5.22467 3.17952 4.88467 3.20218C4.556 3.22485 4.22167 3.24752 3.88167 3.27018C3.54167 3.29285 3.27533 3.31552 3.08267 3.33818C2.96933 3.36085 2.89567 3.35518 2.86167 3.32118C2.82767 3.27585 2.79933 3.21918 2.77667 3.15118C2.76533 3.13985 2.75967 3.12852 2.75967 3.11718C2.71433 2.99252 2.68033 2.88485 2.65767 2.79418C2.635 2.70352 2.601 2.56752 2.55567 2.38618C2.54433 2.36352 2.55 2.33518 2.57267 2.30118C2.59533 2.26718 2.635 2.25585 2.69167 2.26718C3.009 2.28985 3.43967 2.30685 3.98367 2.31818C4.52767 2.32952 5.134 2.32952 5.80267 2.31818C6.48267 2.29552 7.17967 2.26718 7.89367 2.23318C8.60767 2.19918 9.29333 2.15385 9.95067 2.09718C10.608 2.04052 11.186 1.97252 11.6847 1.89318C11.7187 1.88185 11.7583 1.88185 11.8037 1.89318C11.849 1.90452 11.8773 1.93852 11.8887 1.99518C11.9113 2.07452 11.9283 2.16518 11.9397 2.26718C11.951 2.35785 11.9737 2.54485 12.0077 2.82818C12.0303 2.95285 11.9623 3.01518 11.8037 3.01518L9.69567 2.99818C9.51433 2.99818 9.29333 3.00385 9.03267 3.01518C8.772 3.01518 8.49433 3.02085 8.19967 3.03218C8.08633 3.37218 7.905 3.71218 7.65567 4.05218C8.517 4.22218 9.33867 4.42052 10.1207 4.64718C10.9027 4.87385 11.5543 5.10052 12.0757 5.32718C12.1437 5.34985 12.206 5.38952 12.2627 5.44618C12.3307 5.49152 12.3477 5.55952 12.3137 5.65018C12.2797 5.75218 12.2287 5.87685 12.1607 6.02418C12.104 6.17152 12.0303 6.31318 11.9397 6.44918C11.8943 6.52852 11.8377 6.53985 11.7697 6.48318C11.5317 6.31318 11.22 6.13752 10.8347 5.95618C10.4607 5.77485 10.0527 5.59918 9.61067 5.42918C9.16867 5.25918 8.72667 5.10618 8.28467 4.97018C7.854 4.83418 7.46867 4.73218 7.12867 4.66418C6.60733 5.18552 5.97833 5.63318 5.24167 6.00718C4.505 6.38118 3.74 6.66452 2.94667 6.85718ZM6.82267 1.12818C6.664 1.10552 6.43733 1.07718 6.14267 1.04318C5.85933 1.00918 5.576 0.958182 5.29267 0.890182C5.02067 0.822182 4.80533 0.737182 4.64667 0.635182C4.61267 0.601182 4.60133 0.533182 4.61267 0.431182C4.624 0.317849 4.65233 0.215849 4.69767 0.125182C4.743 0.0231821 4.794 -0.0164847 4.85067 0.00618167C5.83667 0.142182 6.76033 0.204515 7.62167 0.193182C8.483 0.170515 9.19133 0.136515 9.74667 0.0911826C9.83733 0.0798487 9.894 0.0855153 9.91667 0.108182C9.93933 0.119516 9.95633 0.153515 9.96767 0.210182C9.96767 0.221515 9.96767 0.249849 9.96767 0.295182C9.96767 0.408515 9.962 0.544515 9.95067 0.703182C9.95067 0.861848 9.91667 0.952515 9.84867 0.975182C9.78067 0.997849 9.571 1.03185 9.21967 1.07718C8.86833 1.11118 8.47167 1.13385 8.02967 1.14518C7.58767 1.15652 7.18533 1.15085 6.82267 1.12818Z" fill="black"/>
<path d="M16.444 9.59418L16.019 9.22018C15.9737 9.17485 15.9907 9.12385 16.07 9.06718C16.0813 9.05585 16.087 9.05018 16.087 9.05018C16.7217 8.63085 17.3167 8.10385 17.872 7.46918C18.4387 6.82318 18.943 6.14885 19.385 5.44618C19.827 4.74352 20.1727 4.08618 20.422 3.47418C20.5013 3.28152 20.5693 3.06052 20.626 2.81118C20.694 2.55052 20.745 2.30118 20.779 2.06318C20.8243 1.82518 20.847 1.63252 20.847 1.48518C20.847 1.38318 20.9037 1.33785 21.017 1.34918C21.1417 1.37185 21.3173 1.41718 21.544 1.48518C21.7707 1.55318 21.969 1.61552 22.139 1.67218C22.207 1.70618 22.224 1.76852 22.19 1.85918C22.1107 2.08585 22.003 2.38052 21.867 2.74318C21.731 3.10585 21.6063 3.42318 21.493 3.69518C21.4137 3.87652 21.323 4.06918 21.221 4.27318C21.1303 4.47718 21.0227 4.69252 20.898 4.91918C21.238 5.17985 21.612 5.46885 22.02 5.78618C22.4393 6.09218 22.8473 6.39818 23.244 6.70418C23.6407 7.01018 23.992 7.28785 24.298 7.53718C24.604 7.78652 24.825 7.97918 24.961 8.11518C25.0063 8.14918 25.0403 8.20585 25.063 8.28518C25.097 8.35318 25.0857 8.42685 25.029 8.50618C24.9837 8.57418 24.876 8.68185 24.706 8.82918C24.5473 8.97652 24.434 9.08418 24.366 9.15218C24.2753 9.20885 24.2073 9.19752 24.162 9.11818C23.992 8.88018 23.754 8.60252 23.448 8.28518C23.1533 7.96785 22.8303 7.63918 22.479 7.29918C22.139 6.95918 21.7933 6.64185 21.442 6.34718C21.0907 6.05252 20.779 5.80885 20.507 5.61618C20.133 6.23952 19.657 6.89685 19.079 7.58818C18.5123 8.26818 17.8097 8.92552 16.971 9.56018C16.9143 9.60552 16.8407 9.64518 16.75 9.67918C16.6593 9.71318 16.5573 9.68485 16.444 9.59418ZM26.729 11.5662C26.6837 11.5662 26.661 11.5378 26.661 11.4812V2.50518C26.661 2.07452 26.644 1.67785 26.61 1.31518C26.5873 0.952515 26.5477 0.714515 26.491 0.601182C26.4683 0.544515 26.4683 0.504849 26.491 0.482183C26.525 0.448182 26.5647 0.431182 26.61 0.431182C26.7687 0.431182 26.9557 0.431182 27.171 0.431182C27.3863 0.431182 27.5677 0.436849 27.715 0.448182C27.7717 0.448182 27.8 0.493515 27.8 0.584182C27.766 1.00352 27.7433 1.37185 27.732 1.68918C27.732 1.99518 27.732 2.35218 27.732 2.76018V5.32718C28.0493 5.32718 28.3893 5.31585 28.752 5.29318C29.1147 5.27052 29.449 5.24218 29.755 5.20818C30.0723 5.17418 30.3047 5.13452 30.452 5.08918C30.554 5.07785 30.6107 5.11185 30.622 5.19118C30.6447 5.33852 30.656 5.48585 30.656 5.63318C30.6673 5.78052 30.6787 5.92785 30.69 6.07518C30.69 6.19985 30.639 6.26218 30.537 6.26218C30.3783 6.23952 30.1347 6.22818 29.806 6.22818C29.4887 6.21685 29.143 6.21118 28.769 6.21118C28.395 6.21118 28.0493 6.22252 27.732 6.24518V11.1412C27.732 11.3112 27.7207 11.4132 27.698 11.4472C27.6867 11.4812 27.6527 11.5038 27.596 11.5152L26.729 11.5662ZM21.255 15.5612C20.8923 15.5612 20.6147 15.4252 20.422 15.1532C20.2407 14.8925 20.15 14.5185 20.15 14.0312V12.5182C20.15 12.1215 20.133 11.7928 20.099 11.5322C20.065 11.2715 20.031 11.0845 19.997 10.9712C19.963 10.8578 20.0027 10.8012 20.116 10.8012C20.184 10.8012 20.2973 10.8068 20.456 10.8182C20.626 10.8182 20.7847 10.8238 20.932 10.8352C21.0907 10.8465 21.1757 10.8522 21.187 10.8522C21.2437 10.8522 21.272 10.9088 21.272 11.0222C21.2493 11.2828 21.2323 11.5152 21.221 11.7192C21.221 11.9118 21.221 12.1555 21.221 12.4502V13.9292C21.221 14.2125 21.255 14.4108 21.323 14.5242C21.4023 14.6262 21.527 14.6828 21.697 14.6942C22.0143 14.7055 22.3997 14.7112 22.853 14.7112C23.3177 14.7225 23.7993 14.7225 24.298 14.7112C24.808 14.6885 25.2897 14.6658 25.743 14.6432C26.219 14.6205 26.712 14.5808 27.222 14.5242C27.732 14.4562 28.123 14.3882 28.395 14.3202C28.5083 14.2975 28.582 14.3032 28.616 14.3372C28.65 14.3712 28.6727 14.4165 28.684 14.4732L28.82 15.2722C28.82 15.3288 28.803 15.3742 28.769 15.4082C28.7463 15.4422 28.6557 15.4592 28.497 15.4592C27.375 15.4592 26.219 15.4762 25.029 15.5102C23.839 15.5442 22.581 15.5612 21.255 15.5612Z" fill="black"/>
<path d="M35.8567 7.72418C35.2107 7.73552 34.6157 7.61652 34.0717 7.36718C33.539 7.10652 33.1083 6.73818 32.7797 6.26218C32.4623 5.78618 32.3037 5.23652 32.3037 4.61318C32.3037 4.00118 32.468 3.45718 32.7967 2.98118C33.1253 2.49385 33.556 2.10852 34.0887 1.82518C34.6327 1.53052 35.2277 1.37752 35.8737 1.36618C36.531 1.34352 37.126 1.45685 37.6587 1.70618C38.2027 1.94418 38.6333 2.30118 38.9507 2.77718C39.2793 3.24185 39.4437 3.80852 39.4437 4.47718C39.4437 5.07785 39.2793 5.62185 38.9507 6.10918C38.622 6.59652 38.1857 6.98185 37.6417 7.26518C37.0977 7.54852 36.5027 7.70152 35.8567 7.72418ZM36.7917 15.7312C36.4403 15.7198 36.1627 15.6008 35.9587 15.3742C35.7547 15.1475 35.6527 14.7905 35.6527 14.3032V13.4362C35.6527 13.2548 35.6413 13.0735 35.6187 12.8922C35.596 12.7108 35.545 12.5465 35.4657 12.3992C35.443 12.3538 35.443 12.3085 35.4657 12.2632C35.4883 12.2178 35.5393 12.1952 35.6187 12.1952C35.9133 12.2065 36.293 12.2178 36.7577 12.2292C37.2223 12.2292 37.7323 12.2292 38.2877 12.2292C38.843 12.2292 39.3927 12.2235 39.9367 12.2122C40.492 12.1895 40.9963 12.1668 41.4497 12.1442C41.9143 12.1215 42.2827 12.0875 42.5547 12.0422L42.6057 10.5802C42.6057 10.5688 42.6057 10.5518 42.6057 10.5292C42.6057 10.4725 42.6 10.4385 42.5887 10.4272C42.5773 10.4045 42.5263 10.3932 42.4357 10.3932C42.1863 10.3932 41.8293 10.3988 41.3647 10.4102C40.9 10.4215 40.4013 10.4385 39.8687 10.4612C39.3473 10.4725 38.8487 10.4895 38.3727 10.5122C37.8967 10.5235 37.5113 10.5405 37.2167 10.5632L35.9077 10.6482C35.783 10.6595 35.7037 10.6482 35.6697 10.6142C35.6357 10.5688 35.6073 10.5065 35.5847 10.4272L35.4827 9.79818C35.46 9.70752 35.5053 9.66785 35.6187 9.67918C35.8113 9.69052 36.106 9.70185 36.5027 9.71318C36.9107 9.72452 37.3753 9.73018 37.8967 9.73018C38.4293 9.71885 38.979 9.70185 39.5457 9.67918C40.1123 9.65652 40.6563 9.62818 41.1777 9.59418C41.699 9.56018 42.1523 9.51485 42.5377 9.45818C42.5603 9.45818 42.583 9.45252 42.6057 9.44118C42.685 9.42985 42.7473 9.42985 42.7927 9.44118L43.6597 9.57718C43.7163 9.58852 43.7447 9.61118 43.7447 9.64518C43.756 9.66785 43.7617 9.69052 43.7617 9.71318C43.7617 9.72452 43.7617 9.73018 43.7617 9.73018C43.705 10.2402 43.6597 10.7218 43.6257 11.1752C43.5917 11.6285 43.5577 12.1102 43.5237 12.6202C43.5123 12.7448 43.4783 12.8242 43.4217 12.8582C43.365 12.8808 43.3083 12.8922 43.2517 12.8922C42.8777 12.8922 42.413 12.8978 41.8577 12.9092C41.3023 12.9205 40.713 12.9318 40.0897 12.9432C39.4777 12.9545 38.877 12.9715 38.2877 12.9942C37.6983 13.0055 37.177 13.0168 36.7237 13.0282V14.2352C36.7237 14.4958 36.7463 14.6602 36.7917 14.7282C36.8483 14.8075 36.973 14.8528 37.1657 14.8642C37.9023 14.8868 38.6843 14.8925 39.5117 14.8812C40.339 14.8698 41.121 14.8415 41.8577 14.7962C42.3223 14.7735 42.7473 14.7395 43.1327 14.6942C43.518 14.6488 43.858 14.5865 44.1527 14.5072C44.266 14.4845 44.3397 14.4902 44.3737 14.5242C44.4077 14.5582 44.4303 14.6035 44.4417 14.6602L44.5437 15.3742C44.555 15.4308 44.538 15.4818 44.4927 15.5272C44.4473 15.5725 44.3453 15.5952 44.1867 15.5952C43.3933 15.5952 42.566 15.6008 41.7047 15.6122C40.8433 15.6348 39.9933 15.6518 39.1547 15.6632C38.3273 15.6858 37.5397 15.7085 36.7917 15.7312ZM35.8737 6.87418C36.565 6.85152 37.143 6.62485 37.6077 6.19418C38.0723 5.76352 38.3047 5.19118 38.3047 4.47718C38.3047 3.69518 38.0667 3.11718 37.5907 2.74318C37.126 2.36918 36.548 2.19352 35.8567 2.21618C35.1767 2.23885 34.5987 2.46552 34.1227 2.89618C33.6467 3.32685 33.4087 3.89352 33.4087 4.59618C33.4087 5.34418 33.6467 5.91652 34.1227 6.31318C34.61 6.70985 35.1937 6.89685 35.8737 6.87418ZM42.7077 8.57418C42.6623 8.57418 42.6397 8.54585 42.6397 8.48918V2.50518C42.6397 2.07452 42.6227 1.67785 42.5887 1.31518C42.566 0.952515 42.5263 0.714515 42.4697 0.601182C42.447 0.544515 42.447 0.504849 42.4697 0.482183C42.5037 0.448182 42.5433 0.431182 42.5887 0.431182C42.6793 0.431182 42.8323 0.431182 43.0477 0.431182C43.2743 0.431182 43.4897 0.436849 43.6937 0.448182C43.7503 0.448182 43.7787 0.493515 43.7787 0.584182C43.7447 1.00352 43.722 1.37185 43.7107 1.68918C43.7107 1.99518 43.7107 2.35218 43.7107 2.76018V8.14918C43.7107 8.31918 43.6993 8.42118 43.6767 8.45518C43.6653 8.48918 43.6313 8.51185 43.5747 8.52318L42.7077 8.57418Z" fill="black"/>
<path d="M60.8584 14.4392C60.813 14.4392 60.7904 14.4108 60.7904 14.3542V8.89718L59.5324 8.94818C59.2604 8.95952 58.96 8.97652 58.6314 8.99918C58.3027 9.02185 58.0024 9.04452 57.7304 9.06718C57.6057 9.07852 57.5264 9.07285 57.4924 9.05018C57.4697 9.02752 57.4527 8.98785 57.4414 8.93118C57.43 8.91985 57.4244 8.90852 57.4244 8.89718L57.3224 8.21718C57.3224 8.19452 57.328 8.16618 57.3394 8.13218C57.3507 8.09818 57.3847 8.08685 57.4414 8.09818C57.6567 8.12085 57.9627 8.13785 58.3594 8.14918C58.7674 8.16052 59.1924 8.16052 59.6344 8.14918C60.0764 8.12652 60.4617 8.10385 60.7904 8.08118V5.63318L60.2464 5.65018C59.9744 5.66152 59.674 5.67852 59.3454 5.70118C59.028 5.72385 58.7334 5.74652 58.4614 5.76918C58.3367 5.78052 58.2574 5.77485 58.2234 5.75218C58.2007 5.72952 58.1837 5.68985 58.1724 5.63318C58.161 5.62185 58.1554 5.61052 58.1554 5.59918C58.11 5.45185 58.0817 5.32152 58.0704 5.20818C57.8324 5.77485 57.4924 6.43785 57.0504 7.19718C56.6084 7.94518 56.0417 8.71585 55.3504 9.50918C54.6704 10.2912 53.8544 11.0222 52.9024 11.7022C52.7324 11.8382 52.5567 11.8382 52.3754 11.7022L51.9674 11.3282C51.922 11.2828 51.939 11.2262 52.0184 11.1582C52.6417 10.7955 53.2197 10.3535 53.7524 9.83218C54.2964 9.31085 54.7894 8.75552 55.2314 8.16618C55.6734 7.56552 56.053 6.97052 56.3704 6.38118C56.699 5.78052 56.954 5.22518 57.1354 4.71518C57.3167 4.20518 57.413 3.78018 57.4244 3.44018C57.4244 3.31552 57.3734 3.25318 57.2714 3.25318C56.8067 3.27585 56.376 3.30985 55.9794 3.35518C55.594 3.38918 55.203 3.42318 54.8064 3.45718L53.0724 3.61018C52.959 3.62152 52.8854 3.61018 52.8514 3.57618C52.8174 3.53085 52.789 3.47985 52.7664 3.42318C52.755 3.41185 52.7494 3.40052 52.7494 3.38918C52.704 3.26452 52.67 3.16252 52.6474 3.08318C52.6247 3.00385 52.5907 2.86785 52.5454 2.67518C52.534 2.65252 52.5397 2.62418 52.5624 2.59018C52.585 2.55618 52.6247 2.54485 52.6814 2.55618C53.418 2.62418 54.1377 2.64118 54.8404 2.60718C55.543 2.57318 56.2627 2.51085 56.9994 2.42018C57.1354 2.40885 57.277 2.38618 57.4244 2.35218C57.583 2.31818 57.6624 2.30118 57.6624 2.30118C57.719 2.27852 57.7814 2.27852 57.8494 2.30118C57.9854 2.34652 58.161 2.40318 58.3764 2.47118C58.5917 2.52785 58.722 2.56752 58.7674 2.59018C58.858 2.63552 58.8977 2.70918 58.8864 2.81118L58.4954 4.05218C58.4614 4.15418 58.4217 4.27318 58.3764 4.40918C58.331 4.54518 58.2744 4.69252 58.2064 4.85118C58.4897 4.88518 58.875 4.90218 59.3624 4.90218C59.861 4.90218 60.337 4.88518 60.7904 4.85118V2.94718C60.7904 2.51652 60.779 2.11985 60.7564 1.75718C60.7337 1.39452 60.694 1.15652 60.6374 1.04318C60.6147 0.986516 60.6147 0.946849 60.6374 0.924182C60.6714 0.890182 60.711 0.873183 60.7564 0.873183L61.7594 0.890182C61.816 0.912849 61.8444 0.958182 61.8444 1.02618C61.8217 1.35485 61.8104 1.64952 61.8104 1.91018C61.8104 2.17085 61.8104 2.44285 61.8104 2.72618C61.8104 2.79418 61.8104 2.86785 61.8104 2.94718C61.8104 3.02652 61.8104 3.11152 61.8104 3.20218V14.0142C61.8104 14.1842 61.799 14.2862 61.7764 14.3202C61.765 14.3542 61.731 14.3768 61.6744 14.3882C61.6404 14.3882 61.561 14.3938 61.4364 14.4052C61.323 14.4052 61.2097 14.4108 61.0964 14.4222C60.983 14.4335 60.9037 14.4392 60.8584 14.4392ZM63.4254 14.8812C63.38 14.8812 63.3574 14.8528 63.3574 14.7962V2.50518C63.3574 2.07452 63.346 1.67785 63.3234 1.31518C63.312 0.952515 63.278 0.714515 63.2214 0.601182C63.1987 0.544515 63.1987 0.504849 63.2214 0.482183C63.2554 0.448182 63.295 0.431182 63.3404 0.431182L64.3434 0.448182C64.4 0.470849 64.4284 0.516183 64.4284 0.584182C64.4057 0.924182 64.3887 1.23018 64.3774 1.50218C64.3774 1.77418 64.3774 2.05752 64.3774 2.35218C64.3774 2.42018 64.3774 2.48818 64.3774 2.55618C64.3774 2.62418 64.3774 2.69218 64.3774 2.76018V14.4562C64.3774 14.6262 64.366 14.7282 64.3434 14.7622C64.332 14.7962 64.298 14.8188 64.2414 14.8302C64.2074 14.8302 64.128 14.8302 64.0034 14.8302C63.89 14.8415 63.7767 14.8528 63.6634 14.8642C63.55 14.8755 63.4707 14.8812 63.4254 14.8812Z" fill="black"/>
<path d="M67.444 9.59418L67.019 9.22018C66.9737 9.17485 66.9907 9.12385 67.07 9.06718C67.0813 9.05585 67.087 9.05018 67.087 9.05018C67.7217 8.63085 68.3167 8.10385 68.872 7.46918C69.4387 6.82318 69.943 6.14885 70.385 5.44618C70.827 4.74352 71.1727 4.08618 71.422 3.47418C71.5013 3.28152 71.5693 3.06052 71.626 2.81118C71.694 2.55052 71.745 2.30118 71.779 2.06318C71.8243 1.82518 71.847 1.63252 71.847 1.48518C71.847 1.38318 71.9037 1.33785 72.017 1.34918C72.1417 1.37185 72.3173 1.41718 72.544 1.48518C72.7707 1.55318 72.969 1.61552 73.139 1.67218C73.207 1.70618 73.224 1.76852 73.19 1.85918C73.1107 2.08585 73.003 2.38052 72.867 2.74318C72.731 3.10585 72.6063 3.42318 72.493 3.69518C72.4137 3.87652 72.323 4.06918 72.221 4.27318C72.1303 4.47718 72.0227 4.69252 71.898 4.91918C72.238 5.17985 72.612 5.46885 73.02 5.78618C73.4393 6.09218 73.8473 6.39818 74.244 6.70418C74.6407 7.01018 74.992 7.28785 75.298 7.53718C75.604 7.78652 75.825 7.97918 75.961 8.11518C76.0063 8.14918 76.0403 8.20585 76.063 8.28518C76.097 8.35318 76.0857 8.42685 76.029 8.50618C75.9837 8.57418 75.876 8.68185 75.706 8.82918C75.5473 8.97652 75.434 9.08418 75.366 9.15218C75.2753 9.20885 75.2073 9.19752 75.162 9.11818C74.992 8.88018 74.754 8.60252 74.448 8.28518C74.1533 7.96785 73.8303 7.63918 73.479 7.29918C73.139 6.95918 72.7933 6.64185 72.442 6.34718C72.0907 6.05252 71.779 5.80885 71.507 5.61618C71.133 6.23952 70.657 6.89685 70.079 7.58818C69.5123 8.26818 68.8097 8.92552 67.971 9.56018C67.9143 9.60552 67.8407 9.64518 67.75 9.67918C67.6593 9.71318 67.5573 9.68485 67.444 9.59418ZM77.729 11.5662C77.6837 11.5662 77.661 11.5378 77.661 11.4812V2.50518C77.661 2.07452 77.644 1.67785 77.61 1.31518C77.5873 0.952515 77.5477 0.714515 77.491 0.601182C77.4683 0.544515 77.4683 0.504849 77.491 0.482183C77.525 0.448182 77.5647 0.431182 77.61 0.431182C77.7687 0.431182 77.9557 0.431182 78.171 0.431182C78.3863 0.431182 78.5677 0.436849 78.715 0.448182C78.7717 0.448182 78.8 0.493515 78.8 0.584182C78.766 1.00352 78.7433 1.37185 78.732 1.68918C78.732 1.99518 78.732 2.35218 78.732 2.76018V5.32718C79.0493 5.32718 79.3893 5.31585 79.752 5.29318C80.1147 5.27052 80.449 5.24218 80.755 5.20818C81.0723 5.17418 81.3047 5.13452 81.452 5.08918C81.554 5.07785 81.6107 5.11185 81.622 5.19118C81.6447 5.33852 81.656 5.48585 81.656 5.63318C81.6673 5.78052 81.6787 5.92785 81.69 6.07518C81.69 6.19985 81.639 6.26218 81.537 6.26218C81.3783 6.23952 81.1347 6.22818 80.806 6.22818C80.4887 6.21685 80.143 6.21118 79.769 6.21118C79.395 6.21118 79.0493 6.22252 78.732 6.24518V11.1412C78.732 11.3112 78.7207 11.4132 78.698 11.4472C78.6867 11.4812 78.6527 11.5038 78.596 11.5152L77.729 11.5662ZM72.255 15.5612C71.8923 15.5612 71.6147 15.4252 71.422 15.1532C71.2407 14.8925 71.15 14.5185 71.15 14.0312V12.5182C71.15 12.1215 71.133 11.7928 71.099 11.5322C71.065 11.2715 71.031 11.0845 70.997 10.9712C70.963 10.8578 71.0027 10.8012 71.116 10.8012C71.184 10.8012 71.2973 10.8068 71.456 10.8182C71.626 10.8182 71.7847 10.8238 71.932 10.8352C72.0907 10.8465 72.1757 10.8522 72.187 10.8522C72.2437 10.8522 72.272 10.9088 72.272 11.0222C72.2493 11.2828 72.2323 11.5152 72.221 11.7192C72.221 11.9118 72.221 12.1555 72.221 12.4502V13.9292C72.221 14.2125 72.255 14.4108 72.323 14.5242C72.4023 14.6262 72.527 14.6828 72.697 14.6942C73.0143 14.7055 73.3997 14.7112 73.853 14.7112C74.3177 14.7225 74.7993 14.7225 75.298 14.7112C75.808 14.6885 76.2897 14.6658 76.743 14.6432C77.219 14.6205 77.712 14.5808 78.222 14.5242C78.732 14.4562 79.123 14.3882 79.395 14.3202C79.5083 14.2975 79.582 14.3032 79.616 14.3372C79.65 14.3712 79.6727 14.4165 79.684 14.4732L79.82 15.2722C79.82 15.3288 79.803 15.3742 79.769 15.4082C79.7463 15.4422 79.6557 15.4592 79.497 15.4592C78.375 15.4592 77.219 15.4762 76.029 15.5102C74.839 15.5442 73.581 15.5612 72.255 15.5612Z" fill="black"/>
</svg>
