<svg width="63" height="16" viewBox="0 0 63 16" fill="none" xmlns="http://www.w3.org/2000/svg">
<path d="M8.91573 15.725C8.19039 15.725 7.55573 15.5947 7.01173 15.334C6.46773 15.0847 6.03706 14.739 5.71973 14.297C5.41373 13.855 5.26073 13.345 5.26073 12.767C5.26073 12.2117 5.43073 11.7073 5.77073 11.254C6.11073 10.8007 6.56406 10.4437 7.13073 10.183C7.69739 9.911 8.31506 9.775 8.98373 9.775C9.66373 9.775 10.2814 9.88833 10.8367 10.115C11.4034 10.3303 11.8511 10.659 12.1797 11.101C12.5197 11.5317 12.6784 12.0643 12.6557 12.699C12.6444 13.2883 12.4687 13.8097 12.1287 14.263C11.8001 14.7163 11.3524 15.0733 10.7857 15.334C10.2304 15.5947 9.60706 15.725 8.91573 15.725ZM11.6527 9.435C11.6074 9.435 11.5847 9.40667 11.5847 9.35V5.066C11.2561 5.066 10.9161 5.07167 10.5647 5.083C10.2134 5.083 9.89039 5.08867 9.59573 5.1V8.296C9.59573 8.466 9.58439 8.568 9.56173 8.602C9.55039 8.636 9.51639 8.65867 9.45973 8.67L8.64373 8.704C8.59839 8.704 8.57573 8.67567 8.57573 8.619V2.159C8.57573 1.26367 8.52473 0.685666 8.42273 0.425C8.40006 0.368333 8.40006 0.328666 8.42273 0.306C8.45673 0.272 8.49639 0.255 8.54173 0.255L9.54473 0.272C9.60139 0.272 9.62973 0.323 9.62973 0.425C9.60706 0.787666 9.59573 1.088 9.59573 1.326C9.59573 1.564 9.59573 1.81333 9.59573 2.074C9.59573 2.15333 9.59573 2.23267 9.59573 2.312C9.59573 2.38 9.59573 2.45933 9.59573 2.55V4.216C9.65239 4.216 9.70906 4.216 9.76573 4.216C9.83373 4.216 9.89606 4.216 9.95273 4.216C10.2134 4.216 10.4797 4.216 10.7517 4.216C11.0351 4.216 11.3127 4.20467 11.5847 4.182V1.734C11.5847 0.895333 11.5394 0.374 11.4487 0.17C11.4261 0.113333 11.4261 0.0736667 11.4487 0.0510004C11.4827 0.0170001 11.5224 0 11.5677 0L12.5877 0.0169998C12.6331 0.0169998 12.6557 0.0623332 12.6557 0.153C12.6557 0.164333 12.6557 0.175666 12.6557 0.187C12.6444 0.493 12.6331 0.753666 12.6217 0.969C12.6104 1.18433 12.6047 1.394 12.6047 1.598C12.6047 1.79067 12.6047 2.023 12.6047 2.295V9.027C12.6047 9.197 12.5934 9.299 12.5707 9.333C12.5594 9.367 12.5254 9.38967 12.4687 9.401L11.6527 9.435ZM8.94973 14.841C9.66373 14.8183 10.2644 14.6257 10.7517 14.263C11.2504 13.9003 11.5111 13.3733 11.5337 12.682C11.5564 12.2287 11.4487 11.849 11.2107 11.543C10.9841 11.237 10.6724 11.0047 10.2757 10.846C9.89039 10.676 9.45406 10.591 8.96673 10.591C8.49073 10.6023 8.05439 10.7043 7.65773 10.897C7.26106 11.0783 6.94373 11.3277 6.70573 11.645C6.46773 11.9623 6.34873 12.3307 6.34873 12.75C6.34873 13.1807 6.46206 13.5547 6.68873 13.872C6.92673 14.178 7.24406 14.416 7.64073 14.586C8.03739 14.756 8.47373 14.841 8.94973 14.841ZM0.415727 8.976L0.0247273 8.619C-0.0206061 8.57367 -0.00360605 8.52267 0.0757273 8.466C0.0870606 8.45467 0.0927273 8.449 0.0927273 8.449C0.670727 8.02967 1.22039 7.514 1.74173 6.902C2.26306 6.27867 2.71639 5.627 3.10173 4.947C3.48706 4.267 3.77039 3.63233 3.95173 3.043C4.05373 2.703 4.13306 2.363 4.18973 2.023C4.25773 1.683 4.29173 1.39967 4.29173 1.173C4.29173 1.04833 4.34273 0.997333 4.44473 1.02L5.49873 1.292C5.58939 1.31467 5.61773 1.377 5.58373 1.479C5.51573 1.717 5.43073 1.989 5.32873 2.295C5.22673 2.601 5.11906 2.91833 5.00573 3.247C4.94906 3.39433 4.87539 3.57567 4.78473 3.791C4.69406 3.995 4.58073 4.22167 4.44473 4.471C4.85273 4.82233 5.26639 5.185 5.68573 5.559C6.11639 5.92167 6.50739 6.26167 6.85873 6.579C7.21006 6.89633 7.46506 7.14567 7.62373 7.327C7.65773 7.37233 7.68606 7.429 7.70873 7.497C7.73139 7.55367 7.71439 7.62167 7.65773 7.701C7.57839 7.803 7.47639 7.91067 7.35173 8.024C7.22706 8.13733 7.10806 8.23367 6.99473 8.313C6.92673 8.36967 6.87006 8.35833 6.82473 8.279C6.64339 7.96167 6.39973 7.61033 6.09373 7.225C5.78773 6.83967 5.45906 6.46 5.10773 6.086C4.76773 5.70067 4.43339 5.372 4.10473 5.1C3.88939 5.46267 3.62306 5.87633 3.30573 6.341C2.99973 6.79433 2.64839 7.24767 2.25173 7.701C1.85506 8.15433 1.41873 8.57367 0.942727 8.959C0.874727 9.00433 0.795394 9.044 0.704727 9.078C0.625394 9.10067 0.529061 9.06667 0.415727 8.976Z" fill="black"/>
<path d="M17.3544 10.914C17.105 10.9027 16.9124 10.778 16.7764 10.54C16.6404 10.302 16.5724 10.0017 16.5724 9.639V7.157C16.5724 6.93033 16.5667 6.68667 16.5554 6.426C16.544 6.16533 16.4987 5.92167 16.4194 5.695C16.3627 5.559 16.4137 5.50233 16.5724 5.525C16.7084 5.53633 16.952 5.542 17.3034 5.542C17.666 5.542 18.074 5.53633 18.5274 5.525C18.9807 5.51367 19.4284 5.50233 19.8704 5.491C20.3124 5.46833 20.6864 5.44567 20.9924 5.423C21.3097 5.389 21.491 5.36067 21.5364 5.338C21.5704 5.1 21.6044 4.79967 21.6384 4.437C21.6724 4.07433 21.7064 3.71167 21.7404 3.349C21.7857 2.975 21.814 2.669 21.8254 2.431C21.8254 2.363 21.797 2.329 21.7404 2.329C21.253 2.329 20.7487 2.346 20.2274 2.38C19.7174 2.40267 19.2244 2.42533 18.7484 2.448C18.4764 2.47067 18.1817 2.49333 17.8644 2.516C17.547 2.53867 17.2524 2.56133 16.9804 2.584C16.8557 2.59533 16.7764 2.58967 16.7424 2.567C16.7197 2.533 16.697 2.482 16.6744 2.414L16.4874 1.734C16.476 1.71133 16.4817 1.68867 16.5044 1.666C16.527 1.632 16.5554 1.62067 16.5894 1.632C16.6687 1.64333 16.867 1.649 17.1844 1.649C17.513 1.649 17.8984 1.64333 18.3404 1.632C18.7937 1.62067 19.2527 1.60367 19.7174 1.581C20.1934 1.547 20.6297 1.51867 21.0264 1.496C21.423 1.462 21.7234 1.42233 21.9274 1.377C21.984 1.35433 22.0294 1.34867 22.0634 1.36C22.0974 1.36 22.1257 1.36 22.1484 1.36C22.171 1.37133 22.188 1.377 22.1994 1.377L22.9984 1.581C23.089 1.60367 23.123 1.64333 23.1004 1.7C23.089 1.79067 23.0664 1.93233 23.0324 2.125C22.9984 2.30633 22.9644 2.49333 22.9304 2.686C22.8964 2.87867 22.868 3.03733 22.8454 3.162L22.4544 6.086C22.443 6.188 22.3864 6.239 22.2844 6.239C22.1597 6.239 21.9444 6.24467 21.6384 6.256C21.3324 6.26733 20.981 6.27867 20.5844 6.29C20.1877 6.30133 19.791 6.31833 19.3944 6.341C18.9977 6.36367 18.6407 6.38633 18.3234 6.409C18.006 6.42033 17.7794 6.43167 17.6434 6.443V9.554C17.6434 9.66733 17.6604 9.74667 17.6944 9.792C17.7397 9.826 17.7907 9.84867 17.8474 9.86C18.1874 9.88267 18.6634 9.87133 19.2754 9.826C19.8874 9.76933 20.5504 9.67867 21.2644 9.554C21.9784 9.42933 22.6754 9.27633 23.3554 9.095C24.0467 8.91367 24.636 8.69833 25.1234 8.449C25.2367 8.40367 25.299 8.415 25.3104 8.483L25.3444 8.721L25.3954 9.095C25.3954 9.15167 25.384 9.20267 25.3614 9.248C25.35 9.282 25.3047 9.316 25.2254 9.35C24.8514 9.52 24.347 9.69567 23.7124 9.877C23.089 10.047 22.3977 10.2113 21.6384 10.37C20.8904 10.5173 20.1424 10.642 19.3944 10.744C18.6464 10.846 17.9664 10.9027 17.3544 10.914ZM26.0414 14.45C25.996 14.45 25.9734 14.4217 25.9734 14.365V2.091C25.9734 1.66033 25.9564 1.26367 25.9224 0.901C25.8997 0.527 25.86 0.283333 25.8034 0.17C25.7807 0.113333 25.7807 0.0736667 25.8034 0.0510004C25.8374 0.0170001 25.877 0 25.9224 0C25.9904 0 26.1037 0.00566659 26.2624 0.0169998C26.4324 0.0169998 26.5967 0.0226664 26.7554 0.0339996C26.914 0.0339996 27.0047 0.0339996 27.0274 0.0339996C27.084 0.0339996 27.1124 0.079333 27.1124 0.17C27.0784 0.589333 27.0557 0.957667 27.0444 1.275C27.0444 1.581 27.0444 1.938 27.0444 2.346V14.025C27.0444 14.195 27.033 14.297 27.0104 14.331C26.999 14.365 26.965 14.3877 26.9084 14.399L26.0414 14.45Z" fill="black"/>
<path d="M37.9954 6.528C37.9274 6.57333 37.8424 6.596 37.7404 6.596C37.6498 6.58467 37.5591 6.51667 37.4684 6.392L37.1454 6.001C37.1114 5.94433 37.1058 5.91033 37.1284 5.899C37.1624 5.87633 37.1964 5.85933 37.2304 5.848C37.2418 5.848 37.2474 5.848 37.2474 5.848C38.6641 5.372 39.8144 4.77133 40.6984 4.046C41.5824 3.32067 42.1151 2.516 42.2964 1.632C42.0018 1.64333 41.7468 1.65467 41.5314 1.666C41.3161 1.666 41.1631 1.67167 41.0724 1.683C40.8911 1.69433 40.6191 1.717 40.2564 1.751C39.9051 1.77367 39.5481 1.79633 39.1854 1.819C38.8341 1.84167 38.5621 1.86433 38.3694 1.887C38.2448 1.90967 38.1654 1.89833 38.1314 1.853C38.0974 1.80767 38.0634 1.751 38.0294 1.683C38.0294 1.67167 38.0294 1.666 38.0294 1.666C37.9841 1.54133 37.9501 1.43367 37.9274 1.343C37.9048 1.25233 37.8708 1.11067 37.8254 0.918C37.8141 0.895333 37.8198 0.867 37.8424 0.833C37.8651 0.799 37.9048 0.787667 37.9614 0.799C38.2448 0.821667 38.6528 0.838667 39.1854 0.85C39.7294 0.861333 40.3414 0.867 41.0214 0.867C41.7128 0.855667 42.4154 0.838667 43.1294 0.816C43.8548 0.782 44.5404 0.736667 45.1864 0.68C45.8438 0.623333 46.4048 0.555333 46.8694 0.476C46.9034 0.464667 46.9431 0.470333 46.9884 0.493C47.0338 0.504333 47.0621 0.538333 47.0734 0.594999C47.0848 0.663 47.0961 0.742334 47.1074 0.833C47.1301 0.923667 47.1471 1.01433 47.1584 1.105L47.1924 1.428C47.2151 1.55267 47.1471 1.615 46.9884 1.615L44.8974 1.598C44.7274 1.598 44.5178 1.598 44.2684 1.598C44.0304 1.598 43.7811 1.60367 43.5204 1.615C43.3844 2.125 43.1804 2.601 42.9084 3.043C43.8378 3.39433 44.6651 3.71167 45.3904 3.995C46.1271 4.27833 46.7731 4.58433 47.3284 4.913C47.3851 4.947 47.4418 4.998 47.4984 5.066C47.5551 5.12267 47.5664 5.19633 47.5324 5.287C47.4758 5.41167 47.4134 5.54767 47.3454 5.695C47.2774 5.831 47.1981 5.967 47.1074 6.103C47.0621 6.18233 47.0054 6.19367 46.9374 6.137C46.5748 5.80833 46.1271 5.491 45.5944 5.185C45.0731 4.86767 44.5348 4.57867 43.9794 4.318C43.4241 4.05733 42.9084 3.84767 42.4324 3.689C41.8884 4.335 41.2254 4.88467 40.4434 5.338C39.6728 5.79133 38.8568 6.188 37.9954 6.528ZM42.1774 14.484C42.1321 14.484 42.1094 14.4557 42.1094 14.399V8.806C40.7494 8.82867 39.5141 8.86833 38.4034 8.925C37.2928 8.97033 36.4201 9.02133 35.7854 9.078C35.6608 9.08933 35.5758 9.078 35.5304 9.044C35.4851 9.01 35.4511 8.959 35.4284 8.891C35.3831 8.76633 35.3434 8.64167 35.3094 8.517C35.2754 8.381 35.2358 8.21667 35.1904 8.024C35.1791 8.00133 35.1848 7.973 35.2074 7.939C35.2301 7.89367 35.2698 7.87667 35.3264 7.888C35.7571 7.94467 36.3408 7.98433 37.0774 8.007C37.8254 8.01833 38.6471 8.024 39.5424 8.024C40.4151 8.024 41.3331 8.01267 42.2964 7.99C43.2711 7.96733 44.2174 7.939 45.1354 7.905C46.0534 7.871 46.8694 7.82567 47.5834 7.769C48.3088 7.71233 48.8584 7.65 49.2324 7.582C49.3458 7.55933 49.4194 7.565 49.4534 7.599C49.4874 7.633 49.5101 7.67833 49.5214 7.735L49.6234 8.551C49.6234 8.60767 49.6064 8.65867 49.5724 8.704C49.5384 8.74933 49.4478 8.772 49.3004 8.772C48.9151 8.76067 48.4674 8.755 47.9574 8.755C47.4474 8.755 46.9034 8.755 46.3254 8.755C45.7928 8.755 45.2658 8.76067 44.7444 8.772C44.2231 8.772 43.7074 8.77767 43.1974 8.789V14.059C43.1974 14.229 43.1861 14.331 43.1634 14.365C43.1521 14.399 43.1181 14.4217 43.0614 14.433C43.0161 14.433 42.9311 14.433 42.8064 14.433C42.6818 14.4443 42.5571 14.4557 42.4324 14.467C42.3078 14.4783 42.2228 14.484 42.1774 14.484Z" fill="black"/>
<path d="M51.6027 11.696L51.1947 11.322C51.1494 11.2767 51.1664 11.22 51.2457 11.152C51.8124 10.8573 52.3847 10.4777 52.9627 10.013C53.5521 9.537 54.1131 9.01 54.6457 8.432C55.1897 7.84267 55.6827 7.23067 56.1247 6.596C56.5667 5.96133 56.9294 5.32667 57.2127 4.692C57.4961 4.046 57.6717 3.434 57.7397 2.856C57.7624 2.73133 57.7114 2.669 57.5867 2.669L54.0847 2.873L52.3167 3.026C52.2034 3.03733 52.1297 3.026 52.0957 2.992C52.0617 2.94667 52.0334 2.89567 52.0107 2.839C51.9994 2.82767 51.9937 2.81633 51.9937 2.805C51.9484 2.68033 51.9144 2.57833 51.8917 2.499C51.8691 2.40833 51.8351 2.26667 51.7897 2.074C51.7784 2.05133 51.7841 2.023 51.8067 1.989C51.8294 1.955 51.8691 1.94367 51.9257 1.955C52.4244 2.00033 52.9967 2.023 53.6427 2.023C54.2887 2.01167 54.9347 1.989 55.5807 1.955C56.2381 1.90967 56.8161 1.85867 57.3147 1.802C57.4507 1.79067 57.5981 1.768 57.7567 1.734C57.9154 1.7 57.9947 1.683 57.9947 1.683C58.0514 1.66033 58.1137 1.66033 58.1817 1.683L59.1167 1.989C59.2074 2.03433 59.2471 2.108 59.2357 2.21L58.8447 3.468C58.6861 3.96667 58.4254 4.56167 58.0627 5.253C57.7114 5.94433 57.2581 6.67533 56.7027 7.446C56.1474 8.20533 55.4901 8.95333 54.7307 9.69C53.9714 10.4267 53.1101 11.0953 52.1467 11.696C52.0561 11.7527 51.9654 11.7867 51.8747 11.798C51.7841 11.8093 51.6934 11.7753 51.6027 11.696ZM61.7347 14.45C61.6894 14.45 61.6667 14.4217 61.6667 14.365V2.091C61.6667 1.66033 61.6497 1.26367 61.6157 0.901C61.5931 0.527 61.5534 0.283333 61.4967 0.17C61.4741 0.113333 61.4741 0.0736667 61.4967 0.0510004C61.5307 0.0170001 61.5704 0 61.6157 0C61.6837 0 61.7971 0.00566659 61.9557 0.0169998C62.1257 0.0169998 62.2901 0.0226664 62.4487 0.0339996C62.6074 0.0339996 62.6981 0.0339996 62.7207 0.0339996C62.7774 0.0339996 62.8057 0.079333 62.8057 0.17C62.7717 0.589333 62.7491 0.957667 62.7377 1.275C62.7377 1.581 62.7377 1.938 62.7377 2.346V14.025C62.7377 14.195 62.7264 14.297 62.7037 14.331C62.6924 14.365 62.6584 14.3877 62.6017 14.399L61.7347 14.45Z" fill="black"/>
</svg>
