<svg width="104" height="39" viewBox="0 0 104 39" fill="none" xmlns="http://www.w3.org/2000/svg">
<path d="M1.59901 8.608C1.52434 8.64 1.44967 8.66133 1.37501 8.672C1.30034 8.672 1.20967 8.624 1.10301 8.528L0.751007 8.192C0.729674 8.13866 0.745674 8.096 0.799007 8.064C0.820341 8.05333 0.836341 8.04266 0.847008 8.032C1.67901 7.65866 2.35634 7.248 2.87901 6.8C3.40167 6.352 3.80167 5.89866 4.07901 5.44C4.35634 4.98133 4.53767 4.54933 4.62301 4.144C4.40967 4.15466 4.20167 4.16533 3.99901 4.176C3.80701 4.176 3.63634 4.18666 3.48701 4.208L1.74301 4.352C1.63634 4.36266 1.56701 4.352 1.53501 4.32C1.50301 4.27733 1.47634 4.22933 1.45501 4.176C1.44434 4.16533 1.43901 4.15466 1.43901 4.144C1.39634 4.02666 1.36967 3.936 1.35901 3.872C1.34834 3.79733 1.31634 3.67466 1.26301 3.504C1.25234 3.48266 1.25234 3.456 1.26301 3.424C1.28434 3.392 1.32167 3.376 1.37501 3.376C1.67367 3.39733 1.95634 3.41333 2.22301 3.424C2.50034 3.43466 2.89501 3.44 3.40701 3.44C3.95101 3.41866 4.53767 3.39733 5.16701 3.376C5.79634 3.35466 6.40434 3.32266 6.99101 3.28C7.57767 3.22666 8.07367 3.168 8.47901 3.104C8.51101 3.09333 8.54834 3.09866 8.59101 3.12C8.63367 3.13066 8.66034 3.16266 8.67101 3.216L8.73501 3.664C8.74567 3.70666 8.75101 3.74933 8.75101 3.792C8.75101 3.83466 8.75101 3.87733 8.75101 3.92C8.77234 4.03733 8.70834 4.096 8.55901 4.096C8.35634 4.08533 8.11634 4.08 7.83901 4.08C7.56167 4.08 7.31634 4.08 7.10301 4.08C6.92167 4.08 6.71367 4.08533 6.47901 4.096C6.24434 4.096 6.00434 4.10133 5.75901 4.112C5.70567 4.31466 5.63634 4.52266 5.55101 4.736C5.46567 4.93866 5.36434 5.14666 5.24701 5.36C5.95101 5.70133 6.60167 6.032 7.19901 6.352C7.80701 6.66133 8.29767 6.93866 8.67101 7.184C8.72434 7.22666 8.77234 7.28 8.81501 7.344C8.86834 7.39733 8.87901 7.46133 8.84701 7.536C8.79367 7.65333 8.72434 7.76533 8.63901 7.872C8.56434 7.97866 8.48434 8.09066 8.39901 8.208C8.33501 8.28266 8.28167 8.288 8.23901 8.224C7.72701 7.75466 7.18301 7.33333 6.60701 6.96C6.04167 6.576 5.46567 6.23466 4.87901 5.936C4.53767 6.39466 4.10034 6.85333 3.56701 7.312C3.04434 7.76 2.38834 8.192 1.59901 8.608ZM10.527 14.16C10.4843 14.16 10.463 14.1333 10.463 14.08V2.528C10.463 2.12266 10.447 1.74933 10.415 1.408C10.3937 1.056 10.3563 0.826664 10.303 0.719997C10.2817 0.666664 10.2817 0.629331 10.303 0.607998C10.335 0.575998 10.3723 0.559998 10.415 0.559998C10.479 0.559998 10.5857 0.565331 10.735 0.575997C10.895 0.575997 11.0497 0.581331 11.199 0.591997C11.3483 0.591997 11.4337 0.591997 11.455 0.591997C11.5083 0.591997 11.535 0.634664 11.535 0.719997C11.503 1.11466 11.4817 1.46133 11.471 1.76C11.471 2.048 11.471 2.384 11.471 2.768V13.76C11.471 13.92 11.4603 14.016 11.439 14.048C11.4283 14.08 11.3963 14.1013 11.343 14.112L10.527 14.16ZM0.543007 11.344C0.425674 11.3547 0.351007 11.3493 0.319007 11.328C0.287007 11.3067 0.255007 11.248 0.223007 11.152C0.180341 11.0347 0.143007 10.928 0.111007 10.832C0.0896741 10.7253 0.0576741 10.5813 0.0150074 10.4C0.00434074 10.3787 0.00967406 10.352 0.0310074 10.32C0.0523407 10.288 0.0896741 10.2773 0.143007 10.288C0.356341 10.3307 0.751007 10.352 1.32701 10.352C1.91367 10.352 2.55367 10.3413 3.24701 10.32C3.43901 10.3093 3.64701 10.2987 3.87101 10.288C4.09501 10.2773 4.32967 10.2667 4.57501 10.256V9.648C4.57501 9.232 4.55901 8.89066 4.52701 8.624C4.49501 8.35733 4.45767 8.17066 4.41501 8.064C4.37234 7.95733 4.40967 7.904 4.52701 7.904H5.48701C5.55101 7.904 5.58301 7.94666 5.58301 8.032C5.58301 8.04266 5.58301 8.05333 5.58301 8.064C5.56167 8.34133 5.55101 8.58666 5.55101 8.8C5.55101 9.01333 5.54034 9.25866 5.51901 9.536L5.48701 10.192C6.22301 10.128 6.96967 10.0427 7.72701 9.936C8.49501 9.81866 9.15634 9.68 9.71101 9.52C9.78568 9.488 9.83368 9.51466 9.85501 9.6L9.93501 10.048C9.95634 10.144 9.94568 10.208 9.90301 10.24C9.87101 10.272 9.82301 10.2987 9.75901 10.32C9.57767 10.3733 9.30034 10.4373 8.92701 10.512C8.56434 10.576 8.14301 10.6453 7.66301 10.72C7.19367 10.784 6.70301 10.848 6.19101 10.912C5.68967 10.9653 5.20434 11.0133 4.73501 11.056C4.26567 11.0987 3.85501 11.1307 3.50301 11.152C2.92701 11.184 2.37767 11.216 1.85501 11.248C1.33234 11.28 0.895007 11.312 0.543007 11.344ZM4.73501 2.208C4.58567 2.18666 4.38301 2.16 4.12701 2.128C3.87101 2.096 3.62034 2.048 3.37501 1.984C3.12967 1.92 2.93234 1.82933 2.78301 1.712C2.74034 1.68 2.72967 1.616 2.75101 1.52C2.77234 1.41333 2.80967 1.31733 2.86301 1.232C2.91634 1.136 2.96967 1.09866 3.02301 1.12C3.48167 1.20533 3.98301 1.264 4.52701 1.296C5.07101 1.31733 5.58834 1.32266 6.07901 1.312C6.56967 1.29066 6.96434 1.26933 7.26301 1.248C7.34834 1.23733 7.40167 1.24266 7.42301 1.264C7.44434 1.27466 7.46034 1.30666 7.47101 1.36C7.47101 1.37066 7.47101 1.38666 7.47101 1.408C7.47101 1.504 7.46567 1.63733 7.45501 1.808C7.44434 1.968 7.40701 2.05866 7.34301 2.08C7.26834 2.10133 7.09234 2.128 6.81501 2.16C6.53767 2.192 6.21234 2.21333 5.83901 2.224C5.46567 2.23466 5.09767 2.22933 4.73501 2.208Z" fill="black"/>
<path d="M14.8131 8.464C14.6958 8.47466 14.6158 8.464 14.5731 8.432C14.5305 8.4 14.4985 8.352 14.4771 8.288C14.4345 8.17066 14.3971 8.05333 14.3651 7.936C14.3331 7.81866 14.2958 7.66933 14.2531 7.488C14.2425 7.46666 14.2478 7.44 14.2691 7.408C14.2905 7.36533 14.3278 7.34933 14.3811 7.36C14.7865 7.41333 15.3411 7.456 16.0451 7.488C16.7491 7.50933 17.5225 7.51466 18.3651 7.504C19.0158 7.504 19.7091 7.49866 20.4451 7.488C21.1811 7.46666 21.9118 7.44533 22.6371 7.424C23.3731 7.392 24.0665 7.36 24.7171 7.328C25.3785 7.296 25.9598 7.25866 26.4611 7.216C26.9731 7.17333 27.3678 7.12533 27.6451 7.072C27.7518 7.05066 27.8211 7.056 27.8531 7.088C27.8851 7.12 27.9065 7.16266 27.9171 7.216L28.0131 7.92C28.0238 8.06933 27.9225 8.13866 27.7091 8.128C27.3785 8.10666 26.9305 8.096 26.3651 8.096C25.8105 8.096 25.2078 8.10133 24.5571 8.112C23.9811 8.112 23.3891 8.12266 22.7811 8.144C22.1838 8.15466 21.6185 8.16533 21.0851 8.176C20.5625 8.18666 20.1091 8.19733 19.7251 8.208C18.6478 8.24 17.6771 8.27733 16.8131 8.32C15.9491 8.36266 15.2825 8.41066 14.8131 8.464ZM23.6771 6.16C23.5811 6.16 23.5491 6.10666 23.5811 6C23.6665 5.70133 23.7571 5.31733 23.8531 4.848C23.9598 4.368 24.0558 3.87733 24.1411 3.376C24.2265 2.87466 24.2798 2.44266 24.3011 2.08C24.3118 1.96266 24.2585 1.904 24.1411 1.904C23.9065 1.904 23.5865 1.90933 23.1811 1.92C22.7865 1.93066 22.3598 1.94133 21.9011 1.952C21.4531 1.96266 21.0265 1.97333 20.6211 1.984C20.2265 1.99466 19.9171 2.00533 19.6931 2.016C19.5225 2.016 19.3038 2.02666 19.0371 2.048C18.7705 2.06933 18.5038 2.09066 18.2371 2.112C17.9705 2.13333 17.7518 2.15466 17.5811 2.176C17.4638 2.18666 17.3891 2.18133 17.3571 2.16C17.3251 2.128 17.2931 2.06933 17.2611 1.984C17.2611 1.97333 17.2611 1.968 17.2611 1.968C17.2291 1.88266 17.1971 1.78666 17.1651 1.68C17.1331 1.57333 17.0958 1.44533 17.0531 1.296C17.0425 1.27466 17.0478 1.248 17.0691 1.216C17.0905 1.184 17.1278 1.17333 17.1811 1.184C17.4798 1.20533 17.8745 1.22133 18.3651 1.232C18.8558 1.24266 19.3891 1.24266 19.9651 1.232C20.5411 1.22133 21.1118 1.20533 21.6771 1.184C22.2425 1.16266 22.7545 1.136 23.2131 1.104C23.6718 1.06133 24.0238 1.01333 24.2691 0.959997C24.3545 0.938664 24.4398 0.938664 24.5251 0.959997L25.4211 1.152C25.5171 1.16266 25.5545 1.22133 25.5331 1.328C25.5011 1.488 25.4585 1.70133 25.4051 1.968C25.3518 2.224 25.3091 2.44266 25.2771 2.624C25.2131 2.99733 25.1385 3.392 25.0531 3.808C24.9678 4.21333 24.8878 4.58666 24.8131 4.928C24.7385 5.25866 24.6745 5.504 24.6211 5.664C24.5785 5.81333 24.5358 5.92533 24.4931 6C24.4611 6.064 24.3865 6.10133 24.2691 6.112L23.6771 6.16ZM18.7971 14.8C18.4238 14.8 18.1411 14.656 17.9491 14.368C17.7571 14.08 17.6611 13.7173 17.6611 13.28V11.936C17.6611 11.5627 17.6398 11.2533 17.5971 11.008C17.5651 10.7627 17.5331 10.5867 17.5011 10.48C17.4691 10.3733 17.5065 10.32 17.6131 10.32C17.6665 10.32 17.7678 10.3253 17.9171 10.336C18.0771 10.336 18.2265 10.3413 18.3651 10.352C18.5145 10.3627 18.5998 10.368 18.6211 10.368C18.6745 10.3787 18.7011 10.432 18.7011 10.528C18.6905 10.7733 18.6798 10.992 18.6691 11.184C18.6691 11.3653 18.6691 11.5947 18.6691 11.872V13.232C18.6691 13.5093 18.7011 13.7013 18.7651 13.808C18.8398 13.904 18.9785 13.9573 19.1811 13.968C19.4798 13.9787 19.8585 13.9893 20.3171 14C20.7758 14 21.2505 13.9947 21.7411 13.984C22.2425 13.9733 22.7065 13.9573 23.1331 13.936C23.5811 13.9147 24.0345 13.8827 24.4931 13.84C24.9625 13.7867 25.3305 13.7333 25.5971 13.68C25.7038 13.6587 25.7731 13.664 25.8051 13.696C25.8371 13.728 25.8585 13.7707 25.8691 13.824L25.9971 14.544C26.0078 14.6613 25.9278 14.72 25.7571 14.72C24.7011 14.72 23.5865 14.7307 22.4131 14.752C21.2505 14.784 20.0451 14.8 18.7971 14.8Z" fill="black"/>
<path d="M35.6216 7.344C35.9523 6.84266 36.3523 6.448 36.8216 6.16C37.3016 5.872 37.8563 5.728 38.4856 5.728C39.1683 5.728 39.7443 5.88266 40.2136 6.192C40.6936 6.50133 41.0563 6.91733 41.3016 7.44C41.5576 7.96266 41.6856 8.544 41.6856 9.184C41.6963 9.93067 41.547 10.5867 41.2376 11.152C40.939 11.7067 40.523 12.144 39.9896 12.464C39.467 12.784 38.875 12.9493 38.2136 12.96C37.5416 12.9707 36.9283 12.8 36.3736 12.448C35.8296 12.0853 35.3923 11.5413 35.0616 10.816C34.7416 10.08 34.5763 9.15733 34.5656 8.048C34.5656 7.23733 34.6563 6.43733 34.8376 5.648C35.0296 4.848 35.323 4.128 35.7176 3.488C36.1123 2.83733 36.6136 2.32 37.2216 1.936C37.8403 1.552 38.5763 1.36 39.4296 1.36C39.6963 1.36 39.963 1.38666 40.2296 1.44C40.4963 1.48266 40.7576 1.568 41.0136 1.696C41.067 1.728 41.083 1.77066 41.0616 1.824L40.7736 2.496C40.7523 2.56 40.7043 2.576 40.6296 2.544C40.427 2.42666 40.219 2.34666 40.0056 2.304C39.7923 2.26133 39.579 2.24 39.3656 2.24C38.651 2.24 38.0216 2.45866 37.4776 2.896C36.9336 3.33333 36.5016 3.936 36.1816 4.704C35.8723 5.472 35.6856 6.352 35.6216 7.344ZM35.6376 8.768C35.7336 9.86666 36.0056 10.6933 36.4536 11.248C36.9016 11.792 37.4776 12.064 38.1816 12.064C38.6936 12.064 39.131 11.936 39.4936 11.68C39.867 11.4133 40.155 11.0613 40.3576 10.624C40.5603 10.176 40.6563 9.68 40.6456 9.136C40.635 8.32533 40.4163 7.712 39.9896 7.296C39.563 6.86933 39.0243 6.656 38.3736 6.656C37.7656 6.656 37.2216 6.83733 36.7416 7.2C36.2723 7.552 35.9043 8.07466 35.6376 8.768Z" fill="black"/>
<path d="M53.7823 14.16C53.7396 14.16 53.7183 14.1333 53.7183 14.08V7.056C53.3876 7.056 53.0463 7.06133 52.6943 7.072C52.3423 7.072 52.0383 7.08266 51.7823 7.104V13.344C51.7823 13.4933 51.7716 13.5893 51.7503 13.632C51.7396 13.664 51.7076 13.6853 51.6543 13.696C51.5903 13.7067 51.4569 13.7173 51.2543 13.728C51.0623 13.7387 50.9396 13.744 50.8863 13.744C50.8436 13.744 50.8223 13.7173 50.8223 13.664V2.928C50.8223 2.52266 50.8116 2.14933 50.7903 1.808C50.7689 1.46666 50.7316 1.24266 50.6783 1.136C50.6569 1.08266 50.6569 1.04533 50.6783 1.024C50.7103 0.991998 50.7476 0.975998 50.7903 0.975998L51.7343 0.991998C51.7876 1.01333 51.8143 1.056 51.8143 1.12C51.7929 1.42933 51.7823 1.70666 51.7823 1.952C51.7823 2.19733 51.7823 2.45333 51.7823 2.72C51.7823 2.784 51.7823 2.85333 51.7823 2.928C51.7823 3.00266 51.7823 3.08266 51.7823 3.168V6.192C51.8356 6.192 51.8889 6.192 51.9423 6.192C51.9956 6.192 52.0489 6.192 52.1023 6.192C52.3476 6.192 52.6089 6.192 52.8863 6.192C53.1743 6.192 53.4516 6.18133 53.7183 6.16V2.512C53.7183 2.10666 53.7076 1.73333 53.6863 1.392C53.6756 1.05066 53.6436 0.826664 53.5903 0.719997C53.5689 0.666664 53.5689 0.629331 53.5903 0.607998C53.6223 0.575998 53.6596 0.559998 53.7023 0.559998L54.6463 0.575997C54.6996 0.597331 54.7263 0.639998 54.7263 0.703998C54.7049 1.024 54.6889 1.312 54.6783 1.568C54.6783 1.824 54.6783 2.09066 54.6783 2.368C54.6783 2.432 54.6783 2.496 54.6783 2.56C54.6783 2.624 54.6783 2.688 54.6783 2.752V13.76C54.6783 13.92 54.6676 14.016 54.6463 14.048C54.6356 14.08 54.6036 14.1013 54.5503 14.112C54.5183 14.112 54.4436 14.112 54.3263 14.112C54.2196 14.1227 54.1129 14.1333 54.0063 14.144C53.8996 14.1547 53.8249 14.16 53.7823 14.16ZM43.5423 11.36L43.1583 11.04C43.1476 11.0293 43.1369 11.0187 43.1263 11.008C43.1263 10.976 43.1529 10.9387 43.2063 10.896C43.9956 10.3733 44.7049 9.78133 45.3343 9.12C45.9636 8.45866 46.5023 7.78133 46.9503 7.088C47.3983 6.39466 47.7449 5.728 47.9903 5.088C48.2463 4.448 48.3849 3.88266 48.4063 3.392C48.4063 3.27466 48.3583 3.216 48.2623 3.216C47.9636 3.22666 47.6436 3.24266 47.3023 3.264C46.9609 3.27466 46.5449 3.30133 46.0543 3.344C45.5743 3.376 44.9663 3.42933 44.2303 3.504C44.1236 3.51466 44.0543 3.504 44.0223 3.472C44.0009 3.44 43.9796 3.39733 43.9583 3.344C43.9476 3.32266 43.9423 3.30666 43.9423 3.296C43.8996 3.17866 43.8676 3.088 43.8463 3.024C43.8356 2.96 43.8036 2.84266 43.7503 2.672C43.7396 2.59733 43.7823 2.56 43.8783 2.56C44.5716 2.61333 45.2436 2.63466 45.8943 2.624C46.5556 2.60266 47.2276 2.544 47.9103 2.448C48.0383 2.42666 48.1663 2.4 48.2943 2.368C48.4223 2.336 48.4863 2.32 48.4863 2.32C48.5396 2.29866 48.5983 2.29866 48.6623 2.32C48.7903 2.352 48.9556 2.38933 49.1583 2.432C49.3609 2.47466 49.5049 2.50666 49.5903 2.528C49.6756 2.57066 49.7129 2.64 49.7023 2.736L49.4463 3.776C49.3289 4.18133 49.1583 4.66133 48.9343 5.216C48.7103 5.77066 48.3956 6.37866 47.9903 7.04C47.5956 7.69066 47.0783 8.384 46.4383 9.12C45.7983 9.84533 44.9983 10.592 44.0383 11.36C43.9636 11.4133 43.8836 11.4453 43.7983 11.456C43.7129 11.4667 43.6276 11.4347 43.5423 11.36Z" fill="black"/>
<path d="M62.0646 5.344C61.4673 5.35466 60.9286 5.28 60.4486 5.12C59.9686 4.96 59.59 4.70933 59.3126 4.368C59.046 4.02666 58.9126 3.6 58.9126 3.088C58.9126 2.39466 59.206 1.83466 59.7926 1.408C60.3793 0.970664 61.142 0.74133 62.0806 0.719997C63.0193 0.698664 63.782 0.874664 64.3686 1.248C64.9553 1.62133 65.2486 2.192 65.2486 2.96C65.2486 3.45066 65.11 3.872 64.8326 4.224C64.5553 4.576 64.1766 4.848 63.6966 5.04C63.2166 5.22133 62.6726 5.32266 62.0646 5.344ZM62.3846 14.96C62.054 14.9493 61.7926 14.848 61.6006 14.656C61.4086 14.464 61.3126 14.1387 61.3126 13.68V13.184C61.3126 12.8427 61.254 12.512 61.1366 12.192C61.1153 12.16 61.1206 12.1173 61.1526 12.064C61.1846 12.0107 61.238 11.9893 61.3126 12C61.526 12.0213 61.8406 12.0373 62.2566 12.048C62.6726 12.048 63.142 12.048 63.6646 12.048C64.1873 12.0373 64.71 12.0267 65.2326 12.016C65.766 11.9947 66.2566 11.9733 66.7046 11.952C67.1526 11.92 67.5046 11.888 67.7606 11.856L67.7766 10.816C67.7766 10.8053 67.7766 10.7893 67.7766 10.768C67.7766 10.7147 67.7713 10.6827 67.7606 10.672C67.75 10.6507 67.702 10.64 67.6166 10.64C67.382 10.64 67.0513 10.6453 66.6246 10.656C66.198 10.6667 65.7393 10.6827 65.2486 10.704C64.758 10.7147 64.294 10.7307 63.8566 10.752C63.4193 10.7627 63.062 10.7787 62.7846 10.8L61.5526 10.88C61.446 10.8907 61.3766 10.88 61.3446 10.848C61.3126 10.8053 61.286 10.7573 61.2646 10.704C61.254 10.6933 61.2486 10.6827 61.2486 10.672L61.1526 10.096C61.142 10.0747 61.1473 10.048 61.1686 10.016C61.19 9.984 61.2273 9.97333 61.2806 9.984C61.462 9.99466 61.7393 10.0053 62.1126 10.016C62.486 10.0267 62.9126 10.032 63.3926 10.032C63.8833 10.0213 64.39 10.0053 64.9126 9.984C65.446 9.96266 65.9526 9.936 66.4326 9.904C66.9233 9.872 67.35 9.82933 67.7126 9.776C67.734 9.776 67.7553 9.77067 67.7766 9.76C67.8513 9.74933 67.91 9.74933 67.9526 9.76L68.7686 9.888C68.822 9.89867 68.8486 9.92 68.8486 9.952C68.8593 9.97333 68.8646 9.99466 68.8646 10.016C68.8646 10.0267 68.8646 10.032 68.8646 10.032C68.8113 10.512 68.774 10.9333 68.7526 11.296C68.7313 11.648 68.7046 12.0213 68.6726 12.416C68.662 12.5333 68.63 12.608 68.5766 12.64C68.5233 12.6613 68.47 12.672 68.4166 12.672C68.0646 12.672 67.6273 12.6773 67.1046 12.688C66.5926 12.6987 66.0486 12.7093 65.4726 12.72C64.8966 12.7307 64.3313 12.7467 63.7766 12.768C63.2326 12.7787 62.7473 12.7893 62.3206 12.8V13.616C62.3206 13.8613 62.342 14.0053 62.3846 14.048C62.438 14.1013 62.5553 14.1333 62.7366 14.144C63.43 14.1547 64.15 14.1547 64.8966 14.144C65.654 14.1333 66.3793 14.1067 67.0726 14.064C67.51 14.0427 67.9046 14.0107 68.2566 13.968C68.6193 13.9147 68.9446 13.8613 69.2326 13.808C69.3393 13.7867 69.4086 13.792 69.4406 13.824C69.4726 13.856 69.494 13.8987 69.5046 13.952L69.6006 14.624C69.6113 14.6773 69.5953 14.7253 69.5526 14.768C69.51 14.8107 69.414 14.832 69.2646 14.832C68.134 14.832 66.966 14.848 65.7606 14.88C64.5553 14.912 63.43 14.9387 62.3846 14.96ZM67.7926 9.12C67.75 9.12 67.7286 9.09333 67.7286 9.04V8.416L66.4326 8.512L64.5286 8.704C64.422 8.71466 64.3526 8.70933 64.3206 8.688C64.2993 8.66666 64.278 8.62933 64.2566 8.576C64.246 8.56533 64.2406 8.55466 64.2406 8.544L64.1126 7.904C64.1126 7.88266 64.118 7.856 64.1286 7.824C64.1393 7.792 64.1713 7.78133 64.2246 7.792C64.3633 7.81333 64.5713 7.824 64.8486 7.824C65.126 7.824 65.4353 7.81866 65.7766 7.808C66.118 7.78666 66.4593 7.76533 66.8006 7.744C67.1526 7.72266 67.462 7.70133 67.7286 7.68V2.512C67.7286 2.10666 67.7126 1.73333 67.6806 1.392C67.6593 1.05066 67.622 0.826664 67.5686 0.719997C67.5473 0.666664 67.5473 0.629331 67.5686 0.607998C67.6006 0.575998 67.638 0.559998 67.6806 0.559998C67.7873 0.559998 67.942 0.559998 68.1446 0.559998C68.358 0.559998 68.55 0.565331 68.7206 0.575997C68.774 0.575997 68.8006 0.618664 68.8006 0.703998C68.7686 1.09866 68.7473 1.44533 68.7366 1.744C68.7366 2.032 68.7366 2.368 68.7366 2.752V8.72C68.7366 8.88 68.726 8.976 68.7046 9.008C68.694 9.04 68.662 9.06133 68.6086 9.072L67.7926 9.12ZM62.0806 4.608C62.678 4.58666 63.19 4.44266 63.6166 4.176C64.0433 3.90933 64.2566 3.504 64.2566 2.96C64.2566 2.42666 64.0486 2.032 63.6326 1.776C63.2166 1.52 62.694 1.40266 62.0646 1.424C61.446 1.44533 60.9286 1.6 60.5126 1.888C60.0966 2.176 59.8886 2.57066 59.8886 3.072C59.8886 3.57333 60.0966 3.96266 60.5126 4.24C60.9393 4.50666 61.462 4.62933 62.0806 4.608ZM60.2406 10.432L59.6806 10.304C59.6273 10.2827 59.6006 10.256 59.6006 10.224C59.6113 10.1813 59.6273 10.1493 59.6486 10.128C59.862 9.88266 60.0486 9.59466 60.2086 9.264C60.3793 8.93333 60.5233 8.59733 60.6406 8.256C60.758 7.904 60.8433 7.58933 60.8966 7.312C60.8646 7.312 60.8326 7.31733 60.8006 7.328C60.7686 7.328 60.7366 7.328 60.7046 7.328C60.1286 7.37066 59.574 7.408 59.0406 7.44C58.518 7.472 58.0806 7.504 57.7286 7.536C57.6113 7.54666 57.5366 7.54133 57.5046 7.52C57.4726 7.49866 57.4406 7.44 57.4086 7.344C57.366 7.22666 57.3286 7.12 57.2966 7.024C57.2753 6.91733 57.2433 6.77866 57.2006 6.608C57.19 6.58666 57.1953 6.56 57.2166 6.528C57.238 6.496 57.2753 6.48533 57.3286 6.496C57.542 6.528 57.942 6.54933 58.5286 6.56C59.1153 6.57066 59.7553 6.56533 60.4486 6.544C61.1206 6.512 61.8193 6.46933 62.5446 6.416C63.27 6.352 63.9686 6.272 64.6406 6.176C65.3126 6.06933 65.9046 5.95733 66.4166 5.84C66.502 5.81866 66.55 5.84533 66.5606 5.92L66.6406 6.32C66.662 6.416 66.6513 6.48533 66.6086 6.528C66.5766 6.56 66.5286 6.58666 66.4646 6.608C66.1553 6.68266 65.75 6.75733 65.2486 6.832C64.7473 6.90666 64.2086 6.976 63.6326 7.04C63.0566 7.104 62.4913 7.16266 61.9366 7.216C61.8406 7.76 61.686 8.304 61.4726 8.848C61.2593 9.38133 60.998 9.84 60.6886 10.224C60.6353 10.288 60.5713 10.3467 60.4966 10.4C60.4326 10.4427 60.3473 10.4533 60.2406 10.432Z" fill="black"/>
<path d="M76.8079 11.568L76.4239 11.216C76.3812 11.1733 76.3972 11.12 76.4719 11.056C77.0052 10.7787 77.5439 10.4213 78.0879 9.984C78.6425 9.536 79.1705 9.04 79.6719 8.496C80.1839 7.94133 80.6479 7.36533 81.0639 6.768C81.4799 6.17066 81.8212 5.57333 82.0879 4.976C82.3545 4.368 82.5199 3.792 82.5839 3.248C82.6052 3.13066 82.5572 3.072 82.4399 3.072L79.1439 3.264L77.4799 3.408C77.3732 3.41866 77.3039 3.408 77.2719 3.376C77.2399 3.33333 77.2132 3.28533 77.1919 3.232C77.1812 3.22133 77.1759 3.21066 77.1759 3.2C77.1332 3.08266 77.1012 2.98666 77.0799 2.912C77.0585 2.82666 77.0265 2.69333 76.9839 2.512C76.9732 2.49066 76.9786 2.464 76.9999 2.432C77.0212 2.4 77.0586 2.38933 77.1119 2.4C77.5812 2.44266 78.1199 2.464 78.7279 2.464C79.3359 2.45333 79.9439 2.432 80.5519 2.4C81.1705 2.35733 81.7146 2.30933 82.1839 2.256C82.3119 2.24533 82.4506 2.224 82.5999 2.192C82.7492 2.16 82.8239 2.144 82.8239 2.144C82.8772 2.12266 82.9359 2.12266 82.9999 2.144L83.8799 2.432C83.9652 2.47466 84.0025 2.544 83.9919 2.64L83.6239 3.824C83.4746 4.29333 83.2292 4.85333 82.8879 5.504C82.5572 6.15466 82.1305 6.84266 81.6079 7.568C81.0852 8.28266 80.4666 8.98667 79.7519 9.68C79.0372 10.3733 78.2266 11.0027 77.3199 11.568C77.2346 11.6213 77.1492 11.6533 77.0639 11.664C76.9785 11.6747 76.8932 11.6427 76.8079 11.568ZM86.3439 14.16C86.3012 14.16 86.2799 14.1333 86.2799 14.08V2.528C86.2799 2.12266 86.2639 1.74933 86.2319 1.408C86.2105 1.056 86.1732 0.826664 86.1199 0.719997C86.0985 0.666664 86.0985 0.629331 86.1199 0.607998C86.1519 0.575998 86.1892 0.559998 86.2319 0.559998C86.2959 0.559998 86.4025 0.565331 86.5519 0.575997C86.7119 0.575997 86.8666 0.581331 87.0159 0.591997C87.1652 0.591997 87.2505 0.591997 87.2719 0.591997C87.3252 0.591997 87.3519 0.634664 87.3519 0.719997C87.3199 1.11466 87.2985 1.46133 87.2879 1.76C87.2879 2.048 87.2879 2.384 87.2879 2.768V13.76C87.2879 13.92 87.2772 14.016 87.2559 14.048C87.2452 14.08 87.2132 14.1013 87.1599 14.112L86.3439 14.16Z" fill="black"/>
<path d="M93.0256 6.688C93.0256 6.688 93.0203 6.688 93.0096 6.688C92.9456 6.72 92.8603 6.74666 92.7536 6.768C92.647 6.77866 92.5563 6.72533 92.4816 6.608L92.1616 6.16C92.1296 6.10666 92.1243 6.07466 92.1456 6.064C92.1776 6.04266 92.2096 6.02666 92.2416 6.016C92.2523 6.016 92.2576 6.016 92.2576 6.016C92.9936 5.77066 93.6976 5.44533 94.3696 5.04C95.0416 4.63466 95.607 4.176 96.0656 3.664C96.535 3.14133 96.823 2.59733 96.9296 2.032L95.6816 2.08C95.511 2.09066 95.2656 2.10666 94.9456 2.128C94.6256 2.14933 94.3056 2.17066 93.9856 2.192C93.6763 2.20266 93.431 2.21866 93.2496 2.24C93.1323 2.26133 93.0576 2.25066 93.0256 2.208C92.9936 2.16533 92.9616 2.112 92.9296 2.048C92.9296 2.03733 92.9296 2.032 92.9296 2.032C92.887 1.91466 92.855 1.81333 92.8336 1.728C92.8123 1.64266 92.7803 1.50933 92.7376 1.328C92.727 1.30666 92.7323 1.28 92.7536 1.248C92.775 1.216 92.8123 1.20533 92.8656 1.216C93.1323 1.23733 93.5163 1.25866 94.0176 1.28C94.519 1.29066 95.0843 1.296 95.7136 1.296C96.343 1.28533 96.9883 1.26933 97.6496 1.248C98.3216 1.22666 98.9616 1.19466 99.5696 1.152C100.178 1.09866 100.7 1.03466 101.138 0.959997C101.17 0.949331 101.207 0.954664 101.25 0.975998C101.292 0.986664 101.319 1.01866 101.33 1.072C101.372 1.31733 101.404 1.57866 101.426 1.856C101.426 1.97333 101.362 2.032 101.234 2.032L99.2656 2.016H98.1616C98.0763 2.28266 97.9696 2.544 97.8416 2.8C97.7136 3.04533 97.575 3.28 97.4256 3.504C98.215 3.73866 98.983 4 99.7296 4.288C100.487 4.56533 101.138 4.83733 101.682 5.104C101.735 5.136 101.788 5.17866 101.842 5.232C101.906 5.28533 101.922 5.35466 101.89 5.44C101.836 5.55733 101.772 5.68533 101.698 5.824C101.634 5.952 101.559 6.08533 101.474 6.224C101.431 6.29866 101.378 6.30933 101.314 6.256C101.09 6.08533 100.796 5.89866 100.434 5.696C100.082 5.49333 99.6976 5.29066 99.2816 5.088C98.8763 4.87466 98.471 4.68266 98.0656 4.512C97.6603 4.34133 97.2923 4.208 96.9616 4.112C96.471 4.66666 95.8896 5.152 95.2176 5.568C94.5563 5.984 93.8256 6.35733 93.0256 6.688ZM97.0096 12.048C96.967 12.048 96.9456 12.0213 96.9456 11.968V8.656C96.679 8.66667 96.423 8.672 96.1776 8.672C95.943 8.672 95.7296 8.67733 95.5376 8.688C94.4603 8.72 93.4896 8.75733 92.6256 8.8C91.7616 8.84266 91.095 8.89067 90.6256 8.944C90.5083 8.95466 90.4283 8.944 90.3856 8.912C90.343 8.88 90.311 8.832 90.2896 8.768C90.247 8.65066 90.2096 8.53333 90.1776 8.416C90.1456 8.29866 90.1083 8.14933 90.0656 7.968C90.055 7.94666 90.0603 7.92 90.0816 7.888C90.103 7.84533 90.1403 7.82933 90.1936 7.84C90.599 7.89333 91.1536 7.936 91.8576 7.968C92.5616 7.98933 93.335 7.99466 94.1776 7.984C94.8283 7.984 95.5216 7.97866 96.2576 7.968C96.9936 7.94666 97.7243 7.92533 98.4496 7.904C99.1856 7.872 99.879 7.84 100.53 7.808C101.191 7.776 101.772 7.73866 102.274 7.696C102.786 7.65333 103.18 7.60533 103.458 7.552C103.564 7.53066 103.634 7.536 103.666 7.568C103.698 7.6 103.719 7.64266 103.73 7.696L103.826 8.4C103.836 8.54933 103.735 8.61866 103.522 8.608C103.191 8.58666 102.743 8.576 102.178 8.576C101.623 8.576 101.02 8.58133 100.37 8.592C99.975 8.592 99.5696 8.59733 99.1536 8.608C98.7483 8.608 98.3483 8.61333 97.9536 8.624V11.808C97.9536 11.9253 97.911 11.9893 97.8256 12L97.0096 12.048ZM94.5296 14.8C94.1563 14.8 93.8736 14.656 93.6816 14.368C93.4896 14.08 93.3936 13.7173 93.3936 13.28V12.256C93.3936 11.8827 93.3723 11.5733 93.3296 11.328C93.2976 11.0827 93.2656 10.9067 93.2336 10.8C93.2016 10.6933 93.239 10.64 93.3456 10.64C93.399 10.64 93.5003 10.6453 93.6496 10.656C93.8096 10.656 93.959 10.6613 94.0976 10.672C94.247 10.6827 94.3323 10.688 94.3536 10.688C94.407 10.6987 94.4336 10.752 94.4336 10.848C94.423 11.0933 94.4123 11.312 94.4016 11.504C94.4016 11.6853 94.4016 11.9147 94.4016 12.192V13.232C94.4016 13.5093 94.4336 13.7013 94.4976 13.808C94.5723 13.904 94.711 13.9573 94.9136 13.968C95.2123 13.9787 95.591 13.9893 96.0496 14C96.5083 14 96.983 13.9947 97.4736 13.984C97.975 13.9733 98.439 13.9573 98.8656 13.936C99.3136 13.9147 99.767 13.8827 100.226 13.84C100.695 13.7867 101.063 13.7333 101.33 13.68C101.436 13.6587 101.506 13.664 101.538 13.696C101.57 13.728 101.591 13.7707 101.602 13.824L101.73 14.544C101.74 14.6613 101.66 14.72 101.49 14.72C100.434 14.72 99.319 14.7307 98.1456 14.752C96.983 14.784 95.7776 14.8 94.5296 14.8Z" fill="black"/>
<path d="M21.5551 37.16C21.5125 37.16 21.4911 37.1333 21.4911 37.08V25.528C21.4911 25.1227 21.4751 24.7493 21.4431 24.408C21.4218 24.056 21.3845 23.8267 21.3311 23.72C21.3098 23.6667 21.3098 23.6293 21.3311 23.608C21.3631 23.576 21.4005 23.56 21.4431 23.56C21.5071 23.56 21.6138 23.5653 21.7631 23.576C21.9231 23.576 22.0778 23.5813 22.2271 23.592C22.3765 23.592 22.4618 23.592 22.4831 23.592C22.5365 23.592 22.5631 23.6347 22.5631 23.72C22.5311 24.1147 22.5098 24.4613 22.4991 24.76C22.4991 25.048 22.4991 25.384 22.4991 25.768V29.512C22.7871 29.512 23.0965 29.5013 23.4271 29.48C23.7685 29.448 24.0831 29.416 24.3711 29.384C24.6698 29.3413 24.8938 29.2987 25.0431 29.256C25.1391 29.2453 25.1925 29.2773 25.2031 29.352C25.2245 29.4907 25.2405 29.6293 25.2511 29.768C25.2618 29.9067 25.2725 30.0453 25.2831 30.184C25.2831 30.3013 25.2351 30.36 25.1391 30.36C24.9791 30.3387 24.7445 30.328 24.4351 30.328C24.1365 30.328 23.8165 30.328 23.4751 30.328C23.1338 30.328 22.8085 30.3333 22.4991 30.344V36.76C22.4991 36.92 22.4885 37.016 22.4671 37.048C22.4565 37.08 22.4245 37.1013 22.3711 37.112L21.5551 37.16ZM12.3391 34.568L11.9551 34.216C11.9125 34.1733 11.9285 34.12 12.0031 34.056C12.6751 33.704 13.3418 33.2293 14.0031 32.632C14.6751 32.0347 15.2938 31.3733 15.8591 30.648C16.4245 29.9227 16.8938 29.1813 17.2671 28.424C17.6405 27.656 17.8698 26.9307 17.9551 26.248C17.9765 26.1307 17.9285 26.072 17.8111 26.072L14.6751 26.264L13.0111 26.408C12.9045 26.4187 12.8351 26.408 12.8031 26.376C12.7711 26.3333 12.7445 26.2853 12.7231 26.232C12.7125 26.2213 12.7071 26.2107 12.7071 26.2C12.6645 26.0827 12.6325 25.9867 12.6111 25.912C12.5898 25.8267 12.5578 25.6933 12.5151 25.512C12.5045 25.4907 12.5098 25.464 12.5311 25.432C12.5525 25.4 12.5898 25.3893 12.6431 25.4C13.1125 25.4427 13.6351 25.464 14.2111 25.464C14.7978 25.4533 15.3845 25.432 15.9711 25.4C16.5578 25.3573 17.0858 25.3093 17.5551 25.256C17.6831 25.2453 17.8218 25.224 17.9711 25.192C18.1205 25.16 18.1951 25.144 18.1951 25.144C18.2485 25.1227 18.3071 25.1227 18.3711 25.144L19.2511 25.432C19.3365 25.4747 19.3738 25.544 19.3631 25.64L18.9951 26.824C18.8458 27.2933 18.6111 27.8533 18.2911 28.504C17.9711 29.1547 17.5605 29.8427 17.0591 30.568C16.5578 31.2827 15.9551 31.9867 15.2511 32.68C14.5578 33.3733 13.7578 34.0027 12.8511 34.568C12.7658 34.6213 12.6805 34.6533 12.5951 34.664C12.5098 34.6747 12.4245 34.6427 12.3391 34.568Z" fill="black"/>
<path d="M33.9256 38.36C33.2536 38.36 32.6563 38.2373 32.1336 37.992C31.6216 37.7573 31.2163 37.432 30.9176 37.016C30.6296 36.6 30.4856 36.12 30.4856 35.576C30.4856 35.0533 30.6456 34.5787 30.9656 34.152C31.2856 33.7253 31.7123 33.3893 32.2456 33.144C32.779 32.888 33.3603 32.76 33.9896 32.76C34.6296 32.76 35.211 32.8667 35.7336 33.08C36.267 33.2827 36.6883 33.592 36.9976 34.008C37.3176 34.4133 37.467 34.9147 37.4456 35.512C37.435 36.0667 37.2696 36.5573 36.9496 36.984C36.6403 37.4107 36.219 37.7467 35.6856 37.992C35.163 38.2373 34.5763 38.36 33.9256 38.36ZM26.8376 32.152L26.4376 31.8C26.395 31.7573 26.411 31.7093 26.4856 31.656C26.4963 31.6453 26.5016 31.64 26.5016 31.64C27.3123 31.128 28.0003 30.536 28.5656 29.864C29.131 29.192 29.563 28.4987 29.8616 27.784C30.171 27.0587 30.3363 26.3813 30.3576 25.752L29.1256 25.848C28.859 25.8693 28.619 25.896 28.4056 25.928C28.1923 25.96 27.9523 25.9867 27.6856 26.008C27.579 26.0187 27.5096 26.008 27.4776 25.976C27.4456 25.9333 27.419 25.8853 27.3976 25.832C27.387 25.8213 27.3816 25.8107 27.3816 25.8C27.339 25.6827 27.307 25.592 27.2856 25.528C27.275 25.4533 27.2483 25.3253 27.2056 25.144C27.195 25.1227 27.2003 25.096 27.2216 25.064C27.243 25.032 27.2803 25.016 27.3336 25.016C27.6323 25.0373 27.9256 25.0533 28.2136 25.064C28.5123 25.064 28.8483 25.0587 29.2216 25.048C29.6056 25.0373 29.931 25.0267 30.1976 25.016C30.475 25.0053 30.7416 24.9947 30.9976 24.984C31.2536 24.9627 31.547 24.9413 31.8776 24.92C32.3576 24.888 32.7843 24.8507 33.1576 24.808C33.5416 24.7547 33.8456 24.712 34.0696 24.68C34.1016 24.6693 34.139 24.6747 34.1816 24.696C34.2243 24.7067 34.251 24.7387 34.2616 24.792C34.2723 24.856 34.283 24.9307 34.2936 25.016C34.315 25.0907 34.331 25.1707 34.3416 25.256L34.3736 25.528C34.395 25.6453 34.331 25.704 34.1816 25.704H34.1656C33.835 25.6933 33.5096 25.688 33.1896 25.688C32.8696 25.6773 32.5496 25.6773 32.2296 25.688C32.123 25.688 32.011 25.6933 31.8936 25.704C31.7763 25.704 31.6483 25.704 31.5096 25.704C31.4883 26.0133 31.419 26.3707 31.3016 26.776C31.195 27.1813 31.0296 27.6187 30.8056 28.088C31.1256 28.28 31.467 28.4987 31.8296 28.744C32.203 28.9893 32.5656 29.2347 32.9176 29.48C33.2696 29.7147 33.579 29.9333 33.8456 30.136C34.123 30.3387 34.3203 30.4933 34.4376 30.6C34.4803 30.632 34.5176 30.6853 34.5496 30.76C34.5816 30.824 34.571 30.8933 34.5176 30.968C34.4643 31.0213 34.3683 31.128 34.2296 31.288C34.1016 31.4373 34.0003 31.544 33.9256 31.608C33.8403 31.6613 33.7763 31.6507 33.7336 31.576C33.5203 31.2987 33.2216 30.984 32.8376 30.632C32.4643 30.28 32.0643 29.9333 31.6376 29.592C31.211 29.2507 30.8216 28.9627 30.4696 28.728C30.1496 29.304 29.7336 29.88 29.2216 30.456C28.7203 31.032 28.091 31.592 27.3336 32.136C27.2803 32.1787 27.211 32.216 27.1256 32.248C27.0403 32.2693 26.9443 32.2373 26.8376 32.152ZM33.9576 37.528C34.6296 37.5067 35.195 37.3253 35.6536 36.984C36.123 36.6427 36.3683 36.1467 36.3896 35.496C36.411 35.0693 36.3096 34.712 36.0856 34.424C35.8723 34.136 35.579 33.9173 35.2056 33.768C34.843 33.608 34.4323 33.528 33.9736 33.528C33.5256 33.5387 33.115 33.6347 32.7416 33.816C32.3683 33.9867 32.0696 34.2213 31.8456 34.52C31.6216 34.8187 31.5096 35.1653 31.5096 35.56C31.5096 35.9653 31.6163 36.3173 31.8296 36.616C32.0536 36.904 32.3523 37.128 32.7256 37.288C33.099 37.448 33.5096 37.528 33.9576 37.528ZM36.3576 32.536C36.315 32.536 36.2936 32.5093 36.2936 32.456V25.512C36.2936 25.1067 36.2776 24.7333 36.2456 24.392C36.2243 24.0507 36.187 23.8267 36.1336 23.72C36.1123 23.6667 36.1123 23.6293 36.1336 23.608C36.1656 23.576 36.203 23.56 36.2456 23.56C36.363 23.56 36.523 23.56 36.7256 23.56C36.9283 23.56 37.115 23.5653 37.2856 23.576C37.339 23.576 37.3656 23.6187 37.3656 23.704C37.3336 24.0987 37.3123 24.4453 37.3016 24.744C37.3016 25.032 37.3016 25.368 37.3016 25.752V27.848C37.5896 27.848 37.9043 27.8373 38.2456 27.816C38.587 27.7947 38.9016 27.768 39.1896 27.736C39.4883 27.704 39.7123 27.6667 39.8616 27.624C39.9576 27.6133 40.011 27.6453 40.0216 27.72C40.043 27.8587 40.0536 27.9973 40.0536 28.136C40.0643 28.2747 40.075 28.4133 40.0856 28.552C40.0856 28.6693 40.0376 28.728 39.9416 28.728C39.7923 28.7067 39.563 28.696 39.2536 28.696C38.9443 28.6853 38.6136 28.68 38.2616 28.68C37.9203 28.68 37.6003 28.6907 37.3016 28.712V32.136C37.3016 32.296 37.291 32.392 37.2696 32.424C37.259 32.456 37.227 32.4773 37.1736 32.488L36.3576 32.536Z" fill="black"/>
<path d="M46.6215 32.984L46.2695 32.632C46.2268 32.5893 46.2428 32.536 46.3175 32.472C46.9682 32.1627 47.6135 31.7573 48.2535 31.256C48.9042 30.7547 49.5015 30.2 50.0455 29.592C50.5895 28.984 51.0428 28.3653 51.4055 27.736C51.7682 27.1067 51.9922 26.5093 52.0775 25.944C52.0882 25.8267 52.0455 25.768 51.9495 25.768L48.8135 25.96L47.2615 26.104C47.1548 26.1147 47.0855 26.104 47.0535 26.072C47.0215 26.0293 46.9948 25.9813 46.9735 25.928C46.9628 25.9173 46.9575 25.9067 46.9575 25.896C46.9148 25.7787 46.8828 25.6827 46.8615 25.608C46.8402 25.5227 46.8082 25.3893 46.7655 25.208C46.7548 25.1867 46.7602 25.16 46.7815 25.128C46.8028 25.096 46.8402 25.0853 46.8935 25.096C47.3628 25.1387 47.8695 25.16 48.4135 25.16C48.9575 25.1493 49.5015 25.128 50.0455 25.096C50.5895 25.0533 51.0962 25.0053 51.5655 24.952C51.6828 24.9307 51.8162 24.9093 51.9655 24.888C52.1148 24.856 52.1948 24.84 52.2055 24.84C52.2588 24.8187 52.3175 24.8187 52.3815 24.84C52.4668 24.8613 52.5788 24.904 52.7175 24.968C52.8562 25.0213 52.9842 25.0747 53.1015 25.128C53.2188 25.1813 53.2882 25.2133 53.3095 25.224C53.4162 25.2667 53.4535 25.336 53.4215 25.432C53.3468 25.656 53.2775 25.8533 53.2135 26.024C53.1495 26.184 53.0642 26.3867 52.9575 26.632C52.7868 27.0267 52.5468 27.4907 52.2375 28.024C51.9282 28.5467 51.5388 29.1013 51.0695 29.688C50.6002 30.2747 50.0402 30.8507 49.3895 31.416C48.7388 31.9813 47.9868 32.504 47.1335 32.984C47.0482 33.0373 46.9628 33.0693 46.8775 33.08C46.7922 33.0907 46.7068 33.0587 46.6215 32.984ZM56.1895 34.04C56.1468 34.04 56.1255 34.0133 56.1255 33.96V25.512C56.1255 25.1067 56.1095 24.7333 56.0775 24.392C56.0562 24.0507 56.0188 23.8267 55.9655 23.72C55.9442 23.6667 55.9442 23.6293 55.9655 23.608C55.9975 23.576 56.0348 23.56 56.0775 23.56C56.2268 23.56 56.4028 23.56 56.6055 23.56C56.8082 23.56 56.9788 23.5653 57.1175 23.576C57.1708 23.576 57.1975 23.6187 57.1975 23.704C57.1655 24.0987 57.1442 24.4453 57.1335 24.744C57.1335 25.032 57.1335 25.368 57.1335 25.752V33.64C57.1335 33.8 57.1228 33.896 57.1015 33.928C57.0908 33.96 57.0588 33.9813 57.0055 33.992L56.1895 34.04ZM50.9575 37.8C50.6162 37.8 50.3548 37.672 50.1735 37.416C50.0028 37.1707 49.9175 36.8187 49.9175 36.36V34.936C49.9175 34.5627 49.9015 34.2533 49.8695 34.008C49.8375 33.7627 49.8055 33.5867 49.7735 33.48C49.7415 33.3733 49.7788 33.32 49.8855 33.32C49.9495 33.32 50.0562 33.3253 50.2055 33.336C50.3655 33.336 50.5148 33.3413 50.6535 33.352C50.8028 33.3627 50.8828 33.368 50.8935 33.368C50.9468 33.368 50.9735 33.4213 50.9735 33.528C50.9522 33.7733 50.9362 33.992 50.9255 34.184C50.9255 34.3653 50.9255 34.5947 50.9255 34.872V36.264C50.9255 36.5307 50.9575 36.7173 51.0215 36.824C51.0962 36.92 51.2135 36.9733 51.3735 36.984C51.6722 36.9947 52.0348 37 52.4615 37C52.8988 37.0107 53.3522 37.0107 53.8215 37C54.3015 36.9787 54.7548 36.9573 55.1815 36.936C55.6295 36.9147 56.0935 36.8773 56.5735 36.824C57.0535 36.76 57.4215 36.696 57.6775 36.632C57.7842 36.6107 57.8535 36.616 57.8855 36.648C57.9175 36.68 57.9388 36.7227 57.9495 36.776L58.0775 37.528C58.0775 37.5813 58.0615 37.624 58.0295 37.656C58.0082 37.688 57.9228 37.704 57.7735 37.704C56.7175 37.704 55.6295 37.72 54.5095 37.752C53.3895 37.784 52.2055 37.8 50.9575 37.8Z" fill="black"/>
<path d="M67.5323 29.704C67.4683 29.7467 67.3883 29.768 67.2923 29.768C67.2069 29.7573 67.1216 29.6933 67.0363 29.576L66.7323 29.208C66.7003 29.1547 66.6949 29.1227 66.7163 29.112C66.7483 29.0907 66.7803 29.0747 66.8123 29.064C66.8229 29.064 66.8283 29.064 66.8283 29.064C68.1616 28.616 69.2443 28.0507 70.0763 27.368C70.9083 26.6853 71.4096 25.928 71.5803 25.096C71.3029 25.1067 71.0629 25.1173 70.8603 25.128C70.6576 25.128 70.5136 25.1333 70.4283 25.144C70.2576 25.1547 70.0016 25.176 69.6603 25.208C69.3296 25.2293 68.9936 25.2507 68.6523 25.272C68.3216 25.2933 68.0656 25.3147 67.8843 25.336C67.7669 25.3573 67.6923 25.3467 67.6603 25.304C67.6283 25.2613 67.5963 25.208 67.5643 25.144C67.5643 25.1333 67.5643 25.128 67.5643 25.128C67.5216 25.0107 67.4896 24.9093 67.4683 24.824C67.4469 24.7387 67.4149 24.6053 67.3723 24.424C67.3616 24.4027 67.3669 24.376 67.3883 24.344C67.4096 24.312 67.4469 24.3013 67.5003 24.312C67.7669 24.3333 68.1509 24.3493 68.6523 24.36C69.1643 24.3707 69.7403 24.376 70.3803 24.376C71.0309 24.3653 71.6923 24.3493 72.3643 24.328C73.0469 24.296 73.6923 24.2533 74.3003 24.2C74.9189 24.1467 75.4469 24.0827 75.8843 24.008C75.9163 23.9973 75.9536 24.0027 75.9963 24.024C76.0389 24.0347 76.0656 24.0667 76.0763 24.12C76.0869 24.184 76.0976 24.2587 76.1083 24.344C76.1296 24.4293 76.1456 24.5147 76.1563 24.6L76.1883 24.904C76.2096 25.0213 76.1456 25.08 75.9963 25.08L74.0283 25.064C73.8683 25.064 73.6709 25.064 73.4363 25.064C73.2123 25.064 72.9776 25.0693 72.7323 25.08C72.6043 25.56 72.4123 26.008 72.1563 26.424C73.0309 26.7547 73.8096 27.0533 74.4923 27.32C75.1856 27.5867 75.7936 27.8747 76.3163 28.184C76.3696 28.216 76.4229 28.264 76.4763 28.328C76.5296 28.3813 76.5403 28.4507 76.5083 28.536C76.4549 28.6533 76.3963 28.7813 76.3323 28.92C76.2683 29.048 76.1936 29.176 76.1083 29.304C76.0656 29.3787 76.0123 29.3893 75.9483 29.336C75.6069 29.0267 75.1856 28.728 74.6843 28.44C74.1936 28.1413 73.6869 27.8693 73.1643 27.624C72.6416 27.3787 72.1563 27.1813 71.7083 27.032C71.1963 27.64 70.5723 28.1573 69.8363 28.584C69.1109 29.0107 68.3429 29.384 67.5323 29.704ZM71.4683 37.192C71.4256 37.192 71.4043 37.1653 71.4043 37.112V31.848C70.1243 31.8693 68.9616 31.9067 67.9163 31.96C66.8709 32.0027 66.0496 32.0507 65.4523 32.104C65.3349 32.1147 65.2549 32.104 65.2123 32.072C65.1696 32.04 65.1376 31.992 65.1163 31.928C65.0736 31.8107 65.0363 31.6933 65.0043 31.576C64.9723 31.448 64.9349 31.2933 64.8923 31.112C64.8816 31.0907 64.8869 31.064 64.9083 31.032C64.9296 30.9893 64.9669 30.9733 65.0203 30.984C65.4256 31.0373 65.9749 31.0747 66.6683 31.096C67.3723 31.1067 68.1456 31.112 68.9883 31.112C69.8096 31.112 70.6736 31.1013 71.5803 31.08C72.4976 31.0587 73.3883 31.032 74.2523 31C75.1163 30.968 75.8843 30.9253 76.5563 30.872C77.2389 30.8187 77.7563 30.76 78.1083 30.696C78.2149 30.6747 78.2843 30.68 78.3163 30.712C78.3483 30.744 78.3696 30.7867 78.3803 30.84L78.4763 31.608C78.4763 31.6613 78.4603 31.7093 78.4283 31.752C78.3963 31.7947 78.3109 31.816 78.1723 31.816C77.8096 31.8053 77.3883 31.8 76.9083 31.8C76.4283 31.8 75.9163 31.8 75.3723 31.8C74.8709 31.8 74.3749 31.8053 73.8843 31.816C73.3936 31.816 72.9083 31.8213 72.4283 31.832V36.792C72.4283 36.952 72.4176 37.048 72.3963 37.08C72.3856 37.112 72.3536 37.1333 72.3003 37.144C72.2576 37.144 72.1776 37.144 72.0603 37.144C71.9429 37.1547 71.8256 37.1653 71.7083 37.176C71.5909 37.1867 71.5109 37.192 71.4683 37.192Z" fill="black"/>
<path d="M80.3391 34.568L79.9551 34.216C79.9125 34.1733 79.9285 34.12 80.0031 34.056C80.5365 33.7787 81.0751 33.4213 81.6191 32.984C82.1738 32.536 82.7018 32.04 83.2031 31.496C83.7151 30.9413 84.1791 30.3653 84.5951 29.768C85.0111 29.1707 85.3525 28.5733 85.6191 27.976C85.8858 27.368 86.0511 26.792 86.1151 26.248C86.1365 26.1307 86.0885 26.072 85.9711 26.072L82.6751 26.264L81.0111 26.408C80.9045 26.4187 80.8351 26.408 80.8031 26.376C80.7711 26.3333 80.7445 26.2853 80.7231 26.232C80.7125 26.2213 80.7071 26.2107 80.7071 26.2C80.6645 26.0827 80.6325 25.9867 80.6111 25.912C80.5898 25.8267 80.5578 25.6933 80.5151 25.512C80.5045 25.4907 80.5098 25.464 80.5311 25.432C80.5525 25.4 80.5898 25.3893 80.6431 25.4C81.1125 25.4427 81.6511 25.464 82.2591 25.464C82.8671 25.4533 83.4751 25.432 84.0831 25.4C84.7018 25.3573 85.2458 25.3093 85.7151 25.256C85.8431 25.2453 85.9818 25.224 86.1311 25.192C86.2805 25.16 86.3551 25.144 86.3551 25.144C86.4085 25.1227 86.4671 25.1227 86.5311 25.144L87.4111 25.432C87.4965 25.4747 87.5338 25.544 87.5231 25.64L87.1551 26.824C87.0058 27.2933 86.7605 27.8533 86.4191 28.504C86.0885 29.1547 85.6618 29.8427 85.1391 30.568C84.6165 31.2827 83.9978 31.9867 83.2831 32.68C82.5685 33.3733 81.7578 34.0027 80.8511 34.568C80.7658 34.6213 80.6805 34.6533 80.5951 34.664C80.5098 34.6747 80.4245 34.6427 80.3391 34.568ZM89.8751 37.16C89.8325 37.16 89.8111 37.1333 89.8111 37.08V25.528C89.8111 25.1227 89.7951 24.7493 89.7631 24.408C89.7418 24.056 89.7045 23.8267 89.6511 23.72C89.6298 23.6667 89.6298 23.6293 89.6511 23.608C89.6831 23.576 89.7205 23.56 89.7631 23.56C89.8271 23.56 89.9338 23.5653 90.0831 23.576C90.2431 23.576 90.3978 23.5813 90.5471 23.592C90.6965 23.592 90.7818 23.592 90.8031 23.592C90.8565 23.592 90.8831 23.6347 90.8831 23.72C90.8511 24.1147 90.8298 24.4613 90.8191 24.76C90.8191 25.048 90.8191 25.384 90.8191 25.768V36.76C90.8191 36.92 90.8085 37.016 90.7871 37.048C90.7765 37.08 90.7445 37.1013 90.6911 37.112L89.8751 37.16Z" fill="black"/>
</svg>
