<svg width="104" height="39" viewBox="0 0 104 39" fill="none" xmlns="http://www.w3.org/2000/svg">
<path d="M1.59901 8.608C1.52434 8.64 1.44967 8.66133 1.37501 8.672C1.30034 8.672 1.20967 8.624 1.10301 8.528L0.751007 8.192C0.729674 8.13866 0.745674 8.096 0.799007 8.064C0.820341 8.05333 0.836341 8.04266 0.847008 8.032C1.67901 7.65866 2.35634 7.248 2.87901 6.8C3.40167 6.352 3.80167 5.89866 4.07901 5.44C4.35634 4.98133 4.53767 4.54933 4.62301 4.144C4.40967 4.15466 4.20167 4.16533 3.99901 4.176C3.80701 4.176 3.63634 4.18666 3.48701 4.208L1.74301 4.352C1.63634 4.36266 1.56701 4.352 1.53501 4.32C1.50301 4.27733 1.47634 4.22933 1.45501 4.176C1.44434 4.16533 1.43901 4.15466 1.43901 4.144C1.39634 4.02666 1.36967 3.936 1.35901 3.872C1.34834 3.79733 1.31634 3.67466 1.26301 3.504C1.25234 3.48266 1.25234 3.456 1.26301 3.424C1.28434 3.392 1.32167 3.376 1.37501 3.376C1.67367 3.39733 1.95634 3.41333 2.22301 3.424C2.50034 3.43466 2.89501 3.44 3.40701 3.44C3.95101 3.41866 4.53767 3.39733 5.16701 3.376C5.79634 3.35466 6.40434 3.32266 6.99101 3.28C7.57767 3.22666 8.07367 3.168 8.47901 3.104C8.51101 3.09333 8.54834 3.09866 8.59101 3.12C8.63367 3.13066 8.66034 3.16266 8.67101 3.216L8.73501 3.664C8.74567 3.70666 8.75101 3.74933 8.75101 3.792C8.75101 3.83466 8.75101 3.87733 8.75101 3.92C8.77234 4.03733 8.70834 4.096 8.55901 4.096C8.35634 4.08533 8.11634 4.08 7.83901 4.08C7.56167 4.08 7.31634 4.08 7.10301 4.08C6.92167 4.08 6.71367 4.08533 6.47901 4.096C6.24434 4.096 6.00434 4.10133 5.75901 4.112C5.70567 4.31466 5.63634 4.52266 5.55101 4.736C5.46567 4.93866 5.36434 5.14666 5.24701 5.36C5.95101 5.70133 6.60167 6.032 7.19901 6.352C7.80701 6.66133 8.29767 6.93866 8.67101 7.184C8.72434 7.22666 8.77234 7.28 8.81501 7.344C8.86834 7.39733 8.87901 7.46133 8.84701 7.536C8.79367 7.65333 8.72434 7.76533 8.63901 7.872C8.56434 7.97866 8.48434 8.09066 8.39901 8.208C8.33501 8.28266 8.28167 8.288 8.23901 8.224C7.72701 7.75466 7.18301 7.33333 6.60701 6.96C6.04167 6.576 5.46567 6.23466 4.87901 5.936C4.53767 6.39466 4.10034 6.85333 3.56701 7.312C3.04434 7.76 2.38834 8.192 1.59901 8.608ZM10.527 14.16C10.4843 14.16 10.463 14.1333 10.463 14.08V2.528C10.463 2.12266 10.447 1.74933 10.415 1.408C10.3937 1.056 10.3563 0.826664 10.303 0.719997C10.2817 0.666664 10.2817 0.629331 10.303 0.607998C10.335 0.575998 10.3723 0.559998 10.415 0.559998C10.479 0.559998 10.5857 0.565331 10.735 0.575997C10.895 0.575997 11.0497 0.581331 11.199 0.591997C11.3483 0.591997 11.4337 0.591997 11.455 0.591997C11.5083 0.591997 11.535 0.634664 11.535 0.719997C11.503 1.11466 11.4817 1.46133 11.471 1.76C11.471 2.048 11.471 2.384 11.471 2.768V13.76C11.471 13.92 11.4603 14.016 11.439 14.048C11.4283 14.08 11.3963 14.1013 11.343 14.112L10.527 14.16ZM0.543007 11.344C0.425674 11.3547 0.351007 11.3493 0.319007 11.328C0.287007 11.3067 0.255007 11.248 0.223007 11.152C0.180341 11.0347 0.143007 10.928 0.111007 10.832C0.0896741 10.7253 0.0576741 10.5813 0.0150074 10.4C0.00434074 10.3787 0.00967406 10.352 0.0310074 10.32C0.0523407 10.288 0.0896741 10.2773 0.143007 10.288C0.356341 10.3307 0.751007 10.352 1.32701 10.352C1.91367 10.352 2.55367 10.3413 3.24701 10.32C3.43901 10.3093 3.64701 10.2987 3.87101 10.288C4.09501 10.2773 4.32967 10.2667 4.57501 10.256V9.648C4.57501 9.232 4.55901 8.89066 4.52701 8.624C4.49501 8.35733 4.45767 8.17066 4.41501 8.064C4.37234 7.95733 4.40967 7.904 4.52701 7.904H5.48701C5.55101 7.904 5.58301 7.94666 5.58301 8.032C5.58301 8.04266 5.58301 8.05333 5.58301 8.064C5.56167 8.34133 5.55101 8.58666 5.55101 8.8C5.55101 9.01333 5.54034 9.25866 5.51901 9.536L5.48701 10.192C6.22301 10.128 6.96967 10.0427 7.72701 9.936C8.49501 9.81866 9.15634 9.68 9.71101 9.52C9.78568 9.488 9.83368 9.51466 9.85501 9.6L9.93501 10.048C9.95634 10.144 9.94568 10.208 9.90301 10.24C9.87101 10.272 9.82301 10.2987 9.75901 10.32C9.57767 10.3733 9.30034 10.4373 8.92701 10.512C8.56434 10.576 8.14301 10.6453 7.66301 10.72C7.19367 10.784 6.70301 10.848 6.19101 10.912C5.68967 10.9653 5.20434 11.0133 4.73501 11.056C4.26567 11.0987 3.85501 11.1307 3.50301 11.152C2.92701 11.184 2.37767 11.216 1.85501 11.248C1.33234 11.28 0.895007 11.312 0.543007 11.344ZM4.73501 2.208C4.58567 2.18666 4.38301 2.16 4.12701 2.128C3.87101 2.096 3.62034 2.048 3.37501 1.984C3.12967 1.92 2.93234 1.82933 2.78301 1.712C2.74034 1.68 2.72967 1.616 2.75101 1.52C2.77234 1.41333 2.80967 1.31733 2.86301 1.232C2.91634 1.136 2.96967 1.09866 3.02301 1.12C3.48167 1.20533 3.98301 1.264 4.52701 1.296C5.07101 1.31733 5.58834 1.32266 6.07901 1.312C6.56967 1.29066 6.96434 1.26933 7.26301 1.248C7.34834 1.23733 7.40167 1.24266 7.42301 1.264C7.44434 1.27466 7.46034 1.30666 7.47101 1.36C7.47101 1.37066 7.47101 1.38666 7.47101 1.408C7.47101 1.504 7.46567 1.63733 7.45501 1.808C7.44434 1.968 7.40701 2.05866 7.34301 2.08C7.26834 2.10133 7.09234 2.128 6.81501 2.16C6.53767 2.192 6.21234 2.21333 5.83901 2.224C5.46567 2.23466 5.09767 2.22933 4.73501 2.208Z" fill="black"/>
<path d="M14.8131 8.464C14.6958 8.47466 14.6158 8.464 14.5731 8.432C14.5305 8.4 14.4985 8.352 14.4771 8.288C14.4345 8.17066 14.3971 8.05333 14.3651 7.936C14.3331 7.81866 14.2958 7.66933 14.2531 7.488C14.2425 7.46666 14.2478 7.44 14.2691 7.408C14.2905 7.36533 14.3278 7.34933 14.3811 7.36C14.7865 7.41333 15.3411 7.456 16.0451 7.488C16.7491 7.50933 17.5225 7.51466 18.3651 7.504C19.0158 7.504 19.7091 7.49866 20.4451 7.488C21.1811 7.46666 21.9118 7.44533 22.6371 7.424C23.3731 7.392 24.0665 7.36 24.7171 7.328C25.3785 7.296 25.9598 7.25866 26.4611 7.216C26.9731 7.17333 27.3678 7.12533 27.6451 7.072C27.7518 7.05066 27.8211 7.056 27.8531 7.088C27.8851 7.12 27.9065 7.16266 27.9171 7.216L28.0131 7.92C28.0238 8.06933 27.9225 8.13866 27.7091 8.128C27.3785 8.10666 26.9305 8.096 26.3651 8.096C25.8105 8.096 25.2078 8.10133 24.5571 8.112C23.9811 8.112 23.3891 8.12266 22.7811 8.144C22.1838 8.15466 21.6185 8.16533 21.0851 8.176C20.5625 8.18666 20.1091 8.19733 19.7251 8.208C18.6478 8.24 17.6771 8.27733 16.8131 8.32C15.9491 8.36266 15.2825 8.41066 14.8131 8.464ZM23.6771 6.16C23.5811 6.16 23.5491 6.10666 23.5811 6C23.6665 5.70133 23.7571 5.31733 23.8531 4.848C23.9598 4.368 24.0558 3.87733 24.1411 3.376C24.2265 2.87466 24.2798 2.44266 24.3011 2.08C24.3118 1.96266 24.2585 1.904 24.1411 1.904C23.9065 1.904 23.5865 1.90933 23.1811 1.92C22.7865 1.93066 22.3598 1.94133 21.9011 1.952C21.4531 1.96266 21.0265 1.97333 20.6211 1.984C20.2265 1.99466 19.9171 2.00533 19.6931 2.016C19.5225 2.016 19.3038 2.02666 19.0371 2.048C18.7705 2.06933 18.5038 2.09066 18.2371 2.112C17.9705 2.13333 17.7518 2.15466 17.5811 2.176C17.4638 2.18666 17.3891 2.18133 17.3571 2.16C17.3251 2.128 17.2931 2.06933 17.2611 1.984C17.2611 1.97333 17.2611 1.968 17.2611 1.968C17.2291 1.88266 17.1971 1.78666 17.1651 1.68C17.1331 1.57333 17.0958 1.44533 17.0531 1.296C17.0425 1.27466 17.0478 1.248 17.0691 1.216C17.0905 1.184 17.1278 1.17333 17.1811 1.184C17.4798 1.20533 17.8745 1.22133 18.3651 1.232C18.8558 1.24266 19.3891 1.24266 19.9651 1.232C20.5411 1.22133 21.1118 1.20533 21.6771 1.184C22.2425 1.16266 22.7545 1.136 23.2131 1.104C23.6718 1.06133 24.0238 1.01333 24.2691 0.959997C24.3545 0.938664 24.4398 0.938664 24.5251 0.959997L25.4211 1.152C25.5171 1.16266 25.5545 1.22133 25.5331 1.328C25.5011 1.488 25.4585 1.70133 25.4051 1.968C25.3518 2.224 25.3091 2.44266 25.2771 2.624C25.2131 2.99733 25.1385 3.392 25.0531 3.808C24.9678 4.21333 24.8878 4.58666 24.8131 4.928C24.7385 5.25866 24.6745 5.504 24.6211 5.664C24.5785 5.81333 24.5358 5.92533 24.4931 6C24.4611 6.064 24.3865 6.10133 24.2691 6.112L23.6771 6.16ZM18.7971 14.8C18.4238 14.8 18.1411 14.656 17.9491 14.368C17.7571 14.08 17.6611 13.7173 17.6611 13.28V11.936C17.6611 11.5627 17.6398 11.2533 17.5971 11.008C17.5651 10.7627 17.5331 10.5867 17.5011 10.48C17.4691 10.3733 17.5065 10.32 17.6131 10.32C17.6665 10.32 17.7678 10.3253 17.9171 10.336C18.0771 10.336 18.2265 10.3413 18.3651 10.352C18.5145 10.3627 18.5998 10.368 18.6211 10.368C18.6745 10.3787 18.7011 10.432 18.7011 10.528C18.6905 10.7733 18.6798 10.992 18.6691 11.184C18.6691 11.3653 18.6691 11.5947 18.6691 11.872V13.232C18.6691 13.5093 18.7011 13.7013 18.7651 13.808C18.8398 13.904 18.9785 13.9573 19.1811 13.968C19.4798 13.9787 19.8585 13.9893 20.3171 14C20.7758 14 21.2505 13.9947 21.7411 13.984C22.2425 13.9733 22.7065 13.9573 23.1331 13.936C23.5811 13.9147 24.0345 13.8827 24.4931 13.84C24.9625 13.7867 25.3305 13.7333 25.5971 13.68C25.7038 13.6587 25.7731 13.664 25.8051 13.696C25.8371 13.728 25.8585 13.7707 25.8691 13.824L25.9971 14.544C26.0078 14.6613 25.9278 14.72 25.7571 14.72C24.7011 14.72 23.5865 14.7307 22.4131 14.752C21.2505 14.784 20.0451 14.8 18.7971 14.8Z" fill="black"/>
<path d="M35.6216 7.344C35.9523 6.84266 36.3523 6.448 36.8216 6.16C37.3016 5.872 37.8563 5.728 38.4856 5.728C39.1683 5.728 39.7443 5.88266 40.2136 6.192C40.6936 6.50133 41.0563 6.91733 41.3016 7.44C41.5576 7.96266 41.6856 8.544 41.6856 9.184C41.6963 9.93067 41.547 10.5867 41.2376 11.152C40.939 11.7067 40.523 12.144 39.9896 12.464C39.467 12.784 38.875 12.9493 38.2136 12.96C37.5416 12.9707 36.9283 12.8 36.3736 12.448C35.8296 12.0853 35.3923 11.5413 35.0616 10.816C34.7416 10.08 34.5763 9.15733 34.5656 8.048C34.5656 7.23733 34.6563 6.43733 34.8376 5.648C35.0296 4.848 35.323 4.128 35.7176 3.488C36.1123 2.83733 36.6136 2.32 37.2216 1.936C37.8403 1.552 38.5763 1.36 39.4296 1.36C39.6963 1.36 39.963 1.38666 40.2296 1.44C40.4963 1.48266 40.7576 1.568 41.0136 1.696C41.067 1.728 41.083 1.77066 41.0616 1.824L40.7736 2.496C40.7523 2.56 40.7043 2.576 40.6296 2.544C40.427 2.42666 40.219 2.34666 40.0056 2.304C39.7923 2.26133 39.579 2.24 39.3656 2.24C38.651 2.24 38.0216 2.45866 37.4776 2.896C36.9336 3.33333 36.5016 3.936 36.1816 4.704C35.8723 5.472 35.6856 6.352 35.6216 7.344ZM35.6376 8.768C35.7336 9.86666 36.0056 10.6933 36.4536 11.248C36.9016 11.792 37.4776 12.064 38.1816 12.064C38.6936 12.064 39.131 11.936 39.4936 11.68C39.867 11.4133 40.155 11.0613 40.3576 10.624C40.5603 10.176 40.6563 9.68 40.6456 9.136C40.635 8.32533 40.4163 7.712 39.9896 7.296C39.563 6.86933 39.0243 6.656 38.3736 6.656C37.7656 6.656 37.2216 6.83733 36.7416 7.2C36.2723 7.552 35.9043 8.07466 35.6376 8.768Z" fill="black"/>
<path d="M53.7823 14.16C53.7396 14.16 53.7183 14.1333 53.7183 14.08V7.056C53.3876 7.056 53.0463 7.06133 52.6943 7.072C52.3423 7.072 52.0383 7.08266 51.7823 7.104V13.344C51.7823 13.4933 51.7716 13.5893 51.7503 13.632C51.7396 13.664 51.7076 13.6853 51.6543 13.696C51.5903 13.7067 51.4569 13.7173 51.2543 13.728C51.0623 13.7387 50.9396 13.744 50.8863 13.744C50.8436 13.744 50.8223 13.7173 50.8223 13.664V2.928C50.8223 2.52266 50.8116 2.14933 50.7903 1.808C50.7689 1.46666 50.7316 1.24266 50.6783 1.136C50.6569 1.08266 50.6569 1.04533 50.6783 1.024C50.7103 0.991998 50.7476 0.975998 50.7903 0.975998L51.7343 0.991998C51.7876 1.01333 51.8143 1.056 51.8143 1.12C51.7929 1.42933 51.7823 1.70666 51.7823 1.952C51.7823 2.19733 51.7823 2.45333 51.7823 2.72C51.7823 2.784 51.7823 2.85333 51.7823 2.928C51.7823 3.00266 51.7823 3.08266 51.7823 3.168V6.192C51.8356 6.192 51.8889 6.192 51.9423 6.192C51.9956 6.192 52.0489 6.192 52.1023 6.192C52.3476 6.192 52.6089 6.192 52.8863 6.192C53.1743 6.192 53.4516 6.18133 53.7183 6.16V2.512C53.7183 2.10666 53.7076 1.73333 53.6863 1.392C53.6756 1.05066 53.6436 0.826664 53.5903 0.719997C53.5689 0.666664 53.5689 0.629331 53.5903 0.607998C53.6223 0.575998 53.6596 0.559998 53.7023 0.559998L54.6463 0.575997C54.6996 0.597331 54.7263 0.639998 54.7263 0.703998C54.7049 1.024 54.6889 1.312 54.6783 1.568C54.6783 1.824 54.6783 2.09066 54.6783 2.368C54.6783 2.432 54.6783 2.496 54.6783 2.56C54.6783 2.624 54.6783 2.688 54.6783 2.752V13.76C54.6783 13.92 54.6676 14.016 54.6463 14.048C54.6356 14.08 54.6036 14.1013 54.5503 14.112C54.5183 14.112 54.4436 14.112 54.3263 14.112C54.2196 14.1227 54.1129 14.1333 54.0063 14.144C53.8996 14.1547 53.8249 14.16 53.7823 14.16ZM43.5423 11.36L43.1583 11.04C43.1476 11.0293 43.1369 11.0187 43.1263 11.008C43.1263 10.976 43.1529 10.9387 43.2063 10.896C43.9956 10.3733 44.7049 9.78133 45.3343 9.12C45.9636 8.45866 46.5023 7.78133 46.9503 7.088C47.3983 6.39466 47.7449 5.728 47.9903 5.088C48.2463 4.448 48.3849 3.88266 48.4063 3.392C48.4063 3.27466 48.3583 3.216 48.2623 3.216C47.9636 3.22666 47.6436 3.24266 47.3023 3.264C46.9609 3.27466 46.5449 3.30133 46.0543 3.344C45.5743 3.376 44.9663 3.42933 44.2303 3.504C44.1236 3.51466 44.0543 3.504 44.0223 3.472C44.0009 3.44 43.9796 3.39733 43.9583 3.344C43.9476 3.32266 43.9423 3.30666 43.9423 3.296C43.8996 3.17866 43.8676 3.088 43.8463 3.024C43.8356 2.96 43.8036 2.84266 43.7503 2.672C43.7396 2.59733 43.7823 2.56 43.8783 2.56C44.5716 2.61333 45.2436 2.63466 45.8943 2.624C46.5556 2.60266 47.2276 2.544 47.9103 2.448C48.0383 2.42666 48.1663 2.4 48.2943 2.368C48.4223 2.336 48.4863 2.32 48.4863 2.32C48.5396 2.29866 48.5983 2.29866 48.6623 2.32C48.7903 2.352 48.9556 2.38933 49.1583 2.432C49.3609 2.47466 49.5049 2.50666 49.5903 2.528C49.6756 2.57066 49.7129 2.64 49.7023 2.736L49.4463 3.776C49.3289 4.18133 49.1583 4.66133 48.9343 5.216C48.7103 5.77066 48.3956 6.37866 47.9903 7.04C47.5956 7.69066 47.0783 8.384 46.4383 9.12C45.7983 9.84533 44.9983 10.592 44.0383 11.36C43.9636 11.4133 43.8836 11.4453 43.7983 11.456C43.7129 11.4667 43.6276 11.4347 43.5423 11.36Z" fill="black"/>
<path d="M62.0646 5.344C61.4673 5.35466 60.9286 5.28 60.4486 5.12C59.9686 4.96 59.59 4.70933 59.3126 4.368C59.046 4.02666 58.9126 3.6 58.9126 3.088C58.9126 2.39466 59.206 1.83466 59.7926 1.408C60.3793 0.970664 61.142 0.74133 62.0806 0.719997C63.0193 0.698664 63.782 0.874664 64.3686 1.248C64.9553 1.62133 65.2486 2.192 65.2486 2.96C65.2486 3.45066 65.11 3.872 64.8326 4.224C64.5553 4.576 64.1766 4.848 63.6966 5.04C63.2166 5.22133 62.6726 5.32266 62.0646 5.344ZM62.3846 14.96C62.054 14.9493 61.7926 14.848 61.6006 14.656C61.4086 14.464 61.3126 14.1387 61.3126 13.68V13.184C61.3126 12.8427 61.254 12.512 61.1366 12.192C61.1153 12.16 61.1206 12.1173 61.1526 12.064C61.1846 12.0107 61.238 11.9893 61.3126 12C61.526 12.0213 61.8406 12.0373 62.2566 12.048C62.6726 12.048 63.142 12.048 63.6646 12.048C64.1873 12.0373 64.71 12.0267 65.2326 12.016C65.766 11.9947 66.2566 11.9733 66.7046 11.952C67.1526 11.92 67.5046 11.888 67.7606 11.856L67.7766 10.816C67.7766 10.8053 67.7766 10.7893 67.7766 10.768C67.7766 10.7147 67.7713 10.6827 67.7606 10.672C67.75 10.6507 67.702 10.64 67.6166 10.64C67.382 10.64 67.0513 10.6453 66.6246 10.656C66.198 10.6667 65.7393 10.6827 65.2486 10.704C64.758 10.7147 64.294 10.7307 63.8566 10.752C63.4193 10.7627 63.062 10.7787 62.7846 10.8L61.5526 10.88C61.446 10.8907 61.3766 10.88 61.3446 10.848C61.3126 10.8053 61.286 10.7573 61.2646 10.704C61.254 10.6933 61.2486 10.6827 61.2486 10.672L61.1526 10.096C61.142 10.0747 61.1473 10.048 61.1686 10.016C61.19 9.984 61.2273 9.97333 61.2806 9.984C61.462 9.99466 61.7393 10.0053 62.1126 10.016C62.486 10.0267 62.9126 10.032 63.3926 10.032C63.8833 10.0213 64.39 10.0053 64.9126 9.984C65.446 9.96266 65.9526 9.936 66.4326 9.904C66.9233 9.872 67.35 9.82933 67.7126 9.776C67.734 9.776 67.7553 9.77067 67.7766 9.76C67.8513 9.74933 67.91 9.74933 67.9526 9.76L68.7686 9.888C68.822 9.89867 68.8486 9.92 68.8486 9.952C68.8593 9.97333 68.8646 9.99466 68.8646 10.016C68.8646 10.0267 68.8646 10.032 68.8646 10.032C68.8113 10.512 68.774 10.9333 68.7526 11.296C68.7313 11.648 68.7046 12.0213 68.6726 12.416C68.662 12.5333 68.63 12.608 68.5766 12.64C68.5233 12.6613 68.47 12.672 68.4166 12.672C68.0646 12.672 67.6273 12.6773 67.1046 12.688C66.5926 12.6987 66.0486 12.7093 65.4726 12.72C64.8966 12.7307 64.3313 12.7467 63.7766 12.768C63.2326 12.7787 62.7473 12.7893 62.3206 12.8V13.616C62.3206 13.8613 62.342 14.0053 62.3846 14.048C62.438 14.1013 62.5553 14.1333 62.7366 14.144C63.43 14.1547 64.15 14.1547 64.8966 14.144C65.654 14.1333 66.3793 14.1067 67.0726 14.064C67.51 14.0427 67.9046 14.0107 68.2566 13.968C68.6193 13.9147 68.9446 13.8613 69.2326 13.808C69.3393 13.7867 69.4086 13.792 69.4406 13.824C69.4726 13.856 69.494 13.8987 69.5046 13.952L69.6006 14.624C69.6113 14.6773 69.5953 14.7253 69.5526 14.768C69.51 14.8107 69.414 14.832 69.2646 14.832C68.134 14.832 66.966 14.848 65.7606 14.88C64.5553 14.912 63.43 14.9387 62.3846 14.96ZM67.7926 9.12C67.75 9.12 67.7286 9.09333 67.7286 9.04V8.416L66.4326 8.512L64.5286 8.704C64.422 8.71466 64.3526 8.70933 64.3206 8.688C64.2993 8.66666 64.278 8.62933 64.2566 8.576C64.246 8.56533 64.2406 8.55466 64.2406 8.544L64.1126 7.904C64.1126 7.88266 64.118 7.856 64.1286 7.824C64.1393 7.792 64.1713 7.78133 64.2246 7.792C64.3633 7.81333 64.5713 7.824 64.8486 7.824C65.126 7.824 65.4353 7.81866 65.7766 7.808C66.118 7.78666 66.4593 7.76533 66.8006 7.744C67.1526 7.72266 67.462 7.70133 67.7286 7.68V2.512C67.7286 2.10666 67.7126 1.73333 67.6806 1.392C67.6593 1.05066 67.622 0.826664 67.5686 0.719997C67.5473 0.666664 67.5473 0.629331 67.5686 0.607998C67.6006 0.575998 67.638 0.559998 67.6806 0.559998C67.7873 0.559998 67.942 0.559998 68.1446 0.559998C68.358 0.559998 68.55 0.565331 68.7206 0.575997C68.774 0.575997 68.8006 0.618664 68.8006 0.703998C68.7686 1.09866 68.7473 1.44533 68.7366 1.744C68.7366 2.032 68.7366 2.368 68.7366 2.752V8.72C68.7366 8.88 68.726 8.976 68.7046 9.008C68.694 9.04 68.662 9.06133 68.6086 9.072L67.7926 9.12ZM62.0806 4.608C62.678 4.58666 63.19 4.44266 63.6166 4.176C64.0433 3.90933 64.2566 3.504 64.2566 2.96C64.2566 2.42666 64.0486 2.032 63.6326 1.776C63.2166 1.52 62.694 1.40266 62.0646 1.424C61.446 1.44533 60.9286 1.6 60.5126 1.888C60.0966 2.176 59.8886 2.57066 59.8886 3.072C59.8886 3.57333 60.0966 3.96266 60.5126 4.24C60.9393 4.50666 61.462 4.62933 62.0806 4.608ZM60.2406 10.432L59.6806 10.304C59.6273 10.2827 59.6006 10.256 59.6006 10.224C59.6113 10.1813 59.6273 10.1493 59.6486 10.128C59.862 9.88266 60.0486 9.59466 60.2086 9.264C60.3793 8.93333 60.5233 8.59733 60.6406 8.256C60.758 7.904 60.8433 7.58933 60.8966 7.312C60.8646 7.312 60.8326 7.31733 60.8006 7.328C60.7686 7.328 60.7366 7.328 60.7046 7.328C60.1286 7.37066 59.574 7.408 59.0406 7.44C58.518 7.472 58.0806 7.504 57.7286 7.536C57.6113 7.54666 57.5366 7.54133 57.5046 7.52C57.4726 7.49866 57.4406 7.44 57.4086 7.344C57.366 7.22666 57.3286 7.12 57.2966 7.024C57.2753 6.91733 57.2433 6.77866 57.2006 6.608C57.19 6.58666 57.1953 6.56 57.2166 6.528C57.238 6.496 57.2753 6.48533 57.3286 6.496C57.542 6.528 57.942 6.54933 58.5286 6.56C59.1153 6.57066 59.7553 6.56533 60.4486 6.544C61.1206 6.512 61.8193 6.46933 62.5446 6.416C63.27 6.352 63.9686 6.272 64.6406 6.176C65.3126 6.06933 65.9046 5.95733 66.4166 5.84C66.502 5.81866 66.55 5.84533 66.5606 5.92L66.6406 6.32C66.662 6.416 66.6513 6.48533 66.6086 6.528C66.5766 6.56 66.5286 6.58666 66.4646 6.608C66.1553 6.68266 65.75 6.75733 65.2486 6.832C64.7473 6.90666 64.2086 6.976 63.6326 7.04C63.0566 7.104 62.4913 7.16266 61.9366 7.216C61.8406 7.76 61.686 8.304 61.4726 8.848C61.2593 9.38133 60.998 9.84 60.6886 10.224C60.6353 10.288 60.5713 10.3467 60.4966 10.4C60.4326 10.4427 60.3473 10.4533 60.2406 10.432Z" fill="black"/>
<path d="M76.8079 11.568L76.4239 11.216C76.3812 11.1733 76.3972 11.12 76.4719 11.056C77.0052 10.7787 77.5439 10.4213 78.0879 9.984C78.6425 9.536 79.1705 9.04 79.6719 8.496C80.1839 7.94133 80.6479 7.36533 81.0639 6.768C81.4799 6.17066 81.8212 5.57333 82.0879 4.976C82.3545 4.368 82.5199 3.792 82.5839 3.248C82.6052 3.13066 82.5572 3.072 82.4399 3.072L79.1439 3.264L77.4799 3.408C77.3732 3.41866 77.3039 3.408 77.2719 3.376C77.2399 3.33333 77.2132 3.28533 77.1919 3.232C77.1812 3.22133 77.1759 3.21066 77.1759 3.2C77.1332 3.08266 77.1012 2.98666 77.0799 2.912C77.0585 2.82666 77.0265 2.69333 76.9839 2.512C76.9732 2.49066 76.9786 2.464 76.9999 2.432C77.0212 2.4 77.0586 2.38933 77.1119 2.4C77.5812 2.44266 78.1199 2.464 78.7279 2.464C79.3359 2.45333 79.9439 2.432 80.5519 2.4C81.1705 2.35733 81.7146 2.30933 82.1839 2.256C82.3119 2.24533 82.4506 2.224 82.5999 2.192C82.7492 2.16 82.8239 2.144 82.8239 2.144C82.8772 2.12266 82.9359 2.12266 82.9999 2.144L83.8799 2.432C83.9652 2.47466 84.0025 2.544 83.9919 2.64L83.6239 3.824C83.4746 4.29333 83.2292 4.85333 82.8879 5.504C82.5572 6.15466 82.1305 6.84266 81.6079 7.568C81.0852 8.28266 80.4666 8.98667 79.7519 9.68C79.0372 10.3733 78.2266 11.0027 77.3199 11.568C77.2346 11.6213 77.1492 11.6533 77.0639 11.664C76.9785 11.6747 76.8932 11.6427 76.8079 11.568ZM86.3439 14.16C86.3012 14.16 86.2799 14.1333 86.2799 14.08V2.528C86.2799 2.12266 86.2639 1.74933 86.2319 1.408C86.2105 1.056 86.1732 0.826664 86.1199 0.719997C86.0985 0.666664 86.0985 0.629331 86.1199 0.607998C86.1519 0.575998 86.1892 0.559998 86.2319 0.559998C86.2959 0.559998 86.4025 0.565331 86.5519 0.575997C86.7119 0.575997 86.8666 0.581331 87.0159 0.591997C87.1652 0.591997 87.2505 0.591997 87.2719 0.591997C87.3252 0.591997 87.3519 0.634664 87.3519 0.719997C87.3199 1.11466 87.2985 1.46133 87.2879 1.76C87.2879 2.048 87.2879 2.384 87.2879 2.768V13.76C87.2879 13.92 87.2772 14.016 87.2559 14.048C87.2452 14.08 87.2132 14.1013 87.1599 14.112L86.3439 14.16Z" fill="black"/>
<path d="M93.0256 6.688C93.0256 6.688 93.0203 6.688 93.0096 6.688C92.9456 6.72 92.8603 6.74666 92.7536 6.768C92.647 6.77866 92.5563 6.72533 92.4816 6.608L92.1616 6.16C92.1296 6.10666 92.1243 6.07466 92.1456 6.064C92.1776 6.04266 92.2096 6.02666 92.2416 6.016C92.2523 6.016 92.2576 6.016 92.2576 6.016C92.9936 5.77066 93.6976 5.44533 94.3696 5.04C95.0416 4.63466 95.607 4.176 96.0656 3.664C96.535 3.14133 96.823 2.59733 96.9296 2.032L95.6816 2.08C95.511 2.09066 95.2656 2.10666 94.9456 2.128C94.6256 2.14933 94.3056 2.17066 93.9856 2.192C93.6763 2.20266 93.431 2.21866 93.2496 2.24C93.1323 2.26133 93.0576 2.25066 93.0256 2.208C92.9936 2.16533 92.9616 2.112 92.9296 2.048C92.9296 2.03733 92.9296 2.032 92.9296 2.032C92.887 1.91466 92.855 1.81333 92.8336 1.728C92.8123 1.64266 92.7803 1.50933 92.7376 1.328C92.727 1.30666 92.7323 1.28 92.7536 1.248C92.775 1.216 92.8123 1.20533 92.8656 1.216C93.1323 1.23733 93.5163 1.25866 94.0176 1.28C94.519 1.29066 95.0843 1.296 95.7136 1.296C96.343 1.28533 96.9883 1.26933 97.6496 1.248C98.3216 1.22666 98.9616 1.19466 99.5696 1.152C100.178 1.09866 100.7 1.03466 101.138 0.959997C101.17 0.949331 101.207 0.954664 101.25 0.975998C101.292 0.986664 101.319 1.01866 101.33 1.072C101.372 1.31733 101.404 1.57866 101.426 1.856C101.426 1.97333 101.362 2.032 101.234 2.032L99.2656 2.016H98.1616C98.0763 2.28266 97.9696 2.544 97.8416 2.8C97.7136 3.04533 97.575 3.28 97.4256 3.504C98.215 3.73866 98.983 4 99.7296 4.288C100.487 4.56533 101.138 4.83733 101.682 5.104C101.735 5.136 101.788 5.17866 101.842 5.232C101.906 5.28533 101.922 5.35466 101.89 5.44C101.836 5.55733 101.772 5.68533 101.698 5.824C101.634 5.952 101.559 6.08533 101.474 6.224C101.431 6.29866 101.378 6.30933 101.314 6.256C101.09 6.08533 100.796 5.89866 100.434 5.696C100.082 5.49333 99.6976 5.29066 99.2816 5.088C98.8763 4.87466 98.471 4.68266 98.0656 4.512C97.6603 4.34133 97.2923 4.208 96.9616 4.112C96.471 4.66666 95.8896 5.152 95.2176 5.568C94.5563 5.984 93.8256 6.35733 93.0256 6.688ZM97.0096 12.048C96.967 12.048 96.9456 12.0213 96.9456 11.968V8.656C96.679 8.66667 96.423 8.672 96.1776 8.672C95.943 8.672 95.7296 8.67733 95.5376 8.688C94.4603 8.72 93.4896 8.75733 92.6256 8.8C91.7616 8.84266 91.095 8.89067 90.6256 8.944C90.5083 8.95466 90.4283 8.944 90.3856 8.912C90.343 8.88 90.311 8.832 90.2896 8.768C90.247 8.65066 90.2096 8.53333 90.1776 8.416C90.1456 8.29866 90.1083 8.14933 90.0656 7.968C90.055 7.94666 90.0603 7.92 90.0816 7.888C90.103 7.84533 90.1403 7.82933 90.1936 7.84C90.599 7.89333 91.1536 7.936 91.8576 7.968C92.5616 7.98933 93.335 7.99466 94.1776 7.984C94.8283 7.984 95.5216 7.97866 96.2576 7.968C96.9936 7.94666 97.7243 7.92533 98.4496 7.904C99.1856 7.872 99.879 7.84 100.53 7.808C101.191 7.776 101.772 7.73866 102.274 7.696C102.786 7.65333 103.18 7.60533 103.458 7.552C103.564 7.53066 103.634 7.536 103.666 7.568C103.698 7.6 103.719 7.64266 103.73 7.696L103.826 8.4C103.836 8.54933 103.735 8.61866 103.522 8.608C103.191 8.58666 102.743 8.576 102.178 8.576C101.623 8.576 101.02 8.58133 100.37 8.592C99.975 8.592 99.5696 8.59733 99.1536 8.608C98.7483 8.608 98.3483 8.61333 97.9536 8.624V11.808C97.9536 11.9253 97.911 11.9893 97.8256 12L97.0096 12.048ZM94.5296 14.8C94.1563 14.8 93.8736 14.656 93.6816 14.368C93.4896 14.08 93.3936 13.7173 93.3936 13.28V12.256C93.3936 11.8827 93.3723 11.5733 93.3296 11.328C93.2976 11.0827 93.2656 10.9067 93.2336 10.8C93.2016 10.6933 93.239 10.64 93.3456 10.64C93.399 10.64 93.5003 10.6453 93.6496 10.656C93.8096 10.656 93.959 10.6613 94.0976 10.672C94.247 10.6827 94.3323 10.688 94.3536 10.688C94.407 10.6987 94.4336 10.752 94.4336 10.848C94.423 11.0933 94.4123 11.312 94.4016 11.504C94.4016 11.6853 94.4016 11.9147 94.4016 12.192V13.232C94.4016 13.5093 94.4336 13.7013 94.4976 13.808C94.5723 13.904 94.711 13.9573 94.9136 13.968C95.2123 13.9787 95.591 13.9893 96.0496 14C96.5083 14 96.983 13.9947 97.4736 13.984C97.975 13.9733 98.439 13.9573 98.8656 13.936C99.3136 13.9147 99.767 13.8827 100.226 13.84C100.695 13.7867 101.063 13.7333 101.33 13.68C101.436 13.6587 101.506 13.664 101.538 13.696C101.57 13.728 101.591 13.7707 101.602 13.824L101.73 14.544C101.74 14.6613 101.66 14.72 101.49 14.72C100.434 14.72 99.319 14.7307 98.1456 14.752C96.983 14.784 95.7776 14.8 94.5296 14.8Z" fill="black"/>
<path d="M13.3208 37.16C13.2781 37.16 13.2568 37.1333 13.2568 37.08V25.528C13.2568 25.1227 13.2408 24.7493 13.2088 24.408C13.1874 24.056 13.1501 23.8267 13.0968 23.72C13.0754 23.6667 13.0754 23.6293 13.0968 23.608C13.1288 23.576 13.1661 23.56 13.2088 23.56C13.2728 23.56 13.3794 23.5653 13.5288 23.576C13.6888 23.576 13.8434 23.5813 13.9928 23.592C14.1421 23.592 14.2274 23.592 14.2488 23.592C14.3021 23.592 14.3288 23.6347 14.3288 23.72C14.2968 24.1147 14.2754 24.4613 14.2648 24.76C14.2648 25.048 14.2648 25.384 14.2648 25.768V29.512C14.5528 29.512 14.8621 29.5013 15.1928 29.48C15.5341 29.448 15.8488 29.416 16.1368 29.384C16.4354 29.3413 16.6594 29.2987 16.8088 29.256C16.9048 29.2453 16.9581 29.2773 16.9688 29.352C16.9901 29.4907 17.0061 29.6293 17.0168 29.768C17.0274 29.9067 17.0381 30.0453 17.0488 30.184C17.0488 30.3013 17.0008 30.36 16.9048 30.36C16.7448 30.3387 16.5101 30.328 16.2008 30.328C15.9021 30.328 15.5821 30.328 15.2408 30.328C14.8994 30.328 14.5741 30.3333 14.2648 30.344V36.76C14.2648 36.92 14.2541 37.016 14.2328 37.048C14.2221 37.08 14.1901 37.1013 14.1368 37.112L13.3208 37.16ZM4.10476 34.568L3.72076 34.216C3.67809 34.1733 3.69409 34.12 3.76876 34.056C4.44076 33.704 5.10742 33.2293 5.76876 32.632C6.44076 32.0347 7.05942 31.3733 7.62476 30.648C8.19009 29.9227 8.65942 29.1813 9.03276 28.424C9.40609 27.656 9.63542 26.9307 9.72076 26.248C9.74209 26.1307 9.69409 26.072 9.57676 26.072L6.44076 26.264L4.77676 26.408C4.67009 26.4187 4.60076 26.408 4.56876 26.376C4.53676 26.3333 4.51009 26.2853 4.48876 26.232C4.47809 26.2213 4.47276 26.2107 4.47276 26.2C4.43009 26.0827 4.39809 25.9867 4.37676 25.912C4.35542 25.8267 4.32342 25.6933 4.28076 25.512C4.27009 25.4907 4.27542 25.464 4.29676 25.432C4.31809 25.4 4.35542 25.3893 4.40876 25.4C4.87809 25.4427 5.40076 25.464 5.97676 25.464C6.56342 25.4533 7.15009 25.432 7.73676 25.4C8.32342 25.3573 8.85142 25.3093 9.32076 25.256C9.44876 25.2453 9.58742 25.224 9.73676 25.192C9.88609 25.16 9.96076 25.144 9.96076 25.144C10.0141 25.1227 10.0728 25.1227 10.1368 25.144L11.0168 25.432C11.1021 25.4747 11.1394 25.544 11.1288 25.64L10.7608 26.824C10.6114 27.2933 10.3768 27.8533 10.0568 28.504C9.73676 29.1547 9.32609 29.8427 8.82476 30.568C8.32342 31.2827 7.72076 31.9867 7.01676 32.68C6.32342 33.3733 5.52342 34.0027 4.61676 34.568C4.53142 34.6213 4.44609 34.6533 4.36076 34.664C4.27542 34.6747 4.19009 34.6427 4.10476 34.568Z" fill="black"/>
<path d="M25.6913 38.36C25.0193 38.36 24.4219 38.2373 23.8993 37.992C23.3873 37.7573 22.9819 37.432 22.6833 37.016C22.3953 36.6 22.2513 36.12 22.2513 35.576C22.2513 35.0533 22.4113 34.5787 22.7313 34.152C23.0513 33.7253 23.4779 33.3893 24.0113 33.144C24.5446 32.888 25.1259 32.76 25.7553 32.76C26.3953 32.76 26.9766 32.8667 27.4993 33.08C28.0326 33.2827 28.4539 33.592 28.7633 34.008C29.0833 34.4133 29.2326 34.9147 29.2113 35.512C29.2006 36.0667 29.0353 36.5573 28.7153 36.984C28.4059 37.4107 27.9846 37.7467 27.4513 37.992C26.9286 38.2373 26.3419 38.36 25.6913 38.36ZM18.6033 32.152L18.2033 31.8C18.1606 31.7573 18.1766 31.7093 18.2513 31.656C18.2619 31.6453 18.2673 31.64 18.2673 31.64C19.0779 31.128 19.7659 30.536 20.3313 29.864C20.8966 29.192 21.3286 28.4987 21.6273 27.784C21.9366 27.0587 22.1019 26.3813 22.1233 25.752L20.8913 25.848C20.6246 25.8693 20.3846 25.896 20.1713 25.928C19.9579 25.96 19.7179 25.9867 19.4513 26.008C19.3446 26.0187 19.2753 26.008 19.2433 25.976C19.2113 25.9333 19.1846 25.8853 19.1633 25.832C19.1526 25.8213 19.1473 25.8107 19.1473 25.8C19.1046 25.6827 19.0726 25.592 19.0513 25.528C19.0406 25.4533 19.0139 25.3253 18.9713 25.144C18.9606 25.1227 18.9659 25.096 18.9873 25.064C19.0086 25.032 19.0459 25.016 19.0993 25.016C19.3979 25.0373 19.6913 25.0533 19.9793 25.064C20.2779 25.064 20.6139 25.0587 20.9873 25.048C21.3713 25.0373 21.6966 25.0267 21.9633 25.016C22.2406 25.0053 22.5073 24.9947 22.7633 24.984C23.0193 24.9627 23.3126 24.9413 23.6433 24.92C24.1233 24.888 24.5499 24.8507 24.9233 24.808C25.3073 24.7547 25.6113 24.712 25.8353 24.68C25.8673 24.6693 25.9046 24.6747 25.9473 24.696C25.9899 24.7067 26.0166 24.7387 26.0273 24.792C26.0379 24.856 26.0486 24.9307 26.0593 25.016C26.0806 25.0907 26.0966 25.1707 26.1073 25.256L26.1393 25.528C26.1606 25.6453 26.0966 25.704 25.9473 25.704H25.9313C25.6006 25.6933 25.2753 25.688 24.9553 25.688C24.6353 25.6773 24.3153 25.6773 23.9953 25.688C23.8886 25.688 23.7766 25.6933 23.6593 25.704C23.5419 25.704 23.4139 25.704 23.2753 25.704C23.2539 26.0133 23.1846 26.3707 23.0673 26.776C22.9606 27.1813 22.7953 27.6187 22.5713 28.088C22.8913 28.28 23.2326 28.4987 23.5953 28.744C23.9686 28.9893 24.3313 29.2347 24.6833 29.48C25.0353 29.7147 25.3446 29.9333 25.6113 30.136C25.8886 30.3387 26.0859 30.4933 26.2033 30.6C26.2459 30.632 26.2833 30.6853 26.3153 30.76C26.3473 30.824 26.3366 30.8933 26.2833 30.968C26.2299 31.0213 26.1339 31.128 25.9953 31.288C25.8673 31.4373 25.7659 31.544 25.6913 31.608C25.6059 31.6613 25.5419 31.6507 25.4993 31.576C25.2859 31.2987 24.9873 30.984 24.6033 30.632C24.2299 30.28 23.8299 29.9333 23.4033 29.592C22.9766 29.2507 22.5873 28.9627 22.2353 28.728C21.9153 29.304 21.4993 29.88 20.9873 30.456C20.4859 31.032 19.8566 31.592 19.0993 32.136C19.0459 32.1787 18.9766 32.216 18.8913 32.248C18.8059 32.2693 18.7099 32.2373 18.6033 32.152ZM25.7233 37.528C26.3953 37.5067 26.9606 37.3253 27.4193 36.984C27.8886 36.6427 28.1339 36.1467 28.1553 35.496C28.1766 35.0693 28.0753 34.712 27.8513 34.424C27.6379 34.136 27.3446 33.9173 26.9713 33.768C26.6086 33.608 26.1979 33.528 25.7393 33.528C25.2913 33.5387 24.8806 33.6347 24.5073 33.816C24.1339 33.9867 23.8353 34.2213 23.6113 34.52C23.3873 34.8187 23.2753 35.1653 23.2753 35.56C23.2753 35.9653 23.3819 36.3173 23.5953 36.616C23.8193 36.904 24.1179 37.128 24.4913 37.288C24.8646 37.448 25.2753 37.528 25.7233 37.528ZM28.1233 32.536C28.0806 32.536 28.0593 32.5093 28.0593 32.456V25.512C28.0593 25.1067 28.0433 24.7333 28.0113 24.392C27.9899 24.0507 27.9526 23.8267 27.8993 23.72C27.8779 23.6667 27.8779 23.6293 27.8993 23.608C27.9313 23.576 27.9686 23.56 28.0113 23.56C28.1286 23.56 28.2886 23.56 28.4913 23.56C28.6939 23.56 28.8806 23.5653 29.0513 23.576C29.1046 23.576 29.1313 23.6187 29.1313 23.704C29.0993 24.0987 29.0779 24.4453 29.0673 24.744C29.0673 25.032 29.0673 25.368 29.0673 25.752V27.848C29.3553 27.848 29.6699 27.8373 30.0113 27.816C30.3526 27.7947 30.6673 27.768 30.9553 27.736C31.2539 27.704 31.4779 27.6667 31.6273 27.624C31.7233 27.6133 31.7766 27.6453 31.7873 27.72C31.8086 27.8587 31.8193 27.9973 31.8193 28.136C31.8299 28.2747 31.8406 28.4133 31.8513 28.552C31.8513 28.6693 31.8033 28.728 31.7073 28.728C31.5579 28.7067 31.3286 28.696 31.0193 28.696C30.7099 28.6853 30.3793 28.68 30.0273 28.68C29.6859 28.68 29.3659 28.6907 29.0673 28.712V32.136C29.0673 32.296 29.0566 32.392 29.0353 32.424C29.0246 32.456 28.9926 32.4773 28.9393 32.488L28.1233 32.536Z" fill="black"/>
<path d="M44.9151 37.944C44.8938 37.944 44.8671 37.9387 44.8351 37.928C44.8031 37.9173 44.7871 37.8853 44.7871 37.832C44.7871 37.7893 44.7871 37.7307 44.7871 37.656C44.7871 37.592 44.7871 37.512 44.7871 37.416C44.7871 37.128 44.7871 36.7707 44.7871 36.344C44.7871 35.9173 44.7871 35.4907 44.7871 35.064C44.7871 34.6373 44.7818 34.28 44.7711 33.992C44.7605 33.7467 44.7391 33.4853 44.7071 33.208C44.6751 32.9307 44.6431 32.7387 44.6111 32.632C44.5791 32.5253 44.6165 32.472 44.7231 32.472H45.6031C45.6671 32.472 45.6991 32.5253 45.6991 32.632C45.6885 32.9093 45.6831 33.1493 45.6831 33.352C45.6831 33.544 45.6831 33.7627 45.6831 34.008V34.312C45.8751 34.312 46.1205 34.312 46.4191 34.312C46.7178 34.312 47.0271 34.3067 47.3471 34.296C47.6778 34.2747 47.9658 34.2533 48.2111 34.232V34.056C48.2111 33.6827 48.2058 33.3573 48.1951 33.08C48.1845 32.8027 48.1525 32.6053 48.0991 32.488C48.0778 32.4347 48.0778 32.3973 48.0991 32.376C48.1311 32.344 48.1685 32.328 48.2111 32.328H49.1071C49.1818 32.328 49.2138 32.3813 49.2031 32.488C49.1818 32.68 49.1711 32.8667 49.1711 33.048C49.1711 33.2293 49.1711 33.4373 49.1711 33.672C49.1711 33.7253 49.1711 33.7893 49.1711 33.864C49.1711 33.928 49.1711 33.9973 49.1711 34.072V37.656C49.1711 37.7093 49.1445 37.7573 49.0911 37.8C49.0378 37.8427 48.9845 37.864 48.9311 37.864C48.3125 37.864 47.7311 37.8693 47.1871 37.88C46.6431 37.8907 46.1578 37.896 45.7311 37.896C45.6671 37.896 45.5711 37.896 45.4431 37.896C45.3151 37.9067 45.1978 37.9173 45.0911 37.928C44.9951 37.9387 44.9365 37.944 44.9151 37.944ZM40.2431 38.12C40.0618 38.0987 39.9125 37.976 39.7951 37.752C39.6885 37.5387 39.6351 37.2613 39.6351 36.92V35.736C39.6351 35.5013 39.5765 35.24 39.4591 34.952C39.4378 34.9093 39.4431 34.8667 39.4751 34.824C39.5071 34.7707 39.5605 34.7493 39.6351 34.76C39.7525 34.7707 39.9711 34.7813 40.2911 34.792C40.6218 34.8027 41.0058 34.8027 41.4431 34.792C41.8805 34.7707 42.3125 34.7387 42.7391 34.696L42.8351 33.416C42.8351 33.4053 42.8351 33.3947 42.8351 33.384C42.8458 33.3307 42.8405 33.2933 42.8191 33.272C42.8085 33.2507 42.7605 33.24 42.6751 33.24C42.3978 33.2507 42.1365 33.2613 41.8911 33.272C41.6565 33.2827 41.3845 33.2987 41.0751 33.32L39.8431 33.432C39.7258 33.4427 39.6511 33.432 39.6191 33.4C39.5871 33.3573 39.5605 33.2987 39.5391 33.224L39.4431 32.648C39.4325 32.6267 39.4378 32.6 39.4591 32.568C39.4805 32.536 39.5178 32.5253 39.5711 32.536C39.8698 32.5787 40.2111 32.6 40.5951 32.6C40.9791 32.6 41.3631 32.584 41.7471 32.552C42.1311 32.52 42.4778 32.4827 42.7871 32.44C42.8085 32.44 42.8298 32.4347 42.8511 32.424C42.9258 32.4133 42.9845 32.4133 43.0271 32.424L43.7471 32.536C43.8111 32.5467 43.8431 32.5947 43.8431 32.68C43.7898 33.1493 43.7471 33.5707 43.7151 33.944C43.6831 34.3067 43.6511 34.7227 43.6191 35.192C43.6085 35.3093 43.5765 35.384 43.5231 35.416C43.4698 35.4373 43.4165 35.448 43.3631 35.448C42.9045 35.448 42.4191 35.464 41.9071 35.496C41.4058 35.5173 40.9685 35.5333 40.5951 35.544V36.52C40.5951 36.7227 40.6058 36.888 40.6271 37.016C40.6485 37.144 40.7178 37.2133 40.8351 37.224C41.0805 37.2347 41.4058 37.2187 41.8111 37.176C42.2165 37.1333 42.6378 37.064 43.0751 36.968C43.5125 36.872 43.8858 36.744 44.1951 36.584C44.2805 36.5307 44.3338 36.5573 44.3551 36.664L44.4351 37.096C44.4565 37.224 44.4031 37.3147 44.2751 37.368C44.0511 37.4747 43.7631 37.576 43.4111 37.672C43.0591 37.768 42.6805 37.848 42.2751 37.912C41.8805 37.9867 41.5018 38.04 41.1391 38.072C40.7871 38.1147 40.4885 38.1307 40.2431 38.12ZM41.7151 31.528L41.3151 31.24C41.2511 31.1973 41.2511 31.144 41.3151 31.08C42.3178 30.1627 43.0431 29.24 43.4911 28.312C43.9498 27.3733 44.1898 26.4827 44.2111 25.64C43.9871 25.6613 43.7845 25.6773 43.6031 25.688C43.4325 25.6987 43.2831 25.7147 43.1551 25.736C43.0485 25.7573 42.9791 25.752 42.9471 25.72C42.9151 25.6773 42.8885 25.624 42.8671 25.56C42.8565 25.5493 42.8511 25.5387 42.8511 25.528C42.8085 25.4107 42.7765 25.32 42.7551 25.256C42.7445 25.192 42.7178 25.0747 42.6751 24.904C42.6645 24.8293 42.7071 24.792 42.8031 24.792C43.3365 24.8133 43.8858 24.8133 44.4511 24.792C45.0271 24.7707 45.6938 24.7013 46.4511 24.584C46.4831 24.5733 46.5205 24.5787 46.5631 24.6C46.6058 24.6107 46.6325 24.6427 46.6431 24.696L46.7711 25.4C46.7925 25.5173 46.7285 25.576 46.5791 25.576C46.4725 25.5653 46.3125 25.5653 46.0991 25.576C45.8858 25.576 45.6458 25.5813 45.3791 25.592C45.3151 25.592 45.2671 25.592 45.2351 25.592C45.2031 25.9333 45.1391 26.2907 45.0431 26.664C44.9578 27.0267 44.8245 27.432 44.6431 27.88C44.9845 28.1787 45.3098 28.4667 45.6191 28.744C45.9391 29.0213 46.2111 29.2667 46.4351 29.48C46.6698 29.6933 46.8245 29.8533 46.8991 29.96C46.9525 30.0453 46.9845 30.12 46.9951 30.184C47.0058 30.2373 46.9791 30.296 46.9151 30.36C46.8725 30.4027 46.7818 30.488 46.6431 30.616C46.5151 30.7333 46.4085 30.8133 46.3231 30.856C46.2591 30.888 46.2058 30.8773 46.1631 30.824C45.6938 30.0133 45.0858 29.2453 44.3391 28.52C44.0938 28.9893 43.8005 29.4693 43.4591 29.96C43.1178 30.44 42.6911 30.936 42.1791 31.448C42.1258 31.5013 42.0618 31.544 41.9871 31.576C41.9231 31.608 41.8325 31.592 41.7151 31.528ZM47.9551 31.576C47.9125 31.576 47.8911 31.5493 47.8911 31.496V25.512C47.8911 25.1067 47.8751 24.7333 47.8431 24.392C47.8218 24.0507 47.7845 23.8267 47.7311 23.72C47.7098 23.6667 47.7098 23.6293 47.7311 23.608C47.7631 23.576 47.8005 23.56 47.8431 23.56C47.9391 23.56 48.0885 23.56 48.2911 23.56C48.5045 23.56 48.7018 23.5653 48.8831 23.576C48.9365 23.576 48.9631 23.6187 48.9631 23.704C48.9311 24.0987 48.9098 24.4453 48.8991 24.744C48.8991 25.032 48.8991 25.368 48.8991 25.752V27.832C49.1871 27.832 49.4965 27.8213 49.8271 27.8C50.1685 27.768 50.4831 27.736 50.7711 27.704C51.0698 27.6613 51.2938 27.6187 51.4431 27.576C51.5391 27.5653 51.5925 27.5973 51.6031 27.672C51.6245 27.8107 51.6405 27.9493 51.6511 28.088C51.6618 28.2267 51.6725 28.3653 51.6831 28.504C51.6831 28.6213 51.6351 28.68 51.5391 28.68C51.3898 28.6587 51.1605 28.648 50.8511 28.648C50.5418 28.6373 50.2111 28.632 49.8591 28.632C49.5178 28.632 49.1978 28.6427 48.8991 28.664V31.176C48.8991 31.336 48.8885 31.432 48.8671 31.464C48.8565 31.496 48.8245 31.5173 48.7711 31.528L47.9551 31.576ZM38.0991 30.504C38.0458 30.472 37.9818 30.4293 37.9071 30.376C37.8325 30.3227 37.7685 30.2747 37.7151 30.232C37.6725 30.1893 37.6618 30.152 37.6831 30.12C37.7045 30.088 37.7258 30.0613 37.7471 30.04C38.2591 29.656 38.7071 29.2187 39.0911 28.728C39.4751 28.2373 39.7791 27.7307 40.0031 27.208C40.2378 26.6853 40.3658 26.1893 40.3871 25.72C40.1205 25.7413 39.8645 25.7627 39.6191 25.784C39.3738 25.8053 39.1658 25.8267 38.9951 25.848C38.8885 25.8693 38.8191 25.864 38.7871 25.832C38.7551 25.7893 38.7285 25.736 38.7071 25.672C38.6965 25.6613 38.6911 25.6507 38.6911 25.64C38.6485 25.5227 38.6165 25.432 38.5951 25.368C38.5845 25.2933 38.5578 25.1707 38.5151 25C38.5045 24.9253 38.5471 24.888 38.6431 24.888C39.1765 24.92 39.7418 24.92 40.3391 24.888C40.9471 24.856 41.5071 24.792 42.0191 24.696C42.0511 24.6853 42.0885 24.6907 42.1311 24.712C42.1738 24.7227 42.2005 24.7547 42.2111 24.808C42.2325 24.8933 42.2538 25.0107 42.2751 25.16C42.3071 25.2987 42.3285 25.4107 42.3391 25.496C42.3498 25.6027 42.2858 25.656 42.1471 25.656C42.0618 25.656 41.9498 25.656 41.8111 25.656C41.6831 25.656 41.5285 25.6613 41.3471 25.672C41.3258 25.8747 41.2831 26.1093 41.2191 26.376C41.1551 26.632 41.0485 26.9307 40.8991 27.272C41.2085 27.5067 41.5071 27.7467 41.7951 27.992C42.0831 28.2267 42.3391 28.4667 42.5631 28.712C42.6591 28.84 42.6645 28.9467 42.5791 29.032C42.4938 29.1387 42.4138 29.224 42.3391 29.288C42.2645 29.3413 42.1791 29.4107 42.0831 29.496C42.0298 29.5493 41.9818 29.544 41.9391 29.48C41.5338 28.904 41.0858 28.3707 40.5951 27.88C40.3818 28.2533 40.1098 28.6587 39.7791 29.096C39.4485 29.5227 39.0378 29.976 38.5471 30.456C38.5365 30.456 38.5258 30.4613 38.5151 30.472C38.4725 30.5147 38.4191 30.5467 38.3551 30.568C38.2911 30.5893 38.2058 30.568 38.0991 30.504ZM45.6831 37.032C45.8538 37.0427 46.1045 37.0427 46.4351 37.032C46.7765 37.032 47.1125 37.0267 47.4431 37.016C47.7845 37.0053 48.0405 36.9893 48.2111 36.968V35.016C47.7525 35.016 47.3205 35.0213 46.9151 35.032C46.5098 35.032 46.0991 35.0427 45.6831 35.064V37.032Z" fill="black"/>
<path d="M59.8701 29.464C59.1875 29.4747 58.5688 29.368 58.0141 29.144C57.4595 28.9093 57.0168 28.5787 56.6861 28.152C56.3555 27.7147 56.1901 27.1973 56.1901 26.6C56.1901 26.0453 56.3555 25.5493 56.6861 25.112C57.0168 24.664 57.4595 24.312 58.0141 24.056C58.5795 23.7893 59.2035 23.6507 59.8861 23.64C60.5688 23.6187 61.1875 23.72 61.7421 23.944C62.3075 24.1573 62.7555 24.4773 63.0861 24.904C63.4168 25.3307 63.5715 25.8533 63.5501 26.472C63.5395 27.048 63.3741 27.56 63.0541 28.008C62.7341 28.456 62.2968 28.808 61.7421 29.064C61.1981 29.3093 60.5741 29.4427 59.8701 29.464ZM59.8861 28.664C60.6861 28.6427 61.3208 28.44 61.7901 28.056C62.2701 27.672 62.5208 27.1387 62.5421 26.456C62.5635 25.976 62.4568 25.5813 62.2221 25.272C61.9875 24.9627 61.6621 24.7333 61.2461 24.584C60.8408 24.4347 60.3821 24.3707 59.8701 24.392C59.3688 24.4027 58.9101 24.504 58.4941 24.696C58.0888 24.888 57.7635 25.144 57.5181 25.464C57.2835 25.784 57.1661 26.152 57.1661 26.568C57.1661 27.2507 57.4168 27.7787 57.9181 28.152C58.4195 28.5147 59.0755 28.6853 59.8861 28.664ZM53.4381 32.344C53.3208 32.3547 53.2408 32.344 53.1981 32.312C53.1555 32.28 53.1235 32.232 53.1021 32.168C53.0595 32.0507 53.0221 31.9333 52.9901 31.816C52.9581 31.6987 52.9208 31.5493 52.8781 31.368C52.8675 31.3467 52.8728 31.32 52.8941 31.288C52.9155 31.2453 52.9528 31.2293 53.0061 31.24C53.4115 31.2933 53.9661 31.336 54.6701 31.368C55.3741 31.3893 56.1475 31.3947 56.9901 31.384C57.6408 31.384 58.3341 31.3787 59.0701 31.368C59.8061 31.3467 60.5368 31.3253 61.2621 31.304C61.9981 31.272 62.6915 31.24 63.3421 31.208C64.0035 31.176 64.5848 31.1387 65.0861 31.096C65.5981 31.0533 65.9928 31.0053 66.2701 30.952C66.3768 30.9307 66.4461 30.936 66.4781 30.968C66.5101 31 66.5315 31.0427 66.5421 31.096L66.6381 31.8C66.6488 31.9493 66.5475 32.0187 66.3341 32.008C66.0035 31.9867 65.5555 31.976 64.9901 31.976C64.4355 31.976 63.8328 31.9813 63.1821 31.992C62.6061 31.992 62.0141 32.0027 61.4061 32.024C60.8088 32.0347 60.2435 32.0453 59.7101 32.056C59.1875 32.0667 58.7341 32.0773 58.3501 32.088C57.2728 32.12 56.3021 32.1573 55.4381 32.2C54.5741 32.2427 53.9075 32.2907 53.4381 32.344ZM57.4221 37.8C57.0488 37.8 56.7661 37.656 56.5741 37.368C56.3821 37.08 56.2861 36.7173 56.2861 36.28V35.256C56.2861 34.8827 56.2648 34.5733 56.2221 34.328C56.1901 34.0827 56.1581 33.9067 56.1261 33.8C56.0941 33.6933 56.1315 33.64 56.2381 33.64C56.2915 33.64 56.3928 33.6453 56.5421 33.656C56.7021 33.656 56.8515 33.6613 56.9901 33.672C57.1395 33.6827 57.2248 33.688 57.2461 33.688C57.2995 33.6987 57.3261 33.752 57.3261 33.848C57.3155 34.0933 57.3048 34.312 57.2941 34.504C57.2941 34.6853 57.2941 34.9147 57.2941 35.192V36.232C57.2941 36.5093 57.3261 36.7013 57.3901 36.808C57.4648 36.904 57.6035 36.9573 57.8061 36.968C58.1048 36.9787 58.4835 36.9893 58.9421 37C59.4008 37 59.8755 36.9947 60.3661 36.984C60.8675 36.9733 61.3315 36.9573 61.7581 36.936C62.2061 36.9147 62.6595 36.8827 63.1181 36.84C63.5875 36.7867 63.9555 36.7333 64.2221 36.68C64.3288 36.6587 64.3981 36.664 64.4301 36.696C64.4621 36.728 64.4835 36.7707 64.4941 36.824L64.6221 37.544C64.6328 37.6613 64.5528 37.72 64.3821 37.72C63.3261 37.72 62.2115 37.7307 61.0381 37.752C59.8755 37.784 58.6701 37.8 57.4221 37.8Z" fill="black"/>
<path d="M75.7666 29.704C75.7026 29.7467 75.6226 29.768 75.5266 29.768C75.4413 29.7573 75.356 29.6933 75.2706 29.576L74.9666 29.208C74.9346 29.1547 74.9293 29.1227 74.9506 29.112C74.9826 29.0907 75.0146 29.0747 75.0466 29.064C75.0573 29.064 75.0626 29.064 75.0626 29.064C76.396 28.616 77.4786 28.0507 78.3106 27.368C79.1426 26.6853 79.644 25.928 79.8146 25.096C79.5373 25.1067 79.2973 25.1173 79.0946 25.128C78.892 25.128 78.748 25.1333 78.6626 25.144C78.492 25.1547 78.236 25.176 77.8946 25.208C77.564 25.2293 77.228 25.2507 76.8866 25.272C76.556 25.2933 76.3 25.3147 76.1186 25.336C76.0013 25.3573 75.9266 25.3467 75.8946 25.304C75.8626 25.2613 75.8306 25.208 75.7986 25.144C75.7986 25.1333 75.7986 25.128 75.7986 25.128C75.756 25.0107 75.724 24.9093 75.7026 24.824C75.6813 24.7387 75.6493 24.6053 75.6066 24.424C75.596 24.4027 75.6013 24.376 75.6226 24.344C75.644 24.312 75.6813 24.3013 75.7346 24.312C76.0013 24.3333 76.3853 24.3493 76.8866 24.36C77.3986 24.3707 77.9746 24.376 78.6146 24.376C79.2653 24.3653 79.9266 24.3493 80.5986 24.328C81.2813 24.296 81.9266 24.2533 82.5346 24.2C83.1533 24.1467 83.6813 24.0827 84.1186 24.008C84.1506 23.9973 84.188 24.0027 84.2306 24.024C84.2733 24.0347 84.3 24.0667 84.3106 24.12C84.3213 24.184 84.332 24.2587 84.3426 24.344C84.364 24.4293 84.38 24.5147 84.3906 24.6L84.4226 24.904C84.444 25.0213 84.38 25.08 84.2306 25.08L82.2626 25.064C82.1026 25.064 81.9053 25.064 81.6706 25.064C81.4466 25.064 81.212 25.0693 80.9666 25.08C80.8386 25.56 80.6466 26.008 80.3906 26.424C81.2653 26.7547 82.044 27.0533 82.7266 27.32C83.42 27.5867 84.028 27.8747 84.5506 28.184C84.604 28.216 84.6573 28.264 84.7106 28.328C84.764 28.3813 84.7746 28.4507 84.7426 28.536C84.6893 28.6533 84.6306 28.7813 84.5666 28.92C84.5026 29.048 84.428 29.176 84.3426 29.304C84.3 29.3787 84.2466 29.3893 84.1826 29.336C83.8413 29.0267 83.42 28.728 82.9186 28.44C82.428 28.1413 81.9213 27.8693 81.3986 27.624C80.876 27.3787 80.3906 27.1813 79.9426 27.032C79.4306 27.64 78.8066 28.1573 78.0706 28.584C77.3453 29.0107 76.5773 29.384 75.7666 29.704ZM79.7026 37.192C79.66 37.192 79.6386 37.1653 79.6386 37.112V31.848C78.3586 31.8693 77.196 31.9067 76.1506 31.96C75.1053 32.0027 74.284 32.0507 73.6866 32.104C73.5693 32.1147 73.4893 32.104 73.4466 32.072C73.404 32.04 73.372 31.992 73.3506 31.928C73.308 31.8107 73.2706 31.6933 73.2386 31.576C73.2066 31.448 73.1693 31.2933 73.1266 31.112C73.116 31.0907 73.1213 31.064 73.1426 31.032C73.164 30.9893 73.2013 30.9733 73.2546 30.984C73.66 31.0373 74.2093 31.0747 74.9026 31.096C75.6066 31.1067 76.38 31.112 77.2226 31.112C78.044 31.112 78.908 31.1013 79.8146 31.08C80.732 31.0587 81.6226 31.032 82.4866 31C83.3506 30.968 84.1186 30.9253 84.7906 30.872C85.4733 30.8187 85.9906 30.76 86.3426 30.696C86.4493 30.6747 86.5186 30.68 86.5506 30.712C86.5826 30.744 86.604 30.7867 86.6146 30.84L86.7106 31.608C86.7106 31.6613 86.6946 31.7093 86.6626 31.752C86.6306 31.7947 86.5453 31.816 86.4066 31.816C86.044 31.8053 85.6226 31.8 85.1426 31.8C84.6626 31.8 84.1506 31.8 83.6066 31.8C83.1053 31.8 82.6093 31.8053 82.1186 31.816C81.628 31.816 81.1426 31.8213 80.6626 31.832V36.792C80.6626 36.952 80.652 37.048 80.6306 37.08C80.62 37.112 80.588 37.1333 80.5346 37.144C80.492 37.144 80.412 37.144 80.2946 37.144C80.1773 37.1547 80.06 37.1653 79.9426 37.176C79.8253 37.1867 79.7453 37.192 79.7026 37.192Z" fill="black"/>
<path d="M88.5735 34.568L88.1895 34.216C88.1468 34.1733 88.1628 34.12 88.2375 34.056C88.7708 33.7787 89.3095 33.4213 89.8535 32.984C90.4082 32.536 90.9362 32.04 91.4375 31.496C91.9495 30.9413 92.4135 30.3653 92.8295 29.768C93.2455 29.1707 93.5868 28.5733 93.8535 27.976C94.1202 27.368 94.2855 26.792 94.3495 26.248C94.3708 26.1307 94.3228 26.072 94.2055 26.072L90.9095 26.264L89.2455 26.408C89.1388 26.4187 89.0695 26.408 89.0375 26.376C89.0055 26.3333 88.9788 26.2853 88.9575 26.232C88.9468 26.2213 88.9415 26.2107 88.9415 26.2C88.8988 26.0827 88.8668 25.9867 88.8455 25.912C88.8242 25.8267 88.7922 25.6933 88.7495 25.512C88.7388 25.4907 88.7442 25.464 88.7655 25.432C88.7868 25.4 88.8242 25.3893 88.8775 25.4C89.3468 25.4427 89.8855 25.464 90.4935 25.464C91.1015 25.4533 91.7095 25.432 92.3175 25.4C92.9362 25.3573 93.4802 25.3093 93.9495 25.256C94.0775 25.2453 94.2162 25.224 94.3655 25.192C94.5148 25.16 94.5895 25.144 94.5895 25.144C94.6428 25.1227 94.7015 25.1227 94.7655 25.144L95.6455 25.432C95.7308 25.4747 95.7682 25.544 95.7575 25.64L95.3895 26.824C95.2402 27.2933 94.9948 27.8533 94.6535 28.504C94.3228 29.1547 93.8962 29.8427 93.3735 30.568C92.8508 31.2827 92.2322 31.9867 91.5175 32.68C90.8028 33.3733 89.9922 34.0027 89.0855 34.568C89.0002 34.6213 88.9148 34.6533 88.8295 34.664C88.7442 34.6747 88.6588 34.6427 88.5735 34.568ZM98.1095 37.16C98.0668 37.16 98.0455 37.1333 98.0455 37.08V25.528C98.0455 25.1227 98.0295 24.7493 97.9975 24.408C97.9762 24.056 97.9388 23.8267 97.8855 23.72C97.8642 23.6667 97.8642 23.6293 97.8855 23.608C97.9175 23.576 97.9548 23.56 97.9975 23.56C98.0615 23.56 98.1682 23.5653 98.3175 23.576C98.4775 23.576 98.6322 23.5813 98.7815 23.592C98.9308 23.592 99.0162 23.592 99.0375 23.592C99.0908 23.592 99.1175 23.6347 99.1175 23.72C99.0855 24.1147 99.0642 24.4613 99.0535 24.76C99.0535 25.048 99.0535 25.384 99.0535 25.768V36.76C99.0535 36.92 99.0428 37.016 99.0215 37.048C99.0108 37.08 98.9788 37.1013 98.9255 37.112L98.1095 37.16Z" fill="black"/>
</svg>
