<svg width="122" height="16" viewBox="0 0 122 16" fill="none" xmlns="http://www.w3.org/2000/svg">
<path d="M0.954183 9.584C0.932849 9.584 0.906183 9.57866 0.874183 9.568C0.842183 9.55733 0.826183 9.52533 0.826183 9.472C0.826183 9.46133 0.826183 9.42933 0.826183 9.376C0.826183 9.16266 0.820849 8.63466 0.810183 7.792C0.799516 6.94933 0.751516 5.73333 0.666183 4.144C0.644849 3.86666 0.607516 3.57333 0.554183 3.264C0.511516 2.95466 0.458183 2.76266 0.394183 2.688C0.351516 2.624 0.351516 2.57066 0.394183 2.528C0.436849 2.48533 0.479516 2.464 0.522183 2.464C0.692849 2.47466 0.874183 2.48533 1.06618 2.496C1.25818 2.50666 1.43952 2.512 1.61018 2.512C1.98352 2.512 2.39952 2.50666 2.85818 2.496C3.32752 2.47466 3.78618 2.45333 4.23418 2.432C4.68218 2.41066 5.07152 2.38933 5.40218 2.368C5.74352 2.336 5.97818 2.30933 6.10618 2.288C6.12752 2.288 6.14885 2.28266 6.17018 2.272C6.24485 2.26133 6.30885 2.26133 6.36218 2.272L7.27418 2.416C7.32752 2.43733 7.35952 2.464 7.37018 2.496C7.38085 2.51733 7.38085 2.55466 7.37018 2.608C7.32752 2.84266 7.29018 3.12 7.25818 3.44C7.22618 3.74933 7.21018 3.97866 7.21018 4.128C7.18885 4.45866 7.16752 4.848 7.14618 5.296C7.12485 5.73333 7.10352 6.192 7.08218 6.672C7.06085 7.152 7.03952 7.61066 7.01818 8.048C6.99685 8.48533 6.98085 8.864 6.97018 9.184C6.95952 9.32266 6.87952 9.392 6.73018 9.392C6.63418 9.392 6.43152 9.39733 6.12218 9.408C5.82352 9.408 5.46618 9.41333 5.05018 9.424C4.64485 9.424 4.22352 9.42933 3.78618 9.44C3.35952 9.45066 2.95952 9.46133 2.58618 9.472C2.21285 9.48267 1.91418 9.49333 1.69018 9.504C1.58352 9.52533 1.43952 9.54666 1.25818 9.568C1.08752 9.57866 0.986183 9.584 0.954183 9.584ZM1.75418 8.624C2.01018 8.624 2.33552 8.61866 2.73018 8.608C3.13552 8.59733 3.55685 8.58666 3.99418 8.576C4.43152 8.56533 4.83152 8.54933 5.19418 8.528C5.55685 8.50666 5.82885 8.49066 6.01018 8.48C6.04218 7.616 6.06885 6.768 6.09018 5.936C6.11152 5.104 6.13285 4.25066 6.15418 3.376C6.16485 3.26933 6.11685 3.216 6.01018 3.216L1.65818 3.376L1.75418 8.624ZM9.75418 14.16C9.71152 14.16 9.69018 14.1333 9.69018 14.08V2.528C9.69018 2.12266 9.67418 1.74933 9.64218 1.408C9.62085 1.056 9.58352 0.826664 9.53018 0.719997C9.50885 0.666664 9.50885 0.629331 9.53018 0.607998C9.56218 0.575998 9.59952 0.559998 9.64218 0.559998C9.70618 0.559998 9.81285 0.565331 9.96218 0.575997C10.1222 0.575997 10.2769 0.581331 10.4262 0.591997C10.5755 0.591997 10.6609 0.591997 10.6822 0.591997C10.7355 0.591997 10.7622 0.634664 10.7622 0.719997C10.7302 1.11466 10.7088 1.46133 10.6982 1.76C10.6982 2.048 10.6982 2.384 10.6982 2.768V6.512C10.9862 6.512 11.2955 6.50133 11.6262 6.48C11.9675 6.448 12.2822 6.416 12.5702 6.384C12.8689 6.34133 13.0929 6.29866 13.2422 6.256C13.3382 6.24533 13.3915 6.27733 13.4022 6.352C13.4235 6.49066 13.4395 6.62933 13.4502 6.768C13.4609 6.90666 13.4715 7.04533 13.4822 7.184C13.4822 7.30133 13.4342 7.36 13.3382 7.36C13.1782 7.33866 12.9435 7.328 12.6342 7.328C12.3355 7.328 12.0155 7.328 11.6742 7.328C11.3329 7.328 11.0075 7.33333 10.6982 7.344V13.76C10.6982 13.92 10.6875 14.016 10.6662 14.048C10.6555 14.08 10.6235 14.1013 10.5702 14.112L9.75418 14.16Z" fill="black"/>
<path d="M14.9209 10.464C14.8676 10.4213 14.7929 10.368 14.6969 10.304C14.6116 10.2293 14.5423 10.1653 14.4889 10.112C14.4249 10.0373 14.4303 9.97866 14.5049 9.936C15.5716 9.17866 16.4089 8.38933 17.0169 7.568C17.6356 6.74666 18.0783 5.94666 18.3449 5.168C18.6223 4.37866 18.7823 3.67466 18.8249 3.056C18.5476 3.07733 18.3076 3.09333 18.1049 3.104C17.9023 3.11466 17.7636 3.12 17.6889 3.12L15.9289 3.28C15.8223 3.29066 15.7529 3.28 15.7209 3.248C15.6889 3.20533 15.6623 3.15733 15.6409 3.104C15.6303 3.09333 15.6249 3.08266 15.6249 3.072C15.5823 2.95466 15.5503 2.85333 15.5289 2.768C15.5183 2.672 15.4916 2.53333 15.4489 2.352C15.4383 2.27733 15.4809 2.24 15.5769 2.24C15.8756 2.26133 16.1529 2.27733 16.4089 2.288C16.6756 2.288 17.0649 2.288 17.5769 2.288C18.1529 2.288 18.6703 2.27733 19.1289 2.256C19.5983 2.23466 20.0303 2.208 20.4249 2.176C20.8409 2.144 21.1769 2.11733 21.4329 2.096C21.6996 2.07466 21.9289 2.05333 22.1209 2.032C22.3236 2 22.5369 1.97333 22.7609 1.952C22.7929 1.952 22.8303 1.95733 22.8729 1.968C22.9156 1.97866 22.9423 2.01066 22.9529 2.064C22.9636 2.128 22.9743 2.20266 22.9849 2.288C23.0063 2.37333 23.0223 2.45866 23.0329 2.544L23.0649 2.832C23.0863 2.94933 23.0223 3.008 22.8729 3.008C22.6703 2.99733 22.4409 2.992 22.1849 2.992C21.9396 2.992 21.7103 2.992 21.4969 2.992C21.3156 2.992 21.0969 2.99733 20.8409 3.008C20.5956 3.008 20.3289 3.01333 20.0409 3.024C19.9769 3.87733 19.7209 4.79466 19.2729 5.776C19.7849 6.13866 20.2969 6.52266 20.8089 6.928C21.3209 7.32266 21.7849 7.70133 22.2009 8.064C22.6169 8.416 22.9369 8.72 23.1609 8.976C23.2036 9.02933 23.2356 9.09333 23.2569 9.168C23.2889 9.232 23.2783 9.30133 23.2249 9.376C23.1289 9.49333 23.0169 9.6 22.8889 9.696C22.7716 9.78133 22.6543 9.872 22.5369 9.968C22.4729 10.0213 22.4196 10.0107 22.3769 9.936C22.2276 9.70133 22.0196 9.42933 21.7529 9.12C21.4969 8.81066 21.2036 8.496 20.8729 8.176C20.5529 7.84533 20.2223 7.53066 19.8809 7.232C19.5503 6.93333 19.2356 6.672 18.9369 6.448C18.5636 7.12 18.0889 7.792 17.5129 8.464C16.9369 9.136 16.2436 9.78133 15.4329 10.4C15.4223 10.4107 15.4063 10.4213 15.3849 10.432C15.3103 10.4853 15.2409 10.5227 15.1769 10.544C15.1129 10.5547 15.0276 10.528 14.9209 10.464ZM24.7929 14.16C24.7503 14.16 24.7289 14.1333 24.7289 14.08V2.528C24.7289 2.12266 24.7129 1.74933 24.6809 1.408C24.6596 1.056 24.6223 0.826664 24.5689 0.719997C24.5476 0.666664 24.5476 0.629331 24.5689 0.607998C24.6009 0.575998 24.6383 0.559998 24.6809 0.559998C24.7449 0.559998 24.8516 0.565331 25.0009 0.575997C25.1609 0.575997 25.3156 0.581331 25.4649 0.591997C25.6143 0.591997 25.6996 0.591997 25.7209 0.591997C25.7743 0.591997 25.8009 0.634664 25.8009 0.719997C25.7689 1.11466 25.7476 1.46133 25.7369 1.76C25.7369 2.048 25.7369 2.384 25.7369 2.768V13.76C25.7369 13.92 25.7263 14.016 25.7049 14.048C25.6943 14.08 25.6623 14.1013 25.6089 14.112L24.7929 14.16Z" fill="black"/>
<path d="M29.6146 7.84C29.5932 7.84 29.5666 7.83466 29.5346 7.824C29.5026 7.81333 29.4866 7.78133 29.4866 7.728C29.4866 7.71733 29.4866 7.696 29.4866 7.664C29.4866 7.57866 29.4866 7.41866 29.4866 7.184C29.4866 6.93866 29.4759 6.53866 29.4546 5.984C29.4439 5.41866 29.4172 4.608 29.3746 3.552C29.3532 3.264 29.3212 2.976 29.2786 2.688C29.2359 2.38933 29.1826 2.19733 29.1186 2.112C29.0759 2.048 29.0652 1.98933 29.0866 1.936C29.1186 1.88266 29.1719 1.86133 29.2466 1.872C29.4172 1.88266 29.5879 1.89333 29.7586 1.904C29.9399 1.904 30.1159 1.904 30.2866 1.904C30.6599 1.904 31.0546 1.89866 31.4706 1.888C31.8866 1.86666 32.2866 1.84533 32.6706 1.824C33.0652 1.80266 33.4066 1.78133 33.6946 1.76C33.9932 1.73866 34.2066 1.71733 34.3346 1.696C34.3559 1.696 34.3772 1.69066 34.3986 1.68C34.4732 1.66933 34.5372 1.66933 34.5906 1.68L35.4226 1.84C35.4972 1.86133 35.5292 1.92533 35.5186 2.032C35.4972 2.18133 35.4759 2.368 35.4546 2.592C35.4332 2.80533 35.4172 3.01333 35.4066 3.216C35.3959 3.408 35.3852 3.552 35.3746 3.648C35.3426 4.29866 35.3159 4.93866 35.2946 5.568C35.2732 6.18666 35.2519 6.816 35.2306 7.456C35.2306 7.60533 35.1506 7.67466 34.9906 7.664C34.8839 7.65333 34.6919 7.648 34.4146 7.648C34.1372 7.648 33.8066 7.65333 33.4226 7.664C33.0492 7.67466 32.6599 7.69066 32.2546 7.712C31.8599 7.72266 31.4866 7.73333 31.1346 7.744C30.7826 7.75466 30.4946 7.76533 30.2706 7.776C30.1639 7.78666 30.0359 7.80266 29.8866 7.824C29.7372 7.83466 29.6466 7.84 29.6146 7.84ZM30.4146 6.912C30.5959 6.912 30.8626 6.912 31.2146 6.912C31.5772 6.90133 31.9612 6.89066 32.3666 6.88C32.7719 6.85866 33.1506 6.84266 33.5026 6.832C33.8652 6.81066 34.1372 6.78933 34.3186 6.768L34.3666 2.72C34.3666 2.61333 34.3186 2.56 34.2226 2.56L30.3346 2.704L30.4146 6.912ZM38.2546 15.2C38.2119 15.2 38.1906 15.1733 38.1906 15.12V10.912C38.1906 10.8373 38.1799 10.7893 38.1586 10.768C38.1479 10.7467 38.0946 10.736 37.9986 10.736C37.7532 10.736 37.4119 10.7413 36.9746 10.752C36.5372 10.7627 36.0732 10.7787 35.5826 10.8C35.0919 10.8107 34.6279 10.8267 34.1906 10.848C33.7639 10.8587 33.4386 10.8693 33.2146 10.88C32.9479 10.9013 32.6546 10.9227 32.3346 10.944C32.0252 10.9653 31.7372 10.9867 31.4706 11.008C31.3639 11.0187 31.2946 11.008 31.2626 10.976C31.2306 10.9333 31.2039 10.8853 31.1826 10.832C31.1719 10.8213 31.1666 10.8107 31.1666 10.8L31.0066 10.112C30.9959 10.0907 31.0012 10.064 31.0226 10.032C31.0439 10 31.0812 9.98933 31.1346 10C31.3052 10.0213 31.6146 10.0373 32.0626 10.048C32.5212 10.0587 33.0439 10.064 33.6306 10.064C34.2172 10.0533 34.8092 10.0373 35.4066 10.016C36.0039 9.99466 36.5426 9.968 37.0226 9.936C37.5026 9.89333 37.8492 9.84533 38.0626 9.792C38.0732 9.792 38.0892 9.78666 38.1106 9.776C38.1319 9.776 38.1532 9.776 38.1746 9.776C38.1959 9.76533 38.2332 9.76533 38.2866 9.776L39.2306 9.92C39.2839 9.93067 39.3106 9.952 39.3106 9.984C39.3212 10.0053 39.3266 10.0267 39.3266 10.048C39.3266 10.0587 39.3266 10.064 39.3266 10.064C39.2946 10.3627 39.2679 10.6667 39.2466 10.976C39.2359 11.2853 39.2306 11.568 39.2306 11.824L39.2146 14.896C39.2146 15.024 39.1879 15.0987 39.1346 15.12C39.0919 15.1413 39.0439 15.1573 38.9906 15.168L38.2546 15.2ZM38.3186 8.864C38.2759 8.864 38.2546 8.83733 38.2546 8.784V2.512C38.2546 2.10666 38.2386 1.73333 38.2066 1.392C38.1852 1.05066 38.1479 0.826664 38.0946 0.719997C38.0732 0.666664 38.0732 0.629331 38.0946 0.607998C38.1266 0.575998 38.1639 0.559998 38.2066 0.559998C38.3132 0.559998 38.4679 0.559998 38.6706 0.559998C38.8839 0.559998 39.0759 0.565331 39.2466 0.575997C39.2999 0.575997 39.3266 0.618664 39.3266 0.703998C39.2946 1.09866 39.2732 1.44533 39.2626 1.744C39.2626 2.032 39.2626 2.368 39.2626 2.752V4.704C39.5506 4.704 39.8599 4.69333 40.1906 4.672C40.5319 4.64 40.8466 4.608 41.1346 4.576C41.4332 4.53333 41.6572 4.49066 41.8066 4.448C41.9026 4.43733 41.9559 4.46933 41.9666 4.544C41.9879 4.68266 42.0039 4.82133 42.0146 4.96C42.0252 5.09866 42.0359 5.23733 42.0466 5.376C42.0466 5.49333 41.9986 5.552 41.9026 5.552C41.7532 5.53066 41.5239 5.52 41.2146 5.52C40.9052 5.50933 40.5746 5.504 40.2226 5.504C39.8812 5.504 39.5612 5.51466 39.2626 5.536V8.464C39.2626 8.624 39.2519 8.72 39.2306 8.752C39.2199 8.784 39.1879 8.80533 39.1346 8.816L38.3186 8.864Z" fill="black"/>
<path d="M56.3584 15.36C55.6758 15.36 55.0784 15.2373 54.5664 14.992C54.0544 14.7573 53.6491 14.432 53.3504 14.016C53.0624 13.6 52.9184 13.12 52.9184 12.576C52.9184 12.0533 53.0784 11.5787 53.3984 11.152C53.7184 10.7253 54.1451 10.3893 54.6784 10.144C55.2118 9.888 55.7931 9.76 56.4224 9.76C57.0624 9.76 57.6438 9.86666 58.1664 10.08C58.6998 10.2827 59.1211 10.592 59.4304 11.008C59.7504 11.4133 59.8998 11.9147 59.8784 12.512C59.8678 13.0667 59.7024 13.5573 59.3824 13.984C59.0731 14.4107 58.6518 14.7467 58.1184 14.992C57.5958 15.2373 57.0091 15.36 56.3584 15.36ZM58.9344 9.44C58.8918 9.44 58.8704 9.41333 58.8704 9.36V5.328C58.5611 5.328 58.2411 5.33333 57.9104 5.344C57.5798 5.344 57.2758 5.34933 56.9984 5.36V8.368C56.9984 8.528 56.9878 8.624 56.9664 8.656C56.9558 8.688 56.9238 8.70933 56.8704 8.72L56.1024 8.752C56.0598 8.752 56.0384 8.72533 56.0384 8.672V2.592C56.0384 1.74933 55.9904 1.20533 55.8944 0.959997C55.8731 0.906664 55.8731 0.869331 55.8944 0.847998C55.9264 0.815997 55.9638 0.799997 56.0064 0.799997L56.9504 0.815997C57.0038 0.815997 57.0304 0.863997 57.0304 0.959997C57.0091 1.30133 56.9984 1.584 56.9984 1.808C56.9984 2.032 56.9984 2.26666 56.9984 2.512C56.9984 2.58666 56.9984 2.66133 56.9984 2.736C56.9984 2.8 56.9984 2.87466 56.9984 2.96V4.528C57.0518 4.528 57.1051 4.528 57.1584 4.528C57.2224 4.528 57.2811 4.528 57.3344 4.528C57.5798 4.528 57.8304 4.528 58.0864 4.528C58.3531 4.528 58.6144 4.51733 58.8704 4.496V2.192C58.8704 1.40266 58.8278 0.911997 58.7424 0.719997C58.7211 0.666664 58.7211 0.629331 58.7424 0.607998C58.7744 0.575998 58.8118 0.559998 58.8544 0.559998L59.8144 0.575997C59.8571 0.575997 59.8784 0.618664 59.8784 0.703998C59.8784 0.714664 59.8784 0.725331 59.8784 0.735997C59.8678 1.024 59.8571 1.26933 59.8464 1.472C59.8358 1.67466 59.8304 1.872 59.8304 2.064C59.8304 2.24533 59.8304 2.464 59.8304 2.72V9.056C59.8304 9.216 59.8198 9.312 59.7984 9.344C59.7878 9.376 59.7558 9.39733 59.7024 9.408L58.9344 9.44ZM56.3904 14.528C57.0624 14.5067 57.6278 14.3253 58.0864 13.984C58.5558 13.6427 58.8011 13.1467 58.8224 12.496C58.8438 12.0693 58.7424 11.712 58.5184 11.424C58.3051 11.136 58.0118 10.9173 57.6384 10.768C57.2758 10.608 56.8651 10.528 56.4064 10.528C55.9584 10.5387 55.5478 10.6347 55.1744 10.816C54.8011 10.9867 54.5024 11.2213 54.2784 11.52C54.0544 11.8187 53.9424 12.1653 53.9424 12.56C53.9424 12.9653 54.0491 13.3173 54.2624 13.616C54.4864 13.904 54.7851 14.128 55.1584 14.288C55.5318 14.448 55.9424 14.528 56.3904 14.528ZM48.3584 9.008L47.9904 8.672C47.9478 8.62933 47.9638 8.58133 48.0384 8.528C48.0491 8.51733 48.0544 8.512 48.0544 8.512C48.5984 8.11733 49.1158 7.632 49.6064 7.056C50.0971 6.46933 50.5238 5.856 50.8864 5.216C51.2491 4.576 51.5158 3.97866 51.6864 3.424C51.7824 3.104 51.8571 2.784 51.9104 2.464C51.9744 2.144 52.0064 1.87733 52.0064 1.664C52.0064 1.54666 52.0544 1.49866 52.1504 1.52L53.1424 1.776C53.2278 1.79733 53.2544 1.856 53.2224 1.952C53.1584 2.176 53.0784 2.432 52.9824 2.72C52.8864 3.008 52.7851 3.30666 52.6784 3.616C52.6251 3.75466 52.5558 3.92533 52.4704 4.128C52.3851 4.32 52.2784 4.53333 52.1504 4.768C52.5344 5.09866 52.9238 5.44 53.3184 5.792C53.7238 6.13333 54.0918 6.45333 54.4224 6.752C54.7531 7.05066 54.9931 7.28533 55.1424 7.456C55.1744 7.49866 55.2011 7.552 55.2224 7.616C55.2438 7.66933 55.2278 7.73333 55.1744 7.808C55.0998 7.904 55.0038 8.00533 54.8864 8.112C54.7691 8.21866 54.6571 8.30933 54.5504 8.384C54.4864 8.43733 54.4331 8.42666 54.3904 8.352C54.2198 8.05333 53.9904 7.72266 53.7024 7.36C53.4144 6.99733 53.1051 6.64 52.7744 6.288C52.4544 5.92533 52.1398 5.616 51.8304 5.36C51.6278 5.70133 51.3771 6.09066 51.0784 6.528C50.7904 6.95466 50.4598 7.38133 50.0864 7.808C49.7131 8.23466 49.3024 8.62933 48.8544 8.992C48.7904 9.03466 48.7158 9.072 48.6304 9.104C48.5558 9.12533 48.4651 9.09333 48.3584 9.008Z" fill="black"/>
<path d="M64.3007 10.832C64.066 10.8213 63.8847 10.704 63.7567 10.48C63.6287 10.256 63.5647 9.97333 63.5647 9.632V7.296C63.5647 7.08266 63.5593 6.85333 63.5487 6.608C63.538 6.36266 63.4953 6.13333 63.4207 5.92C63.3673 5.792 63.4153 5.73866 63.5647 5.76C63.6927 5.77066 63.922 5.776 64.2527 5.776C64.594 5.776 64.978 5.77066 65.4047 5.76C65.8314 5.74933 66.2527 5.73866 66.6687 5.728C67.0847 5.70666 67.4367 5.68533 67.7247 5.664C68.0234 5.632 68.194 5.60533 68.2367 5.584C68.2687 5.36 68.3007 5.07733 68.3327 4.736C68.3647 4.39466 68.3967 4.05333 68.4287 3.712C68.4713 3.36 68.498 3.072 68.5087 2.848C68.5087 2.784 68.482 2.752 68.4287 2.752C67.97 2.752 67.4954 2.768 67.0047 2.8C66.5247 2.82133 66.0607 2.84266 65.6127 2.864C65.3567 2.88533 65.0794 2.90666 64.7807 2.928C64.482 2.94933 64.2047 2.97066 63.9487 2.992C63.8313 3.00266 63.7567 2.99733 63.7247 2.976C63.7033 2.944 63.682 2.896 63.6607 2.832L63.4847 2.192C63.474 2.17066 63.4793 2.14933 63.5007 2.128C63.522 2.096 63.5487 2.08533 63.5807 2.096C63.6553 2.10666 63.842 2.112 64.1407 2.112C64.45 2.112 64.8127 2.10666 65.2287 2.096C65.6554 2.08533 66.0873 2.06933 66.5247 2.048C66.9727 2.016 67.3834 1.98933 67.7567 1.968C68.13 1.936 68.4127 1.89866 68.6047 1.856C68.658 1.83466 68.7007 1.82933 68.7327 1.84C68.7647 1.84 68.7913 1.84 68.8127 1.84C68.834 1.85066 68.85 1.856 68.8607 1.856L69.6127 2.048C69.698 2.06933 69.73 2.10666 69.7087 2.16C69.698 2.24533 69.6767 2.37866 69.6447 2.56C69.6127 2.73066 69.5807 2.90666 69.5487 3.088C69.5167 3.26933 69.49 3.41866 69.4687 3.536L69.1007 6.288C69.09 6.384 69.0367 6.432 68.9407 6.432C68.8233 6.432 68.6207 6.43733 68.3327 6.448C68.0447 6.45866 67.714 6.46933 67.3407 6.48C66.9673 6.49066 66.594 6.50666 66.2207 6.528C65.8473 6.54933 65.5114 6.57066 65.2127 6.592C64.914 6.60266 64.7007 6.61333 64.5727 6.624V9.552C64.5727 9.65867 64.5887 9.73333 64.6207 9.776C64.6633 9.808 64.7113 9.82933 64.7647 9.84C65.0847 9.86133 65.5327 9.85066 66.1087 9.808C66.6847 9.75466 67.3087 9.66933 67.9807 9.552C68.6527 9.43467 69.3087 9.29066 69.9487 9.12C70.5994 8.94933 71.154 8.74666 71.6127 8.512C71.7194 8.46933 71.778 8.48 71.7887 8.544L71.8207 8.768L71.8687 9.12C71.8687 9.17333 71.858 9.22133 71.8367 9.264C71.826 9.296 71.7833 9.328 71.7087 9.36C71.3567 9.52 70.882 9.68533 70.2847 9.856C69.698 10.016 69.0473 10.1707 68.3327 10.32C67.6287 10.4587 66.9247 10.576 66.2207 10.672C65.5167 10.768 64.8767 10.8213 64.3007 10.832ZM72.4767 14.16C72.434 14.16 72.4127 14.1333 72.4127 14.08V2.528C72.4127 2.12266 72.3967 1.74933 72.3647 1.408C72.3434 1.056 72.306 0.826664 72.2527 0.719997C72.2314 0.666664 72.2314 0.629331 72.2527 0.607998C72.2847 0.575998 72.322 0.559998 72.3647 0.559998C72.4287 0.559998 72.5354 0.565331 72.6847 0.575997C72.8447 0.575997 72.9993 0.581331 73.1487 0.591997C73.298 0.591997 73.3834 0.591997 73.4047 0.591997C73.458 0.591997 73.4847 0.634664 73.4847 0.719997C73.4527 1.11466 73.4314 1.46133 73.4207 1.76C73.4207 2.048 73.4207 2.384 73.4207 2.768V13.76C73.4207 13.92 73.41 14.016 73.3887 14.048C73.378 14.08 73.346 14.1013 73.2927 14.112L72.4767 14.16Z" fill="black"/>
<path d="M80.9756 10.288L80.5436 9.92C80.5009 9.87733 80.5169 9.82933 80.5916 9.776C80.6022 9.76533 80.6076 9.76 80.6076 9.76C81.3436 9.216 82.0156 8.608 82.6236 7.936C83.2316 7.25333 83.7489 6.54933 84.1756 5.824C84.6129 5.09866 84.9276 4.39466 85.1196 3.712C85.2049 3.40266 85.2849 3.056 85.3596 2.672C85.4342 2.288 85.4716 1.99466 85.4716 1.792C85.4716 1.728 85.4876 1.68533 85.5196 1.664C85.5516 1.632 85.5836 1.62666 85.6156 1.648L86.7196 1.92C86.7729 1.93066 86.7942 1.98933 86.7836 2.096C86.7409 2.24533 86.6769 2.44266 86.5916 2.688C86.5062 2.93333 86.4209 3.184 86.3356 3.44C86.2502 3.68533 86.1756 3.89866 86.1116 4.08C86.0262 4.29333 85.9302 4.52266 85.8236 4.768C85.7169 5.00266 85.5996 5.248 85.4716 5.504C85.9836 5.888 86.5116 6.29866 87.0556 6.736C87.5996 7.17333 88.0956 7.584 88.5436 7.968C88.9916 8.352 89.3276 8.66666 89.5516 8.912C89.5942 8.96533 89.6262 9.02933 89.6476 9.104C89.6796 9.168 89.6689 9.23733 89.6156 9.312C89.5196 9.42933 89.4129 9.536 89.2956 9.632C89.1889 9.728 89.0769 9.824 88.9596 9.92C88.8956 9.97333 88.8422 9.96267 88.7996 9.888C88.6289 9.632 88.3996 9.33866 88.1116 9.008C87.8236 8.67733 87.5036 8.336 87.1516 7.984C86.8102 7.632 86.4582 7.296 86.0956 6.976C85.7436 6.656 85.4129 6.37866 85.1036 6.144C84.7089 6.80533 84.2129 7.49333 83.6156 8.208C83.0289 8.912 82.3142 9.6 81.4716 10.272C81.4182 10.3147 81.3436 10.352 81.2476 10.384C81.1622 10.416 81.0716 10.384 80.9756 10.288ZM91.1836 14.16C91.1409 14.16 91.1196 14.1333 91.1196 14.08V2.528C91.1196 2.12266 91.1036 1.74933 91.0716 1.408C91.0502 1.056 91.0129 0.826664 90.9596 0.719997C90.9382 0.666664 90.9382 0.629331 90.9596 0.607998C90.9916 0.575998 91.0289 0.559998 91.0716 0.559998C91.1356 0.559998 91.2422 0.565331 91.3916 0.575997C91.5516 0.575997 91.7062 0.581331 91.8556 0.591997C92.0049 0.591997 92.0902 0.591997 92.1116 0.591997C92.1649 0.591997 92.1916 0.634664 92.1916 0.719997C92.1596 1.11466 92.1382 1.46133 92.1276 1.76C92.1276 2.048 92.1276 2.384 92.1276 2.768V13.76C92.1276 13.92 92.1169 14.016 92.0956 14.048C92.0849 14.08 92.0529 14.1013 91.9996 14.112L91.1836 14.16Z" fill="black"/>
<path d="M95.1892 8.752L94.7892 8.4C94.7465 8.35733 94.7625 8.30933 94.8372 8.256C94.8478 8.24533 94.8532 8.24 94.8532 8.24C95.6638 7.728 96.3518 7.15733 96.9172 6.528C97.4825 5.888 97.9145 5.232 98.2132 4.56C98.5225 3.888 98.6878 3.24266 98.7092 2.624C98.5065 2.63466 98.2985 2.64533 98.0852 2.656C97.8825 2.66666 97.6852 2.68266 97.4932 2.704C97.2265 2.72533 96.9812 2.752 96.7572 2.784C96.5438 2.80533 96.3092 2.832 96.0532 2.864C95.9465 2.87466 95.8772 2.864 95.8452 2.832C95.8132 2.78933 95.7865 2.74133 95.7652 2.688C95.7545 2.67733 95.7492 2.66666 95.7492 2.656C95.7065 2.53866 95.6745 2.448 95.6532 2.384C95.6425 2.30933 95.6158 2.18133 95.5732 2C95.5625 1.97866 95.5678 1.952 95.5892 1.92C95.6105 1.888 95.6478 1.872 95.7012 1.872C95.9998 1.89333 96.2932 1.90933 96.5812 1.92C96.8799 1.92 97.2158 1.91466 97.5892 1.904C97.9838 1.88266 98.3145 1.872 98.5812 1.872C98.8585 1.86133 99.1252 1.85066 99.3812 1.84C99.6372 1.81866 99.9359 1.79733 100.277 1.776C100.757 1.744 101.179 1.70666 101.541 1.664C101.915 1.61066 102.213 1.568 102.437 1.536C102.469 1.52533 102.507 1.53066 102.549 1.552C102.592 1.56266 102.619 1.59466 102.629 1.648C102.651 1.75466 102.667 1.86666 102.677 1.984C102.699 2.10133 102.72 2.23466 102.741 2.384C102.763 2.50133 102.699 2.56 102.549 2.56H100.629C100.544 2.56 100.432 2.56 100.293 2.56C100.165 2.56 100.021 2.56533 99.8612 2.576C99.8292 2.864 99.7598 3.19466 99.6532 3.568C99.5465 3.93066 99.3919 4.32533 99.1892 4.752C99.4985 4.944 99.8398 5.16266 100.213 5.408C100.587 5.65333 100.949 5.89866 101.301 6.144C101.664 6.38933 101.984 6.61333 102.261 6.816C102.549 7.008 102.752 7.16266 102.869 7.28C102.912 7.312 102.949 7.36533 102.981 7.44C103.024 7.504 103.013 7.57333 102.949 7.648C102.896 7.712 102.8 7.81866 102.661 7.968C102.533 8.11733 102.432 8.224 102.357 8.288C102.272 8.34133 102.208 8.33066 102.165 8.256C101.952 7.97866 101.648 7.664 101.253 7.312C100.859 6.94933 100.448 6.59733 100.021 6.256C99.5945 5.904 99.2052 5.61066 98.8532 5.376C98.5332 5.92 98.1172 6.48 97.6052 7.056C97.0932 7.632 96.4532 8.192 95.6852 8.736C95.6318 8.77866 95.5625 8.816 95.4772 8.848C95.3918 8.86933 95.2959 8.83733 95.1892 8.752ZM104.645 15.2C104.603 15.2 104.581 15.1733 104.581 15.12V10.912C104.581 10.8373 104.571 10.7893 104.549 10.768C104.539 10.7467 104.485 10.736 104.389 10.736C104.144 10.736 103.803 10.7413 103.365 10.752C102.928 10.7627 102.464 10.7787 101.973 10.8C101.483 10.8107 101.019 10.8267 100.581 10.848C100.155 10.8587 99.8292 10.8693 99.6052 10.88C99.3385 10.9013 99.0452 10.9227 98.7252 10.944C98.4158 10.9653 98.1278 10.9867 97.8612 11.008C97.7545 11.0187 97.6852 11.008 97.6532 10.976C97.6212 10.9333 97.5945 10.8853 97.5732 10.832C97.5625 10.8213 97.5572 10.8107 97.5572 10.8L97.3972 10.112C97.3865 10.0907 97.3919 10.064 97.4132 10.032C97.4345 10 97.4719 9.98933 97.5252 10C97.6959 10.0213 98.0052 10.0373 98.4532 10.048C98.9119 10.0587 99.4345 10.064 100.021 10.064C100.608 10.0533 101.2 10.0373 101.797 10.016C102.395 9.99466 102.933 9.968 103.413 9.936C103.893 9.89333 104.24 9.84533 104.453 9.792C104.464 9.792 104.48 9.78666 104.501 9.776C104.523 9.776 104.544 9.776 104.565 9.776C104.587 9.76533 104.624 9.76533 104.677 9.776L105.621 9.92C105.675 9.93067 105.701 9.952 105.701 9.984C105.712 10.0053 105.717 10.0267 105.717 10.048C105.717 10.0587 105.717 10.064 105.717 10.064C105.685 10.3627 105.659 10.6667 105.637 10.976C105.627 11.2853 105.621 11.568 105.621 11.824L105.605 14.896C105.605 15.024 105.579 15.0987 105.525 15.12C105.483 15.1413 105.435 15.1573 105.381 15.168L104.645 15.2ZM104.709 8.864C104.667 8.864 104.645 8.83733 104.645 8.784V2.512C104.645 2.10666 104.629 1.73333 104.597 1.392C104.576 1.05066 104.539 0.826664 104.485 0.719997C104.464 0.666664 104.464 0.629331 104.485 0.607998C104.517 0.575998 104.555 0.559998 104.597 0.559998C104.704 0.559998 104.859 0.559998 105.061 0.559998C105.275 0.559998 105.467 0.565331 105.637 0.575997C105.691 0.575997 105.717 0.618664 105.717 0.703998C105.685 1.09866 105.664 1.44533 105.653 1.744C105.653 2.032 105.653 2.368 105.653 2.752V4.704C105.941 4.704 106.251 4.69333 106.581 4.672C106.923 4.64 107.237 4.608 107.525 4.576C107.824 4.53333 108.048 4.49066 108.197 4.448C108.293 4.43733 108.347 4.46933 108.357 4.544C108.379 4.68266 108.395 4.82133 108.405 4.96C108.416 5.09866 108.427 5.23733 108.437 5.376C108.437 5.49333 108.389 5.552 108.293 5.552C108.144 5.53066 107.915 5.52 107.605 5.52C107.296 5.50933 106.965 5.504 106.613 5.504C106.272 5.504 105.952 5.51466 105.653 5.536V8.464C105.653 8.624 105.643 8.72 105.621 8.752C105.611 8.784 105.579 8.80533 105.525 8.816L104.709 8.864Z" fill="black"/>
<path d="M113.3 7.424C112.692 7.43466 112.132 7.32266 111.62 7.088C111.119 6.84266 110.713 6.496 110.404 6.048C110.105 5.6 109.956 5.08266 109.956 4.496C109.956 3.92 110.111 3.408 110.42 2.96C110.729 2.50133 111.135 2.13866 111.636 1.872C112.148 1.59466 112.708 1.45066 113.316 1.44C113.935 1.41866 114.495 1.52533 114.996 1.76C115.508 1.984 115.913 2.32 116.212 2.768C116.521 3.20533 116.676 3.73866 116.676 4.368C116.676 4.93333 116.521 5.44533 116.212 5.904C115.903 6.36266 115.492 6.72533 114.98 6.992C114.468 7.25866 113.908 7.40266 113.3 7.424ZM114.18 14.96C113.849 14.9493 113.588 14.8373 113.396 14.624C113.204 14.4107 113.108 14.0747 113.108 13.616V12.8C113.108 12.6293 113.097 12.4587 113.076 12.288C113.055 12.1173 113.007 11.9627 112.932 11.824C112.911 11.7813 112.911 11.7387 112.932 11.696C112.953 11.6533 113.001 11.632 113.076 11.632C113.353 11.6427 113.711 11.6533 114.148 11.664C114.585 11.664 115.065 11.664 115.588 11.664C116.111 11.664 116.628 11.6587 117.14 11.648C117.663 11.6267 118.137 11.6053 118.564 11.584C119.001 11.5627 119.348 11.5307 119.604 11.488L119.652 10.112C119.652 10.1013 119.652 10.0853 119.652 10.064C119.652 10.0107 119.647 9.97867 119.636 9.968C119.625 9.94667 119.577 9.936 119.492 9.936C119.257 9.936 118.921 9.94133 118.484 9.952C118.047 9.96266 117.577 9.97866 117.076 10C116.585 10.0107 116.116 10.0267 115.668 10.048C115.22 10.0587 114.857 10.0747 114.58 10.096L113.348 10.176C113.231 10.1867 113.156 10.176 113.124 10.144C113.092 10.1013 113.065 10.0427 113.044 9.968L112.948 9.376C112.927 9.29066 112.969 9.25333 113.076 9.264C113.257 9.27466 113.535 9.28533 113.908 9.296C114.292 9.30666 114.729 9.312 115.22 9.312C115.721 9.30133 116.239 9.28533 116.772 9.264C117.305 9.24266 117.817 9.216 118.308 9.184C118.799 9.152 119.225 9.10933 119.588 9.056C119.609 9.056 119.631 9.05066 119.652 9.04C119.727 9.02933 119.785 9.02933 119.828 9.04L120.644 9.168C120.697 9.17866 120.724 9.2 120.724 9.232C120.735 9.25333 120.74 9.27466 120.74 9.296C120.74 9.30666 120.74 9.312 120.74 9.312C120.687 9.792 120.644 10.2453 120.612 10.672C120.58 11.0987 120.548 11.552 120.516 12.032C120.505 12.1493 120.473 12.224 120.42 12.256C120.367 12.2773 120.313 12.288 120.26 12.288C119.908 12.288 119.471 12.2933 118.948 12.304C118.425 12.3147 117.871 12.3253 117.284 12.336C116.708 12.3467 116.143 12.3627 115.588 12.384C115.033 12.3947 114.543 12.4053 114.116 12.416V13.552C114.116 13.7973 114.137 13.952 114.18 14.016C114.233 14.0907 114.351 14.1333 114.532 14.144C115.225 14.1653 115.961 14.1707 116.74 14.16C117.519 14.1493 118.255 14.1227 118.948 14.08C119.385 14.0587 119.785 14.0267 120.148 13.984C120.511 13.9413 120.831 13.8827 121.108 13.808C121.215 13.7867 121.284 13.792 121.316 13.824C121.348 13.856 121.369 13.8987 121.38 13.952L121.476 14.624C121.487 14.6773 121.471 14.7253 121.428 14.768C121.385 14.8107 121.289 14.832 121.14 14.832C120.393 14.832 119.615 14.8373 118.804 14.848C117.993 14.8693 117.193 14.8853 116.404 14.896C115.625 14.9173 114.884 14.9387 114.18 14.96ZM113.316 6.624C113.967 6.60266 114.511 6.38933 114.948 5.984C115.385 5.57866 115.604 5.04 115.604 4.368C115.604 3.632 115.38 3.088 114.932 2.736C114.495 2.384 113.951 2.21866 113.3 2.24C112.66 2.26133 112.116 2.47466 111.668 2.88C111.22 3.28533 110.996 3.81866 110.996 4.48C110.996 5.184 111.22 5.72266 111.668 6.096C112.127 6.46933 112.676 6.64533 113.316 6.624ZM119.748 8.224C119.705 8.224 119.684 8.19733 119.684 8.144V2.512C119.684 2.10666 119.668 1.73333 119.636 1.392C119.615 1.05066 119.577 0.826664 119.524 0.719997C119.503 0.666664 119.503 0.629331 119.524 0.607998C119.556 0.575998 119.593 0.559998 119.636 0.559998C119.721 0.559998 119.865 0.559998 120.068 0.559998C120.281 0.559998 120.484 0.565331 120.676 0.575997C120.729 0.575997 120.756 0.618664 120.756 0.703998C120.724 1.09866 120.703 1.44533 120.692 1.744C120.692 2.032 120.692 2.368 120.692 2.752V7.824C120.692 7.984 120.681 8.08 120.66 8.112C120.649 8.144 120.617 8.16533 120.564 8.176L119.748 8.224Z" fill="black"/>
</svg>
