<svg width="66" height="16" viewBox="0 0 66 16" fill="none" xmlns="http://www.w3.org/2000/svg">
<path d="M0.449727 9.163L0.0247273 8.789C-0.0206061 8.74367 -0.00360607 8.69267 0.0757273 8.636C0.0870606 8.62467 0.0927273 8.619 0.0927273 8.619C0.727394 8.19967 1.32239 7.67267 1.87773 7.038C2.44439 6.392 2.94873 5.71767 3.39073 5.015C3.83273 4.31233 4.17839 3.655 4.42773 3.043C4.50706 2.85033 4.57506 2.62933 4.63173 2.38C4.69973 2.11933 4.75073 1.87 4.78473 1.632C4.83006 1.394 4.85273 1.20133 4.85273 1.054C4.85273 0.952 4.90939 0.906666 5.02273 0.918C5.14739 0.940667 5.32306 0.986 5.54973 1.054C5.77639 1.122 5.97473 1.18433 6.14473 1.241C6.21273 1.275 6.22973 1.33733 6.19573 1.428C6.11639 1.65467 6.00873 1.94933 5.87273 2.312C5.73673 2.67467 5.61206 2.992 5.49873 3.264C5.41939 3.44533 5.32873 3.638 5.22673 3.842C5.13606 4.046 5.02839 4.26133 4.90373 4.488C5.24373 4.74867 5.61773 5.03767 6.02573 5.355C6.44506 5.661 6.85306 5.967 7.24973 6.273C7.64639 6.579 7.99773 6.85667 8.30373 7.106C8.60973 7.35533 8.83073 7.548 8.96673 7.684C9.01206 7.718 9.04606 7.77467 9.06873 7.854C9.10273 7.922 9.09139 7.99567 9.03473 8.075C8.98939 8.143 8.88173 8.25067 8.71173 8.398C8.55306 8.54533 8.43973 8.653 8.37173 8.721C8.28106 8.77767 8.21306 8.76633 8.16773 8.687C7.99773 8.449 7.75973 8.17133 7.45373 7.854C7.15906 7.53667 6.83606 7.208 6.48473 6.868C6.14473 6.528 5.79906 6.21067 5.44773 5.916C5.09639 5.62133 4.78473 5.37767 4.51273 5.185C4.13873 5.80833 3.66273 6.46567 3.08473 7.157C2.51806 7.837 1.81539 8.49433 0.976727 9.129C0.920061 9.17433 0.846394 9.214 0.755727 9.248C0.665061 9.282 0.563061 9.25367 0.449727 9.163ZM10.7347 11.135C10.6894 11.135 10.6667 11.1067 10.6667 11.05V2.074C10.6667 1.64333 10.6497 1.24667 10.6157 0.884C10.5931 0.521333 10.5534 0.283333 10.4967 0.17C10.4741 0.113333 10.4741 0.0736667 10.4967 0.0510004C10.5307 0.0170001 10.5704 0 10.6157 0C10.7744 0 10.9614 0 11.1767 0C11.3921 0 11.5734 0.00566659 11.7207 0.0169998C11.7774 0.0169998 11.8057 0.0623332 11.8057 0.153C11.7717 0.572333 11.7491 0.940667 11.7377 1.258C11.7377 1.564 11.7377 1.921 11.7377 2.329V4.896C12.0551 4.896 12.3951 4.88467 12.7577 4.862C13.1204 4.83933 13.4547 4.811 13.7607 4.777C14.0781 4.743 14.3104 4.70333 14.4577 4.658C14.5597 4.64667 14.6164 4.68067 14.6277 4.76C14.6504 4.90733 14.6617 5.05467 14.6617 5.202C14.6731 5.34933 14.6844 5.49667 14.6957 5.644C14.6957 5.76867 14.6447 5.831 14.5427 5.831C14.3841 5.80833 14.1404 5.797 13.8117 5.797C13.4944 5.78567 13.1487 5.78 12.7747 5.78C12.4007 5.78 12.0551 5.79133 11.7377 5.814V10.71C11.7377 10.88 11.7264 10.982 11.7037 11.016C11.6924 11.05 11.6584 11.0727 11.6017 11.084L10.7347 11.135ZM5.26073 15.13C4.89806 15.13 4.62039 14.994 4.42773 14.722C4.24639 14.4613 4.15573 14.0873 4.15573 13.6V12.087C4.15573 11.6903 4.13873 11.3617 4.10473 11.101C4.07073 10.8403 4.03673 10.6533 4.00273 10.54C3.96873 10.4267 4.00839 10.37 4.12173 10.37C4.18973 10.37 4.30306 10.3757 4.46173 10.387C4.63173 10.387 4.79039 10.3927 4.93773 10.404C5.09639 10.4153 5.18139 10.421 5.19273 10.421C5.24939 10.421 5.27773 10.4777 5.27773 10.591C5.25506 10.8517 5.23806 11.084 5.22673 11.288C5.22673 11.4807 5.22673 11.7243 5.22673 12.019V13.498C5.22673 13.7813 5.26073 13.9797 5.32873 14.093C5.40806 14.195 5.53273 14.2517 5.70273 14.263C6.02006 14.2743 6.40539 14.28 6.85873 14.28C7.32339 14.2913 7.80506 14.2913 8.30373 14.28C8.81373 14.2573 9.29539 14.2347 9.74873 14.212C10.2247 14.1893 10.7177 14.1497 11.2277 14.093C11.7377 14.025 12.1287 13.957 12.4007 13.889C12.5141 13.8663 12.5877 13.872 12.6217 13.906C12.6557 13.94 12.6784 13.9853 12.6897 14.042L12.8257 14.841C12.8257 14.8977 12.8087 14.943 12.7747 14.977C12.7521 15.011 12.6614 15.028 12.5027 15.028C11.3807 15.028 10.2247 15.045 9.03473 15.079C7.84473 15.113 6.58673 15.13 5.26073 15.13Z" fill="black"/>
<path d="M18.7574 7.701C18.7347 7.701 18.7064 7.69533 18.6724 7.684C18.6384 7.67267 18.6214 7.63867 18.6214 7.582C18.6214 7.55933 18.6214 7.531 18.6214 7.497C18.6214 7.41767 18.6214 7.31 18.6214 7.174C18.6214 7.02667 18.6157 6.81133 18.6044 6.528C18.6044 6.23333 18.5931 5.831 18.5704 5.321C18.5477 4.79967 18.5137 4.131 18.4684 3.315C18.4571 3.12233 18.4344 2.907 18.4004 2.669C18.3664 2.431 18.3267 2.21567 18.2814 2.023C18.2474 1.83033 18.2077 1.70567 18.1624 1.649C18.1171 1.581 18.1114 1.51867 18.1454 1.462C18.1907 1.40533 18.2417 1.377 18.2984 1.377C18.4797 1.377 18.6724 1.38267 18.8764 1.394C19.0804 1.40533 19.2731 1.411 19.4544 1.411C19.9077 1.411 20.4347 1.40533 21.0354 1.394C21.6474 1.38267 22.2651 1.36567 22.8884 1.343C23.5231 1.32033 24.1067 1.292 24.6394 1.258C25.1834 1.224 25.6141 1.17867 25.9314 1.122C25.9427 1.122 25.9541 1.122 25.9654 1.122C26.0221 1.11067 26.0674 1.105 26.1014 1.105C26.1467 1.105 26.2091 1.11067 26.2884 1.122L27.1214 1.309C27.1781 1.33167 27.2121 1.36 27.2234 1.394C27.2347 1.41667 27.2347 1.45633 27.2234 1.513C27.2007 1.67167 27.1724 1.88133 27.1384 2.142C27.1157 2.39133 27.0931 2.64067 27.0704 2.89C27.0477 3.128 27.0307 3.30933 27.0194 3.434C26.9627 4.12533 26.9174 4.77133 26.8834 5.372C26.8494 5.97267 26.8211 6.613 26.7984 7.293C26.7984 7.34967 26.7701 7.40067 26.7134 7.446C26.6567 7.49133 26.6001 7.514 26.5434 7.514C26.4641 7.50267 26.2657 7.497 25.9484 7.497C25.6311 7.497 25.2457 7.497 24.7924 7.497C24.3391 7.497 23.8517 7.50267 23.3304 7.514C22.8204 7.52533 22.3161 7.53667 21.8174 7.548C21.3301 7.55933 20.8881 7.57067 20.4914 7.582C20.1061 7.59333 19.8171 7.60467 19.6244 7.616C19.5564 7.616 19.4544 7.62167 19.3184 7.633C19.1824 7.64433 19.0577 7.66133 18.9444 7.684C18.8424 7.69533 18.7801 7.701 18.7574 7.701ZM19.6074 6.698C19.8454 6.70933 20.1741 6.72067 20.5934 6.732C21.0127 6.732 21.4717 6.732 21.9704 6.732C22.4804 6.72067 22.9847 6.70933 23.4834 6.698C23.9821 6.67533 24.4354 6.65267 24.8434 6.63C25.2627 6.60733 25.5857 6.58467 25.8124 6.562L25.9484 2.278C25.9597 2.16467 25.9087 2.108 25.7954 2.108L19.5054 2.278L19.6074 6.698ZM16.3094 12.733C16.1847 12.7443 16.0997 12.733 16.0544 12.699C16.0091 12.665 15.9751 12.614 15.9524 12.546C15.9071 12.4213 15.8674 12.2967 15.8334 12.172C15.7994 12.036 15.7597 11.8717 15.7144 11.679C15.7031 11.6563 15.7087 11.628 15.7314 11.594C15.7541 11.5487 15.7937 11.5317 15.8504 11.543C16.2811 11.5997 16.8704 11.6393 17.6184 11.662C18.3664 11.6733 19.1881 11.679 20.0834 11.679C20.4461 11.679 20.8144 11.679 21.1884 11.679C21.5737 11.679 21.9647 11.6733 22.3614 11.662V10.268C22.3614 9.826 22.3444 9.44067 22.3104 9.112C22.2764 8.78333 22.2367 8.56233 22.1914 8.449C22.1461 8.33567 22.1857 8.279 22.3104 8.279H23.3304C23.3984 8.279 23.4324 8.32433 23.4324 8.415C23.4324 8.42633 23.4324 8.43767 23.4324 8.449C23.4097 8.74367 23.3927 9.027 23.3814 9.299C23.3814 9.571 23.3757 9.85433 23.3644 10.149L23.3134 11.645C24.1861 11.6223 25.0191 11.594 25.8124 11.56C26.6171 11.5147 27.3311 11.4637 27.9544 11.407C28.5891 11.3503 29.0821 11.2937 29.4334 11.237C29.5467 11.2143 29.6204 11.22 29.6544 11.254C29.6884 11.288 29.7111 11.3333 29.7224 11.39L29.8244 12.206C29.8244 12.2627 29.8074 12.3137 29.7734 12.359C29.7394 12.4043 29.6487 12.427 29.5014 12.427C29.1161 12.4157 28.6684 12.41 28.1584 12.41C27.6484 12.41 27.1044 12.41 26.5264 12.41C25.1097 12.41 23.7384 12.427 22.4124 12.461C21.0864 12.4837 19.8964 12.5177 18.8424 12.563C17.7884 12.6083 16.9441 12.665 16.3094 12.733Z" fill="black"/>
<path d="M40.6867 9.18C39.9954 9.19133 39.3607 9.04967 38.7827 8.755C38.2047 8.46033 37.7401 8.041 37.3887 7.497C37.0487 6.94167 36.8787 6.307 36.8787 5.593C36.8787 4.90167 37.0487 4.284 37.3887 3.74C37.7287 3.18467 38.1877 2.74267 38.7657 2.414C39.3551 2.074 40.0011 1.89833 40.7037 1.887C41.4064 1.86433 42.0411 1.989 42.6077 2.261C43.1857 2.533 43.6447 2.93533 43.9847 3.468C44.3247 4.00067 44.4947 4.658 44.4947 5.44C44.4947 6.14267 44.3247 6.77167 43.9847 7.327C43.6447 7.88233 43.1857 8.32433 42.6077 8.653C42.0297 8.98167 41.3894 9.15733 40.6867 9.18ZM40.7037 8.211C41.2024 8.18833 41.6557 8.06367 42.0637 7.837C42.4717 7.599 42.7947 7.276 43.0327 6.868C43.2821 6.44867 43.4067 5.97833 43.4067 5.457C43.4067 4.879 43.2821 4.386 43.0327 3.978C42.7947 3.57 42.4717 3.264 42.0637 3.06C41.6557 2.84467 41.2024 2.74833 40.7037 2.771C40.2051 2.78233 39.7461 2.91267 39.3267 3.162C38.9074 3.4 38.5731 3.72867 38.3237 4.148C38.0744 4.556 37.9497 5.032 37.9497 5.576C37.9497 6.14267 38.0744 6.62433 38.3237 7.021C38.5844 7.41767 38.9244 7.718 39.3437 7.922C39.7631 8.126 40.2164 8.22233 40.7037 8.211ZM47.3677 14.45C47.3224 14.45 47.2997 14.4217 47.2997 14.365V2.091C47.2997 1.66033 47.2827 1.26367 47.2487 0.901C47.2261 0.527 47.1864 0.283333 47.1297 0.17C47.1071 0.113333 47.1071 0.0736667 47.1297 0.0510004C47.1637 0.0170001 47.2034 0 47.2487 0C47.3167 0 47.4301 0.00566659 47.5887 0.0169998C47.7587 0.0169998 47.9231 0.0226664 48.0817 0.0339996C48.2404 0.0339996 48.3311 0.0339996 48.3537 0.0339996C48.4104 0.0339996 48.4387 0.079333 48.4387 0.17C48.4047 0.589333 48.3821 0.957667 48.3707 1.275C48.3707 1.581 48.3707 1.938 48.3707 2.346V14.025C48.3707 14.195 48.3594 14.297 48.3367 14.331C48.3254 14.365 48.2914 14.3877 48.2347 14.399L47.3677 14.45Z" fill="black"/>
<path d="M55.0367 15.3C55.0141 15.3 54.9857 15.2943 54.9517 15.283C54.9177 15.2717 54.9007 15.2377 54.9007 15.181C54.9007 15.1583 54.9007 15.1073 54.9007 15.028C54.9007 14.892 54.9007 14.637 54.9007 14.263C54.9007 13.889 54.8894 13.2487 54.8667 12.342C54.8554 12.0473 54.8214 11.7413 54.7647 11.424C54.7081 11.1067 54.6514 10.9083 54.5947 10.829C54.5494 10.761 54.5381 10.7043 54.5607 10.659C54.5947 10.6137 54.6514 10.591 54.7307 10.591L55.8187 10.642C56.1021 10.6533 56.4591 10.659 56.8897 10.659C57.3204 10.659 57.7737 10.6533 58.2497 10.642C58.7371 10.6307 59.2074 10.6193 59.6607 10.608C60.1254 10.5853 60.5391 10.5627 60.9017 10.54C61.2644 10.5173 61.5364 10.4947 61.7177 10.472C61.7404 10.472 61.7631 10.4663 61.7857 10.455C61.8651 10.4437 61.9331 10.4437 61.9897 10.455L62.8737 10.574C62.9644 10.5853 62.9984 10.6533 62.9757 10.778C62.9644 10.9253 62.9474 11.118 62.9247 11.356C62.9134 11.5827 62.9021 11.8093 62.8907 12.036C62.8794 12.2513 62.8737 12.4157 62.8737 12.529L62.8227 14.994C62.8227 15.1527 62.7377 15.232 62.5677 15.232C62.2391 15.2207 61.8254 15.215 61.3267 15.215C60.8394 15.215 60.3124 15.215 59.7457 15.215C59.1904 15.215 58.6407 15.215 58.0967 15.215C57.5641 15.215 57.0937 15.215 56.6857 15.215C56.2777 15.2263 55.9831 15.2377 55.8017 15.249L55.0367 15.3ZM55.2577 6.29C54.9291 6.27867 54.7194 6.15967 54.6287 5.933C54.5494 5.70633 54.5097 5.42867 54.5097 5.1V4.25C54.5097 4.06867 54.4927 3.86467 54.4587 3.638C54.4361 3.4 54.3907 3.19033 54.3227 3.009C54.3001 2.975 54.3057 2.92967 54.3397 2.873C54.3737 2.805 54.4304 2.78233 54.5097 2.805C54.6344 2.82767 54.9064 2.85033 55.3257 2.873C55.7451 2.88433 56.2437 2.89 56.8217 2.89C57.3997 2.87867 57.9891 2.86733 58.5897 2.856C59.2017 2.84467 59.7627 2.82767 60.2727 2.805C60.7827 2.771 61.1737 2.73133 61.4457 2.686L61.5137 1.207C61.5137 1.08233 61.4571 1.02 61.3437 1.02C61.0831 1.02 60.7487 1.02567 60.3407 1.037C59.9441 1.037 59.5191 1.04267 59.0657 1.054C58.6124 1.06533 58.1761 1.07667 57.7567 1.088C57.3487 1.09933 56.9974 1.11067 56.7027 1.122C56.4421 1.13333 56.1304 1.15033 55.7677 1.173C55.4051 1.18433 55.0991 1.20133 54.8497 1.224C54.6797 1.23533 54.5777 1.173 54.5437 1.037L54.3567 0.391C54.3454 0.368333 54.3511 0.34 54.3737 0.306C54.3964 0.272 54.4361 0.260666 54.4927 0.272C54.6854 0.283333 54.9801 0.294667 55.3767 0.306C55.7847 0.317333 56.2494 0.323 56.7707 0.323C57.3034 0.323 57.8531 0.317333 58.4197 0.306C58.9977 0.294667 59.5474 0.272 60.0687 0.238C60.6014 0.204 61.0604 0.158666 61.4457 0.102C61.4684 0.102 61.4911 0.0963331 61.5137 0.0849999C61.5931 0.0736667 61.6554 0.0736667 61.7007 0.0849999L62.6527 0.272C62.7434 0.283333 62.7774 0.334333 62.7547 0.425L62.6187 1.309C62.5734 1.717 62.5337 2.05133 62.4997 2.312C62.4771 2.56133 62.4544 2.86167 62.4317 3.213C62.4204 3.33767 62.3864 3.42267 62.3297 3.468C62.2731 3.502 62.2164 3.519 62.1597 3.519C61.7744 3.519 61.3041 3.52467 60.7487 3.536C60.1934 3.54733 59.6041 3.55867 58.9807 3.57C58.3574 3.58133 57.7454 3.59833 57.1447 3.621C56.5554 3.63233 56.0341 3.64367 55.5807 3.655V4.981C55.5807 5.17367 55.5977 5.29833 55.6317 5.355C55.6771 5.41167 55.7564 5.44 55.8697 5.44C57.3317 5.49667 58.7937 5.47967 60.2557 5.389C60.7317 5.36633 61.1794 5.338 61.5987 5.304C62.0181 5.27 62.4147 5.219 62.7887 5.151C62.9021 5.12833 62.9757 5.134 63.0097 5.168C63.0437 5.202 63.0664 5.24733 63.0777 5.304C63.1004 5.39467 63.1117 5.49667 63.1117 5.61C63.1231 5.712 63.1344 5.82533 63.1457 5.95C63.1457 6.04067 63.1231 6.103 63.0777 6.137C63.0437 6.15967 62.9644 6.171 62.8397 6.171C62.0464 6.171 61.2021 6.17667 60.3067 6.188C59.4227 6.19933 58.5444 6.21633 57.6717 6.239C56.8104 6.25033 56.0057 6.26733 55.2577 6.29ZM55.9037 14.314C56.0624 14.3253 56.3401 14.331 56.7367 14.331C57.1334 14.3423 57.5811 14.3423 58.0797 14.331C58.5897 14.331 59.0941 14.3253 59.5927 14.314C60.1027 14.3027 60.5561 14.2913 60.9527 14.28C61.3494 14.2687 61.6327 14.2517 61.8027 14.229L61.8367 11.526C61.8367 11.4467 61.8254 11.4013 61.8027 11.39C61.7801 11.3673 61.7404 11.356 61.6837 11.356L55.9037 11.458V14.314ZM51.9257 9.078C51.8011 9.08933 51.7161 9.078 51.6707 9.044C51.6254 9.01 51.5914 8.959 51.5687 8.891C51.5234 8.76633 51.4837 8.64167 51.4497 8.517C51.4157 8.39233 51.3761 8.23367 51.3307 8.041C51.3194 8.01833 51.3251 7.99 51.3477 7.956C51.3704 7.91067 51.4101 7.89367 51.4667 7.905C51.8974 7.96167 52.4867 8.007 53.2347 8.041C53.9827 8.06367 54.8044 8.06933 55.6997 8.058C56.3911 8.058 57.1277 8.05233 57.9097 8.041C58.6917 8.01833 59.4681 7.99567 60.2387 7.973C61.0207 7.939 61.7574 7.905 62.4487 7.871C63.1514 7.837 63.7691 7.79733 64.3017 7.752C64.8457 7.70667 65.2651 7.65567 65.5597 7.599C65.6731 7.57633 65.7467 7.582 65.7807 7.616C65.8147 7.65 65.8374 7.69533 65.8487 7.752L65.9507 8.5C65.9621 8.65867 65.8544 8.73233 65.6277 8.721C65.2764 8.69833 64.8004 8.687 64.1997 8.687C63.6104 8.687 62.9701 8.69267 62.2787 8.704C61.6667 8.704 61.0377 8.71533 60.3917 8.738C59.7571 8.74933 59.1564 8.76067 58.5897 8.772C58.0344 8.78333 57.5527 8.79467 57.1447 8.806C56.0001 8.84 54.9687 8.87967 54.0507 8.925C53.1327 8.97033 52.4244 9.02133 51.9257 9.078Z" fill="black"/>
</svg>
