<svg width="49" height="16" viewBox="0 0 49 16" fill="none" xmlns="http://www.w3.org/2000/svg">
<path d="M8.84 14.008C8.79467 14.008 8.772 13.9797 8.772 13.923V7.412L7.939 7.429C7.67833 7.44033 7.378 7.45733 7.038 7.48C6.698 7.49133 6.392 7.50833 6.12 7.531C5.80267 7.91633 5.41167 8.22233 4.947 8.449C4.49367 8.67567 3.995 8.79467 3.451 8.806C2.81633 8.81733 2.23833 8.687 1.717 8.415C1.19567 8.13167 0.776333 7.74067 0.459 7.242C0.153 6.732 0 6.14833 0 5.491C0 4.845 0.153 4.267 0.459 3.757C0.776333 3.247 1.19567 2.839 1.717 2.533C2.24967 2.227 2.83333 2.06833 3.468 2.057C4.06867 2.04567 4.61833 2.15333 5.117 2.38C5.61567 2.60667 6.018 2.93533 6.324 3.366C6.67533 3.37733 7.072 3.37733 7.514 3.366C7.96733 3.35467 8.38667 3.33767 8.772 3.315V2.516C8.772 2.08533 8.76067 1.68867 8.738 1.326C8.71533 0.963333 8.67567 0.725333 8.619 0.612C8.59633 0.555334 8.59633 0.515667 8.619 0.493C8.653 0.459 8.69267 0.442 8.738 0.442L9.741 0.459C9.79767 0.481667 9.826 0.527 9.826 0.594999C9.80333 0.923667 9.792 1.21833 9.792 1.479C9.792 1.73967 9.792 2.01167 9.792 2.295C9.792 2.363 9.792 2.43667 9.792 2.516C9.792 2.59533 9.792 2.68033 9.792 2.771V13.583C9.792 13.753 9.78067 13.855 9.758 13.889C9.74667 13.923 9.71267 13.9457 9.656 13.957C9.622 13.957 9.54267 13.9627 9.418 13.974C9.30467 13.974 9.19133 13.9797 9.078 13.991C8.96467 14.0023 8.88533 14.008 8.84 14.008ZM3.468 7.871C3.91 7.84833 4.30667 7.72933 4.658 7.514C5.02067 7.29867 5.304 7.004 5.508 6.63C5.712 6.256 5.814 5.831 5.814 5.355C5.814 4.58433 5.58733 3.98367 5.134 3.553C4.692 3.111 4.13667 2.90133 3.468 2.924C3.026 2.93533 2.62367 3.05433 2.261 3.281C1.89833 3.50767 1.60933 3.808 1.394 4.182C1.17867 4.556 1.071 4.98667 1.071 5.474C1.071 5.97267 1.17867 6.40333 1.394 6.766C1.60933 7.12867 1.89833 7.40633 2.261 7.599C2.635 7.79167 3.03733 7.88233 3.468 7.871ZM11.407 14.45C11.3617 14.45 11.339 14.4217 11.339 14.365V2.074C11.339 1.64333 11.3277 1.24667 11.305 0.884C11.2937 0.521333 11.2597 0.283333 11.203 0.17C11.1803 0.113333 11.1803 0.0736667 11.203 0.0510004C11.237 0.0170001 11.2767 0 11.322 0L12.325 0.0169998C12.3817 0.0396668 12.41 0.0850003 12.41 0.153C12.3873 0.493 12.3703 0.799 12.359 1.071C12.359 1.343 12.359 1.62633 12.359 1.921C12.359 1.989 12.359 2.057 12.359 2.125C12.359 2.193 12.359 2.261 12.359 2.329V14.025C12.359 14.195 12.3477 14.297 12.325 14.331C12.3137 14.365 12.2797 14.3877 12.223 14.399C12.189 14.399 12.1097 14.399 11.985 14.399C11.8717 14.4103 11.7583 14.4217 11.645 14.433C11.5317 14.4443 11.4523 14.45 11.407 14.45ZM6.647 6.664C6.97567 6.67533 7.32133 6.67533 7.684 6.664C8.058 6.64133 8.42067 6.61867 8.772 6.596V4.114L7.939 4.131L6.732 4.216C6.84533 4.54467 6.902 4.91867 6.902 5.338C6.902 5.576 6.87933 5.80833 6.834 6.035C6.78867 6.25033 6.72633 6.46 6.647 6.664Z" fill="black"/>
<path d="M23.6366 15.725C22.9226 15.725 22.288 15.5947 21.7326 15.334C21.1886 15.0847 20.758 14.739 20.4406 14.297C20.1346 13.855 19.9816 13.345 19.9816 12.767C19.9816 12.2117 20.1516 11.7073 20.4916 11.254C20.8316 10.8007 21.285 10.4437 21.8516 10.183C22.4183 9.911 23.036 9.775 23.7046 9.775C24.3846 9.775 25.0023 9.88833 25.5576 10.115C26.1243 10.3303 26.572 10.659 26.9006 11.101C27.2406 11.5317 27.3993 12.0643 27.3766 12.699C27.3653 13.2883 27.1896 13.8097 26.8496 14.263C26.521 14.7163 26.0733 15.0733 25.5066 15.334C24.9513 15.5947 24.328 15.725 23.6366 15.725ZM15.5956 9.044L15.1706 8.67C15.1253 8.62467 15.1423 8.57367 15.2216 8.517C15.233 8.50567 15.2386 8.5 15.2386 8.5C16.0546 7.96733 16.763 7.34967 17.3636 6.647C17.9643 5.94433 18.4346 5.219 18.7746 4.471C19.1146 3.723 19.3016 3.01467 19.3356 2.346C19.177 2.35733 19.007 2.36867 18.8256 2.38C18.6443 2.39133 18.4403 2.40833 18.2136 2.431C17.8736 2.45367 17.579 2.47633 17.3296 2.499C17.0916 2.52167 16.8196 2.55567 16.5136 2.601C16.4003 2.61233 16.3266 2.601 16.2926 2.567C16.2586 2.52167 16.2303 2.47067 16.2076 2.414C16.1963 2.40267 16.1906 2.39133 16.1906 2.38C16.1566 2.28933 16.1226 2.18733 16.0886 2.074C16.066 1.96067 16.0376 1.83033 16.0036 1.683C15.9923 1.66033 15.998 1.632 16.0206 1.598C16.0433 1.564 16.083 1.547 16.1396 1.547C16.4116 1.55833 16.712 1.57533 17.0406 1.598C17.3693 1.60933 17.698 1.60933 18.0266 1.598C18.5253 1.57533 19.0296 1.55833 19.5396 1.547C20.061 1.52433 20.5823 1.49033 21.1036 1.445C21.523 1.42233 21.9196 1.38833 22.2936 1.343C22.6676 1.29767 23.002 1.24667 23.2966 1.19C23.3306 1.17867 23.3703 1.18433 23.4156 1.207C23.461 1.21833 23.4893 1.25233 23.5006 1.309C23.5233 1.38833 23.546 1.50733 23.5686 1.666C23.5913 1.81333 23.6083 1.955 23.6196 2.091C23.6196 2.21567 23.5516 2.278 23.4156 2.278C23.3023 2.278 23.189 2.278 23.0756 2.278C22.9623 2.278 22.8433 2.278 22.7186 2.278C22.4806 2.278 22.237 2.278 21.9876 2.278C21.7383 2.26667 21.4776 2.26667 21.2056 2.278C21.0923 2.278 20.979 2.28367 20.8656 2.295C20.7636 2.295 20.6616 2.295 20.5596 2.295C20.5143 2.61233 20.435 2.96367 20.3216 3.349C20.2083 3.73433 20.044 4.14233 19.8286 4.573C20.282 4.89033 20.7466 5.24167 21.2226 5.627C21.71 6.001 22.1463 6.35233 22.5316 6.681C22.9283 6.99833 23.206 7.242 23.3646 7.412C23.4213 7.45733 23.461 7.514 23.4836 7.582C23.5176 7.65 23.5063 7.72367 23.4496 7.803C23.427 7.837 23.3703 7.89933 23.2796 7.99C23.189 8.08067 23.0983 8.17133 23.0076 8.262C22.917 8.35267 22.849 8.415 22.8036 8.449C22.713 8.50567 22.6393 8.5 22.5826 8.432C22.3673 8.13733 22.0783 7.79733 21.7156 7.412C21.3643 7.01533 20.9903 6.63 20.5936 6.256C20.2083 5.87067 19.84 5.54767 19.4886 5.287C19.1486 5.91033 18.7123 6.545 18.1796 7.191C17.647 7.82567 16.9613 8.43767 16.1226 9.027C16.066 9.07233 15.9923 9.112 15.9016 9.146C15.811 9.16867 15.709 9.13467 15.5956 9.044ZM23.6706 14.841C24.3846 14.8183 24.9853 14.6257 25.4726 14.263C25.9713 13.9003 26.232 13.3733 26.2546 12.682C26.2773 12.2287 26.1696 11.849 25.9316 11.543C25.705 11.237 25.3933 11.0047 24.9966 10.846C24.6113 10.676 24.175 10.591 23.6876 10.591C23.2003 10.6023 22.7583 10.7043 22.3616 10.897C21.9763 11.0783 21.6646 11.3277 21.4266 11.645C21.1886 11.9623 21.0696 12.3307 21.0696 12.75C21.0696 13.1807 21.183 13.5547 21.4096 13.872C21.6476 14.178 21.9593 14.416 22.3446 14.586C22.7413 14.756 23.1833 14.841 23.6706 14.841ZM26.2206 9.537C26.1753 9.537 26.1526 9.50867 26.1526 9.452V5.015C25.9486 5.02633 25.7503 5.03767 25.5576 5.049C25.365 5.06033 25.1836 5.07167 25.0136 5.083C24.7416 5.09433 24.43 5.12267 24.0786 5.168C23.7273 5.202 23.4156 5.236 23.1436 5.27C23.019 5.29267 22.934 5.287 22.8886 5.253C22.8433 5.219 22.8093 5.168 22.7866 5.1C22.7413 4.95267 22.7016 4.81667 22.6676 4.692C22.645 4.556 22.6223 4.43133 22.5996 4.318C22.5996 4.22733 22.645 4.19333 22.7356 4.216C22.917 4.23867 23.2003 4.25567 23.5856 4.267C23.9823 4.267 24.413 4.26133 24.8776 4.25C25.3423 4.22733 25.7673 4.20467 26.1526 4.182V2.074C26.1526 1.64333 26.1356 1.24667 26.1016 0.884C26.079 0.521333 26.0393 0.283333 25.9826 0.17C25.96 0.113333 25.96 0.0736667 25.9826 0.0510004C26.0166 0.0170001 26.0563 0 26.1016 0C26.2263 0 26.3963 0 26.6116 0C26.827 0 27.0253 0.00566659 27.2066 0.0169998C27.2633 0.0169998 27.2916 0.0623332 27.2916 0.153C27.2576 0.572333 27.235 0.940667 27.2236 1.258C27.2236 1.564 27.2236 1.921 27.2236 2.329V9.112C27.2236 9.282 27.2123 9.384 27.1896 9.418C27.1783 9.452 27.1443 9.47467 27.0876 9.486L26.2206 9.537Z" fill="black"/>
<path d="M39.4203 7.293C38.7743 7.30433 38.1793 7.18533 37.6353 6.936C37.1027 6.67533 36.672 6.307 36.3433 5.831C36.026 5.355 35.8673 4.80533 35.8673 4.182C35.8673 3.57 36.0317 3.026 36.3603 2.55C36.689 2.06267 37.1197 1.67733 37.6523 1.394C38.1963 1.09933 38.7913 0.946333 39.4373 0.935C40.0947 0.912333 40.6897 1.02567 41.2223 1.275C41.7663 1.513 42.197 1.87 42.5143 2.346C42.843 2.81067 43.0073 3.37733 43.0073 4.046C43.0073 4.64667 42.843 5.19067 42.5143 5.678C42.1857 6.16533 41.7493 6.55067 41.2053 6.834C40.6613 7.11733 40.0663 7.27033 39.4203 7.293ZM40.3553 15.3C40.004 15.2887 39.7263 15.1697 39.5223 14.943C39.3183 14.7163 39.2163 14.3593 39.2163 13.872V13.005C39.2163 12.8237 39.205 12.6423 39.1823 12.461C39.1597 12.2797 39.1087 12.1153 39.0293 11.968C39.0067 11.9227 39.0067 11.8773 39.0293 11.832C39.052 11.7867 39.103 11.764 39.1823 11.764C39.477 11.7753 39.8567 11.7867 40.3213 11.798C40.786 11.798 41.296 11.798 41.8513 11.798C42.4067 11.798 42.9563 11.7923 43.5003 11.781C44.0557 11.7583 44.56 11.7357 45.0133 11.713C45.478 11.6903 45.8463 11.6563 46.1183 11.611L46.1693 10.149C46.1693 10.1377 46.1693 10.1207 46.1693 10.098C46.1693 10.0413 46.1637 10.0073 46.1523 9.996C46.141 9.97333 46.09 9.962 45.9993 9.962C45.75 9.962 45.393 9.96767 44.9283 9.979C44.4637 9.99033 43.965 10.0073 43.4323 10.03C42.911 10.0413 42.4123 10.0583 41.9363 10.081C41.4603 10.0923 41.075 10.1093 40.7803 10.132L39.4713 10.217C39.3467 10.2283 39.2673 10.217 39.2333 10.183C39.1993 10.1377 39.171 10.0753 39.1483 9.996L39.0463 9.367C39.0237 9.27633 39.069 9.23667 39.1823 9.248C39.375 9.25933 39.6697 9.27067 40.0663 9.282C40.4743 9.29333 40.939 9.299 41.4603 9.299C41.993 9.28767 42.5427 9.27067 43.1093 9.248C43.676 9.22533 44.22 9.197 44.7413 9.163C45.2627 9.129 45.716 9.08367 46.1013 9.027C46.124 9.027 46.1467 9.02133 46.1693 9.01C46.2487 8.99867 46.311 8.99867 46.3563 9.01L47.2233 9.146C47.28 9.15733 47.3083 9.18 47.3083 9.214C47.3197 9.23667 47.3253 9.25933 47.3253 9.282C47.3253 9.29333 47.3253 9.299 47.3253 9.299C47.2687 9.809 47.2233 10.2907 47.1893 10.744C47.1553 11.1973 47.1213 11.679 47.0873 12.189C47.076 12.3137 47.042 12.393 46.9853 12.427C46.9287 12.4497 46.872 12.461 46.8153 12.461C46.4413 12.461 45.9767 12.4667 45.4213 12.478C44.866 12.4893 44.2767 12.5007 43.6533 12.512C43.0413 12.5233 42.4407 12.5403 41.8513 12.563C41.262 12.5743 40.7407 12.5857 40.2873 12.597V13.804C40.2873 14.0647 40.31 14.229 40.3553 14.297C40.412 14.3763 40.5367 14.4217 40.7293 14.433C41.466 14.4557 42.248 14.4613 43.0753 14.45C43.9027 14.4387 44.6847 14.4103 45.4213 14.365C45.886 14.3423 46.311 14.3083 46.6963 14.263C47.0817 14.2177 47.4217 14.1553 47.7163 14.076C47.8297 14.0533 47.9033 14.059 47.9373 14.093C47.9713 14.127 47.994 14.1723 48.0053 14.229L48.1073 14.943C48.1187 14.9997 48.1017 15.0507 48.0563 15.096C48.011 15.1413 47.909 15.164 47.7503 15.164C46.957 15.164 46.1297 15.1697 45.2683 15.181C44.407 15.2037 43.557 15.2207 42.7183 15.232C41.891 15.2547 41.1033 15.2773 40.3553 15.3ZM39.4373 6.443C40.1287 6.42033 40.7067 6.19367 41.1713 5.763C41.636 5.33233 41.8683 4.76 41.8683 4.046C41.8683 3.264 41.6303 2.686 41.1543 2.312C40.6897 1.938 40.1117 1.76233 39.4203 1.785C38.7403 1.80767 38.1623 2.03433 37.6863 2.465C37.2103 2.89567 36.9723 3.46233 36.9723 4.165C36.9723 4.913 37.2103 5.48533 37.6863 5.882C38.1737 6.27867 38.7573 6.46567 39.4373 6.443ZM46.2713 8.143C46.226 8.143 46.2033 8.11467 46.2033 8.058V2.074C46.2033 1.64333 46.1863 1.24667 46.1523 0.884C46.1297 0.521333 46.09 0.283333 46.0333 0.17C46.0107 0.113333 46.0107 0.0736667 46.0333 0.0510004C46.0673 0.0170001 46.107 0 46.1523 0C46.243 0 46.396 0 46.6113 0C46.838 0 47.0533 0.00566659 47.2573 0.0169998C47.314 0.0169998 47.3423 0.0623332 47.3423 0.153C47.3083 0.572333 47.2857 0.940667 47.2743 1.258C47.2743 1.564 47.2743 1.921 47.2743 2.329V7.718C47.2743 7.888 47.263 7.99 47.2403 8.024C47.229 8.058 47.195 8.08067 47.1383 8.092L46.2713 8.143Z" fill="black"/>
</svg>
