<svg width="56" height="27" viewBox="0 0 56 27" fill="none" xmlns="http://www.w3.org/2000/svg">
<path d="M2.25 13.05C2.71 13.05 3.24 13.06 3.84 13.08C4.44 13.1 5.08 13.12 5.76 13.14C5.78 12.96 5.79 12.78 5.79 12.6C5.79 12.42 5.79 12.23 5.79 12.03C5.59 11.97 5.37 11.89 5.13 11.79C4.63 11.59 4.16 11.36 3.72 11.1C3.28 10.84 2.9 10.54 2.58 10.2C2.26 9.86 2 9.46 1.8 9C1.62 8.54 1.53 8.01 1.53 7.41C1.53 6.71 1.63 6.1 1.83 5.58H1.77C1.29 5.58 0.87 5.43 0.51 5.13C0.17 4.81 0 4.42 0 3.96C0 3.52 0.17 3.15 0.51 2.85C0.87 2.53 1.29 2.37 1.77 2.37H5.73V1.38C5.73 0.999999 5.9 0.679999 6.24 0.42C6.58 0.14 6.99 0 7.47 0C7.95 0 8.36 0.14 8.7 0.42C9.06 0.679999 9.24 0.999999 9.24 1.38V2.37H13.38C13.88 2.37 14.3 2.53 14.64 2.85C15 3.15 15.18 3.52 15.18 3.96C15.18 4.42 15 4.81 14.64 5.13C14.3 5.43 13.88 5.58 13.38 5.58H13.35C13.45 5.86 13.52 6.15 13.56 6.45C13.62 6.75 13.65 7.07 13.65 7.41C13.65 8.25 13.46 8.96 13.08 9.54C12.72 10.1 12.19 10.63 11.49 11.13C10.95 11.53 10.38 11.83 9.78 12.03V12.06C9.76 12.28 9.75 12.48 9.75 12.66C9.75 12.84 9.74 13.02 9.72 13.2C9.96 13.2 10.16 13.2 10.32 13.2C10.48 13.18 10.65 13.17 10.83 13.17C11.01 13.15 11.23 13.14 11.49 13.14C11.75 13.14 12.11 13.15 12.57 13.17C12.95 13.17 13.32 13.17 13.68 13.17C14.04 13.17 14.39 13.25 14.73 13.41C15.29 13.67 15.57 14.11 15.57 14.73C15.57 15.23 15.39 15.68 15.03 16.08C14.75 16.38 14.4 16.55 13.98 16.59C13.58 16.63 13.2 16.63 12.84 16.59H2.25C2.23 16.59 2.15 16.59 2.01 16.59C1.87 16.59 1.7 16.57 1.5 16.53C1.32 16.49 1.13 16.43 0.93 16.35C0.73 16.25 0.57 16.11 0.45 15.93C0.21 15.69 0.09 15.34 0.09 14.88C0.09 14.66 0.12 14.48 0.18 14.34C0.26 14.18 0.35 14.03 0.45 13.89C0.67 13.63 0.96 13.44 1.32 13.32C1.68 13.18 1.99 13.09 2.25 13.05ZM3.27 21.9V21.87C3.25 21.87 3.17 21.85 3.03 21.81C2.91 21.77 2.77 21.71 2.61 21.63C2.45 21.55 2.29 21.44 2.13 21.3C1.99 21.16 1.91 20.98 1.89 20.76C1.79 19.98 1.91 19.38 2.25 18.96C2.49 18.68 2.75 18.52 3.03 18.48C3.31 18.42 3.46 18.39 3.48 18.39L18.78 18.36C19.62 18.36 20.22 18.53 20.58 18.87C20.96 19.19 21.17 19.71 21.21 20.43V23.55C21.25 23.99 21.25 24.43 21.21 24.87C21.17 25.29 21 25.63 20.7 25.89C20.42 26.15 20.05 26.28 19.59 26.28C19.49 26.28 19.31 26.27 19.05 26.25C18.81 26.25 18.64 26.23 18.54 26.19C18.26 26.11 18.04 25.99 17.88 25.83C17.74 25.67 17.63 25.49 17.55 25.29C17.47 25.09 17.42 24.88 17.4 24.66C17.38 24.42 17.36 24.19 17.34 23.97C17.34 23.89 17.33 23.75 17.31 23.55C17.31 23.35 17.3 23.15 17.28 22.95C17.28 22.73 17.27 22.53 17.25 22.35C17.25 22.15 17.24 22.01 17.22 21.93C17.18 21.93 17.05 21.93 16.83 21.93C16.61 21.93 16.33 21.93 15.99 21.93C15.67 21.93 15.31 21.93 14.91 21.93C14.51 21.91 14.13 21.9 13.77 21.9H3.27ZM17.52 5.4C17.52 5.18 17.52 4.93 17.52 4.65C17.52 4.37 17.53 4.1 17.55 3.84C17.59 3.56 17.65 3.3 17.73 3.06C17.81 2.82 17.91 2.64 18.03 2.52C18.25 2.32 18.47 2.2 18.69 2.16C18.93 2.1 19.19 2.07 19.47 2.07C19.81 2.07 20.11 2.17 20.37 2.37C20.65 2.55 20.85 2.79 20.97 3.09C21.13 3.51 21.22 3.94 21.24 4.38C21.26 4.82 21.28 5.26 21.3 5.7C21.3 6.38 21.3 7.02 21.3 7.62C21.32 8.22 21.33 8.81 21.33 9.39C21.73 9.39 22.1 9.4 22.44 9.42C22.8 9.42 23.09 9.43 23.31 9.45C23.57 9.47 23.8 9.57 24 9.75C24.22 9.93 24.39 10.15 24.51 10.41C24.63 10.65 24.69 10.91 24.69 11.19C24.69 11.47 24.61 11.71 24.45 11.91C24.17 12.29 23.74 12.54 23.16 12.66C22.6 12.76 22 12.81 21.36 12.81V13.77C21.36 14.19 21.33 14.52 21.27 14.76C21.21 14.98 21.14 15.2 21.06 15.42C21.04 15.48 21.02 15.54 21 15.6C20.98 15.66 20.95 15.73 20.91 15.81C20.77 16.09 20.59 16.3 20.37 16.44C20.15 16.58 19.91 16.67 19.65 16.71C19.41 16.73 19.16 16.72 18.9 16.68C18.62 16.6 18.38 16.48 18.18 16.32C18 16.16 17.86 15.96 17.76 15.72C17.68 15.46 17.62 15.22 17.58 15C17.54 14.76 17.52 14.56 17.52 14.4C17.52 14.22 17.52 14.12 17.52 14.1V5.4ZM8.13 9.03C8.41 8.97 8.67 8.92 8.91 8.88C9.15 8.84 9.35 8.77 9.51 8.67C9.69 8.55 9.82 8.4 9.9 8.22C10 8.02 10.05 7.75 10.05 7.41C10.05 6.77 9.87 6.32 9.51 6.06C9.15 5.8 8.72 5.64 8.22 5.58H6.66C6.22 5.64 5.85 5.8 5.55 6.06C5.25 6.32 5.1 6.77 5.1 7.41C5.1 7.89 5.18 8.26 5.34 8.52C5.52 8.78 5.75 8.96 6.03 9.06C6.33 9.16 6.66 9.2 7.02 9.18C7.38 9.14 7.75 9.09 8.13 9.03Z" fill="white"/>
<path d="M44.3413 2.7C45.5613 3.4 46.4313 4.3 46.9513 5.4C47.2113 5.94 47.3813 6.54 47.4613 7.2C47.5413 7.86 47.5613 8.6 47.5213 9.42C47.4613 10.32 47.2613 11.13 46.9213 11.85C46.5813 12.57 46.1313 13.19 45.5713 13.71C45.0313 14.21 44.3913 14.6 43.6513 14.88C42.9113 15.14 42.1213 15.27 41.2813 15.27H39.7513C39.5513 15.27 39.3513 15.27 39.1513 15.27C38.9513 15.25 38.7413 15.22 38.5213 15.18C38.3013 15.18 38.0913 15.15 37.8913 15.09C37.6913 15.03 37.4813 14.98 37.2613 14.94C37.0413 14.84 36.8213 14.73 36.6013 14.61C36.4013 14.49 36.1613 14.35 35.8813 14.19C34.9613 13.59 34.3213 12.78 33.9613 11.76C33.8013 11.3 33.6813 10.81 33.6013 10.29C33.5213 9.77 33.4813 9.26 33.4813 8.76C33.4813 8.22 33.5213 7.7 33.6013 7.2C33.7013 6.7 33.8613 6.22 34.0813 5.76C34.2413 5.28 34.4813 4.86 34.8013 4.5C35.1213 4.12 35.4813 3.76 35.8813 3.42C36.2413 3.12 36.6113 2.87 36.9913 2.67C37.3713 2.45 37.7913 2.28 38.2513 2.16C38.6513 2 39.0813 1.9 39.5413 1.86C40.0013 1.82 40.4413 1.82 40.8613 1.86C41.0813 1.92 41.2613 1.96 41.4013 1.98C41.5613 1.98 41.7113 1.98 41.8513 1.98C42.0113 2.02 42.1513 2.05 42.2713 2.07C42.4113 2.07 42.5413 2.1 42.6613 2.16C42.8013 2.2 42.9313 2.24 43.0513 2.28C43.1913 2.3 43.3213 2.34 43.4413 2.4C43.5613 2.44 43.7013 2.49 43.8613 2.55C44.0213 2.61 44.1813 2.66 44.3413 2.7ZM54.3613 22.38C54.6413 22.38 54.8713 22.5 55.0513 22.74C55.2313 22.98 55.3513 23.27 55.4113 23.61C55.4513 24.01 55.4313 24.34 55.3513 24.6C55.2713 24.84 55.1513 25.07 54.9913 25.29C54.6913 25.55 54.4313 25.71 54.2113 25.77C54.1113 25.77 54.0213 25.79 53.9413 25.83C53.8613 25.87 53.7513 25.89 53.6113 25.89H38.9413C38.5213 25.89 38.1513 25.88 37.8313 25.86C37.5313 25.84 37.2613 25.77 37.0213 25.65C36.8013 25.53 36.6213 25.35 36.4813 25.11C36.3613 24.89 36.3013 24.67 36.3013 24.45V18.27C36.4213 17.83 36.6213 17.5 36.9013 17.28C37.1213 17.14 37.3213 17.04 37.5013 16.98C37.7013 16.9 37.9213 16.86 38.1613 16.86C38.2013 16.86 38.3213 16.88 38.5213 16.92C38.7413 16.94 38.8813 16.95 38.9413 16.95C39.0613 16.99 39.1713 17.04 39.2713 17.1C39.3913 17.14 39.5013 17.23 39.6013 17.37C39.6413 17.45 39.6913 17.54 39.7513 17.64C39.8113 17.72 39.8613 17.82 39.9013 17.94C39.9613 18.08 39.9913 18.21 39.9913 18.33C40.0113 18.45 40.0413 18.57 40.0813 18.69V22.29H40.6813C40.8013 22.31 40.9413 22.32 41.1013 22.32C41.2413 22.34 41.3913 22.35 41.5513 22.35C41.7113 22.35 41.8913 22.35 42.0913 22.35C42.2113 22.35 42.5113 22.35 42.9913 22.35C43.4913 22.35 44.0813 22.35 44.7613 22.35C45.4613 22.33 46.2213 22.32 47.0413 22.32C47.8613 22.32 48.6413 22.32 49.3813 22.32C50.1413 22.32 50.8213 22.33 51.4213 22.35C52.0413 22.35 52.5013 22.35 52.8013 22.35H53.5513C53.5913 22.35 53.6813 22.36 53.8213 22.38C53.9613 22.38 54.1413 22.38 54.3613 22.38ZM43.9213 8.49C43.8813 8.27 43.8413 8.08 43.8013 7.92C43.7613 7.74 43.7213 7.56 43.6813 7.38C43.5813 7.22 43.4913 7.06 43.4113 6.9C43.3313 6.74 43.2213 6.6 43.0813 6.48C42.9613 6.36 42.8213 6.26 42.6613 6.18C42.5013 6.08 42.3113 5.98 42.0913 5.88C41.8313 5.82 41.5813 5.77 41.3413 5.73C41.1013 5.67 40.8513 5.64 40.5913 5.64C40.3113 5.64 40.0413 5.67 39.7813 5.73C39.5213 5.77 39.2813 5.82 39.0613 5.88C38.8213 6.02 38.5913 6.16 38.3713 6.3C38.1713 6.44 37.9913 6.62 37.8313 6.84C37.6313 7 37.4813 7.21 37.3813 7.47C37.2813 7.71 37.1813 8 37.0813 8.34C37.0813 8.56 37.0813 8.77 37.0813 8.97C37.0813 9.17 37.1013 9.38 37.1413 9.6C37.1413 9.8 37.1813 10 37.2613 10.2C37.3413 10.4 37.4413 10.58 37.5613 10.74C37.7013 10.92 37.8513 11.08 38.0113 11.22C38.1713 11.34 38.3413 11.46 38.5213 11.58C38.7413 11.7 38.9713 11.81 39.2113 11.91C39.4513 11.99 39.7413 12.05 40.0813 12.09C40.3013 12.09 40.5113 12.09 40.7113 12.09C40.9113 12.07 41.1213 12.04 41.3413 12C41.7413 12 42.1313 11.89 42.5113 11.67C42.6713 11.59 42.8313 11.49 42.9913 11.37C43.1713 11.23 43.3213 11.08 43.4413 10.92C43.7013 10.56 43.8613 10.17 43.9213 9.75V8.49ZM55.2313 14.61C55.2313 14.81 55.2113 15.01 55.1713 15.21C55.1313 15.41 55.0913 15.62 55.0513 15.84C54.8713 16.48 54.4513 16.87 53.7913 17.01C53.1513 17.15 52.6313 17.01 52.2313 16.59C51.8513 16.17 51.6213 15.67 51.5413 15.09C51.5013 14.93 51.4713 14.77 51.4513 14.61C51.4513 14.43 51.4513 14.26 51.4513 14.1V13.08L51.5413 5.34C51.5413 5.06 51.5313 4.76 51.5113 4.44C51.5113 4.1 51.5313 3.78 51.5713 3.48C51.6313 3.16 51.7413 2.87 51.9013 2.61C52.0613 2.35 52.3113 2.14 52.6513 1.98C52.8113 1.88 52.9813 1.83 53.1613 1.83C53.3613 1.81 53.5713 1.82 53.7913 1.86C54.2513 1.92 54.5913 2.11 54.8113 2.43C55.0513 2.75 55.1913 3.12 55.2313 3.54V14.61Z" fill="white"/>
</svg>
