<svg width="48" height="16" viewBox="0 0 48 16" fill="none" xmlns="http://www.w3.org/2000/svg">
<path d="M3.774 15.215C3.75133 15.215 3.723 15.2093 3.689 15.198C3.655 15.1867 3.638 15.1527 3.638 15.096C3.638 15.0733 3.638 15.0167 3.638 14.926C3.638 14.824 3.638 14.6597 3.638 14.433C3.64933 14.2063 3.64933 13.872 3.638 13.43C3.638 12.988 3.63233 12.3987 3.621 11.662C3.621 11.3673 3.587 11.0613 3.519 10.744C3.46233 10.4267 3.40567 10.2283 3.349 10.149C3.30367 10.081 3.29233 10.0243 3.315 9.979C3.349 9.93367 3.40567 9.911 3.485 9.911L4.573 9.945C4.93567 9.95633 5.389 9.962 5.933 9.962C6.477 9.962 7.04367 9.95633 7.633 9.945C8.22233 9.92233 8.755 9.89967 9.231 9.877C9.71833 9.85433 10.0697 9.826 10.285 9.792C10.3077 9.792 10.3303 9.78633 10.353 9.775C10.4323 9.76367 10.5003 9.76367 10.557 9.775L11.458 9.894C11.5487 9.90533 11.5827 9.97333 11.56 10.098C11.5487 10.2453 11.5317 10.438 11.509 10.676C11.4977 10.9027 11.4863 11.1293 11.475 11.356C11.4637 11.5713 11.458 11.7357 11.458 11.849L11.407 14.909C11.407 15.0677 11.322 15.147 11.152 15.147C10.8347 15.1357 10.4323 15.13 9.945 15.13C9.45767 15.13 8.942 15.13 8.398 15.13C7.854 15.13 7.32133 15.13 6.8 15.13C6.27867 15.13 5.81967 15.13 5.423 15.13C5.02633 15.1413 4.73733 15.1527 4.556 15.164L3.774 15.215ZM3.553 7.514C2.907 7.52533 2.312 7.40067 1.768 7.14C1.23533 6.87933 0.804667 6.511 0.476 6.035C0.158667 5.54767 0 4.98667 0 4.352C0 3.74 0.158667 3.19033 0.476 2.703C0.804667 2.20433 1.23533 1.80767 1.768 1.513C2.312 1.21833 2.91267 1.06533 3.57 1.054C4.216 1.02 4.80533 1.12767 5.338 1.377C5.882 1.62633 6.31833 1.99467 6.647 2.482C6.97567 2.958 7.14 3.536 7.14 4.216C7.14 4.83933 6.97567 5.40033 6.647 5.899C6.31833 6.38633 5.882 6.77167 5.338 7.055C4.794 7.33833 4.199 7.49133 3.553 7.514ZM4.658 14.229C4.81667 14.2403 5.083 14.2517 5.457 14.263C5.84233 14.263 6.27867 14.263 6.766 14.263C7.25333 14.2517 7.74067 14.2403 8.228 14.229C8.71533 14.2177 9.15167 14.2063 9.537 14.195C9.92233 14.1837 10.2 14.1667 10.37 14.144L10.404 10.88C10.404 10.8007 10.3927 10.7553 10.37 10.744C10.3473 10.7213 10.3077 10.71 10.251 10.71L4.658 10.778V14.229ZM3.57 6.647C4.25 6.62433 4.82233 6.39767 5.287 5.967C5.75167 5.525 5.984 4.94133 5.984 4.216C5.984 3.41133 5.746 2.822 5.27 2.448C4.80533 2.074 4.233 1.89833 3.553 1.921C2.86167 1.96633 2.28367 2.19867 1.819 2.618C1.35433 3.03733 1.122 3.60967 1.122 4.335C1.122 5.09433 1.35433 5.678 1.819 6.086C2.295 6.48267 2.87867 6.66967 3.57 6.647ZM10.404 8.823C10.3587 8.823 10.336 8.79467 10.336 8.738V2.074C10.336 1.64333 10.319 1.24667 10.285 0.884C10.2623 0.521333 10.2227 0.283333 10.166 0.17C10.1433 0.113333 10.1433 0.0736667 10.166 0.0510004C10.2 0.0170001 10.2397 0 10.285 0C10.3983 0 10.5627 0 10.778 0C11.0047 0 11.2087 0.00566659 11.39 0.0169998C11.4467 0.0169998 11.475 0.0623332 11.475 0.153C11.441 0.572333 11.4183 0.940667 11.407 1.258C11.407 1.564 11.407 1.921 11.407 2.329V8.398C11.407 8.568 11.3957 8.67 11.373 8.704C11.3617 8.738 11.3277 8.76067 11.271 8.772L10.404 8.823Z" fill="black"/>
<path d="M14.571 9.163L14.146 8.789C14.1007 8.74367 14.1177 8.69267 14.197 8.636C14.2083 8.62467 14.214 8.619 14.214 8.619C14.8487 8.19967 15.4437 7.67267 15.999 7.038C16.5657 6.392 17.07 5.71767 17.512 5.015C17.954 4.31233 18.2997 3.655 18.549 3.043C18.6283 2.85033 18.6963 2.62933 18.753 2.38C18.821 2.11933 18.872 1.87 18.906 1.632C18.9513 1.394 18.974 1.20133 18.974 1.054C18.974 0.952 19.0307 0.906666 19.144 0.918C19.2687 0.940667 19.4443 0.986 19.671 1.054C19.8977 1.122 20.096 1.18433 20.266 1.241C20.334 1.275 20.351 1.33733 20.317 1.428C20.2377 1.65467 20.13 1.94933 19.994 2.312C19.858 2.67467 19.7333 2.992 19.62 3.264C19.5407 3.44533 19.45 3.638 19.348 3.842C19.2573 4.046 19.1497 4.26133 19.025 4.488C19.365 4.74867 19.739 5.03767 20.147 5.355C20.5663 5.661 20.9743 5.967 21.371 6.273C21.7677 6.579 22.119 6.85667 22.425 7.106C22.731 7.35533 22.952 7.548 23.088 7.684C23.1333 7.718 23.1673 7.77467 23.19 7.854C23.224 7.922 23.2127 7.99567 23.156 8.075C23.1107 8.143 23.003 8.25067 22.833 8.398C22.6743 8.54533 22.561 8.653 22.493 8.721C22.4023 8.77767 22.3343 8.76633 22.289 8.687C22.119 8.449 21.881 8.17133 21.575 7.854C21.2803 7.53667 20.9573 7.208 20.606 6.868C20.266 6.528 19.9203 6.21067 19.569 5.916C19.2177 5.62133 18.906 5.37767 18.634 5.185C18.26 5.80833 17.784 6.46567 17.206 7.157C16.6393 7.837 15.9367 8.49433 15.098 9.129C15.0413 9.17433 14.9677 9.214 14.877 9.248C14.7863 9.282 14.6843 9.25367 14.571 9.163ZM25.196 11.135C25.1507 11.135 25.128 11.1067 25.128 11.05V2.074C25.128 1.64333 25.111 1.24667 25.077 0.884C25.0543 0.521333 25.0147 0.283333 24.958 0.17C24.9353 0.113333 24.9353 0.0736667 24.958 0.0510004C24.992 0.0170001 25.0317 0 25.077 0C25.2357 0 25.4227 0 25.638 0C25.8533 0 26.0347 0.00566659 26.182 0.0169998C26.2387 0.0169998 26.267 0.0623332 26.267 0.153C26.233 0.572333 26.2103 0.940667 26.199 1.258C26.199 1.564 26.199 1.921 26.199 2.329V10.71C26.199 10.88 26.1877 10.982 26.165 11.016C26.1537 11.05 26.1197 11.0727 26.063 11.084L25.196 11.135ZM19.637 15.13C19.2743 15.13 18.9967 14.994 18.804 14.722C18.6227 14.4613 18.532 14.0873 18.532 13.6V12.087C18.532 11.6903 18.515 11.3617 18.481 11.101C18.447 10.8403 18.413 10.6533 18.379 10.54C18.345 10.4267 18.3847 10.37 18.498 10.37C18.566 10.37 18.6793 10.3757 18.838 10.387C19.008 10.387 19.1667 10.3927 19.314 10.404C19.4727 10.4153 19.5577 10.421 19.569 10.421C19.6257 10.421 19.654 10.4777 19.654 10.591C19.6313 10.8517 19.6143 11.084 19.603 11.288C19.603 11.4807 19.603 11.7243 19.603 12.019V13.498C19.603 13.7813 19.637 13.9797 19.705 14.093C19.7843 14.195 19.909 14.2517 20.079 14.263C20.3963 14.2743 20.7817 14.28 21.235 14.28C21.6997 14.2913 22.1813 14.2913 22.68 14.28C23.19 14.2573 23.6717 14.2347 24.125 14.212C24.601 14.1893 25.094 14.1497 25.604 14.093C26.114 14.025 26.505 13.957 26.777 13.889C26.8903 13.8663 26.964 13.872 26.998 13.906C27.032 13.94 27.0547 13.9853 27.066 14.042L27.202 14.841C27.202 14.8977 27.185 14.943 27.151 14.977C27.1283 15.011 27.0377 15.028 26.879 15.028C25.757 15.028 24.601 15.045 23.411 15.079C22.221 15.113 20.963 15.13 19.637 15.13Z" fill="black"/>
<path d="M38.3997 7.293C37.7537 7.30433 37.1587 7.18533 36.6147 6.936C36.082 6.67533 35.6513 6.307 35.3227 5.831C35.0053 5.355 34.8467 4.80533 34.8467 4.182C34.8467 3.57 35.011 3.026 35.3397 2.55C35.6683 2.06267 36.099 1.67733 36.6317 1.394C37.1757 1.09933 37.7707 0.946333 38.4167 0.935C39.074 0.912333 39.669 1.02567 40.2017 1.275C40.7457 1.513 41.1763 1.87 41.4937 2.346C41.8223 2.81067 41.9867 3.37733 41.9867 4.046C41.9867 4.64667 41.8223 5.19067 41.4937 5.678C41.165 6.16533 40.7287 6.55067 40.1847 6.834C39.6407 7.11733 39.0457 7.27033 38.3997 7.293ZM39.3347 15.3C38.9833 15.2887 38.7057 15.1697 38.5017 14.943C38.2977 14.7163 38.1957 14.3593 38.1957 13.872V13.005C38.1957 12.8237 38.1843 12.6423 38.1617 12.461C38.139 12.2797 38.088 12.1153 38.0087 11.968C37.986 11.9227 37.986 11.8773 38.0087 11.832C38.0313 11.7867 38.0823 11.764 38.1617 11.764C38.4563 11.7753 38.836 11.7867 39.3007 11.798C39.7653 11.798 40.2753 11.798 40.8307 11.798C41.386 11.798 41.9357 11.7923 42.4797 11.781C43.035 11.7583 43.5393 11.7357 43.9927 11.713C44.4573 11.6903 44.8257 11.6563 45.0977 11.611L45.1487 10.149C45.1487 10.1377 45.1487 10.1207 45.1487 10.098C45.1487 10.0413 45.143 10.0073 45.1317 9.996C45.1203 9.97333 45.0693 9.962 44.9787 9.962C44.7293 9.962 44.3723 9.96767 43.9077 9.979C43.443 9.99033 42.9443 10.0073 42.4117 10.03C41.8904 10.0413 41.3917 10.0583 40.9157 10.081C40.4397 10.0923 40.0543 10.1093 39.7597 10.132L38.4507 10.217C38.326 10.2283 38.2467 10.217 38.2127 10.183C38.1787 10.1377 38.1503 10.0753 38.1277 9.996L38.0257 9.367C38.003 9.27633 38.0483 9.23667 38.1617 9.248C38.3543 9.25933 38.649 9.27067 39.0457 9.282C39.4537 9.29333 39.9183 9.299 40.4397 9.299C40.9723 9.28767 41.522 9.27067 42.0887 9.248C42.6553 9.22533 43.1993 9.197 43.7207 9.163C44.242 9.129 44.6953 9.08367 45.0807 9.027C45.1033 9.027 45.126 9.02133 45.1487 9.01C45.228 8.99867 45.2903 8.99867 45.3357 9.01L46.2027 9.146C46.2593 9.15733 46.2877 9.18 46.2877 9.214C46.299 9.23667 46.3047 9.25933 46.3047 9.282C46.3047 9.29333 46.3047 9.299 46.3047 9.299C46.248 9.809 46.2027 10.2907 46.1687 10.744C46.1347 11.1973 46.1007 11.679 46.0667 12.189C46.0553 12.3137 46.0213 12.393 45.9647 12.427C45.908 12.4497 45.8513 12.461 45.7947 12.461C45.4207 12.461 44.956 12.4667 44.4007 12.478C43.8453 12.4893 43.256 12.5007 42.6327 12.512C42.0207 12.5233 41.42 12.5403 40.8307 12.563C40.2413 12.5743 39.72 12.5857 39.2667 12.597V13.804C39.2667 14.0647 39.2893 14.229 39.3347 14.297C39.3913 14.3763 39.516 14.4217 39.7087 14.433C40.4453 14.4557 41.2273 14.4613 42.0547 14.45C42.882 14.4387 43.664 14.4103 44.4007 14.365C44.8653 14.3423 45.2903 14.3083 45.6757 14.263C46.061 14.2177 46.401 14.1553 46.6957 14.076C46.809 14.0533 46.8827 14.059 46.9167 14.093C46.9507 14.127 46.9733 14.1723 46.9847 14.229L47.0867 14.943C47.098 14.9997 47.081 15.0507 47.0357 15.096C46.9903 15.1413 46.8883 15.164 46.7297 15.164C45.9363 15.164 45.109 15.1697 44.2477 15.181C43.3863 15.2037 42.5364 15.2207 41.6977 15.232C40.8703 15.2547 40.0827 15.2773 39.3347 15.3ZM38.4167 6.443C39.108 6.42033 39.686 6.19367 40.1507 5.763C40.6153 5.33233 40.8477 4.76 40.8477 4.046C40.8477 3.264 40.6097 2.686 40.1337 2.312C39.669 1.938 39.091 1.76233 38.3997 1.785C37.7197 1.80767 37.1417 2.03433 36.6657 2.465C36.1897 2.89567 35.9517 3.46233 35.9517 4.165C35.9517 4.913 36.1897 5.48533 36.6657 5.882C37.153 6.27867 37.7367 6.46567 38.4167 6.443ZM45.2507 8.143C45.2053 8.143 45.1827 8.11467 45.1827 8.058V2.074C45.1827 1.64333 45.1657 1.24667 45.1317 0.884C45.109 0.521333 45.0693 0.283333 45.0127 0.17C44.99 0.113333 44.99 0.0736667 45.0127 0.0510004C45.0467 0.0170001 45.0863 0 45.1317 0C45.2223 0 45.3753 0 45.5907 0C45.8173 0 46.0327 0.00566659 46.2367 0.0169998C46.2933 0.0169998 46.3217 0.0623332 46.3217 0.153C46.2877 0.572333 46.265 0.940667 46.2537 1.258C46.2537 1.564 46.2537 1.921 46.2537 2.329V7.718C46.2537 7.888 46.2423 7.99 46.2197 8.024C46.2083 8.058 46.1743 8.08067 46.1177 8.092L45.2507 8.143Z" fill="black"/>
</svg>
