<svg width="176" height="23" viewBox="0 0 176 23" fill="none" xmlns="http://www.w3.org/2000/svg">
<path d="M13.2441 3.5127H9.02148V4.5459L13.5137 7.78027L12.5254 8.72363L8.39258 5.80371L4.30469 8.76855L3.18164 7.73535L7.49414 4.59082V3.5127H3.40625V2.16504H7.49414V0.233398H8.97656V2.16504H13.2441V3.5127ZM9.38086 11.5986V13.4854H14.0527V18.6514H4.08008V20.8525H15.4004V22.0205H3.36133L2.59766 21.5713V17.2139H12.5254V14.7881H3.36133V13.4854H7.76367V11.7334H0.441406L0.53125 10.3408H16.209V11.5986H9.38086Z" fill="#433232"/>
<path d="M18.1855 12.542L21.959 6.43262V2.34473L23.3066 2.25488V6.20801L28.248 11.0596L27.4395 12.2275L22.9473 7.87012L19.4434 13.3506L18.1855 12.542ZM30.4043 1.76074H31.9316V6.56738H35.4355V8.09473H31.9316V15.0576H30.3145L30.4043 1.76074ZM23.7109 20.3135V15.0576L25.2383 15.3271V19.46H33.3691L33.459 20.8975H24.3398L23.7109 20.3135Z" fill="#433232"/>
<path d="M37.5918 8.94824C37.5918 8.42415 37.6517 7.86263 37.7715 7.26367C37.9062 6.64974 38.1234 6.08073 38.4229 5.55664C38.7373 5.03255 39.1566 4.59831 39.6807 4.25391C40.2048 3.90951 40.8711 3.7373 41.6797 3.7373C42.4434 3.7373 43.0872 3.90951 43.6113 4.25391C44.1354 4.59831 44.5547 5.03255 44.8691 5.55664C45.1986 6.08073 45.4307 6.64974 45.5654 7.26367C45.7002 7.86263 45.7676 8.42415 45.7676 8.94824C45.7676 9.50228 45.7002 10.0863 45.5654 10.7002C45.4307 11.2992 45.1986 11.8532 44.8691 12.3623C44.5547 12.8714 44.1354 13.2907 43.6113 13.6201C43.0872 13.9495 42.4434 14.1143 41.6797 14.1143C40.916 14.1143 40.2721 13.9495 39.748 13.6201C39.224 13.2907 38.7972 12.8714 38.4678 12.3623C38.1533 11.8532 37.9287 11.2992 37.7939 10.7002C37.6592 10.0863 37.5918 9.50228 37.5918 8.94824ZM39.0742 8.94824C39.0742 9.32259 39.1117 9.72689 39.1865 10.1611C39.2614 10.5954 39.3962 10.9997 39.5908 11.374C39.7855 11.7484 40.0475 12.0628 40.377 12.3174C40.7214 12.557 41.1556 12.6768 41.6797 12.6768C42.1888 12.6768 42.6081 12.557 42.9375 12.3174C43.2819 12.0628 43.5514 11.7484 43.7461 11.374C43.9557 10.9997 44.098 10.5954 44.1729 10.1611C44.2477 9.72689 44.2852 9.32259 44.2852 8.94824C44.2852 8.57389 44.2402 8.1696 44.1504 7.73535C44.0755 7.30111 43.9408 6.89681 43.7461 6.52246C43.5514 6.14811 43.2819 5.84115 42.9375 5.60156C42.6081 5.34701 42.1888 5.21973 41.6797 5.21973C41.1406 5.21973 40.6989 5.34701 40.3545 5.60156C40.0251 5.84115 39.763 6.14811 39.5684 6.52246C39.3737 6.89681 39.2389 7.30111 39.1641 7.73535C39.1042 8.1696 39.0742 8.57389 39.0742 8.94824ZM50.0801 16.7646V1.40137H51.9219V16.7646H50.0801Z" fill="#433232"/>
<path d="M62.0293 7.95996C62.0293 7.361 62.1042 6.79199 62.2539 6.25293C62.4036 5.71387 62.6432 5.24219 62.9727 4.83789C63.3021 4.43359 63.7214 4.11165 64.2305 3.87207C64.7396 3.63249 65.3535 3.5127 66.0723 3.5127C66.8359 3.5127 67.4648 3.67741 67.959 4.00684C68.4681 4.32129 68.8724 4.71061 69.1719 5.1748C69.4863 5.639 69.7035 6.12565 69.8232 6.63477C69.958 7.14388 70.0254 7.58561 70.0254 7.95996C70.0254 8.34928 69.9655 8.80599 69.8457 9.33008C69.7409 9.83919 69.5387 10.3258 69.2393 10.79C68.9548 11.2393 68.5505 11.6211 68.0264 11.9355C67.5173 12.25 66.8509 12.4072 66.0273 12.4072C65.2637 12.4072 64.6273 12.265 64.1182 11.9805C63.609 11.696 63.1973 11.3366 62.8828 10.9023C62.5833 10.4681 62.3662 9.98893 62.2314 9.46484C62.0967 8.94076 62.0293 8.43913 62.0293 7.95996ZM63.4668 7.95996C63.4668 8.43913 63.5342 8.86589 63.6689 9.24023C63.8037 9.59961 63.9909 9.90658 64.2305 10.1611C64.4701 10.4157 64.7396 10.6178 65.0391 10.7676C65.3535 10.9173 65.6829 10.9997 66.0273 11.0146C66.4017 11.0146 66.7461 10.9398 67.0605 10.79C67.375 10.6253 67.637 10.4082 67.8467 10.1387C68.0713 9.85417 68.2435 9.53223 68.3633 9.17285C68.4831 8.7985 68.543 8.39421 68.543 7.95996C68.513 7.10645 68.2809 6.39518 67.8467 5.82617C67.4124 5.24219 66.806 4.93522 66.0273 4.90527C65.638 4.90527 65.2861 4.99512 64.9717 5.1748C64.6722 5.33952 64.4102 5.56413 64.1855 5.84863C63.9609 6.11816 63.7887 6.4401 63.6689 6.81445C63.5492 7.17383 63.4818 7.55566 63.4668 7.95996ZM76.1348 1.94043V13.71H74.5176V1.89551L76.1348 1.94043ZM62.4785 15.2373H77.9766V22.0654H63.377L62.7031 21.4365L62.4785 15.2373ZM64.2305 16.7646V20.7178H76.5391V16.7646H64.2305Z" fill="#433232"/>
<path d="M82.1094 11.6885H86.0176L85.7031 7.69043L81.7949 8.00488L82.1094 11.6885ZM80.627 12.6768L79.8633 2.25488L81.3457 2.0752L81.75 6.47754H85.6133L85.2539 2.0752L86.7363 1.94043L87.5449 12.9912L81.3457 13.3955L80.627 12.6768ZM92.082 1.76074H93.6094V6.56738H97.1133V8.09473H93.6094V13.71H91.9922L92.082 1.76074ZM94.1035 21.8857H92.4863V16.8096H81.4355V15.3271H93.2949L94.1035 16.2705V21.8857Z" fill="#433232"/>
<path d="M98.8203 8.90332C98.8203 8.72363 98.8353 8.52148 98.8652 8.29688C98.9102 8.07227 98.9701 7.84766 99.0449 7.62305C99.1348 7.39844 99.2396 7.18132 99.3594 6.97168C99.4792 6.76204 99.6289 6.58236 99.8086 6.43262L97.6523 6.16309L97.832 4.86035L102.324 5.35449L102.594 2.2998L103.896 2.38965L103.672 5.48926L107.535 5.89355L107.4 7.24121L105.289 7.06152C105.723 7.58561 105.94 8.20703 105.94 8.92578C105.94 9.53971 105.843 10.0863 105.648 10.5654C105.454 11.0446 105.199 11.4489 104.885 11.7783C104.57 12.1077 104.203 12.3623 103.784 12.542C103.38 12.7217 102.953 12.8115 102.504 12.8115C101.785 12.8115 101.186 12.6842 100.707 12.4297C100.228 12.1751 99.846 11.8682 99.5615 11.5088C99.277 11.1344 99.0749 10.7451 98.9551 10.3408C98.8503 9.92155 98.7979 9.55469 98.7979 9.24023C98.7979 9.09049 98.8053 8.97819 98.8203 8.90332ZM100.303 8.8584C100.288 8.93327 100.28 9.0306 100.28 9.15039C100.28 9.7194 100.46 10.221 100.819 10.6553C101.194 11.0745 101.71 11.2842 102.369 11.2842C103.043 11.2842 103.56 11.0596 103.919 10.6104C104.293 10.1611 104.48 9.59212 104.48 8.90332C104.48 8.13965 104.263 7.58561 103.829 7.24121C103.395 6.89681 102.878 6.72461 102.279 6.72461C101.755 6.72461 101.313 6.89681 100.954 7.24121C100.595 7.58561 100.378 8.12467 100.303 8.8584ZM112.971 3.06348H114.498V13.7998H112.971V8.94824H110.41V13.2158H108.793V3.1084H110.41V7.46582H112.971V3.06348ZM102.324 21.5713L101.336 20.4482L104.84 16.8545V14.4287H106.367V16.7646L109.107 18.7861L110.5 17.2139L110.68 14.6982H112.117V17.1689L115.666 20.7178L114.678 21.751L111.264 18.4268L107.895 22.1553L106.951 21.1221L108.074 19.8643L105.648 18.1123L102.324 21.5713Z" fill="#433232"/>
<path d="M120.158 8.54395L124.426 3.69238V0.637695H125.953V3.69238L130.625 7.91504L129.771 9.08301L125.279 4.99512L121.281 9.53223L120.158 8.54395ZM133.141 13.126H117.328L117.418 11.8682H133.096L133.141 13.126ZM119.709 14.9678V14.8779H121.146L121.326 17.3037H129.816L129.592 14.833L130.984 14.7432L131.523 21.8857H121.102L120.158 21.4365L119.709 14.9678ZM130.041 20.6729L129.906 18.4268H121.461V20.6729H130.041Z" fill="#433232"/>
<path d="M145.629 12.1826V13.6201H136.734L136.105 12.6768V3.46777H137.633V11.958L145.629 12.1826ZM148.459 16.7646V1.40137H150.301V16.7646H148.459Z" fill="#433232"/>
<path d="M162.654 13.0811V14.5635H154.344L153.67 13.71V4.5459H161.441V6.20801H155.242V12.9463L162.654 13.0811ZM167.146 17.6631H165.484V2.2998H167.236V9.21777H171.1V10.7002H167.146V17.6631Z" fill="#433232"/>
<path d="M175.143 15.8213L173.93 17.4834L172.043 15.5518L173.301 14.0244L175.143 15.8213Z" fill="#433232"/>
</svg>
