<svg width="112" height="17" viewBox="0 0 112 17" fill="none" xmlns="http://www.w3.org/2000/svg">
<path d="M13.82 3.79556C13.8467 3.94222 13.8667 4.08222 13.88 4.21556C13.9067 4.34889 13.9067 4.49556 13.88 4.65556C13.88 4.80222 13.8733 4.94222 13.86 5.07556C13.86 5.19556 13.8467 5.32889 13.82 5.47556C13.7533 5.98222 13.5933 6.43556 13.34 6.83556C13.1 7.23556 12.7333 7.57556 12.24 7.85556C11.7867 8.12222 11.24 8.32889 10.6 8.47556C9.96 8.62222 9.24 8.69556 8.44 8.69556H7.08C6.82667 8.69556 6.57333 8.69556 6.32 8.69556C6.08 8.69556 5.83333 8.68222 5.58 8.65556C5.31333 8.64222 5.05333 8.61556 4.8 8.57556C4.56 8.53556 4.32 8.48889 4.08 8.43556C3.85333 8.39556 3.63333 8.34222 3.42 8.27556C3.20667 8.19556 3 8.10222 2.8 7.99556C2.45333 7.76889 2.15333 7.53556 1.9 7.29556C1.66 7.04222 1.48 6.75556 1.36 6.43556C1.21333 6.12889 1.10667 5.81556 1.04 5.49556C0.973333 5.17556 0.94 4.83556 0.94 4.47556C0.94 4.12889 0.973333 3.80222 1.04 3.49556C1.10667 3.18889 1.21333 2.91556 1.36 2.67555C1.50667 2.40889 1.7 2.16222 1.94 1.93556C2.18 1.69556 2.46 1.46889 2.78 1.25556C2.92667 1.14889 3.08667 1.06222 3.26 0.995555C3.44667 0.928889 3.66 0.862222 3.9 0.795555C4.34 0.675555 4.82667 0.562222 5.36 0.455555C5.62667 0.402222 5.88 0.368889 6.12 0.355555C6.37333 0.328889 6.62667 0.308889 6.88 0.295556C7.36 0.255556 7.77333 0.255556 8.12 0.295556C8.44 0.308889 8.72667 0.328889 8.98 0.355555C9.24667 0.368889 9.51333 0.402222 9.78 0.455555C10.0067 0.508888 10.2533 0.575555 10.52 0.655556C10.8 0.722223 11.0733 0.808889 11.34 0.915555C11.46 0.968889 11.5867 1.02889 11.72 1.09556C11.8533 1.16222 11.9933 1.24222 12.14 1.33556C12.5133 1.56222 12.7733 1.77556 12.92 1.97556C13.04 2.13556 13.1467 2.29556 13.24 2.45556C13.3467 2.60222 13.4333 2.74889 13.5 2.89556C13.58 3.02889 13.6467 3.17556 13.7 3.33556C13.7533 3.49556 13.7933 3.64889 13.82 3.79556ZM1.76 12.4756C1.45333 12.4756 1.16 12.4289 0.88 12.3356C0.613333 12.3089 0.4 12.1489 0.24 11.8556C0.146667 11.7489 0.08 11.6356 0.04 11.5156C0.0133333 11.3956 0 11.2756 0 11.1556C0 10.8889 0.106667 10.6489 0.32 10.4356C0.36 10.3956 0.413333 10.3556 0.48 10.3156C0.546667 10.2756 0.626667 10.2489 0.72 10.2356C0.786667 10.1822 0.853333 10.1556 0.92 10.1556C1 10.1422 1.08667 10.1222 1.18 10.0956C1.24667 10.0689 1.30667 10.0556 1.36 10.0556C1.41333 10.0556 1.47333 10.0556 1.54 10.0556H13.38C13.5133 10.0556 13.6267 10.0689 13.72 10.0956C13.8267 10.1089 13.94 10.1356 14.06 10.1756C14.2733 10.2556 14.4533 10.3822 14.6 10.5556C14.68 10.6489 14.7267 10.7489 14.74 10.8556C14.7667 10.9489 14.78 11.0689 14.78 11.2156C14.78 11.5889 14.6733 11.8356 14.46 11.9556C14.3533 12.0622 14.2267 12.1489 14.08 12.2156C13.9467 12.2689 13.8067 12.3089 13.66 12.3356C13.38 12.4289 13.06 12.4756 12.7 12.4756H8.78C8.79333 12.5289 8.8 12.6022 8.8 12.6956V14.4156C8.8 14.5356 8.8 14.6489 8.8 14.7556C8.8 14.8622 8.78667 14.9489 8.76 15.0156C8.73333 15.1622 8.70667 15.2956 8.68 15.4156C8.65333 15.5356 8.60667 15.6622 8.54 15.7956C8.44667 16.0222 8.28667 16.2222 8.06 16.3956C7.95333 16.4622 7.84 16.5022 7.72 16.5156C7.61333 16.5422 7.49333 16.5622 7.36 16.5756C7.21333 16.5756 7.08 16.5622 6.96 16.5356C6.85333 16.5089 6.74667 16.4756 6.64 16.4356C6.45333 16.3156 6.31333 16.1622 6.22 15.9756C6.18 15.8689 6.14667 15.7622 6.12 15.6556C6.10667 15.5489 6.09333 15.4556 6.08 15.3756C6.08 15.2956 6.07333 15.2089 6.06 15.1156C6.04667 15.0222 6.04 14.9422 6.04 14.8756C6.06667 14.7956 6.08 14.7156 6.08 14.6356C6.08 14.5422 6.08 14.4689 6.08 14.4156C6.05333 14.2556 6.04 14.0422 6.04 13.7756C6.04 13.4956 6.04 13.2556 6.04 13.0556V12.4756H1.76ZM11.28 4.83556C11.28 4.52889 11.2267 4.26889 11.12 4.05556C11.0533 3.92222 10.9667 3.80222 10.86 3.69555C10.7667 3.58889 10.6467 3.49556 10.5 3.41556C10.3533 3.30889 10.1667 3.23556 9.94 3.19556C9.71333 3.14222 9.48 3.11556 9.24 3.11556C8.84 3.06222 8.34 3.02222 7.74 2.99556C7.44667 2.96889 7.16 2.96222 6.88 2.97556C6.6 2.98889 6.32 3.00222 6.04 3.01556C5.76 3.04222 5.49333 3.08222 5.24 3.13556C5 3.18889 4.77333 3.27556 4.56 3.39556C4.10667 3.56889 3.84667 3.86889 3.78 4.29556C3.71333 4.57556 3.71333 4.80889 3.78 4.99556C3.80667 5.12889 3.84667 5.24889 3.9 5.35556C3.95333 5.46222 4.04 5.56222 4.16 5.65556C4.33333 5.82889 4.58667 5.96889 4.92 6.07556C5.21333 6.23556 5.63333 6.31556 6.18 6.31556C6.38 6.34222 6.58 6.36222 6.78 6.37556C6.99333 6.38889 7.22667 6.40889 7.48 6.43556H8.92C9.4 6.38222 9.84 6.31556 10.24 6.23556C10.6533 6.06222 10.9467 5.86889 11.12 5.65556C11.1733 5.50889 11.2067 5.37556 11.22 5.25556C11.2333 5.12222 11.2533 4.98222 11.28 4.83556Z" fill="#EA7171"/>
<path d="M30.1459 14.9556C30.3593 14.9822 30.5459 15.0356 30.7059 15.1156C30.8659 15.1956 30.9793 15.3422 31.0459 15.5556C31.2059 16.0356 31.0326 16.3756 30.5259 16.5756C30.3659 16.6422 30.2059 16.6822 30.0459 16.6956C29.8859 16.7089 29.7326 16.7156 29.5859 16.7156H20.2859C20.0193 16.7156 19.7393 16.7089 19.4459 16.6956C19.1659 16.6956 18.8793 16.6889 18.5859 16.6756C18.3059 16.6622 18.0726 16.5622 17.8859 16.3756C17.6993 16.1889 17.5926 15.9422 17.5659 15.6356L17.5059 14.2356C17.4926 14.0889 17.4926 13.9156 17.5059 13.7156C17.5193 13.5156 17.5859 13.3489 17.7059 13.2156C17.8926 13.0156 18.1393 12.8889 18.4459 12.8356C18.7659 12.7822 19.0726 12.7556 19.3659 12.7556C19.5526 12.7556 19.8593 12.7556 20.2859 12.7556C20.7259 12.7556 21.3193 12.7622 22.0659 12.7756C22.8126 12.7756 23.7326 12.7756 24.8259 12.7756C25.9326 12.7756 27.2459 12.7756 28.7659 12.7756V12.0556H18.9259C18.7926 12.0556 18.6726 12.0556 18.5659 12.0556C18.4593 12.0556 18.3526 12.0422 18.2459 12.0156C18.1259 11.9889 18.0193 11.9622 17.9259 11.9356C17.8326 11.9089 17.7526 11.8422 17.6859 11.7356C17.4993 11.4556 17.4526 11.1689 17.5459 10.8756C17.5859 10.7689 17.6459 10.6889 17.7259 10.6356C17.8059 10.5689 17.8993 10.5156 18.0059 10.4756C18.1126 10.4356 18.2126 10.4089 18.3059 10.3956C18.4126 10.3822 18.5059 10.3689 18.5859 10.3556C18.7859 10.3156 18.9926 10.2956 19.2059 10.2956C19.3926 10.2956 19.5926 10.2956 19.8059 10.2956C20.0326 10.2956 20.2993 10.3022 20.6059 10.3156C20.9126 10.3156 21.2659 10.3156 21.6659 10.3156C22.0793 10.3156 22.5593 10.3156 23.1059 10.3156C23.1059 10.1289 23.1126 9.94889 23.1259 9.77556C23.1393 9.58889 23.1459 9.38889 23.1459 9.17556C22.8393 9.17556 22.5659 9.17556 22.3259 9.17556C22.0993 9.17556 21.8726 9.17556 21.6459 9.17556C21.4326 9.17556 21.2126 9.17556 20.9859 9.17556C20.7593 9.16222 20.5059 9.14889 20.2259 9.13556C20.1059 9.13556 19.9326 9.12889 19.7059 9.11556C19.4793 9.10222 19.2393 9.09556 18.9859 9.09556C18.7326 9.08222 18.4926 9.07556 18.2659 9.07556C18.0526 9.06222 17.8993 9.05556 17.8059 9.05556C17.5926 9.02889 17.4193 9.00222 17.2859 8.97556C17.1659 8.94889 17.0193 8.85556 16.8459 8.69556C16.7526 8.61556 16.6859 8.53556 16.6459 8.45556C16.6059 8.36222 16.5859 8.24222 16.5859 8.09556C16.5859 7.80222 16.6726 7.56889 16.8459 7.39556C16.9393 7.28889 17.0659 7.20889 17.2259 7.15556C17.3859 7.10222 17.5393 7.06889 17.6859 7.05556C17.8326 7.02889 17.9593 7.01556 18.0659 7.01556C18.1859 7.01556 18.2526 7.01556 18.2659 7.01556H29.7059C29.9059 7.01556 30.1059 7.01556 30.3059 7.01556C30.5059 7.01556 30.6993 7.02222 30.8859 7.03556C31.0726 7.04889 31.2526 7.07556 31.4259 7.11556C31.6126 7.14222 31.7793 7.22222 31.9259 7.35556C32.0726 7.46222 32.1526 7.58889 32.1659 7.73556C32.1926 7.86889 32.2059 8.01556 32.2059 8.17556C32.2059 8.37556 32.1459 8.52889 32.0259 8.63556C31.9193 8.74222 31.7659 8.82889 31.5659 8.89556C31.2993 9.00222 30.9993 9.06222 30.6659 9.07556C30.3459 9.07556 30.0526 9.08222 29.7859 9.09556C29.1193 9.12222 28.4726 9.14222 27.8459 9.15556C27.2326 9.16889 26.5859 9.17556 25.9059 9.17556C25.9193 9.36222 25.9193 9.55556 25.9059 9.75556C25.8926 9.94222 25.8859 10.1289 25.8859 10.3156H28.9659C29.6459 10.3156 30.1659 10.4222 30.5259 10.6356C30.8859 10.8356 31.0659 11.1689 31.0659 11.6356V13.0556C31.0659 13.2422 31.0193 13.4289 30.9259 13.6156C30.8459 13.7889 30.6993 13.9356 30.4859 14.0556C30.3126 14.1622 30.1393 14.2222 29.9659 14.2356C29.7926 14.2356 29.6193 14.2356 29.4459 14.2356H19.9659V14.9556H30.1459ZM17.5859 3.17556C17.5859 2.62889 17.7393 2.17556 18.0459 1.81556C18.3659 1.45556 18.8126 1.17556 19.3859 0.975555C19.9726 0.762223 20.6859 0.615556 21.5259 0.535555C22.3659 0.442222 23.3193 0.395556 24.3859 0.395556C25.3993 0.395556 26.3259 0.428889 27.1659 0.495556C28.0059 0.548889 28.7259 0.675556 29.3259 0.875556C29.9259 1.07556 30.3859 1.36222 30.7059 1.73556C31.0393 2.09556 31.2059 2.57556 31.2059 3.17556C31.2059 3.77556 31.0659 4.26222 30.7859 4.63556C30.5059 4.99556 30.0793 5.27556 29.5059 5.47556C28.9326 5.66222 28.2193 5.78889 27.3659 5.85556C26.5126 5.92222 25.5193 5.95556 24.3859 5.95556C23.4393 5.95556 22.5526 5.92222 21.7259 5.85556C20.9126 5.78889 20.1926 5.66222 19.5659 5.47556C18.9526 5.27556 18.4659 4.99556 18.1059 4.63556C17.7593 4.26222 17.5859 3.77556 17.5859 3.17556ZM28.4659 3.17556C28.4659 2.96222 28.3393 2.80222 28.0859 2.69556C27.8459 2.57556 27.5326 2.48889 27.1459 2.43556C26.7593 2.36889 26.3193 2.32889 25.8259 2.31556C25.3459 2.30222 24.8659 2.29556 24.3859 2.29556C23.9059 2.29556 23.4326 2.30222 22.9659 2.31556C22.4993 2.32889 22.0793 2.36889 21.7059 2.43556C21.3326 2.48889 21.0259 2.57556 20.7859 2.69556C20.5593 2.80222 20.4459 2.96222 20.4459 3.17556C20.4459 3.36222 20.5593 3.50889 20.7859 3.61556C21.0126 3.72222 21.3126 3.80222 21.6859 3.85556C22.0593 3.89556 22.4726 3.92222 22.9259 3.93556C23.3926 3.94889 23.8659 3.95556 24.3459 3.95556C24.8259 3.95556 25.3059 3.96222 25.7859 3.97556C26.2793 3.97556 26.7259 3.96222 27.1259 3.93556C27.5259 3.89556 27.8459 3.82222 28.0859 3.71556C28.3393 3.59556 28.4659 3.41556 28.4659 3.17556Z" fill="#EA7171"/>
<path d="M48.167 1.17556C48.7137 1.17556 49.1804 1.22222 49.567 1.31556C49.9537 1.40889 50.2604 1.64889 50.487 2.03555C50.7004 2.39556 50.7337 2.75556 50.587 3.11556C50.4004 3.48889 50.067 3.70889 49.587 3.77556C49.267 3.82889 48.9004 3.86222 48.487 3.87556C48.0737 3.87556 47.527 3.86222 46.847 3.83556C46.8337 4.06222 46.827 4.30222 46.827 4.55556C46.827 4.79556 46.827 5.02222 46.827 5.23556C46.827 5.43556 46.827 5.60889 46.827 5.75556C46.8404 5.90222 46.847 5.99556 46.847 6.03556V8.27556C46.847 8.38222 46.8537 8.52889 46.867 8.71556C46.8804 8.88889 46.8937 9.02222 46.907 9.11556C47.0137 9.22222 47.1604 9.38222 47.347 9.59556C47.5337 9.79556 47.6804 9.96222 47.787 10.0956C47.9204 10.2556 48.0537 10.4222 48.187 10.5956C48.3337 10.7689 48.4804 10.9622 48.627 11.1756C48.7337 11.2956 48.827 11.4156 48.907 11.5356C48.987 11.6556 49.0604 11.7622 49.127 11.8556C49.3804 12.2156 49.6404 12.6089 49.907 13.0356C50.1737 13.4622 50.3537 13.8889 50.447 14.3156C50.487 14.5022 50.487 14.7089 50.447 14.9356C50.4204 15.1489 50.327 15.3289 50.167 15.4756C49.9404 15.6756 49.687 15.7756 49.407 15.7756C49.1004 15.7756 48.807 15.6956 48.527 15.5356C48.247 15.3622 48.0204 15.1822 47.847 14.9956C47.5937 14.7289 47.3537 14.4489 47.127 14.1556C46.9137 13.8622 46.7004 13.5756 46.487 13.2956C46.3404 13.0822 46.187 12.8756 46.027 12.6756C45.867 12.4622 45.7004 12.2556 45.527 12.0556C45.5004 12.0022 45.4737 11.9689 45.447 11.9556C45.447 11.9689 45.4404 11.9756 45.427 11.9756C45.427 11.9756 45.427 11.9822 45.427 11.9956C45.3604 12.1022 45.2804 12.2089 45.187 12.3156C45.107 12.4089 45.0337 12.5089 44.967 12.6156C44.8604 12.7356 44.7604 12.8622 44.667 12.9956C44.587 13.1156 44.507 13.2356 44.427 13.3556C44.2404 13.6356 44.0537 13.9156 43.867 14.1956C43.6804 14.4622 43.467 14.7156 43.227 14.9556C42.6537 15.5289 42.1137 15.8156 41.607 15.8156C41.4737 15.8156 41.347 15.7956 41.227 15.7556C40.9204 15.6756 40.7137 15.4889 40.607 15.1956C40.5004 14.9689 40.4604 14.7222 40.487 14.4556C40.527 14.1889 40.5937 13.9556 40.687 13.7556C40.7937 13.5289 40.9137 13.3156 41.047 13.1156C41.1804 12.9156 41.3204 12.7156 41.467 12.5156C41.5604 12.3956 41.647 12.2756 41.727 12.1556C41.8204 12.0356 41.9004 11.9156 41.967 11.7956C42.087 11.5956 42.247 11.3622 42.447 11.0956C42.6604 10.8156 42.867 10.5489 43.067 10.2956C43.2804 10.0289 43.4737 9.78889 43.647 9.57556C43.8204 9.36222 43.9404 9.20889 44.007 9.11556V3.83556H42.787C42.2804 3.83556 41.927 3.83556 41.727 3.83556C41.5404 3.82222 41.4004 3.80222 41.307 3.77556C40.8004 3.69556 40.4604 3.40889 40.287 2.91556C40.1404 2.48889 40.1937 2.11556 40.447 1.79556C40.6737 1.47556 40.9937 1.27556 41.407 1.19556C41.4737 1.18222 41.5404 1.17556 41.607 1.17556C41.6737 1.16222 41.747 1.15556 41.827 1.15556C41.9604 1.15556 42.0537 1.16222 42.107 1.17556H48.167ZM54.907 14.6556C54.8804 14.8156 54.8604 14.9756 54.847 15.1356C54.8337 15.2822 54.8004 15.4356 54.747 15.5956C54.7204 15.6489 54.7004 15.6956 54.687 15.7356C54.6737 15.7756 54.6537 15.8222 54.627 15.8756C54.5337 16.0622 54.4137 16.2089 54.267 16.3156C53.9604 16.5022 53.6204 16.5489 53.247 16.4556C53.0337 16.4156 52.8604 16.3356 52.727 16.2156C52.607 16.1089 52.5137 15.9689 52.447 15.7956C52.3937 15.6356 52.347 15.4756 52.307 15.3156C52.2804 15.1556 52.267 15.0156 52.267 14.8956C52.267 14.7756 52.267 14.7089 52.267 14.6956V2.55556C52.267 2.39556 52.267 2.22222 52.267 2.03555C52.267 1.84889 52.2804 1.66222 52.307 1.47556C52.3337 1.28889 52.3737 1.11556 52.427 0.955556C52.4804 0.795555 52.5537 0.668889 52.647 0.575556C52.7937 0.428889 52.947 0.342222 53.107 0.315556C53.267 0.275555 53.4404 0.255555 53.627 0.255555C53.8537 0.255555 54.0604 0.322222 54.247 0.455555C54.447 0.575555 54.587 0.748889 54.667 0.975555C54.787 1.25556 54.8537 1.54889 54.867 1.85556C54.8804 2.16222 54.8937 2.46889 54.907 2.77556V2.87556C54.9337 3.90222 54.9404 4.95556 54.927 6.03556C54.9137 7.11556 54.907 8.13556 54.907 9.09556V13.9356C54.907 14.0556 54.907 14.1756 54.907 14.2956C54.9204 14.4156 54.9204 14.5356 54.907 14.6556Z" fill="#EA7171"/>
<path d="M64.6845 5.03556L63.6045 6.11556C63.3112 6.39556 63.0179 6.66889 62.7245 6.93556C62.4312 7.20222 62.1312 7.46889 61.8245 7.73556C61.7979 7.76222 61.7712 7.78889 61.7445 7.81556C61.7179 7.82889 61.6912 7.84889 61.6645 7.87556C61.4112 8.10222 61.1579 8.34222 60.9045 8.59556C60.6645 8.84889 60.3712 9.02889 60.0245 9.13556C59.7845 9.20222 59.5245 9.19556 59.2445 9.11556C58.9645 9.03556 58.7512 8.89556 58.6045 8.69556C58.4979 8.53556 58.4445 8.37556 58.4445 8.21556C58.4445 8.05556 58.4712 7.90222 58.5245 7.75556C58.5912 7.59556 58.6712 7.44222 58.7645 7.29556C58.8579 7.14889 58.9579 7.01556 59.0645 6.89556C59.4645 6.42889 59.8779 5.98889 60.3045 5.57556C60.7445 5.14889 61.1912 4.73556 61.6445 4.33556C61.7912 4.21556 61.9579 4.05556 62.1445 3.85556C62.3312 3.64222 62.5112 3.43556 62.6845 3.23556C62.8845 2.99556 63.0912 2.75556 63.3045 2.51556C63.2779 2.20889 63.2712 1.91556 63.2845 1.63556C63.2979 1.39556 63.3312 1.15556 63.3845 0.915555C63.4379 0.675555 63.5379 0.482222 63.6845 0.335555C63.8579 0.175555 64.1045 0.0755552 64.4245 0.0355557C64.7445 -0.0177778 65.0112 -0.0111112 65.2245 0.0555554C65.5312 0.148889 65.7445 0.308889 65.8645 0.535555C65.9979 0.762222 66.0845 1.02889 66.1245 1.33556C66.1379 1.58889 66.1379 1.80889 66.1245 1.99556C66.1245 2.16889 66.1979 2.36222 66.3445 2.57556C66.4512 2.73556 66.5712 2.88889 66.7045 3.03556C66.8512 3.18222 66.9912 3.32889 67.1245 3.47556C67.5912 3.99556 68.0445 4.49556 68.4845 4.97556C68.9379 5.45556 69.4045 5.94889 69.8845 6.45556C70.0445 6.61556 70.1979 6.81556 70.3445 7.05556C70.4912 7.29556 70.5912 7.54222 70.6445 7.79556C70.7112 8.03556 70.7045 8.26889 70.6245 8.49556C70.5579 8.70889 70.3845 8.88222 70.1045 9.01556C69.9045 9.10889 69.7112 9.14889 69.5245 9.13556C69.3379 9.10889 69.1579 9.05556 68.9845 8.97556C68.8112 8.88222 68.6445 8.76889 68.4845 8.63556C68.3379 8.50222 68.2045 8.36889 68.0845 8.23556L64.6845 5.03556ZM58.9045 12.7956C58.5979 12.7822 58.3045 12.7422 58.0245 12.6756C57.7579 12.5956 57.5379 12.4222 57.3645 12.1556C57.2179 11.9289 57.1445 11.6889 57.1445 11.4356C57.1579 11.1689 57.2579 10.9422 57.4445 10.7556C57.5512 10.6489 57.6845 10.5689 57.8445 10.5156C58.0045 10.4622 58.1579 10.4222 58.3045 10.3956C58.4512 10.3689 58.5779 10.3556 58.6845 10.3556C58.8045 10.3556 58.8712 10.3556 58.8845 10.3556H69.9845C70.1979 10.3422 70.4245 10.3422 70.6645 10.3556C70.9179 10.3689 71.1512 10.4156 71.3645 10.4956C71.5779 10.5622 71.7579 10.6822 71.9045 10.8556C72.0512 11.0156 72.1245 11.2422 72.1245 11.5356C72.1245 11.8689 72.0112 12.1222 71.7845 12.2956C71.5579 12.4556 71.2845 12.5756 70.9645 12.6556C70.6579 12.7222 70.3379 12.7622 70.0045 12.7756C69.6712 12.7756 69.3979 12.7756 69.1845 12.7756H68.4045C68.1379 12.7889 67.8779 12.7956 67.6245 12.7956C67.3712 12.7822 67.1112 12.7756 66.8445 12.7756H66.0845C66.0979 13.1489 66.1112 13.5422 66.1245 13.9556C66.1379 14.3689 66.1179 14.7356 66.0645 15.0556C66.0379 15.3089 65.9712 15.5489 65.8645 15.7756C65.7712 16.0156 65.6112 16.2089 65.3845 16.3556C65.1845 16.4889 64.9512 16.5556 64.6845 16.5556C64.4179 16.5689 64.1779 16.5156 63.9645 16.3956C63.7912 16.2889 63.6579 16.1356 63.5645 15.9356C63.4845 15.7356 63.4312 15.5422 63.4045 15.3556C63.3779 15.2089 63.3645 15.0489 63.3645 14.8756C63.3779 14.7022 63.3845 14.5422 63.3845 14.3956C63.3712 14.1556 63.3645 13.8956 63.3645 13.6156C63.3645 13.3222 63.3645 13.0356 63.3645 12.7556H62.8645C62.4912 12.7556 62.1445 12.7622 61.8245 12.7756C61.5045 12.7756 61.1912 12.7822 60.8845 12.7956C60.5779 12.7956 60.2645 12.7956 59.9445 12.7956C59.6245 12.7956 59.2779 12.7956 58.9045 12.7956Z" fill="#EA7171"/>
<path d="M82.0011 6.99556C81.8544 6.87556 81.7344 6.72889 81.6411 6.55556C81.5611 6.36889 81.5011 6.18889 81.4611 6.01556C81.4211 5.82889 81.3944 5.66889 81.3811 5.53556C81.3678 5.40222 81.3611 5.32889 81.3611 5.31556V1.51556C81.3611 1.26222 81.4211 1.01556 81.5411 0.775556C81.6744 0.522222 81.8878 0.375556 82.1811 0.335555C82.3144 0.322222 82.4611 0.328889 82.6211 0.355555C82.7811 0.368889 82.9278 0.408889 83.0611 0.475556C83.2078 0.528889 83.3278 0.615555 83.4211 0.735555C83.5278 0.842222 83.5944 0.975556 83.6211 1.13556C83.6344 1.20222 83.6344 1.30222 83.6211 1.43556C83.6211 1.55556 83.6211 1.69556 83.6211 1.85556C83.6211 2.00222 83.6211 2.14222 83.6211 2.27556C83.6344 2.40889 83.6544 2.50222 83.6811 2.55556C83.7078 2.62222 83.7744 2.65556 83.8811 2.65556C83.9878 2.64222 84.0744 2.64222 84.1411 2.65556C84.4478 2.68222 84.7544 2.68889 85.0611 2.67555C85.3811 2.64889 85.7011 2.63556 86.0211 2.63556H91.5411C91.6611 2.63556 91.7544 2.64222 91.8211 2.65556C91.9678 2.66889 92.0744 2.66889 92.1411 2.65556C92.2078 2.64222 92.3078 2.62222 92.4411 2.59556C92.4544 2.54222 92.4611 2.46222 92.4611 2.35556C92.4744 2.23556 92.4811 2.11556 92.4811 1.99556C92.4811 1.86222 92.4811 1.73556 92.4811 1.61556C92.4811 1.49556 92.4811 1.40889 92.4811 1.35556C92.4944 1.11556 92.5478 0.902222 92.6411 0.715555C92.7344 0.515555 92.9011 0.388889 93.1411 0.335555C93.6078 0.242222 93.9811 0.308889 94.2611 0.535555C94.5411 0.762222 94.6744 1.11556 94.6611 1.59556C94.6611 1.90222 94.6611 2.24222 94.6611 2.61556C94.6611 2.98889 94.6611 3.36889 94.6611 3.75556C94.6744 4.14222 94.6744 4.52889 94.6611 4.91556C94.6611 5.28889 94.6478 5.62889 94.6211 5.93556C94.5944 6.12222 94.5544 6.27556 94.5011 6.39556C94.4478 6.51556 94.3678 6.65556 94.2611 6.81556C94.1544 6.96222 94.0144 7.07556 93.8411 7.15556C93.6678 7.22222 93.4811 7.26889 93.2811 7.29556C93.0811 7.32222 92.8811 7.33556 92.6811 7.33556C92.4811 7.33556 92.3011 7.33556 92.1411 7.33556C91.9278 7.34889 91.7411 7.35556 91.5811 7.35556C91.4344 7.35556 91.2944 7.35556 91.1611 7.35556C91.0278 7.35556 90.8811 7.35556 90.7211 7.35556C90.5744 7.34222 90.3944 7.33556 90.1811 7.33556C89.8611 7.33556 89.5678 7.33556 89.3011 7.33556C89.0478 7.33556 88.7944 7.33556 88.5411 7.33556C88.2878 7.33556 88.0278 7.33556 87.7611 7.33556C87.4944 7.33556 87.2011 7.33556 86.8811 7.33556C86.6544 7.33556 86.4278 7.34222 86.2011 7.35556C85.9744 7.36889 85.7478 7.37556 85.5211 7.37556C84.8811 7.36222 84.2478 7.36222 83.6211 7.37556C83.3411 7.37556 83.0544 7.35556 82.7611 7.31556C82.4811 7.27556 82.2278 7.16889 82.0011 6.99556ZM93.3411 10.7756C92.6744 10.8022 92.0278 10.8222 91.4011 10.8356C90.7744 10.8489 90.1211 10.8556 89.4411 10.8556C89.4411 11.0022 89.4344 11.1156 89.4211 11.1956C89.4211 11.2622 89.4144 11.3356 89.4011 11.4156C89.4011 11.4822 89.3944 11.5689 89.3811 11.6756C89.3811 11.7689 89.3811 11.9089 89.3811 12.0956C89.3544 12.2422 89.2878 12.3689 89.1811 12.4756C89.0878 12.5822 88.9744 12.6756 88.8411 12.7556C88.7078 12.8356 88.5611 12.8956 88.4011 12.9356C88.2544 12.9622 88.1144 12.9756 87.9811 12.9756C87.5811 12.9489 87.2678 12.8489 87.0411 12.6756C86.8278 12.5022 86.7011 12.2156 86.6611 11.8156C86.6478 11.6822 86.6411 11.5822 86.6411 11.5156C86.6411 11.4489 86.6411 11.3889 86.6411 11.3356C86.6544 11.2689 86.6611 11.2022 86.6611 11.1356C86.6744 11.0556 86.6811 10.9489 86.6811 10.8156C86.3744 10.8156 85.9744 10.8156 85.4811 10.8156C85.0011 10.8022 84.5011 10.7956 83.9811 10.7956C83.4611 10.7822 82.9611 10.7689 82.4811 10.7556C82.0011 10.7422 81.6211 10.7222 81.3411 10.6956C81.1278 10.6689 80.9544 10.6422 80.8211 10.6156C80.7011 10.5756 80.5544 10.4756 80.3811 10.3156C80.2878 10.2356 80.2211 10.1289 80.1811 9.99556C80.1411 9.86222 80.1211 9.72222 80.1211 9.57556C80.1211 9.29556 80.2078 9.06889 80.3811 8.89556C80.4744 8.78889 80.6011 8.70889 80.7611 8.65556C80.9211 8.60222 81.0744 8.56222 81.2211 8.53556C81.3678 8.50889 81.4944 8.49556 81.6011 8.49556C81.7211 8.49556 81.7878 8.49556 81.8011 8.49556H93.2411C93.4411 8.49556 93.6411 8.49556 93.8411 8.49556C94.0411 8.49556 94.2344 8.50222 94.4211 8.51556C94.6078 8.52889 94.7878 8.55556 94.9611 8.59556C95.1478 8.63556 95.3144 8.72222 95.4611 8.85556C95.6078 8.96222 95.6878 9.08222 95.7011 9.21556C95.7278 9.34889 95.7411 9.49556 95.7411 9.65556C95.7411 9.85556 95.6811 10.0356 95.5611 10.1956C95.4544 10.3556 95.3011 10.4689 95.1011 10.5356C94.8344 10.6422 94.5411 10.7089 94.2211 10.7356C93.9144 10.7489 93.6211 10.7622 93.3411 10.7756ZM93.9011 13.7556C93.9144 13.7556 93.9611 13.7689 94.0411 13.7956C94.1211 13.8222 94.2078 13.8689 94.3011 13.9356C94.4078 13.9889 94.5011 14.0689 94.5811 14.1756C94.6744 14.2689 94.7344 14.3822 94.7611 14.5156C94.8411 15.0222 94.7611 15.4156 94.5211 15.6956C94.3744 15.8822 94.2144 15.9956 94.0411 16.0356C93.8678 16.0756 93.7744 16.0956 93.7611 16.0956H82.8411C82.3344 16.0956 81.9344 16.0089 81.6411 15.8356C81.3478 15.6756 81.2011 15.4422 81.2011 15.1356V13.3556C81.1744 13.0622 81.1744 12.7622 81.2011 12.4556C81.2278 12.1756 81.3344 11.9489 81.5211 11.7756C81.7078 11.6022 81.9411 11.5156 82.2211 11.5156C82.2878 11.5156 82.3744 11.5222 82.4811 11.5356C82.6011 11.5356 82.6944 11.5489 82.7611 11.5756C82.9344 11.6289 83.0678 11.7089 83.1611 11.8156C83.2544 11.9222 83.3278 12.0489 83.3811 12.1956C83.4344 12.3289 83.4678 12.4756 83.4811 12.6356C83.4944 12.7822 83.5078 12.9289 83.5211 13.0756C83.5211 13.1822 83.5278 13.2956 83.5411 13.4156C83.5544 13.5222 83.5744 13.6222 83.6011 13.7156C83.6278 13.7289 83.7478 13.7489 83.9611 13.7756C84.1878 13.7889 84.5344 13.7956 85.0011 13.7956C85.4011 13.7956 85.7544 13.7889 86.0611 13.7756C86.3811 13.7622 86.5478 13.7556 86.5611 13.7556H93.9011ZM83.6811 5.19556C83.7078 5.31556 83.7678 5.40222 83.8611 5.45556C83.9678 5.49556 84.0811 5.52222 84.2011 5.53556C84.3344 5.54889 84.4678 5.55556 84.6011 5.55556C84.7344 5.54222 84.8411 5.53556 84.9211 5.53556C85.2944 5.53556 85.6611 5.54222 86.0211 5.55556C86.3944 5.55556 86.7611 5.55556 87.1211 5.55556C87.3744 5.55556 87.5944 5.55556 87.7811 5.55556C87.9678 5.55556 88.1478 5.55556 88.3211 5.55556C88.5078 5.55556 88.6944 5.55556 88.8811 5.55556C89.0811 5.54222 89.3078 5.53556 89.5611 5.53556C89.6944 5.52222 89.8278 5.52222 89.9611 5.53556C90.0944 5.53556 90.2344 5.53556 90.3811 5.53556C90.4878 5.53556 90.5878 5.52889 90.6811 5.51556C90.7878 5.50222 90.8944 5.50222 91.0011 5.51556C91.1078 5.54222 91.2144 5.55556 91.3211 5.55556C91.4411 5.54222 91.5544 5.53556 91.6611 5.53556C91.7278 5.54889 91.8078 5.56222 91.9011 5.57556C91.9944 5.57556 92.0811 5.57556 92.1611 5.57556C92.2411 5.56222 92.3078 5.52889 92.3611 5.47556C92.4144 5.42222 92.4411 5.34222 92.4411 5.23556C92.4411 5.12889 92.4478 5.03556 92.4611 4.95556C92.4744 4.87556 92.4411 4.78889 92.3611 4.69556C92.2544 4.58889 92.1411 4.52889 92.0211 4.51556C91.9011 4.50222 91.7744 4.50222 91.6411 4.51556H88.6411C88.6011 4.51556 88.4278 4.51556 88.1211 4.51556C87.8144 4.51556 87.4811 4.51556 87.1211 4.51556C86.7611 4.50222 86.4278 4.49556 86.1211 4.49556C85.8144 4.49556 85.6411 4.49556 85.6011 4.49556C85.4811 4.49556 85.3078 4.48889 85.0811 4.47556C84.8544 4.44889 84.6344 4.44222 84.4211 4.45556C84.2078 4.46889 84.0211 4.51556 83.8611 4.59556C83.7144 4.67556 83.6411 4.81556 83.6411 5.01556C83.6411 5.08222 83.6411 5.12222 83.6411 5.13556C83.6544 5.13556 83.6678 5.15556 83.6811 5.19556Z" fill="#EA7171"/>
<path d="M109.327 10.9956C109.727 10.9822 110.04 11.0156 110.267 11.0956C110.507 11.1756 110.694 11.2822 110.827 11.4156C110.96 11.5489 111.047 11.6956 111.087 11.8556C111.127 12.0156 111.147 12.1756 111.147 12.3356V14.6556C111.174 14.9489 111.174 15.2422 111.147 15.5356C111.12 15.8156 111.007 16.0422 110.807 16.2156C110.62 16.3889 110.374 16.4756 110.067 16.4756C110 16.4756 109.88 16.4689 109.707 16.4556C109.534 16.4556 109.414 16.4422 109.347 16.4156C109.174 16.3622 109.034 16.2822 108.927 16.1756C108.834 16.0689 108.76 15.9489 108.707 15.8156C108.654 15.6822 108.62 15.5422 108.607 15.3956C108.594 15.2356 108.58 15.0822 108.567 14.9356C108.567 14.8822 108.56 14.7822 108.547 14.6356C108.547 14.4756 108.54 14.3156 108.527 14.1556C108.527 13.9822 108.52 13.8222 108.507 13.6756C108.507 13.5289 108.5 13.4289 108.487 13.3756C108.447 13.3622 108.334 13.3489 108.147 13.3356C107.974 13.3222 107.64 13.3156 107.147 13.3156C106.72 13.3156 106.454 13.3222 106.347 13.3356C106.254 13.3356 106.2 13.3422 106.187 13.3556H98.9669L98.9469 13.3356C98.9469 13.3356 98.9002 13.3222 98.8069 13.2956C98.7269 13.2689 98.6335 13.2289 98.5269 13.1756C98.4202 13.1222 98.3135 13.0489 98.2069 12.9556C98.1135 12.8622 98.0602 12.7422 98.0469 12.5956C97.9802 12.0889 98.0669 11.6889 98.3069 11.3956C98.4669 11.2089 98.6402 11.1022 98.8269 11.0756C99.0135 11.0356 99.1135 11.0156 99.1269 11.0156L109.327 10.9956ZM97.8469 8.91556C97.6602 8.83556 97.5269 8.68222 97.4469 8.45556C97.3402 8.18889 97.3202 7.92222 97.3869 7.65556C97.4669 7.38889 97.5869 7.13556 97.7469 6.89556C97.9069 6.65556 98.0869 6.42889 98.2869 6.21556C98.5002 6.00222 98.6802 5.80222 98.8269 5.61556C99.0535 5.33556 99.2802 5.05556 99.5069 4.77556C99.7335 4.49556 99.9602 4.20889 100.187 3.91556C100.267 3.80889 100.36 3.69556 100.467 3.57556C100.574 3.45556 100.674 3.32889 100.767 3.19556C100.874 3.06222 100.96 2.92889 101.027 2.79556C101.094 2.66222 101.134 2.52222 101.147 2.37556C101.16 2.14889 101.174 1.92889 101.187 1.71556C101.2 1.48889 101.24 1.28889 101.307 1.11556C101.374 0.928889 101.48 0.782222 101.627 0.675556C101.787 0.568889 102.014 0.515555 102.307 0.515555C102.52 0.515555 102.727 0.542222 102.927 0.595556C103.127 0.635556 103.274 0.762223 103.367 0.975555C103.46 1.21556 103.487 1.48222 103.447 1.77556C103.42 2.05556 103.447 2.32222 103.527 2.57556C103.594 2.80222 103.707 3.00222 103.867 3.17556C104.027 3.33556 104.16 3.50889 104.267 3.69555C104.494 4.10889 104.76 4.47556 105.067 4.79556C105.374 5.11556 105.66 5.46222 105.927 5.83556C106.14 6.11556 106.34 6.40889 106.527 6.71556C106.727 7.00889 106.86 7.32889 106.927 7.67556C106.994 7.96889 106.96 8.22222 106.827 8.43556C106.707 8.63556 106.54 8.78222 106.327 8.87556C106.114 8.96889 105.88 9.00222 105.627 8.97556C105.374 8.93556 105.154 8.82222 104.967 8.63556C104.474 8.12889 104.02 7.60889 103.607 7.07556C103.207 6.52889 102.794 5.97556 102.367 5.41556C102.367 5.41556 102.307 5.48222 102.187 5.61556C102.067 5.73556 101.914 5.89556 101.727 6.09556C101.54 6.28222 101.34 6.49556 101.127 6.73556C100.914 6.96222 100.714 7.18222 100.527 7.39556C100.34 7.60889 100.174 7.79556 100.027 7.95556C99.8802 8.10222 99.7935 8.19556 99.7669 8.23556C99.6202 8.40889 99.4669 8.56222 99.3069 8.69556C99.1469 8.82889 98.9535 8.92222 98.7269 8.97556C98.5802 9.00222 98.4269 9.01556 98.2669 9.01556C98.1202 9.01556 97.9802 8.98222 97.8469 8.91556ZM108.007 5.57556C107.62 5.54889 107.274 5.52889 106.967 5.51556C106.66 5.48889 106.42 5.34222 106.247 5.07556C106.167 4.94222 106.127 4.76889 106.127 4.55556C106.127 4.34222 106.14 4.16222 106.167 4.01556C106.207 3.86889 106.28 3.74889 106.387 3.65556C106.494 3.54889 106.68 3.46222 106.947 3.39556C107 3.38222 107.127 3.37556 107.327 3.37556C107.54 3.36222 107.767 3.35556 108.007 3.35556C108.247 3.34222 108.474 3.33556 108.687 3.33556C108.9 3.32222 109.034 3.31556 109.087 3.31556V2.01556C109.074 1.86889 109.067 1.72222 109.067 1.57556C109.08 1.42889 109.107 1.28222 109.147 1.13556C109.174 1.02889 109.2 0.928889 109.227 0.835555C109.254 0.742222 109.314 0.642222 109.407 0.535555C109.514 0.402222 109.66 0.308889 109.847 0.255555C110.047 0.202222 110.26 0.188889 110.487 0.215556C110.687 0.242222 110.867 0.302222 111.027 0.395556C111.187 0.475556 111.3 0.582222 111.367 0.715555C111.447 0.875556 111.494 1.07556 111.507 1.31556C111.534 1.54222 111.547 1.68222 111.547 1.73556V8.21556H111.527C111.527 8.22889 111.52 8.27556 111.507 8.35556C111.494 8.43556 111.467 8.53556 111.427 8.65556C111.387 8.76222 111.327 8.87556 111.247 8.99556C111.167 9.11556 111.06 9.21556 110.927 9.29556C110.74 9.40222 110.534 9.45556 110.307 9.45556C110.08 9.45556 109.86 9.38222 109.647 9.23556C109.487 9.12889 109.374 8.99556 109.307 8.83556C109.227 8.68889 109.174 8.54222 109.147 8.39556C109.12 8.24889 109.1 8.10222 109.087 7.95556V5.57556H108.007Z" fill="#EA7171"/>
</svg>
