<svg width="25" height="14" viewBox="0 0 25 14" fill="none" xmlns="http://www.w3.org/2000/svg">
<path d="M1.125 6.525C1.355 6.525 1.62 6.53 1.92 6.54C2.22 6.55 2.54 6.56 2.88 6.57C2.89 6.48 2.895 6.39 2.895 6.3C2.895 6.21 2.895 6.115 2.895 6.015C2.795 5.985 2.685 5.945 2.565 5.895C2.315 5.795 2.08 5.68 1.86 5.55C1.64 5.42 1.45 5.27 1.29 5.1C1.13 4.93 1 4.73 0.9 4.5C0.81 4.27 0.765 4.005 0.765 3.705C0.765 3.355 0.815 3.05 0.915 2.79H0.885C0.645 2.79 0.435 2.715 0.255 2.565C0.085 2.405 0 2.21 0 1.98C0 1.76 0.085 1.575 0.255 1.425C0.435 1.265 0.645 1.185 0.885 1.185H2.865V0.69C2.865 0.5 2.95 0.339999 3.12 0.21C3.29 0.07 3.495 0 3.735 0C3.975 0 4.18 0.07 4.35 0.21C4.53 0.339999 4.62 0.5 4.62 0.69V1.185H6.69C6.94 1.185 7.15 1.265 7.32 1.425C7.5 1.575 7.59 1.76 7.59 1.98C7.59 2.21 7.5 2.405 7.32 2.565C7.15 2.715 6.94 2.79 6.69 2.79H6.675C6.725 2.93 6.76 3.075 6.78 3.225C6.81 3.375 6.825 3.535 6.825 3.705C6.825 4.125 6.73 4.48 6.54 4.77C6.36 5.05 6.095 5.315 5.745 5.565C5.475 5.765 5.19 5.915 4.89 6.015V6.03C4.88 6.14 4.875 6.24 4.875 6.33C4.875 6.42 4.87 6.51 4.86 6.6C4.98 6.6 5.08 6.6 5.16 6.6C5.24 6.59 5.325 6.585 5.415 6.585C5.505 6.575 5.615 6.57 5.745 6.57C5.875 6.57 6.055 6.575 6.285 6.585C6.475 6.585 6.66 6.585 6.84 6.585C7.02 6.585 7.195 6.625 7.365 6.705C7.645 6.835 7.785 7.055 7.785 7.365C7.785 7.615 7.695 7.84 7.515 8.04C7.375 8.19 7.2 8.275 6.99 8.295C6.79 8.315 6.6 8.315 6.42 8.295H1.125C1.115 8.295 1.075 8.295 1.005 8.295C0.935 8.295 0.85 8.285 0.75 8.265C0.66 8.245 0.565 8.215 0.465 8.175C0.365 8.125 0.285 8.055 0.225 7.965C0.105 7.845 0.045 7.67 0.045 7.44C0.045 7.33 0.06 7.24 0.09 7.17C0.13 7.09 0.175 7.015 0.225 6.945C0.335 6.815 0.48 6.72 0.66 6.66C0.84 6.59 0.995 6.545 1.125 6.525ZM1.635 10.95V10.935C1.625 10.935 1.585 10.925 1.515 10.905C1.455 10.885 1.385 10.855 1.305 10.815C1.225 10.775 1.145 10.72 1.065 10.65C0.995 10.58 0.955 10.49 0.945 10.38C0.895 9.99 0.955 9.69 1.125 9.48C1.245 9.34 1.375 9.26 1.515 9.24C1.655 9.21 1.73 9.195 1.74 9.195L9.39 9.18C9.81 9.18 10.11 9.265 10.29 9.435C10.48 9.595 10.585 9.855 10.605 10.215V11.775C10.625 11.995 10.625 12.215 10.605 12.435C10.585 12.645 10.5 12.815 10.35 12.945C10.21 13.075 10.025 13.14 9.795 13.14C9.745 13.14 9.655 13.135 9.525 13.125C9.405 13.125 9.32 13.115 9.27 13.095C9.13 13.055 9.02 12.995 8.94 12.915C8.87 12.835 8.815 12.745 8.775 12.645C8.735 12.545 8.71 12.44 8.7 12.33C8.69 12.21 8.68 12.095 8.67 11.985C8.67 11.945 8.665 11.875 8.655 11.775C8.655 11.675 8.65 11.575 8.64 11.475C8.64 11.365 8.635 11.265 8.625 11.175C8.625 11.075 8.62 11.005 8.61 10.965C8.59 10.965 8.525 10.965 8.415 10.965C8.305 10.965 8.165 10.965 7.995 10.965C7.835 10.965 7.655 10.965 7.455 10.965C7.255 10.955 7.065 10.95 6.885 10.95H1.635ZM8.76 2.7C8.76 2.59 8.76 2.465 8.76 2.325C8.76 2.185 8.765 2.05 8.775 1.92C8.795 1.78 8.825 1.65 8.865 1.53C8.905 1.41 8.955 1.32 9.015 1.26C9.125 1.16 9.235 1.1 9.345 1.08C9.465 1.05 9.595 1.035 9.735 1.035C9.905 1.035 10.055 1.085 10.185 1.185C10.325 1.275 10.425 1.395 10.485 1.545C10.565 1.755 10.61 1.97 10.62 2.19C10.63 2.41 10.64 2.63 10.65 2.85C10.65 3.19 10.65 3.51 10.65 3.81C10.66 4.11 10.665 4.405 10.665 4.695C10.865 4.695 11.05 4.7 11.22 4.71C11.4 4.71 11.545 4.715 11.655 4.725C11.785 4.735 11.9 4.785 12 4.875C12.11 4.965 12.195 5.075 12.255 5.205C12.315 5.325 12.345 5.455 12.345 5.595C12.345 5.735 12.305 5.855 12.225 5.955C12.085 6.145 11.87 6.27 11.58 6.33C11.3 6.38 11 6.405 10.68 6.405V6.885C10.68 7.095 10.665 7.26 10.635 7.38C10.605 7.49 10.57 7.6 10.53 7.71C10.52 7.74 10.51 7.77 10.5 7.8C10.49 7.83 10.475 7.865 10.455 7.905C10.385 8.045 10.295 8.15 10.185 8.22C10.075 8.29 9.955 8.335 9.825 8.355C9.705 8.365 9.58 8.36 9.45 8.34C9.31 8.3 9.19 8.24 9.09 8.16C9 8.08 8.93 7.98 8.88 7.86C8.84 7.73 8.81 7.61 8.79 7.5C8.77 7.38 8.76 7.28 8.76 7.2C8.76 7.11 8.76 7.06 8.76 7.05V2.7ZM4.065 4.515C4.205 4.485 4.335 4.46 4.455 4.44C4.575 4.42 4.675 4.385 4.755 4.335C4.845 4.275 4.91 4.2 4.95 4.11C5 4.01 5.025 3.875 5.025 3.705C5.025 3.385 4.935 3.16 4.755 3.03C4.575 2.9 4.36 2.82 4.11 2.79H3.33C3.11 2.82 2.925 2.9 2.775 3.03C2.625 3.16 2.55 3.385 2.55 3.705C2.55 3.945 2.59 4.13 2.67 4.26C2.76 4.39 2.875 4.48 3.015 4.53C3.165 4.58 3.33 4.6 3.51 4.59C3.69 4.57 3.875 4.545 4.065 4.515Z" fill="white"/>
<path d="M18.4999 1.35C19.1099 1.7 19.5449 2.15 19.8049 2.7C19.9349 2.97 20.0199 3.27 20.0599 3.6C20.0999 3.93 20.1099 4.3 20.0899 4.71C20.0599 5.16 19.9599 5.565 19.7899 5.925C19.6199 6.285 19.3949 6.595 19.1149 6.855C18.8449 7.105 18.5249 7.3 18.1549 7.44C17.7849 7.57 17.3899 7.635 16.9699 7.635H16.2049C16.1049 7.635 16.0049 7.635 15.9049 7.635C15.8049 7.625 15.6999 7.61 15.5899 7.59C15.4799 7.59 15.3749 7.575 15.2749 7.545C15.1749 7.515 15.0699 7.49 14.9599 7.47C14.8499 7.42 14.7399 7.365 14.6299 7.305C14.5299 7.245 14.4099 7.175 14.2699 7.095C13.8099 6.795 13.4899 6.39 13.3099 5.88C13.2299 5.65 13.1699 5.405 13.1299 5.145C13.0899 4.885 13.0699 4.63 13.0699 4.38C13.0699 4.11 13.0899 3.85 13.1299 3.6C13.1799 3.35 13.2599 3.11 13.3699 2.88C13.4499 2.64 13.5699 2.43 13.7299 2.25C13.8899 2.06 14.0699 1.88 14.2699 1.71C14.4499 1.56 14.6349 1.435 14.8249 1.335C15.0149 1.225 15.2249 1.14 15.4549 1.08C15.6549 0.999999 15.8699 0.949999 16.0999 0.93C16.3299 0.91 16.5499 0.91 16.7599 0.93C16.8699 0.96 16.9599 0.98 17.0299 0.99C17.1099 0.99 17.1849 0.99 17.2549 0.99C17.3349 1.01 17.4049 1.025 17.4649 1.035C17.5349 1.035 17.5999 1.05 17.6599 1.08C17.7299 1.1 17.7949 1.12 17.8549 1.14C17.9249 1.15 17.9899 1.17 18.0499 1.2C18.1099 1.22 18.1799 1.245 18.2599 1.275C18.3399 1.305 18.4199 1.33 18.4999 1.35ZM23.5099 11.19C23.6499 11.19 23.7649 11.25 23.8549 11.37C23.9449 11.49 24.0049 11.635 24.0349 11.805C24.0549 12.005 24.0449 12.17 24.0049 12.3C23.9649 12.42 23.9049 12.535 23.8249 12.645C23.6749 12.775 23.5449 12.855 23.4349 12.885C23.3849 12.885 23.3399 12.895 23.2999 12.915C23.2599 12.935 23.2049 12.945 23.1349 12.945H15.7999C15.5899 12.945 15.4049 12.94 15.2449 12.93C15.0949 12.92 14.9599 12.885 14.8399 12.825C14.7299 12.765 14.6399 12.675 14.5699 12.555C14.5099 12.445 14.4799 12.335 14.4799 12.225V9.135C14.5399 8.915 14.6399 8.75 14.7799 8.64C14.8899 8.57 14.9899 8.52 15.0799 8.49C15.1799 8.45 15.2899 8.43 15.4099 8.43C15.4299 8.43 15.4899 8.44 15.5899 8.46C15.6999 8.47 15.7699 8.475 15.7999 8.475C15.8599 8.495 15.9149 8.52 15.9649 8.55C16.0249 8.57 16.0799 8.615 16.1299 8.685C16.1499 8.725 16.1749 8.77 16.2049 8.82C16.2349 8.86 16.2599 8.91 16.2799 8.97C16.3099 9.04 16.3249 9.105 16.3249 9.165C16.3349 9.225 16.3499 9.285 16.3699 9.345V11.145H16.6699C16.7299 11.155 16.7999 11.16 16.8799 11.16C16.9499 11.17 17.0249 11.175 17.1049 11.175C17.1849 11.175 17.2749 11.175 17.3749 11.175C17.4349 11.175 17.5849 11.175 17.8249 11.175C18.0749 11.175 18.3699 11.175 18.7099 11.175C19.0599 11.165 19.4399 11.16 19.8499 11.16C20.2599 11.16 20.6499 11.16 21.0199 11.16C21.3999 11.16 21.7399 11.165 22.0399 11.175C22.3499 11.175 22.5799 11.175 22.7299 11.175H23.1049C23.1249 11.175 23.1699 11.18 23.2399 11.19C23.3099 11.19 23.3999 11.19 23.5099 11.19ZM18.2899 4.245C18.2699 4.135 18.2499 4.04 18.2299 3.96C18.2099 3.87 18.1899 3.78 18.1699 3.69C18.1199 3.61 18.0749 3.53 18.0349 3.45C17.9949 3.37 17.9399 3.3 17.8699 3.24C17.8099 3.18 17.7399 3.13 17.6599 3.09C17.5799 3.04 17.4849 2.99 17.3749 2.94C17.2449 2.91 17.1199 2.885 16.9999 2.865C16.8799 2.835 16.7549 2.82 16.6249 2.82C16.4849 2.82 16.3499 2.835 16.2199 2.865C16.0899 2.885 15.9699 2.91 15.8599 2.94C15.7399 3.01 15.6249 3.08 15.5149 3.15C15.4149 3.22 15.3249 3.31 15.2449 3.42C15.1449 3.5 15.0699 3.605 15.0199 3.735C14.9699 3.855 14.9199 4 14.8699 4.17C14.8699 4.28 14.8699 4.385 14.8699 4.485C14.8699 4.585 14.8799 4.69 14.8999 4.8C14.8999 4.9 14.9199 5 14.9599 5.1C14.9999 5.2 15.0499 5.29 15.1099 5.37C15.1799 5.46 15.2549 5.54 15.3349 5.61C15.4149 5.67 15.4999 5.73 15.5899 5.79C15.6999 5.85 15.8149 5.905 15.9349 5.955C16.0549 5.995 16.1999 6.025 16.3699 6.045C16.4799 6.045 16.5849 6.045 16.6849 6.045C16.7849 6.035 16.8899 6.02 16.9999 6C17.1999 6 17.3949 5.945 17.5849 5.835C17.6649 5.795 17.7449 5.745 17.8249 5.685C17.9149 5.615 17.9899 5.54 18.0499 5.46C18.1799 5.28 18.2599 5.085 18.2899 4.875V4.245ZM23.9449 7.305C23.9449 7.405 23.9349 7.505 23.9149 7.605C23.8949 7.705 23.8749 7.81 23.8549 7.92C23.7649 8.24 23.5549 8.435 23.2249 8.505C22.9049 8.575 22.6449 8.505 22.4449 8.295C22.2549 8.085 22.1399 7.835 22.0999 7.545C22.0799 7.465 22.0649 7.385 22.0549 7.305C22.0549 7.215 22.0549 7.13 22.0549 7.05V6.54L22.0999 2.67C22.0999 2.53 22.0949 2.38 22.0849 2.22C22.0849 2.05 22.0949 1.89 22.1149 1.74C22.1449 1.58 22.1999 1.435 22.2799 1.305C22.3599 1.175 22.4849 1.07 22.6549 0.99C22.7349 0.94 22.8199 0.915 22.9099 0.915C23.0099 0.905 23.1149 0.91 23.2249 0.93C23.4549 0.96 23.6249 1.055 23.7349 1.215C23.8549 1.375 23.9249 1.56 23.9449 1.77V7.305Z" fill="white"/>
</svg>
