<svg width="103" height="15" viewBox="0 0 103 15" fill="none" xmlns="http://www.w3.org/2000/svg">
<path d="M5.9 0.4C7.15333 0.4 8.08 0.673333 8.68 1.22C9.29333 1.76667 9.6 2.48 9.6 3.36C9.6 4.10667 9.39333 4.68 8.98 5.08C8.56667 5.46667 7.97333 5.66 7.2 5.66C6.96 5.66 6.80667 5.64 6.74 5.6C6.67333 5.54667 6.64 5.44667 6.64 5.3C6.64 5.16667 6.62667 4.99333 6.6 4.78C6.58667 4.56667 6.54 4.36 6.46 4.16C6.38 3.96 6.25333 3.79333 6.08 3.66C5.90667 3.51333 5.66667 3.44 5.36 3.44C4.93333 3.44 4.55333 3.57333 4.22 3.84C3.88667 4.09333 3.72 4.42667 3.72 4.84C3.72 5.2 3.85333 5.49333 4.12 5.72C4.4 5.94667 4.74667 6.16 5.16 6.36C5.57333 6.54667 6.02 6.74 6.5 6.94C6.99333 7.14 7.44667 7.40667 7.86 7.74C8.27333 8.06 8.61333 8.46667 8.88 8.96C9.16 9.44 9.3 10.0533 9.3 10.8C9.3 11.3867 9.2 11.94 9 12.46C8.81333 12.9667 8.52667 13.4133 8.14 13.8C7.76667 14.1733 7.28667 14.4667 6.7 14.68C6.12667 14.8933 5.45333 15 4.68 15C4.01333 15 3.39333 14.9267 2.82 14.78C2.26 14.6333 1.76667 14.4533 1.34 14.24C0.926667 14.0133 0.6 13.7733 0.36 13.52C0.12 13.2533 0 13.0133 0 12.8C0 11.92 0.0466667 11.2867 0.14 10.9C0.246667 10.5133 0.433333 10.32 0.7 10.32C0.886667 10.32 1.08 10.4 1.28 10.56C1.49333 10.72 1.73333 10.9 2 11.1C2.26667 11.3 2.57333 11.48 2.92 11.64C3.28 11.8 3.69333 11.88 4.16 11.88C4.34667 11.88 4.52667 11.8667 4.7 11.84C4.88667 11.8 5.04667 11.74 5.18 11.66C5.32667 11.58 5.44 11.4733 5.52 11.34C5.61333 11.2067 5.66 11.0467 5.66 10.86C5.66 10.5267 5.53333 10.26 5.28 10.06C5.02667 9.86 4.70667 9.68 4.32 9.52C3.93333 9.34667 3.51333 9.17333 3.06 9C2.62 8.81333 2.20667 8.56667 1.82 8.26C1.43333 7.94 1.11333 7.53333 0.86 7.04C0.606667 6.54667 0.48 5.91333 0.48 5.14C0.48 4.27333 0.64 3.54 0.96 2.94C1.29333 2.34 1.71333 1.85333 2.22 1.48C2.74 1.09333 3.32 0.819999 3.96 0.66C4.61333 0.486666 5.26 0.4 5.9 0.4Z" fill="#433232"/>
<path d="M15.6403 15C15.0536 15 14.467 14.9267 13.8803 14.78C13.307 14.6333 12.787 14.38 12.3203 14.02C11.867 13.66 11.4936 13.18 11.2003 12.58C10.907 11.98 10.7603 11.2267 10.7603 10.32C10.7603 9.98667 10.787 9.58667 10.8403 9.12C10.8936 8.65333 10.9936 8.17333 11.1403 7.68C11.3003 7.18667 11.5136 6.7 11.7803 6.22C12.0603 5.72667 12.4203 5.28667 12.8603 4.9C13.3003 4.51333 13.8336 4.2 14.4603 3.96C15.087 3.72 15.8336 3.6 16.7003 3.6C17.3936 3.6 17.9803 3.68 18.4603 3.84C18.9403 4 19.327 4.22 19.6203 4.5C19.9136 4.76667 20.127 5.08 20.2603 5.44C20.3936 5.8 20.4603 6.18667 20.4603 6.6C20.4603 7.21333 20.3336 7.73333 20.0803 8.16C19.8403 8.58667 19.5203 8.94667 19.1203 9.24C18.7336 9.52 18.3003 9.74 17.8203 9.9C17.3403 10.06 16.867 10.1867 16.4003 10.28C15.9336 10.36 15.5003 10.4133 15.1003 10.44C14.7136 10.4533 14.4136 10.46 14.2003 10.46C14.2003 10.7133 14.2336 10.9667 14.3003 11.22C14.3803 11.46 14.4936 11.6733 14.6403 11.86C14.787 12.0467 14.9803 12.2 15.2203 12.32C15.4603 12.44 15.7536 12.5 16.1003 12.5C16.447 12.5 16.7136 12.4467 16.9003 12.34C17.1003 12.22 17.2603 12.0933 17.3803 11.96C17.5003 11.8133 17.6003 11.6867 17.6803 11.58C17.7736 11.46 17.8936 11.4 18.0403 11.4C18.107 11.4 18.2203 11.42 18.3803 11.46C18.5536 11.4867 18.727 11.5533 18.9003 11.66C19.0736 11.7667 19.227 11.9133 19.3603 12.1C19.4936 12.2867 19.5603 12.5267 19.5603 12.82C19.5603 13.2067 19.4403 13.54 19.2003 13.82C18.9603 14.1 18.647 14.3267 18.2603 14.5C17.887 14.6733 17.467 14.8 17.0003 14.88C16.5336 14.96 16.0803 15 15.6403 15ZM16.0203 6.26C15.727 6.26 15.4736 6.34667 15.2603 6.52C15.0603 6.68 14.887 6.88667 14.7403 7.14C14.607 7.39333 14.5003 7.67333 14.4203 7.98C14.3536 8.28667 14.3003 8.58 14.2603 8.86C15.087 8.84667 15.7536 8.70667 16.2603 8.44C16.7803 8.17333 17.0403 7.79333 17.0403 7.3C17.0403 7.03333 16.9536 6.79333 16.7803 6.58C16.6203 6.36667 16.367 6.26 16.0203 6.26Z" fill="#433232"/>
<path d="M23.9848 14.98C23.1582 14.98 22.5648 14.76 22.2048 14.32C21.8448 13.88 21.6648 13.1533 21.6648 12.14C21.6648 11.98 21.6715 11.78 21.6848 11.54C21.7115 11.3 21.7382 10.9933 21.7648 10.62C21.8048 10.2333 21.8515 9.76 21.9048 9.2C21.9582 8.64 22.0115 7.96 22.0648 7.16C22.1315 6.36 22.1982 5.42 22.2648 4.34C22.3448 3.26 22.4248 2.00667 22.5048 0.58C22.5182 0.286666 22.5515 0.113333 22.6048 0.0599992C22.6448 0.0199997 22.7515 0 22.9248 0H23.7048C24.1048 0 24.4382 0.0466665 24.7048 0.139999C24.9715 0.233333 25.1848 0.36 25.3448 0.519999C25.5048 0.68 25.6182 0.866666 25.6848 1.08C25.7515 1.28 25.7848 1.49333 25.7848 1.72C25.7848 1.98667 25.7648 2.37333 25.7248 2.88C25.6982 3.37333 25.6582 3.93333 25.6048 4.56C25.5515 5.18667 25.4982 5.84 25.4448 6.52C25.3915 7.2 25.3382 7.85333 25.2848 8.48C25.2315 9.09333 25.1848 9.64667 25.1448 10.14C25.1182 10.6333 25.1048 11.0067 25.1048 11.26C25.1048 11.6067 25.1648 11.8533 25.2848 12C25.4182 12.1467 25.5582 12.2533 25.7048 12.32C25.8515 12.3733 25.9848 12.4133 26.1048 12.44C26.2382 12.4533 26.3048 12.4933 26.3048 12.56C26.3048 12.8533 26.2715 13.1467 26.2048 13.44C26.1382 13.72 26.0182 13.98 25.8448 14.22C25.6715 14.4467 25.4315 14.6333 25.1248 14.78C24.8315 14.9133 24.4515 14.98 23.9848 14.98Z" fill="#433232"/>
<path d="M32.32 15C31.7333 15 31.1467 14.9267 30.56 14.78C29.9867 14.6333 29.4667 14.38 29 14.02C28.5467 13.66 28.1733 13.18 27.88 12.58C27.5867 11.98 27.44 11.2267 27.44 10.32C27.44 9.98667 27.4667 9.58667 27.52 9.12C27.5733 8.65333 27.6733 8.17333 27.82 7.68C27.98 7.18667 28.1933 6.7 28.46 6.22C28.74 5.72667 29.1 5.28667 29.54 4.9C29.98 4.51333 30.5133 4.2 31.14 3.96C31.7667 3.72 32.5133 3.6 33.38 3.6C34.0733 3.6 34.66 3.68 35.14 3.84C35.62 4 36.0067 4.22 36.3 4.5C36.5933 4.76667 36.8067 5.08 36.94 5.44C37.0733 5.8 37.14 6.18667 37.14 6.6C37.14 7.21333 37.0133 7.73333 36.76 8.16C36.52 8.58667 36.2 8.94667 35.8 9.24C35.4133 9.52 34.98 9.74 34.5 9.9C34.02 10.06 33.5467 10.1867 33.08 10.28C32.6133 10.36 32.18 10.4133 31.78 10.44C31.3933 10.4533 31.0933 10.46 30.88 10.46C30.88 10.7133 30.9133 10.9667 30.98 11.22C31.06 11.46 31.1733 11.6733 31.32 11.86C31.4667 12.0467 31.66 12.2 31.9 12.32C32.14 12.44 32.4333 12.5 32.78 12.5C33.1267 12.5 33.3933 12.4467 33.58 12.34C33.78 12.22 33.94 12.0933 34.06 11.96C34.18 11.8133 34.28 11.6867 34.36 11.58C34.4533 11.46 34.5733 11.4 34.72 11.4C34.7867 11.4 34.9 11.42 35.06 11.46C35.2333 11.4867 35.4067 11.5533 35.58 11.66C35.7533 11.7667 35.9067 11.9133 36.04 12.1C36.1733 12.2867 36.24 12.5267 36.24 12.82C36.24 13.2067 36.12 13.54 35.88 13.82C35.64 14.1 35.3267 14.3267 34.94 14.5C34.5667 14.6733 34.1467 14.8 33.68 14.88C33.2133 14.96 32.76 15 32.32 15ZM32.7 6.26C32.4067 6.26 32.1533 6.34667 31.94 6.52C31.74 6.68 31.5667 6.88667 31.42 7.14C31.2867 7.39333 31.18 7.67333 31.1 7.98C31.0333 8.28667 30.98 8.58 30.94 8.86C31.7667 8.84667 32.4333 8.70667 32.94 8.44C33.46 8.17333 33.72 7.79333 33.72 7.3C33.72 7.03333 33.6333 6.79333 33.46 6.58C33.3 6.36667 33.0467 6.26 32.7 6.26Z" fill="#433232"/>
<path d="M43.3845 12.34C43.7712 12.34 44.1045 12.2867 44.3845 12.18C44.6779 12.0733 44.9312 11.9533 45.1445 11.82C45.3579 11.6867 45.5379 11.5667 45.6845 11.46C45.8312 11.3533 45.9645 11.3 46.0845 11.3C46.3912 11.3 46.5445 11.5 46.5445 11.9C46.5445 11.9933 46.5245 12.1267 46.4845 12.3C46.4445 12.46 46.3912 12.6333 46.3245 12.82C46.2579 12.9933 46.1845 13.16 46.1045 13.32C46.0379 13.48 45.9712 13.6 45.9045 13.68C45.8379 13.7467 45.7179 13.8533 45.5445 14C45.3845 14.1467 45.1645 14.2933 44.8845 14.44C44.6045 14.5867 44.2779 14.7133 43.9045 14.82C43.5312 14.94 43.1179 15 42.6645 15C42.1579 15 41.6312 14.9267 41.0845 14.78C40.5512 14.62 40.0645 14.3533 39.6245 13.98C39.1845 13.5933 38.8179 13.08 38.5245 12.44C38.2445 11.7867 38.1045 10.9733 38.1045 10C38.1045 9.65333 38.1245 9.26 38.1645 8.82C38.2179 8.36667 38.3179 7.90667 38.4645 7.44C38.6112 6.96 38.8045 6.49333 39.0445 6.04C39.2979 5.57333 39.6312 5.16 40.0445 4.8C40.4579 4.44 40.9512 4.15333 41.5245 3.94C42.1112 3.71333 42.8045 3.6 43.6045 3.6C44.2579 3.6 44.8179 3.68 45.2845 3.84C45.7645 3.98667 46.1579 4.19333 46.4645 4.46C46.7712 4.71333 46.9979 5.01333 47.1445 5.36C47.3045 5.70667 47.3845 6.08 47.3845 6.48C47.3845 7.2 47.1579 7.73333 46.7045 8.08C46.2512 8.41333 45.6112 8.58 44.7845 8.58C44.5845 8.58 44.4445 8.56667 44.3645 8.54C44.2979 8.5 44.2645 8.42 44.2645 8.3C44.2645 7.98 44.2579 7.69333 44.2445 7.44C44.2312 7.18667 44.1912 6.97333 44.1245 6.8C44.0712 6.62667 43.9845 6.49333 43.8645 6.4C43.7445 6.30667 43.5712 6.26 43.3445 6.26C42.9312 6.26 42.5979 6.39333 42.3445 6.66C42.1045 6.92667 41.9179 7.25333 41.7845 7.64C41.6645 8.01333 41.5845 8.4 41.5445 8.8C41.5179 9.2 41.5045 9.53333 41.5045 9.8C41.5045 10.7467 41.6512 11.4067 41.9445 11.78C42.2512 12.1533 42.7312 12.34 43.3845 12.34Z" fill="#433232"/>
<path d="M52.8008 6.5C52.7608 7.00667 52.7141 7.50667 52.6608 8C52.6208 8.49333 52.5808 8.96 52.5408 9.4C52.5008 9.84 52.4674 10.2333 52.4408 10.58C52.4274 10.9267 52.4208 11.1933 52.4208 11.38C52.4208 11.7267 52.4608 11.96 52.5408 12.08C52.6208 12.1867 52.7541 12.24 52.9408 12.24C53.0874 12.24 53.2141 12.2133 53.3208 12.16C53.4274 12.1067 53.5274 12.0467 53.6208 11.98C53.7141 11.9133 53.7941 11.8533 53.8608 11.8C53.9408 11.7467 54.0274 11.72 54.1208 11.72C54.2141 11.72 54.3008 11.7733 54.3808 11.88C54.4608 11.9867 54.5008 12.2333 54.5008 12.62C54.5008 13.3533 54.3008 13.9333 53.9008 14.36C53.5008 14.7867 52.8141 15 51.8408 15C50.8808 15 50.1674 14.78 49.7008 14.34C49.2474 13.8867 49.0208 13.2 49.0208 12.28C49.0208 12.08 49.0274 11.8467 49.0408 11.58C49.0674 11.3 49.1008 10.94 49.1408 10.5C49.1808 10.06 49.2274 9.52 49.2808 8.88C49.3474 8.24 49.4141 7.44667 49.4808 6.5H48.4208C48.3141 6.5 48.2474 6.48 48.2208 6.44C48.2074 6.38667 48.2008 6.31333 48.2008 6.22L48.2608 5.2C48.2741 5.02667 48.2941 4.86 48.3208 4.7C48.3608 4.52667 48.4274 4.37333 48.5208 4.24C48.6274 4.10667 48.7741 4 48.9608 3.92C49.1474 3.84 49.3941 3.8 49.7008 3.8C49.7941 3.56 49.9008 3.27333 50.0208 2.94C50.1408 2.60667 50.2608 2.28667 50.3808 1.98C50.5008 1.66 50.6141 1.39333 50.7208 1.18C50.8408 0.966666 50.9474 0.86 51.0408 0.86H51.6208C52.1808 0.86 52.5674 1.03333 52.7808 1.38C52.9941 1.72667 53.1008 2.14 53.1008 2.62C53.1008 2.88667 53.0808 3.28 53.0408 3.8H55.1408C55.3541 3.8 55.4608 3.89333 55.4608 4.08L55.3808 5.16C55.3541 5.56 55.2408 5.88667 55.0408 6.14C54.8541 6.38 54.4608 6.5 53.8608 6.5H52.8008Z" fill="#433232"/>
<path d="M61.8059 0.899999C61.8193 0.793333 61.8593 0.72 61.9259 0.68C62.0059 0.626666 62.0793 0.599999 62.1459 0.599999C63.0526 0.599999 63.8993 0.573333 64.6859 0.519999C65.4859 0.453333 66.1126 0.419999 66.5659 0.419999C67.6993 0.419999 68.6459 0.533333 69.4059 0.76C70.1793 0.986666 70.7993 1.34 71.2659 1.82C71.7459 2.3 72.0859 2.92 72.2859 3.68C72.4859 4.44 72.5859 5.35333 72.5859 6.42C72.5859 7.5 72.4726 8.56 72.2459 9.6C72.0326 10.6267 71.6526 11.54 71.1059 12.34C70.5593 13.14 69.8193 13.7867 68.8859 14.28C67.9659 14.76 66.7993 15 65.3859 15C64.7326 15 64.1326 14.9867 63.5859 14.96C63.0526 14.9333 62.5926 14.8533 62.2059 14.72C61.8193 14.5867 61.5193 14.3867 61.3059 14.12C61.0926 13.8533 60.9859 13.4867 60.9859 13.02C60.9859 12.8467 60.9926 12.5867 61.0059 12.24C61.0326 11.8933 61.0593 11.48 61.0859 11C61.1259 10.52 61.1659 9.99333 61.2059 9.42C61.2593 8.83333 61.3126 8.22 61.3659 7.58C61.4726 6.26 61.5526 5.20667 61.6059 4.42C61.6726 3.63333 61.7126 3.02 61.7259 2.58C61.7526 2.12667 61.7659 1.78667 61.7659 1.56C61.7793 1.33333 61.7926 1.11333 61.8059 0.899999ZM65.5259 11.84C66.2726 11.84 66.8659 11.68 67.3059 11.36C67.7593 11.04 68.1059 10.6333 68.3459 10.14C68.5859 9.64667 68.7459 9.10667 68.8259 8.52C68.9059 7.93333 68.9459 7.38 68.9459 6.86C68.9459 6.3 68.9059 5.81333 68.8259 5.4C68.7593 4.97333 68.6326 4.62 68.4459 4.34C68.2726 4.06 68.0259 3.85333 67.7059 3.72C67.3859 3.57333 66.9859 3.5 66.5059 3.5C66.3593 3.5 66.1726 3.50667 65.9459 3.52C65.7193 3.53333 65.4459 3.55333 65.1259 3.58C65.0993 4.07333 65.0659 4.66 65.0259 5.34C64.9859 6.00667 64.9393 6.71333 64.8859 7.46C64.8459 8.19333 64.7993 8.94 64.7459 9.7C64.6926 10.4467 64.6393 11.14 64.5859 11.78C64.7859 11.8067 64.9659 11.8267 65.1259 11.84C65.2859 11.84 65.4193 11.84 65.5259 11.84Z" fill="#433232"/>
<path d="M73.5062 12.34C73.5062 11.14 74.0463 10.2 75.1263 9.52C76.2063 8.84 77.7996 8.47333 79.9062 8.42C79.9196 8.27333 79.9262 8.15333 79.9262 8.06C79.9396 7.95333 79.9463 7.82667 79.9463 7.68C79.9463 7.25333 79.8663 6.91333 79.7063 6.66C79.5463 6.40667 79.2129 6.28 78.7063 6.28C78.4263 6.28 78.1996 6.32 78.0263 6.4C77.8529 6.48 77.7129 6.59333 77.6062 6.74C77.4996 6.87333 77.4129 7.04 77.3463 7.24C77.2796 7.44 77.2196 7.66 77.1663 7.9C77.1396 8.02 77.0796 8.1 76.9863 8.14C76.8929 8.16667 76.7462 8.18 76.5462 8.18C75.1862 8.18 74.5062 7.66667 74.5062 6.64C74.5062 6.22667 74.5996 5.83333 74.7862 5.46C74.9862 5.08667 75.2729 4.76667 75.6462 4.5C76.0329 4.22 76.5129 4 77.0863 3.84C77.6596 3.68 78.3263 3.6 79.0863 3.6C80.5663 3.6 81.6396 3.90667 82.3063 4.52C82.9729 5.13333 83.3063 6 83.3063 7.12C83.3063 7.26667 83.2863 7.53333 83.2463 7.92C83.2196 8.29333 83.1796 8.69333 83.1263 9.12C83.0863 9.53333 83.0462 9.92667 83.0062 10.3C82.9796 10.6733 82.9662 10.9333 82.9662 11.08C82.9662 11.4133 83.0262 11.6533 83.1462 11.8C83.2662 11.9333 83.3996 12.0267 83.5462 12.08C83.7062 12.1333 83.8462 12.1733 83.9662 12.2C84.0862 12.2267 84.1462 12.2933 84.1462 12.4C84.1462 12.6933 84.1063 12.9933 84.0263 13.3C83.9463 13.6067 83.8129 13.8867 83.6263 14.14C83.4529 14.3933 83.2063 14.6 82.8863 14.76C82.5796 14.92 82.1996 15 81.7462 15C81.1062 15 80.6263 14.8467 80.3063 14.54C79.9863 14.2333 79.7729 13.8067 79.6663 13.26C79.3463 13.7267 78.9263 14.1333 78.4062 14.48C77.8996 14.8267 77.2329 15 76.4062 15C76.0062 15 75.6263 14.9533 75.2663 14.86C74.9196 14.7667 74.6129 14.6133 74.3463 14.4C74.0929 14.1867 73.8862 13.9133 73.7262 13.58C73.5796 13.2333 73.5062 12.82 73.5062 12.34ZM79.7262 10.06C79.3796 10.06 79.0396 10.0867 78.7063 10.14C78.3729 10.1933 78.0729 10.28 77.8063 10.4C77.5529 10.5067 77.3462 10.6533 77.1862 10.84C77.0262 11.0267 76.9463 11.2533 76.9463 11.52C76.9463 11.8267 77.0396 12.04 77.2262 12.16C77.4262 12.28 77.6396 12.34 77.8662 12.34C78.0796 12.34 78.2929 12.2933 78.5062 12.2C78.7196 12.1067 78.9063 11.9667 79.0663 11.78C79.2396 11.58 79.3862 11.34 79.5062 11.06C79.6262 10.78 79.6996 10.4467 79.7262 10.06Z" fill="#433232"/>
<path d="M89.6758 6.5C89.6358 7.00667 89.5891 7.50667 89.5358 8C89.4958 8.49333 89.4558 8.96 89.4158 9.4C89.3758 9.84 89.3424 10.2333 89.3158 10.58C89.3024 10.9267 89.2958 11.1933 89.2958 11.38C89.2958 11.7267 89.3358 11.96 89.4158 12.08C89.4958 12.1867 89.6291 12.24 89.8158 12.24C89.9624 12.24 90.0891 12.2133 90.1958 12.16C90.3024 12.1067 90.4024 12.0467 90.4958 11.98C90.5891 11.9133 90.6691 11.8533 90.7358 11.8C90.8158 11.7467 90.9024 11.72 90.9958 11.72C91.0891 11.72 91.1758 11.7733 91.2558 11.88C91.3358 11.9867 91.3758 12.2333 91.3758 12.62C91.3758 13.3533 91.1758 13.9333 90.7758 14.36C90.3758 14.7867 89.6891 15 88.7158 15C87.7558 15 87.0424 14.78 86.5758 14.34C86.1224 13.8867 85.8958 13.2 85.8958 12.28C85.8958 12.08 85.9024 11.8467 85.9158 11.58C85.9424 11.3 85.9758 10.94 86.0158 10.5C86.0558 10.06 86.1025 9.52 86.1558 8.88C86.2225 8.24 86.2891 7.44667 86.3558 6.5H85.2958C85.1891 6.5 85.1224 6.48 85.0958 6.44C85.0824 6.38667 85.0758 6.31333 85.0758 6.22L85.1358 5.2C85.1491 5.02667 85.1691 4.86 85.1958 4.7C85.2358 4.52667 85.3024 4.37333 85.3958 4.24C85.5024 4.10667 85.6491 4 85.8358 3.92C86.0225 3.84 86.2691 3.8 86.5758 3.8C86.6691 3.56 86.7758 3.27333 86.8958 2.94C87.0158 2.60667 87.1358 2.28667 87.2558 1.98C87.3758 1.66 87.4891 1.39333 87.5958 1.18C87.7158 0.966666 87.8224 0.86 87.9158 0.86H88.4958C89.0558 0.86 89.4425 1.03333 89.6558 1.38C89.8691 1.72667 89.9758 2.14 89.9758 2.62C89.9758 2.88667 89.9558 3.28 89.9158 3.8H92.0158C92.2291 3.8 92.3358 3.89333 92.3358 4.08L92.2558 5.16C92.2291 5.56 92.1158 5.88667 91.9158 6.14C91.7291 6.38 91.3358 6.5 90.7358 6.5H89.6758Z" fill="#433232"/>
<path d="M97.8473 15C97.2607 15 96.674 14.9267 96.0873 14.78C95.514 14.6333 94.994 14.38 94.5273 14.02C94.074 13.66 93.7007 13.18 93.4073 12.58C93.114 11.98 92.9673 11.2267 92.9673 10.32C92.9673 9.98667 92.994 9.58667 93.0473 9.12C93.1007 8.65333 93.2007 8.17333 93.3473 7.68C93.5073 7.18667 93.7207 6.7 93.9873 6.22C94.2673 5.72667 94.6273 5.28667 95.0673 4.9C95.5073 4.51333 96.0407 4.2 96.6673 3.96C97.294 3.72 98.0407 3.6 98.9073 3.6C99.6007 3.6 100.187 3.68 100.667 3.84C101.147 4 101.534 4.22 101.827 4.5C102.121 4.76667 102.334 5.08 102.467 5.44C102.601 5.8 102.667 6.18667 102.667 6.6C102.667 7.21333 102.541 7.73333 102.287 8.16C102.047 8.58667 101.727 8.94667 101.327 9.24C100.941 9.52 100.507 9.74 100.027 9.9C99.5473 10.06 99.074 10.1867 98.6073 10.28C98.1407 10.36 97.7073 10.4133 97.3073 10.44C96.9207 10.4533 96.6207 10.46 96.4073 10.46C96.4073 10.7133 96.4407 10.9667 96.5073 11.22C96.5873 11.46 96.7007 11.6733 96.8473 11.86C96.994 12.0467 97.1873 12.2 97.4273 12.32C97.6673 12.44 97.9607 12.5 98.3073 12.5C98.654 12.5 98.9207 12.4467 99.1073 12.34C99.3073 12.22 99.4673 12.0933 99.5873 11.96C99.7073 11.8133 99.8073 11.6867 99.8873 11.58C99.9807 11.46 100.101 11.4 100.247 11.4C100.314 11.4 100.427 11.42 100.587 11.46C100.761 11.4867 100.934 11.5533 101.107 11.66C101.281 11.7667 101.434 11.9133 101.567 12.1C101.701 12.2867 101.767 12.5267 101.767 12.82C101.767 13.2067 101.647 13.54 101.407 13.82C101.167 14.1 100.854 14.3267 100.467 14.5C100.094 14.6733 99.674 14.8 99.2073 14.88C98.7407 14.96 98.2873 15 97.8473 15ZM98.2273 6.26C97.934 6.26 97.6807 6.34667 97.4673 6.52C97.2673 6.68 97.094 6.88667 96.9473 7.14C96.814 7.39333 96.7073 7.67333 96.6273 7.98C96.5607 8.28667 96.5073 8.58 96.4673 8.86C97.294 8.84667 97.9607 8.70667 98.4673 8.44C98.9873 8.17333 99.2473 7.79333 99.2473 7.3C99.2473 7.03333 99.1607 6.79333 98.9873 6.58C98.8273 6.36667 98.574 6.26 98.2273 6.26Z" fill="#433232"/>
</svg>
