<svg width="42" height="15" viewBox="0 0 42 15" fill="none" xmlns="http://www.w3.org/2000/svg">
<path d="M11.754 6.75C11.958 6.762 12.162 6.792 12.366 6.84C12.582 6.888 12.774 6.978 12.942 7.11C13.11 7.242 13.194 7.428 13.194 7.668C13.194 7.788 13.17 7.914 13.122 8.046C13.086 8.178 13.032 8.274 12.96 8.334C12.864 8.43 12.738 8.502 12.582 8.55C12.438 8.586 12.294 8.616 12.15 8.64C12.006 8.652 11.88 8.658 11.772 8.658C11.676 8.658 11.622 8.658 11.61 8.658L2.016 8.676C1.74 8.688 1.452 8.688 1.152 8.676C0.864 8.664 0.618 8.574 0.414 8.406C0.138 8.202 0 7.98 0 7.74C0 7.572 0.054 7.404 0.162 7.236C0.282 7.056 0.438 6.936 0.63 6.876C0.882 6.792 1.14 6.756 1.404 6.768C1.668 6.768 1.938 6.762 2.214 6.75C2.502 6.738 2.748 6.732 2.952 6.732C3.168 6.732 3.372 6.732 3.564 6.732C3.768 6.732 3.978 6.738 4.194 6.75C4.41 6.75 4.668 6.75 4.968 6.75V5.706C4.968 5.598 4.974 5.52 4.986 5.472H3.096C2.976 5.472 2.856 5.472 2.736 5.472C2.628 5.46 2.514 5.448 2.394 5.436C2.238 5.424 2.07 5.418 1.89 5.418C1.71 5.418 1.554 5.37 1.422 5.274C1.386 5.274 1.368 5.262 1.368 5.238C1.248 5.142 1.164 5.004 1.116 4.824C1.08 4.632 1.062 4.47 1.062 4.338C1.05 4.122 1.032 3.906 1.008 3.69C0.996 3.474 0.99 3.264 0.99 3.06C0.99 2.748 0.99 2.424 0.99 2.088C0.99 1.74 1.02 1.416 1.08 1.116C1.116 0.924 1.176 0.774 1.26 0.666C1.344 0.545999 1.476 0.449999 1.656 0.377999C1.824 0.317999 1.992 0.276 2.16 0.252C2.328 0.228 2.496 0.204 2.664 0.18C2.868 0.155999 3.078 0.149999 3.294 0.162C3.51 0.174 3.726 0.18 3.942 0.18H7.362C7.662 0.18 7.89 0.18 8.046 0.18C8.214 0.18 8.364 0.18 8.496 0.18C8.628 0.18 8.772 0.18 8.928 0.18C9.096 0.168 9.33 0.162 9.63 0.162C9.738 0.162 9.84 0.162 9.936 0.162C10.044 0.162 10.152 0.168 10.26 0.18C10.488 0.192 10.722 0.209999 10.962 0.233999C11.202 0.258 11.424 0.318 11.628 0.414C11.868 0.51 12.03 0.671999 12.114 0.899999C12.198 1.116 12.246 1.344 12.258 1.584C12.282 1.86 12.282 2.154 12.258 2.466C12.246 2.778 12.24 3.072 12.24 3.348C12.228 3.588 12.216 3.828 12.204 4.068C12.204 4.308 12.174 4.548 12.114 4.788C12.078 4.92 12.036 5.04 11.988 5.148C11.94 5.244 11.844 5.316 11.7 5.364C11.568 5.412 11.43 5.442 11.286 5.454C11.142 5.466 11.004 5.472 10.872 5.472H7.452C7.452 5.496 7.452 5.514 7.452 5.526C7.464 5.526 7.47 5.532 7.47 5.544C7.494 5.712 7.506 5.904 7.506 6.12C7.518 6.336 7.524 6.546 7.524 6.75C7.86 6.75 8.22 6.75 8.604 6.75C8.988 6.738 9.372 6.732 9.756 6.732C10.14 6.732 10.506 6.732 10.854 6.732C11.202 6.732 11.502 6.738 11.754 6.75ZM0.9 14.22C0.888 14.22 0.87 14.208 0.846 14.184C0.726 14.088 0.642 13.956 0.594 13.788C0.558 13.62 0.54 13.47 0.54 13.338C0.528 13.122 0.51 12.906 0.486 12.69C0.474 12.474 0.468 12.264 0.468 12.06C0.468 11.748 0.468 11.466 0.468 11.214C0.468 10.962 0.498 10.686 0.558 10.386C0.594 10.194 0.654 10.044 0.738 9.936C0.822 9.816 0.954 9.72 1.134 9.648C1.47 9.516 1.806 9.45 2.142 9.45H10.62C10.848 9.462 11.082 9.48 11.322 9.504C11.562 9.528 11.79 9.588 12.006 9.684C12.246 9.78 12.402 9.918 12.474 10.098C12.558 10.266 12.612 10.47 12.636 10.71C12.648 10.914 12.654 11.148 12.654 11.412C12.666 11.676 12.666 11.946 12.654 12.222C12.642 12.486 12.624 12.75 12.6 13.014C12.576 13.278 12.534 13.518 12.474 13.734C12.438 13.866 12.396 13.98 12.348 14.076C12.3 14.184 12.204 14.262 12.06 14.31C11.928 14.358 11.79 14.388 11.646 14.4C11.514 14.412 11.382 14.418 11.25 14.418L1.872 14.382C1.716 14.37 1.548 14.364 1.368 14.364C1.188 14.364 1.032 14.316 0.9 14.22ZM2.61 12.168C2.61 12.228 2.61 12.288 2.61 12.348C2.622 12.408 2.646 12.45 2.682 12.474C2.706 12.498 2.742 12.516 2.79 12.528C2.85 12.528 2.91 12.528 2.97 12.528C3.03 12.528 3.102 12.522 3.186 12.51H8.82C8.988 12.522 9.15 12.534 9.306 12.546C9.438 12.558 9.576 12.564 9.72 12.564C9.864 12.564 9.996 12.552 10.116 12.528C10.236 12.516 10.308 12.48 10.332 12.42C10.356 12.36 10.374 12.276 10.386 12.168C10.398 12.072 10.404 11.964 10.404 11.844C10.404 11.712 10.368 11.598 10.296 11.502C10.212 11.406 10.092 11.358 9.936 11.358C9.792 11.346 9.66 11.346 9.54 11.358H4.536C4.272 11.334 4.014 11.328 3.762 11.34C3.51 11.34 3.252 11.346 2.988 11.358C2.892 11.358 2.814 11.364 2.754 11.376C2.706 11.376 2.67 11.43 2.646 11.538C2.622 11.622 2.61 11.706 2.61 11.79C2.61 11.862 2.61 11.934 2.61 12.006C2.622 12.03 2.622 12.054 2.61 12.078C2.61 12.102 2.61 12.132 2.61 12.168ZM3.132 3.168C3.132 3.228 3.132 3.288 3.132 3.348C3.144 3.396 3.162 3.432 3.186 3.456C3.21 3.48 3.252 3.498 3.312 3.51C3.372 3.51 3.432 3.51 3.492 3.51C3.552 3.51 3.624 3.504 3.708 3.492H8.442C8.61 3.504 8.772 3.516 8.928 3.528C9.06 3.54 9.198 3.546 9.342 3.546C9.498 3.546 9.63 3.534 9.738 3.51C9.87 3.498 9.942 3.468 9.954 3.42C9.978 3.36 10.002 3.276 10.026 3.168C10.038 3.072 10.044 2.94 10.044 2.772C10.044 2.604 10.008 2.472 9.936 2.376C9.852 2.28 9.732 2.232 9.576 2.232C9.42 2.22 9.288 2.22 9.18 2.232H7.542C7.506 2.232 7.362 2.232 7.11 2.232C6.858 2.232 6.582 2.232 6.282 2.232C5.994 2.232 5.724 2.232 5.472 2.232C5.22 2.232 5.076 2.232 5.04 2.232C4.788 2.208 4.536 2.202 4.284 2.214C4.032 2.214 3.774 2.22 3.51 2.232C3.402 2.232 3.324 2.238 3.276 2.25C3.228 2.25 3.192 2.304 3.168 2.412C3.144 2.496 3.132 2.598 3.132 2.718C3.132 2.838 3.132 2.934 3.132 3.006V3.168Z" fill="black"/>
<path d="M22.4539 7.47C22.2379 7.482 21.9319 7.494 21.5359 7.506C21.1519 7.506 20.7439 7.506 20.3119 7.506C19.8919 7.506 19.4839 7.506 19.0879 7.506C18.7039 7.494 18.4039 7.482 18.1879 7.47C17.8759 7.446 17.5699 7.446 17.2699 7.47C16.9699 7.482 16.6699 7.476 16.3699 7.452C16.0579 7.428 15.7699 7.356 15.5059 7.236C15.2539 7.104 15.0979 6.87 15.0379 6.534C14.9779 6.198 14.9359 5.94 14.9119 5.76C14.8999 5.568 14.8879 5.394 14.8759 5.238C14.8759 5.082 14.8759 4.914 14.8759 4.734C14.8879 4.542 14.8939 4.272 14.8939 3.924V2.664C14.8939 2.508 14.8879 2.334 14.8759 2.142C14.8759 1.95 14.8879 1.758 14.9119 1.566C14.9479 1.374 15.0019 1.2 15.0739 1.044C15.1579 0.887999 15.2839 0.767999 15.4519 0.684C15.8119 0.504 16.2139 0.396 16.6579 0.36C17.1139 0.323999 17.5399 0.305999 17.9359 0.305999H23.7319C23.7439 0.305999 23.8099 0.312 23.9299 0.324C24.0499 0.324 24.1939 0.342 24.3619 0.377999C24.5419 0.402 24.7219 0.438 24.9019 0.485999C25.0819 0.521999 25.2319 0.575999 25.3519 0.647999C25.4959 0.732 25.6099 0.87 25.6939 1.062C25.7779 1.242 25.8379 1.428 25.8739 1.62C25.9219 1.812 25.9459 1.986 25.9459 2.142C25.9579 2.286 25.9639 2.364 25.9639 2.376V4.734C25.9639 5.01 25.9579 5.286 25.9459 5.562C25.9459 5.838 25.9219 6.114 25.8739 6.39C25.8499 6.558 25.8079 6.726 25.7479 6.894C25.6879 7.062 25.5739 7.188 25.4059 7.272C25.2019 7.368 24.9619 7.422 24.6859 7.434C24.4219 7.434 24.1819 7.428 23.9659 7.416C23.7139 7.416 23.4619 7.428 23.2099 7.452C22.9579 7.464 22.7059 7.47 22.4539 7.47ZM25.4239 8.928C25.6159 8.916 25.8139 8.922 26.0179 8.946C26.2339 8.958 26.4319 9 26.6119 9.072C26.7919 9.144 26.9359 9.252 27.0439 9.396C27.1639 9.54 27.2239 9.738 27.2239 9.99C27.2239 10.29 27.1219 10.518 26.9179 10.674C26.7139 10.818 26.4679 10.926 26.1799 10.998C25.9039 11.058 25.6099 11.094 25.2979 11.106C24.9979 11.106 24.7519 11.106 24.5599 11.106C24.4519 11.106 24.3379 11.112 24.2179 11.124C24.1099 11.124 23.9959 11.124 23.8759 11.124C23.5279 11.124 23.1799 11.124 22.8319 11.124C22.4839 11.124 22.1359 11.118 21.7879 11.106C21.7999 11.478 21.8119 11.868 21.8239 12.276C21.8359 12.672 21.8179 13.026 21.7699 13.338C21.7339 13.566 21.6739 13.782 21.5899 13.986C21.5059 14.202 21.3619 14.376 21.1579 14.508C20.9779 14.628 20.7379 14.688 20.4379 14.688C20.1499 14.688 19.9099 14.634 19.7179 14.526C19.5619 14.43 19.4419 14.292 19.3579 14.112C19.2859 13.932 19.2319 13.758 19.1959 13.59C19.1719 13.458 19.1659 13.314 19.1779 13.158C19.1899 13.002 19.1899 12.858 19.1779 12.726V11.106C18.7939 11.106 18.4519 11.106 18.1519 11.106C17.8639 11.106 17.5819 11.112 17.3059 11.124C17.0419 11.124 16.7659 11.124 16.4779 11.124C16.1899 11.124 15.8659 11.124 15.5059 11.124C15.2299 11.124 14.9659 11.088 14.7139 11.016C14.4619 10.944 14.2639 10.788 14.1199 10.548C13.9879 10.344 13.9219 10.128 13.9219 9.9C13.9339 9.672 14.0239 9.468 14.1919 9.288C14.2759 9.192 14.3899 9.12 14.5339 9.072C14.6779 9.024 14.8159 8.994 14.9479 8.982C15.0919 8.958 15.2119 8.946 15.3079 8.946C15.4159 8.946 15.4759 8.946 15.4879 8.946L25.4239 8.928ZM22.6159 5.202C22.7239 5.178 22.8319 5.172 22.9399 5.184C23.0479 5.196 23.1619 5.178 23.2819 5.13C23.3539 5.094 23.4079 5.046 23.4439 4.986C23.4799 4.914 23.4979 4.842 23.4979 4.77C23.5099 4.686 23.5099 4.602 23.4979 4.518C23.4979 4.434 23.4979 4.356 23.4979 4.284V3.888C23.4979 3.696 23.4979 3.534 23.4979 3.402C23.4979 3.258 23.4679 3.144 23.4079 3.06C23.3599 2.976 23.2579 2.916 23.1019 2.88C22.9459 2.844 22.7179 2.82 22.4179 2.808H18.8899C18.8899 2.808 18.8419 2.808 18.7459 2.808C18.6619 2.808 18.5539 2.814 18.4219 2.826C18.3019 2.826 18.1759 2.832 18.0439 2.844C17.9119 2.856 17.7979 2.868 17.7019 2.88C17.5459 2.904 17.4199 2.97 17.3239 3.078C17.2279 3.186 17.1799 3.318 17.1799 3.474L17.2159 4.77C17.2399 4.914 17.2999 5.022 17.3959 5.094C17.5039 5.154 17.6239 5.196 17.7559 5.22C17.8879 5.244 18.0199 5.256 18.1519 5.256C18.2959 5.244 18.4219 5.238 18.5299 5.238L22.6159 5.202Z" fill="black"/>
<path d="M32.2692 11.988C32.2692 11.808 32.2692 11.64 32.2692 11.484C32.2692 11.328 32.2692 11.142 32.2692 10.926C32.2692 10.71 32.2632 10.452 32.2512 10.152C32.2512 9.852 32.2512 9.462 32.2512 8.982C32.2512 8.502 32.2512 7.92 32.2512 7.236C32.2512 6.552 32.2512 5.724 32.2512 4.752C32.2512 4.548 32.2512 4.356 32.2512 4.176C32.2512 3.984 32.2392 3.786 32.2152 3.582C32.1792 3.366 32.1252 3.228 32.0532 3.168C31.9812 3.108 31.8372 3.078 31.6212 3.078C31.0932 3.066 30.6252 3.066 30.2172 3.078C29.8092 3.078 29.3712 3.078 28.9032 3.078C28.4832 3.078 28.1712 2.97 27.9672 2.754C27.7632 2.538 27.6612 2.256 27.6612 1.908C27.6612 1.56 27.7392 1.296 27.8952 1.116C28.0632 0.924 28.3032 0.798 28.6152 0.738C28.8552 0.677999 29.0832 0.641999 29.2992 0.629999C29.5152 0.618 29.7552 0.612 30.0192 0.612H32.5932C32.6532 0.612 32.7132 0.618 32.7732 0.629999C32.8452 0.629999 32.9112 0.629999 32.9712 0.629999C33.1272 0.641999 33.2892 0.659999 33.4572 0.684C33.6372 0.707999 33.7992 0.749999 33.9432 0.809999C34.0392 0.845999 34.1292 0.894 34.2132 0.954C34.3092 1.014 34.3872 1.086 34.4472 1.17C34.5672 1.338 34.6332 1.494 34.6452 1.638C34.6572 1.782 34.6752 1.956 34.6992 2.16C34.7232 2.484 34.7352 2.814 34.7352 3.15C34.7352 3.486 34.7352 3.822 34.7352 4.158V5.472H36.4992V1.836C36.4992 1.68 36.4992 1.524 36.4992 1.368C36.4992 1.2 36.5172 1.038 36.5532 0.881999C36.5772 0.821999 36.5952 0.767999 36.6072 0.719999C36.6312 0.671999 36.6552 0.617999 36.6792 0.557999C36.7512 0.437999 36.8232 0.347999 36.8952 0.288C36.9672 0.216 37.0692 0.156 37.2012 0.108C37.2612 0.084 37.3212 0.0720001 37.3812 0.0720001C37.4532 0.0599996 37.5192 0.0539993 37.5792 0.0539993C37.9752 0.0539993 38.2752 0.233999 38.4792 0.594C38.5272 0.666 38.5572 0.767999 38.5692 0.899999C38.5932 1.032 38.6112 1.17 38.6232 1.314C38.6352 1.446 38.6412 1.566 38.6412 1.674C38.6412 1.77 38.6412 1.83 38.6412 1.854V12.15C38.6412 12.45 38.6292 12.69 38.6052 12.87C38.5932 13.05 38.5392 13.278 38.4432 13.554C38.3832 13.734 38.2812 13.884 38.1372 14.004C37.9932 14.124 37.7892 14.184 37.5252 14.184C37.4532 14.184 37.3632 14.172 37.2552 14.148C37.1472 14.136 37.0632 14.106 37.0032 14.058C36.8832 13.986 36.7872 13.872 36.7152 13.716C36.6552 13.548 36.6072 13.374 36.5712 13.194C36.5352 13.014 36.5112 12.84 36.4992 12.672C36.4992 12.504 36.4992 12.372 36.4992 12.276V7.812L34.7352 7.794V9.918C34.7352 9.93 34.7352 10.02 34.7352 10.188C34.7472 10.356 34.7532 10.56 34.7532 10.8C34.7532 11.04 34.7532 11.292 34.7532 11.556C34.7532 11.808 34.7472 12.03 34.7352 12.222C34.6992 12.654 34.5612 13.002 34.3212 13.266C34.0932 13.53 33.7692 13.662 33.3492 13.662C33.1332 13.662 32.9532 13.608 32.8092 13.5C32.6652 13.392 32.5512 13.254 32.4672 13.086C32.3952 12.918 32.3412 12.738 32.3052 12.546C32.2812 12.342 32.2692 12.156 32.2692 11.988ZM41.6292 13.68C41.5572 13.836 41.4432 13.968 41.2872 14.076C41.0472 14.232 40.7832 14.274 40.4952 14.202C40.3152 14.166 40.1652 14.088 40.0452 13.968C39.9372 13.86 39.8532 13.734 39.7932 13.59C39.7332 13.446 39.6912 13.29 39.6672 13.122C39.6432 12.954 39.6312 12.792 39.6312 12.636V2.034C39.6312 1.902 39.6312 1.752 39.6312 1.584C39.6312 1.404 39.6432 1.236 39.6672 1.08C39.6912 0.912 39.7212 0.756 39.7572 0.612C39.8052 0.467999 39.8712 0.353999 39.9552 0.27C40.0872 0.15 40.2252 0.0779997 40.3692 0.0539993C40.5132 0.0179998 40.6692 0 40.8372 0C41.0412 0 41.2092 0.0599999 41.3412 0.18C41.4732 0.288 41.5752 0.438 41.6472 0.629999C41.7552 0.882 41.8152 1.14 41.8272 1.404C41.8392 1.668 41.8512 1.938 41.8632 2.214V2.304C41.8872 3.216 41.8932 4.122 41.8812 5.022C41.8692 5.922 41.8632 6.798 41.8632 7.65V11.97C41.8632 12.282 41.8512 12.582 41.8272 12.87C41.8152 13.158 41.7492 13.428 41.6292 13.68Z" fill="black"/>
</svg>
