<svg width="58" height="50" viewBox="0 0 58 50" fill="none" xmlns="http://www.w3.org/2000/svg">
<path d="M33.3851 39.5828C33.0248 39.5839 32.6689 39.5152 32.3434 39.3818C32.018 39.2484 31.7312 39.0537 31.5043 38.812L19.8579 26.312C19.5032 25.9392 19.3093 25.4717 19.3093 24.9891C19.3093 24.5065 19.5032 24.039 19.8579 23.6662L31.9142 11.1662C32.3235 10.7407 32.9116 10.4732 33.5492 10.4224C34.1868 10.3716 34.8217 10.5417 35.3141 10.8953C35.8065 11.249 36.1162 11.7571 36.1749 12.308C36.2337 12.8589 36.0368 13.4074 35.6275 13.8328L24.8492 24.9995L35.2658 36.1662C35.5607 36.472 35.748 36.8444 35.8056 37.2393C35.8632 37.6341 35.7886 38.035 35.5908 38.3945C35.3929 38.7539 35.08 39.0568 34.6891 39.2674C34.2982 39.478 33.8457 39.5875 33.3851 39.5828Z" fill="#231F20"/>
</svg>
