<svg width="58" height="50" viewBox="0 0 58 50" fill="none" xmlns="http://www.w3.org/2000/svg">
<path d="M24.2053 39.583C23.6419 39.584 23.0959 39.4145 22.6621 39.1039C22.4179 38.929 22.2161 38.7142 22.0682 38.4718C21.9202 38.2294 21.8291 37.9642 21.8 37.6913C21.7709 37.4185 21.8043 37.1433 21.8985 36.8816C21.9926 36.62 22.1456 36.3769 22.3486 36.1664L33.1511 24.9997L22.7344 13.8122C22.5341 13.5991 22.3846 13.3539 22.2943 13.0907C22.204 12.8275 22.1749 12.5515 22.2085 12.2785C22.2421 12.0055 22.3378 11.741 22.4902 11.5001C22.6425 11.2592 22.8484 11.0466 23.0961 10.8747C23.3456 10.6851 23.6378 10.542 23.9543 10.4545C24.2708 10.367 24.6048 10.337 24.9354 10.3664C25.2659 10.3957 25.5859 10.4838 25.8752 10.625C26.1645 10.7663 26.4169 10.9577 26.6166 11.1872L38.263 23.6872C38.6176 24.06 38.8115 24.5276 38.8115 25.0101C38.8115 25.4927 38.6176 25.9603 38.263 26.333L26.2067 38.833C25.9648 39.0852 25.6575 39.2845 25.3098 39.4148C24.962 39.5451 24.5836 39.6027 24.2053 39.583Z" fill="#231F20"/>
</svg>
