<svg width="51" height="52" viewBox="0 0 51 52" fill="none" xmlns="http://www.w3.org/2000/svg">
<path d="M25.508 34.4987C25.0251 34.4997 24.5571 34.3269 24.1853 34.0104L11.7845 23.3952C11.3624 23.0349 11.097 22.517 11.0466 21.9556C10.9962 21.3942 11.165 20.8353 11.5158 20.4017C11.8666 19.9682 12.3707 19.6955 12.9172 19.6437C13.4638 19.592 14.0079 19.7654 14.43 20.1257L25.508 29.637L36.5861 20.4654C36.7975 20.2891 37.0407 20.1574 37.3018 20.0779C37.563 19.9984 37.8368 19.9727 38.1076 20.0023C38.3784 20.0319 38.6409 20.1162 38.8799 20.2503C39.1189 20.3845 39.3297 20.5658 39.5003 20.7839C39.6895 21.0022 39.8329 21.2583 39.9213 21.5361C40.0098 21.814 40.0414 22.1076 40.0142 22.3986C39.9871 22.6896 39.9017 22.9717 39.7635 23.2272C39.6252 23.4827 39.4371 23.7061 39.2109 23.8835L26.8101 34.1378C26.4276 34.4043 25.9691 34.5314 25.508 34.4987Z" fill="#231F20" fill-opacity="0.5"/>
</svg>
