<svg width="205" height="26" viewBox="0 0 205 26" fill="none" xmlns="http://www.w3.org/2000/svg">
<g filter="url(#filter0_d_283_155)">
<path d="M13.1469 17.53C12.3909 17.53 11.7189 17.392 11.1309 17.116C10.5549 16.852 10.0989 16.486 9.76287 16.018C9.43887 15.55 9.27687 15.01 9.27687 14.398C9.27687 13.81 9.45687 13.276 9.81687 12.796C10.1769 12.316 10.6569 11.938 11.2569 11.662C11.8569 11.374 12.5109 11.23 13.2189 11.23C13.9389 11.23 14.5929 11.35 15.1809 11.59C15.7809 11.818 16.2549 12.166 16.6029 12.634C16.9629 13.09 17.1309 13.654 17.1069 14.326C17.0949 14.95 16.9089 15.502 16.5489 15.982C16.2009 16.462 15.7269 16.84 15.1269 17.116C14.5389 17.392 13.8789 17.53 13.1469 17.53ZM13.1829 16.594C13.9389 16.57 14.5749 16.366 15.0909 15.982C15.6189 15.598 15.8949 15.04 15.9189 14.308C15.9429 13.828 15.8289 13.426 15.5769 13.102C15.3369 12.778 15.0069 12.532 14.5869 12.364C14.1789 12.184 13.7169 12.094 13.2009 12.094C12.6849 12.106 12.2169 12.214 11.7969 12.418C11.3889 12.61 11.0589 12.874 10.8069 13.21C10.5549 13.546 10.4289 13.936 10.4289 14.38C10.4289 14.836 10.5489 15.232 10.7889 15.568C11.0409 15.892 11.3709 16.144 11.7789 16.324C12.1989 16.504 12.6669 16.594 13.1829 16.594ZM4.74087 10.384C4.60887 10.396 4.52487 10.39 4.48887 10.366C4.45287 10.342 4.41687 10.276 4.38087 10.168C4.33287 10.036 4.29087 9.90401 4.25487 9.77201C4.21887 9.64001 4.18287 9.49601 4.14687 9.34001C4.13487 9.31601 4.14087 9.28601 4.16487 9.25C4.18887 9.214 4.23087 9.20201 4.29087 9.21401C4.74687 9.27401 5.58687 9.28601 6.81087 9.25H6.43287L6.30687 6.08201C6.24687 5.14601 6.15687 4.56401 6.03687 4.33601C6.01287 4.276 6.01287 4.234 6.03687 4.21C6.07287 4.174 6.11487 4.156 6.16287 4.156L7.33287 4.17401C7.39287 4.17401 7.42287 4.21601 7.42287 4.3C7.41087 4.61201 7.39887 4.87001 7.38687 5.074C7.37487 5.26601 7.36887 5.458 7.36887 5.65C7.36887 5.83 7.36887 6.07001 7.36887 6.37001L7.35087 9.23201C7.75887 9.208 8.17887 9.17801 8.61087 9.142C9.04287 9.094 9.47487 9.04601 9.90687 8.998L10.0689 6.136C10.0929 5.68001 10.1049 5.26 10.1049 4.876C10.1049 4.492 10.0749 4.24001 10.0149 4.12001C9.99087 4.06001 9.99087 4.018 10.0149 3.994C10.0509 3.958 10.0929 3.94001 10.1409 3.94001C10.2009 3.94001 10.3209 3.94601 10.5009 3.958C10.6929 3.97 10.8729 3.982 11.0409 3.994C11.2209 3.994 11.3229 3.994 11.3469 3.994C11.4309 4.00601 11.4609 4.06601 11.4369 4.17401C11.3769 4.55801 11.3229 4.93601 11.2749 5.308C11.2269 5.668 11.1849 6.06401 11.1489 6.49601L10.9509 8.85401C11.3469 8.79401 11.7309 8.72201 12.1029 8.63801C12.4869 8.55401 12.8469 8.47001 13.1829 8.38601C13.2669 8.35001 13.3209 8.38 13.3449 8.47601L13.3989 8.98001C13.4109 9.14801 13.3389 9.25 13.1829 9.28601C12.5229 9.45401 11.7189 9.604 10.7709 9.736C9.83487 9.856 8.89887 9.964 7.96287 10.06L4.74087 10.384ZM15.8829 10.978C15.8349 10.978 15.8109 10.948 15.8109 10.888V7.59401L14.9829 7.63C14.6949 7.642 14.3769 7.66001 14.0289 7.68401C13.6809 7.70801 13.3629 7.73201 13.0749 7.756C12.9429 7.768 12.8589 7.76201 12.8229 7.73801C12.7989 7.70201 12.7749 7.64801 12.7509 7.576L12.6429 6.874C12.6189 6.766 12.6609 6.724 12.7689 6.74801C12.9609 6.77201 13.2249 6.79 13.5609 6.802C13.9089 6.814 14.2809 6.82 14.6769 6.82C15.0849 6.808 15.4629 6.79601 15.8109 6.78401V4.84001L15.0729 4.85801C14.7849 4.87 14.4669 4.888 14.1189 4.912C13.7709 4.92401 13.4529 4.94201 13.1649 4.966C13.0329 4.978 12.9489 4.972 12.9129 4.94801C12.8769 4.924 12.8529 4.876 12.8409 4.804L12.7149 4.084C12.6909 3.97601 12.7329 3.93401 12.8409 3.958C13.0209 3.982 13.2729 4 13.5969 4.01201C13.9329 4.02401 14.2989 4.03 14.6949 4.03C15.0909 4.03 15.4629 4.018 15.8109 3.994V3.076C15.8109 2.62 15.7929 2.2 15.7569 1.816C15.7329 1.432 15.6909 1.18 15.6309 1.06C15.6069 1 15.6069 0.958005 15.6309 0.934005C15.6669 0.898005 15.7089 0.880005 15.7569 0.880005C15.8889 0.880005 16.0689 0.880005 16.2969 0.880005C16.5249 0.880005 16.7349 0.886005 16.9269 0.898005C16.9869 0.898005 17.0169 0.946005 17.0169 1.042C16.9809 1.486 16.9569 1.876 16.9449 2.212C16.9449 2.53601 16.9449 2.91401 16.9449 3.34601V10.528C16.9449 10.708 16.9329 10.816 16.9089 10.852C16.8969 10.888 16.8609 10.912 16.8009 10.924L15.8829 10.978ZM5.01087 3.544C4.89087 3.568 4.81287 3.562 4.77687 3.52601C4.74087 3.47801 4.71087 3.41801 4.68687 3.34601C4.67487 3.334 4.66887 3.322 4.66887 3.31C4.62087 3.178 4.58487 3.064 4.56087 2.968C4.53687 2.872 4.50687 2.734 4.47087 2.554C4.45887 2.47001 4.50687 2.42801 4.61487 2.42801C4.95087 2.45201 5.30487 2.47 5.67687 2.482C6.06087 2.494 6.54087 2.494 7.11687 2.482C7.68087 2.47 8.21487 2.458 8.71887 2.44601C9.22287 2.422 9.67887 2.398 10.0869 2.374C10.4589 2.35 10.8429 2.32 11.2389 2.28401C11.6469 2.248 12.0789 2.2 12.5349 2.14C12.5709 2.128 12.6129 2.134 12.6609 2.158C12.7089 2.17001 12.7389 2.20601 12.7509 2.26601C12.8109 2.518 12.8529 2.794 12.8769 3.09401C12.8769 3.22601 12.8049 3.29201 12.6609 3.29201C12.4329 3.28001 12.1629 3.27401 11.8509 3.27401C11.5509 3.26201 11.2809 3.25601 11.0409 3.25601C10.6689 3.25601 10.2009 3.26801 9.63687 3.29201C9.07287 3.304 8.49087 3.32201 7.89087 3.34601C7.29087 3.37001 6.73287 3.4 6.21687 3.43601C5.70087 3.472 5.29887 3.508 5.01087 3.544Z" fill="black"/>
<path d="M25.663 13.264C25.615 13.264 25.591 13.234 25.591 13.174C25.627 12.91 25.651 12.538 25.663 12.058C25.687 11.566 25.705 11.05 25.717 10.51C25.729 9.97001 25.723 9.48401 25.699 9.05201C24.571 9.08801 23.557 9.13 22.657 9.17801C21.757 9.21401 21.061 9.262 20.569 9.32201C20.437 9.33401 20.347 9.32201 20.299 9.28601C20.251 9.25 20.215 9.19601 20.191 9.12401C20.143 8.99201 20.101 8.86001 20.065 8.72801C20.029 8.59601 19.987 8.42801 19.939 8.22401C19.927 8.20001 19.933 8.17001 19.957 8.13401C19.981 8.08601 20.023 8.06801 20.083 8.08001C20.539 8.14001 21.163 8.188 21.955 8.22401C22.747 8.24801 23.617 8.254 24.565 8.242C25.297 8.242 26.077 8.236 26.905 8.22401C27.733 8.20001 28.555 8.17601 29.371 8.15201C30.199 8.11601 30.979 8.08001 31.711 8.044C32.455 8.00801 33.109 7.96601 33.673 7.918C34.249 7.87001 34.693 7.81601 35.005 7.756C35.125 7.73201 35.203 7.73801 35.239 7.774C35.275 7.81 35.299 7.85801 35.311 7.918L35.419 8.71C35.431 8.87801 35.317 8.95601 35.077 8.94401C34.705 8.92 34.201 8.908 33.565 8.908C32.941 8.908 32.263 8.91401 31.531 8.92601H31.063V12.76C31.063 13.012 31.003 13.144 30.883 13.156L30.001 13.21C29.953 13.21 29.929 13.18 29.929 13.12V8.94401C29.377 8.95601 28.837 8.96801 28.309 8.98001C27.781 8.99201 27.301 9.00401 26.869 9.01601C26.869 9.38801 26.863 9.802 26.851 10.258C26.851 10.702 26.839 11.14 26.815 11.572C26.803 12.004 26.785 12.376 26.761 12.688C26.725 13.024 26.611 13.198 26.419 13.21L25.663 13.264ZM30.541 7.18001C30.433 7.18001 30.397 7.12001 30.433 7.00001C30.529 6.66401 30.631 6.23201 30.739 5.70401C30.859 5.16401 30.967 4.612 31.063 4.048C31.159 3.484 31.219 2.998 31.243 2.59C31.255 2.458 31.195 2.392 31.063 2.392C30.799 2.392 30.439 2.398 29.983 2.41C29.539 2.42201 29.059 2.43401 28.543 2.44601C28.039 2.458 27.559 2.47 27.103 2.482C26.659 2.494 26.311 2.506 26.059 2.51801C25.867 2.51801 25.621 2.53001 25.321 2.554C25.021 2.578 24.721 2.602 24.421 2.626C24.121 2.65 23.875 2.674 23.683 2.69801C23.551 2.71 23.467 2.70401 23.431 2.68001C23.395 2.64401 23.359 2.578 23.323 2.482C23.323 2.47 23.323 2.464 23.323 2.464C23.287 2.368 23.251 2.26 23.215 2.14C23.179 2.02 23.137 1.876 23.089 1.708C23.077 1.684 23.083 1.654 23.107 1.61801C23.131 1.582 23.173 1.57 23.233 1.582C23.569 1.606 24.013 1.624 24.565 1.636C25.117 1.648 25.717 1.648 26.365 1.636C27.013 1.624 27.655 1.606 28.291 1.582C28.927 1.558 29.503 1.528 30.019 1.492C30.535 1.444 30.931 1.39 31.207 1.33C31.303 1.306 31.399 1.306 31.495 1.33L32.503 1.546C32.611 1.558 32.653 1.624 32.629 1.744C32.593 1.92401 32.545 2.16401 32.485 2.464C32.425 2.752 32.377 2.998 32.341 3.202C32.269 3.622 32.185 4.066 32.089 4.53401C31.993 4.99001 31.903 5.41 31.819 5.794C31.735 6.16601 31.663 6.44201 31.603 6.622C31.555 6.79 31.507 6.91601 31.459 7.00001C31.423 7.07201 31.339 7.11401 31.207 7.12601L30.541 7.18001ZM24.907 16.9C24.055 16.9 23.629 16.39 23.629 15.37V13.858C23.629 13.474 23.605 13.15 23.557 12.886C23.521 12.622 23.485 12.43 23.449 12.31C23.413 12.19 23.455 12.13 23.575 12.13C23.635 12.13 23.749 12.136 23.917 12.148C24.097 12.148 24.265 12.154 24.421 12.166C24.589 12.178 24.685 12.184 24.709 12.184C24.769 12.196 24.799 12.256 24.799 12.364C24.787 12.64 24.775 12.88 24.763 13.084C24.763 13.276 24.763 13.51 24.763 13.786V15.316C24.763 15.628 24.799 15.814 24.871 15.874C24.955 15.922 25.111 15.952 25.339 15.964C25.675 15.976 26.107 15.988 26.635 16C27.163 16 27.715 15.994 28.291 15.982C28.867 15.97 29.395 15.952 29.875 15.928C30.379 15.904 30.889 15.868 31.405 15.82C31.933 15.76 32.347 15.7 32.647 15.64C32.767 15.616 32.845 15.622 32.881 15.658C32.917 15.694 32.941 15.742 32.953 15.802L33.097 16.612C33.109 16.744 33.019 16.81 32.827 16.81C31.639 16.81 30.373 16.822 29.029 16.846C27.685 16.882 26.311 16.9 24.907 16.9Z" fill="black"/>
<path d="M49.6651 16.216C49.6171 16.216 49.5931 16.186 49.5931 16.126V10.312C48.1531 10.336 46.8451 10.378 45.6691 10.438C44.4931 10.486 43.5691 10.54 42.8971 10.6C42.7651 10.612 42.6751 10.6 42.6271 10.564C42.5791 10.528 42.5431 10.474 42.5191 10.402C42.4711 10.27 42.4291 10.138 42.3931 10.006C42.3571 9.86201 42.3151 9.688 42.2671 9.484C42.2551 9.46 42.2611 9.43001 42.2851 9.394C42.3091 9.346 42.3511 9.32801 42.4111 9.34001C42.8671 9.40001 43.4851 9.44201 44.2651 9.46601C45.0571 9.47801 45.9271 9.484 46.8751 9.484C47.7991 9.484 48.7711 9.472 49.7911 9.448C50.8231 9.424 51.8251 9.39401 52.7971 9.35801C53.7691 9.32201 54.6331 9.27401 55.3891 9.21401C56.1571 9.15401 56.7391 9.08801 57.1351 9.01601C57.2551 8.99201 57.3331 8.998 57.3691 9.03401C57.4051 9.07001 57.4291 9.11801 57.4411 9.17801L57.5491 10.042C57.5491 10.102 57.5311 10.156 57.4951 10.204C57.4591 10.252 57.3631 10.276 57.2071 10.276C56.7991 10.264 56.3251 10.258 55.7851 10.258C55.2451 10.258 54.6691 10.258 54.0571 10.258C53.4931 10.258 52.9351 10.264 52.3831 10.276C51.8311 10.276 51.2851 10.282 50.7451 10.294V15.766C50.7451 15.946 50.7331 16.054 50.7091 16.09C50.6971 16.126 50.6611 16.15 50.6011 16.162C50.5531 16.162 50.4631 16.162 50.3311 16.162C50.1991 16.174 50.0671 16.186 49.9351 16.198C49.8031 16.21 49.7131 16.216 49.6651 16.216ZM44.7871 7.72001C44.7871 7.72001 44.7811 7.72001 44.7691 7.72001C44.6971 7.74401 44.6131 7.762 44.5171 7.774C44.4211 7.78601 44.3251 7.72601 44.2291 7.59401L43.8691 7.19801C43.8331 7.13801 43.8271 7.10201 43.8511 7.09C43.8871 7.06601 43.9231 7.04801 43.9591 7.03601C43.9711 7.03601 43.9771 7.03601 43.9771 7.03601C44.7811 6.748 45.5191 6.38201 46.1911 5.93801C46.8631 5.49401 47.4571 5.02001 47.9731 4.51601C48.5011 4 48.9271 3.502 49.2511 3.02201C49.4551 2.698 49.6231 2.36201 49.7551 2.01401C49.8991 1.666 49.9891 1.378 50.0251 1.15C50.0611 1.042 50.1391 1.012 50.2591 1.06L51.3391 1.546C51.4471 1.594 51.4651 1.66601 51.3931 1.76201C51.2731 1.99001 51.0991 2.28401 50.8711 2.644C50.6431 2.992 50.4271 3.304 50.2231 3.58C50.8951 3.832 51.5671 4.102 52.2391 4.39C52.9111 4.666 53.5351 4.942 54.1111 5.218C54.6991 5.48201 55.1851 5.72801 55.5691 5.95601C55.6291 5.99201 55.6891 6.04601 55.7491 6.118C55.8091 6.178 55.8211 6.256 55.7851 6.35201C55.7251 6.484 55.6591 6.62801 55.5871 6.78401C55.5151 6.92801 55.4311 7.07201 55.3351 7.216C55.2871 7.3 55.2271 7.31201 55.1551 7.25201C54.8791 7.012 54.5191 6.754 54.0751 6.478C53.6311 6.19 53.1451 5.908 52.6171 5.632C52.1011 5.344 51.5851 5.08601 51.0691 4.85801C50.5531 4.618 50.0911 4.426 49.6831 4.28201C49.3231 4.71401 48.8791 5.146 48.3511 5.578C47.8351 6.01 47.2711 6.412 46.6591 6.78401C46.0591 7.14401 45.4351 7.45601 44.7871 7.72001Z" fill="black"/>
<path d="M59.2931 12.688C59.2331 12.64 59.1551 12.586 59.0591 12.526C58.9631 12.466 58.8851 12.406 58.8251 12.346C58.7531 12.262 58.7591 12.196 58.8431 12.148C59.5511 11.692 60.1871 11.17 60.7511 10.582C61.3151 9.994 61.7951 9.38801 62.1911 8.76401C62.5991 8.14001 62.9171 7.54001 63.1451 6.964C63.3731 6.38801 63.5051 5.87801 63.5411 5.43401L61.9751 5.524C61.6751 5.548 61.3631 5.57201 61.0391 5.59601C60.7151 5.60801 60.4031 5.63201 60.1031 5.66801C59.9831 5.69201 59.9051 5.686 59.8691 5.65C59.8331 5.602 59.8031 5.542 59.7791 5.47001C59.7671 5.458 59.7611 5.446 59.7611 5.43401C59.7131 5.302 59.6771 5.188 59.6531 5.09201C59.6411 4.99601 59.6111 4.846 59.5631 4.642C59.5511 4.55801 59.5991 4.51601 59.7071 4.51601C60.0431 4.54 60.3971 4.56401 60.7691 4.58801C61.1411 4.60001 61.6151 4.60601 62.1911 4.60601C62.8391 4.60601 63.4271 4.594 63.9551 4.57C64.4951 4.534 64.9871 4.50401 65.4311 4.48C65.8511 4.45601 66.2951 4.41401 66.7631 4.35401C67.2431 4.29401 67.6751 4.24001 68.0591 4.19201C68.0951 4.19201 68.1371 4.198 68.1851 4.21C68.2331 4.222 68.2631 4.258 68.2751 4.318C68.2871 4.39001 68.2991 4.474 68.3111 4.57C68.3351 4.654 68.3531 4.74401 68.3651 4.84001L68.4011 5.146C68.4251 5.27801 68.3531 5.34401 68.1851 5.34401L66.3851 5.36201L64.8371 5.398C64.8011 5.734 64.7171 6.10001 64.5851 6.49601C64.4531 6.88001 64.2731 7.3 64.0451 7.756C64.5611 8.104 65.0951 8.49401 65.6471 8.92601C66.2111 9.34601 66.7271 9.74801 67.1951 10.132C67.6631 10.504 68.0111 10.81 68.2391 11.05C68.2391 11.05 68.2451 11.056 68.2571 11.068C68.2931 11.128 68.3231 11.194 68.3471 11.266C68.3831 11.326 68.3711 11.404 68.3111 11.5C68.1191 11.764 67.8851 11.998 67.6091 12.202C67.5251 12.25 67.4651 12.244 67.4291 12.184C67.1531 11.8 66.7931 11.38 66.3491 10.924C65.9171 10.456 65.4611 10.006 64.9811 9.57401C64.5011 9.142 64.0571 8.78201 63.6491 8.49401C63.2291 9.20201 62.7011 9.91601 62.0651 10.636C61.4411 11.344 60.7091 12.004 59.8691 12.616C59.7731 12.676 59.6771 12.718 59.5811 12.742C59.4971 12.766 59.4011 12.748 59.2931 12.688ZM70.3271 16.18C70.2791 16.18 70.2551 16.15 70.2551 16.09V3.09401C70.2551 2.638 70.2371 2.218 70.2011 1.834C70.1771 1.438 70.1351 1.18 70.0751 1.06C70.0511 1 70.0511 0.958005 70.0751 0.934005C70.1111 0.898005 70.1531 0.880005 70.2011 0.880005C70.2731 0.880005 70.3931 0.886005 70.5611 0.898005C70.7411 0.898005 70.9151 0.904005 71.0831 0.916004C71.2511 0.916004 71.3471 0.916004 71.3711 0.916004C71.4311 0.916004 71.4611 0.964005 71.4611 1.06C71.4251 1.504 71.4011 1.894 71.3891 2.23C71.3891 2.554 71.3891 2.932 71.3891 3.36401V15.73C71.3891 15.91 71.3771 16.018 71.3531 16.054C71.3411 16.09 71.3051 16.114 71.2451 16.126L70.3271 16.18ZM63.5051 2.84201C63.3371 2.818 63.1031 2.788 62.8031 2.752C62.5031 2.716 62.2031 2.662 61.9031 2.59C61.6031 2.518 61.3691 2.416 61.2011 2.28401C61.1531 2.248 61.1411 2.176 61.1651 2.068C61.1891 1.948 61.2311 1.834 61.2911 1.726C61.3511 1.618 61.4111 1.576 61.4711 1.60001C62.0471 1.70801 62.6411 1.77401 63.2531 1.798C63.8771 1.822 64.4711 1.822 65.0351 1.798C65.5991 1.77401 66.0731 1.75001 66.4571 1.726C66.5531 1.714 66.6131 1.72 66.6371 1.744C66.6611 1.75601 66.6791 1.79201 66.6911 1.85201C66.6911 1.86401 66.6911 1.89401 66.6911 1.94201C66.6911 2.06201 66.6851 2.206 66.6731 2.374C66.6731 2.542 66.6371 2.638 66.5651 2.662C66.4931 2.686 66.2891 2.72201 65.9531 2.77001C65.6171 2.806 65.2271 2.836 64.7831 2.86001C64.3391 2.872 63.9131 2.86601 63.5051 2.84201Z" fill="black"/>
<path d="M91.5462 16.18C91.4982 16.18 91.4742 16.15 91.4742 16.09V8.18801C91.1022 8.18801 90.7182 8.19401 90.3222 8.20601C89.9262 8.20601 89.5842 8.218 89.2962 8.242V15.262C89.2962 15.43 89.2842 15.538 89.2602 15.586C89.2482 15.622 89.2122 15.646 89.1522 15.658C89.0802 15.67 88.9302 15.682 88.7022 15.694C88.4862 15.706 88.3482 15.712 88.2882 15.712C88.2402 15.712 88.2162 15.682 88.2162 15.622V3.544C88.2162 3.08801 88.2042 2.66801 88.1802 2.28401C88.1562 1.9 88.1142 1.64801 88.0542 1.52801C88.0302 1.46801 88.0302 1.42601 88.0542 1.402C88.0902 1.36601 88.1322 1.34801 88.1802 1.34801L89.2422 1.36601C89.3022 1.39 89.3322 1.438 89.3322 1.51C89.3082 1.858 89.2962 2.17001 89.2962 2.44601C89.2962 2.72201 89.2962 3.01 89.2962 3.31C89.2962 3.382 89.2962 3.46 89.2962 3.544C89.2962 3.628 89.2962 3.718 89.2962 3.814V7.216C89.3562 7.216 89.4162 7.216 89.4762 7.216C89.5362 7.216 89.5962 7.216 89.6562 7.216C89.9322 7.216 90.2262 7.216 90.5382 7.216C90.8622 7.216 91.1742 7.204 91.4742 7.18001V3.076C91.4742 2.62 91.4622 2.2 91.4382 1.816C91.4262 1.432 91.3902 1.18 91.3302 1.06C91.3062 1 91.3062 0.958005 91.3302 0.934005C91.3662 0.898005 91.4082 0.880005 91.4562 0.880005L92.5182 0.898005C92.5782 0.922005 92.6082 0.970005 92.6082 1.042C92.5842 1.402 92.5662 1.726 92.5542 2.01401C92.5542 2.30201 92.5542 2.602 92.5542 2.914C92.5542 2.986 92.5542 3.05801 92.5542 3.13C92.5542 3.202 92.5542 3.274 92.5542 3.34601V15.73C92.5542 15.91 92.5422 16.018 92.5182 16.054C92.5062 16.09 92.4702 16.114 92.4102 16.126C92.3742 16.126 92.2902 16.126 92.1582 16.126C92.0382 16.138 91.9182 16.15 91.7982 16.162C91.6782 16.174 91.5942 16.18 91.5462 16.18ZM81.5562 12.166C81.3282 12.178 81.1482 12.112 81.0162 11.968C80.8842 11.812 80.7882 11.614 80.7282 11.374C80.6682 11.134 80.6382 10.888 80.6382 10.636V4.894C80.6382 4.47401 80.6082 4.10201 80.5482 3.77801C80.5002 3.45401 80.4462 3.23201 80.3862 3.11201C80.3502 3.04 80.3502 2.98 80.3862 2.93201C80.4222 2.88401 80.4642 2.86001 80.5122 2.86001C80.5842 2.86001 80.7282 2.86601 80.9442 2.878C81.1722 2.89 81.3882 2.908 81.5922 2.93201C82.0482 2.93201 82.5582 2.926 83.1222 2.914C83.6982 2.902 84.2562 2.878 84.7962 2.84201C85.3362 2.80601 85.7742 2.75801 86.1102 2.69801C86.1462 2.68601 86.1882 2.69201 86.2362 2.716C86.2842 2.728 86.3142 2.764 86.3262 2.824C86.3622 3.01601 86.3862 3.16001 86.3982 3.25601C86.4102 3.352 86.4162 3.436 86.4162 3.50801C86.4162 3.64001 86.3442 3.70601 86.2002 3.70601L84.2022 3.742C83.7702 3.754 83.3742 3.76601 83.0142 3.77801C82.6542 3.79 82.2342 3.808 81.7542 3.832V6.64C83.0022 6.62801 83.9802 6.58001 84.6882 6.49601C85.4082 6.41201 85.7922 6.36401 85.8402 6.35201C85.9722 6.328 86.0502 6.334 86.0742 6.37001C86.1102 6.40601 86.1342 6.45401 86.1462 6.51401C86.1702 6.598 86.1882 6.688 86.2002 6.78401C86.2122 6.88001 86.2242 6.98801 86.2362 7.10801C86.2482 7.168 86.2362 7.222 86.2002 7.27001C86.1762 7.30601 86.0922 7.32401 85.9482 7.32401C85.8282 7.32401 85.6122 7.33 85.3002 7.342C85.0002 7.342 84.6402 7.34801 84.2202 7.36001C83.8122 7.37201 83.3922 7.39 82.9602 7.414C82.5282 7.426 82.1262 7.43801 81.7542 7.45001V10.096C81.7542 10.324 81.7722 10.546 81.8082 10.762C81.8442 10.966 81.9642 11.068 82.1682 11.068C82.8042 11.068 83.4642 11.014 84.1482 10.906C84.8442 10.786 85.4862 10.642 86.0742 10.474C86.6622 10.294 87.1062 10.126 87.4062 9.97001C87.5022 9.91001 87.5622 9.94001 87.5862 10.06L87.6762 10.654C87.7002 10.81 87.6402 10.912 87.4962 10.96C87.1842 11.08 86.7402 11.23 86.1642 11.41C85.6002 11.578 84.9282 11.734 84.1482 11.878C83.3682 12.022 82.5042 12.118 81.5562 12.166Z" fill="black"/>
<path d="M99.7381 10.6C99.0061 10.612 98.3341 10.462 97.7221 10.15C97.1101 9.83801 96.6181 9.394 96.2461 8.81801C95.8861 8.23001 95.7061 7.55801 95.7061 6.802C95.7061 6.07 95.8861 5.41601 96.2461 4.84001C96.6061 4.25201 97.0921 3.784 97.7041 3.43601C98.3281 3.076 99.0121 2.89 99.7561 2.878C100.5 2.85401 101.172 2.98601 101.772 3.27401C102.384 3.56201 102.87 3.988 103.23 4.552C103.59 5.116 103.77 5.812 103.77 6.64C103.77 7.384 103.59 8.05 103.23 8.63801C102.87 9.22601 102.384 9.69401 101.772 10.042C101.16 10.39 100.482 10.576 99.7381 10.6ZM99.7561 9.57401C100.284 9.55 100.764 9.418 101.196 9.17801C101.628 8.92601 101.97 8.58401 102.222 8.15201C102.486 7.708 102.618 7.21001 102.618 6.658C102.618 6.046 102.486 5.524 102.222 5.09201C101.97 4.66001 101.628 4.33601 101.196 4.12001C100.764 3.89201 100.284 3.79 99.7561 3.814C99.2281 3.826 98.7421 3.964 98.2981 4.228C97.8541 4.48001 97.5001 4.82801 97.2361 5.27201C96.9721 5.70401 96.8401 6.20801 96.8401 6.78401C96.8401 7.38401 96.9721 7.89401 97.2361 8.31401C97.5121 8.73401 97.8721 9.05201 98.3161 9.26801C98.7601 9.484 99.2401 9.58601 99.7561 9.57401ZM106.542 16.18C106.494 16.18 106.47 16.15 106.47 16.09V3.09401C106.47 2.638 106.452 2.218 106.416 1.834C106.392 1.438 106.35 1.18 106.29 1.06C106.266 1 106.266 0.958005 106.29 0.934005C106.326 0.898005 106.368 0.880005 106.416 0.880005C106.488 0.880005 106.608 0.886005 106.776 0.898005C106.956 0.898005 107.13 0.904005 107.298 0.916004C107.466 0.916004 107.562 0.916004 107.586 0.916004C107.646 0.916004 107.676 0.964005 107.676 1.06C107.64 1.504 107.616 1.894 107.604 2.23C107.604 2.554 107.604 2.932 107.604 3.36401V7.576C107.928 7.576 108.276 7.564 108.648 7.54C109.032 7.504 109.386 7.46801 109.71 7.43201C110.046 7.38401 110.298 7.33601 110.466 7.288C110.574 7.276 110.634 7.31201 110.646 7.39601C110.67 7.552 110.688 7.708 110.7 7.86401C110.712 8.02001 110.724 8.17601 110.736 8.33201C110.736 8.464 110.682 8.53 110.574 8.53C110.394 8.506 110.13 8.49401 109.782 8.49401C109.446 8.49401 109.086 8.49401 108.702 8.49401C108.318 8.49401 107.952 8.50001 107.604 8.51201V15.73C107.604 15.91 107.592 16.018 107.568 16.054C107.556 16.09 107.52 16.114 107.46 16.126L106.542 16.18Z" fill="black"/>
<path d="M112.377 12.562C112.245 12.574 112.161 12.568 112.125 12.544C112.089 12.52 112.053 12.454 112.017 12.346C111.969 12.214 111.927 12.094 111.891 11.986C111.867 11.866 111.831 11.704 111.783 11.5C111.771 11.476 111.777 11.446 111.801 11.41C111.825 11.374 111.867 11.362 111.927 11.374C112.167 11.422 112.611 11.446 113.259 11.446C113.919 11.446 114.639 11.434 115.419 11.41C115.563 11.41 115.713 11.41 115.869 11.41C116.025 11.398 116.187 11.386 116.355 11.374L116.319 8.62001C115.695 8.57201 115.125 8.40401 114.609 8.116C114.093 7.828 113.679 7.45001 113.367 6.982C113.067 6.50201 112.917 5.96201 112.917 5.36201C112.917 4.73801 113.091 4.17401 113.439 3.67C113.799 3.154 114.279 2.746 114.879 2.44601C115.479 2.134 116.133 1.972 116.841 1.96C117.549 1.936 118.197 2.056 118.785 2.32C119.385 2.572 119.865 2.94401 120.225 3.43601C120.585 3.92801 120.765 4.52201 120.765 5.218C120.765 5.79401 120.615 6.31601 120.315 6.78401C120.027 7.25201 119.631 7.64201 119.127 7.95401C118.635 8.26601 118.083 8.47001 117.471 8.56601L117.417 11.302C118.257 11.23 119.109 11.134 119.973 11.014C120.849 10.882 121.635 10.714 122.331 10.51C122.415 10.474 122.469 10.504 122.493 10.6L122.583 11.104C122.607 11.212 122.595 11.284 122.547 11.32C122.511 11.356 122.457 11.386 122.385 11.41C122.133 11.494 121.737 11.584 121.197 11.68C120.657 11.776 120.057 11.872 119.397 11.968C118.737 12.064 118.077 12.148 117.417 12.22C116.769 12.28 116.199 12.322 115.707 12.346C115.059 12.382 114.441 12.418 113.853 12.454C113.265 12.49 112.773 12.526 112.377 12.562ZM116.841 7.72001C117.633 7.68401 118.275 7.45001 118.767 7.01801C119.271 6.57401 119.523 5.974 119.523 5.218C119.523 4.41401 119.271 3.81401 118.767 3.418C118.263 3.01 117.615 2.824 116.823 2.86001C116.031 2.90801 115.377 3.14801 114.861 3.58C114.345 4.012 114.087 4.60001 114.087 5.34401C114.087 6.12401 114.345 6.72401 114.861 7.14401C115.389 7.552 116.049 7.74401 116.841 7.72001ZM123.159 16.18C123.111 16.18 123.087 16.15 123.087 16.09V3.076C123.087 2.62 123.069 2.2 123.033 1.816C123.009 1.432 122.967 1.18 122.907 1.06C122.883 1 122.883 0.958005 122.907 0.934005C122.943 0.898005 122.985 0.880005 123.033 0.880005L124.203 0.898005C124.263 0.922005 124.293 0.970005 124.293 1.042C124.257 1.486 124.233 1.876 124.221 2.212C124.221 2.53601 124.221 2.91401 124.221 3.34601V8.02601C124.545 8.02601 124.893 8.01401 125.265 7.99001C125.649 7.95401 126.003 7.918 126.327 7.882C126.651 7.834 126.897 7.78601 127.065 7.73801C127.173 7.72601 127.233 7.76201 127.245 7.84601C127.269 8.00201 127.287 8.15801 127.299 8.31401C127.311 8.47001 127.323 8.62601 127.335 8.78201C127.335 8.91401 127.281 8.98001 127.173 8.98001C126.969 8.95601 126.681 8.94401 126.309 8.94401C125.937 8.94401 125.547 8.95 125.139 8.962C124.983 8.962 124.827 8.962 124.671 8.962C124.515 8.962 124.365 8.962 124.221 8.962V15.73C124.221 15.91 124.209 16.018 124.185 16.054C124.173 16.09 124.137 16.114 124.077 16.126C124.041 16.126 123.957 16.126 123.825 16.126C123.693 16.138 123.561 16.15 123.429 16.162C123.297 16.174 123.207 16.18 123.159 16.18Z" fill="black"/>
<path d="M134.911 11.428C134.887 11.428 134.857 11.422 134.821 11.41C134.785 11.398 134.767 11.362 134.767 11.302C134.767 11.29 134.767 11.26 134.767 11.212C134.767 11.08 134.767 10.786 134.767 10.33C134.779 9.874 134.779 9.172 134.767 8.22401C134.767 7.26401 134.761 5.97401 134.749 4.35401C134.749 4.03001 134.725 3.70001 134.677 3.36401C134.629 3.02801 134.587 2.80001 134.551 2.68001C134.515 2.56 134.557 2.5 134.677 2.5C134.737 2.5 134.851 2.506 135.019 2.51801C135.199 2.51801 135.367 2.52401 135.523 2.53601C135.691 2.53601 135.787 2.53601 135.811 2.53601C135.871 2.56 135.901 2.62 135.901 2.716C135.889 3.02801 135.877 3.35201 135.865 3.68801C135.865 4.01201 135.865 4.33001 135.865 4.642V5.722C136.825 5.74601 137.707 5.74601 138.511 5.722C139.327 5.69801 140.131 5.65601 140.923 5.59601V4.084C140.923 3.184 140.857 2.614 140.725 2.374C140.701 2.31401 140.701 2.272 140.725 2.248C140.761 2.212 140.803 2.19401 140.851 2.19401L141.985 2.212C142.045 2.236 142.075 2.296 142.075 2.392C142.075 2.716 142.069 2.98001 142.057 3.18401C142.057 3.376 142.051 3.56801 142.039 3.76001C142.039 3.95201 142.039 4.192 142.039 4.48V11.014C142.039 11.098 142.003 11.158 141.931 11.194C141.871 11.23 141.811 11.248 141.751 11.248C141.403 11.248 140.965 11.254 140.437 11.266C139.909 11.278 139.357 11.29 138.781 11.302C138.217 11.302 137.677 11.308 137.161 11.32C136.657 11.332 136.243 11.338 135.919 11.338C135.847 11.338 135.733 11.344 135.577 11.356C135.433 11.368 135.289 11.386 135.145 11.41C135.013 11.422 134.935 11.428 134.911 11.428ZM135.883 10.312C136.159 10.336 136.939 10.336 138.223 10.312C139.519 10.288 140.419 10.252 140.923 10.204V6.658C140.527 6.63401 140.023 6.62801 139.411 6.64C138.811 6.64 138.193 6.65201 137.557 6.67601C136.933 6.68801 136.369 6.70601 135.865 6.73L135.883 10.312ZM145.279 16.18C145.231 16.18 145.207 16.15 145.207 16.09V3.09401C145.207 2.638 145.189 2.218 145.153 1.834C145.129 1.438 145.087 1.18 145.027 1.06C145.003 1 145.003 0.958005 145.027 0.934005C145.063 0.898005 145.105 0.880005 145.153 0.880005C145.225 0.880005 145.345 0.886005 145.513 0.898005C145.693 0.898005 145.867 0.904005 146.035 0.916004C146.203 0.916004 146.299 0.916004 146.323 0.916004C146.383 0.916004 146.413 0.964005 146.413 1.06C146.377 1.504 146.353 1.894 146.341 2.23C146.341 2.554 146.341 2.932 146.341 3.36401V15.73C146.341 15.91 146.329 16.018 146.305 16.054C146.293 16.09 146.257 16.114 146.197 16.126L145.279 16.18Z" fill="black"/>
<path d="M149.614 14.182C149.482 14.194 149.392 14.182 149.344 14.146C149.296 14.11 149.26 14.056 149.236 13.984C149.188 13.852 149.146 13.72 149.11 13.588C149.074 13.444 149.032 13.27 148.984 13.066C148.972 13.042 148.978 13.012 149.002 12.976C149.026 12.928 149.068 12.91 149.128 12.922C149.536 12.982 150.088 13.024 150.784 13.048C151.492 13.06 152.266 13.066 153.106 13.066L153.034 10.15C153.022 9.682 152.986 9.24401 152.926 8.836C152.866 8.42801 152.812 8.16401 152.764 8.044C152.716 7.92401 152.758 7.86401 152.89 7.86401H153.97C154.042 7.85201 154.078 7.89401 154.078 7.99001C154.078 8.002 154.078 8.01401 154.078 8.02601C154.054 8.25401 154.042 8.47001 154.042 8.67401C154.042 8.87801 154.048 9.08201 154.06 9.28601C154.06 9.38201 154.06 9.47201 154.06 9.55601C154.06 9.64001 154.06 9.73001 154.06 9.826L154.096 13.066C154.516 13.066 154.942 13.066 155.374 13.066C155.806 13.054 156.244 13.042 156.688 13.03L156.724 9.66401C156.736 9.196 156.724 8.788 156.688 8.44001C156.664 8.09201 156.628 7.85801 156.58 7.73801C156.532 7.61801 156.574 7.55801 156.706 7.55801L157.84 7.576C157.912 7.576 157.948 7.62401 157.948 7.72001C157.948 7.73201 157.948 7.74401 157.948 7.756C157.924 8.06801 157.9 8.41001 157.876 8.78201C157.852 9.142 157.834 9.478 157.822 9.79L157.696 13.012C158.524 12.976 159.316 12.94 160.072 12.904C160.828 12.868 161.506 12.826 162.106 12.778C162.706 12.718 163.174 12.658 163.51 12.598C163.63 12.574 163.708 12.58 163.744 12.616C163.78 12.652 163.804 12.7 163.816 12.76L163.924 13.624C163.924 13.684 163.906 13.738 163.87 13.786C163.834 13.834 163.738 13.858 163.582 13.858C163.174 13.846 162.7 13.84 162.16 13.84C161.62 13.84 161.044 13.84 160.432 13.84C158.932 13.84 157.48 13.858 156.076 13.894C154.672 13.918 153.412 13.954 152.296 14.002C151.18 14.05 150.286 14.11 149.614 14.182ZM159.478 10.222C159.442 10.222 159.406 10.216 159.37 10.204C159.346 10.18 159.346 10.126 159.37 10.042C159.442 9.79 159.52 9.44801 159.604 9.01601C159.688 8.58401 159.772 8.11001 159.856 7.59401C159.94 7.06601 160.018 6.544 160.09 6.02801C160.162 5.5 160.222 5.014 160.27 4.57C160.318 4.114 160.348 3.748 160.36 3.472C160.36 3.46001 160.36 3.448 160.36 3.43601C160.36 3.364 160.354 3.322 160.342 3.31C160.33 3.28601 160.276 3.27401 160.18 3.27401C159.976 3.27401 159.664 3.28001 159.244 3.29201C158.836 3.304 158.38 3.32201 157.876 3.34601C157.372 3.35801 156.868 3.376 156.364 3.4C155.86 3.42401 155.404 3.44801 154.996 3.472C154.6 3.49601 154.3 3.51401 154.096 3.52601C153.796 3.55 153.424 3.58 152.98 3.616C152.548 3.64 152.182 3.664 151.882 3.68801C151.75 3.712 151.666 3.706 151.63 3.67C151.594 3.634 151.564 3.56801 151.54 3.472C151.54 3.46001 151.54 3.45401 151.54 3.45401C151.492 3.32201 151.45 3.21401 151.414 3.13C151.39 3.034 151.354 2.884 151.306 2.68001C151.294 2.656 151.3 2.626 151.324 2.59C151.348 2.554 151.39 2.542 151.45 2.554C151.786 2.578 152.26 2.596 152.872 2.60801C153.484 2.60801 154.156 2.602 154.888 2.59C155.632 2.566 156.37 2.536 157.102 2.5C157.834 2.464 158.488 2.42201 159.064 2.374C159.64 2.326 160.066 2.272 160.342 2.212C160.438 2.18801 160.534 2.18801 160.63 2.212L161.638 2.42801C161.746 2.464 161.788 2.53 161.764 2.626C161.752 2.746 161.722 2.92 161.674 3.148C161.638 3.376 161.602 3.61 161.566 3.85001C161.53 4.07801 161.5 4.264 161.476 4.408C161.416 4.816 161.344 5.26601 161.26 5.75801C161.188 6.25001 161.104 6.74801 161.008 7.25201C160.924 7.74401 160.84 8.20001 160.756 8.62001C160.672 9.04 160.594 9.38801 160.522 9.66401C160.462 9.88 160.402 10.012 160.342 10.06C160.294 10.108 160.234 10.144 160.162 10.168C160.066 10.192 159.952 10.21 159.82 10.222C159.7 10.222 159.586 10.222 159.478 10.222Z" fill="black"/>
<path d="M174.416 7.81001C174.392 7.81001 174.362 7.80401 174.326 7.79201C174.29 7.78001 174.272 7.74401 174.272 7.68401C174.272 7.62401 174.266 7.40801 174.254 7.03601C174.254 6.664 174.248 6.178 174.236 5.578C174.224 4.978 174.206 4.31201 174.182 3.58C174.17 3.04 174.134 2.57801 174.074 2.19401C174.014 1.81001 173.966 1.55801 173.93 1.43801C173.894 1.318 173.936 1.258 174.056 1.258H175.244C175.304 1.258 175.334 1.3 175.334 1.384C175.322 1.69601 175.31 2.04401 175.298 2.42801C175.298 2.8 175.304 3.142 175.316 3.45401C175.616 3.466 176.03 3.472 176.558 3.472C177.098 3.472 177.68 3.466 178.304 3.45401C178.928 3.44201 179.534 3.42401 180.122 3.4C180.722 3.376 181.232 3.346 181.652 3.31V2.878C181.652 2.42201 181.634 2.05601 181.598 1.78001C181.562 1.49201 181.52 1.28201 181.472 1.15C181.448 1.09 181.448 1.048 181.472 1.02401C181.508 0.988005 181.55 0.970005 181.598 0.970005L182.714 0.988005C182.786 0.988005 182.822 1.036 182.822 1.132C182.81 1.456 182.798 1.714 182.786 1.906C182.774 2.098 182.768 2.28401 182.768 2.464C182.768 2.644 182.768 2.878 182.768 3.166V7.37801C182.768 7.53401 182.678 7.61201 182.498 7.61201C180.926 7.61201 179.51 7.63001 178.25 7.66601C177.002 7.69001 176.054 7.70801 175.406 7.72001L174.416 7.81001ZM178.394 13.984C178.346 13.984 178.322 13.954 178.322 13.894V10.618C178.022 10.63 177.734 10.636 177.458 10.636C177.194 10.636 176.954 10.642 176.738 10.654C175.526 10.69 174.434 10.732 173.462 10.78C172.49 10.828 171.74 10.882 171.212 10.942C171.08 10.954 170.99 10.942 170.942 10.906C170.894 10.87 170.858 10.816 170.834 10.744C170.786 10.612 170.744 10.48 170.708 10.348C170.672 10.216 170.63 10.048 170.582 9.84401C170.57 9.82001 170.576 9.79001 170.6 9.75401C170.624 9.70601 170.666 9.688 170.726 9.7C171.182 9.76 171.806 9.80801 172.598 9.84401C173.39 9.86801 174.26 9.87401 175.208 9.86201C175.94 9.86201 176.72 9.85601 177.548 9.84401C178.376 9.82001 179.198 9.79601 180.014 9.77201C180.842 9.736 181.622 9.70001 182.354 9.66401C183.098 9.62801 183.752 9.58601 184.316 9.538C184.892 9.49001 185.336 9.43601 185.648 9.37601C185.768 9.35201 185.846 9.358 185.882 9.394C185.918 9.43001 185.942 9.478 185.954 9.538L186.062 10.33C186.074 10.498 185.96 10.576 185.72 10.564C185.348 10.54 184.844 10.528 184.208 10.528C183.584 10.528 182.906 10.534 182.174 10.546C181.73 10.546 181.274 10.552 180.806 10.564C180.35 10.564 179.9 10.57 179.456 10.582V13.714C179.456 13.846 179.408 13.918 179.312 13.93L178.394 13.984ZM175.406 6.802C175.802 6.814 176.264 6.82 176.792 6.82C177.32 6.82 177.872 6.82 178.448 6.82C179.024 6.808 179.588 6.79001 180.14 6.76601C180.704 6.74201 181.208 6.712 181.652 6.67601V4.246C180.8 4.25801 179.966 4.27001 179.15 4.28201C178.334 4.294 177.596 4.306 176.936 4.318C176.276 4.33001 175.742 4.34801 175.334 4.372L175.406 6.802ZM175.694 16.9C175.274 16.9 174.956 16.738 174.74 16.414C174.524 16.09 174.416 15.682 174.416 15.19V14.218C174.416 13.834 174.392 13.51 174.344 13.246C174.308 12.982 174.272 12.79 174.236 12.67C174.2 12.55 174.242 12.49 174.362 12.49C174.422 12.49 174.536 12.496 174.704 12.508C174.884 12.508 175.052 12.514 175.208 12.526C175.376 12.538 175.472 12.544 175.496 12.544C175.556 12.556 175.586 12.616 175.586 12.724C175.574 13 175.562 13.24 175.55 13.444C175.55 13.636 175.55 13.87 175.55 14.146V15.136C175.55 15.448 175.586 15.664 175.658 15.784C175.742 15.892 175.898 15.952 176.126 15.964C176.462 15.976 176.888 15.988 177.404 16C177.92 16 178.454 15.994 179.006 15.982C179.57 15.97 180.092 15.952 180.572 15.928C181.076 15.904 181.586 15.868 182.102 15.82C182.63 15.76 183.044 15.7 183.344 15.64C183.464 15.616 183.542 15.622 183.578 15.658C183.614 15.694 183.638 15.742 183.65 15.802L183.794 16.612C183.806 16.744 183.716 16.81 183.524 16.81C182.336 16.81 181.082 16.822 179.762 16.846C178.454 16.882 177.098 16.9 175.694 16.9Z" fill="black"/>
<path d="M187.761 9.86201L187.311 9.46601C187.263 9.418 187.287 9.35801 187.383 9.28601C188.055 8.842 188.685 8.326 189.273 7.73801C189.861 7.15001 190.377 6.526 190.821 5.866C191.265 5.20601 191.607 4.54601 191.847 3.886C191.979 3.562 192.087 3.202 192.171 2.806C192.255 2.39801 192.303 2.074 192.315 1.834C192.315 1.726 192.375 1.678 192.495 1.69001C192.627 1.714 192.813 1.762 193.053 1.834C193.305 1.906 193.521 1.97201 193.701 2.03201C193.773 2.068 193.791 2.134 193.755 2.23C193.671 2.47 193.563 2.776 193.431 3.148C193.299 3.508 193.167 3.83201 193.035 4.12001C192.951 4.312 192.855 4.504 192.747 4.69601C192.651 4.888 192.549 5.086 192.441 5.29C192.909 5.65001 193.389 6.04601 193.881 6.478C194.385 6.91 194.835 7.31201 195.231 7.68401C195.639 8.04401 195.927 8.32001 196.095 8.51201C196.143 8.56001 196.179 8.62001 196.203 8.69201C196.227 8.76401 196.209 8.84201 196.149 8.92601C196.125 8.96201 196.059 9.02801 195.951 9.12401C195.855 9.22001 195.753 9.31001 195.645 9.394C195.549 9.478 195.477 9.538 195.429 9.57401C195.333 9.634 195.261 9.622 195.213 9.538C194.997 9.20201 194.703 8.81201 194.331 8.368C193.959 7.924 193.569 7.486 193.161 7.05401C192.753 6.622 192.369 6.262 192.009 5.974C191.601 6.56201 191.103 7.18601 190.515 7.84601C189.927 8.49401 189.195 9.15401 188.319 9.826C188.259 9.87401 188.181 9.91601 188.085 9.95201C187.989 9.98801 187.881 9.95801 187.761 9.86201ZM199.119 17.35C199.071 17.35 199.047 17.32 199.047 17.26V12.526C199.047 12.442 199.035 12.388 199.011 12.364C198.999 12.34 198.939 12.328 198.831 12.328C198.555 12.328 198.171 12.334 197.679 12.346C197.187 12.358 196.665 12.376 196.113 12.4C195.561 12.412 195.039 12.43 194.547 12.454C194.067 12.466 193.701 12.478 193.449 12.49C193.149 12.514 192.819 12.538 192.459 12.562C192.111 12.586 191.787 12.61 191.487 12.634C191.367 12.646 191.289 12.634 191.253 12.598C191.217 12.55 191.187 12.496 191.163 12.436C191.151 12.424 191.145 12.412 191.145 12.4L190.965 11.626C190.953 11.602 190.959 11.572 190.983 11.536C191.007 11.5 191.049 11.488 191.109 11.5C191.301 11.524 191.649 11.542 192.153 11.554C192.669 11.566 193.257 11.572 193.917 11.572C194.577 11.56 195.243 11.542 195.915 11.518C196.587 11.494 197.193 11.464 197.733 11.428C198.273 11.38 198.663 11.326 198.903 11.266C198.915 11.266 198.933 11.26 198.957 11.248C198.981 11.248 199.005 11.248 199.029 11.248C199.053 11.236 199.095 11.236 199.155 11.248L200.217 11.41C200.277 11.422 200.307 11.446 200.307 11.482C200.319 11.506 200.325 11.53 200.325 11.554C200.325 11.566 200.325 11.572 200.325 11.572C200.289 11.908 200.259 12.25 200.235 12.598C200.223 12.946 200.217 13.264 200.217 13.552L200.199 17.008C200.199 17.152 200.169 17.236 200.109 17.26C200.061 17.284 200.007 17.302 199.947 17.314L199.119 17.35ZM199.191 10.222C199.143 10.222 199.119 10.192 199.119 10.132V5.56C198.903 5.572 198.693 5.584 198.489 5.59601C198.285 5.60801 198.093 5.62 197.913 5.632C197.625 5.644 197.295 5.674 196.923 5.722C196.551 5.75801 196.221 5.79401 195.933 5.83001C195.801 5.85401 195.711 5.848 195.663 5.812C195.615 5.776 195.579 5.722 195.555 5.65C195.507 5.49401 195.465 5.35001 195.429 5.218C195.405 5.07401 195.381 4.94201 195.357 4.822C195.357 4.72601 195.405 4.69001 195.501 4.714C195.693 4.73801 195.993 4.75601 196.401 4.76801C196.821 4.76801 197.277 4.76201 197.769 4.75001C198.261 4.72601 198.711 4.702 199.119 4.67801V3.076C199.119 2.62 199.101 2.2 199.065 1.816C199.041 1.432 198.999 1.18 198.939 1.06C198.915 1 198.915 0.958005 198.939 0.934005C198.975 0.898005 199.017 0.880005 199.065 0.880005C199.185 0.880005 199.359 0.880005 199.587 0.880005C199.827 0.880005 200.043 0.886005 200.235 0.898005C200.295 0.898005 200.325 0.946005 200.325 1.042C200.289 1.486 200.265 1.876 200.253 2.212C200.253 2.53601 200.253 2.91401 200.253 3.34601V9.77201C200.253 9.95201 200.241 10.06 200.217 10.096C200.205 10.132 200.169 10.156 200.109 10.168L199.191 10.222Z" fill="black"/>
</g>
<defs>
<filter id="filter0_d_283_155" x="0.140869" y="0.880005" width="204.184" height="24.65" filterUnits="userSpaceOnUse" color-interpolation-filters="sRGB">
<feFlood flood-opacity="0" result="BackgroundImageFix"/>
<feColorMatrix in="SourceAlpha" type="matrix" values="0 0 0 0 0 0 0 0 0 0 0 0 0 0 0 0 0 0 127 0" result="hardAlpha"/>
<feOffset dy="4"/>
<feGaussianBlur stdDeviation="2"/>
<feComposite in2="hardAlpha" operator="out"/>
<feColorMatrix type="matrix" values="0 0 0 0 0 0 0 0 0 0 0 0 0 0 0 0 0 0 0.25 0"/>
<feBlend mode="normal" in2="BackgroundImageFix" result="effect1_dropShadow_283_155"/>
<feBlend mode="normal" in="SourceGraphic" in2="effect1_dropShadow_283_155" result="shape"/>
</filter>
</defs>
</svg>
