<svg width="225" height="26" viewBox="0 0 225 26" fill="none" xmlns="http://www.w3.org/2000/svg">
<g filter="url(#filter0_d_283_150)">
<path d="M13.6116 17.5299C12.8556 17.5299 12.1836 17.3919 11.5956 17.1159C11.0196 16.8519 10.5636 16.4859 10.2276 16.0179C9.90359 15.5499 9.74159 15.0099 9.74159 14.3979C9.74159 13.8099 9.92159 13.2759 10.2816 12.7959C10.6416 12.3159 11.1216 11.9379 11.7216 11.6619C12.3216 11.3739 12.9756 11.2299 13.6836 11.2299C14.4036 11.2299 15.0576 11.3499 15.6456 11.5899C16.2456 11.8179 16.7196 12.1659 17.0676 12.6339C17.4276 13.0899 17.5956 13.6539 17.5716 14.3259C17.5596 14.9499 17.3736 15.5019 17.0136 15.9819C16.6656 16.4619 16.1916 16.8399 15.5916 17.1159C15.0036 17.3919 14.3436 17.5299 13.6116 17.5299ZM13.6476 16.5939C14.4036 16.5699 15.0396 16.3659 15.5556 15.9819C16.0836 15.5979 16.3596 15.0399 16.3836 14.3079C16.4076 13.8279 16.2936 13.4259 16.0416 13.1019C15.8016 12.7779 15.4716 12.5319 15.0516 12.3639C14.6436 12.1839 14.1816 12.0939 13.6656 12.0939C13.1496 12.1059 12.6816 12.2139 12.2616 12.4179C11.8536 12.6099 11.5236 12.8739 11.2716 13.2099C11.0196 13.5459 10.8936 13.9359 10.8936 14.3799C10.8936 14.8359 11.0136 15.2319 11.2536 15.5679C11.5056 15.8919 11.8356 16.1439 12.2436 16.3239C12.6636 16.5039 13.1316 16.5939 13.6476 16.5939ZM5.20559 10.3839C5.07359 10.3959 4.98959 10.3899 4.95359 10.3659C4.91759 10.3419 4.88159 10.2759 4.84559 10.1679C4.79759 10.0359 4.75559 9.90388 4.71959 9.77188C4.68359 9.63988 4.64759 9.49588 4.61159 9.33988C4.59959 9.31588 4.60559 9.28588 4.62959 9.24988C4.65359 9.21388 4.69559 9.20188 4.75559 9.21388C5.21159 9.27388 6.05159 9.28588 7.27559 9.24988H6.89759L6.77159 6.08188C6.71159 5.14588 6.62159 4.56388 6.50159 4.33588C6.47759 4.27588 6.47759 4.23388 6.50159 4.20988C6.53759 4.17388 6.57959 4.15588 6.62759 4.15588L7.79759 4.17388C7.85759 4.17388 7.88759 4.21588 7.88759 4.29988C7.87559 4.61188 7.86359 4.86988 7.85159 5.07388C7.83959 5.26588 7.83359 5.45788 7.83359 5.64988C7.83359 5.82988 7.83359 6.06988 7.83359 6.36988L7.81559 9.23188C8.22359 9.20788 8.64359 9.17788 9.07559 9.14188C9.50759 9.09388 9.93959 9.04588 10.3716 8.99788L10.5336 6.13588C10.5576 5.67988 10.5696 5.25988 10.5696 4.87588C10.5696 4.49188 10.5396 4.23988 10.4796 4.11988C10.4556 4.05988 10.4556 4.01788 10.4796 3.99388C10.5156 3.95788 10.5576 3.93988 10.6056 3.93988C10.6656 3.93988 10.7856 3.94588 10.9656 3.95788C11.1576 3.96988 11.3376 3.98188 11.5056 3.99388C11.6856 3.99388 11.7876 3.99388 11.8116 3.99388C11.8956 4.00588 11.9256 4.06588 11.9016 4.17388C11.8416 4.55788 11.7876 4.93588 11.7396 5.30788C11.6916 5.66788 11.6496 6.06388 11.6136 6.49588L11.4156 8.85388C11.8116 8.79388 12.1956 8.72188 12.5676 8.63788C12.9516 8.55388 13.3116 8.46988 13.6476 8.38588C13.7316 8.34988 13.7856 8.37988 13.8096 8.47588L13.8636 8.97988C13.8756 9.14788 13.8036 9.24988 13.6476 9.28588C12.9876 9.45388 12.1836 9.60388 11.2356 9.73588C10.2996 9.85588 9.36359 9.96388 8.42759 10.0599L5.20559 10.3839ZM16.3476 10.9779C16.2996 10.9779 16.2756 10.9479 16.2756 10.8879V7.59388L15.4476 7.62988C15.1596 7.64188 14.8416 7.65988 14.4936 7.68388C14.1456 7.70788 13.8276 7.73188 13.5396 7.75588C13.4076 7.76788 13.3236 7.76188 13.2876 7.73788C13.2636 7.70188 13.2396 7.64788 13.2156 7.57588L13.1076 6.87388C13.0836 6.76588 13.1256 6.72388 13.2336 6.74788C13.4256 6.77188 13.6896 6.78988 14.0256 6.80188C14.3736 6.81388 14.7456 6.81988 15.1416 6.81988C15.5496 6.80788 15.9276 6.79588 16.2756 6.78388V4.83988L15.5376 4.85788C15.2496 4.86988 14.9316 4.88788 14.5836 4.91188C14.2356 4.92388 13.9176 4.94188 13.6296 4.96588C13.4976 4.97788 13.4136 4.97188 13.3776 4.94788C13.3416 4.92388 13.3176 4.87588 13.3056 4.80388L13.1796 4.08388C13.1556 3.97588 13.1976 3.93388 13.3056 3.95788C13.4856 3.98188 13.7376 3.99988 14.0616 4.01188C14.3976 4.02388 14.7636 4.02988 15.1596 4.02988C15.5556 4.02988 15.9276 4.01788 16.2756 3.99388V3.07588C16.2756 2.61988 16.2576 2.19988 16.2216 1.81588C16.1976 1.43188 16.1556 1.17988 16.0956 1.05988C16.0716 0.999883 16.0716 0.957883 16.0956 0.933883C16.1316 0.897883 16.1736 0.879883 16.2216 0.879883C16.3536 0.879883 16.5336 0.879883 16.7616 0.879883C16.9896 0.879883 17.1996 0.885883 17.3916 0.897883C17.4516 0.897883 17.4816 0.945883 17.4816 1.04188C17.4456 1.48588 17.4216 1.87588 17.4096 2.21188C17.4096 2.53588 17.4096 2.91388 17.4096 3.34588V10.5279C17.4096 10.7079 17.3976 10.8159 17.3736 10.8519C17.3616 10.8879 17.3256 10.9119 17.2656 10.9239L16.3476 10.9779ZM5.47559 3.54388C5.35559 3.56788 5.27759 3.56188 5.24159 3.52588C5.20559 3.47788 5.17559 3.41788 5.15159 3.34588C5.13959 3.33388 5.13359 3.32188 5.13359 3.30988C5.08559 3.17788 5.04959 3.06388 5.02559 2.96788C5.00159 2.87188 4.97159 2.73388 4.93559 2.55388C4.92359 2.46988 4.97159 2.42788 5.07959 2.42788C5.41559 2.45188 5.76959 2.46988 6.14159 2.48188C6.52559 2.49388 7.00559 2.49388 7.58159 2.48188C8.14559 2.46988 8.67959 2.45788 9.18359 2.44588C9.68759 2.42188 10.1436 2.39788 10.5516 2.37388C10.9236 2.34988 11.3076 2.31988 11.7036 2.28388C12.1116 2.24788 12.5436 2.19988 12.9996 2.13988C13.0356 2.12788 13.0776 2.13388 13.1256 2.15788C13.1736 2.16988 13.2036 2.20588 13.2156 2.26588C13.2756 2.51788 13.3176 2.79388 13.3416 3.09388C13.3416 3.22588 13.2696 3.29188 13.1256 3.29188C12.8976 3.27988 12.6276 3.27388 12.3156 3.27388C12.0156 3.26188 11.7456 3.25588 11.5056 3.25588C11.1336 3.25588 10.6656 3.26788 10.1016 3.29188C9.53759 3.30388 8.95559 3.32188 8.35559 3.34588C7.75559 3.36988 7.19759 3.39988 6.68159 3.43588C6.16559 3.47188 5.76359 3.50788 5.47559 3.54388Z" fill="black"/>
<path d="M26.3535 13.2639C26.3055 13.2639 26.2815 13.2339 26.2815 13.1739C26.3175 12.9099 26.3415 12.5379 26.3535 12.0579C26.3775 11.5659 26.3955 11.0499 26.4075 10.5099C26.4195 9.96988 26.4135 9.48388 26.3895 9.05188C25.2615 9.08788 24.2475 9.12988 23.3475 9.17788C22.4475 9.21388 21.7515 9.26188 21.2595 9.32188C21.1275 9.33388 21.0375 9.32188 20.9895 9.28588C20.9415 9.24988 20.9055 9.19588 20.8815 9.12388C20.8335 8.99188 20.7915 8.85988 20.7555 8.72788C20.7195 8.59588 20.6775 8.42788 20.6295 8.22388C20.6175 8.19988 20.6235 8.16988 20.6475 8.13388C20.6715 8.08588 20.7135 8.06788 20.7735 8.07988C21.2295 8.13988 21.8535 8.18788 22.6455 8.22388C23.4375 8.24788 24.3075 8.25388 25.2555 8.24188C25.9875 8.24188 26.7675 8.23588 27.5955 8.22388C28.4235 8.19988 29.2455 8.17588 30.0615 8.15188C30.8895 8.11588 31.6695 8.07988 32.4015 8.04388C33.1455 8.00788 33.7995 7.96588 34.3635 7.91788C34.9395 7.86988 35.3835 7.81588 35.6955 7.75588C35.8155 7.73188 35.8935 7.73788 35.9295 7.77388C35.9655 7.80988 35.9895 7.85788 36.0015 7.91788L36.1095 8.70988C36.1215 8.87788 36.0075 8.95588 35.7675 8.94388C35.3955 8.91988 34.8915 8.90788 34.2555 8.90788C33.6315 8.90788 32.9535 8.91388 32.2215 8.92588H31.7535V12.7599C31.7535 13.0119 31.6935 13.1439 31.5735 13.1559L30.6915 13.2099C30.6435 13.2099 30.6195 13.1799 30.6195 13.1199V8.94388C30.0675 8.95588 29.5275 8.96788 28.9995 8.97988C28.4715 8.99188 27.9915 9.00388 27.5595 9.01588C27.5595 9.38788 27.5535 9.80188 27.5415 10.2579C27.5415 10.7019 27.5295 11.1399 27.5055 11.5719C27.4935 12.0039 27.4755 12.3759 27.4515 12.6879C27.4155 13.0239 27.3015 13.1979 27.1095 13.2099L26.3535 13.2639ZM31.2315 7.17988C31.1235 7.17988 31.0875 7.11988 31.1235 6.99988C31.2195 6.66388 31.3215 6.23188 31.4295 5.70388C31.5495 5.16388 31.6575 4.61188 31.7535 4.04788C31.8495 3.48388 31.9095 2.99788 31.9335 2.58988C31.9455 2.45788 31.8855 2.39188 31.7535 2.39188C31.4895 2.39188 31.1295 2.39788 30.6735 2.40988C30.2295 2.42188 29.7495 2.43388 29.2335 2.44588C28.7295 2.45788 28.2495 2.46988 27.7935 2.48188C27.3495 2.49388 27.0015 2.50588 26.7495 2.51788C26.5575 2.51788 26.3115 2.52988 26.0115 2.55388C25.7115 2.57788 25.4115 2.60188 25.1115 2.62588C24.8115 2.64988 24.5655 2.67388 24.3735 2.69788C24.2415 2.70988 24.1575 2.70388 24.1215 2.67988C24.0855 2.64388 24.0495 2.57788 24.0135 2.48188C24.0135 2.46988 24.0135 2.46388 24.0135 2.46388C23.9775 2.36788 23.9415 2.25988 23.9055 2.13988C23.8695 2.01988 23.8275 1.87588 23.7795 1.70788C23.7675 1.68388 23.7735 1.65388 23.7975 1.61788C23.8215 1.58188 23.8635 1.56988 23.9235 1.58188C24.2595 1.60588 24.7035 1.62388 25.2555 1.63588C25.8075 1.64788 26.4075 1.64788 27.0555 1.63588C27.7035 1.62388 28.3455 1.60588 28.9815 1.58188C29.6175 1.55788 30.1935 1.52788 30.7095 1.49188C31.2255 1.44388 31.6215 1.38988 31.8975 1.32988C31.9935 1.30588 32.0895 1.30588 32.1855 1.32988L33.1935 1.54588C33.3015 1.55788 33.3435 1.62388 33.3195 1.74388C33.2835 1.92388 33.2355 2.16388 33.1755 2.46388C33.1155 2.75188 33.0675 2.99788 33.0315 3.20188C32.9595 3.62188 32.8755 4.06588 32.7795 4.53388C32.6835 4.98988 32.5935 5.40988 32.5095 5.79388C32.4255 6.16588 32.3535 6.44188 32.2935 6.62188C32.2455 6.78988 32.1975 6.91588 32.1495 6.99988C32.1135 7.07188 32.0295 7.11388 31.8975 7.12588L31.2315 7.17988ZM25.5975 16.8999C24.7455 16.8999 24.3195 16.3899 24.3195 15.3699V13.8579C24.3195 13.4739 24.2955 13.1499 24.2475 12.8859C24.2115 12.6219 24.1755 12.4299 24.1395 12.3099C24.1035 12.1899 24.1455 12.1299 24.2655 12.1299C24.3255 12.1299 24.4395 12.1359 24.6075 12.1479C24.7875 12.1479 24.9555 12.1539 25.1115 12.1659C25.2795 12.1779 25.3755 12.1839 25.3995 12.1839C25.4595 12.1959 25.4895 12.2559 25.4895 12.3639C25.4775 12.6399 25.4655 12.8799 25.4535 13.0839C25.4535 13.2759 25.4535 13.5099 25.4535 13.7859V15.3159C25.4535 15.6279 25.4895 15.8139 25.5615 15.8739C25.6455 15.9219 25.8015 15.9519 26.0295 15.9639C26.3655 15.9759 26.7975 15.9879 27.3255 15.9999C27.8535 15.9999 28.4055 15.9939 28.9815 15.9819C29.5575 15.9699 30.0855 15.9519 30.5655 15.9279C31.0695 15.9039 31.5795 15.8679 32.0955 15.8199C32.6235 15.7599 33.0375 15.6999 33.3375 15.6399C33.4575 15.6159 33.5355 15.6219 33.5715 15.6579C33.6075 15.6939 33.6315 15.7419 33.6435 15.8019L33.7875 16.6119C33.7995 16.7439 33.7095 16.8099 33.5175 16.8099C32.3295 16.8099 31.0635 16.8219 29.7195 16.8459C28.3755 16.8819 27.0015 16.8999 25.5975 16.8999Z" fill="black"/>
<path d="M50.807 16.2159C50.759 16.2159 50.735 16.1859 50.735 16.1259V10.3119C49.295 10.3359 47.987 10.3779 46.811 10.4379C45.635 10.4859 44.711 10.5399 44.039 10.5999C43.907 10.6119 43.817 10.5999 43.769 10.5639C43.721 10.5279 43.685 10.4739 43.661 10.4019C43.613 10.2699 43.571 10.1379 43.535 10.0059C43.499 9.86188 43.457 9.68788 43.409 9.48388C43.397 9.45988 43.403 9.42988 43.427 9.39388C43.451 9.34588 43.493 9.32788 43.553 9.33988C44.009 9.39988 44.627 9.44188 45.407 9.46588C46.199 9.47788 47.069 9.48388 48.017 9.48388C48.941 9.48388 49.913 9.47188 50.933 9.44788C51.965 9.42388 52.967 9.39388 53.939 9.35788C54.911 9.32188 55.775 9.27388 56.531 9.21388C57.299 9.15388 57.881 9.08788 58.277 9.01588C58.397 8.99188 58.475 8.99788 58.511 9.03388C58.547 9.06988 58.571 9.11788 58.583 9.17788L58.691 10.0419C58.691 10.1019 58.673 10.1559 58.637 10.2039C58.601 10.2519 58.505 10.2759 58.349 10.2759C57.941 10.2639 57.467 10.2579 56.927 10.2579C56.387 10.2579 55.811 10.2579 55.199 10.2579C54.635 10.2579 54.077 10.2639 53.525 10.2759C52.973 10.2759 52.427 10.2819 51.887 10.2939V15.7659C51.887 15.9459 51.875 16.0539 51.851 16.0899C51.839 16.1259 51.803 16.1499 51.743 16.1619C51.695 16.1619 51.605 16.1619 51.473 16.1619C51.341 16.1739 51.209 16.1859 51.077 16.1979C50.945 16.2099 50.855 16.2159 50.807 16.2159ZM45.929 7.71988C45.929 7.71988 45.923 7.71988 45.911 7.71988C45.839 7.74388 45.755 7.76188 45.659 7.77388C45.563 7.78588 45.467 7.72588 45.371 7.59388L45.011 7.19788C44.975 7.13788 44.969 7.10188 44.993 7.08988C45.029 7.06588 45.065 7.04788 45.101 7.03588C45.113 7.03588 45.119 7.03588 45.119 7.03588C45.923 6.74788 46.661 6.38188 47.333 5.93788C48.005 5.49388 48.599 5.01988 49.115 4.51588C49.643 3.99988 50.069 3.50188 50.393 3.02188C50.597 2.69788 50.765 2.36188 50.897 2.01388C51.041 1.66588 51.131 1.37788 51.167 1.14988C51.203 1.04188 51.281 1.01188 51.401 1.05988L52.481 1.54588C52.589 1.59388 52.607 1.66588 52.535 1.76188C52.415 1.98988 52.241 2.28388 52.013 2.64388C51.785 2.99188 51.569 3.30388 51.365 3.57988C52.037 3.83188 52.709 4.10188 53.381 4.38988C54.053 4.66588 54.677 4.94188 55.253 5.21788C55.841 5.48188 56.327 5.72788 56.711 5.95588C56.771 5.99188 56.831 6.04588 56.891 6.11788C56.951 6.17788 56.963 6.25588 56.927 6.35188C56.867 6.48388 56.801 6.62788 56.729 6.78388C56.657 6.92788 56.573 7.07188 56.477 7.21588C56.429 7.29988 56.369 7.31188 56.297 7.25188C56.021 7.01188 55.661 6.75388 55.217 6.47788C54.773 6.18988 54.287 5.90788 53.759 5.63188C53.243 5.34388 52.727 5.08588 52.211 4.85788C51.695 4.61788 51.233 4.42588 50.825 4.28188C50.465 4.71388 50.021 5.14588 49.493 5.57788C48.977 6.00988 48.413 6.41188 47.801 6.78388C47.201 7.14388 46.577 7.45588 45.929 7.71988Z" fill="black"/>
<path d="M60.6608 12.6879C60.6008 12.6399 60.5228 12.5859 60.4268 12.5259C60.3308 12.4659 60.2528 12.4059 60.1928 12.3459C60.1208 12.2619 60.1268 12.1959 60.2108 12.1479C60.9188 11.6919 61.5548 11.1699 62.1188 10.5819C62.6828 9.99388 63.1628 9.38788 63.5588 8.76388C63.9668 8.13988 64.2848 7.53988 64.5128 6.96388C64.7408 6.38788 64.8728 5.87788 64.9088 5.43388L63.3428 5.52388C63.0428 5.54788 62.7308 5.57188 62.4068 5.59588C62.0828 5.60788 61.7708 5.63188 61.4708 5.66788C61.3508 5.69188 61.2728 5.68588 61.2368 5.64988C61.2008 5.60188 61.1708 5.54188 61.1468 5.46988C61.1348 5.45788 61.1288 5.44588 61.1288 5.43388C61.0808 5.30188 61.0448 5.18788 61.0208 5.09188C61.0088 4.99588 60.9788 4.84588 60.9308 4.64188C60.9188 4.55788 60.9668 4.51588 61.0748 4.51588C61.4108 4.53988 61.7648 4.56388 62.1368 4.58788C62.5088 4.59988 62.9828 4.60588 63.5588 4.60588C64.2068 4.60588 64.7948 4.59388 65.3228 4.56988C65.8628 4.53388 66.3548 4.50388 66.7988 4.47988C67.2188 4.45588 67.6628 4.41388 68.1308 4.35388C68.6108 4.29388 69.0428 4.23988 69.4268 4.19188C69.4628 4.19188 69.5048 4.19788 69.5528 4.20988C69.6008 4.22188 69.6308 4.25788 69.6428 4.31788C69.6548 4.38988 69.6668 4.47388 69.6788 4.56988C69.7028 4.65388 69.7208 4.74388 69.7328 4.83988L69.7688 5.14588C69.7928 5.27788 69.7208 5.34388 69.5528 5.34388L67.7528 5.36188L66.2048 5.39788C66.1688 5.73388 66.0848 6.09988 65.9528 6.49588C65.8208 6.87988 65.6408 7.29988 65.4128 7.75588C65.9288 8.10388 66.4628 8.49388 67.0148 8.92588C67.5788 9.34588 68.0948 9.74788 68.5628 10.1319C69.0308 10.5039 69.3788 10.8099 69.6068 11.0499C69.6068 11.0499 69.6128 11.0559 69.6248 11.0679C69.6608 11.1279 69.6908 11.1939 69.7148 11.2659C69.7508 11.3259 69.7388 11.4039 69.6788 11.4999C69.4868 11.7639 69.2528 11.9979 68.9768 12.2019C68.8928 12.2499 68.8328 12.2439 68.7968 12.1839C68.5208 11.7999 68.1608 11.3799 67.7168 10.9239C67.2848 10.4559 66.8288 10.0059 66.3488 9.57388C65.8688 9.14188 65.4248 8.78188 65.0168 8.49388C64.5968 9.20188 64.0688 9.91588 63.4328 10.6359C62.8088 11.3439 62.0768 12.0039 61.2368 12.6159C61.1408 12.6759 61.0448 12.7179 60.9488 12.7419C60.8648 12.7659 60.7688 12.7479 60.6608 12.6879ZM71.6948 16.1799C71.6468 16.1799 71.6228 16.1499 71.6228 16.0899V3.09388C71.6228 2.63788 71.6048 2.21788 71.5688 1.83388C71.5448 1.43788 71.5028 1.17988 71.4428 1.05988C71.4188 0.999883 71.4188 0.957883 71.4428 0.933883C71.4788 0.897883 71.5208 0.879883 71.5688 0.879883C71.6408 0.879883 71.7608 0.885883 71.9288 0.897883C72.1088 0.897883 72.2828 0.903883 72.4508 0.915882C72.6188 0.915882 72.7148 0.915882 72.7388 0.915882C72.7988 0.915882 72.8288 0.963882 72.8288 1.05988C72.7928 1.50388 72.7688 1.89388 72.7568 2.22988C72.7568 2.55388 72.7568 2.93188 72.7568 3.36388V15.7299C72.7568 15.9099 72.7448 16.0179 72.7208 16.0539C72.7088 16.0899 72.6728 16.1139 72.6128 16.1259L71.6948 16.1799ZM64.8728 2.84188C64.7048 2.81788 64.4708 2.78788 64.1708 2.75188C63.8708 2.71588 63.5708 2.66188 63.2708 2.58988C62.9708 2.51788 62.7368 2.41588 62.5688 2.28388C62.5208 2.24788 62.5088 2.17588 62.5328 2.06788C62.5568 1.94788 62.5988 1.83388 62.6588 1.72588C62.7188 1.61788 62.7788 1.57588 62.8388 1.59988C63.4148 1.70788 64.0088 1.77388 64.6208 1.79788C65.2448 1.82188 65.8388 1.82188 66.4028 1.79788C66.9668 1.77388 67.4408 1.74988 67.8248 1.72588C67.9208 1.71388 67.9808 1.71988 68.0048 1.74388C68.0288 1.75588 68.0468 1.79188 68.0588 1.85188C68.0588 1.86388 68.0588 1.89388 68.0588 1.94188C68.0588 2.06188 68.0528 2.20588 68.0408 2.37388C68.0408 2.54188 68.0048 2.63788 67.9328 2.66188C67.8608 2.68588 67.6568 2.72188 67.3208 2.76988C66.9848 2.80588 66.5948 2.83588 66.1508 2.85988C65.7068 2.87188 65.2808 2.86588 64.8728 2.84188Z" fill="black"/>
<path d="M80.9171 8.74588C80.1971 8.75788 79.5311 8.63188 78.9191 8.36788C78.3191 8.09188 77.8391 7.70188 77.4791 7.19788C77.1191 6.69388 76.9391 6.11188 76.9391 5.45188C76.9391 4.80388 77.1191 4.22788 77.4791 3.72388C77.8511 3.20788 78.3371 2.79988 78.9371 2.49988C79.5491 2.18788 80.2151 2.02588 80.9351 2.01388C81.6551 1.98988 82.3151 2.10988 82.9151 2.37388C83.5271 2.62588 84.0131 3.00388 84.3731 3.50788C84.7451 3.99988 84.9311 4.59988 84.9311 5.30788C84.9311 5.94388 84.7451 6.51988 84.3731 7.03588C84.0011 7.55188 83.5091 7.95988 82.8971 8.25988C82.2971 8.55988 81.6371 8.72188 80.9171 8.74588ZM80.9351 7.84588C81.7511 7.80988 82.4171 7.57588 82.9331 7.14388C83.4611 6.69988 83.7251 6.08788 83.7251 5.30788C83.7251 4.47988 83.4611 3.86788 82.9331 3.47188C82.4051 3.07588 81.7331 2.88988 80.9171 2.91388C80.1011 2.96188 79.4231 3.20188 78.8831 3.63388C78.3431 4.06588 78.0731 4.66588 78.0731 5.43388C78.0731 6.22588 78.3431 6.83188 78.8831 7.25188C79.4351 7.67188 80.1191 7.86988 80.9351 7.84588ZM87.5411 16.1799C87.4931 16.1799 87.4691 16.1499 87.4691 16.0899V3.09388C87.4691 2.63788 87.4511 2.21788 87.4151 1.83388C87.3911 1.43788 87.3491 1.17988 87.2891 1.05988C87.2651 0.999883 87.2651 0.957883 87.2891 0.933883C87.3251 0.897883 87.3671 0.879883 87.4151 0.879883C87.4871 0.879883 87.6071 0.885883 87.7751 0.897883C87.9551 0.897883 88.1291 0.903883 88.2971 0.915882C88.4651 0.915882 88.5611 0.915882 88.5851 0.915882C88.6451 0.915882 88.6751 0.963882 88.6751 1.05988C88.6391 1.50388 88.6151 1.89388 88.6031 2.22988C88.6031 2.55388 88.6031 2.93188 88.6031 3.36388V15.7299C88.6031 15.9099 88.5911 16.0179 88.5671 16.0539C88.5551 16.0899 88.5191 16.1139 88.4591 16.1259L87.5411 16.1799ZM76.3091 12.6519C76.1771 12.6639 76.0931 12.6579 76.0571 12.6339C76.0211 12.6099 75.9851 12.5439 75.9491 12.4359C75.9011 12.3039 75.8591 12.1839 75.8231 12.0759C75.7991 11.9559 75.7631 11.7939 75.7151 11.5899C75.7031 11.5659 75.7091 11.5359 75.7331 11.4999C75.7571 11.4639 75.7991 11.4519 75.8591 11.4639C76.0991 11.5119 76.5431 11.5359 77.1911 11.5359C77.8511 11.5359 78.5711 11.5239 79.3511 11.4999C79.8311 11.4879 80.3831 11.4639 81.0071 11.4279C81.6431 11.3799 82.2971 11.3199 82.9691 11.2479C83.6531 11.1759 84.3071 11.0859 84.9311 10.9779C85.5671 10.8699 86.1311 10.7439 86.6231 10.5999C86.7071 10.5639 86.7611 10.5939 86.7851 10.6899L86.8751 11.1939C86.8991 11.3019 86.8871 11.3739 86.8391 11.4099C86.8031 11.4459 86.7491 11.4759 86.6771 11.4999C86.4731 11.5599 86.1611 11.6319 85.7411 11.7159C85.3331 11.7879 84.8591 11.8659 84.3191 11.9499C83.7911 12.0219 83.2391 12.0939 82.6631 12.1659C82.0991 12.2259 81.5531 12.2799 81.0251 12.3279C80.4971 12.3759 80.0351 12.4119 79.6391 12.4359C78.9911 12.4719 78.3731 12.5079 77.7851 12.5439C77.1971 12.5799 76.7051 12.6159 76.3091 12.6519Z" fill="black"/>
<path d="M109.203 16.1799C109.155 16.1799 109.131 16.1499 109.131 16.0899V8.18788C108.759 8.18788 108.375 8.19388 107.979 8.20588C107.583 8.20588 107.241 8.21788 106.953 8.24188V15.2619C106.953 15.4299 106.941 15.5379 106.917 15.5859C106.905 15.6219 106.869 15.6459 106.809 15.6579C106.737 15.6699 106.587 15.6819 106.359 15.6939C106.143 15.7059 106.005 15.7119 105.945 15.7119C105.897 15.7119 105.873 15.6819 105.873 15.6219V3.54388C105.873 3.08788 105.861 2.66788 105.837 2.28388C105.813 1.89988 105.771 1.64788 105.711 1.52788C105.687 1.46788 105.687 1.42588 105.711 1.40188C105.747 1.36588 105.789 1.34788 105.837 1.34788L106.899 1.36588C106.959 1.38988 106.989 1.43788 106.989 1.50988C106.965 1.85788 106.953 2.16988 106.953 2.44588C106.953 2.72188 106.953 3.00988 106.953 3.30988C106.953 3.38188 106.953 3.45988 106.953 3.54388C106.953 3.62788 106.953 3.71788 106.953 3.81388V7.21588C107.013 7.21588 107.073 7.21588 107.133 7.21588C107.193 7.21588 107.253 7.21588 107.313 7.21588C107.589 7.21588 107.883 7.21588 108.195 7.21588C108.519 7.21588 108.831 7.20388 109.131 7.17988V3.07588C109.131 2.61988 109.119 2.19988 109.095 1.81588C109.083 1.43188 109.047 1.17988 108.987 1.05988C108.963 0.999883 108.963 0.957883 108.987 0.933883C109.023 0.897883 109.065 0.879883 109.113 0.879883L110.175 0.897883C110.235 0.921883 110.265 0.969883 110.265 1.04188C110.241 1.40188 110.223 1.72588 110.211 2.01388C110.211 2.30188 110.211 2.60188 110.211 2.91388C110.211 2.98588 110.211 3.05788 110.211 3.12988C110.211 3.20188 110.211 3.27388 110.211 3.34588V15.7299C110.211 15.9099 110.199 16.0179 110.175 16.0539C110.163 16.0899 110.127 16.1139 110.067 16.1259C110.031 16.1259 109.947 16.1259 109.815 16.1259C109.695 16.1379 109.575 16.1499 109.455 16.1619C109.335 16.1739 109.251 16.1799 109.203 16.1799ZM99.2133 12.1659C98.9853 12.1779 98.8053 12.1119 98.6733 11.9679C98.5413 11.8119 98.4453 11.6139 98.3853 11.3739C98.3253 11.1339 98.2953 10.8879 98.2953 10.6359V4.89388C98.2953 4.47388 98.2653 4.10188 98.2053 3.77788C98.1573 3.45388 98.1033 3.23188 98.0433 3.11188C98.0073 3.03988 98.0073 2.97988 98.0433 2.93188C98.0793 2.88388 98.1213 2.85988 98.1693 2.85988C98.2413 2.85988 98.3853 2.86588 98.6013 2.87788C98.8293 2.88988 99.0453 2.90788 99.2493 2.93188C99.7053 2.93188 100.215 2.92588 100.779 2.91388C101.355 2.90188 101.913 2.87788 102.453 2.84188C102.993 2.80588 103.431 2.75788 103.767 2.69788C103.803 2.68588 103.845 2.69188 103.893 2.71588C103.941 2.72788 103.971 2.76388 103.983 2.82388C104.019 3.01588 104.043 3.15988 104.055 3.25588C104.067 3.35188 104.073 3.43588 104.073 3.50788C104.073 3.63988 104.001 3.70588 103.857 3.70588L101.859 3.74188C101.427 3.75388 101.031 3.76588 100.671 3.77788C100.311 3.78988 99.8913 3.80788 99.4113 3.83188V6.63988C100.659 6.62788 101.637 6.57988 102.345 6.49588C103.065 6.41188 103.449 6.36388 103.497 6.35188C103.629 6.32788 103.707 6.33388 103.731 6.36988C103.767 6.40588 103.791 6.45388 103.803 6.51388C103.827 6.59788 103.845 6.68788 103.857 6.78388C103.869 6.87988 103.881 6.98788 103.893 7.10788C103.905 7.16788 103.893 7.22188 103.857 7.26988C103.833 7.30588 103.749 7.32388 103.605 7.32388C103.485 7.32388 103.269 7.32988 102.957 7.34188C102.657 7.34188 102.297 7.34788 101.877 7.35988C101.469 7.37188 101.049 7.38988 100.617 7.41388C100.185 7.42588 99.7833 7.43788 99.4113 7.44988V10.0959C99.4113 10.3239 99.4293 10.5459 99.4653 10.7619C99.5013 10.9659 99.6213 11.0679 99.8253 11.0679C100.461 11.0679 101.121 11.0139 101.805 10.9059C102.501 10.7859 103.143 10.6419 103.731 10.4739C104.319 10.2939 104.763 10.1259 105.063 9.96988C105.159 9.90988 105.219 9.93988 105.243 10.0599L105.333 10.6539C105.357 10.8099 105.297 10.9119 105.153 10.9599C104.841 11.0799 104.397 11.2299 103.821 11.4099C103.257 11.5779 102.585 11.7339 101.805 11.8779C101.025 12.0219 100.161 12.1179 99.2133 12.1659Z" fill="black"/>
<path d="M117.621 10.5999C116.889 10.6119 116.217 10.4619 115.605 10.1499C114.993 9.83788 114.501 9.39388 114.129 8.81788C113.769 8.22988 113.589 7.55788 113.589 6.80188C113.589 6.06988 113.769 5.41588 114.129 4.83988C114.489 4.25188 114.975 3.78388 115.587 3.43588C116.211 3.07588 116.895 2.88988 117.639 2.87788C118.383 2.85388 119.055 2.98588 119.655 3.27388C120.267 3.56188 120.753 3.98788 121.113 4.55188C121.473 5.11588 121.653 5.81188 121.653 6.63988C121.653 7.38388 121.473 8.04988 121.113 8.63788C120.753 9.22588 120.267 9.69388 119.655 10.0419C119.043 10.3899 118.365 10.5759 117.621 10.5999ZM117.639 9.57388C118.167 9.54988 118.647 9.41788 119.079 9.17788C119.511 8.92588 119.853 8.58388 120.105 8.15188C120.369 7.70788 120.501 7.20988 120.501 6.65788C120.501 6.04588 120.369 5.52388 120.105 5.09188C119.853 4.65988 119.511 4.33588 119.079 4.11988C118.647 3.89188 118.167 3.78988 117.639 3.81388C117.111 3.82588 116.625 3.96388 116.181 4.22788C115.737 4.47988 115.383 4.82788 115.119 5.27188C114.855 5.70388 114.723 6.20788 114.723 6.78388C114.723 7.38388 114.855 7.89388 115.119 8.31388C115.395 8.73388 115.755 9.05188 116.199 9.26788C116.643 9.48388 117.123 9.58588 117.639 9.57388ZM124.425 16.1799C124.377 16.1799 124.353 16.1499 124.353 16.0899V3.09388C124.353 2.63788 124.335 2.21788 124.299 1.83388C124.275 1.43788 124.233 1.17988 124.173 1.05988C124.149 0.999883 124.149 0.957883 124.173 0.933883C124.209 0.897883 124.251 0.879883 124.299 0.879883C124.371 0.879883 124.491 0.885883 124.659 0.897883C124.839 0.897883 125.013 0.903883 125.181 0.915882C125.349 0.915882 125.445 0.915882 125.469 0.915882C125.529 0.915882 125.559 0.963882 125.559 1.05988C125.523 1.50388 125.499 1.89388 125.487 2.22988C125.487 2.55388 125.487 2.93188 125.487 3.36388V7.57588C125.811 7.57588 126.159 7.56388 126.531 7.53988C126.915 7.50388 127.269 7.46788 127.593 7.43188C127.929 7.38388 128.181 7.33588 128.349 7.28788C128.457 7.27588 128.517 7.31188 128.529 7.39588C128.553 7.55188 128.571 7.70788 128.583 7.86388C128.595 8.01988 128.607 8.17588 128.619 8.33188C128.619 8.46388 128.565 8.52988 128.457 8.52988C128.277 8.50588 128.013 8.49388 127.665 8.49388C127.329 8.49388 126.969 8.49388 126.585 8.49388C126.201 8.49388 125.835 8.49988 125.487 8.51188V15.7299C125.487 15.9099 125.475 16.0179 125.451 16.0539C125.439 16.0899 125.403 16.1139 125.343 16.1259L124.425 16.1799Z" fill="black"/>
<path d="M130.485 12.5619C130.353 12.5739 130.269 12.5679 130.233 12.5439C130.197 12.5199 130.161 12.4539 130.125 12.3459C130.077 12.2139 130.035 12.0939 129.999 11.9859C129.975 11.8659 129.939 11.7039 129.891 11.4999C129.879 11.4759 129.885 11.4459 129.909 11.4099C129.933 11.3739 129.975 11.3619 130.035 11.3739C130.275 11.4219 130.719 11.4459 131.367 11.4459C132.027 11.4459 132.747 11.4339 133.527 11.4099C133.671 11.4099 133.821 11.4099 133.977 11.4099C134.133 11.3979 134.295 11.3859 134.463 11.3739L134.427 8.61988C133.803 8.57188 133.233 8.40388 132.717 8.11588C132.201 7.82788 131.787 7.44988 131.475 6.98188C131.175 6.50188 131.025 5.96188 131.025 5.36188C131.025 4.73788 131.199 4.17388 131.547 3.66988C131.907 3.15388 132.387 2.74588 132.987 2.44588C133.587 2.13388 134.241 1.97188 134.949 1.95988C135.657 1.93588 136.305 2.05588 136.893 2.31988C137.493 2.57188 137.973 2.94388 138.333 3.43588C138.693 3.92788 138.873 4.52188 138.873 5.21788C138.873 5.79388 138.723 6.31588 138.423 6.78388C138.135 7.25188 137.739 7.64188 137.235 7.95388C136.743 8.26588 136.191 8.46988 135.579 8.56588L135.525 11.3019C136.365 11.2299 137.217 11.1339 138.081 11.0139C138.957 10.8819 139.743 10.7139 140.439 10.5099C140.523 10.4739 140.577 10.5039 140.601 10.5999L140.691 11.1039C140.715 11.2119 140.703 11.2839 140.655 11.3199C140.619 11.3559 140.565 11.3859 140.493 11.4099C140.241 11.4939 139.845 11.5839 139.305 11.6799C138.765 11.7759 138.165 11.8719 137.505 11.9679C136.845 12.0639 136.185 12.1479 135.525 12.2199C134.877 12.2799 134.307 12.3219 133.815 12.3459C133.167 12.3819 132.549 12.4179 131.961 12.4539C131.373 12.4899 130.881 12.5259 130.485 12.5619ZM134.949 7.71988C135.741 7.68388 136.383 7.44988 136.875 7.01788C137.379 6.57388 137.631 5.97388 137.631 5.21788C137.631 4.41388 137.379 3.81388 136.875 3.41788C136.371 3.00988 135.723 2.82388 134.931 2.85988C134.139 2.90788 133.485 3.14788 132.969 3.57988C132.453 4.01188 132.195 4.59988 132.195 5.34388C132.195 6.12388 132.453 6.72388 132.969 7.14388C133.497 7.55188 134.157 7.74388 134.949 7.71988ZM141.267 16.1799C141.219 16.1799 141.195 16.1499 141.195 16.0899V3.07588C141.195 2.61988 141.177 2.19988 141.141 1.81588C141.117 1.43188 141.075 1.17988 141.015 1.05988C140.991 0.999883 140.991 0.957883 141.015 0.933883C141.051 0.897883 141.093 0.879883 141.141 0.879883L142.311 0.897883C142.371 0.921883 142.401 0.969883 142.401 1.04188C142.365 1.48588 142.341 1.87588 142.329 2.21188C142.329 2.53588 142.329 2.91388 142.329 3.34588V8.02588C142.653 8.02588 143.001 8.01388 143.373 7.98988C143.757 7.95388 144.111 7.91788 144.435 7.88188C144.759 7.83388 145.005 7.78588 145.173 7.73788C145.281 7.72588 145.341 7.76188 145.353 7.84588C145.377 8.00188 145.395 8.15788 145.407 8.31388C145.419 8.46988 145.431 8.62588 145.443 8.78188C145.443 8.91388 145.389 8.97988 145.281 8.97988C145.077 8.95588 144.789 8.94388 144.417 8.94388C144.045 8.94388 143.655 8.94988 143.247 8.96188C143.091 8.96188 142.935 8.96188 142.779 8.96188C142.623 8.96188 142.473 8.96188 142.329 8.96188V15.7299C142.329 15.9099 142.317 16.0179 142.293 16.0539C142.281 16.0899 142.245 16.1139 142.185 16.1259C142.149 16.1259 142.065 16.1259 141.933 16.1259C141.801 16.1379 141.669 16.1499 141.537 16.1619C141.405 16.1739 141.315 16.1799 141.267 16.1799Z" fill="black"/>
<path d="M160.833 17.5299C160.077 17.5299 159.405 17.3919 158.817 17.1159C158.241 16.8519 157.785 16.4859 157.449 16.0179C157.125 15.5499 156.963 15.0099 156.963 14.3979C156.963 13.8099 157.143 13.2759 157.503 12.7959C157.863 12.3159 158.343 11.9379 158.943 11.6619C159.543 11.3739 160.197 11.2299 160.905 11.2299C161.625 11.2299 162.279 11.3499 162.867 11.5899C163.467 11.8179 163.941 12.1659 164.289 12.6339C164.649 13.0899 164.817 13.6539 164.793 14.3259C164.781 14.9499 164.595 15.5019 164.235 15.9819C163.887 16.4619 163.413 16.8399 162.813 17.1159C162.225 17.3919 161.565 17.5299 160.833 17.5299ZM160.869 16.5939C161.625 16.5699 162.261 16.3659 162.777 15.9819C163.305 15.5979 163.581 15.0399 163.605 14.3079C163.629 13.8279 163.515 13.4259 163.263 13.1019C163.023 12.7779 162.693 12.5319 162.273 12.3639C161.865 12.1839 161.403 12.0939 160.887 12.0939C160.383 12.1059 159.921 12.2139 159.501 12.4179C159.081 12.6099 158.745 12.8739 158.493 13.2099C158.241 13.5459 158.115 13.9359 158.115 14.3799C158.115 14.8359 158.235 15.2319 158.475 15.5679C158.727 15.8919 159.063 16.1439 159.483 16.3239C159.903 16.5039 160.365 16.5939 160.869 16.5939ZM152.679 10.2219L152.229 9.82588C152.181 9.77788 152.199 9.72388 152.283 9.66388C152.295 9.65188 152.301 9.64588 152.301 9.64588C152.973 9.20188 153.609 8.66188 154.209 8.02588C154.821 7.37788 155.361 6.69988 155.829 5.99188C156.297 5.27188 156.645 4.58188 156.873 3.92188C156.969 3.71788 157.053 3.48388 157.125 3.21988C157.197 2.94388 157.251 2.67988 157.287 2.42788C157.323 2.17588 157.341 1.97188 157.341 1.81588C157.341 1.70788 157.401 1.65988 157.521 1.67188C157.653 1.69588 157.839 1.74388 158.079 1.81588C158.319 1.88788 158.529 1.95388 158.709 2.01388C158.781 2.04988 158.799 2.11588 158.763 2.21188C158.679 2.45188 158.565 2.76388 158.421 3.14788C158.289 3.53188 158.163 3.86788 158.043 4.15588C157.983 4.29988 157.911 4.45588 157.827 4.62388C157.755 4.77988 157.671 4.94188 157.575 5.10988C157.935 5.37388 158.313 5.66188 158.709 5.97388C159.117 6.27388 159.507 6.57388 159.879 6.87388C160.263 7.16188 160.599 7.42588 160.887 7.66588C161.175 7.90588 161.385 8.09188 161.517 8.22388C161.565 8.25988 161.601 8.31988 161.625 8.40388C161.661 8.47588 161.649 8.55388 161.589 8.63788C161.541 8.70988 161.427 8.82388 161.247 8.97988C161.079 9.13588 160.959 9.24988 160.887 9.32188C160.791 9.38188 160.719 9.36988 160.671 9.28588C160.467 8.97388 160.161 8.60788 159.753 8.18788C159.357 7.76788 158.925 7.34788 158.457 6.92788C158.001 6.49588 157.575 6.12988 157.179 5.82988C156.771 6.50188 156.249 7.21588 155.613 7.97188C154.977 8.72788 154.185 9.46588 153.237 10.1859C153.177 10.2339 153.099 10.2759 153.003 10.3119C152.907 10.3479 152.799 10.3179 152.679 10.2219ZM163.569 10.9779C163.521 10.9779 163.497 10.9479 163.497 10.8879V3.07588C163.497 2.61988 163.479 2.19988 163.443 1.81588C163.419 1.43188 163.377 1.17988 163.317 1.05988C163.293 0.999883 163.293 0.957883 163.317 0.933883C163.353 0.897883 163.395 0.879883 163.443 0.879883C163.575 0.879883 163.755 0.879883 163.983 0.879883C164.211 0.879883 164.421 0.885883 164.613 0.897883C164.673 0.897883 164.703 0.945883 164.703 1.04188C164.667 1.48588 164.643 1.87588 164.631 2.21188C164.631 2.53588 164.631 2.91388 164.631 3.34588V5.70388C164.955 5.70388 165.309 5.69188 165.693 5.66788C166.077 5.64388 166.431 5.61388 166.755 5.57788C167.091 5.54188 167.343 5.49988 167.511 5.45188C167.619 5.43988 167.679 5.47588 167.691 5.55988C167.715 5.71588 167.727 5.87188 167.727 6.02788C167.739 6.18388 167.751 6.33988 167.763 6.49588C167.763 6.62788 167.709 6.69388 167.601 6.69388C167.433 6.66988 167.175 6.65788 166.827 6.65788C166.479 6.64588 166.107 6.63988 165.711 6.63988C165.327 6.63988 164.967 6.65188 164.631 6.67588V10.5279C164.631 10.7079 164.619 10.8159 164.595 10.8519C164.583 10.8879 164.547 10.9119 164.487 10.9239L163.569 10.9779Z" fill="black"/>
<path d="M178.292 15.7119C178.244 15.7119 178.22 15.6819 178.22 15.6219V6.85588L177.68 6.87388C177.392 6.88588 177.05 6.90988 176.654 6.94588C176.258 6.96988 175.916 6.99388 175.628 7.01788C175.496 7.02988 175.412 7.02388 175.376 6.99988C175.352 6.97588 175.334 6.93388 175.322 6.87388C175.31 6.86188 175.304 6.84988 175.304 6.83788L175.16 6.08188C175.16 6.05788 175.166 6.02788 175.178 5.99188C175.19 5.95588 175.226 5.94388 175.286 5.95588C175.466 5.97988 175.718 5.99788 176.042 6.00988C176.366 6.02188 176.72 6.02188 177.104 6.00988C177.5 5.99788 177.872 5.98588 178.22 5.97388V3.54388C178.22 3.08788 178.208 2.66788 178.184 2.28388C178.16 1.89988 178.118 1.64788 178.058 1.52788C178.034 1.46788 178.034 1.42588 178.058 1.40188C178.094 1.36588 178.136 1.34788 178.184 1.34788L179.246 1.36588C179.306 1.38988 179.336 1.43788 179.336 1.50988C179.312 1.85788 179.3 2.16988 179.3 2.44588C179.3 2.72188 179.3 3.00988 179.3 3.30988C179.3 3.38188 179.3 3.45988 179.3 3.54388C179.3 3.62788 179.3 3.71788 179.3 3.81388V15.2619C179.3 15.4419 179.288 15.5499 179.264 15.5859C179.252 15.6219 179.216 15.6459 179.156 15.6579C179.12 15.6579 179.036 15.6639 178.904 15.6759C178.784 15.6759 178.664 15.6819 178.544 15.6939C178.424 15.7059 178.34 15.7119 178.292 15.7119ZM168.932 11.5719L168.518 11.1939C168.47 11.1459 168.488 11.0919 168.572 11.0319C168.584 11.0199 168.59 11.0139 168.59 11.0139C169.07 10.6659 169.538 10.2399 169.994 9.73588C170.462 9.21988 170.894 8.66788 171.29 8.07988C171.686 7.49188 172.028 6.89788 172.316 6.29788C172.604 5.69788 172.814 5.13388 172.946 4.60588C173.042 4.24588 173.12 3.87388 173.18 3.48988C173.24 3.09388 173.27 2.77588 173.27 2.53588C173.27 2.40388 173.324 2.34988 173.432 2.37388L174.602 2.66188C174.674 2.67388 174.704 2.73988 174.692 2.85988L174.116 4.78588C174.044 5.03788 173.936 5.34388 173.792 5.70388C173.648 6.06388 173.462 6.46588 173.234 6.90988C173.69 7.30588 174.164 7.73188 174.656 8.18788C175.148 8.64388 175.592 9.06388 175.988 9.44788C176.384 9.83188 176.66 10.1199 176.816 10.3119C176.852 10.3479 176.882 10.4079 176.906 10.4919C176.942 10.5759 176.918 10.6539 176.834 10.7259C176.726 10.8459 176.612 10.9599 176.492 11.0679C176.372 11.1759 176.246 11.2719 176.114 11.3559C176.054 11.4159 175.994 11.4039 175.934 11.3199C175.766 10.9959 175.502 10.6119 175.142 10.1679C174.794 9.72388 174.41 9.27388 173.99 8.81788C173.582 8.36188 173.192 7.96588 172.82 7.62988C172.46 8.24188 172.01 8.88388 171.47 9.55588C170.93 10.2279 170.27 10.8939 169.49 11.5539C169.43 11.6139 169.352 11.6559 169.256 11.6799C169.16 11.7039 169.052 11.6679 168.932 11.5719ZM181.19 16.1799C181.142 16.1799 181.118 16.1499 181.118 16.0899V3.07588C181.118 2.61988 181.106 2.19988 181.082 1.81588C181.07 1.43188 181.034 1.17988 180.974 1.05988C180.95 0.999883 180.95 0.957883 180.974 0.933883C181.01 0.897883 181.052 0.879883 181.1 0.879883L182.162 0.897883C182.222 0.921883 182.252 0.969883 182.252 1.04188C182.228 1.40188 182.21 1.72588 182.198 2.01388C182.198 2.30188 182.198 2.60188 182.198 2.91388C182.198 2.98588 182.198 3.05788 182.198 3.12988C182.198 3.20188 182.198 3.27388 182.198 3.34588V15.7299C182.198 15.9099 182.186 16.0179 182.162 16.0539C182.15 16.0899 182.114 16.1139 182.054 16.1259C182.018 16.1259 181.934 16.1259 181.802 16.1259C181.682 16.1379 181.562 16.1499 181.442 16.1619C181.322 16.1739 181.238 16.1799 181.19 16.1799Z" fill="black"/>
<path d="M194.725 7.80988C194.701 7.80988 194.671 7.80388 194.635 7.79188C194.599 7.77988 194.581 7.74388 194.581 7.68388C194.581 7.62388 194.575 7.40788 194.563 7.03588C194.563 6.66388 194.557 6.17788 194.545 5.57788C194.533 4.97788 194.515 4.31188 194.491 3.57988C194.479 3.03988 194.443 2.57788 194.383 2.19388C194.323 1.80988 194.275 1.55788 194.239 1.43788C194.203 1.31788 194.245 1.25788 194.365 1.25788H195.553C195.613 1.25788 195.643 1.29988 195.643 1.38388C195.631 1.69588 195.619 2.04388 195.607 2.42788C195.607 2.79988 195.613 3.14188 195.625 3.45388C195.925 3.46588 196.339 3.47188 196.867 3.47188C197.407 3.47188 197.989 3.46588 198.613 3.45388C199.237 3.44188 199.843 3.42388 200.431 3.39988C201.031 3.37588 201.541 3.34588 201.961 3.30988V2.87788C201.961 2.42188 201.943 2.05588 201.907 1.77988C201.871 1.49188 201.829 1.28188 201.781 1.14988C201.757 1.08988 201.757 1.04788 201.781 1.02388C201.817 0.987883 201.859 0.969883 201.907 0.969883L203.023 0.987882C203.095 0.987882 203.131 1.03588 203.131 1.13188C203.119 1.45588 203.107 1.71388 203.095 1.90588C203.083 2.09788 203.077 2.28388 203.077 2.46388C203.077 2.64388 203.077 2.87788 203.077 3.16588V7.37788C203.077 7.53388 202.987 7.61188 202.807 7.61188C201.235 7.61188 199.819 7.62988 198.559 7.66588C197.311 7.68988 196.363 7.70788 195.715 7.71988L194.725 7.80988ZM198.703 13.9839C198.655 13.9839 198.631 13.9539 198.631 13.8939V10.6179C198.331 10.6299 198.043 10.6359 197.767 10.6359C197.503 10.6359 197.263 10.6419 197.047 10.6539C195.835 10.6899 194.743 10.7319 193.771 10.7799C192.799 10.8279 192.049 10.8819 191.521 10.9419C191.389 10.9539 191.299 10.9419 191.251 10.9059C191.203 10.8699 191.167 10.8159 191.143 10.7439C191.095 10.6119 191.053 10.4799 191.017 10.3479C190.981 10.2159 190.939 10.0479 190.891 9.84388C190.879 9.81988 190.885 9.78988 190.909 9.75388C190.933 9.70588 190.975 9.68788 191.035 9.69988C191.491 9.75988 192.115 9.80788 192.907 9.84388C193.699 9.86788 194.569 9.87388 195.517 9.86188C196.249 9.86188 197.029 9.85588 197.857 9.84388C198.685 9.81988 199.507 9.79588 200.323 9.77188C201.151 9.73588 201.931 9.69988 202.663 9.66388C203.407 9.62788 204.061 9.58588 204.625 9.53788C205.201 9.48988 205.645 9.43588 205.957 9.37588C206.077 9.35188 206.155 9.35788 206.191 9.39388C206.227 9.42988 206.251 9.47788 206.263 9.53788L206.371 10.3299C206.383 10.4979 206.269 10.5759 206.029 10.5639C205.657 10.5399 205.153 10.5279 204.517 10.5279C203.893 10.5279 203.215 10.5339 202.483 10.5459C202.039 10.5459 201.583 10.5519 201.115 10.5639C200.659 10.5639 200.209 10.5699 199.765 10.5819V13.7139C199.765 13.8459 199.717 13.9179 199.621 13.9299L198.703 13.9839ZM195.715 6.80188C196.111 6.81388 196.573 6.81988 197.101 6.81988C197.629 6.81988 198.181 6.81988 198.757 6.81988C199.333 6.80788 199.897 6.78988 200.449 6.76588C201.013 6.74188 201.517 6.71188 201.961 6.67588V4.24588C201.109 4.25788 200.275 4.26988 199.459 4.28188C198.643 4.29388 197.905 4.30588 197.245 4.31788C196.585 4.32988 196.051 4.34788 195.643 4.37188L195.715 6.80188ZM196.003 16.8999C195.583 16.8999 195.265 16.7379 195.049 16.4139C194.833 16.0899 194.725 15.6819 194.725 15.1899V14.2179C194.725 13.8339 194.701 13.5099 194.653 13.2459C194.617 12.9819 194.581 12.7899 194.545 12.6699C194.509 12.5499 194.551 12.4899 194.671 12.4899C194.731 12.4899 194.845 12.4959 195.013 12.5079C195.193 12.5079 195.361 12.5139 195.517 12.5259C195.685 12.5379 195.781 12.5439 195.805 12.5439C195.865 12.5559 195.895 12.6159 195.895 12.7239C195.883 12.9999 195.871 13.2399 195.859 13.4439C195.859 13.6359 195.859 13.8699 195.859 14.1459V15.1359C195.859 15.4479 195.895 15.6639 195.967 15.7839C196.051 15.8919 196.207 15.9519 196.435 15.9639C196.771 15.9759 197.197 15.9879 197.713 15.9999C198.229 15.9999 198.763 15.9939 199.315 15.9819C199.879 15.9699 200.401 15.9519 200.881 15.9279C201.385 15.9039 201.895 15.8679 202.411 15.8199C202.939 15.7599 203.353 15.6999 203.653 15.6399C203.773 15.6159 203.851 15.6219 203.887 15.6579C203.923 15.6939 203.947 15.7419 203.959 15.8019L204.103 16.6119C204.115 16.7439 204.025 16.8099 203.833 16.8099C202.645 16.8099 201.391 16.8219 200.071 16.8459C198.763 16.8819 197.407 16.8999 196.003 16.8999Z" fill="black"/>
<path d="M208.296 9.86188L207.846 9.46588C207.798 9.41788 207.823 9.35788 207.919 9.28588C208.59 8.84188 209.221 8.32588 209.809 7.73788C210.396 7.14988 210.912 6.52588 211.356 5.86588C211.8 5.20588 212.142 4.54588 212.382 3.88588C212.514 3.56188 212.622 3.20188 212.706 2.80588C212.79 2.39788 212.839 2.07388 212.85 1.83388C212.85 1.72588 212.911 1.67788 213.031 1.68988C213.163 1.71388 213.348 1.76188 213.589 1.83388C213.84 1.90588 214.057 1.97188 214.236 2.03188C214.309 2.06788 214.326 2.13388 214.29 2.22988C214.206 2.46988 214.098 2.77588 213.966 3.14788C213.834 3.50788 213.702 3.83188 213.57 4.11988C213.486 4.31188 213.391 4.50388 213.283 4.69588C213.187 4.88788 213.085 5.08588 212.977 5.28988C213.445 5.64988 213.924 6.04588 214.417 6.47788C214.921 6.90988 215.37 7.31188 215.766 7.68388C216.174 8.04388 216.462 8.31988 216.63 8.51188C216.678 8.55988 216.714 8.61988 216.738 8.69188C216.762 8.76388 216.744 8.84188 216.684 8.92588C216.66 8.96188 216.594 9.02788 216.486 9.12388C216.391 9.21988 216.288 9.30988 216.18 9.39388C216.085 9.47788 216.012 9.53788 215.964 9.57388C215.868 9.63388 215.797 9.62188 215.749 9.53788C215.533 9.20188 215.238 8.81188 214.867 8.36788C214.495 7.92388 214.105 7.48588 213.697 7.05388C213.288 6.62188 212.904 6.26188 212.544 5.97388C212.136 6.56188 211.638 7.18588 211.05 7.84588C210.462 8.49388 209.73 9.15388 208.854 9.82588C208.794 9.87388 208.716 9.91588 208.62 9.95188C208.525 9.98788 208.416 9.95788 208.296 9.86188ZM219.654 17.3499C219.606 17.3499 219.583 17.3199 219.583 17.2599V12.5259C219.583 12.4419 219.57 12.3879 219.546 12.3639C219.535 12.3399 219.475 12.3279 219.367 12.3279C219.09 12.3279 218.706 12.3339 218.214 12.3459C217.722 12.3579 217.201 12.3759 216.648 12.3999C216.096 12.4119 215.575 12.4299 215.083 12.4539C214.603 12.4659 214.236 12.4779 213.984 12.4899C213.684 12.5139 213.354 12.5379 212.994 12.5619C212.646 12.5859 212.322 12.6099 212.022 12.6339C211.902 12.6459 211.824 12.6339 211.788 12.5979C211.753 12.5499 211.723 12.4959 211.699 12.4359C211.687 12.4239 211.68 12.4119 211.68 12.3999L211.501 11.6259C211.489 11.6019 211.494 11.5719 211.518 11.5359C211.542 11.4999 211.585 11.4879 211.645 11.4999C211.837 11.5239 212.184 11.5419 212.688 11.5539C213.204 11.5659 213.792 11.5719 214.452 11.5719C215.113 11.5599 215.779 11.5419 216.451 11.5179C217.122 11.4939 217.729 11.4639 218.268 11.4279C218.808 11.3799 219.198 11.3259 219.438 11.2659C219.45 11.2659 219.468 11.2599 219.492 11.2479C219.516 11.2479 219.54 11.2479 219.564 11.2479C219.589 11.2359 219.63 11.2359 219.69 11.2479L220.753 11.4099C220.812 11.4219 220.842 11.4459 220.842 11.4819C220.854 11.5059 220.861 11.5299 220.861 11.5539C220.861 11.5659 220.861 11.5719 220.861 11.5719C220.825 11.9079 220.794 12.2499 220.77 12.5979C220.758 12.9459 220.753 13.2639 220.753 13.5519L220.734 17.0079C220.734 17.1519 220.704 17.2359 220.645 17.2599C220.596 17.2839 220.542 17.3019 220.482 17.3139L219.654 17.3499ZM219.727 10.2219C219.678 10.2219 219.654 10.1919 219.654 10.1319V5.55988C219.438 5.57188 219.229 5.58388 219.025 5.59588C218.821 5.60788 218.628 5.61988 218.449 5.63188C218.161 5.64388 217.83 5.67388 217.458 5.72188C217.087 5.75788 216.756 5.79388 216.468 5.82988C216.336 5.85388 216.247 5.84788 216.199 5.81188C216.15 5.77588 216.115 5.72188 216.09 5.64988C216.042 5.49388 216 5.34988 215.964 5.21788C215.94 5.07388 215.917 4.94188 215.893 4.82188C215.893 4.72588 215.941 4.68988 216.036 4.71388C216.229 4.73788 216.528 4.75588 216.936 4.76788C217.356 4.76788 217.812 4.76188 218.305 4.74988C218.797 4.72588 219.246 4.70188 219.654 4.67788V3.07588C219.654 2.61988 219.636 2.19988 219.6 1.81588C219.576 1.43188 219.535 1.17988 219.475 1.05988C219.451 0.999883 219.451 0.957883 219.475 0.933883C219.51 0.897883 219.552 0.879883 219.6 0.879883C219.72 0.879883 219.895 0.879883 220.122 0.879883C220.363 0.879883 220.578 0.885883 220.77 0.897883C220.83 0.897883 220.861 0.945883 220.861 1.04188C220.825 1.48588 220.8 1.87588 220.788 2.21188C220.788 2.53588 220.788 2.91388 220.788 3.34588V9.77188C220.788 9.95188 220.777 10.0599 220.753 10.0959C220.741 10.1319 220.704 10.1559 220.645 10.1679L219.727 10.2219Z" fill="black"/>
</g>
<defs>
<filter id="filter0_d_283_150" x="0.605591" y="0.879883" width="224.255" height="24.6499" filterUnits="userSpaceOnUse" color-interpolation-filters="sRGB">
<feFlood flood-opacity="0" result="BackgroundImageFix"/>
<feColorMatrix in="SourceAlpha" type="matrix" values="0 0 0 0 0 0 0 0 0 0 0 0 0 0 0 0 0 0 127 0" result="hardAlpha"/>
<feOffset dy="4"/>
<feGaussianBlur stdDeviation="2"/>
<feComposite in2="hardAlpha" operator="out"/>
<feColorMatrix type="matrix" values="0 0 0 0 0 0 0 0 0 0 0 0 0 0 0 0 0 0 0.25 0"/>
<feBlend mode="normal" in2="BackgroundImageFix" result="effect1_dropShadow_283_150"/>
<feBlend mode="normal" in="SourceGraphic" in2="effect1_dropShadow_283_150" result="shape"/>
</filter>
</defs>
</svg>
