<svg width="107" height="18" viewBox="0 0 107 18" fill="none" xmlns="http://www.w3.org/2000/svg">
<path d="M14.4033 1.36333C14.4433 1.45667 14.4767 1.57667 14.5033 1.72333C14.53 1.87 14.55 2.01667 14.5633 2.16333C14.5767 2.29667 14.5833 2.42333 14.5833 2.54333C14.5833 2.66333 14.5833 2.73667 14.5833 2.76333V9.26333C14.5833 9.27667 14.5767 9.33 14.5633 9.42333C14.55 9.50333 14.5167 9.60333 14.4633 9.72333C14.4233 9.84333 14.3567 9.96333 14.2633 10.0833C14.1833 10.2033 14.0767 10.3033 13.9433 10.3833C13.7567 10.5033 13.5633 10.5633 13.3633 10.5633C13.0967 10.5633 12.8633 10.4833 12.6633 10.3233C12.5033 10.23 12.3833 10.0967 12.3033 9.92333C12.21 9.76333 12.15 9.60333 12.1233 9.44333C12.0967 9.28333 12.0767 9.13 12.0633 8.98333V8.40333H12.0033C11.8167 8.40333 11.6233 8.40333 11.4233 8.40333C11.2233 8.39 11.03 8.37667 10.8433 8.36333C10.6567 8.33667 10.4767 8.30333 10.3033 8.26333C10.1433 8.21 10.0033 8.14333 9.88333 8.06333C9.91 8.21 9.89667 8.37 9.84333 8.54333C9.80333 8.70333 9.74333 8.83667 9.66333 8.94333C9.54333 9.09 9.40333 9.19667 9.24333 9.26333C9.09667 9.31667 8.93667 9.35667 8.76333 9.38333C8.60333 9.41 8.43667 9.42333 8.26333 9.42333C8.09 9.41 7.92333 9.40333 7.76333 9.40333H1.52333C1.25667 9.40333 0.976667 9.36333 0.683333 9.28333C0.39 9.20333 0.19 9.03 0.0833334 8.76333C0.0166667 8.57667 -0.01 8.35 0.00333334 8.08333C0.03 7.81667 0.123333 7.61667 0.283333 7.48333C0.376667 7.39 0.49 7.33667 0.623333 7.32333C0.756667 7.31 0.883333 7.30333 1.00333 7.30333C1.09667 7.30333 1.18333 7.31 1.26333 7.32333C1.35667 7.32333 1.45 7.32333 1.54333 7.32333C1.59667 7.32333 1.63667 7.32333 1.66333 7.32333C1.70333 7.32333 1.72333 7.29 1.72333 7.22333C1.75 7.07667 1.75667 6.93667 1.74333 6.80333C1.73 6.65667 1.72333 6.51 1.72333 6.36333V4.90333C1.72333 4.75667 1.72333 4.61 1.72333 4.46333C1.73667 4.30333 1.74333 4.15 1.74333 4.00333C1.74333 3.99 1.74333 3.95667 1.74333 3.90333C1.74333 3.83667 1.74333 3.77667 1.74333 3.72333C1.74333 3.65667 1.74333 3.59667 1.74333 3.54333C1.74333 3.49 1.74333 3.46333 1.74333 3.46333C1.63667 3.46333 1.53 3.46333 1.42333 3.46333C1.33 3.45 1.23 3.43667 1.12333 3.42333C0.87 3.39667 0.663333 3.33 0.503333 3.22333C0.343333 3.10333 0.236667 2.91 0.183333 2.64333C0.156667 2.51 0.143333 2.37667 0.143333 2.24333C0.143333 2.09667 0.176667 1.95667 0.243333 1.82333C0.35 1.62333 0.523333 1.49 0.763333 1.42333C0.936667 1.35667 1.11 1.33667 1.28333 1.36333C1.45667 1.37667 1.63 1.37667 1.80333 1.36333C2.03 1.35 2.24333 1.34333 2.44333 1.34333C2.65667 1.33 2.87667 1.32333 3.10333 1.32333C3.31667 1.31 3.52333 1.30333 3.72333 1.30333C3.92333 1.30333 4.13667 1.30333 4.36333 1.30333H7.96333C8.15 1.30333 8.33 1.31667 8.50333 1.34333C8.69 1.35667 8.87 1.39667 9.04333 1.46333C9.33667 1.55667 9.53667 1.75667 9.64333 2.06333C9.73667 2.26333 9.76333 2.47 9.72333 2.68333C9.68333 2.88333 9.57 3.04333 9.38333 3.16333C9.14333 3.32333 8.87667 3.39667 8.58333 3.38333C8.30333 3.37 8.03 3.37667 7.76333 3.40333C7.77667 3.57667 7.78333 3.83667 7.78333 4.18333C7.79667 4.53 7.81 4.89667 7.82333 5.28333C7.83667 5.67 7.84333 6.04333 7.84333 6.40333C7.85667 6.76333 7.86333 7.05 7.86333 7.26333C7.99667 7.26333 8.13667 7.26333 8.28333 7.26333C8.44333 7.25 8.59667 7.24333 8.74333 7.24333C8.90333 7.24333 9.05 7.26333 9.18333 7.30333C9.33 7.33 9.46333 7.39 9.58333 7.48333C9.55667 7.36333 9.55 7.24333 9.56333 7.12333C9.57667 7.00333 9.59667 6.89667 9.62333 6.80333C9.66333 6.64333 9.74333 6.51 9.86333 6.40333C9.98333 6.29667 10.1833 6.21 10.4633 6.14333C10.5167 6.13 10.6167 6.12333 10.7633 6.12333C10.9233 6.11 11.0833 6.09667 11.2433 6.08333C11.4167 6.07 11.5767 6.06333 11.7233 6.06333C11.8833 6.05 11.9967 6.04333 12.0633 6.04333V5.14333C11.8633 5.14333 11.6367 5.15 11.3833 5.16333C11.1433 5.16333 10.91 5.15667 10.6833 5.14333C10.47 5.11667 10.27 5.07667 10.0833 5.02333C9.91 4.97 9.78333 4.87667 9.70333 4.74333C9.66333 4.67667 9.63 4.59 9.60333 4.48333C9.59 4.37667 9.57667 4.27 9.56333 4.16333C9.56333 4.04333 9.57 3.93 9.58333 3.82333C9.59667 3.71667 9.61 3.62333 9.62333 3.54333C9.66333 3.39667 9.74333 3.27 9.86333 3.16333C9.98333 3.05667 10.1833 2.97 10.4633 2.90333C10.5033 2.89 10.5833 2.88333 10.7033 2.88333C10.8367 2.87 10.9833 2.86333 11.1433 2.86333C11.3033 2.85 11.4633 2.84333 11.6233 2.84333C11.7967 2.83 11.9433 2.82333 12.0633 2.82333C12.05 2.70333 12.05 2.53667 12.0633 2.32333C12.0767 2.11 12.0967 1.95 12.1233 1.84333C12.1633 1.73667 12.1967 1.63 12.2233 1.52333C12.25 1.41667 12.31 1.31 12.4033 1.20333C12.5233 1.07 12.6833 0.976666 12.8833 0.923334C13.0967 0.856667 13.3233 0.836667 13.5633 0.863333C13.99 0.93 14.27 1.09667 14.4033 1.36333ZM1.38333 13.7833C1.38333 13.1833 1.55667 12.6833 1.90333 12.2833C2.26333 11.8833 2.74333 11.57 3.34333 11.3433C3.94333 11.1033 4.65 10.9367 5.46333 10.8433C6.27667 10.75 7.14333 10.7033 8.06333 10.7033C8.98333 10.7033 9.85 10.7367 10.6633 10.8033C11.4767 10.87 12.1833 11.0167 12.7833 11.2433C13.3833 11.4567 13.8567 11.7633 14.2033 12.1633C14.5633 12.5633 14.7433 13.1033 14.7433 13.7833C14.7433 14.45 14.5633 14.9833 14.2033 15.3833C13.8567 15.7833 13.3833 16.09 12.7833 16.3033C12.1833 16.53 11.4767 16.6767 10.6633 16.7433C9.85 16.8233 8.98333 16.8633 8.06333 16.8633C7.14333 16.8633 6.27667 16.8233 5.46333 16.7433C4.65 16.6767 3.94333 16.53 3.34333 16.3033C2.74333 16.09 2.26333 15.7833 1.90333 15.3833C1.55667 14.9833 1.38333 14.45 1.38333 13.7833ZM12.0433 13.7833C12.0433 13.5567 11.9233 13.3767 11.6833 13.2433C11.4433 13.11 11.13 13.01 10.7433 12.9433C10.37 12.8767 9.94333 12.8367 9.46333 12.8233C8.99667 12.7967 8.53 12.7833 8.06333 12.7833C7.59667 12.7833 7.13 12.7967 6.66333 12.8233C6.21 12.8367 5.79667 12.8767 5.42333 12.9433C5.06333 13.01 4.77 13.11 4.54333 13.2433C4.31667 13.3767 4.20333 13.5567 4.20333 13.7833C4.20333 13.9833 4.31667 14.15 4.54333 14.2833C4.77 14.4167 5.06333 14.5167 5.42333 14.5833C5.79667 14.65 6.21 14.6967 6.66333 14.7233C7.13 14.75 7.59667 14.7633 8.06333 14.7633C8.53 14.7633 8.99667 14.7633 9.46333 14.7633C9.94333 14.7633 10.37 14.7367 10.7433 14.6833C11.13 14.63 11.4433 14.5367 11.6833 14.4033C11.9233 14.2567 12.0433 14.05 12.0433 13.7833ZM5.66333 7.08333C5.67667 7.00333 5.67667 6.92333 5.66333 6.84333C5.66333 6.75 5.67 6.66333 5.68333 6.58333V4.94333C5.68333 4.75667 5.68333 4.57667 5.68333 4.40333C5.68333 4.21667 5.67667 4.03 5.66333 3.84333C5.66333 3.75 5.65 3.67 5.62333 3.60333C5.61 3.53667 5.55667 3.48333 5.46333 3.44333C5.38333 3.41667 5.29667 3.40333 5.20333 3.40333C5.11 3.40333 5.01667 3.40333 4.92333 3.40333C4.80333 3.40333 4.68333 3.40333 4.56333 3.40333C4.44333 3.40333 4.33 3.41 4.22333 3.42333C4.17 3.43667 4.12333 3.44333 4.08333 3.44333C4.04333 3.43 4.00333 3.43667 3.96333 3.46333C3.85667 3.51667 3.79667 3.59667 3.78333 3.70333C3.77 3.81 3.77667 3.91 3.80333 4.00333C3.81667 4.11 3.81667 4.22333 3.80333 4.34333C3.80333 4.45 3.80333 4.55667 3.80333 4.66333V6.76333C3.80333 6.84333 3.79667 6.93 3.78333 7.02333C3.78333 7.10333 3.81667 7.17667 3.88333 7.24333C3.95 7.31 4.03 7.33 4.12333 7.30333C4.28333 7.30333 4.44333 7.31 4.60333 7.32333C4.76333 7.32333 4.92333 7.31 5.08333 7.28333C5.15 7.28333 5.21 7.29 5.26333 7.30333C5.33 7.30333 5.39667 7.29667 5.46333 7.28333C5.54333 7.27 5.59667 7.25667 5.62333 7.24333C5.65 7.21667 5.66333 7.16333 5.66333 7.08333Z" fill="#1E5AF5"/>
<path d="M29.4649 10.2233C29.3049 10.2367 29.1182 10.2433 28.9049 10.2433C28.7049 10.2433 28.4782 10.25 28.2249 10.2633C28.1982 10.5833 28.1849 10.9033 28.1849 11.2233C28.1982 11.5433 28.2049 11.8633 28.2049 12.1833C28.1782 12.33 28.1116 12.4567 28.0049 12.5633C27.9116 12.67 27.7982 12.7633 27.6649 12.8433C27.5316 12.9233 27.3849 12.9833 27.2249 13.0233C27.0782 13.05 26.9382 13.0633 26.8049 13.0633C26.4049 13.0367 26.0916 12.9367 25.8649 12.7633C25.6516 12.59 25.5249 12.3033 25.4849 11.9033C25.4582 11.7033 25.4449 11.4567 25.4449 11.1633C25.4582 10.8567 25.4716 10.57 25.4849 10.3033H23.3649C23.3916 10.61 23.3849 10.8967 23.3449 11.1633C23.3182 11.43 23.3049 11.7567 23.3049 12.1433C23.2782 12.29 23.2116 12.4167 23.1049 12.5233C23.0116 12.63 22.8982 12.7233 22.7649 12.8033C22.6316 12.8833 22.4849 12.9433 22.3249 12.9833C22.1782 13.01 22.0382 13.0233 21.9049 13.0233C21.5049 12.9967 21.1916 12.8967 20.9649 12.7233C20.7516 12.55 20.6249 12.2633 20.5849 11.8633C20.5582 11.5967 20.5516 11.33 20.5649 11.0633C20.5916 10.7967 20.6049 10.53 20.6049 10.2633L17.4649 10.1433C17.2516 10.1167 17.0782 10.09 16.9449 10.0633C16.8249 10.0233 16.6782 9.92333 16.5049 9.76333C16.4116 9.68333 16.3449 9.57667 16.3049 9.44333C16.2649 9.31 16.2449 9.17 16.2449 9.02333C16.2449 8.74333 16.3316 8.51667 16.5049 8.34333C16.5982 8.23667 16.7249 8.15667 16.8849 8.10333C17.0449 8.05 17.1982 8.01 17.3449 7.98333C17.4916 7.95667 17.6182 7.94333 17.7249 7.94333C17.8449 7.94333 17.9116 7.94333 17.9249 7.94333H28.9649C29.0582 7.94333 29.1782 7.94333 29.3249 7.94333C29.4716 7.94333 29.6182 7.94333 29.7649 7.94333C29.9116 7.94333 30.0516 7.95 30.1849 7.96333C30.3316 7.96333 30.4516 7.96333 30.5449 7.96333C30.7316 7.97667 30.9116 8.00333 31.0849 8.04333C31.2716 8.08333 31.4382 8.17 31.5849 8.30333C31.7316 8.41 31.8116 8.53 31.8249 8.66333C31.8516 8.79667 31.8649 8.94333 31.8649 9.10333C31.8649 9.30333 31.8049 9.48333 31.6849 9.64333C31.5782 9.80333 31.4249 9.91667 31.2249 9.98333C30.9582 10.09 30.6649 10.1567 30.3449 10.1833C30.0382 10.1967 29.7449 10.21 29.4649 10.2233ZM18.7249 4.12333C18.4982 4.11 18.2782 4.07667 18.0649 4.02333C17.8516 3.95667 17.6649 3.87 17.5049 3.76333C17.3449 3.65667 17.2316 3.51667 17.1649 3.34333C17.0982 3.17 17.0982 2.95667 17.1649 2.70333C17.2716 2.27667 17.5316 1.95667 17.9449 1.74333C18.2516 1.57 18.5716 1.47 18.9049 1.44333C19.2516 1.41667 19.5982 1.40333 19.9449 1.40333C20.0516 1.39 20.1582 1.38333 20.2649 1.38333C20.3849 1.38333 20.4982 1.38333 20.6049 1.38333C20.7116 1.37 20.8182 1.36333 20.9249 1.36333C21.0449 1.36333 21.1649 1.36333 21.2849 1.36333C21.3516 1.36333 21.5049 1.36333 21.7449 1.36333C21.9849 1.36333 22.2649 1.36333 22.5849 1.36333C22.9049 1.36333 23.2449 1.37 23.6049 1.38333C23.9782 1.38333 24.3249 1.38333 24.6449 1.38333C24.9649 1.38333 25.2382 1.39 25.4649 1.40333C25.7049 1.40333 25.8582 1.40333 25.9249 1.40333C26.1382 1.41667 26.3449 1.43 26.5449 1.44333C26.7582 1.44333 26.9716 1.44333 27.1849 1.44333C27.5049 1.44333 27.8249 1.46333 28.1449 1.50333C28.4649 1.53 28.7782 1.59 29.0849 1.68333C29.3782 1.77667 29.5449 1.93 29.5849 2.14333C29.6382 2.34333 29.6849 2.57667 29.7249 2.84333C29.8182 3.44333 29.8516 3.99 29.8249 4.48333C29.8116 4.96333 29.7716 5.50333 29.7049 6.10333C29.6782 6.37 29.6316 6.61 29.5649 6.82333C29.4982 7.03667 29.3316 7.19667 29.0649 7.30333C28.8516 7.38333 28.5916 7.43 28.2849 7.44333C27.9782 7.45667 27.7382 7.37 27.5649 7.18333C27.4982 7.10333 27.4449 7.00333 27.4049 6.88333C27.3649 6.76333 27.3316 6.63667 27.3049 6.50333C27.2916 6.35667 27.2782 6.21667 27.2649 6.08333C27.2649 5.95 27.2582 5.83 27.2449 5.72333C27.2316 5.63 27.2249 5.52333 27.2249 5.40333C27.2382 5.28333 27.2449 5.16333 27.2449 5.04333C27.2449 4.91 27.2382 4.79 27.2249 4.68333C27.2116 4.56333 27.1782 4.47 27.1249 4.40333C27.0316 4.28333 26.9049 4.20333 26.7449 4.16333C26.5982 4.11 26.4382 4.08333 26.2649 4.08333C26.0916 4.07 25.9182 4.07 25.7449 4.08333C25.5716 4.08333 25.4249 4.08333 25.3049 4.08333H20.2449C20.1649 4.08333 20.0716 4.09 19.9649 4.10333C19.8582 4.10333 19.7516 4.11 19.6449 4.12333C19.3916 4.15 19.0849 4.15 18.7249 4.12333ZM29.4249 14.2033C29.4382 14.2033 29.4849 14.2167 29.5649 14.2433C29.6449 14.27 29.7316 14.3167 29.8249 14.3833C29.9316 14.4367 30.0249 14.5167 30.1049 14.6233C30.1982 14.7167 30.2582 14.83 30.2849 14.9633C30.3649 15.47 30.2849 15.8633 30.0449 16.1433C29.8982 16.33 29.7382 16.4433 29.5649 16.4833C29.3916 16.5233 29.2982 16.5433 29.2849 16.5433H18.9649C18.4582 16.5433 18.0582 16.4567 17.7649 16.2833C17.4716 16.1233 17.3249 15.89 17.3249 15.5833V13.8033C17.2982 13.51 17.2982 13.21 17.3249 12.9033C17.3516 12.6233 17.4582 12.3967 17.6449 12.2233C17.8316 12.05 18.0649 11.9633 18.3449 11.9633C18.4116 11.9633 18.4982 11.97 18.6049 11.9833C18.7249 11.9833 18.8182 11.9967 18.8849 12.0233C19.0582 12.0767 19.1916 12.1567 19.2849 12.2633C19.3782 12.37 19.4516 12.4967 19.5049 12.6433C19.5582 12.7767 19.5916 12.9233 19.6049 13.0833C19.6182 13.23 19.6316 13.3767 19.6449 13.5233C19.6449 13.63 19.6516 13.7433 19.6649 13.8633C19.6782 13.97 19.6982 14.07 19.7249 14.1633C19.7516 14.1767 19.8716 14.1967 20.0849 14.2233C20.3116 14.2367 20.6582 14.2433 21.1249 14.2433C21.5249 14.2433 21.8782 14.2367 22.1849 14.2233C22.5049 14.21 22.6716 14.2033 22.6849 14.2033H29.4249Z" fill="#1E5AF5"/>
<path d="M41.026 7.10333C41.226 7.11667 41.406 7.12333 41.566 7.12333C41.7393 7.12333 41.8927 7.12333 42.026 7.12333C42.1727 7.12333 42.3127 7.11667 42.446 7.10333H43.466C43.5193 7.10333 43.5793 7.11 43.646 7.12333C43.7127 7.12333 43.7793 7.11667 43.846 7.10333H44.326C44.4727 7.10333 44.6127 7.11667 44.746 7.14333C44.8927 7.17 45.026 7.21667 45.146 7.28333C45.3327 7.40333 45.4527 7.57667 45.506 7.80333C45.5593 8.03 45.5727 8.25 45.546 8.46333C45.546 8.55667 45.5393 8.65667 45.526 8.76333C45.526 8.87 45.4927 8.96333 45.426 9.04333C45.2793 9.24333 45.126 9.37 44.966 9.42333C44.8193 9.46333 44.6593 9.48333 44.486 9.48333H42.866C42.7593 9.48333 42.6193 9.49 42.446 9.50333C42.2727 9.50333 42.0927 9.50333 41.906 9.50333C41.7327 9.50333 41.566 9.50333 41.406 9.50333C41.246 9.49 41.126 9.48333 41.046 9.48333C41.046 9.73667 41.046 10.0033 41.046 10.2833C41.046 10.55 41.046 10.7967 41.046 11.0233C41.046 11.2367 41.0393 11.4167 41.026 11.5633C41.026 11.71 41.026 11.7833 41.026 11.7833V12.2833C41.026 12.47 41.0393 12.63 41.066 12.7633C41.0927 12.8967 41.1193 12.97 41.146 12.9833C41.226 13.0367 41.3327 13.0767 41.466 13.1033C41.5993 13.13 41.786 13.1433 42.026 13.1433C42.1193 13.1433 42.2793 13.1433 42.506 13.1433C42.7327 13.1433 42.9593 13.1433 43.186 13.1433C43.4127 13.1433 43.6127 13.1433 43.786 13.1433C43.9727 13.13 44.0793 13.1233 44.106 13.1233H44.406C44.606 13.1233 44.806 13.13 45.006 13.1433C45.206 13.1567 45.406 13.1967 45.606 13.2633C45.6593 13.2767 45.726 13.31 45.806 13.3633C45.966 13.4833 46.0793 13.6433 46.146 13.8433C46.226 14.03 46.2593 14.2233 46.246 14.4233C46.2327 14.6233 46.1793 14.8167 46.086 15.0033C45.9927 15.1767 45.8593 15.31 45.686 15.4033C45.4193 15.5633 45.1327 15.67 44.826 15.7233C44.5193 15.7767 44.2327 15.8033 43.966 15.8033H43.386C43.2127 15.8033 43.0593 15.8033 42.926 15.8033C42.806 15.8033 42.6793 15.8033 42.546 15.8033C42.426 15.8033 42.2993 15.8033 42.166 15.8033C42.046 15.8033 41.8993 15.8033 41.726 15.8033H41.406C41.206 15.8033 40.986 15.7967 40.746 15.7833C40.506 15.77 40.2727 15.7367 40.046 15.6833C39.8193 15.63 39.606 15.5567 39.406 15.4633C39.2193 15.3567 39.0593 15.2233 38.926 15.0633C38.806 14.9167 38.7127 14.7167 38.646 14.4633C38.5793 14.21 38.5327 13.9633 38.506 13.7233C38.4927 13.47 38.486 13.25 38.486 13.0633C38.486 12.8767 38.486 12.7767 38.486 12.7633V3.22333C38.486 3.21 38.486 3.15667 38.486 3.06333C38.486 2.95667 38.4927 2.84333 38.506 2.72333C38.5193 2.59 38.5327 2.46333 38.546 2.34333C38.5727 2.21 38.606 2.11 38.646 2.04333C38.7527 1.85667 38.8593 1.72333 38.966 1.64333C39.086 1.55 39.2393 1.49 39.426 1.46333C39.4793 1.45 39.5393 1.44333 39.606 1.44333C39.686 1.44333 39.7593 1.43667 39.826 1.42333C39.906 1.42333 39.9927 1.41667 40.086 1.40333H44.066C44.1327 1.40333 44.1993 1.41 44.266 1.42333C44.3327 1.42333 44.3927 1.41667 44.446 1.40333H44.486C44.606 1.40333 44.7193 1.41 44.826 1.42333C44.946 1.43667 45.066 1.46333 45.186 1.50333C45.2927 1.53 45.3993 1.56333 45.506 1.60333C45.626 1.63 45.726 1.69667 45.806 1.80333C45.966 1.99 46.0593 2.20333 46.086 2.44333C46.1127 2.55 46.126 2.65 46.126 2.74333C46.1393 2.82333 46.1327 2.91667 46.106 3.02333C46.0793 3.29 45.9793 3.53 45.806 3.74333C45.6327 3.94333 45.406 4.04333 45.126 4.04333H41.026V7.10333ZM53.066 14.4633C53.0793 14.8233 53.0593 15.19 53.006 15.5633C52.9527 15.9367 52.7793 16.2233 52.486 16.4233C52.2593 16.5567 52.0593 16.6233 51.886 16.6233C51.6593 16.6233 51.4727 16.5433 51.326 16.3833C51.1927 16.2233 51.086 16.03 51.006 15.8033C50.9393 15.5767 50.8927 15.3433 50.866 15.1033C50.8527 14.85 50.846 14.63 50.846 14.4433V9.48333H49.546V14.5633C49.5727 14.87 49.5593 15.19 49.506 15.5233C49.466 15.8433 49.3793 16.0967 49.246 16.2833C49.086 16.51 48.8527 16.6233 48.546 16.6233C48.3993 16.6233 48.2593 16.59 48.126 16.5233C48.006 16.4567 47.8927 16.37 47.786 16.2633C47.5593 16.0367 47.426 15.7633 47.386 15.4433C47.346 15.1233 47.326 14.81 47.326 14.5033V2.80333C47.326 2.61667 47.3327 2.41667 47.346 2.20333C47.3593 1.97667 47.3993 1.76333 47.466 1.56333C47.5327 1.36333 47.626 1.19 47.746 1.04333C47.8793 0.883333 48.0593 0.776666 48.286 0.723333C48.5927 0.656666 48.8393 0.73 49.026 0.943333C49.1727 1.09 49.2793 1.29667 49.346 1.56333C49.426 1.83 49.4793 2.12333 49.506 2.44333C49.5327 2.75 49.546 3.07667 49.546 3.42333C49.546 3.75667 49.546 4.07 49.546 4.36333V7.06333H50.846V2.98333C50.846 2.79667 50.846 2.58333 50.846 2.34333C50.846 2.09 50.866 1.85 50.906 1.62333C50.9593 1.38333 51.0527 1.18333 51.186 1.02333C51.3327 0.85 51.546 0.75 51.826 0.723333C52.1193 0.696666 52.3527 0.783333 52.526 0.983333C52.686 1.14333 52.806 1.35667 52.886 1.62333C52.966 1.89 53.0193 2.17667 53.046 2.48333C53.0727 2.79 53.086 3.09667 53.086 3.40333C53.086 3.69667 53.0793 3.95 53.066 4.16333V14.4633Z" fill="#1E5AF5"/>
<path d="M59.0476 0.743334C59.2209 0.743334 59.3876 0.75 59.5476 0.763333C59.7076 0.776667 59.8676 0.796667 60.0276 0.823334C60.5342 0.903334 60.9809 1.13667 61.3676 1.52333C61.6876 1.87 61.9476 2.27 62.1476 2.72333C62.3476 3.16333 62.5009 3.63 62.6076 4.12333C62.7276 4.61667 62.8076 5.12333 62.8476 5.64333C62.8876 6.15 62.9209 6.64333 62.9476 7.12333C62.9742 7.73667 62.9809 8.35 62.9676 8.96333C62.9676 9.57667 62.9342 10.1833 62.8676 10.7833C62.8009 11.41 62.7009 12.0433 62.5676 12.6833C62.4476 13.31 62.2209 13.8767 61.8876 14.3833C61.6076 14.81 61.2676 15.1633 60.8676 15.4433C60.4809 15.71 60.0609 15.89 59.6076 15.9833C59.1942 16.0633 58.7742 16.0767 58.3476 16.0233C57.9209 15.97 57.5142 15.83 57.1276 15.6033C56.7676 15.39 56.4742 15.1233 56.2476 14.8033C56.0342 14.4833 55.8342 14.11 55.6476 13.6833C55.3809 13.0433 55.2276 12.3833 55.1876 11.7033C55.1342 11.1433 55.0942 10.5833 55.0676 10.0233C55.0542 9.46333 55.0476 8.90333 55.0476 8.34333C55.0476 7.59667 55.0876 6.85 55.1676 6.10333C55.1942 5.79667 55.2209 5.49667 55.2476 5.20333C55.2742 4.89667 55.3142 4.59667 55.3676 4.30333C55.4209 4.06333 55.4676 3.83667 55.5076 3.62333C55.5476 3.41 55.6209 3.19 55.7276 2.96333C55.8342 2.73667 55.9476 2.52333 56.0676 2.32333C56.2009 2.12333 56.3542 1.94333 56.5276 1.78333C57.0876 1.22333 57.7609 0.89 58.5476 0.783333C58.6276 0.77 58.7076 0.763333 58.7876 0.763333C58.8809 0.763333 58.9676 0.756667 59.0476 0.743334ZM69.0476 6.88333C69.1142 6.88333 69.1742 6.89 69.2276 6.90333C69.2942 6.91667 69.3609 6.92333 69.4276 6.92333C69.4942 6.93667 69.5676 6.95 69.6476 6.96333C69.7276 6.96333 69.8075 6.97 69.8876 6.98333C70.0342 7.01 70.1809 7.06333 70.3276 7.14333C70.4742 7.21 70.5809 7.31667 70.6476 7.46333C70.7409 7.61 70.7876 7.78333 70.7876 7.98333C70.7876 8.09 70.7809 8.19 70.7676 8.28333C70.7676 8.36333 70.7542 8.45667 70.7276 8.56333C70.7009 8.67 70.6676 8.78333 70.6276 8.90333C70.6009 9.02333 70.5409 9.11667 70.4476 9.18333C70.2609 9.31667 70.0809 9.40333 69.9076 9.44333C69.6942 9.47 69.4342 9.47667 69.1276 9.46333C68.8209 9.45 68.5609 9.45 68.3475 9.46333C68.3342 9.46333 68.3209 9.47 68.3075 9.48333H68.2876L68.2676 9.50333V9.56333C68.2676 9.72333 68.2676 9.91667 68.2676 10.1433C68.2676 10.37 68.2676 10.6033 68.2676 10.8433C68.2676 11.07 68.2676 11.2967 68.2676 11.5233C68.2676 11.7367 68.2676 11.93 68.2676 12.1033C68.2942 12.7967 68.2942 13.4767 68.2676 14.1433V14.4233C68.2676 14.5967 68.2609 14.79 68.2476 15.0033C68.2476 15.2033 68.2342 15.4033 68.2076 15.6033C68.1809 15.8033 68.1342 15.9967 68.0676 16.1833C68.0009 16.3567 67.9076 16.5033 67.7876 16.6233C67.6275 16.81 67.4142 16.9033 67.1476 16.9033C67.1476 16.9033 67.1342 16.8967 67.1076 16.8833C66.7876 16.87 66.5275 16.7767 66.3276 16.6033C66.1409 16.43 65.9942 16.2167 65.8876 15.9633C65.7942 15.71 65.7342 15.45 65.7076 15.1833C65.6809 14.9033 65.6675 14.6567 65.6675 14.4433V2.56333C65.6675 2.55 65.6675 2.49 65.6675 2.38333C65.6675 2.26333 65.6809 2.13 65.7076 1.98333C65.7342 1.82333 65.7742 1.66333 65.8276 1.50333C65.8942 1.33 65.9809 1.19 66.0876 1.08333C66.1809 0.99 66.3142 0.923333 66.4876 0.883333C66.6742 0.83 66.8409 0.803333 66.9875 0.803333C67.2809 0.803333 67.5276 0.903333 67.7276 1.10333C67.9142 1.29 68.0209 1.49 68.0476 1.70333C68.0876 1.90333 68.1209 2.11667 68.1476 2.34333C68.1609 2.39667 68.1675 2.47667 68.1675 2.58333C68.1942 2.81 68.2076 3.04333 68.2076 3.28333C68.2209 3.52333 68.2342 3.76333 68.2476 4.00333C68.2476 4.15 68.2476 4.29667 68.2476 4.44333C68.2609 4.57667 68.2676 4.71667 68.2676 4.86333C68.2542 4.94333 68.2476 5.02333 68.2476 5.10333C68.2609 5.17 68.2676 5.23667 68.2676 5.30333V6.40333C68.2676 6.47 68.2676 6.54333 68.2676 6.62333C68.2676 6.70333 68.2809 6.77667 68.3075 6.84333C68.3075 6.85667 68.3742 6.86333 68.5076 6.86333C68.6409 6.86333 68.7142 6.86333 68.7276 6.86333C68.8476 6.89 68.9409 6.89667 69.0076 6.88333H69.0476ZM58.9876 13.3233C59.2409 13.3233 59.4876 13.2433 59.7276 13.0833C59.9542 12.9233 60.1142 12.71 60.2076 12.4433C60.3009 12.1767 60.3809 11.8833 60.4476 11.5633C60.5542 10.95 60.6142 10.2967 60.6276 9.60333C60.6409 8.91 60.6342 8.24333 60.6076 7.60333C60.6076 7.35 60.6009 7.08333 60.5876 6.80333C60.5742 6.51 60.5476 6.22333 60.5076 5.94333C60.4809 5.66333 60.4342 5.39667 60.3676 5.14333C60.3009 4.87667 60.2076 4.64333 60.0876 4.44333C59.9542 4.21667 59.7942 4.04333 59.6076 3.92333C59.4209 3.80333 59.2209 3.75667 59.0076 3.78333C58.7809 3.81 58.5676 3.89 58.3676 4.02333C58.1809 4.15667 58.0275 4.35667 57.9076 4.62333L57.7276 5.04333C57.6475 5.29667 57.5876 5.56333 57.5476 5.84333C57.5076 6.11 57.4742 6.37667 57.4476 6.64333C57.4209 6.91 57.4009 7.18333 57.3876 7.46333C57.3742 7.74333 57.3676 8.01667 57.3676 8.28333C57.3809 8.55 57.3742 8.81 57.3476 9.06333C57.3342 9.31667 57.3409 9.57667 57.3676 9.84333C57.3942 10.19 57.4276 10.5633 57.4676 10.9633C57.5209 11.3633 57.6009 11.7433 57.7076 12.1033C57.8276 12.45 57.9876 12.7433 58.1876 12.9833C58.3876 13.21 58.6542 13.3233 58.9876 13.3233Z" fill="#1E5AF5"/>
<path d="M83.8044 5.48333L82.7244 6.56333C82.4311 6.84333 82.1378 7.11667 81.8444 7.38333C81.5511 7.65 81.2511 7.91667 80.9444 8.18333C80.9178 8.21 80.8911 8.23667 80.8644 8.26333C80.8378 8.27667 80.8111 8.29667 80.7844 8.32333C80.5311 8.55 80.2778 8.79 80.0244 9.04333C79.7844 9.29667 79.4911 9.47667 79.1444 9.58333C78.9044 9.65 78.6444 9.64333 78.3644 9.56333C78.0844 9.48333 77.8711 9.34333 77.7244 9.14333C77.6178 8.98333 77.5644 8.82333 77.5644 8.66333C77.5644 8.50333 77.5911 8.35 77.6444 8.20333C77.7111 8.04333 77.7911 7.89 77.8844 7.74333C77.9778 7.59667 78.0778 7.46333 78.1844 7.34333C78.5844 6.87667 78.9978 6.43667 79.4244 6.02333C79.8644 5.59667 80.3111 5.18333 80.7644 4.78333C80.9111 4.66333 81.0778 4.50333 81.2644 4.30333C81.4511 4.09 81.6311 3.88333 81.8044 3.68333C82.0044 3.44333 82.2111 3.20333 82.4244 2.96333C82.3978 2.65667 82.3911 2.36333 82.4044 2.08333C82.4178 1.84333 82.4511 1.60333 82.5044 1.36333C82.5578 1.12333 82.6578 0.929999 82.8044 0.783333C82.9778 0.623333 83.2244 0.523333 83.5444 0.483333C83.8644 0.43 84.1311 0.436667 84.3444 0.503333C84.6511 0.596667 84.8644 0.756667 84.9844 0.983333C85.1178 1.21 85.2044 1.47667 85.2444 1.78333C85.2578 2.03667 85.2578 2.25667 85.2444 2.44333C85.2444 2.61667 85.3178 2.81 85.4644 3.02333C85.5711 3.18333 85.6911 3.33667 85.8244 3.48333C85.9711 3.63 86.1111 3.77667 86.2444 3.92333C86.7111 4.44333 87.1644 4.94333 87.6044 5.42333C88.0578 5.90333 88.5244 6.39667 89.0044 6.90333C89.1644 7.06333 89.3178 7.26333 89.4644 7.50333C89.6111 7.74333 89.7111 7.99 89.7644 8.24333C89.8311 8.48333 89.8244 8.71667 89.7444 8.94333C89.6778 9.15667 89.5044 9.33 89.2244 9.46333C89.0244 9.55667 88.8311 9.59667 88.6444 9.58333C88.4578 9.55667 88.2778 9.50333 88.1044 9.42333C87.9311 9.33 87.7644 9.21667 87.6044 9.08333C87.4578 8.95 87.3244 8.81667 87.2044 8.68333L83.8044 5.48333ZM78.0244 13.2433C77.7178 13.23 77.4244 13.19 77.1444 13.1233C76.8778 13.0433 76.6578 12.87 76.4844 12.6033C76.3378 12.3767 76.2644 12.1367 76.2644 11.8833C76.2778 11.6167 76.3778 11.39 76.5644 11.2033C76.6711 11.0967 76.8044 11.0167 76.9644 10.9633C77.1244 10.91 77.2778 10.87 77.4244 10.8433C77.5711 10.8167 77.6978 10.8033 77.8044 10.8033C77.9244 10.8033 77.9911 10.8033 78.0044 10.8033H89.1044C89.3178 10.79 89.5444 10.79 89.7844 10.8033C90.0378 10.8167 90.2711 10.8633 90.4844 10.9433C90.6978 11.01 90.8778 11.13 91.0244 11.3033C91.1711 11.4633 91.2444 11.69 91.2444 11.9833C91.2444 12.3167 91.1311 12.57 90.9044 12.7433C90.6778 12.9033 90.4044 13.0233 90.0844 13.1033C89.7778 13.17 89.4578 13.21 89.1244 13.2233C88.7911 13.2233 88.5178 13.2233 88.3044 13.2233H87.5244C87.2578 13.2367 86.9978 13.2433 86.7444 13.2433C86.4911 13.23 86.2311 13.2233 85.9644 13.2233H85.2044C85.2178 13.5967 85.2311 13.99 85.2444 14.4033C85.2578 14.8167 85.2378 15.1833 85.1844 15.5033C85.1578 15.7567 85.0911 15.9967 84.9844 16.2233C84.8911 16.4633 84.7311 16.6567 84.5044 16.8033C84.3044 16.9367 84.0711 17.0033 83.8044 17.0033C83.5378 17.0167 83.2978 16.9633 83.0844 16.8433C82.9111 16.7367 82.7778 16.5833 82.6844 16.3833C82.6044 16.1833 82.5511 15.99 82.5244 15.8033C82.4978 15.6567 82.4844 15.4967 82.4844 15.3233C82.4978 15.15 82.5044 14.99 82.5044 14.8433C82.4911 14.6033 82.4844 14.3433 82.4844 14.0633C82.4844 13.77 82.4844 13.4833 82.4844 13.2033H81.9844C81.6111 13.2033 81.2644 13.21 80.9444 13.2233C80.6244 13.2233 80.3111 13.23 80.0044 13.2433C79.6978 13.2433 79.3844 13.2433 79.0644 13.2433C78.7444 13.2433 78.3978 13.2433 78.0244 13.2433Z" fill="#1E5AF5"/>
<path d="M95.4657 10.0833C95.5457 10.0033 95.619 9.91 95.6857 9.80333C95.7657 9.68333 95.8257 9.60333 95.8657 9.56333V5.04333C95.799 5.07 95.739 5.07667 95.6857 5.06333C95.6323 5.05 95.5723 5.04333 95.5057 5.04333H94.9657C94.499 5.04333 94.0923 5.03667 93.7457 5.02333C93.4123 5.01 93.199 4.99 93.1057 4.96333C92.8657 4.91 92.659 4.82333 92.4857 4.70333C92.3257 4.57 92.2057 4.38333 92.1257 4.14333C92.099 4.05 92.079 3.96333 92.0657 3.88333C92.0523 3.80333 92.059 3.71 92.0857 3.60333C92.0857 3.47 92.1523 3.30333 92.2857 3.10333C92.3257 3.03667 92.3857 2.97667 92.4657 2.92333C92.5457 2.87 92.6257 2.82333 92.7057 2.78333C92.7857 2.71667 92.8657 2.67667 92.9457 2.66333C93.0257 2.63667 93.1057 2.61 93.1857 2.58333H95.8257C95.8257 2.43667 95.8323 2.24333 95.8457 2.00333C95.859 1.75 95.8657 1.56333 95.8657 1.44333C95.8923 1.27 95.9324 1.11667 95.9857 0.983333C96.039 0.836667 96.099 0.703333 96.1657 0.583333C96.3257 0.33 96.559 0.163333 96.8657 0.0833326C97.0123 0.016666 97.159 -0.0100003 97.3057 0.00333362C97.4657 0.0166668 97.619 0.0566667 97.7657 0.123333C97.8723 0.163334 97.9657 0.223334 98.0457 0.303333C98.139 0.37 98.2057 0.45 98.2457 0.543333C98.4057 0.73 98.5057 0.916667 98.5457 1.10333C98.5723 1.21 98.5923 1.32333 98.6057 1.44333C98.619 1.56333 98.6257 1.68333 98.6257 1.80333V2.58333H99.9857C100.252 2.58333 100.492 2.59 100.706 2.60333C100.919 2.61667 101.119 2.63667 101.306 2.66333C101.492 2.70333 101.659 2.77667 101.806 2.88333C101.966 2.97667 102.099 3.11 102.206 3.28333C102.312 3.45667 102.366 3.64333 102.366 3.84333C102.406 3.99 102.379 4.15667 102.286 4.34333C102.126 4.65 101.812 4.85667 101.346 4.96333C101.199 4.99 101.032 5.00333 100.846 5.00333C100.672 5.00333 100.486 5.01667 100.286 5.04333C100.072 5.04333 99.8257 5.05 99.5457 5.06333C99.2657 5.07667 98.959 5.07 98.6257 5.04333C98.6257 5.15 98.619 5.27667 98.6057 5.42333C98.6057 5.57 98.6057 5.71667 98.6057 5.86333C98.6057 6.01 98.6057 6.15 98.6057 6.28333C98.6057 6.40333 98.6123 6.50333 98.6257 6.58333V8.78333C98.6257 8.85 98.619 8.91667 98.6057 8.98333C98.5923 9.03667 98.599 9.10333 98.6257 9.18333V9.50333C98.6923 9.55667 98.7523 9.63 98.8057 9.72333C98.8723 9.80333 98.959 9.89667 99.0657 10.0033C99.159 10.0833 99.2323 10.1633 99.2857 10.2433C99.3523 10.3233 99.419 10.3967 99.4857 10.4633C99.5523 10.5433 99.6123 10.6233 99.6657 10.7033C99.7323 10.7833 99.8057 10.8633 99.8857 10.9433C99.9523 11.01 100.019 11.09 100.086 11.1833C100.152 11.2767 100.226 11.3633 100.306 11.4433C100.346 11.51 100.386 11.57 100.426 11.6233C100.466 11.6767 100.506 11.7233 100.546 11.7633C100.626 11.8833 100.692 11.9967 100.746 12.1033C100.879 12.2633 101.006 12.43 101.126 12.6033C101.246 12.7633 101.366 12.95 101.486 13.1633C101.632 13.35 101.746 13.5433 101.826 13.7433C101.919 13.93 101.986 14.1167 102.026 14.3033C102.066 14.49 102.066 14.6833 102.026 14.8833C101.986 15.0833 101.892 15.2633 101.746 15.4233C101.559 15.5833 101.312 15.6633 101.006 15.6633C100.859 15.6633 100.719 15.65 100.586 15.6233C100.466 15.5833 100.332 15.53 100.186 15.4633C100.052 15.3833 99.9323 15.3033 99.8257 15.2233C99.7323 15.13 99.6323 15.0433 99.5257 14.9633C99.4057 14.8433 99.2923 14.7167 99.1857 14.5833C99.079 14.4367 98.9723 14.3033 98.8657 14.1833C98.759 14.0633 98.6523 13.9367 98.5457 13.8033C98.4523 13.6567 98.3523 13.51 98.2457 13.3633C98.099 13.2167 97.939 13.0233 97.7657 12.7833C97.6857 12.6633 97.5923 12.5633 97.4857 12.4833C97.3923 12.39 97.3057 12.3033 97.2257 12.2233C97.1457 12.33 97.0657 12.4367 96.9857 12.5433C96.9057 12.6367 96.8257 12.7367 96.7457 12.8433C96.6523 12.95 96.5657 13.05 96.4857 13.1433C96.4057 13.2367 96.3257 13.3367 96.2457 13.4433C96.1657 13.5767 96.0723 13.71 95.9657 13.8433C95.8723 13.9767 95.7723 14.1033 95.6657 14.2233C95.5857 14.3567 95.4923 14.49 95.3857 14.6233C95.2923 14.7567 95.179 14.8833 95.0457 15.0033C94.779 15.27 94.5257 15.4567 94.2857 15.5633C94.059 15.6567 93.8257 15.7033 93.5857 15.7033C93.519 15.7033 93.4523 15.7033 93.3857 15.7033C93.3323 15.7033 93.2723 15.69 93.2057 15.6633C92.9257 15.5833 92.719 15.4033 92.5857 15.1233C92.4923 14.91 92.4657 14.6967 92.5057 14.4833C92.5323 14.35 92.559 14.23 92.5857 14.1233C92.6123 14.0033 92.659 13.9033 92.7257 13.8233C92.7657 13.7167 92.8123 13.6167 92.8657 13.5233C92.919 13.4167 92.979 13.31 93.0457 13.2033C93.1123 13.1233 93.1723 13.0367 93.2257 12.9433C93.2923 12.85 93.3723 12.7567 93.4657 12.6633C93.5057 12.6233 93.5457 12.5767 93.5857 12.5233C93.6257 12.47 93.6657 12.4233 93.7057 12.3833L93.9457 12.0233C93.9857 11.93 94.0323 11.8567 94.0857 11.8033C94.139 11.7367 94.219 11.63 94.3257 11.4833C94.4323 11.3633 94.5323 11.2433 94.6257 11.1233C94.719 11.0033 94.8057 10.89 94.8857 10.7833C94.9923 10.6633 95.0923 10.5433 95.1857 10.4233C95.2923 10.3033 95.3857 10.19 95.4657 10.0833ZM106.406 15.1233C106.379 15.2033 106.366 15.2833 106.366 15.3633C106.366 15.4433 106.352 15.5233 106.326 15.6033C106.326 15.8167 106.266 16.0433 106.146 16.2833C106.039 16.5233 105.892 16.6967 105.706 16.8033C105.559 16.87 105.399 16.91 105.226 16.9233C105.066 16.95 104.912 16.95 104.766 16.9233C104.472 16.8567 104.259 16.71 104.126 16.4833C103.992 16.27 103.906 16.03 103.866 15.7633C103.839 15.6567 103.826 15.5567 103.826 15.4633C103.826 15.37 103.812 15.27 103.786 15.1633C103.786 14.9767 103.792 14.77 103.806 14.5433C103.819 14.3033 103.826 14.07 103.826 13.8433C103.799 13.35 103.792 12.87 103.806 12.4033C103.819 11.9233 103.826 11.43 103.826 10.9233C103.826 10.35 103.819 9.77667 103.806 9.20333C103.792 8.61667 103.799 8.03 103.826 7.44333V1.94333C103.852 1.83667 103.872 1.74333 103.886 1.66333C103.899 1.58333 103.919 1.50333 103.946 1.42333C103.986 1.34333 104.019 1.27 104.046 1.20333C104.072 1.13667 104.119 1.08333 104.186 1.04333C104.252 0.976667 104.326 0.923333 104.406 0.883333C104.486 0.83 104.566 0.803333 104.646 0.803333C104.726 0.776667 104.806 0.756667 104.886 0.743334C104.966 0.73 105.046 0.723333 105.126 0.723333C105.366 0.723333 105.572 0.79 105.746 0.923334C105.946 1.04333 106.086 1.22333 106.166 1.46333C106.299 1.73 106.366 2.01667 106.366 2.32333C106.392 2.73667 106.406 3.14333 106.406 3.54333C106.406 3.93 106.406 4.33 106.406 4.74333C106.446 5.30333 106.446 5.86333 106.406 6.42333V15.1233Z" fill="#1E5AF5"/>
</svg>
