<svg width="31" height="17" viewBox="0 0 31 17" fill="none" xmlns="http://www.w3.org/2000/svg">
<path d="M8.99018 16.65C8.23418 16.65 7.56218 16.512 6.97418 16.236C6.39818 15.972 5.94218 15.606 5.60618 15.138C5.28218 14.67 5.12018 14.13 5.12018 13.518C5.12018 12.93 5.30018 12.396 5.66018 11.916C6.02018 11.436 6.50018 11.058 7.10018 10.782C7.70018 10.494 8.35418 10.35 9.06218 10.35C9.78218 10.35 10.4362 10.47 11.0242 10.71C11.6242 10.938 12.0982 11.286 12.4462 11.754C12.8062 12.21 12.9742 12.774 12.9502 13.446C12.9382 14.07 12.7522 14.622 12.3922 15.102C12.0442 15.582 11.5702 15.96 10.9702 16.236C10.3822 16.512 9.72218 16.65 8.99018 16.65ZM0.476182 9.576L0.0261818 9.18C-0.0218182 9.132 -0.00381819 9.078 0.0801818 9.018C0.0921818 9.006 0.0981818 9 0.0981818 9C0.962182 8.436 1.71218 7.782 2.34818 7.038C2.98418 6.294 3.48218 5.526 3.84218 4.734C4.20218 3.942 4.40018 3.192 4.43618 2.484C4.26818 2.496 4.08818 2.508 3.89618 2.52C3.70418 2.532 3.48818 2.55 3.24818 2.574C2.88818 2.598 2.57618 2.622 2.31218 2.646C2.06018 2.67 1.77218 2.706 1.44818 2.754C1.32818 2.766 1.25018 2.754 1.21418 2.718C1.17818 2.67 1.14818 2.616 1.12418 2.556C1.11218 2.544 1.10618 2.532 1.10618 2.52C1.07018 2.424 1.03418 2.316 0.998182 2.196C0.974182 2.076 0.944182 1.938 0.908182 1.782C0.896182 1.758 0.902182 1.728 0.926182 1.692C0.950182 1.656 0.992182 1.638 1.05218 1.638C1.34018 1.65 1.65818 1.668 2.00618 1.692C2.35418 1.704 2.70218 1.704 3.05018 1.692C3.57818 1.668 4.11218 1.65 4.65218 1.638C5.20418 1.614 5.75618 1.578 6.30818 1.53C6.75218 1.506 7.17218 1.47 7.56818 1.422C7.96418 1.374 8.31818 1.32 8.63018 1.26C8.66618 1.248 8.70818 1.254 8.75618 1.278C8.80418 1.29 8.83418 1.326 8.84618 1.386C8.87018 1.47 8.89418 1.596 8.91818 1.764C8.94218 1.92 8.96018 2.07 8.97218 2.214C8.97218 2.346 8.90018 2.412 8.75618 2.412C8.63618 2.412 8.51618 2.412 8.39618 2.412C8.27618 2.412 8.15018 2.412 8.01818 2.412C7.76618 2.412 7.50818 2.412 7.24418 2.412C6.98018 2.4 6.70418 2.4 6.41618 2.412C6.29618 2.412 6.17618 2.418 6.05618 2.43C5.94818 2.43 5.84018 2.43 5.73218 2.43C5.68418 2.766 5.60018 3.138 5.48018 3.546C5.36018 3.954 5.18618 4.386 4.95818 4.842C5.43818 5.178 5.93018 5.55 6.43418 5.958C6.95018 6.354 7.41218 6.726 7.82018 7.074C8.24018 7.41 8.53418 7.668 8.70218 7.848C8.76218 7.896 8.80418 7.956 8.82818 8.028C8.86418 8.1 8.85218 8.178 8.79218 8.262C8.76818 8.298 8.70818 8.364 8.61218 8.46C8.51618 8.556 8.42018 8.652 8.32418 8.748C8.22818 8.844 8.15618 8.91 8.10818 8.946C8.01218 9.006 7.93418 9 7.87418 8.928C7.64618 8.616 7.34018 8.256 6.95618 7.848C6.58418 7.428 6.18818 7.02 5.76818 6.624C5.36018 6.216 4.97018 5.874 4.59818 5.598C4.23818 6.258 3.77618 6.93 3.21218 7.614C2.64818 8.286 1.92218 8.934 1.03418 9.558C0.974182 9.606 0.896182 9.648 0.800182 9.684C0.704182 9.708 0.596182 9.672 0.476182 9.576ZM9.02618 15.714C9.78218 15.69 10.4182 15.486 10.9342 15.102C11.4622 14.718 11.7382 14.16 11.7622 13.428C11.7862 12.948 11.6722 12.546 11.4202 12.222C11.1802 11.898 10.8502 11.652 10.4302 11.484C10.0222 11.304 9.56018 11.214 9.04418 11.214C8.52818 11.226 8.06018 11.334 7.64018 11.538C7.23218 11.73 6.90218 11.994 6.65018 12.33C6.39818 12.666 6.27218 13.056 6.27218 13.5C6.27218 13.956 6.39218 14.352 6.63218 14.688C6.88418 15.012 7.21418 15.264 7.62218 15.444C8.04218 15.624 8.51018 15.714 9.02618 15.714ZM11.7262 10.098C11.6782 10.098 11.6542 10.068 11.6542 10.008V5.31C11.4382 5.322 11.2282 5.334 11.0242 5.346C10.8202 5.358 10.6282 5.37 10.4482 5.382C10.1602 5.394 9.83018 5.424 9.45818 5.472C9.08618 5.508 8.75618 5.544 8.46818 5.58C8.33618 5.604 8.24618 5.598 8.19818 5.562C8.15018 5.526 8.11418 5.472 8.09018 5.4C8.04218 5.244 8.00018 5.1 7.96418 4.968C7.94018 4.824 7.91618 4.692 7.89218 4.572C7.89218 4.476 7.94018 4.44 8.03618 4.464C8.22818 4.488 8.52818 4.506 8.93618 4.518C9.35618 4.518 9.81218 4.512 10.3042 4.5C10.7962 4.476 11.2462 4.452 11.6542 4.428V2.196C11.6542 1.74 11.6362 1.32 11.6002 0.936C11.5762 0.552 11.5342 0.3 11.4742 0.18C11.4502 0.12 11.4502 0.0780001 11.4742 0.0540004C11.5102 0.0180001 11.5522 0 11.6002 0C11.7322 0 11.9122 0 12.1402 0C12.3682 0 12.5782 0.00599992 12.7702 0.0179998C12.8302 0.0179998 12.8602 0.0659999 12.8602 0.162C12.8242 0.606 12.8002 0.996 12.7882 1.332C12.7882 1.656 12.7882 2.034 12.7882 2.466V9.648C12.7882 9.828 12.7762 9.936 12.7522 9.972C12.7402 10.008 12.7042 10.032 12.6442 10.044L11.7262 10.098Z" fill="black"/>
<path d="M19.5181 7.902C19.0981 7.914 18.8041 7.8 18.6361 7.56C18.4681 7.32 18.3841 6.912 18.3841 6.336V3.438C18.3841 3.018 18.3541 2.658 18.2941 2.358C18.2341 2.046 18.1741 1.83 18.1141 1.71C18.0781 1.638 18.0781 1.578 18.1141 1.53C18.1501 1.47 18.1981 1.44 18.2581 1.44C18.3421 1.44 18.4921 1.446 18.7081 1.458C18.9241 1.47 19.1521 1.482 19.3921 1.494C19.8001 1.506 20.2921 1.512 20.8681 1.512C21.4441 1.5 22.0561 1.482 22.7041 1.458C23.3641 1.434 24.0061 1.41 24.6301 1.386C25.3381 1.362 25.9501 1.326 26.4661 1.278C26.9821 1.23 27.3961 1.188 27.7081 1.152C27.7441 1.152 27.7861 1.158 27.8341 1.17C27.8821 1.182 27.9121 1.218 27.9241 1.278L27.9781 1.764C27.9901 1.812 27.9961 1.86 27.9961 1.908C27.9961 1.944 27.9961 1.986 27.9961 2.034C28.0201 2.166 27.9481 2.232 27.7801 2.232C27.4441 2.232 27.1201 2.238 26.8081 2.25C26.4961 2.25 26.1661 2.256 25.8181 2.268L19.5181 2.43V6.12C19.5181 6.48 19.5481 6.714 19.6081 6.822C19.6681 6.93 19.7941 6.99 19.9861 7.002C20.2861 7.014 20.6641 7.02 21.1201 7.02C21.5761 7.02 22.0501 7.014 22.5421 7.002C23.0341 6.99 23.4901 6.978 23.9101 6.966C24.3421 6.942 24.6721 6.924 24.9001 6.912C25.5481 6.888 26.1121 6.852 26.5921 6.804C27.0841 6.756 27.4801 6.702 27.7801 6.642C27.9001 6.618 27.9781 6.624 28.0141 6.66C28.0501 6.684 28.0741 6.726 28.0861 6.786C28.1101 6.918 28.1221 7.05 28.1221 7.182C28.1341 7.302 28.1461 7.44 28.1581 7.596C28.1581 7.668 28.1341 7.716 28.0861 7.74C28.0501 7.764 27.9481 7.776 27.7801 7.776C26.4961 7.776 25.1401 7.794 23.7121 7.83C22.2961 7.854 20.8981 7.878 19.5181 7.902ZM16.3681 13.482C16.2361 13.494 16.1461 13.482 16.0981 13.446C16.0501 13.41 16.0141 13.356 15.9901 13.284C15.9421 13.152 15.9001 13.02 15.8641 12.888C15.8281 12.744 15.7861 12.57 15.7381 12.366C15.7261 12.342 15.7321 12.312 15.7561 12.276C15.7801 12.228 15.8221 12.21 15.8821 12.222C16.3381 12.282 16.9621 12.324 17.7541 12.348C18.5461 12.36 19.4161 12.366 20.3641 12.366C20.7481 12.366 21.1381 12.366 21.5341 12.366C21.9421 12.366 22.3561 12.36 22.7761 12.348V10.854C22.7761 10.386 22.7581 9.978 22.7221 9.63C22.6861 9.282 22.6441 9.048 22.5961 8.928C22.5481 8.808 22.5901 8.748 22.7221 8.748H23.8021C23.8741 8.748 23.9101 8.796 23.9101 8.892C23.9101 8.904 23.9101 8.916 23.9101 8.928C23.8861 9.24 23.8681 9.54 23.8561 9.828C23.8441 10.116 23.8381 10.416 23.8381 10.728L23.8201 12.33C24.7321 12.306 25.6081 12.276 26.4481 12.24C27.2881 12.192 28.0441 12.138 28.7161 12.078C29.3881 12.018 29.9041 11.958 30.2641 11.898C30.3841 11.874 30.4621 11.88 30.4981 11.916C30.5341 11.952 30.5581 12 30.5701 12.06L30.6781 12.924C30.6781 12.984 30.6601 13.038 30.6241 13.086C30.5881 13.134 30.4921 13.158 30.3361 13.158C29.9281 13.146 29.4541 13.14 28.9141 13.14C28.3741 13.14 27.7981 13.14 27.1861 13.14C25.6861 13.14 24.2341 13.158 22.8301 13.194C21.4261 13.218 20.1661 13.254 19.0501 13.302C17.9341 13.35 17.0401 13.41 16.3681 13.482Z" fill="black"/>
</svg>
