<svg width="106" height="18" viewBox="0 0 106 18" fill="none" xmlns="http://www.w3.org/2000/svg">
<path d="M13.0222 9.04333C13.1289 9.04333 13.2356 9.05667 13.3422 9.08333C13.4489 9.11 13.5756 9.13667 13.7222 9.16333C13.9356 9.21667 14.1356 9.30333 14.3222 9.42333C14.5089 9.61 14.6022 9.83 14.6022 10.0833C14.6022 10.15 14.5956 10.2233 14.5822 10.3033C14.5822 10.37 14.5689 10.4433 14.5422 10.5233C14.5022 10.6967 14.4289 10.81 14.3222 10.8633C14.2956 10.9167 14.2422 10.9633 14.1622 11.0033C14.0956 11.03 14.0222 11.0567 13.9422 11.0833C13.8622 11.11 13.7822 11.1367 13.7022 11.1633C13.6222 11.1767 13.5356 11.1833 13.4422 11.1833C13.3356 11.1833 13.2356 11.1967 13.1422 11.2233C13.0489 11.2367 12.9489 11.2433 12.8422 11.2433H1.24222C1.05556 11.2433 0.868889 11.2167 0.682222 11.1633C0.495556 11.0967 0.335556 10.9967 0.202222 10.8633C0.0955556 10.69 0.0288889 10.4767 0.00222222 10.2233C-0.0111111 9.97 0.0355556 9.76333 0.142222 9.60333C0.195556 9.49667 0.268889 9.41667 0.362222 9.36333C0.455556 9.29667 0.548889 9.25 0.642222 9.22333C0.962222 9.10333 1.24889 9.04333 1.50222 9.04333H5.72222V7.84333C5.69556 7.87 5.65556 7.87667 5.60222 7.86333C5.54889 7.85 5.48222 7.84333 5.40222 7.84333H3.04222C2.89556 7.84333 2.72889 7.84333 2.54222 7.84333C2.36889 7.83 2.20889 7.81 2.06222 7.78333C1.91556 7.75667 1.77556 7.73 1.64222 7.70333C1.50889 7.66333 1.38889 7.60333 1.28222 7.52333C1.20222 7.45667 1.13556 7.39 1.08222 7.32333C1.02889 7.24333 0.968889 7.16333 0.902222 7.08333C0.875556 6.97667 0.848889 6.88333 0.822222 6.80333C0.795556 6.71 0.768889 6.61667 0.742222 6.52333C0.715556 6.44333 0.695556 6.36333 0.682222 6.28333C0.682222 6.20333 0.668889 6.12333 0.642222 6.04333V1.98333C0.642222 1.87667 0.662222 1.75667 0.702222 1.62333C0.742222 1.49 0.795556 1.37 0.862222 1.26333C0.955556 1.03667 1.15556 0.89 1.46222 0.823334C1.54222 0.823334 1.64889 0.816667 1.78222 0.803333C1.91556 0.79 2.02889 0.783333 2.12222 0.783333C2.20222 0.81 2.26889 0.83 2.32222 0.843334C2.38889 0.843334 2.46222 0.856667 2.54222 0.883333C2.79556 0.99 2.94222 1.17667 2.98222 1.44333C3.02222 1.69667 3.04222 1.95 3.04222 2.20333V2.86333C4.61556 2.87667 6.02889 2.89 7.28222 2.90333C7.81556 2.90333 8.33556 2.91 8.84222 2.92333C9.36222 2.92333 9.82222 2.92333 10.2222 2.92333C10.6356 2.92333 10.9689 2.92333 11.2222 2.92333C11.4756 2.92333 11.6156 2.92333 11.6422 2.92333C11.6422 2.89667 11.6356 2.87 11.6222 2.84333C11.6089 2.80333 11.6156 2.75667 11.6422 2.70333V1.82333C11.6422 1.71667 11.6422 1.61667 11.6422 1.52333C11.6556 1.43 11.6956 1.33 11.7622 1.22333C11.8156 1.13 11.9089 1.05 12.0422 0.983333C12.1756 0.903333 12.2956 0.85 12.4022 0.823334C12.8956 0.73 13.2822 0.79 13.5622 1.00333C13.8156 1.24333 13.9422 1.60333 13.9422 2.08333V5.38333C13.9422 5.57 13.9356 5.75 13.9222 5.92333C13.9222 6.08333 13.9089 6.25 13.8822 6.42333C13.8822 6.58333 13.8489 6.73 13.7822 6.86333C13.7556 6.94333 13.7222 7.01667 13.6822 7.08333C13.6556 7.13667 13.6156 7.21 13.5622 7.30333C13.4556 7.46333 13.3022 7.57667 13.1022 7.64333C12.9156 7.71 12.7422 7.75667 12.5822 7.78333C12.4756 7.78333 12.3756 7.79667 12.2822 7.82333C12.1889 7.83667 12.0889 7.84333 11.9822 7.84333H8.58222V9.04333H13.0222ZM13.3422 14.2433C13.3956 14.2967 13.4889 14.3567 13.6222 14.4233C13.7022 14.45 13.7889 14.5233 13.8822 14.6433C13.9489 14.75 14.0089 14.8767 14.0622 15.0233C14.0889 15.2633 14.0822 15.4833 14.0422 15.6833C14.0156 15.87 13.9489 16.03 13.8422 16.1633C13.6556 16.39 13.4889 16.5033 13.3422 16.5033C13.2622 16.5433 13.1956 16.5633 13.1422 16.5633H2.12222C1.60222 16.5633 1.21556 16.49 0.962222 16.3433C0.802222 16.25 0.688889 16.1433 0.622222 16.0233C0.555556 15.9033 0.522222 15.77 0.522222 15.6233V13.8233C0.468889 13.5433 0.468889 13.25 0.522222 12.9433C0.522222 12.7967 0.548889 12.67 0.602222 12.5633C0.655556 12.4567 0.722222 12.3633 0.802222 12.2833C0.908889 12.1767 1.01556 12.1033 1.12222 12.0633C1.24222 12.0233 1.36889 12.0033 1.50222 12.0033H1.78222C1.92889 12.0033 2.02222 12.0233 2.06222 12.0633C2.14222 12.09 2.21556 12.1167 2.28222 12.1433C2.36222 12.17 2.41556 12.2167 2.44222 12.2833C2.52222 12.3633 2.59556 12.49 2.66222 12.6633C2.68889 12.7433 2.70889 12.8167 2.72222 12.8833C2.74889 12.95 2.76222 13.0233 2.76222 13.1033C2.76222 13.1833 2.76889 13.2633 2.78222 13.3433C2.80889 13.41 2.82222 13.4767 2.82222 13.5433V13.8633C2.82222 13.93 2.82889 13.99 2.84222 14.0433C2.86889 14.0833 2.88222 14.1367 2.88222 14.2033C2.90889 14.2033 2.94889 14.21 3.00222 14.2233C3.06889 14.2367 3.15556 14.2433 3.26222 14.2433H13.3422ZM3.16222 5.82333C3.25556 5.97 3.41556 6.04333 3.64222 6.04333H11.3222C11.4289 6.04333 11.5022 6.02333 11.5422 5.98333C11.5689 5.95667 11.5889 5.92333 11.6022 5.88333C11.6289 5.83 11.6422 5.77 11.6422 5.70333V4.82333H3.04222V5.40333C3.06889 5.45667 3.08889 5.53667 3.10222 5.64333C3.11556 5.73667 3.13556 5.79667 3.16222 5.82333Z" fill="#EA7171"/>
<path d="M22.931 1.24333C23.7443 1.71 24.3243 2.31 24.671 3.04333C24.8443 3.40333 24.9576 3.80333 25.011 4.24333C25.0643 4.68333 25.0776 5.17667 25.051 5.72333C25.011 6.32333 24.8776 6.86333 24.651 7.34333C24.4243 7.82333 24.1243 8.23667 23.751 8.58333C23.391 8.91667 22.9643 9.17667 22.471 9.36333C21.9776 9.53667 21.451 9.62333 20.891 9.62333H19.871C19.7376 9.62333 19.6043 9.62333 19.471 9.62333C19.3376 9.61 19.1976 9.59 19.051 9.56333C18.9043 9.56333 18.7643 9.54333 18.631 9.50333C18.4976 9.46333 18.3576 9.43 18.211 9.40333C18.0643 9.33667 17.9176 9.26333 17.771 9.18333C17.6376 9.10333 17.4776 9.01 17.291 8.90333C16.6776 8.50333 16.251 7.96333 16.011 7.28333C15.9043 6.97667 15.8243 6.65 15.771 6.30333C15.7176 5.95667 15.691 5.61667 15.691 5.28333C15.691 4.92333 15.7176 4.57667 15.771 4.24333C15.8376 3.91 15.9443 3.59 16.091 3.28333C16.1976 2.96333 16.3576 2.68333 16.571 2.44333C16.7843 2.19 17.0243 1.95 17.291 1.72333C17.531 1.52333 17.7776 1.35667 18.031 1.22333C18.2843 1.07667 18.5643 0.963333 18.871 0.883333C19.1376 0.776666 19.4243 0.71 19.731 0.683333C20.0376 0.656667 20.331 0.656667 20.611 0.683333C20.7576 0.723333 20.8776 0.75 20.971 0.763333C21.0776 0.763333 21.1776 0.763333 21.271 0.763333C21.3776 0.79 21.471 0.81 21.551 0.823334C21.6443 0.823334 21.731 0.843334 21.811 0.883333C21.9043 0.91 21.991 0.936667 22.071 0.963333C22.1643 0.976666 22.251 1.00333 22.331 1.04333C22.411 1.07 22.5043 1.10333 22.611 1.14333C22.7176 1.18333 22.8243 1.21667 22.931 1.24333ZM29.611 14.3633C29.7976 14.3633 29.951 14.4433 30.071 14.6033C30.191 14.7633 30.271 14.9567 30.311 15.1833C30.3376 15.45 30.3243 15.67 30.271 15.8433C30.2176 16.0033 30.1376 16.1567 30.031 16.3033C29.831 16.4767 29.6576 16.5833 29.511 16.6233C29.4443 16.6233 29.3843 16.6367 29.331 16.6633C29.2776 16.69 29.2043 16.7033 29.111 16.7033H19.331C19.051 16.7033 18.8043 16.6967 18.591 16.6833C18.391 16.67 18.211 16.6233 18.051 16.5433C17.9043 16.4633 17.7843 16.3433 17.691 16.1833C17.611 16.0367 17.571 15.89 17.571 15.7433V11.6233C17.651 11.33 17.7843 11.11 17.971 10.9633C18.1176 10.87 18.251 10.8033 18.371 10.7633C18.5043 10.71 18.651 10.6833 18.811 10.6833C18.8376 10.6833 18.9176 10.6967 19.051 10.7233C19.1976 10.7367 19.291 10.7433 19.331 10.7433C19.411 10.77 19.4843 10.8033 19.551 10.8433C19.631 10.87 19.7043 10.93 19.771 11.0233C19.7976 11.0767 19.831 11.1367 19.871 11.2033C19.911 11.2567 19.9443 11.3233 19.971 11.4033C20.011 11.4967 20.031 11.5833 20.031 11.6633C20.0443 11.7433 20.0643 11.8233 20.091 11.9033V14.3033H20.491C20.571 14.3167 20.6643 14.3233 20.771 14.3233C20.8643 14.3367 20.9643 14.3433 21.071 14.3433C21.1776 14.3433 21.2976 14.3433 21.431 14.3433C21.511 14.3433 21.711 14.3433 22.031 14.3433C22.3643 14.3433 22.7576 14.3433 23.211 14.3433C23.6776 14.33 24.1843 14.3233 24.731 14.3233C25.2776 14.3233 25.7976 14.3233 26.291 14.3233C26.7976 14.3233 27.251 14.33 27.651 14.3433C28.0643 14.3433 28.371 14.3433 28.571 14.3433H29.071C29.0976 14.3433 29.1576 14.35 29.251 14.3633C29.3443 14.3633 29.4643 14.3633 29.611 14.3633ZM22.651 5.10333C22.6243 4.95667 22.5976 4.83 22.571 4.72333C22.5443 4.60333 22.5176 4.48333 22.491 4.36333C22.4243 4.25667 22.3643 4.15 22.311 4.04333C22.2576 3.93667 22.1843 3.84333 22.091 3.76333C22.011 3.68333 21.9176 3.61667 21.811 3.56333C21.7043 3.49667 21.5776 3.43 21.431 3.36333C21.2576 3.32333 21.091 3.29 20.931 3.26333C20.771 3.22333 20.6043 3.20333 20.431 3.20333C20.2443 3.20333 20.0643 3.22333 19.891 3.26333C19.7176 3.29 19.5576 3.32333 19.411 3.36333C19.251 3.45667 19.0976 3.55 18.951 3.64333C18.8176 3.73667 18.6976 3.85667 18.591 4.00333C18.4576 4.11 18.3576 4.25 18.291 4.42333C18.2243 4.58333 18.1576 4.77667 18.091 5.00333C18.091 5.15 18.091 5.29 18.091 5.42333C18.091 5.55667 18.1043 5.69667 18.131 5.84333C18.131 5.97667 18.1576 6.11 18.211 6.24333C18.2643 6.37667 18.331 6.49667 18.411 6.60333C18.5043 6.72333 18.6043 6.83 18.711 6.92333C18.8176 7.00333 18.931 7.08333 19.051 7.16333C19.1976 7.24333 19.351 7.31667 19.511 7.38333C19.671 7.43667 19.8643 7.47667 20.091 7.50333C20.2376 7.50333 20.3776 7.50333 20.511 7.50333C20.6443 7.49 20.7843 7.47 20.931 7.44333C21.1976 7.44333 21.4576 7.37 21.711 7.22333C21.8176 7.17 21.9243 7.10333 22.031 7.02333C22.151 6.93 22.251 6.83 22.331 6.72333C22.5043 6.48333 22.611 6.22333 22.651 5.94333V5.10333ZM30.191 9.18333C30.191 9.31667 30.1776 9.45 30.151 9.58333C30.1243 9.71667 30.0976 9.85667 30.071 10.0033C29.951 10.43 29.671 10.69 29.231 10.7833C28.8043 10.8767 28.4576 10.7833 28.191 10.5033C27.9376 10.2233 27.7843 9.89 27.731 9.50333C27.7043 9.39667 27.6843 9.29 27.671 9.18333C27.671 9.06333 27.671 8.95 27.671 8.84333V8.16333L27.731 3.00333C27.731 2.81667 27.7243 2.61667 27.711 2.40333C27.711 2.17667 27.7243 1.96333 27.751 1.76333C27.791 1.55 27.8643 1.35667 27.971 1.18333C28.0776 1.01 28.2443 0.87 28.471 0.763333C28.5776 0.696667 28.691 0.663333 28.811 0.663333C28.9443 0.65 29.0843 0.656667 29.231 0.683333C29.5376 0.723333 29.7643 0.85 29.911 1.06333C30.071 1.27667 30.1643 1.52333 30.191 1.80333V9.18333Z" fill="#EA7171"/>
<path d="M40.2878 7.10333C40.4878 7.11667 40.6678 7.12333 40.8278 7.12333C41.0012 7.12333 41.1545 7.12333 41.2878 7.12333C41.4345 7.12333 41.5745 7.11667 41.7078 7.10333H42.7278C42.7812 7.10333 42.8412 7.11 42.9078 7.12333C42.9745 7.12333 43.0412 7.11667 43.1078 7.10333H43.5878C43.7345 7.10333 43.8745 7.11667 44.0078 7.14333C44.1545 7.17 44.2878 7.21667 44.4078 7.28333C44.5945 7.40333 44.7145 7.57667 44.7678 7.80333C44.8212 8.03 44.8345 8.25 44.8078 8.46333C44.8078 8.55667 44.8012 8.65667 44.7878 8.76333C44.7878 8.87 44.7545 8.96333 44.6878 9.04333C44.5412 9.24333 44.3878 9.37 44.2278 9.42333C44.0812 9.46333 43.9212 9.48333 43.7478 9.48333H42.1278C42.0212 9.48333 41.8812 9.49 41.7078 9.50333C41.5345 9.50333 41.3545 9.50333 41.1678 9.50333C40.9945 9.50333 40.8278 9.50333 40.6678 9.50333C40.5078 9.49 40.3878 9.48333 40.3078 9.48333C40.3078 9.73667 40.3078 10.0033 40.3078 10.2833C40.3078 10.55 40.3078 10.7967 40.3078 11.0233C40.3078 11.2367 40.3012 11.4167 40.2878 11.5633C40.2878 11.71 40.2878 11.7833 40.2878 11.7833V12.2833C40.2878 12.47 40.3012 12.63 40.3278 12.7633C40.3545 12.8967 40.3812 12.97 40.4078 12.9833C40.4879 13.0367 40.5945 13.0767 40.7278 13.1033C40.8612 13.13 41.0478 13.1433 41.2878 13.1433C41.3812 13.1433 41.5412 13.1433 41.7678 13.1433C41.9945 13.1433 42.2212 13.1433 42.4478 13.1433C42.6745 13.1433 42.8745 13.1433 43.0478 13.1433C43.2345 13.13 43.3412 13.1233 43.3678 13.1233H43.6678C43.8678 13.1233 44.0678 13.13 44.2678 13.1433C44.4678 13.1567 44.6678 13.1967 44.8678 13.2633C44.9212 13.2767 44.9878 13.31 45.0678 13.3633C45.2278 13.4833 45.3412 13.6433 45.4078 13.8433C45.4879 14.03 45.5212 14.2233 45.5078 14.4233C45.4945 14.6233 45.4412 14.8167 45.3478 15.0033C45.2545 15.1767 45.1212 15.31 44.9478 15.4033C44.6812 15.5633 44.3945 15.67 44.0878 15.7233C43.7812 15.7767 43.4945 15.8033 43.2278 15.8033H42.6478C42.4745 15.8033 42.3212 15.8033 42.1878 15.8033C42.0678 15.8033 41.9412 15.8033 41.8078 15.8033C41.6878 15.8033 41.5612 15.8033 41.4278 15.8033C41.3078 15.8033 41.1612 15.8033 40.9878 15.8033H40.6678C40.4678 15.8033 40.2478 15.7967 40.0078 15.7833C39.7678 15.77 39.5345 15.7367 39.3078 15.6833C39.0812 15.63 38.8678 15.5567 38.6678 15.4633C38.4812 15.3567 38.3212 15.2233 38.1878 15.0633C38.0678 14.9167 37.9745 14.7167 37.9078 14.4633C37.8412 14.21 37.7945 13.9633 37.7678 13.7233C37.7545 13.47 37.7478 13.25 37.7478 13.0633C37.7478 12.8767 37.7478 12.7767 37.7478 12.7633V3.22333C37.7478 3.21 37.7478 3.15667 37.7478 3.06333C37.7478 2.95667 37.7545 2.84333 37.7678 2.72333C37.7812 2.59 37.7945 2.46333 37.8078 2.34333C37.8345 2.21 37.8678 2.11 37.9078 2.04333C38.0145 1.85667 38.1212 1.72333 38.2278 1.64333C38.3478 1.55 38.5012 1.49 38.6878 1.46333C38.7412 1.45 38.8012 1.44333 38.8678 1.44333C38.9478 1.44333 39.0212 1.43667 39.0878 1.42333C39.1679 1.42333 39.2545 1.41667 39.3478 1.40333H43.3278C43.3945 1.40333 43.4612 1.41 43.5278 1.42333C43.5945 1.42333 43.6545 1.41667 43.7078 1.40333H43.7478C43.8678 1.40333 43.9812 1.41 44.0878 1.42333C44.2078 1.43667 44.3278 1.46333 44.4478 1.50333C44.5545 1.53 44.6612 1.56333 44.7678 1.60333C44.8878 1.63 44.9878 1.69667 45.0678 1.80333C45.2278 1.99 45.3212 2.20333 45.3478 2.44333C45.3745 2.55 45.3878 2.65 45.3878 2.74333C45.4012 2.82333 45.3945 2.91667 45.3678 3.02333C45.3412 3.29 45.2412 3.53 45.0678 3.74333C44.8945 3.94333 44.6678 4.04333 44.3878 4.04333H40.2878V7.10333ZM52.3278 14.4633C52.3412 14.8233 52.3212 15.19 52.2678 15.5633C52.2145 15.9367 52.0412 16.2233 51.7478 16.4233C51.5212 16.5567 51.3212 16.6233 51.1478 16.6233C50.9212 16.6233 50.7345 16.5433 50.5878 16.3833C50.4545 16.2233 50.3478 16.03 50.2678 15.8033C50.2012 15.5767 50.1545 15.3433 50.1278 15.1033C50.1145 14.85 50.1078 14.63 50.1078 14.4433V9.48333H48.8078V14.5633C48.8345 14.87 48.8212 15.19 48.7678 15.5233C48.7278 15.8433 48.6412 16.0967 48.5078 16.2833C48.3478 16.51 48.1145 16.6233 47.8078 16.6233C47.6612 16.6233 47.5212 16.59 47.3878 16.5233C47.2678 16.4567 47.1545 16.37 47.0478 16.2633C46.8212 16.0367 46.6878 15.7633 46.6478 15.4433C46.6078 15.1233 46.5878 14.81 46.5878 14.5033V2.80333C46.5878 2.61667 46.5945 2.41667 46.6078 2.20333C46.6212 1.97667 46.6612 1.76333 46.7278 1.56333C46.7945 1.36333 46.8878 1.19 47.0078 1.04333C47.1412 0.883333 47.3212 0.776666 47.5478 0.723333C47.8545 0.656666 48.1012 0.73 48.2878 0.943333C48.4345 1.09 48.5412 1.29667 48.6078 1.56333C48.6878 1.83 48.7412 2.12333 48.7678 2.44333C48.7945 2.75 48.8078 3.07667 48.8078 3.42333C48.8078 3.75667 48.8078 4.07 48.8078 4.36333V7.06333H50.1078V2.98333C50.1078 2.79667 50.1078 2.58333 50.1078 2.34333C50.1078 2.09 50.1278 1.85 50.1678 1.62333C50.2212 1.38333 50.3145 1.18333 50.4478 1.02333C50.5945 0.85 50.8078 0.75 51.0878 0.723333C51.3812 0.696666 51.6145 0.783333 51.7878 0.983333C51.9478 1.14333 52.0678 1.35667 52.1478 1.62333C52.2278 1.89 52.2812 2.17667 52.3078 2.48333C52.3345 2.79 52.3478 3.09667 52.3478 3.40333C52.3478 3.69667 52.3412 3.95 52.3278 4.16333V14.4633Z" fill="#EA7171"/>
<path d="M58.3094 0.743334C58.4827 0.743334 58.6494 0.75 58.8094 0.763333C58.9694 0.776667 59.1294 0.796667 59.2894 0.823334C59.7961 0.903334 60.2427 1.13667 60.6294 1.52333C60.9494 1.87 61.2094 2.27 61.4094 2.72333C61.6094 3.16333 61.7627 3.63 61.8694 4.12333C61.9894 4.61667 62.0694 5.12333 62.1094 5.64333C62.1494 6.15 62.1827 6.64333 62.2094 7.12333C62.2361 7.73667 62.2427 8.35 62.2294 8.96333C62.2294 9.57667 62.1961 10.1833 62.1294 10.7833C62.0627 11.41 61.9627 12.0433 61.8294 12.6833C61.7094 13.31 61.4827 13.8767 61.1494 14.3833C60.8694 14.81 60.5294 15.1633 60.1294 15.4433C59.7427 15.71 59.3227 15.89 58.8694 15.9833C58.4561 16.0633 58.0361 16.0767 57.6094 16.0233C57.1827 15.97 56.7761 15.83 56.3894 15.6033C56.0294 15.39 55.7361 15.1233 55.5094 14.8033C55.2961 14.4833 55.0961 14.11 54.9094 13.6833C54.6427 13.0433 54.4894 12.3833 54.4494 11.7033C54.3961 11.1433 54.3561 10.5833 54.3294 10.0233C54.3161 9.46333 54.3094 8.90333 54.3094 8.34333C54.3094 7.59667 54.3494 6.85 54.4294 6.10333C54.4561 5.79667 54.4827 5.49667 54.5094 5.20333C54.5361 4.89667 54.5761 4.59667 54.6294 4.30333C54.6827 4.06333 54.7294 3.83667 54.7694 3.62333C54.8094 3.41 54.8827 3.19 54.9894 2.96333C55.0961 2.73667 55.2094 2.52333 55.3294 2.32333C55.4627 2.12333 55.6161 1.94333 55.7894 1.78333C56.3494 1.22333 57.0227 0.89 57.8094 0.783333C57.8894 0.77 57.9694 0.763333 58.0494 0.763333C58.1427 0.763333 58.2294 0.756667 58.3094 0.743334ZM68.3094 6.88333C68.3761 6.88333 68.4361 6.89 68.4894 6.90333C68.5561 6.91667 68.6227 6.92333 68.6894 6.92333C68.7561 6.93667 68.8294 6.95 68.9094 6.96333C68.9894 6.96333 69.0694 6.97 69.1494 6.98333C69.2961 7.01 69.4427 7.06333 69.5894 7.14333C69.7361 7.21 69.8427 7.31667 69.9094 7.46333C70.0027 7.61 70.0494 7.78333 70.0494 7.98333C70.0494 8.09 70.0427 8.19 70.0294 8.28333C70.0294 8.36333 70.0161 8.45667 69.9894 8.56333C69.9627 8.67 69.9294 8.78333 69.8894 8.90333C69.8627 9.02333 69.8027 9.11667 69.7094 9.18333C69.5227 9.31667 69.3427 9.40333 69.1694 9.44333C68.9561 9.47 68.6961 9.47667 68.3894 9.46333C68.0827 9.45 67.8227 9.45 67.6094 9.46333C67.5961 9.46333 67.5827 9.47 67.5694 9.48333H67.5494L67.5294 9.50333V9.56333C67.5294 9.72333 67.5294 9.91667 67.5294 10.1433C67.5294 10.37 67.5294 10.6033 67.5294 10.8433C67.5294 11.07 67.5294 11.2967 67.5294 11.5233C67.5294 11.7367 67.5294 11.93 67.5294 12.1033C67.5561 12.7967 67.5561 13.4767 67.5294 14.1433V14.4233C67.5294 14.5967 67.5227 14.79 67.5094 15.0033C67.5094 15.2033 67.4961 15.4033 67.4694 15.6033C67.4427 15.8033 67.3961 15.9967 67.3294 16.1833C67.2627 16.3567 67.1694 16.5033 67.0494 16.6233C66.8894 16.81 66.6761 16.9033 66.4094 16.9033C66.4094 16.9033 66.3961 16.8967 66.3694 16.8833C66.0494 16.87 65.7894 16.7767 65.5894 16.6033C65.4027 16.43 65.2561 16.2167 65.1494 15.9633C65.0561 15.71 64.9961 15.45 64.9694 15.1833C64.9427 14.9033 64.9294 14.6567 64.9294 14.4433V2.56333C64.9294 2.55 64.9294 2.49 64.9294 2.38333C64.9294 2.26333 64.9427 2.13 64.9694 1.98333C64.9961 1.82333 65.0361 1.66333 65.0894 1.50333C65.1561 1.33 65.2427 1.19 65.3494 1.08333C65.4427 0.99 65.5761 0.923333 65.7494 0.883333C65.9361 0.83 66.1027 0.803333 66.2494 0.803333C66.5427 0.803333 66.7894 0.903333 66.9894 1.10333C67.1761 1.29 67.2827 1.49 67.3094 1.70333C67.3494 1.90333 67.3827 2.11667 67.4094 2.34333C67.4227 2.39667 67.4294 2.47667 67.4294 2.58333C67.4561 2.81 67.4694 3.04333 67.4694 3.28333C67.4827 3.52333 67.4961 3.76333 67.5094 4.00333C67.5094 4.15 67.5094 4.29667 67.5094 4.44333C67.5227 4.57667 67.5294 4.71667 67.5294 4.86333C67.5161 4.94333 67.5094 5.02333 67.5094 5.10333C67.5227 5.17 67.5294 5.23667 67.5294 5.30333V6.40333C67.5294 6.47 67.5294 6.54333 67.5294 6.62333C67.5294 6.70333 67.5427 6.77667 67.5694 6.84333C67.5694 6.85667 67.6361 6.86333 67.7694 6.86333C67.9027 6.86333 67.9761 6.86333 67.9894 6.86333C68.1094 6.89 68.2027 6.89667 68.2694 6.88333H68.3094ZM58.2494 13.3233C58.5027 13.3233 58.7494 13.2433 58.9894 13.0833C59.2161 12.9233 59.3761 12.71 59.4694 12.4433C59.5627 12.1767 59.6427 11.8833 59.7094 11.5633C59.8161 10.95 59.8761 10.2967 59.8894 9.60333C59.9027 8.91 59.8961 8.24333 59.8694 7.60333C59.8694 7.35 59.8627 7.08333 59.8494 6.80333C59.8361 6.51 59.8094 6.22333 59.7694 5.94333C59.7427 5.66333 59.6961 5.39667 59.6294 5.14333C59.5627 4.87667 59.4694 4.64333 59.3494 4.44333C59.2161 4.21667 59.0561 4.04333 58.8694 3.92333C58.6827 3.80333 58.4827 3.75667 58.2694 3.78333C58.0427 3.81 57.8294 3.89 57.6294 4.02333C57.4427 4.15667 57.2894 4.35667 57.1694 4.62333L56.9894 5.04333C56.9094 5.29667 56.8494 5.56333 56.8094 5.84333C56.7694 6.11 56.7361 6.37667 56.7094 6.64333C56.6827 6.91 56.6627 7.18333 56.6494 7.46333C56.6361 7.74333 56.6294 8.01667 56.6294 8.28333C56.6427 8.55 56.6361 8.81 56.6094 9.06333C56.5961 9.31667 56.6027 9.57667 56.6294 9.84333C56.6561 10.19 56.6894 10.5633 56.7294 10.9633C56.7827 11.3633 56.8627 11.7433 56.9694 12.1033C57.0894 12.45 57.2494 12.7433 57.4494 12.9833C57.6494 13.21 57.9161 13.3233 58.2494 13.3233Z" fill="#EA7171"/>
<path d="M83.0663 5.48333L81.9863 6.56333C81.6929 6.84333 81.3996 7.11667 81.1063 7.38333C80.813 7.65 80.5129 7.91667 80.2063 8.18333C80.1796 8.21 80.1529 8.23667 80.1263 8.26333C80.0996 8.27667 80.073 8.29667 80.0463 8.32333C79.793 8.55 79.5396 8.79 79.2863 9.04333C79.0463 9.29667 78.753 9.47667 78.4063 9.58333C78.1663 9.65 77.9063 9.64333 77.6263 9.56333C77.3463 9.48333 77.1329 9.34333 76.9863 9.14333C76.8796 8.98333 76.8263 8.82333 76.8263 8.66333C76.8263 8.50333 76.853 8.35 76.9063 8.20333C76.973 8.04333 77.053 7.89 77.1463 7.74333C77.2396 7.59667 77.3396 7.46333 77.4463 7.34333C77.8463 6.87667 78.2596 6.43667 78.6863 6.02333C79.1263 5.59667 79.573 5.18333 80.0263 4.78333C80.173 4.66333 80.3396 4.50333 80.5263 4.30333C80.713 4.09 80.893 3.88333 81.0663 3.68333C81.2663 3.44333 81.473 3.20333 81.6863 2.96333C81.6596 2.65667 81.6529 2.36333 81.6663 2.08333C81.6796 1.84333 81.713 1.60333 81.7663 1.36333C81.8196 1.12333 81.9196 0.929999 82.0663 0.783333C82.2396 0.623333 82.4863 0.523333 82.8063 0.483333C83.1263 0.43 83.393 0.436667 83.6063 0.503333C83.9129 0.596667 84.1263 0.756667 84.2463 0.983333C84.3796 1.21 84.4663 1.47667 84.5063 1.78333C84.5196 2.03667 84.5196 2.25667 84.5063 2.44333C84.5063 2.61667 84.5796 2.81 84.7263 3.02333C84.833 3.18333 84.953 3.33667 85.0863 3.48333C85.233 3.63 85.373 3.77667 85.5063 3.92333C85.973 4.44333 86.4263 4.94333 86.8663 5.42333C87.3196 5.90333 87.7863 6.39667 88.2663 6.90333C88.4263 7.06333 88.5796 7.26333 88.7263 7.50333C88.873 7.74333 88.9729 7.99 89.0263 8.24333C89.0929 8.48333 89.0863 8.71667 89.0063 8.94333C88.9396 9.15667 88.7663 9.33 88.4863 9.46333C88.2863 9.55667 88.093 9.59667 87.9063 9.58333C87.7196 9.55667 87.5396 9.50333 87.3663 9.42333C87.193 9.33 87.0263 9.21667 86.8663 9.08333C86.7196 8.95 86.5863 8.81667 86.4663 8.68333L83.0663 5.48333ZM77.2863 13.2433C76.9796 13.23 76.6863 13.19 76.4063 13.1233C76.1396 13.0433 75.9196 12.87 75.7463 12.6033C75.5996 12.3767 75.5263 12.1367 75.5263 11.8833C75.5396 11.6167 75.6396 11.39 75.8263 11.2033C75.933 11.0967 76.0663 11.0167 76.2263 10.9633C76.3863 10.91 76.5396 10.87 76.6863 10.8433C76.833 10.8167 76.9596 10.8033 77.0663 10.8033C77.1863 10.8033 77.2529 10.8033 77.2663 10.8033H88.3663C88.5796 10.79 88.8063 10.79 89.0463 10.8033C89.2996 10.8167 89.533 10.8633 89.7463 10.9433C89.9596 11.01 90.1396 11.13 90.2863 11.3033C90.433 11.4633 90.5063 11.69 90.5063 11.9833C90.5063 12.3167 90.393 12.57 90.1663 12.7433C89.9396 12.9033 89.6663 13.0233 89.3463 13.1033C89.0396 13.17 88.7196 13.21 88.3863 13.2233C88.0529 13.2233 87.7796 13.2233 87.5663 13.2233H86.7863C86.5196 13.2367 86.2596 13.2433 86.0063 13.2433C85.753 13.23 85.493 13.2233 85.2263 13.2233H84.4663C84.4796 13.5967 84.493 13.99 84.5063 14.4033C84.5196 14.8167 84.4996 15.1833 84.4463 15.5033C84.4196 15.7567 84.353 15.9967 84.2463 16.2233C84.153 16.4633 83.993 16.6567 83.7663 16.8033C83.5663 16.9367 83.333 17.0033 83.0663 17.0033C82.7996 17.0167 82.5596 16.9633 82.3463 16.8433C82.173 16.7367 82.0396 16.5833 81.9463 16.3833C81.8663 16.1833 81.813 15.99 81.7863 15.8033C81.7596 15.6567 81.7463 15.4967 81.7463 15.3233C81.7596 15.15 81.7663 14.99 81.7663 14.8433C81.753 14.6033 81.7463 14.3433 81.7463 14.0633C81.7463 13.77 81.7463 13.4833 81.7463 13.2033H81.2463C80.8729 13.2033 80.5263 13.21 80.2063 13.2233C79.8863 13.2233 79.573 13.23 79.2663 13.2433C78.9596 13.2433 78.6463 13.2433 78.3263 13.2433C78.0063 13.2433 77.6596 13.2433 77.2863 13.2433Z" fill="#EA7171"/>
<path d="M94.7275 10.0833C94.8075 10.0033 94.8809 9.91 94.9475 9.80333C95.0275 9.68333 95.0875 9.60333 95.1275 9.56333V5.04333C95.0609 5.07 95.0009 5.07667 94.9475 5.06333C94.8942 5.05 94.8342 5.04333 94.7675 5.04333H94.2275C93.7609 5.04333 93.3542 5.03667 93.0075 5.02333C92.6742 5.01 92.4609 4.99 92.3675 4.96333C92.1275 4.91 91.9209 4.82333 91.7475 4.70333C91.5875 4.57 91.4675 4.38333 91.3875 4.14333C91.3609 4.05 91.3409 3.96333 91.3275 3.88333C91.3142 3.80333 91.3209 3.71 91.3475 3.60333C91.3475 3.47 91.4142 3.30333 91.5475 3.10333C91.5875 3.03667 91.6475 2.97667 91.7275 2.92333C91.8075 2.87 91.8875 2.82333 91.9675 2.78333C92.0475 2.71667 92.1275 2.67667 92.2075 2.66333C92.2875 2.63667 92.3675 2.61 92.4475 2.58333H95.0875C95.0875 2.43667 95.0942 2.24333 95.1075 2.00333C95.1209 1.75 95.1275 1.56333 95.1275 1.44333C95.1542 1.27 95.1942 1.11667 95.2475 0.983333C95.3009 0.836667 95.3609 0.703333 95.4275 0.583333C95.5875 0.33 95.8209 0.163333 96.1275 0.0833326C96.2742 0.016666 96.4209 -0.0100003 96.5675 0.00333362C96.7275 0.0166668 96.8809 0.0566667 97.0275 0.123333C97.1342 0.163334 97.2275 0.223334 97.3075 0.303333C97.4009 0.37 97.4675 0.45 97.5075 0.543333C97.6675 0.73 97.7675 0.916667 97.8075 1.10333C97.8342 1.21 97.8542 1.32333 97.8675 1.44333C97.8809 1.56333 97.8875 1.68333 97.8875 1.80333V2.58333H99.2475C99.5142 2.58333 99.7542 2.59 99.9675 2.60333C100.181 2.61667 100.381 2.63667 100.568 2.66333C100.754 2.70333 100.921 2.77667 101.068 2.88333C101.228 2.97667 101.361 3.11 101.468 3.28333C101.574 3.45667 101.628 3.64333 101.628 3.84333C101.668 3.99 101.641 4.15667 101.548 4.34333C101.388 4.65 101.074 4.85667 100.608 4.96333C100.461 4.99 100.294 5.00333 100.108 5.00333C99.9342 5.00333 99.7475 5.01667 99.5475 5.04333C99.3342 5.04333 99.0875 5.05 98.8075 5.06333C98.5275 5.07667 98.2209 5.07 97.8875 5.04333C97.8875 5.15 97.8809 5.27667 97.8675 5.42333C97.8675 5.57 97.8675 5.71667 97.8675 5.86333C97.8675 6.01 97.8675 6.15 97.8675 6.28333C97.8675 6.40333 97.8742 6.50333 97.8875 6.58333V8.78333C97.8875 8.85 97.8809 8.91667 97.8675 8.98333C97.8542 9.03667 97.8609 9.10333 97.8875 9.18333V9.50333C97.9542 9.55667 98.0142 9.63 98.0675 9.72333C98.1342 9.80333 98.2209 9.89667 98.3275 10.0033C98.4209 10.0833 98.4942 10.1633 98.5475 10.2433C98.6142 10.3233 98.6809 10.3967 98.7475 10.4633C98.8142 10.5433 98.8742 10.6233 98.9275 10.7033C98.9942 10.7833 99.0675 10.8633 99.1475 10.9433C99.2142 11.01 99.2809 11.09 99.3475 11.1833C99.4142 11.2767 99.4875 11.3633 99.5675 11.4433C99.6075 11.51 99.6475 11.57 99.6875 11.6233C99.7275 11.6767 99.7675 11.7233 99.8075 11.7633C99.8875 11.8833 99.9542 11.9967 100.008 12.1033C100.141 12.2633 100.268 12.43 100.388 12.6033C100.508 12.7633 100.628 12.95 100.748 13.1633C100.894 13.35 101.008 13.5433 101.088 13.7433C101.181 13.93 101.248 14.1167 101.288 14.3033C101.328 14.49 101.328 14.6833 101.288 14.8833C101.248 15.0833 101.154 15.2633 101.008 15.4233C100.821 15.5833 100.574 15.6633 100.268 15.6633C100.121 15.6633 99.9809 15.65 99.8475 15.6233C99.7275 15.5833 99.5942 15.53 99.4475 15.4633C99.3142 15.3833 99.1942 15.3033 99.0875 15.2233C98.9942 15.13 98.8942 15.0433 98.7875 14.9633C98.6675 14.8433 98.5542 14.7167 98.4475 14.5833C98.3409 14.4367 98.2342 14.3033 98.1275 14.1833C98.0209 14.0633 97.9142 13.9367 97.8075 13.8033C97.7142 13.6567 97.6142 13.51 97.5075 13.3633C97.3609 13.2167 97.2009 13.0233 97.0275 12.7833C96.9475 12.6633 96.8542 12.5633 96.7475 12.4833C96.6542 12.39 96.5675 12.3033 96.4875 12.2233C96.4075 12.33 96.3275 12.4367 96.2475 12.5433C96.1675 12.6367 96.0875 12.7367 96.0075 12.8433C95.9142 12.95 95.8275 13.05 95.7475 13.1433C95.6675 13.2367 95.5875 13.3367 95.5075 13.4433C95.4275 13.5767 95.3342 13.71 95.2275 13.8433C95.1342 13.9767 95.0342 14.1033 94.9275 14.2233C94.8475 14.3567 94.7542 14.49 94.6475 14.6233C94.5542 14.7567 94.4409 14.8833 94.3075 15.0033C94.0409 15.27 93.7875 15.4567 93.5475 15.5633C93.3209 15.6567 93.0875 15.7033 92.8475 15.7033C92.7809 15.7033 92.7142 15.7033 92.6475 15.7033C92.5942 15.7033 92.5342 15.69 92.4675 15.6633C92.1875 15.5833 91.9809 15.4033 91.8475 15.1233C91.7542 14.91 91.7275 14.6967 91.7675 14.4833C91.7942 14.35 91.8209 14.23 91.8475 14.1233C91.8742 14.0033 91.9209 13.9033 91.9875 13.8233C92.0275 13.7167 92.0742 13.6167 92.1275 13.5233C92.1809 13.4167 92.2409 13.31 92.3075 13.2033C92.3742 13.1233 92.4342 13.0367 92.4875 12.9433C92.5542 12.85 92.6342 12.7567 92.7275 12.6633C92.7675 12.6233 92.8075 12.5767 92.8475 12.5233C92.8875 12.47 92.9275 12.4233 92.9675 12.3833L93.2075 12.0233C93.2475 11.93 93.2942 11.8567 93.3475 11.8033C93.4009 11.7367 93.4809 11.63 93.5875 11.4833C93.6942 11.3633 93.7942 11.2433 93.8875 11.1233C93.9809 11.0033 94.0675 10.89 94.1475 10.7833C94.2542 10.6633 94.3542 10.5433 94.4475 10.4233C94.5542 10.3033 94.6475 10.19 94.7275 10.0833ZM105.668 15.1233C105.641 15.2033 105.628 15.2833 105.628 15.3633C105.628 15.4433 105.614 15.5233 105.588 15.6033C105.588 15.8167 105.528 16.0433 105.408 16.2833C105.301 16.5233 105.154 16.6967 104.968 16.8033C104.821 16.87 104.661 16.91 104.488 16.9233C104.328 16.95 104.174 16.95 104.028 16.9233C103.734 16.8567 103.521 16.71 103.388 16.4833C103.254 16.27 103.168 16.03 103.128 15.7633C103.101 15.6567 103.088 15.5567 103.088 15.4633C103.088 15.37 103.074 15.27 103.048 15.1633C103.048 14.9767 103.054 14.77 103.068 14.5433C103.081 14.3033 103.088 14.07 103.088 13.8433C103.061 13.35 103.054 12.87 103.068 12.4033C103.081 11.9233 103.088 11.43 103.088 10.9233C103.088 10.35 103.081 9.77667 103.068 9.20333C103.054 8.61667 103.061 8.03 103.088 7.44333V1.94333C103.114 1.83667 103.134 1.74333 103.148 1.66333C103.161 1.58333 103.181 1.50333 103.208 1.42333C103.248 1.34333 103.281 1.27 103.308 1.20333C103.334 1.13667 103.381 1.08333 103.448 1.04333C103.514 0.976667 103.588 0.923333 103.668 0.883333C103.748 0.83 103.828 0.803333 103.908 0.803333C103.988 0.776667 104.068 0.756667 104.148 0.743334C104.228 0.73 104.308 0.723333 104.388 0.723333C104.628 0.723333 104.834 0.79 105.008 0.923334C105.208 1.04333 105.348 1.22333 105.428 1.46333C105.561 1.73 105.628 2.01667 105.628 2.32333C105.654 2.73667 105.668 3.14333 105.668 3.54333C105.668 3.93 105.668 4.33 105.668 4.74333C105.708 5.30333 105.708 5.86333 105.668 6.42333V15.1233Z" fill="#EA7171"/>
</svg>
