<svg width="22" height="11" viewBox="0 0 22 11" fill="none" xmlns="http://www.w3.org/2000/svg">
<path d="M4.68 8.61C5.09 8.61 5.435 8.55 5.715 8.43C6.005 8.31 6.25 8.175 6.45 8.025C6.65 7.875 6.825 7.74 6.975 7.62C7.135 7.5 7.295 7.44 7.455 7.44C7.655 7.44 7.755 7.59 7.755 7.89C7.755 8.05 7.735 8.245 7.695 8.475C7.655 8.695 7.6 8.945 7.53 9.225C7.49 9.395 7.39 9.58 7.23 9.78C7.08 9.98 6.87 10.17 6.6 10.35C6.33 10.52 5.995 10.665 5.595 10.785C5.205 10.895 4.755 10.95 4.245 10.95C3.735 10.95 3.225 10.875 2.715 10.725C2.205 10.575 1.75 10.32 1.35 9.96C0.95 9.6 0.625 9.115 0.375 8.505C0.125 7.895 0 7.13 0 6.21C0 5.88 0.02 5.5 0.06 5.07C0.11 4.63 0.2 4.18 0.33 3.72C0.46 3.26 0.64 2.81 0.87 2.37C1.11 1.92 1.415 1.52 1.785 1.17C2.155 0.82 2.605 0.54 3.135 0.33C3.675 0.11 4.315 0 5.055 0C5.645 0 6.155 0.07 6.585 0.21C7.025 0.35 7.385 0.545 7.665 0.795C7.955 1.035 8.165 1.32 8.295 1.65C8.435 1.98 8.505 2.33 8.505 2.7C8.505 3.34 8.315 3.81 7.935 4.11C7.565 4.4 7.035 4.545 6.345 4.545C6.125 4.545 5.985 4.53 5.925 4.5C5.875 4.46 5.85 4.385 5.85 4.275C5.84 3.935 5.83 3.64 5.82 3.39C5.81 3.14 5.775 2.935 5.715 2.775C5.655 2.605 5.56 2.485 5.43 2.415C5.31 2.335 5.14 2.295 4.92 2.295C4.6 2.295 4.325 2.365 4.095 2.505C3.875 2.635 3.685 2.81 3.525 3.03C3.375 3.24 3.25 3.48 3.15 3.75C3.06 4.02 2.985 4.295 2.925 4.575C2.875 4.855 2.84 5.125 2.82 5.385C2.81 5.645 2.805 5.87 2.805 6.06C2.805 6.98 2.955 7.635 3.255 8.025C3.565 8.415 4.04 8.61 4.68 8.61Z" fill="black"/>
<path d="M18.9478 2.805C18.8678 3.045 18.7628 3.36 18.6328 3.75C18.5128 4.13 18.3778 4.55 18.2278 5.01C18.0778 5.47 17.9228 5.96 17.7628 6.48C17.6028 6.99 17.4378 7.49 17.2678 7.98C17.1078 8.47 16.9478 8.94 16.7878 9.39C16.6278 9.83 16.4828 10.215 16.3528 10.545C16.3128 10.625 16.2278 10.69 16.0978 10.74C15.9778 10.78 15.7828 10.8 15.5128 10.8C15.3428 10.8 15.1678 10.79 14.9878 10.77C14.8078 10.75 14.6378 10.71 14.4778 10.65C14.3278 10.59 14.1928 10.51 14.0728 10.41C13.9628 10.31 13.8778 10.185 13.8178 10.035C13.6678 9.525 13.5228 8.96 13.3828 8.34C13.2528 7.71 13.1228 7.07 12.9928 6.42C12.8628 5.77 12.7328 5.135 12.6028 4.515C12.4828 3.885 12.3578 3.315 12.2278 2.805C12.2278 2.945 12.2228 3.185 12.2128 3.525C12.2028 3.865 12.1928 4.26 12.1828 4.71C12.1728 5.16 12.1578 5.645 12.1378 6.165C12.1278 6.685 12.1178 7.195 12.1078 7.695C12.0978 8.185 12.0878 8.645 12.0778 9.075C12.0678 9.495 12.0628 9.84 12.0628 10.11C12.0628 10.41 12.0428 10.6 12.0028 10.68C11.9728 10.76 11.9128 10.8 11.8228 10.8H10.9978C10.4278 10.8 10.0228 10.69 9.78281 10.47C9.55281 10.24 9.43781 9.905 9.43781 9.465C9.43781 9.345 9.44281 9.145 9.45281 8.865C9.47281 8.575 9.49781 8.235 9.52781 7.845C9.55781 7.455 9.58781 7.03 9.61781 6.57C9.65781 6.1 9.69781 5.625 9.73781 5.145C9.78781 4.495 9.82781 3.955 9.85781 3.525C9.89781 3.085 9.92781 2.72 9.94781 2.43C9.96781 2.14 9.98281 1.905 9.99281 1.725C10.0128 1.545 10.0228 1.385 10.0228 1.245C10.0328 1.105 10.0378 0.975 10.0378 0.855C10.0478 0.725 10.0528 0.565 10.0528 0.375C10.0528 0.295 10.0828 0.24 10.1428 0.21C10.2028 0.17 10.2578 0.15 10.3078 0.15H12.4078C12.7978 0.15 13.1178 0.215 13.3678 0.345C13.6178 0.465 13.8228 0.655 13.9828 0.915C14.1428 1.175 14.2728 1.515 14.3728 1.935C14.4728 2.345 14.5628 2.835 14.6428 3.405C14.7328 3.975 14.8278 4.635 14.9278 5.385C15.0378 6.125 15.1778 6.96 15.3478 7.89C15.5078 7.27 15.6428 6.755 15.7528 6.345C15.8628 5.935 15.9528 5.595 16.0228 5.325C16.1028 5.045 16.1678 4.815 16.2178 4.635C16.2678 4.455 16.3128 4.29 16.3528 4.14C16.3928 3.98 16.4378 3.81 16.4878 3.63C16.5378 3.45 16.5978 3.225 16.6678 2.955C16.7378 2.685 16.8228 2.35 16.9228 1.95C17.0328 1.54 17.1678 1.025 17.3278 0.405C17.3478 0.345 17.3828 0.29 17.4328 0.24C17.4828 0.18 17.5728 0.15 17.7028 0.15H20.0428C20.3628 0.15 20.6178 0.185 20.8078 0.255C21.0078 0.315 21.1628 0.405 21.2728 0.524999C21.3828 0.645 21.4578 0.795 21.4978 0.975C21.5378 1.145 21.5578 1.345 21.5578 1.575C21.5578 1.805 21.5428 2.18 21.5128 2.7C21.4928 3.21 21.4578 3.79 21.4078 4.44C21.3678 5.08 21.3228 5.745 21.2728 6.435C21.2328 7.125 21.1878 7.765 21.1378 8.355C21.0978 8.945 21.0628 9.445 21.0328 9.855C21.0028 10.265 20.9828 10.505 20.9728 10.575C20.9628 10.655 20.9428 10.715 20.9128 10.755C20.8828 10.785 20.8228 10.8 20.7328 10.8H19.9078C19.3378 10.8 18.9328 10.69 18.6928 10.47C18.4628 10.24 18.3478 9.945 18.3478 9.585C18.3478 9.475 18.3578 9.275 18.3778 8.985C18.4078 8.695 18.4428 8.355 18.4828 7.965C18.5228 7.575 18.5678 7.15 18.6178 6.69C18.6678 6.22 18.7128 5.755 18.7528 5.295C18.7928 4.835 18.8278 4.39 18.8578 3.96C18.8978 3.52 18.9278 3.135 18.9478 2.805Z" fill="black"/>
</svg>
