<svg width="134" height="18" viewBox="0 0 134 18" fill="none" xmlns="http://www.w3.org/2000/svg">
<path d="M11.798 16.18C11.75 16.18 11.726 16.15 11.726 16.09V8.18802C11.354 8.18802 10.97 8.19402 10.574 8.20602C10.178 8.20602 9.83599 8.21802 9.54799 8.24202V15.262C9.54799 15.43 9.53599 15.538 9.51199 15.586C9.49999 15.622 9.46399 15.646 9.40399 15.658C9.33199 15.67 9.18199 15.682 8.95399 15.694C8.73799 15.706 8.59999 15.712 8.53999 15.712C8.49199 15.712 8.46799 15.682 8.46799 15.622V3.54402C8.46799 3.08802 8.45599 2.66802 8.43199 2.28402C8.40799 1.90002 8.36599 1.64802 8.30599 1.52802C8.28199 1.46802 8.28199 1.42602 8.30599 1.40202C8.34199 1.36602 8.38399 1.34802 8.43199 1.34802L9.49399 1.36602C9.55399 1.39002 9.58399 1.43802 9.58399 1.51002C9.55999 1.85802 9.54799 2.17002 9.54799 2.44602C9.54799 2.72202 9.54799 3.01002 9.54799 3.31002C9.54799 3.38202 9.54799 3.46002 9.54799 3.54402C9.54799 3.62802 9.54799 3.71802 9.54799 3.81402V7.21602C9.60799 7.21602 9.66799 7.21602 9.72799 7.21602C9.78799 7.21602 9.84799 7.21602 9.90799 7.21602C10.184 7.21602 10.478 7.21602 10.79 7.21602C11.114 7.21602 11.426 7.20402 11.726 7.18002V3.07602C11.726 2.62002 11.714 2.20002 11.69 1.81602C11.678 1.43202 11.642 1.18002 11.582 1.06002C11.558 1.00002 11.558 0.958019 11.582 0.93402C11.618 0.898019 11.66 0.880019 11.708 0.880019L12.77 0.898019C12.83 0.922019 12.86 0.970019 12.86 1.04202C12.836 1.40202 12.818 1.72602 12.806 2.01402C12.806 2.30202 12.806 2.60202 12.806 2.91402C12.806 2.98602 12.806 3.05802 12.806 3.13002C12.806 3.20202 12.806 3.27402 12.806 3.34602V15.73C12.806 15.91 12.794 16.018 12.77 16.054C12.758 16.09 12.722 16.114 12.662 16.126C12.626 16.126 12.542 16.126 12.41 16.126C12.29 16.138 12.17 16.15 12.05 16.162C11.93 16.174 11.846 16.18 11.798 16.18ZM1.89799 11.986C1.66999 11.998 1.48999 11.932 1.35799 11.788C1.22599 11.632 1.12999 11.434 1.06999 11.194C1.00999 10.954 0.979989 10.708 0.979989 10.456V5.20002C0.979989 4.78002 0.949989 4.40802 0.889989 4.08402C0.841989 3.76002 0.787989 3.53802 0.727989 3.41802C0.691989 3.34602 0.691989 3.28602 0.727989 3.23802C0.763989 3.19002 0.805989 3.16602 0.853989 3.16602C0.925989 3.16602 1.06999 3.17202 1.28599 3.18402C1.51399 3.19602 1.72999 3.21402 1.93399 3.23802C2.38999 3.23802 2.88799 3.23202 3.42799 3.22002C3.96799 3.20802 4.48999 3.18402 4.99399 3.14802C5.50999 3.11202 5.93599 3.06402 6.27199 3.00402C6.30799 2.99202 6.34999 2.99802 6.39799 3.02202C6.44599 3.03402 6.47599 3.07002 6.48799 3.13002L6.55999 3.58002C6.57199 3.62802 6.57799 3.67002 6.57799 3.70602C6.57799 3.74202 6.57799 3.77802 6.57799 3.81402C6.60199 3.94602 6.52999 4.01202 6.36199 4.01202L4.36399 4.04802C3.91999 4.07202 3.54199 4.09002 3.22999 4.10202C2.92999 4.10202 2.55199 4.11402 2.09599 4.13802V9.88002C2.09599 10.108 2.11399 10.33 2.14999 10.546C2.18599 10.75 2.30599 10.852 2.50999 10.852C3.14599 10.852 3.79999 10.804 4.47199 10.708C5.15599 10.6 5.77999 10.474 6.34399 10.33C6.91999 10.174 7.35799 10.024 7.65799 9.88002C7.75399 9.82002 7.81399 9.85002 7.83799 9.97002L7.92799 10.564C7.95199 10.72 7.89199 10.822 7.74799 10.87C7.26799 11.05 6.52399 11.26 5.51599 11.5C4.51999 11.74 3.31399 11.902 1.89799 11.986Z" fill="black"/>
<path d="M16.3277 12.652C16.1957 12.664 16.1117 12.658 16.0757 12.634C16.0397 12.61 16.0037 12.544 15.9677 12.436C15.9197 12.304 15.8777 12.184 15.8417 12.076C15.8177 11.956 15.7817 11.794 15.7337 11.59C15.7217 11.566 15.7277 11.536 15.7517 11.5C15.7757 11.464 15.8177 11.452 15.8777 11.464C16.1177 11.512 16.5617 11.542 17.2097 11.554C17.8697 11.566 18.5957 11.56 19.3877 11.536L20.5937 11.482L20.5577 8.83602L18.4157 8.89002C17.9957 8.90202 17.6957 8.78802 17.5157 8.54802C17.3477 8.30802 17.2697 7.90002 17.2817 7.32402V4.19202C17.2817 3.77202 17.2517 3.43602 17.1917 3.18402C17.1317 2.93202 17.0717 2.74602 17.0117 2.62602C16.9757 2.55402 16.9757 2.49402 17.0117 2.44602C17.0477 2.38602 17.0957 2.35602 17.1557 2.35602C17.2157 2.35602 17.2937 2.36202 17.3897 2.37402C17.4977 2.38602 17.6237 2.39802 17.7677 2.41002V2.39202C18.2717 2.41602 18.9017 2.43402 19.6577 2.44602C20.4257 2.44602 21.3557 2.42202 22.4477 2.37402C22.8797 2.35002 23.2277 2.33202 23.4917 2.32002C23.7557 2.29602 23.9837 2.27202 24.1757 2.24802C24.3677 2.21202 24.5657 2.18202 24.7697 2.15802C24.8057 2.14602 24.8477 2.15202 24.8957 2.17602C24.9437 2.18802 24.9737 2.22402 24.9857 2.28402L25.0577 2.75202C25.0697 2.80002 25.0757 2.84802 25.0757 2.89602C25.0757 2.93202 25.0757 2.97402 25.0757 3.02202C25.0997 3.15402 25.0277 3.22002 24.8597 3.22002C24.5237 3.22002 24.1937 3.22002 23.8697 3.22002C23.5457 3.22002 23.2097 3.22602 22.8617 3.23802L18.4157 3.31002V5.12802C19.0037 5.14002 19.6097 5.14602 20.2337 5.14602C20.8577 5.13402 21.4517 5.12202 22.0157 5.11002C22.5797 5.08602 23.0777 5.06202 23.5097 5.03802C23.9537 5.00202 24.2837 4.96602 24.4997 4.93002C24.6317 4.90602 24.7097 4.91202 24.7337 4.94802C24.7697 4.98402 24.7937 5.03202 24.8057 5.09202C24.8177 5.17602 24.8237 5.26602 24.8237 5.36202C24.8357 5.45802 24.8417 5.56602 24.8417 5.68602C24.8417 5.74602 24.8297 5.80002 24.8057 5.84802C24.7817 5.88402 24.6977 5.90202 24.5537 5.90202C24.4457 5.90202 24.2117 5.90202 23.8517 5.90202C23.5037 5.90202 23.0897 5.90202 22.6097 5.90202C22.1297 5.90202 21.6257 5.90802 21.0977 5.92002C20.5697 5.92002 20.0657 5.92602 19.5857 5.93802C19.1177 5.95002 18.7277 5.96202 18.4157 5.97402V7.10802C18.4157 7.46802 18.4457 7.70802 18.5057 7.82802C18.5657 7.93602 18.6917 7.99602 18.8837 8.00802C19.4837 8.03202 20.1137 8.03802 20.7737 8.02602C21.4457 8.01402 22.0157 7.99602 22.4837 7.97202C23.0357 7.94802 23.5397 7.91202 23.9957 7.86402C24.4637 7.81602 24.7697 7.77402 24.9137 7.73802C25.0337 7.71402 25.1117 7.72002 25.1477 7.75602C25.1837 7.78002 25.2077 7.82202 25.2197 7.88202L25.2737 8.58402C25.2737 8.65602 25.2497 8.70402 25.2017 8.72802C25.1657 8.75202 25.0637 8.76402 24.8957 8.76402C24.2477 8.76402 23.6777 8.77002 23.1857 8.78202C22.6937 8.78202 22.2017 8.79402 21.7097 8.81802L21.6557 11.428C22.5797 11.368 23.4857 11.29 24.3737 11.194C25.2617 11.086 26.0297 10.954 26.6777 10.798C26.7617 10.762 26.8157 10.792 26.8397 10.888L26.8937 11.392C26.8937 11.5 26.8697 11.572 26.8217 11.608C26.7857 11.644 26.7317 11.674 26.6597 11.698C26.3357 11.77 25.8917 11.848 25.3277 11.932C24.7757 12.004 24.1637 12.076 23.4917 12.148C22.8317 12.22 22.1657 12.286 21.4937 12.346C20.8337 12.394 20.2277 12.43 19.6757 12.454C19.0277 12.478 18.4037 12.508 17.8037 12.544C17.2157 12.58 16.7237 12.616 16.3277 12.652ZM27.5597 16.18C27.5117 16.18 27.4877 16.15 27.4877 16.09V3.09402C27.4877 2.63802 27.4697 2.21802 27.4337 1.83402C27.4097 1.43802 27.3677 1.18002 27.3077 1.06002C27.2837 1.00002 27.2837 0.958019 27.3077 0.93402C27.3437 0.898019 27.3857 0.880019 27.4337 0.880019C27.5057 0.880019 27.6257 0.886019 27.7937 0.898019C27.9737 0.898019 28.1477 0.904019 28.3157 0.916019C28.4837 0.916019 28.5797 0.916019 28.6037 0.916019C28.6637 0.916019 28.6937 0.964019 28.6937 1.06002C28.6577 1.50402 28.6337 1.89402 28.6217 2.23002C28.6217 2.55402 28.6217 2.93202 28.6217 3.36402V15.73C28.6217 15.91 28.6097 16.018 28.5857 16.054C28.5737 16.09 28.5377 16.114 28.4777 16.126L27.5597 16.18Z" fill="black"/>
<path d="M35.3336 7.88202C35.3096 7.88202 35.2796 7.87602 35.2436 7.86402C35.2076 7.85202 35.1896 7.81602 35.1896 7.75602C35.1896 7.72002 35.1836 7.67202 35.1716 7.61202C35.1716 7.54002 35.1656 7.39002 35.1536 7.16202C35.1536 6.92202 35.1476 6.53802 35.1356 6.01002C35.1236 5.48202 35.1116 4.73202 35.0996 3.76002C35.0876 3.22002 35.0516 2.75802 34.9916 2.37402C34.9315 1.99002 34.8836 1.73802 34.8476 1.61802C34.8116 1.49802 34.8536 1.43802 34.9736 1.43802H36.1436C36.2036 1.43802 36.2336 1.49802 36.2336 1.61802C36.2215 1.83402 36.2156 2.05002 36.2156 2.26602C36.2276 2.48202 36.2336 2.69802 36.2336 2.91402C36.2336 3.02202 36.2336 3.13002 36.2336 3.23802C36.2336 3.33402 36.2336 3.43602 36.2336 3.54402V3.59802C36.5456 3.61002 36.9715 3.61602 37.5116 3.61602C38.0636 3.61602 38.6576 3.61002 39.2936 3.59802C39.9416 3.57402 40.5656 3.55002 41.1656 3.52602C41.7775 3.49002 42.2996 3.45402 42.7316 3.41802V2.93202C42.7316 2.47602 42.7136 2.11002 42.6776 1.83402C42.6416 1.55802 42.5996 1.35402 42.5516 1.22202C42.5275 1.16202 42.5275 1.12002 42.5516 1.09602C42.5876 1.06002 42.6296 1.04202 42.6776 1.04202L43.8116 1.06002C43.8716 1.08402 43.9016 1.14402 43.9016 1.24002C43.8895 1.56402 43.8776 1.82802 43.8656 2.03202C43.8535 2.22402 43.8476 2.41602 43.8476 2.60802C43.8476 2.78802 43.8476 3.02202 43.8476 3.31002V7.39602C43.8476 7.48002 43.8116 7.54002 43.7396 7.57602C43.6796 7.61202 43.6196 7.63002 43.5596 7.63002C42.5156 7.63002 41.5196 7.64802 40.5716 7.68402C39.6356 7.70802 38.8016 7.73202 38.0696 7.75602C37.3376 7.78002 36.7556 7.79202 36.3236 7.79202C36.2516 7.79202 36.1376 7.79802 35.9816 7.81002C35.8376 7.82202 35.6996 7.84002 35.5676 7.86402C35.4356 7.87602 35.3576 7.88202 35.3336 7.88202ZM39.0776 16.216C39.0296 16.216 39.0056 16.186 39.0056 16.126V10.672C37.5656 10.696 36.2575 10.738 35.0816 10.798C33.9056 10.846 32.9816 10.9 32.3096 10.96C32.1776 10.972 32.0876 10.96 32.0396 10.924C31.9916 10.888 31.9556 10.834 31.9316 10.762C31.8836 10.63 31.8416 10.498 31.8056 10.366C31.7696 10.222 31.7276 10.048 31.6796 9.84402C31.6676 9.82002 31.6736 9.79002 31.6976 9.75402C31.7216 9.70602 31.7636 9.68802 31.8236 9.70002C32.2796 9.76002 32.8976 9.80202 33.6776 9.82602C34.4696 9.83802 35.3396 9.84402 36.2876 9.84402C37.2116 9.84402 38.1836 9.83202 39.2036 9.80802C40.2356 9.78402 41.2376 9.75402 42.2096 9.71802C43.1816 9.68202 44.0456 9.63402 44.8016 9.57402C45.5696 9.51402 46.1516 9.44802 46.5476 9.37602C46.6675 9.35202 46.7456 9.35802 46.7816 9.39402C46.8176 9.43002 46.8416 9.47802 46.8536 9.53802L46.9616 10.402C46.9616 10.462 46.9436 10.516 46.9076 10.564C46.8716 10.612 46.7756 10.636 46.6196 10.636C46.2116 10.624 45.7376 10.618 45.1976 10.618C44.6576 10.618 44.0816 10.618 43.4696 10.618C42.9056 10.618 42.3475 10.624 41.7956 10.636C41.2436 10.636 40.6976 10.642 40.1576 10.654V15.766C40.1576 15.946 40.1455 16.054 40.1216 16.09C40.1096 16.126 40.0736 16.15 40.0135 16.162C39.9655 16.162 39.8756 16.162 39.7436 16.162C39.6116 16.174 39.4796 16.186 39.3476 16.198C39.2156 16.21 39.1256 16.216 39.0776 16.216ZM36.3236 6.83802C36.7196 6.85002 37.1875 6.85602 37.7276 6.85602C38.2676 6.85602 38.8376 6.85002 39.4376 6.83802C40.0496 6.81402 40.6376 6.79002 41.2016 6.76602C41.7776 6.73002 42.2876 6.69402 42.7316 6.65802V4.39002C41.8796 4.40202 41.0336 4.41402 40.1936 4.42602C39.3656 4.43802 38.6035 4.45002 37.9076 4.46202C37.2235 4.47402 36.6716 4.49202 36.2516 4.51602L36.3236 6.83802Z" fill="black"/>
<path d="M59.1836 17.08C58.8116 17.068 58.5176 16.942 58.3016 16.702C58.0856 16.462 57.9776 16.084 57.9776 15.568V14.65C57.9776 14.458 57.9655 14.266 57.9416 14.074C57.9176 13.882 57.8636 13.708 57.7796 13.552C57.7556 13.504 57.7556 13.456 57.7796 13.408C57.8036 13.36 57.8576 13.336 57.9416 13.336C58.2536 13.348 58.6556 13.36 59.1476 13.372C59.6396 13.372 60.1796 13.372 60.7676 13.372C61.3556 13.372 61.9375 13.366 62.5135 13.354C63.1016 13.33 63.6356 13.306 64.1156 13.282C64.6076 13.258 64.9976 13.222 65.2856 13.174L65.3396 11.626C65.3396 11.614 65.3396 11.596 65.3396 11.572C65.3396 11.512 65.3335 11.476 65.3215 11.464C65.3095 11.44 65.2556 11.428 65.1596 11.428C64.8956 11.428 64.5176 11.434 64.0256 11.446C63.5336 11.458 63.0056 11.476 62.4416 11.5C61.8896 11.512 61.3616 11.53 60.8576 11.554C60.3535 11.566 59.9456 11.584 59.6336 11.608L58.2476 11.698C58.1156 11.71 58.0316 11.698 57.9956 11.662C57.9596 11.614 57.9296 11.548 57.9056 11.464L57.7976 10.798C57.7736 10.702 57.8216 10.66 57.9416 10.672C58.1455 10.684 58.4576 10.696 58.8776 10.708C59.3096 10.72 59.8016 10.726 60.3535 10.726C60.9175 10.714 61.4996 10.696 62.0996 10.672C62.6996 10.648 63.2756 10.618 63.8276 10.582C64.3796 10.546 64.8596 10.498 65.2676 10.438C65.2916 10.438 65.3156 10.432 65.3396 10.42C65.4236 10.408 65.4896 10.408 65.5376 10.42L66.4556 10.564C66.5155 10.576 66.5456 10.6 66.5456 10.636C66.5576 10.66 66.5636 10.684 66.5636 10.708C66.5636 10.72 66.5636 10.726 66.5636 10.726C66.5036 11.266 66.4556 11.776 66.4195 12.256C66.3835 12.736 66.3476 13.246 66.3116 13.786C66.2996 13.918 66.2635 14.002 66.2036 14.038C66.1436 14.062 66.0835 14.074 66.0236 14.074C65.6275 14.074 65.1356 14.08 64.5476 14.092C63.9595 14.104 63.3356 14.116 62.6756 14.128C62.0276 14.14 61.3916 14.158 60.7676 14.182C60.1436 14.194 59.5916 14.206 59.1116 14.218V15.496C59.1116 15.772 59.1356 15.946 59.1836 16.018C59.2436 16.102 59.3756 16.15 59.5796 16.162C60.3596 16.186 61.1876 16.192 62.0636 16.18C62.9396 16.168 63.7676 16.138 64.5476 16.09C65.0396 16.066 65.4896 16.03 65.8976 15.982C66.3055 15.934 66.6656 15.868 66.9776 15.784C67.0976 15.76 67.1756 15.766 67.2116 15.802C67.2476 15.838 67.2716 15.886 67.2836 15.946L67.3915 16.702C67.4035 16.762 67.3856 16.816 67.3376 16.864C67.2896 16.912 67.1815 16.936 67.0135 16.936C66.1735 16.936 65.2976 16.942 64.3856 16.954C63.4736 16.978 62.5736 16.996 61.6856 17.008C60.8096 17.032 59.9756 17.056 59.1836 17.08ZM54.6836 10.762L54.2876 10.348C54.2396 10.3 54.2576 10.24 54.3416 10.168C55.0496 9.82002 55.7635 9.38202 56.4836 8.85402C57.2036 8.31402 57.8696 7.72602 58.4816 7.09002C59.1056 6.44202 59.6216 5.78802 60.0296 5.12802C60.4496 4.45602 60.7076 3.81402 60.8036 3.20202C60.8156 3.07002 60.7676 3.00402 60.6595 3.00402C60.1436 3.01602 59.6336 3.04002 59.1296 3.07602C58.6376 3.11202 58.1335 3.14802 57.6175 3.18402C57.2575 3.20802 56.8916 3.23802 56.5196 3.27402C56.1595 3.31002 55.7876 3.34602 55.4036 3.38202C55.2836 3.39402 55.2056 3.38202 55.1696 3.34602C55.1336 3.29802 55.1035 3.24402 55.0796 3.18402C55.0676 3.17202 55.0616 3.16002 55.0616 3.14802C55.0135 3.01602 54.9776 2.90802 54.9536 2.82402C54.9296 2.72802 54.8936 2.57802 54.8456 2.37402C54.8335 2.35002 54.8396 2.32002 54.8636 2.28402C54.8876 2.24802 54.9296 2.23602 54.9896 2.24802C55.5176 2.29602 56.0876 2.32002 56.6996 2.32002C57.3116 2.30802 57.9236 2.28402 58.5356 2.24802C59.1476 2.20002 59.7176 2.14602 60.2456 2.08602C60.3776 2.06202 60.5276 2.03802 60.6956 2.01402C60.8636 1.97802 60.9536 1.96002 60.9656 1.96002C61.0256 1.93602 61.0916 1.93602 61.1636 1.96002C61.2596 1.98402 61.3856 2.03202 61.5415 2.10402C61.6975 2.16402 61.8416 2.22402 61.9736 2.28402C62.1056 2.34402 62.1836 2.38002 62.2076 2.39202C62.3275 2.44002 62.3696 2.51802 62.3336 2.62602C62.2496 2.87802 62.1716 3.10602 62.0996 3.31002C62.0276 3.50202 61.9315 3.73602 61.8116 4.01202C61.5596 4.63602 61.1636 5.33802 60.6236 6.11802C60.0835 6.88602 59.3755 7.67202 58.4995 8.47602C57.6236 9.28002 56.5436 10.042 55.2596 10.762C55.1636 10.822 55.0676 10.858 54.9715 10.87C54.8755 10.882 54.7796 10.846 54.6836 10.762ZM65.4476 9.50202C65.3996 9.50202 65.3755 9.47202 65.3755 9.41202V3.07602C65.3755 2.62002 65.3576 2.20002 65.3215 1.81602C65.2975 1.43202 65.2555 1.18002 65.1955 1.06002C65.1715 1.00002 65.1715 0.958019 65.1955 0.93402C65.2316 0.898019 65.2736 0.880019 65.3215 0.880019C65.4175 0.880019 65.5796 0.880019 65.8075 0.880019C66.0475 0.880019 66.2756 0.886019 66.4916 0.898019C66.5516 0.898019 66.5816 0.946019 66.5816 1.04202C66.5455 1.48602 66.5216 1.87602 66.5096 2.21202C66.5096 2.53602 66.5096 2.91402 66.5096 3.34602V9.05202C66.5096 9.23202 66.4976 9.34002 66.4735 9.37602C66.4615 9.41202 66.4256 9.43602 66.3656 9.44802L65.4476 9.50202Z" fill="black"/>
<path d="M74.1299 10.6C73.3979 10.612 72.7259 10.462 72.1139 10.15C71.5019 9.83802 71.0099 9.39402 70.6379 8.81802C70.2779 8.23002 70.0979 7.55802 70.0979 6.80202C70.0979 6.07002 70.2779 5.41602 70.6379 4.84002C70.9979 4.25202 71.4839 3.78402 72.0959 3.43602C72.7199 3.07602 73.4039 2.89002 74.1479 2.87802C74.8919 2.85402 75.5639 2.98602 76.1639 3.27402C76.7759 3.56202 77.2619 3.98802 77.6219 4.55202C77.9819 5.11602 78.1619 5.81202 78.1619 6.64002C78.1619 7.38402 77.9819 8.05002 77.6219 8.63802C77.2619 9.22602 76.7759 9.69402 76.1639 10.042C75.5519 10.39 74.8739 10.576 74.1299 10.6ZM74.1479 9.57402C74.6759 9.55002 75.1559 9.41802 75.5879 9.17802C76.0199 8.92602 76.3619 8.58402 76.6139 8.15202C76.8779 7.70802 77.0099 7.21002 77.0099 6.65802C77.0099 6.04602 76.8779 5.52402 76.6139 5.09202C76.3619 4.66002 76.0199 4.33602 75.5879 4.12002C75.1559 3.89202 74.6759 3.79002 74.1479 3.81402C73.6199 3.82602 73.1339 3.96402 72.6899 4.22802C72.2459 4.48002 71.8919 4.82802 71.6279 5.27202C71.3639 5.70402 71.2319 6.20802 71.2319 6.78402C71.2319 7.38402 71.3639 7.89402 71.6279 8.31402C71.9039 8.73402 72.2639 9.05202 72.7079 9.26802C73.1519 9.48402 73.6319 9.58602 74.1479 9.57402ZM81.2039 16.18C81.1559 16.18 81.1319 16.15 81.1319 16.09V3.09402C81.1319 2.63802 81.1139 2.21802 81.0779 1.83402C81.0539 1.43802 81.0119 1.18002 80.9519 1.06002C80.9279 1.00002 80.9279 0.958019 80.9519 0.93402C80.9879 0.898019 81.0299 0.880019 81.0779 0.880019C81.1499 0.880019 81.2699 0.886019 81.4379 0.898019C81.6179 0.898019 81.7919 0.904019 81.9599 0.916019C82.1279 0.916019 82.2239 0.916019 82.2479 0.916019C82.3079 0.916019 82.3379 0.964019 82.3379 1.06002C82.3019 1.50402 82.2779 1.89402 82.2659 2.23002C82.2659 2.55402 82.2659 2.93202 82.2659 3.36402V15.73C82.2659 15.91 82.2539 16.018 82.2299 16.054C82.2179 16.09 82.1819 16.114 82.1219 16.126L81.2039 16.18Z" fill="black"/>
<path d="M89.756 17.44C89.24 17.092 88.766 16.618 88.334 16.018C87.914 15.418 87.548 14.74 87.236 13.984C86.936 13.216 86.702 12.406 86.534 11.554C86.378 10.702 86.3 9.84402 86.3 8.98002C86.3 8.11602 86.378 7.25802 86.534 6.40602C86.702 5.55402 86.936 4.75002 87.236 3.99402C87.548 3.22602 87.914 2.54202 88.334 1.94202C88.766 1.34202 89.24 0.868019 89.756 0.52002L90.35 1.11402C89.87 1.49802 89.402 2.05002 88.946 2.77002C88.502 3.47802 88.136 4.34802 87.848 5.38002C87.56 6.41202 87.416 7.61202 87.416 8.98002C87.416 10.336 87.56 11.536 87.848 12.58C88.136 13.612 88.502 14.482 88.946 15.19C89.402 15.898 89.87 16.45 90.35 16.846L89.756 17.44Z" fill="black"/>
<path d="M93.597 14.452V2.15802C93.597 2.08602 93.633 2.05002 93.705 2.05002H99.969C100.041 2.05002 100.077 2.08602 100.077 2.15802V2.95002C100.077 3.02202 100.041 3.05802 99.969 3.05802H94.767V7.30602H99.159C99.231 7.30602 99.267 7.34202 99.267 7.41402V8.20602C99.267 8.27802 99.231 8.31402 99.159 8.31402H94.767V14.452C94.767 14.524 94.731 14.56 94.659 14.56H93.705C93.633 14.56 93.597 14.524 93.597 14.452Z" fill="black"/>
<path d="M102.773 14.452V2.15802C102.773 2.08602 102.809 2.05002 102.881 2.05002H103.835C103.907 2.05002 103.943 2.08602 103.943 2.15802V13.534H106.949C108.281 13.534 109.247 13.42 109.847 13.192C109.919 13.18 109.961 13.204 109.973 13.264L110.153 14.074C110.177 14.134 110.153 14.176 110.081 14.2C109.745 14.344 109.307 14.44 108.767 14.488C108.227 14.536 107.621 14.56 106.949 14.56H102.881C102.809 14.56 102.773 14.524 102.773 14.452Z" fill="black"/>
<path d="M112.723 17.44L112.129 16.846C112.609 16.45 113.071 15.898 113.515 15.19C113.971 14.482 114.343 13.612 114.631 12.58C114.919 11.536 115.063 10.336 115.063 8.98002C115.063 7.61202 114.919 6.41202 114.631 5.38002C114.343 4.34802 113.971 3.47802 113.515 2.77002C113.071 2.05002 112.609 1.49802 112.129 1.11402L112.723 0.52002C113.239 0.868019 113.707 1.34202 114.127 1.94202C114.559 2.54202 114.925 3.22602 115.225 3.99402C115.537 4.75002 115.771 5.55402 115.927 6.40602C116.095 7.25802 116.179 8.11602 116.179 8.98002C116.179 9.84402 116.095 10.702 115.927 11.554C115.771 12.406 115.537 13.216 115.225 13.984C114.925 14.74 114.565 15.418 114.145 16.018C113.725 16.618 113.251 17.092 112.723 17.44Z" fill="black"/>
<path d="M129.632 16.18C129.584 16.18 129.56 16.15 129.56 16.09V3.09402C129.56 2.63802 129.542 2.21802 129.506 1.83402C129.482 1.43802 129.44 1.18002 129.38 1.06002C129.356 1.00002 129.356 0.958019 129.38 0.93402C129.416 0.898019 129.458 0.880019 129.506 0.880019C129.578 0.880019 129.698 0.886019 129.866 0.898019C130.046 0.898019 130.22 0.904019 130.388 0.916019C130.556 0.916019 130.652 0.916019 130.676 0.916019C130.736 0.916019 130.766 0.964019 130.766 1.06002C130.73 1.50402 130.706 1.89402 130.694 2.23002C130.694 2.55402 130.694 2.93202 130.694 3.36402V7.57602C131.018 7.57602 131.366 7.56402 131.738 7.54002C132.122 7.50402 132.476 7.46802 132.8 7.43202C133.136 7.38402 133.388 7.33602 133.556 7.28802C133.664 7.27602 133.724 7.31202 133.736 7.39602C133.76 7.55202 133.778 7.70802 133.79 7.86402C133.802 8.02002 133.814 8.17602 133.826 8.33202C133.826 8.46402 133.772 8.53002 133.664 8.53002C133.484 8.50602 133.22 8.49402 132.872 8.49402C132.536 8.49402 132.176 8.49402 131.792 8.49402C131.408 8.49402 131.042 8.50002 130.694 8.51202V15.73C130.694 15.91 130.682 16.018 130.658 16.054C130.646 16.09 130.61 16.114 130.55 16.126L129.632 16.18ZM119.264 13.264L118.832 12.868C118.784 12.82 118.802 12.76 118.886 12.688C119.642 12.292 120.392 11.758 121.136 11.086C121.892 10.414 122.588 9.67002 123.224 8.85402C123.86 8.03802 124.388 7.20402 124.808 6.35202C125.228 5.48802 125.486 4.67202 125.582 3.90402C125.606 3.77202 125.552 3.70602 125.42 3.70602L121.892 3.92202L120.02 4.08402C119.9 4.09602 119.822 4.08402 119.786 4.04802C119.75 4.00002 119.72 3.94602 119.696 3.88602C119.684 3.87402 119.678 3.86202 119.678 3.85002C119.63 3.71802 119.594 3.61002 119.57 3.52602C119.546 3.43002 119.51 3.28002 119.462 3.07602C119.45 3.05202 119.456 3.02202 119.48 2.98602C119.504 2.95002 119.546 2.93802 119.606 2.95002C120.134 2.99802 120.722 3.02202 121.37 3.02202C122.03 3.01002 122.69 2.98602 123.35 2.95002C124.01 2.90202 124.604 2.84802 125.132 2.78802C125.276 2.77602 125.432 2.75202 125.6 2.71602C125.768 2.68002 125.852 2.66202 125.852 2.66202C125.912 2.63802 125.978 2.63802 126.05 2.66202L127.04 2.98602C127.136 3.03402 127.178 3.11202 127.166 3.22002L126.752 4.55202C126.584 5.08002 126.32 5.71002 125.96 6.44202C125.6 7.17402 125.138 7.94802 124.574 8.76402C124.01 9.56802 123.332 10.36 122.54 11.14C121.76 11.92 120.86 12.628 119.84 13.264C119.744 13.324 119.648 13.36 119.552 13.372C119.456 13.384 119.36 13.348 119.264 13.264Z" fill="black"/>
</svg>
