<svg width="125" height="18" viewBox="0 0 125 18" fill="none" xmlns="http://www.w3.org/2000/svg">
<path d="M1.53001 10.672C1.39801 10.684 1.30801 10.672 1.26001 10.636C1.21201 10.6 1.17601 10.546 1.15201 10.474C1.10401 10.342 1.06201 10.21 1.02601 10.078C0.990012 9.94602 0.948012 9.77802 0.900012 9.57402C0.888012 9.55002 0.894012 9.52002 0.918012 9.48402C0.942012 9.43602 0.984012 9.41802 1.04401 9.43002C1.50001 9.49002 2.12401 9.53802 2.91601 9.57402C3.70801 9.59802 4.57801 9.60402 5.52601 9.59202C5.94601 9.59202 6.38401 9.59202 6.84001 9.59202C7.29601 9.58002 7.75801 9.56802 8.22601 9.55602L8.17201 7.27002C7.64401 7.28202 7.16401 7.29402 6.73201 7.30602C6.30001 7.31802 5.93401 7.32402 5.63401 7.32402L4.64401 7.41402C4.62001 7.41402 4.59001 7.40802 4.55401 7.39602C4.51801 7.38402 4.50001 7.34802 4.50001 7.28802C4.50001 7.22802 4.49401 7.02402 4.48201 6.67602C4.48201 6.31602 4.47601 5.85402 4.46401 5.29002C4.45201 4.71402 4.43401 4.08402 4.41001 3.40002C4.39801 2.86002 4.36201 2.39802 4.30201 2.01402C4.24201 1.63002 4.19401 1.37802 4.15801 1.25802C4.12201 1.13802 4.16401 1.07802 4.28401 1.07802H5.47201C5.53201 1.07802 5.56201 1.12002 5.56201 1.20402C5.55001 1.51602 5.53801 1.84002 5.52601 2.17602C5.52601 2.51202 5.53201 2.83602 5.54401 3.14802C5.84401 3.16002 6.25801 3.16602 6.78601 3.16602C7.32601 3.16602 7.90801 3.16002 8.53201 3.14802C9.15601 3.13602 9.76201 3.11802 10.35 3.09402C10.95 3.07002 11.46 3.04002 11.88 3.00402V2.66202C11.88 2.20602 11.862 1.84602 11.826 1.58202C11.79 1.30602 11.748 1.10202 11.7 0.970019C11.676 0.910019 11.676 0.868019 11.7 0.844019C11.736 0.808019 11.778 0.790019 11.826 0.790019L12.942 0.808019C13.014 0.808019 13.05 0.856019 13.05 0.952019C13.038 1.27602 13.026 1.53402 13.014 1.72602C13.002 1.91802 12.996 2.10402 12.996 2.28402C12.996 2.46402 12.996 2.69802 12.996 2.98602V6.98202C12.996 7.13802 12.906 7.21602 12.726 7.21602C12.114 7.21602 11.526 7.22202 10.962 7.23402C10.398 7.23402 9.85801 7.24002 9.34201 7.25202L9.28801 9.52002C10.236 9.49602 11.148 9.46602 12.024 9.43002C12.912 9.38202 13.698 9.33402 14.382 9.28602C15.078 9.22602 15.606 9.16602 15.966 9.10602C16.086 9.08202 16.164 9.08802 16.2 9.12402C16.236 9.16002 16.26 9.20802 16.272 9.26802L16.38 10.06C16.392 10.228 16.278 10.306 16.038 10.294C15.666 10.27 15.162 10.258 14.526 10.258C13.902 10.258 13.224 10.264 12.492 10.276C11.844 10.276 11.178 10.288 10.494 10.312C9.82201 10.324 9.18601 10.336 8.58601 10.348C7.99801 10.36 7.48801 10.372 7.05601 10.384C5.84401 10.42 4.75201 10.462 3.78001 10.51C2.80801 10.558 2.05801 10.612 1.53001 10.672ZM5.63401 6.40602C6.03001 6.41802 6.49201 6.42402 7.02001 6.42402C7.54801 6.42402 8.10001 6.42402 8.67601 6.42402C9.25201 6.41202 9.81601 6.39402 10.368 6.37002C10.932 6.34602 11.436 6.31602 11.88 6.28002V3.94002C11.028 3.95202 10.194 3.96402 9.37801 3.97602C8.56201 3.98802 7.82401 4.00002 7.16401 4.01202C6.50401 4.02402 5.97001 4.04202 5.56201 4.06602L5.63401 6.40602ZM12.15 17.44C12.102 17.44 12.078 17.41 12.078 17.35V13.282C12.078 13.15 12.006 13.084 11.862 13.084C11.598 13.084 11.208 13.09 10.692 13.102C10.188 13.114 9.64801 13.132 9.07201 13.156C8.50801 13.18 7.97401 13.204 7.47001 13.228C6.97801 13.24 6.60601 13.252 6.35401 13.264C6.05401 13.288 5.72401 13.312 5.36401 13.336C5.01601 13.348 4.69201 13.366 4.39201 13.39C4.26001 13.402 4.17601 13.384 4.14001 13.336C4.10401 13.288 4.07401 13.228 4.05001 13.156L3.87001 12.4C3.85801 12.376 3.86401 12.346 3.88801 12.31C3.91201 12.274 3.95401 12.262 4.01401 12.274C4.18201 12.298 4.46401 12.316 4.86001 12.328C5.25601 12.34 5.71801 12.346 6.24601 12.346C6.77401 12.346 7.32601 12.34 7.90201 12.328C8.47801 12.316 9.03601 12.298 9.57601 12.274C10.128 12.25 10.614 12.22 11.034 12.184C11.454 12.148 11.766 12.106 11.97 12.058C11.982 12.058 12 12.052 12.024 12.04C12.048 12.04 12.072 12.04 12.096 12.04C12.12 12.028 12.162 12.028 12.222 12.04C12.378 12.064 12.54 12.088 12.708 12.112C12.876 12.136 13.044 12.166 13.212 12.202C13.284 12.214 13.32 12.268 13.32 12.364C13.296 12.712 13.272 13.066 13.248 13.426C13.236 13.774 13.23 14.092 13.23 14.38L13.212 17.08C13.212 17.188 13.194 17.26 13.158 17.296C13.122 17.332 13.056 17.362 12.96 17.386C12.9 17.386 12.762 17.392 12.546 17.404C12.342 17.428 12.21 17.44 12.15 17.44Z" fill="black"/>
<path d="M21.7613 7.88202C21.7373 7.88202 21.7073 7.87602 21.6713 7.86402C21.6353 7.85202 21.6173 7.81602 21.6173 7.75602C21.6173 7.72002 21.6113 7.67202 21.5993 7.61202C21.5993 7.54002 21.5933 7.39002 21.5813 7.16202C21.5813 6.92202 21.5753 6.53802 21.5633 6.01002C21.5513 5.48202 21.5393 4.73202 21.5273 3.76002C21.5153 3.22002 21.4793 2.75802 21.4193 2.37402C21.3593 1.99002 21.3113 1.73802 21.2753 1.61802C21.2393 1.49802 21.2813 1.43802 21.4013 1.43802H22.5713C22.6313 1.43802 22.6613 1.49802 22.6613 1.61802C22.6493 1.83402 22.6433 2.05002 22.6433 2.26602C22.6553 2.48202 22.6613 2.69802 22.6613 2.91402C22.6613 3.02202 22.6613 3.13002 22.6613 3.23802C22.6613 3.33402 22.6613 3.43602 22.6613 3.54402V3.59802C22.9733 3.61002 23.3993 3.61602 23.9393 3.61602C24.4913 3.61602 25.0853 3.61002 25.7213 3.59802C26.3693 3.57402 26.9933 3.55002 27.5933 3.52602C28.2053 3.49002 28.7273 3.45402 29.1593 3.41802V2.93202C29.1593 2.47602 29.1413 2.11002 29.1053 1.83402C29.0693 1.55802 29.0273 1.35402 28.9793 1.22202C28.9553 1.16202 28.9553 1.12002 28.9793 1.09602C29.0153 1.06002 29.0573 1.04202 29.1053 1.04202L30.2393 1.06002C30.2993 1.08402 30.3293 1.14402 30.3293 1.24002C30.3173 1.56402 30.3053 1.82802 30.2933 2.03202C30.2813 2.22402 30.2753 2.41602 30.2753 2.60802C30.2753 2.78802 30.2753 3.02202 30.2753 3.31002V7.39602C30.2753 7.48002 30.2393 7.54002 30.1673 7.57602C30.1073 7.61202 30.0473 7.63002 29.9873 7.63002C28.9433 7.63002 27.9473 7.64802 26.9993 7.68402C26.0633 7.70802 25.2293 7.73202 24.4973 7.75602C23.7653 7.78002 23.1833 7.79202 22.7513 7.79202C22.6793 7.79202 22.5653 7.79802 22.4093 7.81002C22.2653 7.82202 22.1273 7.84002 21.9953 7.86402C21.8633 7.87602 21.7853 7.88202 21.7613 7.88202ZM25.5053 16.216C25.4573 16.216 25.4333 16.186 25.4333 16.126V10.672C23.9933 10.696 22.6853 10.738 21.5093 10.798C20.3333 10.846 19.4093 10.9 18.7373 10.96C18.6053 10.972 18.5153 10.96 18.4673 10.924C18.4193 10.888 18.3833 10.834 18.3593 10.762C18.3113 10.63 18.2693 10.498 18.2333 10.366C18.1973 10.222 18.1553 10.048 18.1073 9.84402C18.0953 9.82002 18.1013 9.79002 18.1253 9.75402C18.1493 9.70602 18.1913 9.68802 18.2513 9.70002C18.7073 9.76002 19.3253 9.80202 20.1053 9.82602C20.8973 9.83802 21.7673 9.84402 22.7153 9.84402C23.6393 9.84402 24.6113 9.83202 25.6313 9.80802C26.6633 9.78402 27.6653 9.75402 28.6373 9.71802C29.6093 9.68202 30.4733 9.63402 31.2293 9.57402C31.9973 9.51402 32.5793 9.44802 32.9753 9.37602C33.0953 9.35202 33.1733 9.35802 33.2093 9.39402C33.2453 9.43002 33.2693 9.47802 33.2813 9.53802L33.3893 10.402C33.3893 10.462 33.3713 10.516 33.3353 10.564C33.2993 10.612 33.2033 10.636 33.0473 10.636C32.6393 10.624 32.1653 10.618 31.6253 10.618C31.0853 10.618 30.5093 10.618 29.8973 10.618C29.3333 10.618 28.7753 10.624 28.2233 10.636C27.6713 10.636 27.1253 10.642 26.5853 10.654V15.766C26.5853 15.946 26.5733 16.054 26.5493 16.09C26.5373 16.126 26.5013 16.15 26.4413 16.162C26.3933 16.162 26.3033 16.162 26.1713 16.162C26.0393 16.174 25.9073 16.186 25.7753 16.198C25.6433 16.21 25.5533 16.216 25.5053 16.216ZM22.7513 6.83802C23.1473 6.85002 23.6153 6.85602 24.1553 6.85602C24.6953 6.85602 25.2653 6.85002 25.8653 6.83802C26.4773 6.81402 27.0653 6.79002 27.6293 6.76602C28.2053 6.73002 28.7153 6.69402 29.1593 6.65802V4.39002C28.3073 4.40202 27.4613 4.41402 26.6213 4.42602C25.7933 4.43802 25.0313 4.45002 24.3353 4.46202C23.6513 4.47402 23.0993 4.49202 22.6793 4.51602L22.7513 6.83802Z" fill="black"/>
<path d="M45.6113 17.08C45.2393 17.068 44.9453 16.942 44.7293 16.702C44.5133 16.462 44.4053 16.084 44.4053 15.568V14.65C44.4053 14.458 44.3933 14.266 44.3693 14.074C44.3453 13.882 44.2913 13.708 44.2073 13.552C44.1833 13.504 44.1833 13.456 44.2073 13.408C44.2313 13.36 44.2853 13.336 44.3693 13.336C44.6813 13.348 45.0833 13.36 45.5753 13.372C46.0673 13.372 46.6073 13.372 47.1953 13.372C47.7833 13.372 48.3653 13.366 48.9413 13.354C49.5293 13.33 50.0633 13.306 50.5433 13.282C51.0353 13.258 51.4253 13.222 51.7133 13.174L51.7673 11.626C51.7673 11.614 51.7673 11.596 51.7673 11.572C51.7673 11.512 51.7613 11.476 51.7493 11.464C51.7373 11.44 51.6833 11.428 51.5873 11.428C51.3233 11.428 50.9453 11.434 50.4533 11.446C49.9613 11.458 49.4333 11.476 48.8693 11.5C48.3173 11.512 47.7893 11.53 47.2853 11.554C46.7813 11.566 46.3733 11.584 46.0613 11.608L44.6753 11.698C44.5433 11.71 44.4593 11.698 44.4233 11.662C44.3873 11.614 44.3573 11.548 44.3333 11.464L44.2253 10.798C44.2013 10.702 44.2493 10.66 44.3693 10.672C44.5733 10.684 44.8853 10.696 45.3053 10.708C45.7373 10.72 46.2293 10.726 46.7813 10.726C47.3453 10.714 47.9273 10.696 48.5273 10.672C49.1273 10.648 49.7033 10.618 50.2553 10.582C50.8073 10.546 51.2873 10.498 51.6953 10.438C51.7193 10.438 51.7433 10.432 51.7673 10.42C51.8513 10.408 51.9173 10.408 51.9653 10.42L52.8833 10.564C52.9433 10.576 52.9733 10.6 52.9733 10.636C52.9853 10.66 52.9913 10.684 52.9913 10.708C52.9913 10.72 52.9913 10.726 52.9913 10.726C52.9313 11.266 52.8833 11.776 52.8473 12.256C52.8113 12.736 52.7753 13.246 52.7393 13.786C52.7273 13.918 52.6913 14.002 52.6313 14.038C52.5713 14.062 52.5113 14.074 52.4513 14.074C52.0553 14.074 51.5633 14.08 50.9753 14.092C50.3873 14.104 49.7633 14.116 49.1033 14.128C48.4553 14.14 47.8193 14.158 47.1953 14.182C46.5713 14.194 46.0193 14.206 45.5393 14.218V15.496C45.5393 15.772 45.5633 15.946 45.6113 16.018C45.6713 16.102 45.8033 16.15 46.0073 16.162C46.7873 16.186 47.6153 16.192 48.4913 16.18C49.3673 16.168 50.1953 16.138 50.9753 16.09C51.4673 16.066 51.9173 16.03 52.3253 15.982C52.7333 15.934 53.0933 15.868 53.4053 15.784C53.5253 15.76 53.6033 15.766 53.6393 15.802C53.6753 15.838 53.6993 15.886 53.7113 15.946L53.8193 16.702C53.8313 16.762 53.8133 16.816 53.7653 16.864C53.7173 16.912 53.6093 16.936 53.4413 16.936C52.6013 16.936 51.7253 16.942 50.8133 16.954C49.9013 16.978 49.0013 16.996 48.1133 17.008C47.2373 17.032 46.4033 17.056 45.6113 17.08ZM41.1113 10.762L40.7153 10.348C40.6673 10.3 40.6853 10.24 40.7693 10.168C41.4773 9.82002 42.1913 9.38202 42.9113 8.85402C43.6313 8.31402 44.2973 7.72602 44.9093 7.09002C45.5333 6.44202 46.0493 5.78802 46.4573 5.12802C46.8773 4.45602 47.1353 3.81402 47.2313 3.20202C47.2433 3.07002 47.1953 3.00402 47.0873 3.00402C46.5713 3.01602 46.0613 3.04002 45.5573 3.07602C45.0653 3.11202 44.5613 3.14802 44.0453 3.18402C43.6853 3.20802 43.3193 3.23802 42.9473 3.27402C42.5873 3.31002 42.2153 3.34602 41.8313 3.38202C41.7113 3.39402 41.6333 3.38202 41.5973 3.34602C41.5613 3.29802 41.5313 3.24402 41.5073 3.18402C41.4953 3.17202 41.4893 3.16002 41.4893 3.14802C41.4413 3.01602 41.4053 2.90802 41.3813 2.82402C41.3573 2.72802 41.3213 2.57802 41.2733 2.37402C41.2613 2.35002 41.2673 2.32002 41.2913 2.28402C41.3153 2.24802 41.3573 2.23602 41.4173 2.24802C41.9453 2.29602 42.5153 2.32002 43.1273 2.32002C43.7393 2.30802 44.3513 2.28402 44.9633 2.24802C45.5753 2.20002 46.1453 2.14602 46.6733 2.08602C46.8053 2.06202 46.9553 2.03802 47.1233 2.01402C47.2913 1.97802 47.3813 1.96002 47.3933 1.96002C47.4533 1.93602 47.5193 1.93602 47.5913 1.96002C47.6873 1.98402 47.8133 2.03202 47.9693 2.10402C48.1253 2.16402 48.2693 2.22402 48.4013 2.28402C48.5333 2.34402 48.6113 2.38002 48.6353 2.39202C48.7553 2.44002 48.7973 2.51802 48.7613 2.62602C48.6773 2.87802 48.5993 3.10602 48.5273 3.31002C48.4553 3.50202 48.3593 3.73602 48.2393 4.01202C47.9873 4.63602 47.5913 5.33802 47.0513 6.11802C46.5113 6.88602 45.8033 7.67202 44.9273 8.47602C44.0513 9.28002 42.9713 10.042 41.6873 10.762C41.5913 10.822 41.4953 10.858 41.3993 10.87C41.3033 10.882 41.2073 10.846 41.1113 10.762ZM51.8753 9.50202C51.8273 9.50202 51.8033 9.47202 51.8033 9.41202V3.07602C51.8033 2.62002 51.7853 2.20002 51.7493 1.81602C51.7253 1.43202 51.6833 1.18002 51.6233 1.06002C51.5993 1.00002 51.5993 0.958019 51.6233 0.93402C51.6593 0.898019 51.7013 0.880019 51.7493 0.880019C51.8453 0.880019 52.0073 0.880019 52.2353 0.880019C52.4753 0.880019 52.7033 0.886019 52.9193 0.898019C52.9793 0.898019 53.0093 0.946019 53.0093 1.04202C52.9733 1.48602 52.9493 1.87602 52.9373 2.21202C52.9373 2.53602 52.9373 2.91402 52.9373 3.34602V9.05202C52.9373 9.23202 52.9253 9.34002 52.9013 9.37602C52.8893 9.41202 52.8533 9.43602 52.7933 9.44802L51.8753 9.50202Z" fill="black"/>
<path d="M60.5576 10.6C59.8256 10.612 59.1536 10.462 58.5416 10.15C57.9296 9.83802 57.4376 9.39402 57.0656 8.81802C56.7056 8.23002 56.5256 7.55802 56.5256 6.80202C56.5256 6.07002 56.7056 5.41602 57.0656 4.84002C57.4256 4.25202 57.9116 3.78402 58.5236 3.43602C59.1476 3.07602 59.8316 2.89002 60.5756 2.87802C61.3196 2.85402 61.9916 2.98602 62.5916 3.27402C63.2036 3.56202 63.6896 3.98802 64.0496 4.55202C64.4096 5.11602 64.5896 5.81202 64.5896 6.64002C64.5896 7.38402 64.4096 8.05002 64.0496 8.63802C63.6896 9.22602 63.2036 9.69402 62.5916 10.042C61.9796 10.39 61.3016 10.576 60.5576 10.6ZM60.5756 9.57402C61.1036 9.55002 61.5836 9.41802 62.0156 9.17802C62.4476 8.92602 62.7896 8.58402 63.0416 8.15202C63.3056 7.70802 63.4376 7.21002 63.4376 6.65802C63.4376 6.04602 63.3056 5.52402 63.0416 5.09202C62.7896 4.66002 62.4476 4.33602 62.0156 4.12002C61.5836 3.89202 61.1036 3.79002 60.5756 3.81402C60.0476 3.82602 59.5616 3.96402 59.1176 4.22802C58.6736 4.48002 58.3196 4.82802 58.0556 5.27202C57.7916 5.70402 57.6596 6.20802 57.6596 6.78402C57.6596 7.38402 57.7916 7.89402 58.0556 8.31402C58.3316 8.73402 58.6916 9.05202 59.1356 9.26802C59.5796 9.48402 60.0596 9.58602 60.5756 9.57402ZM67.6316 16.18C67.5836 16.18 67.5596 16.15 67.5596 16.09V3.09402C67.5596 2.63802 67.5416 2.21802 67.5056 1.83402C67.4816 1.43802 67.4396 1.18002 67.3796 1.06002C67.3556 1.00002 67.3556 0.958019 67.3796 0.93402C67.4156 0.898019 67.4576 0.880019 67.5056 0.880019C67.5776 0.880019 67.6976 0.886019 67.8656 0.898019C68.0456 0.898019 68.2196 0.904019 68.3876 0.916019C68.5556 0.916019 68.6516 0.916019 68.6756 0.916019C68.7356 0.916019 68.7656 0.964019 68.7656 1.06002C68.7296 1.50402 68.7056 1.89402 68.6936 2.23002C68.6936 2.55402 68.6936 2.93202 68.6936 3.36402V15.73C68.6936 15.91 68.6816 16.018 68.6576 16.054C68.6456 16.09 68.6096 16.114 68.5496 16.126L67.6316 16.18Z" fill="black"/>
<path d="M76.1837 17.44C75.6677 17.092 75.1937 16.618 74.7617 16.018C74.3418 15.418 73.9757 14.74 73.6637 13.984C73.3637 13.216 73.1297 12.406 72.9617 11.554C72.8057 10.702 72.7277 9.84402 72.7277 8.98002C72.7277 8.11602 72.8057 7.25802 72.9617 6.40602C73.1297 5.55402 73.3637 4.75002 73.6637 3.99402C73.9757 3.22602 74.3418 2.54202 74.7617 1.94202C75.1937 1.34202 75.6677 0.868019 76.1837 0.52002L76.7777 1.11402C76.2977 1.49802 75.8298 2.05002 75.3737 2.77002C74.9297 3.47802 74.5638 4.34802 74.2757 5.38002C73.9877 6.41202 73.8438 7.61202 73.8438 8.98002C73.8438 10.336 73.9877 11.536 74.2757 12.58C74.5638 13.612 74.9297 14.482 75.3737 15.19C75.8298 15.898 76.2977 16.45 76.7777 16.846L76.1837 17.44Z" fill="black"/>
<path d="M86.4508 10.546H81.3388L79.8448 14.47C79.8328 14.53 79.7908 14.56 79.7188 14.56H78.6748C78.5908 14.56 78.5668 14.518 78.6028 14.434L83.3908 2.14002C83.4268 2.08002 83.4688 2.05002 83.5168 2.05002H84.2908C84.3628 2.05002 84.4048 2.08002 84.4168 2.14002L89.2048 14.434C89.2288 14.518 89.2048 14.56 89.1328 14.56H88.0888C88.0168 14.56 87.9748 14.53 87.9628 14.47L86.4508 10.546ZM84.4528 5.32602L83.8948 3.67002L83.3188 5.32602L81.7168 9.52002H86.0548L84.4528 5.32602Z" fill="black"/>
<path d="M99.5749 4.01202C99.5389 4.07202 99.4849 4.07802 99.4129 4.03002C99.0049 3.63402 98.5249 3.32802 97.9729 3.11202C97.4209 2.89602 96.8029 2.78802 96.1189 2.78802C95.0989 2.78802 94.2289 3.01602 93.5089 3.47202C92.7889 3.92802 92.2369 4.57002 91.8529 5.39802C91.4689 6.21402 91.2769 7.16802 91.2769 8.26002C91.2769 9.37602 91.4689 10.354 91.8529 11.194C92.2489 12.022 92.8009 12.67 93.5089 13.138C94.2289 13.594 95.0689 13.822 96.0289 13.822C96.8449 13.822 97.5949 13.666 98.2789 13.354C98.9629 13.042 99.5269 12.64 99.9709 12.148C100.019 12.076 100.067 12.076 100.115 12.148L100.619 12.814C100.655 12.862 100.649 12.91 100.601 12.958C100.061 13.522 99.3949 13.978 98.6029 14.326C97.8229 14.662 96.9529 14.83 95.9929 14.83C94.7569 14.83 93.6949 14.542 92.8069 13.966C91.9309 13.39 91.2589 12.61 90.7909 11.626C90.3349 10.63 90.1069 9.51402 90.1069 8.27802C90.1069 6.97002 90.3529 5.83002 90.8449 4.85802C91.3489 3.88602 92.0509 3.13002 92.9509 2.59002C93.8629 2.05002 94.9309 1.78002 96.1549 1.78002C96.9709 1.78002 97.7149 1.90002 98.3869 2.14002C99.0709 2.38002 99.6529 2.71602 100.133 3.14802C100.181 3.19602 100.181 3.25002 100.133 3.31002L99.5749 4.01202Z" fill="black"/>
<path d="M103.299 17.44L102.705 16.846C103.185 16.45 103.647 15.898 104.091 15.19C104.547 14.482 104.919 13.612 105.207 12.58C105.495 11.536 105.639 10.336 105.639 8.98002C105.639 7.61202 105.495 6.41202 105.207 5.38002C104.919 4.34802 104.547 3.47802 104.091 2.77002C103.647 2.05002 103.185 1.49802 102.705 1.11402L103.299 0.52002C103.815 0.868019 104.283 1.34202 104.703 1.94202C105.135 2.54202 105.501 3.22602 105.801 3.99402C106.113 4.75002 106.347 5.55402 106.503 6.40602C106.671 7.25802 106.755 8.11602 106.755 8.98002C106.755 9.84402 106.671 10.702 106.503 11.554C106.347 12.406 106.113 13.216 105.801 13.984C105.501 14.74 105.141 15.418 104.721 16.018C104.301 16.618 103.827 17.092 103.299 17.44Z" fill="black"/>
<path d="M120.209 16.18C120.161 16.18 120.137 16.15 120.137 16.09V3.09402C120.137 2.63802 120.119 2.21802 120.083 1.83402C120.059 1.43802 120.017 1.18002 119.957 1.06002C119.933 1.00002 119.933 0.958019 119.957 0.93402C119.993 0.898019 120.035 0.880019 120.083 0.880019C120.155 0.880019 120.275 0.886019 120.443 0.898019C120.623 0.898019 120.797 0.904019 120.965 0.916019C121.133 0.916019 121.229 0.916019 121.253 0.916019C121.313 0.916019 121.343 0.964019 121.343 1.06002C121.307 1.50402 121.283 1.89402 121.271 2.23002C121.271 2.55402 121.271 2.93202 121.271 3.36402V7.57602C121.595 7.57602 121.943 7.56402 122.315 7.54002C122.699 7.50402 123.053 7.46802 123.377 7.43202C123.713 7.38402 123.965 7.33602 124.133 7.28802C124.241 7.27602 124.301 7.31202 124.313 7.39602C124.337 7.55202 124.355 7.70802 124.367 7.86402C124.379 8.02002 124.391 8.17602 124.403 8.33202C124.403 8.46402 124.349 8.53002 124.241 8.53002C124.061 8.50602 123.797 8.49402 123.449 8.49402C123.113 8.49402 122.753 8.49402 122.369 8.49402C121.985 8.49402 121.619 8.50002 121.271 8.51202V15.73C121.271 15.91 121.259 16.018 121.235 16.054C121.223 16.09 121.187 16.114 121.127 16.126L120.209 16.18ZM109.841 13.264L109.409 12.868C109.361 12.82 109.379 12.76 109.463 12.688C110.219 12.292 110.969 11.758 111.713 11.086C112.469 10.414 113.165 9.67002 113.801 8.85402C114.437 8.03802 114.965 7.20402 115.385 6.35202C115.805 5.48802 116.063 4.67202 116.159 3.90402C116.183 3.77202 116.129 3.70602 115.997 3.70602L112.469 3.92202L110.597 4.08402C110.477 4.09602 110.399 4.08402 110.363 4.04802C110.327 4.00002 110.297 3.94602 110.273 3.88602C110.261 3.87402 110.255 3.86202 110.255 3.85002C110.207 3.71802 110.171 3.61002 110.147 3.52602C110.123 3.43002 110.087 3.28002 110.039 3.07602C110.027 3.05202 110.033 3.02202 110.057 2.98602C110.081 2.95002 110.123 2.93802 110.183 2.95002C110.711 2.99802 111.299 3.02202 111.947 3.02202C112.607 3.01002 113.267 2.98602 113.927 2.95002C114.587 2.90202 115.181 2.84802 115.709 2.78802C115.853 2.77602 116.009 2.75202 116.177 2.71602C116.345 2.68002 116.429 2.66202 116.429 2.66202C116.489 2.63802 116.555 2.63802 116.627 2.66202L117.617 2.98602C117.713 3.03402 117.755 3.11202 117.743 3.22002L117.329 4.55202C117.161 5.08002 116.897 5.71002 116.537 6.44202C116.177 7.17402 115.715 7.94802 115.151 8.76402C114.587 9.56802 113.909 10.36 113.117 11.14C112.337 11.92 111.437 12.628 110.417 13.264C110.321 13.324 110.225 13.36 110.129 13.372C110.033 13.384 109.937 13.348 109.841 13.264Z" fill="black"/>
</svg>
