<svg width="32" height="18" viewBox="0 0 32 18" fill="none" xmlns="http://www.w3.org/2000/svg">
<path d="M9.71998 17.5299C8.96398 17.5299 8.29198 17.3919 7.70398 17.1159C7.12798 16.8519 6.67198 16.4859 6.33598 16.0179C6.01198 15.5499 5.84998 15.0099 5.84998 14.3979C5.84998 13.8099 6.02998 13.2759 6.38998 12.7959C6.74998 12.3159 7.22998 11.9379 7.82998 11.6619C8.42998 11.3739 9.08398 11.2299 9.79198 11.2299C10.512 11.2299 11.166 11.3499 11.754 11.5899C12.354 11.8179 12.828 12.1659 13.176 12.6339C13.536 13.0899 13.704 13.6539 13.68 14.3259C13.668 14.9499 13.482 15.5019 13.122 15.9819C12.774 16.4619 12.3 16.8399 11.7 17.1159C11.112 17.3919 10.452 17.5299 9.71998 17.5299ZM1.20598 10.4559L0.755979 10.0599C0.707979 10.0119 0.725979 9.95788 0.809979 9.89788C0.821979 9.88588 0.827979 9.87988 0.827979 9.87988C1.69198 9.31588 2.44198 8.66188 3.07798 7.91788C3.71398 7.17388 4.21198 6.40588 4.57198 5.61388C4.93198 4.82188 5.12998 4.07188 5.16598 3.36388C4.99798 3.37588 4.81798 3.38788 4.62598 3.39988C4.43398 3.41188 4.21798 3.42988 3.97798 3.45388C3.61798 3.47788 3.30598 3.50188 3.04198 3.52588C2.78998 3.54988 2.50198 3.58588 2.17798 3.63388C2.05798 3.64588 1.97998 3.63388 1.94398 3.59788C1.90798 3.54988 1.87798 3.49588 1.85398 3.43588C1.84198 3.42388 1.83598 3.41188 1.83598 3.39988C1.79998 3.30388 1.76398 3.19588 1.72798 3.07588C1.70398 2.95588 1.67398 2.81788 1.63798 2.66188C1.62598 2.63788 1.63198 2.60788 1.65598 2.57188C1.67998 2.53588 1.72198 2.51788 1.78198 2.51788C2.06998 2.52988 2.38798 2.54788 2.73598 2.57188C3.08398 2.58388 3.43198 2.58388 3.77998 2.57188C4.30798 2.54788 4.84198 2.52988 5.38198 2.51788C5.93398 2.49388 6.48598 2.45788 7.03798 2.40988C7.48198 2.38588 7.90198 2.34988 8.29798 2.30188C8.69398 2.25388 9.04798 2.19988 9.35998 2.13988C9.39598 2.12788 9.43798 2.13388 9.48598 2.15788C9.53398 2.16988 9.56398 2.20588 9.57598 2.26588C9.59998 2.34988 9.62398 2.47588 9.64798 2.64388C9.67198 2.79988 9.68998 2.94988 9.70198 3.09388C9.70198 3.22588 9.62998 3.29188 9.48598 3.29188C9.36598 3.29188 9.24598 3.29188 9.12598 3.29188C9.00598 3.29188 8.87998 3.29188 8.74798 3.29188C8.49598 3.29188 8.23798 3.29188 7.97398 3.29188C7.70998 3.27988 7.43398 3.27988 7.14598 3.29188C7.02598 3.29188 6.90598 3.29788 6.78598 3.30988C6.67798 3.30988 6.56998 3.30988 6.46198 3.30988C6.41398 3.64588 6.32998 4.01788 6.20998 4.42588C6.08998 4.83388 5.91598 5.26588 5.68798 5.72188C6.16798 6.05788 6.65998 6.42988 7.16398 6.83788C7.67998 7.23388 8.14198 7.60588 8.54998 7.95388C8.96998 8.28988 9.26398 8.54788 9.43198 8.72788C9.49198 8.77588 9.53398 8.83588 9.55798 8.90788C9.59398 8.97988 9.58198 9.05788 9.52198 9.14188C9.49798 9.17788 9.43798 9.24388 9.34198 9.33988C9.24598 9.43588 9.14998 9.53188 9.05398 9.62788C8.95798 9.72388 8.88598 9.78988 8.83798 9.82588C8.74198 9.88588 8.66398 9.87988 8.60398 9.80788C8.37598 9.49588 8.06998 9.13588 7.68598 8.72788C7.31398 8.30788 6.91798 7.89988 6.49798 7.50388C6.08998 7.09588 5.69998 6.75388 5.32798 6.47788C4.96798 7.13788 4.50598 7.80988 3.94198 8.49388C3.37798 9.16588 2.65198 9.81388 1.76398 10.4379C1.70398 10.4859 1.62598 10.5279 1.52998 10.5639C1.43398 10.5879 1.32598 10.5519 1.20598 10.4559ZM9.75598 16.5939C10.512 16.5699 11.148 16.3659 11.664 15.9819C12.192 15.5979 12.468 15.0399 12.492 14.3079C12.516 13.8279 12.402 13.4259 12.15 13.1019C11.91 12.7779 11.58 12.5319 11.16 12.3639C10.752 12.1839 10.29 12.0939 9.77398 12.0939C9.25798 12.1059 8.78998 12.2139 8.36998 12.4179C7.96198 12.6099 7.63198 12.8739 7.37998 13.2099C7.12798 13.5459 7.00198 13.9359 7.00198 14.3799C7.00198 14.8359 7.12198 15.2319 7.36198 15.5679C7.61398 15.8919 7.94398 16.1439 8.35198 16.3239C8.77198 16.5039 9.23998 16.5939 9.75598 16.5939ZM12.456 10.9779C12.408 10.9779 12.384 10.9479 12.384 10.8879V6.18988C12.168 6.20188 11.958 6.21388 11.754 6.22588C11.55 6.23788 11.358 6.24988 11.178 6.26188C10.89 6.27388 10.56 6.30388 10.188 6.35188C9.81598 6.38788 9.48598 6.42388 9.19798 6.45988C9.06598 6.48388 8.97598 6.47788 8.92798 6.44188C8.87998 6.40588 8.84398 6.35188 8.81998 6.27988C8.77198 6.12388 8.72998 5.97988 8.69398 5.84788C8.66998 5.70388 8.64598 5.57188 8.62198 5.45188C8.62198 5.35588 8.66998 5.31988 8.76598 5.34388C8.95798 5.36788 9.25798 5.38588 9.66598 5.39788C10.086 5.39788 10.542 5.39188 11.034 5.37988C11.526 5.35588 11.976 5.33188 12.384 5.30788V3.07588C12.384 2.61988 12.366 2.19988 12.33 1.81588C12.306 1.43188 12.264 1.17988 12.204 1.05988C12.18 0.999883 12.18 0.957883 12.204 0.933883C12.24 0.897883 12.282 0.879883 12.33 0.879883C12.462 0.879883 12.642 0.879883 12.87 0.879883C13.098 0.879883 13.308 0.885883 13.5 0.897883C13.56 0.897883 13.59 0.945883 13.59 1.04188C13.554 1.48588 13.53 1.87588 13.518 2.21188C13.518 2.53588 13.518 2.91388 13.518 3.34588V10.5279C13.518 10.7079 13.506 10.8159 13.482 10.8519C13.47 10.8879 13.434 10.9119 13.374 10.9239L12.456 10.9779Z" fill="black"/>
<path d="M20.2479 8.78188C19.8279 8.79388 19.5339 8.67988 19.3659 8.43988C19.1979 8.19988 19.1139 7.79188 19.1139 7.21588V4.31788C19.1139 3.89788 19.0839 3.53788 19.0239 3.23788C18.9639 2.92588 18.9039 2.70988 18.8439 2.58988C18.8079 2.51788 18.8079 2.45788 18.8439 2.40988C18.8799 2.34988 18.9279 2.31988 18.9879 2.31988C19.0719 2.31988 19.2219 2.32588 19.4379 2.33788C19.6539 2.34988 19.8819 2.36188 20.1219 2.37388C20.5299 2.38588 21.0219 2.39188 21.5979 2.39188C22.1739 2.37988 22.7859 2.36188 23.4339 2.33788C24.0939 2.31388 24.7359 2.28988 25.3599 2.26588C26.0679 2.24188 26.6799 2.20588 27.1959 2.15788C27.7119 2.10988 28.1259 2.06788 28.4379 2.03188C28.4739 2.03188 28.5159 2.03788 28.5639 2.04988C28.6119 2.06188 28.6419 2.09788 28.6539 2.15788L28.7079 2.64388C28.7199 2.69188 28.7259 2.73988 28.7259 2.78788C28.7259 2.82388 28.7259 2.86588 28.7259 2.91388C28.7499 3.04588 28.6779 3.11188 28.5099 3.11188C28.1739 3.11188 27.8499 3.11788 27.5379 3.12988C27.2259 3.12988 26.8959 3.13588 26.5479 3.14788L20.2479 3.30988V6.99988C20.2479 7.35988 20.2779 7.59388 20.3379 7.70188C20.3979 7.80988 20.5239 7.86988 20.7159 7.88188C21.0159 7.89388 21.3939 7.89988 21.8499 7.89988C22.3059 7.89988 22.7799 7.89388 23.2719 7.88188C23.7639 7.86988 24.2199 7.85788 24.6399 7.84588C25.0719 7.82188 25.4019 7.80388 25.6299 7.79188C26.2779 7.76788 26.8419 7.73188 27.3219 7.68388C27.8139 7.63588 28.2099 7.58188 28.5099 7.52188C28.6299 7.49788 28.7079 7.50388 28.7439 7.53988C28.7799 7.56388 28.8039 7.60588 28.8159 7.66588C28.8399 7.79788 28.8519 7.92988 28.8519 8.06188C28.8639 8.18188 28.8759 8.31988 28.8879 8.47588C28.8879 8.54788 28.8639 8.59588 28.8159 8.61988C28.7799 8.64388 28.6779 8.65588 28.5099 8.65588C27.2259 8.65588 25.8699 8.67388 24.4419 8.70988C23.0259 8.73388 21.6279 8.75788 20.2479 8.78188ZM17.0979 14.3619C16.9659 14.3739 16.8759 14.3619 16.8279 14.3259C16.7799 14.2899 16.7439 14.2359 16.7199 14.1639C16.6719 14.0319 16.6299 13.8999 16.5939 13.7679C16.5579 13.6239 16.5159 13.4499 16.4679 13.2459C16.4559 13.2219 16.4619 13.1919 16.4859 13.1559C16.5099 13.1079 16.5519 13.0899 16.6119 13.1019C17.0679 13.1619 17.6919 13.2039 18.4839 13.2279C19.2759 13.2399 20.1459 13.2459 21.0939 13.2459C21.4779 13.2459 21.8679 13.2459 22.2639 13.2459C22.6719 13.2459 23.0859 13.2399 23.5059 13.2279V11.7339C23.5059 11.2659 23.4879 10.8579 23.4519 10.5099C23.4159 10.1619 23.3739 9.92788 23.3259 9.80788C23.2779 9.68788 23.3199 9.62788 23.4519 9.62788H24.5319C24.6039 9.62788 24.6399 9.67588 24.6399 9.77188C24.6399 9.78388 24.6399 9.79588 24.6399 9.80788C24.6159 10.1199 24.5979 10.4199 24.5859 10.7079C24.5739 10.9959 24.5679 11.2959 24.5679 11.6079L24.5499 13.2099C25.4619 13.1859 26.3379 13.1559 27.1779 13.1199C28.0179 13.0719 28.7739 13.0179 29.4459 12.9579C30.1179 12.8979 30.6339 12.8379 30.9939 12.7779C31.1139 12.7539 31.1919 12.7599 31.2279 12.7959C31.2639 12.8319 31.2879 12.8799 31.2999 12.9399L31.4079 13.8039C31.4079 13.8639 31.3899 13.9179 31.3539 13.9659C31.3179 14.0139 31.2219 14.0379 31.0659 14.0379C30.6579 14.0259 30.1839 14.0199 29.6439 14.0199C29.1039 14.0199 28.5279 14.0199 27.9159 14.0199C26.4159 14.0199 24.9639 14.0379 23.5599 14.0739C22.1559 14.0979 20.8959 14.1339 19.7799 14.1819C18.6639 14.2299 17.7699 14.2899 17.0979 14.3619Z" fill="black"/>
</svg>
