<svg width="130" height="18" viewBox="0 0 130 18" fill="none" xmlns="http://www.w3.org/2000/svg">
<path d="M0.92601 11.032C0.90201 11.032 0.87201 11.026 0.83601 11.014C0.80001 11.002 0.78201 10.966 0.78201 10.906C0.78201 10.894 0.78201 10.858 0.78201 10.798C0.78201 10.558 0.77601 9.96402 0.76401 9.01602C0.75201 8.06802 0.69801 6.70002 0.60201 4.91202C0.57801 4.60002 0.53601 4.27002 0.47601 3.92202C0.42801 3.57402 0.36801 3.35802 0.29601 3.27402C0.24801 3.20202 0.24801 3.14202 0.29601 3.09402C0.34401 3.04602 0.39201 3.02202 0.44001 3.02202C0.63201 3.03402 0.83601 3.04602 1.05201 3.05802C1.26801 3.07002 1.47201 3.07602 1.66401 3.07602C2.08401 3.07602 2.54601 3.07002 3.05001 3.05802C3.56601 3.03402 4.07001 3.01002 4.56201 2.98602C5.05401 2.96202 5.48601 2.93802 5.85801 2.91402C6.23001 2.87802 6.48801 2.84802 6.63201 2.82402C6.65601 2.82402 6.68001 2.81802 6.70401 2.80602C6.78801 2.79402 6.86001 2.79402 6.92001 2.80602L7.94601 2.96802C8.00601 2.99202 8.04201 3.02202 8.05401 3.05802C8.06601 3.08202 8.06601 3.12402 8.05401 3.18402C8.00601 3.44802 7.96401 3.76002 7.92801 4.12002C7.89201 4.46802 7.87401 4.72602 7.87401 4.89402C7.85001 5.26602 7.82601 5.70402 7.80201 6.20802C7.77801 6.70002 7.75401 7.21602 7.73001 7.75602C7.70601 8.29602 7.68201 8.81202 7.65801 9.30402C7.63401 9.79602 7.61601 10.222 7.60401 10.582C7.59201 10.738 7.50201 10.816 7.33401 10.816C7.22601 10.816 7.00401 10.822 6.66801 10.834C6.33201 10.834 5.93601 10.84 5.48001 10.852C5.03601 10.852 4.57401 10.858 4.09401 10.87C3.61401 10.882 3.16401 10.894 2.74401 10.906C2.33601 10.918 2.00601 10.93 1.75401 10.942C1.63401 10.966 1.47201 10.99 1.26801 11.014C1.07601 11.026 0.96201 11.032 0.92601 11.032ZM1.82601 9.95202C2.11401 9.95202 2.47401 9.94602 2.90601 9.93402C3.35001 9.92202 3.81201 9.91002 4.29201 9.89802C4.77201 9.88602 5.21001 9.86802 5.60601 9.84402C6.01401 9.82002 6.32001 9.80202 6.52401 9.79002C6.56001 8.81802 6.59001 7.86402 6.61401 6.92802C6.63801 5.99202 6.66201 5.03202 6.68601 4.04802C6.69801 3.92802 6.64401 3.86802 6.52401 3.86802L1.71801 4.04802L1.82601 9.95202ZM11.366 16.18C11.318 16.18 11.294 16.15 11.294 16.09V6.98202L10.484 7.01802C10.196 7.03002 9.89001 7.05402 9.56601 7.09002C9.24201 7.12602 8.93601 7.16202 8.64801 7.19802C8.51601 7.22202 8.42601 7.21602 8.37801 7.18002C8.33001 7.14402 8.29401 7.09002 8.27001 7.01802C8.22201 6.86202 8.18601 6.71202 8.16201 6.56802C8.13801 6.41202 8.11401 6.28002 8.09001 6.17202C8.09001 6.07602 8.13801 6.04002 8.23401 6.06402C8.41401 6.08802 8.67201 6.10602 9.00801 6.11802C9.35601 6.13002 9.73401 6.13002 10.142 6.11802C10.55 6.09402 10.934 6.07002 11.294 6.04602V3.09402C11.294 2.63802 11.276 2.21802 11.24 1.83402C11.216 1.43802 11.174 1.18002 11.114 1.06002C11.09 1.00002 11.09 0.958019 11.114 0.93402C11.15 0.898019 11.192 0.880019 11.24 0.880019C11.312 0.880019 11.432 0.886019 11.6 0.898019C11.78 0.898019 11.954 0.904019 12.122 0.916019C12.29 0.916019 12.386 0.916019 12.41 0.916019C12.47 0.916019 12.5 0.964019 12.5 1.06002C12.464 1.50402 12.44 1.89402 12.428 2.23002C12.428 2.55402 12.428 2.93202 12.428 3.36402V15.73C12.428 15.91 12.416 16.018 12.392 16.054C12.38 16.09 12.344 16.114 12.284 16.126L11.366 16.18Z" fill="black"/>
<path d="M17.4701 12.436C17.2061 12.424 17.0021 12.292 16.8581 12.04C16.7141 11.788 16.6421 11.47 16.6421 11.086V8.45802C16.6421 8.21802 16.6361 7.96002 16.6241 7.68402C16.6121 7.40802 16.5641 7.15002 16.4801 6.91002C16.4201 6.76602 16.4741 6.70602 16.6421 6.73002C16.7861 6.74202 17.0441 6.74802 17.4161 6.74802C17.8001 6.74802 18.2321 6.74202 18.7121 6.73002C19.1921 6.71802 19.6661 6.70602 20.1341 6.69402C20.6021 6.67002 20.9981 6.64602 21.3221 6.62202C21.6581 6.58602 21.8501 6.55602 21.8981 6.53202C21.9341 6.28002 21.9701 5.96202 22.0061 5.57802C22.0421 5.19402 22.0781 4.81002 22.1141 4.42602C22.1621 4.03002 22.1921 3.70602 22.2041 3.45402C22.2041 3.38202 22.1741 3.34602 22.1141 3.34602C21.5981 3.34602 21.0641 3.36402 20.5121 3.40002C19.9721 3.42402 19.4501 3.44802 18.9461 3.47202C18.6581 3.49602 18.3461 3.52002 18.0101 3.54402C17.6741 3.56802 17.3621 3.59202 17.0741 3.61602C16.9421 3.62802 16.8581 3.62202 16.8221 3.59802C16.7981 3.56202 16.7741 3.50802 16.7501 3.43602L16.5521 2.71602C16.5401 2.69202 16.5461 2.66802 16.5701 2.64402C16.5941 2.60802 16.6241 2.59602 16.6601 2.60802C16.7441 2.62002 16.9541 2.62602 17.2901 2.62602C17.6381 2.62602 18.0461 2.62002 18.5141 2.60802C18.9941 2.59602 19.4801 2.57802 19.9721 2.55402C20.4761 2.51802 20.9381 2.48802 21.3581 2.46402C21.7781 2.42802 22.0961 2.38602 22.3121 2.33802C22.3721 2.31402 22.4201 2.30802 22.4561 2.32002C22.4921 2.32002 22.5221 2.32002 22.5461 2.32002C22.5701 2.33202 22.5881 2.33802 22.6001 2.33802L23.4461 2.55402C23.5421 2.57802 23.5781 2.62002 23.5541 2.68002C23.5421 2.77602 23.5181 2.92602 23.4821 3.13002C23.4461 3.32202 23.4101 3.52002 23.3741 3.72402C23.3381 3.92802 23.3081 4.09602 23.2841 4.22802L22.8701 7.32402C22.8581 7.43202 22.7981 7.48602 22.6901 7.48602C22.5581 7.48602 22.3301 7.49202 22.0061 7.50402C21.6821 7.51602 21.3101 7.52802 20.8901 7.54002C20.4701 7.55202 20.0501 7.57002 19.6301 7.59402C19.2101 7.61802 18.8321 7.64202 18.4961 7.66602C18.1601 7.67802 17.9201 7.69002 17.7761 7.70202V10.996C17.7761 11.116 17.7941 11.2 17.8301 11.248C17.8781 11.284 17.9321 11.308 17.9921 11.32C18.3521 11.344 18.8561 11.332 19.5041 11.284C20.1521 11.224 20.8541 11.128 21.6101 10.996C22.3661 10.864 23.1041 10.702 23.8241 10.51C24.5561 10.318 25.1801 10.09 25.6961 9.82602C25.8161 9.77802 25.8821 9.79002 25.8941 9.86202L25.9301 10.114L25.9841 10.51C25.9841 10.57 25.9721 10.624 25.9481 10.672C25.9361 10.708 25.8881 10.744 25.8041 10.78C25.4081 10.96 24.8741 11.146 24.2021 11.338C23.5421 11.518 22.8101 11.692 22.0061 11.86C21.2141 12.016 20.4221 12.148 19.6301 12.256C18.8381 12.364 18.1181 12.424 17.4701 12.436ZM26.6681 16.18C26.6201 16.18 26.5961 16.15 26.5961 16.09V3.09402C26.5961 2.63802 26.5781 2.21802 26.5421 1.83402C26.5181 1.43802 26.4761 1.18002 26.4161 1.06002C26.3921 1.00002 26.3921 0.958019 26.4161 0.93402C26.4521 0.898019 26.4941 0.880019 26.5421 0.880019C26.6141 0.880019 26.7341 0.886019 26.9021 0.898019C27.0821 0.898019 27.2561 0.904019 27.4241 0.916019C27.5921 0.916019 27.6881 0.916019 27.7121 0.916019C27.7721 0.916019 27.8021 0.964019 27.8021 1.06002C27.7661 1.50402 27.7421 1.89402 27.7301 2.23002C27.7301 2.55402 27.7301 2.93202 27.7301 3.36402V15.73C27.7301 15.91 27.7181 16.018 27.6941 16.054C27.6821 16.09 27.6461 16.114 27.5861 16.126L26.6681 16.18Z" fill="black"/>
<path d="M41.3594 17.08C40.9874 17.068 40.6934 16.942 40.4774 16.702C40.2614 16.462 40.1534 16.084 40.1534 15.568V14.65C40.1534 14.458 40.1414 14.266 40.1174 14.074C40.0934 13.882 40.0394 13.708 39.9554 13.552C39.9314 13.504 39.9314 13.456 39.9554 13.408C39.9794 13.36 40.0334 13.336 40.1174 13.336C40.4294 13.348 40.8314 13.36 41.3234 13.372C41.8154 13.372 42.3554 13.372 42.9434 13.372C43.5314 13.372 44.1134 13.366 44.6894 13.354C45.2774 13.33 45.8114 13.306 46.2914 13.282C46.7834 13.258 47.1734 13.222 47.4614 13.174L47.5154 11.626C47.5154 11.614 47.5154 11.596 47.5154 11.572C47.5154 11.512 47.5094 11.476 47.4974 11.464C47.4854 11.44 47.4314 11.428 47.3354 11.428C47.0714 11.428 46.6934 11.434 46.2014 11.446C45.7094 11.458 45.1814 11.476 44.6174 11.5C44.0654 11.512 43.5374 11.53 43.0334 11.554C42.5294 11.566 42.1214 11.584 41.8094 11.608L40.4234 11.698C40.2914 11.71 40.2074 11.698 40.1714 11.662C40.1354 11.614 40.1054 11.548 40.0814 11.464L39.9734 10.798C39.9494 10.702 39.9974 10.66 40.1174 10.672C40.3214 10.684 40.6334 10.696 41.0534 10.708C41.4854 10.72 41.9774 10.726 42.5294 10.726C43.0934 10.714 43.6754 10.696 44.2754 10.672C44.8754 10.648 45.4514 10.618 46.0034 10.582C46.5554 10.546 47.0354 10.498 47.4434 10.438C47.4674 10.438 47.4914 10.432 47.5154 10.42C47.5994 10.408 47.6654 10.408 47.7134 10.42L48.6314 10.564C48.6914 10.576 48.7214 10.6 48.7214 10.636C48.7334 10.66 48.7394 10.684 48.7394 10.708C48.7394 10.72 48.7394 10.726 48.7394 10.726C48.6794 11.266 48.6314 11.776 48.5954 12.256C48.5594 12.736 48.5234 13.246 48.4874 13.786C48.4754 13.918 48.4394 14.002 48.3794 14.038C48.3194 14.062 48.2594 14.074 48.1994 14.074C47.8034 14.074 47.3114 14.08 46.7234 14.092C46.1354 14.104 45.5114 14.116 44.8514 14.128C44.2034 14.14 43.5674 14.158 42.9434 14.182C42.3194 14.194 41.7674 14.206 41.2874 14.218V15.496C41.2874 15.772 41.3114 15.946 41.3594 16.018C41.4194 16.102 41.5514 16.15 41.7554 16.162C42.5354 16.186 43.3634 16.192 44.2394 16.18C45.1154 16.168 45.9434 16.138 46.7234 16.09C47.2154 16.066 47.6654 16.03 48.0734 15.982C48.4814 15.934 48.8414 15.868 49.1534 15.784C49.2734 15.76 49.3514 15.766 49.3874 15.802C49.4234 15.838 49.4474 15.886 49.4594 15.946L49.5674 16.702C49.5794 16.762 49.5614 16.816 49.5134 16.864C49.4654 16.912 49.3574 16.936 49.1894 16.936C48.3494 16.936 47.4734 16.942 46.5614 16.954C45.6494 16.978 44.7494 16.996 43.8614 17.008C42.9854 17.032 42.1514 17.056 41.3594 17.08ZM36.8594 10.762L36.4634 10.348C36.4154 10.3 36.4334 10.24 36.5174 10.168C37.2254 9.82002 37.9394 9.38202 38.6594 8.85402C39.3794 8.31402 40.0454 7.72602 40.6574 7.09002C41.2814 6.44202 41.7974 5.78802 42.2054 5.12802C42.6254 4.45602 42.8834 3.81402 42.9794 3.20202C42.9914 3.07002 42.9434 3.00402 42.8354 3.00402C42.3194 3.01602 41.8094 3.04002 41.3054 3.07602C40.8134 3.11202 40.3094 3.14802 39.7934 3.18402C39.4334 3.20802 39.0674 3.23802 38.6954 3.27402C38.3354 3.31002 37.9634 3.34602 37.5794 3.38202C37.4594 3.39402 37.3814 3.38202 37.3454 3.34602C37.3094 3.29802 37.2794 3.24402 37.2554 3.18402C37.2434 3.17202 37.2374 3.16002 37.2374 3.14802C37.1894 3.01602 37.1534 2.90802 37.1294 2.82402C37.1054 2.72802 37.0694 2.57802 37.0214 2.37402C37.0094 2.35002 37.0154 2.32002 37.0394 2.28402C37.0634 2.24802 37.1054 2.23602 37.1654 2.24802C37.6934 2.29602 38.2634 2.32002 38.8754 2.32002C39.4874 2.30802 40.0994 2.28402 40.7114 2.24802C41.3234 2.20002 41.8934 2.14602 42.4214 2.08602C42.5534 2.06202 42.7034 2.03802 42.8714 2.01402C43.0394 1.97802 43.1294 1.96002 43.1414 1.96002C43.2014 1.93602 43.2674 1.93602 43.3394 1.96002C43.4354 1.98402 43.5614 2.03202 43.7174 2.10402C43.8734 2.16402 44.0174 2.22402 44.1494 2.28402C44.2814 2.34402 44.3594 2.38002 44.3834 2.39202C44.5034 2.44002 44.5454 2.51802 44.5094 2.62602C44.4254 2.87802 44.3474 3.10602 44.2754 3.31002C44.2034 3.50202 44.1074 3.73602 43.9874 4.01202C43.7354 4.63602 43.3394 5.33802 42.7994 6.11802C42.2594 6.88602 41.5514 7.67202 40.6754 8.47602C39.7994 9.28002 38.7194 10.042 37.4354 10.762C37.3394 10.822 37.2434 10.858 37.1474 10.87C37.0514 10.882 36.9554 10.846 36.8594 10.762ZM47.6234 9.50202C47.5754 9.50202 47.5514 9.47202 47.5514 9.41202V3.07602C47.5514 2.62002 47.5334 2.20002 47.4974 1.81602C47.4734 1.43202 47.4314 1.18002 47.3714 1.06002C47.3474 1.00002 47.3474 0.958019 47.3714 0.93402C47.4074 0.898019 47.4494 0.880019 47.4974 0.880019C47.5934 0.880019 47.7554 0.880019 47.9834 0.880019C48.2234 0.880019 48.4514 0.886019 48.6674 0.898019C48.7274 0.898019 48.7574 0.946019 48.7574 1.04202C48.7214 1.48602 48.6974 1.87602 48.6854 2.21202C48.6854 2.53602 48.6854 2.91402 48.6854 3.34602V9.05202C48.6854 9.23202 48.6734 9.34002 48.6494 9.37602C48.6374 9.41202 48.6014 9.43602 48.5414 9.44802L47.6234 9.50202Z" fill="black"/>
<path d="M56.3057 10.6C55.5737 10.612 54.9017 10.462 54.2897 10.15C53.6777 9.83802 53.1857 9.39402 52.8137 8.81802C52.4537 8.23002 52.2737 7.55802 52.2737 6.80202C52.2737 6.07002 52.4537 5.41602 52.8137 4.84002C53.1737 4.25202 53.6597 3.78402 54.2717 3.43602C54.8957 3.07602 55.5797 2.89002 56.3237 2.87802C57.0677 2.85402 57.7397 2.98602 58.3397 3.27402C58.9517 3.56202 59.4377 3.98802 59.7977 4.55202C60.1577 5.11602 60.3377 5.81202 60.3377 6.64002C60.3377 7.38402 60.1577 8.05002 59.7977 8.63802C59.4377 9.22602 58.9517 9.69402 58.3397 10.042C57.7277 10.39 57.0497 10.576 56.3057 10.6ZM56.3237 9.57402C56.8517 9.55002 57.3317 9.41802 57.7637 9.17802C58.1957 8.92602 58.5377 8.58402 58.7897 8.15202C59.0537 7.70802 59.1857 7.21002 59.1857 6.65802C59.1857 6.04602 59.0537 5.52402 58.7897 5.09202C58.5377 4.66002 58.1957 4.33602 57.7637 4.12002C57.3317 3.89202 56.8517 3.79002 56.3237 3.81402C55.7957 3.82602 55.3097 3.96402 54.8657 4.22802C54.4217 4.48002 54.0677 4.82802 53.8037 5.27202C53.5397 5.70402 53.4077 6.20802 53.4077 6.78402C53.4077 7.38402 53.5397 7.89402 53.8037 8.31402C54.0797 8.73402 54.4397 9.05202 54.8837 9.26802C55.3277 9.48402 55.8077 9.58602 56.3237 9.57402ZM63.3797 16.18C63.3317 16.18 63.3077 16.15 63.3077 16.09V3.09402C63.3077 2.63802 63.2897 2.21802 63.2537 1.83402C63.2297 1.43802 63.1877 1.18002 63.1277 1.06002C63.1037 1.00002 63.1037 0.958019 63.1277 0.93402C63.1637 0.898019 63.2057 0.880019 63.2537 0.880019C63.3257 0.880019 63.4457 0.886019 63.6137 0.898019C63.7937 0.898019 63.9677 0.904019 64.1357 0.916019C64.3037 0.916019 64.3997 0.916019 64.4237 0.916019C64.4837 0.916019 64.5137 0.964019 64.5137 1.06002C64.4777 1.50402 64.4537 1.89402 64.4417 2.23002C64.4417 2.55402 64.4417 2.93202 64.4417 3.36402V15.73C64.4417 15.91 64.4297 16.018 64.4057 16.054C64.3937 16.09 64.3577 16.114 64.2977 16.126L63.3797 16.18Z" fill="black"/>
<path d="M71.9318 17.44C71.4158 17.092 70.9418 16.618 70.5098 16.018C70.0898 15.418 69.7238 14.74 69.4118 13.984C69.1118 13.216 68.8778 12.406 68.7098 11.554C68.5538 10.702 68.4758 9.84402 68.4758 8.98002C68.4758 8.11602 68.5538 7.25802 68.7098 6.40602C68.8778 5.55402 69.1118 4.75002 69.4118 3.99402C69.7238 3.22602 70.0898 2.54202 70.5098 1.94202C70.9418 1.34202 71.4158 0.868019 71.9318 0.52002L72.5258 1.11402C72.0458 1.49802 71.5778 2.05002 71.1218 2.77002C70.6778 3.47802 70.3118 4.34802 70.0238 5.38002C69.7358 6.41202 69.5918 7.61202 69.5918 8.98002C69.5918 10.336 69.7358 11.536 70.0238 12.58C70.3118 13.612 70.6778 14.482 71.1218 15.19C71.5778 15.898 72.0458 16.45 72.5258 16.846L71.9318 17.44Z" fill="black"/>
<path d="M84.1608 4.01202C84.1248 4.07202 84.0708 4.07802 83.9988 4.03002C83.5908 3.63402 83.1108 3.32802 82.5588 3.11202C82.0068 2.89602 81.3888 2.78802 80.7048 2.78802C79.6848 2.78802 78.8148 3.01602 78.0948 3.47202C77.3748 3.92802 76.8228 4.57002 76.4388 5.39802C76.0548 6.21402 75.8628 7.16802 75.8628 8.26002C75.8628 9.37602 76.0548 10.354 76.4388 11.194C76.8348 12.022 77.3868 12.67 78.0948 13.138C78.8148 13.594 79.6548 13.822 80.6148 13.822C81.4308 13.822 82.1808 13.666 82.8648 13.354C83.5488 13.042 84.1128 12.64 84.5568 12.148C84.6048 12.076 84.6528 12.076 84.7008 12.148L85.2048 12.814C85.2408 12.862 85.2348 12.91 85.1868 12.958C84.6468 13.522 83.9808 13.978 83.1888 14.326C82.4088 14.662 81.5388 14.83 80.5788 14.83C79.3428 14.83 78.2808 14.542 77.3928 13.966C76.5168 13.39 75.8448 12.61 75.3768 11.626C74.9208 10.63 74.6928 9.51402 74.6928 8.27802C74.6928 6.97002 74.9388 5.83002 75.4308 4.85802C75.9348 3.88602 76.6368 3.13002 77.5368 2.59002C78.4488 2.05002 79.5168 1.78002 80.7408 1.78002C81.5568 1.78002 82.3008 1.90002 82.9728 2.14002C83.6568 2.38002 84.2388 2.71602 84.7188 3.14802C84.7668 3.19602 84.7668 3.25002 84.7188 3.31002L84.1608 4.01202Z" fill="black"/>
<path d="M87.8314 14.452V2.15802C87.8314 2.08602 87.8674 2.05002 87.9394 2.05002H91.2334C92.6254 2.05002 93.6514 2.35602 94.3114 2.96802C94.9714 3.58002 95.3014 4.36602 95.3014 5.32602C95.3014 6.25002 95.0434 7.01802 94.5274 7.63002C94.0114 8.24202 93.3454 8.68602 92.5294 8.96202L94.3654 11.806C94.7014 12.31 94.9834 12.694 95.2114 12.958C95.4394 13.222 95.6554 13.396 95.8594 13.48C96.0754 13.564 96.3034 13.612 96.5434 13.624C96.6154 13.624 96.6514 13.66 96.6514 13.732V14.524C96.6514 14.596 96.6154 14.632 96.5434 14.632C96.1234 14.62 95.7394 14.548 95.3914 14.416C95.0554 14.272 94.7254 14.038 94.4014 13.714C94.0774 13.378 93.7294 12.922 93.3574 12.346L91.3594 9.23202C90.6034 9.34002 89.8174 9.32802 89.0014 9.19602V14.452C89.0014 14.524 88.9654 14.56 88.8934 14.56H87.9394C87.8674 14.56 87.8314 14.524 87.8314 14.452ZM89.0014 3.04002V8.13402C89.9134 8.30202 90.7534 8.31402 91.5214 8.17002C92.3014 8.02602 92.9254 7.72602 93.3934 7.27002C93.8614 6.80202 94.0954 6.17202 94.0954 5.38002C94.0954 4.52802 93.8074 3.92802 93.2314 3.58002C92.6554 3.22002 91.8994 3.04002 90.9634 3.04002H89.0014Z" fill="black"/>
<path d="M98.8177 14.452V2.15802C98.8177 2.08602 98.8537 2.05002 98.9257 2.05002H99.8797C99.9517 2.05002 99.9877 2.08602 99.9877 2.15802V13.534H102.994C104.326 13.534 105.292 13.42 105.892 13.192C105.964 13.18 106.006 13.204 106.018 13.264L106.198 14.074C106.222 14.134 106.198 14.176 106.126 14.2C105.79 14.344 105.352 14.44 104.812 14.488C104.272 14.536 103.666 14.56 102.994 14.56H98.9257C98.8537 14.56 98.8177 14.524 98.8177 14.452Z" fill="black"/>
<path d="M108.768 17.44L108.174 16.846C108.654 16.45 109.116 15.898 109.56 15.19C110.016 14.482 110.388 13.612 110.676 12.58C110.964 11.536 111.108 10.336 111.108 8.98002C111.108 7.61202 110.964 6.41202 110.676 5.38002C110.388 4.34802 110.016 3.47802 109.56 2.77002C109.116 2.05002 108.654 1.49802 108.174 1.11402L108.768 0.52002C109.284 0.868019 109.752 1.34202 110.172 1.94202C110.604 2.54202 110.97 3.22602 111.27 3.99402C111.582 4.75002 111.816 5.55402 111.972 6.40602C112.14 7.25802 112.224 8.11602 112.224 8.98002C112.224 9.84402 112.14 10.702 111.972 11.554C111.816 12.406 111.582 13.216 111.27 13.984C110.97 14.74 110.61 15.418 110.19 16.018C109.77 16.618 109.296 17.092 108.768 17.44Z" fill="black"/>
<path d="M125.677 16.18C125.629 16.18 125.605 16.15 125.605 16.09V3.09402C125.605 2.63802 125.587 2.21802 125.551 1.83402C125.527 1.43802 125.485 1.18002 125.425 1.06002C125.401 1.00002 125.401 0.958019 125.425 0.93402C125.461 0.898019 125.503 0.880019 125.551 0.880019C125.623 0.880019 125.743 0.886019 125.911 0.898019C126.091 0.898019 126.265 0.904019 126.433 0.916019C126.601 0.916019 126.697 0.916019 126.721 0.916019C126.781 0.916019 126.811 0.964019 126.811 1.06002C126.775 1.50402 126.751 1.89402 126.739 2.23002C126.739 2.55402 126.739 2.93202 126.739 3.36402V7.57602C127.063 7.57602 127.411 7.56402 127.783 7.54002C128.167 7.50402 128.521 7.46802 128.845 7.43202C129.181 7.38402 129.433 7.33602 129.601 7.28802C129.709 7.27602 129.769 7.31202 129.781 7.39602C129.805 7.55202 129.823 7.70802 129.835 7.86402C129.847 8.02002 129.859 8.17602 129.871 8.33202C129.871 8.46402 129.817 8.53002 129.709 8.53002C129.529 8.50602 129.265 8.49402 128.917 8.49402C128.581 8.49402 128.221 8.49402 127.837 8.49402C127.453 8.49402 127.087 8.50002 126.739 8.51202V15.73C126.739 15.91 126.727 16.018 126.703 16.054C126.691 16.09 126.655 16.114 126.595 16.126L125.677 16.18ZM115.309 13.264L114.877 12.868C114.829 12.82 114.847 12.76 114.931 12.688C115.687 12.292 116.437 11.758 117.181 11.086C117.937 10.414 118.633 9.67002 119.269 8.85402C119.905 8.03802 120.433 7.20402 120.853 6.35202C121.273 5.48802 121.531 4.67202 121.627 3.90402C121.651 3.77202 121.597 3.70602 121.465 3.70602L117.937 3.92202L116.065 4.08402C115.945 4.09602 115.867 4.08402 115.831 4.04802C115.795 4.00002 115.765 3.94602 115.741 3.88602C115.729 3.87402 115.723 3.86202 115.723 3.85002C115.675 3.71802 115.639 3.61002 115.615 3.52602C115.591 3.43002 115.555 3.28002 115.507 3.07602C115.495 3.05202 115.501 3.02202 115.525 2.98602C115.549 2.95002 115.591 2.93802 115.651 2.95002C116.179 2.99802 116.767 3.02202 117.415 3.02202C118.075 3.01002 118.735 2.98602 119.395 2.95002C120.055 2.90202 120.649 2.84802 121.177 2.78802C121.321 2.77602 121.477 2.75202 121.645 2.71602C121.813 2.68002 121.897 2.66202 121.897 2.66202C121.957 2.63802 122.023 2.63802 122.095 2.66202L123.085 2.98602C123.181 3.03402 123.223 3.11202 123.211 3.22002L122.797 4.55202C122.629 5.08002 122.365 5.71002 122.005 6.44202C121.645 7.17402 121.183 7.94802 120.619 8.76402C120.055 9.56802 119.377 10.36 118.585 11.14C117.805 11.92 116.905 12.628 115.885 13.264C115.789 13.324 115.693 13.36 115.597 13.372C115.501 13.384 115.405 13.348 115.309 13.264Z" fill="black"/>
</svg>
