<svg width="26" height="11" viewBox="0 0 26 11" fill="none" xmlns="http://www.w3.org/2000/svg">
<path d="M4.53061 5.055C5.19061 5.235 5.72061 5.57 6.12061 6.06C6.52061 6.54 6.72061 7.11 6.72061 7.77C6.72061 8.71 6.40561 9.45 5.77561 9.99C5.14561 10.53 4.20061 10.8 2.94061 10.8H0.285606C0.225606 10.8 0.195606 10.77 0.195606 10.71V0.464999C0.195606 0.404999 0.225606 0.374999 0.285606 0.374999H2.83561C3.85561 0.374999 4.64061 0.58 5.19061 0.99C5.74061 1.4 6.01561 1.98 6.01561 2.73C6.01561 3.3 5.88061 3.78 5.61061 4.17C5.34061 4.55 4.98061 4.845 4.53061 5.055ZM2.07061 5.535C1.92061 5.535 1.77061 5.53 1.62061 5.52C1.47061 5.51 1.32061 5.5 1.17061 5.49V9.975H2.94061C3.06061 9.975 3.23061 9.97 3.45061 9.96C3.68061 9.94 3.92561 9.895 4.18561 9.825C4.44561 9.755 4.69561 9.645 4.93561 9.495C5.17561 9.335 5.37061 9.12 5.52061 8.85C5.67061 8.58 5.74561 8.235 5.74561 7.815C5.74561 7.115 5.49061 6.565 4.98061 6.165C4.47061 5.765 3.81561 5.535 3.01561 5.475C2.71561 5.515 2.40061 5.535 2.07061 5.535ZM1.17061 4.695C1.52061 4.755 1.87561 4.785 2.23561 4.785C2.70561 4.785 3.15061 4.72 3.57061 4.59C4.00061 4.46 4.35061 4.25 4.62061 3.96C4.90061 3.67 5.04061 3.29 5.04061 2.82C5.04061 1.74 4.30561 1.2 2.83561 1.2H1.17061V4.695ZM8.89678 10.71V0.464999C8.89678 0.404999 8.92678 0.374999 8.98678 0.374999H11.9568C12.7368 0.374999 13.3768 0.505 13.8768 0.765C14.3768 1.025 14.7468 1.375 14.9868 1.815C15.2268 2.245 15.3468 2.725 15.3468 3.255C15.3468 4.015 15.1518 4.65 14.7618 5.16C14.3818 5.66 13.8668 6.035 13.2168 6.285C12.5668 6.525 11.8468 6.645 11.0568 6.645C10.6668 6.645 10.2718 6.615 9.87178 6.555V10.71C9.87178 10.77 9.84178 10.8 9.78178 10.8H8.98678C8.92678 10.8 8.89678 10.77 8.89678 10.71ZM9.87178 5.67C10.0918 5.71 10.3068 5.745 10.5168 5.775C10.7368 5.795 10.9518 5.805 11.1618 5.805C11.7618 5.805 12.3018 5.72 12.7818 5.55C13.2618 5.38 13.6418 5.11 13.9218 4.74C14.2018 4.37 14.3418 3.89 14.3418 3.3C14.3418 2.59 14.1018 2.065 13.6218 1.725C13.1418 1.375 12.4868 1.2 11.6568 1.2H9.87178V5.67ZM17.5979 10.71V0.464999C17.5979 0.404999 17.6279 0.374999 17.6879 0.374999H20.0429C21.9129 0.374999 23.3229 0.824999 24.2729 1.725C25.2229 2.615 25.6979 3.875 25.6979 5.505C25.6979 6.625 25.4629 7.58 24.9929 8.37C24.5329 9.16 23.8879 9.765 23.0579 10.185C22.2279 10.595 21.2629 10.8 20.1629 10.8H17.6879C17.6279 10.8 17.5979 10.77 17.5979 10.71ZM18.5729 9.945H20.1629C21.0729 9.945 21.8679 9.785 22.5479 9.465C23.2279 9.135 23.7579 8.64 24.1379 7.98C24.5279 7.32 24.7229 6.5 24.7229 5.52C24.7229 4.12 24.3479 3.055 23.5979 2.325C22.8479 1.585 21.6629 1.215 20.0429 1.215H18.5729V9.945Z" fill="black"/>
<path d="M4.53061 5.055L4.31916 4.60191L3.08344 5.17858L4.39905 5.53738L4.53061 5.055ZM6.12061 6.06L5.73326 6.3762L5.73649 6.38009L6.12061 6.06ZM5.77561 9.99L6.101 10.3696L6.101 10.3696L5.77561 9.99ZM5.61061 4.17L6.01823 4.45963L6.0217 4.4546L5.61061 4.17ZM1.62061 5.52L1.58735 6.01889L1.58735 6.01889L1.62061 5.52ZM1.17061 5.49L1.20386 4.99111L0.670605 4.95556V5.49H1.17061ZM1.17061 9.975H0.670605V10.475H1.17061V9.975ZM3.45061 9.96L3.47331 10.4595L3.48363 10.459L3.49392 10.4581L3.45061 9.96ZM4.93561 9.495L5.20061 9.919L5.20684 9.9151L5.21296 9.91102L4.93561 9.495ZM5.52061 8.85L5.08353 8.60718L5.08353 8.60718L5.52061 8.85ZM4.98061 6.165L5.28918 5.77157L5.28918 5.77157L4.98061 6.165ZM3.01561 5.475L3.053 4.9764L3.00111 4.97251L2.94952 4.97939L3.01561 5.475ZM1.17061 4.695H0.670605V5.11658L1.08612 5.18781L1.17061 4.695ZM3.57061 4.59L3.42591 4.11138L3.42276 4.11236L3.57061 4.59ZM4.62061 3.96L4.26085 3.61265L4.25466 3.61929L4.62061 3.96ZM1.17061 1.2V0.7H0.670605V1.2H1.17061ZM4.39905 5.53738C4.9672 5.69233 5.40459 5.97354 5.73327 6.37619L6.50794 5.74381C6.03663 5.16646 5.41401 4.77767 4.66216 4.57262L4.39905 5.53738ZM5.73649 6.38009C6.05718 6.76491 6.22061 7.21984 6.22061 7.77H7.22061C7.22061 7.00016 6.98404 6.31509 6.50472 5.73991L5.73649 6.38009ZM6.22061 7.77C6.22061 8.58571 5.95393 9.17861 5.45021 9.61037L6.101 10.3696C6.85728 9.72139 7.22061 8.83429 7.22061 7.77H6.22061ZM5.45021 9.61037C4.9476 10.0412 4.14078 10.3 2.94061 10.3V11.3C4.26043 11.3 5.34361 11.0188 6.101 10.3696L5.45021 9.61037ZM2.94061 10.3H0.285606V11.3H2.94061V10.3ZM0.285606 10.3C0.332678 10.3 0.459819 10.3121 0.571659 10.4239C0.683499 10.5358 0.695606 10.6629 0.695606 10.71H-0.304394C-0.304394 10.8171 -0.277288 10.9892 -0.135448 11.1311C0.00639229 11.2729 0.178533 11.3 0.285606 11.3V10.3ZM0.695606 10.71V0.464999H-0.304394V10.71H0.695606ZM0.695606 0.464999C0.695606 0.512072 0.683499 0.639214 0.571658 0.751053C0.459818 0.862893 0.332677 0.874999 0.285606 0.874999V-0.125001C0.178534 -0.125001 0.00639277 -0.0978941 -0.135447 0.0439453C-0.277287 0.185785 -0.304394 0.357926 -0.304394 0.464999H0.695606ZM0.285606 0.874999H2.83561V-0.125001H0.285606V0.874999ZM2.83561 0.874999C3.79789 0.874999 4.46104 1.06978 4.89177 1.39087L5.48944 0.589127C4.82018 0.0902214 3.91332 -0.125001 2.83561 -0.125001V0.874999ZM4.89177 1.39087C5.30211 1.69676 5.51561 2.12084 5.51561 2.73H6.51561C6.51561 1.83916 6.1791 1.10324 5.48944 0.589127L4.89177 1.39087ZM5.51561 2.73C5.51561 3.21919 5.40077 3.59469 5.19951 3.88539L6.0217 4.4546C6.36044 3.96531 6.51561 3.38081 6.51561 2.73H5.51561ZM5.20302 3.8804C4.98643 4.18522 4.69603 4.42604 4.31916 4.60191L4.74205 5.50809C5.26518 5.26396 5.69478 4.91478 6.0182 4.4596L5.20302 3.8804ZM2.07061 5.035C1.93173 5.035 1.79282 5.03037 1.65386 5.02111L1.58735 6.01889C1.74839 6.02963 1.90949 6.035 2.07061 6.035V5.035ZM1.65387 5.02111C1.50387 5.01111 1.35386 5.00111 1.20386 4.99111L1.13735 5.98889C1.28735 5.99889 1.43735 6.00889 1.58735 6.01889L1.65387 5.02111ZM0.670605 5.49V9.975H1.67061V5.49H0.670605ZM1.17061 10.475H2.94061V9.475H1.17061V10.475ZM2.94061 10.475C3.07198 10.475 3.25086 10.4696 3.47331 10.4595L3.4279 9.46052C3.21035 9.4704 3.04923 9.475 2.94061 9.475V10.475ZM3.49392 10.4581C3.75755 10.4352 4.03176 10.3842 4.31559 10.3078L4.05562 9.34219C3.81945 9.40578 3.60366 9.4448 3.40729 9.46188L3.49392 10.4581ZM4.31559 10.3078C4.62564 10.2243 4.9209 10.0938 5.20061 9.919L4.67061 9.071C4.47031 9.19618 4.26557 9.28567 4.05562 9.34219L4.31559 10.3078ZM5.21296 9.91102C5.52389 9.70374 5.77181 9.4274 5.95768 9.09282L5.08353 8.60718C4.9694 8.8126 4.82733 8.96626 4.65826 9.07897L5.21296 9.91102ZM5.95768 9.09282C6.16115 8.72659 6.24561 8.29071 6.24561 7.815H5.24561C5.24561 8.17929 5.18006 8.43341 5.08353 8.60718L5.95768 9.09282ZM6.24561 7.815C6.24561 6.97556 5.93073 6.27475 5.28918 5.77157L4.67204 6.55843C5.05048 6.85525 5.24561 7.25444 5.24561 7.815H6.24561ZM5.28918 5.77157C4.68444 5.29727 3.9282 5.04204 3.053 4.9764L2.97821 5.9736C3.70302 6.02796 4.25677 6.23273 4.67204 6.55843L5.28918 5.77157ZM2.94952 4.97939C2.67329 5.01622 2.38046 5.035 2.07061 5.035V6.035C2.42075 6.035 2.75792 6.01378 3.08169 5.97061L2.94952 4.97939ZM1.08612 5.18781C1.46441 5.25266 1.84768 5.285 2.23561 5.285V4.285C1.90353 4.285 1.5768 4.25734 1.25509 4.20219L1.08612 5.18781ZM2.23561 5.285C2.75227 5.285 3.24737 5.21345 3.71845 5.06764L3.42276 4.11236C3.05384 4.22655 2.65894 4.285 2.23561 4.285V5.285ZM3.7153 5.06861C4.21841 4.9165 4.64858 4.66372 4.98655 4.30071L4.25466 3.61929C4.05263 3.83628 3.7828 4.0035 3.42591 4.11139L3.7153 5.06861ZM4.98031 4.3073C5.36516 3.9087 5.54061 3.39648 5.54061 2.82H4.54061C4.54061 3.18352 4.43605 3.4313 4.26091 3.6127L4.98031 4.3073ZM5.54061 2.82C5.54061 2.15409 5.30572 1.58434 4.78539 1.20206C4.29384 0.840917 3.6171 0.7 2.83561 0.7V1.7C3.52411 1.7 3.94987 1.82908 4.19332 2.00794C4.408 2.16566 4.54061 2.40591 4.54061 2.82H5.54061ZM2.83561 0.7H1.17061V1.7H2.83561V0.7ZM0.670605 1.2V4.695H1.67061V1.2H0.670605ZM13.8768 0.765L13.6461 1.20861L13.6461 1.20861L13.8768 0.765ZM14.9868 1.815L14.5478 2.05444L14.5502 2.05868L14.9868 1.815ZM14.7618 5.16L14.3646 4.85627L14.3637 4.85746L14.7618 5.16ZM13.2168 6.285L13.39 6.75409L13.3963 6.75167L13.2168 6.285ZM9.87178 6.555L9.94595 6.06053L9.37178 5.97441V6.555H9.87178ZM9.87178 5.67H9.37178V6.08729L9.78233 6.16193L9.87178 5.67ZM10.5168 5.775L10.4461 6.26997L10.4588 6.27179L10.4715 6.27295L10.5168 5.775ZM12.7818 5.55L12.9487 6.02131L12.9487 6.02131L12.7818 5.55ZM13.6218 1.725L13.3272 2.12904L13.3328 2.13301L13.6218 1.725ZM9.87178 1.2V0.7H9.37178V1.2H9.87178ZM9.39678 10.71V0.464999H8.39678V10.71H9.39678ZM9.39678 0.464999C9.39678 0.512072 9.38467 0.639214 9.27283 0.751053C9.16099 0.862893 9.03385 0.874999 8.98678 0.874999V-0.125001C8.87971 -0.125001 8.70756 -0.0978941 8.56572 0.0439453C8.42388 0.185785 8.39678 0.357926 8.39678 0.464999H9.39678ZM8.98678 0.874999H11.9568V-0.125001H8.98678V0.874999ZM11.9568 0.874999C12.6857 0.874999 13.2394 0.997113 13.6461 1.20861L14.1075 0.321392C13.5142 0.012886 12.7879 -0.125001 11.9568 -0.125001V0.874999ZM13.6461 1.20861C14.0693 1.42867 14.3612 1.71228 14.5478 2.05443L15.4257 1.57557C15.1324 1.03772 14.6843 0.621331 14.1075 0.321391L13.6461 1.20861ZM14.5502 2.05868C14.7455 2.40855 14.8468 2.8036 14.8468 3.255H15.8468C15.8468 2.6464 15.7081 2.08145 15.4234 1.57132L14.5502 2.05868ZM14.8468 3.255C14.8468 3.9261 14.6762 4.44873 14.3646 4.85627L15.159 5.46372C15.6273 4.85127 15.8468 4.1039 15.8468 3.255H14.8468ZM14.3637 4.85746C14.0459 5.27562 13.6103 5.59793 13.0373 5.81833L13.3963 6.75167C14.1232 6.47207 14.7177 6.04438 15.1599 5.46254L14.3637 4.85746ZM13.0436 5.81595C12.4562 6.03282 11.7959 6.145 11.0568 6.145V7.145C11.8977 7.145 12.6773 7.01718 13.39 6.75405L13.0436 5.81595ZM11.0568 6.145C10.6925 6.145 10.3223 6.11698 9.94595 6.06053L9.79761 7.04947C10.2213 7.11301 10.6411 7.145 11.0568 7.145V6.145ZM9.37178 6.555V10.71H10.3718V6.555H9.37178ZM9.37178 10.71C9.37178 10.6629 9.38388 10.5358 9.49572 10.4239C9.60756 10.3121 9.73471 10.3 9.78178 10.3V11.3C9.88885 11.3 10.061 11.2729 10.2028 11.1311C10.3447 10.9892 10.3718 10.8171 10.3718 10.71H9.37178ZM9.78178 10.3H8.98678V11.3H9.78178V10.3ZM8.98678 10.3C9.03385 10.3 9.16099 10.3121 9.27283 10.4239C9.38467 10.5358 9.39678 10.6629 9.39678 10.71H8.39678C8.39678 10.8171 8.42388 10.9892 8.56572 11.1311C8.70756 11.2729 8.87971 11.3 8.98678 11.3V10.3ZM9.78233 6.16193C10.0082 6.20301 10.2295 6.23903 10.4461 6.26997L10.5875 5.28002C10.3841 5.25097 10.1753 5.21699 9.96122 5.17806L9.78233 6.16193ZM10.4715 6.27295C10.7058 6.29424 10.9359 6.305 11.1618 6.305V5.305C10.9676 5.305 10.7678 5.29576 10.562 5.27705L10.4715 6.27295ZM11.1618 6.305C11.8087 6.305 12.4065 6.21334 12.9487 6.02131L12.6149 5.07869C12.1971 5.22665 11.7148 5.305 11.1618 5.305V6.305ZM12.9487 6.02131C13.5115 5.82198 13.9758 5.49725 14.3205 5.04172L13.5231 4.43828C13.3078 4.72275 13.012 4.93802 12.6149 5.07869L12.9487 6.02131ZM14.3205 5.04172C14.6822 4.56372 14.8418 3.96904 14.8418 3.3H13.8418C13.8418 3.81096 13.7213 4.17628 13.5231 4.43828L14.3205 5.04172ZM14.8418 3.3C14.8418 2.4659 14.5514 1.77076 13.9108 1.31699L13.3328 2.13301C13.6521 2.35924 13.8418 2.7141 13.8418 3.3H14.8418ZM13.9164 1.321C13.3228 0.888184 12.5517 0.7 11.6568 0.7V1.7C12.4218 1.7 12.9608 1.86181 13.3272 2.129L13.9164 1.321ZM11.6568 0.7H9.87178V1.7H11.6568V0.7ZM9.37178 1.2V5.67H10.3718V1.2H9.37178ZM24.2729 1.725L23.9291 2.08798L23.9311 2.08989L24.2729 1.725ZM24.9929 8.37L24.5632 8.11434L24.5609 8.1184L24.9929 8.37ZM23.0579 10.185L23.2794 10.6333L23.2837 10.6311L23.0579 10.185ZM18.5729 9.945H18.0729V10.445H18.5729V9.945ZM22.5479 9.465L22.7609 9.91744L22.7662 9.91483L22.5479 9.465ZM24.1379 7.98L23.7075 7.72562L23.7046 7.73052L24.1379 7.98ZM23.5979 2.325L23.2468 2.68093L23.2492 2.6833L23.5979 2.325ZM18.5729 1.215V0.714999H18.0729V1.215H18.5729ZM18.0979 10.71V0.464999H17.0979V10.71H18.0979ZM18.0979 0.464999C18.0979 0.512072 18.0858 0.639214 17.974 0.751053C17.8622 0.862893 17.735 0.874999 17.6879 0.874999V-0.125001C17.5809 -0.125001 17.4087 -0.0978941 17.2669 0.0439453C17.1251 0.185785 17.0979 0.357926 17.0979 0.464999H18.0979ZM17.6879 0.874999H20.0429V-0.125001H17.6879V0.874999ZM20.0429 0.874999C21.8398 0.874999 23.1053 1.30755 23.9291 2.08798L24.6168 1.36202C23.5406 0.342446 21.9861 -0.125001 20.0429 -0.125001V0.874999ZM23.9311 2.08989C24.7559 2.86263 25.1979 3.97608 25.1979 5.505H26.1979C26.1979 3.77392 25.69 2.36737 24.6148 1.36011L23.9311 2.08989ZM25.1979 5.505C25.1979 6.55464 24.9781 7.41698 24.5632 8.11435L25.4227 8.62565C25.9478 7.74302 26.1979 6.69536 26.1979 5.505H25.1979ZM24.5609 8.1184C24.1503 8.82347 23.5777 9.36163 22.8322 9.73887L23.2837 10.6311C24.1982 10.1684 24.9156 9.49653 25.425 8.6216L24.5609 8.1184ZM22.8365 9.73671C22.0872 10.1069 21.2005 10.3 20.1629 10.3V11.3C21.3254 11.3 22.3687 11.0831 23.2794 10.6333L22.8365 9.73671ZM20.1629 10.3H17.6879V11.3H20.1629V10.3ZM17.6879 10.3C17.735 10.3 17.8622 10.3121 17.974 10.4239C18.0858 10.5358 18.0979 10.6629 18.0979 10.71H17.0979C17.0979 10.8171 17.1251 10.9892 17.2669 11.1311C17.4087 11.2729 17.5809 11.3 17.6879 11.3V10.3ZM18.5729 10.445H20.1629V9.445H18.5729V10.445ZM20.1629 10.445C21.1313 10.445 22.0017 10.2747 22.7608 9.91741L22.3351 9.01259C21.7342 9.29535 21.0146 9.445 20.1629 9.445V10.445ZM22.7662 9.91483C23.5371 9.54074 24.1417 8.97559 24.5713 8.22948L23.7046 7.73052C23.3742 8.30441 22.9188 8.72926 22.3297 9.01517L22.7662 9.91483ZM24.5684 8.23436C25.015 7.47868 25.2229 6.565 25.2229 5.52H24.2229C24.2229 6.43499 24.0409 7.16132 23.7075 7.72564L24.5684 8.23436ZM25.2229 5.52C25.2229 4.03227 24.8227 2.81933 23.9467 1.9667L23.2492 2.6833C23.8732 3.29067 24.2229 4.20773 24.2229 5.52H25.2229ZM23.9491 1.96908C23.0658 1.09757 21.7254 0.714999 20.0429 0.714999V1.715C21.6005 1.715 22.6301 2.07243 23.2468 2.68092L23.9491 1.96908ZM20.0429 0.714999H18.5729V1.715H20.0429V0.714999ZM18.0729 1.215V9.945H19.0729V1.215H18.0729Z" fill="black"/>
</svg>
