<svg width="110" height="15" viewBox="0 0 110 15" fill="none" xmlns="http://www.w3.org/2000/svg">
<path d="M1.50033 8.86C1.48033 8.86 1.45533 8.855 1.42533 8.845C1.39533 8.835 1.38033 8.805 1.38033 8.755C1.38033 8.745 1.38033 8.715 1.38033 8.665C1.38033 8.465 1.37533 7.97 1.36533 7.18C1.35533 6.39 1.31033 5.25 1.23033 3.76C1.21033 3.5 1.17533 3.225 1.12533 2.935C1.08533 2.645 1.03533 2.465 0.975332 2.395C0.935332 2.335 0.935332 2.285 0.975332 2.245C1.01533 2.205 1.05533 2.185 1.09533 2.185C1.25533 2.195 1.42533 2.205 1.60533 2.215C1.78533 2.225 1.95533 2.23 2.11533 2.23C2.46533 2.23 2.85033 2.225 3.27033 2.215C3.70033 2.195 4.12033 2.175 4.53033 2.155C4.94033 2.135 5.30033 2.115 5.61033 2.095C5.92033 2.065 6.13533 2.04 6.25533 2.02C6.27533 2.02 6.29533 2.015 6.31533 2.005C6.38533 1.995 6.44533 1.995 6.49533 2.005L7.35033 2.14C7.40033 2.16 7.43033 2.185 7.44033 2.215C7.45033 2.235 7.45033 2.27 7.44033 2.32C7.40033 2.54 7.36533 2.8 7.33533 3.1C7.30533 3.39 7.29033 3.605 7.29033 3.745C7.27033 4.055 7.25033 4.42 7.23033 4.84C7.21033 5.25 7.19033 5.68 7.17033 6.13C7.15033 6.58 7.13033 7.01 7.11033 7.42C7.09033 7.83 7.07533 8.185 7.06533 8.485C7.05533 8.615 6.98033 8.68 6.84033 8.68C6.75033 8.68 6.56533 8.685 6.28533 8.695C6.00533 8.695 5.67533 8.7 5.29533 8.71C4.92533 8.71 4.54033 8.715 4.14033 8.725C3.74033 8.735 3.36533 8.745 3.01533 8.755C2.67533 8.765 2.40033 8.775 2.19033 8.785C2.09033 8.805 1.95533 8.825 1.78533 8.845C1.62533 8.855 1.53033 8.86 1.50033 8.86ZM2.25033 7.96C2.49033 7.96 2.79033 7.955 3.15033 7.945C3.52033 7.935 3.90533 7.925 4.30533 7.915C4.70533 7.905 5.07033 7.89 5.40033 7.87C5.74033 7.85 5.99533 7.835 6.16533 7.825C6.19533 7.015 6.22033 6.22 6.24033 5.44C6.26033 4.66 6.28033 3.86 6.30033 3.04C6.31033 2.94 6.26533 2.89 6.16533 2.89L2.16033 3.04L2.25033 7.96ZM10.2003 13.15C10.1603 13.15 10.1403 13.125 10.1403 13.075V5.485L9.46533 5.515C9.22533 5.525 8.97033 5.545 8.70033 5.575C8.43033 5.605 8.17533 5.635 7.93533 5.665C7.82533 5.685 7.75033 5.68 7.71033 5.65C7.67033 5.62 7.64033 5.575 7.62033 5.515C7.58033 5.385 7.55033 5.26 7.53033 5.14C7.51033 5.01 7.49033 4.9 7.47033 4.81C7.47033 4.73 7.51033 4.7 7.59033 4.72C7.74033 4.74 7.95533 4.755 8.23533 4.765C8.52533 4.775 8.84033 4.775 9.18033 4.765C9.52033 4.745 9.84033 4.725 10.1403 4.705V2.245C10.1403 1.865 10.1253 1.515 10.0953 1.195C10.0753 0.864999 10.0403 0.649999 9.99033 0.549999C9.97033 0.499999 9.97033 0.465 9.99033 0.445C10.0203 0.415 10.0553 0.399999 10.0953 0.399999C10.1553 0.399999 10.2553 0.404999 10.3953 0.414999C10.5453 0.414999 10.6903 0.419999 10.8303 0.429999C10.9703 0.429999 11.0503 0.429999 11.0703 0.429999C11.1203 0.429999 11.1453 0.469999 11.1453 0.549999C11.1153 0.919999 11.0953 1.245 11.0853 1.525C11.0853 1.795 11.0853 2.11 11.0853 2.47V12.775C11.0853 12.925 11.0753 13.015 11.0553 13.045C11.0453 13.075 11.0153 13.095 10.9653 13.105L10.2003 13.15ZM15.2871 10.03C15.0671 10.02 14.8971 9.91 14.7771 9.7C14.6571 9.49 14.5971 9.225 14.5971 8.905V6.715C14.5971 6.515 14.5921 6.3 14.5821 6.07C14.5721 5.84 14.5321 5.625 14.4621 5.425C14.4121 5.305 14.4571 5.255 14.5971 5.275C14.7171 5.285 14.9321 5.29 15.2421 5.29C15.5621 5.29 15.9221 5.285 16.3221 5.275C16.7221 5.265 17.1171 5.255 17.5071 5.245C17.8971 5.225 18.2271 5.205 18.4971 5.185C18.7771 5.155 18.9371 5.13 18.9771 5.11C19.0071 4.9 19.0371 4.635 19.0671 4.315C19.0971 3.995 19.1271 3.675 19.1571 3.355C19.1971 3.025 19.2221 2.755 19.2321 2.545C19.2321 2.485 19.2071 2.455 19.1571 2.455C18.7271 2.455 18.2821 2.47 17.8221 2.5C17.3721 2.52 16.9371 2.54 16.5171 2.56C16.2771 2.58 16.0171 2.6 15.7371 2.62C15.4571 2.64 15.1971 2.66 14.9571 2.68C14.8471 2.69 14.7771 2.685 14.7471 2.665C14.7271 2.635 14.7071 2.59 14.6871 2.53L14.5221 1.93C14.5121 1.91 14.5171 1.89 14.5371 1.87C14.5571 1.84 14.5821 1.83 14.6121 1.84C14.6821 1.85 14.8571 1.855 15.1371 1.855C15.4271 1.855 15.7671 1.85 16.1571 1.84C16.5571 1.83 16.9621 1.815 17.3721 1.795C17.7921 1.765 18.1771 1.74 18.5271 1.72C18.8771 1.69 19.1421 1.655 19.3221 1.615C19.3721 1.595 19.4121 1.59 19.4421 1.6C19.4721 1.6 19.4971 1.6 19.5171 1.6C19.5371 1.61 19.5521 1.615 19.5621 1.615L20.2671 1.795C20.3471 1.815 20.3771 1.85 20.3571 1.9C20.3471 1.98 20.3271 2.105 20.2971 2.275C20.2671 2.435 20.2371 2.6 20.2071 2.77C20.1771 2.94 20.1521 3.08 20.1321 3.19L19.7871 5.77C19.7771 5.86 19.7271 5.905 19.6371 5.905C19.5271 5.905 19.3371 5.91 19.0671 5.92C18.7971 5.93 18.4871 5.94 18.1371 5.95C17.7871 5.96 17.4371 5.975 17.0871 5.995C16.7371 6.015 16.4221 6.035 16.1421 6.055C15.8621 6.065 15.6621 6.075 15.5421 6.085V8.83C15.5421 8.93 15.5571 9 15.5871 9.04C15.6271 9.07 15.6721 9.09 15.7221 9.1C16.0221 9.12 16.4421 9.11 16.9821 9.07C17.5221 9.02 18.1071 8.94 18.7371 8.83C19.3671 8.72 19.9821 8.585 20.5821 8.425C21.1921 8.265 21.7121 8.075 22.1421 7.855C22.2421 7.815 22.2971 7.825 22.3071 7.885L22.3371 8.095L22.3821 8.425C22.3821 8.475 22.3721 8.52 22.3521 8.56C22.3421 8.59 22.3021 8.62 22.2321 8.65C21.9021 8.8 21.4571 8.955 20.8971 9.115C20.3471 9.265 19.7371 9.41 19.0671 9.55C18.4071 9.68 17.7471 9.79 17.0871 9.88C16.4271 9.97 15.8271 10.02 15.2871 10.03ZM22.9521 13.15C22.9121 13.15 22.8921 13.125 22.8921 13.075V2.245C22.8921 1.865 22.8771 1.515 22.8471 1.195C22.8271 0.864999 22.7921 0.649999 22.7421 0.549999C22.7221 0.499999 22.7221 0.465 22.7421 0.445C22.7721 0.415 22.8071 0.399999 22.8471 0.399999C22.9071 0.399999 23.0071 0.404999 23.1471 0.414999C23.2971 0.414999 23.4421 0.419999 23.5821 0.429999C23.7221 0.429999 23.8021 0.429999 23.8221 0.429999C23.8721 0.429999 23.8971 0.469999 23.8971 0.549999C23.8671 0.919999 23.8471 1.245 23.8371 1.525C23.8371 1.795 23.8371 2.11 23.8371 2.47V12.775C23.8371 12.925 23.8271 13.015 23.8071 13.045C23.7971 13.075 23.7671 13.095 23.7171 13.105L22.9521 13.15ZM35.1948 13.9C34.8848 13.89 34.6398 13.785 34.4598 13.585C34.2798 13.385 34.1898 13.07 34.1898 12.64V11.875C34.1898 11.715 34.1798 11.555 34.1598 11.395C34.1398 11.235 34.0948 11.09 34.0248 10.96C34.0048 10.92 34.0048 10.88 34.0248 10.84C34.0448 10.8 34.0898 10.78 34.1598 10.78C34.4198 10.79 34.7548 10.8 35.1648 10.81C35.5748 10.81 36.0248 10.81 36.5148 10.81C37.0048 10.81 37.4898 10.805 37.9698 10.795C38.4598 10.775 38.9048 10.755 39.3048 10.735C39.7148 10.715 40.0398 10.685 40.2798 10.645L40.3248 9.355C40.3248 9.345 40.3248 9.33 40.3248 9.31C40.3248 9.26 40.3198 9.23 40.3098 9.22C40.2998 9.2 40.2548 9.19 40.1748 9.19C39.9548 9.19 39.6398 9.195 39.2298 9.205C38.8198 9.215 38.3798 9.23 37.9098 9.25C37.4498 9.26 37.0098 9.275 36.5898 9.295C36.1698 9.305 35.8298 9.32 35.5698 9.34L34.4148 9.415C34.3048 9.425 34.2348 9.415 34.2048 9.385C34.1748 9.345 34.1498 9.29 34.1298 9.22L34.0398 8.665C34.0198 8.585 34.0598 8.55 34.1598 8.56C34.3298 8.57 34.5898 8.58 34.9398 8.59C35.2998 8.6 35.7098 8.605 36.1698 8.605C36.6398 8.595 37.1248 8.58 37.6248 8.56C38.1248 8.54 38.6048 8.515 39.0648 8.485C39.5248 8.455 39.9248 8.415 40.2648 8.365C40.2848 8.365 40.3048 8.36 40.3248 8.35C40.3948 8.34 40.4498 8.34 40.4898 8.35L41.2548 8.47C41.3048 8.48 41.3298 8.5 41.3298 8.53C41.3398 8.55 41.3448 8.57 41.3448 8.59C41.3448 8.6 41.3448 8.605 41.3448 8.605C41.2948 9.055 41.2548 9.48 41.2248 9.88C41.1948 10.28 41.1648 10.705 41.1348 11.155C41.1248 11.265 41.0948 11.335 41.0448 11.365C40.9948 11.385 40.9448 11.395 40.8948 11.395C40.5648 11.395 40.1548 11.4 39.6648 11.41C39.1748 11.42 38.6548 11.43 38.1048 11.44C37.5648 11.45 37.0348 11.465 36.5148 11.485C35.9948 11.495 35.5348 11.505 35.1348 11.515V12.58C35.1348 12.81 35.1548 12.955 35.1948 13.015C35.2448 13.085 35.3548 13.125 35.5248 13.135C36.1748 13.155 36.8648 13.16 37.5948 13.15C38.3248 13.14 39.0148 13.115 39.6648 13.075C40.0748 13.055 40.4498 13.025 40.7898 12.985C41.1298 12.945 41.4298 12.89 41.6898 12.82C41.7898 12.8 41.8548 12.805 41.8848 12.835C41.9148 12.865 41.9348 12.905 41.9448 12.955L42.0348 13.585C42.0448 13.635 42.0298 13.68 41.9898 13.72C41.9498 13.76 41.8598 13.78 41.7198 13.78C41.0198 13.78 40.2898 13.785 39.5298 13.795C38.7698 13.815 38.0198 13.83 37.2798 13.84C36.5498 13.86 35.8548 13.88 35.1948 13.9ZM31.4448 8.635L31.1148 8.29C31.0748 8.25 31.0898 8.2 31.1598 8.14C31.7498 7.85 32.3448 7.485 32.9448 7.045C33.5448 6.595 34.0998 6.105 34.6098 5.575C35.1298 5.035 35.5598 4.49 35.8998 3.94C36.2498 3.38 36.4648 2.845 36.5448 2.335C36.5548 2.225 36.5148 2.17 36.4248 2.17C35.9948 2.18 35.5698 2.2 35.1498 2.23C34.7398 2.26 34.3198 2.29 33.8898 2.32C33.5898 2.34 33.2848 2.365 32.9748 2.395C32.6748 2.425 32.3648 2.455 32.0448 2.485C31.9448 2.495 31.8798 2.485 31.8498 2.455C31.8198 2.415 31.7948 2.37 31.7748 2.32C31.7648 2.31 31.7598 2.3 31.7598 2.29C31.7198 2.18 31.6898 2.09 31.6698 2.02C31.6498 1.94 31.6198 1.815 31.5798 1.645C31.5698 1.625 31.5748 1.6 31.5948 1.57C31.6148 1.54 31.6498 1.53 31.6998 1.54C32.1398 1.58 32.6148 1.6 33.1248 1.6C33.6348 1.59 34.1448 1.57 34.6548 1.54C35.1648 1.5 35.6398 1.455 36.0798 1.405C36.1898 1.385 36.3148 1.365 36.4548 1.345C36.5948 1.315 36.6698 1.3 36.6798 1.3C36.7298 1.28 36.7848 1.28 36.8448 1.3C36.9248 1.32 37.0298 1.36 37.1598 1.42C37.2898 1.47 37.4098 1.52 37.5198 1.57C37.6298 1.62 37.6948 1.65 37.7148 1.66C37.8148 1.7 37.8498 1.765 37.8198 1.855C37.7498 2.065 37.6848 2.255 37.6248 2.425C37.5648 2.585 37.4848 2.78 37.3848 3.01C37.1748 3.53 36.8448 4.115 36.3948 4.765C35.9448 5.405 35.3548 6.06 34.6248 6.73C33.8948 7.4 32.9948 8.035 31.9248 8.635C31.8448 8.685 31.7648 8.715 31.6848 8.725C31.6048 8.735 31.5248 8.705 31.4448 8.635ZM40.4148 7.585C40.3748 7.585 40.3548 7.56 40.3548 7.51V2.23C40.3548 1.85 40.3398 1.5 40.3098 1.18C40.2898 0.859999 40.2548 0.649999 40.2048 0.549999C40.1848 0.499999 40.1848 0.465 40.2048 0.445C40.2348 0.415 40.2698 0.399999 40.3098 0.399999C40.3898 0.399999 40.5248 0.399999 40.7148 0.399999C40.9148 0.399999 41.1048 0.404999 41.2848 0.414999C41.3348 0.414999 41.3598 0.454999 41.3598 0.535C41.3298 0.905 41.3098 1.23 41.2998 1.51C41.2998 1.78 41.2998 2.095 41.2998 2.455V7.21C41.2998 7.36 41.2898 7.45 41.2698 7.48C41.2598 7.51 41.2298 7.53 41.1798 7.54L40.4148 7.585ZM47.6501 8.5C47.0401 8.51 46.4801 8.385 45.9701 8.125C45.4601 7.865 45.0501 7.495 44.7401 7.015C44.4401 6.525 44.2901 5.965 44.2901 5.335C44.2901 4.725 44.4401 4.18 44.7401 3.7C45.0401 3.21 45.4451 2.82 45.9551 2.53C46.4751 2.23 47.0451 2.075 47.6651 2.065C48.2851 2.045 48.8451 2.155 49.3451 2.395C49.8551 2.635 50.2601 2.99 50.5601 3.46C50.8601 3.93 51.0101 4.51 51.0101 5.2C51.0101 5.82 50.8601 6.375 50.5601 6.865C50.2601 7.355 49.8551 7.745 49.3451 8.035C48.8351 8.325 48.2701 8.48 47.6501 8.5ZM47.6651 7.645C48.1051 7.625 48.5051 7.515 48.8651 7.315C49.2251 7.105 49.5101 6.82 49.7201 6.46C49.9401 6.09 50.0501 5.675 50.0501 5.215C50.0501 4.705 49.9401 4.27 49.7201 3.91C49.5101 3.55 49.2251 3.28 48.8651 3.1C48.5051 2.91 48.1051 2.825 47.6651 2.845C47.2251 2.855 46.8201 2.97 46.4501 3.19C46.0801 3.4 45.7851 3.69 45.5651 4.06C45.3451 4.42 45.2351 4.84 45.2351 5.32C45.2351 5.82 45.3451 6.245 45.5651 6.595C45.7951 6.945 46.0951 7.21 46.4651 7.39C46.8351 7.57 47.2351 7.655 47.6651 7.645ZM53.5451 13.15C53.5051 13.15 53.4851 13.125 53.4851 13.075V2.245C53.4851 1.865 53.4701 1.515 53.4401 1.195C53.4201 0.864999 53.3851 0.649999 53.3351 0.549999C53.3151 0.499999 53.3151 0.465 53.3351 0.445C53.3651 0.415 53.4001 0.399999 53.4401 0.399999C53.5001 0.399999 53.6001 0.404999 53.7401 0.414999C53.8901 0.414999 54.0351 0.419999 54.1751 0.429999C54.3151 0.429999 54.3951 0.429999 54.4151 0.429999C54.4651 0.429999 54.4901 0.469999 54.4901 0.549999C54.4601 0.919999 54.4401 1.245 54.4301 1.525C54.4301 1.795 54.4301 2.11 54.4301 2.47V12.775C54.4301 12.925 54.4201 13.015 54.4001 13.045C54.3901 13.075 54.3601 13.095 54.3101 13.105L53.5451 13.15ZM60.6718 14.2C60.2418 13.91 59.8468 13.515 59.4868 13.015C59.1368 12.515 58.8318 11.95 58.5718 11.32C58.3218 10.68 58.1268 10.005 57.9868 9.295C57.8568 8.585 57.7918 7.87 57.7918 7.15C57.7918 6.43 57.8568 5.715 57.9868 5.005C58.1268 4.295 58.3218 3.625 58.5718 2.995C58.8318 2.355 59.1368 1.785 59.4868 1.285C59.8468 0.785 60.2418 0.39 60.6718 0.0999998L61.1668 0.595C60.7668 0.915 60.3768 1.375 59.9968 1.975C59.6268 2.565 59.3218 3.29 59.0818 4.15C58.8418 5.01 58.7218 6.01 58.7218 7.15C58.7218 8.28 58.8418 9.28 59.0818 10.15C59.3218 11.01 59.6268 11.735 59.9968 12.325C60.3768 12.915 60.7668 13.375 61.1668 13.705L60.6718 14.2ZM68.2077 6.055C68.8677 6.235 69.3977 6.57 69.7977 7.06C70.1977 7.54 70.3977 8.11 70.3977 8.77C70.3977 9.71 70.0827 10.45 69.4527 10.99C68.8227 11.53 67.8777 11.8 66.6177 11.8H63.9627C63.9027 11.8 63.8727 11.77 63.8727 11.71V1.465C63.8727 1.405 63.9027 1.375 63.9627 1.375H66.5127C67.5327 1.375 68.3177 1.58 68.8677 1.99C69.4177 2.4 69.6927 2.98 69.6927 3.73C69.6927 4.3 69.5577 4.78 69.2877 5.17C69.0177 5.55 68.6577 5.845 68.2077 6.055ZM65.7477 6.535C65.5977 6.535 65.4477 6.53 65.2977 6.52C65.1477 6.51 64.9977 6.5 64.8477 6.49V10.975H66.6177C66.7377 10.975 66.9077 10.97 67.1277 10.96C67.3577 10.94 67.6027 10.895 67.8627 10.825C68.1227 10.755 68.3727 10.645 68.6127 10.495C68.8527 10.335 69.0477 10.12 69.1977 9.85C69.3477 9.58 69.4227 9.235 69.4227 8.815C69.4227 8.115 69.1677 7.565 68.6577 7.165C68.1477 6.765 67.4927 6.535 66.6927 6.475C66.3927 6.515 66.0777 6.535 65.7477 6.535ZM64.8477 5.695C65.1977 5.755 65.5527 5.785 65.9127 5.785C66.3827 5.785 66.8277 5.72 67.2477 5.59C67.6777 5.46 68.0277 5.25 68.2977 4.96C68.5777 4.67 68.7177 4.29 68.7177 3.82C68.7177 2.74 67.9827 2.2 66.5127 2.2H64.8477V5.695ZM72.5738 11.71V1.465C72.5738 1.405 72.6038 1.375 72.6638 1.375H75.6338C76.4138 1.375 77.0538 1.505 77.5538 1.765C78.0538 2.025 78.4238 2.375 78.6638 2.815C78.9038 3.245 79.0238 3.725 79.0238 4.255C79.0238 5.015 78.8288 5.65 78.4388 6.16C78.0588 6.66 77.5438 7.035 76.8938 7.285C76.2438 7.525 75.5238 7.645 74.7338 7.645C74.3438 7.645 73.9488 7.615 73.5488 7.555V11.71C73.5488 11.77 73.5188 11.8 73.4588 11.8H72.6638C72.6038 11.8 72.5738 11.77 72.5738 11.71ZM73.5488 6.67C73.7688 6.71 73.9838 6.745 74.1938 6.775C74.4138 6.795 74.6288 6.805 74.8388 6.805C75.4388 6.805 75.9788 6.72 76.4588 6.55C76.9388 6.38 77.3188 6.11 77.5988 5.74C77.8788 5.37 78.0188 4.89 78.0188 4.3C78.0188 3.59 77.7788 3.065 77.2988 2.725C76.8188 2.375 76.1638 2.2 75.3338 2.2H73.5488V6.67ZM81.275 11.71V1.465C81.275 1.405 81.305 1.375 81.365 1.375H83.72C85.59 1.375 87 1.825 87.95 2.725C88.9 3.615 89.375 4.875 89.375 6.505C89.375 7.625 89.14 8.58 88.67 9.37C88.21 10.16 87.565 10.765 86.735 11.185C85.905 11.595 84.94 11.8 83.84 11.8H81.365C81.305 11.8 81.275 11.77 81.275 11.71ZM82.25 10.945H83.84C84.75 10.945 85.545 10.785 86.225 10.465C86.905 10.135 87.435 9.64 87.815 8.98C88.205 8.32 88.4 7.5 88.4 6.52C88.4 5.12 88.025 4.055 87.275 3.325C86.525 2.585 85.34 2.215 83.72 2.215H82.25V10.945ZM91.6765 14.2L91.1815 13.705C91.5815 13.375 91.9665 12.915 92.3365 12.325C92.7165 11.735 93.0265 11.01 93.2665 10.15C93.5065 9.28 93.6265 8.28 93.6265 7.15C93.6265 6.01 93.5065 5.01 93.2665 4.15C93.0265 3.29 92.7165 2.565 92.3365 1.975C91.9665 1.375 91.5815 0.915 91.1815 0.595L91.6765 0.0999998C92.1065 0.39 92.4965 0.785 92.8465 1.285C93.2065 1.785 93.5115 2.355 93.7615 2.995C94.0215 3.625 94.2165 4.295 94.3465 5.005C94.4865 5.715 94.5565 6.43 94.5565 7.15C94.5565 7.87 94.4865 8.585 94.3465 9.295C94.2165 10.005 94.0215 10.68 93.7615 11.32C93.5115 11.95 93.2115 12.515 92.8615 13.015C92.5115 13.515 92.1165 13.91 91.6765 14.2ZM105.767 13.15C105.727 13.15 105.707 13.125 105.707 13.075V2.245C105.707 1.865 105.692 1.515 105.662 1.195C105.642 0.864999 105.607 0.649999 105.557 0.549999C105.537 0.499999 105.537 0.465 105.557 0.445C105.587 0.415 105.622 0.399999 105.662 0.399999C105.722 0.399999 105.822 0.404999 105.962 0.414999C106.112 0.414999 106.257 0.419999 106.397 0.429999C106.537 0.429999 106.617 0.429999 106.637 0.429999C106.687 0.429999 106.712 0.469999 106.712 0.549999C106.682 0.919999 106.662 1.245 106.652 1.525C106.652 1.795 106.652 2.11 106.652 2.47V5.98C106.922 5.98 107.212 5.97 107.522 5.95C107.842 5.92 108.137 5.89 108.407 5.86C108.687 5.82 108.897 5.78 109.037 5.74C109.127 5.73 109.177 5.76 109.187 5.83C109.207 5.96 109.222 6.09 109.232 6.22C109.242 6.35 109.252 6.48 109.262 6.61C109.262 6.72 109.217 6.775 109.127 6.775C108.977 6.755 108.757 6.745 108.467 6.745C108.187 6.745 107.887 6.745 107.567 6.745C107.247 6.745 106.942 6.75 106.652 6.76V12.775C106.652 12.925 106.642 13.015 106.622 13.045C106.612 13.075 106.582 13.095 106.532 13.105L105.767 13.15ZM97.1273 10.72L96.7673 10.39C96.7273 10.35 96.7423 10.3 96.8123 10.24C97.4423 9.91 98.0673 9.465 98.6873 8.905C99.3173 8.345 99.8973 7.725 100.427 7.045C100.957 6.365 101.397 5.67 101.747 4.96C102.097 4.24 102.312 3.56 102.392 2.92C102.412 2.81 102.367 2.755 102.257 2.755L99.3173 2.935L97.7573 3.07C97.6573 3.08 97.5923 3.07 97.5623 3.04C97.5323 3 97.5073 2.955 97.4873 2.905C97.4773 2.895 97.4723 2.885 97.4723 2.875C97.4323 2.765 97.4023 2.675 97.3823 2.605C97.3623 2.525 97.3323 2.4 97.2923 2.23C97.2823 2.21 97.2873 2.185 97.3073 2.155C97.3273 2.125 97.3623 2.115 97.4123 2.125C97.8523 2.165 98.3423 2.185 98.8823 2.185C99.4323 2.175 99.9823 2.155 100.532 2.125C101.082 2.085 101.577 2.04 102.017 1.99C102.137 1.98 102.267 1.96 102.407 1.93C102.547 1.9 102.617 1.885 102.617 1.885C102.667 1.865 102.722 1.865 102.782 1.885L103.607 2.155C103.687 2.195 103.722 2.26 103.712 2.35L103.367 3.46C103.227 3.9 103.007 4.425 102.707 5.035C102.407 5.645 102.022 6.29 101.552 6.97C101.082 7.64 100.517 8.3 99.8573 8.95C99.2073 9.6 98.4573 10.19 97.6073 10.72C97.5273 10.77 97.4473 10.8 97.3673 10.81C97.2873 10.82 97.2073 10.79 97.1273 10.72Z" fill="black"/>
</svg>
