<svg width="103" height="17" viewBox="0 0 103 17" fill="none" xmlns="http://www.w3.org/2000/svg">
<path d="M0.758538 13.623C0.758538 13.053 0.923205 12.578 1.25254 12.198C1.59454 11.818 2.05054 11.5203 2.62054 11.305C3.19054 11.077 3.86187 10.9187 4.63454 10.83C5.40721 10.7413 6.23054 10.697 7.10454 10.697C7.97854 10.697 8.80187 10.7287 9.57454 10.792C10.3472 10.8553 11.0185 10.9947 11.5885 11.21C12.1585 11.4127 12.6082 11.704 12.9375 12.084C13.2795 12.464 13.4505 12.977 13.4505 13.623C13.4505 14.2563 13.2795 14.763 12.9375 15.143C12.6082 15.523 12.1585 15.8143 11.5885 16.017C11.0185 16.2323 10.3472 16.3717 9.57454 16.435C8.80187 16.511 7.97854 16.549 7.10454 16.549C6.23054 16.549 5.40721 16.511 4.63454 16.435C3.86187 16.3717 3.19054 16.2323 2.62054 16.017C2.05054 15.8143 1.59454 15.523 1.25254 15.143C0.923205 14.763 0.758538 14.2563 0.758538 13.623ZM0.473538 9.424C0.296205 9.348 0.169538 9.20233 0.0935385 8.987C-0.00779486 8.73367 -0.0267949 8.48033 0.0365385 8.227C0.112538 7.97367 0.226538 7.733 0.378538 7.505C0.530538 7.277 0.701539 7.06167 0.891539 6.859C1.09421 6.65633 1.26521 6.46633 1.40454 6.289C1.61987 6.023 1.83521 5.757 2.05054 5.491C2.26587 5.225 2.48121 4.95267 2.69654 4.674C2.77254 4.57267 2.86121 4.465 2.96254 4.351C3.06387 4.237 3.15887 4.11667 3.24754 3.99C3.34887 3.86333 3.43121 3.73667 3.49454 3.61C3.55787 3.48333 3.59587 3.35033 3.60854 3.211C3.62121 2.99567 3.63387 2.78667 3.64654 2.584C3.65921 2.36867 3.69721 2.17867 3.76054 2.014C3.82387 1.83667 3.9252 1.69733 4.06454 1.596C4.21654 1.49467 4.43187 1.444 4.71054 1.444C4.91321 1.444 5.10954 1.46933 5.29954 1.52C5.48954 1.558 5.62887 1.67833 5.71754 1.881C5.80621 2.109 5.83154 2.36233 5.79354 2.641C5.76821 2.907 5.79354 3.16033 5.86954 3.401C5.93287 3.61633 6.04054 3.80633 6.19254 3.971C6.34454 4.123 6.47121 4.28767 6.57254 4.465C6.78787 4.85767 7.04121 5.206 7.33254 5.51C7.62387 5.814 7.89621 6.14333 8.14954 6.498C8.35221 6.764 8.54221 7.04267 8.71954 7.334C8.90954 7.61267 9.03621 7.91667 9.09954 8.246C9.16287 8.52467 9.1312 8.76533 9.00454 8.968C8.89054 9.158 8.73221 9.29733 8.52954 9.386C8.32687 9.47467 8.10521 9.50633 7.86454 9.481C7.62387 9.443 7.41487 9.33533 7.23754 9.158C6.76887 8.67667 6.33821 8.18267 5.94554 7.676C5.56554 7.15667 5.17287 6.631 4.76754 6.099C4.76754 6.099 4.71054 6.16233 4.59654 6.289C4.48254 6.403 4.33687 6.555 4.15954 6.745C3.98221 6.92233 3.79221 7.125 3.58954 7.353C3.38687 7.56833 3.19687 7.77733 3.01954 7.98C2.84221 8.18267 2.68387 8.36 2.54454 8.512C2.40521 8.65133 2.32287 8.74 2.29754 8.778C2.15821 8.94267 2.01254 9.08833 1.86054 9.215C1.70854 9.34167 1.52487 9.43033 1.30954 9.481C1.17021 9.50633 1.02454 9.519 0.872539 9.519C0.733205 9.519 0.600205 9.48733 0.473538 9.424ZM13.1085 6.973V8.702C13.0959 8.84133 13.0769 8.987 13.0515 9.139C13.0262 9.27833 12.9755 9.41767 12.8995 9.557C12.8235 9.709 12.7159 9.83567 12.5765 9.937C12.4752 10.0003 12.3549 10.051 12.2155 10.089C12.0889 10.1143 11.9749 10.127 11.8735 10.127C11.7722 10.127 11.6645 10.1207 11.5505 10.108C11.4365 10.0827 11.3415 10.0447 11.2655 9.994C11.1389 9.918 11.0375 9.823 10.9615 9.709C10.8855 9.595 10.8222 9.48733 10.7715 9.386C10.7335 9.272 10.7082 9.177 10.6955 9.101C10.6829 9.01233 10.6765 8.968 10.6765 8.968V2.698C10.6639 2.64733 10.6702 2.508 10.6955 2.28C10.7209 2.052 10.7715 1.862 10.8475 1.71C10.9109 1.58333 11.0185 1.482 11.1705 1.406C11.3352 1.33 11.5062 1.27933 11.6835 1.254C11.8989 1.22867 12.1142 1.24133 12.3295 1.292C12.5449 1.34267 12.7032 1.425 12.8045 1.539C12.8805 1.64033 12.9312 1.74167 12.9565 1.843C12.9945 1.93167 13.0262 2.02667 13.0515 2.128C13.0895 2.25467 13.1085 2.38767 13.1085 2.527C13.1212 2.66633 13.1212 2.80567 13.1085 2.945V4.427C13.1085 4.49033 13.1022 4.56 13.0895 4.636C13.0895 4.69933 13.0959 4.77533 13.1085 4.864C13.1592 4.864 13.2542 4.87033 13.3935 4.883C13.5329 4.883 13.6785 4.88933 13.8305 4.902C13.9825 4.902 14.1282 4.90833 14.2675 4.921C14.4069 4.93367 14.5082 4.94633 14.5715 4.959C14.8249 5.00967 15.0022 5.08567 15.1035 5.187C15.2049 5.27567 15.2682 5.38967 15.2935 5.529C15.3315 5.66833 15.3505 5.833 15.3505 6.023C15.3505 6.20033 15.3125 6.35233 15.2365 6.479C15.0845 6.73233 14.8565 6.878 14.5525 6.916C14.2485 6.94133 13.9129 6.96033 13.5455 6.973H13.1085ZM10.8855 13.623C10.8855 13.4077 10.7715 13.2367 10.5435 13.11C10.3155 12.9833 10.0179 12.8883 9.65054 12.825C9.29587 12.7617 8.89054 12.7237 8.43454 12.711C7.99121 12.6857 7.54787 12.673 7.10454 12.673C6.66121 12.673 6.21787 12.6857 5.77454 12.711C5.34387 12.7237 4.95121 12.7617 4.59654 12.825C4.25454 12.8883 3.97587 12.9833 3.76054 13.11C3.54521 13.2367 3.43754 13.4077 3.43754 13.623C3.43754 13.813 3.54521 13.9713 3.76054 14.098C3.97587 14.2247 4.25454 14.3197 4.59654 14.383C4.95121 14.4463 5.34387 14.4907 5.77454 14.516C6.21787 14.5413 6.66121 14.554 7.10454 14.554C7.54787 14.554 7.99121 14.554 8.43454 14.554C8.89054 14.554 9.29587 14.5287 9.65054 14.478C10.0179 14.4273 10.3155 14.3387 10.5435 14.212C10.7715 14.0727 10.8855 13.8763 10.8855 13.623Z" fill="white"/>
<path d="M27.094 14.06C27.094 14.3767 27.0814 14.63 27.056 14.82C27.0434 15.01 26.9864 15.2507 26.885 15.542C26.8217 15.732 26.714 15.8903 26.562 16.017C26.41 16.1437 26.1947 16.207 25.916 16.207C25.84 16.207 25.7387 16.1943 25.612 16.169C25.4854 16.1563 25.3904 16.1247 25.327 16.074C25.2004 15.998 25.099 15.8777 25.023 15.713C24.9597 15.5357 24.909 15.352 24.871 15.162C24.833 14.972 24.8077 14.7883 24.795 14.611C24.795 14.4337 24.795 14.2943 24.795 14.193V9.12L23.56 9.063C23.446 9.063 23.3257 9.05033 23.199 9.025C23.085 8.987 22.971 8.93 22.857 8.854C22.7557 8.778 22.667 8.67667 22.591 8.55C22.515 8.42333 22.4707 8.265 22.458 8.075C22.4327 7.847 22.4454 7.60633 22.496 7.353C22.5594 7.087 22.7367 6.88433 23.028 6.745C23.142 6.68167 23.2814 6.64367 23.446 6.631C23.6234 6.61833 23.7754 6.61833 23.902 6.631H24.795V3.173C24.795 3.00833 24.795 2.84367 24.795 2.679C24.795 2.50167 24.814 2.33067 24.852 2.166C24.8774 2.10267 24.8964 2.04567 24.909 1.995C24.9344 1.94433 24.9597 1.88733 24.985 1.824C25.1244 1.596 25.3207 1.43767 25.574 1.349C25.6374 1.32367 25.7007 1.311 25.764 1.311C25.84 1.29833 25.9097 1.292 25.973 1.292C26.391 1.292 26.7077 1.482 26.923 1.862C26.9737 1.938 27.0054 2.04567 27.018 2.185C27.0434 2.32433 27.0624 2.47 27.075 2.622C27.0877 2.76133 27.094 2.888 27.094 3.002C27.094 3.10333 27.094 3.16667 27.094 3.192V14.06ZM30.115 15.675C30.039 15.8397 29.9187 15.979 29.754 16.093C29.5007 16.2577 29.222 16.302 28.918 16.226C28.728 16.188 28.576 16.1057 28.462 15.979C28.348 15.865 28.2594 15.732 28.196 15.58C28.1454 15.428 28.1137 15.2633 28.101 15.086C28.0884 14.9087 28.082 14.7377 28.082 14.573V3.382C28.082 3.24267 28.082 3.08433 28.082 2.907C28.082 2.717 28.0947 2.53967 28.12 2.375C28.1454 2.19767 28.177 2.033 28.215 1.881C28.2657 1.729 28.3354 1.60867 28.424 1.52C28.5634 1.39333 28.6964 1.31733 28.823 1.292C28.9497 1.254 29.1017 1.235 29.279 1.235C29.4944 1.235 29.6717 1.29833 29.811 1.425C29.9504 1.539 30.058 1.69733 30.134 1.9C30.248 2.166 30.3114 2.43833 30.324 2.717C30.3367 2.99567 30.3494 3.28067 30.362 3.572V3.667C30.3874 4.62967 30.3937 5.55433 30.381 6.441C30.3684 7.32767 30.362 8.22067 30.362 9.12V13.87C30.362 14.1993 30.3494 14.516 30.324 14.82C30.3114 15.124 30.2417 15.409 30.115 15.675ZM20.235 12.027C20.2224 12.0397 20.159 12.122 20.045 12.274C19.9437 12.4133 19.8297 12.5717 19.703 12.749C19.589 12.9137 19.475 13.0657 19.361 13.205C19.2597 13.3443 19.2027 13.4203 19.19 13.433C19.0887 13.5723 18.9874 13.7117 18.886 13.851C18.7974 13.9777 18.7024 14.1043 18.601 14.231C18.5757 14.2563 18.5504 14.288 18.525 14.326C18.5124 14.364 18.4934 14.3957 18.468 14.421C18.2907 14.6363 18.107 14.8453 17.917 15.048C17.727 15.2507 17.5054 15.4027 17.252 15.504C17.1507 15.5547 17.0367 15.58 16.91 15.58C16.7834 15.58 16.6757 15.5483 16.587 15.485C16.511 15.4217 16.4224 15.3393 16.321 15.238C16.1184 15.01 16.017 14.744 16.017 14.44C16.0297 14.212 16.0804 13.9967 16.169 13.794C16.2704 13.5913 16.3717 13.4013 16.473 13.224C16.4984 13.1987 16.568 13.091 16.682 12.901C16.8087 12.711 16.9544 12.4767 17.119 12.198C17.2837 11.9193 17.4547 11.6217 17.632 11.305C17.822 10.9757 17.9994 10.6717 18.164 10.393C18.3414 10.1017 18.4934 9.84833 18.62 9.633C18.7467 9.41767 18.8354 9.28467 18.886 9.234C18.962 9.09467 19.019 8.96167 19.057 8.835C19.1077 8.70833 19.1394 8.57533 19.152 8.436C19.1774 8.23333 19.19 8.037 19.19 7.847C19.19 7.64433 19.19 7.429 19.19 7.201V3.838C19.19 3.71133 19.19 3.591 19.19 3.477C19.19 3.363 19.1964 3.24267 19.209 3.116C19.209 2.97667 19.2217 2.83733 19.247 2.698C19.2724 2.55867 19.2977 2.432 19.323 2.318C19.3484 2.242 19.38 2.15967 19.418 2.071C19.4687 1.98233 19.513 1.9 19.551 1.824C19.6144 1.72267 19.6967 1.64667 19.798 1.596C19.912 1.54533 20.0324 1.50733 20.159 1.482L20.197 1.463C20.2984 1.43767 20.3807 1.43133 20.444 1.444C20.5074 1.444 20.5897 1.463 20.691 1.501C20.7924 1.539 20.881 1.596 20.957 1.672C21.0077 1.72267 21.052 1.79233 21.09 1.881C21.128 1.96967 21.166 2.06467 21.204 2.166C21.2547 2.29267 21.2927 2.43833 21.318 2.603C21.356 2.755 21.3814 2.91967 21.394 3.097C21.4447 3.629 21.4764 4.23067 21.489 4.902C21.5017 5.56067 21.508 6.156 21.508 6.688C21.5207 7.01733 21.527 7.34667 21.527 7.676C21.527 7.99267 21.5397 8.30933 21.565 8.626C21.5777 8.90467 21.641 9.16433 21.755 9.405C21.8817 9.64567 22.0084 9.88633 22.135 10.127C22.2617 10.4057 22.3947 10.6907 22.534 10.982C22.6734 11.2733 22.8127 11.552 22.952 11.818C22.9647 11.856 23.009 11.9447 23.085 12.084C23.161 12.2233 23.237 12.3753 23.313 12.54C23.4017 12.692 23.4777 12.8377 23.541 12.977C23.617 13.1037 23.6614 13.186 23.674 13.224L23.712 13.376L23.769 13.49C23.845 13.6293 23.902 13.775 23.94 13.927C23.978 14.0663 24.0034 14.2183 24.016 14.383C24.0287 14.5477 23.9907 14.7187 23.902 14.896C23.7247 15.2887 23.4714 15.4977 23.142 15.523H23.123C22.9204 15.523 22.743 15.447 22.591 15.295C22.439 15.143 22.2744 14.9593 22.097 14.744C21.9197 14.5413 21.7487 14.307 21.584 14.041C21.4194 13.775 21.2737 13.5533 21.147 13.376C20.8557 12.8947 20.634 12.559 20.482 12.369C20.33 12.1663 20.2477 12.0523 20.235 12.027Z" fill="white"/>
<path d="M40.2961 15.599C40.0174 15.599 39.7767 15.58 39.5741 15.542C39.4601 15.5293 39.3334 15.5167 39.1941 15.504C39.0674 15.4913 38.9344 15.485 38.7951 15.485C38.6937 15.4723 38.5924 15.4597 38.4911 15.447C38.4024 15.4343 38.3074 15.4153 38.2061 15.39C37.9907 15.314 37.8134 15.2 37.6741 15.048C37.6107 14.9847 37.5474 14.9277 37.4841 14.877C37.4334 14.8137 37.3891 14.7503 37.3511 14.687C37.2877 14.611 37.2371 14.478 37.1991 14.288C37.0977 13.87 37.0597 13.433 37.0851 12.977C37.0977 12.749 37.1041 12.5337 37.1041 12.331C37.1041 12.1157 37.1041 11.9003 37.1041 11.685V7.011C37.0914 6.71967 37.0851 6.44733 37.0851 6.194C37.0851 5.94067 37.0851 5.68733 37.0851 5.434V4.085C37.0851 3.895 37.0851 3.73667 37.0851 3.61C37.0851 3.47067 37.0914 3.36933 37.1041 3.306C37.1167 3.05267 37.1737 2.78033 37.2751 2.489C37.3891 2.185 37.6171 1.96967 37.9591 1.843C38.0224 1.81767 38.0921 1.79867 38.1681 1.786C38.2441 1.77333 38.3201 1.75433 38.3961 1.729C38.5354 1.70367 38.6874 1.71 38.8521 1.748C39.0294 1.786 39.1877 1.84933 39.3271 1.938C39.4791 2.052 39.5741 2.19133 39.6121 2.356C39.6501 2.45733 39.6817 2.55867 39.7071 2.66C39.7451 2.74867 39.7641 2.84367 39.7641 2.945C39.7894 3.04633 39.8021 3.14767 39.8021 3.249C39.8021 3.35033 39.8021 3.45167 39.8021 3.553V4.18C39.8021 4.332 39.7957 4.45867 39.7831 4.56C39.7831 4.66133 39.7831 4.75 39.7831 4.826V11.419C39.7831 11.6343 39.7831 11.8307 39.7831 12.008C39.7957 12.1727 39.8021 12.3247 39.8021 12.464C39.8021 12.502 39.8021 12.5463 39.8021 12.597C39.8147 12.635 39.8211 12.6793 39.8211 12.73C39.8464 12.7933 39.8844 12.863 39.9351 12.939C40.0491 13.0277 40.1441 13.072 40.2201 13.072L41.4171 13.129C41.5057 13.1417 41.5817 13.148 41.6451 13.148C41.7211 13.148 41.7907 13.148 41.8541 13.148C42.1201 13.148 42.3924 13.1417 42.6711 13.129C42.9497 13.1163 43.2031 13.1417 43.4311 13.205C43.6591 13.2557 43.8427 13.3697 43.9821 13.547C44.1341 13.7117 44.2101 13.9713 44.2101 14.326V14.516C44.1974 14.706 44.1341 14.8643 44.0201 14.991C43.9187 15.1177 43.7921 15.219 43.6401 15.295C43.4881 15.3583 43.3171 15.4027 43.1271 15.428C42.9497 15.4533 42.7787 15.4723 42.6141 15.485C42.3607 15.4977 42.1137 15.523 41.8731 15.561C41.6451 15.5863 41.4234 15.599 41.2081 15.599H40.2961ZM50.7841 14.497C50.7841 14.6617 50.7777 14.839 50.7651 15.029C50.7524 15.2063 50.7334 15.3837 50.7081 15.561C50.6701 15.903 50.5117 16.188 50.2331 16.416C50.1064 16.4793 49.9861 16.5237 49.8721 16.549C49.7707 16.587 49.6694 16.606 49.5681 16.606C49.3527 16.606 49.1754 16.5237 49.0361 16.359C48.9601 16.2703 48.8967 16.1817 48.8461 16.093C48.7954 16.017 48.7574 15.922 48.7321 15.808C48.6941 15.694 48.6624 15.58 48.6371 15.466C48.6117 15.352 48.5927 15.2253 48.5801 15.086C48.5801 14.9593 48.5737 14.8517 48.5611 14.763C48.5611 14.6617 48.5611 14.5667 48.5611 14.478V9.671H47.1171V14.592C47.1551 14.896 47.1487 15.2063 47.0981 15.523C47.0601 15.8017 46.9777 16.0487 46.8511 16.264C46.6991 16.492 46.4647 16.606 46.1481 16.606C46.0847 16.606 46.0151 16.5933 45.9391 16.568C45.8631 16.5427 45.7871 16.5173 45.7111 16.492C45.5844 16.4287 45.4704 16.3463 45.3691 16.245C45.2677 16.1437 45.1791 16.0297 45.1031 15.903C45.0271 15.7763 44.9764 15.6243 44.9511 15.447C44.9257 15.2823 44.9067 15.124 44.8941 14.972C44.8941 14.82 44.8941 14.6743 44.8941 14.535V2.565C44.8941 2.185 44.9511 1.862 45.0651 1.596C45.2044 1.30467 45.4831 1.14 45.9011 1.102C46.2304 1.07667 46.4711 1.15267 46.6231 1.33C46.6991 1.43133 46.7687 1.53267 46.8321 1.634C46.8954 1.72267 46.9461 1.83033 46.9841 1.957C47.0601 2.24833 47.0981 2.527 47.0981 2.793C47.1107 2.93233 47.1171 3.059 47.1171 3.173C47.1171 3.287 47.1171 3.38833 47.1171 3.477V7.296H48.5611V2.698C48.5611 2.45733 48.5801 2.21033 48.6181 1.957C48.6687 1.75433 48.7574 1.56433 48.8841 1.387C49.0234 1.235 49.2387 1.14 49.5301 1.102C49.5934 1.102 49.6567 1.102 49.7201 1.102C49.7961 1.102 49.8657 1.11467 49.9291 1.14C50.0811 1.20333 50.1951 1.27933 50.2711 1.368C50.3471 1.45667 50.4104 1.54533 50.4611 1.634C50.5244 1.72267 50.5687 1.824 50.5941 1.938C50.6574 2.17867 50.7017 2.44467 50.7271 2.736C50.7651 3.02733 50.7841 3.29333 50.7841 3.534V14.497Z" fill="white"/>
<path d="M64.5853 8.721C64.8007 8.74633 65.0097 8.78433 65.2123 8.835C65.415 8.873 65.605 8.96167 65.7823 9.101C65.9723 9.253 66.0673 9.45567 66.0673 9.709C66.0673 9.823 66.042 9.94967 65.9913 10.089C65.9533 10.2283 65.89 10.336 65.8013 10.412C65.7 10.5007 65.5733 10.5703 65.4213 10.621C65.2693 10.6717 65.1173 10.7097 64.9653 10.735C64.8133 10.7477 64.6803 10.754 64.5663 10.754C64.465 10.754 64.408 10.754 64.3953 10.754H54.2683C53.977 10.7793 53.673 10.7857 53.3563 10.773C53.0397 10.7477 52.7737 10.6527 52.5583 10.488C52.2797 10.2727 52.1403 10.0257 52.1403 9.747C52.1403 9.56967 52.1973 9.39867 52.3113 9.234C52.438 9.05667 52.6027 8.93633 52.8053 8.873C53.0713 8.77167 53.293 8.72733 53.4703 8.74C53.6603 8.74 53.901 8.73367 54.1923 8.721H55.1613C55.1487 8.455 55.1487 8.246 55.1613 8.094C55.1867 7.92933 55.231 7.75833 55.2943 7.581C55.3323 7.41633 55.402 7.27067 55.5033 7.144C54.49 6.96667 53.749 6.65633 53.2803 6.213C52.8243 5.76967 52.5963 5.149 52.5963 4.351C52.5963 3.31233 53.1093 2.55233 54.1353 2.071C55.174 1.58967 56.7573 1.34267 58.8853 1.33C59.848 1.33 60.722 1.38067 61.5073 1.482C62.3053 1.58333 62.983 1.75433 63.5403 1.995C64.0977 2.223 64.5283 2.53333 64.8323 2.926C65.1363 3.306 65.2883 3.781 65.2883 4.351C65.2883 5.111 65.0603 5.71267 64.6043 6.156C64.1483 6.58667 63.4327 6.90333 62.4573 7.106C62.6727 7.27067 62.793 7.49867 62.8183 7.79C62.831 7.92933 62.8373 8.075 62.8373 8.227C62.8373 8.36633 62.8437 8.531 62.8563 8.721H64.5853ZM62.6853 4.351C62.6853 4.14833 62.5903 3.971 62.4003 3.819C62.223 3.667 61.9633 3.54033 61.6213 3.439C61.292 3.33767 60.893 3.26167 60.4243 3.211C59.9683 3.16033 59.4553 3.135 58.8853 3.135C57.6313 3.135 56.7193 3.23633 56.1493 3.439C55.592 3.64167 55.3133 3.94567 55.3133 4.351C55.3133 4.70567 55.6047 4.98433 56.1873 5.187C56.77 5.38967 57.6567 5.48467 58.8473 5.472C59.3033 5.472 59.7593 5.45933 60.2153 5.434C60.6713 5.396 61.083 5.339 61.4503 5.263C61.8177 5.17433 62.1153 5.06033 62.3433 4.921C62.5713 4.769 62.6853 4.579 62.6853 4.351ZM58.8853 7.372C58.67 7.372 58.461 7.372 58.2583 7.372C58.0557 7.372 57.853 7.36567 57.6503 7.353C57.6757 7.391 57.6883 7.429 57.6883 7.467C57.6883 7.505 57.6947 7.54933 57.7073 7.6C57.7327 7.79 57.7453 7.97367 57.7453 8.151C57.7453 8.31567 57.7517 8.50567 57.7643 8.721H60.2723C60.2723 8.23967 60.3167 7.866 60.4053 7.6C60.418 7.51133 60.4497 7.42267 60.5003 7.334C60.247 7.34667 59.9873 7.35933 59.7213 7.372C59.4553 7.372 59.1767 7.372 58.8853 7.372ZM52.7483 13.965C52.7483 13.433 52.913 13.0023 53.2423 12.673C53.5717 12.3437 54.015 12.0967 54.5723 11.932C55.1297 11.7547 55.782 11.6407 56.5293 11.59C57.2893 11.5267 58.1 11.495 58.9613 11.495C59.8227 11.495 60.627 11.514 61.3743 11.552C62.1343 11.5773 62.793 11.6723 63.3503 11.837C63.9203 11.989 64.37 12.236 64.6993 12.578C65.0287 12.9073 65.1933 13.3697 65.1933 13.965C65.1933 14.5603 65.0287 15.0227 64.6993 15.352C64.37 15.6813 63.9203 15.922 63.3503 16.074C62.793 16.2387 62.1343 16.34 61.3743 16.378C60.627 16.416 59.8227 16.435 58.9613 16.435C58.1 16.435 57.2893 16.416 56.5293 16.378C55.782 16.34 55.1297 16.2387 54.5723 16.074C54.015 15.922 53.5717 15.6813 53.2423 15.352C52.913 15.0227 52.7483 14.5603 52.7483 13.965ZM62.6853 13.965C62.6853 13.7623 62.5713 13.6103 62.3433 13.509C62.128 13.395 61.8367 13.319 61.4693 13.281C61.1147 13.2303 60.7157 13.205 60.2723 13.205C59.829 13.1923 59.392 13.186 58.9613 13.186C58.5307 13.186 58.1 13.1923 57.6693 13.205C57.2387 13.205 56.8523 13.2303 56.5103 13.281C56.1683 13.319 55.8897 13.395 55.6743 13.509C55.4717 13.6103 55.3703 13.7623 55.3703 13.965C55.3703 14.1423 55.4717 14.288 55.6743 14.402C55.8897 14.5033 56.1683 14.5793 56.5103 14.63C56.8523 14.6807 57.2387 14.7123 57.6693 14.725C58.1 14.7377 58.5307 14.744 58.9613 14.744C59.392 14.744 59.829 14.7503 60.2723 14.763C60.7157 14.763 61.1147 14.744 61.4693 14.706C61.8367 14.668 62.128 14.5983 62.3433 14.497C62.5713 14.383 62.6853 14.2057 62.6853 13.965Z" fill="white"/>
<path d="M73.3482 8.265C73.6395 8.265 73.9752 8.27133 74.3552 8.284C74.7352 8.29667 75.1405 8.30933 75.5712 8.322C75.5839 8.208 75.5902 8.094 75.5902 7.98C75.5902 7.866 75.5902 7.74567 75.5902 7.619C75.4635 7.581 75.3242 7.53033 75.1722 7.467C74.8555 7.34033 74.5579 7.19467 74.2792 7.03C74.0005 6.86533 73.7599 6.67533 73.5572 6.46C73.3545 6.24467 73.1898 5.99133 73.0632 5.7C72.9492 5.40867 72.8922 5.073 72.8922 4.693C72.8922 4.24967 72.9555 3.86333 73.0822 3.534H73.0442C72.7402 3.534 72.4742 3.439 72.2462 3.249C72.0309 3.04633 71.9232 2.79933 71.9232 2.508C71.9232 2.22933 72.0309 1.995 72.2462 1.805C72.4742 1.60233 72.7402 1.501 73.0442 1.501H75.5522V0.874C75.5522 0.633333 75.6599 0.430666 75.8752 0.266C76.0905 0.0886667 76.3502 0 76.6542 0C76.9582 0 77.2179 0.0886667 77.4332 0.266C77.6612 0.430666 77.7752 0.633333 77.7752 0.874V1.501H80.3972C80.7139 1.501 80.9799 1.60233 81.1952 1.805C81.4232 1.995 81.5372 2.22933 81.5372 2.508C81.5372 2.79933 81.4232 3.04633 81.1952 3.249C80.9799 3.439 80.7139 3.534 80.3972 3.534H80.3782C80.4415 3.71133 80.4859 3.895 80.5112 4.085C80.5492 4.275 80.5682 4.47767 80.5682 4.693C80.5682 5.225 80.4479 5.67467 80.2072 6.042C79.9792 6.39667 79.6435 6.73233 79.2002 7.049C78.8582 7.30233 78.4972 7.49233 78.1172 7.619V7.638C78.1045 7.77733 78.0982 7.904 78.0982 8.018C78.0982 8.132 78.0919 8.246 78.0792 8.36C78.2312 8.36 78.3579 8.36 78.4592 8.36C78.5605 8.34733 78.6682 8.341 78.7822 8.341C78.8962 8.32833 79.0355 8.322 79.2002 8.322C79.3649 8.322 79.5928 8.32833 79.8842 8.341C80.1249 8.341 80.3592 8.341 80.5872 8.341C80.8152 8.341 81.0369 8.39167 81.2522 8.493C81.6069 8.65767 81.7842 8.93633 81.7842 9.329C81.7842 9.64567 81.6702 9.93067 81.4422 10.184C81.2649 10.374 81.0432 10.4817 80.7772 10.507C80.5238 10.5323 80.2832 10.5323 80.0552 10.507H73.3482C73.3355 10.507 73.2849 10.507 73.1962 10.507C73.1075 10.507 72.9998 10.4943 72.8732 10.469C72.7592 10.4437 72.6388 10.4057 72.5122 10.355C72.3855 10.2917 72.2842 10.203 72.2082 10.089C72.0562 9.937 71.9802 9.71533 71.9802 9.424C71.9802 9.28467 71.9992 9.17067 72.0372 9.082C72.0879 8.98067 72.1449 8.88567 72.2082 8.797C72.3475 8.63233 72.5312 8.512 72.7592 8.436C72.9872 8.34733 73.1835 8.29033 73.3482 8.265ZM73.9942 13.87V13.851C73.9815 13.851 73.9309 13.8383 73.8422 13.813C73.7662 13.7877 73.6775 13.7497 73.5762 13.699C73.4749 13.6483 73.3735 13.5787 73.2722 13.49C73.1835 13.4013 73.1329 13.2873 73.1202 13.148C73.0569 12.654 73.1329 12.274 73.3482 12.008C73.5002 11.8307 73.6649 11.7293 73.8422 11.704C74.0195 11.666 74.1145 11.647 74.1272 11.647L83.8172 11.628C84.3492 11.628 84.7292 11.7357 84.9572 11.951C85.1979 12.1537 85.3309 12.483 85.3562 12.939V14.915C85.3815 15.1937 85.3815 15.4723 85.3562 15.751C85.3309 16.017 85.2232 16.2323 85.0332 16.397C84.8559 16.5617 84.6215 16.644 84.3302 16.644C84.2669 16.644 84.1529 16.6377 83.9882 16.625C83.8362 16.625 83.7285 16.6123 83.6652 16.587C83.4879 16.5363 83.3485 16.4603 83.2472 16.359C83.1585 16.2577 83.0889 16.1437 83.0382 16.017C82.9875 15.8903 82.9558 15.7573 82.9432 15.618C82.9305 15.466 82.9179 15.3203 82.9052 15.181C82.9052 15.1303 82.8988 15.0417 82.8862 14.915C82.8862 14.7883 82.8799 14.6617 82.8672 14.535C82.8672 14.3957 82.8609 14.269 82.8482 14.155C82.8482 14.0283 82.8419 13.9397 82.8292 13.889C82.8038 13.889 82.7215 13.889 82.5822 13.889C82.4429 13.889 82.2655 13.889 82.0502 13.889C81.8475 13.889 81.6195 13.889 81.3662 13.889C81.1129 13.8763 80.8722 13.87 80.6442 13.87H73.9942ZM83.0192 3.42C83.0192 3.28067 83.0192 3.12233 83.0192 2.945C83.0192 2.76767 83.0255 2.59667 83.0382 2.432C83.0635 2.25467 83.1015 2.09 83.1522 1.938C83.2029 1.786 83.2662 1.672 83.3422 1.596C83.4815 1.46933 83.6208 1.39333 83.7602 1.368C83.9122 1.33 84.0769 1.311 84.2542 1.311C84.4695 1.311 84.6595 1.37433 84.8242 1.501C85.0015 1.615 85.1282 1.767 85.2042 1.957C85.3055 2.223 85.3625 2.49533 85.3752 2.774C85.3879 3.05267 85.4005 3.33133 85.4132 3.61C85.4132 4.04067 85.4132 4.446 85.4132 4.826C85.4258 5.206 85.4322 5.57967 85.4322 5.947C85.6855 5.947 85.9199 5.95333 86.1352 5.966C86.3632 5.966 86.5469 5.97233 86.6862 5.985C86.8509 5.99767 86.9965 6.061 87.1232 6.175C87.2625 6.289 87.3702 6.42833 87.4462 6.593C87.5222 6.745 87.5602 6.90967 87.5602 7.087C87.5602 7.26433 87.5095 7.41633 87.4082 7.543C87.2309 7.78367 86.9585 7.942 86.5912 8.018C86.2365 8.08133 85.8565 8.113 85.4512 8.113V8.721C85.4512 8.987 85.4322 9.196 85.3942 9.348C85.3562 9.48733 85.3119 9.62667 85.2612 9.766C85.2485 9.804 85.2359 9.842 85.2232 9.88C85.2105 9.918 85.1915 9.96233 85.1662 10.013C85.0775 10.1903 84.9635 10.3233 84.8242 10.412C84.6849 10.5007 84.5329 10.5577 84.3682 10.583C84.2162 10.5957 84.0579 10.5893 83.8932 10.564C83.7159 10.5133 83.5639 10.4373 83.4372 10.336C83.3232 10.2347 83.2345 10.108 83.1712 9.956C83.1205 9.79133 83.0825 9.63933 83.0572 9.5C83.0319 9.348 83.0192 9.22133 83.0192 9.12C83.0192 9.006 83.0192 8.94267 83.0192 8.93V3.42ZM77.0722 5.719C77.2495 5.681 77.4142 5.64933 77.5662 5.624C77.7182 5.59867 77.8449 5.55433 77.9462 5.491C78.0602 5.415 78.1425 5.32 78.1932 5.206C78.2565 5.07933 78.2882 4.90833 78.2882 4.693C78.2882 4.28767 78.1742 4.00267 77.9462 3.838C77.7182 3.67333 77.4459 3.572 77.1292 3.534H76.1412C75.8625 3.572 75.6282 3.67333 75.4382 3.838C75.2482 4.00267 75.1532 4.28767 75.1532 4.693C75.1532 4.997 75.2038 5.23133 75.3052 5.396C75.4192 5.56067 75.5649 5.67467 75.7422 5.738C75.9322 5.80133 76.1412 5.82667 76.3692 5.814C76.5972 5.78867 76.8315 5.757 77.0722 5.719Z" fill="white"/>
<path d="M95.3564 1.71C96.1291 2.15333 96.6801 2.72333 97.0094 3.42C97.1741 3.762 97.2818 4.142 97.3324 4.56C97.3831 4.978 97.3958 5.44667 97.3704 5.966C97.3324 6.536 97.2058 7.049 96.9904 7.505C96.7751 7.961 96.4901 8.35367 96.1354 8.683C95.7934 8.99967 95.3881 9.24667 94.9194 9.424C94.4508 9.58867 93.9504 9.671 93.4184 9.671H92.4494C92.3228 9.671 92.1961 9.671 92.0694 9.671C91.9428 9.65833 91.8098 9.63933 91.6704 9.614C91.5311 9.614 91.3981 9.595 91.2714 9.557C91.1448 9.519 91.0118 9.48733 90.8724 9.462C90.7331 9.39867 90.5938 9.329 90.4544 9.253C90.3278 9.177 90.1758 9.08833 89.9984 8.987C89.4158 8.607 89.0104 8.094 88.7824 7.448C88.6811 7.15667 88.6051 6.84633 88.5544 6.517C88.5038 6.18767 88.4784 5.86467 88.4784 5.548C88.4784 5.206 88.5038 4.87667 88.5544 4.56C88.6178 4.24333 88.7191 3.93933 88.8584 3.648C88.9598 3.344 89.1118 3.078 89.3144 2.85C89.5171 2.60933 89.7451 2.38133 89.9984 2.166C90.2264 1.976 90.4608 1.81767 90.7014 1.691C90.9421 1.55167 91.2081 1.444 91.4994 1.368C91.7528 1.26667 92.0251 1.20333 92.3164 1.178C92.6078 1.15267 92.8864 1.15267 93.1524 1.178C93.2918 1.216 93.4058 1.24133 93.4944 1.254C93.5958 1.254 93.6908 1.254 93.7794 1.254C93.8808 1.27933 93.9694 1.29833 94.0454 1.311C94.1341 1.311 94.2164 1.33 94.2924 1.368C94.3811 1.39333 94.4634 1.41867 94.5394 1.444C94.6281 1.45667 94.7104 1.482 94.7864 1.52C94.8624 1.54533 94.9511 1.577 95.0524 1.615C95.1538 1.653 95.2551 1.68467 95.3564 1.71ZM101.702 14.174C101.88 14.174 102.025 14.25 102.139 14.402C102.253 14.554 102.329 14.7377 102.367 14.953C102.393 15.2063 102.38 15.4153 102.329 15.58C102.279 15.732 102.203 15.8777 102.101 16.017C101.911 16.1817 101.747 16.283 101.607 16.321C101.544 16.321 101.487 16.3337 101.436 16.359C101.386 16.3843 101.316 16.397 101.227 16.397H91.9364C91.6704 16.397 91.4361 16.3907 91.2334 16.378C91.0434 16.3653 90.8724 16.321 90.7204 16.245C90.5811 16.169 90.4671 16.055 90.3784 15.903C90.3024 15.7637 90.2644 15.6243 90.2644 15.485V11.571C90.3404 11.2923 90.4671 11.0833 90.6444 10.944C90.7838 10.8553 90.9104 10.792 91.0244 10.754C91.1511 10.7033 91.2904 10.678 91.4424 10.678C91.4678 10.678 91.5438 10.6907 91.6704 10.716C91.8098 10.7287 91.8984 10.735 91.9364 10.735C92.0124 10.7603 92.0821 10.792 92.1454 10.83C92.2214 10.8553 92.2911 10.9123 92.3544 11.001C92.3798 11.0517 92.4114 11.1087 92.4494 11.172C92.4874 11.2227 92.5191 11.286 92.5444 11.362C92.5824 11.4507 92.6014 11.533 92.6014 11.609C92.6141 11.685 92.6331 11.761 92.6584 11.837V14.117H93.0384C93.1144 14.1297 93.2031 14.136 93.3044 14.136C93.3931 14.1487 93.4881 14.155 93.5894 14.155C93.6908 14.155 93.8048 14.155 93.9314 14.155C94.0074 14.155 94.1974 14.155 94.5014 14.155C94.8181 14.155 95.1918 14.155 95.6224 14.155C96.0658 14.1423 96.5471 14.136 97.0664 14.136C97.5858 14.136 98.0798 14.136 98.5484 14.136C99.0298 14.136 99.4604 14.1423 99.8404 14.155C100.233 14.155 100.524 14.155 100.714 14.155H101.189C101.215 14.155 101.272 14.1613 101.36 14.174C101.449 14.174 101.563 14.174 101.702 14.174ZM95.0904 5.377C95.0651 5.23767 95.0397 5.11733 95.0144 5.016C94.9891 4.902 94.9638 4.788 94.9384 4.674C94.8751 4.57267 94.8181 4.47133 94.7674 4.37C94.7168 4.26867 94.6471 4.18 94.5584 4.104C94.4824 4.028 94.3938 3.96467 94.2924 3.914C94.1911 3.85067 94.0708 3.78733 93.9314 3.724C93.7668 3.686 93.6084 3.65433 93.4564 3.629C93.3044 3.591 93.1461 3.572 92.9814 3.572C92.8041 3.572 92.6331 3.591 92.4684 3.629C92.3038 3.65433 92.1518 3.686 92.0124 3.724C91.8604 3.81267 91.7148 3.90133 91.5754 3.99C91.4488 4.07867 91.3348 4.19267 91.2334 4.332C91.1068 4.43333 91.0118 4.56633 90.9484 4.731C90.8851 4.883 90.8218 5.06667 90.7584 5.282C90.7584 5.42133 90.7584 5.55433 90.7584 5.681C90.7584 5.80767 90.7711 5.94067 90.7964 6.08C90.7964 6.20667 90.8218 6.33333 90.8724 6.46C90.9231 6.58667 90.9864 6.70067 91.0624 6.802C91.1511 6.916 91.2461 7.01733 91.3474 7.106C91.4488 7.182 91.5564 7.258 91.6704 7.334C91.8098 7.41 91.9554 7.47967 92.1074 7.543C92.2594 7.59367 92.4431 7.63167 92.6584 7.657C92.7978 7.657 92.9308 7.657 93.0574 7.657C93.1841 7.64433 93.3171 7.62533 93.4564 7.6C93.7098 7.6 93.9567 7.53033 94.1974 7.391C94.2988 7.34033 94.4001 7.277 94.5014 7.201C94.6154 7.11233 94.7104 7.01733 94.7864 6.916C94.9511 6.688 95.0524 6.441 95.0904 6.175V5.377ZM102.253 9.253C102.253 9.37967 102.241 9.50633 102.215 9.633C102.19 9.75967 102.165 9.89267 102.139 10.032C102.025 10.4373 101.759 10.6843 101.341 10.773C100.936 10.8617 100.607 10.773 100.353 10.507C100.113 10.241 99.9671 9.92433 99.9164 9.557C99.8911 9.45567 99.8721 9.35433 99.8594 9.253C99.8594 9.139 99.8594 9.03133 99.8594 8.93V8.284L99.9164 3.382C99.9164 3.20467 99.9101 3.01467 99.8974 2.812C99.8974 2.59667 99.9101 2.394 99.9354 2.204C99.9734 2.00133 100.043 1.81767 100.144 1.653C100.246 1.48833 100.404 1.35533 100.619 1.254C100.721 1.19067 100.828 1.159 100.942 1.159C101.069 1.14633 101.202 1.15267 101.341 1.178C101.633 1.216 101.848 1.33633 101.987 1.539C102.139 1.74167 102.228 1.976 102.253 2.242V9.253Z" fill="white"/>
</svg>
