<svg width="86" height="11" viewBox="0 0 86 11" fill="none" xmlns="http://www.w3.org/2000/svg">
<path d="M0 7.843V9.031H9.218V7.843H0ZM3.872 5.885V8.459H5.335V5.885H3.872ZM3.861 2.123V2.343C3.861 3.509 2.761 4.774 0.286 5.071L0.814 6.226C3.608 5.863 5.159 4.29 5.159 2.343V2.123H3.861ZM4.059 2.123V2.343C4.059 4.29 5.599 5.863 8.393 6.226L8.921 5.071C6.446 4.774 5.346 3.509 5.346 2.343V2.123H4.059ZM0.781 1.375V2.552H8.426V1.375H0.781ZM3.872 0.132V1.859H5.335V0.132H3.872Z" fill="#E17373"/>
<path d="M14.7171 0.187C12.4731 0.187 11.0321 0.946 11.0321 2.178C11.0321 3.41 12.4731 4.158 14.7171 4.158C16.9611 4.158 18.4021 3.41 18.4021 2.178C18.4021 0.946 16.9611 0.187 14.7171 0.187ZM14.7171 1.32C16.1031 1.32 16.8951 1.595 16.8951 2.178C16.8951 2.75 16.1031 3.036 14.7171 3.036C13.3201 3.036 12.5391 2.75 12.5391 2.178C12.5391 1.595 13.3201 1.32 14.7171 1.32ZM11.1751 6.6V10.076H18.2151V6.6H11.1751ZM16.7851 7.755V8.921H12.6161V7.755H16.7851ZM10.1081 4.741V5.896H19.3151V4.741H10.1081Z" fill="#E17373"/>
<path d="M20.3593 0.935V2.101H25.9803V0.935H20.3593ZM20.2493 7.865C21.9873 7.865 24.2973 7.821 26.3543 7.458L26.2773 6.391C24.2643 6.644 21.8663 6.666 20.0953 6.666L20.2493 7.865ZM21.2283 1.848V6.985H22.6473V1.848H21.2283ZM23.6923 1.848V6.985H25.1113V1.848H23.6923ZM26.7393 0V10.186H28.2133V0H26.7393ZM27.8833 3.861V5.06H29.6873V3.861H27.8833Z" fill="#E17373"/>
<path d="M35.3844 0.781V2.266C35.3844 4.158 34.6034 6.116 32.8874 6.919L33.7674 8.096C35.6924 7.15 36.5724 4.785 36.5724 2.266V0.781H35.3844ZM35.6814 0.781V2.266C35.6814 4.708 36.4844 6.974 38.3214 7.909L39.2014 6.743C37.5734 5.951 36.8474 4.092 36.8474 2.266V0.781H35.6814ZM39.6084 0V10.186H41.0824V0H39.6084ZM40.7524 3.916V5.137H42.5564V3.916H40.7524Z" fill="#E17373"/>
<path d="M45.6906 1.133V1.991C45.6906 3.278 44.9536 4.598 43.2596 5.148L44.0076 6.292C45.9656 5.654 46.9006 3.916 46.9006 1.991V1.133H45.6906ZM45.9876 1.133V1.991C45.9876 3.839 46.9116 5.5 48.8256 6.105L49.5736 4.972C47.9126 4.444 47.1866 3.201 47.1866 1.991V1.133H45.9876ZM43.6446 0.726V1.881H49.1886V0.726H43.6446ZM50.2116 0.0109999V7.359H51.6856V0.0109999H50.2116ZM44.8986 8.844V10.01H51.9386V8.844H44.8986ZM44.8986 6.699V9.427H46.3616V6.699H44.8986Z" fill="#E17373"/>
<path d="M61.2327 2.244V3.421H63.7847V2.244H61.2327ZM58.9007 0.418C57.3607 0.418 56.2057 1.441 56.2057 2.849C56.2057 4.268 57.3607 5.28 58.9007 5.28C60.4297 5.28 61.5847 4.268 61.5847 2.849C61.5847 1.441 60.4297 0.418 58.9007 0.418ZM58.9007 1.639C59.6487 1.639 60.1877 2.09 60.1877 2.849C60.1877 3.608 59.6487 4.07 58.9007 4.07C58.1527 4.07 57.6027 3.608 57.6027 2.849C57.6027 2.09 58.1527 1.639 58.9007 1.639ZM63.1467 0V5.478H64.6097V0H63.1467ZM57.8447 5.918V10.076H64.6097V5.918H63.1577V6.886H59.2967V5.918H57.8447ZM59.2967 8.008H63.1577V8.91H59.2967V8.008Z" fill="#E17373"/>
<path d="M66.2148 7.876V9.064H75.4328V7.876H66.2148ZM70.0758 5.951V8.36H71.5388V5.951H70.0758ZM67.2488 0.66V1.815H72.9468V2.904H67.2708V5.764H68.7228V4.048H74.3988V0.66H67.2488ZM67.2708 5.181V6.358H74.6298V5.181H67.2708Z" fill="#E17373"/>
<path d="M77.401 4.697V5.863H84.562V4.697H77.401ZM76.334 7.766V8.965H85.552V7.766H76.334ZM77.401 0.836V5.181H78.853V2.024H84.485V0.836H77.401Z" fill="#E17373"/>
</svg>
