<svg width="62" height="16" viewBox="0 0 62 16" fill="none" xmlns="http://www.w3.org/2000/svg">
<path d="M0.702 12.87C0.702 12.33 0.858 11.88 1.17 11.52C1.494 11.16 1.926 10.878 2.466 10.674C3.006 10.458 3.642 10.308 4.374 10.224C5.106 10.14 5.886 10.098 6.714 10.098C7.542 10.098 8.322 10.128 9.054 10.188C9.786 10.248 10.422 10.38 10.962 10.584C11.502 10.776 11.928 11.052 12.24 11.412C12.564 11.772 12.726 12.258 12.726 12.87C12.726 13.47 12.564 13.95 12.24 14.31C11.928 14.67 11.502 14.946 10.962 15.138C10.422 15.342 9.786 15.474 9.054 15.534C8.322 15.606 7.542 15.642 6.714 15.642C5.886 15.642 5.106 15.606 4.374 15.534C3.642 15.474 3.006 15.342 2.466 15.138C1.926 14.946 1.494 14.67 1.17 14.31C0.858 13.95 0.702 13.47 0.702 12.87ZM7.488 8.08202C7.488 8.20202 7.452 8.32202 7.38 8.44202C7.32 8.56202 7.242 8.67002 7.146 8.76602C7.05 8.85002 6.942 8.92802 6.822 9.00002C6.702 9.06002 6.588 9.09602 6.48 9.10802C6.168 9.15602 5.904 9.16803 5.688 9.14402C5.472 9.12002 5.214 9.10802 4.914 9.10802C4.254 9.10802 3.594 9.10203 2.934 9.09002C2.286 9.07802 1.638 9.06002 0.99 9.03603C0.798 9.02402 0.636 8.96402 0.504 8.85602C0.384 8.74802 0.288 8.62202 0.216 8.47802C0.144 8.32202 0.096 8.15403 0.072 7.97402C0.048 7.79402 0.0359999 7.62602 0.0359999 7.47002C0.0359999 7.21802 0.03 6.93602 0.018 6.62402C0.018 6.31202 0.012 5.99402 0 5.67002C0 5.34602 0 5.02802 0 4.71602C0 4.39202 0.00600001 4.10402 0.018 3.85202C0.03 3.69602 0.03 3.52802 0.018 3.34802C0.018 3.16802 0.024 2.98802 0.0359999 2.80802C0.048 2.62802 0.066 2.45402 0.09 2.28602C0.126 2.10602 0.18 1.95002 0.252 1.81802C0.336 1.66202 0.456 1.53602 0.612 1.44002C0.768 1.34402 0.93 1.29002 1.098 1.27802C1.266 1.25402 1.428 1.27202 1.584 1.33202C1.752 1.39202 1.884 1.50002 1.98 1.65602C2.172 1.98002 2.268 2.35802 2.268 2.79002C2.28 3.21002 2.28 3.61202 2.268 3.99602H5.454C5.478 3.73202 5.484 3.49802 5.472 3.29402C5.46 3.09002 5.454 2.87402 5.454 2.64602C5.454 2.44202 5.484 2.21402 5.544 1.96202C5.616 1.69802 5.742 1.50602 5.922 1.38602C6.054 1.29002 6.234 1.24202 6.462 1.24202C6.69 1.23002 6.87 1.27202 7.002 1.36802C7.134 1.46402 7.23 1.60802 7.29 1.80002C7.362 1.98002 7.41 2.16602 7.434 2.35802C7.47 2.57402 7.488 2.80802 7.488 3.06002V8.08202ZM9.954 7.90202C9.87 7.90202 9.762 7.89602 9.63 7.88402C9.51 7.87202 9.384 7.84802 9.252 7.81202C9.132 7.77602 9.018 7.72802 8.91 7.66802C8.802 7.60802 8.718 7.52402 8.658 7.41602C8.622 7.36802 8.592 7.30202 8.568 7.21802C8.556 7.13402 8.544 7.05002 8.532 6.96602C8.532 6.87002 8.532 6.78002 8.532 6.69602C8.544 6.61202 8.556 6.54602 8.568 6.49802C8.592 6.36602 8.658 6.25202 8.766 6.15602C8.874 6.04802 9 5.96402 9.144 5.90402C9.192 5.89202 9.282 5.88002 9.414 5.86802C9.558 5.85602 9.702 5.85002 9.846 5.85002H10.386C10.374 5.71802 10.368 5.59202 10.368 5.47202V4.91402H9.954C9.87 4.91402 9.762 4.90802 9.63 4.89602C9.51 4.88402 9.384 4.86002 9.252 4.82402C9.132 4.78802 9.018 4.74002 8.91 4.68002C8.802 4.62002 8.718 4.53602 8.658 4.42802C8.562 4.27202 8.514 4.11002 8.514 3.94202C8.514 3.76202 8.55 3.60002 8.622 3.45602C8.706 3.30002 8.814 3.17402 8.946 3.07802C9.09 2.97002 9.258 2.91002 9.45 2.89802C9.462 2.89802 9.516 2.89802 9.612 2.89802C9.72 2.89802 9.834 2.89802 9.954 2.89802C10.074 2.89802 10.182 2.89802 10.278 2.89802C10.374 2.88602 10.422 2.86802 10.422 2.84402C10.446 2.72402 10.452 2.59202 10.44 2.44802C10.44 2.30402 10.446 2.16002 10.458 2.01602C10.47 1.87202 10.494 1.74002 10.53 1.62002C10.578 1.48802 10.662 1.37402 10.782 1.27802C10.878 1.20602 10.992 1.15802 11.124 1.13402C11.256 1.11002 11.382 1.09202 11.502 1.08002C11.802 1.04402 12.06 1.14602 12.276 1.38602C12.36 1.49402 12.42 1.59602 12.456 1.69202C12.504 1.83602 12.522 1.98602 12.51 2.14202C12.51 2.29802 12.51 2.45402 12.51 2.61002V7.77602C12.51 7.77602 12.51 7.85402 12.51 8.01002C12.51 8.16602 12.498 8.34002 12.474 8.53202C12.45 8.72402 12.408 8.91602 12.348 9.10802C12.3 9.28802 12.216 9.41403 12.096 9.48602C12.012 9.53403 11.91 9.57002 11.79 9.59402C11.67 9.61802 11.562 9.63002 11.466 9.63002C11.262 9.63002 11.064 9.56402 10.872 9.43202C10.728 9.33603 10.626 9.22202 10.566 9.09002C10.53 9.01802 10.5 8.92802 10.476 8.82002C10.452 8.71202 10.434 8.60402 10.422 8.49602C10.41 8.37602 10.398 8.26202 10.386 8.15402C10.374 8.04602 10.368 7.96202 10.368 7.90202H9.954ZM10.296 12.87C10.296 12.666 10.188 12.504 9.972 12.384C9.756 12.264 9.474 12.174 9.126 12.114C8.79 12.054 8.406 12.018 7.974 12.006C7.554 11.982 7.134 11.97 6.714 11.97C6.294 11.97 5.874 11.982 5.454 12.006C5.046 12.018 4.674 12.054 4.338 12.114C4.014 12.174 3.75 12.264 3.546 12.384C3.342 12.504 3.24 12.666 3.24 12.87C3.24 13.05 3.342 13.2 3.546 13.32C3.75 13.44 4.014 13.53 4.338 13.59C4.674 13.65 5.046 13.692 5.454 13.716C5.874 13.74 6.294 13.752 6.714 13.752C7.134 13.752 7.554 13.752 7.974 13.752C8.406 13.752 8.79 13.728 9.126 13.68C9.474 13.632 9.756 13.548 9.972 13.428C10.188 13.296 10.296 13.11 10.296 12.87ZM5.454 7.11002C5.454 7.07402 5.448 7.03802 5.436 7.00202C5.436 6.95402 5.442 6.90002 5.454 6.84002C5.478 6.67202 5.49 6.52802 5.49 6.40802C5.49 6.27602 5.478 6.12603 5.454 5.95802V5.65202H3.636C3.444 5.64002 3.264 5.62803 3.096 5.61602C2.952 5.60402 2.796 5.60402 2.628 5.61602C2.472 5.61602 2.34 5.62802 2.232 5.65202C2.208 5.85602 2.202 6.06002 2.214 6.26402C2.238 6.45602 2.256 6.65402 2.268 6.85802C2.268 6.99002 2.274 7.08002 2.286 7.12802C2.298 7.17602 2.37 7.20602 2.502 7.21802C2.634 7.23002 2.766 7.23602 2.898 7.23602C3.042 7.22402 3.18 7.21802 3.312 7.21802H5.454V7.11002Z" fill="black"/>
<path d="M19.4594 0.954024C20.0714 0.990024 20.6234 1.08602 21.1154 1.24202C21.6194 1.38602 22.0394 1.59602 22.3754 1.87202C22.7234 2.14802 22.9814 2.48402 23.1494 2.88002C23.3294 3.27602 23.3954 3.72602 23.3474 4.23002C23.2634 5.09402 22.8854 5.76003 22.2134 6.22802C21.5414 6.69602 20.6294 6.93002 19.4774 6.93002C19.1654 6.93002 18.8654 6.93002 18.5774 6.93002C18.3014 6.91802 18.0254 6.90002 17.7494 6.87602C17.4734 6.84002 17.2034 6.78602 16.9394 6.71402C16.6754 6.64202 16.4054 6.54002 16.1294 6.40802C15.6014 6.13202 15.2414 5.77202 15.0494 5.32802C14.8694 4.87202 14.7794 4.41002 14.7794 3.94202C14.7794 2.91002 15.1814 2.15402 15.9854 1.67402C16.8014 1.19402 17.9594 0.954024 19.4594 0.954024ZM27.0554 13.608C27.0674 13.608 27.1094 13.62 27.1814 13.644C27.2534 13.668 27.3314 13.71 27.4154 13.77C27.5114 13.818 27.5954 13.89 27.6674 13.986C27.7514 14.07 27.8054 14.172 27.8294 14.292C27.9014 14.748 27.8294 15.102 27.6134 15.354C27.4814 15.522 27.3374 15.624 27.1814 15.66C27.0254 15.696 26.9414 15.714 26.9294 15.714H17.5334C17.0774 15.714 16.7174 15.636 16.4534 15.48C16.1894 15.336 16.0574 15.126 16.0574 14.85V13.248C16.0334 12.984 16.0334 12.714 16.0574 12.438C16.0814 12.186 16.1774 11.982 16.3454 11.826C16.5134 11.67 16.7234 11.592 16.9754 11.592C17.0354 11.592 17.1134 11.598 17.2094 11.61C17.3174 11.61 17.4014 11.622 17.4614 11.646C17.6174 11.694 17.7374 11.766 17.8214 11.862C17.9054 11.958 17.9714 12.072 18.0194 12.204C18.0674 12.324 18.0974 12.456 18.1094 12.6C18.1214 12.732 18.1334 12.864 18.1454 12.996C18.1454 13.092 18.1514 13.194 18.1634 13.302C18.1754 13.398 18.1934 13.488 18.2174 13.572C18.2414 13.584 18.3494 13.602 18.5414 13.626C18.7454 13.638 19.0574 13.644 19.4774 13.644C19.8374 13.644 20.1554 13.638 20.4314 13.626C20.7194 13.614 20.8694 13.608 20.8814 13.608H27.0554ZM27.4874 10.17C27.4754 10.242 27.4574 10.338 27.4334 10.458C27.4214 10.566 27.4034 10.68 27.3794 10.8C27.3674 10.92 27.3494 11.034 27.3254 11.142C27.3014 11.238 27.2774 11.322 27.2534 11.394C27.1934 11.538 27.0974 11.67 26.9654 11.79C26.8334 11.874 26.6894 11.922 26.5334 11.934C26.3894 11.946 26.2514 11.94 26.1194 11.916C26.0354 11.892 25.9574 11.874 25.8854 11.862C25.8254 11.85 25.7654 11.814 25.7054 11.754C25.3814 11.43 25.2374 10.974 25.2734 10.386L25.3094 6.89402C24.8774 6.89402 24.4694 6.86402 24.0854 6.80402C23.7014 6.73202 23.4374 6.59402 23.2934 6.39002C23.2094 6.27002 23.1674 6.13202 23.1674 5.97602C23.1674 5.82002 23.2034 5.67002 23.2754 5.52602C23.3474 5.37002 23.4434 5.24402 23.5634 5.14802C23.6834 5.04002 23.8154 4.98002 23.9594 4.96802C24.1034 4.96802 24.2954 4.96202 24.5354 4.95002C24.7754 4.93802 25.0334 4.93202 25.3094 4.93202V2.95202C25.3094 2.82002 25.3094 2.67002 25.3094 2.50202C25.3094 2.33402 25.3154 2.17202 25.3274 2.01602C25.3514 1.84802 25.3874 1.69202 25.4354 1.54802C25.4834 1.40402 25.5434 1.29002 25.6154 1.20602C25.7474 1.07402 25.8794 0.996024 26.0114 0.972025C26.1434 0.948024 26.2814 0.936024 26.4254 0.936024C26.8454 0.936024 27.1334 1.14002 27.2894 1.54802C27.3854 1.81202 27.4394 2.07602 27.4514 2.34002C27.4634 2.60402 27.4754 2.87402 27.4874 3.15002V3.24002C27.5114 4.15202 27.5174 5.05802 27.5054 5.95802C27.4934 6.84602 27.4874 7.71602 27.4874 8.56802V10.17ZM20.5394 9.81002C20.5514 10.35 20.5214 10.812 20.4494 11.196C20.3894 11.58 20.2214 11.856 19.9454 12.024C19.8014 12.108 19.6334 12.162 19.4414 12.186C19.2614 12.198 19.0814 12.18 18.9014 12.132C18.7334 12.084 18.5834 12.012 18.4514 11.916C18.3314 11.808 18.2654 11.682 18.2534 11.538C18.2294 11.382 18.2114 11.148 18.1994 10.836C18.1994 10.524 18.1994 10.176 18.1994 9.79202C17.8994 9.78002 17.5394 9.76802 17.1194 9.75602C16.6994 9.73202 16.3334 9.72002 16.0214 9.72002C15.8534 9.69602 15.6854 9.67202 15.5174 9.64802C15.3494 9.61202 15.1934 9.51602 15.0494 9.36002C14.9054 9.21602 14.8334 9.00602 14.8334 8.73002C14.8334 8.47802 14.9054 8.26802 15.0494 8.10002C15.1334 8.00402 15.2354 7.93202 15.3554 7.88402C15.4874 7.83602 15.6134 7.80002 15.7334 7.77602C15.8534 7.75202 15.9554 7.74002 16.0394 7.74002C16.1354 7.74002 16.1894 7.74002 16.2014 7.74002H22.3574C22.5974 7.71602 22.8434 7.71602 23.0954 7.74002C23.3594 7.76402 23.5814 7.86002 23.7614 8.02802C23.9894 8.25602 24.1034 8.51402 24.1034 8.80202C24.1034 8.98203 24.0554 9.15002 23.9594 9.30602C23.8634 9.45002 23.7314 9.55202 23.5634 9.61202C23.3474 9.70802 23.1074 9.76802 22.8434 9.79202C22.5914 9.81602 22.3514 9.82202 22.1234 9.81002H20.5394ZM21.0074 4.30202C21.0674 3.95402 20.9954 3.66602 20.7914 3.43802C20.5994 3.19802 20.3114 3.02402 19.9274 2.91602C19.6754 2.84402 19.3874 2.80202 19.0634 2.79002C18.7514 2.76602 18.4454 2.78402 18.1454 2.84402C17.8574 2.90402 17.6054 3.01202 17.3894 3.16802C17.1734 3.31202 17.0414 3.51602 16.9934 3.78003C16.9214 4.14002 16.9994 4.45202 17.2274 4.71602C17.4674 4.98002 17.9354 5.14202 18.6314 5.20202C18.8714 5.22602 19.1174 5.23802 19.3694 5.23802C19.6214 5.23802 19.8554 5.21402 20.0714 5.16602C20.2994 5.10602 20.4914 5.02202 20.6474 4.91402C20.8154 4.79402 20.9294 4.62602 20.9894 4.41002L21.0074 4.30202Z" fill="black"/>
<path d="M37.7806 1.13402C37.9366 1.13402 38.0866 1.14002 38.2306 1.15202C38.3746 1.16402 38.5186 1.18202 38.6626 1.20602C39.1186 1.27802 39.5206 1.48802 39.8686 1.83602C40.1566 2.14802 40.3906 2.50802 40.5706 2.91602C40.7626 3.31202 40.9126 3.73202 41.0206 4.17602C41.1286 4.62002 41.2066 5.07602 41.2546 5.54402C41.3026 6.00002 41.3386 6.44402 41.3626 6.87602C41.3866 7.42802 41.3926 7.98002 41.3806 8.53202C41.3686 9.08402 41.3326 9.63002 41.2726 10.17C41.2126 10.734 41.1226 11.304 41.0026 11.88C40.8946 12.444 40.6906 12.954 40.3906 13.41C40.1386 13.794 39.8266 14.112 39.4546 14.364C39.0826 14.604 38.6926 14.766 38.2846 14.85C37.9126 14.922 37.5346 14.934 37.1506 14.886C36.7666 14.838 36.4006 14.712 36.0526 14.508C35.7286 14.316 35.4526 14.076 35.2246 13.788C35.0086 13.5 34.8166 13.164 34.6486 12.78C34.4086 12.204 34.2706 11.61 34.2346 10.998C34.1866 10.494 34.1506 9.99003 34.1266 9.48602C34.1146 8.98203 34.1086 8.47802 34.1086 7.97402C34.1086 7.30202 34.1446 6.63002 34.2166 5.95802C34.2406 5.68202 34.2646 5.41202 34.2886 5.14802C34.3126 4.87202 34.3486 4.60202 34.3966 4.33802C34.4446 4.12202 34.4866 3.91802 34.5226 3.72602C34.5586 3.53402 34.6246 3.33602 34.7206 3.13202C34.8166 2.92802 34.9186 2.73602 35.0266 2.55602C35.1466 2.37602 35.2846 2.21402 35.4406 2.07002C35.7046 1.80602 35.9986 1.60202 36.3226 1.45802C36.6466 1.31402 36.9826 1.21802 37.3306 1.17002C37.4026 1.15802 37.4746 1.15202 37.5466 1.15202C37.6306 1.15202 37.7086 1.14602 37.7806 1.13402ZM46.5106 14.022C46.4866 14.166 46.4686 14.31 46.4566 14.454C46.4446 14.586 46.4146 14.724 46.3666 14.868C46.3426 14.916 46.3246 14.958 46.3126 14.994C46.3006 15.03 46.2826 15.072 46.2586 15.12C46.1746 15.288 46.0666 15.42 45.9346 15.516C45.6586 15.684 45.3526 15.726 45.0166 15.642C44.8246 15.606 44.6686 15.534 44.5486 15.426C44.4406 15.33 44.3566 15.204 44.2966 15.048C44.2486 14.904 44.2066 14.76 44.1706 14.616C44.1466 14.472 44.1346 14.346 44.1346 14.238C44.1346 14.13 44.1346 14.07 44.1346 14.058V3.16802C44.1346 3.02402 44.1346 2.86802 44.1346 2.70002C44.1346 2.53202 44.1466 2.36402 44.1706 2.19602C44.1946 2.02802 44.2306 1.87202 44.2786 1.72802C44.3266 1.58402 44.3926 1.47002 44.4766 1.38602C44.6086 1.25402 44.7466 1.17602 44.8906 1.15202C45.0346 1.11602 45.1906 1.09802 45.3586 1.09802C45.5626 1.09802 45.7486 1.15802 45.9166 1.27802C46.0966 1.38602 46.2226 1.54202 46.2946 1.74602C46.4026 1.99802 46.4626 2.26202 46.4746 2.53802C46.4866 2.81402 46.4986 3.09002 46.5106 3.36602V3.45602C46.5346 4.38002 46.5406 5.32802 46.5286 6.30002C46.5166 7.27202 46.5106 8.19002 46.5106 9.05402V13.374C46.5106 13.482 46.5106 13.59 46.5106 13.698C46.5226 13.806 46.5226 13.914 46.5106 14.022ZM37.7266 12.456C37.9546 12.456 38.1766 12.384 38.3926 12.24C38.5966 12.096 38.7406 11.904 38.8246 11.664C38.9086 11.424 38.9806 11.16 39.0406 10.872C39.1366 10.32 39.1906 9.73203 39.2026 9.10802C39.2146 8.48403 39.2086 7.88402 39.1846 7.30802C39.1846 7.08002 39.1786 6.84002 39.1666 6.58802C39.1546 6.32402 39.1306 6.06602 39.0946 5.81402C39.0706 5.56202 39.0286 5.32202 38.9686 5.09402C38.9086 4.85402 38.8246 4.64402 38.7166 4.46402C38.5966 4.26002 38.4526 4.10402 38.2846 3.99602C38.1166 3.88802 37.9366 3.84602 37.7446 3.87002C37.5406 3.89402 37.3546 3.96602 37.1866 4.08602C37.0186 4.20602 36.8806 4.38602 36.7726 4.62602L36.6106 5.00402C36.5386 5.23202 36.4846 5.47202 36.4486 5.72402C36.4126 5.96403 36.3826 6.20402 36.3586 6.44402C36.3346 6.68402 36.3166 6.93002 36.3046 7.18202C36.2926 7.43402 36.2866 7.68002 36.2866 7.92002C36.2986 8.16002 36.2926 8.39402 36.2686 8.62202C36.2566 8.85002 36.2626 9.08403 36.2866 9.32403C36.3106 9.63603 36.3406 9.97202 36.3766 10.332C36.4246 10.692 36.4966 11.034 36.5926 11.358C36.6886 11.67 36.8266 11.934 37.0066 12.15C37.1866 12.354 37.4266 12.456 37.7266 12.456Z" fill="black"/>
<path d="M59.9543 5.61602C60.1463 5.62803 60.3143 5.67602 60.4583 5.76002C60.6023 5.83202 60.7043 5.97002 60.7643 6.17402C60.8963 6.64202 60.7403 6.96602 60.2963 7.14602C60.1523 7.20602 60.0023 7.24202 59.8463 7.25402C59.7023 7.26602 59.5643 7.27202 59.4323 7.27202H51.2063C50.9663 7.27202 50.7143 7.27202 50.4503 7.27202C50.1983 7.27202 49.9403 7.26602 49.6763 7.25402C49.4243 7.23002 49.2083 7.13402 49.0283 6.96602C48.8603 6.78602 48.7643 6.55202 48.7403 6.26402C48.7163 6.04803 48.7043 5.82602 48.7043 5.59802C48.7043 5.35802 48.7043 5.15402 48.7043 4.98602C48.7043 4.96202 48.6983 4.93202 48.6863 4.89602C48.6863 4.86002 48.6863 4.83002 48.6863 4.80602C48.6863 4.67402 48.6923 4.51202 48.7043 4.32002C48.7163 4.11602 48.7763 3.94802 48.8843 3.81602C49.0523 3.62402 49.2743 3.51002 49.5503 3.47402C49.8263 3.42602 50.0963 3.40202 50.3603 3.40202H57.0383C57.2543 3.40202 57.4223 3.40202 57.5423 3.40202C57.6623 3.40202 57.7703 3.40202 57.8663 3.40202C57.9623 3.40202 58.0583 3.40202 58.1543 3.40202C58.2503 3.40202 58.3703 3.40202 58.5143 3.40202C58.5143 3.37802 58.5143 3.33002 58.5143 3.25802C58.5263 3.17402 58.5323 3.09602 58.5323 3.02402C58.5443 2.94002 58.5503 2.86802 58.5503 2.80802C58.5503 2.73602 58.5383 2.70002 58.5143 2.70002H50.8103C50.7503 2.70002 50.6843 2.70002 50.6123 2.70002C50.5523 2.68802 50.4863 2.68802 50.4143 2.70002H49.9823C49.8623 2.70002 49.7543 2.70002 49.6583 2.70002C49.5623 2.70002 49.4663 2.68802 49.3703 2.66402C49.2623 2.64002 49.1603 2.60402 49.0643 2.55602C48.9683 2.49602 48.8903 2.41802 48.8303 2.32202C48.7823 2.21402 48.7523 2.10002 48.7403 1.98002C48.7403 1.86002 48.7403 1.74602 48.7403 1.63802C48.7403 1.53002 48.7703 1.42802 48.8303 1.33202C48.9023 1.23602 48.9803 1.15802 49.0643 1.09802C49.1603 1.03802 49.2563 1.00202 49.3523 0.990024C49.4483 0.978024 49.5563 0.960024 49.6763 0.936024C49.7723 0.912024 49.8683 0.906024 49.9643 0.918024C50.0603 0.930024 50.1563 0.930024 50.2523 0.918024C50.3603 0.906024 50.4623 0.900024 50.5583 0.900024C50.6663 0.900024 50.7743 0.900024 50.8823 0.900024C51.2543 0.912024 51.7283 0.918024 52.3043 0.918024C52.8803 0.906024 53.4383 0.900024 53.9783 0.900024H58.8923C59.5043 0.900024 59.9723 1.00202 60.2963 1.20602C60.6203 1.39802 60.7823 1.72202 60.7823 2.17802V3.43802C60.7823 3.54602 60.7823 3.66602 60.7823 3.79802C60.7943 3.91802 60.7883 4.04402 60.7643 4.17602C60.7523 4.29602 60.7223 4.41002 60.6743 4.51802C60.6263 4.62602 60.5483 4.71002 60.4403 4.77002C60.2603 4.86602 60.0503 4.92002 59.8103 4.93202C59.5823 4.93202 59.3663 4.93202 59.1623 4.93202H50.9003V5.59802H59.3603C59.4563 5.59802 59.5523 5.59802 59.6483 5.59802C59.7563 5.59802 59.8583 5.60402 59.9543 5.61602ZM49.2623 15.354C49.2503 15.354 49.2323 15.342 49.2083 15.318C49.0883 15.222 49.0043 15.09 48.9563 14.922C48.9203 14.754 48.9023 14.604 48.9023 14.472C48.8903 14.256 48.8723 14.04 48.8483 13.824C48.8363 13.608 48.8303 13.398 48.8303 13.194C48.8303 12.882 48.8303 12.6 48.8303 12.348C48.8303 12.096 48.8603 11.82 48.9203 11.52C48.9563 11.328 49.0163 11.178 49.1003 11.07C49.1843 10.95 49.3163 10.854 49.4963 10.782C49.8323 10.65 50.1683 10.584 50.5043 10.584H58.8023C59.0303 10.596 59.2643 10.614 59.5043 10.638C59.7443 10.662 59.9723 10.722 60.1883 10.818C60.4283 10.914 60.5843 11.052 60.6563 11.232C60.7403 11.4 60.7943 11.604 60.8183 11.844C60.8303 12.048 60.8363 12.282 60.8363 12.546C60.8483 12.81 60.8483 13.08 60.8363 13.356C60.8243 13.62 60.8063 13.884 60.7823 14.148C60.7583 14.412 60.7163 14.652 60.6563 14.868C60.6203 15 60.5783 15.114 60.5303 15.21C60.4823 15.318 60.3863 15.396 60.2423 15.444C60.1103 15.492 59.9723 15.522 59.8283 15.534C59.6963 15.546 59.5643 15.552 59.4323 15.552L50.2343 15.516C50.0783 15.504 49.9103 15.498 49.7303 15.498C49.5503 15.498 49.3943 15.45 49.2623 15.354ZM59.5403 7.92002C59.7443 7.92002 59.9603 7.92002 60.1883 7.92002C60.4283 7.90802 60.6443 7.93202 60.8363 7.99202C61.0403 8.04002 61.2023 8.14202 61.3223 8.29802C61.4543 8.45402 61.5203 8.69402 61.5203 9.01802C61.5203 9.30602 61.4003 9.55802 61.1603 9.77402C60.9683 9.94202 60.7343 10.038 60.4583 10.062C60.1943 10.074 59.9423 10.074 59.7023 10.062C59.6423 10.05 59.5883 10.044 59.5403 10.044C59.4923 10.044 59.4383 10.044 59.3783 10.044H49.4603C49.4483 10.044 49.3943 10.044 49.2983 10.044C49.2023 10.044 49.0883 10.032 48.9563 10.008C48.8363 9.98402 48.7103 9.95403 48.5783 9.91803C48.4463 9.87002 48.3383 9.79802 48.2543 9.70202C48.1103 9.54602 48.0383 9.33602 48.0383 9.07202C48.0383 8.82002 48.1163 8.61602 48.2723 8.46002C48.4283 8.31602 48.5903 8.19602 48.7583 8.10002C48.9263 8.00402 49.1003 7.94403 49.2803 7.92002C49.3163 7.92002 49.3523 7.92602 49.3883 7.93802C49.4243 7.93802 49.4603 7.93202 49.4963 7.92002C49.6643 7.89602 49.8443 7.89602 50.0363 7.92002C50.2283 7.93202 50.4263 7.93202 50.6303 7.92002C51.2543 7.89602 51.8843 7.89002 52.5203 7.90202C53.1683 7.91402 53.8403 7.92002 54.5363 7.92002C55.2923 7.92002 56.0963 7.91402 56.9483 7.90202C57.8003 7.89002 58.6343 7.89602 59.4503 7.92002H59.5403ZM50.9723 13.302C50.9723 13.362 50.9723 13.422 50.9723 13.482C50.9843 13.542 51.0083 13.584 51.0443 13.608C51.0683 13.632 51.1043 13.65 51.1523 13.662C51.2123 13.662 51.2723 13.662 51.3323 13.662C51.3923 13.662 51.4643 13.656 51.5483 13.644H57.0023C57.1703 13.656 57.3323 13.668 57.4883 13.68C57.6203 13.692 57.7583 13.698 57.9023 13.698C58.0463 13.698 58.1783 13.686 58.2983 13.662C58.4183 13.65 58.4903 13.614 58.5143 13.554C58.5383 13.494 58.5563 13.41 58.5683 13.302C58.5803 13.206 58.5863 13.098 58.5863 12.978C58.5863 12.846 58.5503 12.732 58.4783 12.636C58.3943 12.54 58.2743 12.492 58.1183 12.492C57.9743 12.48 57.8423 12.48 57.7223 12.492H52.8983C52.6343 12.468 52.3763 12.462 52.1243 12.474C51.8723 12.474 51.6143 12.48 51.3503 12.492C51.2543 12.492 51.1763 12.498 51.1163 12.51C51.0683 12.51 51.0323 12.564 51.0083 12.672C50.9843 12.756 50.9723 12.84 50.9723 12.924C50.9723 12.996 50.9723 13.068 50.9723 13.14C50.9843 13.164 50.9843 13.188 50.9723 13.212C50.9723 13.236 50.9723 13.266 50.9723 13.302Z" fill="black"/>
</svg>
