<svg width="21" height="12" viewBox="0 0 21 12" fill="none" xmlns="http://www.w3.org/2000/svg">
<path d="M10.0996 9.88008C10.1096 9.94008 10.1146 10.0001 10.1146 10.0601C10.1246 10.1101 10.1296 10.1701 10.1296 10.2401C10.1296 10.3601 10.0946 10.4701 10.0246 10.5701C9.99461 10.6201 9.95461 10.6701 9.9046 10.7201C9.8546 10.7601 9.79461 10.7951 9.7246 10.8251C9.4746 10.9651 9.20961 11.0151 8.92961 10.9751C8.78961 10.9351 8.6646 10.8701 8.5546 10.7801C8.53461 10.7601 8.5196 10.7501 8.5096 10.7501C8.4996 10.7401 8.4896 10.7251 8.4796 10.7051C8.4696 10.6951 8.4596 10.6851 8.4496 10.6751C8.4396 10.6551 8.4246 10.6401 8.4046 10.6301C8.3546 10.5801 8.3146 10.5351 8.2846 10.4951C8.2546 10.4451 8.22461 10.3951 8.1946 10.3451C8.1746 10.2951 8.1496 10.2501 8.11961 10.2101C8.0996 10.1601 8.0746 10.1101 8.04461 10.0601C8.0246 10.0201 8.0046 9.98507 7.9846 9.95508C7.9646 9.91508 7.9496 9.87508 7.9396 9.83508C7.8996 9.74508 7.8746 9.66508 7.8646 9.59508L7.5496 8.86007C6.8596 8.86007 6.1696 8.86508 5.4796 8.87508C4.7996 8.87508 4.1146 8.87008 3.4246 8.86007L3.1096 9.59508C3.0896 9.63508 3.0746 9.67508 3.0646 9.71508C3.0646 9.75508 3.0546 9.79508 3.0346 9.83508C3.0146 9.87508 2.9946 9.91508 2.9746 9.95508C2.9646 9.98507 2.9496 10.0201 2.9296 10.0601C2.8996 10.1101 2.8696 10.1601 2.8396 10.2101C2.8196 10.2501 2.7946 10.2951 2.7646 10.3451C2.7446 10.3951 2.7196 10.4451 2.6896 10.4951C2.6596 10.5351 2.6196 10.5801 2.5696 10.6301C2.5496 10.6401 2.5346 10.6551 2.5246 10.6751C2.5146 10.6851 2.5046 10.6951 2.4946 10.7051C2.4846 10.7251 2.4746 10.7401 2.4646 10.7501C2.4546 10.7501 2.4396 10.7601 2.4196 10.7801C2.3096 10.8701 2.1846 10.9351 2.0446 10.9751C1.7646 11.0151 1.4996 10.9651 1.2496 10.8251C1.1796 10.7951 1.1196 10.7601 1.0696 10.7201C1.0196 10.6701 0.979604 10.6201 0.949604 10.5701C0.879604 10.4701 0.844604 10.3601 0.844604 10.2401C0.844604 10.1701 0.844604 10.1101 0.844604 10.0601C0.854604 10.0001 0.864604 9.94008 0.874604 9.88008C0.894605 9.79008 0.919604 9.70008 0.949604 9.61007C0.979604 9.52007 0.994604 9.47508 0.994604 9.47508L4.1146 1.79507L4.2046 1.55508C4.2246 1.49508 4.2496 1.44008 4.2796 1.39008C4.3096 1.34007 4.3346 1.28007 4.3546 1.21008C4.4046 1.08007 4.4596 0.965075 4.5196 0.865075C4.5496 0.805075 4.5846 0.750075 4.6246 0.700075C4.6646 0.650075 4.7046 0.600074 4.7446 0.550075C4.8046 0.470075 4.88961 0.405075 4.9996 0.355075C5.13961 0.305075 5.2996 0.280075 5.4796 0.280075C5.6696 0.280075 5.83461 0.305075 5.97461 0.355075C6.0846 0.405075 6.1696 0.470075 6.2296 0.550075C6.2996 0.640075 6.37461 0.745075 6.45461 0.865075C6.51461 0.965075 6.5696 1.08007 6.6196 1.21008C6.6396 1.28007 6.6646 1.34007 6.6946 1.39008C6.7246 1.44008 6.74961 1.49508 6.76961 1.55508L6.8596 1.79507L9.9796 9.47508C9.9796 9.47508 9.99461 9.52007 10.0246 9.61007C10.0546 9.70008 10.0796 9.79008 10.0996 9.88008ZM6.5446 6.20508C6.4146 5.91508 6.2796 5.61508 6.1396 5.30508C6.0096 4.99508 5.8696 4.68008 5.7196 4.36007C5.6796 4.27007 5.6396 4.18008 5.5996 4.09008C5.5596 3.99008 5.5196 3.89508 5.4796 3.80508C5.4496 3.89508 5.4146 3.99008 5.3746 4.09008C5.3346 4.18008 5.2946 4.27007 5.2546 4.36007C5.1046 4.68008 4.9596 4.99508 4.8196 5.30508C4.6896 5.61508 4.5596 5.91508 4.4296 6.20508L4.1596 6.86508H6.8146L6.5446 6.20508Z" fill="black"/>
<path d="M20.0479 8.38008C20.1779 8.67008 20.1829 8.95508 20.0629 9.23507C19.9429 9.50508 19.7529 9.75508 19.4929 9.98507C19.2329 10.2151 18.9329 10.4151 18.5929 10.5851C18.2629 10.7551 17.9479 10.8751 17.6479 10.9451C17.3179 11.0151 16.9679 11.0451 16.5979 11.0351C16.2379 11.0351 15.8729 10.9901 15.5029 10.9001C15.1429 10.8201 14.7879 10.7001 14.4379 10.5401C14.0979 10.3701 13.7829 10.1651 13.4929 9.92508C13.1429 9.63508 12.8679 9.29008 12.6679 8.89008C12.4779 8.48008 12.3379 8.04508 12.2479 7.58508C12.1579 7.12508 12.1079 6.66508 12.0979 6.20508C12.0979 5.73508 12.1129 5.29508 12.1429 4.88508C12.1729 4.51508 12.2479 4.13007 12.3679 3.73008C12.4879 3.33008 12.6529 2.94007 12.8629 2.56007C13.0829 2.17007 13.3429 1.81008 13.6429 1.48008C13.9529 1.15008 14.3129 0.870075 14.7229 0.640075C15.0329 0.460075 15.3779 0.340075 15.7579 0.280075C16.1479 0.210075 16.5379 0.195075 16.9279 0.235075C17.3279 0.265075 17.7029 0.350075 18.0529 0.490075C18.4129 0.620075 18.7179 0.800075 18.9679 1.03007C19.1279 1.17007 19.2929 1.36507 19.4629 1.61508C19.6429 1.86507 19.7729 2.12007 19.8529 2.38008C19.9329 2.64007 19.9329 2.88507 19.8529 3.11507C19.7829 3.33508 19.5829 3.48508 19.2529 3.56508C19.1129 3.60508 18.9879 3.61508 18.8779 3.59508C18.7679 3.56508 18.6679 3.52008 18.5779 3.46008C18.4879 3.39008 18.4029 3.31008 18.3229 3.22008C18.2429 3.13007 18.1679 3.04007 18.0979 2.95007C17.8579 2.66008 17.5779 2.46508 17.2579 2.36508C16.9379 2.25507 16.6179 2.23007 16.2979 2.29008C15.9879 2.34008 15.6929 2.47008 15.4129 2.68007C15.1429 2.88008 14.9329 3.14008 14.7829 3.46008C14.6229 3.80008 14.4929 4.17508 14.3929 4.58507C14.3029 4.98507 14.2529 5.39508 14.2429 5.81508C14.2329 6.22508 14.2679 6.62508 14.3479 7.01508C14.4379 7.40508 14.5879 7.75007 14.7979 8.05008C14.9579 8.29008 15.1529 8.48508 15.3829 8.63508C15.6229 8.78508 15.8779 8.89007 16.1479 8.95008C16.4179 9.01008 16.6879 9.02007 16.9579 8.98007C17.2379 8.94007 17.5079 8.85008 17.7679 8.71008C17.8479 8.67008 17.9329 8.61508 18.0229 8.54508C18.1229 8.46508 18.2229 8.38508 18.3229 8.30508C18.4229 8.22508 18.5229 8.15008 18.6229 8.08008C18.7329 8.01008 18.8479 7.96008 18.9679 7.93008C19.1479 7.87008 19.3429 7.87507 19.5529 7.94508C19.7729 8.01508 19.9379 8.16008 20.0479 8.38008Z" fill="black"/>
</svg>
