<svg width="27" height="12" viewBox="0 0 27 12" fill="none" xmlns="http://www.w3.org/2000/svg">
<path d="M8.12407 8.38008C8.25407 8.67008 8.25907 8.95508 8.13907 9.23507C8.01907 9.50508 7.82907 9.75508 7.56907 9.98507C7.30907 10.2151 7.00907 10.4151 6.66907 10.5851C6.33907 10.7551 6.02407 10.8751 5.72407 10.9451C5.39407 11.0151 5.04407 11.0451 4.67407 11.0351C4.31407 11.0351 3.94907 10.9901 3.57907 10.9001C3.21907 10.8201 2.86407 10.7001 2.51407 10.5401C2.17407 10.3701 1.85907 10.1651 1.56907 9.92508C1.21907 9.63508 0.944072 9.29008 0.744072 8.89008C0.554072 8.48008 0.414072 8.04508 0.324072 7.58508C0.234072 7.12508 0.184072 6.66508 0.174072 6.20508C0.174072 5.73508 0.189072 5.29508 0.219072 4.88508C0.249072 4.51508 0.324072 4.13007 0.444072 3.73008C0.564072 3.33008 0.729072 2.94007 0.939072 2.56007C1.15907 2.17007 1.41907 1.81008 1.71907 1.48008C2.02907 1.15008 2.38907 0.870075 2.79907 0.640075C3.10907 0.460075 3.45407 0.340075 3.83407 0.280075C4.22407 0.210075 4.61407 0.195075 5.00407 0.235075C5.40407 0.265075 5.77907 0.350075 6.12907 0.490075C6.48907 0.620075 6.79407 0.800075 7.04407 1.03007C7.20407 1.17007 7.36907 1.36507 7.53907 1.61508C7.71907 1.86507 7.84907 2.12007 7.92907 2.38008C8.00907 2.64007 8.00907 2.88507 7.92907 3.11507C7.85907 3.33508 7.65907 3.48508 7.32907 3.56508C7.18907 3.60508 7.06407 3.61508 6.95407 3.59508C6.84407 3.56508 6.74407 3.52008 6.65407 3.46008C6.56407 3.39008 6.47907 3.31008 6.39907 3.22008C6.31907 3.13007 6.24407 3.04007 6.17407 2.95007C5.93407 2.66008 5.65407 2.46508 5.33407 2.36508C5.01407 2.25507 4.69407 2.23007 4.37407 2.29008C4.06407 2.34008 3.76907 2.47008 3.48907 2.68007C3.21907 2.88008 3.00907 3.14008 2.85907 3.46008C2.69907 3.80008 2.56907 4.17508 2.46907 4.58507C2.37907 4.98507 2.32907 5.39508 2.31907 5.81508C2.30907 6.22508 2.34407 6.62508 2.42407 7.01508C2.51407 7.40508 2.66407 7.75007 2.87407 8.05008C3.03407 8.29008 3.22907 8.48508 3.45907 8.63508C3.69907 8.78508 3.95407 8.89007 4.22407 8.95008C4.49407 9.01008 4.76407 9.02007 5.03407 8.98007C5.31407 8.94007 5.58407 8.85008 5.84407 8.71008C5.92407 8.67008 6.00907 8.61508 6.09907 8.54508C6.19907 8.46508 6.29907 8.38508 6.39907 8.30508C6.49907 8.22508 6.59907 8.15008 6.69907 8.08008C6.80907 8.01008 6.92407 7.96008 7.04407 7.93008C7.22407 7.87008 7.41907 7.87507 7.62907 7.94508C7.84907 8.01508 8.01407 8.16008 8.12407 8.38008Z" fill="black"/>
<path d="M17.9215 10.2401C17.9315 10.3401 17.9215 10.4351 17.8915 10.5251C17.8715 10.5851 17.8415 10.6351 17.8015 10.6751C17.7715 10.7151 17.7315 10.7551 17.6815 10.7951C17.5915 10.8551 17.4815 10.9101 17.3515 10.9601C17.2715 10.9801 17.1915 10.9951 17.1115 11.0051C17.0415 11.0251 16.9665 11.0251 16.8865 11.0051C16.7265 10.9951 16.5865 10.9351 16.4665 10.8251C16.2965 10.6851 16.1565 10.5301 16.0465 10.3601C15.9965 10.2801 15.9415 10.1901 15.8815 10.0901C15.8215 9.99008 15.7665 9.88507 15.7165 9.77507L14.0515 6.61007C13.9715 6.61007 13.8915 6.61508 13.8115 6.62507C13.7315 6.62507 13.6515 6.63007 13.5715 6.64008C13.3615 6.66008 13.1615 6.66508 12.9715 6.65508C12.7915 6.64508 12.6015 6.64508 12.4015 6.65508H12.1165V9.37008C12.1165 9.45008 12.1115 9.52508 12.1015 9.59508C12.1015 9.66508 12.1015 9.74008 12.1015 9.82008C12.1015 9.87008 12.0965 9.93508 12.0865 10.0151C12.0865 10.0951 12.0815 10.1701 12.0715 10.2401C12.0515 10.3501 12.0065 10.4651 11.9365 10.5851C11.8665 10.6951 11.7715 10.7901 11.6515 10.8701C11.4415 11.0001 11.1865 11.0351 10.8865 10.9751C10.7565 10.9451 10.6315 10.8951 10.5115 10.8251C10.4715 10.7951 10.4365 10.7601 10.4065 10.7201C10.3765 10.6701 10.3515 10.6201 10.3315 10.5701C10.3115 10.5201 10.2915 10.4701 10.2715 10.4201C10.2615 10.3601 10.2465 10.3051 10.2265 10.2551C10.1965 10.1551 10.1815 10.0601 10.1815 9.97008V1.45007C10.1815 1.39007 10.1815 1.33007 10.1815 1.27008C10.1915 1.20007 10.2015 1.14007 10.2115 1.09007C10.2215 0.980075 10.2565 0.870075 10.3165 0.760075C10.3465 0.640075 10.3965 0.555075 10.4665 0.505075C10.5265 0.445075 10.6165 0.395075 10.7365 0.355075C10.8665 0.305075 11.0515 0.285075 11.2915 0.295075C11.7415 0.305075 12.1865 0.310075 12.6265 0.310075C13.0665 0.310075 13.5065 0.320075 13.9465 0.340075C14.2365 0.360075 14.5415 0.395075 14.8615 0.445075C15.1915 0.485075 15.4965 0.560075 15.7765 0.670075C15.9565 0.740075 16.1215 0.810075 16.2715 0.880075C16.4615 0.990075 16.6115 1.09508 16.7215 1.19508C17.0715 1.51508 17.3365 1.90007 17.5165 2.35007C17.6965 2.80007 17.7865 3.25507 17.7865 3.71508C17.7865 4.25508 17.6565 4.75008 17.3965 5.20008C17.1465 5.65008 16.7415 5.98508 16.1815 6.20508C16.1615 6.22508 16.1315 6.24008 16.0915 6.25008C16.0615 6.25008 16.0365 6.25508 16.0165 6.26508L17.3965 9.04008L17.5315 9.28008C17.5515 9.32008 17.5765 9.36508 17.6065 9.41508C17.6365 9.46508 17.6615 9.51507 17.6815 9.56507C17.7115 9.61508 17.7365 9.67008 17.7565 9.73008C17.7865 9.79008 17.8165 9.84508 17.8465 9.89508C17.8765 10.0351 17.9015 10.1501 17.9215 10.2401ZM14.1715 4.90008C14.3515 4.90008 14.5215 4.87008 14.6815 4.81008C14.8515 4.74008 15.0015 4.65007 15.1315 4.54007C15.2715 4.43007 15.3865 4.30508 15.4765 4.16508C15.5665 4.01508 15.6165 3.85507 15.6265 3.68507C15.6665 3.18508 15.5365 2.81508 15.2365 2.57508C14.9365 2.32508 14.5415 2.19007 14.0515 2.17008C13.7615 2.15007 13.4415 2.14007 13.0915 2.14007C12.7515 2.14007 12.4265 2.14007 12.1165 2.14007C12.1265 2.55007 12.1265 2.97008 12.1165 3.40008C12.1165 3.82008 12.1165 4.32008 12.1165 4.90008H14.1715Z" fill="black"/>
<path d="M26.8117 9.76008C26.8317 9.81008 26.8417 9.88507 26.8417 9.98507C26.8417 10.0751 26.8417 10.1501 26.8417 10.2101C26.8417 10.2901 26.8267 10.3651 26.7967 10.4351C26.7667 10.5051 26.7267 10.5701 26.6767 10.6301C26.5867 10.7501 26.4567 10.8401 26.2867 10.9001C26.0467 10.9801 25.8217 11.0201 25.6117 11.0201C25.5017 11.0301 25.3867 11.0351 25.2667 11.0351C25.1467 11.0351 25.0267 11.0451 24.9067 11.0651H24.8467C24.0767 11.0751 23.2817 11.0751 22.4617 11.0651C22.2617 11.0551 22.0367 11.0551 21.7867 11.0651C21.5367 11.0851 21.2917 11.0801 21.0517 11.0501C20.8117 11.0301 20.5917 10.9751 20.3917 10.8851C20.2017 10.7851 20.0667 10.6301 19.9867 10.4201C19.9667 10.3701 19.9517 10.3251 19.9417 10.2851C19.9317 10.2351 19.9267 10.1851 19.9267 10.1351C19.8867 9.79508 19.8717 9.46008 19.8817 9.13008C19.8917 8.80008 19.8967 8.47507 19.8967 8.15508L19.9267 5.98008V3.97008C19.9267 3.61007 19.9267 3.29008 19.9267 3.01008C19.9367 2.73008 19.9467 2.42008 19.9567 2.08008V2.00507C19.9667 1.90507 19.9717 1.80507 19.9717 1.70507C19.9817 1.60508 19.9867 1.50508 19.9867 1.40508C20.0067 1.17508 20.0617 0.980075 20.1517 0.820075C20.2117 0.670075 20.3167 0.550075 20.4667 0.460075C20.5967 0.370075 20.7517 0.325075 20.9317 0.325075C21.0017 0.325075 21.0667 0.330075 21.1267 0.340075C21.1967 0.340075 21.2617 0.345075 21.3217 0.355075C21.3817 0.365075 21.4367 0.385075 21.4867 0.415074C21.5467 0.445075 21.6067 0.485075 21.6667 0.535075C21.7267 0.605075 21.7817 0.690075 21.8317 0.790075C21.8717 0.900075 21.8967 1.01007 21.9067 1.12008C21.9167 1.19007 21.9267 1.25507 21.9367 1.31507C21.9467 1.37507 21.9517 1.43508 21.9517 1.49507C21.9317 1.55507 21.9217 1.61507 21.9217 1.67508C21.9217 1.73508 21.9217 1.79007 21.9217 1.84007V2.11007L21.8617 9.17508L24.8317 9.20508H25.5367C25.5967 9.20508 25.6617 9.21008 25.7317 9.22008C25.8017 9.22008 25.8717 9.22507 25.9417 9.23507C26.0217 9.24508 26.0917 9.25508 26.1517 9.26508C26.2117 9.27508 26.2717 9.29008 26.3317 9.31008C26.4417 9.34008 26.5317 9.39008 26.6017 9.46008C26.7117 9.56008 26.7817 9.66008 26.8117 9.76008Z" fill="black"/>
</svg>
