<svg width="43" height="16" viewBox="0 0 43 16" fill="none" xmlns="http://www.w3.org/2000/svg">
<path d="M0.288 12.672C0.288 12.132 0.444 11.682 0.756 11.322C1.08 10.962 1.512 10.68 2.052 10.476C2.592 10.26 3.228 10.11 3.96 10.026C4.692 9.94203 5.472 9.90002 6.3 9.90002C7.128 9.90002 7.908 9.93003 8.64 9.99002C9.372 10.05 10.008 10.182 10.548 10.386C11.088 10.578 11.514 10.854 11.826 11.214C12.15 11.574 12.312 12.06 12.312 12.672C12.312 13.272 12.15 13.752 11.826 14.112C11.514 14.472 11.088 14.748 10.548 14.94C10.008 15.144 9.372 15.276 8.64 15.336C7.908 15.408 7.128 15.444 6.3 15.444C5.472 15.444 4.692 15.408 3.96 15.336C3.228 15.276 2.592 15.144 2.052 14.94C1.512 14.748 1.08 14.472 0.756 14.112C0.444 13.752 0.288 13.272 0.288 12.672ZM7.488 8.08202C7.488 8.20202 7.452 8.32202 7.38 8.44202C7.32 8.56202 7.242 8.67002 7.146 8.76603C7.05 8.85003 6.942 8.92802 6.822 9.00002C6.702 9.06002 6.588 9.09602 6.48 9.10802C6.168 9.15602 5.904 9.16803 5.688 9.14402C5.472 9.12002 5.214 9.10802 4.914 9.10802C4.254 9.10802 3.594 9.10203 2.934 9.09002C2.286 9.07802 1.638 9.06003 0.99 9.03603C0.798 9.02402 0.636 8.95802 0.504 8.83803C0.384 8.70603 0.288 8.55002 0.216 8.37002C0.144 8.19002 0.096 8.00402 0.072 7.81203C0.048 7.60803 0.036 7.42802 0.036 7.27202C0.036 7.02002 0.03 6.73802 0.018 6.42602C0.018 6.11402 0.012 5.79602 0 5.47202C0 5.14802 0 4.83002 0 4.51802C0 4.19402 0.00600001 3.90602 0.018 3.65402C0.03 3.49802 0.03 3.33002 0.018 3.15002C0.018 2.97002 0.024 2.79002 0.036 2.61002C0.048 2.43002 0.066 2.25603 0.09 2.08803C0.126 1.90802 0.18 1.75202 0.252 1.62002C0.336 1.46402 0.456 1.33802 0.612 1.24202C0.768 1.14602 0.93 1.09202 1.098 1.08002C1.266 1.05602 1.428 1.07402 1.584 1.13402C1.752 1.19402 1.884 1.30202 1.98 1.45802C2.172 1.78202 2.268 2.16002 2.268 2.59203C2.28 3.01202 2.28 3.41402 2.268 3.79802H5.454C5.478 3.53402 5.484 3.30002 5.472 3.09602C5.46 2.89202 5.454 2.67602 5.454 2.44802C5.454 2.24402 5.484 2.01602 5.544 1.76402C5.616 1.50002 5.742 1.30802 5.922 1.18802C6.054 1.09202 6.234 1.04402 6.462 1.04402C6.69 1.03202 6.87 1.07402 7.002 1.17002C7.134 1.26602 7.23 1.41002 7.29 1.60202C7.362 1.78202 7.41 1.96802 7.434 2.16002C7.47 2.37602 7.488 2.61002 7.488 2.86202V8.08202ZM11.988 2.55602C11.988 2.54402 11.988 2.61602 11.988 2.77202C11.988 2.92803 11.988 3.11402 11.988 3.33002C11.988 3.53402 11.988 3.73802 11.988 3.94202C11.988 4.14602 11.988 4.29002 11.988 4.37402C12.036 4.37402 12.126 4.38002 12.258 4.39202C12.39 4.39202 12.528 4.39802 12.672 4.41002C12.816 4.41002 12.954 4.41602 13.086 4.42803C13.218 4.44002 13.314 4.45202 13.374 4.46402C13.614 4.51202 13.782 4.58402 13.878 4.68002C13.974 4.76402 14.034 4.87202 14.058 5.00402C14.094 5.13602 14.112 5.29202 14.112 5.47202C14.112 5.64002 14.076 5.78402 14.004 5.90402C13.86 6.14402 13.644 6.28202 13.356 6.31802C13.068 6.34202 12.75 6.36002 12.402 6.37202H11.988V7.79402C11.976 7.92602 11.958 8.06402 11.934 8.20802C11.91 8.34002 11.862 8.47202 11.79 8.60402C11.718 8.74802 11.616 8.86803 11.484 8.96403C11.316 9.08403 11.118 9.14402 10.89 9.14402C10.686 9.14402 10.518 9.10202 10.386 9.01802C10.266 8.94602 10.17 8.85602 10.098 8.74802C10.026 8.64002 9.966 8.53802 9.918 8.44202C9.882 8.33402 9.858 8.24403 9.846 8.17203C9.834 8.08803 9.828 8.04603 9.828 8.04603V2.32202C9.816 2.27402 9.822 2.14202 9.846 1.92603C9.87 1.71002 9.918 1.53002 9.99 1.38602C10.11 1.13402 10.35 0.990025 10.71 0.954025C11.154 0.894025 11.484 0.984025 11.7 1.22402C11.772 1.32002 11.82 1.41602 11.844 1.51202C11.88 1.59602 11.91 1.68602 11.934 1.78202C11.97 1.90202 11.988 2.02802 11.988 2.16002C12 2.29202 12 2.42402 11.988 2.55602ZM9.882 12.672C9.882 12.468 9.774 12.306 9.558 12.186C9.342 12.066 9.06 11.976 8.712 11.916C8.376 11.856 7.992 11.82 7.56 11.808C7.14 11.784 6.72 11.772 6.3 11.772C5.88 11.772 5.46 11.784 5.04 11.808C4.632 11.82 4.26 11.856 3.924 11.916C3.6 11.976 3.336 12.066 3.132 12.186C2.928 12.306 2.826 12.468 2.826 12.672C2.826 12.852 2.928 13.002 3.132 13.122C3.336 13.242 3.6 13.332 3.924 13.392C4.26 13.452 4.632 13.494 5.04 13.518C5.46 13.542 5.88 13.554 6.3 13.554C6.72 13.554 7.14 13.554 7.56 13.554C7.992 13.554 8.376 13.53 8.712 13.482C9.06 13.434 9.342 13.35 9.558 13.23C9.774 13.098 9.882 12.912 9.882 12.672ZM5.454 6.91202C5.454 6.87602 5.448 6.84002 5.436 6.80403C5.436 6.75603 5.442 6.70202 5.454 6.64202C5.478 6.47402 5.49 6.33002 5.49 6.21002C5.49 6.07802 5.478 5.92803 5.454 5.76003V5.45402H3.636C3.444 5.44203 3.264 5.43003 3.096 5.41803C2.952 5.40602 2.796 5.40602 2.628 5.41803C2.472 5.41803 2.34 5.43003 2.232 5.45402C2.208 5.65802 2.202 5.86202 2.214 6.06602C2.238 6.25802 2.256 6.45602 2.268 6.66002C2.268 6.79202 2.274 6.88202 2.286 6.93003C2.298 6.97802 2.37 7.00802 2.502 7.02002C2.634 7.03202 2.766 7.03802 2.898 7.03802C3.042 7.02602 3.18 7.02002 3.312 7.02002H5.454V6.91202Z" fill="black"/>
<path d="M16.3454 6.21002C16.3094 6.21002 16.2914 6.19802 16.2914 6.17402C16.1714 6.07802 16.0874 5.94002 16.0394 5.76003C16.0034 5.56802 15.9854 5.40602 15.9854 5.27402C15.9734 5.05802 15.9554 4.84202 15.9314 4.62602C15.9194 4.41002 15.9134 4.20002 15.9134 3.99602C15.9134 3.68402 15.9134 3.36002 15.9134 3.02402C15.9134 2.67602 15.9434 2.35202 16.0034 2.05202C16.0394 1.86002 16.0994 1.71002 16.1834 1.60202C16.2674 1.48202 16.3994 1.38602 16.5794 1.31402C16.7474 1.25402 16.9154 1.21202 17.0834 1.18802C17.2514 1.16402 17.4194 1.14002 17.5874 1.11602C17.7914 1.09202 18.0014 1.08602 18.2174 1.09802C18.4334 1.11002 18.6494 1.11602 18.8654 1.11602H22.2854C22.5854 1.11602 22.8134 1.11602 22.9694 1.11602C23.1374 1.11602 23.2874 1.11602 23.4194 1.11602C23.5514 1.11602 23.6954 1.11602 23.8514 1.11602C24.0194 1.10402 24.2534 1.09802 24.5534 1.09802C24.6614 1.09802 24.7634 1.09802 24.8594 1.09802C24.9674 1.09802 25.0754 1.10402 25.1834 1.11602C25.4114 1.12802 25.6454 1.14602 25.8854 1.17002C26.1254 1.19402 26.3474 1.25402 26.5514 1.35002C26.7914 1.44602 26.9534 1.60802 27.0374 1.83602C27.1214 2.05202 27.1694 2.28002 27.1814 2.52002C27.2054 2.79602 27.2054 3.09002 27.1814 3.40202C27.1694 3.71402 27.1634 4.00802 27.1634 4.28402C27.1514 4.52402 27.1394 4.76402 27.1274 5.00402C27.1274 5.24402 27.0974 5.48402 27.0374 5.72402C27.0014 5.85602 26.9594 5.97602 26.9114 6.08402C26.8634 6.18002 26.7674 6.25202 26.6234 6.30002C26.4914 6.34802 26.3534 6.37803 26.2094 6.39003C26.0654 6.40203 25.9274 6.40802 25.7954 6.40802H18.0194C17.8994 6.40802 17.7794 6.40802 17.6594 6.40802C17.5514 6.39602 17.4374 6.38402 17.3174 6.37202C17.1614 6.36002 16.9934 6.35402 16.8134 6.35402C16.6334 6.35402 16.4774 6.30602 16.3454 6.21002ZM26.3354 9.64802C25.7354 9.67202 25.1834 9.69002 24.6794 9.70202C24.1754 9.71402 23.6174 9.72003 23.0054 9.72003C22.9934 9.97202 22.9814 10.224 22.9694 10.476C22.9574 10.728 22.9514 11.028 22.9514 11.376C22.9274 11.508 22.8674 11.622 22.7714 11.718C22.6874 11.814 22.5854 11.898 22.4654 11.97C22.3454 12.042 22.2134 12.096 22.0694 12.132C21.9374 12.156 21.8114 12.168 21.6914 12.168C21.3314 12.144 21.0494 12.054 20.8454 11.898C20.6534 11.742 20.5394 11.484 20.5034 11.124C20.4794 10.884 20.4734 10.644 20.4854 10.404C20.5094 10.164 20.5214 9.92402 20.5214 9.68402C20.2454 9.68402 19.8794 9.68402 19.4234 9.68402C18.9674 9.67202 18.4934 9.66603 18.0014 9.66603C17.5094 9.65403 17.0354 9.64202 16.5794 9.63002C16.1354 9.61802 15.7874 9.60003 15.5354 9.57603C15.3434 9.55202 15.1874 9.52803 15.0674 9.50403C14.9594 9.46803 14.8274 9.37803 14.6714 9.23403C14.5874 9.16203 14.5274 9.06602 14.4914 8.94602C14.4554 8.82603 14.4374 8.70002 14.4374 8.56802C14.4374 8.31602 14.5154 8.11202 14.6714 7.95602C14.7554 7.86002 14.8694 7.78802 15.0134 7.74002C15.1574 7.69202 15.2954 7.65602 15.4274 7.63203C15.5594 7.60803 15.6734 7.59602 15.7694 7.59602C15.8774 7.59602 15.9374 7.59602 15.9494 7.59602H26.2454C26.4254 7.59602 26.6054 7.59602 26.7854 7.59602C26.9654 7.59602 27.1394 7.60203 27.3074 7.61402C27.4754 7.62602 27.6374 7.65002 27.7934 7.68602C27.9614 7.72202 28.1114 7.80002 28.2434 7.92002C28.3754 8.01602 28.4474 8.12402 28.4594 8.24402C28.4834 8.36403 28.4954 8.49603 28.4954 8.64003C28.4954 8.82002 28.4414 8.98203 28.3334 9.12603C28.2374 9.27003 28.0994 9.37202 27.9194 9.43202C27.6794 9.52802 27.4154 9.58802 27.1274 9.61202C26.8514 9.62402 26.5874 9.63602 26.3354 9.64802ZM26.8394 13.05C26.8514 13.05 26.8934 13.062 26.9654 13.086C27.0374 13.11 27.1154 13.152 27.1994 13.212C27.2954 13.26 27.3794 13.332 27.4514 13.428C27.5354 13.512 27.5894 13.614 27.6134 13.734C27.6854 14.19 27.6134 14.544 27.3974 14.796C27.2654 14.964 27.1214 15.066 26.9654 15.102C26.8094 15.138 26.7254 15.156 26.7134 15.156H16.8854C16.4294 15.156 16.0694 15.078 15.8054 14.922C15.5414 14.778 15.4094 14.568 15.4094 14.292V12.69C15.3854 12.426 15.3854 12.156 15.4094 11.88C15.4334 11.628 15.5294 11.424 15.6974 11.268C15.8654 11.112 16.0754 11.034 16.3274 11.034C16.3874 11.034 16.4654 11.04 16.5614 11.052C16.6694 11.052 16.7534 11.064 16.8134 11.088C16.9694 11.136 17.0894 11.208 17.1734 11.304C17.2574 11.4 17.3234 11.514 17.3714 11.646C17.4194 11.766 17.4494 11.898 17.4614 12.042C17.4734 12.174 17.4854 12.306 17.4974 12.438C17.4974 12.534 17.5034 12.636 17.5154 12.744C17.5274 12.84 17.5454 12.93 17.5694 13.014C17.5934 13.026 17.7014 13.044 17.8934 13.068C18.0974 13.08 18.4094 13.086 18.8294 13.086C19.1894 13.086 19.5074 13.08 19.7834 13.068C20.0714 13.056 20.2214 13.05 20.2334 13.05H26.8394ZM18.0554 4.10402C18.0554 4.16402 18.0554 4.22402 18.0554 4.28402C18.0674 4.33202 18.0854 4.36802 18.1094 4.39202C18.1334 4.41602 18.1754 4.43402 18.2354 4.44602C18.2954 4.44602 18.3554 4.44602 18.4154 4.44602C18.4754 4.44602 18.5474 4.44002 18.6314 4.42803H23.3654C23.5334 4.44002 23.6954 4.45202 23.8514 4.46402C23.9834 4.47602 24.1214 4.48202 24.2654 4.48202C24.4214 4.48202 24.5534 4.47002 24.6614 4.44602C24.7934 4.43402 24.8654 4.40402 24.8774 4.35602C24.9014 4.29602 24.9254 4.21202 24.9494 4.10402C24.9614 4.00802 24.9674 3.87602 24.9674 3.70802C24.9674 3.54002 24.9314 3.40802 24.8594 3.31202C24.7754 3.21602 24.6554 3.16803 24.4994 3.16803C24.3434 3.15602 24.2114 3.15602 24.1034 3.16803H22.4654C22.4294 3.16803 22.2854 3.16803 22.0334 3.16803C21.7814 3.16803 21.5054 3.16803 21.2054 3.16803C20.9174 3.16803 20.6474 3.16803 20.3954 3.16803C20.1434 3.16803 19.9994 3.16803 19.9634 3.16803C19.7114 3.14402 19.4594 3.13802 19.2074 3.15002C18.9554 3.15002 18.6974 3.15602 18.4334 3.16803C18.3254 3.16803 18.2474 3.17403 18.1994 3.18602C18.1514 3.18602 18.1154 3.24002 18.0914 3.34802C18.0674 3.43202 18.0554 3.53402 18.0554 3.65402C18.0554 3.77402 18.0554 3.87002 18.0554 3.94202V4.10402Z" fill="black"/>
<path d="M41.7306 14.112C41.9226 14.124 42.0906 14.172 42.2346 14.256C42.3786 14.328 42.4806 14.46 42.5406 14.652C42.6726 15.096 42.5166 15.396 42.0726 15.552C41.9286 15.612 41.7786 15.648 41.6226 15.66C41.4786 15.672 41.3466 15.678 41.2266 15.678H33.2166C32.9766 15.678 32.7246 15.678 32.4606 15.678C32.1966 15.678 31.9326 15.672 31.6686 15.66C31.3446 15.648 31.1166 15.546 30.9846 15.354C30.8646 15.162 30.7926 14.928 30.7686 14.652L30.6966 13.41C30.6966 13.338 30.6966 13.254 30.6966 13.158C30.6966 13.05 30.7026 12.942 30.7146 12.834C30.7266 12.714 30.7446 12.606 30.7686 12.51C30.7926 12.402 30.8346 12.318 30.8946 12.258C31.0626 12.09 31.2546 11.982 31.4706 11.934C31.6866 11.886 31.9266 11.862 32.1906 11.862H32.7486C32.8086 11.862 32.8566 11.868 32.8926 11.88C32.9286 11.88 32.9646 11.88 33.0006 11.88H40.4886V11.16H32.8206C32.7606 11.16 32.6946 11.16 32.6226 11.16C32.5626 11.148 32.4966 11.148 32.4246 11.16H31.9926C31.8726 11.16 31.7646 11.16 31.6686 11.16C31.5726 11.16 31.4766 11.148 31.3806 11.124C31.2726 11.1 31.1706 11.076 31.0746 11.052C30.9906 11.028 30.9186 10.968 30.8586 10.872C30.7026 10.596 30.6666 10.32 30.7506 10.044C30.7866 9.94802 30.8406 9.87603 30.9126 9.82802C30.9846 9.76802 31.0686 9.72003 31.1646 9.68402C31.2606 9.64802 31.3506 9.62402 31.4346 9.61202C31.5306 9.58802 31.6146 9.57003 31.6866 9.55803C31.7826 9.54603 31.8726 9.54002 31.9566 9.54002C32.0526 9.52802 32.1486 9.52203 32.2446 9.52203H32.5506C32.6106 9.53403 32.6646 9.54002 32.7126 9.54002C32.7726 9.54002 32.8326 9.54002 32.8926 9.54002H40.6686C41.2806 9.54002 41.7486 9.63603 42.0726 9.82802C42.3966 10.008 42.5586 10.308 42.5586 10.728V12.384C42.5586 12.552 42.5166 12.708 42.4326 12.852C42.3606 12.984 42.2286 13.11 42.0366 13.23C41.8806 13.326 41.7246 13.38 41.5686 13.392C41.4126 13.392 41.2566 13.392 41.1006 13.392H32.9106V14.112H41.7306ZM34.0086 0.918024C35.2326 1.00202 36.1626 1.39202 36.7986 2.08803C37.4466 2.78402 37.7286 3.77402 37.6446 5.05802C37.5606 6.13802 37.2246 6.97202 36.6366 7.56002C36.0606 8.14802 35.1966 8.44202 34.0446 8.44202C33.8286 8.44202 33.6006 8.44202 33.3606 8.44202C33.1206 8.44202 32.8746 8.43003 32.6226 8.40602C32.3826 8.37003 32.1306 8.31003 31.8666 8.22603C31.6026 8.14202 31.3326 8.01602 31.0566 7.84802C30.7926 7.68003 30.5706 7.47603 30.3906 7.23602C30.2226 6.99602 30.0846 6.73802 29.9766 6.46202C29.8686 6.17402 29.7906 5.88002 29.7426 5.58003C29.7066 5.28002 29.6886 4.98602 29.6886 4.69802C29.6886 4.05002 29.7966 3.48002 30.0126 2.98802C30.2286 2.49602 30.5286 2.08802 30.9126 1.76402C31.2966 1.44002 31.7526 1.20602 32.2806 1.06202C32.8086 0.918025 33.3846 0.870025 34.0086 0.918024ZM42.5766 7.63203C42.5766 7.63203 42.5706 7.67403 42.5586 7.75803C42.5466 7.84203 42.5226 7.93803 42.4866 8.04603C42.4506 8.15403 42.3966 8.26802 42.3246 8.38802C42.2526 8.49603 42.1566 8.58603 42.0366 8.65802C41.8686 8.75402 41.7006 8.80202 41.5326 8.80202C41.3286 8.80202 41.1306 8.73602 40.9386 8.60402C40.8066 8.50803 40.7046 8.38203 40.6326 8.22603C40.5366 8.04602 40.4706 7.84802 40.4346 7.63203C40.4106 7.41603 40.3926 7.19403 40.3806 6.96602C40.3806 6.73802 40.3866 6.51602 40.3986 6.30002C40.4106 6.07202 40.4166 5.85602 40.4166 5.65202C40.4166 5.40002 40.4166 5.16602 40.4166 4.95002C40.4286 4.72202 40.4346 4.50602 40.4346 4.30202C40.4346 4.08602 40.4346 3.87002 40.4346 3.65402C40.4346 3.43802 40.4346 3.20402 40.4346 2.95202V2.71802C40.4226 2.58602 40.4166 2.44802 40.4166 2.30402C40.4286 2.14802 40.4526 2.00402 40.4886 1.87202C40.5366 1.69202 40.6446 1.50002 40.8126 1.29602C40.9086 1.17602 41.0406 1.09202 41.2086 1.04402C41.3886 0.984025 41.5806 0.966025 41.7846 0.990024C42.1446 1.05002 42.3846 1.20602 42.5046 1.45802C42.5766 1.61402 42.6066 1.80602 42.5946 2.03402C42.5946 2.26202 42.5886 2.40002 42.5766 2.44802V7.63203ZM35.5746 5.13002C35.6346 4.69802 35.5626 4.29602 35.3586 3.92403C35.1666 3.55202 34.8786 3.30002 34.4946 3.16803C34.2426 3.08402 33.9666 3.04202 33.6666 3.04202C33.3666 3.04202 33.0786 3.09602 32.8026 3.20402C32.5386 3.30002 32.3046 3.45602 32.1006 3.67202C31.9086 3.87602 31.7886 4.14602 31.7406 4.48202C31.7046 4.71002 31.7046 4.94402 31.7406 5.18402C31.7766 5.41202 31.8546 5.62202 31.9746 5.81402C32.1066 5.99402 32.2866 6.15002 32.5146 6.28202C32.7426 6.41402 33.0306 6.49802 33.3786 6.53402C33.6186 6.55802 33.8526 6.55802 34.0806 6.53402C34.3206 6.51002 34.5366 6.45002 34.7286 6.35402C34.9326 6.25802 35.1066 6.12602 35.2506 5.95802C35.3946 5.77802 35.4966 5.55002 35.5566 5.27402L35.5746 5.13002Z" fill="black"/>
</svg>
