<svg width="18" height="10" viewBox="0 0 18 10" fill="none" xmlns="http://www.w3.org/2000/svg">
<path d="M3.744 7.78802C4.072 7.78802 4.348 7.74002 4.572 7.64402C4.804 7.54803 5 7.44002 5.16 7.32002C5.32 7.20002 5.46 7.09202 5.58 6.99602C5.708 6.90002 5.836 6.85202 5.964 6.85202C6.124 6.85202 6.204 6.97202 6.204 7.21202C6.204 7.34002 6.188 7.49602 6.156 7.68002C6.124 7.85602 6.08 8.05602 6.024 8.28002C5.992 8.41602 5.912 8.56402 5.784 8.72402C5.664 8.88402 5.496 9.03603 5.28 9.18003C5.064 9.31602 4.796 9.43202 4.476 9.52802C4.164 9.61602 3.804 9.66002 3.396 9.66002C2.988 9.66002 2.58 9.60002 2.172 9.48002C1.764 9.36002 1.4 9.15602 1.08 8.86802C0.76 8.58002 0.5 8.19202 0.3 7.70402C0.1 7.21602 0 6.60402 0 5.86802C0 5.60402 0.016 5.30002 0.048 4.95602C0.088 4.60402 0.16 4.24402 0.264 3.87602C0.368 3.50802 0.512 3.14802 0.696 2.79602C0.888 2.43602 1.132 2.11602 1.428 1.83602C1.724 1.55602 2.084 1.33202 2.508 1.16402C2.94 0.988024 3.452 0.900024 4.044 0.900024C4.516 0.900024 4.924 0.956024 5.268 1.06802C5.62 1.18002 5.908 1.33602 6.132 1.53602C6.364 1.72802 6.532 1.95602 6.636 2.22002C6.748 2.48402 6.804 2.76402 6.804 3.06002C6.804 3.57202 6.652 3.94802 6.348 4.18802C6.052 4.42002 5.628 4.53602 5.076 4.53602C4.9 4.53602 4.788 4.52402 4.74 4.50002C4.7 4.46802 4.68 4.40802 4.68 4.32002C4.672 4.04802 4.664 3.81202 4.656 3.61202C4.648 3.41202 4.62 3.24802 4.572 3.12002C4.524 2.98402 4.448 2.88802 4.344 2.83202C4.248 2.76802 4.112 2.73602 3.936 2.73602C3.68 2.73602 3.46 2.79202 3.276 2.90402C3.1 3.00802 2.948 3.14802 2.82 3.32402C2.7 3.49202 2.6 3.68402 2.52 3.90002C2.448 4.11602 2.388 4.33602 2.34 4.56002C2.3 4.78402 2.272 5.00002 2.256 5.20802C2.248 5.41602 2.244 5.59602 2.244 5.74802C2.244 6.48402 2.364 7.00802 2.604 7.32002C2.852 7.63202 3.232 7.78802 3.744 7.78802Z" fill="black"/>
<path d="M15.1583 3.14402C15.0943 3.33602 15.0103 3.58802 14.9062 3.90002C14.8102 4.20402 14.7023 4.54002 14.5823 4.90802C14.4623 5.27602 14.3383 5.66802 14.2102 6.08402C14.0823 6.49202 13.9503 6.89202 13.8142 7.28402C13.6863 7.67602 13.5583 8.05202 13.4303 8.41202C13.3022 8.76402 13.1863 9.07202 13.0823 9.33602C13.0503 9.40002 12.9823 9.45202 12.8783 9.49202C12.7822 9.52402 12.6263 9.54002 12.4103 9.54002C12.2743 9.54002 12.1343 9.53202 11.9903 9.51602C11.8463 9.50002 11.7103 9.46803 11.5823 9.42002C11.4623 9.37202 11.3542 9.30802 11.2583 9.22802C11.1702 9.14802 11.1023 9.04802 11.0543 8.92802C10.9343 8.52002 10.8183 8.06802 10.7063 7.57202C10.6023 7.06802 10.4983 6.55602 10.3942 6.03602C10.2902 5.51602 10.1863 5.00802 10.0823 4.51202C9.98625 4.00802 9.88625 3.55202 9.78225 3.14402C9.78225 3.25602 9.77825 3.44802 9.77025 3.72002C9.76225 3.99202 9.75425 4.30802 9.74625 4.66802C9.73825 5.02802 9.72625 5.41602 9.71025 5.83202C9.70225 6.24802 9.69425 6.65602 9.68625 7.05602C9.67825 7.44802 9.67025 7.81602 9.66225 8.16002C9.65425 8.49602 9.65025 8.77202 9.65025 8.98802C9.65025 9.22802 9.63425 9.38002 9.60225 9.44403C9.57825 9.50803 9.53025 9.54002 9.45825 9.54002H8.79825C8.34225 9.54002 8.01825 9.45202 7.82625 9.27602C7.64225 9.09202 7.55025 8.82403 7.55025 8.47202C7.55025 8.37602 7.55425 8.21602 7.56225 7.99202C7.57825 7.76002 7.59825 7.48802 7.62225 7.17602C7.64625 6.86402 7.67025 6.52402 7.69425 6.15602C7.72625 5.78002 7.75825 5.40002 7.79025 5.01602C7.83025 4.49602 7.86225 4.06402 7.88625 3.72002C7.91825 3.36802 7.94225 3.07602 7.95825 2.84402C7.97425 2.61202 7.98625 2.42402 7.99425 2.28002C8.01025 2.13602 8.01825 2.00802 8.01825 1.89602C8.02625 1.78402 8.03025 1.68002 8.03025 1.58402C8.03825 1.48002 8.04225 1.35202 8.04225 1.20002C8.04225 1.13602 8.06625 1.09202 8.11425 1.06802C8.16225 1.03602 8.20625 1.02002 8.24625 1.02002H9.92625C10.2383 1.02002 10.4943 1.07202 10.6943 1.17602C10.8942 1.27202 11.0583 1.42402 11.1862 1.63202C11.3142 1.84002 11.4183 2.11202 11.4983 2.44802C11.5782 2.77602 11.6503 3.16802 11.7143 3.62402C11.7863 4.08002 11.8623 4.60802 11.9423 5.20802C12.0303 5.80002 12.1423 6.46802 12.2783 7.21202C12.4063 6.71602 12.5142 6.30402 12.6023 5.97602C12.6903 5.64802 12.7622 5.37602 12.8182 5.16002C12.8822 4.93602 12.9342 4.75202 12.9742 4.60802C13.0142 4.46402 13.0503 4.33202 13.0823 4.21202C13.1143 4.08402 13.1503 3.94802 13.1903 3.80402C13.2303 3.66002 13.2782 3.48002 13.3343 3.26402C13.3903 3.04802 13.4583 2.78002 13.5382 2.46002C13.6263 2.13202 13.7343 1.72002 13.8623 1.22402C13.8783 1.17602 13.9063 1.13202 13.9463 1.09202C13.9863 1.04402 14.0583 1.02002 14.1623 1.02002H16.0343C16.2903 1.02002 16.4942 1.04802 16.6462 1.10402C16.8062 1.15202 16.9303 1.22402 17.0182 1.32002C17.1062 1.41602 17.1663 1.53602 17.1982 1.68002C17.2302 1.81602 17.2463 1.97602 17.2463 2.16002C17.2463 2.34402 17.2343 2.64402 17.2103 3.06002C17.1943 3.46802 17.1663 3.93202 17.1263 4.45202C17.0943 4.96402 17.0583 5.49602 17.0182 6.04802C16.9862 6.60002 16.9502 7.11202 16.9102 7.58402C16.8783 8.05603 16.8503 8.45602 16.8263 8.78402C16.8022 9.11202 16.7862 9.30402 16.7782 9.36002C16.7703 9.42402 16.7543 9.47202 16.7303 9.50402C16.7063 9.52802 16.6583 9.54002 16.5863 9.54002H15.9263C15.4703 9.54002 15.1462 9.45202 14.9543 9.27602C14.7703 9.09202 14.6783 8.85602 14.6783 8.56802C14.6783 8.48002 14.6863 8.32002 14.7023 8.08802C14.7263 7.85602 14.7542 7.58402 14.7863 7.27202C14.8183 6.96002 14.8543 6.62002 14.8943 6.25202C14.9343 5.87602 14.9703 5.50402 15.0023 5.13602C15.0343 4.76802 15.0623 4.41202 15.0863 4.06802C15.1182 3.71602 15.1423 3.40802 15.1583 3.14402Z" fill="black"/>
</svg>
