<svg width="17" height="12" viewBox="0 0 17 12" fill="none" xmlns="http://www.w3.org/2000/svg">
<path d="M7.5708 0.72999C7.6608 0.84999 7.7158 0.98999 7.7358 1.14999C7.7358 1.20999 7.7308 1.26999 7.7208 1.32999C7.7208 1.37999 7.7158 1.42999 7.7058 1.47999C7.6958 1.58999 7.6308 1.69499 7.5108 1.79499C7.4408 1.84499 7.3508 1.89499 7.2408 1.94499C7.1808 1.96499 7.1158 1.97999 7.0458 1.98999C6.9858 1.98999 6.9158 1.99499 6.8358 2.00499C6.7758 2.02499 6.7108 2.03499 6.6408 2.03499C6.5708 2.03499 6.5008 2.03499 6.4308 2.03499H5.7558L2.6208 2.04999V2.09499L2.6058 4.53999C2.6858 4.53999 2.7708 4.53999 2.8608 4.53999C2.9608 4.53999 3.0808 4.53499 3.2208 4.52499C3.6208 4.52499 3.9758 4.52499 4.2858 4.52499C4.6058 4.52499 4.9558 4.52999 5.3358 4.53999H5.4258C5.5358 4.53999 5.6458 4.54499 5.7558 4.55499C5.8758 4.55499 5.9958 4.55499 6.1158 4.55499C6.2258 4.56499 6.3358 4.57999 6.4458 4.59999C6.5558 4.60999 6.6658 4.63499 6.7758 4.67499C6.9558 4.73499 7.0858 4.82999 7.1658 4.95999C7.2758 5.08999 7.3308 5.22499 7.3308 5.36499C7.3308 5.42499 7.3308 5.48499 7.3308 5.54499C7.3308 5.59499 7.3208 5.64999 7.3008 5.70999C7.2908 5.78999 7.2258 5.88999 7.1058 6.00999C7.0258 6.07999 6.9308 6.12499 6.8208 6.14499C6.7708 6.16499 6.7108 6.18499 6.6408 6.20499C6.5808 6.21499 6.5158 6.22499 6.4458 6.23499C6.3758 6.24499 6.3058 6.25499 6.2358 6.26499C6.1758 6.26499 6.1058 6.26499 6.0258 6.26499H5.3358L2.5758 6.27999L2.5308 9.75999V9.87999C2.5308 9.92999 2.5258 9.97999 2.5158 10.03C2.5158 10.07 2.5108 10.115 2.5008 10.165C2.4808 10.215 2.4608 10.27 2.4408 10.33C2.4308 10.38 2.4158 10.43 2.3958 10.48C2.3258 10.62 2.2608 10.715 2.2008 10.765C2.0908 10.845 1.9558 10.9 1.7958 10.93C1.5258 10.99 1.2708 10.96 1.0308 10.84C0.980803 10.81 0.930803 10.775 0.880803 10.735C0.840803 10.685 0.805803 10.625 0.775803 10.555C0.755803 10.515 0.745803 10.485 0.745803 10.465L0.700803 10.375C0.670803 10.325 0.650803 10.275 0.640803 10.225C0.630803 10.165 0.620803 10.11 0.610803 10.06C0.610803 10.01 0.605803 9.95999 0.595803 9.90999C0.595803 9.85999 0.590803 9.80999 0.580803 9.75999C0.570803 9.67999 0.570803 9.59999 0.580803 9.51999V9.27999L0.595803 8.10999L0.610803 5.94999C0.620803 5.62999 0.625803 5.30499 0.625803 4.97499C0.625803 4.64499 0.625803 4.30499 0.625803 3.95499C0.615803 3.59499 0.610803 3.27499 0.610803 2.99499C0.620803 2.71499 0.635803 2.40999 0.655803 2.07999V2.00499C0.665803 1.89499 0.670803 1.79499 0.670803 1.70499C0.670803 1.60499 0.680803 1.50499 0.700803 1.40499C0.720803 1.18499 0.770803 0.98999 0.850803 0.81999C0.920803 0.64999 1.0208 0.52999 1.1508 0.45999C1.3008 0.36999 1.4608 0.32499 1.6308 0.32499C1.7108 0.32499 1.7758 0.32999 1.8258 0.33999V0.32499C2.0058 0.32499 2.1508 0.32499 2.2608 0.32499C2.3708 0.32499 2.4758 0.32499 2.5758 0.32499C2.6758 0.32499 2.7858 0.32499 2.9058 0.32499C3.0258 0.31499 3.1858 0.30999 3.3858 0.30999C4.1858 0.29999 4.9758 0.29999 5.7558 0.30999H5.8308C5.9408 0.31999 6.0508 0.32499 6.1608 0.32499C6.2808 0.32499 6.4008 0.32999 6.5208 0.33999C6.6308 0.33999 6.7408 0.35499 6.8508 0.38499C6.9608 0.40499 7.0708 0.43499 7.1808 0.47499C7.3508 0.52499 7.4808 0.60999 7.5708 0.72999Z" fill="black"/>
<path d="M16.405 9.75999C16.425 9.80999 16.435 9.88499 16.435 9.98499C16.435 10.075 16.435 10.15 16.435 10.21C16.435 10.29 16.42 10.365 16.39 10.435C16.36 10.505 16.32 10.57 16.27 10.63C16.18 10.75 16.05 10.84 15.88 10.9C15.64 10.98 15.415 11.02 15.205 11.02C15.095 11.03 14.98 11.035 14.86 11.035C14.74 11.035 14.62 11.045 14.5 11.065H14.44C13.67 11.075 12.875 11.075 12.055 11.065C11.855 11.055 11.63 11.055 11.38 11.065C11.13 11.085 10.885 11.08 10.645 11.05C10.405 11.03 10.185 10.975 9.98498 10.885C9.79498 10.785 9.65998 10.63 9.57998 10.42C9.55998 10.37 9.54498 10.325 9.53498 10.285C9.52498 10.235 9.51998 10.185 9.51998 10.135C9.47998 9.79499 9.46498 9.45999 9.47498 9.12999C9.48498 8.79999 9.48998 8.47499 9.48998 8.15499L9.51998 5.97999V3.96999C9.51998 3.60999 9.51998 3.28999 9.51998 3.00999C9.52998 2.72999 9.53998 2.41999 9.54998 2.07999V2.00499C9.55998 1.90499 9.56498 1.80499 9.56498 1.70499C9.57498 1.60499 9.57998 1.50499 9.57998 1.40499C9.59998 1.17499 9.65498 0.97999 9.74498 0.81999C9.80498 0.66999 9.90998 0.54999 10.06 0.45999C10.19 0.36999 10.345 0.32499 10.525 0.32499C10.595 0.32499 10.66 0.32999 10.72 0.33999C10.79 0.33999 10.855 0.34499 10.915 0.35499C10.975 0.36499 11.03 0.38499 11.08 0.41499C11.14 0.44499 11.2 0.48499 11.26 0.53499C11.32 0.60499 11.375 0.68999 11.425 0.78999C11.465 0.89999 11.49 1.00999 11.5 1.11999C11.51 1.18999 11.52 1.25499 11.53 1.31499C11.54 1.37499 11.545 1.43499 11.545 1.49499C11.525 1.55499 11.515 1.61499 11.515 1.67499C11.515 1.73499 11.515 1.78999 11.515 1.83999V2.10999L11.455 9.17499L14.425 9.20499H15.13C15.19 9.20499 15.255 9.20999 15.325 9.21999C15.395 9.21999 15.465 9.22499 15.535 9.23499C15.615 9.24499 15.685 9.25499 15.745 9.26499C15.805 9.27499 15.865 9.28999 15.925 9.30999C16.035 9.33999 16.125 9.38999 16.195 9.45999C16.305 9.55999 16.375 9.65999 16.405 9.75999Z" fill="black"/>
</svg>
