<svg width="175" height="24" viewBox="0 0 175 24" fill="none" xmlns="http://www.w3.org/2000/svg">
<path d="M15.9 15.125C16.0667 14.2417 16.2167 13.475 16.35 12.825C16.4833 12.1583 16.6 11.5417 16.7 10.975C16.8 10.4083 16.8917 9.85 16.975 9.3C17.075 8.73333 17.175 8.10833 17.275 7.425C17.3917 6.725 17.5167 5.93333 17.65 5.05C17.8 4.15 17.975 3.075 18.175 1.825C18.225 1.50833 18.3083 1.30833 18.425 1.225C18.5417 1.125 18.8333 1.075 19.3 1.075C19.4833 1.075 19.7583 1.09167 20.125 1.125C20.4917 1.14167 20.8583 1.21667 21.225 1.35C21.5917 1.46667 21.9083 1.65833 22.175 1.925C22.4583 2.175 22.6 2.53333 22.6 3C22.6 3.26667 22.55 3.68333 22.45 4.25C22.35 4.8 22.2083 5.44167 22.025 6.175C21.8583 6.89167 21.6583 7.675 21.425 8.525C21.2083 9.375 20.9833 10.2333 20.75 11.1C20.5167 11.9667 20.275 12.8083 20.025 13.625C19.7917 14.4417 19.5667 15.1833 19.35 15.85C19.15 16.5 18.9667 17.05 18.8 17.5C18.6333 17.95 18.5167 18.2417 18.45 18.375C18.35 18.5583 18.2083 18.6833 18.025 18.75C17.8417 18.8167 17.6583 18.85 17.475 18.85H15.1C14.6667 18.85 14.3 18.7667 14 18.6C13.7167 18.4333 13.475 18.2167 13.275 17.95C13.0917 17.6833 12.9417 17.3833 12.825 17.05C12.725 16.7167 12.6583 16.375 12.625 16.025L11.375 4.8C11.275 5.53333 11.1583 6.35833 11.025 7.275C10.9083 8.19167 10.775 9.125 10.625 10.075C10.4917 11.025 10.3583 11.9583 10.225 12.875C10.0917 13.7917 9.95833 14.6333 9.825 15.4C9.69167 16.15 9.56667 16.7917 9.45 17.325C9.33333 17.8583 9.23333 18.2083 9.15 18.375C9.06667 18.5583 8.93333 18.6833 8.75 18.75C8.56667 18.8167 8.375 18.85 8.175 18.85H5.8C5.38333 18.85 5.03333 18.775 4.75 18.625C4.48333 18.4583 4.25833 18.2417 4.075 17.975C3.89167 17.7083 3.74167 17.4083 3.625 17.075C3.50833 16.725 3.40833 16.375 3.325 16.025C2.64167 13.3083 2.08333 11.075 1.65 9.325C1.23333 7.575 0.9 6.175 0.65 5.125C0.4 4.05833 0.225 3.28333 0.125 2.8C0.0416667 2.3 0 1.94167 0 1.725C0 1.44167 0.0833333 1.25833 0.25 1.175C0.433333 1.09167 0.808333 1.05 1.375 1.05C2.075 1.05 2.65833 1.1 3.125 1.2C3.60833 1.3 4 1.45833 4.3 1.675C4.6 1.875 4.825 2.15 4.975 2.5C5.14167 2.83333 5.25 3.24167 5.3 3.725C5.3 3.79167 5.30833 3.89167 5.325 4.025C5.34167 4.14167 5.35833 4.34167 5.375 4.625C5.40833 4.90833 5.45 5.3 5.5 5.8C5.56667 6.28333 5.64167 6.93333 5.725 7.75C5.825 8.56667 5.94167 9.58333 6.075 10.8C6.225 12 6.4 13.4417 6.6 15.125C6.78333 14.1083 6.925 13.2917 7.025 12.675C7.14167 12.0417 7.24167 11.4917 7.325 11.025C7.40833 10.5417 7.48333 10.0833 7.55 9.65C7.61667 9.2 7.69167 8.65 7.775 8C7.875 7.33333 7.98333 6.5 8.1 5.5C8.23333 4.5 8.4 3.2 8.6 1.6C8.61667 1.48333 8.68333 1.39167 8.8 1.325C8.93333 1.25833 9.09167 1.20833 9.275 1.175C9.45833 1.14167 9.65833 1.125 9.875 1.125C10.1083 1.10833 10.325 1.1 10.525 1.1C11.1917 1.1 11.7583 1.14167 12.225 1.225C12.6917 1.29167 13.075 1.41667 13.375 1.6C13.6917 1.78333 13.9417 2.03333 14.125 2.35C14.3083 2.65 14.4583 3.025 14.575 3.475C14.625 3.69167 14.6833 3.99167 14.75 4.375C14.8167 4.74167 14.8917 5.33333 14.975 6.15C15.075 6.96667 15.1917 8.09167 15.325 9.525C15.475 10.9417 15.6667 12.8083 15.9 15.125Z" fill="#433232"/>
<path d="M31.7375 11.075C31.6375 11.075 31.5208 11.075 31.3875 11.075C31.2708 11.0583 31.1542 11.0417 31.0375 11.025C30.9208 10.9917 30.8208 10.9583 30.7375 10.925C30.6542 10.875 30.6125 10.8167 30.6125 10.75C30.6125 10.5333 30.6208 10.3333 30.6375 10.15C30.6542 9.96667 30.6625 9.775 30.6625 9.575C30.6625 9.20833 30.6125 8.90833 30.5125 8.675C30.4125 8.44167 30.2125 8.325 29.9125 8.325C29.4458 8.325 29.0542 8.63333 28.7375 9.25C28.4375 9.85 28.2458 10.7583 28.1625 11.975C28.1292 12.5083 28.0792 13.1167 28.0125 13.8C27.9625 14.4667 27.9125 15.1167 27.8625 15.75C27.8125 16.3667 27.7708 16.9167 27.7375 17.4C27.7042 17.8833 27.6875 18.2 27.6875 18.35C27.6875 18.5167 27.6292 18.6417 27.5125 18.725C27.3958 18.8083 27.2708 18.85 27.1375 18.85H26.2375C25.7208 18.85 25.2958 18.8 24.9625 18.7C24.6458 18.5833 24.3875 18.425 24.1875 18.225C24.0042 18.025 23.8708 17.7833 23.7875 17.5C23.7208 17.2 23.6875 16.8583 23.6875 16.475C23.6875 16.225 23.6958 15.875 23.7125 15.425C23.7458 14.9583 23.7958 14.325 23.8625 13.525C23.9292 12.7083 24.0042 11.6833 24.0875 10.45C24.1875 9.2 24.3042 7.65833 24.4375 5.825C24.4708 5.34167 24.6458 5.1 24.9625 5.1H25.9375C26.4042 5.1 26.7958 5.15 27.1125 5.25C27.4292 5.35 27.6875 5.49167 27.8875 5.675C28.0875 5.84167 28.2292 6.04167 28.3125 6.275C28.4125 6.50833 28.4792 6.75 28.5125 7C28.7125 6.61667 28.9458 6.29167 29.2125 6.025C29.4958 5.74167 29.7875 5.51667 30.0875 5.35C30.3875 5.16667 30.6958 5.04167 31.0125 4.975C31.3292 4.89167 31.6208 4.85 31.8875 4.85C32.2042 4.85 32.5208 4.90833 32.8375 5.025C33.1708 5.14167 33.4708 5.31667 33.7375 5.55C34.0042 5.78333 34.2125 6.08333 34.3625 6.45C34.5292 6.81667 34.6125 7.25 34.6125 7.75C34.6125 8.2 34.5458 8.625 34.4125 9.025C34.2792 9.425 34.0875 9.78333 33.8375 10.1C33.5875 10.4 33.2792 10.6417 32.9125 10.825C32.5625 10.9917 32.1708 11.075 31.7375 11.075Z" fill="#433232"/>
<path d="M38.2004 18.85C37.6837 18.85 37.2587 18.8 36.9254 18.7C36.6087 18.5833 36.3504 18.425 36.1504 18.225C35.9671 18.025 35.8337 17.7833 35.7504 17.5C35.6837 17.2 35.6504 16.8583 35.6504 16.475C35.6504 16.225 35.6587 15.875 35.6754 15.425C35.7087 14.9583 35.7587 14.325 35.8254 13.525C35.8921 12.7083 35.9671 11.6833 36.0504 10.45C36.1504 9.2 36.2671 7.65833 36.4004 5.825C36.4171 5.45833 36.4587 5.24167 36.5254 5.175C36.5754 5.125 36.7087 5.1 36.9254 5.1H37.9004C38.4171 5.1 38.8337 5.15 39.1504 5.25C39.4837 5.35 39.7421 5.5 39.9254 5.7C40.1254 5.9 40.2587 6.14167 40.3254 6.425C40.4087 6.70833 40.4504 7.025 40.4504 7.375C40.4504 7.625 40.4337 8 40.4004 8.5C40.3671 9 40.3171 9.68333 40.2504 10.55C40.2004 11.4 40.1254 12.4667 40.0254 13.75C39.9254 15.0167 39.8004 16.55 39.6504 18.35C39.6337 18.55 39.5921 18.6833 39.5254 18.75C39.4587 18.8167 39.3171 18.85 39.1004 18.85H38.2004ZM36.4254 2.15C36.4254 1.48333 36.6671 0.958333 37.1504 0.575C37.6337 0.191667 38.2837 0 39.1004 0C39.8171 0 40.3337 0.15 40.6504 0.449999C40.9837 0.733332 41.1504 1.11667 41.1504 1.6C41.1504 2.21667 40.9171 2.73333 40.4504 3.15C40.0004 3.55 39.3337 3.75 38.4504 3.75C37.1004 3.75 36.4254 3.21667 36.4254 2.15Z" fill="#433232"/>
<path d="M48.0316 8.475C47.9816 9.10833 47.9233 9.73333 47.8566 10.35C47.8066 10.9667 47.7566 11.55 47.7066 12.1C47.6566 12.65 47.615 13.1417 47.5816 13.575C47.565 14.0083 47.5566 14.3417 47.5566 14.575C47.5566 15.0083 47.6066 15.3 47.7066 15.45C47.8066 15.5833 47.9733 15.65 48.2066 15.65C48.39 15.65 48.5483 15.6167 48.6816 15.55C48.815 15.4833 48.94 15.4083 49.0566 15.325C49.1733 15.2417 49.2733 15.1667 49.3566 15.1C49.4566 15.0333 49.565 15 49.6816 15C49.7983 15 49.9066 15.0667 50.0066 15.2C50.1066 15.3333 50.1566 15.6417 50.1566 16.125C50.1566 17.0417 49.9066 17.7667 49.4066 18.3C48.9066 18.8333 48.0483 19.1 46.8316 19.1C45.6316 19.1 44.74 18.825 44.1566 18.275C43.59 17.7083 43.3066 16.85 43.3066 15.7C43.3066 15.45 43.315 15.1583 43.3316 14.825C43.365 14.475 43.4066 14.025 43.4566 13.475C43.5066 12.925 43.565 12.25 43.6316 11.45C43.715 10.65 43.7983 9.65833 43.8816 8.475H42.5566C42.4233 8.475 42.34 8.45 42.3066 8.4C42.29 8.33333 42.2816 8.24167 42.2816 8.125L42.3566 6.85C42.3733 6.63333 42.3983 6.425 42.4316 6.225C42.4816 6.00833 42.565 5.81667 42.6816 5.65C42.815 5.48333 42.9983 5.35 43.2316 5.25C43.465 5.15 43.7733 5.1 44.1566 5.1C44.2733 4.8 44.4066 4.44167 44.5566 4.025C44.7066 3.60833 44.8566 3.20833 45.0066 2.825C45.1566 2.425 45.2983 2.09167 45.4316 1.825C45.5816 1.55833 45.715 1.425 45.8316 1.425H46.5566C47.2566 1.425 47.74 1.64167 48.0066 2.075C48.2733 2.50833 48.4066 3.025 48.4066 3.625C48.4066 3.95833 48.3816 4.45 48.3316 5.1H50.9566C51.2233 5.1 51.3566 5.21667 51.3566 5.45L51.2566 6.8C51.2233 7.3 51.0816 7.70833 50.8316 8.025C50.5983 8.325 50.1066 8.475 49.3566 8.475H48.0316Z" fill="#433232"/>
<path d="M58.2461 19.1C57.5128 19.1 56.7794 19.0083 56.0461 18.825C55.3294 18.6417 54.6794 18.325 54.0961 17.875C53.5294 17.425 53.0628 16.825 52.6961 16.075C52.3294 15.325 52.1461 14.3833 52.1461 13.25C52.1461 12.8333 52.1794 12.3333 52.2461 11.75C52.3128 11.1667 52.4378 10.5667 52.6211 9.95C52.8211 9.33333 53.0878 8.725 53.4211 8.125C53.7711 7.50833 54.2211 6.95833 54.7711 6.475C55.3211 5.99167 55.9878 5.6 56.7711 5.3C57.5544 5 58.4878 4.85 59.5711 4.85C60.4378 4.85 61.1711 4.95 61.7711 5.15C62.3711 5.35 62.8544 5.625 63.2211 5.975C63.5878 6.30833 63.8544 6.7 64.0211 7.15C64.1878 7.6 64.2711 8.08333 64.2711 8.6C64.2711 9.36667 64.1128 10.0167 63.7961 10.55C63.4961 11.0833 63.0961 11.5333 62.5961 11.9C62.1128 12.25 61.5711 12.525 60.9711 12.725C60.3711 12.925 59.7794 13.0833 59.1961 13.2C58.6128 13.3 58.0711 13.3667 57.5711 13.4C57.0878 13.4167 56.7128 13.425 56.4461 13.425C56.4461 13.7417 56.4878 14.0583 56.5711 14.375C56.6711 14.675 56.8128 14.9417 56.9961 15.175C57.1794 15.4083 57.4211 15.6 57.7211 15.75C58.0211 15.9 58.3878 15.975 58.8211 15.975C59.2544 15.975 59.5878 15.9083 59.8211 15.775C60.0711 15.625 60.2711 15.4667 60.4211 15.3C60.5711 15.1167 60.6961 14.9583 60.7961 14.825C60.9128 14.675 61.0628 14.6 61.2461 14.6C61.3294 14.6 61.4711 14.625 61.6711 14.675C61.8878 14.7083 62.1044 14.7917 62.3211 14.925C62.5378 15.0583 62.7294 15.2417 62.8961 15.475C63.0628 15.7083 63.1461 16.0083 63.1461 16.375C63.1461 16.8583 62.9961 17.275 62.6961 17.625C62.3961 17.975 62.0044 18.2583 61.5211 18.475C61.0544 18.6917 60.5294 18.85 59.9461 18.95C59.3628 19.05 58.7961 19.1 58.2461 19.1ZM58.7211 8.175C58.3544 8.175 58.0378 8.28333 57.7711 8.5C57.5211 8.7 57.3044 8.95833 57.1211 9.275C56.9544 9.59167 56.8211 9.94167 56.7211 10.325C56.6378 10.7083 56.5711 11.075 56.5211 11.425C57.5544 11.4083 58.3878 11.2333 59.0211 10.9C59.6711 10.5667 59.9961 10.0917 59.9961 9.475C59.9961 9.14167 59.8878 8.84167 59.6711 8.575C59.4711 8.30833 59.1544 8.175 58.7211 8.175Z" fill="#433232"/>
<path d="M76.3229 19.1C75.3395 19.1 74.5312 19.0333 73.8979 18.9C73.2645 18.7833 72.7562 18.6083 72.3728 18.375C72.0062 18.125 71.7479 17.8167 71.5979 17.45C71.4645 17.0833 71.3979 16.65 71.3979 16.15C71.3979 16 71.4062 15.7917 71.4229 15.525C71.4395 15.2417 71.4645 14.85 71.4978 14.35C71.5312 13.85 71.5728 13.2083 71.6228 12.425C71.6895 11.625 71.7728 10.625 71.8728 9.425C71.9895 7.94167 72.0812 6.76667 72.1479 5.9C72.2145 5.03333 72.2645 4.36667 72.2979 3.9C72.3312 3.41667 72.3479 3.08333 72.3479 2.9C72.3645 2.7 72.3728 2.53333 72.3728 2.4C72.3728 2.13333 72.3728 1.91667 72.3728 1.75C72.3895 1.58333 72.4062 1.45833 72.4229 1.375C72.4562 1.275 72.4979 1.20833 72.5479 1.175C72.6145 1.125 72.7062 1.1 72.8229 1.1C73.8062 1.03333 74.6395 0.983333 75.3229 0.95C76.0229 0.916666 76.6312 0.899999 77.1479 0.899999C78.4145 0.899999 79.4979 1.00833 80.3979 1.225C81.3145 1.425 82.0562 1.71667 82.6228 2.1C83.1895 2.48333 83.6062 2.95833 83.8728 3.525C84.1395 4.09167 84.2729 4.73333 84.2729 5.45C84.2729 5.85 84.2312 6.26667 84.1479 6.7C84.0645 7.11667 83.9229 7.51667 83.7229 7.9C83.5229 8.28333 83.2478 8.625 82.8979 8.925C82.5645 9.20833 82.1395 9.41667 81.6228 9.55C82.5895 9.85 83.2729 10.35 83.6729 11.05C84.0729 11.7333 84.2729 12.55 84.2729 13.5C84.2729 14.2667 84.1479 14.9917 83.8979 15.675C83.6479 16.3417 83.2145 16.9333 82.5979 17.45C81.9812 17.95 81.1645 18.35 80.1479 18.65C79.1312 18.95 77.8562 19.1 76.3229 19.1ZM77.7478 11.35C77.5645 11.35 77.3395 11.3667 77.0729 11.4C76.8062 11.4167 76.5312 11.45 76.2478 11.5L75.9729 15.575C76.5729 15.7583 77.1145 15.85 77.5979 15.85C78.1145 15.85 78.5312 15.775 78.8479 15.625C79.1645 15.475 79.4062 15.2917 79.5729 15.075C79.7562 14.8417 79.8729 14.5917 79.9229 14.325C79.9895 14.0417 80.0229 13.7833 80.0229 13.55C80.0229 12.9333 79.8478 12.4167 79.4978 12C79.1645 11.5667 78.5812 11.35 77.7478 11.35ZM76.6979 4.475C76.6645 4.90833 76.6312 5.41667 76.5979 6C76.5812 6.58333 76.5478 7.21667 76.4978 7.9C77.0312 8.03333 77.5062 8.1 77.9229 8.1C78.4229 8.1 78.8228 8.04167 79.1228 7.925C79.4228 7.80833 79.6562 7.65833 79.8229 7.475C80.0062 7.29167 80.1229 7.09167 80.1729 6.875C80.2395 6.65833 80.2729 6.45 80.2729 6.25C80.2729 5.73333 80.0978 5.29167 79.7478 4.925C79.4145 4.54167 78.8312 4.35 77.9978 4.35C77.8145 4.35 77.6062 4.36667 77.3728 4.4C77.1562 4.41667 76.9312 4.44167 76.6979 4.475Z" fill="#433232"/>
<path d="M85.5346 15.775C85.5346 14.275 86.2096 13.1 87.5596 12.25C88.9096 11.4 90.9012 10.9417 93.5346 10.875C93.5512 10.6917 93.5596 10.5417 93.5596 10.425C93.5762 10.2917 93.5846 10.1333 93.5846 9.95C93.5846 9.41667 93.4846 8.99167 93.2846 8.675C93.0846 8.35833 92.6679 8.2 92.0346 8.2C91.6846 8.2 91.4012 8.25 91.1846 8.35C90.9679 8.45 90.7929 8.59167 90.6596 8.775C90.5262 8.94167 90.4179 9.15 90.3346 9.4C90.2512 9.65 90.1762 9.925 90.1096 10.225C90.0762 10.375 90.0012 10.475 89.8846 10.525C89.7679 10.5583 89.5846 10.575 89.3346 10.575C87.6346 10.575 86.7846 9.93333 86.7846 8.65C86.7846 8.13333 86.9012 7.64167 87.1346 7.175C87.3846 6.70833 87.7429 6.30833 88.2096 5.975C88.6929 5.625 89.2929 5.35 90.0096 5.15C90.7262 4.95 91.5596 4.85 92.5096 4.85C94.3596 4.85 95.7012 5.23333 96.5346 6C97.3679 6.76667 97.7846 7.85 97.7846 9.25C97.7846 9.43333 97.7596 9.76667 97.7096 10.25C97.6762 10.7167 97.6262 11.2167 97.5596 11.75C97.5096 12.2667 97.4596 12.7583 97.4096 13.225C97.3762 13.6917 97.3596 14.0167 97.3596 14.2C97.3596 14.6167 97.4346 14.9167 97.5846 15.1C97.7346 15.2667 97.9012 15.3833 98.0846 15.45C98.2846 15.5167 98.4596 15.5667 98.6096 15.6C98.7596 15.6333 98.8346 15.7167 98.8346 15.85C98.8346 16.2167 98.7846 16.5917 98.6846 16.975C98.5846 17.3583 98.4179 17.7083 98.1846 18.025C97.9679 18.3417 97.6596 18.6 97.2596 18.8C96.8762 19 96.4012 19.1 95.8346 19.1C95.0346 19.1 94.4346 18.9083 94.0346 18.525C93.6346 18.1417 93.3679 17.6083 93.2346 16.925C92.8346 17.5083 92.3096 18.0167 91.6596 18.45C91.0262 18.8833 90.1929 19.1 89.1596 19.1C88.6596 19.1 88.1846 19.0417 87.7346 18.925C87.3012 18.8083 86.9179 18.6167 86.5846 18.35C86.2679 18.0833 86.0096 17.7417 85.8096 17.325C85.6262 16.8917 85.5346 16.375 85.5346 15.775ZM93.3096 12.925C92.8762 12.925 92.4512 12.9583 92.0346 13.025C91.6179 13.0917 91.2429 13.2 90.9096 13.35C90.5929 13.4833 90.3346 13.6667 90.1346 13.9C89.9346 14.1333 89.8346 14.4167 89.8346 14.75C89.8346 15.1333 89.9512 15.4 90.1846 15.55C90.4346 15.7 90.7012 15.775 90.9846 15.775C91.2512 15.775 91.5179 15.7167 91.7846 15.6C92.0512 15.4833 92.2846 15.3083 92.4846 15.075C92.7012 14.825 92.8846 14.525 93.0346 14.175C93.1846 13.825 93.2762 13.4083 93.3096 12.925Z" fill="#433232"/>
<path d="M106.096 19.1C104.813 19.1 103.796 18.9167 103.046 18.55C102.296 18.1667 101.73 17.6917 101.346 17.125C100.963 16.5583 100.721 15.95 100.621 15.3C100.521 14.6333 100.471 14.025 100.471 13.475C100.471 13.2583 100.488 12.8333 100.521 12.2C100.571 11.5667 100.63 10.8333 100.696 10C100.763 9.16667 100.83 8.28333 100.896 7.35C100.963 6.4 101.03 5.50833 101.096 4.675C101.163 3.825 101.213 3.075 101.246 2.425C101.296 1.775 101.321 1.325 101.321 1.075C101.321 0.708333 101.346 0.499999 101.396 0.449999C101.446 0.383333 101.596 0.35 101.846 0.35H102.821C103.321 0.35 103.738 0.408333 104.071 0.524999C104.405 0.641666 104.671 0.8 104.871 0.999999C105.071 1.2 105.213 1.43333 105.296 1.7C105.38 1.95 105.421 2.225 105.421 2.525C105.421 2.80833 105.388 3.35833 105.321 4.175C105.271 4.99167 105.205 5.95 105.121 7.05C105.555 6.3 106.046 5.75 106.596 5.4C107.146 5.03333 107.871 4.85 108.771 4.85C110.288 4.85 111.446 5.35 112.246 6.35C113.063 7.35 113.471 8.84167 113.471 10.825C113.471 11.3417 113.43 11.9083 113.346 12.525C113.28 13.1417 113.146 13.7583 112.946 14.375C112.763 14.975 112.496 15.5667 112.146 16.15C111.813 16.7167 111.371 17.2167 110.821 17.65C110.271 18.0833 109.605 18.4333 108.821 18.7C108.055 18.9667 107.146 19.1 106.096 19.1ZM107.221 8.175C106.621 8.175 106.146 8.33333 105.796 8.65C105.463 8.96667 105.205 9.35 105.021 9.8C104.838 10.25 104.721 10.7333 104.671 11.25C104.621 11.75 104.596 12.1917 104.596 12.575C104.596 13.725 104.755 14.55 105.071 15.05C105.388 15.5333 105.863 15.775 106.496 15.775C107.096 15.775 107.563 15.5917 107.896 15.225C108.246 14.8417 108.505 14.3917 108.671 13.875C108.855 13.3583 108.971 12.8333 109.021 12.3C109.071 11.7667 109.096 11.35 109.096 11.05C109.096 10.1167 108.955 9.40833 108.671 8.925C108.388 8.425 107.905 8.175 107.221 8.175Z" fill="#433232"/>
<path d="M120.137 7.4C120.137 7.78333 120.112 8.24167 120.062 8.775C120.012 9.29167 119.953 9.81667 119.887 10.35C119.837 10.8667 119.787 11.3583 119.737 11.825C119.687 12.275 119.662 12.625 119.662 12.875C119.662 13.5083 119.812 13.9833 120.112 14.3C120.428 14.6 120.812 14.75 121.262 14.75C122.045 14.75 122.67 14.3417 123.137 13.525C123.603 12.7083 123.895 11.625 124.012 10.275L124.412 5.6C124.428 5.41667 124.487 5.29167 124.587 5.225C124.703 5.14167 124.828 5.1 124.962 5.1H125.862C126.212 5.1 126.537 5.13333 126.837 5.2C127.153 5.25 127.428 5.35833 127.662 5.525C127.895 5.675 128.078 5.88333 128.212 6.15C128.345 6.41667 128.412 6.75833 128.412 7.175C128.412 7.34167 128.395 7.65833 128.362 8.125C128.345 8.575 128.303 9.23333 128.237 10.1C128.187 10.95 128.112 12.0333 128.012 13.35C127.912 14.65 127.795 16.2417 127.662 18.125C127.578 19.225 127.328 20.1333 126.912 20.85C126.512 21.5833 126.003 22.1583 125.387 22.575C124.77 23.0083 124.078 23.3083 123.312 23.475C122.545 23.6417 121.762 23.725 120.962 23.725C120.112 23.725 119.328 23.65 118.612 23.5C117.912 23.35 117.303 23.1417 116.787 22.875C116.27 22.6083 115.862 22.3 115.562 21.95C115.278 21.6 115.137 21.225 115.137 20.825C115.137 20.5083 115.203 20.2333 115.337 20C115.487 19.7667 115.678 19.575 115.912 19.425C116.145 19.275 116.412 19.1583 116.712 19.075C117.028 19.0083 117.353 18.975 117.687 18.975C117.853 18.975 117.97 19.0583 118.037 19.225C118.12 19.3917 118.237 19.575 118.387 19.775C118.553 19.9917 118.812 20.1833 119.162 20.35C119.512 20.5167 120.037 20.6 120.737 20.6C121.353 20.6 121.853 20.45 122.237 20.15C122.62 19.85 122.912 19.4667 123.112 19C123.328 18.5333 123.47 18.025 123.537 17.475C123.603 16.925 123.637 16.4 123.637 15.9C123.37 16.3667 123.07 16.75 122.737 17.05C122.42 17.3333 122.087 17.5583 121.737 17.725C121.387 17.875 121.037 17.975 120.687 18.025C120.337 18.075 120.003 18.1 119.687 18.1C119.07 18.1 118.503 18.0167 117.987 17.85C117.487 17.6833 117.053 17.4167 116.687 17.05C116.32 16.6667 116.037 16.175 115.837 15.575C115.637 14.975 115.537 14.25 115.537 13.4C115.537 13.0833 115.553 12.6667 115.587 12.15C115.62 11.6167 115.662 11.025 115.712 10.375C115.762 9.70833 115.812 8.99167 115.862 8.225C115.928 7.45833 115.995 6.675 116.062 5.875C116.095 5.35833 116.328 5.1 116.762 5.1H117.562C118.095 5.1 118.528 5.15 118.862 5.25C119.195 5.35 119.453 5.5 119.637 5.7C119.837 5.88333 119.97 6.125 120.037 6.425C120.103 6.70833 120.137 7.03333 120.137 7.4Z" fill="#433232"/>
<path d="M138.842 18.85C137.908 18.85 137.242 18.6667 136.842 18.3C136.442 17.9333 136.242 17.4083 136.242 16.725C136.242 16.3917 136.267 15.825 136.317 15.025C136.367 14.2083 136.433 13.2833 136.517 12.25C136.6 11.2167 136.683 10.125 136.767 8.975C136.85 7.825 136.933 6.74167 137.017 5.725C137.1 4.70833 137.167 3.81667 137.217 3.05C137.267 2.28333 137.292 1.75833 137.292 1.475C137.292 1.225 137.425 1.1 137.692 1.1H139.067C140 1.1 140.642 1.28333 140.992 1.65C141.358 2 141.542 2.525 141.542 3.225C141.542 3.30833 141.533 3.38333 141.517 3.45C141.517 3.51667 141.517 3.59167 141.517 3.675L140.692 15.35H145.192C145.292 15.35 145.383 15.3833 145.467 15.45C145.55 15.5 145.592 15.5833 145.592 15.7L145.492 17.175C145.458 17.675 145.317 18.0833 145.067 18.4C144.833 18.7 144.342 18.85 143.592 18.85H138.842Z" fill="#433232"/>
<path d="M152.676 19.1C151.526 19.1 150.567 18.9417 149.801 18.625C149.051 18.2917 148.451 17.8417 148.001 17.275C147.551 16.7083 147.234 16.05 147.051 15.3C146.867 14.5333 146.776 13.7167 146.776 12.85C146.776 11.85 146.892 10.875 147.126 9.925C147.376 8.95833 147.792 8.1 148.376 7.35C148.959 6.6 149.726 6 150.676 5.55C151.642 5.08333 152.842 4.85 154.276 4.85C156.376 4.85 157.876 5.36667 158.776 6.4C159.692 7.41667 160.151 8.85 160.151 10.7C160.151 11.2167 160.109 11.7917 160.026 12.425C159.959 13.0417 159.817 13.6583 159.601 14.275C159.401 14.8917 159.117 15.4917 158.751 16.075C158.401 16.6583 157.951 17.175 157.401 17.625C156.851 18.075 156.184 18.4333 155.401 18.7C154.634 18.9667 153.726 19.1 152.676 19.1ZM153.851 8.175C153.217 8.175 152.709 8.34167 152.326 8.675C151.959 8.99167 151.676 9.38333 151.476 9.85C151.292 10.3 151.167 10.7833 151.101 11.3C151.051 11.8 151.026 12.225 151.026 12.575C151.026 13.675 151.201 14.4833 151.551 15C151.901 15.5167 152.401 15.775 153.051 15.775C153.634 15.775 154.109 15.5917 154.476 15.225C154.859 14.8583 155.151 14.4167 155.351 13.9C155.567 13.3833 155.709 12.8417 155.776 12.275C155.859 11.7083 155.901 11.2333 155.901 10.85C155.901 10.0167 155.742 9.36667 155.426 8.9C155.126 8.41667 154.601 8.175 153.851 8.175Z" fill="#433232"/>
<path d="M170.192 15.9C169.775 16.65 169.267 17.2083 168.667 17.575C168.067 17.925 167.317 18.1 166.417 18.1C165.734 18.1 165.109 17.9917 164.542 17.775C163.975 17.5583 163.492 17.2167 163.092 16.75C162.692 16.2833 162.375 15.7 162.142 15C161.925 14.2833 161.817 13.4333 161.817 12.45C161.817 11.65 161.9 10.8083 162.067 9.925C162.234 9.025 162.534 8.2 162.967 7.45C163.417 6.7 164.025 6.08333 164.792 5.6C165.559 5.1 166.542 4.85 167.742 4.85C168.242 4.85 168.667 4.90833 169.017 5.025C169.384 5.125 169.692 5.26667 169.942 5.45C170.209 5.63333 170.417 5.85 170.567 6.1C170.734 6.35 170.859 6.61667 170.942 6.9C170.942 6.91667 170.942 6.85833 170.942 6.725C170.959 6.575 170.975 6.40833 170.992 6.225C171.009 6.04167 171.017 5.86667 171.017 5.7C171.034 5.51667 171.042 5.4 171.042 5.35C171.059 5.18333 171.167 5.1 171.367 5.1H172.517C173.384 5.1 174.009 5.28333 174.392 5.65C174.792 6 174.992 6.675 174.992 7.675C174.992 7.80833 174.984 8.11667 174.967 8.6C174.95 9.06667 174.917 9.63333 174.867 10.3C174.834 10.9667 174.784 11.7083 174.717 12.525C174.65 13.325 174.575 14.1333 174.492 14.95C174.409 15.7667 174.317 16.55 174.217 17.3C174.117 18.05 174.009 18.7083 173.892 19.275C173.775 19.8417 173.575 20.3917 173.292 20.925C173.009 21.4583 172.609 21.9333 172.092 22.35C171.575 22.7667 170.909 23.1 170.092 23.35C169.292 23.6 168.309 23.725 167.142 23.725C166.259 23.725 165.484 23.6417 164.817 23.475C164.167 23.3083 163.625 23.0833 163.192 22.8C162.759 22.5333 162.425 22.225 162.192 21.875C161.975 21.525 161.867 21.175 161.867 20.825C161.867 20.5083 161.934 20.2333 162.067 20C162.2 19.7667 162.375 19.575 162.592 19.425C162.809 19.275 163.042 19.1583 163.292 19.075C163.559 19.0083 163.809 18.975 164.042 18.975C164.325 18.975 164.534 19.0583 164.667 19.225C164.8 19.3917 164.95 19.575 165.117 19.775C165.284 19.9917 165.517 20.1833 165.817 20.35C166.117 20.5167 166.584 20.6 167.217 20.6C168.317 20.6 169.084 20.1917 169.517 19.375C169.967 18.575 170.192 17.4167 170.192 15.9ZM168.092 14.775C168.692 14.775 169.159 14.6333 169.492 14.35C169.842 14.0667 170.109 13.725 170.292 13.325C170.475 12.925 170.592 12.5083 170.642 12.075C170.692 11.6417 170.717 11.2667 170.717 10.95C170.717 9.95 170.559 9.24167 170.242 8.825C169.942 8.39167 169.484 8.175 168.867 8.175C168.25 8.175 167.767 8.34167 167.417 8.675C167.067 9.00833 166.8 9.40833 166.617 9.875C166.45 10.325 166.342 10.7833 166.292 11.25C166.242 11.7 166.217 12.05 166.217 12.3C166.217 13.1333 166.359 13.7583 166.642 14.175C166.925 14.575 167.409 14.775 168.092 14.775Z" fill="#433232"/>
</svg>
