<svg width="34" height="17" viewBox="0 0 34 17" fill="none" xmlns="http://www.w3.org/2000/svg">
<path d="M10.854 7.16703C11.082 7.28702 11.304 7.43103 11.52 7.59903C11.736 7.75503 11.94 7.92303 12.132 8.10302C12.228 8.19903 12.294 8.31903 12.33 8.46303C12.366 8.60703 12.366 8.75102 12.33 8.89502C12.306 9.03903 12.246 9.17103 12.15 9.29103C12.066 9.39902 11.952 9.47102 11.808 9.50702C11.424 9.60303 11.022 9.59702 10.602 9.48903C10.194 9.38103 9.816 9.24303 9.468 9.07503C9.144 8.90703 8.844 8.75103 8.568 8.60703C8.292 8.45103 8.016 8.28903 7.74 8.12103C7.656 8.06102 7.542 7.99502 7.398 7.92303C7.266 7.83903 7.134 7.75503 7.002 7.67103C6.846 7.57503 6.678 7.47902 6.498 7.38303C6.294 7.49102 6.096 7.59303 5.904 7.68902C5.736 7.77303 5.568 7.85702 5.4 7.94102C5.244 8.01302 5.118 8.07903 5.022 8.13903C4.71 8.31903 4.422 8.47503 4.158 8.60703C3.894 8.73903 3.606 8.88902 3.294 9.05702C3.054 9.17702 2.808 9.30902 2.556 9.45302C2.316 9.58502 2.058 9.63903 1.782 9.61503C1.566 9.59103 1.356 9.52503 1.152 9.41703C0.948 9.30903 0.822 9.12302 0.774 8.85903C0.75 8.71502 0.762 8.55902 0.81 8.39103C0.858 8.18703 0.936 8.01902 1.044 7.88702C1.164 7.75502 1.308 7.63503 1.476 7.52702L2.718 6.82502C2.922 6.70502 3.102 6.60903 3.258 6.53703C3.414 6.45303 3.6 6.35103 3.816 6.23103C4.02 6.11102 4.254 5.97902 4.518 5.83503C4.794 5.67903 5.052 5.55302 5.292 5.45702V3.99903H3.384C3.192 3.99903 3.024 4.00503 2.88 4.01702C2.748 4.01702 2.592 4.00502 2.412 3.98102C2.28 3.95702 2.136 3.94502 1.98 3.94502C1.824 3.94502 1.68 3.90902 1.548 3.83703C1.416 3.76502 1.308 3.63902 1.224 3.45902C1.152 3.32702 1.11 3.17103 1.098 2.99103C1.086 2.81102 1.11 2.64902 1.17 2.50503C1.266 2.28903 1.422 2.12703 1.638 2.01902C1.854 1.91102 2.076 1.85702 2.304 1.85702H2.718C2.91 1.86902 3.048 1.87502 3.132 1.87502C3.228 1.86302 3.372 1.85702 3.564 1.85702H9.792C9.984 1.85702 10.206 1.85103 10.458 1.83903C10.71 1.82702 10.95 1.84502 11.178 1.89302C11.418 1.94102 11.628 2.03102 11.808 2.16303C12 2.29502 12.126 2.50502 12.186 2.79302C12.258 3.12902 12.204 3.38702 12.024 3.56702C11.856 3.73503 11.634 3.86103 11.358 3.94502C11.094 4.01702 10.812 4.05902 10.512 4.07103C10.212 4.07103 9.966 4.06503 9.774 4.05302C9.582 4.04102 9.378 4.03502 9.162 4.03502C8.958 4.02303 8.76 4.01702 8.568 4.01702C8.352 4.01702 8.136 4.02303 7.92 4.03502V5.49303C8.088 5.58902 8.244 5.67302 8.388 5.74503C8.46 5.78102 8.526 5.82302 8.586 5.87102C8.658 5.90702 8.73 5.94903 8.802 5.99703C8.922 6.05703 9.036 6.11703 9.144 6.17703C9.264 6.23703 9.384 6.30303 9.504 6.37502C9.732 6.50702 9.954 6.63903 10.17 6.77103C10.398 6.90303 10.626 7.03503 10.854 7.16703ZM1.584 12.837C1.308 12.825 1.044 12.789 0.792 12.729C0.552 12.657 0.354 12.501 0.198 12.261C0.066 12.057 0 11.841 0 11.613C0.012 11.373 0.102 11.169 0.27 11.001C0.366 10.905 0.486 10.833 0.63 10.785C0.774 10.737 0.912 10.701 1.044 10.677C1.176 10.653 1.29 10.641 1.386 10.641C1.494 10.641 1.554 10.641 1.566 10.641H11.376C11.568 10.629 11.772 10.629 11.988 10.641C12.216 10.653 12.426 10.695 12.618 10.767C12.81 10.827 12.972 10.935 13.104 11.091C13.236 11.235 13.302 11.439 13.302 11.703C13.302 12.003 13.2 12.231 12.996 12.387C12.792 12.531 12.546 12.639 12.258 12.711C11.982 12.771 11.694 12.807 11.394 12.819C11.094 12.819 10.848 12.819 10.656 12.819H9.954C9.714 12.831 9.48 12.837 9.252 12.837C9.024 12.825 8.79 12.819 8.55 12.819H7.866C7.878 13.155 7.89 13.509 7.902 13.881C7.914 14.253 7.896 14.583 7.848 14.871C7.824 15.099 7.764 15.315 7.668 15.519C7.584 15.735 7.44 15.909 7.236 16.041C7.056 16.161 6.846 16.221 6.606 16.221C6.366 16.233 6.15 16.185 5.958 16.077C5.802 15.981 5.682 15.843 5.598 15.663C5.526 15.483 5.478 15.309 5.454 15.141C5.43 15.009 5.418 14.865 5.418 14.709C5.43 14.553 5.436 14.409 5.436 14.277C5.424 14.061 5.418 13.827 5.418 13.575C5.418 13.311 5.418 13.053 5.418 12.801H4.968C4.632 12.801 4.326 12.807 4.05 12.819C3.786 12.819 3.528 12.825 3.276 12.837C3.024 12.837 2.76 12.837 2.484 12.837C2.22 12.837 1.92 12.837 1.584 12.837Z" fill="black"/>
<path d="M21.7991 10.011C21.8711 9.93903 21.9371 9.85503 21.9971 9.75903C22.0691 9.65103 22.1231 9.57903 22.1591 9.54303V5.47502C22.0991 5.49903 22.0451 5.50502 21.9971 5.49303C21.9491 5.48102 21.8951 5.47502 21.8351 5.47502H21.3491C20.9291 5.47502 20.5631 5.46902 20.2511 5.45702C19.9511 5.44502 19.7591 5.42703 19.6751 5.40303C19.4591 5.35503 19.2731 5.27703 19.1171 5.16903C18.9731 5.04903 18.8651 4.88103 18.7931 4.66503C18.7691 4.58102 18.7511 4.50302 18.7391 4.43103C18.7271 4.35903 18.7331 4.27503 18.7571 4.17903C18.7571 4.05903 18.8171 3.90902 18.9371 3.72902C18.9731 3.66902 19.0271 3.61502 19.0991 3.56702C19.1711 3.51903 19.2431 3.47703 19.3151 3.44103C19.3871 3.38103 19.4591 3.34503 19.5311 3.33303C19.6031 3.30902 19.6751 3.28502 19.7471 3.26103H22.1231C22.1231 3.12902 22.1291 2.94902 22.1411 2.72102C22.1531 2.48102 22.1591 2.30702 22.1591 2.19902C22.1831 2.04302 22.2191 1.90502 22.2671 1.78502C22.3151 1.65303 22.3691 1.53303 22.4291 1.42503C22.5731 1.19703 22.7831 1.04702 23.0591 0.975024C23.1911 0.915025 23.3231 0.891025 23.4551 0.903024C23.5991 0.915025 23.7371 0.951025 23.8691 1.01103C23.9651 1.04702 24.0491 1.10102 24.1211 1.17303C24.2051 1.23303 24.2651 1.30502 24.3011 1.38902C24.4451 1.55702 24.5351 1.72502 24.5711 1.89302C24.5951 1.98902 24.6131 2.09102 24.6251 2.19902C24.6371 2.30702 24.6431 2.41502 24.6431 2.52302V3.26103H25.7411C25.9811 3.26103 26.2211 3.26702 26.4611 3.27902C26.7131 3.29102 26.9231 3.30902 27.0911 3.33303C27.2591 3.36902 27.4091 3.43502 27.5411 3.53102C27.6851 3.61503 27.8051 3.73503 27.9011 3.89102C27.9971 4.04702 28.0451 4.21502 28.0451 4.39502C28.0811 4.52702 28.0571 4.67703 27.9731 4.84503C27.8291 5.12103 27.5471 5.30703 27.1271 5.40303C26.9951 5.42703 26.8451 5.43902 26.6771 5.43902C26.5211 5.43902 26.3531 5.45103 26.1731 5.47502C25.9811 5.47502 25.7531 5.48102 25.4891 5.49303C25.2251 5.50502 24.9431 5.49903 24.6431 5.47502C24.6431 5.57102 24.6371 5.68503 24.6251 5.81703C24.6251 5.94903 24.6251 6.08103 24.6251 6.21302C24.6251 6.34503 24.6251 6.47103 24.6251 6.59103C24.6251 6.69903 24.6311 6.78903 24.6431 6.86102V8.84103C24.6431 8.90103 24.6371 8.96103 24.6251 9.02102C24.6131 9.06903 24.6191 9.12902 24.6431 9.20103V9.48903C24.7031 9.53702 24.7571 9.60303 24.8051 9.68703C24.8651 9.75903 24.9431 9.84303 25.0391 9.93902C25.1231 10.011 25.1891 10.083 25.2371 10.155C25.2971 10.227 25.3571 10.293 25.4171 10.353C25.4771 10.425 25.5311 10.497 25.5791 10.569C25.6391 10.641 25.7051 10.713 25.7771 10.785C25.8371 10.845 25.8971 10.917 25.9571 11.001C26.0171 11.085 26.0831 11.163 26.1551 11.235C26.1911 11.295 26.2271 11.349 26.2631 11.397C26.2991 11.445 26.3351 11.487 26.3711 11.523C26.4431 11.631 26.5031 11.733 26.5511 11.829C26.6711 11.973 26.7851 12.123 26.8931 12.279C27.0011 12.423 27.1091 12.591 27.2171 12.783C27.3491 12.951 27.4511 13.125 27.5231 13.305C27.6071 13.473 27.6671 13.641 27.7031 13.809C27.7391 13.977 27.7391 14.151 27.7031 14.331C27.6671 14.511 27.5831 14.673 27.4511 14.817C27.2831 14.961 27.0611 15.033 26.7851 15.033C26.6531 15.033 26.5271 15.021 26.4071 14.997C26.2991 14.961 26.1791 14.913 26.0471 14.853C25.9271 14.781 25.8191 14.709 25.7231 14.637C25.6391 14.553 25.5491 14.475 25.4531 14.403C25.3451 14.295 25.2431 14.181 25.1471 14.061C25.0511 13.929 24.9551 13.809 24.8591 13.701C24.7631 13.593 24.6671 13.479 24.5711 13.359C24.4871 13.227 24.3971 13.095 24.3011 12.963C24.1691 12.831 24.0251 12.657 23.8691 12.441C23.7971 12.333 23.7131 12.243 23.6171 12.171C23.5331 12.087 23.4551 12.009 23.3831 11.937C23.3111 12.033 23.2391 12.129 23.1671 12.225C23.0951 12.309 23.0231 12.399 22.9511 12.495C22.8671 12.591 22.7891 12.681 22.7171 12.765C22.6451 12.849 22.5731 12.939 22.5011 13.035C22.4291 13.155 22.3451 13.275 22.2491 13.395C22.1651 13.515 22.0751 13.629 21.9791 13.737C21.9071 13.857 21.8231 13.977 21.7271 14.097C21.6431 14.217 21.5411 14.331 21.4211 14.439C21.1811 14.679 20.9531 14.847 20.7371 14.943C20.5331 15.027 20.3231 15.069 20.1071 15.069C20.0471 15.069 19.9871 15.069 19.9271 15.069C19.8791 15.069 19.8251 15.057 19.7651 15.033C19.5131 14.961 19.3271 14.799 19.2071 14.547C19.1231 14.355 19.0991 14.163 19.1351 13.971C19.1591 13.851 19.1831 13.743 19.2071 13.647C19.2311 13.539 19.2731 13.449 19.3331 13.377C19.3691 13.281 19.4111 13.191 19.4591 13.107C19.5071 13.011 19.5611 12.915 19.6211 12.819C19.6811 12.747 19.7351 12.669 19.7831 12.585C19.8431 12.501 19.9151 12.417 19.9991 12.333C20.0351 12.297 20.0711 12.255 20.1071 12.207C20.1431 12.159 20.1791 12.117 20.2151 12.081L20.4311 11.757C20.4671 11.673 20.5091 11.607 20.5571 11.559C20.6051 11.499 20.6771 11.403 20.7731 11.271C20.8691 11.163 20.9591 11.055 21.0431 10.947C21.1271 10.839 21.2051 10.737 21.2771 10.641C21.3731 10.533 21.4631 10.425 21.5471 10.317C21.6431 10.209 21.7271 10.107 21.7991 10.011ZM31.8971 7.13103C31.9571 7.13103 32.0111 7.13702 32.0591 7.14902C32.1191 7.16103 32.1791 7.16703 32.2391 7.16703C32.2991 7.17902 32.3651 7.19103 32.4371 7.20303C32.5091 7.20303 32.5811 7.20903 32.6531 7.22102C32.7851 7.24503 32.9171 7.29303 33.0491 7.36503C33.1811 7.42503 33.2771 7.52102 33.3371 7.65302C33.4211 7.78502 33.4631 7.94102 33.4631 8.12103C33.4631 8.21702 33.4571 8.30702 33.4451 8.39103C33.4451 8.46303 33.4331 8.54703 33.4091 8.64302C33.3851 8.73903 33.3551 8.84103 33.3191 8.94903C33.2951 9.05702 33.2411 9.14103 33.1571 9.20103C32.9891 9.32102 32.8271 9.39902 32.6711 9.43503C32.4791 9.45903 32.2451 9.46502 31.9691 9.45302C31.6931 9.44102 31.4591 9.44102 31.2671 9.45302C31.2551 9.45302 31.2431 9.45903 31.2311 9.47103H31.2131L31.1951 9.48903V9.54303C31.1951 9.68703 31.1951 9.86103 31.1951 10.065C31.1951 10.257 31.1951 10.461 31.1951 10.677C31.1951 10.881 31.1951 11.085 31.1951 11.289C31.1951 11.481 31.1951 11.655 31.1951 11.811C31.2191 12.435 31.2191 13.047 31.1951 13.647V13.899C31.1951 14.055 31.1891 14.229 31.1771 14.421C31.1771 14.601 31.1651 14.781 31.1411 14.961C31.1171 15.141 31.0751 15.315 31.0151 15.483C30.9551 15.639 30.8711 15.771 30.7631 15.879C30.6191 16.047 30.4271 16.131 30.1871 16.131C30.1871 16.131 30.1751 16.125 30.1511 16.113C29.8631 16.101 29.6291 16.017 29.4491 15.861C29.2811 15.705 29.1491 15.513 29.0531 15.285C28.9691 15.057 28.9151 14.823 28.8911 14.583C28.8671 14.331 28.8551 14.109 28.8551 13.917V3.22502C28.8551 3.21302 28.8551 3.15902 28.8551 3.06302C28.8551 2.95502 28.8671 2.83502 28.8911 2.70302C28.9151 2.55902 28.9511 2.41502 28.9991 2.27102C29.0591 2.11502 29.1371 1.98902 29.2331 1.89302C29.3171 1.80902 29.4371 1.74902 29.5931 1.71302C29.7611 1.66502 29.9111 1.64102 30.0431 1.64102C30.3071 1.64102 30.5291 1.73102 30.7091 1.91103C30.8771 2.07903 30.9731 2.25903 30.9971 2.45102C31.0331 2.63102 31.0631 2.82302 31.0871 3.02702C31.0991 3.07503 31.1051 3.14703 31.1051 3.24303C31.1291 3.44702 31.1411 3.65702 31.1411 3.87302C31.1531 4.08902 31.1651 4.30502 31.1771 4.52102C31.1771 4.65302 31.1771 4.78502 31.1771 4.91703C31.1891 5.03702 31.1951 5.16302 31.1951 5.29502C31.1831 5.36703 31.1771 5.43902 31.1771 5.51102C31.1891 5.57102 31.1951 5.63102 31.1951 5.69102V6.69902C31.1951 6.75903 31.1951 6.82503 31.1951 6.89703C31.1951 6.96903 31.2071 7.03503 31.2311 7.09503C31.2311 7.10703 31.2911 7.11302 31.4111 7.11302C31.5311 7.11302 31.5971 7.11302 31.6091 7.11302C31.7171 7.13702 31.8011 7.14303 31.8611 7.13103H31.8971Z" fill="black"/>
</svg>
