<svg width="118" height="24" viewBox="0 0 118 24" fill="none" xmlns="http://www.w3.org/2000/svg">
<path d="M6.70833 14.475C5.69167 14.4917 4.83333 14.3083 4.13333 13.925C3.43333 13.5417 2.9 13.0583 2.53333 12.475C2.16667 11.875 1.98333 11.2833 1.98333 10.7C1.98333 10.0833 2.14167 9.48333 2.45833 8.9C2.775 8.31667 3.275 7.825 3.95833 7.425C4.65833 7.00833 5.56667 6.78333 6.68333 6.75C8.16667 6.71667 9.33333 7.06667 10.1833 7.8C11.05 8.51667 11.4667 9.44167 11.4333 10.575C11.4167 11.1917 11.225 11.8 10.8583 12.4C10.5083 12.9833 9.98333 13.4667 9.28333 13.85C8.6 14.2333 7.74167 14.4417 6.70833 14.475ZM15.6833 16.875C15.6167 16.875 15.5833 16.8333 15.5833 16.75V3.05C15.5833 2.41667 15.5583 1.83333 15.5083 1.3C15.475 0.766666 15.4167 0.416666 15.3333 0.25C15.3 0.166667 15.3 0.108333 15.3333 0.0750005C15.3833 0.0250002 15.4417 0 15.5083 0C15.7417 0 16.0167 0 16.3333 0C16.65 0 16.9167 0.00833323 17.1333 0.0249997C17.2167 0.0249997 17.2583 0.0916665 17.2583 0.225C17.2083 0.841667 17.175 1.38333 17.1583 1.85C17.1583 2.3 17.1583 2.825 17.1583 3.425V8.575C17.6083 8.575 18.1 8.55833 18.6333 8.525C19.1667 8.49167 19.6583 8.45 20.1083 8.4C20.575 8.35 20.925 8.29167 21.1583 8.225C21.3083 8.20833 21.3917 8.25833 21.4083 8.375C21.4417 8.59167 21.4583 8.80833 21.4583 9.025C21.475 9.24167 21.4917 9.45833 21.5083 9.675C21.5083 9.85833 21.4333 9.95 21.2833 9.95C21.05 9.91667 20.6917 9.9 20.2083 9.9C19.725 9.88333 19.2083 9.875 18.6583 9.875C18.125 9.875 17.625 9.89167 17.1583 9.925V16.25C17.1583 16.5 17.1417 16.6583 17.1083 16.725C17.0917 16.775 17.0417 16.8 16.9583 16.8L15.6833 16.875ZM6.70833 13.2C7.65833 13.1667 8.4 12.9 8.93333 12.4C9.46667 11.9 9.75 11.275 9.78333 10.525C9.78333 10.1583 9.68333 9.75833 9.48333 9.325C9.28333 8.89167 8.95 8.525 8.48333 8.225C8.03333 7.925 7.425 7.79167 6.65833 7.825C5.59167 7.85833 4.80833 8.15833 4.30833 8.725C3.80833 9.275 3.55833 9.90833 3.55833 10.625C3.55833 11.3083 3.83333 11.9167 4.38333 12.45C4.95 12.9833 5.725 13.2333 6.70833 13.2ZM7.75833 22.375C7.175 22.375 6.74167 22.1583 6.45833 21.725C6.175 21.3083 6.03333 20.7417 6.03333 20.025V18.775C6.03333 18.1917 6 17.7083 5.93333 17.325C5.88333 16.9417 5.83333 16.6667 5.78333 16.5C5.73333 16.3333 5.79167 16.25 5.95833 16.25C6.04167 16.25 6.2 16.2583 6.43333 16.275C6.68333 16.275 6.91667 16.2833 7.13333 16.3C7.36667 16.3167 7.5 16.325 7.53333 16.325C7.61667 16.3583 7.65833 16.4417 7.65833 16.575C7.64167 16.9583 7.625 17.3 7.60833 17.6C7.60833 17.8833 7.60833 18.2417 7.60833 18.675V19.975C7.60833 20.4917 7.66667 20.8083 7.78333 20.925C7.9 21.0417 8.08333 21.1 8.33333 21.1C8.8 21.1167 9.375 21.125 10.0583 21.125C10.7583 21.1417 11.4833 21.1417 12.2333 21.125C12.9833 21.1083 13.6917 21.0833 14.3583 21.05C15.0583 21.0167 15.7833 20.9583 16.5333 20.875C17.2833 20.775 17.8583 20.675 18.2583 20.575C18.425 20.5417 18.5333 20.55 18.5833 20.6C18.6333 20.65 18.6667 20.7167 18.6833 20.8L18.8833 21.975C18.8833 22.0583 18.8583 22.125 18.8083 22.175C18.775 22.225 18.6417 22.25 18.4083 22.25C16.7583 22.25 15.0583 22.2667 13.3083 22.3C11.5583 22.35 9.70833 22.375 7.75833 22.375ZM0.783333 5.725C0.616667 5.74167 0.508333 5.725 0.458333 5.675C0.408333 5.60833 0.366667 5.53333 0.333333 5.45C0.316667 5.43333 0.308333 5.41667 0.308333 5.4C0.241667 5.21667 0.191667 5.05833 0.158333 4.925C0.125 4.79167 0.075 4.58333 0.00833331 4.3C-0.00833333 4.26667 2.23517e-08 4.225 0.0333334 4.175C0.0666666 4.125 0.125 4.10833 0.208333 4.125C1.14167 4.225 2.38333 4.275 3.93333 4.275C4.86667 4.275 5.85833 4.26667 6.90833 4.25C7.95833 4.21667 8.98333 4.16667 9.98333 4.1C11 4.01667 11.9083 3.90833 12.7083 3.775C12.7583 3.75833 12.8167 3.76667 12.8833 3.8C12.95 3.81667 12.9917 3.86667 13.0083 3.95C13.0917 4.4 13.1333 4.78333 13.1333 5.1C13.1667 5.28333 13.0667 5.375 12.8333 5.375C12.5167 5.35833 12.1583 5.35 11.7583 5.35C11.3583 5.35 10.9917 5.35 10.6583 5.35C10.2917 5.35 9.78333 5.35833 9.13333 5.375C8.48333 5.375 7.79167 5.38333 7.05833 5.4C6.325 5.41667 5.63333 5.44167 4.98333 5.475C4.35 5.49167 3.85833 5.50833 3.50833 5.525C3.09167 5.55833 2.63333 5.59167 2.13333 5.625C1.65 5.65833 1.2 5.69167 0.783333 5.725ZM6.00833 2.275C5.775 2.24167 5.45833 2.2 5.05833 2.15C4.65833 2.08333 4.26667 2 3.88333 1.9C3.5 1.78333 3.19167 1.64167 2.95833 1.475C2.89167 1.425 2.875 1.325 2.90833 1.175C2.94167 1.00833 3 0.85 3.08333 0.7C3.16667 0.55 3.25 0.491666 3.33333 0.524999C4.05 0.658333 4.85 0.758333 5.73333 0.825C6.61667 0.875 7.45 0.9 8.23333 0.9C9.03333 0.883333 9.66667 0.858333 10.1333 0.825C10.2667 0.808333 10.35 0.816667 10.3833 0.849999C10.4167 0.866666 10.4417 0.916666 10.4583 1C10.4583 1.01667 10.4583 1.04167 10.4583 1.075C10.4583 1.225 10.45 1.43333 10.4333 1.7C10.4167 1.95 10.3583 2.09167 10.2583 2.125C10.1583 2.15833 9.875 2.2 9.40833 2.25C8.94167 2.3 8.4 2.33333 7.78333 2.35C7.16667 2.36667 6.575 2.34167 6.00833 2.275Z" fill="#272B4E"/>
<path d="M28.3505 9.725C28.3172 9.725 28.2755 9.71667 28.2255 9.7C28.1755 9.68333 28.1505 9.63333 28.1505 9.55C28.1505 9.5 28.1422 9.43333 28.1255 9.35C28.1255 9.25 28.1172 9.04167 28.1005 8.725C28.1005 8.39167 28.0922 7.85833 28.0755 7.125C28.0589 6.39167 28.0422 5.35 28.0255 4C28.0089 3.25 27.9589 2.60833 27.8755 2.075C27.7922 1.54167 27.7255 1.19167 27.6755 1.025C27.6255 0.858334 27.6839 0.775 27.8505 0.775H29.4755C29.5589 0.775 29.6005 0.858334 29.6005 1.025C29.5839 1.325 29.5755 1.625 29.5755 1.925C29.5922 2.225 29.6005 2.525 29.6005 2.825C29.6005 2.975 29.6005 3.125 29.6005 3.275C29.6005 3.40833 29.6005 3.55 29.6005 3.7V3.775C30.0339 3.79167 30.6255 3.8 31.3755 3.8C32.1422 3.8 32.9672 3.79167 33.8505 3.775C34.7505 3.74167 35.6172 3.70833 36.4505 3.675C37.3005 3.625 38.0255 3.575 38.6255 3.525V2.85C38.6255 2.21667 38.6005 1.70833 38.5505 1.325C38.5005 0.941666 38.4422 0.658333 38.3755 0.475C38.3422 0.391667 38.3422 0.333333 38.3755 0.299999C38.4255 0.25 38.4839 0.225 38.5505 0.225L40.1255 0.25C40.2089 0.283333 40.2505 0.366666 40.2505 0.5C40.2339 0.95 40.2172 1.31667 40.2005 1.6C40.1839 1.86667 40.1755 2.13333 40.1755 2.4C40.1755 2.65 40.1755 2.975 40.1755 3.375V9.05C40.1755 9.16667 40.1255 9.25 40.0255 9.3C39.9422 9.35 39.8589 9.375 39.7755 9.375C38.3255 9.375 36.9422 9.4 35.6255 9.45C34.3255 9.48333 33.1672 9.51667 32.1505 9.55C31.1339 9.58333 30.3255 9.6 29.7255 9.6C29.6255 9.6 29.4672 9.60833 29.2505 9.625C29.0505 9.64167 28.8589 9.66667 28.6755 9.7C28.4922 9.71667 28.3839 9.725 28.3505 9.725ZM33.5505 21.3C33.4839 21.3 33.4505 21.2583 33.4505 21.175V13.6C31.4505 13.6333 29.6339 13.6917 28.0005 13.775C26.3672 13.8417 25.0839 13.9167 24.1505 14C23.9672 14.0167 23.8422 14 23.7755 13.95C23.7089 13.9 23.6589 13.825 23.6255 13.725C23.5589 13.5417 23.5005 13.3583 23.4505 13.175C23.4005 12.975 23.3422 12.7333 23.2755 12.45C23.2589 12.4167 23.2672 12.375 23.3005 12.325C23.3339 12.2583 23.3922 12.2333 23.4755 12.25C24.1089 12.3333 24.9672 12.3917 26.0505 12.425C27.1505 12.4417 28.3589 12.45 29.6755 12.45C30.9589 12.45 32.3089 12.4333 33.7255 12.4C35.1589 12.3667 36.5505 12.325 37.9005 12.275C39.2505 12.225 40.4505 12.1583 41.5005 12.075C42.5672 11.9917 43.3755 11.9 43.9255 11.8C44.0922 11.7667 44.2005 11.775 44.2505 11.825C44.3005 11.875 44.3339 11.9417 44.3505 12.025L44.5005 13.225C44.5005 13.3083 44.4755 13.3833 44.4255 13.45C44.3755 13.5167 44.2422 13.55 44.0255 13.55C43.4589 13.5333 42.8005 13.525 42.0505 13.525C41.3005 13.525 40.5005 13.525 39.6505 13.525C38.8672 13.525 38.0922 13.5333 37.3255 13.55C36.5589 13.55 35.8005 13.5583 35.0505 13.575V20.675C35.0505 20.925 35.0339 21.075 35.0005 21.125C34.9839 21.175 34.9339 21.2083 34.8505 21.225C34.7839 21.225 34.6589 21.225 34.4755 21.225C34.2922 21.2417 34.1089 21.2583 33.9255 21.275C33.7422 21.2917 33.6172 21.3 33.5505 21.3ZM29.7255 8.275C30.2755 8.29167 30.9255 8.3 31.6755 8.3C32.4255 8.3 33.2172 8.29167 34.0505 8.275C34.9005 8.24167 35.7172 8.20833 36.5005 8.175C37.3005 8.125 38.0089 8.075 38.6255 8.025V4.875C37.4422 4.89167 36.2672 4.90833 35.1005 4.925C33.9505 4.94167 32.8922 4.95833 31.9255 4.975C30.9755 4.99167 30.2089 5.01667 29.6255 5.05L29.7255 8.275Z" fill="#272B4E"/>
<path d="M50.9863 11.325C50.9529 11.325 50.9113 11.3167 50.8613 11.3C50.8113 11.2833 50.7863 11.2333 50.7863 11.15C50.7863 11.1167 50.7863 11.075 50.7863 11.025C50.7863 10.9083 50.7863 10.75 50.7863 10.55C50.7863 10.3333 50.7779 10.0167 50.7613 9.6C50.7613 9.16667 50.7446 8.575 50.7113 7.825C50.6779 7.05833 50.6279 6.075 50.5613 4.875C50.5446 4.59167 50.5113 4.275 50.4613 3.925C50.4113 3.575 50.3529 3.25833 50.2863 2.975C50.2363 2.69167 50.1779 2.50833 50.1113 2.425C50.0446 2.325 50.0363 2.23333 50.0863 2.15C50.1529 2.06667 50.2279 2.025 50.3113 2.025C50.5779 2.025 50.8613 2.03333 51.1613 2.05C51.4613 2.06667 51.7446 2.075 52.0113 2.075C52.6779 2.075 53.4529 2.06667 54.3363 2.05C55.2363 2.03333 56.1446 2.00833 57.0613 1.975C57.9946 1.94167 58.8529 1.9 59.6363 1.85C60.4363 1.8 61.0696 1.73333 61.5363 1.65C61.5529 1.65 61.5696 1.65 61.5863 1.65C61.6696 1.63333 61.7363 1.625 61.7863 1.625C61.8529 1.625 61.9446 1.63333 62.0613 1.65L63.2863 1.925C63.3696 1.95833 63.4196 2 63.4363 2.05C63.4529 2.08333 63.4529 2.14167 63.4363 2.225C63.4029 2.45833 63.3613 2.76667 63.3113 3.15C63.2779 3.51667 63.2446 3.88333 63.2113 4.25C63.1779 4.6 63.1529 4.86667 63.1363 5.05C63.0529 6.06667 62.9863 7.01667 62.9363 7.9C62.8863 8.78333 62.8446 9.725 62.8113 10.725C62.8113 10.8083 62.7696 10.8833 62.6863 10.95C62.6029 11.0167 62.5196 11.05 62.4363 11.05C62.3196 11.0333 62.0279 11.025 61.5613 11.025C61.0946 11.025 60.5279 11.025 59.8613 11.025C59.1946 11.025 58.4779 11.0333 57.7113 11.05C56.9613 11.0667 56.2196 11.0833 55.4863 11.1C54.7696 11.1167 54.1196 11.1333 53.5363 11.15C52.9696 11.1667 52.5446 11.1833 52.2613 11.2C52.1613 11.2 52.0113 11.2083 51.8113 11.225C51.6113 11.2417 51.4279 11.2667 51.2613 11.3C51.1113 11.3167 51.0196 11.325 50.9863 11.325ZM52.2363 9.85C52.5863 9.86667 53.0696 9.88333 53.6863 9.9C54.3029 9.9 54.9779 9.9 55.7113 9.9C56.4613 9.88333 57.2029 9.86667 57.9363 9.85C58.6696 9.81667 59.3363 9.78333 59.9363 9.75C60.5529 9.71667 61.0279 9.68333 61.3613 9.65L61.5613 3.35C61.5779 3.18333 61.5029 3.1 61.3363 3.1L52.0863 3.35L52.2363 9.85ZM47.3863 18.725C47.2029 18.7417 47.0779 18.725 47.0113 18.675C46.9446 18.625 46.8946 18.55 46.8613 18.45C46.7946 18.2667 46.7363 18.0833 46.6863 17.9C46.6363 17.7 46.5779 17.4583 46.5113 17.175C46.4946 17.1417 46.5029 17.1 46.5363 17.05C46.5696 16.9833 46.6279 16.9583 46.7113 16.975C47.3446 17.0583 48.2113 17.1167 49.3113 17.15C50.4113 17.1667 51.6196 17.175 52.9363 17.175C53.4696 17.175 54.0113 17.175 54.5613 17.175C55.1279 17.175 55.7029 17.1667 56.2863 17.15V15.1C56.2863 14.45 56.2613 13.8833 56.2113 13.4C56.1613 12.9167 56.1029 12.5917 56.0363 12.425C55.9696 12.2583 56.0279 12.175 56.2113 12.175H57.7113C57.8113 12.175 57.8613 12.2417 57.8613 12.375C57.8613 12.3917 57.8613 12.4083 57.8613 12.425C57.8279 12.8583 57.8029 13.275 57.7863 13.675C57.7863 14.075 57.7779 14.4917 57.7613 14.925L57.6863 17.125C58.9696 17.0917 60.1946 17.05 61.3613 17C62.5446 16.9333 63.5946 16.8583 64.5113 16.775C65.4446 16.6917 66.1696 16.6083 66.6863 16.525C66.8529 16.4917 66.9613 16.5 67.0113 16.55C67.0613 16.6 67.0946 16.6667 67.1113 16.75L67.2613 17.95C67.2613 18.0333 67.2363 18.1083 67.1863 18.175C67.1363 18.2417 67.0029 18.275 66.7863 18.275C66.2196 18.2583 65.5613 18.25 64.8113 18.25C64.0613 18.25 63.2613 18.25 62.4113 18.25C60.3279 18.25 58.3113 18.275 56.3613 18.325C54.4113 18.3583 52.6613 18.4083 51.1113 18.475C49.5613 18.5417 48.3196 18.625 47.3863 18.725Z" fill="#272B4E"/>
<path d="M89.3853 23.125C88.3353 23.125 87.402 22.9333 86.5853 22.55C85.7853 22.1833 85.152 21.675 84.6853 21.025C84.2353 20.375 84.0103 19.625 84.0103 18.775C84.0103 17.9583 84.2603 17.2167 84.7603 16.55C85.2603 15.8833 85.927 15.3583 86.7603 14.975C87.5936 14.575 88.502 14.375 89.4853 14.375C90.4853 14.375 91.3936 14.5417 92.2103 14.875C93.0436 15.1917 93.702 15.675 94.1853 16.325C94.6853 16.9583 94.9186 17.7417 94.8853 18.675C94.8686 19.5417 94.6103 20.3083 94.1103 20.975C93.627 21.6417 92.9686 22.1667 92.1353 22.55C91.3186 22.9333 90.402 23.125 89.3853 23.125ZM77.5603 13.3L76.9353 12.75C76.8686 12.6833 76.8936 12.6083 77.0103 12.525C77.027 12.5083 77.0353 12.5 77.0353 12.5C78.2353 11.7167 79.277 10.8083 80.1603 9.775C81.0436 8.74167 81.7353 7.675 82.2353 6.575C82.7353 5.475 83.0103 4.43333 83.0603 3.45C82.827 3.46667 82.577 3.48333 82.3103 3.5C82.0436 3.51667 81.7436 3.54167 81.4103 3.575C80.9103 3.60833 80.477 3.64167 80.1103 3.675C79.7603 3.70833 79.3603 3.75833 78.9103 3.825C78.7436 3.84167 78.6353 3.825 78.5853 3.775C78.5353 3.70833 78.4936 3.63333 78.4603 3.55C78.4436 3.53333 78.4353 3.51667 78.4353 3.5C78.3853 3.36667 78.3353 3.21667 78.2853 3.05C78.252 2.88333 78.2103 2.69167 78.1603 2.475C78.1436 2.44167 78.152 2.4 78.1853 2.35C78.2186 2.3 78.2769 2.275 78.3603 2.275C78.7603 2.29167 79.202 2.31667 79.6853 2.35C80.1686 2.36667 80.652 2.36667 81.1353 2.35C81.8686 2.31667 82.6103 2.29167 83.3603 2.275C84.127 2.24167 84.8936 2.19167 85.6603 2.125C86.277 2.09167 86.8603 2.04167 87.4103 1.975C87.9603 1.90833 88.452 1.83333 88.8853 1.75C88.9353 1.73333 88.9936 1.74167 89.0603 1.775C89.127 1.79167 89.1686 1.84167 89.1853 1.925C89.2186 2.04167 89.252 2.21667 89.2853 2.45C89.3186 2.66667 89.3436 2.875 89.3603 3.075C89.3603 3.25833 89.2603 3.35 89.0603 3.35C88.8936 3.35 88.727 3.35 88.5603 3.35C88.3936 3.35 88.2186 3.35 88.0353 3.35C87.6853 3.35 87.327 3.35 86.9603 3.35C86.5936 3.33333 86.2103 3.33333 85.8103 3.35C85.6436 3.35 85.477 3.35833 85.3103 3.375C85.1603 3.375 85.0103 3.375 84.8603 3.375C84.7936 3.84167 84.677 4.35833 84.5103 4.925C84.3436 5.49167 84.102 6.09167 83.7853 6.725C84.452 7.19167 85.1353 7.70833 85.8353 8.275C86.552 8.825 87.1936 9.34167 87.7603 9.825C88.3436 10.2917 88.752 10.65 88.9853 10.9C89.0686 10.9667 89.127 11.05 89.1603 11.15C89.2103 11.25 89.1936 11.3583 89.1103 11.475C89.077 11.525 88.9936 11.6167 88.8603 11.75C88.727 11.8833 88.5936 12.0167 88.4603 12.15C88.327 12.2833 88.227 12.375 88.1603 12.425C88.027 12.5083 87.9186 12.5 87.8353 12.4C87.5186 11.9667 87.0936 11.4667 86.5603 10.9C86.0436 10.3167 85.4936 9.75 84.9103 9.2C84.3436 8.63333 83.802 8.15833 83.2853 7.775C82.7853 8.69167 82.1436 9.625 81.3603 10.575C80.5769 11.5083 79.5686 12.4083 78.3353 13.275C78.252 13.3417 78.1436 13.4 78.0103 13.45C77.877 13.4833 77.727 13.4333 77.5603 13.3ZM89.4353 21.825C90.4853 21.7917 91.3686 21.5083 92.0853 20.975C92.8186 20.4417 93.2019 19.6667 93.2353 18.65C93.2686 17.9833 93.1103 17.425 92.7603 16.975C92.427 16.525 91.9686 16.1833 91.3853 15.95C90.8186 15.7 90.177 15.575 89.4603 15.575C88.7436 15.5917 88.0936 15.7417 87.5103 16.025C86.9436 16.2917 86.4853 16.6583 86.1353 17.125C85.7853 17.5917 85.6103 18.1333 85.6103 18.75C85.6103 19.3833 85.7769 19.9333 86.1103 20.4C86.4603 20.85 86.9186 21.2 87.4853 21.45C88.0686 21.7 88.7186 21.825 89.4353 21.825ZM93.1853 14.025C93.1186 14.025 93.0853 13.9833 93.0853 13.9V7.375C92.7853 7.39167 92.4936 7.40833 92.2103 7.425C91.927 7.44167 91.6603 7.45833 91.4103 7.475C91.0103 7.49167 90.552 7.53333 90.0353 7.6C89.5186 7.65 89.0603 7.7 88.6603 7.75C88.477 7.78333 88.352 7.775 88.2853 7.725C88.2186 7.675 88.1686 7.6 88.1353 7.5C88.0686 7.28333 88.0103 7.08333 87.9603 6.9C87.927 6.7 87.8936 6.51667 87.8603 6.35C87.8603 6.21667 87.927 6.16667 88.0603 6.2C88.327 6.23333 88.7436 6.25833 89.3103 6.275C89.8936 6.275 90.527 6.26667 91.2103 6.25C91.8936 6.21667 92.5186 6.18333 93.0853 6.15V3.05C93.0853 2.41667 93.0603 1.83333 93.0103 1.3C92.977 0.766666 92.9186 0.416666 92.8353 0.25C92.802 0.166667 92.802 0.108333 92.8353 0.0750005C92.8853 0.0250002 92.9436 0 93.0103 0C93.1936 0 93.4436 0 93.7603 0C94.077 0 94.3686 0.00833323 94.6353 0.0249997C94.7186 0.0249997 94.7603 0.0916665 94.7603 0.225C94.7103 0.841667 94.677 1.38333 94.6603 1.85C94.6603 2.3 94.6603 2.825 94.6603 3.425V13.4C94.6603 13.65 94.6436 13.8 94.6103 13.85C94.5936 13.9 94.5436 13.9333 94.4603 13.95L93.1853 14.025Z" fill="#272B4E"/>
<path d="M115.657 13.25C115.591 13.25 115.557 13.2083 115.557 13.125V7.45C115.074 7.45 114.591 7.45833 114.107 7.475C113.641 7.475 113.191 7.48333 112.757 7.5V12.4C112.757 12.65 112.741 12.8 112.707 12.85C112.691 12.9 112.641 12.9333 112.557 12.95L111.357 13C111.291 13 111.257 12.9583 111.257 12.875V3.175C111.257 1.85833 111.182 1.00833 111.032 0.624999C110.999 0.541666 110.999 0.483333 111.032 0.45C111.082 0.4 111.141 0.375 111.207 0.375L112.682 0.399999C112.766 0.399999 112.807 0.474999 112.807 0.624999C112.774 1.15833 112.757 1.6 112.757 1.95C112.757 2.3 112.757 2.66667 112.757 3.05C112.757 3.16667 112.757 3.28333 112.757 3.4C112.757 3.5 112.757 3.61667 112.757 3.75V6.2C112.841 6.2 112.924 6.2 113.007 6.2C113.107 6.2 113.199 6.2 113.282 6.2C113.649 6.2 114.024 6.2 114.407 6.2C114.791 6.2 115.174 6.18333 115.557 6.15V2.55C115.557 1.31667 115.491 0.55 115.357 0.25C115.324 0.166667 115.324 0.108333 115.357 0.0750005C115.407 0.0250002 115.466 0 115.532 0L117.032 0.0249997C117.099 0.0249997 117.132 0.0916665 117.132 0.225C117.132 0.241667 117.132 0.258333 117.132 0.274999C117.116 0.725 117.099 1.10833 117.082 1.425C117.066 1.74167 117.057 2.05 117.057 2.35C117.057 2.63333 117.057 2.975 117.057 3.375V12.65C117.057 12.9 117.041 13.05 117.007 13.1C116.991 13.15 116.941 13.1833 116.857 13.2L115.657 13.25ZM99.8324 13.825C99.749 13.7583 99.6407 13.675 99.5074 13.575C99.374 13.475 99.2657 13.3833 99.1824 13.3C99.1157 13.2333 99.1324 13.1583 99.2324 13.075C100.332 12.375 101.241 11.5917 101.957 10.725C102.691 9.84167 103.249 8.94167 103.632 8.025C104.016 7.10833 104.232 6.26667 104.282 5.5L103.032 5.575C102.632 5.59167 102.232 5.63333 101.832 5.7C101.432 5.75 101.032 5.79167 100.632 5.825C100.516 5.84167 100.424 5.83333 100.357 5.8C100.307 5.76667 100.249 5.68333 100.182 5.55C100.049 5.23333 99.9407 4.88333 99.8574 4.5C99.8407 4.46667 99.849 4.425 99.8824 4.375C99.9157 4.30833 99.974 4.28333 100.057 4.3C100.441 4.33333 100.899 4.35833 101.432 4.375C101.982 4.39167 102.541 4.4 103.107 4.4C103.691 4.38333 104.207 4.36667 104.657 4.35C105.307 4.31667 105.949 4.275 106.582 4.225C107.232 4.175 107.816 4.11667 108.332 4.05C108.849 3.98333 109.241 3.91667 109.507 3.85C109.691 3.8 109.791 3.85833 109.807 4.025C109.841 4.15833 109.874 4.325 109.907 4.525C109.941 4.725 109.966 4.91667 109.982 5.1C109.999 5.28333 109.916 5.375 109.732 5.375C109.416 5.35833 109.007 5.35 108.507 5.35C108.007 5.35 107.591 5.35833 107.257 5.375C107.041 5.39167 106.824 5.4 106.607 5.4C106.391 5.4 106.166 5.40833 105.932 5.425C105.899 5.85833 105.816 6.30833 105.682 6.775C105.549 7.225 105.382 7.675 105.182 8.125C106.166 8.74167 107.066 9.35833 107.882 9.975C108.716 10.5917 109.357 11.075 109.807 11.425C109.891 11.4917 109.949 11.5667 109.982 11.65C110.016 11.7333 109.991 11.8417 109.907 11.975C109.641 12.3417 109.366 12.6417 109.082 12.875C108.982 12.9417 108.891 12.925 108.807 12.825C108.507 12.4417 108.124 12.0167 107.657 11.55C107.207 11.0833 106.724 10.625 106.207 10.175C105.707 9.725 105.216 9.34167 104.732 9.025C104.232 9.925 103.624 10.7833 102.907 11.6C102.191 12.4167 101.424 13.125 100.607 13.725C100.491 13.8083 100.366 13.8667 100.232 13.9C100.116 13.9333 99.9824 13.9083 99.8324 13.825ZM115.457 22.875C115.391 22.875 115.357 22.8333 115.357 22.75V16.325C115.357 16.2083 115.341 16.1333 115.307 16.1C115.291 16.0667 115.207 16.05 115.057 16.05C114.674 16.05 114.132 16.0583 113.432 16.075C112.732 16.0917 111.974 16.1167 111.157 16.15C110.357 16.1667 109.607 16.1917 108.907 16.225C108.224 16.2417 107.707 16.2583 107.357 16.275C106.941 16.3083 106.466 16.3417 105.932 16.375C105.416 16.4083 104.949 16.4417 104.532 16.475C104.366 16.4917 104.257 16.475 104.207 16.425C104.157 16.3583 104.116 16.2833 104.082 16.2C104.066 16.1833 104.057 16.1667 104.057 16.15L103.807 15.075C103.791 15.0417 103.799 15 103.832 14.95C103.866 14.9 103.924 14.8833 104.007 14.9C104.241 14.9333 104.632 14.9583 105.182 14.975C105.732 14.9917 106.374 15 107.107 15C107.857 15 108.641 14.9917 109.457 14.975C110.274 14.9417 111.057 14.9083 111.807 14.875C112.574 14.8417 113.249 14.8 113.832 14.75C114.432 14.7 114.874 14.6417 115.157 14.575C115.174 14.575 115.199 14.5667 115.232 14.55C115.266 14.55 115.299 14.55 115.332 14.55C115.366 14.5333 115.424 14.5333 115.507 14.55L116.982 14.775C117.066 14.7917 117.107 14.825 117.107 14.875C117.124 14.9083 117.132 14.9417 117.132 14.975C117.132 14.9917 117.132 15 117.132 15C117.082 15.4667 117.041 15.9417 117.007 16.425C116.991 16.9083 116.982 17.35 116.982 17.75L116.957 22.4C116.957 22.6 116.916 22.7167 116.832 22.75C116.766 22.7833 116.691 22.8083 116.607 22.825L115.457 22.875ZM104.582 2.475C104.349 2.475 104.032 2.45 103.632 2.4C103.232 2.35 102.832 2.275 102.432 2.175C102.049 2.05833 101.749 1.93333 101.532 1.8C101.482 1.75 101.466 1.65 101.482 1.5C101.516 1.35 101.574 1.20833 101.657 1.075C101.741 0.925 101.824 0.866666 101.907 0.9C103.024 1.08333 104.074 1.15833 105.057 1.125C106.041 1.09167 106.924 1.04167 107.707 0.974999C107.757 0.974999 107.807 0.974999 107.857 0.974999C107.907 0.958333 107.957 0.95 108.007 0.95C108.141 0.933333 108.207 0.983333 108.207 1.1C108.207 1.23333 108.191 1.43333 108.157 1.7C108.141 1.95 108.082 2.11667 107.982 2.2C107.932 2.23333 107.724 2.275 107.357 2.325C107.007 2.375 106.582 2.41667 106.082 2.45C105.582 2.48333 105.082 2.49167 104.582 2.475Z" fill="#272B4E"/>
</svg>
