<svg width="116" height="24" viewBox="0 0 116 24" fill="none" xmlns="http://www.w3.org/2000/svg">
<path d="M5.55 22.375C5.51667 22.375 5.475 22.3667 5.425 22.35C5.375 22.3333 5.35 22.2833 5.35 22.2C5.35 22.1667 5.35 22.0833 5.35 21.95C5.35 21.8 5.35 21.5583 5.35 21.225C5.36667 20.8917 5.36667 20.4 5.35 19.75C5.35 19.1 5.34167 18.2333 5.325 17.15C5.325 16.7167 5.275 16.2667 5.175 15.8C5.09167 15.3333 5.00833 15.0417 4.925 14.925C4.85833 14.825 4.84167 14.7417 4.875 14.675C4.925 14.6083 5.00833 14.575 5.125 14.575L6.725 14.625C7.25833 14.6417 7.925 14.65 8.725 14.65C9.525 14.65 10.3583 14.6417 11.225 14.625C12.0917 14.5917 12.875 14.5583 13.575 14.525C14.2917 14.4917 14.8083 14.45 15.125 14.4C15.1583 14.4 15.1917 14.3917 15.225 14.375C15.3417 14.3583 15.4417 14.3583 15.525 14.375L16.85 14.55C16.9833 14.5667 17.0333 14.6667 17 14.85C16.9833 15.0667 16.9583 15.35 16.925 15.7C16.9083 16.0333 16.8917 16.3667 16.875 16.7C16.8583 17.0167 16.85 17.2583 16.85 17.425L16.775 21.925C16.775 22.1583 16.65 22.275 16.4 22.275C15.9333 22.2583 15.3417 22.25 14.625 22.25C13.9083 22.25 13.15 22.25 12.35 22.25C11.55 22.25 10.7667 22.25 10 22.25C9.23333 22.25 8.55833 22.25 7.975 22.25C7.39167 22.2667 6.96667 22.2833 6.7 22.3L5.55 22.375ZM5.225 11.05C4.275 11.0667 3.4 10.8833 2.6 10.5C1.81667 10.1167 1.18333 9.575 0.7 8.875C0.233333 8.15833 0 7.33333 0 6.4C0 5.5 0.233333 4.69167 0.7 3.975C1.18333 3.24167 1.81667 2.65833 2.6 2.225C3.4 1.79167 4.28333 1.56667 5.25 1.55C6.2 1.5 7.06667 1.65833 7.85 2.025C8.65 2.39167 9.29167 2.93333 9.775 3.65C10.2583 4.35 10.5 5.2 10.5 6.2C10.5 7.11667 10.2583 7.94167 9.775 8.675C9.29167 9.39167 8.65 9.95833 7.85 10.375C7.05 10.7917 6.175 11.0167 5.225 11.05ZM6.85 20.925C7.08333 20.9417 7.475 20.9583 8.025 20.975C8.59167 20.975 9.23333 20.975 9.95 20.975C10.6667 20.9583 11.3833 20.9417 12.1 20.925C12.8167 20.9083 13.4583 20.8917 14.025 20.875C14.5917 20.8583 15 20.8333 15.25 20.8L15.3 16C15.3 15.8833 15.2833 15.8167 15.25 15.8C15.2167 15.7667 15.1583 15.75 15.075 15.75L6.85 15.85V20.925ZM5.25 9.775C6.25 9.74167 7.09167 9.40833 7.775 8.775C8.45833 8.125 8.8 7.26667 8.8 6.2C8.8 5.01667 8.45 4.15 7.75 3.6C7.06667 3.05 6.225 2.79167 5.225 2.825C4.20833 2.89167 3.35833 3.23333 2.675 3.85C1.99167 4.46667 1.65 5.30833 1.65 6.375C1.65 7.49167 1.99167 8.35 2.675 8.95C3.375 9.53333 4.23333 9.80833 5.25 9.775ZM15.3 12.975C15.2333 12.975 15.2 12.9333 15.2 12.85V3.05C15.2 2.41667 15.175 1.83333 15.125 1.3C15.0917 0.766666 15.0333 0.416666 14.95 0.25C14.9167 0.166667 14.9167 0.108333 14.95 0.0750005C15 0.0250002 15.0583 0 15.125 0C15.2917 0 15.5333 0 15.85 0C16.1833 0 16.4833 0.00833323 16.75 0.0249997C16.8333 0.0249997 16.875 0.0916665 16.875 0.225C16.825 0.841667 16.7917 1.38333 16.775 1.85C16.775 2.3 16.775 2.825 16.775 3.425V12.35C16.775 12.6 16.7583 12.75 16.725 12.8C16.7083 12.85 16.6583 12.8833 16.575 12.9L15.3 12.975Z" fill="#272B4E"/>
<path d="M21.4279 13.475L20.8029 12.925C20.7363 12.8583 20.7613 12.7833 20.8779 12.7C20.8946 12.6833 20.9029 12.675 20.9029 12.675C21.8363 12.0583 22.7113 11.2833 23.5279 10.35C24.3613 9.4 25.1029 8.40833 25.7529 7.375C26.4029 6.34167 26.9113 5.375 27.2779 4.475C27.3946 4.19167 27.4946 3.86667 27.5779 3.5C27.6779 3.11667 27.7529 2.75 27.8029 2.4C27.8696 2.05 27.9029 1.76667 27.9029 1.55C27.9029 1.4 27.9863 1.33333 28.1529 1.35C28.3363 1.38333 28.5946 1.45 28.9279 1.55C29.2613 1.65 29.5529 1.74167 29.8029 1.825C29.9029 1.875 29.9279 1.96667 29.8779 2.1C29.7613 2.43333 29.6029 2.86667 29.4029 3.4C29.2029 3.93333 29.0196 4.4 28.8529 4.8C28.7363 5.06667 28.6029 5.35 28.4529 5.65C28.3196 5.95 28.1613 6.26667 27.9779 6.6C28.4779 6.98333 29.0279 7.40833 29.6279 7.875C30.2446 8.325 30.8446 8.775 31.4279 9.225C32.0113 9.675 32.5279 10.0833 32.9779 10.45C33.4279 10.8167 33.7529 11.1 33.9529 11.3C34.0196 11.35 34.0696 11.4333 34.1029 11.55C34.1529 11.65 34.1363 11.7583 34.0529 11.875C33.9863 11.975 33.8279 12.1333 33.5779 12.35C33.3446 12.5667 33.1779 12.725 33.0779 12.825C32.9446 12.9083 32.8446 12.8917 32.7779 12.775C32.5279 12.425 32.1779 12.0167 31.7279 11.55C31.2946 11.0833 30.8196 10.6 30.3029 10.1C29.8029 9.6 29.2946 9.13333 28.7779 8.7C28.2613 8.26667 27.8029 7.90833 27.4029 7.625C26.8529 8.54167 26.1529 9.50833 25.3029 10.525C24.4696 11.525 23.4363 12.4917 22.2029 13.425C22.1196 13.4917 22.0113 13.55 21.8779 13.6C21.7446 13.65 21.5946 13.6083 21.4279 13.475ZM36.5529 16.375C36.4863 16.375 36.4529 16.3333 36.4529 16.25V3.05C36.4529 2.41667 36.4279 1.83333 36.3779 1.3C36.3446 0.766666 36.2863 0.416666 36.2029 0.25C36.1696 0.166667 36.1696 0.108333 36.2029 0.0750005C36.2529 0.0250002 36.3113 0 36.3779 0C36.6113 0 36.8863 0 37.2029 0C37.5196 0 37.7863 0.00833323 38.0029 0.0249997C38.0863 0.0249997 38.1279 0.0916665 38.1279 0.225C38.0779 0.841667 38.0446 1.38333 38.0279 1.85C38.0279 2.3 38.0279 2.825 38.0279 3.425V7.2C38.4946 7.2 38.9946 7.18333 39.5279 7.15C40.0613 7.11667 40.5529 7.075 41.0029 7.025C41.4696 6.975 41.8113 6.91667 42.0279 6.85C42.1779 6.83333 42.2613 6.88333 42.2779 7C42.3113 7.21667 42.3279 7.43333 42.3279 7.65C42.3446 7.86667 42.3613 8.08333 42.3779 8.3C42.3779 8.48333 42.3029 8.575 42.1529 8.575C41.9196 8.54167 41.5613 8.525 41.0779 8.525C40.6113 8.50833 40.1029 8.5 39.5529 8.5C39.0029 8.5 38.4946 8.51667 38.0279 8.55V15.75C38.0279 16 38.0113 16.15 37.9779 16.2C37.9613 16.25 37.9113 16.2833 37.8279 16.3L36.5529 16.375ZM28.5029 22.25C27.9696 22.25 27.5613 22.05 27.2779 21.65C27.0113 21.2667 26.8779 20.7167 26.8779 20V17.775C26.8779 17.1917 26.8529 16.7083 26.8029 16.325C26.7529 15.9417 26.7029 15.6667 26.6529 15.5C26.6029 15.3333 26.6613 15.25 26.8279 15.25C26.9279 15.25 27.0946 15.2583 27.3279 15.275C27.5779 15.275 27.8113 15.2833 28.0279 15.3C28.2613 15.3167 28.3863 15.325 28.4029 15.325C28.4863 15.325 28.5279 15.4083 28.5279 15.575C28.4946 15.9583 28.4696 16.3 28.4529 16.6C28.4529 16.8833 28.4529 17.2417 28.4529 17.675V19.85C28.4529 20.2667 28.5029 20.5583 28.6029 20.725C28.7196 20.875 28.9029 20.9583 29.1529 20.975C29.6196 20.9917 30.1863 21 30.8529 21C31.5363 21.0167 32.2446 21.0167 32.9779 21C33.7279 20.9667 34.4363 20.9333 35.1029 20.9C35.8029 20.8667 36.5279 20.8083 37.2779 20.725C38.0279 20.625 38.6029 20.525 39.0029 20.425C39.1696 20.3917 39.2779 20.4 39.3279 20.45C39.3779 20.5 39.4113 20.5667 39.4279 20.65L39.6279 21.825C39.6279 21.9083 39.6029 21.975 39.5529 22.025C39.5196 22.075 39.3863 22.1 39.1529 22.1C37.5029 22.1 35.8029 22.125 34.0529 22.175C32.3029 22.225 30.4529 22.25 28.5029 22.25Z" fill="#272B4E"/>
<path d="M49.226 9.725C49.1926 9.725 49.151 9.71667 49.101 9.7C49.051 9.68333 49.026 9.63333 49.026 9.55C49.026 9.5 49.0176 9.43333 49.001 9.35C49.001 9.25 48.9926 9.04167 48.976 8.725C48.976 8.39167 48.9676 7.85833 48.951 7.125C48.9343 6.39167 48.9176 5.35 48.901 4C48.8843 3.25 48.8343 2.60833 48.751 2.075C48.6676 1.54167 48.601 1.19167 48.551 1.025C48.501 0.858334 48.5593 0.775 48.726 0.775H50.351C50.4343 0.775 50.476 0.858334 50.476 1.025C50.4593 1.325 50.451 1.625 50.451 1.925C50.4676 2.225 50.476 2.525 50.476 2.825C50.476 2.975 50.476 3.125 50.476 3.275C50.476 3.40833 50.476 3.55 50.476 3.7V3.775C50.9093 3.79167 51.501 3.8 52.251 3.8C53.0176 3.8 53.8426 3.79167 54.726 3.775C55.626 3.74167 56.4926 3.70833 57.326 3.675C58.176 3.625 58.901 3.575 59.501 3.525V2.85C59.501 2.21667 59.476 1.70833 59.426 1.325C59.376 0.941666 59.3176 0.658333 59.251 0.475C59.2176 0.391667 59.2176 0.333333 59.251 0.299999C59.301 0.25 59.3593 0.225 59.426 0.225L61.001 0.25C61.0843 0.283333 61.126 0.366666 61.126 0.5C61.1093 0.95 61.0926 1.31667 61.076 1.6C61.0593 1.86667 61.051 2.13333 61.051 2.4C61.051 2.65 61.051 2.975 61.051 3.375V9.05C61.051 9.16667 61.001 9.25 60.901 9.3C60.8176 9.35 60.7343 9.375 60.651 9.375C59.201 9.375 57.8176 9.4 56.501 9.45C55.201 9.48333 54.0426 9.51667 53.026 9.55C52.0093 9.58333 51.201 9.6 50.601 9.6C50.501 9.6 50.3426 9.60833 50.126 9.625C49.926 9.64167 49.7343 9.66667 49.551 9.7C49.3676 9.71667 49.2593 9.725 49.226 9.725ZM54.426 21.3C54.3593 21.3 54.326 21.2583 54.326 21.175V13.6C52.326 13.6333 50.5093 13.6917 48.876 13.775C47.2426 13.8417 45.9593 13.9167 45.026 14C44.8426 14.0167 44.7176 14 44.651 13.95C44.5843 13.9 44.5343 13.825 44.501 13.725C44.4343 13.5417 44.376 13.3583 44.326 13.175C44.276 12.975 44.2176 12.7333 44.151 12.45C44.1343 12.4167 44.1426 12.375 44.176 12.325C44.2093 12.2583 44.2676 12.2333 44.351 12.25C44.9843 12.3333 45.8426 12.3917 46.926 12.425C48.026 12.4417 49.2343 12.45 50.551 12.45C51.8343 12.45 53.1843 12.4333 54.601 12.4C56.0343 12.3667 57.426 12.325 58.776 12.275C60.126 12.225 61.326 12.1583 62.376 12.075C63.4426 11.9917 64.251 11.9 64.801 11.8C64.9676 11.7667 65.076 11.775 65.126 11.825C65.176 11.875 65.2093 11.9417 65.226 12.025L65.376 13.225C65.376 13.3083 65.351 13.3833 65.301 13.45C65.251 13.5167 65.1176 13.55 64.901 13.55C64.3343 13.5333 63.676 13.525 62.926 13.525C62.176 13.525 61.376 13.525 60.526 13.525C59.7426 13.525 58.9676 13.5333 58.201 13.55C57.4343 13.55 56.676 13.5583 55.926 13.575V20.675C55.926 20.925 55.9093 21.075 55.876 21.125C55.8593 21.175 55.8093 21.2083 55.726 21.225C55.6593 21.225 55.5343 21.225 55.351 21.225C55.1676 21.2417 54.9843 21.2583 54.801 21.275C54.6176 21.2917 54.4926 21.3 54.426 21.3ZM50.601 8.275C51.151 8.29167 51.801 8.3 52.551 8.3C53.301 8.3 54.0926 8.29167 54.926 8.275C55.776 8.24167 56.5926 8.20833 57.376 8.175C58.176 8.125 58.8843 8.075 59.501 8.025V4.875C58.3176 4.89167 57.1426 4.90833 55.976 4.925C54.826 4.94167 53.7676 4.95833 52.801 4.975C51.851 4.99167 51.0843 5.01667 50.501 5.05L50.601 8.275Z" fill="#272B4E"/>
<path d="M87.751 23.125C86.701 23.125 85.7676 22.9333 84.951 22.55C84.151 22.1833 83.5176 21.675 83.051 21.025C82.601 20.375 82.376 19.625 82.376 18.775C82.376 17.9583 82.626 17.2167 83.126 16.55C83.626 15.8833 84.2926 15.3583 85.126 14.975C85.9593 14.575 86.8676 14.375 87.851 14.375C88.851 14.375 89.7593 14.5417 90.576 14.875C91.4093 15.1917 92.0676 15.675 92.551 16.325C93.051 16.9583 93.2843 17.7417 93.251 18.675C93.2343 19.5417 92.976 20.3083 92.476 20.975C91.9926 21.6417 91.3343 22.1667 90.501 22.55C89.6843 22.9333 88.7676 23.125 87.751 23.125ZM75.926 13.3L75.301 12.75C75.2343 12.6833 75.2593 12.6083 75.376 12.525C75.3926 12.5083 75.401 12.5 75.401 12.5C76.601 11.7167 77.6426 10.8083 78.526 9.775C79.4093 8.74167 80.101 7.675 80.601 6.575C81.101 5.475 81.376 4.43333 81.426 3.45C81.1926 3.46667 80.9426 3.48333 80.676 3.5C80.4093 3.51667 80.1093 3.54167 79.776 3.575C79.276 3.60833 78.8426 3.64167 78.476 3.675C78.126 3.70833 77.726 3.75833 77.276 3.825C77.1093 3.84167 77.001 3.825 76.951 3.775C76.901 3.70833 76.8593 3.63333 76.826 3.55C76.8093 3.53333 76.801 3.51667 76.801 3.5C76.751 3.36667 76.701 3.21667 76.651 3.05C76.6176 2.88333 76.576 2.69167 76.526 2.475C76.5093 2.44167 76.5176 2.4 76.551 2.35C76.5843 2.3 76.6426 2.275 76.726 2.275C77.126 2.29167 77.5676 2.31667 78.051 2.35C78.5343 2.36667 79.0176 2.36667 79.501 2.35C80.2343 2.31667 80.976 2.29167 81.726 2.275C82.4926 2.24167 83.2593 2.19167 84.026 2.125C84.6426 2.09167 85.226 2.04167 85.776 1.975C86.326 1.90833 86.8176 1.83333 87.251 1.75C87.301 1.73333 87.3593 1.74167 87.426 1.775C87.4926 1.79167 87.5343 1.84167 87.551 1.925C87.5843 2.04167 87.6176 2.21667 87.651 2.45C87.6843 2.66667 87.7093 2.875 87.726 3.075C87.726 3.25833 87.626 3.35 87.426 3.35C87.2593 3.35 87.0926 3.35 86.926 3.35C86.7593 3.35 86.5843 3.35 86.401 3.35C86.051 3.35 85.6926 3.35 85.326 3.35C84.9593 3.33333 84.576 3.33333 84.176 3.35C84.0093 3.35 83.8426 3.35833 83.676 3.375C83.526 3.375 83.376 3.375 83.226 3.375C83.1593 3.84167 83.0426 4.35833 82.876 4.925C82.7093 5.49167 82.4676 6.09167 82.151 6.725C82.8176 7.19167 83.501 7.70833 84.201 8.275C84.9176 8.825 85.5593 9.34167 86.126 9.825C86.7093 10.2917 87.1176 10.65 87.351 10.9C87.4343 10.9667 87.4926 11.05 87.526 11.15C87.576 11.25 87.5593 11.3583 87.476 11.475C87.4426 11.525 87.3593 11.6167 87.226 11.75C87.0926 11.8833 86.9593 12.0167 86.826 12.15C86.6926 12.2833 86.5926 12.375 86.526 12.425C86.3926 12.5083 86.2843 12.5 86.201 12.4C85.8843 11.9667 85.4593 11.4667 84.926 10.9C84.4093 10.3167 83.8593 9.75 83.276 9.2C82.7093 8.63333 82.1676 8.15833 81.651 7.775C81.151 8.69167 80.5093 9.625 79.726 10.575C78.9426 11.5083 77.9343 12.4083 76.701 13.275C76.6176 13.3417 76.5093 13.4 76.376 13.45C76.2426 13.4833 76.0926 13.4333 75.926 13.3ZM87.801 21.825C88.851 21.7917 89.7343 21.5083 90.451 20.975C91.1843 20.4417 91.5676 19.6667 91.601 18.65C91.6343 17.9833 91.476 17.425 91.126 16.975C90.7926 16.525 90.3343 16.1833 89.751 15.95C89.1843 15.7 88.5426 15.575 87.826 15.575C87.1093 15.5917 86.4593 15.7417 85.876 16.025C85.3093 16.2917 84.851 16.6583 84.501 17.125C84.151 17.5917 83.976 18.1333 83.976 18.75C83.976 19.3833 84.1426 19.9333 84.476 20.4C84.826 20.85 85.2843 21.2 85.851 21.45C86.4343 21.7 87.0843 21.825 87.801 21.825ZM91.551 14.025C91.4843 14.025 91.451 13.9833 91.451 13.9V7.375C91.151 7.39167 90.8593 7.40833 90.576 7.425C90.2926 7.44167 90.026 7.45833 89.776 7.475C89.376 7.49167 88.9176 7.53333 88.401 7.6C87.8843 7.65 87.426 7.7 87.026 7.75C86.8426 7.78333 86.7176 7.775 86.651 7.725C86.5843 7.675 86.5343 7.6 86.501 7.5C86.4343 7.28333 86.376 7.08333 86.326 6.9C86.2926 6.7 86.2593 6.51667 86.226 6.35C86.226 6.21667 86.2926 6.16667 86.426 6.2C86.6926 6.23333 87.1093 6.25833 87.676 6.275C88.2593 6.275 88.8926 6.26667 89.576 6.25C90.2593 6.21667 90.8843 6.18333 91.451 6.15V3.05C91.451 2.41667 91.426 1.83333 91.376 1.3C91.3426 0.766666 91.2843 0.416666 91.201 0.25C91.1676 0.166667 91.1676 0.108333 91.201 0.0750005C91.251 0.0250002 91.3093 0 91.376 0C91.5593 0 91.8093 0 92.126 0C92.4426 0 92.7343 0.00833323 93.001 0.0249997C93.0843 0.0249997 93.126 0.0916665 93.126 0.225C93.076 0.841667 93.0426 1.38333 93.026 1.85C93.026 2.3 93.026 2.825 93.026 3.425V13.4C93.026 13.65 93.0093 13.8 92.976 13.85C92.9593 13.9 92.9093 13.9333 92.826 13.95L91.551 14.025Z" fill="#272B4E"/>
<path d="M114.023 13.25C113.956 13.25 113.923 13.2083 113.923 13.125V7.45C113.44 7.45 112.956 7.45833 112.473 7.475C112.006 7.475 111.556 7.48333 111.123 7.5V12.4C111.123 12.65 111.106 12.8 111.073 12.85C111.056 12.9 111.006 12.9333 110.923 12.95L109.723 13C109.656 13 109.623 12.9583 109.623 12.875V3.175C109.623 1.85833 109.548 1.00833 109.398 0.624999C109.365 0.541666 109.365 0.483333 109.398 0.45C109.448 0.4 109.506 0.375 109.573 0.375L111.048 0.399999C111.131 0.399999 111.173 0.474999 111.173 0.624999C111.14 1.15833 111.123 1.6 111.123 1.95C111.123 2.3 111.123 2.66667 111.123 3.05C111.123 3.16667 111.123 3.28333 111.123 3.4C111.123 3.5 111.123 3.61667 111.123 3.75V6.2C111.206 6.2 111.29 6.2 111.373 6.2C111.473 6.2 111.565 6.2 111.648 6.2C112.015 6.2 112.39 6.2 112.773 6.2C113.156 6.2 113.54 6.18333 113.923 6.15V2.55C113.923 1.31667 113.856 0.55 113.723 0.25C113.69 0.166667 113.69 0.108333 113.723 0.0750005C113.773 0.0250002 113.831 0 113.898 0L115.398 0.0249997C115.465 0.0249997 115.498 0.0916665 115.498 0.225C115.498 0.241667 115.498 0.258333 115.498 0.274999C115.481 0.725 115.465 1.10833 115.448 1.425C115.431 1.74167 115.423 2.05 115.423 2.35C115.423 2.63333 115.423 2.975 115.423 3.375V12.65C115.423 12.9 115.406 13.05 115.373 13.1C115.356 13.15 115.306 13.1833 115.223 13.2L114.023 13.25ZM98.198 13.825C98.1147 13.7583 98.0064 13.675 97.873 13.575C97.7397 13.475 97.6314 13.3833 97.548 13.3C97.4814 13.2333 97.498 13.1583 97.598 13.075C98.698 12.375 99.6064 11.5917 100.323 10.725C101.056 9.84167 101.615 8.94167 101.998 8.025C102.381 7.10833 102.598 6.26667 102.648 5.5L101.398 5.575C100.998 5.59167 100.598 5.63333 100.198 5.7C99.798 5.75 99.398 5.79167 98.998 5.825C98.8814 5.84167 98.7897 5.83333 98.723 5.8C98.673 5.76667 98.6147 5.68333 98.548 5.55C98.4147 5.23333 98.3064 4.88333 98.223 4.5C98.2064 4.46667 98.2147 4.425 98.248 4.375C98.2814 4.30833 98.3397 4.28333 98.423 4.3C98.8064 4.33333 99.2647 4.35833 99.798 4.375C100.348 4.39167 100.906 4.4 101.473 4.4C102.056 4.38333 102.573 4.36667 103.023 4.35C103.673 4.31667 104.315 4.275 104.948 4.225C105.598 4.175 106.181 4.11667 106.698 4.05C107.215 3.98333 107.606 3.91667 107.873 3.85C108.056 3.8 108.156 3.85833 108.173 4.025C108.206 4.15833 108.24 4.325 108.273 4.525C108.306 4.725 108.331 4.91667 108.348 5.1C108.365 5.28333 108.281 5.375 108.098 5.375C107.781 5.35833 107.373 5.35 106.873 5.35C106.373 5.35 105.956 5.35833 105.623 5.375C105.406 5.39167 105.19 5.4 104.973 5.4C104.756 5.4 104.531 5.40833 104.298 5.425C104.265 5.85833 104.181 6.30833 104.048 6.775C103.915 7.225 103.748 7.675 103.548 8.125C104.531 8.74167 105.431 9.35833 106.248 9.975C107.081 10.5917 107.723 11.075 108.173 11.425C108.256 11.4917 108.315 11.5667 108.348 11.65C108.381 11.7333 108.356 11.8417 108.273 11.975C108.006 12.3417 107.731 12.6417 107.448 12.875C107.348 12.9417 107.256 12.925 107.173 12.825C106.873 12.4417 106.49 12.0167 106.023 11.55C105.573 11.0833 105.09 10.625 104.573 10.175C104.073 9.725 103.581 9.34167 103.098 9.025C102.598 9.925 101.99 10.7833 101.273 11.6C100.556 12.4167 99.7897 13.125 98.973 13.725C98.8564 13.8083 98.7314 13.8667 98.598 13.9C98.4814 13.9333 98.348 13.9083 98.198 13.825ZM113.823 22.875C113.756 22.875 113.723 22.8333 113.723 22.75V16.325C113.723 16.2083 113.706 16.1333 113.673 16.1C113.656 16.0667 113.573 16.05 113.423 16.05C113.04 16.05 112.498 16.0583 111.798 16.075C111.098 16.0917 110.34 16.1167 109.523 16.15C108.723 16.1667 107.973 16.1917 107.273 16.225C106.59 16.2417 106.073 16.2583 105.723 16.275C105.306 16.3083 104.831 16.3417 104.298 16.375C103.781 16.4083 103.315 16.4417 102.898 16.475C102.731 16.4917 102.623 16.475 102.573 16.425C102.523 16.3583 102.481 16.2833 102.448 16.2C102.431 16.1833 102.423 16.1667 102.423 16.15L102.173 15.075C102.156 15.0417 102.165 15 102.198 14.95C102.231 14.9 102.29 14.8833 102.373 14.9C102.606 14.9333 102.998 14.9583 103.548 14.975C104.098 14.9917 104.74 15 105.473 15C106.223 15 107.006 14.9917 107.823 14.975C108.64 14.9417 109.423 14.9083 110.173 14.875C110.94 14.8417 111.615 14.8 112.198 14.75C112.798 14.7 113.24 14.6417 113.523 14.575C113.54 14.575 113.565 14.5667 113.598 14.55C113.631 14.55 113.665 14.55 113.698 14.55C113.731 14.5333 113.79 14.5333 113.873 14.55L115.348 14.775C115.431 14.7917 115.473 14.825 115.473 14.875C115.49 14.9083 115.498 14.9417 115.498 14.975C115.498 14.9917 115.498 15 115.498 15C115.448 15.4667 115.406 15.9417 115.373 16.425C115.356 16.9083 115.348 17.35 115.348 17.75L115.323 22.4C115.323 22.6 115.281 22.7167 115.198 22.75C115.131 22.7833 115.056 22.8083 114.973 22.825L113.823 22.875ZM102.948 2.475C102.715 2.475 102.398 2.45 101.998 2.4C101.598 2.35 101.198 2.275 100.798 2.175C100.415 2.05833 100.115 1.93333 99.898 1.8C99.848 1.75 99.8314 1.65 99.848 1.5C99.8814 1.35 99.9397 1.20833 100.023 1.075C100.106 0.925 100.19 0.866666 100.273 0.9C101.39 1.08333 102.44 1.15833 103.423 1.125C104.406 1.09167 105.29 1.04167 106.073 0.974999C106.123 0.974999 106.173 0.974999 106.223 0.974999C106.273 0.958333 106.323 0.95 106.373 0.95C106.506 0.933333 106.573 0.983333 106.573 1.1C106.573 1.23333 106.556 1.43333 106.523 1.7C106.506 1.95 106.448 2.11667 106.348 2.2C106.298 2.23333 106.09 2.275 105.723 2.325C105.373 2.375 104.948 2.41667 104.448 2.45C103.948 2.48333 103.448 2.49167 102.948 2.475Z" fill="#272B4E"/>
</svg>
