<svg width="121" height="24" viewBox="0 0 121 24" fill="none" xmlns="http://www.w3.org/2000/svg">
<path d="M6.83333 23.1341C6.31667 23.1174 5.91667 22.9591 5.63333 22.6591C5.36667 22.3758 5.23333 21.8758 5.23333 21.1591V20.2341C5.23333 19.7174 5.14167 19.2091 4.95833 18.7091C4.925 18.6591 4.93333 18.5924 4.98333 18.5091C5.03333 18.4258 5.11667 18.3924 5.23333 18.4091C5.41667 18.4258 5.80833 18.4424 6.40833 18.4591C7.025 18.4758 7.75 18.4841 8.58333 18.4841C9.41667 18.4841 10.2667 18.4758 11.1333 18.4591C12.0167 18.4424 12.825 18.4174 13.5583 18.3841C14.3083 18.3508 14.8833 18.3091 15.2833 18.2591L15.3333 16.4841C15.3333 16.3008 15.25 16.2091 15.0833 16.2091C14.7167 16.2091 14.2083 16.2174 13.5583 16.2341C12.9083 16.2508 12.2167 16.2674 11.4833 16.2841C10.75 16.3008 10.05 16.3258 9.38333 16.3591C8.71667 16.3758 8.175 16.3924 7.75833 16.4091L5.53333 16.5091C5.38333 16.5258 5.275 16.5174 5.20833 16.4841C5.14167 16.4341 5.09167 16.3341 5.05833 16.1841L4.88333 15.3091C4.86667 15.2758 4.875 15.2341 4.90833 15.1841C4.94167 15.1341 5 15.1174 5.08333 15.1341C5.46667 15.1674 6.13333 15.1924 7.08333 15.2091C8.03333 15.2258 9.06667 15.2258 10.1833 15.2091C10.1667 15.0758 10.1583 14.9424 10.1583 14.8091C10.1583 14.6591 10.1583 14.5258 10.1583 14.4091L10.1333 12.5341C9.85 12.5508 9.575 12.5591 9.30833 12.5591C9.04167 12.5591 8.79167 12.5674 8.55833 12.5841C6.875 12.6341 5.35833 12.6924 4.00833 12.7591C2.65833 12.8258 1.61667 12.9008 0.883333 12.9841C0.7 13.0008 0.575 12.9841 0.508333 12.9341C0.441667 12.8841 0.391667 12.8091 0.358333 12.7091C0.291667 12.5258 0.233333 12.3424 0.183333 12.1591C0.133333 11.9758 0.075 11.7424 0.00833331 11.4591C-0.00833333 11.4258 2.23517e-08 11.3841 0.0333334 11.3341C0.0666667 11.2674 0.125 11.2424 0.208333 11.2591C0.841667 11.3424 1.70833 11.4091 2.80833 11.4591C3.90833 11.4924 5.11667 11.5008 6.43333 11.4841C7.45 11.4841 8.53333 11.4758 9.68333 11.4591C10.8333 11.4258 11.975 11.3924 13.1083 11.3591C14.2583 11.3091 15.3417 11.2591 16.3583 11.2091C17.3917 11.1591 18.3 11.1008 19.0833 11.0341C19.8833 10.9674 20.5 10.8924 20.9333 10.8091C21.1 10.7758 21.2083 10.7841 21.2583 10.8341C21.3083 10.8841 21.3417 10.9508 21.3583 11.0341L21.5083 12.1341C21.525 12.3674 21.3667 12.4758 21.0333 12.4591C20.5167 12.4258 19.8167 12.4091 18.9333 12.4091C18.0667 12.4091 17.125 12.4174 16.1083 12.4341L11.7333 12.5091V14.1591C11.7333 14.3591 11.725 14.5424 11.7083 14.7091C11.7083 14.8758 11.7 15.0341 11.6833 15.1841C13.0833 15.1341 14.2833 15.0424 15.2833 14.9091C15.3167 14.9091 15.35 14.9008 15.3833 14.8841C15.5 14.8674 15.5917 14.8674 15.6583 14.8841L16.9333 15.0591C17.0333 15.0758 17.0833 15.1508 17.0833 15.2841C17 16.0174 16.9333 16.6758 16.8833 17.2591C16.85 17.8424 16.8083 18.4508 16.7583 19.0841C16.7417 19.2508 16.7083 19.3591 16.6583 19.4091C16.6083 19.4591 16.5083 19.4841 16.3583 19.4841C15.7917 19.4841 15.0917 19.4924 14.2583 19.5091C13.4417 19.5091 12.575 19.5174 11.6583 19.5341C10.7417 19.5341 9.85833 19.5424 9.00833 19.5591C8.15833 19.5758 7.425 19.6008 6.80833 19.6341V21.0841C6.80833 21.4674 6.83333 21.6841 6.88333 21.7341C6.93333 21.8008 7.1 21.8424 7.38333 21.8591C8.46667 21.8924 9.6 21.9008 10.7833 21.8841C11.9667 21.8674 13.1 21.8258 14.1833 21.7591C14.8833 21.7258 15.5167 21.6758 16.0833 21.6091C16.65 21.5424 17.1417 21.4591 17.5583 21.3591C17.725 21.3258 17.8333 21.3341 17.8833 21.3841C17.9333 21.4341 17.9667 21.5008 17.9833 21.5841L18.1333 22.6841C18.1333 22.7674 18.1 22.8424 18.0333 22.9091C17.9833 22.9758 17.8417 23.0091 17.6083 23.0091C15.8417 23.0091 14.0167 23.0174 12.1333 23.0341C10.25 23.0674 8.48333 23.1008 6.83333 23.1341ZM4.33333 10.0841C4.33333 10.0841 4.325 10.0841 4.30833 10.0841C4.19167 10.1174 4.05833 10.1341 3.90833 10.1341C3.75833 10.1341 3.63333 10.0424 3.53333 9.85909L3.15833 9.13409C3.10833 9.05076 3.1 9.00076 3.13333 8.98409C3.18333 8.95076 3.23333 8.92576 3.28333 8.90909C3.3 8.90909 3.30833 8.90909 3.30833 8.90909C4.29167 8.72576 5.25 8.43409 6.18333 8.03409C7.11667 7.61743 7.94167 7.11743 8.65833 6.53409C9.39167 5.93409 9.91667 5.26742 10.2333 4.53409L8.33333 4.63409C8.06667 4.65076 7.68333 4.67576 7.18333 4.70909C6.7 4.74243 6.20833 4.77576 5.70833 4.80909C5.20833 4.84243 4.81667 4.87576 4.53333 4.90909C4.36667 4.94242 4.25833 4.93409 4.20833 4.88409C4.15833 4.81743 4.11667 4.73409 4.08333 4.63409C4.06667 4.61742 4.05833 4.60076 4.05833 4.58409C3.99167 4.40076 3.94167 4.24243 3.90833 4.10909C3.875 3.97576 3.825 3.77576 3.75833 3.50909C3.74167 3.47576 3.75 3.43409 3.78333 3.38409C3.81667 3.33409 3.875 3.31742 3.95833 3.33409C4.425 3.36743 5.05833 3.39243 5.85833 3.40909C6.65833 3.42576 7.55 3.42576 8.53333 3.40909C9.53333 3.37576 10.5583 3.33409 11.6083 3.28409C12.6583 3.23409 13.6667 3.16742 14.6333 3.08409C15.6 3.00076 16.45 2.90076 17.1833 2.78409C17.2333 2.76742 17.2917 2.76742 17.3583 2.78409C17.425 2.80076 17.4667 2.85076 17.4833 2.93409C17.5167 3.05076 17.5417 3.18409 17.5583 3.33409C17.575 3.46742 17.6083 3.74242 17.6583 4.15909C17.6917 4.34242 17.5917 4.43409 17.3583 4.43409L14.2583 4.40909C13.9917 4.40909 13.6667 4.41743 13.2833 4.43409C12.9 4.43409 12.4917 4.44243 12.0583 4.45909C11.8917 4.95909 11.625 5.45909 11.2583 5.95909C12.525 6.20909 13.7333 6.50076 14.8833 6.83409C16.0333 7.16743 16.9917 7.50076 17.7583 7.83409C17.8583 7.86743 17.95 7.92576 18.0333 8.00909C18.1333 8.07576 18.1583 8.17576 18.1083 8.30909C18.0583 8.45909 17.9833 8.64242 17.8833 8.85909C17.8 9.07576 17.6917 9.28409 17.5583 9.48409C17.4917 9.60076 17.4083 9.61743 17.3083 9.53409C16.9583 9.28409 16.5 9.02576 15.9333 8.75909C15.3833 8.49243 14.7833 8.23409 14.1333 7.98409C13.4833 7.73409 12.8333 7.50909 12.1833 7.30909C11.55 7.10909 10.9833 6.95909 10.4833 6.85909C9.71667 7.62576 8.79167 8.28409 7.70833 8.83409C6.625 9.38409 5.5 9.80076 4.33333 10.0841ZM10.0333 1.65909C9.8 1.62576 9.46667 1.58409 9.03333 1.53409C8.61667 1.48409 8.2 1.40909 7.78333 1.30909C7.38333 1.20909 7.06667 1.08409 6.83333 0.934091C6.78333 0.884091 6.76667 0.784092 6.78333 0.634092C6.8 0.467425 6.84167 0.317425 6.90833 0.184091C6.975 0.0340914 7.05 -0.0242422 7.13333 0.00909069C8.58333 0.209091 9.94167 0.300758 11.2083 0.284092C12.475 0.250758 13.5167 0.200758 14.3333 0.134092C14.4667 0.117425 14.55 0.125758 14.5833 0.159092C14.6167 0.175758 14.6417 0.225758 14.6583 0.309091C14.6583 0.325758 14.6583 0.367424 14.6583 0.434091C14.6583 0.600758 14.65 0.800758 14.6333 1.03409C14.6333 1.26742 14.5833 1.40076 14.4833 1.43409C14.3833 1.46742 14.075 1.51742 13.5583 1.58409C13.0417 1.63409 12.4583 1.66742 11.8083 1.68409C11.1583 1.70076 10.5667 1.69242 10.0333 1.65909Z" fill="black"/>
<path d="M24.1824 14.1091L23.5574 13.5591C23.4907 13.4924 23.5157 13.4174 23.6324 13.3341C23.649 13.3174 23.6574 13.3091 23.6574 13.3091C24.5907 12.6924 25.4657 11.9174 26.2824 10.9841C27.1157 10.0341 27.8574 9.04243 28.5074 8.00909C29.1574 6.97576 29.6657 6.00909 30.0324 5.10909C30.149 4.82576 30.249 4.50076 30.3324 4.13409C30.4324 3.75076 30.5074 3.38409 30.5574 3.03409C30.624 2.68409 30.6574 2.40076 30.6574 2.18409C30.6574 2.03409 30.7407 1.96742 30.9074 1.98409C31.0907 2.01743 31.349 2.08409 31.6824 2.18409C32.0157 2.28409 32.3074 2.37576 32.5574 2.45909C32.6574 2.50909 32.6824 2.60076 32.6324 2.73409C32.5157 3.06742 32.3574 3.50076 32.1574 4.03409C31.9574 4.56742 31.774 5.03409 31.6074 5.43409C31.4907 5.70076 31.3574 5.98409 31.2074 6.28409C31.074 6.58409 30.9157 6.90076 30.7324 7.23409C31.2324 7.61743 31.7824 8.04242 32.3824 8.50909C32.999 8.95909 33.599 9.40909 34.1824 9.85909C34.7657 10.3091 35.2824 10.7174 35.7324 11.0841C36.1824 11.4508 36.5074 11.7341 36.7074 11.9341C36.774 11.9841 36.824 12.0674 36.8574 12.1841C36.9074 12.2841 36.8907 12.3924 36.8074 12.5091C36.7407 12.6091 36.5824 12.7674 36.3324 12.9841C36.099 13.2008 35.9324 13.3591 35.8324 13.4591C35.699 13.5424 35.599 13.5258 35.5324 13.4091C35.2824 13.0591 34.9324 12.6508 34.4824 12.1841C34.049 11.7174 33.574 11.2341 33.0574 10.7341C32.5574 10.2341 32.049 9.76743 31.5324 9.33409C31.0157 8.90076 30.5574 8.54243 30.1574 8.25909C29.6074 9.17576 28.9074 10.1424 28.0574 11.1591C27.224 12.1591 26.1907 13.1258 24.9574 14.0591C24.874 14.1258 24.7657 14.1841 24.6324 14.2341C24.499 14.2841 24.349 14.2424 24.1824 14.1091ZM39.3074 17.0091C39.2407 17.0091 39.2074 16.9674 39.2074 16.8841V3.68409C39.2074 3.05076 39.1824 2.46742 39.1324 1.93409C39.099 1.40076 39.0407 1.05076 38.9574 0.884091C38.924 0.800758 38.924 0.742425 38.9574 0.709092C39.0074 0.659092 39.0657 0.634092 39.1324 0.634092C39.3657 0.634092 39.6407 0.634092 39.9574 0.634092C40.274 0.634092 40.5407 0.642425 40.7574 0.659091C40.8407 0.659091 40.8824 0.725758 40.8824 0.859092C40.8324 1.47576 40.799 2.01742 40.7824 2.48409C40.7824 2.93409 40.7824 3.45909 40.7824 4.05909V7.83409C41.249 7.83409 41.749 7.81742 42.2824 7.78409C42.8157 7.75076 43.3074 7.70909 43.7574 7.65909C44.224 7.60909 44.5657 7.55076 44.7824 7.48409C44.9324 7.46742 45.0157 7.51743 45.0324 7.63409C45.0657 7.85076 45.0824 8.06742 45.0824 8.28409C45.099 8.50076 45.1157 8.71742 45.1324 8.93409C45.1324 9.11743 45.0574 9.20909 44.9074 9.20909C44.674 9.17576 44.3157 9.15909 43.8324 9.15909C43.3657 9.14243 42.8574 9.13409 42.3074 9.13409C41.7574 9.13409 41.249 9.15076 40.7824 9.18409V16.3841C40.7824 16.6341 40.7657 16.7841 40.7324 16.8341C40.7157 16.8841 40.6657 16.9174 40.5824 16.9341L39.3074 17.0091ZM31.2574 22.8841C30.724 22.8841 30.3157 22.6841 30.0324 22.2841C29.7657 21.9008 29.6324 21.3508 29.6324 20.6341V18.4091C29.6324 17.8258 29.6074 17.3424 29.5574 16.9591C29.5074 16.5758 29.4574 16.3008 29.4074 16.1341C29.3574 15.9674 29.4157 15.8841 29.5824 15.8841C29.6824 15.8841 29.849 15.8924 30.0824 15.9091C30.3324 15.9091 30.5657 15.9174 30.7824 15.9341C31.0157 15.9508 31.1407 15.9591 31.1574 15.9591C31.2407 15.9591 31.2824 16.0424 31.2824 16.2091C31.249 16.5924 31.224 16.9341 31.2074 17.2341C31.2074 17.5174 31.2074 17.8758 31.2074 18.3091V20.4841C31.2074 20.9008 31.2574 21.1924 31.3574 21.3591C31.474 21.5091 31.6574 21.5924 31.9074 21.6091C32.374 21.6258 32.9407 21.6341 33.6074 21.6341C34.2907 21.6508 34.999 21.6508 35.7324 21.6341C36.4824 21.6008 37.1907 21.5674 37.8574 21.5341C38.5574 21.5008 39.2824 21.4424 40.0324 21.3591C40.7824 21.2591 41.3574 21.1591 41.7574 21.0591C41.924 21.0258 42.0324 21.0341 42.0824 21.0841C42.1324 21.1341 42.1657 21.2008 42.1824 21.2841L42.3824 22.4591C42.3824 22.5424 42.3574 22.6091 42.3074 22.6591C42.274 22.7091 42.1407 22.7341 41.9074 22.7341C40.2574 22.7341 38.5574 22.7591 36.8074 22.8091C35.0574 22.8591 33.2074 22.8841 31.2574 22.8841Z" fill="black"/>
<path d="M66.2447 23.7591C65.1947 23.7591 64.2613 23.5674 63.4447 23.1841C62.6447 22.8174 62.0113 22.3091 61.5447 21.6591C61.0947 21.0091 60.8697 20.2591 60.8697 19.4091C60.8697 18.5924 61.1197 17.8508 61.6197 17.1841C62.1197 16.5174 62.7863 15.9924 63.6197 15.6091C64.453 15.2091 65.3613 15.0091 66.3447 15.0091C67.3447 15.0091 68.253 15.1758 69.0697 15.5091C69.903 15.8258 70.5613 16.3091 71.0447 16.9591C71.5447 17.5924 71.778 18.3758 71.7447 19.3091C71.728 20.1758 71.4697 20.9424 70.9697 21.6091C70.4863 22.2758 69.828 22.8008 68.9947 23.1841C68.178 23.5674 67.2613 23.7591 66.2447 23.7591ZM55.1697 14.0591L54.5447 13.5091C54.478 13.4424 54.503 13.3674 54.6197 13.2841C54.6363 13.2674 54.6447 13.2591 54.6447 13.2591C55.9113 12.4591 56.9863 11.5341 57.8697 10.4841C58.753 9.43409 59.428 8.35076 59.8947 7.23409C60.378 6.10076 60.6363 5.04242 60.6697 4.05909L58.7447 4.20909C58.328 4.24242 57.953 4.28409 57.6197 4.33409C57.2863 4.38409 56.9113 4.42576 56.4947 4.45909C56.328 4.47576 56.2197 4.45909 56.1697 4.40909C56.1197 4.34243 56.078 4.26743 56.0447 4.18409C56.028 4.16742 56.0197 4.15076 56.0197 4.13409C55.953 3.95076 55.903 3.80909 55.8697 3.70909C55.853 3.59242 55.8113 3.39242 55.7447 3.10909C55.728 3.07576 55.7363 3.03409 55.7697 2.98409C55.803 2.93409 55.8613 2.90909 55.9447 2.90909C56.4113 2.94243 56.8697 2.96742 57.3197 2.98409C57.7863 2.98409 58.3113 2.97576 58.8947 2.95909C59.4947 2.94242 60.003 2.92576 60.4197 2.90909C60.853 2.89242 61.2697 2.87576 61.6697 2.85909C62.0697 2.82576 62.528 2.79243 63.0447 2.75909C63.7947 2.70909 64.4613 2.65076 65.0447 2.58409C65.6447 2.50076 66.1197 2.43409 66.4697 2.38409C66.5197 2.36742 66.578 2.37576 66.6447 2.40909C66.7113 2.42576 66.753 2.47576 66.7697 2.55909C66.7863 2.65909 66.803 2.77576 66.8197 2.90909C66.853 3.02576 66.878 3.15076 66.8947 3.28409L66.9447 3.70909C66.978 3.89243 66.878 3.98409 66.6447 3.98409H66.6197C66.103 3.96743 65.5947 3.95909 65.0947 3.95909C64.5947 3.94243 64.0947 3.94243 63.5947 3.95909C63.428 3.95909 63.253 3.96743 63.0697 3.98409C62.8863 3.98409 62.6863 3.98409 62.4697 3.98409C62.4363 4.46742 62.328 5.02576 62.1447 5.65909C61.978 6.29243 61.7197 6.97576 61.3697 7.70909C61.8697 8.00909 62.403 8.35076 62.9697 8.73409C63.553 9.11743 64.1197 9.50076 64.6697 9.88409C65.2197 10.2508 65.703 10.5924 66.1197 10.9091C66.553 11.2258 66.8613 11.4674 67.0447 11.6341C67.1113 11.6841 67.1697 11.7674 67.2197 11.8841C67.2697 11.9841 67.253 12.0924 67.1697 12.2091C67.0863 12.2924 66.9363 12.4591 66.7197 12.7091C66.5197 12.9424 66.3613 13.1091 66.2447 13.2091C66.1113 13.2924 66.0113 13.2758 65.9447 13.1591C65.6113 12.7258 65.1447 12.2341 64.5447 11.6841C63.9613 11.1341 63.3363 10.5924 62.6697 10.0591C62.003 9.52576 61.3947 9.07576 60.8447 8.70909C60.3447 9.60909 59.6947 10.5091 58.8947 11.4091C58.1113 12.3091 57.128 13.1841 55.9447 14.0341C55.8613 14.1008 55.753 14.1591 55.6197 14.2091C55.4863 14.2424 55.3363 14.1924 55.1697 14.0591ZM66.2947 22.4591C67.3447 22.4258 68.228 22.1424 68.9447 21.6091C69.678 21.0758 70.0613 20.3008 70.0947 19.2841C70.128 18.6174 69.9697 18.0591 69.6197 17.6091C69.2863 17.1591 68.828 16.8174 68.2447 16.5841C67.678 16.3341 67.0363 16.2091 66.3197 16.2091C65.6197 16.2258 64.978 16.3758 64.3947 16.6591C63.8113 16.9258 63.3447 17.2924 62.9947 17.7591C62.6447 18.2258 62.4697 18.7674 62.4697 19.3841C62.4697 20.0174 62.6363 20.5674 62.9697 21.0341C63.3197 21.4841 63.7863 21.8341 64.3697 22.0841C64.953 22.3341 65.5947 22.4591 66.2947 22.4591ZM70.0447 14.6591C69.978 14.6591 69.9447 14.6174 69.9447 14.5341V3.68409C69.9447 3.05076 69.9197 2.46742 69.8697 1.93409C69.8363 1.40076 69.778 1.05076 69.6947 0.884091C69.6613 0.800758 69.6613 0.742425 69.6947 0.709092C69.7447 0.659092 69.803 0.634092 69.8697 0.634092C70.053 0.634092 70.303 0.634092 70.6197 0.634092C70.9363 0.634092 71.228 0.642425 71.4947 0.659091C71.578 0.659091 71.6197 0.725758 71.6197 0.859092C71.5697 1.47576 71.5363 2.01742 71.5197 2.48409C71.5197 2.93409 71.5197 3.45909 71.5197 4.05909V7.33409C71.9697 7.33409 72.4613 7.31743 72.9947 7.28409C73.528 7.25076 74.0197 7.20909 74.4697 7.15909C74.9363 7.10909 75.2863 7.05076 75.5197 6.98409C75.6697 6.96743 75.753 7.01743 75.7697 7.13409C75.803 7.35076 75.8197 7.56743 75.8197 7.78409C75.8363 8.00076 75.853 8.21743 75.8697 8.43409C75.8697 8.61743 75.7947 8.70909 75.6447 8.70909C75.4113 8.67576 75.053 8.65909 74.5697 8.65909C74.0863 8.64242 73.5697 8.63409 73.0197 8.63409C72.4863 8.63409 71.9863 8.65076 71.5197 8.68409V14.0341C71.5197 14.2841 71.503 14.4341 71.4697 14.4841C71.453 14.5341 71.403 14.5674 71.3197 14.5841L70.0447 14.6591Z" fill="black"/>
<path d="M80.3927 16.5091C80.026 16.4924 79.7427 16.3091 79.5427 15.9591C79.3427 15.6091 79.2427 15.1674 79.2427 14.6341V11.0091C79.2427 10.6758 79.2344 10.3174 79.2177 9.93409C79.201 9.55076 79.1344 9.19243 79.0177 8.85909C78.9344 8.65909 79.0094 8.57576 79.2427 8.60909C79.4427 8.62576 79.7844 8.63409 80.2677 8.63409C80.751 8.63409 81.2927 8.62576 81.8927 8.60909C82.5094 8.59243 83.1094 8.56742 83.6927 8.53409C84.276 8.50076 84.776 8.46743 85.1927 8.43409C85.6094 8.40076 85.851 8.36743 85.9177 8.33409C85.9677 7.96743 86.0177 7.53409 86.0677 7.03409C86.1177 6.51743 86.1677 6.00909 86.2177 5.50909C86.2844 4.99242 86.326 4.55909 86.3427 4.20909C86.3427 4.10909 86.301 4.05909 86.2177 4.05909C85.501 4.05909 84.8677 4.08409 84.3177 4.13409C83.7677 4.16743 83.1427 4.20076 82.4427 4.23409C82.0427 4.26743 81.6094 4.30076 81.1427 4.33409C80.676 4.36742 80.2427 4.40076 79.8427 4.43409C79.6594 4.45076 79.5427 4.44242 79.4927 4.40909C79.4594 4.35909 79.426 4.28409 79.3927 4.18409L79.1177 3.18409C79.101 3.15076 79.1094 3.11743 79.1427 3.08409C79.176 3.03409 79.2177 3.01742 79.2677 3.03409C79.3844 3.05076 79.6594 3.05909 80.0927 3.05909C80.526 3.05909 81.0344 3.05076 81.6177 3.03409C82.2177 3.01742 82.8344 2.99242 83.4677 2.95909C84.1177 2.90909 84.7094 2.86742 85.2427 2.83409C85.776 2.78409 86.1927 2.72576 86.4927 2.65909C86.576 2.62576 86.6427 2.61742 86.6927 2.63409C86.7427 2.63409 86.7844 2.63409 86.8177 2.63409C86.851 2.65076 86.876 2.65909 86.8927 2.65909L88.0677 2.95909C88.201 2.99242 88.251 3.05076 88.2177 3.13409C88.201 3.26742 88.1677 3.47576 88.1177 3.75909C88.0677 4.02576 88.0177 4.30076 87.9677 4.58409C87.9177 4.86742 87.876 5.10076 87.8427 5.28409L87.2677 9.43409C87.251 9.58409 87.1677 9.65909 87.0177 9.65909C86.7844 9.65909 86.3844 9.67576 85.8177 9.70909C85.251 9.72576 84.626 9.75076 83.9427 9.78409C83.276 9.81743 82.651 9.85076 82.0677 9.88409C81.501 9.91742 81.0844 9.94243 80.8177 9.95909V14.4591C80.8177 14.6258 80.8427 14.7424 80.8927 14.8091C80.9594 14.8591 81.0344 14.8924 81.1177 14.9091C81.6344 14.9591 82.251 14.9758 82.9677 14.9591C83.701 14.9258 84.4677 14.8591 85.2677 14.7591C86.0844 14.6591 86.8927 14.5258 87.6927 14.3591C88.4927 14.1924 89.2344 13.9924 89.9177 13.7591C90.101 13.7091 90.1927 13.7258 90.1927 13.8091L90.2427 14.1341L90.3177 14.6841C90.3177 14.7674 90.301 14.8424 90.2677 14.9091C90.251 14.9758 90.1844 15.0258 90.0677 15.0591C89.351 15.2924 88.4594 15.5174 87.3927 15.7341C86.326 15.9508 85.1844 16.1258 83.9677 16.2591C82.751 16.3924 81.5594 16.4758 80.3927 16.5091ZM93.6677 21.8841C93.601 21.8841 93.5677 21.8424 93.5677 21.7591V11.8091L91.7427 11.9091C91.3427 11.9258 90.9177 11.9591 90.4677 12.0091C90.0177 12.0424 89.5927 12.0841 89.1927 12.1341C89.0094 12.1674 88.8844 12.1591 88.8177 12.1091C88.751 12.0591 88.701 11.9841 88.6677 11.8841C88.601 11.6674 88.551 11.4674 88.5177 11.2841C88.4844 11.0841 88.451 10.9091 88.4177 10.7591C88.4177 10.6258 88.4844 10.5758 88.6177 10.6091C88.8844 10.6424 89.3094 10.6674 89.8927 10.6841C90.476 10.7008 91.101 10.7008 91.7677 10.6841C92.4344 10.6508 93.0344 10.6174 93.5677 10.5841V6.65909L92.1177 6.75909C91.7177 6.77576 91.2927 6.80909 90.8427 6.85909C90.3927 6.89242 89.9677 6.93409 89.5677 6.98409C89.3844 7.01742 89.2594 7.00909 89.1927 6.95909C89.126 6.90909 89.076 6.83409 89.0427 6.73409C88.976 6.51743 88.926 6.31743 88.8927 6.13409C88.8594 5.95076 88.826 5.78409 88.7927 5.63409C88.7927 5.50076 88.8594 5.45076 88.9927 5.48409C89.276 5.51742 89.6844 5.54242 90.2177 5.55909C90.751 5.55909 91.3177 5.55076 91.9177 5.53409C92.5344 5.50076 93.0844 5.46743 93.5677 5.43409V3.70909C93.5677 3.07576 93.5427 2.49242 93.4927 1.95909C93.4594 1.40909 93.401 1.05076 93.3177 0.884091C93.2844 0.800758 93.2844 0.742425 93.3177 0.709092C93.3677 0.659092 93.426 0.634092 93.4927 0.634092C93.5927 0.634092 93.7594 0.642425 93.9927 0.659091C94.2427 0.659091 94.4844 0.667425 94.7177 0.684091C94.951 0.684091 95.0844 0.684091 95.1177 0.684091C95.201 0.684091 95.2427 0.750758 95.2427 0.884091C95.1927 1.50076 95.1594 2.04242 95.1427 2.50909C95.1427 2.95909 95.1427 3.48409 95.1427 4.08409V21.2591C95.1427 21.5091 95.126 21.6591 95.0927 21.7091C95.076 21.7591 95.026 21.7924 94.9427 21.8091L93.6677 21.8841Z" fill="black"/>
<path d="M104.701 23.1341C104.668 23.1341 104.626 23.1258 104.576 23.1091C104.527 23.0924 104.501 23.0424 104.501 22.9591C104.501 22.9258 104.501 22.8424 104.501 22.7091C104.501 22.3924 104.501 21.8341 104.501 21.0341C104.518 20.2341 104.501 19.1508 104.451 17.7841C104.435 17.3508 104.385 16.9008 104.301 16.4341C104.218 15.9674 104.135 15.6758 104.051 15.5591C103.985 15.4591 103.968 15.3758 104.001 15.3091C104.051 15.2424 104.135 15.2091 104.251 15.2091L105.851 15.2841C106.268 15.3008 106.793 15.3091 107.426 15.3091C108.06 15.3091 108.726 15.3008 109.426 15.2841C110.143 15.2674 110.835 15.2508 111.501 15.2341C112.185 15.2008 112.793 15.1674 113.326 15.1341C113.86 15.1008 114.26 15.0674 114.526 15.0341C114.56 15.0341 114.593 15.0258 114.626 15.0091C114.743 14.9924 114.843 14.9924 114.926 15.0091L116.227 15.1841C116.36 15.2008 116.41 15.3008 116.376 15.4841C116.36 15.7008 116.335 15.9841 116.301 16.3341C116.285 16.6674 116.268 17.0008 116.251 17.3341C116.235 17.6508 116.227 17.8924 116.227 18.0591L116.151 22.6841C116.151 22.9174 116.026 23.0341 115.776 23.0341C115.293 23.0174 114.685 23.0091 113.951 23.0091C113.235 23.0091 112.46 23.0091 111.626 23.0091C110.81 23.0091 110.002 23.0091 109.201 23.0091C108.418 23.0091 107.726 23.0091 107.126 23.0091C106.526 23.0258 106.093 23.0424 105.826 23.0591L104.701 23.1341ZM105.976 21.6841C106.21 21.7008 106.618 21.7091 107.201 21.7091C107.785 21.7258 108.443 21.7258 109.176 21.7091C109.926 21.7091 110.668 21.7008 111.401 21.6841C112.151 21.6674 112.818 21.6508 113.401 21.6341C113.985 21.6174 114.401 21.5924 114.651 21.5591L114.701 16.5841C114.701 16.4674 114.685 16.4008 114.651 16.3841C114.618 16.3508 114.56 16.3341 114.477 16.3341L105.976 16.4841V21.6841ZM100.126 11.9841C99.9432 12.0008 99.8182 11.9841 99.7515 11.9341C99.6848 11.8841 99.6348 11.8091 99.6015 11.7091C99.5348 11.5258 99.4765 11.3424 99.4265 11.1591C99.3765 10.9758 99.3182 10.7424 99.2515 10.4591C99.2348 10.4258 99.2432 10.3841 99.2765 10.3341C99.3098 10.2674 99.3682 10.2424 99.4515 10.2591C100.085 10.3424 100.951 10.4091 102.051 10.4591C103.151 10.4924 104.36 10.5008 105.676 10.4841C106.693 10.4841 107.776 10.4758 108.926 10.4591C110.076 10.4258 111.218 10.3924 112.351 10.3591C113.501 10.3091 114.585 10.2591 115.602 10.2091C116.635 10.1591 117.543 10.1008 118.326 10.0341C119.127 9.96743 119.743 9.89242 120.176 9.80909C120.343 9.77576 120.451 9.78409 120.501 9.83409C120.551 9.88409 120.585 9.95076 120.602 10.0341L120.751 11.1341C120.768 11.3674 120.61 11.4758 120.276 11.4591C119.76 11.4258 119.06 11.4091 118.176 11.4091C117.31 11.4091 116.368 11.4174 115.351 11.4341C114.451 11.4341 113.527 11.4508 112.576 11.4841C111.643 11.5008 110.76 11.5174 109.926 11.5341C109.11 11.5508 108.401 11.5674 107.801 11.5841C106.118 11.6341 104.601 11.6924 103.251 11.7591C101.901 11.8258 100.86 11.9008 100.126 11.9841ZM113.851 9.00909C113.701 9.00909 113.651 8.92576 113.701 8.75909C113.801 8.45909 113.91 8.05076 114.026 7.53409C114.16 7.00076 114.276 6.43409 114.376 5.83409C114.493 5.23409 114.593 4.66742 114.676 4.13409C114.76 3.60076 114.81 3.18409 114.826 2.88409C114.843 2.70076 114.76 2.60909 114.576 2.60909C114.21 2.60909 113.71 2.61742 113.076 2.63409C112.46 2.65076 111.793 2.66742 111.076 2.68409C110.377 2.70076 109.71 2.71742 109.076 2.73409C108.46 2.75076 107.976 2.76742 107.626 2.78409C107.36 2.78409 107.018 2.80076 106.601 2.83409C106.185 2.86742 105.768 2.90076 105.351 2.93409C104.935 2.96742 104.593 3.00076 104.326 3.03409C104.143 3.05076 104.026 3.04242 103.976 3.00909C103.926 2.95909 103.877 2.86742 103.826 2.73409C103.826 2.71742 103.826 2.70909 103.826 2.70909C103.776 2.57576 103.726 2.42576 103.676 2.25909C103.626 2.09243 103.568 1.89243 103.501 1.65909C103.485 1.62576 103.493 1.58409 103.526 1.53409C103.56 1.48409 103.618 1.46742 103.701 1.48409C104.168 1.51742 104.785 1.54243 105.551 1.55909C106.318 1.57576 107.151 1.57576 108.051 1.55909C108.951 1.54243 109.843 1.51742 110.726 1.48409C111.61 1.45076 112.41 1.40909 113.126 1.35909C113.843 1.29242 114.393 1.21742 114.776 1.13409C114.91 1.10076 115.043 1.10076 115.176 1.13409L116.576 1.43409C116.726 1.45076 116.785 1.54242 116.751 1.70909C116.701 1.95909 116.635 2.29242 116.551 2.70909C116.468 3.10909 116.402 3.45076 116.352 3.73409C116.252 4.30076 116.135 4.88409 116.001 5.48409C115.868 6.08409 115.743 6.63409 115.626 7.13409C115.51 7.61743 115.41 7.98409 115.326 8.23409C115.26 8.46743 115.193 8.64243 115.126 8.75909C115.076 8.85909 114.96 8.91743 114.776 8.93409L113.851 9.00909Z" fill="black"/>
</svg>
