<svg width="214" height="35" viewBox="0 0 214 35" fill="none" xmlns="http://www.w3.org/2000/svg">
<g filter="url(#filter0_d_219_20)">
<path d="M14.92 21.28C15.8767 21.28 16.6817 21.14 17.335 20.86C18.0117 20.58 18.5833 20.265 19.05 19.915C19.5167 19.565 19.925 19.25 20.275 18.97C20.6483 18.69 21.0217 18.55 21.395 18.55C21.8617 18.55 22.095 18.9 22.095 19.6C22.095 19.9733 22.0483 20.4283 21.955 20.965C21.8617 21.4783 21.7333 22.0617 21.57 22.715C21.4767 23.1117 21.2433 23.5433 20.87 24.01C20.52 24.4767 20.03 24.92 19.4 25.34C18.77 25.7367 17.9883 26.075 17.055 26.355C16.145 26.6117 15.095 26.74 13.905 26.74C12.715 26.74 11.525 26.565 10.335 26.215C9.145 25.865 8.08333 25.27 7.15 24.43C6.21667 23.59 5.45833 22.4583 4.875 21.035C4.29167 19.6117 4 17.8267 4 15.68C4 14.91 4.04667 14.0233 4.14 13.02C4.25667 11.9933 4.46667 10.9433 4.77 9.87C5.07333 8.79667 5.49333 7.74667 6.03 6.72C6.59 5.67 7.30167 4.73667 8.165 3.92C9.02833 3.10333 10.0783 2.45 11.315 1.96C12.575 1.44667 14.0683 1.19 15.795 1.19C17.1717 1.19 18.3617 1.35333 19.365 1.68C20.3917 2.00667 21.2317 2.46167 21.885 3.045C22.5617 3.605 23.0517 4.27 23.355 5.04C23.6817 5.81 23.845 6.62667 23.845 7.49C23.845 8.98333 23.4017 10.08 22.515 10.78C21.6517 11.4567 20.415 11.795 18.805 11.795C18.2917 11.795 17.965 11.76 17.825 11.69C17.7083 11.5967 17.65 11.4217 17.65 11.165C17.6267 10.3717 17.6033 9.68333 17.58 9.1C17.5567 8.51667 17.475 8.03833 17.335 7.665C17.195 7.26833 16.9733 6.98833 16.67 6.825C16.39 6.63833 15.9933 6.545 15.48 6.545C14.7333 6.545 14.0917 6.70833 13.555 7.035C13.0417 7.33833 12.5983 7.74667 12.225 8.26C11.875 8.75 11.5833 9.31 11.35 9.94C11.14 10.57 10.965 11.2117 10.825 11.865C10.7083 12.5183 10.6267 13.1483 10.58 13.755C10.5567 14.3617 10.545 14.8867 10.545 15.33C10.545 17.4767 10.895 19.005 11.595 19.915C12.3183 20.825 13.4267 21.28 14.92 21.28Z" fill="#433232"/>
<path d="M37.0658 22.05C37.1358 21.28 37.2058 20.475 37.2758 19.635C37.3692 18.795 37.4392 17.99 37.4858 17.22C37.5558 16.45 37.6141 15.7617 37.6608 15.155C37.7075 14.5483 37.7308 14.105 37.7308 13.825C37.7308 13.2183 37.5792 12.6817 37.2758 12.215C36.9958 11.725 36.4358 11.48 35.5958 11.48C34.4758 11.48 33.5658 12.005 32.8658 13.055C32.1891 14.105 31.7925 15.505 31.6758 17.255C31.6292 17.745 31.5708 18.4333 31.5008 19.32C31.4308 20.1833 31.3608 21.07 31.2908 21.98C31.2208 22.8667 31.1508 23.6717 31.0808 24.395C31.0341 25.095 31.0108 25.5267 31.0108 25.69C31.0108 25.97 30.9525 26.1567 30.8358 26.25C30.7425 26.3433 30.5441 26.39 30.2408 26.39H28.9808C28.2575 26.39 27.6625 26.32 27.1958 26.18C26.7525 26.0167 26.3908 25.795 26.1108 25.515C25.8542 25.235 25.6675 24.8967 25.5508 24.5C25.4575 24.08 25.4108 23.6017 25.4108 23.065C25.4108 22.5517 25.4458 21.84 25.5158 20.93C25.6091 19.9967 25.7258 18.725 25.8658 17.115C26.0058 15.4817 26.1691 13.405 26.3558 10.885C26.5425 8.365 26.7408 5.23833 26.9508 1.505C26.9742 0.991666 27.0325 0.688332 27.1258 0.594999C27.1958 0.524999 27.3825 0.49 27.6858 0.49H29.0508C29.7508 0.49 30.3341 0.571666 30.8008 0.734999C31.2675 0.898333 31.6408 1.12 31.9208 1.4C32.2008 1.68 32.3992 2.00667 32.5158 2.38C32.6325 2.73 32.6908 3.10333 32.6908 3.5C32.6908 3.92 32.6442 4.70167 32.5508 5.845C32.4808 6.98833 32.3875 8.33 32.2708 9.87C32.9708 8.70333 33.7408 7.89833 34.5808 7.455C35.4441 7.01167 36.5291 6.79 37.8358 6.79C38.8158 6.79 39.6675 6.895 40.3908 7.105C41.1141 7.315 41.7092 7.67666 42.1758 8.19C42.6658 8.68 43.0275 9.33333 43.2608 10.15C43.4942 10.9433 43.6108 11.935 43.6108 13.125C43.6108 13.4983 43.5758 14.14 43.5058 15.05C43.4358 15.96 43.3425 16.9983 43.2258 18.165C43.1325 19.3317 43.0275 20.5567 42.9108 21.84C42.8175 23.1 42.7358 24.255 42.6658 25.305C42.6425 25.5617 42.6192 25.76 42.5958 25.9C42.5725 26.04 42.5258 26.145 42.4558 26.215C42.4092 26.285 42.3275 26.3317 42.2108 26.355C42.0942 26.3783 41.9308 26.39 41.7208 26.39H40.6008C39.8542 26.39 39.2475 26.32 38.7808 26.18C38.3142 26.04 37.9525 25.8417 37.6958 25.585C37.4391 25.3283 37.2525 25.0133 37.1358 24.64C37.0425 24.2433 36.9958 23.8 36.9958 23.31C36.9958 23.0767 36.9958 22.855 36.9958 22.645C37.0191 22.435 37.0425 22.2367 37.0658 22.05Z" fill="#433232"/>
<path d="M54.354 26.74C52.744 26.74 51.4023 26.5183 50.329 26.075C49.279 25.6083 48.439 24.9783 47.809 24.185C47.179 23.3917 46.7357 22.47 46.479 21.42C46.2223 20.3467 46.094 19.2033 46.094 17.99C46.094 16.59 46.2573 15.225 46.584 13.895C46.934 12.5417 47.5173 11.34 48.334 10.29C49.1507 9.24 50.224 8.4 51.554 7.77C52.9073 7.11667 54.5874 6.79 56.594 6.79C59.534 6.79 61.634 7.51333 62.894 8.96C64.1773 10.3833 64.819 12.39 64.819 14.98C64.819 15.7033 64.7607 16.5083 64.644 17.395C64.5507 18.2583 64.3524 19.1217 64.049 19.985C63.769 20.8483 63.3724 21.6883 62.859 22.505C62.369 23.3217 61.739 24.045 60.969 24.675C60.199 25.305 59.2657 25.8067 58.169 26.18C57.0957 26.5533 55.824 26.74 54.354 26.74ZM55.999 11.445C55.1123 11.445 54.4007 11.6783 53.864 12.145C53.3507 12.5883 52.954 13.1367 52.674 13.79C52.4173 14.42 52.2424 15.0967 52.149 15.82C52.079 16.52 52.044 17.115 52.044 17.605C52.044 19.145 52.289 20.2767 52.779 21C53.269 21.7233 53.969 22.085 54.879 22.085C55.6957 22.085 56.3607 21.8283 56.874 21.315C57.4107 20.8017 57.819 20.1833 58.099 19.46C58.4023 18.7367 58.6007 17.9783 58.694 17.185C58.8107 16.3917 58.869 15.7267 58.869 15.19C58.869 14.0233 58.6474 13.1133 58.204 12.46C57.784 11.7833 57.049 11.445 55.999 11.445Z" fill="#433232"/>
<path d="M70.8112 26.39C70.0879 26.39 69.4929 26.32 69.0262 26.18C68.5829 26.0167 68.2212 25.795 67.9412 25.515C67.6846 25.235 67.4979 24.8967 67.3812 24.5C67.2879 24.08 67.2412 23.6017 67.2412 23.065C67.2412 22.715 67.2529 22.225 67.2762 21.595C67.3229 20.9417 67.3929 20.055 67.4862 18.935C67.5796 17.7917 67.6846 16.3567 67.8012 14.63C67.9412 12.88 68.1046 10.7217 68.2912 8.155C68.3146 7.64167 68.3729 7.33833 68.4662 7.245C68.5362 7.175 68.7229 7.14 69.0262 7.14H70.3912C71.1146 7.14 71.6979 7.21 72.1412 7.35C72.6079 7.49 72.9696 7.7 73.2262 7.98C73.5062 8.26 73.6929 8.59833 73.7862 8.995C73.9029 9.39167 73.9612 9.835 73.9612 10.325C73.9612 10.675 73.9379 11.2 73.8912 11.9C73.8446 12.6 73.7746 13.5567 73.6812 14.77C73.6112 15.96 73.5062 17.4533 73.3662 19.25C73.2262 21.0233 73.0512 23.17 72.8412 25.69C72.8179 25.97 72.7596 26.1567 72.6662 26.25C72.5729 26.3433 72.3746 26.39 72.0712 26.39H70.8112ZM68.3262 3.01C68.3262 2.07667 68.6646 1.34167 69.3412 0.805C70.0179 0.268333 70.9279 0 72.0712 0C73.0746 0 73.7979 0.209999 74.2412 0.629998C74.7079 1.02667 74.9412 1.56333 74.9412 2.24C74.9412 3.10333 74.6146 3.82667 73.9612 4.41C73.3312 4.97 72.3979 5.25 71.1612 5.25C69.2712 5.25 68.3262 4.50333 68.3262 3.01Z" fill="#433232"/>
<path d="M85.6442 22.085C86.3209 22.085 86.9042 21.9917 87.3942 21.805C87.9076 21.6183 88.3509 21.4083 88.7243 21.175C89.0976 20.9417 89.4126 20.7317 89.6693 20.545C89.9259 20.3583 90.1592 20.265 90.3692 20.265C90.9059 20.265 91.1742 20.615 91.1742 21.315C91.1742 21.4783 91.1393 21.7117 91.0693 22.015C90.9993 22.295 90.9059 22.5983 90.7893 22.925C90.6726 23.2283 90.5443 23.52 90.4043 23.8C90.2876 24.08 90.1709 24.29 90.0543 24.43C89.9376 24.5467 89.7276 24.7333 89.4242 24.99C89.1442 25.2467 88.7592 25.5033 88.2692 25.76C87.7792 26.0167 87.2076 26.2383 86.5543 26.425C85.9009 26.635 85.1776 26.74 84.3842 26.74C83.4976 26.74 82.5759 26.6117 81.6192 26.355C80.6859 26.075 79.8342 25.6083 79.0642 24.955C78.2942 24.2783 77.6526 23.38 77.1393 22.26C76.6493 21.1167 76.4043 19.6933 76.4043 17.99C76.4043 17.3833 76.4392 16.695 76.5092 15.925C76.6026 15.1317 76.7776 14.3267 77.0342 13.51C77.2909 12.67 77.6292 11.8533 78.0492 11.06C78.4926 10.2433 79.0759 9.52 79.7992 8.89C80.5226 8.26 81.3859 7.75833 82.3893 7.385C83.4159 6.98833 84.6293 6.79 86.0293 6.79C87.1726 6.79 88.1526 6.93 88.9693 7.21C89.8093 7.46667 90.4976 7.82833 91.0342 8.295C91.5709 8.73833 91.9676 9.26333 92.2243 9.87C92.5043 10.4767 92.6442 11.13 92.6442 11.83C92.6442 13.09 92.2476 14.0233 91.4542 14.63C90.6609 15.2133 89.5409 15.505 88.0943 15.505C87.7443 15.505 87.4993 15.4817 87.3593 15.435C87.2426 15.365 87.1842 15.225 87.1842 15.015C87.1842 14.455 87.1726 13.9533 87.1493 13.51C87.1259 13.0667 87.0559 12.6933 86.9392 12.39C86.8459 12.0867 86.6943 11.8533 86.4843 11.69C86.2743 11.5267 85.9709 11.445 85.5742 11.445C84.8509 11.445 84.2676 11.6783 83.8242 12.145C83.4042 12.6117 83.0776 13.1833 82.8443 13.86C82.6343 14.5133 82.4942 15.19 82.4242 15.89C82.3776 16.59 82.3542 17.1733 82.3542 17.64C82.3542 19.2967 82.6109 20.4517 83.1243 21.105C83.6609 21.7583 84.5009 22.085 85.6442 22.085Z" fill="#433232"/>
<path d="M102.457 26.74C101.43 26.74 100.404 26.6117 99.3769 26.355C98.3736 26.0983 97.4636 25.655 96.6469 25.025C95.8536 24.395 95.2003 23.555 94.6869 22.505C94.1736 21.455 93.9169 20.1367 93.9169 18.55C93.9169 17.9667 93.9636 17.2667 94.0569 16.45C94.1503 15.6333 94.3253 14.7933 94.5819 13.93C94.8619 13.0667 95.2353 12.215 95.7019 11.375C96.1919 10.5117 96.8219 9.74167 97.5919 9.065C98.3619 8.38833 99.2953 7.84 100.392 7.42C101.489 7 102.795 6.79 104.312 6.79C105.525 6.79 106.552 6.93 107.392 7.21C108.232 7.49 108.909 7.875 109.422 8.365C109.935 8.83167 110.309 9.38 110.542 10.01C110.775 10.64 110.892 11.3167 110.892 12.04C110.892 13.1133 110.67 14.0233 110.227 14.77C109.807 15.5167 109.247 16.1467 108.547 16.66C107.87 17.15 107.112 17.535 106.272 17.815C105.432 18.095 104.604 18.3167 103.787 18.48C102.97 18.62 102.212 18.7133 101.512 18.76C100.835 18.7833 100.31 18.795 99.9369 18.795C99.9369 19.2383 99.9953 19.6817 100.112 20.125C100.252 20.545 100.45 20.9183 100.707 21.245C100.964 21.5717 101.302 21.84 101.722 22.05C102.142 22.26 102.655 22.365 103.262 22.365C103.869 22.365 104.335 22.2717 104.662 22.085C105.012 21.875 105.292 21.6533 105.502 21.42C105.712 21.1633 105.887 20.9417 106.027 20.755C106.19 20.545 106.4 20.44 106.657 20.44C106.774 20.44 106.972 20.475 107.252 20.545C107.555 20.5917 107.859 20.7083 108.162 20.895C108.465 21.0817 108.734 21.3383 108.967 21.665C109.2 21.9917 109.317 22.4117 109.317 22.925C109.317 23.6017 109.107 24.185 108.687 24.675C108.267 25.165 107.719 25.5617 107.042 25.865C106.389 26.1683 105.654 26.39 104.837 26.53C104.02 26.67 103.227 26.74 102.457 26.74ZM103.122 11.445C102.609 11.445 102.165 11.5967 101.792 11.9C101.442 12.18 101.139 12.5417 100.882 12.985C100.649 13.4283 100.462 13.9183 100.322 14.455C100.205 14.9917 100.112 15.505 100.042 15.995C101.489 15.9717 102.655 15.7267 103.542 15.26C104.452 14.7933 104.907 14.1283 104.907 13.265C104.907 12.7983 104.755 12.3783 104.452 12.005C104.172 11.6317 103.729 11.445 103.122 11.445Z" fill="#433232"/>
<path d="M142.608 7.735C142.421 8.295 142.176 9.03 141.873 9.94C141.593 10.8267 141.278 11.8067 140.928 12.88C140.578 13.9533 140.216 15.0967 139.843 16.31C139.47 17.5 139.085 18.6667 138.688 19.81C138.315 20.9533 137.941 22.05 137.568 23.1C137.195 24.1267 136.856 25.025 136.553 25.795C136.46 25.9817 136.261 26.1333 135.958 26.25C135.678 26.3433 135.223 26.39 134.593 26.39C134.196 26.39 133.788 26.3667 133.368 26.32C132.948 26.2733 132.551 26.18 132.178 26.04C131.828 25.9 131.513 25.7133 131.233 25.48C130.976 25.2467 130.778 24.955 130.638 24.605C130.288 23.415 129.95 22.0967 129.623 20.65C129.32 19.18 129.016 17.6867 128.713 16.17C128.41 14.6533 128.106 13.1717 127.803 11.725C127.523 10.255 127.231 8.925 126.928 7.735C126.928 8.06167 126.916 8.62167 126.893 9.415C126.87 10.2083 126.846 11.13 126.823 12.18C126.8 13.23 126.765 14.3617 126.718 15.575C126.695 16.7883 126.671 17.9783 126.648 19.145C126.625 20.2883 126.601 21.3617 126.578 22.365C126.555 23.345 126.543 24.15 126.543 24.78C126.543 25.48 126.496 25.9233 126.403 26.11C126.333 26.2967 126.193 26.39 125.983 26.39H124.058C122.728 26.39 121.783 26.1333 121.223 25.62C120.686 25.0833 120.418 24.3017 120.418 23.275C120.418 22.995 120.43 22.5283 120.453 21.875C120.5 21.1983 120.558 20.405 120.628 19.495C120.698 18.585 120.768 17.5933 120.838 16.52C120.931 15.4233 121.025 14.315 121.118 13.195C121.235 11.6783 121.328 10.4183 121.398 9.415C121.491 8.38833 121.561 7.53667 121.608 6.86C121.655 6.18333 121.69 5.635 121.713 5.215C121.76 4.795 121.783 4.42167 121.783 4.095C121.806 3.76833 121.818 3.465 121.818 3.185C121.841 2.88166 121.853 2.50833 121.853 2.065C121.853 1.87833 121.923 1.75 122.063 1.68C122.203 1.58667 122.331 1.54 122.448 1.54H127.348C128.258 1.54 129.005 1.69167 129.588 1.995C130.171 2.275 130.65 2.71833 131.023 3.325C131.396 3.93167 131.7 4.725 131.933 5.705C132.166 6.66167 132.376 7.805 132.563 9.135C132.773 10.465 132.995 12.005 133.228 13.755C133.485 15.4817 133.811 17.43 134.208 19.6C134.581 18.1533 134.896 16.9517 135.153 15.995C135.41 15.0383 135.62 14.245 135.783 13.615C135.97 12.9617 136.121 12.425 136.238 12.005C136.355 11.585 136.46 11.2 136.553 10.85C136.646 10.4767 136.751 10.08 136.868 9.66C136.985 9.24 137.125 8.715 137.288 8.085C137.451 7.455 137.65 6.67333 137.883 5.74C138.14 4.78333 138.455 3.58167 138.828 2.135C138.875 1.995 138.956 1.86666 139.073 1.75C139.19 1.61 139.4 1.54 139.703 1.54H145.163C145.91 1.54 146.505 1.62167 146.948 1.785C147.415 1.925 147.776 2.135 148.033 2.415C148.29 2.695 148.465 3.045 148.558 3.465C148.651 3.86167 148.698 4.32833 148.698 4.865C148.698 5.40167 148.663 6.27667 148.593 7.49C148.546 8.68 148.465 10.0333 148.348 11.55C148.255 13.0433 148.15 14.595 148.033 16.205C147.94 17.815 147.835 19.3083 147.718 20.685C147.625 22.0617 147.543 23.2283 147.473 24.185C147.403 25.1417 147.356 25.7017 147.333 25.865C147.31 26.0517 147.263 26.1917 147.193 26.285C147.123 26.355 146.983 26.39 146.773 26.39H144.848C143.518 26.39 142.573 26.1333 142.013 25.62C141.476 25.0833 141.208 24.395 141.208 23.555C141.208 23.2983 141.231 22.8317 141.278 22.155C141.348 21.4783 141.43 20.685 141.523 19.775C141.616 18.865 141.721 17.8733 141.838 16.8C141.955 15.7033 142.06 14.6183 142.153 13.545C142.246 12.4717 142.328 11.4333 142.398 10.43C142.491 9.40333 142.561 8.505 142.608 7.735Z" fill="#433232"/>
<path d="M159.543 26.74C158.517 26.74 157.49 26.6117 156.463 26.355C155.46 26.0983 154.55 25.655 153.733 25.025C152.94 24.395 152.287 23.555 151.773 22.505C151.26 21.455 151.003 20.1367 151.003 18.55C151.003 17.9667 151.05 17.2667 151.143 16.45C151.237 15.6333 151.412 14.7933 151.668 13.93C151.948 13.0667 152.322 12.215 152.788 11.375C153.278 10.5117 153.908 9.74167 154.678 9.065C155.448 8.38833 156.382 7.84 157.478 7.42C158.575 7 159.882 6.79 161.398 6.79C162.612 6.79 163.638 6.93 164.478 7.21C165.318 7.49 165.995 7.875 166.508 8.365C167.022 8.83167 167.395 9.38 167.628 10.01C167.862 10.64 167.978 11.3167 167.978 12.04C167.978 13.1133 167.757 14.0233 167.313 14.77C166.893 15.5167 166.333 16.1467 165.633 16.66C164.957 17.15 164.198 17.535 163.358 17.815C162.518 18.095 161.69 18.3167 160.873 18.48C160.057 18.62 159.298 18.7133 158.598 18.76C157.922 18.7833 157.397 18.795 157.023 18.795C157.023 19.2383 157.082 19.6817 157.198 20.125C157.338 20.545 157.537 20.9183 157.793 21.245C158.05 21.5717 158.388 21.84 158.808 22.05C159.228 22.26 159.742 22.365 160.348 22.365C160.955 22.365 161.422 22.2717 161.748 22.085C162.098 21.875 162.378 21.6533 162.588 21.42C162.798 21.1633 162.973 20.9417 163.113 20.755C163.277 20.545 163.487 20.44 163.743 20.44C163.86 20.44 164.058 20.475 164.338 20.545C164.642 20.5917 164.945 20.7083 165.248 20.895C165.552 21.0817 165.82 21.3383 166.053 21.665C166.287 21.9917 166.403 22.4117 166.403 22.925C166.403 23.6017 166.193 24.185 165.773 24.675C165.353 25.165 164.805 25.5617 164.128 25.865C163.475 26.1683 162.74 26.39 161.923 26.53C161.107 26.67 160.313 26.74 159.543 26.74ZM160.208 11.445C159.695 11.445 159.252 11.5967 158.878 11.9C158.528 12.18 158.225 12.5417 157.968 12.985C157.735 13.4283 157.548 13.9183 157.408 14.455C157.292 14.9917 157.198 15.505 157.128 15.995C158.575 15.9717 159.742 15.7267 160.628 15.26C161.538 14.7933 161.993 14.1283 161.993 13.265C161.993 12.7983 161.842 12.3783 161.538 12.005C161.258 11.6317 160.815 11.445 160.208 11.445Z" fill="#433232"/>
<path d="M181.796 23.31C181.796 22.7967 181.831 22.1317 181.901 21.315C181.994 20.475 182.076 19.6 182.146 18.69C182.239 17.7567 182.321 16.8583 182.391 15.995C182.484 15.1317 182.531 14.4083 182.531 13.825C182.531 13.2183 182.379 12.6817 182.076 12.215C181.796 11.725 181.236 11.48 180.396 11.48C179.579 11.48 178.902 11.6783 178.366 12.075C177.829 12.4717 177.374 13.195 177.001 14.245C176.651 15.295 176.359 16.7417 176.126 18.585C175.892 20.4283 175.671 22.7967 175.461 25.69C175.437 25.97 175.379 26.1567 175.286 26.25C175.192 26.3433 174.994 26.39 174.691 26.39H173.431C172.707 26.39 172.112 26.32 171.646 26.18C171.202 26.0167 170.841 25.795 170.561 25.515C170.304 25.235 170.117 24.8967 170.001 24.5C169.907 24.08 169.861 23.6017 169.861 23.065C169.861 22.715 169.872 22.225 169.896 21.595C169.942 20.9417 170.012 20.055 170.106 18.935C170.199 17.7917 170.304 16.3567 170.421 14.63C170.561 12.88 170.724 10.7217 170.911 8.155C170.934 7.64167 170.992 7.33833 171.086 7.245C171.156 7.175 171.342 7.14 171.646 7.14H173.011C173.711 7.14 174.282 7.22167 174.726 7.385C175.192 7.54833 175.566 7.77 175.846 8.05C176.126 8.30667 176.324 8.62167 176.441 8.995C176.557 9.345 176.627 9.70667 176.651 10.08C177.374 8.84333 178.202 7.99167 179.136 7.525C180.069 7.035 181.236 6.79 182.636 6.79C183.616 6.79 184.467 6.895 185.191 7.105C185.914 7.315 186.509 7.67666 186.976 8.19C187.466 8.68 187.827 9.33333 188.061 10.15C188.294 10.9433 188.411 11.935 188.411 13.125C188.411 13.4983 188.387 14.035 188.341 14.735C188.294 15.435 188.236 16.205 188.166 17.045C188.096 17.8617 188.014 18.725 187.921 19.635C187.851 20.5217 187.781 21.35 187.711 22.12C187.641 22.89 187.582 23.5667 187.536 24.15C187.489 24.7333 187.466 25.1183 187.466 25.305C187.466 25.8183 187.407 26.1333 187.291 26.25C187.174 26.3433 186.917 26.39 186.521 26.39H185.401C184.654 26.39 184.047 26.32 183.581 26.18C183.114 26.04 182.752 25.8417 182.496 25.585C182.239 25.3283 182.052 25.0133 181.936 24.64C181.842 24.2433 181.796 23.8 181.796 23.31Z" fill="#433232"/>
<path d="M197.99 10.115C197.99 10.605 197.943 11.2933 197.85 12.18C197.78 13.0667 197.698 13.9883 197.605 14.945C197.535 15.9017 197.453 16.8 197.36 17.64C197.29 18.48 197.255 19.0867 197.255 19.46C197.255 20.2767 197.453 20.9183 197.85 21.385C198.27 21.8283 198.841 22.05 199.565 22.05C200.195 22.05 200.72 21.805 201.14 21.315C201.583 20.8017 201.933 20.1483 202.19 19.355C202.47 18.5383 202.691 17.6167 202.855 16.59C203.018 15.5633 203.135 14.525 203.205 13.475C203.298 12.425 203.368 11.41 203.415 10.43C203.485 9.42667 203.555 8.56333 203.625 7.84C203.648 7.65333 203.718 7.49 203.835 7.35C203.951 7.21 204.138 7.14 204.395 7.14H205.655C206.378 7.14 206.961 7.22167 207.405 7.385C207.871 7.525 208.233 7.735 208.49 8.015C208.77 8.295 208.956 8.645 209.05 9.065C209.166 9.46167 209.225 9.92833 209.225 10.465C209.225 10.815 209.201 11.3167 209.155 11.97C209.131 12.6 209.073 13.4867 208.98 14.63C208.886 15.75 208.77 17.185 208.63 18.935C208.513 20.6617 208.361 22.8083 208.175 25.375C208.128 25.865 208.07 26.1567 208 26.25C207.953 26.3433 207.766 26.39 207.44 26.39H206.075C205.375 26.39 204.791 26.3083 204.325 26.145C203.881 25.9817 203.52 25.7717 203.24 25.515C202.96 25.2583 202.761 24.955 202.645 24.605C202.528 24.255 202.458 23.8933 202.435 23.52C202.085 24.1267 201.688 24.64 201.245 25.06C200.825 25.48 200.381 25.8183 199.915 26.075C199.448 26.3083 198.97 26.4717 198.48 26.565C197.99 26.6817 197.511 26.74 197.045 26.74C196.158 26.74 195.365 26.6 194.665 26.32C193.965 26.0167 193.37 25.62 192.88 25.13C192.413 24.64 192.051 24.0567 191.795 23.38C191.538 22.7033 191.41 21.98 191.41 21.21C191.41 20.9067 191.421 20.4167 191.445 19.74C191.491 19.04 191.538 18.2583 191.585 17.395C191.655 16.5317 191.725 15.6217 191.795 14.665C191.865 13.685 191.923 12.7633 191.97 11.9C192.04 11.0367 192.098 10.2783 192.145 9.625C192.215 8.97167 192.261 8.505 192.285 8.225C192.331 7.805 192.425 7.525 192.565 7.385C192.705 7.22167 192.938 7.14 193.265 7.14H194.385C195.108 7.14 195.703 7.21 196.17 7.35C196.636 7.49 196.998 7.68833 197.255 7.945C197.535 8.20167 197.721 8.51667 197.815 8.89C197.931 9.24 197.99 9.64833 197.99 10.115Z" fill="#433232"/>
</g>
<defs>
<filter id="filter0_d_219_20" x="0" y="0" width="213.225" height="34.74" filterUnits="userSpaceOnUse" color-interpolation-filters="sRGB">
<feFlood flood-opacity="0" result="BackgroundImageFix"/>
<feColorMatrix in="SourceAlpha" type="matrix" values="0 0 0 0 0 0 0 0 0 0 0 0 0 0 0 0 0 0 127 0" result="hardAlpha"/>
<feOffset dy="4"/>
<feGaussianBlur stdDeviation="2"/>
<feComposite in2="hardAlpha" operator="out"/>
<feColorMatrix type="matrix" values="0 0 0 0 0 0 0 0 0 0 0 0 0 0 0 0 0 0 0.25 0"/>
<feBlend mode="normal" in2="BackgroundImageFix" result="effect1_dropShadow_219_20"/>
<feBlend mode="normal" in="SourceGraphic" in2="effect1_dropShadow_219_20" result="shape"/>
</filter>
</defs>
</svg>
