<svg width="225" height="15" viewBox="0 0 225 15" fill="none" xmlns="http://www.w3.org/2000/svg">
<path d="M11.662 11.305C11.696 11.3163 11.73 11.322 11.764 11.322C11.798 11.3107 11.832 11.305 11.866 11.305C12.0587 11.3277 12.2343 11.3673 12.393 11.424C12.563 11.4693 12.7273 11.56 12.886 11.696C13.0447 11.8547 13.124 12.053 13.124 12.291C13.124 12.4157 13.1013 12.5517 13.056 12.699C13.022 12.835 12.971 12.9427 12.903 13.022C12.8123 13.1127 12.699 13.1807 12.563 13.226C12.427 13.2713 12.2967 13.3053 12.172 13.328C12.0473 13.3393 11.934 13.345 11.832 13.345C11.7413 13.345 11.6903 13.345 11.679 13.345H2.159C2.10233 13.345 2.04567 13.3507 1.989 13.362C1.93233 13.362 1.87567 13.362 1.819 13.362C1.581 13.3733 1.326 13.3733 1.054 13.362C0.782 13.3393 0.549667 13.2487 0.357 13.09C0.119 12.8747 0 12.631 0 12.359C0 12.189 0.051 12.0133 0.153 11.832C0.255 11.6507 0.391 11.526 0.561 11.458C0.787667 11.3673 1.02 11.322 1.258 11.322C1.50733 11.322 1.75667 11.3163 2.006 11.305H2.091C3.077 11.2823 4.09133 11.2823 5.134 11.305L5.117 9.01C4.981 9.01 4.845 9.01 4.709 9.01C4.573 8.99867 4.437 8.98733 4.301 8.976C4.00633 8.95333 3.689 8.95333 3.349 8.976C3.009 8.98733 2.69733 8.98167 2.414 8.959C2.11933 8.93633 1.84733 8.86833 1.598 8.755C1.36 8.63033 1.21267 8.40933 1.156 8.092C1.09933 7.77467 1.05967 7.47433 1.037 7.191C1.02567 6.89633 1.01433 6.613 1.003 6.341C1.003 6.05767 1.003 5.77433 1.003 5.491C1.01433 5.20767 1.02 4.90167 1.02 4.573V3.383C1.02 3.23567 1.01433 3.07133 1.003 2.89C1.003 2.70867 1.01433 2.52733 1.037 2.346C1.071 2.16467 1.122 2.00033 1.19 1.853C1.26933 1.70567 1.38833 1.59233 1.547 1.513C1.717 1.43367 1.90967 1.37133 2.125 1.326C2.34033 1.26933 2.55567 1.22967 2.771 1.207C2.99767 1.18433 3.21867 1.173 3.434 1.173C3.66067 1.16167 3.87033 1.156 4.063 1.156H9.537C9.54833 1.156 9.61633 1.16167 9.741 1.173C9.877 1.173 10.0357 1.19 10.217 1.224C10.3983 1.24667 10.5797 1.28067 10.761 1.326C10.9537 1.36 11.1067 1.411 11.22 1.479C11.356 1.55833 11.4637 1.68867 11.543 1.87C11.6223 2.04 11.679 2.21567 11.713 2.397C11.7583 2.57833 11.781 2.74267 11.781 2.89C11.7923 3.026 11.798 3.09967 11.798 3.111V6.392C11.798 6.65267 11.7923 6.91333 11.781 7.174C11.781 7.43467 11.7583 7.69533 11.713 7.956C11.6903 8.11467 11.6507 8.27333 11.594 8.432C11.5373 8.59067 11.4297 8.70967 11.271 8.789C11.0783 8.87967 10.829 8.93067 10.523 8.942C10.217 8.942 9.962 8.93633 9.758 8.925C9.52 8.925 9.282 8.93633 9.044 8.959C8.806 8.97033 8.568 8.976 8.33 8.976H7.497L7.531 11.305C7.84833 11.305 8.126 11.305 8.364 11.305C8.602 11.2937 8.82867 11.288 9.044 11.288C9.27067 11.288 9.49733 11.288 9.724 11.288C9.95067 11.288 10.2113 11.2937 10.506 11.305C10.71 11.3163 10.9083 11.3163 11.101 11.305C11.2937 11.2823 11.4807 11.2823 11.662 11.305ZM8.483 6.834C8.585 6.81133 8.687 6.80567 8.789 6.817C8.891 6.82833 8.99867 6.81133 9.112 6.766C9.18 6.732 9.231 6.68667 9.265 6.63C9.299 6.562 9.316 6.494 9.316 6.426C9.32733 6.34667 9.32733 6.26733 9.316 6.188C9.316 6.10867 9.316 6.035 9.316 5.967V4.539C9.316 4.35767 9.316 4.20467 9.316 4.08C9.316 3.944 9.28767 3.83633 9.231 3.757C9.18567 3.67767 9.08933 3.621 8.942 3.587C8.79467 3.553 8.57933 3.53033 8.296 3.519H4.964C4.964 3.519 4.91867 3.519 4.828 3.519C4.74867 3.519 4.64667 3.52467 4.522 3.536C4.40867 3.536 4.28967 3.54167 4.165 3.553C4.04033 3.56433 3.93267 3.57567 3.842 3.587C3.69467 3.60967 3.57567 3.672 3.485 3.774C3.39433 3.876 3.349 4.00067 3.349 4.148L3.383 6.426C3.40567 6.562 3.46233 6.664 3.553 6.732C3.655 6.78867 3.76833 6.82833 3.893 6.851C4.01767 6.87367 4.14233 6.885 4.267 6.885C4.403 6.87367 4.522 6.868 4.624 6.868L8.483 6.834Z" fill="#FEFEFE"/>
<path d="M16.2779 6.086C16.1419 6.086 15.9832 6.08033 15.8019 6.069C15.6206 6.05767 15.4449 6.02933 15.2749 5.984C15.1162 5.93867 14.9689 5.87067 14.8329 5.78C14.7082 5.68933 14.6232 5.56467 14.5779 5.406C14.5439 5.28133 14.5156 5.185 14.4929 5.117C14.4816 5.049 14.4646 4.98667 14.4419 4.93C14.4306 4.87333 14.4192 4.811 14.4079 4.743C14.4079 4.675 14.4079 4.573 14.4079 4.437V2.788C14.4079 2.79933 14.4022 2.75967 14.3909 2.669C14.3909 2.57833 14.3966 2.47067 14.4079 2.346C14.4192 2.21 14.4419 2.06833 14.4759 1.921C14.5212 1.76233 14.5779 1.62633 14.6459 1.513C14.7139 1.39967 14.8216 1.309 14.9689 1.241C15.1276 1.173 15.2806 1.122 15.4279 1.088C15.5866 1.054 15.7282 1.037 15.8529 1.037C15.9776 1.02567 16.0569 1.02 16.0909 1.02H23.5709C23.8089 1.02 24.0526 1.02 24.3019 1.02C24.5626 1.02 24.8062 1.06533 25.0329 1.156C25.2256 1.23533 25.3559 1.36567 25.4239 1.547C25.4919 1.72833 25.5202 1.921 25.5089 2.125C25.4862 2.31767 25.4126 2.482 25.2879 2.618C25.1746 2.754 25.0216 2.85033 24.8289 2.907C24.6476 2.95233 24.3302 2.975 23.8769 2.975H23.5029C23.4462 2.975 23.3952 2.96933 23.3499 2.958H17.3319C17.2752 2.94667 17.1902 2.94667 17.0769 2.958C16.9749 2.958 16.8956 2.975 16.8389 3.009C16.8049 3.02033 16.7822 3.077 16.7709 3.179C16.7596 3.281 16.7539 3.4 16.7539 3.536C16.7539 3.66067 16.7539 3.77967 16.7539 3.893C16.7652 3.995 16.7766 4.063 16.7879 4.097C16.8332 4.17633 16.9296 4.22167 17.0769 4.233C17.2242 4.233 17.3602 4.22733 17.4849 4.216C17.6209 4.216 17.7966 4.216 18.0119 4.216C18.2272 4.216 18.5219 4.216 18.8959 4.216C19.2699 4.216 19.7459 4.216 20.3239 4.216C20.9019 4.216 21.6159 4.216 22.4659 4.216H23.7239C24.0072 4.216 24.2622 4.22167 24.4889 4.233C24.7269 4.233 24.9422 4.27833 25.1349 4.369C25.3616 4.471 25.5146 4.66367 25.5939 4.947C25.6506 5.23033 25.5939 5.48533 25.4239 5.712C25.2426 5.93867 25.0442 6.05767 24.8289 6.069C24.6249 6.08033 24.3982 6.09167 24.1489 6.103C24.0356 6.103 23.8089 6.10867 23.4689 6.12C23.1289 6.12 22.7549 6.12567 22.3469 6.137C21.9502 6.137 21.5649 6.137 21.1909 6.137C20.8169 6.137 20.5392 6.137 20.3579 6.137C20.1652 6.137 19.8819 6.137 19.5079 6.137C19.1339 6.137 18.7372 6.137 18.3179 6.137C17.8986 6.12567 17.5019 6.12 17.1279 6.12C16.7539 6.10867 16.4706 6.09733 16.2779 6.086ZM25.1859 12.155C25.1972 12.155 25.2369 12.1663 25.3049 12.189C25.3729 12.2117 25.4466 12.2513 25.5259 12.308C25.6166 12.3533 25.6959 12.4213 25.7639 12.512C25.8432 12.5913 25.8942 12.6877 25.9169 12.801C25.9849 13.2317 25.9169 13.566 25.7129 13.804C25.5882 13.9627 25.4522 14.059 25.3049 14.093C25.1576 14.127 25.0782 14.144 25.0669 14.144H15.7849C15.3542 14.144 15.0142 14.0703 14.7649 13.923C14.5156 13.787 14.3909 13.5887 14.3909 13.328V11.815C14.3682 11.5657 14.3682 11.3107 14.3909 11.05C14.4136 10.812 14.5042 10.6193 14.6629 10.472C14.8216 10.3247 15.0199 10.251 15.2579 10.251C15.3146 10.251 15.3882 10.2567 15.4789 10.268C15.5809 10.268 15.6602 10.2793 15.7169 10.302C15.8642 10.3473 15.9776 10.4153 16.0569 10.506C16.1362 10.5967 16.1986 10.7043 16.2439 10.829C16.2892 10.9423 16.3176 11.067 16.3289 11.203C16.3402 11.3277 16.3516 11.4523 16.3629 11.577C16.3629 11.6677 16.3686 11.764 16.3799 11.866C16.3912 11.9567 16.4082 12.0417 16.4309 12.121C16.4536 12.1323 16.5556 12.1493 16.7369 12.172C16.9296 12.1833 17.2242 12.189 17.6209 12.189C17.9609 12.189 18.2612 12.1833 18.5219 12.172C18.7939 12.1607 18.9356 12.155 18.9469 12.155H25.1859ZM24.6589 7.123C24.8516 7.123 25.0556 7.123 25.2709 7.123C25.4976 7.11167 25.7016 7.13433 25.8829 7.191C26.0756 7.23633 26.2286 7.33267 26.3419 7.48C26.4666 7.62733 26.5289 7.854 26.5289 8.16C26.5289 8.432 26.4156 8.67 26.1889 8.874C26.0076 9.03267 25.7866 9.12333 25.5259 9.146C25.2766 9.15733 25.0386 9.15733 24.8119 9.146C24.7552 9.13467 24.7042 9.129 24.6589 9.129C24.6136 9.129 24.5626 9.129 24.5059 9.129H15.1389C15.1276 9.129 15.0766 9.129 14.9859 9.129C14.8952 9.129 14.7876 9.11767 14.6629 9.095C14.5496 9.07233 14.4306 9.044 14.3059 9.01C14.1812 8.96467 14.0792 8.89667 13.9999 8.806C13.8639 8.65867 13.7959 8.46033 13.7959 8.211C13.7959 7.973 13.8696 7.78033 14.0169 7.633C14.1642 7.497 14.3172 7.38367 14.4759 7.293C14.6346 7.20233 14.7989 7.14567 14.9689 7.123C15.0029 7.123 15.0369 7.12867 15.0709 7.14C15.1049 7.14 15.1389 7.13433 15.1729 7.123C15.3316 7.10033 15.5016 7.10033 15.6829 7.123C15.8642 7.13433 16.0512 7.13433 16.2439 7.123C16.8332 7.10033 17.4282 7.09467 18.0289 7.106C18.6409 7.11733 19.2756 7.123 19.9329 7.123C20.6469 7.123 21.4062 7.11733 22.2109 7.106C23.0156 7.09467 23.8032 7.10033 24.5739 7.123H24.6589Z" fill="#FEFEFE"/>
<path d="M31.949 8.381C31.7903 8.313 31.677 8.18267 31.609 7.99C31.5183 7.76333 31.5013 7.53667 31.558 7.31C31.626 7.08333 31.728 6.868 31.864 6.664C32 6.46 32.153 6.26733 32.323 6.086C32.5043 5.90467 32.6573 5.73467 32.782 5.576C32.9746 5.338 33.1616 5.1 33.343 4.862C33.5243 4.624 33.7113 4.38033 33.904 4.131C34.04 3.93833 34.1816 3.71167 34.329 3.451C34.4763 3.19033 34.5613 2.93533 34.584 2.686C34.584 2.618 34.5896 2.533 34.601 2.431C34.6123 2.31767 34.618 2.20433 34.618 2.091C34.6293 1.96633 34.6406 1.853 34.652 1.751C34.6633 1.649 34.6803 1.564 34.703 1.496C34.771 1.26933 34.8786 1.11633 35.026 1.037C35.1846 0.946333 35.4226 0.901 35.74 0.901C35.9213 0.901 36.1253 0.935 36.352 1.003C36.5786 1.05967 36.7316 1.17867 36.811 1.36C36.8903 1.564 36.913 1.802 36.879 2.074C36.8563 2.33467 36.879 2.57267 36.947 2.788C37.0036 2.958 37.0886 3.13367 37.202 3.315C37.3153 3.49633 37.4343 3.67767 37.559 3.859C37.7743 4.165 37.9896 4.49933 38.205 4.862C38.4203 5.21333 38.6186 5.51367 38.8 5.763C38.9813 6.001 39.157 6.25033 39.327 6.511C39.497 6.76033 39.6103 7.03233 39.667 7.327C39.7236 7.57633 39.6953 7.786 39.582 7.956C39.48 8.11467 39.3383 8.23367 39.157 8.313C38.9756 8.381 38.7773 8.398 38.562 8.364C38.3466 8.31867 38.1596 8.21667 38.001 8.058C37.5816 7.62733 37.202 7.16833 36.862 6.681C36.522 6.18233 36.1706 5.695 35.808 5.219C35.808 5.219 35.757 5.27567 35.655 5.389C35.553 5.50233 35.4283 5.64967 35.281 5.831C35.1336 6.01233 34.9693 6.21067 34.788 6.426C34.6066 6.64133 34.4366 6.84533 34.278 7.038C34.1193 7.23067 33.9776 7.40067 33.853 7.548C33.7396 7.684 33.6716 7.769 33.649 7.803C33.5243 7.95033 33.3826 8.08067 33.224 8.194C33.0653 8.30733 32.8896 8.38667 32.697 8.432C32.5723 8.45467 32.442 8.466 32.306 8.466C32.1813 8.466 32.0623 8.43767 31.949 8.381ZM34.567 14.297C34.1023 14.297 33.7283 14.195 33.445 13.991C33.1616 13.7983 33.02 13.5717 33.02 13.311V10.863C32.9973 10.6137 32.9973 10.3587 33.02 10.098C33.0426 9.86 33.1333 9.66733 33.292 9.52C33.462 9.37267 33.6773 9.299 33.938 9.299C33.9946 9.299 34.0966 9.30467 34.244 9.316C34.3913 9.316 34.4933 9.32733 34.55 9.35C34.6973 9.39533 34.8106 9.46333 34.89 9.554C34.9806 9.64467 35.0486 9.75233 35.094 9.877C35.1393 9.99033 35.1676 10.115 35.179 10.251C35.1903 10.3757 35.2016 10.5003 35.213 10.625C35.213 10.6703 35.213 10.778 35.213 10.948C35.2243 11.1067 35.23 11.2823 35.23 11.475C35.2413 11.6563 35.247 11.8263 35.247 11.985C35.2583 12.1437 35.2696 12.24 35.281 12.274C35.315 12.2853 35.4056 12.3023 35.553 12.325C35.7116 12.3363 36.0006 12.342 36.42 12.342C36.7826 12.342 37.0036 12.3363 37.083 12.325C37.1736 12.3137 37.2246 12.308 37.236 12.308H42.795C42.795 12.308 42.829 12.3193 42.897 12.342C42.9763 12.3647 43.0613 12.4043 43.152 12.461C43.2426 12.5063 43.3276 12.5743 43.407 12.665C43.4863 12.7443 43.5373 12.8407 43.56 12.954C43.6166 13.3847 43.543 13.719 43.339 13.957C43.203 14.1157 43.0556 14.212 42.897 14.246C42.7383 14.28 42.6533 14.297 42.642 14.297H34.567ZM43.203 6.103V7.871C43.1916 7.99567 43.1746 8.126 43.152 8.262C43.1293 8.38667 43.084 8.51133 43.016 8.636C42.9366 8.78333 42.8403 8.891 42.727 8.959C42.5456 9.08367 42.353 9.146 42.149 9.146C41.979 9.146 41.8203 9.10067 41.673 9.01C41.5596 8.942 41.469 8.857 41.401 8.755C41.333 8.653 41.2763 8.55667 41.231 8.466C41.197 8.37533 41.1743 8.296 41.163 8.228C41.1516 8.14867 41.146 8.109 41.146 8.109V2.142C41.146 2.08533 41.1516 1.96067 41.163 1.768C41.1856 1.564 41.231 1.394 41.299 1.258C41.4123 1.02 41.6446 0.883999 41.996 0.849999C42.1886 0.827333 42.37 0.838666 42.54 0.884C42.71 0.929333 42.8403 1.003 42.931 1.105C42.999 1.19567 43.0443 1.28633 43.067 1.377C43.101 1.45633 43.1293 1.54133 43.152 1.632C43.186 1.74533 43.203 1.86433 43.203 1.989C43.2143 2.11367 43.2143 2.23833 43.203 2.363V4.199C43.2483 4.199 43.3333 4.20467 43.458 4.216C43.5826 4.22733 43.713 4.23867 43.849 4.25C43.9963 4.25 44.1323 4.25567 44.257 4.267C44.3816 4.27833 44.4666 4.28967 44.512 4.301C44.7386 4.34633 44.8973 4.41433 44.988 4.505C45.0786 4.58433 45.141 4.68633 45.175 4.811C45.1976 4.93567 45.209 5.083 45.209 5.253C45.209 5.41167 45.175 5.54767 45.107 5.661C44.971 5.88767 44.767 6.018 44.495 6.052C44.223 6.086 43.9226 6.103 43.594 6.103H43.203Z" fill="#FEFEFE"/>
<path d="M57.3993 11.305C57.4333 11.3163 57.4673 11.322 57.5013 11.322C57.5353 11.3107 57.5693 11.305 57.6033 11.305C57.796 11.3277 57.9716 11.3673 58.1303 11.424C58.3003 11.4693 58.4646 11.56 58.6233 11.696C58.782 11.8547 58.8613 12.053 58.8613 12.291C58.8613 12.4157 58.8386 12.5517 58.7933 12.699C58.7593 12.835 58.7083 12.9427 58.6403 13.022C58.5496 13.1127 58.4363 13.1807 58.3003 13.226C58.1643 13.2713 58.034 13.3053 57.9093 13.328C57.7846 13.3393 57.6713 13.345 57.5693 13.345C57.4786 13.345 57.4276 13.345 57.4163 13.345H47.8963C47.8396 13.345 47.783 13.3507 47.7263 13.362C47.6696 13.362 47.613 13.362 47.5563 13.362C47.3183 13.3733 47.0633 13.3733 46.7913 13.362C46.5193 13.3393 46.287 13.2487 46.0943 13.09C45.8563 12.8747 45.7373 12.631 45.7373 12.359C45.7373 12.189 45.7883 12.0133 45.8903 11.832C45.9923 11.6507 46.1283 11.526 46.2983 11.458C46.525 11.3673 46.7573 11.322 46.9953 11.322C47.2446 11.322 47.494 11.3163 47.7433 11.305H47.8283C48.8143 11.2823 49.8286 11.2823 50.8713 11.305L50.8543 9.01C50.7183 9.01 50.5823 9.01 50.4463 9.01C50.3103 8.99867 50.1743 8.98733 50.0383 8.976C49.7436 8.95333 49.4263 8.95333 49.0863 8.976C48.7463 8.98733 48.4346 8.98167 48.1513 8.959C47.8566 8.93633 47.5846 8.86833 47.3353 8.755C47.0973 8.63033 46.95 8.40933 46.8933 8.092C46.8366 7.77467 46.797 7.47433 46.7743 7.191C46.763 6.89633 46.7516 6.613 46.7403 6.341C46.7403 6.05767 46.7403 5.77433 46.7403 5.491C46.7516 5.20767 46.7573 4.90167 46.7573 4.573V3.383C46.7573 3.23567 46.7516 3.07133 46.7403 2.89C46.7403 2.70867 46.7516 2.52733 46.7743 2.346C46.8083 2.16467 46.8593 2.00033 46.9273 1.853C47.0066 1.70567 47.1256 1.59233 47.2843 1.513C47.4543 1.43367 47.647 1.37133 47.8623 1.326C48.0776 1.26933 48.293 1.22967 48.5083 1.207C48.735 1.18433 48.956 1.173 49.1713 1.173C49.398 1.16167 49.6076 1.156 49.8003 1.156H55.2743C55.2856 1.156 55.3536 1.16167 55.4783 1.173C55.6143 1.173 55.773 1.19 55.9543 1.224C56.1356 1.24667 56.317 1.28067 56.4983 1.326C56.691 1.36 56.844 1.411 56.9573 1.479C57.0933 1.55833 57.201 1.68867 57.2803 1.87C57.3596 2.04 57.4163 2.21567 57.4503 2.397C57.4956 2.57833 57.5183 2.74267 57.5183 2.89C57.5296 3.026 57.5353 3.09967 57.5353 3.111V6.392C57.5353 6.65267 57.5296 6.91333 57.5183 7.174C57.5183 7.43467 57.4956 7.69533 57.4503 7.956C57.4276 8.11467 57.388 8.27333 57.3313 8.432C57.2746 8.59067 57.167 8.70967 57.0083 8.789C56.8156 8.87967 56.5663 8.93067 56.2603 8.942C55.9543 8.942 55.6993 8.93633 55.4953 8.925C55.2573 8.925 55.0193 8.93633 54.7813 8.959C54.5433 8.97033 54.3053 8.976 54.0673 8.976H53.2343L53.2683 11.305C53.5856 11.305 53.8633 11.305 54.1013 11.305C54.3393 11.2937 54.566 11.288 54.7813 11.288C55.008 11.288 55.2346 11.288 55.4613 11.288C55.688 11.288 55.9486 11.2937 56.2433 11.305C56.4473 11.3163 56.6456 11.3163 56.8383 11.305C57.031 11.2823 57.218 11.2823 57.3993 11.305ZM54.2203 6.834C54.3223 6.81133 54.4243 6.80567 54.5263 6.817C54.6283 6.82833 54.736 6.81133 54.8493 6.766C54.9173 6.732 54.9683 6.68667 55.0023 6.63C55.0363 6.562 55.0533 6.494 55.0533 6.426C55.0646 6.34667 55.0646 6.26733 55.0533 6.188C55.0533 6.10867 55.0533 6.035 55.0533 5.967V4.539C55.0533 4.35767 55.0533 4.20467 55.0533 4.08C55.0533 3.944 55.025 3.83633 54.9683 3.757C54.923 3.67767 54.8266 3.621 54.6793 3.587C54.532 3.553 54.3166 3.53033 54.0333 3.519H50.7013C50.7013 3.519 50.656 3.519 50.5653 3.519C50.486 3.519 50.384 3.52467 50.2593 3.536C50.146 3.536 50.027 3.54167 49.9023 3.553C49.7776 3.56433 49.67 3.57567 49.5793 3.587C49.432 3.60967 49.313 3.672 49.2223 3.774C49.1316 3.876 49.0863 4.00067 49.0863 4.148L49.1203 6.426C49.143 6.562 49.1996 6.664 49.2903 6.732C49.3923 6.78867 49.5056 6.82833 49.6303 6.851C49.755 6.87367 49.8796 6.885 50.0043 6.885C50.1403 6.87367 50.2593 6.868 50.3613 6.868L54.2203 6.834Z" fill="#FEFEFE"/>
<path d="M61.6752 7.956C61.3579 7.956 61.0802 7.922 60.8422 7.854C60.7402 7.80867 60.6439 7.752 60.5532 7.684C60.4625 7.616 60.3775 7.51967 60.2982 7.395C60.0602 7.14567 59.9412 6.82833 59.9412 6.443V3.06C59.9639 2.90133 59.9752 2.74833 59.9752 2.601C59.9752 2.45367 59.9752 2.28933 59.9752 2.108C59.9752 1.77933 60.0375 1.49033 60.1622 1.241C60.2075 1.16167 60.2642 1.09367 60.3322 1.037C60.4002 0.980333 60.4682 0.929333 60.5362 0.884C60.6042 0.827333 60.6779 0.787666 60.7572 0.764999C60.8365 0.742333 60.9159 0.719666 60.9952 0.696999C61.0859 0.696999 61.1652 0.702666 61.2332 0.714C61.3012 0.714 61.3919 0.736667 61.5052 0.782C61.6412 0.827333 61.7602 0.929332 61.8622 1.088C62.0322 1.428 62.1172 1.77933 62.1172 2.142V5.083C62.1399 5.17367 62.1512 5.26433 62.1512 5.355C62.1625 5.43433 62.1682 5.51367 62.1682 5.593C62.1909 5.64967 62.2022 5.70067 62.2022 5.746C62.2135 5.79133 62.2475 5.831 62.3042 5.865C62.3495 5.94433 62.4175 5.984 62.5082 5.984C62.5535 6.00667 62.5989 6.02367 62.6442 6.035C62.6895 6.035 62.7349 6.035 62.7802 6.035H63.0862L66.6392 6.12C66.8092 6.12 66.9339 6.16533 67.0132 6.256C67.0585 6.31267 67.1039 6.36367 67.1492 6.409C67.1945 6.45433 67.2285 6.511 67.2512 6.579C67.2739 6.63567 67.2852 6.698 67.2852 6.766C67.2852 6.82267 67.2852 6.885 67.2852 6.953C67.3305 7.07767 67.3305 7.17967 67.2852 7.259C67.2512 7.55367 67.1322 7.74067 66.9282 7.82C66.7015 7.91067 66.4295 7.956 66.1122 7.956H61.6752ZM60.6382 14.076C60.5249 13.9853 60.4455 13.8437 60.4002 13.651C60.3775 13.5603 60.3662 13.481 60.3662 13.413C60.3662 13.345 60.3662 13.277 60.3662 13.209C60.3662 13.1183 60.3549 13.0277 60.3322 12.937C60.3095 12.8463 60.2982 12.7387 60.2982 12.614V11.033C60.2982 10.829 60.2982 10.642 60.2982 10.472C60.3095 10.302 60.3322 10.149 60.3662 10.013C60.4002 9.843 60.4625 9.707 60.5532 9.605C60.6552 9.503 60.7685 9.40667 60.8932 9.316C61.0519 9.27067 61.2105 9.231 61.3692 9.197C61.5392 9.163 61.7035 9.146 61.8622 9.146H69.6142C69.7275 9.16867 69.8239 9.18567 69.9032 9.197C69.9939 9.197 70.1015 9.197 70.2262 9.197C70.4415 9.231 70.6455 9.29333 70.8382 9.384C70.9629 9.42933 71.0592 9.49167 71.1272 9.571C71.1952 9.639 71.2575 9.72967 71.3142 9.843C71.3369 9.95633 71.3595 10.0527 71.3822 10.132C71.4049 10.2113 71.4275 10.3077 71.4502 10.421V11.152C71.4729 11.288 71.4785 11.4297 71.4672 11.577C71.4559 11.713 71.4502 11.8603 71.4502 12.019C71.4502 12.1777 71.4445 12.3307 71.4332 12.478C71.4332 12.6253 71.4219 12.7783 71.3992 12.937C71.3992 13.2317 71.3539 13.4697 71.2632 13.651C71.2632 13.6963 71.2519 13.753 71.2292 13.821C71.2179 13.889 71.2009 13.9457 71.1782 13.991C71.1555 14.0363 71.1215 14.076 71.0762 14.11C71.0309 14.1553 70.9629 14.1893 70.8722 14.212C70.8155 14.2347 70.7532 14.246 70.6852 14.246C70.6285 14.246 70.5775 14.246 70.5322 14.246C70.4642 14.28 70.3962 14.297 70.3282 14.297C70.2602 14.3083 70.1979 14.314 70.1412 14.314L61.5902 14.246H61.1142C60.9442 14.246 60.7969 14.2063 60.6722 14.127L60.6382 14.076ZM62.3042 12.308C62.3042 12.3647 62.3212 12.393 62.3552 12.393C62.3779 12.4157 62.3949 12.427 62.4062 12.427C62.4175 12.427 62.4515 12.427 62.5082 12.427H62.8652L68.6452 12.444C68.7472 12.444 68.8435 12.4497 68.9342 12.461C69.0249 12.4723 69.1042 12.4723 69.1722 12.461C69.2402 12.4383 69.2912 12.4043 69.3252 12.359C69.3705 12.3137 69.3932 12.2287 69.3932 12.104V11.39C69.3932 11.3333 69.3819 11.2937 69.3592 11.271C69.3479 11.2483 69.3309 11.2257 69.3082 11.203C69.2062 11.1237 69.0985 11.067 68.9852 11.033C68.9059 11.033 68.8322 11.033 68.7642 11.033C68.7075 11.033 68.6565 11.0443 68.6112 11.067H64.0892C63.9645 11.0443 63.8455 11.033 63.7322 11.033C63.6302 11.033 63.4999 11.033 63.3412 11.033C63.2392 11.033 63.1259 11.033 63.0012 11.033C62.8879 11.033 62.7689 11.0443 62.6442 11.067H62.4402C62.4062 11.067 62.3609 11.1123 62.3042 11.203V12.308ZM71.3992 7.225C71.3765 7.293 71.3595 7.361 71.3482 7.429C71.3482 7.497 71.3369 7.55367 71.3142 7.599C71.2689 7.735 71.2065 7.84267 71.1272 7.922C71.1045 7.97867 71.0705 8.024 71.0252 8.058C70.9799 8.092 70.9289 8.13733 70.8722 8.194C70.7815 8.23933 70.6909 8.279 70.6002 8.313C70.5095 8.347 70.4245 8.364 70.3452 8.364C70.2545 8.364 70.1639 8.35267 70.0732 8.33C69.9825 8.30733 69.8919 8.262 69.8012 8.194C69.7332 8.13733 69.6709 8.08067 69.6142 8.024C69.5689 7.956 69.5235 7.89367 69.4782 7.837C69.3989 7.65567 69.3422 7.463 69.3082 7.259C69.3082 7.157 69.2969 7.06067 69.2742 6.97C69.2629 6.87933 69.2572 6.77167 69.2572 6.647C69.2572 6.52233 69.2572 6.41467 69.2572 6.324C69.2685 6.222 69.2855 6.10867 69.3082 5.984V1.921C69.3082 1.853 69.3139 1.785 69.3252 1.717C69.3365 1.649 69.3422 1.581 69.3422 1.513C69.3989 1.33167 69.5065 1.15033 69.6652 0.969C69.7105 0.923666 69.7615 0.878333 69.8182 0.832999C69.8862 0.787666 69.9542 0.753666 70.0222 0.731C70.1242 0.708333 70.2205 0.691333 70.3112 0.679999C70.4019 0.668666 70.4925 0.674333 70.5832 0.696999C70.7305 0.719666 70.8609 0.753666 70.9742 0.799C71.0989 0.844333 71.1952 0.929333 71.2632 1.054C71.2859 1.13333 71.3142 1.21267 71.3482 1.292C71.3822 1.36 71.3992 1.45067 71.3992 1.564V7.225Z" fill="#FEFEFE"/>
<path d="M83.9886 12.988C84.17 13.0107 84.3286 13.056 84.4646 13.124C84.6006 13.192 84.697 13.3167 84.7536 13.498C84.8896 13.906 84.7423 14.195 84.3116 14.365C84.1756 14.4217 84.0396 14.4557 83.9036 14.467C83.7676 14.4783 83.6373 14.484 83.5126 14.484H75.6076C75.381 14.484 75.143 14.4783 74.8936 14.467C74.6556 14.467 74.412 14.4613 74.1626 14.45C73.9246 14.4387 73.7263 14.3537 73.5676 14.195C73.409 14.0363 73.3183 13.8267 73.2956 13.566L73.2446 12.376C73.2333 12.2513 73.2333 12.104 73.2446 11.934C73.256 11.764 73.3126 11.6223 73.4146 11.509C73.5733 11.339 73.783 11.2313 74.0436 11.186C74.3156 11.1407 74.5763 11.118 74.8256 11.118C74.9843 11.118 75.245 11.118 75.6076 11.118C75.9816 11.118 76.486 11.1237 77.1206 11.135C77.7553 11.135 78.5373 11.135 79.4666 11.135C80.4073 11.135 81.5236 11.135 82.8156 11.135V10.523H74.4516C74.3383 10.523 74.2363 10.523 74.1456 10.523C74.055 10.523 73.9643 10.5117 73.8736 10.489C73.7716 10.4663 73.681 10.4437 73.6016 10.421C73.5223 10.3983 73.4543 10.3417 73.3976 10.251C73.239 10.013 73.1993 9.76933 73.2786 9.52C73.3126 9.42933 73.3636 9.36133 73.4316 9.316C73.4996 9.25933 73.579 9.214 73.6696 9.18C73.7603 9.146 73.8453 9.12333 73.9246 9.112C74.0153 9.10067 74.0946 9.08933 74.1626 9.078C74.3326 9.044 74.5083 9.027 74.6896 9.027C74.8596 9.027 75.041 9.027 75.2336 9.027C75.4263 9.027 75.6586 9.027 75.9306 9.027C76.214 9.027 76.5483 9.03267 76.9336 9.044C77.319 9.044 77.7893 9.044 78.3446 9.044C78.9113 9.044 79.5686 9.044 80.3166 9.044C81.076 9.044 81.9656 9.044 82.9856 9.044C83.5636 9.044 84.0056 9.13467 84.3116 9.316C84.6176 9.486 84.7706 9.76933 84.7706 10.166V11.373C84.7706 11.5317 84.731 11.6903 84.6516 11.849C84.5836 11.9963 84.459 12.121 84.2776 12.223C84.1303 12.3137 83.983 12.3647 83.8356 12.376C83.6883 12.376 83.541 12.376 83.3936 12.376H75.3356V12.988H83.9886ZM73.3976 3.111C73.375 2.82767 73.358 2.54433 73.3466 2.261C73.3353 1.97767 73.375 1.71133 73.4656 1.462C73.5903 1.156 73.7943 0.963333 74.0776 0.884C74.361 0.793333 74.6443 0.747999 74.9276 0.747999H82.8496C83.0763 0.747999 83.2916 0.759333 83.4956 0.782C83.6996 0.793333 83.915 0.844333 84.1416 0.934999C84.323 1.01433 84.4646 1.139 84.5666 1.309C84.6686 1.46767 84.714 1.64333 84.7026 1.836C84.68 2.02867 84.612 2.19867 84.4986 2.346C84.3966 2.482 84.2493 2.57267 84.0566 2.618C83.83 2.67467 83.524 2.703 83.1386 2.703C82.9913 2.703 82.8723 2.703 82.7816 2.703C82.691 2.69167 82.64 2.686 82.6286 2.686H77.7156C77.5456 2.686 77.3756 2.69167 77.2056 2.703C77.0356 2.703 76.8656 2.69733 76.6956 2.686C76.5596 2.67467 76.418 2.65767 76.2706 2.635C76.1346 2.61233 76.0043 2.62367 75.8796 2.669C75.755 2.703 75.687 2.78233 75.6756 2.907C75.6643 3.03167 75.6756 3.16767 75.7096 3.315C75.8683 3.33767 76.027 3.35467 76.1856 3.366C76.3556 3.366 76.52 3.37167 76.6786 3.383H79.9086C79.954 3.383 80.0616 3.38867 80.2316 3.4C80.4016 3.4 80.583 3.4 80.7756 3.4C80.9683 3.4 81.144 3.4 81.3026 3.4C81.4726 3.38867 81.5803 3.383 81.6256 3.383C81.6596 3.383 81.7333 3.383 81.8466 3.383C81.9713 3.37167 82.096 3.366 82.2206 3.366C82.3566 3.366 82.4813 3.366 82.5946 3.366C82.7193 3.366 82.7986 3.366 82.8326 3.366C83.3653 3.366 83.813 3.451 84.1756 3.621C84.289 3.67767 84.3796 3.74 84.4476 3.808C84.527 3.86467 84.578 3.961 84.6006 4.097C84.68 4.39167 84.629 4.64667 84.4476 4.862C84.289 5.07733 84.1076 5.20767 83.9036 5.253C83.6996 5.287 83.4786 5.30967 83.2406 5.321C83.1273 5.321 82.9063 5.32667 82.5776 5.338C82.249 5.338 81.892 5.34367 81.5066 5.355C81.1326 5.355 80.7643 5.355 80.4016 5.355C80.039 5.355 79.7726 5.355 79.6026 5.355C79.4213 5.355 79.2003 5.355 78.9396 5.355C78.6903 5.355 78.4296 5.355 78.1576 5.355C77.897 5.34367 77.642 5.338 77.3926 5.338C77.1546 5.338 76.9506 5.338 76.7806 5.338C76.4066 5.32667 76.0326 5.31533 75.6586 5.304C75.2846 5.29267 74.9106 5.287 74.5366 5.287C74.2646 5.287 74.0493 5.24733 73.8906 5.168C73.7433 5.07733 73.6356 4.95833 73.5676 4.811C73.4996 4.65233 73.46 4.471 73.4486 4.267C73.4373 4.05167 73.4316 3.825 73.4316 3.587C73.4316 3.50767 73.426 3.42833 73.4146 3.349C73.4146 3.26967 73.409 3.19033 73.3976 3.111ZM73.9756 6.273C74.0663 6.26167 74.1683 6.256 74.2816 6.256C74.395 6.24467 74.514 6.239 74.6386 6.239H78.8036C79.4043 6.22767 79.9936 6.222 80.5716 6.222C81.059 6.222 81.569 6.222 82.1016 6.222C82.6343 6.222 83.0933 6.22767 83.4786 6.239H83.5636C83.7903 6.25033 84.017 6.256 84.2436 6.256C84.4703 6.256 84.697 6.30133 84.9236 6.392C85.0823 6.44867 85.207 6.545 85.2976 6.681C85.3996 6.817 85.4506 6.97 85.4506 7.14C85.4506 7.42333 85.3373 7.66133 85.1106 7.854C84.9293 8.01267 84.7083 8.10333 84.4476 8.126C84.187 8.14867 83.9433 8.14867 83.7166 8.126H73.9586C73.9473 8.126 73.8963 8.126 73.8056 8.126C73.715 8.126 73.6073 8.11467 73.4826 8.092C73.3693 8.06933 73.2446 8.03533 73.1086 7.99C72.984 7.94467 72.882 7.87667 72.8026 7.786C72.6666 7.65 72.5986 7.45733 72.5986 7.208C72.5986 6.97 72.6723 6.77733 72.8196 6.63C72.967 6.48267 73.12 6.39767 73.2786 6.375C73.4373 6.341 73.6016 6.31267 73.7716 6.29C73.8056 6.29 73.8396 6.29 73.8736 6.29C73.9076 6.27867 73.9416 6.273 73.9756 6.273Z" fill="#FEFEFE"/>
<path d="M87.8289 8.007C87.3756 7.68967 87.0526 7.23633 86.8599 6.647C86.7466 6.35233 86.6672 6.069 86.6219 5.797C86.5879 5.525 86.5709 5.24733 86.5709 4.964C86.5709 4.66933 86.5936 4.39733 86.6389 4.148C86.6956 3.88733 86.7692 3.63233 86.8599 3.383C86.9732 3.145 87.0922 2.924 87.2169 2.72C87.3529 2.50467 87.5116 2.31767 87.6929 2.159C87.8742 1.96633 88.0612 1.802 88.2539 1.666C88.4579 1.53 88.6902 1.41667 88.9509 1.326C89.1776 1.21267 89.4212 1.13333 89.6819 1.088C89.9539 1.03133 90.2372 1.003 90.5319 1.003C90.7359 0.969 90.9342 0.969 91.1269 1.003C91.2176 1.003 91.3139 1.00867 91.4159 1.02C91.5292 1.03133 91.6312 1.04833 91.7219 1.071C91.7672 1.09367 91.8126 1.105 91.8579 1.105C91.9146 1.105 91.9712 1.11633 92.0279 1.139C92.0846 1.139 92.1356 1.15033 92.1809 1.173C92.2376 1.18433 92.2829 1.20133 92.3169 1.224C92.4416 1.258 92.5549 1.29767 92.6569 1.343C92.7702 1.377 92.8836 1.42233 92.9969 1.479C93.1896 1.56967 93.3822 1.67167 93.5749 1.785C93.6429 1.819 93.7166 1.87 93.7959 1.938C93.8866 2.006 93.9716 2.07967 94.0509 2.159C94.2549 2.363 94.4192 2.57267 94.5439 2.788C94.6119 2.90133 94.6686 3.02033 94.7139 3.145C94.7706 3.26967 94.8102 3.40567 94.8329 3.553C94.8669 3.67767 94.8952 3.808 94.9179 3.944C94.9406 4.06867 94.9632 4.19333 94.9859 4.318C95.0086 4.44267 95.0256 4.56733 95.0369 4.692C95.0482 4.81667 95.0426 4.95267 95.0199 5.1C95.0199 5.168 95.0142 5.24733 95.0029 5.338C94.9916 5.41733 94.9859 5.491 94.9859 5.559C94.9632 5.64967 94.9462 5.74033 94.9349 5.831C94.9236 5.92167 94.9009 6.001 94.8669 6.069C94.7989 6.511 94.6572 6.919 94.4419 7.293C94.3172 7.48567 94.1756 7.65567 94.0169 7.803C93.8696 7.95033 93.6996 8.092 93.5069 8.228C93.3596 8.31867 93.2122 8.398 93.0649 8.466C92.9176 8.534 92.7646 8.585 92.6059 8.619C92.4586 8.66433 92.3056 8.704 92.1469 8.738C91.9996 8.76067 91.8466 8.789 91.6879 8.823C91.6312 8.84567 91.5746 8.857 91.5179 8.857C91.4612 8.857 91.4046 8.857 91.3479 8.857C91.3139 8.857 91.2686 8.857 91.2119 8.857C91.1666 8.857 91.1156 8.86833 91.0589 8.891H90.7529C90.7076 8.891 90.6566 8.891 90.5999 8.891C90.5546 8.891 90.5036 8.87967 90.4469 8.857C90.3789 8.857 90.3052 8.857 90.2259 8.857C90.1579 8.857 90.0899 8.84567 90.0219 8.823C89.9312 8.823 89.8462 8.81733 89.7669 8.806C89.6989 8.79467 89.6252 8.789 89.5459 8.789C89.2399 8.74367 88.9452 8.653 88.6619 8.517C88.5032 8.43767 88.3559 8.364 88.2199 8.296C88.0839 8.21667 87.9536 8.12033 87.8289 8.007ZM98.7939 4.029C98.8166 4.25567 98.8279 4.488 98.8279 4.726C98.8279 4.964 98.8279 5.21333 98.8279 5.474V8.228C98.8279 8.48867 98.8279 8.73233 98.8279 8.959C98.8279 9.18567 98.8166 9.40667 98.7939 9.622V11.56C98.7712 11.7413 98.7656 11.9227 98.7769 12.104C98.7882 12.274 98.7939 12.4383 98.7939 12.597C98.7939 12.7103 98.7939 12.818 98.7939 12.92C98.7939 13.022 98.7826 13.1183 98.7599 13.209C98.7599 13.3903 98.7202 13.5377 98.6409 13.651C98.6182 13.7077 98.5956 13.7587 98.5729 13.804C98.5502 13.838 98.5276 13.8833 98.5049 13.94C98.4596 13.974 98.4142 14.0137 98.3689 14.059C98.3236 14.1043 98.2556 14.144 98.1649 14.178C98.0629 14.2573 97.9439 14.3083 97.8079 14.331C97.6719 14.3537 97.5302 14.3537 97.3829 14.331C97.1902 14.2857 97.0486 14.212 96.9579 14.11C96.8672 14.0533 96.7822 13.9343 96.7029 13.753C96.6689 13.6737 96.6406 13.6 96.6179 13.532C96.5952 13.464 96.5839 13.3903 96.5839 13.311C96.5612 13.2543 96.5442 13.1977 96.5329 13.141C96.5216 13.0843 96.5159 13.039 96.5159 13.005V12.818L96.4819 2.737C96.4819 2.58967 96.4819 2.44233 96.4819 2.295C96.4932 2.14767 96.5159 1.98333 96.5499 1.802C96.5839 1.496 96.6859 1.24667 96.8559 1.054C97.0146 0.940666 97.1392 0.867 97.2299 0.832999C97.3092 0.810333 97.3829 0.799 97.4509 0.799C97.5302 0.799 97.6152 0.799 97.7059 0.799C97.7966 0.799 97.8872 0.810333 97.9779 0.832999C98.0686 0.855666 98.1592 0.895333 98.2499 0.952C98.3972 1.06533 98.5049 1.207 98.5729 1.377C98.6296 1.50167 98.6749 1.62633 98.7089 1.751C98.7429 1.87567 98.7599 2.00033 98.7599 2.125C98.7599 2.24967 98.7599 2.38567 98.7599 2.533C98.7599 2.669 98.7712 2.79933 98.7939 2.924V4.029ZM95.0539 10.761C95.2012 10.8063 95.3316 10.8687 95.4449 10.948C95.5582 11.0613 95.6432 11.1747 95.6999 11.288C95.7679 11.4013 95.8019 11.526 95.8019 11.662C95.8019 11.8547 95.7396 12.0247 95.6149 12.172C95.5016 12.3193 95.3769 12.4157 95.2409 12.461C95.1842 12.4837 95.1276 12.5007 95.0709 12.512C95.0142 12.5233 94.9576 12.529 94.9009 12.529C94.8329 12.5517 94.7706 12.563 94.7139 12.563C94.6572 12.563 94.6006 12.563 94.5439 12.563H92.9289C92.7362 12.563 92.5379 12.563 92.3339 12.563C92.1412 12.563 91.9372 12.5743 91.7219 12.597H90.5319C90.3279 12.5743 90.1466 12.563 89.9879 12.563C89.8292 12.563 89.6706 12.563 89.5119 12.563H87.7269C87.6136 12.563 87.5059 12.5573 87.4039 12.546C87.3019 12.5347 87.1942 12.5177 87.0809 12.495C87.0242 12.4723 86.9676 12.4553 86.9109 12.444C86.8656 12.4213 86.8146 12.3987 86.7579 12.376C86.6559 12.342 86.5596 12.291 86.4689 12.223C86.4009 12.1437 86.3442 12.0587 86.2989 11.968C86.2649 11.866 86.2479 11.7413 86.2479 11.594C86.2479 11.3787 86.3216 11.186 86.4689 11.016C86.5369 10.914 86.6446 10.846 86.7919 10.812C86.8599 10.7893 86.9279 10.7723 86.9959 10.761C87.0639 10.7383 87.1262 10.7157 87.1829 10.693C87.2622 10.6703 87.3246 10.659 87.3699 10.659C87.4152 10.659 87.4606 10.659 87.5059 10.659H93.9319C94.0452 10.659 94.1529 10.659 94.2549 10.659C94.3569 10.659 94.4532 10.6703 94.5439 10.693C94.6346 10.693 94.7196 10.6987 94.7989 10.71C94.8782 10.7213 94.9632 10.7383 95.0539 10.761ZM88.8319 4.658C88.7979 4.87333 88.7979 5.1 88.8319 5.338C88.8886 5.61 88.9622 5.831 89.0529 6.001C89.2796 6.35233 89.6139 6.613 90.0559 6.783C90.2146 6.83967 90.3732 6.87933 90.5319 6.902C90.7019 6.92467 90.8662 6.936 91.0249 6.936C91.1156 6.91333 91.2006 6.902 91.2799 6.902C91.3592 6.902 91.4442 6.89067 91.5349 6.868C91.6142 6.868 91.6879 6.851 91.7559 6.817C91.8352 6.783 91.9146 6.749 91.9939 6.715C92.2092 6.613 92.3906 6.443 92.5379 6.205C92.6172 6.08033 92.6739 5.96133 92.7079 5.848C92.7419 5.73467 92.7759 5.61567 92.8099 5.491C92.8552 5.29833 92.8666 5.117 92.8439 4.947C92.8326 4.777 92.7986 4.59567 92.7419 4.403C92.7192 4.32367 92.6852 4.25 92.6399 4.182C92.6059 4.10267 92.5719 4.03467 92.5379 3.978C92.5039 3.944 92.4756 3.91 92.4529 3.876C92.4302 3.83067 92.3962 3.79667 92.3509 3.774C92.3169 3.69467 92.2489 3.621 92.1469 3.553C92.0562 3.49633 91.9656 3.451 91.8749 3.417C91.8296 3.383 91.7786 3.35467 91.7219 3.332C91.6766 3.30933 91.6256 3.28667 91.5689 3.264C91.2742 3.196 90.9739 3.162 90.6679 3.162C90.5206 3.162 90.3789 3.17333 90.2429 3.196C90.1069 3.21867 89.9766 3.25833 89.8519 3.315C89.7272 3.37167 89.6082 3.43967 89.4949 3.519C89.3816 3.587 89.2796 3.68333 89.1889 3.808C89.0982 3.92133 89.0246 4.05167 88.9679 4.199C88.9226 4.335 88.8772 4.488 88.8319 4.658Z" fill="#FEFEFE"/>
<path d="M115.893 8.942C115.327 8.96467 114.777 8.98167 114.244 8.993C113.712 9.00433 113.156 9.01 112.578 9.01C112.567 9.248 112.556 9.46333 112.544 9.656C112.533 9.83733 112.527 10.0867 112.527 10.404C112.505 10.5287 112.448 10.6363 112.357 10.727C112.278 10.8177 112.182 10.897 112.068 10.965C111.955 11.033 111.83 11.084 111.694 11.118C111.57 11.1407 111.451 11.152 111.337 11.152C110.997 11.1293 110.731 11.0443 110.538 10.897C110.357 10.7497 110.249 10.506 110.215 10.166C110.193 9.93933 110.187 9.741 110.198 9.571C110.221 9.401 110.232 9.20267 110.232 8.976C109.972 8.976 109.632 8.976 109.212 8.976C108.804 8.96467 108.379 8.959 107.937 8.959C107.495 8.94767 107.07 8.93633 106.662 8.925C106.254 8.91367 105.931 8.89667 105.693 8.874C105.512 8.85133 105.365 8.82867 105.251 8.806C105.149 8.772 105.025 8.687 104.877 8.551C104.798 8.483 104.741 8.39233 104.707 8.279C104.673 8.16567 104.656 8.04667 104.656 7.922C104.656 7.684 104.73 7.49133 104.877 7.344C104.957 7.25333 105.064 7.18533 105.2 7.14C105.336 7.09467 105.467 7.06067 105.591 7.038C105.716 7.01533 105.824 7.004 105.914 7.004C106.016 7.004 106.073 7.004 106.084 7.004H115.808C115.978 7.004 116.148 7.004 116.318 7.004C116.488 7.004 116.653 7.00967 116.811 7.021C116.97 7.03233 117.123 7.055 117.27 7.089C117.429 7.123 117.571 7.19667 117.695 7.31C117.82 7.40067 117.888 7.50267 117.899 7.616C117.922 7.72933 117.933 7.854 117.933 7.99C117.933 8.16 117.882 8.313 117.78 8.449C117.69 8.585 117.559 8.68133 117.389 8.738C117.163 8.82867 116.913 8.88533 116.641 8.908C116.381 8.91933 116.131 8.93067 115.893 8.942ZM108.719 5.338C108.504 5.48533 108.289 5.644 108.073 5.814C107.869 5.984 107.62 6.09733 107.325 6.154C107.223 6.17667 107.116 6.19933 107.002 6.222C106.9 6.24467 106.798 6.25033 106.696 6.239C106.594 6.22767 106.492 6.19933 106.39 6.154C106.3 6.09733 106.215 6.00667 106.135 5.882C106.045 5.746 105.994 5.62133 105.982 5.508C105.982 5.38333 106.005 5.27 106.05 5.168C106.107 5.066 106.175 4.96967 106.254 4.879C106.334 4.78833 106.419 4.70333 106.509 4.624C106.849 4.318 107.201 4.00067 107.563 3.672C107.937 3.332 108.317 3.03167 108.702 2.771C108.827 2.69167 108.969 2.584 109.127 2.448C109.297 2.30067 109.462 2.159 109.62 2.023C109.802 1.86433 109.989 1.7 110.181 1.53C110.159 1.37133 110.153 1.21833 110.164 1.071C110.176 0.946333 110.204 0.816 110.249 0.679999C110.295 0.532666 110.38 0.413666 110.504 0.323C110.652 0.221 110.85 0.153 111.099 0.118999C111.349 0.0849992 111.564 0.0906658 111.745 0.135999C112.006 0.204 112.176 0.311666 112.255 0.458999C112.346 0.606333 112.408 0.781999 112.442 0.985999C112.465 1.156 112.499 1.31467 112.544 1.462C112.59 1.60933 112.675 1.75667 112.799 1.904C112.89 2.006 113.003 2.108 113.139 2.21C113.287 2.312 113.417 2.40833 113.53 2.499C113.927 2.839 114.312 3.15633 114.686 3.451C115.072 3.74567 115.468 4.063 115.876 4.403C116.012 4.505 116.126 4.641 116.216 4.811C116.318 4.96967 116.386 5.134 116.42 5.304C116.454 5.46267 116.443 5.62133 116.386 5.78C116.341 5.92733 116.233 6.04633 116.063 6.137C115.735 6.26167 115.417 6.256 115.111 6.12C114.817 5.97267 114.562 5.80267 114.346 5.61C114.12 5.44 113.859 5.27 113.564 5.1C113.27 4.91867 113.015 4.73167 112.799 4.539L111.286 3.451C111.128 3.57567 110.986 3.689 110.861 3.791C110.748 3.88167 110.64 3.961 110.538 4.029C110.448 4.097 110.391 4.14233 110.368 4.165C110.119 4.35767 109.847 4.556 109.552 4.76C109.269 4.95267 108.991 5.14533 108.719 5.338ZM116.369 12.325C116.381 12.325 116.42 12.3363 116.488 12.359C116.556 12.3817 116.63 12.4213 116.709 12.478C116.8 12.5233 116.879 12.5913 116.947 12.682C117.027 12.7613 117.078 12.8577 117.1 12.971C117.168 13.4017 117.1 13.736 116.896 13.974C116.772 14.1327 116.636 14.229 116.488 14.263C116.341 14.297 116.262 14.314 116.25 14.314H106.968C106.538 14.314 106.198 14.2403 105.948 14.093C105.699 13.957 105.574 13.7587 105.574 13.498V11.815C105.552 11.5657 105.552 11.3107 105.574 11.05C105.597 10.812 105.688 10.6193 105.846 10.472C106.005 10.3247 106.203 10.251 106.441 10.251C106.498 10.251 106.572 10.2567 106.662 10.268C106.764 10.268 106.844 10.2793 106.9 10.302C107.048 10.3473 107.161 10.4153 107.24 10.506C107.32 10.5967 107.382 10.7043 107.427 10.829C107.473 10.9423 107.501 11.067 107.512 11.203C107.524 11.3277 107.535 11.4523 107.546 11.577C107.546 11.6677 107.552 11.7923 107.563 11.951C107.575 12.0983 107.592 12.2117 107.614 12.291C107.637 12.3023 107.739 12.3193 107.92 12.342C108.113 12.3533 108.408 12.359 108.804 12.359C109.144 12.359 109.445 12.3533 109.705 12.342C109.977 12.3307 110.119 12.325 110.13 12.325H116.369Z" fill="#FEFEFE"/>
<path d="M118.941 8.381C118.782 8.313 118.669 8.18267 118.601 7.99C118.51 7.76333 118.493 7.53667 118.55 7.31C118.618 7.08333 118.72 6.868 118.856 6.664C118.992 6.46 119.145 6.26733 119.315 6.086C119.496 5.90467 119.649 5.73467 119.774 5.576C119.967 5.338 120.154 5.1 120.335 4.862C120.517 4.624 120.703 4.38033 120.896 4.131C121.032 3.93833 121.174 3.71167 121.321 3.451C121.469 3.19033 121.553 2.93533 121.576 2.686C121.576 2.618 121.582 2.533 121.593 2.431C121.604 2.31767 121.61 2.20433 121.61 2.091C121.621 1.96633 121.633 1.853 121.644 1.751C121.655 1.649 121.673 1.564 121.695 1.496C121.763 1.26933 121.871 1.11633 122.018 1.037C122.177 0.946333 122.415 0.901 122.732 0.901C122.913 0.901 123.117 0.935 123.344 1.003C123.571 1.05967 123.724 1.17867 123.803 1.36C123.882 1.564 123.905 1.802 123.871 2.074C123.848 2.33467 123.871 2.57267 123.939 2.788C123.996 2.958 124.081 3.13367 124.194 3.315C124.308 3.49633 124.426 3.67767 124.551 3.859C124.766 4.165 124.982 4.49933 125.197 4.862C125.413 5.21333 125.611 5.51367 125.792 5.763C125.974 6.001 126.149 6.25033 126.319 6.511C126.489 6.76033 126.602 7.03233 126.659 7.327C126.716 7.57633 126.687 7.786 126.574 7.956C126.472 8.11467 126.33 8.23367 126.149 8.313C125.968 8.381 125.769 8.398 125.554 8.364C125.339 8.31867 125.152 8.21667 124.993 8.058C124.574 7.62733 124.194 7.16833 123.854 6.681C123.514 6.18233 123.163 5.695 122.8 5.219C122.8 5.219 122.749 5.27567 122.647 5.389C122.545 5.50233 122.42 5.64967 122.273 5.831C122.126 6.01233 121.961 6.21067 121.78 6.426C121.599 6.64133 121.429 6.84533 121.27 7.038C121.111 7.23067 120.97 7.40067 120.845 7.548C120.732 7.684 120.664 7.769 120.641 7.803C120.516 7.95033 120.375 8.08067 120.216 8.194C120.057 8.30733 119.882 8.38667 119.689 8.432C119.564 8.45467 119.434 8.466 119.298 8.466C119.173 8.466 119.054 8.43767 118.941 8.381ZM121.559 14.297C121.094 14.297 120.72 14.195 120.437 13.991C120.154 13.7983 120.012 13.5717 120.012 13.311V10.863C119.989 10.6137 119.989 10.3587 120.012 10.098C120.035 9.86 120.125 9.66733 120.284 9.52C120.454 9.37267 120.669 9.299 120.93 9.299C120.987 9.299 121.089 9.30467 121.236 9.316C121.384 9.316 121.486 9.32733 121.542 9.35C121.69 9.39533 121.803 9.46333 121.882 9.554C121.973 9.64467 122.041 9.75233 122.086 9.877C122.131 9.99033 122.16 10.115 122.171 10.251C122.182 10.3757 122.194 10.5003 122.205 10.625C122.205 10.6703 122.205 10.778 122.205 10.948C122.216 11.1067 122.222 11.2823 122.222 11.475C122.234 11.6563 122.239 11.8263 122.239 11.985C122.25 12.1437 122.262 12.24 122.273 12.274C122.307 12.2853 122.398 12.3023 122.545 12.325C122.704 12.3363 122.993 12.342 123.412 12.342C123.775 12.342 123.996 12.3363 124.075 12.325C124.166 12.3137 124.217 12.308 124.228 12.308H129.787C129.787 12.308 129.821 12.3193 129.889 12.342C129.968 12.3647 130.053 12.4043 130.144 12.461C130.235 12.5063 130.32 12.5743 130.399 12.665C130.479 12.7443 130.53 12.8407 130.552 12.954C130.609 13.3847 130.535 13.719 130.331 13.957C130.195 14.1157 130.048 14.212 129.889 14.246C129.73 14.28 129.646 14.297 129.634 14.297H121.559ZM130.195 6.103V7.871C130.184 7.99567 130.167 8.126 130.144 8.262C130.121 8.38667 130.076 8.51133 130.008 8.636C129.929 8.78333 129.832 8.891 129.719 8.959C129.538 9.08367 129.345 9.146 129.141 9.146C128.971 9.146 128.812 9.10067 128.665 9.01C128.552 8.942 128.461 8.857 128.393 8.755C128.325 8.653 128.268 8.55667 128.223 8.466C128.189 8.37533 128.166 8.296 128.155 8.228C128.144 8.14867 128.138 8.109 128.138 8.109V2.142C128.138 2.08533 128.144 1.96067 128.155 1.768C128.178 1.564 128.223 1.394 128.291 1.258C128.405 1.02 128.637 0.883999 128.988 0.849999C129.181 0.827333 129.362 0.838666 129.532 0.884C129.702 0.929333 129.833 1.003 129.923 1.105C129.991 1.19567 130.036 1.28633 130.059 1.377C130.093 1.45633 130.121 1.54133 130.144 1.632C130.178 1.74533 130.195 1.86433 130.195 1.989C130.206 2.11367 130.206 2.23833 130.195 2.363V4.199C130.24 4.199 130.325 4.20467 130.45 4.216C130.575 4.22733 130.705 4.23867 130.841 4.25C130.989 4.25 131.124 4.25567 131.249 4.267C131.374 4.27833 131.459 4.28967 131.504 4.301C131.731 4.34633 131.889 4.41433 131.98 4.505C132.071 4.58433 132.133 4.68633 132.167 4.811C132.19 4.93567 132.201 5.083 132.201 5.253C132.201 5.41167 132.167 5.54767 132.099 5.661C131.963 5.88767 131.759 6.018 131.487 6.052C131.215 6.086 130.915 6.103 130.586 6.103H130.195Z" fill="#FEFEFE"/>
<path d="M144 13.192C144.17 13.2147 144.323 13.2657 144.459 13.345C144.595 13.413 144.692 13.5433 144.748 13.736C144.884 14.1553 144.737 14.4613 144.306 14.654C144.182 14.7107 144.051 14.7447 143.915 14.756C143.779 14.7673 143.649 14.773 143.524 14.773H135.704C135.478 14.773 135.245 14.7673 135.007 14.756C134.769 14.756 134.526 14.7503 134.276 14.739C134.05 14.7277 133.857 14.637 133.698 14.467C133.54 14.297 133.449 14.076 133.426 13.804L133.375 12.546C133.364 12.4213 133.364 12.2683 133.375 12.087C133.387 11.9057 133.443 11.7583 133.545 11.645C133.704 11.4637 133.914 11.3503 134.174 11.305C134.435 11.2597 134.69 11.237 134.939 11.237C135.098 11.237 135.359 11.237 135.721 11.237C136.084 11.237 136.577 11.2427 137.2 11.254C137.824 11.254 138.594 11.254 139.512 11.254C140.442 11.254 141.547 11.254 142.827 11.254V10.608H134.565C134.452 10.608 134.35 10.608 134.259 10.608C134.169 10.608 134.084 10.5967 134.004 10.574C133.902 10.54 133.812 10.5117 133.732 10.489C133.653 10.4663 133.585 10.4097 133.528 10.319C133.37 10.0583 133.33 9.80333 133.409 9.554C133.443 9.452 133.494 9.37267 133.562 9.316C133.63 9.25933 133.704 9.214 133.783 9.18C133.874 9.146 133.965 9.12333 134.055 9.112C134.146 9.10067 134.22 9.08933 134.276 9.078C134.446 9.044 134.622 9.027 134.803 9.027C135.053 9.027 135.336 9.027 135.653 9.027C135.982 9.027 136.435 9.03267 137.013 9.044C137.603 9.044 138.368 9.044 139.308 9.044C140.26 9.044 141.49 9.044 142.997 9.044C143.575 9.044 144.012 9.14033 144.306 9.333C144.612 9.51433 144.765 9.81467 144.765 10.234V11.492C144.765 11.6507 144.726 11.815 144.646 11.985C144.578 12.1437 144.454 12.2797 144.272 12.393C144.136 12.4837 143.995 12.5347 143.847 12.546C143.7 12.546 143.553 12.546 143.405 12.546H135.449V13.192H144ZM133.443 2.992C133.443 2.52733 133.574 2.13633 133.834 1.819C134.106 1.49033 134.486 1.22967 134.973 1.037C135.472 0.833 136.078 0.685666 136.792 0.594999C137.506 0.504333 138.317 0.458999 139.223 0.458999C140.085 0.458999 140.872 0.498666 141.586 0.578C142.3 0.645999 142.913 0.776333 143.423 0.969C143.933 1.15033 144.323 1.40533 144.595 1.734C144.879 2.06267 145.02 2.482 145.02 2.992C145.02 3.502 144.901 3.92133 144.663 4.25C144.425 4.57867 144.063 4.83933 143.576 5.032C143.088 5.21333 142.482 5.34367 141.756 5.423C141.031 5.491 140.187 5.525 139.223 5.525C138.419 5.525 137.665 5.491 136.962 5.423C136.271 5.34367 135.659 5.21333 135.126 5.032C134.605 4.83933 134.191 4.57867 133.885 4.25C133.591 3.92133 133.443 3.502 133.443 2.992ZM134.106 6.273C134.197 6.26167 134.299 6.256 134.412 6.256C134.526 6.24467 134.645 6.239 134.769 6.239H138.934C139.535 6.22767 140.124 6.222 140.702 6.222C141.19 6.222 141.7 6.222 142.232 6.222C142.765 6.222 143.224 6.22767 143.609 6.239H143.694C143.921 6.25033 144.148 6.256 144.374 6.256C144.601 6.256 144.828 6.30133 145.054 6.392C145.213 6.44867 145.338 6.545 145.428 6.681C145.53 6.817 145.581 6.97 145.581 7.14C145.581 7.42333 145.468 7.66133 145.241 7.854C145.06 8.01267 144.839 8.10333 144.578 8.126C144.318 8.14867 144.074 8.14867 143.847 8.126H134.089C134.078 8.126 134.027 8.126 133.936 8.126C133.846 8.126 133.738 8.11467 133.613 8.092C133.5 8.06933 133.375 8.03533 133.239 7.99C133.115 7.94467 133.013 7.87667 132.933 7.786C132.797 7.65 132.729 7.45733 132.729 7.208C132.729 6.97 132.803 6.77733 132.95 6.63C133.098 6.48267 133.251 6.39767 133.409 6.375C133.568 6.341 133.732 6.31267 133.902 6.29C133.936 6.29 133.97 6.29 134.004 6.29C134.038 6.27867 134.072 6.273 134.106 6.273ZM142.691 2.992C142.691 2.81067 142.584 2.66333 142.368 2.55C142.164 2.43667 141.898 2.35167 141.569 2.295C141.241 2.227 140.867 2.18167 140.447 2.159C140.039 2.13633 139.631 2.125 139.223 2.125C138.815 2.125 138.413 2.13633 138.016 2.159C137.62 2.18167 137.263 2.227 136.945 2.295C136.628 2.35167 136.367 2.43667 136.163 2.55C135.971 2.66333 135.874 2.81067 135.874 2.992C135.874 3.15067 135.971 3.281 136.163 3.383C136.356 3.485 136.611 3.56433 136.928 3.621C137.246 3.67767 137.597 3.71733 137.982 3.74C138.379 3.76267 138.781 3.774 139.189 3.774C139.597 3.774 140.005 3.774 140.413 3.774C140.833 3.76267 141.212 3.73433 141.552 3.689C141.892 3.64367 142.164 3.57 142.368 3.468C142.584 3.35467 142.691 3.196 142.691 2.992Z" fill="#FEFEFE"/>
<path d="M163.307 13.107C163.284 13.243 163.267 13.379 163.256 13.515C163.244 13.6397 163.216 13.77 163.171 13.906C163.148 13.9513 163.131 13.991 163.12 14.025C163.108 14.059 163.091 14.0987 163.069 14.144C162.989 14.3027 162.887 14.4273 162.763 14.518C162.502 14.6767 162.213 14.7163 161.896 14.637C161.714 14.603 161.567 14.535 161.454 14.433C161.352 14.3423 161.272 14.2233 161.216 14.076C161.17 13.94 161.131 13.804 161.097 13.668C161.074 13.532 161.063 13.413 161.063 13.311C161.063 13.209 161.063 13.1523 161.063 13.141V2.635C161.063 2.499 161.063 2.35167 161.063 2.193C161.063 2.03433 161.074 1.87567 161.097 1.717C161.119 1.55833 161.153 1.411 161.199 1.275C161.244 1.139 161.306 1.03133 161.386 0.952C161.51 0.827333 161.641 0.753666 161.777 0.731C161.913 0.696999 162.06 0.679999 162.219 0.679999C162.411 0.679999 162.587 0.736666 162.746 0.849999C162.916 0.951999 163.035 1.09933 163.103 1.292C163.205 1.53 163.261 1.77933 163.273 2.04C163.284 2.30067 163.295 2.56133 163.307 2.822V2.907C163.329 3.77967 163.335 4.675 163.324 5.593C163.312 6.511 163.307 7.378 163.307 8.194V12.495C163.307 12.597 163.307 12.699 163.307 12.801C163.318 12.903 163.318 13.005 163.307 13.107ZM155.283 11.441C155.271 11.305 155.266 11.169 155.266 11.033C155.266 10.897 155.266 10.761 155.266 10.625V5.219C155.266 5.03767 155.266 4.85633 155.266 4.675C155.266 4.49367 155.254 4.30667 155.232 4.114C155.22 4.05733 155.203 3.978 155.181 3.876C155.169 3.774 155.135 3.71167 155.079 3.689C155.022 3.655 154.954 3.64367 154.875 3.655C154.807 3.655 154.739 3.64933 154.671 3.638C154.591 3.62667 154.512 3.62667 154.433 3.638C154.365 3.64933 154.291 3.64933 154.212 3.638H153.413C153.22 3.64933 153.027 3.64933 152.835 3.638C152.642 3.62667 152.449 3.62667 152.257 3.638C152.166 3.64933 152.081 3.655 152.002 3.655C151.934 3.64367 151.854 3.638 151.764 3.638C151.639 3.638 151.509 3.63233 151.373 3.621C151.237 3.60967 151.112 3.56433 150.999 3.485C150.84 3.37167 150.732 3.23 150.676 3.06C150.619 2.89 150.591 2.71433 150.591 2.533C150.579 2.31767 150.625 2.10233 150.727 1.887C150.783 1.751 150.857 1.65467 150.948 1.598C151.004 1.54133 151.084 1.496 151.186 1.462C151.299 1.41667 151.395 1.38267 151.475 1.36C151.713 1.30333 151.962 1.275 152.223 1.275C152.483 1.26367 152.738 1.258 152.988 1.258H155.946C156.093 1.28067 156.246 1.30333 156.405 1.326C156.575 1.33733 156.728 1.37133 156.864 1.428C156.954 1.462 157.039 1.50733 157.119 1.564C157.209 1.62067 157.283 1.68867 157.34 1.768C157.442 1.92667 157.498 2.08533 157.51 2.244C157.532 2.40267 157.555 2.57833 157.578 2.771C157.6 3.08833 157.612 3.40567 157.612 3.723C157.612 4.029 157.612 4.34067 157.612 4.658V10.234C157.612 10.2453 157.612 10.336 157.612 10.506C157.623 10.6647 157.629 10.8573 157.629 11.084C157.629 11.2993 157.629 11.5317 157.629 11.781C157.629 12.019 157.623 12.2287 157.612 12.41C157.6 12.5233 157.583 12.6423 157.561 12.767C157.538 12.8917 157.498 13.0107 157.442 13.124C157.396 13.2373 157.328 13.3393 157.238 13.43C157.147 13.5207 157.028 13.5943 156.881 13.651C156.688 13.7303 156.495 13.77 156.303 13.77C156.155 13.77 156.008 13.7417 155.861 13.685C155.713 13.617 155.611 13.5207 155.555 13.396C155.373 13.0333 155.283 12.631 155.283 12.189V11.441Z" fill="#FEFEFE"/>
<path d="M169.87 0.543999C170.448 0.577999 170.969 0.668666 171.434 0.816C171.91 0.952 172.307 1.15033 172.624 1.411C172.953 1.67167 173.196 1.989 173.355 2.363C173.525 2.737 173.587 3.162 173.542 3.638C173.463 4.454 173.106 5.083 172.471 5.525C171.836 5.967 170.975 6.188 169.887 6.188C169.592 6.188 169.309 6.188 169.037 6.188C168.776 6.17667 168.516 6.15967 168.255 6.137C167.994 6.103 167.739 6.052 167.49 5.984C167.241 5.916 166.986 5.81967 166.725 5.695C166.226 5.43433 165.886 5.09433 165.705 4.675C165.535 4.24433 165.45 3.808 165.45 3.366C165.45 2.39133 165.83 1.67733 166.589 1.224C167.36 0.770666 168.453 0.543999 169.87 0.543999ZM177.044 12.495C177.055 12.495 177.095 12.5063 177.163 12.529C177.231 12.5517 177.305 12.5913 177.384 12.648C177.475 12.6933 177.554 12.7613 177.622 12.852C177.701 12.9313 177.752 13.0277 177.775 13.141C177.843 13.5717 177.775 13.906 177.571 14.144C177.446 14.3027 177.31 14.399 177.163 14.433C177.016 14.467 176.936 14.484 176.925 14.484H168.051C167.62 14.484 167.28 14.4103 167.031 14.263C166.782 14.127 166.657 13.9287 166.657 13.668V12.155C166.634 11.9057 166.634 11.6507 166.657 11.39C166.68 11.152 166.77 10.9593 166.929 10.812C167.088 10.6647 167.286 10.591 167.524 10.591C167.581 10.591 167.654 10.5967 167.745 10.608C167.847 10.608 167.926 10.6193 167.983 10.642C168.13 10.6873 168.244 10.7553 168.323 10.846C168.402 10.9367 168.465 11.0443 168.51 11.169C168.555 11.2823 168.584 11.407 168.595 11.543C168.606 11.6677 168.618 11.7923 168.629 11.917C168.629 12.0077 168.635 12.104 168.646 12.206C168.657 12.2967 168.674 12.3817 168.697 12.461C168.72 12.4723 168.822 12.4893 169.003 12.512C169.196 12.5233 169.49 12.529 169.887 12.529C170.227 12.529 170.527 12.5233 170.788 12.512C171.06 12.5007 171.202 12.495 171.213 12.495H177.044ZM177.452 9.248C177.441 9.316 177.424 9.40667 177.401 9.52C177.39 9.622 177.373 9.72967 177.35 9.843C177.339 9.95633 177.322 10.064 177.299 10.166C177.276 10.2567 177.254 10.336 177.231 10.404C177.174 10.54 177.084 10.6647 176.959 10.778C176.834 10.8573 176.698 10.9027 176.551 10.914C176.415 10.9253 176.285 10.9197 176.16 10.897C176.081 10.8743 176.007 10.8573 175.939 10.846C175.882 10.8347 175.826 10.8007 175.769 10.744C175.463 10.438 175.327 10.0073 175.361 9.452L175.395 6.154C174.987 6.154 174.602 6.12567 174.239 6.069C173.876 6.001 173.627 5.87067 173.491 5.678C173.412 5.56467 173.372 5.43433 173.372 5.287C173.372 5.13967 173.406 4.998 173.474 4.862C173.542 4.71467 173.633 4.59567 173.746 4.505C173.859 4.403 173.984 4.34633 174.12 4.335C174.256 4.335 174.437 4.32933 174.664 4.318C174.891 4.30667 175.134 4.301 175.395 4.301V2.431C175.395 2.30633 175.395 2.16467 175.395 2.006C175.395 1.84733 175.401 1.69433 175.412 1.547C175.435 1.38833 175.469 1.241 175.514 1.105C175.559 0.969 175.616 0.861333 175.684 0.782C175.809 0.657333 175.933 0.583666 176.058 0.561C176.183 0.538333 176.313 0.526999 176.449 0.526999C176.846 0.526999 177.118 0.719666 177.265 1.105C177.356 1.35433 177.407 1.60367 177.418 1.853C177.429 2.10233 177.441 2.35733 177.452 2.618V2.703C177.475 3.56433 177.48 4.42 177.469 5.27C177.458 6.10867 177.452 6.93033 177.452 7.735V9.248ZM170.89 8.908C170.901 9.418 170.873 9.85433 170.805 10.217C170.748 10.5797 170.59 10.8403 170.329 10.999C170.193 11.0783 170.034 11.1293 169.853 11.152C169.683 11.1633 169.513 11.1463 169.343 11.101C169.184 11.0557 169.043 10.9877 168.918 10.897C168.805 10.795 168.742 10.676 168.731 10.54C168.708 10.3927 168.691 10.1717 168.68 9.877C168.68 9.58233 168.68 9.25367 168.68 8.891C168.397 8.87967 168.057 8.86833 167.66 8.857C167.263 8.83433 166.918 8.823 166.623 8.823C166.464 8.80033 166.306 8.77767 166.147 8.755C165.988 8.721 165.841 8.63033 165.705 8.483C165.569 8.347 165.501 8.14867 165.501 7.888C165.501 7.65 165.569 7.45167 165.705 7.293C165.784 7.20233 165.881 7.13433 165.994 7.089C166.119 7.04367 166.238 7.00967 166.351 6.987C166.464 6.96433 166.561 6.953 166.64 6.953C166.731 6.953 166.782 6.953 166.793 6.953H172.607C172.834 6.93033 173.066 6.93033 173.304 6.953C173.553 6.97567 173.763 7.06633 173.933 7.225C174.148 7.44033 174.256 7.684 174.256 7.956C174.256 8.126 174.211 8.28467 174.12 8.432C174.029 8.568 173.905 8.66433 173.746 8.721C173.542 8.81167 173.315 8.86833 173.066 8.891C172.828 8.91367 172.601 8.91933 172.386 8.908H170.89ZM171.332 3.706C171.389 3.37733 171.321 3.10533 171.128 2.89C170.947 2.66333 170.675 2.499 170.312 2.397C170.074 2.329 169.802 2.28933 169.496 2.278C169.201 2.25533 168.912 2.27233 168.629 2.329C168.357 2.38567 168.119 2.48767 167.915 2.635C167.711 2.771 167.586 2.96367 167.541 3.213C167.473 3.553 167.547 3.84767 167.762 4.097C167.989 4.34633 168.431 4.49933 169.088 4.556C169.315 4.57867 169.547 4.59 169.785 4.59C170.023 4.59 170.244 4.56733 170.448 4.522C170.663 4.46533 170.845 4.386 170.992 4.284C171.151 4.17067 171.258 4.012 171.315 3.808L171.332 3.706Z" fill="#FEFEFE"/>
<path d="M187.143 5.355C187.143 5.88767 187.024 6.392 186.786 6.868C186.548 7.344 186.214 7.74633 185.783 8.075C185.398 8.35833 184.973 8.55667 184.508 8.67C184.055 8.78333 183.596 8.823 183.131 8.789C182.667 8.755 182.219 8.653 181.788 8.483C181.358 8.30167 180.972 8.06367 180.632 7.769C180.304 7.47433 180.037 7.123 179.833 6.715C179.629 6.307 179.527 5.85367 179.527 5.355C179.527 4.90167 179.595 4.49367 179.731 4.131C179.867 3.76833 180.054 3.44533 180.292 3.162H179.986C179.703 3.162 179.465 3.077 179.272 2.907C179.08 2.72567 178.983 2.51033 178.983 2.261C178.983 2.00033 179.08 1.785 179.272 1.615C179.465 1.43367 179.703 1.343 179.986 1.343H182.23V0.799C182.23 0.572333 182.327 0.385333 182.519 0.238C182.712 0.0793333 182.944 0 183.216 0C183.488 0 183.721 0.0793333 183.913 0.238C184.106 0.385333 184.202 0.572333 184.202 0.799V1.343H186.565C186.849 1.343 187.087 1.43367 187.279 1.615C187.472 1.785 187.568 2.00033 187.568 2.261C187.568 2.51033 187.472 2.72567 187.279 2.907C187.087 3.077 186.849 3.162 186.565 3.162H186.361C186.599 3.44533 186.786 3.76833 186.922 4.131C187.07 4.49367 187.143 4.90167 187.143 5.355ZM189.251 14.586C189.149 14.6087 188.917 14.62 188.554 14.62C188.203 14.6313 187.784 14.637 187.296 14.637C186.809 14.637 186.288 14.6313 185.732 14.62C185.177 14.62 184.656 14.6143 184.168 14.603C183.681 14.603 183.262 14.603 182.91 14.603C182.559 14.603 182.338 14.603 182.247 14.603C182.021 14.603 181.783 14.586 181.533 14.552C181.284 14.518 181.063 14.4273 180.87 14.28C180.746 14.178 180.644 14.0477 180.564 13.889C180.496 13.7417 180.445 13.5943 180.411 13.447C180.377 13.2997 180.355 13.1693 180.343 13.056C180.332 12.9427 180.326 12.8803 180.326 12.869V11.577C180.326 11.2483 180.326 10.948 180.326 10.676C180.338 10.3927 180.343 10.2397 180.343 10.217C180.343 10.0583 180.372 9.911 180.428 9.775C180.485 9.62767 180.593 9.52 180.751 9.452C180.831 9.418 180.916 9.39533 181.006 9.384C181.108 9.37267 181.205 9.36133 181.295 9.35C181.488 9.33867 181.681 9.37267 181.873 9.452C182.077 9.52 182.202 9.66733 182.247 9.894V10.336C182.27 10.506 182.31 10.591 182.366 10.591C182.423 10.5797 182.519 10.5797 182.655 10.591H189.557V10.081C189.569 9.877 189.608 9.71267 189.676 9.588C189.756 9.46333 189.897 9.384 190.101 9.35C190.26 9.316 190.458 9.30467 190.696 9.316C190.934 9.32733 191.116 9.38967 191.24 9.503C191.354 9.605 191.41 9.72967 191.41 9.877C191.41 10.013 191.41 10.149 191.41 10.285C191.388 10.8063 191.388 11.322 191.41 11.832C191.433 12.342 191.416 12.8577 191.359 13.379C191.348 13.5377 191.32 13.6737 191.274 13.787C191.229 13.889 191.161 14.0023 191.07 14.127C190.98 14.263 190.855 14.3593 190.696 14.416C190.549 14.4727 190.39 14.5123 190.22 14.535C190.05 14.5577 189.88 14.569 189.71 14.569C189.54 14.569 189.387 14.5747 189.251 14.586ZM191.206 5.848V7.395C191.195 7.51967 191.178 7.65 191.155 7.786C191.133 7.91067 191.087 8.03533 191.019 8.16C190.951 8.296 190.855 8.40933 190.73 8.5C190.572 8.61333 190.385 8.67 190.169 8.67C189.977 8.67 189.818 8.63033 189.693 8.551C189.58 8.483 189.489 8.398 189.421 8.296C189.353 8.194 189.297 8.09767 189.251 8.007C189.217 7.905 189.195 7.82 189.183 7.752C189.172 7.67267 189.166 7.633 189.166 7.633V2.023C189.155 1.97767 189.161 1.853 189.183 1.649C189.206 1.445 189.251 1.275 189.319 1.139C189.433 0.901 189.659 0.765 189.999 0.731C190.419 0.674333 190.73 0.759333 190.934 0.985999C191.002 1.07667 191.048 1.16733 191.07 1.258C191.104 1.33733 191.133 1.42233 191.155 1.513C191.189 1.62633 191.206 1.74533 191.206 1.87C191.218 1.99467 191.218 2.11933 191.206 2.244V3.57C191.206 3.62667 191.201 3.689 191.189 3.757C191.189 3.81367 191.195 3.88167 191.206 3.961C191.252 3.961 191.337 3.96667 191.461 3.978C191.586 3.978 191.716 3.98367 191.852 3.995C191.988 3.995 192.119 4.00067 192.243 4.012C192.368 4.02333 192.459 4.03467 192.515 4.046C192.742 4.09133 192.901 4.15933 192.991 4.25C193.082 4.32933 193.139 4.43133 193.161 4.556C193.195 4.68067 193.212 4.828 193.212 4.998C193.212 5.15667 193.178 5.29267 193.11 5.406C192.974 5.63267 192.77 5.763 192.498 5.797C192.226 5.81967 191.926 5.83667 191.597 5.848H191.206ZM183.675 6.868C184.038 6.8 184.35 6.64133 184.61 6.392C184.882 6.13133 185.018 5.78567 185.018 5.355C185.018 5.015 184.933 4.73167 184.763 4.505C184.605 4.27833 184.401 4.10833 184.151 3.995C183.902 3.87033 183.63 3.808 183.335 3.808C183.041 3.79667 182.769 3.84767 182.519 3.961C182.27 4.07433 182.06 4.25 181.89 4.488C181.732 4.71467 181.652 5.00367 181.652 5.355C181.652 5.661 181.715 5.92167 181.839 6.137C181.964 6.35233 182.123 6.52233 182.315 6.647C182.508 6.77167 182.723 6.851 182.961 6.885C183.199 6.919 183.437 6.91333 183.675 6.868ZM183.25 12.155C183.148 12.155 183.035 12.155 182.91 12.155C182.797 12.1437 182.695 12.1493 182.604 12.172C182.514 12.1833 182.434 12.2173 182.366 12.274C182.31 12.3193 182.281 12.393 182.281 12.495C182.281 12.6197 182.287 12.7103 182.298 12.767C182.355 12.9597 182.44 13.0617 182.553 13.073C182.678 13.073 182.814 13.0673 182.961 13.056C183.279 13.056 183.624 13.0617 183.998 13.073C184.372 13.073 184.729 13.0787 185.069 13.09C185.103 13.09 185.211 13.09 185.392 13.09C185.585 13.09 185.817 13.09 186.089 13.09C186.361 13.0787 186.65 13.073 186.956 13.073C187.262 13.073 187.551 13.073 187.823 13.073C188.095 13.0617 188.322 13.056 188.503 13.056C188.696 13.056 188.809 13.056 188.843 13.056C188.9 13.056 188.968 13.0617 189.047 13.073C189.127 13.0843 189.2 13.0843 189.268 13.073C189.336 13.0617 189.393 13.0333 189.438 12.988C189.484 12.9427 189.506 12.8747 189.506 12.784C189.506 12.6933 189.512 12.614 189.523 12.546C189.535 12.478 189.506 12.4043 189.438 12.325C189.359 12.2343 189.263 12.1833 189.149 12.172C189.047 12.1607 188.94 12.1607 188.826 12.172C188.815 12.172 188.668 12.172 188.384 12.172C188.101 12.172 187.75 12.172 187.33 12.172C186.922 12.172 186.48 12.172 186.004 12.172C185.54 12.1607 185.103 12.155 184.695 12.155C184.287 12.155 183.942 12.155 183.658 12.155C183.386 12.155 183.25 12.155 183.25 12.155Z" fill="#FEFEFE"/>
<path d="M196.734 9.962C196.7 10.1207 196.7 10.2907 196.734 10.472V10.676C196.734 10.7553 196.768 10.8177 196.836 10.863C196.904 10.931 196.989 10.965 197.091 10.965H199.573C199.698 10.965 199.823 10.9763 199.947 10.999C200.083 11.0103 200.214 11.016 200.338 11.016C200.463 11.016 200.576 11.0217 200.678 11.033C200.78 11.033 200.871 11.033 200.95 11.033C201.041 11.0557 201.137 11.0727 201.239 11.084C201.341 11.084 201.443 11.1067 201.545 11.152C201.749 11.1633 201.936 11.237 202.106 11.373C202.197 11.4523 202.259 11.5203 202.293 11.577C202.316 11.6337 202.333 11.6903 202.344 11.747C202.356 11.7923 202.373 11.8433 202.395 11.9V12.223C202.373 12.359 202.339 12.4837 202.293 12.597C202.259 12.7103 202.197 12.8123 202.106 12.903C202.05 12.9937 201.965 13.0673 201.851 13.124C201.749 13.1807 201.636 13.2203 201.511 13.243C201.421 13.243 201.336 13.2543 201.256 13.277C201.188 13.2883 201.109 13.294 201.018 13.294C200.95 13.294 200.877 13.3053 200.797 13.328C200.718 13.3393 200.633 13.345 200.542 13.345H200.219C200.151 13.345 200.072 13.345 199.981 13.345C199.902 13.3337 199.811 13.3167 199.709 13.294H196.496C196.372 13.294 196.258 13.2883 196.156 13.277C196.054 13.2543 195.947 13.243 195.833 13.243C195.743 13.2203 195.652 13.209 195.561 13.209C195.471 13.1977 195.38 13.175 195.289 13.141C195.119 13.107 194.972 13.0277 194.847 12.903C194.768 12.8237 194.711 12.75 194.677 12.682C194.643 12.6027 194.609 12.5347 194.575 12.478C194.53 12.3987 194.502 12.325 194.49 12.257C194.479 12.1777 194.462 12.0927 194.439 12.002C194.383 11.8207 194.349 11.6393 194.337 11.458C194.326 11.2653 194.32 11.084 194.32 10.914C194.332 10.7213 194.337 10.5287 194.337 10.336C194.337 10.132 194.337 9.928 194.337 9.724V4.471C194.337 4.41433 194.332 4.335 194.32 4.233C194.32 4.11967 194.32 4.012 194.32 3.91V3.179C194.32 3.06567 194.32 2.95233 194.32 2.839C194.332 2.72567 194.337 2.62367 194.337 2.533C194.337 2.41967 194.354 2.30633 194.388 2.193C194.434 2.06833 194.468 1.94367 194.49 1.819C194.592 1.56967 194.791 1.377 195.085 1.241C195.142 1.22967 195.199 1.21833 195.255 1.207C195.323 1.19567 195.397 1.19 195.476 1.19C195.59 1.156 195.72 1.156 195.867 1.19C195.935 1.21267 196.003 1.23533 196.071 1.258C196.139 1.28067 196.202 1.309 196.258 1.343C196.326 1.39967 196.383 1.45633 196.428 1.513C196.474 1.56967 196.502 1.632 196.513 1.7C196.604 1.85867 196.649 2.02867 196.649 2.21C196.672 2.30067 196.689 2.39133 196.7 2.482C196.723 2.56133 196.734 2.66333 196.734 2.788V9.962ZM205.642 12.733C205.62 12.801 205.608 12.8633 205.608 12.92C205.608 12.9767 205.597 13.0447 205.574 13.124C205.574 13.192 205.569 13.26 205.557 13.328C205.546 13.3847 205.529 13.4413 205.506 13.498C205.472 13.5433 205.455 13.583 205.455 13.617C205.433 13.685 205.41 13.7247 205.387 13.736C205.353 13.8267 205.308 13.9003 205.251 13.957C205.206 14.025 205.155 14.0873 205.098 14.144C204.804 14.2913 204.515 14.3253 204.231 14.246C204.073 14.2347 203.925 14.161 203.789 14.025C203.733 14.0023 203.687 13.957 203.653 13.889C203.619 13.821 203.591 13.753 203.568 13.685C203.546 13.5943 203.523 13.5263 203.5 13.481C203.478 13.4243 203.455 13.3563 203.432 13.277C203.421 13.1977 203.415 13.1353 203.415 13.09C203.415 13.0333 203.415 12.9823 203.415 12.937V2.601C203.359 2.34033 203.359 2.10233 203.415 1.887C203.415 1.76233 203.427 1.649 203.449 1.547C203.483 1.43367 203.523 1.33167 203.568 1.241C203.625 1.071 203.727 0.929333 203.874 0.816C204.067 0.702666 204.288 0.646 204.537 0.646C204.775 0.646 204.974 0.708333 205.132 0.832999C205.268 0.946333 205.376 1.122 205.455 1.36C205.501 1.45067 205.529 1.55267 205.54 1.666C205.563 1.77933 205.586 1.90967 205.608 2.057C205.631 2.18167 205.642 2.30633 205.642 2.431C205.642 2.54433 205.642 2.652 205.642 2.754V12.733Z" fill="#FEFEFE"/>
<path d="M214.261 11.441C214.59 11.441 214.884 11.4977 215.145 11.611C215.417 11.7243 215.576 11.9623 215.621 12.325C215.644 12.5063 215.615 12.6707 215.536 12.818C215.468 12.9653 215.372 13.09 215.247 13.192C215.122 13.294 214.975 13.3733 214.805 13.43C214.646 13.4867 214.493 13.5207 214.346 13.532C214.221 13.532 214 13.532 213.683 13.532C213.377 13.532 213.031 13.532 212.646 13.532C212.272 13.532 211.887 13.532 211.49 13.532C211.093 13.532 210.759 13.532 210.487 13.532H210.351C210.09 13.5207 209.818 13.5093 209.535 13.498C209.263 13.4867 208.997 13.4413 208.736 13.362C208.555 13.3053 208.385 13.2033 208.226 13.056C208.067 12.9087 207.943 12.7387 207.852 12.546C207.795 12.4213 207.756 12.274 207.733 12.104C207.71 11.9227 207.693 11.7527 207.682 11.594C207.671 11.424 207.665 11.2767 207.665 11.152C207.676 11.0273 207.682 10.9593 207.682 10.948V3.723C207.682 3.689 207.676 3.59833 207.665 3.451C207.654 3.30367 207.648 3.13367 207.648 2.941C207.659 2.74833 207.676 2.55 207.699 2.346C207.733 2.142 207.795 1.972 207.886 1.836C207.954 1.72267 208.073 1.632 208.243 1.564C208.424 1.496 208.606 1.445 208.787 1.411C208.98 1.377 209.15 1.36 209.297 1.36C209.456 1.34867 209.552 1.343 209.586 1.343H213.564C213.575 1.343 213.66 1.343 213.819 1.343C213.989 1.343 214.17 1.36567 214.363 1.411C214.556 1.445 214.743 1.50733 214.924 1.598C215.105 1.68867 215.224 1.82467 215.281 2.006C215.304 2.074 215.315 2.159 215.315 2.261C215.326 2.35167 215.332 2.45367 215.332 2.567C215.332 2.669 215.321 2.76533 215.298 2.856C215.287 2.94667 215.27 3.01467 215.247 3.06C215.168 3.20733 215.026 3.30933 214.822 3.366C214.595 3.42267 214.272 3.451 213.853 3.451C213.785 3.451 213.706 3.451 213.615 3.451C213.536 3.451 213.405 3.451 213.224 3.451C213.054 3.43967 212.81 3.434 212.493 3.434C212.187 3.434 211.773 3.434 211.252 3.434C211.093 3.434 210.929 3.43967 210.759 3.451C210.6 3.46233 210.481 3.485 210.402 3.519C210.323 3.553 210.26 3.621 210.215 3.723C210.181 3.81367 210.153 3.92133 210.13 4.046C210.119 4.15933 210.113 4.27267 210.113 4.386C210.113 4.49933 210.119 4.59 210.13 4.658V4.675L210.198 10.557C210.198 10.7837 210.249 10.9707 210.351 11.118C210.453 11.254 210.634 11.322 210.895 11.322C210.929 11.322 211.048 11.3333 211.252 11.356C211.467 11.3673 211.734 11.3787 212.051 11.39C212.38 11.4013 212.737 11.4127 213.122 11.424C213.507 11.4353 213.887 11.441 214.261 11.441ZM220.126 6.069C220.33 6.11433 220.506 6.205 220.653 6.341C220.812 6.477 220.891 6.66967 220.891 6.919C220.891 7.00967 220.885 7.09467 220.874 7.174C220.874 7.242 220.863 7.32133 220.84 7.412C220.806 7.60467 220.732 7.769 220.619 7.905C220.517 8.041 220.358 8.109 220.143 8.109L218.749 8.126C218.738 8.42067 218.732 8.74933 218.732 9.112C218.732 9.47467 218.732 9.84867 218.732 10.234C218.732 10.6193 218.732 11.0103 218.732 11.407C218.743 11.7923 218.749 12.1607 218.749 12.512C218.749 12.6593 218.743 12.8407 218.732 13.056C218.721 13.2713 218.681 13.481 218.613 13.685C218.545 13.8777 218.443 14.0477 218.307 14.195C218.171 14.3423 217.978 14.4217 217.729 14.433C217.457 14.4557 217.242 14.4103 217.083 14.297C216.924 14.1837 216.805 14.0363 216.726 13.855C216.647 13.685 216.596 13.498 216.573 13.294C216.55 13.0787 216.539 12.8803 216.539 12.699V2.261C216.539 2.24967 216.539 2.19867 216.539 2.108C216.539 2.006 216.55 1.89267 216.573 1.768C216.596 1.632 216.63 1.496 216.675 1.36C216.732 1.21267 216.805 1.09367 216.896 1.003C216.975 0.923666 217.089 0.867 217.236 0.832999C217.395 0.787666 217.536 0.764999 217.661 0.764999C217.91 0.764999 218.12 0.849999 218.29 1.02C218.449 1.17867 218.539 1.34867 218.562 1.53C218.596 1.7 218.624 1.88133 218.647 2.074C218.704 2.69733 218.738 3.33767 218.749 3.995C218.772 4.65233 218.783 5.304 218.783 5.95L220.126 6.069Z" fill="#FEFEFE"/>
<path d="M222.337 1.309C222.428 1.16167 222.553 1.054 222.711 0.985999C222.87 0.918 223.023 0.884 223.17 0.884C223.295 0.884 223.414 0.889666 223.527 0.901C223.652 0.901 223.771 0.912333 223.884 0.934999C224.122 1.003 224.292 1.156 224.394 1.394C224.496 1.62067 224.559 1.887 224.581 2.193C224.615 2.48767 224.621 2.78233 224.598 3.077C224.587 3.37167 224.581 3.60967 224.581 3.791V8.806C224.581 9.03267 224.581 9.25933 224.581 9.486C224.581 9.71267 224.542 9.928 224.462 10.132C224.383 10.3247 224.236 10.4663 224.02 10.557C223.805 10.6477 223.578 10.693 223.34 10.693C223.102 10.6817 222.876 10.6307 222.66 10.54C222.445 10.438 222.298 10.2963 222.218 10.115C222.184 10.013 222.156 9.88833 222.133 9.741C222.122 9.58233 222.111 9.44067 222.099 9.316C222.088 9.12333 222.082 8.925 222.082 8.721C222.094 8.50567 222.099 8.29033 222.099 8.075V2.38C222.099 2.244 222.116 2.06833 222.15 1.853C222.184 1.63767 222.247 1.45633 222.337 1.309ZM224.292 12.24C224.326 12.2967 224.355 12.3533 224.377 12.41C224.411 12.4553 224.44 12.512 224.462 12.58C224.496 12.7047 224.519 12.835 224.53 12.971C224.542 13.107 224.53 13.243 224.496 13.379C224.462 13.5037 224.406 13.6227 224.326 13.736C224.247 13.8493 224.139 13.9343 224.003 13.991C223.879 14.0477 223.731 14.0817 223.561 14.093C223.391 14.1043 223.227 14.093 223.068 14.059C222.91 14.025 222.762 13.9627 222.626 13.872C222.49 13.7813 222.394 13.6623 222.337 13.515C222.281 13.3563 222.247 13.175 222.235 12.971C222.235 12.7557 222.264 12.5687 222.32 12.41C222.388 12.24 222.496 12.1267 222.643 12.07C222.791 12.002 222.949 11.968 223.119 11.968C223.335 11.9567 223.544 11.9623 223.748 11.985C223.964 12.0077 224.145 12.0927 224.292 12.24Z" fill="#FEFEFE"/>
</svg>
