<svg width="179" height="14" viewBox="0 0 179 14" fill="none" xmlns="http://www.w3.org/2000/svg">
<path d="M1.504 5.43467C1.38667 5.33867 1.29067 5.22133 1.216 5.08267C1.152 4.93333 1.104 4.78933 1.072 4.65067C1.04 4.50133 1.01867 4.37333 1.008 4.26667C0.997333 4.16 0.992 4.10133 0.992 4.09067V1.05067C0.992 0.848 1.04 0.650667 1.136 0.458667C1.24267 0.256 1.41333 0.138667 1.648 0.106667C1.75467 0.0960001 1.872 0.101333 2 0.122666C2.128 0.133334 2.24533 0.165334 2.352 0.218667C2.46933 0.261333 2.56533 0.330666 2.64 0.426666C2.72533 0.512 2.77867 0.618667 2.8 0.746667C2.81067 0.8 2.81067 0.88 2.8 0.986667C2.8 1.08267 2.8 1.19467 2.8 1.32267C2.8 1.44 2.8 1.552 2.8 1.65867C2.81067 1.76533 2.82667 1.84 2.848 1.88267C2.86933 1.936 2.92267 1.96267 3.008 1.96267C3.09333 1.952 3.16267 1.952 3.216 1.96267C3.46133 1.984 3.70667 1.98933 3.952 1.97867C4.208 1.95733 4.464 1.94667 4.72 1.94667H9.136C9.232 1.94667 9.30667 1.952 9.36 1.96267C9.47733 1.97333 9.56267 1.97333 9.616 1.96267C9.66933 1.952 9.74933 1.936 9.856 1.91467C9.86667 1.872 9.872 1.808 9.872 1.72267C9.88267 1.62667 9.888 1.53067 9.888 1.43467C9.888 1.328 9.888 1.22667 9.888 1.13067C9.888 1.03467 9.888 0.965333 9.888 0.922667C9.89867 0.730667 9.94133 0.56 10.016 0.410667C10.0907 0.250667 10.224 0.149333 10.416 0.106667C10.7893 0.0320003 11.088 0.0853336 11.312 0.266667C11.536 0.448 11.6427 0.730667 11.632 1.11467C11.632 1.36 11.632 1.632 11.632 1.93067C11.632 2.22933 11.632 2.53333 11.632 2.84267C11.6427 3.152 11.6427 3.46133 11.632 3.77067C11.632 4.06933 11.6213 4.34133 11.6 4.58667C11.5787 4.736 11.5467 4.85867 11.504 4.95467C11.4613 5.05067 11.3973 5.16267 11.312 5.29067C11.2267 5.408 11.1147 5.49867 10.976 5.56267C10.8373 5.616 10.688 5.65333 10.528 5.67467C10.368 5.696 10.208 5.70667 10.048 5.70667C9.888 5.70667 9.744 5.70667 9.616 5.70667C9.44533 5.71733 9.296 5.72267 9.168 5.72267C9.05067 5.72267 8.93867 5.72267 8.832 5.72267C8.72533 5.72267 8.608 5.72267 8.48 5.72267C8.36267 5.712 8.21867 5.70667 8.048 5.70667C7.792 5.70667 7.55733 5.70667 7.344 5.70667C7.14133 5.70667 6.93867 5.70667 6.736 5.70667C6.53333 5.70667 6.32533 5.70667 6.112 5.70667C5.89867 5.70667 5.664 5.70667 5.408 5.70667C5.22667 5.70667 5.04533 5.712 4.864 5.72267C4.68267 5.73333 4.50133 5.73867 4.32 5.73867C3.808 5.728 3.30133 5.728 2.8 5.73867C2.576 5.73867 2.34667 5.72267 2.112 5.69067C1.888 5.65867 1.68533 5.57333 1.504 5.43467ZM10.576 8.45867C10.0427 8.48 9.52533 8.496 9.024 8.50667C8.52267 8.51733 8 8.52267 7.456 8.52267C7.456 8.64 7.45067 8.73067 7.44 8.79467C7.44 8.848 7.43467 8.90667 7.424 8.97067C7.424 9.024 7.41867 9.09333 7.408 9.17867C7.408 9.25333 7.408 9.36533 7.408 9.51467C7.38667 9.632 7.33333 9.73333 7.248 9.81867C7.17333 9.904 7.08267 9.97867 6.976 10.0427C6.86933 10.1067 6.752 10.1547 6.624 10.1867C6.50667 10.208 6.39467 10.2187 6.288 10.2187C5.968 10.1973 5.71733 10.1173 5.536 9.97867C5.36533 9.84 5.264 9.61067 5.232 9.29067C5.22133 9.184 5.216 9.104 5.216 9.05067C5.216 8.99733 5.216 8.94933 5.216 8.90667C5.22667 8.85333 5.232 8.8 5.232 8.74667C5.24267 8.68267 5.248 8.59733 5.248 8.49067C5.00267 8.49067 4.68267 8.49067 4.288 8.49067C3.904 8.48 3.504 8.47467 3.088 8.47467C2.672 8.464 2.272 8.45333 1.888 8.44267C1.504 8.432 1.2 8.416 0.976 8.39467C0.805333 8.37333 0.666667 8.352 0.56 8.33067C0.464 8.29867 0.346667 8.21867 0.208 8.09067C0.133333 8.02667 0.08 7.94133 0.048 7.83467C0.016 7.728 0 7.616 0 7.49867C0 7.27467 0.0693333 7.09333 0.208 6.95467C0.282667 6.86933 0.384 6.80533 0.512 6.76267C0.64 6.72 0.762667 6.688 0.88 6.66667C0.997333 6.64533 1.09867 6.63467 1.184 6.63467C1.28 6.63467 1.33333 6.63467 1.344 6.63467H10.496C10.656 6.63467 10.816 6.63467 10.976 6.63467C11.136 6.63467 11.2907 6.64 11.44 6.65067C11.5893 6.66133 11.7333 6.68267 11.872 6.71467C12.0213 6.74667 12.1547 6.816 12.272 6.92267C12.3893 7.008 12.4533 7.104 12.464 7.21067C12.4853 7.31733 12.496 7.43467 12.496 7.56267C12.496 7.72267 12.448 7.86667 12.352 7.99467C12.2667 8.12267 12.144 8.21333 11.984 8.26667C11.7707 8.352 11.536 8.40533 11.28 8.42667C11.0347 8.43733 10.8 8.448 10.576 8.45867ZM11.024 10.8427C11.0347 10.8427 11.072 10.8533 11.136 10.8747C11.2 10.896 11.2693 10.9333 11.344 10.9867C11.4293 11.0293 11.504 11.0933 11.568 11.1787C11.6427 11.2533 11.6907 11.344 11.712 11.4507C11.776 11.856 11.712 12.1707 11.52 12.3947C11.4027 12.544 11.2747 12.6347 11.136 12.6667C10.9973 12.6987 10.9227 12.7147 10.912 12.7147H2.176C1.77067 12.7147 1.45067 12.6453 1.216 12.5067C0.981333 12.3787 0.864 12.192 0.864 11.9467V10.5227C0.842667 10.288 0.842667 10.048 0.864 9.80267C0.885333 9.57867 0.970667 9.39733 1.12 9.25867C1.26933 9.12 1.456 9.05067 1.68 9.05067C1.73333 9.05067 1.80267 9.056 1.888 9.06667C1.984 9.06667 2.05867 9.07733 2.112 9.09867C2.25067 9.14133 2.35733 9.20533 2.432 9.29067C2.50667 9.376 2.56533 9.47733 2.608 9.59467C2.65067 9.70133 2.67733 9.81867 2.688 9.94667C2.69867 10.064 2.70933 10.1813 2.72 10.2987C2.72 10.384 2.72533 10.4747 2.736 10.5707C2.74667 10.656 2.76267 10.736 2.784 10.8107C2.80533 10.8213 2.90133 10.8373 3.072 10.8587C3.25333 10.8693 3.53067 10.8747 3.904 10.8747C4.224 10.8747 4.50667 10.8693 4.752 10.8587C5.008 10.848 5.14133 10.8427 5.152 10.8427H11.024ZM2.848 3.99467C2.86933 4.09067 2.91733 4.16 2.992 4.20267C3.07733 4.23467 3.168 4.256 3.264 4.26667C3.37067 4.27733 3.47733 4.28267 3.584 4.28267C3.69067 4.272 3.776 4.26667 3.84 4.26667C4.13867 4.26667 4.432 4.272 4.72 4.28267C5.01867 4.28267 5.312 4.28267 5.6 4.28267C5.80267 4.28267 5.97867 4.28267 6.128 4.28267C6.27733 4.28267 6.42133 4.28267 6.56 4.28267C6.70933 4.28267 6.85867 4.28267 7.008 4.28267C7.168 4.272 7.34933 4.26667 7.552 4.26667C7.65867 4.256 7.76533 4.256 7.872 4.26667C7.97867 4.26667 8.09067 4.26667 8.208 4.26667C8.29333 4.26667 8.37333 4.26133 8.448 4.25067C8.53333 4.24 8.61867 4.24 8.704 4.25067C8.78933 4.272 8.87467 4.28267 8.96 4.28267C9.056 4.272 9.14667 4.26667 9.232 4.26667C9.28533 4.27733 9.34933 4.288 9.424 4.29867C9.49867 4.29867 9.568 4.29867 9.632 4.29867C9.696 4.288 9.74933 4.26133 9.792 4.21867C9.83467 4.176 9.856 4.112 9.856 4.02667C9.856 3.94133 9.86133 3.86667 9.872 3.80267C9.88267 3.73867 9.856 3.66933 9.792 3.59467C9.70667 3.50933 9.616 3.46133 9.52 3.45067C9.424 3.44 9.32267 3.44 9.216 3.45067H6.816C6.784 3.45067 6.64533 3.45067 6.4 3.45067C6.15467 3.45067 5.888 3.45067 5.6 3.45067C5.312 3.44 5.04533 3.43467 4.8 3.43467C4.55467 3.43467 4.416 3.43467 4.384 3.43467C4.288 3.43467 4.14933 3.42933 3.968 3.41867C3.78667 3.39733 3.61067 3.392 3.44 3.40267C3.26933 3.41333 3.12 3.45067 2.992 3.51467C2.87467 3.57867 2.816 3.69067 2.816 3.85067C2.816 3.904 2.816 3.936 2.816 3.94667C2.82667 3.94667 2.83733 3.96267 2.848 3.99467Z" fill="black"/>
<path d="M18.1222 7.01867C18.0475 7.02933 17.8769 7.03467 17.6102 7.03467C17.3542 7.03467 17.0769 7.03467 16.7782 7.03467C16.4795 7.024 16.1969 7.01867 15.9302 7.01867C15.6635 7.01867 15.4875 7.01867 15.4022 7.01867H15.3862C15.1942 7.01867 15.0022 7.01867 14.8102 7.01867C14.6289 7.008 14.4529 6.992 14.2822 6.97067C14.1115 6.93867 13.9569 6.89067 13.8182 6.82667C13.6795 6.76267 13.5675 6.66667 13.4822 6.53867C13.3862 6.4 13.3169 6.224 13.2742 6.01067C13.2422 5.79733 13.2155 5.59467 13.1942 5.40267C13.1835 5.2 13.1782 5.024 13.1782 4.87467C13.1889 4.72533 13.1942 4.64533 13.1942 4.63467V4.28267C13.1942 4.16533 13.1942 4.032 13.1942 3.88267C13.1942 3.73333 13.1995 3.568 13.2102 3.38667C13.2102 3.19467 13.2102 3.008 13.2102 2.82667C13.2209 2.63467 13.2262 2.464 13.2262 2.31467V1.80267C13.2262 1.77067 13.2262 1.712 13.2262 1.62667C13.2262 1.54133 13.2315 1.45067 13.2422 1.35467C13.2529 1.248 13.2689 1.14667 13.2902 1.05067C13.3115 0.944 13.3435 0.858667 13.3862 0.794666C13.4822 0.645333 13.5782 0.538667 13.6742 0.474667C13.7809 0.4 13.9142 0.346667 14.0742 0.314667C14.1275 0.304 14.2075 0.298667 14.3142 0.298667C14.4209 0.288 14.5222 0.277333 14.6182 0.266667C14.7355 0.256 14.8582 0.250667 14.9862 0.250667H18.6022C18.8369 0.250667 19.0822 0.272 19.3382 0.314667C19.6049 0.346667 19.8395 0.426667 20.0422 0.554667C20.2022 0.650667 20.3142 0.773333 20.3782 0.922667C20.4422 1.072 20.4849 1.232 20.5062 1.40267C20.5275 1.57333 20.5329 1.74933 20.5222 1.93067C20.5115 2.10133 20.5062 2.26133 20.5062 2.41067C20.5062 2.58133 20.5009 2.752 20.4902 2.92267C20.4902 3.08267 20.4955 3.248 20.5062 3.41867V4.29867C20.4955 4.352 20.4902 4.41067 20.4902 4.47467C20.5009 4.53867 20.5062 4.60267 20.5062 4.66667C20.4849 4.80533 20.4795 4.944 20.4902 5.08267C20.5009 5.21067 20.5062 5.34933 20.5062 5.49867C20.5062 5.616 20.4955 5.744 20.4742 5.88267C20.4635 6.01067 20.4315 6.144 20.3782 6.28267C20.3355 6.41067 20.2715 6.528 20.1862 6.63467C20.1115 6.74133 20.0102 6.816 19.8822 6.85867C19.6049 6.976 19.3115 7.03467 19.0022 7.03467C18.7035 7.024 18.4102 7.01867 18.1222 7.01867ZM16.3462 12.8747C15.9089 12.8747 15.5569 12.7787 15.2902 12.5867C15.0235 12.4053 14.8902 12.192 14.8902 11.9467V9.64267C14.8689 9.408 14.8689 9.168 14.8902 8.92267C14.9115 8.69867 14.9969 8.51733 15.1462 8.37867C15.3062 8.24 15.5089 8.17067 15.7542 8.17067C15.8075 8.17067 15.9035 8.176 16.0422 8.18667C16.1809 8.18667 16.2769 8.19733 16.3302 8.21867C16.4689 8.26133 16.5755 8.32533 16.6502 8.41067C16.7355 8.496 16.7995 8.59733 16.8422 8.71467C16.8849 8.82133 16.9115 8.93867 16.9222 9.06667C16.9329 9.184 16.9435 9.30133 16.9542 9.41867C16.9542 9.46133 16.9542 9.56267 16.9542 9.72267C16.9649 9.872 16.9702 10.0373 16.9702 10.2187C16.9809 10.3893 16.9862 10.5493 16.9862 10.6987C16.9969 10.848 17.0075 10.9387 17.0182 10.9707C17.0502 10.9813 17.1355 10.9973 17.2742 11.0187C17.4235 11.0293 17.6955 11.0347 18.0902 11.0347C18.4315 11.0347 18.6395 11.0293 18.7142 11.0187C18.7995 11.008 18.8475 11.0027 18.8582 11.0027H24.0902C24.0902 11.0027 24.1222 11.0133 24.1862 11.0347C24.2609 11.056 24.3409 11.0933 24.4262 11.1467C24.5115 11.1893 24.5915 11.2533 24.6662 11.3387C24.7409 11.4133 24.7889 11.504 24.8102 11.6107C24.8635 12.016 24.7942 12.3307 24.6022 12.5547C24.4742 12.704 24.3355 12.7947 24.1862 12.8267C24.0369 12.8587 23.9569 12.8747 23.9462 12.8747H16.3462ZM24.4742 5.14667V6.81067C24.4635 6.928 24.4475 7.05067 24.4262 7.17867C24.4049 7.296 24.3622 7.41333 24.2982 7.53067C24.2235 7.66933 24.1329 7.77067 24.0262 7.83467C23.8555 7.952 23.6742 8.01067 23.4822 8.01067C23.3222 8.01067 23.1729 7.968 23.0342 7.88267C22.9275 7.81867 22.8422 7.73867 22.7782 7.64267C22.7142 7.54667 22.6609 7.456 22.6182 7.37067C22.5862 7.28533 22.5649 7.21067 22.5542 7.14667C22.5435 7.072 22.5382 7.03467 22.5382 7.03467V1.41867C22.5382 1.36533 22.5435 1.248 22.5542 1.06667C22.5755 0.874667 22.6182 0.714667 22.6822 0.586667C22.7889 0.362667 23.0075 0.234667 23.3382 0.202666C23.5195 0.181333 23.6902 0.192 23.8502 0.234667C24.0102 0.277334 24.1329 0.346667 24.2182 0.442667C24.2822 0.528 24.3249 0.613333 24.3462 0.698667C24.3782 0.773334 24.4049 0.853334 24.4262 0.938666C24.4582 1.04533 24.4742 1.15733 24.4742 1.27467C24.4849 1.392 24.4849 1.50933 24.4742 1.62667V3.35467C24.5169 3.35467 24.5862 3.36 24.6822 3.37067C24.7889 3.38133 24.8955 3.392 25.0022 3.40267C25.1195 3.40267 25.2262 3.408 25.3222 3.41867C25.4289 3.42933 25.5035 3.44 25.5462 3.45067C25.7595 3.49333 25.9089 3.55733 25.9942 3.64267C26.0795 3.71733 26.1382 3.81333 26.1702 3.93067C26.1915 4.048 26.2022 4.18667 26.2022 4.34667C26.2022 4.496 26.1702 4.624 26.1062 4.73067C25.9782 4.944 25.7862 5.06667 25.5302 5.09867C25.2742 5.13067 24.9915 5.14667 24.6822 5.14667H24.4742ZM16.0742 2.25067C15.9782 2.25067 15.8875 2.25067 15.8022 2.25067C15.7275 2.25067 15.6582 2.26133 15.5942 2.28267C15.4449 2.29333 15.3222 2.35733 15.2262 2.47467C15.1835 2.528 15.1569 2.608 15.1462 2.71467C15.1462 2.82133 15.1462 2.88533 15.1462 2.90667V3.57867C15.1355 3.664 15.1302 3.744 15.1302 3.81867C15.1302 3.88267 15.1302 3.94133 15.1302 3.99467V4.18667C15.1302 4.18667 15.1302 4.21867 15.1302 4.28267C15.1302 4.34667 15.1302 4.42133 15.1302 4.50667C15.1409 4.592 15.1569 4.67733 15.1782 4.76267C15.1995 4.848 15.2369 4.92267 15.2902 4.98667C15.3755 5.09333 15.5142 5.15733 15.7062 5.17867C15.8982 5.18933 16.0902 5.19467 16.2822 5.19467H16.2982C16.5755 5.184 16.8049 5.184 16.9862 5.19467C17.1675 5.19467 17.4022 5.19467 17.6902 5.19467C17.7755 5.19467 17.8609 5.2 17.9462 5.21067C18.0422 5.21067 18.1329 5.2 18.2182 5.17867C18.3035 5.168 18.3622 5.14133 18.3942 5.09867C18.4262 5.056 18.4529 5.00267 18.4742 4.93867C18.4955 4.85333 18.5062 4.784 18.5062 4.73067C18.5489 4.528 18.5702 4.29867 18.5702 4.04267C18.5702 3.872 18.5702 3.70133 18.5702 3.53067C18.5809 3.36 18.5809 3.18933 18.5702 3.01867C18.5595 2.93333 18.5542 2.848 18.5542 2.76267C18.5649 2.67733 18.5595 2.592 18.5382 2.50667C18.4955 2.38933 18.4262 2.32533 18.3302 2.31467C18.2342 2.29333 18.1382 2.28267 18.0422 2.28267L16.0742 2.25067Z" fill="black"/>
<path d="M27.9139 6.93867C27.4872 6.64 27.1832 6.21333 27.0019 5.65867C26.8952 5.38133 26.8206 5.11467 26.7779 4.85867C26.7459 4.60267 26.7299 4.34133 26.7299 4.07467C26.7299 3.79733 26.7512 3.54133 26.7939 3.30667C26.8472 3.06133 26.9166 2.82133 27.0019 2.58667C27.1086 2.36267 27.2206 2.15467 27.3379 1.96267C27.4659 1.76 27.6152 1.584 27.7859 1.43467C27.9566 1.25333 28.1326 1.09867 28.3139 0.970667C28.5059 0.842667 28.7246 0.736 28.9699 0.650666C29.1832 0.544 29.4126 0.469333 29.6579 0.426666C29.9139 0.373333 30.1806 0.346666 30.4579 0.346666C30.6499 0.314667 30.8366 0.314667 31.0179 0.346666C31.1032 0.346666 31.1939 0.352 31.2899 0.362667C31.3966 0.373334 31.4926 0.389334 31.5779 0.410667C31.6206 0.432 31.6632 0.442667 31.7059 0.442667C31.7592 0.442667 31.8126 0.453334 31.8659 0.474667C31.9192 0.474667 31.9672 0.485333 32.0099 0.506666C32.0632 0.517333 32.1059 0.533334 32.1379 0.554667C32.2552 0.586667 32.3619 0.624 32.4579 0.666667C32.5646 0.698667 32.6712 0.741333 32.7779 0.794666C32.9592 0.88 33.1406 0.976 33.3219 1.08267C33.3859 1.11467 33.4552 1.16267 33.5299 1.22667C33.6152 1.29067 33.6952 1.36 33.7699 1.43467C33.9619 1.62667 34.1166 1.824 34.2339 2.02667C34.2979 2.13333 34.3512 2.24533 34.3939 2.36267C34.4472 2.48 34.4846 2.608 34.5059 2.74667C34.5379 2.864 34.5646 2.98667 34.5859 3.11467C34.6072 3.232 34.6286 3.34933 34.6499 3.46667C34.6712 3.584 34.6872 3.70133 34.6979 3.81867C34.7086 3.936 34.7032 4.064 34.6819 4.20267C34.6819 4.26667 34.6766 4.34133 34.6659 4.42667C34.6552 4.50133 34.6499 4.57067 34.6499 4.63467C34.6286 4.72 34.6126 4.80533 34.6019 4.89067C34.5912 4.976 34.5699 5.05067 34.5379 5.11467C34.4739 5.53067 34.3406 5.91467 34.1379 6.26667C34.0206 6.448 33.8872 6.608 33.7379 6.74667C33.5992 6.88533 33.4392 7.01867 33.2579 7.14667C33.1192 7.232 32.9806 7.30667 32.8419 7.37067C32.7032 7.43467 32.5592 7.48267 32.4099 7.51467C32.2712 7.55733 32.1272 7.59467 31.9779 7.62667C31.8392 7.648 31.6952 7.67467 31.5459 7.70667C31.4926 7.728 31.4392 7.73867 31.3859 7.73867C31.3326 7.73867 31.2792 7.73867 31.2259 7.73867C31.1939 7.73867 31.1512 7.73867 31.0979 7.73867C31.0552 7.73867 31.0072 7.74933 30.9539 7.77067H30.6659C30.6232 7.77067 30.5752 7.77067 30.5219 7.77067C30.4792 7.77067 30.4312 7.76 30.3779 7.73867C30.3139 7.73867 30.2446 7.73867 30.1699 7.73867C30.1059 7.73867 30.0419 7.728 29.9779 7.70667C29.8926 7.70667 29.8126 7.70133 29.7379 7.69067C29.6739 7.68 29.6046 7.67467 29.5299 7.67467C29.2419 7.632 28.9646 7.54667 28.6979 7.41867C28.5486 7.344 28.4099 7.27467 28.2819 7.21067C28.1539 7.136 28.0312 7.04533 27.9139 6.93867ZM38.2339 3.19467C38.2552 3.408 38.2659 3.62667 38.2659 3.85067C38.2659 4.07467 38.2659 4.30933 38.2659 4.55467V7.14667C38.2659 7.392 38.2659 7.62133 38.2659 7.83467C38.2659 8.048 38.2552 8.256 38.2339 8.45867V10.2827C38.2126 10.4533 38.2072 10.624 38.2179 10.7947C38.2286 10.9547 38.2339 11.1093 38.2339 11.2587C38.2339 11.3653 38.2339 11.4667 38.2339 11.5627C38.2339 11.6587 38.2232 11.7493 38.2019 11.8347C38.2019 12.0053 38.1646 12.144 38.0899 12.2507C38.0686 12.304 38.0472 12.352 38.0259 12.3947C38.0046 12.4267 37.9832 12.4693 37.9619 12.5227C37.9192 12.5547 37.8766 12.592 37.8339 12.6347C37.7912 12.6773 37.7272 12.7147 37.6419 12.7467C37.5459 12.8213 37.4339 12.8693 37.3059 12.8907C37.1779 12.912 37.0446 12.912 36.9059 12.8907C36.7246 12.848 36.5912 12.7787 36.5059 12.6827C36.4206 12.6293 36.3406 12.5173 36.2659 12.3467C36.2339 12.272 36.2072 12.2027 36.1859 12.1387C36.1646 12.0747 36.1539 12.0053 36.1539 11.9307C36.1326 11.8773 36.1166 11.824 36.1059 11.7707C36.0952 11.7173 36.0899 11.6747 36.0899 11.6427V11.4667L36.0579 1.97867C36.0579 1.84 36.0579 1.70133 36.0579 1.56267C36.0686 1.424 36.0899 1.26933 36.1219 1.09867C36.1539 0.810667 36.2499 0.576 36.4099 0.394667C36.5592 0.288 36.6766 0.218667 36.7619 0.186667C36.8366 0.165334 36.9059 0.154667 36.9699 0.154667C37.0446 0.154667 37.1246 0.154667 37.2099 0.154667C37.2952 0.154667 37.3806 0.165334 37.4659 0.186667C37.5512 0.208 37.6366 0.245334 37.7219 0.298667C37.8606 0.405334 37.9619 0.538667 38.0259 0.698667C38.0792 0.816 38.1219 0.933333 38.1539 1.05067C38.1859 1.168 38.2019 1.28533 38.2019 1.40267C38.2019 1.52 38.2019 1.648 38.2019 1.78667C38.2019 1.91467 38.2126 2.03733 38.2339 2.15467V3.19467ZM34.7139 9.53067C34.8526 9.57333 34.9752 9.632 35.0819 9.70667C35.1886 9.81333 35.2686 9.92 35.3219 10.0267C35.3859 10.1333 35.4179 10.2507 35.4179 10.3787C35.4179 10.56 35.3592 10.72 35.2419 10.8587C35.1352 10.9973 35.0179 11.088 34.8899 11.1307C34.8366 11.152 34.7832 11.168 34.7299 11.1787C34.6766 11.1893 34.6232 11.1947 34.5699 11.1947C34.5059 11.216 34.4472 11.2267 34.3939 11.2267C34.3406 11.2267 34.2872 11.2267 34.2339 11.2267H32.7139C32.5326 11.2267 32.3459 11.2267 32.1539 11.2267C31.9726 11.2267 31.7806 11.2373 31.5779 11.2587H30.4579C30.2659 11.2373 30.0952 11.2267 29.9459 11.2267C29.7966 11.2267 29.6472 11.2267 29.4979 11.2267H27.8179C27.7112 11.2267 27.6099 11.2213 27.5139 11.2107C27.4179 11.2 27.3166 11.184 27.2099 11.1627C27.1566 11.1413 27.1032 11.1253 27.0499 11.1147C27.0072 11.0933 26.9592 11.072 26.9059 11.0507C26.8099 11.0187 26.7192 10.9707 26.6339 10.9067C26.5699 10.832 26.5166 10.752 26.4739 10.6667C26.4419 10.5707 26.4259 10.4533 26.4259 10.3147C26.4259 10.112 26.4952 9.93067 26.6339 9.77067C26.6979 9.67467 26.7992 9.61067 26.9379 9.57867C27.0019 9.55733 27.0659 9.54133 27.1299 9.53067C27.1939 9.50933 27.2526 9.488 27.3059 9.46667C27.3806 9.44533 27.4392 9.43467 27.4819 9.43467C27.5246 9.43467 27.5672 9.43467 27.6099 9.43467H33.6579C33.7646 9.43467 33.8659 9.43467 33.9619 9.43467C34.0579 9.43467 34.1486 9.44533 34.2339 9.46667C34.3192 9.46667 34.3992 9.472 34.4739 9.48267C34.5486 9.49333 34.6286 9.50933 34.7139 9.53067ZM28.8579 3.78667C28.8259 3.98933 28.8259 4.20267 28.8579 4.42667C28.9112 4.68267 28.9806 4.89067 29.0659 5.05067C29.2792 5.38133 29.5939 5.62667 30.0099 5.78667C30.1592 5.84 30.3086 5.87733 30.4579 5.89867C30.6179 5.92 30.7726 5.93067 30.9219 5.93067C31.0072 5.90933 31.0872 5.89867 31.1619 5.89867C31.2366 5.89867 31.3166 5.888 31.4019 5.86667C31.4766 5.86667 31.5459 5.85067 31.6099 5.81867C31.6846 5.78667 31.7592 5.75467 31.8339 5.72267C32.0366 5.62667 32.2072 5.46667 32.3459 5.24267C32.4206 5.12533 32.4739 5.01333 32.5059 4.90667C32.5379 4.8 32.5699 4.688 32.6019 4.57067C32.6446 4.38933 32.6552 4.21867 32.6339 4.05867C32.6232 3.89867 32.5912 3.728 32.5379 3.54667C32.5166 3.472 32.4846 3.40267 32.4419 3.33867C32.4099 3.264 32.3779 3.2 32.3459 3.14667C32.3139 3.11467 32.2872 3.08267 32.2659 3.05067C32.2446 3.008 32.2126 2.976 32.1699 2.95467C32.1379 2.88 32.0739 2.81067 31.9779 2.74667C31.8926 2.69333 31.8072 2.65067 31.7219 2.61867C31.6792 2.58667 31.6312 2.56 31.5779 2.53867C31.5352 2.51733 31.4872 2.496 31.4339 2.47467C31.1566 2.41067 30.8739 2.37867 30.5859 2.37867C30.4472 2.37867 30.3139 2.38933 30.1859 2.41067C30.0579 2.432 29.9352 2.46933 29.8179 2.52267C29.7006 2.576 29.5886 2.64 29.4819 2.71467C29.3752 2.77867 29.2792 2.86933 29.1939 2.98667C29.1086 3.09333 29.0392 3.216 28.9859 3.35467C28.9432 3.48267 28.9006 3.62667 28.8579 3.78667Z" fill="black"/>
<path d="M53.7945 4.87467C53.9119 4.928 54.0079 5.008 54.0825 5.11467C54.1572 5.22133 54.2052 5.33333 54.2265 5.45067C54.2799 5.68533 54.2265 5.89867 54.0665 6.09067C53.9172 6.28267 53.7359 6.42667 53.5225 6.52267C53.3092 6.608 53.0799 6.672 52.8345 6.71467C52.5999 6.75733 52.3545 6.77867 52.0985 6.77867C51.8532 6.77867 51.6239 6.77867 51.4105 6.77867H48.7545C48.2745 6.77867 47.8265 6.784 47.4105 6.79467C47.0052 6.79467 46.5625 6.79467 46.0825 6.79467C45.9225 6.79467 45.7625 6.784 45.6025 6.76267C45.4425 6.74133 45.2879 6.70933 45.1385 6.66667C44.9892 6.61333 44.8505 6.53867 44.7225 6.44267C44.6052 6.34667 44.5092 6.224 44.4345 6.07467C44.2425 5.70133 44.1465 5.312 44.1465 4.90667C44.1572 4.49067 44.1625 4.07467 44.1625 3.65867V2.57067C44.1625 2.53867 44.1572 2.45333 44.1465 2.31467C44.1359 2.176 44.1305 2.016 44.1305 1.83467C44.1412 1.65333 44.1572 1.46667 44.1785 1.27467C44.2105 1.08267 44.2692 0.922667 44.3545 0.794666C44.4185 0.688 44.5199 0.602667 44.6585 0.538667C44.8079 0.474667 44.9519 0.426667 45.0905 0.394667C45.2399 0.362667 45.3732 0.341333 45.4905 0.330667C45.6079 0.32 45.6825 0.314667 45.7145 0.314667H52.2745C52.2852 0.314667 52.3705 0.32 52.5305 0.330667C52.6905 0.330667 52.8719 0.352 53.0745 0.394667C53.2772 0.426667 53.4692 0.485334 53.6505 0.570666C53.8319 0.656 53.9492 0.784 54.0025 0.954667C54.0239 1.01867 54.0345 1.09867 54.0345 1.19467C54.0452 1.28 54.0505 1.37067 54.0505 1.46667C54.0505 1.56267 54.0399 1.65333 54.0185 1.73867C54.0079 1.824 53.9919 1.888 53.9705 1.93067C53.9279 2.016 53.8532 2.08533 53.7465 2.13867C53.6399 2.18133 53.5385 2.21333 53.4425 2.23467C53.3465 2.256 53.2239 2.27733 53.0745 2.29867C52.9252 2.32 52.7439 2.33067 52.5305 2.33067H52.0345C51.6079 2.30933 51.2132 2.29867 50.8505 2.29867C50.4985 2.288 50.1465 2.288 49.7945 2.29867C49.4425 2.29867 49.0745 2.304 48.6905 2.31467C48.3065 2.31467 47.8745 2.32 47.3945 2.33067C47.3092 2.33067 47.2132 2.32533 47.1065 2.31467C46.9999 2.304 46.8932 2.304 46.7865 2.31467C46.6799 2.32533 46.5892 2.34667 46.5145 2.37867C46.4399 2.41067 46.3919 2.46933 46.3705 2.55467C46.3172 2.736 46.2959 2.90667 46.3065 3.06667C46.3172 3.22667 46.3172 3.408 46.3065 3.61067C46.3065 3.68533 46.3012 3.76533 46.2905 3.85067C46.2905 3.936 46.2905 4.02667 46.2905 4.12267C46.3012 4.208 46.3225 4.288 46.3545 4.36267C46.3865 4.43733 46.4399 4.50133 46.5145 4.55467C46.5892 4.608 46.6959 4.63467 46.8345 4.63467C46.9839 4.63467 47.1065 4.63467 47.2025 4.63467C47.5865 4.656 47.9492 4.66667 48.2905 4.66667C48.6425 4.66667 49.0105 4.656 49.3945 4.63467C49.9599 4.624 50.4719 4.61867 50.9305 4.61867C51.3892 4.61867 51.9012 4.61867 52.4665 4.61867C52.9785 4.61867 53.4212 4.704 53.7945 4.87467ZM44.7545 10.0747C44.5092 10.064 44.2745 10.032 44.0505 9.97867C43.8372 9.91467 43.6612 9.776 43.5225 9.56267C43.4052 9.38133 43.3465 9.18933 43.3465 8.98667C43.3572 8.77333 43.4372 8.592 43.5865 8.44267C43.6719 8.35733 43.7785 8.29333 43.9065 8.25067C44.0345 8.208 44.1572 8.176 44.2745 8.15467C44.3919 8.13333 44.4932 8.12267 44.5785 8.12267C44.6745 8.12267 44.7279 8.12267 44.7385 8.12267H53.4585C53.6292 8.112 53.8105 8.112 54.0025 8.12267C54.2052 8.13333 54.3919 8.17067 54.5625 8.23467C54.7332 8.288 54.8772 8.384 54.9945 8.52267C55.1119 8.65067 55.1705 8.832 55.1705 9.06667C55.1705 9.33333 55.0799 9.536 54.8985 9.67467C54.7172 9.80267 54.4985 9.89867 54.2425 9.96267C53.9972 10.016 53.7412 10.048 53.4745 10.0587C53.2079 10.0587 52.9892 10.0587 52.8185 10.0587H52.1945C51.9812 10.0693 51.7732 10.0747 51.5705 10.0747C51.3679 10.064 51.1599 10.0587 50.9465 10.0587H50.3385C50.3492 10.3573 50.3599 10.6773 50.3705 11.0187C50.3812 11.3493 50.3652 11.6373 50.3225 11.8827C50.3012 12.0853 50.2479 12.2773 50.1625 12.4587C50.0879 12.6507 49.9599 12.8053 49.7785 12.9227C49.6185 13.0293 49.4319 13.0827 49.2185 13.0827C49.0052 13.0933 48.8132 13.0507 48.6425 12.9547C48.5039 12.8693 48.3972 12.7467 48.3225 12.5867C48.2585 12.4267 48.2159 12.272 48.1945 12.1227C48.1732 12.0053 48.1625 11.8773 48.1625 11.7387C48.1732 11.6 48.1785 11.472 48.1785 11.3547C48.1679 11.1627 48.1625 10.9547 48.1625 10.7307C48.1625 10.496 48.1625 10.2667 48.1625 10.0427H47.7625C47.4639 10.0427 47.1919 10.048 46.9465 10.0587C46.7119 10.0587 46.4825 10.064 46.2585 10.0747C46.0345 10.0747 45.7999 10.0747 45.5545 10.0747C45.3199 10.0747 45.0532 10.0747 44.7545 10.0747Z" fill="black"/>
<path d="M66.9907 6.25067C66.9907 6.35733 66.9587 6.464 66.8947 6.57067C66.8414 6.67733 66.772 6.77333 66.6867 6.85867C66.6014 6.93333 66.5054 7.00267 66.3987 7.06667C66.292 7.12 66.1907 7.152 66.0947 7.16267C65.8174 7.20533 65.5827 7.216 65.3907 7.19467C65.1987 7.17333 64.9694 7.16267 64.7027 7.16267C64.116 7.16267 63.5294 7.15733 62.9427 7.14667C62.3667 7.136 61.7907 7.12 61.2147 7.09867C61.044 7.088 60.9 7.03467 60.7827 6.93867C60.676 6.84267 60.5907 6.73067 60.5267 6.60267C60.4627 6.464 60.42 6.31467 60.3987 6.15467C60.3774 5.99467 60.3667 5.84533 60.3667 5.70667C60.3667 5.48267 60.3614 5.232 60.3507 4.95467C60.3507 4.67733 60.3454 4.39467 60.3347 4.10667C60.3347 3.81867 60.3347 3.536 60.3347 3.25867C60.3347 2.97067 60.34 2.71467 60.3507 2.49067C60.3614 2.352 60.3614 2.20267 60.3507 2.04267C60.3507 1.88267 60.356 1.72267 60.3667 1.56267C60.3774 1.40267 60.3934 1.248 60.4147 1.09867C60.4467 0.938667 60.4947 0.8 60.5587 0.682667C60.6334 0.544 60.74 0.432 60.8787 0.346666C61.0174 0.261334 61.1614 0.213334 61.3107 0.202666C61.46 0.181333 61.604 0.197333 61.7427 0.250667C61.892 0.304 62.0094 0.4 62.0947 0.538667C62.2654 0.826667 62.3507 1.16267 62.3507 1.54667C62.3614 1.92 62.3614 2.27733 62.3507 2.61867H65.1827C65.204 2.384 65.2094 2.176 65.1987 1.99467C65.188 1.81333 65.1827 1.62133 65.1827 1.41867C65.1827 1.23733 65.2094 1.03467 65.2627 0.810667C65.3267 0.576 65.4387 0.405334 65.5987 0.298667C65.716 0.213334 65.876 0.170667 66.0787 0.170667C66.2814 0.16 66.4414 0.197333 66.5587 0.282666C66.676 0.368 66.7614 0.496 66.8147 0.666667C66.8787 0.826667 66.9214 0.992 66.9427 1.16267C66.9747 1.35467 66.9907 1.56267 66.9907 1.78667V6.25067ZM71.1667 10.9867C71.1667 10.9867 71.1987 10.9973 71.2627 11.0187C71.3374 11.04 71.4174 11.0773 71.5027 11.1307C71.588 11.1733 71.668 11.2373 71.7427 11.3227C71.8174 11.3973 71.8654 11.488 71.8867 11.5947C71.94 12 71.8707 12.3147 71.6787 12.5387C71.5507 12.688 71.412 12.7787 71.2627 12.8107C71.1134 12.8427 71.0334 12.8587 71.0227 12.8587H62.6867C62.2494 12.8587 61.908 12.7893 61.6627 12.6507C61.4174 12.5227 61.2947 12.336 61.2947 12.0907V9.86667C61.2947 9.80267 61.2894 9.72267 61.2787 9.62667C61.2787 9.53067 61.2787 9.42933 61.2787 9.32267C61.2787 9.20533 61.2787 9.09867 61.2787 9.00267C61.2894 8.90667 61.2947 8.82667 61.2947 8.76267C61.316 8.53867 61.4227 8.35733 61.6147 8.21867C61.8067 8.08 62.0254 8.01067 62.2707 8.01067C62.324 8.01067 62.388 8.016 62.4627 8.02667C62.548 8.02667 62.6174 8.03733 62.6707 8.05867C62.8094 8.10133 62.9214 8.176 63.0067 8.28267C63.092 8.37867 63.156 8.49067 63.1987 8.61867C63.2414 8.74667 63.268 8.88533 63.2787 9.03467C63.2894 9.17333 63.3 9.30133 63.3107 9.41867C63.3107 9.46133 63.3107 9.56267 63.3107 9.72267C63.3107 9.872 63.3107 10.0373 63.3107 10.2187C63.3107 10.3893 63.3107 10.5493 63.3107 10.6987C63.3107 10.8373 63.3107 10.9227 63.3107 10.9547C63.3427 10.9653 63.428 10.9813 63.5667 11.0027C63.716 11.0133 63.988 11.0187 64.3827 11.0187C64.724 11.0187 65.028 11.0133 65.2947 11.0027C65.5614 10.992 65.7 10.9867 65.7107 10.9867H71.1667ZM69.1667 4.61867C68.8574 4.59733 68.58 4.58133 68.3347 4.57067C68.0894 4.54933 67.8974 4.432 67.7587 4.21867C67.6947 4.112 67.6627 3.97867 67.6627 3.81867C67.6627 3.65867 67.6734 3.52 67.6947 3.40267C67.7267 3.28533 67.7854 3.18933 67.8707 3.11467C67.956 3.02933 68.1054 2.96 68.3187 2.90667C68.3614 2.896 68.4414 2.89067 68.5587 2.89067C68.676 2.88 68.7987 2.86933 68.9267 2.85867C69.0654 2.848 69.1934 2.84267 69.3107 2.84267C69.428 2.832 69.508 2.82667 69.5507 2.82667V1.45067C69.54 1.33333 69.5347 1.216 69.5347 1.09867C69.5454 0.981334 69.5667 0.864 69.5987 0.746667C69.62 0.661334 69.6414 0.581333 69.6627 0.506666C69.684 0.432 69.732 0.352 69.8067 0.266667C69.892 0.16 70.0094 0.0853333 70.1587 0.0426665C70.3187 -2.12342e-07 70.4894 -0.0106667 70.6707 0.010667C71.012 0.0640002 71.2307 0.197333 71.3267 0.410667C71.3907 0.538667 71.428 0.698667 71.4387 0.890667C71.46 1.072 71.4707 1.184 71.4707 1.22667V7.24267H71.4547C71.4547 7.25333 71.4494 7.29067 71.4387 7.35467C71.428 7.41867 71.4067 7.49867 71.3747 7.59467C71.3427 7.68 71.2947 7.77067 71.2307 7.86667C71.1667 7.96267 71.0814 8.04267 70.9747 8.10667C70.8254 8.192 70.676 8.23467 70.5267 8.23467C70.3454 8.23467 70.1694 8.176 69.9987 8.05867C69.8707 7.97333 69.78 7.86667 69.7267 7.73867C69.6627 7.62133 69.62 7.504 69.5987 7.38667C69.5774 7.26933 69.5614 7.152 69.5507 7.03467V4.61867H69.1667ZM65.1827 5.38667C65.1827 5.35467 65.1774 5.32267 65.1667 5.29067C65.1667 5.248 65.172 5.2 65.1827 5.14667C65.204 4.99733 65.2147 4.86933 65.2147 4.76267C65.2147 4.64533 65.204 4.512 65.1827 4.36267V4.09067H63.5667C63.396 4.08 63.236 4.06933 63.0867 4.05867C62.9587 4.048 62.82 4.048 62.6707 4.05867C62.532 4.05867 62.4147 4.06933 62.3187 4.09067C62.2974 4.272 62.292 4.45333 62.3027 4.63467C62.324 4.80533 62.34 4.98133 62.3507 5.16267C62.3507 5.28 62.356 5.36 62.3667 5.40267C62.3774 5.44533 62.4414 5.472 62.5587 5.48267C62.676 5.49333 62.7934 5.49867 62.9107 5.49867C63.0387 5.488 63.1614 5.48267 63.2787 5.48267H65.1827V5.38667Z" fill="black"/>
<path d="M78.7415 2.44267C78.7522 2.66667 78.7575 2.90133 78.7575 3.14667C78.7682 3.38133 78.7735 3.616 78.7735 3.85067C78.7735 4.07467 78.7735 4.288 78.7735 4.49067C78.7735 4.69333 78.7735 4.86933 78.7735 5.01867C78.7735 5.15733 78.7735 5.28 78.7735 5.38667C78.7842 5.48267 78.7895 5.57867 78.7895 5.67467C78.7895 5.77067 78.7895 5.872 78.7895 5.97867C78.8002 6.08533 78.8055 6.20267 78.8055 6.33067C78.8055 6.448 78.8162 6.58133 78.8375 6.73067C78.8695 6.86933 78.9015 7.01333 78.9335 7.16267C78.9762 7.312 79.0188 7.46133 79.0615 7.61067C79.1148 7.74933 79.1628 7.86667 79.2055 7.96267L79.8295 9.70667C79.8402 9.73867 79.8562 9.78667 79.8775 9.85067C79.9095 9.91467 79.9362 9.984 79.9575 10.0587C79.9788 10.1333 80.0002 10.208 80.0215 10.2827C80.0428 10.3573 80.0588 10.4107 80.0695 10.4427C80.0908 10.56 80.1122 10.688 80.1335 10.8267C80.1548 10.9653 80.1388 11.1093 80.0855 11.2587C80.0215 11.4187 79.9308 11.5413 79.8135 11.6267C79.7068 11.7013 79.6002 11.744 79.4935 11.7547H79.4775C79.3282 11.7547 79.2055 11.696 79.1095 11.5787C79.0135 11.4613 78.9068 11.312 78.7895 11.1307C78.7255 11.0453 78.6508 10.912 78.5655 10.7307C78.4802 10.5493 78.3895 10.3573 78.2935 10.1547C78.2082 9.952 78.1282 9.76533 78.0535 9.59467C77.9788 9.41333 77.9255 9.28 77.8935 9.19467L77.1095 10.7627C76.9922 10.944 76.8802 11.136 76.7735 11.3387C76.6775 11.5413 76.5388 11.6853 76.3575 11.7707C76.2828 11.8133 76.2082 11.8347 76.1335 11.8347C75.9522 11.8347 75.7815 11.7387 75.6215 11.5467C75.4828 11.376 75.4135 11.152 75.4135 10.8747C75.4135 10.7787 75.4188 10.704 75.4295 10.6507C75.3762 10.5227 75.3228 10.3893 75.2695 10.2507C75.2162 10.1013 75.1628 9.95733 75.1095 9.81867C75.0668 9.68 75.0242 9.55733 74.9815 9.45067C74.9495 9.344 74.9228 9.25867 74.9015 9.19467C74.8695 9.248 74.8108 9.35467 74.7255 9.51467C74.6508 9.67467 74.5708 9.85067 74.4855 10.0427C74.4108 10.224 74.3362 10.3947 74.2615 10.5547C74.1868 10.704 74.1335 10.8 74.1015 10.8427C73.9842 11.024 73.8775 11.2053 73.7815 11.3867C73.6962 11.5573 73.5628 11.6853 73.3815 11.7707C73.3068 11.8133 73.2268 11.8347 73.1415 11.8347C72.9495 11.8347 72.7842 11.7387 72.6455 11.5467C72.5708 11.4613 72.5282 11.36 72.5175 11.2427C72.5068 11.1253 72.5015 11.0027 72.5015 10.8747C72.5122 10.6827 72.5442 10.5013 72.5975 10.3307C72.6615 10.16 72.7308 10 72.8055 9.85067L73.9255 7.14667C73.9575 7.08267 73.9842 7.008 74.0055 6.92267C74.0268 6.83733 74.0428 6.74667 74.0535 6.65067C74.0748 6.55467 74.0908 6.464 74.1015 6.37867C74.1122 6.29333 74.1175 6.224 74.1175 6.17067C74.1282 6 74.1335 5.83467 74.1335 5.67467C74.1335 5.504 74.1335 5.32267 74.1335 5.13067V2.45867L73.4775 2.42667C73.3175 2.416 73.1628 2.35733 73.0135 2.25067C72.8748 2.144 72.7788 2.01067 72.7255 1.85067C72.6295 1.584 72.6668 1.33333 72.8375 1.09867C73.0082 0.896 73.2268 0.768 73.4935 0.714666C73.5468 0.704 73.5948 0.698667 73.6375 0.698667C73.6908 0.688 73.7442 0.682667 73.7975 0.682667L78.9975 0.698667C79.4242 0.698667 79.7175 0.773333 79.8775 0.922667C80.0482 1.06133 80.1388 1.31733 80.1495 1.69067C80.1602 1.904 80.0962 2.06933 79.9575 2.18667C79.8295 2.304 79.6535 2.384 79.4295 2.42667L78.7415 2.44267ZM84.9335 2.92267C84.9335 2.976 84.9282 3.024 84.9175 3.06667C84.9175 3.10933 84.9175 3.14667 84.9175 3.17867V10.8747C84.9175 10.9067 84.9175 10.944 84.9175 10.9867C84.9282 11.0187 84.9335 11.0613 84.9335 11.1147C84.9442 11.36 84.9388 11.616 84.9175 11.8827C84.9068 12.1493 84.8268 12.3893 84.6775 12.6027C84.5815 12.7413 84.4695 12.8373 84.3415 12.8907C84.2242 12.9547 84.1015 12.976 83.9735 12.9547C83.8455 12.9333 83.7228 12.8747 83.6055 12.7787C83.4988 12.6933 83.4135 12.576 83.3495 12.4267C83.2642 12.2133 83.2055 11.9947 83.1735 11.7707C83.1522 11.536 83.1415 11.3067 83.1415 11.0827V7.06667H82.2455V10.9227C82.2455 10.9653 82.2455 11.0133 82.2455 11.0667C82.2455 11.1093 82.2508 11.1627 82.2615 11.2267C82.2722 11.4613 82.2508 11.7173 82.1975 11.9947C82.1548 12.272 82.0802 12.4853 81.9735 12.6347C81.8562 12.8053 81.6855 12.8907 81.4615 12.8907C81.1842 12.8907 80.9655 12.8 80.8055 12.6187C80.6348 12.4373 80.5335 12.2133 80.5015 11.9467C80.4802 11.68 80.4695 11.4293 80.4695 11.1947V1.81867C80.4695 1.68 80.4695 1.52533 80.4695 1.35467C80.4802 1.17333 80.5068 1.00267 80.5495 0.842667C80.6028 0.682667 80.6722 0.544 80.7575 0.426666C80.8535 0.298667 80.9868 0.213334 81.1575 0.170667C81.2642 0.138667 81.3815 0.128 81.5095 0.138667C81.6375 0.149334 81.7442 0.197333 81.8295 0.282666C81.9362 0.4 82.0162 0.570667 82.0695 0.794666C82.1335 1.008 82.1762 1.248 82.1975 1.51467C82.2295 1.77067 82.2455 2.03733 82.2455 2.31467C82.2455 2.592 82.2455 2.848 82.2455 3.08267V5.14667H83.1415V1.96267C83.1415 1.81333 83.1415 1.64267 83.1415 1.45067C83.1522 1.248 83.1842 1.056 83.2375 0.874666C83.2908 0.693333 83.3708 0.538667 83.4775 0.410667C83.5948 0.272 83.7602 0.186667 83.9735 0.154667C84.1975 0.144 84.3842 0.213334 84.5335 0.362667C84.6402 0.490667 84.7202 0.666667 84.7735 0.890667C84.8375 1.104 84.8802 1.33333 84.9015 1.57867C84.9335 1.81333 84.9442 2.05333 84.9335 2.29867C84.9335 2.544 84.9335 2.752 84.9335 2.92267ZM75.8135 6.01067C75.8242 6.23467 75.8508 6.48533 75.8935 6.76267C75.9362 7.02933 76.0055 7.31733 76.1015 7.62667L76.3575 8.47467L76.9015 7.30667C76.9335 7.24267 76.9602 7.168 76.9815 7.08267C77.0028 6.99733 77.0188 6.90667 77.0295 6.81067C77.0508 6.71467 77.0668 6.624 77.0775 6.53867C77.0988 6.45333 77.1095 6.384 77.1095 6.33067C77.1202 6.16 77.1255 5.99467 77.1255 5.83467C77.1255 5.664 77.1255 5.48267 77.1255 5.29067V2.45867H75.7655C75.7868 2.864 75.7975 3.26933 75.7975 3.67467C75.7975 4.08 75.7975 4.42133 75.7975 4.69867C75.7975 4.83733 75.7975 4.96 75.7975 5.06667C75.7975 5.16267 75.7975 5.25867 75.7975 5.35467C75.7975 5.45067 75.7975 5.552 75.7975 5.65867C75.8082 5.76533 75.8135 5.88267 75.8135 6.01067Z" fill="black"/>
<path d="M93.8485 12.8267C93.7312 12.8053 93.6139 12.784 93.4965 12.7627C93.3792 12.752 93.2619 12.7307 93.1445 12.6987C92.7179 12.6133 92.3072 12.4587 91.9125 12.2347C91.5285 12.0107 91.2405 11.6907 91.0485 11.2747C90.8779 10.9333 90.7605 10.5653 90.6965 10.1707C90.6432 9.776 90.6325 9.392 90.6645 9.01867C90.6859 8.64533 90.7605 8.26667 90.8885 7.88267C91.0272 7.49867 91.2299 7.17333 91.4965 6.90667C91.5179 6.88533 91.5605 6.848 91.6245 6.79467C91.6885 6.73067 91.7579 6.66667 91.8325 6.60267C91.9072 6.53867 91.9765 6.48533 92.0405 6.44267C92.1045 6.38933 92.1419 6.368 92.1525 6.37867C91.9392 6.112 91.7685 5.81867 91.6405 5.49867C91.5232 5.17867 91.4485 4.85333 91.4165 4.52267C91.3845 4.18133 91.3845 3.84533 91.4165 3.51467C91.4592 3.17333 91.5339 2.85333 91.6405 2.55467C91.8112 2.05333 92.0779 1.65333 92.4405 1.35467C92.8032 1.056 93.2139 0.853334 93.6725 0.746667C94.1312 0.629333 94.6059 0.602667 95.0965 0.666667C95.5872 0.72 96.0405 0.858667 96.4565 1.08267C96.9365 1.31733 97.2832 1.66933 97.4965 2.13867C97.7205 2.59733 97.8539 3.08267 97.8965 3.59467C97.9179 3.86133 97.9232 4.13333 97.9125 4.41067C97.9125 4.688 97.8805 4.96 97.8165 5.22667C97.7525 5.49333 97.6512 5.744 97.5125 5.97867C97.3739 6.21333 97.1819 6.416 96.9365 6.58667C97.0325 6.672 97.1285 6.77333 97.2245 6.89067C97.3312 6.99733 97.4112 7.09333 97.4645 7.17867C97.5819 7.328 97.6939 7.52533 97.8005 7.77067L98.1525 8.52267C98.1419 8.50133 98.1525 8.464 98.1845 8.41067C98.2272 8.34667 98.2752 8.28267 98.3285 8.21867C98.3819 8.15467 98.4299 8.096 98.4725 8.04267C98.5259 7.97867 98.5579 7.94133 98.5685 7.93067C98.6539 7.81333 98.7552 7.69067 98.8725 7.56267C98.9899 7.43467 99.1125 7.32267 99.2405 7.22667C99.3792 7.12 99.5232 7.04533 99.6725 7.00267C99.8219 6.96 99.9765 6.96 100.137 7.00267C100.286 7.04533 100.382 7.12 100.425 7.22667C100.478 7.32267 100.494 7.44 100.473 7.57867C100.451 7.70667 100.403 7.84533 100.329 7.99467C100.265 8.13333 100.19 8.272 100.105 8.41067C100.03 8.53867 99.9552 8.656 99.8805 8.76267C99.8059 8.86933 99.7472 8.94933 99.7045 9.00267C99.6085 9.152 99.5125 9.296 99.4165 9.43467C99.3312 9.56267 99.2405 9.696 99.1445 9.83467C99.1339 9.856 99.0859 9.91467 99.0005 10.0107C98.9259 10.096 98.8939 10.1493 98.9045 10.1707C98.9685 10.2987 99.0699 10.496 99.2085 10.7627C99.3579 11.0187 99.4752 11.2853 99.5605 11.5627C99.6459 11.84 99.6725 12.1013 99.6405 12.3467C99.6085 12.5813 99.4539 12.736 99.1765 12.8107C98.9739 12.864 98.7659 12.8373 98.5525 12.7307C98.3499 12.624 98.1845 12.496 98.0565 12.3467C98.0352 12.3253 97.9925 12.272 97.9285 12.1867C97.8752 12.1013 97.8165 12.0107 97.7525 11.9147C97.6992 11.808 97.6512 11.7067 97.6085 11.6107C97.5765 11.5147 97.5712 11.4453 97.5925 11.4027C97.3899 11.648 97.1765 11.872 96.9525 12.0747C96.7392 12.2667 96.4885 12.4213 96.2005 12.5387C95.8272 12.688 95.4432 12.7787 95.0485 12.8107C94.6539 12.8533 94.2539 12.8587 93.8485 12.8267ZM94.9845 11.1147C95.1445 11.0933 95.3152 11.0507 95.4965 10.9867C95.6779 10.912 95.8539 10.8213 96.0245 10.7147C96.1952 10.608 96.3445 10.4907 96.4725 10.3627C96.6112 10.224 96.7125 10.0747 96.7765 9.91467C96.7979 9.84 96.7925 9.75467 96.7605 9.65867C96.7285 9.552 96.6859 9.44533 96.6325 9.33867C96.5792 9.232 96.5259 9.13067 96.4725 9.03467C96.4192 8.93867 96.3765 8.85867 96.3445 8.79467C96.2592 8.592 96.1472 8.38933 96.0085 8.18667C95.8805 7.984 95.7259 7.82933 95.5445 7.72267C95.1499 7.488 94.7339 7.39733 94.2965 7.45067C93.8805 7.49333 93.5125 7.65333 93.1925 7.93067C92.8832 8.208 92.7125 8.576 92.6805 9.03467C92.6592 9.28 92.6645 9.54133 92.6965 9.81867C92.7285 10.0853 92.8139 10.3147 92.9525 10.5067C93.1552 10.7627 93.4539 10.944 93.8485 11.0507C94.2432 11.1467 94.6219 11.168 94.9845 11.1147ZM94.9525 5.64267C95.3045 5.62133 95.5605 5.49867 95.7205 5.27467C95.8805 5.05067 95.9765 4.78933 96.0085 4.49067C96.0405 4.33067 96.0619 4.176 96.0725 4.02667C96.0832 3.86667 96.0779 3.712 96.0565 3.56267C96.0352 3.41333 95.9872 3.27467 95.9125 3.14667C95.8379 3.008 95.7205 2.88533 95.5605 2.77867C95.3365 2.61867 95.0752 2.528 94.7765 2.50667C94.4779 2.48533 94.2059 2.55467 93.9605 2.71467C93.7579 2.832 93.6085 2.976 93.5125 3.14667C93.4165 3.30667 93.3579 3.49333 93.3365 3.70667C93.3045 3.96267 93.3099 4.21867 93.3525 4.47467C93.4059 4.72 93.4965 4.93867 93.6245 5.13067C93.7525 5.312 93.9232 5.456 94.1365 5.56267C94.3605 5.65867 94.6325 5.68533 94.9525 5.64267Z" fill="black"/>
<path d="M115.338 10.8747C115.338 11.1413 115.327 11.3547 115.306 11.5147C115.295 11.6747 115.247 11.8773 115.162 12.1227C115.109 12.2827 115.018 12.416 114.89 12.5227C114.762 12.6293 114.581 12.6827 114.346 12.6827C114.282 12.6827 114.197 12.672 114.09 12.6507C113.983 12.64 113.903 12.6133 113.85 12.5707C113.743 12.5067 113.658 12.4053 113.594 12.2667C113.541 12.1173 113.498 11.9627 113.466 11.8027C113.434 11.6427 113.413 11.488 113.402 11.3387C113.402 11.1893 113.402 11.072 113.402 10.9867V6.71467L112.362 6.66667C112.266 6.66667 112.165 6.656 112.058 6.63467C111.962 6.60267 111.866 6.55467 111.77 6.49067C111.685 6.42667 111.61 6.34133 111.546 6.23467C111.482 6.128 111.445 5.99467 111.434 5.83467C111.413 5.64267 111.423 5.44 111.466 5.22667C111.519 5.00267 111.669 4.832 111.914 4.71467C112.01 4.66133 112.127 4.62933 112.266 4.61867C112.415 4.608 112.543 4.608 112.65 4.61867H113.402V1.70667C113.402 1.568 113.402 1.42933 113.402 1.29067C113.402 1.14133 113.418 0.997333 113.45 0.858667C113.471 0.805333 113.487 0.757333 113.498 0.714666C113.519 0.672 113.541 0.624 113.562 0.570666C113.679 0.378666 113.845 0.245333 114.058 0.170667C114.111 0.149334 114.165 0.138667 114.218 0.138667C114.282 0.128 114.341 0.122666 114.394 0.122666C114.746 0.122666 115.013 0.282667 115.194 0.602667C115.237 0.666667 115.263 0.757333 115.274 0.874666C115.295 0.992 115.311 1.11467 115.322 1.24267C115.333 1.36 115.338 1.46667 115.338 1.56267C115.338 1.648 115.338 1.70133 115.338 1.72267V10.8747ZM117.882 12.2347C117.818 12.3733 117.717 12.4907 117.578 12.5867C117.365 12.7253 117.13 12.7627 116.874 12.6987C116.714 12.6667 116.586 12.5973 116.49 12.4907C116.394 12.3947 116.319 12.2827 116.266 12.1547C116.223 12.0267 116.197 11.888 116.186 11.7387C116.175 11.5893 116.17 11.4453 116.17 11.3067V1.88267C116.17 1.76533 116.17 1.632 116.17 1.48267C116.17 1.32267 116.181 1.17333 116.202 1.03467C116.223 0.885334 116.25 0.746667 116.282 0.618667C116.325 0.490667 116.383 0.389333 116.458 0.314667C116.575 0.208 116.687 0.144 116.794 0.122666C116.901 0.0906669 117.029 0.0746671 117.178 0.0746671C117.359 0.0746671 117.509 0.128 117.626 0.234667C117.743 0.330667 117.834 0.464 117.898 0.634667C117.994 0.858667 118.047 1.088 118.058 1.32267C118.069 1.55733 118.079 1.79733 118.09 2.04267V2.12267C118.111 2.93333 118.117 3.712 118.106 4.45867C118.095 5.20533 118.09 5.95733 118.09 6.71467V10.7147C118.09 10.992 118.079 11.2587 118.058 11.5147C118.047 11.7707 117.989 12.0107 117.882 12.2347ZM109.562 9.16267C109.551 9.17333 109.498 9.24267 109.402 9.37067C109.317 9.488 109.221 9.62133 109.114 9.77067C109.018 9.90933 108.922 10.0373 108.826 10.1547C108.741 10.272 108.693 10.336 108.682 10.3467C108.597 10.464 108.511 10.5813 108.426 10.6987C108.351 10.8053 108.271 10.912 108.186 11.0187C108.165 11.04 108.143 11.0667 108.122 11.0987C108.111 11.1307 108.095 11.1573 108.074 11.1787C107.925 11.36 107.77 11.536 107.61 11.7067C107.45 11.8773 107.263 12.0053 107.05 12.0907C106.965 12.1333 106.869 12.1547 106.762 12.1547C106.655 12.1547 106.565 12.128 106.49 12.0747C106.426 12.0213 106.351 11.952 106.266 11.8667C106.095 11.6747 106.01 11.4507 106.01 11.1947C106.021 11.0027 106.063 10.8213 106.138 10.6507C106.223 10.48 106.309 10.32 106.394 10.1707C106.415 10.1493 106.474 10.0587 106.57 9.89867C106.677 9.73867 106.799 9.54133 106.938 9.30667C107.077 9.072 107.221 8.82133 107.37 8.55467C107.53 8.27733 107.679 8.02133 107.818 7.78667C107.967 7.54133 108.095 7.328 108.202 7.14667C108.309 6.96533 108.383 6.85333 108.426 6.81067C108.49 6.69333 108.538 6.58133 108.57 6.47467C108.613 6.368 108.639 6.256 108.65 6.13867C108.671 5.968 108.682 5.80267 108.682 5.64267C108.682 5.472 108.682 5.29067 108.682 5.09867V2.26667C108.682 2.16 108.682 2.05867 108.682 1.96267C108.682 1.86667 108.687 1.76533 108.698 1.65867C108.698 1.54133 108.709 1.424 108.73 1.30667C108.751 1.18933 108.773 1.08267 108.794 0.986667C108.815 0.922667 108.842 0.853334 108.874 0.778667C108.917 0.704 108.954 0.634667 108.986 0.570666C109.039 0.485334 109.109 0.421334 109.194 0.378667C109.29 0.336 109.391 0.304 109.498 0.282666L109.53 0.266667C109.615 0.245333 109.685 0.24 109.738 0.250667C109.791 0.250667 109.861 0.266667 109.946 0.298667C110.031 0.330667 110.106 0.378667 110.17 0.442667C110.213 0.485333 110.25 0.544 110.282 0.618667C110.314 0.693334 110.346 0.773334 110.378 0.858667C110.421 0.965333 110.453 1.088 110.474 1.22667C110.506 1.35467 110.527 1.49333 110.538 1.64267C110.581 2.09067 110.607 2.59733 110.618 3.16267C110.629 3.71733 110.634 4.21867 110.634 4.66667C110.645 4.944 110.65 5.22133 110.65 5.49867C110.65 5.76533 110.661 6.032 110.682 6.29867C110.693 6.53333 110.746 6.752 110.842 6.95467C110.949 7.15733 111.055 7.36 111.162 7.56267C111.269 7.79733 111.381 8.03733 111.498 8.28267C111.615 8.528 111.733 8.76267 111.85 8.98667C111.861 9.01867 111.898 9.09333 111.962 9.21067C112.026 9.328 112.09 9.456 112.154 9.59467C112.229 9.72267 112.293 9.84533 112.346 9.96267C112.41 10.0693 112.447 10.1387 112.458 10.1707L112.49 10.2987L112.538 10.3947C112.602 10.512 112.65 10.6347 112.682 10.7627C112.714 10.88 112.735 11.008 112.746 11.1467C112.757 11.2853 112.725 11.4293 112.65 11.5787C112.501 11.9093 112.287 12.0853 112.01 12.1067H111.994C111.823 12.1067 111.674 12.0427 111.546 11.9147C111.418 11.7867 111.279 11.632 111.13 11.4507C110.981 11.28 110.837 11.0827 110.698 10.8587C110.559 10.6347 110.437 10.448 110.33 10.2987C110.085 9.89333 109.898 9.61067 109.77 9.45067C109.642 9.28 109.573 9.184 109.562 9.16267Z" fill="black"/>
<path d="M130.371 6.25067C130.371 6.35733 130.339 6.464 130.275 6.57067C130.221 6.67733 130.152 6.77333 130.067 6.85867C129.981 6.93333 129.885 7.00267 129.779 7.06667C129.672 7.12 129.571 7.152 129.475 7.16267C129.197 7.20533 128.963 7.216 128.771 7.19467C128.579 7.17333 128.349 7.16267 128.083 7.16267C127.496 7.16267 126.909 7.15733 126.323 7.14667C125.747 7.136 125.171 7.12 124.595 7.09867C124.424 7.088 124.28 7.03467 124.163 6.93867C124.056 6.84267 123.971 6.73067 123.907 6.60267C123.843 6.464 123.8 6.31467 123.779 6.15467C123.757 5.99467 123.747 5.84533 123.747 5.70667C123.747 5.48267 123.741 5.232 123.731 4.95467C123.731 4.67733 123.725 4.39467 123.715 4.10667C123.715 3.81867 123.715 3.536 123.715 3.25867C123.715 2.97067 123.72 2.71467 123.731 2.49067C123.741 2.352 123.741 2.20267 123.731 2.04267C123.731 1.88267 123.736 1.72267 123.747 1.56267C123.757 1.40267 123.773 1.248 123.795 1.09867C123.827 0.938667 123.875 0.8 123.939 0.682667C124.013 0.544 124.12 0.432 124.259 0.346666C124.397 0.261334 124.541 0.213334 124.691 0.202666C124.84 0.181333 124.984 0.197333 125.123 0.250667C125.272 0.304 125.389 0.4 125.475 0.538667C125.645 0.826667 125.731 1.16267 125.731 1.54667C125.741 1.92 125.741 2.27733 125.731 2.61867H128.563C128.584 2.384 128.589 2.176 128.579 1.99467C128.568 1.81333 128.563 1.62133 128.563 1.41867C128.563 1.23733 128.589 1.03467 128.643 0.810667C128.707 0.576 128.819 0.405334 128.979 0.298667C129.096 0.213334 129.256 0.170667 129.459 0.170667C129.661 0.16 129.821 0.197333 129.939 0.282666C130.056 0.368 130.141 0.496 130.195 0.666667C130.259 0.826667 130.301 0.992 130.323 1.16267C130.355 1.35467 130.371 1.56267 130.371 1.78667V6.25067ZM134.547 10.9867C134.547 10.9867 134.579 10.9973 134.643 11.0187C134.717 11.04 134.797 11.0773 134.883 11.1307C134.968 11.1733 135.048 11.2373 135.123 11.3227C135.197 11.3973 135.245 11.488 135.267 11.5947C135.32 12 135.251 12.3147 135.059 12.5387C134.931 12.688 134.792 12.7787 134.643 12.8107C134.493 12.8427 134.413 12.8587 134.403 12.8587H126.067C125.629 12.8587 125.288 12.7893 125.043 12.6507C124.797 12.5227 124.675 12.336 124.675 12.0907V9.86667C124.675 9.80267 124.669 9.72267 124.659 9.62667C124.659 9.53067 124.659 9.42933 124.659 9.32267C124.659 9.20533 124.659 9.09867 124.659 9.00267C124.669 8.90667 124.675 8.82667 124.675 8.76267C124.696 8.53867 124.803 8.35733 124.995 8.21867C125.187 8.08 125.405 8.01067 125.651 8.01067C125.704 8.01067 125.768 8.016 125.843 8.02667C125.928 8.02667 125.997 8.03733 126.051 8.05867C126.189 8.10133 126.301 8.176 126.387 8.28267C126.472 8.37867 126.536 8.49067 126.579 8.61867C126.621 8.74667 126.648 8.88533 126.659 9.03467C126.669 9.17333 126.68 9.30133 126.691 9.41867C126.691 9.46133 126.691 9.56267 126.691 9.72267C126.691 9.872 126.691 10.0373 126.691 10.2187C126.691 10.3893 126.691 10.5493 126.691 10.6987C126.691 10.8373 126.691 10.9227 126.691 10.9547C126.723 10.9653 126.808 10.9813 126.947 11.0027C127.096 11.0133 127.368 11.0187 127.763 11.0187C128.104 11.0187 128.408 11.0133 128.675 11.0027C128.941 10.992 129.08 10.9867 129.091 10.9867H134.547ZM132.547 4.61867C132.237 4.59733 131.96 4.58133 131.715 4.57067C131.469 4.54933 131.277 4.432 131.139 4.21867C131.075 4.112 131.043 3.97867 131.043 3.81867C131.043 3.65867 131.053 3.52 131.075 3.40267C131.107 3.28533 131.165 3.18933 131.251 3.11467C131.336 3.02933 131.485 2.96 131.699 2.90667C131.741 2.896 131.821 2.89067 131.939 2.89067C132.056 2.88 132.179 2.86933 132.307 2.85867C132.445 2.848 132.573 2.84267 132.691 2.84267C132.808 2.832 132.888 2.82667 132.931 2.82667V1.45067C132.92 1.33333 132.915 1.216 132.915 1.09867C132.925 0.981334 132.947 0.864 132.979 0.746667C133 0.661334 133.021 0.581333 133.043 0.506666C133.064 0.432 133.112 0.352 133.187 0.266667C133.272 0.16 133.389 0.0853333 133.539 0.0426665C133.699 -2.12342e-07 133.869 -0.0106667 134.051 0.010667C134.392 0.0640002 134.611 0.197333 134.707 0.410667C134.771 0.538667 134.808 0.698667 134.819 0.890667C134.84 1.072 134.851 1.184 134.851 1.22667V7.24267H134.835C134.835 7.25333 134.829 7.29067 134.819 7.35467C134.808 7.41867 134.787 7.49867 134.755 7.59467C134.723 7.68 134.675 7.77067 134.611 7.86667C134.547 7.96267 134.461 8.04267 134.355 8.10667C134.205 8.192 134.056 8.23467 133.907 8.23467C133.725 8.23467 133.549 8.176 133.379 8.05867C133.251 7.97333 133.16 7.86667 133.107 7.73867C133.043 7.62133 133 7.504 132.979 7.38667C132.957 7.26933 132.941 7.152 132.931 7.03467V4.61867H132.547ZM128.563 5.38667C128.563 5.35467 128.557 5.32267 128.547 5.29067C128.547 5.248 128.552 5.2 128.563 5.14667C128.584 4.99733 128.595 4.86933 128.595 4.76267C128.595 4.64533 128.584 4.512 128.563 4.36267V4.09067H126.947C126.776 4.08 126.616 4.06933 126.467 4.05867C126.339 4.048 126.2 4.048 126.051 4.05867C125.912 4.05867 125.795 4.06933 125.699 4.09067C125.677 4.272 125.672 4.45333 125.683 4.63467C125.704 4.80533 125.72 4.98133 125.731 5.16267C125.731 5.28 125.736 5.36 125.747 5.40267C125.757 5.44533 125.821 5.472 125.939 5.48267C126.056 5.49333 126.173 5.49867 126.291 5.49867C126.419 5.488 126.541 5.48267 126.659 5.48267H128.563V5.38667Z" fill="black"/>
<path d="M142.121 2.44267C142.132 2.66667 142.137 2.90133 142.137 3.14667C142.148 3.38133 142.153 3.616 142.153 3.85067C142.153 4.07467 142.153 4.288 142.153 4.49067C142.153 4.69333 142.153 4.86933 142.153 5.01867C142.153 5.15733 142.153 5.28 142.153 5.38667C142.164 5.48267 142.169 5.57867 142.169 5.67467C142.169 5.77067 142.169 5.872 142.169 5.97867C142.18 6.08533 142.185 6.20267 142.185 6.33067C142.185 6.448 142.196 6.58133 142.217 6.73067C142.249 6.86933 142.281 7.01333 142.313 7.16267C142.356 7.312 142.399 7.46133 142.441 7.61067C142.495 7.74933 142.543 7.86667 142.585 7.96267L143.209 9.70667C143.22 9.73867 143.236 9.78667 143.257 9.85067C143.289 9.91467 143.316 9.984 143.337 10.0587C143.359 10.1333 143.38 10.208 143.401 10.2827C143.423 10.3573 143.439 10.4107 143.449 10.4427C143.471 10.56 143.492 10.688 143.513 10.8267C143.535 10.9653 143.519 11.1093 143.465 11.2587C143.401 11.4187 143.311 11.5413 143.193 11.6267C143.087 11.7013 142.98 11.744 142.873 11.7547H142.857C142.708 11.7547 142.585 11.696 142.489 11.5787C142.393 11.4613 142.287 11.312 142.169 11.1307C142.105 11.0453 142.031 10.912 141.945 10.7307C141.86 10.5493 141.769 10.3573 141.673 10.1547C141.588 9.952 141.508 9.76533 141.433 9.59467C141.359 9.41333 141.305 9.28 141.273 9.19467L140.489 10.7627C140.372 10.944 140.26 11.136 140.153 11.3387C140.057 11.5413 139.919 11.6853 139.737 11.7707C139.663 11.8133 139.588 11.8347 139.513 11.8347C139.332 11.8347 139.161 11.7387 139.001 11.5467C138.863 11.376 138.793 11.152 138.793 10.8747C138.793 10.7787 138.799 10.704 138.809 10.6507C138.756 10.5227 138.703 10.3893 138.649 10.2507C138.596 10.1013 138.543 9.95733 138.489 9.81867C138.447 9.68 138.404 9.55733 138.361 9.45067C138.329 9.344 138.303 9.25867 138.281 9.19467C138.249 9.248 138.191 9.35467 138.105 9.51467C138.031 9.67467 137.951 9.85067 137.865 10.0427C137.791 10.224 137.716 10.3947 137.641 10.5547C137.567 10.704 137.513 10.8 137.481 10.8427C137.364 11.024 137.257 11.2053 137.161 11.3867C137.076 11.5573 136.943 11.6853 136.761 11.7707C136.687 11.8133 136.607 11.8347 136.521 11.8347C136.329 11.8347 136.164 11.7387 136.025 11.5467C135.951 11.4613 135.908 11.36 135.897 11.2427C135.887 11.1253 135.881 11.0027 135.881 10.8747C135.892 10.6827 135.924 10.5013 135.977 10.3307C136.041 10.16 136.111 10 136.185 9.85067L137.305 7.14667C137.337 7.08267 137.364 7.008 137.385 6.92267C137.407 6.83733 137.423 6.74667 137.433 6.65067C137.455 6.55467 137.471 6.464 137.481 6.37867C137.492 6.29333 137.497 6.224 137.497 6.17067C137.508 6 137.513 5.83467 137.513 5.67467C137.513 5.504 137.513 5.32267 137.513 5.13067V2.45867L136.857 2.42667C136.697 2.416 136.543 2.35733 136.393 2.25067C136.255 2.144 136.159 2.01067 136.105 1.85067C136.009 1.584 136.047 1.33333 136.217 1.09867C136.388 0.896 136.607 0.768 136.873 0.714666C136.927 0.704 136.975 0.698667 137.017 0.698667C137.071 0.688 137.124 0.682667 137.177 0.682667L142.377 0.698667C142.804 0.698667 143.097 0.773333 143.257 0.922667C143.428 1.06133 143.519 1.31733 143.529 1.69067C143.54 1.904 143.476 2.06933 143.337 2.18667C143.209 2.304 143.033 2.384 142.809 2.42667L142.121 2.44267ZM148.313 2.92267C148.313 2.976 148.308 3.024 148.297 3.06667C148.297 3.10933 148.297 3.14667 148.297 3.17867V10.8747C148.297 10.9067 148.297 10.944 148.297 10.9867C148.308 11.0187 148.313 11.0613 148.313 11.1147C148.324 11.36 148.319 11.616 148.297 11.8827C148.287 12.1493 148.207 12.3893 148.057 12.6027C147.961 12.7413 147.849 12.8373 147.721 12.8907C147.604 12.9547 147.481 12.976 147.353 12.9547C147.225 12.9333 147.103 12.8747 146.985 12.7787C146.879 12.6933 146.793 12.576 146.729 12.4267C146.644 12.2133 146.585 11.9947 146.553 11.7707C146.532 11.536 146.521 11.3067 146.521 11.0827V7.06667H145.625V10.9227C145.625 10.9653 145.625 11.0133 145.625 11.0667C145.625 11.1093 145.631 11.1627 145.641 11.2267C145.652 11.4613 145.631 11.7173 145.577 11.9947C145.535 12.272 145.46 12.4853 145.353 12.6347C145.236 12.8053 145.065 12.8907 144.841 12.8907C144.564 12.8907 144.345 12.8 144.185 12.6187C144.015 12.4373 143.913 12.2133 143.881 11.9467C143.86 11.68 143.849 11.4293 143.849 11.1947V1.81867C143.849 1.68 143.849 1.52533 143.849 1.35467C143.86 1.17333 143.887 1.00267 143.929 0.842667C143.983 0.682667 144.052 0.544 144.137 0.426666C144.233 0.298667 144.367 0.213334 144.537 0.170667C144.644 0.138667 144.761 0.128 144.889 0.138667C145.017 0.149334 145.124 0.197333 145.209 0.282666C145.316 0.4 145.396 0.570667 145.449 0.794666C145.513 1.008 145.556 1.248 145.577 1.51467C145.609 1.77067 145.625 2.03733 145.625 2.31467C145.625 2.592 145.625 2.848 145.625 3.08267V5.14667H146.521V1.96267C146.521 1.81333 146.521 1.64267 146.521 1.45067C146.532 1.248 146.564 1.056 146.617 0.874666C146.671 0.693333 146.751 0.538667 146.857 0.410667C146.975 0.272 147.14 0.186667 147.353 0.154667C147.577 0.144 147.764 0.213334 147.913 0.362667C148.02 0.490667 148.1 0.666667 148.153 0.890667C148.217 1.104 148.26 1.33333 148.281 1.57867C148.313 1.81333 148.324 2.05333 148.313 2.29867C148.313 2.544 148.313 2.752 148.313 2.92267ZM139.193 6.01067C139.204 6.23467 139.231 6.48533 139.273 6.76267C139.316 7.02933 139.385 7.31733 139.481 7.62667L139.737 8.47467L140.281 7.30667C140.313 7.24267 140.34 7.168 140.361 7.08267C140.383 6.99733 140.399 6.90667 140.409 6.81067C140.431 6.71467 140.447 6.624 140.457 6.53867C140.479 6.45333 140.489 6.384 140.489 6.33067C140.5 6.16 140.505 5.99467 140.505 5.83467C140.505 5.664 140.505 5.48267 140.505 5.29067V2.45867H139.145C139.167 2.864 139.177 3.26933 139.177 3.67467C139.177 4.08 139.177 4.42133 139.177 4.69867C139.177 4.83733 139.177 4.96 139.177 5.06667C139.177 5.16267 139.177 5.25867 139.177 5.35467C139.177 5.45067 139.177 5.552 139.177 5.65867C139.188 5.76533 139.193 5.88267 139.193 6.01067Z" fill="black"/>
<path d="M159.164 5.14667C159.324 5.14667 159.49 5.16267 159.66 5.19467C159.831 5.216 159.991 5.26933 160.14 5.35467C160.29 5.42933 160.412 5.536 160.508 5.67467C160.604 5.80267 160.652 5.97867 160.652 6.20267C160.652 6.42667 160.567 6.60267 160.396 6.73067C160.226 6.85867 160.018 6.95467 159.772 7.01867C159.527 7.08267 159.266 7.12533 158.988 7.14667C158.722 7.15733 158.487 7.16267 158.284 7.16267H156.028C155.836 7.16267 155.639 7.16267 155.436 7.16267C155.244 7.16267 155.058 7.14667 154.876 7.11467C154.706 7.08267 154.551 7.03467 154.412 6.97067C154.274 6.896 154.162 6.79467 154.076 6.66667C153.98 6.528 153.911 6.35733 153.868 6.15467C153.836 5.94133 153.81 5.73867 153.788 5.54667C153.778 5.344 153.772 5.17333 153.772 5.03467C153.783 4.88533 153.788 4.8 153.788 4.77867L153.82 1.89867C153.82 1.86667 153.82 1.808 153.82 1.72267C153.82 1.63733 153.826 1.54667 153.836 1.45067C153.847 1.344 153.863 1.23733 153.884 1.13067C153.906 1.024 153.938 0.938667 153.98 0.874666C154.076 0.725333 154.172 0.613333 154.268 0.538667C154.375 0.464 154.514 0.416 154.684 0.394667C154.898 0.352 155.207 0.330667 155.612 0.330667C155.644 0.330667 155.74 0.330667 155.9 0.330667C156.06 0.330667 156.247 0.336 156.46 0.346666C156.684 0.346666 156.924 0.352 157.18 0.362667C157.436 0.362667 157.671 0.368 157.884 0.378667C158.108 0.378667 158.3 0.384 158.46 0.394667C158.62 0.394667 158.716 0.394667 158.748 0.394667C158.887 0.394667 159.031 0.4 159.18 0.410667C159.33 0.410667 159.474 0.426667 159.612 0.458667C159.751 0.490667 159.879 0.544 159.996 0.618667C160.124 0.682667 160.231 0.784 160.316 0.922667C160.434 1.104 160.487 1.30133 160.476 1.51467C160.476 1.728 160.412 1.92533 160.284 2.10667C160.22 2.192 160.135 2.26133 160.028 2.31467C159.922 2.368 159.804 2.41067 159.676 2.44267C159.548 2.464 159.42 2.48 159.292 2.49067C159.175 2.49067 159.074 2.49067 158.988 2.49067L156.012 2.47467L156.044 5.09867C156.183 5.10933 156.396 5.12 156.684 5.13067C156.972 5.14133 157.276 5.14667 157.596 5.14667C157.916 5.14667 158.22 5.14667 158.508 5.14667C158.807 5.14667 159.026 5.14667 159.164 5.14667ZM156.396 12.8587C155.959 12.8587 155.607 12.7627 155.34 12.5707C155.074 12.3893 154.94 12.176 154.94 11.9307V9.62667C154.919 9.392 154.919 9.152 154.94 8.90667C154.962 8.68267 155.047 8.50133 155.196 8.36267C155.356 8.224 155.559 8.15467 155.804 8.15467C155.858 8.15467 155.954 8.16 156.092 8.17067C156.231 8.17067 156.327 8.18133 156.38 8.20267C156.519 8.24533 156.626 8.30933 156.7 8.39467C156.786 8.48 156.85 8.58133 156.892 8.69867C156.935 8.80533 156.962 8.92267 156.972 9.05067C156.983 9.168 156.994 9.28533 157.004 9.40267C157.004 9.44533 157.004 9.54667 157.004 9.70667C157.015 9.856 157.02 10.0213 157.02 10.2027C157.031 10.3733 157.036 10.5333 157.036 10.6827C157.047 10.832 157.058 10.9227 157.068 10.9547C157.1 10.9653 157.186 10.9813 157.324 11.0027C157.474 11.0133 157.746 11.0187 158.14 11.0187C158.482 11.0187 158.69 11.0133 158.764 11.0027C158.85 10.992 158.898 10.9867 158.908 10.9867H163.98C163.98 10.9867 164.012 10.9973 164.076 11.0187C164.151 11.04 164.231 11.0773 164.316 11.1307C164.402 11.1733 164.482 11.2373 164.556 11.3227C164.631 11.3973 164.679 11.488 164.7 11.5947C164.754 12 164.684 12.3147 164.492 12.5387C164.364 12.688 164.226 12.7787 164.076 12.8107C163.927 12.8427 163.847 12.8587 163.836 12.8587H156.396ZM164.236 5.08267V6.84267C164.226 6.96 164.21 7.08267 164.188 7.21067C164.167 7.328 164.124 7.44533 164.06 7.56267C163.996 7.69067 163.906 7.79733 163.788 7.88267C163.703 7.936 163.602 7.97867 163.484 8.01067C163.378 8.032 163.282 8.04267 163.196 8.04267C163.111 8.04267 163.02 8.03733 162.924 8.02667C162.828 8.00533 162.748 7.97333 162.684 7.93067C162.578 7.86667 162.492 7.78667 162.428 7.69067C162.364 7.59467 162.311 7.504 162.268 7.41867C162.236 7.32267 162.215 7.24267 162.204 7.17867C162.194 7.104 162.188 7.06667 162.188 7.06667V1.30667C162.178 1.264 162.183 1.14667 162.204 0.954667C162.226 0.762667 162.268 0.602667 162.332 0.474667C162.386 0.368 162.476 0.282667 162.604 0.218667C162.743 0.154667 162.887 0.112 163.036 0.0906669C163.218 0.0693332 163.399 0.0799997 163.58 0.122666C163.762 0.165333 163.895 0.234667 163.98 0.330667C164.044 0.416 164.087 0.501334 164.108 0.586667C164.14 0.661334 164.167 0.741333 164.188 0.826667C164.22 0.933334 164.236 1.04533 164.236 1.16267C164.247 1.28 164.247 1.39733 164.236 1.51467V3.30667C164.279 3.30667 164.364 3.312 164.492 3.32267C164.631 3.32267 164.775 3.328 164.924 3.33867C165.074 3.33867 165.212 3.344 165.34 3.35467C165.479 3.36533 165.575 3.376 165.628 3.38667C165.842 3.42933 165.991 3.49333 166.076 3.57867C166.162 3.65333 166.215 3.74933 166.236 3.86667C166.268 3.984 166.284 4.12267 166.284 4.28267C166.284 4.432 166.252 4.56 166.188 4.66667C166.124 4.77333 166.06 4.85333 165.996 4.90667C165.932 4.96 165.858 5.00267 165.772 5.03467C165.687 5.056 165.591 5.072 165.484 5.08267C165.378 5.08267 165.244 5.08267 165.084 5.08267H164.236Z" fill="black"/>
<path d="M170.211 10.7307C170.211 10.5707 170.211 10.4213 170.211 10.2827C170.211 10.1333 170.211 9.95733 170.211 9.75467C170.211 9.552 170.206 9.312 170.195 9.03467C170.195 8.75733 170.195 8.4 170.195 7.96267C170.195 7.52533 170.195 7.00267 170.195 6.39467C170.195 5.776 170.195 5.03467 170.195 4.17067C170.195 3.98933 170.195 3.81867 170.195 3.65867C170.195 3.488 170.185 3.312 170.163 3.13067C170.131 2.93867 170.083 2.816 170.019 2.76267C169.955 2.70933 169.827 2.68267 169.635 2.68267C169.401 2.68267 169.193 2.68267 169.011 2.68267C168.83 2.68267 168.654 2.68267 168.483 2.68267C168.313 2.68267 168.137 2.68267 167.955 2.68267C167.785 2.68267 167.598 2.68267 167.395 2.68267C167.022 2.68267 166.739 2.58667 166.547 2.39467C166.366 2.20267 166.275 1.952 166.275 1.64267C166.275 1.408 166.339 1.22667 166.467 1.09867C166.595 0.96 166.761 0.858667 166.963 0.794666C167.166 0.730667 167.39 0.693333 167.635 0.682667C167.881 0.661333 168.126 0.650666 168.371 0.650666H170.499C170.553 0.650666 170.606 0.656 170.659 0.666667C170.723 0.666667 170.782 0.666667 170.835 0.666667C171.091 0.677334 171.342 0.730667 171.587 0.826667C171.673 0.858667 171.753 0.901333 171.827 0.954667C171.913 1.008 171.982 1.072 172.035 1.14667C172.142 1.296 172.201 1.43467 172.211 1.56267C172.222 1.69067 172.238 1.84533 172.259 2.02667C172.27 2.19733 172.275 2.42133 172.275 2.69867C172.286 2.96533 172.291 3.184 172.291 3.35467C172.377 3.344 172.457 3.33867 172.531 3.33867C172.606 3.33867 172.675 3.33867 172.739 3.33867H173.955V1.72267C173.955 1.584 173.955 1.44533 173.955 1.30667C173.955 1.15733 173.971 1.01333 174.003 0.874666C174.025 0.821333 174.041 0.773333 174.051 0.730667C174.073 0.688 174.094 0.64 174.115 0.586667C174.179 0.48 174.243 0.4 174.307 0.346666C174.371 0.282667 174.462 0.229333 174.579 0.186667C174.675 0.154667 174.771 0.138667 174.867 0.138667C175.219 0.138667 175.486 0.298667 175.667 0.618667C175.71 0.682667 175.742 0.773333 175.763 0.890667C175.785 1.008 175.801 1.13067 175.811 1.25867C175.822 1.376 175.827 1.48267 175.827 1.57867C175.827 1.664 175.827 1.71733 175.827 1.73867V9.30667C175.827 10.1067 175.822 10.6827 175.811 11.0347C175.811 11.3013 175.801 11.5147 175.779 11.6747C175.769 11.8347 175.721 12.0373 175.635 12.2827C175.582 12.4427 175.491 12.576 175.363 12.6827C175.235 12.7893 175.054 12.8427 174.819 12.8427C174.755 12.8427 174.681 12.832 174.595 12.8107C174.521 12.8 174.457 12.7733 174.403 12.7307C174.297 12.6667 174.211 12.5653 174.147 12.4267C174.094 12.2773 174.051 12.1227 174.019 11.9627C173.987 11.8027 173.966 11.648 173.955 11.4987C173.955 11.3493 173.955 11.232 173.955 11.1467V9.25867L172.451 9.22667C172.377 9.22667 172.323 9.22133 172.291 9.21067C172.291 9.22133 172.291 9.28533 172.291 9.40267C172.302 9.52 172.307 9.664 172.307 9.83467C172.307 10.0053 172.307 10.192 172.307 10.3947C172.307 10.5867 172.302 10.768 172.291 10.9387C172.259 11.3227 172.137 11.632 171.923 11.8667C171.721 12.1013 171.433 12.2187 171.059 12.2187C170.867 12.2187 170.713 12.1707 170.595 12.0747C170.478 11.9787 170.393 11.856 170.339 11.7067C170.286 11.5573 170.249 11.3973 170.227 11.2267C170.217 11.0453 170.211 10.88 170.211 10.7307ZM178.643 2.05867C178.665 2.85867 178.67 3.67467 178.659 4.50667C178.649 5.328 178.643 6.11733 178.643 6.87467V10.8747C178.643 11.152 178.633 11.4187 178.611 11.6747C178.601 11.9307 178.542 12.1707 178.435 12.3947C178.371 12.5333 178.27 12.6507 178.131 12.7467C178.014 12.8213 177.913 12.864 177.827 12.8747C177.742 12.896 177.63 12.8907 177.491 12.8587C177.331 12.8267 177.203 12.7573 177.107 12.6507C177.011 12.5547 176.931 12.4427 176.867 12.3147C176.814 12.1867 176.777 12.048 176.755 11.8987C176.745 11.7493 176.739 11.6053 176.739 11.4667V1.89867C176.739 1.78133 176.739 1.648 176.739 1.49867C176.739 1.33867 176.745 1.18933 176.755 1.05067C176.777 0.901334 176.803 0.762667 176.835 0.634667C176.878 0.506667 176.937 0.405334 177.011 0.330667C177.129 0.224 177.251 0.16 177.379 0.138667C177.507 0.106667 177.646 0.0906669 177.795 0.0906669C178.009 0.0906669 178.174 0.165334 178.291 0.314667C178.409 0.464 178.489 0.645333 178.531 0.858667C178.585 1.072 178.617 1.29067 178.627 1.51467C178.638 1.73867 178.643 1.92 178.643 2.05867ZM172.451 5.22667C172.377 5.22667 172.323 5.22133 172.291 5.21067V7.38667C172.377 7.376 172.457 7.37067 172.531 7.37067C172.606 7.37067 172.675 7.37067 172.739 7.37067H173.955V5.25867L172.451 5.22667Z" fill="black"/>
</svg>
