<svg width="302" height="19" viewBox="0 0 302 19" fill="none" xmlns="http://www.w3.org/2000/svg">
<path d="M9.14062 6.71875V4.80469H4.29688L4.49219 6.83594L9.14062 6.71875ZM2.73438 1.09375H4.02344L4.25781 3.67188H8.98438L8.78906 1.17188L10.0781 1.09375L10.5078 8.04688H4.0625L3.20312 7.46094L2.73438 1.09375ZM8.16406 11.6797V15.7031H6.91406V11.6797H0L0.078125 10.5859H13.7109V11.5234L8.16406 11.6797ZM3.39844 18.3594L2.53906 17.6953V13.3203H3.75V17.0312L12.6172 17.2266C12.6172 17.487 12.6172 17.6888 12.6172 17.832C12.6302 17.9883 12.6367 18.1055 12.6367 18.1836C12.6367 18.2617 12.6367 18.3203 12.6367 18.3594C12.6497 18.3984 12.6562 18.4375 12.6562 18.4766L3.39844 18.3594Z" fill="#433232"/>
<path d="M15.8132 2.89062H22.3366V10.8984H16.3991L15.7741 10.1562L15.8132 2.89062ZM21.0476 4.17969H17.1023V9.41406H20.9694L21.0476 4.17969ZM25.8523 1.36719H27.1804V5.54688H30.2273V6.875H27.1804V12.9297H25.7741L25.8523 1.36719ZM20.0319 17.5V12.9297L21.3601 13.1641V16.7578H28.4304L28.5085 18.0078H20.5788L20.0319 17.5Z" fill="#433232"/>
<path d="M40.2592 6.67969C40.2592 7.31771 40.1681 7.87109 39.9858 8.33984C39.8165 8.80859 39.5821 9.19922 39.2826 9.51172C38.9832 9.8112 38.6381 10.0391 38.2475 10.1953C37.8569 10.3385 37.4402 10.4102 36.9975 10.4102C36.3855 10.4102 35.8517 10.319 35.3959 10.1367C34.9532 9.94141 34.5821 9.6875 34.2826 9.375C33.9962 9.04948 33.7748 8.67839 33.6186 8.26172C33.4754 7.83203 33.4037 7.38281 33.4037 6.91406C33.4037 6.5625 33.4493 6.17188 33.5405 5.74219C33.6446 5.29948 33.8269 4.88281 34.0873 4.49219C34.3608 4.10156 34.7254 3.77604 35.1811 3.51562C35.6368 3.25521 36.2228 3.125 36.9389 3.125C37.3686 3.125 37.7787 3.20964 38.1694 3.37891C38.573 3.53516 38.9246 3.76953 39.2241 4.08203C39.5366 4.38151 39.7839 4.7526 39.9662 5.19531C40.1485 5.625 40.2462 6.11979 40.2592 6.67969ZM34.7123 6.64062V6.83594C34.7123 7.63021 34.9272 8.22266 35.3569 8.61328C35.7866 8.99089 36.2944 9.17969 36.8803 9.17969C37.5444 9.17969 38.0587 8.97786 38.4233 8.57422C38.7879 8.15755 38.9701 7.53906 38.9701 6.71875C38.9701 6.43229 38.9246 6.15234 38.8334 5.87891C38.7423 5.59245 38.6056 5.33854 38.4233 5.11719C38.254 4.89583 38.0392 4.72005 37.7787 4.58984C37.5183 4.44661 37.2123 4.375 36.8608 4.375C36.5483 4.375 36.2618 4.4401 36.0014 4.57031C35.741 4.70052 35.5131 4.8763 35.3178 5.09766C35.1355 5.30599 34.9923 5.54688 34.8881 5.82031C34.7839 6.08073 34.7254 6.35417 34.7123 6.64062ZM45.142 2.53906V16.0156H43.5405V2.53906H45.142ZM42.3686 12.2266V13.8281H31.8608V12.2266H42.3686Z" fill="#433232"/>
<path d="M60.5575 5.39062H57.2762V7.14844L60.9872 10.2734L60.2059 11.1328L56.6903 8.39844L53.8778 11.9922L52.9012 11.0547L55.9481 7.1875V5.39062H52.784V4.14062H55.9481V1.64062H57.2762V4.17969H60.5575V5.39062ZM65.4012 2.65625V11.7578H64.1512V7.61719H60.5184V6.36719H64.0731V2.69531L65.4012 2.65625ZM57.6669 17.3438L60.9481 14.7266L61.2215 12.0312H62.5497L62.3153 14.6875L65.7919 17.4219L65.0106 18.3984L61.6512 15.8984L58.6434 18.3594L57.6669 17.3438Z" fill="#433232"/>
<path d="M75.2698 10.4688H78.6683L78.3948 6.99219L74.9964 7.26562L75.2698 10.4688ZM73.9808 11.3281L73.3167 2.26562L74.6058 2.10938L74.9573 5.9375H78.3167L78.0042 2.10938L79.2933 1.99219L79.5472 5.58594H84.5667V1.40625H85.8558V13.6328H84.6448V6.75781H79.6448L79.9964 11.6016L74.6058 11.9531L73.9808 11.3281ZM78.5901 17.7734V12.9688H79.9573V17.0703H86.6761V18.2812H79.137L78.5901 17.7734Z" fill="#433232"/>
<path d="M92.0986 6.17188V9.02344L93.0361 10.4688L93.6221 9.0625V6.17188H92.0986ZM92.4502 14.5703L91.3564 13.8672L92.4111 11.7188L91.4736 10.4297L89.5596 14.4531L88.583 13.7891L90.8096 9.0625V6.17188H88.8564V4.88281H96.6689V6.13281H94.9893V9.02344L97.6846 13.4766L96.7861 14.2969L94.3643 10.4297L92.4502 14.5703ZM102.216 4.14062H103.544V16.6016H102.216V10.0781H100.458V16.4453H98.9736V4.17969H100.458V8.71094H102.216V4.14062Z" fill="#433232"/>
<path d="M110.717 10.1562L109.819 9.45312V2.53906H116.694V3.86719H111.147V8.86719H117.084V10.1953L110.717 10.1562ZM119.936 1.36719H121.264V5.54688H124.311V6.875H121.264V12.9297H119.858L119.936 1.36719ZM114.116 17.5V12.9297L115.444 13.1641V16.7578H122.514L122.592 18.0078H114.663L114.116 17.5Z" fill="#433232"/>
<path d="M128.913 14.1016L127.702 13.7891L130.398 4.375H125.515V2.89062H131.335L131.843 4.10156L131.53 5.19531H134.773V2.96875H136.14V14.0625H134.851V10.3906H130.007L128.913 14.1016ZM131.14 6.52344L130.398 9.0625H134.851V6.52344H131.14ZM138.171 2.5H139.499V14.5703H138.171V2.5Z" fill="#433232"/>
<path d="M145.625 8.20312L144.687 7.38281V1.67969H146.015V6.95312H152.695V8.16406L145.625 8.20312ZM155.508 11.25H141.758L141.836 10.1562H155.469L155.508 11.25ZM145.156 18.3594L144.297 17.6953V13.2812H145.508V17.0312L154.375 17.2266C154.375 17.487 154.375 17.6888 154.375 17.832C154.388 17.9883 154.394 18.1055 154.394 18.1836C154.394 18.2617 154.394 18.3203 154.394 18.3594C154.407 18.3984 154.414 18.4375 154.414 18.4766L145.156 18.3594Z" fill="#433232"/>
<path d="M161.9 12.7734L164.986 8.00781V3.67188H166.548V7.96875L169.947 12.6172L169.048 13.5938L165.728 9.375L162.954 13.6719L161.9 12.7734ZM168.267 8.4375V7.10938H171.939V2.77344H173.306V15.0391L172.017 15.1172V8.4375H168.267ZM175.22 2.30469H176.548V15.5469H175.22V2.30469Z" fill="#433232"/>
<path d="M184.034 10.1562L183.135 9.45312V2.53906H190.01V3.86719H184.464V8.86719H190.401V10.1953L184.034 10.1562ZM193.253 1.36719H194.581V5.54688H197.628V6.875H194.581V12.9297H193.175L193.253 1.36719ZM187.432 17.5V12.9297L188.76 13.1641V16.7578H195.831L195.909 18.0078H187.979L187.432 17.5Z" fill="#433232"/>
<path d="M202.23 14.1016L201.019 13.7891L203.714 4.375H198.831V2.89062H204.652L205.16 4.10156L204.847 5.19531H208.089V2.96875H209.456V14.0625H208.167V10.3906H203.324L202.23 14.1016ZM204.456 6.52344L203.714 9.0625H208.167V6.52344H204.456ZM211.488 2.5H212.816V14.5703H211.488V2.5Z" fill="#433232"/>
<path d="M218.238 2.07031H225.973V6.875H218.942V9.60938H226.754V10.6641H222.711V14.4531H228.824V15.8984H215.152V14.2969H221.442V10.8008H218.512L217.574 10.0391V5.625H224.645V3.28125H218.238V2.07031Z" fill="#433232"/>
<path d="M243.576 11.2109V12.4609H235.841L235.295 11.6406V3.63281H236.623V11.0156L243.576 11.2109ZM245.373 15.2344V1.875H246.896V6.28906H250.255V7.57812H246.818V15.2344H245.373Z" fill="#433232"/>
<path d="M253.295 7.34375L252.358 6.52344V1.13281H253.647V6.13281H259.662V7.30469L253.295 7.34375ZM256.928 9.88281V12.5781H255.639V9.88281H251.733V8.75H260.444V9.76562L256.928 9.88281ZM263.451 12.1094V0H264.506V12.0703L263.451 12.1094ZM263.373 17.6953V16.0156H256.069V17.8125L263.373 17.6953ZM254.858 13.5547H256.069V15H263.256V13.5156L264.506 13.4375V18.8672H255.678L254.858 18.4766V13.5547Z" fill="#433232"/>
<path d="M276.14 10.4297V11.6797H268.405L267.858 10.8594V2.85156H269.187V10.2344L276.14 10.4297ZM278.601 14.4141V1.05469H280.202V14.4141H278.601Z" fill="#433232"/>
<path d="M290.742 11.2109V12.5H283.515L282.929 11.7578V3.78906H289.687V5.23438H284.297V11.0938L290.742 11.2109ZM294.648 15.1953H293.203V1.83594H294.726V7.85156H298.086V9.14062H294.648V15.1953Z" fill="#433232"/>
<path d="M301.399 13.5938L300.344 15.0391L298.704 13.3594L299.797 12.0312L301.399 13.5938Z" fill="#433232"/>
</svg>
