<svg width="56" height="15" viewBox="0 0 56 15" fill="none" xmlns="http://www.w3.org/2000/svg">
<path d="M5.088 1.73029V1.17029C5.088 1.03162 5.104 0.903619 5.136 0.786286C5.15733 0.679619 5.19467 0.572953 5.248 0.466285C5.312 0.348952 5.40267 0.247619 5.52 0.162286C5.65867 0.0662855 5.824 0.0129522 6.016 0.00228567C6.208 -0.00838086 6.38933 0.0182858 6.56 0.0822856C6.74133 0.146285 6.896 0.247619 7.024 0.386285C7.152 0.524952 7.216 0.690286 7.216 0.882286L7.232 1.73029H8.496C8.57067 1.75162 8.688 1.75695 8.848 1.74629C9.008 1.73562 9.12533 1.73029 9.2 1.73029C9.392 1.73029 9.59467 1.73029 9.808 1.73029C10.0213 1.71962 10.2187 1.73562 10.4 1.77829C10.5813 1.82095 10.736 1.90629 10.864 2.03429C10.992 2.16229 11.0667 2.35962 11.088 2.62629C11.12 2.91429 11.0773 3.13295 10.96 3.28229C10.8533 3.42095 10.704 3.52229 10.512 3.58629C10.3307 3.63962 10.128 3.66629 9.904 3.66629C9.69067 3.65562 9.49333 3.65029 9.312 3.65029L7.36 3.63429L7.376 4.08229C7.376 4.16762 7.376 4.24229 7.376 4.30629C7.376 4.37029 7.38667 4.44495 7.408 4.53029C7.44 4.64762 7.488 4.74895 7.552 4.83429C7.62667 4.90895 7.70133 4.98895 7.776 5.07429C7.936 5.25562 8.11733 5.43695 8.32 5.61829C8.52267 5.78895 8.73067 5.96495 8.944 6.14629C9.168 6.31695 9.38133 6.48762 9.584 6.65829C9.79733 6.82895 9.98933 6.99962 10.16 7.17029C10.3627 7.38362 10.544 7.60762 10.704 7.84229C10.8747 8.07695 10.9173 8.35962 10.832 8.69029C10.768 8.90362 10.6613 9.04762 10.512 9.12229C10.3627 9.18629 10.1973 9.20762 10.016 9.18629C9.84533 9.15429 9.664 9.10095 9.472 9.02629C9.29067 8.94095 9.136 8.85562 9.008 8.77029C8.496 8.43962 8.02133 8.08762 7.584 7.71429C7.14667 7.34095 6.70933 6.95162 6.272 6.54629C6.26133 6.53562 6.17067 6.58895 6 6.70629C5.84 6.82362 5.648 6.97295 5.424 7.15429C5.2 7.32495 4.96533 7.50629 4.72 7.69829C4.48533 7.87962 4.28267 8.03962 4.112 8.17829C3.94133 8.30629 3.728 8.45029 3.472 8.61029C3.216 8.75962 2.95467 8.88229 2.688 8.97829C2.432 9.07429 2.18133 9.12229 1.936 9.12229C1.69067 9.11162 1.49867 9.01029 1.36 8.81829C1.22133 8.60495 1.15733 8.41829 1.168 8.25829C1.17867 8.08762 1.232 7.93295 1.328 7.79429C1.424 7.65562 1.552 7.52229 1.712 7.39429C1.872 7.26629 2.03733 7.13829 2.208 7.01029C2.37867 6.88229 2.57067 6.74362 2.784 6.59429C3.008 6.43429 3.232 6.26895 3.456 6.09829C3.68 5.92762 3.89867 5.75695 4.112 5.58629C4.336 5.40495 4.53867 5.22362 4.72 5.04229C4.86933 4.89295 4.94933 4.75962 4.96 4.64229C4.98133 4.51429 4.992 4.34895 4.992 4.14629L5.008 3.60229H3.152C2.78933 3.62362 2.46933 3.61295 2.192 3.57029C1.94667 3.52762 1.71733 3.45295 1.504 3.34629C1.30133 3.22895 1.18933 3.04762 1.168 2.80229C1.15733 2.68495 1.16267 2.56762 1.184 2.45029C1.20533 2.32229 1.24267 2.21029 1.296 2.11429C1.34933 2.00762 1.424 1.92229 1.52 1.85829C1.616 1.78362 1.728 1.74095 1.856 1.73029C1.93067 1.71962 2.00533 1.71429 2.08 1.71429C2.16533 1.71429 2.256 1.71429 2.352 1.71429C2.384 1.71429 2.45333 1.71429 2.56 1.71429C2.67733 1.71429 2.80533 1.71962 2.944 1.73029C3.08267 1.73029 3.21067 1.73029 3.328 1.73029C3.44533 1.73029 3.52533 1.73029 3.568 1.73029H5.088ZM10.976 11.0583C11.008 11.069 11.04 11.0743 11.072 11.0743C11.104 11.0636 11.136 11.0583 11.168 11.0583C11.3493 11.0796 11.5147 11.117 11.664 11.1703C11.824 11.213 11.9787 11.2983 12.128 11.4263C12.2773 11.5756 12.352 11.7623 12.352 11.9863C12.352 12.1036 12.3307 12.2316 12.288 12.3703C12.256 12.4983 12.208 12.5996 12.144 12.6743C12.0587 12.7596 11.952 12.8236 11.824 12.8663C11.696 12.909 11.5733 12.941 11.456 12.9623C11.3387 12.973 11.232 12.9783 11.136 12.9783C11.0507 12.9783 11.0027 12.9783 10.992 12.9783H2.032C1.97867 12.9783 1.92533 12.9836 1.872 12.9943C1.81867 12.9943 1.76533 12.9943 1.712 12.9943C1.488 13.005 1.248 13.005 0.992 12.9943C0.736 12.973 0.517333 12.8876 0.336 12.7383C0.112 12.5356 0 12.3063 0 12.0503C0 11.8903 0.048 11.725 0.144 11.5543C0.24 11.3836 0.368 11.2663 0.528 11.2023C0.741333 11.117 0.96 11.0743 1.184 11.0743C1.41867 11.0743 1.65333 11.069 1.888 11.0583H1.968C3.01333 11.037 4.07467 11.037 5.152 11.0583L5.136 9.04229C5.136 8.94629 5.152 8.84495 5.184 8.73829C5.20533 8.65295 5.24267 8.56229 5.296 8.46629C5.36 8.37029 5.45067 8.27962 5.568 8.19429C5.70667 8.09829 5.86667 8.03962 6.048 8.01829C6.24 7.99695 6.42133 8.01829 6.592 8.08229C6.76267 8.13562 6.90667 8.23162 7.024 8.37029C7.14133 8.49829 7.2 8.65829 7.2 8.85029L7.216 11.0583C7.70667 11.0476 8.14933 11.0423 8.544 11.0423C8.94933 11.0423 9.39733 11.0476 9.888 11.0583C10.08 11.069 10.2667 11.069 10.448 11.0583C10.6293 11.037 10.8053 11.037 10.976 11.0583Z" fill="black"/>
<path d="M24.6699 12.7383C24.6486 12.8663 24.6326 12.9943 24.6219 13.1223C24.6113 13.2396 24.5846 13.3623 24.5419 13.4903C24.5206 13.533 24.5046 13.5703 24.4939 13.6023C24.4833 13.6343 24.4673 13.6716 24.4459 13.7143C24.3713 13.8636 24.2753 13.981 24.1579 14.0663C23.9126 14.2156 23.6406 14.253 23.3419 14.1783C23.1713 14.1463 23.0326 14.0823 22.9259 13.9863C22.8299 13.901 22.7553 13.789 22.7019 13.6503C22.6593 13.5223 22.6219 13.3943 22.5899 13.2663C22.5686 13.1383 22.5579 13.0263 22.5579 12.9303C22.5579 12.8343 22.5579 12.781 22.5579 12.7703V2.88229C22.5579 2.75429 22.5579 2.61562 22.5579 2.46629C22.5579 2.31695 22.5686 2.16762 22.5899 2.01829C22.6113 1.86895 22.6433 1.73029 22.6859 1.60229C22.7286 1.47429 22.7873 1.37295 22.8619 1.29829C22.9793 1.18095 23.1019 1.11162 23.2299 1.09029C23.3579 1.05829 23.4966 1.04229 23.6459 1.04229C23.8273 1.04229 23.9926 1.09562 24.1419 1.20229C24.3019 1.29829 24.4139 1.43695 24.4779 1.61829C24.5739 1.84229 24.6273 2.07695 24.6379 2.32229C24.6486 2.56762 24.6593 2.81295 24.6699 3.05829V3.13829C24.6913 3.95962 24.6966 4.80229 24.6859 5.66629C24.6753 6.53029 24.6699 7.34629 24.6699 8.11429V12.1623C24.6699 12.2583 24.6699 12.3543 24.6699 12.4503C24.6806 12.5463 24.6806 12.6423 24.6699 12.7383ZM17.1179 11.1703C17.1073 11.0423 17.1019 10.9143 17.1019 10.7863C17.1019 10.6583 17.1019 10.5303 17.1019 10.4023V5.31429C17.1019 5.14362 17.1019 4.97295 17.1019 4.80229C17.1019 4.63162 17.0913 4.45562 17.0699 4.27429C17.0593 4.22095 17.0433 4.14629 17.0219 4.05029C17.0113 3.95429 16.9793 3.89562 16.9259 3.87429C16.8726 3.84229 16.8086 3.83162 16.7339 3.84229C16.6699 3.84229 16.6059 3.83695 16.5419 3.82629C16.4673 3.81562 16.3926 3.81562 16.3179 3.82629C16.2539 3.83695 16.1846 3.83695 16.1099 3.82629H15.3579C15.1766 3.83695 14.9953 3.83695 14.8139 3.82629C14.6326 3.81562 14.4513 3.81562 14.2699 3.82629C14.1846 3.83695 14.1046 3.84229 14.0299 3.84229C13.9659 3.83162 13.8913 3.82629 13.8059 3.82629C13.6886 3.82629 13.5659 3.82095 13.4379 3.81029C13.3099 3.79962 13.1926 3.75695 13.0859 3.68229C12.9366 3.57562 12.8353 3.44229 12.7819 3.28229C12.7286 3.12229 12.7019 2.95695 12.7019 2.78629C12.6913 2.58362 12.7339 2.38095 12.8299 2.17829C12.8833 2.05029 12.9526 1.95962 13.0379 1.90629C13.0913 1.85295 13.1659 1.81029 13.2619 1.77829C13.3686 1.73562 13.4593 1.70362 13.5339 1.68229C13.7579 1.62895 13.9926 1.60229 14.2379 1.60229C14.4833 1.59162 14.7233 1.58629 14.9579 1.58629H17.7419C17.8806 1.60762 18.0246 1.62895 18.1739 1.65029C18.3339 1.66095 18.4779 1.69295 18.6059 1.74629C18.6913 1.77829 18.7713 1.82095 18.8459 1.87429C18.9313 1.92762 19.0006 1.99162 19.0539 2.06629C19.1499 2.21562 19.2033 2.36495 19.2139 2.51429C19.2353 2.66362 19.2566 2.82895 19.2779 3.01029C19.2993 3.30895 19.3099 3.60762 19.3099 3.90629C19.3099 4.19429 19.3099 4.48762 19.3099 4.78629V10.0343C19.3099 10.045 19.3099 10.1303 19.3099 10.2903C19.3206 10.4396 19.3259 10.621 19.3259 10.8343C19.3259 11.037 19.3259 11.2556 19.3259 11.4903C19.3259 11.7143 19.3206 11.9116 19.3099 12.0823C19.2993 12.189 19.2833 12.301 19.2619 12.4183C19.2406 12.5356 19.2033 12.6476 19.1499 12.7543C19.1073 12.861 19.0433 12.957 18.9579 13.0423C18.8726 13.1276 18.7606 13.197 18.6219 13.2503C18.4406 13.325 18.2593 13.3623 18.0779 13.3623C17.9393 13.3623 17.8006 13.3356 17.6619 13.2823C17.5233 13.2183 17.4273 13.1276 17.3739 13.0103C17.2033 12.669 17.1179 12.2903 17.1179 11.8743V11.1703Z" fill="black"/>
<path d="M35.6866 6.14629C35.8466 6.14629 36.0119 6.16229 36.1826 6.19429C36.3533 6.21562 36.5133 6.26895 36.6626 6.35429C36.8119 6.42895 36.9346 6.53562 37.0306 6.67429C37.1266 6.80229 37.1746 6.97829 37.1746 7.20229C37.1746 7.42629 37.0893 7.60229 36.9186 7.73029C36.7479 7.85829 36.5399 7.95429 36.2946 8.01829C36.0493 8.08229 35.7879 8.12495 35.5106 8.14629C35.2439 8.15695 35.0093 8.16229 34.8066 8.16229H32.5506C32.3586 8.16229 32.1613 8.16229 31.9586 8.16229C31.7666 8.16229 31.5799 8.14629 31.3986 8.11429C31.2279 8.08229 31.0733 8.03429 30.9346 7.97029C30.7959 7.89562 30.6839 7.79429 30.5986 7.66629C30.5026 7.52762 30.4333 7.35695 30.3906 7.15429C30.3586 6.94095 30.3319 6.73829 30.3106 6.54629C30.2999 6.34362 30.2946 6.17295 30.2946 6.03429C30.3053 5.88495 30.3106 5.79962 30.3106 5.77829L30.3426 2.89829C30.3426 2.86629 30.3426 2.80762 30.3426 2.72229C30.3426 2.63695 30.3479 2.54629 30.3586 2.45029C30.3693 2.34362 30.3853 2.23695 30.4066 2.13029C30.4279 2.02362 30.4599 1.93829 30.5026 1.87429C30.5986 1.72495 30.6946 1.61295 30.7906 1.53829C30.8973 1.46362 31.0359 1.41562 31.2066 1.39429C31.4199 1.35162 31.7293 1.33029 32.1346 1.33029C32.1666 1.33029 32.2626 1.33029 32.4226 1.33029C32.5826 1.33029 32.7693 1.33562 32.9826 1.34629C33.2066 1.34629 33.4466 1.35162 33.7026 1.36229C33.9586 1.36229 34.1933 1.36762 34.4066 1.37829C34.6306 1.37829 34.8226 1.38362 34.9826 1.39429C35.1426 1.39429 35.2386 1.39429 35.2706 1.39429C35.4093 1.39429 35.5533 1.39962 35.7026 1.41029C35.8519 1.41029 35.9959 1.42629 36.1346 1.45829C36.2733 1.49029 36.4013 1.54362 36.5186 1.61829C36.6466 1.68229 36.7533 1.78362 36.8386 1.92229C36.9559 2.10362 37.0093 2.30095 36.9986 2.51429C36.9986 2.72762 36.9346 2.92495 36.8066 3.10629C36.7426 3.19162 36.6573 3.26095 36.5506 3.31429C36.4439 3.36762 36.3266 3.41029 36.1986 3.44229C36.0706 3.46362 35.9426 3.47962 35.8146 3.49029C35.6973 3.49029 35.5959 3.49029 35.5106 3.49029L32.5346 3.47429L32.5666 6.09829C32.7053 6.10895 32.9186 6.11962 33.2066 6.13029C33.4946 6.14095 33.7986 6.14629 34.1186 6.14629C34.4386 6.14629 34.7426 6.14629 35.0306 6.14629C35.3293 6.14629 35.5479 6.14629 35.6866 6.14629ZM32.9186 13.8583C32.4813 13.8583 32.1293 13.7623 31.8626 13.5703C31.5959 13.389 31.4626 13.1756 31.4626 12.9303V10.6263C31.4413 10.3916 31.4413 10.1516 31.4626 9.90629C31.4839 9.68229 31.5693 9.50095 31.7186 9.36229C31.8786 9.22362 32.0813 9.15429 32.3266 9.15429C32.3799 9.15429 32.4759 9.15962 32.6146 9.17029C32.7533 9.17029 32.8493 9.18095 32.9026 9.20229C33.0413 9.24495 33.1479 9.30895 33.2226 9.39429C33.3079 9.47962 33.3719 9.58095 33.4146 9.69829C33.4573 9.80495 33.4839 9.92229 33.4946 10.0503C33.5053 10.1676 33.5159 10.285 33.5266 10.4023C33.5266 10.445 33.5266 10.5463 33.5266 10.7063C33.5373 10.8556 33.5426 11.021 33.5426 11.2023C33.5533 11.373 33.5586 11.533 33.5586 11.6823C33.5693 11.8316 33.5799 11.9223 33.5906 11.9543C33.6226 11.965 33.7079 11.981 33.8466 12.0023C33.9959 12.013 34.2679 12.0183 34.6626 12.0183C35.0039 12.0183 35.2119 12.013 35.2866 12.0023C35.3719 11.9916 35.4199 11.9863 35.4306 11.9863H40.5026C40.5026 11.9863 40.5346 11.997 40.5986 12.0183C40.6733 12.0396 40.7533 12.077 40.8386 12.1303C40.9239 12.173 41.0039 12.237 41.0786 12.3223C41.1533 12.397 41.2013 12.4876 41.2226 12.5943C41.2759 12.9996 41.2066 13.3143 41.0146 13.5383C40.8866 13.6876 40.7479 13.7783 40.5986 13.8103C40.4493 13.8423 40.3693 13.8583 40.3586 13.8583H32.9186ZM40.7586 6.08229V7.84229C40.7479 7.95962 40.7319 8.08229 40.7106 8.21029C40.6893 8.32762 40.6466 8.44495 40.5826 8.56229C40.5186 8.69029 40.4279 8.79695 40.3106 8.88229C40.2253 8.93562 40.1239 8.97829 40.0066 9.01029C39.8999 9.03162 39.8039 9.04229 39.7186 9.04229C39.6333 9.04229 39.5426 9.03695 39.4466 9.02629C39.3506 9.00495 39.2706 8.97295 39.2066 8.93029C39.0999 8.86629 39.0146 8.78629 38.9506 8.69029C38.8866 8.59429 38.8333 8.50362 38.7906 8.41829C38.7586 8.32229 38.7373 8.24229 38.7266 8.17829C38.7159 8.10362 38.7106 8.06629 38.7106 8.06629V2.30629C38.6999 2.26362 38.7053 2.14629 38.7266 1.95429C38.7479 1.76229 38.7906 1.60229 38.8546 1.47429C38.9079 1.36762 38.9986 1.28229 39.1266 1.21829C39.2653 1.15429 39.4093 1.11162 39.5586 1.09029C39.7399 1.06895 39.9213 1.07962 40.1026 1.12229C40.2839 1.16495 40.4173 1.23429 40.5026 1.33029C40.5666 1.41562 40.6093 1.50095 40.6306 1.58629C40.6626 1.66095 40.6893 1.74095 40.7106 1.82629C40.7426 1.93295 40.7586 2.04495 40.7586 2.16229C40.7693 2.27962 40.7693 2.39695 40.7586 2.51429V4.30629C40.8013 4.30629 40.8866 4.31162 41.0146 4.32229C41.1533 4.32229 41.2973 4.32762 41.4466 4.33829C41.5959 4.33829 41.7346 4.34362 41.8626 4.35429C42.0013 4.36495 42.0973 4.37562 42.1506 4.38629C42.3639 4.42895 42.5133 4.49295 42.5986 4.57829C42.6839 4.65295 42.7373 4.74895 42.7586 4.86629C42.7906 4.98362 42.8066 5.12229 42.8066 5.28229C42.8066 5.43162 42.7746 5.55962 42.7106 5.66629C42.6466 5.77295 42.5826 5.85295 42.5186 5.90629C42.4546 5.95962 42.3799 6.00229 42.2946 6.03429C42.2093 6.05562 42.1133 6.07162 42.0066 6.08229C41.8999 6.08229 41.7666 6.08229 41.6066 6.08229H40.7586Z" fill="black"/>
<path d="M46.7334 11.7303C46.7334 11.5703 46.7334 11.421 46.7334 11.2823C46.7334 11.133 46.7334 10.957 46.7334 10.7543C46.7334 10.5516 46.7281 10.3116 46.7174 10.0343C46.7174 9.75695 46.7174 9.39962 46.7174 8.96229C46.7174 8.52495 46.7174 8.00229 46.7174 7.39429C46.7174 6.77562 46.7174 6.03429 46.7174 5.17029C46.7174 4.98895 46.7174 4.81829 46.7174 4.65829C46.7174 4.48762 46.7068 4.31162 46.6854 4.13029C46.6534 3.93829 46.6054 3.81562 46.5414 3.76229C46.4774 3.70895 46.3494 3.68229 46.1574 3.68229C45.9228 3.68229 45.7148 3.68229 45.5334 3.68229C45.3521 3.68229 45.1761 3.68229 45.0054 3.68229C44.8348 3.68229 44.6588 3.68229 44.4774 3.68229C44.3068 3.68229 44.1201 3.68229 43.9174 3.68229C43.5441 3.68229 43.2614 3.58629 43.0694 3.39429C42.8881 3.20229 42.7974 2.95162 42.7974 2.64229C42.7974 2.40762 42.8614 2.22629 42.9894 2.09829C43.1174 1.95962 43.2827 1.85829 43.4854 1.79429C43.6881 1.73029 43.9121 1.69295 44.1574 1.68229C44.4028 1.66095 44.6481 1.65029 44.8934 1.65029H47.0214C47.0748 1.65029 47.1281 1.65562 47.1814 1.66629C47.2454 1.66629 47.3041 1.66629 47.3574 1.66629C47.6134 1.67695 47.8641 1.73029 48.1094 1.82629C48.1948 1.85829 48.2748 1.90095 48.3494 1.95429C48.4348 2.00762 48.5041 2.07162 48.5574 2.14629C48.6641 2.29562 48.7228 2.43429 48.7334 2.56229C48.7441 2.69029 48.7601 2.84495 48.7814 3.02629C48.7921 3.19695 48.7974 3.42095 48.7974 3.69829C48.8081 3.96495 48.8134 4.18362 48.8134 4.35429C48.8988 4.34362 48.9788 4.33829 49.0534 4.33829C49.1281 4.33829 49.1974 4.33829 49.2614 4.33829H50.4774V2.72229C50.4774 2.58362 50.4774 2.44495 50.4774 2.30629C50.4774 2.15695 50.4934 2.01295 50.5254 1.87429C50.5468 1.82095 50.5628 1.77295 50.5734 1.73029C50.5948 1.68762 50.6161 1.63962 50.6374 1.58629C50.7014 1.47962 50.7654 1.39962 50.8294 1.34629C50.8934 1.28229 50.9841 1.22895 51.1014 1.18629C51.1974 1.15429 51.2934 1.13829 51.3894 1.13829C51.7414 1.13829 52.0081 1.29829 52.1894 1.61829C52.2321 1.68229 52.2641 1.77295 52.2854 1.89029C52.3068 2.00762 52.3227 2.13029 52.3334 2.25829C52.3441 2.37562 52.3494 2.48229 52.3494 2.57829C52.3494 2.66362 52.3494 2.71695 52.3494 2.73829V10.3063C52.3494 11.1063 52.3441 11.6823 52.3334 12.0343C52.3334 12.301 52.3228 12.5143 52.3014 12.6743C52.2908 12.8343 52.2428 13.037 52.1574 13.2823C52.1041 13.4423 52.0134 13.5756 51.8854 13.6823C51.7574 13.789 51.5761 13.8423 51.3414 13.8423C51.2774 13.8423 51.2027 13.8316 51.1174 13.8103C51.0427 13.7996 50.9788 13.773 50.9254 13.7303C50.8188 13.6663 50.7334 13.565 50.6694 13.4263C50.6161 13.277 50.5734 13.1223 50.5414 12.9623C50.5094 12.8023 50.4881 12.6476 50.4774 12.4983C50.4774 12.349 50.4774 12.2316 50.4774 12.1463V10.2583L48.9734 10.2263C48.8988 10.2263 48.8454 10.221 48.8134 10.2103C48.8134 10.221 48.8134 10.285 48.8134 10.4023C48.8241 10.5196 48.8294 10.6636 48.8294 10.8343C48.8294 11.005 48.8294 11.1916 48.8294 11.3943C48.8294 11.5863 48.8241 11.7676 48.8134 11.9383C48.7814 12.3223 48.6588 12.6316 48.4454 12.8663C48.2428 13.101 47.9548 13.2183 47.5814 13.2183C47.3894 13.2183 47.2347 13.1703 47.1174 13.0743C47.0001 12.9783 46.9147 12.8556 46.8614 12.7063C46.8081 12.557 46.7707 12.397 46.7494 12.2263C46.7387 12.045 46.7334 11.8796 46.7334 11.7303ZM55.1654 3.05829C55.1867 3.85829 55.1921 4.67429 55.1814 5.50629C55.1708 6.32762 55.1654 7.11695 55.1654 7.87429V11.8743C55.1654 12.1516 55.1548 12.4183 55.1334 12.6743C55.1228 12.9303 55.0641 13.1703 54.9574 13.3943C54.8934 13.533 54.7921 13.6503 54.6534 13.7463C54.5361 13.821 54.4348 13.8636 54.3494 13.8743C54.2641 13.8956 54.1521 13.8903 54.0134 13.8583C53.8534 13.8263 53.7254 13.757 53.6294 13.6503C53.5334 13.5543 53.4534 13.4423 53.3894 13.3143C53.3361 13.1863 53.2987 13.0476 53.2774 12.8983C53.2667 12.749 53.2614 12.605 53.2614 12.4663V2.89829C53.2614 2.78095 53.2614 2.64762 53.2614 2.49829C53.2614 2.33829 53.2667 2.18895 53.2774 2.05029C53.2987 1.90095 53.3254 1.76229 53.3574 1.63429C53.4001 1.50629 53.4587 1.40495 53.5334 1.33029C53.6507 1.22362 53.7734 1.15962 53.9014 1.13829C54.0294 1.10629 54.1681 1.09029 54.3174 1.09029C54.5308 1.09029 54.6961 1.16495 54.8134 1.31429C54.9308 1.46362 55.0108 1.64495 55.0534 1.85829C55.1068 2.07162 55.1388 2.29029 55.1494 2.51429C55.1601 2.73829 55.1654 2.91962 55.1654 3.05829ZM48.9734 6.22629C48.8988 6.22629 48.8454 6.22095 48.8134 6.21029V8.38629C48.8988 8.37562 48.9788 8.37029 49.0534 8.37029C49.1281 8.37029 49.1974 8.37029 49.2614 8.37029H50.4774V6.25829L48.9734 6.22629Z" fill="black"/>
</svg>
