<svg width="175" height="25" viewBox="0 0 175 25" fill="none" xmlns="http://www.w3.org/2000/svg">
<path d="M14.0004 4.25293H9.41052V5.37598L14.2933 8.8916L13.2191 9.91699L8.72693 6.74316L4.28357 9.96582L3.06287 8.84277L7.75037 5.4248V4.25293H3.30701V2.78809H7.75037V0.688477H9.36169V2.78809H14.0004V4.25293ZM9.80115 13.042V15.0928H14.8793V20.708H4.03943V23.1006H16.3441V24.3701H3.25818L2.4281 23.8818V19.1455H13.2191V16.5088H3.25818V15.0928H8.04333V13.1885H0.0843506L0.182007 11.6748H17.223V13.042H9.80115Z" fill="black"/>
<path d="M19.169 14.0674L23.2706 7.42676V2.9834L24.7354 2.88574V7.18262L30.1065 12.4561L29.2276 13.7256L24.3448 8.98926L20.5362 14.9463L19.169 14.0674ZM32.4503 2.34863H34.1104V7.57324H37.919V9.2334H34.1104V16.8018H32.3526L32.4503 2.34863ZM25.1749 22.5146V16.8018L26.835 17.0947V21.5869H35.6729L35.7706 23.1494H25.8585L25.1749 22.5146Z" fill="black"/>
<path d="M46.3032 9.08691C46.3032 8.43587 46.3846 7.81738 46.5474 7.23145C46.7101 6.64551 46.9706 6.13281 47.3286 5.69336C47.6867 5.25391 48.1424 4.90397 48.6958 4.64355C49.2492 4.38314 49.9165 4.25293 50.6978 4.25293C51.5279 4.25293 52.2114 4.43197 52.7486 4.79004C53.3019 5.13184 53.7414 5.55501 54.0669 6.05957C54.4087 6.56413 54.6447 7.0931 54.7749 7.64648C54.9214 8.19987 54.9947 8.68001 54.9947 9.08691C54.9947 9.51009 54.9295 10.0065 54.7993 10.5762C54.6854 11.1296 54.4657 11.6585 54.1402 12.1631C53.8309 12.6514 53.3915 13.0664 52.8218 13.4082C52.2684 13.75 51.5441 13.9209 50.6489 13.9209C49.8189 13.9209 49.1271 13.7663 48.5738 13.457C48.0204 13.1478 47.5728 12.7572 47.231 12.2852C46.9055 11.8132 46.6695 11.2923 46.523 10.7227C46.3765 10.153 46.3032 9.60775 46.3032 9.08691ZM47.8657 9.08691C47.8657 9.60775 47.939 10.0716 48.0855 10.4785C48.232 10.8691 48.4354 11.2028 48.6958 11.4795C48.9562 11.7562 49.2492 11.9759 49.5747 12.1387C49.9165 12.3014 50.2746 12.391 50.6489 12.4072C51.0558 12.4072 51.4302 12.3258 51.772 12.1631C52.1138 11.984 52.3986 11.748 52.6265 11.4551C52.8706 11.1458 53.0578 10.7959 53.188 10.4053C53.3182 9.99837 53.3833 9.55892 53.3833 9.08691C53.3508 8.15918 53.0985 7.38607 52.6265 6.76758C52.1545 6.13281 51.4953 5.79915 50.6489 5.7666C50.2258 5.7666 49.8433 5.86426 49.5015 6.05957C49.176 6.23861 48.8911 6.48275 48.647 6.79199C48.4029 7.08496 48.2157 7.4349 48.0855 7.8418C47.9553 8.23242 47.882 8.64746 47.8657 9.08691ZM61.6353 2.54395V15.3369H59.8775V2.49512L61.6353 2.54395ZM46.7915 16.9971H63.6372V24.4189H47.7681L47.0357 23.7354L46.7915 16.9971ZM48.6958 18.6572V22.9541H62.0747V18.6572H48.6958Z" fill="black"/>
<path d="M67.927 13.1396H72.175L71.8332 8.79395L67.5852 9.13574L67.927 13.1396ZM66.3157 14.2139L65.4856 2.88574L67.0969 2.69043L67.5364 7.47559H71.7356L71.3449 2.69043L72.9563 2.54395L73.8352 14.5557L67.0969 14.9951L66.3157 14.2139ZM78.7668 2.34863H80.427V7.57324H84.2356V9.2334H80.427V15.3369H78.6692L78.7668 2.34863ZM80.9641 24.2236H79.2063V18.7061H67.1946V17.0947H80.0852L80.9641 18.1201V24.2236Z" fill="black"/>
<path d="M92.9616 13.335L91.8385 12.4561V3.81348H100.432V5.47363H93.4987V11.7236H100.921V13.3838L92.9616 13.335ZM104.485 2.34863H106.145V7.57324H109.954V9.2334H106.145V16.8018H104.387L104.485 2.34863ZM97.2096 22.5146V16.8018L98.8698 17.0947V21.5869H107.708L107.805 23.1494H97.8932L97.2096 22.5146Z" fill="black"/>
<path d="M115.757 18.2666L114.244 17.876L117.613 6.1084H111.509V4.25293H118.785L119.419 5.7666L119.029 7.13379H123.081V4.35059H124.79V18.2178H123.179V13.6279H117.124L115.757 18.2666ZM118.54 8.79395L117.613 11.9678H123.179V8.79395H118.54ZM127.329 3.76465H128.99V18.8525H127.329V3.76465Z" fill="black"/>
<path d="M139.229 8.40332C139.229 8.19173 139.254 7.95573 139.303 7.69531C139.351 7.41862 139.425 7.15007 139.522 6.88965C139.62 6.61296 139.742 6.36068 139.888 6.13281C140.035 5.90495 140.206 5.71777 140.401 5.57129L138.106 5.27832L138.35 3.66699L143.038 4.15527L143.331 0.737305L145.04 0.883789L144.796 4.49707L148.8 4.98535L148.604 6.49902L146.651 6.30371C146.846 6.59668 146.985 6.93848 147.066 7.3291C147.148 7.70345 147.188 8.06152 147.188 8.40332C147.156 9.6403 146.871 10.625 146.334 11.3574C145.797 12.0736 145.089 12.513 144.21 12.6758L144.307 14.2627H149.434V15.874H137.227V14.165H142.598L142.525 12.7002C141.858 12.6188 141.313 12.4479 140.889 12.1875C140.466 11.9271 140.124 11.626 139.864 11.2842C139.62 10.9261 139.449 10.5355 139.351 10.1123C139.254 9.68913 139.205 9.27409 139.205 8.86719C139.205 8.78581 139.205 8.71257 139.205 8.64746C139.205 8.56608 139.213 8.4847 139.229 8.40332ZM140.938 8.40332C140.922 8.4847 140.914 8.55794 140.914 8.62305C140.914 8.68815 140.914 8.75326 140.914 8.81836C140.914 9.59961 141.125 10.1855 141.549 10.5762C141.988 10.9505 142.607 11.1377 143.404 11.1377C144.071 11.1377 144.584 10.8854 144.942 10.3809C145.3 9.8763 145.479 9.21712 145.479 8.40332C145.479 7.57324 145.284 6.94661 144.893 6.52344C144.519 6.08398 143.974 5.86426 143.258 5.86426C142.655 5.86426 142.135 6.05957 141.695 6.4502C141.272 6.84082 141.02 7.49186 140.938 8.40332ZM150.997 16.46V2.00684H152.559V8.8916H156.026V10.5029H152.608V16.5088L150.997 16.46ZM152.413 24.2725H150.802V19.4385H138.79V17.6318H151.534L152.413 18.8525V24.2725Z" fill="black"/>
<path d="M158.07 9.08691C158.07 8.43587 158.151 7.81738 158.314 7.23145C158.493 6.62923 158.762 6.10026 159.12 5.64453C159.494 5.17253 159.958 4.79818 160.511 4.52148C161.081 4.24479 161.764 4.10645 162.562 4.10645C163.441 4.139 164.157 4.34245 164.71 4.7168C165.28 5.09115 165.728 5.53874 166.053 6.05957C166.395 6.56413 166.631 7.10124 166.761 7.6709C166.891 8.22428 166.957 8.69629 166.957 9.08691C166.957 9.52637 166.891 10.0391 166.761 10.625C166.647 11.1947 166.428 11.7399 166.102 12.2607C165.777 12.7816 165.321 13.221 164.735 13.5791C164.165 13.9372 163.425 14.1162 162.513 14.1162C161.699 14.1162 161.008 13.9535 160.438 13.6279C159.885 13.3024 159.429 12.8955 159.071 12.4072C158.729 11.9027 158.477 11.3574 158.314 10.7715C158.151 10.1693 158.07 9.60775 158.07 9.08691ZM159.632 9.08691C159.632 9.13574 159.624 9.18457 159.608 9.2334C159.608 9.28223 159.608 9.32292 159.608 9.35547C159.608 9.8763 159.697 10.332 159.876 10.7227C160.056 11.1133 160.292 11.4388 160.584 11.6992C160.877 11.9596 161.195 12.1631 161.537 12.3096C161.895 12.4398 162.245 12.5049 162.586 12.5049C162.977 12.5049 163.335 12.4235 163.661 12.2607C164.002 12.0817 164.295 11.8376 164.54 11.5283C164.784 11.2191 164.979 10.861 165.125 10.4541C165.272 10.0309 165.345 9.5752 165.345 9.08691C165.329 8.63118 165.248 8.19987 165.101 7.79297C164.971 7.36979 164.784 7.01172 164.54 6.71875C164.295 6.40951 164.002 6.16536 163.661 5.98633C163.319 5.79102 162.936 5.68522 162.513 5.66895C161.683 5.66895 161.008 5.97819 160.487 6.59668C159.966 7.21517 159.681 8.04525 159.632 9.08691ZM173.158 2.54395V17.7783H171.4V2.49512L173.158 2.54395ZM163.587 23.2959V17.3877H165.248V22.3682H174.085L174.183 23.9307H164.271L163.587 23.2959Z" fill="black"/>
</svg>
