<svg width="96" height="15" viewBox="0 0 96 15" fill="none" xmlns="http://www.w3.org/2000/svg">
<path d="M5.092 3.04C5.092 3.04 5.08667 3.12 5.076 3.28C5.076 3.44 5.076 3.62133 5.076 3.824C5.076 4.02667 5.076 4.21333 5.076 4.384C5.08667 4.55467 5.092 4.65067 5.092 4.672C5.14533 4.72533 5.24133 4.816 5.38 4.944C5.51867 5.06133 5.636 5.16267 5.732 5.248C5.83867 5.33333 5.94533 5.42933 6.052 5.536C6.16933 5.632 6.28667 5.73867 6.404 5.856C6.47867 5.93067 6.548 6.00533 6.612 6.08C6.676 6.144 6.73467 6.20267 6.788 6.256C6.99067 6.45867 7.19333 6.67733 7.396 6.912C7.59867 7.14667 7.73733 7.38667 7.812 7.632C7.844 7.728 7.84933 7.83467 7.828 7.952C7.80667 8.06933 7.73733 8.17067 7.62 8.256C7.43867 8.36267 7.24667 8.416 7.044 8.416C6.80933 8.416 6.58533 8.368 6.372 8.272C6.15867 8.176 5.988 8.08 5.86 7.984C5.65733 7.83467 5.47067 7.68 5.3 7.52C5.12933 7.34933 4.95867 7.17867 4.788 7.008C4.67067 6.89067 4.53733 6.75733 4.388 6.608C4.23867 6.448 4.08933 6.30933 3.94 6.192L3.508 6.624C3.43333 6.69867 3.35867 6.77333 3.284 6.848C3.20933 6.912 3.14 6.98133 3.076 7.056C2.93733 7.20533 2.79333 7.36 2.644 7.52C2.49467 7.66933 2.324 7.81333 2.132 7.952C1.69467 8.272 1.284 8.432 0.9 8.432C0.846667 8.432 0.798667 8.432 0.756 8.432C0.724 8.432 0.681333 8.42133 0.628 8.4C0.393333 8.34667 0.238667 8.25067 0.164 8.112C0.0893333 7.99467 0.0626667 7.86133 0.084 7.712C0.116 7.56267 0.164 7.42933 0.228 7.312C0.313333 7.19467 0.409333 7.08267 0.516 6.976C0.622667 6.85867 0.729333 6.74133 0.836 6.624C0.932 6.51733 1.08133 6.368 1.284 6.176C1.49733 5.97333 1.71067 5.77067 1.924 5.568C2.13733 5.35467 2.33467 5.16267 2.516 4.992C2.69733 4.82133 2.80933 4.71467 2.852 4.672V3.04H1.828C1.7 3.04 1.55067 3.04533 1.38 3.056C1.20933 3.056 1.03867 3.04533 0.868 3.024C0.708 3.00267 0.558667 2.96 0.42 2.896C0.281333 2.82133 0.18 2.704 0.116 2.544C0.0626667 2.42667 0.0253333 2.29333 0.004 2.144C-0.00666667 1.99467 0.004 1.856 0.036 1.728C0.0786667 1.57867 0.174667 1.47733 0.324 1.424C0.473333 1.36 0.617333 1.31733 0.756 1.296C0.777333 1.296 0.862667 1.296 1.012 1.296C1.172 1.296 1.34267 1.296 1.524 1.296C1.70533 1.296 1.876 1.296 2.036 1.296C2.196 1.296 2.292 1.29067 2.324 1.28H6.068C6.49467 1.28 6.852 1.30667 7.14 1.36C7.43867 1.41333 7.67867 1.54667 7.86 1.76C7.91333 1.824 7.94533 1.90933 7.956 2.016C7.97733 2.12267 7.97733 2.23467 7.956 2.352C7.94533 2.45867 7.91333 2.56 7.86 2.656C7.81733 2.752 7.75333 2.82133 7.668 2.864C7.58267 2.896 7.48133 2.93333 7.364 2.976C7.24667 3.008 7.14533 3.02933 7.06 3.04C6.91067 3.05067 6.756 3.056 6.596 3.056C6.44667 3.04533 6.29733 3.04 6.148 3.04H5.092ZM11.06 12.096C11.06 12.096 11.092 12.1067 11.156 12.128C11.2307 12.1493 11.3107 12.1867 11.396 12.24C11.4813 12.2827 11.5613 12.3467 11.636 12.432C11.7107 12.5067 11.7587 12.5973 11.78 12.704C11.8333 13.1093 11.764 13.424 11.572 13.648C11.444 13.7973 11.3053 13.888 11.156 13.92C11.0067 13.952 10.9267 13.968 10.916 13.968H2.9C2.46267 13.968 2.12133 13.8987 1.876 13.76C1.63067 13.632 1.508 13.4453 1.508 13.2V10.976C1.508 10.912 1.50267 10.832 1.492 10.736C1.492 10.64 1.492 10.5387 1.492 10.432C1.492 10.3147 1.492 10.208 1.492 10.112C1.50267 10.016 1.508 9.936 1.508 9.872C1.52933 9.648 1.636 9.46667 1.828 9.328C2.02 9.18933 2.23867 9.12 2.484 9.12C2.53733 9.12 2.60133 9.12533 2.676 9.136C2.76133 9.136 2.83067 9.14667 2.884 9.168C3.02267 9.21067 3.13467 9.28533 3.22 9.392C3.30533 9.488 3.36933 9.6 3.412 9.728C3.45467 9.856 3.48133 9.99467 3.492 10.144C3.50267 10.2827 3.51333 10.4107 3.524 10.528C3.524 10.5707 3.524 10.672 3.524 10.832C3.524 10.9813 3.524 11.1467 3.524 11.328C3.524 11.4987 3.524 11.6587 3.524 11.808C3.524 11.9467 3.524 12.032 3.524 12.064C3.556 12.0747 3.64133 12.0907 3.78 12.112C3.92933 12.1227 4.20133 12.128 4.596 12.128C4.93733 12.128 5.24133 12.1227 5.508 12.112C5.77467 12.1013 5.91333 12.096 5.924 12.096H11.06ZM8.9 5.904C8.59067 5.88267 8.31333 5.86667 8.068 5.856C7.82267 5.83467 7.63067 5.71733 7.492 5.504C7.428 5.39733 7.396 5.264 7.396 5.104C7.396 4.944 7.40667 4.80533 7.428 4.688C7.46 4.57067 7.51867 4.47467 7.604 4.4C7.68933 4.31467 7.83867 4.24533 8.052 4.192C8.09467 4.18133 8.19067 4.176 8.34 4.176C8.48933 4.16533 8.64933 4.15467 8.82 4.144C9.00133 4.13333 9.16667 4.128 9.316 4.128C9.46533 4.11733 9.56133 4.112 9.604 4.112V2.416C9.59333 2.29867 9.588 2.18133 9.588 2.064C9.59867 1.94667 9.62 1.82933 9.652 1.712C9.67333 1.62667 9.69467 1.54667 9.716 1.472C9.73733 1.39733 9.78533 1.31733 9.86 1.232C9.94533 1.12533 10.0627 1.05067 10.212 1.008C10.372 0.965333 10.5427 0.954666 10.724 0.976C11.0653 1.02933 11.284 1.16267 11.38 1.376C11.444 1.504 11.4813 1.664 11.492 1.856C11.5133 2.03733 11.524 2.14933 11.524 2.192V8.688H11.508C11.508 8.69867 11.5027 8.736 11.492 8.8C11.4813 8.864 11.46 8.944 11.428 9.04C11.396 9.12533 11.348 9.216 11.284 9.312C11.22 9.408 11.1347 9.488 11.028 9.552C10.8787 9.63733 10.7293 9.68 10.58 9.68C10.3987 9.68 10.2227 9.62133 10.052 9.504C9.924 9.41867 9.83333 9.312 9.78 9.184C9.716 9.06667 9.67333 8.94933 9.652 8.832C9.63067 8.71467 9.61467 8.59733 9.604 8.48V5.904H8.9Z" fill="black"/>
<path d="M13.8796 6.96C14.1249 6.96 14.4076 6.96533 14.7276 6.976C15.0476 6.98667 15.3889 6.99733 15.7516 7.008C15.7622 6.912 15.7676 6.816 15.7676 6.72C15.7676 6.624 15.7676 6.52267 15.7676 6.416C15.6609 6.384 15.5436 6.34133 15.4156 6.288C15.1489 6.18133 14.8982 6.05867 14.6636 5.92C14.4289 5.78133 14.2262 5.62133 14.0556 5.44C13.8849 5.25867 13.7462 5.04533 13.6396 4.8C13.5436 4.55467 13.4956 4.272 13.4956 3.952C13.4956 3.57867 13.5489 3.25333 13.6556 2.976H13.6236C13.3676 2.976 13.1436 2.896 12.9516 2.736C12.7702 2.56533 12.6796 2.35733 12.6796 2.112C12.6796 1.87733 12.7702 1.68 12.9516 1.52C13.1436 1.34933 13.3676 1.264 13.6236 1.264H15.7356V0.736C15.7356 0.533333 15.8262 0.362666 16.0076 0.224C16.1889 0.0746667 16.4076 0 16.6636 0C16.9196 0 17.1382 0.0746667 17.3196 0.224C17.5116 0.362666 17.6076 0.533333 17.6076 0.736V1.264H19.8156C20.0822 1.264 20.3062 1.34933 20.4876 1.52C20.6796 1.68 20.7756 1.87733 20.7756 2.112C20.7756 2.35733 20.6796 2.56533 20.4876 2.736C20.3062 2.896 20.0822 2.976 19.8156 2.976H19.7996C19.8529 3.12533 19.8902 3.28 19.9116 3.44C19.9436 3.6 19.9596 3.77067 19.9596 3.952C19.9596 4.4 19.8582 4.77867 19.6556 5.088C19.4636 5.38667 19.1809 5.66933 18.8076 5.936C18.5196 6.14933 18.2156 6.30933 17.8956 6.416V6.432C17.8849 6.54933 17.8796 6.656 17.8796 6.752C17.8796 6.848 17.8742 6.944 17.8636 7.04C17.9916 7.04 18.0982 7.04 18.1836 7.04C18.2689 7.02933 18.3596 7.024 18.4556 7.024C18.5516 7.01333 18.6689 7.008 18.8076 7.008C18.9462 7.008 19.1382 7.01333 19.3836 7.024C19.5862 7.024 19.7836 7.024 19.9756 7.024C20.1676 7.024 20.3542 7.06667 20.5356 7.152C20.8342 7.29067 20.9836 7.52533 20.9836 7.856C20.9836 8.12267 20.8876 8.36267 20.6956 8.576C20.5462 8.736 20.3596 8.82667 20.1356 8.848C19.9222 8.86933 19.7196 8.86933 19.5276 8.848H13.8796C13.8689 8.848 13.8262 8.848 13.7516 8.848C13.6769 8.848 13.5862 8.83733 13.4796 8.816C13.3836 8.79467 13.2822 8.76267 13.1756 8.72C13.0689 8.66667 12.9836 8.592 12.9196 8.496C12.7916 8.368 12.7276 8.18133 12.7276 7.936C12.7276 7.81867 12.7436 7.72267 12.7756 7.648C12.8182 7.56267 12.8662 7.48267 12.9196 7.408C13.0369 7.26933 13.1916 7.168 13.3836 7.104C13.5756 7.02933 13.7409 6.98133 13.8796 6.96ZM23.6236 11.808C23.6342 11.808 23.6716 11.8187 23.7356 11.84C23.7996 11.8613 23.8689 11.8987 23.9436 11.952C24.0289 11.9947 24.1036 12.0587 24.1676 12.144C24.2422 12.2187 24.2902 12.3093 24.3116 12.416C24.3756 12.8213 24.3116 13.136 24.1196 13.36C24.0022 13.5093 23.8742 13.6 23.7356 13.632C23.5969 13.664 23.5222 13.68 23.5116 13.68H15.1596C14.7542 13.68 14.4342 13.6107 14.1996 13.472C13.9649 13.344 13.8476 13.1573 13.8476 12.912V11.488C13.8262 11.2533 13.8262 11.0133 13.8476 10.768C13.8689 10.544 13.9542 10.3627 14.1036 10.224C14.2529 10.0853 14.4396 10.016 14.6636 10.016C14.7169 10.016 14.7862 10.0213 14.8716 10.032C14.9676 10.032 15.0422 10.0427 15.0956 10.064C15.2342 10.1067 15.3409 10.1707 15.4156 10.256C15.4902 10.3413 15.5489 10.4427 15.5916 10.56C15.6342 10.6667 15.6609 10.784 15.6716 10.912C15.6822 11.0293 15.6929 11.1467 15.7036 11.264C15.7036 11.3493 15.7089 11.44 15.7196 11.536C15.7302 11.6213 15.7462 11.7013 15.7676 11.776C15.7889 11.7867 15.8849 11.8027 16.0556 11.824C16.2369 11.8347 16.5142 11.84 16.8876 11.84C17.2076 11.84 17.4902 11.8347 17.7356 11.824C17.9916 11.8133 18.1249 11.808 18.1356 11.808H23.6236ZM22.0236 2.88C22.0236 2.76267 22.0236 2.62933 22.0236 2.48C22.0236 2.33067 22.0289 2.18667 22.0396 2.048C22.0609 1.89867 22.0929 1.76 22.1356 1.632C22.1782 1.504 22.2316 1.408 22.2956 1.344C22.4129 1.23733 22.5302 1.17333 22.6476 1.152C22.7756 1.12 22.9142 1.104 23.0636 1.104C23.2449 1.104 23.4049 1.15733 23.5436 1.264C23.6929 1.36 23.7996 1.488 23.8636 1.648C23.9489 1.872 23.9969 2.10133 24.0076 2.336C24.0182 2.57067 24.0289 2.80533 24.0396 3.04C24.0396 3.40267 24.0396 3.744 24.0396 4.064C24.0502 4.384 24.0556 4.69867 24.0556 5.008C24.2689 5.008 24.4662 5.01333 24.6476 5.024C24.8396 5.024 24.9942 5.02933 25.1116 5.04C25.2502 5.05067 25.3729 5.104 25.4796 5.2C25.5969 5.296 25.6876 5.41333 25.7516 5.552C25.8156 5.68 25.8476 5.81867 25.8476 5.968C25.8476 6.11733 25.8049 6.24533 25.7196 6.352C25.5702 6.55467 25.3409 6.688 25.0316 6.752C24.7329 6.80533 24.4129 6.832 24.0716 6.832V7.344C24.0716 7.568 24.0556 7.744 24.0236 7.872C23.9916 7.98933 23.9542 8.10667 23.9116 8.224C23.9009 8.256 23.8902 8.288 23.8796 8.32C23.8689 8.352 23.8529 8.38933 23.8316 8.432C23.7569 8.58133 23.6609 8.69333 23.5436 8.768C23.4262 8.84267 23.2982 8.89067 23.1596 8.912C23.0316 8.92267 22.8982 8.91733 22.7596 8.896C22.6102 8.85333 22.4822 8.78933 22.3756 8.704C22.2796 8.61867 22.2049 8.512 22.1516 8.384C22.1089 8.24533 22.0769 8.11733 22.0556 8C22.0342 7.872 22.0236 7.76533 22.0236 7.68C22.0236 7.584 22.0236 7.53067 22.0236 7.52V2.88ZM17.0156 4.816C17.1649 4.784 17.3036 4.75733 17.4316 4.736C17.5596 4.71467 17.6662 4.67733 17.7516 4.624C17.8476 4.56 17.9169 4.48 17.9596 4.384C18.0129 4.27733 18.0396 4.13333 18.0396 3.952C18.0396 3.61067 17.9436 3.37067 17.7516 3.232C17.5596 3.09333 17.3302 3.008 17.0636 2.976H16.2316C15.9969 3.008 15.7996 3.09333 15.6396 3.232C15.4796 3.37067 15.3996 3.61067 15.3996 3.952C15.3996 4.208 15.4422 4.40533 15.5276 4.544C15.6236 4.68267 15.7462 4.77867 15.8956 4.832C16.0556 4.88533 16.2316 4.90667 16.4236 4.896C16.6156 4.87467 16.8129 4.848 17.0156 4.816Z" fill="black"/>
<path d="M35.8156 6.112C35.9756 6.112 36.1409 6.128 36.3116 6.16C36.4823 6.18133 36.6423 6.23467 36.7916 6.32C36.9409 6.39467 37.0636 6.50133 37.1596 6.64C37.2556 6.768 37.3036 6.944 37.3036 7.168C37.3036 7.392 37.2183 7.568 37.0476 7.696C36.8769 7.824 36.6689 7.92 36.4236 7.984C36.1783 8.048 35.9169 8.09067 35.6396 8.112C35.3729 8.12267 35.1383 8.128 34.9356 8.128H32.6796C32.4876 8.128 32.2903 8.128 32.0876 8.128C31.8956 8.128 31.7089 8.112 31.5276 8.08C31.3569 8.048 31.2023 8 31.0636 7.936C30.9249 7.86133 30.8129 7.76 30.7276 7.632C30.6316 7.49333 30.5623 7.32267 30.5196 7.12C30.4876 6.90667 30.4609 6.704 30.4396 6.512C30.4289 6.30933 30.4236 6.13867 30.4236 6C30.4343 5.85067 30.4396 5.76533 30.4396 5.744L30.4716 2.864C30.4716 2.832 30.4716 2.77333 30.4716 2.688C30.4716 2.60267 30.4769 2.512 30.4876 2.416C30.4983 2.30933 30.5143 2.20267 30.5356 2.096C30.5569 1.98933 30.5889 1.904 30.6316 1.84C30.7276 1.69067 30.8236 1.57867 30.9196 1.504C31.0263 1.42933 31.1649 1.38133 31.3356 1.36C31.5489 1.31733 31.8583 1.296 32.2636 1.296C32.2956 1.296 32.3916 1.296 32.5516 1.296C32.7116 1.296 32.8983 1.30133 33.1116 1.312C33.3356 1.312 33.5756 1.31733 33.8316 1.328C34.0876 1.328 34.3223 1.33333 34.5356 1.344C34.7596 1.344 34.9516 1.34933 35.1116 1.36C35.2716 1.36 35.3676 1.36 35.3996 1.36C35.5383 1.36 35.6823 1.36533 35.8316 1.376C35.9809 1.376 36.1249 1.392 36.2636 1.424C36.4023 1.456 36.5303 1.50933 36.6476 1.584C36.7756 1.648 36.8823 1.74933 36.9676 1.888C37.0849 2.06933 37.1383 2.26667 37.1276 2.48C37.1276 2.69333 37.0636 2.89067 36.9356 3.072C36.8716 3.15733 36.7863 3.22667 36.6796 3.28C36.5729 3.33333 36.4556 3.376 36.3276 3.408C36.1996 3.42933 36.0716 3.44533 35.9436 3.456C35.8263 3.456 35.7249 3.456 35.6396 3.456L32.6636 3.44L32.6956 6.064C32.8343 6.07467 33.0476 6.08533 33.3356 6.096C33.6236 6.10667 33.9276 6.112 34.2476 6.112C34.5676 6.112 34.8716 6.112 35.1596 6.112C35.4583 6.112 35.6769 6.112 35.8156 6.112ZM33.0476 13.824C32.6103 13.824 32.2583 13.728 31.9916 13.536C31.7249 13.3547 31.5916 13.1413 31.5916 12.896V10.592C31.5703 10.3573 31.5703 10.1173 31.5916 9.872C31.6129 9.648 31.6983 9.46667 31.8476 9.328C32.0076 9.18933 32.2103 9.12 32.4556 9.12C32.5089 9.12 32.6049 9.12533 32.7436 9.136C32.8823 9.136 32.9783 9.14667 33.0316 9.168C33.1703 9.21067 33.2769 9.27467 33.3516 9.36C33.4369 9.44533 33.5009 9.54667 33.5436 9.664C33.5863 9.77067 33.6129 9.888 33.6236 10.016C33.6343 10.1333 33.6449 10.2507 33.6556 10.368C33.6556 10.4107 33.6556 10.512 33.6556 10.672C33.6663 10.8213 33.6716 10.9867 33.6716 11.168C33.6823 11.3387 33.6876 11.4987 33.6876 11.648C33.6983 11.7973 33.7089 11.888 33.7196 11.92C33.7516 11.9307 33.8369 11.9467 33.9756 11.968C34.1249 11.9787 34.3969 11.984 34.7916 11.984C35.1329 11.984 35.3409 11.9787 35.4156 11.968C35.5009 11.9573 35.5489 11.952 35.5596 11.952H40.6316C40.6316 11.952 40.6636 11.9627 40.7276 11.984C40.8023 12.0053 40.8823 12.0427 40.9676 12.096C41.0529 12.1387 41.1329 12.2027 41.2076 12.288C41.2823 12.3627 41.3303 12.4533 41.3516 12.56C41.4049 12.9653 41.3356 13.28 41.1436 13.504C41.0156 13.6533 40.8769 13.744 40.7276 13.776C40.5783 13.808 40.4983 13.824 40.4876 13.824H33.0476ZM40.8876 6.048V7.808C40.8769 7.92533 40.8609 8.048 40.8396 8.176C40.8183 8.29333 40.7756 8.41067 40.7116 8.528C40.6476 8.656 40.5569 8.76267 40.4396 8.848C40.3543 8.90133 40.2529 8.944 40.1356 8.976C40.0289 8.99733 39.9329 9.008 39.8476 9.008C39.7623 9.008 39.6716 9.00267 39.5756 8.992C39.4796 8.97067 39.3996 8.93867 39.3356 8.896C39.2289 8.832 39.1436 8.752 39.0796 8.656C39.0156 8.56 38.9623 8.46933 38.9196 8.384C38.8876 8.288 38.8663 8.208 38.8556 8.144C38.8449 8.06933 38.8396 8.032 38.8396 8.032V2.272C38.8289 2.22933 38.8343 2.112 38.8556 1.92C38.8769 1.728 38.9196 1.568 38.9836 1.44C39.0369 1.33333 39.1276 1.248 39.2556 1.184C39.3943 1.12 39.5383 1.07733 39.6876 1.056C39.8689 1.03467 40.0503 1.04533 40.2316 1.088C40.4129 1.13067 40.5463 1.2 40.6316 1.296C40.6956 1.38133 40.7383 1.46667 40.7596 1.552C40.7916 1.62667 40.8183 1.70667 40.8396 1.792C40.8716 1.89867 40.8876 2.01067 40.8876 2.128C40.8983 2.24533 40.8983 2.36267 40.8876 2.48V4.272C40.9303 4.272 41.0156 4.27733 41.1436 4.288C41.2823 4.288 41.4263 4.29333 41.5756 4.304C41.7249 4.304 41.8636 4.30933 41.9916 4.32C42.1303 4.33067 42.2263 4.34133 42.2796 4.352C42.4929 4.39467 42.6423 4.45867 42.7276 4.544C42.8129 4.61867 42.8663 4.71467 42.8876 4.832C42.9196 4.94933 42.9356 5.088 42.9356 5.248C42.9356 5.39733 42.9036 5.52533 42.8396 5.632C42.7756 5.73867 42.7116 5.81867 42.6476 5.872C42.5836 5.92533 42.5089 5.968 42.4236 6C42.3383 6.02133 42.2423 6.03733 42.1356 6.048C42.0289 6.048 41.8956 6.048 41.7356 6.048H40.8876Z" fill="black"/>
<path d="M46.8624 11.696C46.8624 11.536 46.8624 11.3867 46.8624 11.248C46.8624 11.0987 46.8624 10.9227 46.8624 10.72C46.8624 10.5173 46.8571 10.2773 46.8464 10C46.8464 9.72267 46.8464 9.36533 46.8464 8.928C46.8464 8.49067 46.8464 7.968 46.8464 7.36C46.8464 6.74133 46.8464 6 46.8464 5.136C46.8464 4.95467 46.8464 4.784 46.8464 4.624C46.8464 4.45333 46.8357 4.27733 46.8144 4.096C46.7824 3.904 46.7344 3.78133 46.6704 3.728C46.6064 3.67467 46.4784 3.648 46.2864 3.648C46.0517 3.648 45.8437 3.648 45.6624 3.648C45.4811 3.648 45.3051 3.648 45.1344 3.648C44.9637 3.648 44.7877 3.648 44.6064 3.648C44.4357 3.648 44.2491 3.648 44.0464 3.648C43.6731 3.648 43.3904 3.552 43.1984 3.36C43.0171 3.168 42.9264 2.91733 42.9264 2.608C42.9264 2.37333 42.9904 2.192 43.1184 2.064C43.2464 1.92533 43.4117 1.824 43.6144 1.76C43.8171 1.696 44.0411 1.65867 44.2864 1.648C44.5317 1.62667 44.7771 1.616 45.0224 1.616H47.1504C47.2037 1.616 47.2571 1.62133 47.3104 1.632C47.3744 1.632 47.4331 1.632 47.4864 1.632C47.7424 1.64267 47.9931 1.696 48.2384 1.792C48.3237 1.824 48.4037 1.86667 48.4784 1.92C48.5637 1.97333 48.6331 2.03733 48.6864 2.112C48.7931 2.26133 48.8517 2.4 48.8624 2.528C48.8731 2.656 48.8891 2.81067 48.9104 2.992C48.9211 3.16267 48.9264 3.38667 48.9264 3.664C48.9371 3.93067 48.9424 4.14933 48.9424 4.32C49.0277 4.30933 49.1077 4.304 49.1824 4.304C49.2571 4.304 49.3264 4.304 49.3904 4.304H50.6064V2.688C50.6064 2.54933 50.6064 2.41067 50.6064 2.272C50.6064 2.12267 50.6224 1.97867 50.6544 1.84C50.6757 1.78667 50.6917 1.73867 50.7024 1.696C50.7237 1.65333 50.7451 1.60533 50.7664 1.552C50.8304 1.44533 50.8944 1.36533 50.9584 1.312C51.0224 1.248 51.1131 1.19467 51.2304 1.152C51.3264 1.12 51.4224 1.104 51.5184 1.104C51.8704 1.104 52.1371 1.264 52.3184 1.584C52.3611 1.648 52.3931 1.73867 52.4144 1.856C52.4357 1.97333 52.4517 2.096 52.4624 2.224C52.4731 2.34133 52.4784 2.448 52.4784 2.544C52.4784 2.62933 52.4784 2.68267 52.4784 2.704V10.272C52.4784 11.072 52.4731 11.648 52.4624 12C52.4624 12.2667 52.4517 12.48 52.4304 12.64C52.4197 12.8 52.3717 13.0027 52.2864 13.248C52.2331 13.408 52.1424 13.5413 52.0144 13.648C51.8864 13.7547 51.7051 13.808 51.4704 13.808C51.4064 13.808 51.3317 13.7973 51.2464 13.776C51.1717 13.7653 51.1077 13.7387 51.0544 13.696C50.9477 13.632 50.8624 13.5307 50.7984 13.392C50.7451 13.2427 50.7024 13.088 50.6704 12.928C50.6384 12.768 50.6171 12.6133 50.6064 12.464C50.6064 12.3147 50.6064 12.1973 50.6064 12.112V10.224L49.1024 10.192C49.0277 10.192 48.9744 10.1867 48.9424 10.176C48.9424 10.1867 48.9424 10.2507 48.9424 10.368C48.9531 10.4853 48.9584 10.6293 48.9584 10.8C48.9584 10.9707 48.9584 11.1573 48.9584 11.36C48.9584 11.552 48.9531 11.7333 48.9424 11.904C48.9104 12.288 48.7877 12.5973 48.5744 12.832C48.3717 13.0667 48.0837 13.184 47.7104 13.184C47.5184 13.184 47.3637 13.136 47.2464 13.04C47.1291 12.944 47.0437 12.8213 46.9904 12.672C46.9371 12.5227 46.8997 12.3627 46.8784 12.192C46.8677 12.0107 46.8624 11.8453 46.8624 11.696ZM55.2944 3.024C55.3157 3.824 55.3211 4.64 55.3104 5.472C55.2997 6.29333 55.2944 7.08267 55.2944 7.84V11.84C55.2944 12.1173 55.2837 12.384 55.2624 12.64C55.2517 12.896 55.1931 13.136 55.0864 13.36C55.0224 13.4987 54.9211 13.616 54.7824 13.712C54.6651 13.7867 54.5637 13.8293 54.4784 13.84C54.3931 13.8613 54.2811 13.856 54.1424 13.824C53.9824 13.792 53.8544 13.7227 53.7584 13.616C53.6624 13.52 53.5824 13.408 53.5184 13.28C53.4651 13.152 53.4277 13.0133 53.4064 12.864C53.3957 12.7147 53.3904 12.5707 53.3904 12.432V2.864C53.3904 2.74667 53.3904 2.61333 53.3904 2.464C53.3904 2.304 53.3957 2.15467 53.4064 2.016C53.4277 1.86667 53.4544 1.728 53.4864 1.6C53.5291 1.472 53.5877 1.37067 53.6624 1.296C53.7797 1.18933 53.9024 1.12533 54.0304 1.104C54.1584 1.072 54.2971 1.056 54.4464 1.056C54.6597 1.056 54.8251 1.13067 54.9424 1.28C55.0597 1.42933 55.1397 1.61067 55.1824 1.824C55.2357 2.03733 55.2677 2.256 55.2784 2.48C55.2891 2.704 55.2944 2.88533 55.2944 3.024ZM49.1024 6.192C49.0277 6.192 48.9744 6.18667 48.9424 6.176V8.352C49.0277 8.34133 49.1077 8.336 49.1824 8.336C49.2571 8.336 49.3264 8.336 49.3904 8.336H50.6064V6.224L49.1024 6.192Z" fill="black"/>
<path d="M64.3111 14.256C64.2257 14.3947 64.0817 14.4853 63.8791 14.528C63.6871 14.5813 63.5111 14.576 63.3511 14.512C63.2017 14.4587 63.0577 14.3733 62.9191 14.256C62.7911 14.1387 62.6684 14.0053 62.5511 13.856C62.4337 13.7067 62.3217 13.552 62.2151 13.392C62.1191 13.2427 62.0337 13.104 61.9591 12.976C61.8204 12.72 61.6924 12.464 61.5751 12.208C61.4684 11.9413 61.3724 11.6693 61.2871 11.392C61.2017 11.1253 61.1271 10.8587 61.0631 10.592C60.9991 10.3147 60.9511 10.0267 60.9191 9.728C60.8764 9.45067 60.8497 9.15733 60.8391 8.848C60.8284 8.528 60.8231 8.21333 60.8231 7.904C60.8231 7.65867 60.8337 7.392 60.8551 7.104C60.8764 6.816 60.9137 6.512 60.9671 6.192C61.0204 5.85067 61.0844 5.52533 61.1591 5.216C61.2337 4.896 61.3191 4.57067 61.4151 4.24C61.5217 3.90933 61.6337 3.58933 61.7511 3.28C61.8684 2.96 62.0071 2.64533 62.1671 2.336C62.2844 2.09067 62.4177 1.83467 62.5671 1.568C62.7271 1.30133 62.9297 1.08267 63.1751 0.912C63.3031 0.837333 63.4577 0.783999 63.6391 0.752C63.8204 0.709333 63.9911 0.698666 64.1511 0.719999C64.3431 0.741333 64.4604 0.794666 64.5031 0.879999C64.5457 0.965333 64.5457 1.06667 64.5031 1.184C64.4711 1.30133 64.4124 1.424 64.3271 1.552C64.2524 1.68 64.1937 1.79733 64.1511 1.904C64.0017 2.29867 63.8631 2.688 63.7351 3.072C63.6071 3.44533 63.5004 3.824 63.4151 4.208C63.1377 5.43467 62.9991 6.66133 62.9991 7.888C62.9991 8.496 63.0311 9.088 63.0951 9.664C63.1377 9.93067 63.1804 10.1973 63.2231 10.464C63.2657 10.72 63.3297 10.9867 63.4151 11.264C63.4791 11.52 63.5484 11.7813 63.6231 12.048C63.7084 12.3147 63.8044 12.5707 63.9111 12.816C63.9751 12.9973 64.0657 13.1947 64.1831 13.408C64.3111 13.632 64.3644 13.8453 64.3431 14.048C64.3431 14.0907 64.3377 14.1227 64.3271 14.144C64.3271 14.176 64.3217 14.2133 64.3111 14.256Z" fill="black"/>
<path d="M66.3458 13.68C66.3351 13.68 66.3191 13.6693 66.2978 13.648C66.1911 13.5627 66.1164 13.44 66.0738 13.28C66.0418 13.1093 66.0258 12.9653 66.0258 12.848C66.0151 12.656 65.9991 12.464 65.9778 12.272C65.9671 12.08 65.9618 11.8933 65.9618 11.712C65.9618 11.4347 65.9618 11.1627 65.9618 10.896C65.9618 10.6293 65.9884 10.3627 66.0418 10.096C66.0738 9.92533 66.1271 9.792 66.2018 9.696C66.2764 9.58933 66.3938 9.504 66.5538 9.44C66.8524 9.32267 67.1511 9.264 67.4498 9.264H74.9858C75.1884 9.27467 75.3964 9.29067 75.6098 9.312C75.8231 9.33333 76.0258 9.38667 76.2178 9.472C76.4311 9.55733 76.5698 9.70133 76.6338 9.904C76.7084 10.096 76.7564 10.2987 76.7778 10.512C76.7884 10.6933 76.7938 10.9067 76.7938 11.152C76.8044 11.3867 76.8044 11.6267 76.7938 11.872C76.7831 12.1173 76.7671 12.3627 76.7458 12.608C76.7244 12.8427 76.6871 13.056 76.6338 13.248C76.6018 13.3653 76.5644 13.4667 76.5218 13.552C76.4791 13.648 76.3938 13.7173 76.2658 13.76C76.1484 13.8027 76.0258 13.8293 75.8978 13.84C75.7804 13.8507 75.6631 13.856 75.5458 13.856L67.2098 13.824C67.0711 13.8133 66.9218 13.808 66.7618 13.808C66.6018 13.808 66.4631 13.7653 66.3458 13.68ZM70.3458 1.296C70.4418 1.296 70.5324 1.296 70.6178 1.296C70.7138 1.296 70.8044 1.30667 70.8898 1.328C71.0391 1.38133 71.1831 1.44533 71.3218 1.52C71.4711 1.59467 71.5938 1.696 71.6898 1.824C71.7858 1.96267 71.8604 2.13867 71.9138 2.352C71.9671 2.55467 71.9938 2.74133 71.9938 2.912C71.9938 3.37067 71.9991 3.82933 72.0098 4.288C72.0204 4.74667 72.0151 5.20533 71.9938 5.664C71.9938 5.81333 71.9938 5.97333 71.9938 6.144C71.9938 6.304 71.9884 6.46933 71.9778 6.64C71.9778 6.8 71.9618 6.96 71.9298 7.12C71.8978 7.26933 71.8498 7.408 71.7858 7.536C71.7004 7.68533 71.5884 7.80267 71.4498 7.888C71.3111 7.97333 71.1618 8.02667 71.0018 8.048C70.8524 8.06933 70.7031 8.05333 70.5538 8C70.4044 7.94667 70.2871 7.84533 70.2018 7.696C70.1058 7.536 70.0364 7.36533 69.9938 7.184C69.9511 6.992 69.9244 6.79467 69.9138 6.592C69.9031 6.38933 69.9031 6.18667 69.9138 5.984C69.9244 5.78133 69.9298 5.58933 69.9298 5.408C69.9298 5.14133 69.9244 4.864 69.9138 4.576C69.9138 4.288 69.9031 4.01067 69.8818 3.744C69.8711 3.616 69.8391 3.52533 69.7858 3.472C69.7324 3.408 69.6684 3.36533 69.5938 3.344C69.5191 3.32267 69.4338 3.312 69.3378 3.312C69.2418 3.312 69.1404 3.30667 69.0338 3.296C68.9271 3.296 68.8524 3.296 68.8098 3.296C68.7671 3.296 68.7298 3.296 68.6978 3.296C68.6658 3.296 68.6284 3.30133 68.5858 3.312C68.5431 3.312 68.4684 3.312 68.3618 3.312H67.6738C67.3324 3.312 66.9751 3.30667 66.6018 3.296C66.2284 3.28533 65.8444 3.25333 65.4498 3.2C65.3004 3.17867 65.1884 3.12 65.1138 3.024C65.0498 2.928 65.0071 2.816 64.9858 2.688C64.9538 2.56 64.9431 2.42667 64.9538 2.288C64.9538 2.14933 64.9644 2.032 64.9858 1.936C65.0284 1.73333 65.1404 1.57333 65.3218 1.456C65.4391 1.37067 65.5618 1.328 65.6898 1.328C65.8284 1.31733 65.9671 1.30667 66.1058 1.296C66.2551 1.27467 66.4044 1.26933 66.5538 1.28C66.7031 1.29067 66.8524 1.296 67.0018 1.296H70.3458ZM76.5698 2.48C76.5698 2.46933 76.5698 2.53333 76.5698 2.672C76.5698 2.81067 76.5698 2.976 76.5698 3.168C76.5698 3.34933 76.5698 3.53067 76.5698 3.712C76.5698 3.89333 76.5698 4.02133 76.5698 4.096C76.6124 4.096 76.6924 4.10133 76.8098 4.112C76.9271 4.112 77.0498 4.11733 77.1778 4.128C77.3058 4.128 77.4284 4.13333 77.5458 4.144C77.6631 4.15467 77.7484 4.16533 77.8018 4.176C78.0151 4.21867 78.1644 4.28267 78.2498 4.368C78.3351 4.44267 78.3884 4.53867 78.4098 4.656C78.4418 4.77333 78.4578 4.912 78.4578 5.072C78.4578 5.22133 78.4258 5.34933 78.3618 5.456C78.2338 5.66933 78.0418 5.792 77.7858 5.824C77.5298 5.84533 77.2471 5.86133 76.9378 5.872H76.5698V7.136C76.5591 7.25333 76.5431 7.376 76.5218 7.504C76.5004 7.62133 76.4578 7.73867 76.3938 7.856C76.3298 7.984 76.2391 8.09067 76.1218 8.176C75.9724 8.28267 75.7964 8.336 75.5938 8.336C75.4124 8.336 75.2631 8.29867 75.1458 8.224C75.0391 8.16 74.9538 8.08 74.8898 7.984C74.8258 7.888 74.7724 7.79733 74.7298 7.712C74.6978 7.616 74.6764 7.536 74.6658 7.472C74.6551 7.39733 74.6498 7.36 74.6498 7.36V2.272C74.6391 2.22933 74.6444 2.112 74.6658 1.92C74.6871 1.728 74.7298 1.568 74.7938 1.44C74.9004 1.216 75.1138 1.088 75.4338 1.056C75.8284 1.00267 76.1218 1.08267 76.3138 1.296C76.3778 1.38133 76.4204 1.46667 76.4418 1.552C76.4738 1.62667 76.5004 1.70667 76.5218 1.792C76.5538 1.89867 76.5698 2.01067 76.5698 2.128C76.5804 2.24533 76.5804 2.36267 76.5698 2.48ZM67.8658 11.808C67.8658 11.8613 67.8658 11.9147 67.8658 11.968C67.8764 12.0107 67.8978 12.0427 67.9298 12.064C67.9511 12.0853 67.9831 12.1013 68.0258 12.112C68.0791 12.112 68.1324 12.112 68.1858 12.112C68.2391 12.112 68.3031 12.1067 68.3778 12.096H73.3858C73.5351 12.1067 73.6791 12.1173 73.8178 12.128C73.9351 12.1387 74.0578 12.144 74.1858 12.144C74.3138 12.144 74.4311 12.1333 74.5378 12.112C74.6444 12.1013 74.7084 12.0747 74.7298 12.032C74.7511 11.9787 74.7671 11.904 74.7778 11.808C74.7884 11.7227 74.7938 11.6267 74.7938 11.52C74.7938 11.4027 74.7618 11.3013 74.6978 11.216C74.6231 11.1307 74.5164 11.088 74.3778 11.088C74.2498 11.0773 74.1324 11.0773 74.0258 11.088H69.5778C69.3431 11.0667 69.1138 11.0613 68.8898 11.072C68.6658 11.072 68.4364 11.0773 68.2018 11.088C68.1164 11.088 68.0471 11.0933 67.9938 11.104C67.9511 11.104 67.9191 11.152 67.8978 11.248C67.8764 11.3227 67.8658 11.3973 67.8658 11.472C67.8658 11.536 67.8658 11.6 67.8658 11.664C67.8764 11.6853 67.8764 11.7067 67.8658 11.728C67.8658 11.7493 67.8658 11.776 67.8658 11.808Z" fill="black"/>
<path d="M81.9953 5.392C81.7927 5.53067 81.59 5.68 81.3873 5.84C81.1953 6 80.9607 6.10667 80.6833 6.16C80.5873 6.18133 80.486 6.20267 80.3793 6.224C80.2833 6.24533 80.1873 6.25067 80.0913 6.24C79.9953 6.22933 79.8993 6.20267 79.8033 6.16C79.718 6.10667 79.638 6.02133 79.5633 5.904C79.478 5.776 79.43 5.65867 79.4193 5.552C79.4193 5.43467 79.4407 5.328 79.4833 5.232C79.5367 5.136 79.6007 5.04533 79.6753 4.96C79.75 4.87467 79.83 4.79467 79.9153 4.72C80.2353 4.432 80.566 4.13333 80.9073 3.824C81.2593 3.504 81.6167 3.22133 81.9793 2.976C82.0967 2.90133 82.23 2.8 82.3793 2.672C82.5393 2.53333 82.694 2.4 82.8433 2.272C83.014 2.12267 83.19 1.968 83.3713 1.808C83.35 1.65867 83.3447 1.51467 83.3553 1.376C83.366 1.25867 83.3927 1.136 83.4353 1.008C83.478 0.869333 83.558 0.757333 83.6753 0.672C83.814 0.576 84.0007 0.512 84.2353 0.48C84.47 0.447999 84.6727 0.453333 84.8433 0.495999C85.0887 0.56 85.2487 0.661333 85.3233 0.799999C85.4087 0.938666 85.4673 1.104 85.4993 1.296C85.5207 1.456 85.5527 1.60533 85.5953 1.744C85.638 1.88267 85.718 2.02133 85.8353 2.16C85.9207 2.256 86.0273 2.352 86.1553 2.448C86.294 2.544 86.4167 2.63467 86.5233 2.72C86.8967 3.04 87.2593 3.33867 87.6113 3.616C87.974 3.89333 88.3473 4.192 88.7313 4.512C88.8593 4.608 88.966 4.736 89.0513 4.896C89.1473 5.04533 89.2113 5.2 89.2433 5.36C89.2753 5.50933 89.2647 5.65867 89.2113 5.808C89.1687 5.94667 89.0673 6.05867 88.9073 6.144C88.598 6.26133 88.2993 6.256 88.0113 6.128C87.734 5.98933 87.494 5.82933 87.2913 5.648C87.078 5.488 86.8327 5.328 86.5553 5.168C86.278 4.99733 86.038 4.82133 85.8353 4.64L84.4113 3.616C84.262 3.73333 84.1287 3.84 84.0113 3.936C83.9047 4.02133 83.8033 4.096 83.7073 4.16C83.622 4.224 83.5687 4.26667 83.5473 4.288C83.3127 4.46933 83.0567 4.656 82.7793 4.848C82.5127 5.02933 82.2513 5.21067 81.9953 5.392ZM89.0513 7.04C89.2327 7.05067 89.414 7.07733 89.5953 7.12C89.7873 7.16267 89.958 7.24267 90.1073 7.36C90.2567 7.47733 90.3313 7.64267 90.3313 7.856C90.3313 7.96267 90.31 8.07467 90.2673 8.192C90.2353 8.30933 90.1873 8.39467 90.1233 8.448C90.038 8.53333 89.926 8.59733 89.7873 8.64C89.6593 8.672 89.5313 8.69867 89.4033 8.72C89.2753 8.73067 89.1633 8.736 89.0673 8.736C88.982 8.736 88.934 8.736 88.9233 8.736L80.3953 8.752C80.15 8.76267 79.894 8.76267 79.6273 8.752C79.3713 8.74133 79.1527 8.66133 78.9713 8.512C78.726 8.33067 78.6033 8.13333 78.6033 7.92C78.6033 7.77067 78.6513 7.62133 78.7473 7.472C78.854 7.312 78.9927 7.20533 79.1633 7.152C79.3873 7.07733 79.6167 7.04533 79.8513 7.056C80.086 7.056 80.326 7.05067 80.5713 7.04C80.8273 7.02933 81.046 7.024 81.2273 7.024C81.4193 7.024 81.6007 7.024 81.7713 7.024C81.9527 7.024 82.1393 7.02933 82.3313 7.04C82.5233 7.04 82.7527 7.04 83.0193 7.04V6.112C83.0193 5.792 83.158 5.57333 83.4353 5.456C83.7127 5.33867 84.0113 5.296 84.3313 5.328C84.6193 5.36 84.838 5.424 84.9873 5.52C85.1473 5.60533 85.2327 5.75467 85.2433 5.968C85.2647 6.11733 85.2753 6.288 85.2753 6.48C85.286 6.672 85.2913 6.85867 85.2913 7.04C85.59 7.04 85.91 7.04 86.2513 7.04C86.5927 7.02933 86.934 7.024 87.2753 7.024C87.6167 7.024 87.942 7.024 88.2513 7.024C88.5607 7.024 88.8273 7.02933 89.0513 7.04ZM88.1073 9.728C88.5447 9.728 88.8807 9.79733 89.1153 9.936C89.3607 10.0747 89.4833 10.2667 89.4833 10.512V11.6C89.4833 11.6533 89.4833 11.76 89.4833 11.92C89.494 12.0693 89.4993 12.2347 89.4993 12.416C89.4993 12.5867 89.4993 12.752 89.4993 12.912C89.4993 13.072 89.494 13.184 89.4833 13.248C89.462 13.472 89.3713 13.6533 89.2113 13.792C89.062 13.9307 88.8647 14 88.6193 14C88.502 14 88.39 13.984 88.2833 13.952C88.134 13.9093 88.0167 13.8453 87.9313 13.76C87.8567 13.6747 87.798 13.5787 87.7553 13.472C87.7233 13.3653 87.6967 13.2533 87.6753 13.136C87.6647 13.008 87.6593 12.8853 87.6593 12.768C87.6593 12.7253 87.654 12.6507 87.6433 12.544C87.6433 12.4267 87.638 12.3093 87.6273 12.192C87.6273 12.0747 87.622 11.9627 87.6113 11.856C87.6113 11.7493 87.606 11.6747 87.5953 11.632C87.5633 11.6213 87.4727 11.6107 87.3233 11.6C87.1847 11.5893 86.918 11.584 86.5233 11.584C86.342 11.584 86.182 11.5893 86.0433 11.6C85.9047 11.6 85.7767 11.6 85.6593 11.6H79.9633C79.9527 11.6 79.91 11.5893 79.8353 11.568C79.7713 11.5467 79.6967 11.5147 79.6113 11.472C79.526 11.4293 79.446 11.3707 79.3713 11.296C79.2967 11.2213 79.254 11.1253 79.2433 11.008C79.1793 10.6133 79.2433 10.2933 79.4353 10.048C79.5633 9.89867 79.702 9.81333 79.8513 9.792C80.0007 9.76 80.0807 9.744 80.0913 9.744L88.1073 9.728Z" fill="black"/>
<path d="M91.5439 14.256C91.5332 14.2133 91.5226 14.176 91.5119 14.144C91.5119 14.1227 91.5119 14.0907 91.5119 14.048C91.4906 13.8453 91.5386 13.632 91.6559 13.408C91.7839 13.1947 91.8799 12.9973 91.9439 12.816C92.0506 12.5707 92.1412 12.3147 92.2159 12.048C92.3012 11.7813 92.3759 11.52 92.4399 11.264C92.5252 10.9867 92.5892 10.72 92.6319 10.464C92.6746 10.1973 92.7172 9.93067 92.7599 9.664C92.8239 9.088 92.8559 8.496 92.8559 7.888C92.8559 6.66133 92.7172 5.43467 92.4399 4.208C92.3546 3.824 92.2479 3.44533 92.1199 3.072C91.9919 2.688 91.8532 2.29867 91.7039 1.904C91.6506 1.79733 91.5866 1.68 91.5119 1.552C91.4372 1.424 91.3786 1.30133 91.3359 1.184C91.3039 1.06667 91.3092 0.965333 91.3519 0.879999C91.3946 0.794666 91.5119 0.741333 91.7039 0.719999C91.8639 0.698666 92.0346 0.709333 92.2159 0.752C92.3972 0.783999 92.5519 0.837333 92.6799 0.912C92.9252 1.08267 93.1226 1.30133 93.2719 1.568C93.4319 1.83467 93.5706 2.09067 93.6879 2.336C93.8479 2.64533 93.9866 2.96 94.1039 3.28C94.2212 3.58933 94.3332 3.90933 94.4399 4.24C94.5359 4.57067 94.6212 4.896 94.6959 5.216C94.7706 5.52533 94.8346 5.85067 94.8879 6.192C94.9412 6.512 94.9786 6.816 94.9999 7.104C95.0212 7.392 95.0319 7.65867 95.0319 7.904C95.0319 8.21333 95.0266 8.528 95.0159 8.848C95.0052 9.15733 94.9786 9.45067 94.9359 9.728C94.9039 10.0267 94.8559 10.3147 94.7919 10.592C94.7279 10.8587 94.6532 11.1253 94.5679 11.392C94.4826 11.6693 94.3812 11.9413 94.2639 12.208C94.1572 12.464 94.0346 12.72 93.8959 12.976C93.8106 13.104 93.7199 13.2427 93.6239 13.392C93.5279 13.552 93.4212 13.7067 93.3039 13.856C93.1866 14.0053 93.0586 14.1387 92.9199 14.256C92.7919 14.3733 92.6532 14.4587 92.5039 14.512C92.3439 14.576 92.1626 14.5813 91.9599 14.528C91.7679 14.4853 91.6292 14.3947 91.5439 14.256Z" fill="black"/>
</svg>
