<svg width="55" height="15" viewBox="0 0 55 15" fill="none" xmlns="http://www.w3.org/2000/svg">
<path d="M1.2 6.576C1.41333 6.576 1.648 6.58133 1.904 6.592C2.17067 6.60267 2.45867 6.61333 2.768 6.624C2.768 6.50667 2.768 6.4 2.768 6.304C2.768 6.19733 2.77333 6.09067 2.784 5.984C2.76267 5.984 2.74667 5.97867 2.736 5.968C2.46933 5.86133 2.21867 5.74933 1.984 5.632C1.74933 5.504 1.54667 5.36 1.376 5.2C1.20533 5.02933 1.06667 4.832 0.96 4.608C0.864 4.384 0.816 4.112 0.816 3.792C0.816 3.472 0.853333 3.2 0.928 2.976C0.672 2.976 0.453333 2.896 0.272 2.736C0.0906667 2.56533 0 2.35733 0 2.112C0 1.87733 0.0906667 1.68 0.272 1.52C0.464 1.34933 0.688 1.264 0.944 1.264H3.056V0.736C3.056 0.533333 3.14667 0.362667 3.328 0.224C3.50933 0.0746667 3.728 0 3.984 0C4.24 0 4.45867 0.0746667 4.64 0.224C4.832 0.362667 4.928 0.533333 4.928 0.736V1.264H7.136C7.40267 1.264 7.62667 1.34933 7.808 1.52C8 1.68 8.096 1.87733 8.096 2.112C8.096 2.35733 8.00533 2.56 7.824 2.72C7.64267 2.88 7.424 2.96533 7.168 2.976C7.2 3.09333 7.22667 3.22133 7.248 3.36C7.26933 3.49867 7.28 3.64267 7.28 3.792C7.28 4.016 7.264 4.21333 7.232 4.384C7.2 4.544 7.14133 4.69333 7.056 4.832C6.98133 4.97067 6.88 5.104 6.752 5.232C6.624 5.34933 6.46933 5.472 6.288 5.6C6.10667 5.73867 5.89333 5.85067 5.648 5.936C5.41333 6.01067 5.16267 6.064 4.896 6.096V6.672C5.09867 6.672 5.25333 6.672 5.36 6.672C5.46667 6.66133 5.568 6.656 5.664 6.656C5.77067 6.64533 5.89867 6.64 6.048 6.64C6.19733 6.64 6.416 6.64533 6.704 6.656C6.90667 6.656 7.104 6.656 7.296 6.656C7.488 6.656 7.67467 6.69867 7.856 6.784C7.99467 6.848 8.10133 6.94933 8.176 7.088C8.26133 7.22667 8.304 7.38133 8.304 7.552C8.304 7.69067 8.27733 7.79733 8.224 7.872C8.17067 7.936 8.10133 8.016 8.016 8.112C7.86667 8.272 7.68 8.36267 7.456 8.384C7.24267 8.40533 7.04 8.40533 6.848 8.384H1.2C1.18933 8.384 1.14667 8.384 1.072 8.384C0.997333 8.384 0.906667 8.37333 0.8 8.352C0.704 8.33067 0.602667 8.29867 0.496 8.256C0.389333 8.20267 0.304 8.128 0.24 8.032C0.176 7.968 0.128 7.904 0.096 7.84C0.064 7.76533 0.048 7.66933 0.048 7.552C0.048 7.43467 0.064 7.33867 0.096 7.264C0.138667 7.17867 0.186667 7.09867 0.24 7.024C0.357333 6.88533 0.512 6.784 0.704 6.72C0.896 6.64533 1.06133 6.59733 1.2 6.576ZM10.832 12.752C11.0027 12.7733 11.152 12.816 11.28 12.88C11.408 12.944 11.4987 13.0613 11.552 13.232C11.68 13.616 11.5413 13.888 11.136 14.048C11.008 14.1013 10.88 14.1333 10.752 14.144C10.624 14.1547 10.5013 14.16 10.384 14.16H2.944C2.73067 14.16 2.50667 14.1547 2.272 14.144C2.048 14.144 1.81867 14.1387 1.584 14.128C1.36 14.1173 1.17333 14.0373 1.024 13.888C0.874667 13.7387 0.789333 13.5413 0.768 13.296L0.72 12.176C0.709333 12.0587 0.709333 11.92 0.72 11.76C0.730667 11.6 0.784 11.4667 0.88 11.36C1.02933 11.2 1.22667 11.0987 1.472 11.056C1.728 11.0133 1.97333 10.992 2.208 10.992C2.35733 10.992 2.60267 10.992 2.944 10.992C3.296 10.992 3.77067 10.9973 4.368 11.008C4.96533 11.008 5.70133 11.008 6.576 11.008C7.46133 11.008 8.512 11.008 9.728 11.008V10.432H1.856C1.74933 10.432 1.65333 10.432 1.568 10.432C1.48267 10.432 1.39733 10.4213 1.312 10.4C1.216 10.3787 1.13067 10.3573 1.056 10.336C0.981333 10.3147 0.917333 10.2613 0.864 10.176C0.714667 9.952 0.677333 9.72267 0.752 9.488C0.784 9.40267 0.832 9.33867 0.896 9.296C0.96 9.24267 1.03467 9.2 1.12 9.168C1.20533 9.136 1.28533 9.11467 1.36 9.104C1.44533 9.09333 1.52 9.08267 1.584 9.072C1.744 9.04 1.90933 9.024 2.08 9.024C2.24 9.024 2.41067 9.024 2.592 9.024C2.77333 9.024 2.992 9.024 3.248 9.024C3.51467 9.024 3.82933 9.02933 4.192 9.04C4.55467 9.04 4.99733 9.04 5.52 9.04C6.05333 9.04 6.672 9.04 7.376 9.04C8.09067 9.04 8.928 9.04 9.888 9.04C10.432 9.04 10.848 9.12533 11.136 9.296C11.424 9.456 11.568 9.72267 11.568 10.096V11.232C11.568 11.3813 11.5307 11.5307 11.456 11.68C11.392 11.8187 11.2747 11.936 11.104 12.032C10.9653 12.1173 10.8267 12.1653 10.688 12.176C10.5493 12.176 10.4107 12.176 10.272 12.176H2.688V12.752H10.832ZM9.344 3.04C9.344 2.92267 9.344 2.78933 9.344 2.64C9.344 2.49067 9.34933 2.34667 9.36 2.208C9.38133 2.05867 9.41333 1.92 9.456 1.792C9.49867 1.664 9.552 1.568 9.616 1.504C9.73333 1.39733 9.85067 1.33333 9.968 1.312C10.096 1.28 10.2347 1.264 10.384 1.264C10.5653 1.264 10.7253 1.31733 10.864 1.424C11.0133 1.52 11.12 1.648 11.184 1.808C11.2693 2.032 11.3173 2.26133 11.328 2.496C11.3387 2.73067 11.3493 2.96533 11.36 3.2C11.36 3.46667 11.36 3.70667 11.36 3.92C11.36 4.13333 11.3653 4.336 11.376 4.528C11.6107 4.528 11.8293 4.53333 12.032 4.544C12.2453 4.544 12.4213 4.54933 12.56 4.56C12.6987 4.57067 12.8213 4.624 12.928 4.72C13.0453 4.816 13.136 4.93333 13.2 5.072C13.264 5.2 13.296 5.33867 13.296 5.488C13.296 5.63733 13.2533 5.76533 13.168 5.872C13.0187 6.08533 12.7733 6.224 12.432 6.288C12.1013 6.34133 11.7547 6.35733 11.392 6.336V6.976C11.392 7.2 11.376 7.376 11.344 7.504C11.312 7.62133 11.2747 7.73867 11.232 7.856C11.2213 7.888 11.2107 7.92 11.2 7.952C11.1893 7.984 11.1733 8.02133 11.152 8.064C11.0773 8.21333 10.9813 8.32533 10.864 8.4C10.7467 8.47467 10.6187 8.52267 10.48 8.544C10.352 8.55467 10.2187 8.54933 10.08 8.528C9.93067 8.48533 9.80267 8.42133 9.696 8.336C9.6 8.25067 9.52533 8.144 9.472 8.016C9.42933 7.87733 9.39733 7.74933 9.376 7.632C9.35467 7.504 9.344 7.39733 9.344 7.312C9.344 7.216 9.344 7.16267 9.344 7.152V3.04ZM3.92 4.496C4.06933 4.50667 4.22933 4.512 4.4 4.512C4.57067 4.50133 4.72533 4.47467 4.864 4.432C5.01333 4.38933 5.13067 4.32 5.216 4.224C5.312 4.11733 5.36 3.97333 5.36 3.792C5.36 3.49333 5.29067 3.29067 5.152 3.184C5.01333 3.06667 4.83733 2.99733 4.624 2.976H3.312C3.12 3.008 2.96 3.08267 2.832 3.2C2.704 3.31733 2.64 3.51467 2.64 3.792C2.65067 3.97333 2.69333 4.112 2.768 4.208C2.84267 4.304 2.93867 4.37867 3.056 4.432C3.17333 4.47467 3.30667 4.50133 3.456 4.512C3.60533 4.512 3.76 4.50667 3.92 4.496Z" fill="black"/>
<path d="M13.4877 8.096C13.3384 8.032 13.2317 7.90933 13.1677 7.728C13.0824 7.51467 13.0664 7.30133 13.1197 7.088C13.1837 6.87467 13.2797 6.672 13.4077 6.48C13.5357 6.288 13.6797 6.10667 13.8397 5.936C14.0104 5.76533 14.1544 5.60533 14.2717 5.456C14.453 5.232 14.6344 5.008 14.8157 4.784C14.997 4.56 15.1784 4.33067 15.3597 4.096C15.4237 4.01067 15.4984 3.92 15.5837 3.824C15.669 3.728 15.749 3.62667 15.8237 3.52C15.909 3.41333 15.9784 3.30667 16.0317 3.2C16.085 3.09333 16.117 2.98133 16.1277 2.864C16.1384 2.68267 16.149 2.50667 16.1597 2.336C16.1704 2.15467 16.2024 1.99467 16.2557 1.856C16.309 1.70667 16.3944 1.58933 16.5117 1.504C16.6397 1.41867 16.821 1.376 17.0557 1.376C17.2264 1.376 17.3917 1.39733 17.5517 1.44C17.7117 1.472 17.829 1.57333 17.9037 1.744C17.9784 1.936 17.9997 2.14933 17.9677 2.384C17.9464 2.608 17.9677 2.82133 18.0317 3.024C18.085 3.20533 18.1757 3.36533 18.3037 3.504C18.4317 3.632 18.5384 3.77067 18.6237 3.92C18.805 4.25067 19.0184 4.544 19.2637 4.8C19.509 5.056 19.7384 5.33333 19.9517 5.632C20.1224 5.856 20.2824 6.09067 20.4317 6.336C20.5917 6.57067 20.6984 6.82667 20.7517 7.104C20.805 7.33867 20.7784 7.54133 20.6717 7.712C20.5757 7.872 20.4424 7.98933 20.2717 8.064C20.101 8.13867 19.9144 8.16533 19.7117 8.144C19.509 8.112 19.333 8.02133 19.1837 7.872C18.789 7.46667 18.4264 7.05067 18.0957 6.624C17.7757 6.18667 17.445 5.744 17.1037 5.296C17.1037 5.296 17.0557 5.34933 16.9597 5.456C16.8637 5.552 16.741 5.68 16.5917 5.84C16.4424 5.98933 16.2824 6.16 16.1117 6.352C15.941 6.53333 15.781 6.70933 15.6317 6.88C15.4824 7.05067 15.349 7.2 15.2317 7.328C15.1144 7.44533 15.045 7.52 15.0237 7.552C14.9064 7.69067 14.7837 7.81333 14.6557 7.92C14.5277 8.02667 14.373 8.10133 14.1917 8.144C14.0744 8.16533 13.9517 8.176 13.8237 8.176C13.7064 8.176 13.5944 8.14933 13.4877 8.096ZM21.6157 5.424C21.3064 5.40267 21.029 5.38667 20.7837 5.376C20.5384 5.35467 20.3464 5.23733 20.2077 5.024C20.1437 4.91733 20.1117 4.77867 20.1117 4.608C20.1117 4.43733 20.1224 4.29333 20.1437 4.176C20.1757 4.05867 20.2344 3.96267 20.3197 3.888C20.405 3.80267 20.5544 3.73333 20.7677 3.68C20.8104 3.66933 20.9117 3.664 21.0717 3.664C21.2424 3.65333 21.4237 3.648 21.6157 3.648C21.8077 3.63733 21.989 3.632 22.1597 3.632C22.3304 3.62133 22.437 3.616 22.4797 3.616V2.576C22.469 2.45867 22.4637 2.34133 22.4637 2.224C22.4744 2.10667 22.4957 1.98933 22.5277 1.872C22.549 1.78667 22.5704 1.70667 22.5917 1.632C22.613 1.55733 22.661 1.47733 22.7357 1.392C22.821 1.28533 22.9384 1.21067 23.0877 1.168C23.2477 1.12533 23.4184 1.11467 23.5997 1.136C23.7597 1.15733 23.9037 1.20533 24.0317 1.28C24.1597 1.344 24.2504 1.42933 24.3037 1.536C24.3677 1.664 24.405 1.824 24.4157 2.016C24.437 2.19733 24.4477 2.30933 24.4477 2.352V7.536H24.4317C24.4317 7.54667 24.4264 7.584 24.4157 7.648C24.405 7.712 24.3837 7.792 24.3517 7.888C24.3197 7.97333 24.2717 8.064 24.2077 8.16C24.1437 8.256 24.0584 8.336 23.9517 8.4C23.8024 8.48533 23.637 8.528 23.4557 8.528C23.2744 8.528 23.0984 8.46933 22.9277 8.352C22.7997 8.26667 22.709 8.16 22.6557 8.032C22.5917 7.91467 22.549 7.79733 22.5277 7.68C22.5064 7.56267 22.4904 7.44533 22.4797 7.328V5.424H21.6157ZM13.9357 11.632C13.9357 11.152 14.0744 10.752 14.3517 10.432C14.6397 10.112 15.0237 9.86133 15.5037 9.68C15.9837 9.488 16.549 9.35467 17.1997 9.28C17.8504 9.20533 18.5437 9.168 19.2797 9.168C20.0157 9.168 20.709 9.19467 21.3597 9.248C22.0104 9.30133 22.5757 9.41867 23.0557 9.6C23.5357 9.77067 23.9144 10.016 24.1917 10.336C24.4797 10.656 24.6237 11.088 24.6237 11.632C24.6237 12.1653 24.4797 12.592 24.1917 12.912C23.9144 13.232 23.5357 13.4773 23.0557 13.648C22.5757 13.8293 22.0104 13.9467 21.3597 14C20.709 14.064 20.0157 14.096 19.2797 14.096C18.5437 14.096 17.8504 14.064 17.1997 14C16.549 13.9467 15.9837 13.8293 15.5037 13.648C15.0237 13.4773 14.6397 13.232 14.3517 12.912C14.0744 12.592 13.9357 12.1653 13.9357 11.632ZM22.4637 11.632C22.4637 11.4507 22.3677 11.3067 22.1757 11.2C21.9837 11.0933 21.733 11.0133 21.4237 10.96C21.125 10.9067 20.7837 10.8747 20.3997 10.864C20.0264 10.8427 19.653 10.832 19.2797 10.832C18.9064 10.832 18.533 10.8427 18.1597 10.864C17.797 10.8747 17.4664 10.9067 17.1677 10.96C16.8797 11.0133 16.645 11.0933 16.4637 11.2C16.2824 11.3067 16.1917 11.4507 16.1917 11.632C16.1917 11.792 16.2824 11.9253 16.4637 12.032C16.645 12.1387 16.8797 12.2187 17.1677 12.272C17.4664 12.3253 17.797 12.3627 18.1597 12.384C18.533 12.4053 18.9064 12.416 19.2797 12.416C19.653 12.416 20.0264 12.416 20.3997 12.416C20.7837 12.416 21.125 12.3947 21.4237 12.352C21.733 12.3093 21.9837 12.2347 22.1757 12.128C22.3677 12.0107 22.4637 11.8453 22.4637 11.632Z" fill="black"/>
<path d="M35.043 6.272C35.203 6.272 35.3683 6.288 35.539 6.32C35.7096 6.34133 35.8696 6.39467 36.019 6.48C36.1683 6.55467 36.291 6.66133 36.387 6.8C36.483 6.928 36.531 7.104 36.531 7.328C36.531 7.552 36.4456 7.728 36.275 7.856C36.1043 7.984 35.8963 8.08 35.651 8.144C35.4056 8.208 35.1443 8.25067 34.867 8.272C34.6003 8.28267 34.3656 8.288 34.163 8.288H31.907C31.715 8.288 31.5176 8.288 31.315 8.288C31.123 8.288 30.9363 8.272 30.755 8.24C30.5843 8.208 30.4296 8.16 30.291 8.096C30.1523 8.02133 30.0403 7.92 29.955 7.792C29.859 7.65333 29.7896 7.48267 29.747 7.28C29.715 7.06667 29.6883 6.864 29.667 6.672C29.6563 6.46933 29.651 6.29867 29.651 6.16C29.6616 6.01067 29.667 5.92533 29.667 5.904L29.699 3.024C29.699 2.992 29.699 2.93333 29.699 2.848C29.699 2.76267 29.7043 2.672 29.715 2.576C29.7256 2.46933 29.7416 2.36267 29.763 2.256C29.7843 2.14933 29.8163 2.064 29.859 2C29.955 1.85067 30.051 1.73867 30.147 1.664C30.2536 1.58933 30.3923 1.54133 30.563 1.52C30.7763 1.47733 31.0856 1.456 31.491 1.456C31.523 1.456 31.619 1.456 31.779 1.456C31.939 1.456 32.1256 1.46133 32.339 1.472C32.563 1.472 32.803 1.47733 33.059 1.488C33.315 1.488 33.5496 1.49333 33.763 1.504C33.987 1.504 34.179 1.50933 34.339 1.52C34.499 1.52 34.595 1.52 34.627 1.52C34.7656 1.52 34.9096 1.52533 35.059 1.536C35.2083 1.536 35.3523 1.552 35.491 1.584C35.6296 1.616 35.7576 1.66933 35.875 1.744C36.003 1.808 36.1096 1.90933 36.195 2.048C36.3123 2.22933 36.3656 2.42667 36.355 2.64C36.355 2.85333 36.291 3.05067 36.163 3.232C36.099 3.31733 36.0136 3.38667 35.907 3.44C35.8003 3.49333 35.683 3.536 35.555 3.568C35.427 3.58933 35.299 3.60533 35.171 3.616C35.0536 3.616 34.9523 3.616 34.867 3.616L31.891 3.6L31.923 6.224C32.0616 6.23467 32.275 6.24533 32.563 6.256C32.851 6.26667 33.155 6.272 33.475 6.272C33.795 6.272 34.099 6.272 34.387 6.272C34.6856 6.272 34.9043 6.272 35.043 6.272ZM32.275 13.984C31.8376 13.984 31.4856 13.888 31.219 13.696C30.9523 13.5147 30.819 13.3013 30.819 13.056V10.752C30.7976 10.5173 30.7976 10.2773 30.819 10.032C30.8403 9.808 30.9256 9.62667 31.075 9.488C31.235 9.34933 31.4376 9.28 31.683 9.28C31.7363 9.28 31.8323 9.28533 31.971 9.296C32.1096 9.296 32.2056 9.30667 32.259 9.328C32.3976 9.37067 32.5043 9.43467 32.579 9.52C32.6643 9.60533 32.7283 9.70667 32.771 9.824C32.8136 9.93067 32.8403 10.048 32.851 10.176C32.8616 10.2933 32.8723 10.4107 32.883 10.528C32.883 10.5707 32.883 10.672 32.883 10.832C32.8936 10.9813 32.899 11.1467 32.899 11.328C32.9096 11.4987 32.915 11.6587 32.915 11.808C32.9256 11.9573 32.9363 12.048 32.947 12.08C32.979 12.0907 33.0643 12.1067 33.203 12.128C33.3523 12.1387 33.6243 12.144 34.019 12.144C34.3603 12.144 34.5683 12.1387 34.643 12.128C34.7283 12.1173 34.7763 12.112 34.787 12.112H39.859C39.859 12.112 39.891 12.1227 39.955 12.144C40.0296 12.1653 40.1096 12.2027 40.195 12.256C40.2803 12.2987 40.3603 12.3627 40.435 12.448C40.5096 12.5227 40.5576 12.6133 40.579 12.72C40.6323 13.1253 40.563 13.44 40.371 13.664C40.243 13.8133 40.1043 13.904 39.955 13.936C39.8056 13.968 39.7256 13.984 39.715 13.984H32.275ZM40.115 6.208V7.968C40.1043 8.08533 40.0883 8.208 40.067 8.336C40.0456 8.45333 40.003 8.57067 39.939 8.688C39.875 8.816 39.7843 8.92267 39.667 9.008C39.5816 9.06133 39.4803 9.104 39.363 9.136C39.2563 9.15733 39.1603 9.168 39.075 9.168C38.9896 9.168 38.899 9.16267 38.803 9.152C38.707 9.13067 38.627 9.09867 38.563 9.056C38.4563 8.992 38.371 8.912 38.307 8.816C38.243 8.72 38.1896 8.62933 38.147 8.544C38.115 8.448 38.0936 8.368 38.083 8.304C38.0723 8.22933 38.067 8.192 38.067 8.192V2.432C38.0563 2.38933 38.0616 2.272 38.083 2.08C38.1043 1.888 38.147 1.728 38.211 1.6C38.2643 1.49333 38.355 1.408 38.483 1.344C38.6216 1.28 38.7656 1.23733 38.915 1.216C39.0963 1.19467 39.2776 1.20533 39.459 1.248C39.6403 1.29067 39.7736 1.36 39.859 1.456C39.923 1.54133 39.9656 1.62667 39.987 1.712C40.019 1.78667 40.0456 1.86667 40.067 1.952C40.099 2.05867 40.115 2.17067 40.115 2.288C40.1256 2.40533 40.1256 2.52267 40.115 2.64V4.432C40.1576 4.432 40.243 4.43733 40.371 4.448C40.5096 4.448 40.6536 4.45333 40.803 4.464C40.9523 4.464 41.091 4.46933 41.219 4.48C41.3576 4.49067 41.4536 4.50133 41.507 4.512C41.7203 4.55467 41.8696 4.61867 41.955 4.704C42.0403 4.77867 42.0936 4.87467 42.115 4.992C42.147 5.10933 42.163 5.248 42.163 5.408C42.163 5.55733 42.131 5.68533 42.067 5.792C42.003 5.89867 41.939 5.97867 41.875 6.032C41.811 6.08533 41.7363 6.128 41.651 6.16C41.5656 6.18133 41.4696 6.19733 41.363 6.208C41.2563 6.208 41.123 6.208 40.963 6.208H40.115Z" fill="black"/>
<path d="M46.0898 11.856C46.0898 11.696 46.0898 11.5467 46.0898 11.408C46.0898 11.2587 46.0898 11.0827 46.0898 10.88C46.0898 10.6773 46.0845 10.4373 46.0738 10.16C46.0738 9.88267 46.0738 9.52533 46.0738 9.088C46.0738 8.65067 46.0738 8.128 46.0738 7.52C46.0738 6.90133 46.0738 6.16 46.0738 5.296C46.0738 5.11467 46.0738 4.944 46.0738 4.784C46.0738 4.61333 46.0631 4.43733 46.0418 4.256C46.0098 4.064 45.9618 3.94133 45.8978 3.888C45.8338 3.83467 45.7058 3.808 45.5138 3.808C45.2791 3.808 45.0711 3.808 44.8898 3.808C44.7085 3.808 44.5325 3.808 44.3618 3.808C44.1911 3.808 44.0151 3.808 43.8338 3.808C43.6631 3.808 43.4765 3.808 43.2738 3.808C42.9005 3.808 42.6178 3.712 42.4258 3.52C42.2445 3.328 42.1538 3.07733 42.1538 2.768C42.1538 2.53333 42.2178 2.352 42.3458 2.224C42.4738 2.08533 42.6391 1.984 42.8418 1.92C43.0445 1.856 43.2685 1.81867 43.5138 1.808C43.7591 1.78667 44.0045 1.776 44.2498 1.776H46.3778C46.4311 1.776 46.4845 1.78133 46.5378 1.792C46.6018 1.792 46.6605 1.792 46.7138 1.792C46.9698 1.80267 47.2205 1.856 47.4658 1.952C47.5511 1.984 47.6311 2.02667 47.7058 2.08C47.7911 2.13333 47.8605 2.19733 47.9138 2.272C48.0205 2.42133 48.0791 2.56 48.0898 2.688C48.1005 2.816 48.1165 2.97067 48.1378 3.152C48.1485 3.32267 48.1538 3.54667 48.1538 3.824C48.1645 4.09067 48.1698 4.30933 48.1698 4.48C48.2551 4.46933 48.3351 4.464 48.4098 4.464C48.4845 4.464 48.5538 4.464 48.6178 4.464H49.8338V2.848C49.8338 2.70933 49.8338 2.57067 49.8338 2.432C49.8338 2.28267 49.8498 2.13867 49.8818 2C49.9031 1.94667 49.9191 1.89867 49.9298 1.856C49.9511 1.81333 49.9725 1.76533 49.9938 1.712C50.0578 1.60533 50.1218 1.52533 50.1858 1.472C50.2498 1.408 50.3405 1.35467 50.4578 1.312C50.5538 1.28 50.6498 1.264 50.7458 1.264C51.0978 1.264 51.3645 1.424 51.5458 1.744C51.5885 1.808 51.6205 1.89867 51.6418 2.016C51.6631 2.13333 51.6791 2.256 51.6898 2.384C51.7005 2.50133 51.7058 2.608 51.7058 2.704C51.7058 2.78933 51.7058 2.84267 51.7058 2.864V10.432C51.7058 11.232 51.7005 11.808 51.6898 12.16C51.6898 12.4267 51.6791 12.64 51.6578 12.8C51.6471 12.96 51.5991 13.1627 51.5138 13.408C51.4605 13.568 51.3698 13.7013 51.2418 13.808C51.1138 13.9147 50.9325 13.968 50.6978 13.968C50.6338 13.968 50.5591 13.9573 50.4738 13.936C50.3991 13.9253 50.3351 13.8987 50.2818 13.856C50.1751 13.792 50.0898 13.6907 50.0258 13.552C49.9725 13.4027 49.9298 13.248 49.8978 13.088C49.8658 12.928 49.8445 12.7733 49.8338 12.624C49.8338 12.4747 49.8338 12.3573 49.8338 12.272V10.384L48.3298 10.352C48.2551 10.352 48.2018 10.3467 48.1698 10.336C48.1698 10.3467 48.1698 10.4107 48.1698 10.528C48.1805 10.6453 48.1858 10.7893 48.1858 10.96C48.1858 11.1307 48.1858 11.3173 48.1858 11.52C48.1858 11.712 48.1805 11.8933 48.1698 12.064C48.1378 12.448 48.0151 12.7573 47.8018 12.992C47.5991 13.2267 47.3111 13.344 46.9378 13.344C46.7458 13.344 46.5911 13.296 46.4738 13.2C46.3565 13.104 46.2711 12.9813 46.2178 12.832C46.1645 12.6827 46.1271 12.5227 46.1058 12.352C46.0951 12.1707 46.0898 12.0053 46.0898 11.856ZM54.5218 3.184C54.5431 3.984 54.5485 4.8 54.5378 5.632C54.5271 6.45333 54.5218 7.24267 54.5218 8V12C54.5218 12.2773 54.5111 12.544 54.4898 12.8C54.4791 13.056 54.4205 13.296 54.3138 13.52C54.2498 13.6587 54.1485 13.776 54.0098 13.872C53.8925 13.9467 53.7911 13.9893 53.7058 14C53.6205 14.0213 53.5085 14.016 53.3698 13.984C53.2098 13.952 53.0818 13.8827 52.9858 13.776C52.8898 13.68 52.8098 13.568 52.7458 13.44C52.6925 13.312 52.6551 13.1733 52.6338 13.024C52.6231 12.8747 52.6178 12.7307 52.6178 12.592V3.024C52.6178 2.90667 52.6178 2.77333 52.6178 2.624C52.6178 2.464 52.6231 2.31467 52.6338 2.176C52.6551 2.02667 52.6818 1.888 52.7138 1.76C52.7565 1.632 52.8151 1.53067 52.8898 1.456C53.0071 1.34933 53.1298 1.28533 53.2578 1.264C53.3858 1.232 53.5245 1.216 53.6738 1.216C53.8871 1.216 54.0525 1.29067 54.1698 1.44C54.2871 1.58933 54.3671 1.77067 54.4098 1.984C54.4631 2.19733 54.4951 2.416 54.5058 2.64C54.5165 2.864 54.5218 3.04533 54.5218 3.184ZM48.3298 6.352C48.2551 6.352 48.2018 6.34667 48.1698 6.336V8.512C48.2551 8.50133 48.3351 8.496 48.4098 8.496C48.4845 8.496 48.5538 8.496 48.6178 8.496H49.8338V6.384L48.3298 6.352Z" fill="black"/>
</svg>
