<svg width="215" height="18" viewBox="0 0 215 18" fill="none" xmlns="http://www.w3.org/2000/svg">
<path d="M9.14062 5.625V3.71094H4.29688L4.49219 5.74219L9.14062 5.625ZM2.73438 0H4.02344L4.25781 2.57812H8.98438L8.78906 0.078125L10.0781 0L10.5078 6.95312H4.0625L3.20312 6.36719L2.73438 0ZM8.16406 10.5859V14.6094H6.91406V10.5859H0L0.078125 9.49219H13.7109V10.4297L8.16406 10.5859ZM3.39844 17.2656L2.53906 16.6016V12.2266H3.75V15.9375L12.6172 16.1328C12.6172 16.3932 12.6172 16.5951 12.6172 16.7383C12.6302 16.8945 12.6367 17.0117 12.6367 17.0898C12.6367 17.168 12.6367 17.2266 12.6367 17.2656C12.6497 17.3047 12.6562 17.3438 12.6562 17.3828L3.39844 17.2656Z" fill="#433232"/>
<path d="M15.8132 1.79688H22.3366V9.80469H16.3991L15.7741 9.0625L15.8132 1.79688ZM21.0476 3.08594H17.1023V8.32031H20.9694L21.0476 3.08594ZM25.8523 0.273438H27.1804V4.45312H30.2273V5.78125H27.1804V11.8359H25.7741L25.8523 0.273438ZM20.0319 16.4062V11.8359L21.3601 12.0703V15.6641H28.4304L28.5085 16.9141H20.5788L20.0319 16.4062Z" fill="#433232"/>
<path d="M40.2592 5.58594C40.2592 6.22396 40.1681 6.77734 39.9858 7.24609C39.8165 7.71484 39.5821 8.10547 39.2826 8.41797C38.9832 8.71745 38.6381 8.94531 38.2475 9.10156C37.8569 9.24479 37.4402 9.31641 36.9975 9.31641C36.3855 9.31641 35.8517 9.22526 35.3959 9.04297C34.9532 8.84766 34.5821 8.59375 34.2826 8.28125C33.9962 7.95573 33.7748 7.58464 33.6186 7.16797C33.4754 6.73828 33.4037 6.28906 33.4037 5.82031C33.4037 5.46875 33.4493 5.07812 33.5405 4.64844C33.6446 4.20573 33.8269 3.78906 34.0873 3.39844C34.3608 3.00781 34.7254 2.68229 35.1811 2.42188C35.6368 2.16146 36.2228 2.03125 36.9389 2.03125C37.3686 2.03125 37.7787 2.11589 38.1694 2.28516C38.573 2.44141 38.9246 2.67578 39.2241 2.98828C39.5366 3.28776 39.7839 3.65885 39.9662 4.10156C40.1485 4.53125 40.2462 5.02604 40.2592 5.58594ZM34.7123 5.54688V5.74219C34.7123 6.53646 34.9272 7.12891 35.3569 7.51953C35.7866 7.89714 36.2944 8.08594 36.8803 8.08594C37.5444 8.08594 38.0587 7.88411 38.4233 7.48047C38.7879 7.0638 38.9701 6.44531 38.9701 5.625C38.9701 5.33854 38.9246 5.05859 38.8334 4.78516C38.7423 4.4987 38.6056 4.24479 38.4233 4.02344C38.254 3.80208 38.0392 3.6263 37.7787 3.49609C37.5183 3.35286 37.2123 3.28125 36.8608 3.28125C36.5483 3.28125 36.2618 3.34635 36.0014 3.47656C35.741 3.60677 35.5131 3.78255 35.3178 4.00391C35.1355 4.21224 34.9923 4.45312 34.8881 4.72656C34.7839 4.98698 34.7254 5.26042 34.7123 5.54688ZM45.142 1.44531V14.9219H43.5405V1.44531H45.142ZM42.3686 11.1328V12.7344H31.8608V11.1328H42.3686Z" fill="#433232"/>
<path d="M56.0262 7.69531L55.2059 6.95312V1.09375H63.2528V2.38281H56.4559V6.40625H63.7997V7.73438L56.0262 7.69531ZM59.1122 11.4844H52.5887V10.0781H66.3387V11.5625H60.4793V16.3672H59.1122V11.4844Z" fill="#433232"/>
<path d="M75.2698 9.375H78.6683L78.3948 5.89844L74.9964 6.17188L75.2698 9.375ZM73.9808 10.2344L73.3167 1.17188L74.6058 1.01562L74.9573 4.84375H78.3167L78.0042 1.01562L79.2933 0.898438L79.5472 4.49219H84.5667V0.3125H85.8558V12.5391H84.6448V5.66406H79.6448L79.9964 10.5078L74.6058 10.8594L73.9808 10.2344ZM78.5901 16.6797V11.875H79.9573V15.9766H86.6761V17.1875H79.137L78.5901 16.6797Z" fill="#433232"/>
<path d="M92.0986 5.07812V7.92969L93.0361 9.375L93.6221 7.96875V5.07812H92.0986ZM92.4502 13.4766L91.3565 12.7734L92.4111 10.625L91.4736 9.33594L89.5596 13.3594L88.583 12.6953L90.8096 7.96875V5.07812H88.8565V3.78906H96.669V5.03906H94.9893V7.92969L97.6846 12.3828L96.7861 13.2031L94.3643 9.33594L92.4502 13.4766ZM102.216 3.04688H103.544V15.5078H102.216V8.98438H100.458V15.3516H98.9736V3.08594H100.458V7.61719H102.216V3.04688Z" fill="#433232"/>
<path d="M118.53 8.00781L119.741 7.92969C119.858 8.4375 119.916 8.88021 119.916 9.25781C119.916 9.80469 119.838 10.4167 119.682 11.0938C119.539 11.7578 119.33 12.3828 119.057 12.9688C119.578 13.099 120.183 13.1641 120.873 13.1641L120.795 14.375C120.34 14.349 119.916 14.3034 119.526 14.2383C119.148 14.1732 118.777 14.0885 118.413 13.9844C117.892 14.7005 117.286 15.2279 116.596 15.5664C115.906 15.918 115.053 16.0938 114.038 16.0938C113.543 16.0938 113.08 16.0286 112.651 15.8984C112.221 15.7682 111.837 15.5599 111.498 15.2734C111.173 14.987 110.913 14.6159 110.717 14.1602C110.535 13.7044 110.444 13.151 110.444 12.5C110.444 11.9922 110.535 11.582 110.717 11.2695C110.9 10.944 111.121 10.612 111.381 10.2734L112.006 9.64844C111.525 9.04948 111.153 8.41797 110.893 7.75391C110.646 7.08984 110.522 6.38672 110.522 5.64453C110.522 5.16276 110.58 4.67448 110.698 4.17969C110.828 3.6849 111.023 3.24219 111.284 2.85156C111.557 2.46094 111.896 2.14193 112.299 1.89453C112.703 1.64714 113.178 1.52344 113.725 1.52344C114.272 1.52344 114.734 1.59505 115.112 1.73828C115.489 1.86849 115.802 2.05078 116.049 2.28516C116.297 2.51953 116.472 2.79948 116.577 3.125C116.694 3.45052 116.752 3.79557 116.752 4.16016C116.752 4.85026 116.629 5.49479 116.381 6.09375C116.147 6.67969 115.86 7.20703 115.522 7.67578C115.196 8.14453 114.858 8.54818 114.506 8.88672C114.168 9.22526 113.901 9.48568 113.705 9.66797C114.291 10.2539 114.936 10.7878 115.639 11.2695C116.342 11.7383 117.045 12.1419 117.748 12.4805C118.009 12.0898 118.224 11.6536 118.393 11.1719C118.562 10.6771 118.647 10.0781 118.647 9.375C118.647 8.95833 118.608 8.5026 118.53 8.00781ZM112.924 8.76953C113.172 8.52214 113.445 8.25521 113.745 7.96875C114.044 7.68229 114.317 7.36328 114.565 7.01172C114.812 6.64714 115.021 6.24349 115.19 5.80078C115.359 5.34505 115.444 4.82422 115.444 4.23828C115.444 3.78255 115.327 3.42448 115.092 3.16406C114.858 2.89062 114.441 2.75391 113.842 2.75391C113.452 2.75391 113.12 2.83854 112.846 3.00781C112.586 3.17708 112.371 3.39844 112.202 3.67188C112.045 3.93229 111.928 4.23177 111.85 4.57031C111.772 4.90885 111.733 5.25391 111.733 5.60547C111.733 6.21745 111.83 6.77734 112.026 7.28516C112.234 7.77995 112.534 8.27474 112.924 8.76953ZM116.967 13.457C116.225 13.1315 115.489 12.7279 114.76 12.2461C114.031 11.7513 113.373 11.1914 112.788 10.5664C112.11 11.2435 111.772 11.9141 111.772 12.5781C111.772 13.3073 112 13.8542 112.455 14.2188C112.911 14.5703 113.484 14.7461 114.174 14.7461C114.578 14.7461 114.982 14.681 115.385 14.5508C115.802 14.4206 116.173 14.2188 116.498 13.9453L116.733 13.7109L116.967 13.457Z" fill="#433232"/>
<path d="M126.758 11.6797L129.844 6.91406V2.57812H131.406V6.875L134.805 11.5234L133.906 12.5L130.586 8.28125L127.812 12.5781L126.758 11.6797ZM133.125 7.34375V6.01562H136.797V1.67969H138.164V13.9453L136.875 14.0234V7.34375H133.125ZM140.078 1.21094H141.406V14.4531H140.078V1.21094Z" fill="#433232"/>
<path d="M150.103 9.375H153.501L153.228 5.89844L149.829 6.17188L150.103 9.375ZM148.814 10.2344L148.15 1.17188L149.439 1.01562L149.79 4.84375H153.15L152.837 1.01562L154.126 0.898438L154.38 4.49219H159.4V0.3125H160.689V12.5391H159.478V5.66406H154.478L154.829 10.5078L149.439 10.8594L148.814 10.2344ZM153.423 16.6797V11.875H154.79V15.9766H161.509V17.1875H153.97L153.423 16.6797Z" fill="#433232"/>
<path d="M166.932 5.07812V7.92969L167.869 9.375L168.455 7.96875V5.07812H166.932ZM167.283 13.4766L166.189 12.7734L167.244 10.625L166.307 9.33594L164.393 13.3594L163.416 12.6953L165.643 7.96875V5.07812H163.689V3.78906H171.502V5.03906H169.822V7.92969L172.518 12.3828L171.619 13.2031L169.197 9.33594L167.283 13.4766ZM177.049 3.04688H178.377V15.5078H177.049V8.98438H175.291V15.3516H173.807V3.08594H175.291V7.61719H177.049V3.04688Z" fill="#433232"/>
<path d="M185.55 9.0625L184.652 8.35938V1.44531H191.527V2.77344H185.98V7.77344H191.917V9.10156L185.55 9.0625ZM194.769 0.273438H196.097V4.45312H199.144V5.78125H196.097V11.8359H194.691L194.769 0.273438ZM188.949 16.4062V11.8359L190.277 12.0703V15.6641H197.347L197.425 16.9141H189.496L188.949 16.4062Z" fill="#433232"/>
<path d="M203.746 13.0078L202.535 12.6953L205.231 3.28125H200.348V1.79688H206.168L206.676 3.00781L206.363 4.10156H209.606V1.875H210.973V12.9688H209.684V9.29688H204.84L203.746 13.0078ZM205.973 5.42969L205.231 7.96875H209.684V5.42969H205.973ZM213.004 1.40625H214.332V13.4766H213.004V1.40625Z" fill="#433232"/>
</svg>
