<svg width="74" height="29" viewBox="0 0 74 29" fill="none" xmlns="http://www.w3.org/2000/svg">
<path d="M3.12 22.62C2 22.62 1.2 22.4 0.72 21.96C0.24 21.52 0 20.89 0 20.07C0 19.67 0.03 18.99 0.09 18.03C0.15 17.05 0.23 15.94 0.33 14.7C0.43 13.46 0.53 12.15 0.63 10.77C0.73 9.39 0.83 8.09 0.93 6.87C1.03 5.65 1.11 4.58 1.17 3.66C1.23 2.74 1.26 2.11 1.26 1.77C1.26 1.47 1.42 1.32 1.74 1.32H3.39C4.51 1.32 5.28 1.54 5.7 1.98C6.14 2.4 6.36 3.03 6.36 3.87C6.36 3.97 6.35 4.06 6.33 4.14C6.33 4.22 6.33 4.31 6.33 4.41L5.34 18.42H10.74C10.86 18.42 10.97 18.46 11.07 18.54C11.17 18.6 11.22 18.7 11.22 18.84L11.1 20.61C11.06 21.21 10.89 21.7 10.59 22.08C10.31 22.44 9.72 22.62 8.82 22.62H3.12Z" fill="white"/>
<path d="M19.7208 22.92C18.3408 22.92 17.1908 22.73 16.2708 22.35C15.3708 21.95 14.6508 21.41 14.1108 20.73C13.5708 20.05 13.1908 19.26 12.9708 18.36C12.7508 17.44 12.6408 16.46 12.6408 15.42C12.6408 14.22 12.7808 13.05 13.0608 11.91C13.3608 10.75 13.8608 9.72 14.5608 8.82C15.2608 7.92 16.1808 7.2 17.3208 6.66C18.4808 6.1 19.9208 5.82 21.6408 5.82C24.1608 5.82 25.9608 6.44 27.0408 7.68C28.1408 8.9 28.6908 10.62 28.6908 12.84C28.6908 13.46 28.6408 14.15 28.5408 14.91C28.4608 15.65 28.2908 16.39 28.0308 17.13C27.7908 17.87 27.4508 18.59 27.0108 19.29C26.5908 19.99 26.0508 20.61 25.3908 21.15C24.7308 21.69 23.9308 22.12 22.9908 22.44C22.0708 22.76 20.9808 22.92 19.7208 22.92ZM21.1308 9.81C20.3708 9.81 19.7608 10.01 19.3008 10.41C18.8608 10.79 18.5208 11.26 18.2808 11.82C18.0608 12.36 17.9108 12.94 17.8308 13.56C17.7708 14.16 17.7408 14.67 17.7408 15.09C17.7408 16.41 17.9508 17.38 18.3708 18C18.7908 18.62 19.3908 18.93 20.1708 18.93C20.8708 18.93 21.4408 18.71 21.8808 18.27C22.3408 17.83 22.6908 17.3 22.9308 16.68C23.1908 16.06 23.3608 15.41 23.4408 14.73C23.5408 14.05 23.5908 13.48 23.5908 13.02C23.5908 12.02 23.4008 11.24 23.0208 10.68C22.6608 10.1 22.0308 9.81 21.1308 9.81Z" fill="white"/>
<path d="M40.7405 19.08C40.2405 19.98 39.6305 20.65 38.9105 21.09C38.1905 21.51 37.2905 21.72 36.2105 21.72C35.3905 21.72 34.6405 21.59 33.9605 21.33C33.2805 21.07 32.7005 20.66 32.2205 20.1C31.7405 19.54 31.3605 18.84 31.0805 18C30.8205 17.14 30.6905 16.12 30.6905 14.94C30.6905 13.98 30.7905 12.97 30.9905 11.91C31.1905 10.83 31.5505 9.84 32.0705 8.94C32.6105 8.04 33.3405 7.3 34.2605 6.72C35.1805 6.12 36.3605 5.82 37.8005 5.82C38.4005 5.82 38.9105 5.89 39.3305 6.03C39.7705 6.15 40.1405 6.32 40.4405 6.54C40.7605 6.76 41.0105 7.02 41.1905 7.32C41.3905 7.62 41.5405 7.94 41.6405 8.28C41.6405 8.3 41.6405 8.23 41.6405 8.07C41.6605 7.89 41.6805 7.69 41.7005 7.47C41.7205 7.25 41.7305 7.04 41.7305 6.84C41.7505 6.62 41.7605 6.48 41.7605 6.42C41.7805 6.22 41.9105 6.12 42.1505 6.12H43.5305C44.5705 6.12 45.3205 6.34 45.7805 6.78C46.2605 7.2 46.5005 8.01 46.5005 9.21C46.5005 9.37 46.4905 9.74 46.4705 10.32C46.4505 10.88 46.4105 11.56 46.3505 12.36C46.3105 13.16 46.2505 14.05 46.1705 15.03C46.0905 15.99 46.0005 16.96 45.9005 17.94C45.8005 18.92 45.6905 19.86 45.5705 20.76C45.4505 21.66 45.3205 22.45 45.1805 23.13C45.0405 23.81 44.8005 24.47 44.4605 25.11C44.1205 25.75 43.6405 26.32 43.0205 26.82C42.4005 27.32 41.6005 27.72 40.6205 28.02C39.6605 28.32 38.4805 28.47 37.0805 28.47C36.0205 28.47 35.0905 28.37 34.2905 28.17C33.5105 27.97 32.8605 27.7 32.3405 27.36C31.8205 27.04 31.4205 26.67 31.1405 26.25C30.8805 25.83 30.7505 25.41 30.7505 24.99C30.7505 24.61 30.8305 24.28 30.9905 24C31.1505 23.72 31.3605 23.49 31.6205 23.31C31.8805 23.13 32.1605 22.99 32.4605 22.89C32.7805 22.81 33.0805 22.77 33.3605 22.77C33.7005 22.77 33.9505 22.87 34.1105 23.07C34.2705 23.27 34.4505 23.49 34.6505 23.73C34.8505 23.99 35.1305 24.22 35.4905 24.42C35.8505 24.62 36.4105 24.72 37.1705 24.72C38.4905 24.72 39.4105 24.23 39.9305 23.25C40.4705 22.29 40.7405 20.9 40.7405 19.08ZM38.2205 17.73C38.9405 17.73 39.5005 17.56 39.9005 17.22C40.3205 16.88 40.6405 16.47 40.8605 15.99C41.0805 15.51 41.2205 15.01 41.2805 14.49C41.3405 13.97 41.3705 13.52 41.3705 13.14C41.3705 11.94 41.1805 11.09 40.8005 10.59C40.4405 10.07 39.8905 9.81 39.1505 9.81C38.4105 9.81 37.8305 10.01 37.4105 10.41C36.9905 10.81 36.6705 11.29 36.4505 11.85C36.2505 12.39 36.1205 12.94 36.0605 13.5C36.0005 14.04 35.9705 14.46 35.9705 14.76C35.9705 15.76 36.1405 16.51 36.4805 17.01C36.8205 17.49 37.4005 17.73 38.2205 17.73Z" fill="white"/>
<path d="M52.2431 22.62C51.6231 22.62 51.1131 22.56 50.7131 22.44C50.3331 22.3 50.0231 22.11 49.7831 21.87C49.5631 21.63 49.4031 21.34 49.3031 21C49.2231 20.64 49.1831 20.23 49.1831 19.77C49.1831 19.47 49.1931 19.05 49.2131 18.51C49.2531 17.95 49.3131 17.19 49.3931 16.23C49.4731 15.25 49.5631 14.02 49.6631 12.54C49.7831 11.04 49.9231 9.19 50.0831 6.99C50.1031 6.55 50.1531 6.29 50.2331 6.21C50.2931 6.15 50.4531 6.12 50.7131 6.12H51.8831C52.5031 6.12 53.0031 6.18 53.3831 6.3C53.7831 6.42 54.0931 6.6 54.3131 6.84C54.5531 7.08 54.7131 7.37 54.7931 7.71C54.8931 8.05 54.9431 8.43 54.9431 8.85C54.9431 9.15 54.9231 9.6 54.8831 10.2C54.8431 10.8 54.7831 11.62 54.7031 12.66C54.6431 13.68 54.5531 14.96 54.4331 16.5C54.3131 18.02 54.1631 19.86 53.9831 22.02C53.9631 22.26 53.9131 22.42 53.8331 22.5C53.7531 22.58 53.5831 22.62 53.3231 22.62H52.2431ZM50.1131 2.58C50.1131 1.78 50.4031 1.15 50.9831 0.69C51.5631 0.23 52.3431 0 53.3231 0C54.1831 0 54.8031 0.179999 55.1831 0.539998C55.5831 0.879999 55.7831 1.34 55.7831 1.92C55.7831 2.66 55.5031 3.28 54.9431 3.78C54.4031 4.26 53.6031 4.5 52.5431 4.5C50.9231 4.5 50.1131 3.86 50.1131 2.58Z" fill="white"/>
<path d="M67.8206 19.98C67.8206 19.54 67.8506 18.97 67.9106 18.27C67.9906 17.55 68.0606 16.8 68.1206 16.02C68.2006 15.22 68.2706 14.45 68.3306 13.71C68.4106 12.97 68.4506 12.35 68.4506 11.85C68.4506 11.33 68.3206 10.87 68.0606 10.47C67.8206 10.05 67.3406 9.84 66.6206 9.84C65.9206 9.84 65.3406 10.01 64.8806 10.35C64.4206 10.69 64.0306 11.31 63.7106 12.21C63.4106 13.11 63.1606 14.35 62.9606 15.93C62.7606 17.51 62.5706 19.54 62.3906 22.02C62.3706 22.26 62.3206 22.42 62.2406 22.5C62.1606 22.58 61.9906 22.62 61.7306 22.62H60.6506C60.0306 22.62 59.5206 22.56 59.1206 22.44C58.7406 22.3 58.4306 22.11 58.1906 21.87C57.9706 21.63 57.8106 21.34 57.7106 21C57.6306 20.64 57.5906 20.23 57.5906 19.77C57.5906 19.47 57.6006 19.05 57.6206 18.51C57.6606 17.95 57.7206 17.19 57.8006 16.23C57.8806 15.25 57.9706 14.02 58.0706 12.54C58.1906 11.04 58.3306 9.19 58.4906 6.99C58.5106 6.55 58.5606 6.29 58.6406 6.21C58.7006 6.15 58.8606 6.12 59.1206 6.12H60.2906C60.8906 6.12 61.3806 6.19 61.7606 6.33C62.1606 6.47 62.4806 6.66 62.7206 6.9C62.9606 7.12 63.1306 7.39 63.2306 7.71C63.3306 8.01 63.3906 8.32 63.4106 8.64C64.0306 7.58 64.7406 6.85 65.5406 6.45C66.3406 6.03 67.3406 5.82 68.5406 5.82C69.3806 5.82 70.1106 5.91 70.7306 6.09C71.3506 6.27 71.8606 6.58 72.2606 7.02C72.6806 7.44 72.9906 8 73.1906 8.7C73.3906 9.38 73.4906 10.23 73.4906 11.25C73.4906 11.57 73.4706 12.03 73.4306 12.63C73.3906 13.23 73.3406 13.89 73.2806 14.61C73.2206 15.31 73.1506 16.05 73.0706 16.83C73.0106 17.59 72.9506 18.3 72.8906 18.96C72.8306 19.62 72.7806 20.2 72.7406 20.7C72.7006 21.2 72.6806 21.53 72.6806 21.69C72.6806 22.13 72.6306 22.4 72.5306 22.5C72.4306 22.58 72.2106 22.62 71.8706 22.62H70.9106C70.2706 22.62 69.7506 22.56 69.3506 22.44C68.9506 22.32 68.6406 22.15 68.4206 21.93C68.2006 21.71 68.0406 21.44 67.9406 21.12C67.8606 20.78 67.8206 20.4 67.8206 19.98Z" fill="white"/>
</svg>
