<svg width="119" height="15" viewBox="0 0 119 15" fill="none" xmlns="http://www.w3.org/2000/svg">
<path d="M8.49682 12.76C8.45682 12.76 8.43682 12.735 8.43682 12.685V7.87002L7.32682 7.91502C7.08682 7.92502 6.82182 7.94002 6.53182 7.96002C6.24182 7.98002 5.97682 8.00002 5.73682 8.02002C5.62682 8.03002 5.55682 8.02502 5.52682 8.00502C5.50682 7.98502 5.49182 7.95002 5.48182 7.90002C5.47182 7.89002 5.46682 7.88002 5.46682 7.87002L5.37682 7.27002C5.37682 7.25002 5.38182 7.22502 5.39182 7.19502C5.40182 7.16502 5.43182 7.15502 5.48182 7.16502C5.67182 7.18502 5.94182 7.20002 6.29182 7.21002C6.65182 7.22002 7.02682 7.22002 7.41682 7.21002C7.80682 7.19002 8.14682 7.17002 8.43682 7.15002V4.99002L7.95682 5.00502C7.71682 5.01502 7.45182 5.03002 7.16182 5.05002C6.88182 5.07002 6.62182 5.09002 6.38182 5.11002C6.27182 5.12002 6.20182 5.11502 6.17182 5.09502C6.15182 5.07502 6.13682 5.04002 6.12682 4.99002C6.11682 4.98002 6.11182 4.97002 6.11182 4.96002C6.07182 4.83002 6.04682 4.71502 6.03682 4.61502C5.82682 5.11502 5.52682 5.70002 5.13682 6.37002C4.74682 7.03002 4.24682 7.71002 3.63682 8.41002C3.03682 9.10002 2.31682 9.74502 1.47682 10.345C1.32682 10.465 1.17182 10.465 1.01182 10.345L0.651823 10.015C0.611823 9.97503 0.626823 9.92502 0.696823 9.86502C1.24682 9.54502 1.75682 9.15502 2.22682 8.69502C2.70682 8.23502 3.14182 7.74502 3.53182 7.22502C3.92182 6.69502 4.25682 6.17002 4.53682 5.65002C4.82682 5.12002 5.05182 4.63002 5.21182 4.18002C5.37182 3.73002 5.45682 3.35502 5.46682 3.05502C5.46682 2.94502 5.42182 2.89002 5.33182 2.89002C4.92182 2.91002 4.54182 2.94002 4.19182 2.98002C3.85182 3.01002 3.50682 3.04002 3.15682 3.07002L1.62682 3.20502C1.52682 3.21502 1.46182 3.20502 1.43182 3.17502C1.40182 3.13502 1.37682 3.09002 1.35682 3.04002C1.34682 3.03002 1.34182 3.02002 1.34182 3.01002C1.30182 2.90002 1.27182 2.81002 1.25182 2.74002C1.23182 2.67002 1.20182 2.55002 1.16182 2.38002C1.15182 2.36002 1.15682 2.33502 1.17682 2.30502C1.19682 2.27502 1.23182 2.26502 1.28182 2.27502C1.93182 2.33502 2.56682 2.35002 3.18682 2.32002C3.80682 2.29002 4.44182 2.23502 5.09182 2.15502C5.21182 2.14502 5.33682 2.12502 5.46682 2.09502C5.60682 2.06502 5.67682 2.05002 5.67682 2.05002C5.72682 2.03002 5.78182 2.03002 5.84182 2.05002C5.96182 2.09002 6.11682 2.14002 6.30682 2.20002C6.49682 2.25002 6.61182 2.28502 6.65182 2.30502C6.73182 2.34502 6.76682 2.41002 6.75682 2.50002L6.41182 3.59502C6.38182 3.68502 6.34682 3.79002 6.30682 3.91002C6.26682 4.03002 6.21682 4.16002 6.15682 4.30002C6.40682 4.33002 6.74682 4.34502 7.17682 4.34502C7.61682 4.34502 8.03682 4.33002 8.43682 4.30002V2.62002C8.43682 2.24002 8.42682 1.89002 8.40682 1.57002C8.38682 1.25002 8.35182 1.04002 8.30182 0.940025C8.28182 0.890025 8.28182 0.855025 8.30182 0.835024C8.33182 0.805025 8.36682 0.790025 8.40682 0.790025L9.29182 0.805025C9.34182 0.825024 9.36682 0.865024 9.36682 0.925024C9.34682 1.21502 9.33682 1.47502 9.33682 1.70502C9.33682 1.93502 9.33682 2.17502 9.33682 2.42502C9.33682 2.48502 9.33682 2.55002 9.33682 2.62002C9.33682 2.69002 9.33682 2.76502 9.33682 2.84502V12.385C9.33682 12.535 9.32682 12.625 9.30682 12.655C9.29682 12.685 9.26682 12.705 9.21682 12.715C9.18682 12.715 9.11682 12.72 9.00682 12.73C8.90682 12.73 8.80682 12.735 8.70682 12.745C8.60682 12.755 8.53682 12.76 8.49682 12.76ZM10.7618 13.15C10.7218 13.15 10.7018 13.125 10.7018 13.075V2.23002C10.7018 1.85002 10.6918 1.50002 10.6718 1.18002C10.6618 0.860024 10.6318 0.650024 10.5818 0.550024C10.5618 0.500024 10.5618 0.465024 10.5818 0.445025C10.6118 0.415025 10.6468 0.400024 10.6868 0.400024L11.5718 0.415024C11.6218 0.435025 11.6468 0.475025 11.6468 0.535024C11.6268 0.835024 11.6118 1.10502 11.6018 1.34502C11.6018 1.58502 11.6018 1.83502 11.6018 2.09502C11.6018 2.15502 11.6018 2.21502 11.6018 2.27502C11.6018 2.33502 11.6018 2.39502 11.6018 2.45502V12.775C11.6018 12.925 11.5918 13.015 11.5718 13.045C11.5618 13.075 11.5318 13.095 11.4818 13.105C11.4518 13.105 11.3818 13.105 11.2718 13.105C11.1718 13.115 11.0718 13.125 10.9718 13.135C10.8718 13.145 10.8018 13.15 10.7618 13.15Z" fill="black"/>
<path d="M21.5527 14.275C20.9227 14.275 20.3627 14.16 19.8727 13.93C19.3927 13.71 19.0127 13.405 18.7327 13.015C18.4627 12.625 18.3277 12.175 18.3277 11.665C18.3277 11.175 18.4777 10.73 18.7777 10.33C19.0777 9.93002 19.4777 9.61503 19.9777 9.38503C20.4777 9.14502 21.0227 9.02502 21.6127 9.02502C22.2127 9.02502 22.7577 9.12502 23.2477 9.32502C23.7477 9.51502 24.1427 9.80502 24.4327 10.195C24.7327 10.575 24.8727 11.045 24.8527 11.605C24.8427 12.125 24.6877 12.585 24.3877 12.985C24.0977 13.385 23.7027 13.7 23.2027 13.93C22.7127 14.16 22.1627 14.275 21.5527 14.275ZM14.4577 8.38002L14.0827 8.05002C14.0427 8.01002 14.0577 7.96502 14.1277 7.91502C14.1377 7.90502 14.1427 7.90002 14.1427 7.90002C14.8627 7.43002 15.4877 6.88502 16.0177 6.26502C16.5477 5.64502 16.9627 5.00502 17.2627 4.34502C17.5627 3.68502 17.7277 3.06002 17.7577 2.47002C17.6177 2.48002 17.4677 2.49002 17.3077 2.50002C17.1477 2.51002 16.9677 2.52502 16.7677 2.54502C16.4677 2.56502 16.2077 2.58502 15.9877 2.60502C15.7777 2.62502 15.5377 2.65502 15.2677 2.69502C15.1677 2.70502 15.1027 2.69502 15.0727 2.66502C15.0427 2.62502 15.0177 2.58002 14.9977 2.53002C14.9877 2.52002 14.9827 2.51002 14.9827 2.50002C14.9527 2.42002 14.9227 2.33002 14.8927 2.23002C14.8727 2.13002 14.8477 2.01502 14.8177 1.88502C14.8077 1.86502 14.8127 1.84002 14.8327 1.81002C14.8527 1.78002 14.8877 1.76502 14.9377 1.76502C15.1777 1.77502 15.4427 1.79002 15.7327 1.81002C16.0227 1.82002 16.3127 1.82002 16.6027 1.81002C17.0427 1.79002 17.4877 1.77502 17.9377 1.76502C18.3977 1.74502 18.8577 1.71502 19.3177 1.67502C19.6877 1.65502 20.0377 1.62502 20.3677 1.58502C20.6977 1.54502 20.9927 1.50002 21.2527 1.45002C21.2827 1.44002 21.3177 1.44502 21.3577 1.46502C21.3977 1.47502 21.4227 1.50502 21.4327 1.55502C21.4527 1.62502 21.4727 1.73002 21.4927 1.87002C21.5127 2.00002 21.5277 2.12502 21.5377 2.24502C21.5377 2.35502 21.4777 2.41002 21.3577 2.41002C21.2577 2.41002 21.1577 2.41002 21.0577 2.41002C20.9577 2.41002 20.8527 2.41002 20.7427 2.41002C20.5327 2.41002 20.3177 2.41002 20.0977 2.41002C19.8777 2.40002 19.6477 2.40002 19.4077 2.41002C19.3077 2.41002 19.2077 2.41502 19.1077 2.42502C19.0177 2.42502 18.9277 2.42502 18.8377 2.42502C18.7977 2.70502 18.7277 3.01502 18.6277 3.35502C18.5277 3.69502 18.3827 4.05502 18.1927 4.43502C18.5927 4.71502 19.0027 5.02502 19.4227 5.36503C19.8527 5.69502 20.2377 6.00502 20.5777 6.29502C20.9277 6.57502 21.1727 6.79002 21.3127 6.94002C21.3627 6.98002 21.3977 7.03002 21.4177 7.09002C21.4477 7.15002 21.4377 7.21502 21.3877 7.28502C21.3677 7.31502 21.3177 7.37002 21.2377 7.45002C21.1577 7.53002 21.0777 7.61002 20.9977 7.69002C20.9177 7.77002 20.8577 7.82502 20.8177 7.85502C20.7377 7.90502 20.6727 7.90002 20.6227 7.84002C20.4327 7.58003 20.1777 7.28002 19.8577 6.94002C19.5477 6.59002 19.2177 6.25002 18.8677 5.92002C18.5277 5.58002 18.2027 5.29502 17.8927 5.06502C17.5927 5.61502 17.2077 6.17502 16.7377 6.74502C16.2677 7.30502 15.6627 7.84502 14.9227 8.36502C14.8727 8.40502 14.8077 8.44003 14.7277 8.47003C14.6477 8.49003 14.5577 8.46002 14.4577 8.38002ZM21.5827 13.495C22.2127 13.475 22.7427 13.305 23.1727 12.985C23.6127 12.665 23.8427 12.2 23.8627 11.59C23.8827 11.19 23.7877 10.855 23.5777 10.585C23.3777 10.315 23.1027 10.11 22.7527 9.97003C22.4127 9.82003 22.0277 9.74502 21.5977 9.74502C21.1677 9.75502 20.7777 9.84503 20.4277 10.015C20.0877 10.175 19.8127 10.395 19.6027 10.675C19.3927 10.955 19.2877 11.28 19.2877 11.65C19.2877 12.03 19.3877 12.36 19.5877 12.64C19.7977 12.91 20.0727 13.12 20.4127 13.27C20.7627 13.42 21.1527 13.495 21.5827 13.495ZM23.8327 8.81502C23.7927 8.81502 23.7727 8.79002 23.7727 8.74002V4.82502C23.5927 4.83502 23.4177 4.84502 23.2477 4.85502C23.0777 4.86502 22.9177 4.87502 22.7677 4.88503C22.5277 4.89502 22.2527 4.92002 21.9427 4.96002C21.6327 4.99002 21.3577 5.02002 21.1177 5.05002C21.0077 5.07002 20.9327 5.06502 20.8927 5.03502C20.8527 5.00502 20.8227 4.96002 20.8027 4.90002C20.7627 4.77002 20.7277 4.65002 20.6977 4.54002C20.6777 4.42002 20.6577 4.31002 20.6377 4.21002C20.6377 4.13002 20.6777 4.10002 20.7577 4.12002C20.9177 4.14002 21.1677 4.15502 21.5077 4.16502C21.8577 4.16502 22.2377 4.16002 22.6477 4.15002C23.0577 4.13002 23.4327 4.11002 23.7727 4.09002V2.23002C23.7727 1.85002 23.7577 1.50002 23.7277 1.18002C23.7077 0.860024 23.6727 0.650024 23.6227 0.550024C23.6027 0.500024 23.6027 0.465024 23.6227 0.445025C23.6527 0.415025 23.6877 0.400024 23.7277 0.400024C23.8377 0.400024 23.9877 0.400024 24.1777 0.400024C24.3677 0.400024 24.5427 0.405024 24.7027 0.415024C24.7527 0.415024 24.7777 0.455024 24.7777 0.535024C24.7477 0.905024 24.7277 1.23002 24.7177 1.51002C24.7177 1.78002 24.7177 2.09502 24.7177 2.45502V8.44002C24.7177 8.59002 24.7077 8.68002 24.6877 8.71002C24.6777 8.74002 24.6477 8.76003 24.5977 8.77003L23.8327 8.81502Z" fill="black"/>
<path d="M31.0609 8.50002C30.4509 8.51002 29.8909 8.38502 29.3809 8.12502C28.8709 7.86502 28.4609 7.49502 28.1509 7.01502C27.8509 6.52502 27.7009 5.96502 27.7009 5.33502C27.7009 4.72502 27.8509 4.18002 28.1509 3.70002C28.4509 3.21002 28.8559 2.82002 29.3659 2.53002C29.8859 2.23002 30.4559 2.07502 31.0759 2.06502C31.6959 2.04502 32.2559 2.15502 32.7559 2.39502C33.2659 2.63502 33.6709 2.99002 33.9709 3.46002C34.2709 3.93002 34.4209 4.51002 34.4209 5.20002C34.4209 5.82002 34.2709 6.37502 33.9709 6.86502C33.6709 7.35502 33.2659 7.74502 32.7559 8.03502C32.2459 8.32502 31.6809 8.48002 31.0609 8.50002ZM31.0759 7.64502C31.5159 7.62502 31.9159 7.51502 32.2759 7.31502C32.6359 7.10502 32.9209 6.82002 33.1309 6.46002C33.3509 6.09002 33.4609 5.67502 33.4609 5.21502C33.4609 4.70502 33.3509 4.27002 33.1309 3.91002C32.9209 3.55002 32.6359 3.28002 32.2759 3.10002C31.9159 2.91002 31.5159 2.82502 31.0759 2.84502C30.6359 2.85502 30.2309 2.97002 29.8609 3.19002C29.4909 3.40002 29.1959 3.69002 28.9759 4.06002C28.7559 4.42002 28.6459 4.84002 28.6459 5.32002C28.6459 5.82002 28.7559 6.24502 28.9759 6.59502C29.2059 6.94502 29.5059 7.21002 29.8759 7.39002C30.2459 7.57002 30.6459 7.65502 31.0759 7.64502ZM36.9559 13.15C36.9159 13.15 36.8959 13.125 36.8959 13.075V2.24502C36.8959 1.86502 36.8809 1.51502 36.8509 1.19502C36.8309 0.865024 36.7959 0.650024 36.7459 0.550024C36.7259 0.500024 36.7259 0.465024 36.7459 0.445025C36.7759 0.415025 36.8109 0.400024 36.8509 0.400024C36.9109 0.400024 37.0109 0.405024 37.1509 0.415024C37.3009 0.415024 37.4459 0.420024 37.5859 0.430024C37.7259 0.430024 37.8059 0.430024 37.8259 0.430024C37.8759 0.430024 37.9009 0.470024 37.9009 0.550024C37.8709 0.920024 37.8509 1.24502 37.8409 1.52502C37.8409 1.79502 37.8409 2.11002 37.8409 2.47002V12.775C37.8409 12.925 37.8309 13.015 37.8109 13.045C37.8009 13.075 37.7709 13.095 37.7209 13.105L36.9559 13.15Z" fill="black"/>
<path d="M48.5312 7.03002C47.9612 7.04002 47.4362 6.93002 46.9562 6.70002C46.4862 6.47002 46.1062 6.14502 45.8162 5.72502C45.5362 5.29502 45.3962 4.80002 45.3962 4.24002C45.3962 3.70002 45.5362 3.21502 45.8162 2.78502C46.1062 2.34502 46.4862 1.99502 46.9562 1.73502C47.4362 1.47502 47.9662 1.34002 48.5462 1.33002C49.1162 1.30002 49.6362 1.39502 50.1062 1.61502C50.5862 1.83502 50.9712 2.16002 51.2612 2.59002C51.5512 3.01002 51.6962 3.52002 51.6962 4.12002C51.6962 4.67002 51.5512 5.16502 51.2612 5.60502C50.9712 6.03502 50.5862 6.37502 50.1062 6.62502C49.6262 6.87502 49.1012 7.01002 48.5312 7.03002ZM47.0462 14.05C47.0262 14.05 47.0012 14.045 46.9712 14.035C46.9412 14.025 46.9262 13.995 46.9262 13.945L46.9112 10.375C46.9012 10.105 46.8812 9.84002 46.8512 9.58002C46.8212 9.31002 46.7912 9.12502 46.7612 9.02502C46.7312 8.92502 46.7662 8.87502 46.8662 8.87502H47.7062C47.7662 8.87502 47.7962 8.92502 47.7962 9.02502C47.7862 9.28502 47.7812 9.51502 47.7812 9.71502C47.7812 9.90503 47.7812 10.13 47.7812 10.39V10.72C47.9812 10.72 48.2562 10.72 48.6062 10.72C48.9662 10.71 49.3312 10.7 49.7012 10.69C50.0712 10.67 50.3762 10.65 50.6162 10.63V10.42C50.6162 10.04 50.6112 9.71502 50.6012 9.44502C50.5912 9.17502 50.5612 8.98502 50.5112 8.87502C50.4912 8.82502 50.4912 8.79003 50.5112 8.77003C50.5412 8.74003 50.5762 8.72502 50.6162 8.72502H51.4712C51.5412 8.72502 51.5712 8.77502 51.5612 8.87502C51.5412 9.11502 51.5312 9.31503 51.5312 9.47503C51.5312 9.62503 51.5312 9.80503 51.5312 10.015C51.5312 10.075 51.5312 10.14 51.5312 10.21C51.5312 10.28 51.5312 10.355 51.5312 10.435V13.795C51.5312 13.915 51.4762 13.975 51.3662 13.975C51.1762 13.975 50.9262 13.975 50.6162 13.975C50.3062 13.975 49.9712 13.975 49.6112 13.975C49.2512 13.985 48.9112 13.99 48.5912 13.99C48.2712 14 48.0112 14.005 47.8112 14.005C47.7512 14.005 47.6612 14.005 47.5412 14.005C47.4212 14.015 47.3112 14.025 47.2112 14.035C47.1212 14.045 47.0662 14.05 47.0462 14.05ZM48.5462 6.26502C49.1462 6.24502 49.6512 6.04502 50.0612 5.66502C50.4712 5.27503 50.6762 4.76002 50.6762 4.12002C50.6762 3.41002 50.4662 2.89002 50.0462 2.56002C49.6362 2.23002 49.1312 2.07502 48.5312 2.09502C47.9212 2.13502 47.4112 2.34002 47.0012 2.71002C46.5912 3.08002 46.3862 3.58502 46.3862 4.22502C46.3862 4.89502 46.5912 5.41002 47.0012 5.77002C47.4212 6.12002 47.9362 6.28502 48.5462 6.26502ZM51.8462 14.53L51.4712 14.245C51.4212 14.205 51.4262 14.155 51.4862 14.095C51.8462 13.845 52.2012 13.5 52.5512 13.06C52.9012 12.62 53.2162 12.15 53.4962 11.65C53.7862 11.15 53.9962 10.69 54.1262 10.27C54.2162 9.99002 54.2762 9.70002 54.3062 9.40002C54.3462 9.09002 54.3462 8.83002 54.3062 8.62002C54.2962 8.56002 54.3112 8.52502 54.3512 8.51502C54.3912 8.49502 54.4262 8.49002 54.4562 8.50002L55.4012 8.69502C55.4512 8.70502 55.4812 8.73003 55.4912 8.77003C55.5012 8.80003 55.5012 8.82503 55.4912 8.84503C55.4312 9.07503 55.3662 9.30502 55.2962 9.53502C55.2362 9.75502 55.1662 9.98002 55.0862 10.21C55.0462 10.32 55.0062 10.435 54.9662 10.555C54.9262 10.665 54.8762 10.785 54.8162 10.915C55.3762 11.395 55.8962 11.865 56.3762 12.325C56.8562 12.785 57.2162 13.165 57.4562 13.465C57.4962 13.525 57.5262 13.585 57.5462 13.645C57.5662 13.705 57.5412 13.77 57.4712 13.84C57.3712 13.95 57.2712 14.045 57.1712 14.125C57.0812 14.215 56.9762 14.3 56.8562 14.38C56.7862 14.42 56.7312 14.41 56.6912 14.35C56.5312 14.07 56.3312 13.765 56.0912 13.435C55.8512 13.105 55.5962 12.775 55.3262 12.445C55.0562 12.115 54.7862 11.82 54.5162 11.56C54.2662 12.04 53.9562 12.535 53.5862 13.045C53.2162 13.555 52.7712 14.035 52.2512 14.485C52.1212 14.585 51.9862 14.6 51.8462 14.53ZM54.7262 7.91502C54.6862 7.91502 54.6662 7.89002 54.6662 7.84002V4.34502C54.4562 4.35502 54.2062 4.37002 53.9162 4.39002C53.6262 4.41002 53.3512 4.43002 53.0912 4.45002C52.8312 4.47002 52.6212 4.49002 52.4612 4.51002C52.3512 4.52002 52.2762 4.51503 52.2362 4.49502C52.1962 4.46502 52.1662 4.42002 52.1462 4.36002C52.1062 4.22002 52.0712 4.09502 52.0412 3.98502C52.0212 3.87502 52.0012 3.77502 51.9812 3.68502C51.9612 3.60502 52.0012 3.57502 52.1012 3.59502C52.2512 3.61502 52.4662 3.63002 52.7462 3.64002C53.0362 3.64002 53.3512 3.64002 53.6912 3.64002C54.0312 3.63002 54.3562 3.61502 54.6662 3.59502V2.23002C54.6662 1.85002 54.6512 1.50002 54.6212 1.18002C54.6012 0.860024 54.5662 0.650024 54.5162 0.550024C54.4962 0.500024 54.4962 0.465024 54.5162 0.445025C54.5462 0.415025 54.5812 0.400024 54.6212 0.400024C54.7112 0.400024 54.8512 0.400024 55.0412 0.400024C55.2412 0.400024 55.4262 0.405024 55.5962 0.415024C55.6462 0.415024 55.6712 0.455024 55.6712 0.535024C55.6412 0.905024 55.6212 1.23002 55.6112 1.51002C55.6112 1.78002 55.6112 2.09502 55.6112 2.45502V7.54002C55.6112 7.69002 55.6012 7.78002 55.5812 7.81002C55.5712 7.84002 55.5412 7.86002 55.4912 7.87002L54.7262 7.91502ZM47.7812 13.21C47.9012 13.21 48.0912 13.205 48.3512 13.195C48.6112 13.195 48.8912 13.19 49.1912 13.18C49.4912 13.18 49.7712 13.17 50.0312 13.15C50.2912 13.14 50.4862 13.13 50.6162 13.12V11.38C50.1662 11.38 49.6862 11.385 49.1762 11.395C48.6662 11.405 48.2012 11.42 47.7812 11.44V13.21Z" fill="black"/>
<path d="M64.1145 7.25502C63.4245 7.25502 62.8045 7.13502 62.2545 6.89502C61.7145 6.64502 61.2895 6.29502 60.9795 5.84502C60.6695 5.38502 60.5195 4.84002 60.5295 4.21002C60.5495 3.63002 60.7245 3.11502 61.0545 2.66502C61.3945 2.20502 61.8495 1.84002 62.4195 1.57002C62.9895 1.30002 63.6195 1.16002 64.3095 1.15002C65.0195 1.15002 65.6495 1.27502 66.1995 1.52502C66.7495 1.77502 67.1795 2.13002 67.4895 2.59002C67.8095 3.04002 67.9545 3.56502 67.9245 4.16502C67.8845 4.80502 67.6945 5.35502 67.3545 5.81502C67.0245 6.27502 66.5795 6.63002 66.0195 6.88002C65.4595 7.13002 64.8245 7.25502 64.1145 7.25502ZM64.1445 6.49002C64.9345 6.47002 65.5845 6.26002 66.0945 5.86002C66.6045 5.46002 66.8795 4.89502 66.9195 4.16502C66.9595 3.48502 66.7345 2.94002 66.2445 2.53002C65.7545 2.12002 65.0945 1.91502 64.2645 1.91502C63.6845 1.91502 63.1895 2.02502 62.7795 2.24502C62.3695 2.46502 62.0595 2.75002 61.8495 3.10002C61.6395 3.44002 61.5245 3.81002 61.5045 4.21002C61.4845 4.67002 61.5895 5.07502 61.8195 5.42502C62.0495 5.77502 62.3695 6.04502 62.7795 6.23502C63.1895 6.41502 63.6445 6.50002 64.1445 6.49002ZM58.5945 11.335C58.4845 11.345 58.4095 11.335 58.3695 11.305C58.3295 11.275 58.2995 11.23 58.2795 11.17C58.2395 11.06 58.2045 10.95 58.1745 10.84C58.1445 10.72 58.1095 10.575 58.0695 10.405C58.0595 10.385 58.0645 10.36 58.0845 10.33C58.1045 10.29 58.1395 10.275 58.1895 10.285C58.5695 10.335 59.0845 10.37 59.7345 10.39C60.3945 10.4 61.1195 10.405 61.9095 10.405C62.6795 10.405 63.4795 10.395 64.3095 10.375C65.1395 10.355 65.9395 10.33 66.7095 10.3C67.4795 10.27 68.1645 10.23 68.7645 10.18C69.3745 10.13 69.8445 10.075 70.1745 10.015C70.2745 9.99503 70.3395 10 70.3695 10.03C70.3995 10.06 70.4195 10.1 70.4295 10.15L70.5195 10.87C70.5195 10.92 70.5045 10.965 70.4745 11.005C70.4445 11.045 70.3645 11.065 70.2345 11.065C69.8945 11.055 69.4995 11.05 69.0495 11.05C68.5995 11.05 68.1195 11.05 67.6095 11.05C66.3595 11.05 65.1495 11.065 63.9795 11.095C62.8095 11.115 61.7595 11.145 60.8295 11.185C59.8995 11.225 59.1545 11.275 58.5945 11.335Z" fill="black"/>
<path d="M71.9053 8.48502L71.5303 8.15502C71.4903 8.11502 71.5053 8.07002 71.5753 8.02002C71.5853 8.01002 71.5903 8.00502 71.5903 8.00502C72.1503 7.63502 72.6753 7.17002 73.1653 6.61002C73.6653 6.04002 74.1103 5.44502 74.5003 4.82502C74.8903 4.20502 75.1953 3.62502 75.4153 3.08502C75.4853 2.91502 75.5453 2.72002 75.5953 2.50002C75.6553 2.27002 75.7003 2.05002 75.7303 1.84002C75.7703 1.63002 75.7903 1.46002 75.7903 1.33002C75.7903 1.24002 75.8403 1.20002 75.9403 1.21002C76.0503 1.23002 76.2053 1.27002 76.4053 1.33002C76.6053 1.39002 76.7803 1.44502 76.9303 1.49502C76.9903 1.52502 77.0053 1.58002 76.9753 1.66002C76.9053 1.86002 76.8103 2.12002 76.6903 2.44002C76.5703 2.76002 76.4603 3.04002 76.3603 3.28003C76.2903 3.44002 76.2103 3.61002 76.1203 3.79002C76.0403 3.97002 75.9453 4.16002 75.8353 4.36002C76.1353 4.59002 76.4653 4.84502 76.8253 5.12502C77.1953 5.39502 77.5553 5.66502 77.9053 5.93502C78.2553 6.20502 78.5653 6.45002 78.8353 6.67002C79.1053 6.89002 79.3003 7.06002 79.4203 7.18002C79.4603 7.21002 79.4903 7.26002 79.5103 7.33002C79.5403 7.39002 79.5303 7.45502 79.4803 7.52502C79.4403 7.58502 79.3453 7.68002 79.1953 7.81002C79.0553 7.94002 78.9553 8.03502 78.8953 8.09502C78.8153 8.14502 78.7553 8.13502 78.7153 8.06502C78.5653 7.85502 78.3553 7.61002 78.0853 7.33002C77.8253 7.05002 77.5403 6.76002 77.2303 6.46002C76.9303 6.16002 76.6253 5.88002 76.3153 5.62002C76.0053 5.36002 75.7303 5.14502 75.4903 4.97502C75.1603 5.52502 74.7403 6.10502 74.2303 6.71502C73.7303 7.31502 73.1103 7.89502 72.3703 8.45502C72.3203 8.49502 72.2553 8.53003 72.1753 8.56003C72.0953 8.59003 72.0053 8.56502 71.9053 8.48502ZM81.2803 10.225C81.2403 10.225 81.2203 10.2 81.2203 10.15V2.23002C81.2203 1.85002 81.2053 1.50002 81.1753 1.18002C81.1553 0.860024 81.1203 0.650024 81.0703 0.550024C81.0503 0.500024 81.0503 0.465024 81.0703 0.445025C81.1003 0.415025 81.1353 0.400024 81.1753 0.400024C81.3153 0.400024 81.4803 0.400024 81.6703 0.400024C81.8603 0.400024 82.0203 0.405024 82.1503 0.415024C82.2003 0.415024 82.2253 0.455024 82.2253 0.535024C82.1953 0.905024 82.1753 1.23002 82.1653 1.51002C82.1653 1.78002 82.1653 2.09502 82.1653 2.45502V9.85003C82.1653 10 82.1553 10.09 82.1353 10.12C82.1253 10.15 82.0953 10.17 82.0453 10.18L81.2803 10.225ZM76.3753 13.75C76.0553 13.75 75.8103 13.63 75.6403 13.39C75.4803 13.16 75.4003 12.83 75.4003 12.4V11.065C75.4003 10.715 75.3853 10.425 75.3553 10.195C75.3253 9.96502 75.2953 9.80002 75.2653 9.70002C75.2353 9.60002 75.2703 9.55002 75.3703 9.55002C75.4303 9.55002 75.5303 9.55502 75.6703 9.56502C75.8203 9.56502 75.9603 9.57002 76.0903 9.58002C76.2303 9.59002 76.3053 9.59503 76.3153 9.59503C76.3653 9.59503 76.3903 9.64502 76.3903 9.74502C76.3703 9.97502 76.3553 10.18 76.3453 10.36C76.3453 10.53 76.3453 10.745 76.3453 11.005V12.31C76.3453 12.56 76.3753 12.735 76.4353 12.835C76.5053 12.925 76.6153 12.975 76.7653 12.985C77.0453 12.995 77.3853 13 77.7853 13C78.1953 13.01 78.6203 13.01 79.0603 13C79.5103 12.98 79.9353 12.96 80.3353 12.94C80.7553 12.92 81.1903 12.885 81.6403 12.835C82.0903 12.775 82.4353 12.715 82.6753 12.655C82.7753 12.635 82.8403 12.64 82.8703 12.67C82.9003 12.7 82.9203 12.74 82.9303 12.79L83.0503 13.495C83.0503 13.545 83.0353 13.585 83.0053 13.615C82.9853 13.645 82.9053 13.66 82.7653 13.66C81.7753 13.66 80.7553 13.675 79.7053 13.705C78.6553 13.735 77.5453 13.75 76.3753 13.75Z" fill="black"/>
<path d="M93.8071 13.15C93.7671 13.15 93.7471 13.125 93.7471 13.075V2.24502C93.7471 1.86502 93.7321 1.51502 93.7021 1.19502C93.6821 0.865024 93.6471 0.650024 93.5971 0.550024C93.5771 0.500024 93.5771 0.465024 93.5971 0.445025C93.6271 0.415025 93.6621 0.400024 93.7021 0.400024C93.7621 0.400024 93.8621 0.405024 94.0021 0.415024C94.1521 0.415024 94.2971 0.420024 94.4371 0.430024C94.5771 0.430024 94.6571 0.430024 94.6771 0.430024C94.7271 0.430024 94.7521 0.470024 94.7521 0.550024C94.7221 0.920024 94.7021 1.24502 94.6921 1.52502C94.6921 1.79502 94.6921 2.11002 94.6921 2.47002V5.98002C94.9621 5.98002 95.2521 5.97002 95.5621 5.95002C95.8821 5.92002 96.1771 5.89002 96.4471 5.86002C96.7271 5.82002 96.9371 5.78002 97.0771 5.74002C97.1671 5.73002 97.2171 5.76002 97.2271 5.83002C97.2471 5.96002 97.2621 6.09002 97.2721 6.22002C97.2821 6.35002 97.2921 6.48002 97.3021 6.61002C97.3021 6.72002 97.2571 6.77502 97.1671 6.77502C97.0171 6.75502 96.7971 6.74502 96.5071 6.74502C96.2271 6.74502 95.9271 6.74502 95.6071 6.74502C95.2871 6.74502 94.9821 6.75002 94.6921 6.76003V12.775C94.6921 12.925 94.6821 13.015 94.6621 13.045C94.6521 13.075 94.6221 13.095 94.5721 13.105L93.8071 13.15ZM85.1671 10.72L84.8071 10.39C84.7671 10.35 84.7821 10.3 84.8521 10.24C85.4821 9.91002 86.1071 9.46502 86.7271 8.90502C87.3571 8.34502 87.9371 7.72502 88.4671 7.04502C88.9971 6.36502 89.4371 5.67002 89.7871 4.96002C90.1371 4.24002 90.3521 3.56002 90.4321 2.92002C90.4521 2.81002 90.4071 2.75502 90.2971 2.75502L87.3571 2.93502L85.7971 3.07002C85.6971 3.08002 85.6321 3.07002 85.6021 3.04002C85.5721 3.00002 85.5471 2.95502 85.5271 2.90502C85.5171 2.89502 85.5121 2.88502 85.5121 2.87502C85.4721 2.76502 85.4421 2.67502 85.4221 2.60502C85.4021 2.52502 85.3721 2.40002 85.3321 2.23002C85.3221 2.21002 85.3271 2.18502 85.3471 2.15502C85.3671 2.12502 85.4021 2.11502 85.4521 2.12502C85.8921 2.16502 86.3821 2.18502 86.9221 2.18502C87.4721 2.17502 88.0221 2.15502 88.5721 2.12502C89.1221 2.08502 89.6171 2.04002 90.0571 1.99002C90.1771 1.98002 90.3071 1.96002 90.4471 1.93002C90.5871 1.90002 90.6571 1.88502 90.6571 1.88502C90.7071 1.86502 90.7621 1.86502 90.8221 1.88502L91.6471 2.15502C91.7271 2.19502 91.7621 2.26002 91.7521 2.35002L91.4071 3.46002C91.2671 3.90002 91.0471 4.42502 90.7471 5.03502C90.4471 5.64502 90.0621 6.29002 89.5921 6.97002C89.1221 7.64002 88.5571 8.30002 87.8971 8.95002C87.2471 9.60002 86.4971 10.19 85.6471 10.72C85.5671 10.77 85.4871 10.8 85.4071 10.81C85.3271 10.82 85.2471 10.79 85.1671 10.72Z" fill="black"/>
<path d="M104.324 7.18002C103.634 7.18002 103.014 7.06002 102.464 6.82002C101.924 6.57002 101.499 6.22002 101.189 5.77002C100.879 5.31003 100.729 4.76502 100.739 4.13502C100.759 3.55502 100.934 3.04002 101.264 2.59002C101.604 2.13002 102.059 1.76502 102.629 1.49502C103.199 1.22502 103.829 1.08502 104.519 1.07502C105.229 1.07502 105.859 1.20002 106.409 1.45002C106.959 1.70002 107.389 2.05502 107.699 2.51502C108.019 2.96502 108.164 3.49002 108.134 4.09002C108.094 4.73002 107.904 5.28002 107.564 5.74002C107.234 6.20002 106.789 6.55502 106.229 6.80502C105.669 7.05502 105.034 7.18002 104.324 7.18002ZM104.354 6.41502C105.144 6.39502 105.794 6.18502 106.304 5.78502C106.814 5.38502 107.089 4.82002 107.129 4.09002C107.169 3.41002 106.944 2.86502 106.454 2.45502C105.964 2.04502 105.304 1.84002 104.474 1.84002C103.894 1.84002 103.399 1.95002 102.989 2.17002C102.579 2.39002 102.269 2.67502 102.059 3.02502C101.849 3.36502 101.734 3.73502 101.714 4.13502C101.694 4.59502 101.799 5.00002 102.029 5.35002C102.259 5.70002 102.579 5.97002 102.989 6.16002C103.399 6.34002 103.854 6.42502 104.354 6.41502ZM98.8044 11.635C98.6944 11.645 98.6194 11.635 98.5794 11.605C98.5394 11.575 98.5094 11.53 98.4894 11.47C98.4494 11.36 98.4144 11.25 98.3844 11.14C98.3544 11.02 98.3194 10.875 98.2794 10.705C98.2694 10.685 98.2744 10.66 98.2944 10.63C98.3144 10.59 98.3494 10.575 98.3994 10.585C98.7694 10.635 99.2744 10.67 99.9144 10.69C100.564 10.7 101.279 10.705 102.059 10.705L101.984 9.50502C101.974 9.31502 101.954 9.10502 101.924 8.87502C101.894 8.64502 101.859 8.43502 101.819 8.24502C101.779 8.04502 101.739 7.91502 101.699 7.85502C101.679 7.79502 101.679 7.75502 101.699 7.73502C101.729 7.71502 101.764 7.70002 101.804 7.69002H102.809C102.849 7.70002 102.869 7.74502 102.869 7.82502C102.869 7.83502 102.869 7.84502 102.869 7.85502C102.869 8.11502 102.869 8.37002 102.869 8.62002C102.869 8.87002 102.874 9.12502 102.884 9.38503L102.914 10.705C103.454 10.705 103.994 10.7 104.534 10.69C105.074 10.67 105.609 10.65 106.139 10.63L106.214 9.32502C106.224 9.13502 106.229 8.93002 106.229 8.71002C106.239 8.49002 106.234 8.29002 106.214 8.11002C106.204 7.92002 106.179 7.79002 106.139 7.72002C106.119 7.65002 106.124 7.61002 106.154 7.60002C106.184 7.58002 106.219 7.57002 106.259 7.57002C106.309 7.57002 106.409 7.57502 106.559 7.58502C106.709 7.58502 106.854 7.59002 106.994 7.60002C107.144 7.61002 107.229 7.61502 107.249 7.61502C107.299 7.64502 107.314 7.69502 107.294 7.76502C107.294 7.77502 107.294 7.78002 107.294 7.78002C107.264 8.04002 107.234 8.29002 107.204 8.53002C107.174 8.77002 107.149 9.02002 107.129 9.28002L107.009 10.6C107.749 10.56 108.414 10.52 109.004 10.48C109.604 10.43 110.064 10.375 110.384 10.315C110.484 10.295 110.549 10.3 110.579 10.33C110.609 10.36 110.629 10.4 110.639 10.45L110.729 11.17C110.729 11.22 110.714 11.265 110.684 11.305C110.654 11.345 110.574 11.365 110.444 11.365C110.104 11.355 109.709 11.35 109.259 11.35C108.809 11.35 108.329 11.35 107.819 11.35C106.569 11.35 105.359 11.365 104.189 11.395C103.019 11.415 101.969 11.445 101.039 11.485C100.109 11.525 99.3644 11.575 98.8044 11.635Z" fill="black"/>
<path d="M112.985 3.20502C112.965 3.26502 112.925 3.28502 112.865 3.26502L112.22 2.98002C112.16 2.96002 112.14 2.92002 112.16 2.86002C112.44 2.25002 112.855 1.80002 113.405 1.51002C113.965 1.22002 114.545 1.07502 115.145 1.07502C115.635 1.07502 116.095 1.17002 116.525 1.36002C116.965 1.55002 117.32 1.82502 117.59 2.18502C117.87 2.54502 118.01 2.99002 118.01 3.52002C118.01 3.95002 117.895 4.39502 117.665 4.85502C117.435 5.30502 117.08 5.72002 116.6 6.10002C116.38 6.28002 116.15 6.48502 115.91 6.71502C115.68 6.93502 115.485 7.20002 115.325 7.51002C115.175 7.81002 115.1 8.17002 115.1 8.59002V8.93502C115.1 8.99502 115.075 9.02502 115.025 9.02502H114.38C114.33 9.02502 114.295 8.99502 114.275 8.93502C114.265 8.85502 114.255 8.77502 114.245 8.69502C114.245 8.61502 114.245 8.54003 114.245 8.47003C114.245 7.94003 114.345 7.49502 114.545 7.13502C114.755 6.77502 114.995 6.47002 115.265 6.22002C115.545 5.96002 115.79 5.73502 116 5.54502C116.37 5.22502 116.64 4.89002 116.81 4.54002C116.98 4.19002 117.065 3.85502 117.065 3.53502C117.065 3.17502 116.97 2.87502 116.78 2.63502C116.6 2.38502 116.36 2.20002 116.06 2.08002C115.77 1.96002 115.46 1.90002 115.13 1.90002C114.7 1.90002 114.28 2.01002 113.87 2.23002C113.46 2.44002 113.165 2.76502 112.985 3.20502ZM114.875 12.4C114.635 12.4 114.435 12.32 114.275 12.16C114.115 12 114.035 11.8 114.035 11.56C114.035 11.33 114.115 11.14 114.275 10.99C114.435 10.83 114.635 10.75 114.875 10.75C115.105 10.75 115.295 10.83 115.445 10.99C115.605 11.14 115.685 11.33 115.685 11.56C115.685 11.8 115.605 12 115.445 12.16C115.295 12.32 115.105 12.4 114.875 12.4Z" fill="black"/>
</svg>
