<svg width="207" height="52" viewBox="0 0 207 52" fill="none" xmlns="http://www.w3.org/2000/svg">
<path d="M20.65 0.0699991C25.0367 0.0699991 28.28 1.02667 30.38 2.94C32.5267 4.85333 33.6 7.35 33.6 10.43C33.6 13.0433 32.8767 15.05 31.43 16.45C29.9833 17.8033 27.9067 18.48 25.2 18.48C24.36 18.48 23.8233 18.41 23.59 18.27C23.3567 18.0833 23.24 17.7333 23.24 17.22C23.24 16.7533 23.1933 16.1467 23.1 15.4C23.0533 14.6533 22.89 13.93 22.61 13.23C22.33 12.53 21.8867 11.9467 21.28 11.48C20.6733 10.9667 19.8333 10.71 18.76 10.71C17.2667 10.71 15.9367 11.1767 14.77 12.11C13.6033 12.9967 13.02 14.1633 13.02 15.61C13.02 16.87 13.4867 17.8967 14.42 18.69C15.4 19.4833 16.6133 20.23 18.06 20.93C19.5067 21.5833 21.07 22.26 22.75 22.96C24.4767 23.66 26.0633 24.5933 27.51 25.76C28.9567 26.88 30.1467 28.3033 31.08 30.03C32.06 31.71 32.55 33.8567 32.55 36.47C32.55 38.5233 32.2 40.46 31.5 42.28C30.8467 44.0533 29.8433 45.6167 28.49 46.97C27.1833 48.2767 25.5033 49.3033 23.45 50.05C21.4433 50.7967 19.0867 51.17 16.38 51.17C14.0467 51.17 11.8767 50.9133 9.87 50.4C7.91 49.8867 6.18333 49.2567 4.69 48.51C3.24333 47.7167 2.1 46.8767 1.26 45.99C0.42 45.0567 0 44.2167 0 43.47C0 40.39 0.163333 38.1733 0.49 36.82C0.863333 35.4667 1.51667 34.79 2.45 34.79C3.10333 34.79 3.78 35.07 4.48 35.63C5.22667 36.19 6.06667 36.82 7 37.52C7.93333 38.22 9.00667 38.85 10.22 39.41C11.48 39.97 12.9267 40.25 14.56 40.25C15.2133 40.25 15.8433 40.2033 16.45 40.11C17.1033 39.97 17.6633 39.76 18.13 39.48C18.6433 39.2 19.04 38.8267 19.32 38.36C19.6467 37.8933 19.81 37.3333 19.81 36.68C19.81 35.5133 19.3667 34.58 18.48 33.88C17.5933 33.18 16.4733 32.55 15.12 31.99C13.7667 31.3833 12.2967 30.7767 10.71 30.17C9.17 29.5167 7.72333 28.6533 6.37 27.58C5.01667 26.46 3.89667 25.0367 3.01 23.31C2.12333 21.5833 1.68 19.3667 1.68 16.66C1.68 13.6267 2.24 11.06 3.36 8.96C4.52667 6.86 5.99667 5.15667 7.77 3.85C9.59 2.49667 11.62 1.54 13.86 0.98C16.1467 0.373333 18.41 0.0699991 20.65 0.0699991Z" fill="#EDA1A1"/>
<path d="M61.7253 10.57L59.0653 49.42C59.0187 50.12 58.762 50.47 58.2953 50.47H54.4454C51.832 50.47 49.9653 49.9567 48.8453 48.93C47.7253 47.9033 47.1653 46.4333 47.1653 44.52C47.1653 43.82 47.1887 42.77 47.2353 41.37C47.3287 39.97 47.4453 38.3367 47.5853 36.47C47.7253 34.5567 47.8653 32.5033 48.0053 30.31C48.192 28.07 48.3787 25.83 48.5653 23.59C48.752 21.3033 48.9153 19.04 49.0553 16.8C49.242 14.56 49.4053 12.4833 49.5453 10.57H38.3453C37.832 10.57 37.5753 10.2433 37.5753 9.59L37.7853 5.67C37.832 5.06333 37.9253 4.48 38.0653 3.92C38.252 3.31333 38.532 2.77667 38.9053 2.31C39.2787 1.84333 39.7453 1.47 40.3053 1.19C40.912 0.909998 41.6353 0.769998 42.4753 0.769998H73.7654C74.0453 0.769998 74.302 0.839999 74.5353 0.98C74.7687 1.12 74.8853 1.37666 74.8853 1.75L74.6053 5.88C74.512 7.28 74.1154 8.42333 73.4154 9.31C72.762 10.15 71.3853 10.57 69.2853 10.57H61.7253Z" fill="#EDA1A1"/>
<path d="M100.377 0C103.784 0 106.7 0.489999 109.127 1.47C111.554 2.40333 113.537 3.80333 115.077 5.67C116.617 7.49 117.737 9.73 118.437 12.39C119.137 15.0033 119.487 17.99 119.487 21.35C119.487 23.2167 119.347 25.2467 119.067 27.44C118.834 29.6333 118.367 31.85 117.667 34.09C117.014 36.2833 116.104 38.4067 114.937 40.46C113.77 42.5133 112.254 44.3333 110.387 45.92C108.567 47.5067 106.374 48.79 103.807 49.77C101.24 50.7033 98.2069 51.17 94.7069 51.17C90.8336 51.17 87.6136 50.5867 85.0469 49.42C82.5269 48.2533 80.4969 46.69 78.9569 44.73C77.4636 42.7233 76.3903 40.3667 75.7369 37.66C75.1303 34.9533 74.8269 32.06 74.8269 28.98C74.8269 25.34 75.2469 21.7933 76.0869 18.34C76.9269 14.84 78.3269 11.7367 80.2869 9.03C82.2936 6.32333 84.9303 4.15333 88.1969 2.52C91.4636 0.839999 95.5236 0 100.377 0ZM98.9069 10.85C97.2736 10.85 95.8503 11.1533 94.6369 11.76C93.4703 12.32 92.4669 13.09 91.6269 14.07C90.8336 15.05 90.1803 16.1467 89.6669 17.36C89.2003 18.5733 88.8269 19.8333 88.5469 21.14C88.2669 22.4 88.0803 23.6367 87.9869 24.85C87.8936 26.0167 87.8469 27.0667 87.8469 28C87.8469 32.2467 88.5469 35.35 89.9469 37.31C91.3936 39.27 93.4236 40.25 96.0369 40.25C98.1836 40.25 99.9336 39.5733 101.287 38.22C102.64 36.82 103.69 35.1633 104.437 33.25C105.23 31.29 105.767 29.2833 106.047 27.23C106.327 25.13 106.467 23.3567 106.467 21.91C106.467 18.5033 105.884 15.82 104.717 13.86C103.55 11.8533 101.614 10.85 98.9069 10.85Z" fill="#EDA1A1"/>
<path d="M132.417 50.47C129.757 50.47 127.867 49.9567 126.747 48.93C125.674 47.8567 125.137 46.2933 125.137 44.24C125.137 43.68 125.16 42.7467 125.207 41.44C125.3 40.0867 125.417 38.5 125.557 36.68C125.697 34.86 125.837 32.8767 125.977 30.73C126.163 28.5367 126.35 26.32 126.537 24.08C126.91 19.3667 127.167 15.54 127.307 12.6C127.493 9.66 127.633 7.35 127.727 5.67C127.867 3.57 128.007 2.24 128.147 1.68C128.287 1.07333 128.59 0.769998 129.057 0.769998C130.504 0.769998 131.973 0.746665 133.467 0.699999C135.007 0.606664 136.477 0.513331 137.877 0.419999C139.277 0.326667 140.583 0.256666 141.797 0.209997C143.057 0.116665 144.177 0.0699991 145.157 0.0699991C148.143 0.0699991 150.71 0.443332 152.857 1.19C155.003 1.93667 156.73 2.98667 158.037 4.34C159.39 5.69333 160.37 7.32666 160.977 9.24C161.63 11.1533 161.957 13.3 161.957 15.68C161.957 19.32 161.234 22.5633 159.787 25.41C158.34 28.2567 156.03 30.4267 152.857 31.92L158.737 40.32C159.81 41.9067 160.627 43.1433 161.187 44.03C161.747 44.87 162.027 45.5 162.027 45.92C162.027 46.2467 161.817 46.7133 161.397 47.32C161.024 47.88 160.44 48.4633 159.647 49.07C158.9 49.63 157.967 50.12 156.847 50.54C155.774 50.96 154.56 51.17 153.207 51.17C151.713 51.17 150.407 50.68 149.287 49.7C148.214 48.72 147.234 47.4367 146.347 45.85C145.507 44.2167 144.76 42.35 144.107 40.25C143.5 38.15 142.917 35.9567 142.357 33.67C140.677 33.5767 139.3 33.4133 138.227 33.18C138.087 35.2333 137.947 37.1933 137.807 39.06C137.667 40.9267 137.55 42.6067 137.457 44.1C137.363 45.5467 137.27 46.76 137.177 47.74C137.084 48.6733 137.037 49.2333 137.037 49.42C136.99 49.7933 136.897 50.0733 136.757 50.26C136.617 50.4 136.337 50.47 135.917 50.47H132.417ZM143.757 10.57C143.197 10.57 142.567 10.6167 141.867 10.71C141.167 10.7567 140.42 10.8267 139.627 10.92C139.533 12.5533 139.417 14.5133 139.277 16.8C139.184 19.04 139.043 21.4433 138.857 24.01C140.49 24.3833 141.913 24.57 143.127 24.57C144.573 24.57 145.74 24.29 146.627 23.73C147.56 23.17 148.283 22.4933 148.797 21.7C149.31 20.86 149.637 19.9733 149.777 19.04C149.964 18.1067 150.057 17.2667 150.057 16.52C150.057 14.6067 149.59 13.1367 148.657 12.11C147.723 11.0833 146.09 10.57 143.757 10.57Z" fill="#EDA1A1"/>
<path d="M206.404 45.92C206.404 46.2933 206.171 46.7833 205.704 47.39C205.284 47.95 204.678 48.51 203.884 49.07C203.138 49.63 202.251 50.12 201.224 50.54C200.244 50.96 199.194 51.17 198.074 51.17C196.348 51.17 194.831 50.6333 193.524 49.56C192.218 48.44 191.028 46.9233 189.954 45.01C188.928 43.0967 187.971 40.8333 187.084 38.22C186.198 35.56 185.288 32.69 184.354 29.61L181.694 31.36L180.364 49.42C180.318 49.7933 180.224 50.0733 180.084 50.26C179.944 50.4 179.664 50.47 179.244 50.47H175.394C172.734 50.47 170.844 49.9567 169.724 48.93C168.651 47.8567 168.114 46.2933 168.114 44.24C168.114 43.5867 168.138 42.6067 168.184 41.3C168.278 39.9467 168.394 38.3833 168.534 36.61C168.674 34.79 168.814 32.8067 168.954 30.66C169.141 28.5133 169.328 26.32 169.514 24.08C169.841 19.6 170.098 16.0533 170.284 13.44C170.518 10.8267 170.681 8.77333 170.774 7.28C170.868 5.74 170.938 4.62 170.984 3.92C171.031 3.17333 171.054 2.47333 171.054 1.82C171.054 1.12 171.428 0.769998 172.174 0.769998H176.024C177.518 0.769998 178.708 0.933332 179.594 1.26C180.528 1.54 181.251 1.96 181.764 2.52C182.278 3.08 182.628 3.78 182.814 4.62C183.001 5.41333 183.094 6.34667 183.094 7.42C183.094 8.49333 183.024 10.2433 182.884 12.67C182.791 15.05 182.628 17.7333 182.394 20.72C183.981 18.76 185.871 16.3333 188.064 13.44C190.304 10.5467 193.011 6.97667 196.184 2.73C196.324 2.54333 196.511 2.31 196.744 2.03C197.024 1.70333 197.304 1.4 197.584 1.12C197.911 0.839999 198.238 0.606666 198.564 0.419999C198.938 0.186666 199.288 0.0699991 199.614 0.0699991C200.221 0.0699991 200.921 0.396666 201.714 1.05C202.508 1.65667 203.254 2.42667 203.954 3.36C204.654 4.24666 205.238 5.18 205.704 6.16C206.218 7.09333 206.474 7.88667 206.474 8.54C206.474 9.89333 205.261 11.9233 202.834 14.63C200.408 17.29 196.931 20.37 192.404 23.87C193.198 25.2233 194.108 26.6933 195.134 28.28C196.161 29.82 197.188 31.4067 198.214 33.04C199.241 34.6267 200.244 36.19 201.224 37.73C202.204 39.2233 203.068 40.5767 203.814 41.79C204.608 42.9567 205.238 43.9133 205.704 44.66C206.171 45.4067 206.404 45.8267 206.404 45.92Z" fill="#EDA1A1"/>
</svg>
