<svg width="34" height="12" viewBox="0 0 34 12" fill="none" xmlns="http://www.w3.org/2000/svg">
<path d="M3.53215 8.81C3.75215 8.81 3.92715 8.73 4.05715 8.57C4.19715 8.41 4.31215 8.195 4.40215 7.925C4.49215 7.655 4.56215 7.345 4.61215 6.995C4.67215 6.635 4.72715 6.255 4.77715 5.855C4.79715 5.675 4.81715 5.465 4.83715 5.225C4.85715 4.975 4.87715 4.66 4.89715 4.28C4.92715 3.89 4.95715 3.41 4.98715 2.84C5.02715 2.26 5.07215 1.55 5.12215 0.709997C5.13215 0.569997 5.14715 0.474997 5.16715 0.424997C5.18715 0.374997 5.25215 0.349997 5.36215 0.349997H6.18715C6.52715 0.349997 6.79215 0.379997 6.98215 0.439997C7.18215 0.499997 7.33215 0.574998 7.43215 0.664998C7.53215 0.754998 7.59215 0.854998 7.61215 0.964997C7.63215 1.065 7.64215 1.165 7.64215 1.265C7.64215 1.365 7.63715 1.595 7.62715 1.955C7.61715 2.315 7.60215 2.735 7.58215 3.215C7.56215 3.685 7.53215 4.18 7.49215 4.7C7.46215 5.22 7.42715 5.69 7.38715 6.11C7.32715 6.68 7.23215 7.265 7.10215 7.865C6.98215 8.455 6.78215 8.995 6.50215 9.485C6.22215 9.975 5.84715 10.375 5.37715 10.685C4.91715 10.995 4.31715 11.15 3.57715 11.15C3.16715 11.15 2.79715 11.1 2.46715 11C2.14715 10.9 1.87215 10.765 1.64215 10.595C1.42215 10.415 1.25215 10.21 1.13215 9.98C1.01215 9.74 0.952148 9.49 0.952148 9.23C0.952148 8.99 0.997148 8.775 1.08715 8.585C1.18715 8.385 1.31715 8.22 1.47715 8.09C1.63715 7.96 1.81715 7.86 2.01715 7.79C2.22715 7.72 2.44215 7.685 2.66215 7.685C2.72215 7.685 2.76215 7.745 2.78215 7.865C2.81215 7.975 2.84715 8.105 2.88715 8.255C2.93715 8.395 3.00715 8.525 3.09715 8.645C3.18715 8.755 3.33215 8.81 3.53215 8.81Z" fill="#EA7171"/>
<path d="M14.3099 0.184998C15.0399 0.184998 15.6649 0.289997 16.1849 0.499997C16.7049 0.699997 17.1299 0.999997 17.4599 1.4C17.7899 1.79 18.0299 2.27 18.1799 2.84C18.3299 3.4 18.4049 4.04 18.4049 4.76C18.4049 5.16 18.3749 5.595 18.3149 6.065C18.2649 6.535 18.1649 7.01 18.0149 7.49C17.8749 7.96 17.6799 8.415 17.4299 8.855C17.1799 9.295 16.8549 9.685 16.4549 10.025C16.0649 10.365 15.5949 10.64 15.0449 10.85C14.4949 11.05 13.8449 11.15 13.0949 11.15C12.2649 11.15 11.5749 11.025 11.0249 10.775C10.4849 10.525 10.0499 10.19 9.71988 9.77C9.39988 9.34 9.16988 8.835 9.02988 8.255C8.89988 7.675 8.83488 7.055 8.83488 6.395C8.83488 5.615 8.92488 4.855 9.10488 4.115C9.28488 3.365 9.58488 2.7 10.0049 2.12C10.4349 1.54 10.9999 1.075 11.6999 0.724997C12.3999 0.364997 13.2699 0.184998 14.3099 0.184998ZM13.9949 2.51C13.6449 2.51 13.3399 2.575 13.0799 2.705C12.8299 2.825 12.6149 2.99 12.4349 3.2C12.2649 3.41 12.1249 3.645 12.0149 3.905C11.9149 4.165 11.8349 4.435 11.7749 4.715C11.7149 4.985 11.6749 5.25 11.6549 5.51C11.6349 5.76 11.6249 5.985 11.6249 6.185C11.6249 7.095 11.7749 7.76 12.0749 8.18C12.3849 8.6 12.8199 8.81 13.3799 8.81C13.8399 8.81 14.2149 8.665 14.5049 8.375C14.7949 8.075 15.0199 7.72 15.1799 7.31C15.3499 6.89 15.4649 6.46 15.5249 6.02C15.5849 5.57 15.6149 5.19 15.6149 4.88C15.6149 4.15 15.4899 3.575 15.2399 3.155C14.9899 2.725 14.5749 2.51 13.9949 2.51Z" fill="#EA7171"/>
<path d="M21.2239 11C20.6639 11 20.2639 10.89 20.0239 10.67C19.7839 10.45 19.6639 10.135 19.6639 9.725C19.6639 9.525 19.6789 9.185 19.7089 8.705C19.7389 8.215 19.7789 7.66 19.8289 7.04C19.8789 6.42 19.9289 5.765 19.9789 5.075C20.0289 4.385 20.0789 3.735 20.1289 3.125C20.1789 2.515 20.2189 1.98 20.2489 1.52C20.2789 1.06 20.2939 0.744997 20.2939 0.574997C20.2939 0.424997 20.3739 0.349997 20.5339 0.349997H21.3589C21.9689 0.349997 22.3789 0.479997 22.5889 0.739998C22.7989 0.999997 22.9039 1.385 22.9039 1.895C22.9039 1.945 22.8939 2.105 22.8739 2.375C22.8639 2.645 22.8439 2.985 22.8139 3.395C22.7839 3.805 22.7489 4.265 22.7089 4.775C22.6789 5.275 22.6439 5.79 22.6039 6.32C22.5739 6.85 22.5389 7.37 22.4989 7.88C22.4689 8.38 22.4389 8.835 22.4089 9.245C22.3789 9.655 22.3539 10 22.3339 10.28C22.3139 10.55 22.2989 10.715 22.2889 10.775C22.2789 10.855 22.2589 10.915 22.2289 10.955C22.1989 10.985 22.1389 11 22.0489 11H21.2239Z" fill="#EA7171"/>
<path d="M31.1007 11C30.6907 11 30.3857 10.94 30.1857 10.82C29.9857 10.7 29.8407 10.55 29.7507 10.37C29.2307 9.3 28.7407 8.275 28.2807 7.295C27.8307 6.315 27.3707 5.325 26.9007 4.325C26.9107 5.405 26.9257 6.48 26.9457 7.55C26.9657 8.62 26.9857 9.695 27.0057 10.775C27.0057 10.925 26.9257 11 26.7657 11H25.9407C25.3707 11 24.9657 10.89 24.7257 10.67C24.4957 10.44 24.3807 10.105 24.3807 9.665C24.3807 9.545 24.3857 9.345 24.3957 9.065C24.4157 8.775 24.4407 8.435 24.4707 8.045C24.5007 7.655 24.5307 7.23 24.5607 6.77C24.6007 6.3 24.6407 5.825 24.6807 5.345C24.7407 4.585 24.7907 3.955 24.8307 3.455C24.8707 2.955 24.9007 2.535 24.9207 2.195C24.9507 1.845 24.9707 1.55 24.9807 1.31C24.9907 1.06 25.0007 0.814997 25.0107 0.574997C25.0107 0.424997 25.0907 0.349997 25.2507 0.349997H26.4507C26.7807 0.349997 27.0507 0.389997 27.2607 0.469997C27.4707 0.539997 27.6407 0.639997 27.7707 0.769997C27.9107 0.899997 28.0207 1.05 28.1007 1.22C28.1807 1.38 28.2557 1.55 28.3257 1.73C28.5657 2.35 28.7757 2.885 28.9557 3.335C29.1457 3.785 29.3107 4.18 29.4507 4.52C29.5907 4.86 29.7107 5.155 29.8107 5.405C29.9207 5.655 30.0207 5.885 30.1107 6.095C30.2007 6.305 30.2907 6.51 30.3807 6.71C30.4707 6.9 30.5657 7.11 30.6657 7.34C30.6657 6.75 30.6607 6.145 30.6507 5.525C30.6507 4.895 30.6457 4.285 30.6357 3.695C30.6357 3.095 30.6307 2.52 30.6207 1.97C30.6207 1.42 30.6207 0.924998 30.6207 0.484997C30.6207 0.394997 30.7057 0.349997 30.8757 0.349997H31.7007C32.0307 0.349997 32.2907 0.384997 32.4807 0.454998C32.6807 0.514997 32.8357 0.609997 32.9457 0.739998C33.0557 0.859997 33.1257 1.01 33.1557 1.19C33.1957 1.37 33.2157 1.575 33.2157 1.805C33.2157 2.055 33.2007 2.44 33.1707 2.96C33.1407 3.47 33.1057 4.045 33.0657 4.685C33.0257 5.325 32.9807 5.99 32.9307 6.68C32.8807 7.36 32.8307 7.99 32.7807 8.57C32.7407 9.15 32.7007 9.645 32.6607 10.055C32.6307 10.455 32.6107 10.69 32.6007 10.76C32.6007 10.84 32.5707 10.9 32.5107 10.94C32.4607 10.98 32.4007 11 32.3307 11H31.1007Z" fill="#EA7171"/>
</svg>
