<svg width="193" height="14" viewBox="0 0 193 14" fill="none" xmlns="http://www.w3.org/2000/svg">
<path d="M5.972 5.58857C6.15333 5.80191 6.33467 6.02591 6.516 6.26057C6.69733 6.49524 6.82 6.72991 6.884 6.96457C6.90533 7.07124 6.90533 7.18324 6.884 7.30057C6.86267 7.41791 6.804 7.51924 6.708 7.60457C6.548 7.71124 6.37733 7.76457 6.196 7.76457C5.99333 7.76457 5.796 7.71657 5.604 7.62057C5.42267 7.52457 5.27333 7.42857 5.156 7.33257C4.97467 7.17257 4.80933 7.01257 4.66 6.85257C4.51067 6.68191 4.36133 6.51657 4.212 6.35657C4.09467 6.22857 3.96667 6.10057 3.828 5.97257C3.68933 5.84457 3.56667 5.70591 3.46 5.55657L1.876 7.30057C1.70533 7.48191 1.524 7.60991 1.332 7.68457C1.14 7.74857 0.958667 7.78057 0.788 7.78057C0.734667 7.78057 0.654667 7.76991 0.548 7.74857C0.345333 7.69524 0.206667 7.59924 0.132 7.46057C0.068 7.34324 0.0466667 7.20991 0.068 7.06057C0.0893333 6.91124 0.132 6.77791 0.196 6.66057C0.270667 6.53257 0.350667 6.41524 0.436 6.30857C0.532 6.20191 0.628 6.08991 0.724 5.97257C1.00133 5.66324 1.268 5.34324 1.524 5.01257C1.79067 4.67124 2.07867 4.34057 2.388 4.02057V3.14057C2.30267 3.15124 2.196 3.15657 2.068 3.15657C1.94 3.14591 1.78533 3.14057 1.604 3.14057C1.48667 3.14057 1.35333 3.14591 1.204 3.15657C1.05467 3.16724 0.905333 3.16191 0.756 3.14057C0.617333 3.11924 0.489333 3.07657 0.372 3.01257C0.254667 2.93791 0.164 2.82057 0.1 2.66057C0.0466667 2.54324 0.0146667 2.4099 0.004 2.26057C-0.00666667 2.11124 0.004 1.97257 0.036 1.84457C0.068 1.69524 0.148 1.59391 0.276 1.54057C0.414667 1.47657 0.542667 1.4339 0.66 1.41257C0.766667 1.39124 0.862667 1.38057 0.948 1.38057C0.98 1.38057 1.012 1.3859 1.044 1.39657C1.076 1.39657 1.108 1.39657 1.14 1.39657H2.436C2.45733 1.15124 2.50533 0.921905 2.58 0.708571C2.66533 0.484572 2.82533 0.329905 3.06 0.244572C3.24133 0.180572 3.40667 0.164572 3.556 0.196571C3.716 0.228572 3.85467 0.292572 3.972 0.388572C4.08933 0.484572 4.18533 0.607238 4.26 0.756572C4.33467 0.905905 4.38267 1.06057 4.404 1.22057C4.41467 1.25257 4.42 1.28457 4.42 1.31657C4.43067 1.33791 4.436 1.36457 4.436 1.39657H5.348C5.72133 1.39657 6.02 1.42324 6.244 1.47657C6.468 1.51924 6.65467 1.64724 6.804 1.86057C6.84667 1.92457 6.87867 2.01524 6.9 2.13257C6.92133 2.23924 6.92133 2.35124 6.9 2.46857C6.88933 2.57524 6.86267 2.67657 6.82 2.77257C6.77733 2.86857 6.724 2.9379 6.66 2.98057C6.57467 3.01257 6.47867 3.04991 6.372 3.09257C6.276 3.12457 6.18533 3.14057 6.1 3.14057C5.972 3.15124 5.85467 3.15657 5.748 3.15657C5.652 3.14591 5.54 3.14057 5.412 3.14057C5.22 3.14057 5.07067 3.14591 4.964 3.15657C4.85733 3.15657 4.72933 3.15124 4.58 3.14057C4.58 3.27924 4.58 3.36991 4.58 3.41257C4.58 3.44457 4.58 3.47657 4.58 3.50857C4.58 3.54057 4.58 3.58857 4.58 3.65257C4.58 3.71657 4.58 3.83924 4.58 4.02057C4.63333 4.06324 4.70267 4.14857 4.788 4.27657C4.87333 4.40457 4.95867 4.51124 5.044 4.59657C5.12933 4.68191 5.22 4.77791 5.316 4.88457C5.412 4.98057 5.51333 5.08724 5.62 5.20457C5.69467 5.27924 5.75867 5.34857 5.812 5.41257C5.86533 5.47657 5.91867 5.53524 5.972 5.58857ZM3.012 13.3646C2.57467 13.3646 2.22267 13.2686 1.956 13.0766C1.68933 12.8952 1.556 12.6819 1.556 12.4366V10.1326C1.53467 9.89791 1.53467 9.65791 1.556 9.41257C1.57733 9.18857 1.66267 9.00724 1.812 8.86857C1.972 8.72991 2.17467 8.66057 2.42 8.66057C2.47333 8.66057 2.56933 8.6659 2.708 8.67657C2.84667 8.67657 2.94267 8.68724 2.996 8.70857C3.13467 8.75124 3.24133 8.81524 3.316 8.90057C3.40133 8.98591 3.46533 9.08724 3.508 9.20457C3.55067 9.31124 3.57733 9.42857 3.588 9.55657C3.59867 9.67391 3.60933 9.79124 3.62 9.90857C3.62 9.95124 3.62 10.0526 3.62 10.2126C3.63067 10.3619 3.636 10.5272 3.636 10.7086C3.64667 10.8792 3.652 11.0392 3.652 11.1886C3.66267 11.3379 3.67333 11.4286 3.684 11.4606C3.716 11.4712 3.80133 11.4872 3.94 11.5086C4.08933 11.5192 4.36133 11.5246 4.756 11.5246C5.09733 11.5246 5.30533 11.5192 5.38 11.5086C5.46533 11.4979 5.51333 11.4926 5.524 11.4926H10.756C10.756 11.4926 10.788 11.5032 10.852 11.5246C10.9267 11.5459 11.0067 11.5832 11.092 11.6366C11.1773 11.6792 11.2573 11.7432 11.332 11.8286C11.4067 11.9032 11.4547 11.9939 11.476 12.1006C11.5293 12.5059 11.46 12.8206 11.268 13.0446C11.14 13.1939 11.0013 13.2846 10.852 13.3166C10.7027 13.3486 10.6227 13.3646 10.612 13.3646H3.012ZM11.14 5.50857V6.96457C11.1293 7.08191 11.1133 7.20457 11.092 7.33257C11.0707 7.44991 11.028 7.56724 10.964 7.68457C10.8893 7.82324 10.7987 7.92457 10.692 7.98857C10.5213 8.10591 10.3453 8.16457 10.164 8.16457C10.004 8.16457 9.85467 8.12191 9.716 8.03657C9.60933 7.97257 9.524 7.89257 9.46 7.79657C9.396 7.70057 9.34267 7.60991 9.3 7.52457C9.268 7.43924 9.24667 7.36457 9.236 7.30057C9.22533 7.22591 9.22 7.18857 9.22 7.18857V1.90857C9.22 1.85524 9.22533 1.73791 9.236 1.55657C9.25733 1.36457 9.3 1.20457 9.364 1.07657C9.47067 0.852572 9.68933 0.724572 10.02 0.692572C10.2013 0.671239 10.3667 0.681905 10.516 0.724572C10.676 0.767238 10.7987 0.836571 10.884 0.932571C10.948 1.0179 10.9907 1.10324 11.012 1.18857C11.044 1.26324 11.0707 1.34324 11.092 1.42857C11.124 1.53524 11.14 1.64724 11.14 1.76457C11.1507 1.88191 11.1507 1.99924 11.14 2.11657V3.71657C11.1827 3.71657 11.2627 3.72191 11.38 3.73257C11.4973 3.74324 11.62 3.75391 11.748 3.76457C11.8867 3.76457 12.0147 3.76991 12.132 3.78057C12.2493 3.79124 12.3293 3.8019 12.372 3.81257C12.5853 3.85524 12.7347 3.91924 12.82 4.00457C12.9053 4.07924 12.964 4.17524 12.996 4.29257C13.0173 4.40991 13.028 4.54857 13.028 4.70857C13.028 4.85791 12.996 4.98591 12.932 5.09257C12.804 5.30591 12.612 5.42857 12.356 5.46057C12.1 5.49257 11.8173 5.50857 11.508 5.50857H11.14Z" fill="black"/>
<path d="M23.1284 5.73257C22.3604 5.73257 21.6404 5.70591 20.9684 5.65257C20.3071 5.59924 19.7311 5.48191 19.2404 5.30057C18.7604 5.10857 18.3817 4.84191 18.1044 4.50057C17.8271 4.14857 17.6884 3.67924 17.6884 3.09257C17.6884 2.55924 17.8271 2.12191 18.1044 1.78057C18.3817 1.43924 18.7604 1.17257 19.2404 0.980572C19.7311 0.777905 20.3071 0.639238 20.9684 0.564571C21.6404 0.489905 22.3604 0.452572 23.1284 0.452572C23.8964 0.452572 24.6111 0.479238 25.2724 0.532572C25.9444 0.585905 26.5204 0.703238 27.0004 0.884572C27.4911 1.0659 27.8751 1.33257 28.1524 1.68457C28.4297 2.02591 28.5684 2.49524 28.5684 3.09257C28.5684 3.67924 28.4297 4.14857 28.1524 4.50057C27.8751 4.84191 27.4911 5.10857 27.0004 5.30057C26.5204 5.48191 25.9444 5.59924 25.2724 5.65257C24.6111 5.70591 23.8964 5.73257 23.1284 5.73257ZM23.1284 2.24457C22.7337 2.24457 22.3391 2.2499 21.9444 2.26057C21.5604 2.27124 21.2137 2.30857 20.9044 2.37257C20.5951 2.42591 20.3444 2.51124 20.1524 2.62857C19.9604 2.73524 19.8644 2.88991 19.8644 3.09257C19.8644 3.45524 20.1524 3.70057 20.7284 3.82857C21.3151 3.94591 22.1151 3.99391 23.1284 3.97257C23.5231 3.97257 23.9124 3.97257 24.2964 3.97257C24.6911 3.96191 25.0431 3.93524 25.3524 3.89257C25.6617 3.83924 25.9124 3.7539 26.1044 3.63657C26.2964 3.50857 26.3924 3.32724 26.3924 3.09257C26.3924 2.88991 26.2964 2.73524 26.1044 2.62857C25.9124 2.51124 25.6617 2.42591 25.3524 2.37257C25.0431 2.30857 24.6911 2.27124 24.2964 2.26057C23.9124 2.2499 23.5231 2.24457 23.1284 2.24457ZM27.5284 6.58057C27.7097 6.58057 27.8964 6.58591 28.0884 6.59657C28.2804 6.59657 28.4511 6.62324 28.6004 6.67657C28.7604 6.72991 28.8884 6.82057 28.9844 6.94857C29.0804 7.06591 29.1284 7.24724 29.1284 7.49257C29.1284 7.70591 29.0217 7.90857 28.8084 8.10057C28.6377 8.2499 28.4297 8.33524 28.1844 8.35657C27.9497 8.36724 27.7257 8.36724 27.5124 8.35657C27.4591 8.34591 27.4111 8.34057 27.3684 8.34057C27.3257 8.34057 27.2777 8.34057 27.2244 8.34057H18.1044C18.0297 8.34057 17.9391 8.33524 17.8324 8.32457C17.7257 8.30324 17.6191 8.26591 17.5124 8.21257C17.4164 8.14857 17.3311 8.06857 17.2564 7.97257C17.1817 7.86591 17.1444 7.72191 17.1444 7.54057C17.1444 7.23124 17.2457 6.99657 17.4484 6.83657C17.6617 6.66591 17.8911 6.58057 18.1364 6.58057H27.5284ZM18.2324 13.3806C18.2217 13.3806 18.2057 13.3699 18.1844 13.3486C18.0777 13.2632 18.0031 13.1459 17.9604 12.9966C17.9284 12.8472 17.9124 12.7139 17.9124 12.5966C17.9017 12.4046 17.8857 12.2126 17.8644 12.0206C17.8537 11.8286 17.8484 11.6419 17.8484 11.4606C17.8484 11.1832 17.8484 10.9326 17.8484 10.7086C17.8484 10.4846 17.8751 10.2392 17.9284 9.97257C17.9604 9.80191 18.0137 9.66857 18.0884 9.57257C18.1631 9.46591 18.2804 9.38057 18.4404 9.31657C18.7391 9.19924 19.0377 9.14057 19.3364 9.14057H26.7124C26.9151 9.15124 27.1231 9.16724 27.3364 9.18857C27.5497 9.20991 27.7524 9.26324 27.9444 9.34857C28.1577 9.43391 28.2964 9.55657 28.3604 9.71657C28.4351 9.86591 28.4831 10.0472 28.5044 10.2606C28.5151 10.4419 28.5204 10.6499 28.5204 10.8846C28.5311 11.1192 28.5311 11.3592 28.5204 11.6046C28.5097 11.8392 28.4937 12.0739 28.4724 12.3086C28.4511 12.5432 28.4137 12.7566 28.3604 12.9486C28.3284 13.0659 28.2911 13.1672 28.2484 13.2526C28.2057 13.3486 28.1204 13.4179 27.9924 13.4606C27.8751 13.5032 27.7524 13.5299 27.6244 13.5406C27.5071 13.5512 27.3897 13.5566 27.2724 13.5566L19.0964 13.5246C18.9577 13.5139 18.8084 13.5086 18.6484 13.5086C18.4884 13.5086 18.3497 13.4659 18.2324 13.3806ZM19.7524 11.5566C19.7524 11.6099 19.7524 11.6632 19.7524 11.7166C19.7631 11.7699 19.7844 11.8072 19.8164 11.8286C19.8377 11.8499 19.8697 11.8659 19.9124 11.8766C19.9657 11.8766 20.0191 11.8766 20.0724 11.8766C20.1257 11.8766 20.1897 11.8712 20.2644 11.8606H25.1124C25.2617 11.8712 25.4057 11.8819 25.5444 11.8926C25.6617 11.9032 25.7844 11.9086 25.9124 11.9086C26.0404 11.9086 26.1577 11.8979 26.2644 11.8766C26.3711 11.8659 26.4351 11.8339 26.4564 11.7806C26.4777 11.7272 26.4937 11.6526 26.5044 11.5566C26.5151 11.4712 26.5204 11.3752 26.5204 11.2686C26.5204 11.1512 26.4884 11.0499 26.4244 10.9646C26.3497 10.8792 26.2431 10.8366 26.1044 10.8366C25.9764 10.8259 25.8591 10.8259 25.7524 10.8366H21.4644C21.2297 10.8152 21.0004 10.8099 20.7764 10.8206C20.5524 10.8206 20.3231 10.8259 20.0884 10.8366C20.0031 10.8366 19.9337 10.8419 19.8804 10.8526C19.8377 10.8526 19.8057 10.9006 19.7844 10.9966C19.7631 11.0712 19.7524 11.1459 19.7524 11.2206C19.7524 11.2846 19.7524 11.3486 19.7524 11.4126C19.7631 11.4339 19.7631 11.4552 19.7524 11.4766C19.7524 11.4979 19.7524 11.5246 19.7524 11.5566Z" fill="black"/>
<path d="M38.8396 8.91657C39.1916 8.89524 39.453 8.92191 39.6236 8.99657C39.6983 9.03924 39.773 9.08191 39.8476 9.12457C39.933 9.15657 40.0023 9.20457 40.0556 9.26857C40.109 9.32191 40.1516 9.37524 40.1836 9.42857C40.2156 9.4819 40.237 9.54057 40.2476 9.60457C40.269 9.65791 40.285 9.71657 40.2956 9.78057C40.317 9.84457 40.3276 9.91924 40.3276 10.0046V12.2126C40.3276 12.5006 40.3116 12.7352 40.2796 12.9166C40.2583 13.0979 40.221 13.2419 40.1676 13.3486C40.1143 13.4552 40.0503 13.5352 39.9756 13.5886C39.901 13.6419 39.8156 13.6846 39.7196 13.7166C39.4636 13.8019 39.1916 13.8232 38.9036 13.7806C38.6263 13.7486 38.4236 13.5939 38.2956 13.3166C38.2636 13.2419 38.2423 13.1299 38.2316 12.9806C38.221 12.8312 38.2103 12.6712 38.1996 12.5006C38.1996 12.3192 38.1996 12.1326 38.1996 11.9406C38.2103 11.7486 38.2156 11.5726 38.2156 11.4126C38.2156 11.1992 38.1356 11.0659 37.9756 11.0126C37.8156 10.9486 37.6396 10.9166 37.4476 10.9166H35.2396C34.717 10.9166 34.1996 10.9219 33.6876 10.9326C33.1756 10.9432 32.653 10.9379 32.1196 10.9166C31.8316 10.9166 31.5276 10.9219 31.2076 10.9326C30.8983 10.9326 30.5996 10.8899 30.3116 10.8046C30.0663 10.7192 29.8956 10.5646 29.7996 10.3406C29.7036 10.1059 29.6876 9.86591 29.7516 9.62057C29.8156 9.44991 29.8956 9.31657 29.9916 9.22057C30.0876 9.12457 30.1996 9.05524 30.3276 9.01257C30.4556 8.95924 30.5943 8.93257 30.7436 8.93257C30.893 8.92191 31.053 8.91657 31.2236 8.91657H38.8396ZM29.7516 7.46057C29.645 7.39657 29.5543 7.27924 29.4796 7.10857C29.4263 6.99124 29.3943 6.87924 29.3836 6.77257C29.3836 6.66591 29.3943 6.55924 29.4156 6.45257C29.4796 6.21791 29.5703 6.00457 29.6876 5.81257C29.7623 5.73791 29.8316 5.65257 29.8956 5.55657C29.9703 5.46057 30.045 5.36991 30.1196 5.28457C30.2156 5.19924 30.2956 5.12457 30.3596 5.06057C30.4343 4.98591 30.4983 4.90591 30.5516 4.82057L31.1116 4.16457C31.197 4.03657 31.2823 3.91391 31.3676 3.79657C31.4636 3.67924 31.5596 3.56191 31.6556 3.44457C31.6876 3.39124 31.7196 3.34857 31.7516 3.31657C31.7943 3.27391 31.8316 3.22591 31.8636 3.17257C31.917 3.11924 31.9596 3.07124 31.9916 3.02857C32.0343 2.97524 32.0823 2.92191 32.1356 2.86857C32.1783 2.80457 32.2103 2.75124 32.2316 2.70857C32.2636 2.65524 32.301 2.6019 32.3436 2.54857C32.3543 2.49524 32.365 2.44191 32.3756 2.38857C32.3863 2.33524 32.3916 2.28191 32.3916 2.22857C32.413 2.12191 32.4236 2.02591 32.4236 1.94057C32.4343 1.85524 32.4396 1.7699 32.4396 1.68457C32.461 1.50324 32.4983 1.33257 32.5516 1.17257C32.5943 1.05524 32.6743 0.943238 32.7916 0.836572C32.8663 0.804571 32.9463 0.772572 33.0316 0.740572C33.1276 0.708572 33.2343 0.692572 33.3516 0.692572C33.5116 0.692572 33.6716 0.719238 33.8316 0.772572C33.9276 0.793905 33.997 0.831239 34.0396 0.884572C34.093 0.927239 34.1463 0.991238 34.1996 1.07657C34.2743 1.30057 34.2956 1.51924 34.2636 1.73257C34.2316 1.91391 34.253 2.13791 34.3276 2.40457C34.381 2.56457 34.4716 2.70857 34.5996 2.83657C34.909 3.15657 35.1916 3.50324 35.4476 3.87657C35.7143 4.24991 35.9863 4.61791 36.2636 4.98057C36.3383 5.09791 36.413 5.21524 36.4876 5.33257C36.573 5.44991 36.6583 5.56724 36.7436 5.68457C36.8076 5.80191 36.8663 5.92991 36.9196 6.06857C36.9836 6.19657 37.0263 6.32457 37.0476 6.45257C37.101 6.69791 37.0743 6.90057 36.9676 7.06057C36.9143 7.15657 36.8556 7.23124 36.7916 7.28457C36.7276 7.33791 36.653 7.38591 36.5676 7.42857C36.4823 7.44991 36.397 7.47124 36.3116 7.49257C36.2263 7.50324 36.1303 7.49791 36.0236 7.47657C35.821 7.45524 35.645 7.38057 35.4956 7.25257C35.2823 7.03924 35.085 6.82591 34.9036 6.61257C34.7223 6.39924 34.557 6.18057 34.4076 5.95657L33.3996 4.66057C33.3036 4.76724 33.213 4.86324 33.1276 4.94857C33.0423 5.02324 32.957 5.10324 32.8716 5.18857C32.8076 5.26324 32.733 5.34324 32.6476 5.42857C32.573 5.51391 32.4876 5.59924 32.3916 5.68457C32.3063 5.79124 32.221 5.88724 32.1356 5.97257C32.061 6.04724 31.9916 6.12724 31.9276 6.21257C31.8423 6.30857 31.7676 6.39924 31.7036 6.48457C31.6503 6.55924 31.597 6.62324 31.5436 6.67657C31.4796 6.72991 31.4263 6.78324 31.3836 6.83657C31.3516 6.88991 31.3303 6.92191 31.3196 6.93257C31.2663 6.99657 31.2023 7.05524 31.1276 7.10857C31.0636 7.16191 30.9996 7.22057 30.9356 7.28457C30.8716 7.33791 30.797 7.38057 30.7116 7.41257C30.637 7.44457 30.5516 7.46591 30.4556 7.47657C30.413 7.49791 30.3596 7.51391 30.2956 7.52457C30.2316 7.52457 30.173 7.52457 30.1196 7.52457C30.0556 7.52457 29.9916 7.51924 29.9276 7.50857C29.8743 7.48724 29.8156 7.47124 29.7516 7.46057ZM40.5836 6.83657C40.5623 7.08191 40.477 7.31657 40.3276 7.54057C40.1783 7.75391 39.9543 7.86057 39.6556 7.86057C39.4316 7.86057 39.2503 7.81257 39.1116 7.71657C38.9836 7.60991 38.8876 7.47657 38.8236 7.31657C38.7596 7.15657 38.717 6.98057 38.6956 6.78857C38.6743 6.59657 38.6636 6.40457 38.6636 6.21257V2.27657C38.6636 2.05257 38.6636 1.8179 38.6636 1.57257C38.6743 1.32724 38.7436 1.09791 38.8716 0.884572C38.989 0.692572 39.165 0.580572 39.3996 0.548572C39.645 0.505905 39.8636 0.521905 40.0556 0.596572C40.1836 0.671238 40.285 0.767238 40.3596 0.884572C40.4343 0.991239 40.4876 1.10857 40.5196 1.23657C40.5516 1.36457 40.5676 1.4979 40.5676 1.63657C40.5783 1.77524 40.5836 1.90324 40.5836 2.02057C40.605 2.83124 40.6103 3.63124 40.5996 4.42057C40.589 5.20991 40.5836 6.01524 40.5836 6.83657Z" fill="black"/>
<path d="M51.9571 12.3246C52.1171 12.3459 52.2611 12.3939 52.3891 12.4686C52.5171 12.5326 52.6078 12.6552 52.6611 12.8366C52.7891 13.2312 52.6505 13.5192 52.2451 13.7006C52.1278 13.7539 52.0051 13.7859 51.8771 13.7966C51.7491 13.8072 51.6265 13.8126 51.5091 13.8126H44.1491C43.9358 13.8126 43.7171 13.8072 43.4931 13.7966C43.2691 13.7966 43.0398 13.7912 42.8051 13.7806C42.5918 13.7699 42.4105 13.6846 42.2611 13.5246C42.1118 13.3646 42.0265 13.1566 42.0051 12.9006L41.9571 11.7166C41.9465 11.5992 41.9465 11.4552 41.9571 11.2846C41.9678 11.1139 42.0211 10.9752 42.1171 10.8686C42.2665 10.6979 42.4638 10.5912 42.7091 10.5486C42.9545 10.5059 43.1945 10.4846 43.4291 10.4846C43.5785 10.4846 43.8238 10.4846 44.1651 10.4846C44.5065 10.4846 44.9705 10.4899 45.5571 10.5006C46.1438 10.5006 46.8691 10.5006 47.7331 10.5006C48.6078 10.5006 49.6478 10.5006 50.8531 10.5006V9.89257H43.0771C42.9705 9.89257 42.8745 9.89257 42.7891 9.89257C42.7038 9.89257 42.6238 9.88191 42.5491 9.86057C42.4531 9.82857 42.3678 9.80191 42.2931 9.78057C42.2185 9.75924 42.1545 9.70591 42.1011 9.62057C41.9518 9.37524 41.9145 9.13524 41.9891 8.90057C42.0211 8.80457 42.0691 8.72991 42.1331 8.67657C42.1971 8.62324 42.2665 8.58057 42.3411 8.54857C42.4265 8.51657 42.5118 8.49524 42.5971 8.48457C42.6825 8.4739 42.7518 8.46324 42.8051 8.45257C42.9651 8.42057 43.1305 8.40457 43.3011 8.40457C43.5358 8.40457 43.8025 8.40457 44.1011 8.40457C44.4105 8.40457 44.8371 8.40991 45.3811 8.42057C45.9358 8.42057 46.6558 8.42057 47.5411 8.42057C48.4371 8.42057 49.5945 8.42057 51.0131 8.42057C51.5571 8.42057 51.9678 8.51124 52.2451 8.69257C52.5331 8.86324 52.6771 9.14591 52.6771 9.54057V10.7246C52.6771 10.8739 52.6398 11.0286 52.5651 11.1886C52.5011 11.3379 52.3838 11.4659 52.2132 11.5726C52.0851 11.6579 51.9518 11.7059 51.8131 11.7166C51.6745 11.7166 51.5358 11.7166 51.3971 11.7166H43.9091V12.3246H51.9571ZM42.0211 2.72457C42.0211 2.28724 42.1438 1.91924 42.3891 1.62057C42.6451 1.31124 43.0025 1.0659 43.4611 0.884572C43.9305 0.692572 44.5011 0.553905 45.1731 0.468572C45.8451 0.383238 46.6078 0.340571 47.4611 0.340571C48.2718 0.340571 49.0131 0.377905 49.6851 0.452572C50.3571 0.516572 50.9331 0.639238 51.4131 0.820572C51.8931 0.991238 52.2611 1.23124 52.5171 1.54057C52.7838 1.84991 52.9171 2.24457 52.9171 2.72457C52.9171 3.20457 52.8051 3.59924 52.5812 3.90857C52.3571 4.21791 52.0158 4.46324 51.5571 4.64457C51.0985 4.81524 50.5278 4.93791 49.8451 5.01257C49.1625 5.07657 48.3678 5.10857 47.4611 5.10857C46.7038 5.10857 45.9945 5.07657 45.3331 5.01257C44.6825 4.93791 44.1065 4.81524 43.6051 4.64457C43.1145 4.46324 42.7251 4.21791 42.4371 3.90857C42.1598 3.59924 42.0211 3.20457 42.0211 2.72457ZM42.6451 5.81257C42.7305 5.80191 42.8265 5.79657 42.9331 5.79657C43.0398 5.78591 43.1518 5.78057 43.2691 5.78057H47.1891C47.7545 5.76991 48.3091 5.76457 48.8531 5.76457C49.3118 5.76457 49.7918 5.76457 50.2931 5.76457C50.7945 5.76457 51.2265 5.76991 51.5891 5.78057H51.6691C51.8825 5.79124 52.0958 5.79657 52.3091 5.79657C52.5225 5.79657 52.7358 5.83924 52.9492 5.92457C53.0985 5.97791 53.2158 6.06857 53.3011 6.19657C53.3971 6.32457 53.4451 6.46857 53.4451 6.62857C53.4451 6.89524 53.3385 7.11924 53.1251 7.30057C52.9545 7.44991 52.7465 7.53524 52.5011 7.55657C52.2558 7.57791 52.0265 7.57791 51.8131 7.55657H42.6291C42.6185 7.55657 42.5705 7.55657 42.4851 7.55657C42.3998 7.55657 42.2985 7.54591 42.1811 7.52457C42.0745 7.50324 41.9571 7.47124 41.8291 7.42857C41.7118 7.38591 41.6158 7.32191 41.5411 7.23657C41.4131 7.10857 41.3491 6.92724 41.3491 6.69257C41.3491 6.46857 41.4185 6.28724 41.5571 6.14857C41.6958 6.00991 41.8398 5.92991 41.9891 5.90857C42.1385 5.87657 42.2931 5.84991 42.4531 5.82857C42.4851 5.82857 42.5171 5.82857 42.5491 5.82857C42.5811 5.81791 42.6131 5.81257 42.6451 5.81257ZM50.7251 2.72457C50.7251 2.55391 50.6238 2.41524 50.4211 2.30857C50.2291 2.20191 49.9785 2.12191 49.6691 2.06857C49.3598 2.00457 49.0078 1.9619 48.6131 1.94057C48.2291 1.91924 47.8451 1.90857 47.4611 1.90857C47.0771 1.90857 46.6985 1.91924 46.3251 1.94057C45.9518 1.9619 45.6158 2.00457 45.3171 2.06857C45.0185 2.12191 44.7731 2.20191 44.5812 2.30857C44.3998 2.41524 44.3091 2.55391 44.3091 2.72457C44.3091 2.87391 44.3998 2.99657 44.5812 3.09257C44.7625 3.18857 45.0025 3.26324 45.3011 3.31657C45.5998 3.36991 45.9305 3.40724 46.2931 3.42857C46.6665 3.44991 47.0451 3.46057 47.4291 3.46057C47.8131 3.46057 48.1971 3.46057 48.5812 3.46057C48.9758 3.44991 49.3331 3.42324 49.6531 3.38057C49.9731 3.33791 50.2291 3.26857 50.4211 3.17257C50.6238 3.06591 50.7251 2.91657 50.7251 2.72457Z" fill="black"/>
<path d="M62.8923 7.50857C62.8176 7.51924 62.6469 7.52457 62.3803 7.52457C62.1243 7.52457 61.8469 7.52457 61.5483 7.52457C61.2496 7.51391 60.9669 7.50857 60.7003 7.50857C60.4336 7.50857 60.2576 7.50857 60.1723 7.50857H60.1563C59.9643 7.50857 59.7723 7.50857 59.5803 7.50857C59.3989 7.49791 59.2229 7.48191 59.0523 7.46057C58.8816 7.42857 58.7269 7.38057 58.5883 7.31657C58.4496 7.25257 58.3376 7.15657 58.2523 7.02857C58.1563 6.88991 58.0869 6.71391 58.0443 6.50057C58.0123 6.28724 57.9856 6.08457 57.9643 5.89257C57.9536 5.68991 57.9483 5.51391 57.9483 5.36457C57.9589 5.21524 57.9643 5.13524 57.9643 5.12457V4.77257C57.9643 4.65524 57.9643 4.52191 57.9643 4.37257C57.9643 4.22324 57.9696 4.05791 57.9803 3.87657C57.9803 3.68457 57.9803 3.49791 57.9803 3.31657C57.9909 3.12457 57.9963 2.95391 57.9963 2.80457V2.29257C57.9963 2.26057 57.9963 2.2019 57.9963 2.11657C57.9963 2.03124 58.0016 1.94057 58.0123 1.84457C58.0229 1.73791 58.0389 1.63657 58.0603 1.54057C58.0816 1.4339 58.1136 1.34857 58.1563 1.28457C58.2523 1.13524 58.3483 1.02857 58.4443 0.964572C58.5509 0.889905 58.6843 0.836572 58.8443 0.804572C58.8976 0.793905 58.9776 0.788571 59.0843 0.788571C59.1909 0.777905 59.2923 0.767238 59.3883 0.756572C59.5056 0.745905 59.6283 0.740572 59.7563 0.740572H63.3723C63.6069 0.740572 63.8523 0.761905 64.1083 0.804572C64.375 0.836572 64.6096 0.916571 64.8123 1.04457C64.9723 1.14057 65.0843 1.26324 65.1483 1.41257C65.2123 1.56191 65.2549 1.7219 65.2763 1.89257C65.2976 2.06324 65.3029 2.23924 65.2923 2.42057C65.2816 2.59124 65.2763 2.75124 65.2763 2.90057C65.2763 3.07124 65.271 3.24191 65.2603 3.41257C65.2603 3.57257 65.2656 3.73791 65.2763 3.90857V4.78857C65.2656 4.84191 65.2603 4.90057 65.2603 4.96457C65.271 5.02857 65.2763 5.09257 65.2763 5.15657C65.2549 5.29524 65.2496 5.43391 65.2603 5.57257C65.271 5.70057 65.2763 5.83924 65.2763 5.98857C65.2763 6.10591 65.2656 6.23391 65.2443 6.37257C65.2336 6.50057 65.2016 6.63391 65.1483 6.77257C65.1056 6.90057 65.0416 7.01791 64.9563 7.12457C64.8816 7.23124 64.7803 7.30591 64.6523 7.34857C64.3749 7.46591 64.0816 7.52457 63.7723 7.52457C63.4736 7.51391 63.1803 7.50857 62.8923 7.50857ZM67.8363 9.14057C68.1563 9.12991 68.4069 9.15657 68.5883 9.22057C68.7803 9.28457 68.9296 9.36991 69.0363 9.47657C69.1429 9.58324 69.2123 9.70057 69.2443 9.82857C69.2763 9.95657 69.2923 10.0846 69.2923 10.2126V12.0686C69.3136 12.3032 69.3136 12.5379 69.2923 12.7726C69.2709 12.9966 69.1803 13.1779 69.0203 13.3166C68.8709 13.4552 68.6736 13.5246 68.4283 13.5246C68.3749 13.5246 68.2789 13.5192 68.1403 13.5086C68.0016 13.5086 67.9056 13.4979 67.8523 13.4766C67.7136 13.4339 67.6016 13.3699 67.5163 13.2846C67.4416 13.1992 67.3829 13.1032 67.3403 12.9966C67.2976 12.8899 67.271 12.7779 67.2603 12.6606C67.2496 12.5326 67.2389 12.4099 67.2283 12.2926C67.2283 12.2499 67.2229 12.1699 67.2123 12.0526C67.2123 11.9246 67.2069 11.7966 67.1963 11.6686C67.1963 11.5299 67.1909 11.4019 67.1803 11.2846C67.1803 11.1672 67.175 11.0872 67.1643 11.0446C67.1323 11.0339 67.0416 11.0232 66.8923 11.0126C66.7536 11.0019 66.4869 10.9966 66.0923 10.9966C65.7509 10.9966 65.5376 11.0019 65.4523 11.0126C65.3776 11.0126 65.3349 11.0179 65.3243 11.0286H59.5483L59.5323 11.0126C59.5323 11.0126 59.4949 11.0019 59.4203 10.9806C59.3563 10.9592 59.2816 10.9272 59.1963 10.8846C59.1109 10.8419 59.0256 10.7832 58.9403 10.7086C58.8656 10.6339 58.8229 10.5379 58.8123 10.4206C58.7589 10.0152 58.8283 9.69524 59.0203 9.46057C59.1483 9.31124 59.2869 9.22591 59.4363 9.20457C59.5856 9.17257 59.6656 9.15657 59.6763 9.15657L67.8363 9.14057ZM67.3083 5.12457C66.9989 5.10324 66.7216 5.08724 66.4763 5.07657C66.2309 5.05524 66.039 4.93791 65.9003 4.72457C65.8363 4.61791 65.8043 4.48457 65.8043 4.32457C65.8043 4.16457 65.8149 4.02591 65.8363 3.90857C65.8683 3.79124 65.9269 3.69524 66.0123 3.62057C66.0976 3.53524 66.2469 3.46591 66.4603 3.41257C66.5029 3.40191 66.5829 3.39657 66.7003 3.39657C66.8176 3.38591 66.9403 3.37524 67.0683 3.36457C67.2069 3.35391 67.3349 3.34857 67.4523 3.34857C67.5696 3.33791 67.6496 3.33257 67.6923 3.33257V1.95657C67.6816 1.83924 67.6763 1.72191 67.6763 1.60457C67.6869 1.48724 67.7083 1.36991 67.7403 1.25257C67.7616 1.16724 67.783 1.08724 67.8043 1.01257C67.8256 0.937905 67.8736 0.857905 67.9483 0.772572C68.0336 0.665905 68.1509 0.591238 68.3003 0.548572C68.4603 0.505905 68.6309 0.495238 68.8123 0.516572C69.1536 0.569905 69.3723 0.703238 69.4683 0.916572C69.5323 1.04457 69.5696 1.20457 69.5803 1.39657C69.6016 1.5779 69.6123 1.6899 69.6123 1.73257V6.94857H69.5963C69.5963 6.95924 69.591 6.99657 69.5803 7.06057C69.5696 7.12457 69.5483 7.20457 69.5163 7.30057C69.4843 7.38591 69.4363 7.47657 69.3723 7.57257C69.3083 7.66857 69.2229 7.74857 69.1163 7.81257C68.9669 7.89791 68.8176 7.94057 68.6683 7.94057C68.4869 7.94057 68.3109 7.88191 68.1403 7.76457C68.0123 7.67924 67.9216 7.57257 67.8683 7.44457C67.8043 7.32724 67.7616 7.20991 67.7403 7.09257C67.7189 6.97524 67.703 6.85791 67.6923 6.74057V5.12457H67.3083ZM60.8443 2.74057C60.7483 2.74057 60.6576 2.74057 60.5723 2.74057C60.4976 2.74057 60.4283 2.75124 60.3643 2.77257C60.2149 2.78324 60.0923 2.84724 59.9963 2.96457C59.9536 3.01791 59.9269 3.09791 59.9163 3.20457C59.9163 3.31124 59.9163 3.37524 59.9163 3.39657V4.06857C59.9056 4.15391 59.9003 4.23391 59.9003 4.30857C59.9003 4.37257 59.9003 4.43124 59.9003 4.48457V4.67657C59.9003 4.67657 59.9003 4.70857 59.9003 4.77257C59.9003 4.83657 59.9003 4.91124 59.9003 4.99657C59.9109 5.08191 59.9269 5.16724 59.9483 5.25257C59.9696 5.33791 60.0069 5.41257 60.0603 5.47657C60.1456 5.58324 60.2843 5.64724 60.4763 5.66857C60.6683 5.67924 60.8603 5.68457 61.0523 5.68457H61.0683C61.3456 5.67391 61.5749 5.67391 61.7563 5.68457C61.9376 5.68457 62.1723 5.68457 62.4603 5.68457C62.5456 5.68457 62.6309 5.68991 62.7163 5.70057C62.8123 5.70057 62.9029 5.68991 62.9883 5.66857C63.0736 5.65791 63.1323 5.63124 63.1643 5.58857C63.1963 5.54591 63.2229 5.49257 63.2443 5.42857C63.2656 5.34324 63.2763 5.27391 63.2763 5.22057C63.3189 5.01791 63.3403 4.78857 63.3403 4.53257C63.3403 4.36191 63.3403 4.19124 63.3403 4.02057C63.3509 3.84991 63.3509 3.67924 63.3403 3.50857C63.3296 3.42324 63.3243 3.33791 63.3243 3.25257C63.3349 3.16724 63.3296 3.08191 63.3083 2.99657C63.2656 2.87924 63.1963 2.81524 63.1003 2.80457C63.0043 2.78324 62.9083 2.77257 62.8123 2.77257L60.8443 2.74057Z" fill="black"/>
<path d="M72.3769 3.34857C72.1956 3.34857 71.9876 3.32724 71.7529 3.28457C71.5289 3.23124 71.3529 3.10857 71.2249 2.91657C71.1502 2.78857 71.1022 2.64457 71.0809 2.48457C71.0596 2.32457 71.0702 2.16991 71.1129 2.02057C71.1982 1.72191 71.3956 1.50324 71.7049 1.36457C71.7689 1.34324 71.8329 1.32191 71.8969 1.30057C71.9609 1.27924 72.0302 1.25791 72.1049 1.23657C72.3076 1.18324 72.4729 1.15657 72.6009 1.15657C72.7396 1.1459 72.9156 1.13524 73.1289 1.12457C73.2249 1.12457 73.2996 1.12457 73.3529 1.12457C73.4062 1.12457 73.4756 1.11924 73.5609 1.10857C73.6462 1.10857 73.7049 1.10857 73.7369 1.10857C73.7689 1.09791 73.8329 1.09257 73.9289 1.09257C73.9822 1.09257 74.1156 1.09257 74.3289 1.09257C74.5422 1.09257 74.7876 1.09257 75.0649 1.09257C75.3529 1.09257 75.6569 1.09791 75.9769 1.10857C76.2969 1.10857 76.5956 1.10857 76.8729 1.10857C77.1609 1.10857 77.4062 1.11391 77.6089 1.12457C77.8222 1.12457 77.9556 1.12457 78.0089 1.12457C78.1689 1.13524 78.3342 1.14057 78.5049 1.14057C78.6756 1.14057 78.8462 1.14057 79.0169 1.14057C79.2089 1.14057 79.3956 1.1459 79.5769 1.15657C79.7689 1.16724 79.9609 1.18324 80.1529 1.20457C80.2382 1.22591 80.3236 1.24191 80.4089 1.25257C80.5049 1.26324 80.5956 1.29524 80.6809 1.34857C80.7982 1.41257 80.8889 1.50857 80.9529 1.63657C81.0169 1.7539 81.0649 1.88724 81.0969 2.03657C81.1396 2.17524 81.1662 2.31924 81.1769 2.46857C81.1876 2.6179 81.1929 2.75124 81.1929 2.86857C81.1929 3.01791 81.1929 3.16191 81.1929 3.30057C81.2036 3.43924 81.2089 3.58324 81.2089 3.73257C81.2196 3.93524 81.2249 4.16991 81.2249 4.43657C81.2249 4.70324 81.2196 4.93791 81.2089 5.14057C81.1982 5.57791 81.1876 6.00991 81.1769 6.43657C81.1769 6.85257 81.1769 7.27924 81.1769 7.71657C81.1769 7.88724 81.1609 8.05791 81.1289 8.22857C81.0969 8.38857 81.0276 8.54324 80.9209 8.69257C80.8036 8.8419 80.6596 8.94857 80.4889 9.01257C80.3182 9.06591 80.1422 9.06591 79.9609 9.01257C79.7476 8.95924 79.5876 8.86857 79.4809 8.74057C79.3849 8.60191 79.3102 8.44724 79.2569 8.27657C79.2142 8.09524 79.1876 7.90857 79.1769 7.71657C79.1662 7.51391 79.1502 7.32724 79.1289 7.15657C79.0649 6.70857 79.0329 6.27124 79.0329 5.84457C79.0436 5.59924 79.0382 5.33257 79.0169 5.04457C78.9956 4.74591 78.9849 4.47924 78.9849 4.24457C78.9849 4.06324 78.9742 3.89257 78.9529 3.73257C78.9316 3.56191 78.8462 3.43391 78.6969 3.34857C78.6329 3.31657 78.5582 3.30057 78.4729 3.30057C78.3876 3.30057 78.2862 3.30057 78.1689 3.30057H77.8329C77.7796 3.31124 77.7262 3.31657 77.6729 3.31657C77.6196 3.30591 77.5662 3.30057 77.5129 3.30057H75.8169C75.6036 3.30057 75.4169 3.31124 75.2569 3.33257C75.1076 3.34324 74.9262 3.34857 74.7129 3.34857C74.4996 3.34857 74.3076 3.34857 74.1369 3.34857C73.9769 3.33791 73.7902 3.34324 73.5769 3.36457C73.4916 3.37524 73.4222 3.37524 73.3689 3.36457C73.3262 3.35391 73.2622 3.34857 73.1769 3.34857H72.3769ZM81.2729 10.4206C81.3049 10.4312 81.3369 10.4366 81.3689 10.4366C81.4009 10.4259 81.4329 10.4206 81.4649 10.4206C81.6462 10.4419 81.8116 10.4792 81.9609 10.5326C82.1209 10.5752 82.2756 10.6606 82.4249 10.7886C82.5742 10.9379 82.6489 11.1246 82.6489 11.3486C82.6489 11.4659 82.6276 11.5939 82.5849 11.7326C82.5529 11.8606 82.5049 11.9619 82.4409 12.0366C82.3556 12.1219 82.2489 12.1859 82.1209 12.2286C81.9929 12.2712 81.8702 12.3032 81.7529 12.3246C81.6356 12.3352 81.5289 12.3406 81.4329 12.3406C81.3476 12.3406 81.2996 12.3406 81.2889 12.3406H72.3289C72.2756 12.3406 72.2222 12.3459 72.1689 12.3566C72.1156 12.3566 72.0622 12.3566 72.0089 12.3566C71.7849 12.3672 71.5449 12.3672 71.2889 12.3566C71.0329 12.3352 70.8142 12.2499 70.6329 12.1006C70.4089 11.8979 70.2969 11.6686 70.2969 11.4126C70.2969 11.2526 70.3449 11.0872 70.4409 10.9166C70.5369 10.7459 70.6649 10.6286 70.8249 10.5646C71.0382 10.4792 71.2569 10.4366 71.4809 10.4366C71.7156 10.4366 71.9502 10.4312 72.1849 10.4206H72.2649C72.4889 10.4206 72.6969 10.4206 72.8889 10.4206C73.0809 10.4099 73.2676 10.4046 73.4489 10.4046C73.6302 10.4046 73.8169 10.4099 74.0089 10.4206C74.2009 10.4206 74.4196 10.4206 74.6649 10.4206L74.6489 6.98057C74.6489 6.88457 74.6649 6.78324 74.6969 6.67657C74.7182 6.59124 74.7556 6.50057 74.8089 6.40457C74.8729 6.30857 74.9636 6.21791 75.0809 6.13257C75.2196 6.03657 75.3849 5.97791 75.5769 5.95657C75.7689 5.93524 75.9556 5.95657 76.1369 6.02057C76.3182 6.07391 76.4729 6.16991 76.6009 6.30857C76.7289 6.43657 76.7929 6.59657 76.7929 6.78857L76.8249 10.4206C77.4222 10.4206 77.9929 10.4152 78.5369 10.4046C79.0809 10.3939 79.6302 10.3992 80.1849 10.4206C80.3769 10.4312 80.5636 10.4312 80.7449 10.4206C80.9262 10.3992 81.1022 10.3992 81.2729 10.4206Z" fill="black"/>
<path d="M97.61 12.1326C97.7807 12.1432 97.9301 12.1859 98.0581 12.2606C98.1861 12.3246 98.2767 12.4419 98.33 12.6126C98.4474 13.0072 98.3087 13.2739 97.914 13.4126C97.786 13.4659 97.6527 13.4979 97.5141 13.5086C97.3861 13.5192 97.2687 13.5246 97.162 13.5246H89.882C89.6687 13.5246 89.4447 13.5246 89.2101 13.5246C88.9754 13.5246 88.7407 13.5192 88.5061 13.5086C88.2181 13.4979 88.0154 13.4072 87.898 13.2366C87.7914 13.0659 87.7274 12.8579 87.706 12.6126L87.6421 11.5566C87.6314 11.4392 87.6314 11.3006 87.6421 11.1406C87.6634 10.9699 87.722 10.8259 87.818 10.7086C87.9674 10.5592 88.138 10.4632 88.33 10.4206C88.522 10.3779 88.7354 10.3566 88.97 10.3566H89.466C89.5194 10.3566 89.562 10.3619 89.594 10.3726C89.626 10.3726 89.658 10.3726 89.69 10.3726H96.5061V9.81257H89.5301C89.4767 9.81257 89.418 9.81257 89.354 9.81257C89.3007 9.80191 89.242 9.80191 89.178 9.81257H88.7941C88.6874 9.81257 88.5914 9.81257 88.5061 9.81257C88.4207 9.81257 88.3354 9.80191 88.2501 9.78057C88.1541 9.75924 88.0634 9.73791 87.9781 9.71657C87.9034 9.69524 87.8394 9.64191 87.786 9.55657C87.722 9.43924 87.6794 9.32724 87.6581 9.22057C87.6367 9.11391 87.6474 8.99657 87.69 8.86857C87.722 8.78324 87.7701 8.71924 87.8341 8.67657C87.8981 8.62324 87.9727 8.58057 88.0581 8.54857C88.1434 8.51657 88.2234 8.49524 88.298 8.48457C88.3834 8.46324 88.458 8.44724 88.522 8.43657C88.6074 8.42591 88.6874 8.42057 88.762 8.42057C88.8474 8.40991 88.9327 8.40457 89.0181 8.40457H89.29C89.3434 8.41524 89.3914 8.42057 89.4341 8.42057C89.4874 8.42057 89.5407 8.42057 89.594 8.42057H96.666C97.21 8.42057 97.626 8.50591 97.914 8.67657C98.202 8.83657 98.346 9.10324 98.346 9.47657V10.5966C98.346 10.7459 98.3087 10.8899 98.234 11.0286C98.17 11.1672 98.0527 11.2899 97.882 11.3966C97.7434 11.4819 97.6047 11.5299 97.466 11.5406C97.3274 11.5406 97.1887 11.5406 97.05 11.5406H89.61V12.1326H97.61ZM87.2261 7.31657C87.0767 7.25257 86.9701 7.12991 86.9061 6.94857C86.8207 6.73524 86.8047 6.52191 86.858 6.30857C86.922 6.09524 87.018 5.89257 87.146 5.70057C87.274 5.50857 87.418 5.32724 87.578 5.15657C87.7487 4.98591 87.8927 4.82591 88.01 4.67657C88.1914 4.45257 88.3727 4.22857 88.554 4.00457C88.7354 3.78057 88.9167 3.55124 89.0981 3.31657C89.1621 3.23124 89.2367 3.14057 89.3221 3.04457C89.4074 2.94857 89.4874 2.84724 89.562 2.74057C89.6474 2.63391 89.7167 2.52724 89.7701 2.42057C89.8234 2.31391 89.8554 2.2019 89.8661 2.08457C89.8767 1.90324 89.8874 1.72724 89.898 1.55657C89.9087 1.37524 89.9407 1.21524 89.994 1.07657C90.0474 0.927238 90.1327 0.809905 90.2501 0.724572C90.3781 0.639239 90.5594 0.596572 90.7941 0.596572C90.9647 0.596572 91.13 0.617905 91.29 0.660572C91.45 0.692572 91.5674 0.793905 91.6421 0.964572C91.7167 1.15657 91.738 1.36991 91.706 1.60457C91.6847 1.82857 91.7061 2.04191 91.7701 2.24457C91.8234 2.42591 91.9141 2.58591 92.0421 2.72457C92.1701 2.85257 92.2767 2.99124 92.3621 3.14057C92.5434 3.47124 92.7567 3.76457 93.0021 4.02057C93.2474 4.27657 93.4767 4.55391 93.69 4.85257C93.8607 5.07657 94.0207 5.31124 94.1701 5.55657C94.3301 5.79124 94.4367 6.04724 94.4901 6.32457C94.5434 6.55924 94.5167 6.76191 94.41 6.93257C94.314 7.09257 94.1807 7.20991 94.01 7.28457C93.8394 7.35924 93.6527 7.38591 93.4501 7.36457C93.2474 7.33257 93.0714 7.24191 92.9221 7.09257C92.5274 6.68724 92.1647 6.27124 91.8341 5.84457C91.5141 5.40724 91.1834 4.96457 90.842 4.51657C90.842 4.51657 90.7941 4.56991 90.6981 4.67657C90.6021 4.77257 90.4794 4.90057 90.33 5.06057C90.1807 5.20991 90.0207 5.38057 89.8501 5.57257C89.6794 5.75391 89.5194 5.92991 89.37 6.10057C89.2207 6.27124 89.0874 6.42057 88.97 6.54857C88.8527 6.66591 88.7834 6.74057 88.762 6.77257C88.6447 6.91124 88.5221 7.03391 88.3941 7.14057C88.2661 7.24724 88.1114 7.32191 87.9301 7.36457C87.8127 7.38591 87.69 7.39657 87.562 7.39657C87.4447 7.39657 87.3327 7.36991 87.2261 7.31657ZM98.298 6.50057C98.2874 6.61791 98.2714 6.74057 98.2501 6.86857C98.2394 6.98591 98.202 7.10324 98.138 7.22057C98.0634 7.35924 97.9727 7.46057 97.8661 7.52457C97.7167 7.64191 97.5407 7.70057 97.3381 7.70057C97.1781 7.70057 97.0287 7.65791 96.8901 7.57257C96.7407 7.48724 96.6234 7.35391 96.538 7.17257C96.4527 6.99124 96.41 6.82591 96.41 6.67657V4.94857C96.2287 4.94857 96.0421 4.94324 95.8501 4.93257C95.6687 4.91124 95.5194 4.88991 95.402 4.86857C95.0927 4.82591 94.8367 4.73524 94.634 4.59657C94.442 4.44724 94.3727 4.19657 94.426 3.84457C94.4687 3.60991 94.538 3.43391 94.634 3.31657C94.7407 3.18857 94.9114 3.11924 95.146 3.10857C95.2207 3.10857 95.29 3.10857 95.354 3.10857C95.4287 3.09791 95.5087 3.09257 95.594 3.09257C95.722 3.09257 95.8554 3.09257 95.994 3.09257C96.1327 3.08191 96.2714 3.07657 96.41 3.07657V1.87657C96.41 1.85524 96.4047 1.80191 96.3941 1.71657C96.3941 1.63124 96.3941 1.54057 96.3941 1.44457C96.3941 1.3379 96.3994 1.23657 96.41 1.14057C96.4314 1.0339 96.4581 0.948572 96.4901 0.884572C96.5434 0.788572 96.6234 0.708572 96.73 0.644572C96.8367 0.569905 96.9647 0.521905 97.1141 0.500572C97.2954 0.479238 97.4607 0.489905 97.61 0.532572C97.77 0.575238 97.8927 0.644572 97.9781 0.740572C98.1274 0.900572 98.2234 1.06591 98.2661 1.23657C98.2981 1.34324 98.314 1.49791 98.314 1.70057C98.3247 1.90324 98.3247 2.06324 98.314 2.18057V3.04457C98.314 3.68457 98.314 4.28191 98.314 4.83657C98.314 5.38057 98.3087 5.93524 98.298 6.50057Z" fill="black"/>
<path d="M106.084 10.9006C106.116 10.9539 106.142 11.0126 106.164 11.0766C106.196 11.1299 106.222 11.1939 106.244 11.2686C106.276 11.3859 106.297 11.5139 106.308 11.6526C106.318 11.7912 106.286 11.9352 106.212 12.0846C106.041 12.4152 105.806 12.5912 105.508 12.6126H105.492C105.3 12.6126 105.129 12.5486 104.98 12.4206C104.841 12.2926 104.692 12.1379 104.532 11.9566C104.372 11.7859 104.222 11.6099 104.084 11.4286C103.945 11.2472 103.822 11.0872 103.716 10.9486C103.705 10.9272 103.689 10.9059 103.668 10.8846C103.657 10.8526 103.641 10.8152 103.62 10.7726C103.353 10.3672 103.156 10.0899 103.028 9.94057C102.9 9.79124 102.825 9.71124 102.804 9.70057C102.782 9.72191 102.729 9.78057 102.644 9.87657C102.569 9.96191 102.521 10.0152 102.5 10.0366C102.478 10.0686 102.457 10.1006 102.436 10.1326C102.414 10.1539 102.393 10.1752 102.372 10.1966C102.276 10.3032 102.196 10.4152 102.132 10.5326C102.078 10.6392 102.009 10.7512 101.924 10.8686C101.838 10.9859 101.748 11.0979 101.652 11.2046C101.566 11.3112 101.476 11.4179 101.38 11.5246C101.337 11.5672 101.294 11.6206 101.252 11.6846C101.092 11.8659 100.921 12.0419 100.74 12.2126C100.569 12.3832 100.366 12.5112 100.132 12.5966C100.036 12.6392 99.9291 12.6606 99.8118 12.6606C99.5665 12.6606 99.3478 12.5646 99.1558 12.3726C98.9745 12.1912 98.8838 11.9672 98.8838 11.7006C98.8945 11.5086 98.9425 11.3272 99.0278 11.1566C99.1238 10.9859 99.2145 10.8259 99.2998 10.6766L99.3318 10.6126C99.3638 10.5592 99.3958 10.5112 99.4278 10.4686C99.4598 10.4259 99.4918 10.3832 99.5238 10.3406C99.5451 10.3086 99.5611 10.2819 99.5718 10.2606C99.5931 10.2286 99.6145 10.2019 99.6358 10.1806C99.7638 9.98857 99.8758 9.83391 99.9718 9.71657C99.9931 9.69524 100.004 9.67924 100.004 9.66857C100.014 9.64724 100.03 9.62591 100.052 9.60457C100.073 9.56191 100.094 9.53524 100.116 9.52457L100.148 9.47657C100.19 9.42324 100.228 9.37524 100.26 9.33257C100.292 9.27924 100.324 9.22591 100.356 9.17257C100.43 9.05524 100.494 8.94857 100.548 8.85257C100.612 8.7459 100.67 8.64457 100.724 8.54857C100.788 8.43124 100.852 8.31924 100.916 8.21257C100.98 8.09524 101.054 7.98324 101.14 7.87657C101.193 7.79124 101.246 7.70591 101.3 7.62057C101.364 7.53524 101.422 7.44991 101.476 7.36457L101.54 7.26857C101.614 7.15124 101.668 7.04991 101.7 6.96457C101.742 6.86857 101.769 6.76191 101.78 6.64457C101.801 6.47391 101.812 6.30857 101.812 6.14857C101.812 5.97791 101.812 5.79657 101.812 5.60457V2.66057C101.812 2.55391 101.812 2.45257 101.812 2.35657C101.812 2.26057 101.817 2.15924 101.828 2.05257C101.828 1.93524 101.838 1.8179 101.86 1.70057C101.881 1.58324 101.908 1.47657 101.94 1.38057C101.993 1.24191 102.062 1.10324 102.148 0.964572C102.201 0.879238 102.276 0.815238 102.372 0.772572C102.478 0.729905 102.59 0.697905 102.708 0.676572L102.74 0.660572C102.921 0.607239 103.113 0.617905 103.316 0.692572C103.422 0.735238 103.502 0.783238 103.556 0.836572C103.609 0.879238 103.652 0.937905 103.684 1.01257C103.716 1.08724 103.748 1.16724 103.78 1.25257C103.876 1.45524 103.94 1.71657 103.972 2.03657C103.993 2.26057 104.009 2.51124 104.02 2.78857C104.03 3.05524 104.041 3.32724 104.052 3.60457C104.062 3.88191 104.068 4.15924 104.068 4.43657C104.068 4.70324 104.068 4.94857 104.068 5.17257C104.078 5.44991 104.084 5.72724 104.084 6.00457C104.084 6.27124 104.094 6.53791 104.116 6.80457C104.126 7.03924 104.18 7.25791 104.276 7.46057C104.382 7.66324 104.494 7.86591 104.612 8.06857C104.729 8.30324 104.841 8.53791 104.948 8.77257C105.065 8.99657 105.193 9.22057 105.332 9.44457C105.385 9.55124 105.438 9.65791 105.492 9.76457C105.556 9.86057 105.62 9.96191 105.684 10.0686C105.705 10.1219 105.726 10.1699 105.748 10.2126C105.78 10.2552 105.806 10.2979 105.828 10.3406C105.849 10.3939 105.876 10.4526 105.908 10.5166C105.94 10.5699 105.966 10.6232 105.988 10.6766L106.036 10.8046L106.084 10.9006ZM110.356 5.50857C110.409 5.50857 110.457 5.51391 110.5 5.52457C110.553 5.53524 110.606 5.54057 110.66 5.54057C110.713 5.55124 110.772 5.56191 110.836 5.57257C110.9 5.57257 110.964 5.57791 111.028 5.58857C111.145 5.60991 111.262 5.65257 111.38 5.71657C111.497 5.76991 111.582 5.85524 111.636 5.97257C111.71 6.08991 111.748 6.22857 111.748 6.38857C111.748 6.47391 111.742 6.55391 111.732 6.62857C111.732 6.69257 111.721 6.76724 111.7 6.85257C111.678 6.93791 111.652 7.02857 111.62 7.12457C111.598 7.22057 111.55 7.29524 111.476 7.34857C111.326 7.45524 111.182 7.52457 111.044 7.55657C110.873 7.57791 110.665 7.58324 110.42 7.57257C110.174 7.56191 109.966 7.56191 109.796 7.57257C109.785 7.57257 109.774 7.57791 109.764 7.58857H109.748L109.732 7.60457V7.65257C109.732 7.78057 109.732 7.93524 109.732 8.11657C109.732 8.28724 109.732 8.46857 109.732 8.66057C109.732 8.84191 109.732 9.02324 109.732 9.20457C109.732 9.37524 109.732 9.52991 109.732 9.66857C109.753 10.2232 109.753 10.7672 109.732 11.3006V11.5246C109.732 11.6632 109.726 11.8179 109.716 11.9886C109.716 12.1486 109.705 12.3086 109.684 12.4686C109.662 12.6286 109.625 12.7832 109.572 12.9326C109.518 13.0712 109.444 13.1886 109.348 13.2846C109.22 13.4339 109.049 13.5086 108.836 13.5086C108.836 13.5086 108.825 13.5032 108.804 13.4926C108.548 13.4819 108.34 13.4072 108.18 13.2686C108.03 13.1299 107.913 12.9592 107.828 12.7566C107.753 12.5539 107.705 12.3459 107.684 12.1326C107.662 11.9086 107.652 11.7112 107.652 11.5406V2.03657C107.652 2.0259 107.652 1.9779 107.652 1.89257C107.652 1.79657 107.662 1.6899 107.684 1.57257C107.705 1.44457 107.737 1.31657 107.78 1.18857C107.833 1.04991 107.902 0.937905 107.988 0.852571C108.062 0.777905 108.169 0.724572 108.308 0.692572C108.457 0.649905 108.59 0.628571 108.708 0.628571C108.942 0.628571 109.14 0.708572 109.3 0.868572C109.449 1.01791 109.534 1.17791 109.556 1.34857C109.588 1.50857 109.614 1.67924 109.636 1.86057C109.646 1.90324 109.652 1.96724 109.652 2.05257C109.673 2.23391 109.684 2.42057 109.684 2.61257C109.694 2.80457 109.705 2.99657 109.716 3.18857C109.716 3.30591 109.716 3.42324 109.716 3.54057C109.726 3.64724 109.732 3.75924 109.732 3.87657C109.721 3.94057 109.716 4.00457 109.716 4.06857C109.726 4.12191 109.732 4.17524 109.732 4.22857V5.12457C109.732 5.17791 109.732 5.23657 109.732 5.30057C109.732 5.36457 109.742 5.42324 109.764 5.47657C109.764 5.48724 109.817 5.49257 109.924 5.49257C110.03 5.49257 110.089 5.49257 110.1 5.49257C110.196 5.51391 110.27 5.51924 110.324 5.50857H110.356Z" fill="black"/>
<path d="M116.339 10.6766C116.329 10.5486 116.323 10.4206 116.323 10.2926C116.323 10.1646 116.323 10.0366 116.323 9.90857V4.82057C116.323 4.64991 116.323 4.47924 116.323 4.30857C116.323 4.13791 116.313 3.96191 116.291 3.78057C116.281 3.72724 116.265 3.65257 116.243 3.55657C116.233 3.46057 116.201 3.40191 116.147 3.38057C116.094 3.34857 116.03 3.33791 115.955 3.34857C115.891 3.34857 115.827 3.34324 115.763 3.33257C115.689 3.32191 115.614 3.32191 115.539 3.33257C115.475 3.34324 115.406 3.34324 115.331 3.33257H114.579C114.398 3.34324 114.217 3.34324 114.035 3.33257C113.854 3.32191 113.673 3.32191 113.491 3.33257C113.406 3.34324 113.326 3.34857 113.251 3.34857C113.187 3.33791 113.113 3.33257 113.027 3.33257C112.91 3.33257 112.787 3.32724 112.659 3.31657C112.531 3.30591 112.414 3.26324 112.307 3.18857C112.158 3.08191 112.057 2.94857 112.003 2.78857C111.95 2.62857 111.923 2.46324 111.923 2.29257C111.913 2.08991 111.955 1.88724 112.051 1.68457C112.105 1.55657 112.174 1.46591 112.259 1.41257C112.313 1.35924 112.387 1.31657 112.483 1.28457C112.59 1.2419 112.681 1.2099 112.755 1.18857C112.979 1.13524 113.214 1.10857 113.459 1.10857C113.705 1.09791 113.945 1.09257 114.179 1.09257H116.963C117.102 1.11391 117.246 1.13524 117.395 1.15657C117.555 1.16724 117.699 1.19924 117.827 1.25257C117.913 1.28457 117.993 1.32724 118.067 1.38057C118.153 1.43391 118.222 1.49791 118.275 1.57257C118.371 1.7219 118.425 1.87124 118.435 2.02057C118.457 2.16991 118.478 2.33524 118.499 2.51657C118.521 2.81524 118.531 3.11391 118.531 3.41257C118.531 3.70057 118.531 3.99391 118.531 4.29257V9.54057C118.531 9.55124 118.531 9.63657 118.531 9.79657C118.542 9.94591 118.547 10.1272 118.547 10.3406C118.547 10.5432 118.547 10.7619 118.547 10.9966C118.547 11.2206 118.542 11.4179 118.531 11.5886C118.521 11.6952 118.505 11.8072 118.483 11.9246C118.462 12.0419 118.425 12.1539 118.371 12.2606C118.329 12.3672 118.265 12.4632 118.179 12.5486C118.094 12.6339 117.982 12.7032 117.843 12.7566C117.662 12.8312 117.481 12.8686 117.299 12.8686C117.161 12.8686 117.022 12.8419 116.883 12.7886C116.745 12.7246 116.649 12.6339 116.595 12.5166C116.425 12.1752 116.339 11.7966 116.339 11.3806V10.6766ZM123.107 5.49257C123.257 5.50324 123.411 5.51391 123.571 5.52457C123.731 5.52457 123.886 5.52991 124.035 5.54057C124.089 5.54057 124.147 5.54591 124.211 5.55657C124.275 5.56724 124.339 5.57791 124.403 5.58857C124.617 5.63124 124.787 5.72191 124.915 5.86057C125.054 5.98857 125.123 6.16457 125.123 6.38857C125.123 6.53791 125.107 6.70857 125.075 6.90057C125.054 7.09257 124.974 7.24191 124.835 7.34857C124.771 7.40191 124.707 7.44457 124.643 7.47657C124.579 7.50857 124.505 7.53524 124.419 7.55657C124.249 7.57791 124.041 7.58324 123.795 7.57257C123.55 7.56191 123.342 7.56191 123.171 7.57257C123.129 7.57257 123.107 7.59924 123.107 7.65257C123.107 7.78057 123.107 7.93524 123.107 8.11657C123.107 8.28724 123.107 8.46857 123.107 8.66057C123.107 8.84191 123.107 9.02324 123.107 9.20457C123.107 9.37524 123.107 9.52991 123.107 9.66857C123.129 10.2232 123.129 10.7672 123.107 11.3006V11.5246C123.107 11.6632 123.102 11.8179 123.091 11.9886C123.091 12.1486 123.081 12.3086 123.059 12.4686C123.038 12.6286 123.001 12.7832 122.947 12.9326C122.894 13.0712 122.819 13.1886 122.723 13.2846C122.595 13.4339 122.425 13.5086 122.211 13.5086C122.211 13.5086 122.201 13.5032 122.179 13.4926C121.923 13.4819 121.715 13.4072 121.555 13.2686C121.406 13.1299 121.289 12.9592 121.203 12.7566C121.129 12.5539 121.081 12.3459 121.059 12.1326C121.038 11.9086 121.027 11.7112 121.027 11.5406V2.03657C121.027 2.0259 121.027 1.9779 121.027 1.89257C121.027 1.79657 121.038 1.6899 121.059 1.57257C121.081 1.44457 121.113 1.31657 121.155 1.18857C121.209 1.04991 121.278 0.937905 121.363 0.852571C121.438 0.777905 121.545 0.724572 121.683 0.692572C121.833 0.649905 121.966 0.628571 122.083 0.628571C122.318 0.628571 122.515 0.708572 122.675 0.868572C122.825 1.01791 122.91 1.17791 122.931 1.34857C122.963 1.50857 122.99 1.67924 123.011 1.86057C123.022 1.90324 123.027 1.96724 123.027 2.05257C123.049 2.23391 123.059 2.42057 123.059 2.61257C123.07 2.80457 123.081 2.99657 123.091 3.18857C123.091 3.27391 123.091 3.34324 123.091 3.39657C123.091 3.44991 123.091 3.53524 123.091 3.65257C123.102 3.75924 123.107 3.92457 123.107 4.14857C123.107 4.37257 123.107 4.69791 123.107 5.12457V5.49257Z" fill="black"/>
<path d="M132.829 11.2366C132.829 11.0766 132.829 10.9272 132.829 10.7886C132.829 10.6392 132.829 10.4632 132.829 10.2606C132.829 10.0579 132.824 9.81791 132.813 9.54057C132.813 9.26324 132.813 8.90591 132.813 8.46857C132.813 8.03124 132.813 7.50857 132.813 6.90057C132.813 6.28191 132.813 5.54057 132.813 4.67657C132.813 4.49524 132.813 4.32457 132.813 4.16457C132.813 3.99391 132.803 3.81791 132.781 3.63657C132.749 3.44457 132.701 3.32191 132.637 3.26857C132.573 3.21524 132.445 3.18857 132.253 3.18857C132.019 3.18857 131.811 3.18857 131.629 3.18857C131.448 3.18857 131.272 3.18857 131.101 3.18857C130.931 3.18857 130.755 3.18857 130.573 3.18857C130.403 3.18857 130.216 3.18857 130.013 3.18857C129.64 3.18857 129.357 3.09257 129.165 2.90057C128.984 2.70857 128.893 2.45791 128.893 2.14857C128.893 1.91391 128.957 1.73257 129.085 1.60457C129.213 1.46591 129.379 1.36457 129.581 1.30057C129.784 1.23657 130.008 1.19924 130.253 1.18857C130.499 1.16724 130.744 1.15657 130.989 1.15657H133.117C133.171 1.15657 133.224 1.1619 133.277 1.17257C133.341 1.17257 133.4 1.17257 133.453 1.17257C133.709 1.18324 133.96 1.23657 134.205 1.33257C134.291 1.36457 134.371 1.40724 134.445 1.46057C134.531 1.51391 134.6 1.57791 134.653 1.65257C134.76 1.8019 134.819 1.94057 134.829 2.06857C134.84 2.19657 134.856 2.35124 134.877 2.53257C134.888 2.70324 134.893 2.92724 134.893 3.20457C134.904 3.47124 134.909 3.68991 134.909 3.86057C134.995 3.84991 135.075 3.84457 135.149 3.84457C135.224 3.84457 135.293 3.84457 135.357 3.84457H136.573V2.22857C136.573 2.08991 136.573 1.95124 136.573 1.81257C136.573 1.66324 136.589 1.51924 136.621 1.38057C136.643 1.32724 136.659 1.27924 136.669 1.23657C136.691 1.19391 136.712 1.14591 136.733 1.09257C136.797 0.985905 136.861 0.905905 136.925 0.852571C136.989 0.788572 137.08 0.735238 137.197 0.692572C137.293 0.660572 137.389 0.644572 137.485 0.644572C137.837 0.644572 138.104 0.804572 138.285 1.12457C138.328 1.18857 138.36 1.27924 138.381 1.39657C138.403 1.51391 138.419 1.63657 138.429 1.76457C138.44 1.88191 138.445 1.98857 138.445 2.08457C138.445 2.16991 138.445 2.22324 138.445 2.24457V9.81257C138.445 10.6126 138.44 11.1886 138.429 11.5406C138.429 11.8072 138.419 12.0206 138.397 12.1806C138.387 12.3406 138.339 12.5432 138.253 12.7886C138.2 12.9486 138.109 13.0819 137.981 13.1886C137.853 13.2952 137.672 13.3486 137.437 13.3486C137.373 13.3486 137.299 13.3379 137.213 13.3166C137.139 13.3059 137.075 13.2792 137.021 13.2366C136.915 13.1726 136.829 13.0712 136.765 12.9326C136.712 12.7832 136.669 12.6286 136.637 12.4686C136.605 12.3086 136.584 12.1539 136.573 12.0046C136.573 11.8552 136.573 11.7379 136.573 11.6526V9.76457L135.069 9.73257C134.995 9.73257 134.941 9.72724 134.909 9.71657C134.909 9.72724 134.909 9.79124 134.909 9.90857C134.92 10.0259 134.925 10.1699 134.925 10.3406C134.925 10.5112 134.925 10.6979 134.925 10.9006C134.925 11.0926 134.92 11.2739 134.909 11.4446C134.877 11.8286 134.755 12.1379 134.541 12.3726C134.339 12.6072 134.051 12.7246 133.677 12.7246C133.485 12.7246 133.331 12.6766 133.213 12.5806C133.096 12.4846 133.011 12.3619 132.957 12.2126C132.904 12.0632 132.867 11.9032 132.845 11.7326C132.835 11.5512 132.829 11.3859 132.829 11.2366ZM141.261 2.56457C141.283 3.36457 141.288 4.18057 141.277 5.01257C141.267 5.83391 141.261 6.62324 141.261 7.38057V11.3806C141.261 11.6579 141.251 11.9246 141.229 12.1806C141.219 12.4366 141.16 12.6766 141.053 12.9006C140.989 13.0392 140.888 13.1566 140.749 13.2526C140.632 13.3272 140.531 13.3699 140.445 13.3806C140.36 13.4019 140.248 13.3966 140.109 13.3646C139.949 13.3326 139.821 13.2632 139.725 13.1566C139.629 13.0606 139.549 12.9486 139.485 12.8206C139.432 12.6926 139.395 12.5539 139.373 12.4046C139.363 12.2552 139.357 12.1112 139.357 11.9726V2.40457C139.357 2.28724 139.357 2.15391 139.357 2.00457C139.357 1.84457 139.363 1.69524 139.373 1.55657C139.395 1.40724 139.421 1.26857 139.453 1.14057C139.496 1.01257 139.555 0.911239 139.629 0.836572C139.747 0.729905 139.869 0.665905 139.997 0.644572C140.125 0.612572 140.264 0.596572 140.413 0.596572C140.627 0.596572 140.792 0.671239 140.909 0.820572C141.027 0.969905 141.107 1.15124 141.149 1.36457C141.203 1.57791 141.235 1.79657 141.245 2.02057C141.256 2.24457 141.261 2.42591 141.261 2.56457ZM135.069 5.73257C134.995 5.73257 134.941 5.72724 134.909 5.71657V7.89257C134.995 7.88191 135.075 7.87657 135.149 7.87657C135.224 7.87657 135.293 7.87657 135.357 7.87657H136.573V5.76457L135.069 5.73257Z" fill="black"/>
<path d="M145.437 4.93257C145.234 5.07124 145.031 5.22057 144.829 5.38057C144.637 5.54057 144.402 5.64724 144.125 5.70057C144.029 5.72191 143.927 5.74324 143.821 5.76457C143.725 5.78591 143.629 5.79124 143.533 5.78057C143.437 5.76991 143.341 5.74324 143.245 5.70057C143.159 5.64724 143.079 5.56191 143.005 5.44457C142.919 5.31657 142.871 5.19924 142.861 5.09257C142.861 4.97524 142.882 4.86857 142.925 4.77257C142.978 4.67657 143.042 4.58591 143.117 4.50057C143.191 4.41524 143.271 4.33524 143.357 4.26057C143.677 3.97257 144.007 3.67391 144.349 3.36457C144.701 3.04457 145.058 2.76191 145.421 2.51657C145.538 2.44191 145.671 2.34057 145.821 2.21257C145.981 2.07391 146.135 1.94057 146.285 1.81257C146.455 1.66324 146.631 1.50857 146.813 1.34857C146.791 1.19924 146.786 1.05524 146.797 0.916572C146.807 0.799238 146.834 0.676572 146.877 0.548572C146.919 0.409905 146.999 0.297905 147.117 0.212572C147.255 0.116572 147.442 0.0525719 147.677 0.0205716C147.911 -0.0114286 148.114 -0.00609533 148.285 0.0365714C148.53 0.100572 148.69 0.201905 148.765 0.340571C148.85 0.479238 148.909 0.644572 148.941 0.836572C148.962 0.996571 148.994 1.1459 149.037 1.28457C149.079 1.42324 149.159 1.56191 149.277 1.70057C149.362 1.79657 149.469 1.89257 149.597 1.98857C149.735 2.08457 149.858 2.17524 149.965 2.26057C150.338 2.58057 150.701 2.87924 151.053 3.15657C151.415 3.43391 151.789 3.73257 152.173 4.05257C152.301 4.14857 152.407 4.27657 152.493 4.43657C152.589 4.58591 152.653 4.74057 152.685 4.90057C152.717 5.04991 152.706 5.19924 152.653 5.34857C152.61 5.48724 152.509 5.59924 152.349 5.68457C152.039 5.80191 151.741 5.79657 151.453 5.66857C151.175 5.52991 150.935 5.36991 150.733 5.18857C150.519 5.02857 150.274 4.86857 149.997 4.70857C149.719 4.53791 149.479 4.36191 149.277 4.18057L147.853 3.15657C147.703 3.27391 147.57 3.38057 147.453 3.47657C147.346 3.56191 147.245 3.63657 147.149 3.70057C147.063 3.76457 147.01 3.80724 146.989 3.82857C146.754 4.00991 146.498 4.19657 146.221 4.38857C145.954 4.56991 145.693 4.75124 145.437 4.93257ZM152.493 6.58057C152.674 6.59124 152.855 6.61791 153.037 6.66057C153.229 6.70324 153.399 6.78324 153.549 6.90057C153.698 7.01791 153.773 7.18324 153.773 7.39657C153.773 7.50324 153.751 7.61524 153.709 7.73257C153.677 7.84991 153.629 7.93524 153.565 7.98857C153.479 8.07391 153.367 8.1379 153.229 8.18057C153.101 8.21257 152.973 8.23924 152.845 8.26057C152.717 8.27124 152.605 8.27657 152.509 8.27657C152.423 8.27657 152.375 8.27657 152.365 8.27657L143.837 8.29257C143.591 8.30324 143.335 8.30324 143.069 8.29257C142.813 8.28191 142.594 8.20191 142.413 8.05257C142.167 7.87124 142.045 7.67391 142.045 7.46057C142.045 7.31124 142.093 7.16191 142.189 7.01257C142.295 6.85257 142.434 6.74591 142.605 6.69257C142.829 6.61791 143.058 6.58591 143.293 6.59657C143.527 6.59657 143.767 6.59124 144.013 6.58057C144.269 6.56991 144.487 6.56457 144.669 6.56457C144.861 6.56457 145.042 6.56457 145.213 6.56457C145.394 6.56457 145.581 6.56991 145.773 6.58057C145.965 6.58057 146.194 6.58057 146.461 6.58057V5.65257C146.461 5.33257 146.599 5.11391 146.877 4.99657C147.154 4.87924 147.453 4.83657 147.773 4.86857C148.061 4.90057 148.279 4.96457 148.429 5.06057C148.589 5.14591 148.674 5.29524 148.685 5.50857C148.706 5.65791 148.717 5.82857 148.717 6.02057C148.727 6.21257 148.733 6.39924 148.733 6.58057C149.031 6.58057 149.351 6.58057 149.693 6.58057C150.034 6.56991 150.375 6.56457 150.717 6.56457C151.058 6.56457 151.383 6.56457 151.693 6.56457C152.002 6.56457 152.269 6.56991 152.493 6.58057ZM151.549 9.26857C151.986 9.26857 152.322 9.33791 152.557 9.47657C152.802 9.61524 152.925 9.80724 152.925 10.0526V11.1406C152.925 11.1939 152.925 11.3006 152.925 11.4606C152.935 11.6099 152.941 11.7752 152.941 11.9566C152.941 12.1272 152.941 12.2926 152.941 12.4526C152.941 12.6126 152.935 12.7246 152.925 12.7886C152.903 13.0126 152.813 13.1939 152.653 13.3326C152.503 13.4712 152.306 13.5406 152.061 13.5406C151.943 13.5406 151.831 13.5246 151.725 13.4926C151.575 13.4499 151.458 13.3859 151.373 13.3006C151.298 13.2152 151.239 13.1192 151.197 13.0126C151.165 12.9059 151.138 12.7939 151.117 12.6766C151.106 12.5486 151.101 12.4259 151.101 12.3086C151.101 12.2659 151.095 12.1912 151.085 12.0846C151.085 11.9672 151.079 11.8499 151.069 11.7326C151.069 11.6152 151.063 11.5032 151.053 11.3966C151.053 11.2899 151.047 11.2152 151.037 11.1726C151.005 11.1619 150.914 11.1512 150.765 11.1406C150.626 11.1299 150.359 11.1246 149.965 11.1246C149.783 11.1246 149.623 11.1299 149.485 11.1406C149.346 11.1406 149.218 11.1406 149.101 11.1406H143.405C143.394 11.1406 143.351 11.1299 143.277 11.1086C143.213 11.0872 143.138 11.0552 143.053 11.0126C142.967 10.9699 142.887 10.9112 142.813 10.8366C142.738 10.7619 142.695 10.6659 142.685 10.5486C142.621 10.1539 142.685 9.83391 142.877 9.58857C143.005 9.43924 143.143 9.35391 143.293 9.33257C143.442 9.30057 143.522 9.28457 143.533 9.28457L151.549 9.26857Z" fill="black"/>
<path d="M157.506 6.35657C157.517 6.19657 157.522 6.03124 157.522 5.86057C157.522 5.68991 157.522 5.52457 157.522 5.36457C157.458 5.36457 157.394 5.36457 157.33 5.36457C157.266 5.35391 157.213 5.34857 157.17 5.34857C156.935 5.34857 156.69 5.34324 156.434 5.33257C156.178 5.32191 155.943 5.27924 155.73 5.20457C155.559 5.15124 155.399 5.06591 155.25 4.94857C155.111 4.82057 154.999 4.66591 154.914 4.48457C154.818 4.28191 154.781 4.04191 154.802 3.76457C154.802 3.75391 154.797 3.68457 154.786 3.55657C154.786 3.41791 154.781 3.27391 154.77 3.12457C154.759 2.96457 154.749 2.82057 154.738 2.69257C154.738 2.5539 154.738 2.46857 154.738 2.43657C154.727 2.22324 154.727 1.99924 154.738 1.76457C154.749 1.52991 154.818 1.30591 154.946 1.09257C155.01 0.985905 155.111 0.905905 155.25 0.852571C155.389 0.788572 155.527 0.740572 155.666 0.708571C155.805 0.676572 155.927 0.660572 156.034 0.660572C156.151 0.649905 156.226 0.644572 156.258 0.644572H160.85C161.063 0.644572 161.266 0.655239 161.458 0.676572C161.65 0.687238 161.847 0.735238 162.05 0.820572C162.221 0.884572 162.354 0.991238 162.45 1.14057C162.546 1.2899 162.589 1.45524 162.578 1.63657C162.557 1.80724 162.493 1.95657 162.386 2.08457C162.29 2.2019 162.151 2.2819 161.97 2.32457C161.778 2.3779 161.49 2.40457 161.106 2.40457H160.77C160.727 2.40457 160.685 2.39924 160.642 2.38857H157.746C157.607 2.38857 157.463 2.39391 157.314 2.40457C157.175 2.41524 157.069 2.43657 156.994 2.46857C156.823 2.53257 156.727 2.58591 156.706 2.62857C156.695 2.66057 156.701 2.75657 156.722 2.91657L156.738 3.09257C156.727 3.18857 156.727 3.26324 156.738 3.31657C156.749 3.35924 156.781 3.40724 156.834 3.46057C156.887 3.53524 157.026 3.57257 157.25 3.57257C157.303 3.57257 157.362 3.57257 157.426 3.57257C157.49 3.56191 157.554 3.55124 157.618 3.54057L160.69 3.52457C161.17 3.52457 161.586 3.59924 161.938 3.74857C162.151 3.84457 162.29 4.00991 162.354 4.24457C162.407 4.50057 162.359 4.72991 162.21 4.93257C162.05 5.12457 161.874 5.24191 161.682 5.28457C161.49 5.31657 161.287 5.33791 161.074 5.34857C160.989 5.35924 160.813 5.36457 160.546 5.36457C160.279 5.36457 159.981 5.36457 159.65 5.36457C159.661 5.46057 159.661 5.56191 159.65 5.66857C159.65 5.76457 159.65 5.86591 159.65 5.97257C159.639 6.04724 159.634 6.11657 159.634 6.18057C159.634 6.24457 159.634 6.30857 159.634 6.37257L160.866 6.35657C161.069 6.35657 161.266 6.35657 161.458 6.35657C161.65 6.35657 161.837 6.39924 162.018 6.48457C162.157 6.54857 162.263 6.64991 162.338 6.78857C162.423 6.92724 162.466 7.08191 162.466 7.25257C162.466 7.51924 162.37 7.75924 162.178 7.97257C162.029 8.13257 161.842 8.22324 161.618 8.24457C161.405 8.26591 161.202 8.26591 161.01 8.24457H155.522C155.511 8.24457 155.469 8.24457 155.394 8.24457C155.319 8.24457 155.229 8.23391 155.122 8.21257C155.026 8.19124 154.925 8.15924 154.818 8.11657C154.711 8.06324 154.626 7.98857 154.562 7.89257C154.498 7.82857 154.45 7.74857 154.418 7.65257C154.386 7.54591 154.37 7.43391 154.37 7.31657C154.37 7.08191 154.434 6.88457 154.562 6.72457C154.679 6.58591 154.834 6.48991 155.026 6.43657C155.218 6.37257 155.383 6.32991 155.522 6.30857L157.506 6.35657ZM165.266 11.3486C165.277 11.3486 165.314 11.3592 165.378 11.3806C165.442 11.4019 165.511 11.4392 165.586 11.4926C165.671 11.5352 165.746 11.5992 165.81 11.6846C165.885 11.7592 165.933 11.8499 165.954 11.9566C166.018 12.3619 165.954 12.6766 165.762 12.9006C165.645 13.0499 165.517 13.1406 165.378 13.1726C165.239 13.2046 165.165 13.2206 165.154 13.2206H156.802C156.397 13.2206 156.077 13.1512 155.842 13.0126C155.607 12.8846 155.49 12.6979 155.49 12.4526V11.0286C155.469 10.7939 155.469 10.5539 155.49 10.3086C155.511 10.0846 155.597 9.90324 155.746 9.76457C155.895 9.62591 156.082 9.55657 156.306 9.55657C156.359 9.55657 156.429 9.56191 156.514 9.57257C156.61 9.57257 156.685 9.58324 156.738 9.60457C156.877 9.64724 156.983 9.71124 157.058 9.79657C157.133 9.88191 157.191 9.98324 157.234 10.1006C157.277 10.2072 157.303 10.3246 157.314 10.4526C157.325 10.5699 157.335 10.6872 157.346 10.8046C157.346 10.8899 157.351 10.9806 157.362 11.0766C157.373 11.1619 157.389 11.2419 157.41 11.3166C157.431 11.3272 157.527 11.3432 157.698 11.3646C157.879 11.3752 158.157 11.3806 158.53 11.3806C158.85 11.3806 159.133 11.3752 159.378 11.3646C159.634 11.3539 159.767 11.3486 159.778 11.3486H165.266ZM163.826 2.26057C163.826 2.14324 163.826 2.00991 163.826 1.86057C163.826 1.71124 163.831 1.56724 163.842 1.42857C163.863 1.27924 163.895 1.14057 163.938 1.01257C163.981 0.884572 164.034 0.788572 164.098 0.724572C164.215 0.617905 164.333 0.553905 164.45 0.532572C164.578 0.500572 164.717 0.484571 164.866 0.484571C165.047 0.484571 165.207 0.537905 165.346 0.644572C165.495 0.740572 165.602 0.868571 165.666 1.02857C165.751 1.25257 165.799 1.4819 165.81 1.71657C165.821 1.95124 165.831 2.18591 165.842 2.42057C165.853 3.23124 165.858 3.99391 165.858 4.70857C165.869 5.42324 165.874 6.14857 165.874 6.88457C165.874 7.10857 165.858 7.28457 165.826 7.41257C165.794 7.52991 165.757 7.64724 165.714 7.76457C165.703 7.79657 165.693 7.82857 165.682 7.86057C165.671 7.89257 165.655 7.92991 165.634 7.97257C165.559 8.12191 165.463 8.23391 165.346 8.30857C165.229 8.38324 165.101 8.43124 164.962 8.45257C164.834 8.46324 164.701 8.45791 164.562 8.43657C164.413 8.39391 164.285 8.3299 164.178 8.24457C164.082 8.15924 164.007 8.05257 163.954 7.92457C163.911 7.78591 163.879 7.65791 163.858 7.54057C163.837 7.41257 163.826 7.30591 163.826 7.22057C163.826 7.12457 163.826 7.07124 163.826 7.06057V2.26057Z" fill="black"/>
<path d="M173.97 10.6766C174.279 10.6766 174.556 10.7299 174.802 10.8366C175.058 10.9432 175.207 11.1672 175.25 11.5086C175.271 11.6792 175.244 11.8339 175.17 11.9726C175.106 12.1112 175.015 12.2286 174.898 12.3246C174.78 12.4206 174.642 12.4952 174.482 12.5486C174.332 12.6019 174.188 12.6339 174.05 12.6446C173.932 12.6446 173.724 12.6446 173.426 12.6446C173.138 12.6446 172.812 12.6446 172.45 12.6446C172.098 12.6446 171.735 12.6446 171.362 12.6446C170.988 12.6446 170.674 12.6446 170.418 12.6446H170.29C170.044 12.6339 169.788 12.6232 169.522 12.6126C169.266 12.6019 169.015 12.5592 168.77 12.4846C168.599 12.4312 168.439 12.3352 168.29 12.1966C168.14 12.0579 168.023 11.8979 167.938 11.7166C167.884 11.5992 167.847 11.4606 167.826 11.3006C167.804 11.1299 167.788 10.9699 167.778 10.8206C167.767 10.6606 167.762 10.5219 167.762 10.4046C167.772 10.2872 167.778 10.2232 167.778 10.2126V3.41257C167.778 3.38057 167.772 3.29524 167.762 3.15657C167.751 3.01791 167.746 2.85791 167.746 2.67657C167.756 2.49524 167.772 2.30857 167.794 2.11657C167.826 1.92457 167.884 1.76457 167.97 1.63657C168.034 1.52991 168.146 1.44457 168.306 1.38057C168.476 1.31657 168.647 1.26857 168.818 1.23657C168.999 1.20457 169.159 1.18857 169.298 1.18857C169.447 1.17791 169.538 1.17257 169.57 1.17257H173.314C173.324 1.17257 173.404 1.17257 173.554 1.17257C173.714 1.17257 173.884 1.19391 174.066 1.23657C174.247 1.26857 174.423 1.32724 174.594 1.41257C174.764 1.49791 174.876 1.62591 174.93 1.79657C174.951 1.86057 174.962 1.94057 174.962 2.03657C174.972 2.12191 174.978 2.21791 174.978 2.32457C174.978 2.42057 174.967 2.51124 174.946 2.59657C174.935 2.68191 174.919 2.74591 174.898 2.78857C174.823 2.92724 174.69 3.02324 174.498 3.07657C174.284 3.12991 173.98 3.15657 173.586 3.15657C173.522 3.15657 173.447 3.15657 173.362 3.15657C173.287 3.15657 173.164 3.15657 172.994 3.15657C172.834 3.14591 172.604 3.14057 172.306 3.14057C172.018 3.14057 171.628 3.14057 171.138 3.14057C170.988 3.14057 170.834 3.14591 170.674 3.15657C170.524 3.16724 170.412 3.18857 170.338 3.22057C170.263 3.25257 170.204 3.31657 170.162 3.41257C170.13 3.49791 170.103 3.59924 170.082 3.71657C170.071 3.82324 170.066 3.9299 170.066 4.03657C170.066 4.14324 170.071 4.22857 170.082 4.29257V4.30857L170.146 9.84457C170.146 10.0579 170.194 10.2339 170.29 10.3726C170.386 10.5006 170.556 10.5646 170.802 10.5646C170.834 10.5646 170.946 10.5752 171.138 10.5966C171.34 10.6072 171.591 10.6179 171.89 10.6286C172.199 10.6392 172.535 10.6499 172.898 10.6606C173.26 10.6712 173.618 10.6766 173.97 10.6766ZM179.49 5.62057C179.682 5.66324 179.847 5.74857 179.986 5.87657C180.135 6.00457 180.21 6.18591 180.21 6.42057C180.21 6.50591 180.204 6.58591 180.194 6.66057C180.194 6.72457 180.183 6.79924 180.162 6.88457C180.13 7.06591 180.06 7.22057 179.954 7.34857C179.858 7.47657 179.708 7.54057 179.506 7.54057L178.194 7.55657C178.183 7.83391 178.178 8.14324 178.178 8.48457C178.178 8.8259 178.178 9.17791 178.178 9.54057C178.178 9.90324 178.178 10.2712 178.178 10.6446C178.188 11.0072 178.194 11.3539 178.194 11.6846C178.194 11.8232 178.188 11.9939 178.178 12.1966C178.167 12.3992 178.13 12.5966 178.066 12.7886C178.002 12.9699 177.906 13.1299 177.778 13.2686C177.65 13.4072 177.468 13.4819 177.234 13.4926C176.978 13.5139 176.775 13.4712 176.626 13.3646C176.476 13.2579 176.364 13.1192 176.29 12.9486C176.215 12.7886 176.167 12.6126 176.146 12.4206C176.124 12.2179 176.114 12.0312 176.114 11.8606V2.03657C176.114 2.0259 176.114 1.9779 176.114 1.89257C176.114 1.79657 176.124 1.6899 176.146 1.57257C176.167 1.44457 176.199 1.31657 176.242 1.18857C176.295 1.04991 176.364 0.937905 176.45 0.852571C176.524 0.777905 176.631 0.724572 176.77 0.692572C176.919 0.649905 177.052 0.628571 177.17 0.628571C177.404 0.628571 177.602 0.708572 177.762 0.868572C177.911 1.01791 177.996 1.17791 178.018 1.34857C178.05 1.50857 178.076 1.67924 178.098 1.86057C178.151 2.44724 178.183 3.04991 178.194 3.66857C178.215 4.28724 178.226 4.90057 178.226 5.50857L179.49 5.62057Z" fill="black"/>
<path d="M185.409 7.50857C185.334 7.51924 185.164 7.52457 184.897 7.52457C184.641 7.52457 184.364 7.52457 184.065 7.52457C183.766 7.51391 183.484 7.50857 183.217 7.50857C182.95 7.50857 182.774 7.50857 182.689 7.50857H182.673C182.481 7.50857 182.289 7.50857 182.097 7.50857C181.916 7.49791 181.74 7.48191 181.569 7.46057C181.398 7.42857 181.244 7.38057 181.105 7.31657C180.966 7.25257 180.854 7.15657 180.769 7.02857C180.673 6.88991 180.604 6.71391 180.561 6.50057C180.529 6.28724 180.502 6.08457 180.481 5.89257C180.47 5.68991 180.465 5.51391 180.465 5.36457C180.476 5.21524 180.481 5.13524 180.481 5.12457V4.77257C180.481 4.65524 180.481 4.52191 180.481 4.37257C180.481 4.22324 180.486 4.05791 180.497 3.87657C180.497 3.68457 180.497 3.49791 180.497 3.31657C180.508 3.12457 180.513 2.95391 180.513 2.80457V2.29257C180.513 2.26057 180.513 2.2019 180.513 2.11657C180.513 2.03124 180.518 1.94057 180.529 1.84457C180.54 1.73791 180.556 1.63657 180.577 1.54057C180.598 1.4339 180.63 1.34857 180.673 1.28457C180.769 1.13524 180.865 1.02857 180.961 0.964572C181.068 0.889905 181.201 0.836572 181.361 0.804572C181.414 0.793905 181.494 0.788571 181.601 0.788571C181.708 0.777905 181.809 0.767238 181.905 0.756572C182.022 0.745905 182.145 0.740572 182.273 0.740572H185.889C186.124 0.740572 186.369 0.761905 186.625 0.804572C186.892 0.836572 187.126 0.916571 187.329 1.04457C187.489 1.14057 187.601 1.26324 187.665 1.41257C187.729 1.56191 187.772 1.7219 187.793 1.89257C187.814 2.06324 187.82 2.23924 187.809 2.42057C187.798 2.59124 187.793 2.75124 187.793 2.90057C187.793 3.07124 187.788 3.24191 187.777 3.41257C187.777 3.57257 187.782 3.73791 187.793 3.90857V4.78857C187.782 4.84191 187.777 4.90057 187.777 4.96457C187.788 5.02857 187.793 5.09257 187.793 5.15657C187.772 5.29524 187.766 5.43391 187.777 5.57257C187.788 5.70057 187.793 5.83924 187.793 5.98857C187.793 6.10591 187.782 6.23391 187.761 6.37257C187.75 6.50057 187.718 6.63391 187.665 6.77257C187.622 6.90057 187.558 7.01791 187.473 7.12457C187.398 7.23124 187.297 7.30591 187.169 7.34857C186.892 7.46591 186.598 7.52457 186.289 7.52457C185.99 7.51391 185.697 7.50857 185.409 7.50857ZM191.505 11.4926C191.505 11.4926 191.537 11.5032 191.601 11.5246C191.676 11.5459 191.756 11.5832 191.841 11.6366C191.926 11.6792 192.006 11.7432 192.081 11.8286C192.156 11.9032 192.204 11.9939 192.225 12.1006C192.278 12.5059 192.209 12.8206 192.017 13.0446C191.889 13.1939 191.75 13.2846 191.601 13.3166C191.452 13.3486 191.372 13.3646 191.361 13.3646H183.025C182.588 13.3646 182.246 13.2952 182.001 13.1566C181.756 13.0286 181.633 12.8419 181.633 12.5966V10.6766C181.633 10.6126 181.628 10.5326 181.617 10.4366C181.617 10.3406 181.617 10.2392 181.617 10.1326C181.617 10.0152 181.617 9.90857 181.617 9.81257C181.628 9.71657 181.633 9.63657 181.633 9.57257C181.654 9.34857 181.761 9.16724 181.953 9.02857C182.145 8.88991 182.364 8.82057 182.609 8.82057C182.662 8.82057 182.726 8.82591 182.801 8.83657C182.886 8.83657 182.956 8.84724 183.009 8.86857C183.148 8.91124 183.26 8.98591 183.345 9.09257C183.43 9.18857 183.494 9.30057 183.537 9.42857C183.58 9.55657 183.606 9.69524 183.617 9.84457C183.628 9.98324 183.638 10.1112 183.649 10.2286C183.649 10.2712 183.649 10.3566 183.649 10.4846C183.649 10.6019 183.649 10.7299 183.649 10.8686C183.649 11.0072 183.649 11.1352 183.649 11.2526C183.649 11.3592 183.649 11.4286 183.649 11.4606C183.681 11.4712 183.766 11.4872 183.905 11.5086C184.054 11.5192 184.326 11.5246 184.721 11.5246C185.062 11.5246 185.366 11.5192 185.633 11.5086C185.9 11.4979 186.038 11.4926 186.049 11.4926H191.505ZM192.033 1.07657C192.065 1.15124 192.092 1.26324 192.113 1.41257C192.134 1.56191 192.15 1.71657 192.161 1.87657C192.172 2.0259 192.177 2.16457 192.177 2.29257C192.177 2.42057 192.177 2.49524 192.177 2.51657V8.03657C192.177 8.04724 192.172 8.08991 192.161 8.16457C192.15 8.22857 192.124 8.30857 192.081 8.40457C192.049 8.50057 191.996 8.59657 191.921 8.69257C191.857 8.78857 191.772 8.86857 191.665 8.93257C191.516 9.02857 191.361 9.07657 191.201 9.07657C190.988 9.07657 190.801 9.01257 190.641 8.88457C190.513 8.80991 190.417 8.70324 190.353 8.56457C190.278 8.43657 190.23 8.30857 190.209 8.18057C190.188 8.05257 190.172 7.92991 190.161 7.81257V7.02857H190.113C189.953 7.01791 189.777 7.01257 189.585 7.01257C189.404 7.00191 189.222 6.98591 189.041 6.96457C188.87 6.94324 188.716 6.90591 188.577 6.85257C188.438 6.78857 188.337 6.70324 188.273 6.59657C188.198 6.47924 188.161 6.34057 188.161 6.18057C188.172 6.00991 188.188 5.86591 188.209 5.74857C188.241 5.62057 188.305 5.51391 188.401 5.42857C188.497 5.34324 188.657 5.27391 188.881 5.22057C188.924 5.20991 189.004 5.20457 189.121 5.20457C189.249 5.19391 189.377 5.18324 189.505 5.17257C189.644 5.16191 189.772 5.15657 189.889 5.15657C190.017 5.14591 190.108 5.14057 190.161 5.14057V4.10057C190.001 4.10057 189.82 4.10591 189.617 4.11657C189.425 4.11657 189.238 4.11124 189.057 4.10057C188.886 4.07924 188.726 4.04724 188.577 4.00457C188.438 3.96191 188.337 3.88724 188.273 3.78057C188.241 3.72724 188.214 3.65791 188.193 3.57257C188.182 3.48724 188.172 3.40191 188.161 3.31657C188.161 3.22057 188.166 3.12991 188.177 3.04457C188.188 2.95924 188.198 2.88457 188.209 2.82057C188.241 2.70324 188.305 2.60191 188.401 2.51657C188.497 2.43124 188.657 2.36191 188.881 2.30857C188.913 2.29791 188.977 2.29257 189.073 2.29257C189.18 2.28191 189.297 2.27657 189.425 2.27657C189.553 2.26591 189.681 2.26057 189.809 2.26057C189.948 2.2499 190.065 2.24457 190.161 2.24457C190.15 2.14857 190.15 2.01524 190.161 1.84457C190.172 1.6739 190.188 1.5459 190.209 1.46057C190.241 1.37524 190.268 1.28991 190.289 1.20457C190.31 1.11924 190.358 1.0339 190.433 0.948572C190.529 0.841905 190.657 0.767238 190.817 0.724572C190.988 0.671239 191.169 0.655239 191.361 0.676572C191.702 0.729905 191.926 0.863238 192.033 1.07657ZM183.361 2.74057C183.265 2.74057 183.174 2.74057 183.089 2.74057C183.014 2.74057 182.945 2.75124 182.881 2.77257C182.732 2.78324 182.609 2.84724 182.513 2.96457C182.47 3.01791 182.444 3.09791 182.433 3.20457C182.433 3.31124 182.433 3.37524 182.433 3.39657V4.06857C182.422 4.15391 182.417 4.23391 182.417 4.30857C182.417 4.37257 182.417 4.43124 182.417 4.48457V4.67657C182.417 4.67657 182.417 4.70857 182.417 4.77257C182.417 4.83657 182.417 4.91124 182.417 4.99657C182.428 5.08191 182.444 5.16724 182.465 5.25257C182.486 5.33791 182.524 5.41257 182.577 5.47657C182.662 5.58324 182.801 5.64724 182.993 5.66857C183.185 5.67924 183.377 5.68457 183.569 5.68457H183.585C183.862 5.67391 184.092 5.67391 184.273 5.68457C184.454 5.68457 184.689 5.68457 184.977 5.68457C185.062 5.68457 185.148 5.68991 185.233 5.70057C185.329 5.70057 185.42 5.68991 185.505 5.66857C185.59 5.65791 185.649 5.63124 185.681 5.58857C185.713 5.54591 185.74 5.49257 185.761 5.42857C185.782 5.34324 185.793 5.27391 185.793 5.22057C185.836 5.01791 185.857 4.78857 185.857 4.53257C185.857 4.36191 185.857 4.19124 185.857 4.02057C185.868 3.84991 185.868 3.67924 185.857 3.50857C185.846 3.42324 185.841 3.33791 185.841 3.25257C185.852 3.16724 185.846 3.08191 185.825 2.99657C185.782 2.87924 185.713 2.81524 185.617 2.80457C185.521 2.78324 185.425 2.77257 185.329 2.77257L183.361 2.74057Z" fill="black"/>
</svg>
