<svg width="125" height="14" viewBox="0 0 125 14" fill="none" xmlns="http://www.w3.org/2000/svg">
<path d="M9.648 12.768C9.552 12.7893 9.33333 12.8 8.992 12.8C8.66133 12.8107 8.26667 12.816 7.808 12.816C7.34933 12.816 6.85867 12.8107 6.336 12.8C5.81333 12.8 5.32267 12.7947 4.864 12.784C4.40533 12.784 4.01067 12.784 3.68 12.784C3.34933 12.784 3.14133 12.784 3.056 12.784C2.84267 12.784 2.61867 12.768 2.384 12.736C2.14933 12.704 1.94133 12.6187 1.76 12.48C1.64267 12.384 1.54667 12.2667 1.472 12.128C1.408 11.9787 1.36 11.8347 1.328 11.696C1.296 11.5573 1.27467 11.4347 1.264 11.328C1.25333 11.2213 1.248 11.1627 1.248 11.152V9.936C1.248 9.62667 1.248 9.344 1.248 9.088C1.25867 8.82133 1.264 8.67733 1.264 8.656C1.264 8.50667 1.29067 8.368 1.344 8.24C1.39733 8.10133 1.49867 8 1.648 7.936C1.72267 7.904 1.80267 7.88267 1.888 7.872C1.984 7.86133 2.07467 7.85067 2.16 7.84C2.34133 7.82933 2.52267 7.86133 2.704 7.936C2.896 8 3.01333 8.13867 3.056 8.352V8.768C3.07733 8.928 3.11467 9.008 3.168 9.008C3.22133 8.99733 3.312 8.99733 3.44 9.008H9.936V8.528C9.94667 8.336 9.984 8.18133 10.048 8.064C10.1227 7.94667 10.256 7.872 10.448 7.84C10.5973 7.808 10.784 7.79733 11.008 7.808C11.232 7.81867 11.4027 7.87733 11.52 7.984C11.6267 8.08 11.68 8.19733 11.68 8.336C11.68 8.464 11.68 8.592 11.68 8.72C11.6587 9.21067 11.6587 9.696 11.68 10.176C11.7013 10.656 11.6853 11.1413 11.632 11.632C11.6213 11.7813 11.5947 11.9093 11.552 12.016C11.5093 12.112 11.4453 12.2187 11.36 12.336C11.2747 12.464 11.1573 12.5547 11.008 12.608C10.8693 12.6613 10.72 12.6987 10.56 12.72C10.4 12.7413 10.24 12.752 10.08 12.752C9.92 12.752 9.776 12.7573 9.648 12.768ZM5.408 0.288C5.504 0.288 5.59467 0.288 5.68 0.288C5.776 0.288 5.86667 0.298667 5.952 0.320001C6.10133 0.373334 6.24533 0.437334 6.384 0.512C6.53333 0.586667 6.656 0.688 6.752 0.816C6.848 0.954667 6.92267 1.13067 6.976 1.344C7.02933 1.54667 7.056 1.73333 7.056 1.904C7.056 2.36267 7.06133 2.82133 7.072 3.28C7.08267 3.73867 7.07733 4.19733 7.056 4.656C7.056 4.80533 7.056 4.96533 7.056 5.136C7.056 5.296 7.05067 5.46133 7.04 5.632C7.04 5.792 7.024 5.952 6.992 6.112C6.96 6.26133 6.912 6.4 6.848 6.528C6.76267 6.67733 6.65067 6.79467 6.512 6.88C6.37333 6.96533 6.224 7.01867 6.064 7.04C5.91467 7.06133 5.76533 7.04533 5.616 6.992C5.46667 6.93867 5.34933 6.83733 5.264 6.688C5.168 6.528 5.09867 6.35733 5.056 6.176C5.01333 5.984 4.98667 5.78667 4.976 5.584C4.96533 5.38133 4.96533 5.17867 4.976 4.976C4.98667 4.77333 4.992 4.58133 4.992 4.4C4.992 4.13333 4.98667 3.856 4.976 3.568C4.976 3.28 4.96533 3.00267 4.944 2.736C4.93333 2.608 4.90133 2.51733 4.848 2.464C4.79467 2.4 4.73067 2.35733 4.656 2.336C4.58133 2.31467 4.496 2.304 4.4 2.304C4.304 2.304 4.20267 2.29867 4.096 2.288C3.98933 2.288 3.91467 2.288 3.872 2.288C3.82933 2.288 3.792 2.288 3.76 2.288C3.728 2.288 3.69067 2.29333 3.648 2.304C3.60533 2.304 3.53067 2.304 3.424 2.304H2.736C2.39467 2.304 2.03733 2.29867 1.664 2.288C1.29067 2.27733 0.906667 2.24533 0.512 2.192C0.362667 2.17067 0.250667 2.112 0.176 2.016C0.112 1.92 0.064 1.808 0.032 1.68C0.0106667 1.552 0 1.41867 0 1.28C0.0106667 1.14133 0.0266667 1.024 0.048 0.928C0.0906667 0.725334 0.202667 0.565334 0.384 0.448C0.501333 0.362667 0.624 0.320001 0.752 0.320001C0.890667 0.309333 1.02933 0.298667 1.168 0.288C1.31733 0.266667 1.46667 0.261334 1.616 0.272C1.76533 0.282667 1.91467 0.288 2.064 0.288H5.408ZM11.632 1.472C11.632 1.46133 11.632 1.52533 11.632 1.664C11.632 1.80267 11.632 1.968 11.632 2.16C11.632 2.34133 11.632 2.52267 11.632 2.704C11.632 2.88533 11.632 3.01333 11.632 3.088C11.6747 3.088 11.7547 3.09333 11.872 3.104C11.9893 3.104 12.112 3.10933 12.24 3.12C12.368 3.12 12.4907 3.12533 12.608 3.136C12.7253 3.14667 12.8107 3.15733 12.864 3.168C13.0773 3.21067 13.2267 3.27467 13.312 3.36C13.3973 3.43467 13.4507 3.53067 13.472 3.648C13.504 3.76533 13.52 3.904 13.52 4.064C13.52 4.21333 13.488 4.34133 13.424 4.448C13.296 4.66133 13.104 4.784 12.848 4.816C12.592 4.83733 12.3093 4.85333 12 4.864H11.632V6.128C11.6213 6.24533 11.6053 6.368 11.584 6.496C11.5627 6.61333 11.52 6.73067 11.456 6.848C11.392 6.976 11.3013 7.08267 11.184 7.168C11.0347 7.27467 10.8587 7.328 10.656 7.328C10.4747 7.328 10.3253 7.29067 10.208 7.216C10.1013 7.152 10.016 7.072 9.952 6.976C9.888 6.88 9.83467 6.78933 9.792 6.704C9.76 6.608 9.73867 6.528 9.728 6.464C9.71733 6.38933 9.712 6.352 9.712 6.352V1.264C9.70133 1.22133 9.70667 1.104 9.728 0.912001C9.74933 0.720001 9.792 0.56 9.856 0.432C9.96267 0.208 10.176 0.0800006 10.496 0.0480003C10.8907 -0.00533295 11.184 0.074667 11.376 0.288C11.44 0.373334 11.4827 0.458667 11.504 0.544001C11.536 0.618667 11.5627 0.698667 11.584 0.784C11.616 0.890667 11.632 1.00267 11.632 1.12C11.6427 1.23733 11.6427 1.35467 11.632 1.472ZM4 10.48C3.904 10.48 3.79733 10.48 3.68 10.48C3.57333 10.4693 3.47733 10.4747 3.392 10.496C3.30667 10.5067 3.232 10.5387 3.168 10.592C3.11467 10.6347 3.088 10.704 3.088 10.8C3.088 10.9173 3.09333 11.0027 3.104 11.056C3.15733 11.2373 3.23733 11.3333 3.344 11.344C3.46133 11.344 3.58933 11.3387 3.728 11.328C4.02667 11.328 4.352 11.3333 4.704 11.344C5.056 11.344 5.392 11.3493 5.712 11.36C5.744 11.36 5.84533 11.36 6.016 11.36C6.19733 11.36 6.416 11.36 6.672 11.36C6.928 11.3493 7.2 11.344 7.488 11.344C7.776 11.344 8.048 11.344 8.304 11.344C8.56 11.3333 8.77333 11.328 8.944 11.328C9.12533 11.328 9.232 11.328 9.264 11.328C9.31733 11.328 9.38133 11.3333 9.456 11.344C9.53067 11.3547 9.6 11.3547 9.664 11.344C9.728 11.3333 9.78133 11.3067 9.824 11.264C9.86667 11.2213 9.888 11.1573 9.888 11.072C9.888 10.9867 9.89333 10.912 9.904 10.848C9.91467 10.784 9.888 10.7147 9.824 10.64C9.74933 10.5547 9.65867 10.5067 9.552 10.496C9.456 10.4853 9.35467 10.4853 9.248 10.496C9.22667 10.496 9.08267 10.496 8.816 10.496C8.56 10.496 8.23467 10.496 7.84 10.496C7.456 10.496 7.04 10.496 6.592 10.496C6.15467 10.4853 5.744 10.48 5.36 10.48C4.976 10.48 4.65067 10.48 4.384 10.48C4.128 10.48 4 10.48 4 10.48Z" fill="black"/>
<path d="M19.7498 0.784C20.1871 0.784 20.5658 0.826667 20.8858 0.912001C21.0244 0.965334 21.1578 1.04 21.2858 1.136C21.4138 1.22133 21.5204 1.344 21.6058 1.504C21.6911 1.632 21.7444 1.77067 21.7658 1.92C21.7871 2.06933 21.7604 2.208 21.6858 2.336C21.5578 2.63467 21.2911 2.816 20.8858 2.88C20.7578 2.90133 20.6244 2.92267 20.4858 2.944C20.3471 2.95467 20.1871 2.96 20.0058 2.96C19.8564 2.96 19.6698 2.96 19.4458 2.96C19.2324 2.94933 18.9978 2.93333 18.7418 2.912C18.7311 2.93333 18.7258 3.00267 18.7258 3.12C18.7258 3.22667 18.7258 3.36533 18.7258 3.536C18.7258 3.70667 18.7258 3.89333 18.7258 4.096C18.7258 4.29867 18.7258 4.50667 18.7258 4.72C18.7258 5.22133 18.7311 5.78133 18.7418 6.4V6.752C18.7418 6.82667 18.7418 6.88533 18.7418 6.928C18.7418 6.97067 18.7524 7.01867 18.7738 7.072C18.7844 7.08267 18.8484 7.16267 18.9658 7.312C19.0831 7.45067 19.2218 7.62667 19.3818 7.84C19.5524 8.05333 19.7338 8.288 19.9258 8.544C20.1178 8.78933 20.2991 9.024 20.4698 9.248C20.6404 9.472 20.7898 9.67467 20.9178 9.856C21.0458 10.0267 21.1258 10.144 21.1578 10.208C21.2431 10.3573 21.3231 10.5227 21.3978 10.704C21.4831 10.8747 21.5364 11.0453 21.5578 11.216C21.5791 11.28 21.5898 11.3547 21.5898 11.44C21.6004 11.5253 21.6058 11.616 21.6058 11.712C21.5631 11.8613 21.4724 12.0053 21.3338 12.144C21.2484 12.208 21.1578 12.2613 21.0618 12.304C20.9764 12.3467 20.8751 12.368 20.7578 12.368C20.5658 12.368 20.3951 12.336 20.2458 12.272C20.0964 12.1973 19.9578 12.1067 19.8298 12C19.7018 11.8827 19.5844 11.7547 19.4778 11.616C19.3711 11.4773 19.2698 11.3333 19.1738 11.184C19.0884 11.0667 18.9764 10.9173 18.8378 10.736C18.7098 10.5547 18.5978 10.4053 18.5018 10.288C18.4378 10.2027 18.3791 10.1227 18.3258 10.048C18.2831 9.97333 18.2244 9.89333 18.1498 9.808C18.0644 9.69067 17.9791 9.57333 17.8938 9.456C17.8084 9.328 17.7178 9.20533 17.6218 9.088C17.4191 9.33333 17.2324 9.57333 17.0618 9.808C16.9018 10.032 16.7364 10.2613 16.5658 10.496C16.3951 10.72 16.2191 10.9493 16.0378 11.184C15.8564 11.4187 15.6538 11.6693 15.4298 11.936C15.3124 12.064 15.1844 12.176 15.0458 12.272C14.9071 12.368 14.7311 12.416 14.5178 12.416C14.4751 12.416 14.4324 12.4053 14.3898 12.384C14.3471 12.3733 14.2884 12.368 14.2138 12.368C13.9791 12.2613 13.8191 12.1173 13.7338 11.936C13.6804 11.8187 13.6484 11.712 13.6378 11.616C13.6378 11.52 13.6378 11.4187 13.6378 11.312C13.6591 11.1947 13.6804 11.0933 13.7018 11.008C13.7338 10.9227 13.7764 10.8427 13.8298 10.768C13.8724 10.6827 13.9151 10.5973 13.9578 10.512C14.0004 10.4267 14.0431 10.3413 14.0858 10.256C14.1498 10.1707 14.2084 10.0907 14.2618 10.016C14.3151 9.93067 14.3738 9.84533 14.4378 9.76C14.4591 9.70667 14.4911 9.664 14.5338 9.632C14.5764 9.58933 14.6244 9.54667 14.6778 9.504C14.6991 9.45067 14.7258 9.40267 14.7578 9.36C14.7898 9.31733 14.8164 9.25867 14.8378 9.184C14.8911 9.12 14.9498 9.04 15.0138 8.944C15.0778 8.83733 15.1524 8.74133 15.2378 8.656C15.3871 8.44267 15.5471 8.224 15.7178 8C15.7924 7.91467 15.8671 7.81867 15.9418 7.712C16.0164 7.59467 16.0964 7.49333 16.1818 7.408C16.2458 7.344 16.3204 7.25333 16.4058 7.136C16.4911 7.01867 16.5444 6.93867 16.5658 6.896V2.912H14.6778C14.4858 2.912 14.3631 2.90133 14.3098 2.88C13.9044 2.816 13.6378 2.592 13.5098 2.208C13.3818 1.84533 13.4138 1.552 13.6058 1.328C13.7231 1.18933 13.8404 1.07733 13.9578 0.992001C14.0751 0.906667 14.2191 0.853333 14.3898 0.832C14.4218 0.8 14.4644 0.784 14.5178 0.784H19.7498ZM25.5258 5.024C25.7604 5.024 25.9791 5.02933 26.1818 5.04C26.3844 5.05067 26.5551 5.168 26.6938 5.392C26.8004 5.57333 26.8538 5.76533 26.8538 5.968C26.8538 6.17067 26.8004 6.34667 26.6938 6.496C26.6084 6.592 26.5231 6.66667 26.4378 6.72C26.3631 6.77333 26.2778 6.81067 26.1818 6.832C26.0964 6.85333 25.9951 6.86933 25.8778 6.88C25.7604 6.88 25.6324 6.88533 25.4938 6.896H24.7738V9.088C24.7951 9.46133 24.8004 9.84533 24.7898 10.24C24.7791 10.6347 24.7738 11.0187 24.7738 11.392C24.7738 11.4773 24.7684 11.5627 24.7578 11.648C24.7471 11.7227 24.7418 11.8027 24.7418 11.888C24.7204 11.952 24.7044 12.0267 24.6938 12.112C24.6831 12.1867 24.6564 12.256 24.6138 12.32C24.5924 12.3947 24.5658 12.4587 24.5338 12.512C24.5018 12.576 24.4538 12.6347 24.3898 12.688C24.2298 12.8373 24.0164 12.912 23.7498 12.912C23.4831 12.912 23.2698 12.8213 23.1098 12.64C22.9711 12.5013 22.8804 12.3253 22.8378 12.112C22.8058 11.8987 22.7791 11.7013 22.7578 11.52C22.7578 11.4133 22.7471 11.3173 22.7258 11.232C22.7151 11.136 22.7098 11.0453 22.7098 10.96V1.504C22.7098 1.41867 22.7098 1.33867 22.7098 1.264C22.7204 1.18933 22.7364 1.12 22.7578 1.056C22.7791 0.906667 22.8058 0.773333 22.8378 0.656C22.8698 0.538667 22.9444 0.432 23.0618 0.336C23.1258 0.272 23.2324 0.213333 23.3818 0.16C23.5524 0.117334 23.7178 0.106667 23.8778 0.128C24.0484 0.138667 24.2031 0.208 24.3418 0.336C24.5231 0.464 24.6138 0.629333 24.6138 0.832C24.6778 1.14133 24.7204 1.44533 24.7418 1.744C24.7631 2.032 24.7738 2.33067 24.7738 2.64V5.024H25.5258Z" fill="black"/>
<path d="M38.7383 11.696C38.7169 11.824 38.7009 11.952 38.6903 12.08C38.6796 12.1973 38.6529 12.32 38.6103 12.448C38.5889 12.4907 38.5729 12.528 38.5623 12.56C38.5516 12.592 38.5356 12.6293 38.5143 12.672C38.4396 12.8213 38.3436 12.9387 38.2263 13.024C37.9809 13.1733 37.7089 13.2107 37.4103 13.136C37.2396 13.104 37.1009 13.04 36.9943 12.944C36.8983 12.8587 36.8236 12.7467 36.7703 12.608C36.7276 12.48 36.6903 12.352 36.6583 12.224C36.6369 12.096 36.6263 11.984 36.6263 11.888C36.6263 11.792 36.6263 11.7387 36.6263 11.728V1.84C36.6263 1.712 36.6263 1.57333 36.6263 1.424C36.6263 1.27467 36.6369 1.12533 36.6583 0.976C36.6796 0.826667 36.7116 0.688 36.7543 0.56C36.7969 0.432 36.8556 0.330667 36.9303 0.256001C37.0476 0.138667 37.1703 0.0693334 37.2983 0.0480003C37.4263 0.0160001 37.5649 0 37.7143 0C37.8956 0 38.0609 0.0533333 38.2103 0.16C38.3703 0.256 38.4823 0.394667 38.5463 0.576C38.6423 0.800001 38.6956 1.03467 38.7063 1.28C38.7169 1.52533 38.7276 1.77067 38.7383 2.016V2.096C38.7596 2.91733 38.7649 3.76 38.7543 4.624C38.7436 5.488 38.7383 6.304 38.7383 7.072V11.12C38.7383 11.216 38.7383 11.312 38.7383 11.408C38.7489 11.504 38.7489 11.6 38.7383 11.696ZM31.1863 10.128C31.1756 10 31.1703 9.872 31.1703 9.744C31.1703 9.616 31.1703 9.488 31.1703 9.36V4.272C31.1703 4.10133 31.1703 3.93067 31.1703 3.76C31.1703 3.58933 31.1596 3.41333 31.1383 3.232C31.1276 3.17867 31.1116 3.104 31.0903 3.008C31.0796 2.912 31.0476 2.85333 30.9943 2.832C30.9409 2.8 30.8769 2.78933 30.8023 2.8C30.7383 2.8 30.6743 2.79467 30.6103 2.784C30.5356 2.77333 30.4609 2.77333 30.3863 2.784C30.3223 2.79467 30.2529 2.79467 30.1783 2.784H29.4263C29.2449 2.79467 29.0636 2.79467 28.8823 2.784C28.7009 2.77333 28.5196 2.77333 28.3383 2.784C28.2529 2.79467 28.1729 2.8 28.0983 2.8C28.0343 2.78933 27.9596 2.784 27.8743 2.784C27.7569 2.784 27.6343 2.77867 27.5063 2.768C27.3783 2.75733 27.2609 2.71467 27.1543 2.64C27.0049 2.53333 26.9036 2.4 26.8503 2.24C26.7969 2.08 26.7703 1.91467 26.7703 1.744C26.7596 1.54133 26.8023 1.33867 26.8983 1.136C26.9516 1.008 27.0209 0.917334 27.1063 0.864C27.1596 0.810667 27.2343 0.768 27.3303 0.736C27.4369 0.693333 27.5276 0.661333 27.6023 0.64C27.8263 0.586667 28.0609 0.56 28.3063 0.56C28.5516 0.549334 28.7916 0.544001 29.0263 0.544001H31.8103C31.9489 0.565334 32.0929 0.586667 32.2423 0.608C32.4023 0.618667 32.5463 0.650667 32.6743 0.704C32.7596 0.736 32.8396 0.778666 32.9143 0.832C32.9996 0.885334 33.0689 0.949334 33.1223 1.024C33.2183 1.17333 33.2716 1.32267 33.2823 1.472C33.3036 1.62133 33.3249 1.78667 33.3463 1.968C33.3676 2.26667 33.3783 2.56533 33.3783 2.864C33.3783 3.152 33.3783 3.44533 33.3783 3.744V8.992C33.3783 9.00267 33.3783 9.088 33.3783 9.248C33.3889 9.39733 33.3943 9.57867 33.3943 9.792C33.3943 9.99467 33.3943 10.2133 33.3943 10.448C33.3943 10.672 33.3889 10.8693 33.3783 11.04C33.3676 11.1467 33.3516 11.2587 33.3303 11.376C33.3089 11.4933 33.2716 11.6053 33.2183 11.712C33.1756 11.8187 33.1116 11.9147 33.0263 12C32.9409 12.0853 32.8289 12.1547 32.6903 12.208C32.5089 12.2827 32.3276 12.32 32.1463 12.32C32.0076 12.32 31.8689 12.2933 31.7303 12.24C31.5916 12.176 31.4956 12.0853 31.4423 11.968C31.2716 11.6267 31.1863 11.248 31.1863 10.832V10.128Z" fill="black"/>
<path d="M46.4603 4.752C46.4603 4.88 46.4709 4.944 46.4923 4.944C46.5136 4.944 46.5509 4.94933 46.6043 4.96C46.6576 4.96 46.7376 4.97067 46.8443 4.992C46.9296 4.992 47.0363 4.99733 47.1643 5.008C47.2923 5.01867 47.4096 5.024 47.5163 5.024H47.9643C48.0923 4.992 48.1776 4.95467 48.2203 4.912C48.2203 4.89067 48.2203 4.864 48.2203 4.832C48.2203 4.78933 48.2309 4.72533 48.2523 4.64V1.68C48.2736 1.57333 48.2896 1.47733 48.3003 1.392C48.3216 1.296 48.3536 1.19467 48.3963 1.088C48.4283 0.885334 48.5189 0.72 48.6683 0.592C48.7963 0.453333 48.9989 0.384 49.2763 0.384C49.3723 0.384 49.4523 0.4 49.5163 0.432C49.5909 0.464 49.6709 0.506667 49.7563 0.56C49.8949 0.656 49.9963 0.810667 50.0603 1.024C50.1456 1.23733 50.2043 1.488 50.2363 1.776C50.2363 1.904 50.2416 2.03733 50.2523 2.176C50.2629 2.304 50.2683 2.44267 50.2683 2.592C50.2683 2.72 50.2683 2.83733 50.2683 2.944C50.2683 3.05067 50.2576 3.14667 50.2363 3.232V9.296C50.2363 9.62667 50.2256 9.97867 50.2043 10.352C50.1829 10.7253 50.0816 11.0667 49.9003 11.376C49.8789 11.4613 49.8309 11.5413 49.7563 11.616C49.7243 11.6693 49.6923 11.7067 49.6603 11.728C49.6283 11.7493 49.6069 11.7707 49.5963 11.792C49.5323 11.888 49.4416 11.952 49.3243 11.984C49.2709 12.0053 49.2176 12.0213 49.1643 12.032C49.1216 12.0427 49.0736 12.0587 49.0203 12.08C48.8923 12.1333 48.7909 12.16 48.7163 12.16H46.2843C46.1349 12.16 46.0016 12.16 45.8843 12.16C45.7669 12.1493 45.6496 12.1227 45.5323 12.08C45.4149 12.0587 45.3029 12.0267 45.1963 11.984C45.0896 11.9413 44.9829 11.888 44.8763 11.824C44.7483 11.7067 44.6523 11.568 44.5883 11.408C44.5563 11.3227 44.5243 11.2427 44.4923 11.168C44.4603 11.0827 44.4336 10.9973 44.4123 10.912C44.4123 10.8267 44.4069 10.752 44.3963 10.688C44.3856 10.6133 44.3803 10.5387 44.3803 10.464V1.968C44.3803 1.88267 44.3856 1.80267 44.3963 1.728C44.4069 1.64267 44.4229 1.55733 44.4443 1.472C44.4656 1.36533 44.4923 1.26933 44.5243 1.184C44.5563 1.09867 44.5883 1.024 44.6203 0.96C44.6736 0.874667 44.7216 0.8 44.7643 0.736C44.8176 0.672 44.8816 0.613334 44.9563 0.56C45.0416 0.464 45.2016 0.416 45.4363 0.416C45.7029 0.416 45.8949 0.474667 46.0123 0.592C46.1403 0.709334 46.2416 0.874667 46.3163 1.088C46.3909 1.248 46.4283 1.408 46.4283 1.568C46.4283 1.64267 46.4336 1.71733 46.4443 1.792C46.4549 1.856 46.4603 1.92533 46.4603 2V4.752ZM51.6603 12.416C51.5749 12.3307 51.5109 12.224 51.4683 12.096C51.4256 11.968 51.3936 11.84 51.3723 11.712C51.3509 11.5947 51.3403 11.472 51.3403 11.344C51.3403 11.216 51.3403 11.0933 51.3403 10.976V1.232C51.3403 1.02933 51.3776 0.858667 51.4523 0.72C51.4843 0.581333 51.5643 0.437333 51.6923 0.288C51.7776 0.170667 51.9216 0.0800002 52.1243 0.0159998C52.3909 -0.0159998 52.6096 0.0533336 52.7803 0.224C52.8336 0.298667 52.8816 0.373334 52.9243 0.448C52.9669 0.522667 53.0043 0.613334 53.0363 0.72C53.0683 0.826667 53.0789 0.938667 53.0683 1.056C53.0683 1.17333 53.0789 1.30133 53.1003 1.44C53.1003 1.55733 53.1056 1.68533 53.1163 1.824C53.1269 1.952 53.1323 2.08 53.1323 2.208V5.152H54.1883V1.328C54.1883 1.232 54.1936 1.136 54.2043 1.04C54.2149 0.944 54.2309 0.853333 54.2523 0.768001C54.2949 0.565333 54.3643 0.394667 54.4603 0.256001C54.6096 0.128 54.7909 0.048 55.0043 0.0159998C55.1216 0.0159998 55.2389 0.0426668 55.3563 0.0960007C55.4736 0.138667 55.5696 0.192 55.6443 0.256001C55.7936 0.437333 55.8789 0.634667 55.9003 0.848001C55.9323 1.05067 55.9589 1.25867 55.9803 1.472C55.9803 1.58933 55.9856 1.712 55.9963 1.84C56.0069 1.95733 56.0123 2.08 56.0123 2.208C56.0123 2.32533 56.0123 2.43733 56.0123 2.544C56.0123 2.65067 56.0016 2.74667 55.9803 2.832V11.088C55.9803 11.216 55.9803 11.36 55.9803 11.52C55.9803 11.6693 55.9696 11.8187 55.9483 11.968C55.9269 12.1067 55.8629 12.2453 55.7563 12.384C55.6603 12.5227 55.5376 12.6347 55.3883 12.72C55.2496 12.8053 55.1003 12.8427 54.9403 12.832C54.7909 12.832 54.6576 12.7573 54.5403 12.608C54.3803 12.4053 54.2789 12.16 54.2363 11.872C54.2043 11.5733 54.1883 11.3013 54.1883 11.056V7.12H53.1323V11.008C53.1323 11.136 53.1323 11.264 53.1323 11.392C53.1323 11.5093 53.1216 11.6373 53.1003 11.776C53.0683 11.9893 53.0043 12.1813 52.9083 12.352C52.8123 12.5227 52.6416 12.6347 52.3963 12.688C52.2363 12.72 52.0923 12.7093 51.9643 12.656C51.8469 12.6027 51.7456 12.5227 51.6603 12.416ZM46.3163 6.976V10.208H48.2523L48.2203 6.928L46.3163 6.976Z" fill="black"/>
<path d="M61.2278 10.128C61.2171 10 61.2118 9.872 61.2118 9.744C61.2118 9.616 61.2118 9.488 61.2118 9.36V4.272C61.2118 4.10133 61.2118 3.93067 61.2118 3.76C61.2118 3.58933 61.2011 3.41333 61.1798 3.232C61.1691 3.17867 61.1531 3.104 61.1318 3.008C61.1211 2.912 61.0891 2.85333 61.0358 2.832C60.9824 2.8 60.9184 2.78933 60.8438 2.8C60.7798 2.8 60.7158 2.79467 60.6518 2.784C60.5771 2.77333 60.5024 2.77333 60.4278 2.784C60.3638 2.79467 60.2944 2.79467 60.2198 2.784H59.4678C59.2864 2.79467 59.1051 2.79467 58.9238 2.784C58.7424 2.77333 58.5611 2.77333 58.3798 2.784C58.2944 2.79467 58.2144 2.8 58.1398 2.8C58.0758 2.78933 58.0011 2.784 57.9158 2.784C57.7984 2.784 57.6758 2.77867 57.5478 2.768C57.4198 2.75733 57.3024 2.71467 57.1958 2.64C57.0464 2.53333 56.9451 2.4 56.8918 2.24C56.8384 2.08 56.8118 1.91467 56.8118 1.744C56.8011 1.54133 56.8438 1.33867 56.9398 1.136C56.9931 1.008 57.0624 0.917334 57.1478 0.864C57.2011 0.810667 57.2758 0.768 57.3718 0.736C57.4784 0.693333 57.5691 0.661333 57.6438 0.64C57.8678 0.586667 58.1024 0.56 58.3478 0.56C58.5931 0.549334 58.8331 0.544001 59.0678 0.544001H61.8518C61.9904 0.565334 62.1344 0.586667 62.2838 0.608C62.4438 0.618667 62.5878 0.650667 62.7158 0.704C62.8011 0.736 62.8811 0.778666 62.9558 0.832C63.0411 0.885334 63.1104 0.949334 63.1638 1.024C63.2598 1.17333 63.3131 1.32267 63.3238 1.472C63.3451 1.62133 63.3664 1.78667 63.3878 1.968C63.4091 2.26667 63.4198 2.56533 63.4198 2.864C63.4198 3.152 63.4198 3.44533 63.4198 3.744V8.992C63.4198 9.00267 63.4198 9.088 63.4198 9.248C63.4304 9.39733 63.4358 9.57867 63.4358 9.792C63.4358 9.99467 63.4358 10.2133 63.4358 10.448C63.4358 10.672 63.4304 10.8693 63.4198 11.04C63.4091 11.1467 63.3931 11.2587 63.3718 11.376C63.3504 11.4933 63.3131 11.6053 63.2598 11.712C63.2171 11.8187 63.1531 11.9147 63.0678 12C62.9824 12.0853 62.8704 12.1547 62.7318 12.208C62.5504 12.2827 62.3691 12.32 62.1878 12.32C62.0491 12.32 61.9104 12.2933 61.7718 12.24C61.6331 12.176 61.5371 12.0853 61.4838 11.968C61.3131 11.6267 61.2278 11.248 61.2278 10.832V10.128ZM67.9958 4.944C68.1451 4.95467 68.2998 4.96533 68.4598 4.976C68.6198 4.976 68.7744 4.98133 68.9238 4.992C68.9771 4.992 69.0358 4.99733 69.0998 5.008C69.1638 5.01867 69.2278 5.02933 69.2918 5.04C69.5051 5.08267 69.6758 5.17333 69.8038 5.312C69.9424 5.44 70.0118 5.616 70.0118 5.84C70.0118 5.98933 69.9958 6.16 69.9638 6.352C69.9424 6.544 69.8624 6.69333 69.7238 6.8C69.6598 6.85333 69.5958 6.896 69.5318 6.928C69.4678 6.96 69.3931 6.98667 69.3078 7.008C69.1371 7.02933 68.9291 7.03467 68.6838 7.024C68.4384 7.01333 68.2304 7.01333 68.0598 7.024C68.0171 7.024 67.9958 7.05067 67.9958 7.104C67.9958 7.232 67.9958 7.38667 67.9958 7.568C67.9958 7.73867 67.9958 7.92 67.9958 8.112C67.9958 8.29333 67.9958 8.47467 67.9958 8.656C67.9958 8.82667 67.9958 8.98133 67.9958 9.12C68.0171 9.67467 68.0171 10.2187 67.9958 10.752V10.976C67.9958 11.1147 67.9904 11.2693 67.9798 11.44C67.9798 11.6 67.9691 11.76 67.9478 11.92C67.9264 12.08 67.8891 12.2347 67.8358 12.384C67.7824 12.5227 67.7078 12.64 67.6118 12.736C67.4838 12.8853 67.3131 12.96 67.0998 12.96C67.0998 12.96 67.0891 12.9547 67.0678 12.944C66.8118 12.9333 66.6038 12.8587 66.4438 12.72C66.2944 12.5813 66.1771 12.4107 66.0918 12.208C66.0171 12.0053 65.9691 11.7973 65.9478 11.584C65.9264 11.36 65.9158 11.1627 65.9158 10.992V1.488C65.9158 1.47733 65.9158 1.42933 65.9158 1.344C65.9158 1.248 65.9264 1.14133 65.9478 1.024C65.9691 0.896 66.0011 0.768 66.0438 0.64C66.0971 0.501334 66.1664 0.389333 66.2518 0.304C66.3264 0.229334 66.4331 0.176 66.5718 0.144C66.7211 0.101333 66.8544 0.0799999 66.9718 0.0799999C67.2064 0.0799999 67.4038 0.16 67.5638 0.320001C67.7131 0.469334 67.7984 0.629334 67.8198 0.8C67.8518 0.96 67.8784 1.13067 67.8998 1.312C67.9104 1.35467 67.9158 1.41867 67.9158 1.504C67.9371 1.68533 67.9478 1.872 67.9478 2.064C67.9584 2.256 67.9691 2.448 67.9798 2.64C67.9798 2.72533 67.9798 2.79467 67.9798 2.848C67.9798 2.90133 67.9798 2.98667 67.9798 3.104C67.9904 3.21067 67.9958 3.376 67.9958 3.6C67.9958 3.824 67.9958 4.14933 67.9958 4.576V4.944Z" fill="black"/>
<path d="M77.5418 0.0320005C77.6805 0.0320005 77.8138 0.0373338 77.9418 0.0480003C78.0698 0.0586669 78.1978 0.074667 78.3258 0.0960007C78.7311 0.16 79.0884 0.346667 79.3978 0.656C79.6538 0.933334 79.8618 1.25333 80.0218 1.616C80.1818 1.968 80.3045 2.34133 80.3898 2.736C80.4858 3.13067 80.5498 3.536 80.5818 3.952C80.6138 4.35733 80.6404 4.752 80.6618 5.136C80.6831 5.62667 80.6885 6.11733 80.6778 6.608C80.6778 7.09867 80.6511 7.584 80.5978 8.064C80.5445 8.56533 80.4645 9.072 80.3578 9.584C80.2618 10.0853 80.0804 10.5387 79.8138 10.944C79.5898 11.2853 79.3178 11.568 78.9978 11.792C78.6885 12.0053 78.3525 12.1493 77.9898 12.224C77.6591 12.288 77.3231 12.2987 76.9818 12.256C76.6404 12.2133 76.3151 12.1013 76.0058 11.92C75.7178 11.7493 75.4831 11.536 75.3018 11.28C75.1311 11.024 74.9711 10.7253 74.8218 10.384C74.6085 9.872 74.4858 9.344 74.4538 8.8C74.4111 8.352 74.3791 7.904 74.3578 7.456C74.3471 7.008 74.3418 6.56 74.3418 6.112C74.3418 5.51467 74.3738 4.91733 74.4378 4.32C74.4591 4.07467 74.4805 3.83467 74.5018 3.6C74.5231 3.35467 74.5551 3.11467 74.5978 2.88C74.6405 2.688 74.6778 2.50667 74.7098 2.336C74.7418 2.16533 74.8005 1.98933 74.8858 1.808C74.9711 1.62667 75.0618 1.456 75.1578 1.296C75.2645 1.136 75.3871 0.992001 75.5258 0.864C75.9738 0.416 76.5125 0.149334 77.1418 0.0640001C77.2058 0.0533336 77.2698 0.0480003 77.3338 0.0480003C77.4085 0.0480003 77.4778 0.0426671 77.5418 0.0320005ZM85.5418 4.944C85.5951 4.944 85.6431 4.94933 85.6858 4.96C85.7391 4.97067 85.7925 4.976 85.8458 4.976C85.8991 4.98667 85.9578 4.99733 86.0218 5.008C86.0858 5.008 86.1498 5.01333 86.2138 5.024C86.3311 5.04533 86.4485 5.088 86.5658 5.152C86.6831 5.20533 86.7685 5.29067 86.8218 5.408C86.8965 5.52533 86.9338 5.664 86.9338 5.824C86.9338 5.90933 86.9285 5.98933 86.9178 6.064C86.9178 6.128 86.9071 6.20267 86.8858 6.288C86.8645 6.37333 86.8378 6.464 86.8058 6.56C86.7845 6.656 86.7365 6.73067 86.6618 6.784C86.5125 6.89067 86.3684 6.96 86.2298 6.992C86.0591 7.01333 85.8511 7.01867 85.6058 7.008C85.3604 6.99733 85.1525 6.99733 84.9818 7.008C84.9711 7.008 84.9605 7.01333 84.9498 7.024H84.9338L84.9178 7.04V7.088C84.9178 7.216 84.9178 7.37067 84.9178 7.552C84.9178 7.73333 84.9178 7.92 84.9178 8.112C84.9178 8.29333 84.9178 8.47467 84.9178 8.656C84.9178 8.82667 84.9178 8.98133 84.9178 9.12C84.9391 9.67467 84.9391 10.2187 84.9178 10.752V10.976C84.9178 11.1147 84.9125 11.2693 84.9018 11.44C84.9018 11.6 84.8911 11.76 84.8698 11.92C84.8484 12.08 84.8111 12.2347 84.7578 12.384C84.7044 12.5227 84.6298 12.64 84.5338 12.736C84.4058 12.8853 84.2351 12.96 84.0218 12.96C84.0218 12.96 84.0111 12.9547 83.9898 12.944C83.7338 12.9333 83.5258 12.8587 83.3658 12.72C83.2165 12.5813 83.0991 12.4107 83.0138 12.208C82.9391 12.0053 82.8911 11.7973 82.8698 11.584C82.8484 11.36 82.8378 11.1627 82.8378 10.992V1.488C82.8378 1.47733 82.8378 1.42933 82.8378 1.344C82.8378 1.248 82.8484 1.14133 82.8698 1.024C82.8911 0.896 82.9231 0.768 82.9658 0.64C83.0191 0.501334 83.0884 0.389333 83.1738 0.304C83.2484 0.229334 83.3551 0.176 83.4938 0.144C83.6431 0.101333 83.7765 0.0799999 83.8938 0.0799999C84.1285 0.0799999 84.3258 0.16 84.4858 0.320001C84.6351 0.469334 84.7204 0.629334 84.7418 0.8C84.7738 0.96 84.8005 1.13067 84.8218 1.312C84.8325 1.35467 84.8378 1.41867 84.8378 1.504C84.8591 1.68533 84.8698 1.872 84.8698 2.064C84.8804 2.256 84.8911 2.448 84.9018 2.64C84.9018 2.75733 84.9018 2.87467 84.9018 2.992C84.9125 3.09867 84.9178 3.21067 84.9178 3.328C84.9071 3.392 84.9018 3.456 84.9018 3.52C84.9125 3.57333 84.9178 3.62667 84.9178 3.68V4.56C84.9178 4.61333 84.9178 4.672 84.9178 4.736C84.9178 4.8 84.9285 4.85867 84.9498 4.912C84.9498 4.92267 85.0031 4.928 85.1098 4.928C85.2165 4.928 85.2751 4.928 85.2858 4.928C85.3818 4.94933 85.4565 4.95467 85.5098 4.944H85.5418ZM77.4938 10.096C77.6964 10.096 77.8938 10.032 78.0858 9.904C78.2671 9.776 78.3951 9.60533 78.4698 9.392C78.5445 9.17867 78.6084 8.944 78.6618 8.688C78.7471 8.19733 78.7951 7.67467 78.8058 7.12C78.8165 6.56533 78.8111 6.032 78.7898 5.52C78.7898 5.31733 78.7844 5.104 78.7738 4.88C78.7631 4.64533 78.7418 4.416 78.7098 4.192C78.6885 3.968 78.6511 3.75467 78.5978 3.552C78.5445 3.33867 78.4698 3.152 78.3738 2.992C78.2671 2.81067 78.1391 2.672 77.9898 2.576C77.8405 2.48 77.6804 2.44267 77.5098 2.464C77.3284 2.48533 77.1578 2.54933 76.9978 2.656C76.8485 2.76267 76.7258 2.92267 76.6298 3.136L76.4858 3.472C76.4218 3.67467 76.3738 3.888 76.3418 4.112C76.3098 4.32533 76.2831 4.53867 76.2618 4.752C76.2405 4.96533 76.2244 5.184 76.2138 5.408C76.2031 5.632 76.1978 5.85067 76.1978 6.064C76.2085 6.27733 76.2031 6.48533 76.1818 6.688C76.1711 6.89067 76.1765 7.09867 76.1978 7.312C76.2191 7.58933 76.2458 7.888 76.2778 8.208C76.3205 8.528 76.3845 8.832 76.4698 9.12C76.5658 9.39733 76.6938 9.632 76.8538 9.824C77.0138 10.0053 77.2271 10.096 77.4938 10.096Z" fill="black"/>
<path d="M97.8613 2.352C97.8186 2.39467 97.7546 2.432 97.6693 2.464C97.4666 2.54933 97.2426 2.58133 96.9973 2.56C96.7626 2.53867 96.5386 2.54933 96.3253 2.592C96.3466 2.74133 96.3573 2.88 96.3573 3.008C96.368 3.136 96.3733 3.24267 96.3733 3.328V6.144C96.3733 6.13333 96.4213 6.13333 96.5173 6.144C96.624 6.15467 96.736 6.17067 96.8533 6.192C96.9813 6.20267 97.0986 6.21867 97.2053 6.24C97.312 6.26133 97.376 6.272 97.3973 6.272C97.664 6.31467 97.8613 6.384 97.9893 6.48C98.128 6.56533 98.1813 6.768 98.1493 7.088C98.128 7.35467 98.0693 7.552 97.9733 7.68C97.888 7.79733 97.776 7.88267 97.6373 7.936C97.4986 7.97867 97.3333 8 97.1413 8C96.96 7.98933 96.7626 7.984 96.5493 7.984C96.272 7.99467 95.9946 8 95.7173 8C95.4506 7.98933 95.1786 7.984 94.9013 7.984C94.688 7.984 94.384 7.984 93.9893 7.984C93.6053 7.984 93.2 7.984 92.7733 7.984C92.3466 7.984 91.936 7.98933 91.5413 8C91.1466 8 90.848 8 90.6453 8C90.3573 8 90.0693 8 89.7813 8C89.504 8 89.2213 7.99467 88.9333 7.984C88.7946 7.984 88.6346 7.97333 88.4533 7.952C88.272 7.93067 88.096 7.888 87.9253 7.824C87.7546 7.76 87.6053 7.67467 87.4773 7.568C87.36 7.45067 87.2906 7.30133 87.2693 7.12C87.2373 6.87467 87.2853 6.69333 87.4133 6.576C87.552 6.448 87.7173 6.35733 87.9093 6.304C88.112 6.25067 88.3253 6.224 88.5493 6.224C88.7733 6.21333 88.9653 6.19733 89.1253 6.176C89.1146 5.97333 89.1093 5.74933 89.1093 5.504C89.12 5.25867 89.1253 5.04 89.1253 4.848V3.552C89.1253 3.52 89.1146 3.41333 89.0933 3.232C89.0826 3.05067 89.0826 2.83733 89.0933 2.592C88.9333 2.58133 88.768 2.576 88.5973 2.576C88.4266 2.576 88.2613 2.56 88.1013 2.528C87.952 2.496 87.808 2.44267 87.6693 2.368C87.5413 2.28267 87.4346 2.15467 87.3493 1.984C87.2213 1.73867 87.216 1.504 87.3333 1.28C87.4613 1.056 87.648 0.901333 87.8933 0.816C88.1386 0.730667 88.4106 0.677334 88.7093 0.656C89.008 0.634667 89.2906 0.624001 89.5573 0.624001C89.9946 0.624001 90.5226 0.624001 91.1413 0.624001C91.7706 0.624001 92.4106 0.629334 93.0613 0.64C93.7226 0.64 94.3626 0.64 94.9813 0.64C95.6106 0.64 96.144 0.64 96.5813 0.64C96.7946 0.64 97.0293 0.666667 97.2853 0.72C97.552 0.762667 97.7653 0.869334 97.9253 1.04C98 1.12533 98.0533 1.22667 98.0853 1.344C98.128 1.46133 98.1493 1.584 98.1493 1.712C98.1493 1.84 98.1226 1.96267 98.0693 2.08C98.0266 2.18667 97.9573 2.27733 97.8613 2.352ZM88.3093 11.856C88.1386 11.8453 87.968 11.824 87.7973 11.792C87.6373 11.7493 87.4933 11.696 87.3653 11.632C87.2373 11.5573 87.1306 11.456 87.0453 11.328C86.9706 11.2 86.9333 11.0293 86.9333 10.816C86.9333 10.6027 87.0026 10.416 87.1413 10.256C87.2266 10.1707 87.3333 10.1067 87.4613 10.064C87.5893 10.0213 87.712 9.98933 87.8293 9.968C87.9466 9.94667 88.048 9.936 88.1333 9.936C88.2293 9.936 88.2826 9.936 88.2933 9.936L97.0453 9.952C97.3226 9.952 97.5733 9.95733 97.7973 9.968C98.032 9.968 98.24 10.0427 98.4213 10.192C98.6453 10.3947 98.7573 10.624 98.7573 10.88C98.7573 11.04 98.7093 11.1893 98.6133 11.328C98.5173 11.456 98.3893 11.5467 98.2293 11.6C98.016 11.6853 97.792 11.744 97.5573 11.776C97.3333 11.808 97.1093 11.8293 96.8853 11.84C96.1066 11.872 95.3386 11.8827 94.5813 11.872C93.824 11.8613 93.088 11.856 92.3733 11.856C91.6053 11.856 90.8533 11.8613 90.1173 11.872C89.392 11.8827 88.7893 11.8773 88.3093 11.856ZM91.1733 3.712C91.184 3.79733 91.1893 3.86667 91.1893 3.92C91.1893 3.97333 91.1893 4.02667 91.1893 4.08V5.68C91.1893 5.712 91.1946 5.776 91.2053 5.872C91.2266 5.968 91.2586 6.05867 91.3013 6.144H94.2773V4.032C94.2773 4.032 94.2773 3.97867 94.2773 3.872C94.2773 3.76533 94.272 3.64267 94.2613 3.504C94.2613 3.36533 94.256 3.22667 94.2453 3.088C94.2453 2.94933 94.24 2.84267 94.2293 2.768C94.2293 2.704 94.2133 2.64533 94.1813 2.592H91.2693C91.2266 2.63467 91.2 2.69333 91.1893 2.768C91.168 2.85333 91.1573 2.99733 91.1573 3.2C91.1573 3.392 91.1626 3.56267 91.1733 3.712Z" fill="black"/>
<path d="M105.896 10.128C106.206 10.128 106.483 10.1813 106.728 10.288C106.984 10.3947 107.134 10.6187 107.176 10.96C107.198 11.1307 107.171 11.2853 107.096 11.424C107.032 11.5627 106.942 11.68 106.824 11.776C106.707 11.872 106.568 11.9467 106.408 12C106.259 12.0533 106.115 12.0853 105.976 12.096C105.859 12.096 105.651 12.096 105.352 12.096C105.064 12.096 104.739 12.096 104.376 12.096C104.024 12.096 103.662 12.096 103.288 12.096C102.915 12.096 102.6 12.096 102.344 12.096H102.216C101.971 12.0853 101.715 12.0747 101.448 12.064C101.192 12.0533 100.942 12.0107 100.696 11.936C100.526 11.8827 100.366 11.7867 100.216 11.648C100.067 11.5093 99.9496 11.3493 99.8643 11.168C99.811 11.0507 99.7736 10.912 99.7523 10.752C99.731 10.5813 99.715 10.4213 99.7043 10.272C99.6936 10.112 99.6883 9.97333 99.6883 9.856C99.699 9.73867 99.7043 9.67467 99.7043 9.664V2.864C99.7043 2.832 99.699 2.74667 99.6883 2.608C99.6776 2.46933 99.6723 2.30933 99.6723 2.128C99.683 1.94667 99.699 1.76 99.7203 1.568C99.7523 1.376 99.811 1.216 99.8963 1.088C99.9603 0.981334 100.072 0.896 100.232 0.832C100.403 0.768 100.574 0.72 100.744 0.688001C100.926 0.656 101.086 0.64 101.224 0.64C101.374 0.629334 101.464 0.624001 101.496 0.624001H105.24C105.251 0.624001 105.331 0.624001 105.48 0.624001C105.64 0.624001 105.811 0.645334 105.992 0.688001C106.174 0.72 106.35 0.778667 106.52 0.864C106.691 0.949334 106.803 1.07733 106.856 1.248C106.878 1.312 106.888 1.392 106.888 1.488C106.899 1.57333 106.904 1.66933 106.904 1.776C106.904 1.872 106.894 1.96267 106.872 2.048C106.862 2.13333 106.846 2.19733 106.824 2.24C106.75 2.37867 106.616 2.47467 106.424 2.528C106.211 2.58133 105.907 2.608 105.512 2.608C105.448 2.608 105.374 2.608 105.288 2.608C105.214 2.608 105.091 2.608 104.92 2.608C104.76 2.59733 104.531 2.592 104.232 2.592C103.944 2.592 103.555 2.592 103.064 2.592C102.915 2.592 102.76 2.59733 102.6 2.608C102.451 2.61867 102.339 2.64 102.264 2.672C102.19 2.704 102.131 2.768 102.088 2.864C102.056 2.94933 102.03 3.05067 102.008 3.168C101.998 3.27467 101.992 3.38133 101.992 3.488C101.992 3.59467 101.998 3.68 102.008 3.744V3.76L102.072 9.296C102.072 9.50933 102.12 9.68533 102.216 9.824C102.312 9.952 102.483 10.016 102.728 10.016C102.76 10.016 102.872 10.0267 103.064 10.048C103.267 10.0587 103.518 10.0693 103.816 10.08C104.126 10.0907 104.462 10.1013 104.824 10.112C105.187 10.1227 105.544 10.128 105.896 10.128ZM111.416 5.072C111.608 5.11467 111.774 5.2 111.912 5.328C112.062 5.456 112.136 5.63733 112.136 5.872C112.136 5.95733 112.131 6.03733 112.12 6.112C112.12 6.176 112.11 6.25067 112.088 6.336C112.056 6.51733 111.987 6.672 111.88 6.8C111.784 6.928 111.635 6.992 111.432 6.992L110.12 7.008C110.11 7.28533 110.104 7.59467 110.104 7.936C110.104 8.27733 110.104 8.62933 110.104 8.992C110.104 9.35467 110.104 9.72267 110.104 10.096C110.115 10.4587 110.12 10.8053 110.12 11.136C110.12 11.2747 110.115 11.4453 110.104 11.648C110.094 11.8507 110.056 12.048 109.992 12.24C109.928 12.4213 109.832 12.5813 109.704 12.72C109.576 12.8587 109.395 12.9333 109.16 12.944C108.904 12.9653 108.702 12.9227 108.552 12.816C108.403 12.7093 108.291 12.5707 108.216 12.4C108.142 12.24 108.094 12.064 108.072 11.872C108.051 11.6693 108.04 11.4827 108.04 11.312V1.488C108.04 1.47733 108.04 1.42933 108.04 1.344C108.04 1.248 108.051 1.14133 108.072 1.024C108.094 0.896 108.126 0.768 108.168 0.64C108.222 0.501334 108.291 0.389333 108.376 0.304C108.451 0.229334 108.558 0.176 108.696 0.144C108.846 0.101333 108.979 0.0799999 109.096 0.0799999C109.331 0.0799999 109.528 0.16 109.688 0.320001C109.838 0.469334 109.923 0.629334 109.944 0.8C109.976 0.96 110.003 1.13067 110.024 1.312C110.078 1.89867 110.11 2.50133 110.12 3.12C110.142 3.73867 110.152 4.352 110.152 4.96L111.416 5.072Z" fill="black"/>
<path d="M117.336 6.96C117.261 6.97067 117.09 6.976 116.824 6.976C116.568 6.976 116.29 6.976 115.992 6.976C115.693 6.96533 115.41 6.96 115.144 6.96C114.877 6.96 114.701 6.96 114.616 6.96H114.6C114.408 6.96 114.216 6.96 114.024 6.96C113.842 6.94933 113.666 6.93333 113.496 6.912C113.325 6.88 113.17 6.832 113.032 6.768C112.893 6.704 112.781 6.608 112.696 6.48C112.6 6.34133 112.53 6.16533 112.488 5.952C112.456 5.73867 112.429 5.536 112.408 5.344C112.397 5.14133 112.392 4.96533 112.392 4.816C112.402 4.66667 112.408 4.58667 112.408 4.576V4.224C112.408 4.10667 112.408 3.97333 112.408 3.824C112.408 3.67467 112.413 3.50933 112.424 3.328C112.424 3.136 112.424 2.94933 112.424 2.768C112.434 2.576 112.44 2.40533 112.44 2.256V1.744C112.44 1.712 112.44 1.65333 112.44 1.568C112.44 1.48267 112.445 1.392 112.456 1.296C112.466 1.18933 112.482 1.088 112.504 0.992001C112.525 0.885333 112.557 0.8 112.6 0.736C112.696 0.586667 112.792 0.48 112.888 0.416C112.994 0.341333 113.128 0.288 113.288 0.256001C113.341 0.245333 113.421 0.24 113.528 0.24C113.634 0.229333 113.736 0.218667 113.832 0.208C113.949 0.197334 114.072 0.192 114.2 0.192H117.816C118.05 0.192 118.296 0.213334 118.552 0.256001C118.818 0.288 119.053 0.368 119.256 0.496C119.416 0.592 119.528 0.714667 119.592 0.864C119.656 1.01333 119.698 1.17333 119.72 1.344C119.741 1.51467 119.746 1.69067 119.736 1.872C119.725 2.04267 119.72 2.20267 119.72 2.352C119.72 2.52267 119.714 2.69333 119.704 2.864C119.704 3.024 119.709 3.18933 119.72 3.36V4.24C119.709 4.29333 119.704 4.352 119.704 4.416C119.714 4.48 119.72 4.544 119.72 4.608C119.698 4.74667 119.693 4.88533 119.704 5.024C119.714 5.152 119.72 5.29067 119.72 5.44C119.72 5.55733 119.709 5.68533 119.688 5.824C119.677 5.952 119.645 6.08533 119.592 6.224C119.549 6.352 119.485 6.46933 119.4 6.576C119.325 6.68267 119.224 6.75733 119.096 6.8C118.818 6.91733 118.525 6.976 118.216 6.976C117.917 6.96533 117.624 6.96 117.336 6.96ZM123.432 10.944C123.432 10.944 123.464 10.9547 123.528 10.976C123.602 10.9973 123.682 11.0347 123.768 11.088C123.853 11.1307 123.933 11.1947 124.008 11.28C124.082 11.3547 124.13 11.4453 124.152 11.552C124.205 11.9573 124.136 12.272 123.944 12.496C123.816 12.6453 123.677 12.736 123.528 12.768C123.378 12.8 123.298 12.816 123.288 12.816H114.952C114.514 12.816 114.173 12.7467 113.928 12.608C113.682 12.48 113.56 12.2933 113.56 12.048V10.128C113.56 10.064 113.554 9.984 113.544 9.888C113.544 9.792 113.544 9.69067 113.544 9.584C113.544 9.46667 113.544 9.36 113.544 9.264C113.554 9.168 113.56 9.088 113.56 9.024C113.581 8.8 113.688 8.61867 113.88 8.48C114.072 8.34133 114.29 8.272 114.536 8.272C114.589 8.272 114.653 8.27733 114.728 8.288C114.813 8.288 114.882 8.29867 114.936 8.32C115.074 8.36267 115.186 8.43733 115.272 8.544C115.357 8.64 115.421 8.752 115.464 8.88C115.506 9.008 115.533 9.14667 115.544 9.296C115.554 9.43467 115.565 9.56267 115.576 9.68C115.576 9.72267 115.576 9.808 115.576 9.936C115.576 10.0533 115.576 10.1813 115.576 10.32C115.576 10.4587 115.576 10.5867 115.576 10.704C115.576 10.8107 115.576 10.88 115.576 10.912C115.608 10.9227 115.693 10.9387 115.832 10.96C115.981 10.9707 116.253 10.976 116.648 10.976C116.989 10.976 117.293 10.9707 117.56 10.96C117.826 10.9493 117.965 10.944 117.976 10.944H123.432ZM123.96 0.528C123.992 0.602667 124.018 0.714667 124.04 0.864C124.061 1.01333 124.077 1.168 124.088 1.328C124.098 1.47733 124.104 1.616 124.104 1.744C124.104 1.872 124.104 1.94667 124.104 1.968V7.488C124.104 7.49867 124.098 7.54133 124.088 7.616C124.077 7.68 124.05 7.76 124.008 7.856C123.976 7.952 123.922 8.048 123.848 8.144C123.784 8.24 123.698 8.32 123.592 8.384C123.442 8.48 123.288 8.528 123.128 8.528C122.914 8.528 122.728 8.464 122.568 8.336C122.44 8.26133 122.344 8.15467 122.28 8.016C122.205 7.888 122.157 7.76 122.136 7.632C122.114 7.504 122.098 7.38133 122.088 7.264V6.48H122.04C121.88 6.46933 121.704 6.464 121.512 6.464C121.33 6.45333 121.149 6.43733 120.968 6.416C120.797 6.39467 120.642 6.35733 120.504 6.304C120.365 6.24 120.264 6.15467 120.2 6.048C120.125 5.93067 120.088 5.792 120.088 5.632C120.098 5.46133 120.114 5.31733 120.136 5.2C120.168 5.072 120.232 4.96533 120.328 4.88C120.424 4.79467 120.584 4.72533 120.808 4.672C120.85 4.66133 120.93 4.656 121.048 4.656C121.176 4.64533 121.304 4.63467 121.432 4.624C121.57 4.61333 121.698 4.608 121.816 4.608C121.944 4.59733 122.034 4.592 122.088 4.592V3.552C121.928 3.552 121.746 3.55733 121.544 3.568C121.352 3.568 121.165 3.56267 120.984 3.552C120.813 3.53067 120.653 3.49867 120.504 3.456C120.365 3.41333 120.264 3.33867 120.2 3.232C120.168 3.17867 120.141 3.10933 120.12 3.024C120.109 2.93867 120.098 2.85333 120.088 2.768C120.088 2.672 120.093 2.58133 120.104 2.496C120.114 2.41067 120.125 2.336 120.136 2.272C120.168 2.15467 120.232 2.05333 120.328 1.968C120.424 1.88267 120.584 1.81333 120.808 1.76C120.84 1.74933 120.904 1.744 121 1.744C121.106 1.73333 121.224 1.728 121.352 1.728C121.48 1.71733 121.608 1.712 121.736 1.712C121.874 1.70133 121.992 1.696 122.088 1.696C122.077 1.6 122.077 1.46667 122.088 1.296C122.098 1.12533 122.114 0.997334 122.136 0.912001C122.168 0.826667 122.194 0.741334 122.216 0.656C122.237 0.570667 122.285 0.485333 122.36 0.400001C122.456 0.293333 122.584 0.218667 122.744 0.176001C122.914 0.122667 123.096 0.106667 123.288 0.128C123.629 0.181334 123.853 0.314667 123.96 0.528ZM115.288 2.192C115.192 2.192 115.101 2.192 115.016 2.192C114.941 2.192 114.872 2.20267 114.808 2.224C114.658 2.23467 114.536 2.29867 114.44 2.416C114.397 2.46933 114.37 2.54933 114.36 2.656C114.36 2.76267 114.36 2.82667 114.36 2.848V3.52C114.349 3.60533 114.344 3.68533 114.344 3.76C114.344 3.824 114.344 3.88267 114.344 3.936V4.128C114.344 4.128 114.344 4.16 114.344 4.224C114.344 4.288 114.344 4.36267 114.344 4.448C114.354 4.53333 114.37 4.61867 114.392 4.704C114.413 4.78933 114.45 4.864 114.504 4.928C114.589 5.03467 114.728 5.09867 114.92 5.12C115.112 5.13067 115.304 5.136 115.496 5.136H115.512C115.789 5.12533 116.018 5.12533 116.2 5.136C116.381 5.136 116.616 5.136 116.904 5.136C116.989 5.136 117.074 5.14133 117.16 5.152C117.256 5.152 117.346 5.14133 117.432 5.12C117.517 5.10933 117.576 5.08267 117.608 5.04C117.64 4.99733 117.666 4.944 117.688 4.88C117.709 4.79467 117.72 4.72533 117.72 4.672C117.762 4.46933 117.784 4.24 117.784 3.984C117.784 3.81333 117.784 3.64267 117.784 3.472C117.794 3.30133 117.794 3.13067 117.784 2.96C117.773 2.87467 117.768 2.78933 117.768 2.704C117.778 2.61867 117.773 2.53333 117.752 2.448C117.709 2.33067 117.64 2.26667 117.544 2.256C117.448 2.23467 117.352 2.224 117.256 2.224L115.288 2.192Z" fill="black"/>
</svg>
