<svg width="123" height="15" viewBox="0 0 123 15" fill="none" xmlns="http://www.w3.org/2000/svg">
<path d="M9.648 13.776C9.552 13.7973 9.33333 13.808 8.992 13.808C8.66133 13.8187 8.26667 13.824 7.808 13.824C7.34933 13.824 6.85867 13.8187 6.336 13.808C5.81333 13.808 5.32267 13.8027 4.864 13.792C4.40533 13.792 4.01067 13.792 3.68 13.792C3.34933 13.792 3.14133 13.792 3.056 13.792C2.84267 13.792 2.61867 13.776 2.384 13.744C2.14933 13.712 1.94133 13.6267 1.76 13.488C1.64267 13.392 1.54667 13.2747 1.472 13.136C1.408 12.9867 1.36 12.8427 1.328 12.704C1.296 12.5653 1.27467 12.4427 1.264 12.336C1.25333 12.2293 1.248 12.1707 1.248 12.16V10.944C1.248 10.6347 1.248 10.352 1.248 10.096C1.25867 9.82933 1.264 9.68533 1.264 9.664C1.264 9.51467 1.29067 9.376 1.344 9.248C1.39733 9.10933 1.49867 9.008 1.648 8.944C1.72267 8.912 1.80267 8.89067 1.888 8.88C1.984 8.86933 2.07467 8.85867 2.16 8.848C2.34133 8.83733 2.52267 8.86933 2.704 8.944C2.896 9.008 3.01333 9.14667 3.056 9.36V9.776C3.07733 9.936 3.11467 10.016 3.168 10.016C3.22133 10.0053 3.312 10.0053 3.44 10.016H9.936V9.536C9.94667 9.344 9.984 9.18933 10.048 9.072C10.1227 8.95467 10.256 8.88 10.448 8.848C10.5973 8.816 10.784 8.80533 11.008 8.816C11.232 8.82667 11.4027 8.88533 11.52 8.992C11.6267 9.088 11.68 9.20533 11.68 9.344C11.68 9.472 11.68 9.6 11.68 9.728C11.6587 10.2187 11.6587 10.704 11.68 11.184C11.7013 11.664 11.6853 12.1493 11.632 12.64C11.6213 12.7893 11.5947 12.9173 11.552 13.024C11.5093 13.12 11.4453 13.2267 11.36 13.344C11.2747 13.472 11.1573 13.5627 11.008 13.616C10.8693 13.6693 10.72 13.7067 10.56 13.728C10.4 13.7493 10.24 13.76 10.08 13.76C9.92 13.76 9.776 13.7653 9.648 13.776ZM5.408 1.296C5.504 1.296 5.59467 1.296 5.68 1.296C5.776 1.296 5.86667 1.30667 5.952 1.328C6.10133 1.38133 6.24533 1.44533 6.384 1.52C6.53333 1.59467 6.656 1.696 6.752 1.824C6.848 1.96267 6.92267 2.13867 6.976 2.352C7.02933 2.55467 7.056 2.74133 7.056 2.912C7.056 3.37067 7.06133 3.82933 7.072 4.288C7.08267 4.74667 7.07733 5.20533 7.056 5.664C7.056 5.81333 7.056 5.97333 7.056 6.144C7.056 6.304 7.05067 6.46933 7.04 6.64C7.04 6.8 7.024 6.96 6.992 7.12C6.96 7.26933 6.912 7.408 6.848 7.536C6.76267 7.68533 6.65067 7.80267 6.512 7.888C6.37333 7.97333 6.224 8.02667 6.064 8.048C5.91467 8.06933 5.76533 8.05333 5.616 8C5.46667 7.94667 5.34933 7.84533 5.264 7.696C5.168 7.536 5.09867 7.36533 5.056 7.184C5.01333 6.992 4.98667 6.79467 4.976 6.592C4.96533 6.38933 4.96533 6.18667 4.976 5.984C4.98667 5.78133 4.992 5.58933 4.992 5.408C4.992 5.14133 4.98667 4.864 4.976 4.576C4.976 4.288 4.96533 4.01067 4.944 3.744C4.93333 3.616 4.90133 3.52533 4.848 3.472C4.79467 3.408 4.73067 3.36533 4.656 3.344C4.58133 3.32267 4.496 3.312 4.4 3.312C4.304 3.312 4.20267 3.30667 4.096 3.296C3.98933 3.296 3.91467 3.296 3.872 3.296C3.82933 3.296 3.792 3.296 3.76 3.296C3.728 3.296 3.69067 3.30133 3.648 3.312C3.60533 3.312 3.53067 3.312 3.424 3.312H2.736C2.39467 3.312 2.03733 3.30667 1.664 3.296C1.29067 3.28533 0.906667 3.25333 0.512 3.2C0.362667 3.17867 0.250667 3.12 0.176 3.024C0.112 2.928 0.064 2.816 0.032 2.688C0.0106667 2.56 0 2.42667 0 2.288C0.0106667 2.14933 0.0266667 2.032 0.048 1.936C0.0906667 1.73333 0.202667 1.57333 0.384 1.456C0.501333 1.37067 0.624 1.328 0.752 1.328C0.890667 1.31733 1.02933 1.30667 1.168 1.296C1.31733 1.27467 1.46667 1.26933 1.616 1.28C1.76533 1.29067 1.91467 1.296 2.064 1.296H5.408ZM11.632 2.48C11.632 2.46933 11.632 2.53333 11.632 2.672C11.632 2.81067 11.632 2.976 11.632 3.168C11.632 3.34933 11.632 3.53067 11.632 3.712C11.632 3.89333 11.632 4.02133 11.632 4.096C11.6747 4.096 11.7547 4.10133 11.872 4.112C11.9893 4.112 12.112 4.11733 12.24 4.128C12.368 4.128 12.4907 4.13333 12.608 4.144C12.7253 4.15467 12.8107 4.16533 12.864 4.176C13.0773 4.21867 13.2267 4.28267 13.312 4.368C13.3973 4.44267 13.4507 4.53867 13.472 4.656C13.504 4.77333 13.52 4.912 13.52 5.072C13.52 5.22133 13.488 5.34933 13.424 5.456C13.296 5.66933 13.104 5.792 12.848 5.824C12.592 5.84533 12.3093 5.86133 12 5.872H11.632V7.136C11.6213 7.25333 11.6053 7.376 11.584 7.504C11.5627 7.62133 11.52 7.73867 11.456 7.856C11.392 7.984 11.3013 8.09067 11.184 8.176C11.0347 8.28267 10.8587 8.336 10.656 8.336C10.4747 8.336 10.3253 8.29867 10.208 8.224C10.1013 8.16 10.016 8.08 9.952 7.984C9.888 7.888 9.83467 7.79733 9.792 7.712C9.76 7.616 9.73867 7.536 9.728 7.472C9.71733 7.39733 9.712 7.36 9.712 7.36V2.272C9.70133 2.22933 9.70667 2.112 9.728 1.92C9.74933 1.728 9.792 1.568 9.856 1.44C9.96267 1.216 10.176 1.088 10.496 1.056C10.8907 1.00267 11.184 1.08267 11.376 1.296C11.44 1.38133 11.4827 1.46667 11.504 1.552C11.536 1.62667 11.5627 1.70667 11.584 1.792C11.616 1.89867 11.632 2.01067 11.632 2.128C11.6427 2.24533 11.6427 2.36267 11.632 2.48ZM4 11.488C3.904 11.488 3.79733 11.488 3.68 11.488C3.57333 11.4773 3.47733 11.4827 3.392 11.504C3.30667 11.5147 3.232 11.5467 3.168 11.6C3.11467 11.6427 3.088 11.712 3.088 11.808C3.088 11.9253 3.09333 12.0107 3.104 12.064C3.15733 12.2453 3.23733 12.3413 3.344 12.352C3.46133 12.352 3.58933 12.3467 3.728 12.336C4.02667 12.336 4.352 12.3413 4.704 12.352C5.056 12.352 5.392 12.3573 5.712 12.368C5.744 12.368 5.84533 12.368 6.016 12.368C6.19733 12.368 6.416 12.368 6.672 12.368C6.928 12.3573 7.2 12.352 7.488 12.352C7.776 12.352 8.048 12.352 8.304 12.352C8.56 12.3413 8.77333 12.336 8.944 12.336C9.12533 12.336 9.232 12.336 9.264 12.336C9.31733 12.336 9.38133 12.3413 9.456 12.352C9.53067 12.3627 9.6 12.3627 9.664 12.352C9.728 12.3413 9.78133 12.3147 9.824 12.272C9.86667 12.2293 9.888 12.1653 9.888 12.08C9.888 11.9947 9.89333 11.92 9.904 11.856C9.91467 11.792 9.888 11.7227 9.824 11.648C9.74933 11.5627 9.65867 11.5147 9.552 11.504C9.456 11.4933 9.35467 11.4933 9.248 11.504C9.22667 11.504 9.08267 11.504 8.816 11.504C8.56 11.504 8.23467 11.504 7.84 11.504C7.456 11.504 7.04 11.504 6.592 11.504C6.15467 11.4933 5.744 11.488 5.36 11.488C4.976 11.488 4.65067 11.488 4.384 11.488C4.128 11.488 4 11.488 4 11.488Z" fill="black"/>
<path d="M19.7498 1.792C20.1871 1.792 20.5658 1.83467 20.8858 1.92C21.0244 1.97333 21.1578 2.048 21.2858 2.144C21.4138 2.22933 21.5204 2.352 21.6058 2.512C21.6911 2.64 21.7444 2.77867 21.7658 2.928C21.7871 3.07733 21.7604 3.216 21.6858 3.344C21.5578 3.64267 21.2911 3.824 20.8858 3.888C20.7578 3.90933 20.6244 3.93067 20.4858 3.952C20.3471 3.96267 20.1871 3.968 20.0058 3.968C19.8564 3.968 19.6698 3.968 19.4458 3.968C19.2324 3.95733 18.9978 3.94133 18.7418 3.92C18.7311 3.94133 18.7258 4.01067 18.7258 4.128C18.7258 4.23467 18.7258 4.37333 18.7258 4.544C18.7258 4.71467 18.7258 4.90133 18.7258 5.104C18.7258 5.30667 18.7258 5.51467 18.7258 5.728C18.7258 6.22933 18.7311 6.78933 18.7418 7.408V7.76C18.7418 7.83467 18.7418 7.89333 18.7418 7.936C18.7418 7.97867 18.7524 8.02667 18.7738 8.08C18.7844 8.09067 18.8484 8.17067 18.9658 8.32C19.0831 8.45867 19.2218 8.63467 19.3818 8.848C19.5524 9.06133 19.7338 9.296 19.9258 9.552C20.1178 9.79733 20.2991 10.032 20.4698 10.256C20.6404 10.48 20.7898 10.6827 20.9178 10.864C21.0458 11.0347 21.1258 11.152 21.1578 11.216C21.2431 11.3653 21.3231 11.5307 21.3978 11.712C21.4831 11.8827 21.5364 12.0533 21.5578 12.224C21.5791 12.288 21.5898 12.3627 21.5898 12.448C21.6004 12.5333 21.6058 12.624 21.6058 12.72C21.5631 12.8693 21.4724 13.0133 21.3338 13.152C21.2484 13.216 21.1578 13.2693 21.0618 13.312C20.9764 13.3547 20.8751 13.376 20.7578 13.376C20.5658 13.376 20.3951 13.344 20.2458 13.28C20.0964 13.2053 19.9578 13.1147 19.8298 13.008C19.7018 12.8907 19.5844 12.7627 19.4778 12.624C19.3711 12.4853 19.2698 12.3413 19.1738 12.192C19.0884 12.0747 18.9764 11.9253 18.8378 11.744C18.7098 11.5627 18.5978 11.4133 18.5018 11.296C18.4378 11.2107 18.3791 11.1307 18.3258 11.056C18.2831 10.9813 18.2244 10.9013 18.1498 10.816C18.0644 10.6987 17.9791 10.5813 17.8938 10.464C17.8084 10.336 17.7178 10.2133 17.6218 10.096C17.4191 10.3413 17.2324 10.5813 17.0618 10.816C16.9018 11.04 16.7364 11.2693 16.5658 11.504C16.3951 11.728 16.2191 11.9573 16.0378 12.192C15.8564 12.4267 15.6538 12.6773 15.4298 12.944C15.3124 13.072 15.1844 13.184 15.0458 13.28C14.9071 13.376 14.7311 13.424 14.5178 13.424C14.4751 13.424 14.4324 13.4133 14.3898 13.392C14.3471 13.3813 14.2884 13.376 14.2138 13.376C13.9791 13.2693 13.8191 13.1253 13.7338 12.944C13.6804 12.8267 13.6484 12.72 13.6378 12.624C13.6378 12.528 13.6378 12.4267 13.6378 12.32C13.6591 12.2027 13.6804 12.1013 13.7018 12.016C13.7338 11.9307 13.7764 11.8507 13.8298 11.776C13.8724 11.6907 13.9151 11.6053 13.9578 11.52C14.0004 11.4347 14.0431 11.3493 14.0858 11.264C14.1498 11.1787 14.2084 11.0987 14.2618 11.024C14.3151 10.9387 14.3738 10.8533 14.4378 10.768C14.4591 10.7147 14.4911 10.672 14.5338 10.64C14.5764 10.5973 14.6244 10.5547 14.6778 10.512C14.6991 10.4587 14.7258 10.4107 14.7578 10.368C14.7898 10.3253 14.8164 10.2667 14.8378 10.192C14.8911 10.128 14.9498 10.048 15.0138 9.952C15.0778 9.84533 15.1524 9.74933 15.2378 9.664C15.3871 9.45067 15.5471 9.232 15.7178 9.008C15.7924 8.92267 15.8671 8.82667 15.9418 8.72C16.0164 8.60267 16.0964 8.50133 16.1818 8.416C16.2458 8.352 16.3204 8.26133 16.4058 8.144C16.4911 8.02667 16.5444 7.94667 16.5658 7.904V3.92H14.6778C14.4858 3.92 14.3631 3.90933 14.3098 3.888C13.9044 3.824 13.6378 3.6 13.5098 3.216C13.3818 2.85333 13.4138 2.56 13.6058 2.336C13.7231 2.19733 13.8404 2.08533 13.9578 2C14.0751 1.91467 14.2191 1.86133 14.3898 1.84C14.4218 1.808 14.4644 1.792 14.5178 1.792H19.7498ZM25.5258 6.032C25.7604 6.032 25.9791 6.03733 26.1818 6.048C26.3844 6.05867 26.5551 6.176 26.6938 6.4C26.8004 6.58133 26.8538 6.77333 26.8538 6.976C26.8538 7.17867 26.8004 7.35467 26.6938 7.504C26.6084 7.6 26.5231 7.67467 26.4378 7.728C26.3631 7.78133 26.2778 7.81867 26.1818 7.84C26.0964 7.86133 25.9951 7.87733 25.8778 7.888C25.7604 7.888 25.6324 7.89333 25.4938 7.904H24.7738V10.096C24.7951 10.4693 24.8004 10.8533 24.7898 11.248C24.7791 11.6427 24.7738 12.0267 24.7738 12.4C24.7738 12.4853 24.7684 12.5707 24.7578 12.656C24.7471 12.7307 24.7418 12.8107 24.7418 12.896C24.7204 12.96 24.7044 13.0347 24.6938 13.12C24.6831 13.1947 24.6564 13.264 24.6138 13.328C24.5924 13.4027 24.5658 13.4667 24.5338 13.52C24.5018 13.584 24.4538 13.6427 24.3898 13.696C24.2298 13.8453 24.0164 13.92 23.7498 13.92C23.4831 13.92 23.2698 13.8293 23.1098 13.648C22.9711 13.5093 22.8804 13.3333 22.8378 13.12C22.8058 12.9067 22.7791 12.7093 22.7578 12.528C22.7578 12.4213 22.7471 12.3253 22.7258 12.24C22.7151 12.144 22.7098 12.0533 22.7098 11.968V2.512C22.7098 2.42667 22.7098 2.34667 22.7098 2.272C22.7204 2.19733 22.7364 2.128 22.7578 2.064C22.7791 1.91467 22.8058 1.78133 22.8378 1.664C22.8698 1.54667 22.9444 1.44 23.0618 1.344C23.1258 1.28 23.2324 1.22133 23.3818 1.168C23.5524 1.12533 23.7178 1.11467 23.8778 1.136C24.0484 1.14667 24.2031 1.216 24.3418 1.344C24.5231 1.472 24.6138 1.63733 24.6138 1.84C24.6778 2.14933 24.7204 2.45333 24.7418 2.752C24.7631 3.04 24.7738 3.33867 24.7738 3.648V6.032H25.5258Z" fill="black"/>
<path d="M38.7383 12.704C38.7169 12.832 38.7009 12.96 38.6903 13.088C38.6796 13.2053 38.6529 13.328 38.6103 13.456C38.5889 13.4987 38.5729 13.536 38.5623 13.568C38.5516 13.6 38.5356 13.6373 38.5143 13.68C38.4396 13.8293 38.3436 13.9467 38.2263 14.032C37.9809 14.1813 37.7089 14.2187 37.4103 14.144C37.2396 14.112 37.1009 14.048 36.9943 13.952C36.8983 13.8667 36.8236 13.7547 36.7703 13.616C36.7276 13.488 36.6903 13.36 36.6583 13.232C36.6369 13.104 36.6263 12.992 36.6263 12.896C36.6263 12.8 36.6263 12.7467 36.6263 12.736V2.848C36.6263 2.72 36.6263 2.58133 36.6263 2.432C36.6263 2.28267 36.6369 2.13333 36.6583 1.984C36.6796 1.83467 36.7116 1.696 36.7543 1.568C36.7969 1.44 36.8556 1.33867 36.9303 1.264C37.0476 1.14667 37.1703 1.07733 37.2983 1.056C37.4263 1.024 37.5649 1.008 37.7143 1.008C37.8956 1.008 38.0609 1.06133 38.2103 1.168C38.3703 1.264 38.4823 1.40267 38.5463 1.584C38.6423 1.808 38.6956 2.04267 38.7063 2.288C38.7169 2.53333 38.7276 2.77867 38.7383 3.024V3.104C38.7596 3.92533 38.7649 4.768 38.7543 5.632C38.7436 6.496 38.7383 7.312 38.7383 8.08V12.128C38.7383 12.224 38.7383 12.32 38.7383 12.416C38.7489 12.512 38.7489 12.608 38.7383 12.704ZM31.1863 11.136C31.1756 11.008 31.1703 10.88 31.1703 10.752C31.1703 10.624 31.1703 10.496 31.1703 10.368V5.28C31.1703 5.10933 31.1703 4.93867 31.1703 4.768C31.1703 4.59733 31.1596 4.42133 31.1383 4.24C31.1276 4.18667 31.1116 4.112 31.0903 4.016C31.0796 3.92 31.0476 3.86133 30.9943 3.84C30.9409 3.808 30.8769 3.79733 30.8023 3.808C30.7383 3.808 30.6743 3.80267 30.6103 3.792C30.5356 3.78133 30.4609 3.78133 30.3863 3.792C30.3223 3.80267 30.2529 3.80267 30.1783 3.792H29.4263C29.2449 3.80267 29.0636 3.80267 28.8823 3.792C28.7009 3.78133 28.5196 3.78133 28.3383 3.792C28.2529 3.80267 28.1729 3.808 28.0983 3.808C28.0343 3.79733 27.9596 3.792 27.8743 3.792C27.7569 3.792 27.6343 3.78667 27.5063 3.776C27.3783 3.76533 27.2609 3.72267 27.1543 3.648C27.0049 3.54133 26.9036 3.408 26.8503 3.248C26.7969 3.088 26.7703 2.92267 26.7703 2.752C26.7596 2.54933 26.8023 2.34667 26.8983 2.144C26.9516 2.016 27.0209 1.92533 27.1063 1.872C27.1596 1.81867 27.2343 1.776 27.3303 1.744C27.4369 1.70133 27.5276 1.66933 27.6023 1.648C27.8263 1.59467 28.0609 1.568 28.3063 1.568C28.5516 1.55733 28.7916 1.552 29.0263 1.552H31.8103C31.9489 1.57333 32.0929 1.59467 32.2423 1.616C32.4023 1.62667 32.5463 1.65867 32.6743 1.712C32.7596 1.744 32.8396 1.78667 32.9143 1.84C32.9996 1.89333 33.0689 1.95733 33.1223 2.032C33.2183 2.18133 33.2716 2.33067 33.2823 2.48C33.3036 2.62933 33.3249 2.79467 33.3463 2.976C33.3676 3.27467 33.3783 3.57333 33.3783 3.872C33.3783 4.16 33.3783 4.45333 33.3783 4.752V10C33.3783 10.0107 33.3783 10.096 33.3783 10.256C33.3889 10.4053 33.3943 10.5867 33.3943 10.8C33.3943 11.0027 33.3943 11.2213 33.3943 11.456C33.3943 11.68 33.3889 11.8773 33.3783 12.048C33.3676 12.1547 33.3516 12.2667 33.3303 12.384C33.3089 12.5013 33.2716 12.6133 33.2183 12.72C33.1756 12.8267 33.1116 12.9227 33.0263 13.008C32.9409 13.0933 32.8289 13.1627 32.6903 13.216C32.5089 13.2907 32.3276 13.328 32.1463 13.328C32.0076 13.328 31.8689 13.3013 31.7303 13.248C31.5916 13.184 31.4956 13.0933 31.4423 12.976C31.2716 12.6347 31.1863 12.256 31.1863 11.84V11.136Z" fill="black"/>
<path d="M44.9083 11.472C44.9083 10.992 45.0469 10.592 45.3243 10.272C45.6123 9.952 45.9963 9.70133 46.4763 9.52C46.9563 9.328 47.5216 9.19467 48.1723 9.12C48.8229 9.04533 49.5163 9.008 50.2523 9.008C50.9883 9.008 51.6816 9.03467 52.3323 9.088C52.9829 9.14133 53.5483 9.25867 54.0283 9.44C54.5083 9.61067 54.8869 9.856 55.1643 10.176C55.4523 10.496 55.5963 10.928 55.5963 11.472C55.5963 12.0053 55.4523 12.432 55.1643 12.752C54.8869 13.072 54.5083 13.3173 54.0283 13.488C53.5483 13.6693 52.9829 13.7867 52.3323 13.84C51.6816 13.904 50.9883 13.936 50.2523 13.936C49.5163 13.936 48.8229 13.904 48.1723 13.84C47.5216 13.7867 46.9563 13.6693 46.4763 13.488C45.9963 13.3173 45.6123 13.072 45.3243 12.752C45.0469 12.432 44.9083 12.0053 44.9083 11.472ZM55.4523 7.68C55.4523 7.69067 55.4469 7.728 55.4363 7.792C55.4363 7.856 55.4203 7.936 55.3883 8.032C55.3563 8.11733 55.3083 8.208 55.2443 8.304C55.1909 8.4 55.1109 8.48 55.0043 8.544C54.8869 8.61867 54.7643 8.656 54.6363 8.656C54.4229 8.656 54.2469 8.60267 54.1083 8.496C53.9909 8.41067 53.9003 8.304 53.8363 8.176C53.6763 7.87733 53.6016 7.552 53.6123 7.2C53.6229 6.83733 53.6336 6.49067 53.6443 6.16V5.936C53.4949 5.94667 53.3456 5.952 53.1963 5.952C53.0576 5.952 52.9296 5.95733 52.8123 5.968H52.7643V7.424C52.7536 7.54133 52.7376 7.664 52.7163 7.792C52.6949 7.90933 52.6523 8.02667 52.5883 8.144C52.5136 8.28267 52.4229 8.384 52.3163 8.448C52.2416 8.50133 52.1776 8.544 52.1243 8.576C52.0709 8.608 51.9963 8.624 51.9003 8.624C51.7509 8.624 51.6016 8.58133 51.4523 8.496C51.3456 8.432 51.2603 8.352 51.1963 8.256C51.1323 8.16 51.0843 8.06933 51.0523 7.984C51.0203 7.89867 50.9989 7.824 50.9883 7.76C50.9776 7.68533 50.9723 7.648 50.9723 7.648V2.368C50.9616 2.31467 50.9616 2.19733 50.9723 2.016C50.9936 1.824 51.0363 1.664 51.1003 1.536C51.2069 1.312 51.4256 1.184 51.7563 1.152C51.9376 1.13067 52.0869 1.14133 52.2043 1.184C52.3216 1.22667 52.4229 1.296 52.5083 1.392C52.5829 1.47733 52.6309 1.56267 52.6523 1.648C52.6736 1.72267 52.6949 1.80267 52.7163 1.888C52.7483 1.99467 52.7643 2.10667 52.7643 2.224C52.7749 2.34133 52.7803 2.45867 52.7803 2.576C52.7696 2.61867 52.7643 2.68267 52.7643 2.768V4.176C52.8176 4.18667 52.9349 4.19733 53.1163 4.208C53.2976 4.208 53.4789 4.21333 53.6603 4.224V2.528C53.6496 2.41067 53.6443 2.29867 53.6443 2.192C53.6549 2.07467 53.6763 1.95733 53.7083 1.84C53.7509 1.68 53.8469 1.52 53.9963 1.36C54.1669 1.14667 54.4176 1.06133 54.7483 1.104C55.0256 1.14667 55.2176 1.28533 55.3243 1.52C55.3883 1.648 55.4256 1.80267 55.4363 1.984C55.4576 2.16533 55.4629 2.27733 55.4523 2.32V7.68ZM44.2523 8.096C44.1029 8.02133 44.0069 7.89867 43.9643 7.728C43.8789 7.51467 43.8629 7.30667 43.9163 7.104C43.9696 6.89067 44.0549 6.688 44.1723 6.496C44.2896 6.304 44.4176 6.12267 44.5563 5.952C44.7056 5.78133 44.8336 5.62133 44.9403 5.472C45.0896 5.248 45.2389 5.04533 45.3883 4.864C45.5483 4.68267 45.7083 4.47467 45.8683 4.24C45.9749 4.05867 46.0923 3.872 46.2203 3.68C46.3589 3.47733 46.4389 3.25867 46.4603 3.024C46.4603 2.84267 46.4656 2.656 46.4763 2.464C46.4869 2.272 46.5136 2.10133 46.5563 1.952C46.6096 1.792 46.6896 1.664 46.7963 1.568C46.9029 1.46133 47.0576 1.408 47.2603 1.408C47.4203 1.408 47.6069 1.42933 47.8203 1.472C48.0336 1.504 48.1723 1.60533 48.2363 1.776C48.2789 1.872 48.3003 1.984 48.3003 2.112C48.3109 2.22933 48.3163 2.352 48.3163 2.48C48.3163 2.608 48.3163 2.736 48.3163 2.864C48.3163 2.98133 48.3323 3.088 48.3643 3.184C48.4176 3.36533 48.4656 3.52 48.5083 3.648C48.5616 3.776 48.6309 3.91467 48.7163 4.064C48.8976 4.384 49.0736 4.66133 49.2443 4.896C49.4256 5.12 49.6123 5.38133 49.8043 5.68C49.9536 5.904 50.0869 6.128 50.2043 6.352C50.3323 6.56533 50.4229 6.81067 50.4763 7.088C50.5189 7.312 50.4976 7.504 50.4123 7.664C50.3269 7.824 50.2043 7.94133 50.0443 8.016C49.8949 8.08 49.7296 8.096 49.5483 8.064C49.3776 8.032 49.2283 7.94133 49.1003 7.792L47.3563 5.44L45.6763 7.536C45.5696 7.664 45.4469 7.78667 45.3083 7.904C45.1803 8.01067 45.0416 8.08533 44.8923 8.128C44.7749 8.14933 44.6576 8.16533 44.5403 8.176C44.4336 8.176 44.3376 8.14933 44.2523 8.096ZM53.4363 11.472C53.4363 11.2907 53.3403 11.1467 53.1483 11.04C52.9563 10.9333 52.7056 10.8533 52.3963 10.8C52.0976 10.7467 51.7563 10.7147 51.3723 10.704C50.9989 10.6827 50.6256 10.672 50.2523 10.672C49.8789 10.672 49.5056 10.6827 49.1323 10.704C48.7696 10.7147 48.4389 10.7467 48.1403 10.8C47.8523 10.8533 47.6176 10.9333 47.4363 11.04C47.2549 11.1467 47.1643 11.2907 47.1643 11.472C47.1643 11.632 47.2549 11.7653 47.4363 11.872C47.6176 11.9787 47.8523 12.0587 48.1403 12.112C48.4389 12.1653 48.7696 12.2027 49.1323 12.224C49.5056 12.2453 49.8789 12.256 50.2523 12.256C50.6256 12.256 50.9989 12.256 51.3723 12.256C51.7563 12.256 52.0976 12.2347 52.3963 12.192C52.7056 12.1493 52.9563 12.0747 53.1483 11.968C53.3403 11.8507 53.4363 11.6853 53.4363 11.472Z" fill="black"/>
<path d="M59.1282 8.496C59.0215 8.51733 58.9468 8.56 58.9042 8.624C58.8615 8.688 58.8348 8.76267 58.8242 8.848C58.8135 8.93333 58.8135 9.01867 58.8242 9.104C58.8348 9.18933 58.8402 9.26933 58.8402 9.344C58.8402 9.408 58.8402 9.49333 58.8402 9.6C58.8402 9.696 58.8402 9.80267 58.8402 9.92C58.8402 10.0267 58.8402 10.1333 58.8402 10.24C58.8508 10.3467 58.8615 10.4373 58.8722 10.512C58.8722 10.576 58.8668 10.6667 58.8562 10.784C58.8562 10.8907 58.8828 10.9707 58.9362 11.024C58.9362 11.0453 58.9468 11.0613 58.9682 11.072C58.9895 11.0827 59.0108 11.088 59.0322 11.088C59.2775 11.088 59.5495 11.088 59.8482 11.088C60.1468 11.088 60.4188 11.0773 60.6642 11.056C61.0375 11.056 61.4268 11.056 61.8322 11.056C62.2482 11.0453 62.6428 11.056 63.0162 11.088C63.1655 11.1093 63.2775 11.1467 63.3522 11.2C63.4375 11.2533 63.5068 11.3227 63.5602 11.408C63.6242 11.4933 63.6668 11.5893 63.6882 11.696C63.7095 11.792 63.7202 11.8987 63.7202 12.016C63.7415 12.144 63.7308 12.2667 63.6882 12.384C63.6562 12.4907 63.6135 12.576 63.5602 12.64C63.5068 12.704 63.4428 12.7627 63.3682 12.816C63.3042 12.8587 63.2295 12.9067 63.1442 12.96C62.9308 13.056 62.7175 13.104 62.5042 13.104C62.3015 13.0933 62.0882 13.0987 61.8642 13.12C61.6722 13.12 61.4535 13.1253 61.2082 13.136C60.9628 13.1467 60.7388 13.1413 60.5362 13.12C60.3762 13.0987 60.1948 13.0933 59.9922 13.104C59.8002 13.1147 59.6295 13.12 59.4802 13.12C59.3308 13.0987 59.1868 13.0933 59.0482 13.104C58.9095 13.1147 58.7655 13.12 58.6162 13.12C58.3602 13.0987 58.1042 13.072 57.8482 13.04C57.5922 13.008 57.3575 12.9173 57.1442 12.768C56.9948 12.6827 56.8828 12.5387 56.8082 12.336C56.7442 12.208 56.6962 12.064 56.6642 11.904C56.6322 11.744 56.6268 11.5893 56.6482 11.44C56.6588 11.2053 56.6588 10.9493 56.6482 10.672C56.6482 10.384 56.6428 10.096 56.6322 9.808C56.6322 9.52 56.6268 9.23733 56.6162 8.96C56.6162 8.672 56.6162 8.4 56.6162 8.144C56.6162 7.952 56.6108 7.74933 56.6002 7.536C56.6002 7.312 56.6482 7.12 56.7442 6.96C56.8402 6.81067 56.9468 6.704 57.0642 6.64C57.1815 6.56533 57.3042 6.51733 57.4322 6.496C57.5708 6.47467 57.7095 6.46933 57.8482 6.48C57.9975 6.48 58.1468 6.48 58.2962 6.48H59.7682C59.8322 6.48 59.9175 6.48 60.0242 6.48C60.1415 6.48 60.2588 6.48 60.3762 6.48C60.4935 6.46933 60.6108 6.464 60.7282 6.464C60.8455 6.45333 60.9362 6.43733 61.0002 6.416C61.0962 6.384 61.1602 6.32 61.1922 6.224C61.2455 5.94667 61.2722 5.64267 61.2722 5.312C61.2828 4.98133 61.2775 4.67733 61.2562 4.4C61.2562 4.28267 61.2562 4.13333 61.2562 3.952C61.2562 3.77067 61.2242 3.632 61.1602 3.536C61.0855 3.42933 60.9202 3.376 60.6642 3.376L57.6882 3.408C57.5388 3.408 57.3735 3.392 57.1922 3.36C57.0108 3.31733 56.8722 3.23733 56.7762 3.12C56.7442 3.06667 56.7122 3.01867 56.6802 2.976C56.6482 2.92267 56.6162 2.85333 56.5842 2.768C56.4988 2.48 56.5202 2.21867 56.6482 1.984C56.7868 1.74933 57.0055 1.6 57.3042 1.536C57.5602 1.48267 57.8162 1.46667 58.0722 1.488C58.3282 1.49867 58.5842 1.49333 58.8402 1.472H61.2562C61.4695 1.472 61.6882 1.472 61.9122 1.472C62.1362 1.472 62.3548 1.504 62.5682 1.568C62.7922 1.632 62.9842 1.792 63.1442 2.048C63.1655 2.10133 63.1815 2.14933 63.1922 2.192C63.2028 2.23467 63.2188 2.288 63.2402 2.352C63.2615 2.40533 63.2775 2.45333 63.2882 2.496C63.2988 2.53867 63.3042 2.58667 63.3042 2.64C63.3255 2.82133 63.3362 3.03467 63.3362 3.28C63.3362 3.52533 63.3362 3.728 63.3362 3.888C63.3362 4.22933 63.3415 4.592 63.3522 4.976C63.3628 5.36 63.3682 5.72267 63.3682 6.064C63.3682 6.416 63.3628 6.75733 63.3522 7.088C63.3522 7.41867 63.3042 7.70667 63.2082 7.952C63.1015 8.16533 62.9522 8.304 62.7602 8.368C62.5788 8.45333 62.3815 8.49067 62.1682 8.48C61.9548 8.46933 61.7575 8.464 61.5762 8.464C61.4588 8.464 61.3202 8.46933 61.1602 8.48C61.0002 8.48 60.8402 8.48 60.6802 8.48C60.5202 8.48 60.3655 8.48533 60.2162 8.496C60.0775 8.496 59.9602 8.496 59.8642 8.496C59.7788 8.496 59.7042 8.496 59.6402 8.496C59.5868 8.48533 59.5335 8.48 59.4802 8.48C59.4375 8.46933 59.3895 8.46933 59.3362 8.48C59.2828 8.48 59.2135 8.48533 59.1282 8.496ZM67.8482 12.4C67.8268 12.528 67.8108 12.656 67.8002 12.784C67.7895 12.9013 67.7628 13.024 67.7202 13.152C67.6988 13.1947 67.6828 13.232 67.6721 13.264C67.6615 13.296 67.6455 13.3333 67.6242 13.376C67.5495 13.5253 67.4535 13.6427 67.3362 13.728C67.0908 13.8773 66.8188 13.9147 66.5201 13.84C66.3495 13.808 66.2108 13.744 66.1041 13.648C66.0081 13.5627 65.9335 13.456 65.8801 13.328C65.8375 13.1893 65.8001 13.056 65.7682 12.928C65.7468 12.8 65.7362 12.688 65.7362 12.592C65.7362 12.496 65.7362 12.4427 65.7362 12.432V3.008C65.7362 2.88 65.7362 2.74133 65.7362 2.592C65.7362 2.44267 65.7468 2.29333 65.7682 2.144C65.7895 1.99467 65.8215 1.856 65.8642 1.728C65.9068 1.6 65.9655 1.49867 66.0402 1.424C66.1575 1.30667 66.2802 1.23733 66.4081 1.216C66.5361 1.184 66.6748 1.168 66.8242 1.168C67.0055 1.168 67.1708 1.22133 67.3202 1.328C67.4802 1.424 67.5922 1.56267 67.6562 1.744C67.7522 1.968 67.8055 2.20267 67.8162 2.448C67.8268 2.69333 67.8375 2.93867 67.8482 3.184V3.264C67.8695 4.08533 67.8748 4.85333 67.8642 5.568C67.8535 6.272 67.8482 7.008 67.8482 7.776V11.824C67.8482 11.92 67.8482 12.016 67.8482 12.112C67.8588 12.208 67.8588 12.304 67.8482 12.4Z" fill="black"/>
<path d="M77.9513 8.128C77.802 8.10667 77.5993 8.096 77.3433 8.096C77.098 8.096 76.9006 8.08533 76.7513 8.064C76.57 8.05333 76.394 8.01067 76.2233 7.936C76.0633 7.86133 75.9246 7.76533 75.8073 7.648C75.69 7.53067 75.61 7.38667 75.5673 7.216C75.5246 7.04533 75.53 6.85867 75.5833 6.656C75.6046 6.57067 75.6473 6.48 75.7113 6.384C75.786 6.288 75.8553 6.21333 75.9193 6.16C76.0686 6.05333 76.218 5.984 76.3673 5.952C76.4526 5.94133 76.5646 5.936 76.7033 5.936C76.842 5.92533 76.986 5.92 77.1353 5.92C77.2953 5.92 77.4446 5.92 77.5833 5.92C77.7326 5.92 77.85 5.91467 77.9353 5.904H77.9833V6.16C77.994 5.89333 77.9993 5.66933 77.9993 5.488C77.9993 5.30667 77.994 5.07733 77.9833 4.8C77.9833 4.52267 77.978 4.25067 77.9673 3.984C77.9673 3.70667 77.9726 3.43467 77.9833 3.168V2.944C77.9833 2.80533 77.9833 2.656 77.9833 2.496C77.994 2.32533 78.0153 2.16 78.0473 2C78.0793 1.82933 78.122 1.67467 78.1753 1.536C78.2286 1.38667 78.3033 1.264 78.3993 1.168C78.5593 1.02933 78.73 0.96 78.9113 0.96H78.9433C79.1993 0.970667 79.402 1.05067 79.5513 1.2C79.7113 1.33867 79.8286 1.50933 79.9033 1.712C79.9886 1.91467 80.042 2.128 80.0633 2.352C80.0846 2.56533 80.0953 2.75733 80.0953 2.928V12.528C80.0953 12.5387 80.09 12.592 80.0793 12.688C80.0793 12.7733 80.0686 12.88 80.0473 13.008C80.026 13.136 79.9886 13.264 79.9353 13.392C79.8926 13.52 79.8233 13.6267 79.7273 13.712C79.6526 13.7867 79.546 13.8453 79.4073 13.888C79.2686 13.9307 79.1406 13.952 79.0233 13.952C78.7673 13.952 78.5646 13.8667 78.4153 13.696C78.2766 13.5467 78.1913 13.392 78.1593 13.232C78.1273 13.072 78.1006 12.9013 78.0793 12.72C78.0793 12.688 78.074 12.656 78.0633 12.624C78.0633 12.592 78.0633 12.5547 78.0633 12.512C78.042 12.3413 78.0313 12.16 78.0313 11.968C78.0313 11.776 78.026 11.584 78.0153 11.392C78.0046 11.2747 77.9993 11.1627 77.9993 11.056C77.9993 10.9387 77.9993 10.8213 77.9993 10.704V10.336C77.9993 10.2293 77.9993 10.096 77.9993 9.936C77.9993 9.76533 77.994 9.59467 77.9833 9.424C77.9833 9.24267 77.9833 9.072 77.9833 8.912C77.9833 8.74133 77.9833 8.59733 77.9833 8.48C77.9833 8.42667 77.9833 8.368 77.9833 8.304C77.9833 8.24 77.9726 8.18133 77.9513 8.128ZM71.3273 8.528C71.3913 8.464 71.45 8.38933 71.5033 8.304C71.5673 8.208 71.6153 8.144 71.6473 8.112V4.496C71.594 4.51733 71.546 4.52267 71.5033 4.512C71.4606 4.50133 71.4126 4.496 71.3593 4.496H70.9273C70.554 4.496 70.2286 4.49067 69.9513 4.48C69.6846 4.46933 69.514 4.45333 69.4393 4.432C69.2473 4.38933 69.082 4.32 68.9433 4.224C68.8153 4.11733 68.7193 3.968 68.6553 3.776C68.634 3.70133 68.618 3.632 68.6073 3.568C68.5966 3.504 68.602 3.42933 68.6233 3.344C68.6233 3.23733 68.6766 3.104 68.7833 2.944C68.8153 2.89067 68.8633 2.84267 68.9273 2.8C68.9913 2.75733 69.0553 2.72 69.1193 2.688C69.1833 2.63467 69.2473 2.60267 69.3113 2.592C69.3753 2.57067 69.4393 2.54933 69.5033 2.528H71.6153C71.6153 2.41067 71.6206 2.256 71.6313 2.064C71.642 1.872 71.6473 1.728 71.6473 1.632C71.6686 1.49333 71.7006 1.37067 71.7433 1.264C71.786 1.14667 71.834 1.04 71.8873 0.943999C72.0153 0.741333 72.202 0.607999 72.4473 0.544C72.5646 0.490666 72.682 0.469333 72.7993 0.48C72.9273 0.490666 73.05 0.522666 73.1673 0.575999C73.2526 0.607999 73.3273 0.656 73.3913 0.719999C73.466 0.773333 73.5193 0.837333 73.5513 0.912C73.6793 1.06133 73.7593 1.21067 73.7913 1.36C73.8126 1.44533 73.8286 1.536 73.8393 1.632C73.85 1.728 73.8553 1.824 73.8553 1.92V2.528H74.8313C75.0446 2.528 75.258 2.53333 75.4713 2.544C75.6953 2.55467 75.882 2.57067 76.0313 2.592C76.1806 2.624 76.314 2.68267 76.4313 2.768C76.5593 2.84267 76.666 2.94933 76.7513 3.088C76.8366 3.22667 76.8793 3.376 76.8793 3.536C76.9113 3.65333 76.89 3.78667 76.8153 3.936C76.6873 4.18133 76.4366 4.34667 76.0633 4.432C75.946 4.45333 75.8126 4.464 75.6633 4.464C75.5246 4.464 75.3753 4.47467 75.2153 4.496C75.0446 4.496 74.842 4.50133 74.6073 4.512C74.3726 4.52267 74.122 4.51733 73.8553 4.496C73.8553 4.58133 73.85 4.68267 73.8393 4.8C73.8393 4.91733 73.8393 5.03467 73.8393 5.152C73.8393 5.26933 73.8393 5.38133 73.8393 5.488C73.8393 5.584 73.8446 5.664 73.8553 5.728V7.488C73.8553 7.54133 73.85 7.59467 73.8393 7.648C73.8286 7.69067 73.834 7.744 73.8553 7.808V8.064C73.9086 8.10667 73.9566 8.16533 73.9993 8.24C74.0526 8.304 74.122 8.37867 74.2073 8.464C74.282 8.528 74.3406 8.592 74.3833 8.656C74.4366 8.72 74.49 8.77867 74.5433 8.832C74.5966 8.896 74.6446 8.96 74.6873 9.024C74.7406 9.088 74.7993 9.152 74.8633 9.216C74.9166 9.26933 74.97 9.33333 75.0233 9.408C75.0766 9.48267 75.1353 9.552 75.1993 9.616C75.2313 9.66933 75.2633 9.71733 75.2953 9.76C75.3273 9.80267 75.3593 9.84 75.3913 9.872C75.4553 9.968 75.5086 10.0587 75.5513 10.144C75.658 10.272 75.7593 10.4053 75.8553 10.544C75.9513 10.672 76.0473 10.8213 76.1433 10.992C76.2606 11.1413 76.3513 11.296 76.4153 11.456C76.49 11.6053 76.5433 11.7547 76.5753 11.904C76.6073 12.0533 76.6073 12.208 76.5753 12.368C76.5433 12.528 76.4686 12.672 76.3513 12.8C76.202 12.928 76.0046 12.992 75.7593 12.992C75.642 12.992 75.53 12.9813 75.4233 12.96C75.3273 12.928 75.2206 12.8853 75.1033 12.832C74.9966 12.768 74.9006 12.704 74.8153 12.64C74.7406 12.5653 74.6606 12.496 74.5753 12.432C74.4793 12.336 74.3886 12.2347 74.3033 12.128C74.218 12.0107 74.1326 11.904 74.0473 11.808C73.962 11.712 73.8766 11.6107 73.7913 11.504C73.7166 11.3867 73.6366 11.2693 73.5513 11.152C73.434 11.0347 73.306 10.88 73.1673 10.688C73.1033 10.592 73.0286 10.512 72.9433 10.448C72.8686 10.3733 72.7993 10.304 72.7353 10.24C72.6713 10.3253 72.6073 10.4107 72.5433 10.496C72.4793 10.5707 72.4153 10.6507 72.3513 10.736C72.2766 10.8213 72.2073 10.9013 72.1433 10.976C72.0793 11.0507 72.0153 11.1307 71.9513 11.216C71.8873 11.3227 71.8126 11.4293 71.7273 11.536C71.6526 11.6427 71.5726 11.744 71.4873 11.84C71.4233 11.9467 71.3486 12.0533 71.2633 12.16C71.1886 12.2667 71.098 12.368 70.9913 12.464C70.778 12.6773 70.5753 12.8267 70.3833 12.912C70.202 12.9867 70.0153 13.024 69.8233 13.024C69.77 13.024 69.7166 13.024 69.6633 13.024C69.6206 13.024 69.5726 13.0133 69.5193 12.992C69.2953 12.928 69.13 12.784 69.0233 12.56C68.9486 12.3893 68.9273 12.2187 68.9593 12.048C68.9806 11.9413 69.002 11.8453 69.0233 11.76C69.0446 11.664 69.082 11.584 69.1353 11.52C69.1673 11.4347 69.2046 11.3547 69.2473 11.28C69.29 11.1947 69.338 11.1093 69.3913 11.024C69.4446 10.96 69.4926 10.8907 69.5353 10.816C69.5886 10.7413 69.6526 10.6667 69.7273 10.592C69.7593 10.56 69.7913 10.5227 69.8233 10.48C69.8553 10.4373 69.8873 10.4 69.9193 10.368L70.1113 10.08C70.1433 10.0053 70.1806 9.94667 70.2233 9.904C70.266 9.85067 70.33 9.76533 70.4153 9.648C70.5006 9.552 70.5806 9.456 70.6553 9.36C70.73 9.264 70.7993 9.17333 70.8633 9.088C70.9486 8.992 71.0286 8.896 71.1033 8.8C71.1886 8.704 71.2633 8.61333 71.3273 8.528Z" fill="black"/>
<path d="M82.378 13.68C82.3674 13.68 82.3514 13.6693 82.33 13.648C82.2234 13.5627 82.1487 13.44 82.106 13.28C82.074 13.1093 82.058 12.9653 82.058 12.848C82.0474 12.656 82.0314 12.464 82.01 12.272C81.9994 12.08 81.994 11.8933 81.994 11.712C81.994 11.4347 81.994 11.1627 81.994 10.896C81.994 10.6293 82.0207 10.3627 82.074 10.096C82.106 9.92533 82.1594 9.792 82.234 9.696C82.3087 9.58933 82.426 9.504 82.586 9.44C82.8847 9.32267 83.1834 9.264 83.482 9.264H91.018C91.2207 9.27467 91.4287 9.29067 91.642 9.312C91.8554 9.33333 92.058 9.38667 92.25 9.472C92.4634 9.55733 92.602 9.70133 92.666 9.904C92.7407 10.096 92.7887 10.2987 92.81 10.512C92.8207 10.6933 92.826 10.9067 92.826 11.152C92.8367 11.3867 92.8367 11.6267 92.826 11.872C92.8154 12.1173 92.7994 12.3627 92.778 12.608C92.7567 12.8427 92.7194 13.056 92.666 13.248C92.634 13.3653 92.5967 13.4667 92.554 13.552C92.5114 13.648 92.426 13.7173 92.298 13.76C92.1807 13.8027 92.058 13.8293 91.93 13.84C91.8127 13.8507 91.6954 13.856 91.578 13.856L83.242 13.824C83.1034 13.8133 82.954 13.808 82.794 13.808C82.634 13.808 82.4954 13.7653 82.378 13.68ZM88.01 8.032C87.882 8.08533 87.7487 8.12267 87.61 8.144C87.482 8.15467 87.3487 8.16 87.21 8.16H83.754C83.5194 8.16 83.2794 8.16 83.034 8.16C82.7887 8.16 82.5434 8.14933 82.298 8.128C82.0634 8.11733 81.8714 8.032 81.722 7.872C81.5727 7.712 81.4874 7.49867 81.466 7.232C81.4554 7.136 81.4447 6.99733 81.434 6.816C81.434 6.63467 81.4287 6.448 81.418 6.256C81.418 6.064 81.418 5.88267 81.418 5.712C81.418 5.54133 81.418 5.41333 81.418 5.328V5.168C81.4074 5.05067 81.4074 4.92267 81.418 4.784C81.4287 4.64533 81.482 4.51733 81.578 4.4C81.7274 4.21867 81.93 4.112 82.186 4.08C82.4527 4.03733 82.7087 4.016 82.954 4.016H86.57V3.072H83.37C83.306 3.072 83.242 3.07733 83.178 3.088C83.114 3.088 83.05 3.088 82.986 3.088C82.922 3.09867 82.8527 3.104 82.778 3.104C82.714 3.104 82.6447 3.104 82.57 3.104C82.3567 3.104 82.17 3.088 82.01 3.056C81.8287 3.01333 81.6794 2.896 81.562 2.704C81.4874 2.576 81.4394 2.43733 81.418 2.288C81.3967 2.128 81.4074 1.97867 81.45 1.84C81.5034 1.65867 81.626 1.52533 81.818 1.44C82.01 1.344 82.17 1.28533 82.298 1.264C82.458 1.232 82.634 1.216 82.826 1.216H83.114C83.1674 1.216 83.2207 1.22133 83.274 1.232C83.3274 1.232 83.3807 1.232 83.434 1.232H86.682C87.2367 1.232 87.6634 1.344 87.962 1.568C88.2714 1.792 88.426 2.10667 88.426 2.512V4.224C88.426 4.384 88.3887 4.58133 88.314 4.816C88.25 5.05067 88.1327 5.22133 87.962 5.328C87.8234 5.41333 87.6794 5.46667 87.53 5.488C87.3914 5.49867 87.2474 5.49867 87.098 5.488H83.402V6.544H87.05C87.1567 6.544 87.2634 6.544 87.37 6.544C87.4767 6.544 87.5834 6.54933 87.69 6.56C87.8714 6.57067 88.0207 6.63467 88.138 6.752C88.266 6.86933 88.3567 7.008 88.41 7.168C88.538 7.584 88.4047 7.872 88.01 8.032ZM90.474 5.744C90.1647 5.72267 89.8874 5.70667 89.642 5.696C89.3967 5.67467 89.2047 5.55733 89.066 5.344C89.002 5.23733 88.97 5.104 88.97 4.944C88.97 4.784 88.9807 4.64533 89.002 4.528C89.034 4.41067 89.0927 4.31467 89.178 4.24C89.2634 4.15467 89.4127 4.08533 89.626 4.032C89.6687 4.02133 89.7487 4.016 89.866 4.016C89.9834 4.00533 90.106 3.99467 90.234 3.984C90.3727 3.97333 90.5007 3.968 90.618 3.968C90.7354 3.95733 90.8154 3.952 90.858 3.952V2.416C90.8474 2.29867 90.842 2.18133 90.842 2.064C90.8527 1.94667 90.874 1.82933 90.906 1.712C90.9274 1.62667 90.9487 1.54667 90.97 1.472C90.9914 1.39733 91.0394 1.31733 91.114 1.232C91.1994 1.12533 91.3167 1.05067 91.466 1.008C91.626 0.965333 91.7967 0.954666 91.978 0.976C92.3194 1.02933 92.538 1.16267 92.634 1.376C92.698 1.504 92.7354 1.664 92.746 1.856C92.7674 2.03733 92.778 2.14933 92.778 2.192V7.568H92.762C92.762 7.57867 92.7567 7.616 92.746 7.68C92.7354 7.744 92.714 7.824 92.682 7.92C92.65 8.00533 92.602 8.096 92.538 8.192C92.474 8.288 92.3887 8.368 92.282 8.432C92.1327 8.51733 91.9834 8.56 91.834 8.56C91.6527 8.56 91.4767 8.50133 91.306 8.384C91.178 8.29867 91.0874 8.192 91.034 8.064C90.97 7.94667 90.9274 7.82933 90.906 7.712C90.8847 7.59467 90.8687 7.47733 90.858 7.36V5.744H90.474ZM83.898 11.808C83.898 11.8613 83.898 11.9147 83.898 11.968C83.9087 12.0107 83.93 12.0427 83.962 12.064C83.9834 12.0853 84.0154 12.1013 84.058 12.112C84.1114 12.112 84.1647 12.112 84.218 12.112C84.2714 12.112 84.3354 12.1067 84.41 12.096H89.418C89.5674 12.1067 89.7114 12.1173 89.85 12.128C89.9674 12.1387 90.09 12.144 90.218 12.144C90.346 12.144 90.4634 12.1333 90.57 12.112C90.6767 12.1013 90.7407 12.0747 90.762 12.032C90.7834 11.9787 90.7994 11.904 90.81 11.808C90.8207 11.7227 90.826 11.6267 90.826 11.52C90.826 11.4027 90.794 11.3013 90.73 11.216C90.6554 11.1307 90.5487 11.088 90.41 11.088C90.282 11.0773 90.1647 11.0773 90.058 11.088H85.61C85.3754 11.0667 85.146 11.0613 84.922 11.072C84.698 11.072 84.4687 11.0773 84.234 11.088C84.1487 11.088 84.0794 11.0933 84.026 11.104C83.9834 11.104 83.9514 11.152 83.93 11.248C83.9087 11.3227 83.898 11.3973 83.898 11.472C83.898 11.536 83.898 11.6 83.898 11.664C83.9087 11.6853 83.9087 11.7067 83.898 11.728C83.898 11.7493 83.898 11.776 83.898 11.808Z" fill="black"/>
<path d="M101.788 4.944C102.364 4.96533 102.849 5.104 103.244 5.36C103.639 5.616 103.959 5.94667 104.204 6.352C104.449 6.75733 104.62 7.216 104.716 7.728C104.812 8.24 104.849 8.75733 104.828 9.28C104.817 9.80267 104.743 10.3147 104.604 10.816C104.476 11.3173 104.305 11.76 104.092 12.144C103.857 12.56 103.527 12.88 103.1 13.104C102.684 13.3173 102.236 13.44 101.756 13.472C101.276 13.504 100.801 13.44 100.332 13.28C99.8733 13.12 99.4839 12.8693 99.1639 12.528C98.8866 12.2293 98.6892 11.92 98.5719 11.6C98.4546 11.2693 98.3693 10.9067 98.3159 10.512C98.2626 10.1173 98.2199 9.73867 98.1879 9.376C98.1559 9.00267 98.1506 8.63467 98.1719 8.272C98.1933 7.90933 98.2519 7.552 98.3479 7.2C98.4546 6.848 98.6146 6.496 98.8279 6.144C98.9453 5.94133 99.1106 5.76533 99.3239 5.616C99.5372 5.456 99.7772 5.328 100.044 5.232C100.311 5.12533 100.593 5.05067 100.892 5.008C101.201 4.95467 101.5 4.93333 101.788 4.944ZM109.276 6.112C109.329 6.112 109.377 6.11733 109.42 6.128C109.473 6.13867 109.527 6.144 109.58 6.144C109.633 6.15467 109.692 6.16533 109.756 6.176C109.82 6.176 109.884 6.18133 109.948 6.192C110.065 6.21333 110.183 6.256 110.3 6.32C110.417 6.37333 110.503 6.45867 110.556 6.576C110.631 6.69333 110.668 6.832 110.668 6.992C110.668 7.07733 110.663 7.15733 110.652 7.232C110.652 7.296 110.641 7.37067 110.62 7.456C110.599 7.54133 110.572 7.632 110.54 7.728C110.519 7.824 110.471 7.89867 110.396 7.952C110.247 8.05867 110.103 8.128 109.964 8.16C109.793 8.18133 109.585 8.18667 109.34 8.176C109.095 8.16533 108.887 8.16533 108.716 8.176C108.705 8.176 108.695 8.18133 108.684 8.192H108.668L108.652 8.208V8.256C108.641 8.52267 108.636 8.832 108.636 9.184C108.647 9.536 108.652 9.85067 108.652 10.128C108.673 10.6827 108.673 11.2267 108.652 11.76V11.984C108.652 12.1227 108.647 12.2773 108.636 12.448C108.636 12.608 108.625 12.768 108.604 12.928C108.583 13.088 108.545 13.2427 108.492 13.392C108.439 13.5307 108.364 13.648 108.268 13.744C108.14 13.8933 107.969 13.968 107.756 13.968C107.756 13.968 107.745 13.9627 107.724 13.952C107.468 13.9413 107.26 13.8667 107.1 13.728C106.951 13.5893 106.833 13.4187 106.748 13.216C106.673 13.0133 106.625 12.8053 106.604 12.592C106.583 12.368 106.572 12.1707 106.572 12V2.496C106.572 2.48533 106.572 2.43733 106.572 2.352C106.572 2.256 106.583 2.14933 106.604 2.032C106.625 1.904 106.657 1.776 106.7 1.648C106.753 1.50933 106.823 1.39733 106.908 1.312C106.983 1.23733 107.089 1.184 107.228 1.152C107.377 1.10933 107.511 1.088 107.628 1.088C107.863 1.088 108.06 1.168 108.22 1.328C108.369 1.47733 108.455 1.63733 108.476 1.808C108.508 1.968 108.535 2.13867 108.556 2.32C108.567 2.36267 108.572 2.42667 108.572 2.512C108.593 2.69333 108.604 2.88 108.604 3.072C108.615 3.264 108.625 3.456 108.636 3.648C108.636 3.76533 108.636 3.88267 108.636 4C108.647 4.10667 108.652 4.21867 108.652 4.336C108.641 4.4 108.636 4.464 108.636 4.528C108.647 4.58133 108.652 4.63467 108.652 4.688V5.728C108.652 5.78133 108.652 5.84 108.652 5.904C108.652 5.968 108.663 6.02667 108.684 6.08C108.684 6.09067 108.737 6.096 108.844 6.096C108.951 6.096 109.009 6.096 109.02 6.096C109.116 6.11733 109.191 6.12267 109.244 6.112H109.276ZM104.028 2.384C104.241 2.384 104.455 2.416 104.668 2.48C104.881 2.544 105.047 2.68267 105.164 2.896C105.239 3.03467 105.265 3.21067 105.244 3.424C105.223 3.62667 105.159 3.79733 105.052 3.936C104.945 4.064 104.78 4.15467 104.556 4.208C104.332 4.26133 104.097 4.29867 103.852 4.32C103.607 4.33067 103.377 4.33067 103.164 4.32C102.961 4.30933 102.823 4.304 102.748 4.304C102.663 4.31467 102.577 4.32 102.492 4.32C102.417 4.32 102.332 4.32 102.236 4.32H101.724C101.639 4.30933 101.553 4.304 101.468 4.304C101.393 4.304 101.313 4.304 101.228 4.304L99.3399 4.272C98.7959 4.272 98.4066 4.20267 98.1719 4.064C97.9373 3.92533 97.7986 3.70667 97.7559 3.408C97.7133 3.09867 97.7933 2.848 97.9959 2.656C98.1453 2.528 98.2679 2.448 98.3639 2.416C98.4706 2.384 98.6039 2.368 98.7639 2.368C98.8066 2.368 98.8492 2.37333 98.8919 2.384C98.9346 2.384 98.9773 2.384 99.0199 2.384H99.4199C99.5692 2.384 99.7452 2.384 99.9479 2.384C100.151 2.37333 100.327 2.36267 100.476 2.352C100.476 2.30933 100.476 2.25067 100.476 2.176C100.487 2.09067 100.492 2.00533 100.492 1.92C100.503 1.83467 100.508 1.75467 100.508 1.68C100.519 1.59467 100.524 1.536 100.524 1.504C100.545 1.32267 100.604 1.15733 100.7 1.008C100.924 0.698666 101.201 0.554666 101.532 0.575999C101.681 0.597333 101.831 0.624 101.98 0.655999C102.129 0.677333 102.252 0.752 102.348 0.879999C102.465 1.05067 102.519 1.28533 102.508 1.584C102.508 1.872 102.519 2.13333 102.54 2.368H103.004C103.089 2.368 103.212 2.37333 103.372 2.384C103.532 2.384 103.655 2.384 103.74 2.384H104.028ZM101.724 11.712C101.959 11.68 102.161 11.5893 102.332 11.44C102.503 11.28 102.641 11.0933 102.748 10.88C102.855 10.6667 102.929 10.4373 102.972 10.192C103.015 9.94667 103.036 9.71733 103.036 9.504C103.036 9.32267 103.025 9.12 103.004 8.896C102.993 8.66133 102.967 8.43733 102.924 8.224C102.881 8 102.812 7.79733 102.716 7.616C102.62 7.424 102.492 7.26933 102.332 7.152C102.183 7.056 102.007 6.99733 101.804 6.976C101.601 6.944 101.393 6.94933 101.18 6.992C100.977 7.03467 100.791 7.10933 100.62 7.216C100.449 7.312 100.327 7.44533 100.252 7.616C100.049 8.05333 99.9426 8.49067 99.9319 8.928C99.9319 9.36533 99.9799 9.81333 100.076 10.272C100.129 10.5067 100.204 10.752 100.3 11.008C100.396 11.2533 100.545 11.4453 100.748 11.584C100.791 11.616 100.855 11.6427 100.94 11.664C101.036 11.6747 101.132 11.6853 101.228 11.696C101.335 11.7067 101.431 11.7173 101.516 11.728C101.612 11.728 101.681 11.7227 101.724 11.712Z" fill="black"/>
<path d="M121.867 12.592C122.038 12.6027 122.187 12.6453 122.315 12.72C122.443 12.784 122.534 12.9013 122.587 13.072C122.705 13.4667 122.566 13.7333 122.171 13.872C122.043 13.9253 121.91 13.9573 121.771 13.968C121.643 13.9787 121.526 13.984 121.419 13.984H113.979C113.766 13.984 113.542 13.984 113.307 13.984C113.073 13.984 112.838 13.9787 112.603 13.968C112.315 13.9573 112.113 13.8667 111.995 13.696C111.889 13.5253 111.825 13.3173 111.803 13.072L111.739 12.016C111.729 11.8987 111.729 11.76 111.739 11.6C111.761 11.4293 111.819 11.2853 111.915 11.168C112.065 11.0187 112.235 10.9227 112.427 10.88C112.619 10.8373 112.833 10.816 113.067 10.816H113.563C113.617 10.816 113.659 10.8213 113.691 10.832C113.723 10.832 113.755 10.832 113.787 10.832H120.763V10.272H113.627C113.574 10.272 113.515 10.272 113.451 10.272C113.398 10.2613 113.339 10.2613 113.275 10.272H112.891C112.785 10.272 112.689 10.272 112.603 10.272C112.518 10.272 112.433 10.2613 112.347 10.24C112.251 10.2187 112.161 10.1973 112.075 10.176C112.001 10.1547 111.937 10.1013 111.883 10.016C111.819 9.89867 111.777 9.78667 111.755 9.68C111.734 9.57333 111.745 9.456 111.787 9.328C111.819 9.24267 111.867 9.17867 111.931 9.136C111.995 9.08267 112.07 9.04 112.155 9.008C112.241 8.976 112.321 8.95467 112.395 8.944C112.481 8.92267 112.555 8.90667 112.619 8.896C112.705 8.88533 112.785 8.88 112.859 8.88C112.945 8.86933 113.03 8.864 113.115 8.864H113.387C113.441 8.87467 113.489 8.88 113.531 8.88C113.585 8.88 113.638 8.88 113.691 8.88H120.923C121.467 8.88 121.883 8.96533 122.171 9.136C122.459 9.296 122.603 9.56267 122.603 9.936V11.056C122.603 11.2053 122.566 11.3493 122.491 11.488C122.427 11.6267 122.31 11.7493 122.139 11.856C122.001 11.9413 121.862 11.9893 121.723 12C121.585 12 121.446 12 121.307 12H113.707V12.592H121.867ZM118.155 5.04C118.155 5.488 118.054 5.92 117.851 6.336C117.659 6.74133 117.377 7.07733 117.003 7.344C116.513 7.71733 115.958 7.92533 115.339 7.968C114.731 8.01067 114.155 7.92 113.611 7.696C113.345 7.58933 113.094 7.45067 112.859 7.28C112.625 7.10933 112.422 6.912 112.251 6.688C112.081 6.464 111.942 6.21333 111.835 5.936C111.739 5.65867 111.691 5.36 111.691 5.04C111.691 4.592 111.766 4.19733 111.915 3.856C112.065 3.51467 112.267 3.22133 112.523 2.976H112.139C111.883 2.976 111.659 2.896 111.467 2.736C111.286 2.56533 111.195 2.35733 111.195 2.112C111.195 1.87733 111.286 1.68 111.467 1.52C111.659 1.34933 111.883 1.264 112.139 1.264H113.931V0.736C113.931 0.533333 114.022 0.362666 114.203 0.224C114.385 0.0746667 114.603 0 114.859 0C115.115 0 115.334 0.0746667 115.515 0.224C115.707 0.362666 115.803 0.533333 115.803 0.736V1.264H117.691C117.958 1.264 118.182 1.34933 118.363 1.52C118.555 1.68 118.651 1.87733 118.651 2.112C118.651 2.35733 118.555 2.56533 118.363 2.736C118.182 2.896 117.958 2.976 117.691 2.976H117.291C117.558 3.22133 117.766 3.51467 117.915 3.856C118.075 4.19733 118.155 4.592 118.155 5.04ZM120.363 7.056C120.289 7.056 120.193 7.05067 120.075 7.04C119.969 7.02933 119.857 7.008 119.739 6.976C119.633 6.944 119.531 6.90133 119.435 6.848C119.339 6.79467 119.265 6.72 119.211 6.624C119.179 6.58133 119.153 6.52267 119.131 6.448C119.121 6.37333 119.11 6.29867 119.099 6.224C119.099 6.13867 119.099 6.05867 119.099 5.984C119.11 5.90933 119.121 5.85067 119.131 5.808C119.153 5.69067 119.211 5.58933 119.307 5.504C119.403 5.408 119.515 5.33333 119.643 5.28C119.686 5.26933 119.766 5.25867 119.883 5.248C120.011 5.23733 120.139 5.232 120.267 5.232H120.747C120.737 5.11467 120.731 5.00267 120.731 4.896V4.4H120.363C120.289 4.4 120.193 4.39467 120.075 4.384C119.969 4.37333 119.857 4.352 119.739 4.32C119.633 4.288 119.531 4.24533 119.435 4.192C119.339 4.13867 119.265 4.064 119.211 3.968C119.126 3.82933 119.083 3.68533 119.083 3.536C119.083 3.376 119.115 3.232 119.179 3.104C119.254 2.96533 119.35 2.85333 119.467 2.768C119.595 2.672 119.745 2.61867 119.915 2.608C119.926 2.608 119.974 2.608 120.059 2.608C120.155 2.608 120.257 2.608 120.363 2.608C120.47 2.608 120.566 2.608 120.651 2.608C120.737 2.59733 120.779 2.58133 120.779 2.56C120.801 2.45333 120.806 2.336 120.795 2.208C120.795 2.08 120.801 1.952 120.811 1.824C120.822 1.696 120.843 1.57867 120.875 1.472C120.918 1.35467 120.993 1.25333 121.099 1.168C121.185 1.104 121.286 1.06133 121.403 1.04C121.521 1.01867 121.633 1.00267 121.739 0.992C122.006 0.959999 122.235 1.05067 122.427 1.264C122.502 1.36 122.555 1.45067 122.587 1.536C122.63 1.664 122.646 1.79733 122.635 1.936C122.635 2.07467 122.635 2.21333 122.635 2.352V6.928C122.635 6.928 122.635 6.98133 122.635 7.088C122.635 7.19467 122.625 7.31733 122.603 7.456C122.582 7.584 122.545 7.71733 122.491 7.856C122.449 7.984 122.374 8.08 122.267 8.144C122.193 8.18667 122.102 8.21867 121.995 8.24C121.889 8.26133 121.793 8.272 121.707 8.272C121.526 8.272 121.35 8.21333 121.179 8.096C121.051 8.01067 120.961 7.90933 120.907 7.792C120.843 7.67467 120.801 7.552 120.779 7.424C120.758 7.296 120.742 7.17333 120.731 7.056H120.363ZM115.211 6.224C115.521 6.17067 115.766 6.05333 115.947 5.872C116.139 5.69067 116.235 5.41333 116.235 5.04C116.235 4.61333 116.097 4.288 115.819 4.064C115.553 3.84 115.254 3.728 114.923 3.728C114.763 3.728 114.603 3.75467 114.443 3.808C114.283 3.85067 114.139 3.92533 114.011 4.032C113.883 4.13867 113.782 4.27733 113.707 4.448C113.633 4.61867 113.595 4.816 113.595 5.04C113.595 5.296 113.638 5.50933 113.723 5.68C113.819 5.85067 113.942 5.984 114.091 6.08C114.251 6.16533 114.427 6.21867 114.619 6.24C114.811 6.26133 115.009 6.256 115.211 6.224Z" fill="black"/>
</svg>
