<svg width="221" height="14" viewBox="0 0 221 14" fill="none" xmlns="http://www.w3.org/2000/svg">
<path d="M10.848 12.3943C11.0187 12.4156 11.168 12.4583 11.296 12.5223C11.424 12.5863 11.5147 12.7036 11.568 12.8743C11.696 13.2583 11.5573 13.5303 11.152 13.6903C11.024 13.7436 10.896 13.7756 10.768 13.7863C10.64 13.797 10.5173 13.8023 10.4 13.8023H2.96C2.74667 13.8023 2.52267 13.797 2.288 13.7863C2.064 13.7863 1.83467 13.781 1.6 13.7703C1.376 13.7596 1.18933 13.6796 1.04 13.5303C0.890667 13.381 0.805333 13.1836 0.784 12.9383L0.736 11.8183C0.725333 11.701 0.725333 11.5623 0.736 11.4023C0.746667 11.2423 0.8 11.109 0.896 11.0023C1.04533 10.8423 1.24267 10.741 1.488 10.6983C1.744 10.6556 1.98933 10.6343 2.224 10.6343C2.37333 10.6343 2.61867 10.6343 2.96 10.6343C3.312 10.6343 3.78667 10.6396 4.384 10.6503C4.98133 10.6503 5.71733 10.6503 6.592 10.6503C7.47733 10.6503 8.528 10.6503 9.744 10.6503V10.0743H1.872C1.76533 10.0743 1.66933 10.0743 1.584 10.0743C1.49867 10.0743 1.41333 10.0636 1.328 10.0423C1.232 10.021 1.14667 9.99962 1.072 9.97829C0.997333 9.95695 0.933333 9.90362 0.88 9.81829C0.730667 9.59429 0.693333 9.36495 0.768 9.13029C0.8 9.04495 0.848 8.98095 0.912 8.93829C0.976 8.88495 1.05067 8.84229 1.136 8.81029C1.22133 8.77829 1.30133 8.75695 1.376 8.74629C1.46133 8.73562 1.536 8.72495 1.6 8.71429C1.76 8.68229 1.92533 8.66629 2.096 8.66629C2.24533 8.66629 2.40533 8.66629 2.576 8.66629C2.75733 8.66629 2.97067 8.67162 3.216 8.68229C3.46133 8.68229 3.744 8.68229 4.064 8.68229C4.39467 8.68229 4.77867 8.68229 5.216 8.68229C5.22667 8.56495 5.232 8.45295 5.232 8.34629C5.24267 8.22895 5.248 8.11162 5.248 7.99429C5.184 7.99429 5.04 7.99429 4.816 7.99429C4.592 7.98362 4.33067 7.97829 4.032 7.97829C3.744 7.97829 3.42933 7.97829 3.088 7.97829C2.75733 7.96762 2.44267 7.96229 2.144 7.96229C1.856 7.95162 1.60533 7.94095 1.392 7.93029C1.17867 7.91962 1.04 7.90895 0.976 7.89829C0.805333 7.87695 0.666667 7.86629 0.56 7.86629C0.464 7.86629 0.346667 7.80229 0.208 7.67429C0.0693333 7.54629 0 7.38095 0 7.17829C0 6.95429 0.0693333 6.77295 0.208 6.63429C0.282667 6.54895 0.384 6.49029 0.512 6.45829C0.64 6.41562 0.762667 6.38895 0.88 6.37829C0.997333 6.35695 1.09867 6.35162 1.184 6.36229C1.28 6.36229 1.33333 6.36229 1.344 6.36229H10.496C10.656 6.36229 10.816 6.36229 10.976 6.36229C11.136 6.36229 11.2907 6.36762 11.44 6.37829C11.5893 6.38895 11.7333 6.40495 11.872 6.42629C12.0213 6.43695 12.1547 6.49562 12.272 6.60229C12.3893 6.68762 12.4533 6.78362 12.464 6.89029C12.4853 6.99695 12.496 7.11429 12.496 7.24229C12.496 7.40229 12.448 7.53029 12.352 7.62629C12.2667 7.72229 12.144 7.79695 11.984 7.85029C11.7707 7.93562 11.5307 7.97295 11.264 7.96229C11.008 7.95162 10.7733 7.95162 10.56 7.96229C10.0267 7.98362 9.50933 7.99429 9.008 7.99429C8.51733 7.99429 8 7.99429 7.456 7.99429C7.456 8.11162 7.456 8.22895 7.456 8.34629C7.456 8.45295 7.45067 8.56495 7.44 8.68229H9.904C10.448 8.68229 10.864 8.76762 11.152 8.93829C11.44 9.09829 11.584 9.36495 11.584 9.73829V10.8743C11.584 11.0236 11.5467 11.173 11.472 11.3223C11.408 11.461 11.2907 11.5783 11.12 11.6743C10.9813 11.7596 10.8427 11.8076 10.704 11.8183C10.5653 11.8183 10.4267 11.8183 10.288 11.8183H2.704V12.3943H10.848ZM10.016 4.10629C10.2187 4.20229 10.4107 4.30895 10.592 4.42629C10.784 4.54362 10.9653 4.66095 11.136 4.77829C11.2213 4.85295 11.2693 4.94895 11.28 5.06629C11.3013 5.18362 11.2853 5.30095 11.232 5.41829C11.1893 5.52495 11.12 5.62095 11.024 5.70629C10.928 5.79162 10.816 5.85029 10.688 5.88229C10.3467 5.93562 10.0267 5.93562 9.728 5.88229C9.44 5.81829 9.14133 5.71695 8.832 5.57829C8.544 5.45029 8.26667 5.32762 8 5.21029C7.744 5.09295 7.49333 4.96495 7.248 4.82629C7.17333 4.78362 7.072 4.73029 6.944 4.66629C6.82667 4.60229 6.70933 4.54362 6.592 4.49029C6.45333 4.42629 6.304 4.35695 6.144 4.28229C5.96267 4.36762 5.78667 4.44762 5.616 4.52229C5.46667 4.58629 5.31733 4.65562 5.168 4.73029C5.02933 4.79429 4.91733 4.84762 4.832 4.89029C4.55467 5.03962 4.29867 5.16762 4.064 5.27429C3.82933 5.37029 3.57333 5.48229 3.296 5.61029C3.08267 5.69562 2.864 5.79162 2.64 5.89829C2.42667 5.99429 2.19733 6.04229 1.952 6.04229C1.76 6.03162 1.57333 5.98362 1.392 5.89829C1.21067 5.80229 1.09867 5.65295 1.056 5.45029C1.04533 5.34362 1.056 5.22095 1.088 5.08229C1.13067 4.93295 1.2 4.81029 1.296 4.71429C1.40267 4.61829 1.53067 4.52229 1.68 4.42629L2.784 3.88229C2.96533 3.79695 3.12533 3.72229 3.264 3.65829C3.40267 3.59429 3.568 3.51962 3.76 3.43429C3.84533 3.38095 3.94133 3.32762 4.048 3.27429C4.15467 3.21029 4.26667 3.15162 4.384 3.09829H3.376C3.20533 3.09829 3.056 3.09829 2.928 3.09829C2.81067 3.09829 2.672 3.08762 2.512 3.06629C2.39467 3.04495 2.26667 3.03429 2.128 3.03429C1.98933 3.03429 1.86133 3.00762 1.744 2.95429C1.68 2.93295 1.62133 2.89562 1.568 2.84229C1.52533 2.77829 1.488 2.71429 1.456 2.65029C1.392 2.54362 1.35467 2.42629 1.344 2.29829C1.33333 2.17029 1.35467 2.04762 1.408 1.93029C1.49333 1.77029 1.632 1.64762 1.824 1.56229C2.016 1.47695 2.21333 1.43429 2.416 1.43429H2.784C2.95467 1.45562 3.07733 1.46095 3.152 1.45029C3.23733 1.43962 3.36533 1.43429 3.536 1.43429H4.96V0.794286C4.96 0.474286 5.09867 0.255619 5.376 0.138286C5.65333 0.0209527 5.952 -0.0217141 6.272 0.0102855C6.56 0.0422857 6.77867 0.106286 6.928 0.202286C7.088 0.287619 7.17333 0.436953 7.184 0.650286C7.19467 0.735619 7.2 0.852953 7.2 1.00229C7.21067 1.14095 7.216 1.28495 7.216 1.43429H9.072C9.24267 1.43429 9.44 1.42895 9.664 1.41829C9.888 1.40762 10.1013 1.42362 10.304 1.46629C10.5173 1.49829 10.704 1.56762 10.864 1.67429C11.0347 1.77029 11.1467 1.93029 11.2 2.15429C11.264 2.41029 11.216 2.60762 11.056 2.74629C10.9067 2.87429 10.7093 2.97029 10.464 3.03429C10.2293 3.08762 9.97867 3.11962 9.712 3.13029C9.44533 3.13029 9.22667 3.13029 9.056 3.13029C8.88533 3.11962 8.704 3.11429 8.512 3.11429C8.33067 3.11429 8.15467 3.11429 7.984 3.11429C8.05867 3.15695 8.128 3.18362 8.192 3.19429C8.29867 3.24762 8.4 3.30095 8.496 3.35429C8.60267 3.39695 8.70933 3.44495 8.816 3.49829C9.01867 3.59429 9.216 3.69562 9.408 3.80229C9.61067 3.89829 9.81333 3.99962 10.016 4.10629Z" fill="black"/>
<path d="M13.2189 8.05829C13.0695 7.99429 12.9629 7.87162 12.8989 7.69029C12.8135 7.47695 12.7975 7.26362 12.8509 7.05029C12.9149 6.83695 13.0109 6.63429 13.1389 6.44229C13.2669 6.25029 13.4109 6.06895 13.5709 5.89829C13.7415 5.72762 13.8855 5.56762 14.0029 5.41829C14.1842 5.19429 14.3602 4.97029 14.5309 4.74629C14.7015 4.52229 14.8775 4.29295 15.0589 4.05829C15.1869 3.87695 15.3202 3.66362 15.4589 3.41829C15.5975 3.17295 15.6775 2.93295 15.6989 2.69829C15.6989 2.63429 15.7042 2.55429 15.7149 2.45829C15.7255 2.35162 15.7309 2.24495 15.7309 2.13829C15.7415 2.02095 15.7522 1.91429 15.7629 1.81829C15.7735 1.72229 15.7895 1.64229 15.8109 1.57829C15.8749 1.36495 15.9762 1.22095 16.1149 1.14629C16.2642 1.06095 16.4882 1.01829 16.7869 1.01829C16.9575 1.01829 17.1495 1.05029 17.3629 1.11429C17.5762 1.16762 17.7202 1.27962 17.7949 1.45029C17.8695 1.64229 17.8909 1.86629 17.8589 2.12229C17.8375 2.36762 17.8589 2.59162 17.9229 2.79429C17.9762 2.95429 18.0562 3.11962 18.1629 3.29029C18.2695 3.46095 18.3815 3.63162 18.4989 3.80229C18.7015 4.09029 18.9042 4.40495 19.1069 4.74629C19.3095 5.07695 19.4962 5.35962 19.6669 5.59429C19.8375 5.81829 20.0029 6.05295 20.1629 6.29829C20.3229 6.53295 20.4295 6.78895 20.4829 7.06629C20.5362 7.30095 20.5095 7.49829 20.4029 7.65829C20.3069 7.80762 20.1735 7.91962 20.0029 7.99429C19.8322 8.05829 19.6455 8.07429 19.4429 8.04229C19.2402 7.99962 19.0642 7.90362 18.9149 7.75429C18.5202 7.34895 18.1629 6.91695 17.8429 6.45829C17.5229 5.98895 17.1922 5.53029 16.8509 5.08229C16.8509 5.08229 16.8029 5.13562 16.7069 5.24229C16.6109 5.34895 16.4935 5.48762 16.3549 5.65829C16.2162 5.82895 16.0615 6.01562 15.8909 6.21829C15.7202 6.42095 15.5602 6.61295 15.4109 6.79429C15.2615 6.97562 15.1282 7.13562 15.0109 7.27429C14.9042 7.40229 14.8402 7.48229 14.8189 7.51429C14.7015 7.65295 14.5682 7.77562 14.4189 7.88229C14.2695 7.98895 14.1042 8.06362 13.9229 8.10629C13.8055 8.12762 13.6829 8.13829 13.5549 8.13829C13.4375 8.13829 13.3255 8.11162 13.2189 8.05829ZM15.6829 13.6263C15.2455 13.6263 14.8935 13.5303 14.6269 13.3383C14.3602 13.157 14.2269 12.9436 14.2269 12.6983V10.3943C14.2055 10.1596 14.2055 9.91962 14.2269 9.67429C14.2482 9.45029 14.3335 9.26895 14.4829 9.13029C14.6429 8.99162 14.8455 8.92229 15.0909 8.92229C15.1442 8.92229 15.2402 8.92762 15.3789 8.93829C15.5175 8.93829 15.6135 8.94895 15.6669 8.97029C15.8055 9.01295 15.9122 9.07695 15.9869 9.16229C16.0722 9.24762 16.1362 9.34895 16.1789 9.46629C16.2215 9.57295 16.2482 9.69029 16.2589 9.81829C16.2695 9.93562 16.2802 10.053 16.2909 10.1703C16.2909 10.213 16.2909 10.3143 16.2909 10.4743C16.3015 10.6236 16.3069 10.789 16.3069 10.9703C16.3175 11.141 16.3229 11.301 16.3229 11.4503C16.3335 11.5996 16.3442 11.6903 16.3549 11.7223C16.3869 11.733 16.4722 11.749 16.6109 11.7703C16.7602 11.781 17.0322 11.7863 17.4269 11.7863C17.7682 11.7863 17.9762 11.781 18.0509 11.7703C18.1362 11.7596 18.1842 11.7543 18.1949 11.7543H23.4269C23.4269 11.7543 23.4589 11.765 23.5229 11.7863C23.5975 11.8076 23.6775 11.845 23.7629 11.8983C23.8482 11.941 23.9282 12.005 24.0029 12.0903C24.0775 12.165 24.1255 12.2556 24.1469 12.3623C24.2002 12.7676 24.1309 13.0823 23.9389 13.3063C23.8109 13.4556 23.6722 13.5463 23.5229 13.5783C23.3735 13.6103 23.2935 13.6263 23.2829 13.6263H15.6829ZM23.8109 5.91429V7.57829C23.8002 7.69562 23.7842 7.81829 23.7629 7.94629C23.7415 8.06362 23.6989 8.18095 23.6349 8.29829C23.5602 8.43695 23.4695 8.53829 23.3629 8.60229C23.1922 8.71962 23.0109 8.77829 22.8189 8.77829C22.6589 8.77829 22.5095 8.73562 22.3709 8.65029C22.2642 8.58629 22.1789 8.50629 22.1149 8.41029C22.0509 8.31429 21.9975 8.22362 21.9549 8.13829C21.9229 8.05295 21.9015 7.97829 21.8909 7.91429C21.8802 7.83962 21.8749 7.80229 21.8749 7.80229V2.18629C21.8749 2.13295 21.8802 2.01562 21.8909 1.83429C21.9122 1.64229 21.9549 1.48229 22.0189 1.35429C22.1255 1.13029 22.3442 1.00229 22.6749 0.970286C22.8562 0.948952 23.0269 0.959619 23.1869 1.00229C23.3469 1.04495 23.4695 1.11429 23.5549 1.21029C23.6189 1.29562 23.6615 1.38095 23.6829 1.46629C23.7149 1.54095 23.7415 1.62095 23.7629 1.70629C23.7949 1.81295 23.8109 1.92495 23.8109 2.04229C23.8215 2.15962 23.8215 2.27695 23.8109 2.39429V4.12229C23.8535 4.12229 23.9335 4.12762 24.0509 4.13829C24.1682 4.14895 24.2909 4.15962 24.4189 4.17029C24.5575 4.17029 24.6855 4.17562 24.8029 4.18629C24.9202 4.19695 25.0002 4.20762 25.0429 4.21829C25.2562 4.26095 25.4055 4.32495 25.4909 4.41029C25.5762 4.48495 25.6349 4.58095 25.6669 4.69829C25.6882 4.81562 25.6989 4.95429 25.6989 5.11429C25.6989 5.26362 25.6669 5.39162 25.6029 5.49829C25.4749 5.71162 25.2829 5.83429 25.0269 5.86629C24.7709 5.89829 24.4882 5.91429 24.1789 5.91429H23.8109Z" fill="black"/>
<path d="M33.3409 1.11429C33.6182 1.11429 33.8636 1.13562 34.0769 1.17829C34.4609 1.23162 34.7969 1.41829 35.0849 1.73829C35.3409 2.02629 35.5329 2.33029 35.6609 2.65029C35.7996 2.95962 35.9116 3.28495 35.9969 3.62629H37.4689V2.47429C37.4689 2.33562 37.4689 2.19695 37.4689 2.05829C37.4689 1.90895 37.4849 1.76495 37.5169 1.62629C37.5382 1.57295 37.5542 1.52495 37.5649 1.48229C37.5862 1.43962 37.6076 1.39162 37.6289 1.33829C37.6929 1.23162 37.7569 1.15162 37.8209 1.09829C37.8849 1.03429 37.9756 0.980953 38.0929 0.938286C38.1889 0.906286 38.2849 0.890286 38.3809 0.890286C38.7329 0.890286 38.9996 1.05029 39.1809 1.37029C39.2236 1.43429 39.2502 1.52495 39.2609 1.64229C39.2822 1.75962 39.2982 1.88229 39.3089 2.01029C39.3196 2.12762 39.3249 2.23429 39.3249 2.33029C39.3249 2.41562 39.3249 2.46895 39.3249 2.49029V11.6263C39.3249 11.893 39.3142 12.1063 39.2929 12.2663C39.2822 12.4263 39.2342 12.629 39.1489 12.8743C39.0956 13.0343 39.0049 13.1676 38.8769 13.2743C38.7489 13.381 38.5676 13.4343 38.3329 13.4343C38.2689 13.4343 38.1942 13.4236 38.1089 13.4023C38.0342 13.3916 37.9702 13.365 37.9169 13.3223C37.8102 13.2583 37.7249 13.157 37.6609 13.0183C37.6076 12.869 37.5649 12.7143 37.5329 12.5543C37.5009 12.3943 37.4796 12.2396 37.4689 12.0903C37.4689 11.941 37.4689 11.8236 37.4689 11.7383V10.3463L36.0769 10.3143C36.0022 10.613 35.9009 10.9063 35.7729 11.1943C35.6449 11.4823 35.4849 11.749 35.2929 11.9943C35.1116 12.229 34.8929 12.4316 34.6369 12.6023C34.3809 12.773 34.0876 12.8956 33.7569 12.9703C33.4476 13.0343 33.1276 13.045 32.7969 13.0023C32.4769 12.9596 32.1782 12.853 31.9009 12.6823C31.6236 12.5116 31.3996 12.2983 31.2289 12.0423C31.0689 11.7863 30.9249 11.4876 30.7969 11.1463C30.6049 10.6343 30.4822 10.1063 30.4289 9.56229C30.3969 9.11429 30.3702 8.71962 30.3489 8.37829C30.3382 8.02629 30.3329 7.62629 30.3329 7.17829C30.3329 6.87962 30.3382 6.58095 30.3489 6.28229C30.3702 5.98362 30.3916 5.68495 30.4129 5.38629C30.4342 5.14095 30.4556 4.90095 30.4769 4.66629C30.4982 4.43162 30.5356 4.19162 30.5889 3.94629C30.6209 3.75429 30.6529 3.57295 30.6849 3.40229C30.7169 3.23162 30.7702 3.05562 30.8449 2.87429C30.9302 2.69295 31.0209 2.52762 31.1169 2.37829C31.2129 2.21829 31.3196 2.07429 31.4369 1.94629C31.6609 1.70095 31.9009 1.51429 32.1569 1.38629C32.4129 1.25829 32.6796 1.17295 32.9569 1.13029C33.0209 1.11962 33.0849 1.11429 33.1489 1.11429C33.2129 1.11429 33.2769 1.11429 33.3409 1.11429ZM42.0609 2.81029C42.0822 3.61029 42.0876 4.42629 42.0769 5.25829C42.0662 6.09029 42.0609 6.88495 42.0609 7.64229V11.4663C42.0609 11.7436 42.0502 12.0103 42.0289 12.2663C42.0182 12.5223 41.9596 12.7623 41.8529 12.9863C41.7889 13.125 41.6876 13.2423 41.5489 13.3383C41.4316 13.413 41.3302 13.4556 41.2449 13.4663C41.1596 13.4876 41.0476 13.4823 40.9089 13.4503C40.7489 13.4183 40.6156 13.349 40.5089 13.2423C40.4129 13.1463 40.3382 13.0343 40.2849 12.9063C40.2316 12.7783 40.1942 12.6396 40.1729 12.4903C40.1516 12.341 40.1409 12.197 40.1409 12.0583V2.65029C40.1409 2.53295 40.1409 2.39962 40.1409 2.25029C40.1409 2.09029 40.1516 1.94095 40.1729 1.80229C40.1942 1.65295 40.2209 1.51429 40.2529 1.38629C40.2956 1.25829 40.3542 1.15695 40.4289 1.08229C40.5462 0.975619 40.6689 0.911619 40.7969 0.890286C40.9249 0.858286 41.0636 0.842286 41.2129 0.842286C41.3942 0.842286 41.5329 0.89562 41.6289 1.00229C41.7249 1.09829 41.8049 1.23162 41.8689 1.40229C41.9649 1.62629 42.0182 1.85562 42.0289 2.09029C42.0396 2.32495 42.0502 2.56495 42.0609 2.81029ZM33.2929 10.8423C33.4636 10.8423 33.6236 10.7783 33.7729 10.6503C33.9222 10.5223 34.0289 10.3516 34.0929 10.1383C34.1569 9.92495 34.2049 9.69562 34.2369 9.45029C34.3222 8.94895 34.3649 8.47962 34.3649 8.04229C34.3756 7.59429 34.3702 7.11429 34.3489 6.60229C34.3489 6.39962 34.3436 6.17029 34.3329 5.91429C34.3329 5.64762 34.3222 5.38095 34.3009 5.11429C34.2796 4.83695 34.2422 4.57562 34.1889 4.33029C34.1462 4.08495 34.0876 3.87695 34.0129 3.70629C33.8316 3.35429 33.5969 3.19429 33.3089 3.22629C33.1596 3.24762 33.0209 3.31695 32.8929 3.43429C32.7756 3.54095 32.6796 3.70095 32.6049 3.91429C32.4236 4.40495 32.3169 4.93295 32.2849 5.49829C32.2636 6.05295 32.2529 6.60229 32.2529 7.14629C32.2529 7.40229 32.2529 7.73829 32.2529 8.15429C32.2529 8.57029 32.2796 8.98095 32.3329 9.38629C32.3862 9.78095 32.4876 10.1223 32.6369 10.4103C32.7862 10.6983 33.0049 10.8423 33.2929 10.8423ZM36.2849 5.53029C36.3062 5.98895 36.3169 6.47429 36.3169 6.98629C36.3169 7.48762 36.3116 7.97829 36.3009 8.45829H37.4689V5.54629L36.2849 5.53029Z" fill="black"/>
<path d="M43.9644 11.2743C43.9644 10.7943 44.1031 10.3943 44.3804 10.0743C44.6684 9.75429 45.0524 9.50362 45.5324 9.32229C46.0124 9.13029 46.5777 8.99695 47.2284 8.92229C47.8791 8.84762 48.5724 8.81029 49.3084 8.81029C50.0444 8.81029 50.7377 8.83695 51.3884 8.89029C52.0391 8.94362 52.6044 9.06095 53.0844 9.24229C53.5644 9.41295 53.9431 9.65829 54.2204 9.97829C54.5084 10.2983 54.6524 10.7303 54.6524 11.2743C54.6524 11.8076 54.5084 12.2343 54.2204 12.5543C53.9431 12.8743 53.5644 13.1196 53.0844 13.2903C52.6044 13.4716 52.0391 13.589 51.3884 13.6423C50.7377 13.7063 50.0444 13.7383 49.3084 13.7383C48.5724 13.7383 47.8791 13.7063 47.2284 13.6423C46.5777 13.589 46.0124 13.4716 45.5324 13.2903C45.0524 13.1196 44.6684 12.8743 44.3804 12.5543C44.1031 12.2343 43.9644 11.8076 43.9644 11.2743ZM48.0444 2.84229C48.0444 2.84229 48.0391 2.90629 48.0284 3.03429C48.0284 3.16229 48.0284 3.30629 48.0284 3.46629C48.0284 3.62629 48.0284 3.77562 48.0284 3.91429C48.0391 4.05295 48.0444 4.13295 48.0444 4.15429C48.0977 4.20762 48.1937 4.29829 48.3324 4.42629C48.4711 4.54362 48.5884 4.64495 48.6844 4.73029C48.7911 4.81562 48.8977 4.91162 49.0044 5.01829C49.1217 5.11429 49.2391 5.22095 49.3564 5.33829C49.4311 5.41295 49.5004 5.48762 49.5644 5.56229C49.6284 5.62629 49.6871 5.68495 49.7404 5.73829C49.9431 5.94095 50.1457 6.15962 50.3484 6.39429C50.5511 6.62895 50.6897 6.86895 50.7644 7.11429C50.7964 7.21029 50.8017 7.31695 50.7804 7.43429C50.7591 7.55162 50.6897 7.65295 50.5724 7.73829C50.3911 7.84495 50.1991 7.89829 49.9964 7.89829C49.7617 7.89829 49.5377 7.85029 49.3244 7.75429C49.1111 7.65829 48.9404 7.56229 48.8124 7.46629C48.6097 7.31695 48.4231 7.16229 48.2524 7.00229C48.0817 6.83162 47.9111 6.66095 47.7404 6.49029C47.6231 6.37295 47.4897 6.23962 47.3404 6.09029C47.1911 5.93029 47.0417 5.79162 46.8924 5.67429L46.4604 6.10629C46.3857 6.18095 46.3111 6.25562 46.2364 6.33029C46.1617 6.39429 46.0924 6.46362 46.0284 6.53829C45.8897 6.68762 45.7457 6.84229 45.5964 7.00229C45.4471 7.15162 45.2764 7.29562 45.0844 7.43429C44.6471 7.75429 44.2364 7.91429 43.8524 7.91429C43.7991 7.91429 43.7511 7.91429 43.7084 7.91429C43.6764 7.91429 43.6337 7.90362 43.5804 7.88229C43.3457 7.82895 43.1911 7.73295 43.1164 7.59429C43.0417 7.47695 43.0151 7.34362 43.0364 7.19429C43.0684 7.04495 43.1164 6.91162 43.1804 6.79429C43.2657 6.67695 43.3617 6.56495 43.4684 6.45829C43.5751 6.34095 43.6817 6.22362 43.7884 6.10629C43.8844 5.99962 44.0337 5.85029 44.2364 5.65829C44.4497 5.45562 44.6631 5.25295 44.8764 5.05029C45.0897 4.83695 45.2871 4.64495 45.4684 4.47429C45.6497 4.30362 45.7617 4.19695 45.8044 4.15429V2.84229H44.7804C44.6524 2.84229 44.5031 2.84762 44.3324 2.85829C44.1617 2.85829 43.9911 2.84762 43.8204 2.82629C43.6604 2.80495 43.5111 2.76229 43.3724 2.69829C43.2337 2.62362 43.1324 2.50629 43.0684 2.34629C43.0151 2.22895 42.9777 2.09562 42.9564 1.94629C42.9457 1.79695 42.9564 1.65829 42.9884 1.53029C43.0311 1.38095 43.1271 1.27962 43.2764 1.22629C43.4257 1.16229 43.5697 1.11962 43.7084 1.09829C43.7297 1.09829 43.8151 1.09829 43.9644 1.09829C44.1244 1.09829 44.2951 1.09829 44.4764 1.09829C44.6577 1.09829 44.8284 1.09829 44.9884 1.09829C45.1484 1.09829 45.2444 1.09295 45.2764 1.08229H49.0204C49.4471 1.08229 49.8044 1.10895 50.0924 1.16229C50.3911 1.21562 50.6311 1.34895 50.8124 1.56229C50.8657 1.62629 50.8977 1.71162 50.9084 1.81829C50.9297 1.92495 50.9297 2.03695 50.9084 2.15429C50.8977 2.26095 50.8657 2.36229 50.8124 2.45829C50.7697 2.55429 50.7057 2.62362 50.6204 2.66629C50.5351 2.69829 50.4337 2.73562 50.3164 2.77829C50.1991 2.81029 50.0977 2.83162 50.0124 2.84229C49.8631 2.85295 49.7084 2.85829 49.5484 2.85829C49.3991 2.84762 49.2497 2.84229 49.1004 2.84229H48.0444ZM51.6604 5.54629C51.3511 5.52495 51.0737 5.50895 50.8284 5.49829C50.5831 5.47695 50.3911 5.35962 50.2524 5.14629C50.1884 5.03962 50.1564 4.90095 50.1564 4.73029C50.1564 4.55962 50.1671 4.41562 50.1884 4.29829C50.2204 4.18095 50.2791 4.08495 50.3644 4.01029C50.4497 3.92495 50.5991 3.85562 50.8124 3.80229C50.8551 3.79162 50.9564 3.78629 51.1164 3.78629C51.2871 3.77562 51.4684 3.77029 51.6604 3.77029C51.8524 3.75962 52.0337 3.75429 52.2044 3.75429C52.3751 3.74362 52.4817 3.73829 52.5244 3.73829V2.21829C52.5137 2.10095 52.5084 1.98362 52.5084 1.86629C52.5191 1.74895 52.5404 1.63162 52.5724 1.51429C52.5937 1.42895 52.6151 1.34895 52.6364 1.27429C52.6577 1.19962 52.7057 1.11962 52.7804 1.03429C52.8657 0.927619 52.9831 0.852952 53.1324 0.810286C53.2924 0.767619 53.4631 0.756952 53.6444 0.778286C53.8044 0.799619 53.9484 0.847619 54.0764 0.922286C54.2044 0.986286 54.2951 1.07162 54.3484 1.17829C54.4124 1.30629 54.4497 1.46629 54.4604 1.65829C54.4817 1.83962 54.4924 1.95162 54.4924 1.99429V7.48229H54.4764C54.4764 7.49295 54.4711 7.53029 54.4604 7.59429C54.4497 7.65829 54.4284 7.73829 54.3964 7.83429C54.3644 7.91962 54.3164 8.01029 54.2524 8.10629C54.1884 8.20229 54.1031 8.28229 53.9964 8.34629C53.8471 8.43162 53.6817 8.47429 53.5004 8.47429C53.3191 8.47429 53.1431 8.41562 52.9724 8.29829C52.8444 8.21295 52.7537 8.10629 52.7004 7.97829C52.6364 7.86095 52.5937 7.74362 52.5724 7.62629C52.5511 7.50895 52.5351 7.39162 52.5244 7.27429V5.54629H51.6604ZM52.4924 11.2743C52.4924 11.093 52.3964 10.949 52.2044 10.8423C52.0124 10.7356 51.7617 10.6556 51.4524 10.6023C51.1537 10.549 50.8124 10.517 50.4284 10.5063C50.0551 10.485 49.6817 10.4743 49.3084 10.4743C48.9351 10.4743 48.5617 10.485 48.1884 10.5063C47.8257 10.517 47.4951 10.549 47.1964 10.6023C46.9084 10.6556 46.6737 10.7356 46.4924 10.8423C46.3111 10.949 46.2204 11.093 46.2204 11.2743C46.2204 11.4343 46.3111 11.5676 46.4924 11.6743C46.6737 11.781 46.9084 11.861 47.1964 11.9143C47.4951 11.9676 47.8257 12.005 48.1884 12.0263C48.5617 12.0476 48.9351 12.0583 49.3084 12.0583C49.6817 12.0583 50.0551 12.0583 50.4284 12.0583C50.8124 12.0583 51.1537 12.037 51.4524 11.9943C51.7617 11.9516 52.0124 11.877 52.2044 11.7703C52.3964 11.653 52.4924 11.4876 52.4924 11.2743Z" fill="black"/>
<path d="M66.5069 12.5543C66.6776 12.565 66.8269 12.6076 66.9549 12.6823C67.0829 12.7463 67.1736 12.8636 67.2269 13.0343C67.3442 13.429 67.2056 13.6956 66.8109 13.8343C66.6829 13.8876 66.5496 13.9196 66.4109 13.9303C66.2829 13.941 66.1656 13.9463 66.0589 13.9463H58.9389C58.7256 13.9463 58.5016 13.9463 58.2669 13.9463C58.0322 13.9463 57.7976 13.941 57.5629 13.9303C57.2749 13.9196 57.0722 13.829 56.9549 13.6583C56.8482 13.4876 56.7842 13.2796 56.7629 13.0343L56.6989 11.9303C56.6989 11.8663 56.6989 11.7916 56.6989 11.7063C56.6989 11.6103 56.7042 11.5143 56.7149 11.4183C56.7256 11.3116 56.7416 11.2156 56.7629 11.1303C56.7842 11.0343 56.8216 10.9596 56.8749 10.9063C57.0242 10.757 57.1949 10.661 57.3869 10.6183C57.5789 10.5756 57.7922 10.5543 58.0269 10.5543H58.5229C58.5762 10.5543 58.6189 10.5596 58.6509 10.5703C58.6829 10.5703 58.7149 10.5703 58.7469 10.5703H65.4029V9.93029H58.5869C58.5336 9.93029 58.4749 9.93029 58.4109 9.93029C58.3576 9.91962 58.2989 9.91962 58.2349 9.93029H57.8509C57.7442 9.93029 57.6482 9.93029 57.5629 9.93029C57.4776 9.93029 57.3922 9.91962 57.3069 9.89829C57.2109 9.87695 57.1202 9.85562 57.0349 9.83429C56.9602 9.81295 56.8962 9.75962 56.8429 9.67429C56.7042 9.42895 56.6722 9.18362 56.7469 8.93829C56.7789 8.85295 56.8269 8.78895 56.8909 8.74629C56.9549 8.69295 57.0296 8.65029 57.1149 8.61829C57.2002 8.58629 57.2802 8.56495 57.3549 8.55429C57.4402 8.53295 57.5149 8.51695 57.5789 8.50629C57.6642 8.49562 57.7442 8.49029 57.8189 8.49029C57.9042 8.47962 57.9896 8.47429 58.0749 8.47429H58.3469C58.4002 8.48495 58.4482 8.49029 58.4909 8.49029C58.5442 8.49029 58.5976 8.49029 58.6509 8.49029H65.5629C66.1069 8.49029 66.5229 8.57562 66.8109 8.74629C67.0989 8.90629 67.2429 9.17295 67.2429 9.54629V11.0183C67.2429 11.1676 67.2056 11.3063 67.1309 11.4343C67.0669 11.5516 66.9496 11.6636 66.7789 11.7703C66.6402 11.8556 66.5016 11.9036 66.3629 11.9143C66.2242 11.9143 66.0856 11.9143 65.9469 11.9143H58.6669V12.5543H66.5069ZM59.6429 0.826285C60.7309 0.900952 61.5576 1.24762 62.1229 1.86629C62.6989 2.48495 62.9496 3.36495 62.8749 4.50629C62.8002 5.46629 62.5016 6.20762 61.9789 6.73029C61.4669 7.25295 60.6989 7.51429 59.6749 7.51429C59.4829 7.51429 59.2802 7.51429 59.0669 7.51429C58.8536 7.51429 58.6349 7.50362 58.4109 7.48229C58.1976 7.45029 57.9736 7.39695 57.7389 7.32229C57.5042 7.24762 57.2642 7.13562 57.0189 6.98629C56.7842 6.83695 56.5869 6.65562 56.4269 6.44229C56.2776 6.22895 56.1549 5.99962 56.0589 5.75429C55.9629 5.49829 55.8936 5.23695 55.8509 4.97029C55.8189 4.70362 55.8029 4.44229 55.8029 4.18629C55.8029 3.61029 55.8989 3.10362 56.0909 2.66629C56.2829 2.22895 56.5496 1.86629 56.8909 1.57829C57.2322 1.29029 57.6376 1.08229 58.1069 0.954286C58.5762 0.826286 59.0882 0.783619 59.6429 0.826285ZM67.2589 6.79429C67.2589 6.79429 67.2536 6.83162 67.2429 6.90629C67.2322 6.98095 67.2109 7.06629 67.1789 7.16229C67.1469 7.25829 67.0989 7.35962 67.0349 7.46629C66.9709 7.56229 66.8856 7.64229 66.7789 7.70629C66.6296 7.79162 66.4802 7.83429 66.3309 7.83429C66.1496 7.83429 65.9736 7.77562 65.8029 7.65829C65.6856 7.57295 65.5949 7.46095 65.5309 7.32229C65.4456 7.16229 65.3869 6.98629 65.3549 6.79429C65.3336 6.60229 65.3176 6.40495 65.3069 6.20229C65.3069 5.99962 65.3122 5.80229 65.3229 5.61029C65.3336 5.40762 65.3389 5.21562 65.3389 5.03429C65.3389 4.81029 65.3389 4.60229 65.3389 4.41029C65.3496 4.20762 65.3549 4.01562 65.3549 3.83429C65.3549 3.64229 65.3549 3.45029 65.3549 3.25829C65.3549 3.06629 65.3549 2.85829 65.3549 2.63429V2.42629C65.3442 2.30895 65.3389 2.18629 65.3389 2.05829C65.3496 1.91962 65.3709 1.79162 65.4029 1.67429C65.4456 1.51429 65.5416 1.34362 65.6909 1.16229C65.7762 1.05562 65.8936 0.980953 66.0429 0.938286C66.2029 0.884953 66.3736 0.868953 66.5549 0.890286C66.8749 0.943619 67.0882 1.08229 67.1949 1.30629C67.2589 1.44495 67.2856 1.61562 67.2749 1.81829C67.2749 2.02095 67.2696 2.14362 67.2589 2.18629V6.79429ZM61.0349 4.57029C61.0882 4.18629 61.0242 3.82895 60.8429 3.49829C60.6722 3.16762 60.4162 2.94362 60.0749 2.82629C59.8509 2.75162 59.6056 2.71429 59.3389 2.71429C59.0722 2.71429 58.8162 2.76229 58.5709 2.85829C58.3362 2.94362 58.1282 3.08229 57.9469 3.27429C57.7762 3.45562 57.6696 3.69562 57.6269 3.99429C57.5949 4.19695 57.5949 4.40495 57.6269 4.61829C57.6589 4.82095 57.7282 5.00762 57.8349 5.17829C57.9522 5.33829 58.1122 5.47695 58.3149 5.59429C58.5176 5.71162 58.7736 5.78629 59.0829 5.81829C59.2962 5.83962 59.5042 5.83962 59.7069 5.81829C59.9202 5.79695 60.1122 5.74362 60.2829 5.65829C60.4642 5.57295 60.6189 5.45562 60.7469 5.30629C60.8749 5.14629 60.9656 4.94362 61.0189 4.69829L61.0349 4.57029Z" fill="black"/>
<path d="M73.4344 10.8103L73.4184 8.66629C73.1411 8.65562 72.8851 8.65029 72.6504 8.65029C72.4157 8.65029 72.1437 8.65029 71.8344 8.65029C71.5891 8.65029 71.3331 8.64495 71.0664 8.63429C70.8104 8.61295 70.5704 8.57029 70.3464 8.50629C70.1651 8.45295 69.9997 8.35695 69.8504 8.21829C69.7117 8.07962 69.5997 7.91962 69.5144 7.73829C69.4611 7.62095 69.4237 7.48229 69.4024 7.32229C69.3811 7.16229 69.3651 7.00762 69.3544 6.85829C69.3437 6.69829 69.3384 6.56495 69.3384 6.45829C69.3491 6.34095 69.3544 6.27695 69.3544 6.26629V3.35429C69.3544 3.33295 69.3491 3.26362 69.3384 3.14629C69.3384 3.02895 69.3437 2.89562 69.3544 2.74629C69.3757 2.58629 69.4024 2.42629 69.4344 2.26629C69.4664 2.09562 69.5251 1.94629 69.6104 1.81829C69.7491 1.60495 69.9624 1.46629 70.2504 1.40229C70.5384 1.33829 70.8317 1.30629 71.1304 1.30629H77.8344C77.8451 1.30629 77.9251 1.31162 78.0744 1.32229C78.2237 1.32229 78.3891 1.33829 78.5704 1.37029C78.7517 1.40229 78.9224 1.46095 79.0824 1.54629C79.2531 1.63162 79.3651 1.75962 79.4184 1.93029C79.4397 1.99429 79.4504 2.07429 79.4504 2.17029C79.4611 2.25562 79.4664 2.34629 79.4664 2.44229C79.4664 2.53829 79.4557 2.62895 79.4344 2.71429C79.4237 2.79962 79.4077 2.86362 79.3864 2.90629C79.3011 3.05562 79.1677 3.15162 78.9864 3.19429C78.8264 3.23695 78.5331 3.25829 78.1064 3.25829H72.3144C72.0691 3.25829 71.8824 3.30095 71.7544 3.38629C71.6371 3.47162 71.5464 3.57295 71.4824 3.69029C71.4291 3.79695 71.4024 3.90895 71.4024 4.02629C71.4024 4.13295 71.4024 4.21295 71.4024 4.26629L71.4664 5.72229C71.4771 5.82895 71.4877 5.95695 71.4984 6.10629C71.5197 6.25562 71.5677 6.36229 71.6424 6.42629C71.7491 6.53295 71.8824 6.59162 72.0424 6.60229C72.2131 6.60229 72.3944 6.60229 72.5864 6.60229L78.0264 6.58629C78.5491 6.58629 78.9864 6.66629 79.3384 6.82629C79.4451 6.87962 79.5357 6.97029 79.6104 7.09829C79.6851 7.21562 79.7331 7.33295 79.7544 7.45029C79.7864 7.56762 79.7864 7.68495 79.7544 7.80229C79.7331 7.90895 79.6851 8.00495 79.6104 8.09029C79.3331 8.45295 78.9384 8.63962 78.4264 8.65029C77.9464 8.67162 77.4717 8.68762 77.0024 8.69829C76.5437 8.69829 76.0691 8.69295 75.5784 8.68229L75.5944 10.8103H79.6104C79.7917 10.8316 79.9571 10.8636 80.1064 10.9063C80.2664 10.949 80.4211 11.0343 80.5704 11.1623C80.7197 11.3116 80.7944 11.4983 80.7944 11.7223C80.7944 11.8396 80.7731 11.9676 80.7304 12.1063C80.6984 12.2343 80.6504 12.3356 80.5864 12.4103C80.5011 12.4956 80.3944 12.5596 80.2664 12.6023C80.1384 12.645 80.0157 12.677 79.8984 12.6983C79.7811 12.709 79.6744 12.7143 79.5784 12.7143C79.4931 12.7143 79.4451 12.7143 79.4344 12.7143C77.9304 12.7143 76.6557 12.7143 75.6104 12.7143C74.5651 12.7143 73.7011 12.7143 73.0184 12.7143C72.3464 12.7143 71.8184 12.7143 71.4344 12.7143C71.0611 12.7036 70.7784 12.6983 70.5864 12.6983C70.4051 12.6983 70.2931 12.6983 70.2504 12.6983C70.2077 12.6983 70.1757 12.6983 70.1544 12.6983C69.9304 12.6983 69.6904 12.693 69.4344 12.6823C69.1784 12.6716 68.9597 12.5916 68.7784 12.4423C68.5544 12.2396 68.4424 12.021 68.4424 11.7863C68.4424 11.6263 68.4904 11.461 68.5864 11.2903C68.6824 11.1196 68.8104 11.0023 68.9704 10.9383C69.1837 10.853 69.4024 10.8103 69.6264 10.8103C69.8611 10.8103 70.0957 10.805 70.3304 10.7943L73.4344 10.8103Z" fill="black"/>
<path d="M88.7955 0.842286C88.9342 0.842286 89.0675 0.847619 89.1955 0.858286C89.3235 0.868953 89.4515 0.884953 89.5795 0.906286C89.9849 0.970286 90.3422 1.15695 90.6515 1.46629C90.9075 1.74362 91.1155 2.06362 91.2755 2.42629C91.4355 2.77829 91.5582 3.15162 91.6435 3.54629C91.7395 3.94095 91.8035 4.34629 91.8355 4.76229C91.8675 5.16762 91.8942 5.56229 91.9156 5.94629C91.9369 6.43695 91.9422 6.92762 91.9315 7.41829C91.9315 7.90895 91.9049 8.39429 91.8515 8.87429C91.7982 9.37562 91.7182 9.88229 91.6115 10.3943C91.5155 10.8956 91.3342 11.349 91.0675 11.7543C90.8435 12.0956 90.5715 12.3783 90.2515 12.6023C89.9422 12.8156 89.6062 12.9596 89.2435 13.0343C88.9129 13.0983 88.5769 13.109 88.2355 13.0663C87.8942 13.0236 87.5689 12.9116 87.2595 12.7303C86.9715 12.5596 86.7369 12.3463 86.5555 12.0903C86.3849 11.8343 86.2249 11.5356 86.0755 11.1943C85.8622 10.6823 85.7395 10.1543 85.7075 9.61029C85.6649 9.16229 85.6329 8.71429 85.6115 8.26629C85.6009 7.81829 85.5955 7.37029 85.5955 6.92229C85.5955 6.32495 85.6275 5.72762 85.6915 5.13029C85.7129 4.88495 85.7342 4.64495 85.7555 4.41029C85.7769 4.16495 85.8089 3.92495 85.8515 3.69029C85.8942 3.49829 85.9315 3.31695 85.9635 3.14629C85.9955 2.97562 86.0542 2.79962 86.1395 2.61829C86.2249 2.43695 86.3155 2.26629 86.4115 2.10629C86.5182 1.94629 86.6409 1.80229 86.7795 1.67429C87.2275 1.22629 87.7662 0.959619 88.3955 0.874286C88.4595 0.863619 88.5235 0.858286 88.5875 0.858286C88.6622 0.858286 88.7315 0.852953 88.7955 0.842286ZM96.7955 5.75429C96.8489 5.75429 96.8969 5.75962 96.9395 5.77029C96.9929 5.78095 97.0462 5.78629 97.0995 5.78629C97.1529 5.79695 97.2115 5.80762 97.2755 5.81829C97.3395 5.81829 97.4035 5.82362 97.4675 5.83429C97.5849 5.85562 97.7022 5.89829 97.8195 5.96229C97.9369 6.01562 98.0222 6.10095 98.0755 6.21829C98.1502 6.33562 98.1875 6.47429 98.1875 6.63429C98.1875 6.71962 98.1822 6.79962 98.1715 6.87429C98.1715 6.93829 98.1609 7.01295 98.1395 7.09829C98.1182 7.18362 98.0915 7.27429 98.0595 7.37029C98.0382 7.46629 97.9902 7.54095 97.9156 7.59429C97.7662 7.70095 97.6222 7.77029 97.4835 7.80229C97.3129 7.82362 97.1049 7.82895 96.8595 7.81829C96.6142 7.80762 96.4062 7.80762 96.2355 7.81829C96.2249 7.81829 96.2142 7.82362 96.2035 7.83429H96.1875L96.1715 7.85029V7.89829C96.1715 8.02629 96.1715 8.18095 96.1715 8.36229C96.1715 8.54362 96.1715 8.73029 96.1715 8.92229C96.1715 9.10362 96.1715 9.28495 96.1715 9.46629C96.1715 9.63695 96.1715 9.79162 96.1715 9.93029C96.1929 10.485 96.1929 11.029 96.1715 11.5623V11.7863C96.1715 11.925 96.1662 12.0796 96.1555 12.2503C96.1555 12.4103 96.1449 12.5703 96.1235 12.7303C96.1022 12.8903 96.0649 13.045 96.0115 13.1943C95.9582 13.333 95.8835 13.4503 95.7875 13.5463C95.6595 13.6956 95.4889 13.7703 95.2755 13.7703C95.2755 13.7703 95.2649 13.765 95.2435 13.7543C94.9875 13.7436 94.7795 13.669 94.6195 13.5303C94.4702 13.3916 94.3529 13.221 94.2675 13.0183C94.1929 12.8156 94.1449 12.6076 94.1235 12.3943C94.1022 12.1703 94.0915 11.973 94.0915 11.8023V2.29829C94.0915 2.28762 94.0915 2.23962 94.0915 2.15429C94.0915 2.05829 94.1022 1.95162 94.1235 1.83429C94.1449 1.70629 94.1769 1.57829 94.2195 1.45029C94.2729 1.31162 94.3422 1.19962 94.4275 1.11429C94.5022 1.03962 94.6089 0.986286 94.7475 0.954286C94.8969 0.911619 95.0302 0.890286 95.1475 0.890286C95.3822 0.890286 95.5795 0.970286 95.7395 1.13029C95.8889 1.27962 95.9742 1.43962 95.9955 1.61029C96.0275 1.77029 96.0542 1.94095 96.0755 2.12229C96.0862 2.16495 96.0915 2.22895 96.0915 2.31429C96.1129 2.49562 96.1235 2.68229 96.1235 2.87429C96.1342 3.06629 96.1449 3.25829 96.1555 3.45029C96.1555 3.56762 96.1555 3.68495 96.1555 3.80229C96.1662 3.90895 96.1715 4.02095 96.1715 4.13829C96.1609 4.20229 96.1555 4.26629 96.1555 4.33029C96.1662 4.38362 96.1715 4.43695 96.1715 4.49029V5.37029C96.1715 5.42362 96.1715 5.48229 96.1715 5.54629C96.1715 5.61029 96.1822 5.66895 96.2035 5.72229C96.2035 5.73295 96.2569 5.73829 96.3635 5.73829C96.4702 5.73829 96.5289 5.73829 96.5395 5.73829C96.6355 5.75962 96.7102 5.76495 96.7635 5.75429H96.7955ZM88.7475 10.9063C88.9502 10.9063 89.1475 10.8423 89.3395 10.7143C89.5209 10.5863 89.6489 10.4156 89.7235 10.2023C89.7982 9.98895 89.8622 9.75429 89.9155 9.49829C90.0009 9.00762 90.0489 8.48495 90.0595 7.93029C90.0702 7.37562 90.0649 6.84229 90.0435 6.33029C90.0435 6.12762 90.0382 5.91429 90.0275 5.69029C90.0169 5.45562 89.9955 5.22629 89.9635 5.00229C89.9422 4.77829 89.9049 4.56495 89.8515 4.36229C89.7982 4.14895 89.7235 3.96229 89.6275 3.80229C89.5209 3.62095 89.3929 3.48229 89.2435 3.38629C89.0942 3.29029 88.9342 3.25295 88.7635 3.27429C88.5822 3.29562 88.4115 3.35962 88.2515 3.46629C88.1022 3.57295 87.9795 3.73295 87.8835 3.94629L87.7395 4.28229C87.6755 4.48495 87.6275 4.69829 87.5955 4.92229C87.5635 5.13562 87.5369 5.34895 87.5155 5.56229C87.4942 5.77562 87.4782 5.99429 87.4675 6.21829C87.4569 6.44229 87.4515 6.66095 87.4515 6.87429C87.4622 7.08762 87.4569 7.29562 87.4355 7.49829C87.4249 7.70095 87.4302 7.90895 87.4515 8.12229C87.4729 8.39962 87.4995 8.69829 87.5315 9.01829C87.5742 9.33829 87.6382 9.64229 87.7235 9.93029C87.8195 10.2076 87.9475 10.4423 88.1075 10.6343C88.2675 10.8156 88.4809 10.9063 88.7475 10.9063Z" fill="black"/>
<path d="M108.427 11.9143C108.427 11.9143 108.47 11.925 108.555 11.9463C108.64 11.957 108.736 11.9836 108.843 12.0263C108.95 12.069 109.046 12.1276 109.131 12.2023C109.216 12.277 109.27 12.3676 109.291 12.4743C109.312 12.677 109.312 12.8583 109.291 13.0183C109.28 13.1676 109.227 13.301 109.131 13.4183C109.003 13.5676 108.859 13.6583 108.699 13.6903C108.539 13.7223 108.454 13.7383 108.443 13.7383H100.603C100.262 13.7383 99.9951 13.6956 99.8031 13.6103C99.6217 13.5356 99.4884 13.4343 99.4031 13.3063C99.3177 13.189 99.2644 13.061 99.2431 12.9223C99.2217 12.773 99.2111 12.6396 99.2111 12.5223L99.2591 9.69029C99.2804 9.46629 99.3817 9.28495 99.5631 9.14629C99.7444 9.00762 99.9577 8.93829 100.203 8.93829C100.256 8.93829 100.32 8.94362 100.395 8.95429C100.48 8.95429 100.55 8.96495 100.603 8.98629C100.742 9.02895 100.848 9.10362 100.923 9.21029C101.008 9.30629 101.072 9.41829 101.115 9.54629C101.158 9.67429 101.184 9.81295 101.195 9.96229C101.206 10.101 101.216 10.229 101.227 10.3463C101.227 10.389 101.227 10.4903 101.227 10.6503C101.227 10.8103 101.227 10.981 101.227 11.1623C101.227 11.333 101.227 11.493 101.227 11.6423C101.227 11.7916 101.227 11.8823 101.227 11.9143H108.427ZM100.251 7.77029C99.9311 7.77029 99.6697 7.73829 99.4671 7.67429C99.2644 7.59962 99.0831 7.45562 98.9231 7.24229C98.7204 6.97562 98.6191 6.67695 98.6191 6.34629C98.6191 6.12229 98.6137 5.87162 98.6031 5.59429C98.6031 5.31695 98.6031 5.03429 98.6031 4.74629C98.6031 4.45829 98.6031 4.17562 98.6031 3.89829C98.6031 3.61029 98.6084 3.35429 98.6191 3.13029C98.6297 2.85295 98.6297 2.56495 98.6191 2.26629C98.6191 1.95695 98.6884 1.67962 98.8271 1.43429C98.9017 1.29562 99.0084 1.18362 99.1471 1.09829C99.2964 1.00229 99.4457 0.943619 99.5951 0.922286C99.7551 0.900952 99.9044 0.922286 100.043 0.986286C100.192 1.03962 100.31 1.13562 100.395 1.27429C100.587 1.59429 100.678 1.93562 100.667 2.29829C100.667 2.65029 100.667 3.01295 100.667 3.38629C100.667 3.51429 100.667 3.67429 100.667 3.86629C100.667 4.04762 100.667 4.23962 100.667 4.44229C100.678 4.64495 100.683 4.84229 100.683 5.03429C100.694 5.22629 100.71 5.38629 100.731 5.51429C100.742 5.64229 100.774 5.73829 100.827 5.80229C100.88 5.85562 100.944 5.89295 101.019 5.91429C101.094 5.93562 101.179 5.94629 101.275 5.94629C101.371 5.94629 101.467 5.94629 101.563 5.94629L104.795 6.04229C105.072 6.05295 105.302 6.15962 105.483 6.36229C105.664 6.56495 105.739 6.80495 105.707 7.08229C105.675 7.32762 105.552 7.50362 105.339 7.61029C105.136 7.71695 104.891 7.77029 104.603 7.77029H100.251ZM109.211 7.78629C109.211 8.01029 109.184 8.23429 109.131 8.45829C109.078 8.67162 108.944 8.84762 108.731 8.98629C108.582 9.07162 108.432 9.11429 108.283 9.11429C108.102 9.11429 107.926 9.05562 107.755 8.93829C107.606 8.83162 107.494 8.70362 107.419 8.55429C107.344 8.40495 107.291 8.24495 107.259 8.07429C107.238 7.89295 107.227 7.70629 107.227 7.51429C107.238 7.32229 107.243 7.13562 107.243 6.95429L107.259 2.74629C107.238 2.46895 107.248 2.19162 107.291 1.91429C107.344 1.62629 107.462 1.37562 107.643 1.16229C107.728 1.05562 107.846 0.980953 107.995 0.938286C108.155 0.884953 108.326 0.868953 108.507 0.890286C108.71 0.922286 108.859 0.991619 108.955 1.09829C109.062 1.20495 109.131 1.32762 109.163 1.46629C109.206 1.60495 109.222 1.75429 109.211 1.91429C109.211 2.07429 109.211 2.21829 109.211 2.34629V7.78629Z" fill="black"/>
<path d="M119.389 11.6423C119.389 11.909 119.378 12.1223 119.357 12.2823C119.346 12.4423 119.298 12.645 119.213 12.8903C119.16 13.0503 119.069 13.1836 118.941 13.2903C118.813 13.397 118.632 13.4503 118.397 13.4503C118.333 13.4503 118.248 13.4396 118.141 13.4183C118.045 13.4076 117.97 13.381 117.917 13.3383C117.81 13.2743 117.725 13.173 117.661 13.0343C117.608 12.885 117.565 12.7303 117.533 12.5703C117.501 12.4103 117.48 12.2556 117.469 12.1063C117.469 11.957 117.469 11.8396 117.469 11.7543V7.80229L115.773 7.75429C115.677 7.75429 115.576 7.74362 115.469 7.72229C115.373 7.69029 115.277 7.64229 115.181 7.57829C115.096 7.51429 115.021 7.42895 114.957 7.32229C114.893 7.21562 114.856 7.08229 114.845 6.92229C114.824 6.73029 114.834 6.52762 114.877 6.31429C114.93 6.09029 115.08 5.91962 115.325 5.80229C115.421 5.74895 115.538 5.71695 115.677 5.70629C115.826 5.69562 115.954 5.69562 116.061 5.70629H117.469V2.47429C117.469 2.33562 117.469 2.19695 117.469 2.05829C117.469 1.90895 117.485 1.76495 117.517 1.62629C117.538 1.57295 117.554 1.52495 117.565 1.48229C117.586 1.43962 117.608 1.39162 117.629 1.33829C117.693 1.23162 117.757 1.15162 117.821 1.09829C117.896 1.03429 117.992 0.980953 118.109 0.938286C118.162 0.916953 118.216 0.906286 118.269 0.906286C118.333 0.895619 118.392 0.890286 118.445 0.890286C118.797 0.890286 119.064 1.05029 119.245 1.37029C119.288 1.43429 119.314 1.52495 119.325 1.64229C119.346 1.75962 119.362 1.88229 119.373 2.01029C119.384 2.12762 119.389 2.23429 119.389 2.33029C119.389 2.41562 119.389 2.46895 119.389 2.49029V11.6423ZM122.173 13.1623C122.141 13.237 122.109 13.301 122.077 13.3543C122.056 13.4076 122.008 13.461 121.933 13.5143C121.816 13.589 121.688 13.6316 121.549 13.6423C121.41 13.6636 121.272 13.6583 121.133 13.6263C120.973 13.5943 120.845 13.525 120.749 13.4183C120.664 13.3223 120.594 13.2103 120.541 13.0823C120.498 12.9543 120.472 12.8156 120.461 12.6663C120.45 12.517 120.445 12.373 120.445 12.2343V2.65029C120.445 2.53295 120.445 2.39962 120.445 2.25029C120.445 2.09029 120.456 1.94095 120.477 1.80229C120.498 1.65295 120.525 1.51429 120.557 1.38629C120.6 1.25829 120.658 1.15695 120.733 1.08229C120.85 0.975619 120.957 0.911619 121.053 0.890286C121.16 0.858286 121.288 0.842286 121.437 0.842286C121.618 0.842286 121.773 0.89562 121.901 1.00229C122.029 1.09829 122.125 1.23162 122.189 1.40229C122.285 1.62629 122.338 1.85562 122.349 2.09029C122.36 2.32495 122.37 2.56495 122.381 2.81029V2.89029C122.402 3.70095 122.408 4.47962 122.397 5.22629C122.386 5.97295 122.381 6.72495 122.381 7.48229V11.6423C122.381 11.9196 122.37 12.1863 122.349 12.4423C122.338 12.6983 122.28 12.9383 122.173 13.1623ZM116.493 11.1303C116.557 11.1516 116.61 11.1836 116.653 11.2263C116.706 11.269 116.76 11.317 116.813 11.3703C116.941 11.4556 117.005 11.5943 117.005 11.7863C117.026 11.861 117.026 11.941 117.005 12.0263C116.994 12.101 116.978 12.165 116.957 12.2183C116.904 12.3036 116.856 12.373 116.813 12.4263C116.77 12.469 116.722 12.5116 116.669 12.5543C116.605 12.5756 116.536 12.6076 116.461 12.6503C116.386 12.6823 116.301 12.6983 116.205 12.6983C116.13 12.7196 116.05 12.741 115.965 12.7623C115.88 12.7836 115.8 12.7943 115.725 12.7943H113.373C113.277 12.7943 113.17 12.789 113.053 12.7783C112.946 12.757 112.834 12.7463 112.717 12.7463C112.621 12.7463 112.514 12.7356 112.397 12.7143C112.28 12.693 112.178 12.6716 112.093 12.6503C111.88 12.597 111.688 12.5063 111.517 12.3783C111.442 12.325 111.373 12.261 111.309 12.1863C111.256 12.101 111.202 11.9996 111.149 11.8823C111.053 11.7863 111.005 11.6636 111.005 11.5143C110.984 11.4183 110.968 11.333 110.957 11.2583C110.946 11.1836 110.93 11.109 110.909 11.0343V3.30629C110.888 3.24229 110.872 3.16762 110.861 3.08229C110.861 2.98629 110.861 2.89029 110.861 2.79429C110.882 2.71962 110.898 2.63429 110.909 2.53829C110.92 2.44229 110.936 2.35162 110.957 2.26629C110.957 2.09562 111.005 1.93562 111.101 1.78629C111.154 1.73295 111.202 1.68495 111.245 1.64229C111.298 1.59962 111.357 1.56762 111.421 1.54629C111.56 1.45029 111.704 1.40229 111.853 1.40229C111.928 1.38095 111.992 1.37029 112.045 1.37029C112.098 1.35962 112.157 1.34362 112.221 1.32229H115.197C115.272 1.34362 115.352 1.35962 115.437 1.37029C115.533 1.37029 115.618 1.38095 115.693 1.40229C115.885 1.40229 116.056 1.45029 116.205 1.54629C116.376 1.63162 116.488 1.75962 116.541 1.93029C116.562 2.00495 116.578 2.07962 116.589 2.15429C116.61 2.22895 116.61 2.30895 116.589 2.39429C116.589 2.50095 116.584 2.58095 116.573 2.63429C116.573 2.68762 116.562 2.74095 116.541 2.79429C116.456 2.91162 116.312 3.02362 116.109 3.13029C116.034 3.13029 115.917 3.14095 115.757 3.16229C115.608 3.17295 115.421 3.17829 115.197 3.17829H113.565C113.416 3.17829 113.288 3.20495 113.181 3.25829C113.138 3.25829 113.096 3.30629 113.053 3.40229C113.032 3.45562 113.01 3.50362 112.989 3.54629C112.968 3.58895 112.957 3.63695 112.957 3.69029V4.29829L113.005 10.1863C113.005 10.3356 113.005 10.4583 113.005 10.5543C113.016 10.6396 113.048 10.7036 113.101 10.7463C113.176 10.8423 113.314 10.8903 113.517 10.8903H114.109C114.226 10.8903 114.344 10.901 114.461 10.9223C114.589 10.933 114.722 10.9383 114.861 10.9383H115.645C115.709 10.9383 115.773 10.9436 115.837 10.9543C115.912 10.9543 115.986 10.965 116.061 10.9863C116.2 10.9863 116.344 11.0343 116.493 11.1303Z" fill="black"/>
<path d="M133.067 1.29029C133.376 1.47162 133.643 1.66895 133.867 1.88229C134.102 2.09562 134.283 2.34629 134.411 2.63429C134.688 3.26362 134.79 3.96762 134.715 4.74629C134.683 5.79162 134.384 6.57029 133.819 7.08229C133.318 7.58362 132.518 7.83429 131.419 7.83429C131.27 7.83429 131.131 7.83962 131.003 7.85029C130.875 7.85029 130.758 7.86095 130.651 7.88229C130.534 7.88229 130.416 7.87695 130.299 7.86629C130.192 7.84495 130.086 7.83429 129.979 7.83429C129.872 7.81295 129.766 7.79162 129.659 7.77029C129.552 7.74895 129.446 7.71695 129.339 7.67429C129.104 7.58895 128.87 7.46629 128.635 7.30629C128.112 6.97562 127.771 6.54895 127.611 6.02629C127.44 5.54629 127.355 5.00762 127.355 4.41029C127.355 4.14362 127.376 3.87695 127.419 3.61029C127.462 3.34362 127.536 3.09295 127.643 2.85829C127.728 2.60229 127.851 2.37829 128.011 2.18629C128.182 1.98362 128.39 1.78095 128.635 1.57829C128.976 1.29029 129.382 1.08762 129.851 0.970286C130.064 0.895619 130.283 0.847619 130.507 0.826285C130.742 0.804952 130.971 0.804952 131.195 0.826285C131.312 0.826285 131.414 0.836952 131.499 0.858286C131.584 0.868953 131.67 0.874286 131.755 0.874286C131.904 0.874286 132.043 0.906286 132.171 0.970286C132.235 0.991619 132.304 1.01295 132.379 1.03429C132.464 1.04495 132.534 1.06095 132.587 1.08229C132.651 1.10362 132.726 1.13562 132.811 1.17829C132.896 1.21029 132.982 1.24762 133.067 1.29029ZM128.331 11.3223C128.331 11.077 128.363 10.8636 128.427 10.6823C128.491 10.4903 128.587 10.309 128.715 10.1383C128.864 9.98895 129.024 9.85562 129.195 9.73829C129.366 9.61029 129.574 9.49829 129.819 9.40229C130.043 9.29562 130.294 9.21562 130.571 9.16229C130.848 9.09829 131.147 9.03962 131.467 8.98629C131.776 8.96495 132.096 8.94895 132.427 8.93829C132.768 8.91695 133.126 8.90629 133.499 8.90629C133.851 8.90629 134.198 8.91695 134.539 8.93829C134.88 8.94895 135.206 8.96495 135.515 8.98629C135.835 9.00762 136.128 9.05029 136.395 9.11429C136.672 9.16762 136.928 9.23695 137.163 9.32229C137.387 9.40762 137.59 9.51429 137.771 9.64229C137.952 9.75962 138.118 9.89295 138.267 10.0423C138.512 10.3196 138.635 10.7463 138.635 11.3223C138.635 11.845 138.512 12.2663 138.267 12.5863C137.958 12.8956 137.59 13.1356 137.163 13.3063C136.928 13.3916 136.672 13.461 136.395 13.5143C136.128 13.5783 135.835 13.621 135.515 13.6423C135.206 13.6636 134.88 13.6796 134.539 13.6903C134.198 13.7116 133.851 13.7223 133.499 13.7223C133.126 13.7223 132.768 13.7116 132.427 13.6903C132.096 13.6796 131.776 13.6636 131.467 13.6423C131.147 13.621 130.848 13.5783 130.571 13.5143C130.294 13.461 130.043 13.3916 129.819 13.3063C129.574 13.221 129.366 13.1196 129.195 13.0023C129.024 12.8743 128.864 12.7356 128.715 12.5863C128.459 12.2556 128.331 11.8343 128.331 11.3223ZM132.843 4.93829C132.843 4.82095 132.843 4.70895 132.843 4.60229C132.843 4.48495 132.832 4.38362 132.811 4.29829C132.811 4.18095 132.795 4.07429 132.763 3.97829C132.742 3.88229 132.71 3.79162 132.667 3.70629C132.646 3.62095 132.608 3.54629 132.555 3.48229C132.502 3.40762 132.443 3.32762 132.379 3.24229C132.251 3.11429 132.07 3.01295 131.835 2.93829C131.611 2.85295 131.355 2.81029 131.067 2.81029C130.918 2.81029 130.779 2.82095 130.651 2.84229C130.523 2.86362 130.395 2.89562 130.267 2.93829C130.15 2.98095 130.032 3.04495 129.915 3.13029C129.808 3.21562 129.696 3.31162 129.579 3.41829C129.419 3.63162 129.307 3.89829 129.243 4.21829C129.211 4.41029 129.211 4.62362 129.243 4.85829C129.275 4.97562 129.312 5.08762 129.355 5.19429C129.398 5.30095 129.446 5.39695 129.499 5.48229C129.542 5.56762 129.606 5.65295 129.691 5.73829C129.776 5.81295 129.872 5.88229 129.979 5.94629C130.107 5.99962 130.235 6.04762 130.363 6.09029C130.502 6.13295 130.656 6.15429 130.827 6.15429C131.03 6.18629 131.243 6.18629 131.467 6.15429C131.574 6.15429 131.675 6.13829 131.771 6.10629C131.878 6.06362 131.984 6.02095 132.091 5.97829C132.176 5.93562 132.256 5.88229 132.331 5.81829C132.416 5.75429 132.491 5.66895 132.555 5.56229C132.608 5.47695 132.662 5.38629 132.715 5.29029C132.779 5.18362 132.822 5.06629 132.843 4.93829ZM136.571 11.3223C136.571 11.237 136.55 11.157 136.507 11.0823C136.464 10.997 136.39 10.933 136.283 10.8903C136.187 10.8476 136.075 10.805 135.947 10.7623C135.83 10.7196 135.696 10.677 135.547 10.6343C135.398 10.613 135.248 10.597 135.099 10.5863C134.95 10.565 134.784 10.5543 134.603 10.5543C134.4 10.5543 134.208 10.549 134.027 10.5383C133.856 10.517 133.68 10.5063 133.499 10.5063C133.296 10.5063 133.104 10.517 132.923 10.5383C132.752 10.549 132.587 10.5543 132.427 10.5543C132.235 10.5543 132.064 10.565 131.915 10.5863C131.766 10.597 131.616 10.613 131.467 10.6343C131.318 10.677 131.184 10.7196 131.067 10.7623C130.95 10.805 130.843 10.8476 130.747 10.8903C130.662 10.933 130.598 10.997 130.555 11.0823C130.512 11.157 130.491 11.237 130.491 11.3223C130.491 11.493 130.576 11.6156 130.747 11.6903C130.928 11.829 131.168 11.9143 131.467 11.9463C131.616 11.9676 131.766 11.989 131.915 12.0103C132.064 12.021 132.235 12.0263 132.427 12.0263C132.587 12.0476 132.752 12.0636 132.923 12.0743C133.104 12.0743 133.296 12.0743 133.499 12.0743H134.603C134.784 12.0743 134.95 12.0743 135.099 12.0743C135.248 12.0636 135.398 12.0476 135.547 12.0263C135.856 11.9943 136.102 11.909 136.283 11.7703C136.475 11.6956 136.571 11.5463 136.571 11.3223ZM138.523 2.52229H139.099C139.163 2.52229 139.227 2.52229 139.291 2.52229C139.355 2.52229 139.408 2.53295 139.451 2.55429H139.707C139.91 2.60762 140.064 2.68229 140.171 2.77829C140.214 2.79962 140.24 2.83695 140.251 2.89029C140.272 2.94362 140.283 3.00229 140.283 3.06629C140.304 3.10895 140.315 3.16762 140.315 3.24229C140.326 3.30629 140.331 3.38095 140.331 3.46629C140.331 3.55162 140.326 3.62095 140.315 3.67429C140.315 3.72762 140.294 3.78095 140.251 3.83429C140.176 3.94095 140.096 4.02629 140.011 4.09029C139.926 4.14362 139.824 4.17029 139.707 4.17029C139.579 4.19162 139.44 4.20762 139.291 4.21829C139.152 4.21829 139.008 4.22895 138.859 4.25029H138.523V5.19429H139.707C139.888 5.24762 140.022 5.31695 140.107 5.40229C140.16 5.42362 140.198 5.46095 140.219 5.51429C140.24 5.55695 140.262 5.59962 140.283 5.64229C140.283 5.70629 140.288 5.77029 140.299 5.83429C140.32 5.89829 140.331 5.97295 140.331 6.05829C140.331 6.14362 140.326 6.21829 140.315 6.28229C140.315 6.34629 140.294 6.40495 140.251 6.45829C140.102 6.67162 139.92 6.79429 139.707 6.82629C139.579 6.82629 139.44 6.83695 139.291 6.85829C139.152 6.86895 139.008 6.87429 138.859 6.87429H138.523V7.08229C138.502 7.14629 138.486 7.20495 138.475 7.25829C138.475 7.31162 138.475 7.36495 138.475 7.41829C138.454 7.48229 138.432 7.54629 138.411 7.61029C138.39 7.67429 138.368 7.73829 138.347 7.80229C138.304 7.85562 138.262 7.90895 138.219 7.96229C138.176 8.01562 138.123 8.06362 138.059 8.10629C137.995 8.14895 137.92 8.18629 137.835 8.21829C137.75 8.25029 137.648 8.26629 137.531 8.26629C137.446 8.26629 137.366 8.26095 137.291 8.25029C137.216 8.22895 137.158 8.19695 137.115 8.15429C136.987 8.10095 136.902 8.02095 136.859 7.91429C136.816 7.86095 136.784 7.81295 136.763 7.77029C136.742 7.72762 136.72 7.68495 136.699 7.64229C136.678 7.58895 136.662 7.53562 136.651 7.48229C136.651 7.41829 136.635 7.35962 136.603 7.30629V2.13829C136.603 2.11695 136.603 2.07962 136.603 2.02629C136.614 1.96229 136.635 1.87695 136.667 1.77029C136.667 1.56762 136.704 1.40762 136.779 1.29029C136.822 1.18362 136.891 1.10362 136.987 1.05029C137.094 0.986286 137.222 0.938286 137.371 0.906286C137.584 0.884953 137.76 0.900952 137.899 0.954286C138.038 0.996952 138.16 1.06629 138.267 1.16229C138.31 1.26895 138.352 1.33829 138.395 1.37029C138.416 1.39162 138.427 1.42362 138.427 1.46629C138.438 1.49829 138.454 1.53562 138.475 1.57829C138.475 1.63162 138.48 1.67962 138.491 1.72229C138.512 1.75429 138.523 1.78095 138.523 1.80229V2.52229Z" fill="black"/>
<path d="M146.566 4.63429L145.702 5.49829C145.467 5.72229 145.233 5.94095 144.998 6.15429C144.763 6.36762 144.523 6.58095 144.278 6.79429C144.257 6.81562 144.235 6.83695 144.214 6.85829C144.193 6.86895 144.171 6.88495 144.15 6.90629C143.947 7.08762 143.745 7.27962 143.542 7.48229C143.35 7.68495 143.115 7.82895 142.838 7.91429C142.646 7.96762 142.438 7.96229 142.214 7.89829C141.99 7.83429 141.819 7.72229 141.702 7.56229C141.617 7.43429 141.574 7.30629 141.574 7.17829C141.574 7.05029 141.595 6.92762 141.638 6.81029C141.691 6.68229 141.755 6.55962 141.83 6.44229C141.905 6.32495 141.985 6.21829 142.07 6.12229C142.39 5.74895 142.721 5.39695 143.062 5.06629C143.414 4.72495 143.771 4.39429 144.134 4.07429C144.251 3.97829 144.385 3.85029 144.534 3.69029C144.683 3.51962 144.827 3.35429 144.966 3.19429C145.126 3.00229 145.291 2.81029 145.462 2.61829C145.441 2.37295 145.435 2.13829 145.446 1.91429C145.457 1.72229 145.483 1.53029 145.526 1.33829C145.569 1.14629 145.649 0.991619 145.766 0.874286C145.905 0.746286 146.102 0.666286 146.358 0.634286C146.614 0.591619 146.827 0.596953 146.998 0.650286C147.243 0.724953 147.414 0.852953 147.51 1.03429C147.617 1.21562 147.686 1.42895 147.718 1.67429C147.729 1.87695 147.729 2.05295 147.718 2.20229C147.718 2.34095 147.777 2.49562 147.894 2.66629C147.979 2.79429 148.075 2.91695 148.182 3.03429C148.299 3.15162 148.411 3.26895 148.518 3.38629C148.891 3.80229 149.254 4.20229 149.606 4.58629C149.969 4.97029 150.342 5.36495 150.726 5.77029C150.854 5.89829 150.977 6.05829 151.094 6.25029C151.211 6.44229 151.291 6.63962 151.334 6.84229C151.387 7.03429 151.382 7.22095 151.318 7.40229C151.265 7.57295 151.126 7.71162 150.902 7.81829C150.742 7.89295 150.587 7.92495 150.438 7.91429C150.289 7.89295 150.145 7.85029 150.006 7.78629C149.867 7.71162 149.734 7.62095 149.606 7.51429C149.489 7.40762 149.382 7.30095 149.286 7.19429L146.566 4.63429ZM141.942 10.8423C141.697 10.8316 141.462 10.7996 141.238 10.7463C141.025 10.6823 140.849 10.5436 140.71 10.3303C140.593 10.149 140.534 9.95695 140.534 9.75429C140.545 9.54095 140.625 9.35962 140.774 9.21029C140.859 9.12495 140.966 9.06095 141.094 9.01829C141.222 8.97562 141.345 8.94362 141.462 8.92229C141.579 8.90095 141.681 8.89029 141.766 8.89029C141.862 8.89029 141.915 8.89029 141.926 8.89029H150.806C150.977 8.87962 151.158 8.87962 151.35 8.89029C151.553 8.90095 151.739 8.93829 151.91 9.00229C152.081 9.05562 152.225 9.15162 152.342 9.29029C152.459 9.41829 152.518 9.59962 152.518 9.83429C152.518 10.101 152.427 10.3036 152.246 10.4423C152.065 10.5703 151.846 10.6663 151.59 10.7303C151.345 10.7836 151.089 10.8156 150.822 10.8263C150.555 10.8263 150.337 10.8263 150.166 10.8263H149.542C149.329 10.837 149.121 10.8423 148.918 10.8423C148.715 10.8316 148.507 10.8263 148.294 10.8263H147.686C147.697 11.125 147.707 11.4396 147.718 11.7703C147.729 12.101 147.713 12.3943 147.67 12.6503C147.649 12.853 147.595 13.045 147.51 13.2263C147.435 13.4183 147.307 13.573 147.126 13.6903C146.966 13.797 146.779 13.8503 146.566 13.8503C146.353 13.861 146.161 13.8183 145.99 13.7223C145.851 13.637 145.745 13.5143 145.67 13.3543C145.606 13.1943 145.563 13.0396 145.542 12.8903C145.521 12.773 145.51 12.645 145.51 12.5063C145.521 12.3676 145.526 12.2396 145.526 12.1223C145.515 11.9303 145.51 11.7223 145.51 11.4983C145.51 11.2636 145.51 11.0343 145.51 10.8103H145.11C144.811 10.8103 144.534 10.8156 144.278 10.8263C144.022 10.8263 143.771 10.8316 143.526 10.8423C143.281 10.8423 143.03 10.8423 142.774 10.8423C142.518 10.8423 142.241 10.8423 141.942 10.8423Z" fill="black"/>
<path d="M157.269 10.9383C157.259 10.8103 157.253 10.6823 157.253 10.5543C157.253 10.4263 157.253 10.2983 157.253 10.1703V5.08229C157.253 4.91162 157.253 4.74095 157.253 4.57029C157.253 4.39962 157.243 4.22362 157.221 4.04229C157.211 3.98895 157.195 3.91429 157.173 3.81829C157.163 3.72229 157.131 3.66362 157.077 3.64229C157.024 3.61029 156.96 3.59962 156.885 3.61029C156.821 3.61029 156.757 3.60495 156.693 3.59429C156.619 3.58362 156.544 3.58362 156.469 3.59429C156.405 3.60495 156.336 3.60495 156.261 3.59429H155.509C155.328 3.60495 155.147 3.60495 154.965 3.59429C154.784 3.58362 154.603 3.58362 154.421 3.59429C154.336 3.60495 154.256 3.61029 154.181 3.61029C154.117 3.59962 154.043 3.59429 153.957 3.59429C153.84 3.59429 153.717 3.58895 153.589 3.57829C153.461 3.56762 153.344 3.52495 153.237 3.45029C153.088 3.34362 152.987 3.21029 152.933 3.05029C152.88 2.89029 152.853 2.72495 152.853 2.55429C152.843 2.35162 152.885 2.14895 152.981 1.94629C153.035 1.81829 153.104 1.72762 153.189 1.67429C153.243 1.62095 153.317 1.57829 153.413 1.54629C153.52 1.50362 153.611 1.47162 153.685 1.45029C153.909 1.39695 154.144 1.37029 154.389 1.37029C154.635 1.35962 154.875 1.35429 155.109 1.35429H157.893C158.032 1.37562 158.176 1.39695 158.325 1.41829C158.485 1.42895 158.629 1.46095 158.757 1.51429C158.843 1.54629 158.923 1.58895 158.997 1.64229C159.083 1.69562 159.152 1.75962 159.205 1.83429C159.301 1.98362 159.355 2.13295 159.365 2.28229C159.387 2.43162 159.408 2.59695 159.429 2.77829C159.451 3.07695 159.461 3.37562 159.461 3.67429C159.461 3.96229 159.461 4.25562 159.461 4.55429V9.80229C159.461 9.81295 159.461 9.89829 159.461 10.0583C159.472 10.2076 159.477 10.389 159.477 10.6023C159.477 10.805 159.477 11.0236 159.477 11.2583C159.477 11.4823 159.472 11.6796 159.461 11.8503C159.451 11.957 159.435 12.069 159.413 12.1863C159.392 12.3036 159.355 12.4156 159.301 12.5223C159.259 12.629 159.195 12.725 159.109 12.8103C159.024 12.8956 158.912 12.965 158.773 13.0183C158.592 13.093 158.411 13.1303 158.229 13.1303C158.091 13.1303 157.952 13.1036 157.813 13.0503C157.675 12.9863 157.579 12.8956 157.525 12.7783C157.355 12.437 157.269 12.0583 157.269 11.6423V10.9383ZM164.037 5.75429C164.187 5.76495 164.341 5.77562 164.501 5.78629C164.661 5.78629 164.816 5.79162 164.965 5.80229C165.019 5.80229 165.077 5.80762 165.141 5.81829C165.205 5.82895 165.269 5.83962 165.333 5.85029C165.547 5.89295 165.717 5.98362 165.845 6.12229C165.984 6.25029 166.053 6.42629 166.053 6.65029C166.053 6.79962 166.037 6.97029 166.005 7.16229C165.984 7.35429 165.904 7.50362 165.765 7.61029C165.701 7.66362 165.637 7.70629 165.573 7.73829C165.509 7.77029 165.435 7.79695 165.349 7.81829C165.179 7.83962 164.971 7.84495 164.725 7.83429C164.48 7.82362 164.272 7.82362 164.101 7.83429C164.059 7.83429 164.037 7.86095 164.037 7.91429C164.037 8.04229 164.037 8.19695 164.037 8.37829C164.037 8.54895 164.037 8.73029 164.037 8.92229C164.037 9.10362 164.037 9.28495 164.037 9.46629C164.037 9.63695 164.037 9.79162 164.037 9.93029C164.059 10.485 164.059 11.029 164.037 11.5623V11.7863C164.037 11.925 164.032 12.0796 164.021 12.2503C164.021 12.4103 164.011 12.5703 163.989 12.7303C163.968 12.8903 163.931 13.045 163.877 13.1943C163.824 13.333 163.749 13.4503 163.653 13.5463C163.525 13.6956 163.355 13.7703 163.141 13.7703C163.141 13.7703 163.131 13.765 163.109 13.7543C162.853 13.7436 162.645 13.669 162.485 13.5303C162.336 13.3916 162.219 13.221 162.133 13.0183C162.059 12.8156 162.011 12.6076 161.989 12.3943C161.968 12.1703 161.957 11.973 161.957 11.8023V2.29829C161.957 2.28762 161.957 2.23962 161.957 2.15429C161.957 2.05829 161.968 1.95162 161.989 1.83429C162.011 1.70629 162.043 1.57829 162.085 1.45029C162.139 1.31162 162.208 1.19962 162.293 1.11429C162.368 1.03962 162.475 0.986286 162.613 0.954286C162.763 0.911619 162.896 0.890286 163.013 0.890286C163.248 0.890286 163.445 0.970286 163.605 1.13029C163.755 1.27962 163.84 1.43962 163.861 1.61029C163.893 1.77029 163.92 1.94095 163.941 2.12229C163.952 2.16495 163.957 2.22895 163.957 2.31429C163.979 2.49562 163.989 2.68229 163.989 2.87429C164 3.06629 164.011 3.25829 164.021 3.45029C164.021 3.53562 164.021 3.60495 164.021 3.65829C164.021 3.71162 164.021 3.79695 164.021 3.91429C164.032 4.02095 164.037 4.18629 164.037 4.41029C164.037 4.63429 164.037 4.95962 164.037 5.38629V5.75429Z" fill="black"/>
<path d="M172.943 9.35429C172.943 9.50362 172.938 9.65295 172.927 9.80229C172.917 9.94095 172.917 10.085 172.927 10.2343C172.927 10.309 172.933 10.3836 172.943 10.4583C172.954 10.533 172.986 10.597 173.039 10.6503C173.103 10.7036 173.178 10.7356 173.263 10.7463C173.359 10.7463 173.45 10.7463 173.535 10.7463C173.653 10.7463 173.775 10.7516 173.903 10.7623C174.031 10.7623 174.154 10.7623 174.271 10.7623C174.41 10.7623 174.575 10.7623 174.767 10.7623C174.959 10.7623 175.151 10.7623 175.343 10.7623C175.546 10.7623 175.743 10.7676 175.935 10.7783C176.127 10.789 176.287 10.7996 176.415 10.8103C176.597 10.8316 176.783 10.8636 176.975 10.9063C177.178 10.9383 177.359 11.0076 177.519 11.1143C177.605 11.1676 177.663 11.2423 177.695 11.3383C177.738 11.4236 177.765 11.5143 177.775 11.6103C177.786 11.6636 177.791 11.717 177.791 11.7703C177.791 11.813 177.791 11.861 177.791 11.9143C177.77 12.1703 177.685 12.3836 177.535 12.5543C177.386 12.7143 177.189 12.821 176.943 12.8743C176.794 12.8956 176.645 12.917 176.495 12.9383C176.357 12.9596 176.213 12.9703 176.063 12.9703C176.01 12.9703 175.925 12.9703 175.807 12.9703C175.69 12.9703 175.562 12.9703 175.423 12.9703C175.285 12.9596 175.157 12.9543 175.039 12.9543C174.922 12.9543 174.842 12.9543 174.799 12.9543H173.327C173.114 12.9543 172.906 12.9436 172.703 12.9223C172.511 12.901 172.309 12.885 172.095 12.8743C171.935 12.8636 171.77 12.837 171.599 12.7943C171.429 12.741 171.285 12.6556 171.167 12.5383C171.05 12.421 170.959 12.293 170.895 12.1543C170.842 12.0156 170.799 11.8716 170.767 11.7223C170.703 11.381 170.677 11.029 170.687 10.6663C170.698 10.3036 170.703 9.94629 170.703 9.59429V5.67429C170.703 5.49295 170.703 5.30629 170.703 5.11429C170.714 4.92229 170.714 4.73029 170.703 4.53829C170.703 4.52762 170.698 4.44762 170.687 4.29829C170.687 4.13829 170.687 3.95162 170.687 3.73829C170.687 3.51429 170.687 3.29029 170.687 3.06629C170.687 2.83162 170.693 2.62362 170.703 2.44229C170.714 2.22895 170.762 2.01029 170.847 1.78629C170.933 1.55162 171.114 1.37562 171.391 1.25829C171.509 1.21562 171.631 1.18362 171.759 1.16229C171.887 1.14095 172.015 1.14629 172.143 1.17829C172.271 1.21029 172.389 1.26895 172.495 1.35429C172.613 1.42895 172.698 1.53562 172.751 1.67429C172.815 1.82362 172.858 1.98362 172.879 2.15429C172.911 2.31429 172.927 2.48495 172.927 2.66629C172.927 2.78362 172.927 2.90095 172.927 3.01829C172.927 3.13562 172.933 3.25295 172.943 3.37029V9.35429ZM181.487 5.75429C181.541 5.75429 181.589 5.75962 181.631 5.77029C181.685 5.78095 181.738 5.78629 181.791 5.78629C181.845 5.79695 181.903 5.80762 181.967 5.81829C182.031 5.81829 182.095 5.82362 182.159 5.83429C182.277 5.85562 182.394 5.89829 182.511 5.96229C182.629 6.01562 182.714 6.10095 182.767 6.21829C182.842 6.33562 182.879 6.47429 182.879 6.63429C182.879 6.71962 182.874 6.79962 182.863 6.87429C182.863 6.93829 182.853 7.01295 182.831 7.09829C182.81 7.18362 182.783 7.27429 182.751 7.37029C182.73 7.46629 182.682 7.54095 182.607 7.59429C182.458 7.70095 182.314 7.77029 182.175 7.80229C182.005 7.82362 181.797 7.82895 181.551 7.81829C181.306 7.80762 181.098 7.80762 180.927 7.81829C180.917 7.81829 180.906 7.82362 180.895 7.83429H180.879L180.863 7.85029V7.89829C180.863 8.02629 180.863 8.18095 180.863 8.36229C180.863 8.54362 180.863 8.73029 180.863 8.92229C180.863 9.10362 180.863 9.28495 180.863 9.46629C180.863 9.63695 180.863 9.79162 180.863 9.93029C180.885 10.485 180.885 11.029 180.863 11.5623V11.7863C180.863 11.925 180.858 12.0796 180.847 12.2503C180.847 12.4103 180.837 12.5703 180.815 12.7303C180.794 12.8903 180.757 13.045 180.703 13.1943C180.65 13.333 180.575 13.4503 180.479 13.5463C180.351 13.6956 180.181 13.7703 179.967 13.7703C179.967 13.7703 179.957 13.765 179.935 13.7543C179.679 13.7436 179.471 13.669 179.311 13.5303C179.162 13.3916 179.045 13.221 178.959 13.0183C178.885 12.8156 178.837 12.6076 178.815 12.3943C178.794 12.1703 178.783 11.973 178.783 11.8023V2.29829C178.783 2.28762 178.783 2.23962 178.783 2.15429C178.783 2.05829 178.794 1.95162 178.815 1.83429C178.837 1.70629 178.869 1.57829 178.911 1.45029C178.965 1.31162 179.034 1.19962 179.119 1.11429C179.194 1.03962 179.301 0.986286 179.439 0.954286C179.589 0.911619 179.722 0.890286 179.839 0.890286C180.074 0.890286 180.271 0.970286 180.431 1.13029C180.581 1.27962 180.666 1.43962 180.687 1.61029C180.719 1.77029 180.746 1.94095 180.767 2.12229C180.778 2.16495 180.783 2.22895 180.783 2.31429C180.805 2.49562 180.815 2.68229 180.815 2.87429C180.826 3.06629 180.837 3.25829 180.847 3.45029C180.847 3.56762 180.847 3.68495 180.847 3.80229C180.858 3.90895 180.863 4.02095 180.863 4.13829C180.853 4.20229 180.847 4.26629 180.847 4.33029C180.858 4.38362 180.863 4.43695 180.863 4.49029V5.37029C180.863 5.42362 180.863 5.48229 180.863 5.54629C180.863 5.61029 180.874 5.66895 180.895 5.72229C180.895 5.73295 180.949 5.73829 181.055 5.73829C181.162 5.73829 181.221 5.73829 181.231 5.73829C181.327 5.75962 181.402 5.76495 181.455 5.75429H181.487Z" fill="black"/>
<path d="M193.423 7.17829C193.604 7.18895 193.786 7.21562 193.967 7.25829C194.159 7.30095 194.33 7.38095 194.479 7.49829C194.628 7.61562 194.703 7.78095 194.703 7.99429C194.703 8.10095 194.682 8.21829 194.639 8.34629C194.607 8.47429 194.559 8.56495 194.495 8.61829C194.41 8.70362 194.298 8.76762 194.159 8.81029C194.031 8.84229 193.903 8.86895 193.775 8.89029C193.647 8.90095 193.535 8.90629 193.439 8.90629C193.354 8.90629 193.306 8.90629 193.295 8.90629L184.767 8.92229C184.522 8.93295 184.266 8.93295 183.999 8.92229C183.743 8.91162 183.524 8.83162 183.343 8.68229C183.098 8.50095 182.975 8.29295 182.975 8.05829C182.975 7.90895 183.023 7.75962 183.119 7.61029C183.226 7.45029 183.364 7.34362 183.535 7.29029C183.759 7.21562 183.988 7.18362 184.223 7.19429C184.458 7.19429 184.698 7.18895 184.943 7.17829C185.199 7.16762 185.417 7.16229 185.599 7.16229C185.791 7.16229 185.972 7.16229 186.143 7.16229C186.324 7.16229 186.511 7.16762 186.703 7.17829C186.895 7.17829 187.124 7.17829 187.391 7.17829V5.97829C186.058 5.90362 185.05 5.67429 184.367 5.29029C183.684 4.90629 183.343 4.29829 183.343 3.46629C183.343 2.59162 183.802 1.95162 184.719 1.54629C185.636 1.14095 186.991 0.932953 188.783 0.922286C189.594 0.922286 190.335 0.964953 191.007 1.05029C191.679 1.13562 192.255 1.27962 192.735 1.48229C193.215 1.67429 193.583 1.93562 193.839 2.26629C194.106 2.58629 194.239 2.98629 194.239 3.46629C194.239 4.35162 193.855 4.98629 193.087 5.37029C192.33 5.74362 191.178 5.95695 189.631 6.01029C189.642 6.20229 189.647 6.41562 189.647 6.65029C189.658 6.87429 189.663 7.05029 189.663 7.17829C189.962 7.17829 190.281 7.17829 190.623 7.17829C190.964 7.16762 191.306 7.16229 191.647 7.16229C191.988 7.16229 192.314 7.16229 192.623 7.16229C192.932 7.16229 193.199 7.16762 193.423 7.17829ZM193.567 11.7703C193.578 11.7703 193.615 11.781 193.679 11.8023C193.743 11.8236 193.812 11.861 193.887 11.9143C193.972 11.957 194.047 12.021 194.111 12.1063C194.186 12.181 194.234 12.2716 194.255 12.3783C194.319 12.7836 194.255 13.0983 194.063 13.3223C193.946 13.4716 193.817 13.5623 193.679 13.5943C193.54 13.6263 193.466 13.6423 193.455 13.6423H184.719C184.314 13.6423 183.994 13.573 183.759 13.4343C183.524 13.3063 183.407 13.1196 183.407 12.8743V11.4503C183.396 11.333 183.391 11.189 183.391 11.0183C183.391 10.837 183.396 10.6876 183.407 10.5703C183.428 10.3463 183.514 10.165 183.663 10.0263C183.812 9.88762 183.999 9.81829 184.223 9.81829C184.276 9.81829 184.345 9.82362 184.431 9.83429C184.527 9.83429 184.601 9.84495 184.655 9.86629C184.793 9.90895 184.9 9.98362 184.975 10.0903C185.05 10.1863 185.108 10.2983 185.151 10.4263C185.193 10.5543 185.22 10.693 185.231 10.8423C185.242 10.981 185.252 11.109 185.263 11.2263C185.263 11.3116 185.268 11.4023 185.279 11.4983C185.29 11.5836 185.306 11.6636 185.327 11.7383C185.348 11.749 185.444 11.765 185.615 11.7863C185.796 11.797 186.074 11.8023 186.447 11.8023C186.767 11.8023 187.05 11.797 187.295 11.7863C187.551 11.7756 187.684 11.7703 187.695 11.7703H193.567ZM192.047 3.46629C192.047 3.29562 191.967 3.14629 191.807 3.01829C191.647 2.89029 191.423 2.78362 191.135 2.69829C190.847 2.61295 190.5 2.54895 190.095 2.50629C189.7 2.46362 189.263 2.44229 188.783 2.44229C186.682 2.44229 185.631 2.78362 185.631 3.46629C185.631 3.76495 185.897 3.99962 186.431 4.17029C186.975 4.34095 187.748 4.42095 188.751 4.41029C189.135 4.41029 189.519 4.39962 189.903 4.37829C190.297 4.34629 190.655 4.29829 190.975 4.23429C191.295 4.15962 191.551 4.06362 191.743 3.94629C191.946 3.81829 192.047 3.65829 192.047 3.46629Z" fill="black"/>
<path d="M201.844 10.9383C202.153 10.9383 202.431 10.9916 202.676 11.0983C202.932 11.205 203.081 11.429 203.124 11.7703C203.145 11.941 203.119 12.0956 203.044 12.2343C202.98 12.373 202.889 12.4903 202.772 12.5863C202.655 12.6823 202.516 12.757 202.356 12.8103C202.207 12.8636 202.063 12.8956 201.924 12.9063C201.807 12.9063 201.599 12.9063 201.3 12.9063C201.012 12.9063 200.687 12.9063 200.324 12.9063C199.972 12.9063 199.609 12.9063 199.236 12.9063C198.863 12.9063 198.548 12.9063 198.292 12.9063H198.164C197.919 12.8956 197.663 12.885 197.396 12.8743C197.14 12.8636 196.889 12.821 196.644 12.7463C196.473 12.693 196.313 12.597 196.164 12.4583C196.015 12.3196 195.897 12.1596 195.812 11.9783C195.759 11.861 195.721 11.7223 195.7 11.5623C195.679 11.3916 195.663 11.2316 195.652 11.0823C195.641 10.9223 195.636 10.7836 195.636 10.6663C195.647 10.549 195.652 10.485 195.652 10.4743V3.67429C195.652 3.64229 195.647 3.55695 195.636 3.41829C195.625 3.27962 195.62 3.11962 195.62 2.93829C195.631 2.75695 195.647 2.57029 195.668 2.37829C195.7 2.18629 195.759 2.02629 195.844 1.89829C195.908 1.79162 196.02 1.70629 196.18 1.64229C196.351 1.57829 196.521 1.53029 196.692 1.49829C196.873 1.46629 197.033 1.45029 197.172 1.45029C197.321 1.43962 197.412 1.43429 197.444 1.43429H201.188C201.199 1.43429 201.279 1.43429 201.428 1.43429C201.588 1.43429 201.759 1.45562 201.94 1.49829C202.121 1.53029 202.297 1.58895 202.468 1.67429C202.639 1.75962 202.751 1.88762 202.804 2.05829C202.825 2.12229 202.836 2.20229 202.836 2.29829C202.847 2.38362 202.852 2.47962 202.852 2.58629C202.852 2.68229 202.841 2.77295 202.82 2.85829C202.809 2.94362 202.793 3.00762 202.772 3.05029C202.697 3.18895 202.564 3.28495 202.372 3.33829C202.159 3.39162 201.855 3.41829 201.46 3.41829C201.396 3.41829 201.321 3.41829 201.236 3.41829C201.161 3.41829 201.039 3.41829 200.868 3.41829C200.708 3.40762 200.479 3.40229 200.18 3.40229C199.892 3.40229 199.503 3.40229 199.012 3.40229C198.863 3.40229 198.708 3.40762 198.548 3.41829C198.399 3.42895 198.287 3.45029 198.212 3.48229C198.137 3.51429 198.079 3.57829 198.036 3.67429C198.004 3.75962 197.977 3.86095 197.956 3.97829C197.945 4.08495 197.94 4.19162 197.94 4.29829C197.94 4.40495 197.945 4.49029 197.956 4.55429V4.57029L198.02 10.1063C198.02 10.3196 198.068 10.4956 198.164 10.6343C198.26 10.7623 198.431 10.8263 198.676 10.8263C198.708 10.8263 198.82 10.837 199.012 10.8583C199.215 10.869 199.465 10.8796 199.764 10.8903C200.073 10.901 200.409 10.9116 200.772 10.9223C201.135 10.933 201.492 10.9383 201.844 10.9383ZM207.364 5.88229C207.556 5.92495 207.721 6.01029 207.86 6.13829C208.009 6.26629 208.084 6.44762 208.084 6.68229C208.084 6.76762 208.079 6.84762 208.068 6.92229C208.068 6.98629 208.057 7.06095 208.036 7.14629C208.004 7.32762 207.935 7.48229 207.828 7.61029C207.732 7.73829 207.583 7.80229 207.38 7.80229L206.068 7.81829C206.057 8.09562 206.052 8.40495 206.052 8.74629C206.052 9.08762 206.052 9.43962 206.052 9.80229C206.052 10.165 206.052 10.533 206.052 10.9063C206.063 11.269 206.068 11.6156 206.068 11.9463C206.068 12.085 206.063 12.2556 206.052 12.4583C206.041 12.661 206.004 12.8583 205.94 13.0503C205.876 13.2316 205.78 13.3916 205.652 13.5303C205.524 13.669 205.343 13.7436 205.108 13.7543C204.852 13.7756 204.649 13.733 204.5 13.6263C204.351 13.5196 204.239 13.381 204.164 13.2103C204.089 13.0503 204.041 12.8743 204.02 12.6823C203.999 12.4796 203.988 12.293 203.988 12.1223V2.29829C203.988 2.28762 203.988 2.23962 203.988 2.15429C203.988 2.05829 203.999 1.95162 204.02 1.83429C204.041 1.70629 204.073 1.57829 204.116 1.45029C204.169 1.31162 204.239 1.19962 204.324 1.11429C204.399 1.03962 204.505 0.986286 204.644 0.954286C204.793 0.911619 204.927 0.890286 205.044 0.890286C205.279 0.890286 205.476 0.970286 205.636 1.13029C205.785 1.27962 205.871 1.43962 205.892 1.61029C205.924 1.77029 205.951 1.94095 205.972 2.12229C206.025 2.70895 206.057 3.31162 206.068 3.93029C206.089 4.54895 206.1 5.16229 206.1 5.77029L207.364 5.88229Z" fill="black"/>
<path d="M213.284 7.77029C213.209 7.78095 213.038 7.78629 212.772 7.78629C212.516 7.78629 212.238 7.78629 211.94 7.78629C211.641 7.77562 211.358 7.77029 211.092 7.77029C210.825 7.77029 210.649 7.77029 210.564 7.77029H210.548C210.356 7.77029 210.164 7.77029 209.972 7.77029C209.79 7.75962 209.614 7.74362 209.444 7.72229C209.273 7.69029 209.118 7.64229 208.98 7.57829C208.841 7.51429 208.729 7.41829 208.644 7.29029C208.548 7.15162 208.478 6.97562 208.436 6.76229C208.404 6.54895 208.377 6.34629 208.356 6.15429C208.345 5.95162 208.34 5.77562 208.34 5.62629C208.35 5.47695 208.356 5.39695 208.356 5.38629V5.03429C208.356 4.91695 208.356 4.78362 208.356 4.63429C208.356 4.48495 208.361 4.31962 208.372 4.13829C208.372 3.94629 208.372 3.75962 208.372 3.57829C208.382 3.38629 208.388 3.21562 208.388 3.06629V2.55429C208.388 2.52229 208.388 2.46362 208.388 2.37829C208.388 2.29295 208.393 2.20229 208.404 2.10629C208.414 1.99962 208.43 1.89829 208.452 1.80229C208.473 1.69562 208.505 1.61029 208.548 1.54629C208.644 1.39695 208.74 1.29029 208.836 1.22629C208.942 1.15162 209.076 1.09829 209.236 1.06629C209.289 1.05562 209.369 1.05029 209.476 1.05029C209.582 1.03962 209.684 1.02895 209.78 1.01829C209.897 1.00762 210.02 1.00229 210.148 1.00229H213.764C213.998 1.00229 214.244 1.02362 214.5 1.06629C214.766 1.09829 215.001 1.17829 215.204 1.30629C215.364 1.40229 215.476 1.52495 215.54 1.67429C215.604 1.82362 215.646 1.98362 215.668 2.15429C215.689 2.32495 215.694 2.50095 215.684 2.68229C215.673 2.85295 215.668 3.01295 215.668 3.16229C215.668 3.33295 215.662 3.50362 215.652 3.67429C215.652 3.83429 215.657 3.99962 215.668 4.17029V5.05029C215.657 5.10362 215.652 5.16229 215.652 5.22629C215.662 5.29029 215.668 5.35429 215.668 5.41829C215.646 5.55695 215.641 5.69562 215.652 5.83429C215.662 5.96229 215.668 6.10095 215.668 6.25029C215.668 6.36762 215.657 6.49562 215.636 6.63429C215.625 6.76229 215.593 6.89562 215.54 7.03429C215.497 7.16229 215.433 7.27962 215.348 7.38629C215.273 7.49295 215.172 7.56762 215.044 7.61029C214.766 7.72762 214.473 7.78629 214.164 7.78629C213.865 7.77562 213.572 7.77029 213.284 7.77029ZM219.38 11.7543C219.38 11.7543 219.412 11.765 219.476 11.7863C219.55 11.8076 219.63 11.845 219.716 11.8983C219.801 11.941 219.881 12.005 219.956 12.0903C220.03 12.165 220.078 12.2556 220.1 12.3623C220.153 12.7676 220.084 13.0823 219.892 13.3063C219.764 13.4556 219.625 13.5463 219.476 13.5783C219.326 13.6103 219.246 13.6263 219.236 13.6263H210.9C210.462 13.6263 210.121 13.557 209.876 13.4183C209.63 13.2903 209.508 13.1036 209.508 12.8583V10.9383C209.508 10.8743 209.502 10.7943 209.492 10.6983C209.492 10.6023 209.492 10.501 209.492 10.3943C209.492 10.277 209.492 10.1703 209.492 10.0743C209.502 9.97829 209.508 9.89829 209.508 9.83429C209.529 9.61029 209.636 9.42895 209.828 9.29029C210.02 9.15162 210.238 9.08229 210.484 9.08229C210.537 9.08229 210.601 9.08762 210.676 9.09829C210.761 9.09829 210.83 9.10895 210.884 9.13029C211.022 9.17295 211.134 9.24762 211.22 9.35429C211.305 9.45029 211.369 9.56229 211.412 9.69029C211.454 9.81829 211.481 9.95695 211.492 10.1063C211.502 10.245 211.513 10.373 211.524 10.4903C211.524 10.533 211.524 10.6183 211.524 10.7463C211.524 10.8636 211.524 10.9916 211.524 11.1303C211.524 11.269 211.524 11.397 211.524 11.5143C211.524 11.621 211.524 11.6903 211.524 11.7223C211.556 11.733 211.641 11.749 211.78 11.7703C211.929 11.781 212.201 11.7863 212.596 11.7863C212.937 11.7863 213.241 11.781 213.508 11.7703C213.774 11.7596 213.913 11.7543 213.924 11.7543H219.38ZM219.908 1.33829C219.94 1.41295 219.966 1.52495 219.988 1.67429C220.009 1.82362 220.025 1.97829 220.036 2.13829C220.046 2.28762 220.052 2.42629 220.052 2.55429C220.052 2.68229 220.052 2.75695 220.052 2.77829V8.29829C220.052 8.30895 220.046 8.35162 220.036 8.42629C220.025 8.49029 219.998 8.57029 219.956 8.66629C219.924 8.76229 219.87 8.85829 219.796 8.95429C219.732 9.05029 219.646 9.13029 219.54 9.19429C219.39 9.29029 219.236 9.33829 219.076 9.33829C218.862 9.33829 218.676 9.27429 218.516 9.14629C218.388 9.07162 218.292 8.96495 218.228 8.82629C218.153 8.69829 218.105 8.57029 218.084 8.44229C218.062 8.31429 218.046 8.19162 218.036 8.07429V7.29029H217.988C217.828 7.27962 217.652 7.27429 217.46 7.27429C217.278 7.26362 217.097 7.24762 216.916 7.22629C216.745 7.20495 216.59 7.16762 216.452 7.11429C216.313 7.05029 216.212 6.96495 216.148 6.85829C216.073 6.74095 216.036 6.60229 216.036 6.44229C216.046 6.27162 216.062 6.12762 216.084 6.01029C216.116 5.88229 216.18 5.77562 216.276 5.69029C216.372 5.60495 216.532 5.53562 216.756 5.48229C216.798 5.47162 216.878 5.46629 216.996 5.46629C217.124 5.45562 217.252 5.44495 217.38 5.43429C217.518 5.42362 217.646 5.41829 217.764 5.41829C217.892 5.40762 217.982 5.40229 218.036 5.40229V4.36229C217.876 4.36229 217.694 4.36762 217.492 4.37829C217.3 4.37829 217.113 4.37295 216.932 4.36229C216.761 4.34095 216.601 4.30895 216.452 4.26629C216.313 4.22362 216.212 4.14895 216.148 4.04229C216.116 3.98895 216.089 3.91962 216.068 3.83429C216.057 3.74895 216.046 3.66362 216.036 3.57829C216.036 3.48229 216.041 3.39162 216.052 3.30629C216.062 3.22095 216.073 3.14629 216.084 3.08229C216.116 2.96495 216.18 2.86362 216.276 2.77829C216.372 2.69295 216.532 2.62362 216.756 2.57029C216.788 2.55962 216.852 2.55429 216.948 2.55429C217.054 2.54362 217.172 2.53829 217.3 2.53829C217.428 2.52762 217.556 2.52229 217.684 2.52229C217.822 2.51162 217.94 2.50629 218.036 2.50629C218.025 2.41029 218.025 2.27695 218.036 2.10629C218.046 1.93562 218.062 1.80762 218.084 1.72229C218.116 1.63695 218.142 1.55162 218.164 1.46629C218.185 1.38095 218.233 1.29562 218.308 1.21029C218.404 1.10362 218.532 1.02895 218.692 0.986286C218.862 0.932953 219.044 0.916953 219.236 0.938286C219.577 0.991619 219.801 1.12495 219.908 1.33829ZM211.236 3.00229C211.14 3.00229 211.049 3.00229 210.964 3.00229C210.889 3.00229 210.82 3.01295 210.756 3.03429C210.606 3.04495 210.484 3.10895 210.388 3.22629C210.345 3.27962 210.318 3.35962 210.308 3.46629C210.308 3.57295 210.308 3.63695 210.308 3.65829V4.33029C210.297 4.41562 210.292 4.49562 210.292 4.57029C210.292 4.63429 210.292 4.69295 210.292 4.74629V4.93829C210.292 4.93829 210.292 4.97029 210.292 5.03429C210.292 5.09829 210.292 5.17295 210.292 5.25829C210.302 5.34362 210.318 5.42895 210.34 5.51429C210.361 5.59962 210.398 5.67429 210.452 5.73829C210.537 5.84495 210.676 5.90895 210.868 5.93029C211.06 5.94095 211.252 5.94629 211.444 5.94629H211.46C211.737 5.93562 211.966 5.93562 212.148 5.94629C212.329 5.94629 212.564 5.94629 212.852 5.94629C212.937 5.94629 213.022 5.95162 213.108 5.96229C213.204 5.96229 213.294 5.95162 213.38 5.93029C213.465 5.91962 213.524 5.89295 213.556 5.85029C213.588 5.80762 213.614 5.75429 213.636 5.69029C213.657 5.60495 213.668 5.53562 213.668 5.48229C213.71 5.27962 213.732 5.05029 213.732 4.79429C213.732 4.62362 213.732 4.45295 213.732 4.28229C213.742 4.11162 213.742 3.94095 213.732 3.77029C213.721 3.68495 213.716 3.59962 213.716 3.51429C213.726 3.42895 213.721 3.34362 213.7 3.25829C213.657 3.14095 213.588 3.07695 213.492 3.06629C213.396 3.04495 213.3 3.03429 213.204 3.03429L211.236 3.00229Z" fill="black"/>
</svg>
