<svg width="254" height="32" viewBox="0 0 254 32" fill="none" xmlns="http://www.w3.org/2000/svg">
<g filter="url(#filter0_d_119_155)">
<path d="M11.3104 15.925C11.7937 15.925 12.2104 15.8584 12.5604 15.725C12.9271 15.5917 13.2437 15.4417 13.5104 15.275C13.7771 15.1084 14.0021 14.9584 14.1854 14.825C14.3687 14.6917 14.5354 14.625 14.6854 14.625C15.0687 14.625 15.2604 14.875 15.2604 15.375C15.2604 15.4917 15.2354 15.6584 15.1854 15.875C15.1354 16.075 15.0687 16.2917 14.9854 16.525C14.9021 16.7417 14.8104 16.95 14.7104 17.15C14.6271 17.35 14.5437 17.5 14.4604 17.6C14.3771 17.6834 14.2271 17.8167 14.0104 18C13.8104 18.1834 13.5354 18.3667 13.1854 18.55C12.8354 18.7334 12.4271 18.8917 11.9604 19.025C11.4937 19.175 10.9771 19.25 10.4104 19.25C9.77705 19.25 9.11872 19.1584 8.43539 18.975C7.76872 18.775 7.16039 18.4417 6.61039 17.975C6.06039 17.4917 5.60205 16.85 5.23539 16.05C4.88539 15.2334 4.71039 14.2167 4.71039 13C4.71039 12.5667 4.73539 12.075 4.78539 11.525C4.85205 10.9584 4.97705 10.3834 5.16039 9.80002C5.34372 9.20002 5.58539 8.61669 5.88539 8.05002C6.20205 7.46669 6.61872 6.95002 7.13539 6.50002C7.65205 6.05002 8.26872 5.69169 8.98539 5.42502C9.71872 5.14169 10.5854 5.00002 11.5854 5.00002C12.4021 5.00002 13.1021 5.10002 13.6854 5.30002C14.2854 5.48336 14.7771 5.74169 15.1604 6.07502C15.5437 6.39169 15.8271 6.76669 16.0104 7.20002C16.2104 7.63336 16.3104 8.10002 16.3104 8.60002C16.3104 9.50002 16.0271 10.1667 15.4604 10.6C14.8937 11.0167 14.0937 11.225 13.0604 11.225C12.8104 11.225 12.6354 11.2084 12.5354 11.175C12.4521 11.125 12.4104 11.025 12.4104 10.875C12.4104 10.475 12.4021 10.1167 12.3854 9.80002C12.3687 9.48336 12.3187 9.21669 12.2354 9.00002C12.1687 8.78336 12.0604 8.61669 11.9104 8.50002C11.7604 8.38336 11.5437 8.32502 11.2604 8.32502C10.7437 8.32502 10.3271 8.49169 10.0104 8.82502C9.71039 9.15836 9.47706 9.56669 9.31039 10.05C9.16039 10.5167 9.06039 11 9.01039 11.5C8.97706 12 8.96039 12.4167 8.96039 12.75C8.96039 13.9334 9.14372 14.7584 9.51039 15.225C9.89372 15.6917 10.4937 15.925 11.3104 15.925Z" fill="#EDA1A1"/>
<path d="M25.78 15.9C25.83 15.35 25.88 14.775 25.93 14.175C25.9966 13.575 26.0466 13 26.08 12.45C26.13 11.9 26.1716 11.4084 26.205 10.975C26.2383 10.5417 26.255 10.225 26.255 10.025C26.255 9.59169 26.1466 9.20836 25.93 8.87502C25.73 8.52502 25.33 8.35002 24.73 8.35002C23.93 8.35002 23.28 8.72502 22.78 9.47502C22.2966 10.225 22.0133 11.225 21.93 12.475C21.8966 12.825 21.855 13.3167 21.805 13.95C21.755 14.5667 21.705 15.2 21.655 15.85C21.605 16.4834 21.555 17.0584 21.505 17.575C21.4716 18.075 21.455 18.3834 21.455 18.5C21.455 18.7 21.4133 18.8334 21.33 18.9C21.2633 18.9667 21.1216 19 20.905 19H20.005C19.4883 19 19.0633 18.95 18.73 18.85C18.4133 18.7334 18.155 18.575 17.955 18.375C17.7716 18.175 17.6383 17.9334 17.555 17.65C17.4883 17.35 17.455 17.0084 17.455 16.625C17.455 16.2584 17.48 15.75 17.53 15.1C17.5966 14.4334 17.68 13.525 17.78 12.375C17.88 11.2084 17.9966 9.72502 18.13 7.92502C18.2633 6.12502 18.405 3.89169 18.555 1.22502C18.5716 0.858357 18.6133 0.64169 18.68 0.575023C18.73 0.525024 18.8633 0.500024 19.08 0.500024H20.055C20.555 0.500024 20.9716 0.558357 21.305 0.675024C21.6383 0.791691 21.905 0.950024 22.105 1.15002C22.305 1.35002 22.4466 1.58336 22.53 1.85002C22.6133 2.10002 22.655 2.36669 22.655 2.65002C22.655 2.95002 22.6216 3.50836 22.555 4.32502C22.505 5.14169 22.4383 6.10002 22.355 7.20002C22.855 6.36669 23.405 5.79169 24.005 5.47502C24.6216 5.15836 25.3966 5.00002 26.33 5.00002C27.03 5.00002 27.6383 5.07502 28.155 5.22502C28.6716 5.37502 29.0966 5.63336 29.43 6.00002C29.78 6.35002 30.0383 6.81669 30.205 7.40002C30.3716 7.96669 30.455 8.67502 30.455 9.52502C30.455 9.79169 30.43 10.25 30.38 10.9C30.33 11.55 30.2633 12.2917 30.18 13.125C30.1133 13.9584 30.0383 14.8334 29.955 15.75C29.8883 16.65 29.83 17.475 29.78 18.225C29.7633 18.4084 29.7466 18.55 29.73 18.65C29.7133 18.75 29.68 18.825 29.63 18.875C29.5966 18.925 29.5383 18.9584 29.455 18.975C29.3716 18.9917 29.255 19 29.105 19H28.305C27.7716 19 27.3383 18.95 27.005 18.85C26.6716 18.75 26.4133 18.6084 26.23 18.425C26.0466 18.2417 25.9133 18.0167 25.83 17.75C25.7633 17.4667 25.73 17.15 25.73 16.8C25.73 16.6334 25.73 16.475 25.73 16.325C25.7466 16.175 25.7633 16.0334 25.78 15.9Z" fill="#EDA1A1"/>
<path d="M38.2392 19.25C37.5058 19.25 36.7725 19.1584 36.0392 18.975C35.3225 18.7917 34.6725 18.475 34.0892 18.025C33.5225 17.575 33.0558 16.975 32.6892 16.225C32.3225 15.475 32.1392 14.5334 32.1392 13.4C32.1392 12.9834 32.1725 12.4834 32.2392 11.9C32.3058 11.3167 32.4308 10.7167 32.6142 10.1C32.8142 9.48336 33.0808 8.87502 33.4142 8.27502C33.7642 7.65836 34.2142 7.10836 34.7642 6.62502C35.3142 6.14169 35.9808 5.75002 36.7642 5.45002C37.5475 5.15002 38.4808 5.00002 39.5642 5.00002C40.4308 5.00002 41.1642 5.10002 41.7642 5.30002C42.3642 5.50002 42.8475 5.77502 43.2142 6.12502C43.5808 6.45836 43.8475 6.85002 44.0142 7.30002C44.1808 7.75002 44.2642 8.23336 44.2642 8.75002C44.2642 9.51669 44.1058 10.1667 43.7892 10.7C43.4892 11.2334 43.0892 11.6834 42.5892 12.05C42.1058 12.4 41.5642 12.675 40.9642 12.875C40.3642 13.075 39.7725 13.2334 39.1892 13.35C38.6058 13.45 38.0642 13.5167 37.5642 13.55C37.0808 13.5667 36.7058 13.575 36.4392 13.575C36.4392 13.8917 36.4808 14.2084 36.5642 14.525C36.6642 14.825 36.8058 15.0917 36.9892 15.325C37.1725 15.5584 37.4142 15.75 37.7142 15.9C38.0142 16.05 38.3808 16.125 38.8142 16.125C39.2475 16.125 39.5808 16.0584 39.8142 15.925C40.0642 15.775 40.2642 15.6167 40.4142 15.45C40.5642 15.2667 40.6892 15.1084 40.7892 14.975C40.9058 14.825 41.0558 14.75 41.2392 14.75C41.3225 14.75 41.4642 14.775 41.6642 14.825C41.8808 14.8584 42.0975 14.9417 42.3142 15.075C42.5308 15.2084 42.7225 15.3917 42.8892 15.625C43.0558 15.8584 43.1392 16.1584 43.1392 16.525C43.1392 17.0084 42.9892 17.425 42.6892 17.775C42.3892 18.125 41.9975 18.4084 41.5142 18.625C41.0475 18.8417 40.5225 19 39.9392 19.1C39.3558 19.2 38.7892 19.25 38.2392 19.25ZM38.7142 8.32502C38.3475 8.32502 38.0308 8.43336 37.7642 8.65002C37.5142 8.85002 37.2975 9.10836 37.1142 9.42502C36.9475 9.74169 36.8142 10.0917 36.7142 10.475C36.6308 10.8584 36.5642 11.225 36.5142 11.575C37.5475 11.5584 38.3808 11.3834 39.0142 11.05C39.6642 10.7167 39.9892 10.2417 39.9892 9.62502C39.9892 9.29169 39.8808 8.99169 39.6642 8.72502C39.4642 8.45836 39.1475 8.32502 38.7142 8.32502Z" fill="#EDA1A1"/>
<path d="M51.8441 15.925C52.3274 15.925 52.7441 15.8584 53.0941 15.725C53.4608 15.5917 53.7774 15.4417 54.0441 15.275C54.3108 15.1084 54.5358 14.9584 54.7191 14.825C54.9024 14.6917 55.0691 14.625 55.2191 14.625C55.6024 14.625 55.7941 14.875 55.7941 15.375C55.7941 15.4917 55.7691 15.6584 55.7191 15.875C55.6691 16.075 55.6024 16.2917 55.5191 16.525C55.4358 16.7417 55.3441 16.95 55.2441 17.15C55.1608 17.35 55.0774 17.5 54.9941 17.6C54.9108 17.6834 54.7608 17.8167 54.5441 18C54.3441 18.1834 54.0691 18.3667 53.7191 18.55C53.3691 18.7334 52.9608 18.8917 52.4941 19.025C52.0274 19.175 51.5108 19.25 50.9441 19.25C50.3108 19.25 49.6524 19.1584 48.9691 18.975C48.3024 18.775 47.6941 18.4417 47.1441 17.975C46.5941 17.4917 46.1358 16.85 45.7691 16.05C45.4191 15.2334 45.2441 14.2167 45.2441 13C45.2441 12.5667 45.2691 12.075 45.3191 11.525C45.3858 10.9584 45.5108 10.3834 45.6941 9.80002C45.8774 9.20002 46.1191 8.61669 46.4191 8.05002C46.7358 7.46669 47.1524 6.95002 47.6691 6.50002C48.1858 6.05002 48.8024 5.69169 49.5191 5.42502C50.2524 5.14169 51.1191 5.00002 52.1191 5.00002C52.9358 5.00002 53.6358 5.10002 54.2191 5.30002C54.8191 5.48336 55.3108 5.74169 55.6941 6.07502C56.0774 6.39169 56.3608 6.76669 56.5441 7.20002C56.7441 7.63336 56.8441 8.10002 56.8441 8.60002C56.8441 9.50002 56.5608 10.1667 55.9941 10.6C55.4274 11.0167 54.6274 11.225 53.5941 11.225C53.3441 11.225 53.1691 11.2084 53.0691 11.175C52.9858 11.125 52.9441 11.025 52.9441 10.875C52.9441 10.475 52.9358 10.1167 52.9191 9.80002C52.9024 9.48336 52.8524 9.21669 52.7691 9.00002C52.7024 8.78336 52.5941 8.61669 52.4441 8.50002C52.2941 8.38336 52.0774 8.32502 51.7941 8.32502C51.2774 8.32502 50.8608 8.49169 50.5441 8.82502C50.2441 9.15836 50.0108 9.56669 49.8441 10.05C49.6941 10.5167 49.5941 11 49.5441 11.5C49.5108 12 49.4941 12.4167 49.4941 12.75C49.4941 13.9334 49.6774 14.7584 50.0441 15.225C50.4274 15.6917 51.0274 15.925 51.8441 15.925Z" fill="#EDA1A1"/>
<path d="M69.8887 16.975C69.8887 17.0584 69.847 17.225 69.7637 17.475C69.6803 17.725 69.547 17.9834 69.3637 18.25C69.1803 18.5167 68.947 18.75 68.6637 18.95C68.397 19.15 68.072 19.25 67.6887 19.25C67.2387 19.25 66.7887 19.1 66.3387 18.8C65.9053 18.5 65.472 18.0917 65.0387 17.575C64.6053 17.0584 64.1637 16.45 63.7137 15.75C63.2803 15.0334 62.8387 14.2584 62.3887 13.425C62.322 14.3084 62.2553 15.175 62.1887 16.025C62.122 16.875 62.0553 17.7 61.9887 18.5C61.972 18.7 61.9303 18.8334 61.8637 18.9C61.797 18.9667 61.6553 19 61.4387 19H60.5387C60.022 19 59.597 18.95 59.2637 18.85C58.9303 18.7334 58.672 18.575 58.4887 18.375C58.3053 18.175 58.172 17.925 58.0887 17.625C58.022 17.3084 57.9887 16.95 57.9887 16.55C57.9887 16.35 57.997 16.1417 58.0137 15.925C58.0303 15.7084 58.0553 15.4 58.0887 15C58.122 14.6 58.1637 14.075 58.2137 13.425C58.2803 12.775 58.3553 11.9167 58.4387 10.85C58.522 9.78336 58.6137 8.47502 58.7137 6.92502C58.8303 5.35836 58.9553 3.45836 59.0887 1.22502C59.1053 0.858357 59.147 0.64169 59.2137 0.575023C59.2637 0.525024 59.397 0.500024 59.6137 0.500024H60.5887C61.1053 0.500024 61.5303 0.558357 61.8637 0.675024C62.197 0.791691 62.4637 0.950024 62.6637 1.15002C62.8637 1.35002 62.997 1.58336 63.0637 1.85002C63.147 2.11669 63.1887 2.39169 63.1887 2.67502C63.1887 2.84169 63.172 3.12502 63.1387 3.52502C63.122 3.90836 63.097 4.38336 63.0637 4.95002C63.0303 5.50002 62.9803 6.12502 62.9137 6.82502C62.8637 7.52502 62.8137 8.25836 62.7637 9.02502L66.7637 5.37502C66.9137 5.24169 67.047 5.15002 67.1637 5.10002C67.297 5.05002 67.397 5.02502 67.4637 5.02502C67.647 5.02502 67.847 5.14169 68.0637 5.37502C68.2803 5.60836 68.4803 5.88336 68.6637 6.20002C68.8637 6.50002 69.022 6.81669 69.1387 7.15002C69.272 7.46669 69.3387 7.72502 69.3387 7.92502C69.3387 8.40836 68.947 8.91669 68.1637 9.45002C67.397 9.98336 66.2303 10.5834 64.6637 11.25C65.3637 12.0334 66.0303 12.75 66.6637 13.4C67.297 14.05 67.847 14.625 68.3137 15.125C68.797 15.625 69.1803 16.0334 69.4637 16.35C69.747 16.6667 69.8887 16.875 69.8887 16.975Z" fill="#EDA1A1"/>
<path d="M82.1348 19.25C80.8515 19.25 79.8348 19.0667 79.0848 18.7C78.3348 18.3167 77.7682 17.8417 77.3848 17.275C77.0015 16.7084 76.7598 16.1 76.6598 15.45C76.5598 14.7834 76.5098 14.175 76.5098 13.625C76.5098 13.4084 76.5265 12.9834 76.5598 12.35C76.6098 11.7167 76.6682 10.9834 76.7348 10.15C76.8015 9.31669 76.8682 8.43336 76.9348 7.50002C77.0015 6.55002 77.0682 5.65836 77.1348 4.82502C77.2015 3.97502 77.2515 3.22502 77.2848 2.57502C77.3348 1.92502 77.3598 1.47502 77.3598 1.22502C77.3598 0.858357 77.3848 0.650023 77.4348 0.600023C77.4848 0.533357 77.6348 0.500024 77.8848 0.500024H78.8598C79.3598 0.500024 79.7765 0.558357 80.1098 0.675024C80.4432 0.791691 80.7098 0.950024 80.9098 1.15002C81.1098 1.35002 81.2515 1.58336 81.3348 1.85002C81.4182 2.10002 81.4598 2.37502 81.4598 2.67502C81.4598 2.95836 81.4265 3.50836 81.3598 4.32502C81.3098 5.14169 81.2432 6.10002 81.1598 7.20002C81.5932 6.45002 82.0848 5.90002 82.6348 5.55002C83.1848 5.18336 83.9098 5.00002 84.8098 5.00002C86.3265 5.00002 87.4848 5.50002 88.2848 6.50002C89.1015 7.50002 89.5098 8.99169 89.5098 10.975C89.5098 11.4917 89.4682 12.0584 89.3848 12.675C89.3182 13.2917 89.1848 13.9084 88.9848 14.525C88.8015 15.125 88.5348 15.7167 88.1848 16.3C87.8515 16.8667 87.4098 17.3667 86.8598 17.8C86.3098 18.2334 85.6432 18.5834 84.8598 18.85C84.0932 19.1167 83.1848 19.25 82.1348 19.25ZM83.2598 8.32502C82.6598 8.32502 82.1848 8.48336 81.8348 8.80002C81.5015 9.11669 81.2432 9.50002 81.0598 9.95002C80.8765 10.4 80.7598 10.8834 80.7098 11.4C80.6598 11.9 80.6348 12.3417 80.6348 12.725C80.6348 13.875 80.7932 14.7 81.1098 15.2C81.4265 15.6834 81.9015 15.925 82.5348 15.925C83.1348 15.925 83.6015 15.7417 83.9348 15.375C84.2848 14.9917 84.5432 14.5417 84.7098 14.025C84.8932 13.5084 85.0098 12.9834 85.0598 12.45C85.1098 11.9167 85.1348 11.5 85.1348 11.2C85.1348 10.2667 84.9932 9.55836 84.7098 9.07502C84.4265 8.57502 83.9432 8.32502 83.2598 8.32502Z" fill="#EDA1A1"/>
<path d="M96.7743 19.25C95.6243 19.25 94.666 19.0917 93.8993 18.775C93.1493 18.4417 92.5493 17.9917 92.0993 17.425C91.6493 16.8584 91.3326 16.2 91.1493 15.45C90.966 14.6834 90.8743 13.8667 90.8743 13C90.8743 12 90.991 11.025 91.2243 10.075C91.4743 9.10836 91.891 8.25002 92.4743 7.50002C93.0576 6.75002 93.8243 6.15002 94.7743 5.70002C95.741 5.23336 96.941 5.00002 98.3743 5.00002C100.474 5.00002 101.974 5.51669 102.874 6.55002C103.791 7.56669 104.249 9.00002 104.249 10.85C104.249 11.3667 104.208 11.9417 104.124 12.575C104.058 13.1917 103.916 13.8084 103.699 14.425C103.499 15.0417 103.216 15.6417 102.849 16.225C102.499 16.8084 102.049 17.325 101.499 17.775C100.949 18.225 100.283 18.5834 99.4993 18.85C98.7326 19.1167 97.8243 19.25 96.7743 19.25ZM97.9493 8.32502C97.316 8.32502 96.8076 8.49169 96.4243 8.82502C96.0576 9.14169 95.7743 9.53336 95.5743 10C95.391 10.45 95.266 10.9334 95.1993 11.45C95.1493 11.95 95.1243 12.375 95.1243 12.725C95.1243 13.825 95.2993 14.6334 95.6493 15.15C95.9993 15.6667 96.4993 15.925 97.1493 15.925C97.7326 15.925 98.2076 15.7417 98.5743 15.375C98.9576 15.0084 99.2493 14.5667 99.4493 14.05C99.666 13.5334 99.8076 12.9917 99.8743 12.425C99.9576 11.8584 99.9993 11.3834 99.9993 11C99.9993 10.1667 99.841 9.51669 99.5243 9.05002C99.2243 8.56669 98.6993 8.32502 97.9493 8.32502Z" fill="#EDA1A1"/>
<path d="M110.465 19.25C109.815 19.25 109.19 19.1334 108.59 18.9C108.007 18.6667 107.49 18.3 107.04 17.8C106.607 17.3 106.257 16.6667 105.99 15.9C105.74 15.1334 105.615 14.2084 105.615 13.125C105.615 12.6417 105.648 12.1084 105.715 11.525C105.782 10.925 105.898 10.325 106.065 9.72502C106.232 9.12502 106.465 8.54169 106.765 7.97502C107.065 7.40836 107.44 6.90836 107.89 6.47502C108.357 6.02502 108.907 5.66669 109.54 5.40002C110.19 5.13336 110.948 5.00002 111.815 5.00002C112.648 5.00002 113.315 5.15002 113.815 5.45002C114.332 5.73336 114.657 6.23336 114.79 6.95002C114.823 6.30002 114.857 5.73336 114.89 5.25002C114.923 4.76669 114.948 4.31669 114.965 3.90002C114.998 3.48336 115.032 3.06669 115.065 2.65002C115.098 2.23336 115.132 1.75836 115.165 1.22502C115.182 0.858357 115.223 0.64169 115.29 0.575023C115.323 0.541691 115.365 0.525024 115.415 0.525024C115.465 0.508358 115.557 0.500024 115.69 0.500024H116.665C117.165 0.500024 117.582 0.558357 117.915 0.675024C118.248 0.791691 118.515 0.950024 118.715 1.15002C118.915 1.35002 119.057 1.58336 119.14 1.85002C119.223 2.10002 119.265 2.36669 119.265 2.65002C119.265 2.65002 119.248 2.85836 119.215 3.27502C119.182 3.69169 119.14 4.25002 119.09 4.95002C119.04 5.63336 118.982 6.41669 118.915 7.30002C118.848 8.18336 118.782 9.10002 118.715 10.05C118.648 10.9834 118.582 11.9167 118.515 12.85C118.448 13.7667 118.382 14.6167 118.315 15.4C118.248 16.1667 118.19 16.8334 118.14 17.4C118.107 17.95 118.082 18.3167 118.065 18.5C118.032 18.7 117.99 18.8334 117.94 18.9C117.89 18.9667 117.748 19 117.515 19H116.615C116.265 19 115.932 18.975 115.615 18.925C115.315 18.8584 115.048 18.7584 114.815 18.625C114.598 18.475 114.423 18.2834 114.29 18.05C114.173 17.8 114.115 17.4834 114.115 17.1C113.815 17.7334 113.357 18.25 112.74 18.65C112.14 19.05 111.382 19.25 110.465 19.25ZM112.64 8.32502C111.79 8.32502 111.157 8.70002 110.74 9.45002C110.34 10.1834 110.14 11.175 110.14 12.425C110.14 12.8584 110.165 13.2834 110.215 13.7C110.282 14.1167 110.39 14.4917 110.54 14.825C110.69 15.1584 110.89 15.425 111.14 15.625C111.407 15.825 111.74 15.925 112.14 15.925C112.857 15.925 113.457 15.575 113.94 14.875C114.423 14.175 114.665 13.075 114.665 11.575C114.665 11.1584 114.64 10.7584 114.59 10.375C114.54 9.97502 114.44 9.62502 114.29 9.32502C114.14 9.02502 113.932 8.78336 113.665 8.60002C113.398 8.41669 113.057 8.32502 112.64 8.32502Z" fill="#EDA1A1"/>
<path d="M125.649 7.55002C125.649 7.93336 125.624 8.39169 125.574 8.92502C125.524 9.44169 125.466 9.96669 125.399 10.5C125.349 11.0167 125.299 11.5084 125.249 11.975C125.199 12.425 125.174 12.775 125.174 13.025C125.174 13.6584 125.324 14.1334 125.624 14.45C125.941 14.75 126.324 14.9 126.774 14.9C127.558 14.9 128.183 14.4917 128.649 13.675C129.116 12.8584 129.408 11.775 129.524 10.425L129.924 5.75002C129.941 5.56669 129.999 5.44169 130.099 5.37502C130.216 5.29169 130.341 5.25002 130.474 5.25002H131.374C131.724 5.25002 132.049 5.28336 132.349 5.35002C132.666 5.40002 132.941 5.50836 133.174 5.67502C133.408 5.82502 133.591 6.03336 133.724 6.30002C133.858 6.56669 133.924 6.90836 133.924 7.32502C133.924 7.49169 133.908 7.80836 133.874 8.27502C133.858 8.72502 133.816 9.38336 133.749 10.25C133.699 11.1 133.624 12.1834 133.524 13.5C133.424 14.8 133.308 16.3917 133.174 18.275C133.091 19.375 132.841 20.2834 132.424 21C132.024 21.7334 131.516 22.3084 130.899 22.725C130.283 23.1584 129.591 23.4584 128.824 23.625C128.058 23.7917 127.274 23.875 126.474 23.875C125.624 23.875 124.841 23.8 124.124 23.65C123.424 23.5 122.816 23.2917 122.299 23.025C121.783 22.7584 121.374 22.45 121.074 22.1C120.791 21.75 120.649 21.375 120.649 20.975C120.649 20.6584 120.716 20.3834 120.849 20.15C120.999 19.9167 121.191 19.725 121.424 19.575C121.658 19.425 121.924 19.3084 122.224 19.225C122.541 19.1584 122.866 19.125 123.199 19.125C123.366 19.125 123.483 19.2084 123.549 19.375C123.633 19.5417 123.749 19.725 123.899 19.925C124.066 20.1417 124.324 20.3334 124.674 20.5C125.024 20.6667 125.549 20.75 126.249 20.75C126.866 20.75 127.366 20.6 127.749 20.3C128.133 20 128.424 19.6167 128.624 19.15C128.841 18.6834 128.983 18.175 129.049 17.625C129.116 17.075 129.149 16.55 129.149 16.05C128.883 16.5167 128.583 16.9 128.249 17.2C127.933 17.4834 127.599 17.7084 127.249 17.875C126.899 18.025 126.549 18.125 126.199 18.175C125.849 18.225 125.516 18.25 125.199 18.25C124.583 18.25 124.016 18.1667 123.499 18C122.999 17.8334 122.566 17.5667 122.199 17.2C121.833 16.8167 121.549 16.325 121.349 15.725C121.149 15.125 121.049 14.4 121.049 13.55C121.049 13.2334 121.066 12.8167 121.099 12.3C121.133 11.7667 121.174 11.175 121.224 10.525C121.274 9.85836 121.324 9.14169 121.374 8.37502C121.441 7.60836 121.508 6.82502 121.574 6.02502C121.608 5.50836 121.841 5.25002 122.274 5.25002H123.074C123.608 5.25002 124.041 5.30002 124.374 5.40002C124.708 5.50002 124.966 5.65002 125.149 5.85002C125.349 6.03336 125.483 6.27502 125.549 6.57502C125.616 6.85836 125.649 7.18336 125.649 7.55002Z" fill="#EDA1A1"/>
<path d="M147.353 15.925C147.836 15.925 148.253 15.8584 148.603 15.725C148.969 15.5917 149.286 15.4417 149.553 15.275C149.819 15.1084 150.044 14.9584 150.228 14.825C150.411 14.6917 150.578 14.625 150.728 14.625C151.111 14.625 151.303 14.875 151.303 15.375C151.303 15.4917 151.278 15.6584 151.228 15.875C151.178 16.075 151.111 16.2917 151.028 16.525C150.944 16.7417 150.853 16.95 150.753 17.15C150.669 17.35 150.586 17.5 150.503 17.6C150.419 17.6834 150.269 17.8167 150.053 18C149.853 18.1834 149.578 18.3667 149.228 18.55C148.878 18.7334 148.469 18.8917 148.003 19.025C147.536 19.175 147.019 19.25 146.453 19.25C145.819 19.25 145.161 19.1584 144.478 18.975C143.811 18.775 143.203 18.4417 142.653 17.975C142.103 17.4917 141.644 16.85 141.278 16.05C140.928 15.2334 140.753 14.2167 140.753 13C140.753 12.5667 140.778 12.075 140.828 11.525C140.894 10.9584 141.019 10.3834 141.203 9.80002C141.386 9.20002 141.628 8.61669 141.928 8.05002C142.244 7.46669 142.661 6.95002 143.178 6.50002C143.694 6.05002 144.311 5.69169 145.028 5.42502C145.761 5.14169 146.628 5.00002 147.628 5.00002C148.444 5.00002 149.144 5.10002 149.728 5.30002C150.328 5.48336 150.819 5.74169 151.203 6.07502C151.586 6.39169 151.869 6.76669 152.053 7.20002C152.253 7.63336 152.353 8.10002 152.353 8.60002C152.353 9.50002 152.069 10.1667 151.503 10.6C150.936 11.0167 150.136 11.225 149.103 11.225C148.853 11.225 148.678 11.2084 148.578 11.175C148.494 11.125 148.453 11.025 148.453 10.875C148.453 10.475 148.444 10.1167 148.428 9.80002C148.411 9.48336 148.361 9.21669 148.278 9.00002C148.211 8.78336 148.103 8.61669 147.953 8.50002C147.803 8.38336 147.586 8.32502 147.303 8.32502C146.786 8.32502 146.369 8.49169 146.053 8.82502C145.753 9.15836 145.519 9.56669 145.353 10.05C145.203 10.5167 145.103 11 145.053 11.5C145.019 12 145.003 12.4167 145.003 12.75C145.003 13.9334 145.186 14.7584 145.553 15.225C145.936 15.6917 146.536 15.925 147.353 15.925Z" fill="#EDA1A1"/>
<path d="M159.122 19.25C157.972 19.25 157.014 19.0917 156.247 18.775C155.497 18.4417 154.897 17.9917 154.447 17.425C153.997 16.8584 153.68 16.2 153.497 15.45C153.314 14.6834 153.222 13.8667 153.222 13C153.222 12 153.339 11.025 153.572 10.075C153.822 9.10836 154.239 8.25002 154.822 7.50002C155.405 6.75002 156.172 6.15002 157.122 5.70002C158.089 5.23336 159.289 5.00002 160.722 5.00002C162.822 5.00002 164.322 5.51669 165.222 6.55002C166.139 7.56669 166.597 9.00002 166.597 10.85C166.597 11.3667 166.555 11.9417 166.472 12.575C166.405 13.1917 166.264 13.8084 166.047 14.425C165.847 15.0417 165.564 15.6417 165.197 16.225C164.847 16.8084 164.397 17.325 163.847 17.775C163.297 18.225 162.63 18.5834 161.847 18.85C161.08 19.1167 160.172 19.25 159.122 19.25ZM160.297 8.32502C159.664 8.32502 159.155 8.49169 158.772 8.82502C158.405 9.14169 158.122 9.53336 157.922 10C157.739 10.45 157.614 10.9334 157.547 11.45C157.497 11.95 157.472 12.375 157.472 12.725C157.472 13.825 157.647 14.6334 157.997 15.15C158.347 15.6667 158.847 15.925 159.497 15.925C160.08 15.925 160.555 15.7417 160.922 15.375C161.305 15.0084 161.597 14.5667 161.797 14.05C162.014 13.5334 162.155 12.9917 162.222 12.425C162.305 11.8584 162.347 11.3834 162.347 11C162.347 10.1667 162.189 9.51669 161.872 9.05002C161.572 8.56669 161.047 8.32502 160.297 8.32502Z" fill="#EDA1A1"/>
<path d="M176.763 16.8C176.763 16.4334 176.788 15.9584 176.838 15.375C176.904 14.775 176.963 14.15 177.013 13.5C177.079 12.8334 177.138 12.1917 177.188 11.575C177.254 10.9584 177.288 10.4417 177.288 10.025C177.288 9.59169 177.179 9.20836 176.963 8.87502C176.763 8.52502 176.363 8.35002 175.763 8.35002C175.179 8.35002 174.696 8.49169 174.313 8.77502C173.929 9.05836 173.604 9.57502 173.338 10.325C173.088 11.075 172.879 12.1084 172.713 13.425C172.546 14.7417 172.388 16.4334 172.238 18.5C172.221 18.7 172.179 18.8334 172.113 18.9C172.046 18.9667 171.904 19 171.688 19H170.788C170.271 19 169.846 18.95 169.513 18.85C169.196 18.7334 168.938 18.575 168.738 18.375C168.554 18.175 168.421 17.9334 168.338 17.65C168.271 17.35 168.238 17.0084 168.238 16.625C168.238 16.375 168.246 16.025 168.263 15.575C168.296 15.1084 168.346 14.475 168.413 13.675C168.479 12.8584 168.554 11.8334 168.638 10.6C168.738 9.35002 168.854 7.80836 168.988 5.97502C169.004 5.60836 169.046 5.39169 169.113 5.32502C169.163 5.27502 169.296 5.25002 169.513 5.25002H170.488C170.988 5.25002 171.396 5.30836 171.713 5.42502C172.046 5.54169 172.313 5.70002 172.513 5.90002C172.713 6.08336 172.854 6.30836 172.938 6.57502C173.021 6.82502 173.071 7.08336 173.088 7.35002C173.604 6.46669 174.196 5.85836 174.863 5.52502C175.529 5.17502 176.363 5.00002 177.363 5.00002C178.063 5.00002 178.671 5.07502 179.188 5.22502C179.704 5.37502 180.129 5.63336 180.463 6.00002C180.813 6.35002 181.071 6.81669 181.238 7.40002C181.404 7.96669 181.488 8.67502 181.488 9.52502C181.488 9.79169 181.471 10.175 181.438 10.675C181.404 11.175 181.363 11.725 181.313 12.325C181.263 12.9084 181.204 13.525 181.138 14.175C181.088 14.8084 181.038 15.4 180.988 15.95C180.938 16.5 180.896 16.9834 180.863 17.4C180.829 17.8167 180.813 18.0917 180.813 18.225C180.813 18.5917 180.771 18.8167 180.688 18.9C180.604 18.9667 180.421 19 180.138 19H179.338C178.804 19 178.371 18.95 178.038 18.85C177.704 18.75 177.446 18.6084 177.263 18.425C177.079 18.2417 176.946 18.0167 176.863 17.75C176.796 17.4667 176.763 17.15 176.763 16.8Z" fill="#EDA1A1"/>
<path d="M188.066 19.25C187.416 19.25 186.791 19.1334 186.191 18.9C185.607 18.6667 185.091 18.3 184.641 17.8C184.207 17.3 183.857 16.6667 183.591 15.9C183.341 15.1334 183.216 14.2084 183.216 13.125C183.216 12.6417 183.249 12.1084 183.316 11.525C183.382 10.925 183.499 10.325 183.666 9.72502C183.832 9.12502 184.066 8.54169 184.366 7.97502C184.666 7.40836 185.041 6.90836 185.491 6.47502C185.957 6.02502 186.507 5.66669 187.141 5.40002C187.791 5.13336 188.549 5.00002 189.416 5.00002C190.249 5.00002 190.916 5.15002 191.416 5.45002C191.932 5.73336 192.257 6.23336 192.391 6.95002C192.424 6.30002 192.457 5.73336 192.491 5.25002C192.524 4.76669 192.549 4.31669 192.566 3.90002C192.599 3.48336 192.632 3.06669 192.666 2.65002C192.699 2.23336 192.732 1.75836 192.766 1.22502C192.782 0.858357 192.824 0.64169 192.891 0.575023C192.924 0.541691 192.966 0.525024 193.016 0.525024C193.066 0.508358 193.157 0.500024 193.291 0.500024H194.266C194.766 0.500024 195.182 0.558357 195.516 0.675024C195.849 0.791691 196.116 0.950024 196.316 1.15002C196.516 1.35002 196.657 1.58336 196.741 1.85002C196.824 2.10002 196.866 2.36669 196.866 2.65002C196.866 2.65002 196.849 2.85836 196.816 3.27502C196.782 3.69169 196.741 4.25002 196.691 4.95002C196.641 5.63336 196.582 6.41669 196.516 7.30002C196.449 8.18336 196.382 9.10002 196.316 10.05C196.249 10.9834 196.182 11.9167 196.116 12.85C196.049 13.7667 195.982 14.6167 195.916 15.4C195.849 16.1667 195.791 16.8334 195.741 17.4C195.707 17.95 195.682 18.3167 195.666 18.5C195.632 18.7 195.591 18.8334 195.541 18.9C195.491 18.9667 195.349 19 195.116 19H194.216C193.866 19 193.532 18.975 193.216 18.925C192.916 18.8584 192.649 18.7584 192.416 18.625C192.199 18.475 192.024 18.2834 191.891 18.05C191.774 17.8 191.716 17.4834 191.716 17.1C191.416 17.7334 190.957 18.25 190.341 18.65C189.741 19.05 188.982 19.25 188.066 19.25ZM190.241 8.32502C189.391 8.32502 188.757 8.70002 188.341 9.45002C187.941 10.1834 187.741 11.175 187.741 12.425C187.741 12.8584 187.766 13.2834 187.816 13.7C187.882 14.1167 187.991 14.4917 188.141 14.825C188.291 15.1584 188.491 15.425 188.741 15.625C189.007 15.825 189.341 15.925 189.741 15.925C190.457 15.925 191.057 15.575 191.541 14.875C192.024 14.175 192.266 13.075 192.266 11.575C192.266 11.1584 192.241 10.7584 192.191 10.375C192.141 9.97502 192.041 9.62502 191.891 9.32502C191.741 9.02502 191.532 8.78336 191.266 8.60002C190.999 8.41669 190.657 8.32502 190.241 8.32502Z" fill="#EDA1A1"/>
<path d="M201.05 19C200.533 19 200.108 18.95 199.775 18.85C199.458 18.7334 199.2 18.575 199 18.375C198.816 18.175 198.683 17.9334 198.6 17.65C198.533 17.35 198.5 17.0084 198.5 16.625C198.5 16.375 198.508 16.025 198.525 15.575C198.558 15.1084 198.608 14.475 198.675 13.675C198.741 12.8584 198.816 11.8334 198.9 10.6C199 9.35002 199.116 7.80836 199.25 5.97502C199.266 5.60836 199.308 5.39169 199.375 5.32502C199.425 5.27502 199.558 5.25002 199.775 5.25002H200.75C201.266 5.25002 201.683 5.30002 202 5.40002C202.333 5.50002 202.591 5.65002 202.775 5.85002C202.975 6.05002 203.108 6.29169 203.175 6.57502C203.258 6.85836 203.3 7.17502 203.3 7.52502C203.3 7.77502 203.283 8.15002 203.25 8.65002C203.216 9.15002 203.166 9.83336 203.1 10.7C203.05 11.55 202.975 12.6167 202.875 13.9C202.775 15.1667 202.65 16.7 202.5 18.5C202.483 18.7 202.441 18.8334 202.375 18.9C202.308 18.9667 202.166 19 201.95 19H201.05ZM199.275 2.30002C199.275 1.63336 199.516 1.10836 200 0.725024C200.483 0.341691 201.133 0.150024 201.95 0.150024C202.666 0.150024 203.183 0.300024 203.5 0.600023C203.833 0.883357 204 1.26669 204 1.75002C204 2.36669 203.766 2.88336 203.3 3.30002C202.85 3.70002 202.183 3.90002 201.3 3.90002C199.95 3.90002 199.275 3.36669 199.275 2.30002Z" fill="#EDA1A1"/>
<path d="M210.655 8.62502C210.605 9.25836 210.547 9.88336 210.48 10.5C210.43 11.1167 210.38 11.7 210.33 12.25C210.28 12.8 210.239 13.2917 210.205 13.725C210.189 14.1584 210.18 14.4917 210.18 14.725C210.18 15.1584 210.23 15.45 210.33 15.6C210.43 15.7334 210.597 15.8 210.83 15.8C211.014 15.8 211.172 15.7667 211.305 15.7C211.439 15.6334 211.564 15.5584 211.68 15.475C211.797 15.3917 211.897 15.3167 211.98 15.25C212.08 15.1834 212.189 15.15 212.305 15.15C212.422 15.15 212.53 15.2167 212.63 15.35C212.73 15.4834 212.78 15.7917 212.78 16.275C212.78 17.1917 212.53 17.9167 212.03 18.45C211.53 18.9834 210.672 19.25 209.455 19.25C208.255 19.25 207.364 18.975 206.78 18.425C206.214 17.8584 205.93 17 205.93 15.85C205.93 15.6 205.939 15.3084 205.955 14.975C205.989 14.625 206.03 14.175 206.08 13.625C206.13 13.075 206.189 12.4 206.255 11.6C206.339 10.8 206.422 9.80836 206.505 8.62502H205.18C205.047 8.62502 204.964 8.60002 204.93 8.55002C204.914 8.48336 204.905 8.39169 204.905 8.27502L204.98 7.00002C204.997 6.78336 205.022 6.57502 205.055 6.37502C205.105 6.15836 205.189 5.96669 205.305 5.80002C205.439 5.63336 205.622 5.50002 205.855 5.40002C206.089 5.30002 206.397 5.25002 206.78 5.25002C206.897 4.95002 207.03 4.59169 207.18 4.17502C207.33 3.75836 207.48 3.35836 207.63 2.97502C207.78 2.57502 207.922 2.24169 208.055 1.97502C208.205 1.70836 208.339 1.57502 208.455 1.57502H209.18C209.88 1.57502 210.364 1.79169 210.63 2.22502C210.897 2.65836 211.03 3.17502 211.03 3.77502C211.03 4.10836 211.005 4.60002 210.955 5.25002H213.58C213.847 5.25002 213.98 5.36669 213.98 5.60002L213.88 6.95002C213.847 7.45002 213.705 7.85836 213.455 8.17502C213.222 8.47502 212.73 8.62502 211.98 8.62502H210.655Z" fill="#EDA1A1"/>
<path d="M217.615 19C217.098 19 216.673 18.95 216.34 18.85C216.023 18.7334 215.765 18.575 215.565 18.375C215.382 18.175 215.248 17.9334 215.165 17.65C215.098 17.35 215.065 17.0084 215.065 16.625C215.065 16.375 215.073 16.025 215.09 15.575C215.123 15.1084 215.173 14.475 215.24 13.675C215.307 12.8584 215.382 11.8334 215.465 10.6C215.565 9.35002 215.682 7.80836 215.815 5.97502C215.832 5.60836 215.873 5.39169 215.94 5.32502C215.99 5.27502 216.123 5.25002 216.34 5.25002H217.315C217.832 5.25002 218.248 5.30002 218.565 5.40002C218.898 5.50002 219.157 5.65002 219.34 5.85002C219.54 6.05002 219.673 6.29169 219.74 6.57502C219.823 6.85836 219.865 7.17502 219.865 7.52502C219.865 7.77502 219.848 8.15002 219.815 8.65002C219.782 9.15002 219.732 9.83336 219.665 10.7C219.615 11.55 219.54 12.6167 219.44 13.9C219.34 15.1667 219.215 16.7 219.065 18.5C219.048 18.7 219.007 18.8334 218.94 18.9C218.873 18.9667 218.732 19 218.515 19H217.615ZM215.84 2.30002C215.84 1.63336 216.082 1.10836 216.565 0.725024C217.048 0.341691 217.698 0.150024 218.515 0.150024C219.232 0.150024 219.748 0.300024 220.065 0.600023C220.398 0.883357 220.565 1.26669 220.565 1.75002C220.565 2.36669 220.332 2.88336 219.865 3.30002C219.415 3.70002 218.748 3.90002 217.865 3.90002C216.515 3.90002 215.84 3.36669 215.84 2.30002Z" fill="#EDA1A1"/>
<path d="M227.445 19.25C226.295 19.25 225.337 19.0917 224.57 18.775C223.82 18.4417 223.22 17.9917 222.77 17.425C222.32 16.8584 222.004 16.2 221.82 15.45C221.637 14.6834 221.545 13.8667 221.545 13C221.545 12 221.662 11.025 221.895 10.075C222.145 9.10836 222.562 8.25002 223.145 7.50002C223.729 6.75002 224.495 6.15002 225.445 5.70002C226.412 5.23336 227.612 5.00002 229.045 5.00002C231.145 5.00002 232.645 5.51669 233.545 6.55002C234.462 7.56669 234.92 9.00002 234.92 10.85C234.92 11.3667 234.879 11.9417 234.795 12.575C234.729 13.1917 234.587 13.8084 234.37 14.425C234.17 15.0417 233.887 15.6417 233.52 16.225C233.17 16.8084 232.72 17.325 232.17 17.775C231.62 18.225 230.954 18.5834 230.17 18.85C229.404 19.1167 228.495 19.25 227.445 19.25ZM228.62 8.32502C227.987 8.32502 227.479 8.49169 227.095 8.82502C226.729 9.14169 226.445 9.53336 226.245 10C226.062 10.45 225.937 10.9334 225.87 11.45C225.82 11.95 225.795 12.375 225.795 12.725C225.795 13.825 225.97 14.6334 226.32 15.15C226.67 15.6667 227.17 15.925 227.82 15.925C228.404 15.925 228.879 15.7417 229.245 15.375C229.629 15.0084 229.92 14.5667 230.12 14.05C230.337 13.5334 230.479 12.9917 230.545 12.425C230.629 11.8584 230.67 11.3834 230.67 11C230.67 10.1667 230.512 9.51669 230.195 9.05002C229.895 8.56669 229.37 8.32502 228.62 8.32502Z" fill="#EDA1A1"/>
<path d="M245.086 16.8C245.086 16.4334 245.111 15.9584 245.161 15.375C245.228 14.775 245.286 14.15 245.336 13.5C245.403 12.8334 245.461 12.1917 245.511 11.575C245.578 10.9584 245.611 10.4417 245.611 10.025C245.611 9.59169 245.503 9.20836 245.286 8.87502C245.086 8.52502 244.686 8.35002 244.086 8.35002C243.503 8.35002 243.019 8.49169 242.636 8.77502C242.253 9.05836 241.928 9.57502 241.661 10.325C241.411 11.075 241.203 12.1084 241.036 13.425C240.869 14.7417 240.711 16.4334 240.561 18.5C240.544 18.7 240.503 18.8334 240.436 18.9C240.369 18.9667 240.228 19 240.011 19H239.111C238.594 19 238.169 18.95 237.836 18.85C237.519 18.7334 237.261 18.575 237.061 18.375C236.878 18.175 236.744 17.9334 236.661 17.65C236.594 17.35 236.561 17.0084 236.561 16.625C236.561 16.375 236.569 16.025 236.586 15.575C236.619 15.1084 236.669 14.475 236.736 13.675C236.803 12.8584 236.878 11.8334 236.961 10.6C237.061 9.35002 237.178 7.80836 237.311 5.97502C237.328 5.60836 237.369 5.39169 237.436 5.32502C237.486 5.27502 237.619 5.25002 237.836 5.25002H238.811C239.311 5.25002 239.719 5.30836 240.036 5.42502C240.369 5.54169 240.636 5.70002 240.836 5.90002C241.036 6.08336 241.178 6.30836 241.261 6.57502C241.344 6.82502 241.394 7.08336 241.411 7.35002C241.928 6.46669 242.519 5.85836 243.186 5.52502C243.853 5.17502 244.686 5.00002 245.686 5.00002C246.386 5.00002 246.994 5.07502 247.511 5.22502C248.028 5.37502 248.453 5.63336 248.786 6.00002C249.136 6.35002 249.394 6.81669 249.561 7.40002C249.728 7.96669 249.811 8.67502 249.811 9.52502C249.811 9.79169 249.794 10.175 249.761 10.675C249.728 11.175 249.686 11.725 249.636 12.325C249.586 12.9084 249.528 13.525 249.461 14.175C249.411 14.8084 249.361 15.4 249.311 15.95C249.261 16.5 249.219 16.9834 249.186 17.4C249.153 17.8167 249.136 18.0917 249.136 18.225C249.136 18.5917 249.094 18.8167 249.011 18.9C248.928 18.9667 248.744 19 248.461 19H247.661C247.128 19 246.694 18.95 246.361 18.85C246.028 18.75 245.769 18.6084 245.586 18.425C245.403 18.2417 245.269 18.0167 245.186 17.75C245.119 17.4667 245.086 17.15 245.086 16.8Z" fill="#EDA1A1"/>
</g>
<defs>
<filter id="filter0_d_119_155" x="0.710388" y="0.150024" width="253.101" height="31.725" filterUnits="userSpaceOnUse" color-interpolation-filters="sRGB">
<feFlood flood-opacity="0" result="BackgroundImageFix"/>
<feColorMatrix in="SourceAlpha" type="matrix" values="0 0 0 0 0 0 0 0 0 0 0 0 0 0 0 0 0 0 127 0" result="hardAlpha"/>
<feOffset dy="4"/>
<feGaussianBlur stdDeviation="2"/>
<feComposite in2="hardAlpha" operator="out"/>
<feColorMatrix type="matrix" values="0 0 0 0 0 0 0 0 0 0 0 0 0 0 0 0 0 0 0.25 0"/>
<feBlend mode="normal" in2="BackgroundImageFix" result="effect1_dropShadow_119_155"/>
<feBlend mode="normal" in="SourceGraphic" in2="effect1_dropShadow_119_155" result="shape"/>
</filter>
</defs>
</svg>
