<svg width="226" height="32" viewBox="0 0 226 32" fill="none" xmlns="http://www.w3.org/2000/svg">
<g filter="url(#filter0_d_119_154)">
<path d="M20.3622 5.67502C20.2289 6.07502 20.0539 6.60002 19.8372 7.25002C19.6372 7.88336 19.4122 8.58336 19.1622 9.35002C18.9122 10.1167 18.6539 10.9334 18.3872 11.8C18.1205 12.65 17.8455 13.4834 17.5622 14.3C17.2955 15.1167 17.0289 15.9 16.7622 16.65C16.4955 17.3834 16.2539 18.025 16.0372 18.575C15.9705 18.7084 15.8289 18.8167 15.6122 18.9C15.4122 18.9667 15.0872 19 14.6372 19C14.3539 19 14.0622 18.9834 13.7622 18.95C13.4622 18.9167 13.1789 18.85 12.9122 18.75C12.6622 18.65 12.4372 18.5167 12.2372 18.35C12.0539 18.1834 11.9122 17.975 11.8122 17.725C11.5622 16.875 11.3205 15.9334 11.0872 14.9C10.8705 13.85 10.6539 12.7834 10.4372 11.7C10.2205 10.6167 10.0039 9.55836 9.78721 8.52502C9.58721 7.47502 9.37887 6.52502 9.16221 5.67502C9.16221 5.90836 9.15387 6.30836 9.13721 6.87502C9.12054 7.44169 9.10387 8.10002 9.08721 8.85002C9.07054 9.60002 9.04554 10.4084 9.01221 11.275C8.99554 12.1417 8.97887 12.9917 8.96221 13.825C8.94554 14.6417 8.92887 15.4084 8.91221 16.125C8.89554 16.825 8.88721 17.4 8.88721 17.85C8.88721 18.35 8.85387 18.6667 8.78721 18.8C8.73721 18.9334 8.63721 19 8.48721 19H7.11221C6.16221 19 5.48721 18.8167 5.08721 18.45C4.70387 18.0667 4.51221 17.5084 4.51221 16.775C4.51221 16.575 4.52054 16.2417 4.53721 15.775C4.57054 15.2917 4.61221 14.725 4.66221 14.075C4.71221 13.425 4.76221 12.7167 4.81221 11.95C4.87887 11.1667 4.94554 10.375 5.01221 9.57502C5.09554 8.49169 5.16221 7.59169 5.21221 6.87502C5.27887 6.14169 5.32887 5.53336 5.36221 5.05002C5.39554 4.56669 5.42054 4.17502 5.43721 3.87502C5.47054 3.57502 5.48721 3.30836 5.48721 3.07502C5.50387 2.84169 5.51221 2.62502 5.51221 2.42502C5.52887 2.20836 5.53721 1.94169 5.53721 1.62502C5.53721 1.49169 5.58721 1.40002 5.68721 1.35002C5.78721 1.28336 5.87887 1.25002 5.96221 1.25002H9.46221C10.1122 1.25002 10.6455 1.35836 11.0622 1.57502C11.4789 1.77502 11.8205 2.09169 12.0872 2.52502C12.3539 2.95836 12.5705 3.52502 12.7372 4.22502C12.9039 4.90836 13.0539 5.72502 13.1872 6.67502C13.3372 7.62502 13.4955 8.72502 13.6622 9.97502C13.8455 11.2084 14.0789 12.6 14.3622 14.15C14.6289 13.1167 14.8539 12.2584 15.0372 11.575C15.2205 10.8917 15.3705 10.325 15.4872 9.87502C15.6205 9.40836 15.7289 9.02502 15.8122 8.72502C15.8955 8.42502 15.9705 8.15002 16.0372 7.90002C16.1039 7.63336 16.1789 7.35002 16.2622 7.05002C16.3455 6.75002 16.4455 6.37502 16.5622 5.92502C16.6789 5.47502 16.8205 4.91669 16.9872 4.25002C17.1705 3.56669 17.3955 2.70836 17.6622 1.67502C17.6955 1.57502 17.7539 1.48336 17.8372 1.40002C17.9205 1.30002 18.0705 1.25002 18.2872 1.25002H22.1872C22.7205 1.25002 23.1455 1.30836 23.4622 1.42502C23.7955 1.52502 24.0539 1.67502 24.2372 1.87502C24.4205 2.07502 24.5455 2.32502 24.6122 2.62502C24.6789 2.90836 24.7122 3.24169 24.7122 3.62502C24.7122 4.00836 24.6872 4.63336 24.6372 5.50002C24.6039 6.35002 24.5455 7.31669 24.4622 8.40002C24.3955 9.46669 24.3205 10.575 24.2372 11.725C24.1705 12.875 24.0955 13.9417 24.0122 14.925C23.9455 15.9084 23.8872 16.7417 23.8372 17.425C23.7872 18.1084 23.7539 18.5084 23.7372 18.625C23.7205 18.7584 23.6872 18.8584 23.6372 18.925C23.5872 18.975 23.4872 19 23.3372 19H21.9622C21.0122 19 20.3372 18.8167 19.9372 18.45C19.5539 18.0667 19.3622 17.575 19.3622 16.975C19.3622 16.7917 19.3789 16.4584 19.4122 15.975C19.4622 15.4917 19.5205 14.925 19.5872 14.275C19.6539 13.625 19.7289 12.9167 19.8122 12.15C19.8955 11.3667 19.9705 10.5917 20.0372 9.82502C20.1039 9.05836 20.1622 8.31669 20.2122 7.60002C20.2789 6.86669 20.3289 6.22502 20.3622 5.67502Z" fill="#EDA1A1"/>
<path d="M25.9915 15.925C25.9915 14.425 26.6665 13.25 28.0165 12.4C29.3665 11.55 31.3582 11.0917 33.9915 11.025C34.0082 10.8417 34.0165 10.6917 34.0165 10.575C34.0332 10.4417 34.0415 10.2834 34.0415 10.1C34.0415 9.56669 33.9415 9.14169 33.7415 8.82502C33.5415 8.50836 33.1249 8.35002 32.4915 8.35002C32.1415 8.35002 31.8582 8.40002 31.6415 8.50002C31.4249 8.60002 31.2499 8.74169 31.1165 8.92502C30.9832 9.09169 30.8749 9.30002 30.7915 9.55002C30.7082 9.80002 30.6332 10.075 30.5665 10.375C30.5332 10.525 30.4582 10.625 30.3415 10.675C30.2249 10.7084 30.0415 10.725 29.7915 10.725C28.0915 10.725 27.2415 10.0834 27.2415 8.80002C27.2415 8.28336 27.3582 7.79169 27.5915 7.32502C27.8415 6.85836 28.1999 6.45836 28.6665 6.12502C29.1499 5.77502 29.7499 5.50002 30.4665 5.30002C31.1832 5.10002 32.0165 5.00002 32.9665 5.00002C34.8165 5.00002 36.1582 5.38336 36.9915 6.15002C37.8249 6.91669 38.2415 8.00002 38.2415 9.40002C38.2415 9.58336 38.2165 9.91669 38.1665 10.4C38.1332 10.8667 38.0832 11.3667 38.0165 11.9C37.9665 12.4167 37.9165 12.9084 37.8665 13.375C37.8332 13.8417 37.8165 14.1667 37.8165 14.35C37.8165 14.7667 37.8915 15.0667 38.0415 15.25C38.1915 15.4167 38.3582 15.5334 38.5415 15.6C38.7415 15.6667 38.9165 15.7167 39.0665 15.75C39.2165 15.7834 39.2915 15.8667 39.2915 16C39.2915 16.3667 39.2415 16.7417 39.1415 17.125C39.0415 17.5084 38.8749 17.8584 38.6415 18.175C38.4249 18.4917 38.1165 18.75 37.7165 18.95C37.3332 19.15 36.8582 19.25 36.2915 19.25C35.4915 19.25 34.8915 19.0584 34.4915 18.675C34.0915 18.2917 33.8249 17.7584 33.6915 17.075C33.2915 17.6584 32.7665 18.1667 32.1165 18.6C31.4832 19.0334 30.6499 19.25 29.6165 19.25C29.1165 19.25 28.6415 19.1917 28.1915 19.075C27.7582 18.9584 27.3749 18.7667 27.0415 18.5C26.7249 18.2334 26.4665 17.8917 26.2665 17.475C26.0832 17.0417 25.9915 16.525 25.9915 15.925ZM33.7665 13.075C33.3332 13.075 32.9082 13.1084 32.4915 13.175C32.0749 13.2417 31.6999 13.35 31.3665 13.5C31.0499 13.6334 30.7915 13.8167 30.5915 14.05C30.3915 14.2834 30.2915 14.5667 30.2915 14.9C30.2915 15.2834 30.4082 15.55 30.6415 15.7C30.8915 15.85 31.1582 15.925 31.4415 15.925C31.7082 15.925 31.9749 15.8667 32.2415 15.75C32.5082 15.6334 32.7415 15.4584 32.9415 15.225C33.1582 14.975 33.3415 14.675 33.4915 14.325C33.6415 13.975 33.7332 13.5584 33.7665 13.075Z" fill="#EDA1A1"/>
<path d="M45.9777 8.62502C45.9277 9.25836 45.8694 9.88336 45.8027 10.5C45.7527 11.1167 45.7027 11.7 45.6527 12.25C45.6027 12.8 45.561 13.2917 45.5277 13.725C45.511 14.1584 45.5027 14.4917 45.5027 14.725C45.5027 15.1584 45.5527 15.45 45.6527 15.6C45.7527 15.7334 45.9194 15.8 46.1527 15.8C46.336 15.8 46.4944 15.7667 46.6277 15.7C46.761 15.6334 46.886 15.5584 47.0027 15.475C47.1194 15.3917 47.2194 15.3167 47.3027 15.25C47.4027 15.1834 47.511 15.15 47.6277 15.15C47.7444 15.15 47.8527 15.2167 47.9527 15.35C48.0527 15.4834 48.1027 15.7917 48.1027 16.275C48.1027 17.1917 47.8527 17.9167 47.3527 18.45C46.8527 18.9834 45.9944 19.25 44.7777 19.25C43.5777 19.25 42.686 18.975 42.1027 18.425C41.536 17.8584 41.2527 17 41.2527 15.85C41.2527 15.6 41.261 15.3084 41.2777 14.975C41.311 14.625 41.3527 14.175 41.4027 13.625C41.4527 13.075 41.511 12.4 41.5777 11.6C41.661 10.8 41.7444 9.80836 41.8277 8.62502H40.5027C40.3694 8.62502 40.286 8.60002 40.2527 8.55002C40.236 8.48336 40.2277 8.39169 40.2277 8.27502L40.3027 7.00002C40.3194 6.78336 40.3444 6.57502 40.3777 6.37502C40.4277 6.15836 40.511 5.96669 40.6277 5.80002C40.761 5.63336 40.9444 5.50002 41.1777 5.40002C41.411 5.30002 41.7194 5.25002 42.1027 5.25002C42.2194 4.95002 42.3527 4.59169 42.5027 4.17502C42.6527 3.75836 42.8027 3.35836 42.9527 2.97502C43.1027 2.57502 43.2444 2.24169 43.3777 1.97502C43.5277 1.70836 43.661 1.57502 43.7777 1.57502H44.5027C45.2027 1.57502 45.686 1.79169 45.9527 2.22502C46.2194 2.65836 46.3527 3.17502 46.3527 3.77502C46.3527 4.10836 46.3277 4.60002 46.2777 5.25002H48.9027C49.1694 5.25002 49.3027 5.36669 49.3027 5.60002L49.2027 6.95002C49.1694 7.45002 49.0277 7.85836 48.7777 8.17502C48.5444 8.47502 48.0527 8.62502 47.3027 8.62502H45.9777Z" fill="#EDA1A1"/>
<path d="M55.9664 19.25C55.2331 19.25 54.4997 19.1584 53.7664 18.975C53.0497 18.7917 52.3997 18.475 51.8164 18.025C51.2497 17.575 50.7831 16.975 50.4164 16.225C50.0497 15.475 49.8664 14.5334 49.8664 13.4C49.8664 12.9834 49.8997 12.4834 49.9664 11.9C50.0331 11.3167 50.1581 10.7167 50.3414 10.1C50.5414 9.48336 50.8081 8.87502 51.1414 8.27502C51.4914 7.65836 51.9414 7.10836 52.4914 6.62502C53.0414 6.14169 53.7081 5.75002 54.4914 5.45002C55.2747 5.15002 56.2081 5.00002 57.2914 5.00002C58.1581 5.00002 58.8914 5.10002 59.4914 5.30002C60.0914 5.50002 60.5747 5.77502 60.9414 6.12502C61.3081 6.45836 61.5747 6.85002 61.7414 7.30002C61.9081 7.75002 61.9914 8.23336 61.9914 8.75002C61.9914 9.51669 61.8331 10.1667 61.5164 10.7C61.2164 11.2334 60.8164 11.6834 60.3164 12.05C59.8331 12.4 59.2914 12.675 58.6914 12.875C58.0914 13.075 57.4997 13.2334 56.9164 13.35C56.3331 13.45 55.7914 13.5167 55.2914 13.55C54.8081 13.5667 54.4331 13.575 54.1664 13.575C54.1664 13.8917 54.2081 14.2084 54.2914 14.525C54.3914 14.825 54.5331 15.0917 54.7164 15.325C54.8997 15.5584 55.1414 15.75 55.4414 15.9C55.7414 16.05 56.1081 16.125 56.5414 16.125C56.9747 16.125 57.3081 16.0584 57.5414 15.925C57.7914 15.775 57.9914 15.6167 58.1414 15.45C58.2914 15.2667 58.4164 15.1084 58.5164 14.975C58.6331 14.825 58.7831 14.75 58.9664 14.75C59.0497 14.75 59.1914 14.775 59.3914 14.825C59.6081 14.8584 59.8247 14.9417 60.0414 15.075C60.2581 15.2084 60.4497 15.3917 60.6164 15.625C60.7831 15.8584 60.8664 16.1584 60.8664 16.525C60.8664 17.0084 60.7164 17.425 60.4164 17.775C60.1164 18.125 59.7247 18.4084 59.2414 18.625C58.7747 18.8417 58.2497 19 57.6664 19.1C57.0831 19.2 56.5164 19.25 55.9664 19.25ZM56.4414 8.32502C56.0747 8.32502 55.7581 8.43336 55.4914 8.65002C55.2414 8.85002 55.0247 9.10836 54.8414 9.42502C54.6747 9.74169 54.5414 10.0917 54.4414 10.475C54.3581 10.8584 54.2914 11.225 54.2414 11.575C55.2747 11.5584 56.1081 11.3834 56.7414 11.05C57.3914 10.7167 57.7164 10.2417 57.7164 9.62502C57.7164 9.29169 57.6081 8.99169 57.3914 8.72502C57.1914 8.45836 56.8747 8.32502 56.4414 8.32502Z" fill="#EDA1A1"/>
<path d="M71.3463 11.225C71.2463 11.225 71.1297 11.225 70.9963 11.225C70.8797 11.2084 70.763 11.1917 70.6463 11.175C70.5297 11.1417 70.4297 11.1084 70.3463 11.075C70.263 11.025 70.2213 10.9667 70.2213 10.9C70.2213 10.6834 70.2297 10.4834 70.2463 10.3C70.263 10.1167 70.2713 9.92502 70.2713 9.72502C70.2713 9.35836 70.2213 9.05836 70.1213 8.82502C70.0213 8.59169 69.8213 8.47502 69.5213 8.47502C69.0547 8.47502 68.663 8.78336 68.3463 9.40002C68.0463 10 67.8547 10.9084 67.7713 12.125C67.738 12.6584 67.688 13.2667 67.6213 13.95C67.5713 14.6167 67.5213 15.2667 67.4713 15.9C67.4213 16.5167 67.3797 17.0667 67.3463 17.55C67.313 18.0334 67.2963 18.35 67.2963 18.5C67.2963 18.6667 67.238 18.7917 67.1213 18.875C67.0047 18.9584 66.8797 19 66.7463 19H65.8463C65.3297 19 64.9047 18.95 64.5713 18.85C64.2547 18.7334 63.9963 18.575 63.7963 18.375C63.613 18.175 63.4797 17.9334 63.3963 17.65C63.3297 17.35 63.2963 17.0084 63.2963 16.625C63.2963 16.375 63.3047 16.025 63.3213 15.575C63.3547 15.1084 63.4047 14.475 63.4713 13.675C63.538 12.8584 63.613 11.8334 63.6963 10.6C63.7963 9.35002 63.913 7.80836 64.0463 5.97502C64.0797 5.49169 64.2547 5.25002 64.5713 5.25002H65.5463C66.013 5.25002 66.4047 5.30002 66.7213 5.40002C67.038 5.50002 67.2963 5.64169 67.4963 5.82502C67.6963 5.99169 67.838 6.19169 67.9213 6.42502C68.0213 6.65836 68.088 6.90002 68.1213 7.15002C68.3213 6.76669 68.5547 6.44169 68.8213 6.17502C69.1047 5.89169 69.3963 5.66669 69.6963 5.50002C69.9963 5.31669 70.3047 5.19169 70.6213 5.12502C70.938 5.04169 71.2297 5.00002 71.4963 5.00002C71.813 5.00002 72.1297 5.05836 72.4463 5.17502C72.7797 5.29169 73.0797 5.46669 73.3463 5.70002C73.613 5.93336 73.8213 6.23336 73.9713 6.60002C74.138 6.96669 74.2213 7.40002 74.2213 7.90002C74.2213 8.35002 74.1547 8.77502 74.0213 9.17502C73.888 9.57502 73.6963 9.93336 73.4463 10.25C73.1963 10.55 72.888 10.7917 72.5213 10.975C72.1713 11.1417 71.7797 11.225 71.3463 11.225Z" fill="#EDA1A1"/>
<path d="M83.5335 16.8C83.5335 16.4334 83.5585 15.9584 83.6085 15.375C83.6751 14.775 83.7335 14.15 83.7835 13.5C83.8502 12.8334 83.9085 12.1917 83.9585 11.575C84.0251 10.9584 84.0585 10.4417 84.0585 10.025C84.0585 9.59169 83.9501 9.20836 83.7335 8.87502C83.5335 8.52502 83.1335 8.35002 82.5335 8.35002C81.9502 8.35002 81.4668 8.49169 81.0835 8.77502C80.7001 9.05836 80.3751 9.57502 80.1085 10.325C79.8585 11.075 79.6501 12.1084 79.4835 13.425C79.3168 14.7417 79.1585 16.4334 79.0085 18.5C78.9918 18.7 78.9502 18.8334 78.8835 18.9C78.8168 18.9667 78.6751 19 78.4585 19H77.5585C77.0418 19 76.6168 18.95 76.2835 18.85C75.9668 18.7334 75.7085 18.575 75.5085 18.375C75.3252 18.175 75.1918 17.9334 75.1085 17.65C75.0418 17.35 75.0085 17.0084 75.0085 16.625C75.0085 16.375 75.0168 16.025 75.0335 15.575C75.0668 15.1084 75.1168 14.475 75.1835 13.675C75.2502 12.8584 75.3252 11.8334 75.4085 10.6C75.5085 9.35002 75.6252 7.80836 75.7585 5.97502C75.7752 5.60836 75.8168 5.39169 75.8835 5.32502C75.9335 5.27502 76.0668 5.25002 76.2835 5.25002H77.2585C77.7585 5.25002 78.1668 5.30836 78.4835 5.42502C78.8168 5.54169 79.0835 5.70002 79.2835 5.90002C79.4835 6.08336 79.6251 6.30836 79.7085 6.57502C79.7918 6.82502 79.8418 7.08336 79.8585 7.35002C80.3751 6.46669 80.9668 5.85836 81.6335 5.52502C82.3002 5.17502 83.1335 5.00002 84.1335 5.00002C84.8335 5.00002 85.4418 5.07502 85.9585 5.22502C86.4751 5.37502 86.9001 5.63336 87.2335 6.00002C87.5835 6.35002 87.8418 6.81669 88.0085 7.40002C88.1752 7.96669 88.2585 8.67502 88.2585 9.52502C88.2585 9.79169 88.2418 10.175 88.2085 10.675C88.1751 11.175 88.1335 11.725 88.0835 12.325C88.0335 12.9084 87.9752 13.525 87.9085 14.175C87.8585 14.8084 87.8085 15.4 87.7585 15.95C87.7085 16.5 87.6668 16.9834 87.6335 17.4C87.6002 17.8167 87.5835 18.0917 87.5835 18.225C87.5835 18.5917 87.5418 18.8167 87.4585 18.9C87.3752 18.9667 87.1918 19 86.9085 19H86.1085C85.5751 19 85.1418 18.95 84.8085 18.85C84.4752 18.75 84.2168 18.6084 84.0335 18.425C83.8502 18.2417 83.7168 18.0167 83.6335 17.75C83.5668 17.4667 83.5335 17.15 83.5335 16.8Z" fill="#EDA1A1"/>
<path d="M92.8363 19C92.3196 19 91.8946 18.95 91.5613 18.85C91.2446 18.7334 90.9863 18.575 90.7863 18.375C90.6029 18.175 90.4696 17.9334 90.3863 17.65C90.3196 17.35 90.2863 17.0084 90.2863 16.625C90.2863 16.375 90.2946 16.025 90.3113 15.575C90.3446 15.1084 90.3946 14.475 90.4613 13.675C90.5279 12.8584 90.6029 11.8334 90.6863 10.6C90.7863 9.35002 90.9029 7.80836 91.0363 5.97502C91.0529 5.60836 91.0946 5.39169 91.1613 5.32502C91.2113 5.27502 91.3446 5.25002 91.5613 5.25002H92.5363C93.0529 5.25002 93.4696 5.30002 93.7863 5.40002C94.1196 5.50002 94.3779 5.65002 94.5613 5.85002C94.7613 6.05002 94.8946 6.29169 94.9613 6.57502C95.0446 6.85836 95.0863 7.17502 95.0863 7.52502C95.0863 7.77502 95.0696 8.15002 95.0363 8.65002C95.0029 9.15002 94.9529 9.83336 94.8863 10.7C94.8363 11.55 94.7613 12.6167 94.6613 13.9C94.5613 15.1667 94.4363 16.7 94.2863 18.5C94.2696 18.7 94.2279 18.8334 94.1613 18.9C94.0946 18.9667 93.9529 19 93.7363 19H92.8363ZM91.0613 2.30002C91.0613 1.63336 91.3029 1.10836 91.7863 0.725024C92.2696 0.341691 92.9196 0.150024 93.7363 0.150024C94.4529 0.150024 94.9696 0.300024 95.2863 0.600023C95.6196 0.883357 95.7863 1.26669 95.7863 1.75002C95.7863 2.36669 95.5529 2.88336 95.0863 3.30002C94.6363 3.70002 93.9696 3.90002 93.0863 3.90002C91.7363 3.90002 91.0613 3.36669 91.0613 2.30002Z" fill="#EDA1A1"/>
<path d="M102.442 8.62502C102.392 9.25836 102.333 9.88336 102.267 10.5C102.217 11.1167 102.167 11.7 102.117 12.25C102.067 12.8 102.025 13.2917 101.992 13.725C101.975 14.1584 101.967 14.4917 101.967 14.725C101.967 15.1584 102.017 15.45 102.117 15.6C102.217 15.7334 102.383 15.8 102.617 15.8C102.8 15.8 102.958 15.7667 103.092 15.7C103.225 15.6334 103.35 15.5584 103.467 15.475C103.583 15.3917 103.683 15.3167 103.767 15.25C103.867 15.1834 103.975 15.15 104.092 15.15C104.208 15.15 104.317 15.2167 104.417 15.35C104.517 15.4834 104.567 15.7917 104.567 16.275C104.567 17.1917 104.317 17.9167 103.817 18.45C103.317 18.9834 102.458 19.25 101.242 19.25C100.042 19.25 99.1501 18.975 98.5668 18.425C98.0001 17.8584 97.7168 17 97.7168 15.85C97.7168 15.6 97.7251 15.3084 97.7418 14.975C97.7751 14.625 97.8168 14.175 97.8668 13.625C97.9168 13.075 97.9751 12.4 98.0418 11.6C98.1251 10.8 98.2084 9.80836 98.2918 8.62502H96.9668C96.8334 8.62502 96.7501 8.60002 96.7168 8.55002C96.7001 8.48336 96.6918 8.39169 96.6918 8.27502L96.7668 7.00002C96.7834 6.78336 96.8084 6.57502 96.8418 6.37502C96.8918 6.15836 96.9751 5.96669 97.0918 5.80002C97.2251 5.63336 97.4084 5.50002 97.6418 5.40002C97.8751 5.30002 98.1834 5.25002 98.5668 5.25002C98.6834 4.95002 98.8168 4.59169 98.9668 4.17502C99.1168 3.75836 99.2668 3.35836 99.4168 2.97502C99.5668 2.57502 99.7084 2.24169 99.8418 1.97502C99.9918 1.70836 100.125 1.57502 100.242 1.57502H100.967C101.667 1.57502 102.15 1.79169 102.417 2.22502C102.683 2.65836 102.817 3.17502 102.817 3.77502C102.817 4.10836 102.792 4.60002 102.742 5.25002H105.367C105.633 5.25002 105.767 5.36669 105.767 5.60002L105.667 6.95002C105.633 7.45002 105.492 7.85836 105.242 8.17502C105.008 8.47502 104.517 8.62502 103.767 8.62502H102.442Z" fill="#EDA1A1"/>
<path d="M111.601 7.55002C111.601 7.93336 111.576 8.39169 111.526 8.92502C111.476 9.44169 111.418 9.96669 111.351 10.5C111.301 11.0167 111.251 11.5084 111.201 11.975C111.151 12.425 111.126 12.775 111.126 13.025C111.126 13.6584 111.276 14.1334 111.576 14.45C111.893 14.75 112.276 14.9 112.726 14.9C113.51 14.9 114.135 14.4917 114.601 13.675C115.068 12.8584 115.36 11.775 115.476 10.425L115.876 5.75002C115.893 5.56669 115.951 5.44169 116.051 5.37502C116.168 5.29169 116.293 5.25002 116.426 5.25002H117.326C117.676 5.25002 118.001 5.28336 118.301 5.35002C118.618 5.40002 118.893 5.50836 119.126 5.67502C119.36 5.82502 119.543 6.03336 119.676 6.30002C119.81 6.56669 119.876 6.90836 119.876 7.32502C119.876 7.49169 119.86 7.80836 119.826 8.27502C119.81 8.72502 119.768 9.38336 119.701 10.25C119.651 11.1 119.576 12.1834 119.476 13.5C119.376 14.8 119.26 16.3917 119.126 18.275C119.043 19.375 118.793 20.2834 118.376 21C117.976 21.7334 117.468 22.3084 116.851 22.725C116.235 23.1584 115.543 23.4584 114.776 23.625C114.01 23.7917 113.226 23.875 112.426 23.875C111.576 23.875 110.793 23.8 110.076 23.65C109.376 23.5 108.768 23.2917 108.251 23.025C107.735 22.7584 107.326 22.45 107.026 22.1C106.743 21.75 106.601 21.375 106.601 20.975C106.601 20.6584 106.668 20.3834 106.801 20.15C106.951 19.9167 107.143 19.725 107.376 19.575C107.61 19.425 107.876 19.3084 108.176 19.225C108.493 19.1584 108.818 19.125 109.151 19.125C109.318 19.125 109.435 19.2084 109.501 19.375C109.585 19.5417 109.701 19.725 109.851 19.925C110.018 20.1417 110.276 20.3334 110.626 20.5C110.976 20.6667 111.501 20.75 112.201 20.75C112.818 20.75 113.318 20.6 113.701 20.3C114.085 20 114.376 19.6167 114.576 19.15C114.793 18.6834 114.935 18.175 115.001 17.625C115.068 17.075 115.101 16.55 115.101 16.05C114.835 16.5167 114.535 16.9 114.201 17.2C113.885 17.4834 113.551 17.7084 113.201 17.875C112.851 18.025 112.501 18.125 112.151 18.175C111.801 18.225 111.468 18.25 111.151 18.25C110.535 18.25 109.968 18.1667 109.451 18C108.951 17.8334 108.518 17.5667 108.151 17.2C107.785 16.8167 107.501 16.325 107.301 15.725C107.101 15.125 107.001 14.4 107.001 13.55C107.001 13.2334 107.018 12.8167 107.051 12.3C107.085 11.7667 107.126 11.175 107.176 10.525C107.226 9.85836 107.276 9.14169 107.326 8.37502C107.393 7.60836 107.46 6.82502 107.526 6.02502C107.56 5.50836 107.793 5.25002 108.226 5.25002H109.026C109.56 5.25002 109.993 5.30002 110.326 5.40002C110.66 5.50002 110.918 5.65002 111.101 5.85002C111.301 6.03336 111.435 6.27502 111.501 6.57502C111.568 6.85836 111.601 7.18336 111.601 7.55002Z" fill="#EDA1A1"/>
<path d="M138.855 19C137.921 19 137.255 18.8167 136.855 18.45C136.455 18.0834 136.255 17.5584 136.255 16.875C136.255 16.5084 136.288 15.8584 136.355 14.925C136.421 13.9917 136.496 12.9417 136.58 11.775H132.13L131.63 18.625C131.613 18.7584 131.58 18.8584 131.53 18.925C131.48 18.975 131.38 19 131.23 19H129.855C128.921 19 128.255 18.8167 127.855 18.45C127.455 18.0834 127.255 17.5584 127.255 16.875C127.255 16.5417 127.28 15.975 127.33 15.175C127.38 14.3584 127.446 13.4334 127.53 12.4C127.613 11.3667 127.696 10.275 127.78 9.12502C127.863 7.97502 127.946 6.89169 128.03 5.87502C128.113 4.85836 128.18 3.96669 128.23 3.20002C128.28 2.43336 128.305 1.90836 128.305 1.62502C128.305 1.37502 128.438 1.25002 128.705 1.25002H130.08C131.096 1.25002 131.78 1.46669 132.13 1.90002C132.48 2.33336 132.655 2.97502 132.655 3.82502C132.655 3.95836 132.63 4.43336 132.58 5.25002C132.53 6.05002 132.463 7.01669 132.38 8.15002H136.855C136.905 7.41669 136.955 6.70002 137.005 6.00002C137.071 5.30002 137.121 4.65836 137.155 4.07502C137.205 3.49169 137.238 2.99169 137.255 2.57502C137.288 2.14169 137.305 1.82502 137.305 1.62502C137.305 1.37502 137.438 1.25002 137.705 1.25002H139.08C140.096 1.25002 140.78 1.46669 141.13 1.90002C141.48 2.33336 141.655 2.97502 141.655 3.82502C141.655 3.90836 141.638 4.17502 141.605 4.62502C141.588 5.07502 141.555 5.64169 141.505 6.32502C141.455 7.00836 141.396 7.77502 141.33 8.62502C141.28 9.45836 141.221 10.3167 141.155 11.2C141.105 12.0834 141.046 12.95 140.98 13.8C140.93 14.6334 140.88 15.3917 140.83 16.075C140.78 16.7584 140.738 17.3334 140.705 17.8C140.671 18.25 140.646 18.525 140.63 18.625C140.613 18.7584 140.58 18.8584 140.53 18.925C140.48 18.975 140.38 19 140.23 19H138.855Z" fill="#EDA1A1"/>
<path d="M149.103 19.25C147.953 19.25 146.994 19.0917 146.228 18.775C145.478 18.4417 144.878 17.9917 144.428 17.425C143.978 16.8584 143.661 16.2 143.478 15.45C143.294 14.6834 143.203 13.8667 143.203 13C143.203 12 143.319 11.025 143.553 10.075C143.803 9.10836 144.219 8.25002 144.803 7.50002C145.386 6.75002 146.153 6.15002 147.103 5.70002C148.069 5.23336 149.269 5.00002 150.703 5.00002C152.803 5.00002 154.303 5.51669 155.203 6.55002C156.119 7.56669 156.578 9.00002 156.578 10.85C156.578 11.3667 156.536 11.9417 156.453 12.575C156.386 13.1917 156.244 13.8084 156.028 14.425C155.828 15.0417 155.544 15.6417 155.178 16.225C154.828 16.8084 154.378 17.325 153.828 17.775C153.278 18.225 152.611 18.5834 151.828 18.85C151.061 19.1167 150.153 19.25 149.103 19.25ZM150.278 8.32502C149.644 8.32502 149.136 8.49169 148.753 8.82502C148.386 9.14169 148.103 9.53336 147.903 10C147.719 10.45 147.594 10.9334 147.528 11.45C147.478 11.95 147.453 12.375 147.453 12.725C147.453 13.825 147.628 14.6334 147.978 15.15C148.328 15.6667 148.828 15.925 149.478 15.925C150.061 15.925 150.536 15.7417 150.903 15.375C151.286 15.0084 151.578 14.5667 151.778 14.05C151.994 13.5334 152.136 12.9917 152.203 12.425C152.286 11.8584 152.328 11.3834 152.328 11C152.328 10.1667 152.169 9.51669 151.853 9.05002C151.553 8.56669 151.028 8.32502 150.278 8.32502Z" fill="#EDA1A1"/>
<path d="M164.043 5.00002C165.46 5.00002 166.502 5.28336 167.168 5.85002C167.835 6.40002 168.168 7.10836 168.168 7.97502C168.168 8.70836 167.935 9.26669 167.468 9.65002C167.018 10.0334 166.36 10.225 165.493 10.225C165.26 10.225 165.102 10.2 165.018 10.15C164.935 10.1 164.893 10.0084 164.893 9.87502C164.893 9.72502 164.877 9.55836 164.843 9.37502C164.827 9.17502 164.768 8.99169 164.668 8.82502C164.585 8.64169 164.443 8.49169 164.243 8.37502C164.06 8.25836 163.793 8.20002 163.443 8.20002C162.977 8.20002 162.602 8.31669 162.318 8.55002C162.035 8.76669 161.893 9.04169 161.893 9.37502C161.893 9.72502 162.035 10.0084 162.318 10.225C162.618 10.425 162.985 10.6167 163.418 10.8C163.868 10.9834 164.352 11.175 164.868 11.375C165.385 11.5584 165.86 11.8084 166.293 12.125C166.743 12.4417 167.11 12.8417 167.393 13.325C167.693 13.7917 167.843 14.4 167.843 15.15C167.843 16.35 167.418 17.3334 166.568 18.1C165.718 18.8667 164.443 19.25 162.743 19.25C162.277 19.25 161.735 19.2084 161.118 19.125C160.518 19.0584 159.943 18.95 159.393 18.8C158.843 18.6334 158.377 18.4167 157.993 18.15C157.627 17.8834 157.443 17.55 157.443 17.15C157.443 17 157.468 16.8167 157.518 16.6C157.585 16.3834 157.677 16.175 157.793 15.975C157.927 15.775 158.077 15.6084 158.243 15.475C158.427 15.325 158.643 15.25 158.893 15.25C159.093 15.25 159.277 15.3 159.443 15.4C159.61 15.5 159.802 15.6084 160.018 15.725C160.252 15.825 160.535 15.925 160.868 16.025C161.202 16.125 161.643 16.175 162.193 16.175C162.61 16.175 162.977 16.125 163.293 16.025C163.627 15.925 163.793 15.7 163.793 15.35C163.793 15.0334 163.66 14.7834 163.393 14.6C163.127 14.4 162.785 14.2167 162.368 14.05C161.968 13.8834 161.527 13.7084 161.043 13.525C160.577 13.325 160.135 13.0667 159.718 12.75C159.318 12.4334 158.985 12.0334 158.718 11.55C158.452 11.05 158.318 10.4084 158.318 9.62502C158.318 8.77502 158.485 8.05836 158.818 7.47502C159.168 6.87502 159.61 6.39169 160.143 6.02502C160.693 5.65836 161.31 5.40002 161.993 5.25002C162.677 5.08336 163.36 5.00002 164.043 5.00002Z" fill="#EDA1A1"/>
<path d="M178.386 5.00002C179.952 5.00002 181.127 5.48336 181.911 6.45002C182.711 7.41669 183.111 8.94169 183.111 11.025C183.111 12.325 182.961 13.4834 182.661 14.5C182.361 15.5167 181.944 16.3834 181.411 17.1C180.877 17.8 180.252 18.3334 179.536 18.7C178.819 19.0667 178.044 19.25 177.211 19.25C176.327 19.25 175.636 19.0584 175.136 18.675C174.636 18.2917 174.244 17.75 173.961 17.05C173.911 17.65 173.869 18.1084 173.836 18.425C173.802 18.7417 173.777 18.9917 173.761 19.175C173.744 19.375 173.727 19.55 173.711 19.7C173.711 19.85 173.694 20.05 173.661 20.3C173.644 20.55 173.619 20.8917 173.586 21.325C173.552 21.7584 173.502 22.3584 173.436 23.125C173.419 23.325 173.377 23.4584 173.311 23.525C173.244 23.5917 173.102 23.625 172.886 23.625H171.986C171.469 23.625 171.044 23.5667 170.711 23.45C170.394 23.35 170.136 23.2 169.936 23C169.752 22.8 169.619 22.55 169.536 22.25C169.469 21.9667 169.436 21.6334 169.436 21.25C169.436 21.0834 169.461 20.6334 169.511 19.9C169.561 19.1667 169.619 18.2917 169.686 17.275C169.769 16.2417 169.852 15.1334 169.936 13.95C170.036 12.7667 170.127 11.6417 170.211 10.575C170.294 9.49169 170.361 8.53336 170.411 7.70002C170.477 6.86669 170.527 6.29169 170.561 5.97502C170.577 5.60836 170.619 5.39169 170.686 5.32502C170.736 5.27502 170.869 5.25002 171.086 5.25002H172.061C172.961 5.25002 173.611 5.44169 174.011 5.82502C174.427 6.19169 174.636 6.63336 174.636 7.15002C175.019 6.38336 175.511 5.83336 176.111 5.50002C176.727 5.16669 177.486 5.00002 178.386 5.00002ZM176.561 8.32502C175.711 8.32502 175.086 8.69169 174.686 9.42502C174.286 10.1584 174.086 11.1584 174.086 12.425C174.086 12.8584 174.111 13.2834 174.161 13.7C174.227 14.1167 174.336 14.4917 174.486 14.825C174.636 15.1584 174.836 15.425 175.086 15.625C175.352 15.825 175.686 15.925 176.086 15.925C176.802 15.925 177.402 15.575 177.886 14.875C178.369 14.175 178.611 13.075 178.611 11.575C178.611 11.1584 178.577 10.7584 178.511 10.375C178.461 9.97502 178.361 9.62502 178.211 9.32502C178.061 9.02502 177.852 8.78336 177.586 8.60002C177.319 8.41669 176.977 8.32502 176.561 8.32502Z" fill="#EDA1A1"/>
<path d="M187.393 19C186.876 19 186.451 18.95 186.118 18.85C185.801 18.7334 185.543 18.575 185.343 18.375C185.159 18.175 185.026 17.9334 184.943 17.65C184.876 17.35 184.843 17.0084 184.843 16.625C184.843 16.375 184.851 16.025 184.868 15.575C184.901 15.1084 184.951 14.475 185.018 13.675C185.084 12.8584 185.159 11.8334 185.243 10.6C185.343 9.35002 185.459 7.80836 185.593 5.97502C185.609 5.60836 185.651 5.39169 185.718 5.32502C185.768 5.27502 185.901 5.25002 186.118 5.25002H187.093C187.609 5.25002 188.026 5.30002 188.343 5.40002C188.676 5.50002 188.934 5.65002 189.118 5.85002C189.318 6.05002 189.451 6.29169 189.518 6.57502C189.601 6.85836 189.643 7.17502 189.643 7.52502C189.643 7.77502 189.626 8.15002 189.593 8.65002C189.559 9.15002 189.509 9.83336 189.443 10.7C189.393 11.55 189.318 12.6167 189.218 13.9C189.118 15.1667 188.993 16.7 188.843 18.5C188.826 18.7 188.784 18.8334 188.718 18.9C188.651 18.9667 188.509 19 188.293 19H187.393ZM185.618 2.30002C185.618 1.63336 185.859 1.10836 186.343 0.725024C186.826 0.341691 187.476 0.150024 188.293 0.150024C189.009 0.150024 189.526 0.300024 189.843 0.600023C190.176 0.883357 190.343 1.26669 190.343 1.75002C190.343 2.36669 190.109 2.88336 189.643 3.30002C189.193 3.70002 188.526 3.90002 187.643 3.90002C186.293 3.90002 185.618 3.36669 185.618 2.30002Z" fill="#EDA1A1"/>
<path d="M196.998 8.62502C196.948 9.25836 196.89 9.88336 196.823 10.5C196.773 11.1167 196.723 11.7 196.673 12.25C196.623 12.8 196.581 13.2917 196.548 13.725C196.531 14.1584 196.523 14.4917 196.523 14.725C196.523 15.1584 196.573 15.45 196.673 15.6C196.773 15.7334 196.94 15.8 197.173 15.8C197.356 15.8 197.515 15.7667 197.648 15.7C197.781 15.6334 197.906 15.5584 198.023 15.475C198.14 15.3917 198.24 15.3167 198.323 15.25C198.423 15.1834 198.531 15.15 198.648 15.15C198.765 15.15 198.873 15.2167 198.973 15.35C199.073 15.4834 199.123 15.7917 199.123 16.275C199.123 17.1917 198.873 17.9167 198.373 18.45C197.873 18.9834 197.015 19.25 195.798 19.25C194.598 19.25 193.706 18.975 193.123 18.425C192.556 17.8584 192.273 17 192.273 15.85C192.273 15.6 192.281 15.3084 192.298 14.975C192.331 14.625 192.373 14.175 192.423 13.625C192.473 13.075 192.531 12.4 192.598 11.6C192.681 10.8 192.765 9.80836 192.848 8.62502H191.523C191.39 8.62502 191.306 8.60002 191.273 8.55002C191.256 8.48336 191.248 8.39169 191.248 8.27502L191.323 7.00002C191.34 6.78336 191.365 6.57502 191.398 6.37502C191.448 6.15836 191.531 5.96669 191.648 5.80002C191.781 5.63336 191.965 5.50002 192.198 5.40002C192.431 5.30002 192.74 5.25002 193.123 5.25002C193.24 4.95002 193.373 4.59169 193.523 4.17502C193.673 3.75836 193.823 3.35836 193.973 2.97502C194.123 2.57502 194.265 2.24169 194.398 1.97502C194.548 1.70836 194.681 1.57502 194.798 1.57502H195.523C196.223 1.57502 196.706 1.79169 196.973 2.22502C197.24 2.65836 197.373 3.17502 197.373 3.77502C197.373 4.10836 197.348 4.60002 197.298 5.25002H199.923C200.19 5.25002 200.323 5.36669 200.323 5.60002L200.223 6.95002C200.19 7.45002 200.048 7.85836 199.798 8.17502C199.565 8.47502 199.073 8.62502 198.323 8.62502H196.998Z" fill="#EDA1A1"/>
<path d="M200.633 15.925C200.633 14.425 201.308 13.25 202.658 12.4C204.008 11.55 205.999 11.0917 208.633 11.025C208.649 10.8417 208.658 10.6917 208.658 10.575C208.674 10.4417 208.683 10.2834 208.683 10.1C208.683 9.56669 208.583 9.14169 208.383 8.82502C208.183 8.50836 207.766 8.35002 207.133 8.35002C206.783 8.35002 206.499 8.40002 206.283 8.50002C206.066 8.60002 205.891 8.74169 205.758 8.92502C205.624 9.09169 205.516 9.30002 205.433 9.55002C205.349 9.80002 205.274 10.075 205.208 10.375C205.174 10.525 205.099 10.625 204.983 10.675C204.866 10.7084 204.683 10.725 204.433 10.725C202.733 10.725 201.883 10.0834 201.883 8.80002C201.883 8.28336 201.999 7.79169 202.233 7.32502C202.483 6.85836 202.841 6.45836 203.308 6.12502C203.791 5.77502 204.391 5.50002 205.108 5.30002C205.824 5.10002 206.658 5.00002 207.608 5.00002C209.458 5.00002 210.799 5.38336 211.633 6.15002C212.466 6.91669 212.883 8.00002 212.883 9.40002C212.883 9.58336 212.858 9.91669 212.808 10.4C212.774 10.8667 212.724 11.3667 212.658 11.9C212.608 12.4167 212.558 12.9084 212.508 13.375C212.474 13.8417 212.458 14.1667 212.458 14.35C212.458 14.7667 212.533 15.0667 212.683 15.25C212.833 15.4167 212.999 15.5334 213.183 15.6C213.383 15.6667 213.558 15.7167 213.708 15.75C213.858 15.7834 213.933 15.8667 213.933 16C213.933 16.3667 213.883 16.7417 213.783 17.125C213.683 17.5084 213.516 17.8584 213.283 18.175C213.066 18.4917 212.758 18.75 212.358 18.95C211.974 19.15 211.499 19.25 210.933 19.25C210.133 19.25 209.533 19.0584 209.133 18.675C208.733 18.2917 208.466 17.7584 208.333 17.075C207.933 17.6584 207.408 18.1667 206.758 18.6C206.124 19.0334 205.291 19.25 204.258 19.25C203.758 19.25 203.283 19.1917 202.833 19.075C202.399 18.9584 202.016 18.7667 201.683 18.5C201.366 18.2334 201.108 17.8917 200.908 17.475C200.724 17.0417 200.633 16.525 200.633 15.925ZM208.408 13.075C207.974 13.075 207.549 13.1084 207.133 13.175C206.716 13.2417 206.341 13.35 206.008 13.5C205.691 13.6334 205.433 13.8167 205.233 14.05C205.033 14.2834 204.933 14.5667 204.933 14.9C204.933 15.2834 205.049 15.55 205.283 15.7C205.533 15.85 205.799 15.925 206.083 15.925C206.349 15.925 206.616 15.8667 206.883 15.75C207.149 15.6334 207.383 15.4584 207.583 15.225C207.799 14.975 207.983 14.675 208.133 14.325C208.283 13.975 208.374 13.5584 208.408 13.075Z" fill="#EDA1A1"/>
<path d="M218.144 19.225C217.111 19.225 216.369 18.95 215.919 18.4C215.469 17.85 215.244 16.9417 215.244 15.675C215.244 15.475 215.252 15.225 215.269 14.925C215.302 14.625 215.336 14.2417 215.369 13.775C215.419 13.2917 215.477 12.7 215.544 12C215.611 11.3 215.677 10.45 215.744 9.45002C215.827 8.45002 215.911 7.27502 215.994 5.92502C216.094 4.57502 216.194 3.00836 216.294 1.22502C216.311 0.858357 216.352 0.64169 216.419 0.575023C216.469 0.525024 216.602 0.500024 216.819 0.500024H217.794C218.294 0.500024 218.711 0.558357 219.044 0.675024C219.377 0.791691 219.644 0.950024 219.844 1.15002C220.044 1.35002 220.186 1.58336 220.269 1.85002C220.352 2.10002 220.394 2.36669 220.394 2.65002C220.394 2.98336 220.369 3.46669 220.319 4.10002C220.286 4.71669 220.236 5.41669 220.169 6.20002C220.102 6.98336 220.036 7.80002 219.969 8.65002C219.902 9.50002 219.836 10.3167 219.769 11.1C219.702 11.8667 219.644 12.5584 219.594 13.175C219.561 13.7917 219.544 14.2584 219.544 14.575C219.544 15.0084 219.619 15.3167 219.769 15.5C219.936 15.6834 220.111 15.8167 220.294 15.9C220.477 15.9667 220.644 16.0167 220.794 16.05C220.961 16.0667 221.044 16.1167 221.044 16.2C221.044 16.5667 221.002 16.9334 220.919 17.3C220.836 17.65 220.686 17.975 220.469 18.275C220.252 18.5584 219.952 18.7917 219.569 18.975C219.202 19.1417 218.727 19.225 218.144 19.225Z" fill="#EDA1A1"/>
</g>
<defs>
<filter id="filter0_d_119_154" x="0.512207" y="0.150024" width="224.532" height="31.725" filterUnits="userSpaceOnUse" color-interpolation-filters="sRGB">
<feFlood flood-opacity="0" result="BackgroundImageFix"/>
<feColorMatrix in="SourceAlpha" type="matrix" values="0 0 0 0 0 0 0 0 0 0 0 0 0 0 0 0 0 0 127 0" result="hardAlpha"/>
<feOffset dy="4"/>
<feGaussianBlur stdDeviation="2"/>
<feComposite in2="hardAlpha" operator="out"/>
<feColorMatrix type="matrix" values="0 0 0 0 0 0 0 0 0 0 0 0 0 0 0 0 0 0 0.25 0"/>
<feBlend mode="normal" in2="BackgroundImageFix" result="effect1_dropShadow_119_154"/>
<feBlend mode="normal" in="SourceGraphic" in2="effect1_dropShadow_119_154" result="shape"/>
</filter>
</defs>
</svg>
