<svg width="100" height="17" viewBox="0 0 100 17" fill="none" xmlns="http://www.w3.org/2000/svg">
<path d="M0.798462 13.08C0.798462 12.48 0.971795 11.98 1.31846 11.58C1.67846 11.18 2.15846 10.8667 2.75846 10.64C3.35846 10.4 4.06513 10.2333 4.87846 10.14C5.69179 10.0467 6.55846 10 7.47846 10C8.39846 10 9.26513 10.0333 10.0785 10.1C10.8918 10.1667 11.5985 10.3133 12.1985 10.54C12.7985 10.7533 13.2718 11.06 13.6185 11.46C13.9785 11.86 14.1585 12.4 14.1585 13.08C14.1585 13.7467 13.9785 14.28 13.6185 14.68C13.2718 15.08 12.7985 15.3867 12.1985 15.6C11.5985 15.8267 10.8918 15.9733 10.0785 16.04C9.26513 16.12 8.39846 16.16 7.47846 16.16C6.55846 16.16 5.69179 16.12 4.87846 16.04C4.06513 15.9733 3.35846 15.8267 2.75846 15.6C2.15846 15.3867 1.67846 15.08 1.31846 14.68C0.971795 14.28 0.798462 13.7467 0.798462 13.08ZM0.498462 8.66C0.311795 8.58 0.178462 8.42667 0.0984615 8.2C-0.00820512 7.93333 -0.0282051 7.66667 0.0384615 7.4C0.118462 7.13333 0.238462 6.88 0.398462 6.64C0.558462 6.4 0.738462 6.17333 0.938462 5.96C1.15179 5.74667 1.33179 5.54667 1.47846 5.36C1.70513 5.08 1.93179 4.8 2.15846 4.52C2.38513 4.24 2.6118 3.95333 2.83846 3.66C2.91846 3.55333 3.0118 3.44 3.11846 3.32C3.22513 3.2 3.32513 3.07333 3.41846 2.94C3.52513 2.80667 3.61179 2.67333 3.67846 2.54C3.74513 2.40667 3.78513 2.26667 3.79846 2.12C3.8118 1.89333 3.82513 1.67333 3.83846 1.46C3.8518 1.23333 3.8918 1.03333 3.95846 0.860001C4.02513 0.673333 4.1318 0.526667 4.27846 0.420001C4.43846 0.313334 4.66513 0.26 4.95846 0.26C5.1718 0.26 5.37846 0.286667 5.57846 0.34C5.77846 0.380001 5.92513 0.506667 6.01846 0.72C6.1118 0.96 6.13846 1.22667 6.09846 1.52C6.0718 1.8 6.09846 2.06667 6.17846 2.32C6.24513 2.54667 6.35846 2.74667 6.51846 2.92C6.67846 3.08 6.8118 3.25333 6.91846 3.44C7.14513 3.85333 7.4118 4.22 7.71846 4.54C8.02513 4.86 8.3118 5.20667 8.57846 5.58C8.7918 5.86 8.9918 6.15333 9.17846 6.46C9.37846 6.75333 9.5118 7.07333 9.57846 7.42C9.64513 7.71333 9.6118 7.96667 9.47846 8.18C9.35846 8.38 9.1918 8.52667 8.97846 8.62C8.76513 8.71333 8.53179 8.74667 8.27846 8.72C8.02513 8.68 7.80513 8.56667 7.61846 8.38C7.12513 7.87333 6.6718 7.35333 6.25846 6.82C5.85846 6.27333 5.44513 5.72 5.01846 5.16C5.01846 5.16 4.95846 5.22667 4.83846 5.36C4.71846 5.48 4.56513 5.64 4.37846 5.84C4.1918 6.02667 3.9918 6.24 3.77846 6.48C3.56513 6.70667 3.36513 6.92667 3.17846 7.14C2.99179 7.35333 2.82513 7.54 2.67846 7.7C2.53179 7.84667 2.44513 7.94 2.41846 7.98C2.27179 8.15333 2.11846 8.30667 1.95846 8.44C1.79846 8.57333 1.60513 8.66667 1.37846 8.72C1.23179 8.74667 1.07846 8.76 0.918462 8.76C0.771795 8.76 0.631795 8.72667 0.498462 8.66ZM13.7985 6.08V7.9C13.7851 8.04667 13.7651 8.2 13.7385 8.36C13.7118 8.50667 13.6585 8.65333 13.5785 8.8C13.4985 8.96 13.3851 9.09333 13.2385 9.2C13.1318 9.26667 13.0051 9.32 12.8585 9.36C12.7251 9.38667 12.6051 9.4 12.4985 9.4C12.3918 9.4 12.2785 9.39333 12.1585 9.38C12.0385 9.35333 11.9385 9.31333 11.8585 9.26C11.7251 9.18 11.6185 9.08 11.5385 8.96C11.4585 8.84 11.3918 8.72667 11.3385 8.62C11.2985 8.5 11.2718 8.4 11.2585 8.32C11.2451 8.22667 11.2385 8.18 11.2385 8.18V1.58C11.2251 1.52667 11.2318 1.38 11.2585 1.14C11.2851 0.900001 11.3385 0.700001 11.4185 0.54C11.4851 0.406667 11.5985 0.300001 11.7585 0.220001C11.9318 0.14 12.1118 0.0866667 12.2985 0.0600004C12.5251 0.0333333 12.7518 0.0466665 12.9785 0.0999999C13.2051 0.153333 13.3718 0.24 13.4785 0.36C13.5585 0.466667 13.6118 0.573334 13.6385 0.680001C13.6785 0.773334 13.7118 0.873334 13.7385 0.98C13.7785 1.11333 13.7985 1.25333 13.7985 1.4C13.8118 1.54667 13.8118 1.69333 13.7985 1.84V3.4C13.7985 3.46667 13.7918 3.54 13.7785 3.62C13.7785 3.68667 13.7851 3.76667 13.7985 3.86C13.8518 3.86 13.9518 3.86667 14.0985 3.88C14.2451 3.88 14.3985 3.88667 14.5585 3.9C14.7185 3.9 14.8718 3.90667 15.0185 3.92C15.1651 3.93333 15.2718 3.94667 15.3385 3.96C15.6051 4.01333 15.7918 4.09333 15.8985 4.2C16.0051 4.29333 16.0718 4.41333 16.0985 4.56C16.1385 4.70667 16.1585 4.88 16.1585 5.08C16.1585 5.26667 16.1185 5.42667 16.0385 5.56C15.8785 5.82667 15.6385 5.98 15.3185 6.02C14.9985 6.04667 14.6451 6.06667 14.2585 6.08H13.7985ZM11.4585 13.08C11.4585 12.8533 11.3385 12.6733 11.0985 12.54C10.8585 12.4067 10.5451 12.3067 10.1585 12.24C9.78513 12.1733 9.35846 12.1333 8.87846 12.12C8.4118 12.0933 7.94513 12.08 7.47846 12.08C7.0118 12.08 6.54513 12.0933 6.07846 12.12C5.62513 12.1333 5.2118 12.1733 4.83846 12.24C4.47846 12.3067 4.18513 12.4067 3.95846 12.54C3.7318 12.6733 3.61846 12.8533 3.61846 13.08C3.61846 13.28 3.7318 13.4467 3.95846 13.58C4.18513 13.7133 4.47846 13.8133 4.83846 13.88C5.2118 13.9467 5.62513 13.9933 6.07846 14.02C6.54513 14.0467 7.0118 14.06 7.47846 14.06C7.94513 14.06 8.4118 14.06 8.87846 14.06C9.35846 14.06 9.78513 14.0333 10.1585 13.98C10.5451 13.9267 10.8585 13.8333 11.0985 13.7C11.3385 13.5533 11.4585 13.3467 11.4585 13.08Z" fill="white"/>
<path d="M23.8543 6.38C24.0543 6.38 24.2609 6.4 24.4743 6.44C24.6876 6.46667 24.8876 6.53333 25.0743 6.64C25.2609 6.73333 25.4143 6.86667 25.5343 7.04C25.6543 7.2 25.7143 7.42 25.7143 7.7C25.7143 7.98 25.6076 8.2 25.3943 8.36C25.1809 8.52 24.9209 8.64 24.6143 8.72C24.3076 8.8 23.9809 8.85333 23.6343 8.88C23.3009 8.89333 23.0076 8.9 22.7543 8.9H19.9343C19.6943 8.9 19.4476 8.9 19.1943 8.9C18.9543 8.9 18.7209 8.88 18.4943 8.84C18.2809 8.8 18.0876 8.74 17.9143 8.66C17.7409 8.56667 17.6009 8.44 17.4943 8.28C17.3743 8.10667 17.2876 7.89333 17.2343 7.64C17.1943 7.37333 17.1609 7.12 17.1343 6.88C17.1209 6.62667 17.1143 6.41333 17.1143 6.24C17.1276 6.05333 17.1343 5.94667 17.1343 5.92L17.1743 2.32C17.1743 2.28 17.1743 2.20667 17.1743 2.1C17.1743 1.99333 17.1809 1.88 17.1943 1.76C17.2076 1.62667 17.2276 1.49333 17.2543 1.36C17.2809 1.22667 17.3209 1.12 17.3743 1.04C17.4943 0.853333 17.6143 0.713333 17.7343 0.62C17.8676 0.526667 18.0409 0.466667 18.2543 0.44C18.5209 0.386667 18.9076 0.36 19.4143 0.36C19.4543 0.36 19.5743 0.36 19.7743 0.36C19.9743 0.36 20.2076 0.366667 20.4743 0.38C20.7543 0.38 21.0543 0.386667 21.3743 0.400001C21.6943 0.400001 21.9876 0.406667 22.2543 0.420001C22.5343 0.420001 22.7743 0.426667 22.9743 0.44C23.1743 0.44 23.2943 0.44 23.3343 0.44C23.5076 0.44 23.6876 0.446667 23.8743 0.46C24.0609 0.46 24.2409 0.48 24.4143 0.52C24.5876 0.56 24.7476 0.626667 24.8943 0.72C25.0543 0.8 25.1876 0.926667 25.2943 1.1C25.4409 1.32667 25.5076 1.57333 25.4943 1.84C25.4943 2.10667 25.4143 2.35333 25.2543 2.58C25.1743 2.68667 25.0676 2.77333 24.9343 2.84C24.8009 2.90667 24.6543 2.96 24.4943 3C24.3343 3.02667 24.1743 3.04667 24.0143 3.06C23.8676 3.06 23.7409 3.06 23.6343 3.06L19.9143 3.04L19.9543 6.32C20.1276 6.33333 20.3943 6.34667 20.7543 6.36C21.1143 6.37333 21.4943 6.38 21.8943 6.38C22.2943 6.38 22.6743 6.38 23.0343 6.38C23.4076 6.38 23.6809 6.38 23.8543 6.38ZM20.3943 16.02C19.8476 16.02 19.4076 15.9 19.0743 15.66C18.7409 15.4333 18.5743 15.1667 18.5743 14.86V11.98C18.5476 11.6867 18.5476 11.3867 18.5743 11.08C18.6009 10.8 18.7076 10.5733 18.8943 10.4C19.0943 10.2267 19.3476 10.14 19.6543 10.14C19.7209 10.14 19.8409 10.1467 20.0143 10.16C20.1876 10.16 20.3076 10.1733 20.3743 10.2C20.5476 10.2533 20.6809 10.3333 20.7743 10.44C20.8809 10.5467 20.9609 10.6733 21.0143 10.82C21.0676 10.9533 21.1009 11.1 21.1143 11.26C21.1276 11.4067 21.1409 11.5533 21.1543 11.7C21.1543 11.7533 21.1543 11.88 21.1543 12.08C21.1676 12.2667 21.1743 12.4733 21.1743 12.7C21.1876 12.9133 21.1943 13.1133 21.1943 13.3C21.2076 13.4867 21.2209 13.6 21.2343 13.64C21.2743 13.6533 21.3809 13.6733 21.5543 13.7C21.7409 13.7133 22.0809 13.72 22.5743 13.72C23.0009 13.72 23.2609 13.7133 23.3543 13.7C23.4609 13.6867 23.5209 13.68 23.5343 13.68H29.8743C29.8743 13.68 29.9143 13.6933 29.9943 13.72C30.0876 13.7467 30.1876 13.7933 30.2943 13.86C30.4009 13.9133 30.5009 13.9933 30.5943 14.1C30.6876 14.1933 30.7476 14.3067 30.7743 14.44C30.8409 14.9467 30.7543 15.34 30.5143 15.62C30.3543 15.8067 30.1809 15.92 29.9943 15.96C29.8076 16 29.7076 16.02 29.6943 16.02H20.3943ZM30.1943 6.3V8.5C30.1809 8.64667 30.1609 8.8 30.1343 8.96C30.1076 9.10667 30.0543 9.25333 29.9743 9.4C29.8943 9.56 29.7809 9.69333 29.6343 9.8C29.5276 9.86667 29.4009 9.92 29.2543 9.96C29.1209 9.98667 29.0009 10 28.8943 10C28.7876 10 28.6743 9.99333 28.5543 9.98C28.4343 9.95333 28.3343 9.91333 28.2543 9.86C28.1209 9.78 28.0143 9.68 27.9343 9.56C27.8543 9.44 27.7876 9.32667 27.7343 9.22C27.6943 9.1 27.6676 9 27.6543 8.92C27.6409 8.82667 27.6343 8.78 27.6343 8.78V1.58C27.6209 1.52667 27.6276 1.38 27.6543 1.14C27.6809 0.900001 27.7343 0.700001 27.8143 0.54C27.8809 0.406667 27.9943 0.300001 28.1543 0.220001C28.3276 0.14 28.5076 0.0866667 28.6943 0.0600004C28.9209 0.0333333 29.1476 0.0466665 29.3743 0.0999999C29.6009 0.153333 29.7676 0.24 29.8743 0.36C29.9543 0.466667 30.0076 0.573334 30.0343 0.680001C30.0743 0.773334 30.1076 0.873334 30.1343 0.98C30.1743 1.11333 30.1943 1.25333 30.1943 1.4C30.2076 1.54667 30.2076 1.69333 30.1943 1.84V4.08C30.2476 4.08 30.3543 4.08667 30.5143 4.1C30.6876 4.1 30.8676 4.10667 31.0543 4.12C31.2409 4.12 31.4143 4.12667 31.5743 4.14C31.7476 4.15333 31.8676 4.16667 31.9343 4.18C32.2009 4.23333 32.3876 4.31333 32.4943 4.42C32.6009 4.51333 32.6676 4.63333 32.6943 4.78C32.7343 4.92667 32.7543 5.1 32.7543 5.3C32.7543 5.48667 32.7143 5.64667 32.6343 5.78C32.5543 5.91333 32.4743 6.01333 32.3943 6.08C32.3143 6.14667 32.2209 6.2 32.1143 6.24C32.0076 6.26667 31.8876 6.28667 31.7543 6.3C31.6209 6.3 31.4543 6.3 31.2543 6.3H30.1943Z" fill="white"/>
<path d="M41.2701 0.48C41.7234 0.52 42.1568 0.566667 42.5701 0.62C42.9834 0.673334 43.3768 0.760001 43.7501 0.880001C44.1234 0.986667 44.4768 1.14 44.8101 1.34C45.1434 1.52667 45.4568 1.78 45.7501 2.1C46.2168 2.60667 46.5368 3.21333 46.7101 3.92C46.8834 4.61333 46.9434 5.29333 46.8901 5.96C46.8368 6.72 46.6501 7.38 46.3301 7.94C46.0234 8.5 45.6234 8.96667 45.1301 9.34C44.6501 9.7 44.0968 9.97333 43.4701 10.16C42.8568 10.3333 42.2234 10.42 41.5701 10.42C41.0234 10.42 40.4434 10.42 39.8301 10.42C39.2168 10.42 38.6101 10.3667 38.0101 10.26C37.4234 10.1533 36.8634 9.97333 36.3301 9.72C35.8101 9.45333 35.3634 9.05333 34.9901 8.52C34.6834 8.10667 34.4768 7.62667 34.3701 7.08C34.2768 6.52 34.2301 5.98667 34.2301 5.48C34.2301 4.96 34.3034 4.46667 34.4501 4C34.5968 3.52 34.8034 3.08 35.0701 2.68C35.3368 2.28 35.6568 1.93333 36.0301 1.64C36.4168 1.34667 36.8501 1.12 37.3301 0.960001C37.9701 0.746667 38.6168 0.6 39.2701 0.52C39.9368 0.440001 40.6034 0.426667 41.2701 0.48ZM44.0501 6.26C44.0901 6.08667 44.1034 5.92 44.0901 5.76C44.0634 5.06667 43.8701 4.50667 43.5101 4.08C43.1501 3.65333 42.6501 3.4 42.0101 3.32C41.7968 3.29333 41.5701 3.27333 41.3301 3.26C41.1034 3.24667 40.8434 3.24 40.5501 3.24C40.1634 3.24 39.7701 3.27333 39.3701 3.34C38.9834 3.39333 38.6234 3.49333 38.2901 3.64C37.9568 3.77333 37.6701 3.96667 37.4301 4.22C37.1901 4.46 37.0434 4.77333 36.9901 5.16C36.9501 5.48 36.9501 5.8 36.9901 6.12C37.0434 6.44 37.1568 6.73333 37.3301 7C37.5034 7.25333 37.7434 7.47333 38.0501 7.66C38.3568 7.84667 38.7501 7.96 39.2301 8C39.4301 8.02667 39.6301 8.05333 39.8301 8.08C40.0434 8.09333 40.2568 8.10667 40.4701 8.12C40.8034 8.14667 41.1568 8.14667 41.5301 8.12C41.9168 8.08 42.2768 7.99333 42.6101 7.86C42.9434 7.72667 43.2368 7.53333 43.4901 7.28C43.7568 7.02667 43.9434 6.68667 44.0501 6.26ZM34.6101 14.82C34.3968 14.8067 34.1834 14.78 33.9701 14.74C33.7701 14.6867 33.5901 14.62 33.4301 14.54C33.2701 14.4467 33.1368 14.32 33.0301 14.16C32.9368 14 32.8901 13.7867 32.8901 13.52C32.8901 13.2533 32.9768 13.02 33.1501 12.82C33.2568 12.7133 33.3901 12.6333 33.5501 12.58C33.7101 12.5267 33.8634 12.4867 34.0101 12.46C34.1568 12.4333 34.2834 12.42 34.3901 12.42C34.5101 12.42 34.5768 12.42 34.5901 12.42L45.7301 12.44C46.0768 12.44 46.3901 12.4467 46.6701 12.46C46.9634 12.46 47.2234 12.5533 47.4501 12.74C47.7301 12.9933 47.8701 13.28 47.8701 13.6C47.8701 13.8 47.8101 13.9867 47.6901 14.16C47.5701 14.32 47.4101 14.4333 47.2101 14.5C46.9434 14.6067 46.6634 14.68 46.3701 14.72C46.0901 14.76 45.8101 14.7867 45.5301 14.8C44.5568 14.84 43.5968 14.8533 42.6501 14.84C41.7034 14.8267 40.7834 14.82 39.8901 14.82C39.4101 14.82 38.9168 14.8267 38.4101 14.84C37.9168 14.84 37.4368 14.84 36.9701 14.84C36.5168 14.84 36.0834 14.84 35.6701 14.84C35.2568 14.84 34.9034 14.8333 34.6101 14.82Z" fill="white"/>
<path d="M62.1656 12.52C62.2056 12.5333 62.2456 12.54 62.2856 12.54C62.3256 12.5267 62.3656 12.52 62.4056 12.52C62.6323 12.5467 62.8389 12.5933 63.0256 12.66C63.2256 12.7133 63.4189 12.82 63.6056 12.98C63.7923 13.1667 63.8856 13.4 63.8856 13.68C63.8856 13.8267 63.8589 13.9867 63.8056 14.16C63.7656 14.32 63.7056 14.4467 63.6256 14.54C63.5189 14.6467 63.3856 14.7267 63.2256 14.78C63.0656 14.8333 62.9123 14.8733 62.7656 14.9C62.6189 14.9133 62.4856 14.92 62.3656 14.92C62.2589 14.92 62.1989 14.92 62.1856 14.92H50.9856C50.9189 14.92 50.8523 14.9267 50.7856 14.94C50.7189 14.94 50.6523 14.94 50.5856 14.94C50.3056 14.9533 50.0056 14.9533 49.6856 14.94C49.3656 14.9133 49.0923 14.8067 48.8656 14.62C48.5856 14.3667 48.4456 14.08 48.4456 13.76C48.4456 13.56 48.5056 13.3533 48.6256 13.14C48.7456 12.9267 48.9056 12.78 49.1056 12.7C49.3723 12.5933 49.6456 12.54 49.9256 12.54C50.2189 12.54 50.5123 12.5333 50.8056 12.52H50.9056C52.1856 12.4933 53.4923 12.4933 54.8256 12.52L54.8056 10.64H52.7256C52.4589 10.64 52.1789 10.64 51.8856 10.64C51.6056 10.64 51.3189 10.6333 51.0256 10.62C50.7456 10.5933 50.5123 10.4533 50.3256 10.2C50.1389 9.94667 50.0323 9.64667 50.0056 9.3C49.9923 9.18 49.9789 8.98667 49.9656 8.72C49.9656 8.45333 49.9589 8.17333 49.9456 7.88C49.9456 7.58667 49.9456 7.31333 49.9456 7.06C49.9456 6.80667 49.9456 6.62667 49.9456 6.52V6.04C49.9323 5.88 49.9323 5.71333 49.9456 5.54C49.9723 5.35333 50.0456 5.18667 50.1656 5.04C50.3389 4.81333 50.5789 4.67333 50.8856 4.62C51.2056 4.55333 51.5123 4.52 51.8056 4.52C51.8723 4.52 51.9789 4.52667 52.1256 4.54C52.2856 4.55333 52.4123 4.55333 52.5056 4.54H59.6056V2.86H52.3056C52.2389 2.86 52.1656 2.86667 52.0856 2.88C52.0056 2.88 51.9323 2.88 51.8656 2.88C51.7856 2.88 51.6989 2.88667 51.6056 2.9C51.5256 2.9 51.4456 2.9 51.3656 2.9C51.0856 2.9 50.8589 2.87333 50.6856 2.82C50.4589 2.76667 50.2723 2.61333 50.1256 2.36C49.9523 2.05333 49.9056 1.72667 49.9856 1.38C50.0523 1.14 50.2056 0.96 50.4456 0.84C50.6856 0.72 50.8789 0.646667 51.0256 0.62C51.1323 0.593333 51.2323 0.58 51.3256 0.58C51.4323 0.58 51.5456 0.58 51.6656 0.58H52.3656C52.5789 0.58 52.8389 0.586667 53.1456 0.600001C53.4656 0.600001 53.7989 0.600001 54.1456 0.600001C54.4923 0.600001 54.8389 0.600001 55.1856 0.600001C55.5456 0.586667 55.8723 0.58 56.1656 0.58H60.2056C60.4323 0.58 60.6589 0.586667 60.8856 0.600001C61.1123 0.613334 61.3323 0.653334 61.5456 0.72C61.8656 0.813334 62.0723 1.02 62.1656 1.34C62.2589 1.64667 62.3056 1.94667 62.3056 2.24V4.88C62.3056 4.98667 62.2923 5.12667 62.2656 5.3C62.2523 5.47333 62.2256 5.65333 62.1856 5.84C62.1456 6.02667 62.0856 6.20667 62.0056 6.38C61.9389 6.54 61.8523 6.65333 61.7456 6.72C61.5589 6.82667 61.3789 6.89333 61.2056 6.92C61.0323 6.93333 60.8656 6.93333 60.7056 6.92H52.8056V8.52H60.7256C60.8456 8.52 60.9589 8.52 61.0656 8.52C61.1856 8.52 61.2989 8.52667 61.4056 8.54C61.6056 8.55333 61.7856 8.61333 61.9456 8.72C62.1189 8.81333 62.2389 8.97333 62.3056 9.2C62.3723 9.46667 62.3589 9.72 62.2656 9.96C62.1856 10.2 62.0256 10.3733 61.7856 10.48C61.6256 10.5467 61.4589 10.5933 61.2856 10.62C61.1256 10.6333 60.9723 10.64 60.8256 10.64H57.3856L57.4056 12.52C57.7256 12.52 58.0189 12.52 58.2856 12.52C58.5656 12.5067 58.8389 12.5 59.1056 12.5C59.3856 12.5 59.6589 12.5067 59.9256 12.52C60.2056 12.52 60.4989 12.52 60.8056 12.52C61.0456 12.5333 61.2789 12.5333 61.5056 12.52C61.7323 12.4933 61.9523 12.4933 62.1656 12.52Z" fill="white"/>
<path d="M73.9599 0.0400007C74.1332 0.0400007 74.2999 0.0466673 74.4599 0.0600004C74.6199 0.0733336 74.7799 0.0933337 74.9399 0.120001C75.4466 0.200001 75.8932 0.433334 76.2799 0.82C76.5999 1.16667 76.8599 1.56667 77.0599 2.02C77.2732 2.46 77.4399 2.92667 77.5599 3.42C77.6799 3.91333 77.7666 4.42 77.8199 4.94C77.8732 5.44667 77.9132 5.94 77.9399 6.42C77.9666 7.03333 77.9732 7.64667 77.9599 8.26C77.9466 8.87333 77.9066 9.48 77.8399 10.08C77.7732 10.7067 77.6732 11.34 77.5399 11.98C77.4199 12.6067 77.1932 13.1733 76.8599 13.68C76.5799 14.1067 76.2332 14.46 75.8199 14.74C75.4066 15.0067 74.9732 15.1867 74.5199 15.28C74.1066 15.36 73.6866 15.3733 73.2599 15.32C72.8332 15.2667 72.4266 15.1267 72.0399 14.9C71.6799 14.6867 71.3732 14.42 71.1199 14.1C70.8799 13.78 70.6666 13.4067 70.4799 12.98C70.2132 12.34 70.0599 11.68 70.0199 11C69.9666 10.44 69.9266 9.88 69.8999 9.32C69.8866 8.76 69.8799 8.2 69.8799 7.64C69.8799 6.89333 69.9199 6.14667 69.9999 5.4C70.0266 5.09333 70.0532 4.79333 70.0799 4.5C70.1066 4.19333 70.1466 3.89333 70.1999 3.6C70.2532 3.36 70.2999 3.13333 70.3399 2.92C70.3799 2.70667 70.4532 2.48667 70.5599 2.26C70.6666 2.03333 70.7799 1.82 70.8999 1.62C71.0332 1.42 71.1866 1.24 71.3599 1.08C71.6532 0.786667 71.9799 0.56 72.3399 0.400001C72.6999 0.24 73.0732 0.133334 73.4599 0.0800002C73.5399 0.066667 73.6199 0.0600004 73.6999 0.0600004C73.7932 0.0600004 73.8799 0.0533338 73.9599 0.0400007ZM83.6599 14.36C83.6332 14.52 83.6132 14.68 83.5999 14.84C83.5866 14.9867 83.5532 15.14 83.4999 15.3C83.4732 15.3533 83.4532 15.4 83.4399 15.44C83.4266 15.48 83.4066 15.5267 83.3799 15.58C83.2866 15.7667 83.1666 15.9133 83.0199 16.02C82.7132 16.2067 82.3732 16.2533 81.9999 16.16C81.7866 16.12 81.6132 16.04 81.4799 15.92C81.3599 15.8133 81.2666 15.6733 81.1999 15.5C81.1466 15.34 81.0999 15.18 81.0599 15.02C81.0332 14.86 81.0199 14.72 81.0199 14.6C81.0199 14.48 81.0199 14.4133 81.0199 14.4V2.3C81.0199 2.14 81.0199 1.96667 81.0199 1.78C81.0199 1.59333 81.0332 1.40667 81.0599 1.22C81.0866 1.03333 81.1266 0.86 81.1799 0.700001C81.2332 0.54 81.3066 0.413334 81.3999 0.320001C81.5466 0.173333 81.6999 0.0866667 81.8599 0.0600004C82.0199 0.0200001 82.1932 0 82.3799 0C82.6066 0 82.8132 0.0666666 82.9999 0.2C83.1999 0.32 83.3399 0.493333 83.4199 0.72C83.5399 1 83.6066 1.29333 83.6199 1.6C83.6332 1.90667 83.6466 2.21333 83.6599 2.52V2.62C83.6866 3.64667 83.6932 4.7 83.6799 5.78C83.6666 6.86 83.6599 7.88 83.6599 8.84V13.64C83.6599 13.76 83.6599 13.88 83.6599 14C83.6732 14.12 83.6732 14.24 83.6599 14.36ZM73.8999 12.62C74.1532 12.62 74.3999 12.54 74.6399 12.38C74.8666 12.22 75.0266 12.0067 75.1199 11.74C75.2132 11.4733 75.2932 11.18 75.3599 10.86C75.4666 10.2467 75.5266 9.59333 75.5399 8.9C75.5532 8.20667 75.5466 7.54 75.5199 6.9C75.5199 6.64667 75.5132 6.38 75.4999 6.1C75.4866 5.80667 75.4599 5.52 75.4199 5.24C75.3932 4.96 75.3466 4.69333 75.2799 4.44C75.2132 4.17333 75.1199 3.94 74.9999 3.74C74.8666 3.51333 74.7066 3.34 74.5199 3.22C74.3332 3.1 74.1332 3.05333 73.9199 3.08C73.6932 3.10667 73.4866 3.18667 73.2999 3.32C73.1132 3.45333 72.9599 3.65333 72.8399 3.92L72.6599 4.34C72.5799 4.59333 72.5199 4.86 72.4799 5.14C72.4399 5.40667 72.4066 5.67333 72.3799 5.94C72.3532 6.20667 72.3332 6.48 72.3199 6.76C72.3066 7.04 72.2999 7.31333 72.2999 7.58C72.3132 7.84667 72.3066 8.10667 72.2799 8.36C72.2666 8.61333 72.2732 8.87333 72.2999 9.14C72.3266 9.48667 72.3599 9.86 72.3999 10.26C72.4532 10.66 72.5332 11.04 72.6399 11.4C72.7466 11.7467 72.8999 12.04 73.0999 12.28C73.2999 12.5067 73.5666 12.62 73.8999 12.62Z" fill="white"/>
<path d="M98.1917 7.76C98.4183 7.77333 98.645 7.80667 98.8717 7.86C99.1117 7.91333 99.325 8.01333 99.5117 8.16C99.6983 8.30667 99.7917 8.51333 99.7917 8.78C99.7917 8.91333 99.765 9.05333 99.7117 9.2C99.6717 9.34667 99.6117 9.45333 99.5317 9.52C99.425 9.62667 99.285 9.70667 99.1117 9.76C98.9517 9.8 98.7917 9.83333 98.6317 9.86C98.4717 9.87333 98.3317 9.88 98.2117 9.88C98.105 9.88 98.045 9.88 98.0317 9.88L87.3717 9.9C87.065 9.91333 86.745 9.91333 86.4117 9.9C86.0917 9.88667 85.8183 9.78667 85.5917 9.6C85.285 9.37333 85.1317 9.12667 85.1317 8.86C85.1317 8.67333 85.1917 8.48667 85.3117 8.3C85.445 8.1 85.6183 7.96667 85.8316 7.9C86.1116 7.80667 86.3983 7.76667 86.6917 7.78C86.985 7.78 87.285 7.77333 87.5917 7.76C87.9117 7.74667 88.185 7.74 88.4117 7.74C88.6517 7.74 88.8783 7.74 89.0917 7.74C89.3183 7.74 89.5517 7.74667 89.7917 7.76C90.0317 7.76 90.3183 7.76 90.6516 7.76V6.62C90.0916 6.60667 89.5517 6.6 89.0317 6.6C88.525 6.58667 88.145 6.57333 87.8917 6.56C87.7317 6.56 87.545 6.55333 87.3316 6.54C87.1183 6.52667 86.9117 6.49333 86.7117 6.44C86.525 6.38667 86.3517 6.30667 86.1917 6.2C86.045 6.09333 85.945 5.94667 85.8917 5.76C85.8517 5.61333 85.8183 5.5 85.7916 5.42C85.7783 5.34 85.7583 5.26667 85.7317 5.2C85.7183 5.13333 85.705 5.06 85.6917 4.98C85.6917 4.9 85.6917 4.78 85.6917 4.62V2.48C85.6917 2.49333 85.685 2.44667 85.6717 2.34C85.6717 2.23333 85.6783 2.10667 85.6917 1.96C85.705 1.8 85.7317 1.63333 85.7717 1.46C85.825 1.27333 85.8916 1.11333 85.9716 0.98C86.0516 0.846667 86.1783 0.74 86.3517 0.66C86.5383 0.58 86.7183 0.52 86.8917 0.48C87.0783 0.44 87.245 0.420001 87.3917 0.420001C87.5383 0.406667 87.6317 0.400001 87.6717 0.400001H96.4716C96.7516 0.400001 97.0383 0.400001 97.3316 0.400001C97.6383 0.400001 97.925 0.453334 98.1917 0.56C98.4183 0.653334 98.5716 0.806667 98.6516 1.02C98.7316 1.23333 98.765 1.46 98.7517 1.7C98.725 1.92667 98.6383 2.12 98.4917 2.28C98.3583 2.44 98.1783 2.55333 97.9517 2.62C97.7383 2.67333 97.365 2.7 96.8316 2.7H96.3917C96.325 2.7 96.265 2.69333 96.2117 2.68H89.1317C89.065 2.66667 88.965 2.66667 88.8316 2.68C88.7116 2.68 88.6183 2.7 88.5517 2.74C88.5117 2.75333 88.485 2.83333 88.4716 2.98C88.4583 3.12667 88.4517 3.28667 88.4517 3.46C88.4517 3.62 88.4517 3.78 88.4517 3.94C88.465 4.08667 88.4783 4.18 88.4917 4.22C88.545 4.31333 88.6583 4.36667 88.8316 4.38C89.005 4.38 89.165 4.37333 89.3117 4.36C89.4717 4.36 89.6783 4.36 89.9317 4.36C90.185 4.36 90.5316 4.36 90.9716 4.36C91.4116 4.36 91.9716 4.36 92.6516 4.36C93.3316 4.36 94.1717 4.36 95.1717 4.36H96.6516C96.985 4.36 97.285 4.36667 97.5517 4.38C97.8317 4.38 98.085 4.43333 98.3117 4.54C98.5783 4.66 98.7583 4.88667 98.8517 5.22C98.9183 5.55333 98.8516 5.85333 98.6516 6.12C98.4383 6.38667 98.205 6.52667 97.9517 6.54C97.7117 6.55333 97.445 6.56667 97.1517 6.58C97.045 6.58 96.845 6.58667 96.5517 6.6C96.2717 6.6 95.9517 6.60667 95.5917 6.62C95.245 6.62 94.8783 6.62 94.4917 6.62C94.105 6.62 93.7583 6.62 93.4517 6.62C93.465 6.80667 93.4716 7.00667 93.4716 7.22C93.485 7.42 93.4917 7.6 93.4917 7.76C93.865 7.76 94.265 7.76 94.6917 7.76C95.1183 7.74667 95.545 7.74 95.9717 7.74C96.3983 7.74 96.805 7.74 97.1917 7.74C97.5783 7.74 97.9117 7.74667 98.1917 7.76ZM85.7717 13.6C85.7717 13.04 85.945 12.58 86.2916 12.22C86.6383 11.8467 87.105 11.56 87.6917 11.36C88.2783 11.1467 88.965 11 89.7517 10.92C90.5517 10.84 91.405 10.8 92.3117 10.8C93.2183 10.8 94.065 10.8267 94.8517 10.88C95.6517 10.9333 96.345 11.06 96.9317 11.26C97.5317 11.4467 98.005 11.7267 98.3517 12.1C98.6983 12.4733 98.8717 12.9733 98.8717 13.6C98.8717 14.2267 98.6983 14.7267 98.3517 15.1C98.005 15.46 97.5317 15.7333 96.9317 15.92C96.345 16.12 95.6517 16.2467 94.8517 16.3C94.065 16.3667 93.2183 16.4 92.3117 16.4C91.405 16.4 90.5517 16.3667 89.7517 16.3C88.965 16.2467 88.2783 16.12 87.6917 15.92C87.105 15.7333 86.6383 15.46 86.2916 15.1C85.945 14.7267 85.7717 14.2267 85.7717 13.6ZM96.2317 13.6C96.2317 13.3867 96.1117 13.2267 95.8717 13.12C95.645 13 95.3383 12.9133 94.9517 12.86C94.5783 12.8067 94.1583 12.78 93.6917 12.78C93.225 12.7667 92.765 12.76 92.3117 12.76C91.8583 12.76 91.405 12.7667 90.9517 12.78C90.4983 12.78 90.0917 12.8067 89.7317 12.86C89.3717 12.9133 89.0783 13 88.8517 13.12C88.6383 13.2267 88.5317 13.3867 88.5317 13.6C88.5317 13.7867 88.6383 13.94 88.8517 14.06C89.0783 14.1667 89.3717 14.2533 89.7317 14.32C90.0917 14.3733 90.4983 14.4067 90.9517 14.42C91.405 14.4333 91.8583 14.44 92.3117 14.44C92.765 14.44 93.225 14.4467 93.6917 14.46C94.1583 14.46 94.5783 14.44 94.9517 14.4C95.3383 14.36 95.645 14.28 95.8717 14.16C96.1117 14.04 96.2317 13.8533 96.2317 13.6Z" fill="white"/>
</svg>
