<svg width="251" height="35" viewBox="0 0 251 35" fill="none" xmlns="http://www.w3.org/2000/svg">
<g filter="url(#filter0_d_217_74)">
<path d="M14.92 21.28C15.8767 21.28 16.6817 21.14 17.335 20.86C18.0117 20.58 18.5833 20.265 19.05 19.915C19.5167 19.565 19.925 19.25 20.275 18.97C20.6483 18.69 21.0217 18.55 21.395 18.55C21.8617 18.55 22.095 18.9 22.095 19.6C22.095 19.9733 22.0483 20.4283 21.955 20.965C21.8617 21.4783 21.7333 22.0617 21.57 22.715C21.4767 23.1117 21.2433 23.5433 20.87 24.01C20.52 24.4767 20.03 24.92 19.4 25.34C18.77 25.7367 17.9883 26.075 17.055 26.355C16.145 26.6117 15.095 26.74 13.905 26.74C12.715 26.74 11.525 26.565 10.335 26.215C9.145 25.865 8.08333 25.27 7.15 24.43C6.21667 23.59 5.45833 22.4583 4.875 21.035C4.29167 19.6117 4 17.8267 4 15.68C4 14.91 4.04667 14.0233 4.14 13.02C4.25667 11.9933 4.46667 10.9433 4.77 9.87C5.07333 8.79667 5.49333 7.74667 6.03 6.72C6.59 5.67 7.30167 4.73667 8.165 3.92C9.02833 3.10333 10.0783 2.45 11.315 1.96C12.575 1.44667 14.0683 1.19 15.795 1.19C17.1717 1.19 18.3617 1.35333 19.365 1.68C20.3917 2.00667 21.2317 2.46167 21.885 3.045C22.5617 3.605 23.0517 4.27 23.355 5.04C23.6817 5.81 23.845 6.62667 23.845 7.49C23.845 8.98333 23.4017 10.08 22.515 10.78C21.6517 11.4567 20.415 11.795 18.805 11.795C18.2917 11.795 17.965 11.76 17.825 11.69C17.7083 11.5967 17.65 11.4217 17.65 11.165C17.6267 10.3717 17.6033 9.68333 17.58 9.1C17.5567 8.51667 17.475 8.03833 17.335 7.665C17.195 7.26833 16.9733 6.98833 16.67 6.825C16.39 6.63833 15.9933 6.545 15.48 6.545C14.7333 6.545 14.0917 6.70833 13.555 7.035C13.0417 7.33833 12.5983 7.74667 12.225 8.26C11.875 8.75 11.5833 9.31 11.35 9.94C11.14 10.57 10.965 11.2117 10.825 11.865C10.7083 12.5183 10.6267 13.1483 10.58 13.755C10.5567 14.3617 10.545 14.8867 10.545 15.33C10.545 17.4767 10.895 19.005 11.595 19.915C12.3183 20.825 13.4267 21.28 14.92 21.28Z" fill="#433232"/>
<path d="M40.7916 22.05C40.8616 21.28 40.9316 20.475 41.0016 19.635C41.0949 18.795 41.1649 17.99 41.2116 17.22C41.2816 16.45 41.3399 15.7617 41.3866 15.155C41.4332 14.5483 41.4566 14.105 41.4566 13.825C41.4566 13.2183 41.3049 12.6817 41.0016 12.215C40.7216 11.725 40.1616 11.48 39.3216 11.48C38.2016 11.48 37.2916 12.005 36.5916 13.055C35.9149 14.105 35.5182 15.505 35.4016 17.255C35.3549 17.745 35.2966 18.4333 35.2266 19.32C35.1566 20.1833 35.0866 21.07 35.0166 21.98C34.9466 22.8667 34.8766 23.6717 34.8066 24.395C34.7599 25.095 34.7366 25.5267 34.7366 25.69C34.7366 25.97 34.6782 26.1567 34.5616 26.25C34.4682 26.3433 34.2699 26.39 33.9666 26.39H32.7066C31.9832 26.39 31.3882 26.32 30.9216 26.18C30.4782 26.0167 30.1166 25.795 29.8366 25.515C29.5799 25.235 29.3932 24.8967 29.2766 24.5C29.1832 24.08 29.1366 23.6017 29.1366 23.065C29.1366 22.5517 29.1716 21.84 29.2416 20.93C29.3349 19.9967 29.4516 18.725 29.5916 17.115C29.7316 15.4817 29.8949 13.405 30.0816 10.885C30.2682 8.365 30.4666 5.23833 30.6766 1.505C30.6999 0.991666 30.7582 0.688332 30.8516 0.594999C30.9216 0.524999 31.1082 0.49 31.4116 0.49H32.7766C33.4766 0.49 34.0599 0.571666 34.5266 0.734999C34.9932 0.898333 35.3666 1.12 35.6466 1.4C35.9266 1.68 36.1249 2.00667 36.2416 2.38C36.3582 2.73 36.4166 3.10333 36.4166 3.5C36.4166 3.92 36.3699 4.70167 36.2766 5.845C36.2066 6.98833 36.1132 8.33 35.9966 9.87C36.6966 8.70333 37.4666 7.89833 38.3066 7.455C39.1699 7.01167 40.2549 6.79 41.5616 6.79C42.5416 6.79 43.3932 6.895 44.1166 7.105C44.8399 7.315 45.4349 7.67666 45.9016 8.19C46.3916 8.68 46.7532 9.33333 46.9866 10.15C47.2199 10.9433 47.3366 11.935 47.3366 13.125C47.3366 13.4983 47.3016 14.14 47.2316 15.05C47.1616 15.96 47.0682 16.9983 46.9516 18.165C46.8582 19.3317 46.7532 20.5567 46.6366 21.84C46.5432 23.1 46.4616 24.255 46.3916 25.305C46.3682 25.5617 46.3449 25.76 46.3216 25.9C46.2982 26.04 46.2516 26.145 46.1816 26.215C46.1349 26.285 46.0532 26.3317 45.9366 26.355C45.8199 26.3783 45.6566 26.39 45.4466 26.39H44.3266C43.5799 26.39 42.9732 26.32 42.5066 26.18C42.0399 26.04 41.6782 25.8417 41.4216 25.585C41.1649 25.3283 40.9782 25.0133 40.8616 24.64C40.7682 24.2433 40.7216 23.8 40.7216 23.31C40.7216 23.0767 40.7216 22.855 40.7216 22.645C40.7449 22.435 40.7682 22.2367 40.7916 22.05Z" fill="#433232"/>
<path d="M61.8055 26.74C60.1955 26.74 58.8538 26.5183 57.7805 26.075C56.7305 25.6083 55.8905 24.9783 55.2605 24.185C54.6305 23.3917 54.1872 22.47 53.9305 21.42C53.6738 20.3467 53.5455 19.2033 53.5455 17.99C53.5455 16.59 53.7088 15.225 54.0355 13.895C54.3855 12.5417 54.9688 11.34 55.7855 10.29C56.6022 9.24 57.6755 8.4 59.0055 7.77C60.3588 7.11667 62.0388 6.79 64.0455 6.79C66.9855 6.79 69.0855 7.51333 70.3455 8.96C71.6288 10.3833 72.2705 12.39 72.2705 14.98C72.2705 15.7033 72.2122 16.5083 72.0955 17.395C72.0022 18.2583 71.8038 19.1217 71.5005 19.985C71.2205 20.8483 70.8238 21.6883 70.3105 22.505C69.8205 23.3217 69.1905 24.045 68.4205 24.675C67.6505 25.305 66.7172 25.8067 65.6205 26.18C64.5472 26.5533 63.2755 26.74 61.8055 26.74ZM63.4505 11.445C62.5638 11.445 61.8522 11.6783 61.3155 12.145C60.8022 12.5883 60.4055 13.1367 60.1255 13.79C59.8688 14.42 59.6938 15.0967 59.6005 15.82C59.5305 16.52 59.4955 17.115 59.4955 17.605C59.4955 19.145 59.7405 20.2767 60.2305 21C60.7205 21.7233 61.4205 22.085 62.3305 22.085C63.1472 22.085 63.8122 21.8283 64.3255 21.315C64.8622 20.8017 65.2705 20.1833 65.5505 19.46C65.8538 18.7367 66.0522 17.9783 66.1455 17.185C66.2622 16.3917 66.3205 15.7267 66.3205 15.19C66.3205 14.0233 66.0988 13.1133 65.6555 12.46C65.2355 11.7833 64.5005 11.445 63.4505 11.445Z" fill="#433232"/>
<path d="M81.9885 26.39C81.2651 26.39 80.6701 26.32 80.2035 26.18C79.7601 26.0167 79.3985 25.795 79.1185 25.515C78.8618 25.235 78.6751 24.8967 78.5585 24.5C78.4651 24.08 78.4185 23.6017 78.4185 23.065C78.4185 22.715 78.4301 22.225 78.4535 21.595C78.5001 20.9417 78.5701 20.055 78.6635 18.935C78.7568 17.7917 78.8618 16.3567 78.9785 14.63C79.1185 12.88 79.2818 10.7217 79.4685 8.155C79.4918 7.64167 79.5501 7.33833 79.6435 7.245C79.7135 7.175 79.9001 7.14 80.2035 7.14H81.5685C82.2918 7.14 82.8751 7.21 83.3185 7.35C83.7851 7.49 84.1468 7.7 84.4035 7.98C84.6835 8.26 84.8701 8.59833 84.9635 8.995C85.0801 9.39167 85.1385 9.835 85.1385 10.325C85.1385 10.675 85.1151 11.2 85.0685 11.9C85.0218 12.6 84.9518 13.5567 84.8585 14.77C84.7885 15.96 84.6835 17.4533 84.5435 19.25C84.4035 21.0233 84.2285 23.17 84.0185 25.69C83.9951 25.97 83.9368 26.1567 83.8435 26.25C83.7501 26.3433 83.5518 26.39 83.2485 26.39H81.9885ZM79.5035 3.01C79.5035 2.07667 79.8418 1.34167 80.5185 0.805C81.1951 0.268333 82.1051 0 83.2485 0C84.2518 0 84.9751 0.209999 85.4185 0.629998C85.8851 1.02667 86.1185 1.56333 86.1185 2.24C86.1185 3.10333 85.7918 3.82667 85.1385 4.41C84.5085 4.97 83.5751 5.25 82.3385 5.25C80.4485 5.25 79.5035 4.50333 79.5035 3.01Z" fill="#433232"/>
<path d="M100.547 22.085C101.224 22.085 101.807 21.9917 102.297 21.805C102.811 21.6183 103.254 21.4083 103.627 21.175C104.001 20.9417 104.316 20.7317 104.572 20.545C104.829 20.3583 105.062 20.265 105.272 20.265C105.809 20.265 106.077 20.615 106.077 21.315C106.077 21.4783 106.042 21.7117 105.972 22.015C105.902 22.295 105.809 22.5983 105.692 22.925C105.576 23.2283 105.447 23.52 105.307 23.8C105.191 24.08 105.074 24.29 104.957 24.43C104.841 24.5467 104.631 24.7333 104.327 24.99C104.047 25.2467 103.662 25.5033 103.172 25.76C102.682 26.0167 102.111 26.2383 101.457 26.425C100.804 26.635 100.081 26.74 99.2872 26.74C98.4006 26.74 97.4789 26.6117 96.5222 26.355C95.5889 26.075 94.7372 25.6083 93.9672 24.955C93.1972 24.2783 92.5556 23.38 92.0422 22.26C91.5522 21.1167 91.3072 19.6933 91.3072 17.99C91.3072 17.3833 91.3422 16.695 91.4122 15.925C91.5056 15.1317 91.6806 14.3267 91.9372 13.51C92.1939 12.67 92.5322 11.8533 92.9522 11.06C93.3956 10.2433 93.9789 9.52 94.7022 8.89C95.4256 8.26 96.2889 7.75833 97.2922 7.385C98.3189 6.98833 99.5322 6.79 100.932 6.79C102.076 6.79 103.056 6.93 103.872 7.21C104.712 7.46667 105.401 7.82833 105.937 8.295C106.474 8.73833 106.871 9.26333 107.127 9.87C107.407 10.4767 107.547 11.13 107.547 11.83C107.547 13.09 107.151 14.0233 106.357 14.63C105.564 15.2133 104.444 15.505 102.997 15.505C102.647 15.505 102.402 15.4817 102.262 15.435C102.146 15.365 102.087 15.225 102.087 15.015C102.087 14.455 102.076 13.9533 102.052 13.51C102.029 13.0667 101.959 12.6933 101.842 12.39C101.749 12.0867 101.597 11.8533 101.387 11.69C101.177 11.5267 100.874 11.445 100.477 11.445C99.7539 11.445 99.1706 11.6783 98.7272 12.145C98.3072 12.6117 97.9806 13.1833 97.7472 13.86C97.5372 14.5133 97.3972 15.19 97.3272 15.89C97.2806 16.59 97.2572 17.1733 97.2572 17.64C97.2572 19.2967 97.5139 20.4517 98.0272 21.105C98.5639 21.7583 99.4039 22.085 100.547 22.085Z" fill="#433232"/>
<path d="M121.086 26.74C120.059 26.74 119.032 26.6117 118.006 26.355C117.002 26.0983 116.092 25.655 115.276 25.025C114.482 24.395 113.829 23.555 113.316 22.505C112.802 21.455 112.546 20.1367 112.546 18.55C112.546 17.9667 112.592 17.2667 112.686 16.45C112.779 15.6333 112.954 14.7933 113.211 13.93C113.491 13.0667 113.864 12.215 114.331 11.375C114.821 10.5117 115.451 9.74167 116.221 9.065C116.991 8.38833 117.924 7.84 119.021 7.42C120.117 7 121.424 6.79 122.941 6.79C124.154 6.79 125.181 6.93 126.021 7.21C126.861 7.49 127.537 7.875 128.051 8.365C128.564 8.83167 128.937 9.38 129.171 10.01C129.404 10.64 129.521 11.3167 129.521 12.04C129.521 13.1133 129.299 14.0233 128.856 14.77C128.436 15.5167 127.876 16.1467 127.176 16.66C126.499 17.15 125.741 17.535 124.901 17.815C124.061 18.095 123.232 18.3167 122.416 18.48C121.599 18.62 120.841 18.7133 120.141 18.76C119.464 18.7833 118.939 18.795 118.566 18.795C118.566 19.2383 118.624 19.6817 118.741 20.125C118.881 20.545 119.079 20.9183 119.336 21.245C119.592 21.5717 119.931 21.84 120.351 22.05C120.771 22.26 121.284 22.365 121.891 22.365C122.497 22.365 122.964 22.2717 123.291 22.085C123.641 21.875 123.921 21.6533 124.131 21.42C124.341 21.1633 124.516 20.9417 124.656 20.755C124.819 20.545 125.029 20.44 125.286 20.44C125.402 20.44 125.601 20.475 125.881 20.545C126.184 20.5917 126.487 20.7083 126.791 20.895C127.094 21.0817 127.362 21.3383 127.596 21.665C127.829 21.9917 127.946 22.4117 127.946 22.925C127.946 23.6017 127.736 24.185 127.316 24.675C126.896 25.165 126.347 25.5617 125.671 25.865C125.017 26.1683 124.282 26.39 123.466 26.53C122.649 26.67 121.856 26.74 121.086 26.74ZM121.751 11.445C121.237 11.445 120.794 11.5967 120.421 11.9C120.071 12.18 119.767 12.5417 119.511 12.985C119.277 13.4283 119.091 13.9183 118.951 14.455C118.834 14.9917 118.741 15.505 118.671 15.995C120.117 15.9717 121.284 15.7267 122.171 15.26C123.081 14.7933 123.536 14.1283 123.536 13.265C123.536 12.7983 123.384 12.3783 123.081 12.005C122.801 11.6317 122.357 11.445 121.751 11.445Z" fill="#433232"/>
<path d="M168.688 7.735C168.501 8.295 168.256 9.03 167.953 9.94C167.673 10.8267 167.358 11.8067 167.008 12.88C166.658 13.9533 166.296 15.0967 165.923 16.31C165.55 17.5 165.165 18.6667 164.768 19.81C164.395 20.9533 164.021 22.05 163.648 23.1C163.275 24.1267 162.936 25.025 162.633 25.795C162.54 25.9817 162.341 26.1333 162.038 26.25C161.758 26.3433 161.303 26.39 160.673 26.39C160.276 26.39 159.868 26.3667 159.448 26.32C159.028 26.2733 158.631 26.18 158.258 26.04C157.908 25.9 157.593 25.7133 157.313 25.48C157.056 25.2467 156.858 24.955 156.718 24.605C156.368 23.415 156.03 22.0967 155.703 20.65C155.4 19.18 155.096 17.6867 154.793 16.17C154.49 14.6533 154.186 13.1717 153.883 11.725C153.603 10.255 153.311 8.925 153.008 7.735C153.008 8.06167 152.996 8.62167 152.973 9.415C152.95 10.2083 152.926 11.13 152.903 12.18C152.88 13.23 152.845 14.3617 152.798 15.575C152.775 16.7883 152.751 17.9783 152.728 19.145C152.705 20.2883 152.681 21.3617 152.658 22.365C152.635 23.345 152.623 24.15 152.623 24.78C152.623 25.48 152.576 25.9233 152.483 26.11C152.413 26.2967 152.273 26.39 152.063 26.39H150.138C148.808 26.39 147.863 26.1333 147.303 25.62C146.766 25.0833 146.498 24.3017 146.498 23.275C146.498 22.995 146.51 22.5283 146.533 21.875C146.58 21.1983 146.638 20.405 146.708 19.495C146.778 18.585 146.848 17.5933 146.918 16.52C147.011 15.4233 147.105 14.315 147.198 13.195C147.315 11.6783 147.408 10.4183 147.478 9.415C147.571 8.38833 147.641 7.53667 147.688 6.86C147.735 6.18333 147.77 5.635 147.793 5.215C147.84 4.795 147.863 4.42167 147.863 4.095C147.886 3.76833 147.898 3.465 147.898 3.185C147.921 2.88166 147.933 2.50833 147.933 2.065C147.933 1.87833 148.003 1.75 148.143 1.68C148.283 1.58667 148.411 1.54 148.528 1.54H153.428C154.338 1.54 155.085 1.69167 155.668 1.995C156.251 2.275 156.73 2.71833 157.103 3.325C157.476 3.93167 157.78 4.725 158.013 5.705C158.246 6.66167 158.456 7.805 158.643 9.135C158.853 10.465 159.075 12.005 159.308 13.755C159.565 15.4817 159.891 17.43 160.288 19.6C160.661 18.1533 160.976 16.9517 161.233 15.995C161.49 15.0383 161.7 14.245 161.863 13.615C162.05 12.9617 162.201 12.425 162.318 12.005C162.435 11.585 162.54 11.2 162.633 10.85C162.726 10.4767 162.831 10.08 162.948 9.66C163.065 9.24 163.205 8.715 163.368 8.085C163.531 7.455 163.73 6.67333 163.963 5.74C164.22 4.78333 164.535 3.58167 164.908 2.135C164.955 1.995 165.036 1.86666 165.153 1.75C165.27 1.61 165.48 1.54 165.783 1.54H171.243C171.99 1.54 172.585 1.62167 173.028 1.785C173.495 1.925 173.856 2.135 174.113 2.415C174.37 2.695 174.545 3.045 174.638 3.465C174.731 3.86167 174.778 4.32833 174.778 4.865C174.778 5.40167 174.743 6.27667 174.673 7.49C174.626 8.68 174.545 10.0333 174.428 11.55C174.335 13.0433 174.23 14.595 174.113 16.205C174.02 17.815 173.915 19.3083 173.798 20.685C173.705 22.0617 173.623 23.2283 173.553 24.185C173.483 25.1417 173.436 25.7017 173.413 25.865C173.39 26.0517 173.343 26.1917 173.273 26.285C173.203 26.355 173.063 26.39 172.853 26.39H170.928C169.598 26.39 168.653 26.1333 168.093 25.62C167.556 25.0833 167.288 24.395 167.288 23.555C167.288 23.2983 167.311 22.8317 167.358 22.155C167.428 21.4783 167.51 20.685 167.603 19.775C167.696 18.865 167.801 17.8733 167.918 16.8C168.035 15.7033 168.14 14.6183 168.233 13.545C168.326 12.4717 168.408 11.4333 168.478 10.43C168.571 9.40333 168.641 8.505 168.688 7.735Z" fill="#433232"/>
<path d="M189.349 26.74C188.323 26.74 187.296 26.6117 186.269 26.355C185.266 26.0983 184.356 25.655 183.539 25.025C182.746 24.395 182.093 23.555 181.579 22.505C181.066 21.455 180.809 20.1367 180.809 18.55C180.809 17.9667 180.856 17.2667 180.949 16.45C181.043 15.6333 181.218 14.7933 181.474 13.93C181.754 13.0667 182.128 12.215 182.594 11.375C183.084 10.5117 183.714 9.74167 184.484 9.065C185.254 8.38833 186.188 7.84 187.284 7.42C188.381 7 189.688 6.79 191.204 6.79C192.418 6.79 193.444 6.93 194.284 7.21C195.124 7.49 195.801 7.875 196.314 8.365C196.828 8.83167 197.201 9.38 197.434 10.01C197.668 10.64 197.784 11.3167 197.784 12.04C197.784 13.1133 197.563 14.0233 197.119 14.77C196.699 15.5167 196.139 16.1467 195.439 16.66C194.763 17.15 194.004 17.535 193.164 17.815C192.324 18.095 191.496 18.3167 190.679 18.48C189.863 18.62 189.104 18.7133 188.404 18.76C187.728 18.7833 187.203 18.795 186.829 18.795C186.829 19.2383 186.888 19.6817 187.004 20.125C187.144 20.545 187.343 20.9183 187.599 21.245C187.856 21.5717 188.194 21.84 188.614 22.05C189.034 22.26 189.548 22.365 190.154 22.365C190.761 22.365 191.228 22.2717 191.554 22.085C191.904 21.875 192.184 21.6533 192.394 21.42C192.604 21.1633 192.779 20.9417 192.919 20.755C193.083 20.545 193.293 20.44 193.549 20.44C193.666 20.44 193.864 20.475 194.144 20.545C194.448 20.5917 194.751 20.7083 195.054 20.895C195.358 21.0817 195.626 21.3383 195.859 21.665C196.093 21.9917 196.209 22.4117 196.209 22.925C196.209 23.6017 195.999 24.185 195.579 24.675C195.159 25.165 194.611 25.5617 193.934 25.865C193.281 26.1683 192.546 26.39 191.729 26.53C190.913 26.67 190.119 26.74 189.349 26.74ZM190.014 11.445C189.501 11.445 189.058 11.5967 188.684 11.9C188.334 12.18 188.031 12.5417 187.774 12.985C187.541 13.4283 187.354 13.9183 187.214 14.455C187.098 14.9917 187.004 15.505 186.934 15.995C188.381 15.9717 189.548 15.7267 190.434 15.26C191.344 14.7933 191.799 14.1283 191.799 13.265C191.799 12.7983 191.648 12.3783 191.344 12.005C191.064 11.6317 190.621 11.445 190.014 11.445Z" fill="#433232"/>
<path d="M215.327 23.31C215.327 22.7967 215.362 22.1317 215.432 21.315C215.526 20.475 215.607 19.6 215.677 18.69C215.771 17.7567 215.852 16.8583 215.922 15.995C216.016 15.1317 216.062 14.4083 216.062 13.825C216.062 13.2183 215.911 12.6817 215.607 12.215C215.327 11.725 214.767 11.48 213.927 11.48C213.111 11.48 212.434 11.6783 211.897 12.075C211.361 12.4717 210.906 13.195 210.532 14.245C210.182 15.295 209.891 16.7417 209.657 18.585C209.424 20.4283 209.202 22.7967 208.992 25.69C208.969 25.97 208.911 26.1567 208.817 26.25C208.724 26.3433 208.526 26.39 208.222 26.39H206.962C206.239 26.39 205.644 26.32 205.177 26.18C204.734 26.0167 204.372 25.795 204.092 25.515C203.836 25.235 203.649 24.8967 203.532 24.5C203.439 24.08 203.392 23.6017 203.392 23.065C203.392 22.715 203.404 22.225 203.427 21.595C203.474 20.9417 203.544 20.055 203.637 18.935C203.731 17.7917 203.836 16.3567 203.952 14.63C204.092 12.88 204.256 10.7217 204.442 8.155C204.466 7.64167 204.524 7.33833 204.617 7.245C204.687 7.175 204.874 7.14 205.177 7.14H206.542C207.242 7.14 207.814 7.22167 208.257 7.385C208.724 7.54833 209.097 7.77 209.377 8.05C209.657 8.30667 209.856 8.62167 209.972 8.995C210.089 9.345 210.159 9.70667 210.182 10.08C210.906 8.84333 211.734 7.99167 212.667 7.525C213.601 7.035 214.767 6.79 216.167 6.79C217.147 6.79 217.999 6.895 218.722 7.105C219.446 7.315 220.041 7.67666 220.507 8.19C220.997 8.68 221.359 9.33333 221.592 10.15C221.826 10.9433 221.942 11.935 221.942 13.125C221.942 13.4983 221.919 14.035 221.872 14.735C221.826 15.435 221.767 16.205 221.697 17.045C221.627 17.8617 221.546 18.725 221.452 19.635C221.382 20.5217 221.312 21.35 221.242 22.12C221.172 22.89 221.114 23.5667 221.067 24.15C221.021 24.7333 220.997 25.1183 220.997 25.305C220.997 25.8183 220.939 26.1333 220.822 26.25C220.706 26.3433 220.449 26.39 220.052 26.39H218.932C218.186 26.39 217.579 26.32 217.112 26.18C216.646 26.04 216.284 25.8417 216.027 25.585C215.771 25.3283 215.584 25.0133 215.467 24.64C215.374 24.2433 215.327 23.8 215.327 23.31Z" fill="#433232"/>
<path d="M235.247 10.115C235.247 10.605 235.201 11.2933 235.107 12.18C235.037 13.0667 234.956 13.9883 234.862 14.945C234.792 15.9017 234.711 16.8 234.617 17.64C234.547 18.48 234.512 19.0867 234.512 19.46C234.512 20.2767 234.711 20.9183 235.107 21.385C235.527 21.8283 236.099 22.05 236.822 22.05C237.452 22.05 237.977 21.805 238.397 21.315C238.841 20.8017 239.191 20.1483 239.447 19.355C239.727 18.5383 239.949 17.6167 240.112 16.59C240.276 15.5633 240.392 14.525 240.462 13.475C240.556 12.425 240.626 11.41 240.672 10.43C240.742 9.42667 240.812 8.56333 240.882 7.84C240.906 7.65333 240.976 7.49 241.092 7.35C241.209 7.21 241.396 7.14 241.652 7.14H242.912C243.636 7.14 244.219 7.22167 244.662 7.385C245.129 7.525 245.491 7.735 245.747 8.015C246.027 8.295 246.214 8.645 246.307 9.065C246.424 9.46167 246.482 9.92833 246.482 10.465C246.482 10.815 246.459 11.3167 246.412 11.97C246.389 12.6 246.331 13.4867 246.237 14.63C246.144 15.75 246.027 17.185 245.887 18.935C245.771 20.6617 245.619 22.8083 245.432 25.375C245.386 25.865 245.327 26.1567 245.257 26.25C245.211 26.3433 245.024 26.39 244.697 26.39H243.332C242.632 26.39 242.049 26.3083 241.582 26.145C241.139 25.9817 240.777 25.7717 240.497 25.515C240.217 25.2583 240.019 24.955 239.902 24.605C239.786 24.255 239.716 23.8933 239.692 23.52C239.342 24.1267 238.946 24.64 238.502 25.06C238.082 25.48 237.639 25.8183 237.172 26.075C236.706 26.3083 236.227 26.4717 235.737 26.565C235.247 26.6817 234.769 26.74 234.302 26.74C233.416 26.74 232.622 26.6 231.922 26.32C231.222 26.0167 230.627 25.62 230.137 25.13C229.671 24.64 229.309 24.0567 229.052 23.38C228.796 22.7033 228.667 21.98 228.667 21.21C228.667 20.9067 228.679 20.4167 228.702 19.74C228.749 19.04 228.796 18.2583 228.842 17.395C228.912 16.5317 228.982 15.6217 229.052 14.665C229.122 13.685 229.181 12.7633 229.227 11.9C229.297 11.0367 229.356 10.2783 229.402 9.625C229.472 8.97167 229.519 8.505 229.542 8.225C229.589 7.805 229.682 7.525 229.822 7.385C229.962 7.22167 230.196 7.14 230.522 7.14H231.642C232.366 7.14 232.961 7.21 233.427 7.35C233.894 7.49 234.256 7.68833 234.512 7.945C234.792 8.20167 234.979 8.51667 235.072 8.89C235.189 9.24 235.247 9.64833 235.247 10.115Z" fill="#433232"/>
</g>
<defs>
<filter id="filter0_d_217_74" x="0" y="0" width="250.482" height="34.74" filterUnits="userSpaceOnUse" color-interpolation-filters="sRGB">
<feFlood flood-opacity="0" result="BackgroundImageFix"/>
<feColorMatrix in="SourceAlpha" type="matrix" values="0 0 0 0 0 0 0 0 0 0 0 0 0 0 0 0 0 0 127 0" result="hardAlpha"/>
<feOffset dy="4"/>
<feGaussianBlur stdDeviation="2"/>
<feComposite in2="hardAlpha" operator="out"/>
<feColorMatrix type="matrix" values="0 0 0 0 0 0 0 0 0 0 0 0 0 0 0 0 0 0 0.25 0"/>
<feBlend mode="normal" in2="BackgroundImageFix" result="effect1_dropShadow_217_74"/>
<feBlend mode="normal" in="SourceGraphic" in2="effect1_dropShadow_217_74" result="shape"/>
</filter>
</defs>
</svg>
