<svg width="233" height="29" viewBox="0 0 233 29" fill="none" xmlns="http://www.w3.org/2000/svg">
<path d="M6.55 27.6C6.51 27.6 6.46 27.59 6.4 27.57C6.34 27.55 6.31 27.49 6.31 27.39C6.31 27.35 6.31 27.25 6.31 27.09C6.31 26.71 6.31 26.04 6.31 25.08C6.33 24.12 6.31 22.82 6.25 21.18C6.23 20.66 6.17 20.12 6.07 19.56C5.97 19 5.87 18.65 5.77 18.51C5.69 18.39 5.67 18.29 5.71 18.21C5.77 18.13 5.87 18.09 6.01 18.09L7.93 18.18C8.43 18.2 9.06 18.21 9.82 18.21C10.58 18.21 11.38 18.2 12.22 18.18C13.08 18.16 13.91 18.14 14.71 18.12C15.53 18.08 16.26 18.04 16.9 18C17.54 17.96 18.02 17.92 18.34 17.88C18.38 17.88 18.42 17.87 18.46 17.85C18.6 17.83 18.72 17.83 18.82 17.85L20.38 18.06C20.54 18.08 20.6 18.2 20.56 18.42C20.54 18.68 20.51 19.02 20.47 19.44C20.45 19.84 20.43 20.24 20.41 20.64C20.39 21.02 20.38 21.31 20.38 21.51L20.29 27.06C20.29 27.34 20.14 27.48 19.84 27.48C19.26 27.46 18.53 27.45 17.65 27.45C16.79 27.45 15.86 27.45 14.86 27.45C13.88 27.45 12.91 27.45 11.95 27.45C11.01 27.45 10.18 27.45 9.46 27.45C8.74 27.47 8.22 27.49 7.9 27.51L6.55 27.6ZM8.08 25.86C8.36 25.88 8.85 25.89 9.55 25.89C10.25 25.91 11.04 25.91 11.92 25.89C12.82 25.89 13.71 25.88 14.59 25.86C15.49 25.84 16.29 25.82 16.99 25.8C17.69 25.78 18.19 25.75 18.49 25.71L18.55 19.74C18.55 19.6 18.53 19.52 18.49 19.5C18.45 19.46 18.38 19.44 18.28 19.44L8.08 19.62V25.86ZM1.06 14.22C0.84 14.24 0.69 14.22 0.61 14.16C0.53 14.1 0.47 14.01 0.43 13.89C0.35 13.67 0.28 13.45 0.22 13.23C0.16 13.01 0.09 12.73 0.00999997 12.39C-0.01 12.35 2.6077e-08 12.3 0.04 12.24C0.08 12.16 0.15 12.13 0.25 12.15C1.01 12.25 2.05 12.33 3.37 12.39C4.69 12.43 6.14 12.44 7.72 12.42C8.94 12.42 10.24 12.41 11.62 12.39C13 12.35 14.37 12.31 15.73 12.27C17.11 12.21 18.41 12.15 19.63 12.09C20.87 12.03 21.96 11.96 22.9 11.88C23.86 11.8 24.6 11.71 25.12 11.61C25.32 11.57 25.45 11.58 25.51 11.64C25.57 11.7 25.61 11.78 25.63 11.88L25.81 13.2C25.83 13.48 25.64 13.61 25.24 13.59C24.62 13.55 23.78 13.53 22.72 13.53C21.68 13.53 20.55 13.54 19.33 13.56C18.25 13.56 17.14 13.58 16 13.62C14.88 13.64 13.82 13.66 12.82 13.68C11.84 13.7 10.99 13.72 10.27 13.74C8.25 13.8 6.43 13.87 4.81 13.95C3.19 14.03 1.94 14.12 1.06 14.22ZM17.53 10.65C17.35 10.65 17.29 10.55 17.35 10.35C17.47 9.99 17.6 9.5 17.74 8.88C17.9 8.24 18.04 7.56 18.16 6.84C18.3 6.12 18.42 5.44 18.52 4.8C18.62 4.16 18.68 3.66 18.7 3.3C18.72 3.08 18.62 2.97 18.4 2.97C17.96 2.97 17.36 2.98 16.6 3C15.86 3.02 15.06 3.04 14.2 3.06C13.36 3.08 12.56 3.1 11.8 3.12C11.06 3.14 10.48 3.16 10.06 3.18C9.74 3.18 9.33 3.2 8.83 3.24C8.33 3.28 7.83 3.32 7.33 3.36C6.83 3.4 6.42 3.44 6.1 3.48C5.88 3.5 5.74 3.49 5.68 3.45C5.62 3.39 5.56 3.28 5.5 3.12C5.5 3.1 5.5 3.09 5.5 3.09C5.44 2.93 5.38 2.75 5.32 2.55C5.26 2.35 5.19 2.11 5.11 1.83C5.09 1.79 5.1 1.74 5.14 1.68C5.18 1.62 5.25 1.6 5.35 1.62C5.91 1.66 6.65 1.69 7.57 1.71C8.49 1.73 9.49 1.73 10.57 1.71C11.65 1.69 12.72 1.66 13.78 1.62C14.84 1.58 15.8 1.53 16.66 1.47C17.52 1.39 18.18 1.3 18.64 1.2C18.8 1.16 18.96 1.16 19.12 1.2L20.8 1.56C20.98 1.58 21.05 1.69 21.01 1.89C20.95 2.19 20.87 2.59 20.77 3.09C20.67 3.57 20.59 3.98 20.53 4.32C20.41 5 20.27 5.7 20.11 6.42C19.95 7.14 19.8 7.8 19.66 8.4C19.52 8.98 19.4 9.42 19.3 9.72C19.22 10 19.14 10.21 19.06 10.35C19 10.47 18.86 10.54 18.64 10.56L17.53 10.65Z" fill="black"/>
<path d="M57.2059 28.5C55.9259 28.5 54.7959 28.29 53.8159 27.87C52.8359 27.45 52.0659 26.86 51.5059 26.1C50.9659 25.34 50.6959 24.45 50.6959 23.43C50.6959 22.43 50.9959 21.55 51.5959 20.79C52.2159 20.03 53.0359 19.43 54.0559 18.99C55.0759 18.55 56.1859 18.32 57.3859 18.3C58.8259 18.28 60.0959 18.51 61.1959 18.99V14.49C59.8959 14.51 58.6359 14.53 57.4159 14.55C56.1959 14.57 55.1759 14.6 54.3559 14.64C54.1959 14.64 54.0259 14.65 53.8459 14.67C53.6859 14.67 53.5259 14.67 53.3659 14.67C53.3459 15.35 53.3159 16.06 53.2759 16.8C53.2559 17.52 53.2159 18.16 53.1559 18.72C53.0959 19.28 52.9059 19.57 52.5859 19.59L51.3259 19.68C51.2059 19.68 51.1659 19.63 51.2059 19.53C51.3059 19.01 51.3759 18.3 51.4159 17.4C51.4759 16.48 51.5059 15.59 51.5059 14.73C50.1059 14.79 48.8559 14.85 47.7559 14.91C46.6759 14.97 45.8059 15.04 45.1459 15.12C44.9259 15.14 44.7759 15.12 44.6959 15.06C44.6159 15 44.5559 14.91 44.5159 14.79C44.4359 14.57 44.3659 14.35 44.3059 14.13C44.2459 13.91 44.1759 13.63 44.0959 13.29C44.0759 13.25 44.0859 13.2 44.1259 13.14C44.1659 13.06 44.2359 13.03 44.3359 13.05C45.0959 13.15 46.1359 13.23 47.4559 13.29C48.7759 13.33 50.2259 13.34 51.8059 13.32C53.0259 13.32 54.3259 13.31 55.7059 13.29C57.0859 13.25 58.4559 13.21 59.8159 13.17C61.1959 13.11 62.4959 13.05 63.7159 12.99C64.9559 12.93 66.0459 12.86 66.9859 12.78C67.9459 12.7 68.6859 12.61 69.2059 12.51C69.4059 12.47 69.5359 12.48 69.5959 12.54C69.6559 12.6 69.6959 12.68 69.7159 12.78L69.8959 14.1C69.9159 14.38 69.7259 14.51 69.3259 14.49C68.7059 14.45 67.8659 14.43 66.8059 14.43C65.7659 14.43 64.6359 14.44 63.4159 14.46H63.0859V18.54C63.0859 18.96 62.9859 19.18 62.7859 19.2L61.7059 19.26C62.3859 19.66 62.9159 20.18 63.2959 20.82C63.6959 21.46 63.8959 22.22 63.8959 23.1C63.8959 24.16 63.6059 25.1 63.0259 25.92C62.4459 26.74 61.6459 27.37 60.6259 27.81C59.6259 28.27 58.4859 28.5 57.2059 28.5ZM57.1459 10.62C55.8859 10.64 54.7359 10.46 53.6959 10.08C52.6759 9.68 51.8559 9.09 51.2359 8.31C50.6359 7.53 50.3359 6.6 50.3359 5.52C50.3359 4.5 50.6359 3.61 51.2359 2.85C51.8559 2.07 52.6859 1.46 53.7259 1.02C54.7659 0.559999 55.9159 0.319999 57.1759 0.3C58.4559 0.259999 59.6159 0.429999 60.6559 0.809999C61.6959 1.17 62.5159 1.73 63.1159 2.49C63.7359 3.23 64.0259 4.16 63.9859 5.28C63.9659 6.34 63.6559 7.27 63.0559 8.07C62.4559 8.85 61.6459 9.46 60.6259 9.9C59.6259 10.34 58.4659 10.58 57.1459 10.62ZM57.1759 9.15C58.6159 9.11 59.7659 8.76 60.6259 8.1C61.5059 7.42 61.9659 6.47 62.0059 5.25C62.0459 4.01 61.5959 3.1 60.6559 2.52C59.7359 1.92 58.5659 1.64 57.1459 1.68C55.7459 1.72 54.5759 2.08 53.6359 2.76C52.7159 3.44 52.2559 4.34 52.2559 5.46C52.2559 6.7 52.7059 7.64 53.6059 8.28C54.5259 8.9 55.7159 9.19 57.1759 9.15ZM57.3259 26.94C58.6659 26.9 59.7859 26.57 60.6859 25.95C61.5859 25.33 62.0359 24.38 62.0359 23.1C62.0359 22.32 61.8259 21.68 61.4059 21.18C60.9859 20.66 60.4159 20.27 59.6959 20.01C58.9959 19.75 58.2159 19.64 57.3559 19.68C56.0159 19.72 54.8859 20.07 53.9659 20.73C53.0459 21.37 52.5859 22.26 52.5859 23.4C52.5859 24.54 53.0459 25.41 53.9659 26.01C54.8859 26.63 56.0059 26.94 57.3259 26.94Z" fill="black"/>
<path d="M118.006 0V28.5H116.506V0H118.006Z" fill="black"/>
<path d="M171.829 27.6C171.789 27.6 171.739 27.59 171.679 27.57C171.619 27.55 171.589 27.49 171.589 27.39C171.589 27.31 171.589 27.19 171.589 27.03C171.589 26.89 171.589 26.73 171.589 26.55C171.589 26.01 171.589 25.33 171.589 24.51C171.589 23.69 171.589 22.88 171.589 22.08C171.589 21.28 171.579 20.61 171.559 20.07C171.539 19.55 171.499 19.04 171.439 18.54C171.379 18.04 171.319 17.69 171.259 17.49C171.199 17.29 171.269 17.19 171.469 17.19L173.389 17.22C173.489 17.22 173.539 17.29 173.539 17.43C173.519 17.89 173.499 18.38 173.479 18.9C173.479 19.4 173.479 19.93 173.479 20.49C173.839 20.51 174.359 20.52 175.039 20.52C175.719 20.52 176.469 20.52 177.289 20.52C178.109 20.52 178.939 20.51 179.779 20.49C180.619 20.47 181.389 20.45 182.089 20.43C182.809 20.39 183.379 20.36 183.799 20.34V19.5C183.799 18.82 183.779 18.3 183.739 17.94C183.719 17.56 183.669 17.28 183.589 17.1C183.549 17 183.549 16.93 183.589 16.89C183.649 16.83 183.719 16.8 183.799 16.8H185.629C185.729 16.8 185.779 16.86 185.779 16.98C185.759 17.44 185.739 17.93 185.719 18.45C185.719 18.95 185.719 19.63 185.719 20.49V27.09C185.719 27.35 185.569 27.48 185.269 27.48L173.419 27.51C173.219 27.51 172.919 27.52 172.519 27.54C172.119 27.58 171.889 27.6 171.829 27.6ZM166.459 14.64C166.419 14.64 166.369 14.63 166.309 14.61C166.249 14.59 166.219 14.53 166.219 14.43L166.189 5.46C166.189 4.92 166.149 4.37 166.069 3.81C165.989 3.25 165.919 2.87 165.859 2.67C165.799 2.47 165.869 2.37 166.069 2.37C166.169 2.37 166.359 2.38 166.639 2.4C166.919 2.4 167.189 2.41 167.449 2.43C167.729 2.43 167.889 2.43 167.929 2.43C168.029 2.45 168.079 2.55 168.079 2.73C168.059 3.25 168.049 3.79 168.049 4.35C168.049 4.89 168.049 5.42 168.049 5.94V6.6C168.429 6.6 168.949 6.6 169.609 6.6C170.289 6.6 171.019 6.59 171.799 6.57C172.579 6.55 173.329 6.53 174.049 6.51C174.789 6.49 175.409 6.46 175.909 6.42L175.939 5.1C175.959 4.34 175.929 3.73 175.849 3.27C175.789 2.79 175.709 2.45 175.609 2.25C175.569 2.15 175.569 2.08 175.609 2.04C175.669 1.98 175.739 1.95 175.819 1.95L177.739 1.98C177.839 2 177.889 2.1 177.889 2.28C177.869 2.94 177.849 3.53 177.829 4.05C177.809 4.55 177.799 5.15 177.799 5.85L177.739 13.92C177.739 14.18 177.599 14.31 177.319 14.31L168.139 14.49C168.019 14.49 167.829 14.5 167.569 14.52C167.329 14.54 167.089 14.57 166.849 14.61C166.629 14.63 166.499 14.64 166.459 14.64ZM173.479 25.8C173.679 25.82 174.119 25.83 174.799 25.83C175.499 25.85 176.309 25.86 177.229 25.86C178.169 25.86 179.099 25.85 180.019 25.83C180.939 25.83 181.749 25.82 182.449 25.8C183.149 25.78 183.599 25.76 183.799 25.74V21.99C183.259 21.99 182.549 21.99 181.669 21.99C180.789 21.99 179.839 22 178.819 22.02C177.819 22.02 176.839 22.03 175.879 22.05C174.939 22.05 174.139 22.06 173.479 22.08V25.8ZM168.079 12.93C168.479 12.95 169.029 12.96 169.729 12.96C170.449 12.96 171.209 12.95 172.009 12.93C172.809 12.91 173.559 12.88 174.259 12.84C174.959 12.8 175.499 12.76 175.879 12.72L175.909 7.98C175.409 7.98 174.789 7.98 174.049 7.98C173.329 7.98 172.569 7.99 171.769 8.01C170.989 8.01 170.259 8.02 169.579 8.04C168.919 8.06 168.409 8.08 168.049 8.1L168.079 12.93ZM183.889 15.15C183.809 15.15 183.769 15.1 183.769 15V8.79C183.349 8.81 182.839 8.84 182.239 8.88C181.659 8.92 181.089 8.96 180.529 9C179.989 9.04 179.549 9.08 179.209 9.12C178.989 9.14 178.839 9.13 178.759 9.09C178.679 9.03 178.619 8.94 178.579 8.82C178.499 8.54 178.429 8.29 178.369 8.07C178.329 7.85 178.289 7.65 178.249 7.47C178.209 7.31 178.289 7.25 178.489 7.29C178.789 7.33 179.239 7.36 179.839 7.38C180.439 7.38 181.089 7.38 181.789 7.38C182.489 7.36 183.149 7.33 183.769 7.29V4.26C183.769 3.5 183.739 2.8 183.679 2.16C183.639 1.52 183.569 1.1 183.469 0.899999C183.429 0.799999 183.429 0.73 183.469 0.69C183.529 0.63 183.599 0.599999 183.679 0.599999C183.859 0.599999 184.139 0.599999 184.519 0.599999C184.919 0.599999 185.289 0.609999 185.629 0.629999C185.729 0.629999 185.779 0.709999 185.779 0.87C185.719 1.61 185.679 2.26 185.659 2.82C185.659 3.36 185.659 3.99 185.659 4.71V14.4C185.659 14.7 185.639 14.88 185.599 14.94C185.579 15 185.519 15.04 185.419 15.06L183.889 15.15Z" fill="black"/>
<path d="M214.503 27.6C213.883 27.58 213.403 27.39 213.063 27.03C212.743 26.69 212.583 26.09 212.583 25.23V24.12C212.583 23.5 212.473 22.89 212.253 22.29C212.213 22.23 212.223 22.15 212.283 22.05C212.343 21.95 212.443 21.91 212.583 21.93C212.803 21.95 213.273 21.97 213.993 21.99C214.733 22.01 215.603 22.02 216.603 22.02C217.603 22.02 218.623 22.01 219.663 21.99C220.723 21.97 221.693 21.94 222.573 21.9C223.473 21.86 224.163 21.81 224.643 21.75L224.703 19.62C224.703 19.4 224.603 19.29 224.403 19.29C223.963 19.29 223.353 19.3 222.573 19.32C221.793 19.34 220.963 19.36 220.083 19.38C219.203 19.4 218.363 19.43 217.563 19.47C216.763 19.49 216.113 19.51 215.613 19.53L212.943 19.65C212.763 19.67 212.633 19.66 212.553 19.62C212.473 19.56 212.413 19.44 212.373 19.26L212.163 18.21C212.143 18.17 212.153 18.12 212.193 18.06C212.233 18 212.303 17.98 212.403 18C212.643 18.02 212.983 18.04 213.423 18.06C213.863 18.08 214.363 18.09 214.923 18.09C214.903 17.87 214.883 17.66 214.863 17.46C214.863 17.24 214.863 17.03 214.863 16.83L214.833 15C213.193 15.06 211.723 15.13 210.423 15.21C209.143 15.27 208.123 15.34 207.363 15.42C207.143 15.44 206.993 15.42 206.913 15.36C206.833 15.3 206.773 15.21 206.733 15.09C206.653 14.87 206.583 14.65 206.523 14.43C206.463 14.21 206.393 13.93 206.313 13.59C206.293 13.55 206.303 13.5 206.343 13.44C206.383 13.36 206.453 13.33 206.553 13.35C207.313 13.45 208.353 13.53 209.673 13.59C210.993 13.63 212.443 13.64 214.023 13.62C215.243 13.62 216.543 13.61 217.923 13.59C219.303 13.55 220.673 13.51 222.033 13.47C223.413 13.41 224.713 13.35 225.933 13.29C227.173 13.23 228.263 13.16 229.203 13.08C230.163 13 230.903 12.91 231.423 12.81C231.623 12.77 231.753 12.78 231.813 12.84C231.873 12.9 231.913 12.98 231.933 13.08L232.113 14.4C232.133 14.68 231.943 14.81 231.543 14.79C230.923 14.75 230.083 14.73 229.023 14.73C227.983 14.73 226.853 14.74 225.633 14.76C225.413 14.76 225.183 14.76 224.943 14.76C224.703 14.76 224.463 14.77 224.223 14.79V16.53C224.223 16.79 224.213 17.02 224.193 17.22C224.193 17.42 224.183 17.61 224.163 17.79C224.243 17.77 224.323 17.76 224.403 17.76C224.483 17.76 224.563 17.75 224.643 17.73C224.683 17.73 224.723 17.72 224.763 17.7C224.903 17.68 225.013 17.68 225.093 17.7L226.623 17.91C226.743 17.93 226.803 18.02 226.803 18.18C226.703 19.06 226.623 19.85 226.563 20.55C226.523 21.25 226.473 21.98 226.413 22.74C226.393 22.94 226.353 23.07 226.293 23.13C226.233 23.19 226.113 23.22 225.933 23.22C225.253 23.22 224.413 23.23 223.413 23.25C222.433 23.25 221.393 23.26 220.293 23.28C219.193 23.28 218.133 23.29 217.113 23.31C216.093 23.33 215.213 23.36 214.473 23.4V25.14C214.473 25.6 214.503 25.86 214.563 25.92C214.623 26 214.823 26.05 215.163 26.07C216.463 26.11 217.823 26.12 219.243 26.1C220.663 26.08 222.023 26.03 223.323 25.95C224.163 25.91 224.923 25.85 225.603 25.77C226.283 25.69 226.873 25.59 227.373 25.47C227.573 25.43 227.703 25.44 227.763 25.5C227.823 25.56 227.863 25.64 227.883 25.74L228.063 27.06C228.063 27.16 228.023 27.25 227.943 27.33C227.883 27.41 227.713 27.45 227.433 27.45C225.313 27.45 223.123 27.46 220.863 27.48C218.603 27.52 216.483 27.56 214.503 27.6ZM213.243 10.95C212.663 10.93 212.293 10.72 212.133 10.32C211.993 9.92 211.923 9.43 211.923 8.85V7.68C211.923 7.36 211.893 7.01 211.833 6.63C211.793 6.23 211.713 5.87 211.593 5.55C211.553 5.49 211.563 5.41 211.623 5.31C211.683 5.19 211.783 5.15 211.923 5.19C212.143 5.23 212.623 5.27 213.363 5.31C214.103 5.33 214.983 5.34 216.003 5.34C217.023 5.32 218.063 5.3 219.123 5.28C220.203 5.26 221.193 5.23 222.093 5.19C222.993 5.13 223.683 5.06 224.163 4.98L224.283 2.73C224.283 2.51 224.183 2.4 223.983 2.4C223.523 2.4 222.933 2.41 222.213 2.43C221.513 2.43 220.763 2.44 219.963 2.46C219.163 2.48 218.393 2.5 217.653 2.52C216.933 2.54 216.313 2.56 215.793 2.58C215.333 2.6 214.783 2.63 214.143 2.67C213.503 2.69 212.963 2.72 212.523 2.76C212.223 2.78 212.043 2.67 211.983 2.43L211.653 1.29C211.633 1.25 211.643 1.2 211.683 1.14C211.723 1.08 211.793 1.06 211.893 1.08C212.233 1.1 212.753 1.12 213.453 1.14C214.173 1.16 214.993 1.17 215.913 1.17C216.853 1.17 217.823 1.16 218.823 1.14C219.843 1.12 220.813 1.08 221.733 1.02C222.673 0.959999 223.483 0.879999 224.163 0.779999C224.203 0.779999 224.243 0.769999 224.283 0.749999C224.423 0.73 224.533 0.73 224.613 0.749999L226.293 1.08C226.453 1.1 226.513 1.19 226.473 1.35L226.233 2.91C226.153 3.47 226.093 3.96 226.053 4.38C226.013 4.78 225.973 5.29 225.933 5.91C225.913 6.13 225.853 6.28 225.753 6.36C225.653 6.42 225.553 6.45 225.453 6.45C224.773 6.45 223.943 6.46 222.963 6.48C221.983 6.5 220.933 6.52 219.813 6.54C218.713 6.56 217.633 6.59 216.573 6.63C215.533 6.65 214.613 6.67 213.813 6.69V8.64C213.813 8.98 213.843 9.2 213.903 9.3C213.983 9.4 214.123 9.45 214.323 9.45C216.903 9.55 219.483 9.52 222.063 9.36C222.903 9.32 223.693 9.27 224.433 9.21C225.173 9.15 225.873 9.06 226.533 8.94C226.733 8.9 226.863 8.91 226.923 8.97C226.983 9.03 227.023 9.11 227.043 9.21C227.083 9.37 227.103 9.55 227.103 9.75C227.123 9.93 227.143 10.13 227.163 10.35C227.163 10.51 227.123 10.62 227.043 10.68C226.983 10.72 226.843 10.74 226.623 10.74C225.223 10.74 223.733 10.75 222.153 10.77C220.593 10.79 219.043 10.82 217.503 10.86C215.983 10.88 214.563 10.91 213.243 10.95ZM216.573 18.12C217.513 18.12 218.493 18.11 219.513 18.09C220.533 18.05 221.503 18 222.423 17.94C222.403 17.76 222.393 17.58 222.393 17.4C222.393 17.2 222.393 17.01 222.393 16.83L222.363 14.82C221.283 14.84 220.243 14.86 219.243 14.88C218.263 14.9 217.413 14.92 216.693 14.94V16.53C216.693 17.17 216.653 17.7 216.573 18.12Z" fill="black"/>
</svg>
