<svg width="225" height="29" viewBox="0 0 225 29" fill="none" xmlns="http://www.w3.org/2000/svg">
<path d="M0.853636 18.84L0.0436364 18.15C-0.0363636 18.07 -0.00636363 17.98 0.133636 17.88C0.153636 17.86 0.163636 17.85 0.163636 17.85C1.54364 16.83 2.80364 15.69 3.94364 14.43C5.08364 13.15 6.05364 11.83 6.85364 10.47C7.67364 9.11 8.26364 7.79 8.62364 6.51C8.78364 5.93 8.93364 5.28 9.07364 4.56C9.21364 3.84 9.28364 3.29 9.28364 2.91C9.28364 2.79 9.31364 2.71 9.37364 2.67C9.43364 2.61 9.49364 2.6 9.55364 2.64L11.6236 3.15C11.7236 3.17 11.7636 3.28 11.7436 3.48C11.6636 3.76 11.5436 4.13 11.3836 4.59C11.2236 5.05 11.0636 5.52 10.9036 6C10.7436 6.46 10.6036 6.86 10.4836 7.2C10.3236 7.6 10.1436 8.03 9.94364 8.49C9.74364 8.93 9.52364 9.39 9.28364 9.87C10.2436 10.59 11.2336 11.36 12.2536 12.18C13.2736 13 14.2036 13.77 15.0436 14.49C15.8836 15.21 16.5136 15.8 16.9336 16.26C17.0136 16.36 17.0736 16.48 17.1136 16.62C17.1736 16.74 17.1536 16.87 17.0536 17.01C16.8736 17.23 16.6736 17.43 16.4536 17.61C16.2536 17.79 16.0436 17.97 15.8236 18.15C15.7036 18.25 15.6036 18.23 15.5236 18.09C15.2036 17.61 14.7736 17.06 14.2336 16.44C13.6936 15.82 13.0936 15.18 12.4336 14.52C11.7936 13.86 11.1336 13.23 10.4536 12.63C9.79364 12.03 9.17364 11.51 8.59364 11.07C7.85364 12.31 6.92364 13.6 5.80364 14.94C4.70364 16.26 3.36364 17.55 1.78364 18.81C1.68364 18.89 1.54364 18.96 1.36364 19.02C1.20364 19.08 1.03364 19.02 0.853636 18.84ZM19.9936 26.1C19.9136 26.1 19.8736 26.05 19.8736 25.95V4.29C19.8736 3.53 19.8436 2.83 19.7836 2.19C19.7436 1.53 19.6736 1.1 19.5736 0.899999C19.5336 0.799999 19.5336 0.73 19.5736 0.69C19.6336 0.63 19.7036 0.599999 19.7836 0.599999C19.9036 0.599999 20.1036 0.609999 20.3836 0.629999C20.6836 0.629999 20.9736 0.639999 21.2536 0.659999C21.5336 0.659999 21.6936 0.659999 21.7336 0.659999C21.8336 0.659999 21.8836 0.739999 21.8836 0.899999C21.8236 1.64 21.7836 2.29 21.7636 2.85C21.7636 3.39 21.7636 4.02 21.7636 4.74V25.35C21.7636 25.65 21.7436 25.83 21.7036 25.89C21.6836 25.95 21.6236 25.99 21.5236 26.01L19.9936 26.1Z" fill="black"/>
<path d="M51.1013 27.6C50.4813 27.58 49.9913 27.37 49.6313 26.97C49.2713 26.57 49.0913 25.94 49.0913 25.08V23.55C49.0913 23.23 49.0713 22.91 49.0313 22.59C48.9913 22.27 48.9013 21.98 48.7613 21.72C48.7213 21.64 48.7213 21.56 48.7613 21.48C48.8013 21.4 48.8913 21.36 49.0313 21.36C49.5513 21.38 50.2213 21.4 51.0413 21.42C51.8613 21.42 52.7613 21.42 53.7413 21.42C54.7213 21.42 55.6913 21.41 56.6513 21.39C57.6313 21.35 58.5213 21.31 59.3213 21.27C60.1413 21.23 60.7913 21.17 61.2713 21.09L61.3613 18.51C61.3613 18.49 61.3613 18.46 61.3613 18.42C61.3613 18.32 61.3513 18.26 61.3313 18.24C61.3113 18.2 61.2213 18.18 61.0613 18.18C60.6213 18.18 59.9913 18.19 59.1713 18.21C58.3513 18.23 57.4713 18.26 56.5313 18.3C55.6113 18.32 54.7313 18.35 53.8913 18.39C53.0513 18.41 52.3713 18.44 51.8513 18.48L49.5413 18.63C49.3213 18.65 49.1813 18.63 49.1213 18.57C49.0613 18.49 49.0113 18.38 48.9713 18.24L48.7913 17.13C48.7513 16.97 48.8313 16.9 49.0313 16.92C49.3713 16.94 49.8913 16.96 50.5913 16.98C51.3113 17 52.1313 17.01 53.0513 17.01C53.9913 16.99 54.9613 16.96 55.9613 16.92C56.9613 16.88 57.9213 16.83 58.8413 16.77C59.7613 16.71 60.5613 16.63 61.2413 16.53C61.2813 16.53 61.3213 16.52 61.3613 16.5C61.5013 16.48 61.6113 16.48 61.6913 16.5L63.2213 16.74C63.3213 16.76 63.3713 16.8 63.3713 16.86C63.3913 16.9 63.4013 16.94 63.4013 16.98C63.4013 17 63.4013 17.01 63.4013 17.01C63.3013 17.91 63.2213 18.76 63.1613 19.56C63.1013 20.36 63.0413 21.21 62.9813 22.11C62.9613 22.33 62.9013 22.47 62.8013 22.53C62.7013 22.57 62.6013 22.59 62.5013 22.59C61.8413 22.59 61.0213 22.6 60.0413 22.62C59.0613 22.64 58.0213 22.66 56.9213 22.68C55.8413 22.7 54.7813 22.73 53.7413 22.77C52.7013 22.79 51.7813 22.81 50.9813 22.83V24.96C50.9813 25.42 51.0213 25.71 51.1013 25.83C51.2013 25.97 51.4213 26.05 51.7613 26.07C53.0613 26.11 54.4413 26.12 55.9013 26.1C57.3613 26.08 58.7413 26.03 60.0413 25.95C60.8613 25.91 61.6113 25.85 62.2913 25.77C62.9713 25.69 63.5713 25.58 64.0913 25.44C64.2913 25.4 64.4213 25.41 64.4813 25.47C64.5413 25.53 64.5813 25.61 64.6013 25.71L64.7813 26.97C64.8013 27.07 64.7713 27.16 64.6913 27.24C64.6113 27.32 64.4313 27.36 64.1513 27.36C62.7513 27.36 61.2913 27.37 59.7713 27.39C58.2513 27.43 56.7513 27.46 55.2713 27.48C53.8113 27.52 52.4213 27.56 51.1013 27.6ZM42.4913 14.97L41.7413 14.25C41.6613 14.17 41.6913 14.08 41.8313 13.98C41.8513 13.96 41.8613 13.95 41.8613 13.95C43.4813 12.95 44.9313 11.68 46.2113 10.14C47.4913 8.6 48.4713 6.99 49.1513 5.31C49.3713 4.77 49.5513 4.17 49.6913 3.51C49.8313 2.83 49.9113 2.29 49.9313 1.89C49.9313 1.71 50.0313 1.63 50.2313 1.65C50.4513 1.69 50.7613 1.76 51.1613 1.86C51.5813 1.96 51.9413 2.06 52.2413 2.16C52.3613 2.22 52.3913 2.33 52.3313 2.49C52.1913 2.89 52.0013 3.41 51.7613 4.05C51.5413 4.67 51.3213 5.22 51.1013 5.7C51.0013 5.94 50.8713 6.2 50.7113 6.48C50.5713 6.74 50.4213 7.02 50.2613 7.32C51.0413 7.92 51.8413 8.58 52.6613 9.3C53.5013 10.02 54.2613 10.69 54.9413 11.31C55.6213 11.93 56.1013 12.4 56.3813 12.72C56.4613 12.8 56.5213 12.9 56.5613 13.02C56.6013 13.14 56.5713 13.27 56.4713 13.41C56.4313 13.47 56.3213 13.58 56.1413 13.74C55.9813 13.9 55.8113 14.05 55.6313 14.19C55.4713 14.33 55.3513 14.43 55.2713 14.49C55.1113 14.59 54.9913 14.57 54.9113 14.43C54.5313 13.87 54.0313 13.22 53.4113 12.48C52.7913 11.74 52.1413 11.01 51.4613 10.29C50.7813 9.55 50.1413 8.94 49.5413 8.46C48.8013 9.52 47.9313 10.62 46.9313 11.76C45.9313 12.88 44.7613 13.93 43.4213 14.91C43.3013 14.99 43.1613 15.07 43.0013 15.15C42.8413 15.21 42.6713 15.15 42.4913 14.97ZM61.5413 14.97C61.4613 14.97 61.4213 14.92 61.4213 14.82V7.8C61.0613 7.82 60.7113 7.84 60.3713 7.86C60.0313 7.88 59.7113 7.9 59.4113 7.92C58.9313 7.94 58.3813 7.99 57.7613 8.07C57.1413 8.13 56.5913 8.19 56.1113 8.25C55.8913 8.29 55.7413 8.28 55.6613 8.22C55.5813 8.16 55.5213 8.07 55.4813 7.95C55.4013 7.69 55.3313 7.45 55.2713 7.23C55.2313 6.99 55.1913 6.77 55.1513 6.57C55.1513 6.41 55.2313 6.35 55.3913 6.39C55.7113 6.43 56.2113 6.46 56.8913 6.48C57.5913 6.48 58.3513 6.47 59.1713 6.45C59.9913 6.41 60.7413 6.37 61.4213 6.33V4.26C61.4213 3.5 61.3913 2.8 61.3313 2.16C61.2913 1.52 61.2213 1.1 61.1213 0.899999C61.0813 0.799999 61.0813 0.73 61.1213 0.69C61.1813 0.63 61.2513 0.599999 61.3313 0.599999C61.4913 0.599999 61.7613 0.599999 62.1413 0.599999C62.5413 0.599999 62.9213 0.609999 63.2813 0.629999C63.3813 0.629999 63.4313 0.709999 63.4313 0.87C63.3713 1.61 63.3313 2.26 63.3113 2.82C63.3113 3.36 63.3113 3.99 63.3113 4.71V14.22C63.3113 14.52 63.2913 14.7 63.2513 14.76C63.2313 14.82 63.1713 14.86 63.0713 14.88L61.5413 14.97Z" fill="black"/>
<path d="M113.789 0V28.5H112.289V0H113.789Z" fill="black"/>
<path d="M165.242 12.12C165.122 12.2 164.972 12.24 164.792 12.24C164.632 12.22 164.472 12.1 164.312 11.88L163.742 11.19C163.682 11.09 163.672 11.03 163.712 11.01C163.772 10.97 163.832 10.94 163.892 10.92C163.912 10.92 163.922 10.92 163.922 10.92C166.422 10.08 168.452 9.02 170.012 7.74C171.572 6.46 172.512 5.04 172.832 3.48C172.312 3.5 171.862 3.52 171.482 3.54C171.102 3.54 170.832 3.55 170.672 3.57C170.352 3.59 169.872 3.63 169.232 3.69C168.612 3.73 167.982 3.77 167.342 3.81C166.722 3.85 166.242 3.89 165.902 3.93C165.682 3.97 165.542 3.95 165.482 3.87C165.422 3.79 165.362 3.69 165.302 3.57C165.302 3.55 165.302 3.54 165.302 3.54C165.222 3.32 165.162 3.13 165.122 2.97C165.082 2.81 165.022 2.56 164.942 2.22C164.922 2.18 164.932 2.13 164.972 2.07C165.012 2.01 165.082 1.99 165.182 2.01C165.682 2.05 166.402 2.08 167.342 2.1C168.302 2.12 169.382 2.13 170.582 2.13C171.802 2.11 173.042 2.08 174.302 2.04C175.582 1.98 176.792 1.9 177.932 1.8C179.092 1.7 180.082 1.58 180.902 1.44C180.962 1.42 181.032 1.43 181.112 1.47C181.192 1.49 181.242 1.55 181.262 1.65C181.282 1.77 181.302 1.91 181.322 2.07C181.362 2.23 181.392 2.39 181.412 2.55L181.472 3.12C181.512 3.34 181.392 3.45 181.112 3.45L177.422 3.42C177.122 3.42 176.752 3.42 176.312 3.42C175.892 3.42 175.452 3.43 174.992 3.45C174.752 4.35 174.392 5.19 173.912 5.97C175.552 6.59 177.012 7.15 178.292 7.65C179.592 8.15 180.732 8.69 181.712 9.27C181.812 9.33 181.912 9.42 182.012 9.54C182.112 9.64 182.132 9.77 182.072 9.93C181.972 10.15 181.862 10.39 181.742 10.65C181.622 10.89 181.482 11.13 181.322 11.37C181.242 11.51 181.142 11.53 181.022 11.43C180.382 10.85 179.592 10.29 178.652 9.75C177.732 9.19 176.782 8.68 175.802 8.22C174.822 7.76 173.912 7.39 173.072 7.11C172.112 8.25 170.942 9.22 169.562 10.02C168.202 10.82 166.762 11.52 165.242 12.12ZM172.622 26.16C172.542 26.16 172.502 26.11 172.502 26.01V16.14C170.102 16.18 167.922 16.25 165.962 16.35C164.002 16.43 162.462 16.52 161.342 16.62C161.122 16.64 160.972 16.62 160.892 16.56C160.812 16.5 160.752 16.41 160.712 16.29C160.632 16.07 160.562 15.85 160.502 15.63C160.442 15.39 160.372 15.1 160.292 14.76C160.272 14.72 160.282 14.67 160.322 14.61C160.362 14.53 160.432 14.5 160.532 14.52C161.292 14.62 162.322 14.69 163.622 14.73C164.942 14.75 166.392 14.76 167.972 14.76C169.512 14.76 171.132 14.74 172.832 14.7C174.552 14.66 176.222 14.61 177.842 14.55C179.462 14.49 180.902 14.41 182.162 14.31C183.442 14.21 184.412 14.1 185.072 13.98C185.272 13.94 185.402 13.95 185.462 14.01C185.522 14.07 185.562 14.15 185.582 14.25L185.762 15.69C185.762 15.79 185.732 15.88 185.672 15.96C185.612 16.04 185.452 16.08 185.192 16.08C184.512 16.06 183.722 16.05 182.822 16.05C181.922 16.05 180.962 16.05 179.942 16.05C179.002 16.05 178.072 16.06 177.152 16.08C176.232 16.08 175.322 16.09 174.422 16.11V25.41C174.422 25.71 174.402 25.89 174.362 25.95C174.342 26.01 174.282 26.05 174.182 26.07C174.102 26.07 173.952 26.07 173.732 26.07C173.512 26.09 173.292 26.11 173.072 26.13C172.852 26.15 172.702 26.16 172.622 26.16Z" fill="black"/>
<path d="M222.722 26.1C222.642 26.1 222.602 26.05 222.602 25.95V12.21L219.752 12.33C219.272 12.35 218.762 12.39 218.222 12.45C217.682 12.51 217.172 12.57 216.692 12.63C216.472 12.67 216.322 12.66 216.242 12.6C216.162 12.54 216.102 12.45 216.062 12.33C215.982 12.07 215.922 11.82 215.882 11.58C215.842 11.32 215.802 11.1 215.762 10.92C215.762 10.76 215.842 10.7 216.002 10.74C216.242 10.78 216.622 10.81 217.142 10.83C217.662 10.83 218.242 10.83 218.882 10.83C219.542 10.81 220.192 10.79 220.832 10.77C221.492 10.75 222.082 10.72 222.602 10.68V4.29C222.602 3.53 222.572 2.83 222.512 2.19C222.472 1.53 222.402 1.1 222.302 0.899999C222.262 0.799999 222.262 0.73 222.302 0.69C222.362 0.63 222.432 0.599999 222.512 0.599999C222.632 0.599999 222.832 0.609999 223.112 0.629999C223.412 0.629999 223.702 0.639999 223.982 0.659999C224.262 0.659999 224.422 0.659999 224.462 0.659999C224.562 0.659999 224.612 0.739999 224.612 0.899999C224.552 1.64 224.512 2.29 224.492 2.85C224.492 3.39 224.492 4.02 224.492 4.74V25.35C224.492 25.65 224.472 25.83 224.432 25.89C224.412 25.95 224.352 25.99 224.252 26.01L222.722 26.1ZM204.542 21.24L203.822 20.58C203.742 20.5 203.772 20.4 203.912 20.28C205.172 19.62 206.422 18.73 207.662 17.61C208.922 16.49 210.082 15.25 211.142 13.89C212.202 12.53 213.082 11.14 213.782 9.72C214.482 8.28 214.912 6.92 215.072 5.64C215.112 5.42 215.022 5.31 214.802 5.31L208.922 5.67L205.802 5.94C205.602 5.96 205.472 5.94 205.412 5.88C205.352 5.8 205.302 5.71 205.262 5.61C205.242 5.59 205.232 5.57 205.232 5.55C205.152 5.33 205.092 5.15 205.052 5.01C205.012 4.85 204.952 4.6 204.872 4.26C204.852 4.22 204.862 4.17 204.902 4.11C204.942 4.05 205.012 4.03 205.112 4.05C205.992 4.13 206.972 4.17 208.052 4.17C209.152 4.15 210.252 4.11 211.352 4.05C212.452 3.97 213.442 3.88 214.322 3.78C214.562 3.76 214.822 3.72 215.102 3.66C215.382 3.6 215.522 3.57 215.522 3.57C215.622 3.53 215.732 3.53 215.852 3.57L217.502 4.11C217.662 4.19 217.732 4.32 217.712 4.5L217.022 6.72C216.742 7.6 216.302 8.65 215.702 9.87C215.102 11.09 214.332 12.38 213.392 13.74C212.452 15.08 211.322 16.4 210.002 17.7C208.702 19 207.202 20.18 205.502 21.24C205.342 21.34 205.182 21.4 205.022 21.42C204.862 21.44 204.702 21.38 204.542 21.24Z" fill="black"/>
</svg>
