<svg width="211" height="29" viewBox="0 0 211 29" fill="none" xmlns="http://www.w3.org/2000/svg">
<path d="M6.66 27.6109C6.62 27.6109 6.57 27.6009 6.51 27.5809C6.45 27.5609 6.42 27.5009 6.42 27.4009C6.42 27.3609 6.42 27.2609 6.42 27.1009C6.42 26.9209 6.42 26.6309 6.42 26.2309C6.44 25.8309 6.44 25.2409 6.42 24.4609C6.42 23.6809 6.41 22.6409 6.39 21.3409C6.39 20.8209 6.33 20.2809 6.21 19.7209C6.11 19.1609 6.01 18.8109 5.91 18.6709C5.83 18.5509 5.81 18.4509 5.85 18.3709C5.91 18.2909 6.01 18.2509 6.15 18.2509L8.07 18.3109C8.71 18.3309 9.51 18.3409 10.47 18.3409C11.43 18.3409 12.43 18.3309 13.47 18.3109C14.51 18.2709 15.45 18.2309 16.29 18.1909C17.15 18.1509 17.77 18.1009 18.15 18.0409C18.19 18.0409 18.23 18.0309 18.27 18.0109C18.41 17.9909 18.53 17.9909 18.63 18.0109L20.22 18.2209C20.38 18.2409 20.44 18.3609 20.4 18.5809C20.38 18.8409 20.35 19.1809 20.31 19.6009C20.29 20.0009 20.27 20.4009 20.25 20.8009C20.23 21.1809 20.22 21.4709 20.22 21.6709L20.13 27.0709C20.13 27.3509 19.98 27.4909 19.68 27.4909C19.12 27.4709 18.41 27.4609 17.55 27.4609C16.69 27.4609 15.78 27.4609 14.82 27.4609C13.86 27.4609 12.92 27.4609 12 27.4609C11.08 27.4609 10.27 27.4609 9.57 27.4609C8.87 27.4809 8.36 27.5009 8.04 27.5209L6.66 27.6109ZM6.27 14.0209C5.13 14.0409 4.08 13.8209 3.12 13.3609C2.18 12.9009 1.42 12.2509 0.84 11.4109C0.28 10.5509 0 9.56091 0 8.44091C0 7.36091 0.28 6.39091 0.84 5.53091C1.42 4.65091 2.18 3.95091 3.12 3.43091C4.08 2.91091 5.14 2.64091 6.3 2.62091C7.44 2.56091 8.48 2.75091 9.42 3.19091C10.38 3.63091 11.15 4.28091 11.73 5.14091C12.31 5.98091 12.6 7.00091 12.6 8.20091C12.6 9.30091 12.31 10.2909 11.73 11.1709C11.15 12.0309 10.38 12.7109 9.42 13.2109C8.46 13.7109 7.41 13.9809 6.27 14.0209ZM8.22 25.8709C8.5 25.8909 8.97 25.9109 9.63 25.9309C10.31 25.9309 11.08 25.9309 11.94 25.9309C12.8 25.9109 13.66 25.8909 14.52 25.8709C15.38 25.8509 16.15 25.8309 16.83 25.8109C17.51 25.7909 18 25.7609 18.3 25.7209L18.36 19.9609C18.36 19.8209 18.34 19.7409 18.3 19.7209C18.26 19.6809 18.19 19.6609 18.09 19.6609L8.22 19.7809V25.8709ZM6.3 12.4909C7.5 12.4509 8.51 12.0509 9.33 11.2909C10.15 10.5109 10.56 9.48091 10.56 8.20091C10.56 6.78091 10.14 5.74091 9.3 5.08091C8.48 4.42091 7.47 4.11091 6.27 4.15091C5.05 4.23091 4.03 4.64091 3.21 5.38091C2.39 6.12091 1.98 7.13091 1.98 8.41091C1.98 9.75091 2.39 10.7809 3.21 11.5009C4.05 12.2009 5.08 12.5309 6.3 12.4909ZM18.36 16.3309C18.28 16.3309 18.24 16.2809 18.24 16.1809V4.42091C18.24 3.66091 18.21 2.96091 18.15 2.32091C18.11 1.68091 18.04 1.26091 17.94 1.06091C17.9 0.96091 17.9 0.89091 17.94 0.850911C18 0.79091 18.07 0.76091 18.15 0.76091C18.35 0.76091 18.64 0.76091 19.02 0.76091C19.42 0.76091 19.78 0.77091 20.1 0.79091C20.2 0.79091 20.25 0.87091 20.25 1.03091C20.19 1.77091 20.15 2.42091 20.13 2.98091C20.13 3.52091 20.13 4.15091 20.13 4.87091V15.5809C20.13 15.8809 20.11 16.0609 20.07 16.1209C20.05 16.1809 19.99 16.2209 19.89 16.2409L18.36 16.3309Z" fill="black"/>
<path d="M35.0006 16.9309L34.2506 16.2709C34.1706 16.1909 34.2006 16.1009 34.3406 16.0009C34.3606 15.9809 34.3706 15.9709 34.3706 15.9709C35.4906 15.2309 36.5406 14.3009 37.5206 13.1809C38.5206 12.0409 39.4106 10.8509 40.1906 9.61091C40.9706 8.37091 41.5806 7.21091 42.0206 6.13091C42.1606 5.79091 42.2806 5.40091 42.3806 4.96091C42.5006 4.50091 42.5906 4.06091 42.6506 3.64091C42.7306 3.22091 42.7706 2.88091 42.7706 2.62091C42.7706 2.44091 42.8706 2.36091 43.0706 2.38091C43.2906 2.42091 43.6006 2.50091 44.0006 2.62091C44.4006 2.74091 44.7506 2.85091 45.0506 2.95091C45.1706 3.01091 45.2006 3.12091 45.1406 3.28091C45.0006 3.68091 44.8106 4.20091 44.5706 4.84091C44.3306 5.48091 44.1106 6.04091 43.9106 6.52091C43.7706 6.84091 43.6106 7.18091 43.4306 7.54091C43.2706 7.90091 43.0806 8.28091 42.8606 8.68091C43.4606 9.14091 44.1206 9.65091 44.8406 10.2109C45.5806 10.7509 46.3006 11.2909 47.0006 11.8309C47.7006 12.3709 48.3206 12.8609 48.8606 13.3009C49.4006 13.7409 49.7906 14.0809 50.0306 14.3209C50.1106 14.3809 50.1706 14.4809 50.2106 14.6209C50.2706 14.7409 50.2506 14.8709 50.1506 15.0109C50.0706 15.1309 49.8806 15.3209 49.5806 15.5809C49.3006 15.8409 49.1006 16.0309 48.9806 16.1509C48.8206 16.2509 48.7006 16.2309 48.6206 16.0909C48.3206 15.6709 47.9006 15.1809 47.3606 14.6209C46.8406 14.0609 46.2706 13.4809 45.6506 12.8809C45.0506 12.2809 44.4406 11.7209 43.8206 11.2009C43.2006 10.6809 42.6506 10.2509 42.1706 9.91091C41.5106 11.0109 40.6706 12.1709 39.6506 13.3909C38.6506 14.5909 37.4106 15.7509 35.9306 16.8709C35.8306 16.9509 35.7006 17.0209 35.5406 17.0809C35.3806 17.1409 35.2006 17.0909 35.0006 16.9309ZM53.7506 20.4109C53.6706 20.4109 53.6306 20.3609 53.6306 20.2609V4.42091C53.6306 3.66091 53.6006 2.96091 53.5406 2.32091C53.5006 1.68091 53.4306 1.26091 53.3306 1.06091C53.2906 0.96091 53.2906 0.89091 53.3306 0.850911C53.3906 0.79091 53.4606 0.76091 53.5406 0.76091C53.8206 0.76091 54.1506 0.76091 54.5306 0.76091C54.9106 0.76091 55.2306 0.77091 55.4906 0.79091C55.5906 0.79091 55.6406 0.87091 55.6406 1.03091C55.5806 1.77091 55.5406 2.42091 55.5206 2.98091C55.5206 3.52091 55.5206 4.15091 55.5206 4.87091V19.6609C55.5206 19.9609 55.5006 20.1409 55.4606 20.2009C55.4406 20.2609 55.3806 20.3009 55.2806 20.3209L53.7506 20.4109ZM43.9406 27.4609C43.3006 27.4609 42.8106 27.2209 42.4706 26.7409C42.1506 26.2809 41.9906 25.6209 41.9906 24.7609V22.0909C41.9906 21.3909 41.9606 20.8109 41.9006 20.3509C41.8406 19.8909 41.7806 19.5609 41.7206 19.3609C41.6606 19.1609 41.7306 19.0609 41.9306 19.0609C42.0506 19.0609 42.2506 19.0709 42.5306 19.0909C42.8306 19.0909 43.1106 19.1009 43.3706 19.1209C43.6506 19.1409 43.8006 19.1509 43.8206 19.1509C43.9206 19.1509 43.9706 19.2509 43.9706 19.4509C43.9306 19.9109 43.9006 20.3209 43.8806 20.6809C43.8806 21.0209 43.8806 21.4509 43.8806 21.9709V24.5809C43.8806 25.0809 43.9406 25.4309 44.0606 25.6309C44.2006 25.8109 44.4206 25.9109 44.7206 25.9309C45.2806 25.9509 45.9606 25.9609 46.7606 25.9609C47.5806 25.9809 48.4306 25.9809 49.3106 25.9609C50.2106 25.9209 51.0606 25.8809 51.8606 25.8409C52.7006 25.8009 53.5706 25.7309 54.4706 25.6309C55.3706 25.5109 56.0606 25.3909 56.5406 25.2709C56.7406 25.2309 56.8706 25.2409 56.9306 25.3009C56.9906 25.3609 57.0306 25.4409 57.0506 25.5409L57.2906 26.9509C57.2906 27.0509 57.2606 27.1309 57.2006 27.1909C57.1606 27.2509 57.0006 27.2809 56.7206 27.2809C54.7406 27.2809 52.7006 27.3109 50.6006 27.3709C48.5006 27.4309 46.2806 27.4609 43.9406 27.4609Z" fill="black"/>
<path d="M103.293 0.16091V28.6609H101.793V0.16091H103.293Z" fill="black"/>
<path d="M155.393 27.7609C154.773 27.7409 154.293 27.5509 153.953 27.1909C153.633 26.8509 153.473 26.2509 153.473 25.3909V24.2809C153.473 23.6609 153.363 23.0509 153.143 22.4509C153.103 22.3909 153.113 22.3109 153.173 22.2109C153.233 22.1109 153.333 22.0709 153.473 22.0909C153.693 22.1109 154.163 22.1309 154.883 22.1509C155.623 22.1709 156.493 22.1809 157.493 22.1809C158.493 22.1809 159.513 22.1709 160.553 22.1509C161.613 22.1309 162.583 22.1009 163.463 22.0609C164.363 22.0209 165.053 21.9709 165.533 21.9109L165.593 19.7809C165.593 19.5609 165.493 19.4509 165.293 19.4509C164.853 19.4509 164.243 19.4609 163.463 19.4809C162.683 19.5009 161.853 19.5209 160.973 19.5409C160.093 19.5609 159.253 19.5909 158.453 19.6309C157.653 19.6509 157.003 19.6709 156.503 19.6909L153.833 19.8109C153.653 19.8309 153.523 19.8209 153.443 19.7809C153.363 19.7209 153.303 19.6009 153.263 19.4209L153.053 18.3709C153.033 18.3309 153.043 18.2809 153.083 18.2209C153.123 18.1609 153.193 18.1409 153.293 18.1609C153.753 18.2009 154.553 18.2309 155.693 18.2509C156.833 18.2709 158.073 18.2709 159.413 18.2509C159.393 18.0909 159.383 17.9309 159.383 17.7709C159.383 17.5909 159.383 17.4309 159.383 17.2909L159.353 15.0409C159.013 15.0609 158.683 15.0709 158.363 15.0709C158.043 15.0709 157.743 15.0809 157.463 15.1009C155.443 15.1609 153.623 15.2309 152.003 15.3109C150.383 15.3909 149.133 15.4809 148.253 15.5809C148.033 15.6009 147.883 15.5809 147.803 15.5209C147.723 15.4609 147.663 15.3709 147.623 15.2509C147.543 15.0309 147.473 14.8109 147.413 14.5909C147.353 14.3709 147.283 14.0909 147.203 13.7509C147.183 13.7109 147.193 13.6609 147.233 13.6009C147.273 13.5209 147.343 13.4909 147.443 13.5109C148.203 13.6109 149.243 13.6909 150.563 13.7509C151.883 13.7909 153.333 13.8009 154.913 13.7809C156.133 13.7809 157.433 13.7709 158.813 13.7509C160.193 13.7109 161.563 13.6709 162.923 13.6309C164.303 13.5709 165.603 13.5109 166.823 13.4509C168.063 13.3909 169.153 13.3209 170.093 13.2409C171.053 13.1609 171.793 13.0709 172.313 12.9709C172.513 12.9309 172.643 12.9409 172.703 13.0009C172.763 13.0609 172.803 13.1409 172.823 13.2409L173.003 14.5609C173.023 14.8409 172.833 14.9709 172.433 14.9509C171.813 14.9109 170.973 14.8909 169.913 14.8909C168.873 14.8909 167.743 14.9009 166.523 14.9209L161.273 15.0109V16.9909C161.273 17.2309 161.263 17.4509 161.243 17.6509C161.243 17.8509 161.233 18.0409 161.213 18.2209C162.893 18.1609 164.333 18.0509 165.533 17.8909C165.573 17.8909 165.613 17.8809 165.653 17.8609C165.793 17.8409 165.903 17.8409 165.983 17.8609L167.513 18.0709C167.633 18.0909 167.693 18.1809 167.693 18.3409C167.593 19.2209 167.513 20.0109 167.453 20.7109C167.413 21.4109 167.363 22.1409 167.303 22.9009C167.283 23.1009 167.243 23.2309 167.183 23.2909C167.123 23.3509 167.003 23.3809 166.823 23.3809C166.143 23.3809 165.303 23.3909 164.303 23.4109C163.323 23.4109 162.283 23.4209 161.183 23.4409C160.083 23.4409 159.023 23.4509 158.003 23.4709C156.983 23.4909 156.103 23.5209 155.363 23.5609V25.3009C155.363 25.7609 155.393 26.0209 155.453 26.0809C155.513 26.1609 155.713 26.2109 156.053 26.2309C157.353 26.2709 158.713 26.2809 160.133 26.2609C161.553 26.2409 162.913 26.1909 164.213 26.1109C165.053 26.0709 165.813 26.0109 166.493 25.9309C167.173 25.8509 167.763 25.7509 168.263 25.6309C168.463 25.5909 168.593 25.6009 168.653 25.6609C168.713 25.7209 168.753 25.8009 168.773 25.9009L168.953 27.2209C168.953 27.3209 168.913 27.4109 168.833 27.4909C168.773 27.5709 168.603 27.6109 168.323 27.6109C166.203 27.6109 164.013 27.6209 161.753 27.6409C159.493 27.6809 157.373 27.7209 155.393 27.7609ZM152.393 12.1009C152.393 12.1009 152.383 12.1009 152.363 12.1009C152.223 12.1409 152.063 12.1609 151.883 12.1609C151.703 12.1609 151.553 12.0509 151.433 11.8309L150.983 10.9609C150.923 10.8609 150.913 10.8009 150.953 10.7809C151.013 10.7409 151.073 10.7109 151.133 10.6909C151.153 10.6909 151.163 10.6909 151.163 10.6909C152.343 10.4709 153.493 10.1209 154.613 9.64091C155.733 9.14091 156.723 8.54091 157.583 7.84091C158.463 7.12091 159.093 6.32091 159.473 5.44091L157.193 5.56091C156.873 5.58091 156.413 5.61091 155.813 5.65091C155.233 5.69091 154.643 5.73091 154.043 5.77091C153.443 5.81091 152.973 5.85091 152.633 5.89091C152.433 5.93091 152.303 5.92091 152.243 5.86091C152.183 5.78091 152.133 5.68091 152.093 5.56091C152.073 5.54091 152.063 5.52091 152.063 5.50091C151.983 5.28091 151.923 5.09091 151.883 4.93091C151.843 4.77091 151.783 4.53091 151.703 4.21091C151.683 4.17091 151.693 4.12091 151.733 4.06091C151.773 4.00091 151.843 3.98091 151.943 4.00091C152.503 4.04091 153.263 4.07091 154.223 4.09091C155.183 4.11091 156.253 4.11091 157.433 4.09091C158.633 4.05091 159.863 4.00091 161.123 3.94091C162.383 3.88091 163.593 3.80091 164.753 3.70091C165.913 3.60091 166.933 3.48091 167.813 3.34091C167.873 3.32091 167.943 3.32091 168.023 3.34091C168.103 3.36091 168.153 3.42091 168.173 3.52091C168.213 3.66091 168.243 3.82091 168.263 4.00091C168.283 4.16091 168.323 4.49091 168.383 4.99091C168.423 5.21091 168.303 5.32091 168.023 5.32091L164.303 5.29091C163.983 5.29091 163.593 5.30091 163.133 5.32091C162.673 5.32091 162.183 5.33091 161.663 5.35091C161.463 5.95091 161.143 6.55091 160.703 7.15091C162.223 7.45091 163.673 7.80091 165.053 8.20091C166.433 8.60091 167.583 9.00091 168.503 9.40091C168.623 9.44091 168.733 9.51091 168.833 9.61091C168.953 9.69091 168.983 9.81091 168.923 9.97091C168.863 10.1509 168.773 10.3709 168.653 10.6309C168.553 10.8909 168.423 11.1409 168.263 11.3809C168.183 11.5209 168.083 11.5409 167.963 11.4409C167.543 11.1409 166.993 10.8309 166.313 10.5109C165.653 10.1909 164.933 9.88091 164.153 9.58091C163.373 9.28091 162.593 9.01091 161.813 8.77091C161.053 8.53091 160.373 8.35091 159.773 8.23091C158.853 9.15091 157.743 9.94091 156.443 10.6009C155.143 11.2609 153.793 11.7609 152.393 12.1009ZM159.233 1.99091C158.953 1.95091 158.553 1.90091 158.033 1.84091C157.533 1.78091 157.033 1.69091 156.533 1.57091C156.053 1.45091 155.673 1.30091 155.393 1.12091C155.333 1.06091 155.313 0.94091 155.333 0.76091C155.353 0.56091 155.403 0.38091 155.483 0.22091C155.563 0.0409096 155.653 -0.0290907 155.753 0.0109088C157.493 0.250909 159.123 0.36091 160.643 0.34091C162.163 0.300909 163.413 0.240909 164.393 0.16091C164.553 0.14091 164.653 0.150909 164.693 0.19091C164.733 0.21091 164.763 0.27091 164.783 0.37091C164.783 0.390909 164.783 0.440909 164.783 0.520909C164.783 0.720909 164.773 0.960909 164.753 1.24091C164.753 1.52091 164.693 1.68091 164.573 1.72091C164.453 1.76091 164.083 1.82091 163.463 1.90091C162.843 1.96091 162.143 2.00091 161.363 2.02091C160.583 2.04091 159.873 2.03091 159.233 1.99091Z" fill="black"/>
<path d="M185.499 16.9309L184.749 16.2709C184.669 16.1909 184.699 16.1009 184.839 16.0009C184.859 15.9809 184.869 15.9709 184.869 15.9709C185.989 15.2309 187.039 14.3009 188.019 13.1809C189.019 12.0409 189.909 10.8509 190.689 9.61091C191.469 8.37091 192.079 7.21091 192.519 6.13091C192.659 5.79091 192.779 5.40091 192.879 4.96091C192.999 4.50091 193.089 4.06091 193.149 3.64091C193.229 3.22091 193.269 2.88091 193.269 2.62091C193.269 2.44091 193.369 2.36091 193.569 2.38091C193.789 2.42091 194.099 2.50091 194.499 2.62091C194.899 2.74091 195.249 2.85091 195.549 2.95091C195.669 3.01091 195.699 3.12091 195.639 3.28091C195.499 3.68091 195.309 4.20091 195.069 4.84091C194.829 5.48091 194.609 6.04091 194.409 6.52091C194.269 6.84091 194.109 7.18091 193.929 7.54091C193.769 7.90091 193.579 8.28091 193.359 8.68091C193.959 9.14091 194.619 9.65091 195.339 10.2109C196.079 10.7509 196.799 11.2909 197.499 11.8309C198.199 12.3709 198.819 12.8609 199.359 13.3009C199.899 13.7409 200.289 14.0809 200.529 14.3209C200.609 14.3809 200.669 14.4809 200.709 14.6209C200.769 14.7409 200.749 14.8709 200.649 15.0109C200.569 15.1309 200.379 15.3209 200.079 15.5809C199.799 15.8409 199.599 16.0309 199.479 16.1509C199.319 16.2509 199.199 16.2309 199.119 16.0909C198.819 15.6709 198.399 15.1809 197.859 14.6209C197.339 14.0609 196.769 13.4809 196.149 12.8809C195.549 12.2809 194.939 11.7209 194.319 11.2009C193.699 10.6809 193.149 10.2509 192.669 9.91091C192.009 11.0109 191.169 12.1709 190.149 13.3909C189.149 14.5909 187.909 15.7509 186.429 16.8709C186.329 16.9509 186.199 17.0209 186.039 17.0809C185.879 17.1409 185.699 17.0909 185.499 16.9309ZM203.649 20.4109C203.569 20.4109 203.529 20.3609 203.529 20.2609V4.42091C203.529 3.66091 203.499 2.96091 203.439 2.32091C203.399 1.68091 203.329 1.26091 203.229 1.06091C203.189 0.96091 203.189 0.89091 203.229 0.850911C203.289 0.79091 203.359 0.76091 203.439 0.76091C203.719 0.76091 204.049 0.76091 204.429 0.76091C204.809 0.76091 205.129 0.77091 205.389 0.79091C205.489 0.79091 205.539 0.87091 205.539 1.03091C205.479 1.77091 205.439 2.42091 205.419 2.98091C205.419 3.52091 205.419 4.15091 205.419 4.87091V9.40091C205.979 9.40091 206.579 9.38091 207.219 9.34091C207.859 9.30091 208.449 9.25091 208.989 9.19091C209.549 9.13091 209.959 9.06091 210.219 8.98091C210.399 8.96091 210.499 9.02091 210.519 9.16091C210.559 9.42091 210.579 9.68091 210.579 9.94091C210.599 10.2009 210.619 10.4609 210.639 10.7209C210.639 10.9409 210.549 11.0509 210.369 11.0509C210.089 11.0109 209.659 10.9909 209.079 10.9909C208.519 10.9709 207.909 10.9609 207.249 10.9609C206.589 10.9609 205.979 10.9809 205.419 11.0209V19.6609C205.419 19.9609 205.399 20.1409 205.359 20.2009C205.339 20.2609 205.279 20.3009 205.179 20.3209L203.649 20.4109ZM193.989 27.4609C193.349 27.4609 192.859 27.2209 192.519 26.7409C192.199 26.2809 192.039 25.6209 192.039 24.7609V22.0909C192.039 21.3909 192.009 20.8109 191.949 20.3509C191.889 19.8909 191.829 19.5609 191.769 19.3609C191.709 19.1609 191.779 19.0609 191.979 19.0609C192.099 19.0609 192.299 19.0709 192.579 19.0909C192.879 19.0909 193.159 19.1009 193.419 19.1209C193.699 19.1409 193.849 19.1509 193.869 19.1509C193.969 19.1509 194.019 19.2509 194.019 19.4509C193.979 19.9109 193.949 20.3209 193.929 20.6809C193.929 21.0209 193.929 21.4509 193.929 21.9709V24.5809C193.929 25.0809 193.989 25.4309 194.109 25.6309C194.249 25.8109 194.469 25.9109 194.769 25.9309C195.329 25.9509 196.009 25.9609 196.809 25.9609C197.629 25.9809 198.479 25.9809 199.359 25.9609C200.259 25.9209 201.109 25.8809 201.909 25.8409C202.749 25.8009 203.619 25.7309 204.519 25.6309C205.419 25.5109 206.109 25.3909 206.589 25.2709C206.789 25.2309 206.919 25.2409 206.979 25.3009C207.039 25.3609 207.079 25.4409 207.099 25.5409L207.339 26.9509C207.339 27.0509 207.309 27.1309 207.249 27.1909C207.209 27.2509 207.049 27.2809 206.769 27.2809C204.789 27.2809 202.749 27.3109 200.649 27.3709C198.549 27.4309 196.329 27.4609 193.989 27.4609Z" fill="black"/>
</svg>
