<svg width="227" height="29" viewBox="0 0 227 29" fill="none" xmlns="http://www.w3.org/2000/svg">
<path d="M1.06 22.77C0.84 22.79 0.69 22.77 0.61 22.71C0.53 22.65 0.47 22.56 0.43 22.44C0.35 22.22 0.28 22 0.22 21.78C0.16 21.54 0.09 21.25 0.00999997 20.91C-0.01 20.87 2.6077e-08 20.82 0.04 20.76C0.08 20.68 0.15 20.65 0.25 20.67C0.93 20.77 1.85 20.84 3.01 20.88C4.19 20.9 5.48 20.91 6.88 20.91L6.76 16.05C6.74 15.27 6.68 14.54 6.58 13.86C6.48 13.18 6.39 12.74 6.31 12.54C6.23 12.34 6.3 12.24 6.52 12.24H8.32C8.44 12.22 8.5 12.29 8.5 12.45C8.5 12.47 8.5 12.49 8.5 12.51C8.46 12.89 8.44 13.25 8.44 13.59C8.44 13.93 8.45 14.27 8.47 14.61C8.47 14.77 8.47 14.92 8.47 15.06C8.47 15.2 8.47 15.35 8.47 15.51L8.53 20.91C9.23 20.91 9.94 20.91 10.66 20.91C11.38 20.89 12.11 20.87 12.85 20.85L12.91 15.24C12.93 14.46 12.91 13.78 12.85 13.2C12.81 12.62 12.75 12.23 12.67 12.03C12.59 11.83 12.66 11.73 12.88 11.73L14.77 11.76C14.89 11.76 14.95 11.84 14.95 12C14.95 12.02 14.95 12.04 14.95 12.06C14.91 12.58 14.87 13.15 14.83 13.77C14.79 14.37 14.76 14.93 14.74 15.45L14.53 20.82C15.91 20.76 17.23 20.7 18.49 20.64C19.75 20.58 20.88 20.51 21.88 20.43C22.88 20.33 23.66 20.23 24.22 20.13C24.42 20.09 24.55 20.1 24.61 20.16C24.67 20.22 24.71 20.3 24.73 20.4L24.91 21.84C24.91 21.94 24.88 22.03 24.82 22.11C24.76 22.19 24.6 22.23 24.34 22.23C23.66 22.21 22.87 22.2 21.97 22.2C21.07 22.2 20.11 22.2 19.09 22.2C16.59 22.2 14.17 22.23 11.83 22.29C9.49 22.33 7.39 22.39 5.53 22.47C3.67 22.55 2.18 22.65 1.06 22.77ZM17.5 16.17C17.44 16.17 17.38 16.16 17.32 16.14C17.28 16.1 17.28 16.01 17.32 15.87C17.44 15.45 17.57 14.88 17.71 14.16C17.85 13.44 17.99 12.65 18.13 11.79C18.27 10.91 18.4 10.04 18.52 9.18C18.64 8.3 18.74 7.49 18.82 6.75C18.9 5.99 18.95 5.38 18.97 4.92C18.97 4.9 18.97 4.88 18.97 4.86C18.97 4.74 18.96 4.67 18.94 4.65C18.92 4.61 18.83 4.59 18.67 4.59C18.33 4.59 17.81 4.6 17.11 4.62C16.43 4.64 15.67 4.67 14.83 4.71C13.99 4.73 13.15 4.76 12.31 4.8C11.47 4.84 10.71 4.88 10.03 4.92C9.37 4.96 8.87 4.99 8.53 5.01C8.03 5.05 7.41 5.1 6.67 5.16C5.95 5.2 5.34 5.24 4.84 5.28C4.62 5.32 4.48 5.31 4.42 5.25C4.36 5.19 4.31 5.08 4.27 4.92C4.27 4.9 4.27 4.89 4.27 4.89C4.19 4.67 4.12 4.49 4.06 4.35C4.02 4.19 3.96 3.94 3.88 3.6C3.86 3.56 3.87 3.51 3.91 3.45C3.95 3.39 4.02 3.37 4.12 3.39C4.68 3.43 5.47 3.46 6.49 3.48C7.51 3.48 8.63 3.47 9.85 3.45C11.09 3.41 12.32 3.36 13.54 3.3C14.76 3.24 15.85 3.17 16.81 3.09C17.77 3.01 18.48 2.92 18.94 2.82C19.1 2.78 19.26 2.78 19.42 2.82L21.1 3.18C21.28 3.24 21.35 3.35 21.31 3.51C21.29 3.71 21.24 4 21.16 4.38C21.1 4.76 21.04 5.15 20.98 5.55C20.92 5.93 20.87 6.24 20.83 6.48C20.73 7.16 20.61 7.91 20.47 8.73C20.35 9.55 20.21 10.38 20.05 11.22C19.91 12.04 19.77 12.8 19.63 13.5C19.49 14.2 19.36 14.78 19.24 15.24C19.14 15.6 19.04 15.82 18.94 15.9C18.86 15.98 18.76 16.04 18.64 16.08C18.48 16.12 18.29 16.15 18.07 16.17C17.87 16.17 17.68 16.17 17.5 16.17Z" fill="black"/>
<path d="M61.5088 28.2C61.4288 28.2 61.3888 28.15 61.3888 28.05V20.97C61.3888 20.75 61.2688 20.64 61.0288 20.64C60.5888 20.64 59.9388 20.65 59.0788 20.67C58.2388 20.69 57.3388 20.72 56.3788 20.76C55.4388 20.8 54.5488 20.84 53.7088 20.88C52.8888 20.9 52.2688 20.92 51.8488 20.94C51.3488 20.98 50.7988 21.02 50.1988 21.06C49.6188 21.08 49.0788 21.11 48.5788 21.15C48.3588 21.17 48.2188 21.14 48.1588 21.06C48.0988 20.98 48.0488 20.88 48.0088 20.76L47.7088 19.5C47.6888 19.46 47.6988 19.41 47.7388 19.35C47.7788 19.29 47.8488 19.27 47.9488 19.29C48.2088 19.31 48.6188 19.34 49.1788 19.38C49.7588 19.4 50.4188 19.41 51.1588 19.41C51.1388 19.19 51.1288 18.98 51.1288 18.78C51.1288 18.58 51.1288 18.38 51.1288 18.18L51.0988 15.15C49.5188 15.21 48.0888 15.28 46.8088 15.36C45.5488 15.42 44.5488 15.49 43.8088 15.57C43.5888 15.59 43.4388 15.57 43.3588 15.51C43.2788 15.45 43.2188 15.36 43.1788 15.24C43.0988 15.02 43.0288 14.8 42.9688 14.58C42.9088 14.36 42.8388 14.08 42.7588 13.74C42.7388 13.7 42.7488 13.65 42.7888 13.59C42.8288 13.51 42.8988 13.48 42.9988 13.5C43.7588 13.6 44.7988 13.68 46.1188 13.74C47.4388 13.78 48.8888 13.79 50.4688 13.77C51.6888 13.77 52.9888 13.76 54.3688 13.74C55.7488 13.7 57.1188 13.66 58.4788 13.62C59.8588 13.56 61.1588 13.5 62.3788 13.44C63.6188 13.38 64.7088 13.31 65.6488 13.23C66.6088 13.15 67.3488 13.06 67.8688 12.96C68.0688 12.92 68.1988 12.93 68.2588 12.99C68.3188 13.05 68.3588 13.13 68.3788 13.23L68.5588 14.55C68.5788 14.83 68.3888 14.96 67.9888 14.94C67.3688 14.9 66.5288 14.88 65.4688 14.88C64.4288 14.88 63.2988 14.89 62.0788 14.91C61.8588 14.91 61.6288 14.91 61.3888 14.91C61.1488 14.91 60.9088 14.92 60.6688 14.94V17.88C60.6688 18.1 60.6588 18.31 60.6388 18.51C60.6388 18.69 60.6288 18.86 60.6088 19.02L61.2088 18.93C61.2288 18.93 61.2588 18.92 61.2988 18.9C61.3388 18.9 61.3788 18.9 61.4188 18.9C61.4588 18.88 61.5288 18.88 61.6288 18.9C61.8888 18.94 62.1588 18.98 62.4388 19.02C62.7188 19.06 62.9988 19.11 63.2788 19.17C63.3988 19.19 63.4588 19.28 63.4588 19.44C63.4188 20.02 63.3788 20.61 63.3388 21.21C63.3188 21.79 63.3088 22.32 63.3088 22.8L63.2788 27.6C63.2788 27.78 63.2488 27.9 63.1888 27.96C63.1288 28.02 63.0188 28.07 62.8588 28.11C62.7588 28.11 62.5288 28.12 62.1688 28.14C61.8288 28.18 61.6088 28.2 61.5088 28.2ZM55.7188 10.92C54.4588 10.94 53.3088 10.76 52.2688 10.38C51.2488 9.98 50.4288 9.4 49.8088 8.64C49.2088 7.86 48.9088 6.93 48.9088 5.85C48.9088 4.83 49.2088 3.94 49.8088 3.18C50.4288 2.4 51.2588 1.79 52.2988 1.35C53.3388 0.889999 54.4888 0.639999 55.7488 0.599999C57.0688 0.559999 58.2388 0.729999 59.2588 1.11C60.2988 1.47 61.1188 2.03 61.7188 2.79C62.3188 3.55 62.5988 4.49 62.5588 5.61C62.5388 6.67 62.2288 7.6 61.6288 8.4C61.0288 9.18 60.2188 9.79 59.1988 10.23C58.1988 10.65 57.0388 10.88 55.7188 10.92ZM55.7488 9.45C57.2088 9.41 58.3788 9.06 59.2588 8.4C60.1388 7.74 60.5988 6.8 60.6388 5.58C60.6788 4.34 60.2288 3.42 59.2888 2.82C58.3488 2.22 57.1588 1.94 55.7188 1.98C54.2988 2.02 53.1188 2.39 52.1788 3.09C51.2388 3.77 50.7688 4.67 50.7688 5.79C50.7688 7.03 51.2288 7.96 52.1488 8.58C53.0688 9.2 54.2688 9.49 55.7488 9.45ZM52.8388 19.41C53.8588 19.39 54.8988 19.37 55.9588 19.35C57.0388 19.31 58.0088 19.26 58.8688 19.2C58.8488 19.04 58.8388 18.87 58.8388 18.69C58.8388 18.51 58.8388 18.34 58.8388 18.18L58.8088 14.97C57.7088 14.99 56.6488 15.01 55.6288 15.03C54.6088 15.05 53.7388 15.07 53.0188 15.09H52.9588V17.88C52.9588 18.5 52.9188 19.01 52.8388 19.41Z" fill="black"/>
<path d="M116.669 0V28.5H115.169V0H116.669Z" fill="black"/>
<path d="M182.702 26.1C182.622 26.1 182.582 26.05 182.582 25.95V4.29C182.582 3.53 182.552 2.83 182.492 2.19C182.452 1.53 182.382 1.1 182.282 0.899999C182.242 0.799999 182.242 0.73 182.282 0.69C182.342 0.63 182.412 0.599999 182.492 0.599999C182.612 0.599999 182.812 0.609999 183.092 0.629999C183.392 0.629999 183.682 0.639999 183.962 0.659999C184.242 0.659999 184.402 0.659999 184.442 0.659999C184.542 0.659999 184.592 0.739999 184.592 0.899999C184.532 1.64 184.492 2.29 184.472 2.85C184.472 3.39 184.472 4.02 184.472 4.74V25.35C184.472 25.65 184.452 25.83 184.412 25.89C184.392 25.95 184.332 25.99 184.232 26.01L182.702 26.1ZM166.442 13.29C166.302 13.35 166.162 13.37 166.022 13.35C165.882 13.31 165.722 13.2 165.542 13.02L164.972 12.42C164.912 12.32 164.912 12.25 164.972 12.21C165.032 12.17 165.092 12.14 165.152 12.12C167.252 11.36 168.802 10.49 169.802 9.51C170.802 8.53 171.442 7.54 171.722 6.54C171.322 6.56 170.952 6.58 170.612 6.6C170.272 6.6 169.962 6.62 169.682 6.66L166.472 6.93C166.272 6.95 166.142 6.93 166.082 6.87C166.022 6.79 165.972 6.7 165.932 6.6C165.912 6.58 165.902 6.56 165.902 6.54C165.822 6.32 165.762 6.15 165.722 6.03C165.702 5.91 165.652 5.69 165.572 5.37C165.552 5.33 165.552 5.28 165.572 5.22C165.612 5.16 165.682 5.13 165.782 5.13C166.302 5.17 166.822 5.2 167.342 5.22C167.882 5.24 168.612 5.25 169.532 5.25C170.552 5.21 171.612 5.17 172.712 5.13C173.812 5.09 174.872 5.03 175.892 4.95C176.912 4.85 177.802 4.74 178.562 4.62C178.602 4.6 178.662 4.61 178.742 4.65C178.822 4.67 178.872 4.73 178.892 4.83L179.012 5.64C179.032 5.72 179.042 5.8 179.042 5.88C179.042 5.96 179.042 6.04 179.042 6.12C179.082 6.34 178.962 6.45 178.682 6.45C178.322 6.43 177.882 6.42 177.362 6.42C176.862 6.42 176.412 6.42 176.012 6.42C175.672 6.42 175.302 6.43 174.902 6.45C174.502 6.45 174.092 6.46 173.672 6.48C173.472 7.18 173.172 7.85 172.772 8.49C174.032 8.93 175.182 9.34 176.222 9.72C177.282 10.08 178.162 10.43 178.862 10.77C178.982 10.83 179.082 10.92 179.162 11.04C179.262 11.14 179.292 11.26 179.252 11.4C179.172 11.62 179.062 11.82 178.922 12C178.802 12.18 178.662 12.38 178.502 12.6C178.402 12.72 178.292 12.72 178.172 12.6C177.272 11.94 176.292 11.36 175.232 10.86C174.192 10.36 173.132 9.9 172.052 9.48C171.472 10.2 170.722 10.88 169.802 11.52C168.882 12.14 167.762 12.73 166.442 13.29ZM169.952 25.74C169.892 25.74 169.832 25.73 169.772 25.71C169.732 25.67 169.732 25.58 169.772 25.44C169.932 25 170.072 24.42 170.192 23.7C170.332 22.98 170.442 22.2 170.522 21.36C170.602 20.52 170.662 19.71 170.702 18.93C170.742 18.13 170.752 17.43 170.732 16.83C170.512 16.85 170.302 16.87 170.102 16.89C169.902 16.89 169.712 16.89 169.532 16.89L163.982 17.22C163.762 17.24 163.622 17.23 163.562 17.19C163.502 17.15 163.442 17.04 163.382 16.86C163.302 16.64 163.232 16.44 163.172 16.26C163.132 16.08 163.072 15.82 162.992 15.48C162.972 15.44 162.982 15.39 163.022 15.33C163.062 15.27 163.132 15.25 163.232 15.27C163.652 15.35 164.402 15.4 165.482 15.42C166.582 15.44 167.782 15.43 169.082 15.39C170.442 15.35 171.842 15.28 173.282 15.18C174.742 15.08 176.142 14.95 177.482 14.79C178.842 14.61 180.042 14.4 181.082 14.16C181.222 14.1 181.312 14.15 181.352 14.31L181.442 15.12C181.462 15.3 181.432 15.42 181.352 15.48C181.292 15.54 181.202 15.59 181.082 15.63C180.662 15.73 180.002 15.85 179.102 15.99C178.202 16.13 177.182 16.26 176.042 16.38C174.922 16.5 173.812 16.6 172.712 16.68C172.712 17.36 172.672 18.2 172.592 19.2C172.532 20.2 172.442 21.21 172.322 22.23C172.202 23.23 172.042 24.1 171.842 24.84C171.742 25.18 171.622 25.4 171.482 25.5C171.342 25.6 171.202 25.66 171.062 25.68C170.902 25.7 170.722 25.72 170.522 25.74C170.322 25.74 170.132 25.74 169.952 25.74ZM171.452 3.24C171.152 3.2 170.782 3.16 170.342 3.12C169.902 3.06 169.472 2.98 169.052 2.88C168.632 2.76 168.282 2.59 168.002 2.37C167.942 2.31 167.922 2.19 167.942 2.01C167.982 1.83 168.052 1.66 168.152 1.5C168.252 1.32 168.352 1.25 168.452 1.29C169.292 1.45 170.202 1.55 171.182 1.59C172.162 1.61 173.092 1.6 173.972 1.56C174.872 1.52 175.592 1.48 176.132 1.44C176.292 1.42 176.392 1.43 176.432 1.47C176.472 1.49 176.502 1.55 176.522 1.65C176.522 1.67 176.522 1.7 176.522 1.74C176.522 1.92 176.512 2.16 176.492 2.46C176.472 2.74 176.402 2.9 176.282 2.94C176.162 2.98 175.832 3.04 175.292 3.12C174.772 3.18 174.162 3.23 173.462 3.27C172.782 3.29 172.112 3.28 171.452 3.24Z" fill="black"/>
<path d="M211.846 13.86C210.706 13.88 209.656 13.66 208.696 13.2C207.756 12.74 206.996 12.09 206.416 11.25C205.856 10.39 205.576 9.4 205.576 8.28C205.576 7.2 205.856 6.23 206.416 5.37C206.996 4.49 207.756 3.79 208.696 3.27C209.656 2.75 210.716 2.48 211.876 2.46C213.016 2.4 214.056 2.59 214.996 3.03C215.956 3.47 216.726 4.12 217.306 4.98C217.886 5.82 218.176 6.84 218.176 8.04C218.176 9.14 217.886 10.13 217.306 11.01C216.726 11.87 215.956 12.55 214.996 13.05C214.036 13.55 212.986 13.82 211.846 13.86ZM212.176 27.6C212.136 27.6 212.086 27.59 212.026 27.57C211.966 27.55 211.936 27.49 211.936 27.39C211.936 27.31 211.936 27.19 211.936 27.03C211.936 26.89 211.936 26.73 211.936 26.55C211.936 26.01 211.936 25.33 211.936 24.51C211.936 23.69 211.936 22.88 211.936 22.08C211.936 21.28 211.926 20.61 211.906 20.07C211.886 19.55 211.846 19.04 211.786 18.54C211.726 18.04 211.666 17.69 211.606 17.49C211.546 17.29 211.616 17.19 211.816 17.19L213.736 17.22C213.836 17.22 213.886 17.29 213.886 17.43C213.866 17.89 213.846 18.38 213.826 18.9C213.826 19.4 213.826 19.93 213.826 20.49C214.186 20.51 214.706 20.52 215.386 20.52C216.066 20.52 216.816 20.52 217.636 20.52C218.456 20.52 219.286 20.51 220.126 20.49C220.966 20.47 221.736 20.45 222.436 20.43C223.156 20.39 223.726 20.36 224.146 20.34V19.5C224.146 18.82 224.126 18.3 224.086 17.94C224.066 17.56 224.016 17.28 223.936 17.1C223.896 17 223.896 16.93 223.936 16.89C223.996 16.83 224.066 16.8 224.146 16.8H225.976C226.076 16.8 226.126 16.86 226.126 16.98C226.106 17.44 226.086 17.93 226.066 18.45C226.066 18.95 226.066 19.63 226.066 20.49V27.09C226.066 27.35 225.916 27.48 225.616 27.48L213.766 27.51C213.566 27.51 213.266 27.52 212.866 27.54C212.466 27.58 212.236 27.6 212.176 27.6ZM211.876 12.33C213.076 12.29 214.086 11.89 214.906 11.13C215.726 10.35 216.136 9.32 216.136 8.04C216.136 6.62 215.716 5.58 214.876 4.92C214.056 4.26 213.046 3.95 211.846 3.99C210.626 4.07 209.606 4.48 208.786 5.22C207.966 5.96 207.556 6.97 207.556 8.25C207.556 9.59 207.966 10.62 208.786 11.34C209.626 12.04 210.656 12.37 211.876 12.33ZM213.826 25.8C214.026 25.82 214.466 25.83 215.146 25.83C215.846 25.85 216.656 25.86 217.576 25.86C218.516 25.86 219.446 25.85 220.366 25.83C221.286 25.83 222.096 25.82 222.796 25.8C223.496 25.78 223.946 25.76 224.146 25.74V21.99C223.606 21.99 222.896 21.99 222.016 21.99C221.136 21.99 220.186 22 219.166 22.02C218.166 22.02 217.186 22.03 216.226 22.05C215.286 22.05 214.486 22.06 213.826 22.08V25.8ZM224.236 15.15C224.156 15.15 224.116 15.1 224.116 15V8.49C223.696 8.51 223.196 8.54 222.616 8.58C222.036 8.62 221.486 8.66 220.966 8.7C220.446 8.74 220.026 8.78 219.706 8.82C219.486 8.84 219.336 8.83 219.256 8.79C219.176 8.73 219.116 8.64 219.076 8.52C218.996 8.24 218.926 7.99 218.866 7.77C218.826 7.55 218.786 7.35 218.746 7.17C218.706 7.01 218.786 6.95 218.986 6.99C219.286 7.03 219.716 7.06 220.276 7.08C220.856 7.08 221.486 7.08 222.166 7.08C222.846 7.06 223.496 7.03 224.116 6.99V4.26C224.116 3.5 224.086 2.8 224.026 2.16C223.986 1.52 223.916 1.1 223.816 0.899999C223.776 0.799999 223.776 0.73 223.816 0.69C223.876 0.63 223.946 0.599999 224.026 0.599999C224.206 0.599999 224.486 0.599999 224.866 0.599999C225.266 0.599999 225.636 0.609999 225.976 0.629999C226.076 0.629999 226.126 0.709999 226.126 0.87C226.066 1.61 226.026 2.26 226.006 2.82C226.006 3.36 226.006 3.99 226.006 4.71V14.4C226.006 14.7 225.986 14.88 225.946 14.94C225.926 15 225.866 15.04 225.766 15.06L224.236 15.15Z" fill="black"/>
</svg>
