<svg width="356" height="78" viewBox="0 0 356 78" fill="none" xmlns="http://www.w3.org/2000/svg">
<g filter="url(#filter0_d_217_50)">
<path d="M4 10C4 4.47715 8.47715 0 14 0H342C347.523 0 352 4.47715 352 10V60C352 65.5228 347.523 70 342 70H14C8.47715 70 4 65.5228 4 60V10Z" fill="white"/>
<path d="M14 2.5H342C346.142 2.5 349.5 5.85787 349.5 10V60C349.5 64.1421 346.142 67.5 342 67.5H14C9.85787 67.5 6.5 64.1421 6.5 60V10C6.5 5.85786 9.85786 2.5 14 2.5Z" stroke="#E1A660" stroke-width="5"/>
</g>
<defs>
<filter id="filter0_d_217_50" x="0" y="0" width="356" height="78" filterUnits="userSpaceOnUse" color-interpolation-filters="sRGB">
<feFlood flood-opacity="0" result="BackgroundImageFix"/>
<feColorMatrix in="SourceAlpha" type="matrix" values="0 0 0 0 0 0 0 0 0 0 0 0 0 0 0 0 0 0 127 0" result="hardAlpha"/>
<feOffset dy="4"/>
<feGaussianBlur stdDeviation="2"/>
<feComposite in2="hardAlpha" operator="out"/>
<feColorMatrix type="matrix" values="0 0 0 0 0 0 0 0 0 0 0 0 0 0 0 0 0 0 0.25 0"/>
<feBlend mode="normal" in2="BackgroundImageFix" result="effect1_dropShadow_217_50"/>
<feBlend mode="normal" in="SourceGraphic" in2="effect1_dropShadow_217_50" result="shape"/>
</filter>
</defs>
</svg>
