<svg width="233" height="29" viewBox="0 0 233 29" fill="none" xmlns="http://www.w3.org/2000/svg">
<path d="M6.33 14.22C5.19 14.24 4.14 14.02 3.18 13.56C2.22 13.08 1.45 12.41 0.87 11.55C0.29 10.69 0 9.69 0 8.55C0 7.45 0.29 6.46 0.87 5.58C1.45 4.7 2.22 4 3.18 3.48C4.16 2.94 5.23 2.66 6.39 2.64C7.55 2.6 8.61 2.81 9.57 3.27C10.53 3.71 11.3 4.36 11.88 5.22C12.46 6.08 12.75 7.11 12.75 8.31C12.75 9.41 12.45 10.4 11.85 11.28C11.27 12.16 10.49 12.86 9.51 13.38C8.55 13.9 7.49 14.18 6.33 14.22ZM13.2 28.35C11.94 28.35 10.82 28.12 9.84 27.66C8.88 27.22 8.12 26.61 7.56 25.83C7.02 25.05 6.75 24.15 6.75 23.13C6.75 22.15 7.05 21.26 7.65 20.46C8.25 19.66 9.05 19.03 10.05 18.57C11.05 18.09 12.14 17.85 13.32 17.85C14.52 17.85 15.61 18.05 16.59 18.45C17.59 18.83 18.38 19.41 18.96 20.19C19.56 20.95 19.84 21.89 19.8 23.01C19.78 24.05 19.47 24.97 18.87 25.77C18.29 26.57 17.5 27.2 16.5 27.66C15.52 28.12 14.42 28.35 13.2 28.35ZM6.39 12.69C7.63 12.65 8.66 12.24 9.48 11.46C10.3 10.68 10.71 9.63 10.71 8.31C10.71 6.89 10.29 5.84 9.45 5.16C8.63 4.46 7.59 4.13 6.33 4.17C5.09 4.25 4.05 4.67 3.21 5.43C2.39 6.19 1.98 7.22 1.98 8.52C1.98 9.88 2.39 10.93 3.21 11.67C4.05 12.39 5.11 12.73 6.39 12.69ZM13.26 26.79C14.52 26.75 15.58 26.41 16.44 25.77C17.32 25.13 17.78 24.2 17.82 22.98C17.86 22.18 17.67 21.51 17.25 20.97C16.85 20.43 16.3 20.02 15.6 19.74C14.92 19.44 14.15 19.29 13.29 19.29C12.45 19.31 11.68 19.49 10.98 19.83C10.28 20.15 9.72 20.59 9.3 21.15C8.88 21.71 8.67 22.36 8.67 23.1C8.67 23.86 8.87 24.52 9.27 25.08C9.69 25.62 10.25 26.04 10.95 26.34C11.65 26.64 12.42 26.79 13.26 26.79ZM17.76 17.43C17.68 17.43 17.64 17.38 17.64 17.28V4.26C17.64 3.5 17.61 2.8 17.55 2.16C17.51 1.52 17.44 1.1 17.34 0.899999C17.3 0.799999 17.3 0.73 17.34 0.69C17.4 0.63 17.47 0.599999 17.55 0.599999C17.77 0.599999 18.07 0.599999 18.45 0.599999C18.83 0.599999 19.18 0.609999 19.5 0.629999C19.6 0.629999 19.65 0.709999 19.65 0.87C19.59 1.61 19.55 2.26 19.53 2.82C19.53 3.36 19.53 3.99 19.53 4.71V5.43C20.07 5.43 20.63 5.4 21.21 5.34C21.79 5.28 22.33 5.21 22.83 5.13C23.33 5.05 23.71 4.99 23.97 4.95C24.15 4.93 24.25 4.99 24.27 5.13C24.35 5.59 24.39 6.06 24.39 6.54C24.39 6.76 24.3 6.87 24.12 6.87C23.84 6.87 23.44 6.87 22.92 6.87C22.42 6.87 21.87 6.88 21.27 6.9C20.67 6.9 20.09 6.9 19.53 6.9V11.1C20.07 11.1 20.63 11.09 21.21 11.07C21.79 11.03 22.33 10.98 22.83 10.92C23.35 10.86 23.74 10.81 24 10.77C24.18 10.75 24.28 10.81 24.3 10.95C24.34 11.21 24.37 11.45 24.39 11.67C24.41 11.89 24.43 12.13 24.45 12.39C24.45 12.61 24.36 12.72 24.18 12.72C23.9 12.72 23.49 12.71 22.95 12.69C22.43 12.67 21.87 12.66 21.27 12.66C20.67 12.64 20.09 12.63 19.53 12.63V16.68C19.53 16.98 19.51 17.16 19.47 17.22C19.45 17.28 19.39 17.32 19.29 17.34L17.76 17.43Z" fill="black"/>
<path d="M61.3277 28.2C61.2477 28.2 61.2077 28.15 61.2077 28.05V20.97C61.2077 20.75 61.0877 20.64 60.8477 20.64C60.4077 20.64 59.7577 20.65 58.8977 20.67C58.0577 20.69 57.1577 20.72 56.1977 20.76C55.2577 20.8 54.3677 20.84 53.5277 20.88C52.7077 20.9 52.0877 20.92 51.6677 20.94C51.1677 20.98 50.6177 21.02 50.0177 21.06C49.4377 21.08 48.8977 21.11 48.3977 21.15C48.1777 21.17 48.0377 21.14 47.9777 21.06C47.9177 20.98 47.8677 20.88 47.8277 20.76L47.5277 19.5C47.5077 19.46 47.5177 19.41 47.5577 19.35C47.5977 19.29 47.6677 19.27 47.7677 19.29C48.0277 19.31 48.4377 19.34 48.9977 19.38C49.5777 19.4 50.2377 19.41 50.9777 19.41C50.9577 19.19 50.9477 18.98 50.9477 18.78C50.9477 18.58 50.9477 18.38 50.9477 18.18L50.9177 15.15C49.3377 15.21 47.9077 15.28 46.6277 15.36C45.3677 15.42 44.3677 15.49 43.6277 15.57C43.4077 15.59 43.2577 15.57 43.1777 15.51C43.0977 15.45 43.0377 15.36 42.9977 15.24C42.9177 15.02 42.8477 14.8 42.7877 14.58C42.7277 14.36 42.6577 14.08 42.5777 13.74C42.5577 13.7 42.5677 13.65 42.6077 13.59C42.6477 13.51 42.7177 13.48 42.8177 13.5C43.5777 13.6 44.6177 13.68 45.9377 13.74C47.2577 13.78 48.7077 13.79 50.2877 13.77C51.5077 13.77 52.8077 13.76 54.1877 13.74C55.5677 13.7 56.9377 13.66 58.2977 13.62C59.6777 13.56 60.9777 13.5 62.1977 13.44C63.4377 13.38 64.5277 13.31 65.4677 13.23C66.4277 13.15 67.1677 13.06 67.6877 12.96C67.8877 12.92 68.0177 12.93 68.0777 12.99C68.1377 13.05 68.1777 13.13 68.1977 13.23L68.3777 14.55C68.3977 14.83 68.2077 14.96 67.8077 14.94C67.1877 14.9 66.3477 14.88 65.2877 14.88C64.2477 14.88 63.1177 14.89 61.8977 14.91C61.6777 14.91 61.4477 14.91 61.2077 14.91C60.9677 14.91 60.7277 14.92 60.4877 14.94V17.88C60.4877 18.1 60.4777 18.31 60.4577 18.51C60.4577 18.69 60.4477 18.86 60.4277 19.02L61.0277 18.93C61.0477 18.93 61.0777 18.92 61.1177 18.9C61.1577 18.9 61.1977 18.9 61.2377 18.9C61.2777 18.88 61.3477 18.88 61.4477 18.9C61.7077 18.94 61.9777 18.98 62.2577 19.02C62.5377 19.06 62.8177 19.11 63.0977 19.17C63.2177 19.19 63.2777 19.28 63.2777 19.44C63.2377 20.02 63.1977 20.61 63.1577 21.21C63.1377 21.79 63.1277 22.32 63.1277 22.8L63.0977 27.6C63.0977 27.78 63.0677 27.9 63.0077 27.96C62.9477 28.02 62.8377 28.07 62.6777 28.11C62.5777 28.11 62.3477 28.12 61.9877 28.14C61.6477 28.18 61.4277 28.2 61.3277 28.2ZM55.5377 10.92C54.2777 10.94 53.1277 10.76 52.0877 10.38C51.0677 9.98 50.2477 9.4 49.6277 8.64C49.0277 7.86 48.7277 6.93 48.7277 5.85C48.7277 4.83 49.0277 3.94 49.6277 3.18C50.2477 2.4 51.0777 1.79 52.1177 1.35C53.1577 0.889999 54.3077 0.639999 55.5677 0.599999C56.8877 0.559999 58.0577 0.729999 59.0777 1.11C60.1177 1.47 60.9377 2.03 61.5377 2.79C62.1377 3.55 62.4177 4.49 62.3777 5.61C62.3577 6.67 62.0477 7.6 61.4477 8.4C60.8477 9.18 60.0377 9.79 59.0177 10.23C58.0177 10.65 56.8577 10.88 55.5377 10.92ZM55.5677 9.45C57.0277 9.41 58.1977 9.06 59.0777 8.4C59.9577 7.74 60.4177 6.8 60.4577 5.58C60.4977 4.34 60.0477 3.42 59.1077 2.82C58.1677 2.22 56.9777 1.94 55.5377 1.98C54.1177 2.02 52.9377 2.39 51.9977 3.09C51.0577 3.77 50.5877 4.67 50.5877 5.79C50.5877 7.03 51.0477 7.96 51.9677 8.58C52.8877 9.2 54.0877 9.49 55.5677 9.45ZM52.6577 19.41C53.6777 19.39 54.7177 19.37 55.7777 19.35C56.8577 19.31 57.8277 19.26 58.6877 19.2C58.6677 19.04 58.6577 18.87 58.6577 18.69C58.6577 18.51 58.6577 18.34 58.6577 18.18L58.6277 14.97C57.5277 14.99 56.4677 15.01 55.4477 15.03C54.4277 15.05 53.5577 15.07 52.8377 15.09H52.7777V17.88C52.7777 18.5 52.7377 19.01 52.6577 19.41Z" fill="black"/>
<path d="M116.488 0V28.5H114.988V0H116.488Z" fill="black"/>
<path d="M164.161 15.27C163.941 15.29 163.791 15.27 163.711 15.21C163.631 15.15 163.571 15.06 163.531 14.94C163.451 14.72 163.381 14.5 163.321 14.28C163.261 14.06 163.191 13.78 163.111 13.44C163.091 13.4 163.101 13.35 163.141 13.29C163.181 13.21 163.251 13.18 163.351 13.2C164.111 13.3 165.151 13.38 166.471 13.44C167.791 13.48 169.241 13.49 170.821 13.47C171.541 13.47 172.291 13.47 173.071 13.47C173.871 13.45 174.671 13.43 175.471 13.41L175.381 9.48C174.581 9.5 173.771 9.52 172.951 9.54C172.151 9.56 171.311 9.58 170.431 9.6C169.731 9.62 169.241 9.43 168.961 9.03C168.681 8.63 168.541 7.95 168.541 6.99V4.26C168.541 3.56 168.491 3 168.391 2.58C168.291 2.16 168.191 1.85 168.091 1.65C168.031 1.53 168.031 1.43 168.091 1.35C168.151 1.25 168.231 1.2 168.331 1.2C168.471 1.2 168.721 1.21 169.081 1.23C169.441 1.25 169.821 1.27 170.221 1.29C171.161 1.29 172.381 1.28 173.881 1.26C175.381 1.24 176.911 1.19 178.471 1.11C179.531 1.07 180.411 1.02 181.111 0.959998C181.811 0.899999 182.421 0.829999 182.941 0.749999C183.001 0.73 183.071 0.739999 183.151 0.779999C183.231 0.799999 183.281 0.859998 183.301 0.959998C183.361 1.36 183.401 1.65 183.421 1.83C183.441 1.99 183.451 2.11 183.451 2.19C183.491 2.41 183.371 2.52 183.091 2.52C182.531 2.52 181.981 2.52 181.441 2.52C180.901 2.52 180.341 2.53 179.761 2.55L170.431 2.82V6.57C170.431 7.17 170.481 7.57 170.581 7.77C170.681 7.95 170.891 8.05 171.211 8.07C171.891 8.09 172.671 8.1 173.551 8.1C174.451 8.08 175.321 8.05 176.161 8.01C177.021 7.97 177.711 7.94 178.231 7.92C179.311 7.88 180.281 7.83 181.141 7.77C182.001 7.69 182.681 7.6 183.181 7.5C183.381 7.46 183.511 7.47 183.571 7.53C183.631 7.57 183.671 7.64 183.691 7.74C183.731 7.98 183.761 8.21 183.781 8.43C183.801 8.65 183.811 8.87 183.811 9.09C183.811 9.21 183.771 9.29 183.691 9.33C183.631 9.37 183.461 9.39 183.181 9.39C182.201 9.39 181.221 9.4 180.241 9.42C179.281 9.42 178.311 9.43 177.331 9.45L177.271 13.35C178.831 13.31 180.331 13.26 181.771 13.2C183.231 13.12 184.521 13.04 185.641 12.96C186.781 12.86 187.641 12.76 188.221 12.66C188.421 12.62 188.551 12.63 188.611 12.69C188.671 12.75 188.711 12.83 188.731 12.93L188.911 14.25C188.931 14.53 188.741 14.66 188.341 14.64C187.721 14.6 186.881 14.58 185.821 14.58C184.781 14.58 183.651 14.59 182.431 14.61C181.351 14.61 180.241 14.63 179.101 14.67C177.981 14.69 176.921 14.71 175.921 14.73C174.941 14.75 174.091 14.77 173.371 14.79C171.351 14.85 169.531 14.92 167.911 15C166.291 15.08 165.041 15.17 164.161 15.27ZM171.301 27.6C170.681 27.58 170.201 27.38 169.861 27C169.541 26.62 169.381 26 169.381 25.14V23.91C169.381 23.29 169.271 22.68 169.051 22.08C169.011 22.02 169.021 21.94 169.081 21.84C169.141 21.74 169.241 21.7 169.381 21.72C169.601 21.74 170.071 21.76 170.791 21.78C171.531 21.8 172.401 21.81 173.401 21.81C174.401 21.81 175.421 21.8 176.461 21.78C177.521 21.76 178.491 21.73 179.371 21.69C180.271 21.65 180.961 21.6 181.441 21.54L181.501 19.26C181.501 19.04 181.401 18.93 181.201 18.93C180.761 18.93 180.151 18.94 179.371 18.96C178.591 18.98 177.761 19 176.881 19.02C176.001 19.04 175.161 19.07 174.361 19.11C173.561 19.13 172.911 19.15 172.411 19.17L169.741 19.29C169.561 19.31 169.431 19.3 169.351 19.26C169.271 19.2 169.211 19.08 169.171 18.9L168.961 17.85C168.941 17.81 168.951 17.76 168.991 17.7C169.031 17.64 169.101 17.62 169.201 17.64C169.521 17.66 170.041 17.68 170.761 17.7C171.481 17.72 172.301 17.74 173.221 17.76C174.161 17.76 175.131 17.75 176.131 17.73C177.131 17.69 178.091 17.65 179.011 17.61C179.951 17.55 180.761 17.47 181.441 17.37C181.481 17.37 181.521 17.36 181.561 17.34C181.701 17.32 181.811 17.32 181.891 17.34L183.421 17.55C183.541 17.57 183.601 17.66 183.601 17.82C183.501 18.7 183.421 19.49 183.361 20.19C183.321 20.87 183.271 21.65 183.211 22.53C183.191 22.73 183.151 22.86 183.091 22.92C183.031 22.98 182.911 23.01 182.731 23.01C182.051 23.01 181.211 23.02 180.211 23.04C179.231 23.04 178.191 23.05 177.091 23.07C175.991 23.07 174.931 23.08 173.911 23.1C172.891 23.12 172.011 23.15 171.271 23.19V25.02C171.271 25.48 171.301 25.76 171.361 25.86C171.421 25.98 171.621 26.05 171.961 26.07C173.261 26.11 174.621 26.12 176.041 26.1C177.461 26.08 178.821 26.03 180.121 25.95C180.961 25.91 181.721 25.85 182.401 25.77C183.081 25.69 183.671 25.59 184.171 25.47C184.371 25.43 184.501 25.44 184.561 25.5C184.621 25.56 184.661 25.64 184.681 25.74L184.861 27.06C184.861 27.16 184.821 27.25 184.741 27.33C184.681 27.41 184.511 27.45 184.231 27.45C182.111 27.45 179.921 27.46 177.661 27.48C175.401 27.52 173.281 27.56 171.301 27.6Z" fill="black"/>
<path d="M208.247 16.92C208.027 16.94 207.877 16.92 207.797 16.86C207.717 16.8 207.657 16.71 207.617 16.59C207.537 16.37 207.467 16.15 207.407 15.93C207.347 15.71 207.277 15.43 207.197 15.09C207.177 15.05 207.187 15 207.227 14.94C207.267 14.86 207.337 14.83 207.437 14.85C208.197 14.95 209.237 15.03 210.557 15.09C211.877 15.13 213.327 15.14 214.907 15.12C215.607 15.12 216.337 15.12 217.097 15.12C217.857 15.1 218.627 15.08 219.407 15.06L219.317 11.25C218.437 11.27 217.637 11.29 216.917 11.31C216.197 11.33 215.587 11.34 215.087 11.34L213.437 11.49C213.397 11.49 213.347 11.48 213.287 11.46C213.227 11.44 213.197 11.38 213.197 11.28C213.197 11.18 213.187 10.84 213.167 10.26C213.167 9.66 213.157 8.89 213.137 7.95C213.117 6.99 213.087 5.94 213.047 4.8C213.027 3.9 212.967 3.13 212.867 2.49C212.767 1.85 212.687 1.43 212.627 1.23C212.567 1.03 212.637 0.929999 212.837 0.929999H214.817C214.917 0.929999 214.967 0.999999 214.967 1.14C214.947 1.66 214.927 2.2 214.907 2.76C214.907 3.32 214.917 3.86 214.937 4.38C215.437 4.4 216.127 4.41 217.007 4.41C217.907 4.41 218.877 4.4 219.917 4.38C220.957 4.36 221.967 4.33 222.947 4.29C223.947 4.25 224.797 4.2 225.497 4.14V3.57C225.497 2.81 225.467 2.21 225.407 1.77C225.347 1.31 225.277 0.969999 225.197 0.749999C225.157 0.649999 225.157 0.579999 225.197 0.539998C225.257 0.479999 225.327 0.45 225.407 0.45L227.267 0.479999C227.387 0.479999 227.447 0.559999 227.447 0.72C227.427 1.26 227.407 1.69 227.387 2.01C227.367 2.33 227.357 2.64 227.357 2.94C227.357 3.24 227.357 3.63 227.357 4.11V10.77C227.357 11.03 227.207 11.16 226.907 11.16C225.887 11.16 224.907 11.17 223.967 11.19C223.027 11.19 222.137 11.2 221.297 11.22L221.177 15C222.757 14.96 224.277 14.91 225.737 14.85C227.217 14.77 228.527 14.69 229.667 14.61C230.827 14.51 231.707 14.41 232.307 14.31C232.507 14.27 232.637 14.28 232.697 14.34C232.757 14.4 232.797 14.48 232.817 14.58L232.997 15.9C233.017 16.18 232.827 16.31 232.427 16.29C231.807 16.25 230.967 16.23 229.907 16.23C228.867 16.23 227.737 16.24 226.517 16.26C225.437 16.26 224.327 16.28 223.187 16.32C222.067 16.34 221.007 16.36 220.007 16.38C219.027 16.4 218.177 16.42 217.457 16.44C215.437 16.5 213.617 16.57 211.997 16.65C210.377 16.73 209.127 16.82 208.247 16.92ZM213.737 27.6C213.697 27.6 213.647 27.59 213.587 27.57C213.527 27.55 213.497 27.49 213.497 27.39C213.497 27.35 213.497 27.26 213.497 27.12C213.497 26.88 213.497 26.43 213.497 25.77C213.497 25.11 213.477 23.98 213.437 22.38C213.417 21.86 213.357 21.32 213.257 20.76C213.157 20.2 213.057 19.85 212.957 19.71C212.877 19.59 212.857 19.49 212.897 19.41C212.957 19.33 213.057 19.29 213.197 19.29L215.117 19.38C215.617 19.4 216.247 19.41 217.007 19.41C217.767 19.41 218.567 19.4 219.407 19.38C220.267 19.36 221.097 19.34 221.897 19.32C222.717 19.28 223.447 19.24 224.087 19.2C224.727 19.16 225.207 19.12 225.527 19.08C225.567 19.08 225.607 19.07 225.647 19.05C225.787 19.03 225.907 19.03 226.007 19.05L227.567 19.26C227.727 19.28 227.787 19.4 227.747 19.62C227.727 19.88 227.697 20.22 227.657 20.64C227.637 21.04 227.617 21.44 227.597 21.84C227.577 22.22 227.567 22.51 227.567 22.71L227.477 27.06C227.477 27.34 227.327 27.48 227.027 27.48C226.447 27.46 225.717 27.45 224.837 27.45C223.977 27.45 223.047 27.45 222.047 27.45C221.067 27.45 220.097 27.45 219.137 27.45C218.197 27.45 217.367 27.45 216.647 27.45C215.927 27.47 215.407 27.49 215.087 27.51L213.737 27.6ZM215.267 25.86C215.547 25.88 216.037 25.89 216.737 25.89C217.437 25.91 218.227 25.91 219.107 25.89C220.007 25.89 220.897 25.88 221.777 25.86C222.677 25.84 223.477 25.82 224.177 25.8C224.877 25.78 225.377 25.75 225.677 25.71L225.737 20.94C225.737 20.8 225.717 20.72 225.677 20.7C225.637 20.66 225.567 20.64 225.467 20.64L215.267 20.82V25.86ZM215.087 9.81C215.747 9.83 216.517 9.84 217.397 9.84C218.277 9.84 219.197 9.84 220.157 9.84C221.117 9.82 222.057 9.79 222.977 9.75C223.917 9.71 224.757 9.66 225.497 9.6V5.7C224.077 5.72 222.687 5.74 221.327 5.76C219.967 5.78 218.737 5.8 217.637 5.82C216.537 5.84 215.647 5.87 214.967 5.91L215.087 9.81Z" fill="black"/>
</svg>
