<svg width="139" height="18" viewBox="0 0 139 18" fill="none" xmlns="http://www.w3.org/2000/svg">
<path d="M1.2 12.38C1.13333 12.3267 1.04 12.26 0.919999 12.18C0.813332 12.0867 0.726666 12.0067 0.659999 11.94C0.579999 11.8467 0.586666 11.7733 0.679999 11.72C2.01333 10.7733 3.06 9.78667 3.82 8.76C4.59333 7.73333 5.14667 6.73333 5.48 5.76C5.82667 4.77333 6.02667 3.89333 6.08 3.12C5.73333 3.14667 5.43333 3.16667 5.18 3.18C4.92667 3.19333 4.75333 3.2 4.66 3.2L2.46 3.4C2.32667 3.41333 2.24 3.4 2.2 3.36C2.16 3.30667 2.12667 3.24667 2.1 3.18C2.08667 3.16667 2.08 3.15333 2.08 3.14C2.02667 2.99333 1.98667 2.86667 1.96 2.76C1.94667 2.64 1.91333 2.46667 1.86 2.24C1.84667 2.14667 1.9 2.1 2.02 2.1C2.39333 2.12667 2.74 2.14667 3.06 2.16C3.39333 2.16 3.88 2.16 4.52 2.16C5.24 2.16 5.88667 2.14667 6.46 2.12C7.04667 2.09333 7.58667 2.06 8.08 2.02C8.6 1.98 9.02 1.94667 9.34 1.92C9.67333 1.89333 9.96 1.86667 10.2 1.84C10.4533 1.8 10.72 1.76667 11 1.74C11.04 1.74 11.0867 1.74667 11.14 1.76C11.1933 1.77333 11.2267 1.81333 11.24 1.88C11.2533 1.96 11.2667 2.05333 11.28 2.16C11.3067 2.26667 11.3267 2.37333 11.34 2.48L11.38 2.84C11.4067 2.98667 11.3267 3.06 11.14 3.06C10.8867 3.04667 10.6 3.04 10.28 3.04C9.97333 3.04 9.68667 3.04 9.42 3.04C9.19333 3.04 8.92 3.04667 8.6 3.06C8.29333 3.06 7.96 3.06667 7.6 3.08C7.52 4.14667 7.2 5.29333 6.64 6.52C7.28 6.97333 7.92 7.45333 8.56 7.96C9.2 8.45333 9.78 8.92667 10.3 9.38C10.82 9.82 11.22 10.2 11.5 10.52C11.5533 10.5867 11.5933 10.6667 11.62 10.76C11.66 10.84 11.6467 10.9267 11.58 11.02C11.46 11.1667 11.32 11.3 11.16 11.42C11.0133 11.5267 10.8667 11.64 10.72 11.76C10.64 11.8267 10.5733 11.8133 10.52 11.72C10.3333 11.4267 10.0733 11.0867 9.74 10.7C9.42 10.3133 9.05333 9.92 8.64 9.52C8.24 9.10667 7.82667 8.71333 7.4 8.34C6.98667 7.96667 6.59333 7.64 6.22 7.36C5.75333 8.2 5.16 9.04 4.44 9.88C3.72 10.72 2.85333 11.5267 1.84 12.3C1.82667 12.3133 1.80667 12.3267 1.78 12.34C1.68667 12.4067 1.6 12.4533 1.52 12.48C1.44 12.4933 1.33333 12.46 1.2 12.38ZM13.54 17C13.4867 17 13.46 16.9667 13.46 16.9V2.46C13.46 1.95333 13.44 1.48667 13.4 1.06C13.3733 0.62 13.3267 0.333333 13.26 0.2C13.2333 0.133333 13.2333 0.0866667 13.26 0.0600004C13.3 0.0200001 13.3467 0 13.4 0C13.48 0 13.6133 0.00666658 13.8 0.0199997C14 0.0199997 14.1933 0.0266663 14.38 0.0399995C14.5667 0.0399995 14.6733 0.0399995 14.7 0.0399995C14.7667 0.0399995 14.8 0.0933329 14.8 0.2C14.76 0.693333 14.7333 1.12667 14.72 1.5C14.72 1.86 14.72 2.28 14.72 2.76V16.5C14.72 16.7 14.7067 16.82 14.68 16.86C14.6667 16.9 14.6267 16.9267 14.56 16.94L13.54 17Z" fill="black"/>
<path d="M22.567 18C22.5404 18 22.507 17.9933 22.467 17.98C22.427 17.9667 22.407 17.9267 22.407 17.86C22.407 17.8333 22.407 17.7667 22.407 17.66C22.407 17.4067 22.407 16.96 22.407 16.32C22.4204 15.68 22.407 14.8133 22.367 13.72C22.3537 13.3733 22.3137 13.0133 22.247 12.64C22.1804 12.2667 22.1137 12.0333 22.047 11.94C21.9937 11.86 21.9804 11.7933 22.007 11.74C22.047 11.6867 22.1137 11.66 22.207 11.66L23.487 11.72C23.8204 11.7333 24.2404 11.74 24.747 11.74C25.2537 11.74 25.787 11.7333 26.347 11.72C26.9204 11.7067 27.4737 11.6933 28.007 11.68C28.5537 11.6533 29.0404 11.6267 29.467 11.6C29.8937 11.5733 30.2137 11.5467 30.427 11.52C30.4537 11.52 30.4804 11.5133 30.507 11.5C30.6004 11.4867 30.6804 11.4867 30.747 11.5L31.787 11.64C31.8937 11.6533 31.9337 11.7333 31.907 11.88C31.8937 12.0533 31.8737 12.28 31.847 12.56C31.8337 12.8267 31.8204 13.0933 31.807 13.36C31.7937 13.6133 31.787 13.8067 31.787 13.94L31.727 17.64C31.727 17.8267 31.627 17.92 31.427 17.92C31.0404 17.9067 30.5537 17.9 29.967 17.9C29.3937 17.9 28.7737 17.9 28.107 17.9C27.4537 17.9 26.807 17.9 26.167 17.9C25.5404 17.9 24.987 17.9 24.507 17.9C24.027 17.9133 23.6804 17.9267 23.467 17.94L22.567 18ZM23.587 16.84C23.7737 16.8533 24.1004 16.86 24.567 16.86C25.0337 16.8733 25.5604 16.8733 26.147 16.86C26.747 16.86 27.3404 16.8533 27.927 16.84C28.527 16.8267 29.0604 16.8133 29.527 16.8C29.9937 16.7867 30.327 16.7667 30.527 16.74L30.567 12.76C30.567 12.6667 30.5537 12.6133 30.527 12.6C30.5004 12.5733 30.4537 12.56 30.387 12.56L23.587 12.68V16.84ZM18.907 9.08C18.7604 9.09333 18.6604 9.08 18.607 9.04C18.5537 9 18.5137 8.94 18.487 8.86C18.4337 8.71333 18.387 8.56667 18.347 8.42C18.307 8.27333 18.2604 8.08667 18.207 7.86C18.1937 7.83333 18.2004 7.8 18.227 7.76C18.2537 7.70667 18.3004 7.68667 18.367 7.7C18.8737 7.76667 19.567 7.82 20.447 7.86C21.327 7.88667 22.2937 7.89333 23.347 7.88C24.1604 7.88 25.027 7.87333 25.947 7.86C26.867 7.83333 27.7804 7.80667 28.687 7.78C29.607 7.74 30.4737 7.7 31.287 7.66C32.1137 7.62 32.8404 7.57333 33.467 7.52C34.107 7.46667 34.6004 7.40667 34.947 7.34C35.0804 7.31333 35.167 7.32 35.207 7.36C35.247 7.4 35.2737 7.45333 35.287 7.52L35.407 8.4C35.4204 8.58667 35.2937 8.67333 35.027 8.66C34.6137 8.63333 34.0537 8.62 33.347 8.62C32.6537 8.62 31.9004 8.62667 31.087 8.64C30.367 8.64 29.627 8.65333 28.867 8.68C28.1204 8.69333 27.4137 8.70667 26.747 8.72C26.0937 8.73333 25.527 8.74667 25.047 8.76C23.7004 8.8 22.487 8.84667 21.407 8.9C20.327 8.95333 19.4937 9.01333 18.907 9.08ZM29.887 6.7C29.767 6.7 29.727 6.63333 29.767 6.5C29.847 6.26 29.9337 5.93333 30.027 5.52C30.1337 5.09333 30.227 4.64 30.307 4.16C30.4004 3.68 30.4804 3.22667 30.547 2.8C30.6137 2.37333 30.6537 2.04 30.667 1.8C30.6804 1.65333 30.6137 1.58 30.467 1.58C30.1737 1.58 29.7737 1.58667 29.267 1.6C28.7737 1.61333 28.2404 1.62667 27.667 1.64C27.107 1.65333 26.5737 1.66667 26.067 1.68C25.5737 1.69333 25.187 1.70667 24.907 1.72C24.6937 1.72 24.4204 1.73333 24.087 1.76C23.7537 1.78667 23.4204 1.81333 23.087 1.84C22.7537 1.86667 22.4804 1.89333 22.267 1.92C22.1204 1.93333 22.027 1.92667 21.987 1.9C21.947 1.86 21.907 1.78667 21.867 1.68C21.867 1.66667 21.867 1.66 21.867 1.66C21.827 1.55333 21.787 1.43333 21.747 1.3C21.707 1.16667 21.6604 1.00667 21.607 0.82C21.5937 0.793333 21.6004 0.76 21.627 0.72C21.6537 0.68 21.7004 0.666666 21.767 0.68C22.1404 0.706667 22.6337 0.726667 23.247 0.74C23.8604 0.753333 24.527 0.753333 25.247 0.74C25.967 0.726667 26.6804 0.706667 27.387 0.68C28.0937 0.653333 28.7337 0.62 29.307 0.58C29.8804 0.526666 30.3204 0.466666 30.627 0.4C30.7337 0.373333 30.8404 0.373333 30.947 0.4L32.067 0.64C32.187 0.653333 32.2337 0.726666 32.207 0.86C32.167 1.06 32.1137 1.32667 32.047 1.66C31.9804 1.98 31.927 2.25333 31.887 2.48C31.807 2.93333 31.7137 3.4 31.607 3.88C31.5004 4.36 31.4004 4.8 31.307 5.2C31.2137 5.58667 31.1337 5.88 31.067 6.08C31.0137 6.26667 30.9604 6.40667 30.907 6.5C30.867 6.58 30.7737 6.62667 30.627 6.64L29.887 6.7Z" fill="black"/>
<path d="M52.1177 7.6C51.291 7.62667 50.5243 7.48667 49.8177 7.18C49.111 6.87333 48.5443 6.44 48.1177 5.88C47.691 5.30667 47.4643 4.65333 47.4377 3.92C47.4377 3.21333 47.651 2.58 48.0777 2.02C48.5177 1.44667 49.091 0.986666 49.7977 0.64C50.5177 0.293333 51.2977 0.106666 52.1377 0.0800002C53.0843 0.0399999 53.9043 0.166667 54.5977 0.46C55.3043 0.753334 55.851 1.18 56.2377 1.74C56.6377 2.3 56.8377 2.97333 56.8377 3.76C56.8377 4.49333 56.6177 5.14667 56.1777 5.72C55.751 6.29333 55.1777 6.74667 54.4577 7.08C53.7377 7.4 52.9577 7.57333 52.1177 7.6ZM52.1577 6.6C53.1443 6.56 53.9377 6.28 54.5377 5.76C55.151 5.22667 55.471 4.55333 55.4977 3.74C55.4977 2.84667 55.1843 2.17333 54.5577 1.72C53.9443 1.26667 53.1377 1.04 52.1377 1.04C51.4977 1.04 50.9243 1.17333 50.4177 1.44C49.911 1.69333 49.5043 2.03333 49.1977 2.46C48.9043 2.88667 48.7577 3.36 48.7577 3.88C48.7577 4.44 48.9043 4.93333 49.1977 5.36C49.5043 5.77333 49.911 6.08667 50.4177 6.3C50.9377 6.51333 51.5177 6.61333 52.1577 6.6ZM51.7377 17.04C51.6843 17.04 51.6577 17.0067 51.6577 16.94V10.76C50.0577 10.7867 48.6043 10.8333 47.2977 10.9C45.991 10.9533 44.9643 11.0133 44.2177 11.08C44.071 11.0933 43.971 11.08 43.9177 11.04C43.8643 11 43.8243 10.94 43.7977 10.86C43.7443 10.7133 43.6977 10.5667 43.6577 10.42C43.6177 10.26 43.571 10.0667 43.5177 9.84C43.5043 9.81333 43.511 9.78 43.5377 9.74C43.5643 9.68667 43.611 9.66667 43.6777 9.68C44.1843 9.74667 44.871 9.79333 45.7377 9.82C46.6177 9.83333 47.5843 9.84 48.6377 9.84C49.6643 9.84 50.7443 9.82667 51.8777 9.8C53.0243 9.77333 54.1377 9.74 55.2177 9.7C56.2977 9.66 57.2577 9.60667 58.0977 9.54C58.951 9.47333 59.5977 9.4 60.0377 9.32C60.171 9.29333 60.2577 9.3 60.2977 9.34C60.3377 9.38 60.3643 9.43333 60.3777 9.5L60.4977 10.46C60.4977 10.5267 60.4777 10.5867 60.4377 10.64C60.3977 10.6933 60.291 10.72 60.1177 10.72C59.6643 10.7067 59.1377 10.7 58.5377 10.7C57.9377 10.7 57.2977 10.7 56.6177 10.7C55.991 10.7 55.371 10.7067 54.7577 10.72C54.1443 10.72 53.5377 10.7267 52.9377 10.74V16.54C52.9377 16.74 52.9243 16.86 52.8977 16.9C52.8843 16.94 52.8443 16.9667 52.7777 16.98C52.7243 16.98 52.6243 16.98 52.4777 16.98C52.331 16.9933 52.1843 17.0067 52.0377 17.02C51.891 17.0333 51.791 17.04 51.7377 17.04Z" fill="black"/>
<path d="M64.5262 12.84C64.2329 12.8267 64.0062 12.68 63.8462 12.4C63.6862 12.12 63.6063 11.7667 63.6063 11.34V8.42C63.6063 8.15333 63.5996 7.86667 63.5863 7.56C63.5729 7.25333 63.5196 6.96667 63.4263 6.7C63.3596 6.54 63.4196 6.47333 63.6063 6.5C63.7663 6.51333 64.0529 6.52 64.4662 6.52C64.8929 6.52 65.3729 6.51333 65.9062 6.5C66.4396 6.48667 66.9663 6.47333 67.4863 6.46C68.0063 6.43333 68.4463 6.40667 68.8063 6.38C69.1796 6.34 69.3929 6.30667 69.4463 6.28C69.4863 6 69.5262 5.64667 69.5662 5.22C69.6062 4.79333 69.6462 4.36667 69.6862 3.94C69.7396 3.5 69.7729 3.14 69.7862 2.86C69.7862 2.78 69.7529 2.74 69.6862 2.74C69.1129 2.74 68.5196 2.76 67.9062 2.8C67.3062 2.82667 66.7263 2.85333 66.1663 2.88C65.8463 2.90667 65.4996 2.93333 65.1263 2.96C64.7529 2.98667 64.4063 3.01333 64.0863 3.04C63.9396 3.05333 63.8462 3.04667 63.8062 3.02C63.7796 2.98 63.7529 2.92 63.7262 2.84L63.5062 2.04C63.4929 2.01333 63.4996 1.98667 63.5262 1.96C63.5529 1.92 63.5862 1.90667 63.6262 1.92C63.7196 1.93333 63.9529 1.94 64.3262 1.94C64.7129 1.94 65.1662 1.93333 65.6862 1.92C66.2196 1.90667 66.7596 1.88667 67.3063 1.86C67.8663 1.82 68.3796 1.78667 68.8463 1.76C69.3129 1.72 69.6662 1.67333 69.9062 1.62C69.9729 1.59333 70.0262 1.58667 70.0662 1.6C70.1062 1.6 70.1396 1.6 70.1663 1.6C70.1929 1.61333 70.2129 1.62 70.2262 1.62L71.1663 1.86C71.2729 1.88667 71.3129 1.93333 71.2862 2C71.2729 2.10667 71.2462 2.27333 71.2062 2.5C71.1662 2.71333 71.1263 2.93333 71.0863 3.16C71.0463 3.38667 71.0129 3.57333 70.9863 3.72L70.5263 7.16C70.5129 7.28 70.4462 7.34 70.3262 7.34C70.1796 7.34 69.9262 7.34667 69.5662 7.36C69.2062 7.37333 68.7929 7.38667 68.3262 7.4C67.8596 7.41333 67.3929 7.43333 66.9262 7.46C66.4596 7.48667 66.0396 7.51333 65.6663 7.54C65.2929 7.55333 65.0262 7.56667 64.8662 7.58V11.24C64.8662 11.3733 64.8862 11.4667 64.9262 11.52C64.9796 11.56 65.0396 11.5867 65.1062 11.6C65.5062 11.6267 66.0662 11.6133 66.7862 11.56C67.5062 11.4933 68.2863 11.3867 69.1263 11.24C69.9663 11.0933 70.7863 10.9133 71.5863 10.7C72.3996 10.4867 73.0929 10.2333 73.6663 9.94C73.7996 9.88667 73.8729 9.9 73.8862 9.98L73.9262 10.26L73.9863 10.7C73.9863 10.7667 73.9729 10.8267 73.9463 10.88C73.9329 10.92 73.8796 10.96 73.7862 11C73.3462 11.2 72.7529 11.4067 72.0062 11.62C71.2729 11.82 70.4596 12.0133 69.5662 12.2C68.6862 12.3733 67.8062 12.52 66.9262 12.64C66.0462 12.76 65.2462 12.8267 64.5262 12.84ZM74.7462 17C74.6929 17 74.6663 16.9667 74.6663 16.9V2.46C74.6663 1.95333 74.6462 1.48667 74.6062 1.06C74.5796 0.62 74.5329 0.333333 74.4662 0.2C74.4396 0.133333 74.4396 0.0866667 74.4662 0.0600004C74.5062 0.0200001 74.5529 0 74.6062 0C74.6862 0 74.8196 0.00666658 75.0062 0.0199997C75.2062 0.0199997 75.3996 0.0266663 75.5863 0.0399995C75.7729 0.0399995 75.8796 0.0399995 75.9062 0.0399995C75.9729 0.0399995 76.0062 0.0933329 76.0062 0.2C75.9662 0.693333 75.9396 1.12667 75.9262 1.5C75.9262 1.86 75.9262 2.28 75.9262 2.76V16.5C75.9262 16.7 75.9129 16.82 75.8863 16.86C75.8729 16.9 75.8329 16.9267 75.7663 16.94L74.7462 17Z" fill="black"/>
<path d="M90.6298 17.9C90.6032 17.9 90.5698 17.8933 90.5298 17.88C90.4898 17.8667 90.4698 17.8267 90.4698 17.76C90.4698 17.7333 90.4698 17.6667 90.4698 17.56C90.4698 17.44 90.4698 17.2467 90.4698 16.98C90.4832 16.7133 90.4832 16.32 90.4698 15.8C90.4698 15.28 90.4632 14.5867 90.4498 13.72C90.4498 13.3733 90.4098 13.0133 90.3298 12.64C90.2632 12.2667 90.1965 12.0333 90.1298 11.94C90.0765 11.86 90.0632 11.7933 90.0898 11.74C90.1298 11.6867 90.1965 11.66 90.2898 11.66L91.5698 11.7C91.9965 11.7133 92.5298 11.72 93.1698 11.72C93.8098 11.72 94.4765 11.7133 95.1698 11.7C95.8632 11.6733 96.4898 11.6467 97.0498 11.62C97.6232 11.5933 98.0365 11.56 98.2898 11.52C98.3165 11.52 98.3432 11.5133 98.3698 11.5C98.4632 11.4867 98.5432 11.4867 98.6098 11.5L99.6698 11.64C99.7765 11.6533 99.8165 11.7333 99.7898 11.88C99.7765 12.0533 99.7565 12.28 99.7298 12.56C99.7165 12.8267 99.7032 13.0933 99.6898 13.36C99.6765 13.6133 99.6698 13.8067 99.6698 13.94L99.6098 17.54C99.6098 17.7267 99.5098 17.82 99.3098 17.82C98.9365 17.8067 98.4632 17.8 97.8898 17.8C97.3165 17.8 96.7098 17.8 96.0698 17.8C95.4298 17.8 94.8032 17.8 94.1898 17.8C93.5765 17.8 93.0365 17.8 92.5698 17.8C92.1032 17.8133 91.7632 17.8267 91.5498 17.84L90.6298 17.9ZM90.1698 8.84C89.4098 8.85333 88.7098 8.70667 88.0698 8.4C87.4432 8.09333 86.9365 7.66 86.5498 7.1C86.1765 6.52667 85.9898 5.86667 85.9898 5.12C85.9898 4.4 86.1765 3.75333 86.5498 3.18C86.9365 2.59333 87.4432 2.12667 88.0698 1.78C88.7098 1.43333 89.4165 1.25333 90.1898 1.24C90.9498 1.2 91.6432 1.32667 92.2698 1.62C92.9098 1.91333 93.4232 2.34667 93.8098 2.92C94.1965 3.48 94.3898 4.16 94.3898 4.96C94.3898 5.69333 94.1965 6.35333 93.8098 6.94C93.4232 7.51333 92.9098 7.96667 92.2698 8.3C91.6298 8.63333 90.9298 8.81333 90.1698 8.84ZM91.6698 16.74C91.8565 16.7533 92.1698 16.7667 92.6098 16.78C93.0632 16.78 93.5765 16.78 94.1498 16.78C94.7232 16.7667 95.2965 16.7533 95.8698 16.74C96.4432 16.7267 96.9565 16.7133 97.4098 16.7C97.8632 16.6867 98.1898 16.6667 98.3898 16.64L98.4298 12.8C98.4298 12.7067 98.4165 12.6533 98.3898 12.64C98.3632 12.6133 98.3165 12.6 98.2498 12.6L91.6698 12.68V16.74ZM90.1898 7.82C90.9898 7.79333 91.6632 7.52667 92.2098 7.02C92.7565 6.5 93.0298 5.81333 93.0298 4.96C93.0298 4.01333 92.7498 3.32 92.1898 2.88C91.6432 2.44 90.9698 2.23333 90.1698 2.26C89.3565 2.31333 88.6765 2.58667 88.1298 3.08C87.5832 3.57333 87.3098 4.24667 87.3098 5.1C87.3098 5.99333 87.5832 6.68 88.1298 7.16C88.6898 7.62667 89.3765 7.84667 90.1898 7.82ZM98.4298 10.38C98.3765 10.38 98.3498 10.3467 98.3498 10.28V5.26C98.0698 5.27333 97.7365 5.29333 97.3498 5.32C96.9632 5.34667 96.5965 5.37333 96.2498 5.4C95.9032 5.42667 95.6232 5.45333 95.4098 5.48C95.2632 5.49333 95.1632 5.48667 95.1098 5.46C95.0565 5.42 95.0165 5.36 94.9898 5.28C94.9365 5.09333 94.8898 4.92667 94.8498 4.78C94.8232 4.63333 94.7965 4.5 94.7698 4.38C94.7432 4.27333 94.7965 4.23333 94.9298 4.26C95.1298 4.28667 95.4165 4.30667 95.7898 4.32C96.1765 4.32 96.5965 4.32 97.0498 4.32C97.5032 4.30667 97.9365 4.28667 98.3498 4.26V2.44C98.3498 1.93333 98.3298 1.46667 98.2898 1.04C98.2632 0.613333 98.2165 0.333333 98.1498 0.2C98.1232 0.133333 98.1232 0.0866667 98.1498 0.0600004C98.1898 0.0200001 98.2365 0 98.2898 0C98.4232 0 98.6165 0 98.8698 0C99.1365 0 99.3765 0.00666658 99.5898 0.0199997C99.6565 0.0199997 99.6898 0.0733332 99.6898 0.18C99.6498 0.673333 99.6232 1.10667 99.6098 1.48C99.6098 1.84 99.6098 2.26 99.6098 2.74V9.88C99.6098 10.08 99.5965 10.2 99.5698 10.24C99.5565 10.28 99.5165 10.3067 99.4498 10.32L98.4298 10.38Z" fill="black"/>
<path d="M104.327 11.28C104.301 11.28 104.268 11.2733 104.228 11.26C104.188 11.2467 104.167 11.2067 104.167 11.14C104.167 11.1267 104.167 11.0867 104.167 11.02C104.167 10.7533 104.161 10.0933 104.147 9.04C104.134 7.98667 104.074 6.46667 103.967 4.48C103.941 4.13333 103.894 3.76667 103.827 3.38C103.774 2.99333 103.708 2.75333 103.628 2.66C103.574 2.58 103.574 2.51333 103.628 2.46C103.681 2.40667 103.734 2.38 103.787 2.38C104.001 2.39333 104.227 2.40667 104.467 2.42C104.707 2.43333 104.934 2.44 105.147 2.44C105.614 2.44 106.134 2.43333 106.707 2.42C107.294 2.39333 107.867 2.36667 108.427 2.34C108.987 2.31333 109.474 2.28667 109.887 2.26C110.314 2.22 110.608 2.18667 110.768 2.16C110.794 2.16 110.821 2.15333 110.847 2.14C110.941 2.12667 111.021 2.12667 111.088 2.14L112.228 2.32C112.294 2.34667 112.334 2.38 112.347 2.42C112.361 2.44667 112.361 2.49333 112.347 2.56C112.294 2.85333 112.247 3.2 112.207 3.6C112.167 3.98667 112.147 4.27333 112.147 4.46C112.121 4.87333 112.094 5.36 112.067 5.92C112.041 6.46667 112.014 7.04 111.987 7.64C111.961 8.24 111.934 8.81333 111.908 9.36C111.881 9.90667 111.861 10.38 111.847 10.78C111.834 10.9533 111.734 11.04 111.548 11.04C111.428 11.04 111.174 11.0467 110.787 11.06C110.414 11.06 109.968 11.0667 109.448 11.08C108.941 11.08 108.414 11.0867 107.868 11.1C107.334 11.1133 106.834 11.1267 106.368 11.14C105.901 11.1533 105.527 11.1667 105.247 11.18C105.114 11.2067 104.934 11.2333 104.707 11.26C104.494 11.2733 104.367 11.28 104.327 11.28ZM105.327 10.08C105.647 10.08 106.054 10.0733 106.548 10.06C107.054 10.0467 107.581 10.0333 108.128 10.02C108.674 10.0067 109.174 9.98667 109.628 9.96C110.081 9.93333 110.421 9.91333 110.647 9.9C110.687 8.82 110.721 7.76 110.747 6.72C110.774 5.68 110.801 4.61333 110.827 3.52C110.841 3.38667 110.781 3.32 110.647 3.32L105.207 3.52L105.327 10.08ZM115.327 17C115.274 17 115.247 16.9667 115.247 16.9V2.46C115.247 1.95333 115.228 1.48667 115.188 1.06C115.161 0.62 115.114 0.333333 115.048 0.2C115.021 0.133333 115.021 0.0866667 115.048 0.0600004C115.088 0.0200001 115.134 0 115.188 0C115.267 0 115.401 0.00666658 115.588 0.0199997C115.788 0.0199997 115.981 0.0266663 116.168 0.0399995C116.354 0.0399995 116.461 0.0399995 116.488 0.0399995C116.554 0.0399995 116.588 0.0933329 116.588 0.2C116.548 0.693333 116.521 1.12667 116.507 1.5C116.507 1.86 116.507 2.28 116.507 2.76V7.44C116.867 7.44 117.254 7.42667 117.668 7.4C118.094 7.36 118.488 7.32 118.848 7.28C119.221 7.22667 119.501 7.17333 119.688 7.12C119.808 7.10667 119.874 7.14667 119.887 7.24C119.914 7.41333 119.934 7.58667 119.948 7.76C119.961 7.93333 119.974 8.10667 119.988 8.28C119.988 8.42667 119.928 8.5 119.808 8.5C119.608 8.47333 119.314 8.46 118.927 8.46C118.554 8.46 118.154 8.46 117.728 8.46C117.301 8.46 116.894 8.46667 116.507 8.48V16.5C116.507 16.7 116.494 16.82 116.467 16.86C116.454 16.9 116.414 16.9267 116.347 16.94L115.327 17Z" fill="black"/>
<path d="M122.286 10.78C122.139 10.7933 122.039 10.78 121.986 10.74C121.933 10.7 121.893 10.64 121.866 10.56C121.813 10.4133 121.766 10.2667 121.726 10.12C121.686 9.97333 121.639 9.78667 121.586 9.56C121.573 9.53333 121.579 9.5 121.606 9.46C121.633 9.40667 121.679 9.38667 121.746 9.4C122.253 9.46667 122.946 9.52 123.826 9.56C124.706 9.58667 125.673 9.59333 126.726 9.58C127.539 9.58 128.406 9.57333 129.326 9.56C130.246 9.53333 131.159 9.50667 132.066 9.48C132.986 9.44 133.853 9.4 134.666 9.36C135.493 9.32 136.219 9.27333 136.846 9.22C137.486 9.16667 137.979 9.10667 138.326 9.04C138.459 9.01333 138.546 9.02 138.586 9.06C138.626 9.1 138.653 9.15333 138.666 9.22L138.786 10.1C138.799 10.2867 138.673 10.3733 138.406 10.36C137.993 10.3333 137.433 10.32 136.726 10.32C136.033 10.32 135.279 10.3267 134.466 10.34C133.746 10.34 133.006 10.3533 132.246 10.38C131.499 10.3933 130.793 10.4067 130.126 10.42C129.473 10.4333 128.906 10.4467 128.426 10.46C127.079 10.5 125.866 10.5467 124.786 10.6C123.706 10.6533 122.873 10.7133 122.286 10.78ZM126.466 6.5C125.999 6.51333 125.673 6.38667 125.486 6.12C125.299 5.85333 125.206 5.4 125.206 4.76V2.52C125.206 2.16 125.179 1.8 125.126 1.44C125.086 1.08 125.046 0.833333 125.006 0.699999C124.966 0.566666 125.013 0.5 125.146 0.5C125.213 0.5 125.346 0.513333 125.546 0.54C125.746 0.553333 125.939 0.566667 126.126 0.58C126.313 0.593333 126.419 0.606666 126.446 0.62C126.499 0.633334 126.526 0.686667 126.526 0.779999C126.486 1.47333 126.466 2.18667 126.466 2.92V4.32C126.466 4.81333 126.499 5.12667 126.566 5.26C126.633 5.39333 126.773 5.46667 126.986 5.48C127.319 5.49333 127.719 5.5 128.186 5.5C128.653 5.5 129.126 5.49333 129.606 5.48C130.099 5.46667 130.559 5.45333 130.986 5.44C131.413 5.42667 131.759 5.41333 132.026 5.4C132.813 5.36 133.499 5.30667 134.086 5.24C134.673 5.17333 135.133 5.10667 135.466 5.04C135.599 5.01333 135.686 5.02 135.726 5.06C135.766 5.08667 135.793 5.13333 135.806 5.2L135.886 6.12C135.899 6.2 135.879 6.25333 135.826 6.28C135.773 6.30667 135.653 6.32 135.466 6.32C134.039 6.32 132.566 6.34667 131.046 6.4C129.526 6.44 127.999 6.47333 126.466 6.5ZM127.266 17.8C126.799 17.8 126.446 17.62 126.206 17.26C125.966 16.9 125.846 16.4467 125.846 15.9V14.62C125.846 14.1533 125.819 13.7667 125.766 13.46C125.726 13.1533 125.686 12.9333 125.646 12.8C125.606 12.6667 125.653 12.6 125.786 12.6C125.853 12.6 125.979 12.6067 126.166 12.62C126.366 12.62 126.553 12.6267 126.726 12.64C126.913 12.6533 127.019 12.66 127.046 12.66C127.113 12.6733 127.146 12.74 127.146 12.86C127.133 13.1667 127.119 13.44 127.106 13.68C127.106 13.9067 127.106 14.1933 127.106 14.54V15.84C127.106 16.1867 127.146 16.4267 127.226 16.56C127.319 16.68 127.493 16.7467 127.746 16.76C128.119 16.7733 128.593 16.7867 129.166 16.8C129.739 16.8 130.333 16.7933 130.946 16.78C131.573 16.7667 132.153 16.7467 132.686 16.72C133.246 16.6933 133.813 16.6533 134.386 16.6C134.973 16.5333 135.433 16.4667 135.766 16.4C135.899 16.3733 135.986 16.38 136.026 16.42C136.066 16.46 136.093 16.5133 136.106 16.58L136.266 17.48C136.279 17.6267 136.179 17.7 135.966 17.7C134.646 17.7 133.253 17.7133 131.786 17.74C130.333 17.78 128.826 17.8 127.266 17.8Z" fill="black"/>
</svg>
