<svg width="139" height="19" viewBox="0 0 139 19" fill="none" xmlns="http://www.w3.org/2000/svg">
<path d="M1.0125 12.58C0.945832 12.5267 0.852499 12.46 0.732499 12.38C0.625832 12.2867 0.539166 12.2067 0.472499 12.14C0.392499 12.0467 0.399166 11.9733 0.492499 11.92C1.82583 10.9733 2.8725 9.98668 3.6325 8.96001C4.40583 7.93335 4.95917 6.93335 5.2925 5.96001C5.63917 4.97335 5.83917 4.09335 5.8925 3.32001C5.54583 3.34668 5.24583 3.36668 4.9925 3.38001C4.73917 3.39335 4.56583 3.40001 4.4725 3.40001L2.2725 3.60001C2.13917 3.61335 2.0525 3.60001 2.0125 3.56001C1.9725 3.50668 1.93917 3.44668 1.9125 3.38001C1.89917 3.36668 1.8925 3.35335 1.8925 3.34001C1.83917 3.19335 1.79917 3.06668 1.7725 2.96001C1.75917 2.84001 1.72583 2.66668 1.6725 2.44001C1.65917 2.34668 1.7125 2.30001 1.8325 2.30001C2.20583 2.32668 2.5525 2.34668 2.8725 2.36001C3.20583 2.36001 3.6925 2.36001 4.3325 2.36001C5.0525 2.36001 5.69917 2.34668 6.2725 2.32001C6.85917 2.29335 7.39917 2.26001 7.8925 2.22001C8.4125 2.18001 8.8325 2.14668 9.1525 2.12001C9.48583 2.09335 9.7725 2.06668 10.0125 2.04001C10.2658 2.00001 10.5325 1.96668 10.8125 1.94001C10.8525 1.94001 10.8992 1.94668 10.9525 1.96001C11.0058 1.97335 11.0392 2.01335 11.0525 2.08001C11.0658 2.16001 11.0792 2.25335 11.0925 2.36001C11.1192 2.46668 11.1392 2.57335 11.1525 2.68001L11.1925 3.04001C11.2192 3.18668 11.1392 3.26001 10.9525 3.26001C10.6992 3.24668 10.4125 3.24001 10.0925 3.24001C9.78583 3.24001 9.49917 3.24001 9.2325 3.24001C9.00583 3.24001 8.7325 3.24668 8.4125 3.26001C8.10583 3.26001 7.7725 3.26668 7.4125 3.28001C7.3325 4.34668 7.0125 5.49335 6.4525 6.72001C7.0925 7.17335 7.7325 7.65335 8.3725 8.16001C9.0125 8.65335 9.5925 9.12668 10.1125 9.58001C10.6325 10.02 11.0325 10.4 11.3125 10.72C11.3658 10.7867 11.4058 10.8667 11.4325 10.96C11.4725 11.04 11.4592 11.1267 11.3925 11.22C11.2725 11.3667 11.1325 11.5 10.9725 11.62C10.8258 11.7267 10.6792 11.84 10.5325 11.96C10.4525 12.0267 10.3858 12.0133 10.3325 11.92C10.1458 11.6267 9.88583 11.2867 9.5525 10.9C9.2325 10.5133 8.86583 10.12 8.4525 9.72001C8.0525 9.30668 7.63917 8.91335 7.2125 8.54001C6.79917 8.16668 6.40583 7.84001 6.0325 7.56001C5.56583 8.40001 4.9725 9.24001 4.2525 10.08C3.5325 10.92 2.66583 11.7267 1.6525 12.5C1.63917 12.5133 1.61917 12.5267 1.5925 12.54C1.49917 12.6067 1.4125 12.6533 1.3325 12.68C1.2525 12.6933 1.14583 12.66 1.0125 12.58ZM13.3525 17.2C13.2992 17.2 13.2725 17.1667 13.2725 17.1V2.66001C13.2725 2.15335 13.2525 1.68668 13.2125 1.26001C13.1858 0.820012 13.1392 0.533345 13.0725 0.400012C13.0458 0.333345 13.0458 0.286679 13.0725 0.260013C13.1125 0.220012 13.1592 0.200012 13.2125 0.200012C13.2925 0.200012 13.4258 0.206679 13.6125 0.220012C13.8125 0.220012 14.0058 0.226679 14.1925 0.240012C14.3792 0.240012 14.4858 0.240012 14.5125 0.240012C14.5792 0.240012 14.6125 0.293345 14.6125 0.400012C14.5725 0.893345 14.5458 1.32668 14.5325 1.70001C14.5325 2.06001 14.5325 2.48001 14.5325 2.96001V16.7C14.5325 16.9 14.5192 17.02 14.4925 17.06C14.4792 17.1 14.4392 17.1267 14.3725 17.14L13.3525 17.2Z" fill="black"/>
<path d="M22.3795 18.2C22.3529 18.2 22.3195 18.1933 22.2795 18.18C22.2395 18.1667 22.2195 18.1267 22.2195 18.06C22.2195 18.0333 22.2195 17.9667 22.2195 17.86C22.2195 17.6067 22.2195 17.16 22.2195 16.52C22.2329 15.88 22.2195 15.0133 22.1795 13.92C22.1662 13.5733 22.1262 13.2133 22.0595 12.84C21.9929 12.4667 21.9262 12.2333 21.8595 12.14C21.8062 12.06 21.7929 11.9933 21.8195 11.94C21.8595 11.8867 21.9262 11.86 22.0195 11.86L23.2995 11.92C23.6329 11.9333 24.0529 11.94 24.5595 11.94C25.0662 11.94 25.5995 11.9333 26.1595 11.92C26.7329 11.9067 27.2862 11.8933 27.8195 11.88C28.3662 11.8533 28.8529 11.8267 29.2795 11.8C29.7062 11.7733 30.0262 11.7467 30.2395 11.72C30.2662 11.72 30.2929 11.7133 30.3195 11.7C30.4129 11.6867 30.4929 11.6867 30.5595 11.7L31.5995 11.84C31.7062 11.8533 31.7462 11.9333 31.7195 12.08C31.7062 12.2533 31.6862 12.48 31.6595 12.76C31.6462 13.0267 31.6329 13.2933 31.6195 13.56C31.6062 13.8133 31.5995 14.0067 31.5995 14.14L31.5395 17.84C31.5395 18.0267 31.4395 18.12 31.2395 18.12C30.8529 18.1067 30.3662 18.1 29.7795 18.1C29.2062 18.1 28.5862 18.1 27.9195 18.1C27.2662 18.1 26.6195 18.1 25.9795 18.1C25.3529 18.1 24.7995 18.1 24.3195 18.1C23.8395 18.1133 23.4929 18.1267 23.2795 18.14L22.3795 18.2ZM23.3995 17.04C23.5862 17.0533 23.9129 17.06 24.3795 17.06C24.8462 17.0733 25.3729 17.0733 25.9595 17.06C26.5595 17.06 27.1529 17.0533 27.7395 17.04C28.3395 17.0267 28.8729 17.0133 29.3395 17C29.8062 16.9867 30.1395 16.9667 30.3395 16.94L30.3795 12.96C30.3795 12.8667 30.3662 12.8133 30.3395 12.8C30.3129 12.7733 30.2662 12.76 30.1995 12.76L23.3995 12.88V17.04ZM18.7195 9.28001C18.5729 9.29335 18.4729 9.28001 18.4195 9.24001C18.3662 9.20001 18.3262 9.14001 18.2995 9.06001C18.2462 8.91335 18.1995 8.76668 18.1595 8.62001C18.1195 8.47335 18.0729 8.28668 18.0195 8.06001C18.0062 8.03335 18.0129 8.00001 18.0395 7.96001C18.0662 7.90668 18.1129 7.88668 18.1795 7.90001C18.6862 7.96668 19.3795 8.02001 20.2595 8.06001C21.1395 8.08668 22.1062 8.09335 23.1595 8.08001C23.9729 8.08001 24.8395 8.07335 25.7595 8.06001C26.6795 8.03335 27.5929 8.00668 28.4995 7.98001C29.4195 7.94001 30.2862 7.90001 31.0995 7.86001C31.9262 7.82001 32.6529 7.77335 33.2795 7.72001C33.9195 7.66668 34.4129 7.60668 34.7595 7.54001C34.8929 7.51335 34.9795 7.52001 35.0195 7.56001C35.0595 7.60001 35.0862 7.65335 35.0995 7.72001L35.2195 8.60001C35.2329 8.78668 35.1062 8.87335 34.8395 8.86001C34.4262 8.83335 33.8662 8.82001 33.1595 8.82001C32.4662 8.82001 31.7129 8.82668 30.8995 8.84001C30.1795 8.84001 29.4395 8.85335 28.6795 8.88001C27.9329 8.89335 27.2262 8.90668 26.5595 8.92001C25.9062 8.93335 25.3395 8.94668 24.8595 8.96001C23.5129 9.00001 22.2995 9.04668 21.2195 9.10001C20.1395 9.15335 19.3062 9.21335 18.7195 9.28001ZM29.6995 6.90001C29.5795 6.90001 29.5395 6.83335 29.5795 6.70001C29.6595 6.46001 29.7462 6.13335 29.8395 5.72001C29.9462 5.29335 30.0395 4.84001 30.1195 4.36001C30.2129 3.88001 30.2929 3.42668 30.3595 3.00001C30.4262 2.57335 30.4662 2.24001 30.4795 2.00001C30.4929 1.85335 30.4262 1.78001 30.2795 1.78001C29.9862 1.78001 29.5862 1.78668 29.0795 1.80001C28.5862 1.81335 28.0529 1.82668 27.4795 1.84001C26.9195 1.85335 26.3862 1.86668 25.8795 1.88001C25.3862 1.89335 24.9995 1.90668 24.7195 1.92001C24.5062 1.92001 24.2329 1.93335 23.8995 1.96001C23.5662 1.98668 23.2329 2.01335 22.8995 2.04001C22.5662 2.06668 22.2929 2.09335 22.0795 2.12001C21.9329 2.13335 21.8395 2.12668 21.7995 2.10001C21.7595 2.06001 21.7195 1.98668 21.6795 1.88001C21.6795 1.86668 21.6795 1.86001 21.6795 1.86001C21.6395 1.75335 21.5995 1.63335 21.5595 1.50001C21.5195 1.36668 21.4729 1.20668 21.4195 1.02001C21.4062 0.993345 21.4129 0.960012 21.4395 0.920012C21.4662 0.880012 21.5129 0.866679 21.5795 0.880012C21.9529 0.906679 22.4462 0.926679 23.0595 0.940012C23.6729 0.953345 24.3395 0.953345 25.0595 0.940012C25.7795 0.926679 26.4929 0.906679 27.1995 0.880012C27.9062 0.853345 28.5462 0.820012 29.1195 0.780012C29.6929 0.726678 30.1329 0.666678 30.4395 0.600012C30.5462 0.573346 30.6529 0.573346 30.7595 0.600012L31.8795 0.840012C31.9995 0.853345 32.0462 0.926679 32.0195 1.06001C31.9795 1.26001 31.9262 1.52668 31.8595 1.86001C31.7929 2.18001 31.7395 2.45335 31.6995 2.68001C31.6195 3.13335 31.5262 3.60001 31.4195 4.08001C31.3129 4.56001 31.2129 5.00001 31.1195 5.40001C31.0262 5.78668 30.9462 6.08001 30.8795 6.28001C30.8262 6.46668 30.7729 6.60668 30.7195 6.70001C30.6795 6.78001 30.5862 6.82668 30.4395 6.84001L29.6995 6.90001Z" fill="black"/>
<path d="M51.9302 7.80001C51.1035 7.82668 50.3368 7.68668 49.6302 7.38001C48.9235 7.07335 48.3568 6.64001 47.9302 6.08001C47.5035 5.50668 47.2768 4.85335 47.2502 4.12001C47.2502 3.41335 47.4635 2.78001 47.8902 2.22001C48.3302 1.64668 48.9035 1.18668 49.6102 0.840012C50.3302 0.493345 51.1102 0.306679 51.9502 0.280012C52.8968 0.240012 53.7168 0.366679 54.4102 0.660012C55.1168 0.953346 55.6635 1.38001 56.0502 1.94001C56.4502 2.50001 56.6502 3.17335 56.6502 3.96001C56.6502 4.69335 56.4302 5.34668 55.9902 5.92001C55.5635 6.49335 54.9902 6.94668 54.2702 7.28001C53.5502 7.60001 52.7702 7.77335 51.9302 7.80001ZM51.9702 6.80001C52.9568 6.76001 53.7502 6.48001 54.3502 5.96001C54.9635 5.42668 55.2835 4.75335 55.3102 3.94001C55.3102 3.04668 54.9968 2.37335 54.3702 1.92001C53.7568 1.46668 52.9502 1.24001 51.9502 1.24001C51.3102 1.24001 50.7368 1.37335 50.2302 1.64001C49.7235 1.89335 49.3168 2.23335 49.0102 2.66001C48.7168 3.08668 48.5702 3.56001 48.5702 4.08001C48.5702 4.64001 48.7168 5.13335 49.0102 5.56001C49.3168 5.97335 49.7235 6.28668 50.2302 6.50001C50.7502 6.71335 51.3302 6.81335 51.9702 6.80001ZM51.5502 17.24C51.4968 17.24 51.4702 17.2067 51.4702 17.14V10.96C49.8702 10.9867 48.4168 11.0333 47.1102 11.1C45.8035 11.1533 44.7768 11.2133 44.0302 11.28C43.8835 11.2933 43.7835 11.28 43.7302 11.24C43.6768 11.2 43.6368 11.14 43.6102 11.06C43.5568 10.9133 43.5102 10.7667 43.4702 10.62C43.4302 10.46 43.3835 10.2667 43.3302 10.04C43.3168 10.0133 43.3235 9.98001 43.3502 9.94001C43.3768 9.88668 43.4235 9.86668 43.4902 9.88001C43.9968 9.94668 44.6835 9.99335 45.5502 10.02C46.4302 10.0333 47.3968 10.04 48.4502 10.04C49.4768 10.04 50.5568 10.0267 51.6902 10C52.8368 9.97335 53.9502 9.94001 55.0302 9.90001C56.1102 9.86001 57.0702 9.80668 57.9102 9.74001C58.7635 9.67335 59.4102 9.60001 59.8502 9.52001C59.9835 9.49335 60.0702 9.50001 60.1102 9.54001C60.1502 9.58001 60.1768 9.63335 60.1902 9.70001L60.3102 10.66C60.3102 10.7267 60.2902 10.7867 60.2502 10.84C60.2102 10.8933 60.1035 10.92 59.9302 10.92C59.4768 10.9067 58.9502 10.9 58.3502 10.9C57.7502 10.9 57.1102 10.9 56.4302 10.9C55.8035 10.9 55.1835 10.9067 54.5702 10.92C53.9568 10.92 53.3502 10.9267 52.7502 10.94V16.74C52.7502 16.94 52.7368 17.06 52.7102 17.1C52.6968 17.14 52.6568 17.1667 52.5902 17.18C52.5368 17.18 52.4368 17.18 52.2902 17.18C52.1435 17.1933 51.9968 17.2067 51.8502 17.22C51.7035 17.2333 51.6035 17.24 51.5502 17.24Z" fill="black"/>
<path d="M64.3387 13.04C64.0454 13.0267 63.8187 12.88 63.6587 12.6C63.4987 12.32 63.4188 11.9667 63.4188 11.54V8.62001C63.4188 8.35335 63.4121 8.06668 63.3988 7.76001C63.3854 7.45335 63.3321 7.16668 63.2388 6.90001C63.1721 6.74001 63.2321 6.67335 63.4188 6.70001C63.5788 6.71335 63.8654 6.72001 64.2787 6.72001C64.7054 6.72001 65.1854 6.71335 65.7188 6.70001C66.2521 6.68668 66.7788 6.67335 67.2988 6.66001C67.8188 6.63335 68.2588 6.60668 68.6188 6.58001C68.9921 6.54001 69.2054 6.50668 69.2588 6.48001C69.2988 6.20001 69.3387 5.84668 69.3787 5.42001C69.4187 4.99335 69.4587 4.56668 69.4987 4.14001C69.5521 3.70001 69.5854 3.34001 69.5987 3.06001C69.5987 2.98001 69.5654 2.94001 69.4987 2.94001C68.9254 2.94001 68.3321 2.96001 67.7188 3.00001C67.1187 3.02668 66.5388 3.05335 65.9788 3.08001C65.6588 3.10668 65.3121 3.13335 64.9388 3.16001C64.5654 3.18668 64.2188 3.21335 63.8988 3.24001C63.7521 3.25335 63.6587 3.24668 63.6187 3.22001C63.5921 3.18001 63.5654 3.12001 63.5387 3.04001L63.3187 2.24001C63.3054 2.21335 63.3121 2.18668 63.3387 2.16001C63.3654 2.12001 63.3987 2.10668 63.4387 2.12001C63.5321 2.13335 63.7654 2.14001 64.1387 2.14001C64.5254 2.14001 64.9787 2.13335 65.4987 2.12001C66.0321 2.10668 66.5721 2.08668 67.1188 2.06001C67.6788 2.02001 68.1921 1.98668 68.6588 1.96001C69.1254 1.92001 69.4787 1.87335 69.7188 1.82001C69.7854 1.79335 69.8387 1.78668 69.8787 1.80001C69.9187 1.80001 69.9521 1.80001 69.9788 1.80001C70.0054 1.81335 70.0254 1.82001 70.0387 1.82001L70.9788 2.06001C71.0854 2.08668 71.1254 2.13335 71.0987 2.20001C71.0854 2.30668 71.0587 2.47335 71.0187 2.70001C70.9787 2.91335 70.9388 3.13335 70.8988 3.36001C70.8588 3.58668 70.8254 3.77335 70.7988 3.92001L70.3388 7.36001C70.3254 7.48001 70.2587 7.54001 70.1387 7.54001C69.9921 7.54001 69.7387 7.54668 69.3787 7.56001C69.0187 7.57335 68.6054 7.58668 68.1387 7.60001C67.6721 7.61335 67.2054 7.63335 66.7387 7.66001C66.2721 7.68668 65.8521 7.71335 65.4788 7.74001C65.1054 7.75335 64.8387 7.76668 64.6787 7.78001V11.44C64.6787 11.5733 64.6987 11.6667 64.7387 11.72C64.7921 11.76 64.8521 11.7867 64.9187 11.8C65.3187 11.8267 65.8787 11.8133 66.5987 11.76C67.3187 11.6933 68.0988 11.5867 68.9388 11.44C69.7788 11.2933 70.5988 11.1133 71.3988 10.9C72.2121 10.6867 72.9054 10.4333 73.4788 10.14C73.6121 10.0867 73.6854 10.1 73.6987 10.18L73.7387 10.46L73.7988 10.9C73.7988 10.9667 73.7854 11.0267 73.7588 11.08C73.7454 11.12 73.6921 11.16 73.5987 11.2C73.1587 11.4 72.5654 11.6067 71.8187 11.82C71.0854 12.02 70.2721 12.2133 69.3787 12.4C68.4987 12.5733 67.6187 12.72 66.7387 12.84C65.8587 12.96 65.0587 13.0267 64.3387 13.04ZM74.5587 17.2C74.5054 17.2 74.4788 17.1667 74.4788 17.1V2.66001C74.4788 2.15335 74.4587 1.68668 74.4187 1.26001C74.3921 0.820012 74.3454 0.533345 74.2787 0.400012C74.2521 0.333345 74.2521 0.286679 74.2787 0.260013C74.3187 0.220012 74.3654 0.200012 74.4187 0.200012C74.4987 0.200012 74.6321 0.206679 74.8187 0.220012C75.0187 0.220012 75.2121 0.226679 75.3988 0.240012C75.5854 0.240012 75.6921 0.240012 75.7188 0.240012C75.7854 0.240012 75.8187 0.293345 75.8187 0.400012C75.7787 0.893345 75.7521 1.32668 75.7387 1.70001C75.7387 2.06001 75.7387 2.48001 75.7387 2.96001V16.7C75.7387 16.9 75.7254 17.02 75.6988 17.06C75.6854 17.1 75.6454 17.1267 75.5788 17.14L74.5587 17.2Z" fill="black"/>
<path d="M90.1823 11C89.369 11.0133 88.6223 10.8467 87.9423 10.5C87.2623 10.1533 86.7157 9.66001 86.3023 9.02001C85.9023 8.36668 85.7023 7.62001 85.7023 6.78001C85.7023 5.96668 85.9023 5.24001 86.3023 4.60001C86.7023 3.94668 87.2423 3.42668 87.9223 3.04001C88.6157 2.64001 89.3757 2.43335 90.2023 2.42001C91.029 2.39335 91.7757 2.54001 92.4423 2.86001C93.1223 3.18001 93.6623 3.65335 94.0623 4.28001C94.4623 4.90668 94.6623 5.68001 94.6623 6.60001C94.6623 7.42668 94.4623 8.16668 94.0623 8.82001C93.6623 9.47335 93.1223 9.99335 92.4423 10.38C91.7623 10.7667 91.009 10.9733 90.1823 11ZM90.2023 9.86001C90.789 9.83335 91.3223 9.68668 91.8023 9.42001C92.2823 9.14001 92.6623 8.76001 92.9423 8.28001C93.2357 7.78668 93.3823 7.23335 93.3823 6.62001C93.3823 5.94001 93.2357 5.36001 92.9423 4.88001C92.6623 4.40001 92.2823 4.04001 91.8023 3.80001C91.3223 3.54668 90.789 3.43335 90.2023 3.46001C89.6157 3.47335 89.0757 3.62668 88.5823 3.92001C88.089 4.20001 87.6957 4.58668 87.4023 5.08001C87.109 5.56001 86.9623 6.12001 86.9623 6.76001C86.9623 7.42668 87.109 7.99335 87.4023 8.46001C87.709 8.92668 88.109 9.28001 88.6023 9.52001C89.0957 9.76001 89.629 9.87335 90.2023 9.86001ZM97.7423 17.2C97.689 17.2 97.6623 17.1667 97.6623 17.1V2.66001C97.6623 2.15335 97.6423 1.68668 97.6023 1.26001C97.5757 0.820012 97.529 0.533345 97.4623 0.400012C97.4357 0.333345 97.4357 0.286679 97.4623 0.260013C97.5023 0.220012 97.549 0.200012 97.6023 0.200012C97.6823 0.200012 97.8157 0.206679 98.0023 0.220012C98.2023 0.220012 98.3957 0.226679 98.5823 0.240012C98.769 0.240012 98.8757 0.240012 98.9023 0.240012C98.969 0.240012 99.0023 0.293345 99.0023 0.400012C98.9623 0.893345 98.9357 1.32668 98.9223 1.70001C98.9223 2.06001 98.9223 2.48001 98.9223 2.96001V7.64001C99.2823 7.64001 99.669 7.62668 100.082 7.60001C100.509 7.56001 100.902 7.52001 101.262 7.48001C101.636 7.42668 101.916 7.37335 102.102 7.32001C102.222 7.30668 102.289 7.34668 102.302 7.44001C102.329 7.61335 102.349 7.78668 102.362 7.96001C102.376 8.13335 102.389 8.30668 102.402 8.48001C102.402 8.62668 102.342 8.70001 102.222 8.70001C102.022 8.67335 101.729 8.66001 101.342 8.66001C100.969 8.66001 100.569 8.66001 100.142 8.66001C99.7157 8.66001 99.309 8.66668 98.9223 8.68001V16.7C98.9223 16.9 98.909 17.02 98.8823 17.06C98.869 17.1 98.829 17.1267 98.7623 17.14L97.7423 17.2Z" fill="black"/>
<path d="M104.416 13.96L103.936 13.52C103.883 13.4667 103.903 13.4 103.996 13.32C104.663 12.9733 105.336 12.5267 106.016 11.98C106.709 11.42 107.369 10.8 107.996 10.12C108.636 9.42668 109.216 8.70668 109.736 7.96001C110.256 7.21335 110.683 6.46668 111.016 5.72001C111.349 4.96001 111.556 4.24001 111.636 3.56001C111.663 3.41335 111.603 3.34001 111.456 3.34001L107.336 3.58001L105.256 3.76001C105.123 3.77335 105.036 3.76001 104.996 3.72001C104.956 3.66668 104.923 3.60668 104.896 3.54001C104.883 3.52668 104.876 3.51335 104.876 3.50001C104.823 3.35335 104.783 3.23335 104.756 3.14001C104.729 3.03335 104.689 2.86668 104.636 2.64001C104.623 2.61335 104.629 2.58001 104.656 2.54001C104.683 2.50001 104.729 2.48668 104.796 2.50001C105.383 2.55335 106.056 2.58001 106.816 2.58001C107.576 2.56668 108.336 2.54001 109.096 2.50001C109.869 2.44668 110.549 2.38668 111.136 2.32001C111.296 2.30668 111.469 2.28001 111.656 2.24001C111.843 2.20001 111.936 2.18001 111.936 2.18001C112.003 2.15335 112.076 2.15335 112.156 2.18001L113.256 2.54001C113.363 2.59335 113.409 2.68001 113.396 2.80001L112.936 4.28001C112.749 4.86668 112.443 5.56668 112.016 6.38001C111.603 7.19335 111.069 8.05335 110.416 8.96001C109.763 9.85335 108.989 10.7333 108.096 11.6C107.203 12.4667 106.189 13.2533 105.056 13.96C104.949 14.0267 104.843 14.0667 104.736 14.08C104.629 14.0933 104.523 14.0533 104.416 13.96ZM116.336 17.2C116.283 17.2 116.256 17.1667 116.256 17.1V2.66001C116.256 2.15335 116.236 1.68668 116.196 1.26001C116.169 0.820012 116.123 0.533345 116.056 0.400012C116.029 0.333345 116.029 0.286679 116.056 0.260013C116.096 0.220012 116.143 0.200012 116.196 0.200012C116.276 0.200012 116.409 0.206679 116.596 0.220012C116.796 0.220012 116.989 0.226679 117.176 0.240012C117.363 0.240012 117.469 0.240012 117.496 0.240012C117.563 0.240012 117.596 0.293345 117.596 0.400012C117.556 0.893345 117.529 1.32668 117.516 1.70001C117.516 2.06001 117.516 2.48001 117.516 2.96001V16.7C117.516 16.9 117.503 17.02 117.476 17.06C117.463 17.1 117.423 17.1267 117.356 17.14L116.336 17.2Z" fill="black"/>
<path d="M121.688 10.98C121.542 10.9933 121.442 10.98 121.388 10.94C121.335 10.9 121.295 10.84 121.268 10.76C121.215 10.6133 121.168 10.4667 121.128 10.32C121.088 10.1733 121.042 9.98668 120.988 9.76001C120.975 9.73335 120.982 9.70001 121.008 9.66001C121.035 9.60668 121.082 9.58668 121.148 9.60001C121.655 9.66668 122.348 9.72001 123.228 9.76001C124.108 9.78668 125.075 9.79335 126.128 9.78001C126.942 9.78001 127.808 9.77335 128.728 9.76001C129.648 9.73335 130.562 9.70668 131.468 9.68001C132.388 9.64001 133.255 9.60001 134.068 9.56001C134.895 9.52001 135.622 9.47335 136.248 9.42001C136.888 9.36668 137.382 9.30668 137.728 9.24001C137.862 9.21335 137.948 9.22001 137.988 9.26001C138.028 9.30001 138.055 9.35335 138.068 9.42001L138.188 10.3C138.202 10.4867 138.075 10.5733 137.808 10.56C137.395 10.5333 136.835 10.52 136.128 10.52C135.435 10.52 134.682 10.5267 133.868 10.54C133.148 10.54 132.408 10.5533 131.648 10.58C130.902 10.5933 130.195 10.6067 129.528 10.62C128.875 10.6333 128.308 10.6467 127.828 10.66C126.482 10.7 125.268 10.7467 124.188 10.8C123.108 10.8533 122.275 10.9133 121.688 10.98ZM125.868 6.70001C125.402 6.71335 125.075 6.58668 124.888 6.32001C124.702 6.05335 124.608 5.60001 124.608 4.96001V2.72001C124.608 2.36001 124.582 2.00001 124.528 1.64001C124.488 1.28001 124.448 1.03335 124.408 0.900012C124.368 0.766678 124.415 0.700012 124.548 0.700012C124.615 0.700012 124.748 0.713345 124.948 0.740012C125.148 0.753346 125.342 0.766679 125.528 0.780012C125.715 0.793345 125.822 0.806679 125.848 0.820013C125.902 0.833346 125.928 0.886679 125.928 0.980012C125.888 1.67335 125.868 2.38668 125.868 3.12001V4.52001C125.868 5.01335 125.902 5.32668 125.968 5.46001C126.035 5.59335 126.175 5.66668 126.388 5.68001C126.722 5.69335 127.122 5.70001 127.588 5.70001C128.055 5.70001 128.528 5.69335 129.008 5.68001C129.502 5.66668 129.962 5.65335 130.388 5.64001C130.815 5.62668 131.162 5.61335 131.428 5.60001C132.215 5.56001 132.902 5.50668 133.488 5.44001C134.075 5.37335 134.535 5.30668 134.868 5.24001C135.002 5.21335 135.088 5.22001 135.128 5.26001C135.168 5.28668 135.195 5.33335 135.208 5.40001L135.288 6.32001C135.302 6.40001 135.282 6.45335 135.228 6.48001C135.175 6.50668 135.055 6.52001 134.868 6.52001C133.442 6.52001 131.968 6.54668 130.448 6.60001C128.928 6.64001 127.402 6.67335 125.868 6.70001ZM126.668 18C126.202 18 125.848 17.82 125.608 17.46C125.368 17.1 125.248 16.6467 125.248 16.1V14.82C125.248 14.3533 125.222 13.9667 125.168 13.66C125.128 13.3533 125.088 13.1333 125.048 13C125.008 12.8667 125.055 12.8 125.188 12.8C125.255 12.8 125.382 12.8067 125.568 12.82C125.768 12.82 125.955 12.8267 126.128 12.84C126.315 12.8533 126.422 12.86 126.448 12.86C126.515 12.8733 126.548 12.94 126.548 13.06C126.535 13.3667 126.522 13.64 126.508 13.88C126.508 14.1067 126.508 14.3933 126.508 14.74V16.04C126.508 16.3867 126.548 16.6267 126.628 16.76C126.722 16.88 126.895 16.9467 127.148 16.96C127.522 16.9733 127.995 16.9867 128.568 17C129.142 17 129.735 16.9933 130.348 16.98C130.975 16.9667 131.555 16.9467 132.088 16.92C132.648 16.8933 133.215 16.8533 133.788 16.8C134.375 16.7333 134.835 16.6667 135.168 16.6C135.302 16.5733 135.388 16.58 135.428 16.62C135.468 16.66 135.495 16.7133 135.508 16.78L135.668 17.68C135.682 17.8267 135.582 17.9 135.368 17.9C134.048 17.9 132.655 17.9133 131.188 17.94C129.735 17.98 128.228 18 126.668 18Z" fill="black"/>
</svg>
