<svg width="163" height="18" viewBox="0 0 163 18" fill="none" xmlns="http://www.w3.org/2000/svg">
<path d="M2.54 7.20182C2.74 7.21515 2.92 7.22182 3.08 7.22182C3.25333 7.22182 3.40667 7.22182 3.54 7.22182C3.68667 7.22182 3.82667 7.21515 3.96 7.20182H4.98C5.03333 7.20182 5.09333 7.20848 5.16 7.22182C5.22667 7.22182 5.29333 7.21515 5.36 7.20182H5.84C5.98667 7.20182 6.12667 7.21515 6.26 7.24182C6.40667 7.26848 6.54 7.31515 6.66 7.38182C6.84667 7.50182 6.96667 7.67515 7.02 7.90182C7.07333 8.12848 7.08667 8.34848 7.06 8.56182C7.06 8.65515 7.05333 8.75515 7.04 8.86182C7.04 8.96849 7.00667 9.06182 6.94 9.14182C6.79333 9.34182 6.64 9.46849 6.48 9.52182C6.33333 9.56182 6.17333 9.58182 6 9.58182H4.38C4.27333 9.58182 4.13333 9.58848 3.96 9.60182C3.78667 9.60182 3.60667 9.60182 3.42 9.60182C3.24667 9.60182 3.08 9.60182 2.92 9.60182C2.76 9.58848 2.64 9.58182 2.56 9.58182C2.56 9.83515 2.56 10.1018 2.56 10.3818C2.56 10.6485 2.56 10.8952 2.56 11.1218C2.56 11.3352 2.55333 11.5152 2.54 11.6618C2.54 11.8085 2.54 11.8818 2.54 11.8818V12.3818C2.54 12.5685 2.55333 12.7285 2.58 12.8618C2.60667 12.9952 2.63333 13.0685 2.66 13.0818C2.74 13.1352 2.84667 13.1752 2.98 13.2018C3.11333 13.2285 3.3 13.2418 3.54 13.2418C3.63333 13.2418 3.79333 13.2418 4.02 13.2418C4.24667 13.2418 4.47333 13.2418 4.7 13.2418C4.92667 13.2418 5.12667 13.2418 5.3 13.2418C5.48667 13.2285 5.59333 13.2218 5.62 13.2218H5.92C6.12 13.2218 6.32 13.2285 6.52 13.2418C6.72 13.2552 6.92 13.2952 7.12 13.3618C7.17333 13.3752 7.24 13.4085 7.32 13.4618C7.48 13.5818 7.59333 13.7418 7.66 13.9418C7.74 14.1285 7.77333 14.3218 7.76 14.5218C7.74667 14.7218 7.69333 14.9152 7.6 15.1018C7.50667 15.2752 7.37333 15.4085 7.2 15.5018C6.93333 15.6618 6.64667 15.7685 6.34 15.8218C6.03333 15.8752 5.74667 15.9018 5.48 15.9018H4.9C4.72667 15.9018 4.57333 15.9018 4.44 15.9018C4.32 15.9018 4.19333 15.9018 4.06 15.9018C3.94 15.9018 3.81333 15.9018 3.68 15.9018C3.56 15.9018 3.41333 15.9018 3.24 15.9018H2.92C2.72 15.9018 2.5 15.8952 2.26 15.8818C2.02 15.8685 1.78667 15.8352 1.56 15.7818C1.33333 15.7285 1.12 15.6552 0.92 15.5618C0.733333 15.4552 0.573333 15.3218 0.44 15.1618C0.32 15.0152 0.226667 14.8152 0.16 14.5618C0.0933333 14.3085 0.0466666 14.0618 0.02 13.8218C0.00666666 13.5685 0 13.3485 0 13.1618C0 12.9752 0 12.8752 0 12.8618V3.32182C0 3.30848 0 3.25515 0 3.16182C0 3.05515 0.00666666 2.94182 0.02 2.82182C0.0333333 2.68848 0.0466667 2.56182 0.06 2.44182C0.0866666 2.30848 0.12 2.20848 0.16 2.14182C0.266667 1.95515 0.373333 1.82182 0.48 1.74182C0.6 1.64848 0.753333 1.58848 0.94 1.56182C0.993333 1.54848 1.05333 1.54182 1.12 1.54182C1.2 1.54182 1.27333 1.53515 1.34 1.52182C1.42 1.52182 1.50667 1.51515 1.6 1.50182H5.58C5.64667 1.50182 5.71333 1.50848 5.78 1.52182C5.84667 1.52182 5.90667 1.51515 5.96 1.50182H6C6.12 1.50182 6.23333 1.50848 6.34 1.52182C6.46 1.53515 6.58 1.56182 6.7 1.60182C6.80667 1.62848 6.91333 1.66182 7.02 1.70182C7.14 1.72848 7.24 1.79515 7.32 1.90182C7.48 2.08848 7.57333 2.30182 7.6 2.54182C7.62667 2.64848 7.64 2.74848 7.64 2.84182C7.65333 2.92182 7.64667 3.01515 7.62 3.12182C7.59333 3.38848 7.49333 3.62848 7.32 3.84182C7.14667 4.04182 6.92 4.14182 6.64 4.14182H2.54V7.20182ZM14.58 14.5618C14.5933 14.9218 14.5733 15.2885 14.52 15.6618C14.4667 16.0352 14.2933 16.3218 14 16.5218C13.7733 16.6552 13.5733 16.7218 13.4 16.7218C13.1733 16.7218 12.9867 16.6418 12.84 16.4818C12.7067 16.3218 12.6 16.1285 12.52 15.9018C12.4533 15.6752 12.4067 15.4418 12.38 15.2018C12.3667 14.9485 12.36 14.7285 12.36 14.5418V9.58182H11.06V14.6618C11.0867 14.9685 11.0733 15.2885 11.02 15.6218C10.98 15.9418 10.8933 16.1952 10.76 16.3818C10.6 16.6085 10.3667 16.7218 10.06 16.7218C9.91333 16.7218 9.77333 16.6885 9.64 16.6218C9.52 16.5552 9.40667 16.4685 9.3 16.3618C9.07333 16.1352 8.94 15.8618 8.9 15.5418C8.86 15.2218 8.84 14.9085 8.84 14.6018V2.90182C8.84 2.71515 8.84667 2.51515 8.86 2.30182C8.87333 2.07515 8.91333 1.86182 8.98 1.66182C9.04667 1.46182 9.14 1.28848 9.26 1.14182C9.39333 0.981818 9.57333 0.875151 9.8 0.821817C10.1067 0.755151 10.3533 0.828484 10.54 1.04182C10.6867 1.18848 10.7933 1.39515 10.86 1.66182C10.94 1.92848 10.9933 2.22182 11.02 2.54182C11.0467 2.84848 11.06 3.17515 11.06 3.52182C11.06 3.85515 11.06 4.16848 11.06 4.46182V7.16182H12.36V3.08182C12.36 2.89515 12.36 2.68182 12.36 2.44182C12.36 2.18848 12.38 1.94848 12.42 1.72182C12.4733 1.48182 12.5667 1.28182 12.7 1.12182C12.8467 0.948485 13.06 0.848484 13.34 0.821817C13.6333 0.795151 13.8667 0.881818 14.04 1.08182C14.2 1.24182 14.32 1.45515 14.4 1.72182C14.48 1.98848 14.5333 2.27515 14.56 2.58182C14.5867 2.88848 14.6 3.19515 14.6 3.50182C14.6 3.79515 14.5933 4.04848 14.58 4.26182V14.5618Z" fill="white"/>
<path d="M20.5616 0.841818C20.7349 0.841818 20.9016 0.848485 21.0616 0.861818C21.2216 0.875151 21.3816 0.895151 21.5416 0.921818C22.0482 1.00182 22.4949 1.23515 22.8816 1.62182C23.2016 1.96848 23.4616 2.36848 23.6616 2.82182C23.8616 3.26182 24.0149 3.72848 24.1216 4.22182C24.2416 4.71515 24.3216 5.22182 24.3616 5.74182C24.4016 6.24848 24.4349 6.74182 24.4616 7.22182C24.4882 7.83515 24.4949 8.44849 24.4816 9.06182C24.4816 9.67515 24.4482 10.2818 24.3816 10.8818C24.3149 11.5085 24.2149 12.1418 24.0816 12.7818C23.9616 13.4085 23.7349 13.9752 23.4016 14.4818C23.1216 14.9085 22.7816 15.2618 22.3816 15.5418C21.9949 15.8085 21.5749 15.9885 21.1216 16.0818C20.7082 16.1618 20.2882 16.1752 19.8616 16.1218C19.4349 16.0685 19.0282 15.9285 18.6416 15.7018C18.2816 15.4885 17.9882 15.2218 17.7616 14.9018C17.5482 14.5818 17.3482 14.2085 17.1616 13.7818C16.8949 13.1418 16.7416 12.4818 16.7016 11.8018C16.6482 11.2418 16.6082 10.6818 16.5816 10.1218C16.5682 9.56182 16.5616 9.00182 16.5616 8.44182C16.5616 7.69515 16.6016 6.94849 16.6816 6.20182C16.7082 5.89515 16.7349 5.59515 16.7616 5.30182C16.7882 4.99515 16.8282 4.69515 16.8816 4.40182C16.9349 4.16182 16.9816 3.93515 17.0216 3.72182C17.0616 3.50848 17.1349 3.28848 17.2416 3.06182C17.3482 2.83515 17.4616 2.62182 17.5816 2.42182C17.7149 2.22182 17.8682 2.04182 18.0416 1.88182C18.6016 1.32182 19.2749 0.988485 20.0616 0.881818C20.1416 0.868485 20.2216 0.861818 20.3016 0.861818C20.3949 0.861818 20.4816 0.855151 20.5616 0.841818ZM30.5616 6.98182C30.6282 6.98182 30.6882 6.98848 30.7416 7.00182C30.8082 7.01515 30.8749 7.02182 30.9416 7.02182C31.0082 7.03515 31.0816 7.04848 31.1616 7.06182C31.2416 7.06182 31.3216 7.06849 31.4016 7.08182C31.5482 7.10848 31.6949 7.16182 31.8416 7.24182C31.9882 7.30848 32.0949 7.41515 32.1616 7.56182C32.2549 7.70848 32.3016 7.88182 32.3016 8.08182C32.3016 8.18848 32.2949 8.28849 32.2816 8.38182C32.2816 8.46182 32.2682 8.55515 32.2416 8.66182C32.2149 8.76848 32.1816 8.88182 32.1416 9.00182C32.1149 9.12182 32.0549 9.21515 31.9616 9.28182C31.7749 9.41515 31.5949 9.50182 31.4216 9.54182C31.2082 9.56849 30.9482 9.57515 30.6416 9.56182C30.3349 9.54848 30.0749 9.54848 29.8616 9.56182C29.8482 9.56182 29.8349 9.56849 29.8216 9.58182H29.8016L29.7816 9.60182V9.66182C29.7816 9.82182 29.7816 10.0152 29.7816 10.2418C29.7816 10.4685 29.7816 10.7018 29.7816 10.9418C29.7816 11.1685 29.7816 11.3952 29.7816 11.6218C29.7816 11.8352 29.7816 12.0285 29.7816 12.2018C29.8082 12.8952 29.8082 13.5752 29.7816 14.2418V14.5218C29.7816 14.6952 29.7749 14.8885 29.7616 15.1018C29.7616 15.3018 29.7482 15.5018 29.7216 15.7018C29.6949 15.9018 29.6482 16.0952 29.5816 16.2818C29.5149 16.4552 29.4216 16.6018 29.3016 16.7218C29.1416 16.9085 28.9282 17.0018 28.6616 17.0018C28.6616 17.0018 28.6482 16.9952 28.6216 16.9818C28.3016 16.9685 28.0416 16.8752 27.8416 16.7018C27.6549 16.5285 27.5082 16.3152 27.4016 16.0618C27.3082 15.8085 27.2482 15.5485 27.2216 15.2818C27.1949 15.0018 27.1816 14.7552 27.1816 14.5418V2.66182C27.1816 2.64848 27.1816 2.58848 27.1816 2.48182C27.1816 2.36182 27.1949 2.22848 27.2216 2.08182C27.2482 1.92182 27.2882 1.76182 27.3416 1.60182C27.4082 1.42848 27.4949 1.28848 27.6016 1.18182C27.6949 1.08848 27.8282 1.02182 28.0016 0.981818C28.1882 0.928484 28.3549 0.901818 28.5016 0.901818C28.7949 0.901818 29.0416 1.00182 29.2416 1.20182C29.4282 1.38848 29.5349 1.58848 29.5616 1.80182C29.6016 2.00182 29.6349 2.21515 29.6616 2.44182C29.6749 2.49515 29.6816 2.57515 29.6816 2.68182C29.7082 2.90848 29.7216 3.14182 29.7216 3.38182C29.7349 3.62182 29.7482 3.86182 29.7616 4.10182C29.7616 4.24848 29.7616 4.39515 29.7616 4.54182C29.7749 4.67515 29.7816 4.81515 29.7816 4.96182C29.7682 5.04182 29.7616 5.12182 29.7616 5.20182C29.7749 5.26848 29.7816 5.33515 29.7816 5.40182V6.50182C29.7816 6.56848 29.7816 6.64182 29.7816 6.72182C29.7816 6.80182 29.7949 6.87515 29.8216 6.94182C29.8216 6.95515 29.8882 6.96182 30.0216 6.96182C30.1549 6.96182 30.2282 6.96182 30.2416 6.96182C30.3616 6.98848 30.4549 6.99515 30.5216 6.98182H30.5616ZM20.5016 13.4218C20.7549 13.4218 21.0016 13.3418 21.2416 13.1818C21.4682 13.0218 21.6282 12.8085 21.7216 12.5418C21.8149 12.2752 21.8949 11.9818 21.9616 11.6618C22.0682 11.0485 22.1282 10.3952 22.1416 9.70182C22.1549 9.00849 22.1482 8.34182 22.1216 7.70182C22.1216 7.44848 22.1149 7.18182 22.1016 6.90182C22.0882 6.60848 22.0616 6.32182 22.0216 6.04182C21.9949 5.76182 21.9482 5.49515 21.8816 5.24182C21.8149 4.97515 21.7216 4.74182 21.6016 4.54182C21.4682 4.31515 21.3082 4.14182 21.1216 4.02182C20.9349 3.90182 20.7349 3.85515 20.5216 3.88182C20.2949 3.90848 20.0816 3.98848 19.8816 4.12182C19.6949 4.25515 19.5416 4.45515 19.4216 4.72182L19.2416 5.14182C19.1616 5.39515 19.1016 5.66182 19.0616 5.94182C19.0216 6.20849 18.9882 6.47515 18.9616 6.74182C18.9349 7.00848 18.9149 7.28182 18.9016 7.56182C18.8882 7.84182 18.8816 8.11515 18.8816 8.38182C18.8949 8.64849 18.8882 8.90848 18.8616 9.16182C18.8482 9.41515 18.8549 9.67515 18.8816 9.94182C18.9082 10.2885 18.9416 10.6618 18.9816 11.0618C19.0349 11.4618 19.1149 11.8418 19.2216 12.2018C19.3416 12.5485 19.5016 12.8418 19.7016 13.0818C19.9016 13.3085 20.1682 13.4218 20.5016 13.4218Z" fill="white"/>
<path d="M49.8384 7.04182C50.0918 7.17515 50.3384 7.33515 50.5784 7.52182C50.8184 7.69515 51.0451 7.88182 51.2584 8.08182C51.3651 8.18848 51.4384 8.32182 51.4784 8.48182C51.5184 8.64182 51.5184 8.80182 51.4784 8.96182C51.4518 9.12182 51.3851 9.26849 51.2784 9.40182C51.1851 9.52182 51.0584 9.60182 50.8984 9.64182C50.4718 9.74848 50.0251 9.74182 49.5584 9.62182C49.1051 9.50182 48.6851 9.34849 48.2984 9.16182C47.9384 8.97515 47.6051 8.80182 47.2984 8.64182C46.9918 8.46848 46.6851 8.28848 46.3784 8.10182C46.2851 8.03515 46.1584 7.96182 45.9984 7.88182C45.8518 7.78848 45.7051 7.69515 45.5584 7.60182C45.3851 7.49515 45.1984 7.38848 44.9984 7.28182C44.7718 7.40182 44.5518 7.51515 44.3384 7.62182C44.1518 7.71515 43.9651 7.80848 43.7784 7.90182C43.6051 7.98182 43.4651 8.05515 43.3584 8.12182C43.0118 8.32182 42.6918 8.49515 42.3984 8.64182C42.1051 8.78848 41.7851 8.95515 41.4384 9.14182C41.1718 9.27515 40.8984 9.42182 40.6184 9.58182C40.3518 9.72849 40.0651 9.78849 39.7584 9.76182C39.5184 9.73515 39.2851 9.66182 39.0584 9.54182C38.8318 9.42182 38.6918 9.21515 38.6384 8.92182C38.6118 8.76182 38.6251 8.58848 38.6784 8.40182C38.7318 8.17515 38.8184 7.98849 38.9384 7.84182C39.0718 7.69515 39.2318 7.56182 39.4184 7.44182L40.7984 6.66182C41.0251 6.52848 41.2251 6.42182 41.3984 6.34182C41.5718 6.24849 41.7784 6.13515 42.0184 6.00182C42.2451 5.86848 42.5051 5.72182 42.7984 5.56182C43.1051 5.38848 43.3918 5.24848 43.6584 5.14182V3.52182H41.5384C41.3251 3.52182 41.1384 3.52848 40.9784 3.54182C40.8318 3.54182 40.6584 3.52848 40.4584 3.50182C40.3118 3.47515 40.1518 3.46182 39.9784 3.46182C39.8051 3.46182 39.6451 3.42182 39.4984 3.34182C39.3518 3.26182 39.2318 3.12182 39.1384 2.92182C39.0584 2.77515 39.0118 2.60182 38.9984 2.40182C38.9851 2.20182 39.0118 2.02182 39.0784 1.86182C39.1851 1.62182 39.3584 1.44182 39.5984 1.32182C39.8384 1.20182 40.0851 1.14182 40.3384 1.14182H40.7984C41.0118 1.15515 41.1651 1.16182 41.2584 1.16182C41.3651 1.14848 41.5251 1.14182 41.7384 1.14182H48.6584C48.8718 1.14182 49.1184 1.13515 49.3984 1.12182C49.6784 1.10848 49.9451 1.12848 50.1984 1.18182C50.4651 1.23515 50.6984 1.33515 50.8984 1.48182C51.1118 1.62848 51.2518 1.86182 51.3184 2.18182C51.3984 2.55515 51.3384 2.84182 51.1384 3.04182C50.9518 3.22848 50.7051 3.36849 50.3984 3.46182C50.1051 3.54182 49.7918 3.58848 49.4584 3.60182C49.1251 3.60182 48.8518 3.59515 48.6384 3.58182C48.4251 3.56848 48.1984 3.56182 47.9584 3.56182C47.7318 3.54848 47.5118 3.54182 47.2984 3.54182C47.0584 3.54182 46.8184 3.54848 46.5784 3.56182V5.18182C46.7651 5.28848 46.9384 5.38182 47.0984 5.46182C47.1784 5.50182 47.2518 5.54848 47.3184 5.60182C47.3984 5.64182 47.4784 5.68848 47.5584 5.74182C47.6918 5.80849 47.8184 5.87515 47.9384 5.94182C48.0718 6.00848 48.2051 6.08182 48.3384 6.16182C48.5918 6.30848 48.8384 6.45515 49.0784 6.60182C49.3318 6.74848 49.5851 6.89515 49.8384 7.04182ZM39.5384 13.3418C39.2318 13.3285 38.9384 13.2885 38.6584 13.2218C38.3918 13.1418 38.1718 12.9685 37.9984 12.7018C37.8518 12.4752 37.7784 12.2352 37.7784 11.9818C37.7918 11.7152 37.8918 11.4885 38.0784 11.3018C38.1851 11.1952 38.3184 11.1152 38.4784 11.0618C38.6384 11.0085 38.7918 10.9685 38.9384 10.9418C39.0851 10.9152 39.2118 10.9018 39.3184 10.9018C39.4384 10.9018 39.5051 10.9018 39.5184 10.9018H50.4184C50.6318 10.8885 50.8584 10.8885 51.0984 10.9018C51.3518 10.9152 51.5851 10.9618 51.7984 11.0418C52.0118 11.1085 52.1918 11.2285 52.3384 11.4018C52.4851 11.5618 52.5584 11.7885 52.5584 12.0818C52.5584 12.4152 52.4451 12.6685 52.2184 12.8418C51.9918 13.0018 51.7184 13.1218 51.3984 13.2018C51.0918 13.2685 50.7718 13.3085 50.4384 13.3218C50.1051 13.3218 49.8318 13.3218 49.6184 13.3218H48.8384C48.5718 13.3352 48.3118 13.3418 48.0584 13.3418C47.8051 13.3285 47.5451 13.3218 47.2784 13.3218H46.5184C46.5318 13.6952 46.5451 14.0885 46.5584 14.5018C46.5718 14.9152 46.5518 15.2818 46.4984 15.6018C46.4718 15.8552 46.4051 16.0952 46.2984 16.3218C46.2051 16.5618 46.0451 16.7552 45.8184 16.9018C45.6184 17.0352 45.3851 17.1018 45.1184 17.1018C44.8518 17.1152 44.6118 17.0618 44.3984 16.9418C44.2251 16.8352 44.0918 16.6818 43.9984 16.4818C43.9184 16.2818 43.8651 16.0885 43.8384 15.9018C43.8118 15.7552 43.7984 15.5952 43.7984 15.4218C43.8118 15.2485 43.8184 15.0885 43.8184 14.9418C43.8051 14.7018 43.7984 14.4418 43.7984 14.1618C43.7984 13.8685 43.7984 13.5818 43.7984 13.3018H43.2984C42.9251 13.3018 42.5851 13.3085 42.2784 13.3218C41.9851 13.3218 41.6984 13.3285 41.4184 13.3418C41.1384 13.3418 40.8451 13.3418 40.5384 13.3418C40.2451 13.3418 39.9118 13.3418 39.5384 13.3418Z" fill="white"/>
<path d="M56.8044 10.2018C56.8844 10.1218 56.9577 10.0285 57.0244 9.92182C57.1044 9.80182 57.1644 9.72182 57.2044 9.68182V5.16182C57.1377 5.18848 57.0777 5.19515 57.0244 5.18182C56.971 5.16848 56.911 5.16182 56.8444 5.16182H56.3044C55.8377 5.16182 55.431 5.15515 55.0844 5.14182C54.751 5.12848 54.5377 5.10848 54.4444 5.08182C54.2044 5.02849 53.9977 4.94182 53.8244 4.82182C53.6644 4.68849 53.5444 4.50182 53.4644 4.26182C53.4377 4.16848 53.4177 4.08182 53.4044 4.00182C53.391 3.92182 53.3977 3.82849 53.4244 3.72182C53.4244 3.58849 53.491 3.42182 53.6244 3.22182C53.6644 3.15515 53.7244 3.09515 53.8044 3.04182C53.8844 2.98848 53.9644 2.94182 54.0444 2.90182C54.1244 2.83515 54.2044 2.79515 54.2844 2.78182C54.3644 2.75515 54.4444 2.72848 54.5244 2.70182H57.1644C57.1644 2.55515 57.171 2.35515 57.1844 2.10182C57.1977 1.83515 57.2044 1.64182 57.2044 1.52182C57.231 1.34848 57.271 1.19515 57.3244 1.06182C57.3777 0.915151 57.4377 0.781818 57.5044 0.661818C57.6644 0.408485 57.8977 0.241818 58.2044 0.161817C58.351 0.0951509 58.4977 0.0684842 58.6444 0.0818173C58.8044 0.0951513 58.9577 0.135152 59.1044 0.201818C59.211 0.241818 59.3044 0.301818 59.3844 0.381818C59.4777 0.448485 59.5444 0.528485 59.5844 0.621818C59.7444 0.808484 59.8444 0.995151 59.8844 1.18182C59.911 1.28848 59.931 1.40182 59.9444 1.52182C59.9577 1.64182 59.9644 1.76182 59.9644 1.88182V2.70182H61.1844C61.451 2.70182 61.7177 2.70848 61.9844 2.72182C62.2644 2.73515 62.4977 2.75515 62.6844 2.78182C62.871 2.82182 63.0377 2.89515 63.1844 3.00182C63.3444 3.09515 63.4777 3.22848 63.5844 3.40182C63.691 3.57515 63.7444 3.76182 63.7444 3.96182C63.7844 4.10848 63.7577 4.27515 63.6644 4.46182C63.5044 4.76848 63.191 4.97515 62.7244 5.08182C62.5777 5.10848 62.411 5.12182 62.2244 5.12182C62.051 5.12182 61.8644 5.13515 61.6644 5.16182C61.451 5.16182 61.1977 5.16848 60.9044 5.18182C60.611 5.19515 60.2977 5.18848 59.9644 5.16182C59.9644 5.26848 59.9577 5.39515 59.9444 5.54182C59.9444 5.68848 59.9444 5.83515 59.9444 5.98182C59.9444 6.12848 59.9444 6.26849 59.9444 6.40182C59.9444 6.52182 59.951 6.62182 59.9644 6.70182V8.90182C59.9644 8.96848 59.9577 9.03515 59.9444 9.10182C59.931 9.15515 59.9377 9.22182 59.9644 9.30182V9.62182C60.031 9.67515 60.091 9.74848 60.1444 9.84182C60.211 9.92182 60.2977 10.0152 60.4044 10.1218C60.4977 10.2018 60.571 10.2818 60.6244 10.3618C60.691 10.4418 60.7577 10.5152 60.8244 10.5818C60.891 10.6618 60.951 10.7418 61.0044 10.8218C61.071 10.9018 61.1444 10.9818 61.2244 11.0618C61.291 11.1285 61.3577 11.2085 61.4244 11.3018C61.491 11.3952 61.5644 11.4818 61.6444 11.5618C61.6844 11.6285 61.7244 11.6885 61.7644 11.7418C61.8044 11.7952 61.8444 11.8418 61.8844 11.8818C61.9644 12.0018 62.031 12.1152 62.0844 12.2218C62.2177 12.3818 62.3444 12.5485 62.4644 12.7218C62.5844 12.8818 62.7044 13.0685 62.8244 13.2818C62.971 13.4685 63.0844 13.6618 63.1644 13.8618C63.2577 14.0485 63.3244 14.2352 63.3644 14.4218C63.4044 14.6085 63.4044 14.8018 63.3644 15.0018C63.3244 15.2018 63.231 15.3818 63.0844 15.5418C62.8977 15.7018 62.651 15.7818 62.3444 15.7818C62.1977 15.7818 62.0577 15.7685 61.9244 15.7418C61.8044 15.7018 61.671 15.6485 61.5244 15.5818C61.391 15.5018 61.271 15.4218 61.1644 15.3418C61.071 15.2485 60.971 15.1618 60.8644 15.0818C60.7444 14.9618 60.631 14.8352 60.5244 14.7018C60.4177 14.5552 60.311 14.4218 60.2044 14.3018C60.0977 14.1818 59.991 14.0552 59.8844 13.9218C59.791 13.7752 59.691 13.6285 59.5844 13.4818C59.4377 13.3352 59.2777 13.1418 59.1044 12.9018C59.0244 12.7818 58.931 12.6818 58.8244 12.6018C58.731 12.5085 58.6444 12.4218 58.5644 12.3418C58.4844 12.4485 58.4044 12.5552 58.3244 12.6618C58.2444 12.7552 58.1644 12.8552 58.0844 12.9618C57.991 13.0685 57.9044 13.1685 57.8244 13.2618C57.7444 13.3552 57.6644 13.4552 57.5844 13.5618C57.5044 13.6952 57.411 13.8285 57.3044 13.9618C57.211 14.0952 57.111 14.2218 57.0044 14.3418C56.9244 14.4752 56.831 14.6085 56.7244 14.7418C56.631 14.8752 56.5177 15.0018 56.3844 15.1218C56.1177 15.3885 55.8644 15.5752 55.6244 15.6818C55.3977 15.7752 55.1644 15.8218 54.9244 15.8218C54.8577 15.8218 54.791 15.8218 54.7244 15.8218C54.671 15.8218 54.611 15.8085 54.5444 15.7818C54.2644 15.7018 54.0577 15.5218 53.9244 15.2418C53.831 15.0285 53.8044 14.8152 53.8444 14.6018C53.871 14.4685 53.8977 14.3485 53.9244 14.2418C53.951 14.1218 53.9977 14.0218 54.0644 13.9418C54.1044 13.8352 54.151 13.7352 54.2044 13.6418C54.2577 13.5352 54.3177 13.4285 54.3844 13.3218C54.451 13.2418 54.511 13.1552 54.5644 13.0618C54.631 12.9685 54.711 12.8752 54.8044 12.7818C54.8444 12.7418 54.8844 12.6952 54.9244 12.6418C54.9644 12.5885 55.0044 12.5418 55.0444 12.5018L55.2844 12.1418C55.3244 12.0485 55.371 11.9752 55.4244 11.9218C55.4777 11.8552 55.5577 11.7485 55.6644 11.6018C55.771 11.4818 55.871 11.3618 55.9644 11.2418C56.0577 11.1218 56.1444 11.0085 56.2244 10.9018C56.331 10.7818 56.431 10.6618 56.5244 10.5418C56.631 10.4218 56.7244 10.3085 56.8044 10.2018ZM68.0244 7.00182C68.091 7.00182 68.151 7.00848 68.2044 7.02182C68.271 7.03515 68.3377 7.04182 68.4044 7.04182C68.471 7.05515 68.5444 7.06849 68.6244 7.08182C68.7044 7.08182 68.7844 7.08848 68.8644 7.10182C69.011 7.12848 69.1577 7.18182 69.3044 7.26182C69.451 7.32848 69.5577 7.43515 69.6244 7.58182C69.7177 7.72848 69.7644 7.90182 69.7644 8.10182C69.7644 8.20848 69.7577 8.30848 69.7444 8.40182C69.7444 8.48182 69.731 8.57515 69.7044 8.68182C69.6777 8.78848 69.6444 8.90182 69.6044 9.02182C69.5777 9.14182 69.5177 9.23515 69.4244 9.30182C69.2377 9.43515 69.0577 9.52182 68.8844 9.56182C68.671 9.58848 68.411 9.59515 68.1044 9.58182C67.7977 9.56849 67.5377 9.56849 67.3244 9.58182C67.311 9.58182 67.2977 9.58848 67.2844 9.60182H67.2644L67.2444 9.62182V9.68182C67.2444 9.84182 67.2444 10.0352 67.2444 10.2618C67.2444 10.4752 67.2444 10.7018 67.2444 10.9418C67.2444 11.1685 67.2444 11.3952 67.2444 11.6218C67.2444 11.8352 67.2444 12.0285 67.2444 12.2018C67.271 12.8952 67.271 13.5752 67.2444 14.2418V14.5218C67.2444 14.6952 67.2377 14.8885 67.2244 15.1018C67.2244 15.3018 67.211 15.5018 67.1844 15.7018C67.1577 15.9018 67.111 16.0952 67.0444 16.2818C66.9777 16.4552 66.8844 16.6018 66.7644 16.7218C66.6044 16.9085 66.391 17.0018 66.1244 17.0018C66.1244 17.0018 66.111 16.9952 66.0844 16.9818C65.7644 16.9685 65.5044 16.8752 65.3044 16.7018C65.1177 16.5285 64.971 16.3152 64.8644 16.0618C64.771 15.8085 64.711 15.5485 64.6844 15.2818C64.6577 15.0018 64.6444 14.7552 64.6444 14.5418V2.66182C64.6444 2.64848 64.6444 2.58848 64.6444 2.48182C64.6444 2.36182 64.6577 2.22848 64.6844 2.08182C64.711 1.92182 64.751 1.76182 64.8044 1.60182C64.871 1.42848 64.9577 1.28848 65.0644 1.18182C65.1577 1.08848 65.291 1.02182 65.4644 0.981818C65.651 0.928484 65.8177 0.901818 65.9644 0.901818C66.2577 0.901818 66.5044 1.00182 66.7044 1.20182C66.891 1.38848 66.9977 1.58848 67.0244 1.80182C67.0644 2.00182 67.0977 2.21515 67.1244 2.44182C67.1377 2.49515 67.1444 2.57515 67.1444 2.68182C67.171 2.90848 67.1844 3.14182 67.1844 3.38182C67.1977 3.62182 67.211 3.86182 67.2244 4.10182C67.2244 4.24848 67.2244 4.39515 67.2244 4.54182C67.2377 4.67515 67.2444 4.81515 67.2444 4.96182C67.231 5.04182 67.2244 5.12182 67.2244 5.20182C67.2377 5.26848 67.2444 5.33515 67.2444 5.40182V6.52182C67.2444 6.58848 67.2444 6.66182 67.2444 6.74182C67.2444 6.82182 67.2577 6.89515 67.2844 6.96182C67.2844 6.97515 67.351 6.98182 67.4844 6.98182C67.6177 6.98182 67.691 6.98182 67.7044 6.98182C67.8244 7.00848 67.9177 7.01515 67.9844 7.00182H68.0244Z" fill="white"/>
<path d="M84.1589 15.2818C84.3722 15.2952 84.5589 15.3485 84.7189 15.4418C84.8789 15.5218 84.9922 15.6685 85.0589 15.8818C85.2056 16.3752 85.0322 16.7085 84.5389 16.8818C84.3789 16.9485 84.2122 16.9885 84.0389 17.0018C83.8789 17.0152 83.7322 17.0218 83.5989 17.0218H74.2989C74.0322 17.0218 73.7522 17.0218 73.4589 17.0218C73.1656 17.0218 72.8722 17.0152 72.5789 17.0018C72.2189 16.9885 71.9656 16.8752 71.8189 16.6618C71.6856 16.4485 71.6056 16.1885 71.5789 15.8818L71.4989 14.5618C71.4856 14.4152 71.4856 14.2418 71.4989 14.0418C71.5256 13.8285 71.5989 13.6485 71.7189 13.5018C71.9056 13.3152 72.1189 13.1952 72.3589 13.1418C72.5989 13.0885 72.8656 13.0618 73.1589 13.0618H73.7789C73.8456 13.0618 73.8989 13.0685 73.9389 13.0818C73.9789 13.0818 74.0189 13.0818 74.0589 13.0818H82.7789V12.3818H73.8589C73.7922 12.3818 73.7189 12.3818 73.6389 12.3818C73.5722 12.3685 73.4989 12.3685 73.4189 12.3818H72.9389C72.8056 12.3818 72.6856 12.3818 72.5789 12.3818C72.4722 12.3818 72.3656 12.3685 72.2589 12.3418C72.1389 12.3152 72.0256 12.2885 71.9189 12.2618C71.8256 12.2352 71.7456 12.1685 71.6789 12.0618C71.5989 11.9152 71.5456 11.7752 71.5189 11.6418C71.4922 11.5085 71.5056 11.3618 71.5589 11.2018C71.5989 11.0952 71.6589 11.0152 71.7389 10.9618C71.8189 10.8952 71.9122 10.8418 72.0189 10.8018C72.1256 10.7618 72.2256 10.7352 72.3189 10.7218C72.4256 10.6952 72.5189 10.6752 72.5989 10.6618C72.7056 10.6485 72.8056 10.6418 72.8989 10.6418C73.0056 10.6285 73.1122 10.6218 73.2189 10.6218H73.5589C73.6256 10.6352 73.6856 10.6418 73.7389 10.6418C73.8056 10.6418 73.8722 10.6418 73.9389 10.6418H82.9789C83.6589 10.6418 84.1789 10.7485 84.5389 10.9618C84.8989 11.1618 85.0789 11.4952 85.0789 11.9618V13.3618C85.0789 13.5485 85.0322 13.7285 84.9389 13.9018C84.8589 14.0752 84.7122 14.2285 84.4989 14.3618C84.3256 14.4685 84.1522 14.5285 83.9789 14.5418C83.8056 14.5418 83.6322 14.5418 83.4589 14.5418H73.9589V15.2818H84.1589ZM79.4389 7.92182C79.4389 8.18848 79.3189 8.43515 79.0789 8.66182C78.8522 8.87515 78.6122 8.99515 78.3589 9.02182C78.0256 9.07515 77.7322 9.09515 77.4789 9.08182C77.2256 9.06849 76.9256 9.06182 76.5789 9.06182C75.8589 9.06182 75.1656 9.06182 74.4989 9.06182C73.8456 9.06182 73.1589 9.04848 72.4389 9.02182C72.0122 9.00848 71.6922 8.84848 71.4789 8.54182C71.2656 8.23515 71.1589 7.90848 71.1589 7.56182C71.1589 7.28182 71.1522 6.96182 71.1389 6.60182C71.1389 6.22848 71.1389 5.84848 71.1389 5.46182C71.1389 5.07515 71.1389 4.69515 71.1389 4.32182C71.1389 3.94848 71.1456 3.62182 71.1589 3.34182C71.1722 2.99515 71.1722 2.68848 71.1589 2.42182C71.1589 2.15515 71.2456 1.86848 71.4189 1.56182C71.5122 1.38848 71.6456 1.24848 71.8189 1.14182C71.9922 1.03515 72.1722 0.975151 72.3589 0.961818C72.5456 0.935152 72.7256 0.955152 72.8989 1.02182C73.0722 1.08848 73.2122 1.20848 73.3189 1.38182C73.4256 1.56848 73.4989 1.75515 73.5389 1.94182C73.5922 2.12849 73.6322 2.32182 73.6589 2.52182C73.6856 2.72182 73.6922 2.89515 73.6789 3.04182C73.6789 3.17515 73.6722 3.35515 73.6589 3.58182H77.1989V2.48182C77.1989 2.25515 77.2322 2.00182 77.2989 1.72182C77.3656 1.42848 77.5056 1.21515 77.7189 1.08182C77.8656 0.975151 78.0656 0.921818 78.3189 0.921818C78.5722 0.908484 78.7722 0.955151 78.9189 1.06182C79.0656 1.16848 79.1722 1.31515 79.2389 1.50182C79.3056 1.68848 79.3522 1.87515 79.3789 2.06182C79.4189 2.28849 79.4389 2.51515 79.4389 2.74182V7.92182ZM82.2789 8.36182C82.1856 8.36182 82.0656 8.35515 81.9189 8.34182C81.7856 8.32848 81.6456 8.30182 81.4989 8.26182C81.3656 8.22182 81.2389 8.16848 81.1189 8.10182C80.9989 8.03515 80.9056 7.94182 80.8389 7.82182C80.7989 7.76848 80.7656 7.69515 80.7389 7.60182C80.7256 7.50848 80.7122 7.41515 80.6989 7.32182C80.6989 7.21515 80.6989 7.11515 80.6989 7.02182C80.7122 6.92848 80.7256 6.85515 80.7389 6.80182C80.7656 6.65515 80.8389 6.52848 80.9589 6.42182C81.0789 6.30182 81.2189 6.20848 81.3789 6.14182C81.4322 6.12848 81.5322 6.11515 81.6789 6.10182C81.8389 6.08848 81.9989 6.08182 82.1589 6.08182H82.7589C82.7456 5.93515 82.7389 5.79515 82.7389 5.66182V5.04182H82.2789C82.1856 5.04182 82.0656 5.03515 81.9189 5.02182C81.7856 5.00848 81.6456 4.98182 81.4989 4.94182C81.3656 4.90182 81.2389 4.84848 81.1189 4.78182C80.9989 4.71515 80.9056 4.62182 80.8389 4.50182C80.7322 4.32848 80.6789 4.14848 80.6789 3.96182C80.6789 3.76182 80.7189 3.58182 80.7989 3.42182C80.8922 3.24849 81.0122 3.10848 81.1589 3.00182C81.3189 2.88182 81.5056 2.81515 81.7189 2.80182C81.7322 2.80182 81.7922 2.80182 81.8989 2.80182C82.0189 2.80182 82.1456 2.80182 82.2789 2.80182C82.4122 2.80182 82.5322 2.80182 82.6389 2.80182C82.7456 2.78848 82.7989 2.76848 82.7989 2.74182C82.8256 2.60848 82.8322 2.46182 82.8189 2.30182C82.8189 2.14182 82.8256 1.98182 82.8389 1.82182C82.8522 1.66182 82.8789 1.51515 82.9189 1.38182C82.9722 1.23515 83.0656 1.10848 83.1989 1.00182C83.3056 0.921818 83.4322 0.868485 83.5789 0.841818C83.7256 0.815151 83.8656 0.795151 83.9989 0.781818C84.3322 0.741818 84.6189 0.855151 84.8589 1.12182C84.9522 1.24182 85.0189 1.35515 85.0589 1.46182C85.1122 1.62182 85.1322 1.78848 85.1189 1.96182C85.1189 2.13515 85.1189 2.30848 85.1189 2.48182V8.20182C85.1189 8.20182 85.1189 8.26849 85.1189 8.40182C85.1189 8.53515 85.1056 8.68849 85.0789 8.86182C85.0522 9.02182 85.0056 9.18848 84.9389 9.36182C84.8856 9.52182 84.7922 9.64182 84.6589 9.72182C84.5656 9.77515 84.4522 9.81515 84.3189 9.84182C84.1856 9.86848 84.0656 9.88182 83.9589 9.88182C83.7322 9.88182 83.5122 9.80848 83.2989 9.66182C83.1389 9.55515 83.0256 9.42849 82.9589 9.28182C82.8789 9.13515 82.8256 8.98182 82.7989 8.82182C82.7722 8.66182 82.7522 8.50849 82.7389 8.36182H82.2789ZM77.1989 6.88182C77.1722 6.66848 77.1589 6.43515 77.1589 6.18182C77.1589 5.91515 77.1722 5.66182 77.1989 5.42182H73.6189C73.5922 5.64848 73.5856 5.82848 73.5989 5.96182C73.6256 6.08182 73.6389 6.25515 73.6389 6.48182C73.6522 6.62848 73.6656 6.72848 73.6789 6.78182C73.6922 6.83515 73.7722 6.86848 73.9189 6.88182C74.0656 6.89515 74.2122 6.90182 74.3589 6.90182C74.5056 6.88848 74.6522 6.88182 74.7989 6.88182H77.1989Z" fill="white"/>
<path d="M98.5358 9.50182C98.4424 9.51515 98.2291 9.52182 97.8958 9.52182C97.5758 9.52182 97.2291 9.52182 96.8558 9.52182C96.4824 9.50848 96.1291 9.50182 95.7958 9.50182C95.4625 9.50182 95.2424 9.50182 95.1358 9.50182H95.1158C94.8758 9.50182 94.6358 9.50182 94.3958 9.50182C94.1691 9.48849 93.9491 9.46848 93.7358 9.44182C93.5224 9.40182 93.3291 9.34182 93.1558 9.26182C92.9825 9.18182 92.8424 9.06182 92.7358 8.90182C92.6158 8.72848 92.5291 8.50848 92.4758 8.24182C92.4358 7.97515 92.4024 7.72182 92.3758 7.48182C92.3624 7.22848 92.3558 7.00849 92.3558 6.82182C92.3691 6.63515 92.3758 6.53515 92.3758 6.52182V6.08182C92.3758 5.93515 92.3758 5.76848 92.3758 5.58182C92.3758 5.39515 92.3824 5.18848 92.3958 4.96182C92.3958 4.72182 92.3958 4.48848 92.3958 4.26182C92.4091 4.02182 92.4158 3.80848 92.4158 3.62182V2.98182C92.4158 2.94182 92.4158 2.86848 92.4158 2.76182C92.4158 2.65515 92.4225 2.54182 92.4358 2.42182C92.4491 2.28849 92.4691 2.16182 92.4958 2.04182C92.5224 1.90848 92.5625 1.80182 92.6158 1.72182C92.7358 1.53515 92.8558 1.40182 92.9758 1.32182C93.1091 1.22848 93.2758 1.16182 93.4758 1.12182C93.5425 1.10848 93.6424 1.10182 93.7758 1.10182C93.9091 1.08848 94.0358 1.07515 94.1558 1.06182C94.3025 1.04848 94.4558 1.04182 94.6158 1.04182H99.1358C99.4291 1.04182 99.7358 1.06848 100.056 1.12182C100.389 1.16182 100.682 1.26182 100.936 1.42182C101.136 1.54182 101.276 1.69515 101.356 1.88182C101.436 2.06848 101.489 2.26848 101.516 2.48182C101.542 2.69515 101.549 2.91515 101.536 3.14182C101.522 3.35515 101.516 3.55515 101.516 3.74182C101.516 3.95515 101.509 4.16848 101.496 4.38182C101.496 4.58182 101.502 4.78848 101.516 5.00182V6.10182C101.502 6.16849 101.496 6.24182 101.496 6.32182C101.509 6.40182 101.516 6.48182 101.516 6.56182C101.489 6.73515 101.482 6.90849 101.496 7.08182C101.509 7.24182 101.516 7.41515 101.516 7.60182C101.516 7.74848 101.502 7.90848 101.476 8.08182C101.462 8.24182 101.422 8.40849 101.356 8.58182C101.302 8.74182 101.222 8.88848 101.116 9.02182C101.022 9.15515 100.896 9.24849 100.736 9.30182C100.389 9.44849 100.022 9.52182 99.6358 9.52182C99.2624 9.50848 98.8958 9.50182 98.5358 9.50182ZM105.636 14.7018C105.902 14.8218 106.142 14.9485 106.356 15.0818C106.569 15.2018 106.782 15.3552 106.996 15.5418C107.116 15.6485 107.196 15.7818 107.236 15.9418C107.276 16.0885 107.276 16.2352 107.236 16.3818C107.209 16.5285 107.142 16.6618 107.036 16.7818C106.942 16.9018 106.809 16.9818 106.636 17.0218C106.196 17.1152 105.749 17.1085 105.296 17.0018C104.842 16.8952 104.422 16.7485 104.036 16.5618C103.956 16.5218 103.822 16.4485 103.636 16.3418C103.449 16.2485 103.236 16.1352 102.996 16.0018C102.756 15.8685 102.502 15.7285 102.236 15.5818C101.982 15.4352 101.736 15.2952 101.496 15.1618C101.256 15.0285 101.036 14.9152 100.836 14.8218C100.649 14.7152 100.509 14.6418 100.416 14.6018C100.362 14.6285 100.196 14.7285 99.9158 14.9018C99.6358 15.0618 99.3291 15.2418 98.9958 15.4418C98.6624 15.6285 98.3558 15.8085 98.0758 15.9818C97.7958 16.1418 97.6358 16.2352 97.5958 16.2618C97.3691 16.3818 97.1358 16.4952 96.8958 16.6018C96.6691 16.7218 96.4358 16.8285 96.1958 16.9218C95.9558 17.0152 95.7025 17.0818 95.4358 17.1218C95.1691 17.1752 94.9091 17.1685 94.6558 17.1018C94.4825 17.0618 94.3158 16.9818 94.1558 16.8618C94.0091 16.7552 93.9224 16.6218 93.8958 16.4618C93.8691 16.3818 93.8624 16.3018 93.8758 16.2218C93.8891 16.1285 93.9091 16.0485 93.9358 15.9818C93.9891 15.7685 94.1024 15.5952 94.2758 15.4618C94.4624 15.3285 94.6558 15.2085 94.8558 15.1018C95.0824 14.9685 95.3158 14.8418 95.5558 14.7218C95.7958 14.6018 96.0358 14.4818 96.2758 14.3618C96.5291 14.2285 96.7758 14.1018 97.0158 13.9818C97.2558 13.8618 97.4958 13.7352 97.7358 13.6018C97.7491 13.5885 97.8224 13.5485 97.9558 13.4818C98.0891 13.4152 98.2291 13.3418 98.3758 13.2618C98.5358 13.1818 98.6824 13.1085 98.8158 13.0418C98.9491 12.9618 99.0158 12.9085 99.0158 12.8818H95.7958C95.5291 12.8552 95.2891 12.8085 95.0758 12.7418C94.8891 12.6752 94.7091 12.5885 94.5358 12.4818C94.3758 12.3752 94.2758 12.2285 94.2358 12.0418C94.2091 11.7752 94.2624 11.5085 94.3958 11.2418C94.5291 10.9752 94.7558 10.8285 95.0758 10.8018C95.1691 10.7885 95.2624 10.7818 95.3558 10.7818C95.4624 10.7818 95.5691 10.7818 95.6758 10.7818H104.616C104.856 10.7818 105.096 10.7885 105.336 10.8018C105.576 10.8018 105.796 10.8285 105.996 10.8818C106.196 10.9352 106.362 11.0285 106.496 11.1618C106.642 11.2952 106.736 11.4818 106.776 11.7218C106.749 12.0152 106.669 12.2418 106.536 12.4018C106.402 12.5618 106.242 12.6818 106.056 12.7618C105.869 12.8285 105.656 12.8685 105.416 12.8818C105.189 12.8952 104.969 12.8952 104.756 12.8818H102.096C102.122 12.8952 102.222 12.9552 102.396 13.0618C102.582 13.1552 102.796 13.2685 103.036 13.4018C103.289 13.5352 103.556 13.6752 103.836 13.8218C104.129 13.9685 104.396 14.1085 104.636 14.2418C104.889 14.3618 105.109 14.4685 105.296 14.5618C105.482 14.6552 105.596 14.7018 105.636 14.7018ZM106.536 2.64182C106.536 2.62848 106.536 2.70848 106.536 2.88182C106.536 3.05515 106.536 3.26182 106.536 3.50182C106.536 3.72848 106.536 3.95515 106.536 4.18182C106.536 4.40848 106.536 4.56849 106.536 4.66182C106.589 4.66182 106.689 4.66848 106.836 4.68182C106.982 4.68182 107.136 4.68848 107.296 4.70182C107.456 4.70182 107.609 4.70848 107.756 4.72182C107.902 4.73515 108.009 4.74848 108.076 4.76182C108.342 4.81515 108.529 4.89515 108.636 5.00182C108.742 5.09515 108.809 5.21515 108.836 5.36182C108.876 5.50848 108.896 5.68182 108.896 5.88182C108.896 6.06848 108.856 6.22848 108.776 6.36182C108.616 6.62849 108.376 6.78182 108.056 6.82182C107.736 6.84849 107.382 6.86848 106.996 6.88182H106.536V8.46182C106.522 8.60848 106.502 8.76182 106.476 8.92182C106.449 9.06848 106.396 9.21515 106.316 9.36182C106.236 9.52182 106.122 9.65515 105.976 9.76182C105.789 9.89515 105.569 9.96182 105.316 9.96182C105.089 9.96182 104.902 9.91515 104.756 9.82182C104.622 9.74182 104.516 9.64182 104.436 9.52182C104.356 9.40182 104.289 9.28848 104.236 9.18182C104.196 9.06182 104.169 8.96182 104.156 8.88182C104.142 8.78849 104.136 8.74182 104.136 8.74182V2.38182C104.122 2.32848 104.129 2.18182 104.156 1.94182C104.182 1.70182 104.236 1.50182 104.316 1.34182C104.449 1.06182 104.716 0.901818 105.116 0.861818C105.609 0.795151 105.976 0.895151 106.216 1.16182C106.296 1.26848 106.349 1.37515 106.376 1.48182C106.416 1.57515 106.449 1.67515 106.476 1.78182C106.516 1.91515 106.536 2.05515 106.536 2.20182C106.549 2.34848 106.549 2.49515 106.536 2.64182ZM95.9758 3.54182C95.8558 3.54182 95.7424 3.54182 95.6358 3.54182C95.5424 3.54182 95.4558 3.55515 95.3758 3.58182C95.1891 3.59515 95.0358 3.67515 94.9158 3.82182C94.8624 3.88848 94.8291 3.98848 94.8158 4.12182C94.8158 4.25515 94.8158 4.33515 94.8158 4.36182V5.20182C94.8024 5.30848 94.7958 5.40848 94.7958 5.50182C94.7958 5.58182 94.7958 5.65515 94.7958 5.72182V5.96182C94.7958 5.96182 94.7958 6.00182 94.7958 6.08182C94.7958 6.16182 94.7958 6.25515 94.7958 6.36182C94.8091 6.46848 94.8291 6.57515 94.8558 6.68182C94.8824 6.78848 94.9291 6.88182 94.9958 6.96182C95.1024 7.09515 95.2758 7.17515 95.5158 7.20182C95.7558 7.21515 95.9958 7.22182 96.2358 7.22182H96.2558C96.6024 7.20848 96.8891 7.20848 97.1158 7.22182C97.3425 7.22182 97.6358 7.22182 97.9958 7.22182C98.1024 7.22182 98.2091 7.22848 98.3158 7.24182C98.4358 7.24182 98.5491 7.22848 98.6558 7.20182C98.7625 7.18848 98.8358 7.15515 98.8758 7.10182C98.9158 7.04848 98.9491 6.98182 98.9758 6.90182C99.0025 6.79515 99.0158 6.70848 99.0158 6.64182C99.0691 6.38848 99.0958 6.10182 99.0958 5.78182C99.0958 5.56848 99.0958 5.35515 99.0958 5.14182C99.1091 4.92848 99.1091 4.71515 99.0958 4.50182C99.0824 4.39515 99.0758 4.28848 99.0758 4.18182C99.0891 4.07515 99.0824 3.96848 99.0558 3.86182C99.0024 3.71515 98.9158 3.63515 98.7958 3.62182C98.6758 3.59515 98.5558 3.58182 98.4358 3.58182L95.9758 3.54182Z" fill="white"/>
<path d="M110.843 16.6418C110.736 16.5752 110.649 16.4952 110.583 16.4018C110.529 16.3218 110.469 16.1952 110.403 16.0218C110.323 15.7418 110.296 15.4552 110.323 15.1618C110.349 14.8552 110.363 14.5618 110.363 14.2818V13.3418C110.363 13.1152 110.396 12.8152 110.463 12.4418C110.503 12.2418 110.583 12.0752 110.703 11.9418C110.823 11.7952 110.963 11.6818 111.123 11.6018C111.296 11.5218 111.476 11.4685 111.663 11.4418C111.863 11.4018 112.056 11.3818 112.243 11.3818H115.863V10.2418H113.143C112.889 10.2418 112.636 10.2418 112.383 10.2418C112.129 10.2285 111.883 10.2018 111.643 10.1618C111.496 10.1618 111.336 10.1685 111.163 10.1818C110.989 10.1818 110.809 10.1818 110.623 10.1818C110.449 10.1685 110.276 10.1485 110.103 10.1218C109.943 10.0818 109.803 10.0218 109.683 9.94182C109.549 9.87515 109.449 9.77515 109.383 9.64182C109.316 9.50848 109.276 9.36848 109.263 9.22182C109.249 9.07515 109.263 8.93515 109.303 8.80182C109.343 8.65515 109.409 8.53515 109.503 8.44182C109.663 8.29515 109.863 8.19515 110.103 8.14182C110.343 8.07515 110.576 8.04182 110.803 8.04182H123.603C123.696 8.04182 123.796 8.05515 123.903 8.08182C124.009 8.10848 124.103 8.13515 124.183 8.16182C124.423 8.21515 124.609 8.32848 124.743 8.50182C124.876 8.67515 124.949 8.86182 124.963 9.06182C124.989 9.26182 124.949 9.45515 124.843 9.64182C124.749 9.82848 124.589 9.96848 124.363 10.0618C124.043 10.1685 123.736 10.2285 123.443 10.2418C123.163 10.2418 122.869 10.2552 122.563 10.2818H118.603V11.3818H121.663C121.809 11.3818 121.943 11.3885 122.063 11.4018C122.183 11.4018 122.316 11.4152 122.463 11.4418C122.889 11.4818 123.223 11.6018 123.463 11.8018C123.716 12.0018 123.863 12.3285 123.903 12.7818C123.929 12.9018 123.943 13.0285 123.943 13.1618C123.943 13.2952 123.943 13.4285 123.943 13.5618V14.4618C123.943 14.6085 123.936 14.7618 123.923 14.9218C123.909 15.0685 123.903 15.2152 123.903 15.3618C123.863 15.5885 123.823 15.8285 123.783 16.0818C123.743 16.3218 123.629 16.5285 123.443 16.7018C123.309 16.8085 123.143 16.8685 122.943 16.8818C122.756 16.8952 122.569 16.9018 122.383 16.9018C122.369 16.9018 122.209 16.9018 121.903 16.9018C121.596 16.9018 121.196 16.9018 120.703 16.9018C120.223 16.9018 119.669 16.8952 119.043 16.8818C118.416 16.8818 117.776 16.8818 117.123 16.8818C115.603 16.8818 113.869 16.8752 111.923 16.8618C111.723 16.8618 111.529 16.8485 111.343 16.8218C111.156 16.7952 110.989 16.7352 110.843 16.6418ZM121.843 5.02182C121.976 5.08848 122.103 5.15515 122.223 5.22182C122.343 5.27515 122.483 5.34182 122.643 5.42182C122.776 5.52848 122.909 5.64182 123.043 5.76182C123.176 5.86848 123.283 5.99515 123.363 6.14182C123.456 6.27515 123.503 6.42182 123.503 6.58182C123.516 6.74182 123.463 6.91515 123.343 7.10182C123.196 7.32848 122.989 7.46182 122.723 7.50182C122.456 7.52848 122.176 7.50848 121.883 7.44182C121.589 7.37515 121.303 7.28848 121.023 7.18182C120.743 7.06182 120.516 6.96182 120.343 6.88182C120.143 6.78848 119.956 6.71515 119.783 6.66182C119.623 6.59515 119.476 6.51515 119.343 6.42182C119.156 6.34182 118.989 6.26182 118.843 6.18182C118.696 6.08848 118.543 6.00182 118.383 5.92182C118.316 5.89515 118.249 5.86848 118.183 5.84182C118.129 5.81515 118.069 5.78848 118.003 5.76182C117.936 5.69515 117.856 5.64848 117.763 5.62182C117.683 5.59515 117.609 5.54848 117.543 5.48182C117.369 5.41515 117.183 5.32848 116.983 5.22182C116.876 5.28848 116.763 5.34182 116.643 5.38182C116.536 5.42182 116.429 5.46848 116.323 5.52182C116.229 5.56182 116.136 5.60848 116.043 5.66182C115.949 5.70182 115.849 5.73515 115.743 5.76182C115.663 5.78848 115.596 5.82848 115.543 5.88182C115.489 5.92182 115.429 5.95515 115.363 5.98182C115.203 6.06182 115.036 6.14182 114.863 6.22182C114.703 6.28848 114.536 6.35515 114.363 6.42182C114.216 6.47515 114.063 6.54182 113.903 6.62182C113.756 6.70182 113.596 6.78848 113.423 6.88182C113.276 6.93515 113.143 6.98848 113.023 7.04182C112.903 7.09515 112.776 7.14848 112.643 7.20182C112.469 7.28182 112.269 7.34848 112.043 7.40182C111.829 7.44182 111.623 7.44848 111.423 7.42182C111.223 7.39515 111.043 7.32182 110.883 7.20182C110.736 7.08182 110.649 6.89515 110.623 6.64182C110.623 6.57515 110.623 6.50848 110.623 6.44182C110.636 6.36182 110.656 6.28182 110.683 6.20182C110.709 6.12182 110.736 6.04182 110.763 5.96182C110.803 5.86848 110.849 5.78182 110.903 5.70182C110.983 5.64848 111.063 5.59515 111.143 5.54182C111.236 5.48849 111.323 5.43515 111.403 5.38182L112.783 4.70182C112.889 4.62182 112.989 4.56182 113.083 4.52182C113.189 4.48182 113.283 4.42848 113.363 4.36182C113.469 4.33515 113.569 4.30182 113.663 4.26182C113.769 4.20848 113.889 4.15515 114.023 4.10182C114.089 4.06182 114.143 4.02848 114.183 4.00182C114.236 3.97515 114.296 3.94848 114.363 3.92182C114.443 3.85515 114.516 3.80848 114.583 3.78182C114.663 3.75515 114.743 3.72848 114.823 3.70182H112.963C112.763 3.70182 112.509 3.70182 112.203 3.70182C111.909 3.70182 111.669 3.64182 111.483 3.52182C111.416 3.49515 111.356 3.44848 111.303 3.38182C111.249 3.30182 111.189 3.21515 111.123 3.12182C111.069 3.06848 111.036 3.00848 111.023 2.94182C111.009 2.86182 110.989 2.77515 110.963 2.68182C110.963 2.60182 110.969 2.52848 110.983 2.46182C111.009 2.39515 111.036 2.32848 111.063 2.26182C111.169 2.06182 111.309 1.91515 111.483 1.82182C111.656 1.72848 111.843 1.66848 112.043 1.64182C112.256 1.60182 112.463 1.58848 112.663 1.60182C112.876 1.60182 113.069 1.59515 113.243 1.58182H115.643V0.961818C115.643 0.655151 115.769 0.421818 116.023 0.261817C116.289 0.101818 116.583 0.0151515 116.903 0.00181835C117.236 -0.0115156 117.543 0.048484 117.823 0.181817C118.116 0.315151 118.283 0.521818 118.323 0.801818V1.58182H120.643C120.909 1.58182 121.176 1.57515 121.443 1.56182C121.709 1.54848 121.969 1.56848 122.223 1.62182C122.369 1.64848 122.503 1.68182 122.623 1.72182C122.743 1.76182 122.856 1.82848 122.963 1.92182C123.043 1.98848 123.116 2.07515 123.183 2.18182C123.263 2.27515 123.316 2.38848 123.343 2.52182C123.396 2.84182 123.343 3.08182 123.183 3.24182C122.983 3.40182 122.769 3.51515 122.543 3.58182C122.316 3.63515 122.083 3.66182 121.843 3.66182C121.536 3.68848 121.229 3.70182 120.923 3.70182C120.616 3.70182 120.309 3.70182 120.003 3.70182H119.343C119.343 3.72848 119.383 3.76182 119.463 3.80182C119.529 3.80182 119.563 3.82849 119.563 3.88182C119.643 3.90848 119.709 3.93515 119.763 3.96182C119.816 3.97515 119.876 3.99515 119.943 4.02182C120.036 4.06182 120.109 4.10182 120.163 4.14182C120.216 4.18182 120.276 4.21515 120.343 4.24182C120.476 4.30848 120.596 4.37515 120.703 4.44182C120.823 4.49515 120.956 4.56182 121.103 4.64182C121.209 4.70848 121.329 4.76848 121.463 4.82182C121.609 4.87515 121.736 4.94182 121.843 5.02182ZM112.743 14.6218C112.743 14.6752 112.749 14.7085 112.763 14.7218C112.763 14.7352 112.769 14.7418 112.783 14.7418C112.836 14.7818 112.896 14.8018 112.963 14.8018C113.269 14.8285 113.569 14.8418 113.863 14.8418C114.156 14.8418 114.463 14.8418 114.783 14.8418C115.263 14.8685 115.723 14.8885 116.163 14.9018C116.603 14.9018 117.036 14.9018 117.463 14.9018C117.903 14.9018 118.343 14.9018 118.783 14.9018C119.236 14.8885 119.716 14.8685 120.223 14.8418C120.249 14.8418 120.303 14.8418 120.383 14.8418C120.476 14.8418 120.569 14.8418 120.663 14.8418C120.769 14.8418 120.863 14.8418 120.943 14.8418C121.023 14.8285 121.076 14.8152 121.103 14.8018C121.303 14.7752 121.409 14.6818 121.423 14.5218C121.436 14.3618 121.443 14.1885 121.443 14.0018C121.443 13.8952 121.403 13.7885 121.323 13.6818C121.229 13.5752 121.109 13.5218 120.963 13.5218C120.856 13.5218 120.763 13.5152 120.683 13.5018C120.616 13.4752 120.556 13.4618 120.503 13.4618H114.023C113.889 13.4885 113.749 13.4952 113.603 13.4818C113.469 13.4685 113.336 13.4618 113.203 13.4618C113.149 13.4618 113.089 13.4752 113.023 13.5018C112.969 13.5152 112.929 13.5218 112.903 13.5218C112.876 13.5218 112.849 13.5352 112.823 13.5618C112.796 13.5885 112.783 13.6485 112.783 13.7418C112.769 13.7552 112.756 13.8085 112.743 13.9018C112.743 13.9818 112.743 14.0752 112.743 14.1818C112.743 14.2885 112.743 14.3885 112.743 14.4818C112.743 14.5618 112.743 14.6085 112.743 14.6218Z" fill="white"/>
<path d="M132.144 13.8818C132.144 13.2818 132.317 12.7818 132.664 12.3818C133.024 11.9818 133.504 11.6685 134.104 11.4418C134.704 11.2018 135.411 11.0352 136.224 10.9418C137.037 10.8485 137.904 10.8018 138.824 10.8018C139.744 10.8018 140.611 10.8352 141.424 10.9018C142.237 10.9685 142.944 11.1152 143.544 11.3418C144.144 11.5552 144.617 11.8618 144.964 12.2618C145.324 12.6618 145.504 13.2018 145.504 13.8818C145.504 14.5485 145.324 15.0818 144.964 15.4818C144.617 15.8818 144.144 16.1885 143.544 16.4018C142.944 16.6285 142.237 16.7752 141.424 16.8418C140.611 16.9218 139.744 16.9618 138.824 16.9618C137.904 16.9618 137.037 16.9218 136.224 16.8418C135.411 16.7752 134.704 16.6285 134.104 16.4018C133.504 16.1885 133.024 15.8818 132.664 15.4818C132.317 15.0818 132.144 14.5485 132.144 13.8818ZM137.244 3.34182C137.244 3.34182 137.237 3.42182 137.224 3.58182C137.224 3.74182 137.224 3.92182 137.224 4.12182C137.224 4.32182 137.224 4.50848 137.224 4.68182C137.237 4.85515 137.244 4.95515 137.244 4.98182C137.311 5.04849 137.431 5.16182 137.604 5.32182C137.777 5.46849 137.924 5.59515 138.044 5.70182C138.177 5.80848 138.311 5.92848 138.444 6.06182C138.591 6.18182 138.737 6.31515 138.884 6.46182C138.977 6.55515 139.064 6.64848 139.144 6.74182C139.224 6.82182 139.297 6.89515 139.364 6.96182C139.617 7.21515 139.871 7.48848 140.124 7.78182C140.377 8.07515 140.551 8.37515 140.644 8.68182C140.684 8.80182 140.691 8.93515 140.664 9.08182C140.637 9.22849 140.551 9.35515 140.404 9.46182C140.177 9.59515 139.937 9.66182 139.684 9.66182C139.391 9.66182 139.111 9.60182 138.844 9.48182C138.577 9.36182 138.364 9.24182 138.204 9.12182C137.951 8.93515 137.717 8.74182 137.504 8.54182C137.291 8.32848 137.077 8.11515 136.864 7.90182C136.717 7.75515 136.551 7.58848 136.364 7.40182C136.177 7.20182 135.991 7.02848 135.804 6.88182L135.264 7.42182C135.171 7.51515 135.077 7.60848 134.984 7.70182C134.891 7.78182 134.804 7.86848 134.724 7.96182C134.551 8.14848 134.371 8.34182 134.184 8.54182C133.997 8.72848 133.784 8.90849 133.544 9.08182C132.997 9.48182 132.484 9.68182 132.004 9.68182C131.937 9.68182 131.877 9.68182 131.824 9.68182C131.784 9.68182 131.731 9.66848 131.664 9.64182C131.371 9.57515 131.177 9.45515 131.084 9.28182C130.991 9.13515 130.957 8.96849 130.984 8.78182C131.024 8.59515 131.084 8.42848 131.164 8.28182C131.271 8.13515 131.391 7.99515 131.524 7.86182C131.657 7.71515 131.791 7.56849 131.924 7.42182C132.044 7.28849 132.231 7.10182 132.484 6.86182C132.751 6.60849 133.017 6.35515 133.284 6.10182C133.551 5.83515 133.797 5.59515 134.024 5.38182C134.251 5.16848 134.391 5.03515 134.444 4.98182V3.34182H133.164C133.004 3.34182 132.817 3.34848 132.604 3.36182C132.391 3.36182 132.177 3.34848 131.964 3.32182C131.764 3.29515 131.577 3.24182 131.404 3.16182C131.231 3.06848 131.104 2.92182 131.024 2.72182C130.957 2.57515 130.911 2.40849 130.884 2.22182C130.871 2.03515 130.884 1.86182 130.924 1.70182C130.977 1.51515 131.097 1.38848 131.284 1.32182C131.471 1.24182 131.651 1.18848 131.824 1.16182C131.851 1.16182 131.957 1.16182 132.144 1.16182C132.344 1.16182 132.557 1.16182 132.784 1.16182C133.011 1.16182 133.224 1.16182 133.424 1.16182C133.624 1.16182 133.744 1.15515 133.784 1.14182H138.464C138.997 1.14182 139.444 1.17515 139.804 1.24182C140.177 1.30848 140.477 1.47515 140.704 1.74182C140.771 1.82182 140.811 1.92848 140.824 2.06182C140.851 2.19515 140.851 2.33515 140.824 2.48182C140.811 2.61515 140.771 2.74182 140.704 2.86182C140.651 2.98182 140.571 3.06848 140.464 3.12182C140.357 3.16182 140.231 3.20848 140.084 3.26182C139.937 3.30182 139.811 3.32849 139.704 3.34182C139.517 3.35515 139.324 3.36182 139.124 3.36182C138.937 3.34848 138.751 3.34182 138.564 3.34182H137.244ZM141.764 6.72182C141.377 6.69515 141.031 6.67515 140.724 6.66182C140.417 6.63515 140.177 6.48848 140.004 6.22182C139.924 6.08848 139.884 5.91515 139.884 5.70182C139.884 5.48848 139.897 5.30848 139.924 5.16182C139.964 5.01515 140.037 4.89515 140.144 4.80182C140.251 4.69515 140.437 4.60848 140.704 4.54182C140.757 4.52848 140.884 4.52182 141.084 4.52182C141.297 4.50848 141.524 4.50182 141.764 4.50182C142.004 4.48848 142.231 4.48182 142.444 4.48182C142.657 4.46848 142.791 4.46182 142.844 4.46182V2.56182C142.831 2.41515 142.824 2.26848 142.824 2.12182C142.837 1.97515 142.864 1.82848 142.904 1.68182C142.931 1.57515 142.957 1.47515 142.984 1.38182C143.011 1.28848 143.071 1.18848 143.164 1.08182C143.271 0.948484 143.417 0.855151 143.604 0.801818C143.804 0.748484 144.017 0.735151 144.244 0.761818C144.444 0.788484 144.624 0.848484 144.784 0.941818C144.944 1.02182 145.057 1.12848 145.124 1.26182C145.204 1.42182 145.251 1.62182 145.264 1.86182C145.291 2.08848 145.304 2.22848 145.304 2.28182V9.14182H145.284C145.284 9.15515 145.277 9.20182 145.264 9.28182C145.251 9.36182 145.224 9.46182 145.184 9.58182C145.144 9.68849 145.084 9.80182 145.004 9.92182C144.924 10.0418 144.817 10.1418 144.684 10.2218C144.497 10.3285 144.291 10.3818 144.064 10.3818C143.837 10.3818 143.617 10.3085 143.404 10.1618C143.244 10.0552 143.131 9.92182 143.064 9.76182C142.984 9.61515 142.931 9.46849 142.904 9.32182C142.877 9.17515 142.857 9.02849 142.844 8.88182V6.72182H141.764ZM142.804 13.8818C142.804 13.6552 142.684 13.4752 142.444 13.3418C142.204 13.2085 141.891 13.1085 141.504 13.0418C141.131 12.9752 140.704 12.9352 140.224 12.9218C139.757 12.8952 139.291 12.8818 138.824 12.8818C138.357 12.8818 137.891 12.8952 137.424 12.9218C136.971 12.9352 136.557 12.9752 136.184 13.0418C135.824 13.1085 135.531 13.2085 135.304 13.3418C135.077 13.4752 134.964 13.6552 134.964 13.8818C134.964 14.0818 135.077 14.2485 135.304 14.3818C135.531 14.5152 135.824 14.6152 136.184 14.6818C136.557 14.7485 136.971 14.7952 137.424 14.8218C137.891 14.8485 138.357 14.8618 138.824 14.8618C139.291 14.8618 139.757 14.8618 140.224 14.8618C140.704 14.8618 141.131 14.8352 141.504 14.7818C141.891 14.7285 142.204 14.6352 142.444 14.5018C142.684 14.3552 142.804 14.1485 142.804 13.8818Z" fill="white"/>
<path d="M160.424 13.3218C160.464 13.3352 160.504 13.3418 160.544 13.3418C160.584 13.3285 160.624 13.3218 160.664 13.3218C160.891 13.3485 161.098 13.3952 161.284 13.4618C161.484 13.5152 161.678 13.6218 161.864 13.7818C162.051 13.9685 162.144 14.2018 162.144 14.4818C162.144 14.6285 162.118 14.7885 162.064 14.9618C162.024 15.1218 161.964 15.2485 161.884 15.3418C161.778 15.4485 161.644 15.5285 161.484 15.5818C161.324 15.6352 161.171 15.6752 161.024 15.7018C160.878 15.7152 160.744 15.7218 160.624 15.7218C160.518 15.7218 160.458 15.7218 160.444 15.7218H149.244C149.178 15.7218 149.111 15.7285 149.044 15.7418C148.978 15.7418 148.911 15.7418 148.844 15.7418C148.564 15.7552 148.264 15.7552 147.944 15.7418C147.624 15.7152 147.351 15.6085 147.124 15.4218C146.844 15.1685 146.704 14.8818 146.704 14.5618C146.704 14.3618 146.764 14.1552 146.884 13.9418C147.004 13.7285 147.164 13.5818 147.364 13.5018C147.631 13.3952 147.904 13.3418 148.184 13.3418C148.478 13.3418 148.771 13.3352 149.064 13.3218H149.164C150.324 13.2952 151.518 13.2952 152.744 13.3218L152.724 10.5618C152.218 10.5752 151.758 10.5818 151.344 10.5818C150.944 10.5818 150.624 10.5685 150.384 10.5418C150.104 10.5285 149.798 10.5085 149.464 10.4818C149.131 10.4418 148.851 10.3352 148.624 10.1618C148.478 10.0418 148.358 9.87515 148.264 9.66182C148.184 9.44848 148.124 9.23515 148.084 9.02182C148.044 8.80848 148.018 8.62182 148.004 8.46182C148.004 8.28848 148.004 8.19515 148.004 8.18182V3.88182C148.004 3.61515 147.991 3.34848 147.964 3.08182C147.951 2.81515 147.971 2.54848 148.024 2.28182C148.064 2.12182 148.131 1.99515 148.224 1.90182C148.331 1.79515 148.451 1.71515 148.584 1.66182C148.731 1.59515 148.884 1.54848 149.044 1.52182C149.218 1.49515 149.378 1.47515 149.524 1.46182C149.644 1.46182 149.771 1.46848 149.904 1.48182C150.038 1.49515 150.164 1.52848 150.284 1.58182C150.404 1.62182 150.504 1.68848 150.584 1.78182C150.678 1.86182 150.738 1.96848 150.764 2.10182C150.778 2.16848 150.778 2.29515 150.764 2.48182C150.764 2.66848 150.764 2.87515 150.764 3.10182C150.764 3.31515 150.764 3.52182 150.764 3.72182C150.778 3.90848 150.798 4.02848 150.824 4.08182C150.851 4.14848 150.918 4.19515 151.024 4.22182C151.144 4.23515 151.238 4.24848 151.304 4.26182C151.611 4.28848 151.851 4.29515 152.024 4.28182C152.198 4.25515 152.438 4.24182 152.744 4.24182L157.324 4.26182C157.471 4.27515 157.591 4.27515 157.684 4.26182C157.791 4.23515 157.864 4.14848 157.904 4.00182C157.904 3.93515 157.904 3.82182 157.904 3.66182C157.918 3.48848 157.924 3.31515 157.924 3.14182C157.924 2.95515 157.924 2.78848 157.924 2.64182C157.938 2.48182 157.944 2.37515 157.944 2.32182C157.958 2.08182 158.004 1.89515 158.084 1.76182C158.178 1.61515 158.351 1.51515 158.604 1.46182C158.871 1.39515 159.158 1.38182 159.464 1.42182C159.784 1.44848 160.018 1.53515 160.164 1.68182C160.378 1.90848 160.498 2.16848 160.524 2.46182C160.551 2.75515 160.564 3.16182 160.564 3.68182C160.551 3.98848 160.544 4.38848 160.544 4.88182C160.558 5.36182 160.564 5.86182 160.564 6.38182C160.564 6.90182 160.558 7.40182 160.544 7.88182C160.544 8.36182 160.531 8.75515 160.504 9.06182C160.438 9.87515 160.018 10.3418 159.244 10.4618C159.044 10.4885 158.818 10.5018 158.564 10.5018C158.324 10.5018 158.104 10.5018 157.904 10.5018C157.478 10.5152 157.058 10.5218 156.644 10.5218C156.231 10.5218 155.824 10.5218 155.424 10.5218L155.464 13.3218C155.798 13.3218 156.111 13.3218 156.404 13.3218C156.711 13.3085 157.004 13.3018 157.284 13.3018C157.564 13.3018 157.851 13.3018 158.144 13.3018C158.438 13.3018 158.744 13.3085 159.064 13.3218C159.304 13.3352 159.538 13.3352 159.764 13.3218C159.991 13.2952 160.211 13.2952 160.424 13.3218ZM150.824 7.98182C150.878 8.18182 151.018 8.30182 151.244 8.34182C151.484 8.36848 151.718 8.38849 151.944 8.40182C151.971 8.40182 152.098 8.40182 152.324 8.40182C152.551 8.38849 152.824 8.38182 153.144 8.38182C153.464 8.38182 153.804 8.38182 154.164 8.38182C154.538 8.36849 154.884 8.36182 155.204 8.36182C155.538 8.36182 155.818 8.36849 156.044 8.38182C156.271 8.38182 156.404 8.38182 156.444 8.38182C156.551 8.39515 156.658 8.40182 156.764 8.40182C156.884 8.38849 156.998 8.38849 157.104 8.40182C157.171 8.40182 157.244 8.40849 157.324 8.42182C157.418 8.43515 157.504 8.43515 157.584 8.42182C157.664 8.40849 157.731 8.37515 157.784 8.32182C157.838 8.26849 157.864 8.18848 157.864 8.08182C157.864 8.02848 157.864 7.94848 157.864 7.84182C157.864 7.72182 157.864 7.59515 157.864 7.46182C157.864 7.31515 157.858 7.17515 157.844 7.04182C157.844 6.89515 157.831 6.77515 157.804 6.68182C157.764 6.52182 157.698 6.43515 157.604 6.42182C157.524 6.39515 157.418 6.38848 157.284 6.40182C157.218 6.40182 157.111 6.40848 156.964 6.42182C156.831 6.42182 156.731 6.41515 156.664 6.40182H152.104C151.984 6.40182 151.851 6.40182 151.704 6.40182C151.558 6.38848 151.418 6.39515 151.284 6.42182C151.164 6.43515 151.058 6.48182 150.964 6.56182C150.871 6.62848 150.818 6.74182 150.804 6.90182C150.804 6.94182 150.804 7.01515 150.804 7.12182C150.804 7.22848 150.804 7.34182 150.804 7.46182C150.804 7.58182 150.804 7.69515 150.804 7.80182C150.818 7.89515 150.824 7.95515 150.824 7.98182Z" fill="white"/>
</svg>
