<svg width="138" height="20" viewBox="0 0 138 20" fill="none" xmlns="http://www.w3.org/2000/svg">
<path d="M7.93613 1C9.50279 1 10.6611 1.34167 11.4111 2.025C12.1778 2.70833 12.5611 3.6 12.5611 4.7C12.5611 5.63333 12.3028 6.35 11.7861 6.85C11.2695 7.33333 10.5278 7.575 9.56113 7.575C9.26113 7.575 9.06946 7.55 8.98613 7.5C8.90279 7.43333 8.86113 7.30833 8.86113 7.125C8.86113 6.95833 8.84446 6.74167 8.81113 6.475C8.79446 6.20833 8.73613 5.95 8.63613 5.7C8.53613 5.45 8.37779 5.24167 8.16113 5.075C7.94446 4.89167 7.64446 4.8 7.26113 4.8C6.72779 4.8 6.25279 4.96667 5.83613 5.3C5.41946 5.61667 5.21113 6.03333 5.21113 6.55C5.21113 7 5.37779 7.36667 5.71113 7.65C6.06113 7.93333 6.49446 8.2 7.01113 8.45C7.52779 8.68333 8.08613 8.925 8.68613 9.175C9.30279 9.425 9.86946 9.75833 10.3861 10.175C10.9028 10.575 11.3278 11.0833 11.6611 11.7C12.0111 12.3 12.1861 13.0667 12.1861 14C12.1861 14.7333 12.0611 15.425 11.8111 16.075C11.5778 16.7083 11.2195 17.2667 10.7361 17.75C10.2695 18.2167 9.66946 18.5833 8.93613 18.85C8.21946 19.1167 7.37779 19.25 6.41113 19.25C5.57779 19.25 4.80279 19.1583 4.08613 18.975C3.38613 18.7917 2.76946 18.5667 2.23613 18.3C1.71946 18.0167 1.31113 17.7167 1.01113 17.4C0.711127 17.0667 0.561127 16.7667 0.561127 16.5C0.561127 15.4 0.61946 14.6083 0.736127 14.125C0.86946 13.6417 1.10279 13.4 1.43613 13.4C1.66946 13.4 1.91113 13.5 2.16113 13.7C2.42779 13.9 2.72779 14.125 3.06113 14.375C3.39446 14.625 3.77779 14.85 4.21113 15.05C4.66113 15.25 5.17779 15.35 5.76113 15.35C5.99446 15.35 6.21946 15.3333 6.43613 15.3C6.66946 15.25 6.86946 15.175 7.03613 15.075C7.21946 14.975 7.36113 14.8417 7.46113 14.675C7.57779 14.5083 7.63613 14.3083 7.63613 14.075C7.63613 13.6583 7.47779 13.325 7.16113 13.075C6.84446 12.825 6.44446 12.6 5.96113 12.4C5.47779 12.1833 4.95279 11.9667 4.38613 11.75C3.83613 11.5167 3.31946 11.2083 2.83613 10.825C2.35279 10.425 1.95279 9.91667 1.63613 9.3C1.31946 8.68333 1.16113 7.89167 1.16113 6.925C1.16113 5.84167 1.36113 4.925 1.76113 4.175C2.17779 3.425 2.70279 2.81667 3.33613 2.35C3.98613 1.86667 4.71113 1.525 5.51113 1.325C6.32779 1.10833 7.13613 1 7.93613 1Z" fill="#433232"/>
<path d="M20.1115 19.25C19.3782 19.25 18.6449 19.1583 17.9115 18.975C17.1949 18.7917 16.5449 18.475 15.9615 18.025C15.3949 17.575 14.9282 16.975 14.5615 16.225C14.1949 15.475 14.0115 14.5333 14.0115 13.4C14.0115 12.9833 14.0449 12.4833 14.1115 11.9C14.1782 11.3167 14.3032 10.7167 14.4865 10.1C14.6865 9.48333 14.9532 8.875 15.2865 8.275C15.6365 7.65833 16.0865 7.10833 16.6365 6.625C17.1865 6.14167 17.8532 5.75 18.6365 5.45C19.4199 5.15 20.3532 5 21.4365 5C22.3032 5 23.0365 5.1 23.6365 5.3C24.2365 5.5 24.7199 5.775 25.0865 6.125C25.4532 6.45833 25.7199 6.85 25.8865 7.3C26.0532 7.75 26.1365 8.23333 26.1365 8.75C26.1365 9.51667 25.9782 10.1667 25.6615 10.7C25.3615 11.2333 24.9615 11.6833 24.4615 12.05C23.9782 12.4 23.4365 12.675 22.8365 12.875C22.2365 13.075 21.6449 13.2333 21.0615 13.35C20.4782 13.45 19.9365 13.5167 19.4365 13.55C18.9532 13.5667 18.5782 13.575 18.3115 13.575C18.3115 13.8917 18.3532 14.2083 18.4365 14.525C18.5365 14.825 18.6782 15.0917 18.8615 15.325C19.0449 15.5583 19.2865 15.75 19.5865 15.9C19.8865 16.05 20.2532 16.125 20.6865 16.125C21.1199 16.125 21.4532 16.0583 21.6865 15.925C21.9365 15.775 22.1365 15.6167 22.2865 15.45C22.4365 15.2667 22.5615 15.1083 22.6615 14.975C22.7782 14.825 22.9282 14.75 23.1115 14.75C23.1949 14.75 23.3365 14.775 23.5365 14.825C23.7532 14.8583 23.9699 14.9417 24.1865 15.075C24.4032 15.2083 24.5949 15.3917 24.7615 15.625C24.9282 15.8583 25.0115 16.1583 25.0115 16.525C25.0115 17.0083 24.8615 17.425 24.5615 17.775C24.2615 18.125 23.8699 18.4083 23.3865 18.625C22.9199 18.8417 22.3949 19 21.8115 19.1C21.2282 19.2 20.6615 19.25 20.1115 19.25ZM20.5865 8.325C20.2199 8.325 19.9032 8.43333 19.6365 8.65C19.3865 8.85 19.1699 9.10833 18.9865 9.425C18.8199 9.74167 18.6865 10.0917 18.5865 10.475C18.5032 10.8583 18.4365 11.225 18.3865 11.575C19.4199 11.5583 20.2532 11.3833 20.8865 11.05C21.5365 10.7167 21.8615 10.2417 21.8615 9.625C21.8615 9.29167 21.7532 8.99167 21.5365 8.725C21.3365 8.45833 21.0199 8.325 20.5865 8.325Z" fill="#433232"/>
<path d="M30.5422 19.225C29.5088 19.225 28.7672 18.95 28.3172 18.4C27.8672 17.85 27.6422 16.9417 27.6422 15.675C27.6422 15.475 27.6505 15.225 27.6672 14.925C27.7005 14.625 27.7338 14.2417 27.7672 13.775C27.8172 13.2917 27.8755 12.7 27.9422 12C28.0088 11.3 28.0755 10.45 28.1422 9.45C28.2255 8.45 28.3088 7.275 28.3922 5.925C28.4922 4.575 28.5922 3.00833 28.6922 1.225C28.7088 0.858333 28.7505 0.641666 28.8172 0.574999C28.8672 0.525 29.0005 0.5 29.2172 0.5H30.1922C30.6922 0.5 31.1088 0.558333 31.4422 0.674999C31.7755 0.791666 32.0422 0.95 32.2422 1.15C32.4422 1.35 32.5838 1.58333 32.6672 1.85C32.7505 2.1 32.7922 2.36667 32.7922 2.65C32.7922 2.98333 32.7672 3.46667 32.7172 4.1C32.6838 4.71667 32.6338 5.41667 32.5672 6.2C32.5005 6.98333 32.4338 7.8 32.3672 8.65C32.3005 9.5 32.2338 10.3167 32.1672 11.1C32.1005 11.8667 32.0422 12.5583 31.9922 13.175C31.9588 13.7917 31.9422 14.2583 31.9422 14.575C31.9422 15.0083 32.0172 15.3167 32.1672 15.5C32.3338 15.6833 32.5088 15.8167 32.6922 15.9C32.8755 15.9667 33.0422 16.0167 33.1922 16.05C33.3588 16.0667 33.4422 16.1167 33.4422 16.2C33.4422 16.5667 33.4005 16.9333 33.3172 17.3C33.2338 17.65 33.0838 17.975 32.8672 18.275C32.6505 18.5583 32.3505 18.7917 31.9672 18.975C31.6005 19.1417 31.1255 19.225 30.5422 19.225Z" fill="#433232"/>
<path d="M40.9611 19.25C40.2278 19.25 39.4945 19.1583 38.7611 18.975C38.0445 18.7917 37.3945 18.475 36.8111 18.025C36.2445 17.575 35.7778 16.975 35.4111 16.225C35.0445 15.475 34.8611 14.5333 34.8611 13.4C34.8611 12.9833 34.8945 12.4833 34.9611 11.9C35.0278 11.3167 35.1528 10.7167 35.3361 10.1C35.5361 9.48333 35.8028 8.875 36.1361 8.275C36.4861 7.65833 36.9361 7.10833 37.4861 6.625C38.0361 6.14167 38.7028 5.75 39.4861 5.45C40.2695 5.15 41.2028 5 42.2861 5C43.1528 5 43.8861 5.1 44.4861 5.3C45.0861 5.5 45.5695 5.775 45.9361 6.125C46.3028 6.45833 46.5695 6.85 46.7361 7.3C46.9028 7.75 46.9861 8.23333 46.9861 8.75C46.9861 9.51667 46.8278 10.1667 46.5111 10.7C46.2111 11.2333 45.8111 11.6833 45.3111 12.05C44.8278 12.4 44.2861 12.675 43.6861 12.875C43.0861 13.075 42.4945 13.2333 41.9111 13.35C41.3278 13.45 40.7861 13.5167 40.2861 13.55C39.8028 13.5667 39.4278 13.575 39.1611 13.575C39.1611 13.8917 39.2028 14.2083 39.2861 14.525C39.3861 14.825 39.5278 15.0917 39.7111 15.325C39.8945 15.5583 40.1361 15.75 40.4361 15.9C40.7361 16.05 41.1028 16.125 41.5361 16.125C41.9695 16.125 42.3028 16.0583 42.5361 15.925C42.7861 15.775 42.9861 15.6167 43.1361 15.45C43.2861 15.2667 43.4111 15.1083 43.5111 14.975C43.6278 14.825 43.7778 14.75 43.9611 14.75C44.0445 14.75 44.1861 14.775 44.3861 14.825C44.6028 14.8583 44.8195 14.9417 45.0361 15.075C45.2528 15.2083 45.4445 15.3917 45.6111 15.625C45.7778 15.8583 45.8611 16.1583 45.8611 16.525C45.8611 17.0083 45.7111 17.425 45.4111 17.775C45.1111 18.125 44.7195 18.4083 44.2361 18.625C43.7695 18.8417 43.2445 19 42.6611 19.1C42.0778 19.2 41.5111 19.25 40.9611 19.25ZM41.4361 8.325C41.0695 8.325 40.7528 8.43333 40.4861 8.65C40.2361 8.85 40.0195 9.10833 39.8361 9.425C39.6695 9.74167 39.5361 10.0917 39.4361 10.475C39.3528 10.8583 39.2861 11.225 39.2361 11.575C40.2695 11.5583 41.1028 11.3833 41.7361 11.05C42.3861 10.7167 42.7111 10.2417 42.7111 9.625C42.7111 9.29167 42.6028 8.99167 42.3861 8.725C42.1861 8.45833 41.8695 8.325 41.4361 8.325Z" fill="#433232"/>
<path d="M54.7918 15.925C55.2751 15.925 55.6918 15.8583 56.0418 15.725C56.4085 15.5917 56.7251 15.4417 56.9918 15.275C57.2585 15.1083 57.4835 14.9583 57.6668 14.825C57.8501 14.6917 58.0168 14.625 58.1668 14.625C58.5501 14.625 58.7418 14.875 58.7418 15.375C58.7418 15.4917 58.7168 15.6583 58.6668 15.875C58.6168 16.075 58.5501 16.2917 58.4668 16.525C58.3835 16.7417 58.2918 16.95 58.1918 17.15C58.1085 17.35 58.0251 17.5 57.9418 17.6C57.8585 17.6833 57.7085 17.8167 57.4918 18C57.2918 18.1833 57.0168 18.3667 56.6668 18.55C56.3168 18.7333 55.9085 18.8917 55.4418 19.025C54.9751 19.175 54.4585 19.25 53.8918 19.25C53.2585 19.25 52.6001 19.1583 51.9168 18.975C51.2501 18.775 50.6418 18.4417 50.0918 17.975C49.5418 17.4917 49.0835 16.85 48.7168 16.05C48.3668 15.2333 48.1918 14.2167 48.1918 13C48.1918 12.5667 48.2168 12.075 48.2668 11.525C48.3335 10.9583 48.4585 10.3833 48.6418 9.8C48.8251 9.2 49.0668 8.61667 49.3668 8.05C49.6835 7.46667 50.1001 6.95 50.6168 6.5C51.1335 6.05 51.7501 5.69167 52.4668 5.425C53.2001 5.14167 54.0668 5 55.0668 5C55.8835 5 56.5835 5.1 57.1668 5.3C57.7668 5.48333 58.2585 5.74167 58.6418 6.075C59.0251 6.39167 59.3085 6.76667 59.4918 7.2C59.6918 7.63333 59.7918 8.1 59.7918 8.6C59.7918 9.5 59.5085 10.1667 58.9418 10.6C58.3751 11.0167 57.5751 11.225 56.5418 11.225C56.2918 11.225 56.1168 11.2083 56.0168 11.175C55.9335 11.125 55.8918 11.025 55.8918 10.875C55.8918 10.475 55.8835 10.1167 55.8668 9.8C55.8501 9.48333 55.8001 9.21667 55.7168 9C55.6501 8.78333 55.5418 8.61667 55.3918 8.5C55.2418 8.38333 55.0251 8.325 54.7418 8.325C54.2251 8.325 53.8085 8.49167 53.4918 8.825C53.1918 9.15833 52.9585 9.56667 52.7918 10.05C52.6418 10.5167 52.5418 11 52.4918 11.5C52.4585 12 52.4418 12.4167 52.4418 12.75C52.4418 13.9333 52.6251 14.7583 52.9918 15.225C53.3751 15.6917 53.9751 15.925 54.7918 15.925Z" fill="#433232"/>
<path d="M66.5621 8.625C66.5121 9.25833 66.4538 9.88333 66.3871 10.5C66.3371 11.1167 66.2871 11.7 66.2371 12.25C66.1871 12.8 66.1454 13.2917 66.1121 13.725C66.0954 14.1583 66.0871 14.4917 66.0871 14.725C66.0871 15.1583 66.1371 15.45 66.2371 15.6C66.3371 15.7333 66.5038 15.8 66.7371 15.8C66.9204 15.8 67.0788 15.7667 67.2121 15.7C67.3454 15.6333 67.4704 15.5583 67.5871 15.475C67.7038 15.3917 67.8038 15.3167 67.8871 15.25C67.9871 15.1833 68.0954 15.15 68.2121 15.15C68.3288 15.15 68.4371 15.2167 68.5371 15.35C68.6371 15.4833 68.6871 15.7917 68.6871 16.275C68.6871 17.1917 68.4371 17.9167 67.9371 18.45C67.4371 18.9833 66.5788 19.25 65.3621 19.25C64.1621 19.25 63.2704 18.975 62.6871 18.425C62.1204 17.8583 61.8371 17 61.8371 15.85C61.8371 15.6 61.8454 15.3083 61.8621 14.975C61.8954 14.625 61.9371 14.175 61.9871 13.625C62.0371 13.075 62.0954 12.4 62.1621 11.6C62.2454 10.8 62.3288 9.80833 62.4121 8.625H61.0871C60.9538 8.625 60.8704 8.6 60.8371 8.55C60.8204 8.48333 60.8121 8.39167 60.8121 8.275L60.8871 7C60.9038 6.78333 60.9288 6.575 60.9621 6.375C61.0121 6.15833 61.0954 5.96667 61.2121 5.8C61.3454 5.63333 61.5288 5.5 61.7621 5.4C61.9954 5.3 62.3038 5.25 62.6871 5.25C62.8038 4.95 62.9371 4.59167 63.0871 4.175C63.2371 3.75833 63.3871 3.35833 63.5371 2.975C63.6871 2.575 63.8288 2.24167 63.9621 1.975C64.1121 1.70833 64.2454 1.575 64.3621 1.575H65.0871C65.7871 1.575 66.2704 1.79167 66.5371 2.225C66.8038 2.65833 66.9371 3.175 66.9371 3.775C66.9371 4.10833 66.9121 4.6 66.8621 5.25H69.4871C69.7538 5.25 69.8871 5.36667 69.8871 5.6L69.7871 6.95C69.7538 7.45 69.6121 7.85833 69.3621 8.175C69.1288 8.475 68.6371 8.625 67.8871 8.625H66.5621Z" fill="#433232"/>
<path d="M91.5838 15.275C91.7505 14.3917 91.9004 13.625 92.0338 12.975C92.1671 12.3083 92.2838 11.6917 92.3838 11.125C92.4838 10.5583 92.5754 10 92.6588 9.45C92.7588 8.88333 92.8588 8.25833 92.9588 7.575C93.0755 6.875 93.2005 6.08333 93.3338 5.2C93.4838 4.3 93.6588 3.225 93.8588 1.975C93.9088 1.65833 93.9921 1.45833 94.1088 1.375C94.2255 1.275 94.5171 1.225 94.9838 1.225C95.1671 1.225 95.4421 1.24167 95.8088 1.275C96.1755 1.29167 96.5421 1.36667 96.9088 1.5C97.2754 1.61667 97.5921 1.80833 97.8588 2.075C98.1421 2.325 98.2838 2.68333 98.2838 3.15C98.2838 3.41667 98.2338 3.83333 98.1338 4.4C98.0338 4.95 97.8921 5.59167 97.7088 6.325C97.5421 7.04167 97.3421 7.825 97.1088 8.675C96.8921 9.525 96.6671 10.3833 96.4338 11.25C96.2005 12.1167 95.9588 12.9583 95.7088 13.775C95.4755 14.5917 95.2504 15.3333 95.0338 16C94.8338 16.65 94.6505 17.2 94.4838 17.65C94.3171 18.1 94.2004 18.3917 94.1338 18.525C94.0338 18.7083 93.8921 18.8333 93.7088 18.9C93.5255 18.9667 93.3421 19 93.1588 19H90.7838C90.3504 19 89.9838 18.9167 89.6838 18.75C89.4005 18.5833 89.1588 18.3667 88.9588 18.1C88.7755 17.8333 88.6254 17.5333 88.5088 17.2C88.4088 16.8667 88.3421 16.525 88.3088 16.175L87.0588 4.95C86.9588 5.68333 86.8421 6.50833 86.7088 7.425C86.5921 8.34167 86.4588 9.275 86.3088 10.225C86.1755 11.175 86.0421 12.1083 85.9088 13.025C85.7754 13.9417 85.6421 14.7833 85.5088 15.55C85.3754 16.3 85.2504 16.9417 85.1338 17.475C85.0171 18.0083 84.9171 18.3583 84.8338 18.525C84.7505 18.7083 84.6171 18.8333 84.4338 18.9C84.2505 18.9667 84.0588 19 83.8588 19H81.4838C81.0671 19 80.7171 18.925 80.4338 18.775C80.1671 18.6083 79.9421 18.3917 79.7588 18.125C79.5754 17.8583 79.4255 17.5583 79.3088 17.225C79.1921 16.875 79.0921 16.525 79.0088 16.175C78.3254 13.4583 77.7671 11.225 77.3338 9.475C76.9171 7.725 76.5838 6.325 76.3338 5.275C76.0838 4.20833 75.9088 3.43333 75.8088 2.95C75.7255 2.45 75.6838 2.09167 75.6838 1.875C75.6838 1.59167 75.7671 1.40833 75.9338 1.325C76.1171 1.24167 76.4921 1.2 77.0588 1.2C77.7588 1.2 78.3421 1.25 78.8088 1.35C79.2921 1.45 79.6838 1.60833 79.9838 1.825C80.2838 2.025 80.5088 2.3 80.6588 2.65C80.8254 2.98333 80.9338 3.39167 80.9838 3.875C80.9838 3.94167 80.9921 4.04167 81.0088 4.175C81.0254 4.29167 81.0421 4.49167 81.0588 4.775C81.0921 5.05833 81.1338 5.45 81.1838 5.95C81.2505 6.43333 81.3254 7.08333 81.4088 7.9C81.5088 8.71667 81.6254 9.73333 81.7588 10.95C81.9088 12.15 82.0838 13.5917 82.2838 15.275C82.4671 14.2583 82.6088 13.4417 82.7088 12.825C82.8255 12.1917 82.9254 11.6417 83.0088 11.175C83.0921 10.6917 83.1671 10.2333 83.2338 9.8C83.3004 9.35 83.3755 8.8 83.4588 8.15C83.5588 7.48333 83.6671 6.65 83.7838 5.65C83.9171 4.65 84.0838 3.35 84.2838 1.75C84.3004 1.63333 84.3671 1.54167 84.4838 1.475C84.6171 1.40833 84.7755 1.35833 84.9588 1.325C85.1421 1.29167 85.3421 1.275 85.5588 1.275C85.7921 1.25833 86.0088 1.25 86.2088 1.25C86.8755 1.25 87.4421 1.29167 87.9088 1.375C88.3754 1.44167 88.7588 1.56667 89.0588 1.75C89.3755 1.93333 89.6255 2.18333 89.8088 2.5C89.9921 2.8 90.1421 3.175 90.2588 3.625C90.3088 3.84167 90.3671 4.14167 90.4338 4.525C90.5005 4.89167 90.5754 5.48333 90.6588 6.3C90.7588 7.11667 90.8754 8.24167 91.0088 9.675C91.1588 11.0917 91.3505 12.9583 91.5838 15.275Z" fill="#433232"/>
<path d="M104.926 19.25C104.193 19.25 103.459 19.1583 102.726 18.975C102.009 18.7917 101.359 18.475 100.776 18.025C100.209 17.575 99.7426 16.975 99.376 16.225C99.0093 15.475 98.826 14.5333 98.826 13.4C98.826 12.9833 98.8593 12.4833 98.926 11.9C98.9926 11.3167 99.1176 10.7167 99.301 10.1C99.501 9.48333 99.7676 8.875 100.101 8.275C100.451 7.65833 100.901 7.10833 101.451 6.625C102.001 6.14167 102.668 5.75 103.451 5.45C104.234 5.15 105.168 5 106.251 5C107.118 5 107.851 5.1 108.451 5.3C109.051 5.5 109.534 5.775 109.901 6.125C110.268 6.45833 110.534 6.85 110.701 7.3C110.868 7.75 110.951 8.23333 110.951 8.75C110.951 9.51667 110.793 10.1667 110.476 10.7C110.176 11.2333 109.776 11.6833 109.276 12.05C108.793 12.4 108.251 12.675 107.651 12.875C107.051 13.075 106.459 13.2333 105.876 13.35C105.293 13.45 104.751 13.5167 104.251 13.55C103.768 13.5667 103.393 13.575 103.126 13.575C103.126 13.8917 103.168 14.2083 103.251 14.525C103.351 14.825 103.493 15.0917 103.676 15.325C103.859 15.5583 104.101 15.75 104.401 15.9C104.701 16.05 105.068 16.125 105.501 16.125C105.934 16.125 106.268 16.0583 106.501 15.925C106.751 15.775 106.951 15.6167 107.101 15.45C107.251 15.2667 107.376 15.1083 107.476 14.975C107.593 14.825 107.743 14.75 107.926 14.75C108.009 14.75 108.151 14.775 108.351 14.825C108.568 14.8583 108.784 14.9417 109.001 15.075C109.218 15.2083 109.409 15.3917 109.576 15.625C109.743 15.8583 109.826 16.1583 109.826 16.525C109.826 17.0083 109.676 17.425 109.376 17.775C109.076 18.125 108.684 18.4083 108.201 18.625C107.734 18.8417 107.209 19 106.626 19.1C106.043 19.2 105.476 19.25 104.926 19.25ZM105.401 8.325C105.034 8.325 104.718 8.43333 104.451 8.65C104.201 8.85 103.984 9.10833 103.801 9.425C103.634 9.74167 103.501 10.0917 103.401 10.475C103.318 10.8583 103.251 11.225 103.201 11.575C104.234 11.5583 105.068 11.3833 105.701 11.05C106.351 10.7167 106.676 10.2417 106.676 9.625C106.676 9.29167 106.568 8.99167 106.351 8.725C106.151 8.45833 105.834 8.325 105.401 8.325Z" fill="#433232"/>
<path d="M118.232 19.25C117.498 19.25 116.765 19.1583 116.032 18.975C115.315 18.7917 114.665 18.475 114.082 18.025C113.515 17.575 113.048 16.975 112.682 16.225C112.315 15.475 112.132 14.5333 112.132 13.4C112.132 12.9833 112.165 12.4833 112.232 11.9C112.298 11.3167 112.423 10.7167 112.607 10.1C112.807 9.48333 113.073 8.875 113.407 8.275C113.757 7.65833 114.207 7.10833 114.757 6.625C115.307 6.14167 115.973 5.75 116.757 5.45C117.54 5.15 118.473 5 119.557 5C120.423 5 121.157 5.1 121.757 5.3C122.357 5.5 122.84 5.775 123.207 6.125C123.573 6.45833 123.84 6.85 124.007 7.3C124.173 7.75 124.257 8.23333 124.257 8.75C124.257 9.51667 124.098 10.1667 123.782 10.7C123.482 11.2333 123.082 11.6833 122.582 12.05C122.098 12.4 121.557 12.675 120.957 12.875C120.357 13.075 119.765 13.2333 119.182 13.35C118.598 13.45 118.057 13.5167 117.557 13.55C117.073 13.5667 116.698 13.575 116.432 13.575C116.432 13.8917 116.473 14.2083 116.557 14.525C116.657 14.825 116.798 15.0917 116.982 15.325C117.165 15.5583 117.407 15.75 117.707 15.9C118.007 16.05 118.373 16.125 118.807 16.125C119.24 16.125 119.573 16.0583 119.807 15.925C120.057 15.775 120.257 15.6167 120.407 15.45C120.557 15.2667 120.682 15.1083 120.782 14.975C120.898 14.825 121.048 14.75 121.232 14.75C121.315 14.75 121.457 14.775 121.657 14.825C121.873 14.8583 122.09 14.9417 122.307 15.075C122.523 15.2083 122.715 15.3917 122.882 15.625C123.048 15.8583 123.132 16.1583 123.132 16.525C123.132 17.0083 122.982 17.425 122.682 17.775C122.382 18.125 121.99 18.4083 121.507 18.625C121.04 18.8417 120.515 19 119.932 19.1C119.348 19.2 118.782 19.25 118.232 19.25ZM118.707 8.325C118.34 8.325 118.023 8.43333 117.757 8.65C117.507 8.85 117.29 9.10833 117.107 9.425C116.94 9.74167 116.807 10.0917 116.707 10.475C116.623 10.8583 116.557 11.225 116.507 11.575C117.54 11.5583 118.373 11.3833 119.007 11.05C119.657 10.7167 119.982 10.2417 119.982 9.625C119.982 9.29167 119.873 8.99167 119.657 8.725C119.457 8.45833 119.14 8.325 118.707 8.325Z" fill="#433232"/>
<path d="M137.637 16.975C137.637 17.0583 137.596 17.225 137.512 17.475C137.429 17.725 137.296 17.9833 137.112 18.25C136.929 18.5167 136.696 18.75 136.412 18.95C136.146 19.15 135.821 19.25 135.437 19.25C134.987 19.25 134.537 19.1 134.087 18.8C133.654 18.5 133.221 18.0917 132.787 17.575C132.354 17.0583 131.912 16.45 131.462 15.75C131.029 15.0333 130.587 14.2583 130.137 13.425C130.071 14.3083 130.004 15.175 129.937 16.025C129.871 16.875 129.804 17.7 129.737 18.5C129.721 18.7 129.679 18.8333 129.612 18.9C129.546 18.9667 129.404 19 129.187 19H128.287C127.771 19 127.346 18.95 127.012 18.85C126.679 18.7333 126.421 18.575 126.237 18.375C126.054 18.175 125.921 17.925 125.837 17.625C125.771 17.3083 125.737 16.95 125.737 16.55C125.737 16.35 125.746 16.1417 125.762 15.925C125.779 15.7083 125.804 15.4 125.837 15C125.871 14.6 125.912 14.075 125.962 13.425C126.029 12.775 126.104 11.9167 126.187 10.85C126.271 9.78333 126.362 8.475 126.462 6.925C126.579 5.35833 126.704 3.45833 126.837 1.225C126.854 0.858333 126.896 0.641666 126.962 0.574999C127.012 0.525 127.146 0.5 127.362 0.5H128.337C128.854 0.5 129.279 0.558333 129.612 0.674999C129.946 0.791666 130.212 0.95 130.412 1.15C130.612 1.35 130.746 1.58333 130.812 1.85C130.896 2.11667 130.937 2.39167 130.937 2.675C130.937 2.84167 130.921 3.125 130.887 3.525C130.871 3.90833 130.846 4.38333 130.812 4.95C130.779 5.5 130.729 6.125 130.662 6.825C130.612 7.525 130.562 8.25833 130.512 9.025L134.512 5.375C134.662 5.24167 134.796 5.15 134.912 5.1C135.046 5.05 135.146 5.025 135.212 5.025C135.396 5.025 135.596 5.14167 135.812 5.375C136.029 5.60833 136.229 5.88333 136.412 6.2C136.612 6.5 136.771 6.81667 136.887 7.15C137.021 7.46667 137.087 7.725 137.087 7.925C137.087 8.40833 136.696 8.91667 135.912 9.45C135.146 9.98333 133.979 10.5833 132.412 11.25C133.112 12.0333 133.779 12.75 134.412 13.4C135.046 14.05 135.596 14.625 136.062 15.125C136.546 15.625 136.929 16.0333 137.212 16.35C137.496 16.6667 137.637 16.875 137.637 16.975Z" fill="#433232"/>
</svg>
