<svg width="245" height="27" viewBox="0 0 245 27" fill="none" xmlns="http://www.w3.org/2000/svg">
<path d="M4.67398 11.38C4.97398 11.4 5.24398 11.41 5.48398 11.41C5.74398 11.41 5.97398 11.41 6.17398 11.41C6.39398 11.41 6.60398 11.4 6.80398 11.38H8.33398C8.41398 11.38 8.50398 11.39 8.60398 11.41C8.70398 11.41 8.80398 11.4 8.90398 11.38H9.62398C9.84398 11.38 10.054 11.4 10.254 11.44C10.474 11.48 10.674 11.55 10.854 11.65C11.134 11.83 11.314 12.09 11.394 12.43C11.474 12.77 11.494 13.1 11.454 13.42C11.454 13.56 11.444 13.71 11.424 13.87C11.424 14.03 11.374 14.17 11.274 14.29C11.054 14.59 10.824 14.78 10.584 14.86C10.364 14.92 10.124 14.95 9.86398 14.95H7.43398C7.27398 14.95 7.06398 14.96 6.80398 14.98C6.54398 14.98 6.27398 14.98 5.99398 14.98C5.73398 14.98 5.48398 14.98 5.24398 14.98C5.00398 14.96 4.82398 14.95 4.70398 14.95C4.70398 15.33 4.70398 15.73 4.70398 16.15C4.70398 16.55 4.70398 16.92 4.70398 17.26C4.70398 17.58 4.69398 17.85 4.67398 18.07C4.67398 18.29 4.67398 18.4 4.67398 18.4V19.15C4.67398 19.43 4.69398 19.67 4.73398 19.87C4.77398 20.07 4.81398 20.18 4.85398 20.2C4.97398 20.28 5.13398 20.34 5.33398 20.38C5.53398 20.42 5.81398 20.44 6.17398 20.44C6.31398 20.44 6.55398 20.44 6.89398 20.44C7.23398 20.44 7.57398 20.44 7.91398 20.44C8.25398 20.44 8.55398 20.44 8.81398 20.44C9.09398 20.42 9.25398 20.41 9.29398 20.41H9.74398C10.044 20.41 10.344 20.42 10.644 20.44C10.944 20.46 11.244 20.52 11.544 20.62C11.624 20.64 11.724 20.69 11.844 20.77C12.084 20.95 12.254 21.19 12.354 21.49C12.474 21.77 12.524 22.06 12.504 22.36C12.484 22.66 12.404 22.95 12.264 23.23C12.124 23.49 11.924 23.69 11.664 23.83C11.264 24.07 10.834 24.23 10.374 24.31C9.91398 24.39 9.48398 24.43 9.08398 24.43H8.21398C7.95398 24.43 7.72398 24.43 7.52398 24.43C7.34398 24.43 7.15398 24.43 6.95398 24.43C6.77398 24.43 6.58398 24.43 6.38398 24.43C6.20398 24.43 5.98398 24.43 5.72398 24.43H5.24398C4.94398 24.43 4.61398 24.42 4.25398 24.4C3.89398 24.38 3.54398 24.33 3.20398 24.25C2.86398 24.17 2.54398 24.06 2.24398 23.92C1.96398 23.76 1.72398 23.56 1.52398 23.32C1.34398 23.1 1.20398 22.8 1.10398 22.42C1.00398 22.04 0.933983 21.67 0.893983 21.31C0.873983 20.93 0.863983 20.6 0.863983 20.32C0.863983 20.04 0.863983 19.89 0.863983 19.87V5.56C0.863983 5.54 0.863983 5.46 0.863983 5.32C0.863983 5.16 0.873983 4.99 0.893983 4.81C0.913983 4.61 0.933983 4.42 0.953983 4.24C0.993983 4.04 1.04398 3.89 1.10398 3.79C1.26398 3.51 1.42398 3.31 1.58398 3.19C1.76398 3.05 1.99398 2.96 2.27398 2.92C2.35398 2.9 2.44398 2.89 2.54398 2.89C2.66398 2.89 2.77398 2.88 2.87398 2.86C2.99398 2.86 3.12398 2.85 3.26398 2.83H9.23398C9.33398 2.83 9.43398 2.84 9.53398 2.86C9.63398 2.86 9.72398 2.85 9.80398 2.83H9.86398C10.044 2.83 10.214 2.84 10.374 2.86C10.554 2.88 10.734 2.92 10.914 2.98C11.074 3.02 11.234 3.07 11.394 3.13C11.574 3.17 11.724 3.27 11.844 3.43C12.084 3.71 12.224 4.03 12.264 4.39C12.304 4.55 12.324 4.7 12.324 4.84C12.344 4.96 12.334 5.1 12.294 5.26C12.254 5.66 12.104 6.02 11.844 6.34C11.584 6.64 11.244 6.79 10.824 6.79H4.67398V11.38ZM22.734 22.42C22.754 22.96 22.724 23.51 22.644 24.07C22.564 24.63 22.304 25.06 21.864 25.36C21.524 25.56 21.224 25.66 20.964 25.66C20.624 25.66 20.344 25.54 20.124 25.3C19.924 25.06 19.764 24.77 19.644 24.43C19.544 24.09 19.474 23.74 19.434 23.38C19.414 23 19.404 22.67 19.404 22.39V14.95H17.454V22.57C17.494 23.03 17.474 23.51 17.394 24.01C17.334 24.49 17.204 24.87 17.004 25.15C16.764 25.49 16.414 25.66 15.954 25.66C15.734 25.66 15.524 25.61 15.324 25.51C15.144 25.41 14.974 25.28 14.814 25.12C14.474 24.78 14.274 24.37 14.214 23.89C14.154 23.41 14.124 22.94 14.124 22.48V4.93C14.124 4.65 14.134 4.35 14.154 4.03C14.174 3.69 14.234 3.37 14.334 3.07C14.434 2.77 14.574 2.51 14.754 2.29C14.954 2.05 15.224 1.89 15.564 1.81C16.024 1.71 16.394 1.82 16.674 2.14C16.894 2.36 17.054 2.67 17.154 3.07C17.274 3.47 17.354 3.91 17.394 4.39C17.434 4.85 17.454 5.34 17.454 5.86C17.454 6.36 17.454 6.83 17.454 7.27V11.32H19.404V5.2C19.404 4.92 19.404 4.6 19.404 4.24C19.404 3.86 19.434 3.5 19.494 3.16C19.574 2.8 19.714 2.5 19.914 2.26C20.134 2 20.454 1.85 20.874 1.81C21.314 1.77 21.664 1.9 21.924 2.2C22.164 2.44 22.344 2.76 22.464 3.16C22.584 3.56 22.664 3.99 22.704 4.45C22.744 4.91 22.764 5.37 22.764 5.83C22.764 6.27 22.754 6.65 22.734 6.97V22.42Z" fill="#EDA1A1"/>
<path d="M31.7063 1.84C31.9663 1.84 32.2163 1.85 32.4563 1.87C32.6963 1.89 32.9363 1.92 33.1763 1.96C33.9363 2.08 34.6063 2.43 35.1863 3.01C35.6663 3.53 36.0563 4.13 36.3563 4.81C36.6563 5.47 36.8863 6.17 37.0463 6.91C37.2263 7.65 37.3463 8.41 37.4063 9.19C37.4663 9.95 37.5163 10.69 37.5563 11.41C37.5963 12.33 37.6063 13.25 37.5863 14.17C37.5863 15.09 37.5363 16 37.4363 16.9C37.3363 17.84 37.1863 18.79 36.9863 19.75C36.8063 20.69 36.4663 21.54 35.9663 22.3C35.5463 22.94 35.0363 23.47 34.4363 23.89C33.8563 24.29 33.2263 24.56 32.5463 24.7C31.9263 24.82 31.2963 24.84 30.6563 24.76C30.0163 24.68 29.4063 24.47 28.8263 24.13C28.2863 23.81 27.8463 23.41 27.5063 22.93C27.1863 22.45 26.8863 21.89 26.6063 21.25C26.2063 20.29 25.9763 19.3 25.9163 18.28C25.8363 17.44 25.7763 16.6 25.7363 15.76C25.7163 14.92 25.7063 14.08 25.7063 13.24C25.7063 12.12 25.7663 11 25.8863 9.88C25.9263 9.42 25.9663 8.97 26.0063 8.53C26.0463 8.07 26.1063 7.62 26.1863 7.18C26.2663 6.82 26.3363 6.48 26.3963 6.16C26.4563 5.84 26.5663 5.51 26.7263 5.17C26.8863 4.83 27.0563 4.51 27.2363 4.21C27.4363 3.91 27.6663 3.64 27.9263 3.4C28.7663 2.56 29.7763 2.06 30.9563 1.9C31.0763 1.88 31.1963 1.87 31.3163 1.87C31.4563 1.87 31.5863 1.86 31.7063 1.84ZM46.7063 11.05C46.8063 11.05 46.8963 11.06 46.9763 11.08C47.0763 11.1 47.1763 11.11 47.2763 11.11C47.3763 11.13 47.4863 11.15 47.6063 11.17C47.7263 11.17 47.8463 11.18 47.9663 11.2C48.1863 11.24 48.4063 11.32 48.6263 11.44C48.8463 11.54 49.0063 11.7 49.1063 11.92C49.2463 12.14 49.3163 12.4 49.3163 12.7C49.3163 12.86 49.3063 13.01 49.2863 13.15C49.2863 13.27 49.2663 13.41 49.2263 13.57C49.1863 13.73 49.1363 13.9 49.0763 14.08C49.0363 14.26 48.9463 14.4 48.8063 14.5C48.5263 14.7 48.2563 14.83 47.9963 14.89C47.6763 14.93 47.2863 14.94 46.8263 14.92C46.3663 14.9 45.9763 14.9 45.6563 14.92C45.6363 14.92 45.6163 14.93 45.5963 14.95H45.5663L45.5363 14.98V15.07C45.5363 15.31 45.5363 15.6 45.5363 15.94C45.5363 16.28 45.5363 16.63 45.5363 16.99C45.5363 17.33 45.5363 17.67 45.5363 18.01C45.5363 18.33 45.5363 18.62 45.5363 18.88C45.5763 19.92 45.5763 20.94 45.5363 21.94V22.36C45.5363 22.62 45.5263 22.91 45.5063 23.23C45.5063 23.53 45.4863 23.83 45.4463 24.13C45.4063 24.43 45.3363 24.72 45.2363 25C45.1363 25.26 44.9963 25.48 44.8163 25.66C44.5763 25.94 44.2563 26.08 43.8563 26.08C43.8563 26.08 43.8363 26.07 43.7963 26.05C43.3163 26.03 42.9263 25.89 42.6263 25.63C42.3463 25.37 42.1263 25.05 41.9663 24.67C41.8263 24.29 41.7363 23.9 41.6963 23.5C41.6563 23.08 41.6363 22.71 41.6363 22.39V4.57C41.6363 4.55 41.6363 4.46 41.6363 4.3C41.6363 4.12 41.6563 3.92 41.6963 3.7C41.7363 3.46 41.7963 3.22 41.8763 2.98C41.9763 2.72 42.1063 2.51 42.2663 2.35C42.4063 2.21 42.6063 2.11 42.8663 2.05C43.1463 1.97 43.3963 1.93 43.6163 1.93C44.0563 1.93 44.4263 2.08 44.7263 2.38C45.0063 2.66 45.1663 2.96 45.2063 3.28C45.2663 3.58 45.3163 3.9 45.3563 4.24C45.3763 4.32 45.3863 4.44 45.3863 4.6C45.4263 4.94 45.4463 5.29 45.4463 5.65C45.4663 6.01 45.4863 6.37 45.5063 6.73C45.5063 6.95 45.5063 7.17 45.5063 7.39C45.5263 7.59 45.5363 7.8 45.5363 8.02C45.5163 8.14 45.5063 8.26 45.5063 8.38C45.5263 8.48 45.5363 8.58 45.5363 8.68V10.33C45.5363 10.43 45.5363 10.54 45.5363 10.66C45.5363 10.78 45.5563 10.89 45.5963 10.99C45.5963 11.01 45.6963 11.02 45.8963 11.02C46.0963 11.02 46.2063 11.02 46.2263 11.02C46.4063 11.06 46.5463 11.07 46.6463 11.05H46.7063ZM31.6163 20.71C31.9963 20.71 32.3663 20.59 32.7263 20.35C33.0663 20.11 33.3063 19.79 33.4463 19.39C33.5863 18.99 33.7063 18.55 33.8063 18.07C33.9663 17.15 34.0563 16.17 34.0763 15.13C34.0963 14.09 34.0863 13.09 34.0463 12.13C34.0463 11.75 34.0363 11.35 34.0163 10.93C33.9963 10.49 33.9563 10.06 33.8963 9.64C33.8563 9.22 33.7863 8.82 33.6863 8.44C33.5863 8.04 33.4463 7.69 33.2663 7.39C33.0663 7.05 32.8263 6.79 32.5463 6.61C32.2663 6.43 31.9663 6.36 31.6463 6.4C31.3063 6.44 30.9863 6.56 30.6863 6.76C30.4063 6.96 30.1763 7.26 29.9963 7.66L29.7263 8.29C29.6063 8.67 29.5163 9.07 29.4563 9.49C29.3963 9.89 29.3463 10.29 29.3063 10.69C29.2663 11.09 29.2363 11.5 29.2163 11.92C29.1963 12.34 29.1863 12.75 29.1863 13.15C29.2063 13.55 29.1963 13.94 29.1563 14.32C29.1363 14.7 29.1463 15.09 29.1863 15.49C29.2263 16.01 29.2763 16.57 29.3363 17.17C29.4163 17.77 29.5363 18.34 29.6963 18.88C29.8763 19.4 30.1163 19.84 30.4163 20.2C30.7163 20.54 31.1163 20.71 31.6163 20.71Z" fill="#EDA1A1"/>
<path d="M75.6216 11.14C76.0016 11.34 76.3716 11.58 76.7316 11.86C77.0916 12.12 77.4316 12.4 77.7516 12.7C77.9116 12.86 78.0216 13.06 78.0816 13.3C78.1416 13.54 78.1416 13.78 78.0816 14.02C78.0416 14.26 77.9416 14.48 77.7816 14.68C77.6416 14.86 77.4516 14.98 77.2116 15.04C76.5716 15.2 75.9016 15.19 75.2016 15.01C74.5216 14.83 73.8916 14.6 73.3116 14.32C72.7716 14.04 72.2716 13.78 71.8116 13.54C71.3516 13.28 70.8916 13.01 70.4316 12.73C70.2916 12.63 70.1016 12.52 69.8616 12.4C69.6416 12.26 69.4216 12.12 69.2016 11.98C68.9416 11.82 68.6616 11.66 68.3616 11.5C68.0216 11.68 67.6916 11.85 67.3716 12.01C67.0916 12.15 66.8116 12.29 66.5316 12.43C66.2716 12.55 66.0616 12.66 65.9016 12.76C65.3816 13.06 64.9016 13.32 64.4616 13.54C64.0216 13.76 63.5416 14.01 63.0216 14.29C62.6216 14.49 62.2116 14.71 61.7916 14.95C61.3916 15.17 60.9616 15.26 60.5016 15.22C60.1416 15.18 59.7916 15.07 59.4516 14.89C59.1116 14.71 58.9016 14.4 58.8216 13.96C58.7816 13.72 58.8016 13.46 58.8816 13.18C58.9616 12.84 59.0916 12.56 59.2716 12.34C59.4716 12.12 59.7116 11.92 59.9916 11.74L62.0616 10.57C62.4016 10.37 62.7016 10.21 62.9616 10.09C63.2216 9.95 63.5316 9.78 63.8916 9.58C64.2316 9.38 64.6216 9.16 65.0616 8.92C65.5216 8.66 65.9516 8.45 66.3516 8.29V5.86H63.1716C62.8516 5.86 62.5716 5.87 62.3316 5.89C62.1116 5.89 61.8516 5.87 61.5516 5.83C61.3316 5.79 61.0916 5.77 60.8316 5.77C60.5716 5.77 60.3316 5.71 60.1116 5.59C59.8916 5.47 59.7116 5.26 59.5716 4.96C59.4516 4.74 59.3816 4.48 59.3616 4.18C59.3416 3.88 59.3816 3.61 59.4816 3.37C59.6416 3.01 59.9016 2.74 60.2616 2.56C60.6216 2.38 60.9916 2.29 61.3716 2.29H62.0616C62.3816 2.31 62.6116 2.32 62.7516 2.32C62.9116 2.3 63.1516 2.29 63.4716 2.29H73.8516C74.1716 2.29 74.5416 2.28 74.9616 2.26C75.3816 2.24 75.7816 2.27 76.1616 2.35C76.5616 2.43 76.9116 2.58 77.2116 2.8C77.5316 3.02 77.7416 3.37 77.8416 3.85C77.9616 4.41 77.8716 4.84 77.5716 5.14C77.2916 5.42 76.9216 5.63 76.4616 5.77C76.0216 5.89 75.5516 5.96 75.0516 5.98C74.5516 5.98 74.1416 5.97 73.8216 5.95C73.5016 5.93 73.1616 5.92 72.8016 5.92C72.4616 5.9 72.1316 5.89 71.8116 5.89C71.4516 5.89 71.0916 5.9 70.7316 5.92V8.35C71.0116 8.51 71.2716 8.65 71.5116 8.77C71.6316 8.83 71.7416 8.9 71.8416 8.98C71.9616 9.04 72.0816 9.11 72.2016 9.19C72.4016 9.29 72.5916 9.39 72.7716 9.49C72.9716 9.59 73.1716 9.7 73.3716 9.82C73.7516 10.04 74.1216 10.26 74.4816 10.48C74.8616 10.7 75.2416 10.92 75.6216 11.14ZM60.1716 20.59C59.7116 20.57 59.2716 20.51 58.8516 20.41C58.4516 20.29 58.1216 20.03 57.8616 19.63C57.6416 19.29 57.5316 18.93 57.5316 18.55C57.5516 18.15 57.7016 17.81 57.9816 17.53C58.1416 17.37 58.3416 17.25 58.5816 17.17C58.8216 17.09 59.0516 17.03 59.2716 16.99C59.4916 16.95 59.6816 16.93 59.8416 16.93C60.0216 16.93 60.1216 16.93 60.1416 16.93H76.4916C76.8116 16.91 77.1516 16.91 77.5116 16.93C77.8916 16.95 78.2416 17.02 78.5616 17.14C78.8816 17.24 79.1516 17.42 79.3716 17.68C79.5916 17.92 79.7016 18.26 79.7016 18.7C79.7016 19.2 79.5316 19.58 79.1916 19.84C78.8516 20.08 78.4416 20.26 77.9616 20.38C77.5016 20.48 77.0216 20.54 76.5216 20.56C76.0216 20.56 75.6116 20.56 75.2916 20.56H74.1216C73.7216 20.58 73.3316 20.59 72.9516 20.59C72.5716 20.57 72.1816 20.56 71.7816 20.56H70.6416C70.6616 21.12 70.6816 21.71 70.7016 22.33C70.7216 22.95 70.6916 23.5 70.6116 23.98C70.5716 24.36 70.4716 24.72 70.3116 25.06C70.1716 25.42 69.9316 25.71 69.5916 25.93C69.2916 26.13 68.9416 26.23 68.5416 26.23C68.1416 26.25 67.7816 26.17 67.4616 25.99C67.2016 25.83 67.0016 25.6 66.8616 25.3C66.7416 25 66.6616 24.71 66.6216 24.43C66.5816 24.21 66.5616 23.97 66.5616 23.71C66.5816 23.45 66.5916 23.21 66.5916 22.99C66.5716 22.63 66.5616 22.24 66.5616 21.82C66.5616 21.38 66.5616 20.95 66.5616 20.53H65.8116C65.2516 20.53 64.7416 20.54 64.2816 20.56C63.8416 20.56 63.4116 20.57 62.9916 20.59C62.5716 20.59 62.1316 20.59 61.6716 20.59C61.2316 20.59 60.7316 20.59 60.1716 20.59Z" fill="#EDA1A1"/>
<path d="M86.0705 15.88C86.1905 15.76 86.3005 15.62 86.4005 15.46C86.5205 15.28 86.6105 15.16 86.6705 15.1V8.32C86.5705 8.36 86.4805 8.37 86.4005 8.35C86.3205 8.33 86.2305 8.32 86.1305 8.32H85.3205C84.6205 8.32 84.0105 8.31 83.4905 8.29C82.9905 8.27 82.6705 8.24 82.5305 8.2C82.1705 8.12 81.8605 7.99 81.6005 7.81C81.3605 7.61 81.1805 7.33 81.0605 6.97C81.0205 6.83 80.9905 6.7 80.9705 6.58C80.9505 6.46 80.9605 6.32 81.0005 6.16C81.0005 5.96 81.1005 5.71 81.3005 5.41C81.3605 5.31 81.4505 5.22 81.5705 5.14C81.6905 5.06 81.8105 4.99 81.9305 4.93C82.0505 4.83 82.1705 4.77 82.2905 4.75C82.4105 4.71 82.5305 4.67 82.6505 4.63H86.6105C86.6105 4.41 86.6205 4.11 86.6405 3.73C86.6605 3.33 86.6705 3.04 86.6705 2.86C86.7105 2.6 86.7705 2.37 86.8505 2.17C86.9305 1.95 87.0205 1.75 87.1205 1.57C87.3605 1.19 87.7105 0.939998 88.1705 0.819997C88.3905 0.719997 88.6105 0.679997 88.8305 0.699996C89.0705 0.719997 89.3005 0.779998 89.5205 0.879998C89.6805 0.939997 89.8205 1.03 89.9405 1.15C90.0805 1.25 90.1805 1.37 90.2405 1.51C90.4805 1.79 90.6305 2.07 90.6905 2.35C90.7305 2.51 90.7605 2.68 90.7805 2.86C90.8005 3.04 90.8105 3.22 90.8105 3.4V4.63H92.6405C93.0405 4.63 93.4405 4.64 93.8405 4.66C94.2605 4.68 94.6105 4.71 94.8905 4.75C95.1705 4.81 95.4205 4.92 95.6405 5.08C95.8805 5.22 96.0805 5.42 96.2405 5.68C96.4005 5.94 96.4805 6.22 96.4805 6.52C96.5405 6.74 96.5006 6.99 96.3605 7.27C96.1205 7.73 95.6505 8.04 94.9505 8.2C94.7305 8.24 94.4805 8.26 94.2005 8.26C93.9405 8.26 93.6605 8.28 93.3605 8.32C93.0405 8.32 92.6605 8.33 92.2205 8.35C91.7805 8.37 91.3105 8.36 90.8105 8.32C90.8105 8.48 90.8005 8.67 90.7805 8.89C90.7805 9.11 90.7805 9.33 90.7805 9.55C90.7805 9.77 90.7805 9.98 90.7805 10.18C90.7805 10.36 90.7905 10.51 90.8105 10.63V13.93C90.8105 14.03 90.8005 14.13 90.7805 14.23C90.7605 14.31 90.7705 14.41 90.8105 14.53V15.01C90.9105 15.09 91.0005 15.2 91.0805 15.34C91.1805 15.46 91.3105 15.6 91.4705 15.76C91.6105 15.88 91.7205 16 91.8005 16.12C91.9005 16.24 92.0005 16.35 92.1005 16.45C92.2005 16.57 92.2905 16.69 92.3705 16.81C92.4705 16.93 92.5805 17.05 92.7005 17.17C92.8005 17.27 92.9005 17.39 93.0005 17.53C93.1005 17.67 93.2105 17.8 93.3305 17.92C93.3905 18.02 93.4505 18.11 93.5105 18.19C93.5705 18.27 93.6305 18.34 93.6905 18.4C93.8105 18.58 93.9105 18.75 93.9905 18.91C94.1905 19.15 94.3805 19.4 94.5605 19.66C94.7405 19.9 94.9205 20.18 95.1005 20.5C95.3205 20.78 95.4905 21.07 95.6105 21.37C95.7505 21.65 95.8505 21.93 95.9105 22.21C95.9705 22.49 95.9705 22.78 95.9105 23.08C95.8505 23.38 95.7105 23.65 95.4905 23.89C95.2105 24.13 94.8405 24.25 94.3805 24.25C94.1605 24.25 93.9505 24.23 93.7505 24.19C93.5705 24.13 93.3705 24.05 93.1505 23.95C92.9505 23.83 92.7705 23.71 92.6105 23.59C92.4705 23.45 92.3205 23.32 92.1605 23.2C91.9805 23.02 91.8105 22.83 91.6505 22.63C91.4905 22.41 91.3305 22.21 91.1705 22.03C91.0105 21.85 90.8505 21.66 90.6905 21.46C90.5505 21.24 90.4005 21.02 90.2405 20.8C90.0205 20.58 89.7805 20.29 89.5205 19.93C89.4005 19.75 89.2605 19.6 89.1005 19.48C88.9605 19.34 88.8305 19.21 88.7105 19.09C88.5905 19.25 88.4705 19.41 88.3505 19.57C88.2305 19.71 88.1105 19.86 87.9905 20.02C87.8505 20.18 87.7205 20.33 87.6005 20.47C87.4805 20.61 87.3605 20.76 87.2405 20.92C87.1205 21.12 86.9805 21.32 86.8205 21.52C86.6805 21.72 86.5305 21.91 86.3705 22.09C86.2505 22.29 86.1105 22.49 85.9505 22.69C85.8105 22.89 85.6405 23.08 85.4405 23.26C85.0405 23.66 84.6605 23.94 84.3005 24.1C83.9605 24.24 83.6105 24.31 83.2505 24.31C83.1505 24.31 83.0505 24.31 82.9505 24.31C82.8705 24.31 82.7805 24.29 82.6805 24.25C82.2605 24.13 81.9505 23.86 81.7505 23.44C81.6105 23.12 81.5705 22.8 81.6305 22.48C81.6705 22.28 81.7105 22.1 81.7505 21.94C81.7905 21.76 81.8605 21.61 81.9605 21.49C82.0205 21.33 82.0905 21.18 82.1705 21.04C82.2505 20.88 82.3405 20.72 82.4405 20.56C82.5405 20.44 82.6305 20.31 82.7105 20.17C82.8105 20.03 82.9305 19.89 83.0705 19.75C83.1305 19.69 83.1905 19.62 83.2505 19.54C83.3105 19.46 83.3705 19.39 83.4305 19.33L83.7905 18.79C83.8505 18.65 83.9205 18.54 84.0005 18.46C84.0805 18.36 84.2005 18.2 84.3605 17.98C84.5205 17.8 84.6705 17.62 84.8105 17.44C84.9505 17.26 85.0805 17.09 85.2005 16.93C85.3605 16.75 85.5105 16.57 85.6505 16.39C85.8105 16.21 85.9505 16.04 86.0705 15.88ZM102.901 11.08C103.001 11.08 103.091 11.09 103.171 11.11C103.271 11.13 103.371 11.14 103.471 11.14C103.571 11.16 103.681 11.18 103.801 11.2C103.921 11.2 104.041 11.21 104.161 11.23C104.381 11.27 104.601 11.35 104.821 11.47C105.041 11.57 105.201 11.73 105.301 11.95C105.441 12.17 105.511 12.43 105.511 12.73C105.511 12.89 105.501 13.04 105.481 13.18C105.481 13.3 105.461 13.44 105.421 13.6C105.381 13.76 105.331 13.93 105.271 14.11C105.231 14.29 105.141 14.43 105.001 14.53C104.721 14.73 104.451 14.86 104.191 14.92C103.871 14.96 103.481 14.97 103.021 14.95C102.561 14.93 102.171 14.93 101.851 14.95C101.831 14.95 101.811 14.96 101.791 14.98H101.761L101.731 15.01V15.1C101.731 15.34 101.731 15.63 101.731 15.97C101.731 16.29 101.731 16.63 101.731 16.99C101.731 17.33 101.731 17.67 101.731 18.01C101.731 18.33 101.731 18.62 101.731 18.88C101.771 19.92 101.771 20.94 101.731 21.94V22.36C101.731 22.62 101.721 22.91 101.701 23.23C101.701 23.53 101.681 23.83 101.641 24.13C101.601 24.43 101.531 24.72 101.431 25C101.331 25.26 101.191 25.48 101.011 25.66C100.771 25.94 100.451 26.08 100.051 26.08C100.051 26.08 100.031 26.07 99.9905 26.05C99.5105 26.03 99.1205 25.89 98.8205 25.63C98.5405 25.37 98.3205 25.05 98.1605 24.67C98.0205 24.29 97.9305 23.9 97.8905 23.5C97.8505 23.08 97.8305 22.71 97.8305 22.39V4.57C97.8305 4.55 97.8305 4.46 97.8305 4.3C97.8305 4.12 97.8505 3.92 97.8905 3.7C97.9305 3.46 97.9905 3.22 98.0705 2.98C98.1705 2.72 98.3005 2.51 98.4605 2.35C98.6005 2.21 98.8005 2.11 99.0605 2.05C99.3405 1.97 99.5905 1.93 99.8105 1.93C100.251 1.93 100.621 2.08 100.921 2.38C101.201 2.66 101.361 2.96 101.401 3.28C101.461 3.58 101.511 3.9 101.551 4.24C101.571 4.32 101.581 4.44 101.581 4.6C101.621 4.94 101.641 5.29 101.641 5.65C101.661 6.01 101.681 6.37 101.701 6.73C101.701 6.95 101.701 7.17 101.701 7.39C101.721 7.59 101.731 7.8 101.731 8.02C101.711 8.14 101.701 8.26 101.701 8.38C101.721 8.48 101.731 8.58 101.731 8.68V10.36C101.731 10.46 101.731 10.57 101.731 10.69C101.731 10.81 101.751 10.92 101.791 11.02C101.791 11.04 101.891 11.05 102.091 11.05C102.291 11.05 102.401 11.05 102.421 11.05C102.601 11.09 102.741 11.1 102.841 11.08H102.901Z" fill="#EDA1A1"/>
<path d="M127.102 23.5C127.422 23.52 127.702 23.6 127.942 23.74C128.182 23.86 128.352 24.08 128.452 24.4C128.672 25.14 128.412 25.64 127.672 25.9C127.432 26 127.182 26.06 126.922 26.08C126.682 26.1 126.462 26.11 126.262 26.11H112.312C111.912 26.11 111.492 26.11 111.052 26.11C110.612 26.11 110.172 26.1 109.732 26.08C109.192 26.06 108.812 25.89 108.592 25.57C108.392 25.25 108.272 24.86 108.232 24.4L108.112 22.42C108.092 22.2 108.092 21.94 108.112 21.64C108.152 21.32 108.262 21.05 108.442 20.83C108.722 20.55 109.042 20.37 109.402 20.29C109.762 20.21 110.162 20.17 110.602 20.17H111.532C111.632 20.17 111.712 20.18 111.772 20.2C111.832 20.2 111.892 20.2 111.952 20.2H125.032V19.15H111.652C111.552 19.15 111.442 19.15 111.322 19.15C111.222 19.13 111.112 19.13 110.992 19.15H110.272C110.072 19.15 109.892 19.15 109.732 19.15C109.572 19.15 109.412 19.13 109.252 19.09C109.072 19.05 108.902 19.01 108.742 18.97C108.602 18.93 108.482 18.83 108.382 18.67C108.262 18.45 108.182 18.24 108.142 18.04C108.102 17.84 108.122 17.62 108.202 17.38C108.262 17.22 108.352 17.1 108.472 17.02C108.592 16.92 108.732 16.84 108.892 16.78C109.052 16.72 109.202 16.68 109.342 16.66C109.502 16.62 109.642 16.59 109.762 16.57C109.922 16.55 110.072 16.54 110.212 16.54C110.372 16.52 110.532 16.51 110.692 16.51H111.202C111.302 16.53 111.392 16.54 111.472 16.54C111.572 16.54 111.672 16.54 111.772 16.54H125.332C126.352 16.54 127.132 16.7 127.672 17.02C128.212 17.32 128.482 17.82 128.482 18.52V20.62C128.482 20.9 128.412 21.17 128.272 21.43C128.152 21.69 127.932 21.92 127.612 22.12C127.352 22.28 127.092 22.37 126.832 22.39C126.572 22.39 126.312 22.39 126.052 22.39H111.802V23.5H127.102ZM120.022 12.46C120.022 12.86 119.842 13.23 119.482 13.57C119.142 13.89 118.782 14.07 118.402 14.11C117.902 14.19 117.462 14.22 117.082 14.2C116.702 14.18 116.252 14.17 115.732 14.17C114.652 14.17 113.612 14.17 112.612 14.17C111.632 14.17 110.602 14.15 109.522 14.11C108.882 14.09 108.402 13.85 108.082 13.39C107.762 12.93 107.602 12.44 107.602 11.92C107.602 11.5 107.592 11.02 107.572 10.48C107.572 9.92 107.572 9.35 107.572 8.77C107.572 8.19 107.572 7.62 107.572 7.06C107.572 6.5 107.582 6.01 107.602 5.59C107.622 5.07 107.622 4.61 107.602 4.21C107.602 3.81 107.732 3.38 107.992 2.92C108.132 2.66 108.332 2.45 108.592 2.29C108.852 2.13 109.122 2.04 109.402 2.02C109.682 1.98 109.952 2.01 110.212 2.11C110.472 2.21 110.682 2.39 110.842 2.65C111.002 2.93 111.112 3.21 111.172 3.49C111.252 3.77 111.312 4.06 111.352 4.36C111.392 4.66 111.402 4.92 111.382 5.14C111.382 5.34 111.372 5.61 111.352 5.95H116.662V4.3C116.662 3.96 116.712 3.58 116.812 3.16C116.912 2.72 117.122 2.4 117.442 2.2C117.662 2.04 117.962 1.96 118.342 1.96C118.722 1.94 119.022 2.01 119.242 2.17C119.462 2.33 119.622 2.55 119.722 2.83C119.822 3.11 119.892 3.39 119.932 3.67C119.992 4.01 120.022 4.35 120.022 4.69V12.46ZM124.282 13.12C124.142 13.12 123.962 13.11 123.742 13.09C123.542 13.07 123.332 13.03 123.112 12.97C122.912 12.91 122.722 12.83 122.542 12.73C122.362 12.63 122.222 12.49 122.122 12.31C122.062 12.23 122.012 12.12 121.972 11.98C121.952 11.84 121.932 11.7 121.912 11.56C121.912 11.4 121.912 11.25 121.912 11.11C121.932 10.97 121.952 10.86 121.972 10.78C122.012 10.56 122.122 10.37 122.302 10.21C122.482 10.03 122.692 9.89 122.932 9.79C123.012 9.77 123.162 9.75 123.382 9.73C123.622 9.71 123.862 9.7 124.102 9.7H125.002C124.982 9.48 124.972 9.27 124.972 9.07V8.14H124.282C124.142 8.14 123.962 8.13 123.742 8.11C123.542 8.09 123.332 8.05 123.112 7.99C122.912 7.93 122.722 7.85 122.542 7.75C122.362 7.65 122.222 7.51 122.122 7.33C121.962 7.07 121.882 6.8 121.882 6.52C121.882 6.22 121.942 5.95 122.062 5.71C122.202 5.45 122.382 5.24 122.602 5.08C122.842 4.9 123.122 4.8 123.442 4.78C123.462 4.78 123.552 4.78 123.712 4.78C123.892 4.78 124.082 4.78 124.282 4.78C124.482 4.78 124.662 4.78 124.822 4.78C124.982 4.76 125.062 4.73 125.062 4.69C125.102 4.49 125.112 4.27 125.092 4.03C125.092 3.79 125.102 3.55 125.122 3.31C125.142 3.07 125.182 2.85 125.242 2.65C125.322 2.43 125.462 2.24 125.662 2.08C125.822 1.96 126.012 1.88 126.232 1.84C126.452 1.8 126.662 1.77 126.862 1.75C127.362 1.69 127.792 1.86 128.152 2.26C128.292 2.44 128.392 2.61 128.452 2.77C128.532 3.01 128.562 3.26 128.542 3.52C128.542 3.78 128.542 4.04 128.542 4.3V12.88C128.542 12.88 128.542 12.98 128.542 13.18C128.542 13.38 128.522 13.61 128.482 13.87C128.442 14.11 128.372 14.36 128.272 14.62C128.192 14.86 128.052 15.04 127.852 15.16C127.712 15.24 127.542 15.3 127.342 15.34C127.142 15.38 126.962 15.4 126.802 15.4C126.462 15.4 126.132 15.29 125.812 15.07C125.572 14.91 125.402 14.72 125.302 14.5C125.182 14.28 125.102 14.05 125.062 13.81C125.022 13.57 124.992 13.34 124.972 13.12H124.282ZM116.662 10.9C116.622 10.58 116.602 10.23 116.602 9.85C116.602 9.45 116.622 9.07 116.662 8.71H111.292C111.252 9.05 111.242 9.32 111.262 9.52C111.302 9.7 111.322 9.96 111.322 10.3C111.342 10.52 111.362 10.67 111.382 10.75C111.402 10.83 111.522 10.88 111.742 10.9C111.962 10.92 112.182 10.93 112.402 10.93C112.622 10.91 112.842 10.9 113.062 10.9H116.662Z" fill="#EDA1A1"/>
<path d="M148.668 14.83C148.528 14.85 148.208 14.86 147.708 14.86C147.228 14.86 146.708 14.86 146.148 14.86C145.588 14.84 145.058 14.83 144.558 14.83C144.058 14.83 143.728 14.83 143.568 14.83H143.538C143.178 14.83 142.818 14.83 142.458 14.83C142.118 14.81 141.788 14.78 141.468 14.74C141.148 14.68 140.858 14.59 140.598 14.47C140.338 14.35 140.128 14.17 139.968 13.93C139.788 13.67 139.658 13.34 139.578 12.94C139.518 12.54 139.468 12.16 139.428 11.8C139.408 11.42 139.398 11.09 139.398 10.81C139.418 10.53 139.428 10.38 139.428 10.36V9.7C139.428 9.48 139.428 9.23 139.428 8.95C139.428 8.67 139.438 8.36 139.458 8.02C139.458 7.66 139.458 7.31 139.458 6.97C139.478 6.61 139.488 6.29 139.488 6.01V5.05C139.488 4.99 139.488 4.88 139.488 4.72C139.488 4.56 139.498 4.39 139.518 4.21C139.538 4.01 139.568 3.82 139.608 3.64C139.648 3.44 139.708 3.28 139.788 3.16C139.968 2.88 140.148 2.68 140.328 2.56C140.528 2.42 140.778 2.32 141.078 2.26C141.178 2.24 141.328 2.23 141.528 2.23C141.728 2.21 141.918 2.19 142.098 2.17C142.318 2.15 142.548 2.14 142.788 2.14H149.568C150.008 2.14 150.468 2.18 150.948 2.26C151.448 2.32 151.888 2.47 152.268 2.71C152.568 2.89 152.778 3.12 152.898 3.4C153.018 3.68 153.098 3.98 153.138 4.3C153.178 4.62 153.188 4.95 153.168 5.29C153.148 5.61 153.138 5.91 153.138 6.19C153.138 6.51 153.128 6.83 153.108 7.15C153.108 7.45 153.118 7.76 153.138 8.08V9.73C153.118 9.83 153.108 9.94 153.108 10.06C153.128 10.18 153.138 10.3 153.138 10.42C153.098 10.68 153.088 10.94 153.108 11.2C153.128 11.44 153.138 11.7 153.138 11.98C153.138 12.2 153.118 12.44 153.078 12.7C153.058 12.94 152.998 13.19 152.898 13.45C152.818 13.69 152.698 13.91 152.538 14.11C152.398 14.31 152.208 14.45 151.968 14.53C151.448 14.75 150.898 14.86 150.318 14.86C149.758 14.84 149.208 14.83 148.668 14.83ZM159.318 22.63C159.718 22.81 160.078 23 160.398 23.2C160.718 23.38 161.038 23.61 161.358 23.89C161.538 24.05 161.658 24.25 161.718 24.49C161.778 24.71 161.778 24.93 161.718 25.15C161.678 25.37 161.578 25.57 161.418 25.75C161.278 25.93 161.078 26.05 160.818 26.11C160.158 26.25 159.488 26.24 158.808 26.08C158.128 25.92 157.498 25.7 156.918 25.42C156.798 25.36 156.598 25.25 156.318 25.09C156.038 24.95 155.718 24.78 155.358 24.58C154.998 24.38 154.618 24.17 154.218 23.95C153.838 23.73 153.468 23.52 153.108 23.32C152.748 23.12 152.418 22.95 152.118 22.81C151.838 22.65 151.628 22.54 151.488 22.48C151.408 22.52 151.158 22.67 150.738 22.93C150.318 23.17 149.858 23.44 149.358 23.74C148.858 24.02 148.398 24.29 147.978 24.55C147.558 24.79 147.318 24.93 147.258 24.97C146.918 25.15 146.568 25.32 146.208 25.48C145.868 25.66 145.518 25.82 145.158 25.96C144.798 26.1 144.418 26.2 144.018 26.26C143.618 26.34 143.228 26.33 142.848 26.23C142.588 26.17 142.338 26.05 142.098 25.87C141.878 25.71 141.748 25.51 141.708 25.27C141.668 25.15 141.658 25.03 141.678 24.91C141.698 24.77 141.728 24.65 141.768 24.55C141.848 24.23 142.018 23.97 142.278 23.77C142.558 23.57 142.848 23.39 143.148 23.23C143.488 23.03 143.838 22.84 144.198 22.66C144.558 22.48 144.918 22.3 145.278 22.12C145.658 21.92 146.028 21.73 146.388 21.55C146.748 21.37 147.108 21.18 147.468 20.98C147.488 20.96 147.598 20.9 147.798 20.8C147.998 20.7 148.208 20.59 148.428 20.47C148.668 20.35 148.888 20.24 149.088 20.14C149.288 20.02 149.388 19.94 149.388 19.9H144.558C144.158 19.86 143.798 19.79 143.478 19.69C143.198 19.59 142.928 19.46 142.668 19.3C142.428 19.14 142.278 18.92 142.218 18.64C142.178 18.24 142.258 17.84 142.458 17.44C142.658 17.04 142.998 16.82 143.478 16.78C143.618 16.76 143.758 16.75 143.898 16.75C144.058 16.75 144.218 16.75 144.378 16.75H157.788C158.148 16.75 158.508 16.76 158.868 16.78C159.228 16.78 159.558 16.82 159.858 16.9C160.158 16.98 160.408 17.12 160.608 17.32C160.828 17.52 160.968 17.8 161.028 18.16C160.988 18.6 160.868 18.94 160.668 19.18C160.468 19.42 160.228 19.6 159.948 19.72C159.668 19.82 159.348 19.88 158.988 19.9C158.648 19.92 158.318 19.92 157.998 19.9H154.008C154.048 19.92 154.198 20.01 154.458 20.17C154.738 20.31 155.058 20.48 155.418 20.68C155.798 20.88 156.198 21.09 156.618 21.31C157.058 21.53 157.458 21.74 157.818 21.94C158.198 22.12 158.528 22.28 158.808 22.42C159.088 22.56 159.258 22.63 159.318 22.63ZM160.668 4.54C160.668 4.52 160.668 4.64 160.668 4.9C160.668 5.16 160.668 5.47 160.668 5.83C160.668 6.17 160.668 6.51 160.668 6.85C160.668 7.19 160.668 7.43 160.668 7.57C160.748 7.57 160.898 7.58 161.118 7.6C161.338 7.6 161.568 7.61 161.808 7.63C162.048 7.63 162.278 7.64 162.498 7.66C162.718 7.68 162.878 7.7 162.978 7.72C163.378 7.8 163.658 7.92 163.818 8.08C163.978 8.22 164.078 8.4 164.118 8.62C164.178 8.84 164.208 9.1 164.208 9.4C164.208 9.68 164.148 9.92 164.028 10.12C163.788 10.52 163.428 10.75 162.948 10.81C162.468 10.85 161.938 10.88 161.358 10.9H160.668V13.27C160.648 13.49 160.618 13.72 160.578 13.96C160.538 14.18 160.458 14.4 160.338 14.62C160.218 14.86 160.048 15.06 159.828 15.22C159.548 15.42 159.218 15.52 158.838 15.52C158.498 15.52 158.218 15.45 157.998 15.31C157.798 15.19 157.638 15.04 157.518 14.86C157.398 14.68 157.298 14.51 157.218 14.35C157.158 14.17 157.118 14.02 157.098 13.9C157.078 13.76 157.068 13.69 157.068 13.69V4.15C157.048 4.07 157.058 3.85 157.098 3.49C157.138 3.13 157.218 2.83 157.338 2.59C157.538 2.17 157.938 1.93 158.538 1.87C159.278 1.77 159.828 1.92 160.188 2.32C160.308 2.48 160.388 2.64 160.428 2.8C160.488 2.94 160.538 3.09 160.578 3.25C160.638 3.45 160.668 3.66 160.668 3.88C160.688 4.1 160.688 4.32 160.668 4.54ZM144.828 5.89C144.648 5.89 144.478 5.89 144.318 5.89C144.178 5.89 144.048 5.91 143.928 5.95C143.648 5.97 143.418 6.09 143.238 6.31C143.158 6.41 143.108 6.56 143.088 6.76C143.088 6.96 143.088 7.08 143.088 7.12V8.38C143.068 8.54 143.058 8.69 143.058 8.83C143.058 8.95 143.058 9.06 143.058 9.16V9.52C143.058 9.52 143.058 9.58 143.058 9.7C143.058 9.82 143.058 9.96 143.058 10.12C143.078 10.28 143.108 10.44 143.148 10.6C143.188 10.76 143.258 10.9 143.358 11.02C143.518 11.22 143.778 11.34 144.138 11.38C144.498 11.4 144.858 11.41 145.218 11.41H145.248C145.768 11.39 146.198 11.39 146.538 11.41C146.878 11.41 147.318 11.41 147.858 11.41C148.018 11.41 148.178 11.42 148.338 11.44C148.518 11.44 148.688 11.42 148.848 11.38C149.008 11.36 149.118 11.31 149.178 11.23C149.238 11.15 149.288 11.05 149.328 10.93C149.368 10.77 149.388 10.64 149.388 10.54C149.468 10.16 149.508 9.73 149.508 9.25C149.508 8.93 149.508 8.61 149.508 8.29C149.528 7.97 149.528 7.65 149.508 7.33C149.488 7.17 149.478 7.01 149.478 6.85C149.498 6.69 149.488 6.53 149.448 6.37C149.368 6.15 149.238 6.03 149.058 6.01C148.878 5.97 148.698 5.95 148.518 5.95L144.828 5.89Z" fill="#EDA1A1"/>
<path d="M167.128 25.54C166.968 25.44 166.838 25.32 166.738 25.18C166.658 25.06 166.568 24.87 166.468 24.61C166.348 24.19 166.308 23.76 166.348 23.32C166.388 22.86 166.408 22.42 166.408 22V20.59C166.408 20.25 166.458 19.8 166.558 19.24C166.618 18.94 166.738 18.69 166.918 18.49C167.098 18.27 167.308 18.1 167.548 17.98C167.808 17.86 168.078 17.78 168.358 17.74C168.658 17.68 168.948 17.65 169.228 17.65H174.658V15.94H170.578C170.198 15.94 169.818 15.94 169.438 15.94C169.058 15.92 168.688 15.88 168.328 15.82C168.108 15.82 167.868 15.83 167.608 15.85C167.348 15.85 167.078 15.85 166.798 15.85C166.538 15.83 166.278 15.8 166.018 15.76C165.778 15.7 165.568 15.61 165.388 15.49C165.188 15.39 165.038 15.24 164.938 15.04C164.838 14.84 164.778 14.63 164.758 14.41C164.738 14.19 164.758 13.98 164.818 13.78C164.878 13.56 164.978 13.38 165.118 13.24C165.358 13.02 165.658 12.87 166.018 12.79C166.378 12.69 166.728 12.64 167.068 12.64H186.268C186.408 12.64 186.558 12.66 186.718 12.7C186.878 12.74 187.018 12.78 187.138 12.82C187.498 12.9 187.778 13.07 187.978 13.33C188.178 13.59 188.288 13.87 188.308 14.17C188.348 14.47 188.288 14.76 188.128 15.04C187.988 15.32 187.748 15.53 187.408 15.67C186.928 15.83 186.468 15.92 186.028 15.94C185.608 15.94 185.168 15.96 184.708 16H178.768V17.65H183.358C183.578 17.65 183.778 17.66 183.958 17.68C184.138 17.68 184.338 17.7 184.558 17.74C185.198 17.8 185.698 17.98 186.058 18.28C186.438 18.58 186.658 19.07 186.718 19.75C186.758 19.93 186.778 20.12 186.778 20.32C186.778 20.52 186.778 20.72 186.778 20.92V22.27C186.778 22.49 186.768 22.72 186.748 22.96C186.728 23.18 186.718 23.4 186.718 23.62C186.658 23.96 186.598 24.32 186.538 24.7C186.478 25.06 186.308 25.37 186.028 25.63C185.828 25.79 185.578 25.88 185.278 25.9C184.998 25.92 184.718 25.93 184.438 25.93C184.418 25.93 184.178 25.93 183.718 25.93C183.258 25.93 182.658 25.93 181.918 25.93C181.198 25.93 180.368 25.92 179.428 25.9C178.488 25.9 177.528 25.9 176.548 25.9C174.268 25.9 171.668 25.89 168.748 25.87C168.448 25.87 168.158 25.85 167.878 25.81C167.598 25.77 167.348 25.68 167.128 25.54ZM183.628 8.11C183.828 8.21 184.018 8.31 184.198 8.41C184.378 8.49 184.588 8.59 184.828 8.71C185.028 8.87 185.228 9.04 185.428 9.22C185.628 9.38 185.788 9.57 185.908 9.79C186.048 9.99 186.118 10.21 186.118 10.45C186.138 10.69 186.058 10.95 185.878 11.23C185.658 11.57 185.348 11.77 184.948 11.83C184.548 11.87 184.128 11.84 183.688 11.74C183.248 11.64 182.818 11.51 182.398 11.35C181.978 11.17 181.638 11.02 181.378 10.9C181.078 10.76 180.798 10.65 180.538 10.57C180.298 10.47 180.078 10.35 179.878 10.21C179.598 10.09 179.348 9.97 179.128 9.85C178.908 9.71 178.678 9.58 178.438 9.46C178.338 9.42 178.238 9.38 178.138 9.34C178.058 9.3 177.968 9.26 177.868 9.22C177.768 9.12 177.648 9.05 177.508 9.01C177.388 8.97 177.278 8.9 177.178 8.8C176.918 8.7 176.638 8.57 176.338 8.41C176.178 8.51 176.008 8.59 175.828 8.65C175.668 8.71 175.508 8.78 175.348 8.86C175.208 8.92 175.068 8.99 174.928 9.07C174.788 9.13 174.638 9.18 174.478 9.22C174.358 9.26 174.258 9.32 174.178 9.4C174.098 9.46 174.008 9.51 173.908 9.55C173.668 9.67 173.418 9.79 173.158 9.91C172.918 10.01 172.668 10.11 172.408 10.21C172.188 10.29 171.958 10.39 171.718 10.51C171.498 10.63 171.258 10.76 170.998 10.9C170.778 10.98 170.578 11.06 170.398 11.14C170.218 11.22 170.028 11.3 169.828 11.38C169.568 11.5 169.268 11.6 168.928 11.68C168.608 11.74 168.298 11.75 167.998 11.71C167.698 11.67 167.428 11.56 167.188 11.38C166.968 11.2 166.838 10.92 166.798 10.54C166.798 10.44 166.798 10.34 166.798 10.24C166.818 10.12 166.848 10 166.888 9.88C166.928 9.76 166.968 9.64 167.008 9.52C167.068 9.38 167.138 9.25 167.218 9.13C167.338 9.05 167.458 8.97 167.578 8.89C167.718 8.81 167.848 8.73 167.968 8.65L170.038 7.63C170.198 7.51 170.348 7.42 170.488 7.36C170.648 7.3 170.788 7.22 170.908 7.12C171.068 7.08 171.218 7.03 171.358 6.97C171.518 6.89 171.698 6.81 171.898 6.73C171.998 6.67 172.078 6.62 172.138 6.58C172.218 6.54 172.308 6.5 172.408 6.46C172.528 6.36 172.638 6.29 172.738 6.25C172.858 6.21 172.978 6.17 173.098 6.13H170.308C170.008 6.13 169.628 6.13 169.168 6.13C168.728 6.13 168.368 6.04 168.088 5.86C167.988 5.82 167.898 5.75 167.818 5.65C167.738 5.53 167.648 5.4 167.548 5.26C167.468 5.18 167.418 5.09 167.398 4.99C167.378 4.87 167.348 4.74 167.308 4.6C167.308 4.48 167.318 4.37 167.338 4.27C167.378 4.17 167.418 4.07 167.458 3.97C167.618 3.67 167.828 3.45 168.088 3.31C168.348 3.17 168.628 3.08 168.928 3.04C169.248 2.98 169.558 2.96 169.858 2.98C170.178 2.98 170.468 2.97 170.728 2.95H174.328V2.02C174.328 1.56 174.518 1.21 174.898 0.969997C175.298 0.729997 175.738 0.599998 176.218 0.579998C176.718 0.559997 177.178 0.649997 177.598 0.849996C178.038 1.05 178.288 1.36 178.348 1.78V2.95H181.828C182.228 2.95 182.628 2.94 183.028 2.92C183.428 2.9 183.818 2.93 184.198 3.01C184.418 3.05 184.618 3.1 184.798 3.16C184.978 3.22 185.148 3.32 185.308 3.46C185.428 3.56 185.538 3.69 185.638 3.85C185.758 3.99 185.838 4.16 185.878 4.36C185.958 4.84 185.878 5.2 185.638 5.44C185.338 5.68 185.018 5.85 184.678 5.95C184.338 6.03 183.988 6.07 183.628 6.07C183.168 6.11 182.708 6.13 182.248 6.13C181.788 6.13 181.328 6.13 180.868 6.13H179.878C179.878 6.17 179.938 6.22 180.058 6.28C180.158 6.28 180.208 6.32 180.208 6.4C180.328 6.44 180.428 6.48 180.508 6.52C180.588 6.54 180.678 6.57 180.778 6.61C180.918 6.67 181.028 6.73 181.108 6.79C181.188 6.85 181.278 6.9 181.378 6.94C181.578 7.04 181.758 7.14 181.918 7.24C182.098 7.32 182.298 7.42 182.518 7.54C182.678 7.64 182.858 7.73 183.058 7.81C183.278 7.89 183.468 7.99 183.628 8.11ZM169.978 22.51C169.978 22.59 169.988 22.64 170.008 22.66C170.008 22.68 170.018 22.69 170.038 22.69C170.118 22.75 170.208 22.78 170.308 22.78C170.768 22.82 171.218 22.84 171.658 22.84C172.098 22.84 172.558 22.84 173.038 22.84C173.758 22.88 174.448 22.91 175.108 22.93C175.768 22.93 176.418 22.93 177.058 22.93C177.718 22.93 178.378 22.93 179.038 22.93C179.718 22.91 180.438 22.88 181.198 22.84C181.238 22.84 181.318 22.84 181.438 22.84C181.578 22.84 181.718 22.84 181.858 22.84C182.018 22.84 182.158 22.84 182.278 22.84C182.398 22.82 182.478 22.8 182.518 22.78C182.818 22.74 182.978 22.6 182.998 22.36C183.018 22.12 183.028 21.86 183.028 21.58C183.028 21.42 182.968 21.26 182.848 21.1C182.708 20.94 182.528 20.86 182.308 20.86C182.148 20.86 182.008 20.85 181.888 20.83C181.788 20.79 181.698 20.77 181.618 20.77H171.898C171.698 20.81 171.488 20.82 171.268 20.8C171.068 20.78 170.868 20.77 170.668 20.77C170.588 20.77 170.498 20.79 170.398 20.83C170.318 20.85 170.258 20.86 170.218 20.86C170.178 20.86 170.138 20.88 170.098 20.92C170.058 20.96 170.038 21.05 170.038 21.19C170.018 21.21 169.998 21.29 169.978 21.43C169.978 21.55 169.978 21.69 169.978 21.85C169.978 22.01 169.978 22.16 169.978 22.3C169.978 22.42 169.978 22.49 169.978 22.51Z" fill="#EDA1A1"/>
<path d="M199.08 21.4C199.08 20.5 199.34 19.75 199.86 19.15C200.4 18.55 201.12 18.08 202.02 17.74C202.92 17.38 203.98 17.13 205.2 16.99C206.42 16.85 207.72 16.78 209.1 16.78C210.48 16.78 211.78 16.83 213 16.93C214.22 17.03 215.28 17.25 216.18 17.59C217.08 17.91 217.79 18.37 218.31 18.97C218.85 19.57 219.12 20.38 219.12 21.4C219.12 22.4 218.85 23.2 218.31 23.8C217.79 24.4 217.08 24.86 216.18 25.18C215.28 25.52 214.22 25.74 213 25.84C211.78 25.96 210.48 26.02 209.1 26.02C207.72 26.02 206.42 25.96 205.2 25.84C203.98 25.74 202.92 25.52 202.02 25.18C201.12 24.86 200.4 24.4 199.86 23.8C199.34 23.2 199.08 22.4 199.08 21.4ZM206.73 5.59C206.73 5.59 206.72 5.71 206.7 5.95C206.7 6.19 206.7 6.46 206.7 6.76C206.7 7.06 206.7 7.34 206.7 7.6C206.72 7.86 206.73 8.01 206.73 8.05C206.83 8.15 207.01 8.32 207.27 8.56C207.53 8.78 207.75 8.97 207.93 9.13C208.13 9.29 208.33 9.47 208.53 9.67C208.75 9.85 208.97 10.05 209.19 10.27C209.33 10.41 209.46 10.55 209.58 10.69C209.7 10.81 209.81 10.92 209.91 11.02C210.29 11.4 210.67 11.81 211.05 12.25C211.43 12.69 211.69 13.14 211.83 13.6C211.89 13.78 211.9 13.98 211.86 14.2C211.82 14.42 211.69 14.61 211.47 14.77C211.13 14.97 210.77 15.07 210.39 15.07C209.95 15.07 209.53 14.98 209.13 14.8C208.73 14.62 208.41 14.44 208.17 14.26C207.79 13.98 207.44 13.69 207.12 13.39C206.8 13.07 206.48 12.75 206.16 12.43C205.94 12.21 205.69 11.96 205.41 11.68C205.13 11.38 204.85 11.12 204.57 10.9L203.76 11.71C203.62 11.85 203.48 11.99 203.34 12.13C203.2 12.25 203.07 12.38 202.95 12.52C202.69 12.8 202.42 13.09 202.14 13.39C201.86 13.67 201.54 13.94 201.18 14.2C200.36 14.8 199.59 15.1 198.87 15.1C198.77 15.1 198.68 15.1 198.6 15.1C198.54 15.1 198.46 15.08 198.36 15.04C197.92 14.94 197.63 14.76 197.49 14.5C197.35 14.28 197.3 14.03 197.34 13.75C197.4 13.47 197.49 13.22 197.61 13C197.77 12.78 197.95 12.57 198.15 12.37C198.35 12.15 198.55 11.93 198.75 11.71C198.93 11.51 199.21 11.23 199.59 10.87C199.99 10.49 200.39 10.11 200.79 9.73C201.19 9.33 201.56 8.97 201.9 8.65C202.24 8.33 202.45 8.13 202.53 8.05V5.59H200.61C200.37 5.59 200.09 5.6 199.77 5.62C199.45 5.62 199.13 5.6 198.81 5.56C198.51 5.52 198.23 5.44 197.97 5.32C197.71 5.18 197.52 4.96 197.4 4.66C197.3 4.44 197.23 4.19 197.19 3.91C197.17 3.63 197.19 3.37 197.25 3.13C197.33 2.85 197.51 2.66 197.79 2.56C198.07 2.44 198.34 2.36 198.6 2.32C198.64 2.32 198.8 2.32 199.08 2.32C199.38 2.32 199.7 2.32 200.04 2.32C200.38 2.32 200.7 2.32 201 2.32C201.3 2.32 201.48 2.31 201.54 2.29H208.56C209.36 2.29 210.03 2.34 210.57 2.44C211.13 2.54 211.58 2.79 211.92 3.19C212.02 3.31 212.08 3.47 212.1 3.67C212.14 3.87 212.14 4.08 212.1 4.3C212.08 4.5 212.02 4.69 211.92 4.87C211.84 5.05 211.72 5.18 211.56 5.26C211.4 5.32 211.21 5.39 210.99 5.47C210.77 5.53 210.58 5.57 210.42 5.59C210.14 5.61 209.85 5.62 209.55 5.62C209.27 5.6 208.99 5.59 208.71 5.59H206.73ZM213.51 10.66C212.93 10.62 212.41 10.59 211.95 10.57C211.49 10.53 211.13 10.31 210.87 9.91C210.75 9.71 210.69 9.45 210.69 9.13C210.69 8.81 210.71 8.54 210.75 8.32C210.81 8.1 210.92 7.92 211.08 7.78C211.24 7.62 211.52 7.49 211.92 7.39C212 7.37 212.19 7.36 212.49 7.36C212.81 7.34 213.15 7.33 213.51 7.33C213.87 7.31 214.21 7.3 214.53 7.3C214.85 7.28 215.05 7.27 215.13 7.27V4.42C215.11 4.2 215.1 3.98 215.1 3.76C215.12 3.54 215.16 3.32 215.22 3.1C215.26 2.94 215.3 2.79 215.34 2.65C215.38 2.51 215.47 2.36 215.61 2.2C215.77 2 215.99 1.86 216.27 1.78C216.57 1.7 216.89 1.68 217.23 1.72C217.53 1.76 217.8 1.85 218.04 1.99C218.28 2.11 218.45 2.27 218.55 2.47C218.67 2.71 218.74 3.01 218.76 3.37C218.8 3.71 218.82 3.92 218.82 4V14.29H218.79C218.79 14.31 218.78 14.38 218.76 14.5C218.74 14.62 218.7 14.77 218.64 14.95C218.58 15.11 218.49 15.28 218.37 15.46C218.25 15.64 218.09 15.79 217.89 15.91C217.61 16.07 217.3 16.15 216.96 16.15C216.62 16.15 216.29 16.04 215.97 15.82C215.73 15.66 215.56 15.46 215.46 15.22C215.34 15 215.26 14.78 215.22 14.56C215.18 14.34 215.15 14.12 215.13 13.9V10.66H213.51ZM215.07 21.4C215.07 21.06 214.89 20.79 214.53 20.59C214.17 20.39 213.7 20.24 213.12 20.14C212.56 20.04 211.92 19.98 211.2 19.96C210.5 19.92 209.8 19.9 209.1 19.9C208.4 19.9 207.7 19.92 207 19.96C206.32 19.98 205.7 20.04 205.14 20.14C204.6 20.24 204.16 20.39 203.82 20.59C203.48 20.79 203.31 21.06 203.31 21.4C203.31 21.7 203.48 21.95 203.82 22.15C204.16 22.35 204.6 22.5 205.14 22.6C205.7 22.7 206.32 22.77 207 22.81C207.7 22.85 208.4 22.87 209.1 22.87C209.8 22.87 210.5 22.87 211.2 22.87C211.92 22.87 212.56 22.83 213.12 22.75C213.7 22.67 214.17 22.53 214.53 22.33C214.89 22.11 215.07 21.8 215.07 21.4Z" fill="#EDA1A1"/>
<path d="M241.5 20.56C241.56 20.58 241.62 20.59 241.68 20.59C241.74 20.57 241.8 20.56 241.86 20.56C242.2 20.6 242.51 20.67 242.79 20.77C243.09 20.85 243.38 21.01 243.66 21.25C243.94 21.53 244.08 21.88 244.08 22.3C244.08 22.52 244.04 22.76 243.96 23.02C243.9 23.26 243.81 23.45 243.69 23.59C243.53 23.75 243.33 23.87 243.09 23.95C242.85 24.03 242.62 24.09 242.4 24.13C242.18 24.15 241.98 24.16 241.8 24.16C241.64 24.16 241.55 24.16 241.53 24.16H224.73C224.63 24.16 224.53 24.17 224.43 24.19C224.33 24.19 224.23 24.19 224.13 24.19C223.71 24.21 223.26 24.21 222.78 24.19C222.3 24.15 221.89 23.99 221.55 23.71C221.13 23.33 220.92 22.9 220.92 22.42C220.92 22.12 221.01 21.81 221.19 21.49C221.37 21.17 221.61 20.95 221.91 20.83C222.31 20.67 222.72 20.59 223.14 20.59C223.58 20.59 224.02 20.58 224.46 20.56H224.61C226.35 20.52 228.14 20.52 229.98 20.56L229.95 16.42C229.19 16.44 228.5 16.45 227.88 16.45C227.28 16.45 226.8 16.43 226.44 16.39C226.02 16.37 225.56 16.34 225.06 16.3C224.56 16.24 224.14 16.08 223.8 15.82C223.58 15.64 223.4 15.39 223.26 15.07C223.14 14.75 223.05 14.43 222.99 14.11C222.93 13.79 222.89 13.51 222.87 13.27C222.87 13.01 222.87 12.87 222.87 12.85V6.4C222.87 6 222.85 5.6 222.81 5.2C222.79 4.8 222.82 4.4 222.9 4C222.96 3.76 223.06 3.57 223.2 3.43C223.36 3.27 223.54 3.15 223.74 3.07C223.96 2.97 224.19 2.9 224.43 2.86C224.69 2.82 224.93 2.79 225.15 2.77C225.33 2.77 225.52 2.78 225.72 2.8C225.92 2.82 226.11 2.87 226.29 2.95C226.47 3.01 226.62 3.11 226.74 3.25C226.88 3.37 226.97 3.53 227.01 3.73C227.03 3.83 227.03 4.02 227.01 4.3C227.01 4.58 227.01 4.89 227.01 5.23C227.01 5.55 227.01 5.86 227.01 6.16C227.03 6.44 227.06 6.62 227.1 6.7C227.14 6.8 227.24 6.87 227.4 6.91C227.58 6.93 227.72 6.95 227.82 6.97C228.28 7.01 228.64 7.02 228.9 7C229.16 6.96 229.52 6.94 229.98 6.94L236.85 6.97C237.07 6.99 237.25 6.99 237.39 6.97C237.55 6.93 237.66 6.8 237.72 6.58C237.72 6.48 237.72 6.31 237.72 6.07C237.74 5.81 237.75 5.55 237.75 5.29C237.75 5.01 237.75 4.76 237.75 4.54C237.77 4.3 237.78 4.14 237.78 4.06C237.8 3.7 237.87 3.42 237.99 3.22C238.13 3 238.39 2.85 238.77 2.77C239.17 2.67 239.6 2.65 240.06 2.71C240.54 2.75 240.89 2.88 241.11 3.1C241.43 3.44 241.61 3.83 241.65 4.27C241.69 4.71 241.71 5.32 241.71 6.1C241.69 6.56 241.68 7.16 241.68 7.9C241.7 8.62 241.71 9.37 241.71 10.15C241.71 10.93 241.7 11.68 241.68 12.4C241.68 13.12 241.66 13.71 241.62 14.17C241.52 15.39 240.89 16.09 239.73 16.27C239.43 16.31 239.09 16.33 238.71 16.33C238.35 16.33 238.02 16.33 237.72 16.33C237.08 16.35 236.45 16.36 235.83 16.36C235.21 16.36 234.6 16.36 234 16.36L234.06 20.56C234.56 20.56 235.03 20.56 235.47 20.56C235.93 20.54 236.37 20.53 236.79 20.53C237.21 20.53 237.64 20.53 238.08 20.53C238.52 20.53 238.98 20.54 239.46 20.56C239.82 20.58 240.17 20.58 240.51 20.56C240.85 20.52 241.18 20.52 241.5 20.56ZM227.1 12.55C227.18 12.85 227.39 13.03 227.73 13.09C228.09 13.13 228.44 13.16 228.78 13.18C228.82 13.18 229.01 13.18 229.35 13.18C229.69 13.16 230.1 13.15 230.58 13.15C231.06 13.15 231.57 13.15 232.11 13.15C232.67 13.13 233.19 13.12 233.67 13.12C234.17 13.12 234.59 13.13 234.93 13.15C235.27 13.15 235.47 13.15 235.53 13.15C235.69 13.17 235.85 13.18 236.01 13.18C236.19 13.16 236.36 13.16 236.52 13.18C236.62 13.18 236.73 13.19 236.85 13.21C236.99 13.23 237.12 13.23 237.24 13.21C237.36 13.19 237.46 13.14 237.54 13.06C237.62 12.98 237.66 12.86 237.66 12.7C237.66 12.62 237.66 12.5 237.66 12.34C237.66 12.16 237.66 11.97 237.66 11.77C237.66 11.55 237.65 11.34 237.63 11.14C237.63 10.92 237.61 10.74 237.57 10.6C237.51 10.36 237.41 10.23 237.27 10.21C237.15 10.17 236.99 10.16 236.79 10.18C236.69 10.18 236.53 10.19 236.31 10.21C236.11 10.21 235.96 10.2 235.86 10.18H229.02C228.84 10.18 228.64 10.18 228.42 10.18C228.2 10.16 227.99 10.17 227.79 10.21C227.61 10.23 227.45 10.3 227.31 10.42C227.17 10.52 227.09 10.69 227.07 10.93C227.07 10.99 227.07 11.1 227.07 11.26C227.07 11.42 227.07 11.59 227.07 11.77C227.07 11.95 227.07 12.12 227.07 12.28C227.09 12.42 227.1 12.51 227.1 12.55Z" fill="#EDA1A1"/>
</svg>
