<svg width="244" height="27" viewBox="0 0 244 27" fill="none" xmlns="http://www.w3.org/2000/svg">
<path d="M0.782299 15.37C0.502299 15.25 0.302299 15.02 0.182299 14.68C0.0222992 14.28 -0.00770076 13.88 0.0922992 13.48C0.212299 13.08 0.392299 12.7 0.632299 12.34C0.872299 11.98 1.1423 11.64 1.4423 11.32C1.7623 11 2.0323 10.7 2.2523 10.42C2.5923 10 2.9223 9.58 3.2423 9.16C3.5623 8.74 3.8923 8.31 4.2323 7.87C4.4723 7.53 4.7223 7.13 4.9823 6.67C5.2423 6.21 5.3923 5.76 5.4323 5.32C5.4323 5.2 5.4423 5.05 5.4623 4.87C5.4823 4.67 5.4923 4.47 5.4923 4.27C5.5123 4.05 5.5323 3.85 5.5523 3.67C5.5723 3.49 5.6023 3.34 5.6423 3.22C5.7623 2.82 5.9523 2.55 6.2123 2.41C6.4923 2.25 6.9123 2.17 7.4723 2.17C7.7923 2.17 8.1523 2.23 8.5523 2.35C8.9523 2.45 9.2223 2.66 9.3623 2.98C9.5023 3.34 9.5423 3.76 9.4823 4.24C9.4423 4.7 9.4823 5.12 9.6023 5.5C9.7023 5.8 9.8523 6.11 10.0523 6.43C10.2523 6.75 10.4623 7.07 10.6823 7.39C11.0623 7.93 11.4423 8.52 11.8223 9.16C12.2023 9.78 12.5523 10.31 12.8723 10.75C13.1923 11.17 13.5023 11.61 13.8023 12.07C14.1023 12.51 14.3023 12.99 14.4023 13.51C14.5023 13.95 14.4523 14.32 14.2523 14.62C14.0723 14.9 13.8223 15.11 13.5023 15.25C13.1823 15.37 12.8323 15.4 12.4523 15.34C12.0723 15.26 11.7423 15.08 11.4623 14.8C10.7223 14.04 10.0523 13.23 9.4523 12.37C8.8523 11.49 8.2323 10.63 7.5923 9.79C7.5923 9.79 7.5023 9.89 7.3223 10.09C7.1423 10.29 6.9223 10.55 6.6623 10.87C6.4023 11.19 6.1123 11.54 5.7923 11.92C5.4723 12.3 5.1723 12.66 4.8923 13C4.6123 13.34 4.3623 13.64 4.1423 13.9C3.9423 14.14 3.8223 14.29 3.7823 14.35C3.5623 14.61 3.3123 14.84 3.0323 15.04C2.7523 15.24 2.4423 15.38 2.1023 15.46C1.8823 15.5 1.6523 15.52 1.4123 15.52C1.1923 15.52 0.982299 15.47 0.782299 15.37ZM5.4023 25.81C4.5823 25.81 3.9223 25.63 3.4223 25.27C2.9223 24.93 2.6723 24.53 2.6723 24.07V19.75C2.6323 19.31 2.6323 18.86 2.6723 18.4C2.7123 17.98 2.8723 17.64 3.1523 17.38C3.4523 17.12 3.8323 16.99 4.2923 16.99C4.3923 16.99 4.5723 17 4.8323 17.02C5.0923 17.02 5.2723 17.04 5.3723 17.08C5.6323 17.16 5.8323 17.28 5.9723 17.44C6.1323 17.6 6.2523 17.79 6.3323 18.01C6.4123 18.21 6.4623 18.43 6.4823 18.67C6.5023 18.89 6.5223 19.11 6.5423 19.33C6.5423 19.41 6.5423 19.6 6.5423 19.9C6.5623 20.18 6.5723 20.49 6.5723 20.83C6.5923 21.15 6.6023 21.45 6.6023 21.73C6.6223 22.01 6.6423 22.18 6.6623 22.24C6.7223 22.26 6.8823 22.29 7.1423 22.33C7.4223 22.35 7.9323 22.36 8.6723 22.36C9.3123 22.36 9.7023 22.35 9.8423 22.33C10.0023 22.31 10.0923 22.3 10.1123 22.3H19.9223C19.9223 22.3 19.9823 22.32 20.1023 22.36C20.2423 22.4 20.3923 22.47 20.5523 22.57C20.7123 22.65 20.8623 22.77 21.0023 22.93C21.1423 23.07 21.2323 23.24 21.2723 23.44C21.3723 24.2 21.2423 24.79 20.8823 25.21C20.6423 25.49 20.3823 25.66 20.1023 25.72C19.8223 25.78 19.6723 25.81 19.6523 25.81H5.4023ZM20.6423 11.35V14.47C20.6223 14.69 20.5923 14.92 20.5523 15.16C20.5123 15.38 20.4323 15.6 20.3123 15.82C20.1723 16.08 20.0023 16.27 19.8023 16.39C19.4823 16.61 19.1423 16.72 18.7823 16.72C18.4823 16.72 18.2023 16.64 17.9423 16.48C17.7423 16.36 17.5823 16.21 17.4623 16.03C17.3423 15.85 17.2423 15.68 17.1623 15.52C17.1023 15.36 17.0623 15.22 17.0423 15.1C17.0223 14.96 17.0123 14.89 17.0123 14.89V4.36C17.0123 4.26 17.0223 4.04 17.0423 3.7C17.0823 3.34 17.1623 3.04 17.2823 2.8C17.4823 2.38 17.8923 2.14 18.5123 2.08C18.8523 2.04 19.1723 2.06 19.4723 2.14C19.7723 2.22 20.0023 2.35 20.1623 2.53C20.2823 2.69 20.3623 2.85 20.4023 3.01C20.4623 3.15 20.5123 3.3 20.5523 3.46C20.6123 3.66 20.6423 3.87 20.6423 4.09C20.6623 4.31 20.6623 4.53 20.6423 4.75V7.99C20.7223 7.99 20.8723 8 21.0923 8.02C21.3123 8.04 21.5423 8.06 21.7823 8.08C22.0423 8.08 22.2823 8.09 22.5023 8.11C22.7223 8.13 22.8723 8.15 22.9523 8.17C23.3523 8.25 23.6323 8.37 23.7923 8.53C23.9523 8.67 24.0623 8.85 24.1223 9.07C24.1623 9.29 24.1823 9.55 24.1823 9.85C24.1823 10.13 24.1223 10.37 24.0023 10.57C23.7623 10.97 23.4023 11.2 22.9223 11.26C22.4423 11.32 21.9123 11.35 21.3323 11.35H20.6423Z" fill="#EDA1A1"/>
<path d="M45.6946 20.53C45.7546 20.55 45.8146 20.56 45.8746 20.56C45.9346 20.54 45.9946 20.53 46.0546 20.53C46.3946 20.57 46.7046 20.64 46.9846 20.74C47.2846 20.82 47.5746 20.98 47.8546 21.22C48.1346 21.5 48.2746 21.85 48.2746 22.27C48.2746 22.49 48.2346 22.73 48.1546 22.99C48.0946 23.23 48.0046 23.42 47.8846 23.56C47.7246 23.72 47.5246 23.84 47.2846 23.92C47.0446 24 46.8146 24.06 46.5946 24.1C46.3746 24.12 46.1746 24.13 45.9946 24.13C45.8346 24.13 45.7446 24.13 45.7246 24.13H28.9246C28.8246 24.13 28.7246 24.14 28.6246 24.16C28.5246 24.16 28.4246 24.16 28.3246 24.16C27.9046 24.18 27.4546 24.18 26.9746 24.16C26.4946 24.12 26.0846 23.96 25.7446 23.68C25.3246 23.3 25.1146 22.87 25.1146 22.39C25.1146 22.09 25.2046 21.78 25.3846 21.46C25.5646 21.14 25.8046 20.92 26.1046 20.8C26.5046 20.64 26.9146 20.56 27.3346 20.56C27.7746 20.56 28.2146 20.55 28.6546 20.53H28.8046C30.5446 20.49 32.3346 20.49 34.1746 20.53L34.1446 16.48C33.9046 16.48 33.6646 16.48 33.4246 16.48C33.1846 16.46 32.9446 16.44 32.7046 16.42C32.1846 16.38 31.6246 16.38 31.0246 16.42C30.4246 16.44 29.8746 16.43 29.3746 16.39C28.8546 16.35 28.3746 16.23 27.9346 16.03C27.5146 15.81 27.2546 15.42 27.1546 14.86C27.0546 14.3 26.9846 13.77 26.9446 13.27C26.9246 12.75 26.9046 12.25 26.8846 11.77C26.8846 11.27 26.8846 10.77 26.8846 10.27C26.9046 9.77 26.9146 9.23 26.9146 8.65V6.55C26.9146 6.29 26.9046 6 26.8846 5.68C26.8846 5.36 26.9046 5.04 26.9446 4.72C27.0046 4.4 27.0946 4.11 27.2146 3.85C27.3546 3.59 27.5646 3.39 27.8446 3.25C28.1446 3.11 28.4846 3 28.8646 2.92C29.2446 2.82 29.6246 2.75 30.0046 2.71C30.4046 2.67 30.7946 2.65 31.1746 2.65C31.5746 2.63 31.9446 2.62 32.2846 2.62H41.9446C41.9646 2.62 42.0846 2.63 42.3046 2.65C42.5446 2.65 42.8246 2.68 43.1446 2.74C43.4646 2.78 43.7846 2.84 44.1046 2.92C44.4446 2.98 44.7146 3.07 44.9146 3.19C45.1546 3.33 45.3446 3.56 45.4846 3.88C45.6246 4.18 45.7246 4.49 45.7846 4.81C45.8646 5.13 45.9046 5.42 45.9046 5.68C45.9246 5.92 45.9346 6.05 45.9346 6.07V11.86C45.9346 12.32 45.9246 12.78 45.9046 13.24C45.9046 13.7 45.8646 14.16 45.7846 14.62C45.7446 14.9 45.6746 15.18 45.5746 15.46C45.4746 15.74 45.2846 15.95 45.0046 16.09C44.6646 16.25 44.2246 16.34 43.6846 16.36C43.1446 16.36 42.6946 16.35 42.3346 16.33C41.9146 16.33 41.4946 16.35 41.0746 16.39C40.6546 16.41 40.2346 16.42 39.8146 16.42H38.3446L38.4046 20.53C38.9646 20.53 39.4546 20.53 39.8746 20.53C40.2946 20.51 40.6946 20.5 41.0746 20.5C41.4746 20.5 41.8746 20.5 42.2746 20.5C42.6746 20.5 43.1346 20.51 43.6546 20.53C44.0146 20.55 44.3646 20.55 44.7046 20.53C45.0446 20.49 45.3746 20.49 45.6946 20.53ZM40.0846 12.64C40.2646 12.6 40.4446 12.59 40.6246 12.61C40.8046 12.63 40.9946 12.6 41.1946 12.52C41.3146 12.46 41.4046 12.38 41.4646 12.28C41.5246 12.16 41.5546 12.04 41.5546 11.92C41.5746 11.78 41.5746 11.64 41.5546 11.5C41.5546 11.36 41.5546 11.23 41.5546 11.11V8.59C41.5546 8.27 41.5546 8 41.5546 7.78C41.5546 7.54 41.5046 7.35 41.4046 7.21C41.3246 7.07 41.1546 6.97 40.8946 6.91C40.6346 6.85 40.2546 6.81 39.7546 6.79H33.8746C33.8746 6.79 33.7946 6.79 33.6346 6.79C33.4946 6.79 33.3146 6.8 33.0946 6.82C32.8946 6.82 32.6846 6.83 32.4646 6.85C32.2446 6.87 32.0546 6.89 31.8946 6.91C31.6346 6.95 31.4246 7.06 31.2646 7.24C31.1046 7.42 31.0246 7.64 31.0246 7.9L31.0846 11.92C31.1246 12.16 31.2246 12.34 31.3846 12.46C31.5646 12.56 31.7646 12.63 31.9846 12.67C32.2046 12.71 32.4246 12.73 32.6446 12.73C32.8846 12.71 33.0946 12.7 33.2746 12.7L40.0846 12.64Z" fill="#EDA1A1"/>
<path d="M75.3433 11.14C75.7233 11.34 76.0933 11.58 76.4533 11.86C76.8133 12.12 77.1533 12.4 77.4733 12.7C77.6333 12.86 77.7433 13.06 77.8033 13.3C77.8633 13.54 77.8633 13.78 77.8033 14.02C77.7633 14.26 77.6633 14.48 77.5033 14.68C77.3633 14.86 77.1733 14.98 76.9333 15.04C76.2933 15.2 75.6233 15.19 74.9233 15.01C74.2433 14.83 73.6133 14.6 73.0333 14.32C72.4933 14.04 71.9933 13.78 71.5333 13.54C71.0733 13.28 70.6133 13.01 70.1533 12.73C70.0133 12.63 69.8233 12.52 69.5833 12.4C69.3633 12.26 69.1433 12.12 68.9233 11.98C68.6633 11.82 68.3833 11.66 68.0833 11.5C67.7433 11.68 67.4133 11.85 67.0933 12.01C66.8133 12.15 66.5333 12.29 66.2533 12.43C65.9933 12.55 65.7833 12.66 65.6233 12.76C65.1033 13.06 64.6233 13.32 64.1833 13.54C63.7433 13.76 63.2633 14.01 62.7433 14.29C62.3433 14.49 61.9333 14.71 61.5133 14.95C61.1133 15.17 60.6833 15.26 60.2233 15.22C59.8633 15.18 59.5133 15.07 59.1733 14.89C58.8333 14.71 58.6233 14.4 58.5433 13.96C58.5033 13.72 58.5233 13.46 58.6033 13.18C58.6833 12.84 58.8133 12.56 58.9933 12.34C59.1933 12.12 59.4333 11.92 59.7133 11.74L61.7833 10.57C62.1233 10.37 62.4233 10.21 62.6833 10.09C62.9433 9.95 63.2533 9.78 63.6133 9.58C63.9533 9.38 64.3433 9.16 64.7833 8.92C65.2433 8.66 65.6733 8.45 66.0733 8.29V5.86H62.8933C62.5733 5.86 62.2933 5.87 62.0533 5.89C61.8333 5.89 61.5733 5.87 61.2733 5.83C61.0533 5.79 60.8133 5.77 60.5533 5.77C60.2933 5.77 60.0533 5.71 59.8333 5.59C59.6133 5.47 59.4333 5.26 59.2933 4.96C59.1733 4.74 59.1033 4.48 59.0833 4.18C59.0633 3.88 59.1033 3.61 59.2033 3.37C59.3633 3.01 59.6233 2.74 59.9833 2.56C60.3433 2.38 60.7133 2.29 61.0933 2.29H61.7833C62.1033 2.31 62.3333 2.32 62.4733 2.32C62.6333 2.3 62.8733 2.29 63.1933 2.29H73.5733C73.8933 2.29 74.2633 2.28 74.6833 2.26C75.1033 2.24 75.5033 2.27 75.8833 2.35C76.2833 2.43 76.6333 2.58 76.9333 2.8C77.2533 3.02 77.4633 3.37 77.5633 3.85C77.6833 4.41 77.5933 4.84 77.2933 5.14C77.0133 5.42 76.6433 5.63 76.1833 5.77C75.7433 5.89 75.2733 5.96 74.7733 5.98C74.2733 5.98 73.8633 5.97 73.5433 5.95C73.2233 5.93 72.8833 5.92 72.5233 5.92C72.1833 5.9 71.8533 5.89 71.5333 5.89C71.1733 5.89 70.8133 5.9 70.4533 5.92V8.35C70.7333 8.51 70.9933 8.65 71.2333 8.77C71.3533 8.83 71.4633 8.9 71.5633 8.98C71.6833 9.04 71.8033 9.11 71.9233 9.19C72.1233 9.29 72.3133 9.39 72.4933 9.49C72.6933 9.59 72.8933 9.7 73.0933 9.82C73.4733 10.04 73.8433 10.26 74.2033 10.48C74.5833 10.7 74.9633 10.92 75.3433 11.14ZM59.8933 20.59C59.4333 20.57 58.9933 20.51 58.5733 20.41C58.1733 20.29 57.8433 20.03 57.5833 19.63C57.3633 19.29 57.2533 18.93 57.2533 18.55C57.2733 18.15 57.4233 17.81 57.7033 17.53C57.8633 17.37 58.0633 17.25 58.3033 17.17C58.5433 17.09 58.7733 17.03 58.9933 16.99C59.2133 16.95 59.4033 16.93 59.5633 16.93C59.7433 16.93 59.8433 16.93 59.8633 16.93H76.2133C76.5333 16.91 76.8733 16.91 77.2333 16.93C77.6133 16.95 77.9633 17.02 78.2833 17.14C78.6033 17.24 78.8733 17.42 79.0933 17.68C79.3133 17.92 79.4233 18.26 79.4233 18.7C79.4233 19.2 79.2533 19.58 78.9133 19.84C78.5733 20.08 78.1633 20.26 77.6833 20.38C77.2233 20.48 76.7433 20.54 76.2433 20.56C75.7433 20.56 75.3333 20.56 75.0133 20.56H73.8433C73.4433 20.58 73.0533 20.59 72.6733 20.59C72.2933 20.57 71.9033 20.56 71.5033 20.56H70.3633C70.3833 21.12 70.4033 21.71 70.4233 22.33C70.4433 22.95 70.4133 23.5 70.3333 23.98C70.2933 24.36 70.1933 24.72 70.0333 25.06C69.8933 25.42 69.6533 25.71 69.3133 25.93C69.0133 26.13 68.6633 26.23 68.2633 26.23C67.8633 26.25 67.5033 26.17 67.1833 25.99C66.9233 25.83 66.7233 25.6 66.5833 25.3C66.4633 25 66.3833 24.71 66.3433 24.43C66.3033 24.21 66.2833 23.97 66.2833 23.71C66.3033 23.45 66.3133 23.21 66.3133 22.99C66.2933 22.63 66.2833 22.24 66.2833 21.82C66.2833 21.38 66.2833 20.95 66.2833 20.53H65.5333C64.9733 20.53 64.4633 20.54 64.0033 20.56C63.5633 20.56 63.1333 20.57 62.7133 20.59C62.2933 20.59 61.8533 20.59 61.3933 20.59C60.9533 20.59 60.4533 20.59 59.8933 20.59Z" fill="#EDA1A1"/>
<path d="M85.7922 15.88C85.9122 15.76 86.0222 15.62 86.1222 15.46C86.2422 15.28 86.3322 15.16 86.3922 15.1V8.32C86.2922 8.36 86.2022 8.37 86.1222 8.35C86.0422 8.33 85.9522 8.32 85.8522 8.32H85.0422C84.3422 8.32 83.7322 8.31 83.2122 8.29C82.7122 8.27 82.3922 8.24 82.2522 8.2C81.8922 8.12 81.5822 7.99 81.3222 7.81C81.0822 7.61 80.9022 7.33 80.7822 6.97C80.7422 6.83 80.7122 6.7 80.6922 6.58C80.6722 6.46 80.6822 6.32 80.7222 6.16C80.7222 5.96 80.8222 5.71 81.0222 5.41C81.0822 5.31 81.1722 5.22 81.2922 5.14C81.4122 5.06 81.5322 4.99 81.6522 4.93C81.7722 4.83 81.8922 4.77 82.0122 4.75C82.1322 4.71 82.2522 4.67 82.3722 4.63H86.3322C86.3322 4.41 86.3422 4.11 86.3622 3.73C86.3822 3.33 86.3922 3.04 86.3922 2.86C86.4322 2.6 86.4922 2.37 86.5722 2.17C86.6522 1.95 86.7422 1.75 86.8422 1.57C87.0822 1.19 87.4322 0.939998 87.8922 0.819997C88.1122 0.719997 88.3322 0.679997 88.5522 0.699996C88.7922 0.719997 89.0222 0.779998 89.2422 0.879998C89.4022 0.939997 89.5422 1.03 89.6622 1.15C89.8022 1.25 89.9022 1.37 89.9622 1.51C90.2022 1.79 90.3522 2.07 90.4122 2.35C90.4522 2.51 90.4822 2.68 90.5022 2.86C90.5222 3.04 90.5322 3.22 90.5322 3.4V4.63H92.3622C92.7622 4.63 93.1622 4.64 93.5622 4.66C93.9822 4.68 94.3322 4.71 94.6122 4.75C94.8922 4.81 95.1422 4.92 95.3622 5.08C95.6022 5.22 95.8022 5.42 95.9622 5.68C96.1222 5.94 96.2022 6.22 96.2022 6.52C96.2622 6.74 96.2222 6.99 96.0822 7.27C95.8422 7.73 95.3722 8.04 94.6722 8.2C94.4522 8.24 94.2022 8.26 93.9222 8.26C93.6622 8.26 93.3822 8.28 93.0822 8.32C92.7622 8.32 92.3822 8.33 91.9422 8.35C91.5022 8.37 91.0322 8.36 90.5322 8.32C90.5322 8.48 90.5222 8.67 90.5022 8.89C90.5022 9.11 90.5022 9.33 90.5022 9.55C90.5022 9.77 90.5022 9.98 90.5022 10.18C90.5022 10.36 90.5122 10.51 90.5322 10.63V13.93C90.5322 14.03 90.5222 14.13 90.5022 14.23C90.4822 14.31 90.4922 14.41 90.5322 14.53V15.01C90.6322 15.09 90.7222 15.2 90.8022 15.34C90.9022 15.46 91.0322 15.6 91.1922 15.76C91.3322 15.88 91.4422 16 91.5222 16.12C91.6222 16.24 91.7222 16.35 91.8222 16.45C91.9222 16.57 92.0122 16.69 92.0922 16.81C92.1922 16.93 92.3022 17.05 92.4222 17.17C92.5222 17.27 92.6222 17.39 92.7222 17.53C92.8222 17.67 92.9322 17.8 93.0522 17.92C93.1122 18.02 93.1722 18.11 93.2322 18.19C93.2922 18.27 93.3522 18.34 93.4122 18.4C93.5322 18.58 93.6322 18.75 93.7122 18.91C93.9122 19.15 94.1022 19.4 94.2822 19.66C94.4622 19.9 94.6422 20.18 94.8222 20.5C95.0422 20.78 95.2122 21.07 95.3322 21.37C95.4722 21.65 95.5722 21.93 95.6322 22.21C95.6922 22.49 95.6922 22.78 95.6322 23.08C95.5722 23.38 95.4322 23.65 95.2122 23.89C94.9322 24.13 94.5622 24.25 94.1022 24.25C93.8822 24.25 93.6722 24.23 93.4722 24.19C93.2922 24.13 93.0922 24.05 92.8722 23.95C92.6722 23.83 92.4922 23.71 92.3322 23.59C92.1922 23.45 92.0422 23.32 91.8822 23.2C91.7022 23.02 91.5322 22.83 91.3722 22.63C91.2122 22.41 91.0522 22.21 90.8922 22.03C90.7322 21.85 90.5722 21.66 90.4122 21.46C90.2722 21.24 90.1222 21.02 89.9622 20.8C89.7422 20.58 89.5022 20.29 89.2422 19.93C89.1222 19.75 88.9822 19.6 88.8222 19.48C88.6822 19.34 88.5522 19.21 88.4322 19.09C88.3122 19.25 88.1922 19.41 88.0722 19.57C87.9522 19.71 87.8322 19.86 87.7122 20.02C87.5722 20.18 87.4422 20.33 87.3222 20.47C87.2022 20.61 87.0822 20.76 86.9622 20.92C86.8422 21.12 86.7022 21.32 86.5422 21.52C86.4022 21.72 86.2522 21.91 86.0922 22.09C85.9722 22.29 85.8322 22.49 85.6722 22.69C85.5322 22.89 85.3622 23.08 85.1622 23.26C84.7622 23.66 84.3822 23.94 84.0222 24.1C83.6822 24.24 83.3322 24.31 82.9722 24.31C82.8722 24.31 82.7722 24.31 82.6722 24.31C82.5922 24.31 82.5022 24.29 82.4022 24.25C81.9822 24.13 81.6722 23.86 81.4722 23.44C81.3322 23.12 81.2922 22.8 81.3522 22.48C81.3922 22.28 81.4322 22.1 81.4722 21.94C81.5122 21.76 81.5822 21.61 81.6822 21.49C81.7422 21.33 81.8122 21.18 81.8922 21.04C81.9722 20.88 82.0622 20.72 82.1622 20.56C82.2622 20.44 82.3522 20.31 82.4322 20.17C82.5322 20.03 82.6522 19.89 82.7922 19.75C82.8522 19.69 82.9122 19.62 82.9722 19.54C83.0322 19.46 83.0922 19.39 83.1522 19.33L83.5122 18.79C83.5722 18.65 83.6422 18.54 83.7222 18.46C83.8022 18.36 83.9222 18.2 84.0822 17.98C84.2422 17.8 84.3922 17.62 84.5322 17.44C84.6722 17.26 84.8022 17.09 84.9222 16.93C85.0822 16.75 85.2322 16.57 85.3722 16.39C85.5322 16.21 85.6722 16.04 85.7922 15.88ZM102.622 11.08C102.722 11.08 102.812 11.09 102.892 11.11C102.992 11.13 103.092 11.14 103.192 11.14C103.292 11.16 103.402 11.18 103.522 11.2C103.642 11.2 103.762 11.21 103.882 11.23C104.102 11.27 104.322 11.35 104.542 11.47C104.762 11.57 104.922 11.73 105.022 11.95C105.162 12.17 105.232 12.43 105.232 12.73C105.232 12.89 105.222 13.04 105.202 13.18C105.202 13.3 105.182 13.44 105.142 13.6C105.102 13.76 105.052 13.93 104.992 14.11C104.952 14.29 104.862 14.43 104.722 14.53C104.442 14.73 104.172 14.86 103.912 14.92C103.592 14.96 103.202 14.97 102.742 14.95C102.282 14.93 101.892 14.93 101.572 14.95C101.552 14.95 101.532 14.96 101.512 14.98H101.482L101.452 15.01V15.1C101.452 15.34 101.452 15.63 101.452 15.97C101.452 16.29 101.452 16.63 101.452 16.99C101.452 17.33 101.452 17.67 101.452 18.01C101.452 18.33 101.452 18.62 101.452 18.88C101.492 19.92 101.492 20.94 101.452 21.94V22.36C101.452 22.62 101.442 22.91 101.422 23.23C101.422 23.53 101.402 23.83 101.362 24.13C101.322 24.43 101.252 24.72 101.152 25C101.052 25.26 100.912 25.48 100.732 25.66C100.492 25.94 100.172 26.08 99.7722 26.08C99.7722 26.08 99.7522 26.07 99.7122 26.05C99.2322 26.03 98.8422 25.89 98.5422 25.63C98.2622 25.37 98.0422 25.05 97.8822 24.67C97.7422 24.29 97.6522 23.9 97.6122 23.5C97.5722 23.08 97.5522 22.71 97.5522 22.39V4.57C97.5522 4.55 97.5522 4.46 97.5522 4.3C97.5522 4.12 97.5722 3.92 97.6122 3.7C97.6522 3.46 97.7122 3.22 97.7922 2.98C97.8922 2.72 98.0222 2.51 98.1822 2.35C98.3222 2.21 98.5222 2.11 98.7822 2.05C99.0622 1.97 99.3122 1.93 99.5322 1.93C99.9722 1.93 100.342 2.08 100.642 2.38C100.922 2.66 101.082 2.96 101.122 3.28C101.182 3.58 101.232 3.9 101.272 4.24C101.292 4.32 101.302 4.44 101.302 4.6C101.342 4.94 101.362 5.29 101.362 5.65C101.382 6.01 101.402 6.37 101.422 6.73C101.422 6.95 101.422 7.17 101.422 7.39C101.442 7.59 101.452 7.8 101.452 8.02C101.432 8.14 101.422 8.26 101.422 8.38C101.442 8.48 101.452 8.58 101.452 8.68V10.36C101.452 10.46 101.452 10.57 101.452 10.69C101.452 10.81 101.472 10.92 101.512 11.02C101.512 11.04 101.612 11.05 101.812 11.05C102.012 11.05 102.122 11.05 102.142 11.05C102.322 11.09 102.462 11.1 102.562 11.08H102.622Z" fill="#EDA1A1"/>
<path d="M126.824 23.5C127.144 23.52 127.424 23.6 127.664 23.74C127.904 23.86 128.074 24.08 128.174 24.4C128.394 25.14 128.134 25.64 127.394 25.9C127.154 26 126.904 26.06 126.644 26.08C126.404 26.1 126.184 26.11 125.984 26.11H112.034C111.634 26.11 111.214 26.11 110.774 26.11C110.334 26.11 109.894 26.1 109.454 26.08C108.914 26.06 108.534 25.89 108.314 25.57C108.114 25.25 107.994 24.86 107.954 24.4L107.834 22.42C107.814 22.2 107.814 21.94 107.834 21.64C107.874 21.32 107.984 21.05 108.164 20.83C108.444 20.55 108.764 20.37 109.124 20.29C109.484 20.21 109.884 20.17 110.324 20.17H111.254C111.354 20.17 111.434 20.18 111.494 20.2C111.554 20.2 111.614 20.2 111.674 20.2H124.754V19.15H111.374C111.274 19.15 111.164 19.15 111.044 19.15C110.944 19.13 110.834 19.13 110.714 19.15H109.994C109.794 19.15 109.614 19.15 109.454 19.15C109.294 19.15 109.134 19.13 108.974 19.09C108.794 19.05 108.624 19.01 108.464 18.97C108.324 18.93 108.204 18.83 108.104 18.67C107.984 18.45 107.904 18.24 107.864 18.04C107.824 17.84 107.844 17.62 107.924 17.38C107.984 17.22 108.074 17.1 108.194 17.02C108.314 16.92 108.454 16.84 108.614 16.78C108.774 16.72 108.924 16.68 109.064 16.66C109.224 16.62 109.364 16.59 109.484 16.57C109.644 16.55 109.794 16.54 109.934 16.54C110.094 16.52 110.254 16.51 110.414 16.51H110.924C111.024 16.53 111.114 16.54 111.194 16.54C111.294 16.54 111.394 16.54 111.494 16.54H125.054C126.074 16.54 126.854 16.7 127.394 17.02C127.934 17.32 128.204 17.82 128.204 18.52V20.62C128.204 20.9 128.134 21.17 127.994 21.43C127.874 21.69 127.654 21.92 127.334 22.12C127.074 22.28 126.814 22.37 126.554 22.39C126.294 22.39 126.034 22.39 125.774 22.39H111.524V23.5H126.824ZM119.744 12.46C119.744 12.86 119.564 13.23 119.204 13.57C118.864 13.89 118.504 14.07 118.124 14.11C117.624 14.19 117.184 14.22 116.804 14.2C116.424 14.18 115.974 14.17 115.454 14.17C114.374 14.17 113.334 14.17 112.334 14.17C111.354 14.17 110.324 14.15 109.244 14.11C108.604 14.09 108.124 13.85 107.804 13.39C107.484 12.93 107.324 12.44 107.324 11.92C107.324 11.5 107.314 11.02 107.294 10.48C107.294 9.92 107.294 9.35 107.294 8.77C107.294 8.19 107.294 7.62 107.294 7.06C107.294 6.5 107.304 6.01 107.324 5.59C107.344 5.07 107.344 4.61 107.324 4.21C107.324 3.81 107.454 3.38 107.714 2.92C107.854 2.66 108.054 2.45 108.314 2.29C108.574 2.13 108.844 2.04 109.124 2.02C109.404 1.98 109.674 2.01 109.934 2.11C110.194 2.21 110.404 2.39 110.564 2.65C110.724 2.93 110.834 3.21 110.894 3.49C110.974 3.77 111.034 4.06 111.074 4.36C111.114 4.66 111.124 4.92 111.104 5.14C111.104 5.34 111.094 5.61 111.074 5.95H116.384V4.3C116.384 3.96 116.434 3.58 116.534 3.16C116.634 2.72 116.844 2.4 117.164 2.2C117.384 2.04 117.684 1.96 118.064 1.96C118.444 1.94 118.744 2.01 118.964 2.17C119.184 2.33 119.344 2.55 119.444 2.83C119.544 3.11 119.614 3.39 119.654 3.67C119.714 4.01 119.744 4.35 119.744 4.69V12.46ZM124.004 13.12C123.864 13.12 123.684 13.11 123.464 13.09C123.264 13.07 123.054 13.03 122.834 12.97C122.634 12.91 122.444 12.83 122.264 12.73C122.084 12.63 121.944 12.49 121.844 12.31C121.784 12.23 121.734 12.12 121.694 11.98C121.674 11.84 121.654 11.7 121.634 11.56C121.634 11.4 121.634 11.25 121.634 11.11C121.654 10.97 121.674 10.86 121.694 10.78C121.734 10.56 121.844 10.37 122.024 10.21C122.204 10.03 122.414 9.89 122.654 9.79C122.734 9.77 122.884 9.75 123.104 9.73C123.344 9.71 123.584 9.7 123.824 9.7H124.724C124.704 9.48 124.694 9.27 124.694 9.07V8.14H124.004C123.864 8.14 123.684 8.13 123.464 8.11C123.264 8.09 123.054 8.05 122.834 7.99C122.634 7.93 122.444 7.85 122.264 7.75C122.084 7.65 121.944 7.51 121.844 7.33C121.684 7.07 121.604 6.8 121.604 6.52C121.604 6.22 121.664 5.95 121.784 5.71C121.924 5.45 122.104 5.24 122.324 5.08C122.564 4.9 122.844 4.8 123.164 4.78C123.184 4.78 123.274 4.78 123.434 4.78C123.614 4.78 123.804 4.78 124.004 4.78C124.204 4.78 124.384 4.78 124.544 4.78C124.704 4.76 124.784 4.73 124.784 4.69C124.824 4.49 124.834 4.27 124.814 4.03C124.814 3.79 124.824 3.55 124.844 3.31C124.864 3.07 124.904 2.85 124.964 2.65C125.044 2.43 125.184 2.24 125.384 2.08C125.544 1.96 125.734 1.88 125.954 1.84C126.174 1.8 126.384 1.77 126.584 1.75C127.084 1.69 127.514 1.86 127.874 2.26C128.014 2.44 128.114 2.61 128.174 2.77C128.254 3.01 128.284 3.26 128.264 3.52C128.264 3.78 128.264 4.04 128.264 4.3V12.88C128.264 12.88 128.264 12.98 128.264 13.18C128.264 13.38 128.244 13.61 128.204 13.87C128.164 14.11 128.094 14.36 127.994 14.62C127.914 14.86 127.774 15.04 127.574 15.16C127.434 15.24 127.264 15.3 127.064 15.34C126.864 15.38 126.684 15.4 126.524 15.4C126.184 15.4 125.854 15.29 125.534 15.07C125.294 14.91 125.124 14.72 125.024 14.5C124.904 14.28 124.824 14.05 124.784 13.81C124.744 13.57 124.714 13.34 124.694 13.12H124.004ZM116.384 10.9C116.344 10.58 116.324 10.23 116.324 9.85C116.324 9.45 116.344 9.07 116.384 8.71H111.014C110.974 9.05 110.964 9.32 110.984 9.52C111.024 9.7 111.044 9.96 111.044 10.3C111.064 10.52 111.084 10.67 111.104 10.75C111.124 10.83 111.244 10.88 111.464 10.9C111.684 10.92 111.904 10.93 112.124 10.93C112.344 10.91 112.564 10.9 112.784 10.9H116.384Z" fill="#EDA1A1"/>
<path d="M148.389 14.83C148.249 14.85 147.929 14.86 147.429 14.86C146.949 14.86 146.429 14.86 145.869 14.86C145.309 14.84 144.779 14.83 144.279 14.83C143.779 14.83 143.449 14.83 143.289 14.83H143.259C142.899 14.83 142.539 14.83 142.179 14.83C141.839 14.81 141.509 14.78 141.189 14.74C140.869 14.68 140.579 14.59 140.319 14.47C140.059 14.35 139.849 14.17 139.689 13.93C139.509 13.67 139.379 13.34 139.299 12.94C139.239 12.54 139.189 12.16 139.149 11.8C139.129 11.42 139.119 11.09 139.119 10.81C139.139 10.53 139.149 10.38 139.149 10.36V9.7C139.149 9.48 139.149 9.23 139.149 8.95C139.149 8.67 139.159 8.36 139.179 8.02C139.179 7.66 139.179 7.31 139.179 6.97C139.199 6.61 139.209 6.29 139.209 6.01V5.05C139.209 4.99 139.209 4.88 139.209 4.72C139.209 4.56 139.219 4.39 139.239 4.21C139.259 4.01 139.289 3.82 139.329 3.64C139.369 3.44 139.429 3.28 139.509 3.16C139.689 2.88 139.869 2.68 140.049 2.56C140.249 2.42 140.499 2.32 140.799 2.26C140.899 2.24 141.049 2.23 141.249 2.23C141.449 2.21 141.639 2.19 141.819 2.17C142.039 2.15 142.269 2.14 142.509 2.14H149.289C149.729 2.14 150.189 2.18 150.669 2.26C151.169 2.32 151.609 2.47 151.989 2.71C152.289 2.89 152.499 3.12 152.619 3.4C152.739 3.68 152.819 3.98 152.859 4.3C152.899 4.62 152.909 4.95 152.889 5.29C152.869 5.61 152.859 5.91 152.859 6.19C152.859 6.51 152.849 6.83 152.829 7.15C152.829 7.45 152.839 7.76 152.859 8.08V9.73C152.839 9.83 152.829 9.94 152.829 10.06C152.849 10.18 152.859 10.3 152.859 10.42C152.819 10.68 152.809 10.94 152.829 11.2C152.849 11.44 152.859 11.7 152.859 11.98C152.859 12.2 152.839 12.44 152.799 12.7C152.779 12.94 152.719 13.19 152.619 13.45C152.539 13.69 152.419 13.91 152.259 14.11C152.119 14.31 151.929 14.45 151.689 14.53C151.169 14.75 150.619 14.86 150.039 14.86C149.479 14.84 148.929 14.83 148.389 14.83ZM159.039 22.63C159.439 22.81 159.799 23 160.119 23.2C160.439 23.38 160.759 23.61 161.079 23.89C161.259 24.05 161.379 24.25 161.439 24.49C161.499 24.71 161.499 24.93 161.439 25.15C161.399 25.37 161.299 25.57 161.139 25.75C160.999 25.93 160.799 26.05 160.539 26.11C159.879 26.25 159.209 26.24 158.529 26.08C157.849 25.92 157.219 25.7 156.639 25.42C156.519 25.36 156.319 25.25 156.039 25.09C155.759 24.95 155.439 24.78 155.079 24.58C154.719 24.38 154.339 24.17 153.939 23.95C153.559 23.73 153.189 23.52 152.829 23.32C152.469 23.12 152.139 22.95 151.839 22.81C151.559 22.65 151.349 22.54 151.209 22.48C151.129 22.52 150.879 22.67 150.459 22.93C150.039 23.17 149.579 23.44 149.079 23.74C148.579 24.02 148.119 24.29 147.699 24.55C147.279 24.79 147.039 24.93 146.979 24.97C146.639 25.15 146.289 25.32 145.929 25.48C145.589 25.66 145.239 25.82 144.879 25.96C144.519 26.1 144.139 26.2 143.739 26.26C143.339 26.34 142.949 26.33 142.569 26.23C142.309 26.17 142.059 26.05 141.819 25.87C141.599 25.71 141.469 25.51 141.429 25.27C141.389 25.15 141.379 25.03 141.399 24.91C141.419 24.77 141.449 24.65 141.489 24.55C141.569 24.23 141.739 23.97 141.999 23.77C142.279 23.57 142.569 23.39 142.869 23.23C143.209 23.03 143.559 22.84 143.919 22.66C144.279 22.48 144.639 22.3 144.999 22.12C145.379 21.92 145.749 21.73 146.109 21.55C146.469 21.37 146.829 21.18 147.189 20.98C147.209 20.96 147.319 20.9 147.519 20.8C147.719 20.7 147.929 20.59 148.149 20.47C148.389 20.35 148.609 20.24 148.809 20.14C149.009 20.02 149.109 19.94 149.109 19.9H144.279C143.879 19.86 143.519 19.79 143.199 19.69C142.919 19.59 142.649 19.46 142.389 19.3C142.149 19.14 141.999 18.92 141.939 18.64C141.899 18.24 141.979 17.84 142.179 17.44C142.379 17.04 142.719 16.82 143.199 16.78C143.339 16.76 143.479 16.75 143.619 16.75C143.779 16.75 143.939 16.75 144.099 16.75H157.509C157.869 16.75 158.229 16.76 158.589 16.78C158.949 16.78 159.279 16.82 159.579 16.9C159.879 16.98 160.129 17.12 160.329 17.32C160.549 17.52 160.689 17.8 160.749 18.16C160.709 18.6 160.589 18.94 160.389 19.18C160.189 19.42 159.949 19.6 159.669 19.72C159.389 19.82 159.069 19.88 158.709 19.9C158.369 19.92 158.039 19.92 157.719 19.9H153.729C153.769 19.92 153.919 20.01 154.179 20.17C154.459 20.31 154.779 20.48 155.139 20.68C155.519 20.88 155.919 21.09 156.339 21.31C156.779 21.53 157.179 21.74 157.539 21.94C157.919 22.12 158.249 22.28 158.529 22.42C158.809 22.56 158.979 22.63 159.039 22.63ZM160.389 4.54C160.389 4.52 160.389 4.64 160.389 4.9C160.389 5.16 160.389 5.47 160.389 5.83C160.389 6.17 160.389 6.51 160.389 6.85C160.389 7.19 160.389 7.43 160.389 7.57C160.469 7.57 160.619 7.58 160.839 7.6C161.059 7.6 161.289 7.61 161.529 7.63C161.769 7.63 161.999 7.64 162.219 7.66C162.439 7.68 162.599 7.7 162.699 7.72C163.099 7.8 163.379 7.92 163.539 8.08C163.699 8.22 163.799 8.4 163.839 8.62C163.899 8.84 163.929 9.1 163.929 9.4C163.929 9.68 163.869 9.92 163.749 10.12C163.509 10.52 163.149 10.75 162.669 10.81C162.189 10.85 161.659 10.88 161.079 10.9H160.389V13.27C160.369 13.49 160.339 13.72 160.299 13.96C160.259 14.18 160.179 14.4 160.059 14.62C159.939 14.86 159.769 15.06 159.549 15.22C159.269 15.42 158.939 15.52 158.559 15.52C158.219 15.52 157.939 15.45 157.719 15.31C157.519 15.19 157.359 15.04 157.239 14.86C157.119 14.68 157.019 14.51 156.939 14.35C156.879 14.17 156.839 14.02 156.819 13.9C156.799 13.76 156.789 13.69 156.789 13.69V4.15C156.769 4.07 156.779 3.85 156.819 3.49C156.859 3.13 156.939 2.83 157.059 2.59C157.259 2.17 157.659 1.93 158.259 1.87C158.999 1.77 159.549 1.92 159.909 2.32C160.029 2.48 160.109 2.64 160.149 2.8C160.209 2.94 160.259 3.09 160.299 3.25C160.359 3.45 160.389 3.66 160.389 3.88C160.409 4.1 160.409 4.32 160.389 4.54ZM144.549 5.89C144.369 5.89 144.199 5.89 144.039 5.89C143.899 5.89 143.769 5.91 143.649 5.95C143.369 5.97 143.139 6.09 142.959 6.31C142.879 6.41 142.829 6.56 142.809 6.76C142.809 6.96 142.809 7.08 142.809 7.12V8.38C142.789 8.54 142.779 8.69 142.779 8.83C142.779 8.95 142.779 9.06 142.779 9.16V9.52C142.779 9.52 142.779 9.58 142.779 9.7C142.779 9.82 142.779 9.96 142.779 10.12C142.799 10.28 142.829 10.44 142.869 10.6C142.909 10.76 142.979 10.9 143.079 11.02C143.239 11.22 143.499 11.34 143.859 11.38C144.219 11.4 144.579 11.41 144.939 11.41H144.969C145.489 11.39 145.919 11.39 146.259 11.41C146.599 11.41 147.039 11.41 147.579 11.41C147.739 11.41 147.899 11.42 148.059 11.44C148.239 11.44 148.409 11.42 148.569 11.38C148.729 11.36 148.839 11.31 148.899 11.23C148.959 11.15 149.009 11.05 149.049 10.93C149.089 10.77 149.109 10.64 149.109 10.54C149.189 10.16 149.229 9.73 149.229 9.25C149.229 8.93 149.229 8.61 149.229 8.29C149.249 7.97 149.249 7.65 149.229 7.33C149.209 7.17 149.199 7.01 149.199 6.85C149.219 6.69 149.209 6.53 149.169 6.37C149.089 6.15 148.959 6.03 148.779 6.01C148.599 5.97 148.419 5.95 148.239 5.95L144.549 5.89Z" fill="#EDA1A1"/>
<path d="M166.85 25.54C166.69 25.44 166.56 25.32 166.46 25.18C166.38 25.06 166.29 24.87 166.19 24.61C166.07 24.19 166.03 23.76 166.07 23.32C166.11 22.86 166.13 22.42 166.13 22V20.59C166.13 20.25 166.18 19.8 166.28 19.24C166.34 18.94 166.46 18.69 166.64 18.49C166.82 18.27 167.03 18.1 167.27 17.98C167.53 17.86 167.8 17.78 168.08 17.74C168.38 17.68 168.67 17.65 168.95 17.65H174.38V15.94H170.3C169.92 15.94 169.54 15.94 169.16 15.94C168.78 15.92 168.41 15.88 168.05 15.82C167.83 15.82 167.59 15.83 167.33 15.85C167.07 15.85 166.8 15.85 166.52 15.85C166.26 15.83 166 15.8 165.74 15.76C165.5 15.7 165.29 15.61 165.11 15.49C164.91 15.39 164.76 15.24 164.66 15.04C164.56 14.84 164.5 14.63 164.48 14.41C164.46 14.19 164.48 13.98 164.54 13.78C164.6 13.56 164.7 13.38 164.84 13.24C165.08 13.02 165.38 12.87 165.74 12.79C166.1 12.69 166.45 12.64 166.79 12.64H185.99C186.13 12.64 186.28 12.66 186.44 12.7C186.6 12.74 186.74 12.78 186.86 12.82C187.22 12.9 187.5 13.07 187.7 13.33C187.9 13.59 188.01 13.87 188.03 14.17C188.07 14.47 188.01 14.76 187.85 15.04C187.71 15.32 187.47 15.53 187.13 15.67C186.65 15.83 186.19 15.92 185.75 15.94C185.33 15.94 184.89 15.96 184.43 16H178.49V17.65H183.08C183.3 17.65 183.5 17.66 183.68 17.68C183.86 17.68 184.06 17.7 184.28 17.74C184.92 17.8 185.42 17.98 185.78 18.28C186.16 18.58 186.38 19.07 186.44 19.75C186.48 19.93 186.5 20.12 186.5 20.32C186.5 20.52 186.5 20.72 186.5 20.92V22.27C186.5 22.49 186.49 22.72 186.47 22.96C186.45 23.18 186.44 23.4 186.44 23.62C186.38 23.96 186.32 24.32 186.26 24.7C186.2 25.06 186.03 25.37 185.75 25.63C185.55 25.79 185.3 25.88 185 25.9C184.72 25.92 184.44 25.93 184.16 25.93C184.14 25.93 183.9 25.93 183.44 25.93C182.98 25.93 182.38 25.93 181.64 25.93C180.92 25.93 180.09 25.92 179.15 25.9C178.21 25.9 177.25 25.9 176.27 25.9C173.99 25.9 171.39 25.89 168.47 25.87C168.17 25.87 167.88 25.85 167.6 25.81C167.32 25.77 167.07 25.68 166.85 25.54ZM183.35 8.11C183.55 8.21 183.74 8.31 183.92 8.41C184.1 8.49 184.31 8.59 184.55 8.71C184.75 8.87 184.95 9.04 185.15 9.22C185.35 9.38 185.51 9.57 185.63 9.79C185.77 9.99 185.84 10.21 185.84 10.45C185.86 10.69 185.78 10.95 185.6 11.23C185.38 11.57 185.07 11.77 184.67 11.83C184.27 11.87 183.85 11.84 183.41 11.74C182.97 11.64 182.54 11.51 182.12 11.35C181.7 11.17 181.36 11.02 181.1 10.9C180.8 10.76 180.52 10.65 180.26 10.57C180.02 10.47 179.8 10.35 179.6 10.21C179.32 10.09 179.07 9.97 178.85 9.85C178.63 9.71 178.4 9.58 178.16 9.46C178.06 9.42 177.96 9.38 177.86 9.34C177.78 9.3 177.69 9.26 177.59 9.22C177.49 9.12 177.37 9.05 177.23 9.01C177.11 8.97 177 8.9 176.9 8.8C176.64 8.7 176.36 8.57 176.06 8.41C175.9 8.51 175.73 8.59 175.55 8.65C175.39 8.71 175.23 8.78 175.07 8.86C174.93 8.92 174.79 8.99 174.65 9.07C174.51 9.13 174.36 9.18 174.2 9.22C174.08 9.26 173.98 9.32 173.9 9.4C173.82 9.46 173.73 9.51 173.63 9.55C173.39 9.67 173.14 9.79 172.88 9.91C172.64 10.01 172.39 10.11 172.13 10.21C171.91 10.29 171.68 10.39 171.44 10.51C171.22 10.63 170.98 10.76 170.72 10.9C170.5 10.98 170.3 11.06 170.12 11.14C169.94 11.22 169.75 11.3 169.55 11.38C169.29 11.5 168.99 11.6 168.65 11.68C168.33 11.74 168.02 11.75 167.72 11.71C167.42 11.67 167.15 11.56 166.91 11.38C166.69 11.2 166.56 10.92 166.52 10.54C166.52 10.44 166.52 10.34 166.52 10.24C166.54 10.12 166.57 10 166.61 9.88C166.65 9.76 166.69 9.64 166.73 9.52C166.79 9.38 166.86 9.25 166.94 9.13C167.06 9.05 167.18 8.97 167.3 8.89C167.44 8.81 167.57 8.73 167.69 8.65L169.76 7.63C169.92 7.51 170.07 7.42 170.21 7.36C170.37 7.3 170.51 7.22 170.63 7.12C170.79 7.08 170.94 7.03 171.08 6.97C171.24 6.89 171.42 6.81 171.62 6.73C171.72 6.67 171.8 6.62 171.86 6.58C171.94 6.54 172.03 6.5 172.13 6.46C172.25 6.36 172.36 6.29 172.46 6.25C172.58 6.21 172.7 6.17 172.82 6.13H170.03C169.73 6.13 169.35 6.13 168.89 6.13C168.45 6.13 168.09 6.04 167.81 5.86C167.71 5.82 167.62 5.75 167.54 5.65C167.46 5.53 167.37 5.4 167.27 5.26C167.19 5.18 167.14 5.09 167.12 4.99C167.1 4.87 167.07 4.74 167.03 4.6C167.03 4.48 167.04 4.37 167.06 4.27C167.1 4.17 167.14 4.07 167.18 3.97C167.34 3.67 167.55 3.45 167.81 3.31C168.07 3.17 168.35 3.08 168.65 3.04C168.97 2.98 169.28 2.96 169.58 2.98C169.9 2.98 170.19 2.97 170.45 2.95H174.05V2.02C174.05 1.56 174.24 1.21 174.62 0.969997C175.02 0.729997 175.46 0.599998 175.94 0.579998C176.44 0.559997 176.9 0.649997 177.32 0.849996C177.76 1.05 178.01 1.36 178.07 1.78V2.95H181.55C181.95 2.95 182.35 2.94 182.75 2.92C183.15 2.9 183.54 2.93 183.92 3.01C184.14 3.05 184.34 3.1 184.52 3.16C184.7 3.22 184.87 3.32 185.03 3.46C185.15 3.56 185.26 3.69 185.36 3.85C185.48 3.99 185.56 4.16 185.6 4.36C185.68 4.84 185.6 5.2 185.36 5.44C185.06 5.68 184.74 5.85 184.4 5.95C184.06 6.03 183.71 6.07 183.35 6.07C182.89 6.11 182.43 6.13 181.97 6.13C181.51 6.13 181.05 6.13 180.59 6.13H179.6C179.6 6.17 179.66 6.22 179.78 6.28C179.88 6.28 179.93 6.32 179.93 6.4C180.05 6.44 180.15 6.48 180.23 6.52C180.31 6.54 180.4 6.57 180.5 6.61C180.64 6.67 180.75 6.73 180.83 6.79C180.91 6.85 181 6.9 181.1 6.94C181.3 7.04 181.48 7.14 181.64 7.24C181.82 7.32 182.02 7.42 182.24 7.54C182.4 7.64 182.58 7.73 182.78 7.81C183 7.89 183.19 7.99 183.35 8.11ZM169.7 22.51C169.7 22.59 169.71 22.64 169.73 22.66C169.73 22.68 169.74 22.69 169.76 22.69C169.84 22.75 169.93 22.78 170.03 22.78C170.49 22.82 170.94 22.84 171.38 22.84C171.82 22.84 172.28 22.84 172.76 22.84C173.48 22.88 174.17 22.91 174.83 22.93C175.49 22.93 176.14 22.93 176.78 22.93C177.44 22.93 178.1 22.93 178.76 22.93C179.44 22.91 180.16 22.88 180.92 22.84C180.96 22.84 181.04 22.84 181.16 22.84C181.3 22.84 181.44 22.84 181.58 22.84C181.74 22.84 181.88 22.84 182 22.84C182.12 22.82 182.2 22.8 182.24 22.78C182.54 22.74 182.7 22.6 182.72 22.36C182.74 22.12 182.75 21.86 182.75 21.58C182.75 21.42 182.69 21.26 182.57 21.1C182.43 20.94 182.25 20.86 182.03 20.86C181.87 20.86 181.73 20.85 181.61 20.83C181.51 20.79 181.42 20.77 181.34 20.77H171.62C171.42 20.81 171.21 20.82 170.99 20.8C170.79 20.78 170.59 20.77 170.39 20.77C170.31 20.77 170.22 20.79 170.12 20.83C170.04 20.85 169.98 20.86 169.94 20.86C169.9 20.86 169.86 20.88 169.82 20.92C169.78 20.96 169.76 21.05 169.76 21.19C169.74 21.21 169.72 21.29 169.7 21.43C169.7 21.55 169.7 21.69 169.7 21.85C169.7 22.01 169.7 22.16 169.7 22.3C169.7 22.42 169.7 22.49 169.7 22.51Z" fill="#EDA1A1"/>
<path d="M198.802 21.4C198.802 20.5 199.062 19.75 199.582 19.15C200.122 18.55 200.842 18.08 201.742 17.74C202.642 17.38 203.702 17.13 204.922 16.99C206.142 16.85 207.442 16.78 208.822 16.78C210.202 16.78 211.502 16.83 212.722 16.93C213.942 17.03 215.002 17.25 215.902 17.59C216.802 17.91 217.512 18.37 218.032 18.97C218.572 19.57 218.842 20.38 218.842 21.4C218.842 22.4 218.572 23.2 218.032 23.8C217.512 24.4 216.802 24.86 215.902 25.18C215.002 25.52 213.942 25.74 212.722 25.84C211.502 25.96 210.202 26.02 208.822 26.02C207.442 26.02 206.142 25.96 204.922 25.84C203.702 25.74 202.642 25.52 201.742 25.18C200.842 24.86 200.122 24.4 199.582 23.8C199.062 23.2 198.802 22.4 198.802 21.4ZM206.452 5.59C206.452 5.59 206.442 5.71 206.422 5.95C206.422 6.19 206.422 6.46 206.422 6.76C206.422 7.06 206.422 7.34 206.422 7.6C206.442 7.86 206.452 8.01 206.452 8.05C206.552 8.15 206.732 8.32 206.992 8.56C207.252 8.78 207.472 8.97 207.652 9.13C207.852 9.29 208.052 9.47 208.252 9.67C208.472 9.85 208.692 10.05 208.912 10.27C209.052 10.41 209.182 10.55 209.302 10.69C209.422 10.81 209.532 10.92 209.632 11.02C210.012 11.4 210.392 11.81 210.772 12.25C211.152 12.69 211.412 13.14 211.552 13.6C211.612 13.78 211.622 13.98 211.582 14.2C211.542 14.42 211.412 14.61 211.192 14.77C210.852 14.97 210.492 15.07 210.112 15.07C209.672 15.07 209.252 14.98 208.852 14.8C208.452 14.62 208.132 14.44 207.892 14.26C207.512 13.98 207.162 13.69 206.842 13.39C206.522 13.07 206.202 12.75 205.882 12.43C205.662 12.21 205.412 11.96 205.132 11.68C204.852 11.38 204.572 11.12 204.292 10.9L203.482 11.71C203.342 11.85 203.202 11.99 203.062 12.13C202.922 12.25 202.792 12.38 202.672 12.52C202.412 12.8 202.142 13.09 201.862 13.39C201.582 13.67 201.262 13.94 200.902 14.2C200.082 14.8 199.312 15.1 198.592 15.1C198.492 15.1 198.402 15.1 198.322 15.1C198.262 15.1 198.182 15.08 198.082 15.04C197.642 14.94 197.352 14.76 197.212 14.5C197.072 14.28 197.022 14.03 197.062 13.75C197.122 13.47 197.212 13.22 197.332 13C197.492 12.78 197.672 12.57 197.872 12.37C198.072 12.15 198.272 11.93 198.472 11.71C198.652 11.51 198.932 11.23 199.312 10.87C199.712 10.49 200.112 10.11 200.512 9.73C200.912 9.33 201.282 8.97 201.622 8.65C201.962 8.33 202.172 8.13 202.252 8.05V5.59H200.332C200.092 5.59 199.812 5.6 199.492 5.62C199.172 5.62 198.852 5.6 198.532 5.56C198.232 5.52 197.952 5.44 197.692 5.32C197.432 5.18 197.242 4.96 197.122 4.66C197.022 4.44 196.952 4.19 196.912 3.91C196.892 3.63 196.912 3.37 196.972 3.13C197.052 2.85 197.232 2.66 197.512 2.56C197.792 2.44 198.062 2.36 198.322 2.32C198.362 2.32 198.522 2.32 198.802 2.32C199.102 2.32 199.422 2.32 199.762 2.32C200.102 2.32 200.422 2.32 200.722 2.32C201.022 2.32 201.202 2.31 201.262 2.29H208.282C209.082 2.29 209.752 2.34 210.292 2.44C210.852 2.54 211.302 2.79 211.642 3.19C211.742 3.31 211.802 3.47 211.822 3.67C211.862 3.87 211.862 4.08 211.822 4.3C211.802 4.5 211.742 4.69 211.642 4.87C211.562 5.05 211.442 5.18 211.282 5.26C211.122 5.32 210.932 5.39 210.712 5.47C210.492 5.53 210.302 5.57 210.142 5.59C209.862 5.61 209.572 5.62 209.272 5.62C208.992 5.6 208.712 5.59 208.432 5.59H206.452ZM213.232 10.66C212.652 10.62 212.132 10.59 211.672 10.57C211.212 10.53 210.852 10.31 210.592 9.91C210.472 9.71 210.412 9.45 210.412 9.13C210.412 8.81 210.432 8.54 210.472 8.32C210.532 8.1 210.642 7.92 210.802 7.78C210.962 7.62 211.242 7.49 211.642 7.39C211.722 7.37 211.912 7.36 212.212 7.36C212.532 7.34 212.872 7.33 213.232 7.33C213.592 7.31 213.932 7.3 214.252 7.3C214.572 7.28 214.772 7.27 214.852 7.27V4.42C214.832 4.2 214.822 3.98 214.822 3.76C214.842 3.54 214.882 3.32 214.942 3.1C214.982 2.94 215.022 2.79 215.062 2.65C215.102 2.51 215.192 2.36 215.332 2.2C215.492 2 215.712 1.86 215.992 1.78C216.292 1.7 216.612 1.68 216.952 1.72C217.252 1.76 217.522 1.85 217.762 1.99C218.002 2.11 218.172 2.27 218.272 2.47C218.392 2.71 218.462 3.01 218.482 3.37C218.522 3.71 218.542 3.92 218.542 4V14.29H218.512C218.512 14.31 218.502 14.38 218.482 14.5C218.462 14.62 218.422 14.77 218.362 14.95C218.302 15.11 218.212 15.28 218.092 15.46C217.972 15.64 217.812 15.79 217.612 15.91C217.332 16.07 217.022 16.15 216.682 16.15C216.342 16.15 216.012 16.04 215.692 15.82C215.452 15.66 215.282 15.46 215.182 15.22C215.062 15 214.982 14.78 214.942 14.56C214.902 14.34 214.872 14.12 214.852 13.9V10.66H213.232ZM214.792 21.4C214.792 21.06 214.612 20.79 214.252 20.59C213.892 20.39 213.422 20.24 212.842 20.14C212.282 20.04 211.642 19.98 210.922 19.96C210.222 19.92 209.522 19.9 208.822 19.9C208.122 19.9 207.422 19.92 206.722 19.96C206.042 19.98 205.422 20.04 204.862 20.14C204.322 20.24 203.882 20.39 203.542 20.59C203.202 20.79 203.032 21.06 203.032 21.4C203.032 21.7 203.202 21.95 203.542 22.15C203.882 22.35 204.322 22.5 204.862 22.6C205.422 22.7 206.042 22.77 206.722 22.81C207.422 22.85 208.122 22.87 208.822 22.87C209.522 22.87 210.222 22.87 210.922 22.87C211.642 22.87 212.282 22.83 212.842 22.75C213.422 22.67 213.892 22.53 214.252 22.33C214.612 22.11 214.792 21.8 214.792 21.4Z" fill="#EDA1A1"/>
<path d="M241.222 20.56C241.282 20.58 241.342 20.59 241.402 20.59C241.462 20.57 241.522 20.56 241.582 20.56C241.922 20.6 242.232 20.67 242.512 20.77C242.812 20.85 243.102 21.01 243.382 21.25C243.662 21.53 243.802 21.88 243.802 22.3C243.802 22.52 243.762 22.76 243.682 23.02C243.622 23.26 243.532 23.45 243.412 23.59C243.252 23.75 243.052 23.87 242.812 23.95C242.572 24.03 242.342 24.09 242.122 24.13C241.902 24.15 241.702 24.16 241.522 24.16C241.362 24.16 241.272 24.16 241.252 24.16H224.452C224.352 24.16 224.252 24.17 224.152 24.19C224.052 24.19 223.952 24.19 223.852 24.19C223.432 24.21 222.982 24.21 222.502 24.19C222.022 24.15 221.612 23.99 221.272 23.71C220.852 23.33 220.642 22.9 220.642 22.42C220.642 22.12 220.732 21.81 220.912 21.49C221.092 21.17 221.332 20.95 221.632 20.83C222.032 20.67 222.442 20.59 222.862 20.59C223.302 20.59 223.742 20.58 224.182 20.56H224.332C226.072 20.52 227.862 20.52 229.702 20.56L229.672 16.42C228.912 16.44 228.222 16.45 227.602 16.45C227.002 16.45 226.522 16.43 226.162 16.39C225.742 16.37 225.282 16.34 224.782 16.3C224.282 16.24 223.862 16.08 223.522 15.82C223.302 15.64 223.122 15.39 222.982 15.07C222.862 14.75 222.772 14.43 222.712 14.11C222.652 13.79 222.612 13.51 222.592 13.27C222.592 13.01 222.592 12.87 222.592 12.85V6.4C222.592 6 222.572 5.6 222.532 5.2C222.512 4.8 222.542 4.4 222.622 4C222.682 3.76 222.782 3.57 222.922 3.43C223.082 3.27 223.262 3.15 223.462 3.07C223.682 2.97 223.912 2.9 224.152 2.86C224.412 2.82 224.652 2.79 224.872 2.77C225.052 2.77 225.242 2.78 225.442 2.8C225.642 2.82 225.832 2.87 226.012 2.95C226.192 3.01 226.342 3.11 226.462 3.25C226.602 3.37 226.692 3.53 226.732 3.73C226.752 3.83 226.752 4.02 226.732 4.3C226.732 4.58 226.732 4.89 226.732 5.23C226.732 5.55 226.732 5.86 226.732 6.16C226.752 6.44 226.782 6.62 226.822 6.7C226.862 6.8 226.962 6.87 227.122 6.91C227.302 6.93 227.442 6.95 227.542 6.97C228.002 7.01 228.362 7.02 228.622 7C228.882 6.96 229.242 6.94 229.702 6.94L236.572 6.97C236.792 6.99 236.972 6.99 237.112 6.97C237.272 6.93 237.382 6.8 237.442 6.58C237.442 6.48 237.442 6.31 237.442 6.07C237.462 5.81 237.472 5.55 237.472 5.29C237.472 5.01 237.472 4.76 237.472 4.54C237.492 4.3 237.502 4.14 237.502 4.06C237.522 3.7 237.592 3.42 237.712 3.22C237.852 3 238.112 2.85 238.492 2.77C238.892 2.67 239.322 2.65 239.782 2.71C240.262 2.75 240.612 2.88 240.832 3.1C241.152 3.44 241.332 3.83 241.372 4.27C241.412 4.71 241.432 5.32 241.432 6.1C241.412 6.56 241.402 7.16 241.402 7.9C241.422 8.62 241.432 9.37 241.432 10.15C241.432 10.93 241.422 11.68 241.402 12.4C241.402 13.12 241.382 13.71 241.342 14.17C241.242 15.39 240.612 16.09 239.452 16.27C239.152 16.31 238.812 16.33 238.432 16.33C238.072 16.33 237.742 16.33 237.442 16.33C236.802 16.35 236.172 16.36 235.552 16.36C234.932 16.36 234.322 16.36 233.722 16.36L233.782 20.56C234.282 20.56 234.752 20.56 235.192 20.56C235.652 20.54 236.092 20.53 236.512 20.53C236.932 20.53 237.362 20.53 237.802 20.53C238.242 20.53 238.702 20.54 239.182 20.56C239.542 20.58 239.892 20.58 240.232 20.56C240.572 20.52 240.902 20.52 241.222 20.56ZM226.822 12.55C226.902 12.85 227.112 13.03 227.452 13.09C227.812 13.13 228.162 13.16 228.502 13.18C228.542 13.18 228.732 13.18 229.072 13.18C229.412 13.16 229.822 13.15 230.302 13.15C230.782 13.15 231.292 13.15 231.832 13.15C232.392 13.13 232.912 13.12 233.392 13.12C233.892 13.12 234.312 13.13 234.652 13.15C234.992 13.15 235.192 13.15 235.252 13.15C235.412 13.17 235.572 13.18 235.732 13.18C235.912 13.16 236.082 13.16 236.242 13.18C236.342 13.18 236.452 13.19 236.572 13.21C236.712 13.23 236.842 13.23 236.962 13.21C237.082 13.19 237.182 13.14 237.262 13.06C237.342 12.98 237.382 12.86 237.382 12.7C237.382 12.62 237.382 12.5 237.382 12.34C237.382 12.16 237.382 11.97 237.382 11.77C237.382 11.55 237.372 11.34 237.352 11.14C237.352 10.92 237.332 10.74 237.292 10.6C237.232 10.36 237.132 10.23 236.992 10.21C236.872 10.17 236.712 10.16 236.512 10.18C236.412 10.18 236.252 10.19 236.032 10.21C235.832 10.21 235.682 10.2 235.582 10.18H228.742C228.562 10.18 228.362 10.18 228.142 10.18C227.922 10.16 227.712 10.17 227.512 10.21C227.332 10.23 227.172 10.3 227.032 10.42C226.892 10.52 226.812 10.69 226.792 10.93C226.792 10.99 226.792 11.1 226.792 11.26C226.792 11.42 226.792 11.59 226.792 11.77C226.792 11.95 226.792 12.12 226.792 12.28C226.812 12.42 226.822 12.51 226.822 12.55Z" fill="#EDA1A1"/>
</svg>
