<svg width="112" height="16" viewBox="0 0 112 16" fill="none" xmlns="http://www.w3.org/2000/svg">
<mask id="path-1-outside-1_192_25" maskUnits="userSpaceOnUse" x="0" y="0" width="112" height="16" fill="black">
<rect fill="white" width="112" height="16"/>
<path d="M5.155 7.58786C4.805 7.59786 4.56 7.50286 4.42 7.30286C4.28 7.10286 4.21 6.76286 4.21 6.28286V3.86786C4.21 3.51786 4.185 3.21786 4.135 2.96786C4.085 2.70786 4.035 2.52786 3.985 2.42786C3.955 2.36786 3.955 2.31786 3.985 2.27786C4.015 2.22786 4.055 2.20286 4.105 2.20286C4.175 2.20286 4.3 2.20786 4.48 2.21786C4.66 2.22786 4.85 2.23786 5.05 2.24786C5.39 2.25786 5.8 2.26286 6.28 2.26286C6.76 2.25286 7.27 2.23786 7.81 2.21786C8.36 2.19786 8.895 2.17786 9.415 2.15786C10.005 2.13786 10.515 2.10786 10.945 2.06786C11.375 2.02786 11.72 1.99286 11.98 1.96286C12.01 1.96286 12.045 1.96786 12.085 1.97786C12.125 1.98786 12.15 2.01786 12.16 2.06786L12.205 2.47286C12.215 2.51286 12.22 2.55286 12.22 2.59286C12.22 2.62286 12.22 2.65786 12.22 2.69786C12.24 2.80786 12.18 2.86286 12.04 2.86286C11.76 2.86286 11.49 2.86786 11.23 2.87786C10.97 2.87786 10.695 2.88286 10.405 2.89286L5.155 3.02786V6.10286C5.155 6.40286 5.18 6.59786 5.23 6.68786C5.28 6.77786 5.385 6.82786 5.545 6.83786C5.795 6.84786 6.11 6.85286 6.49 6.85286C6.87 6.85286 7.265 6.84786 7.675 6.83786C8.085 6.82786 8.465 6.81786 8.815 6.80786C9.175 6.78786 9.45 6.77286 9.64 6.76286C10.18 6.74286 10.65 6.71286 11.05 6.67286C11.46 6.63286 11.79 6.58786 12.04 6.53786C12.14 6.51786 12.205 6.52286 12.235 6.55286C12.265 6.57286 12.285 6.60786 12.295 6.65786C12.315 6.76786 12.325 6.87786 12.325 6.98786C12.335 7.08786 12.345 7.20286 12.355 7.33286C12.355 7.39286 12.335 7.43286 12.295 7.45286C12.265 7.47286 12.18 7.48286 12.04 7.48286C10.97 7.48286 9.84 7.49786 8.65 7.52786C7.47 7.54786 6.305 7.56786 5.155 7.58786ZM2.53 12.2379C2.42 12.2479 2.345 12.2379 2.305 12.2079C2.265 12.1779 2.235 12.1329 2.215 12.0729C2.175 11.9629 2.14 11.8529 2.11 11.7429C2.08 11.6229 2.045 11.4779 2.005 11.3079C1.995 11.2879 2 11.2629 2.02 11.2329C2.04 11.1929 2.075 11.1779 2.125 11.1879C2.505 11.2379 3.025 11.2729 3.685 11.2929C4.345 11.3029 5.07 11.3079 5.86 11.3079C6.18 11.3079 6.505 11.3079 6.835 11.3079C7.175 11.3079 7.52 11.3029 7.87 11.2929V10.0479C7.87 9.65786 7.855 9.31786 7.825 9.02786C7.795 8.73786 7.76 8.54286 7.72 8.44286C7.68 8.34286 7.715 8.29286 7.825 8.29286H8.725C8.785 8.29286 8.815 8.33286 8.815 8.41286C8.815 8.42286 8.815 8.43286 8.815 8.44286C8.795 8.70286 8.78 8.95286 8.77 9.19286C8.76 9.43286 8.755 9.68286 8.755 9.94286L8.74 11.2779C9.5 11.2579 10.23 11.2329 10.93 11.2029C11.63 11.1629 12.26 11.1179 12.82 11.0679C13.38 11.0179 13.81 10.9679 14.11 10.9179C14.21 10.8979 14.275 10.9029 14.305 10.9329C14.335 10.9629 14.355 11.0029 14.365 11.0529L14.455 11.7729C14.455 11.8229 14.44 11.8679 14.41 11.9079C14.38 11.9479 14.3 11.9679 14.17 11.9679C13.83 11.9579 13.435 11.9529 12.985 11.9529C12.535 11.9529 12.055 11.9529 11.545 11.9529C10.295 11.9529 9.085 11.9679 7.915 11.9979C6.745 12.0179 5.695 12.0479 4.765 12.0879C3.835 12.1279 3.09 12.1779 2.53 12.2379Z"/>
<path d="M19.7559 14.5029C19.7359 14.5029 19.7109 14.4979 19.6809 14.4879C19.6509 14.4779 19.6359 14.4479 19.6359 14.3979C19.6359 14.3779 19.6359 14.3329 19.6359 14.2629C19.6359 14.1129 19.6359 13.8579 19.6359 13.4979C19.6359 13.1279 19.6259 12.5429 19.6059 11.7429C19.5959 11.4829 19.5659 11.2129 19.5159 10.9329C19.4659 10.6529 19.4159 10.4779 19.3659 10.4079C19.3259 10.3479 19.3159 10.2979 19.3359 10.2579C19.3659 10.2179 19.4159 10.1979 19.4859 10.1979L20.4459 10.2429C20.7059 10.2529 21.0309 10.2579 21.4209 10.2579C21.8109 10.2579 22.2209 10.2529 22.6509 10.2429L22.6359 8.21786C22.4459 8.22786 22.2609 8.23286 22.0809 8.23286C21.9109 8.23286 21.7559 8.23786 21.6159 8.24786C20.6059 8.27786 19.6959 8.31286 18.8859 8.35286C18.0759 8.39286 17.4509 8.43786 17.0109 8.48786C16.9009 8.49786 16.8259 8.48786 16.7859 8.45786C16.7459 8.42786 16.7159 8.38286 16.6959 8.32286C16.6559 8.21286 16.6209 8.10286 16.5909 7.99286C16.5609 7.88286 16.5259 7.74286 16.4859 7.57286C16.4759 7.55286 16.4809 7.52786 16.5009 7.49786C16.5209 7.45786 16.5559 7.44286 16.6059 7.45286C16.9859 7.50286 17.5059 7.54286 18.1659 7.57286C18.8259 7.59286 19.5509 7.59786 20.3409 7.58786C20.9509 7.58786 21.6009 7.58286 22.2909 7.57286C22.9809 7.55286 23.6659 7.53286 24.3459 7.51286C25.0359 7.48286 25.6859 7.45286 26.2959 7.42286C26.9159 7.39286 27.4609 7.35786 27.9309 7.31786C28.4109 7.27786 28.7809 7.23286 29.0409 7.18286C29.1409 7.16286 29.2059 7.16786 29.2359 7.19786C29.2659 7.22786 29.2859 7.26786 29.2959 7.31786L29.3859 7.97786C29.3959 8.11786 29.3009 8.18286 29.1009 8.17286C28.7909 8.15286 28.3709 8.14286 27.8409 8.14286C27.3209 8.14286 26.7559 8.14786 26.1459 8.15786L23.5959 8.20286V9.56786C23.5959 9.81786 23.5809 10.0329 23.5509 10.2129C24.0209 10.2029 24.4459 10.1879 24.8259 10.1679C25.2059 10.1479 25.4809 10.1229 25.6509 10.0929C25.6709 10.0929 25.6909 10.0879 25.7109 10.0779C25.7809 10.0679 25.8409 10.0679 25.8909 10.0779L26.6709 10.1829C26.7509 10.1929 26.7809 10.2529 26.7609 10.3629C26.7509 10.4929 26.7359 10.6629 26.7159 10.8729C26.7059 11.0729 26.6959 11.2729 26.6859 11.4729C26.6759 11.6629 26.6709 11.8079 26.6709 11.9079L26.6259 14.2329C26.6259 14.3729 26.5509 14.4429 26.4009 14.4429C26.1109 14.4329 25.7459 14.4279 25.3059 14.4279C24.8759 14.4279 24.4109 14.4279 23.9109 14.4279C23.4209 14.4279 22.9359 14.4279 22.4559 14.4279C21.9859 14.4279 21.5709 14.4279 21.2109 14.4279C20.8509 14.4379 20.5909 14.4479 20.4309 14.4579L19.7559 14.5029ZM22.9659 6.16286C22.3359 6.17286 21.7609 6.08286 21.2409 5.89286C20.7309 5.69286 20.3209 5.40286 20.0109 5.02286C19.7109 4.63286 19.5609 4.16786 19.5609 3.62786C19.5609 3.11786 19.7109 2.67286 20.0109 2.29286C20.3209 1.90286 20.7359 1.59786 21.2559 1.37786C21.7759 1.14786 22.3509 1.02286 22.9809 1.00286C23.6409 0.982857 24.2259 1.06786 24.7359 1.25786C25.2559 1.43786 25.6659 1.71786 25.9659 2.09786C26.2659 2.47786 26.4059 2.94786 26.3859 3.50786C26.3759 4.03786 26.2209 4.50286 25.9209 4.90286C25.6209 5.29286 25.2159 5.59786 24.7059 5.81786C24.2059 6.02786 23.6259 6.14286 22.9659 6.16286ZM22.9809 5.42786C23.7109 5.40786 24.2959 5.23286 24.7359 4.90286C25.1759 4.57286 25.4059 4.10286 25.4259 3.49286C25.4459 2.87286 25.2209 2.41286 24.7509 2.11286C24.2809 1.81286 23.6859 1.67286 22.9659 1.69286C22.2559 1.71286 21.6659 1.89786 21.1959 2.24786C20.7259 2.58786 20.4909 3.03786 20.4909 3.59786C20.4909 4.21786 20.7209 4.68286 21.1809 4.99286C21.6409 5.30286 22.2409 5.44786 22.9809 5.42786ZM20.5209 13.6329C20.6609 13.6429 20.9059 13.6479 21.2559 13.6479C21.6059 13.6579 22.0009 13.6579 22.4409 13.6479C22.8909 13.6479 23.3359 13.6429 23.7759 13.6329C24.2259 13.6229 24.6259 13.6129 24.9759 13.6029C25.3259 13.5929 25.5759 13.5779 25.7259 13.5579L25.7559 11.0229C25.7559 10.9529 25.7459 10.9129 25.7259 10.9029C25.7059 10.8829 25.6709 10.8729 25.6209 10.8729L20.5209 10.9629V13.6329Z"/>
<path d="M35.2953 9.10286C34.6853 9.11286 34.1253 8.98786 33.6153 8.72786C33.1053 8.46786 32.6953 8.09786 32.3853 7.61786C32.0853 7.12786 31.9353 6.56786 31.9353 5.93786C31.9353 5.32786 32.0853 4.78286 32.3853 4.30286C32.6853 3.81286 33.0903 3.42286 33.6003 3.13286C34.1203 2.83286 34.6903 2.67786 35.3103 2.66786C35.9303 2.64786 36.4903 2.75786 36.9903 2.99786C37.5003 3.23786 37.9053 3.59286 38.2053 4.06286C38.5053 4.53286 38.6553 5.11286 38.6553 5.80286C38.6553 6.42286 38.5053 6.97786 38.2053 7.46786C37.9053 7.95786 37.5003 8.34786 36.9903 8.63786C36.4803 8.92786 35.9153 9.08286 35.2953 9.10286ZM35.3103 8.24786C35.7503 8.22786 36.1503 8.11786 36.5103 7.91786C36.8703 7.70786 37.1553 7.42286 37.3653 7.06286C37.5853 6.69286 37.6953 6.27786 37.6953 5.81786C37.6953 5.30786 37.5853 4.87286 37.3653 4.51286C37.1553 4.15286 36.8703 3.88286 36.5103 3.70286C36.1503 3.51286 35.7503 3.42786 35.3103 3.44786C34.8703 3.45786 34.4653 3.57286 34.0953 3.79286C33.7253 4.00286 33.4303 4.29286 33.2103 4.66286C32.9903 5.02286 32.8803 5.44286 32.8803 5.92286C32.8803 6.42286 32.9903 6.84786 33.2103 7.19786C33.4403 7.54786 33.7403 7.81286 34.1103 7.99286C34.4803 8.17286 34.8803 8.25786 35.3103 8.24786ZM41.1903 13.7529C41.1503 13.7529 41.1303 13.7279 41.1303 13.6779V2.84786C41.1303 2.46786 41.1153 2.11786 41.0853 1.79786C41.0653 1.46786 41.0303 1.25286 40.9803 1.15286C40.9603 1.10286 40.9603 1.06786 40.9803 1.04786C41.0103 1.01786 41.0453 1.00286 41.0853 1.00286C41.1453 1.00286 41.2453 1.00786 41.3853 1.01786C41.5353 1.01786 41.6803 1.02286 41.8203 1.03286C41.9603 1.03286 42.0403 1.03286 42.0603 1.03286C42.1103 1.03286 42.1353 1.07286 42.1353 1.15286C42.1053 1.52286 42.0853 1.84786 42.0753 2.12786C42.0753 2.39786 42.0753 2.71286 42.0753 3.07286V13.3779C42.0753 13.5279 42.0653 13.6179 42.0453 13.6479C42.0353 13.6779 42.0053 13.6979 41.9553 13.7079L41.1903 13.7529Z"/>
<path d="M55.0906 14.5029C54.7806 14.4929 54.5356 14.3879 54.3556 14.1879C54.1756 13.9879 54.0856 13.6729 54.0856 13.2429V12.4779C54.0856 12.3179 54.0756 12.1579 54.0556 11.9979C54.0356 11.8379 53.9906 11.6929 53.9206 11.5629C53.9006 11.5229 53.9006 11.4829 53.9206 11.4429C53.9406 11.4029 53.9856 11.3829 54.0556 11.3829C54.3156 11.3929 54.6506 11.4029 55.0606 11.4129C55.4706 11.4129 55.9206 11.4129 56.4106 11.4129C56.9006 11.4129 57.3856 11.4079 57.8656 11.3979C58.3556 11.3779 58.8006 11.3579 59.2006 11.3379C59.6106 11.3179 59.9356 11.2879 60.1756 11.2479L60.2206 9.95786C60.2206 9.94786 60.2206 9.93286 60.2206 9.91286C60.2206 9.86286 60.2156 9.83286 60.2056 9.82286C60.1956 9.80286 60.1506 9.79286 60.0706 9.79286C59.8506 9.79286 59.5356 9.79786 59.1256 9.80786C58.7156 9.81786 58.2756 9.83286 57.8056 9.85286C57.3456 9.86286 56.9056 9.87786 56.4856 9.89786C56.0656 9.90786 55.7256 9.92286 55.4656 9.94286L54.3106 10.0179C54.2006 10.0279 54.1306 10.0179 54.1006 9.98786C54.0706 9.94786 54.0456 9.89286 54.0256 9.82286L53.9356 9.26786C53.9156 9.18786 53.9556 9.15286 54.0556 9.16286C54.2256 9.17286 54.4856 9.18286 54.8356 9.19286C55.1956 9.20286 55.6056 9.20786 56.0656 9.20786C56.5356 9.19786 57.0206 9.18286 57.5206 9.16286C58.0206 9.14286 58.5006 9.11786 58.9606 9.08786C59.4206 9.05786 59.8206 9.01786 60.1606 8.96786C60.1806 8.96786 60.2006 8.96286 60.2206 8.95286C60.2906 8.94286 60.3456 8.94286 60.3856 8.95286L61.1506 9.07286C61.2006 9.08286 61.2256 9.10286 61.2256 9.13286C61.2356 9.15286 61.2406 9.17286 61.2406 9.19286C61.2406 9.20286 61.2406 9.20786 61.2406 9.20786C61.1906 9.65786 61.1506 10.0829 61.1206 10.4829C61.0906 10.8829 61.0606 11.3079 61.0306 11.7579C61.0206 11.8679 60.9906 11.9379 60.9406 11.9679C60.8906 11.9879 60.8406 11.9979 60.7906 11.9979C60.4606 11.9979 60.0506 12.0029 59.5606 12.0129C59.0706 12.0229 58.5506 12.0329 58.0006 12.0429C57.4606 12.0529 56.9306 12.0679 56.4106 12.0879C55.8906 12.0979 55.4306 12.1079 55.0306 12.1179V13.1829C55.0306 13.4129 55.0506 13.5579 55.0906 13.6179C55.1406 13.6879 55.2506 13.7279 55.4206 13.7379C56.0706 13.7579 56.7606 13.7629 57.4906 13.7529C58.2206 13.7429 58.9106 13.7179 59.5606 13.6779C59.9706 13.6579 60.3456 13.6279 60.6856 13.5879C61.0256 13.5479 61.3256 13.4929 61.5856 13.4229C61.6856 13.4029 61.7506 13.4079 61.7806 13.4379C61.8106 13.4679 61.8306 13.5079 61.8406 13.5579L61.9306 14.1879C61.9406 14.2379 61.9256 14.2829 61.8856 14.3229C61.8456 14.3629 61.7556 14.3829 61.6156 14.3829C60.9156 14.3829 60.1856 14.3879 59.4256 14.3979C58.6656 14.4179 57.9156 14.4329 57.1756 14.4429C56.4456 14.4629 55.7506 14.4829 55.0906 14.5029ZM51.1756 7.96286C51.0656 7.97286 50.9956 7.96786 50.9656 7.94786C50.9356 7.92786 50.9056 7.87286 50.8756 7.78286C50.8356 7.67286 50.8006 7.57286 50.7706 7.48286C50.7506 7.38286 50.7206 7.24786 50.6806 7.07786C50.6706 7.05786 50.6756 7.03286 50.6956 7.00286C50.7156 6.97286 50.7506 6.96286 50.8006 6.97286C50.9506 6.99286 51.2006 7.01286 51.5506 7.03286C51.9006 7.05286 52.3006 7.05786 52.7506 7.04786L52.6606 4.99286C52.6106 4.21286 52.5356 3.72786 52.4356 3.53786C52.4156 3.48786 52.4156 3.45286 52.4356 3.43286C52.4656 3.40286 52.5006 3.38786 52.5406 3.38786L53.5156 3.40286C53.5656 3.40286 53.5906 3.43786 53.5906 3.50786C53.5806 3.76786 53.5706 3.98286 53.5606 4.15286C53.5506 4.31286 53.5456 4.47286 53.5456 4.63286C53.5456 4.78286 53.5456 4.98286 53.5456 5.23286L53.5306 7.03286C53.8906 7.01286 54.2956 6.99286 54.7456 6.97286C55.1956 6.94286 55.5956 6.90786 55.9456 6.86786L56.0656 5.03786C56.0856 4.65786 56.0956 4.30786 56.0956 3.98786C56.0956 3.66786 56.0706 3.45786 56.0206 3.35786C56.0006 3.30786 56.0006 3.27286 56.0206 3.25286C56.0506 3.22286 56.0856 3.20786 56.1256 3.20786C56.1756 3.20786 56.2756 3.21286 56.4256 3.22286C56.5856 3.23286 56.7356 3.24286 56.8756 3.25286C57.0256 3.25286 57.1106 3.25286 57.1306 3.25286C57.2006 3.26286 57.2256 3.31286 57.2056 3.40286C57.1556 3.72286 57.1106 4.03786 57.0706 4.34786C57.0406 4.64786 57.0056 4.97786 56.9656 5.33786L56.8306 6.77786C57.3306 6.70786 57.8156 6.62786 58.2856 6.53786C58.7556 6.44786 59.1806 6.34786 59.5606 6.23786C59.6306 6.20786 59.6756 6.23286 59.6956 6.31286L59.7556 6.73286C59.7756 6.82286 59.7656 6.88286 59.7256 6.91286C59.6956 6.94286 59.6506 6.96786 59.5906 6.98786C59.3706 7.04786 59.0356 7.11786 58.5856 7.19786C58.1456 7.27786 57.6456 7.35786 57.0856 7.43786C56.5356 7.50786 55.9856 7.57786 55.4356 7.64786C54.8856 7.70786 54.3906 7.75286 53.9506 7.78286C53.4106 7.81286 52.9206 7.84786 52.4806 7.88786C52.0506 7.91786 51.6156 7.94286 51.1756 7.96286ZM60.3106 8.18786C60.2706 8.18786 60.2506 8.16286 60.2506 8.11286V2.83286C60.2506 2.45286 60.2356 2.10286 60.2056 1.78286C60.1856 1.46286 60.1506 1.25286 60.1006 1.15286C60.0806 1.10286 60.0806 1.06786 60.1006 1.04786C60.1306 1.01786 60.1656 1.00286 60.2056 1.00286C60.2856 1.00286 60.4206 1.00286 60.6106 1.00286C60.8106 1.00286 61.0006 1.00786 61.1806 1.01786C61.2306 1.01786 61.2556 1.05786 61.2556 1.13786C61.2256 1.50786 61.2056 1.83286 61.1956 2.11286C61.1956 2.38286 61.1956 2.69786 61.1956 3.05786V7.81286C61.1956 7.96286 61.1856 8.05286 61.1656 8.08286C61.1556 8.11286 61.1256 8.13286 61.0756 8.14286L60.3106 8.18786ZM51.5506 2.92286C51.4506 2.94286 51.3856 2.93786 51.3556 2.90786C51.3256 2.86786 51.3006 2.81786 51.2806 2.75786C51.2706 2.74786 51.2656 2.73786 51.2656 2.72786C51.2256 2.61786 51.1956 2.52286 51.1756 2.44286C51.1556 2.36286 51.1306 2.24786 51.1006 2.09786C51.0906 2.02786 51.1306 1.99286 51.2206 1.99286C51.5006 2.01286 51.8106 2.02786 52.1506 2.03786C52.4906 2.04786 52.9006 2.04786 53.3806 2.03786C53.8506 2.02786 54.3306 2.01786 54.8206 2.00786C55.3206 1.98786 55.7406 1.96786 56.0806 1.94786C56.4106 1.92786 56.7456 1.90286 57.0856 1.87286C57.4256 1.84286 57.7856 1.80286 58.1656 1.75286C58.1956 1.74286 58.2306 1.74786 58.2706 1.76786C58.3106 1.77786 58.3356 1.80786 58.3456 1.85786C58.3956 2.06786 58.4306 2.29786 58.4506 2.54786C58.4506 2.65786 58.3906 2.71286 58.2706 2.71286C58.0806 2.70286 57.8556 2.69786 57.5956 2.69786C57.3456 2.68786 57.1206 2.68286 56.9206 2.68286C56.6106 2.68286 56.2006 2.69286 55.6906 2.71286C55.1906 2.72286 54.6656 2.73786 54.1156 2.75786C53.5756 2.77786 53.0706 2.80286 52.6006 2.83286C52.1406 2.86286 51.7906 2.89286 51.5506 2.92286Z"/>
<path d="M70.4523 7.78286C69.7623 7.78286 69.1423 7.66286 68.5923 7.42286C68.0523 7.17286 67.6273 6.82286 67.3173 6.37286C67.0073 5.91286 66.8573 5.36786 66.8673 4.73786C66.8873 4.15786 67.0623 3.64286 67.3923 3.19286C67.7323 2.73286 68.1873 2.36786 68.7573 2.09786C69.3273 1.82786 69.9573 1.68786 70.6473 1.67786C71.3573 1.67786 71.9873 1.80286 72.5373 2.05286C73.0873 2.30286 73.5173 2.65786 73.8273 3.11786C74.1473 3.56786 74.2923 4.09286 74.2623 4.69286C74.2223 5.33286 74.0323 5.88286 73.6923 6.34286C73.3623 6.80286 72.9173 7.15786 72.3573 7.40786C71.7973 7.65786 71.1623 7.78286 70.4523 7.78286ZM70.4823 7.01786C71.2723 6.99786 71.9223 6.78786 72.4323 6.38786C72.9423 5.98786 73.2173 5.42286 73.2573 4.69286C73.2973 4.01286 73.0723 3.46786 72.5823 3.05786C72.0923 2.64786 71.4323 2.44286 70.6023 2.44286C70.0223 2.44286 69.5273 2.55286 69.1173 2.77286C68.7073 2.99286 68.3973 3.27786 68.1873 3.62786C67.9773 3.96786 67.8623 4.33786 67.8423 4.73786C67.8223 5.19786 67.9273 5.60286 68.1573 5.95286C68.3873 6.30286 68.7073 6.57286 69.1173 6.76286C69.5273 6.94286 69.9823 7.02786 70.4823 7.01786ZM64.9323 12.2379C64.8223 12.2479 64.7473 12.2379 64.7073 12.2079C64.6673 12.1779 64.6373 12.1329 64.6173 12.0729C64.5773 11.9629 64.5423 11.8529 64.5123 11.7429C64.4823 11.6229 64.4473 11.4779 64.4073 11.3079C64.3973 11.2879 64.4023 11.2629 64.4223 11.2329C64.4423 11.1929 64.4773 11.1779 64.5273 11.1879C64.8973 11.2379 65.4023 11.2729 66.0423 11.2929C66.6923 11.3029 67.4073 11.3079 68.1873 11.3079L68.1123 10.1079C68.1023 9.91786 68.0823 9.70786 68.0523 9.47786C68.0223 9.24786 67.9873 9.03786 67.9473 8.84786C67.9073 8.64786 67.8673 8.51786 67.8273 8.45786C67.8073 8.39786 67.8073 8.35786 67.8273 8.33786C67.8573 8.31786 67.8923 8.30286 67.9323 8.29286H68.9373C68.9773 8.30286 68.9973 8.34786 68.9973 8.42786C68.9973 8.43786 68.9973 8.44786 68.9973 8.45786C68.9973 8.71786 68.9973 8.97286 68.9973 9.22286C68.9973 9.47286 69.0023 9.72786 69.0123 9.98786L69.0423 11.3079C69.5823 11.3079 70.1223 11.3029 70.6623 11.2929C71.2023 11.2729 71.7373 11.2529 72.2673 11.2329L72.3423 9.92786C72.3523 9.73786 72.3573 9.53286 72.3573 9.31286C72.3673 9.09286 72.3623 8.89286 72.3423 8.71286C72.3323 8.52286 72.3073 8.39286 72.2673 8.32286C72.2473 8.25286 72.2523 8.21286 72.2823 8.20286C72.3123 8.18286 72.3473 8.17286 72.3873 8.17286C72.4373 8.17286 72.5373 8.17786 72.6873 8.18786C72.8373 8.18786 72.9823 8.19286 73.1223 8.20286C73.2723 8.21286 73.3573 8.21786 73.3773 8.21786C73.4273 8.24786 73.4423 8.29786 73.4223 8.36786C73.4223 8.37786 73.4223 8.38286 73.4223 8.38286C73.3923 8.64286 73.3623 8.89286 73.3323 9.13286C73.3023 9.37286 73.2773 9.62286 73.2573 9.88286L73.1373 11.2029C73.8773 11.1629 74.5423 11.1229 75.1323 11.0829C75.7323 11.0329 76.1923 10.9779 76.5123 10.9179C76.6123 10.8979 76.6773 10.9029 76.7073 10.9329C76.7373 10.9629 76.7573 11.0029 76.7673 11.0529L76.8573 11.7729C76.8573 11.8229 76.8423 11.8679 76.8123 11.9079C76.7823 11.9479 76.7023 11.9679 76.5723 11.9679C76.2323 11.9579 75.8373 11.9529 75.3873 11.9529C74.9373 11.9529 74.4573 11.9529 73.9473 11.9529C72.6973 11.9529 71.4873 11.9679 70.3173 11.9979C69.1473 12.0179 68.0973 12.0479 67.1673 12.0879C66.2373 12.1279 65.4923 12.1779 64.9323 12.2379Z"/>
<path d="M94.4968 13.7529C94.4568 13.7529 94.4368 13.7279 94.4368 13.6779V7.06286C94.1568 7.06286 93.8668 7.06786 93.5668 7.07786C93.2668 7.07786 93.0018 7.08286 92.7718 7.09286V12.9879C92.7718 13.1379 92.7618 13.2279 92.7418 13.2579C92.7318 13.2879 92.7018 13.3079 92.6518 13.3179C92.6218 13.3179 92.5518 13.3229 92.4418 13.3329C92.3418 13.3329 92.2418 13.3379 92.1418 13.3479C92.0418 13.3579 91.9718 13.3629 91.9318 13.3629C91.8918 13.3629 91.8718 13.3379 91.8718 13.2879V3.22286C91.8718 2.84286 91.8618 2.49286 91.8418 2.17286C91.8218 1.85286 91.7868 1.64286 91.7368 1.54286C91.7168 1.49286 91.7168 1.45786 91.7368 1.43786C91.7668 1.40786 91.8018 1.39286 91.8418 1.39286L92.7268 1.40786C92.7768 1.42786 92.8018 1.46786 92.8018 1.52786C92.7818 1.81786 92.7718 2.07786 92.7718 2.30786C92.7718 2.53786 92.7718 2.77786 92.7718 3.02786C92.7718 3.08786 92.7718 3.15286 92.7718 3.22286C92.7718 3.29286 92.7718 3.36786 92.7718 3.44786V6.29786C93.3318 6.31786 93.8868 6.30286 94.4368 6.25286V2.83286C94.4368 2.45286 94.4268 2.10286 94.4068 1.78286C94.3968 1.46286 94.3668 1.25286 94.3168 1.15286C94.2968 1.10286 94.2968 1.06786 94.3168 1.04786C94.3468 1.01786 94.3818 1.00286 94.4218 1.00286L95.3068 1.01786C95.3568 1.03786 95.3818 1.07786 95.3818 1.13786C95.3618 1.43786 95.3468 1.70786 95.3368 1.94786C95.3368 2.18786 95.3368 2.43786 95.3368 2.69786C95.3368 2.75786 95.3368 2.81786 95.3368 2.87786C95.3368 2.93786 95.3368 2.99786 95.3368 3.05786V13.3779C95.3368 13.5279 95.3268 13.6179 95.3068 13.6479C95.2968 13.6779 95.2668 13.6979 95.2168 13.7079C95.1868 13.7079 95.1168 13.7079 95.0068 13.7079C94.9068 13.7179 94.8068 13.7279 94.7068 13.7379C94.6068 13.7479 94.5368 13.7529 94.4968 13.7529ZM87.7468 10.6779C87.1568 10.6879 86.6568 10.5729 86.2468 10.3329C85.8368 10.0929 85.5268 9.78786 85.3168 9.41786C85.1068 9.04786 85.0018 8.67786 85.0018 8.30786C85.0018 7.93786 85.0968 7.57286 85.2868 7.21286C85.4868 6.84286 85.7918 6.53286 86.2018 6.28286C86.6118 6.03286 87.1418 5.90286 87.7918 5.89286C88.6718 5.87286 89.3518 6.07786 89.8318 6.50786C90.3218 6.93786 90.5568 7.50786 90.5368 8.21786C90.5268 8.59786 90.4118 8.97786 90.1918 9.35786C89.9818 9.72786 89.6718 10.0379 89.2618 10.2879C88.8518 10.5279 88.3468 10.6579 87.7468 10.6779ZM87.7468 9.94286C88.3468 9.92286 88.8018 9.74786 89.1118 9.41786C89.4218 9.08786 89.5868 8.69286 89.6068 8.23286C89.6268 7.97286 89.5768 7.71286 89.4568 7.45286C89.3468 7.18286 89.1568 6.95786 88.8868 6.77786C88.6268 6.58786 88.2618 6.50286 87.7918 6.52286C87.3318 6.53286 86.9618 6.62786 86.6818 6.80786C86.4018 6.97786 86.1968 7.19786 86.0668 7.46786C85.9468 7.72786 85.8868 8.00286 85.8868 8.29286C85.8868 8.72286 86.0468 9.10786 86.3668 9.44786C86.6968 9.77786 87.1568 9.94286 87.7468 9.94286ZM84.4468 5.20286C84.3468 5.21286 84.2818 5.20286 84.2518 5.17286C84.2218 5.13286 84.1968 5.08786 84.1768 5.03786C84.1668 5.02786 84.1618 5.01786 84.1618 5.00786C84.1218 4.89786 84.0918 4.80786 84.0718 4.73786C84.0518 4.66786 84.0218 4.54786 83.9818 4.37786C83.9718 4.35786 83.9768 4.33286 83.9968 4.30286C84.0168 4.27286 84.0518 4.25786 84.1018 4.25786C84.3018 4.26786 84.5118 4.28286 84.7318 4.30286C84.9618 4.31286 85.3118 4.31786 85.7818 4.31786C86.1918 4.31786 86.6968 4.31286 87.2968 4.30286C87.8968 4.28286 88.5018 4.24786 89.1118 4.19786C89.3618 4.17786 89.6168 4.15286 89.8768 4.12286C90.1468 4.09286 90.3868 4.06286 90.5968 4.03286C90.8068 3.99286 90.9468 3.96286 91.0168 3.94286C91.0468 3.93286 91.0818 3.93786 91.1218 3.95786C91.1618 3.96786 91.1868 4.00786 91.1968 4.07786L91.2718 4.69286C91.2818 4.74286 91.2768 4.79286 91.2568 4.84286C91.2468 4.89286 91.2018 4.91786 91.1218 4.91786H89.2918C89.0718 4.91786 88.8068 4.92286 88.4968 4.93286C88.1968 4.94286 87.8918 4.95286 87.5818 4.96286C87.2718 4.97286 86.9968 4.98786 86.7568 5.00786C86.5168 5.01786 86.3468 5.02786 86.2468 5.03786C85.9468 5.05786 85.6318 5.08786 85.3018 5.12786C84.9818 5.15786 84.6968 5.18286 84.4468 5.20286ZM87.2968 2.96786C87.1568 2.94786 86.9668 2.92286 86.7268 2.89286C86.4868 2.85286 86.2518 2.80286 86.0218 2.74286C85.7918 2.67286 85.6068 2.58786 85.4668 2.48786C85.4268 2.45786 85.4168 2.39786 85.4368 2.30786C85.4568 2.20786 85.4918 2.11786 85.5418 2.03786C85.5918 1.94786 85.6418 1.91286 85.6918 1.93286C86.1218 2.01286 86.5868 2.06286 87.0868 2.08286C87.5968 2.10286 88.0768 2.10786 88.5268 2.09786C88.9768 2.07786 89.3418 2.05786 89.6218 2.03786C89.7018 2.02786 89.7518 2.03286 89.7718 2.05286C89.7918 2.06286 89.8068 2.09286 89.8168 2.14286C89.8168 2.15286 89.8168 2.16786 89.8168 2.18786C89.8168 2.27786 89.8118 2.40286 89.8018 2.56286C89.7918 2.71286 89.7568 2.79786 89.6968 2.81786C89.6368 2.83786 89.4768 2.86786 89.2168 2.90786C88.9668 2.93786 88.6668 2.96286 88.3168 2.98286C87.9768 2.99286 87.6368 2.98786 87.2968 2.96786Z"/>
<path d="M104.504 7.78286C103.814 7.78286 103.194 7.66286 102.644 7.42286C102.104 7.17286 101.679 6.82286 101.369 6.37286C101.059 5.91286 100.909 5.36786 100.919 4.73786C100.939 4.15786 101.114 3.64286 101.444 3.19286C101.784 2.73286 102.239 2.36786 102.809 2.09786C103.379 1.82786 104.009 1.68786 104.699 1.67786C105.409 1.67786 106.039 1.80286 106.589 2.05286C107.139 2.30286 107.569 2.65786 107.879 3.11786C108.199 3.56786 108.344 4.09286 108.314 4.69286C108.274 5.33286 108.084 5.88286 107.744 6.34286C107.414 6.80286 106.969 7.15786 106.409 7.40786C105.849 7.65786 105.214 7.78286 104.504 7.78286ZM104.534 7.01786C105.324 6.99786 105.974 6.78786 106.484 6.38786C106.994 5.98786 107.269 5.42286 107.309 4.69286C107.349 4.01286 107.124 3.46786 106.634 3.05786C106.144 2.64786 105.484 2.44286 104.654 2.44286C104.074 2.44286 103.579 2.55286 103.169 2.77286C102.759 2.99286 102.449 3.27786 102.239 3.62786C102.029 3.96786 101.914 4.33786 101.894 4.73786C101.874 5.19786 101.979 5.60286 102.209 5.95286C102.439 6.30286 102.759 6.57286 103.169 6.76286C103.579 6.94286 104.034 7.02786 104.534 7.01786ZM98.9841 12.2379C98.8741 12.2479 98.7991 12.2379 98.7591 12.2079C98.7191 12.1779 98.6891 12.1329 98.6691 12.0729C98.6291 11.9629 98.5941 11.8529 98.5641 11.7429C98.5341 11.6229 98.4991 11.4779 98.4591 11.3079C98.4491 11.2879 98.4541 11.2629 98.4741 11.2329C98.4941 11.1929 98.5291 11.1779 98.5791 11.1879C98.9491 11.2379 99.4541 11.2729 100.094 11.2929C100.744 11.3029 101.459 11.3079 102.239 11.3079L102.164 10.1079C102.154 9.91786 102.134 9.70786 102.104 9.47786C102.074 9.24786 102.039 9.03786 101.999 8.84786C101.959 8.64786 101.919 8.51786 101.879 8.45786C101.859 8.39786 101.859 8.35786 101.879 8.33786C101.909 8.31786 101.944 8.30286 101.984 8.29286H102.989C103.029 8.30286 103.049 8.34786 103.049 8.42786C103.049 8.43786 103.049 8.44786 103.049 8.45786C103.049 8.71786 103.049 8.97286 103.049 9.22286C103.049 9.47286 103.054 9.72786 103.064 9.98786L103.094 11.3079C103.634 11.3079 104.174 11.3029 104.714 11.2929C105.254 11.2729 105.789 11.2529 106.319 11.2329L106.394 9.92786C106.404 9.73786 106.409 9.53286 106.409 9.31286C106.419 9.09286 106.414 8.89286 106.394 8.71286C106.384 8.52286 106.359 8.39286 106.319 8.32286C106.299 8.25286 106.304 8.21286 106.334 8.20286C106.364 8.18286 106.399 8.17286 106.439 8.17286C106.489 8.17286 106.589 8.17786 106.739 8.18786C106.889 8.18786 107.034 8.19286 107.174 8.20286C107.324 8.21286 107.409 8.21786 107.429 8.21786C107.479 8.24786 107.494 8.29786 107.474 8.36786C107.474 8.37786 107.474 8.38286 107.474 8.38286C107.444 8.64286 107.414 8.89286 107.384 9.13286C107.354 9.37286 107.329 9.62286 107.309 9.88286L107.189 11.2029C107.929 11.1629 108.594 11.1229 109.184 11.0829C109.784 11.0329 110.244 10.9779 110.564 10.9179C110.664 10.8979 110.729 10.9029 110.759 10.9329C110.789 10.9629 110.809 11.0029 110.819 11.0529L110.909 11.7729C110.909 11.8229 110.894 11.8679 110.864 11.9079C110.834 11.9479 110.754 11.9679 110.624 11.9679C110.284 11.9579 109.889 11.9529 109.439 11.9529C108.989 11.9529 108.509 11.9529 107.999 11.9529C106.749 11.9529 105.539 11.9679 104.369 11.9979C103.199 12.0179 102.149 12.0479 101.219 12.0879C100.289 12.1279 99.5441 12.1779 98.9841 12.2379Z"/>
</mask>
<path d="M5.155 7.58786C4.805 7.59786 4.56 7.50286 4.42 7.30286C4.28 7.10286 4.21 6.76286 4.21 6.28286V3.86786C4.21 3.51786 4.185 3.21786 4.135 2.96786C4.085 2.70786 4.035 2.52786 3.985 2.42786C3.955 2.36786 3.955 2.31786 3.985 2.27786C4.015 2.22786 4.055 2.20286 4.105 2.20286C4.175 2.20286 4.3 2.20786 4.48 2.21786C4.66 2.22786 4.85 2.23786 5.05 2.24786C5.39 2.25786 5.8 2.26286 6.28 2.26286C6.76 2.25286 7.27 2.23786 7.81 2.21786C8.36 2.19786 8.895 2.17786 9.415 2.15786C10.005 2.13786 10.515 2.10786 10.945 2.06786C11.375 2.02786 11.72 1.99286 11.98 1.96286C12.01 1.96286 12.045 1.96786 12.085 1.97786C12.125 1.98786 12.15 2.01786 12.16 2.06786L12.205 2.47286C12.215 2.51286 12.22 2.55286 12.22 2.59286C12.22 2.62286 12.22 2.65786 12.22 2.69786C12.24 2.80786 12.18 2.86286 12.04 2.86286C11.76 2.86286 11.49 2.86786 11.23 2.87786C10.97 2.87786 10.695 2.88286 10.405 2.89286L5.155 3.02786V6.10286C5.155 6.40286 5.18 6.59786 5.23 6.68786C5.28 6.77786 5.385 6.82786 5.545 6.83786C5.795 6.84786 6.11 6.85286 6.49 6.85286C6.87 6.85286 7.265 6.84786 7.675 6.83786C8.085 6.82786 8.465 6.81786 8.815 6.80786C9.175 6.78786 9.45 6.77286 9.64 6.76286C10.18 6.74286 10.65 6.71286 11.05 6.67286C11.46 6.63286 11.79 6.58786 12.04 6.53786C12.14 6.51786 12.205 6.52286 12.235 6.55286C12.265 6.57286 12.285 6.60786 12.295 6.65786C12.315 6.76786 12.325 6.87786 12.325 6.98786C12.335 7.08786 12.345 7.20286 12.355 7.33286C12.355 7.39286 12.335 7.43286 12.295 7.45286C12.265 7.47286 12.18 7.48286 12.04 7.48286C10.97 7.48286 9.84 7.49786 8.65 7.52786C7.47 7.54786 6.305 7.56786 5.155 7.58786ZM2.53 12.2379C2.42 12.2479 2.345 12.2379 2.305 12.2079C2.265 12.1779 2.235 12.1329 2.215 12.0729C2.175 11.9629 2.14 11.8529 2.11 11.7429C2.08 11.6229 2.045 11.4779 2.005 11.3079C1.995 11.2879 2 11.2629 2.02 11.2329C2.04 11.1929 2.075 11.1779 2.125 11.1879C2.505 11.2379 3.025 11.2729 3.685 11.2929C4.345 11.3029 5.07 11.3079 5.86 11.3079C6.18 11.3079 6.505 11.3079 6.835 11.3079C7.175 11.3079 7.52 11.3029 7.87 11.2929V10.0479C7.87 9.65786 7.855 9.31786 7.825 9.02786C7.795 8.73786 7.76 8.54286 7.72 8.44286C7.68 8.34286 7.715 8.29286 7.825 8.29286H8.725C8.785 8.29286 8.815 8.33286 8.815 8.41286C8.815 8.42286 8.815 8.43286 8.815 8.44286C8.795 8.70286 8.78 8.95286 8.77 9.19286C8.76 9.43286 8.755 9.68286 8.755 9.94286L8.74 11.2779C9.5 11.2579 10.23 11.2329 10.93 11.2029C11.63 11.1629 12.26 11.1179 12.82 11.0679C13.38 11.0179 13.81 10.9679 14.11 10.9179C14.21 10.8979 14.275 10.9029 14.305 10.9329C14.335 10.9629 14.355 11.0029 14.365 11.0529L14.455 11.7729C14.455 11.8229 14.44 11.8679 14.41 11.9079C14.38 11.9479 14.3 11.9679 14.17 11.9679C13.83 11.9579 13.435 11.9529 12.985 11.9529C12.535 11.9529 12.055 11.9529 11.545 11.9529C10.295 11.9529 9.085 11.9679 7.915 11.9979C6.745 12.0179 5.695 12.0479 4.765 12.0879C3.835 12.1279 3.09 12.1779 2.53 12.2379Z" fill="white"/>
<path d="M19.7559 14.5029C19.7359 14.5029 19.7109 14.4979 19.6809 14.4879C19.6509 14.4779 19.6359 14.4479 19.6359 14.3979C19.6359 14.3779 19.6359 14.3329 19.6359 14.2629C19.6359 14.1129 19.6359 13.8579 19.6359 13.4979C19.6359 13.1279 19.6259 12.5429 19.6059 11.7429C19.5959 11.4829 19.5659 11.2129 19.5159 10.9329C19.4659 10.6529 19.4159 10.4779 19.3659 10.4079C19.3259 10.3479 19.3159 10.2979 19.3359 10.2579C19.3659 10.2179 19.4159 10.1979 19.4859 10.1979L20.4459 10.2429C20.7059 10.2529 21.0309 10.2579 21.4209 10.2579C21.8109 10.2579 22.2209 10.2529 22.6509 10.2429L22.6359 8.21786C22.4459 8.22786 22.2609 8.23286 22.0809 8.23286C21.9109 8.23286 21.7559 8.23786 21.6159 8.24786C20.6059 8.27786 19.6959 8.31286 18.8859 8.35286C18.0759 8.39286 17.4509 8.43786 17.0109 8.48786C16.9009 8.49786 16.8259 8.48786 16.7859 8.45786C16.7459 8.42786 16.7159 8.38286 16.6959 8.32286C16.6559 8.21286 16.6209 8.10286 16.5909 7.99286C16.5609 7.88286 16.5259 7.74286 16.4859 7.57286C16.4759 7.55286 16.4809 7.52786 16.5009 7.49786C16.5209 7.45786 16.5559 7.44286 16.6059 7.45286C16.9859 7.50286 17.5059 7.54286 18.1659 7.57286C18.8259 7.59286 19.5509 7.59786 20.3409 7.58786C20.9509 7.58786 21.6009 7.58286 22.2909 7.57286C22.9809 7.55286 23.6659 7.53286 24.3459 7.51286C25.0359 7.48286 25.6859 7.45286 26.2959 7.42286C26.9159 7.39286 27.4609 7.35786 27.9309 7.31786C28.4109 7.27786 28.7809 7.23286 29.0409 7.18286C29.1409 7.16286 29.2059 7.16786 29.2359 7.19786C29.2659 7.22786 29.2859 7.26786 29.2959 7.31786L29.3859 7.97786C29.3959 8.11786 29.3009 8.18286 29.1009 8.17286C28.7909 8.15286 28.3709 8.14286 27.8409 8.14286C27.3209 8.14286 26.7559 8.14786 26.1459 8.15786L23.5959 8.20286V9.56786C23.5959 9.81786 23.5809 10.0329 23.5509 10.2129C24.0209 10.2029 24.4459 10.1879 24.8259 10.1679C25.2059 10.1479 25.4809 10.1229 25.6509 10.0929C25.6709 10.0929 25.6909 10.0879 25.7109 10.0779C25.7809 10.0679 25.8409 10.0679 25.8909 10.0779L26.6709 10.1829C26.7509 10.1929 26.7809 10.2529 26.7609 10.3629C26.7509 10.4929 26.7359 10.6629 26.7159 10.8729C26.7059 11.0729 26.6959 11.2729 26.6859 11.4729C26.6759 11.6629 26.6709 11.8079 26.6709 11.9079L26.6259 14.2329C26.6259 14.3729 26.5509 14.4429 26.4009 14.4429C26.1109 14.4329 25.7459 14.4279 25.3059 14.4279C24.8759 14.4279 24.4109 14.4279 23.9109 14.4279C23.4209 14.4279 22.9359 14.4279 22.4559 14.4279C21.9859 14.4279 21.5709 14.4279 21.2109 14.4279C20.8509 14.4379 20.5909 14.4479 20.4309 14.4579L19.7559 14.5029ZM22.9659 6.16286C22.3359 6.17286 21.7609 6.08286 21.2409 5.89286C20.7309 5.69286 20.3209 5.40286 20.0109 5.02286C19.7109 4.63286 19.5609 4.16786 19.5609 3.62786C19.5609 3.11786 19.7109 2.67286 20.0109 2.29286C20.3209 1.90286 20.7359 1.59786 21.2559 1.37786C21.7759 1.14786 22.3509 1.02286 22.9809 1.00286C23.6409 0.982857 24.2259 1.06786 24.7359 1.25786C25.2559 1.43786 25.6659 1.71786 25.9659 2.09786C26.2659 2.47786 26.4059 2.94786 26.3859 3.50786C26.3759 4.03786 26.2209 4.50286 25.9209 4.90286C25.6209 5.29286 25.2159 5.59786 24.7059 5.81786C24.2059 6.02786 23.6259 6.14286 22.9659 6.16286ZM22.9809 5.42786C23.7109 5.40786 24.2959 5.23286 24.7359 4.90286C25.1759 4.57286 25.4059 4.10286 25.4259 3.49286C25.4459 2.87286 25.2209 2.41286 24.7509 2.11286C24.2809 1.81286 23.6859 1.67286 22.9659 1.69286C22.2559 1.71286 21.6659 1.89786 21.1959 2.24786C20.7259 2.58786 20.4909 3.03786 20.4909 3.59786C20.4909 4.21786 20.7209 4.68286 21.1809 4.99286C21.6409 5.30286 22.2409 5.44786 22.9809 5.42786ZM20.5209 13.6329C20.6609 13.6429 20.9059 13.6479 21.2559 13.6479C21.6059 13.6579 22.0009 13.6579 22.4409 13.6479C22.8909 13.6479 23.3359 13.6429 23.7759 13.6329C24.2259 13.6229 24.6259 13.6129 24.9759 13.6029C25.3259 13.5929 25.5759 13.5779 25.7259 13.5579L25.7559 11.0229C25.7559 10.9529 25.7459 10.9129 25.7259 10.9029C25.7059 10.8829 25.6709 10.8729 25.6209 10.8729L20.5209 10.9629V13.6329Z" fill="white"/>
<path d="M35.2953 9.10286C34.6853 9.11286 34.1253 8.98786 33.6153 8.72786C33.1053 8.46786 32.6953 8.09786 32.3853 7.61786C32.0853 7.12786 31.9353 6.56786 31.9353 5.93786C31.9353 5.32786 32.0853 4.78286 32.3853 4.30286C32.6853 3.81286 33.0903 3.42286 33.6003 3.13286C34.1203 2.83286 34.6903 2.67786 35.3103 2.66786C35.9303 2.64786 36.4903 2.75786 36.9903 2.99786C37.5003 3.23786 37.9053 3.59286 38.2053 4.06286C38.5053 4.53286 38.6553 5.11286 38.6553 5.80286C38.6553 6.42286 38.5053 6.97786 38.2053 7.46786C37.9053 7.95786 37.5003 8.34786 36.9903 8.63786C36.4803 8.92786 35.9153 9.08286 35.2953 9.10286ZM35.3103 8.24786C35.7503 8.22786 36.1503 8.11786 36.5103 7.91786C36.8703 7.70786 37.1553 7.42286 37.3653 7.06286C37.5853 6.69286 37.6953 6.27786 37.6953 5.81786C37.6953 5.30786 37.5853 4.87286 37.3653 4.51286C37.1553 4.15286 36.8703 3.88286 36.5103 3.70286C36.1503 3.51286 35.7503 3.42786 35.3103 3.44786C34.8703 3.45786 34.4653 3.57286 34.0953 3.79286C33.7253 4.00286 33.4303 4.29286 33.2103 4.66286C32.9903 5.02286 32.8803 5.44286 32.8803 5.92286C32.8803 6.42286 32.9903 6.84786 33.2103 7.19786C33.4403 7.54786 33.7403 7.81286 34.1103 7.99286C34.4803 8.17286 34.8803 8.25786 35.3103 8.24786ZM41.1903 13.7529C41.1503 13.7529 41.1303 13.7279 41.1303 13.6779V2.84786C41.1303 2.46786 41.1153 2.11786 41.0853 1.79786C41.0653 1.46786 41.0303 1.25286 40.9803 1.15286C40.9603 1.10286 40.9603 1.06786 40.9803 1.04786C41.0103 1.01786 41.0453 1.00286 41.0853 1.00286C41.1453 1.00286 41.2453 1.00786 41.3853 1.01786C41.5353 1.01786 41.6803 1.02286 41.8203 1.03286C41.9603 1.03286 42.0403 1.03286 42.0603 1.03286C42.1103 1.03286 42.1353 1.07286 42.1353 1.15286C42.1053 1.52286 42.0853 1.84786 42.0753 2.12786C42.0753 2.39786 42.0753 2.71286 42.0753 3.07286V13.3779C42.0753 13.5279 42.0653 13.6179 42.0453 13.6479C42.0353 13.6779 42.0053 13.6979 41.9553 13.7079L41.1903 13.7529Z" fill="white"/>
<path d="M55.0906 14.5029C54.7806 14.4929 54.5356 14.3879 54.3556 14.1879C54.1756 13.9879 54.0856 13.6729 54.0856 13.2429V12.4779C54.0856 12.3179 54.0756 12.1579 54.0556 11.9979C54.0356 11.8379 53.9906 11.6929 53.9206 11.5629C53.9006 11.5229 53.9006 11.4829 53.9206 11.4429C53.9406 11.4029 53.9856 11.3829 54.0556 11.3829C54.3156 11.3929 54.6506 11.4029 55.0606 11.4129C55.4706 11.4129 55.9206 11.4129 56.4106 11.4129C56.9006 11.4129 57.3856 11.4079 57.8656 11.3979C58.3556 11.3779 58.8006 11.3579 59.2006 11.3379C59.6106 11.3179 59.9356 11.2879 60.1756 11.2479L60.2206 9.95786C60.2206 9.94786 60.2206 9.93286 60.2206 9.91286C60.2206 9.86286 60.2156 9.83286 60.2056 9.82286C60.1956 9.80286 60.1506 9.79286 60.0706 9.79286C59.8506 9.79286 59.5356 9.79786 59.1256 9.80786C58.7156 9.81786 58.2756 9.83286 57.8056 9.85286C57.3456 9.86286 56.9056 9.87786 56.4856 9.89786C56.0656 9.90786 55.7256 9.92286 55.4656 9.94286L54.3106 10.0179C54.2006 10.0279 54.1306 10.0179 54.1006 9.98786C54.0706 9.94786 54.0456 9.89286 54.0256 9.82286L53.9356 9.26786C53.9156 9.18786 53.9556 9.15286 54.0556 9.16286C54.2256 9.17286 54.4856 9.18286 54.8356 9.19286C55.1956 9.20286 55.6056 9.20786 56.0656 9.20786C56.5356 9.19786 57.0206 9.18286 57.5206 9.16286C58.0206 9.14286 58.5006 9.11786 58.9606 9.08786C59.4206 9.05786 59.8206 9.01786 60.1606 8.96786C60.1806 8.96786 60.2006 8.96286 60.2206 8.95286C60.2906 8.94286 60.3456 8.94286 60.3856 8.95286L61.1506 9.07286C61.2006 9.08286 61.2256 9.10286 61.2256 9.13286C61.2356 9.15286 61.2406 9.17286 61.2406 9.19286C61.2406 9.20286 61.2406 9.20786 61.2406 9.20786C61.1906 9.65786 61.1506 10.0829 61.1206 10.4829C61.0906 10.8829 61.0606 11.3079 61.0306 11.7579C61.0206 11.8679 60.9906 11.9379 60.9406 11.9679C60.8906 11.9879 60.8406 11.9979 60.7906 11.9979C60.4606 11.9979 60.0506 12.0029 59.5606 12.0129C59.0706 12.0229 58.5506 12.0329 58.0006 12.0429C57.4606 12.0529 56.9306 12.0679 56.4106 12.0879C55.8906 12.0979 55.4306 12.1079 55.0306 12.1179V13.1829C55.0306 13.4129 55.0506 13.5579 55.0906 13.6179C55.1406 13.6879 55.2506 13.7279 55.4206 13.7379C56.0706 13.7579 56.7606 13.7629 57.4906 13.7529C58.2206 13.7429 58.9106 13.7179 59.5606 13.6779C59.9706 13.6579 60.3456 13.6279 60.6856 13.5879C61.0256 13.5479 61.3256 13.4929 61.5856 13.4229C61.6856 13.4029 61.7506 13.4079 61.7806 13.4379C61.8106 13.4679 61.8306 13.5079 61.8406 13.5579L61.9306 14.1879C61.9406 14.2379 61.9256 14.2829 61.8856 14.3229C61.8456 14.3629 61.7556 14.3829 61.6156 14.3829C60.9156 14.3829 60.1856 14.3879 59.4256 14.3979C58.6656 14.4179 57.9156 14.4329 57.1756 14.4429C56.4456 14.4629 55.7506 14.4829 55.0906 14.5029ZM51.1756 7.96286C51.0656 7.97286 50.9956 7.96786 50.9656 7.94786C50.9356 7.92786 50.9056 7.87286 50.8756 7.78286C50.8356 7.67286 50.8006 7.57286 50.7706 7.48286C50.7506 7.38286 50.7206 7.24786 50.6806 7.07786C50.6706 7.05786 50.6756 7.03286 50.6956 7.00286C50.7156 6.97286 50.7506 6.96286 50.8006 6.97286C50.9506 6.99286 51.2006 7.01286 51.5506 7.03286C51.9006 7.05286 52.3006 7.05786 52.7506 7.04786L52.6606 4.99286C52.6106 4.21286 52.5356 3.72786 52.4356 3.53786C52.4156 3.48786 52.4156 3.45286 52.4356 3.43286C52.4656 3.40286 52.5006 3.38786 52.5406 3.38786L53.5156 3.40286C53.5656 3.40286 53.5906 3.43786 53.5906 3.50786C53.5806 3.76786 53.5706 3.98286 53.5606 4.15286C53.5506 4.31286 53.5456 4.47286 53.5456 4.63286C53.5456 4.78286 53.5456 4.98286 53.5456 5.23286L53.5306 7.03286C53.8906 7.01286 54.2956 6.99286 54.7456 6.97286C55.1956 6.94286 55.5956 6.90786 55.9456 6.86786L56.0656 5.03786C56.0856 4.65786 56.0956 4.30786 56.0956 3.98786C56.0956 3.66786 56.0706 3.45786 56.0206 3.35786C56.0006 3.30786 56.0006 3.27286 56.0206 3.25286C56.0506 3.22286 56.0856 3.20786 56.1256 3.20786C56.1756 3.20786 56.2756 3.21286 56.4256 3.22286C56.5856 3.23286 56.7356 3.24286 56.8756 3.25286C57.0256 3.25286 57.1106 3.25286 57.1306 3.25286C57.2006 3.26286 57.2256 3.31286 57.2056 3.40286C57.1556 3.72286 57.1106 4.03786 57.0706 4.34786C57.0406 4.64786 57.0056 4.97786 56.9656 5.33786L56.8306 6.77786C57.3306 6.70786 57.8156 6.62786 58.2856 6.53786C58.7556 6.44786 59.1806 6.34786 59.5606 6.23786C59.6306 6.20786 59.6756 6.23286 59.6956 6.31286L59.7556 6.73286C59.7756 6.82286 59.7656 6.88286 59.7256 6.91286C59.6956 6.94286 59.6506 6.96786 59.5906 6.98786C59.3706 7.04786 59.0356 7.11786 58.5856 7.19786C58.1456 7.27786 57.6456 7.35786 57.0856 7.43786C56.5356 7.50786 55.9856 7.57786 55.4356 7.64786C54.8856 7.70786 54.3906 7.75286 53.9506 7.78286C53.4106 7.81286 52.9206 7.84786 52.4806 7.88786C52.0506 7.91786 51.6156 7.94286 51.1756 7.96286ZM60.3106 8.18786C60.2706 8.18786 60.2506 8.16286 60.2506 8.11286V2.83286C60.2506 2.45286 60.2356 2.10286 60.2056 1.78286C60.1856 1.46286 60.1506 1.25286 60.1006 1.15286C60.0806 1.10286 60.0806 1.06786 60.1006 1.04786C60.1306 1.01786 60.1656 1.00286 60.2056 1.00286C60.2856 1.00286 60.4206 1.00286 60.6106 1.00286C60.8106 1.00286 61.0006 1.00786 61.1806 1.01786C61.2306 1.01786 61.2556 1.05786 61.2556 1.13786C61.2256 1.50786 61.2056 1.83286 61.1956 2.11286C61.1956 2.38286 61.1956 2.69786 61.1956 3.05786V7.81286C61.1956 7.96286 61.1856 8.05286 61.1656 8.08286C61.1556 8.11286 61.1256 8.13286 61.0756 8.14286L60.3106 8.18786ZM51.5506 2.92286C51.4506 2.94286 51.3856 2.93786 51.3556 2.90786C51.3256 2.86786 51.3006 2.81786 51.2806 2.75786C51.2706 2.74786 51.2656 2.73786 51.2656 2.72786C51.2256 2.61786 51.1956 2.52286 51.1756 2.44286C51.1556 2.36286 51.1306 2.24786 51.1006 2.09786C51.0906 2.02786 51.1306 1.99286 51.2206 1.99286C51.5006 2.01286 51.8106 2.02786 52.1506 2.03786C52.4906 2.04786 52.9006 2.04786 53.3806 2.03786C53.8506 2.02786 54.3306 2.01786 54.8206 2.00786C55.3206 1.98786 55.7406 1.96786 56.0806 1.94786C56.4106 1.92786 56.7456 1.90286 57.0856 1.87286C57.4256 1.84286 57.7856 1.80286 58.1656 1.75286C58.1956 1.74286 58.2306 1.74786 58.2706 1.76786C58.3106 1.77786 58.3356 1.80786 58.3456 1.85786C58.3956 2.06786 58.4306 2.29786 58.4506 2.54786C58.4506 2.65786 58.3906 2.71286 58.2706 2.71286C58.0806 2.70286 57.8556 2.69786 57.5956 2.69786C57.3456 2.68786 57.1206 2.68286 56.9206 2.68286C56.6106 2.68286 56.2006 2.69286 55.6906 2.71286C55.1906 2.72286 54.6656 2.73786 54.1156 2.75786C53.5756 2.77786 53.0706 2.80286 52.6006 2.83286C52.1406 2.86286 51.7906 2.89286 51.5506 2.92286Z" fill="white"/>
<path d="M70.4523 7.78286C69.7623 7.78286 69.1423 7.66286 68.5923 7.42286C68.0523 7.17286 67.6273 6.82286 67.3173 6.37286C67.0073 5.91286 66.8573 5.36786 66.8673 4.73786C66.8873 4.15786 67.0623 3.64286 67.3923 3.19286C67.7323 2.73286 68.1873 2.36786 68.7573 2.09786C69.3273 1.82786 69.9573 1.68786 70.6473 1.67786C71.3573 1.67786 71.9873 1.80286 72.5373 2.05286C73.0873 2.30286 73.5173 2.65786 73.8273 3.11786C74.1473 3.56786 74.2923 4.09286 74.2623 4.69286C74.2223 5.33286 74.0323 5.88286 73.6923 6.34286C73.3623 6.80286 72.9173 7.15786 72.3573 7.40786C71.7973 7.65786 71.1623 7.78286 70.4523 7.78286ZM70.4823 7.01786C71.2723 6.99786 71.9223 6.78786 72.4323 6.38786C72.9423 5.98786 73.2173 5.42286 73.2573 4.69286C73.2973 4.01286 73.0723 3.46786 72.5823 3.05786C72.0923 2.64786 71.4323 2.44286 70.6023 2.44286C70.0223 2.44286 69.5273 2.55286 69.1173 2.77286C68.7073 2.99286 68.3973 3.27786 68.1873 3.62786C67.9773 3.96786 67.8623 4.33786 67.8423 4.73786C67.8223 5.19786 67.9273 5.60286 68.1573 5.95286C68.3873 6.30286 68.7073 6.57286 69.1173 6.76286C69.5273 6.94286 69.9823 7.02786 70.4823 7.01786ZM64.9323 12.2379C64.8223 12.2479 64.7473 12.2379 64.7073 12.2079C64.6673 12.1779 64.6373 12.1329 64.6173 12.0729C64.5773 11.9629 64.5423 11.8529 64.5123 11.7429C64.4823 11.6229 64.4473 11.4779 64.4073 11.3079C64.3973 11.2879 64.4023 11.2629 64.4223 11.2329C64.4423 11.1929 64.4773 11.1779 64.5273 11.1879C64.8973 11.2379 65.4023 11.2729 66.0423 11.2929C66.6923 11.3029 67.4073 11.3079 68.1873 11.3079L68.1123 10.1079C68.1023 9.91786 68.0823 9.70786 68.0523 9.47786C68.0223 9.24786 67.9873 9.03786 67.9473 8.84786C67.9073 8.64786 67.8673 8.51786 67.8273 8.45786C67.8073 8.39786 67.8073 8.35786 67.8273 8.33786C67.8573 8.31786 67.8923 8.30286 67.9323 8.29286H68.9373C68.9773 8.30286 68.9973 8.34786 68.9973 8.42786C68.9973 8.43786 68.9973 8.44786 68.9973 8.45786C68.9973 8.71786 68.9973 8.97286 68.9973 9.22286C68.9973 9.47286 69.0023 9.72786 69.0123 9.98786L69.0423 11.3079C69.5823 11.3079 70.1223 11.3029 70.6623 11.2929C71.2023 11.2729 71.7373 11.2529 72.2673 11.2329L72.3423 9.92786C72.3523 9.73786 72.3573 9.53286 72.3573 9.31286C72.3673 9.09286 72.3623 8.89286 72.3423 8.71286C72.3323 8.52286 72.3073 8.39286 72.2673 8.32286C72.2473 8.25286 72.2523 8.21286 72.2823 8.20286C72.3123 8.18286 72.3473 8.17286 72.3873 8.17286C72.4373 8.17286 72.5373 8.17786 72.6873 8.18786C72.8373 8.18786 72.9823 8.19286 73.1223 8.20286C73.2723 8.21286 73.3573 8.21786 73.3773 8.21786C73.4273 8.24786 73.4423 8.29786 73.4223 8.36786C73.4223 8.37786 73.4223 8.38286 73.4223 8.38286C73.3923 8.64286 73.3623 8.89286 73.3323 9.13286C73.3023 9.37286 73.2773 9.62286 73.2573 9.88286L73.1373 11.2029C73.8773 11.1629 74.5423 11.1229 75.1323 11.0829C75.7323 11.0329 76.1923 10.9779 76.5123 10.9179C76.6123 10.8979 76.6773 10.9029 76.7073 10.9329C76.7373 10.9629 76.7573 11.0029 76.7673 11.0529L76.8573 11.7729C76.8573 11.8229 76.8423 11.8679 76.8123 11.9079C76.7823 11.9479 76.7023 11.9679 76.5723 11.9679C76.2323 11.9579 75.8373 11.9529 75.3873 11.9529C74.9373 11.9529 74.4573 11.9529 73.9473 11.9529C72.6973 11.9529 71.4873 11.9679 70.3173 11.9979C69.1473 12.0179 68.0973 12.0479 67.1673 12.0879C66.2373 12.1279 65.4923 12.1779 64.9323 12.2379Z" fill="white"/>
<path d="M94.4968 13.7529C94.4568 13.7529 94.4368 13.7279 94.4368 13.6779V7.06286C94.1568 7.06286 93.8668 7.06786 93.5668 7.07786C93.2668 7.07786 93.0018 7.08286 92.7718 7.09286V12.9879C92.7718 13.1379 92.7618 13.2279 92.7418 13.2579C92.7318 13.2879 92.7018 13.3079 92.6518 13.3179C92.6218 13.3179 92.5518 13.3229 92.4418 13.3329C92.3418 13.3329 92.2418 13.3379 92.1418 13.3479C92.0418 13.3579 91.9718 13.3629 91.9318 13.3629C91.8918 13.3629 91.8718 13.3379 91.8718 13.2879V3.22286C91.8718 2.84286 91.8618 2.49286 91.8418 2.17286C91.8218 1.85286 91.7868 1.64286 91.7368 1.54286C91.7168 1.49286 91.7168 1.45786 91.7368 1.43786C91.7668 1.40786 91.8018 1.39286 91.8418 1.39286L92.7268 1.40786C92.7768 1.42786 92.8018 1.46786 92.8018 1.52786C92.7818 1.81786 92.7718 2.07786 92.7718 2.30786C92.7718 2.53786 92.7718 2.77786 92.7718 3.02786C92.7718 3.08786 92.7718 3.15286 92.7718 3.22286C92.7718 3.29286 92.7718 3.36786 92.7718 3.44786V6.29786C93.3318 6.31786 93.8868 6.30286 94.4368 6.25286V2.83286C94.4368 2.45286 94.4268 2.10286 94.4068 1.78286C94.3968 1.46286 94.3668 1.25286 94.3168 1.15286C94.2968 1.10286 94.2968 1.06786 94.3168 1.04786C94.3468 1.01786 94.3818 1.00286 94.4218 1.00286L95.3068 1.01786C95.3568 1.03786 95.3818 1.07786 95.3818 1.13786C95.3618 1.43786 95.3468 1.70786 95.3368 1.94786C95.3368 2.18786 95.3368 2.43786 95.3368 2.69786C95.3368 2.75786 95.3368 2.81786 95.3368 2.87786C95.3368 2.93786 95.3368 2.99786 95.3368 3.05786V13.3779C95.3368 13.5279 95.3268 13.6179 95.3068 13.6479C95.2968 13.6779 95.2668 13.6979 95.2168 13.7079C95.1868 13.7079 95.1168 13.7079 95.0068 13.7079C94.9068 13.7179 94.8068 13.7279 94.7068 13.7379C94.6068 13.7479 94.5368 13.7529 94.4968 13.7529ZM87.7468 10.6779C87.1568 10.6879 86.6568 10.5729 86.2468 10.3329C85.8368 10.0929 85.5268 9.78786 85.3168 9.41786C85.1068 9.04786 85.0018 8.67786 85.0018 8.30786C85.0018 7.93786 85.0968 7.57286 85.2868 7.21286C85.4868 6.84286 85.7918 6.53286 86.2018 6.28286C86.6118 6.03286 87.1418 5.90286 87.7918 5.89286C88.6718 5.87286 89.3518 6.07786 89.8318 6.50786C90.3218 6.93786 90.5568 7.50786 90.5368 8.21786C90.5268 8.59786 90.4118 8.97786 90.1918 9.35786C89.9818 9.72786 89.6718 10.0379 89.2618 10.2879C88.8518 10.5279 88.3468 10.6579 87.7468 10.6779ZM87.7468 9.94286C88.3468 9.92286 88.8018 9.74786 89.1118 9.41786C89.4218 9.08786 89.5868 8.69286 89.6068 8.23286C89.6268 7.97286 89.5768 7.71286 89.4568 7.45286C89.3468 7.18286 89.1568 6.95786 88.8868 6.77786C88.6268 6.58786 88.2618 6.50286 87.7918 6.52286C87.3318 6.53286 86.9618 6.62786 86.6818 6.80786C86.4018 6.97786 86.1968 7.19786 86.0668 7.46786C85.9468 7.72786 85.8868 8.00286 85.8868 8.29286C85.8868 8.72286 86.0468 9.10786 86.3668 9.44786C86.6968 9.77786 87.1568 9.94286 87.7468 9.94286ZM84.4468 5.20286C84.3468 5.21286 84.2818 5.20286 84.2518 5.17286C84.2218 5.13286 84.1968 5.08786 84.1768 5.03786C84.1668 5.02786 84.1618 5.01786 84.1618 5.00786C84.1218 4.89786 84.0918 4.80786 84.0718 4.73786C84.0518 4.66786 84.0218 4.54786 83.9818 4.37786C83.9718 4.35786 83.9768 4.33286 83.9968 4.30286C84.0168 4.27286 84.0518 4.25786 84.1018 4.25786C84.3018 4.26786 84.5118 4.28286 84.7318 4.30286C84.9618 4.31286 85.3118 4.31786 85.7818 4.31786C86.1918 4.31786 86.6968 4.31286 87.2968 4.30286C87.8968 4.28286 88.5018 4.24786 89.1118 4.19786C89.3618 4.17786 89.6168 4.15286 89.8768 4.12286C90.1468 4.09286 90.3868 4.06286 90.5968 4.03286C90.8068 3.99286 90.9468 3.96286 91.0168 3.94286C91.0468 3.93286 91.0818 3.93786 91.1218 3.95786C91.1618 3.96786 91.1868 4.00786 91.1968 4.07786L91.2718 4.69286C91.2818 4.74286 91.2768 4.79286 91.2568 4.84286C91.2468 4.89286 91.2018 4.91786 91.1218 4.91786H89.2918C89.0718 4.91786 88.8068 4.92286 88.4968 4.93286C88.1968 4.94286 87.8918 4.95286 87.5818 4.96286C87.2718 4.97286 86.9968 4.98786 86.7568 5.00786C86.5168 5.01786 86.3468 5.02786 86.2468 5.03786C85.9468 5.05786 85.6318 5.08786 85.3018 5.12786C84.9818 5.15786 84.6968 5.18286 84.4468 5.20286ZM87.2968 2.96786C87.1568 2.94786 86.9668 2.92286 86.7268 2.89286C86.4868 2.85286 86.2518 2.80286 86.0218 2.74286C85.7918 2.67286 85.6068 2.58786 85.4668 2.48786C85.4268 2.45786 85.4168 2.39786 85.4368 2.30786C85.4568 2.20786 85.4918 2.11786 85.5418 2.03786C85.5918 1.94786 85.6418 1.91286 85.6918 1.93286C86.1218 2.01286 86.5868 2.06286 87.0868 2.08286C87.5968 2.10286 88.0768 2.10786 88.5268 2.09786C88.9768 2.07786 89.3418 2.05786 89.6218 2.03786C89.7018 2.02786 89.7518 2.03286 89.7718 2.05286C89.7918 2.06286 89.8068 2.09286 89.8168 2.14286C89.8168 2.15286 89.8168 2.16786 89.8168 2.18786C89.8168 2.27786 89.8118 2.40286 89.8018 2.56286C89.7918 2.71286 89.7568 2.79786 89.6968 2.81786C89.6368 2.83786 89.4768 2.86786 89.2168 2.90786C88.9668 2.93786 88.6668 2.96286 88.3168 2.98286C87.9768 2.99286 87.6368 2.98786 87.2968 2.96786Z" fill="white"/>
<path d="M104.504 7.78286C103.814 7.78286 103.194 7.66286 102.644 7.42286C102.104 7.17286 101.679 6.82286 101.369 6.37286C101.059 5.91286 100.909 5.36786 100.919 4.73786C100.939 4.15786 101.114 3.64286 101.444 3.19286C101.784 2.73286 102.239 2.36786 102.809 2.09786C103.379 1.82786 104.009 1.68786 104.699 1.67786C105.409 1.67786 106.039 1.80286 106.589 2.05286C107.139 2.30286 107.569 2.65786 107.879 3.11786C108.199 3.56786 108.344 4.09286 108.314 4.69286C108.274 5.33286 108.084 5.88286 107.744 6.34286C107.414 6.80286 106.969 7.15786 106.409 7.40786C105.849 7.65786 105.214 7.78286 104.504 7.78286ZM104.534 7.01786C105.324 6.99786 105.974 6.78786 106.484 6.38786C106.994 5.98786 107.269 5.42286 107.309 4.69286C107.349 4.01286 107.124 3.46786 106.634 3.05786C106.144 2.64786 105.484 2.44286 104.654 2.44286C104.074 2.44286 103.579 2.55286 103.169 2.77286C102.759 2.99286 102.449 3.27786 102.239 3.62786C102.029 3.96786 101.914 4.33786 101.894 4.73786C101.874 5.19786 101.979 5.60286 102.209 5.95286C102.439 6.30286 102.759 6.57286 103.169 6.76286C103.579 6.94286 104.034 7.02786 104.534 7.01786ZM98.9841 12.2379C98.8741 12.2479 98.7991 12.2379 98.7591 12.2079C98.7191 12.1779 98.6891 12.1329 98.6691 12.0729C98.6291 11.9629 98.5941 11.8529 98.5641 11.7429C98.5341 11.6229 98.4991 11.4779 98.4591 11.3079C98.4491 11.2879 98.4541 11.2629 98.4741 11.2329C98.4941 11.1929 98.5291 11.1779 98.5791 11.1879C98.9491 11.2379 99.4541 11.2729 100.094 11.2929C100.744 11.3029 101.459 11.3079 102.239 11.3079L102.164 10.1079C102.154 9.91786 102.134 9.70786 102.104 9.47786C102.074 9.24786 102.039 9.03786 101.999 8.84786C101.959 8.64786 101.919 8.51786 101.879 8.45786C101.859 8.39786 101.859 8.35786 101.879 8.33786C101.909 8.31786 101.944 8.30286 101.984 8.29286H102.989C103.029 8.30286 103.049 8.34786 103.049 8.42786C103.049 8.43786 103.049 8.44786 103.049 8.45786C103.049 8.71786 103.049 8.97286 103.049 9.22286C103.049 9.47286 103.054 9.72786 103.064 9.98786L103.094 11.3079C103.634 11.3079 104.174 11.3029 104.714 11.2929C105.254 11.2729 105.789 11.2529 106.319 11.2329L106.394 9.92786C106.404 9.73786 106.409 9.53286 106.409 9.31286C106.419 9.09286 106.414 8.89286 106.394 8.71286C106.384 8.52286 106.359 8.39286 106.319 8.32286C106.299 8.25286 106.304 8.21286 106.334 8.20286C106.364 8.18286 106.399 8.17286 106.439 8.17286C106.489 8.17286 106.589 8.17786 106.739 8.18786C106.889 8.18786 107.034 8.19286 107.174 8.20286C107.324 8.21286 107.409 8.21786 107.429 8.21786C107.479 8.24786 107.494 8.29786 107.474 8.36786C107.474 8.37786 107.474 8.38286 107.474 8.38286C107.444 8.64286 107.414 8.89286 107.384 9.13286C107.354 9.37286 107.329 9.62286 107.309 9.88286L107.189 11.2029C107.929 11.1629 108.594 11.1229 109.184 11.0829C109.784 11.0329 110.244 10.9779 110.564 10.9179C110.664 10.8979 110.729 10.9029 110.759 10.9329C110.789 10.9629 110.809 11.0029 110.819 11.0529L110.909 11.7729C110.909 11.8229 110.894 11.8679 110.864 11.9079C110.834 11.9479 110.754 11.9679 110.624 11.9679C110.284 11.9579 109.889 11.9529 109.439 11.9529C108.989 11.9529 108.509 11.9529 107.999 11.9529C106.749 11.9529 105.539 11.9679 104.369 11.9979C103.199 12.0179 102.149 12.0479 101.219 12.0879C100.289 12.1279 99.5441 12.1779 98.9841 12.2379Z" fill="white"/>
<path d="M5.155 7.58786C4.805 7.59786 4.56 7.50286 4.42 7.30286C4.28 7.10286 4.21 6.76286 4.21 6.28286V3.86786C4.21 3.51786 4.185 3.21786 4.135 2.96786C4.085 2.70786 4.035 2.52786 3.985 2.42786C3.955 2.36786 3.955 2.31786 3.985 2.27786C4.015 2.22786 4.055 2.20286 4.105 2.20286C4.175 2.20286 4.3 2.20786 4.48 2.21786C4.66 2.22786 4.85 2.23786 5.05 2.24786C5.39 2.25786 5.8 2.26286 6.28 2.26286C6.76 2.25286 7.27 2.23786 7.81 2.21786C8.36 2.19786 8.895 2.17786 9.415 2.15786C10.005 2.13786 10.515 2.10786 10.945 2.06786C11.375 2.02786 11.72 1.99286 11.98 1.96286C12.01 1.96286 12.045 1.96786 12.085 1.97786C12.125 1.98786 12.15 2.01786 12.16 2.06786L12.205 2.47286C12.215 2.51286 12.22 2.55286 12.22 2.59286C12.22 2.62286 12.22 2.65786 12.22 2.69786C12.24 2.80786 12.18 2.86286 12.04 2.86286C11.76 2.86286 11.49 2.86786 11.23 2.87786C10.97 2.87786 10.695 2.88286 10.405 2.89286L5.155 3.02786V6.10286C5.155 6.40286 5.18 6.59786 5.23 6.68786C5.28 6.77786 5.385 6.82786 5.545 6.83786C5.795 6.84786 6.11 6.85286 6.49 6.85286C6.87 6.85286 7.265 6.84786 7.675 6.83786C8.085 6.82786 8.465 6.81786 8.815 6.80786C9.175 6.78786 9.45 6.77286 9.64 6.76286C10.18 6.74286 10.65 6.71286 11.05 6.67286C11.46 6.63286 11.79 6.58786 12.04 6.53786C12.14 6.51786 12.205 6.52286 12.235 6.55286C12.265 6.57286 12.285 6.60786 12.295 6.65786C12.315 6.76786 12.325 6.87786 12.325 6.98786C12.335 7.08786 12.345 7.20286 12.355 7.33286C12.355 7.39286 12.335 7.43286 12.295 7.45286C12.265 7.47286 12.18 7.48286 12.04 7.48286C10.97 7.48286 9.84 7.49786 8.65 7.52786C7.47 7.54786 6.305 7.56786 5.155 7.58786ZM2.53 12.2379C2.42 12.2479 2.345 12.2379 2.305 12.2079C2.265 12.1779 2.235 12.1329 2.215 12.0729C2.175 11.9629 2.14 11.8529 2.11 11.7429C2.08 11.6229 2.045 11.4779 2.005 11.3079C1.995 11.2879 2 11.2629 2.02 11.2329C2.04 11.1929 2.075 11.1779 2.125 11.1879C2.505 11.2379 3.025 11.2729 3.685 11.2929C4.345 11.3029 5.07 11.3079 5.86 11.3079C6.18 11.3079 6.505 11.3079 6.835 11.3079C7.175 11.3079 7.52 11.3029 7.87 11.2929V10.0479C7.87 9.65786 7.855 9.31786 7.825 9.02786C7.795 8.73786 7.76 8.54286 7.72 8.44286C7.68 8.34286 7.715 8.29286 7.825 8.29286H8.725C8.785 8.29286 8.815 8.33286 8.815 8.41286C8.815 8.42286 8.815 8.43286 8.815 8.44286C8.795 8.70286 8.78 8.95286 8.77 9.19286C8.76 9.43286 8.755 9.68286 8.755 9.94286L8.74 11.2779C9.5 11.2579 10.23 11.2329 10.93 11.2029C11.63 11.1629 12.26 11.1179 12.82 11.0679C13.38 11.0179 13.81 10.9679 14.11 10.9179C14.21 10.8979 14.275 10.9029 14.305 10.9329C14.335 10.9629 14.355 11.0029 14.365 11.0529L14.455 11.7729C14.455 11.8229 14.44 11.8679 14.41 11.9079C14.38 11.9479 14.3 11.9679 14.17 11.9679C13.83 11.9579 13.435 11.9529 12.985 11.9529C12.535 11.9529 12.055 11.9529 11.545 11.9529C10.295 11.9529 9.085 11.9679 7.915 11.9979C6.745 12.0179 5.695 12.0479 4.765 12.0879C3.835 12.1279 3.09 12.1779 2.53 12.2379Z" stroke="#EA7171" stroke-width="2" mask="url(#path-1-outside-1_192_25)"/>
<path d="M19.7559 14.5029C19.7359 14.5029 19.7109 14.4979 19.6809 14.4879C19.6509 14.4779 19.6359 14.4479 19.6359 14.3979C19.6359 14.3779 19.6359 14.3329 19.6359 14.2629C19.6359 14.1129 19.6359 13.8579 19.6359 13.4979C19.6359 13.1279 19.6259 12.5429 19.6059 11.7429C19.5959 11.4829 19.5659 11.2129 19.5159 10.9329C19.4659 10.6529 19.4159 10.4779 19.3659 10.4079C19.3259 10.3479 19.3159 10.2979 19.3359 10.2579C19.3659 10.2179 19.4159 10.1979 19.4859 10.1979L20.4459 10.2429C20.7059 10.2529 21.0309 10.2579 21.4209 10.2579C21.8109 10.2579 22.2209 10.2529 22.6509 10.2429L22.6359 8.21786C22.4459 8.22786 22.2609 8.23286 22.0809 8.23286C21.9109 8.23286 21.7559 8.23786 21.6159 8.24786C20.6059 8.27786 19.6959 8.31286 18.8859 8.35286C18.0759 8.39286 17.4509 8.43786 17.0109 8.48786C16.9009 8.49786 16.8259 8.48786 16.7859 8.45786C16.7459 8.42786 16.7159 8.38286 16.6959 8.32286C16.6559 8.21286 16.6209 8.10286 16.5909 7.99286C16.5609 7.88286 16.5259 7.74286 16.4859 7.57286C16.4759 7.55286 16.4809 7.52786 16.5009 7.49786C16.5209 7.45786 16.5559 7.44286 16.6059 7.45286C16.9859 7.50286 17.5059 7.54286 18.1659 7.57286C18.8259 7.59286 19.5509 7.59786 20.3409 7.58786C20.9509 7.58786 21.6009 7.58286 22.2909 7.57286C22.9809 7.55286 23.6659 7.53286 24.3459 7.51286C25.0359 7.48286 25.6859 7.45286 26.2959 7.42286C26.9159 7.39286 27.4609 7.35786 27.9309 7.31786C28.4109 7.27786 28.7809 7.23286 29.0409 7.18286C29.1409 7.16286 29.2059 7.16786 29.2359 7.19786C29.2659 7.22786 29.2859 7.26786 29.2959 7.31786L29.3859 7.97786C29.3959 8.11786 29.3009 8.18286 29.1009 8.17286C28.7909 8.15286 28.3709 8.14286 27.8409 8.14286C27.3209 8.14286 26.7559 8.14786 26.1459 8.15786L23.5959 8.20286V9.56786C23.5959 9.81786 23.5809 10.0329 23.5509 10.2129C24.0209 10.2029 24.4459 10.1879 24.8259 10.1679C25.2059 10.1479 25.4809 10.1229 25.6509 10.0929C25.6709 10.0929 25.6909 10.0879 25.7109 10.0779C25.7809 10.0679 25.8409 10.0679 25.8909 10.0779L26.6709 10.1829C26.7509 10.1929 26.7809 10.2529 26.7609 10.3629C26.7509 10.4929 26.7359 10.6629 26.7159 10.8729C26.7059 11.0729 26.6959 11.2729 26.6859 11.4729C26.6759 11.6629 26.6709 11.8079 26.6709 11.9079L26.6259 14.2329C26.6259 14.3729 26.5509 14.4429 26.4009 14.4429C26.1109 14.4329 25.7459 14.4279 25.3059 14.4279C24.8759 14.4279 24.4109 14.4279 23.9109 14.4279C23.4209 14.4279 22.9359 14.4279 22.4559 14.4279C21.9859 14.4279 21.5709 14.4279 21.2109 14.4279C20.8509 14.4379 20.5909 14.4479 20.4309 14.4579L19.7559 14.5029ZM22.9659 6.16286C22.3359 6.17286 21.7609 6.08286 21.2409 5.89286C20.7309 5.69286 20.3209 5.40286 20.0109 5.02286C19.7109 4.63286 19.5609 4.16786 19.5609 3.62786C19.5609 3.11786 19.7109 2.67286 20.0109 2.29286C20.3209 1.90286 20.7359 1.59786 21.2559 1.37786C21.7759 1.14786 22.3509 1.02286 22.9809 1.00286C23.6409 0.982857 24.2259 1.06786 24.7359 1.25786C25.2559 1.43786 25.6659 1.71786 25.9659 2.09786C26.2659 2.47786 26.4059 2.94786 26.3859 3.50786C26.3759 4.03786 26.2209 4.50286 25.9209 4.90286C25.6209 5.29286 25.2159 5.59786 24.7059 5.81786C24.2059 6.02786 23.6259 6.14286 22.9659 6.16286ZM22.9809 5.42786C23.7109 5.40786 24.2959 5.23286 24.7359 4.90286C25.1759 4.57286 25.4059 4.10286 25.4259 3.49286C25.4459 2.87286 25.2209 2.41286 24.7509 2.11286C24.2809 1.81286 23.6859 1.67286 22.9659 1.69286C22.2559 1.71286 21.6659 1.89786 21.1959 2.24786C20.7259 2.58786 20.4909 3.03786 20.4909 3.59786C20.4909 4.21786 20.7209 4.68286 21.1809 4.99286C21.6409 5.30286 22.2409 5.44786 22.9809 5.42786ZM20.5209 13.6329C20.6609 13.6429 20.9059 13.6479 21.2559 13.6479C21.6059 13.6579 22.0009 13.6579 22.4409 13.6479C22.8909 13.6479 23.3359 13.6429 23.7759 13.6329C24.2259 13.6229 24.6259 13.6129 24.9759 13.6029C25.3259 13.5929 25.5759 13.5779 25.7259 13.5579L25.7559 11.0229C25.7559 10.9529 25.7459 10.9129 25.7259 10.9029C25.7059 10.8829 25.6709 10.8729 25.6209 10.8729L20.5209 10.9629V13.6329Z" stroke="#EA7171" stroke-width="2" mask="url(#path-1-outside-1_192_25)"/>
<path d="M35.2953 9.10286C34.6853 9.11286 34.1253 8.98786 33.6153 8.72786C33.1053 8.46786 32.6953 8.09786 32.3853 7.61786C32.0853 7.12786 31.9353 6.56786 31.9353 5.93786C31.9353 5.32786 32.0853 4.78286 32.3853 4.30286C32.6853 3.81286 33.0903 3.42286 33.6003 3.13286C34.1203 2.83286 34.6903 2.67786 35.3103 2.66786C35.9303 2.64786 36.4903 2.75786 36.9903 2.99786C37.5003 3.23786 37.9053 3.59286 38.2053 4.06286C38.5053 4.53286 38.6553 5.11286 38.6553 5.80286C38.6553 6.42286 38.5053 6.97786 38.2053 7.46786C37.9053 7.95786 37.5003 8.34786 36.9903 8.63786C36.4803 8.92786 35.9153 9.08286 35.2953 9.10286ZM35.3103 8.24786C35.7503 8.22786 36.1503 8.11786 36.5103 7.91786C36.8703 7.70786 37.1553 7.42286 37.3653 7.06286C37.5853 6.69286 37.6953 6.27786 37.6953 5.81786C37.6953 5.30786 37.5853 4.87286 37.3653 4.51286C37.1553 4.15286 36.8703 3.88286 36.5103 3.70286C36.1503 3.51286 35.7503 3.42786 35.3103 3.44786C34.8703 3.45786 34.4653 3.57286 34.0953 3.79286C33.7253 4.00286 33.4303 4.29286 33.2103 4.66286C32.9903 5.02286 32.8803 5.44286 32.8803 5.92286C32.8803 6.42286 32.9903 6.84786 33.2103 7.19786C33.4403 7.54786 33.7403 7.81286 34.1103 7.99286C34.4803 8.17286 34.8803 8.25786 35.3103 8.24786ZM41.1903 13.7529C41.1503 13.7529 41.1303 13.7279 41.1303 13.6779V2.84786C41.1303 2.46786 41.1153 2.11786 41.0853 1.79786C41.0653 1.46786 41.0303 1.25286 40.9803 1.15286C40.9603 1.10286 40.9603 1.06786 40.9803 1.04786C41.0103 1.01786 41.0453 1.00286 41.0853 1.00286C41.1453 1.00286 41.2453 1.00786 41.3853 1.01786C41.5353 1.01786 41.6803 1.02286 41.8203 1.03286C41.9603 1.03286 42.0403 1.03286 42.0603 1.03286C42.1103 1.03286 42.1353 1.07286 42.1353 1.15286C42.1053 1.52286 42.0853 1.84786 42.0753 2.12786C42.0753 2.39786 42.0753 2.71286 42.0753 3.07286V13.3779C42.0753 13.5279 42.0653 13.6179 42.0453 13.6479C42.0353 13.6779 42.0053 13.6979 41.9553 13.7079L41.1903 13.7529Z" stroke="#EA7171" stroke-width="2" mask="url(#path-1-outside-1_192_25)"/>
<path d="M55.0906 14.5029C54.7806 14.4929 54.5356 14.3879 54.3556 14.1879C54.1756 13.9879 54.0856 13.6729 54.0856 13.2429V12.4779C54.0856 12.3179 54.0756 12.1579 54.0556 11.9979C54.0356 11.8379 53.9906 11.6929 53.9206 11.5629C53.9006 11.5229 53.9006 11.4829 53.9206 11.4429C53.9406 11.4029 53.9856 11.3829 54.0556 11.3829C54.3156 11.3929 54.6506 11.4029 55.0606 11.4129C55.4706 11.4129 55.9206 11.4129 56.4106 11.4129C56.9006 11.4129 57.3856 11.4079 57.8656 11.3979C58.3556 11.3779 58.8006 11.3579 59.2006 11.3379C59.6106 11.3179 59.9356 11.2879 60.1756 11.2479L60.2206 9.95786C60.2206 9.94786 60.2206 9.93286 60.2206 9.91286C60.2206 9.86286 60.2156 9.83286 60.2056 9.82286C60.1956 9.80286 60.1506 9.79286 60.0706 9.79286C59.8506 9.79286 59.5356 9.79786 59.1256 9.80786C58.7156 9.81786 58.2756 9.83286 57.8056 9.85286C57.3456 9.86286 56.9056 9.87786 56.4856 9.89786C56.0656 9.90786 55.7256 9.92286 55.4656 9.94286L54.3106 10.0179C54.2006 10.0279 54.1306 10.0179 54.1006 9.98786C54.0706 9.94786 54.0456 9.89286 54.0256 9.82286L53.9356 9.26786C53.9156 9.18786 53.9556 9.15286 54.0556 9.16286C54.2256 9.17286 54.4856 9.18286 54.8356 9.19286C55.1956 9.20286 55.6056 9.20786 56.0656 9.20786C56.5356 9.19786 57.0206 9.18286 57.5206 9.16286C58.0206 9.14286 58.5006 9.11786 58.9606 9.08786C59.4206 9.05786 59.8206 9.01786 60.1606 8.96786C60.1806 8.96786 60.2006 8.96286 60.2206 8.95286C60.2906 8.94286 60.3456 8.94286 60.3856 8.95286L61.1506 9.07286C61.2006 9.08286 61.2256 9.10286 61.2256 9.13286C61.2356 9.15286 61.2406 9.17286 61.2406 9.19286C61.2406 9.20286 61.2406 9.20786 61.2406 9.20786C61.1906 9.65786 61.1506 10.0829 61.1206 10.4829C61.0906 10.8829 61.0606 11.3079 61.0306 11.7579C61.0206 11.8679 60.9906 11.9379 60.9406 11.9679C60.8906 11.9879 60.8406 11.9979 60.7906 11.9979C60.4606 11.9979 60.0506 12.0029 59.5606 12.0129C59.0706 12.0229 58.5506 12.0329 58.0006 12.0429C57.4606 12.0529 56.9306 12.0679 56.4106 12.0879C55.8906 12.0979 55.4306 12.1079 55.0306 12.1179V13.1829C55.0306 13.4129 55.0506 13.5579 55.0906 13.6179C55.1406 13.6879 55.2506 13.7279 55.4206 13.7379C56.0706 13.7579 56.7606 13.7629 57.4906 13.7529C58.2206 13.7429 58.9106 13.7179 59.5606 13.6779C59.9706 13.6579 60.3456 13.6279 60.6856 13.5879C61.0256 13.5479 61.3256 13.4929 61.5856 13.4229C61.6856 13.4029 61.7506 13.4079 61.7806 13.4379C61.8106 13.4679 61.8306 13.5079 61.8406 13.5579L61.9306 14.1879C61.9406 14.2379 61.9256 14.2829 61.8856 14.3229C61.8456 14.3629 61.7556 14.3829 61.6156 14.3829C60.9156 14.3829 60.1856 14.3879 59.4256 14.3979C58.6656 14.4179 57.9156 14.4329 57.1756 14.4429C56.4456 14.4629 55.7506 14.4829 55.0906 14.5029ZM51.1756 7.96286C51.0656 7.97286 50.9956 7.96786 50.9656 7.94786C50.9356 7.92786 50.9056 7.87286 50.8756 7.78286C50.8356 7.67286 50.8006 7.57286 50.7706 7.48286C50.7506 7.38286 50.7206 7.24786 50.6806 7.07786C50.6706 7.05786 50.6756 7.03286 50.6956 7.00286C50.7156 6.97286 50.7506 6.96286 50.8006 6.97286C50.9506 6.99286 51.2006 7.01286 51.5506 7.03286C51.9006 7.05286 52.3006 7.05786 52.7506 7.04786L52.6606 4.99286C52.6106 4.21286 52.5356 3.72786 52.4356 3.53786C52.4156 3.48786 52.4156 3.45286 52.4356 3.43286C52.4656 3.40286 52.5006 3.38786 52.5406 3.38786L53.5156 3.40286C53.5656 3.40286 53.5906 3.43786 53.5906 3.50786C53.5806 3.76786 53.5706 3.98286 53.5606 4.15286C53.5506 4.31286 53.5456 4.47286 53.5456 4.63286C53.5456 4.78286 53.5456 4.98286 53.5456 5.23286L53.5306 7.03286C53.8906 7.01286 54.2956 6.99286 54.7456 6.97286C55.1956 6.94286 55.5956 6.90786 55.9456 6.86786L56.0656 5.03786C56.0856 4.65786 56.0956 4.30786 56.0956 3.98786C56.0956 3.66786 56.0706 3.45786 56.0206 3.35786C56.0006 3.30786 56.0006 3.27286 56.0206 3.25286C56.0506 3.22286 56.0856 3.20786 56.1256 3.20786C56.1756 3.20786 56.2756 3.21286 56.4256 3.22286C56.5856 3.23286 56.7356 3.24286 56.8756 3.25286C57.0256 3.25286 57.1106 3.25286 57.1306 3.25286C57.2006 3.26286 57.2256 3.31286 57.2056 3.40286C57.1556 3.72286 57.1106 4.03786 57.0706 4.34786C57.0406 4.64786 57.0056 4.97786 56.9656 5.33786L56.8306 6.77786C57.3306 6.70786 57.8156 6.62786 58.2856 6.53786C58.7556 6.44786 59.1806 6.34786 59.5606 6.23786C59.6306 6.20786 59.6756 6.23286 59.6956 6.31286L59.7556 6.73286C59.7756 6.82286 59.7656 6.88286 59.7256 6.91286C59.6956 6.94286 59.6506 6.96786 59.5906 6.98786C59.3706 7.04786 59.0356 7.11786 58.5856 7.19786C58.1456 7.27786 57.6456 7.35786 57.0856 7.43786C56.5356 7.50786 55.9856 7.57786 55.4356 7.64786C54.8856 7.70786 54.3906 7.75286 53.9506 7.78286C53.4106 7.81286 52.9206 7.84786 52.4806 7.88786C52.0506 7.91786 51.6156 7.94286 51.1756 7.96286ZM60.3106 8.18786C60.2706 8.18786 60.2506 8.16286 60.2506 8.11286V2.83286C60.2506 2.45286 60.2356 2.10286 60.2056 1.78286C60.1856 1.46286 60.1506 1.25286 60.1006 1.15286C60.0806 1.10286 60.0806 1.06786 60.1006 1.04786C60.1306 1.01786 60.1656 1.00286 60.2056 1.00286C60.2856 1.00286 60.4206 1.00286 60.6106 1.00286C60.8106 1.00286 61.0006 1.00786 61.1806 1.01786C61.2306 1.01786 61.2556 1.05786 61.2556 1.13786C61.2256 1.50786 61.2056 1.83286 61.1956 2.11286C61.1956 2.38286 61.1956 2.69786 61.1956 3.05786V7.81286C61.1956 7.96286 61.1856 8.05286 61.1656 8.08286C61.1556 8.11286 61.1256 8.13286 61.0756 8.14286L60.3106 8.18786ZM51.5506 2.92286C51.4506 2.94286 51.3856 2.93786 51.3556 2.90786C51.3256 2.86786 51.3006 2.81786 51.2806 2.75786C51.2706 2.74786 51.2656 2.73786 51.2656 2.72786C51.2256 2.61786 51.1956 2.52286 51.1756 2.44286C51.1556 2.36286 51.1306 2.24786 51.1006 2.09786C51.0906 2.02786 51.1306 1.99286 51.2206 1.99286C51.5006 2.01286 51.8106 2.02786 52.1506 2.03786C52.4906 2.04786 52.9006 2.04786 53.3806 2.03786C53.8506 2.02786 54.3306 2.01786 54.8206 2.00786C55.3206 1.98786 55.7406 1.96786 56.0806 1.94786C56.4106 1.92786 56.7456 1.90286 57.0856 1.87286C57.4256 1.84286 57.7856 1.80286 58.1656 1.75286C58.1956 1.74286 58.2306 1.74786 58.2706 1.76786C58.3106 1.77786 58.3356 1.80786 58.3456 1.85786C58.3956 2.06786 58.4306 2.29786 58.4506 2.54786C58.4506 2.65786 58.3906 2.71286 58.2706 2.71286C58.0806 2.70286 57.8556 2.69786 57.5956 2.69786C57.3456 2.68786 57.1206 2.68286 56.9206 2.68286C56.6106 2.68286 56.2006 2.69286 55.6906 2.71286C55.1906 2.72286 54.6656 2.73786 54.1156 2.75786C53.5756 2.77786 53.0706 2.80286 52.6006 2.83286C52.1406 2.86286 51.7906 2.89286 51.5506 2.92286Z" stroke="#EA7171" stroke-width="2" mask="url(#path-1-outside-1_192_25)"/>
<path d="M70.4523 7.78286C69.7623 7.78286 69.1423 7.66286 68.5923 7.42286C68.0523 7.17286 67.6273 6.82286 67.3173 6.37286C67.0073 5.91286 66.8573 5.36786 66.8673 4.73786C66.8873 4.15786 67.0623 3.64286 67.3923 3.19286C67.7323 2.73286 68.1873 2.36786 68.7573 2.09786C69.3273 1.82786 69.9573 1.68786 70.6473 1.67786C71.3573 1.67786 71.9873 1.80286 72.5373 2.05286C73.0873 2.30286 73.5173 2.65786 73.8273 3.11786C74.1473 3.56786 74.2923 4.09286 74.2623 4.69286C74.2223 5.33286 74.0323 5.88286 73.6923 6.34286C73.3623 6.80286 72.9173 7.15786 72.3573 7.40786C71.7973 7.65786 71.1623 7.78286 70.4523 7.78286ZM70.4823 7.01786C71.2723 6.99786 71.9223 6.78786 72.4323 6.38786C72.9423 5.98786 73.2173 5.42286 73.2573 4.69286C73.2973 4.01286 73.0723 3.46786 72.5823 3.05786C72.0923 2.64786 71.4323 2.44286 70.6023 2.44286C70.0223 2.44286 69.5273 2.55286 69.1173 2.77286C68.7073 2.99286 68.3973 3.27786 68.1873 3.62786C67.9773 3.96786 67.8623 4.33786 67.8423 4.73786C67.8223 5.19786 67.9273 5.60286 68.1573 5.95286C68.3873 6.30286 68.7073 6.57286 69.1173 6.76286C69.5273 6.94286 69.9823 7.02786 70.4823 7.01786ZM64.9323 12.2379C64.8223 12.2479 64.7473 12.2379 64.7073 12.2079C64.6673 12.1779 64.6373 12.1329 64.6173 12.0729C64.5773 11.9629 64.5423 11.8529 64.5123 11.7429C64.4823 11.6229 64.4473 11.4779 64.4073 11.3079C64.3973 11.2879 64.4023 11.2629 64.4223 11.2329C64.4423 11.1929 64.4773 11.1779 64.5273 11.1879C64.8973 11.2379 65.4023 11.2729 66.0423 11.2929C66.6923 11.3029 67.4073 11.3079 68.1873 11.3079L68.1123 10.1079C68.1023 9.91786 68.0823 9.70786 68.0523 9.47786C68.0223 9.24786 67.9873 9.03786 67.9473 8.84786C67.9073 8.64786 67.8673 8.51786 67.8273 8.45786C67.8073 8.39786 67.8073 8.35786 67.8273 8.33786C67.8573 8.31786 67.8923 8.30286 67.9323 8.29286H68.9373C68.9773 8.30286 68.9973 8.34786 68.9973 8.42786C68.9973 8.43786 68.9973 8.44786 68.9973 8.45786C68.9973 8.71786 68.9973 8.97286 68.9973 9.22286C68.9973 9.47286 69.0023 9.72786 69.0123 9.98786L69.0423 11.3079C69.5823 11.3079 70.1223 11.3029 70.6623 11.2929C71.2023 11.2729 71.7373 11.2529 72.2673 11.2329L72.3423 9.92786C72.3523 9.73786 72.3573 9.53286 72.3573 9.31286C72.3673 9.09286 72.3623 8.89286 72.3423 8.71286C72.3323 8.52286 72.3073 8.39286 72.2673 8.32286C72.2473 8.25286 72.2523 8.21286 72.2823 8.20286C72.3123 8.18286 72.3473 8.17286 72.3873 8.17286C72.4373 8.17286 72.5373 8.17786 72.6873 8.18786C72.8373 8.18786 72.9823 8.19286 73.1223 8.20286C73.2723 8.21286 73.3573 8.21786 73.3773 8.21786C73.4273 8.24786 73.4423 8.29786 73.4223 8.36786C73.4223 8.37786 73.4223 8.38286 73.4223 8.38286C73.3923 8.64286 73.3623 8.89286 73.3323 9.13286C73.3023 9.37286 73.2773 9.62286 73.2573 9.88286L73.1373 11.2029C73.8773 11.1629 74.5423 11.1229 75.1323 11.0829C75.7323 11.0329 76.1923 10.9779 76.5123 10.9179C76.6123 10.8979 76.6773 10.9029 76.7073 10.9329C76.7373 10.9629 76.7573 11.0029 76.7673 11.0529L76.8573 11.7729C76.8573 11.8229 76.8423 11.8679 76.8123 11.9079C76.7823 11.9479 76.7023 11.9679 76.5723 11.9679C76.2323 11.9579 75.8373 11.9529 75.3873 11.9529C74.9373 11.9529 74.4573 11.9529 73.9473 11.9529C72.6973 11.9529 71.4873 11.9679 70.3173 11.9979C69.1473 12.0179 68.0973 12.0479 67.1673 12.0879C66.2373 12.1279 65.4923 12.1779 64.9323 12.2379Z" stroke="#EA7171" stroke-width="2" mask="url(#path-1-outside-1_192_25)"/>
<path d="M94.4968 13.7529C94.4568 13.7529 94.4368 13.7279 94.4368 13.6779V7.06286C94.1568 7.06286 93.8668 7.06786 93.5668 7.07786C93.2668 7.07786 93.0018 7.08286 92.7718 7.09286V12.9879C92.7718 13.1379 92.7618 13.2279 92.7418 13.2579C92.7318 13.2879 92.7018 13.3079 92.6518 13.3179C92.6218 13.3179 92.5518 13.3229 92.4418 13.3329C92.3418 13.3329 92.2418 13.3379 92.1418 13.3479C92.0418 13.3579 91.9718 13.3629 91.9318 13.3629C91.8918 13.3629 91.8718 13.3379 91.8718 13.2879V3.22286C91.8718 2.84286 91.8618 2.49286 91.8418 2.17286C91.8218 1.85286 91.7868 1.64286 91.7368 1.54286C91.7168 1.49286 91.7168 1.45786 91.7368 1.43786C91.7668 1.40786 91.8018 1.39286 91.8418 1.39286L92.7268 1.40786C92.7768 1.42786 92.8018 1.46786 92.8018 1.52786C92.7818 1.81786 92.7718 2.07786 92.7718 2.30786C92.7718 2.53786 92.7718 2.77786 92.7718 3.02786C92.7718 3.08786 92.7718 3.15286 92.7718 3.22286C92.7718 3.29286 92.7718 3.36786 92.7718 3.44786V6.29786C93.3318 6.31786 93.8868 6.30286 94.4368 6.25286V2.83286C94.4368 2.45286 94.4268 2.10286 94.4068 1.78286C94.3968 1.46286 94.3668 1.25286 94.3168 1.15286C94.2968 1.10286 94.2968 1.06786 94.3168 1.04786C94.3468 1.01786 94.3818 1.00286 94.4218 1.00286L95.3068 1.01786C95.3568 1.03786 95.3818 1.07786 95.3818 1.13786C95.3618 1.43786 95.3468 1.70786 95.3368 1.94786C95.3368 2.18786 95.3368 2.43786 95.3368 2.69786C95.3368 2.75786 95.3368 2.81786 95.3368 2.87786C95.3368 2.93786 95.3368 2.99786 95.3368 3.05786V13.3779C95.3368 13.5279 95.3268 13.6179 95.3068 13.6479C95.2968 13.6779 95.2668 13.6979 95.2168 13.7079C95.1868 13.7079 95.1168 13.7079 95.0068 13.7079C94.9068 13.7179 94.8068 13.7279 94.7068 13.7379C94.6068 13.7479 94.5368 13.7529 94.4968 13.7529ZM87.7468 10.6779C87.1568 10.6879 86.6568 10.5729 86.2468 10.3329C85.8368 10.0929 85.5268 9.78786 85.3168 9.41786C85.1068 9.04786 85.0018 8.67786 85.0018 8.30786C85.0018 7.93786 85.0968 7.57286 85.2868 7.21286C85.4868 6.84286 85.7918 6.53286 86.2018 6.28286C86.6118 6.03286 87.1418 5.90286 87.7918 5.89286C88.6718 5.87286 89.3518 6.07786 89.8318 6.50786C90.3218 6.93786 90.5568 7.50786 90.5368 8.21786C90.5268 8.59786 90.4118 8.97786 90.1918 9.35786C89.9818 9.72786 89.6718 10.0379 89.2618 10.2879C88.8518 10.5279 88.3468 10.6579 87.7468 10.6779ZM87.7468 9.94286C88.3468 9.92286 88.8018 9.74786 89.1118 9.41786C89.4218 9.08786 89.5868 8.69286 89.6068 8.23286C89.6268 7.97286 89.5768 7.71286 89.4568 7.45286C89.3468 7.18286 89.1568 6.95786 88.8868 6.77786C88.6268 6.58786 88.2618 6.50286 87.7918 6.52286C87.3318 6.53286 86.9618 6.62786 86.6818 6.80786C86.4018 6.97786 86.1968 7.19786 86.0668 7.46786C85.9468 7.72786 85.8868 8.00286 85.8868 8.29286C85.8868 8.72286 86.0468 9.10786 86.3668 9.44786C86.6968 9.77786 87.1568 9.94286 87.7468 9.94286ZM84.4468 5.20286C84.3468 5.21286 84.2818 5.20286 84.2518 5.17286C84.2218 5.13286 84.1968 5.08786 84.1768 5.03786C84.1668 5.02786 84.1618 5.01786 84.1618 5.00786C84.1218 4.89786 84.0918 4.80786 84.0718 4.73786C84.0518 4.66786 84.0218 4.54786 83.9818 4.37786C83.9718 4.35786 83.9768 4.33286 83.9968 4.30286C84.0168 4.27286 84.0518 4.25786 84.1018 4.25786C84.3018 4.26786 84.5118 4.28286 84.7318 4.30286C84.9618 4.31286 85.3118 4.31786 85.7818 4.31786C86.1918 4.31786 86.6968 4.31286 87.2968 4.30286C87.8968 4.28286 88.5018 4.24786 89.1118 4.19786C89.3618 4.17786 89.6168 4.15286 89.8768 4.12286C90.1468 4.09286 90.3868 4.06286 90.5968 4.03286C90.8068 3.99286 90.9468 3.96286 91.0168 3.94286C91.0468 3.93286 91.0818 3.93786 91.1218 3.95786C91.1618 3.96786 91.1868 4.00786 91.1968 4.07786L91.2718 4.69286C91.2818 4.74286 91.2768 4.79286 91.2568 4.84286C91.2468 4.89286 91.2018 4.91786 91.1218 4.91786H89.2918C89.0718 4.91786 88.8068 4.92286 88.4968 4.93286C88.1968 4.94286 87.8918 4.95286 87.5818 4.96286C87.2718 4.97286 86.9968 4.98786 86.7568 5.00786C86.5168 5.01786 86.3468 5.02786 86.2468 5.03786C85.9468 5.05786 85.6318 5.08786 85.3018 5.12786C84.9818 5.15786 84.6968 5.18286 84.4468 5.20286ZM87.2968 2.96786C87.1568 2.94786 86.9668 2.92286 86.7268 2.89286C86.4868 2.85286 86.2518 2.80286 86.0218 2.74286C85.7918 2.67286 85.6068 2.58786 85.4668 2.48786C85.4268 2.45786 85.4168 2.39786 85.4368 2.30786C85.4568 2.20786 85.4918 2.11786 85.5418 2.03786C85.5918 1.94786 85.6418 1.91286 85.6918 1.93286C86.1218 2.01286 86.5868 2.06286 87.0868 2.08286C87.5968 2.10286 88.0768 2.10786 88.5268 2.09786C88.9768 2.07786 89.3418 2.05786 89.6218 2.03786C89.7018 2.02786 89.7518 2.03286 89.7718 2.05286C89.7918 2.06286 89.8068 2.09286 89.8168 2.14286C89.8168 2.15286 89.8168 2.16786 89.8168 2.18786C89.8168 2.27786 89.8118 2.40286 89.8018 2.56286C89.7918 2.71286 89.7568 2.79786 89.6968 2.81786C89.6368 2.83786 89.4768 2.86786 89.2168 2.90786C88.9668 2.93786 88.6668 2.96286 88.3168 2.98286C87.9768 2.99286 87.6368 2.98786 87.2968 2.96786Z" stroke="#EA7171" stroke-width="2" mask="url(#path-1-outside-1_192_25)"/>
<path d="M104.504 7.78286C103.814 7.78286 103.194 7.66286 102.644 7.42286C102.104 7.17286 101.679 6.82286 101.369 6.37286C101.059 5.91286 100.909 5.36786 100.919 4.73786C100.939 4.15786 101.114 3.64286 101.444 3.19286C101.784 2.73286 102.239 2.36786 102.809 2.09786C103.379 1.82786 104.009 1.68786 104.699 1.67786C105.409 1.67786 106.039 1.80286 106.589 2.05286C107.139 2.30286 107.569 2.65786 107.879 3.11786C108.199 3.56786 108.344 4.09286 108.314 4.69286C108.274 5.33286 108.084 5.88286 107.744 6.34286C107.414 6.80286 106.969 7.15786 106.409 7.40786C105.849 7.65786 105.214 7.78286 104.504 7.78286ZM104.534 7.01786C105.324 6.99786 105.974 6.78786 106.484 6.38786C106.994 5.98786 107.269 5.42286 107.309 4.69286C107.349 4.01286 107.124 3.46786 106.634 3.05786C106.144 2.64786 105.484 2.44286 104.654 2.44286C104.074 2.44286 103.579 2.55286 103.169 2.77286C102.759 2.99286 102.449 3.27786 102.239 3.62786C102.029 3.96786 101.914 4.33786 101.894 4.73786C101.874 5.19786 101.979 5.60286 102.209 5.95286C102.439 6.30286 102.759 6.57286 103.169 6.76286C103.579 6.94286 104.034 7.02786 104.534 7.01786ZM98.9841 12.2379C98.8741 12.2479 98.7991 12.2379 98.7591 12.2079C98.7191 12.1779 98.6891 12.1329 98.6691 12.0729C98.6291 11.9629 98.5941 11.8529 98.5641 11.7429C98.5341 11.6229 98.4991 11.4779 98.4591 11.3079C98.4491 11.2879 98.4541 11.2629 98.4741 11.2329C98.4941 11.1929 98.5291 11.1779 98.5791 11.1879C98.9491 11.2379 99.4541 11.2729 100.094 11.2929C100.744 11.3029 101.459 11.3079 102.239 11.3079L102.164 10.1079C102.154 9.91786 102.134 9.70786 102.104 9.47786C102.074 9.24786 102.039 9.03786 101.999 8.84786C101.959 8.64786 101.919 8.51786 101.879 8.45786C101.859 8.39786 101.859 8.35786 101.879 8.33786C101.909 8.31786 101.944 8.30286 101.984 8.29286H102.989C103.029 8.30286 103.049 8.34786 103.049 8.42786C103.049 8.43786 103.049 8.44786 103.049 8.45786C103.049 8.71786 103.049 8.97286 103.049 9.22286C103.049 9.47286 103.054 9.72786 103.064 9.98786L103.094 11.3079C103.634 11.3079 104.174 11.3029 104.714 11.2929C105.254 11.2729 105.789 11.2529 106.319 11.2329L106.394 9.92786C106.404 9.73786 106.409 9.53286 106.409 9.31286C106.419 9.09286 106.414 8.89286 106.394 8.71286C106.384 8.52286 106.359 8.39286 106.319 8.32286C106.299 8.25286 106.304 8.21286 106.334 8.20286C106.364 8.18286 106.399 8.17286 106.439 8.17286C106.489 8.17286 106.589 8.17786 106.739 8.18786C106.889 8.18786 107.034 8.19286 107.174 8.20286C107.324 8.21286 107.409 8.21786 107.429 8.21786C107.479 8.24786 107.494 8.29786 107.474 8.36786C107.474 8.37786 107.474 8.38286 107.474 8.38286C107.444 8.64286 107.414 8.89286 107.384 9.13286C107.354 9.37286 107.329 9.62286 107.309 9.88286L107.189 11.2029C107.929 11.1629 108.594 11.1229 109.184 11.0829C109.784 11.0329 110.244 10.9779 110.564 10.9179C110.664 10.8979 110.729 10.9029 110.759 10.9329C110.789 10.9629 110.809 11.0029 110.819 11.0529L110.909 11.7729C110.909 11.8229 110.894 11.8679 110.864 11.9079C110.834 11.9479 110.754 11.9679 110.624 11.9679C110.284 11.9579 109.889 11.9529 109.439 11.9529C108.989 11.9529 108.509 11.9529 107.999 11.9529C106.749 11.9529 105.539 11.9679 104.369 11.9979C103.199 12.0179 102.149 12.0479 101.219 12.0879C100.289 12.1279 99.5441 12.1779 98.9841 12.2379Z" stroke="#EA7171" stroke-width="2" mask="url(#path-1-outside-1_192_25)"/>
</svg>
