<svg width="99" height="16" viewBox="0 0 99 16" fill="none" xmlns="http://www.w3.org/2000/svg">
<path d="M7.02939 9.072C6.92139 9.072 6.80739 9.06 6.68739 9.036C6.57939 9 6.47139 8.946 6.36339 8.874C6.26739 8.802 6.18339 8.706 6.11139 8.586C6.03939 8.466 5.99739 8.316 5.98539 8.136C5.96139 7.92 5.97339 7.692 6.02139 7.452C6.08139 7.2 6.24939 7.008 6.52539 6.876C6.63339 6.816 6.76539 6.78 6.92139 6.768C7.08939 6.756 7.23339 6.756 7.35339 6.768H8.21739V3.006C8.21739 2.85 8.21739 2.694 8.21739 2.538C8.21739 2.37 8.23539 2.208 8.27139 2.052C8.29539 1.992 8.31339 1.938 8.32539 1.89C8.34939 1.842 8.37339 1.788 8.39739 1.728C8.46939 1.608 8.54139 1.518 8.61339 1.458C8.68539 1.386 8.78739 1.326 8.91939 1.278C8.97939 1.254 9.03939 1.242 9.09939 1.242C9.17139 1.23 9.23739 1.224 9.29739 1.224C9.69339 1.224 9.99339 1.404 10.1974 1.764C10.2454 1.836 10.2754 1.938 10.2874 2.07C10.3114 2.202 10.3294 2.34 10.3414 2.484C10.3534 2.616 10.3594 2.736 10.3594 2.844C10.3594 2.94 10.3594 3 10.3594 3.024V13.5C10.3594 13.8 10.3474 14.04 10.3234 14.22C10.3114 14.4 10.2574 14.628 10.1614 14.904C10.1014 15.084 9.99939 15.234 9.85539 15.354C9.71139 15.474 9.50739 15.534 9.24339 15.534C9.17139 15.534 9.08139 15.522 8.97339 15.498C8.86539 15.486 8.78139 15.456 8.72139 15.408C8.60139 15.336 8.50539 15.222 8.43339 15.066C8.37339 14.898 8.32539 14.724 8.28939 14.544C8.25339 14.364 8.22939 14.19 8.21739 14.022C8.21739 13.854 8.21739 13.722 8.21739 13.626V9.126L7.02939 9.072ZM13.4734 3.438C13.4974 4.35 13.5034 5.262 13.4914 6.174C13.4794 7.086 13.4734 7.968 13.4734 8.82V13.32C13.4734 13.632 13.4614 13.932 13.4374 14.22C13.4254 14.508 13.3594 14.778 13.2394 15.03C13.1674 15.186 13.0534 15.318 12.8974 15.426C12.7654 15.51 12.6454 15.558 12.5374 15.57C12.4414 15.594 12.3154 15.588 12.1594 15.552C11.9794 15.516 11.8354 15.438 11.7274 15.318C11.6194 15.21 11.5354 15.084 11.4754 14.94C11.4274 14.796 11.3974 14.64 11.3854 14.472C11.3734 14.304 11.3674 14.142 11.3674 13.986V3.168C11.3674 3.036 11.3674 2.886 11.3674 2.718C11.3674 2.538 11.3794 2.37 11.4034 2.214C11.4274 2.046 11.4574 1.89 11.4934 1.746C11.5414 1.602 11.6074 1.488 11.6914 1.404C11.8234 1.284 11.9494 1.212 12.0694 1.188C12.1894 1.152 12.3334 1.134 12.5014 1.134C12.7054 1.134 12.8614 1.194 12.9694 1.314C13.0894 1.422 13.1854 1.572 13.2574 1.764C13.3654 2.016 13.4194 2.292 13.4194 2.592C13.4314 2.892 13.4494 3.174 13.4734 3.438ZM5.78739 2.88C6.19539 2.88 6.53739 2.91 6.81339 2.97C7.08939 3.03 7.31139 3.222 7.47939 3.546C7.56339 3.702 7.61139 3.87 7.62339 4.05C7.63539 4.218 7.61139 4.368 7.55139 4.5C7.41939 4.812 7.17939 4.998 6.83139 5.058C6.59139 5.082 6.34539 5.1 6.09339 5.112C5.85339 5.124 5.49339 5.118 5.01339 5.094C5.00139 5.478 4.99539 5.76 4.99539 5.94C5.00739 6.108 5.01339 6.222 5.01339 6.282V8.352C5.01339 8.448 5.01939 8.574 5.03139 8.73C5.04339 8.874 5.04939 8.982 5.04939 9.054C5.13339 9.15 5.20539 9.288 5.26539 9.468C5.33739 9.636 5.42139 9.774 5.51739 9.882C5.61339 10.014 5.70939 10.158 5.80539 10.314C5.91339 10.458 6.02739 10.614 6.14739 10.782C6.20739 10.878 6.26739 10.98 6.32739 11.088C6.39939 11.184 6.45939 11.274 6.50739 11.358C6.67539 11.658 6.85539 11.988 7.04739 12.348C7.25139 12.696 7.38939 13.044 7.46139 13.392C7.48539 13.548 7.48539 13.722 7.46139 13.914C7.43739 14.094 7.36539 14.244 7.24539 14.364C7.11339 14.532 6.92739 14.616 6.68739 14.616C6.47139 14.616 6.26139 14.544 6.05739 14.4C5.85339 14.256 5.68539 14.112 5.55339 13.968C5.37339 13.74 5.20539 13.506 5.04939 13.266C4.89339 13.026 4.73139 12.786 4.56339 12.546C4.46739 12.378 4.34739 12.192 4.20339 11.988C4.07139 11.784 3.93339 11.61 3.78939 11.466C3.66939 11.646 3.54339 11.832 3.41139 12.024C3.29139 12.204 3.17739 12.396 3.06939 12.6C2.93739 12.84 2.79939 13.074 2.65539 13.302C2.51139 13.518 2.35539 13.728 2.18739 13.932C1.77939 14.412 1.38939 14.652 1.01739 14.652C0.909391 14.652 0.819391 14.634 0.747391 14.598C0.531391 14.55 0.375391 14.394 0.279391 14.13C0.219391 13.95 0.195391 13.746 0.207391 13.518C0.231391 13.29 0.279391 13.092 0.351391 12.924C0.435391 12.744 0.525391 12.57 0.621391 12.402C0.717391 12.234 0.813391 12.066 0.909391 11.898C0.969391 11.802 1.02939 11.706 1.08939 11.61C1.16139 11.502 1.22739 11.4 1.28739 11.304C1.37139 11.136 1.48539 10.938 1.62939 10.71C1.77339 10.482 1.91139 10.26 2.04339 10.044C2.18739 9.828 2.31939 9.63 2.43939 9.45C2.55939 9.27 2.64939 9.144 2.70939 9.072V5.094H2.02539C1.66539 5.094 1.38339 5.094 1.17939 5.094C0.987391 5.094 0.855391 5.082 0.783391 5.058C0.615391 5.022 0.465391 4.944 0.333391 4.824C0.213391 4.692 0.123391 4.524 0.0633913 4.32C-0.0446087 3.984 -0.0146087 3.678 0.153391 3.402C0.249391 3.27 0.357391 3.162 0.477391 3.078C0.597391 2.982 0.723391 2.922 0.855391 2.898C0.903391 2.886 0.957391 2.88 1.01739 2.88C1.08939 2.88 1.15539 2.88 1.21539 2.88H2.78139C2.78139 2.772 2.78739 2.64 2.79939 2.484C2.81139 2.316 2.82339 2.154 2.83539 1.998C2.85939 1.83 2.88339 1.674 2.90739 1.53C2.93139 1.374 2.96739 1.248 3.01539 1.152C3.07539 1.044 3.15939 0.947999 3.26739 0.864C3.37539 0.779999 3.48939 0.719999 3.60939 0.684C3.74139 0.636 3.86739 0.618 3.98739 0.629999C4.11939 0.629999 4.23939 0.659999 4.34739 0.719999C4.58739 0.864 4.74939 1.11 4.83339 1.458C4.92939 1.794 4.97739 2.268 4.97739 2.88H5.78739Z" fill="white"/>
<path d="M15.7068 13.374C15.7068 12.93 15.8268 12.564 16.0668 12.276C16.3188 11.976 16.6608 11.742 17.0928 11.574C17.5248 11.394 18.0348 11.268 18.6228 11.196C19.2108 11.124 19.8468 11.076 20.5308 11.052V11.016L20.5488 9.72C20.2728 9.72 19.9128 9.72 19.4688 9.72C19.0368 9.708 18.5868 9.702 18.1188 9.702C17.6508 9.69 17.2008 9.678 16.7688 9.666C16.3368 9.654 15.9948 9.636 15.7428 9.612C15.5508 9.588 15.3948 9.564 15.2748 9.54C15.1668 9.504 15.0348 9.414 14.8788 9.27C14.7948 9.198 14.7348 9.108 14.6988 9C14.6628 8.88 14.6448 8.754 14.6448 8.622C14.6448 8.37 14.7228 8.166 14.8788 8.01C14.9628 7.914 15.0768 7.842 15.2208 7.794C15.3648 7.746 15.5028 7.71 15.6348 7.686C15.7668 7.662 15.8808 7.65 15.9768 7.65C16.0848 7.65 16.1448 7.65 16.1568 7.65H26.4528C26.6328 7.65 26.8128 7.65 26.9928 7.65C27.1728 7.65 27.3468 7.656 27.5148 7.668C27.6828 7.68 27.8448 7.704 28.0008 7.74C28.1688 7.776 28.3188 7.854 28.4508 7.974C28.5828 8.07 28.6548 8.178 28.6668 8.298C28.6908 8.418 28.7028 8.55 28.7028 8.694C28.7028 9.078 28.5108 9.336 28.1268 9.468C27.8868 9.564 27.6228 9.624 27.3348 9.648C27.0588 9.66 26.7948 9.672 26.5428 9.684C25.9428 9.708 25.3548 9.726 24.7788 9.738C24.2028 9.75 23.6088 9.756 22.9968 9.756L22.9788 11.052C23.6268 11.064 24.2268 11.106 24.7788 11.178C25.3308 11.238 25.8048 11.352 26.2008 11.52C26.6088 11.676 26.9268 11.904 27.1548 12.204C27.3828 12.504 27.4968 12.894 27.4968 13.374C27.4968 13.938 27.3408 14.376 27.0288 14.688C26.7168 15 26.2908 15.228 25.7508 15.372C25.2228 15.528 24.5988 15.624 23.8788 15.66C23.1708 15.696 22.4088 15.714 21.5928 15.714C20.7768 15.714 20.0088 15.696 19.2888 15.66C18.5808 15.624 17.9628 15.528 17.4348 15.372C16.9068 15.228 16.4868 15 16.1748 14.688C15.8628 14.376 15.7068 13.938 15.7068 13.374ZM25.9128 4.914C26.1408 5.01 26.3628 5.13 26.5788 5.274C26.7948 5.418 26.9988 5.568 27.1908 5.724C27.2868 5.808 27.3528 5.916 27.3888 6.048C27.4248 6.18 27.4248 6.312 27.3888 6.444C27.3648 6.564 27.3048 6.678 27.2088 6.786C27.1248 6.882 27.0108 6.942 26.8668 6.966C26.4828 7.05 26.0808 7.05 25.6608 6.966C25.2528 6.87 24.8748 6.744 24.5268 6.588C24.2028 6.444 23.9028 6.306 23.6268 6.174C23.3508 6.042 23.0748 5.898 22.7988 5.742C22.7148 5.694 22.6008 5.634 22.4568 5.562C22.3248 5.49 22.1928 5.418 22.0608 5.346C21.9048 5.262 21.7368 5.178 21.5568 5.094C21.3528 5.19 21.1548 5.28 20.9628 5.364C20.7948 5.436 20.6268 5.508 20.4588 5.58C20.3028 5.652 20.1768 5.712 20.0808 5.76C19.7688 5.928 19.4808 6.072 19.2168 6.192C18.9528 6.3 18.6648 6.426 18.3528 6.57C18.1128 6.666 17.8668 6.78 17.6148 6.912C17.3748 7.032 17.1168 7.08 16.8408 7.056C16.6248 7.044 16.4148 6.99 16.2108 6.894C16.0068 6.798 15.8808 6.63 15.8328 6.39C15.8208 6.27 15.8328 6.132 15.8688 5.976C15.9168 5.808 15.9948 5.664 16.1028 5.544C16.2228 5.424 16.3668 5.316 16.5348 5.22L17.7768 4.608C17.9808 4.5 18.1608 4.41 18.3168 4.338C18.4728 4.266 18.6588 4.182 18.8748 4.086C19.0788 3.978 19.3128 3.858 19.5768 3.726C19.8528 3.594 20.1108 3.486 20.3508 3.402V2.844H18.4428C18.2508 2.844 18.0828 2.85 17.9388 2.862C17.8068 2.862 17.6508 2.85 17.4708 2.826C17.3388 2.802 17.1948 2.79 17.0388 2.79C16.8828 2.79 16.7388 2.76 16.6068 2.7C16.4748 2.628 16.3668 2.514 16.2828 2.358C16.2108 2.238 16.1688 2.106 16.1568 1.962C16.1448 1.806 16.1688 1.662 16.2288 1.53C16.3248 1.338 16.4808 1.194 16.6968 1.098C16.9128 1.002 17.1348 0.954 17.3628 0.954H17.7768C17.9688 0.965999 18.1068 0.971999 18.1908 0.971999C18.2868 0.959999 18.4308 0.954 18.6228 0.954H24.8508C25.0428 0.954 25.2648 0.948 25.5168 0.936C25.7688 0.924 26.0088 0.942 26.2368 0.989999C26.4768 1.026 26.6868 1.104 26.8668 1.224C27.0588 1.344 27.1848 1.53 27.2448 1.782C27.3168 2.07 27.2628 2.292 27.0828 2.448C26.9148 2.604 26.6928 2.718 26.4168 2.79C26.1528 2.85 25.8708 2.886 25.5708 2.898C25.2708 2.898 25.0248 2.892 24.8328 2.88C24.6408 2.868 24.4368 2.862 24.2208 2.862C24.0168 2.862 23.8188 2.862 23.6268 2.862C23.4108 2.862 23.1948 2.868 22.9788 2.88V3.438C23.0508 3.474 23.1228 3.516 23.1948 3.564C23.2788 3.6 23.3628 3.63 23.4468 3.654C23.5188 3.69 23.5848 3.726 23.6448 3.762C23.7168 3.798 23.7888 3.834 23.8608 3.87C23.9808 3.93 24.0948 3.99 24.2028 4.05C24.3228 4.098 24.4428 4.152 24.5628 4.212C24.7908 4.32 25.0128 4.434 25.2288 4.554C25.4568 4.674 25.6848 4.794 25.9128 4.914ZM25.1208 13.374C25.1208 13.182 25.0128 13.044 24.7968 12.96C24.5928 12.876 24.3168 12.822 23.9688 12.798C23.6328 12.774 23.2548 12.768 22.8348 12.78C22.4148 12.792 22.0008 12.798 21.5928 12.798C21.1848 12.798 20.7768 12.792 20.3688 12.78C19.9608 12.768 19.5948 12.774 19.2708 12.798C18.9468 12.822 18.6828 12.876 18.4788 12.96C18.2868 13.044 18.1908 13.182 18.1908 13.374C18.1908 13.542 18.2868 13.668 18.4788 13.752C18.6828 13.836 18.9468 13.896 19.2708 13.932C19.5948 13.956 19.9608 13.968 20.3688 13.968C20.7768 13.956 21.1848 13.95 21.5928 13.95C22.0008 13.95 22.4148 13.962 22.8348 13.986C23.2548 14.01 23.6328 14.016 23.9688 14.004C24.3168 13.98 24.5928 13.926 24.7968 13.842C25.0128 13.758 25.1208 13.602 25.1208 13.374Z" fill="white"/>
<path d="M42.4558 8.118C42.4558 8.238 42.4198 8.358 42.3478 8.478C42.2878 8.598 42.2098 8.706 42.1138 8.802C42.0178 8.886 41.9098 8.964 41.7898 9.036C41.6698 9.096 41.5558 9.132 41.4478 9.144C41.1358 9.192 40.8718 9.204 40.6558 9.18C40.4398 9.156 40.1818 9.144 39.8818 9.144C39.2218 9.144 38.5618 9.138 37.9018 9.126C37.2538 9.114 36.6058 9.096 35.9578 9.072C35.7658 9.06 35.6038 9 35.4718 8.892C35.3518 8.784 35.2558 8.658 35.1838 8.514C35.1118 8.358 35.0638 8.19 35.0398 8.01C35.0158 7.83 35.0038 7.662 35.0038 7.506C35.0038 7.254 34.9978 6.972 34.9858 6.66C34.9858 6.348 34.9798 6.03 34.9678 5.706C34.9678 5.382 34.9678 5.064 34.9678 4.752C34.9678 4.428 34.9738 4.14 34.9858 3.888C34.9978 3.732 34.9978 3.564 34.9858 3.384C34.9858 3.204 34.9918 3.024 35.0038 2.844C35.0158 2.664 35.0338 2.49 35.0578 2.322C35.0938 2.142 35.1478 1.986 35.2198 1.854C35.3038 1.698 35.4238 1.572 35.5798 1.476C35.7358 1.38 35.8978 1.326 36.0658 1.314C36.2338 1.29 36.3958 1.308 36.5518 1.368C36.7198 1.428 36.8518 1.536 36.9478 1.692C37.1398 2.016 37.2358 2.394 37.2358 2.826C37.2478 3.246 37.2478 3.648 37.2358 4.032H40.4218C40.4458 3.768 40.4518 3.534 40.4398 3.33C40.4278 3.126 40.4218 2.91 40.4218 2.682C40.4218 2.478 40.4518 2.25 40.5118 1.998C40.5838 1.734 40.7098 1.542 40.8898 1.422C41.0218 1.326 41.2018 1.278 41.4298 1.278C41.6578 1.266 41.8378 1.308 41.9698 1.404C42.1018 1.5 42.1978 1.644 42.2578 1.836C42.3298 2.016 42.3778 2.202 42.4018 2.394C42.4378 2.61 42.4558 2.844 42.4558 3.096V8.118ZM47.1538 13.446C47.1538 13.446 47.1898 13.458 47.2618 13.482C47.3458 13.506 47.4358 13.548 47.5318 13.608C47.6278 13.656 47.7178 13.728 47.8018 13.824C47.8858 13.908 47.9398 14.01 47.9638 14.13C48.0238 14.586 47.9458 14.94 47.7298 15.192C47.5858 15.36 47.4298 15.462 47.2618 15.498C47.0938 15.534 47.0038 15.552 46.9918 15.552H37.6138C37.1218 15.552 36.7378 15.474 36.4618 15.318C36.1858 15.174 36.0478 14.964 36.0478 14.688V12.186C36.0478 12.114 36.0418 12.024 36.0298 11.916C36.0298 11.808 36.0298 11.694 36.0298 11.574C36.0298 11.442 36.0298 11.322 36.0298 11.214C36.0418 11.106 36.0478 11.016 36.0478 10.944C36.0718 10.692 36.1918 10.488 36.4078 10.332C36.6238 10.176 36.8698 10.098 37.1458 10.098C37.2058 10.098 37.2778 10.104 37.3618 10.116C37.4578 10.116 37.5358 10.128 37.5958 10.152C37.7518 10.2 37.8778 10.284 37.9738 10.404C38.0698 10.512 38.1418 10.638 38.1898 10.782C38.2378 10.926 38.2678 11.082 38.2798 11.25C38.2918 11.406 38.3038 11.55 38.3158 11.682C38.3158 11.73 38.3158 11.844 38.3158 12.024C38.3158 12.192 38.3158 12.378 38.3158 12.582C38.3158 12.774 38.3158 12.954 38.3158 13.122C38.3158 13.278 38.3158 13.374 38.3158 13.41C38.3518 13.422 38.4478 13.44 38.6038 13.464C38.7718 13.476 39.0778 13.482 39.5218 13.482C39.9058 13.482 40.2478 13.476 40.5478 13.464C40.8478 13.452 41.0038 13.446 41.0158 13.446H47.1538ZM47.3878 1.728C47.4238 1.812 47.4538 1.938 47.4778 2.106C47.5018 2.274 47.5198 2.448 47.5318 2.628C47.5438 2.796 47.5498 2.952 47.5498 3.096C47.5498 3.24 47.5498 3.324 47.5498 3.348V9.558C47.5498 9.57 47.5438 9.618 47.5318 9.702C47.5198 9.774 47.4898 9.864 47.4418 9.972C47.4058 10.08 47.3458 10.188 47.2618 10.296C47.1898 10.404 47.0938 10.494 46.9738 10.566C46.8058 10.674 46.6318 10.728 46.4518 10.728C46.2118 10.728 46.0018 10.656 45.8218 10.512C45.6778 10.428 45.5698 10.308 45.4978 10.152C45.4138 10.008 45.3598 9.864 45.3358 9.72C45.3118 9.576 45.2938 9.438 45.2818 9.306V8.424H45.2278C45.0478 8.412 44.8498 8.406 44.6338 8.406C44.4298 8.394 44.2258 8.376 44.0218 8.352C43.8298 8.328 43.6558 8.286 43.4998 8.226C43.3438 8.154 43.2298 8.058 43.1578 7.938C43.0738 7.806 43.0318 7.65 43.0318 7.47C43.0438 7.278 43.0618 7.116 43.0858 6.984C43.1218 6.84 43.1938 6.72 43.3018 6.624C43.4098 6.528 43.5898 6.45 43.8418 6.39C43.8898 6.378 43.9798 6.372 44.1118 6.372C44.2558 6.36 44.3998 6.348 44.5438 6.336C44.6998 6.324 44.8438 6.318 44.9758 6.318C45.1198 6.306 45.2218 6.3 45.2818 6.3V5.13C45.1018 5.13 44.8978 5.136 44.6698 5.148C44.4538 5.148 44.2438 5.142 44.0398 5.13C43.8478 5.106 43.6678 5.07 43.4998 5.022C43.3438 4.974 43.2298 4.89 43.1578 4.77C43.1218 4.71 43.0918 4.632 43.0678 4.536C43.0558 4.44 43.0438 4.344 43.0318 4.248C43.0318 4.14 43.0378 4.038 43.0498 3.942C43.0618 3.846 43.0738 3.762 43.0858 3.69C43.1218 3.558 43.1938 3.444 43.3018 3.348C43.4098 3.252 43.5898 3.174 43.8418 3.114C43.8778 3.102 43.9498 3.096 44.0578 3.096C44.1778 3.084 44.3098 3.078 44.4538 3.078C44.5978 3.066 44.7418 3.06 44.8858 3.06C45.0418 3.048 45.1738 3.042 45.2818 3.042C45.2698 2.934 45.2698 2.784 45.2818 2.592C45.2938 2.4 45.3118 2.256 45.3358 2.16C45.3718 2.064 45.4018 1.968 45.4258 1.872C45.4498 1.776 45.5038 1.68 45.5878 1.584C45.6958 1.464 45.8398 1.38 46.0198 1.332C46.2118 1.272 46.4158 1.254 46.6318 1.278C47.0158 1.338 47.2678 1.488 47.3878 1.728ZM40.4218 7.146C40.4218 7.11 40.4158 7.074 40.4038 7.038C40.4038 6.99 40.4098 6.936 40.4218 6.876C40.4458 6.708 40.4578 6.564 40.4578 6.444C40.4578 6.312 40.4458 6.162 40.4218 5.994V5.688H38.6038C38.4118 5.676 38.2318 5.664 38.0638 5.652C37.9198 5.64 37.7638 5.64 37.5958 5.652C37.4398 5.652 37.3078 5.664 37.1998 5.688C37.1758 5.892 37.1698 6.096 37.1818 6.3C37.2058 6.492 37.2238 6.69 37.2358 6.894C37.2358 7.026 37.2418 7.116 37.2538 7.164C37.2658 7.212 37.3378 7.242 37.4698 7.254C37.6018 7.266 37.7338 7.272 37.8658 7.272C38.0098 7.26 38.1478 7.254 38.2798 7.254H40.4218V7.146Z" fill="white"/>
<path d="M50.6652 12.042C50.6892 12.03 50.7912 12.03 50.9712 12.042C51.1632 12.042 51.3732 12.048 51.6012 12.06C51.8412 12.06 52.0692 12.066 52.2852 12.078C52.5012 12.078 52.6452 12.078 52.7172 12.078C52.7172 12.006 52.7172 11.886 52.7172 11.718C52.7292 11.55 52.7412 11.364 52.7532 11.16C52.7652 10.956 52.7712 10.752 52.7712 10.548C52.7832 10.332 52.7952 10.152 52.8072 10.008C52.6992 9.984 52.5912 9.96 52.4832 9.936C52.3872 9.9 52.2912 9.858 52.1952 9.81C51.8592 9.666 51.5412 9.492 51.2412 9.288C50.9532 9.084 50.7012 8.85 50.4852 8.586C50.2692 8.31 50.1012 8.004 49.9812 7.668C49.8612 7.332 49.8012 6.966 49.8012 6.57C49.8012 6.138 49.8612 5.754 49.9812 5.418C50.1012 5.082 50.2632 4.782 50.4672 4.518H50.2692C49.9812 4.518 49.7292 4.428 49.5132 4.248C49.3092 4.056 49.2072 3.828 49.2072 3.564C49.2072 3.288 49.3092 3.06 49.5132 2.88C49.7292 2.688 49.9812 2.592 50.2692 2.592H52.6452V1.854C52.6452 1.614 52.7472 1.422 52.9512 1.278C53.1552 1.122 53.4012 1.044 53.6892 1.044C53.9892 1.044 54.2412 1.122 54.4452 1.278C54.6492 1.422 54.7512 1.614 54.7512 1.854V2.592H57.2352C57.5352 2.592 57.7872 2.688 57.9912 2.88C58.2072 3.06 58.3152 3.288 58.3152 3.564C58.3152 3.828 58.2072 4.056 57.9912 4.248C57.7872 4.428 57.5352 4.518 57.2352 4.518H57.1812C57.3852 4.782 57.5472 5.082 57.6672 5.418C57.7992 5.754 57.8652 6.138 57.8652 6.57C57.8652 7.134 57.7392 7.644 57.4872 8.1C57.2352 8.544 56.8812 8.94 56.4252 9.288C55.9812 9.612 55.4892 9.846 54.9492 9.99C54.9612 10.134 54.9672 10.308 54.9672 10.512C54.9792 10.716 54.9852 10.926 54.9852 11.142C54.9852 11.346 54.9852 11.532 54.9852 11.7C54.9852 11.868 54.9852 11.988 54.9852 12.06V12.078H57.3792C57.7752 12.078 58.0932 12.15 58.3332 12.294C58.4652 12.378 58.5672 12.492 58.6392 12.636C58.7112 12.768 58.7532 12.912 58.7652 13.068C58.7892 13.224 58.7832 13.38 58.7472 13.536C58.7232 13.692 58.6812 13.824 58.6212 13.932C58.5132 14.124 58.3572 14.244 58.1532 14.292C57.9492 14.328 57.7512 14.346 57.5592 14.346H50.4492C50.4492 14.346 50.4132 14.346 50.3412 14.346C50.2692 14.334 50.1852 14.322 50.0892 14.31C49.9932 14.286 49.8912 14.262 49.7832 14.238C49.6752 14.214 49.5792 14.184 49.4952 14.148C49.2432 14.016 49.0872 13.77 49.0272 13.41C49.0032 13.218 49.0152 13.038 49.0632 12.87C49.1232 12.702 49.2132 12.564 49.3332 12.456C49.5492 12.276 49.7712 12.162 49.9992 12.114C50.2392 12.066 50.4612 12.042 50.6652 12.042ZM62.6352 7.2C62.6952 7.188 62.7492 7.188 62.7972 7.2C62.8572 7.212 62.9172 7.218 62.9772 7.218C63.0492 7.23 63.1152 7.242 63.1752 7.254C63.2472 7.254 63.3192 7.26 63.3912 7.272C63.5232 7.296 63.6552 7.344 63.7872 7.416C63.9192 7.476 64.0212 7.572 64.0932 7.704C64.1652 7.848 64.2012 8.01 64.2012 8.19C64.2012 8.274 64.2012 8.358 64.2012 8.442C64.2012 8.526 64.1892 8.61 64.1652 8.694C64.1412 8.79 64.1112 8.892 64.0752 9C64.0392 9.108 63.9852 9.192 63.9132 9.252C63.7572 9.372 63.5892 9.45 63.4092 9.486C63.2172 9.51 62.9832 9.516 62.7072 9.504C62.4312 9.492 62.1972 9.492 62.0052 9.504C61.9932 9.516 61.9812 9.522 61.9692 9.522H61.9512V9.54C61.9512 9.552 61.9452 9.564 61.9332 9.576C61.9332 9.576 61.9332 9.582 61.9332 9.594C61.9212 9.894 61.9152 10.182 61.9152 10.458C61.9272 10.722 61.9332 11.01 61.9332 11.322C61.9572 11.946 61.9572 12.558 61.9332 13.158V13.41C61.9332 13.566 61.9332 13.74 61.9332 13.932C61.9332 14.112 61.9152 14.292 61.8792 14.472C61.8552 14.652 61.8132 14.826 61.7532 14.994C61.7052 15.162 61.6272 15.3 61.5192 15.408C61.3392 15.564 61.1412 15.642 60.9252 15.642H60.8892C60.6012 15.63 60.3672 15.54 60.1872 15.372C60.0192 15.216 59.8932 15.024 59.8092 14.796C59.7252 14.568 59.6712 14.334 59.6472 14.094C59.6232 13.842 59.6112 13.62 59.6112 13.428V2.736C59.6112 2.724 59.6112 2.67 59.6112 2.574C59.6112 2.466 59.6172 2.346 59.6292 2.214C59.6532 2.07 59.6892 1.926 59.7372 1.782C59.7972 1.626 59.8752 1.5 59.9712 1.404C60.0672 1.32 60.1932 1.26 60.3492 1.224C60.5052 1.176 60.6492 1.152 60.7812 1.152C61.0572 1.152 61.2852 1.242 61.4652 1.422C61.6212 1.59 61.7172 1.77 61.7532 1.962C61.7892 2.142 61.8132 2.334 61.8252 2.538C61.8372 2.574 61.8432 2.61 61.8432 2.646C61.8432 2.682 61.8492 2.724 61.8612 2.772C61.8852 2.964 61.8972 3.168 61.8972 3.384C61.8972 3.6 61.9032 3.816 61.9152 4.032C61.9152 4.164 61.9152 4.296 61.9152 4.428C61.9272 4.548 61.9332 4.674 61.9332 4.806V6.75C61.9332 6.81 61.9332 6.876 61.9332 6.948C61.9332 7.02 61.9452 7.086 61.9692 7.146C61.9692 7.158 62.0292 7.164 62.1492 7.164C62.2692 7.164 62.3412 7.17 62.3652 7.182C62.4012 7.182 62.4372 7.188 62.4732 7.2C62.5212 7.2 62.5632 7.2 62.5992 7.2H62.6352ZM54.1752 8.01C54.5592 7.938 54.8952 7.794 55.1832 7.578C55.4712 7.362 55.6152 7.026 55.6152 6.57C55.6152 6.306 55.5612 6.084 55.4532 5.904C55.3572 5.712 55.2252 5.562 55.0572 5.454C54.9012 5.334 54.7152 5.244 54.4992 5.184C54.2832 5.124 54.0672 5.094 53.8512 5.094C53.6232 5.082 53.4012 5.1 53.1852 5.148C52.9692 5.196 52.7772 5.28 52.6092 5.4C52.4412 5.508 52.3032 5.658 52.1952 5.85C52.0992 6.042 52.0512 6.282 52.0512 6.57C52.0512 6.894 52.1112 7.164 52.2312 7.38C52.3632 7.584 52.5312 7.74 52.7352 7.848C52.9392 7.956 53.1672 8.022 53.4192 8.046C53.6712 8.07 53.9232 8.058 54.1752 8.01Z" fill="white"/>
<path d="M70.5607 7.83C70.8367 7.83 71.1547 7.836 71.5147 7.848C71.8747 7.86 72.2587 7.872 72.6667 7.884C72.6787 7.776 72.6847 7.668 72.6847 7.56C72.6847 7.452 72.6847 7.338 72.6847 7.218C72.5647 7.182 72.4327 7.134 72.2887 7.074C71.9887 6.954 71.7067 6.816 71.4427 6.66C71.1787 6.504 70.9507 6.324 70.7587 6.12C70.5667 5.916 70.4107 5.676 70.2907 5.4C70.1827 5.124 70.1287 4.806 70.1287 4.446C70.1287 4.026 70.1887 3.66 70.3087 3.348H70.2727C69.9847 3.348 69.7327 3.258 69.5167 3.078C69.3127 2.886 69.2107 2.652 69.2107 2.376C69.2107 2.112 69.3127 1.89 69.5167 1.71C69.7327 1.518 69.9847 1.422 70.2727 1.422H72.6487V0.828C72.6487 0.599999 72.7507 0.407999 72.9547 0.252C73.1587 0.084 73.4047 0 73.6927 0C73.9807 0 74.2267 0.084 74.4307 0.252C74.6467 0.407999 74.7547 0.599999 74.7547 0.828V1.422H77.2387C77.5387 1.422 77.7907 1.518 77.9947 1.71C78.2107 1.89 78.3187 2.112 78.3187 2.376C78.3187 2.652 78.2107 2.886 77.9947 3.078C77.7907 3.258 77.5387 3.348 77.2387 3.348H77.2207C77.2807 3.516 77.3227 3.69 77.3467 3.87C77.3827 4.05 77.4007 4.242 77.4007 4.446C77.4007 4.95 77.2867 5.376 77.0587 5.724C76.8427 6.06 76.5247 6.378 76.1047 6.678C75.7807 6.918 75.4387 7.098 75.0787 7.218V7.236C75.0667 7.368 75.0607 7.488 75.0607 7.596C75.0607 7.704 75.0547 7.812 75.0427 7.92C75.1867 7.92 75.3067 7.92 75.4027 7.92C75.4987 7.908 75.6007 7.902 75.7087 7.902C75.8167 7.89 75.9487 7.884 76.1047 7.884C76.2607 7.884 76.4767 7.89 76.7527 7.902C76.9807 7.902 77.2027 7.902 77.4187 7.902C77.6347 7.902 77.8447 7.95 78.0487 8.046C78.3847 8.202 78.5527 8.466 78.5527 8.838C78.5527 9.138 78.4447 9.408 78.2287 9.648C78.0607 9.828 77.8507 9.93 77.5987 9.954C77.3587 9.978 77.1307 9.978 76.9147 9.954H70.5607C70.5487 9.954 70.5007 9.954 70.4167 9.954C70.3327 9.954 70.2307 9.942 70.1107 9.918C70.0027 9.894 69.8887 9.858 69.7687 9.81C69.6487 9.75 69.5527 9.666 69.4807 9.558C69.3367 9.414 69.2647 9.204 69.2647 8.928C69.2647 8.796 69.2827 8.688 69.3187 8.604C69.3667 8.508 69.4207 8.418 69.4807 8.334C69.6127 8.178 69.7867 8.064 70.0027 7.992C70.2187 7.908 70.4047 7.854 70.5607 7.83ZM71.1727 13.14V13.122C71.1607 13.122 71.1127 13.11 71.0287 13.086C70.9567 13.062 70.8727 13.026 70.7767 12.978C70.6807 12.93 70.5847 12.864 70.4887 12.78C70.4047 12.696 70.3567 12.588 70.3447 12.456C70.2847 11.988 70.3567 11.628 70.5607 11.376C70.7047 11.208 70.8607 11.112 71.0287 11.088C71.1967 11.052 71.2867 11.034 71.2987 11.034L80.4787 11.016C80.9827 11.016 81.3427 11.118 81.5587 11.322C81.7867 11.514 81.9127 11.826 81.9367 12.258V14.13C81.9607 14.394 81.9607 14.658 81.9367 14.922C81.9127 15.174 81.8107 15.378 81.6307 15.534C81.4627 15.69 81.2407 15.768 80.9647 15.768C80.9047 15.768 80.7967 15.762 80.6407 15.75C80.4967 15.75 80.3947 15.738 80.3347 15.714C80.1667 15.666 80.0347 15.594 79.9387 15.498C79.8547 15.402 79.7887 15.294 79.7407 15.174C79.6927 15.054 79.6627 14.928 79.6507 14.796C79.6387 14.652 79.6267 14.514 79.6147 14.382C79.6147 14.334 79.6087 14.25 79.5967 14.13C79.5967 14.01 79.5907 13.89 79.5787 13.77C79.5787 13.638 79.5727 13.518 79.5607 13.41C79.5607 13.29 79.5547 13.206 79.5427 13.158C79.5187 13.158 79.4407 13.158 79.3087 13.158C79.1767 13.158 79.0087 13.158 78.8047 13.158C78.6127 13.158 78.3967 13.158 78.1567 13.158C77.9167 13.146 77.6887 13.14 77.4727 13.14H71.1727ZM79.7227 3.24C79.7227 3.108 79.7227 2.958 79.7227 2.79C79.7227 2.622 79.7287 2.46 79.7407 2.304C79.7647 2.136 79.8007 1.98 79.8487 1.836C79.8967 1.692 79.9567 1.584 80.0287 1.512C80.1607 1.392 80.2927 1.32 80.4247 1.296C80.5687 1.26 80.7247 1.242 80.8927 1.242C81.0967 1.242 81.2767 1.302 81.4327 1.422C81.6007 1.53 81.7207 1.674 81.7927 1.854C81.8887 2.106 81.9427 2.364 81.9547 2.628C81.9667 2.892 81.9787 3.156 81.9907 3.42C81.9907 3.828 81.9907 4.212 81.9907 4.572C82.0027 4.932 82.0087 5.286 82.0087 5.634C82.2487 5.634 82.4707 5.64 82.6747 5.652C82.8907 5.652 83.0647 5.658 83.1967 5.67C83.3527 5.682 83.4907 5.742 83.6107 5.85C83.7427 5.958 83.8447 6.09 83.9167 6.246C83.9887 6.39 84.0247 6.546 84.0247 6.714C84.0247 6.882 83.9767 7.026 83.8807 7.146C83.7127 7.374 83.4547 7.524 83.1067 7.596C82.7707 7.656 82.4107 7.686 82.0267 7.686V8.262C82.0267 8.514 82.0087 8.712 81.9727 8.856C81.9367 8.988 81.8947 9.12 81.8467 9.252C81.8347 9.288 81.8227 9.324 81.8107 9.36C81.7987 9.396 81.7807 9.438 81.7567 9.486C81.6727 9.654 81.5647 9.78 81.4327 9.864C81.3007 9.948 81.1567 10.002 81.0007 10.026C80.8567 10.038 80.7067 10.032 80.5507 10.008C80.3827 9.96 80.2387 9.888 80.1187 9.792C80.0107 9.696 79.9267 9.576 79.8667 9.432C79.8187 9.276 79.7827 9.132 79.7587 9C79.7347 8.856 79.7227 8.736 79.7227 8.64C79.7227 8.532 79.7227 8.472 79.7227 8.46V3.24ZM74.0887 5.418C74.2567 5.382 74.4127 5.352 74.5567 5.328C74.7007 5.304 74.8207 5.262 74.9167 5.202C75.0247 5.13 75.1027 5.04 75.1507 4.932C75.2107 4.812 75.2407 4.65 75.2407 4.446C75.2407 4.062 75.1327 3.792 74.9167 3.636C74.7007 3.48 74.4427 3.384 74.1427 3.348H73.2067C72.9427 3.384 72.7207 3.48 72.5407 3.636C72.3607 3.792 72.2707 4.062 72.2707 4.446C72.2707 4.734 72.3187 4.956 72.4147 5.112C72.5227 5.268 72.6607 5.376 72.8287 5.436C73.0087 5.496 73.2067 5.52 73.4227 5.508C73.6387 5.484 73.8607 5.454 74.0887 5.418Z" fill="white"/>
<path d="M91.4106 1.62C92.1426 2.04 92.6646 2.58 92.9766 3.24C93.1326 3.564 93.2346 3.924 93.2826 4.32C93.3306 4.716 93.3426 5.16 93.3186 5.652C93.2826 6.192 93.1626 6.678 92.9586 7.11C92.7546 7.542 92.4846 7.914 92.1486 8.226C91.8246 8.526 91.4406 8.76 90.9966 8.928C90.5526 9.084 90.0786 9.162 89.5746 9.162H88.6566C88.5366 9.162 88.4166 9.162 88.2966 9.162C88.1766 9.15 88.0506 9.132 87.9186 9.108C87.7866 9.108 87.6606 9.09 87.5406 9.054C87.4206 9.018 87.2946 8.988 87.1626 8.964C87.0306 8.904 86.8986 8.838 86.7666 8.766C86.6466 8.694 86.5026 8.61 86.3346 8.514C85.7826 8.154 85.3986 7.668 85.1826 7.056C85.0866 6.78 85.0146 6.486 84.9666 6.174C84.9186 5.862 84.8946 5.556 84.8946 5.256C84.8946 4.932 84.9186 4.62 84.9666 4.32C85.0266 4.02 85.1226 3.732 85.2546 3.456C85.3506 3.168 85.4946 2.916 85.6866 2.7C85.8786 2.472 86.0946 2.256 86.3346 2.052C86.5506 1.872 86.7726 1.722 87.0006 1.602C87.2286 1.47 87.4806 1.368 87.7566 1.296C87.9966 1.2 88.2546 1.14 88.5306 1.116C88.8066 1.092 89.0706 1.092 89.3226 1.116C89.4546 1.152 89.5626 1.176 89.6466 1.188C89.7426 1.188 89.8326 1.188 89.9166 1.188C90.0126 1.212 90.0966 1.23 90.1686 1.242C90.2526 1.242 90.3306 1.26 90.4026 1.296C90.4866 1.32 90.5646 1.344 90.6366 1.368C90.7206 1.38 90.7986 1.404 90.8706 1.44C90.9426 1.464 91.0266 1.494 91.1226 1.53C91.2186 1.566 91.3146 1.596 91.4106 1.62ZM97.4226 13.428C97.5906 13.428 97.7286 13.5 97.8366 13.644C97.9446 13.788 98.0166 13.962 98.0526 14.166C98.0766 14.406 98.0646 14.604 98.0166 14.76C97.9686 14.904 97.8966 15.042 97.8006 15.174C97.6206 15.33 97.4646 15.426 97.3326 15.462C97.2726 15.462 97.2186 15.474 97.1706 15.498C97.1226 15.522 97.0566 15.534 96.9726 15.534H88.1706C87.9186 15.534 87.6966 15.528 87.5046 15.516C87.3246 15.504 87.1626 15.462 87.0186 15.39C86.8866 15.318 86.7786 15.21 86.6946 15.066C86.6226 14.934 86.5866 14.802 86.5866 14.67V10.962C86.6586 10.698 86.7786 10.5 86.9466 10.368C87.0786 10.284 87.1986 10.224 87.3066 10.188C87.4266 10.14 87.5586 10.116 87.7026 10.116C87.7266 10.116 87.7986 10.128 87.9186 10.152C88.0506 10.164 88.1346 10.17 88.1706 10.17C88.2426 10.194 88.3086 10.224 88.3686 10.26C88.4406 10.284 88.5066 10.338 88.5666 10.422C88.5906 10.47 88.6206 10.524 88.6566 10.584C88.6926 10.632 88.7226 10.692 88.7466 10.764C88.7826 10.848 88.8006 10.926 88.8006 10.998C88.8126 11.07 88.8306 11.142 88.8546 11.214V13.374H89.2146C89.2866 13.386 89.3706 13.392 89.4666 13.392C89.5506 13.404 89.6406 13.41 89.7366 13.41C89.8326 13.41 89.9406 13.41 90.0606 13.41C90.1326 13.41 90.3126 13.41 90.6006 13.41C90.9006 13.41 91.2546 13.41 91.6626 13.41C92.0826 13.398 92.5386 13.392 93.0306 13.392C93.5226 13.392 93.9906 13.392 94.4346 13.392C94.8906 13.392 95.2986 13.398 95.6586 13.41C96.0306 13.41 96.3066 13.41 96.4866 13.41H96.9366C96.9606 13.41 97.0146 13.416 97.0986 13.428C97.1826 13.428 97.2906 13.428 97.4226 13.428ZM91.1586 5.094C91.1346 4.962 91.1106 4.848 91.0866 4.752C91.0626 4.644 91.0386 4.536 91.0146 4.428C90.9546 4.332 90.9006 4.236 90.8526 4.14C90.8046 4.044 90.7386 3.96 90.6546 3.888C90.5826 3.816 90.4986 3.756 90.4026 3.708C90.3066 3.648 90.1926 3.588 90.0606 3.528C89.9046 3.492 89.7546 3.462 89.6106 3.438C89.4666 3.402 89.3166 3.384 89.1606 3.384C88.9926 3.384 88.8306 3.402 88.6746 3.438C88.5186 3.462 88.3746 3.492 88.2426 3.528C88.0986 3.612 87.9606 3.696 87.8286 3.78C87.7086 3.864 87.6006 3.972 87.5046 4.104C87.3846 4.2 87.2946 4.326 87.2346 4.482C87.1746 4.626 87.1146 4.8 87.0546 5.004C87.0546 5.136 87.0546 5.262 87.0546 5.382C87.0546 5.502 87.0666 5.628 87.0906 5.76C87.0906 5.88 87.1146 6 87.1626 6.12C87.2106 6.24 87.2706 6.348 87.3426 6.444C87.4266 6.552 87.5166 6.648 87.6126 6.732C87.7086 6.804 87.8106 6.876 87.9186 6.948C88.0506 7.02 88.1886 7.086 88.3326 7.146C88.4766 7.194 88.6506 7.23 88.8546 7.254C88.9866 7.254 89.1126 7.254 89.2326 7.254C89.3526 7.242 89.4786 7.224 89.6106 7.2C89.8506 7.2 90.0846 7.134 90.3126 7.002C90.4086 6.954 90.5046 6.894 90.6006 6.822C90.7086 6.738 90.7986 6.648 90.8706 6.552C91.0266 6.336 91.1226 6.102 91.1586 5.85V5.094ZM97.9446 8.766C97.9446 8.886 97.9326 9.006 97.9086 9.126C97.8846 9.246 97.8606 9.372 97.8366 9.504C97.7286 9.888 97.4766 10.122 97.0806 10.206C96.6966 10.29 96.3846 10.206 96.1446 9.954C95.9166 9.702 95.7786 9.402 95.7306 9.054C95.7066 8.958 95.6886 8.862 95.6766 8.766C95.6766 8.658 95.6766 8.556 95.6766 8.46V7.848L95.7306 3.204C95.7306 3.036 95.7246 2.856 95.7126 2.664C95.7126 2.46 95.7246 2.268 95.7486 2.088C95.7846 1.896 95.8506 1.722 95.9466 1.566C96.0426 1.41 96.1926 1.284 96.3966 1.188C96.4926 1.128 96.5946 1.098 96.7026 1.098C96.8226 1.086 96.9486 1.092 97.0806 1.116C97.3566 1.152 97.5606 1.266 97.6926 1.458C97.8366 1.65 97.9206 1.872 97.9446 2.124V8.766Z" fill="white"/>
</svg>
