<svg width="118" height="26" viewBox="0 0 118 26" fill="none" xmlns="http://www.w3.org/2000/svg">
<g filter="url(#filter0_d_194_9)">
<path d="M6.06058 9.93396C5.97658 9.96996 5.89258 9.99396 5.80858 10.006C5.72458 10.006 5.62258 9.95196 5.50258 9.84396L5.10658 9.46596C5.08258 9.40596 5.10058 9.35796 5.16058 9.32196C5.18458 9.30996 5.20258 9.29796 5.21458 9.28596C6.15058 8.86596 6.91258 8.40396 7.50058 7.89996C8.08858 7.39596 8.53858 6.88596 8.85058 6.36996C9.16258 5.85396 9.36658 5.36796 9.46258 4.91196C9.22258 4.92396 8.98858 4.93596 8.76058 4.94796C8.54458 4.94796 8.35258 4.95996 8.18458 4.98396L6.22258 5.14596C6.10258 5.15796 6.02458 5.14596 5.98858 5.10996C5.95258 5.06196 5.92258 5.00796 5.89858 4.94796C5.88658 4.93596 5.88058 4.92396 5.88058 4.91196C5.83258 4.77996 5.80258 4.67796 5.79058 4.60596C5.77858 4.52196 5.74258 4.38396 5.68258 4.19196C5.67058 4.16796 5.67058 4.13796 5.68258 4.10196C5.70658 4.06596 5.74858 4.04796 5.80858 4.04796C6.14458 4.07196 6.46258 4.08996 6.76258 4.10196C7.07458 4.11396 7.51858 4.11996 8.09458 4.11996C8.70658 4.09596 9.36658 4.07196 10.0746 4.04796C10.7826 4.02396 11.4666 3.98796 12.1266 3.93996C12.7866 3.87996 13.3446 3.81396 13.8006 3.74196C13.8366 3.72996 13.8786 3.73596 13.9266 3.75996C13.9746 3.77196 14.0046 3.80796 14.0166 3.86796L14.0886 4.37196C14.1006 4.41996 14.1066 4.46796 14.1066 4.51596C14.1066 4.56396 14.1066 4.61196 14.1066 4.65996C14.1306 4.79196 14.0586 4.85796 13.8906 4.85796C13.6626 4.84596 13.3926 4.83996 13.0806 4.83996C12.7686 4.83996 12.4926 4.83996 12.2526 4.83996C12.0486 4.83996 11.8146 4.84596 11.5506 4.85796C11.2866 4.85796 11.0166 4.86396 10.7406 4.87596C10.6806 5.10396 10.6026 5.33796 10.5066 5.57796C10.4106 5.80596 10.2966 6.03996 10.1646 6.27996C10.9566 6.66396 11.6886 7.03596 12.3606 7.39596C13.0446 7.74396 13.5966 8.05596 14.0166 8.33196C14.0766 8.37996 14.1306 8.43996 14.1786 8.51196C14.2386 8.57196 14.2506 8.64396 14.2146 8.72796C14.1546 8.85996 14.0766 8.98596 13.9806 9.10596C13.8966 9.22596 13.8066 9.35196 13.7106 9.48396C13.6386 9.56796 13.5786 9.57396 13.5306 9.50196C12.9546 8.97396 12.3426 8.49996 11.6946 8.07996C11.0586 7.64796 10.4106 7.26396 9.75058 6.92796C9.36658 7.44396 8.87458 7.95996 8.27458 8.47596C7.68658 8.97996 6.94858 9.46596 6.06058 9.93396ZM16.1046 16.18C16.0566 16.18 16.0326 16.15 16.0326 16.09V3.09396C16.0326 2.63796 16.0146 2.21796 15.9786 1.83396C15.9546 1.43796 15.9126 1.17996 15.8526 1.05996C15.8286 0.999962 15.8286 0.957962 15.8526 0.933962C15.8886 0.897962 15.9306 0.879962 15.9786 0.879962C16.0506 0.879962 16.1706 0.885962 16.3386 0.897961C16.5186 0.897961 16.6926 0.903961 16.8606 0.915961C17.0286 0.915961 17.1246 0.915961 17.1486 0.915961C17.2086 0.915961 17.2386 0.963961 17.2386 1.05996C17.2026 1.50396 17.1786 1.89396 17.1666 2.22996C17.1666 2.55396 17.1666 2.93196 17.1666 3.36396V15.73C17.1666 15.91 17.1546 16.018 17.1306 16.054C17.1186 16.09 17.0826 16.114 17.0226 16.126L16.1046 16.18ZM4.87258 13.012C4.74058 13.024 4.65658 13.018 4.62058 12.994C4.58458 12.97 4.54858 12.904 4.51258 12.796C4.46458 12.664 4.42258 12.544 4.38658 12.436C4.36258 12.316 4.32658 12.154 4.27858 11.95C4.26658 11.926 4.27258 11.896 4.29658 11.86C4.32058 11.824 4.36258 11.812 4.42258 11.824C4.66258 11.872 5.10658 11.896 5.75458 11.896C6.41458 11.896 7.13458 11.884 7.91458 11.86C8.13058 11.848 8.36458 11.836 8.61658 11.824C8.86858 11.812 9.13258 11.8 9.40858 11.788V11.104C9.40858 10.636 9.39058 10.252 9.35458 9.95196C9.31858 9.65196 9.27658 9.44196 9.22858 9.32196C9.18058 9.20196 9.22258 9.14196 9.35458 9.14196H10.4346C10.5066 9.14196 10.5426 9.18996 10.5426 9.28596C10.5426 9.29796 10.5426 9.30996 10.5426 9.32196C10.5186 9.63396 10.5066 9.90996 10.5066 10.15C10.5066 10.39 10.4946 10.666 10.4706 10.978L10.4346 11.716C11.2626 11.644 12.1026 11.548 12.9546 11.428C13.8186 11.296 14.5626 11.14 15.1866 10.96C15.2706 10.924 15.3246 10.954 15.3486 11.05L15.4386 11.554C15.4626 11.662 15.4506 11.734 15.4026 11.77C15.3666 11.806 15.3126 11.836 15.2406 11.86C15.0366 11.92 14.7246 11.992 14.3046 12.076C13.8966 12.148 13.4226 12.226 12.8826 12.31C12.3546 12.382 11.8026 12.454 11.2266 12.526C10.6626 12.586 10.1166 12.64 9.58858 12.688C9.06058 12.736 8.59858 12.772 8.20258 12.796C7.55458 12.832 6.93658 12.868 6.34858 12.904C5.76058 12.94 5.26858 12.976 4.87258 13.012ZM9.58858 2.73396C9.42058 2.70996 9.19258 2.67996 8.90458 2.64396C8.61658 2.60796 8.33458 2.55396 8.05858 2.48196C7.78258 2.40996 7.56058 2.30796 7.39258 2.17596C7.34458 2.13996 7.33258 2.06796 7.35658 1.95996C7.38058 1.83996 7.42258 1.73196 7.48258 1.63596C7.54258 1.52796 7.60258 1.48596 7.66258 1.50996C8.17858 1.60596 8.74258 1.67196 9.35458 1.70796C9.96658 1.73196 10.5486 1.73796 11.1006 1.72596C11.6526 1.70196 12.0966 1.67796 12.4326 1.65396C12.5286 1.64196 12.5886 1.64796 12.6126 1.67196C12.6366 1.68396 12.6546 1.71996 12.6666 1.77996C12.6666 1.79196 12.6666 1.80996 12.6666 1.83396C12.6666 1.94196 12.6606 2.09196 12.6486 2.28396C12.6366 2.46396 12.5946 2.56596 12.5226 2.58996C12.4386 2.61396 12.2406 2.64396 11.9286 2.67996C11.6166 2.71596 11.2506 2.73996 10.8306 2.75196C10.4106 2.76396 9.99658 2.75796 9.58858 2.73396Z" fill="black"/>
<path d="M20.9265 9.77196C20.7945 9.78396 20.7045 9.77196 20.6565 9.73596C20.6085 9.69996 20.5725 9.64596 20.5485 9.57396C20.5005 9.44196 20.4585 9.30996 20.4225 9.17796C20.3865 9.04596 20.3445 8.87796 20.2965 8.67396C20.2845 8.64996 20.2905 8.61996 20.3145 8.58396C20.3385 8.53596 20.3805 8.51796 20.4405 8.52996C20.8965 8.58996 21.5205 8.63796 22.3125 8.67396C23.1045 8.69796 23.9745 8.70396 24.9225 8.69196C25.6545 8.69196 26.4345 8.68596 27.2625 8.67396C28.0905 8.64996 28.9125 8.62596 29.7285 8.60196C30.5565 8.56596 31.3365 8.52996 32.0685 8.49396C32.8125 8.45796 33.4665 8.41596 34.0305 8.36796C34.6065 8.31996 35.0505 8.26596 35.3625 8.20596C35.4825 8.18196 35.5605 8.18796 35.5965 8.22396C35.6325 8.25996 35.6565 8.30796 35.6685 8.36796L35.7765 9.15996C35.7885 9.32796 35.6745 9.40596 35.4345 9.39396C35.0625 9.36996 34.5585 9.35796 33.9225 9.35796C33.2985 9.35796 32.6205 9.36396 31.8885 9.37596C31.2405 9.37596 30.5745 9.38796 29.8905 9.41196C29.2185 9.42396 28.5825 9.43596 27.9825 9.44796C27.3945 9.45996 26.8845 9.47196 26.4525 9.48396C25.2405 9.51996 24.1485 9.56196 23.1765 9.60996C22.2045 9.65796 21.4545 9.71196 20.9265 9.77196ZM30.8985 7.17996C30.7905 7.17996 30.7545 7.11996 30.7905 6.99996C30.8865 6.66396 30.9885 6.23196 31.0965 5.70396C31.2165 5.16396 31.3245 4.61196 31.4205 4.04796C31.5165 3.48396 31.5765 2.99796 31.6005 2.58996C31.6125 2.45796 31.5525 2.39196 31.4205 2.39196C31.1565 2.39196 30.7965 2.39796 30.3405 2.40996C29.8965 2.42196 29.4165 2.43396 28.9005 2.44596C28.3965 2.45796 27.9165 2.46996 27.4605 2.48196C27.0165 2.49396 26.6685 2.50596 26.4165 2.51796C26.2245 2.51796 25.9785 2.52996 25.6785 2.55396C25.3785 2.57796 25.0785 2.60196 24.7785 2.62596C24.4785 2.64996 24.2325 2.67396 24.0405 2.69796C23.9085 2.70996 23.8245 2.70396 23.7885 2.67996C23.7525 2.64396 23.7165 2.57796 23.6805 2.48196C23.6805 2.46996 23.6805 2.46396 23.6805 2.46396C23.6445 2.36796 23.6085 2.25996 23.5725 2.13996C23.5365 2.01996 23.4945 1.87596 23.4465 1.70796C23.4345 1.68396 23.4405 1.65396 23.4645 1.61796C23.4885 1.58196 23.5305 1.56996 23.5905 1.58196C23.9265 1.60596 24.3705 1.62396 24.9225 1.63596C25.4745 1.64796 26.0745 1.64796 26.7225 1.63596C27.3705 1.62396 28.0125 1.60596 28.6485 1.58196C29.2845 1.55796 29.8605 1.52796 30.3765 1.49196C30.8925 1.44396 31.2885 1.38996 31.5645 1.32996C31.6605 1.30596 31.7565 1.30596 31.8525 1.32996L32.8605 1.54596C32.9685 1.55796 33.0105 1.62396 32.9865 1.74396C32.9505 1.92396 32.9025 2.16396 32.8425 2.46396C32.7825 2.75196 32.7345 2.99796 32.6985 3.20196C32.6265 3.62196 32.5425 4.06596 32.4465 4.53396C32.3505 4.98996 32.2605 5.40996 32.1765 5.79396C32.0925 6.16596 32.0205 6.44196 31.9605 6.62196C31.9125 6.78996 31.8645 6.91596 31.8165 6.99996C31.7805 7.07196 31.6965 7.11396 31.5645 7.12596L30.8985 7.17996ZM25.4085 16.9C24.9885 16.9 24.6705 16.738 24.4545 16.414C24.2385 16.09 24.1305 15.682 24.1305 15.19V13.678C24.1305 13.258 24.1065 12.91 24.0585 12.634C24.0225 12.358 23.9865 12.16 23.9505 12.04C23.9145 11.92 23.9565 11.86 24.0765 11.86C24.1365 11.86 24.2505 11.866 24.4185 11.878C24.5985 11.878 24.7665 11.884 24.9225 11.896C25.0905 11.908 25.1865 11.914 25.2105 11.914C25.2705 11.926 25.3005 11.986 25.3005 12.094C25.2885 12.37 25.2765 12.616 25.2645 12.832C25.2645 13.036 25.2645 13.294 25.2645 13.606V15.136C25.2645 15.448 25.3005 15.664 25.3725 15.784C25.4565 15.892 25.6125 15.952 25.8405 15.964C26.1765 15.976 26.6025 15.988 27.1185 16C27.6345 16 28.1685 15.994 28.7205 15.982C29.2845 15.97 29.8065 15.952 30.2865 15.928C30.7905 15.904 31.3005 15.868 31.8165 15.82C32.3445 15.76 32.7585 15.7 33.0585 15.64C33.1785 15.616 33.2565 15.622 33.2925 15.658C33.3285 15.694 33.3525 15.742 33.3645 15.802L33.5085 16.612C33.5205 16.744 33.4305 16.81 33.2385 16.81C32.0505 16.81 30.7965 16.822 29.4765 16.846C28.1685 16.882 26.8125 16.9 25.4085 16.9Z" fill="black"/>
<path d="M50.816 7.71996C50.072 7.74396 49.382 7.61796 48.746 7.34196C48.11 7.06596 47.6 6.67596 47.216 6.17196C46.832 5.65596 46.628 5.06796 46.604 4.40796C46.604 3.77196 46.796 3.20196 47.18 2.69796C47.576 2.18196 48.092 1.76796 48.728 1.45596C49.376 1.14396 50.078 0.975962 50.834 0.951962C51.686 0.915962 52.424 1.02996 53.048 1.29396C53.684 1.55796 54.176 1.94196 54.524 2.44596C54.884 2.94996 55.064 3.55596 55.064 4.26396C55.064 4.92396 54.866 5.51196 54.47 6.02796C54.086 6.54396 53.57 6.95196 52.922 7.25196C52.274 7.53996 51.572 7.69596 50.816 7.71996ZM50.852 6.81996C51.74 6.78396 52.454 6.53196 52.994 6.06396C53.546 5.58396 53.834 4.97796 53.858 4.24596C53.858 3.44196 53.576 2.83596 53.012 2.42796C52.46 2.01996 51.734 1.81596 50.834 1.81596C50.258 1.81596 49.742 1.93596 49.286 2.17596C48.83 2.40396 48.464 2.70996 48.188 3.09396C47.924 3.47796 47.792 3.90396 47.792 4.37196C47.792 4.87596 47.924 5.31996 48.188 5.70396C48.464 6.07596 48.83 6.35796 49.286 6.54996C49.754 6.74196 50.276 6.83196 50.852 6.81996ZM50.474 16.216C50.426 16.216 50.402 16.186 50.402 16.126V10.564C48.962 10.588 47.654 10.63 46.478 10.69C45.302 10.738 44.378 10.792 43.706 10.852C43.574 10.864 43.484 10.852 43.436 10.816C43.388 10.78 43.352 10.726 43.328 10.654C43.28 10.522 43.238 10.39 43.202 10.258C43.166 10.114 43.124 9.93996 43.076 9.73596C43.064 9.71196 43.07 9.68196 43.094 9.64596C43.118 9.59796 43.16 9.57996 43.22 9.59196C43.676 9.65196 44.294 9.69396 45.074 9.71796C45.866 9.72996 46.736 9.73596 47.684 9.73596C48.608 9.73596 49.58 9.72396 50.6 9.69996C51.632 9.67596 52.634 9.64596 53.606 9.60996C54.578 9.57396 55.442 9.52596 56.198 9.46596C56.966 9.40596 57.548 9.33996 57.944 9.26796C58.064 9.24396 58.142 9.24996 58.178 9.28596C58.214 9.32196 58.238 9.36996 58.25 9.42996L58.358 10.294C58.358 10.354 58.34 10.408 58.304 10.456C58.268 10.504 58.172 10.528 58.016 10.528C57.608 10.516 57.134 10.51 56.594 10.51C56.054 10.51 55.478 10.51 54.866 10.51C54.302 10.51 53.744 10.516 53.192 10.528C52.64 10.528 52.094 10.534 51.554 10.546V15.766C51.554 15.946 51.542 16.054 51.518 16.09C51.506 16.126 51.47 16.15 51.41 16.162C51.362 16.162 51.272 16.162 51.14 16.162C51.008 16.174 50.876 16.186 50.744 16.198C50.612 16.21 50.522 16.216 50.474 16.216Z" fill="black"/>
<path d="M64.9898 17.08C64.6178 17.068 64.3298 16.948 64.1258 16.72C63.9338 16.492 63.8378 16.12 63.8378 15.604V14.866C63.8378 14.494 63.7718 14.128 63.6398 13.768C63.6158 13.732 63.6218 13.684 63.6578 13.624C63.6938 13.564 63.7538 13.54 63.8378 13.552C63.9698 13.564 64.2518 13.576 64.6838 13.588C65.1278 13.6 65.6498 13.606 66.2498 13.606C66.8498 13.606 67.4618 13.6 68.0858 13.588C68.7218 13.576 69.3038 13.558 69.8318 13.534C70.3718 13.51 70.7858 13.48 71.0738 13.444L71.1098 12.076C71.1098 11.944 71.0498 11.878 70.9298 11.878C70.6658 11.878 70.2998 11.884 69.8318 11.896C69.3638 11.908 68.8658 11.92 68.3378 11.932C67.8098 11.944 67.3058 11.962 66.8258 11.986C66.3458 11.998 65.9558 12.01 65.6558 12.022L64.0538 12.094C63.9458 12.106 63.8678 12.1 63.8198 12.076C63.7718 12.04 63.7358 11.968 63.7118 11.86L63.5858 11.23C63.5738 11.206 63.5798 11.176 63.6038 11.14C63.6278 11.104 63.6698 11.092 63.7298 11.104C64.0058 11.128 64.4798 11.146 65.1518 11.158C65.8238 11.17 66.5558 11.17 67.3478 11.158L67.3298 9.17796C67.1258 9.18996 66.9338 9.20196 66.7538 9.21396C66.5738 9.21396 66.3998 9.21396 66.2318 9.21396C65.0198 9.24996 63.9278 9.29196 62.9558 9.33996C61.9838 9.38796 61.2338 9.44196 60.7058 9.50196C60.5738 9.51396 60.4838 9.50196 60.4358 9.46596C60.3878 9.42996 60.3518 9.37596 60.3278 9.30396C60.2798 9.17196 60.2378 9.03996 60.2018 8.90796C60.1658 8.77596 60.1238 8.60796 60.0758 8.40396C60.0638 8.37996 60.0698 8.34996 60.0938 8.31396C60.1178 8.26596 60.1598 8.24796 60.2198 8.25996C60.6758 8.31996 61.2998 8.36796 62.0918 8.40396C62.8838 8.42796 63.7538 8.43396 64.7018 8.42196C65.4338 8.42196 66.2138 8.41596 67.0418 8.40396C67.8698 8.37996 68.6918 8.35596 69.5078 8.33196C70.3358 8.29596 71.1158 8.25996 71.8478 8.22396C72.5918 8.18796 73.2458 8.14596 73.8098 8.09796C74.3858 8.04996 74.8298 7.99596 75.1418 7.93596C75.2618 7.91196 75.3398 7.91796 75.3758 7.95396C75.4118 7.98996 75.4358 8.03796 75.4478 8.09796L75.5558 8.88996C75.5678 9.05796 75.4538 9.13596 75.2138 9.12396C74.8418 9.09996 74.3378 9.08796 73.7018 9.08796C73.0778 9.08796 72.3998 9.09396 71.6678 9.10596L68.4818 9.15996V10.438C68.4818 10.57 68.4758 10.696 68.4638 10.816C68.4638 10.924 68.4578 11.032 68.4458 11.14C69.4778 11.104 70.3538 11.038 71.0738 10.942C71.0978 10.942 71.1218 10.936 71.1458 10.924C71.2298 10.912 71.2958 10.912 71.3438 10.924L72.2618 11.05C72.3338 11.062 72.3698 11.116 72.3698 11.212C72.3098 11.74 72.2618 12.214 72.2258 12.634C72.2018 13.042 72.1718 13.51 72.1358 14.038C72.1238 14.158 72.0998 14.236 72.0638 14.272C72.0278 14.308 71.9558 14.326 71.8478 14.326C71.4398 14.326 70.9358 14.332 70.3358 14.344C69.7478 14.344 69.1238 14.35 68.4638 14.362C67.8038 14.362 67.1678 14.368 66.5558 14.38C65.9438 14.392 65.4158 14.41 64.9718 14.434V15.532C64.9718 15.808 64.9898 15.976 65.0258 16.036C65.0618 16.108 65.1818 16.15 65.3858 16.162C66.1658 16.186 66.9818 16.192 67.8338 16.18C68.6858 16.168 69.5018 16.138 70.2818 16.09C70.7858 16.066 71.2418 16.03 71.6498 15.982C72.0578 15.934 72.4118 15.874 72.7118 15.802C72.8318 15.778 72.9098 15.784 72.9458 15.82C72.9818 15.856 73.0058 15.904 73.0178 15.964L73.1258 16.756C73.1258 16.816 73.1018 16.87 73.0538 16.918C73.0178 16.966 72.9158 16.99 72.7478 16.99C71.4758 16.99 70.1618 16.996 68.8058 17.008C67.4498 17.032 66.1778 17.056 64.9898 17.08ZM67.8518 6.89196C67.0958 6.90396 66.4058 6.79596 65.7818 6.56796C65.1698 6.32796 64.6778 5.97396 64.3058 5.50596C63.9458 5.03796 63.7658 4.47996 63.7658 3.83196C63.7658 3.21996 63.9458 2.68596 64.3058 2.22996C64.6778 1.76196 65.1758 1.39596 65.7998 1.13196C66.4238 0.855962 67.1138 0.711962 67.8698 0.699962C68.6378 0.675961 69.3338 0.777961 69.9578 1.00596C70.5818 1.22196 71.0738 1.55796 71.4338 2.01396C71.8058 2.45796 71.9798 3.01596 71.9558 3.68796C71.9438 4.32396 71.7578 4.88196 71.3978 5.36196C71.0378 5.82996 70.5518 6.19596 69.9398 6.45996C69.3398 6.72396 68.6438 6.86796 67.8518 6.89196ZM67.8698 6.00996C68.7338 5.98596 69.4238 5.77596 69.9398 5.37996C70.4678 4.97196 70.7438 4.40196 70.7678 3.66996C70.7918 2.92596 70.5218 2.37996 69.9578 2.03196C69.4058 1.67196 68.7038 1.50396 67.8518 1.52796C67.0118 1.55196 66.3098 1.76796 65.7458 2.17596C65.1938 2.58396 64.9178 3.12396 64.9178 3.79596C64.9178 4.53996 65.1878 5.10396 65.7278 5.48796C66.2798 5.85996 66.9938 6.03396 67.8698 6.00996Z" fill="black"/>
<path d="M83.1073 12.022C83.0473 11.974 82.9633 11.914 82.8553 11.842C82.7593 11.758 82.6813 11.686 82.6213 11.626C82.5493 11.542 82.5553 11.476 82.6393 11.428C83.8393 10.576 84.7813 9.68796 85.4653 8.76396C86.1613 7.83996 86.6593 6.93996 86.9593 6.06396C87.2713 5.17596 87.4513 4.38396 87.4993 3.68796C87.1873 3.71196 86.9173 3.72996 86.6893 3.74196C86.4613 3.75396 86.3053 3.75996 86.2213 3.75996L84.2413 3.93996C84.1213 3.95196 84.0433 3.93996 84.0073 3.90396C83.9713 3.85596 83.9413 3.80196 83.9173 3.74196C83.9053 3.72996 83.8993 3.71796 83.8993 3.70596C83.8513 3.57396 83.8153 3.45996 83.7913 3.36396C83.7793 3.25596 83.7493 3.09996 83.7013 2.89596C83.6893 2.81196 83.7373 2.76996 83.8453 2.76996C84.1813 2.79396 84.4933 2.81196 84.7813 2.82396C85.0813 2.82396 85.5193 2.82396 86.0953 2.82396C86.7433 2.82396 87.3253 2.81196 87.8413 2.78796C88.3693 2.76396 88.8553 2.73396 89.2993 2.69796C89.7673 2.66196 90.1453 2.63196 90.4333 2.60796C90.7333 2.58396 90.9913 2.55996 91.2073 2.53596C91.4353 2.49996 91.6753 2.46996 91.9273 2.44596C91.9633 2.44596 92.0053 2.45196 92.0533 2.46396C92.1013 2.47596 92.1313 2.51196 92.1433 2.57196C92.1553 2.64396 92.1673 2.72796 92.1793 2.82396C92.2033 2.91996 92.2213 3.01596 92.2333 3.11196L92.2693 3.43596C92.2933 3.56796 92.2213 3.63396 92.0533 3.63396C91.8253 3.62196 91.5673 3.61596 91.2793 3.61596C91.0033 3.61596 90.7453 3.61596 90.5053 3.61596C90.3013 3.61596 90.0553 3.62196 89.7673 3.63396C89.4913 3.63396 89.1913 3.63996 88.8673 3.65196C88.7953 4.61196 88.5073 5.64396 88.0033 6.74796C88.5793 7.15596 89.1553 7.58796 89.7313 8.04396C90.3073 8.48796 90.8293 8.91396 91.2973 9.32196C91.7653 9.71796 92.1253 10.06 92.3773 10.348C92.4253 10.408 92.4613 10.48 92.4853 10.564C92.5213 10.636 92.5093 10.714 92.4493 10.798C92.3413 10.93 92.2153 11.05 92.0713 11.158C91.9393 11.254 91.8073 11.356 91.6753 11.464C91.6033 11.524 91.5433 11.512 91.4953 11.428C91.3273 11.164 91.0933 10.858 90.7933 10.51C90.5053 10.162 90.1753 9.80796 89.8033 9.44796C89.4433 9.07596 89.0713 8.72196 88.6873 8.38596C88.3153 8.04996 87.9613 7.75596 87.6253 7.50396C87.2053 8.25996 86.6713 9.01596 86.0233 9.77196C85.3753 10.528 84.5953 11.254 83.6833 11.95C83.6713 11.962 83.6533 11.974 83.6293 11.986C83.5453 12.046 83.4673 12.088 83.3953 12.112C83.3233 12.124 83.2273 12.094 83.1073 12.022ZM94.2133 16.18C94.1653 16.18 94.1413 16.15 94.1413 16.09V3.09396C94.1413 2.63796 94.1233 2.21796 94.0873 1.83396C94.0633 1.43796 94.0213 1.17996 93.9613 1.05996C93.9373 0.999962 93.9373 0.957962 93.9613 0.933962C93.9973 0.897962 94.0393 0.879962 94.0873 0.879962C94.1593 0.879962 94.2793 0.885962 94.4473 0.897961C94.6273 0.897961 94.8013 0.903961 94.9693 0.915961C95.1373 0.915961 95.2333 0.915961 95.2573 0.915961C95.3173 0.915961 95.3473 0.963961 95.3473 1.05996C95.3113 1.50396 95.2873 1.89396 95.2753 2.22996C95.2753 2.55396 95.2753 2.93196 95.2753 3.36396V15.73C95.2753 15.91 95.2633 16.018 95.2393 16.054C95.2273 16.09 95.1913 16.114 95.1313 16.126L94.2133 16.18Z" fill="black"/>
<path d="M105.74 16.216C105.692 16.216 105.668 16.186 105.668 16.126V10.312C104.228 10.336 102.92 10.378 101.744 10.438C100.568 10.486 99.6437 10.54 98.9717 10.6C98.8397 10.612 98.7497 10.6 98.7017 10.564C98.6537 10.528 98.6177 10.474 98.5937 10.402C98.5457 10.27 98.5037 10.138 98.4677 10.006C98.4317 9.86196 98.3897 9.68796 98.3417 9.48396C98.3297 9.45996 98.3357 9.42996 98.3597 9.39396C98.3837 9.34596 98.4257 9.32796 98.4857 9.33996C98.9417 9.39996 99.5597 9.44196 100.34 9.46596C101.132 9.47796 102.002 9.48396 102.95 9.48396C103.874 9.48396 104.846 9.47196 105.866 9.44796C106.898 9.42396 107.9 9.39396 108.872 9.35796C109.844 9.32196 110.708 9.27396 111.464 9.21396C112.232 9.15396 112.814 9.08796 113.21 9.01596C113.33 8.99196 113.408 8.99796 113.444 9.03396C113.48 9.06996 113.504 9.11796 113.516 9.17796L113.624 10.042C113.624 10.102 113.606 10.156 113.57 10.204C113.534 10.252 113.438 10.276 113.282 10.276C112.874 10.264 112.4 10.258 111.86 10.258C111.32 10.258 110.744 10.258 110.132 10.258C109.568 10.258 109.01 10.264 108.458 10.276C107.906 10.276 107.36 10.282 106.82 10.294V15.766C106.82 15.946 106.808 16.054 106.784 16.09C106.772 16.126 106.736 16.15 106.676 16.162C106.628 16.162 106.538 16.162 106.406 16.162C106.274 16.174 106.142 16.186 106.01 16.198C105.878 16.21 105.788 16.216 105.74 16.216ZM100.862 7.71996C100.862 7.71996 100.856 7.71996 100.844 7.71996C100.772 7.74396 100.688 7.76196 100.592 7.77396C100.496 7.78596 100.4 7.72596 100.304 7.59396L99.9437 7.19796C99.9077 7.13796 99.9017 7.10196 99.9257 7.08996C99.9617 7.06596 99.9977 7.04796 100.034 7.03596C100.046 7.03596 100.052 7.03596 100.052 7.03596C100.856 6.74796 101.594 6.38196 102.266 5.93796C102.938 5.49396 103.532 5.01996 104.048 4.51596C104.576 3.99996 105.002 3.50196 105.326 3.02196C105.53 2.69796 105.698 2.36196 105.83 2.01396C105.974 1.66596 106.064 1.37796 106.1 1.14996C106.136 1.04196 106.214 1.01196 106.334 1.05996L107.414 1.54596C107.522 1.59396 107.54 1.66596 107.468 1.76196C107.348 1.98996 107.174 2.28396 106.946 2.64396C106.718 2.99196 106.502 3.30396 106.298 3.57996C106.97 3.83196 107.642 4.10196 108.314 4.38996C108.986 4.66596 109.61 4.94196 110.186 5.21796C110.774 5.48196 111.26 5.72796 111.644 5.95596C111.704 5.99196 111.764 6.04596 111.824 6.11796C111.884 6.17796 111.896 6.25596 111.86 6.35196C111.8 6.48396 111.734 6.62796 111.662 6.78396C111.59 6.92796 111.506 7.07196 111.41 7.21596C111.362 7.29996 111.302 7.31196 111.23 7.25196C110.954 7.01196 110.594 6.75396 110.15 6.47796C109.706 6.18996 109.22 5.90796 108.692 5.63196C108.176 5.34396 107.66 5.08596 107.144 4.85796C106.628 4.61796 106.166 4.42596 105.758 4.28196C105.398 4.71396 104.954 5.14596 104.426 5.57796C103.91 6.00996 103.346 6.41196 102.734 6.78396C102.134 7.14396 101.51 7.45596 100.862 7.71996Z" fill="black"/>
</g>
<defs>
<filter id="filter0_d_194_9" x="0.272583" y="0.696533" width="117.351" height="24.3834" filterUnits="userSpaceOnUse" color-interpolation-filters="sRGB">
<feFlood flood-opacity="0" result="BackgroundImageFix"/>
<feColorMatrix in="SourceAlpha" type="matrix" values="0 0 0 0 0 0 0 0 0 0 0 0 0 0 0 0 0 0 127 0" result="hardAlpha"/>
<feOffset dy="4"/>
<feGaussianBlur stdDeviation="2"/>
<feComposite in2="hardAlpha" operator="out"/>
<feColorMatrix type="matrix" values="0 0 0 0 0 0 0 0 0 0 0 0 0 0 0 0 0 0 0.25 0"/>
<feBlend mode="normal" in2="BackgroundImageFix" result="effect1_dropShadow_194_9"/>
<feBlend mode="normal" in="SourceGraphic" in2="effect1_dropShadow_194_9" result="shape"/>
</filter>
</defs>
</svg>
