<svg width="34" height="13" viewBox="0 0 34 13" fill="none" xmlns="http://www.w3.org/2000/svg">
<path d="M4.30586 3.40489C4.08586 3.40489 3.85086 3.45489 3.60086 3.55489C3.36086 3.64489 3.18586 3.82489 3.07586 4.09489C3.04586 4.17489 3.02086 4.22489 3.00086 4.24489C2.98086 4.26489 2.91586 4.27489 2.80586 4.27489C2.22586 4.27489 1.80586 4.16989 1.54586 3.95989C1.28586 3.74989 1.15586 3.46989 1.15586 3.11989C1.15586 2.82989 1.24086 2.56489 1.41086 2.32489C1.59086 2.08489 1.83086 1.87989 2.13086 1.70989C2.44086 1.53989 2.80086 1.40989 3.21086 1.31989C3.63086 1.22989 4.08586 1.18489 4.57586 1.18489C5.21586 1.18489 5.74586 1.26489 6.16586 1.42489C6.58586 1.57489 6.91586 1.77489 7.15586 2.02489C7.40586 2.26489 7.57586 2.54489 7.66586 2.86489C7.76586 3.18489 7.81586 3.50989 7.81586 3.83989C7.81586 4.33989 7.71086 4.78489 7.50086 5.17489C7.30086 5.55489 6.94586 5.90489 6.43586 6.22489C6.88586 6.44489 7.22086 6.71489 7.44086 7.03489C7.67086 7.35489 7.78586 7.75489 7.78586 8.23489C7.78586 8.64489 7.70086 9.07989 7.53086 9.53989C7.36086 9.99989 7.08586 10.4249 6.70586 10.8149C6.32586 11.1949 5.82586 11.5149 5.20586 11.7749C4.59586 12.0249 3.84586 12.1499 2.95586 12.1499C2.44586 12.1499 2.01086 12.0999 1.65086 11.9999C1.29086 11.9099 0.995864 11.7849 0.765864 11.6249C0.545864 11.4649 0.385864 11.2749 0.285864 11.0549C0.185864 10.8349 0.135864 10.5999 0.135864 10.3499C0.135864 9.86989 0.295864 9.51489 0.615864 9.28489C0.945864 9.05489 1.39086 8.93989 1.95086 8.93989C2.09086 8.93989 2.16586 8.94989 2.17586 8.96989C2.19586 8.98989 2.21586 9.03989 2.23586 9.11989C2.27586 9.26989 2.34086 9.38989 2.43086 9.47989C2.52086 9.56989 2.62086 9.63989 2.73086 9.68989C2.85086 9.73989 2.97086 9.77489 3.09086 9.79489C3.21086 9.80489 3.32086 9.80989 3.42086 9.80989C3.74086 9.80989 4.00086 9.75489 4.20086 9.64489C4.41086 9.53489 4.57086 9.40489 4.68086 9.25489C4.80086 9.10489 4.88086 8.94489 4.92086 8.77489C4.97086 8.60489 4.99586 8.45989 4.99586 8.33989C4.99586 8.01989 4.89086 7.78489 4.68086 7.63489C4.48086 7.47489 4.26586 7.38989 4.03586 7.37989L1.89086 7.28989C1.73086 7.28989 1.65086 7.21989 1.65086 7.07989L1.69586 6.65989C1.72586 6.34989 1.81586 6.10989 1.96586 5.93989C2.11586 5.76989 2.41086 5.67489 2.85086 5.65489L4.20086 5.59489C4.53086 5.57489 4.79086 5.46489 4.98086 5.26489C5.18086 5.05489 5.28086 4.75989 5.28086 4.37989C5.28086 3.72989 4.95586 3.40489 4.30586 3.40489Z" fill="black"/>
<path d="M14.1373 1.18489C14.7973 1.18489 15.3573 1.28989 15.8173 1.49989C16.2773 1.69989 16.6523 1.99989 16.9423 2.39989C17.2323 2.78989 17.4423 3.26989 17.5723 3.83989C17.7123 4.39989 17.7823 5.03989 17.7823 5.75989C17.7823 6.15989 17.7573 6.59489 17.7073 7.06489C17.6573 7.53489 17.5673 8.00989 17.4373 8.48989C17.3073 8.95989 17.1273 9.41489 16.8973 9.85489C16.6673 10.2949 16.3723 10.6849 16.0123 11.0249C15.6523 11.3649 15.2173 11.6399 14.7073 11.8499C14.2073 12.0499 13.6123 12.1499 12.9223 12.1499C12.1823 12.1499 11.5673 12.0249 11.0773 11.7749C10.5973 11.5249 10.2073 11.1899 9.90731 10.7699C9.61731 10.3399 9.41231 9.83489 9.29231 9.25489C9.17231 8.67489 9.11231 8.05489 9.11231 7.39489C9.11231 6.61489 9.19231 5.85489 9.35231 5.11489C9.52231 4.36489 9.80231 3.69989 10.1923 3.11989C10.5823 2.53989 11.0973 2.07489 11.7373 1.72489C12.3873 1.36489 13.1873 1.18489 14.1373 1.18489ZM13.8223 3.50989C13.5423 3.50989 13.2973 3.57489 13.0873 3.70489C12.8873 3.82489 12.7123 3.98989 12.5623 4.19989C12.4223 4.40989 12.3073 4.64489 12.2173 4.90489C12.1373 5.16489 12.0723 5.43489 12.0223 5.71489C11.9723 5.98489 11.9373 6.24989 11.9173 6.50989C11.9073 6.75989 11.9023 6.98489 11.9023 7.18489C11.9023 8.09489 12.0123 8.75989 12.2323 9.17989C12.4623 9.59989 12.7873 9.80989 13.2073 9.80989C13.5773 9.80989 13.8773 9.66489 14.1073 9.37489C14.3473 9.07489 14.5323 8.71989 14.6623 8.30989C14.7923 7.88989 14.8773 7.45989 14.9173 7.01989C14.9673 6.56989 14.9923 6.18989 14.9923 5.87989C14.9923 5.14989 14.9023 4.57489 14.7223 4.15489C14.5423 3.72489 14.2423 3.50989 13.8223 3.50989Z" fill="black"/>
<path d="M32.288 11.3999C32.448 11.4099 32.588 11.4499 32.708 11.5199C32.828 11.5799 32.913 11.6899 32.963 11.8499C33.073 12.2199 32.943 12.4699 32.573 12.5999C32.453 12.6499 32.328 12.6799 32.198 12.6899C32.078 12.6999 31.968 12.7049 31.868 12.7049H25.193C24.993 12.7049 24.783 12.7049 24.563 12.7049C24.343 12.7049 24.123 12.6999 23.903 12.6899C23.633 12.6799 23.443 12.5949 23.333 12.4349C23.233 12.2749 23.173 12.0799 23.153 11.8499L23.093 10.8149C23.093 10.7549 23.093 10.6849 23.093 10.6049C23.093 10.5149 23.098 10.4249 23.108 10.3349C23.118 10.2349 23.133 10.1449 23.153 10.0649C23.173 9.97489 23.208 9.90489 23.258 9.85489C23.398 9.71489 23.558 9.62489 23.738 9.58489C23.918 9.54489 24.118 9.52489 24.338 9.52489H24.803C24.853 9.52489 24.893 9.52989 24.923 9.53989C24.953 9.53989 24.983 9.53989 25.013 9.53989H31.253V8.93989H24.863C24.813 8.93989 24.758 8.93989 24.698 8.93989C24.648 8.92989 24.593 8.92989 24.533 8.93989H24.173C24.073 8.93989 23.983 8.93989 23.903 8.93989C23.823 8.93989 23.743 8.92989 23.663 8.90989C23.573 8.88989 23.488 8.86989 23.408 8.84989C23.338 8.82989 23.278 8.77989 23.228 8.69989C23.098 8.46989 23.068 8.23989 23.138 8.00989C23.168 7.92989 23.213 7.86989 23.273 7.82989C23.333 7.77989 23.403 7.73989 23.483 7.70989C23.563 7.67989 23.638 7.65989 23.708 7.64989C23.788 7.62989 23.858 7.61489 23.918 7.60489C23.998 7.59489 24.073 7.58989 24.143 7.58989C24.223 7.57989 24.303 7.57489 24.383 7.57489H24.638C24.688 7.58489 24.733 7.58989 24.773 7.58989C24.823 7.58989 24.873 7.58989 24.923 7.58989H31.403C31.913 7.58989 32.303 7.66989 32.573 7.82989C32.843 7.97989 32.978 8.22989 32.978 8.57989V9.95989C32.978 10.0999 32.943 10.2299 32.873 10.3499C32.813 10.4599 32.703 10.5649 32.543 10.6649C32.413 10.7449 32.283 10.7899 32.153 10.7999C32.023 10.7999 31.893 10.7999 31.763 10.7999H24.938V11.3999H32.288ZM25.853 0.404892C26.873 0.474893 27.648 0.799893 28.178 1.37989C28.718 1.95989 28.953 2.78489 28.883 3.85489C28.813 4.75489 28.533 5.44989 28.043 5.93989C27.563 6.42989 26.843 6.67489 25.883 6.67489C25.703 6.67489 25.513 6.67489 25.313 6.67489C25.113 6.67489 24.908 6.66489 24.698 6.64489C24.498 6.61489 24.288 6.56489 24.068 6.49489C23.848 6.42489 23.623 6.31989 23.393 6.17989C23.173 6.03989 22.988 5.86989 22.838 5.66989C22.698 5.46989 22.583 5.25489 22.493 5.02489C22.403 4.78489 22.338 4.53989 22.298 4.28989C22.268 4.03989 22.253 3.79489 22.253 3.55489C22.253 3.01489 22.343 2.53989 22.523 2.12989C22.703 1.71989 22.953 1.37989 23.273 1.10989C23.593 0.839893 23.973 0.644893 24.413 0.524893C24.853 0.404893 25.333 0.364893 25.853 0.404892ZM32.993 5.99989C32.993 5.99989 32.988 6.03489 32.978 6.10489C32.968 6.17489 32.948 6.25489 32.918 6.34489C32.888 6.43489 32.843 6.52989 32.783 6.62989C32.723 6.71989 32.643 6.79489 32.543 6.85489C32.403 6.93489 32.263 6.97489 32.123 6.97489C31.953 6.97489 31.788 6.91989 31.628 6.80989C31.518 6.72989 31.433 6.62489 31.373 6.49489C31.293 6.34489 31.238 6.17989 31.208 5.99989C31.188 5.81989 31.173 5.63489 31.163 5.44489C31.163 5.25489 31.168 5.06989 31.178 4.88989C31.188 4.69989 31.193 4.51989 31.193 4.34989C31.193 4.13989 31.193 3.94489 31.193 3.76489C31.203 3.57489 31.208 3.39489 31.208 3.22489C31.208 3.04489 31.208 2.86489 31.208 2.68489C31.208 2.50489 31.208 2.30989 31.208 2.09989V1.90489C31.198 1.79489 31.193 1.67989 31.193 1.55989C31.203 1.42989 31.223 1.30989 31.253 1.19989C31.293 1.04989 31.383 0.889893 31.523 0.719893C31.603 0.619893 31.713 0.549893 31.853 0.509893C32.003 0.459893 32.163 0.444893 32.333 0.464892C32.633 0.514892 32.833 0.644892 32.933 0.854893C32.993 0.984893 33.018 1.14489 33.008 1.33489C33.008 1.52489 33.003 1.63989 32.993 1.67989V5.99989ZM27.158 3.91489C27.208 3.55489 27.148 3.21989 26.978 2.90989C26.818 2.59989 26.578 2.38989 26.258 2.27989C26.048 2.20989 25.818 2.17489 25.568 2.17489C25.318 2.17489 25.078 2.21989 24.848 2.30989C24.628 2.38989 24.433 2.51989 24.263 2.69989C24.103 2.86989 24.003 3.09489 23.963 3.37489C23.933 3.56489 23.933 3.75989 23.963 3.95989C23.993 4.14989 24.058 4.32489 24.158 4.48489C24.268 4.63489 24.418 4.76489 24.608 4.87489C24.798 4.98489 25.038 5.05489 25.328 5.08489C25.528 5.10489 25.723 5.10489 25.913 5.08489C26.113 5.06489 26.293 5.01489 26.453 4.93489C26.623 4.85489 26.768 4.74489 26.888 4.60489C27.008 4.45489 27.093 4.26489 27.143 4.03489L27.158 3.91489Z" fill="black"/>
</svg>
