<svg width="22" height="13" viewBox="0 0 22 13" fill="none" xmlns="http://www.w3.org/2000/svg">
<path d="M2.63667 11.7749C2.56667 11.9249 2.46167 11.9999 2.32167 11.9999H1.78167C1.28167 11.9999 0.87167 11.9199 0.55167 11.7599C0.24167 11.5999 0.0866699 11.3599 0.0866699 11.0399C0.0866699 10.9399 0.10667 10.8249 0.14667 10.6949C0.19667 10.5549 0.27167 10.3749 0.37167 10.1549C0.48167 9.93489 0.62667 9.65989 0.80667 9.32989C0.98667 8.98989 1.21167 8.56989 1.48167 8.06989C1.85167 7.37989 2.16667 6.79489 2.42667 6.31489C2.68667 5.83489 2.89667 5.43489 3.05667 5.11489C3.22667 4.78489 3.36167 4.52489 3.46167 4.33489C3.56167 4.13489 3.63667 3.97989 3.68667 3.86989C3.74667 3.74989 3.78667 3.66489 3.80667 3.61489C3.82667 3.55489 3.85167 3.49989 3.88167 3.44989H0.31167C0.23167 3.44989 0.18167 3.43489 0.16167 3.40489C0.15167 3.37489 0.14667 3.31989 0.14667 3.23989L0.19167 2.39989C0.20167 2.26989 0.21667 2.14489 0.23667 2.02489C0.26667 1.89489 0.31667 1.77989 0.38667 1.67989C0.46667 1.57989 0.57667 1.49989 0.71667 1.43989C0.85667 1.37989 1.04167 1.34989 1.27167 1.34989H6.85167C6.91167 1.34989 6.96667 1.36489 7.01667 1.39489C7.06667 1.42489 7.09167 1.47989 7.09167 1.55989L7.03167 2.36989C7.01167 2.53989 6.98667 2.66989 6.95667 2.75989C6.92667 2.84989 6.89167 2.93489 6.85167 3.01489C6.37167 3.97489 5.96167 4.79989 5.62167 5.48989C5.28167 6.17989 4.98167 6.77989 4.72167 7.28989C4.47167 7.79989 4.25667 8.24489 4.07667 8.62489C3.89667 8.99489 3.72667 9.34489 3.56667 9.67489C3.41667 10.0049 3.26667 10.3349 3.11667 10.6649C2.97667 10.9949 2.81667 11.3649 2.63667 11.7749Z" fill="black"/>
<path d="M20.8021 11.3999C20.9621 11.4099 21.1021 11.4499 21.2221 11.5199C21.3421 11.5799 21.4271 11.6899 21.4771 11.8499C21.5871 12.2199 21.4571 12.4699 21.0871 12.5999C20.9671 12.6499 20.8421 12.6799 20.7121 12.6899C20.5921 12.6999 20.4821 12.7049 20.3821 12.7049H13.7071C13.5071 12.7049 13.2971 12.7049 13.0771 12.7049C12.8571 12.7049 12.6371 12.6999 12.4171 12.6899C12.1471 12.6799 11.9571 12.5949 11.8471 12.4349C11.7471 12.2749 11.6871 12.0799 11.6671 11.8499L11.6071 10.8149C11.6071 10.7549 11.6071 10.6849 11.6071 10.6049C11.6071 10.5149 11.6121 10.4249 11.6221 10.3349C11.6321 10.2349 11.6471 10.1449 11.6671 10.0649C11.6871 9.97489 11.7221 9.90489 11.7721 9.85489C11.9121 9.71489 12.0721 9.62489 12.2521 9.58489C12.4321 9.54489 12.6321 9.52489 12.8521 9.52489H13.3171C13.3671 9.52489 13.4071 9.52989 13.4371 9.53989C13.4671 9.53989 13.4971 9.53989 13.5271 9.53989H19.7671V8.93989H13.3771C13.3271 8.93989 13.2721 8.93989 13.2121 8.93989C13.1621 8.92989 13.1071 8.92989 13.0471 8.93989H12.6871C12.5871 8.93989 12.4971 8.93989 12.4171 8.93989C12.3371 8.93989 12.2571 8.92989 12.1771 8.90989C12.0871 8.88989 12.0021 8.86989 11.9221 8.84989C11.8521 8.82989 11.7921 8.77989 11.7421 8.69989C11.6121 8.46989 11.5821 8.23989 11.6521 8.00989C11.6821 7.92989 11.7271 7.86989 11.7871 7.82989C11.8471 7.77989 11.9171 7.73989 11.9971 7.70989C12.0771 7.67989 12.1521 7.65989 12.2221 7.64989C12.3021 7.62989 12.3721 7.61489 12.4321 7.60489C12.5121 7.59489 12.5871 7.58989 12.6571 7.58989C12.7371 7.57989 12.8171 7.57489 12.8971 7.57489H13.1521C13.2021 7.58489 13.2471 7.58989 13.2871 7.58989C13.3371 7.58989 13.3871 7.58989 13.4371 7.58989H19.9171C20.4271 7.58989 20.8171 7.66989 21.0871 7.82989C21.3571 7.97989 21.4921 8.22989 21.4921 8.57989V9.95989C21.4921 10.0999 21.4571 10.2299 21.3871 10.3499C21.3271 10.4599 21.2171 10.5649 21.0571 10.6649C20.9271 10.7449 20.7971 10.7899 20.6671 10.7999C20.5371 10.7999 20.4071 10.7999 20.2771 10.7999H13.4521V11.3999H20.8021ZM14.3671 0.404892C15.3871 0.474893 16.1621 0.799893 16.6921 1.37989C17.2321 1.95989 17.4671 2.78489 17.3971 3.85489C17.3271 4.75489 17.0471 5.44989 16.5571 5.93989C16.0771 6.42989 15.3571 6.67489 14.3971 6.67489C14.2171 6.67489 14.0271 6.67489 13.8271 6.67489C13.6271 6.67489 13.4221 6.66489 13.2121 6.64489C13.0121 6.61489 12.8021 6.56489 12.5821 6.49489C12.3621 6.42489 12.1371 6.31989 11.9071 6.17989C11.6871 6.03989 11.5021 5.86989 11.3521 5.66989C11.2121 5.46989 11.0971 5.25489 11.0071 5.02489C10.9171 4.78489 10.8521 4.53989 10.8121 4.28989C10.7821 4.03989 10.7671 3.79489 10.7671 3.55489C10.7671 3.01489 10.8571 2.53989 11.0371 2.12989C11.2171 1.71989 11.4671 1.37989 11.7871 1.10989C12.1071 0.839893 12.4871 0.644893 12.9271 0.524893C13.3671 0.404893 13.8471 0.364893 14.3671 0.404892ZM21.5071 5.99989C21.5071 5.99989 21.5021 6.03489 21.4921 6.10489C21.4821 6.17489 21.4621 6.25489 21.4321 6.34489C21.4021 6.43489 21.3571 6.52989 21.2971 6.62989C21.2371 6.71989 21.1571 6.79489 21.0571 6.85489C20.9171 6.93489 20.7771 6.97489 20.6371 6.97489C20.4671 6.97489 20.3021 6.91989 20.1421 6.80989C20.0321 6.72989 19.9471 6.62489 19.8871 6.49489C19.8071 6.34489 19.7521 6.17989 19.7221 5.99989C19.7021 5.81989 19.6871 5.63489 19.6771 5.44489C19.6771 5.25489 19.6821 5.06989 19.6921 4.88989C19.7021 4.69989 19.7071 4.51989 19.7071 4.34989C19.7071 4.13989 19.7071 3.94489 19.7071 3.76489C19.7171 3.57489 19.7221 3.39489 19.7221 3.22489C19.7221 3.04489 19.7221 2.86489 19.7221 2.68489C19.7221 2.50489 19.7221 2.30989 19.7221 2.09989V1.90489C19.7121 1.79489 19.7071 1.67989 19.7071 1.55989C19.7171 1.42989 19.7371 1.30989 19.7671 1.19989C19.8071 1.04989 19.8971 0.889893 20.0371 0.719893C20.1171 0.619893 20.2271 0.549893 20.3671 0.509893C20.5171 0.459893 20.6771 0.444893 20.8471 0.464892C21.1471 0.514892 21.3471 0.644892 21.4471 0.854893C21.5071 0.984893 21.5321 1.14489 21.5221 1.33489C21.5221 1.52489 21.5171 1.63989 21.5071 1.67989V5.99989ZM15.6721 3.91489C15.7221 3.55489 15.6621 3.21989 15.4921 2.90989C15.3321 2.59989 15.0921 2.38989 14.7721 2.27989C14.5621 2.20989 14.3321 2.17489 14.0821 2.17489C13.8321 2.17489 13.5921 2.21989 13.3621 2.30989C13.1421 2.38989 12.9471 2.51989 12.7771 2.69989C12.6171 2.86989 12.5171 3.09489 12.4771 3.37489C12.4471 3.56489 12.4471 3.75989 12.4771 3.95989C12.5071 4.14989 12.5721 4.32489 12.6721 4.48489C12.7821 4.63489 12.9321 4.76489 13.1221 4.87489C13.3121 4.98489 13.5521 5.05489 13.8421 5.08489C14.0421 5.10489 14.2371 5.10489 14.4271 5.08489C14.6271 5.06489 14.8071 5.01489 14.9671 4.93489C15.1371 4.85489 15.2821 4.74489 15.4021 4.60489C15.5221 4.45489 15.6071 4.26489 15.6571 4.03489L15.6721 3.91489Z" fill="black"/>
</svg>
