<svg width="158" height="25" viewBox="0 0 158 25" fill="none" xmlns="http://www.w3.org/2000/svg">
<g filter="url(#filter0_d_194_10)">
<path d="M5.788 9.072C5.704 9.108 5.62 9.132 5.536 9.144C5.452 9.144 5.35 9.09 5.23 8.982L4.834 8.604C4.81 8.544 4.828 8.496 4.888 8.46C4.912 8.448 4.93 8.436 4.942 8.424C5.878 8.004 6.64 7.542 7.228 7.038C7.816 6.534 8.266 6.024 8.578 5.508C8.89 4.992 9.094 4.506 9.19 4.05C8.95 4.062 8.716 4.074 8.488 4.086C8.272 4.086 8.08 4.098 7.912 4.122L5.95 4.284C5.83 4.296 5.752 4.284 5.716 4.248C5.68 4.2 5.65 4.146 5.626 4.086C5.614 4.074 5.608 4.062 5.608 4.05C5.56 3.918 5.53 3.816 5.518 3.744C5.506 3.66 5.47 3.522 5.41 3.33C5.398 3.306 5.398 3.276 5.41 3.24C5.434 3.204 5.476 3.186 5.536 3.186C5.872 3.21 6.19 3.228 6.49 3.24C6.802 3.252 7.246 3.258 7.822 3.258C8.434 3.234 9.094 3.21 9.802 3.186C10.51 3.162 11.194 3.126 11.854 3.078C12.514 3.018 13.072 2.952 13.528 2.88C13.564 2.868 13.606 2.874 13.654 2.898C13.702 2.91 13.732 2.946 13.744 3.006L13.816 3.51C13.828 3.558 13.834 3.606 13.834 3.654C13.834 3.702 13.834 3.75 13.834 3.798C13.858 3.93 13.786 3.996 13.618 3.996C13.39 3.984 13.12 3.978 12.808 3.978C12.496 3.978 12.22 3.978 11.98 3.978C11.776 3.978 11.542 3.984 11.278 3.996C11.014 3.996 10.744 4.002 10.468 4.014C10.408 4.242 10.33 4.476 10.234 4.716C10.138 4.944 10.024 5.178 9.892 5.418C10.684 5.802 11.416 6.174 12.088 6.534C12.772 6.882 13.324 7.194 13.744 7.47C13.804 7.518 13.858 7.578 13.906 7.65C13.966 7.71 13.978 7.782 13.942 7.866C13.882 7.998 13.804 8.124 13.708 8.244C13.624 8.364 13.534 8.49 13.438 8.622C13.366 8.706 13.306 8.712 13.258 8.64C12.682 8.112 12.07 7.638 11.422 7.218C10.786 6.786 10.138 6.402 9.478 6.066C9.094 6.582 8.602 7.098 8.002 7.614C7.414 8.118 6.676 8.604 5.788 9.072ZM15.832 15.318C15.784 15.318 15.76 15.288 15.76 15.228V2.232C15.76 1.776 15.742 1.356 15.706 0.971999C15.682 0.575999 15.64 0.317999 15.58 0.198C15.556 0.138 15.556 0.0959998 15.58 0.0720001C15.616 0.0359999 15.658 0.0179998 15.706 0.0179998C15.778 0.0179998 15.898 0.0239997 16.066 0.0359995C16.246 0.0359995 16.42 0.0419995 16.588 0.0539993C16.756 0.0539993 16.852 0.0539993 16.876 0.0539993C16.936 0.0539993 16.966 0.101999 16.966 0.198C16.93 0.642 16.906 1.032 16.894 1.368C16.894 1.692 16.894 2.07 16.894 2.502V14.868C16.894 15.048 16.882 15.156 16.858 15.192C16.846 15.228 16.81 15.252 16.75 15.264L15.832 15.318ZM4.6 12.15C4.468 12.162 4.384 12.156 4.348 12.132C4.312 12.108 4.276 12.042 4.24 11.934C4.192 11.802 4.15 11.682 4.114 11.574C4.09 11.454 4.054 11.292 4.006 11.088C3.994 11.064 4 11.034 4.024 10.998C4.048 10.962 4.09 10.95 4.15 10.962C4.39 11.01 4.834 11.034 5.482 11.034C6.142 11.034 6.862 11.022 7.642 10.998C7.858 10.986 8.092 10.974 8.344 10.962C8.596 10.95 8.86 10.938 9.136 10.926V10.242C9.136 9.774 9.118 9.39 9.082 9.09C9.046 8.79 9.004 8.58 8.956 8.46C8.908 8.34 8.95 8.28 9.082 8.28H10.162C10.234 8.28 10.27 8.328 10.27 8.424C10.27 8.436 10.27 8.448 10.27 8.46C10.246 8.772 10.234 9.048 10.234 9.288C10.234 9.528 10.222 9.804 10.198 10.116L10.162 10.854C10.99 10.782 11.83 10.686 12.682 10.566C13.546 10.434 14.29 10.278 14.914 10.098C14.998 10.062 15.052 10.092 15.076 10.188L15.166 10.692C15.19 10.8 15.178 10.872 15.13 10.908C15.094 10.944 15.04 10.974 14.968 10.998C14.764 11.058 14.452 11.13 14.032 11.214C13.624 11.286 13.15 11.364 12.61 11.448C12.082 11.52 11.53 11.592 10.954 11.664C10.39 11.724 9.844 11.778 9.316 11.826C8.788 11.874 8.326 11.91 7.93 11.934C7.282 11.97 6.664 12.006 6.076 12.042C5.488 12.078 4.996 12.114 4.6 12.15ZM9.316 1.872C9.148 1.848 8.92 1.818 8.632 1.782C8.344 1.746 8.062 1.692 7.786 1.62C7.51 1.548 7.288 1.446 7.12 1.314C7.072 1.278 7.06 1.206 7.084 1.098C7.108 0.978 7.15 0.87 7.21 0.774C7.27 0.666 7.33 0.623999 7.39 0.647999C7.906 0.743999 8.47 0.81 9.082 0.846C9.694 0.87 10.276 0.875999 10.828 0.864C11.38 0.84 11.824 0.816 12.16 0.791999C12.256 0.78 12.316 0.786 12.34 0.809999C12.364 0.822 12.382 0.858 12.394 0.918C12.394 0.93 12.394 0.948 12.394 0.971999C12.394 1.08 12.388 1.23 12.376 1.422C12.364 1.602 12.322 1.704 12.25 1.728C12.166 1.752 11.968 1.782 11.656 1.818C11.344 1.854 10.978 1.878 10.558 1.89C10.138 1.902 9.724 1.896 9.316 1.872Z" fill="black"/>
<path d="M20.6539 8.91C20.5219 8.922 20.4319 8.91 20.3839 8.874C20.3359 8.838 20.2999 8.784 20.2759 8.712C20.2279 8.58 20.1859 8.448 20.1499 8.316C20.1139 8.184 20.0719 8.016 20.0239 7.812C20.0119 7.788 20.0179 7.758 20.0419 7.722C20.0659 7.674 20.1079 7.656 20.1679 7.668C20.6239 7.728 21.2479 7.776 22.0399 7.812C22.8319 7.836 23.7019 7.842 24.6499 7.83C25.3819 7.83 26.1619 7.824 26.9899 7.812C27.8179 7.788 28.6399 7.764 29.4559 7.74C30.2839 7.704 31.0639 7.668 31.7959 7.632C32.5399 7.596 33.1939 7.554 33.7579 7.506C34.3339 7.458 34.7779 7.404 35.0899 7.344C35.2099 7.32 35.2879 7.326 35.3239 7.362C35.3599 7.398 35.3839 7.446 35.3959 7.506L35.5039 8.298C35.5159 8.466 35.4019 8.544 35.1619 8.532C34.7899 8.508 34.2859 8.496 33.6499 8.496C33.0259 8.496 32.3479 8.502 31.6159 8.514C30.9679 8.514 30.3019 8.526 29.6179 8.55C28.9459 8.562 28.3099 8.574 27.7099 8.586C27.1219 8.598 26.6119 8.61 26.1799 8.622C24.9679 8.658 23.8759 8.7 22.9039 8.748C21.9319 8.796 21.1819 8.85 20.6539 8.91ZM30.6259 6.318C30.5179 6.318 30.4819 6.258 30.5179 6.138C30.6139 5.802 30.7159 5.37 30.8239 4.842C30.9439 4.302 31.0519 3.75 31.1479 3.186C31.2439 2.622 31.3039 2.136 31.3279 1.728C31.3399 1.596 31.2799 1.53 31.1479 1.53C30.8839 1.53 30.5239 1.536 30.0679 1.548C29.6239 1.56 29.1439 1.572 28.6279 1.584C28.1239 1.596 27.6439 1.608 27.1879 1.62C26.7439 1.632 26.3959 1.644 26.1439 1.656C25.9519 1.656 25.7059 1.668 25.4059 1.692C25.1059 1.716 24.8059 1.74 24.5059 1.764C24.2059 1.788 23.9599 1.812 23.7679 1.836C23.6359 1.848 23.5519 1.842 23.5159 1.818C23.4799 1.782 23.4439 1.716 23.4079 1.62C23.4079 1.608 23.4079 1.602 23.4079 1.602C23.3719 1.506 23.3359 1.398 23.2999 1.278C23.2639 1.158 23.2219 1.014 23.1739 0.846C23.1619 0.821999 23.1679 0.791999 23.1919 0.756C23.2159 0.72 23.2579 0.707999 23.3179 0.719999C23.6539 0.744 24.0979 0.762 24.6499 0.774C25.2019 0.786 25.8019 0.786 26.4499 0.774C27.0979 0.762 27.7399 0.744 28.3759 0.719999C29.0119 0.696 29.5879 0.666 30.1039 0.629999C30.6199 0.581999 31.0159 0.527999 31.2919 0.467999C31.3879 0.444 31.4839 0.444 31.5799 0.467999L32.5879 0.684C32.6959 0.696 32.7379 0.761999 32.7139 0.881999C32.6779 1.062 32.6299 1.302 32.5699 1.602C32.5099 1.89 32.4619 2.136 32.4259 2.34C32.3539 2.76 32.2699 3.204 32.1739 3.672C32.0779 4.128 31.9879 4.548 31.9039 4.932C31.8199 5.304 31.7479 5.58 31.6879 5.76C31.6399 5.928 31.5919 6.054 31.5439 6.138C31.5079 6.21 31.4239 6.252 31.2919 6.264L30.6259 6.318ZM25.1359 16.038C24.7159 16.038 24.3979 15.876 24.1819 15.552C23.9659 15.228 23.8579 14.82 23.8579 14.328V12.816C23.8579 12.396 23.8339 12.048 23.7859 11.772C23.7499 11.496 23.7139 11.298 23.6779 11.178C23.6419 11.058 23.6839 10.998 23.8039 10.998C23.8639 10.998 23.9779 11.004 24.1459 11.016C24.3259 11.016 24.4939 11.022 24.6499 11.034C24.8179 11.046 24.9139 11.052 24.9379 11.052C24.9979 11.064 25.0279 11.124 25.0279 11.232C25.0159 11.508 25.0039 11.754 24.9919 11.97C24.9919 12.174 24.9919 12.432 24.9919 12.744V14.274C24.9919 14.586 25.0279 14.802 25.0999 14.922C25.1839 15.03 25.3399 15.09 25.5679 15.102C25.9039 15.114 26.3299 15.126 26.8459 15.138C27.3619 15.138 27.8959 15.132 28.4479 15.12C29.0119 15.108 29.5339 15.09 30.0139 15.066C30.5179 15.042 31.0279 15.006 31.5439 14.958C32.0719 14.898 32.4859 14.838 32.7859 14.778C32.9059 14.754 32.9839 14.76 33.0199 14.796C33.0559 14.832 33.0799 14.88 33.0919 14.94L33.2359 15.75C33.2479 15.882 33.1579 15.948 32.9659 15.948C31.7779 15.948 30.5239 15.96 29.2039 15.984C27.8959 16.02 26.5399 16.038 25.1359 16.038Z" fill="black"/>
<path d="M43.2355 11.808C43.2835 11.736 43.3315 11.736 43.3795 11.808C43.7635 12.204 44.1775 12.492 44.6215 12.672C45.0775 12.84 45.5815 12.924 46.1335 12.924C47.2015 12.924 48.0475 12.636 48.6715 12.06C49.3075 11.484 49.6255 10.74 49.6255 9.828C49.6255 9.168 49.4155 8.586 48.9955 8.082C48.5755 7.578 48.0355 7.278 47.3755 7.182C46.8355 7.326 46.2595 7.398 45.6475 7.398H45.2695C45.1975 7.398 45.1615 7.362 45.1615 7.29L45.1795 6.552C45.1795 6.48 45.2155 6.444 45.2875 6.444H45.6475C46.3075 6.444 46.8955 6.348 47.4115 6.156C47.9275 5.964 48.3355 5.682 48.6355 5.31C48.9355 4.926 49.0855 4.446 49.0855 3.87C49.0855 3.282 48.8875 2.808 48.4915 2.448C48.0955 2.088 47.5555 1.908 46.8715 1.908C46.2475 1.908 45.6835 2.064 45.1795 2.376C44.6875 2.688 44.3755 3.084 44.2435 3.564C44.2315 3.636 44.1895 3.66 44.1175 3.636L43.2175 3.348C43.1455 3.324 43.1215 3.276 43.1455 3.204C43.3015 2.736 43.5655 2.334 43.9375 1.998C44.3095 1.65 44.7475 1.386 45.2515 1.206C45.7675 1.014 46.2955 0.918 46.8355 0.918C47.8795 0.918 48.7075 1.188 49.3195 1.728C49.9435 2.256 50.2555 2.964 50.2555 3.852C50.2555 4.452 50.1175 4.986 49.8415 5.454C49.5655 5.91 49.1875 6.294 48.7075 6.606C49.3675 6.894 49.8775 7.326 50.2375 7.902C50.6095 8.478 50.7955 9.12 50.7955 9.828C50.7955 10.62 50.5975 11.328 50.2015 11.952C49.8175 12.564 49.2715 13.05 48.5635 13.41C47.8675 13.758 47.0575 13.932 46.1335 13.932C45.4735 13.932 44.8375 13.824 44.2255 13.608C43.6255 13.38 43.0975 13.05 42.6415 12.618C42.5935 12.57 42.5935 12.516 42.6415 12.456L43.2355 11.808Z" fill="black"/>
<path d="M56.5562 13.968C55.2242 13.968 54.2282 13.452 53.5682 12.42C52.9202 11.388 52.5962 9.804 52.5962 7.668V7.218C52.5962 5.07 52.9202 3.486 53.5682 2.466C54.2282 1.434 55.2242 0.918 56.5562 0.918C57.8882 0.918 58.8782 1.434 59.5262 2.466C60.1862 3.486 60.5162 5.07 60.5162 7.218V7.668C60.5162 9.804 60.1862 11.388 59.5262 12.42C58.8782 13.452 57.8882 13.968 56.5562 13.968ZM56.5562 12.96C57.5162 12.96 58.2182 12.528 58.6622 11.664C59.1182 10.788 59.3462 9.456 59.3462 7.668V7.218C59.3462 5.37 59.1182 4.026 58.6622 3.186C58.2182 2.334 57.5162 1.908 56.5562 1.908C55.5962 1.908 54.8882 2.334 54.4322 3.186C53.9882 4.026 53.7662 5.37 53.7662 7.218V7.668C53.7662 9.456 53.9882 10.788 54.4322 11.664C54.8882 12.528 55.5962 12.96 56.5562 12.96Z" fill="black"/>
<path d="M66.4389 7.74C65.7549 7.752 65.1249 7.626 64.5489 7.362C63.9849 7.086 63.5289 6.696 63.1809 6.192C62.8449 5.688 62.6769 5.106 62.6769 4.446C62.6769 3.798 62.8509 3.222 63.1989 2.718C63.5469 2.202 64.0029 1.794 64.5669 1.494C65.1429 1.182 65.7729 1.02 66.4569 1.008C67.1529 0.983999 67.7829 1.104 68.3469 1.368C68.9229 1.62 69.3789 1.998 69.7149 2.502C70.0629 2.994 70.2369 3.594 70.2369 4.302C70.2369 4.938 70.0629 5.514 69.7149 6.03C69.3669 6.546 68.9049 6.954 68.3289 7.254C67.7529 7.554 67.1229 7.716 66.4389 7.74ZM67.4289 16.218C67.0569 16.206 66.7629 16.08 66.5469 15.84C66.3309 15.6 66.2229 15.222 66.2229 14.706V13.788C66.2229 13.596 66.2109 13.404 66.1869 13.212C66.1629 13.02 66.1089 12.846 66.0249 12.69C66.0009 12.642 66.0009 12.594 66.0249 12.546C66.0489 12.498 66.1029 12.474 66.1869 12.474C66.4989 12.486 66.9009 12.498 67.3929 12.51C67.8849 12.51 68.4249 12.51 69.0129 12.51C69.6009 12.51 70.1829 12.504 70.7589 12.492C71.3469 12.468 71.8809 12.444 72.3609 12.42C72.8529 12.396 73.2429 12.36 73.5309 12.312L73.5849 10.764C73.5849 10.752 73.5849 10.734 73.5849 10.71C73.5849 10.65 73.5789 10.614 73.5669 10.602C73.5549 10.578 73.5009 10.566 73.4049 10.566C73.1409 10.566 72.7629 10.572 72.2709 10.584C71.7789 10.596 71.2509 10.614 70.6869 10.638C70.1349 10.65 69.6069 10.668 69.1029 10.692C68.5989 10.704 68.1909 10.722 67.8789 10.746L66.4929 10.836C66.3609 10.848 66.2769 10.836 66.2409 10.8C66.2049 10.752 66.1749 10.686 66.1509 10.602L66.0429 9.936C66.0189 9.84 66.0669 9.798 66.1869 9.81C66.3909 9.822 66.7029 9.834 67.1229 9.846C67.5549 9.858 68.0469 9.864 68.5989 9.864C69.1629 9.852 69.7449 9.834 70.3449 9.81C70.9449 9.786 71.5209 9.756 72.0729 9.72C72.6249 9.684 73.1049 9.636 73.5129 9.576C73.5369 9.576 73.5609 9.57 73.5849 9.558C73.6689 9.546 73.7349 9.546 73.7829 9.558L74.7009 9.702C74.7609 9.714 74.7909 9.738 74.7909 9.774C74.8029 9.798 74.8089 9.822 74.8089 9.846C74.8089 9.858 74.8089 9.864 74.8089 9.864C74.7489 10.404 74.7009 10.914 74.6649 11.394C74.6289 11.874 74.5929 12.384 74.5569 12.924C74.5449 13.056 74.5089 13.14 74.4489 13.176C74.3889 13.2 74.3289 13.212 74.2689 13.212C73.8729 13.212 73.3809 13.218 72.7929 13.23C72.2049 13.242 71.5809 13.254 70.9209 13.266C70.2729 13.278 69.6369 13.296 69.0129 13.32C68.3889 13.332 67.8369 13.344 67.3569 13.356V14.634C67.3569 14.91 67.3809 15.084 67.4289 15.156C67.4889 15.24 67.6209 15.288 67.8249 15.3C68.6049 15.324 69.4329 15.33 70.3089 15.318C71.1849 15.306 72.0129 15.276 72.7929 15.228C73.2849 15.204 73.7349 15.168 74.1429 15.12C74.5509 15.072 74.9109 15.006 75.2229 14.922C75.3429 14.898 75.4209 14.904 75.4569 14.94C75.4929 14.976 75.5169 15.024 75.5289 15.084L75.6369 15.84C75.6489 15.9 75.6309 15.954 75.5829 16.002C75.5349 16.05 75.4269 16.074 75.2589 16.074C74.4189 16.074 73.5429 16.08 72.6309 16.092C71.7189 16.116 70.8189 16.134 69.9309 16.146C69.0549 16.17 68.2209 16.194 67.4289 16.218ZM66.4569 6.84C67.1889 6.816 67.8009 6.576 68.2929 6.12C68.7849 5.664 69.0309 5.058 69.0309 4.302C69.0309 3.474 68.7789 2.862 68.2749 2.466C67.7829 2.07 67.1709 1.884 66.4389 1.908C65.7189 1.932 65.1069 2.172 64.6029 2.628C64.0989 3.084 63.8469 3.684 63.8469 4.428C63.8469 5.22 64.0989 5.826 64.6029 6.246C65.1189 6.666 65.7369 6.864 66.4569 6.84ZM73.6929 8.64C73.6449 8.64 73.6209 8.61 73.6209 8.55V2.214C73.6209 1.758 73.6029 1.338 73.5669 0.954C73.5429 0.569999 73.5009 0.317999 73.4409 0.198C73.4169 0.138 73.4169 0.0959998 73.4409 0.0720001C73.4769 0.0359999 73.5189 0.0179998 73.5669 0.0179998C73.6629 0.0179998 73.8249 0.0179998 74.0529 0.0179998C74.2929 0.0179998 74.5209 0.0239997 74.7369 0.0359995C74.7969 0.0359995 74.8269 0.0839996 74.8269 0.18C74.7909 0.624 74.7669 1.014 74.7549 1.35C74.7549 1.674 74.7549 2.052 74.7549 2.484V8.19C74.7549 8.37 74.7429 8.478 74.7189 8.514C74.7069 8.55 74.6709 8.574 74.6109 8.586L73.6929 8.64Z" fill="black"/>
<path d="M83.8032 12.006C83.7432 11.958 83.6652 11.904 83.5692 11.844C83.4852 11.772 83.4132 11.706 83.3532 11.646C83.2692 11.562 83.2692 11.496 83.3532 11.448C83.9532 10.98 84.4812 10.458 84.9372 9.882C85.3932 9.294 85.7712 8.694 86.0712 8.082C86.3832 7.47 86.6232 6.882 86.7912 6.318C86.9592 5.754 87.0552 5.25 87.0792 4.806L86.0892 4.86L84.3792 5.022C84.2592 5.034 84.1812 5.022 84.1452 4.986C84.1092 4.938 84.0792 4.884 84.0552 4.824C84.0432 4.812 84.0372 4.8 84.0372 4.788C83.9892 4.644 83.9532 4.542 83.9292 4.482C83.9172 4.422 83.8812 4.296 83.8212 4.104C83.8092 4.08 83.8152 4.05 83.8392 4.014C83.8632 3.978 83.9052 3.96 83.9652 3.96C84.1212 3.96 84.2652 3.966 84.3972 3.978C84.5292 3.99 84.6972 4.002 84.9012 4.014C85.1052 4.014 85.3872 4.014 85.7472 4.014C86.1432 4.014 86.5932 4.002 87.0972 3.978C87.6132 3.954 88.1232 3.924 88.6272 3.888C89.1432 3.84 89.6052 3.792 90.0132 3.744C90.4212 3.696 90.7212 3.648 90.9132 3.6C90.9492 3.588 90.9912 3.594 91.0392 3.618C91.0872 3.63 91.1172 3.666 91.1292 3.726C91.1412 3.798 91.1532 3.876 91.1652 3.96C91.1892 4.044 91.2072 4.128 91.2192 4.212L91.2552 4.5C91.2792 4.632 91.2072 4.698 91.0392 4.698C90.8112 4.686 90.5352 4.686 90.2112 4.698C89.8992 4.698 89.6232 4.704 89.3832 4.716L88.3032 4.752C88.2672 5.1 88.1892 5.502 88.0692 5.958C87.9492 6.402 87.7812 6.876 87.5652 7.38C87.9972 7.764 88.4352 8.172 88.8792 8.604C89.3352 9.024 89.7432 9.42 90.1032 9.792C90.4632 10.152 90.7212 10.428 90.8772 10.62C90.9252 10.668 90.9552 10.728 90.9672 10.8C90.9912 10.872 90.9732 10.95 90.9132 11.034C90.8052 11.154 90.7032 11.256 90.6072 11.34C90.5112 11.424 90.3792 11.526 90.2112 11.646C90.1512 11.694 90.0912 11.682 90.0312 11.61C89.8392 11.286 89.5812 10.914 89.2572 10.494C88.9452 10.074 88.6092 9.654 88.2492 9.234C87.8892 8.814 87.5412 8.448 87.2052 8.136C86.8932 8.784 86.5032 9.432 86.0352 10.08C85.5672 10.728 85.0092 11.34 84.3612 11.916C84.2892 11.976 84.2052 12.024 84.1092 12.06C84.0252 12.084 83.9232 12.066 83.8032 12.006ZM92.8212 14.85C92.7732 14.85 92.7492 14.82 92.7492 14.76V7.722L92.1552 7.74C91.8672 7.752 91.5552 7.776 91.2192 7.812C90.8952 7.836 90.5892 7.86 90.3012 7.884C90.1692 7.896 90.0852 7.89 90.0492 7.866C90.0252 7.842 90.0072 7.8 89.9952 7.74C89.9832 7.728 89.9772 7.716 89.9772 7.704L89.8332 6.93C89.8332 6.906 89.8392 6.876 89.8512 6.84C89.8632 6.804 89.8992 6.792 89.9592 6.804C90.1392 6.828 90.3852 6.846 90.6972 6.858C91.0092 6.87 91.3452 6.87 91.7052 6.858C92.0772 6.846 92.4252 6.834 92.7492 6.822V2.682C92.7492 2.226 92.7372 1.806 92.7132 1.422C92.6892 1.038 92.6472 0.786 92.5872 0.666C92.5632 0.606 92.5632 0.564 92.5872 0.539999C92.6232 0.504 92.6652 0.486 92.7132 0.486L93.7752 0.504C93.8352 0.528 93.8652 0.575999 93.8652 0.647999C93.8412 0.996 93.8292 1.308 93.8292 1.584C93.8292 1.86 93.8292 2.148 93.8292 2.448C93.8292 2.52 93.8292 2.598 93.8292 2.682C93.8292 2.766 93.8292 2.856 93.8292 2.952V14.4C93.8292 14.58 93.8172 14.688 93.7932 14.724C93.7812 14.76 93.7452 14.784 93.6852 14.796C93.6492 14.796 93.5652 14.802 93.4332 14.814C93.3132 14.814 93.1932 14.82 93.0732 14.832C92.9532 14.844 92.8692 14.85 92.8212 14.85ZM95.4492 15.318C95.4012 15.318 95.3772 15.288 95.3772 15.228V2.214C95.3772 1.758 95.3652 1.338 95.3412 0.954C95.3292 0.569999 95.2932 0.317999 95.2332 0.198C95.2092 0.138 95.2092 0.0959998 95.2332 0.0720001C95.2692 0.0359999 95.3112 0.0179998 95.3592 0.0179998L96.4212 0.0359995C96.4812 0.0599999 96.5112 0.108 96.5112 0.18C96.4872 0.539999 96.4692 0.864 96.4572 1.152C96.4572 1.44 96.4572 1.74 96.4572 2.052C96.4572 2.124 96.4572 2.196 96.4572 2.268C96.4572 2.34 96.4572 2.412 96.4572 2.484V14.868C96.4572 15.048 96.4452 15.156 96.4212 15.192C96.4092 15.228 96.3732 15.252 96.3132 15.264C96.2772 15.264 96.1932 15.264 96.0612 15.264C95.9412 15.276 95.8212 15.288 95.7012 15.3C95.5812 15.312 95.4972 15.318 95.4492 15.318ZM87.2232 2.358C87.0552 2.334 86.8332 2.304 86.5572 2.268C86.2812 2.232 86.0112 2.178 85.7472 2.106C85.4832 2.022 85.2672 1.914 85.0992 1.782C85.0512 1.746 85.0392 1.674 85.0632 1.566C85.0872 1.458 85.1292 1.356 85.1892 1.26C85.2492 1.152 85.3092 1.11 85.3692 1.134C86.2212 1.302 87.0132 1.386 87.7452 1.386C88.4892 1.386 89.1552 1.362 89.7432 1.314C89.8392 1.302 89.8992 1.302 89.9232 1.314C89.9472 1.326 89.9652 1.362 89.9772 1.422C89.9772 1.434 89.9772 1.452 89.9772 1.476C89.9772 1.596 89.9712 1.746 89.9592 1.926C89.9472 2.094 89.9052 2.19 89.8332 2.214C89.7972 2.238 89.6352 2.268 89.3472 2.304C89.0592 2.34 88.7232 2.364 88.3392 2.376C87.9552 2.388 87.5832 2.382 87.2232 2.358Z" fill="black"/>
<path d="M107.431 16.758C106.663 16.758 105.985 16.632 105.397 16.38C104.809 16.128 104.347 15.774 104.011 15.318C103.687 14.862 103.525 14.328 103.525 13.716C103.525 13.164 103.675 12.678 103.975 12.258C104.287 11.826 104.707 11.472 105.235 11.196C105.763 10.92 106.345 10.746 106.981 10.674C106.969 10.542 106.963 10.416 106.963 10.296C106.963 10.176 106.963 10.056 106.963 9.936L106.945 8.298C106.717 8.31 106.495 8.316 106.279 8.316C106.075 8.316 105.889 8.322 105.721 8.334C104.509 8.37 103.417 8.412 102.445 8.46C101.473 8.508 100.723 8.562 100.195 8.622C100.063 8.634 99.9729 8.622 99.9249 8.586C99.8769 8.55 99.8409 8.496 99.8169 8.424C99.7689 8.292 99.7269 8.16 99.6909 8.028C99.6549 7.896 99.6129 7.728 99.5649 7.524C99.5529 7.5 99.5589 7.47 99.5829 7.434C99.6069 7.386 99.6489 7.368 99.7089 7.38C100.165 7.44 100.789 7.488 101.581 7.524C102.373 7.548 103.243 7.554 104.191 7.542C104.923 7.542 105.703 7.536 106.531 7.524C107.359 7.5 108.181 7.476 108.997 7.452C109.825 7.416 110.605 7.38 111.337 7.344C112.081 7.308 112.735 7.266 113.299 7.218C113.875 7.17 114.319 7.116 114.631 7.056C114.751 7.032 114.829 7.038 114.865 7.074C114.901 7.11 114.925 7.158 114.937 7.218L115.045 8.01C115.057 8.178 114.943 8.256 114.703 8.244C114.331 8.22 113.827 8.208 113.191 8.208C112.567 8.208 111.889 8.214 111.157 8.226L108.097 8.28V9.756C108.097 10.116 108.073 10.416 108.025 10.656C108.673 10.68 109.255 10.806 109.771 11.034C110.287 11.25 110.695 11.568 110.995 11.988C111.295 12.396 111.445 12.906 111.445 13.518C111.445 14.154 111.271 14.718 110.923 15.21C110.575 15.702 110.095 16.08 109.483 16.344C108.883 16.62 108.199 16.758 107.431 16.758ZM102.697 6.192C102.697 6.192 102.685 6.198 102.661 6.21C102.589 6.234 102.499 6.258 102.391 6.282C102.283 6.294 102.181 6.234 102.085 6.102L101.707 5.598C101.671 5.538 101.665 5.502 101.689 5.49C101.725 5.466 101.761 5.448 101.797 5.436C101.809 5.436 101.815 5.436 101.815 5.436C102.571 5.22 103.309 4.914 104.029 4.518C104.761 4.11 105.397 3.642 105.937 3.114C106.477 2.574 106.849 2.004 107.053 1.404C106.525 1.404 106.063 1.422 105.667 1.458C105.475 1.47 105.199 1.488 104.839 1.512C104.479 1.536 104.119 1.56 103.759 1.584C103.411 1.596 103.135 1.614 102.931 1.638C102.799 1.662 102.715 1.65 102.679 1.602C102.643 1.554 102.607 1.494 102.571 1.422C102.571 1.41 102.571 1.404 102.571 1.404C102.523 1.272 102.487 1.158 102.463 1.062C102.439 0.966 102.403 0.816 102.355 0.612C102.343 0.588 102.349 0.558 102.373 0.522C102.397 0.485999 102.439 0.474 102.499 0.486C102.775 0.51 103.153 0.528 103.633 0.539999C104.125 0.551999 104.683 0.557999 105.307 0.557999C105.931 0.557999 106.573 0.551999 107.233 0.539999C108.085 0.516 108.919 0.48 109.735 0.432C110.551 0.372 111.241 0.294 111.805 0.198C111.841 0.186 111.883 0.192 111.931 0.215999C111.979 0.227999 112.009 0.263999 112.021 0.324C112.069 0.6 112.105 0.894 112.129 1.206C112.129 1.338 112.057 1.404 111.913 1.404L109.699 1.386H108.439C108.247 1.866 107.995 2.328 107.683 2.772C108.547 3.024 109.405 3.306 110.257 3.618C111.109 3.918 111.829 4.206 112.417 4.482C112.477 4.518 112.537 4.566 112.597 4.626C112.669 4.686 112.687 4.764 112.651 4.86C112.591 4.992 112.525 5.136 112.453 5.292C112.381 5.436 112.297 5.592 112.201 5.76C112.153 5.844 112.093 5.856 112.021 5.796C111.769 5.616 111.445 5.418 111.049 5.202C110.653 4.974 110.221 4.752 109.753 4.536C109.285 4.308 108.823 4.098 108.367 3.906C107.911 3.714 107.497 3.564 107.125 3.456C106.561 4.068 105.895 4.602 105.127 5.058C104.359 5.502 103.549 5.88 102.697 6.192ZM107.503 15.822C108.307 15.798 108.979 15.6 109.519 15.228C110.059 14.856 110.329 14.286 110.329 13.518C110.329 13.05 110.203 12.666 109.951 12.366C109.699 12.054 109.357 11.82 108.925 11.664C108.505 11.508 108.037 11.442 107.521 11.466C106.717 11.49 106.039 11.7 105.487 12.096C104.935 12.48 104.659 13.014 104.659 13.698C104.659 14.382 104.935 14.904 105.487 15.264C106.039 15.636 106.711 15.822 107.503 15.822Z" fill="black"/>
<path d="M123.604 9.288C123.58 9.288 123.55 9.282 123.514 9.27C123.478 9.258 123.46 9.222 123.46 9.162L123.442 3.384C123.442 3.06 123.418 2.73 123.37 2.394C123.322 2.058 123.28 1.83 123.244 1.71C123.208 1.59 123.25 1.53 123.37 1.53C123.43 1.53 123.544 1.536 123.712 1.548C123.88 1.548 124.042 1.554 124.198 1.566C124.366 1.566 124.462 1.566 124.486 1.566C124.546 1.578 124.576 1.638 124.576 1.746C124.564 2.058 124.558 2.382 124.558 2.718C124.558 3.042 124.558 3.36 124.558 3.672V4.248C124.786 4.248 125.098 4.248 125.494 4.248C125.89 4.248 126.316 4.242 126.772 4.23C127.24 4.218 127.69 4.206 128.122 4.194C128.554 4.182 128.92 4.164 129.22 4.14L129.238 3.168C129.25 2.712 129.232 2.346 129.184 2.07C129.148 1.782 129.1 1.578 129.04 1.458C129.016 1.398 129.016 1.356 129.04 1.332C129.076 1.296 129.118 1.278 129.166 1.278L130.318 1.296C130.378 1.308 130.408 1.368 130.408 1.476C130.396 1.872 130.384 2.226 130.372 2.538C130.36 2.838 130.354 3.198 130.354 3.618L130.318 8.856C130.318 9.012 130.234 9.09 130.066 9.09L124.612 9.198C124.54 9.198 124.426 9.204 124.27 9.216C124.126 9.228 123.982 9.246 123.838 9.27C123.706 9.282 123.628 9.288 123.604 9.288ZM133.972 11.808C133.924 11.808 133.9 11.778 133.9 11.718V7.524L132.964 7.56C132.676 7.572 132.358 7.59 132.01 7.614C131.662 7.638 131.344 7.662 131.056 7.686C130.924 7.698 130.84 7.692 130.804 7.668C130.78 7.632 130.756 7.578 130.732 7.506L130.624 6.786C130.6 6.678 130.642 6.636 130.75 6.66C130.942 6.684 131.218 6.702 131.578 6.714C131.938 6.726 132.322 6.732 132.73 6.732C133.15 6.72 133.54 6.702 133.9 6.678V3.96L133.144 3.978C132.856 3.99 132.538 4.008 132.19 4.032C131.842 4.056 131.524 4.08 131.236 4.104C131.104 4.116 131.02 4.11 130.984 4.086C130.948 4.062 130.924 4.008 130.912 3.924L130.804 3.204C130.78 3.096 130.822 3.054 130.93 3.078C131.11 3.102 131.362 3.12 131.686 3.132C132.022 3.144 132.388 3.15 132.784 3.15C133.18 3.15 133.552 3.138 133.9 3.114V2.214C133.9 1.758 133.882 1.338 133.846 0.954C133.822 0.569999 133.78 0.317999 133.72 0.198C133.696 0.138 133.696 0.0959998 133.72 0.0720001C133.756 0.0359999 133.798 0.0179998 133.846 0.0179998C134.014 0.0179998 134.212 0.0179998 134.44 0.0179998C134.668 0.0179998 134.86 0.0239997 135.016 0.0359995C135.076 0.0359995 135.106 0.0839996 135.106 0.18C135.07 0.624 135.046 1.014 135.034 1.35C135.034 1.674 135.034 2.052 135.034 2.484V11.358C135.034 11.538 135.022 11.646 134.998 11.682C134.986 11.718 134.95 11.742 134.89 11.754L133.972 11.808ZM124.576 8.262C124.816 8.274 125.146 8.28 125.566 8.28C125.986 8.28 126.43 8.274 126.898 8.262C127.378 8.25 127.822 8.232 128.23 8.208C128.65 8.184 128.974 8.16 129.202 8.136L129.22 5.076C128.92 5.076 128.554 5.076 128.122 5.076C127.69 5.076 127.24 5.082 126.772 5.094C126.304 5.094 125.872 5.1 125.476 5.112C125.08 5.124 124.774 5.136 124.558 5.148L124.576 8.262ZM128.086 16.038C127.702 16.038 127.408 15.894 127.204 15.606C127.012 15.33 126.916 14.934 126.916 14.418V12.996C126.916 12.576 126.898 12.228 126.862 11.952C126.826 11.676 126.79 11.478 126.754 11.358C126.718 11.238 126.76 11.178 126.88 11.178C126.952 11.178 127.072 11.184 127.24 11.196C127.42 11.196 127.588 11.202 127.744 11.214C127.912 11.226 128.002 11.232 128.014 11.232C128.074 11.232 128.104 11.292 128.104 11.412C128.08 11.688 128.062 11.934 128.05 12.15C128.05 12.354 128.05 12.612 128.05 12.924V14.31C128.05 14.61 128.086 14.82 128.158 14.94C128.242 15.048 128.374 15.108 128.554 15.12C128.89 15.132 129.298 15.138 129.778 15.138C130.27 15.15 130.78 15.15 131.308 15.138C131.848 15.114 132.358 15.09 132.838 15.066C133.342 15.042 133.864 15 134.404 14.94C134.944 14.868 135.358 14.796 135.646 14.724C135.766 14.7 135.844 14.706 135.88 14.742C135.916 14.778 135.94 14.826 135.952 14.886L136.096 15.732C136.096 15.792 136.078 15.84 136.042 15.876C136.018 15.912 135.922 15.93 135.754 15.93C134.566 15.93 133.342 15.948 132.082 15.984C130.822 16.02 129.49 16.038 128.086 16.038Z" fill="black"/>
<path d="M138.668 12.762C138.536 12.774 138.452 12.768 138.416 12.744C138.38 12.72 138.344 12.654 138.308 12.546C138.26 12.414 138.218 12.294 138.182 12.186C138.158 12.066 138.122 11.904 138.074 11.7C138.062 11.676 138.068 11.646 138.092 11.61C138.116 11.574 138.158 11.562 138.218 11.574C138.458 11.622 138.902 11.646 139.55 11.646C140.21 11.646 140.93 11.634 141.71 11.61C141.89 11.61 142.082 11.61 142.286 11.61C142.502 11.598 142.718 11.586 142.934 11.574L142.916 9.738C142.316 9.666 141.806 9.504 141.386 9.252C140.966 9 140.648 8.694 140.432 8.334C140.216 7.962 140.108 7.584 140.108 7.2C140.108 6.78 140.222 6.372 140.45 5.976C140.678 5.568 141.038 5.232 141.53 4.968C142.022 4.692 142.664 4.542 143.456 4.518C144.524 4.494 145.358 4.728 145.958 5.22C146.57 5.712 146.864 6.342 146.84 7.11C146.828 7.494 146.714 7.872 146.498 8.244C146.282 8.616 145.97 8.934 145.562 9.198C145.166 9.462 144.668 9.636 144.068 9.72L144.032 11.502C144.896 11.43 145.76 11.334 146.624 11.214C147.488 11.094 148.22 10.95 148.82 10.782C148.904 10.746 148.958 10.776 148.982 10.872L149.054 11.376C149.066 11.484 149.048 11.556 149 11.592C148.964 11.628 148.91 11.658 148.838 11.682C148.586 11.754 148.178 11.838 147.614 11.934C147.062 12.018 146.444 12.108 145.76 12.204C145.076 12.288 144.398 12.36 143.726 12.42C143.066 12.48 142.49 12.522 141.998 12.546C141.35 12.57 140.732 12.606 140.144 12.654C139.556 12.69 139.064 12.726 138.668 12.762ZM149.648 15.318C149.6 15.318 149.576 15.288 149.576 15.228V2.196C149.576 1.74 149.558 1.32 149.522 0.936C149.498 0.552 149.456 0.3 149.396 0.18C149.372 0.12 149.372 0.0779997 149.396 0.0539993C149.432 0.0179998 149.474 0 149.522 0L150.692 0.0179998C150.752 0.0419995 150.782 0.0899996 150.782 0.162C150.746 0.606 150.722 0.996 150.71 1.332C150.71 1.656 150.71 2.034 150.71 2.466V7.164C151.034 7.164 151.382 7.152 151.754 7.128C152.138 7.092 152.492 7.056 152.816 7.02C153.14 6.972 153.386 6.924 153.554 6.876C153.662 6.864 153.722 6.9 153.734 6.984C153.758 7.14 153.776 7.296 153.788 7.452C153.8 7.608 153.812 7.764 153.824 7.92C153.824 8.052 153.77 8.118 153.662 8.118C153.458 8.094 153.17 8.082 152.798 8.082C152.426 8.082 152.036 8.088 151.628 8.1C151.472 8.1 151.316 8.1 151.16 8.1C151.004 8.1 150.854 8.1 150.71 8.1V14.868C150.71 15.048 150.698 15.156 150.674 15.192C150.662 15.228 150.626 15.252 150.566 15.264C150.53 15.264 150.446 15.264 150.314 15.264C150.182 15.276 150.05 15.288 149.918 15.3C149.786 15.312 149.696 15.318 149.648 15.318ZM143.474 8.892C144.158 8.868 144.686 8.694 145.058 8.37C145.442 8.034 145.646 7.614 145.67 7.11C145.67 6.87 145.604 6.606 145.472 6.318C145.34 6.03 145.112 5.784 144.788 5.58C144.476 5.376 144.026 5.286 143.438 5.31C142.682 5.334 142.124 5.538 141.764 5.922C141.404 6.306 141.224 6.726 141.224 7.182C141.224 7.65 141.422 8.058 141.818 8.406C142.226 8.754 142.778 8.916 143.474 8.892ZM139.136 3.96C139.016 3.972 138.938 3.96 138.902 3.924C138.866 3.876 138.836 3.822 138.812 3.762C138.8 3.75 138.794 3.738 138.794 3.726C138.746 3.594 138.71 3.48 138.686 3.384C138.662 3.288 138.626 3.138 138.578 2.934C138.566 2.91 138.572 2.88 138.596 2.844C138.62 2.808 138.662 2.796 138.722 2.808C139.058 2.844 139.454 2.88 139.91 2.916C140.378 2.94 140.9 2.946 141.476 2.934C142.196 2.934 142.928 2.922 143.672 2.898C144.428 2.874 145.16 2.832 145.868 2.772C146.576 2.712 147.212 2.634 147.776 2.538C147.812 2.526 147.854 2.532 147.902 2.556C147.95 2.568 147.98 2.604 147.992 2.664C148.004 2.736 148.016 2.82 148.028 2.916C148.04 3 148.052 3.09 148.064 3.186C148.076 3.234 148.082 3.288 148.082 3.348C148.082 3.396 148.082 3.45 148.082 3.51C148.106 3.642 148.034 3.708 147.866 3.708C147.638 3.696 147.35 3.69 147.002 3.69C146.666 3.678 146.378 3.672 146.138 3.672C145.874 3.672 145.514 3.678 145.058 3.69C144.614 3.702 144.14 3.714 143.636 3.726C143.132 3.738 142.658 3.756 142.214 3.78C141.77 3.792 141.422 3.804 141.17 3.816C140.87 3.84 140.528 3.864 140.144 3.888C139.772 3.912 139.436 3.936 139.136 3.96ZM142.934 1.656C142.766 1.632 142.538 1.602 142.25 1.566C141.962 1.518 141.68 1.458 141.404 1.386C141.128 1.302 140.906 1.2 140.738 1.08C140.69 1.044 140.678 0.972 140.702 0.864C140.726 0.744 140.768 0.636 140.828 0.539999C140.888 0.431999 140.948 0.39 141.008 0.414C141.536 0.51 142.112 0.575999 142.736 0.612C143.372 0.635999 143.972 0.641999 144.536 0.629999C145.112 0.606 145.568 0.582 145.904 0.557999C146 0.545999 146.06 0.552 146.084 0.576C146.108 0.588 146.126 0.624 146.138 0.684C146.138 0.696 146.138 0.714 146.138 0.738C146.138 0.846 146.132 0.996 146.12 1.188C146.108 1.368 146.066 1.47 145.994 1.494C145.922 1.518 145.718 1.554 145.382 1.602C145.046 1.638 144.656 1.662 144.212 1.674C143.768 1.686 143.342 1.68 142.934 1.656Z" fill="black"/>
</g>
<defs>
<filter id="filter0_d_194_10" x="0" y="0" width="157.824" height="24.7581" filterUnits="userSpaceOnUse" color-interpolation-filters="sRGB">
<feFlood flood-opacity="0" result="BackgroundImageFix"/>
<feColorMatrix in="SourceAlpha" type="matrix" values="0 0 0 0 0 0 0 0 0 0 0 0 0 0 0 0 0 0 127 0" result="hardAlpha"/>
<feOffset dy="4"/>
<feGaussianBlur stdDeviation="2"/>
<feComposite in2="hardAlpha" operator="out"/>
<feColorMatrix type="matrix" values="0 0 0 0 0 0 0 0 0 0 0 0 0 0 0 0 0 0 0.25 0"/>
<feBlend mode="normal" in2="BackgroundImageFix" result="effect1_dropShadow_194_10"/>
<feBlend mode="normal" in="SourceGraphic" in2="effect1_dropShadow_194_10" result="shape"/>
</filter>
</defs>
</svg>
