<svg width="165" height="25" viewBox="0 0 165 25" fill="none" xmlns="http://www.w3.org/2000/svg">
<g filter="url(#filter0_d_194_8)">
<path d="M4.108 2.52343C4.036 2.52343 4 2.48743 4 2.41543V1.46143C4 1.38943 4.036 1.35343 4.108 1.35343H11.812C11.884 1.35343 11.92 1.38943 11.92 1.46143V2.07343C11.548 2.60143 11.17 3.25543 10.786 4.03543C10.414 4.81543 10.048 5.65543 9.688 6.55543C9.34 7.45543 9.016 8.36743 8.716 9.29143C8.428 10.2034 8.182 11.0734 7.978 11.9014C7.774 12.7174 7.636 13.4254 7.564 14.0254C7.564 14.0974 7.534 14.1454 7.474 14.1694L6.448 14.3854C6.364 14.4094 6.322 14.3854 6.322 14.3134C6.394 13.5814 6.55 12.7294 6.79 11.7574C7.042 10.7854 7.354 9.75943 7.726 8.67943C8.11 7.59943 8.524 6.53143 8.968 5.47543C9.424 4.40743 9.892 3.41143 10.372 2.48743L4.108 2.52343Z" fill="black"/>
<path d="M17.5727 7.90543C16.8887 7.91743 16.2587 7.79143 15.6827 7.52743C15.1187 7.25143 14.6627 6.86143 14.3147 6.35743C13.9787 5.85343 13.8107 5.27143 13.8107 4.61143C13.8107 3.96343 13.9847 3.38743 14.3327 2.88343C14.6807 2.36743 15.1367 1.95943 15.7007 1.65943C16.2767 1.34743 16.9067 1.18543 17.5907 1.17343C18.2867 1.14943 18.9167 1.26943 19.4807 1.53343C20.0567 1.78543 20.5127 2.16343 20.8487 2.66743C21.1967 3.15943 21.3707 3.75943 21.3707 4.46743C21.3707 5.10343 21.1967 5.67943 20.8487 6.19543C20.5007 6.71143 20.0387 7.11943 19.4627 7.41943C18.8867 7.71943 18.2567 7.88143 17.5727 7.90543ZM18.5627 16.3834C18.1907 16.3714 17.8967 16.2454 17.6807 16.0054C17.4647 15.7654 17.3567 15.3874 17.3567 14.8714V13.9534C17.3567 13.7614 17.3447 13.5694 17.3207 13.3774C17.2967 13.1854 17.2427 13.0114 17.1587 12.8554C17.1347 12.8074 17.1347 12.7594 17.1587 12.7114C17.1827 12.6634 17.2367 12.6394 17.3207 12.6394C17.6327 12.6514 18.0347 12.6634 18.5267 12.6754C19.0187 12.6754 19.5587 12.6754 20.1467 12.6754C20.7347 12.6754 21.3167 12.6694 21.8927 12.6574C22.4807 12.6334 23.0147 12.6094 23.4947 12.5854C23.9867 12.5614 24.3767 12.5254 24.6647 12.4774L24.7187 10.9294C24.7187 10.9174 24.7187 10.8994 24.7187 10.8754C24.7187 10.8154 24.7127 10.7794 24.7007 10.7674C24.6887 10.7434 24.6347 10.7314 24.5387 10.7314C24.2747 10.7314 23.8967 10.7374 23.4047 10.7494C22.9127 10.7614 22.3847 10.7794 21.8207 10.8034C21.2687 10.8154 20.7407 10.8334 20.2367 10.8574C19.7327 10.8694 19.3247 10.8874 19.0127 10.9114L17.6267 11.0014C17.4947 11.0134 17.4107 11.0014 17.3747 10.9654C17.3387 10.9174 17.3087 10.8514 17.2847 10.7674L17.1767 10.1014C17.1527 10.0054 17.2007 9.96343 17.3207 9.97543C17.5247 9.98743 17.8367 9.99943 18.2567 10.0114C18.6887 10.0234 19.1807 10.0294 19.7327 10.0294C20.2967 10.0174 20.8787 9.99943 21.4787 9.97543C22.0787 9.95143 22.6547 9.92143 23.2067 9.88543C23.7587 9.84943 24.2387 9.80143 24.6467 9.74143C24.6707 9.74143 24.6947 9.73543 24.7187 9.72343C24.8027 9.71143 24.8687 9.71143 24.9167 9.72343L25.8347 9.86743C25.8947 9.87943 25.9247 9.90343 25.9247 9.93943C25.9367 9.96343 25.9427 9.98743 25.9427 10.0114C25.9427 10.0234 25.9427 10.0294 25.9427 10.0294C25.8827 10.5694 25.8347 11.0794 25.7987 11.5594C25.7627 12.0394 25.7267 12.5494 25.6907 13.0894C25.6787 13.2214 25.6427 13.3054 25.5827 13.3414C25.5227 13.3654 25.4627 13.3774 25.4027 13.3774C25.0067 13.3774 24.5147 13.3834 23.9267 13.3954C23.3387 13.4074 22.7147 13.4194 22.0547 13.4314C21.4067 13.4434 20.7707 13.4614 20.1467 13.4854C19.5227 13.4974 18.9707 13.5094 18.4907 13.5214V14.7994C18.4907 15.0754 18.5147 15.2494 18.5627 15.3214C18.6227 15.4054 18.7547 15.4534 18.9587 15.4654C19.7387 15.4894 20.5667 15.4954 21.4427 15.4834C22.3187 15.4714 23.1467 15.4414 23.9267 15.3934C24.4187 15.3694 24.8687 15.3334 25.2767 15.2854C25.6847 15.2374 26.0447 15.1714 26.3567 15.0874C26.4767 15.0634 26.5547 15.0694 26.5907 15.1054C26.6267 15.1414 26.6507 15.1894 26.6627 15.2494L26.7707 16.0054C26.7827 16.0654 26.7647 16.1194 26.7167 16.1674C26.6687 16.2154 26.5607 16.2394 26.3927 16.2394C25.5527 16.2394 24.6767 16.2454 23.7647 16.2574C22.8527 16.2814 21.9527 16.2994 21.0647 16.3114C20.1887 16.3354 19.3547 16.3594 18.5627 16.3834ZM17.5907 7.00543C18.3227 6.98143 18.9347 6.74143 19.4267 6.28543C19.9187 5.82943 20.1647 5.22343 20.1647 4.46743C20.1647 3.63943 19.9127 3.02743 19.4087 2.63143C18.9167 2.23543 18.3047 2.04943 17.5727 2.07343C16.8527 2.09743 16.2407 2.33743 15.7367 2.79343C15.2327 3.24943 14.9807 3.84943 14.9807 4.59343C14.9807 5.38543 15.2327 5.99143 15.7367 6.41143C16.2527 6.83143 16.8707 7.02943 17.5907 7.00543ZM24.8267 8.80543C24.7787 8.80543 24.7547 8.77543 24.7547 8.71543V2.37943C24.7547 1.92343 24.7367 1.50343 24.7007 1.11943C24.6767 0.735428 24.6347 0.483428 24.5747 0.363428C24.5507 0.303428 24.5507 0.261429 24.5747 0.237429C24.6107 0.201429 24.6527 0.183429 24.7007 0.183429C24.7967 0.183429 24.9587 0.183429 25.1867 0.183429C25.4267 0.183429 25.6547 0.189428 25.8707 0.201428C25.9307 0.201428 25.9607 0.249428 25.9607 0.345429C25.9247 0.789429 25.9007 1.17943 25.8887 1.51543C25.8887 1.83943 25.8887 2.21743 25.8887 2.64943V8.35543C25.8887 8.53543 25.8767 8.64343 25.8527 8.67943C25.8407 8.71543 25.8047 8.73943 25.7447 8.75143L24.8267 8.80543Z" fill="black"/>
<path d="M41.7051 0.363428L35.8011 15.6634H34.8651L40.7511 0.363428H41.7051Z" fill="black"/>
<path d="M49.6173 11.9734C49.6653 11.9014 49.7133 11.9014 49.7613 11.9734C50.1453 12.3694 50.5593 12.6574 51.0033 12.8374C51.4593 13.0054 51.9633 13.0894 52.5153 13.0894C53.5833 13.0894 54.4293 12.8014 55.0533 12.2254C55.6893 11.6494 56.0073 10.9054 56.0073 9.99343C56.0073 9.33343 55.7973 8.75143 55.3773 8.24743C54.9573 7.74343 54.4173 7.44343 53.7573 7.34743C53.2173 7.49143 52.6413 7.56343 52.0293 7.56343H51.6513C51.5793 7.56343 51.5433 7.52743 51.5433 7.45543L51.5613 6.71743C51.5613 6.64543 51.5973 6.60943 51.6693 6.60943H52.0293C52.6893 6.60943 53.2773 6.51343 53.7933 6.32143C54.3093 6.12943 54.7173 5.84743 55.0173 5.47543C55.3173 5.09143 55.4673 4.61143 55.4673 4.03543C55.4673 3.44743 55.2693 2.97343 54.8733 2.61343C54.4773 2.25343 53.9373 2.07343 53.2533 2.07343C52.6293 2.07343 52.0653 2.22943 51.5613 2.54143C51.0693 2.85343 50.7573 3.24943 50.6253 3.72943C50.6133 3.80143 50.5713 3.82543 50.4993 3.80143L49.5993 3.51343C49.5273 3.48943 49.5033 3.44143 49.5273 3.36943C49.6833 2.90143 49.9473 2.49943 50.3193 2.16343C50.6913 1.81543 51.1293 1.55143 51.6333 1.37143C52.1493 1.17943 52.6773 1.08343 53.2173 1.08343C54.2613 1.08343 55.0893 1.35343 55.7013 1.89343C56.3253 2.42143 56.6373 3.12943 56.6373 4.01743C56.6373 4.61743 56.4993 5.15143 56.2233 5.61943C55.9473 6.07543 55.5693 6.45943 55.0893 6.77143C55.7493 7.05943 56.2593 7.49143 56.6193 8.06743C56.9913 8.64343 57.1773 9.28543 57.1773 9.99343C57.1773 10.7854 56.9793 11.4934 56.5833 12.1174C56.1993 12.7294 55.6533 13.2154 54.9453 13.5754C54.2493 13.9234 53.4393 14.0974 52.5153 14.0974C51.8553 14.0974 51.2193 13.9894 50.6073 13.7734C50.0073 13.5454 49.4793 13.2154 49.0233 12.7834C48.9753 12.7354 48.9753 12.6814 49.0233 12.6214L49.6173 11.9734Z" fill="black"/>
<path d="M62.938 14.1334C61.606 14.1334 60.61 13.6174 59.95 12.5854C59.302 11.5534 58.978 9.96943 58.978 7.83343V7.38343C58.978 5.23543 59.302 3.65143 59.95 2.63143C60.61 1.59943 61.606 1.08343 62.938 1.08343C64.27 1.08343 65.26 1.59943 65.908 2.63143C66.568 3.65143 66.898 5.23543 66.898 7.38343V7.83343C66.898 9.96943 66.568 11.5534 65.908 12.5854C65.26 13.6174 64.27 14.1334 62.938 14.1334ZM62.938 13.1254C63.898 13.1254 64.6 12.6934 65.044 11.8294C65.5 10.9534 65.728 9.62143 65.728 7.83343V7.38343C65.728 5.53543 65.5 4.19143 65.044 3.35143C64.6 2.49943 63.898 2.07343 62.938 2.07343C61.978 2.07343 61.27 2.49943 60.814 3.35143C60.37 4.19143 60.148 5.53543 60.148 7.38343V7.83343C60.148 9.62143 60.37 10.9534 60.814 11.8294C61.27 12.6934 61.978 13.1254 62.938 13.1254Z" fill="black"/>
<path d="M72.8207 7.90543C72.1367 7.91743 71.5067 7.79143 70.9307 7.52743C70.3667 7.25143 69.9108 6.86143 69.5628 6.35743C69.2268 5.85343 69.0587 5.27143 69.0587 4.61143C69.0587 3.96343 69.2327 3.38743 69.5807 2.88343C69.9287 2.36743 70.3848 1.95943 70.9488 1.65943C71.5248 1.34743 72.1548 1.18543 72.8388 1.17343C73.5348 1.14943 74.1648 1.26943 74.7288 1.53343C75.3048 1.78543 75.7607 2.16343 76.0967 2.66743C76.4447 3.15943 76.6188 3.75943 76.6188 4.46743C76.6188 5.10343 76.4447 5.67943 76.0967 6.19543C75.7487 6.71143 75.2867 7.11943 74.7107 7.41943C74.1347 7.71943 73.5047 7.88143 72.8207 7.90543ZM73.8108 16.3834C73.4388 16.3714 73.1447 16.2454 72.9287 16.0054C72.7127 15.7654 72.6048 15.3874 72.6048 14.8714V13.9534C72.6048 13.7614 72.5927 13.5694 72.5687 13.3774C72.5447 13.1854 72.4908 13.0114 72.4068 12.8554C72.3828 12.8074 72.3828 12.7594 72.4068 12.7114C72.4308 12.6634 72.4847 12.6394 72.5687 12.6394C72.8807 12.6514 73.2827 12.6634 73.7747 12.6754C74.2667 12.6754 74.8068 12.6754 75.3948 12.6754C75.9828 12.6754 76.5647 12.6694 77.1407 12.6574C77.7287 12.6334 78.2628 12.6094 78.7428 12.5854C79.2348 12.5614 79.6248 12.5254 79.9128 12.4774L79.9668 10.9294C79.9668 10.9174 79.9668 10.8994 79.9668 10.8754C79.9668 10.8154 79.9608 10.7794 79.9488 10.7674C79.9368 10.7434 79.8828 10.7314 79.7868 10.7314C79.5228 10.7314 79.1447 10.7374 78.6527 10.7494C78.1607 10.7614 77.6327 10.7794 77.0687 10.8034C76.5167 10.8154 75.9887 10.8334 75.4847 10.8574C74.9807 10.8694 74.5727 10.8874 74.2607 10.9114L72.8747 11.0014C72.7427 11.0134 72.6587 11.0014 72.6227 10.9654C72.5867 10.9174 72.5568 10.8514 72.5328 10.7674L72.4248 10.1014C72.4008 10.0054 72.4487 9.96343 72.5687 9.97543C72.7727 9.98743 73.0848 9.99943 73.5048 10.0114C73.9368 10.0234 74.4288 10.0294 74.9808 10.0294C75.5448 10.0174 76.1268 9.99943 76.7268 9.97543C77.3268 9.95143 77.9028 9.92143 78.4548 9.88543C79.0068 9.84943 79.4868 9.80143 79.8948 9.74143C79.9188 9.74143 79.9428 9.73543 79.9668 9.72343C80.0508 9.71143 80.1167 9.71143 80.1647 9.72343L81.0827 9.86743C81.1427 9.87943 81.1728 9.90343 81.1728 9.93943C81.1848 9.96343 81.1908 9.98743 81.1908 10.0114C81.1908 10.0234 81.1908 10.0294 81.1908 10.0294C81.1308 10.5694 81.0828 11.0794 81.0468 11.5594C81.0108 12.0394 80.9748 12.5494 80.9388 13.0894C80.9268 13.2214 80.8907 13.3054 80.8307 13.3414C80.7707 13.3654 80.7107 13.3774 80.6507 13.3774C80.2547 13.3774 79.7628 13.3834 79.1748 13.3954C78.5868 13.4074 77.9627 13.4194 77.3027 13.4314C76.6548 13.4434 76.0188 13.4614 75.3948 13.4854C74.7708 13.4974 74.2187 13.5094 73.7387 13.5214V14.7994C73.7387 15.0754 73.7628 15.2494 73.8108 15.3214C73.8708 15.4054 74.0027 15.4534 74.2067 15.4654C74.9867 15.4894 75.8148 15.4954 76.6908 15.4834C77.5668 15.4714 78.3948 15.4414 79.1748 15.3934C79.6668 15.3694 80.1168 15.3334 80.5247 15.2854C80.9328 15.2374 81.2928 15.1714 81.6048 15.0874C81.7248 15.0634 81.8028 15.0694 81.8388 15.1054C81.8748 15.1414 81.8988 15.1894 81.9108 15.2494L82.0188 16.0054C82.0308 16.0654 82.0128 16.1194 81.9648 16.1674C81.9168 16.2154 81.8087 16.2394 81.6407 16.2394C80.8007 16.2394 79.9247 16.2454 79.0127 16.2574C78.1007 16.2814 77.2008 16.2994 76.3128 16.3114C75.4368 16.3354 74.6028 16.3594 73.8108 16.3834ZM72.8388 7.00543C73.5708 6.98143 74.1828 6.74143 74.6748 6.28543C75.1668 5.82943 75.4128 5.22343 75.4128 4.46743C75.4128 3.63943 75.1608 3.02743 74.6568 2.63143C74.1648 2.23543 73.5527 2.04943 72.8207 2.07343C72.1007 2.09743 71.4887 2.33743 70.9847 2.79343C70.4807 3.24943 70.2288 3.84943 70.2288 4.59343C70.2288 5.38543 70.4807 5.99143 70.9847 6.41143C71.5007 6.83143 72.1188 7.02943 72.8388 7.00543ZM80.0748 8.80543C80.0268 8.80543 80.0028 8.77543 80.0028 8.71543V2.37943C80.0028 1.92343 79.9848 1.50343 79.9488 1.11943C79.9248 0.735428 79.8828 0.483428 79.8228 0.363428C79.7988 0.303428 79.7988 0.261429 79.8228 0.237429C79.8588 0.201429 79.9008 0.183429 79.9488 0.183429C80.0448 0.183429 80.2068 0.183429 80.4348 0.183429C80.6748 0.183429 80.9028 0.189428 81.1188 0.201428C81.1788 0.201428 81.2087 0.249428 81.2087 0.345429C81.1727 0.789429 81.1487 1.17943 81.1367 1.51543C81.1367 1.83943 81.1367 2.21743 81.1367 2.64943V8.35543C81.1367 8.53543 81.1248 8.64343 81.1008 8.67943C81.0888 8.71543 81.0528 8.73943 80.9928 8.75143L80.0748 8.80543Z" fill="black"/>
<path d="M97.6011 7.02343C96.8571 7.04743 96.1671 6.92143 95.5311 6.64543C94.8951 6.36943 94.3851 5.97943 94.0011 5.47543C93.6171 4.95943 93.4131 4.37143 93.3891 3.71143C93.3891 3.07543 93.5811 2.50543 93.9651 2.00143C94.3611 1.48543 94.8771 1.07143 95.5131 0.759429C96.1611 0.447428 96.8631 0.279428 97.6191 0.255429C98.4711 0.219428 99.2091 0.333428 99.8331 0.597429C100.469 0.861429 100.961 1.24543 101.309 1.74943C101.669 2.25343 101.849 2.85943 101.849 3.56743C101.849 4.22743 101.651 4.81543 101.255 5.33143C100.871 5.84743 100.355 6.25543 99.7071 6.55543C99.0591 6.84343 98.3571 6.99943 97.6011 7.02343ZM97.6371 6.12343C98.5251 6.08743 99.2391 5.83543 99.7791 5.36743C100.331 4.88743 100.619 4.28143 100.643 3.54943C100.643 2.74543 100.361 2.13943 99.7971 1.73143C99.2451 1.32343 98.5191 1.11943 97.6191 1.11943C97.0431 1.11943 96.5271 1.23943 96.0711 1.47943C95.6151 1.70743 95.2491 2.01343 94.9731 2.39743C94.7091 2.78143 94.5771 3.20743 94.5771 3.67543C94.5771 4.17943 94.7091 4.62343 94.9731 5.00743C95.2491 5.37943 95.6151 5.66143 96.0711 5.85343C96.5391 6.04543 97.0611 6.13543 97.6371 6.12343ZM97.2591 15.5194C97.2111 15.5194 97.1871 15.4894 97.1871 15.4294V9.86743C95.7471 9.89143 94.4391 9.93343 93.2631 9.99343C92.0871 10.0414 91.1631 10.0954 90.4911 10.1554C90.3591 10.1674 90.2691 10.1554 90.2211 10.1194C90.1731 10.0834 90.1371 10.0294 90.1131 9.95743C90.0651 9.82543 90.0231 9.69343 89.9871 9.56143C89.9511 9.41743 89.9091 9.24343 89.8611 9.03943C89.8491 9.01543 89.8551 8.98543 89.8791 8.94943C89.9031 8.90143 89.9451 8.88343 90.0051 8.89543C90.4611 8.95543 91.0791 8.99743 91.8591 9.02143C92.6511 9.03343 93.5211 9.03943 94.4691 9.03943C95.3931 9.03943 96.3651 9.02743 97.3851 9.00343C98.4171 8.97943 99.4191 8.94943 100.391 8.91343C101.363 8.87743 102.227 8.82943 102.983 8.76943C103.751 8.70943 104.333 8.64343 104.729 8.57143C104.849 8.54743 104.927 8.55343 104.963 8.58943C104.999 8.62543 105.023 8.67343 105.035 8.73343L105.143 9.59743C105.143 9.65743 105.125 9.71143 105.089 9.75943C105.053 9.80743 104.957 9.83143 104.801 9.83143C104.393 9.81943 103.919 9.81343 103.379 9.81343C102.839 9.81343 102.263 9.81343 101.651 9.81343C101.087 9.81343 100.529 9.81943 99.9771 9.83143C99.4251 9.83143 98.8791 9.83743 98.3391 9.84943V15.0694C98.3391 15.2494 98.3271 15.3574 98.3031 15.3934C98.2911 15.4294 98.2551 15.4534 98.1951 15.4654C98.1471 15.4654 98.0571 15.4654 97.9251 15.4654C97.7931 15.4774 97.6611 15.4894 97.5291 15.5014C97.3971 15.5134 97.3071 15.5194 97.2591 15.5194Z" fill="black"/>
<path d="M111.775 16.3834C111.403 16.3714 111.115 16.2514 110.911 16.0234C110.719 15.7954 110.623 15.4234 110.623 14.9074V14.1694C110.623 13.7974 110.557 13.4314 110.425 13.0714C110.401 13.0354 110.407 12.9874 110.443 12.9274C110.479 12.8674 110.539 12.8434 110.623 12.8554C110.755 12.8674 111.037 12.8794 111.469 12.8914C111.913 12.9034 112.435 12.9094 113.035 12.9094C113.635 12.9094 114.247 12.9034 114.871 12.8914C115.507 12.8794 116.089 12.8614 116.617 12.8374C117.157 12.8134 117.571 12.7834 117.859 12.7474L117.895 11.3794C117.895 11.2474 117.835 11.1814 117.715 11.1814C117.451 11.1814 117.085 11.1874 116.617 11.1994C116.149 11.2114 115.651 11.2234 115.123 11.2354C114.595 11.2474 114.091 11.2654 113.611 11.2894C113.131 11.3014 112.741 11.3134 112.441 11.3254L110.839 11.3974C110.731 11.4094 110.653 11.4034 110.605 11.3794C110.557 11.3434 110.521 11.2714 110.497 11.1634L110.371 10.5334C110.359 10.5094 110.365 10.4794 110.389 10.4434C110.413 10.4074 110.455 10.3954 110.515 10.4074C110.791 10.4314 111.265 10.4494 111.937 10.4614C112.609 10.4734 113.341 10.4734 114.133 10.4614L114.115 8.48143C113.911 8.49343 113.719 8.50543 113.539 8.51743C113.359 8.51743 113.185 8.51743 113.017 8.51743C111.805 8.55343 110.713 8.59543 109.741 8.64343C108.769 8.69143 108.019 8.74543 107.491 8.80543C107.359 8.81743 107.269 8.80543 107.221 8.76943C107.173 8.73343 107.137 8.67943 107.113 8.60743C107.065 8.47543 107.023 8.34343 106.987 8.21143C106.951 8.07943 106.909 7.91143 106.861 7.70743C106.849 7.68343 106.855 7.65343 106.879 7.61743C106.903 7.56943 106.945 7.55143 107.005 7.56343C107.461 7.62343 108.085 7.67143 108.877 7.70743C109.669 7.73143 110.539 7.73743 111.487 7.72543C112.219 7.72543 112.999 7.71943 113.827 7.70743C114.655 7.68343 115.477 7.65943 116.293 7.63543C117.121 7.59943 117.901 7.56343 118.633 7.52743C119.377 7.49143 120.031 7.44943 120.595 7.40143C121.171 7.35343 121.615 7.29943 121.927 7.23943C122.047 7.21543 122.125 7.22143 122.161 7.25743C122.197 7.29343 122.221 7.34143 122.233 7.40143L122.341 8.19343C122.353 8.36143 122.239 8.43943 121.999 8.42743C121.627 8.40343 121.123 8.39143 120.487 8.39143C119.863 8.39143 119.185 8.39743 118.453 8.40943L115.267 8.46343V9.74143C115.267 9.87343 115.261 9.99943 115.249 10.1194C115.249 10.2274 115.243 10.3354 115.231 10.4434C116.263 10.4074 117.139 10.3414 117.859 10.2454C117.883 10.2454 117.907 10.2394 117.931 10.2274C118.015 10.2154 118.081 10.2154 118.129 10.2274L119.047 10.3534C119.119 10.3654 119.155 10.4194 119.155 10.5154C119.095 11.0434 119.047 11.5174 119.011 11.9374C118.987 12.3454 118.957 12.8134 118.921 13.3414C118.909 13.4614 118.885 13.5394 118.849 13.5754C118.813 13.6114 118.741 13.6294 118.633 13.6294C118.225 13.6294 117.721 13.6354 117.121 13.6474C116.533 13.6474 115.909 13.6534 115.249 13.6654C114.589 13.6654 113.953 13.6714 113.341 13.6834C112.729 13.6954 112.201 13.7134 111.757 13.7374V14.8354C111.757 15.1114 111.775 15.2794 111.811 15.3394C111.847 15.4114 111.967 15.4534 112.171 15.4654C112.951 15.4894 113.767 15.4954 114.619 15.4834C115.471 15.4714 116.287 15.4414 117.067 15.3934C117.571 15.3694 118.027 15.3334 118.435 15.2854C118.843 15.2374 119.197 15.1774 119.497 15.1054C119.617 15.0814 119.695 15.0874 119.731 15.1234C119.767 15.1594 119.791 15.2074 119.803 15.2674L119.911 16.0594C119.911 16.1194 119.887 16.1734 119.839 16.2214C119.803 16.2694 119.701 16.2934 119.533 16.2934C118.261 16.2934 116.947 16.2994 115.591 16.3114C114.235 16.3354 112.963 16.3594 111.775 16.3834ZM114.637 6.19543C113.881 6.20743 113.191 6.09943 112.567 5.87143C111.955 5.63143 111.463 5.27743 111.091 4.80943C110.731 4.34143 110.551 3.78343 110.551 3.13543C110.551 2.52343 110.731 1.98943 111.091 1.53343C111.463 1.06543 111.961 0.699429 112.585 0.435429C113.209 0.159428 113.899 0.0154285 114.655 0.00342868C115.423 -0.0205717 116.119 0.0814281 116.743 0.309428C117.367 0.525428 117.859 0.861428 118.219 1.31743C118.591 1.76143 118.765 2.31943 118.741 2.99143C118.729 3.62743 118.543 4.18543 118.183 4.66543C117.823 5.13343 117.337 5.49943 116.725 5.76343C116.125 6.02743 115.429 6.17143 114.637 6.19543ZM114.655 5.31343C115.519 5.28943 116.209 5.07943 116.725 4.68343C117.253 4.27543 117.529 3.70543 117.553 2.97343C117.577 2.22943 117.307 1.68343 116.743 1.33543C116.191 0.975428 115.489 0.807428 114.637 0.831429C113.797 0.855428 113.095 1.07143 112.531 1.47943C111.979 1.88743 111.703 2.42743 111.703 3.09943C111.703 3.84343 111.973 4.40743 112.513 4.79143C113.065 5.16343 113.779 5.33743 114.655 5.31343Z" fill="black"/>
<path d="M129.892 11.3254C129.832 11.2774 129.748 11.2174 129.64 11.1454C129.544 11.0614 129.466 10.9894 129.406 10.9294C129.334 10.8454 129.34 10.7794 129.424 10.7314C130.624 9.87943 131.566 8.99143 132.25 8.06743C132.946 7.14343 133.444 6.24343 133.744 5.36743C134.056 4.47943 134.236 3.68743 134.284 2.99143C133.972 3.01543 133.702 3.03343 133.474 3.04543C133.246 3.05743 133.09 3.06343 133.006 3.06343L131.026 3.24343C130.906 3.25543 130.828 3.24343 130.792 3.20743C130.756 3.15943 130.726 3.10543 130.702 3.04543C130.69 3.03343 130.684 3.02143 130.684 3.00943C130.636 2.87743 130.6 2.76343 130.576 2.66743C130.564 2.55943 130.534 2.40343 130.486 2.19943C130.474 2.11543 130.522 2.07343 130.63 2.07343C130.966 2.09743 131.278 2.11543 131.566 2.12743C131.866 2.12743 132.304 2.12743 132.88 2.12743C133.528 2.12743 134.11 2.11543 134.626 2.09143C135.154 2.06743 135.64 2.03743 136.084 2.00143C136.552 1.96543 136.93 1.93543 137.218 1.91143C137.518 1.88743 137.776 1.86343 137.992 1.83943C138.22 1.80343 138.46 1.77343 138.712 1.74943C138.748 1.74943 138.79 1.75543 138.838 1.76743C138.886 1.77943 138.916 1.81543 138.928 1.87543C138.94 1.94743 138.952 2.03143 138.964 2.12743C138.988 2.22343 139.006 2.31943 139.018 2.41543L139.054 2.73943C139.078 2.87143 139.006 2.93743 138.838 2.93743C138.61 2.92543 138.352 2.91943 138.064 2.91943C137.788 2.91943 137.53 2.91943 137.29 2.91943C137.086 2.91943 136.84 2.92543 136.552 2.93743C136.276 2.93743 135.976 2.94343 135.652 2.95543C135.58 3.91543 135.292 4.94743 134.788 6.05143C135.364 6.45943 135.94 6.89143 136.516 7.34743C137.092 7.79143 137.614 8.21743 138.082 8.62543C138.55 9.02143 138.91 9.36343 139.162 9.65143C139.21 9.71143 139.246 9.78343 139.27 9.86743C139.306 9.93943 139.294 10.0174 139.234 10.1014C139.126 10.2334 139 10.3534 138.856 10.4614C138.724 10.5574 138.592 10.6594 138.46 10.7674C138.388 10.8274 138.328 10.8154 138.28 10.7314C138.112 10.4674 137.878 10.1614 137.578 9.81343C137.29 9.46543 136.96 9.11143 136.588 8.75143C136.228 8.37943 135.856 8.02543 135.472 7.68943C135.1 7.35343 134.746 7.05943 134.41 6.80743C133.99 7.56343 133.456 8.31943 132.808 9.07543C132.16 9.83143 131.38 10.5574 130.468 11.2534C130.456 11.2654 130.438 11.2774 130.414 11.2894C130.33 11.3494 130.252 11.3914 130.18 11.4154C130.108 11.4274 130.012 11.3974 129.892 11.3254ZM140.998 15.4834C140.95 15.4834 140.926 15.4534 140.926 15.3934V2.39743C140.926 1.94143 140.908 1.52143 140.872 1.13743C140.848 0.741428 140.806 0.483428 140.746 0.363428C140.722 0.303428 140.722 0.261429 140.746 0.237429C140.782 0.201429 140.824 0.183429 140.872 0.183429C140.944 0.183429 141.064 0.189428 141.232 0.201428C141.412 0.201428 141.586 0.207428 141.754 0.219428C141.922 0.219428 142.018 0.219428 142.042 0.219428C142.102 0.219428 142.132 0.267428 142.132 0.363428C142.096 0.807428 142.072 1.19743 142.06 1.53343C142.06 1.85743 142.06 2.23543 142.06 2.66743V15.0334C142.06 15.2134 142.048 15.3214 142.024 15.3574C142.012 15.3934 141.976 15.4174 141.916 15.4294L140.998 15.4834Z" fill="black"/>
<path d="M152.525 15.5194C152.477 15.5194 152.453 15.4894 152.453 15.4294V9.61543C151.013 9.63943 149.705 9.68143 148.529 9.74143C147.353 9.78943 146.429 9.84343 145.757 9.90343C145.625 9.91543 145.535 9.90343 145.487 9.86743C145.439 9.83143 145.403 9.77743 145.379 9.70543C145.331 9.57343 145.289 9.44143 145.253 9.30943C145.217 9.16543 145.175 8.99143 145.127 8.78743C145.115 8.76343 145.121 8.73343 145.145 8.69743C145.169 8.64943 145.211 8.63143 145.271 8.64343C145.727 8.70343 146.345 8.74543 147.125 8.76943C147.917 8.78143 148.787 8.78743 149.735 8.78743C150.659 8.78743 151.631 8.77543 152.651 8.75143C153.683 8.72743 154.685 8.69743 155.657 8.66143C156.629 8.62543 157.493 8.57743 158.249 8.51743C159.017 8.45743 159.599 8.39143 159.995 8.31943C160.115 8.29543 160.193 8.30143 160.229 8.33743C160.265 8.37343 160.289 8.42143 160.301 8.48143L160.409 9.34543C160.409 9.40543 160.391 9.45943 160.355 9.50743C160.319 9.55543 160.223 9.57943 160.067 9.57943C159.659 9.56743 159.185 9.56143 158.645 9.56143C158.105 9.56143 157.529 9.56143 156.917 9.56143C156.353 9.56143 155.795 9.56743 155.243 9.57943C154.691 9.57943 154.145 9.58543 153.605 9.59743V15.0694C153.605 15.2494 153.593 15.3574 153.569 15.3934C153.557 15.4294 153.521 15.4534 153.461 15.4654C153.413 15.4654 153.323 15.4654 153.191 15.4654C153.059 15.4774 152.927 15.4894 152.795 15.5014C152.663 15.5134 152.573 15.5194 152.525 15.5194ZM147.647 7.02343C147.647 7.02343 147.641 7.02343 147.629 7.02343C147.557 7.04743 147.473 7.06543 147.377 7.07743C147.281 7.08943 147.185 7.02943 147.089 6.89743L146.729 6.50143C146.693 6.44143 146.687 6.40543 146.711 6.39343C146.747 6.36943 146.783 6.35143 146.819 6.33943C146.831 6.33943 146.837 6.33943 146.837 6.33943C147.641 6.05143 148.379 5.68543 149.051 5.24143C149.723 4.79743 150.317 4.32343 150.833 3.81943C151.361 3.30343 151.787 2.80543 152.111 2.32543C152.315 2.00143 152.483 1.66543 152.615 1.31743C152.759 0.969428 152.849 0.681428 152.885 0.453428C152.921 0.345428 152.999 0.315428 153.119 0.363428L154.199 0.849429C154.307 0.897429 154.325 0.969429 154.253 1.06543C154.133 1.29343 153.959 1.58743 153.731 1.94743C153.503 2.29543 153.287 2.60743 153.083 2.88343C153.755 3.13543 154.427 3.40543 155.099 3.69343C155.771 3.96943 156.395 4.24543 156.971 4.52143C157.559 4.78543 158.045 5.03143 158.429 5.25943C158.489 5.29543 158.549 5.34943 158.609 5.42143C158.669 5.48143 158.681 5.55943 158.645 5.65543C158.585 5.78743 158.519 5.93143 158.447 6.08743C158.375 6.23143 158.291 6.37543 158.195 6.51943C158.147 6.60343 158.087 6.61543 158.015 6.55543C157.739 6.31543 157.379 6.05743 156.935 5.78143C156.491 5.49343 156.005 5.21143 155.477 4.93543C154.961 4.64743 154.445 4.38943 153.929 4.16143C153.413 3.92143 152.951 3.72943 152.543 3.58543C152.183 4.01743 151.739 4.44943 151.211 4.88143C150.695 5.31343 150.131 5.71543 149.519 6.08743C148.919 6.44743 148.295 6.75943 147.647 7.02343Z" fill="black"/>
</g>
<defs>
<filter id="filter0_d_194_8" x="0" y="0" width="164.409" height="24.3835" filterUnits="userSpaceOnUse" color-interpolation-filters="sRGB">
<feFlood flood-opacity="0" result="BackgroundImageFix"/>
<feColorMatrix in="SourceAlpha" type="matrix" values="0 0 0 0 0 0 0 0 0 0 0 0 0 0 0 0 0 0 127 0" result="hardAlpha"/>
<feOffset dy="4"/>
<feGaussianBlur stdDeviation="2"/>
<feComposite in2="hardAlpha" operator="out"/>
<feColorMatrix type="matrix" values="0 0 0 0 0 0 0 0 0 0 0 0 0 0 0 0 0 0 0.25 0"/>
<feBlend mode="normal" in2="BackgroundImageFix" result="effect1_dropShadow_194_8"/>
<feBlend mode="normal" in="SourceGraphic" in2="effect1_dropShadow_194_8" result="shape"/>
</filter>
</defs>
</svg>
