<svg width="30" height="30" viewBox="0 0 30 30" fill="none" xmlns="http://www.w3.org/2000/svg">
<path d="M12.5 23.7499C12.2079 23.7505 11.9249 23.6488 11.7 23.4624C11.5734 23.3575 11.4688 23.2286 11.3921 23.0832C11.3154 22.9377 11.2681 22.7786 11.2531 22.6149C11.238 22.4512 11.2553 22.2861 11.3041 22.1291C11.3529 21.9721 11.4322 21.8262 11.5375 21.6999L17.1375 14.9999L11.7375 8.28743C11.6336 8.15957 11.5561 8.01245 11.5093 7.85452C11.4625 7.6966 11.4474 7.53098 11.4648 7.3672C11.4823 7.20341 11.5319 7.04469 11.6108 6.90014C11.6898 6.75559 11.7966 6.62808 11.925 6.52493C12.0543 6.41113 12.2058 6.3253 12.3698 6.27281C12.5339 6.22032 12.7071 6.20232 12.8784 6.21992C13.0498 6.23753 13.2157 6.29037 13.3657 6.37512C13.5156 6.45987 13.6465 6.57471 13.75 6.71243L19.7875 14.2124C19.9713 14.4361 20.0718 14.7166 20.0718 15.0062C20.0718 15.2957 19.9713 15.5763 19.7875 15.7999L13.5375 23.2999C13.4121 23.4512 13.2528 23.5708 13.0725 23.649C12.8923 23.7271 12.6961 23.7617 12.5 23.7499Z" fill="#231F20" fill-opacity="0.8"/>
</svg>
