<svg width="30" height="30" viewBox="0 0 30 30" fill="none" xmlns="http://www.w3.org/2000/svg">
<path d="M17.2875 23.7496C17.1007 23.7502 16.9162 23.709 16.7475 23.629C16.5788 23.549 16.4301 23.4321 16.3125 23.2871L10.275 15.7871C10.0911 15.5634 9.9906 15.2829 9.9906 14.9934C9.9906 14.7038 10.0911 14.4233 10.275 14.1996L16.525 6.69961C16.7371 6.44434 17.042 6.28381 17.3726 6.25334C17.7031 6.22286 18.0322 6.32494 18.2875 6.53711C18.5427 6.74929 18.7033 7.05417 18.7337 7.38471C18.7642 7.71524 18.6621 8.04434 18.45 8.29961L12.8625 14.9996L18.2625 21.6996C18.4153 21.8831 18.5124 22.1065 18.5423 22.3435C18.5721 22.5804 18.5335 22.8209 18.4309 23.0366C18.3283 23.2522 18.1661 23.434 17.9635 23.5604C17.7608 23.6867 17.5263 23.7524 17.2875 23.7496Z" fill="#231F20" fill-opacity="0.8"/>
</svg>
