<svg width="214" height="34" viewBox="0 0 214 34" fill="none" xmlns="http://www.w3.org/2000/svg">
<g filter="url(#filter0_d_180_13)">
<path d="M7.3044 20C6.3164 20 5.6144 19.8093 5.1984 19.428C4.79974 19.0293 4.6004 18.4487 4.6004 17.686C4.6004 17.4607 4.60907 17.1053 4.6264 16.62C4.66107 16.1173 4.7044 15.528 4.7564 14.852C4.8084 14.176 4.8604 13.4393 4.9124 12.642C4.98174 11.8447 5.05107 11.03 5.1204 10.198C5.20707 9.17533 5.2764 8.3 5.3284 7.572C5.39774 6.82666 5.44974 6.194 5.4844 5.674C5.51907 5.13666 5.54507 4.69466 5.5624 4.34799C5.59707 3.984 5.6144 3.672 5.6144 3.412C5.63174 3.13466 5.6404 2.88333 5.6404 2.65799C5.65774 2.43266 5.6664 2.19 5.6664 1.92999C5.6664 1.79133 5.70974 1.696 5.7964 1.644C5.88307 1.57466 5.96974 1.54 6.0564 1.54C6.50707 1.54 7.00107 1.53133 7.5384 1.514C8.07574 1.47933 8.61307 1.44466 9.1504 1.41C9.68774 1.37533 10.2077 1.34933 10.7104 1.33199C11.2131 1.29733 11.6551 1.28 12.0364 1.28C13.1457 1.28 14.0991 1.41866 14.8964 1.69599C15.6937 1.956 16.3351 2.346 16.8204 2.866C17.3231 3.36866 17.6871 3.984 17.9124 4.712C18.1551 5.44 18.2764 6.272 18.2764 7.208C18.2764 8.23066 18.1377 9.21866 17.8604 10.172C17.6004 11.108 17.1844 11.94 16.6124 12.668C16.0404 13.396 15.3037 13.9767 14.4024 14.41C13.5011 14.8433 12.4264 15.06 11.1784 15.06C10.4331 15.06 9.8004 14.982 9.2804 14.826L8.9164 19.61C8.89907 19.7487 8.8644 19.8527 8.8124 19.922C8.7604 19.974 8.6564 20 8.5004 20H7.3044ZM11.5164 5.18C11.2911 5.18 11.0397 5.19733 10.7624 5.232C10.4851 5.24933 10.1904 5.27533 9.8784 5.31C9.84374 6.038 9.8004 6.922 9.7484 7.962C9.6964 9.002 9.62707 10.094 9.5404 11.238C9.8004 11.3073 10.0517 11.3593 10.2944 11.394C10.5544 11.4113 10.7884 11.42 10.9964 11.42C11.6031 11.42 12.0884 11.2813 12.4524 11.004C12.8337 10.7093 13.1284 10.354 13.3364 9.938C13.5444 9.522 13.6831 9.08866 13.7524 8.638C13.8217 8.18733 13.8564 7.79733 13.8564 7.468C13.8564 6.72266 13.6831 6.15933 13.3364 5.778C13.0071 5.37933 12.4004 5.18 11.5164 5.18Z" fill="#EDA1A1"/>
<path d="M25.6836 5.44C27.1569 5.44 28.2402 5.73466 28.9336 6.324C29.6269 6.896 29.9736 7.63266 29.9736 8.534C29.9736 9.29666 29.7309 9.87733 29.2456 10.276C28.7776 10.6747 28.0929 10.874 27.1916 10.874C26.9489 10.874 26.7842 10.848 26.6976 10.796C26.6109 10.744 26.5676 10.6487 26.5676 10.51C26.5676 10.354 26.5502 10.1807 26.5156 9.99C26.4982 9.782 26.4376 9.59133 26.3336 9.418C26.2469 9.22733 26.0996 9.07133 25.8916 8.95C25.7009 8.82866 25.4236 8.768 25.0596 8.768C24.5742 8.768 24.1842 8.88933 23.8896 9.132C23.5949 9.35733 23.4476 9.64333 23.4476 9.99C23.4476 10.354 23.5949 10.6487 23.8896 10.874C24.2016 11.082 24.5829 11.2813 25.0336 11.472C25.5016 11.6627 26.0042 11.862 26.5416 12.07C27.0789 12.2607 27.5729 12.5207 28.0236 12.85C28.4916 13.1793 28.8729 13.5953 29.1676 14.098C29.4796 14.5833 29.6356 15.216 29.6356 15.996C29.6356 17.244 29.1936 18.2667 28.3096 19.064C27.4256 19.8613 26.0996 20.26 24.3316 20.26C23.8462 20.26 23.2829 20.2167 22.6416 20.13C22.0176 20.0607 21.4196 19.948 20.8476 19.792C20.2756 19.6187 19.7902 19.3933 19.3916 19.116C19.0102 18.8387 18.8196 18.492 18.8196 18.076C18.8196 17.92 18.8456 17.7293 18.8976 17.504C18.9669 17.2787 19.0622 17.062 19.1836 16.854C19.3222 16.646 19.4782 16.4727 19.6516 16.334C19.8422 16.178 20.0676 16.1 20.3276 16.1C20.5356 16.1 20.7262 16.152 20.8996 16.256C21.0729 16.36 21.2722 16.4727 21.4976 16.594C21.7402 16.698 22.0349 16.802 22.3816 16.906C22.7282 17.01 23.1876 17.062 23.7596 17.062C24.1929 17.062 24.5742 17.01 24.9036 16.906C25.2502 16.802 25.4236 16.568 25.4236 16.204C25.4236 15.8747 25.2849 15.6147 25.0076 15.424C24.7302 15.216 24.3749 15.0253 23.9416 14.852C23.5256 14.6787 23.0662 14.4967 22.5636 14.306C22.0782 14.098 21.6189 13.8293 21.1856 13.5C20.7696 13.1707 20.4229 12.7547 20.1456 12.252C19.8682 11.732 19.7296 11.0647 19.7296 10.25C19.7296 9.366 19.9029 8.62066 20.2496 8.014C20.6136 7.39 21.0729 6.88733 21.6276 6.50599C22.1996 6.12466 22.8409 5.856 23.5516 5.7C24.2622 5.52666 24.9729 5.44 25.6836 5.44Z" fill="#EDA1A1"/>
<path d="M36.8045 8.092C36.8045 8.49066 36.7785 8.96733 36.7265 9.522C36.6745 10.0593 36.6138 10.6053 36.5445 11.16C36.4925 11.6973 36.4405 12.2087 36.3885 12.694C36.3365 13.162 36.3104 13.526 36.3104 13.786C36.3104 14.4447 36.4665 14.9387 36.7785 15.268C37.1078 15.58 37.5064 15.736 37.9744 15.736C38.7891 15.736 39.4391 15.3113 39.9244 14.462C40.4098 13.6127 40.7131 12.486 40.8344 11.082L41.2505 6.22C41.2678 6.02933 41.3284 5.89933 41.4324 5.83C41.5538 5.74333 41.6838 5.7 41.8224 5.7H42.7584C43.1224 5.7 43.4604 5.73466 43.7724 5.804C44.1018 5.856 44.3878 5.96866 44.6305 6.14199C44.8731 6.298 45.0638 6.51466 45.2024 6.792C45.3411 7.06933 45.4104 7.42466 45.4104 7.858C45.4104 8.03133 45.3931 8.36066 45.3585 8.846C45.3411 9.314 45.2978 9.99866 45.2285 10.9C45.1765 11.784 45.0984 12.9107 44.9944 14.28C44.8904 15.632 44.7691 17.2873 44.6305 19.246C44.5438 20.39 44.2838 21.3347 43.8504 22.08C43.4344 22.8427 42.9058 23.4407 42.2645 23.874C41.6231 24.3247 40.9038 24.6367 40.1064 24.81C39.3091 24.9833 38.4944 25.07 37.6624 25.07C36.7784 25.07 35.9638 24.992 35.2185 24.836C34.4905 24.68 33.8578 24.4633 33.3204 24.186C32.7831 23.9087 32.3584 23.588 32.0464 23.224C31.7518 22.86 31.6045 22.47 31.6045 22.054C31.6045 21.7247 31.6738 21.4387 31.8125 21.196C31.9685 20.9533 32.1678 20.754 32.4104 20.598C32.6531 20.442 32.9305 20.3207 33.2425 20.234C33.5718 20.1647 33.9098 20.13 34.2565 20.13C34.4298 20.13 34.5511 20.2167 34.6204 20.39C34.7071 20.5633 34.8284 20.754 34.9844 20.962C35.1578 21.1873 35.4264 21.3867 35.7904 21.56C36.1544 21.7333 36.7005 21.82 37.4285 21.82C38.0698 21.82 38.5898 21.664 38.9884 21.352C39.3871 21.04 39.6904 20.6413 39.8984 20.156C40.1238 19.6707 40.2711 19.142 40.3405 18.57C40.4098 17.998 40.4445 17.452 40.4445 16.932C40.1671 17.4173 39.8551 17.816 39.5084 18.128C39.1791 18.4227 38.8324 18.6567 38.4684 18.83C38.1044 18.986 37.7404 19.09 37.3764 19.142C37.0124 19.194 36.6658 19.22 36.3365 19.22C35.6951 19.22 35.1058 19.1333 34.5684 18.96C34.0484 18.7867 33.5978 18.5093 33.2164 18.128C32.8351 17.7293 32.5404 17.218 32.3324 16.594C32.1244 15.97 32.0205 15.216 32.0205 14.332C32.0205 14.0027 32.0378 13.5693 32.0724 13.032C32.1071 12.4773 32.1504 11.862 32.2024 11.186C32.2544 10.4927 32.3064 9.74733 32.3584 8.95C32.4278 8.15266 32.4971 7.338 32.5665 6.50599C32.6011 5.96866 32.8438 5.7 33.2944 5.7H34.1264C34.6811 5.7 35.1318 5.752 35.4785 5.856C35.8251 5.96 36.0938 6.116 36.2845 6.324C36.4925 6.51466 36.6311 6.766 36.7005 7.078C36.7698 7.37266 36.8045 7.71066 36.8045 8.092Z" fill="#EDA1A1"/>
<path d="M54.2596 16.802C54.7623 16.802 55.1956 16.7327 55.5596 16.594C55.9409 16.4553 56.2703 16.2993 56.5476 16.126C56.8249 15.9527 57.0589 15.7967 57.2496 15.658C57.4403 15.5193 57.6136 15.45 57.7696 15.45C58.1683 15.45 58.3676 15.71 58.3676 16.23C58.3676 16.3513 58.3416 16.5247 58.2896 16.75C58.2376 16.958 58.1683 17.1833 58.0816 17.426C57.9949 17.6513 57.8996 17.868 57.7956 18.076C57.7089 18.284 57.6223 18.44 57.5356 18.544C57.4489 18.6307 57.2929 18.7693 57.0676 18.96C56.8596 19.1507 56.5736 19.3413 56.2096 19.532C55.8456 19.7227 55.4209 19.8873 54.9356 20.026C54.4503 20.182 53.9129 20.26 53.3236 20.26C52.6649 20.26 51.9803 20.1647 51.2696 19.974C50.5763 19.766 49.9436 19.4193 49.3716 18.934C48.7996 18.4313 48.3229 17.764 47.9416 16.932C47.5776 16.0827 47.3956 15.0253 47.3956 13.76C47.3956 13.3093 47.4216 12.798 47.4736 12.226C47.5429 11.6367 47.6729 11.0387 47.8636 10.432C48.0543 9.808 48.3056 9.20133 48.6176 8.612C48.9469 8.00533 49.3803 7.468 49.9176 7C50.4549 6.532 51.0963 6.15933 51.8416 5.882C52.6043 5.58733 53.5056 5.44 54.5456 5.44C55.3949 5.44 56.1229 5.544 56.7296 5.752C57.3536 5.94266 57.8649 6.21133 58.2636 6.558C58.6623 6.88733 58.9569 7.27733 59.1476 7.728C59.3556 8.17866 59.4596 8.664 59.4596 9.184C59.4596 10.12 59.1649 10.8133 58.5756 11.264C57.9863 11.6973 57.1543 11.914 56.0796 11.914C55.8196 11.914 55.6376 11.8967 55.5336 11.862C55.4469 11.81 55.4036 11.706 55.4036 11.55C55.4036 11.134 55.3949 10.7613 55.3776 10.432C55.3603 10.1027 55.3083 9.82533 55.2216 9.6C55.1523 9.37466 55.0396 9.20133 54.8836 9.08C54.7276 8.95866 54.5023 8.898 54.2076 8.898C53.6703 8.898 53.2369 9.07133 52.9076 9.418C52.5956 9.76466 52.3529 10.1893 52.1796 10.692C52.0236 11.1773 51.9196 11.68 51.8676 12.2C51.8329 12.72 51.8156 13.1533 51.8156 13.5C51.8156 14.7307 52.0063 15.5887 52.3876 16.074C52.7863 16.5593 53.4103 16.802 54.2596 16.802Z" fill="#EDA1A1"/>
<path d="M69.5427 16.776C69.5947 16.204 69.6467 15.606 69.6987 14.982C69.768 14.358 69.82 13.76 69.8547 13.188C69.9067 12.616 69.9501 12.1047 69.9847 11.654C70.0194 11.2033 70.0367 10.874 70.0367 10.666C70.0367 10.2153 69.924 9.81666 69.6987 9.47C69.4907 9.106 69.0747 8.924 68.4507 8.924C67.6187 8.924 66.9427 9.314 66.4227 10.094C65.92 10.874 65.6254 11.914 65.5387 13.214C65.504 13.578 65.4607 14.0893 65.4087 14.748C65.3567 15.3893 65.3047 16.048 65.2527 16.724C65.2007 17.3827 65.1487 17.9807 65.0967 18.518C65.062 19.038 65.0447 19.3587 65.0447 19.48C65.0447 19.688 65.0014 19.8267 64.9147 19.896C64.8454 19.9653 64.698 20 64.4727 20H63.5367C62.9994 20 62.5574 19.948 62.2107 19.844C61.8814 19.7227 61.6127 19.558 61.4047 19.35C61.214 19.142 61.0754 18.8907 60.9887 18.596C60.9194 18.284 60.8847 17.9287 60.8847 17.53C60.8847 17.1487 60.9107 16.62 60.9627 15.944C61.032 15.2507 61.1187 14.306 61.2227 13.11C61.3267 11.8967 61.448 10.354 61.5867 8.482C61.7254 6.61 61.8727 4.28733 62.0287 1.514C62.0461 1.13266 62.0894 0.907329 62.1587 0.837995C62.2107 0.785996 62.3494 0.759996 62.5747 0.759996H63.5887C64.1087 0.759996 64.542 0.820662 64.8887 0.941995C65.2354 1.06333 65.5127 1.228 65.7207 1.436C65.9287 1.644 66.076 1.88666 66.1627 2.164C66.2494 2.424 66.2927 2.70133 66.2927 2.996C66.2927 3.308 66.2581 3.88866 66.1887 4.738C66.1367 5.58733 66.0674 6.584 65.9807 7.728C66.5007 6.86133 67.0727 6.26333 67.6967 5.934C68.338 5.60466 69.144 5.44 70.1147 5.44C70.8427 5.44 71.4754 5.518 72.0127 5.674C72.5501 5.83 72.992 6.09866 73.3387 6.48C73.7027 6.844 73.9714 7.32933 74.1447 7.936C74.318 8.52533 74.4047 9.262 74.4047 10.146C74.4047 10.4233 74.3787 10.9 74.3267 11.576C74.2747 12.252 74.2054 13.0233 74.1187 13.89C74.0494 14.7567 73.9714 15.6667 73.8847 16.62C73.8154 17.556 73.7547 18.414 73.7027 19.194C73.6854 19.3847 73.6681 19.532 73.6507 19.636C73.6334 19.74 73.5987 19.818 73.5467 19.87C73.512 19.922 73.4514 19.9567 73.3647 19.974C73.278 19.9913 73.1567 20 73.0007 20H72.1687C71.614 20 71.1634 19.948 70.8167 19.844C70.4701 19.74 70.2014 19.5927 70.0107 19.402C69.8201 19.2113 69.6814 18.9773 69.5947 18.7C69.5254 18.4053 69.4907 18.076 69.4907 17.712C69.4907 17.5387 69.4907 17.374 69.4907 17.218C69.508 17.062 69.5254 16.9147 69.5427 16.776Z" fill="#EDA1A1"/>
<path d="M79.4071 20C78.8697 20 78.4277 19.948 78.0811 19.844C77.7517 19.7227 77.4831 19.558 77.2751 19.35C77.0844 19.142 76.9457 18.8907 76.8591 18.596C76.7897 18.284 76.7551 17.9287 76.7551 17.53C76.7551 17.27 76.7637 16.906 76.7811 16.438C76.8157 15.9527 76.8677 15.294 76.9371 14.462C77.0064 13.6127 77.0844 12.5467 77.1711 11.264C77.2751 9.964 77.3964 8.36066 77.5351 6.454C77.5524 6.07266 77.5957 5.84733 77.6651 5.778C77.7171 5.726 77.8557 5.7 78.0811 5.7H79.0951C79.6324 5.7 80.0657 5.752 80.3951 5.856C80.7417 5.96 81.0104 6.116 81.2011 6.324C81.4091 6.532 81.5477 6.78333 81.6171 7.078C81.7037 7.37266 81.7471 7.702 81.7471 8.066C81.7471 8.326 81.7297 8.716 81.6951 9.236C81.6604 9.756 81.6084 10.4667 81.5391 11.368C81.4871 12.252 81.4091 13.3613 81.3051 14.696C81.2011 16.0133 81.0711 17.608 80.9151 19.48C80.8977 19.688 80.8544 19.8267 80.7851 19.896C80.7157 19.9653 80.5684 20 80.3431 20H79.4071ZM77.5611 2.632C77.5611 1.93866 77.8124 1.39266 78.3151 0.993996C78.8177 0.595329 79.4937 0.395996 80.3431 0.395996C81.0884 0.395996 81.6257 0.551996 81.9551 0.863995C82.3017 1.15866 82.4751 1.55733 82.4751 2.05999C82.4751 2.70133 82.2324 3.23866 81.7471 3.672C81.2791 4.088 80.5857 4.296 79.6671 4.296C78.2631 4.296 77.5611 3.74133 77.5611 2.632Z" fill="#EDA1A1"/>
<path d="M83.2616 16.802C83.2616 15.242 83.9636 14.02 85.3676 13.136C86.7716 12.252 88.8429 11.7753 91.5816 11.706C91.5989 11.5153 91.6076 11.3593 91.6076 11.238C91.6249 11.0993 91.6336 10.9347 91.6336 10.744C91.6336 10.1893 91.5296 9.74733 91.3216 9.418C91.1136 9.08866 90.6802 8.924 90.0216 8.924C89.6576 8.924 89.3629 8.976 89.1376 9.08C88.9122 9.184 88.7302 9.33133 88.5916 9.522C88.4529 9.69533 88.3402 9.912 88.2536 10.172C88.1669 10.432 88.0889 10.718 88.0196 11.03C87.9849 11.186 87.9069 11.29 87.7856 11.342C87.6642 11.3767 87.4736 11.394 87.2136 11.394C85.4456 11.394 84.5616 10.7267 84.5616 9.392C84.5616 8.85466 84.6829 8.34333 84.9256 7.858C85.1856 7.37266 85.5582 6.95666 86.0436 6.60999C86.5462 6.246 87.1702 5.96 87.9156 5.752C88.6609 5.544 89.5276 5.44 90.5156 5.44C92.4396 5.44 93.8349 5.83866 94.7016 6.636C95.5682 7.43333 96.0016 8.56 96.0016 10.016C96.0016 10.2067 95.9756 10.5533 95.9236 11.056C95.8889 11.5413 95.8369 12.0613 95.7676 12.616C95.7156 13.1533 95.6636 13.6647 95.6116 14.15C95.5769 14.6353 95.5596 14.9733 95.5596 15.164C95.5596 15.5973 95.6376 15.9093 95.7936 16.1C95.9496 16.2733 96.1229 16.3947 96.3136 16.464C96.5216 16.5333 96.7036 16.5853 96.8596 16.62C97.0156 16.6547 97.0936 16.7413 97.0936 16.88C97.0936 17.2613 97.0416 17.6513 96.9376 18.05C96.8336 18.4487 96.6602 18.8127 96.4176 19.142C96.1922 19.4713 95.8716 19.74 95.4556 19.948C95.0569 20.156 94.5629 20.26 93.9736 20.26C93.1416 20.26 92.5176 20.0607 92.1016 19.662C91.6856 19.2633 91.4082 18.7087 91.2696 17.998C90.8536 18.6047 90.3076 19.1333 89.6316 19.584C88.9729 20.0347 88.1062 20.26 87.0316 20.26C86.5116 20.26 86.0176 20.1993 85.5496 20.078C85.0989 19.9567 84.7002 19.7573 84.3536 19.48C84.0242 19.2027 83.7556 18.8473 83.5476 18.414C83.3569 17.9633 83.2616 17.426 83.2616 16.802ZM91.3476 13.838C90.8969 13.838 90.4549 13.8727 90.0216 13.942C89.5882 14.0113 89.1982 14.124 88.8516 14.28C88.5222 14.4187 88.2536 14.6093 88.0456 14.852C87.8376 15.0947 87.7336 15.3893 87.7336 15.736C87.7336 16.1347 87.8549 16.412 88.0976 16.568C88.3576 16.724 88.6349 16.802 88.9296 16.802C89.2069 16.802 89.4842 16.7413 89.7616 16.62C90.0389 16.4987 90.2816 16.3167 90.4896 16.074C90.7149 15.814 90.9056 15.502 91.0616 15.138C91.2176 14.774 91.3129 14.3407 91.3476 13.838Z" fill="#EDA1A1"/>
<path d="M104.282 9.21C104.23 9.86866 104.169 10.5187 104.1 11.16C104.048 11.8013 103.996 12.408 103.944 12.98C103.892 13.552 103.849 14.0633 103.814 14.514C103.797 14.9647 103.788 15.3113 103.788 15.554C103.788 16.0047 103.84 16.308 103.944 16.464C104.048 16.6027 104.221 16.672 104.464 16.672C104.655 16.672 104.819 16.6373 104.958 16.568C105.097 16.4987 105.227 16.4207 105.348 16.334C105.469 16.2473 105.573 16.1693 105.66 16.1C105.764 16.0307 105.877 15.996 105.998 15.996C106.119 15.996 106.232 16.0653 106.336 16.204C106.44 16.3427 106.492 16.6633 106.492 17.166C106.492 18.1193 106.232 18.8733 105.712 19.428C105.192 19.9827 104.299 20.26 103.034 20.26C101.786 20.26 100.859 19.974 100.252 19.402C99.6626 18.8127 99.368 17.92 99.368 16.724C99.368 16.464 99.3766 16.1607 99.394 15.814C99.4286 15.45 99.472 14.982 99.524 14.41C99.576 13.838 99.6366 13.136 99.706 12.304C99.7926 11.472 99.8793 10.4407 99.966 9.21H98.588C98.4493 9.21 98.3626 9.184 98.328 9.132C98.3106 9.06266 98.302 8.96733 98.302 8.846L98.38 7.52C98.3973 7.29466 98.4233 7.078 98.458 6.87C98.51 6.64466 98.5966 6.44533 98.718 6.272C98.8566 6.09866 99.0473 5.96 99.29 5.856C99.5326 5.752 99.8533 5.7 100.252 5.7C100.373 5.388 100.512 5.01533 100.668 4.582C100.824 4.14866 100.98 3.73266 101.136 3.334C101.292 2.918 101.439 2.57133 101.578 2.29399C101.734 2.01666 101.873 1.878 101.994 1.878H102.748C103.476 1.878 103.979 2.10333 104.256 2.554C104.533 3.00466 104.672 3.542 104.672 4.166C104.672 4.51266 104.646 5.024 104.594 5.7H107.324C107.601 5.7 107.74 5.82133 107.74 6.064L107.636 7.468C107.601 7.988 107.454 8.41266 107.194 8.742C106.951 9.054 106.44 9.21 105.66 9.21H104.282Z" fill="#EDA1A1"/>
<path d="M117.475 11.914C117.371 11.914 117.249 11.914 117.111 11.914C116.989 11.8967 116.868 11.8793 116.747 11.862C116.625 11.8273 116.521 11.7927 116.435 11.758C116.348 11.706 116.305 11.6453 116.305 11.576C116.305 11.3507 116.313 11.1427 116.331 10.952C116.348 10.7613 116.357 10.562 116.357 10.354C116.357 9.97266 116.305 9.66066 116.201 9.418C116.097 9.17533 115.889 9.054 115.577 9.054C115.091 9.054 114.684 9.37466 114.355 10.016C114.043 10.64 113.843 11.5847 113.757 12.85C113.722 13.4047 113.67 14.0373 113.601 14.748C113.549 15.4413 113.497 16.1173 113.445 16.776C113.393 17.4173 113.349 17.9893 113.315 18.492C113.28 18.9947 113.263 19.324 113.263 19.48C113.263 19.6533 113.202 19.7833 113.081 19.87C112.959 19.9567 112.829 20 112.691 20H111.755C111.217 20 110.775 19.948 110.429 19.844C110.099 19.7227 109.831 19.558 109.623 19.35C109.432 19.142 109.293 18.8907 109.207 18.596C109.137 18.284 109.103 17.9287 109.103 17.53C109.103 17.27 109.111 16.906 109.129 16.438C109.163 15.9527 109.215 15.294 109.285 14.462C109.354 13.6127 109.432 12.5467 109.519 11.264C109.623 9.964 109.744 8.36066 109.883 6.454C109.917 5.95133 110.099 5.7 110.429 5.7H111.443C111.928 5.7 112.335 5.752 112.665 5.856C112.994 5.96 113.263 6.10733 113.471 6.298C113.679 6.47133 113.826 6.67933 113.913 6.922C114.017 7.16466 114.086 7.416 114.121 7.676C114.329 7.27733 114.571 6.93933 114.849 6.662C115.143 6.36733 115.447 6.13333 115.759 5.96C116.071 5.76933 116.391 5.63933 116.721 5.57C117.05 5.48333 117.353 5.44 117.631 5.44C117.96 5.44 118.289 5.50066 118.619 5.622C118.965 5.74333 119.277 5.92533 119.555 6.168C119.832 6.41066 120.049 6.72266 120.205 7.104C120.378 7.48533 120.465 7.936 120.465 8.456C120.465 8.924 120.395 9.366 120.257 9.782C120.118 10.198 119.919 10.5707 119.659 10.9C119.399 11.212 119.078 11.4633 118.697 11.654C118.333 11.8273 117.925 11.914 117.475 11.914Z" fill="#EDA1A1"/>
<path d="M126.484 8.092C126.484 8.49066 126.458 8.96733 126.406 9.522C126.354 10.0593 126.293 10.6053 126.224 11.16C126.172 11.6973 126.12 12.2087 126.068 12.694C126.016 13.162 125.99 13.526 125.99 13.786C125.99 14.4447 126.146 14.9387 126.458 15.268C126.787 15.58 127.186 15.736 127.654 15.736C128.469 15.736 129.119 15.3113 129.604 14.462C130.089 13.6127 130.393 12.486 130.514 11.082L130.93 6.22C130.947 6.02933 131.008 5.89933 131.112 5.83C131.233 5.74333 131.363 5.7 131.502 5.7H132.438C132.802 5.7 133.14 5.73466 133.452 5.804C133.781 5.856 134.067 5.96866 134.31 6.14199C134.553 6.298 134.743 6.51466 134.882 6.792C135.021 7.06933 135.09 7.42466 135.09 7.858C135.09 8.03133 135.073 8.36066 135.038 8.846C135.021 9.314 134.977 9.99866 134.908 10.9C134.856 11.784 134.778 12.9107 134.674 14.28C134.57 15.632 134.449 17.2873 134.31 19.246C134.223 20.39 133.963 21.3347 133.53 22.08C133.114 22.8427 132.585 23.4407 131.944 23.874C131.303 24.3247 130.583 24.6367 129.786 24.81C128.989 24.9833 128.174 25.07 127.342 25.07C126.458 25.07 125.643 24.992 124.898 24.836C124.17 24.68 123.537 24.4633 123 24.186C122.463 23.9087 122.038 23.588 121.726 23.224C121.431 22.86 121.284 22.47 121.284 22.054C121.284 21.7247 121.353 21.4387 121.492 21.196C121.648 20.9533 121.847 20.754 122.09 20.598C122.333 20.442 122.61 20.3207 122.922 20.234C123.251 20.1647 123.589 20.13 123.936 20.13C124.109 20.13 124.231 20.2167 124.3 20.39C124.387 20.5633 124.508 20.754 124.664 20.962C124.837 21.1873 125.106 21.3867 125.47 21.56C125.834 21.7333 126.38 21.82 127.108 21.82C127.749 21.82 128.269 21.664 128.668 21.352C129.067 21.04 129.37 20.6413 129.578 20.156C129.803 19.6707 129.951 19.142 130.02 18.57C130.089 17.998 130.124 17.452 130.124 16.932C129.847 17.4173 129.535 17.816 129.188 18.128C128.859 18.4227 128.512 18.6567 128.148 18.83C127.784 18.986 127.42 19.09 127.056 19.142C126.692 19.194 126.345 19.22 126.016 19.22C125.375 19.22 124.785 19.1333 124.248 18.96C123.728 18.7867 123.277 18.5093 122.896 18.128C122.515 17.7293 122.22 17.218 122.012 16.594C121.804 15.97 121.7 15.216 121.7 14.332C121.7 14.0027 121.717 13.5693 121.752 13.032C121.787 12.4773 121.83 11.862 121.882 11.186C121.934 10.4927 121.986 9.74733 122.038 8.95C122.107 8.15266 122.177 7.338 122.246 6.50599C122.281 5.96866 122.523 5.7 122.974 5.7H123.806C124.361 5.7 124.811 5.752 125.158 5.856C125.505 5.96 125.773 6.116 125.964 6.324C126.172 6.51466 126.311 6.766 126.38 7.078C126.449 7.37266 126.484 7.71066 126.484 8.092Z" fill="#EDA1A1"/>
<path d="M151.033 16.204C151.744 16.204 152.342 16.1 152.827 15.892C153.33 15.684 153.755 15.45 154.101 15.19C154.448 14.93 154.751 14.696 155.011 14.488C155.289 14.28 155.566 14.176 155.843 14.176C156.19 14.176 156.363 14.436 156.363 14.956C156.363 15.2333 156.329 15.5713 156.259 15.97C156.19 16.3513 156.095 16.7847 155.973 17.27C155.904 17.5647 155.731 17.8853 155.453 18.232C155.193 18.5787 154.829 18.908 154.361 19.22C153.893 19.5147 153.313 19.766 152.619 19.974C151.943 20.1647 151.163 20.26 150.279 20.26C149.395 20.26 148.511 20.13 147.627 19.87C146.743 19.61 145.955 19.168 145.261 18.544C144.568 17.92 144.005 17.0793 143.571 16.022C143.138 14.9647 142.921 13.6387 142.921 12.044C142.921 11.472 142.956 10.8133 143.025 10.068C143.112 9.30533 143.268 8.52533 143.493 7.728C143.719 6.93066 144.031 6.15066 144.429 5.388C144.845 4.60799 145.374 3.91466 146.015 3.308C146.657 2.70133 147.437 2.216 148.355 1.852C149.291 1.47066 150.401 1.28 151.683 1.28C152.706 1.28 153.59 1.40133 154.335 1.644C155.098 1.88666 155.722 2.22466 156.207 2.65799C156.71 3.074 157.074 3.568 157.299 4.14C157.542 4.712 157.663 5.31866 157.663 5.96C157.663 7.06933 157.334 7.884 156.675 8.404C156.034 8.90666 155.115 9.158 153.919 9.158C153.538 9.158 153.295 9.132 153.191 9.08C153.105 9.01066 153.061 8.88066 153.061 8.69C153.044 8.10066 153.027 7.58933 153.009 7.156C152.992 6.72266 152.931 6.36733 152.827 6.09C152.723 5.79533 152.559 5.58733 152.333 5.466C152.125 5.32733 151.831 5.258 151.449 5.258C150.895 5.258 150.418 5.37933 150.019 5.622C149.638 5.84733 149.309 6.15066 149.031 6.532C148.771 6.896 148.555 7.312 148.381 7.78C148.225 8.248 148.095 8.72466 147.991 9.21C147.905 9.69533 147.844 10.1633 147.809 10.614C147.792 11.0647 147.783 11.4547 147.783 11.784C147.783 13.3787 148.043 14.514 148.563 15.19C149.101 15.866 149.924 16.204 151.033 16.204Z" fill="#EDA1A1"/>
<path d="M162.036 20.234C160.961 20.234 160.19 19.948 159.722 19.376C159.254 18.804 159.02 17.8593 159.02 16.542C159.02 16.334 159.029 16.074 159.046 15.762C159.081 15.45 159.115 15.0513 159.15 14.566C159.202 14.0633 159.263 13.448 159.332 12.72C159.401 11.992 159.471 11.108 159.54 10.068C159.627 9.02799 159.713 7.806 159.8 6.402C159.904 4.998 160.008 3.36866 160.112 1.514C160.129 1.13266 160.173 0.907329 160.242 0.837995C160.294 0.785996 160.433 0.759996 160.658 0.759996H161.672C162.192 0.759996 162.625 0.820662 162.972 0.941995C163.319 1.06333 163.596 1.228 163.804 1.436C164.012 1.644 164.159 1.88666 164.246 2.164C164.333 2.424 164.376 2.70133 164.376 2.996C164.376 3.34266 164.35 3.84533 164.298 4.504C164.263 5.14533 164.211 5.87333 164.142 6.688C164.073 7.50266 164.003 8.352 163.934 9.236C163.865 10.12 163.795 10.9693 163.726 11.784C163.657 12.5813 163.596 13.3007 163.544 13.942C163.509 14.5833 163.492 15.0687 163.492 15.398C163.492 15.8487 163.57 16.1693 163.726 16.36C163.899 16.5507 164.081 16.6893 164.272 16.776C164.463 16.8453 164.636 16.8973 164.792 16.932C164.965 16.9493 165.052 17.0013 165.052 17.088C165.052 17.4693 165.009 17.8507 164.922 18.232C164.835 18.596 164.679 18.934 164.454 19.246C164.229 19.5407 163.917 19.7833 163.518 19.974C163.137 20.1473 162.643 20.234 162.036 20.234Z" fill="#EDA1A1"/>
<path d="M169.544 20C169.006 20 168.564 19.948 168.218 19.844C167.888 19.7227 167.62 19.558 167.412 19.35C167.221 19.142 167.082 18.8907 166.996 18.596C166.926 18.284 166.892 17.9287 166.892 17.53C166.892 17.27 166.9 16.906 166.918 16.438C166.952 15.9527 167.004 15.294 167.074 14.462C167.143 13.6127 167.221 12.5467 167.308 11.264C167.412 9.964 167.533 8.36066 167.672 6.454C167.689 6.07266 167.732 5.84733 167.802 5.778C167.854 5.726 167.992 5.7 168.218 5.7H169.232C169.769 5.7 170.202 5.752 170.532 5.856C170.878 5.96 171.147 6.116 171.338 6.324C171.546 6.532 171.684 6.78333 171.754 7.078C171.84 7.37266 171.884 7.702 171.884 8.066C171.884 8.326 171.866 8.716 171.832 9.236C171.797 9.756 171.745 10.4667 171.676 11.368C171.624 12.252 171.546 13.3613 171.442 14.696C171.338 16.0133 171.208 17.608 171.052 19.48C171.034 19.688 170.991 19.8267 170.922 19.896C170.852 19.9653 170.705 20 170.48 20H169.544ZM167.698 2.632C167.698 1.93866 167.949 1.39266 168.452 0.993996C168.954 0.595329 169.63 0.395996 170.48 0.395996C171.225 0.395996 171.762 0.551996 172.092 0.863995C172.438 1.15866 172.612 1.55733 172.612 2.05999C172.612 2.70133 172.369 3.23866 171.884 3.672C171.416 4.088 170.722 4.296 169.804 4.296C168.4 4.296 167.698 3.74133 167.698 2.632Z" fill="#EDA1A1"/>
<path d="M183.044 17.712C183.044 17.3307 183.07 16.8367 183.122 16.23C183.192 15.606 183.252 14.956 183.304 14.28C183.374 13.5867 183.434 12.9193 183.486 12.278C183.556 11.6367 183.59 11.0993 183.59 10.666C183.59 10.2153 183.478 9.81666 183.252 9.47C183.044 9.106 182.628 8.924 182.004 8.924C181.398 8.924 180.895 9.07133 180.496 9.366C180.098 9.66066 179.76 10.198 179.482 10.978C179.222 11.758 179.006 12.8327 178.832 14.202C178.659 15.5713 178.494 17.3307 178.338 19.48C178.321 19.688 178.278 19.8267 178.208 19.896C178.139 19.9653 177.992 20 177.766 20H176.83C176.293 20 175.851 19.948 175.504 19.844C175.175 19.7227 174.906 19.558 174.698 19.35C174.508 19.142 174.369 18.8907 174.282 18.596C174.213 18.284 174.178 17.9287 174.178 17.53C174.178 17.27 174.187 16.906 174.204 16.438C174.239 15.9527 174.291 15.294 174.36 14.462C174.43 13.6127 174.508 12.5467 174.594 11.264C174.698 9.964 174.82 8.36066 174.958 6.454C174.976 6.07266 175.019 5.84733 175.088 5.778C175.14 5.726 175.279 5.7 175.504 5.7H176.518C177.038 5.7 177.463 5.76066 177.792 5.882C178.139 6.00333 178.416 6.168 178.624 6.376C178.832 6.56666 178.98 6.80066 179.066 7.078C179.153 7.338 179.205 7.60666 179.222 7.884C179.76 6.96533 180.375 6.33266 181.068 5.986C181.762 5.622 182.628 5.44 183.668 5.44C184.396 5.44 185.029 5.518 185.566 5.674C186.104 5.83 186.546 6.09866 186.892 6.48C187.256 6.844 187.525 7.32933 187.698 7.936C187.872 8.52533 187.958 9.262 187.958 10.146C187.958 10.4233 187.941 10.822 187.906 11.342C187.872 11.862 187.828 12.434 187.776 13.058C187.724 13.6647 187.664 14.306 187.594 14.982C187.542 15.6407 187.49 16.256 187.438 16.828C187.386 17.4 187.343 17.9027 187.308 18.336C187.274 18.7693 187.256 19.0553 187.256 19.194C187.256 19.5753 187.213 19.8093 187.126 19.896C187.04 19.9653 186.849 20 186.554 20H185.722C185.168 20 184.717 19.948 184.37 19.844C184.024 19.74 183.755 19.5927 183.564 19.402C183.374 19.2113 183.235 18.9773 183.148 18.7C183.079 18.4053 183.044 18.076 183.044 17.712Z" fill="#EDA1A1"/>
<path d="M192.954 20C192.417 20 191.975 19.948 191.628 19.844C191.299 19.7227 191.03 19.558 190.822 19.35C190.631 19.142 190.493 18.8907 190.406 18.596C190.337 18.284 190.302 17.9287 190.302 17.53C190.302 17.27 190.311 16.906 190.328 16.438C190.363 15.9527 190.415 15.294 190.484 14.462C190.553 13.6127 190.631 12.5467 190.718 11.264C190.822 9.964 190.943 8.36066 191.082 6.454C191.099 6.07266 191.143 5.84733 191.212 5.778C191.264 5.726 191.403 5.7 191.628 5.7H192.642C193.179 5.7 193.613 5.752 193.942 5.856C194.289 5.96 194.557 6.116 194.748 6.324C194.956 6.532 195.095 6.78333 195.164 7.078C195.251 7.37266 195.294 7.702 195.294 8.066C195.294 8.326 195.277 8.716 195.242 9.236C195.207 9.756 195.155 10.4667 195.086 11.368C195.034 12.252 194.956 13.3613 194.852 14.696C194.748 16.0133 194.618 17.608 194.462 19.48C194.445 19.688 194.401 19.8267 194.332 19.896C194.263 19.9653 194.115 20 193.89 20H192.954ZM191.108 2.632C191.108 1.93866 191.359 1.39266 191.862 0.993996C192.365 0.595329 193.041 0.395996 193.89 0.395996C194.635 0.395996 195.173 0.551996 195.502 0.863995C195.849 1.15866 196.022 1.55733 196.022 2.05999C196.022 2.70133 195.779 3.23866 195.294 3.672C194.826 4.088 194.133 4.296 193.214 4.296C191.81 4.296 191.108 3.74133 191.108 2.632Z" fill="#EDA1A1"/>
<path d="M204.14 16.802C204.643 16.802 205.076 16.7327 205.44 16.594C205.822 16.4553 206.151 16.2993 206.428 16.126C206.706 15.9527 206.94 15.7967 207.13 15.658C207.321 15.5193 207.494 15.45 207.65 15.45C208.049 15.45 208.248 15.71 208.248 16.23C208.248 16.3513 208.222 16.5247 208.17 16.75C208.118 16.958 208.049 17.1833 207.962 17.426C207.876 17.6513 207.78 17.868 207.676 18.076C207.59 18.284 207.503 18.44 207.416 18.544C207.33 18.6307 207.174 18.7693 206.948 18.96C206.74 19.1507 206.454 19.3413 206.09 19.532C205.726 19.7227 205.302 19.8873 204.816 20.026C204.331 20.182 203.794 20.26 203.204 20.26C202.546 20.26 201.861 20.1647 201.15 19.974C200.457 19.766 199.824 19.4193 199.252 18.934C198.68 18.4313 198.204 17.764 197.822 16.932C197.458 16.0827 197.276 15.0253 197.276 13.76C197.276 13.3093 197.302 12.798 197.354 12.226C197.424 11.6367 197.554 11.0387 197.744 10.432C197.935 9.808 198.186 9.20133 198.498 8.612C198.828 8.00533 199.261 7.468 199.798 7C200.336 6.532 200.977 6.15933 201.722 5.882C202.485 5.58733 203.386 5.44 204.426 5.44C205.276 5.44 206.004 5.544 206.61 5.752C207.234 5.94266 207.746 6.21133 208.144 6.558C208.543 6.88733 208.838 7.27733 209.028 7.728C209.236 8.17866 209.34 8.664 209.34 9.184C209.34 10.12 209.046 10.8133 208.456 11.264C207.867 11.6973 207.035 11.914 205.96 11.914C205.7 11.914 205.518 11.8967 205.414 11.862C205.328 11.81 205.284 11.706 205.284 11.55C205.284 11.134 205.276 10.7613 205.258 10.432C205.241 10.1027 205.189 9.82533 205.102 9.6C205.033 9.37466 204.92 9.20133 204.764 9.08C204.608 8.95866 204.383 8.898 204.088 8.898C203.551 8.898 203.118 9.07133 202.788 9.418C202.476 9.76466 202.234 10.1893 202.06 10.692C201.904 11.1773 201.8 11.68 201.748 12.2C201.714 12.72 201.696 13.1533 201.696 13.5C201.696 14.7307 201.887 15.5887 202.268 16.074C202.667 16.5593 203.291 16.802 204.14 16.802Z" fill="#EDA1A1"/>
</g>
<defs>
<filter id="filter0_d_180_13" x="0.600403" y="0.395996" width="212.74" height="32.6741" filterUnits="userSpaceOnUse" color-interpolation-filters="sRGB">
<feFlood flood-opacity="0" result="BackgroundImageFix"/>
<feColorMatrix in="SourceAlpha" type="matrix" values="0 0 0 0 0 0 0 0 0 0 0 0 0 0 0 0 0 0 127 0" result="hardAlpha"/>
<feOffset dy="4"/>
<feGaussianBlur stdDeviation="2"/>
<feComposite in2="hardAlpha" operator="out"/>
<feColorMatrix type="matrix" values="0 0 0 0 0 0 0 0 0 0 0 0 0 0 0 0 0 0 0.25 0"/>
<feBlend mode="normal" in2="BackgroundImageFix" result="effect1_dropShadow_180_13"/>
<feBlend mode="normal" in="SourceGraphic" in2="effect1_dropShadow_180_13" result="shape"/>
</filter>
</defs>
</svg>
