<svg width="258" height="14" viewBox="0 0 258 14" fill="none" xmlns="http://www.w3.org/2000/svg">
<path d="M2.032 3.248C1.84 3.248 1.62667 3.2 1.392 3.104C1.168 3.008 0.997333 2.864 0.88 2.672C0.773333 2.50133 0.725333 2.28267 0.736 2.016C0.757333 1.73867 0.848 1.53067 1.008 1.392C1.136 1.28533 1.28 1.21067 1.44 1.168C1.61067 1.11467 1.78667 1.08267 1.968 1.072C2.14933 1.05067 2.32533 1.04 2.496 1.04C2.67733 1.04 2.848 1.04 3.008 1.04H3.536C3.62133 1.02933 3.70667 1.02933 3.792 1.04C3.888 1.04 3.984 1.04 4.08 1.04C4.16533 1.04 4.36267 1.04 4.672 1.04C4.98133 1.04 5.31733 1.04 5.68 1.04C6.04267 1.04 6.37867 1.04 6.688 1.04C6.99733 1.04 7.19467 1.04 7.28 1.04C7.44 1.05067 7.6 1.056 7.76 1.056C7.93067 1.04533 8.10133 1.04 8.272 1.04C8.45333 1.04 8.64533 1.04533 8.848 1.056C9.05067 1.06667 9.24267 1.09867 9.424 1.152C9.60533 1.20533 9.77067 1.29067 9.92 1.408C10.0693 1.51467 10.176 1.67467 10.24 1.888C10.3253 2.176 10.3733 2.46933 10.384 2.768C10.4053 3.056 10.416 3.37067 10.416 3.712C10.4053 3.95733 10.4 4.16 10.4 4.32C10.4107 4.46933 10.416 4.66667 10.416 4.912C10.416 5.02933 10.416 5.14667 10.416 5.264C10.416 5.38133 10.4213 5.49867 10.432 5.616C10.432 5.75467 10.432 5.90933 10.432 6.08C10.432 6.25067 10.432 6.42667 10.432 6.608C10.432 6.77867 10.4267 6.94933 10.416 7.12C10.416 7.29067 10.4107 7.44533 10.4 7.584C10.3573 7.744 10.3253 7.904 10.304 8.064C10.2933 8.21333 10.2453 8.368 10.16 8.528C10.1067 8.624 10.0213 8.72 9.904 8.816C9.85067 8.86933 9.77067 8.912 9.664 8.944C9.568 8.96533 9.47733 8.976 9.392 8.976C9.24267 8.976 9.11467 8.96 9.008 8.928C8.72 8.832 8.52267 8.69867 8.416 8.528C8.32 8.35733 8.26133 8.14933 8.24 7.904C8.22933 7.79733 8.21867 7.648 8.208 7.456C8.19733 7.264 8.18667 7.06667 8.176 6.864C8.176 6.66133 8.176 6.47467 8.176 6.304C8.176 6.13333 8.176 6.01067 8.176 5.936C8.15467 5.584 8.144 5.264 8.144 4.976C8.144 4.67733 8.13333 4.35733 8.112 4.016C8.10133 3.92 8.10133 3.82933 8.112 3.744C8.12267 3.648 8.10667 3.552 8.064 3.456C8.032 3.38133 7.984 3.33333 7.92 3.312C7.86667 3.28 7.80267 3.264 7.728 3.264C7.65333 3.25333 7.57867 3.25333 7.504 3.264C7.42933 3.264 7.36 3.25867 7.296 3.248C7.17867 3.23733 7.088 3.23733 7.024 3.248C6.97067 3.248 6.88533 3.248 6.768 3.248H3.248C3.184 3.248 3.10933 3.248 3.024 3.248C2.93867 3.23733 2.85333 3.23733 2.768 3.248C2.65067 3.26933 2.528 3.27467 2.4 3.264C2.272 3.25333 2.14933 3.248 2.032 3.248ZM1.376 12.032C1.20533 12.0213 1.03467 12 0.864 11.968C0.704 11.9253 0.56 11.872 0.432 11.808C0.304 11.7333 0.197333 11.632 0.112 11.504C0.0373333 11.376 0 11.2053 0 10.992C0 10.7787 0.0693333 10.592 0.208 10.432C0.293333 10.3467 0.4 10.2827 0.528 10.24C0.656 10.1973 0.778667 10.1653 0.896 10.144C1.01333 10.1227 1.11467 10.112 1.2 10.112C1.296 10.112 1.34933 10.112 1.36 10.112L10.112 10.128C10.3893 10.128 10.64 10.1333 10.864 10.144C11.0987 10.144 11.3067 10.2187 11.488 10.368C11.712 10.5707 11.824 10.8 11.824 11.056C11.824 11.216 11.776 11.3653 11.68 11.504C11.584 11.632 11.456 11.7227 11.296 11.776C11.0827 11.8613 10.8587 11.92 10.624 11.952C10.4 11.984 10.176 12.0053 9.952 12.016C9.17333 12.048 8.40533 12.0587 7.648 12.048C6.89067 12.0373 6.15467 12.032 5.44 12.032C4.672 12.032 3.92 12.0373 3.184 12.048C2.45867 12.0587 1.856 12.0533 1.376 12.032Z" fill="black"/>
<path d="M23.4447 10.192C23.4768 10.2027 23.5088 10.208 23.5408 10.208C23.5728 10.1973 23.6048 10.192 23.6368 10.192C23.8181 10.2133 23.9834 10.2507 24.1327 10.304C24.2928 10.3467 24.4474 10.432 24.5968 10.56C24.7461 10.7093 24.8208 10.896 24.8208 11.12C24.8208 11.2373 24.7994 11.3653 24.7568 11.504C24.7247 11.632 24.6768 11.7333 24.6128 11.808C24.5274 11.8933 24.4208 11.9573 24.2928 12C24.1648 12.0427 24.0421 12.0747 23.9248 12.096C23.8074 12.1067 23.7007 12.112 23.6047 12.112C23.5194 12.112 23.4714 12.112 23.4608 12.112H14.5007C14.4474 12.112 14.3941 12.1173 14.3407 12.128C14.2874 12.128 14.2341 12.128 14.1807 12.128C13.9567 12.1387 13.7167 12.1387 13.4607 12.128C13.2047 12.1067 12.9861 12.0213 12.8048 11.872C12.5808 11.6693 12.4688 11.44 12.4688 11.184C12.4688 11.024 12.5168 10.8587 12.6128 10.688C12.7088 10.5173 12.8367 10.4 12.9967 10.336C13.2101 10.2507 13.4288 10.208 13.6528 10.208C13.8874 10.208 14.1221 10.2027 14.3568 10.192H14.4368C14.9488 10.1813 15.4501 10.176 15.9408 10.176C16.4314 10.176 16.9434 10.1813 17.4767 10.192L17.4608 8.464H16.0368C15.8661 8.464 15.6794 8.45867 15.4768 8.448C15.2741 8.43733 15.0768 8.41067 14.8848 8.368C14.6928 8.32533 14.5114 8.26667 14.3407 8.192C14.1701 8.10667 14.0261 7.99467 13.9088 7.856C13.8021 7.728 13.7221 7.57333 13.6687 7.392C13.6154 7.2 13.5781 7.01333 13.5568 6.832C13.5461 6.64 13.5408 6.48 13.5408 6.352C13.5408 6.21333 13.5408 6.13333 13.5408 6.112V1.872C13.5408 1.86133 13.5408 1.824 13.5408 1.76C13.5408 1.696 13.5461 1.62667 13.5568 1.552C13.5674 1.46667 13.5834 1.38667 13.6047 1.312C13.6261 1.22667 13.6527 1.152 13.6847 1.088C13.7807 0.938667 13.8767 0.826667 13.9727 0.752C14.0687 0.677333 14.1968 0.629333 14.3568 0.608C14.3994 0.597333 14.4474 0.592 14.5007 0.592C14.5647 0.592 14.6288 0.586667 14.6927 0.576C14.7567 0.576 14.8314 0.570667 14.9167 0.559999H21.6368C21.6901 0.559999 21.7434 0.565333 21.7968 0.576C21.8608 0.576 21.9194 0.570667 21.9727 0.559999H22.0048C22.1008 0.559999 22.1967 0.565333 22.2927 0.576C22.3994 0.586667 22.5008 0.608 22.5968 0.639999C22.6928 0.661333 22.7888 0.688 22.8848 0.72C22.9808 0.752 23.0661 0.810666 23.1408 0.896C23.1941 0.970666 23.2421 1.024 23.2847 1.056C23.3274 1.07733 23.3594 1.136 23.3808 1.232C23.4128 1.37067 23.4181 1.53067 23.3967 1.712C23.3647 1.936 23.2741 2.13333 23.1248 2.304C22.9754 2.464 22.7834 2.544 22.5487 2.544H15.7327V3.472C15.8181 3.472 15.9407 3.47733 16.1007 3.488C16.2714 3.488 16.4634 3.488 16.6768 3.488C16.9008 3.488 17.1301 3.488 17.3647 3.488C17.6101 3.488 17.8554 3.488 18.1007 3.488C18.6661 3.488 19.2794 3.48267 19.9408 3.472H21.4928C21.5461 3.472 21.5994 3.47733 21.6528 3.488C21.7061 3.488 21.7594 3.48267 21.8127 3.472H22.2448C22.3621 3.472 22.4794 3.48267 22.5968 3.504C22.7247 3.52533 22.8421 3.568 22.9487 3.632C23.1088 3.728 23.2101 3.872 23.2528 4.064C23.2954 4.24533 23.3061 4.42133 23.2847 4.592C23.2847 4.67733 23.2794 4.75733 23.2688 4.832C23.2688 4.896 23.2421 4.96 23.1888 5.024C23.0608 5.20533 22.9328 5.31733 22.8048 5.36C22.6768 5.392 22.5381 5.408 22.3888 5.408H20.4688C19.8287 5.41867 19.2474 5.424 18.7248 5.424H16.5807C16.4421 5.424 16.3034 5.424 16.1648 5.424C16.0261 5.424 15.8821 5.41867 15.7327 5.408C15.7434 5.62133 15.7487 5.74933 15.7487 5.792C15.7487 5.83467 15.7487 5.84533 15.7487 5.824C15.7487 5.792 15.7434 5.74933 15.7327 5.696C15.7327 5.632 15.7327 5.6 15.7327 5.6V6.368C15.7327 6.44267 15.7327 6.49067 15.7327 6.512C15.7434 6.53333 15.7541 6.544 15.7648 6.544C15.7754 6.53333 15.7861 6.52267 15.7968 6.512C15.8074 6.50133 15.8181 6.496 15.8287 6.496C15.9034 6.53867 16.0208 6.57067 16.1807 6.592C16.3514 6.61333 16.5434 6.624 16.7568 6.624H16.8208C16.8741 6.624 17.0021 6.624 17.2048 6.624C17.4181 6.61333 17.6634 6.608 17.9408 6.608C18.2288 6.608 18.5274 6.608 18.8368 6.608C19.1568 6.608 19.4554 6.608 19.7327 6.608C20.0208 6.608 20.2661 6.61333 20.4688 6.624C20.6714 6.624 20.8047 6.624 20.8687 6.624H21.6368C21.7434 6.624 21.8234 6.61867 21.8768 6.608H22.1488C22.3194 6.608 22.4901 6.61333 22.6607 6.624C22.8314 6.63467 23.0021 6.66667 23.1728 6.72C23.2048 6.73067 23.2314 6.74133 23.2528 6.752C23.2848 6.76267 23.3168 6.77867 23.3488 6.8C23.6154 6.992 23.7381 7.22667 23.7168 7.504C23.6954 7.78133 23.5354 7.99467 23.2367 8.144C23.0021 8.272 22.7567 8.35733 22.5007 8.4C22.2447 8.44267 21.9941 8.464 21.7488 8.464H21.0928C20.9754 8.47467 20.7994 8.48 20.5648 8.48C20.3301 8.46933 20.0261 8.464 19.6528 8.464L19.6688 10.192C19.9248 10.192 20.1594 10.192 20.3727 10.192C20.5967 10.1813 20.8101 10.176 21.0128 10.176C21.2261 10.176 21.4394 10.1813 21.6528 10.192C21.8767 10.192 22.1114 10.192 22.3568 10.192C22.5488 10.2027 22.7354 10.2027 22.9167 10.192C23.0981 10.1707 23.2741 10.1707 23.4447 10.192Z" fill="black"/>
<path d="M35.9011 6.736C36.0825 6.74667 36.2638 6.77333 36.4451 6.816C36.6371 6.85867 36.8078 6.93867 36.9571 7.056C37.0318 7.10933 37.0851 7.168 37.1171 7.232C37.1598 7.296 37.1811 7.376 37.1811 7.472C37.1811 7.57867 37.1598 7.696 37.1171 7.824C37.0851 7.952 37.0371 8.04267 36.9731 8.096C36.8878 8.18133 36.7758 8.24533 36.6371 8.288C36.5091 8.32 36.3811 8.34667 36.2531 8.368C36.1251 8.37867 36.0131 8.384 35.9171 8.384C35.8318 8.384 35.7838 8.384 35.7731 8.384L27.2451 8.4C26.9998 8.41067 26.7438 8.41067 26.4771 8.4C26.2211 8.38933 26.0025 8.30933 25.8211 8.16C25.5758 7.97867 25.4531 7.77067 25.4531 7.536C25.4531 7.38667 25.5011 7.248 25.5971 7.12C25.7038 6.992 25.8425 6.90133 26.0131 6.848C26.2371 6.77333 26.4665 6.74133 26.7011 6.752C26.9358 6.752 27.1758 6.74667 27.4211 6.736C27.6771 6.72533 27.8958 6.72 28.0771 6.72C28.2691 6.72 28.4505 6.72 28.6211 6.72C28.8025 6.72 28.9891 6.72533 29.1811 6.736C29.3731 6.736 29.6025 6.736 29.8691 6.736V5.872H28.1411C27.9278 5.872 27.7038 5.872 27.4691 5.872C27.2451 5.872 27.0158 5.86667 26.7811 5.856C26.5571 5.83467 26.3651 5.74933 26.2051 5.6C26.0558 5.44 25.9705 5.232 25.9491 4.976C25.9278 4.784 25.9118 4.54933 25.9011 4.272C25.9011 3.99467 25.9011 3.78133 25.9011 3.632C25.9011 3.51467 25.9065 3.34933 25.9171 3.136C25.9278 2.92267 25.9811 2.75733 26.0771 2.64C26.2265 2.46933 26.4238 2.368 26.6691 2.336C26.9145 2.29333 27.1545 2.272 27.3891 2.272H27.9491C28.0558 2.272 28.2371 2.272 28.4931 2.272C28.7491 2.272 29.0478 2.27733 29.3891 2.288C29.7305 2.288 30.0931 2.29333 30.4771 2.304C30.8718 2.304 31.2505 2.304 31.6131 2.304C31.9758 2.304 32.3065 2.304 32.6051 2.304C32.9145 2.304 33.1545 2.29867 33.3251 2.288C33.5171 2.288 33.6665 2.288 33.7731 2.288C33.8798 2.288 33.9758 2.288 34.0611 2.288C34.1465 2.27733 34.2318 2.272 34.3171 2.272C34.4025 2.272 34.5091 2.272 34.6371 2.272C34.6371 2.25067 34.6371 2.208 34.6371 2.144C34.6478 2.06933 34.6531 1.99467 34.6531 1.92C34.6638 1.83467 34.6691 1.76 34.6691 1.696C34.6691 1.632 34.6585 1.6 34.6371 1.6H33.4051C33.2665 1.6 33.0425 1.6 32.7331 1.6C32.4238 1.6 32.0718 1.60533 31.6771 1.616C31.2931 1.616 30.8825 1.616 30.4451 1.616C30.0078 1.616 29.5865 1.616 29.1811 1.616C28.7865 1.616 28.4345 1.616 28.1251 1.616C27.8158 1.616 27.5865 1.61067 27.4371 1.6H27.0531C26.9465 1.6 26.8505 1.6 26.7651 1.6C26.6798 1.6 26.5945 1.58933 26.5091 1.568C26.4131 1.54667 26.3225 1.51467 26.2371 1.472C26.1518 1.41867 26.0825 1.34933 26.0291 1.264C25.9865 1.168 25.9598 1.06667 25.9491 0.96C25.9491 0.853333 25.9491 0.752 25.9491 0.656C25.9491 0.56 25.9758 0.469333 26.0291 0.384C26.0931 0.298666 26.1625 0.229333 26.2371 0.176C26.3225 0.122666 26.4078 0.0906665 26.4931 0.0799999C26.5785 0.0693334 26.6745 0.0533333 26.7811 0.0319996C26.8665 0.0106665 26.9518 0.00533326 27.0371 0.0159998C27.1225 0.0266663 27.2078 0.0266663 27.2931 0.0159998C27.3891 0.00533326 27.4798 0 27.5651 0C27.6611 0 27.7571 0 27.8531 0C28.1838 0.0106665 28.6051 0.0159998 29.1171 0.0159998C29.6291 0.00533326 30.1251 0 30.6051 0H34.9731C35.5171 0 35.9331 0.0906668 36.2211 0.272C36.5091 0.442667 36.6531 0.730666 36.6531 1.136V2.304C36.6531 2.4 36.6531 2.512 36.6531 2.64C36.6638 2.768 36.6585 2.896 36.6371 3.024C36.6265 3.14133 36.5998 3.25333 36.5571 3.36C36.5145 3.46667 36.4451 3.54667 36.3491 3.6C36.1891 3.68533 36.0025 3.73333 35.7891 3.744C35.5865 3.744 35.3945 3.744 35.2131 3.744H27.8691L27.8531 4.384H35.3891C35.4745 4.384 35.5598 4.384 35.6451 4.384C35.7411 4.384 35.8318 4.38933 35.9171 4.4C36.0878 4.41067 36.2371 4.45333 36.3651 4.528C36.4931 4.592 36.5838 4.71467 36.6371 4.896C36.7545 5.312 36.6158 5.6 36.2211 5.76C36.0931 5.81333 35.9598 5.84533 35.8211 5.856C35.6931 5.86667 35.5705 5.872 35.4531 5.872H32.1091C32.1198 6.02133 32.1251 6.17067 32.1251 6.32C32.1358 6.46933 32.1411 6.608 32.1411 6.736C32.4398 6.736 32.7598 6.736 33.1011 6.736C33.4425 6.72533 33.7838 6.72 34.1251 6.72C34.4665 6.72 34.7918 6.72 35.1011 6.72C35.4105 6.72 35.6771 6.72533 35.9011 6.736ZM34.9571 9.184C35.3945 9.184 35.7305 9.25333 35.9651 9.392C36.2105 9.53067 36.3331 9.72267 36.3331 9.968V10.928C36.3331 10.9813 36.3331 11.088 36.3331 11.248C36.3438 11.3973 36.3491 11.5627 36.3491 11.744C36.3491 11.9147 36.3491 12.08 36.3491 12.24C36.3491 12.4 36.3438 12.512 36.3331 12.576C36.3118 12.8 36.2211 12.9813 36.0611 13.12C35.9118 13.2587 35.7145 13.328 35.4691 13.328C35.3518 13.328 35.2398 13.312 35.1331 13.28C34.9838 13.2373 34.8665 13.1733 34.7811 13.088C34.7065 13.0027 34.6478 12.9067 34.6051 12.8C34.5731 12.6933 34.5465 12.5813 34.5251 12.464C34.5145 12.336 34.5091 12.2133 34.5091 12.096C34.5091 12.0533 34.5038 11.9787 34.4931 11.872C34.4931 11.7547 34.4878 11.6373 34.4771 11.52C34.4771 11.4027 34.4718 11.2907 34.4611 11.184C34.4611 11.0773 34.4558 11.0027 34.4451 10.96C34.4131 10.9493 34.3225 10.9387 34.1731 10.928C34.0345 10.9173 33.7678 10.912 33.3731 10.912C33.1918 10.912 33.0318 10.9173 32.8931 10.928C32.7545 10.928 32.6265 10.928 32.5091 10.928H26.8131C26.8025 10.928 26.7598 10.9173 26.6851 10.896C26.6211 10.8747 26.5465 10.8427 26.4611 10.8C26.3758 10.7573 26.2958 10.6987 26.2211 10.624C26.1465 10.5493 26.1038 10.4533 26.0931 10.336C26.0611 10.1333 26.0611 9.97333 26.0931 9.856C26.1251 9.73867 26.1891 9.62133 26.2851 9.504C26.4131 9.35467 26.5518 9.26933 26.7011 9.248C26.8505 9.216 26.9305 9.2 26.9411 9.2L34.9571 9.184Z" fill="black"/>
<path d="M53.8724 11.872C53.851 12 53.835 12.128 53.8244 12.256C53.8137 12.3733 53.787 12.496 53.7444 12.624C53.723 12.6667 53.707 12.704 53.6964 12.736C53.6857 12.768 53.6697 12.8053 53.6484 12.848C53.5737 12.9973 53.4777 13.1147 53.3604 13.2C53.115 13.3493 52.843 13.3867 52.5444 13.312C52.3737 13.28 52.235 13.216 52.1284 13.12C52.0324 13.0347 51.9577 12.9227 51.9044 12.784C51.8617 12.656 51.8244 12.528 51.7924 12.4C51.771 12.272 51.7604 12.16 51.7604 12.064C51.7604 11.968 51.7604 11.9147 51.7604 11.904V2.016C51.7604 1.888 51.7604 1.74933 51.7604 1.6C51.7604 1.45067 51.771 1.30133 51.7924 1.152C51.8137 1.00267 51.8457 0.864 51.8884 0.736C51.931 0.608 51.9897 0.506667 52.0644 0.432C52.1817 0.314666 52.3044 0.245333 52.4324 0.224C52.5604 0.192 52.699 0.176 52.8484 0.176C53.0297 0.176 53.195 0.229333 53.3444 0.335999C53.5044 0.432 53.6164 0.570666 53.6804 0.752C53.7764 0.976 53.8297 1.21067 53.8404 1.456C53.851 1.70133 53.8617 1.94667 53.8724 2.192V2.272C53.8937 3.09333 53.899 3.936 53.8884 4.8C53.8777 5.664 53.8724 6.48 53.8724 7.248V11.296C53.8724 11.392 53.8724 11.488 53.8724 11.584C53.883 11.68 53.883 11.776 53.8724 11.872ZM46.3204 10.304C46.3097 10.176 46.3044 10.048 46.3044 9.92C46.3044 9.792 46.3044 9.664 46.3044 9.536V4.448C46.3044 4.27733 46.3044 4.10667 46.3044 3.936C46.3044 3.76533 46.2937 3.58933 46.2724 3.408C46.2617 3.35467 46.2457 3.28 46.2244 3.184C46.2137 3.088 46.1817 3.02933 46.1284 3.008C46.075 2.976 46.011 2.96533 45.9364 2.976C45.8724 2.976 45.8084 2.97067 45.7444 2.96C45.6697 2.94933 45.595 2.94933 45.5204 2.96C45.4564 2.97067 45.387 2.97067 45.3124 2.96H44.5604C44.379 2.97067 44.1977 2.97067 44.0164 2.96C43.835 2.94933 43.6537 2.94933 43.4724 2.96C43.387 2.97067 43.307 2.976 43.2324 2.976C43.1684 2.96533 43.0937 2.96 43.0084 2.96C42.891 2.96 42.7684 2.95467 42.6404 2.944C42.5124 2.93333 42.395 2.89067 42.2884 2.816C42.139 2.70933 42.0377 2.576 41.9844 2.416C41.931 2.256 41.9044 2.09067 41.9044 1.92C41.8937 1.71733 41.9364 1.51467 42.0324 1.312C42.0857 1.184 42.155 1.09333 42.2404 1.04C42.2937 0.986667 42.3684 0.944 42.4644 0.912C42.571 0.869333 42.6617 0.837333 42.7364 0.816C42.9604 0.762667 43.195 0.736 43.4404 0.736C43.6857 0.725334 43.9257 0.72 44.1604 0.72H46.9444C47.083 0.741333 47.227 0.762666 47.3764 0.783999C47.5364 0.794667 47.6804 0.826667 47.8084 0.88C47.8937 0.912 47.9737 0.954666 48.0484 1.008C48.1337 1.06133 48.203 1.12533 48.2564 1.2C48.3524 1.34933 48.4057 1.49867 48.4164 1.648C48.4377 1.79733 48.459 1.96267 48.4804 2.144C48.5017 2.44267 48.5124 2.74133 48.5124 3.04C48.5124 3.328 48.5124 3.62133 48.5124 3.92V9.168C48.5124 9.17867 48.5124 9.264 48.5124 9.424C48.523 9.57333 48.5284 9.75467 48.5284 9.968C48.5284 10.1707 48.5284 10.3893 48.5284 10.624C48.5284 10.848 48.523 11.0453 48.5124 11.216C48.5017 11.3227 48.4857 11.4347 48.4644 11.552C48.443 11.6693 48.4057 11.7813 48.3524 11.888C48.3097 11.9947 48.2457 12.0907 48.1604 12.176C48.075 12.2613 47.963 12.3307 47.8244 12.384C47.643 12.4587 47.4617 12.496 47.2804 12.496C47.1417 12.496 47.003 12.4693 46.8644 12.416C46.7257 12.352 46.6297 12.2613 46.5764 12.144C46.4057 11.8027 46.3204 11.424 46.3204 11.008V10.304Z" fill="black"/>
<path d="M61.9856 10.304C62.295 10.304 62.5723 10.3573 62.8176 10.464C63.0736 10.5707 63.223 10.7947 63.2656 11.136C63.287 11.3067 63.2603 11.4613 63.1856 11.6C63.1216 11.7387 63.031 11.856 62.9136 11.952C62.7963 12.048 62.6576 12.1227 62.4976 12.176C62.3483 12.2293 62.2043 12.2613 62.0656 12.272C61.9483 12.272 61.7403 12.272 61.4416 12.272C61.1536 12.272 60.8283 12.272 60.4656 12.272C60.1136 12.272 59.751 12.272 59.3776 12.272C59.0043 12.272 58.6896 12.272 58.4336 12.272H58.3056C58.0603 12.2613 57.8043 12.2507 57.5376 12.24C57.2816 12.2293 57.031 12.1867 56.7856 12.112C56.615 12.0587 56.455 11.9627 56.3056 11.824C56.1563 11.6853 56.039 11.5253 55.9536 11.344C55.9003 11.2267 55.863 11.088 55.8416 10.928C55.8203 10.7573 55.8043 10.5973 55.7936 10.448C55.783 10.288 55.7776 10.1493 55.7776 10.032C55.7883 9.91467 55.7936 9.85067 55.7936 9.84V3.04C55.7936 3.008 55.7883 2.92267 55.7776 2.784C55.767 2.64533 55.7616 2.48533 55.7616 2.304C55.7723 2.12267 55.7883 1.936 55.8096 1.744C55.8416 1.552 55.9003 1.392 55.9856 1.264C56.0496 1.15733 56.1616 1.072 56.3216 1.008C56.4923 0.944 56.663 0.896 56.8336 0.864C57.015 0.832 57.175 0.816 57.3136 0.816C57.463 0.805333 57.5536 0.8 57.5856 0.8H61.3296C61.3403 0.8 61.4203 0.8 61.5696 0.8C61.7296 0.8 61.9003 0.821334 62.0816 0.864C62.263 0.896 62.439 0.954666 62.6096 1.04C62.7803 1.12533 62.8923 1.25333 62.9456 1.424C62.967 1.488 62.9776 1.568 62.9776 1.664C62.9883 1.74933 62.9936 1.84533 62.9936 1.952C62.9936 2.048 62.983 2.13867 62.9616 2.224C62.951 2.30933 62.935 2.37333 62.9136 2.416C62.839 2.55467 62.7056 2.65067 62.5136 2.704C62.3003 2.75733 61.9963 2.784 61.6016 2.784C61.5376 2.784 61.463 2.784 61.3776 2.784C61.303 2.784 61.1803 2.784 61.0096 2.784C60.8496 2.77333 60.6203 2.768 60.3216 2.768C60.0336 2.768 59.6443 2.768 59.1536 2.768C59.0043 2.768 58.8496 2.77333 58.6896 2.784C58.5403 2.79467 58.4283 2.816 58.3536 2.848C58.279 2.88 58.2203 2.944 58.1776 3.04C58.1456 3.12533 58.119 3.22667 58.0976 3.344C58.087 3.45067 58.0816 3.55733 58.0816 3.664C58.0816 3.77067 58.087 3.856 58.0976 3.92V3.936L58.1616 9.472C58.1616 9.68533 58.2096 9.86133 58.3056 10C58.4016 10.128 58.5723 10.192 58.8176 10.192C58.8496 10.192 58.9616 10.2027 59.1536 10.224C59.3563 10.2347 59.607 10.2453 59.9056 10.256C60.215 10.2667 60.551 10.2773 60.9136 10.288C61.2763 10.2987 61.6336 10.304 61.9856 10.304ZM67.5056 5.248C67.6976 5.29067 67.863 5.376 68.0016 5.504C68.151 5.632 68.2256 5.81333 68.2256 6.048C68.2256 6.13333 68.2203 6.21333 68.2096 6.288C68.2096 6.352 68.199 6.42667 68.1776 6.512C68.1456 6.69333 68.0763 6.848 67.9696 6.976C67.8736 7.104 67.7243 7.168 67.5216 7.168L66.2096 7.184C66.199 7.46133 66.1936 7.77067 66.1936 8.112C66.1936 8.45333 66.1936 8.80533 66.1936 9.168C66.1936 9.53067 66.1936 9.89867 66.1936 10.272C66.2043 10.6347 66.2096 10.9813 66.2096 11.312C66.2096 11.4507 66.2043 11.6213 66.1936 11.824C66.183 12.0267 66.1456 12.224 66.0816 12.416C66.0176 12.5973 65.9216 12.7573 65.7936 12.896C65.6656 13.0347 65.4843 13.1093 65.2496 13.12C64.9936 13.1413 64.791 13.0987 64.6416 12.992C64.4923 12.8853 64.3803 12.7467 64.3056 12.576C64.231 12.416 64.183 12.24 64.1616 12.048C64.1403 11.8453 64.1296 11.6587 64.1296 11.488V1.664C64.1296 1.65333 64.1296 1.60533 64.1296 1.52C64.1296 1.424 64.1403 1.31733 64.1616 1.2C64.183 1.072 64.215 0.944 64.2576 0.816C64.311 0.677333 64.3803 0.565333 64.4656 0.48C64.5403 0.405333 64.647 0.352 64.7856 0.32C64.935 0.277333 65.0683 0.256 65.1856 0.256C65.4203 0.256 65.6176 0.336 65.7776 0.496C65.927 0.645334 66.0123 0.805333 66.0336 0.976C66.0656 1.136 66.0923 1.30667 66.1136 1.488C66.167 2.07467 66.199 2.67733 66.2096 3.296C66.231 3.91467 66.2416 4.528 66.2416 5.136L67.5056 5.248Z" fill="black"/>
<path d="M75.6829 7.2C75.5549 7.25333 75.4215 7.29067 75.2829 7.312C75.1549 7.32267 75.0215 7.328 74.8829 7.328H71.4269C71.1922 7.328 70.9522 7.328 70.7069 7.328C70.4615 7.328 70.2162 7.31733 69.9709 7.296C69.7362 7.28533 69.5442 7.2 69.3949 7.04C69.2455 6.88 69.1602 6.66667 69.1389 6.4C69.1282 6.304 69.1175 6.16533 69.1069 5.984C69.1069 5.80267 69.1015 5.616 69.0909 5.424C69.0909 5.232 69.0909 5.05067 69.0909 4.88C69.0909 4.70933 69.0909 4.58133 69.0909 4.496V4.336C69.0802 4.21867 69.0802 4.09067 69.0909 3.952C69.1015 3.81333 69.1549 3.68533 69.2509 3.568C69.4002 3.38667 69.6029 3.28 69.8589 3.248C70.1255 3.20533 70.3815 3.184 70.6269 3.184H73.9229V2.24H71.0429C70.9789 2.24 70.9149 2.24533 70.8509 2.256C70.7869 2.256 70.7229 2.256 70.6589 2.256C70.5949 2.26667 70.5255 2.272 70.4509 2.272C70.3869 2.272 70.3175 2.272 70.2429 2.272C70.0295 2.272 69.8429 2.256 69.6829 2.224C69.5015 2.18133 69.3522 2.064 69.2349 1.872C69.1602 1.744 69.1122 1.60533 69.0909 1.456C69.0695 1.296 69.0802 1.14667 69.1229 1.008C69.1762 0.826667 69.2989 0.693333 69.4909 0.608C69.6829 0.512 69.8429 0.453333 69.9709 0.432C70.1309 0.4 70.3069 0.384 70.4989 0.384H70.7869C70.8402 0.384 70.8935 0.389333 70.9469 0.4C71.0002 0.4 71.0535 0.4 71.1069 0.4H74.0349C74.5895 0.4 75.0162 0.512 75.3149 0.736C75.6242 0.96 75.7789 1.27467 75.7789 1.68V3.392C75.7789 3.552 75.7415 3.74933 75.6669 3.984C75.6029 4.21867 75.4855 4.38933 75.3149 4.496C75.1762 4.58133 75.0322 4.63467 74.8829 4.656C74.7442 4.66667 74.6002 4.66667 74.4509 4.656H71.0749V5.712H74.7229C74.8295 5.712 74.9362 5.712 75.0429 5.712C75.1495 5.712 75.2562 5.71733 75.3629 5.728C75.5442 5.73867 75.6935 5.80267 75.8109 5.92C75.9389 6.03733 76.0295 6.176 76.0829 6.336C76.2109 6.752 76.0775 7.04 75.6829 7.2ZM71.8269 12.064C71.7095 12.224 71.5869 12.3787 71.4589 12.528C71.3415 12.6667 71.2082 12.784 71.0589 12.88C70.9202 12.976 70.7709 13.0347 70.6109 13.056C70.4509 13.088 70.2802 13.072 70.0989 13.008C69.8749 12.9333 69.7415 12.8213 69.6989 12.672C69.6669 12.5227 69.6829 12.3627 69.7469 12.192C69.8109 12.0213 69.9015 11.856 70.0189 11.696C70.1362 11.536 70.2322 11.3973 70.3069 11.28C70.4989 10.9707 70.6855 10.6613 70.8669 10.352C71.0482 10.032 71.2455 9.72267 71.4589 9.424C71.5442 9.30667 71.6349 9.17867 71.7309 9.04C71.8375 8.90133 71.9495 8.77867 72.0669 8.672C72.1842 8.55467 72.3122 8.45867 72.4509 8.384C72.5895 8.29867 72.7389 8.25067 72.8989 8.24C73.0589 8.22933 73.2029 8.26133 73.3309 8.336C73.4589 8.41067 73.5709 8.50667 73.6669 8.624C73.7735 8.73067 73.8695 8.85333 73.9549 8.992C74.0509 9.12 74.1362 9.23733 74.2109 9.344C74.5949 9.94133 74.9629 10.5333 75.3149 11.12C75.4962 10.8427 75.6669 10.56 75.8269 10.272C75.9975 9.984 76.1789 9.70133 76.3709 9.424C76.5415 9.17867 76.7389 8.928 76.9629 8.672C77.1975 8.40533 77.4802 8.26133 77.8109 8.24C77.9709 8.22933 78.1149 8.26133 78.2429 8.336C78.3709 8.41067 78.4829 8.50667 78.5789 8.624C78.6855 8.73067 78.7815 8.85333 78.8669 8.992C78.9629 9.12 79.0482 9.23733 79.1229 9.344C79.3789 9.71733 79.6189 10.1013 79.8429 10.496C80.0775 10.88 80.3175 11.264 80.5629 11.648C80.6269 11.744 80.6855 11.8347 80.7389 11.92C80.8029 12.0053 80.8509 12.0907 80.8829 12.176C80.9255 12.2613 80.9469 12.352 80.9469 12.448C80.9469 12.5333 80.9095 12.6293 80.8349 12.736C80.7175 12.9173 80.5682 13.024 80.3869 13.056C80.2055 13.0987 80.0242 13.0613 79.8429 12.944C79.4802 12.7307 79.1655 12.4533 78.8989 12.112C78.6322 11.7707 78.3762 11.44 78.1309 11.12C77.9709 10.9173 77.8375 10.8213 77.7309 10.832C77.6349 10.8427 77.5175 10.9493 77.3789 11.152C77.2829 11.28 77.1815 11.408 77.0749 11.536C76.9682 11.664 76.8562 11.8187 76.7389 12C76.6215 12.16 76.4989 12.32 76.3709 12.48C76.2535 12.6293 76.1202 12.752 75.9709 12.848C75.8322 12.9547 75.6829 13.024 75.5229 13.056C75.3629 13.088 75.1922 13.072 75.0109 13.008C74.8402 12.944 74.7229 12.864 74.6589 12.768C74.3709 12.5547 74.1149 12.2987 73.8909 12C73.6669 11.6907 73.4429 11.3973 73.2189 11.12C73.0589 10.9173 72.9309 10.8213 72.8349 10.832C72.7389 10.8427 72.6162 10.9493 72.4669 11.152C72.3709 11.28 72.2695 11.4187 72.1629 11.568C72.0562 11.7173 71.9442 11.8827 71.8269 12.064ZM80.3549 0.704C80.3869 0.778666 80.4135 0.874667 80.4349 0.992C80.4562 1.10933 80.4722 1.22667 80.4829 1.344C80.4935 1.45067 80.4989 1.552 80.4989 1.648C80.4989 1.744 80.4989 1.80267 80.4989 1.824V7.024C80.4989 7.03467 80.4935 7.07733 80.4829 7.152C80.4722 7.216 80.4455 7.296 80.4029 7.392C80.3709 7.488 80.3175 7.584 80.2429 7.68C80.1789 7.776 80.0935 7.856 79.9869 7.92C79.8375 8.016 79.6829 8.064 79.5229 8.064C79.3095 8.064 79.1229 8 78.9629 7.872C78.8349 7.79733 78.7389 7.69067 78.6749 7.552C78.6002 7.424 78.5522 7.296 78.5309 7.168C78.5095 7.04 78.4935 6.91733 78.4829 6.8V6.336H78.4349C78.2749 6.32533 78.0989 6.32 77.9069 6.32C77.7255 6.30933 77.5442 6.29333 77.3629 6.272C77.1922 6.25067 77.0375 6.21333 76.8989 6.16C76.7602 6.096 76.6589 6.01067 76.5949 5.904C76.5202 5.78667 76.4829 5.648 76.4829 5.488C76.4935 5.31733 76.5095 5.17333 76.5309 5.056C76.5629 4.928 76.6269 4.82133 76.7229 4.736C76.8189 4.65067 76.9789 4.58133 77.2029 4.528C77.2455 4.51733 77.3255 4.512 77.4429 4.512C77.5709 4.50133 77.6989 4.49067 77.8269 4.48C77.9655 4.46933 78.0935 4.464 78.2109 4.464C78.3389 4.45333 78.4295 4.448 78.4829 4.448V3.728C78.3229 3.728 78.1415 3.73333 77.9389 3.744C77.7469 3.744 77.5602 3.73867 77.3789 3.728C77.2082 3.70667 77.0482 3.67467 76.8989 3.632C76.7602 3.58933 76.6589 3.51467 76.5949 3.408C76.5629 3.35467 76.5362 3.28533 76.5149 3.2C76.5042 3.11467 76.4935 3.02933 76.4829 2.944C76.4829 2.848 76.4882 2.75733 76.4989 2.672C76.5095 2.58667 76.5202 2.512 76.5309 2.448C76.5629 2.33067 76.6269 2.22933 76.7229 2.144C76.8189 2.05867 76.9789 1.98933 77.2029 1.936C77.2349 1.92533 77.2989 1.92 77.3949 1.92C77.5015 1.90933 77.6189 1.904 77.7469 1.904C77.8749 1.89333 78.0029 1.888 78.1309 1.888C78.2695 1.87733 78.3869 1.872 78.4829 1.872C78.4722 1.776 78.4722 1.64267 78.4829 1.472C78.4935 1.30133 78.5095 1.17333 78.5309 1.088C78.5629 1.00267 78.5895 0.917333 78.6109 0.832C78.6322 0.746666 78.6802 0.661333 78.7549 0.576C78.8509 0.469333 78.9789 0.394666 79.1389 0.352C79.3095 0.298667 79.4909 0.282667 79.6829 0.304C80.0242 0.357333 80.2482 0.490666 80.3549 0.704Z" fill="black"/>
<path d="M84.2601 5.312C84.3988 5.32267 84.6015 5.33333 84.8681 5.344C85.1455 5.35467 85.4335 5.36 85.7321 5.36C86.0415 5.36 86.3295 5.36 86.5961 5.36C86.8735 5.36 87.0815 5.36 87.2201 5.36C87.4015 5.36 87.5881 5.37067 87.7801 5.392C87.9721 5.41333 88.1748 5.46667 88.3881 5.552C88.4948 5.59467 88.5801 5.65333 88.6441 5.728C88.7081 5.792 88.7561 5.86667 88.7881 5.952C88.8201 6.02667 88.8415 6.10667 88.8521 6.192C88.8628 6.26667 88.8628 6.33067 88.8521 6.384C88.8308 6.58667 88.7828 6.74667 88.7081 6.864C88.6335 6.98133 88.4788 7.09867 88.2441 7.216C88.1055 7.28 87.9508 7.328 87.7801 7.36C87.6095 7.38133 87.4335 7.392 87.2521 7.392C87.0815 7.392 86.9108 7.392 86.7401 7.392C86.5801 7.38133 86.4468 7.376 86.3401 7.376H86.3081C86.2975 7.376 86.2228 7.376 86.0841 7.376C85.9561 7.376 85.7908 7.38133 85.5881 7.392C85.3961 7.392 85.1775 7.392 84.9321 7.392C84.6975 7.392 84.4681 7.392 84.2441 7.392C84.0521 7.392 83.8548 7.392 83.6521 7.392C83.4601 7.392 83.2735 7.376 83.0921 7.344C82.9215 7.312 82.7668 7.264 82.6281 7.2C82.4895 7.12533 82.3775 7.024 82.2921 6.896C82.1961 6.75733 82.1268 6.58667 82.0841 6.384C82.0521 6.17067 82.0255 5.968 82.0041 5.776C81.9935 5.584 81.9881 5.41867 81.9881 5.28C81.9988 5.14133 82.0041 5.06133 82.0041 5.04L82.0361 2.032C82.0361 2 82.0361 1.94133 82.0361 1.856C82.0361 1.77067 82.0415 1.68 82.0521 1.584C82.0628 1.47733 82.0788 1.37067 82.1001 1.264C82.1215 1.15733 82.1535 1.072 82.1961 1.008C82.2921 0.858666 82.3881 0.746666 82.4841 0.672C82.5908 0.597333 82.7295 0.549333 82.9001 0.528C83.1135 0.485333 83.4228 0.464 83.8281 0.464C83.8601 0.464 83.9508 0.464 84.1001 0.464C84.2601 0.464 84.4415 0.469333 84.6441 0.48C84.8575 0.48 85.0815 0.485333 85.3161 0.496C85.5508 0.496 85.7695 0.501334 85.9721 0.512C86.1855 0.512 86.3668 0.517333 86.5161 0.528C86.6761 0.528 86.7721 0.528 86.8041 0.528C86.9428 0.528 87.0868 0.533333 87.2361 0.544C87.3855 0.544 87.5295 0.56 87.6681 0.592C87.8068 0.624 87.9348 0.677333 88.0521 0.752C88.1801 0.816 88.2868 0.917333 88.3721 1.056C88.4895 1.23733 88.5428 1.43467 88.5321 1.648C88.5321 1.86133 88.4681 2.05867 88.3401 2.24C88.2228 2.42133 88.0735 2.53333 87.8921 2.576C87.7215 2.608 87.5455 2.624 87.3641 2.624L84.2601 2.608V5.312ZM92.4681 11.12C92.4681 11.12 92.5001 11.1307 92.5641 11.152C92.6388 11.1733 92.7188 11.2107 92.8041 11.264C92.8895 11.3067 92.9695 11.3707 93.0441 11.456C93.1188 11.5307 93.1668 11.6213 93.1881 11.728C93.2415 12.1333 93.1721 12.448 92.9801 12.672C92.8521 12.8213 92.7135 12.912 92.5641 12.944C92.4148 12.976 92.3348 12.992 92.3241 12.992H84.3081C83.8708 12.992 83.5295 12.9227 83.2841 12.784C83.0388 12.656 82.9161 12.4693 82.9161 12.224V10.32C82.9161 10.256 82.9108 10.176 82.9001 10.08C82.9001 9.984 82.9001 9.88267 82.9001 9.776C82.9001 9.66933 82.9001 9.568 82.9001 9.472C82.9108 9.376 82.9161 9.296 82.9161 9.232C82.9375 9.008 83.0441 8.82667 83.2361 8.688C83.4281 8.54933 83.6468 8.48 83.8921 8.48C83.9455 8.48 84.0095 8.48533 84.0841 8.496C84.1695 8.496 84.2388 8.50667 84.2921 8.528C84.4308 8.57067 84.5428 8.64533 84.6281 8.752C84.7135 8.848 84.7775 8.96 84.8201 9.088C84.8628 9.216 84.8895 9.35467 84.9001 9.504C84.9108 9.64267 84.9215 9.77067 84.9321 9.888C84.9321 9.93067 84.9321 10.016 84.9321 10.144C84.9321 10.2613 84.9321 10.384 84.9321 10.512C84.9321 10.64 84.9321 10.7627 84.9321 10.88C84.9321 10.9867 84.9321 11.056 84.9321 11.088C84.9641 11.0987 85.0495 11.1147 85.1881 11.136C85.3375 11.1467 85.6095 11.152 86.0041 11.152C86.3455 11.152 86.6495 11.1467 86.9161 11.136C87.1828 11.1253 87.3215 11.12 87.3321 11.12H92.4681ZM90.5001 5.072C90.1908 5.05067 89.9135 5.03467 89.6681 5.024C89.4228 5.00267 89.2308 4.88533 89.0921 4.672C89.0281 4.56533 88.9961 4.432 88.9961 4.272C88.9961 4.112 89.0068 3.97333 89.0281 3.856C89.0601 3.73867 89.1188 3.64267 89.2041 3.568C89.2895 3.48267 89.4388 3.41333 89.6521 3.36C89.6948 3.34933 89.7908 3.344 89.9401 3.344C90.0895 3.33333 90.2495 3.32267 90.4201 3.312C90.6015 3.30133 90.7668 3.296 90.9161 3.296C91.0655 3.28533 91.1615 3.28 91.2041 3.28V1.744C91.1935 1.62667 91.1881 1.50933 91.1881 1.392C91.1988 1.27467 91.2201 1.15733 91.2521 1.04C91.2735 0.954666 91.2948 0.874667 91.3161 0.8C91.3375 0.725333 91.3855 0.645333 91.4601 0.559999C91.5455 0.453333 91.6628 0.378666 91.8121 0.335999C91.9721 0.293333 92.1428 0.282667 92.3241 0.304C92.6655 0.357333 92.8841 0.490666 92.9801 0.704C93.0441 0.832 93.0815 0.992 93.0921 1.184C93.1135 1.36533 93.1241 1.47733 93.1241 1.52V7.696H93.1081C93.1081 7.70667 93.1028 7.744 93.0921 7.808C93.0815 7.872 93.0601 7.952 93.0281 8.048C92.9961 8.13333 92.9481 8.224 92.8841 8.32C92.8201 8.416 92.7348 8.496 92.6281 8.56C92.4788 8.64533 92.3295 8.688 92.1801 8.688C91.9988 8.688 91.8228 8.62933 91.6521 8.512C91.5241 8.42667 91.4335 8.32 91.3801 8.192C91.3161 8.07467 91.2735 7.95733 91.2521 7.84C91.2308 7.72267 91.2148 7.60533 91.2041 7.488V5.072H90.5001Z" fill="black"/>
<path d="M99.754 12.848C99.7433 12.848 99.7273 12.8373 99.706 12.816C99.5993 12.7307 99.5247 12.608 99.482 12.448C99.45 12.2773 99.434 12.1333 99.434 12.016C99.4233 11.824 99.4073 11.632 99.386 11.44C99.3753 11.248 99.37 11.0613 99.37 10.88C99.37 10.6027 99.37 10.3307 99.37 10.064C99.37 9.79733 99.3967 9.53067 99.45 9.264C99.482 9.09333 99.5353 8.96 99.61 8.864C99.6847 8.75733 99.802 8.672 99.962 8.608C100.261 8.49067 100.559 8.432 100.858 8.432H108.234C108.437 8.44267 108.645 8.45867 108.858 8.48C109.071 8.50133 109.274 8.55467 109.466 8.64C109.679 8.72533 109.818 8.86933 109.882 9.072C109.957 9.264 110.005 9.46667 110.026 9.68C110.037 9.86133 110.042 10.0747 110.042 10.32C110.053 10.5547 110.053 10.7947 110.042 11.04C110.031 11.2853 110.015 11.5307 109.994 11.776C109.973 12.0107 109.935 12.224 109.882 12.416C109.85 12.5333 109.813 12.6347 109.77 12.72C109.727 12.816 109.642 12.8853 109.514 12.928C109.397 12.9707 109.274 12.9973 109.146 13.008C109.029 13.0187 108.911 13.024 108.794 13.024L100.618 12.992C100.479 12.9813 100.33 12.976 100.17 12.976C100.01 12.976 99.8713 12.9333 99.754 12.848ZM104.298 0.576C104.938 0.917334 105.391 1.38667 105.658 1.984C105.935 2.58133 106.042 3.296 105.978 4.128C105.914 5.19467 105.61 5.98933 105.066 6.512C104.533 7.03467 103.711 7.296 102.602 7.296C102.314 7.296 102.047 7.30133 101.802 7.312C101.567 7.312 101.343 7.296 101.13 7.264C100.917 7.232 100.698 7.17867 100.474 7.104C100.25 7.01867 100.01 6.89067 99.754 6.72C99.2527 6.38933 98.906 5.95733 98.714 5.424C98.5327 4.89067 98.442 4.34133 98.442 3.776C98.442 3.21067 98.5433 2.68267 98.746 2.192C98.9487 1.69067 99.2793 1.264 99.738 0.912C100.111 0.613333 100.527 0.394666 100.986 0.256C101.455 0.117333 101.925 0.0693328 102.394 0.112C102.607 0.133333 102.789 0.154667 102.938 0.176C103.098 0.186666 103.247 0.208 103.386 0.24C103.525 0.272 103.663 0.314667 103.802 0.368C103.941 0.421333 104.106 0.490667 104.298 0.576ZM110.122 6.48C110.122 6.48 110.117 6.51733 110.106 6.592C110.095 6.66667 110.074 6.752 110.042 6.848C110.01 6.944 109.962 7.04533 109.898 7.152C109.834 7.248 109.749 7.328 109.642 7.392C109.493 7.47733 109.343 7.52 109.194 7.52C109.013 7.52 108.837 7.46133 108.666 7.344C108.549 7.25867 108.458 7.14667 108.394 7.008C108.309 6.848 108.25 6.672 108.218 6.48C108.197 6.288 108.181 6.09067 108.17 5.888C108.17 5.68533 108.175 5.488 108.186 5.296C108.197 5.09333 108.202 4.90133 108.202 4.72C108.213 4.26133 108.218 3.808 108.218 3.36C108.218 2.90133 108.218 2.448 108.218 2V1.792C108.207 1.67467 108.202 1.552 108.202 1.424C108.213 1.28533 108.234 1.15733 108.266 1.04C108.309 0.88 108.405 0.709333 108.554 0.528C108.639 0.421333 108.757 0.346667 108.906 0.304C109.066 0.250667 109.237 0.234667 109.418 0.256C109.738 0.309333 109.951 0.448 110.058 0.672C110.122 0.810667 110.149 0.981333 110.138 1.184C110.138 1.38667 110.133 1.50933 110.122 1.552V6.48ZM104.074 4.304C104.074 4.06933 104.063 3.85067 104.042 3.648C104.021 3.43467 103.973 3.24267 103.898 3.072C103.834 2.89067 103.733 2.73067 103.594 2.592C103.455 2.45333 103.274 2.34133 103.05 2.256C102.805 2.17067 102.538 2.128 102.25 2.128C101.962 2.128 101.69 2.18133 101.434 2.288C101.178 2.384 100.954 2.53867 100.762 2.752C100.57 2.95467 100.447 3.22133 100.394 3.552C100.362 3.776 100.362 4.00533 100.394 4.24C100.437 4.464 100.517 4.672 100.634 4.864C100.762 5.04533 100.933 5.2 101.146 5.328C101.37 5.456 101.647 5.536 101.978 5.568C102.202 5.58933 102.426 5.58933 102.65 5.568C102.874 5.536 103.082 5.472 103.274 5.376C103.466 5.28 103.631 5.14667 103.77 4.976C103.909 4.79467 104.01 4.57067 104.074 4.304ZM101.274 10.976C101.274 11.0293 101.274 11.0827 101.274 11.136C101.285 11.1787 101.306 11.2107 101.338 11.232C101.359 11.2533 101.391 11.2693 101.434 11.28C101.487 11.28 101.541 11.28 101.594 11.28C101.647 11.28 101.711 11.2747 101.786 11.264H106.634C106.783 11.2747 106.927 11.2853 107.066 11.296C107.183 11.3067 107.306 11.312 107.434 11.312C107.562 11.312 107.679 11.3013 107.786 11.28C107.893 11.2693 107.957 11.2427 107.978 11.2C107.999 11.1467 108.015 11.072 108.026 10.976C108.037 10.8907 108.042 10.7947 108.042 10.688C108.042 10.5707 108.01 10.4693 107.946 10.384C107.871 10.2987 107.765 10.256 107.626 10.256C107.498 10.2453 107.381 10.2453 107.274 10.256H102.986C102.751 10.2347 102.522 10.2293 102.298 10.24C102.074 10.24 101.845 10.2453 101.61 10.256C101.525 10.256 101.455 10.2613 101.402 10.272C101.359 10.272 101.327 10.32 101.306 10.416C101.285 10.4907 101.274 10.5653 101.274 10.64C101.274 10.704 101.274 10.768 101.274 10.832C101.285 10.8533 101.285 10.8747 101.274 10.896C101.274 10.9173 101.274 10.944 101.274 10.976Z" fill="black"/>
<path d="M122.017 11.12C122.017 11.12 122.049 11.1307 122.113 11.152C122.188 11.1733 122.268 11.2107 122.353 11.264C122.438 11.3067 122.518 11.3707 122.593 11.456C122.668 11.5307 122.716 11.6213 122.737 11.728C122.79 12.1333 122.721 12.448 122.529 12.672C122.401 12.8213 122.262 12.912 122.113 12.944C121.964 12.976 121.884 12.992 121.873 12.992H113.713C113.276 12.992 112.934 12.9227 112.689 12.784C112.444 12.656 112.321 12.4693 112.321 12.224V10C112.31 9.88267 112.305 9.728 112.305 9.536C112.305 9.33333 112.31 9.17333 112.321 9.056C112.342 8.832 112.449 8.65067 112.641 8.512C112.833 8.37333 113.052 8.304 113.297 8.304C113.35 8.304 113.414 8.30933 113.489 8.32C113.574 8.32 113.644 8.33067 113.697 8.352C113.836 8.39467 113.948 8.46933 114.033 8.576C114.118 8.672 114.182 8.784 114.225 8.912C114.268 9.04 114.294 9.17867 114.305 9.328C114.316 9.46667 114.326 9.59467 114.337 9.712C114.337 9.75467 114.337 9.84533 114.337 9.984C114.337 10.1227 114.337 10.272 114.337 10.432C114.337 10.5813 114.337 10.72 114.337 10.848C114.337 10.976 114.337 11.056 114.337 11.088C114.369 11.0987 114.454 11.1147 114.593 11.136C114.742 11.1467 115.014 11.152 115.409 11.152C115.75 11.152 116.054 11.1467 116.321 11.136C116.588 11.1253 116.726 11.12 116.737 11.12H122.017ZM111.537 7.424C111.388 7.36 111.281 7.23733 111.217 7.056C111.132 6.84267 111.116 6.62933 111.169 6.416C111.233 6.20267 111.329 6 111.457 5.808C111.585 5.616 111.729 5.43467 111.889 5.264C112.06 5.09333 112.204 4.93333 112.321 4.784C112.502 4.56 112.678 4.336 112.849 4.112C113.02 3.888 113.196 3.65867 113.377 3.424C113.505 3.24267 113.638 3.02933 113.777 2.784C113.916 2.53867 113.996 2.29867 114.017 2.064C114.017 2 114.022 1.92 114.033 1.824C114.044 1.71733 114.049 1.61067 114.049 1.504C114.06 1.38667 114.07 1.28 114.081 1.184C114.092 1.088 114.108 1.008 114.129 0.944C114.193 0.730666 114.294 0.586666 114.433 0.512C114.582 0.426667 114.806 0.384 115.105 0.384C115.276 0.384 115.468 0.416 115.681 0.48C115.894 0.533333 116.038 0.645333 116.113 0.816C116.188 1.008 116.209 1.232 116.177 1.488C116.156 1.73333 116.177 1.95733 116.241 2.16C116.294 2.32 116.374 2.48533 116.481 2.656C116.588 2.82667 116.7 2.99733 116.817 3.168C117.02 3.456 117.222 3.77067 117.425 4.112C117.628 4.44267 117.814 4.72533 117.985 4.96C118.156 5.184 118.321 5.41867 118.481 5.664C118.641 5.89867 118.748 6.15467 118.801 6.432C118.854 6.66667 118.828 6.864 118.721 7.024C118.625 7.17333 118.492 7.28533 118.321 7.36C118.15 7.424 117.964 7.44 117.761 7.408C117.558 7.36533 117.382 7.26933 117.233 7.12C116.838 6.71467 116.481 6.28267 116.161 5.824C115.841 5.35467 115.51 4.896 115.169 4.448C115.169 4.448 115.121 4.50133 115.025 4.608C114.929 4.71467 114.812 4.85333 114.673 5.024C114.534 5.19467 114.38 5.38133 114.209 5.584C114.038 5.78667 113.878 5.97867 113.729 6.16C113.58 6.34133 113.446 6.50133 113.329 6.64C113.222 6.768 113.158 6.848 113.137 6.88C113.02 7.01867 112.886 7.14133 112.737 7.248C112.588 7.35467 112.422 7.42933 112.241 7.472C112.124 7.49333 112.001 7.504 111.873 7.504C111.756 7.504 111.644 7.47733 111.537 7.424ZM122.465 7.136C122.465 7.136 122.46 7.17333 122.449 7.248C122.438 7.32267 122.417 7.408 122.385 7.504C122.353 7.6 122.305 7.70133 122.241 7.808C122.177 7.904 122.092 7.984 121.985 8.048C121.836 8.13333 121.686 8.176 121.537 8.176C121.356 8.176 121.18 8.11733 121.009 8C120.892 7.91467 120.801 7.80267 120.737 7.664C120.652 7.504 120.593 7.328 120.561 7.136C120.54 6.944 120.524 6.74667 120.513 6.544C120.513 6.34133 120.518 6.144 120.529 5.952C120.54 5.74933 120.545 5.55733 120.545 5.376C120.545 5.152 120.545 4.89067 120.545 4.592C120.556 4.29333 120.561 3.98933 120.561 3.68C120.561 3.37067 120.561 3.072 120.561 2.784C120.561 2.48533 120.561 2.224 120.561 2V1.792C120.55 1.67467 120.545 1.552 120.545 1.424C120.556 1.28533 120.577 1.15733 120.609 1.04C120.652 0.88 120.748 0.709333 120.897 0.528C120.982 0.421333 121.1 0.346667 121.249 0.304C121.409 0.250667 121.58 0.234667 121.761 0.256C122.081 0.309333 122.294 0.448 122.401 0.672C122.465 0.810667 122.492 0.981333 122.481 1.184C122.481 1.38667 122.476 1.50933 122.465 1.552V7.136Z" fill="black"/>
<path d="M129.861 0.608C130.512 0.981333 130.976 1.46133 131.253 2.048C131.392 2.336 131.483 2.656 131.525 3.008C131.568 3.36 131.579 3.75467 131.557 4.192C131.525 4.672 131.419 5.104 131.237 5.488C131.056 5.872 130.816 6.20267 130.517 6.48C130.229 6.74667 129.888 6.95467 129.493 7.104C129.099 7.24267 128.677 7.312 128.229 7.312H127.413C127.307 7.312 127.2 7.312 127.093 7.312C126.987 7.30133 126.875 7.28533 126.757 7.264C126.64 7.264 126.528 7.248 126.421 7.216C126.315 7.184 126.203 7.15733 126.085 7.136C125.968 7.08267 125.851 7.024 125.733 6.96C125.627 6.896 125.499 6.82133 125.349 6.736C124.859 6.416 124.517 5.984 124.325 5.44C124.24 5.19467 124.176 4.93333 124.133 4.656C124.091 4.37867 124.069 4.10667 124.069 3.84C124.069 3.552 124.091 3.27467 124.133 3.008C124.187 2.74133 124.272 2.48533 124.389 2.24C124.475 1.984 124.603 1.76 124.773 1.568C124.944 1.36533 125.136 1.17333 125.349 0.992C125.541 0.832 125.739 0.698667 125.941 0.592C126.144 0.474666 126.368 0.384 126.613 0.32C126.827 0.234666 127.056 0.181333 127.301 0.16C127.547 0.138667 127.781 0.138667 128.005 0.16C128.123 0.192 128.219 0.213333 128.293 0.224C128.379 0.224 128.459 0.224 128.533 0.224C128.619 0.245333 128.693 0.261333 128.757 0.272C128.832 0.272 128.901 0.288 128.965 0.32C129.04 0.341333 129.109 0.362667 129.173 0.384C129.248 0.394666 129.317 0.416 129.381 0.448C129.445 0.469333 129.52 0.496 129.605 0.528C129.691 0.56 129.776 0.586667 129.861 0.608ZM135.205 11.104C135.355 11.104 135.477 11.168 135.573 11.296C135.669 11.424 135.733 11.5787 135.765 11.76C135.787 11.9733 135.776 12.1493 135.733 12.288C135.691 12.416 135.627 12.5387 135.541 12.656C135.381 12.7947 135.243 12.88 135.125 12.912C135.072 12.912 135.024 12.9227 134.981 12.944C134.939 12.9653 134.88 12.976 134.805 12.976H126.981C126.757 12.976 126.56 12.9707 126.389 12.96C126.229 12.9493 126.085 12.912 125.957 12.848C125.84 12.784 125.744 12.688 125.669 12.56C125.605 12.4427 125.573 12.3253 125.573 12.208V8.912C125.637 8.67733 125.744 8.50133 125.893 8.384C126.011 8.30933 126.117 8.256 126.213 8.224C126.32 8.18133 126.437 8.16 126.565 8.16C126.587 8.16 126.651 8.17067 126.757 8.192C126.875 8.20267 126.949 8.208 126.981 8.208C127.045 8.22933 127.104 8.256 127.157 8.288C127.221 8.30933 127.28 8.35733 127.333 8.432C127.355 8.47467 127.381 8.52267 127.413 8.576C127.445 8.61867 127.472 8.672 127.493 8.736C127.525 8.81067 127.541 8.88 127.541 8.944C127.552 9.008 127.568 9.072 127.589 9.136V11.056H127.909C127.973 11.0667 128.048 11.072 128.133 11.072C128.208 11.0827 128.288 11.088 128.373 11.088C128.459 11.088 128.555 11.088 128.661 11.088C128.725 11.088 128.885 11.088 129.141 11.088C129.408 11.088 129.723 11.088 130.085 11.088C130.459 11.0773 130.864 11.072 131.301 11.072C131.739 11.072 132.155 11.072 132.549 11.072C132.955 11.072 133.317 11.0773 133.637 11.088C133.968 11.088 134.213 11.088 134.373 11.088H134.773C134.795 11.088 134.843 11.0933 134.917 11.104C134.992 11.104 135.088 11.104 135.205 11.104ZM129.637 3.696C129.616 3.57867 129.595 3.47733 129.573 3.392C129.552 3.296 129.531 3.2 129.509 3.104C129.456 3.01867 129.408 2.93333 129.365 2.848C129.323 2.76267 129.264 2.688 129.189 2.624C129.125 2.56 129.051 2.50667 128.965 2.464C128.88 2.41067 128.779 2.35733 128.661 2.304C128.523 2.272 128.389 2.24533 128.261 2.224C128.133 2.192 128 2.176 127.861 2.176C127.712 2.176 127.568 2.192 127.429 2.224C127.291 2.24533 127.163 2.272 127.045 2.304C126.917 2.37867 126.795 2.45333 126.677 2.528C126.571 2.60267 126.475 2.69867 126.389 2.816C126.283 2.90133 126.203 3.01333 126.149 3.152C126.096 3.28 126.043 3.43467 125.989 3.616C125.989 3.73333 125.989 3.84533 125.989 3.952C125.989 4.05867 126 4.17067 126.021 4.288C126.021 4.39467 126.043 4.50133 126.085 4.608C126.128 4.71467 126.181 4.81067 126.245 4.896C126.32 4.992 126.4 5.07733 126.485 5.152C126.571 5.216 126.661 5.28 126.757 5.344C126.875 5.408 126.997 5.46667 127.125 5.52C127.253 5.56267 127.408 5.59467 127.589 5.616C127.707 5.616 127.819 5.616 127.925 5.616C128.032 5.60533 128.144 5.58933 128.261 5.568C128.475 5.568 128.683 5.50933 128.885 5.392C128.971 5.34933 129.056 5.296 129.141 5.232C129.237 5.15733 129.317 5.07733 129.381 4.992C129.52 4.8 129.605 4.592 129.637 4.368V3.696ZM135.669 6.96C135.669 7.06667 135.659 7.17333 135.637 7.28C135.616 7.38667 135.595 7.49867 135.573 7.616C135.477 7.95733 135.253 8.16533 134.901 8.24C134.56 8.31467 134.283 8.24 134.069 8.016C133.867 7.792 133.744 7.52533 133.701 7.216C133.68 7.13067 133.664 7.04533 133.653 6.96C133.653 6.864 133.653 6.77333 133.653 6.688V6.144L133.701 2.016C133.701 1.86667 133.696 1.70667 133.685 1.536C133.685 1.35467 133.696 1.184 133.717 1.024C133.749 0.853333 133.808 0.698666 133.893 0.559999C133.979 0.421333 134.112 0.309333 134.293 0.224C134.379 0.170667 134.469 0.144 134.565 0.144C134.672 0.133334 134.784 0.138667 134.901 0.16C135.147 0.192 135.328 0.293333 135.445 0.464C135.573 0.634667 135.648 0.832 135.669 1.056V6.96Z" fill="black"/>
<path d="M145.975 11.008C145.975 11.2747 145.964 11.488 145.943 11.648C145.932 11.808 145.884 12.0107 145.799 12.256C145.745 12.416 145.655 12.5493 145.527 12.656C145.399 12.7627 145.217 12.816 144.982 12.816C144.918 12.816 144.833 12.8053 144.727 12.784C144.631 12.7733 144.556 12.7467 144.503 12.704C144.396 12.64 144.311 12.5387 144.247 12.4C144.193 12.2507 144.15 12.096 144.118 11.936C144.086 11.776 144.065 11.6213 144.055 11.472C144.055 11.3227 144.055 11.2053 144.055 11.12V7.168L142.359 7.12C142.263 7.12 142.161 7.10933 142.055 7.088C141.959 7.056 141.862 7.008 141.766 6.944C141.681 6.88 141.606 6.79467 141.542 6.688C141.478 6.58133 141.441 6.448 141.43 6.288C141.409 6.096 141.42 5.89333 141.462 5.68C141.516 5.456 141.665 5.28533 141.911 5.168C142.007 5.11467 142.124 5.08267 142.262 5.072C142.412 5.06133 142.54 5.06133 142.646 5.072H144.055V1.84C144.055 1.70133 144.055 1.56267 144.055 1.424C144.055 1.27467 144.07 1.13067 144.102 0.992C144.124 0.938666 144.14 0.890666 144.15 0.848C144.172 0.805333 144.193 0.757333 144.214 0.704C144.278 0.597333 144.342 0.517333 144.406 0.464C144.481 0.4 144.577 0.346667 144.695 0.304C144.748 0.282667 144.801 0.272 144.855 0.272C144.919 0.261333 144.977 0.256 145.031 0.256C145.383 0.256 145.649 0.416 145.831 0.736C145.873 0.8 145.9 0.890666 145.911 1.008C145.932 1.12533 145.948 1.248 145.958 1.376C145.969 1.49333 145.975 1.6 145.975 1.696C145.975 1.78133 145.975 1.83467 145.975 1.856V11.008ZM148.758 12.528C148.726 12.6027 148.695 12.6667 148.663 12.72C148.641 12.7733 148.593 12.8267 148.518 12.88C148.401 12.9547 148.273 12.9973 148.135 13.008C147.996 13.0293 147.857 13.024 147.719 12.992C147.559 12.96 147.431 12.8907 147.335 12.784C147.249 12.688 147.18 12.576 147.126 12.448C147.084 12.32 147.057 12.1813 147.046 12.032C147.036 11.8827 147.031 11.7387 147.031 11.6V2.016C147.031 1.89867 147.031 1.76533 147.031 1.616C147.031 1.456 147.041 1.30667 147.062 1.168C147.084 1.01867 147.111 0.88 147.143 0.752C147.185 0.624 147.244 0.522666 147.318 0.448C147.436 0.341333 147.543 0.277333 147.639 0.256C147.745 0.224 147.873 0.208 148.023 0.208C148.204 0.208 148.358 0.261333 148.486 0.368C148.614 0.464 148.711 0.597333 148.775 0.768C148.871 0.992 148.924 1.22133 148.934 1.456C148.945 1.69067 148.956 1.93067 148.967 2.176V2.256C148.988 3.06667 148.993 3.84533 148.982 4.592C148.972 5.33867 148.967 6.09067 148.967 6.848V11.008C148.967 11.2853 148.956 11.552 148.934 11.808C148.924 12.064 148.865 12.304 148.758 12.528ZM143.079 10.496C143.143 10.5173 143.196 10.5493 143.238 10.592C143.292 10.6347 143.345 10.6827 143.398 10.736C143.526 10.8213 143.59 10.96 143.59 11.152C143.612 11.2267 143.612 11.3067 143.59 11.392C143.58 11.4667 143.564 11.5307 143.542 11.584C143.489 11.6693 143.441 11.7387 143.398 11.792C143.356 11.8347 143.308 11.8773 143.255 11.92C143.191 11.9413 143.121 11.9733 143.046 12.016C142.972 12.048 142.886 12.064 142.79 12.064C142.716 12.0853 142.636 12.1067 142.551 12.128C142.465 12.1493 142.385 12.16 142.311 12.16H139.958C139.862 12.16 139.756 12.1547 139.639 12.144C139.532 12.1227 139.42 12.112 139.303 12.112C139.207 12.112 139.1 12.1013 138.982 12.08C138.865 12.0587 138.764 12.0373 138.678 12.016C138.465 11.9627 138.273 11.872 138.102 11.744C138.028 11.6907 137.959 11.6267 137.895 11.552C137.841 11.4667 137.788 11.3653 137.734 11.248C137.638 11.152 137.59 11.0293 137.59 10.88C137.569 10.784 137.553 10.6987 137.542 10.624C137.532 10.5493 137.516 10.4747 137.495 10.4V2.672C137.473 2.608 137.457 2.53333 137.447 2.448C137.447 2.352 137.447 2.256 137.447 2.16C137.468 2.08533 137.484 2 137.495 1.904C137.505 1.808 137.521 1.71733 137.542 1.632C137.542 1.46133 137.59 1.30133 137.686 1.152C137.74 1.09867 137.788 1.05067 137.831 1.008C137.884 0.965333 137.943 0.933333 138.007 0.912C138.145 0.816 138.289 0.768 138.439 0.768C138.513 0.746667 138.577 0.736 138.63 0.736C138.684 0.725334 138.743 0.709333 138.807 0.688H141.783C141.857 0.709333 141.937 0.725334 142.023 0.736C142.119 0.736 142.204 0.746667 142.279 0.768C142.471 0.768 142.641 0.816 142.79 0.912C142.961 0.997333 143.073 1.12533 143.126 1.296C143.148 1.37067 143.164 1.44533 143.174 1.52C143.196 1.59467 143.196 1.67467 143.174 1.76C143.174 1.86667 143.169 1.94667 143.158 2C143.158 2.05333 143.148 2.10667 143.126 2.16C143.041 2.27733 142.897 2.38933 142.695 2.496C142.62 2.496 142.502 2.50667 142.342 2.528C142.193 2.53867 142.007 2.544 141.783 2.544H140.15C140.001 2.544 139.873 2.57067 139.766 2.624C139.724 2.624 139.681 2.672 139.639 2.768C139.617 2.82133 139.596 2.86933 139.574 2.912C139.553 2.95467 139.542 3.00267 139.542 3.056V3.664L139.59 9.552C139.59 9.70133 139.59 9.824 139.59 9.92C139.601 10.0053 139.633 10.0693 139.686 10.112C139.761 10.208 139.9 10.256 140.102 10.256H140.695C140.812 10.256 140.929 10.2667 141.046 10.288C141.174 10.2987 141.308 10.304 141.447 10.304H142.23C142.294 10.304 142.359 10.3093 142.423 10.32C142.497 10.32 142.572 10.3307 142.646 10.352C142.785 10.352 142.929 10.4 143.079 10.496Z" fill="black"/>
<path d="M160.136 10C160.488 10 160.771 10.064 160.984 10.192C161.101 10.2667 161.192 10.3627 161.256 10.48C161.32 10.5867 161.357 10.704 161.368 10.832C161.389 10.96 161.384 11.088 161.352 11.216C161.331 11.344 161.293 11.456 161.24 11.552C161.144 11.7227 161.005 11.8293 160.824 11.872C160.643 11.904 160.467 11.92 160.296 11.92H155.576C155.576 11.92 155.544 11.92 155.48 11.92C155.416 11.9093 155.341 11.8987 155.256 11.888C155.171 11.8667 155.08 11.8453 154.984 11.824C154.888 11.8027 154.803 11.776 154.728 11.744C154.504 11.6267 154.365 11.408 154.312 11.088C154.291 10.9173 154.301 10.7733 154.344 10.656C154.397 10.5387 154.477 10.432 154.584 10.336C154.776 10.176 154.947 10.0747 155.096 10.032C155.256 9.98933 155.427 9.968 155.608 9.968C155.629 9.95733 155.699 9.95733 155.816 9.968C155.933 9.968 156.061 9.97333 156.2 9.984C156.349 9.984 156.493 9.98933 156.632 10C156.781 10 156.888 10 156.952 10C156.963 9.91467 156.968 9.75467 156.968 9.52C156.979 9.28533 156.989 9.04533 157 8.8C157.011 8.544 157.021 8.31467 157.032 8.112C157.043 7.89867 157.053 7.776 157.064 7.744C157.064 7.72267 157.069 7.70667 157.08 7.696C156.888 7.65333 156.696 7.59467 156.504 7.52C156.312 7.43467 156.104 7.30133 155.88 7.12C155.677 6.96 155.507 6.77333 155.368 6.56C155.229 6.34667 155.117 6.11733 155.032 5.872C154.957 5.616 154.904 5.35467 154.872 5.088C154.84 4.81067 154.824 4.53867 154.824 4.272C154.824 3.73867 154.904 3.21067 155.064 2.688C155.235 2.16533 155.501 1.73867 155.864 1.408C156.173 1.13067 156.52 0.928 156.904 0.8C157.288 0.661333 157.667 0.613333 158.04 0.656C158.211 0.677333 158.36 0.698667 158.488 0.72C158.616 0.730667 158.733 0.752 158.84 0.783999C158.957 0.805333 159.075 0.842667 159.192 0.896C159.309 0.949333 159.443 1.01333 159.592 1.088C159.912 1.25867 160.168 1.472 160.36 1.728C160.552 1.97333 160.701 2.25067 160.808 2.56C160.915 2.85867 160.979 3.18933 161 3.552C161.021 3.904 161.016 4.272 160.984 4.656C160.941 5.52 160.739 6.21333 160.376 6.736C160.013 7.25867 159.512 7.57867 158.872 7.696C158.883 7.71733 158.888 7.73333 158.888 7.744C158.888 7.75467 158.893 7.77067 158.904 7.792C158.915 7.83467 158.925 7.95733 158.936 8.16C158.947 8.36267 158.952 8.58667 158.952 8.832C158.963 9.07733 158.968 9.312 158.968 9.536C158.968 9.76 158.968 9.90933 158.968 9.984L160.136 10ZM166.712 11.12C166.723 11.408 166.707 11.7067 166.664 12.016C166.621 12.3147 166.483 12.5387 166.248 12.688C166.099 12.7947 165.939 12.848 165.768 12.848C165.587 12.848 165.437 12.784 165.32 12.656C165.213 12.528 165.128 12.3733 165.064 12.192C165.011 12.0107 164.973 11.824 164.952 11.632C164.941 11.4293 164.936 11.2533 164.936 11.104V7.52H163.896V11.2C163.917 11.4453 163.907 11.7013 163.864 11.968C163.832 12.2347 163.763 12.4427 163.656 12.592C163.517 12.7627 163.331 12.848 163.096 12.848C162.883 12.848 162.68 12.752 162.488 12.56C162.296 12.3893 162.184 12.176 162.152 11.92C162.131 11.6533 162.12 11.4027 162.12 11.168V2.08C162.12 2.048 162.115 2.016 162.104 1.984C162.104 1.94133 162.104 1.89333 162.104 1.84C162.104 1.69067 162.109 1.53067 162.12 1.36C162.131 1.18933 162.163 1.024 162.216 0.864C162.28 0.704 162.36 0.565333 162.456 0.448C162.563 0.32 162.701 0.229333 162.872 0.176C163.128 0.122666 163.331 0.181333 163.48 0.352C163.597 0.469333 163.683 0.613333 163.736 0.783999C163.8 0.944 163.843 1.12 163.864 1.312C163.885 1.504 163.896 1.712 163.896 1.936C163.896 2.14933 163.896 2.37333 163.896 2.608V5.584H164.936V1.984C164.936 1.83467 164.931 1.664 164.92 1.472C164.92 1.26933 164.941 1.07733 164.984 0.896C165.027 0.714666 165.101 0.554666 165.208 0.415999C165.325 0.277333 165.496 0.197333 165.72 0.176C165.955 0.154667 166.141 0.224 166.28 0.384C166.408 0.512 166.499 0.682667 166.552 0.896C166.616 1.10933 166.659 1.33867 166.68 1.584C166.712 1.82933 166.723 2.07467 166.712 2.32C166.712 2.55467 166.712 2.75733 166.712 2.928V11.12ZM159.16 4.768C159.224 4.288 159.213 3.85067 159.128 3.456C159.053 3.06133 158.861 2.8 158.552 2.672C158.36 2.59733 158.163 2.57067 157.96 2.592C157.757 2.60267 157.571 2.66667 157.4 2.784C157.24 2.89067 157.096 3.05067 156.968 3.264C156.851 3.47733 156.771 3.73867 156.728 4.048C156.707 4.26133 156.691 4.48533 156.68 4.72C156.68 4.95467 156.707 5.17333 156.76 5.376C156.824 5.568 156.925 5.73333 157.064 5.872C157.213 6.01067 157.427 6.09067 157.704 6.112C158.077 6.16533 158.387 6.08533 158.632 5.872C158.877 5.648 159.053 5.28 159.16 4.768Z" fill="black"/>
<path d="M182.822 3.008C182.843 3.12533 182.859 3.23733 182.87 3.344C182.891 3.45067 182.891 3.568 182.87 3.696C182.87 3.81333 182.864 3.92533 182.854 4.032C182.854 4.128 182.843 4.23467 182.822 4.352C182.768 4.75733 182.64 5.12 182.438 5.44C182.246 5.76 181.952 6.032 181.558 6.256C181.195 6.46933 180.758 6.63467 180.246 6.752C179.734 6.86933 179.158 6.928 178.518 6.928H177.43C177.227 6.928 177.024 6.928 176.822 6.928C176.63 6.928 176.432 6.91733 176.23 6.896C176.016 6.88533 175.808 6.864 175.606 6.832C175.414 6.8 175.222 6.76267 175.03 6.72C174.848 6.688 174.672 6.64533 174.502 6.592C174.331 6.528 174.166 6.45333 174.006 6.368C173.728 6.18667 173.488 6 173.286 5.808C173.094 5.60533 172.95 5.376 172.854 5.12C172.736 4.87467 172.651 4.624 172.598 4.368C172.544 4.112 172.518 3.84 172.518 3.552C172.518 3.27467 172.544 3.01333 172.598 2.768C172.651 2.52267 172.736 2.304 172.854 2.112C172.971 1.89867 173.126 1.70133 173.318 1.52C173.51 1.328 173.734 1.14667 173.99 0.976C174.107 0.890666 174.235 0.821333 174.374 0.768C174.523 0.714666 174.694 0.661333 174.886 0.608C175.238 0.512 175.627 0.421333 176.054 0.335999C176.267 0.293333 176.47 0.266667 176.662 0.256C176.864 0.234667 177.067 0.218667 177.27 0.208C177.654 0.176 177.984 0.176 178.262 0.208C178.518 0.218667 178.747 0.234667 178.95 0.256C179.163 0.266667 179.376 0.293333 179.59 0.335999C179.771 0.378666 179.968 0.432 180.182 0.496C180.406 0.549334 180.624 0.618667 180.838 0.704C180.934 0.746666 181.035 0.794666 181.142 0.848C181.248 0.901333 181.36 0.965333 181.478 1.04C181.776 1.22133 181.984 1.392 182.102 1.552C182.198 1.68 182.283 1.808 182.358 1.936C182.443 2.05333 182.512 2.17067 182.566 2.288C182.63 2.39467 182.683 2.512 182.726 2.64C182.768 2.768 182.8 2.89067 182.822 3.008ZM173.174 9.952C172.928 9.952 172.694 9.91467 172.47 9.84C172.256 9.81867 172.086 9.69067 171.958 9.456C171.883 9.37067 171.83 9.28 171.798 9.184C171.776 9.088 171.766 8.992 171.766 8.896C171.766 8.68267 171.851 8.49067 172.022 8.32C172.054 8.288 172.096 8.256 172.15 8.224C172.203 8.192 172.267 8.17067 172.342 8.16C172.395 8.11733 172.448 8.096 172.502 8.096C172.566 8.08533 172.635 8.06933 172.71 8.048C172.763 8.02667 172.811 8.016 172.854 8.016C172.896 8.016 172.944 8.016 172.998 8.016H182.47C182.576 8.016 182.667 8.02667 182.742 8.048C182.827 8.05867 182.918 8.08 183.014 8.112C183.184 8.176 183.328 8.27733 183.446 8.416C183.51 8.49067 183.547 8.57067 183.558 8.656C183.579 8.73067 183.59 8.82667 183.59 8.944C183.59 9.24267 183.504 9.44 183.334 9.536C183.248 9.62133 183.147 9.69067 183.03 9.744C182.923 9.78667 182.811 9.81867 182.694 9.84C182.47 9.91467 182.214 9.952 181.926 9.952H178.79C178.8 9.99467 178.806 10.0533 178.806 10.128V11.504C178.806 11.6 178.806 11.6907 178.806 11.776C178.806 11.8613 178.795 11.9307 178.774 11.984C178.752 12.1013 178.731 12.208 178.71 12.304C178.688 12.4 178.651 12.5013 178.598 12.608C178.523 12.7893 178.395 12.9493 178.214 13.088C178.128 13.1413 178.038 13.1733 177.942 13.184C177.856 13.2053 177.76 13.2213 177.654 13.232C177.536 13.232 177.43 13.2213 177.334 13.2C177.248 13.1787 177.163 13.152 177.078 13.12C176.928 13.024 176.816 12.9013 176.742 12.752C176.71 12.6667 176.683 12.5813 176.662 12.496C176.651 12.4107 176.64 12.336 176.63 12.272C176.63 12.208 176.624 12.1387 176.614 12.064C176.603 11.9893 176.598 11.9253 176.598 11.872C176.619 11.808 176.63 11.744 176.63 11.68C176.63 11.6053 176.63 11.5467 176.63 11.504C176.608 11.376 176.598 11.2053 176.598 10.992C176.598 10.768 176.598 10.576 176.598 10.416V9.952H173.174ZM180.79 3.84C180.79 3.59467 180.747 3.38667 180.662 3.216C180.608 3.10933 180.539 3.01333 180.454 2.928C180.379 2.84267 180.283 2.768 180.166 2.704C180.048 2.61867 179.899 2.56 179.718 2.528C179.536 2.48533 179.35 2.464 179.158 2.464C178.838 2.42133 178.438 2.38933 177.958 2.368C177.723 2.34667 177.494 2.34133 177.27 2.352C177.046 2.36267 176.822 2.37333 176.598 2.384C176.374 2.40533 176.16 2.43733 175.958 2.48C175.766 2.52267 175.584 2.592 175.414 2.688C175.051 2.82667 174.843 3.06667 174.79 3.408C174.736 3.632 174.736 3.81867 174.79 3.968C174.811 4.07467 174.843 4.17067 174.886 4.256C174.928 4.34133 174.998 4.42133 175.094 4.496C175.232 4.63467 175.435 4.74667 175.702 4.832C175.936 4.96 176.272 5.024 176.71 5.024C176.87 5.04533 177.03 5.06133 177.19 5.072C177.36 5.08267 177.547 5.09867 177.75 5.12H178.902C179.286 5.07733 179.638 5.024 179.958 4.96C180.288 4.82133 180.523 4.66667 180.662 4.496C180.704 4.37867 180.731 4.272 180.742 4.176C180.752 4.06933 180.768 3.95733 180.79 3.84Z" fill="black"/>
<path d="M195.082 11.936C195.253 11.9573 195.402 12 195.53 12.064C195.658 12.128 195.749 12.2453 195.802 12.416C195.93 12.8 195.792 13.072 195.386 13.232C195.258 13.2853 195.13 13.3173 195.002 13.328C194.874 13.3387 194.752 13.344 194.634 13.344H187.194C186.981 13.344 186.757 13.3387 186.522 13.328C186.298 13.328 186.069 13.3227 185.834 13.312C185.61 13.3013 185.424 13.2213 185.274 13.072C185.125 12.9227 185.04 12.7253 185.018 12.48L184.97 11.36C184.96 11.2427 184.96 11.104 184.97 10.944C184.981 10.784 185.034 10.6507 185.13 10.544C185.28 10.384 185.477 10.2827 185.722 10.24C185.978 10.1973 186.224 10.176 186.458 10.176C186.608 10.176 186.853 10.176 187.194 10.176C187.546 10.176 188.021 10.1813 188.618 10.192C189.216 10.192 189.952 10.192 190.826 10.192C191.712 10.192 192.762 10.192 193.978 10.192V9.616H186.106C186 9.616 185.904 9.616 185.818 9.616C185.733 9.616 185.648 9.60533 185.562 9.584C185.466 9.56267 185.381 9.54133 185.306 9.52C185.232 9.49867 185.168 9.44533 185.114 9.36C184.965 9.136 184.928 8.90667 185.002 8.672C185.034 8.58667 185.082 8.52267 185.146 8.48C185.21 8.42667 185.285 8.384 185.37 8.352C185.456 8.32 185.536 8.29867 185.61 8.288C185.696 8.27733 185.77 8.26667 185.834 8.256C185.994 8.224 186.16 8.208 186.33 8.208C186.48 8.208 186.64 8.208 186.81 8.208C186.992 8.208 187.205 8.21333 187.45 8.224C187.696 8.224 187.978 8.224 188.298 8.224C188.629 8.224 189.013 8.224 189.45 8.224C189.45 8.07467 189.456 7.93067 189.466 7.792C189.477 7.64267 189.482 7.48267 189.482 7.312C189.237 7.312 189.018 7.312 188.826 7.312C188.645 7.312 188.464 7.312 188.282 7.312C188.112 7.312 187.936 7.312 187.754 7.312C187.573 7.30133 187.37 7.29067 187.146 7.28C187.05 7.28 186.912 7.27467 186.73 7.264C186.549 7.25333 186.357 7.248 186.154 7.248C185.952 7.23733 185.76 7.232 185.578 7.232C185.408 7.22133 185.285 7.216 185.21 7.216C185.04 7.19467 184.901 7.17333 184.794 7.152C184.698 7.13067 184.581 7.056 184.442 6.928C184.368 6.864 184.314 6.8 184.282 6.736C184.25 6.66133 184.234 6.56533 184.234 6.448C184.234 6.21333 184.304 6.02667 184.442 5.888C184.517 5.80267 184.618 5.73867 184.746 5.696C184.874 5.65333 184.997 5.62667 185.114 5.616C185.232 5.59467 185.333 5.584 185.418 5.584C185.514 5.584 185.568 5.584 185.578 5.584H194.73C194.89 5.584 195.05 5.584 195.21 5.584C195.37 5.584 195.525 5.58933 195.674 5.6C195.824 5.61067 195.968 5.632 196.106 5.664C196.256 5.68533 196.389 5.74933 196.506 5.856C196.624 5.94133 196.688 6.04267 196.698 6.16C196.72 6.26667 196.73 6.384 196.73 6.512C196.73 6.672 196.682 6.79467 196.586 6.88C196.501 6.96533 196.378 7.03467 196.218 7.088C196.005 7.17333 195.765 7.22133 195.498 7.232C195.242 7.232 195.008 7.23733 194.794 7.248C194.261 7.26933 193.744 7.28533 193.242 7.296C192.752 7.30667 192.234 7.312 191.69 7.312C191.701 7.46133 191.701 7.616 191.69 7.776C191.68 7.92533 191.674 8.07467 191.674 8.224H194.138C194.682 8.224 195.098 8.30933 195.386 8.48C195.674 8.64 195.818 8.90667 195.818 9.28V10.416C195.818 10.5653 195.781 10.7147 195.706 10.864C195.642 11.0027 195.525 11.12 195.354 11.216C195.216 11.3013 195.077 11.3493 194.938 11.36C194.8 11.36 194.661 11.36 194.522 11.36H186.938V11.936H195.082ZM185.034 2.512C185.034 2.07467 185.157 1.712 185.402 1.424C185.658 1.136 186.016 0.912 186.474 0.752C186.944 0.581333 187.514 0.464 188.186 0.4C188.858 0.325333 189.621 0.288 190.474 0.288C191.285 0.288 192.026 0.314667 192.698 0.368C193.37 0.410667 193.946 0.512 194.426 0.672C194.906 0.832 195.274 1.06133 195.53 1.36C195.797 1.648 195.93 2.032 195.93 2.512C195.93 2.992 195.818 3.38133 195.594 3.68C195.37 3.968 195.029 4.192 194.57 4.352C194.112 4.50133 193.541 4.60267 192.858 4.656C192.176 4.70933 191.381 4.736 190.474 4.736C189.717 4.736 189.008 4.70933 188.346 4.656C187.696 4.60267 187.12 4.50133 186.618 4.352C186.128 4.192 185.738 3.968 185.45 3.68C185.173 3.38133 185.034 2.992 185.034 2.512ZM193.738 2.512C193.738 2.34133 193.637 2.21333 193.434 2.128C193.242 2.032 192.992 1.96267 192.682 1.92C192.373 1.86667 192.021 1.83467 191.626 1.824C191.242 1.81333 190.858 1.808 190.474 1.808C190.09 1.808 189.712 1.81333 189.338 1.824C188.965 1.83467 188.629 1.86667 188.33 1.92C188.032 1.96267 187.786 2.032 187.594 2.128C187.413 2.21333 187.322 2.34133 187.322 2.512C187.322 2.66133 187.413 2.77867 187.594 2.864C187.776 2.94933 188.016 3.01333 188.314 3.056C188.613 3.088 188.944 3.10933 189.306 3.12C189.68 3.13067 190.058 3.136 190.442 3.136C190.826 3.136 191.21 3.14133 191.594 3.152C191.989 3.152 192.346 3.14133 192.666 3.12C192.986 3.088 193.242 3.02933 193.434 2.944C193.637 2.848 193.738 2.704 193.738 2.512Z" fill="black"/>
<path d="M202.799 1.488C202.959 1.488 203.135 1.51467 203.327 1.568C203.476 1.62133 203.599 1.75467 203.695 1.968C203.78 2.24533 203.748 2.51733 203.599 2.784C203.556 2.83733 203.503 2.89067 203.439 2.944C203.386 2.98667 203.332 3.02933 203.279 3.072C203.215 3.09333 203.14 3.11467 203.055 3.136C202.97 3.15733 202.884 3.168 202.799 3.168C202.714 3.18933 202.634 3.2 202.559 3.2C202.484 3.2 202.388 3.18933 202.271 3.168H201.759L198.735 3.12C198.522 3.12 198.34 3.09867 198.191 3.056C198.042 3.01333 197.924 2.96 197.839 2.896C197.754 2.81067 197.684 2.71467 197.631 2.608C197.588 2.50133 197.556 2.37333 197.535 2.224C197.535 2.04267 197.62 1.86667 197.791 1.696C197.876 1.61067 197.962 1.55733 198.047 1.536C198.143 1.504 198.25 1.488 198.367 1.488H199.519C199.636 1.488 199.695 1.472 199.695 1.44C199.695 1.39733 199.7 1.36533 199.711 1.344C199.732 1.312 199.743 1.28533 199.743 1.264V1.088C199.743 0.981333 199.759 0.885333 199.791 0.8C199.823 0.714667 199.85 0.64 199.871 0.576C199.914 0.522667 199.967 0.469333 200.031 0.415999C200.095 0.352 200.17 0.293333 200.255 0.24C200.33 0.208 200.415 0.186666 200.511 0.176C200.618 0.154667 200.719 0.154667 200.815 0.176C200.922 0.186666 201.012 0.218666 201.087 0.272C201.172 0.314666 201.236 0.378666 201.279 0.464C201.343 0.549333 201.375 0.629333 201.375 0.704C201.396 0.725333 201.407 0.757333 201.407 0.8C201.418 0.842667 201.423 0.885333 201.423 0.927999C201.455 1.00267 201.455 1.088 201.423 1.184C201.423 1.22667 201.423 1.27467 201.423 1.328C201.423 1.37067 201.434 1.424 201.455 1.488H202.799ZM201.151 3.776C201.375 3.79733 201.578 3.84533 201.759 3.92C201.951 3.984 202.138 4.08 202.319 4.208C202.468 4.336 202.607 4.48 202.735 4.64C202.874 4.8 203.002 4.98667 203.119 5.2C203.268 5.56267 203.386 6.02133 203.471 6.576C203.524 6.84267 203.556 7.104 203.567 7.36C203.588 7.60533 203.599 7.86133 203.599 8.128C203.599 8.39467 203.588 8.656 203.567 8.912C203.546 9.168 203.503 9.41333 203.439 9.648C203.396 9.904 203.343 10.144 203.279 10.368C203.226 10.5813 203.156 10.784 203.071 10.976C202.954 11.1893 202.826 11.376 202.687 11.536C202.559 11.6853 202.394 11.8187 202.191 11.936C201.818 12.1493 201.418 12.2773 200.991 12.32C200.564 12.352 200.132 12.2827 199.695 12.112C199.29 11.984 198.959 11.7333 198.703 11.36C198.49 11.0613 198.319 10.7467 198.191 10.416C198.063 10.0853 197.978 9.728 197.935 9.344C197.914 9.152 197.892 8.96 197.871 8.768C197.85 8.576 197.839 8.38933 197.839 8.208C197.839 8.02667 197.839 7.856 197.839 7.696C197.85 7.536 197.866 7.36533 197.887 7.184C197.887 7.01333 197.903 6.84267 197.935 6.672C197.967 6.50133 198.01 6.32533 198.063 6.144C198.255 5.38667 198.612 4.79467 199.135 4.368C199.658 3.93067 200.33 3.73333 201.151 3.776ZM201.039 10.544C201.21 10.512 201.364 10.4267 201.503 10.288C201.567 10.2027 201.626 10.1173 201.679 10.032C201.743 9.936 201.796 9.83467 201.839 9.728C201.892 9.61067 201.93 9.49333 201.951 9.376C201.972 9.25867 201.994 9.14667 202.015 9.04C202.036 8.912 202.047 8.79467 202.047 8.688C202.058 8.57067 202.063 8.45867 202.063 8.352V7.728C202.042 7.61067 202.026 7.49867 202.015 7.392C202.004 7.28533 201.988 7.17333 201.967 7.056C201.946 6.94933 201.924 6.84267 201.903 6.736C201.882 6.62933 201.844 6.53333 201.791 6.448C201.748 6.36267 201.706 6.27733 201.663 6.192C201.62 6.10667 201.567 6.032 201.503 5.968C201.439 5.92533 201.37 5.89333 201.295 5.872C201.231 5.85067 201.156 5.82933 201.071 5.808C200.986 5.78667 200.9 5.78667 200.815 5.808C200.73 5.81867 200.644 5.83467 200.559 5.856C200.474 5.87733 200.394 5.89867 200.319 5.92C200.244 5.94133 200.164 5.984 200.079 6.048C199.972 6.13333 199.876 6.26667 199.791 6.448C199.642 6.896 199.567 7.32267 199.567 7.728C199.567 7.97333 199.567 8.208 199.567 8.432C199.578 8.656 199.604 8.89067 199.647 9.136C199.668 9.24267 199.7 9.36 199.743 9.488C199.786 9.60533 199.828 9.728 199.871 9.856C199.914 9.96267 199.967 10.0693 200.031 10.176C200.095 10.272 200.17 10.352 200.255 10.416C200.276 10.4373 200.298 10.4533 200.319 10.464C200.34 10.4747 200.378 10.4907 200.431 10.512C200.452 10.512 200.479 10.512 200.511 10.512C200.554 10.512 200.596 10.5227 200.639 10.544H201.039ZM209.135 11.28C209.156 11.4293 209.162 11.584 209.151 11.744C209.14 11.8933 209.124 12.0427 209.103 12.192C209.071 12.4267 208.986 12.6133 208.847 12.752C208.708 12.9013 208.554 12.9867 208.383 13.008C208.212 13.04 208.042 13.0027 207.871 12.896C207.711 12.7893 207.588 12.608 207.503 12.352C207.45 12.1707 207.423 11.9893 207.423 11.808C207.402 11.7227 207.386 11.6373 207.375 11.552C207.375 11.456 207.375 11.3653 207.375 11.28V7.568H206.335V11.36C206.356 11.4987 206.362 11.632 206.351 11.76C206.34 11.888 206.335 12.0213 206.335 12.16C206.314 12.288 206.276 12.416 206.223 12.544C206.18 12.6613 206.111 12.7573 206.015 12.832C205.93 12.9173 205.823 12.976 205.695 13.008C205.578 13.0507 205.434 13.0507 205.263 13.008C205.071 12.9333 204.916 12.8107 204.799 12.64C204.692 12.48 204.628 12.304 204.607 12.112C204.586 11.9733 204.575 11.84 204.575 11.712C204.575 11.584 204.575 11.456 204.575 11.328V1.392C204.575 1.232 204.602 1.06133 204.655 0.88C204.751 0.698667 204.842 0.56 204.927 0.464C205.012 0.325333 205.135 0.234666 205.295 0.191999C205.434 0.170666 205.551 0.176 205.647 0.208C205.754 0.229333 205.839 0.282667 205.903 0.368C205.967 0.442666 206.02 0.522666 206.063 0.608C206.106 0.682667 206.154 0.773334 206.207 0.88C206.228 0.986667 206.244 1.09867 206.255 1.216C206.276 1.32267 206.287 1.44 206.287 1.568C206.308 1.70667 206.319 1.84 206.319 1.968C206.33 2.096 206.335 2.22933 206.335 2.368V5.632H207.375V1.488C207.375 1.40267 207.375 1.312 207.375 1.216C207.386 1.10933 207.402 1.01333 207.423 0.927999C207.455 0.735999 207.54 0.581333 207.679 0.464C207.775 0.336 207.93 0.245333 208.143 0.191999C208.271 0.191999 208.378 0.208 208.463 0.24C208.559 0.272 208.639 0.330667 208.703 0.415999C208.767 0.469333 208.826 0.538667 208.879 0.624C208.943 0.709333 208.986 0.810666 209.007 0.927999C209.028 1.03467 209.05 1.14667 209.071 1.264C209.092 1.37067 209.114 1.488 209.135 1.616C209.135 1.73333 209.14 1.856 209.151 1.984C209.172 2.10133 209.183 2.22933 209.183 2.368C209.162 2.47467 209.146 2.576 209.135 2.672C209.135 2.768 209.135 2.85867 209.135 2.944V11.28Z" fill="black"/>
<path d="M221.268 11.888C221.439 11.8987 221.588 11.9413 221.716 12.016C221.844 12.08 221.935 12.1973 221.988 12.368C222.106 12.7627 221.967 13.0293 221.572 13.168C221.444 13.2213 221.311 13.2533 221.172 13.264C221.044 13.2747 220.927 13.28 220.82 13.28H213.38C213.167 13.28 212.943 13.28 212.708 13.28C212.474 13.28 212.239 13.2747 212.004 13.264C211.716 13.2533 211.514 13.1627 211.396 12.992C211.29 12.8213 211.226 12.6133 211.204 12.368L211.14 11.312C211.13 11.1947 211.13 11.056 211.14 10.896C211.162 10.7253 211.22 10.5813 211.316 10.464C211.466 10.3147 211.636 10.2187 211.828 10.176C212.02 10.1333 212.234 10.112 212.468 10.112H212.964C213.018 10.112 213.06 10.1173 213.092 10.128C213.124 10.128 213.156 10.128 213.188 10.128H220.164V9.568H213.028C212.975 9.568 212.916 9.568 212.852 9.568C212.799 9.55733 212.74 9.55733 212.676 9.568H212.292C212.186 9.568 212.09 9.568 212.004 9.568C211.919 9.568 211.834 9.55733 211.748 9.536C211.652 9.51467 211.562 9.49333 211.476 9.472C211.402 9.45067 211.338 9.39733 211.284 9.312C211.22 9.19467 211.178 9.08267 211.156 8.976C211.135 8.86933 211.146 8.752 211.188 8.624C211.22 8.53867 211.268 8.47467 211.332 8.432C211.396 8.37867 211.471 8.336 211.556 8.304C211.642 8.272 211.722 8.25067 211.796 8.24C211.882 8.21867 211.956 8.20267 212.02 8.192C212.106 8.18133 212.186 8.176 212.26 8.176C212.346 8.16533 212.431 8.16 212.516 8.16H212.788C212.842 8.17067 212.89 8.176 212.932 8.176C212.986 8.176 213.039 8.176 213.092 8.176H220.324C220.868 8.176 221.284 8.26133 221.572 8.432C221.86 8.592 222.004 8.85867 222.004 9.232V10.352C222.004 10.5013 221.967 10.6453 221.892 10.784C221.828 10.9227 221.711 11.0453 221.54 11.152C221.402 11.2373 221.263 11.2853 221.124 11.296C220.986 11.296 220.847 11.296 220.708 11.296H213.108V11.888H221.268ZM216.548 0.448C216.975 0.448 217.332 0.474667 217.62 0.528C217.919 0.581333 218.159 0.714666 218.34 0.927999C218.394 0.992 218.426 1.07733 218.436 1.184C218.458 1.29067 218.458 1.40267 218.436 1.52C218.426 1.62667 218.394 1.728 218.34 1.824C218.298 1.92 218.234 1.98933 218.148 2.032C218.063 2.064 217.962 2.10133 217.844 2.144C217.727 2.176 217.626 2.19733 217.54 2.208C217.391 2.21867 217.236 2.224 217.076 2.224C216.927 2.21333 216.778 2.208 216.628 2.208H215.572C215.572 2.208 215.567 2.26133 215.556 2.368C215.556 2.47467 215.556 2.59733 215.556 2.736C215.556 2.87467 215.556 3.008 215.556 3.136C215.567 3.25333 215.572 3.32267 215.572 3.344C215.626 3.39733 215.722 3.488 215.86 3.616C215.999 3.73333 216.116 3.83467 216.212 3.92C216.319 4.00533 216.426 4.10133 216.532 4.208C216.65 4.304 216.767 4.41067 216.884 4.528C216.959 4.60267 217.028 4.67733 217.092 4.752C217.156 4.816 217.215 4.87467 217.268 4.928C217.471 5.13067 217.674 5.34933 217.876 5.584C218.079 5.81867 218.218 6.05867 218.292 6.304C218.324 6.4 218.33 6.50667 218.308 6.624C218.287 6.74133 218.218 6.84267 218.1 6.928C217.919 7.03467 217.727 7.088 217.524 7.088C217.29 7.088 217.066 7.04 216.852 6.944C216.639 6.848 216.468 6.752 216.34 6.656C216.138 6.50667 215.951 6.352 215.78 6.192C215.61 6.02133 215.439 5.85067 215.268 5.68C215.151 5.56267 215.018 5.42933 214.868 5.28C214.719 5.12 214.57 4.98133 214.42 4.864L213.988 5.296C213.914 5.37067 213.839 5.44533 213.764 5.52C213.69 5.584 213.62 5.65333 213.556 5.728C213.418 5.87733 213.274 6.032 213.124 6.192C212.975 6.34133 212.804 6.48533 212.612 6.624C212.175 6.944 211.764 7.104 211.38 7.104C211.327 7.104 211.279 7.104 211.236 7.104C211.204 7.104 211.162 7.09333 211.108 7.072C210.874 7.01867 210.719 6.92267 210.644 6.784C210.57 6.66667 210.543 6.53333 210.564 6.384C210.596 6.23467 210.644 6.10133 210.708 5.984C210.794 5.86667 210.89 5.75467 210.996 5.648C211.103 5.53067 211.21 5.41333 211.316 5.296C211.412 5.18933 211.562 5.04 211.764 4.848C211.978 4.64533 212.191 4.44267 212.404 4.24C212.618 4.02667 212.815 3.83467 212.996 3.664C213.178 3.49333 213.29 3.38667 213.332 3.344V2.208H212.308C212.18 2.208 212.031 2.21333 211.86 2.224C211.69 2.224 211.519 2.21333 211.348 2.192C211.188 2.17067 211.039 2.128 210.9 2.064C210.762 1.98933 210.66 1.872 210.596 1.712C210.543 1.59467 210.506 1.46133 210.484 1.312C210.474 1.16267 210.484 1.024 210.516 0.896C210.559 0.746667 210.655 0.645333 210.804 0.592C210.954 0.528 211.098 0.485333 211.236 0.464L216.548 0.448ZM222.004 6.48C222.004 6.48 221.999 6.51733 221.988 6.592C221.978 6.66667 221.956 6.752 221.924 6.848C221.892 6.944 221.844 7.04533 221.78 7.152C221.716 7.248 221.631 7.328 221.524 7.392C221.375 7.47733 221.226 7.52 221.076 7.52C220.895 7.52 220.719 7.46133 220.548 7.344C220.431 7.25867 220.34 7.14667 220.276 7.008C220.191 6.848 220.132 6.672 220.1 6.48C220.079 6.288 220.063 6.09067 220.052 5.888C220.052 5.68533 220.058 5.488 220.068 5.296C220.079 5.09333 220.084 4.90133 220.084 4.72C220.095 4.26133 220.1 3.808 220.1 3.36C220.1 2.90133 220.1 2.448 220.1 2V1.792C220.09 1.67467 220.084 1.552 220.084 1.424C220.095 1.28533 220.116 1.15733 220.148 1.04C220.191 0.88 220.287 0.709333 220.436 0.528C220.522 0.421333 220.639 0.346667 220.788 0.304C220.948 0.250667 221.119 0.234667 221.3 0.256C221.62 0.309333 221.834 0.448 221.94 0.672C222.004 0.810667 222.031 0.981333 222.02 1.184C222.02 1.38667 222.015 1.50933 222.004 1.552V6.48Z" fill="black"/>
<path d="M234.728 5.152C234.781 5.152 234.829 5.15733 234.872 5.168C234.925 5.17867 234.979 5.184 235.032 5.184C235.085 5.19467 235.144 5.20533 235.208 5.216C235.272 5.216 235.336 5.22133 235.4 5.232C235.517 5.25333 235.635 5.296 235.752 5.36C235.869 5.41333 235.955 5.49867 236.008 5.616C236.083 5.73333 236.12 5.872 236.12 6.032C236.12 6.11733 236.115 6.19733 236.104 6.272C236.104 6.336 236.093 6.41067 236.072 6.496C236.051 6.58133 236.024 6.672 235.992 6.768C235.971 6.864 235.923 6.93867 235.848 6.992C235.699 7.09867 235.555 7.168 235.416 7.2C235.245 7.22133 235.037 7.22667 234.792 7.216C234.547 7.20533 234.339 7.20533 234.168 7.216C234.157 7.216 234.147 7.22133 234.136 7.232H234.12L234.104 7.248V7.296C234.104 7.424 234.104 7.57867 234.104 7.76C234.104 7.93067 234.104 8.10667 234.104 8.288C234.104 8.46933 234.104 8.65067 234.104 8.832C234.104 9.00267 234.104 9.15733 234.104 9.296C234.125 9.85067 234.125 10.3947 234.104 10.928V11.152C234.104 11.2907 234.099 11.4453 234.088 11.616C234.088 11.776 234.077 11.936 234.056 12.096C234.035 12.256 233.997 12.4107 233.944 12.56C233.891 12.6987 233.816 12.816 233.72 12.912C233.592 13.0613 233.421 13.136 233.208 13.136C233.208 13.136 233.197 13.1307 233.176 13.12C232.92 13.1093 232.712 13.0347 232.552 12.896C232.403 12.7573 232.285 12.5867 232.2 12.384C232.125 12.1813 232.077 11.9733 232.056 11.76C232.035 11.536 232.024 11.3387 232.024 11.168V1.664C232.024 1.65333 232.024 1.60533 232.024 1.52C232.024 1.424 232.035 1.31733 232.056 1.2C232.077 1.072 232.109 0.944 232.152 0.816C232.205 0.677333 232.275 0.565333 232.36 0.48C232.435 0.405333 232.541 0.352 232.68 0.32C232.829 0.277333 232.963 0.256 233.08 0.256C233.315 0.256 233.512 0.336 233.672 0.496C233.821 0.645334 233.907 0.805333 233.928 0.976C233.96 1.136 233.987 1.30667 234.008 1.488C234.019 1.53067 234.024 1.59467 234.024 1.68C234.045 1.86133 234.056 2.05333 234.056 2.256C234.056 2.448 234.061 2.64 234.072 2.832C234.072 2.94933 234.077 3.06133 234.088 3.168C234.099 3.27467 234.104 3.38667 234.104 3.504C234.093 3.568 234.088 3.632 234.088 3.696C234.099 3.74933 234.104 3.80267 234.104 3.856V4.768C234.104 4.82133 234.104 4.88 234.104 4.944C234.104 5.008 234.115 5.06667 234.136 5.12C234.136 5.13067 234.189 5.136 234.296 5.136C234.403 5.136 234.461 5.136 234.472 5.136C234.568 5.15733 234.643 5.16267 234.696 5.152H234.728ZM225.192 10.112C225.192 9.984 225.187 9.856 225.176 9.728C225.176 9.6 225.176 9.472 225.176 9.344V4.208C225.176 4.02667 225.176 3.85067 225.176 3.68C225.176 3.50933 225.165 3.33867 225.144 3.168C225.133 3.11467 225.117 3.04 225.096 2.944C225.085 2.848 225.053 2.784 225 2.752C224.947 2.73067 224.883 2.72533 224.808 2.736C224.744 2.736 224.68 2.73067 224.616 2.72C224.584 2.72 224.563 2.72 224.552 2.72C224.552 2.72 224.536 2.72 224.504 2.72C224.472 2.72 224.403 2.72 224.296 2.72C224.2 2.72 224.035 2.72 223.8 2.72C223.683 2.72 223.555 2.71467 223.416 2.704C223.288 2.68267 223.171 2.64 223.064 2.576C222.915 2.46933 222.813 2.35733 222.76 2.24C222.707 2.12267 222.68 1.97333 222.68 1.792C222.68 1.61067 222.723 1.43467 222.808 1.264C222.861 1.14667 222.931 1.056 223.016 0.992C223.069 0.938666 223.144 0.896 223.24 0.864C223.347 0.821334 223.443 0.789333 223.528 0.768C223.752 0.714666 223.944 0.688 224.104 0.688C224.275 0.677333 224.477 0.672 224.712 0.672H225.88C225.923 0.672 225.965 0.672 226.008 0.672C226.051 0.672 226.099 0.677333 226.152 0.688C226.259 0.677333 226.36 0.672 226.456 0.672C226.563 0.672 226.669 0.672 226.776 0.672H228.792C228.845 0.672 228.899 0.672 228.952 0.672C229.016 0.672 229.075 0.677333 229.128 0.688C229.277 0.698666 229.427 0.714666 229.576 0.736C229.736 0.757333 229.88 0.794666 230.008 0.848C230.093 0.88 230.173 0.922667 230.248 0.976C230.333 1.02933 230.403 1.09333 230.456 1.168C230.552 1.31733 230.605 1.46667 230.616 1.616C230.627 1.76533 230.643 1.93067 230.664 2.112C230.696 2.4 230.707 2.69333 230.696 2.992C230.696 3.28 230.696 3.57333 230.696 3.872V8.96C230.696 8.98133 230.696 9.06667 230.696 9.216C230.707 9.36533 230.712 9.54667 230.712 9.76C230.723 9.97333 230.723 10.1973 230.712 10.432C230.712 10.656 230.707 10.8533 230.696 11.024C230.685 11.2373 230.637 11.456 230.552 11.68C230.477 11.904 230.301 12.0747 230.024 12.192C229.917 12.224 229.821 12.2507 229.736 12.272C229.651 12.2933 229.565 12.304 229.48 12.304C229.341 12.304 229.203 12.2773 229.064 12.224C228.925 12.16 228.824 12.0693 228.76 11.952C228.6 11.6213 228.52 11.2427 228.52 10.816C228.52 10.6987 228.52 10.5813 228.52 10.464C228.52 10.3467 228.515 10.2293 228.504 10.112V4.208C228.504 4.02667 228.499 3.85067 228.488 3.68C228.488 3.50933 228.477 3.33867 228.456 3.168C228.456 3.11467 228.445 3.04 228.424 2.944C228.413 2.848 228.381 2.784 228.328 2.752C228.275 2.73067 228.211 2.72533 228.136 2.736C228.072 2.736 228.008 2.73067 227.944 2.72C227.869 2.70933 227.773 2.70933 227.656 2.72C227.549 2.73067 227.459 2.73067 227.384 2.72V8.96C227.384 8.98133 227.384 9.06667 227.384 9.216C227.395 9.36533 227.4 9.54667 227.4 9.76C227.4 9.97333 227.4 10.1973 227.4 10.432C227.4 10.656 227.395 10.8533 227.384 11.024C227.373 11.1307 227.357 11.2427 227.336 11.36C227.315 11.4773 227.277 11.5893 227.224 11.696C227.181 11.792 227.117 11.888 227.032 11.984C226.957 12.0693 226.851 12.1387 226.712 12.192C226.605 12.224 226.504 12.2507 226.408 12.272C226.323 12.2933 226.243 12.304 226.168 12.304C226.019 12.304 225.875 12.2773 225.736 12.224C225.597 12.16 225.501 12.0693 225.448 11.952C225.299 11.632 225.213 11.2533 225.192 10.816V10.112Z" fill="black"/>
<path d="M247.476 10.208C247.508 10.2187 247.54 10.224 247.572 10.224C247.604 10.2133 247.636 10.208 247.668 10.208C247.849 10.2293 248.015 10.2667 248.164 10.32C248.324 10.3627 248.479 10.4533 248.628 10.592C248.777 10.72 248.852 10.9013 248.852 11.136C248.852 11.2533 248.831 11.3813 248.788 11.52C248.756 11.648 248.708 11.7493 248.644 11.824C248.559 11.9093 248.452 11.9733 248.324 12.016C248.207 12.0587 248.084 12.0907 247.956 12.112C247.839 12.1227 247.732 12.128 247.636 12.128C247.551 12.128 247.503 12.128 247.492 12.128H238.708C238.655 12.128 238.575 12.1333 238.468 12.144C238.361 12.144 238.281 12.144 238.228 12.144C237.993 12.1547 237.748 12.1547 237.492 12.144C237.236 12.1227 237.017 12.0373 236.836 11.888C236.612 11.6853 236.5 11.456 236.5 11.2C236.5 11.04 236.548 10.8747 236.644 10.704C236.74 10.5333 236.868 10.416 237.028 10.352C237.241 10.2667 237.46 10.224 237.684 10.224C237.919 10.224 238.153 10.2187 238.388 10.208H238.468C238.628 10.208 238.815 10.208 239.028 10.208C239.252 10.1973 239.449 10.192 239.62 10.192C239.609 10.1493 239.604 10.096 239.604 10.032V8.48C239.604 8.384 239.62 8.288 239.652 8.192C239.673 8.10667 239.711 8.02133 239.764 7.936C239.817 7.84 239.892 7.74933 239.988 7.664C239.593 7.568 239.22 7.41867 238.868 7.216C238.527 7.01333 238.228 6.72533 237.972 6.352C237.727 6.02133 237.561 5.66933 237.476 5.296C237.401 4.92267 237.364 4.53333 237.364 4.128C237.364 3.296 237.583 2.60267 238.02 2.048C238.468 1.48267 239.076 1.07733 239.844 0.832C240.356 0.661333 240.873 0.554667 241.396 0.512C241.929 0.458667 242.463 0.453334 242.996 0.496C243.433 0.528 243.871 0.570666 244.308 0.624C244.745 0.677333 245.167 0.794666 245.572 0.976C245.753 1.06133 245.929 1.16267 246.1 1.28C246.271 1.39733 246.431 1.536 246.58 1.696C246.953 2.10133 247.209 2.53867 247.348 3.008C247.487 3.47733 247.535 3.97867 247.492 4.512C247.428 5.344 247.183 6.01067 246.756 6.512C246.329 7.00267 245.796 7.36 245.156 7.584C245.273 7.648 245.369 7.73333 245.444 7.84C245.519 7.94667 245.561 8.07467 245.572 8.224C245.583 8.39467 245.588 8.66133 245.588 9.024C245.599 9.376 245.604 9.77067 245.604 10.208H246.244C246.436 10.2187 246.644 10.2187 246.868 10.208C247.103 10.1867 247.305 10.1867 247.476 10.208ZM245.396 4.752C245.428 4.61333 245.439 4.48 245.428 4.352C245.407 3.79733 245.231 3.38667 244.9 3.12C244.58 2.84267 244.164 2.672 243.652 2.608C243.353 2.576 242.985 2.544 242.548 2.512C242.111 2.46933 241.679 2.48 241.252 2.544C240.836 2.608 240.468 2.74133 240.148 2.944C239.828 3.136 239.636 3.44533 239.572 3.872C239.54 4.128 239.54 4.37333 239.572 4.608C239.615 4.84267 239.705 5.05067 239.844 5.232C239.983 5.41333 240.175 5.568 240.42 5.696C240.665 5.824 240.98 5.904 241.364 5.936C241.737 5.97867 242.116 6.016 242.5 6.048C242.895 6.08 243.279 6.05867 243.652 5.984C243.833 5.952 244.015 5.90933 244.196 5.856C244.388 5.792 244.564 5.712 244.724 5.616C244.884 5.52 245.023 5.40267 245.14 5.264C245.257 5.11467 245.343 4.944 245.396 4.752ZM243.236 7.872C242.959 7.872 242.665 7.87733 242.356 7.888C242.057 7.888 241.753 7.87733 241.444 7.856C241.519 7.984 241.561 8.10667 241.572 8.224C241.583 8.39467 241.588 8.66133 241.588 9.024C241.599 9.376 241.604 9.77067 241.604 10.208H243.62C243.609 10.1653 243.604 10.1067 243.604 10.032V8.48C243.604 8.416 243.615 8.34667 243.636 8.272C243.657 8.21867 243.679 8.15467 243.7 8.08C243.721 8.00533 243.759 7.93067 243.812 7.856C243.716 7.86667 243.62 7.872 243.524 7.872C243.428 7.872 243.332 7.872 243.236 7.872Z" fill="black"/>
<path d="M250.188 4.16C250.146 3.88267 250.124 3.6 250.124 3.312C250.135 3.024 250.188 2.74133 250.284 2.464C250.402 2.10133 250.594 1.78133 250.86 1.504C251.127 1.22667 251.431 1.008 251.772 0.848C252.135 0.677333 252.503 0.56 252.876 0.496C253.26 0.421333 253.634 0.405333 253.996 0.448C254.37 0.490667 254.727 0.586667 255.068 0.736C255.42 0.874667 255.751 1.07733 256.06 1.344C256.391 1.632 256.636 1.968 256.796 2.352C256.967 2.72533 257.058 3.11467 257.068 3.52C257.09 3.92533 257.042 4.33067 256.924 4.736C256.818 5.13067 256.652 5.49867 256.428 5.84C256.428 5.84 256.423 5.85067 256.412 5.872C256.231 6.11733 256.023 6.34133 255.788 6.544C255.554 6.736 255.335 6.944 255.132 7.168C254.898 7.41333 254.759 7.664 254.716 7.92C254.674 8.16533 254.631 8.44267 254.588 8.752C254.556 9.05067 254.476 9.312 254.348 9.536C254.231 9.74933 254.007 9.85067 253.676 9.84C253.452 9.82933 253.282 9.76 253.164 9.632C253.058 9.49333 252.978 9.33333 252.924 9.152C252.882 8.96 252.866 8.76267 252.876 8.56C252.887 8.34667 252.903 8.16 252.924 8C252.988 7.62667 253.106 7.27467 253.276 6.944C253.447 6.60267 253.655 6.28267 253.9 5.984C254.039 5.824 254.178 5.68 254.316 5.552C254.455 5.41333 254.583 5.26933 254.7 5.12C254.818 4.97067 254.919 4.81067 255.004 4.64C255.09 4.46933 255.148 4.272 255.18 4.048C255.212 3.84533 255.196 3.64267 255.132 3.44C255.068 3.22667 254.972 3.04 254.844 2.88C254.716 2.70933 254.562 2.57067 254.38 2.464C254.199 2.34667 254.002 2.28267 253.788 2.272C253.596 2.26133 253.394 2.288 253.18 2.352C252.967 2.40533 252.77 2.496 252.588 2.624C252.407 2.74133 252.258 2.88533 252.14 3.056C252.034 3.22667 251.986 3.41867 251.996 3.632C252.007 3.76 252.028 3.89333 252.06 4.032C252.103 4.16 252.13 4.288 252.14 4.416C252.162 4.53333 252.156 4.65067 252.124 4.768C252.103 4.88533 252.034 4.99733 251.916 5.104C251.724 5.28533 251.532 5.376 251.34 5.376C251.148 5.36533 250.972 5.30133 250.812 5.184C250.652 5.06667 250.514 4.91733 250.396 4.736C250.29 4.544 250.22 4.352 250.188 4.16ZM254.796 12.144C254.796 12.4533 254.679 12.7307 254.444 12.976C254.22 13.2107 253.959 13.328 253.66 13.328C253.372 13.328 253.116 13.2107 252.892 12.976C252.668 12.72 252.556 12.4427 252.556 12.144C252.556 11.8133 252.668 11.536 252.892 11.312C253.116 11.0667 253.372 10.944 253.66 10.944C253.959 10.944 254.22 11.0667 254.444 11.312C254.679 11.5467 254.796 11.824 254.796 12.144Z" fill="black"/>
</svg>
