<svg width="92" height="16" viewBox="0 0 92 16" fill="none" xmlns="http://www.w3.org/2000/svg">
<path d="M2.67791 1.48008C2.90458 1.34674 3.13791 1.20008 3.37791 1.04008C3.63124 0.880078 3.77124 0.800078 3.79791 0.800078H4.99791C5.73124 0.800078 6.25791 0.960078 6.57791 1.28008C6.89791 1.58674 7.05791 1.98674 7.05791 2.48008C7.05791 2.62674 7.04458 2.90674 7.01791 3.32008C7.00458 3.72008 6.97791 4.20674 6.93791 4.78008C6.89791 5.35341 6.85124 5.99341 6.79791 6.70008C6.75791 7.39341 6.71124 8.09341 6.65791 8.80008C6.61791 9.50675 6.57124 10.2001 6.51791 10.8801C6.47791 11.5601 6.43791 12.1734 6.39791 12.7201C6.35791 13.2534 6.32458 13.7001 6.29791 14.0601C6.27124 14.4201 6.25124 14.6334 6.23791 14.7001C6.22458 14.8067 6.19791 14.8867 6.15791 14.9401C6.11791 14.9801 6.03791 15.0001 5.91791 15.0001H4.81791C4.01791 15.0001 3.47124 14.8401 3.17791 14.5201C2.88458 14.2001 2.73791 13.6934 2.73791 13.0001C2.73791 12.7201 2.75791 12.2934 2.79791 11.7201C2.83791 11.1334 2.88458 10.4534 2.93791 9.68008C3.00458 8.90675 3.07124 8.06008 3.13791 7.14008C3.21791 6.22008 3.29791 5.28008 3.37791 4.32008C3.23124 4.48008 3.07124 4.59341 2.89791 4.66008C2.73791 4.72674 2.57791 4.76008 2.41791 4.76008C2.16458 4.76008 1.93791 4.69341 1.73791 4.56008C1.55124 4.42674 1.39124 4.26675 1.25791 4.08008C1.12458 3.89341 1.02458 3.69341 0.95791 3.48008C0.891243 3.25341 0.85791 3.05341 0.85791 2.88008C0.85791 2.81341 0.871243 2.75341 0.89791 2.70008C0.93791 2.64674 1.01791 2.57341 1.13791 2.48008C1.25791 2.38674 1.43791 2.26674 1.67791 2.12008C1.91791 1.96008 2.25124 1.74674 2.67791 1.48008Z" fill="#1E5AF5"/>
<path d="M12.8332 15.2001C12.2732 15.2001 11.7266 15.1467 11.1932 15.0401C10.6732 14.9334 10.2066 14.7801 9.79322 14.5801C9.37989 14.3667 9.04656 14.1067 8.79322 13.8001C8.55322 13.4801 8.43322 13.1067 8.43322 12.6801C8.43322 12.1334 8.63989 11.7067 9.05322 11.4001C9.47989 11.0801 10.0799 10.9201 10.8532 10.9201C10.9599 10.9201 11.0399 10.9334 11.0932 10.9601C11.1466 10.9867 11.1866 11.0534 11.2132 11.1601C11.2532 11.3467 11.3399 11.5001 11.4732 11.6201C11.6066 11.7401 11.7599 11.8334 11.9332 11.9001C12.1066 11.9667 12.2799 12.0134 12.4532 12.0401C12.6399 12.0667 12.8066 12.0801 12.9532 12.0801C13.3532 12.0801 13.6866 12.0134 13.9532 11.8801C14.2332 11.7334 14.4532 11.5534 14.6132 11.3401C14.7866 11.1134 14.9066 10.8667 14.9732 10.6001C15.0532 10.3201 15.0932 10.0534 15.0932 9.80008C15.0932 9.60008 15.0666 9.40675 15.0132 9.22008C14.9732 9.02008 14.8999 8.84674 14.7932 8.70008C14.6999 8.55341 14.5666 8.43341 14.3932 8.34008C14.2332 8.24675 14.0266 8.20008 13.7732 8.20008C13.5332 8.20008 13.3132 8.25341 13.1132 8.36008C12.9266 8.46674 12.7866 8.66008 12.6932 8.94008C12.6399 9.15341 12.5399 9.26008 12.3932 9.26008H11.2932C10.9066 9.26008 10.5866 9.22675 10.3332 9.16008C10.0932 9.09341 9.89989 9.00008 9.75322 8.88008C9.61989 8.74675 9.52656 8.58674 9.47322 8.40008C9.41989 8.20008 9.39322 7.97341 9.39322 7.72008C9.39322 7.40008 9.41989 6.93341 9.47322 6.32008C9.53989 5.69341 9.61322 5.04008 9.69322 4.36008C9.78656 3.68008 9.87322 3.04008 9.95322 2.44008C10.0332 1.82674 10.0932 1.38008 10.1332 1.10008C10.1466 0.900078 10.2599 0.800078 10.4732 0.800078H18.1132C18.1932 0.800078 18.2666 0.820078 18.3332 0.860078C18.3999 0.900078 18.4332 0.973411 18.4332 1.08008L18.3532 2.26008C18.3266 2.66008 18.2132 2.98674 18.0132 3.24008C17.8266 3.48008 17.4332 3.60008 16.8332 3.60008H13.2132L12.7932 6.64008C12.9799 6.46674 13.2466 6.33341 13.5932 6.24008C13.9532 6.13341 14.3466 6.08008 14.7732 6.08008C15.3466 6.08008 15.8666 6.18008 16.3332 6.38008C16.7999 6.56674 17.1932 6.83341 17.5132 7.18008C17.8332 7.51341 18.0799 7.92008 18.2532 8.40008C18.4266 8.88008 18.5132 9.40674 18.5132 9.98008C18.5132 10.6067 18.4066 11.2334 18.1932 11.8601C17.9799 12.4734 17.6399 13.0334 17.1732 13.5401C16.7199 14.0334 16.1332 14.4334 15.4132 14.7401C14.6932 15.0467 13.8332 15.2001 12.8332 15.2001Z" fill="#1E5AF5"/>
<path d="M23.4642 14.7001C23.3708 14.9001 23.2308 15.0001 23.0442 15.0001H22.3242C21.6575 15.0001 21.1108 14.8934 20.6842 14.6801C20.2708 14.4667 20.0642 14.1467 20.0642 13.7201C20.0642 13.5867 20.0908 13.4334 20.1442 13.2601C20.2108 13.0734 20.3108 12.8334 20.4442 12.5401C20.5908 12.2467 20.7842 11.8801 21.0242 11.4401C21.2642 10.9867 21.5642 10.4267 21.9242 9.76008C22.4175 8.84008 22.8375 8.06008 23.1842 7.42008C23.5308 6.78008 23.8108 6.24674 24.0242 5.82008C24.2508 5.38008 24.4308 5.03341 24.5642 4.78008C24.6975 4.51341 24.7975 4.30674 24.8642 4.16008C24.9442 4.00008 24.9975 3.88674 25.0242 3.82008C25.0508 3.74008 25.0842 3.66674 25.1242 3.60008H20.3642C20.2575 3.60008 20.1908 3.58008 20.1642 3.54008C20.1508 3.50008 20.1442 3.42674 20.1442 3.32008L20.2042 2.20008C20.2175 2.02674 20.2375 1.86008 20.2642 1.70008C20.3042 1.52674 20.3708 1.37341 20.4642 1.24008C20.5708 1.10674 20.7175 1.00008 20.9042 0.920077C21.0908 0.840078 21.3375 0.800078 21.6442 0.800078H29.0842C29.1642 0.800078 29.2375 0.820078 29.3042 0.860078C29.3708 0.900078 29.4042 0.973411 29.4042 1.08008L29.3242 2.16008C29.2975 2.38674 29.2642 2.56008 29.2242 2.68008C29.1842 2.80008 29.1375 2.91341 29.0842 3.02008C28.4442 4.30008 27.8975 5.40008 27.4442 6.32008C26.9908 7.24008 26.5908 8.04008 26.2442 8.72008C25.9108 9.40008 25.6242 9.99341 25.3842 10.5001C25.1442 10.9934 24.9175 11.4601 24.7042 11.9001C24.5042 12.3401 24.3042 12.7801 24.1042 13.2201C23.9175 13.6601 23.7042 14.1534 23.4642 14.7001Z" fill="#1E5AF5"/>
<path d="M33.3079 14.7001C33.2146 14.9001 33.0746 15.0001 32.8879 15.0001H32.1679C31.5012 15.0001 30.9546 14.8934 30.5279 14.6801C30.1146 14.4667 29.9079 14.1467 29.9079 13.7201C29.9079 13.5867 29.9346 13.4334 29.9879 13.2601C30.0546 13.0734 30.1546 12.8334 30.2879 12.5401C30.4346 12.2467 30.6279 11.8801 30.8679 11.4401C31.1079 10.9867 31.4079 10.4267 31.7679 9.76008C32.2612 8.84008 32.6812 8.06008 33.0279 7.42008C33.3746 6.78008 33.6546 6.24674 33.8679 5.82008C34.0946 5.38008 34.2746 5.03341 34.4079 4.78008C34.5412 4.51341 34.6412 4.30674 34.7079 4.16008C34.7879 4.00008 34.8412 3.88674 34.8679 3.82008C34.8946 3.74008 34.9279 3.66674 34.9679 3.60008H30.2079C30.1012 3.60008 30.0346 3.58008 30.0079 3.54008C29.9946 3.50008 29.9879 3.42674 29.9879 3.32008L30.0479 2.20008C30.0612 2.02674 30.0812 1.86008 30.1079 1.70008C30.1479 1.52674 30.2146 1.37341 30.3079 1.24008C30.4146 1.10674 30.5612 1.00008 30.7479 0.920077C30.9346 0.840078 31.1812 0.800078 31.4879 0.800078H38.9279C39.0079 0.800078 39.0812 0.820078 39.1479 0.860078C39.2146 0.900078 39.2479 0.973411 39.2479 1.08008L39.1679 2.16008C39.1412 2.38674 39.1079 2.56008 39.0679 2.68008C39.0279 2.80008 38.9812 2.91341 38.9279 3.02008C38.2879 4.30008 37.7412 5.40008 37.2879 6.32008C36.8346 7.24008 36.4346 8.04008 36.0879 8.72008C35.7546 9.40008 35.4679 9.99341 35.2279 10.5001C34.9879 10.9934 34.7612 11.4601 34.5479 11.9001C34.3479 12.3401 34.1479 12.7801 33.9479 13.2201C33.7612 13.6601 33.5479 14.1534 33.3079 14.7001Z" fill="#1E5AF5"/>
<path d="M39.4085 10.8201C39.2619 10.8201 39.1885 10.7467 39.1885 10.6001L39.2485 9.52008C39.2619 9.34674 39.2819 9.18008 39.3085 9.02008C39.3485 8.84674 39.4152 8.69341 39.5085 8.56008C39.6152 8.42674 39.7619 8.32008 39.9485 8.24008C40.1352 8.16008 40.3819 8.12008 40.6885 8.12008H46.1285C46.2085 8.12008 46.2819 8.14675 46.3485 8.20008C46.4152 8.24008 46.4485 8.30674 46.4485 8.40008L46.3685 9.48008C46.3419 9.88008 46.2285 10.2067 46.0285 10.4601C45.8419 10.7001 45.4485 10.8201 44.8485 10.8201H39.4085Z" fill="#1E5AF5"/>
<path d="M55.0268 0.580078C55.9068 0.580078 56.6535 0.720078 57.2668 1.00008C57.8801 1.26674 58.3801 1.66674 58.7668 2.20008C59.1535 2.72008 59.4335 3.36008 59.6068 4.12008C59.7935 4.86674 59.8868 5.72008 59.8868 6.68008C59.8868 7.21341 59.8535 7.79341 59.7868 8.42008C59.7201 9.04674 59.6002 9.68008 59.4268 10.3201C59.2535 10.9467 59.0135 11.5534 58.7068 12.1401C58.4002 12.7267 58.0068 13.2467 57.5268 13.7001C57.0468 14.1534 56.4668 14.5201 55.7868 14.8001C55.1201 15.0667 54.3268 15.2001 53.4068 15.2001C52.4202 15.2001 51.6001 15.0334 50.9468 14.7001C50.3068 14.3667 49.7868 13.9201 49.3868 13.3601C49.0002 12.7867 48.7268 12.1134 48.5668 11.3401C48.4068 10.5667 48.3268 9.74008 48.3268 8.86008C48.3268 7.82008 48.4335 6.80674 48.6468 5.82008C48.8735 4.82008 49.2468 3.93341 49.7668 3.16008C50.2868 2.38674 50.9735 1.76674 51.8268 1.30008C52.6935 0.820078 53.7602 0.580078 55.0268 0.580078ZM54.6068 3.68008C54.2335 3.68008 53.9068 3.76674 53.6268 3.94008C53.3601 4.10008 53.1268 4.32008 52.9268 4.60008C52.7401 4.88008 52.5868 5.19341 52.4668 5.54008C52.3601 5.88674 52.2735 6.24674 52.2068 6.62008C52.1402 6.98008 52.0935 7.33341 52.0668 7.68008C52.0535 8.01341 52.0468 8.31341 52.0468 8.58008C52.0468 9.79341 52.1935 10.6801 52.4868 11.2401C52.7935 11.8001 53.2268 12.0801 53.7868 12.0801C54.2801 12.0801 54.6801 11.8867 54.9868 11.5001C55.3068 11.1001 55.5535 10.6267 55.7268 10.0801C55.9002 9.52008 56.0135 8.94674 56.0668 8.36008C56.1335 7.76008 56.1668 7.25341 56.1668 6.84008C56.1668 5.86674 56.0468 5.10008 55.8068 4.54008C55.5668 3.96674 55.1668 3.68008 54.6068 3.68008Z" fill="#1E5AF5"/>
<path d="M62.9709 1.48008C63.1975 1.34674 63.4309 1.20008 63.6709 1.04008C63.9242 0.880078 64.0642 0.800078 64.0909 0.800078H65.2909C66.0242 0.800078 66.5509 0.960078 66.8709 1.28008C67.1909 1.58674 67.3509 1.98674 67.3509 2.48008C67.3509 2.62674 67.3375 2.90674 67.3109 3.32008C67.2975 3.72008 67.2709 4.20674 67.2309 4.78008C67.1909 5.35341 67.1442 5.99341 67.0909 6.70008C67.0509 7.39341 67.0042 8.09341 66.9509 8.80008C66.9109 9.50675 66.8642 10.2001 66.8109 10.8801C66.7709 11.5601 66.7309 12.1734 66.6909 12.7201C66.6509 13.2534 66.6175 13.7001 66.5909 14.0601C66.5642 14.4201 66.5442 14.6334 66.5309 14.7001C66.5175 14.8067 66.4909 14.8867 66.4509 14.9401C66.4109 14.9801 66.3309 15.0001 66.2109 15.0001H65.1109C64.3109 15.0001 63.7642 14.8401 63.4709 14.5201C63.1775 14.2001 63.0309 13.6934 63.0309 13.0001C63.0309 12.7201 63.0509 12.2934 63.0909 11.7201C63.1309 11.1334 63.1775 10.4534 63.2309 9.68008C63.2975 8.90675 63.3642 8.06008 63.4309 7.14008C63.5109 6.22008 63.5909 5.28008 63.6709 4.32008C63.5242 4.48008 63.3642 4.59341 63.1909 4.66008C63.0309 4.72674 62.8709 4.76008 62.7109 4.76008C62.4575 4.76008 62.2309 4.69341 62.0309 4.56008C61.8442 4.42674 61.6842 4.26675 61.5509 4.08008C61.4175 3.89341 61.3175 3.69341 61.2509 3.48008C61.1842 3.25341 61.1509 3.05341 61.1509 2.88008C61.1509 2.81341 61.1642 2.75341 61.1909 2.70008C61.2309 2.64674 61.3109 2.57341 61.4309 2.48008C61.5509 2.38674 61.7309 2.26674 61.9709 2.12008C62.2109 1.96008 62.5442 1.74674 62.9709 1.48008Z" fill="#1E5AF5"/>
<path d="M72.9062 12.1001C73.5329 12.1001 74.0529 11.9667 74.4662 11.7001C74.8929 11.4334 75.2262 11.1067 75.4662 10.7201C75.7195 10.3334 75.8995 9.92674 76.0062 9.50008C76.1129 9.07341 76.1662 8.69341 76.1662 8.36008C76.1662 8.17341 76.1395 8.04674 76.0862 7.98008C76.0329 8.04674 75.9329 8.17341 75.7862 8.36008C75.6529 8.54674 75.4595 8.74008 75.2062 8.94008C74.9662 9.14008 74.6529 9.32008 74.2662 9.48008C73.8795 9.62674 73.4195 9.70008 72.8862 9.70008C72.4462 9.70008 72.0062 9.64008 71.5662 9.52008C71.1395 9.38674 70.7529 9.17341 70.4062 8.88008C70.0729 8.57341 69.7995 8.18008 69.5862 7.70008C69.3729 7.20674 69.2662 6.60008 69.2662 5.88008C69.2662 5.14674 69.3862 4.46008 69.6262 3.82008C69.8662 3.18008 70.2195 2.62008 70.6862 2.14008C71.1529 1.66008 71.7395 1.28008 72.4462 1.00008C73.1529 0.720078 73.9662 0.580078 74.8862 0.580078C75.8862 0.580078 76.6995 0.746745 77.3262 1.08008C77.9662 1.40008 78.4662 1.83341 78.8262 2.38008C79.1862 2.91341 79.4329 3.54008 79.5662 4.26008C79.6995 4.98008 79.7662 5.72674 79.7662 6.50008C79.7662 7.66008 79.6395 8.76674 79.3862 9.82008C79.1329 10.8734 78.7262 11.8001 78.1662 12.6001C77.6062 13.4001 76.8795 14.0334 75.9862 14.5001C75.0929 14.9667 73.9995 15.2001 72.7062 15.2001C72.0662 15.2001 71.5195 15.1401 71.0662 15.0201C70.6129 14.9001 70.2395 14.7334 69.9462 14.5201C69.6662 14.3067 69.4595 14.0601 69.3262 13.7801C69.2062 13.4867 69.1462 13.1667 69.1462 12.8201C69.1462 12.1801 69.3529 11.7067 69.7662 11.4001C70.1929 11.0934 70.7995 10.9401 71.5862 10.9401C71.7329 10.9401 71.8195 10.9534 71.8462 10.9801C71.8729 11.0067 71.8995 11.0734 71.9262 11.1801C71.9929 11.5401 72.0795 11.7867 72.1862 11.9201C72.3062 12.0401 72.5462 12.1001 72.9062 12.1001ZM74.2462 7.30008C74.5795 7.30008 74.8595 7.22674 75.0862 7.08008C75.3129 6.93341 75.4862 6.75341 75.6062 6.54008C75.7395 6.32674 75.8329 6.10008 75.8862 5.86008C75.9395 5.62008 75.9662 5.40008 75.9662 5.20008C75.9662 4.73341 75.8462 4.36674 75.6062 4.10008C75.3662 3.83341 75.0462 3.70008 74.6462 3.70008C74.3262 3.70008 74.0595 3.78008 73.8462 3.94008C73.6329 4.10008 73.4595 4.30008 73.3262 4.54008C73.2062 4.76674 73.1195 5.01341 73.0662 5.28008C73.0129 5.53341 72.9862 5.75341 72.9862 5.94008C72.9862 6.34008 73.0862 6.66675 73.2862 6.92008C73.4862 7.17341 73.8062 7.30008 74.2462 7.30008Z" fill="#1E5AF5"/>
<path d="M85.0742 12.1001C85.7008 12.1001 86.2208 11.9667 86.6342 11.7001C87.0608 11.4334 87.3942 11.1067 87.6342 10.7201C87.8875 10.3334 88.0675 9.92674 88.1742 9.50008C88.2808 9.07341 88.3342 8.69341 88.3342 8.36008C88.3342 8.17341 88.3075 8.04674 88.2542 7.98008C88.2008 8.04674 88.1008 8.17341 87.9542 8.36008C87.8208 8.54674 87.6275 8.74008 87.3742 8.94008C87.1342 9.14008 86.8208 9.32008 86.4342 9.48008C86.0475 9.62674 85.5875 9.70008 85.0542 9.70008C84.6142 9.70008 84.1742 9.64008 83.7342 9.52008C83.3075 9.38674 82.9208 9.17341 82.5742 8.88008C82.2408 8.57341 81.9675 8.18008 81.7542 7.70008C81.5408 7.20674 81.4342 6.60008 81.4342 5.88008C81.4342 5.14674 81.5542 4.46008 81.7942 3.82008C82.0342 3.18008 82.3875 2.62008 82.8542 2.14008C83.3208 1.66008 83.9075 1.28008 84.6142 1.00008C85.3208 0.720078 86.1342 0.580078 87.0542 0.580078C88.0542 0.580078 88.8675 0.746745 89.4942 1.08008C90.1342 1.40008 90.6342 1.83341 90.9942 2.38008C91.3542 2.91341 91.6008 3.54008 91.7342 4.26008C91.8675 4.98008 91.9342 5.72674 91.9342 6.50008C91.9342 7.66008 91.8075 8.76674 91.5542 9.82008C91.3008 10.8734 90.8942 11.8001 90.3342 12.6001C89.7742 13.4001 89.0475 14.0334 88.1542 14.5001C87.2608 14.9667 86.1675 15.2001 84.8742 15.2001C84.2342 15.2001 83.6875 15.1401 83.2342 15.0201C82.7808 14.9001 82.4075 14.7334 82.1142 14.5201C81.8342 14.3067 81.6275 14.0601 81.4942 13.7801C81.3742 13.4867 81.3142 13.1667 81.3142 12.8201C81.3142 12.1801 81.5208 11.7067 81.9342 11.4001C82.3608 11.0934 82.9675 10.9401 83.7542 10.9401C83.9008 10.9401 83.9875 10.9534 84.0142 10.9801C84.0408 11.0067 84.0675 11.0734 84.0942 11.1801C84.1608 11.5401 84.2475 11.7867 84.3542 11.9201C84.4742 12.0401 84.7142 12.1001 85.0742 12.1001ZM86.4142 7.30008C86.7475 7.30008 87.0275 7.22674 87.2542 7.08008C87.4808 6.93341 87.6542 6.75341 87.7742 6.54008C87.9075 6.32674 88.0008 6.10008 88.0542 5.86008C88.1075 5.62008 88.1342 5.40008 88.1342 5.20008C88.1342 4.73341 88.0142 4.36674 87.7742 4.10008C87.5342 3.83341 87.2142 3.70008 86.8142 3.70008C86.4942 3.70008 86.2275 3.78008 86.0142 3.94008C85.8008 4.10008 85.6275 4.30008 85.4942 4.54008C85.3742 4.76674 85.2875 5.01341 85.2342 5.28008C85.1808 5.53341 85.1542 5.75341 85.1542 5.94008C85.1542 6.34008 85.2542 6.66675 85.4542 6.92008C85.6542 7.17341 85.9742 7.30008 86.4142 7.30008Z" fill="#1E5AF5"/>
</svg>
