<svg width="241" height="14" viewBox="0 0 241 14" fill="none" xmlns="http://www.w3.org/2000/svg">
<path d="M1.312 13.3C1.30133 13.3 1.28533 13.2893 1.264 13.268C1.15733 13.1827 1.08267 13.06 1.04 12.9C1.008 12.7293 0.992 12.5853 0.992 12.468C0.981333 12.276 0.965333 12.084 0.944 11.892C0.933333 11.7 0.928 11.5133 0.928 11.332C0.928 11.0547 0.928 10.7827 0.928 10.516C0.928 10.2493 0.954667 9.98267 1.008 9.716C1.04 9.54533 1.09333 9.412 1.168 9.316C1.24267 9.20933 1.36 9.124 1.52 9.06C1.81867 8.94267 2.11733 8.884 2.416 8.884H9.792C9.99467 8.89467 10.2027 8.91067 10.416 8.932C10.6293 8.95333 10.832 9.00667 11.024 9.092C11.2373 9.17733 11.376 9.32133 11.44 9.524C11.5147 9.716 11.5627 9.91867 11.584 10.132C11.5947 10.3133 11.6 10.5267 11.6 10.772C11.6107 11.0067 11.6107 11.2467 11.6 11.492C11.5893 11.7373 11.5733 11.9827 11.552 12.228C11.5307 12.4627 11.4933 12.676 11.44 12.868C11.408 12.9853 11.3707 13.0867 11.328 13.172C11.2853 13.268 11.2 13.3373 11.072 13.38C10.9547 13.4227 10.832 13.4493 10.704 13.46C10.5867 13.4707 10.4693 13.476 10.352 13.476L2.176 13.444C2.03733 13.4333 1.888 13.428 1.728 13.428C1.568 13.428 1.42933 13.3853 1.312 13.3ZM5.856 1.028C6.496 1.36933 6.94933 1.83867 7.216 2.436C7.49333 3.03333 7.6 3.748 7.536 4.58C7.472 5.64667 7.168 6.44133 6.624 6.964C6.09067 7.48667 5.26933 7.748 4.16 7.748C3.872 7.748 3.60533 7.75333 3.36 7.764C3.12533 7.764 2.90133 7.748 2.688 7.716C2.47467 7.684 2.256 7.63067 2.032 7.556C1.808 7.47067 1.568 7.34267 1.312 7.172C0.810667 6.84133 0.464 6.40933 0.272 5.876C0.0906667 5.34267 0 4.79333 0 4.228C0 3.66267 0.101333 3.13467 0.304 2.644C0.506667 2.14267 0.837333 1.716 1.296 1.364C1.66933 1.06533 2.08533 0.846666 2.544 0.708C3.01333 0.569333 3.48267 0.521333 3.952 0.564C4.16533 0.585333 4.34667 0.606667 4.496 0.628C4.656 0.638666 4.80533 0.66 4.944 0.692C5.08267 0.724 5.22133 0.766667 5.36 0.82C5.49867 0.873333 5.664 0.942667 5.856 1.028ZM11.68 6.932C11.68 6.932 11.6747 6.96933 11.664 7.044C11.6533 7.11867 11.632 7.204 11.6 7.3C11.568 7.396 11.52 7.49733 11.456 7.604C11.392 7.7 11.3067 7.78 11.2 7.844C11.0507 7.92933 10.9013 7.972 10.752 7.972C10.5707 7.972 10.3947 7.91333 10.224 7.796C10.1067 7.71067 10.016 7.59867 9.952 7.46C9.86667 7.3 9.808 7.124 9.776 6.932C9.75467 6.74 9.73867 6.54267 9.728 6.34C9.728 6.13733 9.73333 5.94 9.744 5.748C9.75467 5.54533 9.76 5.35333 9.76 5.172C9.77067 4.71333 9.776 4.26 9.776 3.812C9.776 3.35333 9.776 2.9 9.776 2.452V2.244C9.76533 2.12667 9.76 2.004 9.76 1.876C9.77067 1.73733 9.792 1.60933 9.824 1.492C9.86667 1.332 9.96267 1.16133 10.112 0.98C10.1973 0.873333 10.3147 0.798667 10.464 0.756C10.624 0.702667 10.7947 0.686667 10.976 0.708C11.296 0.761333 11.5093 0.9 11.616 1.124C11.68 1.26267 11.7067 1.43333 11.696 1.636C11.696 1.83867 11.6907 1.96133 11.68 2.004V6.932ZM5.632 4.756C5.632 4.52133 5.62133 4.30267 5.6 4.1C5.57867 3.88667 5.53067 3.69467 5.456 3.524C5.392 3.34267 5.29067 3.18267 5.152 3.044C5.01333 2.90533 4.832 2.79333 4.608 2.708C4.36267 2.62267 4.096 2.58 3.808 2.58C3.52 2.58 3.248 2.63333 2.992 2.74C2.736 2.836 2.512 2.99067 2.32 3.204C2.128 3.40667 2.00533 3.67333 1.952 4.004C1.92 4.228 1.92 4.45733 1.952 4.692C1.99467 4.916 2.07467 5.124 2.192 5.316C2.32 5.49733 2.49067 5.652 2.704 5.78C2.928 5.908 3.20533 5.988 3.536 6.02C3.76 6.04133 3.984 6.04133 4.208 6.02C4.432 5.988 4.64 5.924 4.832 5.828C5.024 5.732 5.18933 5.59867 5.328 5.428C5.46667 5.24667 5.568 5.02267 5.632 4.756ZM2.832 11.428C2.832 11.4813 2.832 11.5347 2.832 11.588C2.84267 11.6307 2.864 11.6627 2.896 11.684C2.91733 11.7053 2.94933 11.7213 2.992 11.732C3.04533 11.732 3.09867 11.732 3.152 11.732C3.20533 11.732 3.26933 11.7267 3.344 11.716H8.192C8.34133 11.7267 8.48533 11.7373 8.624 11.748C8.74133 11.7587 8.864 11.764 8.992 11.764C9.12 11.764 9.23733 11.7533 9.344 11.732C9.45067 11.7213 9.51467 11.6947 9.536 11.652C9.55733 11.5987 9.57333 11.524 9.584 11.428C9.59467 11.3427 9.6 11.2467 9.6 11.14C9.6 11.0227 9.568 10.9213 9.504 10.836C9.42933 10.7507 9.32267 10.708 9.184 10.708C9.056 10.6973 8.93867 10.6973 8.832 10.708H4.544C4.30933 10.6867 4.08 10.6813 3.856 10.692C3.632 10.692 3.40267 10.6973 3.168 10.708C3.08267 10.708 3.01333 10.7133 2.96 10.724C2.91733 10.724 2.88533 10.772 2.864 10.868C2.84267 10.9427 2.832 11.0173 2.832 11.092C2.832 11.156 2.832 11.22 2.832 11.284C2.84267 11.3053 2.84267 11.3267 2.832 11.348C2.832 11.3693 2.832 11.396 2.832 11.428Z" fill="black"/>
<path d="M23.5749 11.572C23.5749 11.572 23.6069 11.5827 23.6709 11.604C23.7455 11.6253 23.8255 11.6627 23.9109 11.716C23.9962 11.7587 24.0762 11.8227 24.1509 11.908C24.2255 11.9827 24.2735 12.0733 24.2949 12.18C24.3482 12.5853 24.2789 12.9 24.0869 13.124C23.9589 13.2733 23.8202 13.364 23.6709 13.396C23.5215 13.428 23.4415 13.444 23.4309 13.444H15.2709C14.8335 13.444 14.4922 13.3747 14.2469 13.236C14.0015 13.108 13.8789 12.9213 13.8789 12.676V10.452C13.8682 10.3347 13.8629 10.18 13.8629 9.988C13.8629 9.78533 13.8682 9.62533 13.8789 9.508C13.9002 9.284 14.0069 9.10267 14.1989 8.964C14.3909 8.82533 14.6095 8.756 14.8549 8.756C14.9082 8.756 14.9722 8.76133 15.0469 8.772C15.1322 8.772 15.2015 8.78267 15.2549 8.804C15.3935 8.84667 15.5055 8.92133 15.5909 9.028C15.6762 9.124 15.7402 9.236 15.7829 9.364C15.8255 9.492 15.8522 9.63067 15.8629 9.78C15.8735 9.91867 15.8842 10.0467 15.8949 10.164C15.8949 10.2067 15.8949 10.2973 15.8949 10.436C15.8949 10.5747 15.8949 10.724 15.8949 10.884C15.8949 11.0333 15.8949 11.172 15.8949 11.3C15.8949 11.428 15.8949 11.508 15.8949 11.54C15.9269 11.5507 16.0122 11.5667 16.1509 11.588C16.3002 11.5987 16.5722 11.604 16.9669 11.604C17.3082 11.604 17.6122 11.5987 17.8789 11.588C18.1455 11.5773 18.2842 11.572 18.2949 11.572H23.5749ZM13.0949 7.876C12.9455 7.812 12.8389 7.68933 12.7749 7.508C12.6895 7.29467 12.6735 7.08133 12.7269 6.868C12.7909 6.65467 12.8869 6.452 13.0149 6.26C13.1429 6.068 13.2869 5.88667 13.4469 5.716C13.6175 5.54533 13.7615 5.38533 13.8789 5.236C14.0602 5.012 14.2362 4.788 14.4069 4.564C14.5775 4.34 14.7535 4.11067 14.9349 3.876C15.0629 3.69467 15.1962 3.48133 15.3349 3.236C15.4735 2.99067 15.5535 2.75067 15.5749 2.516C15.5749 2.452 15.5802 2.372 15.5909 2.276C15.6015 2.16933 15.6069 2.06267 15.6069 1.956C15.6175 1.83867 15.6282 1.732 15.6389 1.636C15.6495 1.54 15.6655 1.46 15.6869 1.396C15.7509 1.18267 15.8522 1.03867 15.9909 0.964C16.1402 0.878667 16.3642 0.836 16.6629 0.836C16.8335 0.836 17.0255 0.868 17.2389 0.932C17.4522 0.985333 17.5962 1.09733 17.6709 1.268C17.7455 1.46 17.7669 1.684 17.7349 1.94C17.7135 2.18533 17.7349 2.40933 17.7989 2.612C17.8522 2.772 17.9322 2.93733 18.0389 3.108C18.1455 3.27867 18.2575 3.44933 18.3749 3.62C18.5775 3.908 18.7802 4.22267 18.9829 4.564C19.1855 4.89467 19.3722 5.17733 19.5429 5.412C19.7135 5.636 19.8789 5.87067 20.0389 6.116C20.1989 6.35067 20.3055 6.60667 20.3589 6.884C20.4122 7.11867 20.3855 7.316 20.2789 7.476C20.1829 7.62533 20.0495 7.73733 19.8789 7.812C19.7082 7.876 19.5215 7.892 19.3189 7.86C19.1162 7.81733 18.9402 7.72133 18.7909 7.572C18.3962 7.16667 18.0389 6.73467 17.7189 6.276C17.3989 5.80667 17.0682 5.348 16.7269 4.9C16.7269 4.9 16.6789 4.95333 16.5829 5.06C16.4869 5.16667 16.3695 5.30533 16.2309 5.476C16.0922 5.64667 15.9375 5.83333 15.7669 6.036C15.5962 6.23867 15.4362 6.43067 15.2869 6.612C15.1375 6.79333 15.0042 6.95333 14.8869 7.092C14.7802 7.22 14.7162 7.3 14.6949 7.332C14.5775 7.47067 14.4442 7.59333 14.2949 7.7C14.1455 7.80667 13.9802 7.88133 13.7989 7.924C13.6815 7.94533 13.5589 7.956 13.4309 7.956C13.3135 7.956 13.2015 7.92933 13.0949 7.876ZM24.0229 7.588C24.0229 7.588 24.0175 7.62533 24.0069 7.7C23.9962 7.77467 23.9749 7.86 23.9429 7.956C23.9109 8.052 23.8629 8.15333 23.7989 8.26C23.7349 8.356 23.6495 8.436 23.5429 8.5C23.3935 8.58533 23.2442 8.628 23.0949 8.628C22.9135 8.628 22.7375 8.56933 22.5669 8.452C22.4495 8.36667 22.3589 8.25467 22.2949 8.116C22.2095 7.956 22.1509 7.78 22.1189 7.588C22.0975 7.396 22.0815 7.19867 22.0709 6.996C22.0709 6.79333 22.0762 6.596 22.0869 6.404C22.0975 6.20133 22.1029 6.00933 22.1029 5.828C22.1029 5.604 22.1029 5.34267 22.1029 5.044C22.1135 4.74533 22.1189 4.44133 22.1189 4.132C22.1189 3.82267 22.1189 3.524 22.1189 3.236C22.1189 2.93733 22.1189 2.676 22.1189 2.452V2.244C22.1082 2.12667 22.1029 2.004 22.1029 1.876C22.1135 1.73733 22.1349 1.60933 22.1669 1.492C22.2095 1.332 22.3055 1.16133 22.4549 0.98C22.5402 0.873333 22.6575 0.798667 22.8069 0.756C22.9669 0.702667 23.1375 0.686667 23.3189 0.708C23.6389 0.761333 23.8522 0.9 23.9589 1.124C24.0229 1.26267 24.0495 1.43333 24.0389 1.636C24.0389 1.83867 24.0335 1.96133 24.0229 2.004V7.588Z" fill="black"/>
<path d="M40.5515 3.46C40.5728 3.57733 40.5888 3.68933 40.5995 3.796C40.6208 3.90267 40.6208 4.02 40.5995 4.148C40.5995 4.26533 40.5942 4.37733 40.5835 4.484C40.5835 4.58 40.5728 4.68667 40.5515 4.804C40.4982 5.20933 40.3702 5.572 40.1675 5.892C39.9755 6.212 39.6822 6.484 39.2875 6.708C38.9248 6.92133 38.4875 7.08667 37.9755 7.204C37.4635 7.32133 36.8875 7.38 36.2475 7.38H35.1595C34.9568 7.38 34.7542 7.38 34.5515 7.38C34.3595 7.38 34.1622 7.36933 33.9595 7.348C33.7462 7.33733 33.5382 7.316 33.3355 7.284C33.1435 7.252 32.9515 7.21467 32.7595 7.172C32.5782 7.14 32.4022 7.09733 32.2315 7.044C32.0608 6.98 31.8955 6.90533 31.7355 6.82C31.4582 6.63867 31.2182 6.452 31.0155 6.26C30.8235 6.05733 30.6795 5.828 30.5835 5.572C30.4662 5.32667 30.3808 5.076 30.3275 4.82C30.2742 4.564 30.2475 4.292 30.2475 4.004C30.2475 3.72667 30.2742 3.46533 30.3275 3.22C30.3808 2.97467 30.4662 2.756 30.5835 2.564C30.7008 2.35067 30.8555 2.15333 31.0475 1.972C31.2395 1.78 31.4635 1.59867 31.7195 1.428C31.8368 1.34267 31.9648 1.27333 32.1035 1.22C32.2528 1.16667 32.4235 1.11333 32.6155 1.06C32.9675 0.964 33.3568 0.873333 33.7835 0.788C33.9968 0.745333 34.1995 0.718667 34.3915 0.708C34.5942 0.686667 34.7968 0.670667 34.9995 0.66C35.3835 0.628 35.7142 0.628 35.9915 0.66C36.2475 0.670667 36.4768 0.686667 36.6795 0.708C36.8928 0.718667 37.1062 0.745333 37.3195 0.788C37.5008 0.830666 37.6982 0.884 37.9115 0.948C38.1355 1.00133 38.3542 1.07067 38.5675 1.156C38.6635 1.19867 38.7648 1.24667 38.8715 1.3C38.9782 1.35333 39.0902 1.41733 39.2075 1.492C39.5062 1.67333 39.7142 1.844 39.8315 2.004C39.9275 2.132 40.0128 2.26 40.0875 2.388C40.1728 2.50533 40.2422 2.62267 40.2955 2.74C40.3595 2.84667 40.4128 2.964 40.4555 3.092C40.4982 3.22 40.5302 3.34267 40.5515 3.46ZM30.9035 10.404C30.6582 10.404 30.4235 10.3667 30.1995 10.292C29.9862 10.2707 29.8155 10.1427 29.6875 9.908C29.6128 9.82267 29.5595 9.732 29.5275 9.636C29.5062 9.54 29.4955 9.444 29.4955 9.348C29.4955 9.13467 29.5808 8.94267 29.7515 8.772C29.7835 8.74 29.8262 8.708 29.8795 8.676C29.9328 8.644 29.9968 8.62267 30.0715 8.612C30.1248 8.56933 30.1782 8.548 30.2315 8.548C30.2955 8.53733 30.3648 8.52133 30.4395 8.5C30.4928 8.47867 30.5408 8.468 30.5835 8.468C30.6262 8.468 30.6742 8.468 30.7275 8.468H40.1995C40.3062 8.468 40.3968 8.47867 40.4715 8.5C40.5568 8.51067 40.6475 8.532 40.7435 8.564C40.9142 8.628 41.0582 8.72933 41.1755 8.868C41.2395 8.94267 41.2768 9.02267 41.2875 9.108C41.3088 9.18267 41.3195 9.27867 41.3195 9.396C41.3195 9.69467 41.2342 9.892 41.0635 9.988C40.9782 10.0733 40.8768 10.1427 40.7595 10.196C40.6528 10.2387 40.5408 10.2707 40.4235 10.292C40.1995 10.3667 39.9435 10.404 39.6555 10.404H36.5195C36.5302 10.4467 36.5355 10.5053 36.5355 10.58V11.956C36.5355 12.052 36.5355 12.1427 36.5355 12.228C36.5355 12.3133 36.5248 12.3827 36.5035 12.436C36.4822 12.5533 36.4608 12.66 36.4395 12.756C36.4182 12.852 36.3808 12.9533 36.3275 13.06C36.2528 13.2413 36.1248 13.4013 35.9435 13.54C35.8582 13.5933 35.7675 13.6253 35.6715 13.636C35.5862 13.6573 35.4902 13.6733 35.3835 13.684C35.2662 13.684 35.1595 13.6733 35.0635 13.652C34.9782 13.6307 34.8928 13.604 34.8075 13.572C34.6582 13.476 34.5462 13.3533 34.4715 13.204C34.4395 13.1187 34.4128 13.0333 34.3915 12.948C34.3808 12.8627 34.3702 12.788 34.3595 12.724C34.3595 12.66 34.3542 12.5907 34.3435 12.516C34.3328 12.4413 34.3275 12.3773 34.3275 12.324C34.3488 12.26 34.3595 12.196 34.3595 12.132C34.3595 12.0573 34.3595 11.9987 34.3595 11.956C34.3382 11.828 34.3275 11.6573 34.3275 11.444C34.3275 11.22 34.3275 11.028 34.3275 10.868V10.404H30.9035ZM38.5195 4.292C38.5195 4.04667 38.4768 3.83867 38.3915 3.668C38.3382 3.56133 38.2688 3.46533 38.1835 3.38C38.1088 3.29467 38.0128 3.22 37.8955 3.156C37.7782 3.07067 37.6288 3.012 37.4475 2.98C37.2662 2.93733 37.0795 2.916 36.8875 2.916C36.5675 2.87333 36.1675 2.84133 35.6875 2.82C35.4528 2.79867 35.2235 2.79333 34.9995 2.804C34.7755 2.81467 34.5515 2.82533 34.3275 2.836C34.1035 2.85733 33.8902 2.88933 33.6875 2.932C33.4955 2.97467 33.3142 3.044 33.1435 3.14C32.7808 3.27867 32.5728 3.51867 32.5195 3.86C32.4662 4.084 32.4662 4.27067 32.5195 4.42C32.5408 4.52667 32.5728 4.62267 32.6155 4.708C32.6582 4.79333 32.7275 4.87333 32.8235 4.948C32.9622 5.08667 33.1648 5.19867 33.4315 5.284C33.6662 5.412 34.0022 5.476 34.4395 5.476C34.5995 5.49733 34.7595 5.51333 34.9195 5.524C35.0902 5.53467 35.2768 5.55067 35.4795 5.572H36.6315C37.0155 5.52933 37.3675 5.476 37.6875 5.412C38.0182 5.27333 38.2528 5.11867 38.3915 4.948C38.4342 4.83067 38.4608 4.724 38.4715 4.628C38.4822 4.52133 38.4982 4.40933 38.5195 4.292Z" fill="black"/>
<path d="M52.8123 12.388C52.9829 12.4093 53.1323 12.452 53.2603 12.516C53.3883 12.58 53.4789 12.6973 53.5322 12.868C53.6602 13.252 53.5216 13.524 53.1162 13.684C52.9882 13.7373 52.8603 13.7693 52.7323 13.78C52.6043 13.7907 52.4816 13.796 52.3643 13.796H44.9243C44.7109 13.796 44.4869 13.7907 44.2523 13.78C44.0283 13.78 43.7989 13.7747 43.5643 13.764C43.3403 13.7533 43.1536 13.6733 43.0042 13.524C42.8549 13.3747 42.7696 13.1773 42.7482 12.932L42.7002 11.812C42.6896 11.6947 42.6896 11.556 42.7002 11.396C42.7109 11.236 42.7642 11.1027 42.8602 10.996C43.0096 10.836 43.2069 10.7347 43.4523 10.692C43.7083 10.6493 43.9536 10.628 44.1883 10.628C44.3376 10.628 44.5829 10.628 44.9243 10.628C45.2763 10.628 45.7509 10.6333 46.3483 10.644C46.9456 10.644 47.6816 10.644 48.5563 10.644C49.4416 10.644 50.4923 10.644 51.7083 10.644V10.068H43.8363C43.7296 10.068 43.6336 10.068 43.5482 10.068C43.4629 10.068 43.3776 10.0573 43.2923 10.036C43.1963 10.0147 43.1109 9.99333 43.0363 9.972C42.9616 9.95067 42.8976 9.89733 42.8442 9.812C42.6949 9.588 42.6576 9.35867 42.7323 9.124C42.7643 9.03867 42.8123 8.97467 42.8763 8.932C42.9403 8.87867 43.0149 8.836 43.1003 8.804C43.1856 8.772 43.2656 8.75067 43.3403 8.74C43.4256 8.72933 43.5003 8.71867 43.5643 8.708C43.7243 8.676 43.8896 8.66 44.0602 8.66C44.2096 8.66 44.3696 8.66 44.5402 8.66C44.7216 8.66 44.9349 8.66533 45.1803 8.676C45.4256 8.676 45.7083 8.676 46.0283 8.676C46.3589 8.676 46.7429 8.676 47.1803 8.676C47.1803 8.52667 47.1856 8.38267 47.1963 8.244C47.2069 8.09467 47.2122 7.93467 47.2122 7.764C46.9669 7.764 46.7483 7.764 46.5563 7.764C46.3749 7.764 46.1936 7.764 46.0122 7.764C45.8416 7.764 45.6656 7.764 45.4842 7.764C45.3029 7.75333 45.1003 7.74267 44.8763 7.732C44.7803 7.732 44.6416 7.72667 44.4603 7.716C44.2789 7.70533 44.0869 7.7 43.8843 7.7C43.6816 7.68933 43.4896 7.684 43.3083 7.684C43.1376 7.67333 43.0149 7.668 42.9403 7.668C42.7696 7.64667 42.6309 7.62533 42.5243 7.604C42.4283 7.58267 42.3109 7.508 42.1722 7.38C42.0976 7.316 42.0442 7.252 42.0122 7.188C41.9802 7.11333 41.9642 7.01733 41.9642 6.9C41.9642 6.66533 42.0336 6.47867 42.1722 6.34C42.2469 6.25467 42.3482 6.19067 42.4762 6.148C42.6042 6.10533 42.7269 6.07867 42.8442 6.068C42.9616 6.04667 43.0629 6.036 43.1483 6.036C43.2443 6.036 43.2976 6.036 43.3083 6.036H52.4603C52.6203 6.036 52.7803 6.036 52.9403 6.036C53.1003 6.036 53.2549 6.04133 53.4043 6.052C53.5536 6.06267 53.6976 6.084 53.8363 6.116C53.9856 6.13733 54.1189 6.20133 54.2363 6.308C54.3536 6.39333 54.4176 6.49467 54.4282 6.612C54.4496 6.71867 54.4603 6.836 54.4603 6.964C54.4603 7.124 54.4122 7.24667 54.3162 7.332C54.2309 7.41733 54.1082 7.48667 53.9482 7.54C53.7349 7.62533 53.4949 7.67333 53.2283 7.684C52.9723 7.684 52.7376 7.68933 52.5243 7.7C51.9909 7.72133 51.4736 7.73733 50.9723 7.748C50.4816 7.75867 49.9642 7.764 49.4202 7.764C49.4309 7.91333 49.4309 8.068 49.4202 8.228C49.4096 8.37733 49.4043 8.52667 49.4043 8.676H51.8683C52.4123 8.676 52.8282 8.76133 53.1162 8.932C53.4042 9.092 53.5483 9.35867 53.5483 9.732V10.868C53.5483 11.0173 53.5109 11.1667 53.4363 11.316C53.3723 11.4547 53.2549 11.572 53.0843 11.668C52.9456 11.7533 52.8069 11.8013 52.6683 11.812C52.5296 11.812 52.3909 11.812 52.2523 11.812H44.6683V12.388H52.8123ZM42.7643 2.964C42.7643 2.52667 42.8869 2.164 43.1323 1.876C43.3883 1.588 43.7456 1.364 44.2043 1.204C44.6736 1.03333 45.2443 0.916 45.9163 0.852C46.5883 0.777333 47.3509 0.74 48.2043 0.74C49.0149 0.74 49.7562 0.766667 50.4282 0.82C51.1002 0.862667 51.6763 0.964 52.1562 1.124C52.6363 1.284 53.0043 1.51333 53.2603 1.812C53.5269 2.1 53.6603 2.484 53.6603 2.964C53.6603 3.444 53.5482 3.83333 53.3242 4.132C53.1002 4.42 52.7589 4.644 52.3003 4.804C51.8416 4.95333 51.2709 5.05467 50.5882 5.108C49.9056 5.16133 49.1109 5.188 48.2043 5.188C47.4469 5.188 46.7376 5.16133 46.0763 5.108C45.4256 5.05467 44.8496 4.95333 44.3483 4.804C43.8576 4.644 43.4682 4.42 43.1802 4.132C42.9029 3.83333 42.7643 3.444 42.7643 2.964ZM51.4683 2.964C51.4683 2.79333 51.3669 2.66533 51.1642 2.58C50.9722 2.484 50.7216 2.41467 50.4123 2.372C50.1029 2.31867 49.7509 2.28667 49.3563 2.276C48.9723 2.26533 48.5883 2.26 48.2043 2.26C47.8203 2.26 47.4416 2.26533 47.0682 2.276C46.6949 2.28667 46.3589 2.31867 46.0602 2.372C45.7616 2.41467 45.5162 2.484 45.3242 2.58C45.1429 2.66533 45.0522 2.79333 45.0522 2.964C45.0522 3.11333 45.1429 3.23067 45.3242 3.316C45.5056 3.40133 45.7456 3.46533 46.0443 3.508C46.3429 3.54 46.6736 3.56133 47.0363 3.572C47.4096 3.58267 47.7882 3.588 48.1722 3.588C48.5562 3.588 48.9402 3.59333 49.3242 3.604C49.7189 3.604 50.0763 3.59333 50.3963 3.572C50.7163 3.54 50.9722 3.48133 51.1642 3.396C51.3669 3.3 51.4683 3.156 51.4683 2.964Z" fill="black"/>
<path d="M64.8169 3.988C65.0195 4.07333 65.2169 4.18 65.4089 4.308C65.6009 4.436 65.7822 4.56933 65.9529 4.708C66.0382 4.78267 66.0969 4.87867 66.1289 4.996C66.1609 5.11333 66.1609 5.23067 66.1289 5.348C66.1075 5.45467 66.0542 5.556 65.9689 5.652C65.8942 5.73733 65.7929 5.79067 65.6649 5.812C65.3235 5.88667 64.9662 5.88667 64.5929 5.812C64.2302 5.72667 63.8942 5.61467 63.5849 5.476C63.2969 5.348 63.0302 5.22533 62.7849 5.108C62.5395 4.99067 62.2942 4.86267 62.0489 4.724C61.9742 4.68133 61.8729 4.628 61.7449 4.564C61.6275 4.5 61.5102 4.436 61.3929 4.372C61.2542 4.29733 61.1049 4.22267 60.9449 4.148C60.7635 4.23333 60.5875 4.31333 60.4169 4.388C60.2675 4.452 60.1182 4.516 59.9689 4.58C59.8302 4.644 59.7182 4.69733 59.6329 4.74C59.3555 4.88933 59.0995 5.01733 58.8649 5.124C58.6302 5.22 58.3742 5.332 58.0969 5.46C57.8835 5.54533 57.6649 5.64667 57.4409 5.764C57.2275 5.87067 56.9982 5.91333 56.7529 5.892C56.5609 5.88133 56.3742 5.83333 56.1929 5.748C56.0115 5.66267 55.8995 5.51333 55.8569 5.3C55.8462 5.19333 55.8569 5.07067 55.8889 4.932C55.9315 4.78267 56.0009 4.65467 56.0969 4.548C56.2035 4.44133 56.3315 4.34533 56.4809 4.26L57.5849 3.716C57.7662 3.62 57.9262 3.54 58.0649 3.476C58.2035 3.412 58.3689 3.33733 58.5609 3.252C58.7422 3.156 58.9502 3.04933 59.1849 2.932C59.4302 2.81467 59.6595 2.71867 59.8729 2.644V2.148H58.1769C58.0062 2.148 57.8569 2.15333 57.7289 2.164C57.6115 2.164 57.4729 2.15333 57.3129 2.132C57.1955 2.11067 57.0675 2.1 56.9289 2.1C56.7902 2.1 56.6622 2.07333 56.5449 2.02C56.4275 1.956 56.3315 1.85467 56.2569 1.716C56.1929 1.60933 56.1555 1.492 56.1449 1.364C56.1342 1.22533 56.1555 1.09733 56.2089 0.98C56.2942 0.809334 56.4329 0.681334 56.6249 0.596C56.8169 0.510667 57.0142 0.468 57.2169 0.468H57.5849C57.7555 0.478666 57.8782 0.484 57.9529 0.484C58.0382 0.473333 58.1662 0.468 58.3369 0.468H63.8729C64.0435 0.468 64.2409 0.462667 64.4649 0.452C64.6889 0.441334 64.9022 0.457333 65.1049 0.499999C65.3182 0.532 65.5049 0.601333 65.6649 0.708C65.8355 0.814666 65.9475 0.98 66.0009 1.204C66.0649 1.46 66.0169 1.65733 65.8569 1.796C65.7075 1.93467 65.5102 2.036 65.2649 2.1C65.0302 2.15333 64.7795 2.18533 64.5129 2.196C64.2462 2.196 64.0275 2.19067 63.8569 2.18C63.6862 2.16933 63.5049 2.164 63.3129 2.164C63.1315 2.164 62.9555 2.164 62.7849 2.164C62.5929 2.164 62.4009 2.16933 62.2089 2.18V2.676C62.2729 2.708 62.3369 2.74533 62.4009 2.788C62.4755 2.82 62.5502 2.84667 62.6249 2.868C62.6889 2.9 62.7475 2.932 62.8009 2.964C62.8649 2.996 62.9289 3.028 62.9929 3.06C63.0995 3.11333 63.2009 3.16667 63.2969 3.22C63.4035 3.26267 63.5102 3.31067 63.6169 3.364C63.8195 3.46 64.0169 3.56133 64.2089 3.668C64.4115 3.77467 64.6142 3.88133 64.8169 3.988ZM56.4009 6.372C56.6675 6.38267 56.9929 6.388 57.3769 6.388C57.7609 6.388 58.1609 6.388 58.5769 6.388C58.9929 6.388 59.4035 6.388 59.8089 6.388C60.2142 6.37733 60.5715 6.372 60.8809 6.372C61.5529 6.372 62.2675 6.36667 63.0249 6.356C63.7822 6.34533 64.5235 6.35067 65.2489 6.372H65.3289C65.5102 6.372 65.7022 6.36667 65.9049 6.356C66.1182 6.34533 66.3102 6.36133 66.4809 6.404C66.6622 6.436 66.8062 6.52133 66.9129 6.66C67.0302 6.788 67.0889 6.996 67.0889 7.284C67.0889 7.49733 66.9822 7.7 66.7689 7.892C66.5982 8.04133 66.3902 8.12667 66.1449 8.148C65.9102 8.15867 65.6862 8.15867 65.4729 8.148C65.4195 8.13733 65.3715 8.132 65.3289 8.132C65.2862 8.132 65.2382 8.132 65.1849 8.132H56.3689C56.3582 8.132 56.3102 8.132 56.2249 8.132C56.1395 8.132 56.0382 8.12133 55.9209 8.1C55.8142 8.07867 55.7022 8.052 55.5849 8.02C55.4675 7.97733 55.3715 7.91333 55.2969 7.828C55.1689 7.68933 55.1049 7.524 55.1049 7.332C55.1049 7.21467 55.1209 7.124 55.1529 7.06C55.1955 6.98533 55.2489 6.916 55.3129 6.852C55.4515 6.724 55.5955 6.61733 55.7449 6.532C55.8942 6.44667 56.0489 6.39333 56.2089 6.372C56.2409 6.372 56.2729 6.37733 56.3049 6.388C56.3369 6.388 56.3689 6.38267 56.4009 6.372ZM55.7449 11.124C55.7449 10.644 55.8835 10.2547 56.1609 9.956C56.4382 9.64667 56.8115 9.40667 57.2809 9.236C57.7502 9.05467 58.2995 8.932 58.9289 8.868C59.5689 8.804 60.2515 8.772 60.9769 8.772C61.7022 8.772 62.3795 8.79867 63.0089 8.852C63.6489 8.89467 64.2035 8.996 64.6729 9.156C65.1529 9.316 65.5315 9.556 65.8089 9.876C66.0862 10.1853 66.2249 10.6013 66.2249 11.124C66.2249 11.6467 66.0862 12.068 65.8089 12.388C65.5315 12.6973 65.1529 12.932 64.6729 13.092C64.2035 13.2627 63.6489 13.3693 63.0089 13.412C62.3795 13.4653 61.7022 13.492 60.9769 13.492C60.2515 13.492 59.5689 13.4653 58.9289 13.412C58.2995 13.3693 57.7502 13.2627 57.2809 13.092C56.8115 12.932 56.4382 12.6973 56.1609 12.388C55.8835 12.068 55.7449 11.6467 55.7449 11.124ZM64.1129 11.124C64.1129 10.9427 64.0169 10.804 63.8249 10.708C63.6435 10.612 63.3982 10.5427 63.0889 10.5C62.7902 10.4573 62.4542 10.436 62.0809 10.436C61.7075 10.4253 61.3395 10.42 60.9769 10.42C60.6142 10.42 60.2515 10.4253 59.8889 10.436C59.5262 10.436 59.2009 10.4573 58.9129 10.5C58.6249 10.5427 58.3902 10.612 58.2089 10.708C58.0382 10.804 57.9529 10.9427 57.9529 11.124C57.9529 11.284 58.0382 11.412 58.2089 11.508C58.3902 11.604 58.6249 11.6787 58.9129 11.732C59.2009 11.7747 59.5262 11.8067 59.8889 11.828C60.2515 11.8387 60.6142 11.844 60.9769 11.844C61.3395 11.844 61.7075 11.8493 62.0809 11.86C62.4542 11.86 62.7902 11.844 63.0889 11.812C63.3982 11.7693 63.6435 11.7 63.8249 11.604C64.0169 11.4973 64.1129 11.3373 64.1129 11.124Z" fill="black"/>
<path d="M68.3379 13.668C68.1885 13.6467 68.0712 13.5613 67.9859 13.412C67.9325 13.3373 67.9059 13.236 67.9059 13.108C67.9165 12.9907 67.9379 12.868 67.9699 12.74C68.0125 12.6013 68.0605 12.468 68.1139 12.34C68.1672 12.212 68.2259 12.1 68.2899 12.004C68.3539 11.908 68.4445 11.7747 68.5619 11.604C68.6792 11.4333 68.8072 11.2627 68.9459 11.092C69.0845 10.9107 69.2232 10.7507 69.3619 10.612C69.5112 10.4627 69.6445 10.372 69.7619 10.34C69.9005 10.308 70.0392 10.324 70.1779 10.388C70.3272 10.4413 70.4499 10.5213 70.5459 10.628C70.6525 10.724 70.7272 10.8413 70.7699 10.98C70.8232 11.108 70.8232 11.2307 70.7699 11.348C70.7272 11.444 70.6419 11.5613 70.5139 11.7C70.3859 11.8387 70.2472 11.9827 70.0979 12.132C69.9485 12.2707 69.8045 12.4093 69.6659 12.548C69.5272 12.676 69.4259 12.7773 69.3619 12.852C69.3085 12.9267 69.2392 13.012 69.1539 13.108C69.0792 13.204 68.9939 13.2947 68.8979 13.38C68.8125 13.476 68.7219 13.5507 68.6259 13.604C68.5299 13.6573 68.4339 13.6787 68.3379 13.668Z" fill="black"/>
<path d="M80.0646 0.66C80.2033 0.66 80.3366 0.665334 80.4646 0.676C80.5926 0.686667 80.7206 0.702667 80.8486 0.724C81.254 0.788 81.6113 0.974667 81.9206 1.284C82.1766 1.56133 82.3846 1.88133 82.5446 2.244C82.7153 2.596 82.8486 2.96933 82.9446 3.364C83.0406 3.75867 83.11 4.164 83.1526 4.58C83.1953 4.98533 83.2273 5.38 83.2486 5.764C83.27 6.25467 83.2753 6.74533 83.2646 7.236C83.254 7.72667 83.222 8.212 83.1686 8.692C83.1153 9.19333 83.0353 9.7 82.9286 10.212C82.8326 10.7133 82.6513 11.1667 82.3846 11.572C82.1606 11.9133 81.8833 12.196 81.5526 12.42C81.222 12.6333 80.8753 12.7773 80.5126 12.852C80.182 12.916 79.846 12.9267 79.5046 12.884C79.1633 12.8413 78.838 12.7293 78.5286 12.548C78.2406 12.3773 77.9953 12.164 77.7926 11.908C77.6006 11.652 77.43 11.3533 77.2806 11.012C77.0673 10.5 76.9446 9.972 76.9126 9.428C76.87 8.98 76.838 8.532 76.8166 8.084C76.806 7.636 76.8006 7.188 76.8006 6.74C76.8006 6.43067 76.8006 6.132 76.8006 5.844C76.8113 5.54533 76.8326 5.24667 76.8646 4.948C76.886 4.70267 76.9126 4.46267 76.9446 4.228C76.9766 3.98267 77.014 3.74267 77.0566 3.508C77.0993 3.316 77.1366 3.13467 77.1686 2.964C77.2006 2.79333 77.2593 2.61733 77.3446 2.436C77.43 2.25467 77.5206 2.084 77.6166 1.924C77.7233 1.764 77.846 1.62 77.9846 1.492C78.2193 1.25733 78.4806 1.076 78.7686 0.948C79.0566 0.82 79.3553 0.734667 79.6646 0.692C79.7286 0.681333 79.7926 0.676 79.8566 0.676C79.9313 0.676 80.0006 0.670667 80.0646 0.66ZM85.8086 7.652C85.6593 7.63067 85.462 7.62 85.2166 7.62C84.9713 7.60933 84.774 7.59333 84.6246 7.572C84.2513 7.55067 83.9846 7.412 83.8246 7.156C83.6646 6.9 83.6433 6.56933 83.7606 6.164C83.782 6.07867 83.8246 5.988 83.8886 5.892C83.9633 5.796 84.0326 5.72133 84.0966 5.668C84.246 5.56133 84.3953 5.492 84.5446 5.46C84.7153 5.43867 84.918 5.43333 85.1526 5.444C85.398 5.45467 85.6113 5.44933 85.7926 5.428H85.8406V5.364C85.8406 5.236 85.8406 5.14 85.8406 5.076C85.8513 5.012 85.8566 4.95333 85.8566 4.9C85.8566 4.84667 85.8513 4.788 85.8406 4.724C85.8406 4.66 85.8406 4.55867 85.8406 4.42C85.8406 4.14267 85.8353 3.87067 85.8246 3.604C85.8246 3.32667 85.83 3.05467 85.8406 2.788V2.564C85.8406 2.42533 85.8406 2.276 85.8406 2.116C85.8513 1.94533 85.8673 1.78 85.8886 1.62C85.91 1.44933 85.9473 1.29467 86.0006 1.156C86.054 1.00667 86.1286 0.884 86.2246 0.788C86.3846 0.649333 86.5553 0.58 86.7366 0.58H86.7686C87.0246 0.590667 87.2273 0.670667 87.3766 0.82C87.5366 0.958667 87.654 1.12933 87.7286 1.332C87.814 1.53467 87.8673 1.748 87.8886 1.972C87.91 2.18533 87.9206 2.37733 87.9206 2.548V12.148C87.9206 12.1587 87.9206 12.212 87.9206 12.308C87.9206 12.3933 87.91 12.5 87.8886 12.628C87.8673 12.756 87.8353 12.884 87.7926 13.012C87.75 13.14 87.6806 13.2467 87.5846 13.332C87.51 13.4067 87.4033 13.4653 87.2646 13.508C87.126 13.5507 86.998 13.572 86.8806 13.572C86.6246 13.572 86.422 13.4867 86.2726 13.316C86.134 13.1667 86.0486 13.012 86.0166 12.852C85.9846 12.692 85.958 12.5213 85.9366 12.34C85.9366 12.308 85.9313 12.276 85.9206 12.244C85.9206 12.212 85.9206 12.1747 85.9206 12.132C85.8993 11.9613 85.8886 11.78 85.8886 11.588C85.8886 11.396 85.8833 11.204 85.8726 11.012C85.862 10.8947 85.8566 10.7827 85.8566 10.676C85.8566 10.5587 85.8566 10.4413 85.8566 10.324V9.956C85.8566 9.84933 85.8566 9.71067 85.8566 9.54C85.8566 9.35867 85.8513 9.172 85.8406 8.98C85.8406 8.788 85.8406 8.60667 85.8406 8.436C85.8406 8.26533 85.8406 8.12133 85.8406 8.004C85.8406 7.95067 85.8406 7.892 85.8406 7.828C85.8406 7.764 85.83 7.70533 85.8086 7.652ZM80.0166 10.724C80.2193 10.724 80.4166 10.66 80.6086 10.532C80.79 10.404 80.918 10.2333 80.9926 10.02C81.0673 9.80667 81.1313 9.572 81.1846 9.316C81.27 8.82533 81.318 8.30267 81.3286 7.748C81.3393 7.19333 81.334 6.66 81.3126 6.148C81.3126 5.94533 81.3073 5.732 81.2966 5.508C81.286 5.27333 81.2646 5.044 81.2326 4.82C81.2113 4.596 81.174 4.38267 81.1206 4.18C81.0673 3.96667 80.9926 3.78 80.8966 3.62C80.79 3.43867 80.662 3.3 80.5126 3.204C80.3633 3.108 80.2033 3.07067 80.0326 3.092C79.8513 3.11333 79.686 3.17733 79.5366 3.284C79.3873 3.39067 79.2646 3.55067 79.1686 3.764L79.0246 4.1C78.9606 4.30267 78.9126 4.516 78.8806 4.74C78.8486 4.95333 78.822 5.16667 78.8006 5.38C78.7793 5.59333 78.7633 5.812 78.7526 6.036C78.742 6.26 78.7366 6.47867 78.7366 6.692C78.7473 6.90533 78.742 7.11333 78.7206 7.316C78.71 7.51867 78.7153 7.72667 78.7366 7.94C78.758 8.21733 78.7846 8.516 78.8166 8.836C78.8593 9.156 78.9233 9.46 79.0086 9.748C79.094 10.0253 79.2166 10.26 79.3766 10.452C79.5366 10.6333 79.75 10.724 80.0166 10.724Z" fill="black"/>
<path d="M97.1339 5.78C97.3152 5.85467 97.4325 5.96667 97.4859 6.116C97.5392 6.25467 97.5712 6.41467 97.5819 6.596C97.5819 6.73467 97.5499 6.87333 97.4859 7.012C97.4325 7.15067 97.3525 7.26267 97.2459 7.348C97.1605 7.42267 97.0432 7.476 96.8939 7.508C96.7552 7.52933 96.6325 7.54 96.5259 7.54C96.3872 7.52933 96.2485 7.52933 96.1099 7.54C95.9712 7.54 95.8272 7.54533 95.6779 7.556C95.4005 7.57733 95.1232 7.58267 94.8459 7.572C94.5792 7.56133 94.3072 7.556 94.0299 7.556C93.5072 7.556 92.9899 7.55067 92.4779 7.54C91.9659 7.51867 91.4432 7.49733 90.9099 7.476C90.7072 7.46533 90.4832 7.43867 90.2379 7.396C90.0032 7.35333 89.8219 7.236 89.6939 7.044C89.5979 6.90533 89.5285 6.72933 89.4859 6.516C89.4432 6.292 89.4165 6.07867 89.4059 5.876C89.3952 5.67333 89.3899 5.49733 89.3899 5.348C89.4005 5.188 89.4059 5.10267 89.4059 5.092L89.4379 2.324C89.4379 2.292 89.4379 2.23333 89.4379 2.148C89.4379 2.052 89.4432 1.956 89.4539 1.86C89.4645 1.75333 89.4805 1.652 89.5019 1.556C89.5232 1.44933 89.5552 1.364 89.5979 1.3C89.6619 1.204 89.7525 1.10267 89.8699 0.996C89.9979 0.889333 90.1419 0.82 90.3019 0.788C90.5685 0.745333 90.8352 0.724 91.1019 0.724C91.3685 0.713333 91.6352 0.713333 91.9019 0.724C92.0299 0.724 92.1579 0.729334 92.2859 0.74C92.4245 0.750667 92.5525 0.745333 92.6699 0.724C92.8512 0.713333 93.0379 0.713333 93.2299 0.724C93.3152 0.724 93.3952 0.724 93.4699 0.724C93.5445 0.713333 93.6245 0.713333 93.7099 0.724C93.8805 0.734667 94.0512 0.734667 94.2219 0.724C94.3925 0.713333 94.5632 0.713333 94.7339 0.724C95.0112 0.745333 95.2832 0.761333 95.5499 0.772C95.8165 0.772 96.0885 0.782667 96.3659 0.804C96.5365 0.825333 96.7072 0.884 96.8779 0.98C97.0592 1.06533 97.1925 1.18267 97.2779 1.332C97.5232 1.716 97.5125 2.09467 97.2459 2.468C97.1285 2.64933 96.9792 2.76133 96.7979 2.804C96.6165 2.836 96.4352 2.852 96.2539 2.852L94.7019 2.804V5.556C94.9792 5.57733 95.2299 5.59867 95.4539 5.62C95.6885 5.63067 95.9499 5.64667 96.2379 5.668C96.3979 5.67867 96.5525 5.68933 96.7019 5.7C96.8512 5.7 96.9952 5.72667 97.1339 5.78ZM90.9419 11.94C90.9419 11.4493 91.1925 11.06 91.6939 10.772H91.5979C91.3739 10.7933 91.1712 10.7827 90.9899 10.74C90.8405 10.708 90.6965 10.6493 90.5579 10.564C90.4192 10.4787 90.3392 10.3453 90.3179 10.164C90.2965 9.98267 90.3339 9.812 90.4299 9.652C90.5259 9.48133 90.6805 9.38533 90.8939 9.364C90.9579 9.35333 91.0219 9.348 91.0859 9.348C91.1499 9.348 91.2245 9.348 91.3099 9.348H94.8939C94.8939 9.22 94.8992 9.092 94.9099 8.964C94.9205 8.836 94.9472 8.71867 94.9899 8.612C95.0325 8.49467 95.0912 8.39333 95.1659 8.308C95.2512 8.212 95.3632 8.14267 95.5019 8.1C95.6725 8.036 95.8325 8.02 95.9819 8.052C96.1419 8.084 96.2752 8.14267 96.3819 8.228C96.4992 8.30267 96.5952 8.404 96.6699 8.532C96.7445 8.66 96.7925 8.788 96.8139 8.916C96.8459 9.076 96.8512 9.22 96.8299 9.348H99.3259C99.4859 9.348 99.6619 9.33733 99.8539 9.316C100.046 9.29467 100.233 9.29467 100.414 9.316C100.606 9.32667 100.771 9.36933 100.91 9.444C101.049 9.51867 101.145 9.65733 101.198 9.86C101.241 10.0413 101.23 10.1907 101.166 10.308C101.102 10.4253 101.006 10.5213 100.878 10.596C100.761 10.66 100.617 10.708 100.446 10.74C100.286 10.7613 100.126 10.7773 99.9659 10.788C100.169 10.9267 100.323 11.092 100.43 11.284C100.537 11.4653 100.59 11.684 100.59 11.94C100.59 12.3347 100.462 12.6493 100.206 12.884C99.9605 13.1187 99.6192 13.3 99.1819 13.428C98.7445 13.556 98.2325 13.6413 97.6459 13.684C97.0592 13.7267 96.4352 13.748 95.7739 13.748C95.1125 13.748 94.4885 13.7267 93.9019 13.684C93.3152 13.6413 92.8032 13.556 92.3659 13.428C91.9285 13.3 91.5819 13.1187 91.3259 12.884C91.0699 12.6493 90.9419 12.3347 90.9419 11.94ZM100.878 6.9C100.867 7.01733 100.851 7.14 100.83 7.268C100.809 7.38533 100.766 7.50267 100.702 7.62C100.627 7.75867 100.537 7.86 100.43 7.924C100.281 8.04133 100.105 8.1 99.9019 8.1C99.7419 8.1 99.5925 8.05733 99.4539 7.972C99.3045 7.88667 99.1872 7.75333 99.1019 7.572C99.0165 7.39067 98.9739 7.22533 98.9739 7.076V5.028C98.7925 5.028 98.6059 5.02267 98.4139 5.012C98.2325 4.99067 98.0832 4.96933 97.9659 4.948C97.6565 4.90533 97.4005 4.81467 97.1979 4.676C97.0059 4.52667 96.9365 4.276 96.9899 3.924C97.0325 3.68933 97.1019 3.51333 97.1979 3.396C97.3045 3.268 97.4752 3.19867 97.7099 3.188C97.7845 3.188 97.8539 3.188 97.9179 3.188C97.9925 3.17733 98.0725 3.172 98.1579 3.172C98.2859 3.172 98.4192 3.172 98.5579 3.172C98.6965 3.16133 98.8352 3.156 98.9739 3.156V1.956C98.9739 1.93467 98.9685 1.88133 98.9579 1.796C98.9579 1.71067 98.9579 1.62 98.9579 1.524C98.9579 1.41733 98.9632 1.316 98.9739 1.22C98.9952 1.11333 99.0219 1.028 99.0539 0.964C99.1072 0.868 99.1872 0.788 99.2939 0.724C99.4005 0.649333 99.5285 0.601333 99.6779 0.58C99.8592 0.558667 100.025 0.569333 100.174 0.612C100.334 0.654667 100.457 0.724 100.542 0.82C100.691 0.98 100.787 1.14533 100.83 1.316C100.862 1.42267 100.878 1.57733 100.878 1.78C100.889 1.98267 100.889 2.14267 100.878 2.26V3.124C100.878 3.764 100.889 4.39333 100.91 5.012C100.942 5.63067 100.931 6.26 100.878 6.9ZM91.3419 5.556C91.3845 5.57733 91.4699 5.59333 91.5979 5.604C91.7259 5.604 91.8272 5.60933 91.9019 5.62C91.9232 5.62 91.9872 5.62 92.0939 5.62C92.2112 5.62 92.3285 5.62 92.4459 5.62C92.5739 5.62 92.6859 5.62 92.7819 5.62C92.8885 5.62 92.9419 5.61467 92.9419 5.604C92.9632 5.48667 92.9685 5.364 92.9579 5.236C92.9472 5.108 92.9419 4.98533 92.9419 4.868V2.788C92.8245 2.74533 92.6592 2.74 92.4459 2.772C92.2432 2.79333 92.0779 2.79867 91.9499 2.788C91.9285 2.788 91.8805 2.788 91.8059 2.788C91.7312 2.77733 91.6512 2.772 91.5659 2.772C91.4805 2.772 91.4005 2.772 91.3259 2.772C91.2619 2.772 91.2245 2.77733 91.2139 2.788V5.284C91.2245 5.42267 91.2672 5.51333 91.3419 5.556ZM98.6059 11.94C98.6059 11.8013 98.5205 11.7 98.3499 11.636C98.1792 11.572 97.9605 11.5293 97.6939 11.508C97.4272 11.476 97.1232 11.46 96.7819 11.46C96.4405 11.46 96.1045 11.46 95.7739 11.46C95.4325 11.46 95.0965 11.46 94.7659 11.46C94.4459 11.46 94.1579 11.476 93.9019 11.508C93.6459 11.5293 93.4379 11.572 93.2779 11.636C93.1179 11.7 93.0379 11.8013 93.0379 11.94C93.0379 12.0573 93.1179 12.148 93.2779 12.212C93.4379 12.276 93.6459 12.324 93.9019 12.356C94.1579 12.3773 94.4459 12.3933 94.7659 12.404C95.0965 12.404 95.4325 12.404 95.7739 12.404C96.1045 12.404 96.4405 12.4093 96.7819 12.42C97.1232 12.4307 97.4272 12.4253 97.6939 12.404C97.9605 12.3827 98.1792 12.34 98.3499 12.276C98.5205 12.212 98.6059 12.1 98.6059 11.94Z" fill="black"/>
<path d="M105.867 11.316C105.867 11.156 105.867 11.0067 105.867 10.868C105.867 10.7293 105.867 10.564 105.867 10.372C105.867 10.18 105.861 9.95067 105.851 9.684C105.851 9.41733 105.851 9.07067 105.851 8.644C105.851 8.21733 105.851 7.7 105.851 7.092C105.851 6.484 105.851 5.748 105.851 4.884C105.851 4.70267 105.851 4.532 105.851 4.372C105.851 4.20133 105.84 4.02533 105.819 3.844C105.787 3.652 105.739 3.52933 105.675 3.476C105.611 3.42267 105.483 3.396 105.291 3.396C104.821 3.38533 104.405 3.38533 104.043 3.396C103.68 3.396 103.291 3.396 102.875 3.396C102.501 3.396 102.224 3.3 102.043 3.108C101.861 2.916 101.771 2.66533 101.771 2.356C101.771 2.04667 101.84 1.812 101.979 1.652C102.128 1.48133 102.341 1.36933 102.619 1.316C102.832 1.26267 103.035 1.23067 103.227 1.22C103.419 1.20933 103.632 1.204 103.867 1.204H106.155C106.208 1.204 106.261 1.20933 106.315 1.22C106.379 1.22 106.437 1.22 106.491 1.22C106.629 1.23067 106.773 1.24667 106.923 1.268C107.083 1.28933 107.227 1.32667 107.355 1.38C107.44 1.412 107.52 1.45467 107.595 1.508C107.68 1.56133 107.749 1.62533 107.803 1.7C107.909 1.84933 107.968 1.988 107.979 2.116C107.989 2.244 108.005 2.39867 108.027 2.58C108.048 2.868 108.059 3.16133 108.059 3.46C108.059 3.75867 108.059 4.05733 108.059 4.356V5.524H109.627V2.292C109.627 2.15333 109.627 2.01467 109.627 1.876C109.627 1.72667 109.643 1.58267 109.675 1.444C109.696 1.39067 109.712 1.34267 109.723 1.3C109.744 1.25733 109.765 1.20933 109.787 1.156C109.851 1.04933 109.915 0.969333 109.979 0.916C110.043 0.852 110.133 0.798667 110.251 0.756C110.304 0.734667 110.357 0.724 110.411 0.724C110.475 0.713333 110.533 0.708 110.587 0.708C110.939 0.708 111.205 0.868 111.387 1.188C111.429 1.252 111.456 1.34267 111.467 1.46C111.488 1.57733 111.504 1.7 111.515 1.828C111.525 1.94533 111.531 2.052 111.531 2.148C111.531 2.23333 111.531 2.28667 111.531 2.308V11.46C111.531 11.7267 111.52 11.94 111.499 12.1C111.488 12.26 111.44 12.4627 111.355 12.708C111.301 12.868 111.211 13.0013 111.083 13.108C110.955 13.2147 110.773 13.268 110.539 13.268C110.475 13.268 110.395 13.2573 110.299 13.236C110.203 13.2253 110.128 13.1987 110.075 13.156C109.968 13.092 109.883 12.9907 109.819 12.852C109.765 12.7027 109.723 12.548 109.691 12.388C109.659 12.228 109.637 12.0733 109.627 11.924C109.627 11.7747 109.627 11.6573 109.627 11.572V7.604L108.059 7.588V9.476C108.059 9.48667 108.059 9.56667 108.059 9.716C108.069 9.86533 108.075 10.0467 108.075 10.26C108.075 10.4733 108.075 10.6973 108.075 10.932C108.075 11.156 108.069 11.3533 108.059 11.524C108.027 11.908 107.904 12.2173 107.691 12.452C107.488 12.6867 107.2 12.804 106.827 12.804C106.635 12.804 106.475 12.756 106.347 12.66C106.219 12.564 106.117 12.4413 106.043 12.292C105.979 12.1427 105.931 11.9827 105.899 11.812C105.877 11.6307 105.867 11.4653 105.867 11.316ZM114.187 12.82C114.123 12.9587 114.021 13.076 113.883 13.172C113.669 13.3107 113.435 13.348 113.179 13.284C113.019 13.252 112.885 13.1827 112.779 13.076C112.683 12.98 112.608 12.868 112.555 12.74C112.501 12.612 112.464 12.4733 112.443 12.324C112.421 12.1747 112.411 12.0307 112.411 11.892V2.468C112.411 2.35067 112.411 2.21733 112.411 2.068C112.411 1.908 112.421 1.75867 112.443 1.62C112.464 1.47067 112.491 1.332 112.523 1.204C112.565 1.076 112.624 0.974666 112.699 0.9C112.816 0.793333 112.939 0.729333 113.067 0.708C113.195 0.676 113.333 0.66 113.483 0.66C113.664 0.66 113.813 0.713334 113.931 0.82C114.048 0.916 114.139 1.04933 114.203 1.22C114.299 1.444 114.352 1.67333 114.363 1.908C114.373 2.14267 114.384 2.38267 114.395 2.628V2.708C114.416 3.51867 114.421 4.324 114.411 5.124C114.4 5.924 114.395 6.70267 114.395 7.46V11.3C114.395 11.5773 114.384 11.844 114.363 12.1C114.352 12.356 114.293 12.596 114.187 12.82Z" fill="black"/>
<path d="M127.368 5.78C127.55 5.85467 127.667 5.96667 127.72 6.116C127.774 6.25467 127.806 6.41467 127.816 6.596C127.816 6.73467 127.784 6.87333 127.72 7.012C127.667 7.15067 127.587 7.26267 127.48 7.348C127.395 7.42267 127.278 7.476 127.128 7.508C126.99 7.52933 126.867 7.54 126.76 7.54C126.622 7.52933 126.483 7.52933 126.344 7.54C126.206 7.54 126.062 7.54533 125.912 7.556C125.635 7.57733 125.358 7.58267 125.08 7.572C124.814 7.56133 124.542 7.556 124.264 7.556C123.742 7.556 123.224 7.55067 122.712 7.54C122.2 7.51867 121.678 7.49733 121.144 7.476C120.942 7.46533 120.718 7.43867 120.472 7.396C120.238 7.35333 120.056 7.236 119.928 7.044C119.832 6.90533 119.763 6.72933 119.72 6.516C119.678 6.292 119.651 6.07867 119.64 5.876C119.63 5.67333 119.624 5.49733 119.624 5.348C119.635 5.188 119.64 5.10267 119.64 5.092L119.672 2.324C119.672 2.292 119.672 2.23333 119.672 2.148C119.672 2.052 119.678 1.956 119.688 1.86C119.699 1.75333 119.715 1.652 119.736 1.556C119.758 1.44933 119.79 1.364 119.832 1.3C119.896 1.204 119.987 1.10267 120.104 0.996C120.232 0.889333 120.376 0.82 120.536 0.788C120.803 0.745333 121.07 0.724 121.336 0.724C121.603 0.713333 121.87 0.713333 122.136 0.724C122.264 0.724 122.392 0.729334 122.52 0.74C122.659 0.750667 122.787 0.745333 122.904 0.724C123.086 0.713333 123.272 0.713333 123.464 0.724C123.55 0.724 123.63 0.724 123.704 0.724C123.779 0.713333 123.859 0.713333 123.944 0.724C124.115 0.734667 124.286 0.734667 124.456 0.724C124.627 0.713333 124.798 0.713333 124.968 0.724C125.246 0.745333 125.518 0.761333 125.784 0.772C126.051 0.772 126.323 0.782667 126.6 0.804C126.771 0.825333 126.942 0.884 127.112 0.98C127.294 1.06533 127.427 1.18267 127.512 1.332C127.758 1.716 127.747 2.09467 127.48 2.468C127.363 2.64933 127.214 2.76133 127.032 2.804C126.851 2.836 126.67 2.852 126.488 2.852L124.936 2.804V5.556C125.214 5.57733 125.464 5.59867 125.688 5.62C125.923 5.63067 126.184 5.64667 126.472 5.668C126.632 5.67867 126.787 5.68933 126.936 5.7C127.086 5.7 127.23 5.72667 127.368 5.78ZM130.52 12.212C130.691 12.2227 130.84 12.2653 130.968 12.34C131.096 12.404 131.187 12.5213 131.24 12.692C131.358 13.0867 131.219 13.3533 130.824 13.492C130.696 13.5453 130.563 13.5773 130.424 13.588C130.296 13.5987 130.179 13.604 130.072 13.604H122.632C122.419 13.604 122.195 13.604 121.96 13.604C121.726 13.604 121.491 13.5987 121.256 13.588C120.968 13.5773 120.766 13.4867 120.648 13.316C120.542 13.1453 120.478 12.9373 120.456 12.692L120.392 11.636C120.382 11.5187 120.382 11.38 120.392 11.22C120.414 11.0493 120.472 10.9053 120.568 10.788C120.718 10.6387 120.888 10.5427 121.08 10.5C121.272 10.4573 121.486 10.436 121.72 10.436H122.216C122.27 10.436 122.312 10.4413 122.344 10.452C122.376 10.452 122.408 10.452 122.44 10.452H129.256V9.892H122.28C122.227 9.892 122.168 9.892 122.104 9.892C122.051 9.88133 121.992 9.88133 121.928 9.892H121.544C121.438 9.892 121.342 9.892 121.256 9.892C121.171 9.892 121.086 9.88133 121 9.86C120.904 9.83867 120.814 9.81733 120.728 9.796C120.654 9.77467 120.59 9.72133 120.536 9.636C120.472 9.51867 120.43 9.40667 120.408 9.3C120.387 9.19333 120.398 9.076 120.44 8.948C120.472 8.86267 120.52 8.79867 120.584 8.756C120.648 8.70267 120.723 8.66 120.808 8.628C120.894 8.596 120.974 8.57467 121.048 8.564C121.134 8.54267 121.208 8.52667 121.272 8.516C121.358 8.50533 121.438 8.5 121.512 8.5C121.598 8.48933 121.683 8.484 121.768 8.484H122.04C122.094 8.49467 122.142 8.5 122.184 8.5C122.238 8.5 122.291 8.5 122.344 8.5H129.416C129.96 8.5 130.376 8.58533 130.664 8.756C130.952 8.916 131.096 9.18267 131.096 9.556V10.676C131.096 10.8253 131.059 10.9693 130.984 11.108C130.92 11.2467 130.803 11.3693 130.632 11.476C130.494 11.5613 130.355 11.6093 130.216 11.62C130.078 11.62 129.939 11.62 129.8 11.62H122.36V12.212H130.52ZM131.112 6.9C131.102 7.01733 131.086 7.14 131.064 7.268C131.043 7.38533 131 7.50267 130.936 7.62C130.862 7.75867 130.771 7.86 130.664 7.924C130.515 8.04133 130.339 8.1 130.136 8.1C129.976 8.1 129.827 8.05733 129.688 7.972C129.539 7.88667 129.422 7.75333 129.336 7.572C129.251 7.39067 129.208 7.22533 129.208 7.076V5.028C129.027 5.028 128.84 5.02267 128.648 5.012C128.467 4.99067 128.318 4.96933 128.2 4.948C127.891 4.90533 127.635 4.81467 127.432 4.676C127.24 4.52667 127.171 4.276 127.224 3.924C127.267 3.68933 127.336 3.51333 127.432 3.396C127.539 3.268 127.71 3.19867 127.944 3.188C128.019 3.188 128.088 3.188 128.152 3.188C128.227 3.17733 128.307 3.172 128.392 3.172C128.52 3.172 128.654 3.172 128.792 3.172C128.931 3.16133 129.07 3.156 129.208 3.156V1.956C129.208 1.93467 129.203 1.88133 129.192 1.796C129.192 1.71067 129.192 1.62 129.192 1.524C129.192 1.41733 129.198 1.316 129.208 1.22C129.23 1.11333 129.256 1.028 129.288 0.964C129.342 0.868 129.422 0.788 129.528 0.724C129.635 0.649333 129.763 0.601333 129.912 0.58C130.094 0.558667 130.259 0.569333 130.408 0.612C130.568 0.654667 130.691 0.724 130.776 0.82C130.926 0.98 131.022 1.14533 131.064 1.316C131.096 1.42267 131.112 1.57733 131.112 1.78C131.123 1.98267 131.123 2.14267 131.112 2.26V3.124C131.112 3.764 131.123 4.39333 131.144 5.012C131.176 5.63067 131.166 6.26 131.112 6.9ZM121.576 5.556C121.619 5.57733 121.704 5.59333 121.832 5.604C121.96 5.604 122.062 5.60933 122.136 5.62C122.158 5.62 122.222 5.62 122.328 5.62C122.446 5.62 122.563 5.62 122.68 5.62C122.808 5.62 122.92 5.62 123.016 5.62C123.123 5.62 123.176 5.61467 123.176 5.604V2.804C123.059 2.78267 122.894 2.77733 122.68 2.788C122.478 2.79867 122.312 2.79867 122.184 2.788C122.163 2.788 122.115 2.788 122.04 2.788C121.966 2.77733 121.886 2.772 121.8 2.772C121.715 2.772 121.635 2.772 121.56 2.772C121.496 2.772 121.459 2.77733 121.448 2.788V5.284C121.459 5.42267 121.502 5.51333 121.576 5.556Z" fill="black"/>
<path d="M141.993 2.644C141.993 2.50533 141.993 2.356 141.993 2.196C142.004 2.02533 142.02 1.86 142.041 1.7C142.073 1.52933 142.111 1.37467 142.153 1.236C142.207 1.08667 142.281 0.964 142.377 0.867999C142.516 0.729333 142.687 0.66 142.889 0.66H142.921C143.188 0.670667 143.396 0.750667 143.545 0.9C143.695 1.03867 143.807 1.20933 143.881 1.412C143.967 1.61467 144.02 1.828 144.041 2.052C144.063 2.26533 144.073 2.45733 144.073 2.628V12.116C144.073 12.1267 144.073 12.18 144.073 12.276C144.073 12.3613 144.063 12.468 144.041 12.596C144.02 12.724 143.988 12.852 143.945 12.98C143.903 13.108 143.833 13.2147 143.737 13.3C143.663 13.3747 143.556 13.4333 143.417 13.476C143.279 13.5187 143.151 13.54 143.033 13.54C142.777 13.54 142.575 13.4547 142.425 13.284C142.287 13.1347 142.196 12.9907 142.153 12.852C142.121 12.7027 142.095 12.5373 142.073 12.356C142.073 12.26 142.068 12.1053 142.057 11.892C142.057 11.6787 142.057 11.444 142.057 11.188C142.057 10.932 142.057 10.6813 142.057 10.436C142.057 10.1907 142.057 9.99333 142.057 9.844H140.633C140.388 9.844 140.196 9.80667 140.057 9.732C139.929 9.65733 139.839 9.56133 139.785 9.444C139.753 9.38 139.721 9.316 139.689 9.252C139.668 9.17733 139.657 9.10267 139.657 9.028C139.657 8.95333 139.657 8.88933 139.657 8.836C139.657 8.78267 139.668 8.71867 139.689 8.644C139.711 8.55867 139.737 8.468 139.769 8.372C139.801 8.276 139.849 8.20133 139.913 8.148C140.052 8.04133 140.201 7.972 140.361 7.94C140.447 7.92933 140.564 7.91867 140.713 7.908C140.863 7.89733 141.017 7.892 141.177 7.892C141.337 7.88133 141.492 7.876 141.641 7.876C141.801 7.86533 141.924 7.85467 142.009 7.844C142.009 7.70533 142.004 7.51867 141.993 7.284C141.993 7.03867 141.993 6.772 141.993 6.484L140.601 6.452C140.399 6.44133 140.217 6.41467 140.057 6.372C139.897 6.32933 139.791 6.24933 139.737 6.132C139.663 5.98267 139.625 5.83867 139.625 5.7C139.625 5.62533 139.625 5.56133 139.625 5.508C139.625 5.45467 139.636 5.39067 139.657 5.316C139.679 5.23067 139.705 5.14533 139.737 5.06C139.769 4.97467 139.817 4.90533 139.881 4.852C140.02 4.74533 140.169 4.676 140.329 4.644C140.393 4.63333 140.484 4.628 140.601 4.628C140.729 4.61733 140.873 4.612 141.033 4.612C141.193 4.60133 141.353 4.596 141.513 4.596C141.684 4.58533 141.844 4.57467 141.993 4.564C141.983 4.12667 141.977 3.72667 141.977 3.364C141.977 3.00133 141.983 2.76133 141.993 2.644ZM134.969 8.148C135.033 8.084 135.092 8.00933 135.145 7.924C135.209 7.828 135.257 7.764 135.289 7.732V4.116C135.236 4.13733 135.188 4.14267 135.145 4.132C135.103 4.12133 135.055 4.116 135.001 4.116H134.569C134.196 4.116 133.871 4.11067 133.593 4.1C133.327 4.08933 133.156 4.07333 133.081 4.052C132.889 4.00933 132.724 3.94 132.585 3.844C132.457 3.73733 132.361 3.588 132.297 3.396C132.276 3.32133 132.26 3.252 132.249 3.188C132.239 3.124 132.244 3.04933 132.265 2.964C132.265 2.85733 132.319 2.724 132.425 2.564C132.457 2.51067 132.505 2.46267 132.569 2.42C132.633 2.37733 132.697 2.34 132.761 2.308C132.825 2.25467 132.889 2.22267 132.953 2.212C133.017 2.19067 133.081 2.16933 133.145 2.148H135.257C135.257 2.03067 135.263 1.876 135.273 1.684C135.284 1.492 135.289 1.348 135.289 1.252C135.311 1.11333 135.343 0.990667 135.385 0.884C135.428 0.766667 135.476 0.66 135.529 0.564C135.657 0.361333 135.844 0.228 136.089 0.164C136.207 0.110667 136.324 0.0893333 136.441 0.0999998C136.569 0.110666 136.692 0.142666 136.809 0.196C136.895 0.228 136.969 0.276 137.033 0.34C137.108 0.393333 137.161 0.457333 137.193 0.532C137.321 0.681333 137.401 0.830667 137.433 0.98C137.455 1.06533 137.471 1.156 137.481 1.252C137.492 1.348 137.497 1.444 137.497 1.54V2.148H138.473C138.687 2.148 138.9 2.15333 139.113 2.164C139.337 2.17467 139.524 2.19067 139.673 2.212C139.823 2.244 139.956 2.30267 140.073 2.388C140.201 2.46267 140.308 2.56933 140.393 2.708C140.479 2.84667 140.521 2.996 140.521 3.156C140.553 3.27333 140.532 3.40667 140.457 3.556C140.329 3.80133 140.079 3.96667 139.705 4.052C139.588 4.07333 139.455 4.084 139.305 4.084C139.167 4.084 139.017 4.09467 138.857 4.116C138.687 4.116 138.484 4.12133 138.249 4.132C138.015 4.14267 137.764 4.13733 137.497 4.116C137.497 4.20133 137.492 4.30267 137.481 4.42C137.481 4.53733 137.481 4.65467 137.481 4.772C137.481 4.88933 137.481 5.00133 137.481 5.108C137.481 5.204 137.487 5.284 137.497 5.348V7.108C137.497 7.16133 137.492 7.21467 137.481 7.268C137.471 7.31067 137.476 7.364 137.497 7.428V7.684C137.551 7.72667 137.599 7.78533 137.641 7.86C137.695 7.924 137.764 7.99867 137.849 8.084C137.924 8.148 137.983 8.212 138.025 8.276C138.079 8.34 138.132 8.39867 138.185 8.452C138.239 8.516 138.287 8.58 138.329 8.644C138.383 8.708 138.441 8.772 138.505 8.836C138.559 8.88933 138.612 8.95333 138.665 9.028C138.719 9.10267 138.777 9.172 138.841 9.236C138.873 9.28933 138.905 9.33733 138.937 9.38C138.969 9.42267 139.001 9.46 139.033 9.492C139.097 9.588 139.151 9.67867 139.193 9.764C139.3 9.892 139.401 10.0253 139.497 10.164C139.593 10.292 139.689 10.4413 139.785 10.612C139.903 10.7613 139.993 10.916 140.057 11.076C140.132 11.2253 140.185 11.3747 140.217 11.524C140.249 11.6733 140.249 11.828 140.217 11.988C140.185 12.148 140.111 12.292 139.993 12.42C139.844 12.548 139.647 12.612 139.401 12.612C139.284 12.612 139.172 12.6013 139.065 12.58C138.969 12.548 138.863 12.5053 138.745 12.452C138.639 12.388 138.543 12.324 138.457 12.26C138.383 12.1853 138.303 12.116 138.217 12.052C138.121 11.956 138.031 11.8547 137.945 11.748C137.86 11.6307 137.775 11.524 137.689 11.428C137.604 11.332 137.519 11.2307 137.433 11.124C137.359 11.0067 137.279 10.8893 137.193 10.772C137.076 10.6547 136.948 10.5 136.809 10.308C136.745 10.212 136.671 10.132 136.585 10.068C136.511 9.99333 136.441 9.924 136.377 9.86C136.313 9.94533 136.249 10.0307 136.185 10.116C136.121 10.1907 136.057 10.2707 135.993 10.356C135.919 10.4413 135.849 10.5213 135.785 10.596C135.721 10.6707 135.657 10.7507 135.593 10.836C135.529 10.9427 135.455 11.0493 135.369 11.156C135.295 11.2627 135.215 11.364 135.129 11.46C135.065 11.5667 134.991 11.6733 134.905 11.78C134.831 11.8867 134.74 11.988 134.633 12.084C134.42 12.2973 134.217 12.4467 134.025 12.532C133.844 12.6067 133.657 12.644 133.465 12.644C133.412 12.644 133.359 12.644 133.305 12.644C133.263 12.644 133.215 12.6333 133.161 12.612C132.937 12.548 132.772 12.404 132.665 12.18C132.591 12.0093 132.569 11.8387 132.601 11.668C132.623 11.5613 132.644 11.4653 132.665 11.38C132.687 11.284 132.724 11.204 132.777 11.14C132.809 11.0547 132.847 10.9747 132.889 10.9C132.932 10.8147 132.98 10.7293 133.033 10.644C133.087 10.58 133.135 10.5107 133.177 10.436C133.231 10.3613 133.295 10.2867 133.369 10.212C133.401 10.18 133.433 10.1427 133.465 10.1C133.497 10.0573 133.529 10.02 133.561 9.988L133.753 9.7C133.785 9.62533 133.823 9.56667 133.865 9.524C133.908 9.47067 133.972 9.38533 134.057 9.268C134.143 9.172 134.223 9.076 134.297 8.98C134.372 8.884 134.441 8.79333 134.505 8.708C134.591 8.612 134.671 8.516 134.745 8.42C134.831 8.324 134.905 8.23333 134.969 8.148Z" fill="black"/>
<path d="M155.127 2.74C155.127 2.63333 155.132 2.484 155.143 2.292C155.153 2.1 155.191 1.908 155.255 1.716C155.319 1.524 155.415 1.35867 155.543 1.22C155.681 1.08133 155.879 1.012 156.135 1.012C156.359 1.012 156.556 1.07067 156.727 1.188C156.855 1.27333 156.951 1.428 157.015 1.652C157.089 1.86533 157.137 2.10533 157.159 2.372C157.191 2.63867 157.207 2.90533 157.207 3.172C157.207 3.43867 157.201 3.65733 157.191 3.828V9.7C157.191 9.732 157.191 9.84933 157.191 10.052C157.191 10.244 157.18 10.468 157.159 10.724C157.137 10.9693 157.1 11.2253 157.047 11.492C157.004 11.748 156.94 11.956 156.855 12.116C156.823 12.1907 156.769 12.2707 156.695 12.356C156.631 12.4307 156.583 12.484 156.551 12.516C156.465 12.6013 156.369 12.6653 156.263 12.708C156.167 12.7507 156.065 12.788 155.959 12.82C155.852 12.8413 155.756 12.8573 155.671 12.868C155.585 12.8787 155.527 12.884 155.495 12.884H152.135C151.879 12.884 151.633 12.8627 151.399 12.82C151.175 12.7773 150.967 12.6813 150.775 12.532C150.636 12.4253 150.529 12.292 150.455 12.132C150.391 11.9613 150.343 11.796 150.311 11.636C150.289 11.476 150.279 11.332 150.279 11.204C150.279 11.0653 150.279 10.98 150.279 10.948V2.58C150.279 2.43067 150.295 2.26533 150.327 2.084C150.369 1.90267 150.428 1.73733 150.503 1.588C150.588 1.428 150.695 1.3 150.823 1.204C150.951 1.09733 151.111 1.044 151.303 1.044C151.836 1.044 152.183 1.27333 152.343 1.732C152.396 1.88133 152.428 2.03067 152.439 2.18C152.449 2.32933 152.46 2.47867 152.471 2.628V2.66C152.471 2.73467 152.471 2.91067 152.471 3.188C152.471 3.46533 152.471 3.76933 152.471 4.1C152.471 4.42 152.471 4.73467 152.471 5.044C152.481 5.34267 152.487 5.556 152.487 5.684C152.54 5.684 152.679 5.684 152.903 5.684C153.127 5.684 153.377 5.684 153.655 5.684C153.943 5.684 154.22 5.67867 154.487 5.668C154.753 5.65733 154.956 5.636 155.095 5.604L155.127 4.868V2.74ZM159.431 7.844C159.281 7.82267 159.132 7.812 158.983 7.812C158.844 7.80133 158.7 7.78533 158.551 7.764C158.369 7.75333 158.204 7.71067 158.055 7.636C157.905 7.56133 157.783 7.46533 157.687 7.348C157.591 7.23067 157.527 7.08667 157.495 6.916C157.473 6.74533 157.489 6.55867 157.543 6.356C157.564 6.27067 157.607 6.18 157.671 6.084C157.745 5.988 157.815 5.91333 157.879 5.86C158.028 5.75333 158.177 5.684 158.327 5.652C158.497 5.63067 158.673 5.62533 158.855 5.636C159.047 5.64667 159.233 5.64133 159.415 5.62H159.463V5.556C159.463 5.428 159.463 5.32133 159.463 5.236C159.473 5.15067 159.479 5.07067 159.479 4.996C159.479 4.92133 159.473 4.84133 159.463 4.756C159.463 4.67067 159.463 4.55867 159.463 4.42C159.463 4.14267 159.457 3.87067 159.447 3.604C159.447 3.32667 159.452 3.05467 159.463 2.788V2.564C159.463 2.42533 159.463 2.276 159.463 2.116C159.473 1.94533 159.489 1.78 159.511 1.62C159.532 1.44933 159.569 1.29467 159.623 1.156C159.676 1.00667 159.751 0.884 159.847 0.788C160.007 0.649333 160.177 0.58 160.359 0.58H160.391C160.647 0.590667 160.849 0.670667 160.999 0.82C161.159 0.958667 161.276 1.12933 161.351 1.332C161.436 1.53467 161.489 1.748 161.511 1.972C161.532 2.18533 161.543 2.37733 161.543 2.548V12.148C161.543 12.1587 161.543 12.212 161.543 12.308C161.543 12.3933 161.532 12.5 161.511 12.628C161.489 12.756 161.457 12.884 161.415 13.012C161.372 13.14 161.303 13.2467 161.207 13.332C161.132 13.4067 161.025 13.4653 160.887 13.508C160.748 13.5507 160.62 13.572 160.503 13.572C160.247 13.572 160.044 13.4867 159.895 13.316C159.756 13.1667 159.671 13.012 159.639 12.852C159.607 12.692 159.58 12.5213 159.559 12.34C159.559 12.308 159.553 12.276 159.543 12.244C159.543 12.212 159.543 12.1747 159.543 12.132C159.521 11.9613 159.511 11.78 159.511 11.588C159.511 11.396 159.505 11.204 159.495 11.012C159.484 10.8947 159.479 10.7827 159.479 10.676C159.479 10.5587 159.479 10.4413 159.479 10.324V9.956C159.479 9.84933 159.479 9.716 159.479 9.556C159.479 9.396 159.473 9.236 159.463 9.076C159.463 8.916 159.463 8.76133 159.463 8.612C159.463 8.452 159.463 8.31333 159.463 8.196C159.463 8.14267 159.463 8.084 159.463 8.02C159.463 7.956 159.452 7.89733 159.431 7.844ZM155.127 10.932L155.111 7.62L152.343 7.636C152.332 7.86 152.327 8.13733 152.327 8.468C152.337 8.79867 152.343 9.076 152.343 9.3C152.343 9.38533 152.343 9.50267 152.343 9.652C152.343 9.80133 152.343 9.96133 152.343 10.132C152.343 10.3027 152.343 10.4627 152.343 10.612C152.343 10.7613 152.343 10.8733 152.343 10.948L155.127 10.932Z" fill="black"/>
<path d="M165.832 8.18C165.725 8.20133 165.651 8.26 165.608 8.356C165.565 8.452 165.539 8.564 165.528 8.692C165.517 8.80933 165.517 8.92667 165.528 9.044C165.539 9.16133 165.544 9.25733 165.544 9.332C165.544 9.46 165.544 9.588 165.544 9.716C165.544 9.844 165.555 9.98267 165.576 10.132C165.576 10.196 165.571 10.2867 165.56 10.404C165.56 10.5107 165.587 10.5907 165.64 10.644C165.64 10.6653 165.651 10.6813 165.672 10.692C165.693 10.7027 165.715 10.708 165.736 10.708C165.853 10.708 165.955 10.708 166.04 10.708C166.136 10.708 166.227 10.708 166.312 10.708C166.397 10.708 166.483 10.708 166.568 10.708C166.664 10.6973 166.771 10.6867 166.888 10.676C167.08 10.676 167.288 10.676 167.512 10.676C167.747 10.676 167.981 10.676 168.216 10.676C168.461 10.676 168.701 10.6813 168.936 10.692C169.171 10.692 169.379 10.6973 169.56 10.708C169.709 10.7293 169.821 10.7667 169.896 10.82C169.981 10.8733 170.051 10.9427 170.104 11.028C170.168 11.1133 170.211 11.2093 170.232 11.316C170.253 11.412 170.264 11.5187 170.264 11.636C170.285 11.764 170.275 11.8867 170.232 12.004C170.2 12.1107 170.157 12.196 170.104 12.26C170.051 12.324 169.987 12.3827 169.912 12.436C169.848 12.4787 169.773 12.5267 169.688 12.58C169.475 12.676 169.261 12.724 169.048 12.724C168.845 12.7133 168.632 12.7187 168.408 12.74C168.312 12.74 168.189 12.7453 168.04 12.756C167.901 12.756 167.752 12.756 167.592 12.756C167.432 12.756 167.277 12.756 167.128 12.756C166.979 12.756 166.856 12.7507 166.76 12.74C166.675 12.7293 166.611 12.724 166.568 12.724C166.525 12.724 166.488 12.724 166.456 12.724C166.424 12.724 166.387 12.7293 166.344 12.74C166.312 12.74 166.259 12.74 166.184 12.74C166.035 12.7187 165.891 12.7133 165.752 12.724C165.613 12.7347 165.469 12.74 165.32 12.74C165.064 12.7187 164.808 12.692 164.552 12.66C164.296 12.628 164.061 12.5373 163.848 12.388C163.699 12.3027 163.587 12.1587 163.512 11.956C163.448 11.828 163.4 11.684 163.368 11.524C163.336 11.364 163.331 11.2093 163.352 11.06C163.363 10.58 163.357 10.0467 163.336 9.46C163.325 8.87333 163.32 8.32933 163.32 7.828C163.32 7.636 163.315 7.42267 163.304 7.188C163.304 6.94267 163.352 6.74 163.448 6.58C163.544 6.43067 163.651 6.324 163.768 6.26C163.885 6.18533 164.008 6.13733 164.136 6.116C164.275 6.09467 164.413 6.08933 164.552 6.1C164.701 6.1 164.851 6.1 165 6.1H166.472C166.6 6.1 166.723 6.1 166.84 6.1C166.957 6.08933 167.085 6.068 167.224 6.036C167.32 6.004 167.384 5.94 167.416 5.844C167.469 5.56667 167.496 5.26267 167.496 4.932C167.507 4.60133 167.501 4.29733 167.48 4.02C167.48 3.90267 167.48 3.75333 167.48 3.572C167.48 3.39067 167.448 3.252 167.384 3.156C167.309 3.04933 167.144 2.996 166.888 2.996L164.392 3.028C164.243 3.028 164.077 3.012 163.896 2.98C163.715 2.93733 163.576 2.85733 163.48 2.74C163.448 2.68667 163.416 2.63867 163.384 2.596C163.352 2.54267 163.32 2.47333 163.288 2.388C163.203 2.1 163.224 1.83867 163.352 1.604C163.491 1.36933 163.709 1.22 164.008 1.156C164.264 1.10267 164.52 1.08667 164.776 1.108C165.032 1.11867 165.288 1.11333 165.544 1.092H167.48C167.693 1.092 167.912 1.092 168.136 1.092C168.36 1.092 168.579 1.124 168.792 1.188C169.016 1.252 169.208 1.412 169.368 1.668C169.389 1.72133 169.405 1.76933 169.416 1.812C169.427 1.85467 169.443 1.908 169.464 1.972C169.485 2.02533 169.501 2.07333 169.512 2.116C169.523 2.15867 169.528 2.20667 169.528 2.26C169.549 2.44133 169.56 2.65467 169.56 2.9C169.56 3.14533 169.56 3.348 169.56 3.508C169.56 3.84933 169.565 4.22267 169.576 4.628C169.587 5.03333 169.592 5.40667 169.592 5.748C169.592 6.1 169.587 6.44133 169.576 6.772C169.576 7.10267 169.528 7.39067 169.432 7.636C169.325 7.84933 169.176 7.988 168.984 8.052C168.803 8.13733 168.605 8.17467 168.392 8.164C168.179 8.15333 167.981 8.148 167.8 8.148C167.555 8.148 167.336 8.15333 167.144 8.164C166.952 8.17467 166.76 8.18 166.568 8.18C166.483 8.18 166.408 8.18 166.344 8.18C166.291 8.16933 166.237 8.164 166.184 8.164C166.141 8.15333 166.093 8.15333 166.04 8.164C165.987 8.164 165.917 8.16933 165.832 8.18ZM172.28 2.66C172.28 2.52133 172.28 2.372 172.28 2.212C172.291 2.04133 172.307 1.876 172.328 1.716C172.36 1.54533 172.397 1.39067 172.44 1.252C172.493 1.10267 172.568 0.98 172.664 0.884C172.803 0.745333 172.973 0.676 173.176 0.676H173.208C173.475 0.686667 173.683 0.766667 173.832 0.916C173.981 1.05467 174.093 1.22533 174.168 1.428C174.253 1.63067 174.307 1.844 174.328 2.068C174.349 2.28133 174.36 2.47333 174.36 2.644V12.116C174.36 12.1267 174.36 12.18 174.36 12.276C174.36 12.3613 174.349 12.468 174.328 12.596C174.307 12.724 174.275 12.852 174.232 12.98C174.189 13.108 174.12 13.2147 174.024 13.3C173.949 13.3747 173.843 13.4333 173.704 13.476C173.565 13.5187 173.437 13.54 173.32 13.54C173.064 13.54 172.861 13.4547 172.712 13.284C172.573 13.1347 172.483 12.9907 172.44 12.852C172.408 12.7027 172.381 12.5373 172.36 12.356C172.36 12.26 172.355 12.1213 172.344 11.94C172.344 11.748 172.344 11.54 172.344 11.316C172.344 11.092 172.344 10.8733 172.344 10.66C172.344 10.436 172.344 10.2493 172.344 10.1H171.048C170.803 10.1 170.611 10.0627 170.472 9.988C170.344 9.91333 170.253 9.81733 170.2 9.7C170.168 9.636 170.136 9.572 170.104 9.508C170.083 9.43333 170.072 9.35867 170.072 9.284C170.072 9.20933 170.072 9.14533 170.072 9.092C170.072 9.03867 170.083 8.97467 170.104 8.9C170.125 8.81467 170.152 8.724 170.184 8.628C170.216 8.532 170.264 8.45733 170.328 8.404C170.467 8.29733 170.616 8.228 170.776 8.196C170.861 8.18533 170.968 8.17467 171.096 8.164C171.235 8.15333 171.379 8.148 171.528 8.148C171.677 8.13733 171.821 8.132 171.96 8.132C172.099 8.12133 172.211 8.11067 172.296 8.1C172.296 7.908 172.291 7.63067 172.28 7.268C172.28 6.90533 172.28 6.516 172.28 6.1L171.064 6.068C170.861 6.05733 170.68 6.03067 170.52 5.988C170.36 5.94533 170.253 5.86533 170.2 5.748C170.125 5.59867 170.088 5.45467 170.088 5.316C170.088 5.24133 170.088 5.17733 170.088 5.124C170.088 5.07067 170.099 5.00667 170.12 4.932C170.141 4.84667 170.168 4.76133 170.2 4.676C170.232 4.59067 170.28 4.52133 170.344 4.468C170.483 4.36133 170.632 4.292 170.792 4.26C170.909 4.23867 171.112 4.228 171.4 4.228C171.699 4.21733 171.987 4.20667 172.264 4.196C172.264 4.05733 172.264 3.908 172.264 3.748C172.264 3.57733 172.264 3.42267 172.264 3.284C172.264 3.13467 172.264 3.00667 172.264 2.9C172.275 2.78267 172.28 2.70267 172.28 2.66Z" fill="black"/>
<path d="M187.007 8.036C187.061 8.04667 187.146 8.05733 187.263 8.068C187.381 8.07867 187.471 8.08933 187.535 8.1C187.653 8.12133 187.77 8.164 187.887 8.228C188.005 8.28133 188.09 8.36667 188.143 8.484C188.218 8.60133 188.255 8.74 188.255 8.9C188.255 8.98533 188.25 9.06 188.239 9.124C188.239 9.17733 188.229 9.24667 188.207 9.332C188.186 9.41733 188.159 9.508 188.127 9.604C188.106 9.7 188.058 9.77467 187.983 9.828C187.834 9.93467 187.69 10.004 187.551 10.036C187.402 10.0573 187.237 10.068 187.055 10.068C186.885 10.068 186.719 10.0627 186.559 10.052C186.559 10.2547 186.554 10.4467 186.543 10.628C186.543 10.8093 186.543 10.9747 186.543 11.124V11.604C186.543 11.7427 186.543 11.8973 186.543 12.068C186.543 12.228 186.527 12.388 186.495 12.548C186.474 12.708 186.437 12.8627 186.383 13.012C186.341 13.1507 186.271 13.268 186.175 13.364C186.047 13.5133 185.877 13.588 185.663 13.588C185.663 13.588 185.653 13.5827 185.631 13.572C185.375 13.5613 185.167 13.4867 185.007 13.348C184.858 13.2093 184.741 13.0387 184.655 12.836C184.581 12.6333 184.533 12.4253 184.511 12.212C184.49 11.988 184.479 11.7907 184.479 11.62V2.116C184.479 2.10533 184.479 2.05733 184.479 1.972C184.479 1.876 184.49 1.76933 184.511 1.652C184.533 1.524 184.565 1.396 184.607 1.268C184.661 1.12933 184.73 1.01733 184.815 0.932C184.89 0.857333 184.997 0.804 185.135 0.772C185.285 0.729333 185.418 0.708 185.535 0.708C185.77 0.708 185.967 0.788 186.127 0.948C186.277 1.09733 186.367 1.25733 186.399 1.428C186.431 1.588 186.458 1.75867 186.479 1.94C186.522 2.12133 186.543 2.34 186.543 2.596C186.543 2.852 186.549 3.076 186.559 3.268V3.828C186.677 3.828 186.778 3.83333 186.863 3.844C186.949 3.844 186.997 3.844 187.007 3.844C187.061 3.85467 187.146 3.86533 187.263 3.876C187.381 3.88667 187.471 3.89733 187.535 3.908C187.653 3.92933 187.77 3.972 187.887 4.036C188.005 4.08933 188.09 4.17467 188.143 4.292C188.218 4.40933 188.255 4.548 188.255 4.708C188.255 4.79333 188.25 4.87867 188.239 4.964C188.239 5.03867 188.229 5.11867 188.207 5.204C188.186 5.28933 188.159 5.36933 188.127 5.444C188.106 5.51867 188.058 5.58267 187.983 5.636C187.834 5.74267 187.69 5.812 187.551 5.844C187.402 5.86533 187.237 5.876 187.055 5.876C186.885 5.876 186.719 5.87067 186.559 5.86V8.02C186.677 8.02 186.778 8.02533 186.863 8.036C186.949 8.036 186.997 8.036 187.007 8.036ZM179.343 0.66C179.482 0.66 179.615 0.665334 179.743 0.676C179.871 0.686667 179.999 0.702667 180.127 0.724C180.533 0.788 180.89 0.974667 181.199 1.284C181.455 1.56133 181.663 1.88133 181.823 2.244C181.983 2.596 182.106 2.96933 182.191 3.364C182.287 3.75867 182.351 4.164 182.383 4.58C182.415 4.98533 182.442 5.38 182.463 5.764C182.485 6.25467 182.49 6.74533 182.479 7.236C182.479 7.72667 182.453 8.212 182.399 8.692C182.346 9.19333 182.266 9.7 182.159 10.212C182.063 10.7133 181.882 11.1667 181.615 11.572C181.391 11.9133 181.119 12.196 180.799 12.42C180.49 12.6333 180.154 12.7773 179.791 12.852C179.461 12.916 179.125 12.9267 178.783 12.884C178.442 12.8413 178.117 12.7293 177.807 12.548C177.519 12.3773 177.285 12.164 177.103 11.908C176.933 11.652 176.773 11.3533 176.623 11.012C176.41 10.5 176.287 9.972 176.255 9.428C176.213 8.98 176.181 8.532 176.159 8.084C176.149 7.636 176.143 7.188 176.143 6.74C176.143 6.14267 176.175 5.54533 176.239 4.948C176.261 4.70267 176.282 4.46267 176.303 4.228C176.325 3.98267 176.357 3.74267 176.399 3.508C176.442 3.316 176.479 3.13467 176.511 2.964C176.543 2.79333 176.602 2.61733 176.687 2.436C176.773 2.25467 176.863 2.084 176.959 1.924C177.066 1.764 177.189 1.62 177.327 1.492C177.775 1.044 178.314 0.777333 178.943 0.692C179.007 0.681333 179.071 0.676 179.135 0.676C179.21 0.676 179.279 0.670667 179.343 0.66ZM179.295 10.724C179.498 10.724 179.695 10.66 179.887 10.532C180.069 10.404 180.197 10.2333 180.271 10.02C180.346 9.80667 180.41 9.572 180.463 9.316C180.549 8.82533 180.597 8.30267 180.607 7.748C180.618 7.19333 180.613 6.66 180.591 6.148C180.591 5.94533 180.586 5.732 180.575 5.508C180.565 5.27333 180.543 5.044 180.511 4.82C180.49 4.596 180.453 4.38267 180.399 4.18C180.346 3.96667 180.271 3.78 180.175 3.62C180.069 3.43867 179.941 3.3 179.791 3.204C179.642 3.108 179.482 3.07067 179.311 3.092C179.13 3.11333 178.959 3.17733 178.799 3.284C178.65 3.39067 178.527 3.55067 178.431 3.764L178.287 4.1C178.223 4.30267 178.175 4.516 178.143 4.74C178.111 4.95333 178.085 5.16667 178.063 5.38C178.042 5.59333 178.026 5.812 178.015 6.036C178.005 6.26 177.999 6.47867 177.999 6.692C178.01 6.90533 178.005 7.11333 177.983 7.316C177.973 7.51867 177.978 7.72667 177.999 7.94C178.021 8.21733 178.047 8.516 178.079 8.836C178.122 9.156 178.186 9.46 178.271 9.748C178.367 10.0253 178.495 10.26 178.655 10.452C178.815 10.6333 179.029 10.724 179.295 10.724Z" fill="black"/>
<path d="M204.148 12.452C204.308 12.4627 204.452 12.5053 204.58 12.58C204.719 12.644 204.815 12.7613 204.868 12.932C204.985 13.316 204.847 13.5827 204.452 13.732C204.324 13.7853 204.191 13.8173 204.052 13.828C203.924 13.8387 203.801 13.844 203.684 13.844H196.436C196.223 13.844 195.999 13.844 195.764 13.844C195.54 13.844 195.311 13.8387 195.076 13.828C194.852 13.8173 194.665 13.7373 194.516 13.588C194.367 13.4387 194.281 13.2413 194.26 12.996C194.239 12.8147 194.223 12.6173 194.212 12.404C194.212 12.18 194.212 11.9933 194.212 11.844V11.7C194.201 11.5827 194.201 11.444 194.212 11.284C194.233 11.124 194.292 10.9853 194.388 10.868C194.527 10.7187 194.719 10.6227 194.964 10.58C195.22 10.5373 195.465 10.516 195.7 10.516H196.036C196.079 10.516 196.116 10.5213 196.148 10.532C196.191 10.532 196.228 10.532 196.26 10.532H202.852V9.844H196.1C196.047 9.844 195.988 9.844 195.924 9.844C195.86 9.83333 195.801 9.83333 195.748 9.844H195.348C195.241 9.844 195.145 9.844 195.06 9.844C194.975 9.844 194.889 9.83333 194.804 9.812C194.719 9.79067 194.633 9.76933 194.548 9.748C194.473 9.72667 194.409 9.67333 194.356 9.588C194.217 9.37467 194.18 9.14533 194.244 8.9C194.276 8.81467 194.324 8.75067 194.388 8.708C194.452 8.65467 194.527 8.612 194.612 8.58C194.697 8.548 194.777 8.52667 194.852 8.516C194.937 8.49467 195.012 8.47867 195.076 8.468C195.161 8.45733 195.241 8.452 195.316 8.452C195.401 8.44133 195.492 8.436 195.588 8.436H195.86C195.913 8.436 195.961 8.44133 196.004 8.452C196.047 8.452 196.095 8.452 196.148 8.452H203.012C203.556 8.452 203.972 8.53733 204.26 8.708C204.548 8.868 204.692 9.13467 204.692 9.508V10.756C204.692 10.9053 204.66 11.0493 204.596 11.188C204.532 11.3267 204.415 11.4493 204.244 11.556C204.095 11.6413 203.951 11.6893 203.812 11.7C203.673 11.7 203.54 11.7 203.412 11.7H196.18V12.452H204.148ZM204.308 5.332V6.628C204.308 6.90533 204.228 7.15067 204.068 7.364C203.908 7.56667 203.663 7.668 203.332 7.668C203.151 7.668 203.001 7.63067 202.884 7.556C202.671 7.428 202.532 7.27333 202.468 7.092C202.415 6.9 202.388 6.76133 202.388 6.676V1.892C202.377 1.84933 202.383 1.732 202.404 1.54C202.425 1.348 202.468 1.188 202.532 1.06C202.639 0.836 202.852 0.708 203.172 0.676C203.567 0.622667 203.86 0.702667 204.052 0.916C204.116 1.00133 204.159 1.08667 204.18 1.172C204.212 1.24667 204.239 1.32667 204.26 1.412C204.292 1.508 204.308 1.64667 204.308 1.828C204.319 2.00933 204.319 2.15333 204.308 2.26V3.556C204.351 3.556 204.431 3.56133 204.548 3.572C204.665 3.572 204.788 3.57733 204.916 3.588C205.044 3.588 205.167 3.59333 205.284 3.604C205.401 3.61467 205.487 3.62533 205.54 3.636C205.753 3.67867 205.903 3.74267 205.988 3.828C206.073 3.90267 206.127 3.99867 206.148 4.116C206.18 4.23333 206.196 4.372 206.196 4.532C206.196 4.68133 206.164 4.80933 206.1 4.916C205.972 5.12933 205.78 5.252 205.524 5.284C205.268 5.30533 204.985 5.32133 204.676 5.332H204.308ZM200.148 4.804C200.148 5.27333 200.036 5.72133 199.812 6.148C199.641 6.48933 199.423 6.76133 199.156 6.964C198.889 7.156 198.591 7.30533 198.26 7.412C197.94 7.508 197.599 7.56133 197.236 7.572C196.884 7.58267 196.543 7.572 196.212 7.54C195.7 7.508 195.225 7.35867 194.788 7.092C194.361 6.81467 194.036 6.452 193.812 6.004C193.641 5.66267 193.556 5.26267 193.556 4.804C193.556 4.39867 193.609 4.052 193.716 3.764C193.78 3.604 193.855 3.45467 193.94 3.316C194.025 3.16667 194.116 3.03333 194.212 2.916H193.94C193.812 2.916 193.7 2.9 193.604 2.868C193.508 2.82533 193.412 2.76667 193.316 2.692C193.156 2.54267 193.076 2.36133 193.076 2.148C193.076 1.91333 193.156 1.716 193.316 1.556C193.497 1.41733 193.705 1.348 193.94 1.348H195.652V0.867999C195.695 0.569333 195.839 0.345333 196.084 0.196C196.329 0.0466662 196.585 -0.0173336 196.852 0.00400013C197.119 0.0253332 197.353 0.148 197.556 0.372C197.759 0.585333 197.844 0.910667 197.812 1.348H199.636C199.892 1.348 200.095 1.41733 200.244 1.556C200.415 1.72667 200.5 1.924 200.5 2.148C200.5 2.35067 200.415 2.532 200.244 2.692C200.073 2.84133 199.871 2.916 199.636 2.916H199.476C199.572 3.03333 199.657 3.16667 199.732 3.316C199.807 3.45467 199.881 3.604 199.956 3.764C200.084 4.07333 200.148 4.42 200.148 4.804ZM197.108 5.86C197.321 5.83867 197.529 5.78 197.732 5.684C197.945 5.588 198.095 5.43333 198.18 5.22C198.329 4.91067 198.335 4.62267 198.196 4.356C198.057 4.07867 197.833 3.86 197.524 3.7C197.321 3.61467 197.092 3.572 196.836 3.572C196.569 3.572 196.345 3.60933 196.164 3.684C196.047 3.73733 195.945 3.80667 195.86 3.892C195.785 3.96667 195.716 4.04667 195.652 4.132C195.556 4.27067 195.492 4.42 195.46 4.58C195.428 4.72933 195.428 4.87867 195.46 5.028C195.503 5.17733 195.572 5.316 195.668 5.444C195.764 5.572 195.887 5.668 196.036 5.732C196.207 5.80667 196.383 5.85467 196.564 5.876C196.745 5.88667 196.927 5.88133 197.108 5.86Z" fill="black"/>
<path d="M218.536 5.604C218.589 5.604 218.637 5.60933 218.68 5.62C218.733 5.63067 218.787 5.636 218.84 5.636C218.893 5.64667 218.952 5.65733 219.016 5.668C219.08 5.668 219.144 5.67333 219.208 5.684C219.325 5.70533 219.443 5.748 219.56 5.812C219.677 5.86533 219.763 5.95067 219.816 6.068C219.891 6.18533 219.928 6.324 219.928 6.484C219.928 6.56933 219.923 6.64933 219.912 6.724C219.912 6.788 219.901 6.86267 219.88 6.948C219.859 7.03333 219.832 7.124 219.8 7.22C219.779 7.316 219.731 7.39067 219.656 7.444C219.507 7.55067 219.363 7.62 219.224 7.652C219.053 7.67333 218.845 7.67867 218.6 7.668C218.355 7.65733 218.147 7.65733 217.976 7.668C217.965 7.668 217.955 7.67333 217.944 7.684H217.928L217.912 7.7V7.748C217.912 7.876 217.912 8.03067 217.912 8.212C217.912 8.38267 217.912 8.55867 217.912 8.74C217.912 8.92133 217.912 9.10267 217.912 9.284C217.912 9.45467 217.912 9.60933 217.912 9.748C217.933 10.3027 217.933 10.8467 217.912 11.38V11.604C217.912 11.7427 217.907 11.8973 217.896 12.068C217.896 12.228 217.885 12.388 217.864 12.548C217.843 12.708 217.805 12.8627 217.752 13.012C217.699 13.1507 217.624 13.268 217.528 13.364C217.4 13.5133 217.229 13.588 217.016 13.588C217.016 13.588 217.005 13.5827 216.984 13.572C216.728 13.5613 216.52 13.4867 216.36 13.348C216.211 13.2093 216.093 13.0387 216.008 12.836C215.933 12.6333 215.885 12.4253 215.864 12.212C215.843 11.988 215.832 11.7907 215.832 11.62V2.116C215.832 2.10533 215.832 2.05733 215.832 1.972C215.832 1.876 215.843 1.76933 215.864 1.652C215.885 1.524 215.917 1.396 215.96 1.268C216.013 1.12933 216.083 1.01733 216.168 0.932C216.243 0.857333 216.349 0.804 216.488 0.772C216.637 0.729333 216.771 0.708 216.888 0.708C217.123 0.708 217.32 0.788 217.48 0.948C217.629 1.09733 217.715 1.25733 217.736 1.428C217.768 1.588 217.795 1.75867 217.816 1.94C217.827 1.98267 217.832 2.04667 217.832 2.132C217.853 2.31333 217.864 2.50533 217.864 2.708C217.864 2.9 217.869 3.092 217.88 3.284C217.88 3.40133 217.885 3.51333 217.896 3.62C217.907 3.72667 217.912 3.83867 217.912 3.956C217.901 4.02 217.896 4.084 217.896 4.148C217.907 4.20133 217.912 4.25467 217.912 4.308V5.22C217.912 5.27333 217.912 5.332 217.912 5.396C217.912 5.46 217.923 5.51867 217.944 5.572C217.944 5.58267 217.997 5.588 218.104 5.588C218.211 5.588 218.269 5.588 218.28 5.588C218.376 5.60933 218.451 5.61467 218.504 5.604H218.536ZM209 10.564C209 10.436 208.995 10.308 208.984 10.18C208.984 10.052 208.984 9.924 208.984 9.796V4.66C208.984 4.47867 208.984 4.30267 208.984 4.132C208.984 3.96133 208.973 3.79067 208.952 3.62C208.941 3.56667 208.925 3.492 208.904 3.396C208.893 3.3 208.861 3.236 208.808 3.204C208.755 3.18267 208.691 3.17733 208.616 3.188C208.552 3.188 208.488 3.18267 208.424 3.172C208.392 3.172 208.371 3.172 208.36 3.172C208.36 3.172 208.344 3.172 208.312 3.172C208.28 3.172 208.211 3.172 208.104 3.172C208.008 3.172 207.843 3.172 207.608 3.172C207.491 3.172 207.363 3.16667 207.224 3.156C207.096 3.13467 206.979 3.092 206.872 3.028C206.723 2.92133 206.621 2.80933 206.568 2.692C206.515 2.57467 206.488 2.42533 206.488 2.244C206.488 2.06267 206.531 1.88667 206.616 1.716C206.669 1.59867 206.739 1.508 206.824 1.444C206.877 1.39067 206.952 1.348 207.048 1.316C207.155 1.27333 207.251 1.24133 207.336 1.22C207.56 1.16667 207.752 1.14 207.912 1.14C208.083 1.12933 208.285 1.124 208.52 1.124H209.688C209.731 1.124 209.773 1.124 209.816 1.124C209.859 1.124 209.907 1.12933 209.96 1.14C210.067 1.12933 210.168 1.124 210.264 1.124C210.371 1.124 210.477 1.124 210.584 1.124H212.6C212.653 1.124 212.707 1.124 212.76 1.124C212.824 1.124 212.883 1.12933 212.936 1.14C213.085 1.15067 213.235 1.16667 213.384 1.188C213.544 1.20933 213.688 1.24667 213.816 1.3C213.901 1.332 213.981 1.37467 214.056 1.428C214.141 1.48133 214.211 1.54533 214.264 1.62C214.36 1.76933 214.413 1.91867 214.424 2.068C214.435 2.21733 214.451 2.38267 214.472 2.564C214.504 2.852 214.515 3.14533 214.504 3.444C214.504 3.732 214.504 4.02533 214.504 4.324V9.412C214.504 9.43333 214.504 9.51867 214.504 9.668C214.515 9.81733 214.52 9.99867 214.52 10.212C214.531 10.4253 214.531 10.6493 214.52 10.884C214.52 11.108 214.515 11.3053 214.504 11.476C214.493 11.6893 214.445 11.908 214.36 12.132C214.285 12.356 214.109 12.5267 213.832 12.644C213.725 12.676 213.629 12.7027 213.544 12.724C213.459 12.7453 213.373 12.756 213.288 12.756C213.149 12.756 213.011 12.7293 212.872 12.676C212.733 12.612 212.632 12.5213 212.568 12.404C212.408 12.0733 212.328 11.6947 212.328 11.268C212.328 11.1507 212.328 11.0333 212.328 10.916C212.328 10.7987 212.323 10.6813 212.312 10.564V4.66C212.312 4.47867 212.307 4.30267 212.296 4.132C212.296 3.96133 212.285 3.79067 212.264 3.62C212.264 3.56667 212.253 3.492 212.232 3.396C212.221 3.3 212.189 3.236 212.136 3.204C212.083 3.18267 212.019 3.17733 211.944 3.188C211.88 3.188 211.816 3.18267 211.752 3.172C211.677 3.16133 211.581 3.16133 211.464 3.172C211.357 3.18267 211.267 3.18267 211.192 3.172V9.412C211.192 9.43333 211.192 9.51867 211.192 9.668C211.203 9.81733 211.208 9.99867 211.208 10.212C211.208 10.4253 211.208 10.6493 211.208 10.884C211.208 11.108 211.203 11.3053 211.192 11.476C211.181 11.5827 211.165 11.6947 211.144 11.812C211.123 11.9293 211.085 12.0413 211.032 12.148C210.989 12.244 210.925 12.34 210.84 12.436C210.765 12.5213 210.659 12.5907 210.52 12.644C210.413 12.676 210.312 12.7027 210.216 12.724C210.131 12.7453 210.051 12.756 209.976 12.756C209.827 12.756 209.683 12.7293 209.544 12.676C209.405 12.612 209.309 12.5213 209.256 12.404C209.107 12.084 209.021 11.7053 209 11.268V10.564Z" fill="black"/>
<path d="M231.284 10.66C231.316 10.6707 231.348 10.676 231.38 10.676C231.412 10.6653 231.444 10.66 231.476 10.66C231.657 10.6813 231.823 10.7187 231.972 10.772C232.132 10.8147 232.287 10.9053 232.436 11.044C232.585 11.172 232.66 11.3533 232.66 11.588C232.66 11.7053 232.639 11.8333 232.596 11.972C232.564 12.1 232.516 12.2013 232.452 12.276C232.367 12.3613 232.26 12.4253 232.132 12.468C232.015 12.5107 231.892 12.5427 231.764 12.564C231.647 12.5747 231.54 12.58 231.444 12.58C231.359 12.58 231.311 12.58 231.3 12.58H222.516C222.463 12.58 222.383 12.5853 222.276 12.596C222.169 12.596 222.089 12.596 222.036 12.596C221.801 12.6067 221.556 12.6067 221.3 12.596C221.044 12.5747 220.825 12.4893 220.644 12.34C220.42 12.1373 220.308 11.908 220.308 11.652C220.308 11.492 220.356 11.3267 220.452 11.156C220.548 10.9853 220.676 10.868 220.836 10.804C221.049 10.7187 221.268 10.676 221.492 10.676C221.727 10.676 221.961 10.6707 222.196 10.66H222.276C222.436 10.66 222.623 10.66 222.836 10.66C223.06 10.6493 223.257 10.644 223.428 10.644C223.417 10.6013 223.412 10.548 223.412 10.484V8.932C223.412 8.836 223.428 8.74 223.46 8.644C223.481 8.55867 223.519 8.47333 223.572 8.388C223.625 8.292 223.7 8.20133 223.796 8.116C223.401 8.02 223.028 7.87067 222.676 7.668C222.335 7.46533 222.036 7.17733 221.78 6.804C221.535 6.47333 221.369 6.12133 221.284 5.748C221.209 5.37467 221.172 4.98533 221.172 4.58C221.172 3.748 221.391 3.05467 221.828 2.5C222.276 1.93467 222.884 1.52933 223.652 1.284C224.164 1.11333 224.681 1.00667 225.204 0.964C225.737 0.910667 226.271 0.905334 226.804 0.948C227.241 0.98 227.679 1.02267 228.116 1.076C228.553 1.12933 228.975 1.24667 229.38 1.428C229.561 1.51333 229.737 1.61467 229.908 1.732C230.079 1.84933 230.239 1.988 230.388 2.148C230.761 2.55333 231.017 2.99067 231.156 3.46C231.295 3.92933 231.343 4.43067 231.3 4.964C231.236 5.796 230.991 6.46267 230.564 6.964C230.137 7.45467 229.604 7.812 228.964 8.036C229.081 8.1 229.177 8.18533 229.252 8.292C229.327 8.39867 229.369 8.52667 229.38 8.676C229.391 8.84667 229.396 9.11333 229.396 9.476C229.407 9.828 229.412 10.2227 229.412 10.66H230.052C230.244 10.6707 230.452 10.6707 230.676 10.66C230.911 10.6387 231.113 10.6387 231.284 10.66ZM229.204 5.204C229.236 5.06533 229.247 4.932 229.236 4.804C229.215 4.24933 229.039 3.83867 228.708 3.572C228.388 3.29467 227.972 3.124 227.46 3.06C227.161 3.028 226.793 2.996 226.356 2.964C225.919 2.92133 225.487 2.932 225.06 2.996C224.644 3.06 224.276 3.19333 223.956 3.396C223.636 3.588 223.444 3.89733 223.38 4.324C223.348 4.58 223.348 4.82533 223.38 5.06C223.423 5.29467 223.513 5.50267 223.652 5.684C223.791 5.86533 223.983 6.02 224.228 6.148C224.473 6.276 224.788 6.356 225.172 6.388C225.545 6.43067 225.924 6.468 226.308 6.5C226.703 6.532 227.087 6.51067 227.46 6.436C227.641 6.404 227.823 6.36133 228.004 6.308C228.196 6.244 228.372 6.164 228.532 6.068C228.692 5.972 228.831 5.85467 228.948 5.716C229.065 5.56667 229.151 5.396 229.204 5.204ZM227.044 8.324C226.767 8.324 226.473 8.32933 226.164 8.34C225.865 8.34 225.561 8.32933 225.252 8.308C225.327 8.436 225.369 8.55867 225.38 8.676C225.391 8.84667 225.396 9.11333 225.396 9.476C225.407 9.828 225.412 10.2227 225.412 10.66H227.428C227.417 10.6173 227.412 10.5587 227.412 10.484V8.932C227.412 8.868 227.423 8.79867 227.444 8.724C227.465 8.67067 227.487 8.60667 227.508 8.532C227.529 8.45733 227.567 8.38267 227.62 8.308C227.524 8.31867 227.428 8.324 227.332 8.324C227.236 8.324 227.14 8.324 227.044 8.324Z" fill="black"/>
<path d="M233.996 4.612C233.954 4.33467 233.932 4.052 233.932 3.764C233.943 3.476 233.996 3.19333 234.092 2.916C234.21 2.55333 234.402 2.23333 234.668 1.956C234.935 1.67867 235.239 1.46 235.58 1.3C235.943 1.12933 236.311 1.012 236.684 0.948C237.068 0.873333 237.442 0.857333 237.804 0.9C238.178 0.942667 238.535 1.03867 238.876 1.188C239.228 1.32667 239.559 1.52933 239.868 1.796C240.199 2.084 240.444 2.42 240.604 2.804C240.775 3.17733 240.866 3.56667 240.876 3.972C240.898 4.37733 240.85 4.78267 240.732 5.188C240.626 5.58267 240.46 5.95067 240.236 6.292C240.236 6.292 240.231 6.30267 240.22 6.324C240.039 6.56933 239.831 6.79333 239.596 6.996C239.362 7.188 239.143 7.396 238.94 7.62C238.706 7.86533 238.567 8.116 238.524 8.372C238.482 8.61733 238.439 8.89467 238.396 9.204C238.364 9.50267 238.284 9.764 238.156 9.988C238.039 10.2013 237.815 10.3027 237.484 10.292C237.26 10.2813 237.09 10.212 236.972 10.084C236.866 9.94533 236.786 9.78533 236.732 9.604C236.69 9.412 236.674 9.21467 236.684 9.012C236.695 8.79867 236.711 8.612 236.732 8.452C236.796 8.07867 236.914 7.72667 237.084 7.396C237.255 7.05467 237.463 6.73467 237.708 6.436C237.847 6.276 237.986 6.132 238.124 6.004C238.263 5.86533 238.391 5.72133 238.508 5.572C238.626 5.42267 238.727 5.26267 238.812 5.092C238.898 4.92133 238.956 4.724 238.988 4.5C239.02 4.29733 239.004 4.09467 238.94 3.892C238.876 3.67867 238.78 3.492 238.652 3.332C238.524 3.16133 238.37 3.02267 238.188 2.916C238.007 2.79867 237.81 2.73467 237.596 2.724C237.404 2.71333 237.202 2.74 236.988 2.804C236.775 2.85733 236.578 2.948 236.396 3.076C236.215 3.19333 236.066 3.33733 235.948 3.508C235.842 3.67867 235.794 3.87067 235.804 4.084C235.815 4.212 235.836 4.34533 235.868 4.484C235.911 4.612 235.938 4.74 235.948 4.868C235.97 4.98533 235.964 5.10267 235.932 5.22C235.911 5.33733 235.842 5.44933 235.724 5.556C235.532 5.73733 235.34 5.828 235.148 5.828C234.956 5.81733 234.78 5.75333 234.62 5.636C234.46 5.51867 234.322 5.36933 234.204 5.188C234.098 4.996 234.028 4.804 233.996 4.612ZM238.604 12.596C238.604 12.9053 238.487 13.1827 238.252 13.428C238.028 13.6627 237.767 13.78 237.468 13.78C237.18 13.78 236.924 13.6627 236.7 13.428C236.476 13.172 236.364 12.8947 236.364 12.596C236.364 12.2653 236.476 11.988 236.7 11.764C236.924 11.5187 237.18 11.396 237.468 11.396C237.767 11.396 238.028 11.5187 238.252 11.764C238.487 11.9987 238.604 12.276 238.604 12.596Z" fill="black"/>
</svg>
