<svg width="163" height="16" viewBox="0 0 163 16" fill="none" xmlns="http://www.w3.org/2000/svg">
<path d="M8.95252 15.3599C8.28052 15.3599 7.68318 15.2373 7.16052 14.9919C6.64852 14.7573 6.24318 14.4319 5.94452 14.0159C5.65652 13.5999 5.51252 13.1199 5.51252 12.5759C5.51252 12.0533 5.67252 11.5786 5.99252 11.1519C6.31252 10.7253 6.73918 10.3893 7.27252 10.1439C7.80585 9.88795 8.38718 9.75994 9.01652 9.75994C9.65652 9.75994 10.2378 9.86661 10.7605 10.0799C11.2938 10.2826 11.7152 10.5919 12.0245 11.0079C12.3445 11.4133 12.4938 11.9146 12.4725 12.5119C12.4618 13.0666 12.2965 13.5573 11.9765 13.9839C11.6672 14.4106 11.2458 14.7466 10.7125 14.9919C10.1898 15.2373 9.60318 15.3599 8.95252 15.3599ZM1.38452 9.07195L0.984515 8.71995C0.941849 8.67728 0.957849 8.62928 1.03252 8.57594C1.04318 8.56528 1.04852 8.55995 1.04852 8.55995C1.81652 8.05861 2.48318 7.47728 3.04852 6.81595C3.61385 6.15461 4.05652 5.47195 4.37652 4.76795C4.69652 4.06395 4.87252 3.39728 4.90452 2.76795C4.75518 2.77861 4.59518 2.78928 4.42452 2.79994C4.25385 2.81061 4.06185 2.82661 3.84852 2.84795C3.52852 2.86928 3.25118 2.89061 3.01652 2.91195C2.79252 2.93328 2.53652 2.96528 2.24852 3.00795C2.14185 3.01861 2.07252 3.00795 2.04052 2.97595C2.00852 2.93328 1.98185 2.88528 1.96052 2.83195C1.94985 2.82128 1.94452 2.81061 1.94452 2.79994C1.91252 2.71461 1.88052 2.61861 1.84852 2.51194C1.82718 2.40528 1.80052 2.28261 1.76852 2.14394C1.75785 2.12261 1.76318 2.09595 1.78452 2.06394C1.80585 2.03195 1.84318 2.01595 1.89652 2.01595C2.15252 2.02661 2.43518 2.04261 2.74452 2.06394C3.05385 2.07461 3.36318 2.07461 3.67252 2.06394C4.14185 2.04261 4.61652 2.02661 5.09652 2.01595C5.58718 1.99461 6.07785 1.96261 6.56852 1.91994C6.96318 1.89861 7.33652 1.86661 7.68852 1.82395C8.04052 1.78128 8.35518 1.73328 8.63252 1.67994C8.66452 1.66928 8.70185 1.67461 8.74452 1.69594C8.78718 1.70661 8.81385 1.73861 8.82452 1.79195C8.84585 1.86661 8.86718 1.97861 8.88852 2.12794C8.90985 2.26661 8.92585 2.39995 8.93652 2.52795C8.93652 2.64528 8.87252 2.70395 8.74452 2.70395C8.63785 2.70395 8.53118 2.70395 8.42452 2.70395C8.31785 2.70395 8.20585 2.70395 8.08852 2.70395C7.86452 2.70395 7.63518 2.70395 7.40052 2.70395C7.16585 2.69328 6.92052 2.69328 6.66452 2.70395C6.55785 2.70395 6.45118 2.70928 6.34452 2.71994C6.24852 2.71994 6.15252 2.71994 6.05652 2.71994C6.01385 3.01861 5.93918 3.34928 5.83252 3.71195C5.72585 4.07461 5.57118 4.45861 5.36852 4.86395C5.79518 5.16261 6.23252 5.49328 6.68052 5.85595C7.13918 6.20795 7.54985 6.53861 7.91252 6.84795C8.28585 7.14661 8.54718 7.37595 8.69652 7.53595C8.74985 7.57861 8.78718 7.63195 8.80852 7.69595C8.84052 7.75995 8.82985 7.82928 8.77652 7.90395C8.75518 7.93595 8.70185 7.99461 8.61652 8.07995C8.53118 8.16528 8.44585 8.25061 8.36052 8.33595C8.27518 8.42128 8.21118 8.47995 8.16852 8.51195C8.08318 8.56528 8.01385 8.55995 7.96052 8.49595C7.75785 8.21861 7.48585 7.89861 7.14452 7.53595C6.81385 7.16261 6.46185 6.79995 6.08852 6.44795C5.72585 6.08528 5.37918 5.78128 5.04852 5.53594C4.72852 6.12261 4.31785 6.71995 3.81652 7.32795C3.31518 7.92528 2.66985 8.50128 1.88052 9.05595C1.82718 9.09861 1.75785 9.13595 1.67252 9.16795C1.58718 9.18928 1.49118 9.15728 1.38452 9.07195ZM8.98452 14.5279C9.65652 14.5066 10.2218 14.3253 10.6805 13.9839C11.1498 13.6426 11.3952 13.1466 11.4165 12.4959C11.4378 12.0693 11.3365 11.7119 11.1125 11.4239C10.8992 11.1359 10.6058 10.9173 10.2325 10.7679C9.86985 10.6079 9.45918 10.5279 9.00052 10.5279C8.54185 10.5386 8.12585 10.6346 7.75252 10.8159C7.38985 10.9866 7.09652 11.2213 6.87252 11.5199C6.64852 11.8186 6.53652 12.1653 6.53652 12.5599C6.53652 12.9653 6.64318 13.3173 6.85652 13.6159C7.08052 13.9039 7.37385 14.1279 7.73652 14.2879C8.10985 14.4479 8.52585 14.5279 8.98452 14.5279ZM11.3845 9.53595C11.3418 9.53595 11.3205 9.50928 11.3205 9.45595V5.27995C11.1285 5.29061 10.9418 5.30128 10.7605 5.31194C10.5792 5.32261 10.4085 5.33328 10.2485 5.34395C9.99252 5.35461 9.69918 5.38128 9.36852 5.42395C9.03785 5.45595 8.74452 5.48794 8.48852 5.51995C8.37118 5.54128 8.29118 5.53595 8.24852 5.50395C8.20585 5.47195 8.17385 5.42395 8.15252 5.35995C8.10985 5.22128 8.07252 5.09328 8.04052 4.97595C8.01918 4.84795 7.99785 4.73061 7.97652 4.62395C7.97652 4.53861 8.01918 4.50661 8.10452 4.52795C8.27518 4.54928 8.54185 4.56528 8.90452 4.57594C9.27785 4.57594 9.68318 4.57061 10.1205 4.55995C10.5578 4.53861 10.9578 4.51728 11.3205 4.49594V2.51194C11.3205 2.10661 11.3045 1.73328 11.2725 1.39194C11.2512 1.05061 11.2138 0.826612 11.1605 0.719945C11.1392 0.666612 11.1392 0.629279 11.1605 0.607945C11.1925 0.575945 11.2298 0.559945 11.2725 0.559945C11.3898 0.559945 11.5498 0.559945 11.7525 0.559945C11.9552 0.559945 12.1418 0.565278 12.3125 0.575945C12.3658 0.575945 12.3925 0.618612 12.3925 0.703945C12.3605 1.09861 12.3392 1.44528 12.3285 1.74395C12.3285 2.03195 12.3285 2.36795 12.3285 2.75195V9.13595C12.3285 9.29595 12.3178 9.39195 12.2965 9.42395C12.2858 9.45595 12.2538 9.47728 12.2005 9.48795L11.3845 9.53595Z" fill="black"/>
<path d="M15.3026 9.18394L14.9026 8.83195C14.86 8.78928 14.876 8.74128 14.9506 8.68795C14.9613 8.67728 14.9666 8.67195 14.9666 8.67195C15.564 8.27728 16.124 7.78128 16.6466 7.18395C17.18 6.57595 17.6546 5.94128 18.0706 5.27995C18.4866 4.61861 18.812 3.99994 19.0466 3.42395C19.1213 3.24261 19.1853 3.03461 19.2386 2.79994C19.3026 2.55461 19.3506 2.31995 19.3826 2.09595C19.4253 1.87195 19.4466 1.69061 19.4466 1.55194C19.4466 1.45594 19.5 1.41328 19.6066 1.42395C19.724 1.44528 19.8893 1.48794 20.1026 1.55194C20.316 1.61595 20.5026 1.67461 20.6626 1.72795C20.7266 1.75994 20.7426 1.81861 20.7106 1.90394C20.636 2.11728 20.5346 2.39461 20.4066 2.73594C20.2786 3.07728 20.1613 3.37595 20.0546 3.63195C19.98 3.80261 19.8946 3.98395 19.7986 4.17595C19.7133 4.36795 19.612 4.57061 19.4946 4.78395C19.8146 5.02928 20.1666 5.30128 20.5506 5.59995C20.9453 5.88795 21.3293 6.17595 21.7026 6.46395C22.076 6.75195 22.4066 7.01328 22.6946 7.24795C22.9826 7.48261 23.1906 7.66395 23.3186 7.79195C23.3613 7.82395 23.3933 7.87728 23.4146 7.95195C23.4466 8.01595 23.436 8.08528 23.3826 8.15995C23.34 8.22395 23.2386 8.32528 23.0786 8.46395C22.9293 8.60261 22.8226 8.70395 22.7586 8.76795C22.6733 8.82128 22.6093 8.81061 22.5666 8.73594C22.4066 8.51194 22.1826 8.25061 21.8946 7.95195C21.6173 7.65328 21.3133 7.34395 20.9826 7.02395C20.6626 6.70395 20.3373 6.40528 20.0066 6.12795C19.676 5.85061 19.3826 5.62128 19.1266 5.43995C18.7746 6.02661 18.3266 6.64528 17.7826 7.29595C17.2493 7.93595 16.588 8.55461 15.7986 9.15195C15.7453 9.19461 15.676 9.23195 15.5906 9.26395C15.5053 9.29595 15.4093 9.26928 15.3026 9.18394ZM25.3026 11.0399C25.26 11.0399 25.2386 11.0133 25.2386 10.9599V2.51194C25.2386 2.10661 25.2226 1.73328 25.1906 1.39194C25.1693 1.05061 25.132 0.826612 25.0786 0.719945C25.0573 0.666612 25.0573 0.629279 25.0786 0.607945C25.1106 0.575945 25.148 0.559945 25.1906 0.559945C25.34 0.559945 25.516 0.559945 25.7186 0.559945C25.9213 0.559945 26.092 0.565278 26.2306 0.575945C26.284 0.575945 26.3106 0.618612 26.3106 0.703945C26.2786 1.09861 26.2573 1.44528 26.2466 1.74395C26.2466 2.03195 26.2466 2.36795 26.2466 2.75195V10.6399C26.2466 10.7999 26.236 10.8959 26.2146 10.9279C26.204 10.9599 26.172 10.9813 26.1186 10.9919L25.3026 11.0399ZM20.0706 14.7999C19.7293 14.7999 19.468 14.6719 19.2866 14.4159C19.116 14.1706 19.0306 13.8186 19.0306 13.3599V11.9359C19.0306 11.5626 19.0146 11.2533 18.9826 11.0079C18.9506 10.7626 18.9186 10.5866 18.8866 10.4799C18.8546 10.3733 18.892 10.3199 18.9986 10.3199C19.0626 10.3199 19.1693 10.3253 19.3186 10.3359C19.4786 10.3359 19.628 10.3413 19.7666 10.3519C19.916 10.3626 19.996 10.3679 20.0066 10.3679C20.06 10.3679 20.0866 10.4213 20.0866 10.5279C20.0653 10.7733 20.0493 10.9919 20.0386 11.1839C20.0386 11.3653 20.0386 11.5946 20.0386 11.8719V13.2639C20.0386 13.5306 20.0706 13.7173 20.1346 13.8239C20.2093 13.9199 20.3266 13.9733 20.4866 13.9839C20.7853 13.9946 21.148 13.9999 21.5746 13.9999C22.012 14.0106 22.4653 14.0106 22.9346 13.9999C23.4146 13.9786 23.868 13.9573 24.2946 13.9359C24.7426 13.9146 25.2066 13.8773 25.6866 13.8239C26.1666 13.7599 26.5346 13.6959 26.7906 13.6319C26.8973 13.6106 26.9666 13.6159 26.9986 13.6479C27.0306 13.6799 27.052 13.7226 27.0626 13.7759L27.1906 14.5279C27.1906 14.5813 27.1746 14.6239 27.1426 14.6559C27.1213 14.6879 27.036 14.7039 26.8866 14.7039C25.8306 14.7039 24.7426 14.7199 23.6226 14.7519C22.5026 14.7839 21.3186 14.7999 20.0706 14.7999Z" fill="black"/>
<path d="M34.4496 9.98395L34.0976 9.63195C34.055 9.58928 34.071 9.53594 34.1456 9.47194C34.7963 9.16261 35.4416 8.75728 36.0816 8.25595C36.7323 7.75461 37.3296 7.19995 37.8736 6.59195C38.4176 5.98395 38.871 5.36528 39.2336 4.73594C39.5963 4.10661 39.8203 3.50928 39.9056 2.94394C39.9163 2.82661 39.8736 2.76795 39.7776 2.76795L36.6416 2.95994L35.0896 3.10394C34.983 3.11461 34.9136 3.10395 34.8816 3.07195C34.8496 3.02928 34.823 2.98128 34.8016 2.92795C34.791 2.91728 34.7856 2.90661 34.7856 2.89595C34.743 2.77861 34.711 2.68261 34.6896 2.60795C34.6683 2.52261 34.6363 2.38928 34.5936 2.20794C34.583 2.18661 34.5883 2.15995 34.6096 2.12794C34.631 2.09594 34.6683 2.08528 34.7216 2.09595C35.191 2.13861 35.6976 2.15995 36.2416 2.15995C36.7856 2.14928 37.3296 2.12794 37.8736 2.09595C38.4176 2.05328 38.9243 2.00528 39.3936 1.95195C39.511 1.93061 39.6443 1.90928 39.7936 1.88795C39.943 1.85594 40.023 1.83994 40.0336 1.83994C40.087 1.81861 40.1456 1.81861 40.2096 1.83994C40.295 1.86128 40.407 1.90395 40.5456 1.96795C40.6843 2.02128 40.8123 2.07461 40.9296 2.12794C41.047 2.18128 41.1163 2.21328 41.1376 2.22394C41.2443 2.26661 41.2816 2.33594 41.2496 2.43194C41.175 2.65595 41.1056 2.85328 41.0416 3.02394C40.9776 3.18395 40.8923 3.38661 40.7856 3.63195C40.615 4.02661 40.375 4.49061 40.0656 5.02394C39.7563 5.54661 39.367 6.10128 38.8976 6.68795C38.4283 7.27461 37.8683 7.85061 37.2176 8.41595C36.567 8.98128 35.815 9.50395 34.9616 9.98395C34.8763 10.0373 34.791 10.0693 34.7056 10.0799C34.6203 10.0906 34.535 10.0586 34.4496 9.98395ZM44.1776 11.0399C44.135 11.0399 44.1136 11.0133 44.1136 10.9599V6.06395C43.879 6.07461 43.6656 6.09061 43.4736 6.11195C43.2816 6.12261 43.1056 6.13328 42.9456 6.14395C42.6043 6.16528 42.295 6.19195 42.0176 6.22395C41.7403 6.24528 41.3776 6.28261 40.9296 6.33595C40.8123 6.34661 40.7323 6.34128 40.6896 6.31995C40.647 6.28795 40.615 6.23995 40.5936 6.17595C40.551 6.03728 40.5136 5.90928 40.4816 5.79195C40.4603 5.66395 40.439 5.54661 40.4176 5.43995C40.4176 5.35461 40.4603 5.32261 40.5456 5.34395C40.6736 5.36528 40.8763 5.38128 41.1536 5.39194C41.431 5.39194 41.7456 5.39194 42.0976 5.39194C42.4496 5.38128 42.8016 5.37061 43.1536 5.35995C43.5056 5.33861 43.8256 5.31728 44.1136 5.29595V2.51194C44.1136 2.10661 44.0976 1.73328 44.0656 1.39194C44.0443 1.05061 44.007 0.826612 43.9536 0.719945C43.9323 0.666612 43.9323 0.629279 43.9536 0.607945C43.9856 0.575945 44.023 0.559945 44.0656 0.559945C44.215 0.559945 44.391 0.559945 44.5936 0.559945C44.7963 0.559945 44.967 0.565278 45.1056 0.575945C45.159 0.575945 45.1856 0.618612 45.1856 0.703945C45.1536 1.09861 45.1323 1.44528 45.1216 1.74395C45.1216 2.03195 45.1216 2.36795 45.1216 2.75195V10.6399C45.1216 10.7999 45.111 10.8959 45.0896 10.9279C45.079 10.9599 45.047 10.9813 44.9936 10.9919L44.1776 11.0399ZM38.9456 14.7999C38.6043 14.7999 38.343 14.6719 38.1616 14.4159C37.991 14.1706 37.9056 13.8186 37.9056 13.3599V11.9359C37.9056 11.5626 37.8896 11.2533 37.8576 11.0079C37.8256 10.7626 37.7936 10.5866 37.7616 10.4799C37.7296 10.3733 37.767 10.3199 37.8736 10.3199C37.9376 10.3199 38.0443 10.3253 38.1936 10.3359C38.3536 10.3359 38.503 10.3413 38.6416 10.3519C38.791 10.3626 38.871 10.3679 38.8816 10.3679C38.935 10.3679 38.9616 10.4213 38.9616 10.5279C38.9403 10.7733 38.9243 10.9919 38.9136 11.1839C38.9136 11.3653 38.9136 11.5946 38.9136 11.8719V13.2639C38.9136 13.5306 38.9456 13.7173 39.0096 13.8239C39.0843 13.9199 39.2016 13.9733 39.3616 13.9839C39.6603 13.9946 40.023 13.9999 40.4496 13.9999C40.887 14.0106 41.3403 14.0106 41.8096 13.9999C42.2896 13.9786 42.743 13.9573 43.1696 13.9359C43.6176 13.9146 44.0816 13.8773 44.5616 13.8239C45.0416 13.7599 45.4096 13.6959 45.6656 13.6319C45.7723 13.6106 45.8416 13.6159 45.8736 13.6479C45.9056 13.6799 45.927 13.7226 45.9376 13.7759L46.0656 14.5279C46.0656 14.5813 46.0496 14.6239 46.0176 14.6559C45.9963 14.6879 45.911 14.7039 45.7616 14.7039C44.7056 14.7039 43.6176 14.7199 42.4976 14.7519C41.3776 14.7839 40.1936 14.7999 38.9456 14.7999Z" fill="black"/>
<path d="M55.0313 15.3599C54.3593 15.3599 53.7619 15.2373 53.2393 14.9919C52.7273 14.7573 52.3219 14.4319 52.0233 14.0159C51.7353 13.5999 51.5913 13.1199 51.5913 12.5759C51.5913 12.0533 51.7513 11.5786 52.0713 11.1519C52.3913 10.7253 52.8179 10.3893 53.3513 10.1439C53.8846 9.88795 54.4659 9.75994 55.0953 9.75994C55.7353 9.75994 56.3166 9.86661 56.8393 10.0799C57.3726 10.2826 57.7939 10.5919 58.1033 11.0079C58.4233 11.4133 58.5726 11.9146 58.5513 12.5119C58.5406 13.0666 58.3753 13.5573 58.0553 13.9839C57.7459 14.4106 57.3246 14.7466 56.7913 14.9919C56.2686 15.2373 55.6819 15.3599 55.0313 15.3599ZM55.0633 14.5279C55.7353 14.5066 56.3006 14.3253 56.7593 13.9839C57.2286 13.6426 57.4739 13.1466 57.4953 12.4959C57.5166 12.0693 57.4153 11.7119 57.1913 11.4239C56.9779 11.1359 56.6846 10.9173 56.3113 10.7679C55.9486 10.6079 55.5379 10.5279 55.0793 10.5279C54.6313 10.5386 54.2206 10.6346 53.8473 10.8159C53.4739 10.9866 53.1753 11.2213 52.9513 11.5199C52.7273 11.8186 52.6153 12.1653 52.6153 12.5599C52.6153 12.9653 52.7219 13.3173 52.9353 13.6159C53.1593 13.9039 53.4579 14.1279 53.8313 14.2879C54.2046 14.4479 54.6153 14.5279 55.0633 14.5279ZM48.2153 9.82395L47.8633 9.47194C47.8206 9.42928 47.8366 9.37595 47.9113 9.31194C48.5619 9.00261 49.2019 8.60261 49.8313 8.11195C50.4713 7.62128 51.0579 7.07728 51.5913 6.47995C52.1246 5.88261 52.5673 5.27461 52.9193 4.65594C53.2713 4.02661 53.4899 3.42928 53.5753 2.86395C53.5966 2.73595 53.5539 2.67728 53.4473 2.68795L50.4073 2.87994L48.8553 3.02394C48.7486 3.03461 48.6793 3.02394 48.6473 2.99195C48.6153 2.94928 48.5886 2.90128 48.5673 2.84795C48.5566 2.83728 48.5513 2.82661 48.5513 2.81594C48.5086 2.69861 48.4766 2.60261 48.4553 2.52795C48.4339 2.44261 48.4019 2.30928 48.3593 2.12794C48.3486 2.10661 48.3539 2.07995 48.3753 2.04795C48.3966 2.01594 48.4339 2.00528 48.4873 2.01595C49.1806 2.07995 49.9379 2.09061 50.7593 2.04795C51.5913 2.00528 52.3646 1.94661 53.0793 1.87195C53.1966 1.85061 53.3299 1.82928 53.4793 1.80795C53.6286 1.77595 53.7086 1.75994 53.7193 1.75994C53.7726 1.73861 53.8313 1.73861 53.8953 1.75994C53.9806 1.78128 54.0926 1.82395 54.2313 1.88795C54.3699 1.94128 54.4979 1.99461 54.6153 2.04795C54.7326 2.09061 54.8019 2.12261 54.8233 2.14394C54.9299 2.19728 54.9673 2.26661 54.9353 2.35194C54.8606 2.57595 54.7913 2.77861 54.7273 2.95994C54.6633 3.13061 54.5779 3.33861 54.4713 3.58395C54.2473 4.13861 53.9006 4.77861 53.4313 5.50395C52.9726 6.22928 52.3593 6.97061 51.5913 7.72795C50.8233 8.47461 49.8686 9.17328 48.7273 9.82395C48.6419 9.87728 48.5566 9.90928 48.4713 9.91994C48.3859 9.93061 48.3006 9.89861 48.2153 9.82395ZM57.4633 9.53595C57.4206 9.53595 57.3993 9.50928 57.3993 9.45595V2.51194C57.3993 2.10661 57.3833 1.73328 57.3513 1.39194C57.3299 1.05061 57.2926 0.826612 57.2393 0.719945C57.2179 0.666612 57.2179 0.629279 57.2393 0.607945C57.2713 0.575945 57.3086 0.559945 57.3513 0.559945C57.4686 0.559945 57.6286 0.559945 57.8313 0.559945C58.0339 0.559945 58.2206 0.565278 58.3913 0.575945C58.4446 0.575945 58.4713 0.618612 58.4713 0.703945C58.4393 1.09861 58.4179 1.44528 58.4073 1.74395C58.4073 2.03195 58.4073 2.36795 58.4073 2.75195V4.84795C58.6953 4.84795 59.0099 4.83728 59.3513 4.81595C59.6926 4.79461 60.0073 4.76794 60.2953 4.73594C60.5939 4.70395 60.8179 4.66661 60.9673 4.62395C61.0633 4.61328 61.1166 4.64528 61.1273 4.71994C61.1486 4.85861 61.1593 4.99728 61.1593 5.13595C61.1699 5.27461 61.1806 5.41328 61.1913 5.55195C61.1913 5.66928 61.1433 5.72795 61.0473 5.72795C60.8979 5.70661 60.6686 5.69594 60.3593 5.69594C60.0499 5.68528 59.7193 5.67994 59.3673 5.67994C59.0259 5.67994 58.7059 5.69061 58.4073 5.71195V9.13595C58.4073 9.29595 58.3966 9.39195 58.3753 9.42395C58.3646 9.45595 58.3326 9.47728 58.2793 9.48795L57.4633 9.53595Z" fill="black"/>
<path d="M71.9069 6.44795C71.2989 6.45861 70.7389 6.35728 70.2269 6.14395C69.7256 5.93061 69.3256 5.62661 69.0269 5.23195C68.7282 4.82661 68.5789 4.35728 68.5789 3.82395C68.5789 3.31195 68.7282 2.85328 69.0269 2.44794C69.3362 2.03194 69.7416 1.70128 70.2429 1.45595C70.7549 1.21061 71.3149 1.08794 71.9229 1.08794C72.5522 1.06661 73.1176 1.15728 73.6189 1.35995C74.1309 1.56261 74.5362 1.86128 74.8349 2.25595C75.1336 2.65061 75.2829 3.13061 75.2829 3.69594C75.2829 4.23994 75.1282 4.71461 74.8189 5.11995C74.5096 5.52528 74.0989 5.84528 73.5869 6.07995C73.0749 6.30395 72.5149 6.42661 71.9069 6.44795ZM71.9389 5.69594C72.5896 5.67461 73.1336 5.48261 73.5709 5.11995C74.0082 4.74661 74.2269 4.27194 74.2269 3.69594C74.2269 3.06661 74.0029 2.59728 73.5549 2.28794C73.1176 1.96795 72.5682 1.81861 71.9069 1.83994C71.2456 1.86128 70.7016 2.05328 70.2749 2.41595C69.8482 2.77861 69.6349 3.24261 69.6349 3.80795C69.6349 4.41595 69.8536 4.89594 70.2909 5.24794C70.7389 5.58928 71.2882 5.73861 71.9389 5.69594ZM77.6989 14.1119C77.6562 14.1119 77.6349 14.0853 77.6349 14.0319V2.52795C77.6349 2.12261 77.6189 1.74928 77.5869 1.40794C77.5656 1.06661 77.5282 0.842611 77.4749 0.735945C77.4536 0.682611 77.4536 0.645278 77.4749 0.623945C77.5069 0.591945 77.5442 0.575945 77.5869 0.575945L78.6269 0.591945C78.6802 0.613278 78.7069 0.655945 78.7069 0.719945C78.6749 1.11461 78.6536 1.46128 78.6429 1.75994C78.6429 2.04795 78.6429 2.38395 78.6429 2.76795V13.7119C78.6429 13.8719 78.6322 13.9679 78.6109 13.9999C78.6002 14.0319 78.5682 14.0533 78.5149 14.0639C78.4829 14.0639 78.4082 14.0639 78.2909 14.0639C78.1736 14.0746 78.0562 14.0853 77.9389 14.0959C77.8216 14.1066 77.7416 14.1119 77.6989 14.1119ZM70.8989 13.8879C70.8669 13.8879 70.8349 13.8826 70.8029 13.8719C70.7816 13.8506 70.7816 13.8026 70.8029 13.7279C70.8882 13.4826 70.9682 13.1573 71.0429 12.7519C71.1176 12.3466 71.1762 11.9093 71.2189 11.4399C71.2722 10.9706 71.3096 10.5119 71.3309 10.0639C71.3522 9.61595 71.3576 9.23195 71.3469 8.91195L70.6749 8.94394L67.7149 9.11995C67.5976 9.13061 67.5229 9.12528 67.4909 9.10394C67.4589 9.08261 67.4269 9.02395 67.3949 8.92795C67.3522 8.81061 67.3149 8.70395 67.2829 8.60795C67.2616 8.51195 67.2296 8.37328 67.1869 8.19195C67.1762 8.17061 67.1816 8.14395 67.2029 8.11195C67.2242 8.07995 67.2616 8.06928 67.3149 8.07995C67.5389 8.12261 67.9389 8.14928 68.5149 8.15995C69.1016 8.17061 69.7416 8.16528 70.4349 8.14395C71.1709 8.11195 71.9336 8.06928 72.7229 8.01595C73.5229 7.96261 74.2909 7.88795 75.0269 7.79195C75.7736 7.69595 76.4242 7.57861 76.9789 7.43995C77.0536 7.40795 77.1016 7.43461 77.1229 7.51995L77.1869 7.95195C77.2082 8.04795 77.1976 8.11195 77.1549 8.14395C77.1229 8.17595 77.0749 8.20261 77.0109 8.22395C76.7869 8.28795 76.4242 8.36261 75.9229 8.44795C75.4216 8.52261 74.8562 8.59195 74.2269 8.65594C73.6082 8.71994 73.0002 8.77328 72.4029 8.81595C72.4029 9.10395 72.3922 9.45061 72.3709 9.85595C72.3496 10.2506 72.3176 10.6666 72.2749 11.1039C72.2322 11.5306 72.1789 11.9466 72.1149 12.3519C72.0509 12.7573 71.9816 13.1093 71.9069 13.4079C71.8536 13.5893 71.7896 13.7066 71.7149 13.7599C71.6402 13.8133 71.5656 13.8453 71.4909 13.8559C71.4056 13.8666 71.3096 13.8773 71.2029 13.8879C71.0962 13.8879 70.9949 13.8879 70.8989 13.8879Z" fill="black"/>
<path d="M81.761 11.5679L81.377 11.2159C81.3343 11.1733 81.3504 11.1199 81.425 11.0559C81.9584 10.7786 82.497 10.4213 83.041 9.98395C83.5957 9.53595 84.1237 9.03995 84.625 8.49595C85.137 7.94128 85.601 7.36528 86.017 6.76795C86.433 6.17061 86.7743 5.57328 87.041 4.97595C87.3077 4.36795 87.473 3.79194 87.537 3.24794C87.5584 3.13061 87.5103 3.07195 87.393 3.07195L84.097 3.26395L82.433 3.40794C82.3263 3.41861 82.257 3.40795 82.225 3.37595C82.193 3.33328 82.1663 3.28528 82.145 3.23195C82.1343 3.22128 82.129 3.21061 82.129 3.19995C82.0863 3.08261 82.0543 2.98661 82.033 2.91195C82.0117 2.82661 81.9797 2.69328 81.937 2.51194C81.9263 2.49061 81.9317 2.46395 81.953 2.43194C81.9744 2.39995 82.0117 2.38928 82.065 2.39995C82.5344 2.44261 83.073 2.46395 83.681 2.46395C84.289 2.45328 84.897 2.43194 85.505 2.39995C86.1237 2.35728 86.6677 2.30928 87.137 2.25595C87.265 2.24528 87.4037 2.22395 87.553 2.19195C87.7023 2.15994 87.777 2.14394 87.777 2.14394C87.8303 2.12261 87.889 2.12261 87.953 2.14394L88.833 2.43194C88.9183 2.47461 88.9557 2.54394 88.945 2.63995L88.577 3.82395C88.4277 4.29328 88.1824 4.85328 87.841 5.50395C87.5104 6.15461 87.0837 6.84261 86.561 7.56795C86.0383 8.28261 85.4197 8.98661 84.705 9.67994C83.9904 10.3733 83.1797 11.0026 82.273 11.5679C82.1877 11.6213 82.1023 11.6533 82.017 11.6639C81.9317 11.6746 81.8464 11.6426 81.761 11.5679ZM91.297 14.1599C91.2544 14.1599 91.233 14.1333 91.233 14.0799V2.52795C91.233 2.12261 91.217 1.74928 91.185 1.40794C91.1637 1.05594 91.1263 0.826612 91.073 0.719945C91.0517 0.666612 91.0517 0.629279 91.073 0.607945C91.105 0.575945 91.1423 0.559945 91.185 0.559945C91.249 0.559945 91.3557 0.565278 91.505 0.575945C91.665 0.575945 91.8197 0.581278 91.969 0.591945C92.1184 0.591945 92.2037 0.591945 92.225 0.591945C92.2783 0.591945 92.305 0.634611 92.305 0.719945C92.273 1.11461 92.2517 1.46128 92.241 1.75994C92.241 2.04795 92.241 2.38395 92.241 2.76795V13.7599C92.241 13.9199 92.2303 14.0159 92.209 14.0479C92.1983 14.0799 92.1663 14.1013 92.113 14.1119L91.297 14.1599Z" fill="black"/>
<path d="M107.332 15.3599C106.66 15.3599 106.063 15.2373 105.54 14.9919C105.028 14.7573 104.623 14.4319 104.324 14.0159C104.036 13.5999 103.892 13.1199 103.892 12.5759C103.892 12.0533 104.052 11.5786 104.372 11.1519C104.692 10.7253 105.119 10.3893 105.652 10.1439C106.185 9.88795 106.767 9.75994 107.396 9.75994C108.036 9.75994 108.617 9.86661 109.14 10.0799C109.673 10.2826 110.095 10.5919 110.404 11.0079C110.724 11.4133 110.873 11.9146 110.852 12.5119C110.841 13.0666 110.676 13.5573 110.356 13.9839C110.047 14.4106 109.625 14.7466 109.092 14.9919C108.569 15.2373 107.983 15.3599 107.332 15.3599ZM107.364 14.5279C108.036 14.5066 108.601 14.3253 109.06 13.9839C109.529 13.6426 109.775 13.1466 109.796 12.4959C109.817 12.0693 109.716 11.7119 109.492 11.4239C109.279 11.1359 108.985 10.9173 108.612 10.7679C108.249 10.6079 107.839 10.5279 107.38 10.5279C106.932 10.5386 106.521 10.6346 106.148 10.8159C105.775 10.9866 105.476 11.2213 105.252 11.5199C105.028 11.8186 104.916 12.1653 104.916 12.5599C104.916 12.9653 105.023 13.3173 105.236 13.6159C105.46 13.9039 105.759 14.1279 106.132 14.2879C106.505 14.4479 106.916 14.5279 107.364 14.5279ZM100.084 8.86395L99.6839 8.51195C99.6412 8.46928 99.6572 8.42128 99.7319 8.36795C99.7426 8.35728 99.7479 8.35195 99.7479 8.35195C100.345 7.95728 100.911 7.47728 101.444 6.91195C101.988 6.33595 102.468 5.73328 102.884 5.10394C103.3 4.46394 103.609 3.85061 103.812 3.26395C103.897 3.08261 103.972 2.87461 104.036 2.63995C104.1 2.39461 104.148 2.15995 104.18 1.93595C104.212 1.71195 104.228 1.53061 104.228 1.39194C104.228 1.29594 104.281 1.25328 104.388 1.26394C104.505 1.28528 104.671 1.32795 104.884 1.39194C105.097 1.45594 105.284 1.51461 105.444 1.56795C105.508 1.59995 105.524 1.65861 105.492 1.74395C105.417 1.95728 105.316 2.23461 105.188 2.57594C105.071 2.91728 104.959 3.21594 104.852 3.47194C104.799 3.59995 104.735 3.73861 104.66 3.88795C104.596 4.02661 104.521 4.17061 104.436 4.31995C104.756 4.55461 105.092 4.81061 105.444 5.08794C105.807 5.35461 106.153 5.62128 106.484 5.88795C106.825 6.14395 107.124 6.37861 107.38 6.59195C107.636 6.80528 107.823 6.97061 107.94 7.08795C107.983 7.11995 108.015 7.17328 108.036 7.24795C108.068 7.31195 108.057 7.38128 108.004 7.45595C107.961 7.51995 107.86 7.62128 107.7 7.75995C107.551 7.89861 107.444 7.99995 107.38 8.06395C107.295 8.11728 107.231 8.10661 107.188 8.03195C107.007 7.75461 106.735 7.42928 106.372 7.05595C106.02 6.68261 105.636 6.30928 105.22 5.93595C104.815 5.55195 104.436 5.22661 104.084 4.95995C103.721 5.55728 103.257 6.19195 102.692 6.86395C102.127 7.53595 101.423 8.19195 100.58 8.83195C100.527 8.87461 100.457 8.91195 100.372 8.94394C100.287 8.97594 100.191 8.94928 100.084 8.86395ZM109.764 9.53595C109.721 9.53595 109.7 9.50928 109.7 9.45595V2.51194C109.7 2.10661 109.684 1.73328 109.652 1.39194C109.631 1.05061 109.593 0.826612 109.54 0.719945C109.519 0.666612 109.519 0.629279 109.54 0.607945C109.572 0.575945 109.609 0.559945 109.652 0.559945C109.769 0.559945 109.929 0.559945 110.132 0.559945C110.335 0.559945 110.521 0.565278 110.692 0.575945C110.745 0.575945 110.772 0.618612 110.772 0.703945C110.74 1.09861 110.719 1.44528 110.708 1.74395C110.708 2.03195 110.708 2.36795 110.708 2.75195V4.84795C110.996 4.84795 111.311 4.83728 111.652 4.81595C111.993 4.79461 112.308 4.76794 112.596 4.73594C112.895 4.70395 113.119 4.66661 113.268 4.62395C113.364 4.61328 113.417 4.64528 113.428 4.71994C113.449 4.85861 113.46 4.99728 113.46 5.13595C113.471 5.27461 113.481 5.41328 113.492 5.55195C113.492 5.66928 113.444 5.72795 113.348 5.72795C113.199 5.70661 112.969 5.69594 112.66 5.69594C112.351 5.68528 112.02 5.67994 111.668 5.67994C111.327 5.67994 111.007 5.69061 110.708 5.71195V9.13595C110.708 9.29595 110.697 9.39195 110.676 9.42395C110.665 9.45595 110.633 9.47728 110.58 9.48795L109.764 9.53595Z" fill="black"/>
<path d="M118.323 14.8799C118.301 14.8799 118.275 14.8746 118.243 14.8639C118.211 14.8533 118.195 14.8213 118.195 14.7679C118.195 14.7466 118.195 14.6933 118.195 14.6079C118.195 14.5119 118.195 14.3573 118.195 14.1439C118.205 13.9306 118.205 13.6159 118.195 13.1999C118.195 12.7839 118.189 12.2293 118.179 11.5359C118.179 11.2586 118.147 10.9706 118.083 10.6719C118.029 10.3733 117.976 10.1866 117.923 10.1119C117.88 10.0479 117.869 9.99461 117.891 9.95195C117.923 9.90928 117.976 9.88795 118.051 9.88795L119.075 9.91994C119.416 9.93061 119.843 9.93595 120.355 9.93595C120.867 9.93595 121.4 9.93061 121.955 9.91994C122.509 9.89861 123.011 9.87728 123.459 9.85595C123.917 9.83461 124.248 9.80795 124.451 9.77595C124.472 9.77595 124.493 9.77061 124.515 9.75994C124.589 9.74928 124.653 9.74928 124.707 9.75994L125.555 9.87195C125.64 9.88261 125.672 9.94661 125.651 10.0639C125.64 10.2026 125.624 10.3839 125.603 10.6079C125.592 10.8213 125.581 11.0346 125.571 11.2479C125.56 11.4506 125.555 11.6053 125.555 11.7119L125.507 14.5919C125.507 14.7413 125.427 14.8159 125.267 14.8159C124.968 14.8053 124.589 14.7999 124.131 14.7999C123.672 14.7999 123.187 14.7999 122.675 14.7999C122.163 14.7999 121.661 14.7999 121.171 14.7999C120.68 14.7999 120.248 14.7999 119.875 14.7999C119.501 14.8106 119.229 14.8213 119.059 14.8319L118.323 14.8799ZM119.155 13.9519C119.304 13.9626 119.555 13.9733 119.907 13.9839C120.269 13.9839 120.68 13.9839 121.139 13.9839C121.597 13.9733 122.056 13.9626 122.515 13.9519C122.973 13.9413 123.384 13.9306 123.747 13.9199C124.109 13.9093 124.371 13.8933 124.531 13.8719L124.563 10.7999C124.563 10.7253 124.552 10.6826 124.531 10.6719C124.509 10.6506 124.472 10.6399 124.419 10.6399L119.155 10.7039V13.9519ZM116.355 7.95195C116.12 7.95195 115.939 7.83995 115.811 7.61595C115.683 7.39195 115.619 7.10928 115.619 6.76795V3.69594C115.619 3.34394 115.587 3.00795 115.523 2.68795C115.459 2.35728 115.4 2.15461 115.347 2.07994C115.315 2.02661 115.315 1.97861 115.347 1.93595C115.379 1.88261 115.416 1.85594 115.459 1.85594L116.547 1.91994C116.963 1.91994 117.443 1.91461 117.987 1.90394C118.541 1.89328 119.107 1.87195 119.683 1.83994C120.269 1.79728 120.824 1.74394 121.347 1.67994C121.379 1.66928 121.416 1.67461 121.459 1.69594C121.501 1.70661 121.528 1.73861 121.539 1.79195C121.56 1.91995 121.576 2.04795 121.587 2.17595C121.608 2.30394 121.619 2.38928 121.619 2.43194C121.64 2.54928 121.576 2.60795 121.427 2.60795H119.651C119.256 2.60795 118.781 2.62395 118.227 2.65594C117.672 2.67728 117.139 2.69861 116.627 2.71994V6.71995C116.627 6.82661 116.643 6.90128 116.675 6.94395C116.717 6.97595 116.765 6.99728 116.819 7.00795C117.149 7.02928 117.587 7.02395 118.131 6.99195C118.675 6.95995 119.267 6.90128 119.907 6.81595C120.557 6.71995 121.192 6.59728 121.811 6.44795C122.429 6.28795 122.973 6.09595 123.443 5.87195C123.549 5.82928 123.608 5.83995 123.619 5.90394L123.731 6.47995C123.741 6.58661 123.688 6.66661 123.571 6.71995C123.208 6.87995 122.749 7.03461 122.195 7.18395C121.651 7.32261 121.053 7.45061 120.403 7.56795C119.752 7.68528 119.08 7.78128 118.387 7.85595C117.693 7.91995 117.016 7.95195 116.355 7.95195ZM124.483 8.86395C124.44 8.86395 124.419 8.83728 124.419 8.78395V2.51194C124.419 2.10661 124.403 1.73328 124.371 1.39194C124.349 1.05061 124.312 0.826612 124.259 0.719945C124.237 0.666612 124.237 0.629279 124.259 0.607945C124.291 0.575945 124.328 0.559945 124.371 0.559945C124.477 0.559945 124.632 0.559945 124.835 0.559945C125.048 0.559945 125.24 0.565278 125.411 0.575945C125.464 0.575945 125.491 0.618612 125.491 0.703945C125.459 1.09861 125.437 1.44528 125.427 1.74395C125.427 2.03195 125.427 2.36795 125.427 2.75195V4.70395C125.715 4.70395 126.024 4.69328 126.355 4.67195C126.696 4.63995 127.011 4.60795 127.299 4.57594C127.597 4.53328 127.821 4.49061 127.971 4.44795C128.067 4.43728 128.12 4.46928 128.131 4.54395C128.152 4.68261 128.168 4.82128 128.179 4.95995C128.189 5.09861 128.2 5.23728 128.211 5.37595C128.211 5.49328 128.163 5.55195 128.067 5.55195C127.917 5.53061 127.688 5.51995 127.379 5.51995C127.069 5.50928 126.739 5.50395 126.387 5.50395C126.045 5.50395 125.725 5.51461 125.427 5.53594V8.46395C125.427 8.62395 125.416 8.71995 125.395 8.75195C125.384 8.78395 125.352 8.80528 125.299 8.81595L124.483 8.86395Z" fill="black"/>
<path d="M134.635 9.39194L134.235 9.03995C134.192 8.99728 134.208 8.94928 134.283 8.89595C134.293 8.88528 134.299 8.87995 134.299 8.87995C135.088 8.36795 135.765 7.77061 136.331 7.08795C136.907 6.40528 137.349 5.70128 137.659 4.97595C137.979 4.25061 138.144 3.56795 138.155 2.92795C138.005 2.93861 137.845 2.94928 137.675 2.95994C137.504 2.97061 137.312 2.98661 137.099 3.00795C136.779 3.02928 136.501 3.05061 136.267 3.07195C136.043 3.09328 135.787 3.12528 135.499 3.16794C135.392 3.17861 135.323 3.16794 135.291 3.13595C135.259 3.09328 135.232 3.04528 135.211 2.99195C135.2 2.98128 135.195 2.97061 135.195 2.95994C135.163 2.87461 135.131 2.77861 135.099 2.67195C135.077 2.56528 135.051 2.44261 135.019 2.30395C135.008 2.28261 135.013 2.25594 135.035 2.22394C135.056 2.19195 135.093 2.17595 135.147 2.17595C135.403 2.18661 135.685 2.20261 135.995 2.22394C136.304 2.23461 136.613 2.23461 136.923 2.22394C137.392 2.20261 137.867 2.18661 138.347 2.17595C138.837 2.15461 139.328 2.12261 139.819 2.07994C140.213 2.05861 140.587 2.02661 140.939 1.98394C141.291 1.94128 141.605 1.89328 141.883 1.83994C141.915 1.82928 141.952 1.83461 141.995 1.85594C142.037 1.86661 142.064 1.89861 142.075 1.95195C142.096 2.02661 142.117 2.13861 142.139 2.28794C142.16 2.42661 142.176 2.55995 142.187 2.68795C142.187 2.80528 142.123 2.86395 141.995 2.86395C141.888 2.86395 141.781 2.86395 141.675 2.86395C141.568 2.86395 141.456 2.86395 141.339 2.86395C141.115 2.86395 140.885 2.86395 140.651 2.86395C140.416 2.85328 140.171 2.85328 139.915 2.86395C139.808 2.86395 139.707 2.86395 139.611 2.86395C139.515 2.86395 139.419 2.86928 139.323 2.87994C139.28 3.17861 139.205 3.53061 139.099 3.93595C139.003 4.34128 138.837 4.76795 138.603 5.21595L138.587 5.24794C138.907 5.47195 139.237 5.72261 139.579 5.99995C139.931 6.26661 140.267 6.53328 140.587 6.79995C140.907 7.06661 141.189 7.31195 141.435 7.53595C141.68 7.74928 141.861 7.91995 141.979 8.04795C142.032 8.09061 142.069 8.14395 142.091 8.20795C142.123 8.27195 142.112 8.34128 142.059 8.41595C142.027 8.44795 141.968 8.50661 141.883 8.59195C141.797 8.67728 141.712 8.76261 141.627 8.84795C141.541 8.92261 141.477 8.97595 141.435 9.00795C141.349 9.06128 141.28 9.05595 141.227 8.99195C141.024 8.69328 140.752 8.35195 140.411 7.96795C140.069 7.58395 139.707 7.20528 139.323 6.83195C138.949 6.45861 138.597 6.14928 138.267 5.90394C137.947 6.47995 137.536 7.06661 137.035 7.66395C136.544 8.26128 135.909 8.83195 135.131 9.37595C135.077 9.41861 135.008 9.45595 134.923 9.48795C134.837 9.50928 134.741 9.47728 134.635 9.39194ZM144.635 11.0399C144.592 11.0399 144.571 11.0133 144.571 10.9599V5.67994C144.379 5.69061 144.192 5.70128 144.011 5.71195C143.829 5.72261 143.659 5.73328 143.499 5.74395C143.243 5.75461 142.949 5.78128 142.619 5.82395C142.288 5.85595 141.995 5.88795 141.739 5.91995C141.621 5.94128 141.541 5.93595 141.499 5.90394C141.456 5.87195 141.424 5.82395 141.403 5.75994C141.36 5.62128 141.323 5.49328 141.291 5.37595C141.269 5.24795 141.248 5.13061 141.227 5.02394C141.227 4.93861 141.269 4.90661 141.355 4.92795C141.525 4.94928 141.792 4.96528 142.155 4.97595C142.528 4.97595 142.933 4.97061 143.371 4.95995C143.808 4.93861 144.208 4.91728 144.571 4.89595V2.51194C144.571 2.10661 144.555 1.73328 144.523 1.39194C144.501 1.05061 144.464 0.826612 144.411 0.719945C144.389 0.666612 144.389 0.629279 144.411 0.607945C144.443 0.575945 144.48 0.559945 144.523 0.559945C144.672 0.559945 144.848 0.559945 145.051 0.559945C145.253 0.559945 145.424 0.565278 145.563 0.575945C145.616 0.575945 145.643 0.618612 145.643 0.703945C145.611 1.09861 145.589 1.44528 145.579 1.74395C145.579 2.03195 145.579 2.36795 145.579 2.75195V10.6399C145.579 10.7999 145.568 10.8959 145.547 10.9279C145.536 10.9599 145.504 10.9813 145.451 10.9919L144.635 11.0399ZM139.403 14.7999C139.061 14.7999 138.8 14.6719 138.619 14.4159C138.448 14.1706 138.363 13.8186 138.363 13.3599V11.9359C138.363 11.5626 138.347 11.2533 138.315 11.0079C138.283 10.7626 138.251 10.5866 138.219 10.4799C138.187 10.3733 138.224 10.3199 138.331 10.3199C138.395 10.3199 138.501 10.3253 138.651 10.3359C138.811 10.3359 138.96 10.3413 139.099 10.3519C139.248 10.3626 139.328 10.3679 139.339 10.3679C139.392 10.3679 139.419 10.4213 139.419 10.5279C139.397 10.7733 139.381 10.9919 139.371 11.1839C139.371 11.3653 139.371 11.5946 139.371 11.8719V13.2639C139.371 13.5306 139.403 13.7173 139.467 13.8239C139.541 13.9199 139.659 13.9733 139.819 13.9839C140.117 13.9946 140.48 13.9999 140.907 13.9999C141.344 14.0106 141.797 14.0106 142.267 13.9999C142.747 13.9786 143.2 13.9573 143.627 13.9359C144.075 13.9146 144.539 13.8773 145.019 13.8239C145.499 13.7599 145.867 13.6959 146.123 13.6319C146.229 13.6106 146.299 13.6159 146.331 13.6479C146.363 13.6799 146.384 13.7226 146.395 13.7759L146.523 14.5279C146.523 14.5813 146.507 14.6239 146.475 14.6559C146.453 14.6879 146.368 14.7039 146.219 14.7039C145.163 14.7039 144.075 14.7199 142.955 14.7519C141.835 14.7839 140.651 14.7999 139.403 14.7999Z" fill="black"/>
<path d="M148.809 11.8879C148.691 11.8986 148.617 11.8933 148.585 11.8719C148.553 11.8506 148.521 11.7919 148.489 11.6959C148.446 11.5786 148.409 11.4719 148.377 11.3759C148.355 11.2693 148.323 11.1253 148.281 10.9439C148.27 10.9226 148.275 10.8959 148.297 10.8639C148.318 10.8319 148.355 10.8213 148.409 10.8319C148.622 10.8746 149.017 10.8959 149.593 10.8959C150.179 10.8959 150.819 10.8853 151.513 10.8639C151.673 10.8639 151.843 10.8639 152.025 10.8639C152.217 10.8533 152.409 10.8426 152.601 10.8319L152.585 9.19995C152.051 9.13595 151.598 8.99195 151.225 8.76795C150.851 8.54395 150.569 8.27195 150.377 7.95195C150.185 7.62128 150.089 7.28528 150.089 6.94395C150.089 6.57061 150.19 6.20795 150.393 5.85595C150.595 5.49328 150.915 5.19461 151.353 4.95995C151.79 4.71461 152.361 4.58128 153.065 4.55995C154.014 4.53861 154.755 4.74661 155.289 5.18395C155.833 5.62128 156.094 6.18128 156.073 6.86395C156.062 7.20528 155.961 7.54128 155.769 7.87195C155.577 8.20261 155.299 8.48528 154.937 8.71995C154.585 8.95461 154.142 9.10928 153.609 9.18394L153.577 10.7679C154.345 10.7039 155.113 10.6186 155.881 10.5119C156.649 10.4053 157.299 10.2773 157.833 10.1279C157.907 10.0959 157.955 10.1226 157.977 10.2079L158.041 10.6559C158.051 10.7519 158.035 10.8159 157.993 10.8479C157.961 10.8799 157.913 10.9066 157.849 10.9279C157.625 10.9919 157.262 11.0666 156.761 11.1519C156.27 11.2266 155.721 11.3066 155.113 11.3919C154.505 11.4666 153.902 11.5306 153.305 11.5839C152.718 11.6373 152.206 11.6746 151.769 11.6959C151.193 11.7173 150.643 11.7493 150.121 11.7919C149.598 11.8239 149.161 11.8559 148.809 11.8879ZM158.569 14.1599C158.526 14.1599 158.505 14.1333 158.505 14.0799V2.49594C158.505 2.09061 158.489 1.71728 158.457 1.37595C158.435 1.03461 158.398 0.810612 158.345 0.703945C158.323 0.650612 158.323 0.613278 158.345 0.591945C158.377 0.559945 158.414 0.543945 158.457 0.543945L159.497 0.559945C159.55 0.581278 159.577 0.623945 159.577 0.687945C159.545 1.08261 159.523 1.42928 159.513 1.72795C159.513 2.01595 159.513 2.35195 159.513 2.73594V6.91195C159.801 6.91195 160.11 6.90128 160.441 6.87995C160.782 6.84795 161.097 6.81595 161.385 6.78395C161.673 6.74128 161.891 6.69861 162.041 6.65595C162.137 6.64528 162.19 6.67728 162.201 6.75195C162.222 6.89061 162.238 7.02928 162.249 7.16795C162.259 7.30661 162.27 7.44528 162.281 7.58395C162.281 7.70128 162.233 7.75995 162.137 7.75995C161.955 7.73861 161.699 7.72795 161.369 7.72795C161.038 7.72795 160.691 7.73328 160.329 7.74395C160.19 7.74395 160.051 7.74395 159.913 7.74395C159.774 7.74395 159.641 7.74395 159.513 7.74395V13.7599C159.513 13.9199 159.502 14.0159 159.481 14.0479C159.47 14.0799 159.438 14.1013 159.385 14.1119C159.353 14.1119 159.278 14.1119 159.161 14.1119C159.043 14.1226 158.926 14.1333 158.809 14.1439C158.691 14.1546 158.611 14.1599 158.569 14.1599ZM153.081 8.44795C153.689 8.42661 154.158 8.27195 154.489 7.98395C154.83 7.68528 155.011 7.31195 155.033 6.86395C155.033 6.65061 154.974 6.41595 154.857 6.15995C154.739 5.90395 154.537 5.68528 154.249 5.50395C153.971 5.32261 153.571 5.24261 153.049 5.26395C152.377 5.28528 151.881 5.46661 151.561 5.80795C151.241 6.14928 151.081 6.52261 151.081 6.92795C151.081 7.34395 151.257 7.70661 151.609 8.01595C151.971 8.32528 152.462 8.46928 153.081 8.44795ZM149.225 4.06394C149.118 4.07461 149.049 4.06395 149.017 4.03195C148.985 3.98928 148.958 3.94128 148.937 3.88795C148.926 3.87728 148.921 3.86661 148.921 3.85595C148.878 3.73861 148.846 3.63728 148.825 3.55194C148.803 3.46661 148.771 3.33328 148.729 3.15195C148.718 3.13061 148.723 3.10395 148.745 3.07195C148.766 3.03994 148.803 3.02928 148.857 3.03994C149.155 3.07194 149.507 3.10395 149.913 3.13595C150.329 3.15728 150.793 3.16261 151.305 3.15195C151.945 3.15195 152.595 3.14128 153.257 3.11995C153.929 3.09861 154.579 3.06128 155.209 3.00795C155.838 2.95461 156.403 2.88528 156.905 2.79994C156.937 2.78928 156.974 2.79461 157.017 2.81594C157.059 2.82661 157.086 2.85861 157.097 2.91195C157.107 2.97595 157.118 3.05061 157.129 3.13595C157.139 3.21061 157.15 3.29061 157.161 3.37595C157.171 3.41861 157.177 3.46661 157.177 3.51995C157.177 3.56261 157.177 3.61061 157.177 3.66395C157.198 3.78128 157.134 3.83994 156.985 3.83994C156.782 3.82928 156.526 3.82395 156.217 3.82395C155.918 3.81328 155.662 3.80795 155.449 3.80795C155.214 3.80795 154.894 3.81328 154.489 3.82395C154.094 3.83461 153.673 3.84528 153.225 3.85595C152.777 3.86661 152.355 3.88261 151.961 3.90394C151.566 3.91461 151.257 3.92528 151.033 3.93595C150.766 3.95728 150.462 3.97861 150.121 3.99995C149.79 4.02128 149.491 4.04261 149.225 4.06394ZM152.601 2.01595C152.451 1.99461 152.249 1.96795 151.993 1.93595C151.737 1.89328 151.486 1.83995 151.241 1.77594C150.995 1.70128 150.798 1.61061 150.649 1.50395C150.606 1.47195 150.595 1.40794 150.617 1.31194C150.638 1.20528 150.675 1.10928 150.729 1.02394C150.782 0.927945 150.835 0.890612 150.889 0.911945C151.358 0.997278 151.87 1.05594 152.425 1.08794C152.99 1.10928 153.523 1.11461 154.025 1.10394C154.537 1.08261 154.942 1.06128 155.241 1.03994C155.326 1.02928 155.379 1.03461 155.401 1.05595C155.422 1.06661 155.438 1.09861 155.449 1.15195C155.449 1.16261 155.449 1.17861 155.449 1.19995C155.449 1.29595 155.443 1.42928 155.433 1.59995C155.422 1.75994 155.385 1.85061 155.321 1.87195C155.257 1.89328 155.075 1.92528 154.777 1.96795C154.478 1.99995 154.131 2.02128 153.737 2.03195C153.342 2.04261 152.963 2.03728 152.601 2.01595Z" fill="black"/>
</svg>
