<svg width="171" height="28" viewBox="0 0 171 28" fill="none" xmlns="http://www.w3.org/2000/svg">
<g filter="url(#filter0_d_180_15)">
<path d="M20.484 5.382C20.3453 5.798 20.1633 6.344 19.938 7.02C19.73 7.67867 19.496 8.40667 19.236 9.204C18.976 10.0013 18.7073 10.8507 18.43 11.752C18.1527 12.636 17.8667 13.5027 17.572 14.352C17.2947 15.2013 17.0173 16.016 16.74 16.796C16.4627 17.5587 16.2113 18.226 15.986 18.798C15.9167 18.9367 15.7693 19.0493 15.544 19.136C15.336 19.2053 14.998 19.24 14.53 19.24C14.2353 19.24 13.932 19.2227 13.62 19.188C13.308 19.1533 13.0133 19.084 12.736 18.98C12.476 18.876 12.242 18.7373 12.034 18.564C11.8433 18.3907 11.696 18.174 11.592 17.914C11.332 17.03 11.0807 16.0507 10.838 14.976C10.6127 13.884 10.3873 12.7747 10.162 11.648C9.93667 10.5213 9.71133 9.42067 9.486 8.346C9.278 7.254 9.06133 6.266 8.836 5.382C8.836 5.62467 8.82733 6.04067 8.81 6.63C8.79267 7.21933 8.77533 7.904 8.758 8.684C8.74067 9.464 8.71467 10.3047 8.68 11.206C8.66267 12.1073 8.64533 12.9913 8.628 13.858C8.61067 14.7073 8.59333 15.5047 8.576 16.25C8.55867 16.978 8.55 17.576 8.55 18.044C8.55 18.564 8.51533 18.8933 8.446 19.032C8.394 19.1707 8.29 19.24 8.134 19.24H6.704C5.716 19.24 5.014 19.0493 4.598 18.668C4.19933 18.2693 4 17.6887 4 16.926C4 16.718 4.00867 16.3713 4.026 15.886C4.06067 15.3833 4.104 14.794 4.156 14.118C4.208 13.442 4.26 12.7053 4.312 11.908C4.38133 11.0933 4.45067 10.27 4.52 9.438C4.60667 8.31133 4.676 7.37533 4.728 6.63C4.79733 5.86733 4.84933 5.23467 4.884 4.732C4.91867 4.22933 4.94467 3.822 4.962 3.51C4.99667 3.198 5.014 2.92067 5.014 2.678C5.03133 2.43533 5.04 2.21 5.04 2.002C5.05733 1.77667 5.066 1.49933 5.066 1.17C5.066 1.03133 5.118 0.936 5.222 0.883999C5.326 0.814666 5.42133 0.779999 5.508 0.779999H9.148C9.824 0.779999 10.3787 0.892666 10.812 1.118C11.2453 1.326 11.6007 1.65533 11.878 2.106C12.1553 2.55667 12.3807 3.146 12.554 3.874C12.7273 4.58467 12.8833 5.434 13.022 6.422C13.178 7.41 13.3427 8.554 13.516 9.854C13.7067 11.1367 13.9493 12.584 14.244 14.196C14.5213 13.1213 14.7553 12.2287 14.946 11.518C15.1367 10.8073 15.2927 10.218 15.414 9.75C15.5527 9.26467 15.6653 8.866 15.752 8.554C15.8387 8.242 15.9167 7.956 15.986 7.696C16.0553 7.41867 16.1333 7.124 16.22 6.812C16.3067 6.5 16.4107 6.11 16.532 5.642C16.6533 5.174 16.8007 4.59333 16.974 3.9C17.1647 3.18933 17.3987 2.29667 17.676 1.222C17.7107 1.118 17.7713 1.02267 17.858 0.935999C17.9447 0.831999 18.1007 0.779999 18.326 0.779999H22.382C22.9367 0.779999 23.3787 0.840666 23.708 0.962C24.0547 1.066 24.3233 1.222 24.514 1.43C24.7047 1.638 24.8347 1.898 24.904 2.21C24.9733 2.50467 25.008 2.85133 25.008 3.25C25.008 3.64867 24.982 4.29867 24.93 5.2C24.8953 6.084 24.8347 7.08933 24.748 8.216C24.6787 9.32533 24.6007 10.478 24.514 11.674C24.4447 12.87 24.3667 13.9793 24.28 15.002C24.2107 16.0247 24.15 16.8913 24.098 17.602C24.046 18.3127 24.0113 18.7287 23.994 18.85C23.9767 18.9887 23.942 19.0927 23.89 19.162C23.838 19.214 23.734 19.24 23.578 19.24H22.148C21.16 19.24 20.458 19.0493 20.042 18.668C19.6433 18.2693 19.444 17.758 19.444 17.134C19.444 16.9433 19.4613 16.5967 19.496 16.094C19.548 15.5913 19.6087 15.002 19.678 14.326C19.7473 13.65 19.8253 12.9133 19.912 12.116C19.9987 11.3013 20.0767 10.4953 20.146 9.698C20.2153 8.90067 20.276 8.12933 20.328 7.384C20.3973 6.62133 20.4493 5.954 20.484 5.382Z" fill="#EDA1A1"/>
<path d="M33.2323 19.5C32.4697 19.5 31.707 19.4047 30.9443 19.214C30.199 19.0233 29.523 18.694 28.9163 18.226C28.327 17.758 27.8417 17.134 27.4603 16.354C27.079 15.574 26.8883 14.5947 26.8883 13.416C26.8883 12.9827 26.923 12.4627 26.9923 11.856C27.0617 11.2493 27.1917 10.6253 27.3823 9.984C27.5903 9.34267 27.8677 8.71 28.2143 8.086C28.5783 7.44467 29.0463 6.87267 29.6183 6.37C30.1903 5.86733 30.8837 5.46 31.6983 5.148C32.513 4.836 33.4837 4.68 34.6103 4.68C35.5117 4.68 36.2743 4.784 36.8983 4.992C37.5223 5.2 38.025 5.486 38.4063 5.85C38.7877 6.19667 39.065 6.604 39.2383 7.072C39.4117 7.54 39.4983 8.04267 39.4983 8.58C39.4983 9.37733 39.3337 10.0533 39.0043 10.608C38.6923 11.1627 38.2763 11.6307 37.7563 12.012C37.2537 12.376 36.6903 12.662 36.0663 12.87C35.4423 13.078 34.827 13.2427 34.2203 13.364C33.6137 13.468 33.0503 13.5373 32.5303 13.572C32.0277 13.5893 31.6377 13.598 31.3603 13.598C31.3603 13.9273 31.4037 14.2567 31.4903 14.586C31.5943 14.898 31.7417 15.1753 31.9323 15.418C32.123 15.6607 32.3743 15.86 32.6863 16.016C32.9983 16.172 33.3797 16.25 33.8303 16.25C34.281 16.25 34.6277 16.1807 34.8703 16.042C35.1303 15.886 35.3383 15.7213 35.4943 15.548C35.6503 15.3573 35.7803 15.1927 35.8843 15.054C36.0057 14.898 36.1617 14.82 36.3523 14.82C36.439 14.82 36.5863 14.846 36.7943 14.898C37.0197 14.9327 37.245 15.0193 37.4703 15.158C37.6957 15.2967 37.895 15.4873 38.0683 15.73C38.2417 15.9727 38.3283 16.2847 38.3283 16.666C38.3283 17.1687 38.1723 17.602 37.8603 17.966C37.5483 18.33 37.141 18.6247 36.6383 18.85C36.153 19.0753 35.607 19.24 35.0003 19.344C34.3937 19.448 33.8043 19.5 33.2323 19.5ZM33.7263 8.138C33.345 8.138 33.0157 8.25067 32.7383 8.476C32.4783 8.684 32.253 8.95267 32.0623 9.282C31.889 9.61133 31.7503 9.97533 31.6463 10.374C31.5597 10.7727 31.4903 11.154 31.4383 11.518C32.513 11.5007 33.3797 11.3187 34.0383 10.972C34.7143 10.6253 35.0523 10.1313 35.0523 9.49C35.0523 9.14333 34.9397 8.83133 34.7143 8.554C34.5063 8.27667 34.177 8.138 33.7263 8.138Z" fill="#EDA1A1"/>
<path d="M49.9302 16.952C49.9302 16.5707 49.9562 16.0767 50.0082 15.47C50.0776 14.846 50.1382 14.196 50.1902 13.52C50.2596 12.8267 50.3202 12.1593 50.3722 11.518C50.4416 10.8767 50.4762 10.3393 50.4762 9.906C50.4762 9.45533 50.3636 9.05667 50.1382 8.71C49.9302 8.346 49.5142 8.164 48.8902 8.164C48.2836 8.164 47.7809 8.31133 47.3822 8.606C46.9836 8.90067 46.6456 9.438 46.3682 10.218C46.1082 10.998 45.8916 12.0727 45.7182 13.442C45.5449 14.8113 45.3802 16.5707 45.2242 18.72C45.2069 18.928 45.1636 19.0667 45.0942 19.136C45.0249 19.2053 44.8776 19.24 44.6522 19.24H43.7162C43.1789 19.24 42.7369 19.188 42.3902 19.084C42.0609 18.9627 41.7922 18.798 41.5842 18.59C41.3936 18.382 41.2549 18.1307 41.1682 17.836C41.0989 17.524 41.0642 17.1687 41.0642 16.77C41.0642 16.51 41.0729 16.146 41.0902 15.678C41.1249 15.1927 41.1769 14.534 41.2462 13.702C41.3156 12.8527 41.3936 11.7867 41.4802 10.504C41.5842 9.204 41.7056 7.60067 41.8442 5.694C41.8616 5.31267 41.9049 5.08733 41.9742 5.018C42.0262 4.966 42.1649 4.94 42.3902 4.94H43.4042C43.9242 4.94 44.3489 5.00067 44.6782 5.122C45.0249 5.24333 45.3022 5.408 45.5102 5.616C45.7182 5.80667 45.8656 6.04067 45.9522 6.318C46.0389 6.578 46.0909 6.84667 46.1082 7.124C46.6456 6.20533 47.2609 5.57267 47.9542 5.226C48.6476 4.862 49.5142 4.68 50.5542 4.68C51.2822 4.68 51.9149 4.758 52.4522 4.914C52.9896 5.07 53.4316 5.33867 53.7782 5.72C54.1422 6.084 54.4109 6.56933 54.5842 7.176C54.7576 7.76533 54.8442 8.502 54.8442 9.386C54.8442 9.66333 54.8269 10.062 54.7922 10.582C54.7576 11.102 54.7142 11.674 54.6622 12.298C54.6102 12.9047 54.5496 13.546 54.4802 14.222C54.4282 14.8807 54.3762 15.496 54.3242 16.068C54.2722 16.64 54.2289 17.1427 54.1942 17.576C54.1596 18.0093 54.1422 18.2953 54.1422 18.434C54.1422 18.8153 54.0989 19.0493 54.0122 19.136C53.9256 19.2053 53.7349 19.24 53.4402 19.24H52.6082C52.0536 19.24 51.6029 19.188 51.2562 19.084C50.9096 18.98 50.6409 18.8327 50.4502 18.642C50.2596 18.4513 50.1209 18.2173 50.0342 17.94C49.9649 17.6453 49.9302 17.316 49.9302 16.952Z" fill="#EDA1A1"/>
<path d="M62.7519 8.45C62.6999 9.10867 62.6392 9.75867 62.5699 10.4C62.5179 11.0413 62.4659 11.648 62.4139 12.22C62.3619 12.792 62.3185 13.3033 62.2839 13.754C62.2665 14.2047 62.2579 14.5513 62.2579 14.794C62.2579 15.2447 62.3099 15.548 62.4139 15.704C62.5179 15.8427 62.6912 15.912 62.9339 15.912C63.1245 15.912 63.2892 15.8773 63.4279 15.808C63.5665 15.7387 63.6965 15.6607 63.8179 15.574C63.9392 15.4873 64.0432 15.4093 64.1299 15.34C64.2339 15.2707 64.3465 15.236 64.4679 15.236C64.5892 15.236 64.7019 15.3053 64.8059 15.444C64.9099 15.5827 64.9619 15.9033 64.9619 16.406C64.9619 17.3593 64.7019 18.1133 64.1819 18.668C63.6619 19.2227 62.7692 19.5 61.5039 19.5C60.2559 19.5 59.3285 19.214 58.7219 18.642C58.1325 18.0527 57.8379 17.16 57.8379 15.964C57.8379 15.704 57.8465 15.4007 57.8639 15.054C57.8985 14.69 57.9419 14.222 57.9939 13.65C58.0459 13.078 58.1065 12.376 58.1759 11.544C58.2625 10.712 58.3492 9.68067 58.4359 8.45H57.0579C56.9192 8.45 56.8325 8.424 56.7979 8.372C56.7805 8.30267 56.7719 8.20733 56.7719 8.086L56.8499 6.76C56.8672 6.53467 56.8932 6.318 56.9279 6.11C56.9799 5.88467 57.0665 5.68533 57.1879 5.512C57.3265 5.33867 57.5172 5.2 57.7599 5.096C58.0025 4.992 58.3232 4.94 58.7219 4.94C58.8432 4.628 58.9819 4.25533 59.1379 3.822C59.2939 3.38867 59.4499 2.97267 59.6059 2.574C59.7619 2.158 59.9092 1.81133 60.0479 1.534C60.2039 1.25667 60.3425 1.118 60.4639 1.118H61.2179C61.9459 1.118 62.4485 1.34333 62.7259 1.794C63.0032 2.24467 63.1419 2.782 63.1419 3.406C63.1419 3.75267 63.1159 4.264 63.0639 4.94H65.7939C66.0712 4.94 66.2099 5.06133 66.2099 5.304L66.1059 6.708C66.0712 7.228 65.9239 7.65267 65.6639 7.982C65.4212 8.294 64.9099 8.45 64.1299 8.45H62.7519Z" fill="#EDA1A1"/>
<path d="M66.7666 16.042C66.7666 14.482 67.4686 13.26 68.8726 12.376C70.2766 11.492 72.348 11.0153 75.0866 10.946C75.104 10.7553 75.1126 10.5993 75.1126 10.478C75.13 10.3393 75.1386 10.1747 75.1386 9.984C75.1386 9.42933 75.0346 8.98733 74.8266 8.658C74.6186 8.32867 74.1853 8.164 73.5266 8.164C73.1626 8.164 72.868 8.216 72.6426 8.32C72.4173 8.424 72.2353 8.57133 72.0966 8.762C71.958 8.93533 71.8453 9.152 71.7586 9.412C71.672 9.672 71.594 9.958 71.5246 10.27C71.49 10.426 71.412 10.53 71.2906 10.582C71.1693 10.6167 70.9786 10.634 70.7186 10.634C68.9506 10.634 68.0666 9.96667 68.0666 8.632C68.0666 8.09467 68.188 7.58333 68.4306 7.098C68.6906 6.61267 69.0633 6.19667 69.5486 5.85C70.0513 5.486 70.6753 5.2 71.4206 4.992C72.166 4.784 73.0326 4.68 74.0206 4.68C75.9446 4.68 77.34 5.07867 78.2066 5.876C79.0733 6.67333 79.5066 7.8 79.5066 9.256C79.5066 9.44667 79.4806 9.79333 79.4286 10.296C79.394 10.7813 79.342 11.3013 79.2726 11.856C79.2206 12.3933 79.1686 12.9047 79.1166 13.39C79.082 13.8753 79.0646 14.2133 79.0646 14.404C79.0646 14.8373 79.1426 15.1493 79.2986 15.34C79.4546 15.5133 79.628 15.6347 79.8186 15.704C80.0266 15.7733 80.2086 15.8253 80.3646 15.86C80.5206 15.8947 80.5986 15.9813 80.5986 16.12C80.5986 16.5013 80.5466 16.8913 80.4426 17.29C80.3386 17.6887 80.1653 18.0527 79.9226 18.382C79.6973 18.7113 79.3766 18.98 78.9606 19.188C78.562 19.396 78.068 19.5 77.4786 19.5C76.6466 19.5 76.0226 19.3007 75.6066 18.902C75.1906 18.5033 74.9133 17.9487 74.7746 17.238C74.3586 17.8447 73.8126 18.3733 73.1366 18.824C72.478 19.2747 71.6113 19.5 70.5366 19.5C70.0166 19.5 69.5226 19.4393 69.0546 19.318C68.604 19.1967 68.2053 18.9973 67.8586 18.72C67.5293 18.4427 67.2606 18.0873 67.0526 17.654C66.862 17.2033 66.7666 16.666 66.7666 16.042ZM74.8526 13.078C74.402 13.078 73.96 13.1127 73.5266 13.182C73.0933 13.2513 72.7033 13.364 72.3566 13.52C72.0273 13.6587 71.7586 13.8493 71.5506 14.092C71.3426 14.3347 71.2386 14.6293 71.2386 14.976C71.2386 15.3747 71.36 15.652 71.6026 15.808C71.8626 15.964 72.14 16.042 72.4346 16.042C72.712 16.042 72.9893 15.9813 73.2666 15.86C73.544 15.7387 73.7866 15.5567 73.9946 15.314C74.22 15.054 74.4106 14.742 74.5666 14.378C74.7226 14.014 74.818 13.5807 74.8526 13.078Z" fill="#EDA1A1"/>
<path d="M85.213 19.474C84.1384 19.474 83.367 19.188 82.899 18.616C82.431 18.044 82.197 17.0993 82.197 15.782C82.197 15.574 82.2057 15.314 82.223 15.002C82.2577 14.69 82.2924 14.2913 82.327 13.806C82.379 13.3033 82.4397 12.688 82.509 11.96C82.5784 11.232 82.6477 10.348 82.717 9.308C82.8037 8.268 82.8904 7.046 82.977 5.642C83.081 4.238 83.185 2.60867 83.289 0.754C83.3064 0.372666 83.3497 0.147332 83.419 0.077999C83.471 0.0259997 83.6097 0 83.835 0H84.849C85.369 0 85.8024 0.0606664 86.149 0.181999C86.4957 0.303333 86.773 0.468 86.981 0.675999C87.189 0.883999 87.3364 1.12667 87.423 1.404C87.5097 1.664 87.553 1.94133 87.553 2.236C87.553 2.58267 87.527 3.08533 87.475 3.744C87.4404 4.38533 87.3884 5.11333 87.319 5.928C87.2497 6.74267 87.1804 7.592 87.111 8.476C87.0417 9.36 86.9724 10.2093 86.903 11.024C86.8337 11.8213 86.773 12.5407 86.721 13.182C86.6864 13.8233 86.669 14.3087 86.669 14.638C86.669 15.0887 86.747 15.4093 86.903 15.6C87.0764 15.7907 87.2584 15.9293 87.449 16.016C87.6397 16.0853 87.813 16.1373 87.969 16.172C88.1424 16.1893 88.229 16.2413 88.229 16.328C88.229 16.7093 88.1857 17.0907 88.099 17.472C88.0124 17.836 87.8564 18.174 87.631 18.486C87.4057 18.7807 87.0937 19.0233 86.695 19.214C86.3137 19.3873 85.8197 19.474 85.213 19.474Z" fill="#EDA1A1"/>
<path d="M103.689 15.444C104.399 15.444 104.997 15.34 105.483 15.132C105.985 14.924 106.41 14.69 106.757 14.43C107.103 14.17 107.407 13.936 107.667 13.728C107.944 13.52 108.221 13.416 108.499 13.416C108.845 13.416 109.019 13.676 109.019 14.196C109.019 14.4733 108.984 14.8113 108.915 15.21C108.845 15.5913 108.75 16.0247 108.629 16.51C108.559 16.8047 108.386 17.1253 108.109 17.472C107.849 17.8187 107.485 18.148 107.017 18.46C106.549 18.7547 105.968 19.006 105.275 19.214C104.599 19.4047 103.819 19.5 102.935 19.5C102.051 19.5 101.167 19.37 100.283 19.11C99.3987 18.85 98.61 18.408 97.9167 17.784C97.2233 17.16 96.66 16.3193 96.2267 15.262C95.7933 14.2047 95.5767 12.8787 95.5767 11.284C95.5767 10.712 95.6113 10.0533 95.6807 9.308C95.7673 8.54533 95.9233 7.76533 96.1487 6.968C96.374 6.17067 96.686 5.39067 97.0847 4.628C97.5007 3.848 98.0293 3.15467 98.6707 2.548C99.312 1.94133 100.092 1.456 101.011 1.092C101.947 0.710666 103.056 0.52 104.339 0.52C105.361 0.52 106.245 0.641333 106.991 0.883999C107.753 1.12667 108.377 1.46467 108.863 1.898C109.365 2.314 109.729 2.808 109.955 3.38C110.197 3.952 110.319 4.55867 110.319 5.2C110.319 6.30933 109.989 7.124 109.331 7.644C108.689 8.14667 107.771 8.398 106.575 8.398C106.193 8.398 105.951 8.372 105.847 8.32C105.76 8.25067 105.717 8.12067 105.717 7.93C105.699 7.34067 105.682 6.82933 105.665 6.396C105.647 5.96267 105.587 5.60733 105.483 5.33C105.379 5.03533 105.214 4.82733 104.989 4.706C104.781 4.56733 104.486 4.498 104.105 4.498C103.55 4.498 103.073 4.61933 102.675 4.862C102.293 5.08733 101.964 5.39067 101.687 5.772C101.427 6.136 101.21 6.552 101.037 7.02C100.881 7.488 100.751 7.96467 100.647 8.45C100.56 8.93533 100.499 9.40333 100.465 9.854C100.447 10.3047 100.439 10.6947 100.439 11.024C100.439 12.6187 100.699 13.754 101.219 14.43C101.756 15.106 102.579 15.444 103.689 15.444Z" fill="#EDA1A1"/>
<path d="M120.308 16.016C120.36 15.444 120.412 14.846 120.464 14.222C120.533 13.598 120.585 13 120.62 12.428C120.672 11.856 120.715 11.3447 120.75 10.894C120.784 10.4433 120.802 10.114 120.802 9.906C120.802 9.45533 120.689 9.05667 120.464 8.71C120.256 8.346 119.84 8.164 119.216 8.164C118.384 8.164 117.708 8.554 117.188 9.334C116.685 10.114 116.39 11.154 116.304 12.454C116.269 12.818 116.226 13.3293 116.174 13.988C116.122 14.6293 116.07 15.288 116.018 15.964C115.966 16.6227 115.914 17.2207 115.862 17.758C115.827 18.278 115.81 18.5987 115.81 18.72C115.81 18.928 115.766 19.0667 115.68 19.136C115.61 19.2053 115.463 19.24 115.238 19.24H114.302C113.764 19.24 113.322 19.188 112.976 19.084C112.646 18.9627 112.378 18.798 112.17 18.59C111.979 18.382 111.84 18.1307 111.754 17.836C111.684 17.524 111.65 17.1687 111.65 16.77C111.65 16.3887 111.676 15.86 111.728 15.184C111.797 14.4907 111.884 13.546 111.988 12.35C112.092 11.1367 112.213 9.594 112.352 7.722C112.49 5.85 112.638 3.52733 112.794 0.754C112.811 0.372666 112.854 0.147332 112.924 0.077999C112.976 0.0259997 113.114 0 113.34 0H114.354C114.874 0 115.307 0.0606664 115.654 0.181999C116 0.303333 116.278 0.468 116.486 0.675999C116.694 0.883999 116.841 1.12667 116.928 1.404C117.014 1.664 117.058 1.94133 117.058 2.236C117.058 2.548 117.023 3.12867 116.954 3.978C116.902 4.82733 116.832 5.824 116.746 6.968C117.266 6.10133 117.838 5.50333 118.462 5.174C119.103 4.84467 119.909 4.68 120.88 4.68C121.608 4.68 122.24 4.758 122.778 4.914C123.315 5.07 123.757 5.33867 124.104 5.72C124.468 6.084 124.736 6.56933 124.91 7.176C125.083 7.76533 125.17 8.502 125.17 9.386C125.17 9.66333 125.144 10.14 125.092 10.816C125.04 11.492 124.97 12.2633 124.884 13.13C124.814 13.9967 124.736 14.9067 124.65 15.86C124.58 16.796 124.52 17.654 124.468 18.434C124.45 18.6247 124.433 18.772 124.416 18.876C124.398 18.98 124.364 19.058 124.312 19.11C124.277 19.162 124.216 19.1967 124.13 19.214C124.043 19.2313 123.922 19.24 123.766 19.24H122.934C122.379 19.24 121.928 19.188 121.582 19.084C121.235 18.98 120.966 18.8327 120.776 18.642C120.585 18.4513 120.446 18.2173 120.36 17.94C120.29 17.6453 120.256 17.316 120.256 16.952C120.256 16.7787 120.256 16.614 120.256 16.458C120.273 16.302 120.29 16.1547 120.308 16.016Z" fill="#EDA1A1"/>
<path d="M133.5 19.5C132.737 19.5 131.975 19.4047 131.212 19.214C130.467 19.0233 129.791 18.694 129.184 18.226C128.595 17.758 128.109 17.134 127.728 16.354C127.347 15.574 127.156 14.5947 127.156 13.416C127.156 12.9827 127.191 12.4627 127.26 11.856C127.329 11.2493 127.459 10.6253 127.65 9.984C127.858 9.34267 128.135 8.71 128.482 8.086C128.846 7.44467 129.314 6.87267 129.886 6.37C130.458 5.86733 131.151 5.46 131.966 5.148C132.781 4.836 133.751 4.68 134.878 4.68C135.779 4.68 136.542 4.784 137.166 4.992C137.79 5.2 138.293 5.486 138.674 5.85C139.055 6.19667 139.333 6.604 139.506 7.072C139.679 7.54 139.766 8.04267 139.766 8.58C139.766 9.37733 139.601 10.0533 139.272 10.608C138.96 11.1627 138.544 11.6307 138.024 12.012C137.521 12.376 136.958 12.662 136.334 12.87C135.71 13.078 135.095 13.2427 134.488 13.364C133.881 13.468 133.318 13.5373 132.798 13.572C132.295 13.5893 131.905 13.598 131.628 13.598C131.628 13.9273 131.671 14.2567 131.758 14.586C131.862 14.898 132.009 15.1753 132.2 15.418C132.391 15.6607 132.642 15.86 132.954 16.016C133.266 16.172 133.647 16.25 134.098 16.25C134.549 16.25 134.895 16.1807 135.138 16.042C135.398 15.886 135.606 15.7213 135.762 15.548C135.918 15.3573 136.048 15.1927 136.152 15.054C136.273 14.898 136.429 14.82 136.62 14.82C136.707 14.82 136.854 14.846 137.062 14.898C137.287 14.9327 137.513 15.0193 137.738 15.158C137.963 15.2967 138.163 15.4873 138.336 15.73C138.509 15.9727 138.596 16.2847 138.596 16.666C138.596 17.1687 138.44 17.602 138.128 17.966C137.816 18.33 137.409 18.6247 136.906 18.85C136.421 19.0753 135.875 19.24 135.268 19.344C134.661 19.448 134.072 19.5 133.5 19.5ZM133.994 8.138C133.613 8.138 133.283 8.25067 133.006 8.476C132.746 8.684 132.521 8.95267 132.33 9.282C132.157 9.61133 132.018 9.97533 131.914 10.374C131.827 10.7727 131.758 11.154 131.706 11.518C132.781 11.5007 133.647 11.3187 134.306 10.972C134.982 10.6253 135.32 10.1313 135.32 9.49C135.32 9.14333 135.207 8.83133 134.982 8.554C134.774 8.27667 134.445 8.138 133.994 8.138Z" fill="#EDA1A1"/>
<path d="M147.884 16.042C148.386 16.042 148.82 15.9727 149.184 15.834C149.565 15.6953 149.894 15.5393 150.172 15.366C150.449 15.1927 150.683 15.0367 150.874 14.898C151.064 14.7593 151.238 14.69 151.394 14.69C151.792 14.69 151.992 14.95 151.992 15.47C151.992 15.5913 151.966 15.7647 151.914 15.99C151.862 16.198 151.792 16.4233 151.706 16.666C151.619 16.8913 151.524 17.108 151.42 17.316C151.333 17.524 151.246 17.68 151.16 17.784C151.073 17.8707 150.917 18.0093 150.692 18.2C150.484 18.3907 150.198 18.5813 149.834 18.772C149.47 18.9627 149.045 19.1273 148.56 19.266C148.074 19.422 147.537 19.5 146.948 19.5C146.289 19.5 145.604 19.4047 144.894 19.214C144.2 19.006 143.568 18.6593 142.996 18.174C142.424 17.6713 141.947 17.004 141.566 16.172C141.202 15.3227 141.02 14.2653 141.02 13C141.02 12.5493 141.046 12.038 141.098 11.466C141.167 10.8767 141.297 10.2787 141.488 9.672C141.678 9.048 141.93 8.44133 142.242 7.852C142.571 7.24533 143.004 6.708 143.542 6.24C144.079 5.772 144.72 5.39933 145.466 5.122C146.228 4.82733 147.13 4.68 148.17 4.68C149.019 4.68 149.747 4.784 150.354 4.992C150.978 5.18267 151.489 5.45133 151.888 5.798C152.286 6.12733 152.581 6.51733 152.772 6.968C152.98 7.41867 153.084 7.904 153.084 8.424C153.084 9.36 152.789 10.0533 152.2 10.504C151.61 10.9373 150.778 11.154 149.704 11.154C149.444 11.154 149.262 11.1367 149.158 11.102C149.071 11.05 149.028 10.946 149.028 10.79C149.028 10.374 149.019 10.0013 149.002 9.672C148.984 9.34267 148.932 9.06533 148.846 8.84C148.776 8.61467 148.664 8.44133 148.508 8.32C148.352 8.19867 148.126 8.138 147.832 8.138C147.294 8.138 146.861 8.31133 146.532 8.658C146.22 9.00467 145.977 9.42933 145.804 9.932C145.648 10.4173 145.544 10.92 145.492 11.44C145.457 11.96 145.44 12.3933 145.44 12.74C145.44 13.9707 145.63 14.8287 146.012 15.314C146.41 15.7993 147.034 16.042 147.884 16.042Z" fill="#EDA1A1"/>
<path d="M166.885 17.134C166.885 17.2207 166.842 17.394 166.755 17.654C166.668 17.914 166.53 18.1827 166.339 18.46C166.148 18.7373 165.906 18.98 165.611 19.188C165.334 19.396 164.996 19.5 164.597 19.5C164.129 19.5 163.661 19.344 163.193 19.032C162.742 18.72 162.292 18.2953 161.841 17.758C161.39 17.2207 160.931 16.588 160.463 15.86C160.012 15.1147 159.553 14.3087 159.085 13.442C159.016 14.3607 158.946 15.262 158.877 16.146C158.808 17.03 158.738 17.888 158.669 18.72C158.652 18.928 158.608 19.0667 158.539 19.136C158.47 19.2053 158.322 19.24 158.097 19.24H157.161C156.624 19.24 156.182 19.188 155.835 19.084C155.488 18.9627 155.22 18.798 155.029 18.59C154.838 18.382 154.7 18.122 154.613 17.81C154.544 17.4807 154.509 17.108 154.509 16.692C154.509 16.484 154.518 16.2673 154.535 16.042C154.552 15.8167 154.578 15.496 154.613 15.08C154.648 14.664 154.691 14.118 154.743 13.442C154.812 12.766 154.89 11.8733 154.977 10.764C155.064 9.65467 155.159 8.294 155.263 6.682C155.384 5.05267 155.514 3.07667 155.653 0.754C155.67 0.372666 155.714 0.147332 155.783 0.077999C155.835 0.0259997 155.974 0 156.199 0H157.213C157.75 0 158.192 0.0606664 158.539 0.181999C158.886 0.303333 159.163 0.468 159.371 0.675999C159.579 0.883999 159.718 1.12667 159.787 1.404C159.874 1.68133 159.917 1.96733 159.917 2.262C159.917 2.43533 159.9 2.73 159.865 3.146C159.848 3.54467 159.822 4.03867 159.787 4.628C159.752 5.2 159.7 5.85 159.631 6.578C159.579 7.306 159.527 8.06867 159.475 8.866L163.635 5.07C163.791 4.93133 163.93 4.836 164.051 4.784C164.19 4.732 164.294 4.706 164.363 4.706C164.554 4.706 164.762 4.82733 164.987 5.07C165.212 5.31267 165.42 5.59867 165.611 5.928C165.819 6.24 165.984 6.56933 166.105 6.916C166.244 7.24533 166.313 7.514 166.313 7.722C166.313 8.22467 165.906 8.75333 165.091 9.308C164.294 9.86267 163.08 10.4867 161.451 11.18C162.179 11.9947 162.872 12.74 163.531 13.416C164.19 14.092 164.762 14.69 165.247 15.21C165.75 15.73 166.148 16.1547 166.443 16.484C166.738 16.8133 166.885 17.03 166.885 17.134Z" fill="#EDA1A1"/>
</g>
<defs>
<filter id="filter0_d_180_15" x="0" y="0" width="170.885" height="27.5" filterUnits="userSpaceOnUse" color-interpolation-filters="sRGB">
<feFlood flood-opacity="0" result="BackgroundImageFix"/>
<feColorMatrix in="SourceAlpha" type="matrix" values="0 0 0 0 0 0 0 0 0 0 0 0 0 0 0 0 0 0 127 0" result="hardAlpha"/>
<feOffset dy="4"/>
<feGaussianBlur stdDeviation="2"/>
<feComposite in2="hardAlpha" operator="out"/>
<feColorMatrix type="matrix" values="0 0 0 0 0 0 0 0 0 0 0 0 0 0 0 0 0 0 0.25 0"/>
<feBlend mode="normal" in2="BackgroundImageFix" result="effect1_dropShadow_180_15"/>
<feBlend mode="normal" in="SourceGraphic" in2="effect1_dropShadow_180_15" result="shape"/>
</filter>
</defs>
</svg>
