<svg width="141" height="14" viewBox="0 0 141 14" fill="none" xmlns="http://www.w3.org/2000/svg">
<path d="M1.312 12.8512C1.30133 12.8512 1.28533 12.8405 1.264 12.8192C1.15733 12.7339 1.08267 12.6112 1.04 12.4512C1.008 12.2805 0.992 12.1365 0.992 12.0192C0.981333 11.8272 0.965333 11.6352 0.944 11.4432C0.933333 11.2512 0.928 11.0645 0.928 10.8832C0.928 10.6059 0.928 10.3339 0.928 10.0672C0.928 9.80053 0.954667 9.53387 1.008 9.2672C1.04 9.09653 1.09333 8.9632 1.168 8.8672C1.24267 8.76053 1.36 8.6752 1.52 8.6112C1.81867 8.49387 2.11733 8.4352 2.416 8.4352H9.792C9.99467 8.44587 10.2027 8.46187 10.416 8.4832C10.6293 8.50453 10.832 8.55787 11.024 8.6432C11.2373 8.72853 11.376 8.87253 11.44 9.0752C11.5147 9.2672 11.5627 9.46987 11.584 9.6832C11.5947 9.86453 11.6 10.0779 11.6 10.3232C11.6107 10.5579 11.6107 10.7979 11.6 11.0432C11.5893 11.2885 11.5733 11.5339 11.552 11.7792C11.5307 12.0139 11.4933 12.2272 11.44 12.4192C11.408 12.5365 11.3707 12.6379 11.328 12.7232C11.2853 12.8192 11.2 12.8885 11.072 12.9312C10.9547 12.9739 10.832 13.0005 10.704 13.0112C10.5867 13.0219 10.4693 13.0272 10.352 13.0272L2.176 12.9952C2.03733 12.9845 1.888 12.9792 1.728 12.9792C1.568 12.9792 1.42933 12.9365 1.312 12.8512ZM5.856 0.5792C6.496 0.920534 6.94933 1.38987 7.216 1.9872C7.49333 2.58453 7.6 3.2992 7.536 4.1312C7.472 5.19787 7.168 5.99253 6.624 6.5152C6.09067 7.03787 5.26933 7.2992 4.16 7.2992C3.872 7.2992 3.60533 7.30453 3.36 7.3152C3.12533 7.3152 2.90133 7.2992 2.688 7.2672C2.47467 7.2352 2.256 7.18187 2.032 7.1072C1.808 7.02187 1.568 6.89387 1.312 6.7232C0.810667 6.39253 0.464 5.96053 0.272 5.4272C0.0906667 4.89387 0 4.34453 0 3.7792C0 3.21387 0.101333 2.68587 0.304 2.1952C0.506667 1.69387 0.837333 1.2672 1.296 0.9152C1.66933 0.616533 2.08533 0.397866 2.544 0.2592C3.01333 0.120533 3.48267 0.0725327 3.952 0.115199C4.16533 0.136533 4.34667 0.157867 4.496 0.1792C4.656 0.189866 4.80533 0.2112 4.944 0.2432C5.08267 0.2752 5.22133 0.317867 5.36 0.3712C5.49867 0.424533 5.664 0.493867 5.856 0.5792ZM11.68 6.4832C11.68 6.4832 11.6747 6.52053 11.664 6.5952C11.6533 6.66987 11.632 6.7552 11.6 6.8512C11.568 6.9472 11.52 7.04853 11.456 7.1552C11.392 7.2512 11.3067 7.3312 11.2 7.3952C11.0507 7.48053 10.9013 7.5232 10.752 7.5232C10.5707 7.5232 10.3947 7.46453 10.224 7.3472C10.1067 7.26187 10.016 7.14987 9.952 7.0112C9.86667 6.8512 9.808 6.6752 9.776 6.4832C9.75467 6.2912 9.73867 6.09387 9.728 5.8912C9.728 5.68853 9.73333 5.4912 9.744 5.2992C9.75467 5.09653 9.76 4.90453 9.76 4.7232C9.77067 4.26453 9.776 3.8112 9.776 3.3632C9.776 2.90453 9.776 2.4512 9.776 2.0032V1.7952C9.76533 1.67787 9.76 1.5552 9.76 1.4272C9.77067 1.28853 9.792 1.16053 9.824 1.0432C9.86667 0.8832 9.96267 0.712533 10.112 0.5312C10.1973 0.424533 10.3147 0.349867 10.464 0.3072C10.624 0.253867 10.7947 0.237866 10.976 0.2592C11.296 0.312533 11.5093 0.4512 11.616 0.6752C11.68 0.813867 11.7067 0.984533 11.696 1.1872C11.696 1.38987 11.6907 1.51253 11.68 1.5552V6.4832ZM5.632 4.3072C5.632 4.07253 5.62133 3.85387 5.6 3.6512C5.57867 3.43787 5.53067 3.24587 5.456 3.0752C5.392 2.89387 5.29067 2.73387 5.152 2.5952C5.01333 2.45653 4.832 2.34453 4.608 2.2592C4.36267 2.17387 4.096 2.1312 3.808 2.1312C3.52 2.1312 3.248 2.18453 2.992 2.2912C2.736 2.3872 2.512 2.54187 2.32 2.7552C2.128 2.95787 2.00533 3.22453 1.952 3.5552C1.92 3.7792 1.92 4.00853 1.952 4.2432C1.99467 4.4672 2.07467 4.6752 2.192 4.8672C2.32 5.04853 2.49067 5.2032 2.704 5.3312C2.928 5.4592 3.20533 5.5392 3.536 5.5712C3.76 5.59253 3.984 5.59253 4.208 5.5712C4.432 5.5392 4.64 5.4752 4.832 5.3792C5.024 5.2832 5.18933 5.14987 5.328 4.9792C5.46667 4.79787 5.568 4.57387 5.632 4.3072ZM2.832 10.9792C2.832 11.0325 2.832 11.0859 2.832 11.1392C2.84267 11.1819 2.864 11.2139 2.896 11.2352C2.91733 11.2565 2.94933 11.2725 2.992 11.2832C3.04533 11.2832 3.09867 11.2832 3.152 11.2832C3.20533 11.2832 3.26933 11.2779 3.344 11.2672H8.192C8.34133 11.2779 8.48533 11.2885 8.624 11.2992C8.74133 11.3099 8.864 11.3152 8.992 11.3152C9.12 11.3152 9.23733 11.3045 9.344 11.2832C9.45067 11.2725 9.51467 11.2459 9.536 11.2032C9.55733 11.1499 9.57333 11.0752 9.584 10.9792C9.59467 10.8939 9.6 10.7979 9.6 10.6912C9.6 10.5739 9.568 10.4725 9.504 10.3872C9.42933 10.3019 9.32267 10.2592 9.184 10.2592C9.056 10.2485 8.93867 10.2485 8.832 10.2592H4.544C4.30933 10.2379 4.08 10.2325 3.856 10.2432C3.632 10.2432 3.40267 10.2485 3.168 10.2592C3.08267 10.2592 3.01333 10.2645 2.96 10.2752C2.91733 10.2752 2.88533 10.3232 2.864 10.4192C2.84267 10.4939 2.832 10.5685 2.832 10.6432C2.832 10.7072 2.832 10.7712 2.832 10.8352C2.84267 10.8565 2.84267 10.8779 2.832 10.8992C2.832 10.9205 2.832 10.9472 2.832 10.9792Z" fill="black"/>
<path d="M23.5749 11.1232C23.5749 11.1232 23.6069 11.1339 23.6709 11.1552C23.7455 11.1765 23.8255 11.2139 23.9109 11.2672C23.9962 11.3099 24.0762 11.3739 24.1509 11.4592C24.2255 11.5339 24.2735 11.6245 24.2949 11.7312C24.3482 12.1365 24.2789 12.4512 24.0869 12.6752C23.9589 12.8245 23.8202 12.9152 23.6709 12.9472C23.5215 12.9792 23.4415 12.9952 23.4309 12.9952H15.2709C14.8335 12.9952 14.4922 12.9259 14.2469 12.7872C14.0015 12.6592 13.8789 12.4725 13.8789 12.2272V10.0032C13.8682 9.88587 13.8629 9.7312 13.8629 9.5392C13.8629 9.33653 13.8682 9.17653 13.8789 9.0592C13.9002 8.8352 14.0069 8.65387 14.1989 8.5152C14.3909 8.37653 14.6095 8.3072 14.8549 8.3072C14.9082 8.3072 14.9722 8.31253 15.0469 8.3232C15.1322 8.3232 15.2015 8.33387 15.2549 8.3552C15.3935 8.39787 15.5055 8.47253 15.5909 8.5792C15.6762 8.6752 15.7402 8.7872 15.7829 8.9152C15.8255 9.0432 15.8522 9.18187 15.8629 9.3312C15.8735 9.46987 15.8842 9.59787 15.8949 9.7152C15.8949 9.75787 15.8949 9.84853 15.8949 9.9872C15.8949 10.1259 15.8949 10.2752 15.8949 10.4352C15.8949 10.5845 15.8949 10.7232 15.8949 10.8512C15.8949 10.9792 15.8949 11.0592 15.8949 11.0912C15.9269 11.1019 16.0122 11.1179 16.1509 11.1392C16.3002 11.1499 16.5722 11.1552 16.9669 11.1552C17.3082 11.1552 17.6122 11.1499 17.8789 11.1392C18.1455 11.1285 18.2842 11.1232 18.2949 11.1232H23.5749ZM13.0949 7.4272C12.9455 7.3632 12.8389 7.24053 12.7749 7.0592C12.6895 6.84587 12.6735 6.63253 12.7269 6.4192C12.7909 6.20587 12.8869 6.0032 13.0149 5.8112C13.1429 5.6192 13.2869 5.43787 13.4469 5.2672C13.6175 5.09653 13.7615 4.93653 13.8789 4.7872C14.0602 4.5632 14.2362 4.3392 14.4069 4.1152C14.5775 3.8912 14.7535 3.66187 14.9349 3.4272C15.0629 3.24587 15.1962 3.03253 15.3349 2.7872C15.4735 2.54187 15.5535 2.30187 15.5749 2.0672C15.5749 2.0032 15.5802 1.9232 15.5909 1.8272C15.6015 1.72053 15.6069 1.61387 15.6069 1.5072C15.6175 1.38987 15.6282 1.2832 15.6389 1.1872C15.6495 1.0912 15.6655 1.0112 15.6869 0.9472C15.7509 0.733866 15.8522 0.589866 15.9909 0.5152C16.1402 0.429867 16.3642 0.3872 16.6629 0.3872C16.8335 0.3872 17.0255 0.4192 17.2389 0.4832C17.4522 0.536533 17.5962 0.648533 17.6709 0.8192C17.7455 1.0112 17.7669 1.2352 17.7349 1.4912C17.7135 1.73653 17.7349 1.96053 17.7989 2.1632C17.8522 2.3232 17.9322 2.48853 18.0389 2.6592C18.1455 2.82987 18.2575 3.00053 18.3749 3.1712C18.5775 3.4592 18.7802 3.77387 18.9829 4.1152C19.1855 4.44587 19.3722 4.72853 19.5429 4.9632C19.7135 5.1872 19.8789 5.42187 20.0389 5.6672C20.1989 5.90187 20.3055 6.15787 20.3589 6.4352C20.4122 6.66987 20.3855 6.8672 20.2789 7.0272C20.1829 7.17653 20.0495 7.28853 19.8789 7.3632C19.7082 7.4272 19.5215 7.4432 19.3189 7.4112C19.1162 7.36853 18.9402 7.27253 18.7909 7.1232C18.3962 6.71787 18.0389 6.28587 17.7189 5.8272C17.3989 5.35787 17.0682 4.8992 16.7269 4.4512C16.7269 4.4512 16.6789 4.50453 16.5829 4.6112C16.4869 4.71787 16.3695 4.85653 16.2309 5.0272C16.0922 5.19787 15.9375 5.38453 15.7669 5.5872C15.5962 5.78987 15.4362 5.98187 15.2869 6.1632C15.1375 6.34453 15.0042 6.50453 14.8869 6.6432C14.7802 6.7712 14.7162 6.8512 14.6949 6.8832C14.5775 7.02187 14.4442 7.14453 14.2949 7.2512C14.1455 7.35787 13.9802 7.43253 13.7989 7.4752C13.6815 7.49653 13.5589 7.5072 13.4309 7.5072C13.3135 7.5072 13.2015 7.48053 13.0949 7.4272ZM24.0229 7.1392C24.0229 7.1392 24.0175 7.17653 24.0069 7.2512C23.9962 7.32587 23.9749 7.4112 23.9429 7.5072C23.9109 7.6032 23.8629 7.70453 23.7989 7.8112C23.7349 7.9072 23.6495 7.9872 23.5429 8.0512C23.3935 8.13653 23.2442 8.1792 23.0949 8.1792C22.9135 8.1792 22.7375 8.12053 22.5669 8.0032C22.4495 7.91787 22.3589 7.80587 22.2949 7.6672C22.2095 7.5072 22.1509 7.3312 22.1189 7.1392C22.0975 6.9472 22.0815 6.74987 22.0709 6.5472C22.0709 6.34453 22.0762 6.1472 22.0869 5.9552C22.0975 5.75253 22.1029 5.56053 22.1029 5.3792C22.1029 5.1552 22.1029 4.89387 22.1029 4.5952C22.1135 4.29653 22.1189 3.99253 22.1189 3.6832C22.1189 3.37387 22.1189 3.0752 22.1189 2.7872C22.1189 2.48853 22.1189 2.2272 22.1189 2.0032V1.7952C22.1082 1.67787 22.1029 1.5552 22.1029 1.4272C22.1135 1.28853 22.1349 1.16053 22.1669 1.0432C22.2095 0.8832 22.3055 0.712533 22.4549 0.5312C22.5402 0.424533 22.6575 0.349867 22.8069 0.3072C22.9669 0.253867 23.1375 0.237866 23.3189 0.2592C23.6389 0.312533 23.8522 0.4512 23.9589 0.6752C24.0229 0.813867 24.0495 0.984533 24.0389 1.1872C24.0389 1.38987 24.0335 1.51253 24.0229 1.5552V7.1392Z" fill="black"/>
<path d="M40.5515 3.0112C40.5728 3.12853 40.5888 3.24053 40.5995 3.3472C40.6208 3.45387 40.6208 3.5712 40.5995 3.6992C40.5995 3.81653 40.5942 3.92853 40.5835 4.0352C40.5835 4.1312 40.5728 4.23787 40.5515 4.3552C40.4982 4.76053 40.3702 5.1232 40.1675 5.4432C39.9755 5.7632 39.6822 6.0352 39.2875 6.2592C38.9248 6.47253 38.4875 6.63787 37.9755 6.7552C37.4635 6.87253 36.8875 6.9312 36.2475 6.9312H35.1595C34.9568 6.9312 34.7542 6.9312 34.5515 6.9312C34.3595 6.9312 34.1622 6.92053 33.9595 6.8992C33.7462 6.88853 33.5382 6.8672 33.3355 6.8352C33.1435 6.8032 32.9515 6.76587 32.7595 6.7232C32.5782 6.6912 32.4022 6.64853 32.2315 6.5952C32.0608 6.5312 31.8955 6.45653 31.7355 6.3712C31.4582 6.18987 31.2182 6.0032 31.0155 5.8112C30.8235 5.60853 30.6795 5.3792 30.5835 5.1232C30.4662 4.87787 30.3808 4.6272 30.3275 4.3712C30.2742 4.1152 30.2475 3.8432 30.2475 3.5552C30.2475 3.27787 30.2742 3.01653 30.3275 2.7712C30.3808 2.52587 30.4662 2.3072 30.5835 2.1152C30.7008 1.90187 30.8555 1.70453 31.0475 1.5232C31.2395 1.3312 31.4635 1.14987 31.7195 0.9792C31.8368 0.893866 31.9648 0.824533 32.1035 0.7712C32.2528 0.717866 32.4235 0.664533 32.6155 0.6112C32.9675 0.5152 33.3568 0.424533 33.7835 0.339199C33.9968 0.296533 34.1995 0.269867 34.3915 0.2592C34.5942 0.237866 34.7968 0.221867 34.9995 0.2112C35.3835 0.1792 35.7142 0.1792 35.9915 0.2112C36.2475 0.221867 36.4768 0.237866 36.6795 0.2592C36.8928 0.269867 37.1062 0.296533 37.3195 0.339199C37.5008 0.381866 37.6982 0.4352 37.9115 0.4992C38.1355 0.552534 38.3542 0.621867 38.5675 0.707199C38.6635 0.749866 38.7648 0.797866 38.8715 0.8512C38.9782 0.904533 39.0902 0.968533 39.2075 1.0432C39.5062 1.22453 39.7142 1.3952 39.8315 1.5552C39.9275 1.6832 40.0128 1.8112 40.0875 1.9392C40.1728 2.05653 40.2422 2.17387 40.2955 2.2912C40.3595 2.39787 40.4128 2.5152 40.4555 2.6432C40.4982 2.7712 40.5302 2.89387 40.5515 3.0112ZM30.9035 9.9552C30.6582 9.9552 30.4235 9.91787 30.1995 9.8432C29.9862 9.82187 29.8155 9.69387 29.6875 9.4592C29.6128 9.37387 29.5595 9.2832 29.5275 9.1872C29.5062 9.0912 29.4955 8.9952 29.4955 8.8992C29.4955 8.68587 29.5808 8.49387 29.7515 8.3232C29.7835 8.2912 29.8262 8.2592 29.8795 8.2272C29.9328 8.1952 29.9968 8.17387 30.0715 8.1632C30.1248 8.12053 30.1782 8.0992 30.2315 8.0992C30.2955 8.08853 30.3648 8.07253 30.4395 8.0512C30.4928 8.02987 30.5408 8.0192 30.5835 8.0192C30.6262 8.0192 30.6742 8.0192 30.7275 8.0192H40.1995C40.3062 8.0192 40.3968 8.02987 40.4715 8.0512C40.5568 8.06187 40.6475 8.0832 40.7435 8.1152C40.9142 8.1792 41.0582 8.28053 41.1755 8.4192C41.2395 8.49387 41.2768 8.57387 41.2875 8.6592C41.3088 8.73387 41.3195 8.82987 41.3195 8.9472C41.3195 9.24587 41.2342 9.4432 41.0635 9.5392C40.9782 9.62453 40.8768 9.69387 40.7595 9.7472C40.6528 9.78987 40.5408 9.82187 40.4235 9.8432C40.1995 9.91787 39.9435 9.9552 39.6555 9.9552H36.5195C36.5302 9.99787 36.5355 10.0565 36.5355 10.1312V11.5072C36.5355 11.6032 36.5355 11.6939 36.5355 11.7792C36.5355 11.8645 36.5248 11.9339 36.5035 11.9872C36.4822 12.1045 36.4608 12.2112 36.4395 12.3072C36.4182 12.4032 36.3808 12.5045 36.3275 12.6112C36.2528 12.7925 36.1248 12.9525 35.9435 13.0912C35.8582 13.1445 35.7675 13.1765 35.6715 13.1872C35.5862 13.2085 35.4902 13.2245 35.3835 13.2352C35.2662 13.2352 35.1595 13.2245 35.0635 13.2032C34.9782 13.1819 34.8928 13.1552 34.8075 13.1232C34.6582 13.0272 34.5462 12.9045 34.4715 12.7552C34.4395 12.6699 34.4128 12.5845 34.3915 12.4992C34.3808 12.4139 34.3702 12.3392 34.3595 12.2752C34.3595 12.2112 34.3542 12.1419 34.3435 12.0672C34.3328 11.9925 34.3275 11.9285 34.3275 11.8752C34.3488 11.8112 34.3595 11.7472 34.3595 11.6832C34.3595 11.6085 34.3595 11.5499 34.3595 11.5072C34.3382 11.3792 34.3275 11.2085 34.3275 10.9952C34.3275 10.7712 34.3275 10.5792 34.3275 10.4192V9.9552H30.9035ZM38.5195 3.8432C38.5195 3.59787 38.4768 3.38987 38.3915 3.2192C38.3382 3.11253 38.2688 3.01653 38.1835 2.9312C38.1088 2.84587 38.0128 2.7712 37.8955 2.7072C37.7782 2.62187 37.6288 2.5632 37.4475 2.5312C37.2662 2.48853 37.0795 2.4672 36.8875 2.4672C36.5675 2.42453 36.1675 2.39253 35.6875 2.3712C35.4528 2.34987 35.2235 2.34453 34.9995 2.3552C34.7755 2.36587 34.5515 2.37653 34.3275 2.3872C34.1035 2.40853 33.8902 2.44053 33.6875 2.4832C33.4955 2.52587 33.3142 2.5952 33.1435 2.6912C32.7808 2.82987 32.5728 3.06987 32.5195 3.4112C32.4662 3.6352 32.4662 3.82187 32.5195 3.9712C32.5408 4.07787 32.5728 4.17387 32.6155 4.2592C32.6582 4.34453 32.7275 4.42453 32.8235 4.4992C32.9622 4.63787 33.1648 4.74987 33.4315 4.8352C33.6662 4.9632 34.0022 5.0272 34.4395 5.0272C34.5995 5.04853 34.7595 5.06453 34.9195 5.0752C35.0902 5.08587 35.2768 5.10187 35.4795 5.1232H36.6315C37.0155 5.08053 37.3675 5.0272 37.6875 4.9632C38.0182 4.82453 38.2528 4.66987 38.3915 4.4992C38.4342 4.38187 38.4608 4.2752 38.4715 4.1792C38.4822 4.07253 38.4982 3.96053 38.5195 3.8432Z" fill="black"/>
<path d="M52.8123 11.9392C52.9829 11.9605 53.1323 12.0032 53.2603 12.0672C53.3883 12.1312 53.4789 12.2485 53.5322 12.4192C53.6602 12.8032 53.5216 13.0752 53.1162 13.2352C52.9882 13.2885 52.8603 13.3205 52.7323 13.3312C52.6043 13.3419 52.4816 13.3472 52.3643 13.3472H44.9243C44.7109 13.3472 44.4869 13.3419 44.2523 13.3312C44.0283 13.3312 43.7989 13.3259 43.5643 13.3152C43.3403 13.3045 43.1536 13.2245 43.0042 13.0752C42.8549 12.9259 42.7696 12.7285 42.7482 12.4832L42.7002 11.3632C42.6896 11.2459 42.6896 11.1072 42.7002 10.9472C42.7109 10.7872 42.7642 10.6539 42.8602 10.5472C43.0096 10.3872 43.2069 10.2859 43.4523 10.2432C43.7083 10.2005 43.9536 10.1792 44.1883 10.1792C44.3376 10.1792 44.5829 10.1792 44.9243 10.1792C45.2763 10.1792 45.7509 10.1845 46.3483 10.1952C46.9456 10.1952 47.6816 10.1952 48.5563 10.1952C49.4416 10.1952 50.4923 10.1952 51.7083 10.1952V9.6192H43.8363C43.7296 9.6192 43.6336 9.6192 43.5482 9.6192C43.4629 9.6192 43.3776 9.60853 43.2923 9.5872C43.1963 9.56587 43.1109 9.54453 43.0363 9.5232C42.9616 9.50187 42.8976 9.44853 42.8442 9.3632C42.6949 9.1392 42.6576 8.90987 42.7323 8.6752C42.7643 8.58987 42.8123 8.52587 42.8763 8.4832C42.9403 8.42987 43.0149 8.3872 43.1003 8.3552C43.1856 8.3232 43.2656 8.30187 43.3403 8.2912C43.4256 8.28053 43.5003 8.26987 43.5643 8.2592C43.7243 8.2272 43.8896 8.2112 44.0602 8.2112C44.2096 8.2112 44.3696 8.2112 44.5402 8.2112C44.7216 8.2112 44.9349 8.21653 45.1803 8.2272C45.4256 8.2272 45.7083 8.2272 46.0283 8.2272C46.3589 8.2272 46.7429 8.2272 47.1803 8.2272C47.1803 8.07787 47.1856 7.93387 47.1963 7.7952C47.2069 7.64587 47.2122 7.48587 47.2122 7.3152C46.9669 7.3152 46.7483 7.3152 46.5563 7.3152C46.3749 7.3152 46.1936 7.3152 46.0122 7.3152C45.8416 7.3152 45.6656 7.3152 45.4842 7.3152C45.3029 7.30453 45.1003 7.29387 44.8763 7.2832C44.7803 7.2832 44.6416 7.27787 44.4603 7.2672C44.2789 7.25653 44.0869 7.2512 43.8843 7.2512C43.6816 7.24053 43.4896 7.2352 43.3083 7.2352C43.1376 7.22453 43.0149 7.2192 42.9403 7.2192C42.7696 7.19787 42.6309 7.17653 42.5243 7.1552C42.4283 7.13387 42.3109 7.0592 42.1722 6.9312C42.0976 6.8672 42.0442 6.8032 42.0122 6.7392C41.9802 6.66453 41.9642 6.56853 41.9642 6.4512C41.9642 6.21653 42.0336 6.02987 42.1722 5.8912C42.2469 5.80587 42.3482 5.74187 42.4762 5.6992C42.6042 5.65653 42.7269 5.62987 42.8442 5.6192C42.9616 5.59787 43.0629 5.5872 43.1483 5.5872C43.2443 5.5872 43.2976 5.5872 43.3083 5.5872H52.4603C52.6203 5.5872 52.7803 5.5872 52.9403 5.5872C53.1003 5.5872 53.2549 5.59253 53.4043 5.6032C53.5536 5.61387 53.6976 5.6352 53.8363 5.6672C53.9856 5.68853 54.1189 5.75253 54.2363 5.8592C54.3536 5.94453 54.4176 6.04587 54.4282 6.1632C54.4496 6.26987 54.4603 6.3872 54.4603 6.5152C54.4603 6.6752 54.4122 6.79787 54.3162 6.8832C54.2309 6.96853 54.1082 7.03787 53.9482 7.0912C53.7349 7.17653 53.4949 7.22453 53.2283 7.2352C52.9723 7.2352 52.7376 7.24053 52.5243 7.2512C51.9909 7.27253 51.4736 7.28853 50.9723 7.2992C50.4816 7.30987 49.9642 7.3152 49.4202 7.3152C49.4309 7.46453 49.4309 7.6192 49.4202 7.7792C49.4096 7.92853 49.4043 8.07787 49.4043 8.2272H51.8683C52.4123 8.2272 52.8282 8.31253 53.1162 8.4832C53.4042 8.6432 53.5483 8.90987 53.5483 9.2832V10.4192C53.5483 10.5685 53.5109 10.7179 53.4363 10.8672C53.3723 11.0059 53.2549 11.1232 53.0843 11.2192C52.9456 11.3045 52.8069 11.3525 52.6683 11.3632C52.5296 11.3632 52.3909 11.3632 52.2523 11.3632H44.6683V11.9392H52.8123ZM42.7643 2.5152C42.7643 2.07787 42.8869 1.7152 43.1323 1.4272C43.3883 1.1392 43.7456 0.9152 44.2043 0.7552C44.6736 0.584533 45.2443 0.4672 45.9163 0.4032C46.5883 0.328533 47.3509 0.2912 48.2043 0.2912C49.0149 0.2912 49.7562 0.317867 50.4282 0.3712C51.1002 0.413867 51.6763 0.5152 52.1562 0.6752C52.6363 0.8352 53.0043 1.06453 53.2603 1.3632C53.5269 1.6512 53.6603 2.0352 53.6603 2.5152C53.6603 2.9952 53.5482 3.38453 53.3242 3.6832C53.1002 3.9712 52.7589 4.1952 52.3003 4.3552C51.8416 4.50453 51.2709 4.60587 50.5882 4.6592C49.9056 4.71253 49.1109 4.7392 48.2043 4.7392C47.4469 4.7392 46.7376 4.71253 46.0763 4.6592C45.4256 4.60587 44.8496 4.50453 44.3483 4.3552C43.8576 4.1952 43.4682 3.9712 43.1802 3.6832C42.9029 3.38453 42.7643 2.9952 42.7643 2.5152ZM51.4683 2.5152C51.4683 2.34453 51.3669 2.21653 51.1642 2.1312C50.9722 2.0352 50.7216 1.96587 50.4123 1.9232C50.1029 1.86987 49.7509 1.83787 49.3563 1.8272C48.9723 1.81653 48.5883 1.8112 48.2043 1.8112C47.8203 1.8112 47.4416 1.81653 47.0682 1.8272C46.6949 1.83787 46.3589 1.86987 46.0602 1.9232C45.7616 1.96587 45.5162 2.0352 45.3242 2.1312C45.1429 2.21653 45.0522 2.34453 45.0522 2.5152C45.0522 2.66453 45.1429 2.78187 45.3242 2.8672C45.5056 2.95253 45.7456 3.01653 46.0443 3.0592C46.3429 3.0912 46.6736 3.11253 47.0363 3.1232C47.4096 3.13387 47.7882 3.1392 48.1722 3.1392C48.5562 3.1392 48.9402 3.14453 49.3242 3.1552C49.7189 3.1552 50.0763 3.14453 50.3963 3.1232C50.7163 3.0912 50.9722 3.03253 51.1642 2.9472C51.3669 2.8512 51.4683 2.7072 51.4683 2.5152Z" fill="black"/>
<path d="M64.8169 3.5392C65.0195 3.62453 65.2169 3.7312 65.4089 3.8592C65.6009 3.9872 65.7822 4.12053 65.9529 4.2592C66.0382 4.33387 66.0969 4.42987 66.1289 4.5472C66.1609 4.66453 66.1609 4.78187 66.1289 4.8992C66.1075 5.00587 66.0542 5.1072 65.9689 5.2032C65.8942 5.28853 65.7929 5.34187 65.6649 5.3632C65.3235 5.43787 64.9662 5.43787 64.5929 5.3632C64.2302 5.27787 63.8942 5.16587 63.5849 5.0272C63.2969 4.8992 63.0302 4.77653 62.7849 4.6592C62.5395 4.54187 62.2942 4.41387 62.0489 4.2752C61.9742 4.23253 61.8729 4.1792 61.7449 4.1152C61.6275 4.0512 61.5102 3.9872 61.3929 3.9232C61.2542 3.84853 61.1049 3.77387 60.9449 3.6992C60.7635 3.78453 60.5875 3.86453 60.4169 3.9392C60.2675 4.0032 60.1182 4.0672 59.9689 4.1312C59.8302 4.1952 59.7182 4.24853 59.6329 4.2912C59.3555 4.44053 59.0995 4.56853 58.8649 4.6752C58.6302 4.7712 58.3742 4.8832 58.0969 5.0112C57.8835 5.09653 57.6649 5.19787 57.4409 5.3152C57.2275 5.42187 56.9982 5.46453 56.7529 5.4432C56.5609 5.43253 56.3742 5.38453 56.1929 5.2992C56.0115 5.21387 55.8995 5.06453 55.8569 4.8512C55.8462 4.74453 55.8569 4.62187 55.8889 4.4832C55.9315 4.33387 56.0009 4.20587 56.0969 4.0992C56.2035 3.99253 56.3315 3.89653 56.4809 3.8112L57.5849 3.2672C57.7662 3.1712 57.9262 3.0912 58.0649 3.0272C58.2035 2.9632 58.3689 2.88853 58.5609 2.8032C58.7422 2.7072 58.9502 2.60053 59.1849 2.4832C59.4302 2.36587 59.6595 2.26987 59.8729 2.1952V1.6992H58.1769C58.0062 1.6992 57.8569 1.70453 57.7289 1.7152C57.6115 1.7152 57.4729 1.70453 57.3129 1.6832C57.1955 1.66187 57.0675 1.6512 56.9289 1.6512C56.7902 1.6512 56.6622 1.62453 56.5449 1.5712C56.4275 1.5072 56.3315 1.40587 56.2569 1.2672C56.1929 1.16053 56.1555 1.0432 56.1449 0.9152C56.1342 0.776533 56.1555 0.648533 56.2089 0.5312C56.2942 0.360533 56.4329 0.232534 56.6249 0.1472C56.8169 0.0618665 57.0142 0.0191998 57.2169 0.0191998H57.5849C57.7555 0.0298663 57.8782 0.0351995 57.9529 0.0351995C58.0382 0.024533 58.1662 0.0191998 58.3369 0.0191998H63.8729C64.0435 0.0191998 64.2409 0.0138665 64.4649 0.00319996C64.6889 -0.00746657 64.9022 0.00853322 65.1049 0.0511993C65.3182 0.0831996 65.5049 0.152533 65.6649 0.2592C65.8355 0.365866 65.9475 0.531199 66.0009 0.7552C66.0649 1.0112 66.0169 1.20853 65.8569 1.3472C65.7075 1.48587 65.5102 1.5872 65.2649 1.6512C65.0302 1.70453 64.7795 1.73653 64.5129 1.7472C64.2462 1.7472 64.0275 1.74187 63.8569 1.7312C63.6862 1.72053 63.5049 1.7152 63.3129 1.7152C63.1315 1.7152 62.9555 1.7152 62.7849 1.7152C62.5929 1.7152 62.4009 1.72053 62.2089 1.7312V2.2272C62.2729 2.2592 62.3369 2.29653 62.4009 2.3392C62.4755 2.3712 62.5502 2.39787 62.6249 2.4192C62.6889 2.4512 62.7475 2.4832 62.8009 2.5152C62.8649 2.5472 62.9289 2.5792 62.9929 2.6112C63.0995 2.66453 63.2009 2.71787 63.2969 2.7712C63.4035 2.81387 63.5102 2.86187 63.6169 2.9152C63.8195 3.0112 64.0169 3.11253 64.2089 3.2192C64.4115 3.32587 64.6142 3.43253 64.8169 3.5392ZM56.4009 5.9232C56.6675 5.93387 56.9929 5.9392 57.3769 5.9392C57.7609 5.9392 58.1609 5.9392 58.5769 5.9392C58.9929 5.9392 59.4035 5.9392 59.8089 5.9392C60.2142 5.92853 60.5715 5.9232 60.8809 5.9232C61.5529 5.9232 62.2675 5.91787 63.0249 5.9072C63.7822 5.89653 64.5235 5.90187 65.2489 5.9232H65.3289C65.5102 5.9232 65.7022 5.91787 65.9049 5.9072C66.1182 5.89653 66.3102 5.91253 66.4809 5.9552C66.6622 5.9872 66.8062 6.07253 66.9129 6.2112C67.0302 6.3392 67.0889 6.5472 67.0889 6.8352C67.0889 7.04853 66.9822 7.2512 66.7689 7.4432C66.5982 7.59253 66.3902 7.67787 66.1449 7.6992C65.9102 7.70987 65.6862 7.70987 65.4729 7.6992C65.4195 7.68853 65.3715 7.6832 65.3289 7.6832C65.2862 7.6832 65.2382 7.6832 65.1849 7.6832H56.3689C56.3582 7.6832 56.3102 7.6832 56.2249 7.6832C56.1395 7.6832 56.0382 7.67253 55.9209 7.6512C55.8142 7.62987 55.7022 7.6032 55.5849 7.5712C55.4675 7.52853 55.3715 7.46453 55.2969 7.3792C55.1689 7.24053 55.1049 7.0752 55.1049 6.8832C55.1049 6.76587 55.1209 6.6752 55.1529 6.6112C55.1955 6.53653 55.2489 6.4672 55.3129 6.4032C55.4515 6.2752 55.5955 6.16853 55.7449 6.0832C55.8942 5.99787 56.0489 5.94453 56.2089 5.9232C56.2409 5.9232 56.2729 5.92853 56.3049 5.9392C56.3369 5.9392 56.3689 5.93387 56.4009 5.9232ZM55.7449 10.6752C55.7449 10.1952 55.8835 9.80587 56.1609 9.5072C56.4382 9.19787 56.8115 8.95787 57.2809 8.7872C57.7502 8.60587 58.2995 8.4832 58.9289 8.4192C59.5689 8.3552 60.2515 8.3232 60.9769 8.3232C61.7022 8.3232 62.3795 8.34987 63.0089 8.4032C63.6489 8.44587 64.2035 8.5472 64.6729 8.7072C65.1529 8.8672 65.5315 9.1072 65.8089 9.4272C66.0862 9.73653 66.2249 10.1525 66.2249 10.6752C66.2249 11.1979 66.0862 11.6192 65.8089 11.9392C65.5315 12.2485 65.1529 12.4832 64.6729 12.6432C64.2035 12.8139 63.6489 12.9205 63.0089 12.9632C62.3795 13.0165 61.7022 13.0432 60.9769 13.0432C60.2515 13.0432 59.5689 13.0165 58.9289 12.9632C58.2995 12.9205 57.7502 12.8139 57.2809 12.6432C56.8115 12.4832 56.4382 12.2485 56.1609 11.9392C55.8835 11.6192 55.7449 11.1979 55.7449 10.6752ZM64.1129 10.6752C64.1129 10.4939 64.0169 10.3552 63.8249 10.2592C63.6435 10.1632 63.3982 10.0939 63.0889 10.0512C62.7902 10.0085 62.4542 9.9872 62.0809 9.9872C61.7075 9.97653 61.3395 9.9712 60.9769 9.9712C60.6142 9.9712 60.2515 9.97653 59.8889 9.9872C59.5262 9.9872 59.2009 10.0085 58.9129 10.0512C58.6249 10.0939 58.3902 10.1632 58.2089 10.2592C58.0382 10.3552 57.9529 10.4939 57.9529 10.6752C57.9529 10.8352 58.0382 10.9632 58.2089 11.0592C58.3902 11.1552 58.6249 11.2299 58.9129 11.2832C59.2009 11.3259 59.5262 11.3579 59.8889 11.3792C60.2515 11.3899 60.6142 11.3952 60.9769 11.3952C61.3395 11.3952 61.7075 11.4005 62.0809 11.4112C62.4542 11.4112 62.7902 11.3952 63.0889 11.3632C63.3982 11.3205 63.6435 11.2512 63.8249 11.1552C64.0169 11.0485 64.1129 10.8885 64.1129 10.6752Z" fill="black"/>
<path d="M77.9661 0.9632C78.4035 0.9632 78.7821 1.00587 79.1021 1.0912C79.2408 1.14453 79.3741 1.2192 79.5021 1.3152C79.6301 1.40053 79.7368 1.5232 79.8221 1.6832C79.9075 1.8112 79.9608 1.94987 79.9821 2.0992C80.0035 2.24853 79.9768 2.3872 79.9021 2.5152C79.7741 2.81387 79.5075 2.9952 79.1021 3.0592C78.9741 3.08053 78.8408 3.10187 78.7021 3.1232C78.5635 3.13387 78.4035 3.1392 78.2221 3.1392C78.0728 3.1392 77.8861 3.1392 77.6621 3.1392C77.4488 3.12853 77.2141 3.11253 76.9581 3.0912C76.9475 3.11253 76.9421 3.18187 76.9421 3.2992C76.9421 3.40587 76.9421 3.54453 76.9421 3.7152C76.9421 3.88587 76.9421 4.07253 76.9421 4.2752C76.9421 4.47787 76.9421 4.68587 76.9421 4.8992C76.9421 5.40053 76.9475 5.96053 76.9581 6.5792V6.9312C76.9581 7.00587 76.9581 7.06453 76.9581 7.1072C76.9581 7.14987 76.9688 7.19787 76.9901 7.2512C77.0008 7.26187 77.0648 7.34187 77.1821 7.4912C77.2995 7.62987 77.4381 7.80587 77.5981 8.0192C77.7688 8.23253 77.9501 8.4672 78.1421 8.7232C78.3341 8.96853 78.5155 9.2032 78.6861 9.4272C78.8568 9.6512 79.0061 9.85387 79.1341 10.0352C79.2621 10.2059 79.3421 10.3232 79.3741 10.3872C79.4595 10.5365 79.5395 10.7019 79.6141 10.8832C79.6995 11.0539 79.7528 11.2245 79.7741 11.3952C79.7955 11.4592 79.8061 11.5339 79.8061 11.6192C79.8168 11.7045 79.8221 11.7952 79.8221 11.8912C79.7795 12.0405 79.6888 12.1845 79.5501 12.3232C79.4648 12.3872 79.3741 12.4405 79.2781 12.4832C79.1928 12.5259 79.0915 12.5472 78.9741 12.5472C78.7821 12.5472 78.6115 12.5152 78.4621 12.4512C78.3128 12.3765 78.1741 12.2859 78.0461 12.1792C77.9181 12.0619 77.8008 11.9339 77.6941 11.7952C77.5875 11.6565 77.4861 11.5125 77.3901 11.3632C77.3048 11.2459 77.1928 11.0965 77.0541 10.9152C76.9261 10.7339 76.8141 10.5845 76.7181 10.4672C76.6541 10.3819 76.5955 10.3019 76.5421 10.2272C76.4995 10.1525 76.4408 10.0725 76.3661 9.9872C76.2808 9.86987 76.1955 9.75253 76.1101 9.6352C76.0248 9.5072 75.9341 9.38453 75.8381 9.2672C75.6355 9.51253 75.4488 9.75253 75.2781 9.9872C75.1181 10.2112 74.9528 10.4405 74.7821 10.6752C74.6115 10.8992 74.4355 11.1285 74.2541 11.3632C74.0728 11.5979 73.8701 11.8485 73.6461 12.1152C73.5288 12.2432 73.4008 12.3552 73.2621 12.4512C73.1235 12.5472 72.9475 12.5952 72.7341 12.5952C72.6915 12.5952 72.6488 12.5845 72.6061 12.5632C72.5635 12.5525 72.5048 12.5472 72.4301 12.5472C72.1955 12.4405 72.0355 12.2965 71.9501 12.1152C71.8968 11.9979 71.8648 11.8912 71.8541 11.7952C71.8541 11.6992 71.8541 11.5979 71.8541 11.4912C71.8755 11.3739 71.8968 11.2725 71.9181 11.1872C71.9501 11.1019 71.9928 11.0219 72.0461 10.9472C72.0888 10.8619 72.1315 10.7765 72.1741 10.6912C72.2168 10.6059 72.2595 10.5205 72.3021 10.4352C72.3661 10.3499 72.4248 10.2699 72.4781 10.1952C72.5315 10.1099 72.5901 10.0245 72.6541 9.9392C72.6755 9.88587 72.7075 9.8432 72.7501 9.8112C72.7928 9.76853 72.8408 9.72587 72.8941 9.6832C72.9155 9.62987 72.9421 9.58187 72.9741 9.5392C73.0061 9.49653 73.0328 9.43787 73.0541 9.3632C73.1075 9.2992 73.1661 9.2192 73.2301 9.1232C73.2941 9.01653 73.3688 8.92053 73.4541 8.8352C73.6035 8.62187 73.7635 8.4032 73.9341 8.1792C74.0088 8.09387 74.0835 7.99787 74.1581 7.8912C74.2328 7.77387 74.3128 7.67253 74.3981 7.5872C74.4621 7.5232 74.5368 7.43253 74.6221 7.3152C74.7075 7.19787 74.7608 7.11787 74.7821 7.0752V3.0912H72.8941C72.7021 3.0912 72.5795 3.08053 72.5261 3.0592C72.1208 2.9952 71.8541 2.7712 71.7261 2.3872C71.5981 2.02453 71.6301 1.7312 71.8221 1.5072C71.9395 1.36853 72.0568 1.25653 72.1741 1.1712C72.2915 1.08587 72.4355 1.03253 72.6061 1.0112C72.6381 0.9792 72.6808 0.9632 72.7341 0.9632H77.9661ZM83.7421 5.2032C83.9768 5.2032 84.1955 5.20853 84.3981 5.2192C84.6008 5.22987 84.7715 5.3472 84.9101 5.5712C85.0168 5.75253 85.0701 5.94453 85.0701 6.1472C85.0701 6.34987 85.0168 6.52587 84.9101 6.6752C84.8248 6.7712 84.7395 6.84587 84.6541 6.8992C84.5795 6.95253 84.4941 6.98987 84.3981 7.0112C84.3128 7.03253 84.2115 7.04853 84.0941 7.0592C83.9768 7.0592 83.8488 7.06453 83.7101 7.0752H82.9901V9.2672C83.0115 9.64053 83.0168 10.0245 83.0061 10.4192C82.9955 10.8139 82.9901 11.1979 82.9901 11.5712C82.9901 11.6565 82.9848 11.7419 82.9741 11.8272C82.9635 11.9019 82.9581 11.9819 82.9581 12.0672C82.9368 12.1312 82.9208 12.2059 82.9101 12.2912C82.8995 12.3659 82.8728 12.4352 82.8301 12.4992C82.8088 12.5739 82.7821 12.6379 82.7501 12.6912C82.7181 12.7552 82.6701 12.8139 82.6061 12.8672C82.4461 13.0165 82.2328 13.0912 81.9661 13.0912C81.6995 13.0912 81.4861 13.0005 81.3261 12.8192C81.1875 12.6805 81.0968 12.5045 81.0541 12.2912C81.0221 12.0779 80.9955 11.8805 80.9741 11.6992C80.9741 11.5925 80.9635 11.4965 80.9421 11.4112C80.9315 11.3152 80.9261 11.2245 80.9261 11.1392V1.6832C80.9261 1.59787 80.9261 1.51787 80.9261 1.4432C80.9368 1.36853 80.9528 1.2992 80.9741 1.2352C80.9955 1.08587 81.0221 0.952533 81.0541 0.8352C81.0861 0.717867 81.1608 0.6112 81.2781 0.5152C81.3421 0.4512 81.4488 0.392533 81.5981 0.339199C81.7688 0.296533 81.9341 0.285867 82.0941 0.3072C82.2648 0.317866 82.4195 0.3872 82.5581 0.5152C82.7395 0.6432 82.8301 0.808533 82.8301 1.0112C82.8941 1.32053 82.9368 1.62453 82.9581 1.9232C82.9795 2.2112 82.9901 2.50987 82.9901 2.8192V5.2032H83.7421Z" fill="black"/>
<path d="M89.6284 10.3072C89.6177 10.1792 89.6124 10.0512 89.6124 9.9232C89.6124 9.7952 89.6124 9.6672 89.6124 9.5392V4.4512C89.6124 4.28053 89.6124 4.10987 89.6124 3.9392C89.6124 3.76853 89.6017 3.59253 89.5804 3.4112C89.5697 3.35787 89.5537 3.2832 89.5324 3.1872C89.5217 3.0912 89.4897 3.03253 89.4364 3.0112C89.383 2.9792 89.319 2.96853 89.2444 2.9792C89.1804 2.9792 89.1164 2.97387 89.0524 2.9632C88.9777 2.95253 88.903 2.95253 88.8284 2.9632C88.7644 2.97387 88.695 2.97387 88.6204 2.9632H87.8684C87.687 2.97387 87.5057 2.97387 87.3244 2.9632C87.143 2.95253 86.9617 2.95253 86.7804 2.9632C86.695 2.97387 86.615 2.9792 86.5404 2.9792C86.4764 2.96853 86.4017 2.9632 86.3164 2.9632C86.199 2.9632 86.0764 2.95787 85.9484 2.9472C85.8204 2.93653 85.703 2.89387 85.5964 2.8192C85.447 2.71253 85.3457 2.5792 85.2924 2.4192C85.239 2.2592 85.2124 2.09387 85.2124 1.9232C85.2017 1.72053 85.2444 1.51787 85.3404 1.3152C85.3937 1.1872 85.463 1.09653 85.5484 1.0432C85.6017 0.989867 85.6764 0.9472 85.7724 0.9152C85.879 0.872533 85.9697 0.840533 86.0444 0.8192C86.2684 0.765867 86.503 0.7392 86.7484 0.7392C86.9937 0.728533 87.2337 0.7232 87.4684 0.7232H90.2524C90.391 0.744533 90.535 0.765866 90.6844 0.787199C90.8444 0.797867 90.9884 0.829867 91.1164 0.8832C91.2017 0.9152 91.2817 0.957866 91.3564 1.0112C91.4417 1.06453 91.511 1.12853 91.5644 1.2032C91.6604 1.35253 91.7137 1.50187 91.7244 1.6512C91.7457 1.80053 91.767 1.96587 91.7884 2.1472C91.8097 2.44587 91.8204 2.74453 91.8204 3.0432C91.8204 3.3312 91.8204 3.62453 91.8204 3.9232V9.1712C91.8204 9.18187 91.8204 9.2672 91.8204 9.4272C91.831 9.57653 91.8364 9.75787 91.8364 9.9712C91.8364 10.1739 91.8364 10.3925 91.8364 10.6272C91.8364 10.8512 91.831 11.0485 91.8204 11.2192C91.8097 11.3259 91.7937 11.4379 91.7724 11.5552C91.751 11.6725 91.7137 11.7845 91.6604 11.8912C91.6177 11.9979 91.5537 12.0939 91.4684 12.1792C91.383 12.2645 91.271 12.3339 91.1324 12.3872C90.951 12.4619 90.7697 12.4992 90.5884 12.4992C90.4497 12.4992 90.311 12.4725 90.1724 12.4192C90.0337 12.3552 89.9377 12.2645 89.8844 12.1472C89.7137 11.8059 89.6284 11.4272 89.6284 11.0112V10.3072ZM96.3964 5.1232C96.5457 5.13387 96.7004 5.14453 96.8604 5.1552C97.0204 5.1552 97.175 5.16053 97.3244 5.1712C97.3777 5.1712 97.4364 5.17653 97.5004 5.1872C97.5644 5.19787 97.6284 5.20853 97.6924 5.2192C97.9057 5.26187 98.0764 5.35253 98.2044 5.4912C98.343 5.6192 98.4124 5.7952 98.4124 6.0192C98.4124 6.16853 98.3964 6.3392 98.3644 6.5312C98.343 6.7232 98.263 6.87253 98.1244 6.9792C98.0604 7.03253 97.9964 7.0752 97.9324 7.1072C97.8684 7.1392 97.7937 7.16587 97.7084 7.1872C97.5377 7.20853 97.3297 7.21387 97.0844 7.2032C96.839 7.19253 96.631 7.19253 96.4604 7.2032C96.4177 7.2032 96.3964 7.22987 96.3964 7.2832C96.3964 7.4112 96.3964 7.56587 96.3964 7.7472C96.3964 7.91787 96.3964 8.0992 96.3964 8.2912C96.3964 8.47253 96.3964 8.65387 96.3964 8.8352C96.3964 9.00587 96.3964 9.16053 96.3964 9.2992C96.4177 9.85387 96.4177 10.3979 96.3964 10.9312V11.1552C96.3964 11.2939 96.391 11.4485 96.3804 11.6192C96.3804 11.7792 96.3697 11.9392 96.3484 12.0992C96.327 12.2592 96.2897 12.4139 96.2364 12.5632C96.183 12.7019 96.1084 12.8192 96.0124 12.9152C95.8844 13.0645 95.7137 13.1392 95.5004 13.1392C95.5004 13.1392 95.4897 13.1339 95.4684 13.1232C95.2124 13.1125 95.0044 13.0379 94.8444 12.8992C94.695 12.7605 94.5777 12.5899 94.4924 12.3872C94.4177 12.1845 94.3697 11.9765 94.3484 11.7632C94.327 11.5392 94.3164 11.3419 94.3164 11.1712V1.6672C94.3164 1.65653 94.3164 1.60853 94.3164 1.5232C94.3164 1.4272 94.327 1.32053 94.3484 1.2032C94.3697 1.0752 94.4017 0.9472 94.4444 0.8192C94.4977 0.680533 94.567 0.568533 94.6524 0.4832C94.727 0.408533 94.8337 0.3552 94.9724 0.3232C95.1217 0.280533 95.255 0.2592 95.3724 0.2592C95.607 0.2592 95.8044 0.3392 95.9644 0.4992C96.1137 0.648534 96.199 0.808533 96.2204 0.9792C96.2524 1.1392 96.279 1.30987 96.3004 1.4912C96.311 1.53387 96.3164 1.59787 96.3164 1.6832C96.3377 1.86453 96.3484 2.0512 96.3484 2.2432C96.359 2.4352 96.3697 2.6272 96.3804 2.8192C96.3804 2.90453 96.3804 2.97387 96.3804 3.0272C96.3804 3.08053 96.3804 3.16587 96.3804 3.2832C96.391 3.38987 96.3964 3.5552 96.3964 3.7792C96.3964 4.0032 96.3964 4.32853 96.3964 4.7552V5.1232Z" fill="black"/>
<path d="M105.098 5.3152H106.794C106.911 5.3152 107.023 5.32587 107.13 5.3472C107.247 5.36853 107.354 5.40587 107.45 5.4592C107.599 5.5552 107.695 5.69387 107.738 5.8752C107.781 6.05653 107.791 6.23253 107.77 6.4032C107.77 6.47787 107.765 6.55787 107.754 6.6432C107.754 6.72853 107.727 6.8032 107.674 6.8672C107.557 7.0272 107.434 7.12853 107.306 7.1712C107.189 7.2032 107.061 7.2192 106.922 7.2192H105.114C105.114 7.42187 105.114 7.62453 105.114 7.8272C105.114 8.0192 105.114 8.1952 105.114 8.3552C105.114 8.50453 105.109 8.6272 105.098 8.7232C105.098 8.8192 105.098 8.8672 105.098 8.8672V9.4272C105.098 9.57653 105.109 9.70453 105.13 9.8112C105.151 9.91787 105.173 9.97653 105.194 9.9872C105.258 10.0299 105.343 10.0619 105.45 10.0832C105.557 10.1045 105.706 10.1152 105.898 10.1152C105.973 10.1152 106.117 10.1152 106.33 10.1152C106.543 10.1152 106.762 10.1152 106.986 10.1152C107.21 10.1152 107.407 10.1152 107.578 10.1152C107.759 10.1045 107.861 10.0992 107.882 10.0992H108.122C108.282 10.0992 108.415 10.1045 108.522 10.1152C108.629 10.1259 108.762 10.1579 108.922 10.2112C108.965 10.2219 109.018 10.2485 109.082 10.2912C109.21 10.3872 109.301 10.5152 109.354 10.6752C109.418 10.8245 109.445 10.9792 109.434 11.1392C109.423 11.2992 109.381 11.4539 109.306 11.6032C109.231 11.7419 109.125 11.8485 108.986 11.9232C108.773 12.0512 108.57 12.1365 108.378 12.1792C108.186 12.2219 107.983 12.2432 107.77 12.2432H107.146C106.869 12.2539 106.618 12.2539 106.394 12.2432C106.181 12.2325 105.935 12.2325 105.658 12.2432H105.402C105.242 12.2432 105.066 12.2379 104.874 12.2272C104.682 12.2165 104.495 12.1899 104.314 12.1472C104.133 12.1045 103.962 12.0459 103.802 11.9712C103.653 11.8859 103.525 11.7792 103.418 11.6512C103.322 11.5339 103.247 11.3739 103.194 11.1712C103.141 10.9685 103.103 10.7712 103.082 10.5792C103.071 10.3765 103.066 10.2005 103.066 10.0512C103.066 9.90187 103.066 9.82187 103.066 9.8112V2.2112C103.066 2.20053 103.066 2.15787 103.066 2.0832C103.066 1.99787 103.071 1.9072 103.082 1.8112C103.093 1.70453 103.103 1.6032 103.114 1.5072C103.135 1.40053 103.162 1.32053 103.194 1.2672C103.279 1.11787 103.365 1.0112 103.45 0.9472C103.546 0.872533 103.669 0.824533 103.818 0.8032C103.861 0.792533 103.909 0.787199 103.962 0.787199C104.026 0.787199 104.085 0.781866 104.138 0.7712C104.202 0.7712 104.271 0.765866 104.346 0.7552H107.402C107.455 0.7552 107.509 0.760533 107.562 0.7712C107.615 0.7712 107.663 0.765866 107.706 0.7552H107.738C107.834 0.7552 107.925 0.760533 108.01 0.7712C108.106 0.781866 108.202 0.803199 108.298 0.8352C108.383 0.856533 108.469 0.8832 108.554 0.9152C108.65 0.936533 108.73 0.989867 108.794 1.0752C108.922 1.22453 108.997 1.3952 109.018 1.5872C109.039 1.67253 109.05 1.75253 109.05 1.8272C109.061 1.8912 109.055 1.96587 109.034 2.0512C109.013 2.26453 108.933 2.45653 108.794 2.6272C108.655 2.7872 108.474 2.8672 108.25 2.8672H105.098V5.3152ZM109.098 7.1232C109.002 7.1232 108.901 7.11253 108.794 7.0912C108.698 7.0592 108.602 7.0112 108.506 6.9472C108.421 6.8832 108.346 6.79787 108.282 6.6912C108.218 6.58453 108.181 6.4512 108.17 6.2912C108.149 6.0992 108.159 5.90187 108.202 5.6992C108.255 5.49653 108.405 5.33653 108.65 5.2192C108.746 5.16587 108.863 5.13387 109.002 5.1232C109.151 5.11253 109.279 5.11253 109.386 5.1232H109.994V1.6992C109.994 1.56053 109.994 1.42187 109.994 1.2832C109.994 1.13387 110.01 0.989866 110.042 0.8512C110.063 0.797866 110.079 0.749866 110.09 0.707199C110.111 0.664533 110.133 0.616533 110.154 0.563199C110.218 0.456533 110.282 0.376533 110.346 0.3232C110.41 0.2592 110.501 0.205867 110.618 0.1632C110.671 0.141867 110.725 0.1312 110.778 0.1312C110.842 0.120533 110.901 0.115199 110.954 0.115199C111.306 0.115199 111.573 0.2752 111.754 0.5952C111.797 0.6592 111.829 0.749867 111.85 0.8672C111.871 0.984533 111.887 1.1072 111.898 1.2352C111.909 1.35253 111.914 1.4592 111.914 1.5552C111.914 1.64053 111.914 1.69387 111.914 1.7152V11.1712C111.914 11.4379 111.903 11.6512 111.882 11.8112C111.861 11.9712 111.807 12.1739 111.722 12.4192C111.669 12.5792 111.578 12.7125 111.45 12.8192C111.322 12.9259 111.141 12.9792 110.906 12.9792C110.842 12.9792 110.762 12.9685 110.666 12.9472C110.57 12.9365 110.495 12.9099 110.442 12.8672C110.335 12.8032 110.25 12.7019 110.186 12.5632C110.133 12.4139 110.09 12.2592 110.058 12.0992C110.026 11.9392 110.005 11.7845 109.994 11.6352C109.994 11.4859 109.994 11.3685 109.994 11.2832V7.1712L109.098 7.1232ZM114.81 2.1152C114.831 2.92587 114.837 3.75787 114.826 4.6112C114.815 5.45387 114.81 6.25387 114.81 7.0112V11.0112C114.81 11.2885 114.799 11.5552 114.778 11.8112C114.767 12.0672 114.709 12.3072 114.602 12.5312C114.538 12.6699 114.437 12.7872 114.298 12.8832C114.181 12.9579 114.053 13.0005 113.914 13.0112C113.775 13.0325 113.637 13.0272 113.498 12.9952C113.338 12.9632 113.21 12.8939 113.114 12.7872C113.018 12.6912 112.943 12.5792 112.89 12.4512C112.847 12.3232 112.821 12.1845 112.81 12.0352C112.799 11.8859 112.794 11.7419 112.794 11.6032V1.8752C112.794 1.75787 112.794 1.62453 112.794 1.4752C112.794 1.3152 112.805 1.16587 112.826 1.0272C112.847 0.877867 112.874 0.7392 112.906 0.6112C112.949 0.483199 113.007 0.381866 113.082 0.3072C113.199 0.200533 113.311 0.136533 113.418 0.115199C113.525 0.0831999 113.653 0.0672001 113.802 0.0672001C113.983 0.0672001 114.149 0.120533 114.298 0.2272C114.447 0.3232 114.554 0.456533 114.618 0.6272C114.714 0.8512 114.762 1.09653 114.762 1.3632C114.773 1.62987 114.789 1.88053 114.81 2.1152Z" fill="black"/>
<path d="M119.771 7.4112C119.654 7.49653 119.531 7.59253 119.403 7.6992C119.286 7.80587 119.163 7.91787 119.035 8.0352C118.907 8.14187 118.774 8.2432 118.635 8.3392C118.496 8.4352 118.342 8.50453 118.171 8.5472C117.979 8.60053 117.771 8.5952 117.547 8.5312C117.323 8.4672 117.152 8.3552 117.035 8.1952C116.95 8.0672 116.907 7.9392 116.907 7.8112C116.907 7.6832 116.928 7.56053 116.971 7.4432C117.024 7.3152 117.088 7.19253 117.163 7.0752C117.238 6.95787 117.318 6.8512 117.403 6.7552C117.723 6.38187 118.048 6.02987 118.379 5.6992C118.72 5.35787 119.072 5.0272 119.435 4.7072C119.552 4.6112 119.686 4.4832 119.835 4.3232C119.984 4.15253 120.123 3.9872 120.251 3.8272C120.4 3.6352 120.555 3.4432 120.715 3.2512C120.715 3.0592 120.72 2.8672 120.731 2.6752C120.742 2.5152 120.747 2.3392 120.747 2.1472C120.758 1.9552 120.774 1.78453 120.795 1.6352C120.816 1.4432 120.864 1.26187 120.939 1.0912C121.014 0.920533 121.094 0.792533 121.179 0.707199C121.318 0.5792 121.504 0.4992 121.739 0.4672C121.974 0.424533 122.176 0.429866 122.347 0.4832C122.592 0.557866 122.768 0.685867 122.875 0.8672C122.992 1.04853 123.062 1.26187 123.083 1.5072C123.094 1.6032 123.099 1.73653 123.099 1.9072C123.11 2.07787 123.12 2.25387 123.131 2.4352C123.152 2.60587 123.174 2.7712 123.195 2.9312C123.227 3.0912 123.275 3.21387 123.339 3.2992C123.424 3.4272 123.504 3.54987 123.579 3.6672C123.664 3.78453 123.76 3.90187 123.867 4.0192C124.24 4.4352 124.608 4.85653 124.971 5.2832C125.334 5.6992 125.707 6.10987 126.091 6.5152C126.219 6.6432 126.342 6.8032 126.459 6.9952C126.576 7.1872 126.656 7.38453 126.699 7.5872C126.752 7.7792 126.747 7.96587 126.683 8.1472C126.63 8.31787 126.491 8.45653 126.267 8.5632C126.107 8.63787 125.952 8.66987 125.803 8.6592C125.654 8.63787 125.51 8.5952 125.371 8.5312C125.232 8.45653 125.099 8.36587 124.971 8.2592C124.854 8.15253 124.747 8.04587 124.651 7.9392L121.963 5.3952L119.771 7.4112ZM117.387 12.0352C117.216 12.0245 117.046 12.0032 116.875 11.9712C116.715 11.9285 116.571 11.8752 116.443 11.8112C116.315 11.7365 116.208 11.6352 116.123 11.5072C116.048 11.3792 116.011 11.2085 116.011 10.9952C116.011 10.7819 116.08 10.5952 116.219 10.4352C116.304 10.3499 116.411 10.2859 116.539 10.2432C116.667 10.2005 116.79 10.1685 116.907 10.1472C117.024 10.1259 117.126 10.1152 117.211 10.1152C117.307 10.1152 117.36 10.1152 117.371 10.1152L126.123 10.1312C126.4 10.1312 126.651 10.1365 126.875 10.1472C127.11 10.1472 127.318 10.2219 127.499 10.3712C127.723 10.5739 127.835 10.8032 127.835 11.0592C127.835 11.2192 127.787 11.3685 127.691 11.5072C127.595 11.6352 127.467 11.7259 127.307 11.7792C127.094 11.8645 126.87 11.9232 126.635 11.9552C126.411 11.9872 126.187 12.0085 125.963 12.0192C125.184 12.0512 124.416 12.0619 123.659 12.0512C122.902 12.0405 122.166 12.0352 121.451 12.0352C120.683 12.0352 119.931 12.0405 119.195 12.0512C118.47 12.0619 117.867 12.0565 117.387 12.0352Z" fill="black"/>
<path d="M139.264 6.8832C139.403 6.9792 139.499 7.10187 139.552 7.2512C139.616 7.38987 139.643 7.53387 139.632 7.6832C139.621 7.83253 139.573 7.97653 139.488 8.1152C139.413 8.2432 139.301 8.34453 139.152 8.4192C138.917 8.5472 138.672 8.63253 138.416 8.6752C138.16 8.71787 137.909 8.7392 137.664 8.7392H137.008C136.912 8.7392 136.736 8.7392 136.48 8.7392C136.224 8.7392 135.931 8.7392 135.6 8.7392C135.269 8.7392 134.917 8.7392 134.544 8.7392C134.181 8.7392 133.835 8.7392 133.504 8.7392C133.173 8.7392 132.88 8.7392 132.624 8.7392C132.368 8.7392 132.192 8.7392 132.096 8.7392H131.808C131.637 8.7392 131.451 8.73387 131.248 8.7232C131.045 8.71253 130.848 8.68587 130.656 8.6432C130.464 8.60053 130.283 8.54187 130.112 8.4672C129.941 8.38187 129.797 8.26987 129.68 8.1312C129.573 8.0032 129.493 7.84853 129.44 7.6672C129.387 7.4752 129.349 7.28853 129.328 7.1072C129.317 6.9152 129.312 6.7552 129.312 6.6272C129.312 6.48853 129.312 6.40853 129.312 6.3872V2.1312C129.312 2.12053 129.312 2.07253 129.312 1.9872C129.312 1.90187 129.317 1.8112 129.328 1.7152C129.339 1.60853 129.355 1.5072 129.376 1.4112C129.397 1.30453 129.424 1.2192 129.456 1.1552C129.552 1.00587 129.648 0.893866 129.744 0.8192C129.84 0.744533 129.968 0.696533 130.128 0.6752C130.171 0.664533 130.219 0.6592 130.272 0.6592C130.336 0.6592 130.4 0.653866 130.464 0.643199C130.528 0.643199 130.603 0.637866 130.688 0.6272H137.6C137.653 0.6272 137.707 0.632533 137.76 0.643199C137.824 0.643199 137.883 0.637866 137.936 0.6272H137.968C138.064 0.6272 138.16 0.632533 138.256 0.643199C138.363 0.653866 138.464 0.6752 138.56 0.707199C138.656 0.728533 138.752 0.7552 138.848 0.787199C138.944 0.8192 139.029 0.877866 139.104 0.9632C139.157 1.03787 139.205 1.1232 139.248 1.2192C139.291 1.30453 139.323 1.3952 139.344 1.4912C139.376 1.62987 139.381 1.78987 139.36 1.9712C139.328 2.1952 139.211 2.39253 139.008 2.5632C138.805 2.7232 138.587 2.8032 138.352 2.8032H131.504V3.7632C131.589 3.7632 131.717 3.76853 131.888 3.7792C132.059 3.7792 132.251 3.7792 132.464 3.7792C132.688 3.7792 132.923 3.7792 133.168 3.7792C133.424 3.7792 133.68 3.7792 133.936 3.7792C134.523 3.7792 135.163 3.77387 135.856 3.7632H137.408C137.461 3.7632 137.515 3.76853 137.568 3.7792C137.621 3.7792 137.675 3.77387 137.728 3.7632H138.16C138.277 3.7632 138.395 3.77387 138.512 3.7952C138.64 3.81653 138.757 3.8592 138.864 3.9232C139.024 4.0192 139.125 4.1632 139.168 4.3552C139.211 4.53653 139.221 4.71253 139.2 4.8832C139.2 5.09653 139.109 5.27253 138.928 5.4112C138.757 5.5392 138.549 5.6032 138.304 5.6032H136.384C135.733 5.61387 135.131 5.6192 134.576 5.6192H132.352C132.213 5.6192 132.075 5.6192 131.936 5.6192C131.797 5.6192 131.653 5.61387 131.504 5.6032C131.515 5.81653 131.52 5.94453 131.52 5.9872C131.52 6.02987 131.52 6.04053 131.52 6.0192C131.52 5.9872 131.515 5.94453 131.504 5.8912C131.504 5.8272 131.504 5.7952 131.504 5.7952V6.4512C131.504 6.52587 131.504 6.57387 131.504 6.5952C131.515 6.61653 131.525 6.6272 131.536 6.6272C131.547 6.61653 131.557 6.60587 131.568 6.5952C131.579 6.58453 131.589 6.5792 131.6 6.5792C131.675 6.62187 131.792 6.65387 131.952 6.6752C132.123 6.69653 132.315 6.7072 132.528 6.7072H132.592C132.645 6.7072 132.779 6.7072 132.992 6.7072C133.216 6.69653 133.472 6.6912 133.76 6.6912C134.048 6.6912 134.357 6.6912 134.688 6.6912C135.019 6.6912 135.328 6.6912 135.616 6.6912C135.904 6.6912 136.155 6.69653 136.368 6.7072C136.581 6.7072 136.72 6.7072 136.784 6.7072C136.997 6.7072 137.168 6.7072 137.296 6.7072C137.424 6.7072 137.531 6.7072 137.616 6.7072C137.701 6.7072 137.776 6.7072 137.84 6.7072C137.904 6.69653 137.979 6.6912 138.064 6.6912C138.235 6.6912 138.405 6.69653 138.576 6.7072C138.747 6.71787 138.917 6.74987 139.088 6.8032C139.12 6.81387 139.147 6.82453 139.168 6.8352C139.2 6.84587 139.232 6.86187 139.264 6.8832ZM129.856 12.1472C129.685 12.1365 129.515 12.1152 129.344 12.0832C129.184 12.0405 129.04 11.9872 128.912 11.9232C128.784 11.8485 128.677 11.7472 128.592 11.6192C128.517 11.4912 128.48 11.3205 128.48 11.1072C128.48 10.8939 128.549 10.7072 128.688 10.5472C128.773 10.4619 128.88 10.3979 129.008 10.3552C129.136 10.3125 129.259 10.2805 129.376 10.2592C129.493 10.2379 129.595 10.2272 129.68 10.2272C129.776 10.2272 129.829 10.2272 129.84 10.2272L138.752 10.2432C139.029 10.2432 139.28 10.2485 139.504 10.2592C139.739 10.2592 139.947 10.3339 140.128 10.4832C140.352 10.6859 140.464 10.9152 140.464 11.1712C140.464 11.3312 140.416 11.4805 140.32 11.6192C140.224 11.7472 140.096 11.8379 139.936 11.8912C139.723 11.9765 139.499 12.0352 139.264 12.0672C139.04 12.0992 138.816 12.1205 138.592 12.1312C137.813 12.1632 137.045 12.1739 136.288 12.1632C135.531 12.1525 134.795 12.1472 134.08 12.1472C133.696 12.1472 133.301 12.1525 132.896 12.1632C132.501 12.1632 132.117 12.1632 131.744 12.1632C131.381 12.1632 131.035 12.1632 130.704 12.1632C130.373 12.1632 130.091 12.1579 129.856 12.1472Z" fill="black"/>
</svg>
