<svg width="63" height="16" viewBox="0 0 63 16" fill="none" xmlns="http://www.w3.org/2000/svg">
<path d="M5.74327 3.35397C5.74327 3.35397 5.73727 3.42597 5.72527 3.56996C5.72527 3.71397 5.72527 3.87597 5.72527 4.05596C5.72527 4.23596 5.72527 4.40396 5.72527 4.55996C5.73727 4.71597 5.74327 4.80597 5.74327 4.82997C5.80327 4.88997 5.91127 4.99197 6.06727 5.13596C6.22327 5.26797 6.35527 5.38197 6.46327 5.47796C6.58327 5.57397 6.70327 5.68196 6.82327 5.80196C6.95527 5.90996 7.08727 6.02997 7.21927 6.16197C7.30327 6.24597 7.38127 6.32997 7.45327 6.41397C7.52527 6.48597 7.59127 6.55197 7.65127 6.61197C7.87927 6.83997 8.10727 7.08597 8.33527 7.34997C8.56327 7.61397 8.71927 7.88397 8.80327 8.15997C8.83927 8.26797 8.84527 8.38797 8.82127 8.51997C8.79727 8.65197 8.71927 8.76597 8.58727 8.86197C8.38327 8.98197 8.16727 9.04197 7.93927 9.04197C7.67527 9.04197 7.42327 8.98797 7.18327 8.87997C6.94327 8.77197 6.75127 8.66397 6.60727 8.55597C6.37927 8.38797 6.16927 8.21397 5.97727 8.03397C5.78527 7.84197 5.59327 7.64996 5.40127 7.45796C5.26927 7.32597 5.11927 7.17597 4.95127 7.00797C4.78327 6.82797 4.61527 6.67197 4.44727 6.53997L3.96127 7.02597C3.87727 7.10997 3.79327 7.19397 3.70927 7.27797C3.62527 7.34997 3.54727 7.42797 3.47527 7.51197C3.31927 7.67997 3.15727 7.85397 2.98927 8.03397C2.82127 8.20197 2.62927 8.36397 2.41327 8.51997C1.92127 8.87997 1.45927 9.05997 1.02727 9.05997C0.967271 9.05997 0.913271 9.05997 0.865271 9.05997C0.829271 9.05997 0.781271 9.04797 0.721271 9.02397C0.457271 8.96397 0.283271 8.85597 0.199271 8.69997C0.115271 8.56797 0.0852705 8.41797 0.109271 8.24997C0.145271 8.08197 0.199271 7.93197 0.271271 7.79997C0.367271 7.66797 0.475271 7.54197 0.595271 7.42197C0.715271 7.28997 0.835271 7.15797 0.955271 7.02597C1.06327 6.90597 1.23127 6.73797 1.45927 6.52197C1.69927 6.29397 1.93927 6.06597 2.17927 5.83797C2.41927 5.59797 2.64127 5.38196 2.84527 5.18997C3.04927 4.99796 3.17527 4.87796 3.22327 4.82997V3.35397H2.07127C1.92727 3.35397 1.75927 3.35997 1.56727 3.37197C1.37527 3.37197 1.18327 3.35997 0.991271 3.33597C0.811271 3.31197 0.643271 3.26397 0.487271 3.19197C0.331271 3.10796 0.217271 2.97597 0.145271 2.79597C0.0852705 2.66397 0.0432705 2.51397 0.0192705 2.34597C0.00727051 2.17797 0.0192705 2.02197 0.0552705 1.87797C0.103271 1.70997 0.211271 1.59597 0.379271 1.53597C0.547271 1.46397 0.709271 1.41597 0.865271 1.39196C0.889271 1.39196 0.985271 1.39196 1.15327 1.39196C1.33327 1.39196 1.52527 1.39196 1.72927 1.39196C1.93327 1.39196 2.12527 1.39196 2.30527 1.39196C2.48527 1.39196 2.59327 1.38596 2.62927 1.37397H6.84127C7.32127 1.37397 7.72327 1.40397 8.04727 1.46397C8.38327 1.52397 8.65327 1.67396 8.85727 1.91396C8.91727 1.98597 8.95327 2.08197 8.96527 2.20197C8.98927 2.32197 8.98927 2.44796 8.96527 2.57996C8.95327 2.69997 8.91727 2.81397 8.85727 2.92197C8.80927 3.02996 8.73727 3.10796 8.64127 3.15596C8.54527 3.19197 8.43127 3.23397 8.29927 3.28197C8.16727 3.31797 8.05327 3.34197 7.95727 3.35397C7.78927 3.36597 7.61527 3.37197 7.43527 3.37197C7.26727 3.35997 7.09927 3.35397 6.93127 3.35397H5.74327ZM11.5393 10.59C12.0433 10.59 12.4093 10.698 12.6373 10.914C12.8773 11.13 12.9973 11.376 12.9973 11.652V12.678C12.9973 12.714 12.9973 12.804 12.9973 12.948C12.9973 13.08 12.9973 13.224 12.9973 13.38C12.9973 13.536 12.9973 13.68 12.9973 13.812C13.0093 13.944 13.0153 14.028 13.0153 14.064C13.0153 14.196 13.0153 14.328 13.0153 14.46C13.0153 14.592 13.0093 14.724 12.9973 14.856C12.9733 15.108 12.8713 15.312 12.6913 15.468C12.5233 15.624 12.3013 15.702 12.0253 15.702C11.9653 15.702 11.8573 15.696 11.7013 15.684C11.5573 15.684 11.4553 15.672 11.3953 15.648C11.2273 15.6 11.0953 15.528 10.9993 15.432C10.9153 15.336 10.8493 15.228 10.8013 15.108C10.7533 14.988 10.7233 14.862 10.7113 14.73C10.6993 14.586 10.6873 14.448 10.6753 14.316C10.6753 14.268 10.6753 14.166 10.6753 14.01C10.6753 13.854 10.6693 13.692 10.6573 13.524C10.6573 13.344 10.6513 13.182 10.6393 13.038C10.6273 12.882 10.6153 12.78 10.6033 12.732C10.5673 12.72 10.4713 12.708 10.3153 12.696C10.1593 12.684 9.85327 12.678 9.39727 12.678C9.01327 12.678 8.77327 12.684 8.67727 12.696C8.59327 12.696 8.54527 12.696 8.53327 12.696H2.03527C2.02327 12.696 1.97527 12.684 1.89127 12.66C1.81927 12.636 1.73527 12.6 1.63927 12.552C1.54327 12.492 1.45327 12.42 1.36927 12.336C1.28527 12.252 1.23727 12.15 1.22527 12.03C1.15327 11.562 1.22527 11.202 1.44127 10.95C1.58527 10.782 1.74127 10.686 1.90927 10.662C2.07727 10.626 2.16727 10.602 2.17927 10.59H11.5393ZM12.9793 6.53997V8.17797C12.9673 8.30997 12.9493 8.44797 12.9253 8.59197C12.9013 8.72397 12.8533 8.85597 12.7813 8.98797C12.7093 9.13197 12.6073 9.25197 12.4753 9.34797C12.3793 9.40797 12.2653 9.45597 12.1333 9.49197C12.0133 9.51597 11.9053 9.52797 11.8093 9.52797C11.7133 9.52797 11.6113 9.52197 11.5033 9.50997C11.3953 9.48597 11.3053 9.44997 11.2333 9.40197C11.1133 9.32997 11.0173 9.23997 10.9453 9.13197C10.8733 9.02397 10.8133 8.92197 10.7653 8.82596C10.7293 8.71796 10.7053 8.62797 10.6933 8.55597C10.6813 8.47197 10.6753 8.42997 10.6753 8.42997V2.48996C10.6633 2.44196 10.6693 2.30996 10.6933 2.09397C10.7173 1.87797 10.7653 1.69797 10.8373 1.55396C10.8973 1.43397 10.9993 1.33797 11.1433 1.26597C11.2993 1.19396 11.4613 1.14596 11.6293 1.12197C11.8333 1.09796 12.0373 1.10996 12.2413 1.15796C12.4453 1.20596 12.5953 1.28396 12.6913 1.39196C12.7633 1.48797 12.8113 1.58397 12.8353 1.67997C12.8713 1.76397 12.9013 1.85397 12.9253 1.94997C12.9613 2.06997 12.9793 2.19596 12.9793 2.32796C12.9913 2.45997 12.9913 2.59197 12.9793 2.72396V4.12796C12.9793 4.18796 12.9733 4.25396 12.9613 4.32596C12.9613 4.38597 12.9673 4.45797 12.9793 4.54197C13.0273 4.54197 13.1173 4.54797 13.2493 4.55996C13.3813 4.55996 13.5193 4.56596 13.6633 4.57796C13.8073 4.57796 13.9453 4.58396 14.0773 4.59597C14.2093 4.60797 14.3053 4.61997 14.3653 4.63197C14.6053 4.67997 14.7733 4.75197 14.8693 4.84797C14.9653 4.93196 15.0253 5.03997 15.0493 5.17197C15.0853 5.30397 15.1033 5.45997 15.1033 5.63997C15.1033 5.80797 15.0673 5.95196 14.9953 6.07197C14.8513 6.31197 14.6353 6.44997 14.3473 6.48597C14.0593 6.50997 13.7413 6.52797 13.3933 6.53997H12.9793Z" fill="white"/>
<path d="M15.6593 8.86197C15.4913 8.78997 15.3713 8.65197 15.2993 8.44797C15.2033 8.20797 15.1853 7.96797 15.2453 7.72797C15.3173 7.48797 15.4253 7.25997 15.5693 7.04397C15.7133 6.82797 15.8753 6.62397 16.0553 6.43197C16.2473 6.23997 16.4093 6.05997 16.5413 5.89196C16.7453 5.63997 16.9493 5.38797 17.1533 5.13596C17.3573 4.88397 17.5613 4.62597 17.7653 4.36197C17.8373 4.26596 17.9213 4.16396 18.0173 4.05596C18.1133 3.94796 18.2033 3.83396 18.2873 3.71396C18.3833 3.59397 18.4613 3.47397 18.5213 3.35397C18.5813 3.23397 18.6173 3.10797 18.6293 2.97597C18.6413 2.77196 18.6533 2.57396 18.6653 2.38197C18.6773 2.17796 18.7133 1.99796 18.7733 1.84197C18.8333 1.67396 18.9293 1.54196 19.0613 1.44597C19.2053 1.34997 19.4093 1.30196 19.6733 1.30196C19.8653 1.30196 20.0513 1.32597 20.2313 1.37397C20.4113 1.40997 20.5433 1.52397 20.6273 1.71597C20.7113 1.93197 20.7353 2.17197 20.6993 2.43597C20.6753 2.68797 20.6993 2.92796 20.7713 3.15596C20.8313 3.35997 20.9333 3.53997 21.0773 3.69597C21.2213 3.83996 21.3413 3.99596 21.4373 4.16396C21.6413 4.53596 21.8813 4.86597 22.1573 5.15396C22.4333 5.44197 22.6913 5.75397 22.9313 6.08996C23.1233 6.34196 23.3033 6.60597 23.4713 6.88197C23.6513 7.14597 23.7713 7.43397 23.8313 7.74597C23.8913 8.00997 23.8613 8.23797 23.7413 8.42997C23.6333 8.60997 23.4833 8.74196 23.2913 8.82596C23.0993 8.90996 22.8893 8.93997 22.6613 8.91597C22.4333 8.87997 22.2353 8.77797 22.0673 8.60997C21.6233 8.15397 21.2153 7.68597 20.8433 7.20597C20.4833 6.71396 20.1113 6.21597 19.7273 5.71197C19.7273 5.71197 19.6733 5.77197 19.5653 5.89196C19.4573 5.99997 19.3193 6.14397 19.1513 6.32397C18.9833 6.49197 18.8033 6.68397 18.6113 6.89997C18.4193 7.10397 18.2393 7.30197 18.0713 7.49397C17.9033 7.68597 17.7533 7.85397 17.6213 7.99797C17.4893 8.12997 17.4113 8.21397 17.3873 8.24997C17.2553 8.40597 17.1173 8.54397 16.9733 8.66397C16.8293 8.78397 16.6553 8.86797 16.4513 8.91597C16.3193 8.93997 16.1813 8.95197 16.0373 8.95197C15.9053 8.95197 15.7793 8.92197 15.6593 8.86197ZM24.8033 5.85597C24.4553 5.83197 24.1433 5.81396 23.8673 5.80196C23.5913 5.77797 23.3753 5.64597 23.2193 5.40596C23.1473 5.28596 23.1113 5.12997 23.1113 4.93797C23.1113 4.74597 23.1233 4.58397 23.1473 4.45197C23.1833 4.31997 23.2493 4.21197 23.3453 4.12796C23.4413 4.03196 23.6093 3.95396 23.8493 3.89396C23.8973 3.88196 24.0113 3.87597 24.1913 3.87597C24.3833 3.86397 24.5873 3.85797 24.8033 3.85797C25.0193 3.84597 25.2233 3.83997 25.4153 3.83997C25.6073 3.82797 25.7273 3.82196 25.7753 3.82196V2.65196C25.7633 2.51996 25.7573 2.38797 25.7573 2.25597C25.7693 2.12397 25.7933 1.99197 25.8293 1.85997C25.8533 1.76397 25.8773 1.67396 25.9013 1.58996C25.9253 1.50596 25.9793 1.41596 26.0633 1.31996C26.1593 1.19996 26.2913 1.11596 26.4593 1.06796C26.6393 1.01996 26.8313 1.00796 27.0353 1.03197C27.2153 1.05596 27.3773 1.10996 27.5213 1.19397C27.6653 1.26597 27.7673 1.36196 27.8273 1.48196C27.8993 1.62597 27.9413 1.80597 27.9533 2.02197C27.9773 2.22596 27.9893 2.35196 27.9893 2.39996V8.23197H27.9713C27.9713 8.24397 27.9653 8.28597 27.9533 8.35797C27.9413 8.42997 27.9173 8.51997 27.8813 8.62797C27.8453 8.72397 27.7913 8.82597 27.7193 8.93397C27.6473 9.04197 27.5513 9.13197 27.4313 9.20397C27.2633 9.29997 27.0773 9.34797 26.8733 9.34797C26.6693 9.34797 26.4713 9.28197 26.2793 9.14997C26.1353 9.05397 26.0333 8.93396 25.9733 8.78996C25.9013 8.65796 25.8533 8.52597 25.8293 8.39397C25.8053 8.26197 25.7873 8.12997 25.7753 7.99797V5.85597H24.8033ZM16.1633 12.84C16.1633 12.3 16.3193 11.85 16.6313 11.49C16.9553 11.13 17.3873 10.848 17.9273 10.644C18.4673 10.428 19.1033 10.278 19.8353 10.194C20.5673 10.11 21.3473 10.068 22.1753 10.068C23.0033 10.068 23.7833 10.098 24.5153 10.158C25.2473 10.218 25.8833 10.35 26.4233 10.554C26.9633 10.746 27.3893 11.022 27.7013 11.382C28.0253 11.742 28.1873 12.228 28.1873 12.84C28.1873 13.44 28.0253 13.92 27.7013 14.28C27.3893 14.64 26.9633 14.916 26.4233 15.108C25.8833 15.312 25.2473 15.444 24.5153 15.504C23.7833 15.576 23.0033 15.612 22.1753 15.612C21.3473 15.612 20.5673 15.576 19.8353 15.504C19.1033 15.444 18.4673 15.312 17.9273 15.108C17.3873 14.916 16.9553 14.64 16.6313 14.28C16.3193 13.92 16.1633 13.44 16.1633 12.84ZM25.7573 12.84C25.7573 12.636 25.6493 12.474 25.4333 12.354C25.2173 12.234 24.9353 12.144 24.5873 12.084C24.2513 12.024 23.8673 11.988 23.4353 11.976C23.0153 11.952 22.5953 11.94 22.1753 11.94C21.7553 11.94 21.3353 11.952 20.9153 11.976C20.5073 11.988 20.1353 12.024 19.7993 12.084C19.4753 12.144 19.2113 12.234 19.0073 12.354C18.8033 12.474 18.7013 12.636 18.7013 12.84C18.7013 13.02 18.8033 13.17 19.0073 13.29C19.2113 13.41 19.4753 13.5 19.7993 13.56C20.1353 13.62 20.5073 13.662 20.9153 13.686C21.3353 13.71 21.7553 13.722 22.1753 13.722C22.5953 13.722 23.0153 13.722 23.4353 13.722C23.8673 13.722 24.2513 13.698 24.5873 13.65C24.9353 13.602 25.2173 13.518 25.4333 13.398C25.6493 13.266 25.7573 13.08 25.7573 12.84Z" fill="white"/>
<path d="M35.2524 7.51197C35.5284 7.51197 35.8464 7.51797 36.2064 7.52997C36.5664 7.54197 36.9504 7.55997 37.3584 7.58397C37.3704 7.40397 37.3764 7.21797 37.3764 7.02597C37.3764 6.83397 37.3764 6.64797 37.3764 6.46797C37.1124 6.44397 36.8484 6.39597 36.5844 6.32397C36.3324 6.25196 36.0744 6.14997 35.8104 6.01797C35.2824 5.74197 34.9224 5.38197 34.7304 4.93797C34.5504 4.48197 34.4604 4.01997 34.4604 3.55196C34.4604 2.51996 34.8624 1.76396 35.6664 1.28397C36.4824 0.803965 37.6404 0.563965 39.1404 0.563965C39.7524 0.599965 40.3044 0.695965 40.7964 0.851965C41.3004 0.995965 41.7204 1.20596 42.0564 1.48196C42.4044 1.75796 42.6624 2.09396 42.8304 2.48996C43.0104 2.88596 43.0764 3.33596 43.0284 3.83997C42.9564 4.61997 42.6384 5.23797 42.0744 5.69397C41.5104 6.14997 40.7424 6.42597 39.7704 6.52197V7.16997C39.7584 7.25397 39.7524 7.33197 39.7524 7.40397C39.7524 7.47597 39.7524 7.54797 39.7524 7.61997C39.8964 7.61997 40.0104 7.61997 40.0944 7.61997C40.1904 7.60797 40.2924 7.60197 40.4004 7.60197C40.5084 7.58997 40.6404 7.58397 40.7964 7.58397C40.9524 7.58397 41.1684 7.58997 41.4444 7.60197C41.6724 7.60197 41.8944 7.60197 42.1104 7.60197C42.3264 7.60197 42.5364 7.64997 42.7404 7.74597C42.8964 7.81797 43.0164 7.93197 43.1004 8.08797C43.1964 8.24397 43.2444 8.41797 43.2444 8.60997C43.2444 8.90997 43.1364 9.17997 42.9204 9.41997C42.7524 9.59997 42.5424 9.70197 42.2904 9.72597C42.0504 9.74997 41.8224 9.74997 41.6064 9.72597H35.2524C35.2404 9.72597 35.1924 9.72597 35.1084 9.72597C35.0244 9.72597 34.9224 9.71397 34.8024 9.68997C34.6944 9.66597 34.5804 9.62997 34.4604 9.58197C34.3404 9.52197 34.2444 9.43797 34.1724 9.32997C34.1004 9.25797 34.0464 9.16797 34.0104 9.05997C33.9744 8.93997 33.9564 8.81397 33.9564 8.68197C33.9564 8.41797 34.0284 8.19597 34.1724 8.01597C34.3044 7.85997 34.4784 7.74597 34.6944 7.67397C34.9104 7.58997 35.0964 7.53597 35.2524 7.51197ZM46.2144 13.218C46.2264 13.218 46.2684 13.23 46.3404 13.254C46.4124 13.278 46.4904 13.32 46.5744 13.38C46.6704 13.428 46.7544 13.5 46.8264 13.596C46.9104 13.68 46.9644 13.782 46.9884 13.902C47.0604 14.358 46.9884 14.712 46.7724 14.964C46.6404 15.132 46.4964 15.234 46.3404 15.27C46.1844 15.306 46.1004 15.324 46.0884 15.324H36.6924C36.2364 15.324 35.8764 15.246 35.6124 15.09C35.3484 14.946 35.2164 14.736 35.2164 14.46V12.858C35.1924 12.594 35.1924 12.324 35.2164 12.048C35.2404 11.796 35.3364 11.592 35.5044 11.436C35.6724 11.28 35.8824 11.202 36.1344 11.202C36.1944 11.202 36.2724 11.208 36.3684 11.22C36.4764 11.22 36.5604 11.232 36.6204 11.256C36.7764 11.304 36.8964 11.376 36.9804 11.472C37.0644 11.568 37.1304 11.682 37.1784 11.814C37.2264 11.934 37.2564 12.066 37.2684 12.21C37.2804 12.342 37.2924 12.474 37.3044 12.606C37.3044 12.702 37.3104 12.804 37.3224 12.912C37.3344 13.008 37.3524 13.098 37.3764 13.182C37.4004 13.194 37.5084 13.212 37.7004 13.236C37.9044 13.248 38.2164 13.254 38.6364 13.254C38.9964 13.254 39.3144 13.248 39.5904 13.236C39.8784 13.224 40.0284 13.218 40.0404 13.218H46.2144ZM44.4144 3.17397C44.4144 3.04197 44.4144 2.89196 44.4144 2.72396C44.4144 2.55596 44.4204 2.39396 44.4324 2.23796C44.4564 2.06996 44.4924 1.91396 44.5404 1.76997C44.5884 1.62597 44.6484 1.51797 44.7204 1.44597C44.8524 1.32597 44.9844 1.25397 45.1164 1.22996C45.2604 1.19397 45.4164 1.17597 45.5844 1.17597C45.7884 1.17597 45.9684 1.23597 46.1244 1.35597C46.2924 1.46397 46.4124 1.60797 46.4844 1.78797C46.5804 2.03996 46.6344 2.29796 46.6464 2.56196C46.6584 2.82597 46.6704 3.08997 46.6824 3.35397C46.6824 3.76197 46.6824 4.14597 46.6824 4.50597C46.6944 4.86597 46.7004 5.21996 46.7004 5.56796C46.9404 5.56796 47.1624 5.57397 47.3664 5.58597C47.5824 5.58597 47.7564 5.59197 47.8884 5.60397C48.0444 5.61597 48.1824 5.67597 48.3024 5.78397C48.4344 5.89197 48.5364 6.02397 48.6084 6.17997C48.6804 6.32397 48.7164 6.47997 48.7164 6.64797C48.7164 6.81597 48.6684 6.95997 48.5724 7.07997C48.4044 7.30797 48.1464 7.45797 47.7984 7.52997C47.4624 7.58997 47.1024 7.61997 46.7184 7.61997V8.19597C46.7184 8.44797 46.7004 8.64596 46.6644 8.78996C46.6284 8.92196 46.5864 9.05397 46.5384 9.18597C46.5264 9.22197 46.5144 9.25797 46.5024 9.29397C46.4904 9.32997 46.4724 9.37197 46.4484 9.41997C46.3644 9.58797 46.2564 9.71397 46.1244 9.79797C45.9924 9.88197 45.8484 9.93597 45.6924 9.95997C45.5484 9.97197 45.3984 9.96597 45.2424 9.94197C45.0744 9.89397 44.9304 9.82197 44.8104 9.72597C44.7024 9.62997 44.6184 9.50996 44.5584 9.36596C44.5104 9.20997 44.4744 9.06597 44.4504 8.93397C44.4264 8.78997 44.4144 8.66997 44.4144 8.57397C44.4144 8.46597 44.4144 8.40597 44.4144 8.39397V3.17397ZM40.6884 3.91196C40.7484 3.56396 40.6764 3.27596 40.4724 3.04797C40.2804 2.80797 39.9924 2.63397 39.6084 2.52597C39.3564 2.45396 39.0684 2.41196 38.7444 2.39996C38.4324 2.37597 38.1264 2.39397 37.8264 2.45397C37.5384 2.51397 37.2864 2.62197 37.0704 2.77797C36.8544 2.92196 36.7224 3.12596 36.6744 3.38997C36.6024 3.74997 36.6804 4.06197 36.9084 4.32596C37.1484 4.58996 37.6164 4.75197 38.3124 4.81196C38.5524 4.83597 38.7984 4.84797 39.0504 4.84797C39.3024 4.84797 39.5364 4.82397 39.7524 4.77597C39.9804 4.71597 40.1724 4.63197 40.3284 4.52397C40.4964 4.40397 40.6104 4.23597 40.6704 4.01997L40.6884 3.91196Z" fill="white"/>
<path d="M61.1491 12.318C61.1851 12.33 61.2211 12.336 61.2571 12.336C61.2931 12.324 61.3291 12.318 61.3651 12.318C61.5691 12.342 61.7551 12.384 61.9231 12.444C62.1031 12.492 62.2771 12.594 62.4451 12.75C62.6131 12.894 62.6971 13.098 62.6971 13.362C62.6971 13.494 62.6731 13.638 62.6251 13.794C62.5891 13.938 62.5351 14.052 62.4631 14.136C62.3671 14.232 62.2471 14.304 62.1031 14.352C61.9711 14.4 61.8331 14.436 61.6891 14.46C61.5571 14.472 61.4371 14.478 61.3291 14.478C61.2331 14.478 61.1791 14.478 61.1671 14.478H51.2671C51.2071 14.478 51.1471 14.484 51.0871 14.496C51.0391 14.496 50.9851 14.496 50.9251 14.496C50.6611 14.508 50.3851 14.508 50.0971 14.496C49.8091 14.472 49.5631 14.376 49.3591 14.208C49.1071 13.98 48.9811 13.722 48.9811 13.434C48.9811 13.254 49.0351 13.068 49.1431 12.876C49.2511 12.684 49.3951 12.552 49.5751 12.48C49.8151 12.384 50.0611 12.336 50.3131 12.336C50.5771 12.336 50.8411 12.33 51.1051 12.318H51.1951C51.3511 12.318 51.5311 12.318 51.7351 12.318C51.9511 12.306 52.1431 12.3 52.3111 12.3C52.3111 12.168 52.3051 12.048 52.2931 11.94C52.2931 11.82 52.2931 11.718 52.2931 11.634C52.2811 11.538 52.2751 11.454 52.2751 11.382V10.608C52.1071 10.608 51.9331 10.608 51.7531 10.608C51.5851 10.608 51.4171 10.602 51.2491 10.59C50.9971 10.566 50.7871 10.44 50.6191 10.212C50.4511 9.98397 50.3551 9.71397 50.3311 9.40197C50.3191 9.29397 50.3071 9.11997 50.2951 8.87997C50.2951 8.62797 50.2891 8.37597 50.2771 8.12397C50.2771 7.85997 50.2771 7.61397 50.2771 7.38597C50.2771 7.14597 50.2771 6.97797 50.2771 6.88197V6.44997C50.2651 6.30597 50.2651 6.15597 50.2771 5.99997C50.3011 5.83197 50.3671 5.68197 50.4751 5.54996C50.6311 5.34596 50.8471 5.21996 51.1231 5.17197C51.4111 5.11197 51.6871 5.08197 51.9511 5.08197C52.0111 5.08197 52.1071 5.08797 52.2391 5.09997C52.3831 5.11197 52.4971 5.11197 52.5811 5.09997H59.3311V3.78597H52.4011C52.3411 3.78597 52.2751 3.79197 52.2031 3.80397C52.1311 3.80397 52.0651 3.80397 52.0051 3.80397C51.9331 3.80397 51.8551 3.80996 51.7711 3.82196C51.6991 3.82196 51.6271 3.82196 51.5551 3.82196C51.3031 3.82196 51.0991 3.79797 50.9431 3.74997C50.7391 3.70197 50.5711 3.56397 50.4391 3.33597C50.3551 3.19197 50.3011 3.03597 50.2771 2.86797C50.2651 2.69997 50.2771 2.53197 50.3131 2.36397C50.3731 2.14797 50.5111 1.98597 50.7271 1.87797C50.9431 1.76997 51.1171 1.70397 51.2491 1.67997C51.3451 1.65597 51.4351 1.64396 51.5191 1.64396C51.6151 1.64396 51.7171 1.64396 51.8251 1.64396H52.4551C52.6471 1.64396 52.8811 1.64996 53.1571 1.66196C53.4451 1.66196 53.7451 1.66196 54.0571 1.66196C54.3691 1.66196 54.6811 1.66196 54.9931 1.66196C55.3171 1.64996 55.6111 1.64396 55.8751 1.64396H59.5111C59.7151 1.64396 59.9191 1.64996 60.1231 1.66196C60.3271 1.67397 60.5251 1.70997 60.7171 1.76997C60.8611 1.80596 60.9751 1.87796 61.0591 1.98596C61.1551 2.09396 61.2271 2.21996 61.2751 2.36397C61.3231 2.50796 61.3531 2.65796 61.3651 2.81396C61.3891 2.95797 61.4011 3.09597 61.4011 3.22796V5.40596C61.4011 5.50197 61.3891 5.62796 61.3651 5.78397C61.3531 5.93997 61.3291 6.10197 61.2931 6.26997C61.2571 6.43797 61.2031 6.59997 61.1311 6.75597C61.0711 6.89997 60.9931 7.00197 60.8971 7.06197C60.7291 7.15797 60.5671 7.21797 60.4111 7.24197C60.2551 7.25397 60.1051 7.25397 59.9611 7.24197H52.4911V8.64597H59.9791C60.0871 8.64597 60.1891 8.64597 60.2851 8.64597C60.3931 8.64597 60.4951 8.65197 60.5911 8.66397C60.7711 8.67597 60.9331 8.72997 61.0771 8.82596C61.2331 8.90996 61.3411 9.05396 61.4011 9.25797C61.4611 9.49796 61.4491 9.73797 61.3651 9.97797C61.2931 10.206 61.1491 10.368 60.9331 10.464C60.7891 10.524 60.6391 10.566 60.4831 10.59C60.3391 10.602 60.2011 10.608 60.0691 10.608H59.2051C59.2171 10.92 59.2231 11.196 59.2231 11.436C59.2231 11.664 59.2291 11.958 59.2411 12.318H59.9251C60.1411 12.33 60.3511 12.33 60.5551 12.318C60.7591 12.294 60.9571 12.294 61.1491 12.318ZM57.0091 12.318C57.0091 12.186 57.0031 12.06 56.9911 11.94C56.9911 11.82 56.9911 11.718 56.9911 11.634C56.9791 11.538 56.9731 11.454 56.9731 11.382V10.608H54.5071C54.5191 10.92 54.5251 11.196 54.5251 11.436C54.5251 11.664 54.5311 11.958 54.5431 12.318H57.0091Z" fill="white"/>
</svg>
