<svg width="63" height="16" viewBox="0 0 63 16" fill="none" xmlns="http://www.w3.org/2000/svg">
<path d="M5.79601 3.35405C5.79601 3.35405 5.79001 3.42605 5.77801 3.57005C5.77801 3.71405 5.77801 3.87605 5.77801 4.05605C5.77801 4.23605 5.77801 4.40405 5.77801 4.56005C5.79001 4.71605 5.79601 4.80605 5.79601 4.83005C5.85601 4.89005 5.96401 4.99205 6.12001 5.13605C6.27601 5.26805 6.408 5.38205 6.51601 5.47805C6.636 5.57405 6.756 5.68205 6.87601 5.80205C7.008 5.91005 7.14 6.03005 7.27201 6.16205C7.35601 6.24605 7.43401 6.33005 7.50601 6.41405C7.57801 6.48605 7.644 6.55205 7.70401 6.61205C7.93201 6.84005 8.16001 7.08605 8.38801 7.35005C8.61601 7.61405 8.772 7.88405 8.856 8.16005C8.892 8.26805 8.89801 8.38805 8.87401 8.52005C8.85001 8.65205 8.77201 8.76605 8.64001 8.86205C8.43601 8.98205 8.22001 9.04205 7.99201 9.04205C7.72801 9.04205 7.476 8.98805 7.236 8.88005C6.99601 8.77205 6.80401 8.66405 6.66001 8.55605C6.43201 8.38805 6.22201 8.21405 6.03 8.03405C5.838 7.84205 5.646 7.65005 5.454 7.45805C5.32201 7.32605 5.17201 7.17605 5.00401 7.00805C4.83601 6.82805 4.668 6.67205 4.5 6.54005L4.014 7.02605C3.93 7.11005 3.84601 7.19405 3.76201 7.27805C3.67801 7.35005 3.60001 7.42805 3.52801 7.51205C3.37201 7.68005 3.21001 7.85405 3.04201 8.03405C2.874 8.20205 2.682 8.36405 2.46601 8.52005C1.974 8.88005 1.512 9.06005 1.08 9.06005C1.02 9.06005 0.966005 9.06005 0.918005 9.06005C0.882005 9.06005 0.834005 9.04805 0.774005 9.02405C0.510005 8.96405 0.336005 8.85605 0.252005 8.70005C0.168005 8.56805 0.138005 8.41805 0.162005 8.25005C0.198005 8.08205 0.252005 7.93205 0.324005 7.80005C0.420005 7.66805 0.528005 7.54205 0.648005 7.42205C0.768005 7.29005 0.888005 7.15805 1.008 7.02605C1.116 6.90605 1.284 6.73805 1.512 6.52205C1.752 6.29405 1.992 6.06605 2.232 5.83805C2.472 5.59805 2.694 5.38205 2.89801 5.19005C3.102 4.99805 3.228 4.87805 3.27601 4.83005V3.35405H2.12401C1.98001 3.35405 1.812 3.36005 1.62 3.37205C1.428 3.37205 1.236 3.36005 1.044 3.33605C0.864005 3.31205 0.696005 3.26405 0.540005 3.19205C0.384005 3.10805 0.270005 2.97605 0.198005 2.79605C0.138005 2.66405 0.0960049 2.51405 0.0720049 2.34605C0.0600049 2.17805 0.0720049 2.02205 0.108005 1.87805C0.156005 1.71005 0.264005 1.59605 0.432005 1.53605C0.600005 1.46405 0.762005 1.41605 0.918005 1.39205C0.942005 1.39205 1.038 1.39205 1.206 1.39205C1.386 1.39205 1.578 1.39205 1.782 1.39205C1.986 1.39205 2.178 1.39205 2.35801 1.39205C2.53801 1.39205 2.64601 1.38605 2.682 1.37405H6.89401C7.37401 1.37405 7.77601 1.40405 8.10001 1.46405C8.43601 1.52405 8.70601 1.67405 8.91001 1.91405C8.97001 1.98605 9.006 2.08205 9.01801 2.20205C9.04201 2.32205 9.04201 2.44805 9.01801 2.58005C9.006 2.70005 8.97001 2.81405 8.91001 2.92205C8.86201 3.03005 8.79001 3.10805 8.69401 3.15605C8.59801 3.19205 8.48401 3.23405 8.35201 3.28205C8.22 3.31805 8.10601 3.34205 8.01001 3.35405C7.84201 3.36605 7.66801 3.37205 7.48801 3.37205C7.32001 3.36005 7.152 3.35405 6.984 3.35405H5.79601ZM11.592 10.5901C12.096 10.5901 12.462 10.6981 12.69 10.9141C12.93 11.1301 13.05 11.3761 13.05 11.6521V12.6781C13.05 12.7141 13.05 12.8041 13.05 12.9481C13.05 13.0801 13.05 13.2241 13.05 13.3801C13.05 13.5361 13.05 13.6801 13.05 13.8121C13.062 13.9441 13.068 14.0281 13.068 14.0641C13.068 14.1961 13.068 14.3281 13.068 14.4601C13.068 14.5921 13.062 14.7241 13.05 14.8561C13.026 15.1081 12.924 15.3121 12.744 15.4681C12.576 15.6241 12.354 15.7021 12.078 15.7021C12.018 15.7021 11.91 15.6961 11.754 15.6841C11.61 15.6841 11.508 15.6721 11.448 15.6481C11.28 15.6001 11.148 15.5281 11.052 15.4321C10.968 15.3361 10.902 15.2281 10.854 15.1081C10.806 14.9881 10.776 14.8621 10.764 14.7301C10.752 14.5861 10.74 14.4481 10.728 14.3161C10.728 14.2681 10.728 14.1661 10.728 14.0101C10.728 13.8541 10.722 13.6921 10.71 13.5241C10.71 13.3441 10.704 13.1821 10.692 13.0381C10.68 12.8821 10.668 12.7801 10.656 12.7321C10.62 12.7201 10.524 12.7081 10.368 12.6961C10.212 12.6841 9.90601 12.6781 9.45001 12.6781C9.06601 12.6781 8.82601 12.6841 8.73001 12.6961C8.64601 12.6961 8.59801 12.6961 8.58601 12.6961H2.08801C2.07601 12.6961 2.028 12.6841 1.944 12.6601C1.872 12.6361 1.788 12.6001 1.692 12.5521C1.596 12.4921 1.506 12.4201 1.422 12.3361C1.338 12.2521 1.29 12.1501 1.278 12.0301C1.206 11.5621 1.278 11.2021 1.494 10.9501C1.638 10.7821 1.79401 10.6861 1.96201 10.6621C2.13001 10.6261 2.22 10.6021 2.232 10.5901H11.592ZM13.032 6.54005V8.17805C13.02 8.31005 13.002 8.44805 12.978 8.59205C12.954 8.72405 12.906 8.85605 12.834 8.98805C12.762 9.13205 12.66 9.25205 12.528 9.34805C12.432 9.40805 12.318 9.45605 12.186 9.49205C12.066 9.51605 11.958 9.52805 11.862 9.52805C11.766 9.52805 11.664 9.52205 11.556 9.51005C11.448 9.48605 11.358 9.45005 11.286 9.40205C11.166 9.33005 11.07 9.24005 10.998 9.13205C10.926 9.02405 10.866 8.92205 10.818 8.82605C10.782 8.71805 10.758 8.62805 10.746 8.55605C10.734 8.47205 10.728 8.43005 10.728 8.43005V2.49005C10.716 2.44205 10.722 2.31005 10.746 2.09405C10.77 1.87805 10.818 1.69805 10.89 1.55405C10.95 1.43405 11.052 1.33805 11.196 1.26605C11.352 1.19405 11.514 1.14605 11.682 1.12205C11.886 1.09805 12.09 1.11005 12.294 1.15805C12.498 1.20605 12.648 1.28405 12.744 1.39205C12.816 1.48805 12.864 1.58405 12.888 1.68005C12.924 1.76405 12.954 1.85405 12.978 1.95005C13.014 2.07005 13.032 2.19605 13.032 2.32805C13.044 2.46005 13.044 2.59205 13.032 2.72405V4.12805C13.032 4.18805 13.026 4.25405 13.014 4.32605C13.014 4.38605 13.02 4.45805 13.032 4.54205C13.08 4.54205 13.17 4.54805 13.302 4.56005C13.434 4.56005 13.572 4.56605 13.716 4.57805C13.86 4.57805 13.998 4.58405 14.13 4.59605C14.262 4.60805 14.358 4.62005 14.418 4.63205C14.658 4.68005 14.826 4.75205 14.922 4.84805C15.018 4.93205 15.078 5.04005 15.102 5.17205C15.138 5.30405 15.156 5.46005 15.156 5.64005C15.156 5.80805 15.12 5.95205 15.048 6.07205C14.904 6.31205 14.688 6.45005 14.4 6.48605C14.112 6.51005 13.794 6.52805 13.446 6.54005H13.032Z" fill="#E17373"/>
<path d="M15.712 8.86205C15.544 8.79005 15.424 8.65205 15.352 8.44805C15.256 8.20805 15.238 7.96805 15.298 7.72805C15.37 7.48805 15.478 7.26005 15.622 7.04405C15.766 6.82805 15.928 6.62405 16.108 6.43205C16.3 6.24005 16.462 6.06005 16.594 5.89205C16.798 5.64005 17.002 5.38805 17.206 5.13605C17.41 4.88405 17.614 4.62605 17.818 4.36205C17.89 4.26605 17.974 4.16405 18.07 4.05605C18.166 3.94805 18.256 3.83405 18.34 3.71405C18.436 3.59405 18.514 3.47405 18.574 3.35405C18.634 3.23405 18.67 3.10805 18.682 2.97605C18.694 2.77205 18.706 2.57405 18.718 2.38205C18.73 2.17805 18.766 1.99805 18.826 1.84205C18.886 1.67405 18.982 1.54205 19.114 1.44605C19.258 1.35005 19.462 1.30205 19.726 1.30205C19.918 1.30205 20.104 1.32605 20.284 1.37405C20.464 1.41005 20.596 1.52405 20.68 1.71605C20.764 1.93205 20.788 2.17205 20.752 2.43605C20.728 2.68805 20.752 2.92805 20.824 3.15605C20.884 3.36005 20.986 3.54005 21.13 3.69605C21.274 3.84005 21.394 3.99605 21.49 4.16405C21.694 4.53605 21.934 4.86605 22.21 5.15405C22.486 5.44205 22.744 5.75405 22.984 6.09005C23.176 6.34205 23.356 6.60605 23.524 6.88205C23.704 7.14605 23.824 7.43405 23.884 7.74605C23.944 8.01005 23.914 8.23805 23.794 8.43005C23.686 8.61005 23.536 8.74205 23.344 8.82605C23.152 8.91005 22.942 8.94005 22.714 8.91605C22.486 8.88005 22.288 8.77805 22.12 8.61005C21.676 8.15405 21.268 7.68605 20.896 7.20605C20.536 6.71405 20.164 6.21605 19.78 5.71205C19.78 5.71205 19.726 5.77205 19.618 5.89205C19.51 6.00005 19.372 6.14405 19.204 6.32405C19.036 6.49205 18.856 6.68405 18.664 6.90005C18.472 7.10405 18.292 7.30205 18.124 7.49405C17.956 7.68605 17.806 7.85405 17.674 7.99805C17.542 8.13005 17.464 8.21405 17.44 8.25005C17.308 8.40605 17.17 8.54405 17.026 8.66405C16.882 8.78405 16.708 8.86805 16.504 8.91605C16.372 8.94005 16.234 8.95205 16.09 8.95205C15.958 8.95205 15.832 8.92205 15.712 8.86205ZM24.856 5.85605C24.508 5.83205 24.196 5.81405 23.92 5.80205C23.644 5.77805 23.428 5.64605 23.272 5.40605C23.2 5.28605 23.164 5.13005 23.164 4.93805C23.164 4.74605 23.176 4.58405 23.2 4.45205C23.236 4.32005 23.302 4.21205 23.398 4.12805C23.494 4.03205 23.662 3.95405 23.902 3.89405C23.95 3.88205 24.064 3.87605 24.244 3.87605C24.436 3.86405 24.64 3.85805 24.856 3.85805C25.072 3.84605 25.276 3.84005 25.468 3.84005C25.66 3.82805 25.78 3.82205 25.828 3.82205V2.65205C25.816 2.52005 25.81 2.38805 25.81 2.25605C25.822 2.12405 25.846 1.99205 25.882 1.86005C25.906 1.76405 25.93 1.67405 25.954 1.59005C25.978 1.50605 26.032 1.41605 26.116 1.32005C26.212 1.20005 26.344 1.11605 26.512 1.06805C26.692 1.02005 26.884 1.00805 27.088 1.03205C27.268 1.05605 27.43 1.11005 27.574 1.19405C27.718 1.26605 27.82 1.36205 27.88 1.48205C27.952 1.62605 27.994 1.80605 28.006 2.02205C28.03 2.22605 28.042 2.35205 28.042 2.40005V8.23205H28.024C28.024 8.24405 28.018 8.28605 28.006 8.35805C27.994 8.43005 27.97 8.52005 27.934 8.62805C27.898 8.72405 27.844 8.82605 27.772 8.93405C27.7 9.04205 27.604 9.13205 27.484 9.20405C27.316 9.30005 27.13 9.34805 26.926 9.34805C26.722 9.34805 26.524 9.28205 26.332 9.15005C26.188 9.05405 26.086 8.93405 26.026 8.79005C25.954 8.65805 25.906 8.52605 25.882 8.39405C25.858 8.26205 25.84 8.13005 25.828 7.99805V5.85605H24.856ZM16.216 12.8401C16.216 12.3001 16.372 11.8501 16.684 11.4901C17.008 11.1301 17.44 10.8481 17.98 10.6441C18.52 10.4281 19.156 10.2781 19.888 10.1941C20.62 10.1101 21.4 10.0681 22.228 10.0681C23.056 10.0681 23.836 10.0981 24.568 10.1581C25.3 10.2181 25.936 10.3501 26.476 10.5541C27.016 10.7461 27.442 11.0221 27.754 11.3821C28.078 11.7421 28.24 12.2281 28.24 12.8401C28.24 13.4401 28.078 13.9201 27.754 14.2801C27.442 14.6401 27.016 14.9161 26.476 15.1081C25.936 15.3121 25.3 15.4441 24.568 15.5041C23.836 15.5761 23.056 15.6121 22.228 15.6121C21.4 15.6121 20.62 15.5761 19.888 15.5041C19.156 15.4441 18.52 15.3121 17.98 15.1081C17.44 14.9161 17.008 14.6401 16.684 14.2801C16.372 13.9201 16.216 13.4401 16.216 12.8401ZM25.81 12.8401C25.81 12.6361 25.702 12.4741 25.486 12.3541C25.27 12.2341 24.988 12.1441 24.64 12.0841C24.304 12.0241 23.92 11.9881 23.488 11.9761C23.068 11.9521 22.648 11.9401 22.228 11.9401C21.808 11.9401 21.388 11.9521 20.968 11.9761C20.56 11.9881 20.188 12.0241 19.852 12.0841C19.528 12.1441 19.264 12.2341 19.06 12.3541C18.856 12.4741 18.754 12.6361 18.754 12.8401C18.754 13.0201 18.856 13.1701 19.06 13.2901C19.264 13.4101 19.528 13.5001 19.852 13.5601C20.188 13.6201 20.56 13.6621 20.968 13.6861C21.388 13.7101 21.808 13.7221 22.228 13.7221C22.648 13.7221 23.068 13.7221 23.488 13.7221C23.92 13.7221 24.304 13.6981 24.64 13.6501C24.988 13.6021 25.27 13.5181 25.486 13.3981C25.702 13.2661 25.81 13.0801 25.81 12.8401Z" fill="#E17373"/>
<path d="M42.2352 6.01805C42.4392 6.25805 42.6372 6.50405 42.8292 6.75605C43.0212 6.99605 43.1532 7.24805 43.2252 7.51205C43.2492 7.63205 43.2492 7.75805 43.2252 7.89005C43.2012 8.02205 43.1352 8.13605 43.0272 8.23205C42.8472 8.35205 42.6552 8.41205 42.4512 8.41205C42.2232 8.41205 42.0012 8.35805 41.7852 8.25005C41.5812 8.14205 41.4132 8.03405 41.2812 7.92605C41.0772 7.74605 40.8972 7.57805 40.7412 7.42205C40.5852 7.25405 40.4232 7.08005 40.2552 6.90005C40.1232 6.75605 39.9852 6.61205 39.8412 6.46805C39.6972 6.31205 39.5652 6.15005 39.4452 5.98205L37.6272 7.76405C37.4352 7.96805 37.2312 8.11205 37.0152 8.19605C36.7992 8.26805 36.5952 8.30405 36.4032 8.30405C36.3432 8.30405 36.2532 8.29205 36.1332 8.26805C35.9052 8.20805 35.7492 8.10005 35.6652 7.94405C35.5932 7.81205 35.5692 7.66205 35.5932 7.49405C35.6172 7.32605 35.6652 7.17605 35.7372 7.04405C35.8212 6.90005 35.9112 6.76805 36.0072 6.64805C36.1152 6.52805 36.2232 6.40205 36.3312 6.27005C36.6432 5.92205 36.9492 5.59205 37.2492 5.28005C37.5492 4.95605 37.8732 4.61405 38.2212 4.25405L38.2032 3.69605C38.1072 3.70805 37.9872 3.71405 37.8432 3.71405C37.6992 3.70205 37.5252 3.69605 37.3212 3.69605C37.1892 3.69605 37.0392 3.70205 36.8712 3.71405C36.7032 3.72605 36.5352 3.72005 36.3672 3.69605C36.2112 3.67205 36.0672 3.62405 35.9352 3.55205C35.8032 3.46805 35.7012 3.33605 35.6292 3.15605C35.5692 3.02405 35.5332 2.87405 35.5212 2.70605C35.5092 2.53805 35.5212 2.38205 35.5572 2.23805C35.5932 2.07005 35.6832 1.95605 35.8272 1.89605C35.9832 1.82405 36.1272 1.77605 36.2592 1.75205C36.3792 1.72805 36.4872 1.71605 36.5832 1.71605C36.6192 1.71605 36.6552 1.72205 36.6912 1.73405C36.7272 1.73405 36.7632 1.73405 36.7992 1.73405H38.2572C38.2692 1.59005 38.2752 1.43405 38.2752 1.26605C38.2872 1.08605 38.3232 0.936054 38.3832 0.816054C38.4912 0.576054 38.6832 0.408054 38.9592 0.312054C39.1632 0.240054 39.3552 0.210054 39.5352 0.222054C39.7152 0.234054 39.8712 0.282054 40.0032 0.366054C40.1472 0.438054 40.2612 0.540054 40.3452 0.672053C40.4292 0.792054 40.4712 0.918054 40.4712 1.05005C40.4712 1.07405 40.4712 1.12205 40.4712 1.19405C40.4832 1.25405 40.4892 1.32005 40.4892 1.39205C40.4892 1.46405 40.4892 1.53605 40.4892 1.60805C40.4892 1.68005 40.4892 1.72205 40.4892 1.73405H41.5332C41.9532 1.73405 42.2892 1.76405 42.5412 1.82405C42.7932 1.87205 43.0032 2.01605 43.1712 2.25605C43.2192 2.32805 43.2552 2.43005 43.2792 2.56205C43.3032 2.68205 43.3032 2.80805 43.2792 2.94005C43.2672 3.06005 43.2372 3.17405 43.1892 3.28205C43.1412 3.39005 43.0812 3.46805 43.0092 3.51605C42.9132 3.55205 42.8052 3.59405 42.6852 3.64205C42.5772 3.67805 42.4752 3.69605 42.3792 3.69605C42.2352 3.70805 42.1032 3.71405 41.9832 3.71405C41.8752 3.70205 41.7492 3.69605 41.6052 3.69605C41.3892 3.69605 41.2212 3.70205 41.1012 3.71405C40.9812 3.71405 40.8372 3.70805 40.6692 3.69605V4.25405C40.7292 4.30205 40.8072 4.39805 40.9032 4.54205C40.9992 4.68605 41.0952 4.80605 41.1912 4.90205C41.2872 4.99805 41.3892 5.10605 41.4972 5.22605C41.6052 5.33405 41.7192 5.45405 41.8392 5.58605C41.9232 5.67005 41.9952 5.74805 42.0552 5.82005C42.1152 5.89205 42.1752 5.95805 42.2352 6.01805ZM47.2392 15.1081C47.1792 15.2641 47.0652 15.3901 46.8972 15.4861C46.7652 15.5701 46.6212 15.6181 46.4652 15.6301C46.3092 15.6541 46.1532 15.6541 45.9972 15.6301C45.8172 15.5941 45.6672 15.5221 45.5472 15.4141C45.4392 15.3181 45.3552 15.1921 45.2952 15.0361C45.2472 14.8921 45.2052 14.7481 45.1692 14.6041C45.1452 14.4601 45.1332 14.3341 45.1332 14.2261C45.1332 14.1181 45.1332 14.0641 45.1332 14.0641V3.10205C45.1332 2.97005 45.1332 2.82005 45.1332 2.65205C45.1332 2.48405 45.1452 2.31605 45.1692 2.14805C45.1932 1.98005 45.2232 1.83005 45.2592 1.69805C45.3072 1.55405 45.3732 1.44005 45.4572 1.35605C45.5892 1.22405 45.7272 1.14605 45.8712 1.12205C46.0152 1.09805 46.1712 1.08605 46.3392 1.08605C46.5432 1.08605 46.7292 1.14005 46.8972 1.24805C47.0652 1.35605 47.1852 1.50605 47.2572 1.69805C47.3652 1.95005 47.4252 2.21405 47.4372 2.49005C47.4492 2.75405 47.4612 3.02405 47.4732 3.30005C47.4972 4.26005 47.5032 5.22005 47.4912 6.18005C47.4792 7.14005 47.4732 8.04605 47.4732 8.89805V13.3981C47.4732 13.6741 47.4552 13.9561 47.4192 14.2441C47.3952 14.5201 47.3352 14.8081 47.2392 15.1081ZM35.2152 11.3101C35.0472 11.2981 34.8792 11.2681 34.7112 11.2201C34.5432 11.1601 34.3872 11.0521 34.2432 10.8961C34.0992 10.7521 34.0272 10.5421 34.0272 10.2661C34.0272 10.0141 34.0992 9.80405 34.2432 9.63605C34.3272 9.54005 34.4292 9.46805 34.5492 9.42005C34.6812 9.37205 34.8072 9.33605 34.9272 9.31205C35.0472 9.28805 35.1492 9.27605 35.2332 9.27605C35.3292 9.27605 35.3832 9.27605 35.3952 9.27605H42.4692C42.7092 9.27605 42.9612 9.28805 43.2252 9.31205C43.4892 9.33605 43.7112 9.43205 43.8912 9.60005C43.9992 9.70805 44.0712 9.82205 44.1072 9.94205C44.1552 10.0621 44.1792 10.1941 44.1792 10.3381C44.1792 10.5181 44.1372 10.6861 44.0532 10.8421C43.9692 10.9861 43.8432 11.0881 43.6752 11.1481C43.4592 11.2441 43.2372 11.3041 43.0092 11.3281C42.7812 11.3401 42.5532 11.3521 42.3252 11.3641C41.9772 11.3761 41.7072 11.3881 41.5152 11.4001C41.3232 11.4121 41.1612 11.4241 41.0292 11.4361C40.9092 11.4361 40.7892 11.4361 40.6692 11.4361C40.5612 11.4361 40.4052 11.4361 40.2012 11.4361L40.1832 14.1361C40.1832 14.4841 40.0752 14.7841 39.8592 15.0361C39.6432 15.2881 39.3672 15.4021 39.0312 15.3781C38.8992 15.3661 38.7732 15.3421 38.6532 15.3061C38.5332 15.2701 38.4252 15.2101 38.3292 15.1261C38.2332 15.0541 38.1552 14.9521 38.0952 14.8201C38.0352 14.6761 38.0052 14.4901 38.0052 14.2621L37.9512 11.4181C37.4832 11.4061 37.0452 11.3941 36.6372 11.3821C36.2292 11.3581 35.7552 11.3341 35.2152 11.3101Z" fill="#E17373"/>
<path d="M52.8026 9.06005C52.5746 9.26405 52.3226 9.47405 52.0466 9.69005C51.7826 9.90605 51.4946 10.0621 51.1826 10.1581C50.9666 10.2181 50.7326 10.2121 50.4806 10.1401C50.2286 10.0681 50.0366 9.94205 49.9046 9.76205C49.8086 9.61805 49.7606 9.48005 49.7606 9.34805C49.7606 9.21605 49.7846 9.09005 49.8326 8.97005C49.8926 8.83805 49.9646 8.71205 50.0486 8.59205C50.1326 8.47205 50.2226 8.35805 50.3186 8.25005C50.6786 7.83005 51.0326 7.43405 51.3806 7.06205C51.7406 6.69005 52.1246 6.32405 52.5326 5.96405C52.6646 5.85605 52.8386 5.70005 53.0546 5.49605C53.2706 5.29205 53.4806 5.08805 53.6846 4.88405C53.9246 4.65605 54.1826 4.40405 54.4586 4.12805C54.4346 3.76805 54.4286 3.42605 54.4406 3.10205C54.4526 2.82605 54.4826 2.55605 54.5306 2.29205C54.5786 2.01605 54.6686 1.81205 54.8006 1.68005C54.9566 1.53605 55.1786 1.44605 55.4666 1.41005C55.7546 1.36205 55.9946 1.36805 56.1866 1.42805C56.4626 1.51205 56.6666 1.65605 56.7986 1.86005C56.9426 2.06405 57.0326 2.30405 57.0686 2.58005C57.0806 2.68805 57.0806 2.82005 57.0686 2.97605C57.0566 3.13205 57.0506 3.28805 57.0506 3.44405C57.0506 3.60005 57.0626 3.75005 57.0866 3.89405C57.1106 4.03805 57.1586 4.15205 57.2306 4.23605C57.4466 4.52405 57.6986 4.82405 57.9866 5.13605C58.2866 5.44805 58.5926 5.76605 58.9046 6.09005C59.2286 6.41405 59.5466 6.74405 59.8586 7.08005C60.1706 7.40405 60.4646 7.72805 60.7406 8.05205C60.8726 8.20805 61.0046 8.38805 61.1366 8.59205C61.2686 8.78405 61.3586 8.97605 61.4066 9.16805C61.4666 9.36005 61.4666 9.54605 61.4066 9.72605C61.3466 9.90605 61.1906 10.0561 60.9386 10.1761C60.7586 10.2601 60.5786 10.2961 60.3986 10.2841C60.2306 10.2721 60.0626 10.2301 59.8946 10.1581C59.7266 10.0861 59.5706 9.99605 59.4266 9.88805C59.2826 9.78005 59.1506 9.66605 59.0306 9.54605L55.7726 6.55805L52.8026 9.06005ZM61.1006 12.3361C61.1366 12.3481 61.1726 12.3541 61.2086 12.3541C61.2446 12.3421 61.2806 12.3361 61.3166 12.3361C61.5206 12.3601 61.7066 12.4021 61.8746 12.4621C62.0546 12.5101 62.2286 12.6061 62.3966 12.7501C62.5646 12.9181 62.6486 13.1281 62.6486 13.3801C62.6486 13.5121 62.6246 13.6561 62.5766 13.8121C62.5406 13.9561 62.4866 14.0701 62.4146 14.1541C62.3186 14.2501 62.1986 14.3221 62.0546 14.3701C61.9106 14.4181 61.7726 14.4541 61.6406 14.4781C61.5086 14.4901 61.3886 14.4961 61.2806 14.4961C61.1846 14.4961 61.1306 14.4961 61.1186 14.4961H51.0386C50.9786 14.4961 50.9186 14.5021 50.8586 14.5141C50.7986 14.5141 50.7386 14.5141 50.6786 14.5141C50.4266 14.5261 50.1566 14.5261 49.8686 14.5141C49.5806 14.4901 49.3346 14.3941 49.1306 14.2261C48.8786 13.9981 48.7526 13.7401 48.7526 13.4521C48.7526 13.2721 48.8066 13.0861 48.9146 12.8941C49.0226 12.7021 49.1666 12.5701 49.3466 12.4981C49.5866 12.4021 49.8326 12.3541 50.0846 12.3541C50.3486 12.3541 50.6126 12.3481 50.8766 12.3361H50.9666C52.1306 12.3121 53.3186 12.3121 54.5306 12.3361L54.5126 10.0681C54.5126 9.96005 54.5366 9.84605 54.5846 9.72605C54.6206 9.63005 54.6686 9.52805 54.7286 9.42005C54.7886 9.31205 54.8846 9.21005 55.0166 9.11405C55.1726 9.00605 55.3526 8.95205 55.5566 8.95205C55.7606 8.94005 55.9526 8.97605 56.1326 9.06005C56.3246 9.13205 56.4806 9.25205 56.6006 9.42005C56.7326 9.57605 56.7986 9.76205 56.7986 9.97805L56.8166 12.3361C57.1046 12.3361 57.3686 12.3361 57.6086 12.3361C57.8606 12.3241 58.1066 12.3181 58.3466 12.3181C58.5986 12.3181 58.8446 12.3241 59.0846 12.3361C59.3366 12.3361 59.6006 12.3361 59.8766 12.3361C60.0926 12.3481 60.3026 12.3481 60.5066 12.3361C60.7106 12.3121 60.9086 12.3121 61.1006 12.3361Z" fill="#E17373"/>
</svg>
