<svg width="33" height="15" viewBox="0 0 33 15" fill="none" xmlns="http://www.w3.org/2000/svg">
<path d="M10.5889 12.132C10.5889 12.432 10.5769 12.672 10.5529 12.852C10.5409 13.032 10.4869 13.26 10.3909 13.536C10.3309 13.716 10.2289 13.866 10.0849 13.986C9.94091 14.106 9.73691 14.166 9.47291 14.166C9.40091 14.166 9.31091 14.154 9.20291 14.13C9.09491 14.118 9.01091 14.088 8.95091 14.04C8.83091 13.968 8.73491 13.854 8.66291 13.698C8.60291 13.53 8.55491 13.356 8.51891 13.176C8.48291 12.996 8.45891 12.822 8.44691 12.654C8.44691 12.486 8.44691 12.354 8.44691 12.258V7.722L7.07891 7.704C6.97091 7.704 6.85691 7.692 6.73691 7.668C6.62891 7.632 6.52091 7.584 6.41291 7.524C6.31691 7.452 6.23291 7.362 6.16091 7.254C6.08891 7.134 6.04691 6.984 6.03491 6.804C6.01091 6.588 6.02291 6.378 6.07091 6.174C6.13091 5.97 6.29891 5.802 6.57491 5.67C6.68291 5.61 6.81491 5.562 6.97091 5.526C7.13891 5.49 7.28291 5.472 7.40291 5.472H8.44691V1.836C8.44691 1.68 8.44691 1.524 8.44691 1.368C8.44691 1.2 8.46491 1.038 8.50091 0.881999C8.52491 0.821999 8.54291 0.768 8.55491 0.72C8.57891 0.672 8.60291 0.618 8.62691 0.558C8.69891 0.438 8.77091 0.347999 8.84291 0.288C8.91491 0.216 9.01691 0.156 9.14891 0.108C9.20891 0.084 9.26891 0.0720001 9.32891 0.0720001C9.40091 0.0600003 9.46691 0.0540004 9.52691 0.0540004C9.92291 0.0540004 10.2229 0.234 10.4269 0.594C10.4749 0.666 10.5049 0.768 10.5169 0.9C10.5409 1.032 10.5589 1.17 10.5709 1.314C10.5829 1.446 10.5889 1.566 10.5889 1.674C10.5889 1.77 10.5889 1.83 10.5889 1.854V12.132ZM13.4869 13.662C13.4149 13.818 13.3009 13.95 13.1449 14.058C13.0129 14.142 12.8929 14.19 12.7849 14.202C12.6889 14.226 12.5629 14.22 12.4069 14.184C12.2269 14.148 12.0769 14.07 11.9569 13.95C11.8489 13.842 11.7649 13.716 11.7049 13.572C11.6449 13.428 11.6029 13.272 11.5789 13.104C11.5549 12.936 11.5429 12.774 11.5429 12.618V2.034C11.5429 1.902 11.5429 1.752 11.5429 1.584C11.5429 1.404 11.5549 1.236 11.5789 1.08C11.6029 0.912 11.6329 0.756 11.6689 0.612C11.7169 0.468 11.7829 0.354 11.8669 0.27C11.9989 0.15 12.1069 0.0780001 12.1909 0.0540004C12.2869 0.0180001 12.4189 0 12.5869 0C12.7909 0 12.9769 0.0599999 13.1449 0.18C13.3129 0.288 13.4329 0.438 13.5049 0.629999C13.6129 0.882 13.6729 1.14 13.6849 1.404C13.6969 1.668 13.7089 1.938 13.7209 2.214V2.304C13.7449 3.216 13.7509 4.092 13.7389 4.932C13.7269 5.76 13.7209 6.6 13.7209 7.452V11.952C13.7209 12.264 13.7089 12.564 13.6849 12.852C13.6729 13.14 13.6069 13.41 13.4869 13.662ZM2.63291 2.988C2.44091 2.988 2.24891 2.988 2.05691 2.988C1.86491 2.988 1.68491 2.988 1.51691 2.988C1.36091 2.976 1.22291 2.97 1.10291 2.97C0.982909 2.958 0.904909 2.952 0.868909 2.952C0.508909 2.856 0.250909 2.598 0.0949091 2.178C0.0109091 1.83 0.0529091 1.53 0.220909 1.278C0.412909 0.99 0.652909 0.81 0.940909 0.738C0.976909 0.738 1.07291 0.738 1.22891 0.738C1.38491 0.726 1.55291 0.72 1.73291 0.72C1.91291 0.72 2.07491 0.72 2.21891 0.72C2.37491 0.72 2.46491 0.72 2.48891 0.72H5.76491C6.17291 0.72 6.50291 0.762 6.75491 0.846C7.01891 0.93 7.23491 1.146 7.40291 1.494C7.48691 1.662 7.53491 1.812 7.54691 1.944C7.57091 2.064 7.55291 2.202 7.49291 2.358C7.33691 2.694 7.07891 2.892 6.71891 2.952C6.59891 2.976 6.48491 2.994 6.37691 3.006C6.26891 3.006 6.14291 3.012 5.99891 3.024C5.86691 3.024 5.71091 3.024 5.53091 3.024C5.35091 3.012 5.13491 3 4.88291 2.988C4.88291 3.024 4.88291 3.156 4.88291 3.384C4.88291 3.612 4.88291 3.888 4.88291 4.212C4.89491 4.524 4.89491 4.866 4.88291 5.238C4.88291 5.61 4.88291 5.958 4.88291 6.282C4.89491 6.594 4.90091 6.864 4.90091 7.092C4.90091 7.308 4.90091 7.428 4.90091 7.452C4.93691 7.5 4.97291 7.572 5.00891 7.668C5.05691 7.752 5.10491 7.848 5.15291 7.956C5.20091 8.052 5.24891 8.148 5.29691 8.244C5.34491 8.34 5.38691 8.418 5.42291 8.478C5.51891 8.61 5.61491 8.772 5.71091 8.964C5.81891 9.156 5.93291 9.348 6.05291 9.54C6.12491 9.648 6.19091 9.756 6.25091 9.864C6.31091 9.96 6.37091 10.056 6.43091 10.152C6.62291 10.464 6.82091 10.776 7.02491 11.088C7.22891 11.4 7.37291 11.742 7.45691 12.114C7.48091 12.282 7.48691 12.468 7.47491 12.672C7.46291 12.864 7.39691 13.026 7.27691 13.158C7.10891 13.326 6.91091 13.41 6.68291 13.41C6.45491 13.41 6.23891 13.338 6.03491 13.194C5.83091 13.05 5.66291 12.894 5.53091 12.726C5.33891 12.486 5.15891 12.24 4.99091 11.988C4.82291 11.724 4.66091 11.466 4.50491 11.214C4.38491 11.034 4.24691 10.83 4.09091 10.602C3.94691 10.374 3.81491 10.176 3.69491 10.008C3.63491 10.104 3.57491 10.206 3.51491 10.314C3.46691 10.422 3.41291 10.524 3.35291 10.62C3.28091 10.728 3.19691 10.836 3.10091 10.944C3.00491 11.052 2.92091 11.16 2.84891 11.268C2.71691 11.508 2.57891 11.754 2.43491 12.006C2.30291 12.246 2.14091 12.474 1.94891 12.69C1.74491 12.942 1.55291 13.134 1.37291 13.266C1.19291 13.386 1.00691 13.446 0.814909 13.446C0.766909 13.446 0.718909 13.446 0.670909 13.446C0.634909 13.446 0.586909 13.434 0.526909 13.41C0.298909 13.314 0.142909 13.146 0.0589091 12.906C-0.0130909 12.702 -0.0190909 12.48 0.0409091 12.24C0.100909 12 0.172909 11.796 0.256909 11.628C0.328909 11.424 0.412909 11.232 0.508909 11.052C0.616909 10.872 0.724909 10.698 0.832909 10.53C0.892909 10.422 0.952909 10.314 1.01291 10.206C1.08491 10.098 1.15091 9.99 1.21091 9.882C1.29491 9.702 1.40291 9.498 1.53491 9.27C1.67891 9.03 1.82291 8.796 1.96691 8.568C2.11091 8.328 2.24291 8.112 2.36291 7.92C2.48291 7.728 2.57291 7.596 2.63291 7.524V2.988Z" fill="black"/>
<path d="M31.3581 6.732C31.5621 6.744 31.7661 6.774 31.9701 6.822C32.1861 6.87 32.3781 6.96 32.5461 7.092C32.7141 7.224 32.7981 7.41 32.7981 7.65C32.7981 7.77 32.7741 7.896 32.7261 8.028C32.6901 8.16 32.6361 8.256 32.5641 8.316C32.4681 8.412 32.3421 8.484 32.1861 8.532C32.0421 8.568 31.8981 8.598 31.7541 8.622C31.6101 8.634 31.4841 8.64 31.3761 8.64C31.2801 8.64 31.2261 8.64 31.2141 8.64L21.6201 8.658C21.3441 8.67 21.0561 8.67 20.7561 8.658C20.4681 8.646 20.2221 8.556 20.0181 8.388C19.7421 8.184 19.6041 7.962 19.6041 7.722C19.6041 7.554 19.6581 7.386 19.7661 7.218C19.8861 7.038 20.0421 6.918 20.2341 6.858C20.4861 6.774 20.7441 6.738 21.0081 6.75C21.2721 6.75 21.5421 6.744 21.8181 6.732C22.1061 6.72 22.3521 6.714 22.5561 6.714C22.7721 6.714 22.9761 6.714 23.1681 6.714C23.3721 6.714 23.5821 6.72 23.7981 6.732C24.0141 6.732 24.2721 6.732 24.5721 6.732V5.688C24.5721 5.58 24.5781 5.502 24.5901 5.454H22.7001C22.5801 5.454 22.4601 5.454 22.3401 5.454C22.2321 5.442 22.1181 5.43 21.9981 5.418C21.8421 5.406 21.6741 5.4 21.4941 5.4C21.3141 5.4 21.1581 5.352 21.0261 5.256C20.9901 5.256 20.9721 5.244 20.9721 5.22C20.8521 5.124 20.7681 4.986 20.7201 4.806C20.6841 4.614 20.6661 4.452 20.6661 4.32C20.6541 4.104 20.6361 3.888 20.6121 3.672C20.6001 3.456 20.5941 3.246 20.5941 3.042C20.5941 2.73 20.5941 2.406 20.5941 2.07C20.5941 1.722 20.6241 1.398 20.6841 1.098C20.7201 0.906 20.7801 0.756 20.8641 0.648C20.9481 0.528 21.0801 0.431999 21.2601 0.36C21.4281 0.3 21.5961 0.258 21.7641 0.234C21.9321 0.21 22.1001 0.186 22.2681 0.162C22.4721 0.138 22.6821 0.132 22.8981 0.144C23.1141 0.156 23.3301 0.162 23.5461 0.162H26.9661C27.2661 0.162 27.4941 0.162 27.6501 0.162C27.8181 0.162 27.9681 0.162 28.1001 0.162C28.2321 0.162 28.3761 0.162 28.5321 0.162C28.7001 0.15 28.9341 0.144 29.2341 0.144C29.3421 0.144 29.4441 0.144 29.5401 0.144C29.6481 0.144 29.7561 0.15 29.8641 0.162C30.0921 0.174 30.3261 0.192 30.5661 0.215999C30.8061 0.24 31.0281 0.3 31.2321 0.396C31.4721 0.492 31.6341 0.653999 31.7181 0.881999C31.8021 1.098 31.8501 1.326 31.8621 1.566C31.8861 1.842 31.8861 2.136 31.8621 2.448C31.8501 2.76 31.8441 3.054 31.8441 3.33C31.8321 3.57 31.8201 3.81 31.8081 4.05C31.8081 4.29 31.7781 4.53 31.7181 4.77C31.6821 4.902 31.6401 5.022 31.5921 5.13C31.5441 5.226 31.4481 5.298 31.3041 5.346C31.1721 5.394 31.0341 5.424 30.8901 5.436C30.7461 5.448 30.6081 5.454 30.4761 5.454H27.0561C27.0561 5.478 27.0561 5.496 27.0561 5.508C27.0681 5.508 27.0741 5.514 27.0741 5.526C27.0981 5.694 27.1101 5.886 27.1101 6.102C27.1221 6.318 27.1281 6.528 27.1281 6.732C27.4641 6.732 27.8241 6.732 28.2081 6.732C28.5921 6.72 28.9761 6.714 29.3601 6.714C29.7441 6.714 30.1101 6.714 30.4581 6.714C30.8061 6.714 31.1061 6.72 31.3581 6.732ZM30.2961 9.756C30.7881 9.756 31.1661 9.834 31.4301 9.99C31.7061 10.146 31.8441 10.362 31.8441 10.638V11.862C31.8441 11.922 31.8441 12.042 31.8441 12.222C31.8561 12.39 31.8621 12.576 31.8621 12.78C31.8621 12.972 31.8621 13.158 31.8621 13.338C31.8621 13.518 31.8561 13.644 31.8441 13.716C31.8201 13.968 31.7181 14.172 31.5381 14.328C31.3701 14.484 31.1481 14.562 30.8721 14.562C30.7401 14.562 30.6141 14.544 30.4941 14.508C30.3261 14.46 30.1941 14.388 30.0981 14.292C30.0141 14.196 29.9481 14.088 29.9001 13.968C29.8641 13.848 29.8341 13.722 29.8101 13.59C29.7981 13.446 29.7921 13.308 29.7921 13.176C29.7921 13.128 29.7861 13.044 29.7741 12.924C29.7741 12.792 29.7681 12.66 29.7561 12.528C29.7561 12.396 29.7501 12.27 29.7381 12.15C29.7381 12.03 29.7321 11.946 29.7201 11.898C29.6841 11.886 29.5821 11.874 29.4141 11.862C29.2581 11.85 28.9581 11.844 28.5141 11.844C28.3101 11.844 28.1301 11.85 27.9741 11.862C27.8181 11.862 27.6741 11.862 27.5421 11.862H21.1341C21.1221 11.862 21.0741 11.85 20.9901 11.826C20.9181 11.802 20.8341 11.766 20.7381 11.718C20.6421 11.67 20.5521 11.604 20.4681 11.52C20.3841 11.436 20.3361 11.328 20.3241 11.196C20.2521 10.752 20.3241 10.392 20.5401 10.116C20.6841 9.948 20.8401 9.852 21.0081 9.828C21.1761 9.792 21.2661 9.774 21.2781 9.774L30.2961 9.756ZM22.7361 3.15C22.7361 3.21 22.7361 3.27 22.7361 3.33C22.7481 3.378 22.7661 3.414 22.7901 3.438C22.8141 3.462 22.8561 3.48 22.9161 3.492C22.9761 3.492 23.0361 3.492 23.0961 3.492C23.1561 3.492 23.2281 3.486 23.3121 3.474H28.0461C28.2141 3.486 28.3761 3.498 28.5321 3.51C28.6641 3.522 28.8021 3.528 28.9461 3.528C29.1021 3.528 29.2341 3.516 29.3421 3.492C29.4741 3.48 29.5461 3.45 29.5581 3.402C29.5821 3.342 29.6061 3.258 29.6301 3.15C29.6421 3.054 29.6481 2.922 29.6481 2.754C29.6481 2.586 29.6121 2.454 29.5401 2.358C29.4561 2.262 29.3361 2.214 29.1801 2.214C29.0241 2.202 28.8921 2.202 28.7841 2.214H27.1461C27.1101 2.214 26.9661 2.214 26.7141 2.214C26.4621 2.214 26.1861 2.214 25.8861 2.214C25.5981 2.214 25.3281 2.214 25.0761 2.214C24.8241 2.214 24.6801 2.214 24.6441 2.214C24.3921 2.19 24.1401 2.184 23.8881 2.196C23.6361 2.196 23.3781 2.202 23.1141 2.214C23.0061 2.214 22.9281 2.22 22.8801 2.232C22.8321 2.232 22.7961 2.286 22.7721 2.394C22.7481 2.478 22.7361 2.58 22.7361 2.7C22.7361 2.82 22.7361 2.916 22.7361 2.988V3.15Z" fill="black"/>
</svg>
