<svg width="218" height="24" viewBox="0 0 218 24" fill="none" xmlns="http://www.w3.org/2000/svg">
<path d="M16.2029 15.275C16.3696 14.3917 16.5196 13.625 16.6529 12.975C16.7863 12.3084 16.9029 11.6917 17.0029 11.125C17.1029 10.5584 17.1946 10 17.2779 9.45002C17.3779 8.88336 17.4779 8.25836 17.5779 7.57502C17.6946 6.87502 17.8196 6.08336 17.9529 5.20002C18.1029 4.30002 18.2779 3.22502 18.4779 1.97502C18.5279 1.65836 18.6113 1.45836 18.7279 1.37502C18.8446 1.27502 19.1363 1.22502 19.6029 1.22502C19.7863 1.22502 20.0613 1.24169 20.4279 1.27502C20.7946 1.29169 21.1613 1.36669 21.5279 1.50002C21.8946 1.61669 22.2113 1.80836 22.4779 2.07502C22.7613 2.32502 22.9029 2.68336 22.9029 3.15002C22.9029 3.41669 22.8529 3.83336 22.7529 4.40002C22.6529 4.95002 22.5113 5.59169 22.3279 6.32502C22.1613 7.04169 21.9613 7.82502 21.7279 8.67502C21.5113 9.52502 21.2863 10.3834 21.0529 11.25C20.8196 12.1167 20.5779 12.9584 20.3279 13.775C20.0946 14.5917 19.8696 15.3334 19.6529 16C19.4529 16.65 19.2696 17.2 19.1029 17.65C18.9363 18.1 18.8196 18.3917 18.7529 18.525C18.6529 18.7084 18.5113 18.8334 18.3279 18.9C18.1446 18.9667 17.9613 19 17.7779 19H15.4029C14.9696 19 14.6029 18.9167 14.3029 18.75C14.0196 18.5834 13.7779 18.3667 13.5779 18.1C13.3946 17.8334 13.2446 17.5334 13.1279 17.2C13.0279 16.8667 12.9613 16.525 12.9279 16.175L11.6779 4.95002C11.5779 5.68336 11.4613 6.50836 11.3279 7.42502C11.2113 8.34169 11.0779 9.27502 10.9279 10.225C10.7946 11.175 10.6613 12.1084 10.5279 13.025C10.3946 13.9417 10.2613 14.7834 10.1279 15.55C9.99458 16.3 9.86958 16.9417 9.75292 17.475C9.63625 18.0084 9.53625 18.3584 9.45292 18.525C9.36958 18.7084 9.23625 18.8334 9.05292 18.9C8.86958 18.9667 8.67792 19 8.47792 19H6.10292C5.68625 19 5.33625 18.925 5.05292 18.775C4.78625 18.6084 4.56125 18.3917 4.37792 18.125C4.19458 17.8584 4.04458 17.5584 3.92792 17.225C3.81125 16.875 3.71125 16.525 3.62792 16.175C2.94458 13.4584 2.38625 11.225 1.95292 9.47502C1.53625 7.72502 1.20292 6.32502 0.952918 5.27502C0.702918 4.20836 0.527917 3.43336 0.427917 2.95002C0.344584 2.45002 0.302917 2.09169 0.302917 1.87502C0.302917 1.59169 0.386251 1.40836 0.552918 1.32502C0.736251 1.24169 1.11125 1.20002 1.67792 1.20002C2.37792 1.20002 2.96125 1.25002 3.42792 1.35002C3.91125 1.45002 4.30292 1.60836 4.60292 1.82502C4.90292 2.02502 5.12792 2.30002 5.27792 2.65002C5.44458 2.98336 5.55292 3.39169 5.60292 3.87502C5.60292 3.94169 5.61125 4.04169 5.62792 4.17502C5.64458 4.29169 5.66125 4.49169 5.67792 4.77502C5.71125 5.05836 5.75292 5.45002 5.80292 5.95002C5.86958 6.43336 5.94458 7.08336 6.02792 7.90002C6.12792 8.71669 6.24458 9.73336 6.37792 10.95C6.52792 12.15 6.70292 13.5917 6.90292 15.275C7.08625 14.2584 7.22792 13.4417 7.32792 12.825C7.44458 12.1917 7.54458 11.6417 7.62792 11.175C7.71125 10.6917 7.78625 10.2334 7.85292 9.80002C7.91958 9.35002 7.99458 8.80002 8.07792 8.15002C8.17792 7.48336 8.28625 6.65002 8.40292 5.65002C8.53625 4.65002 8.70292 3.35002 8.90292 1.75002C8.91958 1.63336 8.98625 1.54169 9.10292 1.47502C9.23625 1.40836 9.39458 1.35836 9.57792 1.32502C9.76125 1.29169 9.96125 1.27502 10.1779 1.27502C10.4113 1.25836 10.6279 1.25002 10.8279 1.25002C11.4946 1.25002 12.0613 1.29169 12.5279 1.37502C12.9946 1.44169 13.3779 1.56669 13.6779 1.75002C13.9946 1.93336 14.2446 2.18336 14.4279 2.50002C14.6113 2.80002 14.7613 3.17502 14.8779 3.62502C14.9279 3.84169 14.9863 4.14169 15.0529 4.52502C15.1196 4.89169 15.1946 5.48336 15.2779 6.30002C15.3779 7.11669 15.4946 8.24169 15.6279 9.67502C15.7779 11.0917 15.9696 12.9584 16.2029 15.275Z" fill="#433232"/>
<path d="M32.0404 11.225C31.9404 11.225 31.8238 11.225 31.6904 11.225C31.5738 11.2084 31.4571 11.1917 31.3404 11.175C31.2238 11.1417 31.1238 11.1084 31.0404 11.075C30.9571 11.025 30.9154 10.9667 30.9154 10.9C30.9154 10.6834 30.9238 10.4834 30.9404 10.3C30.9571 10.1167 30.9654 9.92502 30.9654 9.72502C30.9654 9.35836 30.9154 9.05836 30.8154 8.82502C30.7154 8.59169 30.5154 8.47502 30.2154 8.47502C29.7488 8.47502 29.3571 8.78336 29.0404 9.40002C28.7404 10 28.5488 10.9084 28.4654 12.125C28.4321 12.6584 28.3821 13.2667 28.3154 13.95C28.2654 14.6167 28.2154 15.2667 28.1654 15.9C28.1154 16.5167 28.0738 17.0667 28.0404 17.55C28.0071 18.0334 27.9904 18.35 27.9904 18.5C27.9904 18.6667 27.9321 18.7917 27.8154 18.875C27.6988 18.9584 27.5738 19 27.4404 19H26.5404C26.0238 19 25.5988 18.95 25.2654 18.85C24.9488 18.7334 24.6904 18.575 24.4904 18.375C24.3071 18.175 24.1738 17.9334 24.0904 17.65C24.0238 17.35 23.9904 17.0084 23.9904 16.625C23.9904 16.375 23.9988 16.025 24.0154 15.575C24.0488 15.1084 24.0988 14.475 24.1654 13.675C24.2321 12.8584 24.3071 11.8334 24.3904 10.6C24.4904 9.35002 24.6071 7.80836 24.7404 5.97502C24.7738 5.49169 24.9488 5.25002 25.2654 5.25002H26.2404C26.7071 5.25002 27.0988 5.30002 27.4154 5.40002C27.7321 5.50002 27.9904 5.64169 28.1904 5.82502C28.3904 5.99169 28.5321 6.19169 28.6154 6.42502C28.7154 6.65836 28.7821 6.90002 28.8154 7.15002C29.0154 6.76669 29.2488 6.44169 29.5154 6.17502C29.7988 5.89169 30.0904 5.66669 30.3904 5.50002C30.6904 5.31669 30.9988 5.19169 31.3154 5.12502C31.6321 5.04169 31.9238 5.00002 32.1904 5.00002C32.5071 5.00002 32.8238 5.05836 33.1404 5.17502C33.4738 5.29169 33.7738 5.46669 34.0404 5.70002C34.3071 5.93336 34.5154 6.23336 34.6654 6.60002C34.8321 6.96669 34.9154 7.40002 34.9154 7.90002C34.9154 8.35002 34.8487 8.77502 34.7154 9.17502C34.5821 9.57502 34.3904 9.93336 34.1404 10.25C33.8904 10.55 33.5821 10.7917 33.2154 10.975C32.8654 11.1417 32.4738 11.225 32.0404 11.225Z" fill="#433232"/>
<path d="M38.5033 19C37.9866 19 37.5616 18.95 37.2283 18.85C36.9116 18.7334 36.6533 18.575 36.4533 18.375C36.27 18.175 36.1366 17.9334 36.0533 17.65C35.9866 17.35 35.9533 17.0084 35.9533 16.625C35.9533 16.375 35.9616 16.025 35.9783 15.575C36.0116 15.1084 36.0616 14.475 36.1283 13.675C36.195 12.8584 36.27 11.8334 36.3533 10.6C36.4533 9.35002 36.57 7.80836 36.7033 5.97502C36.72 5.60836 36.7616 5.39169 36.8283 5.32502C36.8783 5.27502 37.0116 5.25002 37.2283 5.25002H38.2033C38.72 5.25002 39.1366 5.30002 39.4533 5.40002C39.7866 5.50002 40.045 5.65002 40.2283 5.85002C40.4283 6.05002 40.5616 6.29169 40.6283 6.57502C40.7116 6.85836 40.7533 7.17502 40.7533 7.52502C40.7533 7.77502 40.7366 8.15002 40.7033 8.65002C40.67 9.15002 40.62 9.83336 40.5533 10.7C40.5033 11.55 40.4283 12.6167 40.3283 13.9C40.2283 15.1667 40.1033 16.7 39.9533 18.5C39.9366 18.7 39.895 18.8334 39.8283 18.9C39.7616 18.9667 39.62 19 39.4033 19H38.5033ZM36.7283 2.30002C36.7283 1.63336 36.97 1.10836 37.4533 0.725024C37.9366 0.341691 38.5866 0.150024 39.4033 0.150024C40.12 0.150024 40.6366 0.300024 40.9533 0.600023C41.2866 0.883357 41.4533 1.26669 41.4533 1.75002C41.4533 2.36669 41.22 2.88336 40.7533 3.30002C40.3033 3.70002 39.6366 3.90002 38.7533 3.90002C37.4033 3.90002 36.7283 3.36669 36.7283 2.30002Z" fill="#433232"/>
<path d="M48.3346 8.62502C48.2846 9.25836 48.2262 9.88336 48.1596 10.5C48.1096 11.1167 48.0596 11.7 48.0096 12.25C47.9596 12.8 47.9179 13.2917 47.8846 13.725C47.8679 14.1584 47.8596 14.4917 47.8596 14.725C47.8596 15.1584 47.9096 15.45 48.0096 15.6C48.1096 15.7334 48.2762 15.8 48.5096 15.8C48.6929 15.8 48.8512 15.7667 48.9846 15.7C49.1179 15.6334 49.2429 15.5584 49.3596 15.475C49.4762 15.3917 49.5762 15.3167 49.6596 15.25C49.7596 15.1834 49.8679 15.15 49.9846 15.15C50.1012 15.15 50.2096 15.2167 50.3096 15.35C50.4096 15.4834 50.4596 15.7917 50.4596 16.275C50.4596 17.1917 50.2096 17.9167 49.7096 18.45C49.2096 18.9834 48.3512 19.25 47.1346 19.25C45.9346 19.25 45.0429 18.975 44.4596 18.425C43.8929 17.8584 43.6096 17 43.6096 15.85C43.6096 15.6 43.6179 15.3084 43.6346 14.975C43.6679 14.625 43.7096 14.175 43.7596 13.625C43.8096 13.075 43.8679 12.4 43.9346 11.6C44.0179 10.8 44.1012 9.80836 44.1846 8.62502H42.8596C42.7262 8.62502 42.6429 8.60002 42.6096 8.55002C42.5929 8.48336 42.5846 8.39169 42.5846 8.27502L42.6596 7.00002C42.6762 6.78336 42.7012 6.57502 42.7346 6.37502C42.7846 6.15836 42.8679 5.96669 42.9846 5.80002C43.1179 5.63336 43.3012 5.50002 43.5346 5.40002C43.7679 5.30002 44.0762 5.25002 44.4596 5.25002C44.5762 4.95002 44.7096 4.59169 44.8596 4.17502C45.0096 3.75836 45.1596 3.35836 45.3096 2.97502C45.4596 2.57502 45.6012 2.24169 45.7346 1.97502C45.8846 1.70836 46.0179 1.57502 46.1346 1.57502H46.8596C47.5596 1.57502 48.0429 1.79169 48.3096 2.22502C48.5762 2.65836 48.7096 3.17502 48.7096 3.77502C48.7096 4.10836 48.6846 4.60002 48.6346 5.25002H51.2596C51.5262 5.25002 51.6596 5.36669 51.6596 5.60002L51.5596 6.95002C51.5262 7.45002 51.3846 7.85836 51.1346 8.17502C50.9012 8.47502 50.4096 8.62502 49.6596 8.62502H48.3346Z" fill="#433232"/>
<path d="M58.549 19.25C57.8157 19.25 57.0823 19.1584 56.349 18.975C55.6323 18.7917 54.9823 18.475 54.399 18.025C53.8323 17.575 53.3657 16.975 52.999 16.225C52.6323 15.475 52.449 14.5334 52.449 13.4C52.449 12.9834 52.4823 12.4834 52.549 11.9C52.6157 11.3167 52.7407 10.7167 52.924 10.1C53.124 9.48336 53.3907 8.87502 53.724 8.27502C54.074 7.65836 54.524 7.10836 55.074 6.62502C55.624 6.14169 56.2907 5.75002 57.074 5.45002C57.8573 5.15002 58.7907 5.00002 59.874 5.00002C60.7407 5.00002 61.474 5.10002 62.074 5.30002C62.674 5.50002 63.1573 5.77502 63.524 6.12502C63.8907 6.45836 64.1573 6.85002 64.324 7.30002C64.4907 7.75002 64.574 8.23336 64.574 8.75002C64.574 9.51669 64.4157 10.1667 64.099 10.7C63.799 11.2334 63.399 11.6834 62.899 12.05C62.4157 12.4 61.874 12.675 61.274 12.875C60.674 13.075 60.0823 13.2334 59.499 13.35C58.9157 13.45 58.374 13.5167 57.874 13.55C57.3907 13.5667 57.0157 13.575 56.749 13.575C56.749 13.8917 56.7907 14.2084 56.874 14.525C56.974 14.825 57.1157 15.0917 57.299 15.325C57.4823 15.5584 57.724 15.75 58.024 15.9C58.324 16.05 58.6907 16.125 59.124 16.125C59.5573 16.125 59.8907 16.0584 60.124 15.925C60.374 15.775 60.574 15.6167 60.724 15.45C60.874 15.2667 60.999 15.1084 61.099 14.975C61.2157 14.825 61.3657 14.75 61.549 14.75C61.6323 14.75 61.774 14.775 61.974 14.825C62.1907 14.8584 62.4073 14.9417 62.624 15.075C62.8407 15.2084 63.0323 15.3917 63.199 15.625C63.3657 15.8584 63.449 16.1584 63.449 16.525C63.449 17.0084 63.299 17.425 62.999 17.775C62.699 18.125 62.3073 18.4084 61.824 18.625C61.3573 18.8417 60.8323 19 60.249 19.1C59.6657 19.2 59.099 19.25 58.549 19.25ZM59.024 8.32502C58.6573 8.32502 58.3407 8.43336 58.074 8.65002C57.824 8.85002 57.6073 9.10836 57.424 9.42502C57.2573 9.74169 57.124 10.0917 57.024 10.475C56.9407 10.8584 56.874 11.225 56.824 11.575C57.8573 11.5584 58.6907 11.3834 59.324 11.05C59.974 10.7167 60.299 10.2417 60.299 9.62502C60.299 9.29169 60.1907 8.99169 59.974 8.72502C59.774 8.45836 59.4573 8.32502 59.024 8.32502Z" fill="#433232"/>
<path d="M87.5508 5.67502C87.4174 6.07502 87.2424 6.60002 87.0258 7.25002C86.8258 7.88336 86.6008 8.58336 86.3508 9.35002C86.1008 10.1167 85.8424 10.9334 85.5758 11.8C85.3091 12.65 85.0341 13.4834 84.7508 14.3C84.4841 15.1167 84.2174 15.9 83.9508 16.65C83.6841 17.3834 83.4424 18.025 83.2258 18.575C83.1591 18.7084 83.0174 18.8167 82.8008 18.9C82.6008 18.9667 82.2758 19 81.8258 19C81.5424 19 81.2508 18.9834 80.9508 18.95C80.6508 18.9167 80.3674 18.85 80.1008 18.75C79.8508 18.65 79.6258 18.5167 79.4258 18.35C79.2424 18.1834 79.1008 17.975 79.0008 17.725C78.7508 16.875 78.5091 15.9334 78.2758 14.9C78.0591 13.85 77.8424 12.7834 77.6258 11.7C77.4091 10.6167 77.1924 9.55836 76.9758 8.52502C76.7758 7.47502 76.5674 6.52502 76.3508 5.67502C76.3508 5.90836 76.3424 6.30836 76.3258 6.87502C76.3091 7.44169 76.2924 8.10002 76.2758 8.85002C76.2591 9.60002 76.2341 10.4084 76.2008 11.275C76.1841 12.1417 76.1674 12.9917 76.1508 13.825C76.1341 14.6417 76.1174 15.4084 76.1008 16.125C76.0841 16.825 76.0758 17.4 76.0758 17.85C76.0758 18.35 76.0424 18.6667 75.9758 18.8C75.9258 18.9334 75.8258 19 75.6758 19H74.3008C73.3508 19 72.6758 18.8167 72.2758 18.45C71.8924 18.0667 71.7008 17.5084 71.7008 16.775C71.7008 16.575 71.7091 16.2417 71.7258 15.775C71.7591 15.2917 71.8008 14.725 71.8508 14.075C71.9008 13.425 71.9508 12.7167 72.0008 11.95C72.0674 11.1667 72.1341 10.375 72.2008 9.57502C72.2841 8.49169 72.3508 7.59169 72.4008 6.87502C72.4674 6.14169 72.5174 5.53336 72.5508 5.05002C72.5841 4.56669 72.6091 4.17502 72.6258 3.87502C72.6591 3.57502 72.6758 3.30836 72.6758 3.07502C72.6924 2.84169 72.7008 2.62502 72.7008 2.42502C72.7174 2.20836 72.7258 1.94169 72.7258 1.62502C72.7258 1.49169 72.7758 1.40002 72.8758 1.35002C72.9758 1.28336 73.0674 1.25002 73.1508 1.25002H76.6508C77.3008 1.25002 77.8341 1.35836 78.2508 1.57502C78.6674 1.77502 79.0091 2.09169 79.2758 2.52502C79.5424 2.95836 79.7591 3.52502 79.9258 4.22502C80.0924 4.90836 80.2424 5.72502 80.3758 6.67502C80.5258 7.62502 80.6841 8.72502 80.8508 9.97502C81.0341 11.2084 81.2674 12.6 81.5508 14.15C81.8174 13.1167 82.0424 12.2584 82.2258 11.575C82.4091 10.8917 82.5591 10.325 82.6758 9.87502C82.8091 9.40836 82.9174 9.02502 83.0008 8.72502C83.0841 8.42502 83.1591 8.15002 83.2258 7.90002C83.2924 7.63336 83.3674 7.35002 83.4508 7.05002C83.5341 6.75002 83.6341 6.37502 83.7508 5.92502C83.8674 5.47502 84.0091 4.91669 84.1758 4.25002C84.3591 3.56669 84.5841 2.70836 84.8508 1.67502C84.8841 1.57502 84.9424 1.48336 85.0258 1.40002C85.1091 1.30002 85.2591 1.25002 85.4758 1.25002H89.3758C89.9091 1.25002 90.3341 1.30836 90.6508 1.42502C90.9841 1.52502 91.2424 1.67502 91.4258 1.87502C91.6091 2.07502 91.7341 2.32502 91.8008 2.62502C91.8674 2.90836 91.9008 3.24169 91.9008 3.62502C91.9008 4.00836 91.8758 4.63336 91.8258 5.50002C91.7924 6.35002 91.7341 7.31669 91.6508 8.40002C91.5841 9.46669 91.5091 10.575 91.4258 11.725C91.3591 12.875 91.2841 13.9417 91.2008 14.925C91.1341 15.9084 91.0758 16.7417 91.0258 17.425C90.9758 18.1084 90.9424 18.5084 90.9258 18.625C90.9091 18.7584 90.8758 18.8584 90.8258 18.925C90.7758 18.975 90.6758 19 90.5258 19H89.1508C88.2008 19 87.5258 18.8167 87.1258 18.45C86.7424 18.0667 86.5508 17.575 86.5508 16.975C86.5508 16.7917 86.5674 16.4584 86.6008 15.975C86.6508 15.4917 86.7091 14.925 86.7758 14.275C86.8424 13.625 86.9174 12.9167 87.0008 12.15C87.0841 11.3667 87.1591 10.5917 87.2258 9.82502C87.2924 9.05836 87.3508 8.31669 87.4008 7.60002C87.4674 6.86669 87.5174 6.22502 87.5508 5.67502Z" fill="#433232"/>
<path d="M99.6338 19.25C98.4838 19.25 97.5254 19.0917 96.7588 18.775C96.0088 18.4417 95.4088 17.9917 94.9588 17.425C94.5088 16.8584 94.1921 16.2 94.0088 15.45C93.8254 14.6834 93.7338 13.8667 93.7338 13C93.7338 12 93.8504 11.025 94.0838 10.075C94.3338 9.10836 94.7504 8.25002 95.3338 7.50002C95.9171 6.75002 96.6838 6.15002 97.6338 5.70002C98.6004 5.23336 99.8004 5.00002 101.234 5.00002C103.334 5.00002 104.834 5.51669 105.734 6.55002C106.65 7.56669 107.109 9.00002 107.109 10.85C107.109 11.3667 107.067 11.9417 106.984 12.575C106.917 13.1917 106.775 13.8084 106.559 14.425C106.359 15.0417 106.075 15.6417 105.709 16.225C105.359 16.8084 104.909 17.325 104.359 17.775C103.809 18.225 103.142 18.5834 102.359 18.85C101.592 19.1167 100.684 19.25 99.6338 19.25ZM100.809 8.32502C100.175 8.32502 99.6671 8.49169 99.2838 8.82502C98.9171 9.14169 98.6338 9.53336 98.4338 10C98.2504 10.45 98.1254 10.9334 98.0588 11.45C98.0088 11.95 97.9838 12.375 97.9838 12.725C97.9838 13.825 98.1588 14.6334 98.5088 15.15C98.8588 15.6667 99.3588 15.925 100.009 15.925C100.592 15.925 101.067 15.7417 101.434 15.375C101.817 15.0084 102.109 14.5667 102.309 14.05C102.525 13.5334 102.667 12.9917 102.734 12.425C102.817 11.8584 102.859 11.3834 102.859 11C102.859 10.1667 102.7 9.51669 102.384 9.05002C102.084 8.56669 101.559 8.32502 100.809 8.32502Z" fill="#433232"/>
<path d="M113.3 14.5C113.25 15.2667 113.192 16 113.125 16.7C113.059 17.3834 113.009 17.9834 112.975 18.5C112.959 18.7 112.917 18.8334 112.85 18.9C112.784 18.9667 112.642 19 112.425 19H111.525C111.009 19 110.584 18.95 110.25 18.85C109.934 18.7334 109.675 18.575 109.475 18.375C109.292 18.175 109.159 17.9334 109.075 17.65C109.009 17.35 108.975 17.0084 108.975 16.625C108.975 16.375 108.984 16.025 109 15.575C109.034 15.1084 109.084 14.475 109.15 13.675C109.217 12.8584 109.292 11.8334 109.375 10.6C109.475 9.35002 109.592 7.80836 109.725 5.97502C109.742 5.60836 109.784 5.39169 109.85 5.32502C109.9 5.27502 110.034 5.25002 110.25 5.25002H111.225C111.725 5.25002 112.134 5.30836 112.45 5.42502C112.767 5.54169 113.025 5.69169 113.225 5.87502C113.425 6.05836 113.567 6.27502 113.65 6.52502C113.734 6.77502 113.784 7.03336 113.8 7.30002C114.284 6.40002 114.834 5.79169 115.45 5.47502C116.067 5.15836 116.792 5.00002 117.625 5.00002C118.075 5.00002 118.509 5.04169 118.925 5.12502C119.342 5.20836 119.717 5.35002 120.05 5.55002C120.384 5.75002 120.667 6.01669 120.9 6.35002C121.134 6.66669 121.3 7.07502 121.4 7.57502C121.917 6.60836 122.484 5.94169 123.1 5.57502C123.717 5.19169 124.492 5.00002 125.425 5.00002C125.942 5.00002 126.434 5.05836 126.9 5.17502C127.384 5.27502 127.8 5.45836 128.15 5.72502C128.5 5.99169 128.775 6.35836 128.975 6.82502C129.192 7.27502 129.3 7.84169 129.3 8.52502C129.3 9.04169 129.275 9.67502 129.225 10.425C129.175 11.175 129.117 11.9917 129.05 12.875C128.984 13.7417 128.909 14.6417 128.825 15.575C128.742 16.4917 128.675 17.375 128.625 18.225C128.609 18.4084 128.592 18.55 128.575 18.65C128.559 18.75 128.525 18.825 128.475 18.875C128.442 18.925 128.384 18.9584 128.3 18.975C128.217 18.9917 128.1 19 127.95 19H127.15C126.617 19 126.184 18.95 125.85 18.85C125.517 18.75 125.259 18.6084 125.075 18.425C124.892 18.2417 124.759 18.0167 124.675 17.75C124.609 17.4667 124.575 17.15 124.575 16.8C124.575 16.5834 124.584 16.275 124.6 15.875C124.634 15.475 124.667 15.0417 124.7 14.575C124.75 14.1084 124.792 13.625 124.825 13.125C124.875 12.625 124.917 12.1667 124.95 11.75C125 11.3167 125.034 10.9417 125.05 10.625C125.084 10.3084 125.1 10.1 125.1 10C125.1 9.56669 125.009 9.18336 124.825 8.85002C124.659 8.51669 124.325 8.35002 123.825 8.35002C123.392 8.35002 123.017 8.49169 122.7 8.77502C122.384 9.05836 122.117 9.45002 121.9 9.95002C121.684 10.45 121.509 11.0417 121.375 11.725C121.242 12.4084 121.15 13.15 121.1 13.95C121.067 14.4667 121.025 15.0584 120.975 15.725C120.925 16.3917 120.867 17.225 120.8 18.225C120.784 18.4084 120.767 18.55 120.75 18.65C120.734 18.75 120.7 18.825 120.65 18.875C120.617 18.925 120.559 18.9584 120.475 18.975C120.392 18.9917 120.275 19 120.125 19H119.325C118.792 19 118.359 18.95 118.025 18.85C117.692 18.75 117.434 18.6084 117.25 18.425C117.067 18.2417 116.934 18.0167 116.85 17.75C116.784 17.4667 116.75 17.15 116.75 16.8C116.75 16.4667 116.775 15.9834 116.825 15.35C116.892 14.7 116.95 14.0334 117 13.35C117.067 12.65 117.125 11.9917 117.175 11.375C117.242 10.7417 117.275 10.2834 117.275 10C117.275 9.56669 117.184 9.18336 117 8.85002C116.834 8.51669 116.5 8.35002 116 8.35002C115.55 8.35002 115.167 8.51669 114.85 8.85002C114.534 9.18336 114.267 9.63336 114.05 10.2C113.85 10.75 113.684 11.4 113.55 12.15C113.434 12.9 113.35 13.6834 113.3 14.5Z" fill="#433232"/>
<path d="M133.509 4.45002C133.125 4.45002 132.809 4.30836 132.559 4.02502C132.309 3.72502 132.184 3.30836 132.184 2.77502C132.184 2.45836 132.234 2.15002 132.334 1.85002C132.434 1.53336 132.584 1.25836 132.784 1.02502C132.984 0.79169 133.234 0.608357 133.534 0.475023C133.834 0.325023 134.184 0.250023 134.584 0.250023C134.85 0.250023 135.092 0.29169 135.309 0.375023C135.542 0.44169 135.742 0.56669 135.909 0.750024C136.075 0.916691 136.209 1.15002 136.309 1.45002C136.409 1.75002 136.459 2.13336 136.459 2.60002C136.459 3.26669 136.359 3.91669 136.159 4.55002C135.959 5.18336 135.684 5.75002 135.334 6.25002C135 6.75002 134.609 7.15002 134.159 7.45002C133.725 7.75002 133.275 7.90002 132.809 7.90002C132.425 7.90002 132.167 7.81669 132.034 7.65002C131.917 7.46669 131.859 7.25836 131.859 7.02502C131.859 6.95836 131.942 6.84169 132.109 6.67502C132.292 6.50836 132.484 6.31669 132.684 6.10002C132.884 5.86669 133.067 5.60836 133.234 5.32502C133.417 5.04169 133.509 4.75002 133.509 4.45002Z" fill="#433232"/>
<path d="M143.243 5.00002C144.659 5.00002 145.701 5.28336 146.368 5.85002C147.034 6.40002 147.368 7.10836 147.368 7.97502C147.368 8.70836 147.134 9.26669 146.668 9.65002C146.218 10.0334 145.559 10.225 144.693 10.225C144.459 10.225 144.301 10.2 144.218 10.15C144.134 10.1 144.093 10.0084 144.093 9.87502C144.093 9.72502 144.076 9.55836 144.043 9.37502C144.026 9.17502 143.968 8.99169 143.868 8.82502C143.784 8.64169 143.643 8.49169 143.443 8.37502C143.259 8.25836 142.993 8.20002 142.643 8.20002C142.176 8.20002 141.801 8.31669 141.518 8.55002C141.234 8.76669 141.093 9.04169 141.093 9.37502C141.093 9.72502 141.234 10.0084 141.518 10.225C141.818 10.425 142.184 10.6167 142.618 10.8C143.068 10.9834 143.551 11.175 144.068 11.375C144.584 11.5584 145.059 11.8084 145.493 12.125C145.943 12.4417 146.309 12.8417 146.593 13.325C146.893 13.7917 147.043 14.4 147.043 15.15C147.043 16.35 146.618 17.3334 145.768 18.1C144.918 18.8667 143.643 19.25 141.943 19.25C141.476 19.25 140.934 19.2084 140.318 19.125C139.718 19.0584 139.143 18.95 138.593 18.8C138.043 18.6334 137.576 18.4167 137.193 18.15C136.826 17.8834 136.643 17.55 136.643 17.15C136.643 17 136.668 16.8167 136.718 16.6C136.784 16.3834 136.876 16.175 136.993 15.975C137.126 15.775 137.276 15.6084 137.443 15.475C137.626 15.325 137.843 15.25 138.093 15.25C138.293 15.25 138.476 15.3 138.643 15.4C138.809 15.5 139.001 15.6084 139.218 15.725C139.451 15.825 139.734 15.925 140.068 16.025C140.401 16.125 140.843 16.175 141.393 16.175C141.809 16.175 142.176 16.125 142.493 16.025C142.826 15.925 142.993 15.7 142.993 15.35C142.993 15.0334 142.859 14.7834 142.593 14.6C142.326 14.4 141.984 14.2167 141.568 14.05C141.168 13.8834 140.726 13.7084 140.243 13.525C139.776 13.325 139.334 13.0667 138.918 12.75C138.518 12.4334 138.184 12.0334 137.918 11.55C137.651 11.05 137.518 10.4084 137.518 9.62502C137.518 8.77502 137.684 8.05836 138.018 7.47502C138.368 6.87502 138.809 6.39169 139.343 6.02502C139.893 5.65836 140.509 5.40002 141.193 5.25002C141.876 5.08336 142.559 5.00002 143.243 5.00002Z" fill="#433232"/>
<path d="M155.807 1.62502C155.823 1.49169 155.873 1.40002 155.957 1.35002C156.057 1.28336 156.148 1.25002 156.232 1.25002C157.365 1.25002 158.423 1.21669 159.407 1.15002C160.407 1.06669 161.19 1.02502 161.757 1.02502C163.173 1.02502 164.357 1.16669 165.307 1.45002C166.273 1.73336 167.048 2.17502 167.632 2.77502C168.232 3.37502 168.657 4.15002 168.907 5.10002C169.157 6.05002 169.282 7.19169 169.282 8.52502C169.282 9.87502 169.14 11.2 168.857 12.5C168.59 13.7834 168.115 14.925 167.432 15.925C166.748 16.925 165.823 17.7334 164.657 18.35C163.507 18.95 162.048 19.25 160.282 19.25C159.465 19.25 158.715 19.2334 158.032 19.2C157.365 19.1667 156.79 19.0667 156.307 18.9C155.823 18.7334 155.448 18.4834 155.182 18.15C154.915 17.8167 154.782 17.3584 154.782 16.775C154.782 16.5584 154.79 16.2334 154.807 15.8C154.84 15.3667 154.873 14.85 154.907 14.25C154.957 13.65 155.007 12.9917 155.057 12.275C155.123 11.5417 155.19 10.775 155.257 9.97502C155.39 8.32502 155.49 7.00836 155.557 6.02502C155.64 5.04169 155.69 4.27502 155.707 3.72502C155.74 3.15836 155.757 2.73336 155.757 2.45002C155.773 2.16669 155.79 1.89169 155.807 1.62502ZM160.457 15.3C161.39 15.3 162.132 15.1 162.682 14.7C163.248 14.3 163.682 13.7917 163.982 13.175C164.282 12.5584 164.482 11.8834 164.582 11.15C164.682 10.4167 164.732 9.72502 164.732 9.07502C164.732 8.37502 164.682 7.76669 164.582 7.25002C164.498 6.71669 164.34 6.27502 164.107 5.92502C163.89 5.57502 163.582 5.31669 163.182 5.15002C162.782 4.96669 162.282 4.87502 161.682 4.87502C161.498 4.87502 161.265 4.88336 160.982 4.90002C160.698 4.91669 160.357 4.94169 159.957 4.97502C159.923 5.59169 159.882 6.32502 159.832 7.17502C159.782 8.00836 159.723 8.89169 159.657 9.82502C159.607 10.7417 159.548 11.675 159.482 12.625C159.415 13.5584 159.348 14.425 159.282 15.225C159.532 15.2584 159.757 15.2834 159.957 15.3C160.157 15.3 160.323 15.3 160.457 15.3Z" fill="#433232"/>
<path d="M173.757 19C173.241 19 172.816 18.95 172.482 18.85C172.166 18.7334 171.907 18.575 171.707 18.375C171.524 18.175 171.391 17.9334 171.307 17.65C171.241 17.35 171.207 17.0084 171.207 16.625C171.207 16.375 171.216 16.025 171.232 15.575C171.266 15.1084 171.316 14.475 171.382 13.675C171.449 12.8584 171.524 11.8334 171.607 10.6C171.707 9.35002 171.824 7.80836 171.957 5.97502C171.974 5.60836 172.016 5.39169 172.082 5.32502C172.132 5.27502 172.266 5.25002 172.482 5.25002H173.457C173.974 5.25002 174.391 5.30002 174.707 5.40002C175.041 5.50002 175.299 5.65002 175.482 5.85002C175.682 6.05002 175.816 6.29169 175.882 6.57502C175.966 6.85836 176.007 7.17502 176.007 7.52502C176.007 7.77502 175.991 8.15002 175.957 8.65002C175.924 9.15002 175.874 9.83336 175.807 10.7C175.757 11.55 175.682 12.6167 175.582 13.9C175.482 15.1667 175.357 16.7 175.207 18.5C175.191 18.7 175.149 18.8334 175.082 18.9C175.016 18.9667 174.874 19 174.657 19H173.757ZM171.982 2.30002C171.982 1.63336 172.224 1.10836 172.707 0.725024C173.191 0.341691 173.841 0.150024 174.657 0.150024C175.374 0.150024 175.891 0.300024 176.207 0.600023C176.541 0.883357 176.707 1.26669 176.707 1.75002C176.707 2.36669 176.474 2.88336 176.007 3.30002C175.557 3.70002 174.891 3.90002 174.007 3.90002C172.657 3.90002 171.982 3.36669 171.982 2.30002Z" fill="#433232"/>
<path d="M177.463 15.925C177.463 14.425 178.138 13.25 179.488 12.4C180.838 11.55 182.83 11.0917 185.463 11.025C185.48 10.8417 185.488 10.6917 185.488 10.575C185.505 10.4417 185.513 10.2834 185.513 10.1C185.513 9.56669 185.413 9.14169 185.213 8.82502C185.013 8.50836 184.597 8.35002 183.963 8.35002C183.613 8.35002 183.33 8.40002 183.113 8.50002C182.897 8.60002 182.722 8.74169 182.588 8.92502C182.455 9.09169 182.347 9.30002 182.263 9.55002C182.18 9.80002 182.105 10.075 182.038 10.375C182.005 10.525 181.93 10.625 181.813 10.675C181.697 10.7084 181.513 10.725 181.263 10.725C179.563 10.725 178.713 10.0834 178.713 8.80002C178.713 8.28336 178.83 7.79169 179.063 7.32502C179.313 6.85836 179.672 6.45836 180.138 6.12502C180.622 5.77502 181.222 5.50002 181.938 5.30002C182.655 5.10002 183.488 5.00002 184.438 5.00002C186.288 5.00002 187.63 5.38336 188.463 6.15002C189.297 6.91669 189.713 8.00002 189.713 9.40002C189.713 9.58336 189.688 9.91669 189.638 10.4C189.605 10.8667 189.555 11.3667 189.488 11.9C189.438 12.4167 189.388 12.9084 189.338 13.375C189.305 13.8417 189.288 14.1667 189.288 14.35C189.288 14.7667 189.363 15.0667 189.513 15.25C189.663 15.4167 189.83 15.5334 190.013 15.6C190.213 15.6667 190.388 15.7167 190.538 15.75C190.688 15.7834 190.763 15.8667 190.763 16C190.763 16.3667 190.713 16.7417 190.613 17.125C190.513 17.5084 190.347 17.8584 190.113 18.175C189.897 18.4917 189.588 18.75 189.188 18.95C188.805 19.15 188.33 19.25 187.763 19.25C186.963 19.25 186.363 19.0584 185.963 18.675C185.563 18.2917 185.297 17.7584 185.163 17.075C184.763 17.6584 184.238 18.1667 183.588 18.6C182.955 19.0334 182.122 19.25 181.088 19.25C180.588 19.25 180.113 19.1917 179.663 19.075C179.23 18.9584 178.847 18.7667 178.513 18.5C178.197 18.2334 177.938 17.8917 177.738 17.475C177.555 17.0417 177.463 16.525 177.463 15.925ZM185.238 13.075C184.805 13.075 184.38 13.1084 183.963 13.175C183.547 13.2417 183.172 13.35 182.838 13.5C182.522 13.6334 182.263 13.8167 182.063 14.05C181.863 14.2834 181.763 14.5667 181.763 14.9C181.763 15.2834 181.88 15.55 182.113 15.7C182.363 15.85 182.63 15.925 182.913 15.925C183.18 15.925 183.447 15.8667 183.713 15.75C183.98 15.6334 184.213 15.4584 184.413 15.225C184.63 14.975 184.813 14.675 184.963 14.325C185.113 13.975 185.205 13.5584 185.238 13.075Z" fill="#433232"/>
<path d="M200.375 11.225C200.275 11.225 200.159 11.225 200.025 11.225C199.909 11.2084 199.792 11.1917 199.675 11.175C199.559 11.1417 199.459 11.1084 199.375 11.075C199.292 11.025 199.25 10.9667 199.25 10.9C199.25 10.6834 199.259 10.4834 199.275 10.3C199.292 10.1167 199.3 9.92502 199.3 9.72502C199.3 9.35836 199.25 9.05836 199.15 8.82502C199.05 8.59169 198.85 8.47502 198.55 8.47502C198.084 8.47502 197.692 8.78336 197.375 9.40002C197.075 10 196.884 10.9084 196.8 12.125C196.767 12.6584 196.717 13.2667 196.65 13.95C196.6 14.6167 196.55 15.2667 196.5 15.9C196.45 16.5167 196.409 17.0667 196.375 17.55C196.342 18.0334 196.325 18.35 196.325 18.5C196.325 18.6667 196.267 18.7917 196.15 18.875C196.034 18.9584 195.909 19 195.775 19H194.875C194.359 19 193.934 18.95 193.6 18.85C193.284 18.7334 193.025 18.575 192.825 18.375C192.642 18.175 192.509 17.9334 192.425 17.65C192.359 17.35 192.325 17.0084 192.325 16.625C192.325 16.375 192.334 16.025 192.35 15.575C192.384 15.1084 192.434 14.475 192.5 13.675C192.567 12.8584 192.642 11.8334 192.725 10.6C192.825 9.35002 192.942 7.80836 193.075 5.97502C193.109 5.49169 193.284 5.25002 193.6 5.25002H194.575C195.042 5.25002 195.434 5.30002 195.75 5.40002C196.067 5.50002 196.325 5.64169 196.525 5.82502C196.725 5.99169 196.867 6.19169 196.95 6.42502C197.05 6.65836 197.117 6.90002 197.15 7.15002C197.35 6.76669 197.584 6.44169 197.85 6.17502C198.134 5.89169 198.425 5.66669 198.725 5.50002C199.025 5.31669 199.334 5.19169 199.65 5.12502C199.967 5.04169 200.259 5.00002 200.525 5.00002C200.842 5.00002 201.159 5.05836 201.475 5.17502C201.809 5.29169 202.109 5.46669 202.375 5.70002C202.642 5.93336 202.85 6.23336 203 6.60002C203.167 6.96669 203.25 7.40002 203.25 7.90002C203.25 8.35002 203.184 8.77502 203.05 9.17502C202.917 9.57502 202.725 9.93336 202.475 10.25C202.225 10.55 201.917 10.7917 201.55 10.975C201.2 11.1417 200.809 11.225 200.375 11.225Z" fill="#433232"/>
<path d="M209.038 7.55002C209.038 7.93336 209.013 8.39169 208.963 8.92502C208.913 9.44169 208.855 9.96669 208.788 10.5C208.738 11.0167 208.688 11.5084 208.638 11.975C208.588 12.425 208.563 12.775 208.563 13.025C208.563 13.6584 208.713 14.1334 209.013 14.45C209.33 14.75 209.713 14.9 210.163 14.9C210.947 14.9 211.572 14.4917 212.038 13.675C212.505 12.8584 212.797 11.775 212.913 10.425L213.313 5.75002C213.33 5.56669 213.388 5.44169 213.488 5.37502C213.605 5.29169 213.73 5.25002 213.863 5.25002H214.763C215.113 5.25002 215.438 5.28336 215.738 5.35002C216.055 5.40002 216.33 5.50836 216.563 5.67502C216.797 5.82502 216.98 6.03336 217.113 6.30002C217.247 6.56669 217.313 6.90836 217.313 7.32502C217.313 7.49169 217.297 7.80836 217.263 8.27502C217.247 8.72502 217.205 9.38336 217.138 10.25C217.088 11.1 217.013 12.1834 216.913 13.5C216.813 14.8 216.697 16.3917 216.563 18.275C216.48 19.375 216.23 20.2834 215.813 21C215.413 21.7334 214.905 22.3084 214.288 22.725C213.672 23.1584 212.98 23.4584 212.213 23.625C211.447 23.7917 210.663 23.875 209.863 23.875C209.013 23.875 208.23 23.8 207.513 23.65C206.813 23.5 206.205 23.2917 205.688 23.025C205.172 22.7584 204.763 22.45 204.463 22.1C204.18 21.75 204.038 21.375 204.038 20.975C204.038 20.6584 204.105 20.3834 204.238 20.15C204.388 19.9167 204.58 19.725 204.813 19.575C205.047 19.425 205.313 19.3084 205.613 19.225C205.93 19.1584 206.255 19.125 206.588 19.125C206.755 19.125 206.872 19.2084 206.938 19.375C207.022 19.5417 207.138 19.725 207.288 19.925C207.455 20.1417 207.713 20.3334 208.063 20.5C208.413 20.6667 208.938 20.75 209.638 20.75C210.255 20.75 210.755 20.6 211.138 20.3C211.522 20 211.813 19.6167 212.013 19.15C212.23 18.6834 212.372 18.175 212.438 17.625C212.505 17.075 212.538 16.55 212.538 16.05C212.272 16.5167 211.972 16.9 211.638 17.2C211.322 17.4834 210.988 17.7084 210.638 17.875C210.288 18.025 209.938 18.125 209.588 18.175C209.238 18.225 208.905 18.25 208.588 18.25C207.972 18.25 207.405 18.1667 206.888 18C206.388 17.8334 205.955 17.5667 205.588 17.2C205.222 16.8167 204.938 16.325 204.738 15.725C204.538 15.125 204.438 14.4 204.438 13.55C204.438 13.2334 204.455 12.8167 204.488 12.3C204.522 11.7667 204.563 11.175 204.613 10.525C204.663 9.85836 204.713 9.14169 204.763 8.37502C204.83 7.60836 204.897 6.82502 204.963 6.02502C204.997 5.50836 205.23 5.25002 205.663 5.25002H206.463C206.997 5.25002 207.43 5.30002 207.763 5.40002C208.097 5.50002 208.355 5.65002 208.538 5.85002C208.738 6.03336 208.872 6.27502 208.938 6.57502C209.005 6.85836 209.038 7.18336 209.038 7.55002Z" fill="#433232"/>
</svg>
