<svg width="34" height="15" viewBox="0 0 34 15" fill="none" xmlns="http://www.w3.org/2000/svg">
<path d="M0.36 6.46875C0.12 6.13275 0 5.79675 0 5.46075C0 5.32875 0 5.07075 0 4.68675C0 4.29075 0 3.87675 0 3.44475C0.012 3.01275 0.018 2.61675 0.018 2.25675C0.018 1.88475 0.018 1.65675 0.018 1.57275C0.00600001 1.23675 0.084 0.93075 0.252 0.65475C0.324 0.48675 0.45 0.35475 0.63 0.25875C0.798 0.15075 0.966 0.07875 1.134 0.0427505C1.23 0.0307499 1.326 0.0307499 1.422 0.0427505C1.53 0.0547503 1.626 0.0787503 1.71 0.114751C1.794 0.15075 1.86 0.19875 1.908 0.25875C1.968 0.31875 2.028 0.38475 2.088 0.45675C2.208 0.64875 2.292 0.83475 2.34 1.01475C2.4 1.18275 2.436 1.36875 2.448 1.57275C2.46 1.76475 2.454 1.98075 2.43 2.22075C2.418 2.46075 2.412 2.73675 2.412 3.04875C2.412 3.30075 2.406 3.54675 2.394 3.78675C2.382 4.01475 2.388 4.24875 2.412 4.48875C2.424 4.63275 2.46 4.73475 2.52 4.79475C2.604 4.87875 2.676 4.92675 2.736 4.93875C2.748 4.95075 2.904 4.96275 3.204 4.97475C3.504 4.97475 3.846 4.98075 4.23 4.99275C4.614 4.99275 4.998 4.99275 5.382 4.99275C5.766 4.99275 6.06 4.99275 6.264 4.99275C6.468 4.99275 6.684 4.99275 6.912 4.99275C7.152 4.98075 7.368 5.04075 7.56 5.17275C7.692 5.28075 7.782 5.41875 7.83 5.58675C7.878 5.75475 7.89 5.92875 7.866 6.10875C7.842 6.27675 7.782 6.43275 7.686 6.57675C7.602 6.72075 7.482 6.82275 7.326 6.88275C7.194 6.94275 7.056 6.99075 6.912 7.02675C6.78 7.05075 6.63 7.06275 6.462 7.06275H1.854C1.674 7.06275 1.512 7.05075 1.368 7.02675C1.236 7.00275 1.104 6.96675 0.972 6.91875C0.864 6.89475 0.756 6.84075 0.648 6.75675C0.552 6.67275 0.456 6.57675 0.36 6.46875ZM11.538 8.50275C11.706 8.59875 11.826 8.76075 11.898 8.98875C11.982 9.20475 12.024 9.41475 12.024 9.61875V11.0048C12.024 11.3288 11.94 11.6228 11.772 11.8868C11.604 12.1388 11.358 12.2648 11.034 12.2648C10.95 12.2768 10.866 12.2828 10.782 12.2828C10.71 12.2828 10.632 12.2828 10.548 12.2828H2.358V13.0568H11.214C11.31 13.0688 11.394 13.0868 11.466 13.1108C11.538 13.1348 11.616 13.1588 11.7 13.1828C11.808 13.2428 11.886 13.3328 11.934 13.4528C11.982 13.5608 12.006 13.6808 12.006 13.8128C12.018 13.9448 12.006 14.0708 11.97 14.1908C11.934 14.3228 11.88 14.4248 11.808 14.4968C11.676 14.6528 11.496 14.7368 11.268 14.7488C11.052 14.7728 10.86 14.7848 10.692 14.7848H1.89C1.758 14.7848 1.626 14.7788 1.494 14.7668C1.374 14.7668 1.248 14.7668 1.116 14.7668C0.744 14.7428 0.492 14.6288 0.36 14.4248C0.24 14.2328 0.168 13.9628 0.144 13.6148L0.126 12.3008C0.126 12.2408 0.126 12.1388 0.126 11.9948C0.126 11.8508 0.132 11.7308 0.144 11.6348C0.156 11.4308 0.216 11.2688 0.324 11.1488C0.504 10.9928 0.696 10.8848 0.9 10.8248C1.104 10.7768 1.35 10.7528 1.638 10.7528C2.214 10.7528 2.79 10.7588 3.366 10.7708C3.942 10.7708 4.518 10.7708 5.094 10.7708H9.936V9.99675H1.044C0.876 9.99675 0.726 9.95475 0.594 9.87075C0.462 9.77475 0.36 9.66075 0.288 9.52875C0.228 9.38475 0.204 9.23475 0.216 9.07875C0.228 8.91075 0.288 8.76075 0.396 8.62875C0.504 8.50875 0.624 8.42475 0.756 8.37675C0.9 8.31675 1.044 8.28075 1.188 8.26875C1.344 8.24475 1.5 8.23275 1.656 8.23275C1.812 8.23275 1.962 8.23275 2.106 8.23275H10.116C10.764 8.23275 11.238 8.32275 11.538 8.50275ZM14.04 3.19275C14.064 3.26475 14.076 3.33675 14.076 3.40875C14.076 3.48075 14.076 3.56475 14.076 3.66075C14.076 3.85275 14.046 4.00275 13.986 4.11075C13.842 4.33875 13.626 4.47075 13.338 4.50675C13.206 4.53075 13.056 4.54875 12.888 4.56075C12.732 4.56075 12.558 4.56675 12.366 4.57875H12.078V5.24475C12.078 5.37675 12.078 5.51475 12.078 5.65875C12.078 5.80275 12.066 5.94075 12.042 6.07275C12.006 6.38475 11.916 6.66675 11.772 6.91875C11.64 7.15875 11.394 7.27875 11.034 7.27875C10.65 7.27875 10.38 7.16475 10.224 6.93675C10.068 6.69675 9.966 6.40875 9.918 6.07275C9.918 6.04875 9.912 5.97075 9.9 5.83875C9.9 5.69475 9.9 5.52075 9.9 5.31675C9.9 5.10075 9.9 4.86675 9.9 4.61475C9.9 4.36275 9.9 4.10475 9.9 3.84075V1.77075C9.9 1.71075 9.894 1.64475 9.882 1.57275C9.882 1.48875 9.888 1.41075 9.9 1.33875C9.924 0.91875 10.044 0.58275 10.26 0.33075C10.476 0.0787503 10.812 -0.0292497 11.268 0.00674985C11.46 0.0307503 11.61 0.0967505 11.718 0.204751C11.826 0.30075 11.904 0.42075 11.952 0.56475C12.012 0.70875 12.048 0.864751 12.06 1.03275C12.072 1.18875 12.078 1.33875 12.078 1.48275V2.56275H12.222C12.294 2.56275 12.366 2.56875 12.438 2.58075C12.51 2.58075 12.582 2.58675 12.654 2.59875C12.738 2.59875 12.81 2.59875 12.87 2.59875C12.942 2.59875 13.014 2.60475 13.086 2.61675C13.146 2.62875 13.194 2.63475 13.23 2.63475C13.278 2.63475 13.32 2.64075 13.356 2.65275C13.596 2.71275 13.764 2.77875 13.86 2.85075C13.956 2.95875 14.016 3.07275 14.04 3.19275Z" fill="black"/>
<path d="M26.9792 3.10275C27.0032 3.59475 27.0152 4.11075 27.0152 4.65075C27.0152 5.19075 27.0152 5.61675 27.0152 5.92875C27.0152 6.08475 27.0152 6.22275 27.0152 6.34275C27.0272 6.45075 27.0332 6.55875 27.0332 6.66675C27.0332 6.77475 27.0332 6.88875 27.0332 7.00875C27.0452 7.12875 27.0512 7.26075 27.0512 7.40475C27.0512 7.53675 27.0692 7.68675 27.1052 7.85475C27.1412 8.01075 27.1832 8.17275 27.2312 8.34075C27.2912 8.50875 27.3452 8.67675 27.3932 8.84475C27.4532 9.00075 27.5132 9.13275 27.5732 9.24075L28.3832 11.2208C28.3952 11.2568 28.4192 11.3108 28.4552 11.3828C28.4912 11.4548 28.5212 11.5328 28.5452 11.6168C28.5812 11.7008 28.6112 11.7848 28.6352 11.8688C28.6592 11.9528 28.6772 12.0128 28.6892 12.0488C28.7132 12.1808 28.7372 12.3248 28.7612 12.4808C28.7972 12.6368 28.7792 12.7988 28.7072 12.9668C28.6232 13.1468 28.5092 13.2848 28.3652 13.3808C28.2212 13.4648 28.0832 13.5128 27.9512 13.5248H27.9332C27.7412 13.5248 27.5852 13.4588 27.4652 13.3268C27.3452 13.1948 27.2012 13.0268 27.0332 12.8228C26.9612 12.7268 26.8652 12.5768 26.7452 12.3728C26.6372 12.1688 26.5232 11.9528 26.4032 11.7248C26.2832 11.4968 26.1752 11.2868 26.0792 11.0948C25.9832 10.8908 25.9172 10.7408 25.8812 10.6448L24.8732 12.4088C24.7172 12.6128 24.5792 12.8288 24.4592 13.0568C24.3392 13.2848 24.1592 13.4468 23.9192 13.5428C23.8232 13.5908 23.7212 13.6148 23.6132 13.6148C23.3732 13.6148 23.1572 13.5068 22.9652 13.2908C22.7852 13.0988 22.6952 12.8468 22.6952 12.5348C22.6952 12.4268 22.7012 12.3428 22.7132 12.2828C22.6412 12.1388 22.5692 11.9888 22.4972 11.8328C22.4372 11.6648 22.3772 11.5028 22.3172 11.3468C22.2572 11.1908 22.2032 11.0528 22.1552 10.9328C22.1072 10.8008 22.0712 10.7048 22.0472 10.6448C21.9992 10.7048 21.9212 10.8248 21.8132 11.0048C21.7172 11.1848 21.6152 11.3828 21.5072 11.5988C21.3992 11.8028 21.2972 11.9948 21.2012 12.1748C21.1052 12.3428 21.0392 12.4508 21.0032 12.4988C20.8472 12.7028 20.7152 12.9068 20.6072 13.1108C20.4992 13.3028 20.3252 13.4468 20.0852 13.5428C19.9892 13.5908 19.8872 13.6148 19.7792 13.6148C19.5272 13.6148 19.3112 13.5068 19.1312 13.2908C19.0352 13.1948 18.9812 13.0808 18.9692 12.9488C18.9572 12.8168 18.9512 12.6788 18.9512 12.5348C18.9632 12.3188 19.0052 12.1148 19.0772 11.9228C19.1612 11.7308 19.2512 11.5508 19.3472 11.3828L20.7872 8.32275C20.8592 8.19075 20.9132 8.01075 20.9492 7.78275C20.9972 7.54275 21.0272 7.35675 21.0392 7.22475C21.0512 7.03275 21.0572 6.84675 21.0572 6.66675C21.0572 6.47475 21.0572 6.27075 21.0572 6.05475V3.12075L20.1392 3.08475C19.9232 3.07275 19.7252 3.00075 19.5452 2.86875C19.3652 2.72475 19.2392 2.55075 19.1672 2.34675C19.0352 1.99875 19.0832 1.68075 19.3112 1.39275C19.5152 1.14075 19.8032 0.97275 20.1752 0.88875C20.2352 0.87675 20.2952 0.870751 20.3552 0.870751C20.4152 0.85875 20.4812 0.85275 20.5532 0.85275L27.3572 0.870751C27.9092 0.870751 28.2932 0.96675 28.5092 1.15875C28.7252 1.33875 28.8392 1.66275 28.8512 2.13075C28.8632 2.40675 28.7852 2.62275 28.6172 2.77875C28.4492 2.92275 28.2092 3.02475 27.8972 3.08475L26.9792 3.10275ZM32.4332 5.74875C32.4932 5.74875 32.5472 5.75475 32.5952 5.76675C32.6552 5.77875 32.7152 5.78475 32.7752 5.78475C32.8352 5.79675 32.9012 5.80875 32.9732 5.82075C33.0452 5.82075 33.1172 5.82675 33.1892 5.83875C33.3212 5.86275 33.4532 5.91075 33.5852 5.98275C33.7172 6.04275 33.8132 6.13875 33.8732 6.27075C33.9572 6.40275 33.9992 6.55875 33.9992 6.73875C33.9992 6.83475 33.9932 6.92475 33.9812 7.00875C33.9812 7.08075 33.9692 7.16475 33.9452 7.26075C33.9212 7.35675 33.8912 7.45875 33.8552 7.56675C33.8312 7.67475 33.7772 7.75875 33.6932 7.81875C33.6212 7.87875 33.5432 7.93275 33.4592 7.98075C33.3872 8.02875 33.3032 8.05275 33.2072 8.05275L31.7312 8.07075C31.7312 8.21475 31.7312 8.39475 31.7312 8.61075C31.7312 8.81475 31.7312 9.02475 31.7312 9.24075C31.7312 9.45675 31.7312 9.67275 31.7312 9.88875C31.7312 10.0928 31.7312 10.2728 31.7312 10.4288C31.7552 11.0528 31.7552 11.6648 31.7312 12.2648V12.5168C31.7312 12.6728 31.7252 12.8468 31.7132 13.0388C31.7132 13.2188 31.7012 13.3988 31.6772 13.5788C31.6532 13.7588 31.6112 13.9328 31.5512 14.1008C31.4912 14.2568 31.4072 14.3888 31.2992 14.4968C31.1552 14.6648 30.9632 14.7488 30.7232 14.7488C30.7232 14.7488 30.7112 14.7428 30.6872 14.7308C30.3992 14.7188 30.1652 14.6348 29.9852 14.4788C29.8172 14.3228 29.6852 14.1308 29.5892 13.9028C29.5052 13.6748 29.4512 13.4408 29.4272 13.2008C29.4032 12.9488 29.3912 12.7268 29.3912 12.5348V1.84275C29.3912 1.83075 29.3912 1.77675 29.3912 1.68075C29.3912 1.57275 29.4032 1.45275 29.4272 1.32075C29.4512 1.17675 29.4872 1.03275 29.5352 0.88875C29.5952 0.73275 29.6732 0.60675 29.7692 0.51075C29.8532 0.42675 29.9732 0.36675 30.1292 0.33075C30.2972 0.28275 30.4472 0.25875 30.5792 0.25875C30.8432 0.25875 31.0652 0.34875 31.2452 0.528751C31.4132 0.696751 31.5092 0.87675 31.5332 1.06875C31.5692 1.24875 31.5992 1.44075 31.6232 1.64475C31.6352 1.69275 31.6412 1.76475 31.6412 1.86075C31.6652 2.06475 31.6772 2.28075 31.6772 2.50875C31.6772 2.72475 31.6832 2.94075 31.6952 3.15675C31.6952 3.28875 31.7012 3.41475 31.7132 3.53475C31.7252 3.65475 31.7312 3.78075 31.7312 3.91275C31.7192 3.98475 31.7132 4.05675 31.7132 4.12875C31.7252 4.18875 31.7312 4.24875 31.7312 4.30875V5.31675C31.7312 5.37675 31.7312 5.44275 31.7312 5.51475C31.7312 5.58675 31.7432 5.65275 31.7672 5.71275C31.7672 5.72475 31.8272 5.73075 31.9472 5.73075C32.0672 5.73075 32.1332 5.73075 32.1452 5.73075C32.2532 5.75475 32.3372 5.76075 32.3972 5.74875H32.4332ZM23.2172 7.04475C23.2292 7.29675 23.2592 7.57875 23.3072 7.89075C23.3552 8.19075 23.4452 8.51475 23.5772 8.86275L23.9192 9.83475L24.6212 8.50275C24.6932 8.37075 24.7472 8.19075 24.7832 7.96275C24.8312 7.72275 24.8612 7.53675 24.8732 7.40475C24.8972 7.21275 24.9092 7.02675 24.9092 6.84675C24.9092 6.65475 24.9092 6.45075 24.9092 6.23475V3.12075H23.1632C23.1752 3.55275 23.1812 4.00275 23.1812 4.47075C23.1812 4.92675 23.1812 5.29275 23.1812 5.56875C23.1812 5.72475 23.1812 5.86275 23.1812 5.98275C23.1812 6.09075 23.1812 6.19875 23.1812 6.30675C23.1812 6.41475 23.1812 6.52875 23.1812 6.64875C23.1932 6.76875 23.2052 6.90075 23.2172 7.04475Z" fill="black"/>
</svg>
