<svg width="165" height="23" viewBox="0 0 165 23" fill="none" xmlns="http://www.w3.org/2000/svg">
<path d="M6.44003 22.3C5.26003 22.3 4.29003 22.22 3.53003 22.06C2.77003 21.92 2.16003 21.71 1.70003 21.43C1.26003 21.13 0.950029 20.76 0.770029 20.32C0.610029 19.88 0.530029 19.36 0.530029 18.76C0.530029 18.58 0.540029 18.33 0.560029 18.01C0.580029 17.67 0.610029 17.2 0.650029 16.6C0.690029 16 0.740029 15.23 0.800029 14.29C0.880029 13.33 0.980029 12.13 1.10003 10.69C1.24003 8.90999 1.35003 7.49999 1.43003 6.45999C1.51003 5.41999 1.57003 4.61999 1.61003 4.05999C1.65003 3.47999 1.67003 3.07999 1.67003 2.85999C1.69003 2.61999 1.70003 2.41999 1.70003 2.25999C1.70003 1.93999 1.70003 1.67999 1.70003 1.47999C1.72003 1.27999 1.74003 1.12999 1.76003 1.02999C1.80003 0.909992 1.85003 0.829993 1.91003 0.789993C1.99003 0.729993 2.10003 0.699993 2.24003 0.699993C3.42003 0.619993 4.42003 0.559993 5.24003 0.519993C6.08003 0.479993 6.81003 0.459992 7.43003 0.459992C8.95003 0.459992 10.25 0.589992 11.33 0.849993C12.43 1.08999 13.32 1.43999 14 1.89999C14.68 2.35999 15.18 2.92999 15.5 3.60999C15.82 4.28999 15.98 5.05999 15.98 5.91999C15.98 6.39999 15.93 6.89999 15.83 7.41999C15.73 7.91999 15.56 8.39999 15.32 8.85999C15.08 9.31999 14.75 9.72999 14.33 10.09C13.93 10.43 13.42 10.68 12.8 10.84C13.96 11.2 14.78 11.8 15.26 12.64C15.74 13.46 15.98 14.44 15.98 15.58C15.98 16.5 15.83 17.37 15.53 18.19C15.23 18.99 14.71 19.7 13.97 20.32C13.23 20.92 12.25 21.4 11.03 21.76C9.81003 22.12 8.28003 22.3 6.44003 22.3ZM8.15003 13C7.93003 13 7.66003 13.02 7.34003 13.06C7.02003 13.08 6.69003 13.12 6.35003 13.18L6.02003 18.07C6.74003 18.29 7.39003 18.4 7.97003 18.4C8.59003 18.4 9.09003 18.31 9.47003 18.13C9.85003 17.95 10.14 17.73 10.34 17.47C10.56 17.19 10.7 16.89 10.76 16.57C10.84 16.23 10.88 15.92 10.88 15.64C10.88 14.9 10.67 14.28 10.25 13.78C9.85003 13.26 9.15003 13 8.15003 13ZM6.89003 4.74999C6.85003 5.26999 6.81003 5.87999 6.77003 6.57999C6.75003 7.27999 6.71003 8.03999 6.65003 8.85999C7.29003 9.01999 7.86003 9.09999 8.36003 9.09999C8.96003 9.09999 9.44003 9.02999 9.80003 8.88999C10.16 8.74999 10.44 8.56999 10.64 8.34999C10.86 8.12999 11 7.88999 11.06 7.62999C11.14 7.36999 11.18 7.11999 11.18 6.87999C11.18 6.25999 10.97 5.72999 10.55 5.28999C10.15 4.82999 9.45003 4.59999 8.45003 4.59999C8.23003 4.59999 7.98003 4.61999 7.70003 4.65999C7.44003 4.67999 7.17003 4.70999 6.89003 4.74999Z" fill="#EDA1A1"/>
<path d="M17.4941 18.31C17.4941 16.51 18.3041 15.1 19.9241 14.08C21.5441 13.06 23.9341 12.51 27.0941 12.43C27.1141 12.21 27.1241 12.03 27.1241 11.89C27.1441 11.73 27.1541 11.54 27.1541 11.32C27.1541 10.68 27.0341 10.17 26.7941 9.78999C26.5541 9.40999 26.0541 9.21999 25.2941 9.21999C24.8741 9.21999 24.5341 9.27999 24.2741 9.39999C24.0141 9.51999 23.8041 9.68999 23.6441 9.90999C23.4841 10.11 23.3541 10.36 23.2541 10.66C23.1541 10.96 23.0641 11.29 22.9841 11.65C22.9441 11.83 22.8541 11.95 22.7141 12.01C22.5741 12.05 22.3541 12.07 22.0541 12.07C20.0141 12.07 18.9941 11.3 18.9941 9.75999C18.9941 9.13999 19.1341 8.54999 19.4141 7.98999C19.7141 7.42999 20.1441 6.94999 20.7041 6.54999C21.2841 6.12999 22.0041 5.79999 22.8641 5.55999C23.7241 5.31999 24.7241 5.19999 25.8641 5.19999C28.0841 5.19999 29.6941 5.65999 30.6941 6.57999C31.6941 7.49999 32.1941 8.79999 32.1941 10.48C32.1941 10.7 32.1641 11.1 32.1041 11.68C32.0641 12.24 32.0041 12.84 31.9241 13.48C31.8641 14.1 31.8041 14.69 31.7441 15.25C31.7041 15.81 31.6841 16.2 31.6841 16.42C31.6841 16.92 31.7741 17.28 31.9541 17.5C32.1341 17.7 32.3341 17.84 32.5541 17.92C32.7941 18 33.0041 18.06 33.1841 18.1C33.3641 18.14 33.4541 18.24 33.4541 18.4C33.4541 18.84 33.3941 19.29 33.2741 19.75C33.1541 20.21 32.9541 20.63 32.6741 21.01C32.4141 21.39 32.0441 21.7 31.5641 21.94C31.1041 22.18 30.5341 22.3 29.8541 22.3C28.8941 22.3 28.1741 22.07 27.6941 21.61C27.2141 21.15 26.8941 20.51 26.7341 19.69C26.2541 20.39 25.6241 21 24.8441 21.52C24.0841 22.04 23.0841 22.3 21.8441 22.3C21.2441 22.3 20.6741 22.23 20.1341 22.09C19.6141 21.95 19.1541 21.72 18.7541 21.4C18.3741 21.08 18.0641 20.67 17.8241 20.17C17.6041 19.65 17.4941 19.03 17.4941 18.31ZM26.8241 14.89C26.3041 14.89 25.7941 14.93 25.2941 15.01C24.7941 15.09 24.3441 15.22 23.9441 15.4C23.5641 15.56 23.2541 15.78 23.0141 16.06C22.7741 16.34 22.6541 16.68 22.6541 17.08C22.6541 17.54 22.7941 17.86 23.0741 18.04C23.3741 18.22 23.6941 18.31 24.0341 18.31C24.3541 18.31 24.6741 18.24 24.9941 18.1C25.3141 17.96 25.5941 17.75 25.8341 17.47C26.0941 17.17 26.3141 16.81 26.4941 16.39C26.6741 15.97 26.7841 15.47 26.8241 14.89Z" fill="#EDA1A1"/>
<path d="M45.5284 19.36C45.5284 18.92 45.5584 18.35 45.6184 17.65C45.6984 16.93 45.7684 16.18 45.8284 15.4C45.9084 14.6 45.9784 13.83 46.0384 13.09C46.1184 12.35 46.1584 11.73 46.1584 11.23C46.1584 10.71 46.0284 10.25 45.7684 9.84999C45.5284 9.42999 45.0484 9.21999 44.3284 9.21999C43.6284 9.21999 43.0484 9.38999 42.5884 9.72999C42.1284 10.07 41.7384 10.69 41.4184 11.59C41.1184 12.49 40.8684 13.73 40.6684 15.31C40.4684 16.89 40.2784 18.92 40.0984 21.4C40.0784 21.64 40.0284 21.8 39.9484 21.88C39.8684 21.96 39.6984 22 39.4384 22H38.3584C37.7384 22 37.2284 21.94 36.8284 21.82C36.4484 21.68 36.1384 21.49 35.8984 21.25C35.6784 21.01 35.5184 20.72 35.4184 20.38C35.3384 20.02 35.2984 19.61 35.2984 19.15C35.2984 18.85 35.3084 18.43 35.3284 17.89C35.3684 17.33 35.4284 16.57 35.5084 15.61C35.5884 14.63 35.6784 13.4 35.7784 11.92C35.8984 10.42 36.0384 8.56999 36.1984 6.36999C36.2184 5.92999 36.2684 5.66999 36.3484 5.58999C36.4084 5.52999 36.5684 5.49999 36.8284 5.49999H37.9984C38.5984 5.49999 39.0884 5.56999 39.4684 5.70999C39.8684 5.84999 40.1884 6.03999 40.4284 6.27999C40.6684 6.49999 40.8384 6.76999 40.9384 7.08999C41.0384 7.38999 41.0984 7.69999 41.1184 8.01999C41.7384 6.95999 42.4484 6.22999 43.2484 5.82999C44.0484 5.40999 45.0484 5.19999 46.2484 5.19999C47.0884 5.19999 47.8184 5.28999 48.4384 5.46999C49.0584 5.64999 49.5684 5.95999 49.9684 6.39999C50.3884 6.81999 50.6984 7.37999 50.8984 8.07999C51.0984 8.75999 51.1984 9.60999 51.1984 10.63C51.1984 10.95 51.1784 11.41 51.1384 12.01C51.0984 12.61 51.0484 13.27 50.9884 13.99C50.9284 14.69 50.8584 15.43 50.7784 16.21C50.7184 16.97 50.6584 17.68 50.5984 18.34C50.5384 19 50.4884 19.58 50.4484 20.08C50.4084 20.58 50.3884 20.91 50.3884 21.07C50.3884 21.51 50.3384 21.78 50.2384 21.88C50.1384 21.96 49.9184 22 49.5784 22H48.6184C47.9784 22 47.4584 21.94 47.0584 21.82C46.6584 21.7 46.3484 21.53 46.1284 21.31C45.9084 21.09 45.7484 20.82 45.6484 20.5C45.5684 20.16 45.5284 19.78 45.5284 19.36Z" fill="#EDA1A1"/>
<path d="M64.1026 19.36C64.1026 18.92 64.1326 18.35 64.1926 17.65C64.2726 16.93 64.3426 16.18 64.4026 15.4C64.4826 14.6 64.5526 13.83 64.6126 13.09C64.6926 12.35 64.7326 11.73 64.7326 11.23C64.7326 10.71 64.6026 10.25 64.3426 9.84999C64.1026 9.42999 63.6226 9.21999 62.9026 9.21999C62.2026 9.21999 61.6226 9.38999 61.1626 9.72999C60.7026 10.07 60.3126 10.69 59.9926 11.59C59.6926 12.49 59.4426 13.73 59.2426 15.31C59.0426 16.89 58.8526 18.92 58.6726 21.4C58.6526 21.64 58.6026 21.8 58.5226 21.88C58.4426 21.96 58.2726 22 58.0126 22H56.9326C56.3126 22 55.8026 21.94 55.4026 21.82C55.0226 21.68 54.7126 21.49 54.4726 21.25C54.2526 21.01 54.0926 20.72 53.9926 20.38C53.9126 20.02 53.8726 19.61 53.8726 19.15C53.8726 18.85 53.8826 18.43 53.9026 17.89C53.9426 17.33 54.0026 16.57 54.0826 15.61C54.1626 14.63 54.2526 13.4 54.3526 11.92C54.4726 10.42 54.6126 8.56999 54.7726 6.36999C54.7926 5.92999 54.8426 5.66999 54.9226 5.58999C54.9826 5.52999 55.1426 5.49999 55.4026 5.49999H56.5726C57.1726 5.49999 57.6626 5.56999 58.0426 5.70999C58.4426 5.84999 58.7626 6.03999 59.0026 6.27999C59.2426 6.49999 59.4126 6.76999 59.5126 7.08999C59.6126 7.38999 59.6726 7.69999 59.6926 8.01999C60.3126 6.95999 61.0226 6.22999 61.8226 5.82999C62.6226 5.40999 63.6226 5.19999 64.8226 5.19999C65.6626 5.19999 66.3926 5.28999 67.0126 5.46999C67.6326 5.64999 68.1426 5.95999 68.5426 6.39999C68.9626 6.81999 69.2726 7.37999 69.4726 8.07999C69.6726 8.75999 69.7726 9.60999 69.7726 10.63C69.7726 10.95 69.7526 11.41 69.7126 12.01C69.6726 12.61 69.6226 13.27 69.5626 13.99C69.5026 14.69 69.4326 15.43 69.3526 16.21C69.2926 16.97 69.2326 17.68 69.1726 18.34C69.1126 19 69.0626 19.58 69.0226 20.08C68.9826 20.58 68.9626 20.91 68.9626 21.07C68.9626 21.51 68.9126 21.78 68.8126 21.88C68.7126 21.96 68.4926 22 68.1526 22H67.1926C66.5526 22 66.0326 21.94 65.6326 21.82C65.2326 21.7 64.9226 21.53 64.7026 21.31C64.4826 21.09 64.3226 20.82 64.2226 20.5C64.1426 20.16 64.1026 19.78 64.1026 19.36Z" fill="#EDA1A1"/>
<path d="M79.3768 22.3C78.4968 22.3 77.6168 22.19 76.7368 21.97C75.8768 21.75 75.0968 21.37 74.3968 20.83C73.7168 20.29 73.1568 19.57 72.7168 18.67C72.2768 17.77 72.0568 16.64 72.0568 15.28C72.0568 14.78 72.0968 14.18 72.1768 13.48C72.2568 12.78 72.4068 12.06 72.6268 11.32C72.8668 10.58 73.1868 9.84999 73.5868 9.12999C74.0068 8.38999 74.5468 7.72999 75.2068 7.14999C75.8668 6.56999 76.6668 6.09999 77.6068 5.73999C78.5468 5.37999 79.6668 5.19999 80.9668 5.19999C82.0068 5.19999 82.8868 5.31999 83.6068 5.55999C84.3268 5.79999 84.9068 6.12999 85.3468 6.54999C85.7868 6.94999 86.1068 7.41999 86.3068 7.95999C86.5068 8.49999 86.6068 9.07999 86.6068 9.69999C86.6068 10.62 86.4168 11.4 86.0368 12.04C85.6768 12.68 85.1968 13.22 84.5968 13.66C84.0168 14.08 83.3668 14.41 82.6468 14.65C81.9268 14.89 81.2168 15.08 80.5168 15.22C79.8168 15.34 79.1668 15.42 78.5668 15.46C77.9868 15.48 77.5368 15.49 77.2168 15.49C77.2168 15.87 77.2668 16.25 77.3668 16.63C77.4868 16.99 77.6568 17.31 77.8768 17.59C78.0968 17.87 78.3868 18.1 78.7468 18.28C79.1068 18.46 79.5468 18.55 80.0668 18.55C80.5868 18.55 80.9868 18.47 81.2668 18.31C81.5668 18.13 81.8068 17.94 81.9868 17.74C82.1668 17.52 82.3168 17.33 82.4368 17.17C82.5768 16.99 82.7568 16.9 82.9768 16.9C83.0768 16.9 83.2468 16.93 83.4868 16.99C83.7468 17.03 84.0068 17.13 84.2668 17.29C84.5268 17.45 84.7568 17.67 84.9568 17.95C85.1568 18.23 85.2568 18.59 85.2568 19.03C85.2568 19.61 85.0768 20.11 84.7168 20.53C84.3568 20.95 83.8868 21.29 83.3068 21.55C82.7468 21.81 82.1168 22 81.4168 22.12C80.7168 22.24 80.0368 22.3 79.3768 22.3ZM79.9468 9.18999C79.5068 9.18999 79.1268 9.31999 78.8068 9.57999C78.5068 9.81999 78.2468 10.13 78.0268 10.51C77.8268 10.89 77.6668 11.31 77.5468 11.77C77.4468 12.23 77.3668 12.67 77.3068 13.09C78.5468 13.07 79.5468 12.86 80.3068 12.46C81.0868 12.06 81.4768 11.49 81.4768 10.75C81.4768 10.35 81.3468 9.98999 81.0868 9.66999C80.8468 9.34999 80.4668 9.18999 79.9468 9.18999Z" fill="#EDA1A1"/>
<path d="M98.1036 12.67C97.9836 12.67 97.8436 12.67 97.6836 12.67C97.5436 12.65 97.4036 12.63 97.2636 12.61C97.1236 12.57 97.0036 12.53 96.9036 12.49C96.8036 12.43 96.7536 12.36 96.7536 12.28C96.7536 12.02 96.7636 11.78 96.7836 11.56C96.8036 11.34 96.8136 11.11 96.8136 10.87C96.8136 10.43 96.7536 10.07 96.6336 9.78999C96.5136 9.50999 96.2736 9.36999 95.9136 9.36999C95.3536 9.36999 94.8836 9.73999 94.5036 10.48C94.1436 11.2 93.9136 12.29 93.8136 13.75C93.7736 14.39 93.7136 15.12 93.6336 15.94C93.5736 16.74 93.5136 17.52 93.4536 18.28C93.3936 19.02 93.3436 19.68 93.3036 20.26C93.2636 20.84 93.2436 21.22 93.2436 21.4C93.2436 21.6 93.1736 21.75 93.0336 21.85C92.8936 21.95 92.7436 22 92.5836 22H91.5036C90.8836 22 90.3736 21.94 89.9736 21.82C89.5936 21.68 89.2836 21.49 89.0436 21.25C88.8236 21.01 88.6636 20.72 88.5636 20.38C88.4836 20.02 88.4436 19.61 88.4436 19.15C88.4436 18.85 88.4536 18.43 88.4736 17.89C88.5136 17.33 88.5736 16.57 88.6536 15.61C88.7336 14.63 88.8236 13.4 88.9236 11.92C89.0436 10.42 89.1836 8.56999 89.3436 6.36999C89.3836 5.78999 89.5936 5.49999 89.9736 5.49999H91.1436C91.7036 5.49999 92.1736 5.55999 92.5536 5.67999C92.9336 5.79999 93.2436 5.96999 93.4836 6.18999C93.7236 6.38999 93.8936 6.62999 93.9936 6.90999C94.1136 7.18999 94.1936 7.47999 94.2336 7.77999C94.4736 7.31999 94.7536 6.92999 95.0736 6.60999C95.4136 6.26999 95.7636 5.99999 96.1236 5.79999C96.4836 5.57999 96.8536 5.42999 97.2336 5.34999C97.6136 5.24999 97.9636 5.19999 98.2836 5.19999C98.6636 5.19999 99.0436 5.26999 99.4236 5.40999C99.8236 5.54999 100.184 5.75999 100.504 6.03999C100.824 6.31999 101.074 6.67999 101.254 7.11999C101.454 7.55999 101.554 8.07999 101.554 8.67999C101.554 9.21999 101.474 9.72999 101.314 10.21C101.154 10.69 100.924 11.12 100.624 11.5C100.324 11.86 99.9536 12.15 99.5136 12.37C99.0936 12.57 98.6236 12.67 98.1036 12.67Z" fill="#EDA1A1"/>
<path d="M117.734 0.699993C118.234 0.699993 118.644 0.799993 118.964 0.999992C119.304 1.17999 119.584 1.42999 119.804 1.74999C120.024 2.04999 120.204 2.39999 120.344 2.79999C120.484 3.19999 120.604 3.60999 120.704 4.02999C121.504 7.26999 122.164 9.93999 122.684 12.04C123.204 14.14 123.614 15.84 123.914 17.14C124.214 18.42 124.424 19.37 124.544 19.99C124.664 20.61 124.724 21.04 124.724 21.28C124.724 21.56 124.654 21.75 124.514 21.85C124.394 21.95 124.194 22 123.914 22H122.384C121.524 22 120.834 21.9 120.314 21.7C119.814 21.48 119.424 21.17 119.144 20.77C118.884 20.37 118.694 19.89 118.574 19.33C118.454 18.75 118.354 18.1 118.274 17.38H113.054L112.064 21.52C111.964 21.84 111.734 22 111.374 22H109.784C109.464 22 109.134 21.97 108.794 21.91C108.454 21.83 108.144 21.71 107.864 21.55C107.604 21.39 107.384 21.19 107.204 20.95C107.024 20.69 106.934 20.38 106.934 20.02C106.934 19.58 107.074 18.86 107.354 17.86C107.634 16.86 107.984 15.73 108.404 14.47C108.844 13.19 109.324 11.86 109.844 10.48C110.384 9.07999 110.904 7.75999 111.404 6.51999C111.904 5.27999 112.354 4.18999 112.754 3.24999C113.174 2.30999 113.494 1.64999 113.714 1.26999C113.874 0.989993 114.014 0.829993 114.134 0.789993C114.274 0.729993 114.524 0.699993 114.884 0.699993H117.734ZM114.134 13.03H117.584L116.324 5.10999L114.134 13.03Z" fill="#EDA1A1"/>
<path d="M128.088 1.14999C128.108 0.989993 128.168 0.879993 128.268 0.819993C128.388 0.739993 128.498 0.699993 128.598 0.699993C129.958 0.699993 131.228 0.659993 132.408 0.579993C133.608 0.479993 134.548 0.429993 135.228 0.429993C136.928 0.429993 138.348 0.599993 139.488 0.939993C140.648 1.27999 141.578 1.80999 142.278 2.52999C142.998 3.24999 143.508 4.17999 143.808 5.31999C144.108 6.45999 144.258 7.82999 144.258 9.42999C144.258 11.05 144.088 12.64 143.748 14.2C143.428 15.74 142.858 17.11 142.038 18.31C141.218 19.51 140.108 20.48 138.708 21.22C137.328 21.94 135.578 22.3 133.458 22.3C132.478 22.3 131.578 22.28 130.758 22.24C129.958 22.2 129.268 22.08 128.688 21.88C128.108 21.68 127.658 21.38 127.338 20.98C127.018 20.58 126.858 20.03 126.858 19.33C126.858 19.07 126.868 18.68 126.888 18.16C126.928 17.64 126.968 17.02 127.008 16.3C127.068 15.58 127.128 14.79 127.188 13.93C127.268 13.05 127.348 12.13 127.428 11.17C127.588 9.18999 127.708 7.60999 127.788 6.42999C127.888 5.24999 127.948 4.32999 127.968 3.66999C128.008 2.98999 128.028 2.47999 128.028 2.13999C128.048 1.79999 128.068 1.46999 128.088 1.14999ZM133.668 17.56C134.788 17.56 135.678 17.32 136.338 16.84C137.018 16.36 137.538 15.75 137.898 15.01C138.258 14.27 138.498 13.46 138.618 12.58C138.738 11.7 138.798 10.87 138.798 10.09C138.798 9.24999 138.738 8.51999 138.618 7.89999C138.518 7.25999 138.328 6.72999 138.048 6.30999C137.788 5.88999 137.418 5.57999 136.938 5.37999C136.458 5.15999 135.858 5.04999 135.138 5.04999C134.918 5.04999 134.638 5.05999 134.298 5.07999C133.958 5.09999 133.548 5.12999 133.068 5.16999C133.028 5.90999 132.978 6.78999 132.918 7.80999C132.858 8.80999 132.788 9.86999 132.708 10.99C132.648 12.09 132.578 13.21 132.498 14.35C132.418 15.47 132.338 16.51 132.258 17.47C132.558 17.51 132.828 17.54 133.068 17.56C133.308 17.56 133.508 17.56 133.668 17.56Z" fill="#EDA1A1"/>
<path d="M148.069 1.14999C148.089 0.989993 148.149 0.879993 148.249 0.819993C148.369 0.739993 148.479 0.699993 148.579 0.699993C149.939 0.699993 151.209 0.659993 152.389 0.579993C153.589 0.479993 154.529 0.429993 155.209 0.429993C156.909 0.429993 158.329 0.599993 159.469 0.939993C160.629 1.27999 161.559 1.80999 162.259 2.52999C162.979 3.24999 163.489 4.17999 163.789 5.31999C164.089 6.45999 164.239 7.82999 164.239 9.42999C164.239 11.05 164.069 12.64 163.729 14.2C163.409 15.74 162.839 17.11 162.019 18.31C161.199 19.51 160.089 20.48 158.689 21.22C157.309 21.94 155.559 22.3 153.439 22.3C152.459 22.3 151.559 22.28 150.739 22.24C149.939 22.2 149.249 22.08 148.669 21.88C148.089 21.68 147.639 21.38 147.319 20.98C146.999 20.58 146.839 20.03 146.839 19.33C146.839 19.07 146.849 18.68 146.869 18.16C146.909 17.64 146.949 17.02 146.989 16.3C147.049 15.58 147.109 14.79 147.169 13.93C147.249 13.05 147.329 12.13 147.409 11.17C147.569 9.18999 147.689 7.60999 147.769 6.42999C147.869 5.24999 147.929 4.32999 147.949 3.66999C147.989 2.98999 148.009 2.47999 148.009 2.13999C148.029 1.79999 148.049 1.46999 148.069 1.14999ZM153.649 17.56C154.769 17.56 155.659 17.32 156.319 16.84C156.999 16.36 157.519 15.75 157.879 15.01C158.239 14.27 158.479 13.46 158.599 12.58C158.719 11.7 158.779 10.87 158.779 10.09C158.779 9.24999 158.719 8.51999 158.599 7.89999C158.499 7.25999 158.309 6.72999 158.029 6.30999C157.769 5.88999 157.399 5.57999 156.919 5.37999C156.439 5.15999 155.839 5.04999 155.119 5.04999C154.899 5.04999 154.619 5.05999 154.279 5.07999C153.939 5.09999 153.529 5.12999 153.049 5.16999C153.009 5.90999 152.959 6.78999 152.899 7.80999C152.839 8.80999 152.769 9.86999 152.689 10.99C152.629 12.09 152.559 13.21 152.479 14.35C152.399 15.47 152.319 16.51 152.239 17.47C152.539 17.51 152.809 17.54 153.049 17.56C153.289 17.56 153.489 17.56 153.649 17.56Z" fill="#EDA1A1"/>
</svg>
