<svg width="51" height="10" viewBox="0 0 51 10" fill="none" xmlns="http://www.w3.org/2000/svg">
<path d="M1.04 7.1C0.666667 7.1 0.4 7.02667 0.24 6.88C0.08 6.73333 0 6.52333 0 6.25C0 6.11667 0.01 5.89 0.03 5.57C0.05 5.24333 0.0766667 4.87333 0.11 4.46C0.143333 4.04667 0.176667 3.61 0.21 3.15C0.243333 2.69 0.276667 2.25667 0.31 1.85C0.343333 1.44333 0.37 1.08667 0.39 0.78C0.41 0.473333 0.42 0.263333 0.42 0.15C0.42 0.05 0.473333 0 0.58 0H4.1C4.14 0 4.17667 0.0100001 4.21 0.0300002C4.24333 0.05 4.26 0.0866665 4.26 0.14L4.22 0.73C4.20667 0.93 4.15 1.09333 4.05 1.22C3.95667 1.34 3.76 1.4 3.46 1.4H2.08L1.98 2.81H3.4C3.44 2.81 3.47667 2.82 3.51 2.84C3.54333 2.86 3.56 2.89667 3.56 2.95L3.52 3.54C3.50667 3.74 3.45 3.90333 3.35 4.03C3.25667 4.15 3.06 4.21 2.76 4.21H1.89L1.78 5.7H3.98C4.02 5.7 4.05667 5.71333 4.09 5.74C4.12333 5.76 4.14 5.79333 4.14 5.84L4.1 6.43C4.08667 6.63 4.03 6.79333 3.93 6.92C3.83667 7.04 3.64 7.1 3.34 7.1H1.04Z" fill="#DD646E"/>
<path d="M6.41402 5.3C6.39402 5.60667 6.37069 5.9 6.34402 6.18C6.31735 6.45333 6.29735 6.69333 6.28402 6.9C6.27735 6.98 6.26069 7.03333 6.23402 7.06C6.20735 7.08667 6.15069 7.1 6.06402 7.1H5.70402C5.49735 7.1 5.32735 7.08 5.19402 7.04C5.06735 6.99333 4.96402 6.93 4.88402 6.85C4.81069 6.77 4.75735 6.67333 4.72402 6.56C4.69735 6.44 4.68402 6.30333 4.68402 6.15C4.68402 6.05 4.68735 5.91 4.69402 5.73C4.70735 5.54333 4.72735 5.29 4.75402 4.97C4.78069 4.64333 4.81069 4.23333 4.84402 3.74C4.88402 3.24 4.93069 2.62333 4.98402 1.89C4.99069 1.74333 5.00735 1.65667 5.03402 1.63C5.05402 1.61 5.10735 1.6 5.19402 1.6H5.58402C5.78402 1.6 5.94735 1.62333 6.07402 1.67C6.20069 1.71667 6.30402 1.77667 6.38402 1.85C6.46402 1.92333 6.52069 2.01 6.55402 2.11C6.58735 2.21 6.60735 2.31333 6.61402 2.42C6.80735 2.06 7.02735 1.81667 7.27402 1.69C7.52069 1.56333 7.81069 1.5 8.14402 1.5C8.32402 1.5 8.49735 1.51667 8.66402 1.55C8.83069 1.58333 8.98069 1.64 9.11402 1.72C9.24735 1.8 9.36069 1.90667 9.45402 2.04C9.54735 2.16667 9.61402 2.33 9.65402 2.53C9.86069 2.14333 10.0874 1.87667 10.334 1.73C10.5807 1.57667 10.8907 1.5 11.264 1.5C11.4707 1.5 11.6674 1.52333 11.854 1.57C12.0474 1.61 12.214 1.68333 12.354 1.79C12.494 1.89667 12.604 2.04333 12.684 2.23C12.7707 2.41 12.814 2.63667 12.814 2.91C12.814 3.11667 12.804 3.37 12.784 3.67C12.764 3.97 12.7407 4.29667 12.714 4.65C12.6874 4.99667 12.6574 5.35667 12.624 5.73C12.5907 6.09667 12.564 6.45 12.544 6.79C12.5374 6.86333 12.5307 6.92 12.524 6.96C12.5174 7 12.504 7.03 12.484 7.05C12.4707 7.07 12.4474 7.08333 12.414 7.09C12.3807 7.09667 12.334 7.1 12.274 7.1H11.954C11.7407 7.1 11.5674 7.08 11.434 7.04C11.3007 7 11.1974 6.94333 11.124 6.87C11.0507 6.79667 10.9974 6.70667 10.964 6.6C10.9374 6.48667 10.924 6.36 10.924 6.22C10.924 6.13333 10.9274 6.01 10.934 5.85C10.9474 5.69 10.9607 5.51667 10.974 5.33C10.994 5.14333 11.0107 4.95 11.024 4.75C11.044 4.55 11.0607 4.36667 11.074 4.2C11.094 4.02667 11.1074 3.87667 11.114 3.75C11.1274 3.62333 11.134 3.54 11.134 3.5C11.134 3.32667 11.0974 3.17333 11.024 3.04C10.9574 2.90667 10.824 2.84 10.624 2.84C10.4507 2.84 10.3007 2.89667 10.174 3.01C10.0474 3.12333 9.94069 3.28 9.85402 3.48C9.76736 3.68 9.69735 3.91667 9.64402 4.19C9.59069 4.46333 9.55402 4.76 9.53402 5.08C9.52069 5.28667 9.50402 5.52333 9.48402 5.79C9.46402 6.05667 9.44069 6.39 9.41402 6.79C9.40735 6.86333 9.40069 6.92 9.39402 6.96C9.38736 7 9.37402 7.03 9.35402 7.05C9.34069 7.07 9.31735 7.08333 9.28402 7.09C9.25069 7.09667 9.20402 7.1 9.14402 7.1H8.82402C8.61069 7.1 8.43736 7.08 8.30402 7.04C8.17069 7 8.06735 6.94333 7.99402 6.87C7.92069 6.79667 7.86736 6.70667 7.83402 6.6C7.80736 6.48667 7.79402 6.36 7.79402 6.22C7.79402 6.08667 7.80402 5.89333 7.82402 5.64C7.85069 5.38 7.87402 5.11333 7.89402 4.84C7.92069 4.56 7.94402 4.29667 7.96402 4.05C7.99069 3.79667 8.00402 3.61333 8.00402 3.5C8.00402 3.32667 7.96735 3.17333 7.89402 3.04C7.82735 2.90667 7.69402 2.84 7.49402 2.84C7.31402 2.84 7.16069 2.90667 7.03402 3.04C6.90735 3.17333 6.80069 3.35333 6.71402 3.58C6.63402 3.8 6.56735 4.06 6.51402 4.36C6.46735 4.66 6.43402 4.97333 6.41402 5.3Z" fill="#DD646E"/>
<path d="M15.7917 7.2C15.4984 7.2 15.205 7.16333 14.9117 7.09C14.625 7.01667 14.365 6.89 14.1317 6.71C13.905 6.53 13.7184 6.29 13.5717 5.99C13.425 5.69 13.3517 5.31333 13.3517 4.86C13.3517 4.69333 13.365 4.49333 13.3917 4.26C13.4184 4.02667 13.4684 3.78667 13.5417 3.54C13.6217 3.29333 13.7284 3.05 13.8617 2.81C14.0017 2.56333 14.1817 2.34333 14.4017 2.15C14.6217 1.95667 14.8884 1.8 15.2017 1.68C15.515 1.56 15.8884 1.5 16.3217 1.5C16.6684 1.5 16.9617 1.54 17.2017 1.62C17.4417 1.7 17.635 1.81 17.7817 1.95C17.9284 2.08333 18.035 2.24 18.1017 2.42C18.1684 2.6 18.2017 2.79333 18.2017 3C18.2017 3.30667 18.1384 3.56667 18.0117 3.78C17.8917 3.99333 17.7317 4.17333 17.5317 4.32C17.3384 4.46 17.1217 4.57 16.8817 4.65C16.6417 4.73 16.405 4.79333 16.1717 4.84C15.9384 4.88 15.7217 4.90667 15.5217 4.92C15.3284 4.92667 15.1784 4.93 15.0717 4.93C15.0717 5.05667 15.0884 5.18333 15.1217 5.31C15.1617 5.43 15.2184 5.53667 15.2917 5.63C15.365 5.72333 15.4617 5.8 15.5817 5.86C15.7017 5.92 15.8484 5.95 16.0217 5.95C16.195 5.95 16.3284 5.92333 16.4217 5.87C16.5217 5.81 16.6017 5.74667 16.6617 5.68C16.7217 5.60667 16.7717 5.54333 16.8117 5.49C16.8584 5.43 16.9184 5.4 16.9917 5.4C17.025 5.4 17.0817 5.41 17.1617 5.43C17.2484 5.44333 17.335 5.47667 17.4217 5.53C17.5084 5.58333 17.585 5.65667 17.6517 5.75C17.7184 5.84333 17.7517 5.96333 17.7517 6.11C17.7517 6.30333 17.6917 6.47 17.5717 6.61C17.4517 6.75 17.295 6.86333 17.1017 6.95C16.915 7.03667 16.705 7.1 16.4717 7.14C16.2384 7.18 16.0117 7.2 15.7917 7.2ZM15.9817 2.83C15.835 2.83 15.7084 2.87333 15.6017 2.96C15.5017 3.04 15.415 3.14333 15.3417 3.27C15.275 3.39667 15.2217 3.53667 15.1817 3.69C15.1484 3.84333 15.1217 3.99 15.1017 4.13C15.515 4.12333 15.8484 4.05333 16.1017 3.92C16.3617 3.78667 16.4917 3.59667 16.4917 3.35C16.4917 3.21667 16.4484 3.09667 16.3617 2.99C16.2817 2.88333 16.155 2.83 15.9817 2.83Z" fill="#DD646E"/>
<path d="M21.8082 3.99C21.7682 3.99 21.7216 3.99 21.6682 3.99C21.6216 3.98333 21.5749 3.97667 21.5282 3.97C21.4816 3.95667 21.4416 3.94333 21.4082 3.93C21.3749 3.91 21.3582 3.88667 21.3582 3.86C21.3582 3.77333 21.3616 3.69333 21.3682 3.62C21.3749 3.54667 21.3782 3.47 21.3782 3.39C21.3782 3.24333 21.3582 3.12333 21.3182 3.03C21.2782 2.93667 21.1982 2.89 21.0782 2.89C20.8916 2.89 20.7349 3.01333 20.6082 3.26C20.4882 3.5 20.4116 3.86333 20.3782 4.35C20.3649 4.56333 20.3449 4.80667 20.3182 5.08C20.2982 5.34667 20.2782 5.60667 20.2582 5.86C20.2382 6.10667 20.2216 6.32667 20.2082 6.52C20.1949 6.71333 20.1882 6.84 20.1882 6.9C20.1882 6.96667 20.1649 7.01667 20.1182 7.05C20.0716 7.08333 20.0216 7.1 19.9682 7.1H19.6082C19.4016 7.1 19.2316 7.08 19.0982 7.04C18.9716 6.99333 18.8682 6.93 18.7882 6.85C18.7149 6.77 18.6616 6.67333 18.6282 6.56C18.6016 6.44 18.5882 6.30333 18.5882 6.15C18.5882 6.05 18.5916 5.91 18.5982 5.73C18.6116 5.54333 18.6316 5.29 18.6582 4.97C18.6849 4.64333 18.7149 4.23333 18.7482 3.74C18.7882 3.24 18.8349 2.62333 18.8882 1.89C18.9016 1.69667 18.9716 1.6 19.0982 1.6H19.4882C19.6749 1.6 19.8316 1.62 19.9582 1.66C20.0849 1.7 20.1882 1.75667 20.2682 1.83C20.3482 1.89667 20.4049 1.97667 20.4382 2.07C20.4782 2.16333 20.5049 2.26 20.5182 2.36C20.5982 2.20667 20.6916 2.07667 20.7982 1.97C20.9116 1.85667 21.0282 1.76667 21.1482 1.7C21.2682 1.62667 21.3916 1.57667 21.5182 1.55C21.6449 1.51667 21.7616 1.5 21.8682 1.5C21.9949 1.5 22.1216 1.52333 22.2482 1.57C22.3816 1.61667 22.5016 1.68667 22.6082 1.78C22.7149 1.87333 22.7982 1.99333 22.8582 2.14C22.9249 2.28667 22.9582 2.46 22.9582 2.66C22.9582 2.84 22.9316 3.01 22.8782 3.17C22.8249 3.33 22.7482 3.47333 22.6482 3.6C22.5482 3.72 22.4249 3.81667 22.2782 3.89C22.1382 3.95667 21.9816 3.99 21.8082 3.99Z" fill="#DD646E"/>
<path d="M26.4076 5.92C26.241 6.22 26.0376 6.44333 25.7976 6.59C25.5576 6.73 25.2576 6.8 24.8976 6.8C24.6243 6.8 24.3743 6.75667 24.1476 6.67C23.921 6.58333 23.7276 6.44667 23.5676 6.26C23.4076 6.07333 23.281 5.84 23.1876 5.56C23.101 5.27333 23.0576 4.93333 23.0576 4.54C23.0576 4.22 23.091 3.88333 23.1576 3.53C23.2243 3.17 23.3443 2.84 23.5176 2.54C23.6976 2.24 23.941 1.99333 24.2476 1.8C24.5543 1.6 24.9476 1.5 25.4276 1.5C25.6276 1.5 25.7976 1.52333 25.9376 1.57C26.0843 1.61 26.2076 1.66667 26.3076 1.74C26.4143 1.81333 26.4976 1.9 26.5576 2C26.6243 2.1 26.6743 2.20667 26.7076 2.32C26.7076 2.32667 26.7076 2.30333 26.7076 2.25C26.7143 2.19 26.721 2.12333 26.7276 2.05C26.7343 1.97667 26.7376 1.90667 26.7376 1.84C26.7443 1.76667 26.7476 1.72 26.7476 1.7C26.7543 1.63333 26.7976 1.6 26.8776 1.6H27.3376C27.6843 1.6 27.9343 1.67333 28.0876 1.82C28.2476 1.96 28.3276 2.23 28.3276 2.63C28.3276 2.68333 28.3243 2.80667 28.3176 3C28.311 3.18667 28.2976 3.41333 28.2776 3.68C28.2643 3.94667 28.2443 4.24333 28.2176 4.57C28.191 4.89 28.161 5.21333 28.1276 5.54C28.0943 5.86667 28.0576 6.18 28.0176 6.48C27.9776 6.78 27.9343 7.04333 27.8876 7.27C27.841 7.49667 27.761 7.71667 27.6476 7.93C27.5343 8.14333 27.3743 8.33333 27.1676 8.5C26.961 8.66667 26.6943 8.8 26.3676 8.9C26.0476 9 25.6543 9.05 25.1876 9.05C24.8343 9.05 24.5243 9.01667 24.2576 8.95C23.9976 8.88333 23.781 8.79333 23.6076 8.68C23.4343 8.57333 23.301 8.45 23.2076 8.31C23.121 8.17 23.0776 8.03 23.0776 7.89C23.0776 7.76333 23.1043 7.65333 23.1576 7.56C23.211 7.46667 23.281 7.39 23.3676 7.33C23.4543 7.27 23.5476 7.22333 23.6476 7.19C23.7543 7.16333 23.8543 7.15 23.9476 7.15C24.061 7.15 24.1443 7.18333 24.1976 7.25C24.251 7.31667 24.311 7.39 24.3776 7.47C24.4443 7.55667 24.5376 7.63333 24.6576 7.7C24.7776 7.76667 24.9643 7.8 25.2176 7.8C25.6576 7.8 25.9643 7.63667 26.1376 7.31C26.3176 6.99 26.4076 6.52667 26.4076 5.92ZM25.5676 5.47C25.8076 5.47 25.9943 5.41333 26.1276 5.3C26.2676 5.18667 26.3743 5.05 26.4476 4.89C26.521 4.73 26.5676 4.56333 26.5876 4.39C26.6076 4.21667 26.6176 4.06667 26.6176 3.94C26.6176 3.54 26.5543 3.25667 26.4276 3.09C26.3076 2.91667 26.1243 2.83 25.8776 2.83C25.631 2.83 25.4376 2.89667 25.2976 3.03C25.1576 3.16333 25.051 3.32333 24.9776 3.51C24.911 3.69 24.8676 3.87333 24.8476 4.06C24.8276 4.24 24.8176 4.38 24.8176 4.48C24.8176 4.81333 24.8743 5.06333 24.9876 5.23C25.101 5.39 25.2943 5.47 25.5676 5.47Z" fill="#DD646E"/>
<path d="M31.2961 7.2C31.0028 7.2 30.7095 7.16333 30.4161 7.09C30.1295 7.01667 29.8695 6.89 29.6361 6.71C29.4095 6.53 29.2228 6.29 29.0761 5.99C28.9295 5.69 28.8561 5.31333 28.8561 4.86C28.8561 4.69333 28.8695 4.49333 28.8961 4.26C28.9228 4.02667 28.9728 3.78667 29.0461 3.54C29.1261 3.29333 29.2328 3.05 29.3661 2.81C29.5061 2.56333 29.6861 2.34333 29.9061 2.15C30.1261 1.95667 30.3928 1.8 30.7061 1.68C31.0195 1.56 31.3928 1.5 31.8261 1.5C32.1728 1.5 32.4661 1.54 32.7061 1.62C32.9461 1.7 33.1395 1.81 33.2861 1.95C33.4328 2.08333 33.5395 2.24 33.6061 2.42C33.6728 2.6 33.7061 2.79333 33.7061 3C33.7061 3.30667 33.6428 3.56667 33.5161 3.78C33.3961 3.99333 33.2361 4.17333 33.0361 4.32C32.8428 4.46 32.6261 4.57 32.3861 4.65C32.1461 4.73 31.9095 4.79333 31.6761 4.84C31.4428 4.88 31.2261 4.90667 31.0261 4.92C30.8328 4.92667 30.6828 4.93 30.5761 4.93C30.5761 5.05667 30.5928 5.18333 30.6261 5.31C30.6661 5.43 30.7228 5.53667 30.7961 5.63C30.8695 5.72333 30.9661 5.8 31.0861 5.86C31.2061 5.92 31.3528 5.95 31.5261 5.95C31.6995 5.95 31.8328 5.92333 31.9261 5.87C32.0261 5.81 32.1061 5.74667 32.1661 5.68C32.2261 5.60667 32.2761 5.54333 32.3161 5.49C32.3628 5.43 32.4228 5.4 32.4961 5.4C32.5295 5.4 32.5861 5.41 32.6661 5.43C32.7528 5.44333 32.8395 5.47667 32.9261 5.53C33.0128 5.58333 33.0895 5.65667 33.1561 5.75C33.2228 5.84333 33.2561 5.96333 33.2561 6.11C33.2561 6.30333 33.1961 6.47 33.0761 6.61C32.9561 6.75 32.7995 6.86333 32.6061 6.95C32.4195 7.03667 32.2095 7.1 31.9761 7.14C31.7428 7.18 31.5161 7.2 31.2961 7.2ZM31.4861 2.83C31.3395 2.83 31.2128 2.87333 31.1061 2.96C31.0061 3.04 30.9195 3.14333 30.8461 3.27C30.7795 3.39667 30.7261 3.53667 30.6861 3.69C30.6528 3.84333 30.6261 3.99 30.6061 4.13C31.0195 4.12333 31.3528 4.05333 31.6061 3.92C31.8661 3.78667 31.9961 3.59667 31.9961 3.35C31.9961 3.21667 31.9528 3.09667 31.8661 2.99C31.7861 2.88333 31.6595 2.83 31.4861 2.83Z" fill="#DD646E"/>
<path d="M37.4926 6.22C37.4926 6.07333 37.5026 5.88333 37.5226 5.65C37.5493 5.41 37.5726 5.16 37.5926 4.9C37.6193 4.63333 37.6426 4.37667 37.6626 4.13C37.6893 3.88333 37.7026 3.67667 37.7026 3.51C37.7026 3.33667 37.6593 3.18333 37.5726 3.05C37.4926 2.91 37.3326 2.84 37.0926 2.84C36.8593 2.84 36.666 2.89667 36.5126 3.01C36.3593 3.12333 36.2293 3.33 36.1226 3.63C36.0226 3.93 35.9393 4.34333 35.8726 4.87C35.806 5.39667 35.7426 6.07333 35.6826 6.9C35.676 6.98 35.6593 7.03333 35.6326 7.06C35.606 7.08667 35.5493 7.1 35.4626 7.1H35.1026C34.896 7.1 34.726 7.08 34.5926 7.04C34.466 6.99333 34.3626 6.93 34.2826 6.85C34.2093 6.77 34.156 6.67333 34.1226 6.56C34.096 6.44 34.0826 6.30333 34.0826 6.15C34.0826 6.05 34.086 5.91 34.0926 5.73C34.106 5.54333 34.126 5.29 34.1526 4.97C34.1793 4.64333 34.2093 4.23333 34.2426 3.74C34.2826 3.24 34.3293 2.62333 34.3826 1.89C34.3893 1.74333 34.406 1.65667 34.4326 1.63C34.4526 1.61 34.506 1.6 34.5926 1.6H34.9826C35.1826 1.6 35.346 1.62333 35.4726 1.67C35.606 1.71667 35.7126 1.78 35.7926 1.86C35.8726 1.93333 35.9293 2.02333 35.9626 2.13C35.996 2.23 36.016 2.33333 36.0226 2.44C36.2293 2.08667 36.466 1.84333 36.7326 1.71C36.9993 1.57 37.3326 1.5 37.7326 1.5C38.0126 1.5 38.256 1.53 38.4626 1.59C38.6693 1.65 38.8393 1.75333 38.9726 1.9C39.1126 2.04 39.216 2.22667 39.2826 2.46C39.3493 2.68667 39.3826 2.97 39.3826 3.31C39.3826 3.41667 39.376 3.57 39.3626 3.77C39.3493 3.97 39.3326 4.19 39.3126 4.43C39.2926 4.66333 39.2693 4.91 39.2426 5.17C39.2226 5.42333 39.2026 5.66 39.1826 5.88C39.1626 6.1 39.146 6.29333 39.1326 6.46C39.1193 6.62667 39.1126 6.73667 39.1126 6.79C39.1126 6.93667 39.096 7.02667 39.0626 7.06C39.0293 7.08667 38.956 7.1 38.8426 7.1H38.5226C38.3093 7.1 38.136 7.08 38.0026 7.04C37.8693 7 37.766 6.94333 37.6926 6.87C37.6193 6.79667 37.566 6.70667 37.5326 6.6C37.506 6.48667 37.4926 6.36 37.4926 6.22Z" fill="#DD646E"/>
<path d="M42.5683 5.87C42.7616 5.87 42.9283 5.84333 43.0683 5.79C43.215 5.73667 43.3416 5.67667 43.4483 5.61C43.555 5.54333 43.645 5.48333 43.7183 5.43C43.7916 5.37667 43.8583 5.35 43.9183 5.35C44.0716 5.35 44.1483 5.45 44.1483 5.65C44.1483 5.69667 44.1383 5.76333 44.1183 5.85C44.0983 5.93 44.0716 6.01667 44.0383 6.11C44.005 6.19667 43.9683 6.28 43.9283 6.36C43.895 6.44 43.8616 6.5 43.8283 6.54C43.795 6.57333 43.735 6.62667 43.6483 6.7C43.5683 6.77333 43.4583 6.84667 43.3183 6.92C43.1783 6.99333 43.015 7.05667 42.8283 7.11C42.6416 7.17 42.435 7.2 42.2083 7.2C41.955 7.2 41.6916 7.16333 41.4183 7.09C41.1516 7.01 40.9083 6.87667 40.6883 6.69C40.4683 6.49667 40.285 6.24 40.1383 5.92C39.9983 5.59333 39.9283 5.18667 39.9283 4.7C39.9283 4.52667 39.9383 4.33 39.9583 4.11C39.985 3.88333 40.035 3.65333 40.1083 3.42C40.1816 3.18 40.2783 2.94667 40.3983 2.72C40.525 2.48667 40.6916 2.28 40.8983 2.1C41.105 1.92 41.3516 1.77667 41.6383 1.67C41.9316 1.55667 42.2783 1.5 42.6783 1.5C43.005 1.5 43.285 1.54 43.5183 1.62C43.7583 1.69333 43.955 1.79667 44.1083 1.93C44.2616 2.05667 44.375 2.20667 44.4483 2.38C44.5283 2.55333 44.5683 2.74 44.5683 2.94C44.5683 3.3 44.455 3.56667 44.2283 3.74C44.0016 3.90667 43.6816 3.99 43.2683 3.99C43.1683 3.99 43.0983 3.98333 43.0583 3.97C43.025 3.95 43.0083 3.91 43.0083 3.85C43.0083 3.69 43.005 3.54667 42.9983 3.42C42.9916 3.29333 42.9716 3.18667 42.9383 3.1C42.9116 3.01333 42.8683 2.94667 42.8083 2.9C42.7483 2.85333 42.6616 2.83 42.5483 2.83C42.3416 2.83 42.175 2.89667 42.0483 3.03C41.9283 3.16333 41.835 3.32667 41.7683 3.52C41.7083 3.70667 41.6683 3.9 41.6483 4.1C41.635 4.3 41.6283 4.46667 41.6283 4.6C41.6283 5.07333 41.7016 5.40333 41.8483 5.59C42.0016 5.77667 42.2416 5.87 42.5683 5.87Z" fill="#DD646E"/>
<path d="M46.8107 2.52C46.8107 2.67333 46.8007 2.85667 46.7807 3.07C46.7607 3.27667 46.7374 3.48667 46.7107 3.7C46.6907 3.90667 46.6707 4.10333 46.6507 4.29C46.6307 4.47 46.6207 4.61 46.6207 4.71C46.6207 4.96333 46.6807 5.15333 46.8007 5.28C46.9274 5.4 47.0807 5.46 47.2607 5.46C47.574 5.46 47.824 5.29667 48.0107 4.97C48.1974 4.64333 48.314 4.21 48.3607 3.67L48.5207 1.8C48.5273 1.72667 48.5507 1.67667 48.5907 1.65C48.6374 1.61667 48.6874 1.6 48.7407 1.6H49.1007C49.2407 1.6 49.3707 1.61333 49.4907 1.64C49.6174 1.66 49.7274 1.70333 49.8207 1.77C49.914 1.83 49.9874 1.91333 50.0407 2.02C50.094 2.12667 50.1207 2.26333 50.1207 2.43C50.1207 2.49667 50.114 2.62333 50.1007 2.81C50.094 2.99 50.0774 3.25333 50.0507 3.6C50.0307 3.94 50.0007 4.37333 49.9607 4.9C49.9207 5.42 49.874 6.05667 49.8207 6.81C49.7874 7.25 49.6873 7.61333 49.5207 7.9C49.3607 8.19333 49.1574 8.42333 48.9107 8.59C48.664 8.76333 48.3874 8.88333 48.0807 8.95C47.774 9.01667 47.4607 9.05 47.1407 9.05C46.8007 9.05 46.4874 9.02 46.2007 8.96C45.9207 8.9 45.6774 8.81667 45.4707 8.71C45.264 8.60333 45.1007 8.48 44.9807 8.34C44.8674 8.2 44.8107 8.05 44.8107 7.89C44.8107 7.76333 44.8374 7.65333 44.8907 7.56C44.9507 7.46667 45.0274 7.39 45.1207 7.33C45.214 7.27 45.3207 7.22333 45.4407 7.19C45.5674 7.16333 45.6974 7.15 45.8307 7.15C45.8974 7.15 45.944 7.18333 45.9707 7.25C46.004 7.31667 46.0507 7.39 46.1107 7.47C46.1774 7.55667 46.2807 7.63333 46.4207 7.7C46.5607 7.76667 46.7707 7.8 47.0507 7.8C47.2974 7.8 47.4974 7.74 47.6507 7.62C47.804 7.5 47.9207 7.34667 48.0007 7.16C48.0874 6.97333 48.144 6.77 48.1707 6.55C48.1974 6.33 48.2107 6.12 48.2107 5.92C48.104 6.10667 47.984 6.26 47.8507 6.38C47.724 6.49333 47.5907 6.58333 47.4507 6.65C47.3107 6.71 47.1707 6.75 47.0307 6.77C46.8907 6.79 46.7574 6.8 46.6307 6.8C46.384 6.8 46.1574 6.76667 45.9507 6.7C45.7507 6.63333 45.5773 6.52667 45.4307 6.38C45.284 6.22667 45.1707 6.03 45.0907 5.79C45.0107 5.55 44.9707 5.26 44.9707 4.92C44.9707 4.79333 44.9774 4.62667 44.9907 4.42C45.004 4.20667 45.0207 3.97 45.0407 3.71C45.0607 3.44333 45.0807 3.15667 45.1007 2.85C45.1274 2.54333 45.154 2.23 45.1807 1.91C45.194 1.70333 45.2874 1.6 45.4607 1.6H45.7807C45.994 1.6 46.1674 1.62 46.3007 1.66C46.434 1.7 46.5374 1.76 46.6107 1.84C46.6907 1.91333 46.744 2.01 46.7707 2.13C46.7973 2.24333 46.8107 2.37333 46.8107 2.52Z" fill="#DD646E"/>
</svg>
