<svg width="26" height="8" viewBox="0 0 26 8" fill="none" xmlns="http://www.w3.org/2000/svg">
<path d="M1.04 7.4C0.666667 7.4 0.4 7.32667 0.24 7.18C0.08 7.03333 0 6.82333 0 6.55C0 6.41667 0.01 6.19 0.03 5.87C0.05 5.54333 0.0766667 5.17333 0.11 4.76C0.143333 4.34667 0.176667 3.91 0.21 3.45C0.243333 2.99 0.276667 2.55667 0.31 2.15C0.343333 1.74333 0.37 1.38667 0.39 1.08C0.41 0.773333 0.42 0.563333 0.42 0.45C0.42 0.35 0.473333 0.3 0.58 0.3H1.13C1.50333 0.3 1.76 0.373333 1.9 0.52C2.04667 0.66 2.12 0.87 2.12 1.15C2.12 1.18333 2.11667 1.21333 2.11 1.24C2.11 1.26667 2.11 1.29667 2.11 1.33L1.78 6H3.58C3.62 6 3.65667 6.01333 3.69 6.04C3.72333 6.06 3.74 6.09333 3.74 6.14L3.7 6.73C3.68667 6.93 3.63 7.09333 3.53 7.22C3.43667 7.34 3.24 7.4 2.94 7.4H1.04Z" fill="#DD646E"/>
<path d="M3.85668 6.17C3.85668 5.57 4.12668 5.1 4.66668 4.76C5.20668 4.42 6.00334 4.23667 7.05668 4.21C7.06334 4.13667 7.06668 4.07667 7.06668 4.03C7.07334 3.97667 7.07668 3.91333 7.07668 3.84C7.07668 3.62667 7.03668 3.45667 6.95668 3.33C6.87668 3.20333 6.71001 3.14 6.45668 3.14C6.31668 3.14 6.20334 3.16 6.11668 3.2C6.03001 3.24 5.96001 3.29667 5.90668 3.37C5.85334 3.43667 5.81001 3.52 5.77668 3.62C5.74334 3.72 5.71334 3.83 5.68668 3.95C5.67334 4.01 5.64334 4.05 5.59668 4.07C5.55001 4.08333 5.47668 4.09 5.37668 4.09C4.69668 4.09 4.35668 3.83333 4.35668 3.32C4.35668 3.11333 4.40334 2.91667 4.49668 2.73C4.59668 2.54333 4.74001 2.38333 4.92668 2.25C5.12001 2.11 5.36001 2 5.64668 1.92C5.93334 1.84 6.26668 1.8 6.64668 1.8C7.38668 1.8 7.92334 1.95333 8.25668 2.26C8.59001 2.56667 8.75668 3 8.75668 3.56C8.75668 3.63333 8.74668 3.76667 8.72668 3.96C8.71334 4.14667 8.69334 4.34667 8.66668 4.56C8.64668 4.76667 8.62668 4.96333 8.60668 5.15C8.59334 5.33667 8.58668 5.46667 8.58668 5.54C8.58668 5.70667 8.61668 5.82667 8.67668 5.9C8.73668 5.96667 8.80334 6.01333 8.87668 6.04C8.95668 6.06667 9.02668 6.08667 9.08668 6.1C9.14668 6.11333 9.17668 6.14667 9.17668 6.2C9.17668 6.34667 9.15668 6.49667 9.11668 6.65C9.07668 6.80333 9.01001 6.94333 8.91668 7.07C8.83001 7.19667 8.70668 7.3 8.54668 7.38C8.39334 7.46 8.20334 7.5 7.97668 7.5C7.65668 7.5 7.41668 7.42333 7.25668 7.27C7.09668 7.11667 6.99001 6.90333 6.93668 6.63C6.77668 6.86333 6.56668 7.06667 6.30668 7.24C6.05334 7.41333 5.72001 7.5 5.30668 7.5C5.10668 7.5 4.91668 7.47667 4.73668 7.43C4.56334 7.38333 4.41001 7.30667 4.27668 7.2C4.15001 7.09333 4.04668 6.95667 3.96668 6.79C3.89334 6.61667 3.85668 6.41 3.85668 6.17ZM6.96668 5.03C6.79334 5.03 6.62334 5.04333 6.45668 5.07C6.29001 5.09667 6.14001 5.14 6.00668 5.2C5.88001 5.25333 5.77668 5.32667 5.69668 5.42C5.61668 5.51333 5.57668 5.62667 5.57668 5.76C5.57668 5.91333 5.62334 6.02 5.71668 6.08C5.81668 6.14 5.92334 6.17 6.03668 6.17C6.14334 6.17 6.25001 6.14667 6.35668 6.1C6.46334 6.05333 6.55668 5.98333 6.63668 5.89C6.72334 5.79 6.79668 5.67 6.85668 5.53C6.91668 5.39 6.95334 5.22333 6.96668 5.03Z" fill="#DD646E"/>
<path d="M11.8557 7.5C11.3424 7.5 10.9357 7.42667 10.6357 7.28C10.3357 7.12667 10.109 6.93667 9.9557 6.71C9.80236 6.48333 9.7057 6.24 9.6657 5.98C9.6257 5.71333 9.6057 5.47 9.6057 5.25C9.6057 5.16333 9.61236 4.99333 9.6257 4.74C9.6457 4.48667 9.66903 4.19333 9.6957 3.86C9.72236 3.52667 9.74903 3.17333 9.7757 2.8C9.80236 2.42 9.82903 2.06333 9.8557 1.73C9.88236 1.39 9.90236 1.09 9.9157 0.83C9.9357 0.57 9.9457 0.39 9.9457 0.29C9.9457 0.143333 9.9557 0.0599996 9.9757 0.0399995C9.9957 0.0133332 10.0557 0 10.1557 0H10.5457C10.7457 0 10.9124 0.0233332 11.0457 0.0699997C11.179 0.116667 11.2857 0.18 11.3657 0.26C11.4457 0.34 11.5024 0.433333 11.5357 0.54C11.569 0.64 11.5857 0.75 11.5857 0.87C11.5857 0.983333 11.5724 1.20333 11.5457 1.53C11.5257 1.85667 11.499 2.24 11.4657 2.68C11.639 2.38 11.8357 2.16 12.0557 2.02C12.2757 1.87333 12.5657 1.8 12.9257 1.8C13.5324 1.8 13.9957 2 14.3157 2.4C14.6424 2.8 14.8057 3.39667 14.8057 4.19C14.8057 4.39667 14.789 4.62333 14.7557 4.87C14.729 5.11667 14.6757 5.36333 14.5957 5.61C14.5224 5.85 14.4157 6.08667 14.2757 6.32C14.1424 6.54667 13.9657 6.74667 13.7457 6.92C13.5257 7.09333 13.259 7.23333 12.9457 7.34C12.639 7.44667 12.2757 7.5 11.8557 7.5ZM12.3057 3.13C12.0657 3.13 11.8757 3.19333 11.7357 3.32C11.6024 3.44667 11.499 3.6 11.4257 3.78C11.3524 3.96 11.3057 4.15333 11.2857 4.36C11.2657 4.56 11.2557 4.73667 11.2557 4.89C11.2557 5.35 11.319 5.68 11.4457 5.88C11.5724 6.07333 11.7624 6.17 12.0157 6.17C12.2557 6.17 12.4424 6.09667 12.5757 5.95C12.7157 5.79667 12.819 5.61667 12.8857 5.41C12.959 5.20333 13.0057 4.99333 13.0257 4.78C13.0457 4.56667 13.0557 4.4 13.0557 4.28C13.0557 3.90667 12.999 3.62333 12.8857 3.43C12.7724 3.23 12.579 3.13 12.3057 3.13Z" fill="#DD646E"/>
<path d="M17.576 7.5C17.116 7.5 16.7327 7.43667 16.426 7.31C16.126 7.17667 15.886 6.99667 15.706 6.77C15.526 6.54333 15.3994 6.28 15.326 5.98C15.2527 5.67333 15.216 5.34667 15.216 5C15.216 4.6 15.2627 4.21 15.356 3.83C15.456 3.44333 15.6227 3.1 15.856 2.8C16.0894 2.5 16.396 2.26 16.776 2.08C17.1627 1.89333 17.6427 1.8 18.216 1.8C19.056 1.8 19.656 2.00667 20.016 2.42C20.3827 2.82667 20.566 3.4 20.566 4.14C20.566 4.34667 20.5494 4.57667 20.516 4.83C20.4894 5.07667 20.4327 5.32333 20.346 5.57C20.266 5.81667 20.1527 6.05667 20.006 6.29C19.866 6.52333 19.686 6.73 19.466 6.91C19.246 7.09 18.9794 7.23333 18.666 7.34C18.3594 7.44667 17.996 7.5 17.576 7.5ZM18.046 3.13C17.7927 3.13 17.5894 3.19667 17.436 3.33C17.2894 3.45667 17.176 3.61333 17.096 3.8C17.0227 3.98 16.9727 4.17333 16.946 4.38C16.926 4.58 16.916 4.75 16.916 4.89C16.916 5.33 16.986 5.65333 17.126 5.86C17.266 6.06667 17.466 6.17 17.726 6.17C17.9594 6.17 18.1494 6.09667 18.296 5.95C18.4494 5.80333 18.566 5.62667 18.646 5.42C18.7327 5.21333 18.7894 4.99667 18.816 4.77C18.8494 4.54333 18.866 4.35333 18.866 4.2C18.866 3.86667 18.8027 3.60667 18.676 3.42C18.556 3.22667 18.346 3.13 18.046 3.13Z" fill="#DD646E"/>
<path d="M24.3169 4.29C24.2769 4.29 24.2302 4.29 24.1769 4.29C24.1302 4.28333 24.0835 4.27667 24.0369 4.27C23.9902 4.25667 23.9502 4.24333 23.9169 4.23C23.8835 4.21 23.8669 4.18667 23.8669 4.16C23.8669 4.07333 23.8702 3.99333 23.8769 3.92C23.8835 3.84667 23.8869 3.77 23.8869 3.69C23.8869 3.54333 23.8669 3.42333 23.8269 3.33C23.7869 3.23667 23.7069 3.19 23.5869 3.19C23.4002 3.19 23.2435 3.31333 23.1169 3.56C22.9969 3.8 22.9202 4.16333 22.8869 4.65C22.8735 4.86333 22.8535 5.10667 22.8269 5.38C22.8069 5.64667 22.7869 5.90667 22.7669 6.16C22.7469 6.40667 22.7302 6.62667 22.7169 6.82C22.7035 7.01333 22.6969 7.14 22.6969 7.2C22.6969 7.26667 22.6735 7.31667 22.6269 7.35C22.5802 7.38333 22.5302 7.4 22.4769 7.4H22.1169C21.9102 7.4 21.7402 7.38 21.6069 7.34C21.4802 7.29333 21.3769 7.23 21.2969 7.15C21.2235 7.07 21.1702 6.97333 21.1369 6.86C21.1102 6.74 21.0969 6.60333 21.0969 6.45C21.0969 6.35 21.1002 6.21 21.1069 6.03C21.1202 5.84333 21.1402 5.59 21.1669 5.27C21.1935 4.94333 21.2235 4.53333 21.2569 4.04C21.2969 3.54 21.3435 2.92333 21.3969 2.19C21.4102 1.99667 21.4802 1.9 21.6069 1.9H21.9969C22.1835 1.9 22.3402 1.92 22.4669 1.96C22.5935 2 22.6969 2.05667 22.7769 2.13C22.8569 2.19667 22.9135 2.27667 22.9469 2.37C22.9869 2.46333 23.0135 2.56 23.0269 2.66C23.1069 2.50667 23.2002 2.37667 23.3069 2.27C23.4202 2.15667 23.5369 2.06667 23.6569 2C23.7769 1.92667 23.9002 1.87667 24.0269 1.85C24.1535 1.81667 24.2702 1.8 24.3769 1.8C24.5035 1.8 24.6302 1.82333 24.7569 1.87C24.8902 1.91667 25.0102 1.98667 25.1169 2.08C25.2235 2.17333 25.3069 2.29333 25.3669 2.44C25.4335 2.58667 25.4669 2.76 25.4669 2.96C25.4669 3.14 25.4402 3.31 25.3869 3.47C25.3335 3.63 25.2569 3.77333 25.1569 3.9C25.0569 4.02 24.9335 4.11667 24.7869 4.19C24.6469 4.25667 24.4902 4.29 24.3169 4.29Z" fill="#DD646E"/>
</svg>
