<svg width="88" height="23" viewBox="0 0 88 23" fill="none" xmlns="http://www.w3.org/2000/svg">
<path d="M1.875 10.875C2.25833 10.875 2.7 10.8833 3.2 10.9C3.7 10.9167 4.23333 10.9333 4.8 10.95C4.81667 10.8 4.825 10.65 4.825 10.5C4.825 10.35 4.825 10.1917 4.825 10.025C4.65833 9.975 4.475 9.90833 4.275 9.825C3.85833 9.65833 3.46667 9.46667 3.1 9.25C2.73333 9.03333 2.41667 8.78333 2.15 8.5C1.88333 8.21667 1.66667 7.88333 1.5 7.5C1.35 7.11667 1.275 6.675 1.275 6.175C1.275 5.59167 1.35833 5.08333 1.525 4.65H1.475C1.075 4.65 0.725 4.525 0.425 4.275C0.141667 4.00833 0 3.68333 0 3.3C0 2.93333 0.141667 2.625 0.425 2.375C0.725 2.10833 1.075 1.975 1.475 1.975H4.775V1.15C4.775 0.833333 4.91667 0.566666 5.2 0.35C5.48333 0.116667 5.825 0 6.225 0C6.625 0 6.96667 0.116667 7.25 0.35C7.55 0.566666 7.7 0.833333 7.7 1.15V1.975H11.15C11.5667 1.975 11.9167 2.10833 12.2 2.375C12.5 2.625 12.65 2.93333 12.65 3.3C12.65 3.68333 12.5 4.00833 12.2 4.275C11.9167 4.525 11.5667 4.65 11.15 4.65H11.125C11.2083 4.88333 11.2667 5.125 11.3 5.375C11.35 5.625 11.375 5.89167 11.375 6.175C11.375 6.875 11.2167 7.46667 10.9 7.95C10.6 8.41667 10.1583 8.85833 9.575 9.275C9.125 9.60833 8.65 9.85833 8.15 10.025V10.05C8.13333 10.2333 8.125 10.4 8.125 10.55C8.125 10.7 8.11667 10.85 8.1 11C8.3 11 8.46667 11 8.6 11C8.73333 10.9833 8.875 10.975 9.025 10.975C9.175 10.9583 9.35833 10.95 9.575 10.95C9.79167 10.95 10.0917 10.9583 10.475 10.975C10.7917 10.975 11.1 10.975 11.4 10.975C11.7 10.975 11.9917 11.0417 12.275 11.175C12.7417 11.3917 12.975 11.7583 12.975 12.275C12.975 12.6917 12.825 13.0667 12.525 13.4C12.2917 13.65 12 13.7917 11.65 13.825C11.3167 13.8583 11 13.8583 10.7 13.825H1.875C1.85833 13.825 1.79167 13.825 1.675 13.825C1.55833 13.825 1.41667 13.8083 1.25 13.775C1.1 13.7417 0.941667 13.6917 0.775 13.625C0.608333 13.5417 0.475 13.425 0.375 13.275C0.175 13.075 0.075 12.7833 0.075 12.4C0.075 12.2167 0.1 12.0667 0.15 11.95C0.216667 11.8167 0.291667 11.6917 0.375 11.575C0.558333 11.3583 0.8 11.2 1.1 11.1C1.4 10.9833 1.65833 10.9083 1.875 10.875ZM2.725 18.25V18.225C2.70833 18.225 2.64167 18.2083 2.525 18.175C2.425 18.1417 2.30833 18.0917 2.175 18.025C2.04167 17.9583 1.90833 17.8667 1.775 17.75C1.65833 17.6333 1.59167 17.4833 1.575 17.3C1.49167 16.65 1.59167 16.15 1.875 15.8C2.075 15.5667 2.29167 15.4333 2.525 15.4C2.75833 15.35 2.88333 15.325 2.9 15.325L15.65 15.3C16.35 15.3 16.85 15.4417 17.15 15.725C17.4667 15.9917 17.6417 16.425 17.675 17.025V19.625C17.7083 19.9917 17.7083 20.3583 17.675 20.725C17.6417 21.075 17.5 21.3583 17.25 21.575C17.0167 21.7917 16.7083 21.9 16.325 21.9C16.2417 21.9 16.0917 21.8917 15.875 21.875C15.675 21.875 15.5333 21.8583 15.45 21.825C15.2167 21.7583 15.0333 21.6583 14.9 21.525C14.7833 21.3917 14.6917 21.2417 14.625 21.075C14.5583 20.9083 14.5167 20.7333 14.5 20.55C14.4833 20.35 14.4667 20.1583 14.45 19.975C14.45 19.9083 14.4417 19.7917 14.425 19.625C14.425 19.4583 14.4167 19.2917 14.4 19.125C14.4 18.9417 14.3917 18.775 14.375 18.625C14.375 18.4583 14.3667 18.3417 14.35 18.275C14.3167 18.275 14.2083 18.275 14.025 18.275C13.8417 18.275 13.6083 18.275 13.325 18.275C13.0583 18.275 12.7583 18.275 12.425 18.275C12.0917 18.2583 11.775 18.25 11.475 18.25H2.725ZM14.6 4.5C14.6 4.31667 14.6 4.10833 14.6 3.875C14.6 3.64167 14.6083 3.41667 14.625 3.2C14.6583 2.96667 14.7083 2.75 14.775 2.55C14.8417 2.35 14.925 2.2 15.025 2.1C15.2083 1.93333 15.3917 1.83333 15.575 1.8C15.775 1.75 15.9917 1.725 16.225 1.725C16.5083 1.725 16.7583 1.80833 16.975 1.975C17.2083 2.125 17.375 2.325 17.475 2.575C17.6083 2.925 17.6833 3.28333 17.7 3.65C17.7167 4.01667 17.7333 4.38333 17.75 4.75C17.75 5.31667 17.75 5.85 17.75 6.35C17.7667 6.85 17.775 7.34167 17.775 7.825C18.1083 7.825 18.4167 7.83333 18.7 7.85C19 7.85 19.2417 7.85833 19.425 7.875C19.6417 7.89167 19.8333 7.975 20 8.125C20.1833 8.275 20.325 8.45833 20.425 8.675C20.525 8.875 20.575 9.09167 20.575 9.325C20.575 9.55833 20.5083 9.75833 20.375 9.925C20.1417 10.2417 19.7833 10.45 19.3 10.55C18.8333 10.6333 18.3333 10.675 17.8 10.675V11.475C17.8 11.825 17.775 12.1 17.725 12.3C17.675 12.4833 17.6167 12.6667 17.55 12.85C17.5333 12.9 17.5167 12.95 17.5 13C17.4833 13.05 17.4583 13.1083 17.425 13.175C17.3083 13.4083 17.1583 13.5833 16.975 13.7C16.7917 13.8167 16.5917 13.8917 16.375 13.925C16.175 13.9417 15.9667 13.9333 15.75 13.9C15.5167 13.8333 15.3167 13.7333 15.15 13.6C15 13.4667 14.8833 13.3 14.8 13.1C14.7333 12.8833 14.6833 12.6833 14.65 12.5C14.6167 12.3 14.6 12.1333 14.6 12C14.6 11.85 14.6 11.7667 14.6 11.75V4.5ZM6.775 7.525C7.00833 7.475 7.225 7.43333 7.425 7.4C7.625 7.36667 7.79167 7.30833 7.925 7.225C8.075 7.125 8.18333 7 8.25 6.85C8.33333 6.68333 8.375 6.45833 8.375 6.175C8.375 5.64167 8.225 5.26667 7.925 5.05C7.625 4.83333 7.26667 4.7 6.85 4.65H5.55C5.18333 4.7 4.875 4.83333 4.625 5.05C4.375 5.26667 4.25 5.64167 4.25 6.175C4.25 6.575 4.31667 6.88333 4.45 7.1C4.6 7.31667 4.79167 7.46667 5.025 7.55C5.275 7.63333 5.55 7.66667 5.85 7.65C6.15 7.61667 6.45833 7.575 6.775 7.525Z" fill="white"/>
<path d="M30.6075 2.25C31.6241 2.83333 32.3491 3.58333 32.7825 4.5C32.9991 4.95 33.1408 5.45 33.2075 6C33.2741 6.55 33.2908 7.16667 33.2575 7.85C33.2075 8.6 33.0408 9.275 32.7575 9.875C32.4741 10.475 32.0991 10.9917 31.6325 11.425C31.1825 11.8417 30.6491 12.1667 30.0325 12.4C29.4158 12.6167 28.7575 12.725 28.0575 12.725H26.7825C26.6158 12.725 26.4491 12.725 26.2825 12.725C26.1158 12.7083 25.9408 12.6833 25.7575 12.65C25.5741 12.65 25.3991 12.625 25.2325 12.575C25.0658 12.525 24.8908 12.4833 24.7075 12.45C24.5241 12.3667 24.3408 12.275 24.1575 12.175C23.9908 12.075 23.7908 11.9583 23.5575 11.825C22.7908 11.325 22.2575 10.65 21.9575 9.8C21.8241 9.41667 21.7241 9.00833 21.6575 8.575C21.5908 8.14167 21.5575 7.71667 21.5575 7.3C21.5575 6.85 21.5908 6.41667 21.6575 6C21.7408 5.58333 21.8741 5.18333 22.0575 4.8C22.1908 4.4 22.3908 4.05 22.6575 3.75C22.9241 3.43333 23.2241 3.13333 23.5575 2.85C23.8575 2.6 24.1658 2.39167 24.4825 2.225C24.7991 2.04167 25.1491 1.9 25.5325 1.8C25.8658 1.66667 26.2241 1.58333 26.6075 1.55C26.9908 1.51667 27.3575 1.51667 27.7075 1.55C27.8908 1.6 28.0408 1.63333 28.1575 1.65C28.2908 1.65 28.4158 1.65 28.5325 1.65C28.6658 1.68333 28.7825 1.70833 28.8825 1.725C28.9991 1.725 29.1075 1.75 29.2075 1.8C29.3241 1.83333 29.4325 1.86667 29.5325 1.9C29.6491 1.91667 29.7575 1.95 29.8575 2C29.9575 2.03333 30.0741 2.075 30.2075 2.125C30.3408 2.175 30.4741 2.21667 30.6075 2.25ZM38.9575 18.65C39.1908 18.65 39.3825 18.75 39.5325 18.95C39.6825 19.15 39.7825 19.3917 39.8325 19.675C39.8658 20.0083 39.8491 20.2833 39.7825 20.5C39.7158 20.7 39.6158 20.8917 39.4825 21.075C39.2325 21.2917 39.0158 21.425 38.8325 21.475C38.7491 21.475 38.6741 21.4917 38.6075 21.525C38.5408 21.5583 38.4491 21.575 38.3325 21.575H26.1075C25.7575 21.575 25.4491 21.5667 25.1825 21.55C24.9325 21.5333 24.7075 21.475 24.5075 21.375C24.3241 21.275 24.1741 21.125 24.0575 20.925C23.9575 20.7417 23.9075 20.5583 23.9075 20.375V15.225C24.0075 14.8583 24.1741 14.5833 24.4075 14.4C24.5908 14.2833 24.7575 14.2 24.9075 14.15C25.0741 14.0833 25.2575 14.05 25.4575 14.05C25.4908 14.05 25.5908 14.0667 25.7575 14.1C25.9408 14.1167 26.0575 14.125 26.1075 14.125C26.2075 14.1583 26.2991 14.2 26.3825 14.25C26.4825 14.2833 26.5741 14.3583 26.6575 14.475C26.6908 14.5417 26.7325 14.6167 26.7825 14.7C26.8325 14.7667 26.8741 14.85 26.9075 14.95C26.9575 15.0667 26.9825 15.175 26.9825 15.275C26.9991 15.375 27.0241 15.475 27.0575 15.575V18.575H27.5575C27.6575 18.5917 27.7741 18.6 27.9075 18.6C28.0241 18.6167 28.1491 18.625 28.2825 18.625C28.4158 18.625 28.5658 18.625 28.7325 18.625C28.8325 18.625 29.0825 18.625 29.4825 18.625C29.8991 18.625 30.3908 18.625 30.9575 18.625C31.5408 18.6083 32.1741 18.6 32.8575 18.6C33.5408 18.6 34.1908 18.6 34.8075 18.6C35.4408 18.6 36.0075 18.6083 36.5075 18.625C37.0241 18.625 37.4075 18.625 37.6575 18.625H38.2825C38.3158 18.625 38.3908 18.6333 38.5075 18.65C38.6241 18.65 38.7741 18.65 38.9575 18.65ZM30.2575 7.075C30.2241 6.89167 30.1908 6.73333 30.1575 6.6C30.1241 6.45 30.0908 6.3 30.0575 6.15C29.9741 6.01667 29.8991 5.88333 29.8325 5.75C29.7658 5.61667 29.6741 5.5 29.5575 5.4C29.4575 5.3 29.3408 5.21667 29.2075 5.15C29.0741 5.06667 28.9158 4.98333 28.7325 4.9C28.5158 4.85 28.3075 4.80833 28.1075 4.775C27.9075 4.725 27.6991 4.7 27.4825 4.7C27.2491 4.7 27.0241 4.725 26.8075 4.775C26.5908 4.80833 26.3908 4.85 26.2075 4.9C26.0075 5.01667 25.8158 5.13333 25.6325 5.25C25.4658 5.36667 25.3158 5.51667 25.1825 5.7C25.0158 5.83333 24.8908 6.00833 24.8075 6.225C24.7241 6.425 24.6408 6.66667 24.5575 6.95C24.5575 7.13333 24.5575 7.30833 24.5575 7.475C24.5575 7.64167 24.5741 7.81667 24.6075 8C24.6075 8.16667 24.6408 8.33333 24.7075 8.5C24.7741 8.66667 24.8575 8.81667 24.9575 8.95C25.0741 9.1 25.1991 9.23333 25.3325 9.35C25.4658 9.45 25.6075 9.55 25.7575 9.65C25.9408 9.75 26.1325 9.84167 26.3325 9.925C26.5325 9.99167 26.7741 10.0417 27.0575 10.075C27.2408 10.075 27.4158 10.075 27.5825 10.075C27.7491 10.0583 27.9241 10.0333 28.1075 10C28.4408 10 28.7658 9.90833 29.0825 9.725C29.2158 9.65833 29.3491 9.575 29.4825 9.475C29.6325 9.35833 29.7575 9.23333 29.8575 9.1C30.0741 8.8 30.2075 8.475 30.2575 8.125V7.075ZM39.6825 12.175C39.6825 12.3417 39.6658 12.5083 39.6325 12.675C39.5991 12.8417 39.5658 13.0167 39.5325 13.2C39.3825 13.7333 39.0325 14.0583 38.4825 14.175C37.9491 14.2917 37.5158 14.175 37.1825 13.825C36.8658 13.475 36.6741 13.0583 36.6075 12.575C36.5741 12.4417 36.5491 12.3083 36.5325 12.175C36.5325 12.025 36.5325 11.8833 36.5325 11.75V10.9L36.6075 4.45C36.6075 4.21667 36.5991 3.96667 36.5825 3.7C36.5825 3.41667 36.5991 3.15 36.6325 2.9C36.6825 2.63333 36.7741 2.39167 36.9075 2.175C37.0408 1.95833 37.2491 1.78333 37.5325 1.65C37.6658 1.56667 37.8075 1.525 37.9575 1.525C38.1241 1.50833 38.2991 1.51667 38.4825 1.55C38.8658 1.6 39.1491 1.75833 39.3325 2.025C39.5325 2.29167 39.6491 2.6 39.6825 2.95V12.175Z" fill="white"/>
<path d="M54.3021 7.725C55.2021 7.75833 55.9604 7.975 56.5771 8.375C57.1937 8.775 57.6937 9.29167 58.0771 9.925C58.4604 10.5583 58.7271 11.275 58.8771 12.075C59.0271 12.875 59.0854 13.6833 59.0521 14.5C59.0354 15.3167 58.9187 16.1167 58.7021 16.9C58.5021 17.6833 58.2354 18.375 57.9021 18.975C57.5354 19.625 57.0187 20.125 56.3521 20.475C55.7021 20.8083 55.0021 21 54.2521 21.05C53.5021 21.1 52.7604 21 52.0271 20.75C51.3104 20.5 50.7021 20.1083 50.2021 19.575C49.7687 19.1083 49.4604 18.625 49.2771 18.125C49.0937 17.6083 48.9604 17.0417 48.8771 16.425C48.7937 15.8083 48.7271 15.2167 48.6771 14.65C48.6271 14.0667 48.6187 13.4917 48.6521 12.925C48.6854 12.3583 48.7771 11.8 48.9271 11.25C49.0937 10.7 49.3437 10.15 49.6771 9.6C49.8604 9.28333 50.1187 9.00833 50.4521 8.775C50.7854 8.525 51.1604 8.325 51.5771 8.175C51.9937 8.00833 52.4354 7.89167 52.9021 7.825C53.3854 7.74167 53.8521 7.70833 54.3021 7.725ZM66.0021 9.55C66.0854 9.55 66.1604 9.55833 66.2271 9.575C66.3104 9.59167 66.3937 9.6 66.4771 9.6C66.5604 9.61667 66.6521 9.63333 66.7521 9.65C66.8521 9.65 66.9521 9.65833 67.0521 9.675C67.2354 9.70833 67.4187 9.775 67.6021 9.875C67.7854 9.95833 67.9187 10.0917 68.0021 10.275C68.1187 10.4583 68.1771 10.675 68.1771 10.925C68.1771 11.0583 68.1687 11.1833 68.1521 11.3C68.1521 11.4 68.1354 11.5167 68.1021 11.65C68.0687 11.7833 68.0271 11.925 67.9771 12.075C67.9437 12.225 67.8687 12.3417 67.7521 12.425C67.5187 12.5917 67.2937 12.7 67.0771 12.75C66.8104 12.7833 66.4854 12.7917 66.1021 12.775C65.7187 12.7583 65.3937 12.7583 65.1271 12.775C65.1104 12.775 65.0937 12.7833 65.0771 12.8H65.0521L65.0271 12.825V12.9C65.0104 13.3167 65.0021 13.8 65.0021 14.35C65.0187 14.9 65.0271 15.3917 65.0271 15.825C65.0604 16.6917 65.0604 17.5417 65.0271 18.375V18.725C65.0271 18.9417 65.0187 19.1833 65.0021 19.45C65.0021 19.7 64.9854 19.95 64.9521 20.2C64.9187 20.45 64.8604 20.6917 64.7771 20.925C64.6937 21.1417 64.5771 21.325 64.4271 21.475C64.2271 21.7083 63.9604 21.825 63.6271 21.825C63.6271 21.825 63.6104 21.8167 63.5771 21.8C63.1771 21.7833 62.8521 21.6667 62.6021 21.45C62.3687 21.2333 62.1854 20.9667 62.0521 20.65C61.9354 20.3333 61.8604 20.0083 61.8271 19.675C61.7937 19.325 61.7771 19.0167 61.7771 18.75V3.9C61.7771 3.88333 61.7771 3.80833 61.7771 3.675C61.7771 3.525 61.7937 3.35833 61.8271 3.175C61.8604 2.975 61.9104 2.775 61.9771 2.575C62.0604 2.35833 62.1687 2.18333 62.3021 2.05C62.4187 1.93333 62.5854 1.85 62.8021 1.8C63.0354 1.73333 63.2437 1.7 63.4271 1.7C63.7937 1.7 64.1021 1.825 64.3521 2.075C64.5854 2.30833 64.7187 2.55833 64.7521 2.825C64.8021 3.075 64.8437 3.34167 64.8771 3.625C64.8937 3.69167 64.9021 3.79167 64.9021 3.925C64.9354 4.20833 64.9521 4.5 64.9521 4.8C64.9687 5.1 64.9854 5.4 65.0021 5.7C65.0021 5.88333 65.0021 6.06667 65.0021 6.25C65.0187 6.41667 65.0271 6.59167 65.0271 6.775C65.0104 6.875 65.0021 6.975 65.0021 7.075C65.0187 7.15833 65.0271 7.24167 65.0271 7.325V8.95C65.0271 9.03333 65.0271 9.125 65.0271 9.225C65.0271 9.325 65.0437 9.41667 65.0771 9.5C65.0771 9.51667 65.1604 9.525 65.3271 9.525C65.4937 9.525 65.5854 9.525 65.6021 9.525C65.7521 9.55833 65.8687 9.56667 65.9521 9.55H66.0021ZM57.8021 3.725C58.1354 3.725 58.4687 3.775 58.8021 3.875C59.1354 3.975 59.3937 4.19167 59.5771 4.525C59.6937 4.74167 59.7354 5.01667 59.7021 5.35C59.6687 5.66667 59.5687 5.93333 59.4021 6.15C59.2354 6.35 58.9771 6.49167 58.6271 6.575C58.2771 6.65833 57.9104 6.71667 57.5271 6.75C57.1437 6.76667 56.7854 6.76667 56.4521 6.75C56.1354 6.73333 55.9187 6.725 55.8021 6.725C55.6687 6.74167 55.5354 6.75 55.4021 6.75C55.2854 6.75 55.1521 6.75 55.0021 6.75H54.2021C54.0687 6.73333 53.9354 6.725 53.8021 6.725C53.6854 6.725 53.5604 6.725 53.4271 6.725L50.4771 6.675C49.6271 6.675 49.0187 6.56667 48.6521 6.35C48.2854 6.13333 48.0687 5.79167 48.0021 5.325C47.9354 4.84167 48.0604 4.45 48.3771 4.15C48.6104 3.95 48.8021 3.825 48.9521 3.775C49.1187 3.725 49.3271 3.7 49.5771 3.7C49.6437 3.7 49.7104 3.70833 49.7771 3.725C49.8437 3.725 49.9104 3.725 49.9771 3.725H50.6021C50.8354 3.725 51.1104 3.725 51.4271 3.725C51.7437 3.70833 52.0187 3.69167 52.2521 3.675C52.2521 3.60833 52.2521 3.51667 52.2521 3.4C52.2687 3.26667 52.2771 3.13333 52.2771 3C52.2937 2.86667 52.3021 2.74167 52.3021 2.625C52.3187 2.49167 52.3271 2.4 52.3271 2.35C52.3604 2.06667 52.4521 1.80833 52.6021 1.575C52.9521 1.09167 53.3854 0.866666 53.9021 0.899999C54.1354 0.933333 54.3687 0.974999 54.6021 1.025C54.8354 1.05833 55.0271 1.175 55.1771 1.375C55.3604 1.64167 55.4437 2.00833 55.4271 2.475C55.4271 2.925 55.4437 3.33333 55.4771 3.7H56.2021C56.3354 3.7 56.5271 3.70833 56.7771 3.725C57.0271 3.725 57.2187 3.725 57.3521 3.725H57.8021ZM54.2021 18.3C54.5687 18.25 54.8854 18.1083 55.1521 17.875C55.4187 17.625 55.6354 17.3333 55.8021 17C55.9687 16.6667 56.0854 16.3083 56.1521 15.925C56.2187 15.5417 56.2521 15.1833 56.2521 14.85C56.2521 14.5667 56.2354 14.25 56.2021 13.9C56.1854 13.5333 56.1437 13.1833 56.0771 12.85C56.0104 12.5 55.9021 12.1833 55.7521 11.9C55.6021 11.6 55.4021 11.3583 55.1521 11.175C54.9187 11.025 54.6437 10.9333 54.3271 10.9C54.0104 10.85 53.6854 10.8583 53.3521 10.925C53.0354 10.9917 52.7437 11.1083 52.4771 11.275C52.2104 11.425 52.0187 11.6333 51.9021 11.9C51.5854 12.5833 51.4187 13.2667 51.4021 13.95C51.4021 14.6333 51.4771 15.3333 51.6271 16.05C51.7104 16.4167 51.8271 16.8 51.9771 17.2C52.1271 17.5833 52.3604 17.8833 52.6771 18.1C52.7437 18.15 52.8437 18.1917 52.9771 18.225C53.1271 18.2417 53.2771 18.2583 53.4271 18.275C53.5937 18.2917 53.7437 18.3083 53.8771 18.325C54.0271 18.325 54.1354 18.3167 54.2021 18.3Z" fill="white"/>
<path d="M87.0033 19.85C86.9699 20.05 86.9449 20.25 86.9283 20.45C86.9116 20.6333 86.8699 20.825 86.8033 21.025C86.7699 21.0917 86.7449 21.15 86.7283 21.2C86.7116 21.25 86.6866 21.3083 86.6533 21.375C86.5366 21.6083 86.3866 21.7917 86.2033 21.925C85.8199 22.1583 85.3949 22.2167 84.9283 22.1C84.6616 22.05 84.4449 21.95 84.2783 21.8C84.1283 21.6667 84.0116 21.4917 83.9283 21.275C83.8616 21.075 83.8033 20.875 83.7533 20.675C83.7199 20.475 83.7033 20.3 83.7033 20.15C83.7033 20 83.7033 19.9167 83.7033 19.9V4.45C83.7033 4.25 83.7033 4.03333 83.7033 3.8C83.7033 3.56667 83.7199 3.33333 83.7533 3.1C83.7866 2.86667 83.8366 2.65 83.9033 2.45C83.9699 2.25 84.0616 2.09167 84.1783 1.975C84.3616 1.79167 84.5533 1.68333 84.7533 1.65C84.9533 1.6 85.1699 1.575 85.4033 1.575C85.6866 1.575 85.9449 1.65833 86.1783 1.825C86.4283 1.975 86.6033 2.19167 86.7033 2.475C86.8533 2.825 86.9366 3.19167 86.9533 3.575C86.9699 3.95833 86.9866 4.34167 87.0033 4.725V4.85C87.0366 6.13333 87.0449 7.45 87.0283 8.8C87.0116 10.15 87.0033 11.425 87.0033 12.625V18.95C87.0033 19.1 87.0033 19.25 87.0033 19.4C87.0199 19.55 87.0199 19.7 87.0033 19.85ZM75.2033 17.4C75.1866 17.2 75.1783 17 75.1783 16.8C75.1783 16.6 75.1783 16.4 75.1783 16.2V8.25C75.1783 7.98333 75.1783 7.71667 75.1783 7.45C75.1783 7.18333 75.1616 6.90833 75.1283 6.625C75.1116 6.54167 75.0866 6.425 75.0533 6.275C75.0366 6.125 74.9866 6.03333 74.9033 6C74.8199 5.95 74.7199 5.93333 74.6033 5.95C74.5033 5.95 74.4033 5.94167 74.3033 5.925C74.1866 5.90833 74.0699 5.90833 73.9533 5.925C73.8533 5.94167 73.7449 5.94167 73.6283 5.925H72.4533C72.1699 5.94167 71.8866 5.94167 71.6033 5.925C71.3199 5.90833 71.0366 5.90833 70.7533 5.925C70.6199 5.94167 70.4949 5.95 70.3783 5.95C70.2783 5.93333 70.1616 5.925 70.0283 5.925C69.8449 5.925 69.6533 5.91667 69.4533 5.9C69.2533 5.88333 69.0699 5.81667 68.9033 5.7C68.6699 5.53333 68.5116 5.325 68.4283 5.075C68.3449 4.825 68.3033 4.56667 68.3033 4.3C68.2866 3.98333 68.3533 3.66667 68.5033 3.35C68.5866 3.15 68.6949 3.00833 68.8283 2.925C68.9116 2.84167 69.0283 2.775 69.1783 2.725C69.3449 2.65833 69.4866 2.60833 69.6033 2.575C69.9533 2.49167 70.3199 2.45 70.7033 2.45C71.0866 2.43333 71.4616 2.425 71.8283 2.425H76.1783C76.3949 2.45833 76.6199 2.49167 76.8533 2.525C77.1033 2.54167 77.3283 2.59167 77.5283 2.675C77.6616 2.725 77.7866 2.79167 77.9033 2.875C78.0366 2.95833 78.1449 3.05833 78.2283 3.175C78.3783 3.40833 78.4616 3.64167 78.4783 3.875C78.5116 4.10833 78.5449 4.36667 78.5783 4.65C78.6116 5.11667 78.6283 5.58333 78.6283 6.05C78.6283 6.5 78.6283 6.95833 78.6283 7.425V15.625C78.6283 15.6417 78.6283 15.775 78.6283 16.025C78.6449 16.2583 78.6533 16.5417 78.6533 16.875C78.6533 17.1917 78.6533 17.5333 78.6533 17.9C78.6533 18.25 78.6449 18.5583 78.6283 18.825C78.6116 18.9917 78.5866 19.1667 78.5533 19.35C78.5199 19.5333 78.4616 19.7083 78.3783 19.875C78.3116 20.0417 78.2116 20.1917 78.0783 20.325C77.9449 20.4583 77.7699 20.5667 77.5533 20.65C77.2699 20.7667 76.9866 20.825 76.7033 20.825C76.4866 20.825 76.2699 20.7833 76.0533 20.7C75.8366 20.6 75.6866 20.4583 75.6033 20.275C75.3366 19.7417 75.2033 19.15 75.2033 18.5V17.4Z" fill="white"/>
</svg>
