<svg width="30" height="20" viewBox="0 0 30 20" fill="none" xmlns="http://www.w3.org/2000/svg">
<path d="M11.5973 4.33984H7.7301V5.23828L11.8317 8.20703L10.9723 9.06641L7.14417 6.37109L3.47229 9.10547L2.49573 8.16797L6.40198 5.27734V4.33984H2.65198V3.08984H6.36292V0.941406H7.69104V3.08984H11.5973V4.33984ZM8.15979 11.6445L8.12073 13.7539C9.17542 13.8711 9.96969 14.1966 10.5035 14.7305C11.0504 15.2643 11.3239 15.8893 11.3239 16.6055C11.3239 17.0221 11.2392 17.4062 11.0699 17.7578C10.9137 18.1094 10.6663 18.4154 10.3278 18.6758C10.0022 18.9492 9.59208 19.1576 9.09729 19.3008C8.61552 19.457 8.05562 19.5352 7.4176 19.5352C6.76656 19.5352 6.20015 19.457 5.71838 19.3008C5.23661 19.1576 4.82646 18.9492 4.48792 18.6758C4.16239 18.4154 3.915 18.1094 3.74573 17.7578C3.58948 17.4062 3.51135 17.0221 3.51135 16.6055C3.51135 15.8763 3.77828 15.2448 4.31213 14.7109C4.85901 14.1771 5.67281 13.8581 6.75354 13.7539V11.6445H0.269165L0.34729 10.4336H13.9801V11.5273L8.15979 11.6445ZM9.95667 16.6055C9.95667 16.1237 9.7288 15.7201 9.27307 15.3945C8.83036 15.056 8.21187 14.8867 7.4176 14.8867C6.59729 14.8867 5.96578 15.056 5.52307 15.3945C5.09338 15.7201 4.87854 16.1237 4.87854 16.6055C4.87854 17.1003 5.09338 17.5169 5.52307 17.8555C5.96578 18.194 6.59729 18.3633 7.4176 18.3633C8.21187 18.3633 8.83036 18.194 9.27307 17.8555C9.7288 17.5169 9.95667 17.1003 9.95667 16.6055Z" fill="black"/>
<path d="M25.2778 7.23047V5.31641H20.434L20.6294 7.34766L25.2778 7.23047ZM18.8715 1.60547H20.1606L20.395 4.18359H25.1215L24.9262 1.68359L26.2153 1.60547L26.645 8.55859H20.1997L19.3403 7.97266L18.8715 1.60547ZM24.0278 11.5273V14.0859H27.7778L28.4809 14.8867V19.5742H27.0747V15.3945H17.8559V14.0664H22.6215V11.6445H16.1372L16.2153 10.4336H29.8481V11.5273H24.0278Z" fill="black"/>
</svg>
