<svg width="31" height="20" viewBox="0 0 31 20" fill="none" xmlns="http://www.w3.org/2000/svg">
<path d="M11.5972 4.33984H7.72998V5.23828L11.8315 8.20703L10.9722 9.06641L7.14404 6.37109L3.47217 9.10547L2.49561 8.16797L6.40186 5.27734V4.33984H2.65186V3.08984H6.36279V0.941406H7.69092V3.08984H11.5972V4.33984ZM8.15967 11.6445L8.12061 13.7539C9.17529 13.8711 9.96956 14.1966 10.5034 14.7305C11.0503 15.2643 11.3237 15.8893 11.3237 16.6055C11.3237 17.0221 11.2391 17.4062 11.0698 17.7578C10.9136 18.1094 10.6662 18.4154 10.3276 18.6758C10.0021 18.9492 9.59196 19.1576 9.09717 19.3008C8.6154 19.457 8.0555 19.5352 7.41748 19.5352C6.76644 19.5352 6.20003 19.457 5.71826 19.3008C5.23649 19.1576 4.82633 18.9492 4.48779 18.6758C4.16227 18.4154 3.91488 18.1094 3.74561 17.7578C3.58936 17.4062 3.51123 17.0221 3.51123 16.6055C3.51123 15.8763 3.77816 15.2448 4.31201 14.7109C4.85889 14.1771 5.67269 13.8581 6.75342 13.7539V11.6445H0.269043L0.347168 10.4336H13.98V11.5273L8.15967 11.6445ZM9.95654 16.6055C9.95654 16.1237 9.72868 15.7201 9.27295 15.3945C8.83024 15.056 8.21175 14.8867 7.41748 14.8867C6.59717 14.8867 5.96566 15.056 5.52295 15.3945C5.09326 15.7201 4.87842 16.1237 4.87842 16.6055C4.87842 17.1003 5.09326 17.5169 5.52295 17.8555C5.96566 18.194 6.59717 18.3633 7.41748 18.3633C8.21175 18.3633 8.83024 18.194 9.27295 17.8555C9.72868 17.5169 9.95654 17.1003 9.95654 16.6055Z" fill="black"/>
<path d="M23.5589 9.73047V11.0195H16.8792L16.2933 10.1602V2.89453H17.6605V9.53516L23.5589 9.73047ZM26.098 1.87891H27.4261V6.05859H30.473V7.38672H27.4261V12.2695H26.0199L26.098 1.87891ZM16.723 13.5977H30.1995V19.5352H17.5042L16.9183 18.9883L16.723 13.5977ZM18.2464 14.9258V18.3633H28.9495V14.9258H18.2464Z" fill="black"/>
</svg>
