<svg width="31" height="17" viewBox="0 0 31 17" fill="none" xmlns="http://www.w3.org/2000/svg">
<path d="M8.14404 4.62891H5.40967V7.71484L9.35498 12.4414L8.57373 13.418L4.74561 9.08203L1.89404 13.6133L0.76123 12.8711L3.96436 7.75391V4.62891H1.19092V3.37891H8.10498L8.14404 4.62891ZM7.01123 7.94922V6.62109H10.6831V2.28516H12.0503V14.5508L10.7612 14.6289V7.94922H7.01123ZM13.9644 1.81641H15.2925V15.0586H13.9644V1.81641Z" fill="black"/>
<path d="M19.2074 7.75391L23.348 4.23828V1.93359H19.5199V0.722656H28.387V1.89453H24.8324V4.27734L28.7386 7.59766L27.9574 8.57422L24.0511 5.44922L20.1839 8.76953L19.2074 7.75391ZM23.6995 12.0898H17.1761V10.6836H30.9261V12.168H25.0667V16.9727H23.6995V12.0898Z" fill="black"/>
</svg>
