<svg width="31" height="19" viewBox="0 0 31 19" fill="none" xmlns="http://www.w3.org/2000/svg">
<path d="M8.22229 1.66016V2.91016H5.2926V5.25391L9.23792 9.31641L8.45667 10.332L4.70667 6.66016L1.58167 10.7227L0.605103 9.70703L3.92542 5.29297V2.91016H0.800415V1.62109L8.22229 1.66016ZM13.8082 0.996094V13.2227H12.5582V5.56641H7.87073V4.31641H12.4801V1.03516L13.8082 0.996094ZM6.5426 17.2852V12.4805H7.90979V16.582H14.6285V17.793H7.08948L6.5426 17.2852Z" fill="black"/>
<path d="M26.2778 6.23047V4.31641H21.434L21.6294 6.34766L26.2778 6.23047ZM19.8715 0.605469H21.1606L21.395 3.18359H26.1215L25.9262 0.683594L27.2153 0.605469L27.645 7.55859H21.1997L20.3403 6.97266L19.8715 0.605469ZM25.0278 10.5273V13.0859H28.7778L29.4809 13.8867V18.5742H28.0747V14.3945H18.8559V13.0664H23.6215V10.6445H17.1372L17.2153 9.43359H30.8481V10.5273H25.0278Z" fill="black"/>
</svg>
