<svg width="32" height="19" viewBox="0 0 32 19" fill="none" xmlns="http://www.w3.org/2000/svg">
<path d="M8.22217 1.66016V2.91016H5.29248V5.25391L9.23779 9.31641L8.45654 10.332L4.70654 6.66016L1.58154 10.7227L0.60498 9.70703L3.92529 5.29297V2.91016H0.800293V1.62109L8.22217 1.66016ZM13.8081 0.996094V13.2227H12.5581V5.56641H7.87061V4.31641H12.48V1.03516L13.8081 0.996094ZM6.54248 17.2852V12.4805H7.90967V16.582H14.6284V17.793H7.08936L6.54248 17.2852Z" fill="black"/>
<path d="M24.5589 8.73047V10.0195H17.8792L17.2933 9.16016V1.89453H18.6605V8.53516L24.5589 8.73047ZM27.098 0.878906H28.4261V5.05859H31.473V6.38672H28.4261V11.2695H27.0199L27.098 0.878906ZM17.723 12.5977H31.1995V18.5352H18.5042L17.9183 17.9883L17.723 12.5977ZM19.2464 13.9258V17.3633H29.9495V13.9258H19.2464Z" fill="black"/>
</svg>
