<svg width="31" height="19" viewBox="0 0 31 19" fill="none" xmlns="http://www.w3.org/2000/svg">
<path d="M8.18323 2.28516L5.48792 10.8008L4.15979 10.5273L6.58167 2.83203H0.87854L0.995728 1.30859H7.55823L8.18323 2.28516ZM11.2301 0.878906H12.5582V5.05859H15.6051V6.38672H12.5582V11.2695H11.152L11.2301 0.878906ZM11.3864 15.293C11.3864 14.8112 11.1585 14.4076 10.7028 14.082C10.2601 13.7435 9.64156 13.5742 8.84729 13.5742C8.02698 13.5742 7.39547 13.7435 6.95276 14.082C6.52307 14.4076 6.30823 14.8112 6.30823 15.293C6.30823 15.7878 6.52307 16.2044 6.95276 16.543C7.39547 16.8815 8.02698 17.0508 8.84729 17.0508C9.64156 17.0508 10.2601 16.8815 10.7028 16.543C11.1585 16.2044 11.3864 15.7878 11.3864 15.293ZM4.94104 15.293C4.94104 14.9023 5.01917 14.5312 5.17542 14.1797C5.34469 13.8281 5.59208 13.5221 5.9176 13.2617C6.25614 12.9883 6.6663 12.7799 7.14807 12.6367C7.62984 12.4805 8.19625 12.4023 8.84729 12.4023C9.48531 12.4023 10.0452 12.4805 10.527 12.6367C11.0218 12.7799 11.4319 12.9883 11.7574 13.2617C12.096 13.5221 12.3434 13.8281 12.4996 14.1797C12.6689 14.5312 12.7535 14.9023 12.7535 15.293C12.7535 15.7096 12.6689 16.0938 12.4996 16.4453C12.3434 16.7969 12.096 17.1029 11.7574 17.3633C11.4319 17.6367 11.0218 17.8451 10.527 17.9883C10.0452 18.1445 9.48531 18.2227 8.84729 18.2227C8.19625 18.2227 7.62984 18.1445 7.14807 17.9883C6.6663 17.8451 6.25614 17.6367 5.9176 17.3633C5.59208 17.1029 5.34469 16.7969 5.17542 16.4453C5.01917 16.0938 4.94104 15.7096 4.94104 15.293Z" fill="black"/>
<path d="M24.4809 3.57422C24.4809 4.05599 24.3963 4.4987 24.227 4.90234C24.0708 5.29297 23.8494 5.63802 23.563 5.9375C23.2765 6.22396 22.9445 6.45182 22.5669 6.62109C22.2023 6.77734 21.8116 6.85547 21.395 6.85547C20.809 6.85547 20.3143 6.74479 19.9106 6.52344C19.52 6.28906 19.2075 6.00911 18.9731 5.68359C18.7387 5.34505 18.5695 4.98698 18.4653 4.60938C18.3611 4.21875 18.309 3.8737 18.309 3.57422C18.309 3.28776 18.3611 2.95573 18.4653 2.57812C18.5825 2.20052 18.7583 1.84245 18.9926 1.50391C19.24 1.16536 19.559 0.878906 19.9497 0.644531C20.3403 0.410156 20.8221 0.292969 21.395 0.292969C21.7986 0.292969 22.1827 0.377604 22.5473 0.546875C22.9249 0.703125 23.257 0.924479 23.5434 1.21094C23.8299 1.4974 24.0577 1.84245 24.227 2.24609C24.3963 2.64974 24.4809 3.09245 24.4809 3.57422ZM19.52 3.57422C19.52 4.16016 19.6827 4.63542 20.0083 5C20.3468 5.35156 20.8481 5.52734 21.5122 5.52734C22.007 5.52734 22.4236 5.34505 22.7622 4.98047C23.1007 4.60286 23.27 4.13411 23.27 3.57422C23.27 3.28776 23.2179 3.02083 23.1137 2.77344C23.0226 2.52604 22.8924 2.3112 22.7231 2.12891C22.5538 1.94661 22.352 1.80339 22.1176 1.69922C21.8963 1.59505 21.6554 1.54297 21.395 1.54297C21.0825 1.54297 20.809 1.60156 20.5747 1.71875C20.3403 1.83594 20.145 1.99219 19.9887 2.1875C19.8325 2.36979 19.7153 2.58464 19.6372 2.83203C19.559 3.06641 19.52 3.3138 19.52 3.57422ZM30.0669 13.1445H28.8559V4.86328H25.4184V3.61328H28.7387V0.292969H29.9106L30.0669 13.1445ZM23.1528 9.39453V13.2617H22.02V9.39453H17.1372V8.26172H27.02V9.27734L23.1528 9.39453ZM19.559 17.6758V12.8711H20.9262V16.9727H30.77V18.1836H20.1059L19.559 17.6758Z" fill="black"/>
</svg>
