<svg width="30" height="19" viewBox="0 0 30 19" fill="none" xmlns="http://www.w3.org/2000/svg">
<path d="M7.57385 2.63672L7.18323 3.84766H11.5192V0.917969H12.8082V11.1523H11.5973V8.30078H5.77698L4.87854 11.1523L3.55042 10.8789L5.97229 3.18359H0.269165L0.386353 1.66016H6.94885L7.57385 2.63672ZM6.81213 5.05859L6.18713 7.05078H11.5582V5.09766L6.81213 5.05859ZM11.441 15.293C11.441 14.8112 11.2132 14.4076 10.7574 14.082C10.3147 13.7435 9.69625 13.5742 8.90198 13.5742C8.08167 13.5742 7.45015 13.7435 7.00745 14.082C6.57776 14.4076 6.36292 14.8112 6.36292 15.293C6.36292 15.7878 6.57776 16.2044 7.00745 16.543C7.45015 16.8815 8.08167 17.0508 8.90198 17.0508C9.69625 17.0508 10.3147 16.8815 10.7574 16.543C11.2132 16.2044 11.441 15.7878 11.441 15.293ZM4.99573 15.293C4.99573 14.9023 5.07385 14.5312 5.2301 14.1797C5.39937 13.8281 5.64677 13.5221 5.97229 13.2617C6.31083 12.9883 6.72099 12.7799 7.20276 12.6367C7.68453 12.4805 8.25094 12.4023 8.90198 12.4023C9.54 12.4023 10.0999 12.4805 10.5817 12.6367C11.0765 12.7799 11.4866 12.9883 11.8121 13.2617C12.1507 13.5221 12.3981 13.8281 12.5543 14.1797C12.7236 14.5312 12.8082 14.9023 12.8082 15.293C12.8082 15.7096 12.7236 16.0938 12.5543 16.4453C12.3981 16.7969 12.1507 17.1029 11.8121 17.3633C11.4866 17.6367 11.0765 17.8451 10.5817 17.9883C10.0999 18.1445 9.54 18.2227 8.90198 18.2227C8.25094 18.2227 7.68453 18.1445 7.20276 17.9883C6.72099 17.8451 6.31083 17.6367 5.97229 17.3633C5.64677 17.1029 5.39937 16.7969 5.2301 16.4453C5.07385 16.0938 4.99573 15.7096 4.99573 15.293Z" fill="black"/>
<path d="M25.2778 6.23047V4.31641H20.434L20.6294 6.34766L25.2778 6.23047ZM18.8715 0.605469H20.1606L20.395 3.18359H25.1215L24.9262 0.683594L26.2153 0.605469L26.645 7.55859H20.1997L19.3403 6.97266L18.8715 0.605469ZM24.0278 10.5273V13.0859H27.7778L28.4809 13.8867V18.5742H27.0747V14.3945H17.8559V13.0664H22.6215V10.6445H16.1372L16.2153 9.43359H29.8481V10.5273H24.0278Z" fill="black"/>
</svg>
