<svg width="29" height="19" viewBox="0 0 29 19" fill="none" xmlns="http://www.w3.org/2000/svg">
<path d="M7.57373 2.63672L7.18311 3.84766H11.519V0.917969H12.8081V11.1523H11.5972V8.30078H5.77686L4.87842 11.1523L3.55029 10.8789L5.97217 3.18359H0.269043L0.38623 1.66016H6.94873L7.57373 2.63672ZM6.81201 5.05859L6.18701 7.05078H11.5581V5.09766L6.81201 5.05859ZM11.4409 15.293C11.4409 14.8112 11.2131 14.4076 10.7573 14.082C10.3146 13.7435 9.69613 13.5742 8.90186 13.5742C8.08154 13.5742 7.45003 13.7435 7.00732 14.082C6.57764 14.4076 6.36279 14.8112 6.36279 15.293C6.36279 15.7878 6.57764 16.2044 7.00732 16.543C7.45003 16.8815 8.08154 17.0508 8.90186 17.0508C9.69613 17.0508 10.3146 16.8815 10.7573 16.543C11.2131 16.2044 11.4409 15.7878 11.4409 15.293ZM4.99561 15.293C4.99561 14.9023 5.07373 14.5312 5.22998 14.1797C5.39925 13.8281 5.64665 13.5221 5.97217 13.2617C6.31071 12.9883 6.72087 12.7799 7.20264 12.6367C7.68441 12.4805 8.25081 12.4023 8.90186 12.4023C9.53988 12.4023 10.0998 12.4805 10.5815 12.6367C11.0763 12.7799 11.4865 12.9883 11.812 13.2617C12.1506 13.5221 12.3979 13.8281 12.5542 14.1797C12.7235 14.5312 12.8081 14.9023 12.8081 15.293C12.8081 15.7096 12.7235 16.0938 12.5542 16.4453C12.3979 16.7969 12.1506 17.1029 11.812 17.3633C11.4865 17.6367 11.0763 17.8451 10.5815 17.9883C10.0998 18.1445 9.53988 18.2227 8.90186 18.2227C8.25081 18.2227 7.68441 18.1445 7.20264 17.9883C6.72087 17.8451 6.31071 17.6367 5.97217 17.3633C5.64665 17.1029 5.39925 16.7969 5.22998 16.4453C5.07373 16.0938 4.99561 15.7096 4.99561 15.293Z" fill="black"/>
<path d="M23.4027 3.57422L20.473 13.6523L19.1449 13.3789L21.8402 4.12109H16.3324L16.4495 2.59766H22.7777L23.4027 3.57422ZM27.1136 13.9258V0.566406H28.7152V13.9258H27.1136Z" fill="black"/>
</svg>
