<svg width="31" height="19" viewBox="0 0 31 19" fill="none" xmlns="http://www.w3.org/2000/svg">
<path d="M0.956543 12.6758L4.70654 7.83203V3.18359H6.30811V7.79297L10.0972 12.5195L9.31592 13.4961L5.40967 9.19922L1.93311 13.6914L0.956543 12.6758ZM14.5894 15.4883H13.5347V8.30078H7.98779V7.01172H13.3784V2.16797H14.5894V15.4883Z" fill="black"/>
<path d="M20.223 3.22266C20.223 2.74089 20.3206 2.3112 20.516 1.93359C20.7243 1.55599 21.0042 1.24349 21.3558 0.996094C21.7074 0.735677 22.111 0.540365 22.5667 0.410156C23.0225 0.279948 23.5042 0.214844 24.012 0.214844C24.5199 0.214844 24.9951 0.292969 25.4378 0.449219C25.8936 0.592448 26.2907 0.800781 26.6292 1.07422C26.9678 1.34766 27.2347 1.66667 27.43 2.03125C27.6253 2.39583 27.723 2.79297 27.723 3.22266C27.723 3.76953 27.6123 4.23828 27.391 4.62891C27.1696 5.00651 26.8831 5.31901 26.5316 5.56641C26.18 5.8138 25.7829 5.99609 25.3402 6.11328C24.8975 6.21745 24.4548 6.26953 24.012 6.26953C23.4782 6.26953 22.9769 6.20443 22.5081 6.07422C22.0524 5.93099 21.6553 5.72917 21.3167 5.46875C20.9782 5.19531 20.7113 4.86979 20.516 4.49219C20.3206 4.11458 20.223 3.69141 20.223 3.22266ZM26.473 3.22266C26.473 2.98828 26.4079 2.76042 26.2777 2.53906C26.1605 2.31771 25.9912 2.1224 25.7699 1.95312C25.5485 1.77083 25.2816 1.6276 24.9691 1.52344C24.6696 1.40625 24.3376 1.34766 23.973 1.34766C23.5173 1.3737 23.1266 1.44531 22.8011 1.5625C22.4886 1.67969 22.2347 1.82943 22.0394 2.01172C21.8441 2.19401 21.7008 2.39583 21.6097 2.61719C21.5186 2.82552 21.473 3.02734 21.473 3.22266C21.473 3.5612 21.5446 3.84766 21.6878 4.08203C21.8441 4.31641 22.0394 4.51172 22.2738 4.66797C22.5081 4.8112 22.7751 4.92188 23.0745 5C23.387 5.0651 23.6995 5.09766 24.012 5.09766C24.3376 5.09766 24.6436 5.05208 24.93 4.96094C25.2295 4.85677 25.4899 4.72005 25.7113 4.55078C25.9456 4.38151 26.1279 4.1862 26.2581 3.96484C26.4014 3.73047 26.473 3.48307 26.473 3.22266ZM24.9105 8.76953V11.0742H28.973V15.5664H20.3011V17.4805H30.1449V18.4961H19.6761L19.012 18.1055V14.3164H27.6449V12.207H19.6761V11.0742H23.5042V8.88672H17.137L17.2152 7.67578H30.848V8.76953H24.9105Z" fill="black"/>
</svg>
