<svg width="316" height="15" viewBox="0 0 316 15" fill="none" xmlns="http://www.w3.org/2000/svg">
<path d="M9.73769 13.15C9.69769 13.15 9.67769 13.125 9.67769 13.075V6.205L8.25269 6.265C8.01269 6.275 7.75769 6.295 7.48769 6.325C7.21769 6.355 6.96269 6.385 6.72269 6.415C6.61269 6.435 6.53769 6.43 6.49769 6.4C6.45769 6.37 6.42769 6.325 6.40769 6.265C6.36769 6.135 6.33769 6.01 6.31769 5.89C6.29769 5.76 6.27769 5.65 6.25769 5.56C6.25769 5.48 6.29769 5.45 6.37769 5.47C6.49769 5.49 6.68769 5.505 6.94769 5.515C7.20769 5.515 7.49769 5.515 7.81769 5.515C8.14769 5.505 8.47269 5.495 8.79269 5.485C9.12269 5.475 9.41769 5.46 9.67769 5.44V2.245C9.67769 1.865 9.66269 1.515 9.63269 1.195C9.61269 0.865001 9.57769 0.650001 9.52769 0.550001C9.50769 0.500001 9.50769 0.465002 9.52769 0.445002C9.55769 0.415002 9.59269 0.400001 9.63269 0.400001C9.69269 0.400001 9.79269 0.405001 9.93269 0.415001C10.0827 0.415001 10.2277 0.420001 10.3677 0.430001C10.5077 0.430001 10.5877 0.430001 10.6077 0.430001C10.6577 0.430001 10.6827 0.470001 10.6827 0.550001C10.6527 0.920001 10.6327 1.245 10.6227 1.525C10.6227 1.795 10.6227 2.11 10.6227 2.47V12.775C10.6227 12.925 10.6127 13.015 10.5927 13.045C10.5827 13.075 10.5527 13.095 10.5027 13.105L9.73769 13.15ZM0.647687 10.72L0.287687 10.39C0.247687 10.35 0.262687 10.3 0.332687 10.24C0.962687 9.91 1.58769 9.465 2.20769 8.905C2.83769 8.345 3.41769 7.725 3.94769 7.045C4.47769 6.365 4.91769 5.67 5.26769 4.96C5.61769 4.24 5.83269 3.56 5.91269 2.92C5.93269 2.81 5.88769 2.755 5.77769 2.755L2.83769 2.935L1.27769 3.07C1.17769 3.08 1.11269 3.07 1.08269 3.04C1.05269 3 1.02769 2.955 1.00769 2.905C0.997687 2.895 0.992687 2.885 0.992687 2.875C0.952687 2.765 0.922687 2.675 0.902687 2.605C0.882687 2.525 0.852687 2.4 0.812687 2.23C0.802687 2.21 0.807687 2.185 0.827687 2.155C0.847687 2.125 0.882687 2.115 0.932687 2.125C1.37269 2.165 1.86269 2.185 2.40269 2.185C2.95269 2.175 3.50269 2.155 4.05269 2.125C4.60269 2.085 5.09769 2.04 5.53769 1.99C5.65769 1.98 5.78769 1.96 5.92769 1.93C6.06769 1.9 6.13769 1.885 6.13769 1.885C6.18769 1.865 6.24269 1.865 6.30269 1.885L7.12769 2.155C7.20769 2.195 7.24269 2.26 7.23269 2.35L6.88769 3.46C6.74769 3.9 6.52769 4.425 6.22769 5.035C5.92769 5.645 5.54269 6.29 5.07269 6.97C4.60269 7.64 4.03769 8.3 3.37769 8.95C2.72769 9.6 1.97769 10.19 1.12769 10.72C1.04769 10.77 0.967687 10.8 0.887687 10.81C0.807687 10.82 0.727687 10.79 0.647687 10.72Z" fill="black"/>
<path d="M15.4272 6.16C15.3672 6.2 15.2922 6.22 15.2022 6.22C15.1222 6.21 15.0422 6.15 14.9622 6.04L14.6772 5.695C14.6472 5.645 14.6422 5.615 14.6622 5.605C14.6922 5.585 14.7222 5.57 14.7522 5.56C14.7622 5.56 14.7672 5.56 14.7672 5.56C16.0172 5.14 17.0322 4.61 17.8122 3.97C18.5922 3.33 19.0622 2.62 19.2222 1.84C18.9622 1.85 18.7372 1.86 18.5472 1.87C18.3572 1.87 18.2222 1.875 18.1422 1.885C17.9822 1.895 17.7422 1.915 17.4222 1.945C17.1122 1.965 16.7972 1.985 16.4772 2.005C16.1672 2.025 15.9272 2.045 15.7572 2.065C15.6472 2.085 15.5772 2.075 15.5472 2.035C15.5172 1.995 15.4872 1.945 15.4572 1.885C15.4572 1.875 15.4572 1.87 15.4572 1.87C15.4172 1.76 15.3872 1.665 15.3672 1.585C15.3472 1.505 15.3172 1.38 15.2772 1.21C15.2672 1.19 15.2722 1.165 15.2922 1.135C15.3122 1.105 15.3472 1.095 15.3972 1.105C15.6472 1.125 16.0072 1.14 16.4772 1.15C16.9572 1.16 17.4972 1.165 18.0972 1.165C18.7072 1.155 19.3272 1.14 19.9572 1.12C20.5972 1.09 21.2022 1.05 21.7722 1C22.3522 0.950001 22.8472 0.890001 23.2572 0.820001C23.2872 0.810002 23.3222 0.815001 23.3622 0.835001C23.4022 0.845001 23.4272 0.875001 23.4372 0.925001C23.4472 0.985001 23.4572 1.055 23.4672 1.135C23.4872 1.215 23.5022 1.295 23.5122 1.375L23.5422 1.66C23.5622 1.77 23.5022 1.825 23.3622 1.825L21.5172 1.81C21.3672 1.81 21.1822 1.81 20.9622 1.81C20.7522 1.81 20.5322 1.815 20.3022 1.825C20.1822 2.275 20.0022 2.695 19.7622 3.085C20.5822 3.395 21.3122 3.675 21.9522 3.925C22.6022 4.175 23.1722 4.445 23.6622 4.735C23.7122 4.765 23.7622 4.81 23.8122 4.87C23.8622 4.92 23.8722 4.985 23.8422 5.065C23.7922 5.175 23.7372 5.295 23.6772 5.425C23.6172 5.545 23.5472 5.665 23.4672 5.785C23.4272 5.855 23.3772 5.865 23.3172 5.815C22.9972 5.525 22.6022 5.245 22.1322 4.975C21.6722 4.695 21.1972 4.44 20.7072 4.21C20.2172 3.98 19.7622 3.795 19.3422 3.655C18.8622 4.225 18.2772 4.71 17.5872 5.11C16.9072 5.51 16.1872 5.86 15.4272 6.16ZM19.1172 13.18C19.0772 13.18 19.0572 13.155 19.0572 13.105V8.17C17.8572 8.19 16.7672 8.225 15.7872 8.275C14.8072 8.315 14.0372 8.36 13.4772 8.41C13.3672 8.42 13.2922 8.41 13.2522 8.38C13.2122 8.35 13.1822 8.305 13.1622 8.245C13.1222 8.135 13.0872 8.025 13.0572 7.915C13.0272 7.795 12.9922 7.65 12.9522 7.48C12.9422 7.46 12.9472 7.435 12.9672 7.405C12.9872 7.365 13.0222 7.35 13.0722 7.36C13.4522 7.41 13.9672 7.445 14.6172 7.465C15.2772 7.475 16.0022 7.48 16.7922 7.48C17.5622 7.48 18.3722 7.47 19.2222 7.45C20.0822 7.43 20.9172 7.405 21.7272 7.375C22.5372 7.345 23.2572 7.305 23.8872 7.255C24.5272 7.205 25.0122 7.15 25.3422 7.09C25.4422 7.07 25.5072 7.075 25.5372 7.105C25.5672 7.135 25.5872 7.175 25.5972 7.225L25.6872 7.945C25.6872 7.995 25.6722 8.04 25.6422 8.08C25.6122 8.12 25.5322 8.14 25.4022 8.14C25.0622 8.13 24.6672 8.125 24.2172 8.125C23.7672 8.125 23.2872 8.125 22.7772 8.125C22.3072 8.125 21.8422 8.13 21.3822 8.14C20.9222 8.14 20.4672 8.145 20.0172 8.155V12.805C20.0172 12.955 20.0072 13.045 19.9872 13.075C19.9772 13.105 19.9472 13.125 19.8972 13.135C19.8572 13.135 19.7822 13.135 19.6722 13.135C19.5622 13.145 19.4522 13.155 19.3422 13.165C19.2322 13.175 19.1572 13.18 19.1172 13.18Z" fill="black"/>
<path d="M35.6007 10C34.9607 10.02 34.4157 9.91 33.9657 9.67C33.5257 9.43 33.1907 9.11 32.9607 8.71C32.7307 8.31 32.6157 7.9 32.6157 7.48C32.6157 7.09 32.7257 6.71 32.9457 6.34C33.1757 5.97 33.5107 5.66 33.9507 5.41C34.4007 5.15 34.9557 5.01 35.6157 4.99C36.1857 4.97 36.6907 5.06 37.1307 5.26C37.5807 5.46 37.9357 5.745 38.1957 6.115C38.4557 6.485 38.5757 6.925 38.5557 7.435C38.5457 7.855 38.4257 8.26 38.1957 8.65C37.9757 9.03 37.6457 9.345 37.2057 9.595C36.7757 9.845 36.2407 9.98 35.6007 10ZM40.7157 13.15C40.6757 13.15 40.6557 13.125 40.6557 13.075V2.245C40.6557 1.865 40.6407 1.515 40.6107 1.195C40.5907 0.865001 40.5557 0.650001 40.5057 0.550001C40.4857 0.500001 40.4857 0.465002 40.5057 0.445002C40.5357 0.415002 40.5707 0.400001 40.6107 0.400001C40.6707 0.400001 40.7707 0.405001 40.9107 0.415001C41.0607 0.415001 41.2057 0.420001 41.3457 0.430001C41.4857 0.430001 41.5657 0.430001 41.5857 0.430001C41.6357 0.430001 41.6607 0.470001 41.6607 0.550001C41.6307 0.920001 41.6107 1.245 41.6007 1.525C41.6007 1.795 41.6007 2.11 41.6007 2.47V6.205C41.8707 6.205 42.1607 6.195 42.4707 6.175C42.7907 6.145 43.0857 6.115 43.3557 6.085C43.6357 6.045 43.8457 6.005 43.9857 5.965C44.0757 5.955 44.1257 5.985 44.1357 6.055C44.1557 6.185 44.1707 6.315 44.1807 6.445C44.1907 6.575 44.2007 6.705 44.2107 6.835C44.2107 6.945 44.1657 7 44.0757 7C43.9257 6.98 43.7057 6.97 43.4157 6.97C43.1357 6.97 42.8357 6.97 42.5157 6.97C42.1957 6.97 41.8907 6.975 41.6007 6.985V12.775C41.6007 12.925 41.5907 13.015 41.5707 13.045C41.5607 13.075 41.5307 13.095 41.4807 13.105L40.7157 13.15ZM35.6007 9.19C36.0407 9.17 36.4057 9.075 36.6957 8.905C36.9857 8.735 37.2057 8.52 37.3557 8.26C37.5057 7.99 37.5857 7.715 37.5957 7.435C37.6157 7.175 37.5657 6.915 37.4457 6.655C37.3257 6.395 37.1207 6.175 36.8307 5.995C36.5407 5.805 36.1507 5.705 35.6607 5.695C35.1907 5.695 34.7957 5.785 34.4757 5.965C34.1657 6.135 33.9357 6.355 33.7857 6.625C33.6357 6.885 33.5607 7.16 33.5607 7.45C33.5607 7.94 33.7407 8.36 34.1007 8.71C34.4607 9.05 34.9607 9.21 35.6007 9.19ZM31.7757 4.33C31.6757 4.34 31.6107 4.33 31.5807 4.3C31.5507 4.26 31.5257 4.215 31.5057 4.165C31.4957 4.155 31.4907 4.145 31.4907 4.135C31.4507 4.025 31.4207 3.925 31.4007 3.835C31.3807 3.745 31.3507 3.615 31.3107 3.445C31.3007 3.425 31.3057 3.4 31.3257 3.37C31.3457 3.34 31.3807 3.33 31.4307 3.34C31.7107 3.37 32.0307 3.395 32.3907 3.415C32.7607 3.435 33.1857 3.44 33.6657 3.43C34.1757 3.42 34.7257 3.41 35.3157 3.4C35.9157 3.38 36.4907 3.35 37.0407 3.31C37.4807 3.28 37.8957 3.24 38.2857 3.19C38.6757 3.14 39.0307 3.09 39.3507 3.04C39.3807 3.03 39.4157 3.035 39.4557 3.055C39.4957 3.065 39.5207 3.095 39.5307 3.145C39.5607 3.345 39.5807 3.5 39.5907 3.61C39.6007 3.72 39.6057 3.81 39.6057 3.88C39.6257 3.99 39.5657 4.045 39.4257 4.045C39.2357 4.035 39.0057 4.03 38.7357 4.03C38.4657 4.03 38.2307 4.03 38.0307 4.03C37.8107 4.03 37.4907 4.035 37.0707 4.045C36.6507 4.055 36.1957 4.07 35.7057 4.09C35.2257 4.1 34.7757 4.115 34.3557 4.135C33.9357 4.155 33.6207 4.175 33.4107 4.195L31.7757 4.33ZM35.1207 2.05C34.9707 2.03 34.7607 2.005 34.4907 1.975C34.2307 1.945 33.9707 1.9 33.7107 1.84C33.4607 1.78 33.2657 1.695 33.1257 1.585C33.0857 1.555 33.0757 1.495 33.0957 1.405C33.1157 1.305 33.1507 1.21 33.2007 1.12C33.2507 1.03 33.3007 0.995001 33.3507 1.015C33.8307 1.105 34.3407 1.16 34.8807 1.18C35.4207 1.2 35.9357 1.2 36.4257 1.18C36.9257 1.16 37.3357 1.14 37.6557 1.12C37.7357 1.11 37.7857 1.115 37.8057 1.135C37.8257 1.145 37.8407 1.175 37.8507 1.225C37.8507 1.235 37.8507 1.26 37.8507 1.3C37.8507 1.4 37.8457 1.52 37.8357 1.66C37.8357 1.8 37.8057 1.88 37.7457 1.9C37.6857 1.92 37.5057 1.95 37.2057 1.99C36.9157 2.02 36.5757 2.045 36.1857 2.065C35.8057 2.075 35.4507 2.07 35.1207 2.05Z" fill="black"/>
<path d="M45.0264 9.52L44.6214 9.175C44.5814 9.135 44.5964 9.09 44.6664 9.04C44.6764 9.03 44.6814 9.025 44.6814 9.025C45.3714 8.515 46.0014 7.945 46.5714 7.315C47.1414 6.675 47.6264 6.015 48.0264 5.335C48.4364 4.655 48.7314 3.995 48.9114 3.355C48.9914 3.065 49.0664 2.74 49.1364 2.38C49.2064 2.02 49.2414 1.745 49.2414 1.555C49.2414 1.495 49.2564 1.455 49.2864 1.435C49.3164 1.405 49.3464 1.4 49.3764 1.42L50.4114 1.675C50.4614 1.685 50.4814 1.74 50.4714 1.84C50.4314 1.98 50.3714 2.165 50.2914 2.395C50.2114 2.625 50.1314 2.86 50.0514 3.1C49.9714 3.33 49.9014 3.53 49.8414 3.7C49.7614 3.9 49.6714 4.115 49.5714 4.345C49.4714 4.565 49.3614 4.795 49.2414 5.035C49.7214 5.395 50.2164 5.78 50.7264 6.19C51.2364 6.6 51.7014 6.985 52.1214 7.345C52.5414 7.705 52.8564 8 53.0664 8.23C53.1064 8.28 53.1364 8.34 53.1564 8.41C53.1864 8.47 53.1764 8.535 53.1264 8.605C53.0364 8.715 52.9364 8.815 52.8264 8.905C52.7264 8.995 52.6214 9.085 52.5114 9.175C52.4514 9.225 52.4014 9.215 52.3614 9.145C52.2014 8.905 51.9864 8.63 51.7164 8.32C51.4464 8.01 51.1464 7.69 50.8164 7.36C50.4964 7.03 50.1664 6.715 49.8264 6.415C49.4964 6.115 49.1864 5.855 48.8964 5.635C48.5264 6.255 48.0614 6.9 47.5014 7.57C46.9514 8.23 46.2814 8.875 45.4914 9.505C45.4414 9.545 45.3714 9.58 45.2814 9.61C45.2014 9.64 45.1164 9.61 45.0264 9.52ZM54.5964 13.15C54.5564 13.15 54.5364 13.125 54.5364 13.075V2.245C54.5364 1.865 54.5214 1.515 54.4914 1.195C54.4714 0.865001 54.4364 0.650001 54.3864 0.550001C54.3664 0.500001 54.3664 0.465002 54.3864 0.445002C54.4164 0.415002 54.4514 0.400001 54.4914 0.400001C54.5514 0.400001 54.6514 0.405001 54.7914 0.415001C54.9414 0.415001 55.0864 0.420001 55.2264 0.430001C55.3664 0.430001 55.4464 0.430001 55.4664 0.430001C55.5164 0.430001 55.5414 0.470001 55.5414 0.550001C55.5114 0.920001 55.4914 1.245 55.4814 1.525C55.4814 1.795 55.4814 2.11 55.4814 2.47V12.775C55.4814 12.925 55.4714 13.015 55.4514 13.045C55.4414 13.075 55.4114 13.095 55.3614 13.105L54.5964 13.15Z" fill="black"/>
<path d="M58.396 8.485C58.286 8.495 58.211 8.485 58.171 8.455C58.131 8.425 58.101 8.38 58.081 8.32C58.041 8.21 58.006 8.1 57.976 7.99C57.946 7.88 57.911 7.74 57.871 7.57C57.861 7.55 57.866 7.525 57.886 7.495C57.906 7.455 57.941 7.44 57.991 7.45C58.371 7.5 58.891 7.54 59.551 7.57C60.211 7.59 60.936 7.595 61.726 7.585C62.336 7.585 62.986 7.58 63.676 7.57C64.366 7.55 65.051 7.53 65.731 7.51C66.421 7.48 67.071 7.45 67.681 7.42C68.301 7.39 68.846 7.355 69.316 7.315C69.796 7.275 70.166 7.23 70.426 7.18C70.526 7.16 70.591 7.165 70.621 7.195C70.651 7.225 70.671 7.265 70.681 7.315L70.771 7.975C70.781 8.115 70.686 8.18 70.486 8.17C70.176 8.15 69.756 8.14 69.226 8.14C68.706 8.14 68.141 8.145 67.531 8.155C66.991 8.155 66.436 8.165 65.866 8.185C65.306 8.195 64.776 8.205 64.276 8.215C63.786 8.225 63.361 8.235 63.001 8.245C61.991 8.275 61.081 8.31 60.271 8.35C59.461 8.39 58.836 8.435 58.396 8.485ZM61.531 5.275C61.181 5.285 60.936 5.19 60.796 4.99C60.656 4.79 60.586 4.45 60.586 3.97V2.29C60.586 2.02 60.566 1.75 60.526 1.48C60.496 1.21 60.466 1.025 60.436 0.925001C60.406 0.825001 60.441 0.775001 60.541 0.775001C60.591 0.775001 60.691 0.785001 60.841 0.805002C60.991 0.815001 61.136 0.825001 61.276 0.835001C61.416 0.845001 61.496 0.855001 61.516 0.865002C61.556 0.875002 61.576 0.915001 61.576 0.985001C61.546 1.505 61.531 2.04 61.531 2.59V3.64C61.531 4.01 61.556 4.245 61.606 4.345C61.656 4.445 61.761 4.5 61.921 4.51C62.171 4.52 62.471 4.525 62.821 4.525C63.171 4.525 63.526 4.52 63.886 4.51C64.256 4.5 64.601 4.49 64.921 4.48C65.241 4.47 65.501 4.46 65.701 4.45C66.291 4.42 66.806 4.38 67.246 4.33C67.686 4.28 68.031 4.23 68.281 4.18C68.381 4.16 68.446 4.165 68.476 4.195C68.506 4.215 68.526 4.25 68.536 4.3L68.596 4.99C68.606 5.05 68.591 5.09 68.551 5.11C68.511 5.13 68.421 5.14 68.281 5.14C67.211 5.14 66.106 5.16 64.966 5.2C63.826 5.23 62.681 5.255 61.531 5.275ZM62.131 13.75C61.781 13.75 61.516 13.615 61.336 13.345C61.156 13.075 61.066 12.735 61.066 12.325V11.365C61.066 11.015 61.046 10.725 61.006 10.495C60.976 10.265 60.946 10.1 60.916 10C60.886 9.9 60.921 9.85 61.021 9.85C61.071 9.85 61.166 9.855 61.306 9.865C61.456 9.865 61.596 9.87 61.726 9.88C61.866 9.89 61.946 9.895 61.966 9.895C62.016 9.905 62.041 9.955 62.041 10.045C62.031 10.275 62.021 10.48 62.011 10.66C62.011 10.83 62.011 11.045 62.011 11.305V12.28C62.011 12.54 62.041 12.72 62.101 12.82C62.171 12.91 62.301 12.96 62.491 12.97C62.771 12.98 63.126 12.99 63.556 13C63.986 13 64.431 12.995 64.891 12.985C65.361 12.975 65.796 12.96 66.196 12.94C66.616 12.92 67.041 12.89 67.471 12.85C67.911 12.8 68.256 12.75 68.506 12.7C68.606 12.68 68.671 12.685 68.701 12.715C68.731 12.745 68.751 12.785 68.761 12.835L68.881 13.51C68.891 13.62 68.816 13.675 68.656 13.675C67.666 13.675 66.621 13.685 65.521 13.705C64.431 13.735 63.301 13.75 62.131 13.75Z" fill="black"/>
<path d="M76.6124 9.685C76.5624 9.645 76.4924 9.595 76.4024 9.535C76.3224 9.465 76.2574 9.405 76.2074 9.355C76.1474 9.285 76.1524 9.23 76.2224 9.19C77.2224 8.48 78.0074 7.74 78.5774 6.97C79.1574 6.2 79.5724 5.45 79.8224 4.72C80.0824 3.98 80.2324 3.32 80.2724 2.74C80.0124 2.76 79.7874 2.775 79.5974 2.785C79.4074 2.795 79.2774 2.8 79.2074 2.8L77.5574 2.95C77.4574 2.96 77.3924 2.95 77.3624 2.92C77.3324 2.88 77.3074 2.835 77.2874 2.785C77.2774 2.775 77.2724 2.765 77.2724 2.755C77.2324 2.645 77.2024 2.55 77.1824 2.47C77.1724 2.38 77.1474 2.25 77.1074 2.08C77.0974 2.01 77.1374 1.975 77.2274 1.975C77.5074 1.995 77.7674 2.01 78.0074 2.02C78.2574 2.02 78.6224 2.02 79.1024 2.02C79.6424 2.02 80.1274 2.01 80.5574 1.99C80.9974 1.97 81.4024 1.945 81.7724 1.915C82.1624 1.885 82.4774 1.86 82.7174 1.84C82.9674 1.82 83.1824 1.8 83.3624 1.78C83.5524 1.75 83.7524 1.725 83.9624 1.705C83.9924 1.705 84.0274 1.71 84.0674 1.72C84.1074 1.73 84.1324 1.76 84.1424 1.81C84.1524 1.87 84.1624 1.94 84.1724 2.02C84.1924 2.1 84.2074 2.18 84.2174 2.26L84.2474 2.53C84.2674 2.64 84.2074 2.695 84.0674 2.695C83.8774 2.685 83.6624 2.68 83.4224 2.68C83.1924 2.68 82.9774 2.68 82.7774 2.68C82.6074 2.68 82.4024 2.685 82.1624 2.695C81.9324 2.695 81.6824 2.7 81.4124 2.71C81.3524 3.51 81.1124 4.37 80.6924 5.29C81.1724 5.63 81.6524 5.99 82.1324 6.37C82.6124 6.74 83.0474 7.095 83.4374 7.435C83.8274 7.765 84.1274 8.05 84.3374 8.29C84.3774 8.34 84.4074 8.4 84.4274 8.47C84.4574 8.53 84.4474 8.595 84.3974 8.665C84.3074 8.775 84.2024 8.875 84.0824 8.965C83.9724 9.045 83.8624 9.13 83.7524 9.22C83.6924 9.27 83.6424 9.26 83.6024 9.19C83.4624 8.97 83.2674 8.715 83.0174 8.425C82.7774 8.135 82.5024 7.84 82.1924 7.54C81.8924 7.23 81.5824 6.935 81.2624 6.655C80.9524 6.375 80.6574 6.13 80.3774 5.92C80.0274 6.55 79.5824 7.18 79.0424 7.81C78.5024 8.44 77.8524 9.045 77.0924 9.625C77.0824 9.635 77.0674 9.645 77.0474 9.655C76.9774 9.705 76.9124 9.74 76.8524 9.76C76.7924 9.77 76.7124 9.745 76.6124 9.685ZM85.8674 13.15C85.8274 13.15 85.8074 13.125 85.8074 13.075V2.245C85.8074 1.865 85.7924 1.515 85.7624 1.195C85.7424 0.865001 85.7074 0.650001 85.6574 0.550001C85.6374 0.500001 85.6374 0.465002 85.6574 0.445002C85.6874 0.415002 85.7224 0.400001 85.7624 0.400001C85.8224 0.400001 85.9224 0.405001 86.0624 0.415001C86.2124 0.415001 86.3574 0.420001 86.4974 0.430001C86.6374 0.430001 86.7174 0.430001 86.7374 0.430001C86.7874 0.430001 86.8124 0.470001 86.8124 0.550001C86.7824 0.920001 86.7624 1.245 86.7524 1.525C86.7524 1.795 86.7524 2.11 86.7524 2.47V12.775C86.7524 12.925 86.7424 13.015 86.7224 13.045C86.7124 13.075 86.6824 13.095 86.6324 13.105L85.8674 13.15Z" fill="black"/>
<path d="M92.577 7.03C92.007 7.04 91.482 6.93 91.002 6.7C90.532 6.47 90.152 6.145 89.862 5.725C89.582 5.295 89.442 4.8 89.442 4.24C89.442 3.7 89.582 3.215 89.862 2.785C90.152 2.345 90.532 1.995 91.002 1.735C91.482 1.475 92.012 1.34 92.592 1.33C93.162 1.3 93.682 1.395 94.152 1.615C94.632 1.835 95.017 2.16 95.307 2.59C95.597 3.01 95.742 3.52 95.742 4.12C95.742 4.67 95.597 5.165 95.307 5.605C95.017 6.035 94.632 6.375 94.152 6.625C93.672 6.875 93.147 7.01 92.577 7.03ZM92.592 6.265C93.192 6.245 93.697 6.045 94.107 5.665C94.517 5.275 94.722 4.76 94.722 4.12C94.722 3.41 94.512 2.89 94.092 2.56C93.682 2.23 93.177 2.075 92.577 2.095C91.967 2.135 91.457 2.34 91.047 2.71C90.637 3.08 90.432 3.585 90.432 4.225C90.432 4.895 90.637 5.41 91.047 5.77C91.467 6.12 91.982 6.285 92.592 6.265ZM98.772 8.185C98.732 8.185 98.712 8.16 98.712 8.11V5.89L97.722 5.935C97.482 5.945 97.217 5.96 96.927 5.98C96.637 6 96.372 6.02 96.132 6.04C96.022 6.05 95.952 6.045 95.922 6.025C95.902 5.995 95.882 5.95 95.862 5.89L95.772 5.29C95.752 5.2 95.787 5.165 95.877 5.185C96.047 5.205 96.297 5.22 96.627 5.23C96.967 5.24 97.322 5.24 97.692 5.23C98.072 5.22 98.412 5.205 98.712 5.185V2.995L97.872 3.025C97.632 3.035 97.367 3.05 97.077 3.07C96.787 3.09 96.522 3.11 96.282 3.13C96.172 3.14 96.102 3.135 96.072 3.115C96.042 3.095 96.022 3.05 96.012 2.98L95.922 2.38C95.902 2.29 95.937 2.255 96.027 2.275C96.187 2.295 96.422 2.315 96.732 2.335C97.042 2.345 97.377 2.345 97.737 2.335C98.097 2.325 98.422 2.31 98.712 2.29V2.23C98.712 1.85 98.697 1.5 98.667 1.18C98.647 0.860001 98.612 0.650001 98.562 0.550001C98.542 0.500001 98.542 0.465002 98.562 0.445002C98.592 0.415002 98.627 0.400001 98.667 0.400001C98.767 0.400001 98.912 0.400001 99.102 0.400001C99.302 0.400001 99.482 0.405001 99.642 0.415001C99.692 0.415001 99.717 0.455001 99.717 0.535002C99.687 0.905002 99.667 1.23 99.657 1.51C99.657 1.78 99.657 2.095 99.657 2.455V7.81C99.657 7.96 99.647 8.05 99.627 8.08C99.617 8.11 99.587 8.13 99.537 8.14L98.772 8.185ZM98.712 14.125C98.672 14.125 98.652 14.1 98.652 14.05V10.105C98.652 10.035 98.642 9.99 98.622 9.97C98.612 9.95 98.562 9.94 98.472 9.94C98.242 9.94 97.922 9.945 97.512 9.955C97.102 9.965 96.667 9.98 96.207 10C95.747 10.01 95.312 10.025 94.902 10.045C94.502 10.055 94.197 10.065 93.987 10.075C93.737 10.095 93.462 10.115 93.162 10.135C92.872 10.155 92.602 10.175 92.352 10.195C92.252 10.205 92.187 10.195 92.157 10.165C92.127 10.125 92.102 10.08 92.082 10.03C92.072 10.02 92.067 10.01 92.067 10L91.917 9.355C91.907 9.335 91.912 9.31 91.932 9.28C91.952 9.25 91.987 9.24 92.037 9.25C92.197 9.27 92.487 9.285 92.907 9.295C93.337 9.305 93.827 9.31 94.377 9.31C94.927 9.3 95.482 9.285 96.042 9.265C96.602 9.245 97.107 9.22 97.557 9.19C98.007 9.15 98.332 9.105 98.532 9.055C98.542 9.055 98.557 9.05 98.577 9.04C98.597 9.04 98.617 9.04 98.637 9.04C98.657 9.03 98.692 9.03 98.742 9.04L99.627 9.175C99.677 9.185 99.702 9.205 99.702 9.235C99.712 9.255 99.717 9.275 99.717 9.295C99.717 9.305 99.717 9.31 99.717 9.31C99.687 9.59 99.662 9.875 99.642 10.165C99.632 10.455 99.627 10.72 99.627 10.96L99.612 13.84C99.612 13.96 99.587 14.03 99.537 14.05C99.497 14.07 99.452 14.085 99.402 14.095L98.712 14.125Z" fill="black"/>
<path d="M106.637 8.41L106.262 8.08C106.222 8.04 106.242 7.99 106.322 7.93C106.872 7.55 107.392 7.085 107.882 6.535C108.372 5.975 108.807 5.39 109.187 4.78C109.567 4.16 109.857 3.575 110.057 3.025C110.157 2.765 110.247 2.455 110.327 2.095C110.407 1.735 110.447 1.46 110.447 1.27C110.447 1.18 110.497 1.14 110.597 1.15C110.707 1.17 110.862 1.21 111.062 1.27C111.262 1.33 111.437 1.385 111.587 1.435C111.647 1.465 111.662 1.52 111.632 1.6C111.562 1.8 111.467 2.06 111.347 2.38C111.237 2.7 111.132 2.98 111.032 3.22C110.952 3.41 110.862 3.61 110.762 3.82C110.662 4.03 110.547 4.255 110.417 4.495C110.707 4.715 111.012 4.96 111.332 5.23C111.652 5.5 111.962 5.77 112.262 6.04C112.572 6.3 112.842 6.545 113.072 6.775C113.302 6.995 113.472 7.165 113.582 7.285C113.612 7.325 113.637 7.375 113.657 7.435C113.687 7.495 113.677 7.56 113.627 7.63C113.607 7.66 113.552 7.715 113.462 7.795C113.382 7.875 113.297 7.95 113.207 8.02C113.127 8.09 113.067 8.14 113.027 8.17C112.947 8.22 112.887 8.21 112.847 8.14C112.657 7.85 112.397 7.515 112.067 7.135C111.747 6.755 111.407 6.38 111.047 6.01C110.697 5.64 110.372 5.335 110.072 5.095C109.752 5.595 109.347 6.135 108.857 6.715C108.377 7.295 107.792 7.85 107.102 8.38C107.102 8.38 107.097 8.385 107.087 8.395C107.037 8.435 106.972 8.47 106.892 8.5C106.812 8.53 106.727 8.5 106.637 8.41ZM116.162 10.225C116.122 10.225 116.102 10.2 116.102 10.15V4.6C115.922 4.61 115.747 4.62 115.577 4.63C115.407 4.64 115.247 4.65 115.097 4.66C114.857 4.67 114.582 4.695 114.272 4.735C113.962 4.765 113.687 4.795 113.447 4.825C113.337 4.845 113.262 4.84 113.222 4.81C113.182 4.78 113.152 4.735 113.132 4.675C113.092 4.545 113.057 4.425 113.027 4.315C113.007 4.195 112.987 4.085 112.967 3.985C112.967 3.905 113.007 3.875 113.087 3.895C113.247 3.915 113.497 3.93 113.837 3.94C114.187 3.94 114.567 3.935 114.977 3.925C115.387 3.905 115.762 3.885 116.102 3.865V2.23C116.102 1.85 116.087 1.5 116.057 1.18C116.037 0.860001 116.002 0.650001 115.952 0.550001C115.932 0.500001 115.932 0.465002 115.952 0.445002C115.982 0.415002 116.017 0.400001 116.057 0.400001C116.197 0.400001 116.362 0.400001 116.552 0.400001C116.742 0.400001 116.902 0.405001 117.032 0.415001C117.082 0.415001 117.107 0.455001 117.107 0.535002C117.077 0.905002 117.057 1.23 117.047 1.51C117.047 1.78 117.047 2.095 117.047 2.455V9.85C117.047 10 117.037 10.09 117.017 10.12C117.007 10.15 116.977 10.17 116.927 10.18L116.162 10.225ZM111.257 13.75C110.937 13.75 110.692 13.63 110.522 13.39C110.362 13.16 110.282 12.83 110.282 12.4V11.065C110.282 10.715 110.267 10.425 110.237 10.195C110.207 9.965 110.177 9.8 110.147 9.7C110.117 9.6 110.152 9.55 110.252 9.55C110.312 9.55 110.412 9.555 110.552 9.565C110.702 9.565 110.842 9.57 110.972 9.58C111.112 9.59 111.187 9.595 111.197 9.595C111.247 9.595 111.272 9.645 111.272 9.745C111.252 9.975 111.237 10.18 111.227 10.36C111.227 10.53 111.227 10.745 111.227 11.005V12.31C111.227 12.56 111.257 12.735 111.317 12.835C111.387 12.925 111.497 12.975 111.647 12.985C111.927 12.995 112.267 13 112.667 13C113.077 13.01 113.502 13.01 113.942 13C114.392 12.98 114.817 12.96 115.217 12.94C115.637 12.92 116.072 12.885 116.522 12.835C116.972 12.775 117.317 12.715 117.557 12.655C117.657 12.635 117.722 12.64 117.752 12.67C117.782 12.7 117.802 12.74 117.812 12.79L117.932 13.495C117.932 13.545 117.917 13.585 117.887 13.615C117.867 13.645 117.787 13.66 117.647 13.66C116.657 13.66 115.637 13.675 114.587 13.705C113.537 13.735 112.427 13.75 111.257 13.75Z" fill="black"/>
<path d="M129.42 8.35C129.38 8.35 129.36 8.325 129.36 8.275V4.87C129.07 4.87 128.77 4.875 128.46 4.885C128.15 4.885 127.865 4.89 127.605 4.9V7.84C127.605 7.99 127.595 8.08 127.575 8.11C127.565 8.14 127.535 8.16 127.485 8.17L126.765 8.2C126.725 8.2 126.705 8.175 126.705 8.125V2.305C126.705 1.515 126.66 1.005 126.57 0.775001C126.55 0.725001 126.55 0.690001 126.57 0.670002C126.6 0.640001 126.635 0.625001 126.675 0.625001L127.56 0.640001C127.61 0.640001 127.635 0.685001 127.635 0.775001C127.615 1.095 127.605 1.36 127.605 1.57C127.605 1.78 127.605 2 127.605 2.23C127.605 2.3 127.605 2.37 127.605 2.44C127.605 2.5 127.605 2.57 127.605 2.65V4.12C127.655 4.12 127.705 4.12 127.755 4.12C127.815 4.12 127.87 4.12 127.92 4.12C128.15 4.12 128.385 4.12 128.625 4.12C128.875 4.12 129.12 4.11 129.36 4.09V1.93C129.36 1.19 129.32 0.730001 129.24 0.550001C129.22 0.500001 129.22 0.465002 129.24 0.445002C129.27 0.415002 129.305 0.400001 129.345 0.400001L130.245 0.415001C130.285 0.415001 130.305 0.455001 130.305 0.535002C130.305 0.545001 130.305 0.555001 130.305 0.565001C130.295 0.835001 130.285 1.065 130.275 1.255C130.265 1.445 130.26 1.63 130.26 1.81C130.26 1.98 130.26 2.185 130.26 2.425V7.99C130.26 8.14 130.25 8.23 130.23 8.26C130.22 8.29 130.19 8.31 130.14 8.32L129.42 8.35ZM120.945 7.9C120.665 7.91 120.465 7.79 120.345 7.54C120.235 7.29 120.18 7.005 120.18 6.685V3.28C120.18 2.93 120.155 2.62 120.105 2.35C120.065 2.08 120.02 1.895 119.97 1.795C119.94 1.735 119.94 1.685 119.97 1.645C120 1.605 120.035 1.585 120.075 1.585C120.135 1.585 120.255 1.59 120.435 1.6C120.615 1.61 120.79 1.625 120.96 1.645C121.35 1.645 121.795 1.64 122.295 1.63C122.795 1.62 123.275 1.6 123.735 1.57C124.205 1.54 124.58 1.5 124.86 1.45C124.89 1.44 124.925 1.445 124.965 1.465C125.005 1.475 125.03 1.505 125.04 1.555C125.06 1.655 125.075 1.765 125.085 1.885C125.105 1.995 125.115 2.07 125.115 2.11C125.135 2.22 125.075 2.275 124.935 2.275L123.195 2.305C122.835 2.315 122.495 2.325 122.175 2.335C121.865 2.345 121.505 2.36 121.095 2.38V4.165C122.145 4.165 122.95 4.14 123.51 4.09C124.07 4.04 124.455 3.995 124.665 3.955C124.825 3.925 124.91 3.97 124.92 4.09L124.965 4.57C124.975 4.69 124.895 4.75 124.725 4.75C124.625 4.75 124.44 4.755 124.17 4.765C123.91 4.765 123.6 4.77 123.24 4.78C122.88 4.79 122.51 4.805 122.13 4.825C121.76 4.835 121.415 4.845 121.095 4.855V6.52C121.095 6.73 121.12 6.875 121.17 6.955C121.22 7.025 121.31 7.06 121.44 7.06C121.81 7.06 122.22 7.035 122.67 6.985C123.12 6.935 123.565 6.875 124.005 6.805C124.445 6.725 124.84 6.645 125.19 6.565C125.54 6.475 125.795 6.39 125.955 6.31C126.035 6.27 126.085 6.295 126.105 6.385L126.18 6.82C126.2 6.95 126.15 7.035 126.03 7.075C125.89 7.125 125.645 7.195 125.295 7.285C124.955 7.365 124.545 7.455 124.065 7.555C123.595 7.645 123.09 7.725 122.55 7.795C122.01 7.855 121.475 7.89 120.945 7.9ZM129.3 14.125C129.26 14.125 129.24 14.1 129.24 14.05V10.195C129.24 10.125 129.23 10.08 129.21 10.06C129.2 10.04 129.15 10.03 129.06 10.03C128.83 10.03 128.505 10.035 128.085 10.045C127.665 10.055 127.21 10.07 126.72 10.09C126.24 10.1 125.79 10.115 125.37 10.135C124.96 10.145 124.65 10.155 124.44 10.165C124.19 10.185 123.905 10.205 123.585 10.225C123.275 10.245 122.995 10.265 122.745 10.285C122.645 10.295 122.58 10.285 122.55 10.255C122.52 10.215 122.495 10.17 122.475 10.12C122.465 10.11 122.46 10.1 122.46 10.09L122.31 9.445C122.3 9.425 122.305 9.4 122.325 9.37C122.345 9.34 122.38 9.33 122.43 9.34C122.57 9.36 122.805 9.375 123.135 9.385C123.465 9.395 123.85 9.4 124.29 9.4C124.74 9.4 125.21 9.395 125.7 9.385C126.19 9.365 126.66 9.345 127.11 9.325C127.57 9.305 127.975 9.28 128.325 9.25C128.685 9.22 128.95 9.185 129.12 9.145C129.13 9.145 129.145 9.14 129.165 9.13C129.185 9.13 129.205 9.13 129.225 9.13C129.245 9.12 129.28 9.12 129.33 9.13L130.215 9.265C130.265 9.275 130.29 9.295 130.29 9.325C130.3 9.345 130.305 9.365 130.305 9.385C130.305 9.395 130.305 9.4 130.305 9.4C130.275 9.68 130.25 9.965 130.23 10.255C130.22 10.545 130.215 10.81 130.215 11.05L130.2 13.84C130.2 13.96 130.175 14.03 130.125 14.05C130.085 14.07 130.04 14.085 129.99 14.095L129.3 14.125Z" fill="black"/>
<path d="M143.432 7.765C142.832 7.765 142.327 7.66 141.917 7.45C141.507 7.24 141.192 6.975 140.972 6.655C140.762 6.325 140.657 5.995 140.657 5.665C140.677 5.085 140.907 4.595 141.347 4.195C141.797 3.785 142.517 3.56 143.507 3.52C144.367 3.5 145.057 3.68 145.577 4.06C146.097 4.43 146.347 4.95 146.327 5.62C146.317 5.96 146.197 6.295 145.967 6.625C145.747 6.955 145.422 7.23 144.992 7.45C144.572 7.66 144.052 7.765 143.432 7.765ZM143.147 13.525C143.107 13.525 143.087 13.5 143.087 13.45V9.505C141.887 9.525 140.797 9.56 139.817 9.61C138.837 9.65 138.067 9.695 137.507 9.745C137.397 9.755 137.322 9.745 137.282 9.715C137.242 9.685 137.212 9.64 137.192 9.58C137.152 9.47 137.117 9.36 137.087 9.25C137.057 9.13 137.022 8.985 136.982 8.815C136.972 8.795 136.977 8.77 136.997 8.74C137.017 8.7 137.052 8.685 137.102 8.695C137.482 8.745 137.997 8.78 138.647 8.8C139.307 8.81 140.032 8.815 140.822 8.815C141.672 8.815 142.567 8.81 143.507 8.8C144.447 8.78 145.342 8.75 146.192 8.71C146.902 8.68 147.537 8.64 148.097 8.59C148.657 8.54 149.087 8.49 149.387 8.44C149.487 8.42 149.552 8.425 149.582 8.455C149.612 8.485 149.632 8.525 149.642 8.575L149.732 9.295C149.732 9.345 149.717 9.39 149.687 9.43C149.657 9.47 149.577 9.49 149.447 9.49C149.107 9.48 148.707 9.475 148.247 9.475C147.797 9.465 147.317 9.46 146.807 9.46C146.337 9.46 145.872 9.465 145.412 9.475C144.952 9.475 144.497 9.48 144.047 9.49V13.15C144.047 13.3 144.037 13.39 144.017 13.42C144.007 13.45 143.977 13.47 143.927 13.48C143.887 13.48 143.812 13.48 143.702 13.48C143.592 13.49 143.482 13.5 143.372 13.51C143.262 13.52 143.187 13.525 143.147 13.525ZM143.432 7C144.062 6.98 144.537 6.835 144.857 6.565C145.187 6.295 145.362 5.97 145.382 5.59C145.402 5.36 145.362 5.14 145.262 4.93C145.162 4.71 144.972 4.53 144.692 4.39C144.422 4.24 144.027 4.165 143.507 4.165C143.027 4.165 142.642 4.235 142.352 4.375C142.062 4.515 141.852 4.695 141.722 4.915C141.592 5.135 141.527 5.365 141.527 5.605C141.527 5.975 141.692 6.3 142.022 6.58C142.362 6.86 142.832 7 143.432 7ZM139.187 3.205C139.077 3.225 139.007 3.215 138.977 3.175C138.947 3.135 138.917 3.085 138.887 3.025C138.887 3.015 138.887 3.01 138.887 3.01L138.677 2.335C138.667 2.315 138.672 2.29 138.692 2.26C138.712 2.22 138.747 2.205 138.797 2.215C139.077 2.255 139.497 2.285 140.057 2.305C140.617 2.315 141.252 2.32 141.962 2.32C142.672 2.32 143.397 2.305 144.137 2.275C144.877 2.245 145.577 2.205 146.237 2.155C146.897 2.095 147.447 2.025 147.887 1.945C147.917 1.935 147.952 1.94 147.992 1.96C148.032 1.97 148.057 2 148.067 2.05L148.157 2.77C148.177 2.88 148.117 2.935 147.977 2.935C147.857 2.935 147.677 2.935 147.437 2.935C147.207 2.925 146.952 2.92 146.672 2.92C146.402 2.92 146.152 2.92 145.922 2.92C145.702 2.91 145.542 2.905 145.442 2.905C145.052 2.905 144.612 2.91 144.122 2.92C143.632 2.93 143.172 2.945 142.742 2.965C142.312 2.975 141.982 2.99 141.752 3.01L139.187 3.205ZM142.967 1.27C142.797 1.25 142.582 1.225 142.322 1.195C142.072 1.165 141.827 1.12 141.587 1.06C141.357 0.990001 141.172 0.910001 141.032 0.820001C141.002 0.790001 140.992 0.730001 141.002 0.640001C141.012 0.540001 141.037 0.450001 141.077 0.370001C141.117 0.280002 141.162 0.245002 141.212 0.265001C141.682 0.355001 142.192 0.410001 142.742 0.430001C143.302 0.440002 143.832 0.430002 144.332 0.400001C144.842 0.370001 145.257 0.345001 145.577 0.325002C145.657 0.315002 145.707 0.320002 145.727 0.340001C145.747 0.350001 145.762 0.380001 145.772 0.430001C145.772 0.440002 145.772 0.465002 145.772 0.505001C145.772 0.605002 145.767 0.725002 145.757 0.865002C145.757 1.005 145.727 1.085 145.667 1.105C145.627 1.125 145.507 1.15 145.307 1.18C145.117 1.2 144.882 1.22 144.602 1.24C144.332 1.26 144.052 1.275 143.762 1.285C143.472 1.295 143.207 1.29 142.967 1.27Z" fill="black"/>
<path d="M159.435 13.9C159.125 13.89 158.885 13.795 158.715 13.615C158.555 13.445 158.475 13.145 158.475 12.715V12.16C158.475 11.85 158.42 11.545 158.31 11.245C158.29 11.215 158.295 11.175 158.325 11.125C158.355 11.075 158.405 11.055 158.475 11.065C158.585 11.075 158.82 11.085 159.18 11.095C159.55 11.105 159.985 11.11 160.485 11.11C160.985 11.11 161.495 11.105 162.015 11.095C162.545 11.085 163.03 11.07 163.47 11.05C163.92 11.03 164.265 11.005 164.505 10.975L164.535 9.91C164.535 9.8 164.485 9.745 164.385 9.745C164.165 9.745 163.86 9.75 163.47 9.76C163.08 9.77 162.665 9.78 162.225 9.79C161.785 9.8 161.365 9.815 160.965 9.835C160.565 9.845 160.24 9.855 159.99 9.865L158.655 9.925C158.565 9.935 158.5 9.93 158.46 9.91C158.42 9.88 158.39 9.82 158.37 9.73L158.265 9.205C158.255 9.185 158.26 9.16 158.28 9.13C158.3 9.1 158.335 9.09 158.385 9.1C158.615 9.12 159.015 9.135 159.585 9.145C160.155 9.155 160.775 9.155 161.445 9.145C161.435 9.065 161.43 8.985 161.43 8.905C161.43 8.815 161.43 8.735 161.43 8.665L161.415 7.54C161.245 7.55 161.08 7.555 160.92 7.555C160.76 7.555 160.61 7.56 160.47 7.57C159.46 7.6 158.55 7.635 157.74 7.675C156.93 7.715 156.305 7.76 155.865 7.81C155.755 7.82 155.68 7.81 155.64 7.78C155.6 7.75 155.57 7.705 155.55 7.645C155.51 7.535 155.475 7.425 155.445 7.315C155.415 7.205 155.38 7.065 155.34 6.895C155.33 6.875 155.335 6.85 155.355 6.82C155.375 6.78 155.41 6.765 155.46 6.775C155.84 6.825 156.36 6.865 157.02 6.895C157.68 6.915 158.405 6.92 159.195 6.91C159.805 6.91 160.455 6.905 161.145 6.895C161.835 6.875 162.52 6.855 163.2 6.835C163.89 6.805 164.54 6.775 165.15 6.745C165.77 6.715 166.315 6.68 166.785 6.64C167.265 6.6 167.635 6.555 167.895 6.505C167.995 6.485 168.06 6.49 168.09 6.52C168.12 6.55 168.14 6.59 168.15 6.64L168.24 7.3C168.25 7.44 168.155 7.505 167.955 7.495C167.645 7.475 167.225 7.465 166.695 7.465C166.175 7.465 165.61 7.47 165 7.48L162.375 7.525V8.515C162.375 8.635 162.37 8.745 162.36 8.845C162.36 8.945 162.355 9.04 162.345 9.13C163.185 9.1 163.905 9.045 164.505 8.965C164.525 8.965 164.545 8.96 164.565 8.95C164.635 8.94 164.69 8.94 164.73 8.95L165.495 9.055C165.555 9.065 165.585 9.11 165.585 9.19C165.535 9.63 165.495 10.025 165.465 10.375C165.445 10.725 165.42 11.09 165.39 11.47C165.38 11.57 165.36 11.635 165.33 11.665C165.3 11.695 165.24 11.71 165.15 11.71C164.81 11.71 164.39 11.715 163.89 11.725C163.4 11.725 162.88 11.73 162.33 11.74C161.78 11.74 161.25 11.745 160.74 11.755C160.23 11.765 159.79 11.78 159.42 11.8V12.67C159.42 12.9 159.435 13.03 159.465 13.06C159.495 13.1 159.595 13.125 159.765 13.135C160.415 13.155 161.095 13.16 161.805 13.15C162.515 13.14 163.195 13.115 163.845 13.075C164.265 13.055 164.645 13.025 164.985 12.985C165.325 12.945 165.62 12.895 165.87 12.835C165.97 12.815 166.035 12.82 166.065 12.85C166.095 12.88 166.115 12.92 166.125 12.97L166.215 13.63C166.215 13.68 166.195 13.725 166.155 13.765C166.125 13.805 166.04 13.825 165.9 13.825C164.84 13.825 163.745 13.83 162.615 13.84C161.485 13.86 160.425 13.88 159.435 13.9ZM157.935 6.07C157.935 6.07 157.93 6.07 157.92 6.07C157.85 6.09 157.77 6.1 157.68 6.1C157.59 6.1 157.515 6.045 157.455 5.935L157.23 5.5C157.2 5.45 157.195 5.42 157.215 5.41C157.245 5.39 157.275 5.375 157.305 5.365C157.315 5.365 157.32 5.365 157.32 5.365C157.91 5.255 158.485 5.08 159.045 4.84C159.605 4.59 160.1 4.29 160.53 3.94C160.97 3.58 161.285 3.18 161.475 2.74L160.335 2.8C160.175 2.81 159.945 2.825 159.645 2.845C159.355 2.865 159.06 2.885 158.76 2.905C158.46 2.925 158.225 2.945 158.055 2.965C157.955 2.985 157.89 2.98 157.86 2.95C157.83 2.91 157.805 2.86 157.785 2.8C157.775 2.79 157.77 2.78 157.77 2.77C157.73 2.66 157.7 2.565 157.68 2.485C157.66 2.405 157.63 2.285 157.59 2.125C157.58 2.105 157.585 2.08 157.605 2.05C157.625 2.02 157.66 2.01 157.71 2.02C157.99 2.04 158.37 2.055 158.85 2.065C159.33 2.075 159.865 2.075 160.455 2.065C161.055 2.045 161.67 2.02 162.3 1.99C162.93 1.96 163.535 1.92 164.115 1.87C164.695 1.82 165.205 1.76 165.645 1.69C165.675 1.68 165.71 1.68 165.75 1.69C165.79 1.7 165.815 1.73 165.825 1.78C165.845 1.85 165.86 1.93 165.87 2.02C165.88 2.1 165.9 2.265 165.93 2.515C165.95 2.625 165.89 2.68 165.75 2.68L163.89 2.665C163.73 2.665 163.535 2.67 163.305 2.68C163.075 2.68 162.83 2.685 162.57 2.695C162.47 2.995 162.31 3.295 162.09 3.595C162.85 3.745 163.575 3.92 164.265 4.12C164.955 4.32 165.53 4.52 165.99 4.72C166.05 4.74 166.105 4.775 166.155 4.825C166.215 4.865 166.23 4.925 166.2 5.005C166.17 5.095 166.125 5.205 166.065 5.335C166.015 5.465 165.95 5.59 165.87 5.71C165.83 5.78 165.78 5.79 165.72 5.74C165.51 5.59 165.235 5.435 164.895 5.275C164.565 5.115 164.205 4.96 163.815 4.81C163.425 4.66 163.035 4.525 162.645 4.405C162.265 4.285 161.925 4.195 161.625 4.135C161.165 4.595 160.61 4.99 159.96 5.32C159.31 5.65 158.635 5.9 157.935 6.07ZM161.355 1.015C161.215 0.995001 161.015 0.970001 160.755 0.940002C160.505 0.910001 160.255 0.865001 160.005 0.805002C159.765 0.745001 159.575 0.670001 159.435 0.580001C159.405 0.550001 159.395 0.490001 159.405 0.400001C159.415 0.300002 159.44 0.210002 159.48 0.130001C159.52 0.0400013 159.565 0.00500118 159.615 0.0250009C160.485 0.145001 161.3 0.200001 162.06 0.190001C162.82 0.170001 163.445 0.140001 163.935 0.100002C164.015 0.0900013 164.065 0.0950012 164.085 0.115002C164.105 0.125001 164.12 0.155001 164.13 0.205001C164.13 0.215001 164.13 0.240001 164.13 0.280001C164.13 0.380001 164.125 0.500001 164.115 0.640001C164.115 0.780001 164.085 0.860001 164.025 0.880002C163.965 0.900001 163.78 0.930001 163.47 0.970001C163.16 1 162.81 1.02 162.42 1.03C162.03 1.04 161.675 1.035 161.355 1.015Z" fill="black"/>
<path d="M169.619 8.485L169.244 8.155C169.204 8.115 169.219 8.07 169.289 8.02C169.299 8.01 169.304 8.005 169.304 8.005C169.864 7.635 170.389 7.17 170.879 6.61C171.379 6.04 171.824 5.445 172.214 4.825C172.604 4.205 172.909 3.625 173.129 3.085C173.199 2.915 173.259 2.72 173.309 2.5C173.369 2.27 173.414 2.05 173.444 1.84C173.484 1.63 173.504 1.46 173.504 1.33C173.504 1.24 173.554 1.2 173.654 1.21C173.764 1.23 173.919 1.27 174.119 1.33C174.319 1.39 174.494 1.445 174.644 1.495C174.704 1.525 174.719 1.58 174.689 1.66C174.619 1.86 174.524 2.12 174.404 2.44C174.284 2.76 174.174 3.04 174.074 3.28C174.004 3.44 173.924 3.61 173.834 3.79C173.754 3.97 173.659 4.16 173.549 4.36C173.849 4.59 174.179 4.845 174.539 5.125C174.909 5.395 175.269 5.665 175.619 5.935C175.969 6.205 176.279 6.45 176.549 6.67C176.819 6.89 177.014 7.06 177.134 7.18C177.174 7.21 177.204 7.26 177.224 7.33C177.254 7.39 177.244 7.455 177.194 7.525C177.154 7.585 177.059 7.68 176.909 7.81C176.769 7.94 176.669 8.035 176.609 8.095C176.529 8.145 176.469 8.135 176.429 8.065C176.279 7.855 176.069 7.61 175.799 7.33C175.539 7.05 175.254 6.76 174.944 6.46C174.644 6.16 174.339 5.88 174.029 5.62C173.719 5.36 173.444 5.145 173.204 4.975C172.874 5.525 172.454 6.105 171.944 6.715C171.444 7.315 170.824 7.895 170.084 8.455C170.034 8.495 169.969 8.53 169.889 8.56C169.809 8.59 169.719 8.565 169.619 8.485ZM178.694 10.225C178.654 10.225 178.634 10.2 178.634 10.15V2.23C178.634 1.85 178.619 1.5 178.589 1.18C178.569 0.860001 178.534 0.650001 178.484 0.550001C178.464 0.500001 178.464 0.465002 178.484 0.445002C178.514 0.415002 178.549 0.400001 178.589 0.400001C178.729 0.400001 178.894 0.400001 179.084 0.400001C179.274 0.400001 179.434 0.405001 179.564 0.415001C179.614 0.415001 179.639 0.455001 179.639 0.535002C179.609 0.905002 179.589 1.23 179.579 1.51C179.579 1.78 179.579 2.095 179.579 2.455V4.72C179.859 4.72 180.159 4.71 180.479 4.69C180.799 4.67 181.094 4.645 181.364 4.615C181.644 4.585 181.849 4.55 181.979 4.51C182.069 4.5 182.119 4.53 182.129 4.6C182.149 4.73 182.159 4.86 182.159 4.99C182.169 5.12 182.179 5.25 182.189 5.38C182.189 5.49 182.144 5.545 182.054 5.545C181.914 5.525 181.699 5.515 181.409 5.515C181.129 5.505 180.824 5.5 180.494 5.5C180.164 5.5 179.859 5.51 179.579 5.53V9.85C179.579 10 179.569 10.09 179.549 10.12C179.539 10.15 179.509 10.17 179.459 10.18L178.694 10.225ZM173.864 13.75C173.544 13.75 173.299 13.63 173.129 13.39C172.969 13.16 172.889 12.83 172.889 12.4V11.065C172.889 10.715 172.874 10.425 172.844 10.195C172.814 9.965 172.784 9.8 172.754 9.7C172.724 9.6 172.759 9.55 172.859 9.55C172.919 9.55 173.019 9.555 173.159 9.565C173.309 9.565 173.449 9.57 173.579 9.58C173.719 9.59 173.794 9.595 173.804 9.595C173.854 9.595 173.879 9.645 173.879 9.745C173.859 9.975 173.844 10.18 173.834 10.36C173.834 10.53 173.834 10.745 173.834 11.005V12.31C173.834 12.56 173.864 12.735 173.924 12.835C173.994 12.925 174.104 12.975 174.254 12.985C174.534 12.995 174.874 13 175.274 13C175.684 13.01 176.109 13.01 176.549 13C176.999 12.98 177.424 12.96 177.824 12.94C178.244 12.92 178.679 12.885 179.129 12.835C179.579 12.775 179.924 12.715 180.164 12.655C180.264 12.635 180.329 12.64 180.359 12.67C180.389 12.7 180.409 12.74 180.419 12.79L180.539 13.495C180.539 13.545 180.524 13.585 180.494 13.615C180.474 13.645 180.394 13.66 180.254 13.66C179.264 13.66 178.244 13.675 177.194 13.705C176.144 13.735 175.034 13.75 173.864 13.75Z" fill="black"/>
<path d="M194.405 14.275C193.775 14.275 193.215 14.16 192.725 13.93C192.245 13.71 191.865 13.405 191.585 13.015C191.315 12.625 191.18 12.175 191.18 11.665C191.18 11.175 191.33 10.73 191.63 10.33C191.93 9.93 192.33 9.615 192.83 9.385C193.33 9.145 193.875 9.025 194.465 9.025C195.065 9.025 195.61 9.125 196.1 9.325C196.6 9.515 196.995 9.805 197.285 10.195C197.585 10.575 197.725 11.045 197.705 11.605C197.695 12.125 197.54 12.585 197.24 12.985C196.95 13.385 196.555 13.7 196.055 13.93C195.565 14.16 195.015 14.275 194.405 14.275ZM187.76 8.455L187.385 8.125C187.345 8.085 187.36 8.04 187.43 7.99C187.44 7.98 187.445 7.975 187.445 7.975C188.205 7.495 188.85 6.94 189.38 6.31C189.91 5.68 190.315 5.03 190.595 4.36C190.885 3.68 191.04 3.045 191.06 2.455L189.905 2.545C189.655 2.565 189.43 2.59 189.23 2.62C189.03 2.65 188.805 2.675 188.555 2.695C188.455 2.705 188.39 2.695 188.36 2.665C188.33 2.625 188.305 2.58 188.285 2.53C188.275 2.52 188.27 2.51 188.27 2.5C188.23 2.39 188.2 2.305 188.18 2.245C188.17 2.175 188.145 2.055 188.105 1.885C188.095 1.865 188.1 1.84 188.12 1.81C188.14 1.78 188.175 1.765 188.225 1.765C188.505 1.785 188.78 1.8 189.05 1.81C189.33 1.81 189.645 1.805 189.995 1.795C190.355 1.785 190.66 1.775 190.91 1.765C191.17 1.755 191.42 1.745 191.66 1.735C191.9 1.715 192.175 1.695 192.485 1.675C192.935 1.645 193.335 1.61 193.685 1.57C194.045 1.52 194.33 1.48 194.54 1.45C194.57 1.44 194.605 1.445 194.645 1.465C194.685 1.475 194.71 1.505 194.72 1.555C194.73 1.615 194.74 1.685 194.75 1.765C194.77 1.835 194.785 1.91 194.795 1.99L194.825 2.245C194.845 2.355 194.785 2.41 194.645 2.41H194.63C194.32 2.4 194.015 2.395 193.715 2.395C193.415 2.385 193.115 2.385 192.815 2.395C192.715 2.395 192.61 2.4 192.5 2.41C192.39 2.41 192.27 2.41 192.14 2.41C192.12 2.7 192.055 3.035 191.945 3.415C191.845 3.795 191.69 4.205 191.48 4.645C191.78 4.825 192.1 5.03 192.44 5.26C192.79 5.49 193.13 5.72 193.46 5.95C193.79 6.17 194.08 6.375 194.33 6.565C194.59 6.755 194.775 6.9 194.885 7C194.925 7.03 194.96 7.08 194.99 7.15C195.02 7.21 195.01 7.275 194.96 7.345C194.91 7.395 194.82 7.495 194.69 7.645C194.57 7.785 194.475 7.885 194.405 7.945C194.325 7.995 194.265 7.985 194.225 7.915C194.025 7.655 193.745 7.36 193.385 7.03C193.035 6.7 192.66 6.375 192.26 6.055C191.86 5.735 191.495 5.465 191.165 5.245C190.865 5.785 190.475 6.325 189.995 6.865C189.525 7.405 188.935 7.93 188.225 8.44C188.175 8.48 188.11 8.515 188.03 8.545C187.95 8.565 187.86 8.535 187.76 8.455ZM194.435 13.495C195.065 13.475 195.595 13.305 196.025 12.985C196.465 12.665 196.695 12.2 196.715 11.59C196.735 11.19 196.64 10.855 196.43 10.585C196.23 10.315 195.955 10.11 195.605 9.97C195.265 9.82 194.88 9.745 194.45 9.745C194.03 9.755 193.645 9.845 193.295 10.015C192.945 10.175 192.665 10.395 192.455 10.675C192.245 10.955 192.14 11.28 192.14 11.65C192.14 12.03 192.24 12.36 192.44 12.64C192.65 12.91 192.93 13.12 193.28 13.27C193.63 13.42 194.015 13.495 194.435 13.495ZM196.685 8.815C196.645 8.815 196.625 8.79 196.625 8.74V2.23C196.625 1.85 196.61 1.5 196.58 1.18C196.56 0.860001 196.525 0.650001 196.475 0.550001C196.455 0.500001 196.455 0.465002 196.475 0.445002C196.505 0.415002 196.54 0.400001 196.58 0.400001C196.69 0.400001 196.84 0.400001 197.03 0.400001C197.22 0.400001 197.395 0.405001 197.555 0.415001C197.605 0.415001 197.63 0.455001 197.63 0.535002C197.6 0.905002 197.58 1.23 197.57 1.51C197.57 1.78 197.57 2.095 197.57 2.455V4.42C197.84 4.42 198.135 4.41 198.455 4.39C198.775 4.37 199.07 4.345 199.34 4.315C199.62 4.285 199.83 4.25 199.97 4.21C200.06 4.2 200.11 4.23 200.12 4.3C200.14 4.43 200.15 4.56 200.15 4.69C200.16 4.82 200.17 4.95 200.18 5.08C200.18 5.19 200.135 5.245 200.045 5.245C199.905 5.225 199.69 5.215 199.4 5.215C199.11 5.205 198.8 5.2 198.47 5.2C198.15 5.2 197.85 5.21 197.57 5.23V8.44C197.57 8.59 197.56 8.68 197.54 8.71C197.53 8.74 197.5 8.76 197.45 8.77L196.685 8.815Z" fill="black"/>
<path d="M202.668 9.925C202.448 9.915 202.278 9.805 202.158 9.595C202.038 9.385 201.978 9.12 201.978 8.8V6.625C201.978 6.425 201.973 6.21 201.963 5.98C201.953 5.75 201.913 5.535 201.843 5.335C201.793 5.215 201.838 5.165 201.978 5.185C202.098 5.195 202.303 5.2 202.593 5.2C202.883 5.2 203.208 5.195 203.568 5.185C203.938 5.175 204.298 5.16 204.648 5.14C204.998 5.12 205.298 5.1 205.548 5.08C205.798 5.06 205.943 5.04 205.983 5.02C206.013 4.8 206.043 4.54 206.073 4.24C206.103 3.93 206.133 3.625 206.163 3.325C206.203 3.015 206.228 2.755 206.238 2.545C206.238 2.485 206.213 2.455 206.163 2.455C205.733 2.455 205.353 2.47 205.023 2.5C204.693 2.52 204.318 2.54 203.898 2.56C203.658 2.58 203.398 2.6 203.118 2.62C202.838 2.64 202.578 2.66 202.338 2.68C202.228 2.69 202.158 2.685 202.128 2.665C202.108 2.635 202.088 2.59 202.068 2.53L201.903 1.93C201.893 1.91 201.898 1.89 201.918 1.87C201.938 1.84 201.963 1.83 201.993 1.84C202.063 1.85 202.228 1.855 202.488 1.855C202.748 1.855 203.053 1.85 203.403 1.84C203.763 1.83 204.133 1.815 204.513 1.795C204.903 1.765 205.258 1.74 205.578 1.72C205.898 1.69 206.148 1.655 206.328 1.615C206.378 1.595 206.418 1.59 206.448 1.6C206.478 1.6 206.503 1.6 206.523 1.6C206.543 1.61 206.558 1.615 206.568 1.615L207.273 1.795C207.353 1.815 207.383 1.85 207.363 1.9C207.353 1.98 207.333 2.105 207.303 2.275C207.273 2.435 207.243 2.6 207.213 2.77C207.183 2.94 207.158 3.08 207.138 3.19L206.793 5.68C206.783 5.77 206.733 5.815 206.643 5.815C206.503 5.815 206.263 5.825 205.923 5.845C205.583 5.855 205.208 5.87 204.798 5.89C204.398 5.91 204.023 5.93 203.673 5.95C203.333 5.97 203.083 5.985 202.923 5.995V8.695C202.923 8.795 202.938 8.865 202.968 8.905C203.008 8.935 203.053 8.955 203.103 8.965C203.413 8.995 203.783 9.005 204.213 8.995C204.653 8.975 205.113 8.935 205.593 8.875C206.083 8.815 206.568 8.735 207.048 8.635C207.528 8.535 207.973 8.415 208.383 8.275C208.493 8.245 208.548 8.255 208.548 8.305L208.578 8.5L208.623 8.83C208.623 8.88 208.613 8.925 208.593 8.965C208.583 9.005 208.543 9.035 208.473 9.055C208.043 9.195 207.508 9.33 206.868 9.46C206.228 9.59 205.543 9.695 204.813 9.775C204.083 9.855 203.368 9.905 202.668 9.925ZM210.633 13.15C210.593 13.15 210.573 13.125 210.573 13.075V7.105L209.478 7.165C209.238 7.175 208.983 7.195 208.713 7.225C208.443 7.245 208.188 7.27 207.948 7.3C207.838 7.32 207.763 7.315 207.723 7.285C207.683 7.255 207.653 7.21 207.633 7.15C207.593 7.02 207.563 6.9 207.543 6.79C207.523 6.67 207.503 6.565 207.483 6.475C207.483 6.395 207.523 6.365 207.603 6.385C207.763 6.405 208.018 6.42 208.368 6.43C208.718 6.44 209.093 6.44 209.493 6.43C209.893 6.41 210.253 6.39 210.573 6.37V4.015L209.703 4.075C209.463 4.085 209.208 4.105 208.938 4.135C208.668 4.155 208.413 4.18 208.173 4.21C208.063 4.23 207.988 4.225 207.948 4.195C207.908 4.165 207.878 4.12 207.858 4.06C207.818 3.93 207.788 3.81 207.768 3.7C207.748 3.59 207.728 3.49 207.708 3.4C207.708 3.32 207.748 3.29 207.828 3.31C207.998 3.33 208.243 3.345 208.563 3.355C208.883 3.355 209.223 3.35 209.583 3.34C209.953 3.32 210.283 3.3 210.573 3.28V2.245C210.573 1.865 210.558 1.515 210.528 1.195C210.508 0.865001 210.473 0.650001 210.423 0.550001C210.403 0.500001 210.403 0.465002 210.423 0.445002C210.453 0.415002 210.488 0.400001 210.528 0.400001C210.588 0.400001 210.688 0.405001 210.828 0.415001C210.978 0.415001 211.123 0.420001 211.263 0.430001C211.403 0.430001 211.483 0.430001 211.503 0.430001C211.553 0.430001 211.578 0.470001 211.578 0.550001C211.548 0.920001 211.528 1.245 211.518 1.525C211.518 1.795 211.518 2.11 211.518 2.47V12.775C211.518 12.925 211.508 13.015 211.488 13.045C211.478 13.075 211.448 13.095 211.398 13.105L210.633 13.15Z" fill="black"/>
<path d="M217.027 13.9C217.007 13.9 216.982 13.895 216.952 13.885C216.922 13.875 216.907 13.845 216.907 13.795C216.907 13.775 216.907 13.725 216.907 13.645C216.907 13.455 216.907 13.12 216.907 12.64C216.917 12.16 216.907 11.51 216.877 10.69C216.867 10.43 216.837 10.16 216.787 9.88C216.737 9.6 216.687 9.425 216.637 9.355C216.597 9.295 216.587 9.245 216.607 9.205C216.637 9.165 216.687 9.145 216.757 9.145L217.717 9.19C217.967 9.2 218.282 9.205 218.662 9.205C219.042 9.205 219.442 9.2 219.862 9.19C220.292 9.18 220.707 9.17 221.107 9.16C221.517 9.14 221.882 9.12 222.202 9.1C222.522 9.08 222.762 9.06 222.922 9.04C222.942 9.04 222.962 9.035 222.982 9.025C223.052 9.015 223.112 9.015 223.162 9.025L223.942 9.13C224.022 9.14 224.052 9.2 224.032 9.31C224.022 9.44 224.007 9.61 223.987 9.82C223.977 10.02 223.967 10.22 223.957 10.42C223.947 10.61 223.942 10.755 223.942 10.855L223.897 13.63C223.897 13.77 223.822 13.84 223.672 13.84C223.382 13.83 223.017 13.825 222.577 13.825C222.147 13.825 221.682 13.825 221.182 13.825C220.692 13.825 220.207 13.825 219.727 13.825C219.257 13.825 218.842 13.825 218.482 13.825C218.122 13.835 217.862 13.845 217.702 13.855L217.027 13.9ZM217.792 13.03C217.932 13.04 218.177 13.045 218.527 13.045C218.877 13.055 219.272 13.055 219.712 13.045C220.162 13.045 220.607 13.04 221.047 13.03C221.497 13.02 221.897 13.01 222.247 13C222.597 12.99 222.847 12.975 222.997 12.955L223.027 9.97C223.027 9.9 223.017 9.86 222.997 9.85C222.977 9.83 222.942 9.82 222.892 9.82L217.792 9.91V13.03ZM214.282 7.21C214.172 7.22 214.097 7.21 214.057 7.18C214.017 7.15 213.987 7.105 213.967 7.045C213.927 6.935 213.892 6.825 213.862 6.715C213.832 6.605 213.797 6.465 213.757 6.295C213.747 6.275 213.752 6.25 213.772 6.22C213.792 6.18 213.827 6.165 213.877 6.175C214.257 6.225 214.777 6.265 215.437 6.295C216.097 6.315 216.822 6.32 217.612 6.31C218.222 6.31 218.872 6.305 219.562 6.295C220.252 6.275 220.937 6.255 221.617 6.235C222.307 6.205 222.957 6.175 223.567 6.145C224.187 6.115 224.732 6.08 225.202 6.04C225.682 6 226.052 5.955 226.312 5.905C226.412 5.885 226.477 5.89 226.507 5.92C226.537 5.95 226.557 5.99 226.567 6.04L226.657 6.7C226.667 6.84 226.572 6.905 226.372 6.895C226.062 6.875 225.642 6.865 225.112 6.865C224.592 6.865 224.027 6.87 223.417 6.88C222.877 6.88 222.322 6.89 221.752 6.91C221.192 6.92 220.662 6.93 220.162 6.94C219.672 6.95 219.247 6.96 218.887 6.97C217.877 7 216.967 7.035 216.157 7.075C215.347 7.115 214.722 7.16 214.282 7.21ZM222.517 5.425C222.427 5.425 222.397 5.375 222.427 5.275C222.487 5.095 222.552 4.85 222.622 4.54C222.702 4.22 222.772 3.88 222.832 3.52C222.902 3.16 222.962 2.82 223.012 2.5C223.062 2.18 223.092 1.93 223.102 1.75C223.112 1.64 223.062 1.585 222.952 1.585C222.732 1.585 222.432 1.59 222.052 1.6C221.682 1.61 221.282 1.62 220.852 1.63C220.432 1.64 220.032 1.65 219.652 1.66C219.282 1.67 218.992 1.68 218.782 1.69C218.622 1.69 218.417 1.7 218.167 1.72C217.917 1.74 217.667 1.76 217.417 1.78C217.167 1.8 216.962 1.82 216.802 1.84C216.692 1.85 216.622 1.845 216.592 1.825C216.562 1.795 216.532 1.74 216.502 1.66C216.502 1.65 216.502 1.645 216.502 1.645C216.472 1.565 216.442 1.475 216.412 1.375C216.382 1.275 216.347 1.155 216.307 1.015C216.297 0.995001 216.302 0.970001 216.322 0.940002C216.342 0.910001 216.377 0.900001 216.427 0.910001C216.707 0.930001 217.077 0.945002 217.537 0.955001C217.997 0.965001 218.497 0.965001 219.037 0.955001C219.577 0.945002 220.112 0.930001 220.642 0.910001C221.172 0.890001 221.652 0.865001 222.082 0.835001C222.512 0.795001 222.842 0.750001 223.072 0.700001C223.152 0.680001 223.232 0.680001 223.312 0.700001L224.152 0.880002C224.242 0.890001 224.277 0.945001 224.257 1.045C224.227 1.195 224.187 1.395 224.137 1.645C224.087 1.885 224.047 2.09 224.017 2.26C223.957 2.6 223.887 2.95 223.807 3.31C223.727 3.67 223.652 4 223.582 4.3C223.512 4.59 223.452 4.81 223.402 4.96C223.362 5.1 223.322 5.205 223.282 5.275C223.252 5.335 223.182 5.37 223.072 5.38L222.517 5.425Z" fill="black"/>
<path d="M234.366 5.56C233.736 5.57 233.161 5.475 232.641 5.275C232.131 5.075 231.721 4.78 231.411 4.39C231.111 3.99 230.961 3.52 230.961 2.98C230.961 2.47 231.111 2.02 231.411 1.63C231.721 1.23 232.136 0.915001 232.656 0.685001C233.176 0.455001 233.751 0.335001 234.381 0.325002C235.021 0.305001 235.601 0.395001 236.121 0.595002C236.641 0.785002 237.051 1.07 237.351 1.45C237.661 1.83 237.806 2.3 237.786 2.86C237.776 3.39 237.621 3.855 237.321 4.255C237.021 4.655 236.616 4.97 236.106 5.2C235.606 5.42 235.026 5.54 234.366 5.56ZM232.026 13.945C231.716 13.935 231.476 13.835 231.306 13.645C231.146 13.455 231.066 13.145 231.066 12.715V12.1C231.066 11.79 231.011 11.485 230.901 11.185C230.881 11.155 230.886 11.115 230.916 11.065C230.946 11.015 230.996 10.995 231.066 11.005C231.176 11.015 231.411 11.025 231.771 11.035C232.141 11.045 232.576 11.05 233.076 11.05C233.576 11.05 234.086 11.045 234.606 11.035C235.136 11.025 235.621 11.01 236.061 10.99C236.511 10.97 236.856 10.945 237.096 10.915L237.126 9.775C237.126 9.665 237.076 9.61 236.976 9.61C236.756 9.61 236.451 9.615 236.061 9.625C235.671 9.635 235.256 9.645 234.816 9.655C234.376 9.665 233.956 9.68 233.556 9.7C233.156 9.71 232.831 9.72 232.581 9.73L231.246 9.79C231.156 9.8 231.091 9.795 231.051 9.775C231.011 9.745 230.981 9.685 230.961 9.595L230.856 9.07C230.846 9.05 230.851 9.025 230.871 8.995C230.891 8.965 230.926 8.955 230.976 8.965C231.136 8.975 231.396 8.985 231.756 8.995C232.116 9.005 232.526 9.015 232.986 9.025C233.456 9.025 233.941 9.02 234.441 9.01C234.941 8.99 235.421 8.97 235.881 8.95C236.351 8.92 236.756 8.88 237.096 8.83C237.116 8.83 237.136 8.825 237.156 8.815C237.226 8.805 237.281 8.805 237.321 8.815L238.086 8.92C238.146 8.93 238.176 8.975 238.176 9.055C238.126 9.495 238.086 9.89 238.056 10.24C238.036 10.58 238.011 10.97 237.981 11.41C237.971 11.51 237.951 11.575 237.921 11.605C237.891 11.635 237.831 11.65 237.741 11.65C237.401 11.65 236.981 11.655 236.481 11.665C235.991 11.665 235.471 11.67 234.921 11.68C234.371 11.68 233.841 11.685 233.331 11.695C232.821 11.705 232.381 11.72 232.011 11.74V12.655C232.011 12.885 232.026 13.025 232.056 13.075C232.086 13.135 232.186 13.17 232.356 13.18C233.006 13.2 233.686 13.205 234.396 13.195C235.106 13.185 235.786 13.16 236.436 13.12C236.856 13.1 237.236 13.07 237.576 13.03C237.916 12.99 238.211 12.94 238.461 12.88C238.561 12.86 238.626 12.865 238.656 12.895C238.686 12.925 238.706 12.965 238.716 13.015L238.806 13.675C238.806 13.725 238.786 13.77 238.746 13.81C238.716 13.85 238.631 13.87 238.491 13.87C237.431 13.87 236.336 13.875 235.206 13.885C234.076 13.905 233.016 13.925 232.026 13.945ZM234.381 4.825C235.101 4.805 235.676 4.625 236.106 4.285C236.546 3.935 236.776 3.455 236.796 2.845C236.816 2.225 236.591 1.76 236.121 1.45C235.661 1.14 235.076 0.995001 234.366 1.015C233.666 1.035 233.081 1.225 232.611 1.585C232.151 1.935 231.921 2.39 231.921 2.95C231.921 3.57 232.146 4.045 232.596 4.375C233.056 4.695 233.651 4.845 234.381 4.825ZM228.456 7.735C228.346 7.745 228.271 7.735 228.231 7.705C228.191 7.675 228.161 7.63 228.141 7.57C228.101 7.46 228.066 7.35 228.036 7.24C228.006 7.13 227.971 6.99 227.931 6.82C227.921 6.8 227.926 6.775 227.946 6.745C227.966 6.705 228.001 6.69 228.051 6.7C228.431 6.75 228.951 6.79 229.611 6.82C230.271 6.84 230.996 6.845 231.786 6.835C232.396 6.835 233.046 6.83 233.736 6.82C234.426 6.8 235.111 6.78 235.791 6.76C236.481 6.73 237.131 6.7 237.741 6.67C238.361 6.64 238.906 6.605 239.376 6.565C239.856 6.525 240.226 6.48 240.486 6.43C240.586 6.41 240.651 6.415 240.681 6.445C240.711 6.475 240.731 6.515 240.741 6.565L240.831 7.225C240.841 7.365 240.746 7.43 240.546 7.42C240.236 7.4 239.816 7.39 239.286 7.39C238.766 7.39 238.201 7.395 237.591 7.405C237.051 7.405 236.496 7.415 235.926 7.435C235.366 7.445 234.836 7.455 234.336 7.465C233.846 7.475 233.421 7.485 233.061 7.495C232.051 7.525 231.141 7.56 230.331 7.6C229.521 7.64 228.896 7.685 228.456 7.735Z" fill="black"/>
<path d="M246.867 9.22C246.757 9.23 246.687 9.225 246.657 9.205C246.627 9.185 246.597 9.13 246.567 9.04C246.527 8.93 246.492 8.83 246.462 8.74C246.442 8.64 246.412 8.51 246.372 8.35C246.362 8.33 246.367 8.305 246.387 8.275C246.407 8.245 246.442 8.235 246.492 8.245C246.692 8.275 247.067 8.3 247.617 8.32C248.167 8.33 248.767 8.33 249.417 8.32L250.632 8.275L250.617 7.18C249.997 7.13 249.477 6.935 249.057 6.595C248.637 6.255 248.427 5.85 248.427 5.38C248.427 5.03 248.542 4.715 248.772 4.435C249.002 4.145 249.312 3.915 249.702 3.745C250.092 3.575 250.532 3.48 251.022 3.46C251.812 3.43 252.437 3.59 252.897 3.94C253.357 4.28 253.587 4.72 253.587 5.26C253.587 5.71 253.397 6.11 253.017 6.46C252.637 6.8 252.152 7.025 251.562 7.135L251.502 8.215C252.212 8.165 252.902 8.095 253.572 8.005C254.252 7.915 254.832 7.805 255.312 7.675C255.392 7.655 255.437 7.68 255.447 7.75L255.522 8.125C255.542 8.215 255.532 8.28 255.492 8.32C255.462 8.35 255.417 8.375 255.357 8.395C255.077 8.465 254.702 8.535 254.232 8.605C253.762 8.675 253.252 8.74 252.702 8.8C252.152 8.86 251.607 8.91 251.067 8.95C250.537 8.99 250.067 9.02 249.657 9.04C249.117 9.06 248.597 9.09 248.097 9.13C247.607 9.16 247.197 9.19 246.867 9.22ZM256.002 9.175C255.962 9.175 255.942 9.15 255.942 9.1V2.23C255.942 1.85 255.927 1.5 255.897 1.18C255.877 0.860001 255.842 0.650001 255.792 0.550001C255.772 0.500001 255.772 0.465002 255.792 0.445002C255.822 0.415002 255.857 0.400001 255.897 0.400001C256.007 0.400001 256.157 0.400001 256.347 0.400001C256.547 0.400001 256.722 0.405001 256.872 0.415001C256.922 0.415001 256.947 0.455001 256.947 0.535002C256.917 0.905002 256.897 1.23 256.887 1.51C256.887 1.78 256.887 2.095 256.887 2.455V5.035C257.157 5.035 257.447 5.025 257.757 5.005C258.077 4.975 258.372 4.945 258.642 4.915C258.922 4.875 259.132 4.835 259.272 4.795C259.362 4.785 259.412 4.815 259.422 4.885C259.442 5.015 259.457 5.145 259.467 5.275C259.477 5.405 259.487 5.535 259.497 5.665C259.497 5.775 259.452 5.83 259.362 5.83C259.222 5.81 259.007 5.8 258.717 5.8C258.437 5.79 258.132 5.785 257.802 5.785C257.472 5.785 257.167 5.795 256.887 5.815V8.8C256.887 8.95 256.877 9.04 256.857 9.07C256.847 9.1 256.817 9.12 256.767 9.13L256.002 9.175ZM256.017 14.125C255.977 14.125 255.957 14.1 255.957 14.05V10.915C255.957 10.845 255.947 10.8 255.927 10.78C255.917 10.76 255.867 10.75 255.777 10.75C255.547 10.75 255.222 10.755 254.802 10.765C254.392 10.775 253.952 10.79 253.482 10.81C253.022 10.82 252.587 10.835 252.177 10.855C251.767 10.865 251.457 10.875 251.247 10.885C250.997 10.905 250.717 10.925 250.407 10.945C250.107 10.965 249.832 10.985 249.582 11.005C249.482 11.015 249.417 11.005 249.387 10.975C249.357 10.935 249.332 10.89 249.312 10.84C249.302 10.83 249.297 10.82 249.297 10.81L249.147 10.165C249.137 10.145 249.142 10.12 249.162 10.09C249.182 10.06 249.217 10.05 249.267 10.06C249.407 10.08 249.637 10.095 249.957 10.105C250.287 10.115 250.667 10.12 251.097 10.12C251.537 10.12 251.997 10.115 252.477 10.105C252.957 10.085 253.417 10.065 253.857 10.045C254.307 10.025 254.707 10 255.057 9.97C255.407 9.94 255.667 9.905 255.837 9.865C255.847 9.865 255.862 9.86 255.882 9.85C255.902 9.85 255.922 9.85 255.942 9.85C255.962 9.84 255.997 9.84 256.047 9.85L256.932 9.985C256.982 9.995 257.007 10.015 257.007 10.045C257.017 10.065 257.022 10.085 257.022 10.105C257.022 10.115 257.022 10.12 257.022 10.12C256.992 10.39 256.967 10.67 256.947 10.96C256.937 11.25 256.932 11.515 256.932 11.755L256.917 13.84C256.917 13.96 256.892 14.03 256.842 14.05C256.802 14.07 256.757 14.085 256.707 14.095L256.017 14.125ZM251.022 6.535C251.542 6.515 251.952 6.38 252.252 6.13C252.552 5.88 252.702 5.585 252.702 5.245C252.702 4.875 252.547 4.58 252.237 4.36C251.937 4.14 251.527 4.04 251.007 4.06C250.487 4.08 250.077 4.215 249.777 4.465C249.477 4.705 249.327 5 249.327 5.35C249.327 5.72 249.477 6.015 249.777 6.235C250.087 6.455 250.502 6.555 251.022 6.535ZM247.587 3.175C247.487 3.185 247.422 3.175 247.392 3.145C247.362 3.115 247.337 3.075 247.317 3.025C247.307 3.015 247.302 3.005 247.302 2.995C247.232 2.795 247.172 2.58 247.122 2.35C247.112 2.33 247.117 2.305 247.137 2.275C247.157 2.245 247.192 2.235 247.242 2.245C247.712 2.305 248.257 2.34 248.877 2.35C249.507 2.35 250.122 2.345 250.722 2.335C251.122 2.325 251.552 2.305 252.012 2.275C252.482 2.245 252.932 2.21 253.362 2.17C253.792 2.13 254.152 2.085 254.442 2.035C254.472 2.025 254.507 2.03 254.547 2.05C254.587 2.06 254.612 2.09 254.622 2.14C254.642 2.25 254.657 2.375 254.667 2.515C254.687 2.655 254.697 2.75 254.697 2.8C254.707 2.9 254.647 2.95 254.517 2.95C254.217 2.93 253.847 2.92 253.407 2.92C252.977 2.92 252.512 2.925 252.012 2.935C251.522 2.935 251.027 2.945 250.527 2.965C250.037 2.975 249.587 2.995 249.177 3.025C248.917 3.035 248.647 3.055 248.367 3.085C248.097 3.115 247.837 3.145 247.587 3.175ZM250.542 1.48C250.392 1.46 250.207 1.44 249.987 1.42C249.767 1.39 249.552 1.35 249.342 1.3C249.132 1.24 248.957 1.155 248.817 1.045C248.787 1.015 248.777 0.955002 248.787 0.865002C248.807 0.775002 248.842 0.690002 248.892 0.610001C248.942 0.520001 248.992 0.485001 249.042 0.505001C249.462 0.585001 249.917 0.635001 250.407 0.655002C250.897 0.665002 251.362 0.660001 251.802 0.640001C252.252 0.620001 252.612 0.600001 252.882 0.580001C252.962 0.570001 253.012 0.575001 253.032 0.595002C253.052 0.605002 253.067 0.635001 253.077 0.685001C253.077 0.695001 253.077 0.710001 253.077 0.730002C253.077 0.820002 253.072 0.940002 253.062 1.09C253.052 1.23 253.017 1.31 252.957 1.33C252.897 1.35 252.732 1.38 252.462 1.42C252.202 1.45 251.897 1.475 251.547 1.495C251.207 1.505 250.872 1.5 250.542 1.48Z" fill="black"/>
<path d="M263.883 7.585C263.313 7.595 262.783 7.48 262.293 7.24C261.813 7 261.428 6.66 261.138 6.22C260.848 5.78 260.703 5.27 260.703 4.69C260.703 4.13 260.848 3.63 261.138 3.19C261.428 2.74 261.813 2.38 262.293 2.11C262.783 1.83 263.318 1.685 263.898 1.675C264.478 1.655 265.008 1.76 265.488 1.99C265.968 2.22 266.353 2.555 266.643 2.995C266.933 3.425 267.078 3.95 267.078 4.57C267.078 5.13 266.928 5.635 266.628 6.085C266.338 6.535 265.953 6.895 265.473 7.165C264.993 7.425 264.463 7.565 263.883 7.585ZM263.898 6.805C264.518 6.785 265.033 6.575 265.443 6.175C265.863 5.775 266.073 5.24 266.073 4.57C266.073 3.84 265.863 3.3 265.443 2.95C265.033 2.6 264.513 2.435 263.883 2.455C263.253 2.495 262.728 2.71 262.308 3.1C261.888 3.49 261.678 4.015 261.678 4.675C261.678 5.375 261.888 5.91 262.308 6.28C262.738 6.65 263.268 6.825 263.898 6.805ZM269.883 10.225C269.843 10.225 269.823 10.2 269.823 10.15V2.23C269.823 1.85 269.808 1.5 269.778 1.18C269.758 0.860001 269.723 0.650001 269.673 0.550001C269.653 0.500001 269.653 0.465002 269.673 0.445002C269.703 0.415002 269.738 0.400001 269.778 0.400001C269.918 0.400001 270.083 0.400001 270.273 0.400001C270.463 0.400001 270.623 0.405001 270.753 0.415001C270.803 0.415001 270.828 0.455001 270.828 0.535002C270.798 0.905002 270.778 1.23 270.768 1.51C270.768 1.78 270.768 2.095 270.768 2.455V9.85C270.768 10 270.758 10.09 270.738 10.12C270.728 10.15 270.698 10.17 270.648 10.18L269.883 10.225ZM264.978 13.75C264.658 13.75 264.413 13.63 264.243 13.39C264.083 13.16 264.003 12.83 264.003 12.4V11.065C264.003 10.715 263.988 10.425 263.958 10.195C263.928 9.965 263.898 9.8 263.868 9.7C263.838 9.6 263.873 9.55 263.973 9.55C264.033 9.55 264.133 9.555 264.273 9.565C264.423 9.565 264.563 9.57 264.693 9.58C264.833 9.59 264.908 9.595 264.918 9.595C264.968 9.595 264.993 9.645 264.993 9.745C264.973 9.975 264.958 10.18 264.948 10.36C264.948 10.53 264.948 10.745 264.948 11.005V12.31C264.948 12.56 264.978 12.735 265.038 12.835C265.108 12.925 265.218 12.975 265.368 12.985C265.648 12.995 265.988 13 266.388 13C266.798 13.01 267.223 13.01 267.663 13C268.113 12.98 268.538 12.96 268.938 12.94C269.358 12.92 269.793 12.885 270.243 12.835C270.693 12.775 271.038 12.715 271.278 12.655C271.378 12.635 271.443 12.64 271.473 12.67C271.503 12.7 271.523 12.74 271.533 12.79L271.653 13.495C271.653 13.545 271.638 13.585 271.608 13.615C271.588 13.645 271.508 13.66 271.368 13.66C270.378 13.66 269.358 13.675 268.308 13.705C267.258 13.735 266.148 13.75 264.978 13.75Z" fill="black"/>
<path d="M277.519 10C276.879 10.02 276.334 9.91 275.884 9.67C275.444 9.43 275.109 9.11 274.879 8.71C274.649 8.31 274.534 7.9 274.534 7.48C274.534 7.09 274.644 6.71 274.864 6.34C275.094 5.97 275.429 5.66 275.869 5.41C276.319 5.15 276.874 5.01 277.534 4.99C278.104 4.97 278.609 5.06 279.049 5.26C279.499 5.46 279.854 5.745 280.114 6.115C280.374 6.485 280.494 6.925 280.474 7.435C280.464 7.855 280.344 8.26 280.114 8.65C279.894 9.03 279.564 9.345 279.124 9.595C278.694 9.845 278.159 9.98 277.519 10ZM282.634 13.15C282.594 13.15 282.574 13.125 282.574 13.075V2.245C282.574 1.865 282.559 1.515 282.529 1.195C282.509 0.865001 282.474 0.650001 282.424 0.550001C282.404 0.500001 282.404 0.465002 282.424 0.445002C282.454 0.415002 282.489 0.400001 282.529 0.400001C282.589 0.400001 282.689 0.405001 282.829 0.415001C282.979 0.415001 283.124 0.420001 283.264 0.430001C283.404 0.430001 283.484 0.430001 283.504 0.430001C283.554 0.430001 283.579 0.470001 283.579 0.550001C283.549 0.920001 283.529 1.245 283.519 1.525C283.519 1.795 283.519 2.11 283.519 2.47V6.205C283.789 6.205 284.079 6.195 284.389 6.175C284.709 6.145 285.004 6.115 285.274 6.085C285.554 6.045 285.764 6.005 285.904 5.965C285.994 5.955 286.044 5.985 286.054 6.055C286.074 6.185 286.089 6.315 286.099 6.445C286.109 6.575 286.119 6.705 286.129 6.835C286.129 6.945 286.084 7 285.994 7C285.844 6.98 285.624 6.97 285.334 6.97C285.054 6.97 284.754 6.97 284.434 6.97C284.114 6.97 283.809 6.975 283.519 6.985V12.775C283.519 12.925 283.509 13.015 283.489 13.045C283.479 13.075 283.449 13.095 283.399 13.105L282.634 13.15ZM277.519 9.19C277.959 9.17 278.324 9.075 278.614 8.905C278.904 8.735 279.124 8.52 279.274 8.26C279.424 7.99 279.504 7.715 279.514 7.435C279.534 7.175 279.484 6.915 279.364 6.655C279.244 6.395 279.039 6.175 278.749 5.995C278.459 5.805 278.069 5.705 277.579 5.695C277.109 5.695 276.714 5.785 276.394 5.965C276.084 6.135 275.854 6.355 275.704 6.625C275.554 6.885 275.479 7.16 275.479 7.45C275.479 7.94 275.659 8.36 276.019 8.71C276.379 9.05 276.879 9.21 277.519 9.19ZM273.694 4.33C273.594 4.34 273.529 4.33 273.499 4.3C273.469 4.26 273.444 4.215 273.424 4.165C273.414 4.155 273.409 4.145 273.409 4.135C273.369 4.025 273.339 3.925 273.319 3.835C273.299 3.745 273.269 3.615 273.229 3.445C273.219 3.425 273.224 3.4 273.244 3.37C273.264 3.34 273.299 3.33 273.349 3.34C273.629 3.37 273.949 3.395 274.309 3.415C274.679 3.435 275.104 3.44 275.584 3.43C276.094 3.42 276.644 3.41 277.234 3.4C277.834 3.38 278.409 3.35 278.959 3.31C279.399 3.28 279.814 3.24 280.204 3.19C280.594 3.14 280.949 3.09 281.269 3.04C281.299 3.03 281.334 3.035 281.374 3.055C281.414 3.065 281.439 3.095 281.449 3.145C281.479 3.345 281.499 3.5 281.509 3.61C281.519 3.72 281.524 3.81 281.524 3.88C281.544 3.99 281.484 4.045 281.344 4.045C281.154 4.035 280.924 4.03 280.654 4.03C280.384 4.03 280.149 4.03 279.949 4.03C279.729 4.03 279.409 4.035 278.989 4.045C278.569 4.055 278.114 4.07 277.624 4.09C277.144 4.1 276.694 4.115 276.274 4.135C275.854 4.155 275.539 4.175 275.329 4.195L273.694 4.33ZM277.039 2.05C276.889 2.03 276.679 2.005 276.409 1.975C276.149 1.945 275.889 1.9 275.629 1.84C275.379 1.78 275.184 1.695 275.044 1.585C275.004 1.555 274.994 1.495 275.014 1.405C275.034 1.305 275.069 1.21 275.119 1.12C275.169 1.03 275.219 0.995001 275.269 1.015C275.749 1.105 276.259 1.16 276.799 1.18C277.339 1.2 277.854 1.2 278.344 1.18C278.844 1.16 279.254 1.14 279.574 1.12C279.654 1.11 279.704 1.115 279.724 1.135C279.744 1.145 279.759 1.175 279.769 1.225C279.769 1.235 279.769 1.26 279.769 1.3C279.769 1.4 279.764 1.52 279.754 1.66C279.754 1.8 279.724 1.88 279.664 1.9C279.604 1.92 279.424 1.95 279.124 1.99C278.834 2.02 278.494 2.045 278.104 2.065C277.724 2.075 277.369 2.07 277.039 2.05Z" fill="black"/>
<path d="M294.76 12.76C294.72 12.76 294.7 12.735 294.7 12.685V5.38L294.25 5.395C294.01 5.405 293.725 5.425 293.395 5.455C293.065 5.475 292.78 5.495 292.54 5.515C292.43 5.525 292.36 5.52 292.33 5.5C292.31 5.48 292.295 5.445 292.285 5.395C292.275 5.385 292.27 5.375 292.27 5.365L292.15 4.735C292.15 4.715 292.155 4.69 292.165 4.66C292.175 4.63 292.205 4.62 292.255 4.63C292.405 4.65 292.615 4.665 292.885 4.675C293.155 4.685 293.45 4.685 293.77 4.675C294.1 4.665 294.41 4.655 294.7 4.645V2.62C294.7 2.24 294.69 1.89 294.67 1.57C294.65 1.25 294.615 1.04 294.565 0.940002C294.545 0.890002 294.545 0.855002 294.565 0.835001C294.595 0.805002 294.63 0.790002 294.67 0.790002L295.555 0.805002C295.605 0.825001 295.63 0.865001 295.63 0.925001C295.61 1.215 295.6 1.475 295.6 1.705C295.6 1.935 295.6 2.175 295.6 2.425C295.6 2.485 295.6 2.55 295.6 2.62C295.6 2.69 295.6 2.765 295.6 2.845V12.385C295.6 12.535 295.59 12.625 295.57 12.655C295.56 12.685 295.53 12.705 295.48 12.715C295.45 12.715 295.38 12.72 295.27 12.73C295.17 12.73 295.07 12.735 294.97 12.745C294.87 12.755 294.8 12.76 294.76 12.76ZM286.96 9.31L286.615 8.995C286.575 8.955 286.59 8.91 286.66 8.86C286.67 8.85 286.675 8.845 286.675 8.845C287.075 8.555 287.465 8.2 287.845 7.78C288.235 7.35 288.595 6.89 288.925 6.4C289.255 5.91 289.54 5.415 289.78 4.915C290.02 4.415 290.195 3.945 290.305 3.505C290.385 3.205 290.45 2.895 290.5 2.575C290.55 2.245 290.575 1.98 290.575 1.78C290.575 1.67 290.62 1.625 290.71 1.645L291.685 1.885C291.745 1.895 291.77 1.95 291.76 2.05L291.28 3.655C291.22 3.865 291.13 4.12 291.01 4.42C290.89 4.72 290.735 5.055 290.545 5.425C290.925 5.755 291.32 6.11 291.73 6.49C292.14 6.87 292.51 7.22 292.84 7.54C293.17 7.86 293.4 8.1 293.53 8.26C293.56 8.29 293.585 8.34 293.605 8.41C293.635 8.48 293.615 8.545 293.545 8.605C293.455 8.705 293.36 8.8 293.26 8.89C293.16 8.98 293.055 9.06 292.945 9.13C292.895 9.18 292.845 9.17 292.795 9.1C292.655 8.83 292.435 8.51 292.135 8.14C291.845 7.77 291.525 7.395 291.175 7.015C290.835 6.635 290.51 6.305 290.2 6.025C289.9 6.535 289.525 7.07 289.075 7.63C288.625 8.19 288.075 8.745 287.425 9.295C287.375 9.345 287.31 9.38 287.23 9.4C287.15 9.42 287.06 9.39 286.96 9.31ZM297.175 13.15C297.135 13.15 297.115 13.125 297.115 13.075V2.23C297.115 1.85 297.105 1.5 297.085 1.18C297.075 0.860001 297.045 0.650001 296.995 0.550001C296.975 0.500001 296.975 0.465002 296.995 0.445002C297.025 0.415002 297.06 0.400001 297.1 0.400001L297.985 0.415001C298.035 0.435002 298.06 0.475002 298.06 0.535002C298.04 0.835001 298.025 1.105 298.015 1.345C298.015 1.585 298.015 1.835 298.015 2.095C298.015 2.155 298.015 2.215 298.015 2.275C298.015 2.335 298.015 2.395 298.015 2.455V12.775C298.015 12.925 298.005 13.015 297.985 13.045C297.975 13.075 297.945 13.095 297.895 13.105C297.865 13.105 297.795 13.105 297.685 13.105C297.585 13.115 297.485 13.125 297.385 13.135C297.285 13.145 297.215 13.15 297.175 13.15Z" fill="black"/>
<path d="M306.21 7.18C305.52 7.18 304.9 7.06 304.35 6.82C303.81 6.57 303.385 6.22 303.075 5.77C302.765 5.31 302.615 4.765 302.625 4.135C302.645 3.555 302.82 3.04 303.15 2.59C303.49 2.13 303.945 1.765 304.515 1.495C305.085 1.225 305.715 1.085 306.405 1.075C307.115 1.075 307.745 1.2 308.295 1.45C308.845 1.7 309.275 2.055 309.585 2.515C309.905 2.965 310.05 3.49 310.02 4.09C309.98 4.73 309.79 5.28 309.45 5.74C309.12 6.2 308.675 6.555 308.115 6.805C307.555 7.055 306.92 7.18 306.21 7.18ZM306.24 6.415C307.03 6.395 307.68 6.185 308.19 5.785C308.7 5.385 308.975 4.82 309.015 4.09C309.055 3.41 308.83 2.865 308.34 2.455C307.85 2.045 307.19 1.84 306.36 1.84C305.78 1.84 305.285 1.95 304.875 2.17C304.465 2.39 304.155 2.675 303.945 3.025C303.735 3.365 303.62 3.735 303.6 4.135C303.58 4.595 303.685 5 303.915 5.35C304.145 5.7 304.465 5.97 304.875 6.16C305.285 6.34 305.74 6.425 306.24 6.415ZM300.69 11.635C300.58 11.645 300.505 11.635 300.465 11.605C300.425 11.575 300.395 11.53 300.375 11.47C300.335 11.36 300.3 11.25 300.27 11.14C300.24 11.02 300.205 10.875 300.165 10.705C300.155 10.685 300.16 10.66 300.18 10.63C300.2 10.59 300.235 10.575 300.285 10.585C300.655 10.635 301.16 10.67 301.8 10.69C302.45 10.7 303.165 10.705 303.945 10.705L303.87 9.505C303.86 9.315 303.84 9.105 303.81 8.875C303.78 8.645 303.745 8.435 303.705 8.245C303.665 8.045 303.625 7.915 303.585 7.855C303.565 7.795 303.565 7.755 303.585 7.735C303.615 7.715 303.65 7.7 303.69 7.69H304.695C304.735 7.7 304.755 7.745 304.755 7.825C304.755 7.835 304.755 7.845 304.755 7.855C304.755 8.115 304.755 8.37 304.755 8.62C304.755 8.87 304.76 9.125 304.77 9.385L304.8 10.705C305.34 10.705 305.88 10.7 306.42 10.69C306.96 10.67 307.495 10.65 308.025 10.63L308.1 9.325C308.11 9.135 308.115 8.93 308.115 8.71C308.125 8.49 308.12 8.29 308.1 8.11C308.09 7.92 308.065 7.79 308.025 7.72C308.005 7.65 308.01 7.61 308.04 7.6C308.07 7.58 308.105 7.57 308.145 7.57C308.195 7.57 308.295 7.575 308.445 7.585C308.595 7.585 308.74 7.59 308.88 7.6C309.03 7.61 309.115 7.615 309.135 7.615C309.185 7.645 309.2 7.695 309.18 7.765C309.18 7.775 309.18 7.78 309.18 7.78C309.15 8.04 309.12 8.29 309.09 8.53C309.06 8.77 309.035 9.02 309.015 9.28L308.895 10.6C309.635 10.56 310.3 10.52 310.89 10.48C311.49 10.43 311.95 10.375 312.27 10.315C312.37 10.295 312.435 10.3 312.465 10.33C312.495 10.36 312.515 10.4 312.525 10.45L312.615 11.17C312.615 11.22 312.6 11.265 312.57 11.305C312.54 11.345 312.46 11.365 312.33 11.365C311.99 11.355 311.595 11.35 311.145 11.35C310.695 11.35 310.215 11.35 309.705 11.35C308.455 11.35 307.245 11.365 306.075 11.395C304.905 11.415 303.855 11.445 302.925 11.485C301.995 11.525 301.25 11.575 300.69 11.635Z" fill="black"/>
<path d="M314.525 1.33C314.525 1.26 314.56 1.225 314.63 1.225H315.71C315.78 1.225 315.815 1.26 315.815 1.33L315.53 8.8C315.53 8.85 315.51 8.875 315.47 8.875H314.87C314.83 8.875 314.81 8.85 314.81 8.8L314.525 1.33ZM315.185 12.4C314.945 12.4 314.745 12.32 314.585 12.16C314.425 12 314.345 11.8 314.345 11.56C314.345 11.33 314.425 11.14 314.585 10.99C314.745 10.83 314.945 10.75 315.185 10.75C315.415 10.75 315.605 10.83 315.755 10.99C315.915 11.14 315.995 11.33 315.995 11.56C315.995 11.8 315.915 12 315.755 12.16C315.605 12.32 315.415 12.4 315.185 12.4Z" fill="black"/>
</svg>
