<svg width="235" height="27" viewBox="0 0 235 27" fill="none" xmlns="http://www.w3.org/2000/svg">
<path d="M12.2088 3.16C13.0288 3.16 13.7288 3.23 14.3088 3.37C14.8888 3.51 15.3488 3.87 15.6888 4.45C16.0088 4.99 16.0588 5.53 15.8388 6.07C15.5588 6.63 15.0588 6.96 14.3388 7.06C13.8588 7.14 13.3088 7.19 12.6888 7.21C12.0688 7.21 11.2488 7.19 10.2288 7.15C10.2088 7.49 10.1988 7.85 10.1988 8.23C10.1988 8.59 10.1988 8.93 10.1988 9.25C10.1988 9.55 10.1988 9.81 10.1988 10.03C10.2188 10.25 10.2288 10.39 10.2288 10.45V13.81C10.2288 13.97 10.2388 14.19 10.2588 14.47C10.2788 14.73 10.2988 14.93 10.3188 15.07C10.4788 15.23 10.6988 15.47 10.9788 15.79C11.2588 16.09 11.4788 16.34 11.6388 16.54C11.8388 16.78 12.0388 17.03 12.2388 17.29C12.4588 17.55 12.6788 17.84 12.8988 18.16C13.0588 18.34 13.1988 18.52 13.3188 18.7C13.4388 18.88 13.5488 19.04 13.6488 19.18C14.0288 19.72 14.4188 20.31 14.8188 20.95C15.2188 21.59 15.4888 22.23 15.6288 22.87C15.6888 23.15 15.6888 23.46 15.6288 23.8C15.5888 24.12 15.4488 24.39 15.2088 24.61C14.8688 24.91 14.4888 25.06 14.0688 25.06C13.6088 25.06 13.1688 24.94 12.7488 24.7C12.3288 24.44 11.9888 24.17 11.7288 23.89C11.3488 23.49 10.9888 23.07 10.6488 22.63C10.3288 22.19 10.0088 21.76 9.68882 21.34C9.46882 21.02 9.23882 20.71 8.99882 20.41C8.75882 20.09 8.50882 19.78 8.24882 19.48C8.20882 19.4 8.16882 19.35 8.12882 19.33C8.12882 19.35 8.11882 19.36 8.09882 19.36C8.09882 19.36 8.09882 19.37 8.09882 19.39C7.99882 19.55 7.87882 19.71 7.73882 19.87C7.61882 20.01 7.50882 20.16 7.40882 20.32C7.24882 20.5 7.09882 20.69 6.95882 20.89C6.83882 21.07 6.71882 21.25 6.59882 21.43C6.31882 21.85 6.03882 22.27 5.75882 22.69C5.47882 23.09 5.15882 23.47 4.79882 23.83C3.93882 24.69 3.12882 25.12 2.36882 25.12C2.16882 25.12 1.97882 25.09 1.79882 25.03C1.33882 24.91 1.02882 24.63 0.868822 24.19C0.708822 23.85 0.648822 23.48 0.688822 23.08C0.748822 22.68 0.848822 22.33 0.988822 22.03C1.14882 21.69 1.32882 21.37 1.52882 21.07C1.72882 20.77 1.93882 20.47 2.15882 20.17C2.29882 19.99 2.42882 19.81 2.54882 19.63C2.68882 19.45 2.80882 19.27 2.90882 19.09C3.08882 18.79 3.32882 18.44 3.62882 18.04C3.94882 17.62 4.25882 17.22 4.55882 16.84C4.87882 16.44 5.16882 16.08 5.42882 15.76C5.68882 15.44 5.86882 15.21 5.96882 15.07V7.15H4.13882C3.37882 7.15 2.84882 7.15 2.54882 7.15C2.26882 7.13 2.05882 7.1 1.91882 7.06C1.15882 6.94 0.648822 6.51 0.388822 5.77C0.168822 5.13 0.248822 4.57 0.628822 4.09C0.968822 3.61 1.44882 3.31 2.06882 3.19C2.16882 3.17 2.26882 3.16 2.36882 3.16C2.46882 3.14 2.57882 3.13 2.69882 3.13C2.89882 3.13 3.03882 3.14 3.11882 3.16H12.2088ZM22.3188 23.38C22.2788 23.62 22.2488 23.86 22.2288 24.1C22.2088 24.32 22.1588 24.55 22.0788 24.79C22.0388 24.87 22.0088 24.94 21.9888 25C21.9688 25.06 21.9388 25.13 21.8988 25.21C21.7588 25.49 21.5788 25.71 21.3588 25.87C20.8988 26.15 20.3888 26.22 19.8288 26.08C19.5088 26.02 19.2488 25.9 19.0488 25.72C18.8688 25.56 18.7288 25.35 18.6288 25.09C18.5488 24.85 18.4788 24.61 18.4188 24.37C18.3788 24.13 18.3588 23.92 18.3588 23.74C18.3588 23.56 18.3588 23.46 18.3588 23.44V5.23C18.3588 4.99 18.3588 4.73 18.3588 4.45C18.3588 4.17 18.3788 3.89 18.4188 3.61C18.4588 3.33 18.5188 3.07 18.5988 2.83C18.6788 2.59 18.7888 2.4 18.9288 2.26C19.1488 2.04 19.3788 1.91 19.6188 1.87C19.8588 1.81 20.1188 1.78 20.3988 1.78C20.7388 1.78 21.0488 1.88 21.3288 2.08C21.6288 2.26 21.8388 2.52 21.9588 2.86C22.1388 3.28 22.2388 3.72 22.2588 4.18C22.2788 4.64 22.2988 5.1 22.3188 5.56V5.71C22.3588 7.25 22.3688 8.83 22.3488 10.45C22.3288 12.07 22.3188 13.6 22.3188 15.04V22.3C22.3188 22.48 22.3188 22.66 22.3188 22.84C22.3388 23.02 22.3388 23.2 22.3188 23.38Z" fill="#EDA1A1"/>
<path d="M35.3493 3.25C36.1693 3.25 36.8793 3.33 37.4793 3.49C37.7393 3.59 37.9893 3.73 38.2293 3.91C38.4693 4.07 38.6693 4.3 38.8293 4.6C38.9893 4.84 39.0893 5.1 39.1293 5.38C39.1693 5.66 39.1193 5.92 38.9793 6.16C38.7393 6.72 38.2393 7.06 37.4793 7.18C37.2393 7.22 36.9893 7.26 36.7293 7.3C36.4693 7.32 36.1693 7.33 35.8293 7.33C35.5493 7.33 35.1993 7.33 34.7793 7.33C34.3793 7.31 33.9393 7.28 33.4593 7.24C33.4393 7.28 33.4293 7.41 33.4293 7.63C33.4293 7.83 33.4293 8.09 33.4293 8.41C33.4293 8.73 33.4293 9.08 33.4293 9.46C33.4293 9.84 33.4293 10.23 33.4293 10.63C33.4293 11.57 33.4393 12.62 33.4593 13.78V14.44C33.4593 14.58 33.4593 14.69 33.4593 14.77C33.4593 14.85 33.4793 14.94 33.5193 15.04C33.5393 15.06 33.6593 15.21 33.8793 15.49C34.0993 15.75 34.3593 16.08 34.6593 16.48C34.9793 16.88 35.3193 17.32 35.6793 17.8C36.0393 18.26 36.3793 18.7 36.6993 19.12C37.0193 19.54 37.2993 19.92 37.5393 20.26C37.7793 20.58 37.9293 20.8 37.9893 20.92C38.1493 21.2 38.2993 21.51 38.4393 21.85C38.5993 22.17 38.6993 22.49 38.7393 22.81C38.7793 22.93 38.7993 23.07 38.7993 23.23C38.8193 23.39 38.8293 23.56 38.8293 23.74C38.7493 24.02 38.5793 24.29 38.3193 24.55C38.1593 24.67 37.9893 24.77 37.8093 24.85C37.6493 24.93 37.4593 24.97 37.2393 24.97C36.8793 24.97 36.5593 24.91 36.2793 24.79C35.9993 24.65 35.7393 24.48 35.4993 24.28C35.2593 24.06 35.0393 23.82 34.8393 23.56C34.6393 23.3 34.4493 23.03 34.2693 22.75C34.1093 22.53 33.8993 22.25 33.6393 21.91C33.3993 21.57 33.1893 21.29 33.0093 21.07C32.8893 20.91 32.7793 20.76 32.6793 20.62C32.5993 20.48 32.4893 20.33 32.3493 20.17C32.1893 19.95 32.0293 19.73 31.8693 19.51C31.7093 19.27 31.5393 19.04 31.3593 18.82C30.9793 19.28 30.6293 19.73 30.3093 20.17C30.0093 20.59 29.6993 21.02 29.3793 21.46C29.0593 21.88 28.7293 22.31 28.3893 22.75C28.0493 23.19 27.6693 23.66 27.2493 24.16C27.0293 24.4 26.7893 24.61 26.5293 24.79C26.2693 24.97 25.9393 25.06 25.5393 25.06C25.4593 25.06 25.3793 25.04 25.2993 25C25.2193 24.98 25.1093 24.97 24.9693 24.97C24.5293 24.77 24.2293 24.5 24.0693 24.16C23.9693 23.94 23.9093 23.74 23.8893 23.56C23.8893 23.38 23.8893 23.19 23.8893 22.99C23.9293 22.77 23.9693 22.58 24.0093 22.42C24.0693 22.26 24.1493 22.11 24.2493 21.97C24.3293 21.81 24.4093 21.65 24.4893 21.49C24.5693 21.33 24.6493 21.17 24.7293 21.01C24.8493 20.85 24.9593 20.7 25.0593 20.56C25.1593 20.4 25.2693 20.24 25.3893 20.08C25.4293 19.98 25.4893 19.9 25.5693 19.84C25.6493 19.76 25.7393 19.68 25.8393 19.6C25.8793 19.5 25.9293 19.41 25.9893 19.33C26.0493 19.25 26.0993 19.14 26.1393 19C26.2393 18.88 26.3493 18.73 26.4693 18.55C26.5893 18.35 26.7293 18.17 26.8893 18.01C27.1693 17.61 27.4693 17.2 27.7893 16.78C27.9293 16.62 28.0693 16.44 28.2093 16.24C28.3493 16.02 28.4993 15.83 28.6593 15.67C28.7793 15.55 28.9193 15.38 29.0793 15.16C29.2393 14.94 29.3393 14.79 29.3793 14.71V7.24H25.8393C25.4793 7.24 25.2493 7.22 25.1493 7.18C24.3893 7.06 23.8893 6.64 23.6493 5.92C23.4093 5.24 23.4693 4.69 23.8293 4.27C24.0493 4.01 24.2693 3.8 24.4893 3.64C24.7093 3.48 24.9793 3.38 25.2993 3.34C25.3593 3.28 25.4393 3.25 25.5393 3.25H35.3493ZM46.1793 11.2C46.6193 11.2 47.0293 11.21 47.4093 11.23C47.7893 11.25 48.1093 11.47 48.3693 11.89C48.5693 12.23 48.6693 12.59 48.6693 12.97C48.6693 13.35 48.5693 13.68 48.3693 13.96C48.2093 14.14 48.0493 14.28 47.8893 14.38C47.7493 14.48 47.5893 14.55 47.4093 14.59C47.2493 14.63 47.0593 14.66 46.8393 14.68C46.6193 14.68 46.3793 14.69 46.1193 14.71H44.7693V18.82C44.8093 19.52 44.8193 20.24 44.7993 20.98C44.7793 21.72 44.7693 22.44 44.7693 23.14C44.7693 23.3 44.7593 23.46 44.7393 23.62C44.7193 23.76 44.7093 23.91 44.7093 24.07C44.6693 24.19 44.6393 24.33 44.6193 24.49C44.5993 24.63 44.5493 24.76 44.4693 24.88C44.4293 25.02 44.3793 25.14 44.3193 25.24C44.2593 25.36 44.1693 25.47 44.0493 25.57C43.7493 25.85 43.3493 25.99 42.8493 25.99C42.3493 25.99 41.9493 25.82 41.6493 25.48C41.3893 25.22 41.2193 24.89 41.1393 24.49C41.0793 24.09 41.0293 23.72 40.9893 23.38C40.9893 23.18 40.9693 23 40.9293 22.84C40.9093 22.66 40.8993 22.49 40.8993 22.33V4.6C40.8993 4.44 40.8993 4.29 40.8993 4.15C40.9193 4.01 40.9493 3.88 40.9893 3.76C41.0293 3.48 41.0793 3.23 41.1393 3.01C41.1993 2.79 41.3393 2.59 41.5593 2.41C41.6793 2.29 41.8793 2.18 42.1593 2.08C42.4793 2 42.7893 1.98 43.0893 2.02C43.4093 2.04 43.6993 2.17 43.9593 2.41C44.2993 2.65 44.4693 2.96 44.4693 3.34C44.5893 3.92 44.6693 4.49 44.7093 5.05C44.7493 5.59 44.7693 6.15 44.7693 6.73V11.2H46.1793Z" fill="#EDA1A1"/>
<path d="M61.0703 15.01C60.8903 15.01 60.7003 14.99 60.5003 14.95C60.3203 14.89 60.1403 14.8 59.9603 14.68C59.8003 14.56 59.6603 14.4 59.5403 14.2C59.4203 14 59.3503 13.75 59.3303 13.45C59.2903 13.09 59.3103 12.71 59.3903 12.31C59.4903 11.89 59.7703 11.57 60.2303 11.35C60.4103 11.25 60.6303 11.19 60.8903 11.17C61.1703 11.15 61.4103 11.15 61.6103 11.17H63.0503V4.9C63.0503 4.64 63.0503 4.38 63.0503 4.12C63.0503 3.84 63.0803 3.57 63.1403 3.31C63.1803 3.21 63.2103 3.12 63.2303 3.04C63.2703 2.96 63.3103 2.87 63.3503 2.77C63.4703 2.57 63.5903 2.42 63.7103 2.32C63.8303 2.2 64.0003 2.1 64.2203 2.02C64.3203 1.98 64.4203 1.96 64.5203 1.96C64.6403 1.94 64.7503 1.93 64.8503 1.93C65.5103 1.93 66.0103 2.23 66.3503 2.83C66.4303 2.95 66.4803 3.12 66.5003 3.34C66.5403 3.56 66.5703 3.79 66.5903 4.03C66.6103 4.25 66.6203 4.45 66.6203 4.63C66.6203 4.79 66.6203 4.89 66.6203 4.93V22.39C66.6203 22.89 66.6003 23.29 66.5603 23.59C66.5403 23.89 66.4503 24.27 66.2903 24.73C66.1903 25.03 66.0203 25.28 65.7803 25.48C65.5403 25.68 65.2003 25.78 64.7603 25.78C64.6403 25.78 64.4903 25.76 64.3103 25.72C64.1303 25.7 63.9903 25.65 63.8903 25.57C63.6903 25.45 63.5303 25.26 63.4103 25C63.3103 24.72 63.2303 24.43 63.1703 24.13C63.1103 23.83 63.0703 23.54 63.0503 23.26C63.0503 22.98 63.0503 22.76 63.0503 22.6V15.1L61.0703 15.01ZM71.8103 5.62C71.8503 7.14 71.8603 8.66 71.8403 10.18C71.8203 11.7 71.8103 13.17 71.8103 14.59V22.09C71.8103 22.61 71.7903 23.11 71.7503 23.59C71.7303 24.07 71.6203 24.52 71.4203 24.94C71.3003 25.2 71.1103 25.42 70.8503 25.6C70.6303 25.74 70.4303 25.82 70.2503 25.84C70.0903 25.88 69.8803 25.87 69.6203 25.81C69.3203 25.75 69.0803 25.62 68.9003 25.42C68.7203 25.24 68.5803 25.03 68.4803 24.79C68.4003 24.55 68.3503 24.29 68.3303 24.01C68.3103 23.73 68.3003 23.46 68.3003 23.2V5.17C68.3003 4.95 68.3003 4.7 68.3003 4.42C68.3003 4.12 68.3203 3.84 68.3603 3.58C68.4003 3.3 68.4503 3.04 68.5103 2.8C68.5903 2.56 68.7003 2.37 68.8403 2.23C69.0603 2.03 69.2703 1.91 69.4703 1.87C69.6703 1.81 69.9103 1.78 70.1903 1.78C70.5303 1.78 70.7903 1.88 70.9703 2.08C71.1703 2.26 71.3303 2.51 71.4503 2.83C71.6303 3.25 71.7203 3.71 71.7203 4.21C71.7403 4.71 71.7703 5.18 71.8103 5.62ZM59.0003 4.69C59.6803 4.69 60.2503 4.74 60.7103 4.84C61.1703 4.94 61.5403 5.26 61.8203 5.8C61.9603 6.06 62.0403 6.34 62.0603 6.64C62.0803 6.92 62.0403 7.17 61.9403 7.39C61.7203 7.91 61.3203 8.22 60.7403 8.32C60.3403 8.36 59.9303 8.39 59.5103 8.41C59.1103 8.43 58.5103 8.42 57.7103 8.38C57.6903 9.02 57.6803 9.49 57.6803 9.79C57.7003 10.07 57.7103 10.26 57.7103 10.36V13.81C57.7103 13.97 57.7203 14.18 57.7403 14.44C57.7603 14.68 57.7703 14.86 57.7703 14.98C57.9103 15.14 58.0303 15.37 58.1303 15.67C58.2503 15.95 58.3903 16.18 58.5503 16.36C58.7103 16.58 58.8703 16.82 59.0303 17.08C59.2103 17.32 59.4003 17.58 59.6003 17.86C59.7003 18.02 59.8003 18.19 59.9003 18.37C60.0203 18.53 60.1203 18.68 60.2003 18.82C60.4803 19.32 60.7803 19.87 61.1003 20.47C61.4403 21.05 61.6703 21.63 61.7903 22.21C61.8303 22.47 61.8303 22.76 61.7903 23.08C61.7503 23.38 61.6303 23.63 61.4303 23.83C61.2103 24.11 60.9003 24.25 60.5003 24.25C60.1403 24.25 59.7903 24.13 59.4503 23.89C59.1103 23.65 58.8303 23.41 58.6103 23.17C58.3103 22.79 58.0303 22.4 57.7703 22C57.5103 21.6 57.2403 21.2 56.9603 20.8C56.8003 20.52 56.6003 20.21 56.3603 19.87C56.1403 19.53 55.9103 19.24 55.6703 19C55.4703 19.3 55.2603 19.61 55.0403 19.93C54.8403 20.23 54.6503 20.55 54.4703 20.89C54.2503 21.29 54.0203 21.68 53.7803 22.06C53.5403 22.42 53.2803 22.77 53.0003 23.11C52.3203 23.91 51.6703 24.31 51.0503 24.31C50.8703 24.31 50.7203 24.28 50.6003 24.22C50.2403 24.14 49.9803 23.88 49.8203 23.44C49.7203 23.14 49.6803 22.8 49.7003 22.42C49.7403 22.04 49.8203 21.71 49.9403 21.43C50.0803 21.13 50.2303 20.84 50.3903 20.56C50.5503 20.28 50.7103 20 50.8703 19.72C50.9703 19.56 51.0703 19.4 51.1703 19.24C51.2903 19.06 51.4003 18.89 51.5003 18.73C51.6403 18.45 51.8303 18.12 52.0703 17.74C52.3103 17.36 52.5403 16.99 52.7603 16.63C53.0003 16.27 53.2203 15.94 53.4203 15.64C53.6203 15.34 53.7703 15.13 53.8703 15.01V8.38H52.7303C52.1303 8.38 51.6603 8.38 51.3203 8.38C51.0003 8.38 50.7803 8.36 50.6603 8.32C50.3803 8.26 50.1303 8.13 49.9103 7.93C49.7103 7.71 49.5603 7.43 49.4603 7.09C49.2803 6.53 49.3303 6.02 49.6103 5.56C49.7703 5.34 49.9503 5.16 50.1503 5.02C50.3503 4.86 50.5603 4.76 50.7803 4.72C50.8603 4.7 50.9503 4.69 51.0503 4.69C51.1703 4.69 51.2803 4.69 51.3803 4.69H53.9903C53.9903 4.51 54.0003 4.29 54.0203 4.03C54.0403 3.75 54.0603 3.48 54.0803 3.22C54.1203 2.94 54.1603 2.68 54.2003 2.44C54.2403 2.18 54.3003 1.97 54.3803 1.81C54.4803 1.63 54.6203 1.47 54.8003 1.33C54.9803 1.19 55.1703 1.09 55.3703 1.03C55.5903 0.949998 55.8003 0.919998 56.0003 0.939997C56.2203 0.939997 56.4203 0.989997 56.6003 1.09C57.0003 1.33 57.2703 1.74 57.4103 2.32C57.5703 2.88 57.6503 3.67 57.6503 4.69H59.0003Z" fill="#EDA1A1"/>
<path d="M94.3869 23.5C94.7069 23.52 94.9869 23.6 95.2269 23.74C95.4669 23.86 95.6369 24.08 95.7369 24.4C95.9569 25.14 95.6969 25.64 94.9569 25.9C94.7169 26 94.4669 26.06 94.2069 26.08C93.9669 26.1 93.7469 26.11 93.5469 26.11H79.5969C79.1969 26.11 78.7769 26.11 78.3369 26.11C77.8969 26.11 77.4569 26.1 77.0169 26.08C76.4769 26.06 76.0969 25.89 75.8769 25.57C75.6769 25.25 75.5569 24.86 75.5169 24.4L75.3969 22.42C75.3769 22.2 75.3769 21.94 75.3969 21.64C75.4369 21.32 75.5469 21.05 75.7269 20.83C76.0069 20.55 76.3269 20.37 76.6869 20.29C77.0469 20.21 77.4469 20.17 77.8869 20.17H78.8169C78.9169 20.17 78.9969 20.18 79.0569 20.2C79.1169 20.2 79.1769 20.2 79.2369 20.2H92.3169V19.15H78.9369C78.8369 19.15 78.7269 19.15 78.6069 19.15C78.5069 19.13 78.3969 19.13 78.2769 19.15H77.5569C77.3569 19.15 77.1769 19.15 77.0169 19.15C76.8569 19.15 76.6969 19.13 76.5369 19.09C76.3569 19.05 76.1869 19.01 76.0269 18.97C75.8869 18.93 75.7669 18.83 75.6669 18.67C75.5469 18.45 75.4669 18.24 75.4269 18.04C75.3869 17.84 75.4069 17.62 75.4869 17.38C75.5469 17.22 75.6369 17.1 75.7569 17.02C75.8769 16.92 76.0169 16.84 76.1769 16.78C76.3369 16.72 76.4869 16.68 76.6269 16.66C76.7869 16.62 76.9269 16.59 77.0469 16.57C77.2069 16.55 77.3569 16.54 77.4969 16.54C77.6569 16.52 77.8169 16.51 77.9769 16.51H78.4869C78.5869 16.53 78.6769 16.54 78.7569 16.54C78.8569 16.54 78.9569 16.54 79.0569 16.54H92.6169C93.6369 16.54 94.4169 16.7 94.9569 17.02C95.4969 17.32 95.7669 17.82 95.7669 18.52V20.62C95.7669 20.9 95.6969 21.17 95.5569 21.43C95.4369 21.69 95.2169 21.92 94.8969 22.12C94.6369 22.28 94.3769 22.37 94.1169 22.39C93.8569 22.39 93.5969 22.39 93.3369 22.39H79.0869V23.5H94.3869ZM87.3069 12.46C87.3069 12.86 87.1269 13.23 86.7669 13.57C86.4269 13.89 86.0669 14.07 85.6869 14.11C85.1869 14.19 84.7469 14.22 84.3669 14.2C83.9869 14.18 83.5369 14.17 83.0169 14.17C81.9369 14.17 80.8969 14.17 79.8969 14.17C78.9169 14.17 77.8869 14.15 76.8069 14.11C76.1669 14.09 75.6869 13.85 75.3669 13.39C75.0469 12.93 74.8869 12.44 74.8869 11.92C74.8869 11.5 74.8769 11.02 74.8569 10.48C74.8569 9.92 74.8569 9.35 74.8569 8.77C74.8569 8.19 74.8569 7.62 74.8569 7.06C74.8569 6.5 74.8669 6.01 74.8869 5.59C74.9069 5.07 74.9069 4.61 74.8869 4.21C74.8869 3.81 75.0169 3.38 75.2769 2.92C75.4169 2.66 75.6169 2.45 75.8769 2.29C76.1369 2.13 76.4069 2.04 76.6869 2.02C76.9669 1.98 77.2369 2.01 77.4969 2.11C77.7569 2.21 77.9669 2.39 78.1269 2.65C78.2869 2.93 78.3969 3.21 78.4569 3.49C78.5369 3.77 78.5969 4.06 78.6369 4.36C78.6769 4.66 78.6869 4.92 78.6669 5.14C78.6669 5.34 78.6569 5.61 78.6369 5.95H83.9469V4.3C83.9469 3.96 83.9969 3.58 84.0969 3.16C84.1969 2.72 84.4069 2.4 84.7269 2.2C84.9469 2.04 85.2469 1.96 85.6269 1.96C86.0069 1.94 86.3069 2.01 86.5269 2.17C86.7469 2.33 86.9069 2.55 87.0069 2.83C87.1069 3.11 87.1769 3.39 87.2169 3.67C87.2769 4.01 87.3069 4.35 87.3069 4.69V12.46ZM91.5669 13.12C91.4269 13.12 91.2469 13.11 91.0269 13.09C90.8269 13.07 90.6169 13.03 90.3969 12.97C90.1969 12.91 90.0069 12.83 89.8269 12.73C89.6469 12.63 89.5069 12.49 89.4069 12.31C89.3469 12.23 89.2969 12.12 89.2569 11.98C89.2369 11.84 89.2169 11.7 89.1969 11.56C89.1969 11.4 89.1969 11.25 89.1969 11.11C89.2169 10.97 89.2369 10.86 89.2569 10.78C89.2969 10.56 89.4069 10.37 89.5869 10.21C89.7669 10.03 89.9769 9.89 90.2169 9.79C90.2969 9.77 90.4469 9.75 90.6669 9.73C90.9069 9.71 91.1469 9.7 91.3869 9.7H92.2869C92.2669 9.48 92.2569 9.27 92.2569 9.07V8.14H91.5669C91.4269 8.14 91.2469 8.13 91.0269 8.11C90.8269 8.09 90.6169 8.05 90.3969 7.99C90.1969 7.93 90.0069 7.85 89.8269 7.75C89.6469 7.65 89.5069 7.51 89.4069 7.33C89.2469 7.07 89.1669 6.8 89.1669 6.52C89.1669 6.22 89.2269 5.95 89.3469 5.71C89.4869 5.45 89.6669 5.24 89.8869 5.08C90.1269 4.9 90.4069 4.8 90.7269 4.78C90.7469 4.78 90.8369 4.78 90.9969 4.78C91.1769 4.78 91.3669 4.78 91.5669 4.78C91.7669 4.78 91.9469 4.78 92.1069 4.78C92.2669 4.76 92.3469 4.73 92.3469 4.69C92.3869 4.49 92.3969 4.27 92.3769 4.03C92.3769 3.79 92.3869 3.55 92.4069 3.31C92.4269 3.07 92.4669 2.85 92.5269 2.65C92.6069 2.43 92.7469 2.24 92.9469 2.08C93.1069 1.96 93.2969 1.88 93.5169 1.84C93.7369 1.8 93.9469 1.77 94.1469 1.75C94.6469 1.69 95.0769 1.86 95.4369 2.26C95.5769 2.44 95.6769 2.61 95.7369 2.77C95.8169 3.01 95.8469 3.26 95.8269 3.52C95.8269 3.78 95.8269 4.04 95.8269 4.3V12.88C95.8269 12.88 95.8269 12.98 95.8269 13.18C95.8269 13.38 95.8069 13.61 95.7669 13.87C95.7269 14.11 95.6569 14.36 95.5569 14.62C95.4769 14.86 95.3369 15.04 95.1369 15.16C94.9969 15.24 94.8269 15.3 94.6269 15.34C94.4269 15.38 94.2469 15.4 94.0869 15.4C93.7469 15.4 93.4169 15.29 93.0969 15.07C92.8569 14.91 92.6869 14.72 92.5869 14.5C92.4669 14.28 92.3869 14.05 92.3469 13.81C92.3069 13.57 92.2769 13.34 92.2569 13.12H91.5669ZM83.9469 10.9C83.9069 10.58 83.8869 10.23 83.8869 9.85C83.8869 9.45 83.9069 9.07 83.9469 8.71H78.5769C78.5369 9.05 78.5269 9.32 78.5469 9.52C78.5869 9.7 78.6069 9.96 78.6069 10.3C78.6269 10.52 78.6469 10.67 78.6669 10.75C78.6869 10.83 78.8069 10.88 79.0269 10.9C79.2469 10.92 79.4669 10.93 79.6869 10.93C79.9069 10.91 80.1269 10.9 80.3469 10.9H83.9469Z" fill="#EDA1A1"/>
<path d="M126.121 23.5C126.441 23.54 126.721 23.62 126.961 23.74C127.201 23.86 127.371 24.08 127.471 24.4C127.711 25.12 127.451 25.63 126.691 25.93C126.451 26.03 126.211 26.09 125.971 26.11C125.731 26.13 125.501 26.14 125.281 26.14H111.331C110.931 26.14 110.511 26.13 110.071 26.11C109.651 26.11 109.221 26.1 108.781 26.08C108.361 26.06 108.011 25.91 107.731 25.63C107.451 25.35 107.291 24.98 107.251 24.52L107.161 22.42C107.141 22.2 107.141 21.94 107.161 21.64C107.181 21.34 107.281 21.09 107.461 20.89C107.741 20.59 108.111 20.4 108.571 20.32C109.051 20.24 109.511 20.2 109.951 20.2C110.231 20.2 110.691 20.2 111.331 20.2C111.991 20.2 112.881 20.21 114.001 20.23C115.121 20.23 116.501 20.23 118.141 20.23C119.801 20.23 121.771 20.23 124.051 20.23V19.15H109.291C109.091 19.15 108.911 19.15 108.751 19.15C108.591 19.15 108.431 19.13 108.271 19.09C108.091 19.05 107.931 19.01 107.791 18.97C107.651 18.93 107.531 18.83 107.431 18.67C107.151 18.25 107.081 17.82 107.221 17.38C107.281 17.22 107.371 17.1 107.491 17.02C107.611 16.92 107.751 16.84 107.911 16.78C108.071 16.72 108.221 16.68 108.361 16.66C108.521 16.64 108.661 16.62 108.781 16.6C109.081 16.54 109.391 16.51 109.711 16.51C109.991 16.51 110.291 16.51 110.611 16.51C110.951 16.51 111.351 16.52 111.811 16.54C112.271 16.54 112.801 16.54 113.401 16.54C114.021 16.54 114.741 16.54 115.561 16.54C115.581 16.32 115.591 16.11 115.591 15.91C115.611 15.69 115.621 15.47 115.621 15.25C115.501 15.25 115.231 15.25 114.811 15.25C114.391 15.23 113.901 15.22 113.341 15.22C112.801 15.22 112.211 15.22 111.571 15.22C110.951 15.2 110.361 15.19 109.801 15.19C109.261 15.17 108.791 15.15 108.391 15.13C107.991 15.11 107.731 15.09 107.611 15.07C107.291 15.03 107.031 15.01 106.831 15.01C106.651 15.01 106.431 14.89 106.171 14.65C105.911 14.41 105.781 14.1 105.781 13.72C105.781 13.3 105.911 12.96 106.171 12.7C106.311 12.54 106.501 12.43 106.741 12.37C106.981 12.29 107.211 12.24 107.431 12.22C107.651 12.18 107.841 12.17 108.001 12.19C108.181 12.19 108.281 12.19 108.301 12.19H125.461C125.761 12.19 126.061 12.19 126.361 12.19C126.661 12.19 126.951 12.2 127.231 12.22C127.511 12.24 127.781 12.27 128.041 12.31C128.321 12.33 128.571 12.44 128.791 12.64C129.011 12.8 129.131 12.98 129.151 13.18C129.191 13.38 129.211 13.6 129.211 13.84C129.211 14.14 129.121 14.38 128.941 14.56C128.781 14.74 128.551 14.88 128.251 14.98C127.851 15.14 127.401 15.21 126.901 15.19C126.421 15.17 125.981 15.17 125.581 15.19C124.581 15.23 123.611 15.25 122.671 15.25C121.751 15.25 120.781 15.25 119.761 15.25C119.761 15.47 119.761 15.69 119.761 15.91C119.761 16.11 119.751 16.32 119.731 16.54H124.351C125.371 16.54 126.151 16.7 126.691 17.02C127.231 17.32 127.501 17.82 127.501 18.52V20.65C127.501 20.93 127.431 21.21 127.291 21.49C127.171 21.75 126.951 21.97 126.631 22.15C126.371 22.31 126.111 22.4 125.851 22.42C125.591 22.42 125.331 22.42 125.071 22.42H110.851V23.5H126.121ZM124.561 7.96C124.941 8.14 125.301 8.34 125.641 8.56C126.001 8.78 126.341 9 126.661 9.22C126.821 9.36 126.911 9.54 126.931 9.76C126.971 9.98 126.941 10.2 126.841 10.42C126.761 10.62 126.631 10.8 126.451 10.96C126.271 11.12 126.061 11.23 125.821 11.29C125.181 11.39 124.581 11.39 124.021 11.29C123.481 11.17 122.921 10.98 122.341 10.72C121.801 10.48 121.281 10.25 120.781 10.03C120.301 9.81 119.831 9.57 119.371 9.31C119.231 9.23 119.041 9.13 118.801 9.01C118.581 8.89 118.361 8.78 118.141 8.68C117.881 8.56 117.601 8.43 117.301 8.29C116.961 8.45 116.631 8.6 116.311 8.74C116.031 8.86 115.751 8.99 115.471 9.13C115.211 9.25 115.001 9.35 114.841 9.43C114.321 9.71 113.841 9.95 113.401 10.15C112.961 10.33 112.481 10.54 111.961 10.78C111.561 10.94 111.151 11.12 110.731 11.32C110.331 11.5 109.901 11.59 109.441 11.59C109.081 11.57 108.731 11.48 108.391 11.32C108.051 11.14 107.841 10.86 107.761 10.48C107.741 10.28 107.761 10.05 107.821 9.79C107.901 9.51 108.031 9.28 108.211 9.1C108.411 8.92 108.651 8.74 108.931 8.56L111.001 7.54C111.341 7.38 111.641 7.24 111.901 7.12C112.161 7 112.471 6.86 112.831 6.7C112.991 6.6 113.171 6.5 113.371 6.4C113.571 6.28 113.781 6.17 114.001 6.07H112.111C111.791 6.07 111.511 6.07 111.271 6.07C111.051 6.07 110.791 6.05 110.491 6.01C110.271 5.97 110.031 5.95 109.771 5.95C109.511 5.95 109.271 5.9 109.051 5.8C108.931 5.76 108.821 5.69 108.721 5.59C108.641 5.47 108.571 5.35 108.511 5.23C108.391 5.03 108.321 4.81 108.301 4.57C108.281 4.33 108.321 4.1 108.421 3.88C108.581 3.58 108.841 3.35 109.201 3.19C109.561 3.03 109.931 2.95 110.311 2.95H111.001C111.321 2.99 111.551 3 111.691 2.98C111.851 2.96 112.091 2.95 112.411 2.95H115.081V1.75C115.081 1.15 115.341 0.739997 115.861 0.519997C116.381 0.299998 116.941 0.219998 117.541 0.279997C118.081 0.339997 118.491 0.459998 118.771 0.639998C119.071 0.799998 119.231 1.08 119.251 1.48C119.271 1.64 119.281 1.86 119.281 2.14C119.301 2.4 119.311 2.67 119.311 2.95H122.791C123.111 2.95 123.481 2.94 123.901 2.92C124.321 2.9 124.721 2.93 125.101 3.01C125.501 3.07 125.851 3.2 126.151 3.4C126.471 3.58 126.681 3.88 126.781 4.3C126.901 4.78 126.811 5.15 126.511 5.41C126.231 5.65 125.861 5.83 125.401 5.95C124.961 6.05 124.491 6.11 123.991 6.13C123.491 6.13 123.081 6.13 122.761 6.13C122.441 6.11 122.101 6.1 121.741 6.1C121.401 6.1 121.071 6.1 120.751 6.1C120.891 6.18 121.021 6.23 121.141 6.25C121.341 6.35 121.531 6.45 121.711 6.55C121.911 6.63 122.111 6.72 122.311 6.82C122.691 7 123.061 7.19 123.421 7.39C123.801 7.57 124.181 7.76 124.561 7.96Z" fill="#EDA1A1"/>
<path d="M130.764 15.37C130.484 15.25 130.284 15.02 130.164 14.68C130.004 14.28 129.974 13.88 130.074 13.48C130.194 13.08 130.374 12.7 130.614 12.34C130.854 11.98 131.124 11.64 131.424 11.32C131.744 11 132.014 10.7 132.234 10.42C132.574 10 132.904 9.58 133.224 9.16C133.544 8.74 133.874 8.31 134.214 7.87C134.454 7.53 134.704 7.13 134.964 6.67C135.224 6.21 135.374 5.76 135.414 5.32C135.414 5.2 135.424 5.05 135.444 4.87C135.464 4.67 135.474 4.47 135.474 4.27C135.494 4.05 135.514 3.85 135.534 3.67C135.554 3.49 135.584 3.34 135.624 3.22C135.744 2.82 135.934 2.55 136.194 2.41C136.474 2.25 136.894 2.17 137.454 2.17C137.774 2.17 138.134 2.23 138.534 2.35C138.934 2.45 139.204 2.66 139.344 2.98C139.484 3.34 139.524 3.76 139.464 4.24C139.424 4.7 139.464 5.12 139.584 5.5C139.684 5.8 139.834 6.11 140.034 6.43C140.234 6.75 140.444 7.07 140.664 7.39C141.044 7.93 141.424 8.52 141.804 9.16C142.184 9.78 142.534 10.31 142.854 10.75C143.174 11.17 143.484 11.61 143.784 12.07C144.084 12.51 144.284 12.99 144.384 13.51C144.484 13.95 144.434 14.32 144.234 14.62C144.054 14.9 143.804 15.11 143.484 15.25C143.164 15.37 142.814 15.4 142.434 15.34C142.054 15.26 141.724 15.08 141.444 14.8C140.704 14.04 140.034 13.23 139.434 12.37C138.834 11.49 138.214 10.63 137.574 9.79C137.574 9.79 137.484 9.89 137.304 10.09C137.124 10.29 136.904 10.55 136.644 10.87C136.384 11.19 136.094 11.54 135.774 11.92C135.454 12.3 135.154 12.66 134.874 13C134.594 13.34 134.344 13.64 134.124 13.9C133.924 14.14 133.804 14.29 133.764 14.35C133.544 14.61 133.294 14.84 133.014 15.04C132.734 15.24 132.424 15.38 132.084 15.46C131.864 15.5 131.634 15.52 131.394 15.52C131.174 15.52 130.964 15.47 130.764 15.37ZM135.384 25.81C134.564 25.81 133.904 25.63 133.404 25.27C132.904 24.93 132.654 24.53 132.654 24.07V19.75C132.614 19.31 132.614 18.86 132.654 18.4C132.694 17.98 132.854 17.64 133.134 17.38C133.434 17.12 133.814 16.99 134.274 16.99C134.374 16.99 134.554 17 134.814 17.02C135.074 17.02 135.254 17.04 135.354 17.08C135.614 17.16 135.814 17.28 135.954 17.44C136.114 17.6 136.234 17.79 136.314 18.01C136.394 18.21 136.444 18.43 136.464 18.67C136.484 18.89 136.504 19.11 136.524 19.33C136.524 19.41 136.524 19.6 136.524 19.9C136.544 20.18 136.554 20.49 136.554 20.83C136.574 21.15 136.584 21.45 136.584 21.73C136.604 22.01 136.624 22.18 136.644 22.24C136.704 22.26 136.864 22.29 137.124 22.33C137.404 22.35 137.914 22.36 138.654 22.36C139.294 22.36 139.684 22.35 139.824 22.33C139.984 22.31 140.074 22.3 140.094 22.3H149.904C149.904 22.3 149.964 22.32 150.084 22.36C150.224 22.4 150.374 22.47 150.534 22.57C150.694 22.65 150.844 22.77 150.984 22.93C151.124 23.07 151.214 23.24 151.254 23.44C151.354 24.2 151.224 24.79 150.864 25.21C150.624 25.49 150.364 25.66 150.084 25.72C149.804 25.78 149.654 25.81 149.634 25.81H135.384ZM150.624 11.35V14.47C150.604 14.69 150.574 14.92 150.534 15.16C150.494 15.38 150.414 15.6 150.294 15.82C150.154 16.08 149.984 16.27 149.784 16.39C149.464 16.61 149.124 16.72 148.764 16.72C148.464 16.72 148.184 16.64 147.924 16.48C147.724 16.36 147.564 16.21 147.444 16.03C147.324 15.85 147.224 15.68 147.144 15.52C147.084 15.36 147.044 15.22 147.024 15.1C147.004 14.96 146.994 14.89 146.994 14.89V4.36C146.994 4.26 147.004 4.04 147.024 3.7C147.064 3.34 147.144 3.04 147.264 2.8C147.464 2.38 147.874 2.14 148.494 2.08C148.834 2.04 149.154 2.06 149.454 2.14C149.754 2.22 149.984 2.35 150.144 2.53C150.264 2.69 150.344 2.85 150.384 3.01C150.444 3.15 150.494 3.3 150.534 3.46C150.594 3.66 150.624 3.87 150.624 4.09C150.644 4.31 150.644 4.53 150.624 4.75V7.99C150.704 7.99 150.854 8 151.074 8.02C151.294 8.04 151.524 8.06 151.764 8.08C152.024 8.08 152.264 8.09 152.484 8.11C152.704 8.13 152.854 8.15 152.934 8.17C153.334 8.25 153.614 8.37 153.774 8.53C153.934 8.67 154.044 8.85 154.104 9.07C154.144 9.29 154.164 9.55 154.164 9.85C154.164 10.13 154.104 10.37 153.984 10.57C153.744 10.97 153.384 11.2 152.904 11.26C152.424 11.32 151.894 11.35 151.314 11.35H150.624Z" fill="#EDA1A1"/>
<path d="M164.657 21.37C164.657 20.47 164.917 19.72 165.437 19.12C165.977 18.52 166.697 18.05 167.597 17.71C168.497 17.35 169.557 17.1 170.777 16.96C171.997 16.82 173.297 16.75 174.677 16.75C176.057 16.75 177.357 16.8 178.577 16.9C179.797 17 180.857 17.22 181.757 17.56C182.657 17.88 183.367 18.34 183.887 18.94C184.427 19.54 184.697 20.35 184.697 21.37C184.697 22.37 184.427 23.17 183.887 23.77C183.367 24.37 182.657 24.83 181.757 25.15C180.857 25.49 179.797 25.71 178.577 25.81C177.357 25.93 176.057 25.99 174.677 25.99C173.297 25.99 171.997 25.93 170.777 25.81C169.557 25.71 168.497 25.49 167.597 25.15C166.697 24.83 165.977 24.37 165.437 23.77C164.917 23.17 164.657 22.37 164.657 21.37ZM172.097 5.59C172.097 5.59 172.087 5.73 172.067 6.01C172.067 6.29 172.067 6.6 172.067 6.94C172.067 7.28 172.067 7.6 172.067 7.9C172.087 8.2 172.097 8.37 172.097 8.41C172.197 8.51 172.377 8.68 172.637 8.92C172.897 9.14 173.117 9.33 173.297 9.49C173.497 9.65 173.697 9.83 173.897 10.03C174.117 10.21 174.337 10.41 174.557 10.63C174.697 10.77 174.827 10.91 174.947 11.05C175.067 11.17 175.177 11.28 175.277 11.38C175.657 11.76 176.037 12.17 176.417 12.61C176.797 13.05 177.057 13.5 177.197 13.96C177.257 14.14 177.267 14.34 177.227 14.56C177.187 14.78 177.057 14.97 176.837 15.13C176.497 15.33 176.137 15.43 175.757 15.43C175.317 15.43 174.897 15.34 174.497 15.16C174.097 14.98 173.777 14.8 173.537 14.62C173.157 14.34 172.807 14.05 172.487 13.75C172.167 13.43 171.847 13.11 171.527 12.79C171.307 12.57 171.057 12.32 170.777 12.04C170.497 11.74 170.217 11.48 169.937 11.26L169.127 12.07C168.987 12.21 168.847 12.35 168.707 12.49C168.567 12.61 168.437 12.74 168.317 12.88C168.057 13.16 167.787 13.45 167.507 13.75C167.227 14.03 166.907 14.3 166.547 14.56C165.727 15.16 164.957 15.46 164.237 15.46C164.137 15.46 164.047 15.46 163.967 15.46C163.907 15.46 163.827 15.44 163.727 15.4C163.287 15.3 162.997 15.12 162.857 14.86C162.717 14.64 162.667 14.39 162.707 14.11C162.767 13.83 162.857 13.58 162.977 13.36C163.137 13.14 163.317 12.93 163.517 12.73C163.717 12.51 163.917 12.29 164.117 12.07C164.297 11.87 164.577 11.59 164.957 11.23C165.357 10.85 165.757 10.47 166.157 10.09C166.557 9.69 166.927 9.33 167.267 9.01C167.607 8.69 167.817 8.49 167.897 8.41V5.59H165.977C165.737 5.59 165.457 5.6 165.137 5.62C164.817 5.62 164.497 5.6 164.177 5.56C163.877 5.52 163.597 5.44 163.337 5.32C163.077 5.18 162.887 4.96 162.767 4.66C162.667 4.44 162.597 4.19 162.557 3.91C162.537 3.63 162.557 3.37 162.617 3.13C162.697 2.85 162.877 2.66 163.157 2.56C163.437 2.44 163.707 2.36 163.967 2.32C164.007 2.32 164.167 2.32 164.447 2.32C164.747 2.32 165.067 2.32 165.407 2.32C165.747 2.32 166.067 2.32 166.367 2.32C166.667 2.32 166.847 2.31 166.907 2.29H173.927C174.727 2.29 175.397 2.34 175.937 2.44C176.497 2.54 176.947 2.79 177.287 3.19C177.387 3.31 177.447 3.47 177.467 3.67C177.507 3.87 177.507 4.08 177.467 4.3C177.447 4.5 177.387 4.69 177.287 4.87C177.207 5.05 177.087 5.18 176.927 5.26C176.767 5.32 176.577 5.39 176.357 5.47C176.137 5.53 175.947 5.57 175.787 5.59C175.507 5.61 175.217 5.62 174.917 5.62C174.637 5.6 174.357 5.59 174.077 5.59H172.097ZM184.157 10.9V13.93C184.137 14.15 184.107 14.38 184.067 14.62C184.027 14.84 183.947 15.06 183.827 15.28C183.707 15.52 183.537 15.72 183.317 15.88C183.157 15.98 182.967 16.06 182.747 16.12C182.547 16.16 182.367 16.18 182.207 16.18C182.047 16.18 181.877 16.17 181.697 16.15C181.517 16.11 181.367 16.05 181.247 15.97C181.047 15.85 180.887 15.7 180.767 15.52C180.647 15.34 180.547 15.17 180.467 15.01C180.407 14.83 180.367 14.68 180.347 14.56C180.327 14.42 180.317 14.35 180.317 14.35V4.15C180.297 4.07 180.307 3.85 180.347 3.49C180.387 3.13 180.467 2.83 180.587 2.59C180.687 2.39 180.857 2.23 181.097 2.11C181.357 1.99 181.627 1.91 181.907 1.87C182.247 1.83 182.587 1.85 182.927 1.93C183.267 2.01 183.517 2.14 183.677 2.32C183.797 2.48 183.877 2.64 183.917 2.8C183.977 2.94 184.027 3.09 184.067 3.25C184.127 3.45 184.157 3.66 184.157 3.88C184.177 4.1 184.177 4.32 184.157 4.54V6.88C184.157 6.98 184.147 7.09 184.127 7.21C184.127 7.31 184.137 7.43 184.157 7.57C184.237 7.57 184.387 7.58 184.607 7.6C184.827 7.6 185.057 7.61 185.297 7.63C185.537 7.63 185.767 7.64 185.987 7.66C186.207 7.68 186.367 7.7 186.467 7.72C186.867 7.8 187.147 7.92 187.307 8.08C187.467 8.22 187.567 8.4 187.607 8.62C187.667 8.84 187.697 9.1 187.697 9.4C187.697 9.68 187.637 9.92 187.517 10.12C187.277 10.52 186.917 10.75 186.437 10.81C185.957 10.85 185.427 10.88 184.847 10.9H184.157ZM180.647 21.37C180.647 21.03 180.467 20.76 180.107 20.56C179.747 20.36 179.277 20.21 178.697 20.11C178.137 20.01 177.497 19.95 176.777 19.93C176.077 19.89 175.377 19.87 174.677 19.87C173.977 19.87 173.277 19.89 172.577 19.93C171.897 19.95 171.277 20.01 170.717 20.11C170.177 20.21 169.737 20.36 169.397 20.56C169.057 20.76 168.887 21.03 168.887 21.37C168.887 21.67 169.057 21.92 169.397 22.12C169.737 22.32 170.177 22.47 170.717 22.57C171.277 22.67 171.897 22.74 172.577 22.78C173.277 22.82 173.977 22.84 174.677 22.84C175.377 22.84 176.077 22.84 176.777 22.84C177.497 22.84 178.137 22.8 178.697 22.72C179.277 22.64 179.747 22.5 180.107 22.3C180.467 22.08 180.647 21.77 180.647 21.37Z" fill="#EDA1A1"/>
<path d="M193.722 15.94C193.522 15.98 193.382 16.09 193.302 16.27C193.222 16.45 193.172 16.66 193.152 16.9C193.132 17.12 193.132 17.34 193.152 17.56C193.172 17.78 193.182 17.96 193.182 18.1C193.182 18.34 193.182 18.58 193.182 18.82C193.182 19.06 193.202 19.32 193.242 19.6C193.242 19.72 193.232 19.89 193.212 20.11C193.212 20.31 193.262 20.46 193.362 20.56C193.362 20.6 193.382 20.63 193.422 20.65C193.462 20.67 193.502 20.68 193.542 20.68C193.762 20.68 193.952 20.68 194.112 20.68C194.292 20.68 194.462 20.68 194.622 20.68C194.782 20.68 194.942 20.68 195.102 20.68C195.282 20.66 195.482 20.64 195.702 20.62C196.062 20.62 196.452 20.62 196.872 20.62C197.312 20.62 197.752 20.62 198.192 20.62C198.652 20.62 199.102 20.63 199.542 20.65C199.982 20.65 200.372 20.66 200.712 20.68C200.992 20.72 201.202 20.79 201.342 20.89C201.502 20.99 201.632 21.12 201.732 21.28C201.852 21.44 201.932 21.62 201.972 21.82C202.012 22 202.032 22.2 202.032 22.42C202.072 22.66 202.052 22.89 201.972 23.11C201.912 23.31 201.832 23.47 201.732 23.59C201.632 23.71 201.512 23.82 201.372 23.92C201.252 24 201.112 24.09 200.952 24.19C200.552 24.37 200.152 24.46 199.752 24.46C199.372 24.44 198.972 24.45 198.552 24.49C198.372 24.49 198.142 24.5 197.862 24.52C197.602 24.52 197.322 24.52 197.022 24.52C196.722 24.52 196.432 24.52 196.152 24.52C195.872 24.52 195.642 24.51 195.462 24.49C195.302 24.47 195.182 24.46 195.102 24.46C195.022 24.46 194.952 24.46 194.892 24.46C194.832 24.46 194.762 24.47 194.682 24.49C194.622 24.49 194.522 24.49 194.382 24.49C194.102 24.45 193.832 24.44 193.572 24.46C193.312 24.48 193.042 24.49 192.762 24.49C192.282 24.45 191.802 24.4 191.322 24.34C190.842 24.28 190.402 24.11 190.002 23.83C189.722 23.67 189.512 23.4 189.372 23.02C189.252 22.78 189.162 22.51 189.102 22.21C189.042 21.91 189.032 21.62 189.072 21.34C189.092 20.44 189.082 19.44 189.042 18.34C189.022 17.24 189.012 16.22 189.012 15.28C189.012 14.92 189.002 14.52 188.982 14.08C188.982 13.62 189.072 13.24 189.252 12.94C189.432 12.66 189.632 12.46 189.852 12.34C190.072 12.2 190.302 12.11 190.542 12.07C190.802 12.03 191.062 12.02 191.322 12.04C191.602 12.04 191.882 12.04 192.162 12.04H194.922C195.162 12.04 195.392 12.04 195.612 12.04C195.832 12.02 196.072 11.98 196.332 11.92C196.512 11.86 196.632 11.74 196.692 11.56C196.792 11.04 196.842 10.47 196.842 9.85C196.862 9.23 196.852 8.66 196.812 8.14C196.812 7.92 196.812 7.64 196.812 7.3C196.812 6.96 196.752 6.7 196.632 6.52C196.492 6.32 196.182 6.22 195.702 6.22L191.022 6.28C190.742 6.28 190.432 6.25 190.092 6.19C189.752 6.11 189.492 5.96 189.312 5.74C189.252 5.64 189.192 5.55 189.132 5.47C189.072 5.37 189.012 5.24 188.952 5.08C188.792 4.54 188.832 4.05 189.072 3.61C189.332 3.17 189.742 2.89 190.302 2.77C190.782 2.67 191.262 2.64 191.742 2.68C192.222 2.7 192.702 2.69 193.182 2.65H196.812C197.212 2.65 197.622 2.65 198.042 2.65C198.462 2.65 198.872 2.71 199.272 2.83C199.692 2.95 200.052 3.25 200.352 3.73C200.392 3.83 200.422 3.92 200.442 4C200.462 4.08 200.492 4.18 200.532 4.3C200.572 4.4 200.602 4.49 200.622 4.57C200.642 4.65 200.652 4.74 200.652 4.84C200.692 5.18 200.712 5.58 200.712 6.04C200.712 6.5 200.712 6.88 200.712 7.18C200.712 7.82 200.722 8.52 200.742 9.28C200.762 10.04 200.772 10.74 200.772 11.38C200.772 12.04 200.762 12.68 200.742 13.3C200.742 13.92 200.652 14.46 200.472 14.92C200.272 15.32 199.992 15.58 199.632 15.7C199.292 15.86 198.922 15.93 198.522 15.91C198.122 15.89 197.752 15.88 197.412 15.88C196.952 15.88 196.542 15.89 196.182 15.91C195.822 15.93 195.462 15.94 195.102 15.94C194.942 15.94 194.802 15.94 194.682 15.94C194.582 15.92 194.482 15.91 194.382 15.91C194.302 15.89 194.212 15.89 194.112 15.91C194.012 15.91 193.882 15.92 193.722 15.94ZM205.812 5.59C205.812 5.33 205.812 5.05 205.812 4.75C205.832 4.43 205.862 4.12 205.902 3.82C205.962 3.5 206.032 3.21 206.112 2.95C206.212 2.67 206.352 2.44 206.532 2.26C206.792 2 207.112 1.87 207.492 1.87H207.552C208.052 1.89 208.442 2.04 208.722 2.32C209.002 2.58 209.212 2.9 209.352 3.28C209.512 3.66 209.612 4.06 209.652 4.48C209.692 4.88 209.712 5.24 209.712 5.56V23.32C209.712 23.34 209.712 23.44 209.712 23.62C209.712 23.78 209.692 23.98 209.652 24.22C209.612 24.46 209.552 24.7 209.472 24.94C209.392 25.18 209.262 25.38 209.082 25.54C208.942 25.68 208.742 25.79 208.482 25.87C208.222 25.95 207.982 25.99 207.762 25.99C207.282 25.99 206.902 25.83 206.622 25.51C206.362 25.23 206.192 24.96 206.112 24.7C206.052 24.42 206.002 24.11 205.962 23.77C205.962 23.59 205.952 23.33 205.932 22.99C205.932 22.63 205.932 22.24 205.932 21.82C205.932 21.4 205.932 20.99 205.932 20.59C205.932 20.17 205.932 19.82 205.932 19.54H203.502C203.042 19.54 202.682 19.47 202.422 19.33C202.182 19.19 202.012 19.01 201.912 18.79C201.852 18.67 201.792 18.55 201.732 18.43C201.692 18.29 201.672 18.15 201.672 18.01C201.672 17.87 201.672 17.75 201.672 17.65C201.672 17.55 201.692 17.43 201.732 17.29C201.772 17.13 201.822 16.96 201.882 16.78C201.942 16.6 202.032 16.46 202.152 16.36C202.412 16.16 202.692 16.03 202.992 15.97C203.152 15.95 203.352 15.93 203.592 15.91C203.852 15.89 204.122 15.88 204.402 15.88C204.682 15.86 204.952 15.85 205.212 15.85C205.472 15.83 205.682 15.81 205.842 15.79C205.842 15.43 205.832 14.91 205.812 14.23C205.812 13.55 205.812 12.82 205.812 12.04L203.532 11.98C203.152 11.96 202.812 11.91 202.512 11.83C202.212 11.75 202.012 11.6 201.912 11.38C201.772 11.1 201.702 10.83 201.702 10.57C201.702 10.43 201.702 10.31 201.702 10.21C201.702 10.11 201.722 9.99 201.762 9.85C201.802 9.69 201.852 9.53 201.912 9.37C201.972 9.21 202.062 9.08 202.182 8.98C202.442 8.78 202.722 8.65 203.022 8.59C203.242 8.55 203.622 8.53 204.162 8.53C204.722 8.51 205.262 8.49 205.782 8.47C205.782 8.21 205.782 7.93 205.782 7.63C205.782 7.31 205.782 7.02 205.782 6.76C205.782 6.48 205.782 6.24 205.782 6.04C205.802 5.82 205.812 5.67 205.812 5.59Z" fill="#EDA1A1"/>
<path d="M214.599 25.54C214.579 25.54 214.549 25.52 214.509 25.48C214.309 25.32 214.169 25.1 214.089 24.82C214.029 24.54 213.999 24.29 213.999 24.07C213.979 23.71 213.949 23.35 213.909 22.99C213.889 22.63 213.879 22.28 213.879 21.94C213.879 21.42 213.879 20.95 213.879 20.53C213.879 20.11 213.929 19.65 214.029 19.15C214.089 18.83 214.189 18.58 214.329 18.4C214.469 18.2 214.689 18.04 214.989 17.92C215.549 17.7 216.109 17.59 216.669 17.59H230.199C230.579 17.61 230.969 17.64 231.369 17.68C231.769 17.72 232.149 17.82 232.509 17.98C232.909 18.14 233.169 18.37 233.289 18.67C233.429 18.95 233.519 19.29 233.559 19.69C233.579 20.03 233.589 20.42 233.589 20.86C233.609 21.3 233.609 21.75 233.589 22.21C233.569 22.65 233.539 23.09 233.499 23.53C233.459 23.97 233.389 24.37 233.289 24.73C233.229 24.95 233.159 25.14 233.079 25.3C232.999 25.48 232.839 25.61 232.599 25.69C232.379 25.77 232.149 25.82 231.909 25.84C231.689 25.86 231.469 25.87 231.249 25.87L216.219 25.81C215.959 25.79 215.679 25.78 215.379 25.78C215.079 25.78 214.819 25.7 214.599 25.54ZM216.009 6.88C215.669 6.86 215.339 6.81 215.019 6.73C214.699 6.63 214.419 6.5 214.179 6.34C213.939 6.18 213.769 5.97 213.669 5.71C213.569 5.45 213.569 5.13 213.669 4.75C213.829 4.11 214.219 3.63 214.839 3.31C215.299 3.05 215.779 2.9 216.279 2.86C216.799 2.82 217.319 2.8 217.839 2.8C217.999 2.78 218.159 2.77 218.319 2.77C218.499 2.77 218.669 2.77 218.829 2.77C218.989 2.75 219.149 2.74 219.309 2.74C219.489 2.74 219.669 2.74 219.849 2.74C220.009 2.74 220.429 2.74 221.109 2.74C221.809 2.74 222.559 2.75 223.359 2.77C224.159 2.77 224.899 2.78 225.579 2.8C226.259 2.8 226.679 2.8 226.839 2.8C227.159 2.82 227.469 2.84 227.769 2.86C228.089 2.86 228.409 2.86 228.729 2.86C229.209 2.86 229.689 2.89 230.169 2.95C230.649 2.99 231.119 3.08 231.579 3.22C232.019 3.36 232.269 3.59 232.329 3.91C232.409 4.21 232.479 4.56 232.539 4.96C232.599 5.4 232.639 5.79 232.659 6.13C232.699 6.47 232.709 6.8 232.689 7.12C232.689 7.44 232.669 7.77 232.629 8.11C232.589 8.45 232.549 8.84 232.509 9.28C232.469 9.68 232.399 10.04 232.299 10.36C232.199 10.68 231.949 10.92 231.549 11.08C231.229 11.2 230.839 11.27 230.379 11.29C229.919 11.31 229.559 11.18 229.299 10.9C229.079 10.68 228.949 10.39 228.909 10.03C228.889 9.65 228.859 9.31 228.819 9.01C228.779 8.73 228.769 8.43 228.789 8.11C228.809 7.79 228.739 7.52 228.579 7.3C228.439 7.12 228.249 7 228.009 6.94C227.789 6.86 227.549 6.82 227.289 6.82C227.049 6.8 226.799 6.8 226.539 6.82C226.299 6.82 226.089 6.82 225.909 6.82H218.289C218.169 6.82 218.029 6.83 217.869 6.85C217.709 6.85 217.549 6.86 217.389 6.88C217.009 6.92 216.549 6.92 216.009 6.88ZM231.279 12.28C231.599 12.28 231.959 12.28 232.359 12.28C232.779 12.28 233.159 12.33 233.499 12.43C233.839 12.53 234.129 12.71 234.369 12.97C234.609 13.21 234.729 13.59 234.729 14.11C234.729 14.59 234.529 15.01 234.129 15.37C233.809 15.65 233.419 15.81 232.959 15.85C232.519 15.87 232.099 15.87 231.699 15.85C231.679 15.85 231.619 15.85 231.519 15.85C231.439 15.83 231.229 15.82 230.889 15.82C230.569 15.82 230.059 15.82 229.359 15.82C228.659 15.82 227.679 15.82 226.419 15.82C225.179 15.82 223.599 15.82 221.679 15.82C219.759 15.82 217.409 15.82 214.629 15.82C214.609 15.82 214.519 15.82 214.359 15.82C214.199 15.82 214.009 15.8 213.789 15.76C213.589 15.72 213.379 15.67 213.159 15.61C212.939 15.53 212.759 15.41 212.619 15.25C212.379 14.99 212.259 14.64 212.259 14.2C212.259 13.78 212.389 13.44 212.649 13.18C212.909 12.94 213.179 12.74 213.459 12.58C213.739 12.42 214.029 12.32 214.329 12.28C214.389 12.28 214.449 12.29 214.509 12.31C214.569 12.31 214.629 12.3 214.689 12.28C214.969 12.24 215.269 12.24 215.589 12.28C215.909 12.3 216.239 12.3 216.579 12.28C217.619 12.24 218.669 12.23 219.729 12.25C220.809 12.27 221.929 12.28 223.089 12.28C224.349 12.28 225.689 12.27 227.109 12.25C228.529 12.23 229.919 12.24 231.279 12.28ZM217.449 22.12C217.449 22.22 217.449 22.32 217.449 22.42C217.469 22.52 217.509 22.59 217.569 22.63C217.609 22.67 217.669 22.7 217.749 22.72C217.849 22.72 217.949 22.72 218.049 22.72C218.149 22.72 218.269 22.71 218.409 22.69H227.199C227.479 22.71 227.749 22.73 228.009 22.75C228.229 22.77 228.459 22.78 228.699 22.78C228.939 22.78 229.159 22.76 229.359 22.72C229.559 22.7 229.679 22.64 229.719 22.54C229.759 22.44 229.789 22.3 229.809 22.12C229.829 21.96 229.839 21.78 229.839 21.58C229.839 21.36 229.779 21.17 229.659 21.01C229.519 20.85 229.319 20.77 229.059 20.77C228.819 20.75 228.599 20.75 228.399 20.77H220.659C220.219 20.73 219.789 20.72 219.369 20.74C218.949 20.74 218.519 20.75 218.079 20.77C217.919 20.77 217.789 20.78 217.689 20.8C217.609 20.8 217.549 20.89 217.509 21.07C217.469 21.21 217.449 21.35 217.449 21.49C217.449 21.61 217.449 21.73 217.449 21.85C217.469 21.89 217.469 21.93 217.449 21.97C217.449 22.01 217.449 22.06 217.449 22.12Z" fill="#EDA1A1"/>
</svg>
