<svg width="118" height="15" viewBox="0 0 118 15" fill="none" xmlns="http://www.w3.org/2000/svg">
<path d="M7.86682 12.36C7.82682 12.36 7.80682 12.335 7.80682 12.285V7.47L6.69682 7.515C6.45682 7.525 6.19182 7.54 5.90182 7.56C5.61182 7.58 5.34682 7.6 5.10682 7.62C4.99682 7.63 4.92682 7.625 4.89682 7.605C4.87682 7.585 4.86182 7.55 4.85182 7.5C4.84182 7.49 4.83682 7.48 4.83682 7.47L4.74682 6.87C4.74682 6.85 4.75182 6.825 4.76182 6.795C4.77182 6.765 4.80182 6.755 4.85182 6.765C5.04182 6.785 5.31182 6.8 5.66182 6.81C6.02182 6.82 6.39682 6.82 6.78682 6.81C7.17682 6.79 7.51682 6.77 7.80682 6.75V4.59L7.32682 4.605C7.08682 4.615 6.82182 4.63 6.53182 4.65C6.25182 4.67 5.99182 4.69 5.75182 4.71C5.64182 4.72 5.57182 4.715 5.54182 4.695C5.52182 4.675 5.50682 4.64 5.49682 4.59C5.48682 4.58 5.48182 4.57 5.48182 4.56C5.44182 4.43 5.41682 4.315 5.40682 4.215C5.19682 4.715 4.89682 5.3 4.50682 5.97C4.11682 6.63 3.61682 7.31 3.00682 8.01C2.40682 8.7 1.68682 9.345 0.846818 9.945C0.696818 10.065 0.541818 10.065 0.381818 9.945L0.0218182 9.615C-0.0181818 9.575 -0.00318182 9.525 0.0668182 9.465C0.616818 9.145 1.12682 8.755 1.59682 8.295C2.07682 7.835 2.51182 7.345 2.90182 6.825C3.29182 6.295 3.62682 5.77 3.90682 5.25C4.19682 4.72 4.42182 4.23 4.58182 3.78C4.74182 3.33 4.82682 2.955 4.83682 2.655C4.83682 2.545 4.79182 2.49 4.70182 2.49C4.29182 2.51 3.91182 2.54 3.56182 2.58C3.22182 2.61 2.87682 2.64 2.52682 2.67L0.996818 2.805C0.896818 2.815 0.831818 2.805 0.801818 2.775C0.771818 2.735 0.746818 2.69 0.726818 2.64C0.716818 2.63 0.711818 2.62 0.711818 2.61C0.671818 2.5 0.641818 2.41 0.621818 2.34C0.601818 2.27 0.571818 2.15 0.531818 1.98C0.521818 1.96 0.526818 1.935 0.546818 1.905C0.566818 1.875 0.601818 1.865 0.651818 1.875C1.30182 1.935 1.93682 1.95 2.55682 1.92C3.17682 1.89 3.81182 1.835 4.46182 1.755C4.58182 1.745 4.70682 1.725 4.83682 1.695C4.97682 1.665 5.04682 1.65 5.04682 1.65C5.09682 1.63 5.15182 1.63 5.21182 1.65C5.33182 1.69 5.48682 1.74 5.67682 1.8C5.86682 1.85 5.98182 1.885 6.02182 1.905C6.10182 1.945 6.13682 2.01 6.12682 2.1L5.78182 3.195C5.75182 3.285 5.71682 3.39 5.67682 3.51C5.63682 3.63 5.58682 3.76 5.52682 3.9C5.77682 3.93 6.11682 3.945 6.54682 3.945C6.98682 3.945 7.40682 3.93 7.80682 3.9V2.22C7.80682 1.84 7.79682 1.49 7.77682 1.17C7.75682 0.85 7.72182 0.64 7.67182 0.54C7.65182 0.49 7.65182 0.455 7.67182 0.435C7.70182 0.405 7.73682 0.39 7.77682 0.39L8.66182 0.405C8.71182 0.425 8.73682 0.465 8.73682 0.524999C8.71682 0.815 8.70682 1.075 8.70682 1.305C8.70682 1.535 8.70682 1.775 8.70682 2.025C8.70682 2.085 8.70682 2.15 8.70682 2.22C8.70682 2.29 8.70682 2.365 8.70682 2.445V11.985C8.70682 12.135 8.69682 12.225 8.67682 12.255C8.66682 12.285 8.63682 12.305 8.58682 12.315C8.55682 12.315 8.48682 12.32 8.37682 12.33C8.27682 12.33 8.17682 12.335 8.07682 12.345C7.97682 12.355 7.90682 12.36 7.86682 12.36ZM10.1318 12.75C10.0918 12.75 10.0718 12.725 10.0718 12.675V1.83C10.0718 1.45 10.0618 1.1 10.0418 0.78C10.0318 0.46 10.0018 0.25 9.95182 0.15C9.93182 0.0999999 9.93182 0.0650001 9.95182 0.0450003C9.98182 0.0150001 10.0168 0 10.0568 0L10.9418 0.0149998C10.9918 0.0350001 11.0168 0.0750002 11.0168 0.135C10.9968 0.435 10.9818 0.705 10.9718 0.945C10.9718 1.185 10.9718 1.435 10.9718 1.695C10.9718 1.755 10.9718 1.815 10.9718 1.875C10.9718 1.935 10.9718 1.995 10.9718 2.055V12.375C10.9718 12.525 10.9618 12.615 10.9418 12.645C10.9318 12.675 10.9018 12.695 10.8518 12.705C10.8218 12.705 10.7518 12.705 10.6418 12.705C10.5418 12.715 10.4418 12.725 10.3418 12.735C10.2418 12.745 10.1718 12.75 10.1318 12.75Z" fill="black"/>
<path d="M20.9227 13.875C20.2927 13.875 19.7327 13.76 19.2427 13.53C18.7627 13.31 18.3827 13.005 18.1027 12.615C17.8327 12.225 17.6977 11.775 17.6977 11.265C17.6977 10.775 17.8477 10.33 18.1477 9.93C18.4477 9.53 18.8477 9.215 19.3477 8.985C19.8477 8.745 20.3927 8.625 20.9827 8.625C21.5827 8.625 22.1277 8.725 22.6177 8.925C23.1177 9.115 23.5127 9.405 23.8027 9.795C24.1027 10.175 24.2427 10.645 24.2227 11.205C24.2127 11.725 24.0577 12.185 23.7577 12.585C23.4677 12.985 23.0727 13.3 22.5727 13.53C22.0827 13.76 21.5327 13.875 20.9227 13.875ZM13.8277 7.98L13.4527 7.65C13.4127 7.61 13.4277 7.565 13.4977 7.515C13.5077 7.505 13.5127 7.5 13.5127 7.5C14.2327 7.03 14.8577 6.485 15.3877 5.865C15.9177 5.245 16.3327 4.605 16.6327 3.945C16.9327 3.285 17.0977 2.66 17.1277 2.07C16.9877 2.08 16.8377 2.09 16.6777 2.1C16.5177 2.11 16.3377 2.125 16.1377 2.145C15.8377 2.165 15.5777 2.185 15.3577 2.205C15.1477 2.225 14.9077 2.255 14.6377 2.295C14.5377 2.305 14.4727 2.295 14.4427 2.265C14.4127 2.225 14.3877 2.18 14.3677 2.13C14.3577 2.12 14.3527 2.11 14.3527 2.1C14.3227 2.02 14.2927 1.93 14.2627 1.83C14.2427 1.73 14.2177 1.615 14.1877 1.485C14.1777 1.465 14.1827 1.44 14.2027 1.41C14.2227 1.38 14.2577 1.365 14.3077 1.365C14.5477 1.375 14.8127 1.39 15.1027 1.41C15.3927 1.42 15.6827 1.42 15.9727 1.41C16.4127 1.39 16.8577 1.375 17.3077 1.365C17.7677 1.345 18.2277 1.315 18.6877 1.275C19.0577 1.255 19.4077 1.225 19.7377 1.185C20.0677 1.145 20.3627 1.1 20.6227 1.05C20.6527 1.04 20.6877 1.045 20.7277 1.065C20.7677 1.075 20.7927 1.105 20.8027 1.155C20.8227 1.225 20.8427 1.33 20.8627 1.47C20.8827 1.6 20.8977 1.725 20.9077 1.845C20.9077 1.955 20.8477 2.01 20.7277 2.01C20.6277 2.01 20.5277 2.01 20.4277 2.01C20.3277 2.01 20.2227 2.01 20.1127 2.01C19.9027 2.01 19.6877 2.01 19.4677 2.01C19.2477 2 19.0177 2 18.7777 2.01C18.6777 2.01 18.5777 2.015 18.4777 2.025C18.3877 2.025 18.2977 2.025 18.2077 2.025C18.1677 2.305 18.0977 2.615 17.9977 2.955C17.8977 3.295 17.7527 3.655 17.5627 4.035C17.9627 4.315 18.3727 4.625 18.7927 4.965C19.2227 5.295 19.6077 5.605 19.9477 5.895C20.2977 6.175 20.5427 6.39 20.6827 6.54C20.7327 6.58 20.7677 6.63 20.7877 6.69C20.8177 6.75 20.8077 6.815 20.7577 6.885C20.7377 6.915 20.6877 6.97 20.6077 7.05C20.5277 7.13 20.4477 7.21 20.3677 7.29C20.2877 7.37 20.2277 7.425 20.1877 7.455C20.1077 7.505 20.0427 7.5 19.9927 7.44C19.8027 7.18 19.5477 6.88 19.2277 6.54C18.9177 6.19 18.5877 5.85 18.2377 5.52C17.8977 5.18 17.5727 4.895 17.2627 4.665C16.9627 5.215 16.5777 5.775 16.1077 6.345C15.6377 6.905 15.0327 7.445 14.2927 7.965C14.2427 8.005 14.1777 8.04 14.0977 8.07C14.0177 8.09 13.9277 8.06 13.8277 7.98ZM20.9527 13.095C21.5827 13.075 22.1127 12.905 22.5427 12.585C22.9827 12.265 23.2127 11.8 23.2327 11.19C23.2527 10.79 23.1577 10.455 22.9477 10.185C22.7477 9.915 22.4727 9.71 22.1227 9.57C21.7827 9.42 21.3977 9.345 20.9677 9.345C20.5377 9.355 20.1477 9.445 19.7977 9.615C19.4577 9.775 19.1827 9.995 18.9727 10.275C18.7627 10.555 18.6577 10.88 18.6577 11.25C18.6577 11.63 18.7577 11.96 18.9577 12.24C19.1677 12.51 19.4427 12.72 19.7827 12.87C20.1327 13.02 20.5227 13.095 20.9527 13.095ZM23.2027 8.415C23.1627 8.415 23.1427 8.39 23.1427 8.34V4.425C22.9627 4.435 22.7877 4.445 22.6177 4.455C22.4477 4.465 22.2877 4.475 22.1377 4.485C21.8977 4.495 21.6227 4.52 21.3127 4.56C21.0027 4.59 20.7277 4.62 20.4877 4.65C20.3777 4.67 20.3027 4.665 20.2627 4.635C20.2227 4.605 20.1927 4.56 20.1727 4.5C20.1327 4.37 20.0977 4.25 20.0677 4.14C20.0477 4.02 20.0277 3.91 20.0077 3.81C20.0077 3.73 20.0477 3.7 20.1277 3.72C20.2877 3.74 20.5377 3.755 20.8777 3.765C21.2277 3.765 21.6077 3.76 22.0177 3.75C22.4277 3.73 22.8027 3.71 23.1427 3.69V1.83C23.1427 1.45 23.1277 1.1 23.0977 0.78C23.0777 0.46 23.0427 0.25 22.9927 0.15C22.9727 0.0999999 22.9727 0.0650001 22.9927 0.0450003C23.0227 0.0150001 23.0577 0 23.0977 0C23.2077 0 23.3577 0 23.5477 0C23.7377 0 23.9127 0.00499994 24.0727 0.0149998C24.1227 0.0149998 24.1477 0.0549999 24.1477 0.135C24.1177 0.505 24.0977 0.83 24.0877 1.11C24.0877 1.38 24.0877 1.695 24.0877 2.055V8.04C24.0877 8.19 24.0777 8.28 24.0577 8.31C24.0477 8.34 24.0177 8.36 23.9677 8.37L23.2027 8.415Z" fill="black"/>
<path d="M30.4309 8.1C29.8209 8.11 29.2609 7.985 28.7509 7.725C28.2409 7.465 27.8309 7.095 27.5209 6.615C27.2209 6.125 27.0709 5.565 27.0709 4.935C27.0709 4.325 27.2209 3.78 27.5209 3.3C27.8209 2.81 28.2259 2.42 28.7359 2.13C29.2559 1.83 29.8259 1.675 30.4459 1.665C31.0659 1.645 31.6259 1.755 32.1259 1.995C32.6359 2.235 33.0409 2.59 33.3409 3.06C33.6409 3.53 33.7909 4.11 33.7909 4.8C33.7909 5.42 33.6409 5.975 33.3409 6.465C33.0409 6.955 32.6359 7.345 32.1259 7.635C31.6159 7.925 31.0509 8.08 30.4309 8.1ZM30.4459 7.245C30.8859 7.225 31.2859 7.115 31.6459 6.915C32.0059 6.705 32.2909 6.42 32.5009 6.06C32.7209 5.69 32.8309 5.275 32.8309 4.815C32.8309 4.305 32.7209 3.87 32.5009 3.51C32.2909 3.15 32.0059 2.88 31.6459 2.7C31.2859 2.51 30.8859 2.425 30.4459 2.445C30.0059 2.455 29.6009 2.57 29.2309 2.79C28.8609 3 28.5659 3.29 28.3459 3.66C28.1259 4.02 28.0159 4.44 28.0159 4.92C28.0159 5.42 28.1259 5.845 28.3459 6.195C28.5759 6.545 28.8759 6.81 29.2459 6.99C29.6159 7.17 30.0159 7.255 30.4459 7.245ZM36.3259 12.75C36.2859 12.75 36.2659 12.725 36.2659 12.675V1.845C36.2659 1.465 36.2509 1.115 36.2209 0.795C36.2009 0.465 36.1659 0.25 36.1159 0.15C36.0959 0.0999999 36.0959 0.0650001 36.1159 0.0450003C36.1459 0.0150001 36.1809 0 36.2209 0C36.2809 0 36.3809 0.00499994 36.5209 0.0149998C36.6709 0.0149998 36.8159 0.0199997 36.9559 0.0299996C37.0959 0.0299996 37.1759 0.0299996 37.1959 0.0299996C37.2459 0.0299996 37.2709 0.0699997 37.2709 0.15C37.2409 0.52 37.2209 0.845 37.2109 1.125C37.2109 1.395 37.2109 1.71 37.2109 2.07V12.375C37.2109 12.525 37.2009 12.615 37.1809 12.645C37.1709 12.675 37.1409 12.695 37.0909 12.705L36.3259 12.75Z" fill="black"/>
<path d="M47.9012 6.63C47.3312 6.64 46.8062 6.53 46.3262 6.3C45.8562 6.07 45.4762 5.745 45.1862 5.325C44.9062 4.895 44.7662 4.4 44.7662 3.84C44.7662 3.3 44.9062 2.815 45.1862 2.385C45.4762 1.945 45.8562 1.595 46.3262 1.335C46.8062 1.075 47.3362 0.94 47.9162 0.93C48.4862 0.9 49.0062 0.995 49.4762 1.215C49.9562 1.435 50.3412 1.76 50.6312 2.19C50.9212 2.61 51.0662 3.12 51.0662 3.72C51.0662 4.27 50.9212 4.765 50.6312 5.205C50.3412 5.635 49.9562 5.975 49.4762 6.225C48.9962 6.475 48.4712 6.61 47.9012 6.63ZM47.9162 5.865C48.5162 5.845 49.0212 5.645 49.4312 5.265C49.8412 4.875 50.0462 4.36 50.0462 3.72C50.0462 3.01 49.8362 2.49 49.4162 2.16C49.0062 1.83 48.5012 1.675 47.9012 1.695C47.2912 1.735 46.7812 1.94 46.3712 2.31C45.9612 2.68 45.7562 3.185 45.7562 3.825C45.7562 4.495 45.9612 5.01 46.3712 5.37C46.7912 5.72 47.3062 5.885 47.9162 5.865ZM50.2112 14.1C50.0312 13.99 49.8912 13.895 49.7912 13.815C49.7312 13.765 49.7362 13.715 49.8062 13.665C50.3862 13.305 50.9412 12.8 51.4712 12.15C52.0112 11.49 52.4562 10.75 52.8062 9.93C52.9162 9.66 53.0062 9.36 53.0762 9.03C53.1462 8.7 53.1662 8.43 53.1362 8.22C53.1262 8.16 53.1412 8.125 53.1812 8.115C53.2212 8.095 53.2562 8.09 53.2862 8.1L54.2462 8.355C54.3162 8.365 54.3412 8.41 54.3212 8.49C54.2412 8.71 54.1612 8.945 54.0812 9.195C54.0112 9.445 53.9212 9.685 53.8112 9.915L53.6012 10.38C54.2012 10.83 54.7562 11.255 55.2662 11.655C55.7862 12.045 56.1762 12.385 56.4362 12.675C56.4862 12.725 56.5162 12.78 56.5262 12.84C56.5462 12.9 56.5262 12.97 56.4662 13.05C56.4262 13.11 56.3412 13.2 56.2112 13.32C56.0812 13.45 55.9712 13.545 55.8812 13.605C55.8212 13.655 55.7662 13.645 55.7162 13.575C55.5462 13.305 55.3212 13.015 55.0412 12.705C54.7712 12.395 54.4812 12.09 54.1712 11.79C53.8712 11.48 53.5762 11.205 53.2862 10.965C52.9762 11.505 52.5912 12.055 52.1312 12.615C51.6812 13.175 51.1662 13.665 50.5862 14.085C50.4562 14.175 50.3312 14.18 50.2112 14.1ZM46.0412 13.485C45.9312 13.565 45.8062 13.56 45.6662 13.47L45.3062 13.215C45.2662 13.175 45.2812 13.125 45.3512 13.065C45.7912 12.805 46.1962 12.49 46.5662 12.12C46.9462 11.75 47.2762 11.36 47.5562 10.95C47.8362 10.53 48.0612 10.135 48.2312 9.765C48.3412 9.525 48.4262 9.27 48.4862 9C48.5562 8.72 48.5862 8.48 48.5762 8.28C48.5762 8.22 48.5962 8.185 48.6362 8.175C48.6762 8.155 48.7112 8.15 48.7412 8.16L49.6262 8.46C49.6862 8.48 49.7012 8.535 49.6712 8.625C49.5912 8.825 49.5012 9.045 49.4012 9.285C49.3112 9.515 49.2112 9.735 49.1012 9.945L49.0262 10.095C49.2662 10.265 49.5162 10.45 49.7762 10.65C50.0362 10.84 50.2762 11.025 50.4962 11.205C50.7262 11.375 50.9012 11.53 51.0212 11.67C51.0712 11.72 51.1062 11.77 51.1262 11.82C51.1562 11.87 51.1462 11.93 51.0962 12C50.9562 12.18 50.7812 12.355 50.5712 12.525C50.5212 12.555 50.4812 12.55 50.4512 12.51C50.2212 12.19 49.9512 11.87 49.6412 11.55C49.3312 11.23 49.0162 10.94 48.6962 10.68C48.4062 11.14 48.0412 11.625 47.6012 12.135C47.1712 12.635 46.6512 13.085 46.0412 13.485ZM53.9462 7.515C53.9062 7.515 53.8862 7.49 53.8862 7.44V1.83C53.8862 1.45 53.8712 1.1 53.8412 0.78C53.8212 0.46 53.7862 0.25 53.7362 0.15C53.7162 0.0999999 53.7162 0.0650001 53.7362 0.0450003C53.7662 0.0150001 53.8012 0 53.8412 0C53.9312 0 54.0712 0 54.2612 0C54.4612 0 54.6462 0.00499994 54.8162 0.0149998C54.8662 0.0149998 54.8912 0.0549999 54.8912 0.135C54.8612 0.505 54.8412 0.83 54.8312 1.11C54.8312 1.38 54.8312 1.695 54.8312 2.055V7.14C54.8312 7.29 54.8212 7.38 54.8012 7.41C54.7912 7.44 54.7612 7.46 54.7112 7.47L53.9462 7.515Z" fill="black"/>
<path d="M63.338 6.855C62.648 6.855 62.028 6.735 61.478 6.495C60.938 6.245 60.513 5.895 60.203 5.445C59.893 4.985 59.743 4.44 59.753 3.81C59.773 3.23 59.948 2.715 60.278 2.265C60.618 1.805 61.073 1.44 61.643 1.17C62.213 0.9 62.843 0.76 63.533 0.75C64.243 0.75 64.873 0.875 65.423 1.125C65.973 1.375 66.403 1.73 66.713 2.19C67.033 2.64 67.178 3.165 67.148 3.765C67.108 4.405 66.918 4.955 66.578 5.415C66.248 5.875 65.803 6.23 65.243 6.48C64.683 6.73 64.048 6.855 63.338 6.855ZM63.368 6.09C64.158 6.07 64.808 5.86 65.318 5.46C65.828 5.06 66.103 4.495 66.143 3.765C66.183 3.085 65.958 2.54 65.468 2.13C64.978 1.72 64.318 1.515 63.488 1.515C62.908 1.515 62.413 1.625 62.003 1.845C61.593 2.065 61.283 2.35 61.073 2.7C60.863 3.04 60.748 3.41 60.728 3.81C60.708 4.27 60.813 4.675 61.043 5.025C61.273 5.375 61.593 5.645 62.003 5.835C62.413 6.015 62.868 6.1 63.368 6.09ZM57.818 10.935C57.708 10.945 57.633 10.935 57.593 10.905C57.553 10.875 57.523 10.83 57.503 10.77C57.463 10.66 57.428 10.55 57.398 10.44C57.368 10.32 57.333 10.175 57.293 10.005C57.283 9.985 57.288 9.96 57.308 9.93C57.328 9.89 57.363 9.875 57.413 9.885C57.793 9.935 58.308 9.97 58.958 9.99C59.618 10 60.343 10.005 61.133 10.005C61.903 10.005 62.703 9.995 63.533 9.975C64.363 9.955 65.163 9.93 65.933 9.9C66.703 9.87 67.388 9.83 67.988 9.78C68.598 9.73 69.068 9.675 69.398 9.615C69.498 9.595 69.563 9.6 69.593 9.63C69.623 9.66 69.643 9.7 69.653 9.75L69.743 10.47C69.743 10.52 69.728 10.565 69.698 10.605C69.668 10.645 69.588 10.665 69.458 10.665C69.118 10.655 68.723 10.65 68.273 10.65C67.823 10.65 67.343 10.65 66.833 10.65C65.583 10.65 64.373 10.665 63.203 10.695C62.033 10.715 60.983 10.745 60.053 10.785C59.123 10.825 58.378 10.875 57.818 10.935Z" fill="black"/>
<path d="M71.1289 8.085L70.7539 7.755C70.7139 7.715 70.7289 7.67 70.7989 7.62C70.8089 7.61 70.8139 7.605 70.8139 7.605C71.3739 7.235 71.8988 6.77 72.3888 6.21C72.8888 5.64 73.3338 5.045 73.7238 4.425C74.1138 3.805 74.4188 3.225 74.6388 2.685C74.7088 2.515 74.7688 2.32 74.8188 2.1C74.8788 1.87 74.9238 1.65 74.9538 1.44C74.9938 1.23 75.0138 1.06 75.0138 0.93C75.0138 0.84 75.0638 0.8 75.1638 0.81C75.2738 0.83 75.4289 0.87 75.6289 0.93C75.8289 0.99 76.0038 1.045 76.1538 1.095C76.2138 1.125 76.2289 1.18 76.1989 1.26C76.1289 1.46 76.0338 1.72 75.9138 2.04C75.7938 2.36 75.6838 2.64 75.5838 2.88C75.5138 3.04 75.4338 3.21 75.3438 3.39C75.2638 3.57 75.1689 3.76 75.0589 3.96C75.3589 4.19 75.6889 4.445 76.0489 4.725C76.4189 4.995 76.7789 5.265 77.1289 5.535C77.4789 5.805 77.7889 6.05 78.0589 6.27C78.3289 6.49 78.5239 6.66 78.6439 6.78C78.6839 6.81 78.7138 6.86 78.7338 6.93C78.7638 6.99 78.7538 7.055 78.7038 7.125C78.6638 7.185 78.5689 7.28 78.4189 7.41C78.2789 7.54 78.1789 7.635 78.1189 7.695C78.0389 7.745 77.9789 7.735 77.9389 7.665C77.7889 7.455 77.5789 7.21 77.3089 6.93C77.0489 6.65 76.7638 6.36 76.4538 6.06C76.1538 5.76 75.8488 5.48 75.5388 5.22C75.2288 4.96 74.9539 4.745 74.7139 4.575C74.3839 5.125 73.9638 5.705 73.4538 6.315C72.9538 6.915 72.3338 7.495 71.5938 8.055C71.5438 8.095 71.4788 8.13 71.3988 8.16C71.3188 8.19 71.2289 8.165 71.1289 8.085ZM80.5039 9.825C80.4639 9.825 80.4438 9.8 80.4438 9.75V1.83C80.4438 1.45 80.4288 1.1 80.3988 0.78C80.3788 0.46 80.3439 0.25 80.2939 0.15C80.2739 0.0999999 80.2739 0.0650001 80.2939 0.0450003C80.3239 0.0150001 80.3588 0 80.3988 0C80.5388 0 80.7039 0 80.8939 0C81.0839 0 81.2438 0.00499994 81.3738 0.0149998C81.4238 0.0149998 81.4489 0.0549999 81.4489 0.135C81.4189 0.505 81.3988 0.83 81.3888 1.11C81.3888 1.38 81.3888 1.695 81.3888 2.055V9.45C81.3888 9.6 81.3788 9.69 81.3588 9.72C81.3488 9.75 81.3189 9.77 81.2689 9.78L80.5039 9.825ZM75.5988 13.35C75.2788 13.35 75.0339 13.23 74.8639 12.99C74.7039 12.76 74.6238 12.43 74.6238 12V10.665C74.6238 10.315 74.6089 10.025 74.5788 9.795C74.5488 9.565 74.5189 9.4 74.4889 9.3C74.4589 9.2 74.4938 9.15 74.5938 9.15C74.6538 9.15 74.7539 9.155 74.8939 9.165C75.0439 9.165 75.1839 9.17 75.3139 9.18C75.4539 9.19 75.5288 9.195 75.5388 9.195C75.5888 9.195 75.6138 9.245 75.6138 9.345C75.5938 9.575 75.5788 9.78 75.5688 9.96C75.5688 10.13 75.5688 10.345 75.5688 10.605V11.91C75.5688 12.16 75.5989 12.335 75.6589 12.435C75.7289 12.525 75.8388 12.575 75.9888 12.585C76.2688 12.595 76.6088 12.6 77.0089 12.6C77.4188 12.61 77.8439 12.61 78.2839 12.6C78.7339 12.58 79.1589 12.56 79.5589 12.54C79.9789 12.52 80.4139 12.485 80.8639 12.435C81.3139 12.375 81.6588 12.315 81.8988 12.255C81.9988 12.235 82.0638 12.24 82.0938 12.27C82.1238 12.3 82.1438 12.34 82.1538 12.39L82.2738 13.095C82.2738 13.145 82.2589 13.185 82.2289 13.215C82.2089 13.245 82.1289 13.26 81.9889 13.26C80.9989 13.26 79.9788 13.275 78.9288 13.305C77.8788 13.335 76.7688 13.35 75.5988 13.35Z" fill="black"/>
<path d="M93.0306 12.75C92.9906 12.75 92.9706 12.725 92.9706 12.675V1.845C92.9706 1.465 92.9556 1.115 92.9256 0.795C92.9056 0.465 92.8706 0.25 92.8206 0.15C92.8006 0.0999999 92.8006 0.0650001 92.8206 0.0450003C92.8506 0.0150001 92.8856 0 92.9256 0C92.9856 0 93.0856 0.00499994 93.2256 0.0149998C93.3756 0.0149998 93.5206 0.0199997 93.6606 0.0299996C93.8006 0.0299996 93.8806 0.0299996 93.9006 0.0299996C93.9506 0.0299996 93.9756 0.0699997 93.9756 0.15C93.9456 0.52 93.9256 0.845 93.9156 1.125C93.9156 1.395 93.9156 1.71 93.9156 2.07V5.58C94.1856 5.58 94.4756 5.57 94.7856 5.55C95.1056 5.52 95.4006 5.49 95.6706 5.46C95.9506 5.42 96.1606 5.38 96.3006 5.34C96.3906 5.33 96.4406 5.36 96.4506 5.43C96.4706 5.56 96.4856 5.69 96.4956 5.82C96.5056 5.95 96.5156 6.08 96.5256 6.21C96.5256 6.32 96.4806 6.375 96.3906 6.375C96.2406 6.355 96.0206 6.345 95.7306 6.345C95.4506 6.345 95.1506 6.345 94.8306 6.345C94.5106 6.345 94.2056 6.35 93.9156 6.36V12.375C93.9156 12.525 93.9056 12.615 93.8856 12.645C93.8756 12.675 93.8456 12.695 93.7956 12.705L93.0306 12.75ZM84.3906 10.32L84.0306 9.99C83.9906 9.95 84.0056 9.9 84.0756 9.84C84.7056 9.51 85.3306 9.065 85.9506 8.505C86.5806 7.945 87.1606 7.325 87.6906 6.645C88.2206 5.965 88.6606 5.27 89.0106 4.56C89.3606 3.84 89.5756 3.16 89.6556 2.52C89.6756 2.41 89.6306 2.355 89.5206 2.355L86.5806 2.535L85.0206 2.67C84.9206 2.68 84.8556 2.67 84.8256 2.64C84.7956 2.6 84.7706 2.555 84.7506 2.505C84.7406 2.495 84.7356 2.485 84.7356 2.475C84.6956 2.365 84.6656 2.275 84.6456 2.205C84.6256 2.125 84.5956 2 84.5556 1.83C84.5456 1.81 84.5506 1.785 84.5706 1.755C84.5906 1.725 84.6256 1.715 84.6756 1.725C85.1156 1.765 85.6056 1.785 86.1456 1.785C86.6956 1.775 87.2456 1.755 87.7956 1.725C88.3456 1.685 88.8406 1.64 89.2806 1.59C89.4006 1.58 89.5306 1.56 89.6706 1.53C89.8106 1.5 89.8806 1.485 89.8806 1.485C89.9306 1.465 89.9856 1.465 90.0456 1.485L90.8706 1.755C90.9506 1.795 90.9856 1.86 90.9756 1.95L90.6306 3.06C90.4906 3.5 90.2706 4.025 89.9706 4.635C89.6706 5.245 89.2856 5.89 88.8156 6.57C88.3456 7.24 87.7806 7.9 87.1206 8.55C86.4706 9.2 85.7206 9.79 84.8706 10.32C84.7906 10.37 84.7106 10.4 84.6306 10.41C84.5506 10.42 84.4706 10.39 84.3906 10.32Z" fill="black"/>
<path d="M103.548 6.78C102.858 6.78 102.238 6.66 101.688 6.42C101.148 6.17 100.723 5.82 100.413 5.37C100.103 4.91 99.953 4.365 99.963 3.735C99.983 3.155 100.158 2.64 100.488 2.19C100.828 1.73 101.283 1.365 101.853 1.095C102.423 0.825 103.053 0.685 103.743 0.675C104.453 0.675 105.083 0.8 105.633 1.05C106.183 1.3 106.613 1.655 106.923 2.115C107.243 2.565 107.388 3.09 107.358 3.69C107.318 4.33 107.128 4.88 106.788 5.34C106.458 5.8 106.013 6.155 105.453 6.405C104.893 6.655 104.258 6.78 103.548 6.78ZM103.578 6.015C104.368 5.995 105.018 5.785 105.528 5.385C106.038 4.985 106.313 4.42 106.353 3.69C106.393 3.01 106.168 2.465 105.678 2.055C105.188 1.645 104.528 1.44 103.698 1.44C103.118 1.44 102.623 1.55 102.213 1.77C101.803 1.99 101.493 2.275 101.283 2.625C101.073 2.965 100.958 3.335 100.938 3.735C100.918 4.195 101.023 4.6 101.253 4.95C101.483 5.3 101.803 5.57 102.213 5.76C102.623 5.94 103.078 6.025 103.578 6.015ZM98.028 11.235C97.918 11.245 97.8429 11.235 97.8029 11.205C97.7629 11.175 97.733 11.13 97.713 11.07C97.673 10.96 97.6379 10.85 97.6079 10.74C97.5779 10.62 97.543 10.475 97.503 10.305C97.493 10.285 97.498 10.26 97.518 10.23C97.538 10.19 97.5729 10.175 97.6229 10.185C97.9929 10.235 98.498 10.27 99.138 10.29C99.788 10.3 100.503 10.305 101.283 10.305L101.208 9.105C101.198 8.915 101.178 8.705 101.148 8.475C101.118 8.245 101.083 8.035 101.043 7.845C101.003 7.645 100.963 7.515 100.923 7.455C100.903 7.395 100.903 7.355 100.923 7.335C100.953 7.315 100.988 7.3 101.028 7.29H102.033C102.073 7.3 102.093 7.345 102.093 7.425C102.093 7.435 102.093 7.445 102.093 7.455C102.093 7.715 102.093 7.97 102.093 8.22C102.093 8.47 102.098 8.725 102.108 8.985L102.138 10.305C102.678 10.305 103.218 10.3 103.758 10.29C104.298 10.27 104.833 10.25 105.363 10.23L105.438 8.925C105.448 8.735 105.453 8.53 105.453 8.31C105.463 8.09 105.458 7.89 105.438 7.71C105.428 7.52 105.403 7.39 105.363 7.32C105.343 7.25 105.348 7.21 105.378 7.2C105.408 7.18 105.443 7.17 105.483 7.17C105.533 7.17 105.633 7.175 105.783 7.185C105.933 7.185 106.078 7.19 106.218 7.2C106.368 7.21 106.453 7.215 106.473 7.215C106.523 7.245 106.538 7.295 106.518 7.365C106.518 7.375 106.518 7.38 106.518 7.38C106.488 7.64 106.458 7.89 106.428 8.13C106.398 8.37 106.373 8.62 106.353 8.88L106.233 10.2C106.973 10.16 107.638 10.12 108.228 10.08C108.828 10.03 109.288 9.975 109.608 9.915C109.708 9.895 109.773 9.9 109.803 9.93C109.833 9.96 109.853 10 109.863 10.05L109.953 10.77C109.953 10.82 109.938 10.865 109.908 10.905C109.878 10.945 109.798 10.965 109.668 10.965C109.328 10.955 108.933 10.95 108.483 10.95C108.033 10.95 107.553 10.95 107.043 10.95C105.793 10.95 104.583 10.965 103.413 10.995C102.243 11.015 101.193 11.045 100.263 11.085C99.333 11.125 98.588 11.175 98.028 11.235Z" fill="black"/>
<path d="M112.209 2.805C112.189 2.865 112.149 2.885 112.089 2.865L111.444 2.58C111.384 2.56 111.364 2.52 111.384 2.46C111.664 1.85 112.079 1.4 112.629 1.11C113.189 0.82 113.769 0.675 114.369 0.675C114.859 0.675 115.319 0.77 115.749 0.96C116.189 1.15 116.544 1.425 116.814 1.785C117.094 2.145 117.234 2.59 117.234 3.12C117.234 3.55 117.119 3.995 116.889 4.455C116.659 4.905 116.304 5.32 115.824 5.7C115.604 5.88 115.374 6.085 115.134 6.315C114.904 6.535 114.709 6.8 114.549 7.11C114.399 7.41 114.324 7.77 114.324 8.19V8.535C114.324 8.595 114.299 8.625 114.249 8.625H113.604C113.554 8.625 113.519 8.595 113.499 8.535C113.489 8.455 113.479 8.375 113.469 8.295C113.469 8.215 113.469 8.14 113.469 8.07C113.469 7.54 113.569 7.095 113.769 6.735C113.979 6.375 114.219 6.07 114.489 5.82C114.769 5.56 115.014 5.335 115.224 5.145C115.594 4.825 115.864 4.49 116.034 4.14C116.204 3.79 116.289 3.455 116.289 3.135C116.289 2.775 116.194 2.475 116.004 2.235C115.824 1.985 115.584 1.8 115.284 1.68C114.994 1.56 114.684 1.5 114.354 1.5C113.924 1.5 113.504 1.61 113.094 1.83C112.684 2.04 112.389 2.365 112.209 2.805ZM114.099 12C113.859 12 113.659 11.92 113.499 11.76C113.339 11.6 113.259 11.4 113.259 11.16C113.259 10.93 113.339 10.74 113.499 10.59C113.659 10.43 113.859 10.35 114.099 10.35C114.329 10.35 114.519 10.43 114.669 10.59C114.829 10.74 114.909 10.93 114.909 11.16C114.909 11.4 114.829 11.6 114.669 11.76C114.519 11.92 114.329 12 114.099 12Z" fill="black"/>
</svg>
