<svg width="105" height="29" viewBox="0 0 105 29" fill="none" xmlns="http://www.w3.org/2000/svg">
<path d="M8.85 1.02C10.73 1.02 12.12 1.43 13.02 2.25C13.94 3.07 14.4 4.14 14.4 5.46C14.4 6.58 14.09 7.44 13.47 8.04C12.85 8.62 11.96 8.91 10.8 8.91C10.44 8.91 10.21 8.88 10.11 8.82C10.01 8.74 9.96 8.59 9.96 8.37C9.96 8.17 9.94 7.91 9.9 7.59C9.88 7.27 9.81 6.96 9.69 6.66C9.57 6.36 9.38 6.11 9.12 5.91C8.86 5.69 8.5 5.58 8.04 5.58C7.4 5.58 6.83 5.78 6.33 6.18C5.83 6.56 5.58 7.06 5.58 7.68C5.58 8.22 5.78 8.66 6.18 9C6.6 9.34 7.12 9.66 7.74 9.96C8.36 10.24 9.03 10.53 9.75 10.83C10.49 11.13 11.17 11.53 11.79 12.03C12.41 12.51 12.92 13.12 13.32 13.86C13.74 14.58 13.95 15.5 13.95 16.62C13.95 17.5 13.8 18.33 13.5 19.11C13.22 19.87 12.79 20.54 12.21 21.12C11.65 21.68 10.93 22.12 10.05 22.44C9.19 22.76 8.18 22.92 7.02 22.92C6.02 22.92 5.09 22.81 4.23 22.59C3.39 22.37 2.65 22.1 2.01 21.78C1.39 21.44 0.9 21.08 0.54 20.7C0.18 20.3 0 19.94 0 19.62C0 18.3 0.07 17.35 0.21 16.77C0.37 16.19 0.65 15.9 1.05 15.9C1.33 15.9 1.62 16.02 1.92 16.26C2.24 16.5 2.6 16.77 3 17.07C3.4 17.37 3.86 17.64 4.38 17.88C4.92 18.12 5.54 18.24 6.24 18.24C6.52 18.24 6.79 18.22 7.05 18.18C7.33 18.12 7.57 18.03 7.77 17.91C7.99 17.79 8.16 17.63 8.28 17.43C8.42 17.23 8.49 16.99 8.49 16.71C8.49 16.21 8.3 15.81 7.92 15.51C7.54 15.21 7.06 14.94 6.48 14.7C5.9 14.44 5.27 14.18 4.59 13.92C3.93 13.64 3.31 13.27 2.73 12.81C2.15 12.33 1.67 11.72 1.29 10.98C0.91 10.24 0.72 9.29 0.72 8.13C0.72 6.83 0.96 5.73 1.44 4.83C1.94 3.93 2.57 3.2 3.33 2.64C4.11 2.06 4.98 1.65 5.94 1.41C6.92 1.15 7.89 1.02 8.85 1.02Z" fill="white"/>
<path d="M19.6205 22.62C19.0005 22.62 18.4905 22.56 18.0905 22.44C17.7105 22.3 17.4005 22.11 17.1605 21.87C16.9405 21.63 16.7805 21.34 16.6805 21C16.6005 20.64 16.5605 20.23 16.5605 19.77C16.5605 19.47 16.5705 19.05 16.5905 18.51C16.6305 17.95 16.6905 17.19 16.7705 16.23C16.8505 15.25 16.9405 14.02 17.0405 12.54C17.1605 11.04 17.3005 9.19 17.4605 6.99C17.4805 6.55 17.5305 6.29 17.6105 6.21C17.6705 6.15 17.8305 6.12 18.0905 6.12H19.2605C19.8805 6.12 20.3805 6.18 20.7605 6.3C21.1605 6.42 21.4705 6.6 21.6905 6.84C21.9305 7.08 22.0905 7.37 22.1705 7.71C22.2705 8.05 22.3205 8.43 22.3205 8.85C22.3205 9.15 22.3005 9.6 22.2605 10.2C22.2205 10.8 22.1605 11.62 22.0805 12.66C22.0205 13.68 21.9305 14.96 21.8105 16.5C21.6905 18.02 21.5405 19.86 21.3605 22.02C21.3405 22.26 21.2905 22.42 21.2105 22.5C21.1305 22.58 20.9605 22.62 20.7005 22.62H19.6205ZM17.4905 2.58C17.4905 1.78 17.7805 1.15 18.3605 0.69C18.9405 0.23 19.7205 0 20.7005 0C21.5605 0 22.1805 0.179999 22.5605 0.539998C22.9605 0.879999 23.1605 1.34 23.1605 1.92C23.1605 2.66 22.8805 3.28 22.3205 3.78C21.7805 4.26 20.9805 4.5 19.9205 4.5C18.3005 4.5 17.4905 3.86 17.4905 2.58Z" fill="white"/>
<path d="M35.198 19.98C35.198 19.54 35.228 18.97 35.288 18.27C35.368 17.55 35.438 16.8 35.498 16.02C35.578 15.22 35.648 14.45 35.708 13.71C35.788 12.97 35.828 12.35 35.828 11.85C35.828 11.33 35.698 10.87 35.438 10.47C35.198 10.05 34.718 9.84 33.998 9.84C33.298 9.84 32.718 10.01 32.258 10.35C31.798 10.69 31.408 11.31 31.088 12.21C30.788 13.11 30.538 14.35 30.338 15.93C30.138 17.51 29.948 19.54 29.768 22.02C29.748 22.26 29.698 22.42 29.618 22.5C29.538 22.58 29.368 22.62 29.108 22.62H28.028C27.408 22.62 26.898 22.56 26.498 22.44C26.118 22.3 25.808 22.11 25.568 21.87C25.348 21.63 25.188 21.34 25.088 21C25.008 20.64 24.968 20.23 24.968 19.77C24.968 19.47 24.978 19.05 24.998 18.51C25.038 17.95 25.098 17.19 25.178 16.23C25.258 15.25 25.348 14.02 25.448 12.54C25.568 11.04 25.708 9.19 25.868 6.99C25.888 6.55 25.938 6.29 26.018 6.21C26.078 6.15 26.238 6.12 26.498 6.12H27.668C28.268 6.12 28.758 6.19 29.138 6.33C29.538 6.47 29.858 6.66 30.098 6.9C30.338 7.12 30.508 7.39 30.608 7.71C30.708 8.01 30.768 8.32 30.788 8.64C31.408 7.58 32.118 6.85 32.918 6.45C33.718 6.03 34.718 5.82 35.918 5.82C36.758 5.82 37.488 5.91 38.108 6.09C38.728 6.27 39.238 6.58 39.638 7.02C40.058 7.44 40.368 8 40.568 8.7C40.768 9.38 40.868 10.23 40.868 11.25C40.868 11.57 40.848 12.03 40.808 12.63C40.768 13.23 40.718 13.89 40.658 14.61C40.598 15.31 40.528 16.05 40.448 16.83C40.388 17.59 40.328 18.3 40.268 18.96C40.208 19.62 40.158 20.2 40.118 20.7C40.078 21.2 40.058 21.53 40.058 21.69C40.058 22.13 40.008 22.4 39.908 22.5C39.808 22.58 39.588 22.62 39.248 22.62H38.288C37.648 22.62 37.128 22.56 36.728 22.44C36.328 22.32 36.018 22.15 35.798 21.93C35.578 21.71 35.418 21.44 35.318 21.12C35.238 20.78 35.198 20.4 35.198 19.98Z" fill="white"/>
<path d="M53.3522 19.08C52.8522 19.98 52.2422 20.65 51.5222 21.09C50.8022 21.51 49.9022 21.72 48.8222 21.72C48.0022 21.72 47.2522 21.59 46.5722 21.33C45.8922 21.07 45.3122 20.66 44.8322 20.1C44.3522 19.54 43.9722 18.84 43.6922 18C43.4322 17.14 43.3022 16.12 43.3022 14.94C43.3022 13.98 43.4022 12.97 43.6022 11.91C43.8022 10.83 44.1622 9.84 44.6822 8.94C45.2222 8.04 45.9522 7.3 46.8722 6.72C47.7922 6.12 48.9722 5.82 50.4122 5.82C51.0122 5.82 51.5222 5.89 51.9422 6.03C52.3822 6.15 52.7522 6.32 53.0522 6.54C53.3722 6.76 53.6222 7.02 53.8022 7.32C54.0022 7.62 54.1522 7.94 54.2522 8.28C54.2522 8.3 54.2522 8.23 54.2522 8.07C54.2722 7.89 54.2922 7.69 54.3122 7.47C54.3322 7.25 54.3422 7.04 54.3422 6.84C54.3622 6.62 54.3722 6.48 54.3722 6.42C54.3922 6.22 54.5222 6.12 54.7622 6.12H56.1422C57.1822 6.12 57.9322 6.34 58.3922 6.78C58.8722 7.2 59.1122 8.01 59.1122 9.21C59.1122 9.37 59.1022 9.74 59.0822 10.32C59.0622 10.88 59.0222 11.56 58.9622 12.36C58.9222 13.16 58.8622 14.05 58.7822 15.03C58.7022 15.99 58.6122 16.96 58.5122 17.94C58.4122 18.92 58.3022 19.86 58.1822 20.76C58.0622 21.66 57.9322 22.45 57.7922 23.13C57.6522 23.81 57.4122 24.47 57.0722 25.11C56.7322 25.75 56.2522 26.32 55.6322 26.82C55.0122 27.32 54.2122 27.72 53.2322 28.02C52.2722 28.32 51.0922 28.47 49.6922 28.47C48.6322 28.47 47.7022 28.37 46.9022 28.17C46.1222 27.97 45.4722 27.7 44.9522 27.36C44.4322 27.04 44.0322 26.67 43.7522 26.25C43.4922 25.83 43.3622 25.41 43.3622 24.99C43.3622 24.61 43.4422 24.28 43.6022 24C43.7622 23.72 43.9722 23.49 44.2322 23.31C44.4922 23.13 44.7722 22.99 45.0722 22.89C45.3922 22.81 45.6922 22.77 45.9722 22.77C46.3122 22.77 46.5622 22.87 46.7222 23.07C46.8822 23.27 47.0622 23.49 47.2622 23.73C47.4622 23.99 47.7422 24.22 48.1022 24.42C48.4622 24.62 49.0222 24.72 49.7822 24.72C51.1022 24.72 52.0222 24.23 52.5422 23.25C53.0822 22.29 53.3522 20.9 53.3522 19.08ZM50.8322 17.73C51.5522 17.73 52.1122 17.56 52.5122 17.22C52.9322 16.88 53.2522 16.47 53.4722 15.99C53.6922 15.51 53.8322 15.01 53.8922 14.49C53.9522 13.97 53.9822 13.52 53.9822 13.14C53.9822 11.94 53.7922 11.09 53.4122 10.59C53.0522 10.07 52.5022 9.81 51.7622 9.81C51.0222 9.81 50.4422 10.01 50.0222 10.41C49.6022 10.81 49.2822 11.29 49.0622 11.85C48.8622 12.39 48.7322 12.94 48.6722 13.5C48.6122 14.04 48.5822 14.46 48.5822 14.76C48.5822 15.76 48.7522 16.51 49.0922 17.01C49.4322 17.49 50.0122 17.73 50.8322 17.73Z" fill="white"/>
<path d="M85.0702 12.84C85.0102 13.44 84.9202 14.11 84.8002 14.85C84.6802 15.57 84.4902 16.31 84.2302 17.07C83.9902 17.81 83.6602 18.53 83.2402 19.23C82.8202 19.93 82.2802 20.56 81.6202 21.12C80.9602 21.66 80.1602 22.1 79.2202 22.44C78.3002 22.76 77.2002 22.92 75.9202 22.92C74.6202 22.92 73.5102 22.74 72.5902 22.38C71.6702 22 70.9202 21.49 70.3402 20.85C69.7602 20.19 69.3402 19.43 69.0802 18.57C68.8202 17.71 68.6902 16.79 68.6902 15.81C68.6902 15.37 68.7102 14.78 68.7502 14.04C68.7902 13.28 68.8402 12.46 68.9002 11.58C68.9802 10.7 69.0602 9.79 69.1402 8.85C69.2202 7.89 69.2902 6.98 69.3502 6.12C69.4302 5.26 69.5002 4.49 69.5602 3.81C69.6202 3.11 69.6602 2.58 69.6802 2.22C69.7002 1.84 69.7502 1.6 69.8302 1.5C69.9102 1.38 70.0302 1.32 70.1902 1.32H71.8402C73.0602 1.32 73.8802 1.58 74.3002 2.1C74.7202 2.62 74.9302 3.39 74.9302 4.41C74.9302 4.47 74.9102 4.74 74.8702 5.22C74.8502 5.68 74.8102 6.25 74.7502 6.93C74.7102 7.61 74.6602 8.35 74.6002 9.15C74.5602 9.95 74.5102 10.71 74.4502 11.43C74.4102 12.15 74.3702 12.78 74.3302 13.32C74.3102 13.86 74.3002 14.22 74.3002 14.4C74.3002 14.74 74.3102 15.13 74.3302 15.57C74.3702 16.01 74.4502 16.43 74.5702 16.83C74.7102 17.23 74.9202 17.57 75.2002 17.85C75.5002 18.11 75.9202 18.24 76.4602 18.24C77.1402 18.24 77.6902 18.01 78.1102 17.55C78.5502 17.09 78.8802 16.54 79.1002 15.9C79.3402 15.26 79.5002 14.61 79.5802 13.95C79.6802 13.29 79.7502 12.75 79.7902 12.33C79.8702 11.31 79.9502 10.26 80.0302 9.18C80.1302 8.1 80.2102 7.09 80.2702 6.15C80.3502 5.21 80.4102 4.39 80.4502 3.69C80.4902 2.99 80.5102 2.51 80.5102 2.25C80.5102 1.85 80.5402 1.6 80.6002 1.5C80.6602 1.38 80.7902 1.32 80.9902 1.32H82.6402C83.3202 1.32 83.8502 1.38 84.2302 1.5C84.6302 1.62 84.9302 1.78 85.1302 1.98C85.3302 2.18 85.4502 2.41 85.4902 2.67C85.5502 2.93 85.5802 3.2 85.5802 3.48C85.5802 3.74 85.5602 4.23 85.5202 4.95C85.5002 5.67 85.4702 6.49 85.4302 7.41C85.3902 8.33 85.3402 9.28 85.2802 10.26C85.2202 11.24 85.1502 12.1 85.0702 12.84Z" fill="white"/>
<path d="M98.3655 5.82C100.246 5.82 101.656 6.4 102.596 7.56C103.556 8.72 104.036 10.55 104.036 13.05C104.036 14.61 103.856 16 103.496 17.22C103.136 18.44 102.636 19.48 101.996 20.34C101.356 21.18 100.606 21.82 99.7455 22.26C98.8855 22.7 97.9555 22.92 96.9555 22.92C95.8955 22.92 95.0655 22.69 94.4655 22.23C93.8655 21.77 93.3955 21.12 93.0555 20.28C92.9955 21 92.9455 21.55 92.9055 21.93C92.8655 22.31 92.8355 22.61 92.8155 22.83C92.7955 23.07 92.7755 23.28 92.7555 23.46C92.7555 23.64 92.7355 23.88 92.6955 24.18C92.6755 24.48 92.6455 24.89 92.6055 25.41C92.5655 25.93 92.5055 26.65 92.4255 27.57C92.4055 27.81 92.3556 27.97 92.2756 28.05C92.1956 28.13 92.0255 28.17 91.7655 28.17H90.6855C90.0655 28.17 89.5555 28.1 89.1555 27.96C88.7755 27.84 88.4655 27.66 88.2255 27.42C88.0055 27.18 87.8455 26.88 87.7455 26.52C87.6655 26.18 87.6255 25.78 87.6255 25.32C87.6255 25.12 87.6555 24.58 87.7155 23.7C87.7755 22.82 87.8455 21.77 87.9255 20.55C88.0255 19.31 88.1255 17.98 88.2255 16.56C88.3455 15.14 88.4555 13.79 88.5555 12.51C88.6555 11.21 88.7355 10.06 88.7955 9.06C88.8755 8.06 88.9355 7.37 88.9755 6.99C88.9955 6.55 89.0455 6.29 89.1255 6.21C89.1855 6.15 89.3455 6.12 89.6055 6.12H90.7755C91.8555 6.12 92.6355 6.35 93.1155 6.81C93.6155 7.25 93.8655 7.78 93.8655 8.4C94.3255 7.48 94.9155 6.82 95.6355 6.42C96.3755 6.02 97.2855 5.82 98.3655 5.82ZM96.1755 9.81C95.1555 9.81 94.4055 10.25 93.9255 11.13C93.4455 12.01 93.2055 13.21 93.2055 14.73C93.2055 15.25 93.2355 15.76 93.2955 16.26C93.3755 16.76 93.5055 17.21 93.6855 17.61C93.8655 18.01 94.1055 18.33 94.4055 18.57C94.7255 18.81 95.1255 18.93 95.6055 18.93C96.4655 18.93 97.1855 18.51 97.7655 17.67C98.3455 16.83 98.6356 15.51 98.6356 13.71C98.6356 13.21 98.5955 12.73 98.5155 12.27C98.4555 11.79 98.3355 11.37 98.1555 11.01C97.9755 10.65 97.7255 10.36 97.4055 10.14C97.0855 9.92 96.6755 9.81 96.1755 9.81Z" fill="white"/>
</svg>
