<svg width="42" height="17" viewBox="0 0 42 17" fill="none" xmlns="http://www.w3.org/2000/svg">
<path d="M1.768 12.818C1.13333 12.818 0.68 12.6933 0.408 12.444C0.136 12.1947 0 11.8377 0 11.373C0 11.1463 0.017 10.761 0.051 10.217C0.085 9.66167 0.130333 9.03267 0.187 8.33C0.243667 7.62733 0.300333 6.885 0.357 6.103C0.413667 5.321 0.470333 4.58433 0.527 3.893C0.583667 3.20167 0.629 2.59533 0.663 2.074C0.697 1.55267 0.714 1.19567 0.714 1.003C0.714 0.832999 0.804667 0.747999 0.986 0.747999H1.921C2.55567 0.747999 2.992 0.872666 3.23 1.122C3.47933 1.36 3.604 1.717 3.604 2.193C3.604 2.24967 3.59833 2.30067 3.587 2.346C3.587 2.39133 3.587 2.44233 3.587 2.499L3.026 10.438H6.086C6.154 10.438 6.21633 10.4607 6.273 10.506C6.32967 10.54 6.358 10.5967 6.358 10.676L6.29 11.679C6.26733 12.019 6.171 12.2967 6.001 12.512C5.84233 12.716 5.508 12.818 4.998 12.818H1.768Z" fill="#EA7171"/>
<path d="M11.1751 12.988C10.3931 12.988 9.74144 12.8803 9.22011 12.665C8.71011 12.4383 8.30211 12.1323 7.99611 11.747C7.69011 11.3617 7.47478 10.914 7.35011 10.404C7.22544 9.88267 7.16311 9.32733 7.16311 8.738C7.16311 8.058 7.24244 7.395 7.40111 6.749C7.57111 6.09167 7.85444 5.508 8.25111 4.998C8.64778 4.488 9.16911 4.08 9.81511 3.774C10.4724 3.45667 11.2884 3.298 12.2631 3.298C13.6911 3.298 14.7111 3.64933 15.3231 4.352C15.9464 5.04333 16.2581 6.018 16.2581 7.276C16.2581 7.62733 16.2298 8.01833 16.1731 8.449C16.1278 8.86833 16.0314 9.28767 15.8841 9.707C15.7481 10.1263 15.5554 10.5343 15.3061 10.931C15.0681 11.3277 14.7621 11.679 14.3881 11.985C14.0141 12.291 13.5608 12.5347 13.0281 12.716C12.5068 12.8973 11.8891 12.988 11.1751 12.988ZM11.9741 5.559C11.5434 5.559 11.1978 5.67233 10.9371 5.899C10.6878 6.11433 10.4951 6.38067 10.3591 6.698C10.2344 7.004 10.1494 7.33267 10.1041 7.684C10.0701 8.024 10.0531 8.313 10.0531 8.551C10.0531 9.299 10.1721 9.84867 10.4101 10.2C10.6481 10.5513 10.9881 10.727 11.4301 10.727C11.8268 10.727 12.1498 10.6023 12.3991 10.353C12.6598 10.1037 12.8581 9.80333 12.9941 9.452C13.1414 9.10067 13.2378 8.73233 13.2831 8.347C13.3398 7.96167 13.3681 7.63867 13.3681 7.378C13.3681 6.81133 13.2604 6.36933 13.0451 6.052C12.8411 5.72333 12.4841 5.559 11.9741 5.559Z" fill="#EA7171"/>
<path d="M23.0863 10.812C22.8029 11.322 22.4573 11.7017 22.0493 11.951C21.6413 12.189 21.1313 12.308 20.5193 12.308C20.0546 12.308 19.6296 12.2343 19.2443 12.087C18.8589 11.9397 18.5303 11.7073 18.2583 11.39C17.9863 11.0727 17.7709 10.676 17.6123 10.2C17.4649 9.71267 17.3913 9.13467 17.3913 8.466C17.3913 7.922 17.4479 7.34967 17.5613 6.749C17.6746 6.137 17.8786 5.576 18.1733 5.066C18.4793 4.556 18.8929 4.13667 19.4143 3.808C19.9356 3.468 20.6043 3.298 21.4203 3.298C21.7603 3.298 22.0493 3.33767 22.2873 3.417C22.5366 3.485 22.7463 3.58133 22.9163 3.706C23.0976 3.83067 23.2393 3.978 23.3413 4.148C23.4546 4.318 23.5396 4.49933 23.5963 4.692C23.5963 4.70333 23.5963 4.66367 23.5963 4.573C23.6076 4.471 23.6189 4.35767 23.6303 4.233C23.6416 4.10833 23.6473 3.98933 23.6473 3.876C23.6586 3.75133 23.6643 3.672 23.6643 3.638C23.6756 3.52467 23.7493 3.468 23.8853 3.468H24.6673C25.2566 3.468 25.6816 3.59267 25.9423 3.842C26.2143 4.08 26.3503 4.539 26.3503 5.219C26.3503 5.30967 26.3446 5.51933 26.3333 5.848C26.3219 6.16533 26.2993 6.55067 26.2653 7.004C26.2426 7.45733 26.2086 7.96167 26.1633 8.517C26.1179 9.061 26.0669 9.61067 26.0103 10.166C25.9536 10.7213 25.8913 11.254 25.8233 11.764C25.7553 12.274 25.6816 12.7217 25.6023 13.107C25.5229 13.4923 25.3869 13.8663 25.1943 14.229C25.0016 14.5917 24.7296 14.9147 24.3783 15.198C24.0269 15.4813 23.5736 15.708 23.0183 15.878C22.4743 16.048 21.8056 16.133 21.0123 16.133C20.4116 16.133 19.8846 16.0763 19.4313 15.963C18.9893 15.8497 18.6209 15.6967 18.3263 15.504C18.0316 15.3227 17.8049 15.113 17.6463 14.875C17.4989 14.637 17.4253 14.399 17.4253 14.161C17.4253 13.9457 17.4706 13.7587 17.5613 13.6C17.6519 13.4413 17.7709 13.311 17.9183 13.209C18.0656 13.107 18.2243 13.0277 18.3943 12.971C18.5756 12.9257 18.7456 12.903 18.9043 12.903C19.0969 12.903 19.2386 12.9597 19.3293 13.073C19.4199 13.1863 19.5219 13.311 19.6353 13.447C19.7486 13.5943 19.9073 13.7247 20.1113 13.838C20.3153 13.9513 20.6326 14.008 21.0633 14.008C21.8113 14.008 22.3326 13.7303 22.6273 13.175C22.9333 12.631 23.0863 11.8433 23.0863 10.812ZM21.6583 10.047C22.0663 10.047 22.3836 9.95067 22.6103 9.758C22.8483 9.56533 23.0296 9.333 23.1543 9.061C23.2789 8.789 23.3583 8.50567 23.3923 8.211C23.4263 7.91633 23.4433 7.66133 23.4433 7.446C23.4433 6.766 23.3356 6.28433 23.1203 6.001C22.9163 5.70633 22.6046 5.559 22.1853 5.559C21.7659 5.559 21.4373 5.67233 21.1993 5.899C20.9613 6.12567 20.7799 6.39767 20.6553 6.715C20.5419 7.021 20.4683 7.33267 20.4343 7.65C20.4003 7.956 20.3833 8.194 20.3833 8.364C20.3833 8.93067 20.4796 9.35567 20.6723 9.639C20.8649 9.911 21.1936 10.047 21.6583 10.047Z" fill="#EA7171"/>
<path d="M29.6044 12.818C29.2531 12.818 28.9641 12.784 28.7374 12.716C28.5221 12.6367 28.3464 12.529 28.2104 12.393C28.0858 12.257 27.9951 12.0927 27.9384 11.9C27.8931 11.696 27.8704 11.4637 27.8704 11.203C27.8704 11.033 27.8761 10.795 27.8874 10.489C27.9101 10.1717 27.9441 9.741 27.9894 9.197C28.0348 8.64167 28.0858 7.94467 28.1424 7.106C28.2104 6.256 28.2898 5.20767 28.3804 3.961C28.3918 3.71167 28.4201 3.56433 28.4654 3.519C28.4994 3.485 28.5901 3.468 28.7374 3.468H29.4004C29.7518 3.468 30.0351 3.502 30.2504 3.57C30.4771 3.638 30.6528 3.74 30.7774 3.876C30.9134 4.012 31.0041 4.17633 31.0494 4.369C31.1061 4.56167 31.1344 4.777 31.1344 5.015C31.1344 5.185 31.1231 5.44 31.1004 5.78C31.0778 6.12 31.0438 6.58467 30.9984 7.174C30.9644 7.752 30.9134 8.47733 30.8454 9.35C30.7774 10.2113 30.6924 11.254 30.5904 12.478C30.5791 12.614 30.5508 12.7047 30.5054 12.75C30.4601 12.7953 30.3638 12.818 30.2164 12.818H29.6044ZM28.3974 1.462C28.3974 1.00867 28.5618 0.651667 28.8904 0.391C29.2191 0.130333 29.6611 0 30.2164 0C30.7038 0 31.0551 0.102 31.2704 0.305999C31.4971 0.498666 31.6104 0.759333 31.6104 1.088C31.6104 1.50733 31.4518 1.85867 31.1344 2.142C30.8284 2.414 30.3751 2.55 29.7744 2.55C28.8564 2.55 28.3974 2.18733 28.3974 1.462Z" fill="#EA7171"/>
<path d="M38.4317 11.322C38.4317 11.0727 38.4487 10.7497 38.4827 10.353C38.528 9.945 38.5677 9.52 38.6017 9.078C38.647 8.62467 38.6867 8.18833 38.7207 7.769C38.766 7.34967 38.7887 6.99833 38.7887 6.715C38.7887 6.42033 38.715 6.15967 38.5677 5.933C38.4317 5.695 38.1597 5.576 37.7517 5.576C37.355 5.576 37.0264 5.67233 36.7657 5.865C36.505 6.05767 36.284 6.409 36.1027 6.919C35.9327 7.429 35.791 8.13167 35.6777 9.027C35.5644 9.92233 35.4567 11.0727 35.3547 12.478C35.3434 12.614 35.315 12.7047 35.2697 12.75C35.2244 12.7953 35.128 12.818 34.9807 12.818H34.3687C34.0174 12.818 33.7284 12.784 33.5017 12.716C33.2864 12.6367 33.1107 12.529 32.9747 12.393C32.85 12.257 32.7594 12.0927 32.7027 11.9C32.6574 11.696 32.6347 11.4637 32.6347 11.203C32.6347 11.033 32.6404 10.795 32.6517 10.489C32.6744 10.1717 32.7084 9.741 32.7537 9.197C32.799 8.64167 32.85 7.94467 32.9067 7.106C32.9747 6.256 33.054 5.20767 33.1447 3.961C33.156 3.71167 33.1844 3.56433 33.2297 3.519C33.2637 3.485 33.3544 3.468 33.5017 3.468H34.1647C34.5047 3.468 34.7824 3.50767 34.9977 3.587C35.2244 3.66633 35.4057 3.774 35.5417 3.91C35.6777 4.03467 35.774 4.18767 35.8307 4.369C35.8874 4.539 35.9214 4.71467 35.9327 4.896C36.284 4.29533 36.6864 3.88167 37.1397 3.655C37.593 3.417 38.1597 3.298 38.8397 3.298C39.3157 3.298 39.7294 3.349 40.0807 3.451C40.432 3.553 40.721 3.72867 40.9477 3.978C41.1857 4.216 41.3614 4.53333 41.4747 4.93C41.588 5.31533 41.6447 5.797 41.6447 6.375C41.6447 6.55633 41.6334 6.817 41.6107 7.157C41.588 7.497 41.5597 7.871 41.5257 8.279C41.4917 8.67567 41.452 9.095 41.4067 9.537C41.3727 9.96767 41.3387 10.37 41.3047 10.744C41.2707 11.118 41.2424 11.4467 41.2197 11.73C41.197 12.0133 41.1857 12.2003 41.1857 12.291C41.1857 12.5403 41.1574 12.6933 41.1007 12.75C41.044 12.7953 40.9194 12.818 40.7267 12.818H40.1827C39.82 12.818 39.5254 12.784 39.2987 12.716C39.072 12.648 38.8964 12.5517 38.7717 12.427C38.647 12.3023 38.5564 12.1493 38.4997 11.968C38.4544 11.7753 38.4317 11.56 38.4317 11.322Z" fill="#EA7171"/>
</svg>
