<svg width="64" height="17" viewBox="0 0 64 17" fill="none" xmlns="http://www.w3.org/2000/svg">
<path d="M1.872 12.978C1.2 12.978 0.72 12.846 0.432 12.582C0.144 12.318 0 11.94 0 11.448C0 11.208 0.018 10.8 0.054 10.224C0.09 9.636 0.138 8.97 0.198 8.226C0.258 7.482 0.318 6.696 0.378 5.868C0.438 5.04 0.498 4.26 0.558 3.528C0.618 2.796 0.666 2.154 0.702 1.602C0.738 1.05 0.756 0.672 0.756 0.467999C0.756 0.288 0.852 0.198 1.044 0.198H2.034C2.706 0.198 3.168 0.33 3.42 0.594C3.684 0.845999 3.816 1.224 3.816 1.728C3.816 1.788 3.81 1.842 3.798 1.89C3.798 1.938 3.798 1.992 3.798 2.052L3.204 10.458H6.444C6.516 10.458 6.582 10.482 6.642 10.53C6.702 10.566 6.732 10.626 6.732 10.71L6.66 11.772C6.636 12.132 6.534 12.426 6.354 12.654C6.186 12.87 5.832 12.978 5.292 12.978H1.872Z" fill="white"/>
<path d="M11.8325 13.158C11.0045 13.158 10.3145 13.044 9.76247 12.816C9.22247 12.576 8.79047 12.252 8.46647 11.844C8.14247 11.436 7.91447 10.962 7.78247 10.422C7.65047 9.87 7.58447 9.282 7.58447 8.658C7.58447 7.938 7.66847 7.236 7.83647 6.552C8.01647 5.856 8.31647 5.238 8.73647 4.698C9.15647 4.158 9.70847 3.726 10.3925 3.402C11.0885 3.066 11.9525 2.898 12.9845 2.898C14.4965 2.898 15.5765 3.27 16.2245 4.014C16.8845 4.746 17.2145 5.778 17.2145 7.11C17.2145 7.482 17.1845 7.896 17.1245 8.352C17.0765 8.796 16.9745 9.24 16.8185 9.684C16.6745 10.128 16.4705 10.56 16.2065 10.98C15.9545 11.4 15.6305 11.772 15.2345 12.096C14.8385 12.42 14.3585 12.678 13.7945 12.87C13.2425 13.062 12.5885 13.158 11.8325 13.158ZM12.6785 5.292C12.2225 5.292 11.8565 5.412 11.5805 5.652C11.3165 5.88 11.1125 6.162 10.9685 6.498C10.8365 6.822 10.7465 7.17 10.6985 7.542C10.6625 7.902 10.6445 8.208 10.6445 8.46C10.6445 9.252 10.7705 9.834 11.0225 10.206C11.2745 10.578 11.6345 10.764 12.1025 10.764C12.5225 10.764 12.8645 10.632 13.1285 10.368C13.4045 10.104 13.6145 9.786 13.7585 9.414C13.9145 9.042 14.0165 8.652 14.0645 8.244C14.1245 7.836 14.1545 7.494 14.1545 7.218C14.1545 6.618 14.0405 6.15 13.8125 5.814C13.5965 5.466 13.2185 5.292 12.6785 5.292Z" fill="white"/>
<path d="M24.4443 10.854C24.1443 11.394 23.7783 11.796 23.3463 12.06C22.9143 12.312 22.3743 12.438 21.7263 12.438C21.2343 12.438 20.7843 12.36 20.3763 12.204C19.9683 12.048 19.6203 11.802 19.3323 11.466C19.0443 11.13 18.8163 10.71 18.6483 10.206C18.4923 9.69 18.4143 9.078 18.4143 8.37C18.4143 7.794 18.4743 7.188 18.5943 6.552C18.7143 5.904 18.9303 5.31 19.2423 4.77C19.5663 4.23 20.0043 3.786 20.5563 3.438C21.1083 3.078 21.8163 2.898 22.6803 2.898C23.0403 2.898 23.3463 2.94 23.5983 3.024C23.8623 3.096 24.0843 3.198 24.2643 3.33C24.4563 3.462 24.6063 3.618 24.7143 3.798C24.8343 3.978 24.9243 4.17 24.9843 4.374C24.9843 4.386 24.9843 4.344 24.9843 4.248C24.9963 4.14 25.0083 4.02 25.0203 3.888C25.0323 3.756 25.0383 3.63 25.0383 3.51C25.0503 3.378 25.0563 3.294 25.0563 3.258C25.0683 3.138 25.1463 3.078 25.2903 3.078H26.1183C26.7423 3.078 27.1923 3.21 27.4683 3.474C27.7563 3.726 27.9003 4.212 27.9003 4.932C27.9003 5.028 27.8943 5.25 27.8823 5.598C27.8703 5.934 27.8463 6.342 27.8103 6.822C27.7863 7.302 27.7503 7.836 27.7023 8.424C27.6543 9 27.6003 9.582 27.5403 10.17C27.4803 10.758 27.4143 11.322 27.3423 11.862C27.2703 12.402 27.1923 12.876 27.1083 13.284C27.0243 13.692 26.8803 14.088 26.6763 14.472C26.4723 14.856 26.1843 15.198 25.8123 15.498C25.4403 15.798 24.9603 16.038 24.3723 16.218C23.7963 16.398 23.0883 16.488 22.2483 16.488C21.6123 16.488 21.0543 16.428 20.5743 16.308C20.1063 16.188 19.7163 16.026 19.4043 15.822C19.0923 15.63 18.8523 15.408 18.6843 15.156C18.5283 14.904 18.4503 14.652 18.4503 14.4C18.4503 14.172 18.4983 13.974 18.5943 13.806C18.6903 13.638 18.8163 13.5 18.9723 13.392C19.1283 13.284 19.2963 13.2 19.4763 13.14C19.6683 13.092 19.8483 13.068 20.0163 13.068C20.2203 13.068 20.3703 13.128 20.4663 13.248C20.5623 13.368 20.6703 13.5 20.7903 13.644C20.9103 13.8 21.0783 13.938 21.2943 14.058C21.5103 14.178 21.8463 14.238 22.3023 14.238C23.0943 14.238 23.6463 13.944 23.9583 13.356C24.2823 12.78 24.4443 11.946 24.4443 10.854ZM22.9323 10.044C23.3643 10.044 23.7003 9.942 23.9403 9.738C24.1923 9.534 24.3843 9.288 24.5163 9C24.6483 8.712 24.7323 8.412 24.7683 8.1C24.8043 7.788 24.8223 7.518 24.8223 7.29C24.8223 6.57 24.7083 6.06 24.4803 5.76C24.2643 5.448 23.9343 5.292 23.4903 5.292C23.0463 5.292 22.6983 5.412 22.4463 5.652C22.1943 5.892 22.0023 6.18 21.8703 6.516C21.7503 6.84 21.6723 7.17 21.6363 7.506C21.6003 7.83 21.5823 8.082 21.5823 8.262C21.5823 8.862 21.6843 9.312 21.8883 9.612C22.0923 9.9 22.4403 10.044 22.9323 10.044Z" fill="white"/>
<path d="M39.9111 0C40.7871 0 41.5371 0.126 42.1611 0.377999C42.7851 0.618 43.2951 0.978 43.6911 1.458C44.0871 1.926 44.3751 2.502 44.5551 3.186C44.7351 3.858 44.8251 4.626 44.8251 5.49C44.8251 5.97 44.7891 6.492 44.7171 7.056C44.6571 7.62 44.5371 8.19 44.3571 8.766C44.1891 9.33 43.9551 9.876 43.6551 10.404C43.3551 10.932 42.9651 11.4 42.4851 11.808C42.0171 12.216 41.4531 12.546 40.7931 12.798C40.1331 13.038 39.3531 13.158 38.4531 13.158C37.4571 13.158 36.6291 13.008 35.9691 12.708C35.3211 12.408 34.7991 12.006 34.4031 11.502C34.0191 10.986 33.7431 10.38 33.5751 9.684C33.4191 8.988 33.3411 8.244 33.3411 7.452C33.3411 6.516 33.4491 5.604 33.6651 4.716C33.8811 3.816 34.2411 3.018 34.7451 2.322C35.2611 1.626 35.9391 1.068 36.7791 0.647999C37.6191 0.216 38.6631 0 39.9111 0ZM39.5331 2.79C39.1131 2.79 38.7471 2.868 38.4351 3.024C38.1351 3.168 37.8771 3.366 37.6611 3.618C37.4571 3.87 37.2891 4.152 37.1571 4.464C37.0371 4.776 36.9411 5.1 36.8691 5.436C36.7971 5.76 36.7491 6.078 36.7251 6.39C36.7011 6.69 36.6891 6.96 36.6891 7.2C36.6891 8.292 36.8691 9.09 37.2291 9.594C37.6011 10.098 38.1231 10.35 38.7951 10.35C39.3471 10.35 39.7971 10.176 40.1451 9.828C40.4931 9.468 40.7631 9.042 40.9551 8.55C41.1591 8.046 41.2971 7.53 41.3691 7.002C41.4411 6.462 41.4771 6.006 41.4771 5.634C41.4771 4.758 41.3271 4.068 41.0271 3.564C40.7271 3.048 40.2291 2.79 39.5331 2.79Z" fill="white"/>
<path d="M49.5939 4.608C49.5939 4.86 49.5699 5.214 49.5219 5.67C49.4859 6.126 49.4439 6.6 49.3959 7.092C49.3599 7.584 49.3179 8.046 49.2699 8.478C49.2339 8.91 49.2159 9.222 49.2159 9.414C49.2159 9.834 49.3179 10.164 49.5219 10.404C49.7379 10.632 50.0319 10.746 50.4039 10.746C50.7279 10.746 50.9979 10.62 51.2139 10.368C51.4419 10.104 51.6219 9.768 51.7539 9.36C51.8979 8.94 52.0119 8.466 52.0959 7.938C52.1799 7.41 52.2399 6.876 52.2759 6.336C52.3239 5.796 52.3599 5.274 52.3839 4.77C52.4199 4.254 52.4559 3.81 52.4919 3.438C52.5039 3.342 52.5399 3.258 52.5999 3.186C52.6599 3.114 52.7559 3.078 52.8879 3.078H53.5359C53.9079 3.078 54.2079 3.12 54.4359 3.204C54.6759 3.276 54.8619 3.384 54.9939 3.528C55.1379 3.672 55.2339 3.852 55.2819 4.068C55.3419 4.272 55.3719 4.512 55.3719 4.788C55.3719 4.968 55.3599 5.226 55.3359 5.562C55.3239 5.886 55.2939 6.342 55.2459 6.93C55.1979 7.506 55.1379 8.244 55.0659 9.144C55.0059 10.032 54.9279 11.136 54.8319 12.456C54.8079 12.708 54.7779 12.858 54.7419 12.906C54.7179 12.954 54.6219 12.978 54.4539 12.978H53.7519C53.3919 12.978 53.0919 12.936 52.8519 12.852C52.6239 12.768 52.4379 12.66 52.2939 12.528C52.1499 12.396 52.0479 12.24 51.9879 12.06C51.9279 11.88 51.8919 11.694 51.8799 11.502C51.6999 11.814 51.4959 12.078 51.2679 12.294C51.0519 12.51 50.8239 12.684 50.5839 12.816C50.3439 12.936 50.0979 13.02 49.8459 13.068C49.5939 13.128 49.3479 13.158 49.1079 13.158C48.6519 13.158 48.2439 13.086 47.8839 12.942C47.5239 12.786 47.2179 12.582 46.9659 12.33C46.7259 12.078 46.5399 11.778 46.4079 11.43C46.2759 11.082 46.2099 10.71 46.2099 10.314C46.2099 10.158 46.2159 9.906 46.2279 9.558C46.2519 9.198 46.2759 8.796 46.2999 8.352C46.3359 7.908 46.3719 7.44 46.4079 6.948C46.4439 6.444 46.4739 5.97 46.4979 5.526C46.5339 5.082 46.5639 4.692 46.5879 4.356C46.6239 4.02 46.6479 3.78 46.6599 3.636C46.6839 3.42 46.7319 3.276 46.8039 3.204C46.8759 3.12 46.9959 3.078 47.1639 3.078H47.7399C48.1119 3.078 48.4179 3.114 48.6579 3.186C48.8979 3.258 49.0839 3.36 49.2159 3.492C49.3599 3.624 49.4559 3.786 49.5039 3.978C49.5639 4.158 49.5939 4.368 49.5939 4.608Z" fill="white"/>
<path d="M60.8189 5.508C60.7829 5.964 60.7409 6.414 60.6929 6.858C60.6569 7.302 60.6209 7.722 60.5849 8.118C60.5489 8.514 60.5189 8.868 60.4949 9.18C60.4829 9.492 60.4769 9.732 60.4769 9.9C60.4769 10.212 60.5129 10.422 60.5849 10.53C60.6569 10.626 60.7769 10.674 60.9449 10.674C61.0769 10.674 61.1909 10.65 61.2869 10.602C61.3829 10.554 61.4729 10.5 61.5569 10.44C61.6409 10.38 61.7129 10.326 61.7729 10.278C61.8449 10.23 61.9229 10.206 62.0069 10.206C62.0909 10.206 62.1689 10.254 62.2409 10.35C62.3129 10.446 62.3489 10.668 62.3489 11.016C62.3489 11.676 62.1689 12.198 61.8089 12.582C61.4489 12.966 60.8309 13.158 59.9549 13.158C59.0909 13.158 58.4489 12.96 58.0289 12.564C57.6209 12.156 57.4169 11.538 57.4169 10.71C57.4169 10.53 57.4229 10.32 57.4349 10.08C57.4589 9.828 57.4889 9.504 57.5249 9.108C57.5609 8.712 57.6029 8.226 57.6509 7.65C57.7109 7.074 57.7709 6.36 57.8309 5.508H56.8769C56.7809 5.508 56.7209 5.49 56.6969 5.454C56.6849 5.406 56.6789 5.34 56.6789 5.256L56.7329 4.338C56.7449 4.182 56.7629 4.032 56.7869 3.888C56.8229 3.732 56.8829 3.594 56.9669 3.474C57.0629 3.354 57.1949 3.258 57.3629 3.186C57.5309 3.114 57.7529 3.078 58.0289 3.078C58.1129 2.862 58.2089 2.604 58.3169 2.304C58.4249 2.004 58.5329 1.716 58.6409 1.44C58.7489 1.152 58.8509 0.912 58.9469 0.719999C59.0549 0.528 59.1509 0.432 59.2349 0.432H59.7569C60.2609 0.432 60.6089 0.588 60.8009 0.9C60.9929 1.212 61.0889 1.584 61.0889 2.016C61.0889 2.256 61.0709 2.61 61.0349 3.078H62.9249C63.1169 3.078 63.2129 3.162 63.2129 3.33L63.1409 4.302C63.1169 4.662 63.0149 4.956 62.8349 5.184C62.6669 5.4 62.3129 5.508 61.7729 5.508H60.8189Z" fill="white"/>
</svg>
