<svg width="46" height="10" viewBox="0 0 46 10" fill="none" xmlns="http://www.w3.org/2000/svg">
<path d="M1.73 5.74C1.71 6.04667 1.68667 6.34 1.66 6.62C1.63333 6.89333 1.61333 7.13333 1.6 7.34C1.59333 7.42 1.57667 7.47333 1.55 7.5C1.52333 7.52667 1.46667 7.54 1.38 7.54H1.02C0.813333 7.54 0.643333 7.52 0.51 7.48C0.383333 7.43333 0.28 7.37 0.2 7.29C0.126667 7.21 0.0733333 7.11333 0.04 7C0.0133333 6.88 0 6.74333 0 6.59C0 6.49 0.00333334 6.35 0.01 6.17C0.0233334 5.98333 0.0433333 5.73 0.07 5.41C0.0966667 5.08333 0.126667 4.67333 0.16 4.18C0.2 3.68 0.246667 3.06333 0.3 2.33C0.306667 2.18333 0.323333 2.09667 0.35 2.07C0.37 2.05 0.423333 2.04 0.51 2.04H0.9C1.1 2.04 1.26333 2.06333 1.39 2.11C1.51667 2.15667 1.62 2.21667 1.7 2.29C1.78 2.36333 1.83667 2.45 1.87 2.55C1.90333 2.65 1.92333 2.75333 1.93 2.86C2.12333 2.5 2.34333 2.25667 2.59 2.13C2.83667 2.00333 3.12667 1.94 3.46 1.94C3.64 1.94 3.81333 1.95667 3.98 1.99C4.14667 2.02333 4.29667 2.08 4.43 2.16C4.56333 2.24 4.67667 2.34667 4.77 2.48C4.86333 2.60667 4.93 2.77 4.97 2.97C5.17667 2.58333 5.40333 2.31667 5.65 2.17C5.89667 2.01667 6.20667 1.94 6.58 1.94C6.78667 1.94 6.98333 1.96333 7.17 2.01C7.36333 2.05 7.53 2.12333 7.67 2.23C7.81 2.33667 7.92 2.48333 8 2.67C8.08667 2.85 8.13 3.07667 8.13 3.35C8.13 3.55667 8.12 3.81 8.1 4.11C8.08 4.41 8.05667 4.73667 8.03 5.09C8.00333 5.43667 7.97333 5.79667 7.94 6.17C7.90667 6.53667 7.88 6.89 7.86 7.23C7.85333 7.30333 7.84667 7.36 7.84 7.4C7.83333 7.44 7.82 7.47 7.8 7.49C7.78667 7.51 7.76333 7.52333 7.73 7.53C7.69667 7.53667 7.65 7.54 7.59 7.54H7.27C7.05667 7.54 6.88333 7.52 6.75 7.48C6.61667 7.44 6.51333 7.38333 6.44 7.31C6.36667 7.23667 6.31333 7.14667 6.28 7.04C6.25333 6.92667 6.24 6.8 6.24 6.66C6.24 6.57333 6.24333 6.45 6.25 6.29C6.26333 6.13 6.27667 5.95667 6.29 5.77C6.31 5.58333 6.32667 5.39 6.34 5.19C6.36 4.99 6.37667 4.80667 6.39 4.64C6.41 4.46667 6.42333 4.31667 6.43 4.19C6.44333 4.06333 6.45 3.98 6.45 3.94C6.45 3.76667 6.41333 3.61333 6.34 3.48C6.27333 3.34667 6.14 3.28 5.94 3.28C5.76667 3.28 5.61667 3.33667 5.49 3.45C5.36333 3.56333 5.25667 3.72 5.17 3.92C5.08333 4.12 5.01333 4.35667 4.96 4.63C4.90667 4.90333 4.87 5.2 4.85 5.52C4.83667 5.72667 4.82 5.96333 4.8 6.23C4.78 6.49667 4.75667 6.83 4.73 7.23C4.72333 7.30333 4.71667 7.36 4.71 7.4C4.70333 7.44 4.69 7.47 4.67 7.49C4.65667 7.51 4.63333 7.52333 4.6 7.53C4.56667 7.53667 4.52 7.54 4.46 7.54H4.14C3.92667 7.54 3.75333 7.52 3.62 7.48C3.48667 7.44 3.38333 7.38333 3.31 7.31C3.23667 7.23667 3.18333 7.14667 3.15 7.04C3.12333 6.92667 3.11 6.8 3.11 6.66C3.11 6.52667 3.12 6.33333 3.14 6.08C3.16667 5.82 3.19 5.55333 3.21 5.28C3.23667 5 3.26 4.73667 3.28 4.49C3.30667 4.23667 3.32 4.05333 3.32 3.94C3.32 3.76667 3.28333 3.61333 3.21 3.48C3.14333 3.34667 3.01 3.28 2.81 3.28C2.63 3.28 2.47667 3.34667 2.35 3.48C2.22333 3.61333 2.11667 3.79333 2.03 4.02C1.95 4.24 1.88333 4.5 1.83 4.8C1.78333 5.1 1.75 5.41333 1.73 5.74Z" fill="white"/>
<path d="M10.7077 2.96C10.7077 3.11333 10.6977 3.29667 10.6777 3.51C10.6577 3.71667 10.6344 3.92667 10.6077 4.14C10.5877 4.34667 10.5677 4.54333 10.5477 4.73C10.5277 4.91 10.5177 5.05 10.5177 5.15C10.5177 5.40333 10.5777 5.59333 10.6977 5.72C10.8244 5.84 10.9777 5.9 11.1577 5.9C11.471 5.9 11.721 5.73667 11.9077 5.41C12.0944 5.08333 12.211 4.65 12.2577 4.11L12.4177 2.24C12.4244 2.16667 12.4477 2.11667 12.4877 2.09C12.5344 2.05667 12.5844 2.04 12.6377 2.04H12.9977C13.1377 2.04 13.2677 2.05333 13.3877 2.08C13.5144 2.1 13.6244 2.14333 13.7177 2.21C13.811 2.27 13.8844 2.35333 13.9377 2.46C13.991 2.56667 14.0177 2.70333 14.0177 2.87C14.0177 2.93667 14.011 3.06333 13.9977 3.25C13.991 3.43 13.9744 3.69333 13.9477 4.04C13.9277 4.38 13.8977 4.81333 13.8577 5.34C13.8177 5.86 13.771 6.49667 13.7177 7.25C13.6844 7.69 13.5844 8.05333 13.4177 8.34C13.2577 8.63333 13.0544 8.86333 12.8077 9.03C12.561 9.20333 12.2844 9.32333 11.9777 9.39C11.671 9.45667 11.3577 9.49 11.0377 9.49C10.6977 9.49 10.3844 9.46 10.0977 9.4C9.81769 9.34 9.57436 9.25667 9.36769 9.15C9.16103 9.04333 8.99769 8.92 8.87769 8.78C8.76436 8.64 8.70769 8.49 8.70769 8.33C8.70769 8.20333 8.73436 8.09333 8.78769 8C8.84769 7.90667 8.92436 7.83 9.01769 7.77C9.11103 7.71 9.21769 7.66333 9.33769 7.63C9.46436 7.60333 9.59436 7.59 9.72769 7.59C9.79436 7.59 9.84103 7.62333 9.86769 7.69C9.90103 7.75667 9.94769 7.83 10.0077 7.91C10.0744 7.99667 10.1777 8.07333 10.3177 8.14C10.4577 8.20667 10.6677 8.24 10.9477 8.24C11.1944 8.24 11.3944 8.18 11.5477 8.06C11.701 7.94 11.8177 7.78667 11.8977 7.6C11.9844 7.41333 12.041 7.21 12.0677 6.99C12.0944 6.77 12.1077 6.56 12.1077 6.36C12.001 6.54667 11.881 6.7 11.7477 6.82C11.621 6.93333 11.4877 7.02333 11.3477 7.09C11.2077 7.15 11.0677 7.19 10.9277 7.21C10.7877 7.23 10.6544 7.24 10.5277 7.24C10.281 7.24 10.0544 7.20667 9.84769 7.14C9.64769 7.07333 9.47436 6.96667 9.32769 6.82C9.18103 6.66667 9.06769 6.47 8.98769 6.23C8.90769 5.99 8.86769 5.7 8.86769 5.36C8.86769 5.23333 8.87436 5.06667 8.88769 4.86C8.90103 4.64667 8.91769 4.41 8.93769 4.15C8.95769 3.88333 8.97769 3.59667 8.99769 3.29C9.02436 2.98333 9.05103 2.67 9.07769 2.35C9.09103 2.14333 9.18436 2.04 9.35769 2.04H9.67769C9.89103 2.04 10.0644 2.06 10.1977 2.1C10.331 2.14 10.4344 2.2 10.5077 2.28C10.5877 2.35333 10.641 2.45 10.6677 2.57C10.6944 2.68333 10.7077 2.81333 10.7077 2.96Z" fill="white"/>
<path d="M20.0582 1.94C20.6848 1.94 21.1548 2.13333 21.4682 2.52C21.7882 2.90667 21.9482 3.51667 21.9482 4.35C21.9482 4.87 21.8882 5.33333 21.7682 5.74C21.6482 6.14667 21.4815 6.49333 21.2682 6.78C21.0548 7.06 20.8048 7.27333 20.5182 7.42C20.2315 7.56667 19.9215 7.64 19.5882 7.64C19.2348 7.64 18.9582 7.56333 18.7582 7.41C18.5582 7.25667 18.4015 7.04 18.2882 6.76C18.2682 7 18.2515 7.18333 18.2382 7.31C18.2248 7.43667 18.2148 7.53667 18.2082 7.61C18.2015 7.69 18.1948 7.76 18.1882 7.82C18.1882 7.88 18.1815 7.96 18.1682 8.06C18.1615 8.16 18.1515 8.29667 18.1382 8.47C18.1248 8.64333 18.1048 8.88333 18.0782 9.19C18.0715 9.27 18.0548 9.32333 18.0282 9.35C18.0015 9.37667 17.9448 9.39 17.8582 9.39H17.4982C17.2915 9.39 17.1215 9.36667 16.9882 9.32C16.8615 9.28 16.7582 9.22 16.6782 9.14C16.6048 9.06 16.5515 8.96 16.5182 8.84C16.4915 8.72667 16.4782 8.59333 16.4782 8.44C16.4782 8.37333 16.4882 8.19333 16.5082 7.9C16.5282 7.60667 16.5515 7.25667 16.5782 6.85C16.6115 6.43667 16.6448 5.99333 16.6782 5.52C16.7182 5.04667 16.7548 4.59667 16.7882 4.17C16.8215 3.73667 16.8482 3.35333 16.8682 3.02C16.8948 2.68667 16.9148 2.45667 16.9282 2.33C16.9348 2.18333 16.9515 2.09667 16.9782 2.07C16.9982 2.05 17.0515 2.04 17.1382 2.04H17.5282C17.8882 2.04 18.1482 2.11667 18.3082 2.27C18.4748 2.41667 18.5582 2.59333 18.5582 2.8C18.7115 2.49333 18.9082 2.27333 19.1482 2.14C19.3948 2.00667 19.6982 1.94 20.0582 1.94ZM19.3282 3.27C18.9882 3.27 18.7382 3.41667 18.5782 3.71C18.4182 4.00333 18.3382 4.40333 18.3382 4.91C18.3382 5.08333 18.3482 5.25333 18.3682 5.42C18.3948 5.58667 18.4382 5.73667 18.4982 5.87C18.5582 6.00333 18.6382 6.11 18.7382 6.19C18.8448 6.27 18.9782 6.31 19.1382 6.31C19.4248 6.31 19.6648 6.17 19.8582 5.89C20.0515 5.61 20.1482 5.17 20.1482 4.57C20.1482 4.40333 20.1348 4.24333 20.1082 4.09C20.0882 3.93 20.0482 3.79 19.9882 3.67C19.9282 3.55 19.8448 3.45333 19.7382 3.38C19.6315 3.30667 19.4948 3.27 19.3282 3.27Z" fill="white"/>
<path d="M25.7255 4.43C25.6855 4.43 25.6388 4.43 25.5855 4.43C25.5388 4.42333 25.4921 4.41667 25.4455 4.41C25.3988 4.39667 25.3588 4.38333 25.3255 4.37C25.2921 4.35 25.2755 4.32667 25.2755 4.3C25.2755 4.21333 25.2788 4.13333 25.2855 4.06C25.2921 3.98667 25.2955 3.91 25.2955 3.83C25.2955 3.68333 25.2755 3.56333 25.2355 3.47C25.1955 3.37667 25.1155 3.33 24.9955 3.33C24.8088 3.33 24.6521 3.45333 24.5255 3.7C24.4055 3.94 24.3288 4.30333 24.2955 4.79C24.2821 5.00333 24.2621 5.24667 24.2355 5.52C24.2155 5.78667 24.1955 6.04667 24.1755 6.3C24.1555 6.54667 24.1388 6.76667 24.1255 6.96C24.1121 7.15333 24.1055 7.28 24.1055 7.34C24.1055 7.40667 24.0821 7.45667 24.0355 7.49C23.9888 7.52333 23.9388 7.54 23.8855 7.54H23.5255C23.3188 7.54 23.1488 7.52 23.0155 7.48C22.8888 7.43333 22.7855 7.37 22.7055 7.29C22.6321 7.21 22.5788 7.11333 22.5455 7C22.5188 6.88 22.5055 6.74333 22.5055 6.59C22.5055 6.49 22.5088 6.35 22.5155 6.17C22.5288 5.98333 22.5488 5.73 22.5755 5.41C22.6021 5.08333 22.6321 4.67333 22.6655 4.18C22.7055 3.68 22.7521 3.06333 22.8055 2.33C22.8188 2.13667 22.8888 2.04 23.0155 2.04H23.4055C23.5921 2.04 23.7488 2.06 23.8755 2.1C24.0021 2.14 24.1055 2.19667 24.1855 2.27C24.2655 2.33667 24.3221 2.41667 24.3555 2.51C24.3955 2.60333 24.4221 2.7 24.4355 2.8C24.5155 2.64667 24.6088 2.51667 24.7155 2.41C24.8288 2.29667 24.9455 2.20667 25.0655 2.14C25.1855 2.06667 25.3088 2.01667 25.4355 1.99C25.5621 1.95667 25.6788 1.94 25.7855 1.94C25.9121 1.94 26.0388 1.96333 26.1655 2.01C26.2988 2.05667 26.4188 2.12667 26.5255 2.22C26.6321 2.31333 26.7155 2.43333 26.7755 2.58C26.8421 2.72667 26.8755 2.9 26.8755 3.1C26.8755 3.28 26.8488 3.45 26.7955 3.61C26.7421 3.77 26.6655 3.91333 26.5655 4.04C26.4655 4.16 26.3421 4.25667 26.1955 4.33C26.0555 4.39667 25.8988 4.43 25.7255 4.43Z" fill="white"/>
<path d="M29.2949 7.64C28.8349 7.64 28.4515 7.57667 28.1449 7.45C27.8449 7.31667 27.6049 7.13667 27.4249 6.91C27.2449 6.68333 27.1182 6.42 27.0449 6.12C26.9715 5.81333 26.9349 5.48667 26.9349 5.14C26.9349 4.74 26.9815 4.35 27.0749 3.97C27.1749 3.58333 27.3415 3.24 27.5749 2.94C27.8082 2.64 28.1149 2.4 28.4949 2.22C28.8815 2.03333 29.3615 1.94 29.9349 1.94C30.7749 1.94 31.3749 2.14667 31.7349 2.56C32.1015 2.96667 32.2849 3.54 32.2849 4.28C32.2849 4.48667 32.2682 4.71667 32.2349 4.97C32.2082 5.21667 32.1515 5.46333 32.0649 5.71C31.9849 5.95667 31.8715 6.19667 31.7249 6.43C31.5849 6.66333 31.4049 6.87 31.1849 7.05C30.9649 7.23 30.6982 7.37333 30.3849 7.48C30.0782 7.58667 29.7149 7.64 29.2949 7.64ZM29.7649 3.27C29.5115 3.27 29.3082 3.33667 29.1549 3.47C29.0082 3.59667 28.8949 3.75333 28.8149 3.94C28.7415 4.12 28.6915 4.31333 28.6649 4.52C28.6449 4.72 28.6349 4.89 28.6349 5.03C28.6349 5.47 28.7049 5.79333 28.8449 6C28.9849 6.20667 29.1849 6.31 29.4449 6.31C29.6782 6.31 29.8682 6.23667 30.0149 6.09C30.1682 5.94333 30.2849 5.76667 30.3649 5.56C30.4515 5.35333 30.5082 5.13667 30.5349 4.91C30.5682 4.68333 30.5849 4.49333 30.5849 4.34C30.5849 4.00667 30.5215 3.74667 30.3949 3.56C30.2749 3.36667 30.0649 3.27 29.7649 3.27Z" fill="white"/>
<path d="M36.9357 7.54C36.729 7.54 36.559 7.52 36.4257 7.48C36.299 7.43333 36.1957 7.37 36.1157 7.29C36.0424 7.21 35.989 7.11333 35.9557 7C35.929 6.88 35.9157 6.74333 35.9157 6.59C35.9157 6.50333 35.9157 6.41667 35.9157 6.33C35.9224 6.23667 35.9324 6.10667 35.9457 5.94C35.959 5.76667 35.9757 5.53667 35.9957 5.25C36.0224 4.95667 36.0524 4.56667 36.0857 4.08H34.8757C34.8624 4.28 34.8457 4.49667 34.8257 4.73C34.8057 4.96333 34.7857 5.2 34.7657 5.44C34.7457 5.67333 34.7257 5.90333 34.7057 6.13C34.6924 6.35667 34.679 6.55667 34.6657 6.73C34.6524 6.90333 34.639 7.04667 34.6257 7.16C34.619 7.27333 34.6157 7.33333 34.6157 7.34C34.609 7.42 34.5924 7.47333 34.5657 7.5C34.539 7.52667 34.4823 7.54 34.3957 7.54H34.0357C33.8557 7.54 33.7024 7.52667 33.5757 7.5C33.4557 7.47333 33.3557 7.42333 33.2757 7.35C33.2024 7.27667 33.149 7.17333 33.1157 7.04C33.0824 6.90667 33.0657 6.73333 33.0657 6.52C33.0857 6.27333 33.1057 6.01333 33.1257 5.74C33.139 5.50667 33.1557 5.24667 33.1757 4.96C33.1957 4.66667 33.219 4.37333 33.2457 4.08H32.7657C32.6924 4.08 32.6557 4.04333 32.6557 3.97L32.6857 3.43C32.6924 3.35 32.7024 3.27 32.7157 3.19C32.7357 3.10333 32.7657 3.03 32.8057 2.97C32.8524 2.90333 32.919 2.85 33.0057 2.81C33.0924 2.76333 33.2057 2.73667 33.3457 2.73L33.3857 2.33C33.4257 1.89667 33.5123 1.53333 33.6457 1.24C33.7857 0.94 33.9624 0.7 34.1757 0.52C34.3957 0.333333 34.6524 0.2 34.9457 0.12C35.2457 0.0399999 35.5824 0 35.9557 0C36.3223 0 36.6357 0.0333333 36.8957 0.0999999C37.1557 0.16 37.369 0.246666 37.5357 0.36C37.7024 0.473333 37.8223 0.606666 37.8957 0.76C37.969 0.906667 38.0057 1.06333 38.0057 1.23C38.0057 1.57667 37.8957 1.82333 37.6757 1.97C37.4624 2.11667 37.1724 2.19 36.8057 2.19C36.7057 2.19 36.6357 2.18333 36.5957 2.17C36.5624 2.15 36.5457 2.11 36.5457 2.05C36.5457 1.94333 36.539 1.84667 36.5257 1.76C36.519 1.66667 36.4957 1.59 36.4557 1.53C36.4157 1.47 36.3557 1.42333 36.2757 1.39C36.1957 1.35667 36.089 1.34 35.9557 1.34C35.789 1.34 35.649 1.38 35.5357 1.46C35.4224 1.54 35.329 1.64667 35.2557 1.78C35.1824 1.90667 35.1257 2.05333 35.0857 2.22C35.0457 2.38667 35.0124 2.55667 34.9857 2.73H36.7957C36.9957 2.73 37.159 2.75333 37.2857 2.8C37.4124 2.84 37.5124 2.9 37.5857 2.98C37.659 3.06 37.709 3.15667 37.7357 3.27C37.769 3.37667 37.7857 3.5 37.7857 3.64C37.7857 3.74 37.7824 3.85333 37.7757 3.98C37.769 4.10667 37.7557 4.3 37.7357 4.56C37.7157 4.82 37.689 5.17 37.6557 5.61C37.6224 6.04333 37.5757 6.62 37.5157 7.34C37.509 7.42 37.4924 7.47333 37.4657 7.5C37.439 7.52667 37.3824 7.54 37.2957 7.54H36.9357Z" fill="white"/>
<path d="M39.5114 7.63C39.0981 7.63 38.8014 7.52 38.6214 7.3C38.4414 7.08 38.3514 6.71667 38.3514 6.21C38.3514 6.13 38.3548 6.03 38.3614 5.91C38.3748 5.79 38.3881 5.63667 38.4014 5.45C38.4214 5.25667 38.4448 5.02 38.4714 4.74C38.4981 4.46 38.5248 4.12 38.5514 3.72C38.5848 3.32 38.6181 2.85 38.6514 2.31C38.6914 1.77 38.7314 1.14333 38.7714 0.43C38.7781 0.283333 38.7948 0.196666 38.8214 0.17C38.8414 0.15 38.8948 0.14 38.9814 0.14H39.3714C39.5714 0.14 39.7381 0.163333 39.8714 0.21C40.0048 0.256667 40.1114 0.32 40.1914 0.4C40.2714 0.48 40.3281 0.573333 40.3614 0.68C40.3948 0.78 40.4114 0.886667 40.4114 1C40.4114 1.13333 40.4014 1.32667 40.3814 1.58C40.3681 1.82667 40.3481 2.10667 40.3214 2.42C40.2948 2.73333 40.2681 3.06 40.2414 3.4C40.2148 3.74 40.1881 4.06667 40.1614 4.38C40.1348 4.68667 40.1114 4.96333 40.0914 5.21C40.0781 5.45667 40.0714 5.64333 40.0714 5.77C40.0714 5.94333 40.1014 6.06667 40.1614 6.14C40.2281 6.21333 40.2981 6.26667 40.3714 6.3C40.4448 6.32667 40.5114 6.34667 40.5714 6.36C40.6381 6.36667 40.6714 6.38667 40.6714 6.42C40.6714 6.56667 40.6548 6.71333 40.6214 6.86C40.5881 7 40.5281 7.13 40.4414 7.25C40.3548 7.36333 40.2348 7.45667 40.0814 7.53C39.9348 7.59667 39.7448 7.63 39.5114 7.63Z" fill="white"/>
<path d="M43.4533 7.64C43.1599 7.64 42.8666 7.60333 42.5733 7.53C42.2866 7.45667 42.0266 7.33 41.7933 7.15C41.5666 6.97 41.3799 6.73 41.2333 6.43C41.0866 6.13 41.0133 5.75333 41.0133 5.3C41.0133 5.13333 41.0266 4.93333 41.0533 4.7C41.0799 4.46667 41.1299 4.22667 41.2033 3.98C41.2833 3.73333 41.3899 3.49 41.5233 3.25C41.6633 3.00333 41.8433 2.78333 42.0633 2.59C42.2833 2.39667 42.5499 2.24 42.8633 2.12C43.1766 2 43.5499 1.94 43.9833 1.94C44.3299 1.94 44.6233 1.98 44.8633 2.06C45.1033 2.14 45.2966 2.25 45.4433 2.39C45.5899 2.52333 45.6966 2.68 45.7633 2.86C45.8299 3.04 45.8633 3.23333 45.8633 3.44C45.8633 3.74667 45.7999 4.00667 45.6733 4.22C45.5533 4.43333 45.3933 4.61333 45.1933 4.76C44.9999 4.9 44.7833 5.01 44.5433 5.09C44.3033 5.17 44.0666 5.23333 43.8333 5.28C43.5999 5.32 43.3833 5.34667 43.1833 5.36C42.9899 5.36667 42.8399 5.37 42.7333 5.37C42.7333 5.49667 42.7499 5.62333 42.7833 5.75C42.8233 5.87 42.8799 5.97667 42.9533 6.07C43.0266 6.16333 43.1233 6.24 43.2433 6.3C43.3633 6.36 43.5099 6.39 43.6833 6.39C43.8566 6.39 43.9899 6.36333 44.0833 6.31C44.1833 6.25 44.2633 6.18667 44.3233 6.12C44.3833 6.04667 44.4333 5.98333 44.4733 5.93C44.5199 5.87 44.5799 5.84 44.6533 5.84C44.6866 5.84 44.7433 5.85 44.8233 5.87C44.9099 5.88333 44.9966 5.91667 45.0833 5.97C45.1699 6.02333 45.2466 6.09667 45.3133 6.19C45.3799 6.28333 45.4133 6.40333 45.4133 6.55C45.4133 6.74333 45.3533 6.91 45.2333 7.05C45.1133 7.19 44.9566 7.30333 44.7633 7.39C44.5766 7.47667 44.3666 7.54 44.1333 7.58C43.8999 7.62 43.6733 7.64 43.4533 7.64ZM43.6433 3.27C43.4966 3.27 43.3699 3.31333 43.2633 3.4C43.1633 3.48 43.0766 3.58333 43.0033 3.71C42.9366 3.83667 42.8833 3.97667 42.8433 4.13C42.8099 4.28333 42.7833 4.43 42.7633 4.57C43.1766 4.56333 43.5099 4.49333 43.7633 4.36C44.0233 4.22667 44.1533 4.03667 44.1533 3.79C44.1533 3.65667 44.1099 3.53667 44.0233 3.43C43.9433 3.32333 43.8166 3.27 43.6433 3.27Z" fill="white"/>
</svg>
