<svg width="120" height="36" viewBox="0 0 120 36" fill="none" xmlns="http://www.w3.org/2000/svg">
<g filter="url(#filter0_d_69_14)">
<path d="M15.2014 0.0383035C17.5809 0.0383035 19.3402 0.561788 20.4793 1.60876C21.6438 2.65572 22.226 4.02189 22.226 5.70725C22.226 7.13726 21.8336 8.2353 21.0489 9.00137C20.2642 9.74191 19.1377 10.1122 17.6695 10.1122C17.2139 10.1122 16.9227 10.0739 16.7962 9.99726C16.6696 9.89512 16.6063 9.7036 16.6063 9.42271C16.6063 9.16735 16.581 8.83539 16.5304 8.42681C16.5051 8.01824 16.4165 7.62244 16.2646 7.2394C16.1127 6.85636 15.8722 6.53716 15.5431 6.28181C15.2141 6.00091 14.7584 5.86047 14.1762 5.86047C13.3661 5.86047 12.6447 6.11582 12.0118 6.62654C11.379 7.11172 11.0626 7.75011 11.0626 8.54173C11.0626 9.23119 11.3157 9.79298 11.822 10.2271C12.3536 10.6612 13.0117 11.0698 13.7965 11.4528C14.5812 11.8103 15.4292 12.1806 16.3405 12.5636C17.2771 12.9466 18.1378 13.4574 18.9225 14.0958C19.7073 14.7086 20.3528 15.4875 20.8591 16.4323C21.3906 17.3516 21.6564 18.5262 21.6564 19.9562C21.6564 21.0798 21.4666 22.1395 21.0869 23.1354C20.7325 24.1058 20.1882 24.9612 19.4541 25.7018C18.7453 26.4168 17.834 26.9786 16.7202 27.3871C15.6317 27.7957 14.3534 28 12.8852 28C11.6195 28 10.4424 27.8596 9.35389 27.5787C8.29071 27.2978 7.35409 26.953 6.54405 26.5445C5.75932 26.1104 5.13913 25.6507 4.68348 25.1655C4.22783 24.6548 4 24.1952 4 23.7866C4 22.1012 4.0886 20.8883 4.2658 20.1477C4.46831 19.4072 4.8227 19.0369 5.32898 19.0369C5.68337 19.0369 6.05043 19.1902 6.43013 19.4966C6.83516 19.803 7.29081 20.1477 7.79709 20.5308C8.30336 20.9138 8.88558 21.2586 9.54374 21.565C10.2272 21.8714 11.012 22.0246 11.8979 22.0246C12.2523 22.0246 12.5941 21.9991 12.9231 21.948C13.2775 21.8714 13.5813 21.7565 13.8344 21.6033C14.1129 21.4501 14.3281 21.2458 14.48 20.9904C14.6572 20.7351 14.7457 20.4286 14.7457 20.0711C14.7457 19.4327 14.5053 18.922 14.0243 18.539C13.5433 18.156 12.9358 17.8112 12.2017 17.5048C11.4676 17.1728 10.6702 16.8409 9.80954 16.5089C8.97418 16.1514 8.18945 15.679 7.45535 15.0917C6.72124 14.4788 6.11371 13.7 5.63275 12.7551C5.15178 11.8103 4.9113 10.5974 4.9113 9.11628C4.9113 7.45645 5.21507 6.05198 5.8226 4.90287C6.45545 3.75376 7.25284 2.82171 8.21476 2.1067C9.20201 1.36616 10.3032 0.84268 11.5182 0.536251C12.7586 0.204286 13.9863 0.0383035 15.2014 0.0383035Z" fill="white"/>
<path d="M37.4823 5.78386L36.0394 27.0424C36.0141 27.4254 35.8749 27.617 35.6218 27.617H33.5334C32.1158 27.617 31.1032 27.3361 30.4957 26.7743C29.8882 26.2125 29.5844 25.4081 29.5844 24.3612C29.5844 23.9781 29.5971 23.4036 29.6224 22.6375C29.673 21.8714 29.7363 20.9777 29.8122 19.9562C29.8882 18.9093 29.9641 17.7857 30.0401 16.5855C30.1413 15.3598 30.2426 14.1341 30.3438 12.9083C30.4451 11.6571 30.5337 10.4186 30.6096 9.19289C30.7109 7.96717 30.7995 6.83082 30.8754 5.78386H24.8001C24.5216 5.78386 24.3824 5.60511 24.3824 5.24761L24.4963 3.1026C24.5216 2.77063 24.5723 2.45144 24.6482 2.14501C24.7494 1.81304 24.9013 1.51938 25.1038 1.26402C25.3064 1.00866 25.5595 0.804377 25.8633 0.651161C26.1923 0.497947 26.5847 0.42134 27.0404 0.42134H44.0133C44.1652 0.42134 44.3044 0.459644 44.431 0.536251C44.5576 0.612858 44.6209 0.753305 44.6209 0.957591L44.469 3.21751C44.4183 3.98358 44.2032 4.60921 43.8235 5.09439C43.4691 5.55404 42.7223 5.78386 41.5832 5.78386H37.4823Z" fill="white"/>
<path d="M58.4485 0C60.2964 0 61.8786 0.268125 63.1949 0.804376C64.5112 1.31509 65.5871 2.08117 66.4224 3.1026C67.2578 4.0985 67.8653 5.32421 68.245 6.77975C68.6247 8.20976 68.8146 9.84405 68.8146 11.6826C68.8146 12.7041 68.7386 13.8149 68.5868 15.015C68.4602 16.2152 68.207 17.4282 67.8273 18.6539C67.4729 19.8541 66.9793 21.016 66.3465 22.1395C65.7136 23.2631 64.8909 24.259 63.8784 25.1272C62.8911 25.9954 61.7014 26.6977 60.3091 27.2339C58.9168 27.7446 57.2714 28 55.3729 28C53.2718 28 51.5252 27.6808 50.1329 27.0424C48.766 26.404 47.6648 25.5486 46.8295 24.4761C46.0194 23.378 45.4372 22.0885 45.0828 20.6074C44.7537 19.1263 44.5892 17.5431 44.5892 15.8577C44.5892 13.8659 44.817 11.9252 45.2727 10.0356C45.7283 8.12038 46.4877 6.42225 47.5509 4.94118C48.6394 3.4601 50.0696 2.27268 51.8416 1.37893C53.6136 0.459644 55.8159 0 58.4485 0ZM57.6511 5.93707C56.7652 5.93707 55.9931 6.10305 55.3349 6.43502C54.7021 6.74145 54.1578 7.16279 53.7022 7.69904C53.2718 8.2353 52.9174 8.83539 52.639 9.49932C52.3859 10.1632 52.1833 10.8527 52.0315 11.5677C51.8796 12.2572 51.7783 12.9339 51.7277 13.5978C51.6771 14.2362 51.6518 14.8108 51.6518 15.3215C51.6518 17.6452 52.0315 19.3434 52.7909 20.4159C53.5756 21.4884 54.6768 22.0246 56.0943 22.0246C57.2588 22.0246 58.2081 21.6544 58.9422 20.9138C59.6763 20.1477 60.2458 19.2412 60.6508 18.1943C61.0812 17.1218 61.3723 16.0237 61.5242 14.9001C61.6761 13.751 61.752 12.7807 61.752 11.9891C61.752 10.1249 61.4356 8.65664 60.8027 7.58413C60.1699 6.48609 59.1194 5.93707 57.6511 5.93707Z" fill="white"/>
<path d="M75.8283 27.617C74.3854 27.617 73.3602 27.3361 72.7526 26.7743C72.1704 26.187 71.8793 25.3315 71.8793 24.2079C71.8793 23.9015 71.892 23.3908 71.9173 22.6758C71.9679 21.9353 72.0312 21.067 72.1071 20.0711C72.1831 19.0752 72.259 17.99 72.335 16.8153C72.4362 15.6151 72.5375 14.4022 72.6387 13.1765C72.8412 10.5974 72.9805 8.50342 73.0564 6.89467C73.1577 5.28591 73.2336 4.02189 73.2842 3.1026C73.3602 1.95349 73.4361 1.22572 73.5121 0.919289C73.588 0.587323 73.7525 0.42134 74.0057 0.42134C74.7904 0.42134 75.5878 0.408572 76.3978 0.383036C77.2332 0.331964 78.0306 0.280892 78.79 0.229821C79.5494 0.17875 80.2582 0.140447 80.9164 0.11491C81.5998 0.0638386 82.2074 0.0383035 82.739 0.0383035C84.3591 0.0383035 85.7513 0.242589 86.9158 0.651161C88.0802 1.05973 89.0168 1.63429 89.7256 2.37483C90.4597 3.11537 90.9913 4.00912 91.3204 5.05609C91.6748 6.10305 91.852 7.2777 91.852 8.58003C91.852 10.5718 91.4596 12.3466 90.6749 13.9042C89.8901 15.4619 88.6371 16.6493 86.9158 17.4665L90.1053 22.0629C90.6875 22.9311 91.1305 23.6078 91.4343 24.093C91.7381 24.5527 91.8899 24.8974 91.8899 25.1272C91.8899 25.306 91.776 25.5613 91.5482 25.8933C91.3457 26.1997 91.0293 26.5189 90.5989 26.8509C90.1939 27.1573 89.6876 27.4254 89.0801 27.6553C88.4979 27.8851 87.8397 28 87.1056 28C86.2956 28 85.5868 27.7319 84.9792 27.1956C84.397 26.6594 83.8654 25.9571 83.3845 25.0889C82.9288 24.1952 82.5238 23.1737 82.1694 22.0246C81.8403 20.8755 81.5239 19.6753 81.2201 18.4241C80.3088 18.373 79.5621 18.2836 78.9799 18.156C78.9039 19.2795 78.828 20.352 78.752 21.3735C78.6761 22.3949 78.6128 23.3142 78.5622 24.1313C78.5115 24.9229 78.4609 25.5869 78.4103 26.1231C78.3597 26.6338 78.3344 26.9403 78.3344 27.0424C78.309 27.2467 78.2584 27.3999 78.1825 27.5021C78.1065 27.5787 77.9547 27.617 77.7268 27.617H75.8283ZM81.9796 5.78386C81.6758 5.78386 81.334 5.80939 80.9543 5.86047C80.5746 5.886 80.1696 5.92431 79.7393 5.97538C79.6886 6.86913 79.6254 7.94163 79.5494 9.19289C79.4988 10.4186 79.4228 11.7337 79.3216 13.1382C80.2076 13.3425 80.9797 13.4446 81.6378 13.4446C82.4225 13.4446 83.0554 13.2914 83.5364 12.985C84.0426 12.6785 84.435 12.3083 84.7134 11.8741C84.9919 11.4145 85.1691 10.9293 85.245 10.4186C85.3463 9.90789 85.3969 9.44825 85.3969 9.03967C85.3969 7.9927 85.1438 7.18833 84.6375 6.62654C84.1312 6.06475 83.2452 5.78386 81.9796 5.78386Z" fill="white"/>
<path d="M115.962 25.1272C115.962 25.3315 115.835 25.5996 115.582 25.9316C115.354 26.238 115.025 26.5445 114.595 26.8509C114.19 27.1573 113.709 27.4254 113.152 27.6553C112.621 27.8851 112.051 28 111.444 28C110.507 28 109.684 27.7063 108.975 27.119C108.267 26.5062 107.621 25.6762 107.039 24.6293C106.482 23.5823 105.963 22.3438 105.482 20.9138C105.001 19.4583 104.507 17.8878 104.001 16.2025L102.558 17.1601L101.837 27.0424C101.812 27.2467 101.761 27.3999 101.685 27.5021C101.609 27.5787 101.457 27.617 101.229 27.617H99.1409C97.6981 27.617 96.6728 27.3361 96.0653 26.7743C95.4831 26.187 95.192 25.3315 95.192 24.2079C95.192 23.8504 95.2046 23.3142 95.2299 22.5992C95.2806 21.8586 95.3439 21.0032 95.4198 20.0328C95.4958 19.0369 95.5717 17.9517 95.6476 16.777C95.7489 15.6024 95.8501 14.4022 95.9514 13.1765C96.1286 10.725 96.2678 8.78431 96.3691 7.35431C96.4956 5.9243 96.5842 4.80073 96.6349 3.98358C96.6855 3.1409 96.7235 2.52804 96.7488 2.14501C96.7741 1.73643 96.7868 1.3534 96.7868 0.995895C96.7868 0.612858 96.9893 0.42134 97.3943 0.42134H99.4827C100.293 0.42134 100.938 0.510715 101.419 0.689467C101.925 0.842681 102.318 1.0725 102.596 1.37893C102.875 1.68536 103.065 2.0684 103.166 2.52804C103.267 2.96215 103.318 3.47287 103.318 4.06019C103.318 4.64752 103.28 5.60511 103.204 6.93297C103.153 8.23529 103.065 9.7036 102.938 11.3379C103.799 10.2654 104.824 8.93753 106.014 7.35431C107.229 5.77109 108.697 3.8176 110.418 1.49384C110.494 1.3917 110.595 1.26402 110.722 1.11081C110.874 0.932055 111.026 0.766073 111.178 0.612859C111.355 0.459644 111.532 0.331965 111.709 0.229821C111.912 0.102142 112.102 0.0383035 112.279 0.0383035C112.608 0.0383035 112.988 0.217054 113.418 0.574555C113.848 0.906521 114.253 1.32786 114.633 1.83858C115.013 2.32376 115.329 2.83447 115.582 3.37073C115.861 3.88144 116 4.31555 116 4.67305C116 5.41359 115.342 6.5244 114.026 8.00547C112.709 9.46101 110.823 11.1464 108.368 13.0616C108.798 13.8021 109.292 14.6065 109.849 15.4747C110.406 16.3174 110.963 17.1856 111.519 18.0793C112.076 18.9476 112.621 19.803 113.152 20.6457C113.684 21.4628 114.152 22.2034 114.557 22.8673C114.987 23.5057 115.329 24.0292 115.582 24.4378C115.835 24.8463 115.962 25.0762 115.962 25.1272Z" fill="white"/>
</g>
<defs>
<filter id="filter0_d_69_14" x="0" y="0" width="120" height="36" filterUnits="userSpaceOnUse" color-interpolation-filters="sRGB">
<feFlood flood-opacity="0" result="BackgroundImageFix"/>
<feColorMatrix in="SourceAlpha" type="matrix" values="0 0 0 0 0 0 0 0 0 0 0 0 0 0 0 0 0 0 127 0" result="hardAlpha"/>
<feOffset dy="4"/>
<feGaussianBlur stdDeviation="2"/>
<feComposite in2="hardAlpha" operator="out"/>
<feColorMatrix type="matrix" values="0 0 0 0 0 0 0 0 0 0 0 0 0 0 0 0 0 0 0.25 0"/>
<feBlend mode="normal" in2="BackgroundImageFix" result="effect1_dropShadow_69_14"/>
<feBlend mode="normal" in="SourceGraphic" in2="effect1_dropShadow_69_14" result="shape"/>
</filter>
</defs>
</svg>
