<svg width="86" height="14" viewBox="0 0 86 14" fill="none" xmlns="http://www.w3.org/2000/svg">
<path d="M2.67001 6.19004C2.82001 6.20004 2.95501 6.20504 3.07501 6.20504C3.20501 6.20504 3.32001 6.20504 3.42001 6.20504C3.53001 6.20504 3.63501 6.20004 3.73501 6.19004H4.50001C4.54001 6.19004 4.58501 6.19504 4.63501 6.20504C4.68501 6.20504 4.73501 6.20004 4.78501 6.19004H5.14501C5.25501 6.19004 5.36001 6.20004 5.46001 6.22004C5.57001 6.24004 5.67001 6.27504 5.76001 6.32504C5.90001 6.41504 5.99002 6.54504 6.03001 6.71504C6.07002 6.88504 6.08001 7.05004 6.06001 7.21004C6.06001 7.28004 6.05501 7.35504 6.04501 7.43504C6.04501 7.51504 6.02002 7.58504 5.97002 7.64504C5.86001 7.79504 5.74502 7.89004 5.62502 7.93004C5.51502 7.96004 5.39501 7.97504 5.26501 7.97504H4.05001C3.97001 7.97504 3.86502 7.98004 3.73501 7.99004C3.60501 7.99004 3.47001 7.99004 3.33001 7.99004C3.20001 7.99004 3.07501 7.99004 2.95501 7.99004C2.83501 7.98004 2.74501 7.97504 2.68501 7.97504C2.68501 8.16504 2.68501 8.36504 2.68501 8.57504C2.68501 8.77504 2.68501 8.96004 2.68501 9.13004C2.68501 9.29004 2.68001 9.42504 2.67001 9.53504C2.67001 9.64504 2.67001 9.70004 2.67001 9.70004V10.075C2.67001 10.215 2.68001 10.335 2.70001 10.435C2.72001 10.535 2.74001 10.59 2.76001 10.6C2.82001 10.64 2.90001 10.67 3.00001 10.69C3.10001 10.71 3.24001 10.72 3.42001 10.72C3.49001 10.72 3.61001 10.72 3.78001 10.72C3.95001 10.72 4.12001 10.72 4.29001 10.72C4.46001 10.72 4.61001 10.72 4.74001 10.72C4.88001 10.71 4.96001 10.705 4.98001 10.705H5.20501C5.35501 10.705 5.50501 10.71 5.65501 10.72C5.80501 10.73 5.95501 10.76 6.10501 10.81C6.14501 10.82 6.19501 10.845 6.25501 10.885C6.37501 10.975 6.46002 11.095 6.51002 11.245C6.57002 11.385 6.59501 11.53 6.58501 11.68C6.57501 11.83 6.53501 11.975 6.46501 12.115C6.39501 12.245 6.29501 12.345 6.16501 12.415C5.96501 12.535 5.75002 12.615 5.52002 12.655C5.29002 12.695 5.07501 12.715 4.87501 12.715H4.44001C4.31001 12.715 4.19501 12.715 4.09501 12.715C4.00501 12.715 3.91001 12.715 3.81001 12.715C3.72001 12.715 3.62501 12.715 3.52501 12.715C3.43501 12.715 3.32501 12.715 3.19501 12.715H2.95501C2.80501 12.715 2.64001 12.71 2.46001 12.7C2.28001 12.69 2.10501 12.665 1.93501 12.625C1.76501 12.585 1.60501 12.53 1.45501 12.46C1.31501 12.38 1.19501 12.28 1.09501 12.16C1.00501 12.05 0.935015 11.9 0.885015 11.71C0.835015 11.52 0.800015 11.335 0.780015 11.155C0.770015 10.965 0.765015 10.8 0.765015 10.66C0.765015 10.52 0.765015 10.445 0.765015 10.435V3.28004C0.765015 3.27004 0.765015 3.23004 0.765015 3.16004C0.765015 3.08004 0.770015 2.99504 0.780015 2.90504C0.790015 2.80504 0.800015 2.71004 0.810015 2.62004C0.830015 2.52004 0.855015 2.44504 0.885015 2.39504C0.965015 2.25504 1.04501 2.15504 1.12501 2.09504C1.21501 2.02504 1.33001 1.98004 1.47001 1.96004C1.51001 1.95004 1.55501 1.94504 1.60501 1.94504C1.66501 1.94504 1.72001 1.94004 1.77001 1.93004C1.83001 1.93004 1.89501 1.92504 1.96501 1.91504H4.95001C5.00001 1.91504 5.05001 1.92004 5.10001 1.93004C5.15001 1.93004 5.19502 1.92504 5.23501 1.91504H5.26501C5.35501 1.91504 5.44002 1.92004 5.52002 1.93004C5.61001 1.94004 5.70001 1.96004 5.79001 1.99004C5.87001 2.01004 5.95002 2.03504 6.03001 2.06504C6.12002 2.08504 6.19501 2.13504 6.25501 2.21504C6.37501 2.35504 6.44501 2.51504 6.46501 2.69504C6.48501 2.77504 6.49502 2.85004 6.49502 2.92004C6.50502 2.98004 6.50001 3.05004 6.48001 3.13004C6.46001 3.33004 6.38501 3.51004 6.25501 3.67004C6.12501 3.82004 5.95501 3.89504 5.74501 3.89504H2.67001V6.19004ZM11.7 11.71C11.71 11.98 11.695 12.255 11.655 12.535C11.615 12.815 11.485 13.03 11.265 13.18C11.095 13.28 10.945 13.33 10.815 13.33C10.645 13.33 10.505 13.27 10.395 13.15C10.295 13.03 10.215 12.885 10.155 12.715C10.105 12.545 10.07 12.37 10.05 12.19C10.04 12 10.035 11.835 10.035 11.695V7.97504H9.06001V11.785C9.08001 12.015 9.07002 12.255 9.03002 12.505C9.00002 12.745 8.93502 12.935 8.83502 13.075C8.71502 13.245 8.54001 13.33 8.31001 13.33C8.20001 13.33 8.09502 13.305 7.99502 13.255C7.90502 13.205 7.82002 13.14 7.74002 13.06C7.57001 12.89 7.47001 12.685 7.44001 12.445C7.41001 12.205 7.39502 11.97 7.39502 11.74V2.96504C7.39502 2.82504 7.40002 2.67504 7.41002 2.51504C7.42002 2.34504 7.45002 2.18504 7.50001 2.03504C7.55001 1.88504 7.62001 1.75504 7.71001 1.64504C7.81002 1.52504 7.94501 1.44504 8.11501 1.40504C8.34501 1.35504 8.53001 1.41004 8.67001 1.57004C8.78002 1.68004 8.86002 1.83504 8.91002 2.03504C8.97001 2.23504 9.01002 2.45504 9.03002 2.69504C9.05002 2.92504 9.06001 3.17004 9.06001 3.43004C9.06001 3.68004 9.06001 3.91504 9.06001 4.13504V6.16004H10.035V3.10004C10.035 2.96004 10.035 2.80004 10.035 2.62004C10.035 2.43004 10.05 2.25004 10.08 2.08004C10.12 1.90004 10.19 1.75004 10.29 1.63004C10.4 1.50004 10.56 1.42504 10.77 1.40504C10.99 1.38504 11.165 1.45004 11.295 1.60004C11.415 1.72004 11.505 1.88004 11.565 2.08004C11.625 2.28004 11.665 2.49504 11.685 2.72504C11.705 2.95504 11.715 3.18504 11.715 3.41504C11.715 3.63504 11.71 3.82504 11.7 3.98504V11.71Z" fill="#EA7171"/>
<path d="M16.9362 1.42004C17.0662 1.42004 17.1912 1.42504 17.3112 1.43504C17.4312 1.44504 17.5512 1.46004 17.6712 1.48004C18.0512 1.54004 18.3862 1.71504 18.6762 2.00504C18.9162 2.26504 19.1112 2.56504 19.2612 2.90504C19.4112 3.23504 19.5262 3.58504 19.6062 3.95504C19.6962 4.32504 19.7562 4.70504 19.7862 5.09504C19.8162 5.47504 19.8412 5.84504 19.8612 6.20504C19.8812 6.66504 19.8862 7.12504 19.8762 7.58504C19.8762 8.04504 19.8512 8.50004 19.8012 8.95004C19.7512 9.42004 19.6762 9.89504 19.5762 10.375C19.4862 10.845 19.3162 11.27 19.0662 11.65C18.8562 11.97 18.6012 12.235 18.3012 12.445C18.0112 12.645 17.6962 12.78 17.3562 12.85C17.0462 12.91 16.7312 12.92 16.4112 12.88C16.0912 12.84 15.7862 12.735 15.4962 12.565C15.2262 12.405 15.0062 12.205 14.8362 11.965C14.6762 11.725 14.5262 11.445 14.3862 11.125C14.1862 10.645 14.0712 10.15 14.0412 9.64004C14.0012 9.22004 13.9712 8.80004 13.9512 8.38004C13.9412 7.96004 13.9362 7.54004 13.9362 7.12004C13.9362 6.56004 13.9662 6.00004 14.0262 5.44004C14.0462 5.21004 14.0662 4.98504 14.0862 4.76504C14.1062 4.53504 14.1362 4.31004 14.1762 4.09004C14.2162 3.91004 14.2512 3.74004 14.2812 3.58004C14.3112 3.42004 14.3662 3.25504 14.4462 3.08504C14.5262 2.91504 14.6112 2.75504 14.7012 2.60504C14.8012 2.45504 14.9162 2.32004 15.0462 2.20004C15.4662 1.78004 15.9712 1.53004 16.5612 1.45004C16.6212 1.44004 16.6812 1.43504 16.7412 1.43504C16.8112 1.43504 16.8762 1.43004 16.9362 1.42004ZM24.4362 6.02504C24.4862 6.02504 24.5312 6.03004 24.5712 6.04004C24.6212 6.05004 24.6712 6.05504 24.7212 6.05504C24.7712 6.06504 24.8262 6.07504 24.8862 6.08504C24.9462 6.08504 25.0062 6.09004 25.0662 6.10004C25.1762 6.12004 25.2862 6.16004 25.3962 6.22004C25.5062 6.27004 25.5862 6.35004 25.6362 6.46004C25.7062 6.57004 25.7412 6.70004 25.7412 6.85004C25.7412 6.93004 25.7362 7.00504 25.7262 7.07504C25.7262 7.13504 25.7162 7.20504 25.6962 7.28504C25.6762 7.36504 25.6512 7.45004 25.6212 7.54004C25.6012 7.63004 25.5562 7.70004 25.4862 7.75004C25.3462 7.85004 25.2112 7.91504 25.0812 7.94504C24.9212 7.96504 24.7262 7.97004 24.4962 7.96004C24.2662 7.95004 24.0712 7.95004 23.9112 7.96004C23.9012 7.96004 23.8912 7.96504 23.8812 7.97504H23.8662L23.8512 7.99004V8.03504C23.8512 8.15504 23.8512 8.30004 23.8512 8.47004C23.8512 8.64004 23.8512 8.81504 23.8512 8.99504C23.8512 9.16504 23.8512 9.33504 23.8512 9.50504C23.8512 9.66504 23.8512 9.81004 23.8512 9.94004C23.8712 10.46 23.8712 10.97 23.8512 11.47V11.68C23.8512 11.81 23.8462 11.955 23.8362 12.115C23.8362 12.265 23.8262 12.415 23.8062 12.565C23.7862 12.715 23.7512 12.86 23.7012 13C23.6512 13.13 23.5812 13.24 23.4912 13.33C23.3712 13.47 23.2112 13.54 23.0112 13.54C23.0112 13.54 23.0012 13.535 22.9812 13.525C22.7412 13.515 22.5462 13.445 22.3962 13.315C22.2562 13.185 22.1462 13.025 22.0662 12.835C21.9962 12.645 21.9512 12.45 21.9312 12.25C21.9112 12.04 21.9012 11.855 21.9012 11.695V2.78504C21.9012 2.77504 21.9012 2.73004 21.9012 2.65004C21.9012 2.56004 21.9112 2.46004 21.9312 2.35004C21.9512 2.23004 21.9812 2.11004 22.0212 1.99004C22.0712 1.86004 22.1362 1.75504 22.2162 1.67504C22.2862 1.60504 22.3862 1.55504 22.5162 1.52504C22.6562 1.48504 22.7812 1.46504 22.8912 1.46504C23.1112 1.46504 23.2962 1.54004 23.4462 1.69004C23.5862 1.83004 23.6662 1.98004 23.6862 2.14004C23.7162 2.29004 23.7412 2.45004 23.7612 2.62004C23.7712 2.66004 23.7762 2.72004 23.7762 2.80004C23.7962 2.97004 23.8062 3.14504 23.8062 3.32504C23.8162 3.50504 23.8262 3.68504 23.8362 3.86504C23.8362 3.97504 23.8362 4.08504 23.8362 4.19504C23.8462 4.29504 23.8512 4.40004 23.8512 4.51004C23.8412 4.57004 23.8362 4.63004 23.8362 4.69004C23.8462 4.74004 23.8512 4.79004 23.8512 4.84004V5.66504C23.8512 5.71504 23.8512 5.77004 23.8512 5.83004C23.8512 5.89004 23.8612 5.94504 23.8812 5.99504C23.8812 6.00504 23.9312 6.01004 24.0312 6.01004C24.1312 6.01004 24.1862 6.01004 24.1962 6.01004C24.2862 6.03004 24.3562 6.03504 24.4062 6.02504H24.4362ZM16.8912 10.855C17.0812 10.855 17.2662 10.795 17.4462 10.675C17.6162 10.555 17.7362 10.395 17.8062 10.195C17.8762 9.99504 17.9362 9.77504 17.9862 9.53504C18.0662 9.07504 18.1112 8.58504 18.1212 8.06504C18.1312 7.54504 18.1262 7.04504 18.1062 6.56504C18.1062 6.37504 18.1012 6.17504 18.0912 5.96504C18.0812 5.74504 18.0612 5.53004 18.0312 5.32004C18.0112 5.11004 17.9762 4.91004 17.9262 4.72004C17.8762 4.52004 17.8062 4.34504 17.7162 4.19504C17.6162 4.02504 17.4962 3.89504 17.3562 3.80504C17.2162 3.71504 17.0662 3.68004 16.9062 3.70004C16.7362 3.72004 16.5762 3.78004 16.4262 3.88004C16.2862 3.98004 16.1712 4.13004 16.0812 4.33004L15.9462 4.64504C15.8862 4.83504 15.8412 5.03504 15.8112 5.24504C15.7812 5.44504 15.7562 5.64504 15.7362 5.84504C15.7162 6.04504 15.7012 6.25004 15.6912 6.46004C15.6812 6.67004 15.6762 6.87504 15.6762 7.07504C15.6862 7.27504 15.6812 7.47004 15.6612 7.66004C15.6512 7.85004 15.6562 8.04504 15.6762 8.24504C15.6962 8.50504 15.7212 8.78504 15.7512 9.08504C15.7912 9.38504 15.8512 9.67004 15.9312 9.94004C16.0212 10.2 16.1412 10.42 16.2912 10.6C16.4412 10.77 16.6412 10.855 16.8912 10.855Z" fill="#EA7171"/>
<path d="M41.3988 11.65C41.3988 11.65 41.4288 11.66 41.4888 11.68C41.5588 11.7 41.6338 11.735 41.7138 11.785C41.7938 11.825 41.8688 11.885 41.9388 11.965C42.0088 12.035 42.0538 12.12 42.0738 12.22C42.1238 12.6 42.0588 12.895 41.8788 13.105C41.7588 13.245 41.6288 13.33 41.4888 13.36C41.3488 13.39 41.2738 13.405 41.2638 13.405H33.6138C33.2038 13.405 32.8838 13.34 32.6538 13.21C32.4238 13.09 32.3088 12.915 32.3088 12.685V10.6C32.2988 10.49 32.2938 10.345 32.2938 10.165C32.2938 9.97504 32.2988 9.82504 32.3088 9.71504C32.3288 9.50504 32.4288 9.33504 32.6088 9.20504C32.7888 9.07504 32.9938 9.01004 33.2238 9.01004C33.2738 9.01004 33.3338 9.01504 33.4038 9.02504C33.4838 9.02504 33.5488 9.03504 33.5988 9.05504C33.7288 9.09504 33.8338 9.16504 33.9138 9.26504C33.9938 9.35504 34.0538 9.46004 34.0938 9.58004C34.1338 9.70004 34.1588 9.83004 34.1688 9.97004C34.1788 10.1 34.1888 10.22 34.1988 10.33C34.1988 10.37 34.1988 10.455 34.1988 10.585C34.1988 10.715 34.1988 10.855 34.1988 11.005C34.1988 11.145 34.1988 11.275 34.1988 11.395C34.1988 11.515 34.1988 11.59 34.1988 11.62C34.2288 11.63 34.3088 11.645 34.4388 11.665C34.5788 11.675 34.8338 11.68 35.2038 11.68C35.5238 11.68 35.8088 11.675 36.0588 11.665C36.3088 11.655 36.4388 11.65 36.4488 11.65H41.3988ZM31.5738 8.18504C31.4338 8.12504 31.3338 8.01004 31.2738 7.84004C31.1938 7.64004 31.1788 7.44004 31.2288 7.24004C31.2888 7.04004 31.3788 6.85004 31.4988 6.67004C31.6188 6.49004 31.7538 6.32004 31.9038 6.16004C32.0638 6.00004 32.1988 5.85004 32.3088 5.71004C32.4788 5.50004 32.6438 5.29004 32.8038 5.08004C32.9638 4.87004 33.1288 4.65504 33.2988 4.43504C33.4188 4.26504 33.5438 4.06504 33.6738 3.83504C33.8038 3.60504 33.8788 3.38004 33.8988 3.16004C33.8988 3.10004 33.9038 3.02504 33.9138 2.93504C33.9238 2.83504 33.9288 2.73504 33.9288 2.63504C33.9388 2.52504 33.9488 2.42504 33.9588 2.33504C33.9688 2.24504 33.9838 2.17004 34.0038 2.11004C34.0638 1.91004 34.1588 1.77504 34.2888 1.70504C34.4288 1.62504 34.6388 1.58504 34.9188 1.58504C35.0788 1.58504 35.2588 1.61504 35.4588 1.67504C35.6588 1.72504 35.7938 1.83004 35.8638 1.99004C35.9338 2.17004 35.9538 2.38004 35.9238 2.62004C35.9038 2.85004 35.9238 3.06004 35.9838 3.25004C36.0338 3.40004 36.1088 3.55504 36.2088 3.71504C36.3088 3.87504 36.4138 4.03504 36.5238 4.19504C36.7138 4.46504 36.9038 4.76004 37.0938 5.08004C37.2838 5.39004 37.4588 5.65504 37.6188 5.87504C37.7788 6.08504 37.9338 6.30504 38.0838 6.53504C38.2338 6.75504 38.3338 6.99504 38.3838 7.25504C38.4338 7.47504 38.4088 7.66004 38.3088 7.81004C38.2188 7.95004 38.0938 8.05504 37.9338 8.12504C37.7738 8.18504 37.5988 8.20004 37.4088 8.17004C37.2188 8.13004 37.0538 8.04004 36.9138 7.90004C36.5438 7.52004 36.2088 7.11504 35.9088 6.68504C35.6088 6.24504 35.2988 5.81504 34.9788 5.39504C34.9788 5.39504 34.9338 5.44504 34.8438 5.54504C34.7538 5.64504 34.6438 5.77504 34.5138 5.93504C34.3838 6.09504 34.2388 6.27004 34.0788 6.46004C33.9188 6.65004 33.7688 6.83004 33.6288 7.00004C33.4888 7.17004 33.3638 7.32004 33.2538 7.45004C33.1538 7.57004 33.0938 7.64504 33.0738 7.67504C32.9638 7.80504 32.8388 7.92004 32.6988 8.02004C32.5588 8.12004 32.4038 8.19004 32.2338 8.23004C32.1238 8.25004 32.0088 8.26004 31.8888 8.26004C31.7788 8.26004 31.6738 8.23504 31.5738 8.18504ZM41.8188 7.91504C41.8188 7.91504 41.8138 7.95004 41.8038 8.02004C41.7938 8.09004 41.7738 8.17004 41.7438 8.26004C41.7138 8.35004 41.6688 8.44504 41.6088 8.54504C41.5488 8.63504 41.4688 8.71004 41.3688 8.77004C41.2288 8.85004 41.0888 8.89004 40.9488 8.89004C40.7788 8.89004 40.6138 8.83504 40.4538 8.72504C40.3438 8.64504 40.2588 8.54004 40.1988 8.41004C40.1188 8.26004 40.0638 8.09504 40.0338 7.91504C40.0138 7.73504 39.9988 7.55004 39.9888 7.36004C39.9888 7.17004 39.9938 6.98504 40.0038 6.80504C40.0138 6.61504 40.0188 6.43504 40.0188 6.26504C40.0188 6.05504 40.0188 5.81004 40.0188 5.53004C40.0288 5.25004 40.0338 4.96504 40.0338 4.67504C40.0338 4.38504 40.0338 4.10504 40.0338 3.83504C40.0338 3.55504 40.0338 3.31004 40.0338 3.10004V2.90504C40.0238 2.79504 40.0188 2.68004 40.0188 2.56004C40.0288 2.43004 40.0488 2.31004 40.0788 2.20004C40.1188 2.05004 40.2088 1.89004 40.3488 1.72004C40.4288 1.62004 40.5388 1.55004 40.6788 1.51004C40.8288 1.46004 40.9888 1.44504 41.1588 1.46504C41.4588 1.51504 41.6588 1.64504 41.7588 1.85504C41.8188 1.98504 41.8438 2.14504 41.8338 2.33504C41.8338 2.52504 41.8288 2.64004 41.8188 2.68004V7.91504Z" fill="#EA7171"/>
<path d="M49.9079 8.00504C49.8179 8.00504 49.7229 7.99504 49.6229 7.97504C49.5329 7.94504 49.4429 7.90004 49.3529 7.84004C49.2729 7.78004 49.2029 7.70004 49.1429 7.60004C49.0829 7.50004 49.0479 7.37504 49.0379 7.22504C49.0179 7.04504 49.0279 6.85504 49.0679 6.65504C49.1179 6.44504 49.2579 6.28504 49.4879 6.17504C49.5779 6.12504 49.6879 6.09504 49.8179 6.08504C49.9579 6.07504 50.0779 6.07504 50.1779 6.08504H50.8979V2.95004C50.8979 2.82004 50.8979 2.69004 50.8979 2.56004C50.8979 2.42004 50.9129 2.28504 50.9429 2.15504C50.9629 2.10504 50.9779 2.06004 50.9879 2.02004C51.0079 1.98004 51.0279 1.93504 51.0479 1.88504C51.1079 1.78504 51.1679 1.71004 51.2279 1.66004C51.2879 1.60004 51.3729 1.55004 51.4829 1.51004C51.5329 1.49004 51.5829 1.48004 51.6329 1.48004C51.6929 1.47004 51.7479 1.46504 51.7979 1.46504C52.1279 1.46504 52.3779 1.61504 52.5479 1.91504C52.5879 1.97504 52.6129 2.06004 52.6229 2.17004C52.6429 2.28004 52.6579 2.39504 52.6679 2.51504C52.6779 2.62504 52.6829 2.72504 52.6829 2.81504C52.6829 2.89504 52.6829 2.94504 52.6829 2.96504V11.695C52.6829 11.945 52.6729 12.145 52.6529 12.295C52.6429 12.445 52.5979 12.635 52.5179 12.865C52.4679 13.015 52.3829 13.14 52.2629 13.24C52.1429 13.34 51.9729 13.39 51.7529 13.39C51.6929 13.39 51.6179 13.38 51.5279 13.36C51.4379 13.35 51.3679 13.325 51.3179 13.285C51.2179 13.225 51.1379 13.13 51.0779 13C51.0279 12.86 50.9879 12.715 50.9579 12.565C50.9279 12.415 50.9079 12.27 50.8979 12.13C50.8979 11.99 50.8979 11.88 50.8979 11.8V8.05004L49.9079 8.00504ZM55.2779 3.31004C55.2979 4.07004 55.3029 4.83004 55.2929 5.59004C55.2829 6.35004 55.2779 7.08504 55.2779 7.79504V11.545C55.2779 11.805 55.2679 12.055 55.2479 12.295C55.2379 12.535 55.1829 12.76 55.0829 12.97C55.0229 13.1 54.9279 13.21 54.7979 13.3C54.6879 13.37 54.5879 13.41 54.4979 13.42C54.4179 13.44 54.3129 13.435 54.1829 13.405C54.0329 13.375 53.9129 13.31 53.8229 13.21C53.7329 13.12 53.6629 13.015 53.6129 12.895C53.5729 12.775 53.5479 12.645 53.5379 12.505C53.5279 12.365 53.5229 12.23 53.5229 12.1V3.08504C53.5229 2.97504 53.5229 2.85004 53.5229 2.71004C53.5229 2.56004 53.5329 2.42004 53.5529 2.29004C53.5729 2.15004 53.5979 2.02004 53.6279 1.90004C53.6679 1.78004 53.7229 1.68504 53.7929 1.61504C53.9029 1.51504 54.0079 1.45504 54.1079 1.43504C54.2079 1.40504 54.3279 1.39004 54.4679 1.39004C54.6379 1.39004 54.7679 1.44004 54.8579 1.54004C54.9579 1.63004 55.0379 1.75504 55.0979 1.91504C55.1879 2.12504 55.2329 2.35504 55.2329 2.60504C55.2429 2.85504 55.2579 3.09004 55.2779 3.31004ZM48.8729 2.84504C49.2129 2.84504 49.4979 2.87004 49.7279 2.92004C49.9579 2.97004 50.1429 3.13004 50.2829 3.40004C50.3529 3.53004 50.3929 3.67004 50.4029 3.82004C50.4129 3.96004 50.3929 4.08504 50.3429 4.19504C50.2329 4.45504 50.0329 4.61004 49.7429 4.66004C49.5429 4.68004 49.3379 4.69504 49.1279 4.70504C48.9279 4.71504 48.6279 4.71004 48.2279 4.69004C48.2179 5.01004 48.2129 5.24504 48.2129 5.39504C48.2229 5.53504 48.2279 5.63004 48.2279 5.68004V7.40504C48.2279 7.48504 48.2329 7.59004 48.2429 7.72004C48.2529 7.84004 48.2579 7.93004 48.2579 7.99004C48.3279 8.07004 48.3879 8.18504 48.4379 8.33504C48.4979 8.47504 48.5679 8.59004 48.6479 8.68004C48.7279 8.79004 48.8079 8.91004 48.8879 9.04004C48.9779 9.16004 49.0729 9.29004 49.1729 9.43004C49.2229 9.51004 49.2729 9.59504 49.3229 9.68504C49.3829 9.76504 49.4329 9.84004 49.4729 9.91004C49.6129 10.16 49.7629 10.435 49.9229 10.735C50.0929 11.025 50.2079 11.315 50.2679 11.605C50.2879 11.735 50.2879 11.88 50.2679 12.04C50.2479 12.19 50.1879 12.315 50.0879 12.415C49.9779 12.555 49.8229 12.625 49.6229 12.625C49.4429 12.625 49.2679 12.565 49.0979 12.445C48.9279 12.325 48.7879 12.205 48.6779 12.085C48.5279 11.895 48.3879 11.7 48.2579 11.5C48.1279 11.3 47.9929 11.1 47.8529 10.9C47.7729 10.76 47.6729 10.605 47.5529 10.435C47.4429 10.265 47.3279 10.12 47.2079 10C47.1079 10.15 47.0029 10.305 46.8929 10.465C46.7929 10.615 46.6979 10.775 46.6079 10.945C46.4979 11.145 46.3829 11.34 46.2629 11.53C46.1429 11.71 46.0129 11.885 45.8729 12.055C45.5329 12.455 45.2079 12.655 44.8979 12.655C44.8079 12.655 44.7329 12.64 44.6729 12.61C44.4929 12.57 44.3629 12.44 44.2829 12.22C44.2329 12.07 44.2129 11.9 44.2229 11.71C44.2429 11.52 44.2829 11.355 44.3429 11.215C44.4129 11.065 44.4879 10.92 44.5679 10.78C44.6479 10.64 44.7279 10.5 44.8079 10.36C44.8579 10.28 44.9079 10.2 44.9579 10.12C45.0179 10.03 45.0729 9.94504 45.1229 9.86504C45.1929 9.72504 45.2879 9.56004 45.4079 9.37004C45.5279 9.18004 45.6429 8.99504 45.7529 8.81504C45.8729 8.63504 45.9829 8.47004 46.0829 8.32004C46.1829 8.17004 46.2579 8.06504 46.3079 8.00504V4.69004H45.7379C45.4379 4.69004 45.2029 4.69004 45.0329 4.69004C44.8729 4.69004 44.7629 4.68004 44.7029 4.66004C44.5629 4.63004 44.4379 4.56504 44.3279 4.46504C44.2279 4.35504 44.1529 4.21504 44.1029 4.04504C44.0129 3.76504 44.0379 3.51004 44.1779 3.28004C44.2579 3.17004 44.3479 3.08004 44.4479 3.01004C44.5479 2.93004 44.6529 2.88004 44.7629 2.86004C44.8029 2.85004 44.8479 2.84504 44.8979 2.84504C44.9579 2.84504 45.0129 2.84504 45.0629 2.84504H46.3679C46.3679 2.75504 46.3729 2.64504 46.3829 2.51504C46.3929 2.37504 46.4029 2.24004 46.4129 2.11004C46.4329 1.97004 46.4529 1.84004 46.4729 1.72004C46.4929 1.59004 46.5229 1.48504 46.5629 1.40504C46.6129 1.31504 46.6829 1.23504 46.7729 1.16504C46.8629 1.09504 46.9579 1.04504 47.0579 1.01504C47.1679 0.975041 47.2729 0.960041 47.3729 0.970041C47.4829 0.970041 47.5829 0.995041 47.6729 1.04504C47.8729 1.16504 48.0079 1.37004 48.0779 1.66004C48.1579 1.94004 48.1979 2.33504 48.1979 2.84504H48.8729Z" fill="#EA7171"/>
<path d="M71.7756 12.25C71.9356 12.26 72.0756 12.3 72.1956 12.37C72.3156 12.43 72.4006 12.54 72.4506 12.7C72.5606 13.07 72.4306 13.32 72.0606 13.45C71.9406 13.5 71.8156 13.53 71.6856 13.54C71.5656 13.55 71.4556 13.555 71.3556 13.555H64.3806C64.1806 13.555 63.9706 13.555 63.7506 13.555C63.5306 13.555 63.3106 13.55 63.0906 13.54C62.8206 13.53 62.6306 13.445 62.5206 13.285C62.4206 13.125 62.3606 12.93 62.3406 12.7L62.2806 11.71C62.2706 11.6 62.2706 11.47 62.2806 11.32C62.3006 11.16 62.3556 11.025 62.4456 10.915C62.5856 10.775 62.7456 10.685 62.9256 10.645C63.1056 10.605 63.3056 10.585 63.5256 10.585H63.9906C64.0406 10.585 64.0806 10.59 64.1106 10.6C64.1406 10.6 64.1706 10.6 64.2006 10.6H70.7406V10.075H64.0506C64.0006 10.075 63.9456 10.075 63.8856 10.075C63.8356 10.065 63.7806 10.065 63.7206 10.075H63.3606C63.2606 10.075 63.1706 10.075 63.0906 10.075C63.0106 10.075 62.9306 10.065 62.8506 10.045C62.7606 10.025 62.6756 10.005 62.5956 9.98504C62.5256 9.96504 62.4656 9.91504 62.4156 9.83504C62.3556 9.72504 62.3156 9.62004 62.2956 9.52004C62.2756 9.42004 62.2856 9.31004 62.3256 9.19004C62.3556 9.11004 62.4006 9.05004 62.4606 9.01004C62.5206 8.96004 62.5906 8.92004 62.6706 8.89004C62.7506 8.86004 62.8256 8.84004 62.8956 8.83004C62.9756 8.81004 63.0456 8.79504 63.1056 8.78504C63.1856 8.77504 63.2606 8.77004 63.3306 8.77004C63.4106 8.76004 63.4906 8.75504 63.5706 8.75504H63.8256C63.8756 8.76504 63.9206 8.77004 63.9606 8.77004C64.0106 8.77004 64.0606 8.77004 64.1106 8.77004H70.8906C71.4006 8.77004 71.7906 8.85004 72.0606 9.01004C72.3306 9.16004 72.4656 9.41004 72.4656 9.76004V10.81C72.4656 10.95 72.4306 11.085 72.3606 11.215C72.3006 11.345 72.1906 11.46 72.0306 11.56C71.9006 11.64 71.7706 11.685 71.6406 11.695C71.5106 11.695 71.3806 11.695 71.2506 11.695H64.1256V12.25H71.7756ZM66.6006 1.70504C66.6906 1.70504 66.7756 1.70504 66.8556 1.70504C66.9456 1.70504 67.0306 1.71504 67.1106 1.73504C67.2506 1.78504 67.3856 1.84504 67.5156 1.91504C67.6556 1.98504 67.7706 2.08004 67.8606 2.20004C67.9606 2.33004 68.0306 2.49504 68.0706 2.69504C68.1206 2.88504 68.1456 3.05504 68.1456 3.20504C68.1456 3.64504 68.1506 4.08004 68.1606 4.51004C68.1806 4.94004 68.1806 5.37004 68.1606 5.80004C68.1506 5.93004 68.1456 6.07504 68.1456 6.23504C68.1456 6.38504 68.1406 6.54004 68.1306 6.70004C68.1306 6.86004 68.1156 7.01504 68.0856 7.16504C68.0556 7.30504 68.0106 7.43504 67.9506 7.55504C67.8706 7.69504 67.7656 7.80504 67.6356 7.88504C67.5056 7.96504 67.3656 8.01504 67.2156 8.03504C67.0756 8.05504 66.9356 8.04004 66.7956 7.99004C66.6556 7.94004 66.5456 7.84504 66.4656 7.70504C66.3756 7.55504 66.3106 7.39504 66.2706 7.22504C66.2306 7.04504 66.2056 6.86004 66.1956 6.67004C66.1956 6.48004 66.1956 6.29004 66.1956 6.10004C66.2056 5.91004 66.2106 5.73004 66.2106 5.56004C66.2106 5.31004 66.2106 5.05004 66.2106 4.78004C66.2106 4.51004 66.1956 4.25004 66.1656 4.00004C66.1556 3.88004 66.1256 3.79504 66.0756 3.74504C66.0256 3.68504 65.9656 3.64504 65.8956 3.62504C65.8256 3.59504 65.7456 3.58004 65.6556 3.58004C65.5656 3.58004 65.4706 3.58004 65.3706 3.58004C65.2806 3.58004 65.2106 3.58004 65.1606 3.58004C65.1206 3.58004 65.0856 3.58004 65.0556 3.58004C65.0256 3.58004 64.9906 3.58004 64.9506 3.58004C64.9106 3.58004 64.8406 3.58004 64.7406 3.58004H64.0956C63.7756 3.58004 63.4406 3.58004 63.0906 3.58004C62.7406 3.57004 62.3806 3.54004 62.0106 3.49004C61.8806 3.47004 61.7806 3.41504 61.7106 3.32504C61.6406 3.23504 61.5906 3.13004 61.5606 3.01004C61.5406 2.89004 61.5306 2.76504 61.5306 2.63504C61.5406 2.50504 61.5556 2.39504 61.5756 2.30504C61.6156 2.11504 61.7206 1.96004 61.8906 1.84004C62.0006 1.77004 62.1206 1.73504 62.2506 1.73504C62.3806 1.72504 62.5056 1.71504 62.6256 1.70504C62.7656 1.68504 62.9056 1.68004 63.0456 1.69004C63.1856 1.70004 63.3256 1.70504 63.4656 1.70504H66.6006ZM72.4806 7.30004C72.4806 7.30004 72.4756 7.33504 72.4656 7.40504C72.4556 7.47504 72.4356 7.55504 72.4056 7.64504C72.3756 7.73504 72.3306 7.83004 72.2706 7.93004C72.2106 8.02004 72.1306 8.09504 72.0306 8.15504C71.8906 8.23504 71.7506 8.27504 71.6106 8.27504C71.4406 8.27504 71.2756 8.22004 71.1156 8.11004C71.0056 8.03004 70.9206 7.92504 70.8606 7.79504C70.7806 7.64504 70.7256 7.48004 70.6956 7.30004C70.6756 7.12004 70.6606 6.93504 70.6506 6.74504C70.6506 6.55504 70.6556 6.37004 70.6656 6.19004C70.6756 6.00004 70.6806 5.82004 70.6806 5.65004C70.6906 5.22004 70.6956 4.79504 70.6956 4.37504C70.6956 3.94504 70.6956 3.52004 70.6956 3.10004V2.90504C70.6856 2.79504 70.6806 2.68004 70.6806 2.56004C70.6906 2.43004 70.7106 2.31004 70.7406 2.20004C70.7806 2.05004 70.8706 1.89004 71.0106 1.72004C71.0906 1.62004 71.2006 1.55004 71.3406 1.51004C71.4906 1.46004 71.6506 1.44504 71.8206 1.46504C72.1206 1.51504 72.3206 1.64504 72.4206 1.85504C72.4806 1.98504 72.5056 2.14504 72.4956 2.33504C72.4956 2.52504 72.4906 2.64004 72.4806 2.68004V7.30004Z" fill="#EA7171"/>
<path d="M77.7441 1.42004C77.8741 1.42004 77.9991 1.42504 78.1191 1.43504C78.2391 1.44504 78.3591 1.46004 78.4791 1.48004C78.8591 1.54004 79.1941 1.71504 79.4841 2.00504C79.7241 2.26504 79.9191 2.56504 80.0691 2.90504C80.2291 3.23504 80.3541 3.58504 80.4441 3.95504C80.5341 4.32504 80.5991 4.70504 80.6391 5.09504C80.6791 5.47504 80.7091 5.84504 80.7291 6.20504C80.7491 6.66504 80.7541 7.12504 80.7441 7.58504C80.7341 8.04504 80.7041 8.50004 80.6541 8.95004C80.6041 9.42004 80.5291 9.89504 80.4291 10.375C80.3391 10.845 80.1691 11.27 79.9191 11.65C79.7091 11.97 79.4491 12.235 79.1391 12.445C78.8291 12.645 78.5041 12.78 78.1641 12.85C77.8541 12.91 77.5391 12.92 77.2191 12.88C76.8991 12.84 76.5941 12.735 76.3041 12.565C76.0341 12.405 75.8041 12.205 75.6141 11.965C75.4341 11.725 75.2741 11.445 75.1341 11.125C74.9341 10.645 74.8191 10.15 74.7891 9.64004C74.7491 9.22004 74.7191 8.80004 74.6991 8.38004C74.6891 7.96004 74.6841 7.54004 74.6841 7.12004C74.6841 6.56004 74.7141 6.00004 74.7741 5.44004C74.7941 5.21004 74.8141 4.98504 74.8341 4.76504C74.8541 4.53504 74.8841 4.31004 74.9241 4.09004C74.9641 3.91004 74.9991 3.74004 75.0291 3.58004C75.0591 3.42004 75.1141 3.25504 75.1941 3.08504C75.2741 2.91504 75.3591 2.75504 75.4491 2.60504C75.5491 2.45504 75.6641 2.32004 75.7941 2.20004C76.0141 1.98004 76.2591 1.81004 76.5291 1.69004C76.7991 1.57004 77.0791 1.49004 77.3691 1.45004C77.4291 1.44004 77.4891 1.43504 77.5491 1.43504C77.6191 1.43504 77.6841 1.43004 77.7441 1.42004ZM85.0191 12.16C84.9991 12.28 84.9841 12.4 84.9741 12.52C84.9641 12.63 84.9391 12.745 84.8991 12.865C84.8791 12.905 84.8641 12.94 84.8541 12.97C84.8441 13 84.8291 13.035 84.8091 13.075C84.7391 13.215 84.6491 13.325 84.5391 13.405C84.3091 13.545 84.0541 13.58 83.7741 13.51C83.6141 13.48 83.4841 13.42 83.3841 13.33C83.2941 13.25 83.2241 13.145 83.1741 13.015C83.1341 12.895 83.0991 12.775 83.0691 12.655C83.0491 12.535 83.0391 12.43 83.0391 12.34C83.0391 12.25 83.0391 12.2 83.0391 12.19V3.11504C83.0391 2.99504 83.0391 2.86504 83.0391 2.72504C83.0391 2.58504 83.0491 2.44504 83.0691 2.30504C83.0891 2.16504 83.1191 2.03504 83.1591 1.91504C83.1991 1.79504 83.2541 1.70004 83.3241 1.63004C83.4341 1.52004 83.5491 1.45504 83.6691 1.43504C83.7891 1.40504 83.9191 1.39004 84.0591 1.39004C84.2291 1.39004 84.3841 1.44004 84.5241 1.54004C84.6741 1.63004 84.7791 1.76004 84.8391 1.93004C84.9291 2.14004 84.9791 2.36004 84.9891 2.59004C84.9991 2.82004 85.0091 3.05004 85.0191 3.28004V3.35504C85.0391 4.12504 85.0441 4.91504 85.0341 5.72504C85.0241 6.53504 85.0191 7.30004 85.0191 8.02004V11.62C85.0191 11.71 85.0191 11.8 85.0191 11.89C85.0291 11.98 85.0291 12.07 85.0191 12.16ZM77.6991 10.855C77.8891 10.855 78.0741 10.795 78.2541 10.675C78.4241 10.555 78.5441 10.395 78.6141 10.195C78.6841 9.99504 78.7441 9.77504 78.7941 9.53504C78.8741 9.07504 78.9191 8.58504 78.9291 8.06504C78.9391 7.54504 78.9341 7.04504 78.9141 6.56504C78.9141 6.37504 78.9091 6.17504 78.8991 5.96504C78.8891 5.74504 78.8691 5.53004 78.8391 5.32004C78.8191 5.11004 78.7841 4.91004 78.7341 4.72004C78.6841 4.52004 78.6141 4.34504 78.5241 4.19504C78.4241 4.02504 78.3041 3.89504 78.1641 3.80504C78.0241 3.71504 77.8741 3.68004 77.7141 3.70004C77.5441 3.72004 77.3891 3.78004 77.2491 3.88004C77.1091 3.98004 76.9941 4.13004 76.9041 4.33004L76.7691 4.64504C76.7091 4.83504 76.6641 5.03504 76.6341 5.24504C76.6041 5.44504 76.5791 5.64504 76.5591 5.84504C76.5391 6.04504 76.5241 6.25004 76.5141 6.46004C76.5041 6.67004 76.4991 6.87504 76.4991 7.07504C76.5091 7.27504 76.5041 7.47004 76.4841 7.66004C76.4741 7.85004 76.4791 8.04504 76.4991 8.24504C76.5191 8.50504 76.5441 8.78504 76.5741 9.08504C76.6141 9.38504 76.6741 9.67004 76.7541 9.94004C76.8341 10.2 76.9491 10.42 77.0991 10.6C77.2491 10.77 77.4491 10.855 77.6991 10.855Z" fill="#EA7171"/>
</svg>
