<svg width="113" height="17" viewBox="0 0 113 17" fill="none" xmlns="http://www.w3.org/2000/svg">
<path d="M2.54 6.45333C2.74 6.46667 2.92 6.47333 3.08 6.47333C3.25333 6.47333 3.40667 6.47333 3.54 6.47333C3.68667 6.47333 3.82667 6.46667 3.96 6.45333H4.98C5.03333 6.45333 5.09333 6.46 5.16 6.47333C5.22667 6.47333 5.29333 6.46667 5.36 6.45333H5.84C5.98667 6.45333 6.12667 6.46667 6.26 6.49333C6.40667 6.52 6.54 6.56667 6.66 6.63333C6.84667 6.75333 6.96667 6.92667 7.02 7.15333C7.07333 7.38 7.08667 7.6 7.06 7.81333C7.06 7.90667 7.05333 8.00667 7.04 8.11333C7.04 8.22 7.00667 8.31333 6.94 8.39333C6.79333 8.59333 6.64 8.72 6.48 8.77333C6.33333 8.81333 6.17333 8.83333 6 8.83333H4.38C4.27333 8.83333 4.13333 8.84 3.96 8.85333C3.78667 8.85333 3.60667 8.85333 3.42 8.85333C3.24667 8.85333 3.08 8.85333 2.92 8.85333C2.76 8.84 2.64 8.83333 2.56 8.83333C2.56 9.08667 2.56 9.35333 2.56 9.63333C2.56 9.9 2.56 10.1467 2.56 10.3733C2.56 10.5867 2.55333 10.7667 2.54 10.9133C2.54 11.06 2.54 11.1333 2.54 11.1333V11.6333C2.54 11.82 2.55333 11.98 2.58 12.1133C2.60667 12.2467 2.63333 12.32 2.66 12.3333C2.74 12.3867 2.84667 12.4267 2.98 12.4533C3.11333 12.48 3.3 12.4933 3.54 12.4933C3.63333 12.4933 3.79333 12.4933 4.02 12.4933C4.24667 12.4933 4.47333 12.4933 4.7 12.4933C4.92667 12.4933 5.12667 12.4933 5.3 12.4933C5.48667 12.48 5.59333 12.4733 5.62 12.4733H5.92C6.12 12.4733 6.32 12.48 6.52 12.4933C6.72 12.5067 6.92 12.5467 7.12 12.6133C7.17333 12.6267 7.24 12.66 7.32 12.7133C7.48 12.8333 7.59333 12.9933 7.66 13.1933C7.74 13.38 7.77333 13.5733 7.76 13.7733C7.74667 13.9733 7.69333 14.1667 7.6 14.3533C7.50667 14.5267 7.37333 14.66 7.2 14.7533C6.93333 14.9133 6.64667 15.02 6.34 15.0733C6.03333 15.1267 5.74667 15.1533 5.48 15.1533H4.9C4.72667 15.1533 4.57333 15.1533 4.44 15.1533C4.32 15.1533 4.19333 15.1533 4.06 15.1533C3.94 15.1533 3.81333 15.1533 3.68 15.1533C3.56 15.1533 3.41333 15.1533 3.24 15.1533H2.92C2.72 15.1533 2.5 15.1467 2.26 15.1333C2.02 15.12 1.78667 15.0867 1.56 15.0333C1.33333 14.98 1.12 14.9067 0.92 14.8133C0.733333 14.7067 0.573333 14.5733 0.44 14.4133C0.32 14.2667 0.226667 14.0667 0.16 13.8133C0.0933333 13.56 0.0466666 13.3133 0.02 13.0733C0.00666666 12.82 0 12.6 0 12.4133C0 12.2267 0 12.1267 0 12.1133V2.57333C0 2.56 0 2.50667 0 2.41333C0 2.30667 0.00666666 2.19333 0.02 2.07333C0.0333333 1.94 0.0466667 1.81333 0.06 1.69333C0.0866666 1.56 0.12 1.46 0.16 1.39333C0.266667 1.20667 0.373333 1.07333 0.48 0.993333C0.6 0.9 0.753333 0.84 0.94 0.813333C0.993333 0.8 1.05333 0.793333 1.12 0.793333C1.2 0.793333 1.27333 0.786667 1.34 0.773333C1.42 0.773333 1.50667 0.766667 1.6 0.753334H5.58C5.64667 0.753334 5.71333 0.76 5.78 0.773333C5.84667 0.773333 5.90667 0.766667 5.96 0.753334H6C6.12 0.753334 6.23333 0.76 6.34 0.773333C6.46 0.786667 6.58 0.813333 6.7 0.853334C6.80667 0.88 6.91333 0.913333 7.02 0.953333C7.14 0.98 7.24 1.04667 7.32 1.15333C7.48 1.34 7.57333 1.55333 7.6 1.79333C7.62667 1.9 7.64 2 7.64 2.09333C7.65333 2.17333 7.64667 2.26667 7.62 2.37333C7.59333 2.64 7.49333 2.88 7.32 3.09333C7.14667 3.29333 6.92 3.39333 6.64 3.39333H2.54V6.45333ZM14.58 13.8133C14.5933 14.1733 14.5733 14.54 14.52 14.9133C14.4667 15.2867 14.2933 15.5733 14 15.7733C13.7733 15.9067 13.5733 15.9733 13.4 15.9733C13.1733 15.9733 12.9867 15.8933 12.84 15.7333C12.7067 15.5733 12.6 15.38 12.52 15.1533C12.4533 14.9267 12.4067 14.6933 12.38 14.4533C12.3667 14.2 12.36 13.98 12.36 13.7933V8.83333H11.06V13.9133C11.0867 14.22 11.0733 14.54 11.02 14.8733C10.98 15.1933 10.8933 15.4467 10.76 15.6333C10.6 15.86 10.3667 15.9733 10.06 15.9733C9.91333 15.9733 9.77333 15.94 9.64 15.8733C9.52 15.8067 9.40667 15.72 9.3 15.6133C9.07333 15.3867 8.94 15.1133 8.9 14.7933C8.86 14.4733 8.84 14.16 8.84 13.8533V2.15333C8.84 1.96667 8.84667 1.76667 8.86 1.55333C8.87333 1.32667 8.91333 1.11333 8.98 0.913334C9.04667 0.713333 9.14 0.54 9.26 0.393334C9.39333 0.233333 9.57333 0.126666 9.8 0.0733329C10.1067 0.00666632 10.3533 0.0799999 10.54 0.293334C10.6867 0.44 10.7933 0.646667 10.86 0.913334C10.94 1.18 10.9933 1.47333 11.02 1.79333C11.0467 2.1 11.06 2.42667 11.06 2.77333C11.06 3.10667 11.06 3.42 11.06 3.71333V6.41333H12.36V2.33333C12.36 2.14667 12.36 1.93333 12.36 1.69333C12.36 1.44 12.38 1.2 12.42 0.973333C12.4733 0.733333 12.5667 0.533333 12.7 0.373334C12.8467 0.2 13.06 0.1 13.34 0.0733329C13.6333 0.0466666 13.8667 0.133333 14.04 0.333333C14.2 0.493333 14.32 0.706667 14.4 0.973333C14.48 1.24 14.5333 1.52667 14.56 1.83333C14.5867 2.14 14.6 2.44667 14.6 2.75333C14.6 3.04667 14.5933 3.3 14.58 3.51333V13.8133Z" fill="#433232"/>
<path d="M21.5616 0.0933339C21.7349 0.0933339 21.9016 0.1 22.0616 0.113334C22.2216 0.126667 22.3816 0.146667 22.5416 0.173334C23.0482 0.253334 23.4949 0.486667 23.8816 0.873333C24.2016 1.22 24.4616 1.62 24.6616 2.07333C24.8616 2.51333 25.0149 2.98 25.1216 3.47333C25.2416 3.96667 25.3216 4.47333 25.3616 4.99333C25.4016 5.5 25.4349 5.99333 25.4616 6.47333C25.4882 7.08667 25.4949 7.7 25.4816 8.31333C25.4816 8.92667 25.4482 9.53333 25.3816 10.1333C25.3149 10.76 25.2149 11.3933 25.0816 12.0333C24.9616 12.66 24.7349 13.2267 24.4016 13.7333C24.1216 14.16 23.7816 14.5133 23.3816 14.7933C22.9949 15.06 22.5749 15.24 22.1216 15.3333C21.7082 15.4133 21.2882 15.4267 20.8616 15.3733C20.4349 15.32 20.0282 15.18 19.6416 14.9533C19.2816 14.74 18.9882 14.4733 18.7616 14.1533C18.5482 13.8333 18.3482 13.46 18.1616 13.0333C17.8949 12.3933 17.7416 11.7333 17.7016 11.0533C17.6482 10.4933 17.6082 9.93333 17.5816 9.37333C17.5682 8.81333 17.5616 8.25333 17.5616 7.69333C17.5616 6.94667 17.6016 6.2 17.6816 5.45333C17.7082 5.14667 17.7349 4.84667 17.7616 4.55333C17.7882 4.24667 17.8282 3.94667 17.8816 3.65333C17.9349 3.41333 17.9816 3.18667 18.0216 2.97333C18.0616 2.76 18.1349 2.54 18.2416 2.31333C18.3482 2.08667 18.4616 1.87333 18.5816 1.67333C18.7149 1.47333 18.8682 1.29333 19.0416 1.13333C19.6016 0.573334 20.2749 0.24 21.0616 0.133333C21.1416 0.12 21.2216 0.113334 21.3016 0.113334C21.3949 0.113334 21.4816 0.106667 21.5616 0.0933339ZM31.5616 6.23333C31.6282 6.23333 31.6882 6.24 31.7416 6.25333C31.8082 6.26667 31.8749 6.27333 31.9416 6.27333C32.0082 6.28667 32.0816 6.3 32.1616 6.31333C32.2416 6.31333 32.3216 6.32 32.4016 6.33333C32.5482 6.36 32.6949 6.41333 32.8416 6.49333C32.9882 6.56 33.0949 6.66667 33.1616 6.81333C33.2549 6.96 33.3016 7.13333 33.3016 7.33333C33.3016 7.44 33.2949 7.54 33.2816 7.63333C33.2816 7.71333 33.2682 7.80667 33.2416 7.91333C33.2149 8.02 33.1816 8.13333 33.1416 8.25333C33.1149 8.37333 33.0549 8.46667 32.9616 8.53333C32.7749 8.66667 32.5949 8.75333 32.4216 8.79333C32.2082 8.82 31.9482 8.82667 31.6416 8.81333C31.3349 8.8 31.0749 8.8 30.8616 8.81333C30.8482 8.81333 30.8349 8.82 30.8216 8.83333H30.8016L30.7816 8.85333V8.91333C30.7816 9.07333 30.7816 9.26667 30.7816 9.49333C30.7816 9.72 30.7816 9.95333 30.7816 10.1933C30.7816 10.42 30.7816 10.6467 30.7816 10.8733C30.7816 11.0867 30.7816 11.28 30.7816 11.4533C30.8082 12.1467 30.8082 12.8267 30.7816 13.4933V13.7733C30.7816 13.9467 30.7749 14.14 30.7616 14.3533C30.7616 14.5533 30.7482 14.7533 30.7216 14.9533C30.6949 15.1533 30.6482 15.3467 30.5816 15.5333C30.5149 15.7067 30.4216 15.8533 30.3016 15.9733C30.1416 16.16 29.9282 16.2533 29.6616 16.2533C29.6616 16.2533 29.6482 16.2467 29.6216 16.2333C29.3016 16.22 29.0416 16.1267 28.8416 15.9533C28.6549 15.78 28.5082 15.5667 28.4016 15.3133C28.3082 15.06 28.2482 14.8 28.2216 14.5333C28.1949 14.2533 28.1816 14.0067 28.1816 13.7933V1.91333C28.1816 1.9 28.1816 1.84 28.1816 1.73333C28.1816 1.61333 28.1949 1.48 28.2216 1.33333C28.2482 1.17333 28.2882 1.01333 28.3416 0.853334C28.4082 0.68 28.4949 0.54 28.6016 0.433333C28.6949 0.34 28.8282 0.273334 29.0016 0.233333C29.1882 0.18 29.3549 0.153333 29.5016 0.153333C29.7949 0.153333 30.0416 0.253333 30.2416 0.453334C30.4282 0.640001 30.5349 0.84 30.5616 1.05333C30.6016 1.25333 30.6349 1.46667 30.6616 1.69333C30.6749 1.74667 30.6816 1.82667 30.6816 1.93333C30.7082 2.16 30.7216 2.39333 30.7216 2.63333C30.7349 2.87333 30.7482 3.11333 30.7616 3.35333C30.7616 3.5 30.7616 3.64667 30.7616 3.79333C30.7749 3.92667 30.7816 4.06667 30.7816 4.21333C30.7682 4.29333 30.7616 4.37333 30.7616 4.45333C30.7749 4.52 30.7816 4.58667 30.7816 4.65333V5.75333C30.7816 5.82 30.7816 5.89333 30.7816 5.97333C30.7816 6.05333 30.7949 6.12667 30.8216 6.19333C30.8216 6.20667 30.8882 6.21333 31.0216 6.21333C31.1549 6.21333 31.2282 6.21333 31.2416 6.21333C31.3616 6.24 31.4549 6.24667 31.5216 6.23333H31.5616ZM21.5016 12.6733C21.7549 12.6733 22.0016 12.5933 22.2416 12.4333C22.4682 12.2733 22.6282 12.06 22.7216 11.7933C22.8149 11.5267 22.8949 11.2333 22.9616 10.9133C23.0682 10.3 23.1282 9.64667 23.1416 8.95333C23.1549 8.26 23.1482 7.59333 23.1216 6.95333C23.1216 6.7 23.1149 6.43333 23.1016 6.15333C23.0882 5.86 23.0616 5.57333 23.0216 5.29333C22.9949 5.01333 22.9482 4.74667 22.8816 4.49333C22.8149 4.22667 22.7216 3.99333 22.6016 3.79333C22.4682 3.56667 22.3082 3.39333 22.1216 3.27333C21.9349 3.15333 21.7349 3.10667 21.5216 3.13333C21.2949 3.16 21.0816 3.24 20.8816 3.37333C20.6949 3.50667 20.5416 3.70667 20.4216 3.97333L20.2416 4.39333C20.1616 4.64667 20.1016 4.91333 20.0616 5.19333C20.0216 5.46 19.9882 5.72667 19.9616 5.99333C19.9349 6.26 19.9149 6.53333 19.9016 6.81333C19.8882 7.09333 19.8816 7.36667 19.8816 7.63333C19.8949 7.9 19.8882 8.16 19.8616 8.41333C19.8482 8.66667 19.8549 8.92667 19.8816 9.19333C19.9082 9.54 19.9416 9.91333 19.9816 10.3133C20.0349 10.7133 20.1149 11.0933 20.2216 11.4533C20.3416 11.8 20.5016 12.0933 20.7016 12.3333C20.9016 12.56 21.1682 12.6733 21.5016 12.6733Z" fill="#433232"/>
<path d="M41.0784 8.71333C40.8918 8.63333 40.7584 8.48 40.6784 8.25333C40.5718 7.98667 40.5518 7.72 40.6184 7.45333C40.6984 7.18667 40.8184 6.93333 40.9784 6.69333C41.1384 6.45333 41.3184 6.22667 41.5184 6.01333C41.7318 5.8 41.9118 5.6 42.0584 5.41333C42.2851 5.13333 42.5118 4.85333 42.7384 4.57333C42.9651 4.29333 43.1918 4.00667 43.4184 3.71333C43.4984 3.60667 43.5918 3.49333 43.6984 3.37333C43.8051 3.25333 43.9051 3.12667 43.9984 2.99333C44.1051 2.86 44.1918 2.72667 44.2584 2.59333C44.3251 2.46 44.3651 2.32 44.3784 2.17333C44.3918 1.94667 44.4051 1.72667 44.4184 1.51333C44.4318 1.28667 44.4718 1.08667 44.5384 0.913334C44.6051 0.726667 44.7118 0.58 44.8584 0.473334C45.0184 0.366667 45.2451 0.313333 45.5384 0.313333C45.7518 0.313333 45.9584 0.34 46.1584 0.393334C46.3584 0.433334 46.5051 0.56 46.5984 0.773333C46.6918 1.01333 46.7184 1.28 46.6784 1.57333C46.6518 1.85333 46.6784 2.12 46.7584 2.37333C46.8251 2.6 46.9384 2.8 47.0984 2.97333C47.2584 3.13333 47.3918 3.30667 47.4984 3.49333C47.7251 3.90667 47.9918 4.27333 48.2984 4.59333C48.6051 4.91333 48.8918 5.26 49.1584 5.63333C49.3718 5.91333 49.5718 6.20667 49.7584 6.51333C49.9584 6.80667 50.0918 7.12667 50.1584 7.47333C50.2251 7.76667 50.1918 8.02 50.0584 8.23333C49.9384 8.43333 49.7718 8.58 49.5584 8.67333C49.3451 8.76667 49.1118 8.8 48.8584 8.77333C48.6051 8.73333 48.3851 8.62 48.1984 8.43333C47.7051 7.92667 47.2518 7.40667 46.8384 6.87333C46.4384 6.32667 46.0251 5.77333 45.5984 5.21333C45.5984 5.21333 45.5384 5.28 45.4184 5.41333C45.2984 5.53333 45.1451 5.69333 44.9584 5.89333C44.7718 6.08 44.5718 6.29333 44.3584 6.53333C44.1451 6.76 43.9451 6.98 43.7584 7.19333C43.5718 7.40667 43.4051 7.59333 43.2584 7.75333C43.1118 7.9 43.0251 7.99333 42.9984 8.03333C42.8518 8.20667 42.6984 8.36 42.5384 8.49333C42.3784 8.62667 42.1851 8.72 41.9584 8.77333C41.8118 8.8 41.6584 8.81333 41.4984 8.81333C41.3518 8.81333 41.2118 8.78 41.0784 8.71333ZM51.2384 5.37333C50.8518 5.34667 50.5051 5.32667 50.1984 5.31333C49.8918 5.28667 49.6518 5.14 49.4784 4.87333C49.3984 4.74 49.3584 4.56667 49.3584 4.35333C49.3584 4.14 49.3718 3.96 49.3984 3.81333C49.4384 3.66667 49.5118 3.54667 49.6184 3.45333C49.7251 3.34667 49.9118 3.26 50.1784 3.19333C50.2318 3.18 50.3584 3.17333 50.5584 3.17333C50.7718 3.16 50.9984 3.15333 51.2384 3.15333C51.4784 3.14 51.7051 3.13333 51.9184 3.13333C52.1318 3.12 52.2651 3.11333 52.3184 3.11333V1.81333C52.3051 1.66667 52.2984 1.52 52.2984 1.37333C52.3118 1.22667 52.3384 1.08 52.3784 0.933334C52.4051 0.826667 52.4318 0.726667 52.4584 0.633333C52.4851 0.54 52.5451 0.44 52.6384 0.333333C52.7451 0.2 52.8918 0.106667 53.0784 0.0533332C53.2784 -2.64496e-07 53.4918 -0.0133334 53.7184 0.0133337C53.9184 0.04 54.0984 0.1 54.2584 0.193334C54.4184 0.273334 54.5318 0.38 54.5984 0.513333C54.6784 0.673334 54.7251 0.873334 54.7384 1.11333C54.7651 1.34 54.7784 1.48 54.7784 1.53333V8.01333H54.7584C54.7584 8.02667 54.7518 8.07333 54.7384 8.15333C54.7251 8.23333 54.6984 8.33333 54.6584 8.45333C54.6184 8.56 54.5584 8.67333 54.4784 8.79333C54.3984 8.91333 54.2918 9.01333 54.1584 9.09333C53.9718 9.2 53.7651 9.25333 53.5384 9.25333C53.3118 9.25333 53.0918 9.18 52.8784 9.03333C52.7184 8.92667 52.6051 8.79333 52.5384 8.63333C52.4584 8.48667 52.4051 8.34 52.3784 8.19333C52.3518 8.04667 52.3318 7.9 52.3184 7.75333V5.37333H51.2384ZM41.6384 13.1333C41.6384 12.5333 41.8118 12.0333 42.1584 11.6333C42.5184 11.2333 42.9984 10.92 43.5984 10.6933C44.1984 10.4533 44.9051 10.2867 45.7184 10.1933C46.5318 10.1 47.3984 10.0533 48.3184 10.0533C49.2384 10.0533 50.1051 10.0867 50.9184 10.1533C51.7318 10.22 52.4384 10.3667 53.0384 10.5933C53.6384 10.8067 54.1118 11.1133 54.4584 11.5133C54.8184 11.9133 54.9984 12.4533 54.9984 13.1333C54.9984 13.8 54.8184 14.3333 54.4584 14.7333C54.1118 15.1333 53.6384 15.44 53.0384 15.6533C52.4384 15.88 51.7318 16.0267 50.9184 16.0933C50.1051 16.1733 49.2384 16.2133 48.3184 16.2133C47.3984 16.2133 46.5318 16.1733 45.7184 16.0933C44.9051 16.0267 44.1984 15.88 43.5984 15.6533C42.9984 15.44 42.5184 15.1333 42.1584 14.7333C41.8118 14.3333 41.6384 13.8 41.6384 13.1333ZM52.2984 13.1333C52.2984 12.9067 52.1784 12.7267 51.9384 12.5933C51.6984 12.46 51.3851 12.36 50.9984 12.2933C50.6251 12.2267 50.1984 12.1867 49.7184 12.1733C49.2518 12.1467 48.7851 12.1333 48.3184 12.1333C47.8518 12.1333 47.3851 12.1467 46.9184 12.1733C46.4651 12.1867 46.0518 12.2267 45.6784 12.2933C45.3184 12.36 45.0251 12.46 44.7984 12.5933C44.5718 12.7267 44.4584 12.9067 44.4584 13.1333C44.4584 13.3333 44.5718 13.5 44.7984 13.6333C45.0251 13.7667 45.3184 13.8667 45.6784 13.9333C46.0518 14 46.4651 14.0467 46.9184 14.0733C47.3851 14.1 47.8518 14.1133 48.3184 14.1133C48.7851 14.1133 49.2518 14.1133 49.7184 14.1133C50.1984 14.1133 50.6251 14.0867 50.9984 14.0333C51.3851 13.98 51.6984 13.8867 51.9384 13.7533C52.1784 13.6067 52.2984 13.4 52.2984 13.1333Z" fill="#433232"/>
<path d="M58.4733 13.1133C58.4733 12.5133 58.6466 12.0133 58.9933 11.6133C59.3533 11.2133 59.8333 10.9 60.4333 10.6733C61.0333 10.4333 61.7399 10.2667 62.5533 10.1733C63.3666 10.08 64.2333 10.0333 65.1533 10.0333C66.0733 10.0333 66.9399 10.0667 67.7533 10.1333C68.5666 10.2 69.2733 10.3467 69.8733 10.5733C70.4733 10.7867 70.9466 11.0933 71.2933 11.4933C71.6533 11.8933 71.8333 12.4333 71.8333 13.1133C71.8333 13.78 71.6533 14.3133 71.2933 14.7133C70.9466 15.1133 70.4733 15.42 69.8733 15.6333C69.2733 15.86 68.5666 16.0067 67.7533 16.0733C66.9399 16.1533 66.0733 16.1933 65.1533 16.1933C64.2333 16.1933 63.3666 16.1533 62.5533 16.0733C61.7399 16.0067 61.0333 15.86 60.4333 15.6333C59.8333 15.42 59.3533 15.1133 58.9933 14.7133C58.6466 14.3133 58.4733 13.78 58.4733 13.1133ZM63.4333 2.59333C63.4333 2.59333 63.4266 2.68667 63.4133 2.87333C63.4133 3.06 63.4133 3.26667 63.4133 3.49333C63.4133 3.72 63.4133 3.93333 63.4133 4.13333C63.4266 4.33333 63.4333 4.44667 63.4333 4.47333C63.4999 4.54 63.6199 4.65333 63.7933 4.81333C63.9666 4.96 64.1133 5.08667 64.2333 5.19333C64.3666 5.3 64.4999 5.42 64.6333 5.55333C64.7799 5.67333 64.9266 5.80667 65.0733 5.95333C65.1666 6.04667 65.2533 6.14 65.3333 6.23333C65.4133 6.31333 65.4866 6.38667 65.5533 6.45333C65.8066 6.70667 66.0599 6.98 66.3133 7.27333C66.5666 7.56667 66.7399 7.86667 66.8333 8.17333C66.8733 8.29333 66.8799 8.42667 66.8533 8.57333C66.8266 8.72 66.74 8.84667 66.5933 8.95333C66.3666 9.08667 66.1266 9.15333 65.8733 9.15333C65.58 9.15333 65.2999 9.09333 65.0333 8.97333C64.7666 8.85333 64.5533 8.73333 64.3933 8.61333C64.1399 8.42667 63.9066 8.23333 63.6933 8.03333C63.4799 7.82 63.2666 7.60667 63.0533 7.39333C62.9066 7.24667 62.7399 7.08 62.5533 6.89333C62.3666 6.69333 62.1799 6.52 61.9933 6.37333L61.4533 6.91333C61.3599 7.00667 61.2666 7.1 61.1733 7.19333C61.0799 7.27333 60.9933 7.36 60.9133 7.45333C60.7399 7.64 60.5599 7.83333 60.3733 8.03333C60.1866 8.22 59.9733 8.4 59.7333 8.57333C59.1866 8.97333 58.6733 9.17333 58.1933 9.17333C58.1266 9.17333 58.0666 9.17333 58.0133 9.17333C57.9733 9.17333 57.9199 9.16 57.8533 9.13333C57.5599 9.06667 57.3666 8.94667 57.2733 8.77333C57.1799 8.62667 57.1466 8.46 57.1733 8.27333C57.2133 8.08667 57.2733 7.92 57.3533 7.77333C57.4599 7.62667 57.5799 7.48667 57.7133 7.35333C57.8466 7.20667 57.9799 7.06 58.1133 6.91333C58.2333 6.78 58.4199 6.59333 58.6733 6.35333C58.9399 6.1 59.2066 5.84667 59.4733 5.59333C59.7399 5.32667 59.9866 5.08667 60.2133 4.87333C60.4399 4.66 60.5799 4.52667 60.6333 4.47333V2.59333H59.3533C59.1933 2.59333 59.0066 2.6 58.7933 2.61333C58.5799 2.61333 58.3666 2.6 58.1533 2.57333C57.9533 2.54667 57.7666 2.49333 57.5933 2.41333C57.4199 2.32 57.2933 2.17333 57.2133 1.97333C57.1466 1.82667 57.0999 1.66 57.0733 1.47333C57.0599 1.28667 57.0733 1.11333 57.1133 0.953333C57.1666 0.766667 57.2866 0.64 57.4733 0.573334C57.6599 0.493334 57.8399 0.44 58.0133 0.413333C58.0399 0.413333 58.1466 0.413333 58.3333 0.413333C58.5333 0.413333 58.7466 0.413333 58.9733 0.413333C59.1999 0.413333 59.4133 0.413333 59.6133 0.413333C59.8133 0.413333 59.9333 0.406667 59.9733 0.393334H64.6533C65.1866 0.393334 65.6333 0.426667 65.9933 0.493333C66.3666 0.56 66.6666 0.726667 66.8933 0.993333C66.9599 1.07333 66.9999 1.18 67.0133 1.31333C67.0399 1.44667 67.0399 1.58667 67.0133 1.73333C66.9999 1.86667 66.9599 1.99333 66.8933 2.11333C66.8399 2.23333 66.7599 2.32 66.6533 2.37333C66.5466 2.41333 66.42 2.46 66.2733 2.51333C66.1266 2.55333 65.9999 2.58 65.8933 2.59333C65.7066 2.60667 65.5133 2.61333 65.3133 2.61333C65.1266 2.6 64.9399 2.59333 64.7533 2.59333H63.4333ZM71.4733 6.13333V8.15333C71.4599 8.3 71.44 8.45333 71.4133 8.61333C71.3866 8.76 71.3333 8.90667 71.2533 9.05333C71.1733 9.21333 71.06 9.34667 70.9133 9.45333C70.8066 9.52 70.6799 9.57333 70.5333 9.61333C70.3999 9.64 70.2799 9.65333 70.1733 9.65333C70.0666 9.65333 69.9533 9.64667 69.8333 9.63333C69.7133 9.60667 69.6133 9.56667 69.5333 9.51333C69.3999 9.43333 69.2933 9.33333 69.2133 9.21333C69.1333 9.09333 69.0666 8.98 69.0133 8.87333C68.9733 8.75333 68.9466 8.65333 68.9333 8.57333C68.9199 8.48 68.9133 8.43333 68.9133 8.43333V1.63333C68.9 1.58 68.9066 1.43333 68.9333 1.19333C68.9599 0.953334 69.0133 0.753334 69.0933 0.593333C69.16 0.46 69.2733 0.353334 69.4333 0.273334C69.6066 0.193333 69.7866 0.14 69.9733 0.113334C70.1999 0.0866665 70.4266 0.0999996 70.6533 0.153333C70.8799 0.206667 71.0466 0.293333 71.1533 0.413333C71.2333 0.52 71.2866 0.626667 71.3133 0.733334C71.3533 0.826667 71.3866 0.926667 71.4133 1.03333C71.4533 1.16667 71.4733 1.30667 71.4733 1.45333C71.4866 1.6 71.4866 1.74667 71.4733 1.89333V3.45333C71.4733 3.52 71.4666 3.59333 71.4533 3.67333C71.4533 3.74 71.4599 3.82 71.4733 3.91333C71.5266 3.91333 71.6266 3.92 71.7733 3.93333C71.92 3.93333 72.0733 3.94 72.2333 3.95333C72.3933 3.95333 72.5466 3.96 72.6933 3.97333C72.8399 3.98667 72.9466 4 73.0133 4.01333C73.2799 4.06667 73.4666 4.14667 73.5733 4.25333C73.6799 4.34667 73.7466 4.46667 73.7733 4.61333C73.8133 4.76 73.8333 4.93333 73.8333 5.13333C73.8333 5.32 73.7933 5.48 73.7133 5.61333C73.5533 5.88 73.3133 6.03333 72.9933 6.07333C72.6733 6.1 72.3199 6.12 71.9333 6.13333H71.4733ZM69.1333 13.1133C69.1333 12.8867 69.0133 12.7067 68.7733 12.5733C68.5333 12.44 68.2199 12.34 67.8333 12.2733C67.4599 12.2067 67.0333 12.1667 66.5533 12.1533C66.0866 12.1267 65.6199 12.1133 65.1533 12.1133C64.6866 12.1133 64.2199 12.1267 63.7533 12.1533C63.2999 12.1667 62.8866 12.2067 62.5133 12.2733C62.1533 12.34 61.8599 12.44 61.6333 12.5733C61.4066 12.7067 61.2933 12.8867 61.2933 13.1133C61.2933 13.3133 61.4066 13.48 61.6333 13.6133C61.8599 13.7467 62.1533 13.8467 62.5133 13.9133C62.8866 13.98 63.2999 14.0267 63.7533 14.0533C64.2199 14.08 64.6866 14.0933 65.1533 14.0933C65.6199 14.0933 66.0866 14.0933 66.5533 14.0933C67.0333 14.0933 67.4599 14.0667 67.8333 14.0133C68.2199 13.96 68.5333 13.8667 68.7733 13.7333C69.0133 13.5867 69.1333 13.38 69.1333 13.1133Z" fill="#433232"/>
<path d="M83.2952 6.79333C83.1485 6.67333 83.0285 6.52667 82.9352 6.35333C82.8552 6.16667 82.7952 5.98667 82.7552 5.81333C82.7152 5.62667 82.6885 5.46667 82.6752 5.33333C82.6618 5.2 82.6552 5.12667 82.6552 5.11333V1.31333C82.6552 1.06 82.7152 0.813334 82.8352 0.573334C82.9685 0.32 83.1818 0.173334 83.4752 0.133333C83.6085 0.12 83.7552 0.126667 83.9152 0.153333C84.0752 0.166667 84.2218 0.206667 84.3552 0.273334C84.5018 0.326667 84.6218 0.413333 84.7152 0.533333C84.8218 0.64 84.8885 0.773333 84.9152 0.933334C84.9285 1 84.9285 1.1 84.9152 1.23333C84.9152 1.35333 84.9152 1.49333 84.9152 1.65333C84.9152 1.8 84.9152 1.94 84.9152 2.07333C84.9285 2.20667 84.9485 2.3 84.9752 2.35333C85.0018 2.42 85.0685 2.45333 85.1752 2.45333C85.2818 2.44 85.3685 2.44 85.4352 2.45333C85.7418 2.48 86.0485 2.48667 86.3552 2.47333C86.6752 2.44667 86.9952 2.43333 87.3152 2.43333H92.8352C92.9552 2.43333 93.0485 2.44 93.1152 2.45333C93.2618 2.46667 93.3685 2.46667 93.4352 2.45333C93.5018 2.44 93.6018 2.42 93.7352 2.39333C93.7485 2.34 93.7552 2.26 93.7552 2.15333C93.7685 2.03333 93.7752 1.91333 93.7752 1.79333C93.7752 1.66 93.7752 1.53333 93.7752 1.41333C93.7752 1.29333 93.7752 1.20667 93.7752 1.15333C93.7885 0.913333 93.8418 0.7 93.9352 0.513333C94.0285 0.313333 94.1952 0.186667 94.4352 0.133333C94.9018 0.0400004 95.2752 0.106667 95.5552 0.333333C95.8352 0.56 95.9685 0.913334 95.9552 1.39333C95.9552 1.7 95.9552 2.04 95.9552 2.41333C95.9552 2.78667 95.9552 3.16667 95.9552 3.55333C95.9685 3.94 95.9685 4.32667 95.9552 4.71333C95.9552 5.08667 95.9418 5.42667 95.9152 5.73333C95.8885 5.92 95.8485 6.07333 95.7952 6.19333C95.7418 6.31333 95.6618 6.45333 95.5552 6.61333C95.4485 6.76 95.3085 6.87333 95.1352 6.95333C94.9618 7.02 94.7752 7.06667 94.5752 7.09333C94.3752 7.12 94.1752 7.13333 93.9752 7.13333C93.7752 7.13333 93.5952 7.13333 93.4352 7.13333C93.2218 7.14667 93.0352 7.15333 92.8752 7.15333C92.7285 7.15333 92.5885 7.15333 92.4552 7.15333C92.3218 7.15333 92.1752 7.15333 92.0152 7.15333C91.8685 7.14 91.6885 7.13333 91.4752 7.13333C91.1552 7.13333 90.8618 7.13333 90.5952 7.13333C90.3418 7.13333 90.0885 7.13333 89.8352 7.13333C89.5818 7.13333 89.3218 7.13333 89.0552 7.13333C88.7885 7.13333 88.4952 7.13333 88.1752 7.13333C87.9485 7.13333 87.7218 7.14 87.4952 7.15333C87.2685 7.16667 87.0418 7.17333 86.8152 7.17333C86.1752 7.16 85.5418 7.16 84.9152 7.17333C84.6352 7.17333 84.3485 7.15333 84.0552 7.11333C83.7752 7.07333 83.5218 6.96667 83.2952 6.79333ZM94.6352 10.5733C93.9685 10.6 93.3218 10.62 92.6952 10.6333C92.0685 10.6467 91.4152 10.6533 90.7352 10.6533C90.7352 10.8 90.7285 10.9133 90.7152 10.9933C90.7152 11.06 90.7085 11.1333 90.6952 11.2133C90.6952 11.28 90.6885 11.3667 90.6752 11.4733C90.6752 11.5667 90.6752 11.7067 90.6752 11.8933C90.6485 12.04 90.5818 12.1667 90.4752 12.2733C90.3818 12.38 90.2685 12.4733 90.1352 12.5533C90.0018 12.6333 89.8552 12.6933 89.6952 12.7333C89.5485 12.76 89.4085 12.7733 89.2752 12.7733C88.8752 12.7467 88.5618 12.6467 88.3352 12.4733C88.1218 12.3 87.9952 12.0133 87.9552 11.6133C87.9418 11.48 87.9352 11.38 87.9352 11.3133C87.9352 11.2467 87.9352 11.1867 87.9352 11.1333C87.9485 11.0667 87.9552 11 87.9552 10.9333C87.9685 10.8533 87.9752 10.7467 87.9752 10.6133C87.6685 10.6133 87.2685 10.6133 86.7752 10.6133C86.2952 10.6 85.7952 10.5933 85.2752 10.5933C84.7552 10.58 84.2552 10.5667 83.7752 10.5533C83.2952 10.54 82.9152 10.52 82.6352 10.4933C82.4218 10.4667 82.2485 10.44 82.1152 10.4133C81.9952 10.3733 81.8485 10.2733 81.6752 10.1133C81.5818 10.0333 81.5152 9.92667 81.4752 9.79333C81.4352 9.66 81.4152 9.52 81.4152 9.37333C81.4152 9.09333 81.5018 8.86667 81.6752 8.69333C81.7685 8.58667 81.8952 8.50667 82.0552 8.45333C82.2152 8.4 82.3685 8.36 82.5152 8.33333C82.6618 8.30667 82.7885 8.29333 82.8952 8.29333C83.0152 8.29333 83.0818 8.29333 83.0952 8.29333H94.5352C94.7352 8.29333 94.9352 8.29333 95.1352 8.29333C95.3352 8.29333 95.5285 8.3 95.7152 8.31333C95.9018 8.32667 96.0818 8.35333 96.2552 8.39333C96.4418 8.43333 96.6085 8.52 96.7552 8.65333C96.9018 8.76 96.9818 8.88 96.9952 9.01333C97.0218 9.14667 97.0352 9.29333 97.0352 9.45333C97.0352 9.65333 96.9752 9.83333 96.8552 9.99333C96.7485 10.1533 96.5952 10.2667 96.3952 10.3333C96.1285 10.44 95.8352 10.5067 95.5152 10.5333C95.2085 10.5467 94.9152 10.56 94.6352 10.5733ZM95.1952 13.5533C95.2085 13.5533 95.2552 13.5667 95.3352 13.5933C95.4152 13.62 95.5018 13.6667 95.5952 13.7333C95.7018 13.7867 95.7952 13.8667 95.8752 13.9733C95.9685 14.0667 96.0285 14.18 96.0552 14.3133C96.1352 14.82 96.0552 15.2133 95.8152 15.4933C95.6685 15.68 95.5085 15.7933 95.3352 15.8333C95.1618 15.8733 95.0685 15.8933 95.0552 15.8933H84.1352C83.6285 15.8933 83.2285 15.8067 82.9352 15.6333C82.6418 15.4733 82.4952 15.24 82.4952 14.9333V13.1533C82.4685 12.86 82.4685 12.56 82.4952 12.2533C82.5218 11.9733 82.6285 11.7467 82.8152 11.5733C83.0018 11.4 83.2352 11.3133 83.5152 11.3133C83.5818 11.3133 83.6685 11.32 83.7752 11.3333C83.8952 11.3333 83.9885 11.3467 84.0552 11.3733C84.2285 11.4267 84.3618 11.5067 84.4552 11.6133C84.5485 11.72 84.6218 11.8467 84.6752 11.9933C84.7285 12.1267 84.7618 12.2733 84.7752 12.4333C84.7885 12.58 84.8018 12.7267 84.8152 12.8733C84.8152 12.98 84.8218 13.0933 84.8352 13.2133C84.8485 13.32 84.8685 13.42 84.8952 13.5133C84.9218 13.5267 85.0418 13.5467 85.2552 13.5733C85.4818 13.5867 85.8285 13.5933 86.2952 13.5933C86.6952 13.5933 87.0485 13.5867 87.3552 13.5733C87.6752 13.56 87.8418 13.5533 87.8552 13.5533H95.1952ZM84.9752 4.99333C85.0018 5.11333 85.0618 5.2 85.1552 5.25333C85.2618 5.29333 85.3752 5.32 85.4952 5.33333C85.6285 5.34667 85.7618 5.35333 85.8952 5.35333C86.0285 5.34 86.1352 5.33333 86.2152 5.33333C86.5885 5.33333 86.9552 5.34 87.3152 5.35333C87.6885 5.35333 88.0552 5.35333 88.4152 5.35333C88.6685 5.35333 88.8885 5.35333 89.0752 5.35333C89.2618 5.35333 89.4418 5.35333 89.6152 5.35333C89.8018 5.35333 89.9885 5.35333 90.1752 5.35333C90.3752 5.34 90.6018 5.33333 90.8552 5.33333C90.9885 5.32 91.1218 5.32 91.2552 5.33333C91.3885 5.33333 91.5285 5.33333 91.6752 5.33333C91.7818 5.33333 91.8818 5.32667 91.9752 5.31333C92.0818 5.3 92.1885 5.3 92.2952 5.31333C92.4018 5.34 92.5085 5.35333 92.6152 5.35333C92.7352 5.34 92.8485 5.33333 92.9552 5.33333C93.0218 5.34667 93.1018 5.36 93.1952 5.37333C93.2885 5.37333 93.3752 5.37333 93.4552 5.37333C93.5352 5.36 93.6018 5.32667 93.6552 5.27333C93.7085 5.22 93.7352 5.14 93.7352 5.03333C93.7352 4.92667 93.7418 4.83333 93.7552 4.75333C93.7685 4.67333 93.7352 4.58667 93.6552 4.49333C93.5485 4.38667 93.4352 4.32667 93.3152 4.31333C93.1952 4.3 93.0685 4.3 92.9352 4.31333H89.9352C89.8952 4.31333 89.7218 4.31333 89.4152 4.31333C89.1085 4.31333 88.7752 4.31333 88.4152 4.31333C88.0552 4.3 87.7218 4.29333 87.4152 4.29333C87.1085 4.29333 86.9352 4.29333 86.8952 4.29333C86.7752 4.29333 86.6018 4.28667 86.3752 4.27333C86.1485 4.24667 85.9285 4.24 85.7152 4.25333C85.5018 4.26667 85.3152 4.31333 85.1552 4.39333C85.0085 4.47333 84.9352 4.61333 84.9352 4.81333C84.9352 4.88 84.9352 4.92 84.9352 4.93333C84.9485 4.93333 84.9618 4.95333 84.9752 4.99333Z" fill="#433232"/>
<path d="M110.621 10.7933C111.021 10.78 111.334 10.8133 111.561 10.8933C111.801 10.9733 111.988 11.08 112.121 11.2133C112.254 11.3467 112.341 11.4933 112.381 11.6533C112.421 11.8133 112.441 11.9733 112.441 12.1333V14.4533C112.468 14.7467 112.468 15.04 112.441 15.3333C112.414 15.6133 112.301 15.84 112.101 16.0133C111.914 16.1867 111.668 16.2733 111.361 16.2733C111.294 16.2733 111.174 16.2667 111.001 16.2533C110.828 16.2533 110.708 16.24 110.641 16.2133C110.468 16.16 110.328 16.08 110.221 15.9733C110.128 15.8667 110.054 15.7467 110.001 15.6133C109.948 15.48 109.914 15.34 109.901 15.1933C109.888 15.0333 109.874 14.88 109.861 14.7333C109.861 14.68 109.854 14.58 109.841 14.4333C109.841 14.2733 109.834 14.1133 109.821 13.9533C109.821 13.78 109.814 13.62 109.801 13.4733C109.801 13.3267 109.794 13.2267 109.781 13.1733C109.741 13.16 109.628 13.1467 109.441 13.1333C109.268 13.12 108.934 13.1133 108.441 13.1133C108.014 13.1133 107.748 13.12 107.641 13.1333C107.548 13.1333 107.494 13.14 107.481 13.1533H100.261L100.241 13.1333C100.241 13.1333 100.194 13.12 100.101 13.0933C100.021 13.0667 99.9276 13.0267 99.8209 12.9733C99.7143 12.92 99.6076 12.8467 99.5009 12.7533C99.4076 12.66 99.3543 12.54 99.3409 12.3933C99.2743 11.8867 99.3609 11.4867 99.6009 11.1933C99.7609 11.0067 99.9343 10.9 100.121 10.8733C100.308 10.8333 100.408 10.8133 100.421 10.8133L110.621 10.7933ZM99.1409 8.71333C98.9543 8.63333 98.8209 8.48 98.7409 8.25333C98.6343 7.98667 98.6143 7.72 98.6809 7.45333C98.7609 7.18667 98.8809 6.93333 99.0409 6.69333C99.2009 6.45333 99.3809 6.22667 99.5809 6.01333C99.7943 5.8 99.9743 5.6 100.121 5.41333C100.348 5.13333 100.574 4.85333 100.801 4.57333C101.028 4.29333 101.254 4.00667 101.481 3.71333C101.561 3.60667 101.654 3.49333 101.761 3.37333C101.868 3.25333 101.968 3.12667 102.061 2.99333C102.168 2.86 102.254 2.72667 102.321 2.59333C102.388 2.46 102.428 2.32 102.441 2.17333C102.454 1.94667 102.468 1.72667 102.481 1.51333C102.494 1.28667 102.534 1.08667 102.601 0.913334C102.668 0.726667 102.774 0.58 102.921 0.473334C103.081 0.366667 103.308 0.313333 103.601 0.313333C103.814 0.313333 104.021 0.34 104.221 0.393334C104.421 0.433334 104.568 0.56 104.661 0.773333C104.754 1.01333 104.781 1.28 104.741 1.57333C104.714 1.85333 104.741 2.12 104.821 2.37333C104.888 2.6 105.001 2.8 105.161 2.97333C105.321 3.13333 105.454 3.30667 105.561 3.49333C105.788 3.90667 106.054 4.27333 106.361 4.59333C106.668 4.91333 106.954 5.26 107.221 5.63333C107.434 5.91333 107.634 6.20667 107.821 6.51333C108.021 6.80667 108.154 7.12667 108.221 7.47333C108.288 7.76667 108.254 8.02 108.121 8.23333C108.001 8.43333 107.834 8.58 107.621 8.67333C107.408 8.76667 107.174 8.8 106.921 8.77333C106.668 8.73333 106.448 8.62 106.261 8.43333C105.768 7.92667 105.314 7.40667 104.901 6.87333C104.501 6.32667 104.088 5.77333 103.661 5.21333C103.661 5.21333 103.601 5.28 103.481 5.41333C103.361 5.53333 103.208 5.69333 103.021 5.89333C102.834 6.08 102.634 6.29333 102.421 6.53333C102.208 6.76 102.008 6.98 101.821 7.19333C101.634 7.40667 101.468 7.59333 101.321 7.75333C101.174 7.9 101.088 7.99333 101.061 8.03333C100.914 8.20667 100.761 8.36 100.601 8.49333C100.441 8.62667 100.248 8.72 100.021 8.77333C99.8743 8.8 99.7209 8.81333 99.5609 8.81333C99.4143 8.81333 99.2743 8.78 99.1409 8.71333ZM109.301 5.37333C108.914 5.34667 108.568 5.32667 108.261 5.31333C107.954 5.28667 107.714 5.14 107.541 4.87333C107.461 4.74 107.421 4.56667 107.421 4.35333C107.421 4.14 107.434 3.96 107.461 3.81333C107.501 3.66667 107.574 3.54667 107.681 3.45333C107.788 3.34667 107.974 3.26 108.241 3.19333C108.294 3.18 108.421 3.17333 108.621 3.17333C108.834 3.16 109.061 3.15333 109.301 3.15333C109.541 3.14 109.768 3.13333 109.981 3.13333C110.194 3.12 110.328 3.11333 110.381 3.11333V1.81333C110.368 1.66667 110.361 1.52 110.361 1.37333C110.374 1.22667 110.401 1.08 110.441 0.933334C110.468 0.826667 110.494 0.726667 110.521 0.633333C110.548 0.54 110.608 0.44 110.701 0.333333C110.808 0.2 110.954 0.106667 111.141 0.0533332C111.341 -2.64496e-07 111.554 -0.0133334 111.781 0.0133337C111.981 0.04 112.161 0.1 112.321 0.193334C112.481 0.273334 112.594 0.38 112.661 0.513333C112.741 0.673334 112.788 0.873334 112.801 1.11333C112.828 1.34 112.841 1.48 112.841 1.53333V8.01333H112.821C112.821 8.02667 112.814 8.07333 112.801 8.15333C112.788 8.23333 112.761 8.33333 112.721 8.45333C112.681 8.56 112.621 8.67333 112.541 8.79333C112.461 8.91333 112.354 9.01333 112.221 9.09333C112.034 9.2 111.828 9.25333 111.601 9.25333C111.374 9.25333 111.154 9.18 110.941 9.03333C110.781 8.92667 110.668 8.79333 110.601 8.63333C110.521 8.48667 110.468 8.34 110.441 8.19333C110.414 8.04667 110.394 7.9 110.381 7.75333V5.37333H109.301Z" fill="#433232"/>
</svg>
