<svg width="62" height="15" viewBox="0 0 62 15" fill="none" xmlns="http://www.w3.org/2000/svg">
<path d="M0.702 11.97C0.702 11.43 0.858 10.98 1.17 10.62C1.494 10.26 1.926 9.97797 2.466 9.77397C3.006 9.55797 3.642 9.40797 4.374 9.32397C5.106 9.23997 5.886 9.19797 6.714 9.19797C7.542 9.19797 8.322 9.22797 9.054 9.28797C9.786 9.34797 10.422 9.47997 10.962 9.68397C11.502 9.87597 11.928 10.152 12.24 10.512C12.564 10.872 12.726 11.358 12.726 11.97C12.726 12.57 12.564 13.05 12.24 13.41C11.928 13.77 11.502 14.046 10.962 14.238C10.422 14.442 9.786 14.574 9.054 14.634C8.322 14.706 7.542 14.742 6.714 14.742C5.886 14.742 5.106 14.706 4.374 14.634C3.642 14.574 3.006 14.442 2.466 14.238C1.926 14.046 1.494 13.77 1.17 13.41C0.858 13.05 0.702 12.57 0.702 11.97ZM7.488 7.18197C7.488 7.30197 7.452 7.42197 7.38 7.54197C7.32 7.66197 7.242 7.76997 7.146 7.86597C7.05 7.94997 6.942 8.02797 6.822 8.09997C6.702 8.15997 6.588 8.19597 6.48 8.20797C6.168 8.25597 5.904 8.26797 5.688 8.24397C5.472 8.21997 5.214 8.20797 4.914 8.20797C4.254 8.20797 3.594 8.20197 2.934 8.18997C2.286 8.17797 1.638 8.15997 0.99 8.13597C0.798 8.12397 0.636 8.06397 0.504 7.95597C0.384 7.84797 0.288 7.72197 0.216 7.57797C0.144 7.42197 0.096 7.25397 0.072 7.07397C0.048 6.89397 0.0359999 6.72597 0.0359999 6.56997C0.0359999 6.31797 0.03 6.03597 0.018 5.72397C0.018 5.41197 0.012 5.09397 0 4.76997C0 4.44597 0 4.12797 0 3.81597C0 3.49197 0.00600001 3.20397 0.018 2.95197C0.03 2.79597 0.03 2.62797 0.018 2.44797C0.018 2.26797 0.024 2.08797 0.0359999 1.90797C0.048 1.72797 0.066 1.55397 0.09 1.38597C0.126 1.20597 0.18 1.04997 0.252 0.917969C0.336 0.761969 0.456 0.635969 0.612 0.539969C0.768 0.443969 0.93 0.389969 1.098 0.377969C1.266 0.353969 1.428 0.371969 1.584 0.431969C1.752 0.491969 1.884 0.599969 1.98 0.755969C2.172 1.07997 2.268 1.45797 2.268 1.88997C2.28 2.30997 2.28 2.71197 2.268 3.09597H5.454C5.478 2.83197 5.484 2.59797 5.472 2.39397C5.46 2.18997 5.454 1.97397 5.454 1.74597C5.454 1.54197 5.484 1.31397 5.544 1.06197C5.616 0.79797 5.742 0.60597 5.922 0.48597C6.054 0.389969 6.234 0.341969 6.462 0.341969C6.69 0.32997 6.87 0.371969 7.002 0.467969C7.134 0.563969 7.23 0.707969 7.29 0.89997C7.362 1.07997 7.41 1.26597 7.434 1.45797C7.47 1.67397 7.488 1.90797 7.488 2.15997V7.18197ZM9.954 7.00197C9.87 7.00197 9.762 6.99597 9.63 6.98397C9.51 6.97197 9.384 6.94797 9.252 6.91197C9.132 6.87597 9.018 6.82797 8.91 6.76797C8.802 6.70797 8.718 6.62397 8.658 6.51597C8.622 6.46797 8.592 6.40197 8.568 6.31797C8.556 6.23397 8.544 6.14997 8.532 6.06597C8.532 5.96997 8.532 5.87997 8.532 5.79597C8.544 5.71197 8.556 5.64597 8.568 5.59797C8.592 5.46597 8.658 5.35197 8.766 5.25597C8.874 5.14797 9 5.06397 9.144 5.00397C9.192 4.99197 9.282 4.97997 9.414 4.96797C9.558 4.95597 9.702 4.94997 9.846 4.94997H10.386C10.374 4.81797 10.368 4.69197 10.368 4.57197V4.01397H9.954C9.87 4.01397 9.762 4.00797 9.63 3.99597C9.51 3.98397 9.384 3.95997 9.252 3.92397C9.132 3.88797 9.018 3.83997 8.91 3.77997C8.802 3.71997 8.718 3.63597 8.658 3.52797C8.562 3.37197 8.514 3.20997 8.514 3.04197C8.514 2.86197 8.55 2.69997 8.622 2.55597C8.706 2.39997 8.814 2.27397 8.946 2.17797C9.09 2.06997 9.258 2.00997 9.45 1.99797C9.462 1.99797 9.516 1.99797 9.612 1.99797C9.72 1.99797 9.834 1.99797 9.954 1.99797C10.074 1.99797 10.182 1.99797 10.278 1.99797C10.374 1.98597 10.422 1.96797 10.422 1.94397C10.446 1.82397 10.452 1.69197 10.44 1.54797C10.44 1.40397 10.446 1.25997 10.458 1.11597C10.47 0.971969 10.494 0.839969 10.53 0.719969C10.578 0.587969 10.662 0.473969 10.782 0.377969C10.878 0.305969 10.992 0.257969 11.124 0.23397C11.256 0.209969 11.382 0.191969 11.502 0.179969C11.802 0.143969 12.06 0.245969 12.276 0.48597C12.36 0.59397 12.42 0.695969 12.456 0.791969C12.504 0.935969 12.522 1.08597 12.51 1.24197C12.51 1.39797 12.51 1.55397 12.51 1.70997V6.87597C12.51 6.87597 12.51 6.95397 12.51 7.10997C12.51 7.26597 12.498 7.43997 12.474 7.63197C12.45 7.82397 12.408 8.01597 12.348 8.20797C12.3 8.38797 12.216 8.51397 12.096 8.58597C12.012 8.63397 11.91 8.66997 11.79 8.69397C11.67 8.71797 11.562 8.72997 11.466 8.72997C11.262 8.72997 11.064 8.66397 10.872 8.53197C10.728 8.43597 10.626 8.32197 10.566 8.18997C10.53 8.11797 10.5 8.02797 10.476 7.91997C10.452 7.81197 10.434 7.70397 10.422 7.59597C10.41 7.47597 10.398 7.36197 10.386 7.25397C10.374 7.14597 10.368 7.06197 10.368 7.00197H9.954ZM10.296 11.97C10.296 11.766 10.188 11.604 9.972 11.484C9.756 11.364 9.474 11.274 9.126 11.214C8.79 11.154 8.406 11.118 7.974 11.106C7.554 11.082 7.134 11.07 6.714 11.07C6.294 11.07 5.874 11.082 5.454 11.106C5.046 11.118 4.674 11.154 4.338 11.214C4.014 11.274 3.75 11.364 3.546 11.484C3.342 11.604 3.24 11.766 3.24 11.97C3.24 12.15 3.342 12.3 3.546 12.42C3.75 12.54 4.014 12.63 4.338 12.69C4.674 12.75 5.046 12.792 5.454 12.816C5.874 12.84 6.294 12.852 6.714 12.852C7.134 12.852 7.554 12.852 7.974 12.852C8.406 12.852 8.79 12.828 9.126 12.78C9.474 12.732 9.756 12.648 9.972 12.528C10.188 12.396 10.296 12.21 10.296 11.97ZM5.454 6.20997C5.454 6.17397 5.448 6.13797 5.436 6.10197C5.436 6.05397 5.442 5.99997 5.454 5.93997C5.478 5.77197 5.49 5.62797 5.49 5.50797C5.49 5.37597 5.478 5.22597 5.454 5.05797V4.75197H3.636C3.444 4.73997 3.264 4.72797 3.096 4.71597C2.952 4.70397 2.796 4.70397 2.628 4.71597C2.472 4.71597 2.34 4.72797 2.232 4.75197C2.208 4.95597 2.202 5.15997 2.214 5.36397C2.238 5.55597 2.256 5.75397 2.268 5.95797C2.268 6.08997 2.274 6.17997 2.286 6.22797C2.298 6.27597 2.37 6.30597 2.502 6.31797C2.634 6.32997 2.766 6.33597 2.898 6.33597C3.042 6.32397 3.18 6.31797 3.312 6.31797H5.454V6.20997Z" fill="black"/>
<path d="M19.4594 0.0539688C20.0714 0.089969 20.6234 0.185969 21.1154 0.341969C21.6194 0.48597 22.0394 0.69597 22.3754 0.97197C22.7234 1.24797 22.9814 1.58397 23.1494 1.97997C23.3294 2.37597 23.3954 2.82597 23.3474 3.32997C23.2634 4.19397 22.8854 4.85997 22.2134 5.32797C21.5414 5.79597 20.6294 6.02997 19.4774 6.02997C19.1654 6.02997 18.8654 6.02997 18.5774 6.02997C18.3014 6.01797 18.0254 5.99997 17.7494 5.97597C17.4734 5.93997 17.2034 5.88597 16.9394 5.81397C16.6754 5.74197 16.4054 5.63997 16.1294 5.50797C15.6014 5.23197 15.2414 4.87197 15.0494 4.42797C14.8694 3.97197 14.7794 3.50997 14.7794 3.04197C14.7794 2.00997 15.1814 1.25397 15.9854 0.773969C16.8014 0.293969 17.9594 0.0539688 19.4594 0.0539688ZM27.0554 12.708C27.0674 12.708 27.1094 12.72 27.1814 12.744C27.2534 12.768 27.3314 12.81 27.4154 12.87C27.5114 12.918 27.5954 12.99 27.6674 13.086C27.7514 13.17 27.8054 13.272 27.8294 13.392C27.9014 13.848 27.8294 14.202 27.6134 14.454C27.4814 14.622 27.3374 14.724 27.1814 14.76C27.0254 14.796 26.9414 14.814 26.9294 14.814H17.5334C17.0774 14.814 16.7174 14.736 16.4534 14.58C16.1894 14.436 16.0574 14.226 16.0574 13.95V12.348C16.0334 12.084 16.0334 11.814 16.0574 11.538C16.0814 11.286 16.1774 11.082 16.3454 10.926C16.5134 10.77 16.7234 10.692 16.9754 10.692C17.0354 10.692 17.1134 10.698 17.2094 10.71C17.3174 10.71 17.4014 10.722 17.4614 10.746C17.6174 10.794 17.7374 10.866 17.8214 10.962C17.9054 11.058 17.9714 11.172 18.0194 11.304C18.0674 11.424 18.0974 11.556 18.1094 11.7C18.1214 11.832 18.1334 11.964 18.1454 12.096C18.1454 12.192 18.1514 12.294 18.1634 12.402C18.1754 12.498 18.1934 12.588 18.2174 12.672C18.2414 12.684 18.3494 12.702 18.5414 12.726C18.7454 12.738 19.0574 12.744 19.4774 12.744C19.8374 12.744 20.1554 12.738 20.4314 12.726C20.7194 12.714 20.8694 12.708 20.8814 12.708H27.0554ZM27.4874 9.26997C27.4754 9.34197 27.4574 9.43797 27.4334 9.55797C27.4214 9.66597 27.4034 9.77997 27.3794 9.89997C27.3674 10.02 27.3494 10.134 27.3254 10.242C27.3014 10.338 27.2774 10.422 27.2534 10.494C27.1934 10.638 27.0974 10.77 26.9654 10.89C26.8334 10.974 26.6894 11.022 26.5334 11.034C26.3894 11.046 26.2514 11.04 26.1194 11.016C26.0354 10.992 25.9574 10.974 25.8854 10.962C25.8254 10.95 25.7654 10.914 25.7054 10.854C25.3814 10.53 25.2374 10.074 25.2734 9.48597L25.3094 5.99397C24.8774 5.99397 24.4694 5.96397 24.0854 5.90397C23.7014 5.83197 23.4374 5.69397 23.2934 5.48997C23.2094 5.36997 23.1674 5.23197 23.1674 5.07597C23.1674 4.91997 23.2034 4.76997 23.2754 4.62597C23.3474 4.46997 23.4434 4.34397 23.5634 4.24797C23.6834 4.13997 23.8154 4.07997 23.9594 4.06797C24.1034 4.06797 24.2954 4.06197 24.5354 4.04997C24.7754 4.03797 25.0334 4.03197 25.3094 4.03197V2.05197C25.3094 1.91997 25.3094 1.76997 25.3094 1.60197C25.3094 1.43397 25.3154 1.27197 25.3274 1.11597C25.3514 0.947969 25.3874 0.791969 25.4354 0.64797C25.4834 0.503969 25.5434 0.389969 25.6154 0.30597C25.7474 0.173969 25.8794 0.0959693 26.0114 0.0719696C26.1434 0.0479692 26.2814 0.035969 26.4254 0.035969C26.8454 0.035969 27.1334 0.239969 27.2894 0.64797C27.3854 0.911969 27.4394 1.17597 27.4514 1.43997C27.4634 1.70397 27.4754 1.97397 27.4874 2.24997V2.33997C27.5114 3.25197 27.5174 4.15797 27.5054 5.05797C27.4934 5.94597 27.4874 6.81597 27.4874 7.66797V9.26997ZM20.5394 8.90997C20.5514 9.44997 20.5214 9.91197 20.4494 10.296C20.3894 10.68 20.2214 10.956 19.9454 11.124C19.8014 11.208 19.6334 11.262 19.4414 11.286C19.2614 11.298 19.0814 11.28 18.9014 11.232C18.7334 11.184 18.5834 11.112 18.4514 11.016C18.3314 10.908 18.2654 10.782 18.2534 10.638C18.2294 10.482 18.2114 10.248 18.1994 9.93597C18.1994 9.62397 18.1994 9.27597 18.1994 8.89197C17.8994 8.87997 17.5394 8.86797 17.1194 8.85597C16.6994 8.83197 16.3334 8.81997 16.0214 8.81997C15.8534 8.79597 15.6854 8.77197 15.5174 8.74797C15.3494 8.71197 15.1934 8.61597 15.0494 8.45997C14.9054 8.31597 14.8334 8.10597 14.8334 7.82997C14.8334 7.57797 14.9054 7.36797 15.0494 7.19997C15.1334 7.10397 15.2354 7.03197 15.3554 6.98397C15.4874 6.93597 15.6134 6.89997 15.7334 6.87597C15.8534 6.85197 15.9554 6.83997 16.0394 6.83997C16.1354 6.83997 16.1894 6.83997 16.2014 6.83997H22.3574C22.5974 6.81597 22.8434 6.81597 23.0954 6.83997C23.3594 6.86397 23.5814 6.95997 23.7614 7.12797C23.9894 7.35597 24.1034 7.61397 24.1034 7.90197C24.1034 8.08197 24.0554 8.24997 23.9594 8.40597C23.8634 8.54997 23.7314 8.65197 23.5634 8.71197C23.3474 8.80797 23.1074 8.86797 22.8434 8.89197C22.5914 8.91597 22.3514 8.92197 22.1234 8.90997H20.5394ZM21.0074 3.40197C21.0674 3.05397 20.9954 2.76597 20.7914 2.53797C20.5994 2.29797 20.3114 2.12397 19.9274 2.01597C19.6754 1.94397 19.3874 1.90197 19.0634 1.88997C18.7514 1.86597 18.4454 1.88397 18.1454 1.94397C17.8574 2.00397 17.6054 2.11197 17.3894 2.26797C17.1734 2.41197 17.0414 2.61597 16.9934 2.87997C16.9214 3.23997 16.9994 3.55197 17.2274 3.81597C17.4674 4.07997 17.9354 4.24197 18.6314 4.30197C18.8714 4.32597 19.1174 4.33797 19.3694 4.33797C19.6214 4.33797 19.8554 4.31397 20.0714 4.26597C20.2994 4.20597 20.4914 4.12197 20.6474 4.01397C20.8154 3.89397 20.9294 3.72597 20.9894 3.50997L21.0074 3.40197Z" fill="black"/>
<path d="M37.7806 0.23397C37.9366 0.23397 38.0866 0.23997 38.2306 0.251969C38.3746 0.263969 38.5186 0.281969 38.6626 0.30597C39.1186 0.37797 39.5206 0.587969 39.8686 0.935969C40.1566 1.24797 40.3906 1.60797 40.5706 2.01597C40.7626 2.41197 40.9126 2.83197 41.0206 3.27597C41.1286 3.71997 41.2066 4.17597 41.2546 4.64397C41.3026 5.09997 41.3386 5.54397 41.3626 5.97597C41.3866 6.52797 41.3926 7.07997 41.3806 7.63197C41.3686 8.18397 41.3326 8.72997 41.2726 9.26997C41.2126 9.83397 41.1226 10.404 41.0026 10.98C40.8946 11.544 40.6906 12.054 40.3906 12.51C40.1386 12.894 39.8266 13.212 39.4546 13.464C39.0826 13.704 38.6926 13.866 38.2846 13.95C37.9126 14.022 37.5346 14.034 37.1506 13.986C36.7666 13.938 36.4006 13.812 36.0526 13.608C35.7286 13.416 35.4526 13.176 35.2246 12.888C35.0086 12.6 34.8166 12.264 34.6486 11.88C34.4086 11.304 34.2706 10.71 34.2346 10.098C34.1866 9.59397 34.1506 9.08997 34.1266 8.58597C34.1146 8.08197 34.1086 7.57797 34.1086 7.07397C34.1086 6.40197 34.1446 5.72997 34.2166 5.05797C34.2406 4.78197 34.2646 4.51197 34.2886 4.24797C34.3126 3.97197 34.3486 3.70197 34.3966 3.43797C34.4446 3.22197 34.4866 3.01797 34.5226 2.82597C34.5586 2.63397 34.6246 2.43597 34.7206 2.23197C34.8166 2.02797 34.9186 1.83597 35.0266 1.65597C35.1466 1.47597 35.2846 1.31397 35.4406 1.16997C35.7046 0.905969 35.9986 0.701969 36.3226 0.55797C36.6466 0.41397 36.9826 0.317969 37.3306 0.269969C37.4026 0.257969 37.4746 0.251969 37.5466 0.251969C37.6306 0.251969 37.7086 0.24597 37.7806 0.23397ZM46.5106 13.122C46.4866 13.266 46.4686 13.41 46.4566 13.554C46.4446 13.686 46.4146 13.824 46.3666 13.968C46.3426 14.016 46.3246 14.058 46.3126 14.094C46.3006 14.13 46.2826 14.172 46.2586 14.22C46.1746 14.388 46.0666 14.52 45.9346 14.616C45.6586 14.784 45.3526 14.826 45.0166 14.742C44.8246 14.706 44.6686 14.634 44.5486 14.526C44.4406 14.43 44.3566 14.304 44.2966 14.148C44.2486 14.004 44.2066 13.86 44.1706 13.716C44.1466 13.572 44.1346 13.446 44.1346 13.338C44.1346 13.23 44.1346 13.17 44.1346 13.158V2.26797C44.1346 2.12397 44.1346 1.96797 44.1346 1.79997C44.1346 1.63197 44.1466 1.46397 44.1706 1.29597C44.1946 1.12797 44.2306 0.971969 44.2786 0.82797C44.3266 0.683969 44.3926 0.569969 44.4766 0.48597C44.6086 0.353969 44.7466 0.275969 44.8906 0.251969C45.0346 0.215969 45.1906 0.197969 45.3586 0.197969C45.5626 0.197969 45.7486 0.257969 45.9166 0.377969C46.0966 0.485969 46.2226 0.641969 46.2946 0.845969C46.4026 1.09797 46.4626 1.36197 46.4746 1.63797C46.4866 1.91397 46.4986 2.18997 46.5106 2.46597V2.55597C46.5346 3.47997 46.5406 4.42797 46.5286 5.39997C46.5166 6.37197 46.5106 7.28997 46.5106 8.15397V12.474C46.5106 12.582 46.5106 12.69 46.5106 12.798C46.5226 12.906 46.5226 13.014 46.5106 13.122ZM37.7266 11.556C37.9546 11.556 38.1766 11.484 38.3926 11.34C38.5966 11.196 38.7406 11.004 38.8246 10.764C38.9086 10.524 38.9806 10.26 39.0406 9.97197C39.1366 9.41997 39.1906 8.83197 39.2026 8.20797C39.2146 7.58397 39.2086 6.98397 39.1846 6.40797C39.1846 6.17997 39.1786 5.93997 39.1666 5.68797C39.1546 5.42397 39.1306 5.16597 39.0946 4.91397C39.0706 4.66197 39.0286 4.42197 38.9686 4.19397C38.9086 3.95397 38.8246 3.74397 38.7166 3.56397C38.5966 3.35997 38.4526 3.20397 38.2846 3.09597C38.1166 2.98797 37.9366 2.94597 37.7446 2.96997C37.5406 2.99397 37.3546 3.06597 37.1866 3.18597C37.0186 3.30597 36.8806 3.48597 36.7726 3.72597L36.6106 4.10397C36.5386 4.33197 36.4846 4.57197 36.4486 4.82397C36.4126 5.06397 36.3826 5.30397 36.3586 5.54397C36.3346 5.78397 36.3166 6.02997 36.3046 6.28197C36.2926 6.53397 36.2866 6.77997 36.2866 7.01997C36.2986 7.25997 36.2926 7.49397 36.2686 7.72197C36.2566 7.94997 36.2626 8.18397 36.2866 8.42397C36.3106 8.73597 36.3406 9.07197 36.3766 9.43197C36.4246 9.79197 36.4966 10.134 36.5926 10.458C36.6886 10.77 36.8266 11.034 37.0066 11.25C37.1866 11.454 37.4266 11.556 37.7266 11.556Z" fill="black"/>
<path d="M59.9543 4.71597C60.1463 4.72797 60.3143 4.77597 60.4583 4.85997C60.6023 4.93197 60.7043 5.06997 60.7643 5.27397C60.8963 5.74197 60.7403 6.06597 60.2963 6.24597C60.1523 6.30597 60.0023 6.34197 59.8463 6.35397C59.7023 6.36597 59.5643 6.37197 59.4323 6.37197H51.2063C50.9663 6.37197 50.7143 6.37197 50.4503 6.37197C50.1983 6.37197 49.9403 6.36597 49.6763 6.35397C49.4243 6.32997 49.2083 6.23397 49.0283 6.06597C48.8603 5.88597 48.7643 5.65197 48.7403 5.36397C48.7163 5.14797 48.7043 4.92597 48.7043 4.69797C48.7043 4.45797 48.7043 4.25397 48.7043 4.08597C48.7043 4.06197 48.6983 4.03197 48.6863 3.99597C48.6863 3.95997 48.6863 3.92997 48.6863 3.90597C48.6863 3.77397 48.6923 3.61197 48.7043 3.41997C48.7163 3.21597 48.7763 3.04797 48.8843 2.91597C49.0523 2.72397 49.2743 2.60997 49.5503 2.57397C49.8263 2.52597 50.0963 2.50197 50.3603 2.50197H57.0383C57.2543 2.50197 57.4223 2.50197 57.5423 2.50197C57.6623 2.50197 57.7703 2.50197 57.8663 2.50197C57.9623 2.50197 58.0583 2.50197 58.1543 2.50197C58.2503 2.50197 58.3703 2.50197 58.5143 2.50197C58.5143 2.47797 58.5143 2.42997 58.5143 2.35797C58.5263 2.27397 58.5323 2.19597 58.5323 2.12397C58.5443 2.03997 58.5503 1.96797 58.5503 1.90797C58.5503 1.83597 58.5383 1.79997 58.5143 1.79997H50.8103C50.7503 1.79997 50.6843 1.79997 50.6123 1.79997C50.5523 1.78797 50.4863 1.78797 50.4143 1.79997H49.9823C49.8623 1.79997 49.7543 1.79997 49.6583 1.79997C49.5623 1.79997 49.4663 1.78797 49.3703 1.76397C49.2623 1.73997 49.1603 1.70397 49.0643 1.65597C48.9683 1.59597 48.8903 1.51797 48.8303 1.42197C48.7823 1.31397 48.7523 1.19997 48.7403 1.07997C48.7403 0.95997 48.7403 0.84597 48.7403 0.73797C48.7403 0.62997 48.7703 0.527969 48.8303 0.431969C48.9023 0.335969 48.9803 0.257969 49.0643 0.197969C49.1603 0.137969 49.2563 0.101969 49.3523 0.0899694C49.4483 0.0779696 49.5563 0.0599694 49.6763 0.035969C49.7723 0.0119693 49.8683 0.00596941 49.9643 0.0179693C50.0603 0.0299691 50.1563 0.0299691 50.2523 0.0179693C50.3603 0.00596941 50.4623 -3.05176e-05 50.5583 -3.05176e-05C50.6663 -3.05176e-05 50.7743 -3.05176e-05 50.8823 -3.05176e-05C51.2543 0.0119693 51.7283 0.0179693 52.3043 0.0179693C52.8803 0.00596941 53.4383 -3.05176e-05 53.9783 -3.05176e-05H58.8923C59.5043 -3.05176e-05 59.9723 0.10197 60.2963 0.30597C60.6203 0.49797 60.7823 0.821969 60.7823 1.27797V2.53797C60.7823 2.64597 60.7823 2.76597 60.7823 2.89797C60.7943 3.01797 60.7883 3.14397 60.7643 3.27597C60.7523 3.39597 60.7223 3.50997 60.6743 3.61797C60.6263 3.72597 60.5483 3.80997 60.4403 3.86997C60.2603 3.96597 60.0503 4.01997 59.8103 4.03197C59.5823 4.03197 59.3663 4.03197 59.1623 4.03197H50.9003V4.69797H59.3603C59.4563 4.69797 59.5523 4.69797 59.6483 4.69797C59.7563 4.69797 59.8583 4.70397 59.9543 4.71597ZM49.2623 14.454C49.2503 14.454 49.2323 14.442 49.2083 14.418C49.0883 14.322 49.0043 14.19 48.9563 14.022C48.9203 13.854 48.9023 13.704 48.9023 13.572C48.8903 13.356 48.8723 13.14 48.8483 12.924C48.8363 12.708 48.8303 12.498 48.8303 12.294C48.8303 11.982 48.8303 11.7 48.8303 11.448C48.8303 11.196 48.8603 10.92 48.9203 10.62C48.9563 10.428 49.0163 10.278 49.1003 10.17C49.1843 10.05 49.3163 9.95397 49.4963 9.88197C49.8323 9.74997 50.1683 9.68397 50.5043 9.68397H58.8023C59.0303 9.69597 59.2643 9.71397 59.5043 9.73797C59.7443 9.76197 59.9723 9.82197 60.1883 9.91797C60.4283 10.014 60.5843 10.152 60.6563 10.332C60.7403 10.5 60.7943 10.704 60.8183 10.944C60.8303 11.148 60.8363 11.382 60.8363 11.646C60.8483 11.91 60.8483 12.18 60.8363 12.456C60.8243 12.72 60.8063 12.984 60.7823 13.248C60.7583 13.512 60.7163 13.752 60.6563 13.968C60.6203 14.1 60.5783 14.214 60.5303 14.31C60.4823 14.418 60.3863 14.496 60.2423 14.544C60.1103 14.592 59.9723 14.622 59.8283 14.634C59.6963 14.646 59.5643 14.652 59.4323 14.652L50.2343 14.616C50.0783 14.604 49.9103 14.598 49.7303 14.598C49.5503 14.598 49.3943 14.55 49.2623 14.454ZM59.5403 7.01997C59.7443 7.01997 59.9603 7.01997 60.1883 7.01997C60.4283 7.00797 60.6443 7.03197 60.8363 7.09197C61.0403 7.13997 61.2023 7.24197 61.3223 7.39797C61.4543 7.55397 61.5203 7.79397 61.5203 8.11797C61.5203 8.40597 61.4003 8.65797 61.1603 8.87397C60.9683 9.04197 60.7343 9.13797 60.4583 9.16197C60.1943 9.17397 59.9423 9.17397 59.7023 9.16197C59.6423 9.14997 59.5883 9.14397 59.5403 9.14397C59.4923 9.14397 59.4383 9.14397 59.3783 9.14397H49.4603C49.4483 9.14397 49.3943 9.14397 49.2983 9.14397C49.2023 9.14397 49.0883 9.13197 48.9563 9.10797C48.8363 9.08397 48.7103 9.05397 48.5783 9.01797C48.4463 8.96997 48.3383 8.89797 48.2543 8.80197C48.1103 8.64597 48.0383 8.43597 48.0383 8.17197C48.0383 7.91997 48.1163 7.71597 48.2723 7.55997C48.4283 7.41597 48.5903 7.29597 48.7583 7.19997C48.9263 7.10397 49.1003 7.04397 49.2803 7.01997C49.3163 7.01997 49.3523 7.02597 49.3883 7.03797C49.4243 7.03797 49.4603 7.03197 49.4963 7.01997C49.6643 6.99597 49.8443 6.99597 50.0363 7.01997C50.2283 7.03197 50.4263 7.03197 50.6303 7.01997C51.2543 6.99597 51.8843 6.98997 52.5203 7.00197C53.1683 7.01397 53.8403 7.01997 54.5363 7.01997C55.2923 7.01997 56.0963 7.01397 56.9483 7.00197C57.8003 6.98997 58.6343 6.99597 59.4503 7.01997H59.5403ZM50.9723 12.402C50.9723 12.462 50.9723 12.522 50.9723 12.582C50.9843 12.642 51.0083 12.684 51.0443 12.708C51.0683 12.732 51.1043 12.75 51.1523 12.762C51.2123 12.762 51.2723 12.762 51.3323 12.762C51.3923 12.762 51.4643 12.756 51.5483 12.744H57.0023C57.1703 12.756 57.3323 12.768 57.4883 12.78C57.6203 12.792 57.7583 12.798 57.9023 12.798C58.0463 12.798 58.1783 12.786 58.2983 12.762C58.4183 12.75 58.4903 12.714 58.5143 12.654C58.5383 12.594 58.5563 12.51 58.5683 12.402C58.5803 12.306 58.5863 12.198 58.5863 12.078C58.5863 11.946 58.5503 11.832 58.4783 11.736C58.3943 11.64 58.2743 11.592 58.1183 11.592C57.9743 11.58 57.8423 11.58 57.7223 11.592H52.8983C52.6343 11.568 52.3763 11.562 52.1243 11.574C51.8723 11.574 51.6143 11.58 51.3503 11.592C51.2543 11.592 51.1763 11.598 51.1163 11.61C51.0683 11.61 51.0323 11.664 51.0083 11.772C50.9843 11.856 50.9723 11.94 50.9723 12.024C50.9723 12.096 50.9723 12.168 50.9723 12.24C50.9843 12.264 50.9843 12.288 50.9723 12.312C50.9723 12.336 50.9723 12.366 50.9723 12.402Z" fill="black"/>
</svg>
