<svg width="21" height="12" viewBox="0 0 21 12" fill="none" xmlns="http://www.w3.org/2000/svg">
<path d="M10.0996 9.97999C10.1096 10.04 10.1146 10.1 10.1146 10.16C10.1246 10.21 10.1296 10.27 10.1296 10.34C10.1296 10.46 10.0946 10.57 10.0246 10.67C9.99461 10.72 9.9546 10.77 9.9046 10.82C9.8546 10.86 9.7946 10.895 9.7246 10.925C9.4746 11.065 9.20961 11.115 8.92961 11.075C8.7896 11.035 8.6646 10.97 8.5546 10.88C8.5346 10.86 8.5196 10.85 8.5096 10.85C8.4996 10.84 8.4896 10.825 8.4796 10.805C8.4696 10.795 8.4596 10.785 8.4496 10.775C8.4396 10.755 8.4246 10.74 8.4046 10.73C8.3546 10.68 8.3146 10.635 8.2846 10.595C8.2546 10.545 8.22461 10.495 8.1946 10.445C8.1746 10.395 8.1496 10.35 8.11961 10.31C8.0996 10.26 8.0746 10.21 8.04461 10.16C8.0246 10.12 8.0046 10.085 7.9846 10.055C7.9646 10.015 7.9496 9.97499 7.9396 9.93499C7.8996 9.84499 7.8746 9.76499 7.8646 9.69499L7.5496 8.95999C6.8596 8.95999 6.1696 8.96499 5.4796 8.97499C4.7996 8.97499 4.1146 8.96999 3.4246 8.95999L3.1096 9.69499C3.0896 9.73499 3.0746 9.77499 3.0646 9.81499C3.0646 9.85499 3.0546 9.89499 3.0346 9.93499C3.0146 9.97499 2.9946 10.015 2.9746 10.055C2.9646 10.085 2.9496 10.12 2.9296 10.16C2.8996 10.21 2.8696 10.26 2.8396 10.31C2.8196 10.35 2.7946 10.395 2.7646 10.445C2.7446 10.495 2.7196 10.545 2.6896 10.595C2.6596 10.635 2.6196 10.68 2.5696 10.73C2.5496 10.74 2.5346 10.755 2.5246 10.775C2.5146 10.785 2.5046 10.795 2.4946 10.805C2.4846 10.825 2.4746 10.84 2.4646 10.85C2.4546 10.85 2.4396 10.86 2.4196 10.88C2.3096 10.97 2.1846 11.035 2.0446 11.075C1.7646 11.115 1.4996 11.065 1.2496 10.925C1.1796 10.895 1.1196 10.86 1.0696 10.82C1.0196 10.77 0.979604 10.72 0.949604 10.67C0.879604 10.57 0.844604 10.46 0.844604 10.34C0.844604 10.27 0.844604 10.21 0.844604 10.16C0.854604 10.1 0.864604 10.04 0.874604 9.97999C0.894605 9.88999 0.919604 9.79999 0.949604 9.70999C0.979604 9.61999 0.994604 9.57499 0.994604 9.57499L4.1146 1.89499L4.2046 1.65499C4.2246 1.59499 4.2496 1.53999 4.2796 1.48999C4.3096 1.43999 4.3346 1.37999 4.3546 1.30999C4.4046 1.17999 4.4596 1.06499 4.5196 0.96499C4.5496 0.90499 4.5846 0.84999 4.6246 0.79999C4.6646 0.749989 4.7046 0.699989 4.7446 0.649989C4.8046 0.56999 4.8896 0.50499 4.9996 0.45499C5.1396 0.40499 5.2996 0.37999 5.4796 0.37999C5.6696 0.37999 5.83461 0.40499 5.97461 0.45499C6.0846 0.50499 6.1696 0.56999 6.2296 0.649989C6.2996 0.739989 6.3746 0.844989 6.45461 0.96499C6.5146 1.06499 6.5696 1.17999 6.6196 1.30999C6.6396 1.37999 6.6646 1.43999 6.6946 1.48999C6.7246 1.53999 6.74961 1.59499 6.76961 1.65499L6.8596 1.89499L9.9796 9.57499C9.9796 9.57499 9.99461 9.61999 10.0246 9.70999C10.0546 9.79999 10.0796 9.88999 10.0996 9.97999ZM6.5446 6.30499C6.4146 6.01499 6.2796 5.71499 6.1396 5.40499C6.0096 5.09499 5.8696 4.77999 5.7196 4.45999C5.6796 4.36999 5.6396 4.27999 5.5996 4.18999C5.5596 4.08999 5.5196 3.99499 5.4796 3.90499C5.4496 3.99499 5.4146 4.08999 5.3746 4.18999C5.3346 4.27999 5.2946 4.36999 5.2546 4.45999C5.1046 4.77999 4.9596 5.09499 4.8196 5.40499C4.6896 5.71499 4.5596 6.01499 4.4296 6.30499L4.1596 6.96499H6.8146L6.5446 6.30499Z" fill="black"/>
<path d="M20.0479 8.47999C20.1779 8.76999 20.1829 9.05499 20.0629 9.33499C19.9429 9.60499 19.7529 9.85499 19.4929 10.085C19.2329 10.315 18.9329 10.515 18.5929 10.685C18.2629 10.855 17.9479 10.975 17.6479 11.045C17.3179 11.115 16.9679 11.145 16.5979 11.135C16.2379 11.135 15.8729 11.09 15.5029 11C15.1429 10.92 14.7879 10.8 14.4379 10.64C14.0979 10.47 13.7829 10.265 13.4929 10.025C13.1429 9.73499 12.8679 9.38999 12.6679 8.98999C12.4779 8.57999 12.3379 8.14499 12.2479 7.68499C12.1579 7.22499 12.1079 6.76499 12.0979 6.30499C12.0979 5.83499 12.1129 5.39499 12.1429 4.98499C12.1729 4.61499 12.2479 4.22999 12.3679 3.82999C12.4879 3.42999 12.6529 3.03999 12.8629 2.65999C13.0829 2.26999 13.3429 1.90999 13.6429 1.57999C13.9529 1.24999 14.3129 0.96999 14.7229 0.73999C15.0329 0.55999 15.3779 0.43999 15.7579 0.37999C16.1479 0.30999 16.5379 0.29499 16.9279 0.33499C17.3279 0.36499 17.7029 0.44999 18.0529 0.58999C18.4129 0.719989 18.7179 0.899989 18.9679 1.12999C19.1279 1.26999 19.2929 1.46499 19.4629 1.71499C19.6429 1.96499 19.7729 2.21999 19.8529 2.47999C19.9329 2.73999 19.9329 2.98499 19.8529 3.21499C19.7829 3.43499 19.5829 3.58499 19.2529 3.66499C19.1129 3.70499 18.9879 3.71499 18.8779 3.69499C18.7679 3.66499 18.6679 3.61999 18.5779 3.55999C18.4879 3.48999 18.4029 3.40999 18.3229 3.31999C18.2429 3.22999 18.1679 3.13999 18.0979 3.04999C17.8579 2.75999 17.5779 2.56499 17.2579 2.46499C16.9379 2.35499 16.6179 2.32999 16.2979 2.38999C15.9879 2.43999 15.6929 2.56999 15.4129 2.77999C15.1429 2.97999 14.9329 3.23999 14.7829 3.55999C14.6229 3.89999 14.4929 4.27499 14.3929 4.68499C14.3029 5.08499 14.2529 5.49499 14.2429 5.91499C14.2329 6.32499 14.2679 6.72499 14.3479 7.11499C14.4379 7.50499 14.5879 7.84999 14.7979 8.14999C14.9579 8.38999 15.1529 8.58499 15.3829 8.73499C15.6229 8.88499 15.8779 8.98999 16.1479 9.04999C16.4179 9.10999 16.6879 9.11999 16.9579 9.07999C17.2379 9.03999 17.5079 8.94999 17.7679 8.80999C17.8479 8.76999 17.9329 8.71499 18.0229 8.64499C18.1229 8.56499 18.2229 8.48499 18.3229 8.40499C18.4229 8.32499 18.5229 8.24999 18.6229 8.17999C18.7329 8.10999 18.8479 8.05999 18.9679 8.02999C19.1479 7.96999 19.3429 7.97499 19.5529 8.04499C19.7729 8.11499 19.9379 8.25999 20.0479 8.47999Z" fill="black"/>
</svg>
