<svg width="25" height="14" viewBox="0 0 25 14" fill="none" xmlns="http://www.w3.org/2000/svg">
<path d="M1.125 6.62498C1.355 6.62498 1.62 6.62998 1.92 6.63998C2.22 6.64998 2.54 6.65998 2.88 6.66998C2.89 6.57998 2.895 6.48998 2.895 6.39998C2.895 6.30998 2.895 6.21498 2.895 6.11498C2.795 6.08498 2.685 6.04498 2.565 5.99498C2.315 5.89498 2.08 5.77998 1.86 5.64998C1.64 5.51998 1.45 5.36998 1.29 5.19998C1.13 5.02998 1 4.82998 0.9 4.59998C0.81 4.36998 0.765 4.10498 0.765 3.80498C0.765 3.45498 0.815 3.14998 0.915 2.88998H0.885C0.645 2.88998 0.435 2.81498 0.255 2.66498C0.085 2.50498 0 2.30998 0 2.07998C0 1.85997 0.085 1.67497 0.255 1.52498C0.435 1.36498 0.645 1.28498 0.885 1.28498H2.865V0.789976C2.865 0.599975 2.95 0.439975 3.12 0.309976C3.29 0.169976 3.495 0.0999756 3.735 0.0999756C3.975 0.0999756 4.18 0.169976 4.35 0.309976C4.53 0.439975 4.62 0.599975 4.62 0.789976V1.28498H6.69C6.94 1.28498 7.15 1.36498 7.32 1.52498C7.5 1.67497 7.59 1.85997 7.59 2.07998C7.59 2.30998 7.5 2.50498 7.32 2.66498C7.15 2.81498 6.94 2.88998 6.69 2.88998H6.675C6.725 3.02998 6.76 3.17498 6.78 3.32498C6.81 3.47498 6.825 3.63498 6.825 3.80498C6.825 4.22498 6.73 4.57998 6.54 4.86998C6.36 5.14998 6.095 5.41498 5.745 5.66498C5.475 5.86498 5.19 6.01498 4.89 6.11498V6.12998C4.88 6.23998 4.875 6.33998 4.875 6.42998C4.875 6.51998 4.87 6.60998 4.86 6.69998C4.98 6.69998 5.08 6.69998 5.16 6.69998C5.24 6.68998 5.325 6.68498 5.415 6.68498C5.505 6.67498 5.615 6.66998 5.745 6.66998C5.875 6.66998 6.055 6.67498 6.285 6.68498C6.475 6.68498 6.66 6.68498 6.84 6.68498C7.02 6.68498 7.195 6.72498 7.365 6.80498C7.645 6.93498 7.785 7.15498 7.785 7.46498C7.785 7.71498 7.695 7.93998 7.515 8.13998C7.375 8.28998 7.2 8.37498 6.99 8.39498C6.79 8.41498 6.6 8.41498 6.42 8.39498H1.125C1.115 8.39498 1.075 8.39498 1.005 8.39498C0.935 8.39498 0.85 8.38498 0.75 8.36498C0.66 8.34498 0.565 8.31498 0.465 8.27498C0.365 8.22498 0.285 8.15498 0.225 8.06498C0.105 7.94498 0.045 7.76998 0.045 7.53998C0.045 7.42998 0.06 7.33998 0.09 7.26998C0.13 7.18998 0.175 7.11498 0.225 7.04498C0.335 6.91498 0.48 6.81998 0.66 6.75998C0.84 6.68998 0.995 6.64498 1.125 6.62498ZM1.635 11.05V11.035C1.625 11.035 1.585 11.025 1.515 11.005C1.455 10.985 1.385 10.955 1.305 10.915C1.225 10.875 1.145 10.82 1.065 10.75C0.995 10.68 0.955 10.59 0.945 10.48C0.895 10.09 0.955 9.78998 1.125 9.57998C1.245 9.43998 1.375 9.35998 1.515 9.33998C1.655 9.30998 1.73 9.29498 1.74 9.29498L9.39 9.27998C9.81 9.27998 10.11 9.36498 10.29 9.53498C10.48 9.69498 10.585 9.95498 10.605 10.315V11.875C10.625 12.095 10.625 12.315 10.605 12.535C10.585 12.745 10.5 12.915 10.35 13.045C10.21 13.175 10.025 13.24 9.795 13.24C9.745 13.24 9.655 13.235 9.525 13.225C9.405 13.225 9.32 13.215 9.27 13.195C9.13 13.155 9.02 13.095 8.94 13.015C8.87 12.935 8.815 12.845 8.775 12.745C8.735 12.645 8.71 12.54 8.7 12.43C8.69 12.31 8.68 12.195 8.67 12.085C8.67 12.045 8.665 11.975 8.655 11.875C8.655 11.775 8.65 11.675 8.64 11.575C8.64 11.465 8.635 11.365 8.625 11.275C8.625 11.175 8.62 11.105 8.61 11.065C8.59 11.065 8.525 11.065 8.415 11.065C8.305 11.065 8.165 11.065 7.995 11.065C7.835 11.065 7.655 11.065 7.455 11.065C7.255 11.055 7.065 11.05 6.885 11.05H1.635ZM8.76 2.79998C8.76 2.68998 8.76 2.56498 8.76 2.42498C8.76 2.28498 8.765 2.14998 8.775 2.01997C8.795 1.87997 8.825 1.74998 8.865 1.62998C8.905 1.50998 8.955 1.41998 9.015 1.35998C9.125 1.25998 9.235 1.19998 9.345 1.17998C9.465 1.14998 9.595 1.13498 9.735 1.13498C9.905 1.13498 10.055 1.18498 10.185 1.28498C10.325 1.37498 10.425 1.49498 10.485 1.64498C10.565 1.85498 10.61 2.06998 10.62 2.28998C10.63 2.50998 10.64 2.72998 10.65 2.94998C10.65 3.28998 10.65 3.60998 10.65 3.90998C10.66 4.20998 10.665 4.50498 10.665 4.79498C10.865 4.79498 11.05 4.79998 11.22 4.80998C11.4 4.80998 11.545 4.81498 11.655 4.82498C11.785 4.83498 11.9 4.88498 12 4.97498C12.11 5.06498 12.195 5.17498 12.255 5.30498C12.315 5.42498 12.345 5.55498 12.345 5.69498C12.345 5.83498 12.305 5.95498 12.225 6.05498C12.085 6.24498 11.87 6.36998 11.58 6.42998C11.3 6.47998 11 6.50498 10.68 6.50498V6.98498C10.68 7.19498 10.665 7.35998 10.635 7.47998C10.605 7.58998 10.57 7.69998 10.53 7.80998C10.52 7.83998 10.51 7.86998 10.5 7.89998C10.49 7.92998 10.475 7.96498 10.455 8.00498C10.385 8.14498 10.295 8.24998 10.185 8.31998C10.075 8.38998 9.955 8.43498 9.825 8.45498C9.705 8.46498 9.58 8.45998 9.45 8.43998C9.31 8.39998 9.19 8.33998 9.09 8.25998C9 8.17998 8.93 8.07998 8.88 7.95998C8.84 7.82998 8.81 7.70998 8.79 7.59998C8.77 7.47998 8.76 7.37998 8.76 7.29998C8.76 7.20998 8.76 7.15998 8.76 7.14998V2.79998ZM4.065 4.61498C4.205 4.58498 4.335 4.55998 4.455 4.53998C4.575 4.51998 4.675 4.48498 4.755 4.43498C4.845 4.37498 4.91 4.29998 4.95 4.20998C5 4.10998 5.025 3.97498 5.025 3.80498C5.025 3.48498 4.935 3.25998 4.755 3.12998C4.575 2.99998 4.36 2.91998 4.11 2.88998H3.33C3.11 2.91998 2.925 2.99998 2.775 3.12998C2.625 3.25998 2.55 3.48498 2.55 3.80498C2.55 4.04498 2.59 4.22998 2.67 4.35998C2.76 4.48998 2.875 4.57998 3.015 4.62998C3.165 4.67998 3.33 4.69998 3.51 4.68998C3.69 4.66998 3.875 4.64498 4.065 4.61498Z" fill="white"/>
<path d="M18.4999 1.44998C19.1099 1.79998 19.5449 2.24998 19.8049 2.79998C19.9349 3.06998 20.0199 3.36998 20.0599 3.69998C20.0999 4.02998 20.1099 4.39998 20.0899 4.80998C20.0599 5.25998 19.9599 5.66498 19.7899 6.02498C19.6199 6.38498 19.3949 6.69498 19.1149 6.95498C18.8449 7.20498 18.5249 7.39998 18.1549 7.53998C17.7849 7.66998 17.3899 7.73498 16.9699 7.73498H16.2049C16.1049 7.73498 16.0049 7.73498 15.9049 7.73498C15.8049 7.72498 15.6999 7.70998 15.5899 7.68998C15.4799 7.68998 15.3749 7.67498 15.2749 7.64498C15.1749 7.61498 15.0699 7.58998 14.9599 7.56998C14.8499 7.51998 14.7399 7.46498 14.6299 7.40498C14.5299 7.34498 14.4099 7.27498 14.2699 7.19498C13.8099 6.89498 13.4899 6.48998 13.3099 5.97998C13.2299 5.74998 13.1699 5.50498 13.1299 5.24498C13.0899 4.98498 13.0699 4.72998 13.0699 4.47998C13.0699 4.20998 13.0899 3.94998 13.1299 3.69998C13.1799 3.44998 13.2599 3.20998 13.3699 2.97998C13.4499 2.73998 13.5699 2.52998 13.7299 2.34998C13.8899 2.15998 14.0699 1.97998 14.2699 1.80998C14.4499 1.65998 14.6349 1.53498 14.8249 1.43498C15.0149 1.32498 15.2249 1.23997 15.4549 1.17998C15.6549 1.09997 15.8699 1.04997 16.0999 1.02998C16.3299 1.00998 16.5499 1.00998 16.7599 1.02998C16.8699 1.05998 16.9599 1.07998 17.0299 1.08998C17.1099 1.08998 17.1849 1.08998 17.2549 1.08998C17.3349 1.10998 17.4049 1.12498 17.4649 1.13498C17.5349 1.13498 17.5999 1.14998 17.6599 1.17998C17.7299 1.19998 17.7949 1.21998 17.8549 1.23998C17.9249 1.24998 17.9899 1.26998 18.0499 1.29998C18.1099 1.31998 18.1799 1.34497 18.2599 1.37498C18.3399 1.40498 18.4199 1.42998 18.4999 1.44998ZM23.5099 11.29C23.6499 11.29 23.7649 11.35 23.8549 11.47C23.9449 11.59 24.0049 11.735 24.0349 11.905C24.0549 12.105 24.0449 12.27 24.0049 12.4C23.9649 12.52 23.9049 12.635 23.8249 12.745C23.6749 12.875 23.5449 12.955 23.4349 12.985C23.3849 12.985 23.3399 12.995 23.2999 13.015C23.2599 13.035 23.2049 13.045 23.1349 13.045H15.7999C15.5899 13.045 15.4049 13.04 15.2449 13.03C15.0949 13.02 14.9599 12.985 14.8399 12.925C14.7299 12.865 14.6399 12.775 14.5699 12.655C14.5099 12.545 14.4799 12.435 14.4799 12.325V9.23498C14.5399 9.01498 14.6399 8.84998 14.7799 8.73998C14.8899 8.66998 14.9899 8.61998 15.0799 8.58998C15.1799 8.54998 15.2899 8.52998 15.4099 8.52998C15.4299 8.52998 15.4899 8.53998 15.5899 8.55998C15.6999 8.56998 15.7699 8.57498 15.7999 8.57498C15.8599 8.59498 15.9149 8.61998 15.9649 8.64998C16.0249 8.66998 16.0799 8.71498 16.1299 8.78498C16.1499 8.82498 16.1749 8.86998 16.2049 8.91998C16.2349 8.95998 16.2599 9.00998 16.2799 9.06998C16.3099 9.13998 16.3249 9.20498 16.3249 9.26498C16.3349 9.32498 16.3499 9.38498 16.3699 9.44498V11.245H16.6699C16.7299 11.255 16.7999 11.26 16.8799 11.26C16.9499 11.27 17.0249 11.275 17.1049 11.275C17.1849 11.275 17.2749 11.275 17.3749 11.275C17.4349 11.275 17.5849 11.275 17.8249 11.275C18.0749 11.275 18.3699 11.275 18.7099 11.275C19.0599 11.265 19.4399 11.26 19.8499 11.26C20.2599 11.26 20.6499 11.26 21.0199 11.26C21.3999 11.26 21.7399 11.265 22.0399 11.275C22.3499 11.275 22.5799 11.275 22.7299 11.275H23.1049C23.1249 11.275 23.1699 11.28 23.2399 11.29C23.3099 11.29 23.3999 11.29 23.5099 11.29ZM18.2899 4.34498C18.2699 4.23498 18.2499 4.13998 18.2299 4.05998C18.2099 3.96998 18.1899 3.87998 18.1699 3.78998C18.1199 3.70998 18.0749 3.62998 18.0349 3.54997C17.9949 3.46998 17.9399 3.39998 17.8699 3.33997C17.8099 3.27998 17.7399 3.22998 17.6599 3.18998C17.5799 3.13998 17.4849 3.08998 17.3749 3.03998C17.2449 3.00997 17.1199 2.98498 16.9999 2.96498C16.8799 2.93498 16.7549 2.91998 16.6249 2.91998C16.4849 2.91998 16.3499 2.93498 16.2199 2.96498C16.0899 2.98498 15.9699 3.00997 15.8599 3.03998C15.7399 3.10998 15.6249 3.17998 15.5149 3.24998C15.4149 3.31998 15.3249 3.40998 15.2449 3.51998C15.1449 3.59998 15.0699 3.70498 15.0199 3.83498C14.9699 3.95498 14.9199 4.09998 14.8699 4.26998C14.8699 4.37998 14.8699 4.48498 14.8699 4.58498C14.8699 4.68498 14.8799 4.78998 14.8999 4.89998C14.8999 4.99998 14.9199 5.09998 14.9599 5.19998C14.9999 5.29998 15.0499 5.38998 15.1099 5.46998C15.1799 5.55998 15.2549 5.63998 15.3349 5.70998C15.4149 5.76998 15.4999 5.82998 15.5899 5.88998C15.6999 5.94998 15.8149 6.00498 15.9349 6.05498C16.0549 6.09498 16.1999 6.12498 16.3699 6.14498C16.4799 6.14498 16.5849 6.14498 16.6849 6.14498C16.7849 6.13498 16.8899 6.11998 16.9999 6.09998C17.1999 6.09998 17.3949 6.04498 17.5849 5.93498C17.6649 5.89498 17.7449 5.84498 17.8249 5.78498C17.9149 5.71498 17.9899 5.63998 18.0499 5.55998C18.1799 5.37998 18.2599 5.18498 18.2899 4.97498V4.34498ZM23.9449 7.40498C23.9449 7.50498 23.9349 7.60498 23.9149 7.70498C23.8949 7.80498 23.8749 7.90998 23.8549 8.01998C23.7649 8.33998 23.5549 8.53498 23.2249 8.60498C22.9049 8.67498 22.6449 8.60498 22.4449 8.39498C22.2549 8.18498 22.1399 7.93498 22.0999 7.64498C22.0799 7.56498 22.0649 7.48498 22.0549 7.40498C22.0549 7.31498 22.0549 7.22998 22.0549 7.14998V6.63998L22.0999 2.76998C22.0999 2.62998 22.0949 2.47998 22.0849 2.31998C22.0849 2.14998 22.0949 1.98998 22.1149 1.83998C22.1449 1.67998 22.1999 1.53498 22.2799 1.40497C22.3599 1.27498 22.4849 1.16998 22.6549 1.08998C22.7349 1.03998 22.8199 1.01498 22.9099 1.01498C23.0099 1.00498 23.1149 1.00998 23.2249 1.02998C23.4549 1.05998 23.6249 1.15498 23.7349 1.31498C23.8549 1.47498 23.9249 1.65998 23.9449 1.86998V7.40498Z" fill="white"/>
</svg>
