<svg width="27" height="12" viewBox="0 0 27 12" fill="none" xmlns="http://www.w3.org/2000/svg">
<path d="M8.12407 8.47999C8.25407 8.76999 8.25907 9.05499 8.13907 9.33499C8.01907 9.60499 7.82907 9.85499 7.56907 10.085C7.30907 10.315 7.00907 10.515 6.66907 10.685C6.33907 10.855 6.02407 10.975 5.72407 11.045C5.39407 11.115 5.04407 11.145 4.67407 11.135C4.31407 11.135 3.94907 11.09 3.57907 11C3.21907 10.92 2.86407 10.8 2.51407 10.64C2.17407 10.47 1.85907 10.265 1.56907 10.025C1.21907 9.73499 0.944072 9.38999 0.744072 8.98999C0.554072 8.57999 0.414072 8.14499 0.324072 7.68499C0.234072 7.22499 0.184072 6.76499 0.174072 6.30499C0.174072 5.83499 0.189072 5.39499 0.219072 4.98499C0.249072 4.61499 0.324072 4.22999 0.444072 3.82999C0.564072 3.42999 0.729072 3.03999 0.939072 2.65999C1.15907 2.26999 1.41907 1.90999 1.71907 1.57999C2.02907 1.24999 2.38907 0.96999 2.79907 0.73999C3.10907 0.55999 3.45407 0.43999 3.83407 0.37999C4.22407 0.30999 4.61407 0.29499 5.00407 0.33499C5.40407 0.36499 5.77907 0.44999 6.12907 0.58999C6.48907 0.719989 6.79407 0.899989 7.04407 1.12999C7.20407 1.26999 7.36907 1.46499 7.53907 1.71499C7.71907 1.96499 7.84907 2.21999 7.92907 2.47999C8.00907 2.73999 8.00907 2.98499 7.92907 3.21499C7.85907 3.43499 7.65907 3.58499 7.32907 3.66499C7.18907 3.70499 7.06407 3.71499 6.95407 3.69499C6.84407 3.66499 6.74407 3.61999 6.65407 3.55999C6.56407 3.48999 6.47907 3.40999 6.39907 3.31999C6.31907 3.22999 6.24407 3.13999 6.17407 3.04999C5.93407 2.75999 5.65407 2.56499 5.33407 2.46499C5.01407 2.35499 4.69407 2.32999 4.37407 2.38999C4.06407 2.43999 3.76907 2.56999 3.48907 2.77999C3.21907 2.97999 3.00907 3.23999 2.85907 3.55999C2.69907 3.89999 2.56907 4.27499 2.46907 4.68499C2.37907 5.08499 2.32907 5.49499 2.31907 5.91499C2.30907 6.32499 2.34407 6.72499 2.42407 7.11499C2.51407 7.50499 2.66407 7.84999 2.87407 8.14999C3.03407 8.38999 3.22907 8.58499 3.45907 8.73499C3.69907 8.88499 3.95407 8.98999 4.22407 9.04999C4.49407 9.10999 4.76407 9.11999 5.03407 9.07999C5.31407 9.03999 5.58407 8.94999 5.84407 8.80999C5.92407 8.76999 6.00907 8.71499 6.09907 8.64499C6.19907 8.56499 6.29907 8.48499 6.39907 8.40499C6.49907 8.32499 6.59907 8.24999 6.69907 8.17999C6.80907 8.10999 6.92407 8.05999 7.04407 8.02999C7.22407 7.96999 7.41907 7.97499 7.62907 8.04499C7.84907 8.11499 8.01407 8.25999 8.12407 8.47999Z" fill="black"/>
<path d="M17.9215 10.34C17.9315 10.44 17.9215 10.535 17.8915 10.625C17.8715 10.685 17.8415 10.735 17.8015 10.775C17.7715 10.815 17.7315 10.855 17.6815 10.895C17.5915 10.955 17.4815 11.01 17.3515 11.06C17.2715 11.08 17.1915 11.095 17.1115 11.105C17.0415 11.125 16.9665 11.125 16.8865 11.105C16.7265 11.095 16.5865 11.035 16.4665 10.925C16.2965 10.785 16.1565 10.63 16.0465 10.46C15.9965 10.38 15.9415 10.29 15.8815 10.19C15.8215 10.09 15.7665 9.98499 15.7165 9.87499L14.0515 6.70999C13.9715 6.70999 13.8915 6.71499 13.8115 6.72499C13.7315 6.72499 13.6515 6.72999 13.5715 6.73999C13.3615 6.75999 13.1615 6.76499 12.9715 6.75499C12.7915 6.74499 12.6015 6.74499 12.4015 6.75499H12.1165V9.46999C12.1165 9.54999 12.1115 9.62499 12.1015 9.69499C12.1015 9.76499 12.1015 9.83999 12.1015 9.91999C12.1015 9.96999 12.0965 10.035 12.0865 10.115C12.0865 10.195 12.0815 10.27 12.0715 10.34C12.0515 10.45 12.0065 10.565 11.9365 10.685C11.8665 10.795 11.7715 10.89 11.6515 10.97C11.4415 11.1 11.1865 11.135 10.8865 11.075C10.7565 11.045 10.6315 10.995 10.5115 10.925C10.4715 10.895 10.4365 10.86 10.4065 10.82C10.3765 10.77 10.3515 10.72 10.3315 10.67C10.3115 10.62 10.2915 10.57 10.2715 10.52C10.2615 10.46 10.2465 10.405 10.2265 10.355C10.1965 10.255 10.1815 10.16 10.1815 10.07V1.54999C10.1815 1.48999 10.1815 1.42999 10.1815 1.36999C10.1915 1.29999 10.2015 1.23999 10.2115 1.18999C10.2215 1.07999 10.2565 0.969989 10.3165 0.859989C10.3465 0.739989 10.3965 0.65499 10.4665 0.60499C10.5265 0.544989 10.6165 0.494989 10.7365 0.45499C10.8665 0.40499 11.0515 0.38499 11.2915 0.39499C11.7415 0.40499 12.1865 0.40999 12.6265 0.40999C13.0665 0.40999 13.5065 0.419989 13.9465 0.439989C14.2365 0.459989 14.5415 0.49499 14.8615 0.54499C15.1915 0.58499 15.4965 0.65999 15.7765 0.769989C15.9565 0.83999 16.1215 0.90999 16.2715 0.979989C16.4615 1.08999 16.6115 1.19499 16.7215 1.29499C17.0715 1.61499 17.3365 1.99999 17.5165 2.44999C17.6965 2.89999 17.7865 3.35499 17.7865 3.81499C17.7865 4.35499 17.6565 4.84999 17.3965 5.29999C17.1465 5.74999 16.7415 6.08499 16.1815 6.30499C16.1615 6.32499 16.1315 6.33999 16.0915 6.34999C16.0615 6.34999 16.0365 6.35499 16.0165 6.36499L17.3965 9.13999L17.5315 9.37999C17.5515 9.41999 17.5765 9.46499 17.6065 9.51499C17.6365 9.56499 17.6615 9.61499 17.6815 9.66499C17.7115 9.71499 17.7365 9.76999 17.7565 9.82999C17.7865 9.88999 17.8165 9.94499 17.8465 9.99499C17.8765 10.135 17.9015 10.25 17.9215 10.34ZM14.1715 4.99999C14.3515 4.99999 14.5215 4.96999 14.6815 4.90999C14.8515 4.83999 15.0015 4.74999 15.1315 4.63999C15.2715 4.52999 15.3865 4.40499 15.4765 4.26499C15.5665 4.11499 15.6165 3.95499 15.6265 3.78499C15.6665 3.28499 15.5365 2.91499 15.2365 2.67499C14.9365 2.42499 14.5415 2.28999 14.0515 2.26999C13.7615 2.24999 13.4415 2.23999 13.0915 2.23999C12.7515 2.23999 12.4265 2.23999 12.1165 2.23999C12.1265 2.64999 12.1265 3.06999 12.1165 3.49999C12.1165 3.91999 12.1165 4.41999 12.1165 4.99999H14.1715Z" fill="black"/>
<path d="M26.8117 9.85999C26.8317 9.90999 26.8417 9.98499 26.8417 10.085C26.8417 10.175 26.8417 10.25 26.8417 10.31C26.8417 10.39 26.8267 10.465 26.7967 10.535C26.7667 10.605 26.7267 10.67 26.6767 10.73C26.5867 10.85 26.4567 10.94 26.2867 11C26.0467 11.08 25.8217 11.12 25.6117 11.12C25.5017 11.13 25.3867 11.135 25.2667 11.135C25.1467 11.135 25.0267 11.145 24.9067 11.165H24.8467C24.0767 11.175 23.2817 11.175 22.4617 11.165C22.2617 11.155 22.0367 11.155 21.7867 11.165C21.5367 11.185 21.2917 11.18 21.0517 11.15C20.8117 11.13 20.5917 11.075 20.3917 10.985C20.2017 10.885 20.0667 10.73 19.9867 10.52C19.9667 10.47 19.9517 10.425 19.9417 10.385C19.9317 10.335 19.9267 10.285 19.9267 10.235C19.8867 9.89499 19.8717 9.55999 19.8817 9.22999C19.8917 8.89999 19.8967 8.57499 19.8967 8.25499L19.9267 6.07999V4.06999C19.9267 3.70999 19.9267 3.38999 19.9267 3.10999C19.9367 2.82999 19.9467 2.51999 19.9567 2.17999V2.10499C19.9667 2.00499 19.9717 1.90499 19.9717 1.80499C19.9817 1.70499 19.9867 1.60499 19.9867 1.50499C20.0067 1.27499 20.0617 1.07999 20.1517 0.919989C20.2117 0.769989 20.3167 0.649989 20.4667 0.559989C20.5967 0.469989 20.7517 0.424989 20.9317 0.424989C21.0017 0.424989 21.0667 0.429989 21.1267 0.439989C21.1967 0.439989 21.2617 0.444989 21.3217 0.45499C21.3817 0.46499 21.4367 0.484989 21.4867 0.514989C21.5467 0.544989 21.6067 0.584989 21.6667 0.634989C21.7267 0.70499 21.7817 0.78999 21.8317 0.88999C21.8717 0.999989 21.8967 1.10999 21.9067 1.21999C21.9167 1.28999 21.9267 1.35499 21.9367 1.41499C21.9467 1.47499 21.9517 1.53499 21.9517 1.59499C21.9317 1.65499 21.9217 1.71499 21.9217 1.77499C21.9217 1.83499 21.9217 1.88999 21.9217 1.93999V2.20999L21.8617 9.27499L24.8317 9.30499H25.5367C25.5967 9.30499 25.6617 9.30999 25.7317 9.31999C25.8017 9.31999 25.8717 9.32499 25.9417 9.33499C26.0217 9.34499 26.0917 9.35499 26.1517 9.36499C26.2117 9.37499 26.2717 9.38999 26.3317 9.40999C26.4417 9.43999 26.5317 9.48999 26.6017 9.55999C26.7117 9.65999 26.7817 9.75999 26.8117 9.85999Z" fill="black"/>
</svg>
