<svg width="43" height="15" viewBox="0 0 43 15" fill="none" xmlns="http://www.w3.org/2000/svg">
<path d="M0.288 11.772C0.288 11.232 0.444 10.782 0.756 10.422C1.08 10.062 1.512 9.78 2.052 9.576C2.592 9.36 3.228 9.21 3.96 9.126C4.692 9.042 5.472 9 6.3 9C7.128 9 7.908 9.03 8.64 9.09C9.372 9.15 10.008 9.282 10.548 9.486C11.088 9.678 11.514 9.954 11.826 10.314C12.15 10.674 12.312 11.16 12.312 11.772C12.312 12.372 12.15 12.852 11.826 13.212C11.514 13.572 11.088 13.848 10.548 14.04C10.008 14.244 9.372 14.376 8.64 14.436C7.908 14.508 7.128 14.544 6.3 14.544C5.472 14.544 4.692 14.508 3.96 14.436C3.228 14.376 2.592 14.244 2.052 14.04C1.512 13.848 1.08 13.572 0.756 13.212C0.444 12.852 0.288 12.372 0.288 11.772ZM7.488 7.182C7.488 7.302 7.452 7.422 7.38 7.542C7.32 7.662 7.242 7.77 7.146 7.866C7.05 7.95 6.942 8.028 6.822 8.1C6.702 8.16 6.588 8.196 6.48 8.208C6.168 8.256 5.904 8.268 5.688 8.244C5.472 8.22 5.214 8.208 4.914 8.208C4.254 8.208 3.594 8.202 2.934 8.19C2.286 8.178 1.638 8.16 0.99 8.136C0.798 8.124 0.636 8.058 0.504 7.938C0.384 7.806 0.288 7.65 0.216 7.47C0.144 7.29 0.096 7.104 0.072 6.912C0.048 6.708 0.036 6.528 0.036 6.372C0.036 6.12 0.03 5.838 0.018 5.526C0.018 5.214 0.012 4.896 0 4.572C0 4.248 0 3.93 0 3.618C0 3.294 0.00600001 3.006 0.018 2.754C0.03 2.598 0.03 2.43 0.018 2.25C0.018 2.07 0.024 1.89 0.036 1.71C0.048 1.53 0.066 1.356 0.09 1.188C0.126 1.008 0.18 0.852 0.252 0.72C0.336 0.564 0.456 0.438 0.612 0.342C0.768 0.246 0.93 0.192 1.098 0.18C1.266 0.156 1.428 0.174 1.584 0.234C1.752 0.294 1.884 0.402 1.98 0.558C2.172 0.882 2.268 1.26 2.268 1.692C2.28 2.112 2.28 2.514 2.268 2.898H5.454C5.478 2.634 5.484 2.4 5.472 2.196C5.46 1.992 5.454 1.776 5.454 1.548C5.454 1.344 5.484 1.116 5.544 0.864001C5.616 0.6 5.742 0.408 5.922 0.288C6.054 0.192 6.234 0.144 6.462 0.144C6.69 0.132 6.87 0.174 7.002 0.27C7.134 0.366 7.23 0.51 7.29 0.702C7.362 0.882 7.41 1.068 7.434 1.26C7.47 1.476 7.488 1.71 7.488 1.962V7.182ZM11.988 1.656C11.988 1.644 11.988 1.716 11.988 1.872C11.988 2.028 11.988 2.214 11.988 2.43C11.988 2.634 11.988 2.838 11.988 3.042C11.988 3.246 11.988 3.39 11.988 3.474C12.036 3.474 12.126 3.48 12.258 3.492C12.39 3.492 12.528 3.498 12.672 3.51C12.816 3.51 12.954 3.516 13.086 3.528C13.218 3.54 13.314 3.552 13.374 3.564C13.614 3.612 13.782 3.684 13.878 3.78C13.974 3.864 14.034 3.972 14.058 4.104C14.094 4.236 14.112 4.392 14.112 4.572C14.112 4.74 14.076 4.884 14.004 5.004C13.86 5.244 13.644 5.382 13.356 5.418C13.068 5.442 12.75 5.46 12.402 5.472H11.988V6.894C11.976 7.026 11.958 7.164 11.934 7.308C11.91 7.44 11.862 7.572 11.79 7.704C11.718 7.848 11.616 7.968 11.484 8.064C11.316 8.184 11.118 8.244 10.89 8.244C10.686 8.244 10.518 8.202 10.386 8.118C10.266 8.046 10.17 7.956 10.098 7.848C10.026 7.74 9.966 7.638 9.918 7.542C9.882 7.434 9.858 7.344 9.846 7.272C9.834 7.188 9.828 7.146 9.828 7.146V1.422C9.816 1.374 9.822 1.242 9.846 1.026C9.87 0.810001 9.918 0.63 9.99 0.486C10.11 0.234 10.35 0.0900005 10.71 0.0540002C11.154 -0.0059997 11.484 0.0840002 11.7 0.324C11.772 0.42 11.82 0.516 11.844 0.612001C11.88 0.696 11.91 0.786 11.934 0.882C11.97 1.002 11.988 1.128 11.988 1.26C12 1.392 12 1.524 11.988 1.656ZM9.882 11.772C9.882 11.568 9.774 11.406 9.558 11.286C9.342 11.166 9.06 11.076 8.712 11.016C8.376 10.956 7.992 10.92 7.56 10.908C7.14 10.884 6.72 10.872 6.3 10.872C5.88 10.872 5.46 10.884 5.04 10.908C4.632 10.92 4.26 10.956 3.924 11.016C3.6 11.076 3.336 11.166 3.132 11.286C2.928 11.406 2.826 11.568 2.826 11.772C2.826 11.952 2.928 12.102 3.132 12.222C3.336 12.342 3.6 12.432 3.924 12.492C4.26 12.552 4.632 12.594 5.04 12.618C5.46 12.642 5.88 12.654 6.3 12.654C6.72 12.654 7.14 12.654 7.56 12.654C7.992 12.654 8.376 12.63 8.712 12.582C9.06 12.534 9.342 12.45 9.558 12.33C9.774 12.198 9.882 12.012 9.882 11.772ZM5.454 6.012C5.454 5.976 5.448 5.94 5.436 5.904C5.436 5.856 5.442 5.802 5.454 5.742C5.478 5.574 5.49 5.43 5.49 5.31C5.49 5.178 5.478 5.028 5.454 4.86V4.554H3.636C3.444 4.542 3.264 4.53 3.096 4.518C2.952 4.506 2.796 4.506 2.628 4.518C2.472 4.518 2.34 4.53 2.232 4.554C2.208 4.758 2.202 4.962 2.214 5.166C2.238 5.358 2.256 5.556 2.268 5.76C2.268 5.892 2.274 5.982 2.286 6.03C2.298 6.078 2.37 6.108 2.502 6.12C2.634 6.132 2.766 6.138 2.898 6.138C3.042 6.126 3.18 6.12 3.312 6.12H5.454V6.012Z" fill="black"/>
<path d="M16.3454 5.31C16.3094 5.31 16.2914 5.298 16.2914 5.274C16.1714 5.178 16.0874 5.04 16.0394 4.86C16.0034 4.668 15.9854 4.506 15.9854 4.374C15.9734 4.158 15.9554 3.942 15.9314 3.726C15.9194 3.51 15.9134 3.3 15.9134 3.096C15.9134 2.784 15.9134 2.46 15.9134 2.124C15.9134 1.776 15.9434 1.452 16.0034 1.152C16.0394 0.96 16.0994 0.810001 16.1834 0.702C16.2674 0.582 16.3994 0.486 16.5794 0.414C16.7474 0.354 16.9154 0.312 17.0834 0.288C17.2514 0.264 17.4194 0.24 17.5874 0.216C17.7914 0.192 18.0014 0.186 18.2174 0.198001C18.4334 0.21 18.6494 0.216 18.8654 0.216H22.2854C22.5854 0.216 22.8134 0.216 22.9694 0.216C23.1374 0.216 23.2874 0.216 23.4194 0.216C23.5514 0.216 23.6954 0.216 23.8514 0.216C24.0194 0.204 24.2534 0.198001 24.5534 0.198001C24.6614 0.198001 24.7634 0.198001 24.8594 0.198001C24.9674 0.198001 25.0754 0.204 25.1834 0.216C25.4114 0.228 25.6454 0.246 25.8854 0.27C26.1254 0.294 26.3474 0.354 26.5514 0.450001C26.7914 0.546 26.9534 0.708 27.0374 0.936C27.1214 1.152 27.1694 1.38 27.1814 1.62C27.2054 1.896 27.2054 2.19 27.1814 2.502C27.1694 2.814 27.1634 3.108 27.1634 3.384C27.1514 3.624 27.1394 3.864 27.1274 4.104C27.1274 4.344 27.0974 4.584 27.0374 4.824C27.0014 4.956 26.9594 5.076 26.9114 5.184C26.8634 5.28 26.7674 5.352 26.6234 5.4C26.4914 5.448 26.3534 5.478 26.2094 5.49C26.0654 5.502 25.9274 5.508 25.7954 5.508H18.0194C17.8994 5.508 17.7794 5.508 17.6594 5.508C17.5514 5.496 17.4374 5.484 17.3174 5.472C17.1614 5.46 16.9934 5.454 16.8134 5.454C16.6334 5.454 16.4774 5.406 16.3454 5.31ZM26.3354 8.748C25.7354 8.772 25.1834 8.79 24.6794 8.802C24.1754 8.814 23.6174 8.82 23.0054 8.82C22.9934 9.072 22.9814 9.324 22.9694 9.576C22.9574 9.828 22.9514 10.128 22.9514 10.476C22.9274 10.608 22.8674 10.722 22.7714 10.818C22.6874 10.914 22.5854 10.998 22.4654 11.07C22.3454 11.142 22.2134 11.196 22.0694 11.232C21.9374 11.256 21.8114 11.268 21.6914 11.268C21.3314 11.244 21.0494 11.154 20.8454 10.998C20.6534 10.842 20.5394 10.584 20.5034 10.224C20.4794 9.984 20.4734 9.744 20.4854 9.504C20.5094 9.264 20.5214 9.024 20.5214 8.784C20.2454 8.784 19.8794 8.784 19.4234 8.784C18.9674 8.772 18.4934 8.766 18.0014 8.766C17.5094 8.754 17.0354 8.742 16.5794 8.73C16.1354 8.718 15.7874 8.7 15.5354 8.676C15.3434 8.652 15.1874 8.628 15.0674 8.604C14.9594 8.568 14.8274 8.478 14.6714 8.334C14.5874 8.262 14.5274 8.166 14.4914 8.046C14.4554 7.926 14.4374 7.8 14.4374 7.668C14.4374 7.416 14.5154 7.212 14.6714 7.056C14.7554 6.96 14.8694 6.888 15.0134 6.84C15.1574 6.792 15.2954 6.756 15.4274 6.732C15.5594 6.708 15.6734 6.696 15.7694 6.696C15.8774 6.696 15.9374 6.696 15.9494 6.696H26.2454C26.4254 6.696 26.6054 6.696 26.7854 6.696C26.9654 6.696 27.1394 6.702 27.3074 6.714C27.4754 6.726 27.6374 6.75 27.7934 6.786C27.9614 6.822 28.1114 6.9 28.2434 7.02C28.3754 7.116 28.4474 7.224 28.4594 7.344C28.4834 7.464 28.4954 7.596 28.4954 7.74C28.4954 7.92 28.4414 8.082 28.3334 8.226C28.2374 8.37 28.0994 8.472 27.9194 8.532C27.6794 8.628 27.4154 8.688 27.1274 8.712C26.8514 8.724 26.5874 8.736 26.3354 8.748ZM26.8394 12.15C26.8514 12.15 26.8934 12.162 26.9654 12.186C27.0374 12.21 27.1154 12.252 27.1994 12.312C27.2954 12.36 27.3794 12.432 27.4514 12.528C27.5354 12.612 27.5894 12.714 27.6134 12.834C27.6854 13.29 27.6134 13.644 27.3974 13.896C27.2654 14.064 27.1214 14.166 26.9654 14.202C26.8094 14.238 26.7254 14.256 26.7134 14.256H16.8854C16.4294 14.256 16.0694 14.178 15.8054 14.022C15.5414 13.878 15.4094 13.668 15.4094 13.392V11.79C15.3854 11.526 15.3854 11.256 15.4094 10.98C15.4334 10.728 15.5294 10.524 15.6974 10.368C15.8654 10.212 16.0754 10.134 16.3274 10.134C16.3874 10.134 16.4654 10.14 16.5614 10.152C16.6694 10.152 16.7534 10.164 16.8134 10.188C16.9694 10.236 17.0894 10.308 17.1734 10.404C17.2574 10.5 17.3234 10.614 17.3714 10.746C17.4194 10.866 17.4494 10.998 17.4614 11.142C17.4734 11.274 17.4854 11.406 17.4974 11.538C17.4974 11.634 17.5034 11.736 17.5154 11.844C17.5274 11.94 17.5454 12.03 17.5694 12.114C17.5934 12.126 17.7014 12.144 17.8934 12.168C18.0974 12.18 18.4094 12.186 18.8294 12.186C19.1894 12.186 19.5074 12.18 19.7834 12.168C20.0714 12.156 20.2214 12.15 20.2334 12.15H26.8394ZM18.0554 3.204C18.0554 3.264 18.0554 3.324 18.0554 3.384C18.0674 3.432 18.0854 3.468 18.1094 3.492C18.1334 3.516 18.1754 3.534 18.2354 3.546C18.2954 3.546 18.3554 3.546 18.4154 3.546C18.4754 3.546 18.5474 3.54 18.6314 3.528H23.3654C23.5334 3.54 23.6954 3.552 23.8514 3.564C23.9834 3.576 24.1214 3.582 24.2654 3.582C24.4214 3.582 24.5534 3.57 24.6614 3.546C24.7934 3.534 24.8654 3.504 24.8774 3.456C24.9014 3.396 24.9254 3.312 24.9494 3.204C24.9614 3.108 24.9674 2.976 24.9674 2.808C24.9674 2.64 24.9314 2.508 24.8594 2.412C24.7754 2.316 24.6554 2.268 24.4994 2.268C24.3434 2.256 24.2114 2.256 24.1034 2.268H22.4654C22.4294 2.268 22.2854 2.268 22.0334 2.268C21.7814 2.268 21.5054 2.268 21.2054 2.268C20.9174 2.268 20.6474 2.268 20.3954 2.268C20.1434 2.268 19.9994 2.268 19.9634 2.268C19.7114 2.244 19.4594 2.238 19.2074 2.25C18.9554 2.25 18.6974 2.256 18.4334 2.268C18.3254 2.268 18.2474 2.274 18.1994 2.286C18.1514 2.286 18.1154 2.34 18.0914 2.448C18.0674 2.532 18.0554 2.634 18.0554 2.754C18.0554 2.874 18.0554 2.97 18.0554 3.042V3.204Z" fill="black"/>
<path d="M41.7306 13.212C41.9226 13.224 42.0906 13.272 42.2346 13.356C42.3786 13.428 42.4806 13.56 42.5406 13.752C42.6726 14.196 42.5166 14.496 42.0726 14.652C41.9286 14.712 41.7786 14.748 41.6226 14.76C41.4786 14.772 41.3466 14.778 41.2266 14.778H33.2166C32.9766 14.778 32.7246 14.778 32.4606 14.778C32.1966 14.778 31.9326 14.772 31.6686 14.76C31.3446 14.748 31.1166 14.646 30.9846 14.454C30.8646 14.262 30.7926 14.028 30.7686 13.752L30.6966 12.51C30.6966 12.438 30.6966 12.354 30.6966 12.258C30.6966 12.15 30.7026 12.042 30.7146 11.934C30.7266 11.814 30.7446 11.706 30.7686 11.61C30.7926 11.502 30.8346 11.418 30.8946 11.358C31.0626 11.19 31.2546 11.082 31.4706 11.034C31.6866 10.986 31.9266 10.962 32.1906 10.962H32.7486C32.8086 10.962 32.8566 10.968 32.8926 10.98C32.9286 10.98 32.9646 10.98 33.0006 10.98H40.4886V10.26H32.8206C32.7606 10.26 32.6946 10.26 32.6226 10.26C32.5626 10.248 32.4966 10.248 32.4246 10.26H31.9926C31.8726 10.26 31.7646 10.26 31.6686 10.26C31.5726 10.26 31.4766 10.248 31.3806 10.224C31.2726 10.2 31.1706 10.176 31.0746 10.152C30.9906 10.128 30.9186 10.068 30.8586 9.972C30.7026 9.696 30.6666 9.42 30.7506 9.144C30.7866 9.048 30.8406 8.976 30.9126 8.928C30.9846 8.868 31.0686 8.82 31.1646 8.784C31.2606 8.748 31.3506 8.724 31.4346 8.712C31.5306 8.688 31.6146 8.67 31.6866 8.658C31.7826 8.646 31.8726 8.64 31.9566 8.64C32.0526 8.628 32.1486 8.622 32.2446 8.622H32.5506C32.6106 8.634 32.6646 8.64 32.7126 8.64C32.7726 8.64 32.8326 8.64 32.8926 8.64H40.6686C41.2806 8.64 41.7486 8.736 42.0726 8.928C42.3966 9.108 42.5586 9.408 42.5586 9.828V11.484C42.5586 11.652 42.5166 11.808 42.4326 11.952C42.3606 12.084 42.2286 12.21 42.0366 12.33C41.8806 12.426 41.7246 12.48 41.5686 12.492C41.4126 12.492 41.2566 12.492 41.1006 12.492H32.9106V13.212H41.7306ZM34.0086 0.0179996C35.2326 0.102 36.1626 0.492 36.7986 1.188C37.4466 1.884 37.7286 2.874 37.6446 4.158C37.5606 5.238 37.2246 6.072 36.6366 6.66C36.0606 7.248 35.1966 7.542 34.0446 7.542C33.8286 7.542 33.6006 7.542 33.3606 7.542C33.1206 7.542 32.8746 7.53 32.6226 7.506C32.3826 7.47 32.1306 7.41 31.8666 7.326C31.6026 7.242 31.3326 7.116 31.0566 6.948C30.7926 6.78 30.5706 6.576 30.3906 6.336C30.2226 6.096 30.0846 5.838 29.9766 5.562C29.8686 5.274 29.7906 4.98 29.7426 4.68C29.7066 4.38 29.6886 4.086 29.6886 3.798C29.6886 3.15 29.7966 2.58 30.0126 2.088C30.2286 1.596 30.5286 1.188 30.9126 0.864001C31.2966 0.54 31.7526 0.306 32.2806 0.162C32.8086 0.0180003 33.3846 -0.0299997 34.0086 0.0179996ZM42.5766 6.732C42.5766 6.732 42.5706 6.774 42.5586 6.858C42.5466 6.942 42.5226 7.038 42.4866 7.146C42.4506 7.254 42.3966 7.368 42.3246 7.488C42.2526 7.596 42.1566 7.686 42.0366 7.758C41.8686 7.854 41.7006 7.902 41.5326 7.902C41.3286 7.902 41.1306 7.836 40.9386 7.704C40.8066 7.608 40.7046 7.482 40.6326 7.326C40.5366 7.146 40.4706 6.948 40.4346 6.732C40.4106 6.516 40.3926 6.294 40.3806 6.066C40.3806 5.838 40.3866 5.616 40.3986 5.4C40.4106 5.172 40.4166 4.956 40.4166 4.752C40.4166 4.5 40.4166 4.266 40.4166 4.05C40.4286 3.822 40.4346 3.606 40.4346 3.402C40.4346 3.186 40.4346 2.97 40.4346 2.754C40.4346 2.538 40.4346 2.304 40.4346 2.052V1.818C40.4226 1.686 40.4166 1.548 40.4166 1.404C40.4286 1.248 40.4526 1.104 40.4886 0.972C40.5366 0.792 40.6446 0.6 40.8126 0.396C40.9086 0.276 41.0406 0.192 41.2086 0.144C41.3886 0.0840002 41.5806 0.0660001 41.7846 0.0899998C42.1446 0.15 42.3846 0.306 42.5046 0.558C42.5766 0.714 42.6066 0.906 42.5946 1.134C42.5946 1.362 42.5886 1.5 42.5766 1.548V6.732ZM35.5746 4.23C35.6346 3.798 35.5626 3.396 35.3586 3.024C35.1666 2.652 34.8786 2.4 34.4946 2.268C34.2426 2.184 33.9666 2.142 33.6666 2.142C33.3666 2.142 33.0786 2.196 32.8026 2.304C32.5386 2.4 32.3046 2.556 32.1006 2.772C31.9086 2.976 31.7886 3.246 31.7406 3.582C31.7046 3.81 31.7046 4.044 31.7406 4.284C31.7766 4.512 31.8546 4.722 31.9746 4.914C32.1066 5.094 32.2866 5.25 32.5146 5.382C32.7426 5.514 33.0306 5.598 33.3786 5.634C33.6186 5.658 33.8526 5.658 34.0806 5.634C34.3206 5.61 34.5366 5.55 34.7286 5.454C34.9326 5.358 35.1066 5.226 35.2506 5.058C35.3946 4.878 35.4966 4.65 35.5566 4.374L35.5746 4.23Z" fill="black"/>
</svg>
