<svg width="17" height="12" viewBox="0 0 17 12" fill="none" xmlns="http://www.w3.org/2000/svg">
<path d="M7.5708 0.829996C7.6608 0.949996 7.7158 1.09 7.7358 1.25C7.7358 1.31 7.7308 1.37 7.7208 1.43C7.7208 1.48 7.7158 1.53 7.7058 1.58C7.6958 1.69 7.6308 1.795 7.5108 1.895C7.4408 1.945 7.3508 1.995 7.2408 2.045C7.1808 2.065 7.1158 2.08 7.0458 2.09C6.9858 2.09 6.9158 2.095 6.8358 2.105C6.7758 2.125 6.7108 2.135 6.6408 2.135C6.5708 2.135 6.5008 2.135 6.4308 2.135H5.7558L2.6208 2.15V2.195L2.6058 4.64C2.6858 4.64 2.7708 4.64 2.8608 4.64C2.9608 4.64 3.0808 4.635 3.2208 4.625C3.6208 4.625 3.9758 4.625 4.2858 4.625C4.6058 4.625 4.9558 4.63 5.3358 4.64H5.4258C5.5358 4.64 5.6458 4.645 5.7558 4.655C5.8758 4.655 5.9958 4.655 6.1158 4.655C6.2258 4.665 6.3358 4.68 6.4458 4.7C6.5558 4.71 6.6658 4.735 6.7758 4.775C6.9558 4.835 7.0858 4.93 7.1658 5.06C7.2758 5.19 7.3308 5.325 7.3308 5.465C7.3308 5.525 7.3308 5.585 7.3308 5.645C7.3308 5.695 7.3208 5.75 7.3008 5.81C7.2908 5.89 7.2258 5.99 7.1058 6.11C7.0258 6.18 6.9308 6.225 6.8208 6.245C6.7708 6.265 6.7108 6.285 6.6408 6.305C6.5808 6.315 6.5158 6.325 6.4458 6.335C6.3758 6.345 6.3058 6.355 6.2358 6.365C6.1758 6.365 6.1058 6.365 6.0258 6.365H5.3358L2.5758 6.38L2.5308 9.86V9.98C2.5308 10.03 2.5258 10.08 2.5158 10.13C2.5158 10.17 2.5108 10.215 2.5008 10.265C2.4808 10.315 2.4608 10.37 2.4408 10.43C2.4308 10.48 2.4158 10.53 2.3958 10.58C2.3258 10.72 2.2608 10.815 2.2008 10.865C2.0908 10.945 1.9558 11 1.7958 11.03C1.5258 11.09 1.2708 11.06 1.0308 10.94C0.980803 10.91 0.930803 10.875 0.880803 10.835C0.840803 10.785 0.805803 10.725 0.775803 10.655C0.755803 10.615 0.745803 10.585 0.745803 10.565L0.700803 10.475C0.670803 10.425 0.650803 10.375 0.640803 10.325C0.630803 10.265 0.620803 10.21 0.610803 10.16C0.610803 10.11 0.605803 10.06 0.595803 10.01C0.595803 9.96 0.590803 9.91 0.580803 9.86C0.570803 9.78 0.570803 9.7 0.580803 9.62V9.38L0.595803 8.21L0.610803 6.05C0.620803 5.73 0.625803 5.405 0.625803 5.075C0.625803 4.745 0.625803 4.405 0.625803 4.055C0.615803 3.695 0.610803 3.375 0.610803 3.095C0.620803 2.815 0.635803 2.51 0.655803 2.18V2.105C0.665803 1.995 0.670803 1.895 0.670803 1.805C0.670803 1.705 0.680803 1.605 0.700803 1.505C0.720803 1.285 0.770803 1.09 0.850803 0.919996C0.920803 0.749996 1.0208 0.629996 1.1508 0.559996C1.3008 0.469996 1.4608 0.424996 1.6308 0.424996C1.7108 0.424996 1.7758 0.429996 1.8258 0.439996V0.424996C2.0058 0.424996 2.1508 0.424996 2.2608 0.424996C2.3708 0.424996 2.4758 0.424996 2.5758 0.424996C2.6758 0.424996 2.7858 0.424996 2.9058 0.424996C3.0258 0.414996 3.1858 0.409996 3.3858 0.409996C4.1858 0.399996 4.9758 0.399996 5.7558 0.409996H5.8308C5.9408 0.419996 6.0508 0.424996 6.1608 0.424996C6.2808 0.424996 6.4008 0.429996 6.5208 0.439996C6.6308 0.439996 6.7408 0.454996 6.8508 0.484996C6.9608 0.504996 7.0708 0.534996 7.1808 0.574996C7.3508 0.624996 7.4808 0.709996 7.5708 0.829996Z" fill="black"/>
<path d="M16.405 9.86C16.425 9.91 16.435 9.985 16.435 10.085C16.435 10.175 16.435 10.25 16.435 10.31C16.435 10.39 16.42 10.465 16.39 10.535C16.36 10.605 16.32 10.67 16.27 10.73C16.18 10.85 16.05 10.94 15.88 11C15.64 11.08 15.415 11.12 15.205 11.12C15.095 11.13 14.98 11.135 14.86 11.135C14.74 11.135 14.62 11.145 14.5 11.165H14.44C13.67 11.175 12.875 11.175 12.055 11.165C11.855 11.155 11.63 11.155 11.38 11.165C11.13 11.185 10.885 11.18 10.645 11.15C10.405 11.13 10.185 11.075 9.98498 10.985C9.79498 10.885 9.65998 10.73 9.57998 10.52C9.55998 10.47 9.54498 10.425 9.53498 10.385C9.52498 10.335 9.51998 10.285 9.51998 10.235C9.47998 9.895 9.46498 9.56 9.47498 9.23C9.48498 8.9 9.48998 8.575 9.48998 8.255L9.51998 6.08V4.07C9.51998 3.71 9.51998 3.39 9.51998 3.11C9.52998 2.83 9.53998 2.52 9.54998 2.18V2.105C9.55998 2.005 9.56498 1.905 9.56498 1.805C9.57498 1.705 9.57998 1.605 9.57998 1.505C9.59998 1.275 9.65498 1.08 9.74498 0.919996C9.80498 0.769996 9.90998 0.649996 10.06 0.559996C10.19 0.469996 10.345 0.424996 10.525 0.424996C10.595 0.424996 10.66 0.429996 10.72 0.439996C10.79 0.439996 10.855 0.444996 10.915 0.454997C10.975 0.464996 11.03 0.484996 11.08 0.514996C11.14 0.544996 11.2 0.584996 11.26 0.634996C11.32 0.704996 11.375 0.789996 11.425 0.889996C11.465 0.999996 11.49 1.11 11.5 1.22C11.51 1.29 11.52 1.355 11.53 1.415C11.54 1.475 11.545 1.535 11.545 1.595C11.525 1.655 11.515 1.715 11.515 1.775C11.515 1.835 11.515 1.89 11.515 1.94V2.21L11.455 9.275L14.425 9.305H15.13C15.19 9.305 15.255 9.31 15.325 9.32C15.395 9.32 15.465 9.325 15.535 9.335C15.615 9.345 15.685 9.355 15.745 9.365C15.805 9.375 15.865 9.39 15.925 9.41C16.035 9.44 16.125 9.49 16.195 9.56C16.305 9.66 16.375 9.76 16.405 9.86Z" fill="black"/>
</svg>
