<svg width="34" height="16" viewBox="0 0 34 16" fill="none" xmlns="http://www.w3.org/2000/svg">
<path d="M10.854 6.267C11.082 6.387 11.304 6.531 11.52 6.699C11.736 6.855 11.94 7.023 12.132 7.203C12.228 7.299 12.294 7.419 12.33 7.563C12.366 7.707 12.366 7.851 12.33 7.995C12.306 8.139 12.246 8.271 12.15 8.391C12.066 8.499 11.952 8.571 11.808 8.607C11.424 8.703 11.022 8.697 10.602 8.589C10.194 8.481 9.816 8.343 9.468 8.175C9.144 8.007 8.844 7.851 8.568 7.707C8.292 7.551 8.016 7.389 7.74 7.221C7.656 7.161 7.542 7.095 7.398 7.023C7.266 6.939 7.134 6.855 7.002 6.771C6.846 6.675 6.678 6.579 6.498 6.483C6.294 6.591 6.096 6.693 5.904 6.789C5.736 6.873 5.568 6.957 5.4 7.041C5.244 7.113 5.118 7.179 5.022 7.239C4.71 7.419 4.422 7.575 4.158 7.707C3.894 7.839 3.606 7.989 3.294 8.157C3.054 8.277 2.808 8.409 2.556 8.553C2.316 8.685 2.058 8.739 1.782 8.715C1.566 8.691 1.356 8.625 1.152 8.517C0.948 8.409 0.822 8.223 0.774 7.959C0.75 7.815 0.762 7.659 0.81 7.491C0.858 7.287 0.936 7.119 1.044 6.987C1.164 6.855 1.308 6.735 1.476 6.627L2.718 5.925C2.922 5.805 3.102 5.709 3.258 5.637C3.414 5.553 3.6 5.451 3.816 5.331C4.02 5.211 4.254 5.079 4.518 4.935C4.794 4.779 5.052 4.653 5.292 4.557V3.099H3.384C3.192 3.099 3.024 3.105 2.88 3.117C2.748 3.117 2.592 3.105 2.412 3.081C2.28 3.057 2.136 3.045 1.98 3.045C1.824 3.045 1.68 3.009 1.548 2.937C1.416 2.865 1.308 2.739 1.224 2.559C1.152 2.427 1.11 2.271 1.098 2.091C1.086 1.911 1.11 1.749 1.17 1.605C1.266 1.389 1.422 1.227 1.638 1.119C1.854 1.011 2.076 0.957001 2.304 0.957001H2.718C2.91 0.969 3.048 0.975 3.132 0.975C3.228 0.963 3.372 0.957001 3.564 0.957001H9.792C9.984 0.957001 10.206 0.951001 10.458 0.939001C10.71 0.927 10.95 0.945 11.178 0.993C11.418 1.041 11.628 1.131 11.808 1.263C12 1.395 12.126 1.605 12.186 1.893C12.258 2.229 12.204 2.487 12.024 2.667C11.856 2.835 11.634 2.961 11.358 3.045C11.094 3.117 10.812 3.159 10.512 3.171C10.212 3.171 9.966 3.165 9.774 3.153C9.582 3.141 9.378 3.135 9.162 3.135C8.958 3.123 8.76 3.117 8.568 3.117C8.352 3.117 8.136 3.123 7.92 3.135V4.593C8.088 4.689 8.244 4.773 8.388 4.845C8.46 4.881 8.526 4.923 8.586 4.971C8.658 5.007 8.73 5.049 8.802 5.097C8.922 5.157 9.036 5.217 9.144 5.277C9.264 5.337 9.384 5.403 9.504 5.475C9.732 5.607 9.954 5.739 10.17 5.871C10.398 6.003 10.626 6.135 10.854 6.267ZM1.584 11.937C1.308 11.925 1.044 11.889 0.792 11.829C0.552 11.757 0.354 11.601 0.198 11.361C0.066 11.157 0 10.941 0 10.713C0.012 10.473 0.102 10.269 0.27 10.101C0.366 10.005 0.486 9.933 0.63 9.885C0.774 9.837 0.912 9.801 1.044 9.777C1.176 9.753 1.29 9.741 1.386 9.741C1.494 9.741 1.554 9.741 1.566 9.741H11.376C11.568 9.729 11.772 9.729 11.988 9.741C12.216 9.753 12.426 9.795 12.618 9.867C12.81 9.927 12.972 10.035 13.104 10.191C13.236 10.335 13.302 10.539 13.302 10.803C13.302 11.103 13.2 11.331 12.996 11.487C12.792 11.631 12.546 11.739 12.258 11.811C11.982 11.871 11.694 11.907 11.394 11.919C11.094 11.919 10.848 11.919 10.656 11.919H9.954C9.714 11.931 9.48 11.937 9.252 11.937C9.024 11.925 8.79 11.919 8.55 11.919H7.866C7.878 12.255 7.89 12.609 7.902 12.981C7.914 13.353 7.896 13.683 7.848 13.971C7.824 14.199 7.764 14.415 7.668 14.619C7.584 14.835 7.44 15.009 7.236 15.141C7.056 15.261 6.846 15.321 6.606 15.321C6.366 15.333 6.15 15.285 5.958 15.177C5.802 15.081 5.682 14.943 5.598 14.763C5.526 14.583 5.478 14.409 5.454 14.241C5.43 14.109 5.418 13.965 5.418 13.809C5.43 13.653 5.436 13.509 5.436 13.377C5.424 13.161 5.418 12.927 5.418 12.675C5.418 12.411 5.418 12.153 5.418 11.901H4.968C4.632 11.901 4.326 11.907 4.05 11.919C3.786 11.919 3.528 11.925 3.276 11.937C3.024 11.937 2.76 11.937 2.484 11.937C2.22 11.937 1.92 11.937 1.584 11.937Z" fill="black"/>
<path d="M21.7991 9.111C21.8711 9.039 21.9371 8.955 21.9971 8.859C22.0691 8.751 22.1231 8.679 22.1591 8.643V4.575C22.0991 4.599 22.0451 4.605 21.9971 4.593C21.9491 4.581 21.8951 4.575 21.8351 4.575H21.3491C20.9291 4.575 20.5631 4.569 20.2511 4.557C19.9511 4.545 19.7591 4.527 19.6751 4.503C19.4591 4.455 19.2731 4.377 19.1171 4.269C18.9731 4.149 18.8651 3.981 18.7931 3.765C18.7691 3.681 18.7511 3.603 18.7391 3.531C18.7271 3.459 18.7331 3.375 18.7571 3.279C18.7571 3.159 18.8171 3.009 18.9371 2.829C18.9731 2.769 19.0271 2.715 19.0991 2.667C19.1711 2.619 19.2431 2.577 19.3151 2.541C19.3871 2.481 19.4591 2.445 19.5311 2.433C19.6031 2.409 19.6751 2.385 19.7471 2.361H22.1231C22.1231 2.229 22.1291 2.049 22.1411 1.821C22.1531 1.581 22.1591 1.407 22.1591 1.299C22.1831 1.143 22.2191 1.005 22.2671 0.885C22.3151 0.753001 22.3691 0.633001 22.4291 0.525001C22.5731 0.297001 22.7831 0.147001 23.0591 0.0750001C23.1911 0.0150001 23.3231 -0.00899991 23.4551 0.00299993C23.5991 0.0150005 23.7371 0.0510007 23.8691 0.111001C23.9651 0.147 24.0491 0.201 24.1211 0.273001C24.2051 0.333001 24.2651 0.405 24.3011 0.489C24.4451 0.657 24.5351 0.825 24.5711 0.993C24.5951 1.089 24.6131 1.191 24.6251 1.299C24.6371 1.407 24.6431 1.515 24.6431 1.623V2.361H25.7411C25.9811 2.361 26.2211 2.367 26.4611 2.379C26.7131 2.391 26.9231 2.409 27.0911 2.433C27.2591 2.469 27.4091 2.535 27.5411 2.631C27.6851 2.715 27.8051 2.835 27.9011 2.991C27.9971 3.147 28.0451 3.315 28.0451 3.495C28.0811 3.627 28.0571 3.777 27.9731 3.945C27.8291 4.221 27.5471 4.407 27.1271 4.503C26.9951 4.527 26.8451 4.539 26.6771 4.539C26.5211 4.539 26.3531 4.551 26.1731 4.575C25.9811 4.575 25.7531 4.581 25.4891 4.593C25.2251 4.605 24.9431 4.599 24.6431 4.575C24.6431 4.671 24.6371 4.785 24.6251 4.917C24.6251 5.049 24.6251 5.181 24.6251 5.313C24.6251 5.445 24.6251 5.571 24.6251 5.691C24.6251 5.799 24.6311 5.889 24.6431 5.961V7.941C24.6431 8.001 24.6371 8.061 24.6251 8.121C24.6131 8.169 24.6191 8.229 24.6431 8.301V8.589C24.7031 8.637 24.7571 8.703 24.8051 8.787C24.8651 8.859 24.9431 8.943 25.0391 9.039C25.1231 9.111 25.1891 9.183 25.2371 9.255C25.2971 9.327 25.3571 9.393 25.4171 9.453C25.4771 9.525 25.5311 9.597 25.5791 9.669C25.6391 9.741 25.7051 9.813 25.7771 9.885C25.8371 9.945 25.8971 10.017 25.9571 10.101C26.0171 10.185 26.0831 10.263 26.1551 10.335C26.1911 10.395 26.2271 10.449 26.2631 10.497C26.2991 10.545 26.3351 10.587 26.3711 10.623C26.4431 10.731 26.5031 10.833 26.5511 10.929C26.6711 11.073 26.7851 11.223 26.8931 11.379C27.0011 11.523 27.1091 11.691 27.2171 11.883C27.3491 12.051 27.4511 12.225 27.5231 12.405C27.6071 12.573 27.6671 12.741 27.7031 12.909C27.7391 13.077 27.7391 13.251 27.7031 13.431C27.6671 13.611 27.5831 13.773 27.4511 13.917C27.2831 14.061 27.0611 14.133 26.7851 14.133C26.6531 14.133 26.5271 14.121 26.4071 14.097C26.2991 14.061 26.1791 14.013 26.0471 13.953C25.9271 13.881 25.8191 13.809 25.7231 13.737C25.6391 13.653 25.5491 13.575 25.4531 13.503C25.3451 13.395 25.2431 13.281 25.1471 13.161C25.0511 13.029 24.9551 12.909 24.8591 12.801C24.7631 12.693 24.6671 12.579 24.5711 12.459C24.4871 12.327 24.3971 12.195 24.3011 12.063C24.1691 11.931 24.0251 11.757 23.8691 11.541C23.7971 11.433 23.7131 11.343 23.6171 11.271C23.5331 11.187 23.4551 11.109 23.3831 11.037C23.3111 11.133 23.2391 11.229 23.1671 11.325C23.0951 11.409 23.0231 11.499 22.9511 11.595C22.8671 11.691 22.7891 11.781 22.7171 11.865C22.6451 11.949 22.5731 12.039 22.5011 12.135C22.4291 12.255 22.3451 12.375 22.2491 12.495C22.1651 12.615 22.0751 12.729 21.9791 12.837C21.9071 12.957 21.8231 13.077 21.7271 13.197C21.6431 13.317 21.5411 13.431 21.4211 13.539C21.1811 13.779 20.9531 13.947 20.7371 14.043C20.5331 14.127 20.3231 14.169 20.1071 14.169C20.0471 14.169 19.9871 14.169 19.9271 14.169C19.8791 14.169 19.8251 14.157 19.7651 14.133C19.5131 14.061 19.3271 13.899 19.2071 13.647C19.1231 13.455 19.0991 13.263 19.1351 13.071C19.1591 12.951 19.1831 12.843 19.2071 12.747C19.2311 12.639 19.2731 12.549 19.3331 12.477C19.3691 12.381 19.4111 12.291 19.4591 12.207C19.5071 12.111 19.5611 12.015 19.6211 11.919C19.6811 11.847 19.7351 11.769 19.7831 11.685C19.8431 11.601 19.9151 11.517 19.9991 11.433C20.0351 11.397 20.0711 11.355 20.1071 11.307C20.1431 11.259 20.1791 11.217 20.2151 11.181L20.4311 10.857C20.4671 10.773 20.5091 10.707 20.5571 10.659C20.6051 10.599 20.6771 10.503 20.7731 10.371C20.8691 10.263 20.9591 10.155 21.0431 10.047C21.1271 9.939 21.2051 9.837 21.2771 9.741C21.3731 9.633 21.4631 9.525 21.5471 9.417C21.6431 9.309 21.7271 9.207 21.7991 9.111ZM31.8971 6.231C31.9571 6.231 32.0111 6.237 32.0591 6.249C32.1191 6.261 32.1791 6.267 32.2391 6.267C32.2991 6.279 32.3651 6.291 32.4371 6.303C32.5091 6.303 32.5811 6.309 32.6531 6.321C32.7851 6.345 32.9171 6.393 33.0491 6.465C33.1811 6.525 33.2771 6.621 33.3371 6.753C33.4211 6.885 33.4631 7.041 33.4631 7.221C33.4631 7.317 33.4571 7.407 33.4451 7.491C33.4451 7.563 33.4331 7.647 33.4091 7.743C33.3851 7.839 33.3551 7.941 33.3191 8.049C33.2951 8.157 33.2411 8.241 33.1571 8.301C32.9891 8.421 32.8271 8.499 32.6711 8.535C32.4791 8.559 32.2451 8.565 31.9691 8.553C31.6931 8.541 31.4591 8.541 31.2671 8.553C31.2551 8.553 31.2431 8.559 31.2311 8.571H31.2131L31.1951 8.589V8.643C31.1951 8.787 31.1951 8.961 31.1951 9.165C31.1951 9.357 31.1951 9.561 31.1951 9.777C31.1951 9.981 31.1951 10.185 31.1951 10.389C31.1951 10.581 31.1951 10.755 31.1951 10.911C31.2191 11.535 31.2191 12.147 31.1951 12.747V12.999C31.1951 13.155 31.1891 13.329 31.1771 13.521C31.1771 13.701 31.1651 13.881 31.1411 14.061C31.1171 14.241 31.0751 14.415 31.0151 14.583C30.9551 14.739 30.8711 14.871 30.7631 14.979C30.6191 15.147 30.4271 15.231 30.1871 15.231C30.1871 15.231 30.1751 15.225 30.1511 15.213C29.8631 15.201 29.6291 15.117 29.4491 14.961C29.2811 14.805 29.1491 14.613 29.0531 14.385C28.9691 14.157 28.9151 13.923 28.8911 13.683C28.8671 13.431 28.8551 13.209 28.8551 13.017V2.325C28.8551 2.313 28.8551 2.259 28.8551 2.163C28.8551 2.055 28.8671 1.935 28.8911 1.803C28.9151 1.659 28.9511 1.515 28.9991 1.371C29.0591 1.215 29.1371 1.089 29.2331 0.993C29.3171 0.909 29.4371 0.849001 29.5931 0.813C29.7611 0.765 29.9111 0.741 30.0431 0.741C30.3071 0.741 30.5291 0.831 30.7091 1.011C30.8771 1.179 30.9731 1.359 30.9971 1.551C31.0331 1.731 31.0631 1.923 31.0871 2.127C31.0991 2.175 31.1051 2.247 31.1051 2.343C31.1291 2.547 31.1411 2.757 31.1411 2.973C31.1531 3.189 31.1651 3.405 31.1771 3.621C31.1771 3.753 31.1771 3.885 31.1771 4.017C31.1891 4.137 31.1951 4.263 31.1951 4.395C31.1831 4.467 31.1771 4.539 31.1771 4.611C31.1891 4.671 31.1951 4.731 31.1951 4.791V5.799C31.1951 5.859 31.1951 5.925 31.1951 5.997C31.1951 6.069 31.2071 6.135 31.2311 6.195C31.2311 6.207 31.2911 6.213 31.4111 6.213C31.5311 6.213 31.5971 6.213 31.6091 6.213C31.7171 6.237 31.8011 6.243 31.8611 6.231H31.8971Z" fill="black"/>
</svg>
