<svg width="47" height="25" viewBox="0 0 47 25" fill="none" xmlns="http://www.w3.org/2000/svg">
<path d="M44.4 0C44.4 0.276142 44.6239 0.5 44.9 0.5H46.5V2.08334C46.5 2.35948 46.7239 2.58334 47 2.58334V5.75C46.7239 5.75 46.5 5.97386 46.5 6.25V10.4167C46.5 10.6928 46.7239 10.9167 47 10.9167V14.0833C46.7239 14.0833 46.5 14.3072 46.5 14.5833V18.75C46.5 19.0261 46.7239 19.25 47 19.25V22.4167C46.7239 22.4167 46.5 22.6405 46.5 22.9167V24.5H44.9C44.6239 24.5 44.4 24.7239 44.4 25H41.2C41.2 24.7239 40.9761 24.5 40.7 24.5H36.5C36.2239 24.5 36 24.7239 36 25H32.8C32.8 24.7239 32.5761 24.5 32.3 24.5H28.1C27.8239 24.5 27.6 24.7239 27.6 25H24.4C24.4 24.7239 24.1761 24.5 23.9 24.5H19.7C19.4239 24.5 19.2 24.7239 19.2 25H16C16 24.7239 15.7761 24.5 15.5 24.5H11.3C11.0239 24.5 10.8 24.7239 10.8 25H7.6C7.6 24.7239 7.37614 24.5 7.1 24.5H5C4.38892 24.5 3.80748 24.3785 3.27759 24.1587C3.03029 24.0562 2.7478 24.1668 2.6344 24.4061C1.77037 23.9412 1.05878 23.2296 0.593908 22.3656C0.833186 22.2522 0.943815 21.9697 0.841266 21.7224C0.621529 21.1925 0.5 20.6111 0.5 20V18.125C0.5 17.8489 0.276142 17.625 0 17.625V14.875C0.276142 14.875 0.5 14.6511 0.5 14.375V10.625C0.5 10.3489 0.276142 10.125 0 10.125V7.375C0.276142 7.375 0.5 7.15114 0.5 6.875V5C0.5 4.38892 0.621529 3.80748 0.841265 3.27759C0.943815 3.03029 0.833186 2.7478 0.593907 2.6344C1.05877 1.77037 1.77037 1.05877 2.6344 0.593907C2.7478 0.833186 3.03029 0.943815 3.27759 0.841266C3.80748 0.621529 4.38892 0.5 5 0.5H7.1C7.37614 0.5 7.6 0.276142 7.6 0H10.8C10.8 0.276142 11.0239 0.5 11.3 0.5H15.5C15.7761 0.5 16 0.276142 16 0H19.2C19.2 0.276142 19.4239 0.5 19.7 0.5H23.9C24.1761 0.5 24.4 0.276142 24.4 0H27.6C27.6 0.276142 27.8239 0.5 28.1 0.5H32.3C32.5761 0.5 32.8 0.276142 32.8 0H36C36 0.276142 36.2239 0.5 36.5 0.5H40.7C40.9761 0.5 41.2 0.276142 41.2 0H44.4Z" fill="white" stroke="black" stroke-linecap="round" stroke-dasharray="4 4"/>
<path d="M15.5306 12.055C16.1906 12.235 16.7206 12.57 17.1206 13.06C17.5206 13.54 17.7206 14.11 17.7206 14.77C17.7206 15.71 17.4056 16.45 16.7756 16.99C16.1456 17.53 15.2006 17.8 13.9406 17.8H11.2856C11.2256 17.8 11.1956 17.77 11.1956 17.71V7.465C11.1956 7.405 11.2256 7.375 11.2856 7.375H13.8356C14.8556 7.375 15.6406 7.58 16.1906 7.99C16.7406 8.4 17.0156 8.98 17.0156 9.73C17.0156 10.3 16.8806 10.78 16.6106 11.17C16.3406 11.55 15.9806 11.845 15.5306 12.055ZM13.0706 12.535C12.9206 12.535 12.7706 12.53 12.6206 12.52C12.4706 12.51 12.3206 12.5 12.1706 12.49V16.975H13.9406C14.0606 16.975 14.2306 16.97 14.4506 16.96C14.6806 16.94 14.9256 16.895 15.1856 16.825C15.4456 16.755 15.6956 16.645 15.9356 16.495C16.1756 16.335 16.3706 16.12 16.5206 15.85C16.6706 15.58 16.7456 15.235 16.7456 14.815C16.7456 14.115 16.4906 13.565 15.9806 13.165C15.4706 12.765 14.8156 12.535 14.0156 12.475C13.7156 12.515 13.4006 12.535 13.0706 12.535ZM12.1706 11.695C12.5206 11.755 12.8756 11.785 13.2356 11.785C13.7056 11.785 14.1506 11.72 14.5706 11.59C15.0006 11.46 15.3506 11.25 15.6206 10.96C15.9006 10.67 16.0406 10.29 16.0406 9.82C16.0406 8.74 15.3056 8.2 13.8356 8.2H12.1706V11.695ZM19.8968 17.71V7.465C19.8968 7.405 19.9268 7.375 19.9868 7.375H22.9568C23.7368 7.375 24.3768 7.505 24.8768 7.765C25.3768 8.025 25.7468 8.375 25.9868 8.815C26.2268 9.245 26.3468 9.725 26.3468 10.255C26.3468 11.015 26.1518 11.65 25.7618 12.16C25.3818 12.66 24.8668 13.035 24.2168 13.285C23.5668 13.525 22.8468 13.645 22.0568 13.645C21.6668 13.645 21.2718 13.615 20.8718 13.555V17.71C20.8718 17.77 20.8418 17.8 20.7818 17.8H19.9868C19.9268 17.8 19.8968 17.77 19.8968 17.71ZM20.8718 12.67C21.0918 12.71 21.3068 12.745 21.5168 12.775C21.7368 12.795 21.9518 12.805 22.1618 12.805C22.7618 12.805 23.3018 12.72 23.7818 12.55C24.2618 12.38 24.6418 12.11 24.9218 11.74C25.2018 11.37 25.3418 10.89 25.3418 10.3C25.3418 9.59 25.1018 9.065 24.6218 8.725C24.1418 8.375 23.4868 8.2 22.6568 8.2H20.8718V12.67ZM28.5979 17.71V7.465C28.5979 7.405 28.6279 7.375 28.6879 7.375H31.0429C32.9129 7.375 34.3229 7.825 35.2729 8.725C36.2229 9.615 36.6979 10.875 36.6979 12.505C36.6979 13.625 36.4629 14.58 35.9929 15.37C35.5329 16.16 34.8879 16.765 34.0579 17.185C33.2279 17.595 32.2629 17.8 31.1629 17.8H28.6879C28.6279 17.8 28.5979 17.77 28.5979 17.71ZM29.5729 16.945H31.1629C32.0729 16.945 32.8679 16.785 33.5479 16.465C34.2279 16.135 34.7579 15.64 35.1379 14.98C35.5279 14.32 35.7229 13.5 35.7229 12.52C35.7229 11.12 35.3479 10.055 34.5979 9.325C33.8479 8.585 32.6629 8.215 31.0429 8.215H29.5729V16.945Z" fill="black"/>
<path d="M15.5306 12.055L15.3192 11.6019L14.0834 12.1786L15.399 12.5374L15.5306 12.055ZM17.1206 13.06L16.7333 13.3762L16.7365 13.3801L17.1206 13.06ZM16.7756 16.99L17.101 17.3696L17.101 17.3696L16.7756 16.99ZM16.6106 11.17L17.0182 11.4596L17.0217 11.4546L16.6106 11.17ZM12.6206 12.52L12.5873 13.0189L12.5873 13.0189L12.6206 12.52ZM12.1706 12.49L12.2039 11.9911L11.6706 11.9556V12.49H12.1706ZM12.1706 16.975H11.6706V17.475H12.1706V16.975ZM14.4506 16.96L14.4733 17.4595L14.4836 17.459L14.4939 17.4581L14.4506 16.96ZM15.9356 16.495L16.2006 16.919L16.2068 16.9151L16.213 16.911L15.9356 16.495ZM16.5206 15.85L16.0835 15.6072L16.0835 15.6072L16.5206 15.85ZM15.9806 13.165L16.2892 12.7716L16.2892 12.7716L15.9806 13.165ZM14.0156 12.475L14.053 11.9764L14.0011 11.9725L13.9495 11.9794L14.0156 12.475ZM12.1706 11.695H11.6706V12.1166L12.0861 12.1878L12.1706 11.695ZM14.5706 11.59L14.4259 11.1114L14.4228 11.1124L14.5706 11.59ZM15.6206 10.96L15.2608 10.6126L15.2547 10.6193L15.6206 10.96ZM12.1706 8.2V7.7H11.6706V8.2H12.1706ZM15.399 12.5374C15.9672 12.6923 16.4046 12.9735 16.7333 13.3762L17.5079 12.7438C17.0366 12.1665 16.414 11.7777 15.6622 11.5726L15.399 12.5374ZM16.7365 13.3801C17.0572 13.7649 17.2206 14.2198 17.2206 14.77H18.2206C18.2206 14.0002 17.984 13.3151 17.5047 12.7399L16.7365 13.3801ZM17.2206 14.77C17.2206 15.5857 16.9539 16.1786 16.4502 16.6104L17.101 17.3696C17.8573 16.7214 18.2206 15.8343 18.2206 14.77H17.2206ZM16.4502 16.6104C15.9476 17.0412 15.1408 17.3 13.9406 17.3V18.3C15.2604 18.3 16.3436 18.0188 17.101 17.3696L16.4502 16.6104ZM13.9406 17.3H11.2856V18.3H13.9406V17.3ZM11.2856 17.3C11.3327 17.3 11.4598 17.3121 11.5717 17.4239C11.6835 17.5358 11.6956 17.6629 11.6956 17.71H10.6956C10.6956 17.8171 10.7227 17.9892 10.8646 18.1311C11.0064 18.2729 11.1785 18.3 11.2856 18.3V17.3ZM11.6956 17.71V7.465H10.6956V17.71H11.6956ZM11.6956 7.465C11.6956 7.51207 11.6835 7.63921 11.5717 7.75105C11.4598 7.86289 11.3327 7.875 11.2856 7.875V6.875C11.1785 6.875 11.0064 6.90211 10.8646 7.04395C10.7227 7.18579 10.6956 7.35793 10.6956 7.465H11.6956ZM11.2856 7.875H13.8356V6.875H11.2856V7.875ZM13.8356 7.875C14.7979 7.875 15.461 8.06978 15.8918 8.39087L16.4894 7.58913C15.8202 7.09022 14.9133 6.875 13.8356 6.875V7.875ZM15.8918 8.39087C16.3021 8.69676 16.5156 9.12084 16.5156 9.73H17.5156C17.5156 8.83916 17.1791 8.10324 16.4894 7.58913L15.8918 8.39087ZM16.5156 9.73C16.5156 10.2192 16.4008 10.5947 16.1995 10.8854L17.0217 11.4546C17.3604 10.9653 17.5156 10.3808 17.5156 9.73H16.5156ZM16.203 10.8804C15.9864 11.1852 15.696 11.426 15.3192 11.6019L15.742 12.5081C16.2652 12.264 16.6948 11.9148 17.0182 11.4596L16.203 10.8804ZM13.0706 12.035C12.9317 12.035 12.7928 12.0304 12.6539 12.0211L12.5873 13.0189C12.7484 13.0296 12.9095 13.035 13.0706 13.035V12.035ZM12.6539 12.0211C12.5039 12.0111 12.3539 12.0011 12.2039 11.9911L12.1373 12.9889C12.2873 12.9989 12.4373 13.0089 12.5873 13.0189L12.6539 12.0211ZM11.6706 12.49V16.975H12.6706V12.49H11.6706ZM12.1706 17.475H13.9406V16.475H12.1706V17.475ZM13.9406 17.475C14.072 17.475 14.2509 17.4696 14.4733 17.4595L14.4279 16.4605C14.2104 16.4704 14.0492 16.475 13.9406 16.475V17.475ZM14.4939 17.4581C14.7576 17.4352 15.0318 17.3842 15.3156 17.3078L15.0556 16.3422C14.8195 16.4058 14.6037 16.4448 14.4073 16.4619L14.4939 17.4581ZM15.3156 17.3078C15.6256 17.2243 15.9209 17.0938 16.2006 16.919L15.6706 16.071C15.4703 16.1962 15.2656 16.2857 15.0556 16.3422L15.3156 17.3078ZM16.213 16.911C16.5239 16.7037 16.7718 16.4274 16.9577 16.0928L16.0835 15.6072C15.9694 15.8126 15.8273 15.9663 15.6583 16.079L16.213 16.911ZM16.9577 16.0928C17.1611 15.7266 17.2456 15.2907 17.2456 14.815H16.2456C16.2456 15.1793 16.1801 15.4334 16.0835 15.6072L16.9577 16.0928ZM17.2456 14.815C17.2456 13.9756 16.9307 13.2748 16.2892 12.7716L15.672 13.5584C16.0505 13.8552 16.2456 14.2544 16.2456 14.815H17.2456ZM16.2892 12.7716C15.6844 12.2973 14.9282 12.042 14.053 11.9764L13.9782 12.9736C14.703 13.028 15.2568 13.2327 15.672 13.5584L16.2892 12.7716ZM13.9495 11.9794C13.6733 12.0162 13.3805 12.035 13.0706 12.035V13.035C13.4207 13.035 13.7579 13.0138 14.0817 12.9706L13.9495 11.9794ZM12.0861 12.1878C12.4644 12.2527 12.8477 12.285 13.2356 12.285V11.285C12.9035 11.285 12.5768 11.2573 12.2551 11.2022L12.0861 12.1878ZM13.2356 12.285C13.7523 12.285 14.2474 12.2135 14.7184 12.0676L14.4228 11.1124C14.0538 11.2265 13.6589 11.285 13.2356 11.285V12.285ZM14.7153 12.0686C15.2184 11.9165 15.6486 11.6637 15.9866 11.3007L15.2547 10.6193C15.0526 10.8363 14.7828 11.0035 14.4259 11.1114L14.7153 12.0686ZM15.9803 11.3073C16.3652 10.9087 16.5406 10.3965 16.5406 9.82H15.5406C15.5406 10.1835 15.436 10.4313 15.2609 10.6127L15.9803 11.3073ZM16.5406 9.82C16.5406 9.15409 16.3057 8.58434 15.7854 8.20206C15.2938 7.84092 14.6171 7.7 13.8356 7.7V8.7C14.5241 8.7 14.9499 8.82908 15.1933 9.00794C15.408 9.16566 15.5406 9.40591 15.5406 9.82H16.5406ZM13.8356 7.7H12.1706V8.7H13.8356V7.7ZM11.6706 8.2V11.695H12.6706V8.2H11.6706ZM24.8768 7.765L24.6461 8.20861L24.6461 8.20861L24.8768 7.765ZM25.9868 8.815L25.5478 9.05444L25.5502 9.05868L25.9868 8.815ZM25.7618 12.16L25.3646 11.8563L25.3637 11.8575L25.7618 12.16ZM24.2168 13.285L24.39 13.7541L24.3963 13.7517L24.2168 13.285ZM20.8718 13.555L20.9459 13.0605L20.3718 12.9744V13.555H20.8718ZM20.8718 12.67H20.3718V13.0873L20.7823 13.1619L20.8718 12.67ZM21.5168 12.775L21.4461 13.27L21.4588 13.2718L21.4715 13.2729L21.5168 12.775ZM23.7818 12.55L23.9487 13.0213L23.9487 13.0213L23.7818 12.55ZM24.6218 8.725L24.3272 9.12904L24.3328 9.13301L24.6218 8.725ZM20.8718 8.2V7.7H20.3718V8.2H20.8718ZM20.3968 17.71V7.465H19.3968V17.71H20.3968ZM20.3968 7.465C20.3968 7.51207 20.3847 7.63921 20.2728 7.75105C20.161 7.86289 20.0338 7.875 19.9868 7.875V6.875C19.8797 6.875 19.7076 6.90211 19.5657 7.04395C19.4239 7.18579 19.3968 7.35793 19.3968 7.465H20.3968ZM19.9868 7.875H22.9568V6.875H19.9868V7.875ZM22.9568 7.875C23.6857 7.875 24.2394 7.99711 24.6461 8.20861L25.1075 7.32139C24.5142 7.01289 23.7879 6.875 22.9568 6.875V7.875ZM24.6461 8.20861C25.0693 8.42867 25.3612 8.71228 25.5478 9.05443L26.4257 8.57557C26.1324 8.03772 25.6843 7.62133 25.1075 7.32139L24.6461 8.20861ZM25.5502 9.05868C25.7455 9.40855 25.8468 9.8036 25.8468 10.255H26.8468C26.8468 9.6464 26.7081 9.08145 26.4234 8.57132L25.5502 9.05868ZM25.8468 10.255C25.8468 10.9261 25.6762 11.4487 25.3646 11.8563L26.159 12.4637C26.6273 11.8513 26.8468 11.1039 26.8468 10.255H25.8468ZM25.3637 11.8575C25.0459 12.2756 24.6103 12.5979 24.0373 12.8183L24.3963 13.7517C25.1232 13.4721 25.7177 13.0444 26.1599 12.4625L25.3637 11.8575ZM24.0436 12.816C23.4562 13.0328 22.7959 13.145 22.0568 13.145V14.145C22.8977 14.145 23.6773 14.0172 24.39 13.754L24.0436 12.816ZM22.0568 13.145C21.6925 13.145 21.3223 13.117 20.9459 13.0605L20.7976 14.0495C21.2213 14.113 21.6411 14.145 22.0568 14.145V13.145ZM20.3718 13.555V17.71H21.3718V13.555H20.3718ZM20.3718 17.71C20.3718 17.6629 20.3839 17.5358 20.4957 17.4239C20.6076 17.3121 20.7347 17.3 20.7818 17.3V18.3C20.8888 18.3 21.061 18.2729 21.2028 18.1311C21.3447 17.9892 21.3718 17.8171 21.3718 17.71H20.3718ZM20.7818 17.3H19.9868V18.3H20.7818V17.3ZM19.9868 17.3C20.0338 17.3 20.161 17.3121 20.2728 17.4239C20.3847 17.5358 20.3968 17.6629 20.3968 17.71H19.3968C19.3968 17.8171 19.4239 17.9892 19.5657 18.1311C19.7076 18.2729 19.8797 18.3 19.9868 18.3V17.3ZM20.7823 13.1619C21.0082 13.203 21.2295 13.239 21.4461 13.27L21.5875 12.28C21.3841 12.251 21.1753 12.217 20.9612 12.1781L20.7823 13.1619ZM21.4715 13.2729C21.7058 13.2942 21.9359 13.305 22.1618 13.305V12.305C21.9676 12.305 21.7678 12.2958 21.562 12.2771L21.4715 13.2729ZM22.1618 13.305C22.8087 13.305 23.4065 13.2133 23.9487 13.0213L23.6149 12.0787C23.1971 12.2267 22.7148 12.305 22.1618 12.305V13.305ZM23.9487 13.0213C24.5115 12.822 24.9758 12.4973 25.3205 12.0417L24.5231 11.4383C24.3078 11.7227 24.012 11.938 23.6149 12.0787L23.9487 13.0213ZM25.3205 12.0417C25.6822 11.5637 25.8418 10.969 25.8418 10.3H24.8418C24.8418 10.811 24.7213 11.1763 24.5231 11.4383L25.3205 12.0417ZM25.8418 10.3C25.8418 9.4659 25.5514 8.77076 24.9108 8.31699L24.3328 9.13301C24.6521 9.35924 24.8418 9.7141 24.8418 10.3H25.8418ZM24.9164 8.321C24.3228 7.88818 23.5517 7.7 22.6568 7.7V8.7C23.4218 8.7 23.9608 8.86181 24.3272 9.129L24.9164 8.321ZM22.6568 7.7H20.8718V8.7H22.6568V7.7ZM20.3718 8.2V12.67H21.3718V8.2H20.3718ZM35.2729 8.725L34.9291 9.08798L34.9311 9.08989L35.2729 8.725ZM35.9929 15.37L35.5632 15.1143L35.5609 15.1184L35.9929 15.37ZM34.0579 17.185L34.2794 17.6333L34.2837 17.6311L34.0579 17.185ZM29.5729 16.945H29.0729V17.445H29.5729V16.945ZM33.5479 16.465L33.7609 16.9174L33.7662 16.9148L33.5479 16.465ZM35.1379 14.98L34.7075 14.7256L34.7046 14.7305L35.1379 14.98ZM34.5979 9.325L34.2468 9.68093L34.2492 9.6833L34.5979 9.325ZM29.5729 8.215V7.715H29.0729V8.215H29.5729ZM29.0979 17.71V7.465H28.0979V17.71H29.0979ZM29.0979 7.465C29.0979 7.51207 29.0858 7.63921 28.974 7.75105C28.8622 7.86289 28.735 7.875 28.6879 7.875V6.875C28.5809 6.875 28.4087 6.90211 28.2669 7.04395C28.1251 7.18579 28.0979 7.35793 28.0979 7.465H29.0979ZM28.6879 7.875H31.0429V6.875H28.6879V7.875ZM31.0429 7.875C32.8398 7.875 34.1053 8.30755 34.9291 9.08798L35.6168 8.36202C34.5406 7.34245 32.9861 6.875 31.0429 6.875V7.875ZM34.9311 9.08989C35.7559 9.86263 36.1979 10.9761 36.1979 12.505H37.1979C37.1979 10.7739 36.69 9.36737 35.6148 8.36011L34.9311 9.08989ZM36.1979 12.505C36.1979 13.5546 35.9781 14.417 35.5632 15.1144L36.4227 15.6256C36.9478 14.743 37.1979 13.6954 37.1979 12.505H36.1979ZM35.5609 15.1184C35.1503 15.8235 34.5777 16.3616 33.8322 16.7389L34.2837 17.6311C35.1982 17.1684 35.9156 16.4965 36.425 15.6216L35.5609 15.1184ZM33.8365 16.7367C33.0872 17.1069 32.2005 17.3 31.1629 17.3V18.3C32.3254 18.3 33.3687 18.0831 34.2794 17.6333L33.8365 16.7367ZM31.1629 17.3H28.6879V18.3H31.1629V17.3ZM28.6879 17.3C28.735 17.3 28.8622 17.3121 28.974 17.4239C29.0858 17.5358 29.0979 17.6629 29.0979 17.71H28.0979C28.0979 17.8171 28.1251 17.9892 28.2669 18.1311C28.4087 18.2729 28.5809 18.3 28.6879 18.3V17.3ZM29.5729 17.445H31.1629V16.445H29.5729V17.445ZM31.1629 17.445C32.1313 17.445 33.0017 17.2747 33.7608 16.9174L33.3351 16.0126C32.7342 16.2953 32.0146 16.445 31.1629 16.445V17.445ZM33.7662 16.9148C34.5371 16.5407 35.1417 15.9756 35.5713 15.2295L34.7046 14.7305C34.3742 15.3044 33.9188 15.7293 33.3297 16.0152L33.7662 16.9148ZM35.5684 15.2344C36.015 14.4787 36.2229 13.565 36.2229 12.52H35.2229C35.2229 13.435 35.0409 14.1613 34.7075 14.7256L35.5684 15.2344ZM36.2229 12.52C36.2229 11.0323 35.8227 9.81933 34.9467 8.9667L34.2492 9.6833C34.8732 10.2907 35.2229 11.2077 35.2229 12.52H36.2229ZM34.9491 8.96908C34.0658 8.09757 32.7254 7.715 31.0429 7.715V8.715C32.6005 8.715 33.6301 9.07243 34.2468 9.68092L34.9491 8.96908ZM31.0429 7.715H29.5729V8.715H31.0429V7.715ZM29.0729 8.215V16.945H30.0729V8.215H29.0729Z" fill="black"/>
</svg>
