<svg width="18" height="9" viewBox="0 0 18 9" fill="none" xmlns="http://www.w3.org/2000/svg">
<path d="M3.744 6.888C4.072 6.888 4.348 6.84 4.572 6.744C4.804 6.648 5 6.54 5.16 6.42C5.32 6.3 5.46 6.192 5.58 6.096C5.708 6 5.836 5.952 5.964 5.952C6.124 5.952 6.204 6.072 6.204 6.312C6.204 6.44 6.188 6.596 6.156 6.78C6.124 6.956 6.08 7.156 6.024 7.38C5.992 7.516 5.912 7.664 5.784 7.824C5.664 7.984 5.496 8.136 5.28 8.28C5.064 8.416 4.796 8.532 4.476 8.628C4.164 8.716 3.804 8.76 3.396 8.76C2.988 8.76 2.58 8.7 2.172 8.58C1.764 8.46 1.4 8.256 1.08 7.968C0.76 7.68 0.5 7.292 0.3 6.804C0.1 6.316 0 5.704 0 4.968C0 4.704 0.016 4.4 0.048 4.056C0.088 3.704 0.16 3.344 0.264 2.976C0.368 2.608 0.512 2.248 0.696 1.896C0.888 1.536 1.132 1.216 1.428 0.936C1.724 0.656 2.084 0.432 2.508 0.264C2.94 0.0880001 3.452 0 4.044 0C4.516 0 4.924 0.056 5.268 0.168C5.62 0.28 5.908 0.436 6.132 0.636C6.364 0.828 6.532 1.056 6.636 1.32C6.748 1.584 6.804 1.864 6.804 2.16C6.804 2.672 6.652 3.048 6.348 3.288C6.052 3.52 5.628 3.636 5.076 3.636C4.9 3.636 4.788 3.624 4.74 3.6C4.7 3.568 4.68 3.508 4.68 3.42C4.672 3.148 4.664 2.912 4.656 2.712C4.648 2.512 4.62 2.348 4.572 2.22C4.524 2.084 4.448 1.988 4.344 1.932C4.248 1.868 4.112 1.836 3.936 1.836C3.68 1.836 3.46 1.892 3.276 2.004C3.1 2.108 2.948 2.248 2.82 2.424C2.7 2.592 2.6 2.784 2.52 3C2.448 3.216 2.388 3.436 2.34 3.66C2.3 3.884 2.272 4.1 2.256 4.308C2.248 4.516 2.244 4.696 2.244 4.848C2.244 5.584 2.364 6.108 2.604 6.42C2.852 6.732 3.232 6.888 3.744 6.888Z" fill="black"/>
<path d="M15.1583 2.244C15.0943 2.436 15.0103 2.688 14.9062 3C14.8102 3.304 14.7023 3.64 14.5823 4.008C14.4623 4.376 14.3383 4.768 14.2102 5.184C14.0823 5.592 13.9503 5.992 13.8142 6.384C13.6863 6.776 13.5583 7.152 13.4303 7.512C13.3023 7.864 13.1863 8.172 13.0823 8.436C13.0503 8.5 12.9822 8.552 12.8783 8.592C12.7822 8.624 12.6263 8.64 12.4103 8.64C12.2743 8.64 12.1343 8.632 11.9903 8.616C11.8463 8.6 11.7103 8.568 11.5823 8.52C11.4623 8.472 11.3543 8.408 11.2583 8.328C11.1703 8.248 11.1023 8.148 11.0543 8.028C10.9343 7.62 10.8183 7.168 10.7063 6.672C10.6023 6.168 10.4983 5.656 10.3942 5.136C10.2902 4.616 10.1863 4.108 10.0823 3.612C9.98625 3.108 9.88625 2.652 9.78225 2.244C9.78225 2.356 9.77825 2.548 9.77025 2.82C9.76225 3.092 9.75425 3.408 9.74625 3.768C9.73825 4.128 9.72625 4.516 9.71025 4.932C9.70225 5.348 9.69425 5.756 9.68625 6.156C9.67825 6.548 9.67025 6.916 9.66225 7.26C9.65425 7.596 9.65025 7.872 9.65025 8.088C9.65025 8.328 9.63425 8.48 9.60225 8.544C9.57825 8.608 9.53025 8.64 9.45825 8.64H8.79825C8.34225 8.64 8.01825 8.552 7.82625 8.376C7.64225 8.192 7.55025 7.924 7.55025 7.572C7.55025 7.476 7.55425 7.316 7.56225 7.092C7.57825 6.86 7.59825 6.588 7.62225 6.276C7.64625 5.964 7.67025 5.624 7.69425 5.256C7.72625 4.88 7.75825 4.5 7.79025 4.116C7.83025 3.596 7.86225 3.164 7.88625 2.82C7.91825 2.468 7.94225 2.176 7.95825 1.944C7.97425 1.712 7.98625 1.524 7.99425 1.38C8.01025 1.236 8.01825 1.108 8.01825 0.996C8.02625 0.884 8.03025 0.78 8.03025 0.684C8.03825 0.58 8.04225 0.452 8.04225 0.3C8.04225 0.236 8.06625 0.192 8.11425 0.168C8.16225 0.136 8.20625 0.12 8.24625 0.12H9.92625C10.2383 0.12 10.4943 0.172 10.6943 0.276C10.8943 0.372 11.0582 0.524 11.1862 0.732C11.3142 0.94 11.4182 1.212 11.4983 1.548C11.5782 1.876 11.6503 2.268 11.7143 2.724C11.7863 3.18 11.8623 3.708 11.9423 4.308C12.0303 4.9 12.1423 5.568 12.2783 6.312C12.4063 5.816 12.5143 5.404 12.6023 5.076C12.6902 4.748 12.7622 4.476 12.8182 4.26C12.8822 4.036 12.9342 3.852 12.9742 3.708C13.0142 3.564 13.0503 3.432 13.0823 3.312C13.1143 3.184 13.1503 3.048 13.1903 2.904C13.2303 2.76 13.2783 2.58 13.3343 2.364C13.3903 2.148 13.4583 1.88 13.5382 1.56C13.6263 1.232 13.7343 0.82 13.8623 0.324C13.8783 0.276 13.9063 0.232 13.9463 0.192C13.9863 0.144 14.0583 0.12 14.1623 0.12H16.0343C16.2903 0.12 16.4942 0.148 16.6462 0.204C16.8063 0.252 16.9302 0.324 17.0182 0.42C17.1062 0.516 17.1662 0.636 17.1982 0.78C17.2302 0.916 17.2463 1.076 17.2463 1.26C17.2463 1.444 17.2343 1.744 17.2103 2.16C17.1943 2.568 17.1663 3.032 17.1263 3.552C17.0943 4.064 17.0582 4.596 17.0182 5.148C16.9862 5.7 16.9502 6.212 16.9102 6.684C16.8782 7.156 16.8502 7.556 16.8263 7.884C16.8022 8.212 16.7862 8.404 16.7782 8.46C16.7702 8.524 16.7543 8.572 16.7303 8.604C16.7063 8.628 16.6583 8.64 16.5863 8.64H15.9263C15.4703 8.64 15.1463 8.552 14.9543 8.376C14.7703 8.192 14.6783 7.956 14.6783 7.668C14.6783 7.58 14.6863 7.42 14.7023 7.188C14.7263 6.956 14.7543 6.684 14.7863 6.372C14.8183 6.06 14.8543 5.72 14.8943 5.352C14.9343 4.976 14.9703 4.604 15.0023 4.236C15.0343 3.868 15.0623 3.512 15.0863 3.168C15.1183 2.816 15.1423 2.508 15.1583 2.244Z" fill="black"/>
</svg>
