<svg width="34" height="17" viewBox="0 0 34 17" fill="none" xmlns="http://www.w3.org/2000/svg">
<path d="M7.13502 3.05999C7.13502 3.05999 7.12835 3.13999 7.11502 3.29999C7.11502 3.45999 7.11502 3.63999 7.11502 3.83999C7.11502 4.03999 7.11502 4.22666 7.11502 4.39999C7.12835 4.57332 7.13502 4.67332 7.13502 4.69999C7.20169 4.76666 7.32169 4.87999 7.49502 5.03999C7.66835 5.18666 7.81502 5.31332 7.93502 5.41999C8.06835 5.52666 8.20169 5.64666 8.33502 5.77999C8.48169 5.89999 8.62835 6.03332 8.77502 6.17999C8.86835 6.27332 8.95502 6.36666 9.03502 6.45999C9.11502 6.53999 9.18835 6.61332 9.25502 6.67999C9.50835 6.93332 9.76169 7.20666 10.015 7.49999C10.2684 7.79332 10.4417 8.09332 10.535 8.39999C10.575 8.51999 10.5817 8.65332 10.555 8.79999C10.5284 8.94666 10.4417 9.07332 10.295 9.17999C10.0684 9.31332 9.82835 9.37999 9.57502 9.37999C9.28169 9.37999 9.00169 9.31999 8.73502 9.19999C8.46835 9.07999 8.25502 8.95999 8.09502 8.83999C7.84169 8.65332 7.60835 8.45999 7.39502 8.25999C7.18169 8.04666 6.96835 7.83332 6.75502 7.61999C6.60835 7.47332 6.44169 7.30666 6.25502 7.11999C6.06835 6.91999 5.88169 6.74666 5.69502 6.59999L5.15502 7.13999C5.06169 7.23332 4.96835 7.32666 4.87502 7.41999C4.78169 7.49999 4.69502 7.58666 4.61502 7.67999C4.44169 7.86666 4.26169 8.05999 4.07502 8.25999C3.88835 8.44666 3.67502 8.62666 3.43502 8.79999C2.88835 9.19999 2.37502 9.39999 1.89502 9.39999C1.82835 9.39999 1.76835 9.39999 1.71502 9.39999C1.67502 9.39999 1.62169 9.38666 1.55502 9.35999C1.26169 9.29332 1.06835 9.17332 0.97502 8.99999C0.881686 8.85332 0.848353 8.68666 0.87502 8.49999C0.91502 8.31332 0.97502 8.14666 1.05502 7.99999C1.16169 7.85332 1.28169 7.71332 1.41502 7.57999C1.54835 7.43332 1.68169 7.28666 1.81502 7.13999C1.93502 7.00666 2.12169 6.81999 2.37502 6.57999C2.64169 6.32666 2.90835 6.07332 3.17502 5.81999C3.44169 5.55332 3.68835 5.31332 3.91502 5.09999C4.14169 4.88666 4.28169 4.75332 4.33502 4.69999V3.05999H3.05502C2.89502 3.05999 2.70835 3.06666 2.49502 3.07999C2.28169 3.07999 2.06835 3.06666 1.85502 3.03999C1.65502 3.01332 1.46835 2.95999 1.29502 2.87999C1.12169 2.78666 0.99502 2.63999 0.91502 2.43999C0.848353 2.29332 0.801686 2.12666 0.77502 1.93999C0.761686 1.75332 0.77502 1.57999 0.81502 1.41999C0.868353 1.23332 0.988353 1.10666 1.17502 1.03999C1.36169 0.959991 1.54169 0.906657 1.71502 0.87999C1.74169 0.87999 1.84835 0.87999 2.03502 0.87999C2.23502 0.87999 2.44835 0.87999 2.67502 0.87999C2.90169 0.87999 3.11502 0.87999 3.31502 0.87999C3.51502 0.87999 3.63502 0.873324 3.67502 0.859991H8.35502C8.88835 0.859991 9.33502 0.893324 9.69502 0.959991C10.0684 1.02666 10.3684 1.19332 10.595 1.45999C10.6617 1.53999 10.7017 1.64666 10.715 1.77999C10.7417 1.91332 10.7417 2.05332 10.715 2.19999C10.7017 2.33332 10.6617 2.45999 10.595 2.57999C10.5417 2.69999 10.4617 2.78666 10.355 2.83999C10.2484 2.87999 10.1217 2.92666 9.97502 2.97999C9.82835 3.01999 9.70169 3.04666 9.59502 3.05999C9.40835 3.07332 9.21502 3.07999 9.01502 3.07999C8.82835 3.06666 8.64169 3.05999 8.45502 3.05999H7.13502ZM14.795 14.26C14.795 14.26 14.835 14.2733 14.915 14.3C15.0084 14.3267 15.1084 14.3733 15.215 14.44C15.3217 14.4933 15.4217 14.5733 15.515 14.68C15.6084 14.7733 15.6684 14.8867 15.695 15.02C15.7617 15.5267 15.675 15.92 15.435 16.2C15.275 16.3867 15.1017 16.5 14.915 16.54C14.7284 16.58 14.6284 16.6 14.615 16.6H4.19502C3.64835 16.6 3.22169 16.5133 2.91502 16.34C2.60835 16.18 2.45502 15.9467 2.45502 15.64V12.8C2.45502 12.72 2.44835 12.62 2.43502 12.5C2.43502 12.38 2.43502 12.2533 2.43502 12.12C2.43502 11.9733 2.43502 11.84 2.43502 11.72C2.44835 11.6 2.45502 11.5 2.45502 11.42C2.48169 11.14 2.61502 10.9133 2.85502 10.74C3.09502 10.5667 3.36835 10.48 3.67502 10.48C3.74169 10.48 3.82169 10.4867 3.91502 10.5C4.02169 10.5 4.10835 10.5133 4.17502 10.54C4.34835 10.5933 4.48835 10.6867 4.59502 10.82C4.70169 10.94 4.78169 11.08 4.83502 11.24C4.88835 11.4 4.92169 11.5733 4.93502 11.76C4.94835 11.9333 4.96169 12.0933 4.97502 12.24C4.97502 12.2933 4.97502 12.42 4.97502 12.62C4.97502 12.82 4.97502 13.0333 4.97502 13.26C4.97502 13.4867 4.97502 13.6933 4.97502 13.88C4.97502 14.0667 4.97502 14.18 4.97502 14.22C5.01502 14.2333 5.12169 14.2533 5.29502 14.28C5.48169 14.2933 5.82169 14.3 6.31502 14.3C6.74169 14.3 7.12169 14.2933 7.45502 14.28C7.78835 14.2667 7.96169 14.26 7.97502 14.26H14.795ZM15.135 8.99999C15.135 8.99999 15.1284 9.04666 15.115 9.13999C15.1017 9.23332 15.075 9.33999 15.035 9.45999C14.995 9.57999 14.935 9.70666 14.855 9.83999C14.775 9.95999 14.6684 10.06 14.535 10.14C14.3484 10.2467 14.1617 10.3 13.975 10.3C13.7484 10.3 13.5284 10.2267 13.315 10.08C13.1684 9.97332 13.055 9.83332 12.975 9.65999C12.8684 9.45999 12.795 9.23999 12.755 8.99999C12.7284 8.75999 12.7084 8.51332 12.695 8.25999C12.695 8.00666 12.7017 7.75999 12.715 7.51999C12.7284 7.26666 12.735 7.02666 12.735 6.79999C12.735 6.51999 12.735 6.20666 12.735 5.85999C12.7484 5.51332 12.755 5.15999 12.755 4.79999C12.755 4.43999 12.755 4.08666 12.755 3.73999C12.755 3.39332 12.755 3.07999 12.755 2.79999V2.53999C12.7417 2.39332 12.735 2.23999 12.735 2.07999C12.7484 1.90666 12.775 1.74666 12.815 1.59999C12.8684 1.39999 12.9884 1.18666 13.175 0.959991C13.2817 0.826657 13.4284 0.733324 13.615 0.679991C13.815 0.613324 14.0284 0.593324 14.255 0.61999C14.655 0.686657 14.9217 0.85999 15.055 1.13999C15.135 1.31332 15.1684 1.52666 15.155 1.77999C15.155 2.03332 15.1484 2.18666 15.135 2.23999V8.99999Z" fill="#433232"/>
<path d="M31.6163 8.57999C31.8429 8.59332 32.0696 8.62666 32.2963 8.67999C32.5363 8.73332 32.7496 8.83332 32.9363 8.97999C33.1229 9.12666 33.2163 9.33332 33.2163 9.59999C33.2163 9.73332 33.1896 9.87999 33.1363 10.04C33.0963 10.2 33.0363 10.3133 32.9563 10.38C32.8496 10.4867 32.7096 10.5667 32.5363 10.62C32.3763 10.66 32.2163 10.6933 32.0563 10.72C31.8963 10.7333 31.7563 10.74 31.6363 10.74C31.5296 10.74 31.4696 10.74 31.4563 10.74L20.7963 10.76C20.4896 10.7733 20.1696 10.7733 19.8363 10.76C19.5163 10.7467 19.2429 10.6467 19.0163 10.46C18.7096 10.2333 18.5563 9.97332 18.5563 9.67999C18.5563 9.49332 18.6163 9.30666 18.7363 9.11999C18.8696 8.91999 19.0429 8.78666 19.2563 8.71999C19.5363 8.62666 19.8229 8.58666 20.1163 8.59999C20.4096 8.59999 20.7096 8.59332 21.0163 8.57999C21.3363 8.56666 21.6096 8.55999 21.8363 8.55999C22.0763 8.55999 22.3029 8.55999 22.5163 8.55999C22.7429 8.55999 22.9763 8.56666 23.2163 8.57999C23.4563 8.57999 23.7429 8.57999 24.0763 8.57999V7.57999H22.4563C22.2563 7.57999 22.0363 7.57999 21.7963 7.57999C21.5563 7.56666 21.3163 7.53999 21.0763 7.49999C20.8496 7.45999 20.6363 7.40666 20.4363 7.33999C20.2363 7.25999 20.0696 7.15332 19.9363 7.01999C19.8029 6.91332 19.7029 6.76666 19.6363 6.57999C19.5829 6.37999 19.5429 6.18666 19.5163 5.99999C19.4896 5.81332 19.4763 5.65332 19.4763 5.51999C19.4896 5.37332 19.4963 5.29332 19.4963 5.27999V1.61999C19.4963 1.60666 19.4963 1.56666 19.4963 1.49999C19.4963 1.41999 19.4963 1.33332 19.4963 1.23999C19.5096 1.13332 19.5296 1.03332 19.5563 0.939991C19.5829 0.846657 19.6163 0.773323 19.6563 0.71999C19.7629 0.573324 19.8696 0.473324 19.9763 0.41999C20.0963 0.353324 20.2496 0.306657 20.4363 0.279991C20.5696 0.253324 20.7096 0.23999 20.8563 0.23999H29.9963C30.1163 0.23999 30.2296 0.246657 30.3363 0.25999C30.4563 0.25999 30.5763 0.273324 30.6963 0.299991C30.8163 0.326657 30.9296 0.353324 31.0363 0.379991C31.1429 0.406657 31.2429 0.466657 31.3363 0.559991C31.4163 0.626657 31.4763 0.699991 31.5163 0.77999C31.5563 0.85999 31.5896 0.93999 31.6163 1.01999C31.6429 1.09999 31.6563 1.17999 31.6563 1.25999C31.6696 1.32666 31.6629 1.39999 31.6363 1.47999C31.6096 1.69332 31.5029 1.87332 31.3163 2.01999C31.1429 2.15332 30.9163 2.21999 30.6363 2.21999H22.0963V2.99999C22.2296 2.99999 22.4496 2.99999 22.7563 2.99999C23.0629 2.99999 23.4096 2.99999 23.7963 2.99999C24.1829 2.99999 24.5763 2.99999 24.9763 2.99999C25.3896 2.99999 25.7696 2.99999 26.1163 2.99999C26.4629 2.99999 26.7429 2.99999 26.9563 2.99999C27.1829 2.99999 27.2963 2.99999 27.2963 2.99999H29.1363C29.1896 2.99999 29.2496 3.00666 29.3163 3.01999C29.3829 3.01999 29.4496 3.01332 29.5163 2.99999H30.0363C30.1696 2.99999 30.3096 3.01332 30.4563 3.03999C30.6029 3.05332 30.7363 3.09332 30.8563 3.15999C31.0429 3.23999 31.1629 3.36666 31.2163 3.53999C31.2829 3.71332 31.3029 3.87332 31.2763 4.01999C31.2629 4.09999 31.2496 4.17999 31.2363 4.25999C31.2363 4.33999 31.2029 4.41332 31.1363 4.47999C30.9896 4.63999 30.8363 4.73999 30.6763 4.77999C30.5296 4.81999 30.3696 4.83999 30.1963 4.83999H22.0763L22.0963 5.33999C22.0829 5.48666 22.0896 5.53999 22.1163 5.49999C22.1429 5.45999 22.1763 5.44666 22.2163 5.45999C22.2963 5.49999 22.4363 5.53332 22.6363 5.55999C22.8496 5.57332 23.0696 5.57999 23.2963 5.57999H23.3963C23.4629 5.57999 23.6229 5.57999 23.8763 5.57999C24.1296 5.56666 24.4296 5.55999 24.7763 5.55999C25.1229 5.55999 25.4896 5.55999 25.8763 5.55999C26.2763 5.55999 26.6496 5.55999 26.9963 5.55999C27.3429 5.55999 27.6429 5.56666 27.8963 5.57999C28.1496 5.57999 28.3096 5.57999 28.3763 5.57999H29.3163C29.4229 5.57999 29.5096 5.57332 29.5763 5.55999H29.9163C30.1163 5.55999 30.3163 5.56666 30.5163 5.57999C30.7296 5.57999 30.9363 5.60666 31.1363 5.65999C31.1629 5.65999 31.1963 5.66666 31.2363 5.67999C31.2763 5.69332 31.3096 5.70666 31.3363 5.71999C31.4963 5.81332 31.6096 5.93332 31.6763 6.07999C31.7563 6.22666 31.7896 6.37999 31.7763 6.53999C31.7629 6.69999 31.7029 6.84666 31.5963 6.97999C31.5029 7.11332 31.3696 7.21999 31.1963 7.29999C30.9296 7.41999 30.6363 7.49999 30.3163 7.53999C30.0096 7.56666 29.7229 7.57999 29.4563 7.57999H28.6363C28.5296 7.59332 28.3029 7.59999 27.9563 7.59999C27.6096 7.59999 27.2563 7.59999 26.8963 7.59999C26.9096 7.75999 26.9163 7.92666 26.9163 8.09999C26.9163 8.27332 26.9163 8.43332 26.9163 8.57999C27.2896 8.57999 27.6896 8.57999 28.1163 8.57999C28.5429 8.56666 28.9696 8.55999 29.3963 8.55999C29.8229 8.55999 30.2296 8.55999 30.6163 8.55999C31.0029 8.55999 31.3363 8.56666 31.6163 8.57999ZM19.1963 13.96C19.1963 13.4 19.3696 12.9467 19.7163 12.6C20.0629 12.2533 20.5296 11.9933 21.1163 11.82C21.7029 11.6333 22.3896 11.5133 23.1763 11.46C23.9763 11.3933 24.8296 11.36 25.7363 11.36C26.6429 11.36 27.4896 11.38 28.2763 11.42C29.0763 11.4467 29.7696 11.5467 30.3563 11.72C30.9563 11.88 31.4296 12.14 31.7763 12.5C32.1229 12.8467 32.2963 13.3333 32.2963 13.96C32.2963 14.5867 32.1229 15.0733 31.7763 15.42C31.4296 15.7667 30.9563 16.02 30.3563 16.18C29.7696 16.3533 29.0763 16.46 28.2763 16.5C27.4896 16.54 26.6429 16.56 25.7363 16.56C24.8296 16.56 23.9763 16.54 23.1763 16.5C22.3896 16.46 21.7029 16.3533 21.1163 16.18C20.5296 16.02 20.0629 15.7667 19.7163 15.42C19.3696 15.0733 19.1963 14.5867 19.1963 13.96ZM29.6563 13.96C29.6563 13.7467 29.5363 13.5867 29.2963 13.48C29.0696 13.36 28.7629 13.28 28.3763 13.24C28.0029 13.1867 27.5829 13.16 27.1163 13.16C26.6496 13.1467 26.1896 13.14 25.7363 13.14C25.2829 13.14 24.8296 13.1467 24.3763 13.16C23.9229 13.16 23.5163 13.1867 23.1563 13.24C22.7963 13.28 22.5029 13.36 22.2763 13.48C22.0629 13.5867 21.9563 13.7467 21.9563 13.96C21.9563 14.1467 22.0629 14.3 22.2763 14.42C22.5029 14.5267 22.7963 14.6067 23.1563 14.66C23.5163 14.7133 23.9229 14.7467 24.3763 14.76C24.8296 14.7733 25.2829 14.78 25.7363 14.78C26.1896 14.78 26.6496 14.7867 27.1163 14.8C27.5829 14.8 28.0029 14.78 28.3763 14.74C28.7629 14.7 29.0696 14.6267 29.2963 14.52C29.5363 14.4 29.6563 14.2133 29.6563 13.96Z" fill="#433232"/>
</svg>
