<svg width="32" height="18" viewBox="0 0 32 18" fill="none" xmlns="http://www.w3.org/2000/svg">
<path d="M12.1 3.9C12.3133 4.20667 12.4667 4.58667 12.56 5.04C12.6667 5.48 12.7 5.95333 12.66 6.46C12.6067 7.04667 12.4533 7.55333 12.2 7.98C11.96 8.39333 11.64 8.74 11.24 9.02C10.84 9.3 10.3733 9.52 9.84 9.68C9.32 9.82667 8.75333 9.91333 8.14 9.94H7.14C6.63333 9.94 6.06667 9.89333 5.44 9.8C4.82667 9.69333 4.24 9.5 3.68 9.22C3.13333 8.92667 2.67333 8.52667 2.3 8.02C1.94 7.51333 1.76 6.84667 1.76 6.02C1.76 5.63333 1.8 5.25333 1.88 4.88C1.97333 4.49333 2.1 4.16667 2.26 3.9H1.82C1.51333 3.9 1.24667 3.8 1.02 3.6C0.806667 3.38667 0.7 3.13333 0.7 2.84C0.7 2.54667 0.806667 2.3 1.02 2.1C1.24667 1.88667 1.51333 1.78 1.82 1.78H5.72V1.02C5.72 0.9 5.74 0.78 5.78 0.66C5.82 0.526667 5.89333 0.413333 6 0.319999C6.10667 0.226667 6.26 0.153333 6.46 0.0999999C6.66 0.0333333 6.92 0 7.24 0C7.56 0 7.82 0.0333333 8.02 0.0999999C8.22 0.153333 8.37333 0.226667 8.48 0.319999C8.6 0.413333 8.67333 0.526667 8.7 0.66C8.74 0.78 8.76 0.9 8.76 1.02V1.78H12.84C13.1467 1.78 13.4133 1.88667 13.64 2.1C13.8667 2.3 13.98 2.54667 13.98 2.84C13.98 3.13333 13.8667 3.38667 13.64 3.6C13.4133 3.8 13.1467 3.9 12.84 3.9H12.1ZM12.78 11.04C12.9933 11.0267 13.2133 11.0333 13.44 11.06C13.68 11.0733 13.9 11.12 14.1 11.2C14.3 11.28 14.46 11.4 14.58 11.56C14.7133 11.72 14.78 11.94 14.78 12.22C14.78 12.5533 14.6667 12.8067 14.44 12.98C14.2133 13.14 13.94 13.26 13.62 13.34C13.3133 13.4067 12.9867 13.4467 12.64 13.46C12.3067 13.46 12.0333 13.46 11.82 13.46C11.7533 13.46 11.6933 13.4667 11.64 13.48C11.5867 13.48 11.5267 13.48 11.46 13.48C11.4733 13.8667 11.48 14.2533 11.48 14.64C11.4933 15.0133 11.48 15.3667 11.44 15.7C11.4 15.9533 11.3333 16.1933 11.24 16.42C11.1467 16.66 10.9867 16.8533 10.76 17C10.56 17.1333 10.3267 17.2 10.06 17.2C9.79333 17.2 9.55333 17.14 9.34 17.02C9.16667 16.9133 9.03333 16.76 8.94 16.56C8.86 16.36 8.8 16.1667 8.76 15.98C8.73333 15.8333 8.72667 15.6733 8.74 15.5C8.75333 15.3267 8.75333 15.1667 8.74 15.02V13.48L6.1 13.46C6.11333 13.8733 6.12667 14.2267 6.14 14.52C6.15333 14.8133 6.13333 15.1333 6.08 15.48C6.04 15.7333 5.97333 15.98 5.88 16.22C5.78667 16.4467 5.62667 16.6333 5.4 16.78C5.2 16.9133 4.96667 16.98 4.7 16.98C4.43333 16.98 4.19333 16.92 3.98 16.8C3.80667 16.6933 3.67333 16.54 3.58 16.34C3.5 16.14 3.44 15.9467 3.4 15.76C3.37333 15.6133 3.36667 15.4533 3.38 15.28C3.39333 15.1067 3.39333 14.9467 3.38 14.8V13.46L1.76 13.48C1.45333 13.48 1.16 13.44 0.88 13.36C0.6 13.28 0.38 13.1067 0.22 12.84C0.0733333 12.6133 0 12.3733 0 12.12C0.0133333 11.8667 0.113333 11.64 0.3 11.44C0.393333 11.3333 0.52 11.2533 0.68 11.2C0.84 11.1467 0.993333 11.1133 1.14 11.1C1.3 11.0733 1.43333 11.06 1.54 11.06C1.66 11.06 1.72667 11.06 1.74 11.06L12.78 11.04ZM9.94 6.62C10.06 5.75333 9.9 5.11333 9.46 4.7C9.02 4.28667 8.36667 4.05333 7.5 4C6.75333 3.97333 6.10667 4.09333 5.56 4.36C5.01333 4.62667 4.68667 5.1 4.58 5.78C4.5 6.56667 4.68667 7.12667 5.14 7.46C5.60667 7.79333 6.28667 7.96 7.18 7.96C7.54 7.96 7.87333 7.94 8.18 7.9C8.5 7.86 8.78 7.79333 9.02 7.7C9.26 7.59333 9.46 7.45333 9.62 7.28C9.78 7.10667 9.88667 6.88667 9.94 6.62Z" fill="#433232"/>
<path d="M29.2059 11.24C29.6459 11.2133 29.9726 11.2467 30.1859 11.34C30.2793 11.3933 30.3726 11.4467 30.4659 11.5C30.5726 11.54 30.6593 11.6 30.7259 11.68C30.7926 11.7467 30.8459 11.8133 30.8859 11.88C30.9259 11.9467 30.9526 12.02 30.9659 12.1C30.9926 12.1667 31.0126 12.24 31.0259 12.32C31.0526 12.4 31.0659 12.4933 31.0659 12.6V15.36C31.0659 15.72 31.0459 16.0133 31.0059 16.24C30.9793 16.4667 30.9326 16.6467 30.8659 16.78C30.7993 16.9133 30.7193 17.0133 30.6259 17.08C30.5326 17.1467 30.4259 17.2 30.3059 17.24C29.9859 17.3467 29.6459 17.3733 29.2859 17.32C28.9393 17.28 28.6859 17.0867 28.5259 16.74C28.4859 16.6467 28.4593 16.5067 28.4459 16.32C28.4326 16.1333 28.4193 15.9333 28.4059 15.72C28.4059 15.4933 28.4059 15.26 28.4059 15.02C28.4193 14.78 28.4259 14.56 28.4259 14.36C28.4259 14.0933 28.3259 13.9267 28.1259 13.86C27.9259 13.78 27.7059 13.74 27.4659 13.74H24.7059C24.0526 13.74 23.4059 13.7467 22.7659 13.76C22.1259 13.7733 21.4726 13.7667 20.8059 13.74C20.4459 13.74 20.0659 13.7467 19.6659 13.76C19.2793 13.76 18.9059 13.7067 18.5459 13.6C18.2393 13.4933 18.0259 13.3 17.9059 13.02C17.7859 12.7267 17.7659 12.4267 17.8459 12.12C17.9259 11.9067 18.0259 11.74 18.1459 11.62C18.2659 11.5 18.4059 11.4133 18.5659 11.36C18.7259 11.2933 18.8993 11.26 19.0859 11.26C19.2726 11.2467 19.4726 11.24 19.6859 11.24H29.2059ZM17.8459 9.42C17.7126 9.34 17.5993 9.19333 17.5059 8.98C17.4393 8.83333 17.3993 8.69333 17.3859 8.56C17.3859 8.42667 17.3993 8.29333 17.4259 8.16C17.5059 7.86667 17.6193 7.6 17.7659 7.36C17.8593 7.26667 17.9459 7.16 18.0259 7.04C18.1193 6.92 18.2126 6.80667 18.3059 6.7C18.4259 6.59333 18.5259 6.5 18.6059 6.42C18.6993 6.32667 18.7793 6.22667 18.8459 6.12L19.5459 5.3C19.6526 5.14 19.7593 4.98667 19.8659 4.84C19.9859 4.69333 20.1059 4.54667 20.2259 4.4C20.2659 4.33333 20.3059 4.28 20.3459 4.24C20.3993 4.18667 20.4459 4.12667 20.4859 4.06C20.5526 3.99333 20.6059 3.93333 20.6459 3.88C20.6993 3.81333 20.7593 3.74667 20.8259 3.68C20.8793 3.6 20.9193 3.53333 20.9459 3.48C20.9859 3.41333 21.0326 3.34667 21.0859 3.28C21.0993 3.21333 21.1126 3.14667 21.1259 3.08C21.1393 3.01333 21.1459 2.94667 21.1459 2.88C21.1726 2.74667 21.1859 2.62667 21.1859 2.52C21.1993 2.41333 21.2059 2.30667 21.2059 2.2C21.2326 1.97333 21.2793 1.76 21.3459 1.56C21.3993 1.41333 21.4993 1.27333 21.6459 1.14C21.7393 1.1 21.8393 1.06 21.9459 1.02C22.0659 0.98 22.1993 0.96 22.3459 0.96C22.5459 0.96 22.7459 0.993333 22.9459 1.06C23.0659 1.08667 23.1526 1.13333 23.2059 1.2C23.2726 1.25333 23.3393 1.33333 23.4059 1.44C23.4993 1.72 23.5259 1.99333 23.4859 2.26C23.4459 2.48667 23.4726 2.76667 23.5659 3.1C23.6326 3.3 23.7459 3.48 23.9059 3.64C24.2926 4.04 24.6459 4.47333 24.9659 4.94C25.2993 5.40667 25.6393 5.86667 25.9859 6.32C26.0793 6.46667 26.1726 6.61333 26.2659 6.76C26.3726 6.90667 26.4793 7.05333 26.5859 7.2C26.6659 7.34667 26.7393 7.50667 26.8059 7.68C26.8859 7.84 26.9393 8 26.9659 8.16C27.0326 8.46667 26.9993 8.72 26.8659 8.92C26.7993 9.04 26.7259 9.13333 26.6459 9.2C26.5659 9.26667 26.4726 9.32667 26.3659 9.38C26.2593 9.40667 26.1526 9.43333 26.0459 9.46C25.9393 9.47333 25.8193 9.46667 25.6859 9.44C25.4326 9.41333 25.2126 9.32 25.0259 9.16C24.7593 8.89333 24.5126 8.62667 24.2859 8.36C24.0593 8.09333 23.8526 7.82 23.6659 7.54L22.4059 5.92C22.2859 6.05333 22.1726 6.17333 22.0659 6.28C21.9593 6.37333 21.8526 6.47333 21.7459 6.58C21.6659 6.67333 21.5726 6.77333 21.4659 6.88C21.3726 6.98667 21.2659 7.09333 21.1459 7.2C21.0393 7.33333 20.9326 7.45333 20.8259 7.56C20.7326 7.65333 20.6459 7.75333 20.5659 7.86C20.4593 7.98 20.3659 8.09333 20.2859 8.2C20.2193 8.29333 20.1526 8.37333 20.0859 8.44C20.0059 8.50667 19.9393 8.57333 19.8859 8.64C19.8459 8.70667 19.8193 8.74667 19.8059 8.76C19.7393 8.84 19.6593 8.91333 19.5659 8.98C19.4859 9.04667 19.4059 9.12 19.3259 9.2C19.2459 9.26667 19.1526 9.32 19.0459 9.36C18.9526 9.4 18.8459 9.42667 18.7259 9.44C18.6726 9.46667 18.6059 9.48667 18.5259 9.5C18.4459 9.5 18.3726 9.5 18.3059 9.5C18.2259 9.5 18.1459 9.49333 18.0659 9.48C17.9993 9.45333 17.9259 9.43333 17.8459 9.42ZM31.3859 8.64C31.3593 8.94667 31.2526 9.24 31.0659 9.52C30.8793 9.78667 30.5993 9.92 30.2259 9.92C29.9459 9.92 29.7193 9.86 29.5459 9.74C29.3859 9.60667 29.2659 9.44 29.1859 9.24C29.1059 9.04 29.0526 8.82 29.0259 8.58C28.9993 8.34 28.9859 8.1 28.9859 7.86V2.94C28.9859 2.66 28.9859 2.36667 28.9859 2.06C28.9993 1.75333 29.0859 1.46667 29.2459 1.2C29.3926 0.96 29.6126 0.82 29.9059 0.779999C30.2126 0.726666 30.4859 0.746666 30.7259 0.84C30.8859 0.933333 31.0126 1.05333 31.1059 1.2C31.1993 1.33333 31.2659 1.48 31.3059 1.64C31.3459 1.8 31.3659 1.96667 31.3659 2.14C31.3793 2.31333 31.3859 2.47333 31.3859 2.62C31.4126 3.63333 31.4193 4.63333 31.4059 5.62C31.3926 6.60667 31.3859 7.61333 31.3859 8.64Z" fill="#433232"/>
</svg>
