<svg width="78" height="20" viewBox="0 0 78 20" fill="none" xmlns="http://www.w3.org/2000/svg">
<path d="M4.6 0.552C4.79933 0.552 4.991 0.559667 5.175 0.575C5.359 0.590333 5.543 0.613333 5.727 0.644001C6.30967 0.736 6.82333 1.00433 7.268 1.449C7.636 1.84767 7.935 2.30767 8.165 2.829C8.395 3.335 8.57133 3.87167 8.694 4.439C8.832 5.00633 8.924 5.589 8.97 6.187C9.016 6.76967 9.05433 7.337 9.085 7.889C9.11567 8.59433 9.12333 9.29967 9.108 10.005C9.108 10.7103 9.06967 11.408 8.993 12.098C8.91633 12.8187 8.80133 13.547 8.648 14.283C8.51 15.0037 8.24933 15.6553 7.866 16.238C7.544 16.7287 7.153 17.135 6.693 17.457C6.24833 17.7637 5.76533 17.9707 5.244 18.078C4.76867 18.17 4.28567 18.1853 3.795 18.124C3.30433 18.0627 2.83667 17.9017 2.392 17.641C1.978 17.3957 1.64067 17.089 1.38 16.721C1.13467 16.353 0.904667 15.9237 0.69 15.433C0.383333 14.697 0.207 13.938 0.161 13.156C0.0996666 12.512 0.0536666 11.868 0.023 11.224C0.00766665 10.58 0 9.936 0 9.292C0 8.43333 0.046 7.57467 0.138 6.716C0.168667 6.36333 0.199333 6.01833 0.23 5.681C0.260667 5.32833 0.306667 4.98333 0.368 4.646C0.429333 4.37 0.483 4.10933 0.529 3.864C0.575 3.61867 0.659333 3.36567 0.782 3.105C0.904667 2.84433 1.035 2.599 1.173 2.369C1.32633 2.139 1.50267 1.932 1.702 1.748C2.346 1.104 3.12033 0.720667 4.025 0.598C4.117 0.582667 4.209 0.575 4.301 0.575C4.40833 0.575 4.508 0.567333 4.6 0.552ZM16.1 7.613C16.1767 7.613 16.2457 7.62067 16.307 7.636C16.3837 7.65133 16.4603 7.659 16.537 7.659C16.6137 7.67433 16.698 7.68967 16.79 7.705C16.882 7.705 16.974 7.71267 17.066 7.728C17.2347 7.75867 17.4033 7.82 17.572 7.912C17.7407 7.98867 17.8633 8.11133 17.94 8.28C18.0473 8.44867 18.101 8.648 18.101 8.878C18.101 9.00067 18.0933 9.11567 18.078 9.223C18.078 9.315 18.0627 9.42233 18.032 9.545C18.0013 9.66767 17.963 9.798 17.917 9.936C17.8863 10.074 17.8173 10.1813 17.71 10.258C17.4953 10.4113 17.2883 10.511 17.089 10.557C16.8437 10.5877 16.5447 10.5953 16.192 10.58C15.8393 10.5647 15.5403 10.5647 15.295 10.58C15.2797 10.58 15.2643 10.5877 15.249 10.603H15.226L15.203 10.626V10.695C15.203 10.879 15.203 11.1013 15.203 11.362C15.203 11.6227 15.203 11.891 15.203 12.167C15.203 12.4277 15.203 12.6883 15.203 12.949C15.203 13.1943 15.203 13.4167 15.203 13.616C15.2337 14.4133 15.2337 15.1953 15.203 15.962V16.284C15.203 16.4833 15.1953 16.7057 15.18 16.951C15.18 17.181 15.1647 17.411 15.134 17.641C15.1033 17.871 15.0497 18.0933 14.973 18.308C14.8963 18.5073 14.789 18.676 14.651 18.814C14.467 19.0287 14.2217 19.136 13.915 19.136C13.915 19.136 13.8997 19.1283 13.869 19.113C13.501 19.0977 13.202 18.9903 12.972 18.791C12.7573 18.5917 12.5887 18.3463 12.466 18.055C12.3587 17.7637 12.2897 17.4647 12.259 17.158C12.2283 16.836 12.213 16.5523 12.213 16.307V2.645C12.213 2.62967 12.213 2.56067 12.213 2.438C12.213 2.3 12.2283 2.14667 12.259 1.978C12.2897 1.794 12.3357 1.61 12.397 1.426C12.4737 1.22667 12.5733 1.06567 12.696 0.942999C12.8033 0.835667 12.9567 0.759 13.156 0.713C13.3707 0.651666 13.5623 0.620999 13.731 0.620999C14.0683 0.620999 14.352 0.736 14.582 0.966C14.7967 1.18067 14.9193 1.41067 14.95 1.656C14.996 1.886 15.0343 2.13133 15.065 2.392C15.0803 2.45333 15.088 2.54533 15.088 2.668C15.1187 2.92867 15.134 3.197 15.134 3.473C15.1493 3.749 15.1647 4.025 15.18 4.301C15.18 4.46967 15.18 4.63833 15.18 4.807C15.1953 4.96033 15.203 5.12133 15.203 5.29C15.1877 5.382 15.18 5.474 15.18 5.566C15.1953 5.64267 15.203 5.71933 15.203 5.796V7.061C15.203 7.13767 15.203 7.222 15.203 7.314C15.203 7.406 15.2183 7.49033 15.249 7.567C15.249 7.58233 15.3257 7.59 15.479 7.59C15.6323 7.59 15.7167 7.59 15.732 7.59C15.87 7.62067 15.9773 7.62833 16.054 7.613H16.1ZM4.531 15.019C4.82233 15.019 5.106 14.927 5.382 14.743C5.64267 14.559 5.82667 14.3137 5.934 14.007C6.04133 13.7003 6.13333 13.363 6.21 12.995C6.33267 12.2897 6.40167 11.5383 6.417 10.741C6.43233 9.94367 6.42467 9.177 6.394 8.441C6.394 8.14967 6.38633 7.843 6.371 7.521C6.35567 7.18367 6.325 6.854 6.279 6.532C6.24833 6.21 6.19467 5.90333 6.118 5.612C6.04133 5.30533 5.934 5.037 5.796 4.807C5.64267 4.54633 5.45867 4.347 5.244 4.209C5.02933 4.071 4.79933 4.01733 4.554 4.048C4.29333 4.07867 4.048 4.17067 3.818 4.324C3.60333 4.47733 3.427 4.70733 3.289 5.014L3.082 5.497C2.99 5.78833 2.921 6.095 2.875 6.417C2.829 6.72367 2.79067 7.03033 2.76 7.337C2.72933 7.64367 2.70633 7.958 2.691 8.28C2.67567 8.602 2.668 8.91633 2.668 9.223C2.68333 9.52967 2.67567 9.82867 2.645 10.12C2.62967 10.4113 2.63733 10.7103 2.668 11.017C2.69867 11.4157 2.737 11.845 2.783 12.305C2.84433 12.765 2.93633 13.202 3.059 13.616C3.197 14.0147 3.381 14.352 3.611 14.628C3.841 14.8887 4.14767 15.019 4.531 15.019Z" fill="black"/>
<path d="M35.2881 17.319C35.2574 17.503 35.2344 17.687 35.2191 17.871C35.2037 18.0397 35.1654 18.216 35.1041 18.4C35.0734 18.4613 35.0504 18.515 35.0351 18.561C35.0197 18.607 34.9967 18.6607 34.9661 18.722C34.8587 18.9367 34.7207 19.1053 34.5521 19.228C34.1994 19.4427 33.8084 19.4963 33.3791 19.389C33.1337 19.343 32.9344 19.251 32.7811 19.113C32.6431 18.9903 32.5357 18.8293 32.4591 18.63C32.3977 18.446 32.3441 18.262 32.2981 18.078C32.2674 17.894 32.2521 17.733 32.2521 17.595C32.2521 17.457 32.2521 17.3803 32.2521 17.365V3.151C32.2521 2.967 32.2521 2.76767 32.2521 2.553C32.2521 2.33833 32.2674 2.12367 32.2981 1.909C32.3287 1.69433 32.3747 1.495 32.4361 1.311C32.4974 1.127 32.5817 0.981333 32.6891 0.874C32.8577 0.705333 33.0341 0.605666 33.2181 0.575C33.4021 0.529 33.6014 0.506 33.8161 0.506C34.0767 0.506 34.3144 0.582666 34.5291 0.735999C34.7591 0.873999 34.9201 1.07333 35.0121 1.334C35.1501 1.656 35.2267 1.99333 35.2421 2.346C35.2574 2.69867 35.2727 3.05133 35.2881 3.404V3.519C35.3187 4.69967 35.3264 5.911 35.3111 7.153C35.2957 8.395 35.2881 9.568 35.2881 10.672V16.491C35.2881 16.629 35.2881 16.767 35.2881 16.905C35.3034 17.043 35.3034 17.181 35.2881 17.319ZM24.4321 15.065C24.4167 14.881 24.4091 14.697 24.4091 14.513C24.4091 14.329 24.4091 14.145 24.4091 13.961V6.647C24.4091 6.40167 24.4091 6.15633 24.4091 5.911C24.4091 5.66567 24.3937 5.41267 24.3631 5.152C24.3477 5.07533 24.3247 4.968 24.2941 4.83C24.2787 4.692 24.2327 4.60767 24.1561 4.577C24.0794 4.531 23.9874 4.51567 23.8801 4.531C23.7881 4.531 23.6961 4.52333 23.6041 4.508C23.4967 4.49267 23.3894 4.49267 23.2821 4.508C23.1901 4.52333 23.0904 4.52333 22.9831 4.508H21.9021C21.6414 4.52333 21.3807 4.52333 21.1201 4.508C20.8594 4.49267 20.5987 4.49267 20.3381 4.508C20.2154 4.52333 20.1004 4.531 19.9931 4.531C19.9011 4.51567 19.7937 4.508 19.6711 4.508C19.5024 4.508 19.3261 4.50033 19.1421 4.485C18.9581 4.46967 18.7894 4.40833 18.6361 4.301C18.4214 4.14767 18.2757 3.956 18.1991 3.726C18.1224 3.496 18.0841 3.25833 18.0841 3.013C18.0687 2.72167 18.1301 2.43033 18.2681 2.139C18.3447 1.955 18.4444 1.82467 18.5671 1.748C18.6437 1.67133 18.7511 1.61 18.8891 1.564C19.0424 1.50267 19.1727 1.45667 19.2801 1.426C19.6021 1.34933 19.9394 1.311 20.2921 1.311C20.6447 1.29567 20.9897 1.288 21.3271 1.288H25.3291C25.5284 1.31867 25.7354 1.34933 25.9501 1.38C26.1801 1.39533 26.3871 1.44133 26.5711 1.518C26.6937 1.564 26.8087 1.62533 26.9161 1.702C27.0387 1.77867 27.1384 1.87067 27.2151 1.978C27.3531 2.19267 27.4297 2.40733 27.4451 2.622C27.4757 2.83667 27.5064 3.07433 27.5371 3.335C27.5677 3.76433 27.5831 4.19367 27.5831 4.623C27.5831 5.037 27.5831 5.45867 27.5831 5.888V13.432C27.5831 13.4473 27.5831 13.57 27.5831 13.8C27.5984 14.0147 27.6061 14.2753 27.6061 14.582C27.6061 14.8733 27.6061 15.1877 27.6061 15.525C27.6061 15.847 27.5984 16.1307 27.5831 16.376C27.5677 16.5293 27.5447 16.6903 27.5141 16.859C27.4834 17.0277 27.4297 17.1887 27.3531 17.342C27.2917 17.4953 27.1997 17.6333 27.0771 17.756C26.9544 17.8787 26.7934 17.9783 26.5941 18.055C26.3334 18.1623 26.0727 18.216 25.8121 18.216C25.6127 18.216 25.4134 18.1777 25.2141 18.101C25.0147 18.009 24.8767 17.8787 24.8001 17.71C24.5547 17.2193 24.4321 16.675 24.4321 16.077V15.065Z" fill="black"/>
<path d="M51.485 6.003L50.243 7.245C49.9056 7.567 49.5683 7.88133 49.231 8.188C48.8936 8.49467 48.5486 8.80133 48.196 9.108C48.1653 9.13867 48.1346 9.16933 48.104 9.2C48.0733 9.21533 48.0426 9.23833 48.012 9.269C47.7206 9.52967 47.4293 9.80567 47.138 10.097C46.862 10.3883 46.5246 10.5953 46.126 10.718C45.85 10.7947 45.551 10.787 45.229 10.695C44.907 10.603 44.6616 10.442 44.493 10.212C44.3703 10.028 44.309 9.844 44.309 9.66C44.309 9.476 44.3396 9.29967 44.401 9.131C44.4776 8.947 44.5696 8.77067 44.677 8.602C44.7843 8.43333 44.8993 8.28 45.022 8.142C45.482 7.60533 45.9573 7.09933 46.448 6.624C46.954 6.13333 47.4676 5.658 47.989 5.198C48.1576 5.06 48.3493 4.876 48.564 4.646C48.7786 4.40067 48.9856 4.163 49.185 3.933C49.415 3.657 49.6526 3.381 49.898 3.105C49.8673 2.75233 49.8596 2.415 49.875 2.093C49.8903 1.817 49.9286 1.541 49.99 1.265C50.0513 0.988999 50.1663 0.766666 50.335 0.598C50.5343 0.413999 50.818 0.298999 51.186 0.253C51.554 0.191667 51.8606 0.199333 52.106 0.276C52.4586 0.383334 52.704 0.567333 52.842 0.828C52.9953 1.08867 53.095 1.39533 53.141 1.748C53.1563 2.03933 53.1563 2.29233 53.141 2.507C53.141 2.70633 53.2253 2.92867 53.394 3.174C53.5166 3.358 53.6546 3.53433 53.808 3.703C53.9766 3.87167 54.1376 4.04033 54.291 4.209C54.8276 4.807 55.349 5.382 55.855 5.934C56.3763 6.486 56.913 7.05333 57.465 7.636C57.649 7.82 57.8253 8.05 57.994 8.326C58.1626 8.602 58.2776 8.88567 58.339 9.177C58.4156 9.453 58.408 9.72133 58.316 9.982C58.2393 10.2273 58.04 10.4267 57.718 10.58C57.488 10.6873 57.2656 10.7333 57.051 10.718C56.8363 10.6873 56.6293 10.626 56.43 10.534C56.2306 10.4267 56.039 10.2963 55.855 10.143C55.6863 9.98967 55.533 9.83633 55.395 9.683L51.485 6.003ZM44.838 14.927C44.4853 14.9117 44.148 14.8657 43.826 14.789C43.5193 14.697 43.2663 14.4977 43.067 14.191C42.8983 13.9303 42.814 13.6543 42.814 13.363C42.8293 13.0563 42.9443 12.7957 43.159 12.581C43.2816 12.4583 43.435 12.3663 43.619 12.305C43.803 12.2437 43.9793 12.1977 44.148 12.167C44.3166 12.1363 44.4623 12.121 44.585 12.121C44.723 12.121 44.7996 12.121 44.815 12.121H57.58C57.8253 12.1057 58.086 12.1057 58.362 12.121C58.6533 12.1363 58.9216 12.19 59.167 12.282C59.4123 12.3587 59.6193 12.4967 59.788 12.696C59.9566 12.88 60.041 13.1407 60.041 13.478C60.041 13.8613 59.9106 14.1527 59.65 14.352C59.3893 14.536 59.075 14.674 58.707 14.766C58.3543 14.8427 57.9863 14.8887 57.603 14.904C57.2196 14.904 56.9053 14.904 56.66 14.904H55.763C55.4563 14.9193 55.1573 14.927 54.866 14.927C54.5746 14.9117 54.2756 14.904 53.969 14.904H53.095C53.1103 15.3333 53.1256 15.7857 53.141 16.261C53.1563 16.7363 53.1333 17.158 53.072 17.526C53.0413 17.8173 52.9646 18.0933 52.842 18.354C52.7346 18.63 52.5506 18.8523 52.29 19.021C52.06 19.1743 51.7916 19.251 51.485 19.251C51.1783 19.2663 50.9023 19.205 50.657 19.067C50.4576 18.9443 50.3043 18.768 50.197 18.538C50.105 18.308 50.0436 18.0857 50.013 17.871C49.9823 17.7023 49.967 17.5183 49.967 17.319C49.9823 17.1197 49.99 16.9357 49.99 16.767C49.9746 16.491 49.967 16.192 49.967 15.87C49.967 15.5327 49.967 15.203 49.967 14.881H49.392C48.9626 14.881 48.564 14.8887 48.196 14.904C47.828 14.904 47.4676 14.9117 47.115 14.927C46.7623 14.927 46.402 14.927 46.034 14.927C45.666 14.927 45.2673 14.927 44.838 14.927Z" fill="black"/>
<path d="M74.7897 18.86C74.6517 18.8907 74.3373 18.906 73.8467 18.906C73.3713 18.9213 72.804 18.929 72.1447 18.929C71.4853 18.929 70.78 18.9213 70.0287 18.906C69.2773 18.906 68.572 18.8983 67.9127 18.883C67.2533 18.883 66.686 18.883 66.2107 18.883C65.7353 18.883 65.4363 18.883 65.3137 18.883C65.007 18.883 64.685 18.86 64.3477 18.814C64.0103 18.768 63.7113 18.6453 63.4507 18.446C63.282 18.308 63.144 18.1393 63.0367 17.94C62.9447 17.7253 62.8757 17.5183 62.8297 17.319C62.7837 17.1197 62.753 16.9433 62.7377 16.79C62.7223 16.6367 62.7147 16.5523 62.7147 16.537V14.789C62.7147 14.3443 62.7147 13.938 62.7147 13.57C62.73 13.202 62.7377 13.0027 62.7377 12.972C62.7377 12.4967 62.8527 12.1593 63.0827 11.96C63.3127 11.7453 63.65 11.6227 64.0947 11.592C64.2327 11.592 64.3783 11.6073 64.5317 11.638C64.685 11.6533 64.8307 11.6993 64.9687 11.776C65.1067 11.8373 65.2217 11.937 65.3137 12.075C65.421 12.1977 65.49 12.351 65.5207 12.535V13.156C65.5513 13.386 65.605 13.501 65.6817 13.501C65.7583 13.4857 65.8887 13.4857 66.0727 13.501H75.0657V12.673C75.081 12.397 75.1577 12.1593 75.2957 11.96C75.449 11.7607 75.6637 11.6457 75.9397 11.615C76.5837 11.569 77.036 11.684 77.2967 11.96C77.5727 12.2207 77.7107 12.6807 77.7107 13.34C77.68 14.0453 77.68 14.697 77.7107 15.295C77.7413 15.8777 77.7183 16.5217 77.6417 17.227C77.6263 17.4417 77.588 17.6257 77.5267 17.779C77.4653 17.917 77.3733 18.0703 77.2507 18.239C77.128 18.423 76.9593 18.5533 76.7447 18.63C76.5453 18.7067 76.3307 18.7603 76.1007 18.791C75.8707 18.8217 75.6407 18.837 75.4107 18.837C75.1807 18.837 74.9737 18.8447 74.7897 18.86ZM69.8907 7.774C70.1513 8.08067 70.412 8.40267 70.6727 8.74C70.9333 9.07733 71.1097 9.41467 71.2017 9.752C71.2323 9.90533 71.2323 10.0663 71.2017 10.235C71.171 10.4037 71.0867 10.5493 70.9487 10.672C70.7187 10.8253 70.4733 10.902 70.2127 10.902C69.9213 10.902 69.6377 10.833 69.3617 10.695C69.101 10.557 68.8863 10.419 68.7177 10.281C68.457 10.051 68.2193 9.821 68.0047 9.591C67.79 9.34567 67.5753 9.108 67.3607 8.878C67.192 8.694 67.008 8.51 66.8087 8.326C66.6093 8.142 66.433 7.94267 66.2797 7.728L64.0027 10.235C63.7573 10.4957 63.4967 10.6797 63.2207 10.787C62.9447 10.879 62.684 10.925 62.4387 10.925C62.362 10.925 62.247 10.9097 62.0937 10.879C61.8023 10.8023 61.603 10.6643 61.4957 10.465C61.4037 10.2963 61.373 10.1047 61.4037 9.89C61.4343 9.67533 61.4957 9.48367 61.5877 9.315C61.695 9.131 61.81 8.96233 61.9327 8.809C62.0707 8.65567 62.2087 8.49467 62.3467 8.326C62.7453 7.88133 63.1287 7.42133 63.4967 6.946C63.88 6.45533 64.294 5.98 64.7387 5.52V4.255C64.616 4.27033 64.4627 4.278 64.2787 4.278C64.0947 4.26267 63.8723 4.255 63.6117 4.255C63.443 4.255 63.2513 4.26267 63.0367 4.278C62.822 4.29333 62.6073 4.28567 62.3927 4.255C62.1933 4.22433 62.0093 4.163 61.8407 4.071C61.672 3.96367 61.5417 3.795 61.4497 3.565C61.373 3.39633 61.327 3.20467 61.3117 2.99C61.2963 2.77533 61.3117 2.576 61.3577 2.392C61.4037 2.17733 61.5187 2.03167 61.7027 1.955C61.902 1.863 62.086 1.80167 62.2547 1.771C62.408 1.74033 62.546 1.725 62.6687 1.725C62.7147 1.725 62.7607 1.73267 62.8067 1.748C62.8527 1.748 62.8987 1.748 62.9447 1.748H64.8077C64.8383 1.39533 64.9073 1.06567 65.0147 0.759C65.1373 0.437 65.3673 0.214666 65.7047 0.0919994C65.9653 -3.05474e-07 66.203 -0.023 66.4177 0.0230003C66.6477 0.0689997 66.847 0.160999 67.0157 0.298999C67.1843 0.437 67.3223 0.613333 67.4297 0.828C67.537 1.04267 67.606 1.265 67.6367 1.495C67.652 1.541 67.6597 1.587 67.6597 1.633C67.675 1.66367 67.6827 1.702 67.6827 1.748H68.9937C69.5303 1.748 69.9597 1.78633 70.2817 1.863C70.6037 1.92433 70.872 2.10833 71.0867 2.415C71.148 2.507 71.194 2.63733 71.2247 2.806C71.2553 2.95933 71.2553 3.12033 71.2247 3.289C71.2093 3.44233 71.171 3.588 71.1097 3.726C71.0483 3.864 70.9717 3.96367 70.8797 4.025C70.757 4.071 70.619 4.12467 70.4657 4.186C70.3277 4.232 70.1973 4.255 70.0747 4.255C69.8907 4.27033 69.722 4.278 69.5687 4.278C69.4307 4.26267 69.2697 4.255 69.0857 4.255C68.8097 4.255 68.595 4.26267 68.4417 4.278C68.2883 4.278 68.1043 4.27033 67.8897 4.255C67.8897 4.45433 67.8897 4.58467 67.8897 4.646C67.8897 4.692 67.8897 4.738 67.8897 4.784C67.8897 4.83 67.8897 4.899 67.8897 4.991C67.8897 5.083 67.8897 5.25933 67.8897 5.52C67.9663 5.58133 68.066 5.704 68.1887 5.888C68.3113 6.072 68.434 6.22533 68.5567 6.348C68.6793 6.47067 68.8097 6.60867 68.9477 6.762C69.0857 6.9 69.2313 7.05333 69.3847 7.222C69.492 7.32933 69.584 7.429 69.6607 7.521C69.7373 7.613 69.814 7.69733 69.8907 7.774ZM66.8777 15.571C66.7397 15.571 66.5863 15.571 66.4177 15.571C66.2643 15.5557 66.1263 15.5633 66.0037 15.594C65.881 15.6093 65.7737 15.6553 65.6817 15.732C65.605 15.7933 65.5667 15.893 65.5667 16.031C65.5667 16.1997 65.5743 16.3223 65.5897 16.399C65.6663 16.6597 65.7813 16.7977 65.9347 16.813C66.1033 16.813 66.2873 16.8053 66.4867 16.79C66.916 16.79 67.3453 16.7977 67.7747 16.813C68.2193 16.813 68.6717 16.8207 69.1317 16.836C69.1777 16.836 69.3233 16.836 69.5687 16.836C69.814 16.836 70.113 16.836 70.4657 16.836C70.8337 16.8207 71.217 16.813 71.6157 16.813C72.0143 16.813 72.39 16.813 72.7427 16.813C73.1107 16.7977 73.4173 16.79 73.6627 16.79C73.908 16.79 74.0537 16.79 74.0997 16.79C74.1763 16.79 74.2683 16.7977 74.3757 16.813C74.483 16.8283 74.5827 16.8283 74.6747 16.813C74.7667 16.7977 74.8433 16.7593 74.9047 16.698C74.966 16.6367 74.9967 16.5447 74.9967 16.422C74.9967 16.2993 75.0043 16.192 75.0197 16.1C75.035 16.008 74.9967 15.9083 74.9047 15.801C74.7973 15.6783 74.667 15.6093 74.5137 15.594C74.3757 15.5787 74.23 15.5787 74.0767 15.594C74.0613 15.594 73.8697 15.594 73.5017 15.594C73.1337 15.594 72.6813 15.594 72.1447 15.594C71.6233 15.594 71.056 15.594 70.4427 15.594C69.8293 15.5787 69.2543 15.571 68.7177 15.571C68.1963 15.571 67.7593 15.571 67.4067 15.571C67.054 15.571 66.8777 15.571 66.8777 15.571ZM73.7317 7.084C73.287 7.05333 72.8883 7.03033 72.5357 7.015C72.183 6.98433 71.907 6.81567 71.7077 6.509C71.6157 6.35567 71.5697 6.164 71.5697 5.934C71.5697 5.704 71.585 5.50467 71.6157 5.336C71.6617 5.16733 71.746 5.02933 71.8687 4.922C71.9913 4.79933 72.206 4.69967 72.5127 4.623C72.574 4.60767 72.712 4.6 72.9267 4.6C73.1413 4.58467 73.3713 4.56933 73.6167 4.554C73.8773 4.53867 74.115 4.531 74.3297 4.531C74.5443 4.51567 74.6823 4.508 74.7437 4.508V2.53C74.7283 2.36133 74.7283 2.19267 74.7437 2.024C74.759 1.85533 74.7897 1.68667 74.8357 1.518C74.8663 1.39533 74.897 1.28033 74.9277 1.173C74.9583 1.06567 75.0273 0.950666 75.1347 0.828C75.2573 0.674666 75.4413 0.567333 75.6867 0.506C75.932 0.444666 76.185 0.429333 76.4457 0.46C76.6757 0.490666 76.875 0.559666 77.0437 0.667C77.2123 0.759 77.335 0.881666 77.4117 1.035C77.5037 1.219 77.5573 1.449 77.5727 1.725C77.6033 1.98567 77.6187 2.14667 77.6187 2.208V9.43C77.6187 9.44533 77.611 9.499 77.5957 9.591C77.5803 9.683 77.542 9.798 77.4807 9.936C77.4347 10.0587 77.3657 10.189 77.2737 10.327C77.1817 10.465 77.059 10.58 76.9057 10.672C76.691 10.7947 76.4687 10.856 76.2387 10.856C76.1007 10.856 75.955 10.833 75.8017 10.787C75.6483 10.741 75.5103 10.6797 75.3877 10.603C75.2037 10.4803 75.0733 10.327 74.9967 10.143C74.9047 9.97433 74.8433 9.80567 74.8127 9.637C74.782 9.46833 74.759 9.29967 74.7437 9.131V7.084H73.7317Z" fill="black"/>
</svg>
