<svg width="19" height="22" viewBox="0 0 19 22" fill="none" xmlns="http://www.w3.org/2000/svg">
<path d="M16.999 19C17.2657 19.0167 17.499 19.0833 17.699 19.2C17.899 19.3 18.0407 19.4833 18.124 19.75C18.3074 20.3667 18.0907 20.7833 17.474 21C17.274 21.0833 17.0657 21.1333 16.849 21.15C16.649 21.1667 16.4657 21.175 16.299 21.175H5.17402C4.84068 21.175 4.49068 21.175 4.12402 21.175C3.75735 21.175 3.39068 21.1667 3.02402 21.15C2.57402 21.1333 2.25735 20.9917 2.07402 20.725C1.90735 20.4583 1.80735 20.1333 1.77402 19.75L1.67402 18.025C1.67402 17.925 1.67402 17.8083 1.67402 17.675C1.67402 17.525 1.68235 17.375 1.69902 17.225C1.71568 17.0583 1.74068 16.9083 1.77402 16.775C1.80735 16.625 1.86568 16.5083 1.94902 16.425C2.18235 16.1917 2.44902 16.0417 2.74902 15.975C3.04902 15.9083 3.38235 15.875 3.74902 15.875H4.52402C4.60735 15.875 4.67402 15.8833 4.72402 15.9C4.77402 15.9 4.82402 15.9 4.87402 15.9H15.274V14.9H4.62402C4.54068 14.9 4.44902 14.9 4.34902 14.9C4.26568 14.8833 4.17402 14.8833 4.07402 14.9H3.47402C3.30735 14.9 3.15735 14.9 3.02402 14.9C2.89068 14.9 2.75735 14.8833 2.62402 14.85C2.47402 14.8167 2.33235 14.7833 2.19902 14.75C2.08235 14.7167 1.98235 14.6333 1.89902 14.5C1.68235 14.1167 1.63235 13.7333 1.74902 13.35C1.79902 13.2167 1.87402 13.1167 1.97402 13.05C2.07402 12.9667 2.19068 12.9 2.32402 12.85C2.45735 12.8 2.58235 12.7667 2.69902 12.75C2.83235 12.7167 2.94902 12.6917 3.04902 12.675C3.18235 12.6583 3.30735 12.65 3.42402 12.65C3.55735 12.6333 3.69068 12.625 3.82402 12.625H4.24902C4.33235 12.6417 4.40735 12.65 4.47402 12.65C4.55735 12.65 4.64068 12.65 4.72402 12.65H15.524C16.374 12.65 17.024 12.7833 17.474 13.05C17.924 13.3 18.149 13.7167 18.149 14.3V16.6C18.149 16.8333 18.0907 17.05 17.974 17.25C17.874 17.4333 17.6907 17.6083 17.424 17.775C17.2074 17.9083 16.9907 17.9833 16.774 18C16.5574 18 16.3407 18 16.124 18H4.74902V19H16.999ZM6.27402 0.674993C7.97402 0.791661 9.26568 1.33333 10.149 2.29999C11.049 3.26666 11.4407 4.64166 11.324 6.42499C11.2074 7.92499 10.7407 9.08333 9.92402 9.89999C9.12402 10.7167 7.92402 11.125 6.32402 11.125C6.02402 11.125 5.70735 11.125 5.37402 11.125C5.04068 11.125 4.69902 11.1083 4.34902 11.075C4.01568 11.025 3.66568 10.9417 3.29902 10.825C2.93235 10.7083 2.55735 10.5333 2.17402 10.3C1.80735 10.0667 1.49902 9.78333 1.24902 9.44999C1.01568 9.11666 0.824017 8.75833 0.674017 8.37499C0.524017 7.97499 0.415684 7.56666 0.349017 7.14999C0.299017 6.73333 0.274017 6.32499 0.274017 5.92499C0.274017 5.02499 0.424017 4.23333 0.724017 3.54999C1.02402 2.86666 1.44068 2.29999 1.97402 1.84999C2.50735 1.39999 3.14068 1.07499 3.87402 0.874994C4.60735 0.674994 5.40735 0.608328 6.27402 0.674993ZM18.174 10C18.174 10 18.1657 10.0583 18.149 10.175C18.1324 10.2917 18.099 10.425 18.049 10.575C17.999 10.725 17.924 10.8833 17.824 11.05C17.724 11.2 17.5907 11.325 17.424 11.425C17.1907 11.5583 16.9574 11.625 16.724 11.625C16.4407 11.625 16.1657 11.5333 15.899 11.35C15.7157 11.2167 15.574 11.0417 15.474 10.825C15.3407 10.575 15.249 10.3 15.199 10C15.1657 9.7 15.1407 9.39166 15.124 9.075C15.124 8.75833 15.1324 8.44999 15.149 8.14999C15.1657 7.83333 15.174 7.53333 15.174 7.24999C15.174 6.89999 15.174 6.57499 15.174 6.27499C15.1907 5.95833 15.199 5.65833 15.199 5.37499C15.199 5.07499 15.199 4.77499 15.199 4.47499C15.199 4.17499 15.199 3.84999 15.199 3.49999V3.17499C15.1824 2.99166 15.174 2.79999 15.174 2.59999C15.1907 2.38333 15.224 2.18333 15.274 1.99999C15.3407 1.74999 15.4907 1.48333 15.724 1.19999C15.8574 1.03333 16.0407 0.916661 16.274 0.849994C16.524 0.766661 16.7907 0.741661 17.074 0.774994C17.574 0.858327 17.9074 1.07499 18.074 1.42499C18.174 1.64166 18.2157 1.90833 18.199 2.22499C18.199 2.54166 18.1907 2.73333 18.174 2.79999V10ZM8.44902 6.52499C8.53235 5.92499 8.43235 5.36666 8.14902 4.84999C7.88235 4.33333 7.48235 3.98333 6.94902 3.79999C6.59902 3.68333 6.21568 3.62499 5.79902 3.62499C5.38235 3.62499 4.98235 3.69999 4.59902 3.84999C4.23235 3.98333 3.90735 4.19999 3.62402 4.49999C3.35735 4.78333 3.19068 5.15833 3.12402 5.62499C3.07402 5.94166 3.07402 6.26666 3.12402 6.59999C3.17402 6.91666 3.28235 7.20833 3.44902 7.47499C3.63235 7.72499 3.88235 7.94166 4.19902 8.12499C4.51568 8.30833 4.91568 8.42499 5.39902 8.47499C5.73235 8.50833 6.05735 8.50833 6.37402 8.47499C6.70735 8.44166 7.00735 8.35833 7.27402 8.22499C7.55735 8.09166 7.79902 7.90833 7.99902 7.67499C8.19902 7.42499 8.34068 7.10833 8.42402 6.72499L8.44902 6.52499Z" fill="black"/>
</svg>
