<svg width="108" height="22" viewBox="0 0 108 22" fill="none" xmlns="http://www.w3.org/2000/svg">
<path d="M8.04962 11.55C7.93295 11.5667 7.66628 11.575 7.24962 11.575C6.84962 11.575 6.41628 11.575 5.94962 11.575C5.48295 11.5583 5.04128 11.55 4.62462 11.55C4.20795 11.55 3.93295 11.55 3.79962 11.55H3.77462C3.47462 11.55 3.17462 11.55 2.87462 11.55C2.59128 11.5333 2.31628 11.5083 2.04962 11.475C1.78295 11.425 1.54128 11.35 1.32462 11.25C1.10795 11.15 0.932949 11 0.799616 10.8C0.649616 10.5833 0.541282 10.3083 0.474615 9.97499C0.424616 9.64166 0.382949 9.32499 0.349616 9.02499C0.332949 8.70833 0.324615 8.43333 0.324615 8.19999C0.341282 7.96666 0.349616 7.84166 0.349616 7.82499V7.27499C0.349616 7.09166 0.349616 6.88333 0.349616 6.64999C0.349616 6.41666 0.357949 6.15833 0.374615 5.875C0.374615 5.575 0.374615 5.28333 0.374615 4.99999C0.391282 4.69999 0.399616 4.43333 0.399616 4.19999V3.39999C0.399616 3.34999 0.399616 3.25833 0.399616 3.12499C0.399616 2.99166 0.407949 2.84999 0.424615 2.69999C0.441282 2.53333 0.466282 2.37499 0.499616 2.22499C0.532949 2.05833 0.582949 1.92499 0.649615 1.82499C0.799616 1.59166 0.949616 1.42499 1.09962 1.32499C1.26628 1.20833 1.47462 1.12499 1.72462 1.07499C1.80795 1.05833 1.93295 1.04999 2.09962 1.04999C2.26628 1.03333 2.42462 1.01666 2.57462 0.999994C2.75795 0.983327 2.94962 0.974994 3.14962 0.974994H8.79962C9.16628 0.974994 9.54962 1.00833 9.94962 1.07499C10.3663 1.12499 10.7329 1.24999 11.0496 1.44999C11.2996 1.59999 11.4746 1.79166 11.5746 2.02499C11.6746 2.25833 11.7413 2.50833 11.7746 2.77499C11.8079 3.04166 11.8163 3.31666 11.7996 3.59999C11.7829 3.86666 11.7746 4.11666 11.7746 4.34999C11.7746 4.61666 11.7663 4.88333 11.7496 5.14999C11.7496 5.39999 11.7579 5.65833 11.7746 5.92499V7.29999C11.7579 7.38333 11.7496 7.47499 11.7496 7.575C11.7663 7.67499 11.7746 7.77499 11.7746 7.87499C11.7413 8.09166 11.7329 8.30833 11.7496 8.52499C11.7663 8.72499 11.7746 8.94166 11.7746 9.17499C11.7746 9.35833 11.7579 9.55833 11.7246 9.77499C11.7079 9.97499 11.6579 10.1833 11.5746 10.4C11.5079 10.6 11.4079 10.7833 11.2746 10.95C11.1579 11.1167 10.9996 11.2333 10.7996 11.3C10.3663 11.4833 9.90795 11.575 9.42462 11.575C8.95795 11.5583 8.49962 11.55 8.04962 11.55ZM5.27462 20.7C4.59128 20.7 4.04128 20.55 3.62462 20.25C3.20795 19.9667 2.99962 19.6333 2.99962 19.25V15.65C2.96628 15.2833 2.96628 14.9083 2.99962 14.525C3.03295 14.175 3.16628 13.8917 3.39962 13.675C3.64962 13.4583 3.96628 13.35 4.34962 13.35C4.43295 13.35 4.58295 13.3583 4.79962 13.375C5.01628 13.375 5.16628 13.3917 5.24962 13.425C5.46628 13.4917 5.63295 13.5917 5.74962 13.725C5.88295 13.8583 5.98295 14.0167 6.04962 14.2C6.11628 14.3667 6.15795 14.55 6.17462 14.75C6.19128 14.9333 6.20795 15.1167 6.22462 15.3C6.22462 15.3667 6.22462 15.525 6.22462 15.775C6.24128 16.0083 6.24962 16.2667 6.24962 16.55C6.26628 16.8167 6.27462 17.0667 6.27462 17.3C6.29128 17.5333 6.30795 17.675 6.32462 17.725C6.37462 17.7417 6.50795 17.7667 6.72462 17.8C6.95795 17.8167 7.38295 17.825 7.99962 17.825C8.53295 17.825 8.85795 17.8167 8.97462 17.8C9.10795 17.7833 9.18295 17.775 9.19962 17.775H17.3746C17.3746 17.775 17.4246 17.7917 17.5246 17.825C17.6413 17.8583 17.7663 17.9167 17.8996 18C18.0329 18.0667 18.158 18.1667 18.2746 18.3C18.3913 18.4167 18.4663 18.5583 18.4996 18.725C18.5829 19.3583 18.4746 19.85 18.1746 20.2C17.9746 20.4333 17.7579 20.575 17.5246 20.625C17.2913 20.675 17.1663 20.7 17.1496 20.7H5.27462ZM17.9746 8.62499V11.225C17.9579 11.4083 17.9329 11.6 17.8996 11.8C17.8663 11.9833 17.7996 12.1667 17.6996 12.35C17.5829 12.5667 17.4413 12.725 17.2746 12.825C17.0079 13.0083 16.7246 13.1 16.4246 13.1C16.1746 13.1 15.9413 13.0333 15.7246 12.9C15.5579 12.8 15.4246 12.675 15.3246 12.525C15.2246 12.375 15.1413 12.2333 15.0746 12.1C15.0246 11.9667 14.9913 11.85 14.9746 11.75C14.9579 11.6333 14.9496 11.575 14.9496 11.575V2.79999C14.9496 2.71666 14.9579 2.53333 14.9746 2.24999C15.0079 1.94999 15.0746 1.69999 15.1746 1.49999C15.3413 1.14999 15.6829 0.949994 16.1996 0.899994C16.4829 0.866661 16.7496 0.883328 16.9996 0.949995C17.2496 1.01666 17.4413 1.12499 17.5746 1.27499C17.6746 1.40833 17.7413 1.54166 17.7746 1.67499C17.8246 1.79166 17.8663 1.91666 17.8996 2.04999C17.9496 2.21666 17.9746 2.39166 17.9746 2.57499C17.9913 2.75833 17.9913 2.94166 17.9746 3.12499V5.82499C18.0413 5.82499 18.1496 5.83333 18.2996 5.84999C18.4663 5.86666 18.6329 5.88333 18.7996 5.89999C18.9829 5.89999 19.1496 5.90833 19.2996 5.92499C19.4663 5.94166 19.5829 5.95833 19.6496 5.97499C19.983 6.04166 20.2163 6.14166 20.3496 6.27499C20.483 6.39166 20.5746 6.54166 20.6246 6.72499C20.6579 6.90833 20.6746 7.12499 20.6746 7.375C20.6746 7.60833 20.6246 7.80833 20.5246 7.97499C20.3246 8.30833 20.0246 8.49999 19.6246 8.54999C19.2246 8.59999 18.7829 8.62499 18.2996 8.62499H17.9746ZM4.84962 4.09999C4.69962 4.09999 4.55795 4.09999 4.42462 4.09999C4.30795 4.09999 4.19962 4.11666 4.09962 4.15C3.86628 4.16666 3.67462 4.26666 3.52462 4.44999C3.45795 4.53333 3.41628 4.65833 3.39962 4.82499C3.39962 4.99166 3.39962 5.09166 3.39962 5.12499V6.17499C3.38295 6.30833 3.37462 6.43333 3.37462 6.54999C3.37462 6.64999 3.37462 6.74166 3.37462 6.825V7.12499C3.37462 7.12499 3.37462 7.17499 3.37462 7.27499C3.37462 7.37499 3.37462 7.49166 3.37462 7.62499C3.39128 7.75833 3.41628 7.89166 3.44962 8.02499C3.48295 8.15833 3.54128 8.27499 3.62462 8.37499C3.75795 8.54166 3.97462 8.64166 4.27462 8.67499C4.57462 8.69166 4.87462 8.7 5.17462 8.7H5.19962C5.63295 8.68333 5.99128 8.68333 6.27462 8.7C6.55795 8.7 6.92462 8.7 7.37462 8.7C7.50795 8.7 7.64128 8.70833 7.77462 8.72499C7.92462 8.72499 8.06628 8.70833 8.19962 8.67499C8.33295 8.65833 8.42462 8.61666 8.47462 8.54999C8.52462 8.48333 8.56628 8.39999 8.59962 8.29999C8.63295 8.16666 8.64962 8.05833 8.64962 7.97499C8.71628 7.65833 8.74962 7.29999 8.74962 6.89999C8.74962 6.63333 8.74962 6.36666 8.74962 6.09999C8.76628 5.83333 8.76628 5.56666 8.74962 5.29999C8.73295 5.16666 8.72462 5.03333 8.72462 4.89999C8.74128 4.76666 8.73295 4.63333 8.69962 4.49999C8.63295 4.31666 8.52462 4.21666 8.37462 4.19999C8.22462 4.16666 8.07462 4.15 7.92462 4.15L4.84962 4.09999Z" fill="black"/>
<path d="M25.6647 14C25.6647 14.2333 25.6564 14.4667 25.6397 14.7C25.623 14.9167 25.623 15.1417 25.6397 15.375C25.6397 15.4917 25.648 15.6083 25.6647 15.725C25.6814 15.8417 25.7314 15.9417 25.8147 16.025C25.9147 16.1083 26.0314 16.1583 26.1647 16.175C26.3147 16.175 26.4564 16.175 26.5897 16.175C26.773 16.175 26.9647 16.1833 27.1647 16.2C27.3647 16.2 27.5564 16.2 27.7397 16.2C27.9564 16.2 28.2147 16.2 28.5147 16.2C28.8147 16.2 29.1147 16.2 29.4147 16.2C29.7314 16.2 30.0397 16.2083 30.3397 16.225C30.6397 16.2417 30.8897 16.2583 31.0897 16.275C31.373 16.3083 31.6647 16.3583 31.9647 16.425C32.2814 16.475 32.5647 16.5833 32.8147 16.75C32.948 16.8333 33.0397 16.95 33.0897 17.1C33.1564 17.2333 33.198 17.375 33.2147 17.525C33.2314 17.6083 33.2397 17.6917 33.2397 17.775C33.2397 17.8417 33.2397 17.9167 33.2397 18C33.2064 18.4 33.073 18.7333 32.8397 19C32.6064 19.25 32.298 19.4167 31.9147 19.5C31.6814 19.5333 31.448 19.5667 31.2147 19.6C30.998 19.6333 30.773 19.65 30.5397 19.65C30.4564 19.65 30.323 19.65 30.1397 19.65C29.9564 19.65 29.7564 19.65 29.5397 19.65C29.323 19.6333 29.123 19.625 28.9397 19.625C28.7564 19.625 28.6314 19.625 28.5647 19.625H26.2647C25.9314 19.625 25.6064 19.6083 25.2897 19.575C24.9897 19.5417 24.673 19.5167 24.3397 19.5C24.0897 19.4833 23.8314 19.4417 23.5647 19.375C23.298 19.2917 23.073 19.1583 22.8897 18.975C22.7064 18.7917 22.5647 18.5917 22.4647 18.375C22.3814 18.1583 22.3147 17.9333 22.2647 17.7C22.1647 17.1667 22.123 16.6167 22.1397 16.05C22.1564 15.4833 22.1647 14.925 22.1647 14.375V8.24999C22.1647 7.96666 22.1647 7.67499 22.1647 7.375C22.1814 7.075 22.1814 6.77499 22.1647 6.47499C22.1647 6.45833 22.1564 6.33333 22.1397 6.09999C22.1397 5.84999 22.1397 5.55833 22.1397 5.22499C22.1397 4.87499 22.1397 4.52499 22.1397 4.17499C22.1397 3.80833 22.148 3.48333 22.1647 3.19999C22.1814 2.86666 22.2564 2.52499 22.3897 2.17499C22.523 1.80833 22.8064 1.53333 23.2397 1.34999C23.423 1.28333 23.6147 1.23333 23.8147 1.19999C24.0147 1.16666 24.2147 1.17499 24.4147 1.22499C24.6147 1.27499 24.798 1.36666 24.9647 1.49999C25.148 1.61666 25.2814 1.78333 25.3647 1.99999C25.4647 2.23333 25.5314 2.48333 25.5647 2.74999C25.6147 2.99999 25.6397 3.26666 25.6397 3.54999C25.6397 3.73333 25.6397 3.91666 25.6397 4.09999C25.6397 4.28333 25.648 4.46666 25.6647 4.64999V14ZM39.0147 8.37499C39.098 8.37499 39.173 8.38333 39.2397 8.39999C39.323 8.41666 39.4064 8.42499 39.4897 8.42499C39.573 8.44166 39.6647 8.45833 39.7647 8.47499C39.8647 8.47499 39.9647 8.48333 40.0647 8.49999C40.248 8.53333 40.4314 8.59999 40.6147 8.7C40.798 8.78333 40.9314 8.91666 41.0147 9.09999C41.1314 9.28333 41.1897 9.49999 41.1897 9.74999C41.1897 9.88333 41.1814 10.0083 41.1647 10.125C41.1647 10.225 41.148 10.3417 41.1147 10.475C41.0814 10.6083 41.0397 10.75 40.9897 10.9C40.9564 11.05 40.8814 11.1667 40.7647 11.25C40.5314 11.4167 40.3064 11.525 40.0897 11.575C39.823 11.6083 39.498 11.6167 39.1147 11.6C38.7314 11.5833 38.4064 11.5833 38.1397 11.6C38.123 11.6 38.1064 11.6083 38.0897 11.625H38.0647L38.0397 11.65V11.725C38.0397 11.925 38.0397 12.1667 38.0397 12.45C38.0397 12.7333 38.0397 13.025 38.0397 13.325C38.0397 13.6083 38.0397 13.8917 38.0397 14.175C38.0397 14.4417 38.0397 14.6833 38.0397 14.9C38.073 15.7667 38.073 16.6167 38.0397 17.45V17.8C38.0397 18.0167 38.0314 18.2583 38.0147 18.525C38.0147 18.775 37.998 19.025 37.9647 19.275C37.9314 19.525 37.873 19.7667 37.7897 20C37.7064 20.2167 37.5897 20.4 37.4397 20.55C37.2397 20.7833 36.973 20.9 36.6397 20.9C36.6397 20.9 36.623 20.8917 36.5897 20.875C36.1897 20.8583 35.8647 20.7417 35.6147 20.525C35.3814 20.3083 35.198 20.0417 35.0647 19.725C34.948 19.4083 34.873 19.0833 34.8397 18.75C34.8064 18.4 34.7897 18.0917 34.7897 17.825V2.97499C34.7897 2.95833 34.7897 2.88333 34.7897 2.74999C34.7897 2.59999 34.8064 2.43333 34.8397 2.24999C34.873 2.04999 34.923 1.84999 34.9897 1.64999C35.073 1.43333 35.1814 1.25833 35.3147 1.12499C35.4314 1.00833 35.598 0.924994 35.8147 0.874994C36.048 0.808327 36.2564 0.774994 36.4397 0.774994C36.8064 0.774994 37.1147 0.899994 37.3647 1.14999C37.598 1.38333 37.7314 1.63333 37.7647 1.89999C37.8147 2.14999 37.8564 2.41666 37.8897 2.69999C37.9064 2.76666 37.9147 2.86666 37.9147 2.99999C37.948 3.28333 37.9647 3.57499 37.9647 3.87499C37.9814 4.17499 37.998 4.47499 38.0147 4.77499C38.0147 4.95833 38.0147 5.14166 38.0147 5.325C38.0314 5.49166 38.0397 5.66666 38.0397 5.84999C38.023 5.94999 38.0147 6.05 38.0147 6.14999C38.0314 6.23333 38.0397 6.31666 38.0397 6.39999V7.77499C38.0397 7.85833 38.0397 7.94999 38.0397 8.04999C38.0397 8.14999 38.0564 8.24166 38.0897 8.325C38.0897 8.34166 38.173 8.34999 38.3397 8.34999C38.5064 8.34999 38.598 8.34999 38.6147 8.34999C38.7647 8.38333 38.8814 8.39166 38.9647 8.37499H39.0147Z" fill="black"/>
<path d="M60.0409 18.925C60.0076 19.125 59.9826 19.325 59.9659 19.525C59.9492 19.7083 59.9076 19.9 59.8409 20.1C59.8076 20.1667 59.7826 20.225 59.7659 20.275C59.7492 20.325 59.7242 20.3833 59.6909 20.45C59.5742 20.6833 59.4242 20.8667 59.2409 21C58.8576 21.2333 58.4326 21.2917 57.9659 21.175C57.6992 21.125 57.4826 21.025 57.3159 20.875C57.1659 20.7417 57.0492 20.5667 56.9659 20.35C56.8992 20.15 56.8409 19.95 56.7909 19.75C56.7576 19.55 56.7409 19.375 56.7409 19.225C56.7409 19.075 56.7409 18.9917 56.7409 18.975V3.52499C56.7409 3.32499 56.7409 3.10833 56.7409 2.87499C56.7409 2.64166 56.7576 2.40833 56.7909 2.17499C56.8242 1.94166 56.8742 1.72499 56.9409 1.52499C57.0076 1.32499 57.0992 1.16666 57.2159 1.04999C57.3992 0.866661 57.5909 0.758327 57.7909 0.724994C57.9909 0.674994 58.2076 0.649994 58.4409 0.649994C58.7242 0.649994 58.9826 0.733327 59.2159 0.899994C59.4659 1.04999 59.6409 1.26666 59.7409 1.54999C59.8909 1.89999 59.9742 2.26666 59.9909 2.64999C60.0076 3.03333 60.0242 3.41666 60.0409 3.79999V3.92499C60.0742 5.20833 60.0826 6.52499 60.0659 7.87499C60.0492 9.22499 60.0409 10.5 60.0409 11.7V18.025C60.0409 18.175 60.0409 18.325 60.0409 18.475C60.0576 18.625 60.0576 18.775 60.0409 18.925ZM48.2409 16.475C48.2242 16.275 48.2159 16.075 48.2159 15.875C48.2159 15.675 48.2159 15.475 48.2159 15.275V7.32499C48.2159 7.05833 48.2159 6.79166 48.2159 6.52499C48.2159 6.25833 48.1992 5.98333 48.1659 5.69999C48.1492 5.61666 48.1242 5.49999 48.0909 5.34999C48.0742 5.19999 48.0242 5.10833 47.9409 5.075C47.8576 5.02499 47.7576 5.00833 47.6409 5.02499C47.5409 5.02499 47.4409 5.01666 47.3409 4.99999C47.2242 4.98333 47.1076 4.98333 46.9909 4.99999C46.8909 5.01666 46.7826 5.01666 46.6659 4.99999H45.4909C45.2076 5.01666 44.9242 5.01666 44.6409 4.99999C44.3576 4.98333 44.0742 4.98333 43.7909 4.99999C43.6576 5.01666 43.5326 5.02499 43.4159 5.02499C43.3159 5.00833 43.1992 4.99999 43.0659 4.99999C42.8826 4.99999 42.6909 4.99166 42.4909 4.97499C42.2909 4.95833 42.1076 4.89166 41.9409 4.77499C41.7076 4.60833 41.5492 4.39999 41.4659 4.15C41.3826 3.89999 41.3409 3.64166 41.3409 3.37499C41.3242 3.05833 41.3909 2.74166 41.5409 2.42499C41.6242 2.22499 41.7326 2.08333 41.8659 1.99999C41.9492 1.91666 42.0659 1.84999 42.2159 1.79999C42.3826 1.73333 42.5242 1.68333 42.6409 1.64999C42.9909 1.56666 43.3576 1.52499 43.7409 1.52499C44.1242 1.50833 44.4992 1.49999 44.8659 1.49999H49.2159C49.4326 1.53333 49.6576 1.56666 49.8909 1.59999C50.1409 1.61666 50.3659 1.66666 50.5659 1.74999C50.6992 1.79999 50.8242 1.86666 50.9409 1.94999C51.0742 2.03333 51.1826 2.13333 51.2659 2.24999C51.4159 2.48333 51.4992 2.71666 51.5159 2.94999C51.5492 3.18333 51.5826 3.44166 51.6159 3.72499C51.6492 4.19166 51.6659 4.65833 51.6659 5.12499C51.6659 5.57499 51.6659 6.03333 51.6659 6.49999V14.7C51.6659 14.7167 51.6659 14.85 51.6659 15.1C51.6826 15.3333 51.6909 15.6167 51.6909 15.95C51.6909 16.2667 51.6909 16.6083 51.6909 16.975C51.6909 17.325 51.6826 17.6333 51.6659 17.9C51.6492 18.0667 51.6242 18.2417 51.5909 18.425C51.5576 18.6083 51.4992 18.7833 51.4159 18.95C51.3492 19.1167 51.2492 19.2667 51.1159 19.4C50.9826 19.5333 50.8076 19.6417 50.5909 19.725C50.3076 19.8417 50.0242 19.9 49.7409 19.9C49.5242 19.9 49.3076 19.8583 49.0909 19.775C48.8742 19.675 48.7242 19.5333 48.6409 19.35C48.3742 18.8167 48.2409 18.225 48.2409 17.575V16.475Z" fill="black"/>
<path d="M86.5855 8.42499C86.6688 8.42499 86.7438 8.43333 86.8105 8.45C86.8938 8.46666 86.9772 8.47499 87.0605 8.47499C87.1438 8.49166 87.2355 8.50833 87.3355 8.52499C87.4355 8.52499 87.5355 8.53333 87.6355 8.54999C87.8188 8.58333 88.0022 8.64999 88.1855 8.74999C88.3688 8.83333 88.5022 8.96666 88.5855 9.14999C88.7022 9.33333 88.7605 9.54999 88.7605 9.79999C88.7605 9.93333 88.7522 10.0583 88.7355 10.175C88.7355 10.275 88.7188 10.3917 88.6855 10.525C88.6522 10.6583 88.6105 10.8 88.5605 10.95C88.5272 11.1 88.4522 11.2167 88.3355 11.3C88.1022 11.4667 87.8772 11.575 87.6605 11.625C87.3938 11.6583 87.0688 11.6667 86.6855 11.65C86.3022 11.6333 85.9772 11.6333 85.7105 11.65C85.6938 11.65 85.6772 11.6583 85.6605 11.675H85.6355L85.6105 11.7V11.775C85.6105 11.975 85.6105 12.2167 85.6105 12.5C85.6105 12.7667 85.6105 13.0417 85.6105 13.325C85.6105 13.6083 85.6105 13.8917 85.6105 14.175C85.6105 14.4417 85.6105 14.6833 85.6105 14.9C85.6438 15.7667 85.6438 16.6167 85.6105 17.45V17.8C85.6105 18.0167 85.6022 18.2583 85.5855 18.525C85.5855 18.775 85.5688 19.025 85.5355 19.275C85.5022 19.525 85.4438 19.7667 85.3605 20C85.2772 20.2167 85.1605 20.4 85.0105 20.55C84.8105 20.7833 84.5438 20.9 84.2105 20.9C84.2105 20.9 84.1938 20.8917 84.1605 20.875C83.7605 20.8583 83.4355 20.7417 83.1855 20.525C82.9522 20.3083 82.7688 20.0417 82.6355 19.725C82.5188 19.4083 82.4438 19.0833 82.4105 18.75C82.3772 18.4 82.3605 18.0917 82.3605 17.825V2.97499C82.3605 2.95833 82.3605 2.88333 82.3605 2.74999C82.3605 2.59999 82.3772 2.43333 82.4105 2.24999C82.4438 2.04999 82.4938 1.84999 82.5605 1.64999C82.6438 1.43333 82.7522 1.25833 82.8855 1.12499C83.0022 1.00833 83.1688 0.924994 83.3855 0.874994C83.6188 0.808327 83.8272 0.774994 84.0105 0.774994C84.3772 0.774994 84.6855 0.899994 84.9355 1.14999C85.1688 1.38333 85.3022 1.63333 85.3355 1.89999C85.3855 2.14999 85.4272 2.41666 85.4605 2.69999C85.4772 2.76666 85.4855 2.86666 85.4855 2.99999C85.5188 3.28333 85.5355 3.58333 85.5355 3.89999C85.5355 4.19999 85.5438 4.49999 85.5605 4.79999C85.5605 4.98333 85.5688 5.15833 85.5855 5.325C85.6022 5.49166 85.6105 5.66666 85.6105 5.84999C85.5938 5.94999 85.5855 6.05 85.5855 6.14999C85.6022 6.23333 85.6105 6.31666 85.6105 6.39999V7.82499C85.6105 7.90833 85.6105 7.99999 85.6105 8.09999C85.6105 8.19999 85.6272 8.29166 85.6605 8.37499C85.6605 8.39166 85.7438 8.39999 85.9105 8.39999C86.0772 8.39999 86.1688 8.39999 86.1855 8.39999C86.3355 8.43333 86.4522 8.44166 86.5355 8.42499H86.5855ZM71.6855 16.175C71.6855 15.975 71.6772 15.775 71.6605 15.575C71.6605 15.375 71.6605 15.175 71.6605 14.975V6.94999C71.6605 6.66666 71.6605 6.39166 71.6605 6.12499C71.6605 5.85833 71.6438 5.59166 71.6105 5.325C71.5938 5.24166 71.5688 5.12499 71.5355 4.97499C71.5188 4.82499 71.4688 4.72499 71.3855 4.67499C71.3022 4.64166 71.2022 4.63333 71.0855 4.64999C70.9855 4.64999 70.8855 4.64166 70.7855 4.62499C70.7355 4.62499 70.7022 4.62499 70.6855 4.62499C70.6855 4.62499 70.6605 4.62499 70.6105 4.62499C70.5605 4.62499 70.4522 4.62499 70.2855 4.62499C70.1355 4.62499 69.8772 4.62499 69.5105 4.62499C69.3272 4.62499 69.1272 4.61666 68.9105 4.59999C68.7105 4.56666 68.5272 4.49999 68.3605 4.39999C68.1272 4.23333 67.9688 4.05833 67.8855 3.87499C67.8022 3.69166 67.7605 3.45833 67.7605 3.17499C67.7605 2.89166 67.8272 2.61666 67.9605 2.34999C68.0438 2.16666 68.1522 2.02499 68.2855 1.92499C68.3688 1.84166 68.4855 1.77499 68.6355 1.72499C68.8022 1.65833 68.9522 1.60833 69.0855 1.57499C69.4355 1.49166 69.7355 1.44999 69.9855 1.44999C70.2522 1.43333 70.5688 1.42499 70.9355 1.42499H72.7605C72.8272 1.42499 72.8938 1.42499 72.9605 1.42499C73.0272 1.42499 73.1022 1.43333 73.1855 1.44999C73.3522 1.43333 73.5105 1.42499 73.6605 1.42499C73.8272 1.42499 73.9938 1.42499 74.1605 1.42499H77.3105C77.3938 1.42499 77.4772 1.42499 77.5605 1.42499C77.6605 1.42499 77.7522 1.43333 77.8355 1.44999C78.0688 1.46666 78.3022 1.49166 78.5355 1.52499C78.7855 1.55833 79.0105 1.61666 79.2105 1.69999C79.3438 1.74999 79.4688 1.81666 79.5855 1.89999C79.7188 1.98333 79.8272 2.08333 79.9105 2.19999C80.0605 2.43333 80.1438 2.66666 80.1605 2.89999C80.1772 3.13333 80.2022 3.39166 80.2355 3.67499C80.2855 4.12499 80.3022 4.58333 80.2855 5.04999C80.2855 5.49999 80.2855 5.95833 80.2855 6.42499V14.375C80.2855 14.4083 80.2855 14.5417 80.2855 14.775C80.3022 15.0083 80.3105 15.2917 80.3105 15.625C80.3272 15.9583 80.3272 16.3083 80.3105 16.675C80.3105 17.025 80.3022 17.3333 80.2855 17.6C80.2688 17.9333 80.1938 18.275 80.0605 18.625C79.9438 18.975 79.6688 19.2417 79.2355 19.425C79.0688 19.475 78.9188 19.5167 78.7855 19.55C78.6522 19.5833 78.5188 19.6 78.3855 19.6C78.1688 19.6 77.9522 19.5583 77.7355 19.475C77.5188 19.375 77.3605 19.2333 77.2605 19.05C77.0105 18.5333 76.8855 17.9417 76.8855 17.275C76.8855 17.0917 76.8855 16.9083 76.8855 16.725C76.8855 16.5417 76.8772 16.3583 76.8605 16.175V6.94999C76.8605 6.66666 76.8522 6.39166 76.8355 6.12499C76.8355 5.85833 76.8188 5.59166 76.7855 5.325C76.7855 5.24166 76.7688 5.12499 76.7355 4.97499C76.7188 4.82499 76.6688 4.72499 76.5855 4.67499C76.5022 4.64166 76.4022 4.63333 76.2855 4.64999C76.1855 4.64999 76.0855 4.64166 75.9855 4.62499C75.8688 4.60833 75.7188 4.60833 75.5355 4.62499C75.3688 4.64166 75.2272 4.64166 75.1105 4.62499V14.375C75.1105 14.4083 75.1105 14.5417 75.1105 14.775C75.1272 15.0083 75.1355 15.2917 75.1355 15.625C75.1355 15.9583 75.1355 16.3083 75.1355 16.675C75.1355 17.025 75.1272 17.3333 75.1105 17.6C75.0938 17.7667 75.0688 17.9417 75.0355 18.125C75.0022 18.3083 74.9438 18.4833 74.8605 18.65C74.7938 18.8 74.6938 18.95 74.5605 19.1C74.4438 19.2333 74.2772 19.3417 74.0605 19.425C73.8938 19.475 73.7355 19.5167 73.5855 19.55C73.4522 19.5833 73.3272 19.6 73.2105 19.6C72.9772 19.6 72.7522 19.5583 72.5355 19.475C72.3188 19.375 72.1688 19.2333 72.0855 19.05C71.8522 18.55 71.7188 17.9583 71.6855 17.275V16.175Z" fill="black"/>
<path d="M99.0785 1.79999C99.7618 1.79999 100.345 1.85833 100.829 1.97499C101.312 2.09166 101.695 2.39166 101.979 2.87499C102.245 3.32499 102.287 3.77499 102.104 4.22499C101.87 4.69166 101.454 4.96666 100.854 5.04999C100.454 5.11666 99.9952 5.15833 99.4785 5.17499C98.9618 5.17499 98.2785 5.15833 97.4285 5.12499C97.4118 5.40833 97.4035 5.70833 97.4035 6.02499C97.4035 6.32499 97.4035 6.60833 97.4035 6.87499C97.4035 7.12499 97.4035 7.34166 97.4035 7.52499C97.4202 7.70833 97.4285 7.82499 97.4285 7.87499V10.675C97.4285 10.8083 97.4368 10.9917 97.4535 11.225C97.4702 11.4417 97.4868 11.6083 97.5035 11.725C97.6368 11.8583 97.8202 12.0583 98.0535 12.325C98.2868 12.575 98.4702 12.7833 98.6035 12.95C98.7702 13.15 98.9368 13.3583 99.1035 13.575C99.2868 13.7917 99.4702 14.0333 99.6535 14.3C99.7868 14.45 99.9035 14.6 100.004 14.75C100.104 14.9 100.195 15.0333 100.279 15.15C100.595 15.6 100.92 16.0917 101.254 16.625C101.587 17.1583 101.812 17.6917 101.929 18.225C101.979 18.4583 101.979 18.7167 101.929 19C101.895 19.2667 101.779 19.4917 101.579 19.675C101.295 19.925 100.979 20.05 100.629 20.05C100.245 20.05 99.8785 19.95 99.5285 19.75C99.1785 19.5333 98.8952 19.3083 98.6785 19.075C98.3618 18.7417 98.0618 18.3917 97.7785 18.025C97.5118 17.6583 97.2452 17.3 96.9785 16.95C96.7952 16.6833 96.6035 16.425 96.4035 16.175C96.2035 15.9083 95.9952 15.65 95.7785 15.4C95.7452 15.3333 95.7118 15.2917 95.6785 15.275C95.6785 15.2917 95.6702 15.3 95.6535 15.3C95.6535 15.3 95.6535 15.3083 95.6535 15.325C95.5702 15.4583 95.4702 15.5917 95.3535 15.725C95.2535 15.8417 95.1618 15.9667 95.0785 16.1C94.9452 16.25 94.8202 16.4083 94.7035 16.575C94.6035 16.725 94.5035 16.875 94.4035 17.025C94.1702 17.375 93.9368 17.725 93.7035 18.075C93.4702 18.4083 93.2035 18.725 92.9035 19.025C92.1868 19.7417 91.5118 20.1 90.8785 20.1C90.7118 20.1 90.5535 20.075 90.4035 20.025C90.0202 19.925 89.7618 19.6917 89.6285 19.325C89.4952 19.0417 89.4452 18.7333 89.4785 18.4C89.5285 18.0667 89.6118 17.775 89.7285 17.525C89.8618 17.2417 90.0118 16.975 90.1785 16.725C90.3452 16.475 90.5202 16.225 90.7035 15.975C90.8202 15.825 90.9285 15.675 91.0285 15.525C91.1452 15.375 91.2452 15.225 91.3285 15.075C91.4785 14.825 91.6785 14.5333 91.9285 14.2C92.1952 13.85 92.4535 13.5167 92.7035 13.2C92.9702 12.8667 93.2118 12.5667 93.4285 12.3C93.6452 12.0333 93.7952 11.8417 93.8785 11.725V5.12499H92.3535C91.7202 5.12499 91.2785 5.12499 91.0285 5.12499C90.7952 5.10833 90.6202 5.08333 90.5035 5.04999C89.8702 4.94999 89.4452 4.59166 89.2285 3.97499C89.0452 3.44166 89.1118 2.97499 89.4285 2.57499C89.7118 2.17499 90.1118 1.92499 90.6285 1.82499C90.7118 1.80833 90.7952 1.79999 90.8785 1.79999C90.9618 1.78333 91.0535 1.77499 91.1535 1.77499C91.3202 1.77499 91.4368 1.78333 91.5035 1.79999H99.0785ZM107.504 18.65C107.47 18.85 107.445 19.05 107.429 19.25C107.412 19.4333 107.37 19.625 107.304 19.825C107.27 19.8917 107.245 19.95 107.229 20C107.212 20.05 107.187 20.1083 107.154 20.175C107.037 20.4083 106.887 20.5917 106.704 20.725C106.32 20.9583 105.895 21.0167 105.429 20.9C105.162 20.85 104.945 20.75 104.779 20.6C104.629 20.4667 104.512 20.2917 104.429 20.075C104.362 19.875 104.304 19.675 104.254 19.475C104.22 19.275 104.204 19.1 104.204 18.95C104.204 18.8 104.204 18.7167 104.204 18.7V3.52499C104.204 3.32499 104.204 3.10833 104.204 2.87499C104.204 2.64166 104.22 2.40833 104.254 2.17499C104.287 1.94166 104.337 1.72499 104.404 1.52499C104.47 1.32499 104.562 1.16666 104.679 1.04999C104.862 0.866661 105.054 0.758327 105.254 0.724994C105.454 0.674994 105.67 0.649994 105.904 0.649994C106.187 0.649994 106.445 0.733327 106.679 0.899994C106.929 1.04999 107.104 1.26666 107.204 1.54999C107.354 1.89999 107.437 2.26666 107.454 2.64999C107.47 3.03333 107.487 3.41666 107.504 3.79999V3.92499C107.537 5.20833 107.545 6.52499 107.529 7.87499C107.512 9.22499 107.504 10.5 107.504 11.7V17.75C107.504 17.9 107.504 18.05 107.504 18.2C107.52 18.35 107.52 18.5 107.504 18.65Z" fill="black"/>
</svg>
