<svg width="79" height="20" viewBox="0 0 79 20" fill="none" xmlns="http://www.w3.org/2000/svg">
<path d="M0.573231 10.925C0.358564 10.833 0.205231 10.6567 0.113231 10.396C-0.00943589 10.0893 -0.0324359 9.78267 0.0442308 9.476C0.136231 9.16933 0.274231 8.878 0.458231 8.602C0.642231 8.326 0.849231 8.06533 1.07923 7.82C1.32456 7.57467 1.53156 7.34467 1.70023 7.13C1.9609 6.808 2.2139 6.486 2.45923 6.164C2.70456 5.842 2.95756 5.51233 3.21823 5.175C3.40223 4.91433 3.5939 4.60767 3.79323 4.255C3.99256 3.90233 4.10756 3.55733 4.13823 3.22C4.13823 3.128 4.1459 3.013 4.16123 2.875C4.17656 2.72167 4.18423 2.56833 4.18423 2.415C4.19956 2.24633 4.2149 2.093 4.23023 1.955C4.24556 1.817 4.26856 1.702 4.29923 1.61C4.39123 1.30333 4.5369 1.09633 4.73623 0.989C4.9509 0.866333 5.2729 0.805 5.70223 0.805C5.94756 0.805 6.22356 0.851 6.53023 0.942999C6.8369 1.01967 7.0439 1.18067 7.15123 1.426C7.25856 1.702 7.28923 2.024 7.24323 2.392C7.21256 2.74467 7.24323 3.06667 7.33523 3.358C7.4119 3.588 7.5269 3.82567 7.68023 4.071C7.83356 4.31633 7.99456 4.56167 8.16323 4.807C8.45456 5.221 8.7459 5.67333 9.03723 6.164C9.32856 6.63933 9.5969 7.04567 9.84223 7.383C10.0876 7.705 10.3252 8.04233 10.5552 8.395C10.7852 8.73233 10.9386 9.10033 11.0152 9.499C11.0919 9.83633 11.0536 10.12 10.9002 10.35C10.7622 10.5647 10.5706 10.7257 10.3252 10.833C10.0799 10.925 9.81156 10.948 9.52023 10.902C9.2289 10.8407 8.9759 10.7027 8.76123 10.488C8.1939 9.90533 7.68023 9.28433 7.22023 8.625C6.76023 7.95033 6.2849 7.291 5.79423 6.647C5.79423 6.647 5.72523 6.72367 5.58723 6.877C5.44923 7.03033 5.28056 7.22967 5.08123 7.475C4.8819 7.72033 4.65956 7.98867 4.41423 8.28C4.1689 8.57133 3.9389 8.84733 3.72423 9.108C3.50956 9.36867 3.3179 9.59867 3.14923 9.798C2.9959 9.982 2.9039 10.097 2.87323 10.143C2.70456 10.3423 2.5129 10.5187 2.29823 10.672C2.08356 10.8253 1.8459 10.9327 1.58523 10.994C1.41656 11.0247 1.24023 11.04 1.05623 11.04C0.887564 11.04 0.726564 11.0017 0.573231 10.925ZM4.11523 18.929C3.48656 18.929 2.98056 18.791 2.59723 18.515C2.2139 18.2543 2.02223 17.9477 2.02223 17.595V14.283C1.99156 13.9457 1.99156 13.6007 2.02223 13.248C2.0529 12.926 2.17556 12.6653 2.39023 12.466C2.62023 12.2667 2.91156 12.167 3.26423 12.167C3.3409 12.167 3.4789 12.1747 3.67823 12.19C3.87756 12.19 4.01556 12.2053 4.09223 12.236C4.29156 12.2973 4.4449 12.3893 4.55223 12.512C4.6749 12.6347 4.7669 12.7803 4.82823 12.949C4.88956 13.1023 4.9279 13.271 4.94323 13.455C4.95856 13.6237 4.9739 13.7923 4.98923 13.961C4.98923 14.0223 4.98923 14.168 4.98923 14.398C5.00456 14.6127 5.01223 14.8503 5.01223 15.111C5.02756 15.3563 5.03523 15.5863 5.03523 15.801C5.05056 16.0157 5.0659 16.146 5.08123 16.192C5.12723 16.2073 5.2499 16.2303 5.44923 16.261C5.6639 16.2763 6.0549 16.284 6.62223 16.284C7.1129 16.284 7.4119 16.2763 7.51923 16.261C7.6419 16.2457 7.7109 16.238 7.72623 16.238H15.2472C15.2472 16.238 15.2932 16.2533 15.3852 16.284C15.4926 16.3147 15.6076 16.3683 15.7302 16.445C15.8529 16.5063 15.9679 16.5983 16.0752 16.721C16.1826 16.8283 16.2516 16.9587 16.2822 17.112C16.3589 17.6947 16.2592 18.147 15.9832 18.469C15.7992 18.6837 15.5999 18.814 15.3852 18.86C15.1706 18.906 15.0556 18.929 15.0402 18.929H4.11523ZM15.7992 7.843V10.235C15.7839 10.4037 15.7609 10.58 15.7302 10.764C15.6996 10.9327 15.6382 11.1013 15.5462 11.27C15.4389 11.4693 15.3086 11.615 15.1552 11.707C14.9099 11.8757 14.6492 11.96 14.3732 11.96C14.1432 11.96 13.9286 11.8987 13.7292 11.776C13.5759 11.684 13.4532 11.569 13.3612 11.431C13.2692 11.293 13.1926 11.1627 13.1312 11.04C13.0852 10.9173 13.0546 10.81 13.0392 10.718C13.0239 10.6107 13.0162 10.557 13.0162 10.557V2.484C13.0162 2.40733 13.0239 2.23867 13.0392 1.978C13.0699 1.702 13.1312 1.472 13.2232 1.288C13.3766 0.966 13.6909 0.782 14.1662 0.735999C14.4269 0.705333 14.6722 0.720667 14.9022 0.782C15.1322 0.843334 15.3086 0.943 15.4312 1.081C15.5232 1.20367 15.5846 1.32633 15.6152 1.449C15.6612 1.55633 15.6996 1.67133 15.7302 1.794C15.7762 1.94733 15.7992 2.10833 15.7992 2.277C15.8146 2.44567 15.8146 2.61433 15.7992 2.783V5.267C15.8606 5.267 15.9756 5.27467 16.1442 5.29C16.3129 5.30533 16.4892 5.32067 16.6732 5.336C16.8726 5.336 17.0566 5.34367 17.2252 5.359C17.3939 5.37433 17.5089 5.38967 17.5702 5.405C17.8769 5.46633 18.0916 5.55833 18.2142 5.681C18.3369 5.78833 18.4212 5.92633 18.4672 6.095C18.4979 6.26367 18.5132 6.463 18.5132 6.693C18.5132 6.90767 18.4672 7.09167 18.3752 7.245C18.1912 7.55167 17.9152 7.728 17.5472 7.774C17.1792 7.82 16.7729 7.843 16.3282 7.843H15.7992Z" fill="black"/>
<path d="M34.7803 14.881C34.8263 14.8963 34.8723 14.904 34.9183 14.904C34.9643 14.8887 35.0103 14.881 35.0563 14.881C35.317 14.9117 35.5546 14.9653 35.7693 15.042C35.9993 15.1033 36.2216 15.226 36.4363 15.41C36.651 15.6247 36.7583 15.893 36.7583 16.215C36.7583 16.3837 36.7276 16.5677 36.6663 16.767C36.6203 16.951 36.5513 17.0967 36.4593 17.204C36.3366 17.3267 36.1833 17.4187 35.9993 17.48C35.8153 17.5413 35.639 17.5873 35.4703 17.618C35.3016 17.6333 35.1483 17.641 35.0103 17.641C34.8876 17.641 34.8186 17.641 34.8033 17.641H21.9233C21.8466 17.641 21.77 17.6487 21.6933 17.664C21.6166 17.664 21.54 17.664 21.4633 17.664C21.1413 17.6793 20.7963 17.6793 20.4283 17.664C20.0603 17.6333 19.746 17.5107 19.4853 17.296C19.1633 17.0047 19.0023 16.675 19.0023 16.307C19.0023 16.077 19.0713 15.8393 19.2093 15.594C19.3473 15.3487 19.5313 15.18 19.7613 15.088C20.068 14.9653 20.3823 14.904 20.7043 14.904C21.0416 14.904 21.379 14.8963 21.7163 14.881H21.8313C23.1653 14.8503 24.5376 14.8503 25.9483 14.881L25.9253 11.776C25.7413 11.776 25.5573 11.776 25.3733 11.776C25.1893 11.7607 25.0053 11.7453 24.8213 11.73C24.4226 11.6993 23.9933 11.6993 23.5333 11.73C23.0733 11.7453 22.6516 11.7377 22.2683 11.707C21.8696 11.6763 21.5016 11.5843 21.1643 11.431C20.8423 11.2623 20.643 10.9633 20.5663 10.534C20.4896 10.1047 20.436 9.69833 20.4053 9.315C20.39 8.91633 20.3746 8.533 20.3593 8.165C20.3593 7.78167 20.3593 7.39833 20.3593 7.015C20.3746 6.63167 20.3823 6.21767 20.3823 5.773V4.163C20.3823 3.96367 20.3746 3.74133 20.3593 3.496C20.3593 3.25067 20.3746 3.00533 20.4053 2.76C20.4513 2.51467 20.5203 2.29233 20.6123 2.093C20.7196 1.89367 20.8806 1.74033 21.0953 1.633C21.3253 1.52567 21.586 1.44133 21.8773 1.38C22.1686 1.30333 22.46 1.24967 22.7513 1.219C23.058 1.18833 23.357 1.173 23.6483 1.173C23.955 1.15767 24.2386 1.15 24.4993 1.15H31.9053C31.9206 1.15 32.0126 1.15767 32.1813 1.173C32.3653 1.173 32.58 1.196 32.8253 1.242C33.0706 1.27267 33.316 1.31867 33.5613 1.38C33.822 1.426 34.029 1.495 34.1823 1.587C34.3663 1.69433 34.512 1.87067 34.6193 2.116C34.7266 2.346 34.8033 2.58367 34.8493 2.829C34.9106 3.07433 34.9413 3.29667 34.9413 3.496C34.9566 3.68 34.9643 3.77967 34.9643 3.795V8.234C34.9643 8.58667 34.9566 8.93933 34.9413 9.292C34.9413 9.64467 34.9106 9.99733 34.8493 10.35C34.8186 10.5647 34.765 10.7793 34.6883 10.994C34.6116 11.2087 34.466 11.3697 34.2513 11.477C33.9906 11.5997 33.6533 11.6687 33.2393 11.684C32.8253 11.684 32.4803 11.6763 32.2043 11.661C31.8823 11.661 31.5603 11.6763 31.2383 11.707C30.9163 11.7223 30.5943 11.73 30.2723 11.73H29.1453L29.1913 14.881C29.6206 14.881 29.9963 14.881 30.3183 14.881C30.6403 14.8657 30.947 14.858 31.2383 14.858C31.545 14.858 31.8516 14.858 32.1583 14.858C32.465 14.858 32.8176 14.8657 33.2163 14.881C33.4923 14.8963 33.7606 14.8963 34.0213 14.881C34.282 14.8503 34.535 14.8503 34.7803 14.881ZM30.4793 8.832C30.6173 8.80133 30.7553 8.79367 30.8933 8.809C31.0313 8.82433 31.177 8.80133 31.3303 8.74C31.4223 8.694 31.4913 8.63267 31.5373 8.556C31.5833 8.464 31.6063 8.372 31.6063 8.28C31.6216 8.17267 31.6216 8.06533 31.6063 7.958C31.6063 7.85067 31.6063 7.751 31.6063 7.659V5.727C31.6063 5.48167 31.6063 5.27467 31.6063 5.106C31.6063 4.922 31.568 4.77633 31.4913 4.669C31.43 4.56167 31.2996 4.485 31.1003 4.439C30.901 4.393 30.6096 4.36233 30.2263 4.347H25.7183C25.7183 4.347 25.657 4.347 25.5343 4.347C25.427 4.347 25.289 4.35467 25.1203 4.37C24.967 4.37 24.806 4.37767 24.6373 4.393C24.4686 4.40833 24.323 4.42367 24.2003 4.439C24.001 4.46967 23.84 4.554 23.7173 4.692C23.5946 4.83 23.5333 4.99867 23.5333 5.198L23.5793 8.28C23.61 8.464 23.6866 8.602 23.8093 8.694C23.9473 8.77067 24.1006 8.82433 24.2693 8.855C24.438 8.88567 24.6066 8.901 24.7753 8.901C24.9593 8.88567 25.1203 8.878 25.2583 8.878L30.4793 8.832Z" fill="black"/>
<path d="M51.8614 6.003L50.6194 7.245C50.2821 7.567 49.9448 7.88133 49.6074 8.188C49.2701 8.49467 48.9251 8.80133 48.5724 9.108C48.5418 9.13867 48.5111 9.16933 48.4804 9.2C48.4498 9.21533 48.4191 9.23833 48.3884 9.269C48.0971 9.52967 47.8058 9.80567 47.5144 10.097C47.2384 10.3883 46.9011 10.5953 46.5024 10.718C46.2264 10.7947 45.9274 10.787 45.6054 10.695C45.2834 10.603 45.0381 10.442 44.8694 10.212C44.7468 10.028 44.6854 9.844 44.6854 9.66C44.6854 9.476 44.7161 9.29967 44.7774 9.131C44.8541 8.947 44.9461 8.77067 45.0534 8.602C45.1608 8.43333 45.2758 8.28 45.3984 8.142C45.8584 7.60533 46.3338 7.09933 46.8244 6.624C47.3304 6.13333 47.8441 5.658 48.3654 5.198C48.5341 5.06 48.7258 4.876 48.9404 4.646C49.1551 4.40067 49.3621 4.163 49.5614 3.933C49.7914 3.657 50.0291 3.381 50.2744 3.105C50.2438 2.75233 50.2361 2.415 50.2514 2.093C50.2668 1.817 50.3051 1.541 50.3664 1.265C50.4278 0.988999 50.5428 0.766666 50.7114 0.598C50.9108 0.413999 51.1944 0.298999 51.5624 0.253C51.9304 0.191667 52.2371 0.199333 52.4824 0.276C52.8351 0.383334 53.0804 0.567333 53.2184 0.828C53.3718 1.08867 53.4714 1.39533 53.5174 1.748C53.5328 2.03933 53.5328 2.29233 53.5174 2.507C53.5174 2.70633 53.6018 2.92867 53.7704 3.174C53.8931 3.358 54.0311 3.53433 54.1844 3.703C54.3531 3.87167 54.5141 4.04033 54.6674 4.209C55.2041 4.807 55.7254 5.382 56.2314 5.934C56.7528 6.486 57.2894 7.05333 57.8414 7.636C58.0254 7.82 58.2018 8.05 58.3704 8.326C58.5391 8.602 58.6541 8.88567 58.7154 9.177C58.7921 9.453 58.7844 9.72133 58.6924 9.982C58.6158 10.2273 58.4164 10.4267 58.0944 10.58C57.8644 10.6873 57.6421 10.7333 57.4274 10.718C57.2128 10.6873 57.0058 10.626 56.8064 10.534C56.6071 10.4267 56.4154 10.2963 56.2314 10.143C56.0628 9.98967 55.9094 9.83633 55.7714 9.683L51.8614 6.003ZM45.2144 14.927C44.8618 14.9117 44.5244 14.8657 44.2024 14.789C43.8958 14.697 43.6428 14.4977 43.4434 14.191C43.2748 13.9303 43.1904 13.6543 43.1904 13.363C43.2058 13.0563 43.3208 12.7957 43.5354 12.581C43.6581 12.4583 43.8114 12.3663 43.9954 12.305C44.1794 12.2437 44.3558 12.1977 44.5244 12.167C44.6931 12.1363 44.8388 12.121 44.9614 12.121C45.0994 12.121 45.1761 12.121 45.1914 12.121H57.9564C58.2018 12.1057 58.4624 12.1057 58.7384 12.121C59.0298 12.1363 59.2981 12.19 59.5434 12.282C59.7888 12.3587 59.9958 12.4967 60.1644 12.696C60.3331 12.88 60.4174 13.1407 60.4174 13.478C60.4174 13.8613 60.2871 14.1527 60.0264 14.352C59.7658 14.536 59.4514 14.674 59.0834 14.766C58.7308 14.8427 58.3628 14.8887 57.9794 14.904C57.5961 14.904 57.2818 14.904 57.0364 14.904H56.1394C55.8328 14.9193 55.5338 14.927 55.2424 14.927C54.9511 14.9117 54.6521 14.904 54.3454 14.904H53.4714C53.4868 15.3333 53.5021 15.7857 53.5174 16.261C53.5328 16.7363 53.5098 17.158 53.4484 17.526C53.4178 17.8173 53.3411 18.0933 53.2184 18.354C53.1111 18.63 52.9271 18.8523 52.6664 19.021C52.4364 19.1743 52.1681 19.251 51.8614 19.251C51.5548 19.2663 51.2788 19.205 51.0334 19.067C50.8341 18.9443 50.6808 18.768 50.5734 18.538C50.4814 18.308 50.4201 18.0857 50.3894 17.871C50.3588 17.7023 50.3434 17.5183 50.3434 17.319C50.3588 17.1197 50.3664 16.9357 50.3664 16.767C50.3511 16.491 50.3434 16.192 50.3434 15.87C50.3434 15.5327 50.3434 15.203 50.3434 14.881H49.7684C49.3391 14.881 48.9404 14.8887 48.5724 14.904C48.2044 14.904 47.8441 14.9117 47.4914 14.927C47.1388 14.927 46.7784 14.927 46.4104 14.927C46.0424 14.927 45.6438 14.927 45.2144 14.927Z" fill="black"/>
<path d="M75.1661 18.86C75.0281 18.8907 74.7138 18.906 74.2231 18.906C73.7478 18.9213 73.1805 18.929 72.5211 18.929C71.8618 18.929 71.1565 18.9213 70.4051 18.906C69.6538 18.906 68.9485 18.8983 68.2891 18.883C67.6298 18.883 67.0625 18.883 66.5871 18.883C66.1118 18.883 65.8128 18.883 65.6901 18.883C65.3835 18.883 65.0615 18.86 64.7241 18.814C64.3868 18.768 64.0878 18.6453 63.8271 18.446C63.6585 18.308 63.5205 18.1393 63.4131 17.94C63.3211 17.7253 63.2521 17.5183 63.2061 17.319C63.1601 17.1197 63.1295 16.9433 63.1141 16.79C63.0988 16.6367 63.0911 16.5523 63.0911 16.537V14.789C63.0911 14.3443 63.0911 13.938 63.0911 13.57C63.1065 13.202 63.1141 13.0027 63.1141 12.972C63.1141 12.4967 63.2291 12.1593 63.4591 11.96C63.6891 11.7453 64.0265 11.6227 64.4711 11.592C64.6091 11.592 64.7548 11.6073 64.9081 11.638C65.0615 11.6533 65.2071 11.6993 65.3451 11.776C65.4831 11.8373 65.5981 11.937 65.6901 12.075C65.7975 12.1977 65.8665 12.351 65.8971 12.535V13.156C65.9278 13.386 65.9815 13.501 66.0581 13.501C66.1348 13.4857 66.2651 13.4857 66.4491 13.501H75.4421V12.673C75.4575 12.397 75.5341 12.1593 75.6721 11.96C75.8255 11.7607 76.0401 11.6457 76.3161 11.615C76.9601 11.569 77.4125 11.684 77.6731 11.96C77.9491 12.2207 78.0871 12.6807 78.0871 13.34C78.0565 14.0453 78.0565 14.697 78.0871 15.295C78.1178 15.8777 78.0948 16.5217 78.0181 17.227C78.0028 17.4417 77.9645 17.6257 77.9031 17.779C77.8418 17.917 77.7498 18.0703 77.6271 18.239C77.5045 18.423 77.3358 18.5533 77.1211 18.63C76.9218 18.7067 76.7071 18.7603 76.4771 18.791C76.2471 18.8217 76.0171 18.837 75.7871 18.837C75.5571 18.837 75.3501 18.8447 75.1661 18.86ZM70.2671 7.774C70.5278 8.08067 70.7885 8.40267 71.0491 8.74C71.3098 9.07733 71.4861 9.41467 71.5781 9.752C71.6088 9.90533 71.6088 10.0663 71.5781 10.235C71.5475 10.4037 71.4631 10.5493 71.3251 10.672C71.0951 10.8253 70.8498 10.902 70.5891 10.902C70.2978 10.902 70.0141 10.833 69.7381 10.695C69.4775 10.557 69.2628 10.419 69.0941 10.281C68.8335 10.051 68.5958 9.821 68.3811 9.591C68.1665 9.34567 67.9518 9.108 67.7371 8.878C67.5685 8.694 67.3845 8.51 67.1851 8.326C66.9858 8.142 66.8095 7.94267 66.6561 7.728L64.3791 10.235C64.1338 10.4957 63.8731 10.6797 63.5971 10.787C63.3211 10.879 63.0605 10.925 62.8151 10.925C62.7385 10.925 62.6235 10.9097 62.4701 10.879C62.1788 10.8023 61.9795 10.6643 61.8721 10.465C61.7801 10.2963 61.7495 10.1047 61.7801 9.89C61.8108 9.67533 61.8721 9.48367 61.9641 9.315C62.0715 9.131 62.1865 8.96233 62.3091 8.809C62.4471 8.65567 62.5851 8.49467 62.7231 8.326C63.1218 7.88133 63.5051 7.42133 63.8731 6.946C64.2565 6.45533 64.6705 5.98 65.1151 5.52V4.255C64.9925 4.27033 64.8391 4.278 64.6551 4.278C64.4711 4.26267 64.2488 4.255 63.9881 4.255C63.8195 4.255 63.6278 4.26267 63.4131 4.278C63.1985 4.29333 62.9838 4.28567 62.7691 4.255C62.5698 4.22433 62.3858 4.163 62.2171 4.071C62.0485 3.96367 61.9181 3.795 61.8261 3.565C61.7495 3.39633 61.7035 3.20467 61.6881 2.99C61.6728 2.77533 61.6881 2.576 61.7341 2.392C61.7801 2.17733 61.8951 2.03167 62.0791 1.955C62.2785 1.863 62.4625 1.80167 62.6311 1.771C62.7845 1.74033 62.9225 1.725 63.0451 1.725C63.0911 1.725 63.1371 1.73267 63.1831 1.748C63.2291 1.748 63.2751 1.748 63.3211 1.748H65.1841C65.2148 1.39533 65.2838 1.06567 65.3911 0.759C65.5138 0.437 65.7438 0.214666 66.0811 0.0919994C66.3418 -3.05474e-07 66.5795 -0.023 66.7941 0.0230003C67.0241 0.0689997 67.2235 0.160999 67.3921 0.298999C67.5608 0.437 67.6988 0.613333 67.8061 0.828C67.9135 1.04267 67.9825 1.265 68.0131 1.495C68.0285 1.541 68.0361 1.587 68.0361 1.633C68.0515 1.66367 68.0591 1.702 68.0591 1.748H69.3701C69.9068 1.748 70.3361 1.78633 70.6581 1.863C70.9801 1.92433 71.2485 2.10833 71.4631 2.415C71.5245 2.507 71.5705 2.63733 71.6011 2.806C71.6318 2.95933 71.6318 3.12033 71.6011 3.289C71.5858 3.44233 71.5475 3.588 71.4861 3.726C71.4248 3.864 71.3481 3.96367 71.2561 4.025C71.1335 4.071 70.9955 4.12467 70.8421 4.186C70.7041 4.232 70.5738 4.255 70.4511 4.255C70.2671 4.27033 70.0985 4.278 69.9451 4.278C69.8071 4.26267 69.6461 4.255 69.4621 4.255C69.1861 4.255 68.9715 4.26267 68.8181 4.278C68.6648 4.278 68.4808 4.27033 68.2661 4.255C68.2661 4.45433 68.2661 4.58467 68.2661 4.646C68.2661 4.692 68.2661 4.738 68.2661 4.784C68.2661 4.83 68.2661 4.899 68.2661 4.991C68.2661 5.083 68.2661 5.25933 68.2661 5.52C68.3428 5.58133 68.4425 5.704 68.5651 5.888C68.6878 6.072 68.8105 6.22533 68.9331 6.348C69.0558 6.47067 69.1861 6.60867 69.3241 6.762C69.4621 6.9 69.6078 7.05333 69.7611 7.222C69.8685 7.32933 69.9605 7.429 70.0371 7.521C70.1138 7.613 70.1905 7.69733 70.2671 7.774ZM67.2541 15.571C67.1161 15.571 66.9628 15.571 66.7941 15.571C66.6408 15.5557 66.5028 15.5633 66.3801 15.594C66.2575 15.6093 66.1501 15.6553 66.0581 15.732C65.9815 15.7933 65.9431 15.893 65.9431 16.031C65.9431 16.1997 65.9508 16.3223 65.9661 16.399C66.0428 16.6597 66.1578 16.7977 66.3111 16.813C66.4798 16.813 66.6638 16.8053 66.8631 16.79C67.2925 16.79 67.7218 16.7977 68.1511 16.813C68.5958 16.813 69.0481 16.8207 69.5081 16.836C69.5541 16.836 69.6998 16.836 69.9451 16.836C70.1905 16.836 70.4895 16.836 70.8421 16.836C71.2101 16.8207 71.5935 16.813 71.9921 16.813C72.3908 16.813 72.7665 16.813 73.1191 16.813C73.4871 16.7977 73.7938 16.79 74.0391 16.79C74.2845 16.79 74.4301 16.79 74.4761 16.79C74.5528 16.79 74.6448 16.7977 74.7521 16.813C74.8595 16.8283 74.9591 16.8283 75.0511 16.813C75.1431 16.7977 75.2198 16.7593 75.2811 16.698C75.3425 16.6367 75.3731 16.5447 75.3731 16.422C75.3731 16.2993 75.3808 16.192 75.3961 16.1C75.4115 16.008 75.3731 15.9083 75.2811 15.801C75.1738 15.6783 75.0435 15.6093 74.8901 15.594C74.7521 15.5787 74.6065 15.5787 74.4531 15.594C74.4378 15.594 74.2461 15.594 73.8781 15.594C73.5101 15.594 73.0578 15.594 72.5211 15.594C71.9998 15.594 71.4325 15.594 70.8191 15.594C70.2058 15.5787 69.6308 15.571 69.0941 15.571C68.5728 15.571 68.1358 15.571 67.7831 15.571C67.4305 15.571 67.2541 15.571 67.2541 15.571ZM74.1081 7.084C73.6635 7.05333 73.2648 7.03033 72.9121 7.015C72.5595 6.98433 72.2835 6.81567 72.0841 6.509C71.9921 6.35567 71.9461 6.164 71.9461 5.934C71.9461 5.704 71.9615 5.50467 71.9921 5.336C72.0381 5.16733 72.1225 5.02933 72.2451 4.922C72.3678 4.79933 72.5825 4.69967 72.8891 4.623C72.9505 4.60767 73.0885 4.6 73.3031 4.6C73.5178 4.58467 73.7478 4.56933 73.9931 4.554C74.2538 4.53867 74.4915 4.531 74.7061 4.531C74.9208 4.51567 75.0588 4.508 75.1201 4.508V2.53C75.1048 2.36133 75.1048 2.19267 75.1201 2.024C75.1355 1.85533 75.1661 1.68667 75.2121 1.518C75.2428 1.39533 75.2735 1.28033 75.3041 1.173C75.3348 1.06567 75.4038 0.950666 75.5111 0.828C75.6338 0.674666 75.8178 0.567333 76.0631 0.506C76.3085 0.444666 76.5615 0.429333 76.8221 0.46C77.0521 0.490666 77.2515 0.559666 77.4201 0.667C77.5888 0.759 77.7115 0.881666 77.7881 1.035C77.8801 1.219 77.9338 1.449 77.9491 1.725C77.9798 1.98567 77.9951 2.14667 77.9951 2.208V9.43C77.9951 9.44533 77.9875 9.499 77.9721 9.591C77.9568 9.683 77.9185 9.798 77.8571 9.936C77.8111 10.0587 77.7421 10.189 77.6501 10.327C77.5581 10.465 77.4355 10.58 77.2821 10.672C77.0675 10.7947 76.8451 10.856 76.6151 10.856C76.4771 10.856 76.3315 10.833 76.1781 10.787C76.0248 10.741 75.8868 10.6797 75.7641 10.603C75.5801 10.4803 75.4498 10.327 75.3731 10.143C75.2811 9.97433 75.2198 9.80567 75.1891 9.637C75.1585 9.46833 75.1355 9.29967 75.1201 9.131V7.084H74.1081Z" fill="black"/>
</svg>
