<svg width="31" height="17" viewBox="0 0 31 17" fill="none" xmlns="http://www.w3.org/2000/svg">
<path d="M1.93584 16.36C1.9225 16.36 1.9025 16.3466 1.87584 16.32C1.7425 16.2133 1.64917 16.06 1.59584 15.86C1.55584 15.6466 1.53584 15.4666 1.53584 15.32C1.5225 15.08 1.5025 14.84 1.47584 14.6C1.4625 14.36 1.45584 14.1266 1.45584 13.9C1.45584 13.5533 1.45584 13.2133 1.45584 12.88C1.45584 12.5466 1.48917 12.2133 1.55584 11.88C1.59584 11.6666 1.6625 11.5 1.75584 11.38C1.84917 11.2466 1.99584 11.14 2.19584 11.06C2.56917 10.9133 2.9425 10.84 3.31584 10.84H12.5358C12.7892 10.8533 13.0492 10.8733 13.3158 10.9C13.5825 10.9266 13.8358 10.9933 14.0758 11.1C14.3425 11.2066 14.5158 11.3866 14.5958 11.64C14.6892 11.88 14.7492 12.1333 14.7758 12.4C14.7892 12.6266 14.7958 12.8933 14.7958 13.2C14.8092 13.4933 14.8092 13.7933 14.7958 14.1C14.7825 14.4066 14.7625 14.7133 14.7358 15.02C14.7092 15.3133 14.6625 15.58 14.5958 15.82C14.5558 15.9666 14.5092 16.0933 14.4558 16.2C14.4025 16.32 14.2958 16.4066 14.1358 16.46C13.9892 16.5133 13.8358 16.5466 13.6758 16.56C13.5292 16.5733 13.3825 16.58 13.2358 16.58L3.01584 16.54C2.8425 16.5266 2.65584 16.52 2.45584 16.52C2.25584 16.52 2.0825 16.4666 1.93584 16.36ZM7.61584 1.01997C8.41584 1.44663 8.9825 2.0333 9.31584 2.77997C9.6625 3.52663 9.79584 4.41997 9.71584 5.45997C9.63584 6.7933 9.25584 7.78663 8.57584 8.43997C7.90917 9.0933 6.8825 9.41997 5.49584 9.41997C5.13584 9.41997 4.8025 9.42663 4.49584 9.43997C4.2025 9.43997 3.9225 9.41997 3.65584 9.37997C3.38917 9.33997 3.11584 9.2733 2.83584 9.17997C2.55584 9.0733 2.25584 8.9133 1.93584 8.69997C1.30917 8.28663 0.875837 7.74663 0.635837 7.07997C0.409171 6.4133 0.295837 5.72663 0.295837 5.01997C0.295837 4.3133 0.422504 3.6533 0.675837 3.03997C0.929171 2.4133 1.3425 1.87997 1.91584 1.43997C2.3825 1.06663 2.9025 0.7933 3.47584 0.619966C4.0625 0.446633 4.64917 0.386633 5.23584 0.439966C5.5025 0.466633 5.72917 0.4933 5.91584 0.519966C6.11584 0.533299 6.3025 0.559966 6.47584 0.599966C6.64917 0.639967 6.8225 0.6933 6.99584 0.759967C7.16917 0.826633 7.37584 0.9133 7.61584 1.01997ZM14.8958 8.39997C14.8958 8.39997 14.8892 8.44663 14.8758 8.53997C14.8625 8.6333 14.8358 8.73997 14.7958 8.85997C14.7558 8.97997 14.6958 9.10663 14.6158 9.23997C14.5358 9.35997 14.4292 9.45997 14.2958 9.53997C14.1092 9.64663 13.9225 9.69997 13.7358 9.69997C13.5092 9.69997 13.2892 9.62663 13.0758 9.47997C12.9292 9.3733 12.8158 9.2333 12.7358 9.05997C12.6292 8.85997 12.5558 8.63997 12.5158 8.39997C12.4892 8.15997 12.4692 7.9133 12.4558 7.65997C12.4558 7.40663 12.4625 7.15997 12.4758 6.91997C12.4892 6.66663 12.4958 6.42663 12.4958 6.19997C12.5092 5.62663 12.5158 5.05997 12.5158 4.49997C12.5158 3.92663 12.5158 3.35997 12.5158 2.79997V2.53997C12.5025 2.3933 12.4958 2.23997 12.4958 2.07997C12.5092 1.90663 12.5358 1.74663 12.5758 1.59997C12.6292 1.39997 12.7492 1.18663 12.9358 0.959967C13.0425 0.826633 13.1892 0.7333 13.3758 0.679967C13.5758 0.6133 13.7892 0.5933 14.0158 0.619966C14.4158 0.686633 14.6825 0.859966 14.8158 1.13997C14.8958 1.3133 14.9292 1.52663 14.9158 1.77997C14.9158 2.0333 14.9092 2.18663 14.8958 2.23997V8.39997ZM7.33584 5.67997C7.33584 5.38663 7.3225 5.1133 7.29584 4.85997C7.26917 4.5933 7.20917 4.3533 7.11584 4.13997C7.03584 3.9133 6.90917 3.7133 6.73584 3.53997C6.5625 3.36663 6.33584 3.22663 6.05584 3.11997C5.74917 3.0133 5.41584 2.95997 5.05584 2.95997C4.69584 2.95997 4.35584 3.02663 4.03584 3.15997C3.71584 3.27997 3.43584 3.4733 3.19584 3.73997C2.95584 3.9933 2.8025 4.32663 2.73584 4.73997C2.69584 5.01997 2.69584 5.30663 2.73584 5.59997C2.78917 5.87997 2.88917 6.13997 3.03584 6.37997C3.19584 6.60663 3.40917 6.79997 3.67584 6.95997C3.95584 7.11997 4.3025 7.21997 4.71584 7.25997C4.99584 7.28663 5.27584 7.28663 5.55584 7.25997C5.83584 7.21997 6.09584 7.13997 6.33584 7.01997C6.57584 6.89997 6.7825 6.7333 6.95584 6.51997C7.12917 6.2933 7.25584 6.0133 7.33584 5.67997ZM3.83584 14.02C3.83584 14.0866 3.83584 14.1533 3.83584 14.22C3.84917 14.2733 3.87584 14.3133 3.91584 14.34C3.9425 14.3666 3.9825 14.3866 4.03584 14.4C4.1025 14.4 4.16917 14.4 4.23584 14.4C4.3025 14.4 4.3825 14.3933 4.47584 14.38H10.5358C10.7225 14.3933 10.9025 14.4066 11.0758 14.42C11.2225 14.4333 11.3758 14.44 11.5358 14.44C11.6958 14.44 11.8425 14.4266 11.9758 14.4C12.1092 14.3866 12.1892 14.3533 12.2158 14.3C12.2425 14.2333 12.2625 14.14 12.2758 14.02C12.2892 13.9133 12.2958 13.7933 12.2958 13.66C12.2958 13.5133 12.2558 13.3866 12.1758 13.28C12.0825 13.1733 11.9492 13.12 11.7758 13.12C11.6158 13.1066 11.4692 13.1066 11.3358 13.12H5.97584C5.6825 13.0933 5.39584 13.0866 5.11584 13.1C4.83584 13.1 4.54917 13.1066 4.25584 13.12C4.14917 13.12 4.0625 13.1266 3.99584 13.14C3.9425 13.14 3.9025 13.2 3.87584 13.32C3.84917 13.4133 3.83584 13.5066 3.83584 13.6C3.83584 13.68 3.83584 13.76 3.83584 13.84C3.84917 13.8666 3.84917 13.8933 3.83584 13.92C3.83584 13.9466 3.83584 13.98 3.83584 14.02Z" fill="black"/>
<path d="M29.5387 14.2C29.5387 14.2 29.5787 14.2133 29.6587 14.24C29.752 14.2666 29.852 14.3133 29.9587 14.38C30.0654 14.4333 30.1654 14.5133 30.2587 14.62C30.352 14.7133 30.412 14.8266 30.4387 14.96C30.5054 15.4666 30.4187 15.86 30.1787 16.14C30.0187 16.3266 29.8454 16.44 29.6587 16.48C29.472 16.52 29.372 16.54 29.3587 16.54H19.1587C18.612 16.54 18.1854 16.4533 17.8787 16.28C17.572 16.12 17.4187 15.8866 17.4187 15.58V12.8C17.4054 12.6533 17.3987 12.46 17.3987 12.22C17.3987 11.9666 17.4054 11.7666 17.4187 11.62C17.4454 11.34 17.5787 11.1133 17.8187 10.94C18.0587 10.7666 18.332 10.68 18.6387 10.68C18.7054 10.68 18.7854 10.6866 18.8787 10.7C18.9854 10.7 19.072 10.7133 19.1387 10.74C19.312 10.7933 19.452 10.8866 19.5587 11.02C19.6654 11.14 19.7454 11.28 19.7987 11.44C19.852 11.6 19.8854 11.7733 19.8987 11.96C19.912 12.1333 19.9254 12.2933 19.9387 12.44C19.9387 12.4933 19.9387 12.6066 19.9387 12.78C19.9387 12.9533 19.9387 13.14 19.9387 13.34C19.9387 13.5266 19.9387 13.7 19.9387 13.86C19.9387 14.02 19.9387 14.12 19.9387 14.16C19.9787 14.1733 20.0854 14.1933 20.2587 14.22C20.4454 14.2333 20.7854 14.24 21.2787 14.24C21.7054 14.24 22.0854 14.2333 22.4187 14.22C22.752 14.2066 22.9254 14.2 22.9387 14.2H29.5387ZM16.4387 9.57997C16.252 9.49997 16.1187 9.34663 16.0387 9.11997C15.932 8.8533 15.912 8.58663 15.9787 8.31997C16.0587 8.0533 16.1787 7.79997 16.3387 7.55997C16.4987 7.31997 16.6787 7.0933 16.8787 6.87997C17.092 6.66663 17.272 6.46663 17.4187 6.27997C17.6454 5.99997 17.8654 5.71997 18.0787 5.43997C18.292 5.15997 18.512 4.8733 18.7387 4.57997C18.8987 4.3533 19.0654 4.08663 19.2387 3.77997C19.412 3.4733 19.512 3.1733 19.5387 2.87997C19.5387 2.79997 19.5454 2.69997 19.5587 2.57997C19.572 2.44663 19.5787 2.3133 19.5787 2.17997C19.592 2.0333 19.6054 1.89997 19.6187 1.77997C19.632 1.65997 19.652 1.55997 19.6787 1.47997C19.7587 1.2133 19.8854 1.0333 20.0587 0.939967C20.2454 0.8333 20.5254 0.779967 20.8987 0.779967C21.112 0.779967 21.352 0.819966 21.6187 0.899966C21.8854 0.966633 22.0654 1.10663 22.1587 1.31997C22.252 1.55997 22.2787 1.83997 22.2387 2.15997C22.212 2.46663 22.2387 2.74663 22.3187 2.99997C22.3854 3.19997 22.4854 3.40663 22.6187 3.61997C22.752 3.8333 22.892 4.04663 23.0387 4.25997C23.292 4.61997 23.5454 5.0133 23.7987 5.43997C24.052 5.8533 24.2854 6.20663 24.4987 6.49997C24.712 6.77997 24.9187 7.0733 25.1187 7.37997C25.3187 7.6733 25.452 7.9933 25.5187 8.33997C25.5854 8.6333 25.552 8.87997 25.4187 9.07997C25.2987 9.26663 25.132 9.40663 24.9187 9.49997C24.7054 9.57997 24.472 9.59997 24.2187 9.55997C23.9654 9.50663 23.7454 9.38663 23.5587 9.19997C23.0654 8.6933 22.6187 8.1533 22.2187 7.57997C21.8187 6.9933 21.4054 6.41997 20.9787 5.85997C20.9787 5.85997 20.9187 5.92663 20.7987 6.05997C20.6787 6.1933 20.532 6.36663 20.3587 6.57997C20.1854 6.7933 19.992 7.02663 19.7787 7.27997C19.5654 7.5333 19.3654 7.7733 19.1787 7.99997C18.992 8.22663 18.8254 8.42663 18.6787 8.59997C18.5454 8.75997 18.4654 8.85997 18.4387 8.89997C18.292 9.0733 18.1254 9.22663 17.9387 9.35997C17.752 9.4933 17.5454 9.58663 17.3187 9.63997C17.172 9.66663 17.0187 9.67997 16.8587 9.67997C16.712 9.67997 16.572 9.64663 16.4387 9.57997ZM30.0987 9.21997C30.0987 9.21997 30.092 9.26663 30.0787 9.35997C30.0654 9.4533 30.0387 9.55997 29.9987 9.67997C29.9587 9.79997 29.8987 9.92663 29.8187 10.06C29.7387 10.18 29.632 10.28 29.4987 10.36C29.312 10.4666 29.1254 10.52 28.9387 10.52C28.712 10.52 28.492 10.4466 28.2787 10.3C28.132 10.1933 28.0187 10.0533 27.9387 9.87997C27.832 9.67997 27.7587 9.45997 27.7187 9.21997C27.692 8.97997 27.672 8.7333 27.6587 8.47997C27.6587 8.22663 27.6654 7.97997 27.6787 7.73997C27.692 7.48663 27.6987 7.24663 27.6987 7.01997C27.6987 6.73997 27.6987 6.4133 27.6987 6.03997C27.712 5.66663 27.7187 5.28663 27.7187 4.89997C27.7187 4.5133 27.7187 4.13997 27.7187 3.77997C27.7187 3.40663 27.7187 3.07997 27.7187 2.79997V2.53997C27.7054 2.3933 27.6987 2.23997 27.6987 2.07997C27.712 1.90663 27.7387 1.74663 27.7787 1.59997C27.832 1.39997 27.952 1.18663 28.1387 0.959967C28.2454 0.826633 28.392 0.7333 28.5787 0.679967C28.7787 0.6133 28.992 0.5933 29.2187 0.619966C29.6187 0.686633 29.8854 0.859966 30.0187 1.13997C30.0987 1.3133 30.132 1.52663 30.1187 1.77997C30.1187 2.0333 30.112 2.18663 30.0987 2.23997V9.21997Z" fill="black"/>
</svg>
