<svg width="53" height="18" viewBox="0 0 53 18" fill="none" xmlns="http://www.w3.org/2000/svg">
<path d="M12.5135 7.75996C12.7668 7.8933 13.0135 8.0533 13.2535 8.23996C13.4935 8.4133 13.7201 8.59997 13.9335 8.79996C14.0401 8.90663 14.1135 9.03997 14.1535 9.19997C14.1935 9.35997 14.1935 9.51997 14.1535 9.67997C14.1268 9.83997 14.0601 9.98663 13.9535 10.12C13.8601 10.24 13.7335 10.32 13.5735 10.36C13.1468 10.4666 12.7001 10.46 12.2335 10.34C11.7801 10.22 11.3601 10.0666 10.9735 9.87996C10.6135 9.6933 10.2801 9.51996 9.97346 9.35996C9.66679 9.18663 9.36013 9.00663 9.05346 8.81997C8.96013 8.7533 8.83346 8.67996 8.67346 8.59997C8.52679 8.50663 8.38013 8.4133 8.23346 8.31996C8.06013 8.2133 7.87346 8.10663 7.67346 7.99997C7.44679 8.11997 7.22679 8.2333 7.01346 8.33996C6.82679 8.4333 6.64013 8.52663 6.45346 8.61996C6.28013 8.69996 6.14013 8.7733 6.03346 8.83996C5.68679 9.03997 5.36679 9.2133 5.07346 9.35996C4.78013 9.50663 4.46013 9.6733 4.11346 9.85997C3.84679 9.9933 3.57346 10.14 3.29346 10.3C3.02679 10.4466 2.74013 10.5066 2.43346 10.48C2.19346 10.4533 1.96013 10.38 1.73346 10.26C1.50679 10.14 1.36679 9.9333 1.31346 9.63997C1.28679 9.47997 1.30013 9.30663 1.35346 9.11996C1.40679 8.8933 1.49346 8.70663 1.61346 8.55997C1.74679 8.4133 1.90679 8.27996 2.09346 8.15996L3.47346 7.37996C3.70013 7.24663 3.90013 7.13996 4.07346 7.05997C4.24679 6.96663 4.45346 6.8533 4.69346 6.71997C4.92013 6.58663 5.18013 6.43996 5.47346 6.27996C5.78013 6.10663 6.06679 5.96663 6.33346 5.85996V4.23997H4.21346C4.00013 4.23997 3.81346 4.24663 3.65346 4.25996C3.50679 4.25996 3.33346 4.24663 3.13346 4.21996C2.98679 4.1933 2.82679 4.17996 2.65346 4.17996C2.48013 4.17996 2.32013 4.13996 2.17346 4.05997C2.02679 3.97996 1.90679 3.83996 1.81346 3.63996C1.73346 3.4933 1.68679 3.31997 1.67346 3.11997C1.66013 2.91996 1.68679 2.73996 1.75346 2.57996C1.86013 2.33996 2.03346 2.15996 2.27346 2.03996C2.51346 1.91996 2.76013 1.85996 3.01346 1.85996H3.47346C3.68679 1.8733 3.84013 1.87996 3.93346 1.87996C4.04013 1.86663 4.20013 1.85996 4.41346 1.85996H11.3335C11.5468 1.85996 11.7935 1.8533 12.0735 1.83996C12.3535 1.82663 12.6201 1.84663 12.8735 1.89996C13.1401 1.9533 13.3735 2.0533 13.5735 2.19997C13.7868 2.34663 13.9268 2.57996 13.9935 2.89996C14.0735 3.2733 14.0135 3.55996 13.8135 3.75996C13.6268 3.94663 13.3801 4.08663 13.0735 4.17996C12.7801 4.25996 12.4668 4.30663 12.1335 4.31997C11.8001 4.31997 11.5268 4.3133 11.3135 4.29996C11.1001 4.28663 10.8735 4.27996 10.6335 4.27996C10.4068 4.26663 10.1868 4.25996 9.97346 4.25996C9.73346 4.25996 9.49346 4.26663 9.25346 4.27996V5.89997C9.44013 6.00663 9.61346 6.09996 9.77346 6.17997C9.85346 6.21996 9.92679 6.26663 9.99346 6.31996C10.0735 6.35996 10.1535 6.40663 10.2335 6.45997C10.3668 6.52663 10.4935 6.5933 10.6135 6.65997C10.7468 6.72663 10.8801 6.79996 11.0135 6.87996C11.2668 7.02663 11.5135 7.1733 11.7535 7.31996C12.0068 7.46663 12.2601 7.6133 12.5135 7.75996ZM2.21346 14.06C1.90679 14.0466 1.61346 14.0066 1.33346 13.94C1.06679 13.86 0.846794 13.6866 0.673461 13.42C0.526794 13.1933 0.453461 12.9533 0.453461 12.7C0.466794 12.4333 0.566794 12.2066 0.753461 12.02C0.860127 11.9133 0.993461 11.8333 1.15346 11.78C1.31346 11.7266 1.46679 11.6866 1.61346 11.66C1.76013 11.6333 1.88679 11.62 1.99346 11.62C2.11346 11.62 2.18013 11.62 2.19346 11.62H13.0935C13.3068 11.6066 13.5335 11.6066 13.7735 11.62C14.0268 11.6333 14.2601 11.68 14.4735 11.76C14.6868 11.8266 14.8668 11.9466 15.0135 12.12C15.1601 12.28 15.2335 12.5066 15.2335 12.8C15.2335 13.1333 15.1201 13.3866 14.8935 13.56C14.6668 13.72 14.3935 13.84 14.0735 13.92C13.7668 13.9866 13.4468 14.0266 13.1135 14.04C12.7801 14.04 12.5068 14.04 12.2935 14.04H11.5135C11.2468 14.0533 10.9868 14.06 10.7335 14.06C10.4801 14.0466 10.2201 14.04 9.95346 14.04H9.19346C9.20679 14.4133 9.22013 14.8066 9.23346 15.22C9.24679 15.6333 9.22679 16 9.17346 16.32C9.14679 16.5733 9.08013 16.8133 8.97346 17.04C8.88013 17.28 8.72013 17.4733 8.49346 17.62C8.29346 17.7533 8.06013 17.82 7.79346 17.82C7.52679 17.8333 7.28679 17.78 7.07346 17.66C6.90013 17.5533 6.76679 17.4 6.67346 17.2C6.59346 17 6.54013 16.8066 6.51346 16.62C6.48679 16.4733 6.47346 16.3133 6.47346 16.14C6.48679 15.9666 6.49346 15.8066 6.49346 15.66C6.48013 15.42 6.47346 15.16 6.47346 14.88C6.47346 14.5866 6.47346 14.3 6.47346 14.02H5.97346C5.60013 14.02 5.26013 14.0266 4.95346 14.04C4.66013 14.04 4.37346 14.0466 4.09346 14.06C3.81346 14.06 3.52013 14.06 3.21346 14.06C2.92013 14.06 2.58679 14.06 2.21346 14.06Z" fill="black"/>
<path d="M19.2537 10.92C19.3337 10.84 19.407 10.7466 19.4737 10.64C19.5537 10.52 19.6137 10.44 19.6537 10.4V5.87996C19.587 5.90663 19.527 5.9133 19.4737 5.89997C19.4203 5.88663 19.3603 5.87996 19.2937 5.87996H18.7537C18.287 5.87996 17.8803 5.8733 17.5337 5.85996C17.2003 5.84663 16.987 5.82663 16.8937 5.79997C16.6537 5.74663 16.447 5.65997 16.2737 5.53997C16.1137 5.40663 15.9937 5.21997 15.9137 4.97997C15.887 4.88663 15.867 4.79996 15.8537 4.71996C15.8403 4.63997 15.847 4.54663 15.8737 4.43997C15.8737 4.30663 15.9403 4.13996 16.0737 3.93996C16.1137 3.8733 16.1737 3.8133 16.2537 3.75996C16.3337 3.70663 16.4137 3.65997 16.4937 3.61996C16.5737 3.5533 16.6537 3.5133 16.7337 3.49997C16.8137 3.4733 16.8937 3.44663 16.9737 3.41997H19.6137C19.6137 3.2733 19.6203 3.0733 19.6337 2.81996C19.647 2.5533 19.6537 2.35996 19.6537 2.23996C19.6803 2.06663 19.7203 1.9133 19.7737 1.77996C19.827 1.6333 19.887 1.49997 19.9537 1.37997C20.1137 1.12663 20.347 0.959965 20.6537 0.879964C20.8003 0.813298 20.947 0.786631 21.0937 0.799964C21.2537 0.813298 21.407 0.853298 21.5537 0.919965C21.6603 0.959964 21.7537 1.01996 21.8337 1.09997C21.927 1.16663 21.9937 1.24663 22.0337 1.33996C22.1937 1.52663 22.2937 1.7133 22.3337 1.89996C22.3603 2.00663 22.3803 2.11996 22.3937 2.23996C22.407 2.35996 22.4137 2.47996 22.4137 2.59996V3.41997H23.6337C23.9003 3.41997 24.167 3.42663 24.4337 3.43996C24.7137 3.4533 24.947 3.4733 25.1337 3.49997C25.3203 3.53996 25.487 3.6133 25.6337 3.71996C25.7937 3.8133 25.927 3.94663 26.0337 4.11996C26.1403 4.2933 26.1937 4.47996 26.1937 4.67996C26.2337 4.82663 26.207 4.9933 26.1137 5.17997C25.9537 5.48663 25.6403 5.6933 25.1737 5.79997C25.027 5.82663 24.8603 5.83996 24.6737 5.83996C24.5003 5.83996 24.3137 5.8533 24.1137 5.87996C23.9003 5.87996 23.647 5.88663 23.3537 5.89997C23.0603 5.9133 22.747 5.90663 22.4137 5.87996C22.4137 5.98663 22.407 6.1133 22.3937 6.25997C22.3937 6.40663 22.3937 6.5533 22.3937 6.69996C22.3937 6.84663 22.3937 6.98663 22.3937 7.11997C22.3937 7.23997 22.4003 7.33997 22.4137 7.41996V9.61996C22.4137 9.68663 22.407 9.7533 22.3937 9.81996C22.3803 9.8733 22.387 9.93997 22.4137 10.02V10.34C22.4803 10.3933 22.5403 10.4666 22.5937 10.56C22.6603 10.64 22.747 10.7333 22.8537 10.84C22.947 10.92 23.0203 11 23.0737 11.08C23.1403 11.16 23.207 11.2333 23.2737 11.3C23.3403 11.38 23.4003 11.46 23.4537 11.54C23.5203 11.62 23.5937 11.7 23.6737 11.78C23.7403 11.8466 23.807 11.9266 23.8737 12.02C23.9403 12.1133 24.0137 12.2 24.0937 12.28C24.1337 12.3466 24.1737 12.4066 24.2137 12.46C24.2537 12.5133 24.2937 12.56 24.3337 12.6C24.4137 12.72 24.4803 12.8333 24.5337 12.94C24.667 13.1 24.7937 13.2666 24.9137 13.44C25.0337 13.6 25.1537 13.7866 25.2737 14C25.4203 14.1866 25.5337 14.38 25.6137 14.58C25.707 14.7666 25.7737 14.9533 25.8137 15.14C25.8537 15.3266 25.8537 15.52 25.8137 15.72C25.7737 15.92 25.6803 16.1 25.5337 16.26C25.347 16.42 25.1003 16.5 24.7937 16.5C24.647 16.5 24.507 16.4866 24.3737 16.46C24.2537 16.42 24.1203 16.3666 23.9737 16.3C23.8403 16.22 23.7203 16.14 23.6137 16.06C23.5203 15.9666 23.4203 15.88 23.3137 15.8C23.1937 15.68 23.0803 15.5533 22.9737 15.42C22.867 15.2733 22.7603 15.14 22.6537 15.02C22.547 14.9 22.4403 14.7733 22.3337 14.64C22.2403 14.4933 22.1403 14.3466 22.0337 14.2C21.887 14.0533 21.727 13.86 21.5537 13.62C21.4737 13.5 21.3803 13.4 21.2737 13.32C21.1803 13.2266 21.0937 13.14 21.0137 13.06C20.9337 13.1666 20.8537 13.2733 20.7737 13.38C20.6937 13.4733 20.6137 13.5733 20.5337 13.68C20.4403 13.7866 20.3537 13.8866 20.2737 13.98C20.1937 14.0733 20.1137 14.1733 20.0337 14.28C19.9537 14.4133 19.8603 14.5466 19.7537 14.68C19.6603 14.8133 19.5603 14.94 19.4537 15.06C19.3737 15.1933 19.2803 15.3266 19.1737 15.46C19.0803 15.5933 18.967 15.72 18.8337 15.84C18.567 16.1066 18.3137 16.2933 18.0737 16.4C17.847 16.4933 17.6137 16.54 17.3737 16.54C17.307 16.54 17.2403 16.54 17.1737 16.54C17.1203 16.54 17.0603 16.5266 16.9937 16.5C16.7137 16.42 16.507 16.24 16.3737 15.96C16.2803 15.7466 16.2537 15.5333 16.2937 15.32C16.3203 15.1866 16.347 15.0666 16.3737 14.96C16.4003 14.84 16.447 14.74 16.5137 14.66C16.5537 14.5533 16.6003 14.4533 16.6537 14.36C16.707 14.2533 16.767 14.1466 16.8337 14.04C16.9003 13.96 16.9603 13.8733 17.0137 13.78C17.0803 13.6866 17.1603 13.5933 17.2537 13.5C17.2937 13.46 17.3337 13.4133 17.3737 13.36C17.4137 13.3066 17.4537 13.26 17.4937 13.22L17.7337 12.86C17.7737 12.7666 17.8203 12.6933 17.8737 12.64C17.927 12.5733 18.007 12.4666 18.1137 12.32C18.2203 12.2 18.3203 12.08 18.4137 11.96C18.507 11.84 18.5937 11.7266 18.6737 11.62C18.7803 11.5 18.8803 11.38 18.9737 11.26C19.0803 11.14 19.1737 11.0266 19.2537 10.92ZM30.4737 7.71996C30.5403 7.71996 30.6003 7.72663 30.6537 7.73996C30.7203 7.7533 30.787 7.75996 30.8537 7.75996C30.9203 7.7733 30.9937 7.78663 31.0737 7.79997C31.1537 7.79997 31.2337 7.80663 31.3137 7.81996C31.4603 7.84663 31.607 7.89996 31.7537 7.97996C31.9003 8.04663 32.007 8.1533 32.0737 8.29996C32.167 8.44663 32.2137 8.61997 32.2137 8.81997C32.2137 8.92663 32.207 9.02663 32.1937 9.11996C32.1937 9.19996 32.1803 9.2933 32.1537 9.39997C32.127 9.50663 32.0937 9.61997 32.0537 9.73997C32.027 9.85997 31.967 9.9533 31.8737 10.02C31.687 10.1533 31.507 10.24 31.3337 10.28C31.1203 10.3066 30.8603 10.3133 30.5537 10.3C30.247 10.2866 29.987 10.2866 29.7737 10.3C29.7603 10.3 29.747 10.3066 29.7337 10.32H29.7137L29.6937 10.34V10.4C29.6937 10.56 29.6937 10.7533 29.6937 10.98C29.6937 11.1933 29.6937 11.42 29.6937 11.66C29.6937 11.8866 29.6937 12.1133 29.6937 12.34C29.6937 12.5533 29.6937 12.7466 29.6937 12.92C29.7203 13.6133 29.7203 14.2933 29.6937 14.96V15.24C29.6937 15.4133 29.687 15.6066 29.6737 15.82C29.6737 16.02 29.6603 16.22 29.6337 16.42C29.607 16.62 29.5603 16.8133 29.4937 17C29.427 17.1733 29.3337 17.32 29.2137 17.44C29.0537 17.6266 28.8403 17.72 28.5737 17.72C28.5737 17.72 28.5603 17.7133 28.5337 17.7C28.2137 17.6866 27.9537 17.5933 27.7537 17.42C27.567 17.2466 27.4203 17.0333 27.3137 16.78C27.2203 16.5266 27.1603 16.2666 27.1337 16C27.107 15.72 27.0937 15.4733 27.0937 15.26V3.37996C27.0937 3.36663 27.0937 3.30663 27.0937 3.19996C27.0937 3.07996 27.107 2.94663 27.1337 2.79996C27.1603 2.63996 27.2003 2.47996 27.2537 2.31996C27.3203 2.14663 27.407 2.00663 27.5137 1.89996C27.607 1.80663 27.7403 1.73996 27.9137 1.69996C28.1003 1.64663 28.267 1.61996 28.4137 1.61996C28.707 1.61996 28.9537 1.71996 29.1537 1.91997C29.3403 2.10663 29.447 2.30663 29.4737 2.51996C29.5137 2.71996 29.547 2.9333 29.5737 3.15996C29.587 3.2133 29.5937 3.2933 29.5937 3.39997C29.6203 3.62663 29.6337 3.85996 29.6337 4.09996C29.647 4.33996 29.6603 4.57996 29.6737 4.81996C29.6737 4.96663 29.6737 5.1133 29.6737 5.25996C29.687 5.3933 29.6937 5.5333 29.6937 5.67996C29.6803 5.75997 29.6737 5.83997 29.6737 5.91996C29.687 5.98663 29.6937 6.0533 29.6937 6.11996V7.23996C29.6937 7.30663 29.6937 7.37996 29.6937 7.45996C29.6937 7.53996 29.707 7.6133 29.7337 7.67997C29.7337 7.6933 29.8003 7.69996 29.9337 7.69996C30.067 7.69996 30.1403 7.69996 30.1537 7.69996C30.2737 7.72663 30.367 7.7333 30.4337 7.71996H30.4737Z" fill="black"/>
<path d="M45.072 4.51997C45.0853 4.79996 45.092 5.0933 45.092 5.39996C45.1053 5.6933 45.112 5.98663 45.112 6.27996C45.112 6.55996 45.112 6.82663 45.112 7.07997C45.112 7.3333 45.112 7.5533 45.112 7.73996C45.112 7.9133 45.112 8.06663 45.112 8.19997C45.1253 8.31997 45.132 8.43997 45.132 8.55997C45.132 8.67997 45.132 8.80663 45.132 8.93997C45.1453 9.0733 45.152 9.21996 45.152 9.37996C45.152 9.52663 45.1653 9.6933 45.192 9.87996C45.232 10.0533 45.272 10.2333 45.312 10.42C45.3653 10.6066 45.4187 10.7933 45.472 10.98C45.5387 11.1533 45.5987 11.3 45.652 11.42L46.432 13.6C46.4453 13.64 46.4653 13.7 46.492 13.78C46.532 13.86 46.5653 13.9466 46.592 14.04C46.6187 14.1333 46.6453 14.2266 46.672 14.32C46.6987 14.4133 46.7187 14.48 46.732 14.52C46.7587 14.6666 46.7853 14.8266 46.812 15C46.8387 15.1733 46.8187 15.3533 46.752 15.54C46.672 15.74 46.5587 15.8933 46.412 16C46.2787 16.0933 46.1453 16.1466 46.012 16.16H45.992C45.8053 16.16 45.652 16.0866 45.532 15.94C45.412 15.7933 45.2787 15.6066 45.132 15.38C45.052 15.2733 44.9587 15.1066 44.852 14.88C44.7453 14.6533 44.632 14.4133 44.512 14.16C44.4053 13.9066 44.3053 13.6733 44.212 13.46C44.1187 13.2333 44.052 13.0666 44.012 12.96L43.032 14.92C42.8853 15.1466 42.7453 15.3866 42.612 15.64C42.492 15.8933 42.3187 16.0733 42.092 16.18C41.9987 16.2333 41.9053 16.26 41.812 16.26C41.5853 16.26 41.372 16.14 41.172 15.9C40.9987 15.6866 40.912 15.4066 40.912 15.06C40.912 14.94 40.9187 14.8466 40.932 14.78C40.8653 14.62 40.7987 14.4533 40.732 14.28C40.6653 14.0933 40.5987 13.9133 40.532 13.74C40.4787 13.5666 40.4253 13.4133 40.372 13.28C40.332 13.1466 40.2987 13.04 40.272 12.96C40.232 13.0266 40.1587 13.16 40.052 13.36C39.9587 13.56 39.8587 13.78 39.752 14.02C39.6587 14.2466 39.5653 14.46 39.472 14.66C39.3787 14.8466 39.312 14.9666 39.272 15.02C39.1253 15.2466 38.992 15.4733 38.872 15.7C38.7653 15.9133 38.5987 16.0733 38.372 16.18C38.2787 16.2333 38.1787 16.26 38.072 16.26C37.832 16.26 37.6253 16.14 37.452 15.9C37.3587 15.7933 37.3053 15.6666 37.292 15.52C37.2787 15.3733 37.272 15.22 37.272 15.06C37.2853 14.82 37.3253 14.5933 37.392 14.38C37.472 14.1666 37.5587 13.9666 37.652 13.78L39.052 10.4C39.092 10.32 39.1253 10.2266 39.152 10.12C39.1787 10.0133 39.1987 9.89996 39.212 9.77996C39.2387 9.65996 39.2587 9.54663 39.272 9.43997C39.2853 9.3333 39.292 9.24663 39.292 9.17997C39.3053 8.96663 39.312 8.75997 39.312 8.55997C39.312 8.34663 39.312 8.11996 39.312 7.87996V4.53996L38.492 4.49997C38.292 4.48663 38.0987 4.4133 37.912 4.27996C37.7387 4.14663 37.6187 3.97996 37.552 3.77997C37.432 3.44663 37.4787 3.1333 37.692 2.83997C37.9053 2.58663 38.1787 2.42663 38.512 2.35996C38.5787 2.34663 38.6387 2.33996 38.692 2.33996C38.7587 2.32663 38.8253 2.31996 38.892 2.31996L45.392 2.33996C45.9253 2.33996 46.292 2.4333 46.492 2.61996C46.7053 2.7933 46.8187 3.1133 46.832 3.57997C46.8453 3.84663 46.7653 4.0533 46.592 4.19996C46.432 4.34663 46.212 4.44663 45.932 4.49997L45.072 4.51997ZM52.812 5.11996C52.812 5.18663 52.8053 5.24663 52.792 5.29996C52.792 5.3533 52.792 5.39996 52.792 5.43997V15.06C52.792 15.1 52.792 15.1466 52.792 15.2C52.8053 15.24 52.812 15.2933 52.812 15.36C52.8253 15.6666 52.8187 15.9866 52.792 16.32C52.7787 16.6533 52.6787 16.9533 52.492 17.22C52.372 17.3933 52.232 17.5133 52.072 17.58C51.9253 17.66 51.772 17.6866 51.612 17.66C51.452 17.6333 51.2987 17.56 51.152 17.44C51.0187 17.3333 50.912 17.1866 50.832 17C50.7253 16.7333 50.652 16.46 50.612 16.18C50.5853 15.8866 50.572 15.6 50.572 15.32V10.3H49.452V15.12C49.452 15.1733 49.452 15.2333 49.452 15.3C49.452 15.3533 49.4587 15.42 49.472 15.5C49.4853 15.7933 49.4587 16.1133 49.392 16.46C49.3387 16.8066 49.2453 17.0733 49.112 17.26C48.9653 17.4733 48.752 17.58 48.472 17.58C48.1253 17.58 47.852 17.4666 47.652 17.24C47.4387 17.0133 47.312 16.7333 47.272 16.4C47.2453 16.0666 47.232 15.7533 47.232 15.46V3.73996C47.232 3.56663 47.232 3.3733 47.232 3.15996C47.2453 2.9333 47.2787 2.71996 47.332 2.51996C47.3987 2.31996 47.4853 2.14663 47.592 1.99996C47.712 1.83996 47.8787 1.7333 48.092 1.67996C48.2253 1.63996 48.372 1.62663 48.532 1.63997C48.692 1.6533 48.8253 1.7133 48.932 1.81996C49.0653 1.96663 49.1653 2.17996 49.232 2.45996C49.312 2.72663 49.3653 3.02663 49.392 3.35996C49.432 3.67996 49.452 4.0133 49.452 4.35996C49.452 4.70663 49.452 5.02663 49.452 5.31996V7.89997H50.572V3.91996C50.572 3.7333 50.572 3.51996 50.572 3.27996C50.5853 3.02663 50.6253 2.78663 50.692 2.55996C50.7587 2.3333 50.8587 2.13996 50.992 1.97996C51.1387 1.80663 51.3453 1.69996 51.612 1.65996C51.892 1.64663 52.1253 1.7333 52.312 1.91997C52.4453 2.07996 52.5453 2.29996 52.612 2.57996C52.692 2.84663 52.7453 3.1333 52.772 3.43996C52.812 3.7333 52.8253 4.0333 52.812 4.33997C52.812 4.64663 52.812 4.90663 52.812 5.11996ZM41.412 8.97997C41.4253 9.25997 41.4587 9.5733 41.512 9.91997C41.5653 10.2533 41.652 10.6133 41.772 11L42.092 12.06L42.772 10.6C42.812 10.52 42.8453 10.4266 42.872 10.32C42.8987 10.2133 42.9187 10.1 42.932 9.97997C42.9587 9.85997 42.9787 9.74663 42.992 9.63997C43.0187 9.5333 43.032 9.44663 43.032 9.37996C43.0453 9.16663 43.052 8.95997 43.052 8.75996C43.052 8.54663 43.052 8.31996 43.052 8.07997V4.53996H41.352C41.3787 5.04663 41.392 5.5533 41.392 6.05996C41.392 6.56663 41.392 6.9933 41.392 7.33997C41.392 7.5133 41.392 7.66663 41.392 7.79997C41.392 7.91997 41.392 8.03996 41.392 8.15996C41.392 8.27996 41.392 8.40663 41.392 8.53997C41.4053 8.6733 41.412 8.81997 41.412 8.97997Z" fill="black"/>
</svg>
